<?xml version="1.0" ?>
<svg baseProfile="full" height="1517" version="1.1" width="1353" xmlns="http://www.w3.org/2000/svg" xmlns:ev="http://www.w3.org/2001/xml-events" xmlns:xlink="http://www.w3.org/1999/xlink">
	<defs/>
	<path d="M 1165.0,568.0 L 1166.0,568.0" style="stroke:#070107; fill:none;"/>
	<path d="M 1168.0,568.0 L 1168.0,569.0" style="stroke:#070107; fill:none;"/>
	<path d="M 1170.0,570.0 L 1172.0,570.0" style="stroke:#070107; fill:none;"/>
	<path d="M 1157.0,571.0 L 1154.0,574.0" style="stroke:#070107; fill:none;"/>
	<path d="M 1175.0,571.0 L 1179.0,574.0" style="stroke:#070107; fill:none;"/>
	<path d="M 1183.0,575.0 L 1186.0,576.0" style="stroke:#070107; fill:none;"/>
	<path d="M 1155.0,576.0 L 1155.0,577.0" style="stroke:#070107; fill:none;"/>
	<path d="M 1189.0,578.0 L 1198.0,583.0" style="stroke:#070107; fill:none;"/>
	<path d="M 1151.0,579.0 L 1152.0,579.0" style="stroke:#070107; fill:none;"/>
	<path d="M 1150.0,581.0 L 1151.0,582.0" style="stroke:#070107; fill:none;"/>
	<path d="M 893.0,582.0 L 894.0,582.0" style="stroke:#070107; fill:none;"/>
	<path d="M 1200.0,586.0 L 1202.0,587.0" style="stroke:#070107; fill:none;"/>
	<path d="M 1192.0,606.0 L 1193.0,607.0" style="stroke:#070107; fill:none;"/>
	<path d="M 788.0,607.0 L 789.0,607.0" style="stroke:#070107; fill:none;"/>
	<path d="M 807.0,610.0 L 808.0,610.0" style="stroke:#070107; fill:none;"/>
	<path d="M 1197.0,612.0 L 1197.0,613.0" style="stroke:#070107; fill:none;"/>
	<path d="M 765.0,614.0 L 766.0,614.0" style="stroke:#070107; fill:none;"/>
	<path d="M 789.0,614.0 L 789.0,615.0" style="stroke:#070107; fill:none;"/>
	<path d="M 1199.0,616.0 L 1200.0,617.0" style="stroke:#070107; fill:none;"/>
	<path d="M 1213.0,618.0 L 1213.0,622.0" style="stroke:#070107; fill:none;"/>
	<path d="M 1170.0,620.0 L 1170.0,621.0" style="stroke:#070107; fill:none;"/>
	<path d="M 1199.0,620.0 L 1202.0,622.0" style="stroke:#070107; fill:none;"/>
	<path d="M 1168.0,623.0 L 1170.0,624.0" style="stroke:#070107; fill:none;"/>
	<path d="M 1180.0,624.0 L 1181.0,624.0" style="stroke:#070107; fill:none;"/>
	<path d="M 1214.0,625.0 L 1214.0,626.0" style="stroke:#070107; fill:none;"/>
	<path d="M 1166.0,626.0 L 1166.0,627.0" style="stroke:#070107; fill:none;"/>
	<path d="M 792.0,627.0 L 793.0,627.0" style="stroke:#070107; fill:none;"/>
	<path d="M 1203.0,632.0 L 1203.0,635.0" style="stroke:#070107; fill:none;"/>
	<path d="M 1181.0,633.0 L 1183.0,634.0" style="stroke:#070107; fill:none;"/>
	<path d="M 1164.0,634.0 L 1163.0,636.0" style="stroke:#070107; fill:none;"/>
	<path d="M 1181.0,637.0 L 1183.0,638.0" style="stroke:#070107; fill:none;"/>
	<path d="M 1216.0,638.0 L 1217.0,638.0" style="stroke:#070107; fill:none;"/>
	<path d="M 1205.0,644.0 L 1207.0,646.0" style="stroke:#070107; fill:none;"/>
	<path d="M 863.0,646.0 L 864.0,646.0" style="stroke:#070107; fill:none;"/>
	<path d="M 867.0,646.0 L 866.0,647.0" style="stroke:#070107; fill:none;"/>
	<path d="M 860.0,647.0 L 860.0,648.0" style="stroke:#070107; fill:none;"/>
	<path d="M 828.0,649.0 L 829.0,649.0" style="stroke:#070107; fill:none;"/>
	<path d="M 895.0,650.0 L 898.0,650.0" style="stroke:#070107; fill:none;"/>
	<path d="M 1217.0,649.0 L 1218.0,649.0" style="stroke:#070107; fill:none;"/>
	<path d="M 906.0,650.0 L 906.0,651.0" style="stroke:#070107; fill:none;"/>
	<path d="M 816.0,651.0 L 817.0,651.0" style="stroke:#070107; fill:none;"/>
	<path d="M 910.0,651.0 L 911.0,651.0" style="stroke:#070107; fill:none;"/>
	<path d="M 1186.0,652.0 L 1187.0,652.0" style="stroke:#070107; fill:none;"/>
	<path d="M 1217.0,652.0 L 1218.0,652.0" style="stroke:#070107; fill:none;"/>
	<path d="M 870.0,653.0 L 869.0,654.0" style="stroke:#070107; fill:none;"/>
	<path d="M 1155.0,653.0 L 1156.0,654.0" style="stroke:#070107; fill:none;"/>
	<path d="M 858.0,654.0 L 859.0,655.0" style="stroke:#070107; fill:none;"/>
	<path d="M 887.0,654.0 L 887.0,655.0" style="stroke:#070107; fill:none;"/>
	<path d="M 890.0,654.0 L 892.0,656.0" style="stroke:#070107; fill:none;"/>
	<path d="M 918.0,654.0 L 919.0,654.0" style="stroke:#070107; fill:none;"/>
	<path d="M 1187.0,654.0 L 1187.0,656.0 L 1187.0,654.0" style="stroke:#070107; fill:none;"/>
	<path d="M 1219.0,655.0 L 1219.0,660.0" style="stroke:#070107; fill:none;"/>
	<path d="M 1152.0,661.0 L 1155.0,658.0" style="stroke:#070107; fill:none;"/>
	<path d="M 911.0,659.0 L 912.0,660.0" style="stroke:#070107; fill:none;"/>
	<path d="M 801.0,660.0 L 802.0,661.0" style="stroke:#070107; fill:none;"/>
	<path d="M 895.0,660.0 L 897.0,663.0" style="stroke:#070107; fill:none;"/>
	<path d="M 1189.0,662.0 L 1191.0,663.0" style="stroke:#070107; fill:none;"/>
	<path d="M 798.0,663.0 L 797.0,664.0" style="stroke:#070107; fill:none;"/>
	<path d="M 914.0,664.0 L 915.0,664.0" style="stroke:#070107; fill:none;"/>
	<path d="M 794.0,665.0 L 789.0,670.0" style="stroke:#070107; fill:none;"/>
	<path d="M 1152.0,666.0 L 1150.0,668.0" style="stroke:#070107; fill:none;"/>
	<path d="M 1190.0,666.0 L 1195.0,672.0" style="stroke:#070107; fill:none;"/>
	<path d="M 899.0,667.0 L 901.0,670.0" style="stroke:#070107; fill:none;"/>
	<path d="M 822.0,668.0 L 822.0,669.0" style="stroke:#070107; fill:none;"/>
	<path d="M 921.0,668.0 L 919.0,669.0" style="stroke:#070107; fill:none;"/>
	<path d="M 947.0,670.0 L 948.0,672.0" style="stroke:#070107; fill:none;"/>
	<path d="M 875.0,671.0 L 875.0,672.0" style="stroke:#070107; fill:none;"/>
	<path d="M 787.0,672.0 L 788.0,672.0" style="stroke:#070107; fill:none;"/>
	<path d="M 819.0,672.0 L 820.0,672.0" style="stroke:#070107; fill:none;"/>
	<path d="M 862.0,672.0 L 863.0,672.0" style="stroke:#070107; fill:none;"/>
	<path d="M 902.0,672.0 L 902.0,675.0" style="stroke:#070107; fill:none;"/>
	<path d="M 868.0,673.0 L 869.0,673.0" style="stroke:#070107; fill:none;"/>
	<path d="M 923.0,673.0 L 924.0,674.0" style="stroke:#070107; fill:none;"/>
	<path d="M 815.0,674.0 L 816.0,674.0" style="stroke:#070107; fill:none;"/>
	<path d="M 813.0,675.0 L 813.0,676.0" style="stroke:#070107; fill:none;"/>
	<path d="M 1196.0,675.0 L 1198.0,678.0" style="stroke:#070107; fill:none;"/>
	<path d="M 880.0,676.0 L 880.0,677.0" style="stroke:#070107; fill:none;"/>
	<path d="M 1147.0,677.0 L 1147.0,678.0 L 1147.0,677.0" style="stroke:#070107; fill:none;"/>
	<path d="M 957.0,677.0 L 957.0,678.0" style="stroke:#070107; fill:none;"/>
	<path d="M 930.0,679.0 L 931.0,680.0" style="stroke:#070107; fill:none;"/>
	<path d="M 775.0,682.0 L 778.0,680.0" style="stroke:#070107; fill:none;"/>
	<path d="M 1221.0,681.0 L 1221.0,682.0" style="stroke:#070107; fill:none;"/>
	<path d="M 923.0,682.0 L 927.0,682.0" style="stroke:#070107; fill:none;"/>
	<path d="M 1145.0,686.0 L 1148.0,682.0" style="stroke:#070107; fill:none;"/>
	<path d="M 803.0,683.0 L 803.0,684.0" style="stroke:#070107; fill:none;"/>
	<path d="M 858.0,683.0 L 863.0,688.0" style="stroke:#070107; fill:none;"/>
	<path d="M 902.0,683.0 L 903.0,684.0" style="stroke:#070107; fill:none;"/>
	<path d="M 935.0,683.0 L 936.0,684.0" style="stroke:#070107; fill:none;"/>
	<path d="M 924.0,684.0 L 920.0,687.0" style="stroke:#070107; fill:none;"/>
	<path d="M 358.0,685.0 L 358.0,686.0" style="stroke:#070107; fill:none;"/>
	<path d="M 877.0,685.0 L 876.0,686.0" style="stroke:#070107; fill:none;"/>
	<path d="M 835.0,687.0 L 835.0,689.0" style="stroke:#070107; fill:none;"/>
	<path d="M 358.0,688.0 L 358.0,691.0" style="stroke:#070107; fill:none;"/>
	<path d="M 865.0,688.0 L 866.0,689.0" style="stroke:#070107; fill:none;"/>
	<path d="M 868.0,689.0 L 870.0,688.0" style="stroke:#070107; fill:none;"/>
	<path d="M 797.0,690.0 L 795.0,693.0" style="stroke:#070107; fill:none;"/>
	<path d="M 917.0,690.0 L 916.0,691.0" style="stroke:#070107; fill:none;"/>
	<path d="M 421.0,691.0 L 422.0,691.0" style="stroke:#070107; fill:none;"/>
	<path d="M 1143.0,691.0 L 1142.0,693.0" style="stroke:#070107; fill:none;"/>
	<path d="M 899.0,694.0 L 899.0,695.0" style="stroke:#070107; fill:none;"/>
	<path d="M 839.0,697.0 L 840.0,698.0" style="stroke:#070107; fill:none;"/>
	<path d="M 786.0,699.0 L 786.0,700.0" style="stroke:#070107; fill:none;"/>
	<path d="M 838.0,700.0 L 839.0,701.0" style="stroke:#070107; fill:none;"/>
	<path d="M 534.0,704.0 L 536.0,703.0" style="stroke:#070107; fill:none;"/>
	<path d="M 538.0,704.0 L 540.0,704.0" style="stroke:#070107; fill:none;"/>
	<path d="M 842.0,703.0 L 844.0,704.0" style="stroke:#070107; fill:none;"/>
	<path d="M 848.0,706.0 L 849.0,706.0" style="stroke:#070107; fill:none;"/>
	<path d="M 520.0,707.0 L 521.0,707.0" style="stroke:#070107; fill:none;"/>
	<path d="M 564.0,707.0 L 565.0,708.0" style="stroke:#070107; fill:none;"/>
	<path d="M 510.0,708.0 L 512.0,708.0" style="stroke:#070107; fill:none;"/>
	<path d="M 853.0,708.0 L 855.0,709.0" style="stroke:#070107; fill:none;"/>
	<path d="M 500.0,712.0 L 501.0,712.0" style="stroke:#070107; fill:none;"/>
	<path d="M 364.0,714.0 L 365.0,714.0" style="stroke:#070107; fill:none;"/>
	<path d="M 1139.0,715.0 L 1140.0,717.0" style="stroke:#070107; fill:none;"/>
	<path d="M 365.0,716.0 L 366.0,716.0" style="stroke:#070107; fill:none;"/>
	<path d="M 520.0,718.0 L 521.0,718.0" style="stroke:#070107; fill:none;"/>
	<path d="M 524.0,718.0 L 525.0,718.0" style="stroke:#070107; fill:none;"/>
	<path d="M 536.0,720.0 L 540.0,721.0" style="stroke:#070107; fill:none;"/>
	<path d="M 543.0,721.0 L 544.0,721.0" style="stroke:#070107; fill:none;"/>
	<path d="M 548.0,722.0 L 549.0,722.0" style="stroke:#070107; fill:none;"/>
	<path d="M 551.0,723.0 L 553.0,723.0" style="stroke:#070107; fill:none;"/>
	<path d="M 559.0,724.0 L 560.0,726.0" style="stroke:#070107; fill:none;"/>
	<path d="M 485.0,725.0 L 486.0,726.0" style="stroke:#070107; fill:none;"/>
	<path d="M 361.0,726.0 L 362.0,726.0" style="stroke:#070107; fill:none;"/>
	<path d="M 540.0,726.0 L 540.0,727.0" style="stroke:#070107; fill:none;"/>
	<path d="M 459.0,727.0 L 460.0,727.0" style="stroke:#070107; fill:none;"/>
	<path d="M 567.0,728.0 L 568.0,729.0" style="stroke:#070107; fill:none;"/>
	<path d="M 358.0,729.0 L 358.0,731.0" style="stroke:#070107; fill:none;"/>
	<path d="M 572.0,730.0 L 575.0,731.0" style="stroke:#070107; fill:none;"/>
	<path d="M 452.0,731.0 L 452.0,732.0" style="stroke:#070107; fill:none;"/>
	<path d="M 369.0,732.0 L 369.0,733.0" style="stroke:#070107; fill:none;"/>
	<path d="M 508.0,732.0 L 507.0,733.0" style="stroke:#070107; fill:none;"/>
	<path d="M 563.0,732.0 C 567.232,735.082 569.081,737.741 568.0,743.0" style="stroke:#070107; fill:none;"/>
	<path d="M 1145.0,732.0 L 1145.0,734.0" style="stroke:#070107; fill:none;"/>
	<path d="M 357.0,733.0 L 358.0,734.0" style="stroke:#070107; fill:none;"/>
	<path d="M 448.0,734.0 L 448.0,735.0" style="stroke:#070107; fill:none;"/>
	<path d="M 467.0,739.0 L 472.0,735.0" style="stroke:#070107; fill:none;"/>
	<path d="M 519.0,734.0 L 520.0,735.0" style="stroke:#070107; fill:none;"/>
	<path d="M 371.0,735.0 L 372.0,739.0" style="stroke:#070107; fill:none;"/>
	<path d="M 1219.0,735.0 L 1219.0,736.0" style="stroke:#070107; fill:none;"/>
	<path d="M 506.0,737.0 L 505.0,739.0" style="stroke:#070107; fill:none;"/>
	<path d="M 542.0,737.0 L 544.0,737.0" style="stroke:#070107; fill:none;"/>
	<path d="M 496.0,739.0 L 498.0,740.0" style="stroke:#070107; fill:none;"/>
	<path d="M 542.0,741.0 L 544.0,744.0" style="stroke:#070107; fill:none;"/>
	<path d="M 1149.0,741.0 L 1153.0,746.0" style="stroke:#070107; fill:none;"/>
	<path d="M 460.0,742.0 L 460.0,743.0" style="stroke:#070107; fill:none;"/>
	<path d="M 1218.0,742.0 L 1218.0,744.0" style="stroke:#070107; fill:none;"/>
	<path d="M 352.0,743.0 L 353.0,745.0" style="stroke:#070107; fill:none;"/>
	<path d="M 436.0,744.0 L 435.0,746.0" style="stroke:#070107; fill:none;"/>
	<path d="M 351.0,746.0 L 351.0,748.0" style="stroke:#070107; fill:none;"/>
	<path d="M 502.0,747.0 L 502.0,748.0" style="stroke:#070107; fill:none;"/>
	<path d="M 570.0,747.0 L 571.0,747.0" style="stroke:#070107; fill:none;"/>
	<path d="M 574.0,747.0 L 574.0,750.0" style="stroke:#070107; fill:none;"/>
	<path d="M 504.0,749.0 L 506.0,750.0" style="stroke:#070107; fill:none;"/>
	<path d="M 542.0,749.0 L 539.0,755.0" style="stroke:#070107; fill:none;"/>
	<path d="M 953.0,749.0 L 954.0,750.0" style="stroke:#070107; fill:none;"/>
	<path d="M 1153.0,749.0 L 1154.0,749.0" style="stroke:#070107; fill:none;"/>
	<path d="M 571.0,750.0 L 571.0,751.0" style="stroke:#070107; fill:none;"/>
	<path d="M 584.0,751.0 L 582.0,752.0" style="stroke:#070107; fill:none;"/>
	<path d="M 1180.0,752.0 L 1181.0,753.0" style="stroke:#070107; fill:none;"/>
	<path d="M 450.0,754.0 L 448.0,760.0" style="stroke:#070107; fill:none;"/>
	<path d="M 1217.0,756.0 L 1216.0,757.0" style="stroke:#070107; fill:none;"/>
	<path d="M 427.0,757.0 L 427.0,758.0" style="stroke:#070107; fill:none;"/>
	<path d="M 481.0,759.0 L 481.0,762.0" style="stroke:#070107; fill:none;"/>
	<path d="M 352.0,760.0 L 352.0,761.0" style="stroke:#070107; fill:none;"/>
	<path d="M 479.0,760.0 L 480.0,760.0" style="stroke:#070107; fill:none;"/>
	<path d="M 483.0,763.0 L 485.0,765.0" style="stroke:#070107; fill:none;"/>
	<path d="M 355.0,766.0 L 356.0,769.0" style="stroke:#070107; fill:none;"/>
	<path d="M 486.0,767.0 L 488.0,769.0" style="stroke:#070107; fill:none;"/>
	<path d="M 490.0,771.0 L 492.0,771.0" style="stroke:#070107; fill:none;"/>
	<path d="M 538.0,773.0 L 539.0,773.0" style="stroke:#070107; fill:none;"/>
	<path d="M 363.0,774.0 L 364.0,774.0" style="stroke:#070107; fill:none;"/>
	<path d="M 456.0,774.0 L 458.0,775.0" style="stroke:#070107; fill:none;"/>
	<path d="M 1152.0,778.0 L 1151.0,779.0" style="stroke:#070107; fill:none;"/>
	<path d="M 368.0,779.0 L 369.0,780.0" style="stroke:#070107; fill:none;"/>
	<path d="M 1213.0,779.0 L 1212.0,780.0" style="stroke:#070107; fill:none;"/>
	<path d="M 1210.0,782.0 L 1208.0,791.0" style="stroke:#070107; fill:none;"/>
	<path d="M 372.0,784.0 L 374.0,786.0" style="stroke:#070107; fill:none;"/>
	<path d="M 1147.0,786.0 L 1148.0,786.0" style="stroke:#070107; fill:none;"/>
	<path d="M 418.0,788.0 L 417.0,789.0" style="stroke:#070107; fill:none;"/>
	<path d="M 1206.0,797.0 L 1207.0,798.0" style="stroke:#070107; fill:none;"/>
	<path d="M 1204.0,805.0 L 1204.0,807.0" style="stroke:#070107; fill:none;"/>
	<path d="M 376.0,814.0 L 377.0,814.0" style="stroke:#070107; fill:none;"/>
	<path d="M 376.0,821.0 L 377.0,821.0" style="stroke:#070107; fill:none;"/>
	<path d="M 377.0,831.0 L 378.0,832.0" style="stroke:#070107; fill:none;"/>
	<path d="M 1197.0,832.0 L 1197.0,833.0" style="stroke:#070107; fill:none;"/>
	<path d="M 376.0,834.0 L 378.0,834.0" style="stroke:#070107; fill:none;"/>
	<path d="M 376.0,836.0 L 378.0,838.0" style="stroke:#070107; fill:none;"/>
	<path d="M 375.0,841.0 L 378.0,840.0" style="stroke:#070107; fill:none;"/>
	<path d="M 1194.0,841.0 L 1195.0,841.0" style="stroke:#070107; fill:none;"/>
	<path d="M 1192.0,845.0 L 1191.0,852.0" style="stroke:#070107; fill:none;"/>
	<path d="M 372.0,847.0 L 373.0,847.0" style="stroke:#070107; fill:none;"/>
	<path d="M 1189.0,853.0 L 1189.0,860.0" style="stroke:#070107; fill:none;"/>
	<path d="M 378.0,857.0 L 379.0,859.0" style="stroke:#070107; fill:none;"/>
	<path d="M 1187.0,863.0 L 1186.0,864.0" style="stroke:#070107; fill:none;"/>
	<path d="M 368.0,866.0 L 367.0,867.0" style="stroke:#070107; fill:none;"/>
	<path d="M 365.0,872.0 L 366.0,872.0" style="stroke:#070107; fill:none;"/>
	<path d="M 365.0,875.0 L 365.0,876.0" style="stroke:#070107; fill:none;"/>
	<path d="M 1181.0,877.0 L 1181.0,879.0 L 1181.0,877.0" style="stroke:#070107; fill:none;"/>
	<path d="M 365.0,878.0 L 366.0,878.0" style="stroke:#070107; fill:none;"/>
	<path d="M 367.0,885.0 L 367.0,886.0" style="stroke:#070107; fill:none;"/>
	<path d="M 368.0,889.0 L 369.0,889.0" style="stroke:#070107; fill:none;"/>
	<path d="M 369.0,891.0 L 375.0,903.0" style="stroke:#070107; fill:none;"/>
	<path d="M 1129.0,895.0 L 1133.0,898.0" style="stroke:#070107; fill:none;"/>
	<path d="M 1131.0,896.0 L 1130.0,899.0" style="stroke:#070107; fill:none;"/>
	<path d="M 1160.0,899.0 L 1161.0,899.0" style="stroke:#070107; fill:none;"/>
	<path d="M 1136.0,901.0 L 1139.0,903.0" style="stroke:#070107; fill:none;"/>
	<path d="M 1151.0,902.0 L 1155.0,903.0" style="stroke:#070107; fill:none;"/>
	<path d="M 1143.0,904.0 L 1142.0,906.0" style="stroke:#070107; fill:none;"/>
	<path d="M 378.0,906.0 L 383.0,911.0" style="stroke:#070107; fill:none;"/>
	<path d="M 1142.0,908.0 L 1143.0,909.0" style="stroke:#070107; fill:none;"/>
	<path d="M 377.0,913.0 L 377.0,914.0" style="stroke:#070107; fill:none;"/>
	<path d="M 1143.0,916.0 L 1144.0,916.0" style="stroke:#070107; fill:none;"/>
	<path d="M 812.0,917.0 L 812.0,919.0" style="stroke:#070107; fill:none;"/>
	<path d="M 381.0,922.0 L 383.0,925.0" style="stroke:#070107; fill:none;"/>
	<path d="M 385.0,927.0 L 389.0,930.0" style="stroke:#070107; fill:none;"/>
	<path d="M 1142.0,929.0 L 1144.0,929.0" style="stroke:#070107; fill:none;"/>
	<path d="M 1144.0,932.0 L 1145.0,944.0" style="stroke:#070107; fill:none;"/>
	<path d="M 814.0,934.0 L 813.0,941.0" style="stroke:#070107; fill:none;"/>
	<path d="M 1146.0,947.0 L 1149.0,960.0" style="stroke:#070107; fill:none;"/>
	<path d="M 811.0,949.0 L 812.0,949.0" style="stroke:#070107; fill:none;"/>
	<path d="M 810.0,952.0 L 806.0,956.0" style="stroke:#070107; fill:none;"/>
	<path d="M 581.0,953.0 L 581.0,954.0" style="stroke:#070107; fill:none;"/>
	<path d="M 1146.0,953.0 L 1146.0,954.0" style="stroke:#070107; fill:none;"/>
	<path d="M 764.0,956.0 L 747.0,966.0" style="stroke:#070107; fill:none;"/>
	<path d="M 763.0,956.0 L 764.0,956.0" style="stroke:#070107; fill:none;"/>
	<path d="M 766.0,956.0 C 770.916,957.074 773.263,958.786 776.0,963.0" style="stroke:#070107; fill:none;"/>
	<path d="M 758.0,958.0 L 759.0,959.0" style="stroke:#070107; fill:none;"/>
	<path d="M 1154.0,960.0 L 1155.0,960.0" style="stroke:#070107; fill:none;"/>
	<path d="M 772.0,963.0 L 774.0,962.0" style="stroke:#070107; fill:none;"/>
	<path d="M 766.0,965.0 L 769.0,965.0" style="stroke:#070107; fill:none;"/>
	<path d="M 1153.0,965.0 L 1154.0,967.0" style="stroke:#070107; fill:none;"/>
	<path d="M 753.0,966.0 L 755.0,967.0" style="stroke:#070107; fill:none;"/>
	<path d="M 1159.0,966.0 L 1160.0,967.0" style="stroke:#070107; fill:none;"/>
	<path d="M 744.0,967.0 L 743.0,968.0" style="stroke:#070107; fill:none;"/>
	<path d="M 796.0,969.0 L 794.0,971.0" style="stroke:#070107; fill:none;"/>
	<path d="M 1154.0,969.0 L 1155.0,969.0" style="stroke:#070107; fill:none;"/>
	<path d="M 401.0,971.0 L 402.0,971.0" style="stroke:#070107; fill:none;"/>
	<path d="M 1155.0,971.0 L 1154.0,972.0" style="stroke:#070107; fill:none;"/>
	<path d="M 585.0,973.0 L 586.0,974.0" style="stroke:#070107; fill:none;"/>
	<path d="M 586.0,976.0 L 589.0,982.0" style="stroke:#070107; fill:none;"/>
	<path d="M 1157.0,977.0 L 1158.0,977.0" style="stroke:#070107; fill:none;"/>
	<path d="M 619.0,979.0 L 631.0,985.0" style="stroke:#070107; fill:none;"/>
	<path d="M 614.0,980.0 L 622.0,990.0" style="stroke:#070107; fill:none;"/>
	<path d="M 407.0,983.0 L 407.0,984.0" style="stroke:#070107; fill:none;"/>
	<path d="M 591.0,985.0 L 592.0,985.0" style="stroke:#070107; fill:none;"/>
	<path d="M 409.0,988.0 L 410.0,989.0" style="stroke:#070107; fill:none;"/>
	<path d="M 632.0,988.0 L 640.0,993.0" style="stroke:#070107; fill:none;"/>
	<path d="M 597.0,989.0 L 597.0,991.0" style="stroke:#070107; fill:none;"/>
	<path d="M 599.0,993.0 L 601.0,994.0" style="stroke:#070107; fill:none;"/>
	<path d="M 411.0,994.0 L 412.0,995.0" style="stroke:#070107; fill:none;"/>
	<path d="M 613.0,994.0 L 613.0,995.0" style="stroke:#070107; fill:none;"/>
	<path d="M 644.0,996.0 L 648.0,997.0" style="stroke:#070107; fill:none;"/>
	<path d="M 607.0,998.0 L 608.0,1000.0" style="stroke:#070107; fill:none;"/>
	<path d="M 650.0,999.0 L 652.0,998.0" style="stroke:#070107; fill:none;"/>
	<path d="M 415.0,999.0 L 415.0,1002.0" style="stroke:#070107; fill:none;"/>
	<path d="M 654.0,999.0 L 655.0,999.0" style="stroke:#070107; fill:none;"/>
	<path d="M 416.0,1006.0 L 418.0,1008.0" style="stroke:#070107; fill:none;"/>
	<path d="M 418.0,1011.0 L 420.0,1014.0" style="stroke:#070107; fill:none;"/>
	<path d="M 421.0,1018.0 L 422.0,1021.0" style="stroke:#070107; fill:none;"/>
	<path d="M 423.0,1024.0 L 424.0,1024.0" style="stroke:#070107; fill:none;"/>
	<path d="M 423.0,1027.0 L 425.0,1026.0" style="stroke:#070107; fill:none;"/>
	<path d="M 423.0,1029.0 L 425.0,1029.0" style="stroke:#070107; fill:none;"/>
	<path d="M 1162.0,1032.0 L 1161.0,1037.0" style="stroke:#070107; fill:none;"/>
	<path d="M 759.0,1035.0 L 760.0,1035.0" style="stroke:#070107; fill:none;"/>
	<path d="M 431.0,1039.0 L 431.0,1040.0" style="stroke:#070107; fill:none;"/>
	<path d="M 1159.0,1042.0 L 1158.0,1045.0" style="stroke:#070107; fill:none;"/>
	<path d="M 433.0,1044.0 L 432.0,1046.0" style="stroke:#070107; fill:none;"/>
	<path d="M 434.0,1046.0 L 436.0,1054.0" style="stroke:#070107; fill:none;"/>
	<path d="M 615.0,1050.0 L 616.0,1050.0" style="stroke:#070107; fill:none;"/>
	<path d="M 769.0,1055.0 L 770.0,1055.0" style="stroke:#070107; fill:none;"/>
	<path d="M 1157.0,1055.0 L 1158.0,1055.0" style="stroke:#070107; fill:none;"/>
	<path d="M 437.0,1060.0 L 439.0,1069.0" style="stroke:#070107; fill:none;"/>
	<path d="M 1156.0,1061.0 L 1155.0,1062.0" style="stroke:#070107; fill:none;"/>
	<path d="M 750.0,1064.0 L 751.0,1064.0" style="stroke:#070107; fill:none;"/>
	<path d="M 1156.0,1067.0 L 1155.0,1070.0" style="stroke:#070107; fill:none;"/>
	<path d="M 1154.0,1073.0 L 1154.0,1075.0" style="stroke:#070107; fill:none;"/>
	<path d="M 443.0,1075.0 L 444.0,1077.0" style="stroke:#070107; fill:none;"/>
	<path d="M 1153.0,1077.0 L 1151.0,1081.0" style="stroke:#070107; fill:none;"/>
	<path d="M 1152.0,1084.0 L 1153.0,1087.0" style="stroke:#070107; fill:none;"/>
	<path d="M 1151.0,1088.0 L 1152.0,1091.0" style="stroke:#070107; fill:none;"/>
	<path d="M 533.0,1091.0 L 533.0,1092.0" style="stroke:#070107; fill:none;"/>
	<path d="M 1149.0,1099.0 L 1150.0,1100.0" style="stroke:#070107; fill:none;"/>
	<path d="M 1149.0,1106.0 L 1148.0,1109.0" style="stroke:#070107; fill:none;"/>
	<path d="M 1111.0,1107.0 L 1111.0,1109.0" style="stroke:#070107; fill:none;"/>
	<path d="M 870.0,1112.0 L 872.0,1112.0" style="stroke:#070107; fill:none;"/>
	<path d="M 1149.0,1115.0 L 1150.0,1113.0" style="stroke:#070107; fill:none;"/>
	<path d="M 458.0,1114.0 L 459.0,1114.0" style="stroke:#070107; fill:none;"/>
	<path d="M 460.0,1116.0 L 462.0,1117.0" style="stroke:#070107; fill:none;"/>
	<path d="M 850.0,1118.0 L 853.0,1120.0" style="stroke:#070107; fill:none;"/>
	<path d="M 860.0,1121.0 L 862.0,1119.0" style="stroke:#070107; fill:none;"/>
	<path d="M 1147.0,1119.0 L 1148.0,1122.0" style="stroke:#070107; fill:none;"/>
	<path d="M 845.0,1120.0 L 844.0,1122.0" style="stroke:#070107; fill:none;"/>
	<path d="M 848.0,1121.0 L 850.0,1120.0" style="stroke:#070107; fill:none;"/>
	<path d="M 832.0,1124.0 L 842.0,1123.0" style="stroke:#070107; fill:none;"/>
	<path d="M 830.0,1123.0 L 821.0,1127.0" style="stroke:#070107; fill:none;"/>
	<path d="M 466.0,1124.0 L 466.0,1125.0" style="stroke:#070107; fill:none;"/>
	<path d="M 618.0,1127.0 L 619.0,1127.0" style="stroke:#070107; fill:none;"/>
	<path d="M 816.0,1128.0 L 817.0,1128.0" style="stroke:#070107; fill:none;"/>
	<path d="M 1147.0,1130.0 L 1146.0,1134.0" style="stroke:#070107; fill:none;"/>
	<path d="M 618.0,1131.0 L 619.0,1132.0" style="stroke:#070107; fill:none;"/>
	<path d="M 809.0,1131.0 L 805.0,1133.0" style="stroke:#070107; fill:none;"/>
	<path d="M 812.0,1131.0 L 813.0,1131.0" style="stroke:#070107; fill:none;"/>
	<path d="M 1100.0,1135.0 L 1100.0,1136.0" style="stroke:#070107; fill:none;"/>
	<path d="M 798.0,1136.0 L 799.0,1136.0" style="stroke:#070107; fill:none;"/>
	<path d="M 1144.0,1139.0 L 1146.0,1139.0" style="stroke:#070107; fill:none;"/>
	<path d="M 1146.0,1141.0 L 1144.0,1148.0 L 1145.0,1146.0" style="stroke:#070107; fill:none;"/>
	<path d="M 473.0,1142.0 L 475.0,1146.0" style="stroke:#070107; fill:none;"/>
	<path d="M 1144.0,1148.0 L 1142.0,1150.0" style="stroke:#070107; fill:none;"/>
	<path d="M 477.0,1151.0 L 479.0,1154.0" style="stroke:#070107; fill:none;"/>
	<path d="M 745.0,1161.0 L 767.0,1152.0" style="stroke:#070107; fill:none;"/>
	<path d="M 1142.0,1153.0 L 1143.0,1154.0" style="stroke:#070107; fill:none;"/>
	<path d="M 481.0,1157.0 L 482.0,1158.0" style="stroke:#070107; fill:none;"/>
	<path d="M 648.0,1157.0 L 648.0,1158.0" style="stroke:#070107; fill:none;"/>
	<path d="M 650.0,1157.0 L 655.0,1158.0" style="stroke:#070107; fill:none;"/>
	<path d="M 639.0,1158.0 L 645.0,1159.0" style="stroke:#070107; fill:none;"/>
	<path d="M 663.0,1158.0 L 665.0,1159.0" style="stroke:#070107; fill:none;"/>
	<path d="M 630.0,1159.0 L 636.0,1159.0" style="stroke:#070107; fill:none;"/>
	<path d="M 668.0,1159.0 L 669.0,1159.0" style="stroke:#070107; fill:none;"/>
	<path d="M 698.0,1162.0 L 699.0,1162.0" style="stroke:#070107; fill:none;"/>
	<path d="M 704.0,1163.0 L 705.0,1163.0" style="stroke:#070107; fill:none;"/>
	<path d="M 709.0,1163.0 L 713.0,1166.0" style="stroke:#070107; fill:none;"/>
	<path d="M 711.0,1163.0 L 712.0,1163.0" style="stroke:#070107; fill:none;"/>
	<path d="M 1141.0,1163.0 L 1143.0,1166.0" style="stroke:#070107; fill:none;"/>
	<path d="M 726.0,1165.0 L 728.0,1165.0" style="stroke:#070107; fill:none;"/>
	<path d="M 487.0,1166.0 L 492.0,1179.0" style="stroke:#070107; fill:none;"/>
	<path d="M 717.0,1167.0 L 722.0,1167.0" style="stroke:#070107; fill:none;"/>
	<path d="M 1142.0,1170.0 L 1143.0,1172.0" style="stroke:#070107; fill:none;"/>
	<path d="M 1142.0,1171.0 L 1140.0,1173.0" style="stroke:#070107; fill:none;"/>
	<path d="M 1140.0,1181.0 L 1138.0,1180.0 L 1142.0,1177.0" style="stroke:#070107; fill:none;"/>
	<path d="M 494.0,1179.0 L 498.0,1186.0" style="stroke:#070107; fill:none;"/>
	<path d="M 1141.0,1185.0 L 1141.0,1193.0" style="stroke:#070107; fill:none;"/>
	<path d="M 496.0,1186.0 L 497.0,1189.0" style="stroke:#070107; fill:none;"/>
	<path d="M 1140.0,1190.0 L 1141.0,1191.0" style="stroke:#070107; fill:none;"/>
	<path d="M 500.0,1191.0 L 503.0,1194.0" style="stroke:#070107; fill:none;"/>
	<path d="M 1139.0,1196.0 L 1139.0,1204.0 L 1137.0,1202.0" style="stroke:#070107; fill:none;"/>
	<path d="M 502.0,1198.0 C 507.978,1201.38 517.087,1212.97 516.0,1220.0" style="stroke:#070107; fill:none;"/>
	<path d="M 505.0,1203.0 L 506.0,1203.0" style="stroke:#070107; fill:none;"/>
	<path d="M 509.0,1209.0 L 511.0,1211.0" style="stroke:#070107; fill:none;"/>
	<path d="M 1140.0,1209.0 L 1136.0,1214.0" style="stroke:#070107; fill:none;"/>
	<path d="M 511.0,1212.0 L 512.0,1213.0" style="stroke:#070107; fill:none;"/>
	<path d="M 513.0,1216.0 L 516.0,1216.0" style="stroke:#070107; fill:none;"/>
	<path d="M 793.0,1217.0 L 795.0,1218.0" style="stroke:#070107; fill:none;"/>
	<path d="M 1138.0,1218.0 L 1138.0,1219.0" style="stroke:#070107; fill:none;"/>
	<path d="M 518.0,1219.0 L 522.0,1225.0" style="stroke:#070107; fill:none;"/>
	<path d="M 517.0,1222.0 L 518.0,1223.0" style="stroke:#070107; fill:none;"/>
	<path d="M 1135.0,1223.0 L 1136.0,1236.0" style="stroke:#070107; fill:none;"/>
	<path d="M 524.0,1228.0 L 534.0,1244.0" style="stroke:#070107; fill:none;"/>
	<path d="M 522.0,1229.0 L 524.0,1229.0" style="stroke:#070107; fill:none;"/>
	<path d="M 683.0,1229.0 L 684.0,1229.0" style="stroke:#070107; fill:none;"/>
	<path d="M 529.0,1231.0 L 527.0,1235.0" style="stroke:#070107; fill:none;"/>
	<path d="M 688.0,1231.0 L 689.0,1231.0" style="stroke:#070107; fill:none;"/>
	<path d="M 525.0,1232.0 L 525.0,1233.0" style="stroke:#070107; fill:none;"/>
	<path d="M 741.0,1232.0 L 742.0,1232.0" style="stroke:#070107; fill:none;"/>
	<path d="M 527.0,1239.0 L 529.0,1239.0" style="stroke:#070107; fill:none;"/>
	<path d="M 536.0,1244.0 L 539.0,1249.0" style="stroke:#070107; fill:none;"/>
	<path d="M 1133.0,1247.0 L 1131.0,1256.0" style="stroke:#070107; fill:none;"/>
	<path d="M 534.0,1248.0 L 533.0,1249.0" style="stroke:#070107; fill:none;"/>
	<path d="M 1132.0,1249.0 L 1133.0,1250.0" style="stroke:#070107; fill:none;"/>
	<path d="M 542.0,1250.0 L 543.0,1255.0" style="stroke:#070107; fill:none;"/>
	<path d="M 546.0,1256.0 L 549.0,1261.0 L 547.0,1260.0" style="stroke:#070107; fill:none;"/>
	<path d="M 751.0,1256.0 L 750.0,1257.0" style="stroke:#070107; fill:none;"/>
	<path d="M 1131.0,1258.0 L 1130.0,1261.0" style="stroke:#070107; fill:none;"/>
	<path d="M 549.0,1261.0 L 558.0,1276.0" style="stroke:#070107; fill:none;"/>
	<path d="M 1130.0,1263.0 L 1129.0,1267.0" style="stroke:#070107; fill:none;"/>
	<path d="M 555.0,1270.0 L 553.0,1272.0" style="stroke:#070107; fill:none;"/>
	<path d="M 1129.0,1276.0 L 1130.0,1272.0" style="stroke:#070107; fill:none;"/>
	<path d="M 1026.0,1272.0 L 1027.0,1272.0" style="stroke:#070107; fill:none;"/>
	<path d="M 1025.0,1274.0 L 1025.0,1276.0" style="stroke:#070107; fill:none;"/>
	<path d="M 563.0,1279.0 L 564.0,1279.0" style="stroke:#070107; fill:none;"/>
	<path d="M 1127.0,1281.0 L 1129.0,1279.0" style="stroke:#070107; fill:none;"/>
	<path d="M 543.0,1281.0 L 542.0,1282.0" style="stroke:#070107; fill:none;"/>
	<path d="M 564.0,1281.0 L 564.0,1282.0" style="stroke:#070107; fill:none;"/>
	<path d="M 567.0,1283.0 L 568.0,1284.0" style="stroke:#070107; fill:none;"/>
	<path d="M 697.0,1283.0 L 698.0,1283.0" style="stroke:#070107; fill:none;"/>
	<path d="M 1127.0,1283.0 L 1124.0,1298.0" style="stroke:#070107; fill:none;"/>
	<path d="M 541.0,1286.0 L 542.0,1288.0" style="stroke:#070107; fill:none;"/>
	<path d="M 573.0,1288.0 L 575.0,1291.0" style="stroke:#070107; fill:none;"/>
	<path d="M 1012.0,1290.0 L 1013.0,1290.0" style="stroke:#070107; fill:none;"/>
	<path d="M 575.0,1293.0 L 580.0,1297.0" style="stroke:#070107; fill:none;"/>
	<path d="M 577.0,1293.0 L 578.0,1294.0" style="stroke:#070107; fill:none;"/>
	<path d="M 949.0,1297.0 L 950.0,1297.0" style="stroke:#070107; fill:none;"/>
	<path d="M 581.0,1300.0 L 582.0,1300.0" style="stroke:#070107; fill:none;"/>
	<path d="M 1124.0,1300.0 L 1127.0,1302.0" style="stroke:#070107; fill:none;"/>
	<path d="M 1125.0,1302.0 L 1122.0,1305.0 L 1125.0,1304.0" style="stroke:#070107; fill:none;"/>
	<path d="M 585.0,1303.0 L 586.0,1303.0" style="stroke:#070107; fill:none;"/>
	<path d="M 1125.0,1306.0 L 1125.0,1308.0" style="stroke:#070107; fill:none;"/>
	<path d="M 935.0,1308.0 L 937.0,1308.0" style="stroke:#070107; fill:none;"/>
	<path d="M 1123.0,1308.0 L 1121.0,1314.0 L 1124.0,1313.0" style="stroke:#070107; fill:none;"/>
	<path d="M 1122.0,1315.0 L 1120.0,1328.0" style="stroke:#070107; fill:none;"/>
	<path d="M 574.0,1319.0 L 575.0,1319.0" style="stroke:#070107; fill:none;"/>
	<path d="M 1117.0,1327.0 L 1119.0,1327.0" style="stroke:#070107; fill:none;"/>
	<path d="M 1115.0,1336.0 C 1114.44,1333.22 1114.09,1332.0 1117.0,1332.0" style="stroke:#070107; fill:none;"/>
	<path d="M 590.0,1335.0 L 590.0,1336.0" style="stroke:#070107; fill:none;"/>
	<path d="M 580.0,1337.0 L 581.0,1337.0" style="stroke:#070107; fill:none;"/>
	<path d="M 585.0,1339.0 L 587.0,1339.0" style="stroke:#070107; fill:none;"/>
	<path d="M 893.0,1341.0 L 894.0,1341.0" style="stroke:#070107; fill:none;"/>
	<path d="M 1112.0,1341.0 L 1113.0,1343.0" style="stroke:#070107; fill:none;"/>
	<path d="M 593.0,1342.0 L 594.0,1342.0" style="stroke:#070107; fill:none;"/>
	<path d="M 627.0,1343.0 L 627.0,1344.0" style="stroke:#070107; fill:none;"/>
	<path d="M 1107.0,1346.0 L 1109.0,1346.0" style="stroke:#070107; fill:none;"/>
	<path d="M 1106.0,1349.0 L 1105.0,1350.0" style="stroke:#070107; fill:none;"/>
	<path d="M 1103.0,1354.0 L 1104.0,1355.0" style="stroke:#070107; fill:none;"/>
	<path d="M 950.0,1355.0 L 950.0,1356.0" style="stroke:#070107; fill:none;"/>
	<path d="M 1099.0,1356.0 L 1102.0,1358.0" style="stroke:#070107; fill:none;"/>
	<path d="M 1085.0,1371.0 L 1096.0,1360.0" style="stroke:#070107; fill:none;"/>
	<path d="M 947.0,1361.0 L 946.0,1362.0" style="stroke:#070107; fill:none;"/>
	<path d="M 1100.0,1362.0 L 1099.0,1363.0" style="stroke:#070107; fill:none;"/>
	<path d="M 757.0,1368.0 L 758.0,1368.0" style="stroke:#070107; fill:none;"/>
	<path d="M 918.0,1368.0 L 919.0,1370.0" style="stroke:#070107; fill:none;"/>
	<path d="M 1087.0,1371.0 L 1088.0,1371.0" style="stroke:#070107; fill:none;"/>
	<path d="M 1083.0,1375.0 L 1081.0,1379.0" style="stroke:#070107; fill:none;"/>
	<path d="M 891.0,1376.0 L 891.0,1377.0" style="stroke:#070107; fill:none;"/>
	<path d="M 1077.0,1381.0 L 1079.0,1381.0" style="stroke:#070107; fill:none;"/>
	<path d="M 1071.0,1387.0 L 1076.0,1383.0" style="stroke:#070107; fill:none;"/>
	<path d="M 639.0,1385.0 L 642.0,1385.0" style="stroke:#070107; fill:none;"/>
	<path d="M 645.0,1389.0 L 648.0,1389.0" style="stroke:#070107; fill:none;"/>
	<path d="M 1062.0,1396.0 L 1068.0,1390.0" style="stroke:#070107; fill:none;"/>
	<path d="M 648.0,1391.0 L 649.0,1391.0" style="stroke:#070107; fill:none;"/>
	<path d="M 651.0,1391.0 L 653.0,1392.0" style="stroke:#070107; fill:none;"/>
	<path d="M 642.0,1397.0 L 643.0,1400.0" style="stroke:#070107; fill:none;"/>
	<path d="M 651.0,1397.0 L 651.0,1399.0" style="stroke:#070107; fill:none;"/>
	<path d="M 1060.0,1397.0 L 1054.0,1405.0" style="stroke:#070107; fill:none;"/>
	<path d="M 684.0,1398.0 L 683.0,1399.0" style="stroke:#070107; fill:none;"/>
	<path d="M 693.0,1398.0 L 692.0,1400.0" style="stroke:#070107; fill:none;"/>
	<path d="M 704.0,1403.0 L 705.0,1405.0" style="stroke:#070107; fill:none;"/>
	<path d="M 1051.0,1404.0 L 1052.0,1405.0" style="stroke:#070107; fill:none;"/>
	<path d="M 709.0,1406.0 L 710.0,1406.0" style="stroke:#070107; fill:none;"/>
	<path d="M 1048.0,1409.0 L 1046.0,1409.0 L 1051.0,1406.0" style="stroke:#070107; fill:none;"/>
	<path d="M 1040.0,1416.0 L 1046.0,1410.0" style="stroke:#070107; fill:none;"/>
	<path d="M 646.0,1412.0 L 648.0,1414.0" style="stroke:#070107; fill:none;"/>
	<path d="M 657.0,1413.0 L 657.0,1414.0" style="stroke:#070107; fill:none;"/>
	<path d="M 658.0,1416.0 L 657.0,1417.0" style="stroke:#070107; fill:none;"/>
	<path d="M 649.0,1419.0 L 649.0,1420.0" style="stroke:#070107; fill:none;"/>
	<path d="M 1037.0,1419.0 L 1034.0,1424.0" style="stroke:#070107; fill:none;"/>
	<path d="M 659.0,1420.0 L 660.0,1420.0" style="stroke:#070107; fill:none;"/>
	<path d="M 1031.0,1424.0 L 1024.0,1428.0" style="stroke:#070107; fill:none;"/>
	<path d="M 652.0,1425.0 L 650.0,1426.0" style="stroke:#070107; fill:none;"/>
	<path d="M 1022.0,1431.0 L 1023.0,1434.0" style="stroke:#070107; fill:none;"/>
	<path d="M 653.0,1432.0 L 655.0,1432.0" style="stroke:#070107; fill:none;"/>
	<path d="M 1022.0,1432.0 L 1018.0,1437.0 L 1018.0,1438.0" style="stroke:#070107; fill:none;"/>
	<path d="M 1010.0,1438.0 L 1018.0,1434.0" style="stroke:#070107; fill:none;"/>
	<path d="M 656.0,1436.0 L 657.0,1437.0" style="stroke:#070107; fill:none;"/>
	<path d="M 1012.0,1438.0 L 1013.0,1441.0" style="stroke:#070107; fill:none;"/>
	<path d="M 1014.0,1438.0 L 1013.0,1439.0" style="stroke:#070107; fill:none;"/>
	<path d="M 1007.0,1439.0 L 1008.0,1444.0 L 1008.0,1442.0" style="stroke:#070107; fill:none;"/>
	<path d="M 658.0,1444.0 L 661.0,1445.0" style="stroke:#070107; fill:none;"/>
	<path d="M 1010.0,1445.0 L 1004.0,1447.0 L 1004.0,1445.0" style="stroke:#070107; fill:none;"/>
	<path d="M 1001.0,1445.0 L 998.0,1448.0" style="stroke:#070107; fill:none;"/>
	<path d="M 996.0,1449.0 L 989.0,1454.0" style="stroke:#070107; fill:none;"/>
	<path d="M 997.0,1453.0 L 1002.0,1450.0 L 1002.0,1452.0" style="stroke:#070107; fill:none;"/>
	<path d="M 672.0,1450.0 L 673.0,1450.0" style="stroke:#070107; fill:none;"/>
	<path d="M 663.0,1451.0 L 665.0,1452.0" style="stroke:#070107; fill:none;"/>
	<path d="M 676.0,1454.0 L 677.0,1457.0" style="stroke:#070107; fill:none;"/>
	<path d="M 666.0,1455.0 L 666.0,1456.0" style="stroke:#070107; fill:none;"/>
	<path d="M 667.0,1458.0 L 671.0,1464.0" style="stroke:#070107; fill:none;"/>
	<path d="M 961.0,1470.0 L 985.0,1458.0" style="stroke:#070107; fill:none;"/>
	<path d="M 679.0,1459.0 L 681.0,1460.0" style="stroke:#070107; fill:none;"/>
	<path d="M 680.0,1462.0 L 681.0,1463.0" style="stroke:#070107; fill:none;"/>
	<path d="M 682.0,1466.0 C 686.106,1472.29 699.461,1487.17 699.0,1494.0 L 697.0,1492.0 L 699.0,1492.0" style="stroke:#070107; fill:none;"/>
	<path d="M 677.0,1469.0 L 680.0,1471.0" style="stroke:#070107; fill:none;"/>
	<path d="M 954.0,1471.0 L 943.0,1477.0" style="stroke:#070107; fill:none;"/>
	<path d="M 957.0,1471.0 L 958.0,1472.0" style="stroke:#070107; fill:none;"/>
	<path d="M 925.0,1487.0 L 934.0,1482.0 L 941.0,1477.0" style="stroke:#070107; fill:none;"/>
	<path d="M 934.0,1479.0 L 932.0,1481.0" style="stroke:#070107; fill:none;"/>
	<path d="M 686.0,1481.0 L 686.0,1482.0" style="stroke:#070107; fill:none;"/>
	<path d="M 932.0,1483.0 L 930.0,1485.0" style="stroke:#070107; fill:none;"/>
	<path d="M 690.0,1486.0 L 692.0,1486.0" style="stroke:#070107; fill:none;"/>
	<path d="M 696.0,1488.0 L 694.0,1490.0" style="stroke:#070107; fill:none;"/>
	<path d="M 912.0,1494.0 L 920.0,1489.0" style="stroke:#070107; fill:none;"/>
	<path d="M 907.0,1495.0 L 907.0,1497.0 L 907.0,1495.0" style="stroke:#070107; fill:none;"/>
	<path d="M 900.0,1497.0 L 905.0,1496.0" style="stroke:#070107; fill:none;"/>
	<path d="M 705.0,1497.0 L 707.0,1497.0" style="stroke:#070107; fill:none;"/>
	<path d="M 894.0,1499.0 L 898.0,1498.0" style="stroke:#070107; fill:none;"/>
	<path d="M 710.0,1499.0 L 714.0,1505.0" style="stroke:#070107; fill:none;"/>
	<path d="M 705.0,1500.0 L 706.0,1500.0" style="stroke:#070107; fill:none;"/>
	<path d="M 892.0,1501.0 L 889.0,1503.0" style="stroke:#070107; fill:none;"/>
	<path d="M 894.0,1501.0 L 895.0,1501.0" style="stroke:#070107; fill:none;"/>
	<path d="M 884.0,1507.0 L 882.0,1507.0 L 886.0,1505.0" style="stroke:#070107; fill:none;"/>
	<path d="M 881.0,1506.0 L 882.0,1507.0" style="stroke:#070107; fill:none;"/>
	<path d="M 717.0,1507.0 L 718.0,1508.0" style="stroke:#070107; fill:none;"/>
	<path d="M 721.0,1509.0 L 722.0,1511.0" style="stroke:#070107; fill:none;"/>
	<path d="M 867.0,1515.0 L 878.0,1511.0" style="stroke:#070107; fill:none;"/>
	<path d="M 724.0,1511.0 L 726.0,1514.0" style="stroke:#070107; fill:none;"/>
	<path d="M 873.0,1514.0 L 874.0,1514.0" style="stroke:#070107; fill:none;"/>
	<path d="M 729.0,1515.0 L 729.0,1516.0" style="stroke:#070107; fill:none;"/>
</svg>
