<?xml version="1.0" ?>
<svg baseProfile="full" height="1356" version="1.1" width="1157" xmlns="http://www.w3.org/2000/svg" xmlns:ev="http://www.w3.org/2001/xml-events" xmlns:xlink="http://www.w3.org/1999/xlink">
	<defs/>
	<path d="M 296.0,575.0 L 299.0,574.0" style="stroke:#050105; fill:none;"/>
	<path d="M 300.0,580.0 L 303.0,581.0" style="stroke:#050105; fill:none;"/>
	<path d="M 271.0,597.0 L 272.0,597.0" style="stroke:#050105; fill:none;"/>
	<path d="M 299.0,600.0 C 297.006,601.242 290.9,602.861 292.0,599.0" style="stroke:#050105; fill:none;"/>
	<path d="M 285.0,602.0 L 284.0,600.0 L 290.0,600.0" style="stroke:#050105; fill:none;"/>
	<path d="M 275.0,602.0 L 283.0,601.0" style="stroke:#050105; fill:none;"/>
	<path d="M 288.0,605.0 L 298.0,606.0" style="stroke:#050105; fill:none;"/>
	<path d="M 303.0,607.0 L 311.0,606.0" style="stroke:#050105; fill:none;"/>
	<path d="M 346.0,605.0 L 348.0,605.0" style="stroke:#050105; fill:none;"/>
	<path d="M 350.0,605.0 L 350.0,606.0" style="stroke:#050105; fill:none;"/>
	<path d="M 313.0,607.0 L 329.0,609.0" style="stroke:#050105; fill:none;"/>
	<path d="M 309.0,610.0 L 315.0,611.0" style="stroke:#050105; fill:none;"/>
	<path d="M 334.0,611.0 L 337.0,612.0" style="stroke:#050105; fill:none;"/>
	<path d="M 318.0,612.0 L 320.0,613.0" style="stroke:#050105; fill:none;"/>
	<path d="M 340.0,612.0 L 343.0,614.0" style="stroke:#050105; fill:none;"/>
	<path d="M 371.0,612.0 L 372.0,612.0" style="stroke:#050105; fill:none;"/>
	<path d="M 345.0,613.0 L 345.0,615.0" style="stroke:#050105; fill:none;"/>
	<path d="M 347.0,613.0 L 347.0,614.0" style="stroke:#050105; fill:none;"/>
	<path d="M 322.0,614.0 L 323.0,614.0" style="stroke:#050105; fill:none;"/>
	<path d="M 378.0,614.0 L 378.0,615.0" style="stroke:#050105; fill:none;"/>
	<path d="M 327.0,615.0 L 328.0,615.0" style="stroke:#050105; fill:none;"/>
	<path d="M 371.0,617.0 L 372.0,617.0" style="stroke:#050105; fill:none;"/>
	<path d="M 388.0,618.0 L 392.0,619.0" style="stroke:#050105; fill:none;"/>
	<path d="M 356.0,619.0 L 360.0,620.0" style="stroke:#050105; fill:none;"/>
	<path d="M 381.0,619.0 L 385.0,621.0" style="stroke:#050105; fill:none;"/>
	<path d="M 375.0,621.0 L 376.0,621.0" style="stroke:#050105; fill:none;"/>
	<path d="M 359.0,622.0 L 359.0,623.0" style="stroke:#050105; fill:none;"/>
	<path d="M 365.0,622.0 L 366.0,622.0" style="stroke:#050105; fill:none;"/>
	<path d="M 378.0,622.0 L 379.0,622.0" style="stroke:#050105; fill:none;"/>
	<path d="M 389.0,622.0 L 391.0,623.0" style="stroke:#050105; fill:none;"/>
	<path d="M 397.0,622.0 L 400.0,624.0" style="stroke:#050105; fill:none;"/>
	<path d="M 390.0,627.0 L 391.0,628.0" style="stroke:#050105; fill:none;"/>
	<path d="M 378.0,628.0 L 378.0,629.0" style="stroke:#050105; fill:none;"/>
	<path d="M 382.0,631.0 L 385.0,631.0" style="stroke:#050105; fill:none;"/>
	<path d="M 341.0,643.0 L 341.0,644.0" style="stroke:#050105; fill:none;"/>
	<path d="M 321.0,645.0 L 331.0,644.0" style="stroke:#050105; fill:none;"/>
	<path d="M 334.0,644.0 L 339.0,644.0" style="stroke:#050105; fill:none;"/>
	<path d="M 343.0,644.0 L 346.0,645.0" style="stroke:#050105; fill:none;"/>
	<path d="M 349.0,644.0 L 351.0,645.0" style="stroke:#050105; fill:none;"/>
	<path d="M 357.0,646.0 L 358.0,646.0" style="stroke:#050105; fill:none;"/>
	<path d="M 360.0,647.0 L 362.0,647.0" style="stroke:#050105; fill:none;"/>
	<path d="M 314.0,648.0 L 318.0,647.0" style="stroke:#050105; fill:none;"/>
	<path d="M 312.0,648.0 L 312.0,649.0" style="stroke:#050105; fill:none;"/>
	<path d="M 364.0,648.0 L 365.0,649.0" style="stroke:#050105; fill:none;"/>
	<path d="M 370.0,650.0 L 377.0,652.0" style="stroke:#050105; fill:none;"/>
	<path d="M 341.0,657.0 L 341.0,655.0 L 345.0,656.0" style="stroke:#050105; fill:none;"/>
	<path d="M 347.0,655.0 L 347.0,656.0" style="stroke:#050105; fill:none;"/>
	<path d="M 331.0,656.0 L 325.0,659.0" style="stroke:#050105; fill:none;"/>
	<path d="M 333.0,662.0 L 340.0,656.0" style="stroke:#050105; fill:none;"/>
	<path d="M 384.0,656.0 L 385.0,656.0" style="stroke:#050105; fill:none;"/>
	<path d="M 349.0,657.0 L 354.0,657.0" style="stroke:#050105; fill:none;"/>
	<path d="M 356.0,657.0 L 358.0,658.0" style="stroke:#050105; fill:none;"/>
	<path d="M 373.0,659.0 L 374.0,663.0" style="stroke:#050105; fill:none;"/>
	<path d="M 319.0,660.0 L 318.0,661.0" style="stroke:#050105; fill:none;"/>
	<path d="M 310.0,663.0 L 309.0,664.0" style="stroke:#050105; fill:none;"/>
	<path d="M 324.0,667.0 L 329.0,664.0" style="stroke:#050105; fill:none;"/>
	<path d="M 364.0,664.0 L 363.0,665.0" style="stroke:#050105; fill:none;"/>
	<path d="M 361.0,665.0 L 358.0,667.0" style="stroke:#050105; fill:none;"/>
	<path d="M 378.0,665.0 L 379.0,666.0" style="stroke:#050105; fill:none;"/>
	<path d="M 383.0,666.0 L 384.0,668.0" style="stroke:#050105; fill:none;"/>
	<path d="M 351.0,678.0 L 356.0,668.0" style="stroke:#050105; fill:none;"/>
	<path d="M 389.0,671.0 L 390.0,672.0" style="stroke:#050105; fill:none;"/>
	<path d="M 641.0,672.0 L 642.0,672.0" style="stroke:#050105; fill:none;"/>
	<path d="M 392.0,673.0 L 394.0,675.0" style="stroke:#050105; fill:none;"/>
	<path d="M 321.0,676.0 L 321.0,677.0" style="stroke:#050105; fill:none;"/>
	<path d="M 374.0,677.0 L 370.0,680.0" style="stroke:#050105; fill:none;"/>
	<path d="M 605.0,679.0 L 606.0,680.0" style="stroke:#050105; fill:none;"/>
	<path d="M 670.0,679.0 L 690.0,692.0" style="stroke:#050105; fill:none;"/>
	<path d="M 322.0,680.0 L 322.0,681.0" style="stroke:#050105; fill:none;"/>
	<path d="M 376.0,680.0 L 377.0,680.0" style="stroke:#050105; fill:none;"/>
	<path d="M 380.0,680.0 L 381.0,680.0" style="stroke:#050105; fill:none;"/>
	<path d="M 608.0,680.0 L 613.0,680.0" style="stroke:#050105; fill:none;"/>
	<path d="M 620.0,680.0 L 624.0,681.0" style="stroke:#050105; fill:none;"/>
	<path d="M 352.0,681.0 L 351.0,691.0" style="stroke:#050105; fill:none;"/>
	<path d="M 655.0,682.0 L 656.0,682.0" style="stroke:#050105; fill:none;"/>
	<path d="M 658.0,683.0 L 658.0,684.0" style="stroke:#050105; fill:none;"/>
	<path d="M 369.0,684.0 L 369.0,689.0" style="stroke:#050105; fill:none;"/>
	<path d="M 401.0,685.0 L 401.0,687.0" style="stroke:#050105; fill:none;"/>
	<path d="M 643.0,686.0 L 645.0,687.0" style="stroke:#050105; fill:none;"/>
	<path d="M 690.0,686.0 L 691.0,687.0" style="stroke:#050105; fill:none;"/>
	<path d="M 325.0,688.0 L 325.0,689.0" style="stroke:#050105; fill:none;"/>
	<path d="M 384.0,689.0 L 381.0,691.0" style="stroke:#050105; fill:none;"/>
	<path d="M 656.0,689.0 L 658.0,689.0" style="stroke:#050105; fill:none;"/>
	<path d="M 610.0,690.0 L 612.0,691.0" style="stroke:#050105; fill:none;"/>
	<path d="M 607.0,691.0 L 608.0,691.0" style="stroke:#050105; fill:none;"/>
	<path d="M 657.0,691.0 L 659.0,692.0" style="stroke:#050105; fill:none;"/>
	<path d="M 673.0,693.0 L 673.0,691.0 L 676.0,692.0 L 676.0,691.0" style="stroke:#050105; fill:none;"/>
	<path d="M 373.0,692.0 L 378.0,693.0" style="stroke:#050105; fill:none;"/>
	<path d="M 618.0,692.0 L 622.0,692.0" style="stroke:#050105; fill:none;"/>
	<path d="M 666.0,693.0 L 673.0,694.0" style="stroke:#050105; fill:none;"/>
	<path d="M 635.0,693.0 L 637.0,694.0" style="stroke:#050105; fill:none;"/>
	<path d="M 646.0,693.0 L 643.0,694.0" style="stroke:#050105; fill:none;"/>
	<path d="M 640.0,694.0 L 641.0,694.0" style="stroke:#050105; fill:none;"/>
	<path d="M 648.0,694.0 L 651.0,694.0" style="stroke:#050105; fill:none;"/>
	<path d="M 681.0,694.0 L 679.0,697.0 L 674.0,695.0" style="stroke:#050105; fill:none;"/>
	<path d="M 692.0,694.0 L 696.0,696.0" style="stroke:#050105; fill:none;"/>
	<path d="M 657.0,695.0 L 661.0,696.0" style="stroke:#050105; fill:none;"/>
	<path d="M 400.0,696.0 L 399.0,697.0" style="stroke:#050105; fill:none;"/>
	<path d="M 410.0,696.0 L 410.0,697.0" style="stroke:#050105; fill:none;"/>
	<path d="M 667.0,696.0 L 669.0,697.0" style="stroke:#050105; fill:none;"/>
	<path d="M 683.0,697.0 C 693.958,698.427 703.649,707.673 713.0,713.0" style="stroke:#050105; fill:none;"/>
	<path d="M 355.0,698.0 L 362.0,705.0" style="stroke:#050105; fill:none;"/>
	<path d="M 699.0,698.0 L 703.0,700.0" style="stroke:#050105; fill:none;"/>
	<path d="M 674.0,699.0 L 674.0,700.0" style="stroke:#050105; fill:none;"/>
	<path d="M 365.0,707.0 C 380.073,711.273 384.308,709.417 397.0,701.0" style="stroke:#050105; fill:none;"/>
	<path d="M 685.0,702.0 L 686.0,702.0" style="stroke:#050105; fill:none;"/>
	<path d="M 671.0,703.0 L 672.0,703.0" style="stroke:#050105; fill:none;"/>
	<path d="M 413.0,704.0 L 414.0,708.0" style="stroke:#050105; fill:none;"/>
	<path d="M 708.0,704.0 L 710.0,707.0" style="stroke:#050105; fill:none;"/>
	<path d="M 713.0,708.0 L 715.0,709.0" style="stroke:#050105; fill:none;"/>
	<path d="M 720.0,708.0 L 722.0,711.0" style="stroke:#050105; fill:none;"/>
	<path d="M 748.0,709.0 L 747.0,710.0" style="stroke:#050105; fill:none;"/>
	<path d="M 717.0,710.0 L 717.0,712.0" style="stroke:#050105; fill:none;"/>
	<path d="M 720.0,714.0 L 716.0,715.0" style="stroke:#050105; fill:none;"/>
	<path d="M 739.0,715.0 L 739.0,716.0" style="stroke:#050105; fill:none;"/>
	<path d="M 751.0,715.0 L 752.0,715.0" style="stroke:#050105; fill:none;"/>
	<path d="M 723.0,716.0 L 723.0,717.0" style="stroke:#050105; fill:none;"/>
	<path d="M 743.0,716.0 L 743.0,717.0" style="stroke:#050105; fill:none;"/>
	<path d="M 413.0,719.0 L 410.0,720.0" style="stroke:#050105; fill:none;"/>
	<path d="M 391.0,720.0 L 391.0,721.0" style="stroke:#050105; fill:none;"/>
	<path d="M 393.0,720.0 L 396.0,721.0" style="stroke:#050105; fill:none;"/>
	<path d="M 398.0,721.0 L 399.0,721.0" style="stroke:#050105; fill:none;"/>
	<path d="M 627.0,723.0 L 627.0,724.0" style="stroke:#050105; fill:none;"/>
	<path d="M 742.0,724.0 L 743.0,724.0" style="stroke:#050105; fill:none;"/>
	<path d="M 761.0,725.0 L 762.0,727.0" style="stroke:#050105; fill:none;"/>
	<path d="M 603.0,726.0 L 604.0,726.0" style="stroke:#050105; fill:none;"/>
	<path d="M 638.0,726.0 L 640.0,726.0" style="stroke:#050105; fill:none;"/>
	<path d="M 597.0,727.0 L 597.0,728.0" style="stroke:#050105; fill:none;"/>
	<path d="M 594.0,728.0 L 594.0,729.0" style="stroke:#050105; fill:none;"/>
	<path d="M 652.0,729.0 L 652.0,730.0" style="stroke:#050105; fill:none;"/>
	<path d="M 654.0,730.0 L 658.0,731.0" style="stroke:#050105; fill:none;"/>
	<path d="M 763.0,730.0 L 764.0,730.0" style="stroke:#050105; fill:none;"/>
	<path d="M 615.0,731.0 L 606.0,734.0" style="stroke:#050105; fill:none;"/>
	<path d="M 624.0,731.0 L 630.0,732.0" style="stroke:#050105; fill:none;"/>
	<path d="M 634.0,732.0 L 638.0,732.0" style="stroke:#050105; fill:none;"/>
	<path d="M 640.0,733.0 L 646.0,735.0" style="stroke:#050105; fill:none;"/>
	<path d="M 767.0,734.0 L 768.0,734.0" style="stroke:#050105; fill:none;"/>
	<path d="M 617.0,738.0 L 624.0,735.0" style="stroke:#050105; fill:none;"/>
	<path d="M 593.0,739.0 L 601.0,736.0" style="stroke:#050105; fill:none;"/>
	<path d="M 650.0,736.0 L 651.0,736.0" style="stroke:#050105; fill:none;"/>
	<path d="M 672.0,736.0 L 674.0,737.0" style="stroke:#050105; fill:none;"/>
	<path d="M 919.0,736.0 L 920.0,738.0" style="stroke:#050105; fill:none;"/>
	<path d="M 654.0,737.0 L 655.0,737.0" style="stroke:#050105; fill:none;"/>
	<path d="M 650.0,739.0 L 652.0,740.0" style="stroke:#050105; fill:none;"/>
	<path d="M 678.0,739.0 L 678.0,740.0" style="stroke:#050105; fill:none;"/>
	<path d="M 589.0,740.0 L 586.0,742.0" style="stroke:#050105; fill:none;"/>
	<path d="M 614.0,741.0 L 616.0,740.0" style="stroke:#050105; fill:none;"/>
	<path d="M 661.0,741.0 L 663.0,743.0" style="stroke:#050105; fill:none;"/>
	<path d="M 681.0,742.0 L 685.0,743.0" style="stroke:#050105; fill:none;"/>
	<path d="M 610.0,744.0 L 608.0,766.0" style="stroke:#050105; fill:none;"/>
	<path d="M 665.0,744.0 L 666.0,745.0" style="stroke:#050105; fill:none;"/>
	<path d="M 575.0,752.0 L 583.0,746.0" style="stroke:#050105; fill:none;"/>
	<path d="M 656.0,745.0 L 657.0,747.0" style="stroke:#050105; fill:none;"/>
	<path d="M 668.0,745.0 L 670.0,747.0" style="stroke:#050105; fill:none;"/>
	<path d="M 625.0,751.0 L 628.0,748.0" style="stroke:#050105; fill:none;"/>
	<path d="M 692.0,748.0 L 692.0,749.0" style="stroke:#050105; fill:none;"/>
	<path d="M 639.0,749.0 L 640.0,749.0" style="stroke:#050105; fill:none;"/>
	<path d="M 907.0,749.0 L 908.0,752.0" style="stroke:#050105; fill:none;"/>
	<path d="M 675.0,750.0 L 676.0,752.0" style="stroke:#050105; fill:none;"/>
	<path d="M 634.0,751.0 L 635.0,751.0" style="stroke:#050105; fill:none;"/>
	<path d="M 658.0,751.0 L 658.0,752.0" style="stroke:#050105; fill:none;"/>
	<path d="M 924.0,751.0 L 925.0,752.0" style="stroke:#050105; fill:none;"/>
	<path d="M 608.0,753.0 L 608.0,754.0" style="stroke:#050105; fill:none;"/>
	<path d="M 680.0,753.0 L 685.0,757.0" style="stroke:#050105; fill:none;"/>
	<path d="M 911.0,753.0 L 912.0,753.0" style="stroke:#050105; fill:none;"/>
	<path d="M 217.0,755.0 L 218.0,763.0" style="stroke:#050105; fill:none;"/>
	<path d="M 571.0,755.0 L 572.0,755.0" style="stroke:#050105; fill:none;"/>
	<path d="M 938.0,755.0 L 939.0,755.0" style="stroke:#050105; fill:none;"/>
	<path d="M 583.0,756.0 L 584.0,757.0" style="stroke:#050105; fill:none;"/>
	<path d="M 909.0,756.0 L 909.0,757.0" style="stroke:#050105; fill:none;"/>
	<path d="M 643.0,757.0 L 643.0,758.0" style="stroke:#050105; fill:none;"/>
	<path d="M 623.0,758.0 C 625.266,763.526 629.384,765.719 635.0,767.0" style="stroke:#050105; fill:none;"/>
	<path d="M 937.0,759.0 L 947.0,771.0" style="stroke:#050105; fill:none;"/>
	<path d="M 958.0,759.0 L 960.0,762.0" style="stroke:#050105; fill:none;"/>
	<path d="M 657.0,760.0 L 657.0,762.0" style="stroke:#050105; fill:none;"/>
	<path d="M 216.0,765.0 L 217.0,767.0" style="stroke:#050105; fill:none;"/>
	<path d="M 567.0,766.0 L 569.0,767.0" style="stroke:#050105; fill:none;"/>
	<path d="M 571.0,767.0 L 572.0,767.0" style="stroke:#050105; fill:none;"/>
	<path d="M 577.0,767.0 L 578.0,768.0" style="stroke:#050105; fill:none;"/>
	<path d="M 584.0,770.0 L 586.0,771.0" style="stroke:#050105; fill:none;"/>
	<path d="M 908.0,770.0 L 908.0,772.0" style="stroke:#050105; fill:none;"/>
	<path d="M 611.0,771.0 L 612.0,772.0" style="stroke:#050105; fill:none;"/>
	<path d="M 652.0,773.0 L 653.0,773.0" style="stroke:#050105; fill:none;"/>
	<path d="M 614.0,774.0 L 617.0,777.0" style="stroke:#050105; fill:none;"/>
	<path d="M 591.0,775.0 L 592.0,775.0" style="stroke:#050105; fill:none;"/>
	<path d="M 960.0,776.0 L 960.0,780.0" style="stroke:#050105; fill:none;"/>
	<path d="M 682.0,777.0 L 678.0,780.0" style="stroke:#050105; fill:none;"/>
	<path d="M 619.0,778.0 L 622.0,779.0" style="stroke:#050105; fill:none;"/>
	<path d="M 907.0,778.0 L 906.0,779.0" style="stroke:#050105; fill:none;"/>
	<path d="M 217.0,780.0 L 215.0,782.0" style="stroke:#050105; fill:none;"/>
	<path d="M 907.0,783.0 L 907.0,786.0" style="stroke:#050105; fill:none;"/>
	<path d="M 672.0,784.0 L 673.0,784.0" style="stroke:#050105; fill:none;"/>
	<path d="M 958.0,787.0 L 959.0,787.0" style="stroke:#050105; fill:none;"/>
	<path d="M 662.0,790.0 L 660.0,791.0" style="stroke:#050105; fill:none;"/>
	<path d="M 215.0,791.0 L 215.0,797.0" style="stroke:#050105; fill:none;"/>
	<path d="M 957.0,791.0 L 958.0,791.0" style="stroke:#050105; fill:none;"/>
	<path d="M 628.0,793.0 L 628.0,794.0" style="stroke:#050105; fill:none;"/>
	<path d="M 632.0,793.0 L 632.0,795.0" style="stroke:#050105; fill:none;"/>
	<path d="M 635.0,794.0 L 636.0,794.0" style="stroke:#050105; fill:none;"/>
	<path d="M 957.0,794.0 L 949.0,820.0" style="stroke:#050105; fill:none;"/>
	<path d="M 907.0,796.0 L 906.0,799.0" style="stroke:#050105; fill:none;"/>
	<path d="M 215.0,803.0 C 215.0,816.967 221.679,839.309 216.0,852.0" style="stroke:#050105; fill:none;"/>
	<path d="M 943.0,807.0 L 942.0,812.0" style="stroke:#050105; fill:none;"/>
	<path d="M 906.0,808.0 L 905.0,813.0" style="stroke:#050105; fill:none;"/>
	<path d="M 940.0,813.0 L 940.0,814.0" style="stroke:#050105; fill:none;"/>
	<path d="M 938.0,819.0 L 939.0,819.0" style="stroke:#050105; fill:none;"/>
	<path d="M 904.0,820.0 L 904.0,824.0" style="stroke:#050105; fill:none;"/>
	<path d="M 950.0,823.0 L 941.0,836.0 L 941.0,837.0 L 943.0,838.0" style="stroke:#050105; fill:none;"/>
	<path d="M 902.0,830.0 L 903.0,830.0" style="stroke:#050105; fill:none;"/>
	<path d="M 896.0,831.0 L 896.0,832.0" style="stroke:#050105; fill:none;"/>
	<path d="M 931.0,835.0 L 931.0,837.0" style="stroke:#050105; fill:none;"/>
	<path d="M 903.0,836.0 L 903.0,837.0" style="stroke:#050105; fill:none;"/>
	<path d="M 940.0,838.0 L 936.0,842.0" style="stroke:#050105; fill:none;"/>
	<path d="M 928.0,840.0 L 929.0,840.0" style="stroke:#050105; fill:none;"/>
	<path d="M 927.0,844.0 L 926.0,846.0" style="stroke:#050105; fill:none;"/>
	<path d="M 874.0,846.0 L 875.0,846.0" style="stroke:#050105; fill:none;"/>
	<path d="M 895.0,846.0 L 895.0,847.0" style="stroke:#050105; fill:none;"/>
	<path d="M 902.0,846.0 L 902.0,850.0" style="stroke:#050105; fill:none;"/>
	<path d="M 935.0,846.0 L 934.0,849.0" style="stroke:#050105; fill:none;"/>
	<path d="M 923.0,847.0 L 923.0,849.0" style="stroke:#050105; fill:none;"/>
	<path d="M 218.0,852.0 L 226.0,906.0" style="stroke:#050105; fill:none;"/>
	<path d="M 894.0,852.0 L 895.0,852.0" style="stroke:#050105; fill:none;"/>
	<path d="M 919.0,853.0 L 921.0,853.0" style="stroke:#050105; fill:none;"/>
	<path d="M 895.0,855.0 L 894.0,857.0" style="stroke:#050105; fill:none;"/>
	<path d="M 901.0,856.0 L 902.0,856.0" style="stroke:#050105; fill:none;"/>
	<path d="M 918.0,856.0 L 920.0,856.0" style="stroke:#050105; fill:none;"/>
	<path d="M 930.0,856.0 L 931.0,857.0" style="stroke:#050105; fill:none;"/>
	<path d="M 870.0,857.0 L 869.0,862.0" style="stroke:#050105; fill:none;"/>
	<path d="M 902.0,860.0 L 902.0,861.0" style="stroke:#050105; fill:none;"/>
	<path d="M 927.0,860.0 L 928.0,860.0" style="stroke:#050105; fill:none;"/>
	<path d="M 926.0,863.0 L 925.0,865.0" style="stroke:#050105; fill:none;"/>
	<path d="M 894.0,865.0 L 894.0,867.0" style="stroke:#050105; fill:none;"/>
	<path d="M 912.0,866.0 L 913.0,866.0" style="stroke:#050105; fill:none;"/>
	<path d="M 866.0,867.0 L 859.0,881.0" style="stroke:#050105; fill:none;"/>
	<path d="M 909.0,870.0 L 911.0,869.0" style="stroke:#050105; fill:none;"/>
	<path d="M 924.0,869.0 L 924.0,870.0" style="stroke:#050105; fill:none;"/>
	<path d="M 893.0,871.0 L 895.0,871.0" style="stroke:#050105; fill:none;"/>
	<path d="M 922.0,872.0 L 923.0,874.0" style="stroke:#050105; fill:none;"/>
	<path d="M 889.0,873.0 L 890.0,873.0" style="stroke:#050105; fill:none;"/>
	<path d="M 895.0,875.0 L 895.0,876.0" style="stroke:#050105; fill:none;"/>
	<path d="M 920.0,875.0 L 922.0,876.0" style="stroke:#050105; fill:none;"/>
	<path d="M 905.0,877.0 L 904.0,880.0" style="stroke:#050105; fill:none;"/>
	<path d="M 920.0,878.0 L 920.0,879.0" style="stroke:#050105; fill:none;"/>
	<path d="M 895.0,879.0 L 895.0,881.0" style="stroke:#050105; fill:none;"/>
	<path d="M 856.0,882.0 L 855.0,887.0" style="stroke:#050105; fill:none;"/>
	<path d="M 888.0,884.0 L 890.0,885.0" style="stroke:#050105; fill:none;"/>
	<path d="M 902.0,884.0 L 901.0,885.0" style="stroke:#050105; fill:none;"/>
	<path d="M 910.0,890.0 L 908.0,892.0" style="stroke:#050105; fill:none;"/>
	<path d="M 853.0,891.0 L 851.0,893.0" style="stroke:#050105; fill:none;"/>
	<path d="M 849.0,898.0 L 852.0,895.0" style="stroke:#050105; fill:none;"/>
	<path d="M 904.0,896.0 L 904.0,897.0" style="stroke:#050105; fill:none;"/>
	<path d="M 906.0,897.0 L 906.0,898.0" style="stroke:#050105; fill:none;"/>
	<path d="M 848.0,901.0 L 846.0,905.0" style="stroke:#050105; fill:none;"/>
	<path d="M 902.0,901.0 L 900.0,903.0" style="stroke:#050105; fill:none;"/>
	<path d="M 900.0,906.0 L 900.0,907.0" style="stroke:#050105; fill:none;"/>
	<path d="M 371.0,907.0 L 372.0,909.0" style="stroke:#050105; fill:none;"/>
	<path d="M 844.0,907.0 L 846.0,908.0" style="stroke:#050105; fill:none;"/>
	<path d="M 897.0,908.0 L 896.0,911.0" style="stroke:#050105; fill:none;"/>
	<path d="M 228.0,909.0 L 228.0,911.0" style="stroke:#050105; fill:none;"/>
	<path d="M 373.0,911.0 L 375.0,914.0" style="stroke:#050105; fill:none;"/>
	<path d="M 401.0,911.0 L 402.0,912.0" style="stroke:#050105; fill:none;"/>
	<path d="M 395.0,913.0 L 396.0,917.0" style="stroke:#050105; fill:none;"/>
	<path d="M 893.0,913.0 L 892.0,914.0" style="stroke:#050105; fill:none;"/>
	<path d="M 229.0,915.0 C 229.049,920.82 232.51,927.531 228.0,932.0" style="stroke:#050105; fill:none;"/>
	<path d="M 887.0,922.0 L 892.0,917.0" style="stroke:#050105; fill:none;"/>
	<path d="M 402.0,918.0 L 403.0,919.0" style="stroke:#050105; fill:none;"/>
	<path d="M 379.0,919.0 L 380.0,920.0" style="stroke:#050105; fill:none;"/>
	<path d="M 411.0,919.0 L 412.0,920.0" style="stroke:#050105; fill:none;"/>
	<path d="M 410.0,923.0 L 411.0,923.0" style="stroke:#050105; fill:none;"/>
	<path d="M 527.0,930.0 L 527.0,931.0" style="stroke:#050105; fill:none;"/>
	<path d="M 880.0,930.0 L 876.0,932.0" style="stroke:#050105; fill:none;"/>
	<path d="M 232.0,932.0 L 233.0,935.0" style="stroke:#050105; fill:none;"/>
	<path d="M 479.0,932.0 L 480.0,932.0" style="stroke:#050105; fill:none;"/>
	<path d="M 405.0,933.0 L 406.0,933.0" style="stroke:#050105; fill:none;"/>
	<path d="M 482.0,933.0 L 483.0,934.0" style="stroke:#050105; fill:none;"/>
	<path d="M 526.0,936.0 L 523.0,944.0" style="stroke:#050105; fill:none;"/>
	<path d="M 827.0,936.0 L 831.0,941.0" style="stroke:#050105; fill:none;"/>
	<path d="M 450.0,938.0 L 452.0,937.0" style="stroke:#050105; fill:none;"/>
	<path d="M 875.0,938.0 L 875.0,939.0" style="stroke:#050105; fill:none;"/>
	<path d="M 473.0,940.0 L 475.0,940.0" style="stroke:#050105; fill:none;"/>
	<path d="M 477.0,941.0 L 482.0,942.0" style="stroke:#050105; fill:none;"/>
	<path d="M 235.0,942.0 L 235.0,944.0" style="stroke:#050105; fill:none;"/>
	<path d="M 870.0,942.0 L 871.0,942.0" style="stroke:#050105; fill:none;"/>
	<path d="M 868.0,945.0 L 868.0,946.0" style="stroke:#050105; fill:none;"/>
	<path d="M 520.0,946.0 L 514.0,953.0" style="stroke:#050105; fill:none;"/>
	<path d="M 236.0,947.0 L 237.0,949.0" style="stroke:#050105; fill:none;"/>
	<path d="M 836.0,947.0 L 841.0,948.0" style="stroke:#050105; fill:none;"/>
	<path d="M 843.0,950.0 L 845.0,950.0" style="stroke:#050105; fill:none;"/>
	<path d="M 847.0,951.0 L 862.0,951.0" style="stroke:#050105; fill:none;"/>
	<path d="M 238.0,952.0 L 240.0,956.0" style="stroke:#050105; fill:none;"/>
	<path d="M 808.0,954.0 L 808.0,957.0" style="stroke:#050105; fill:none;"/>
	<path d="M 510.0,956.0 L 513.0,956.0" style="stroke:#050105; fill:none;"/>
	<path d="M 502.0,959.0 L 507.0,958.0" style="stroke:#050105; fill:none;"/>
	<path d="M 242.0,959.0 L 243.0,962.0" style="stroke:#050105; fill:none;"/>
	<path d="M 494.0,959.0 L 495.0,959.0" style="stroke:#050105; fill:none;"/>
	<path d="M 499.0,959.0 L 500.0,959.0" style="stroke:#050105; fill:none;"/>
	<path d="M 244.0,967.0 L 246.0,968.0" style="stroke:#050105; fill:none;"/>
	<path d="M 247.0,972.0 L 251.0,982.0" style="stroke:#050105; fill:none;"/>
	<path d="M 795.0,980.0 L 792.0,982.0" style="stroke:#050105; fill:none;"/>
	<path d="M 254.0,985.0 L 255.0,989.0" style="stroke:#050105; fill:none;"/>
	<path d="M 792.0,988.0 L 792.0,989.0" style="stroke:#050105; fill:none;"/>
	<path d="M 788.0,991.0 L 787.0,993.0" style="stroke:#050105; fill:none;"/>
	<path d="M 257.0,992.0 L 263.0,1004.0" style="stroke:#050105; fill:none;"/>
	<path d="M 407.0,1001.0 L 408.0,1002.0" style="stroke:#050105; fill:none;"/>
	<path d="M 781.0,1004.0 L 783.0,1003.0" style="stroke:#050105; fill:none;"/>
	<path d="M 778.0,1007.0 L 778.0,1008.0" style="stroke:#050105; fill:none;"/>
	<path d="M 264.0,1009.0 L 266.0,1011.0" style="stroke:#050105; fill:none;"/>
	<path d="M 775.0,1015.0 L 774.0,1018.0" style="stroke:#050105; fill:none;"/>
	<path d="M 772.0,1018.0 L 771.0,1022.0" style="stroke:#050105; fill:none;"/>
	<path d="M 271.0,1020.0 L 271.0,1021.0" style="stroke:#050105; fill:none;"/>
	<path d="M 364.0,1022.0 L 379.0,1024.0" style="stroke:#050105; fill:none;"/>
	<path d="M 381.0,1025.0 L 382.0,1025.0" style="stroke:#050105; fill:none;"/>
	<path d="M 768.0,1025.0 L 763.0,1032.0" style="stroke:#050105; fill:none;"/>
	<path d="M 273.0,1026.0 L 275.0,1032.0" style="stroke:#050105; fill:none;"/>
	<path d="M 385.0,1027.0 L 386.0,1027.0" style="stroke:#050105; fill:none;"/>
	<path d="M 388.0,1029.0 L 388.0,1030.0" style="stroke:#050105; fill:none;"/>
	<path d="M 392.0,1030.0 L 393.0,1030.0" style="stroke:#050105; fill:none;"/>
	<path d="M 392.0,1032.0 L 393.0,1033.0" style="stroke:#050105; fill:none;"/>
	<path d="M 399.0,1036.0 L 406.0,1041.0" style="stroke:#050105; fill:none;"/>
	<path d="M 762.0,1036.0 L 758.0,1040.0" style="stroke:#050105; fill:none;"/>
	<path d="M 277.0,1037.0 L 279.0,1042.0" style="stroke:#050105; fill:none;"/>
	<path d="M 758.0,1043.0 L 755.0,1047.0" style="stroke:#050105; fill:none;"/>
	<path d="M 410.0,1044.0 L 412.0,1044.0" style="stroke:#050105; fill:none;"/>
	<path d="M 414.0,1044.0 L 414.0,1045.0" style="stroke:#050105; fill:none;"/>
	<path d="M 281.0,1046.0 L 283.0,1052.0" style="stroke:#050105; fill:none;"/>
	<path d="M 418.0,1046.0 L 422.0,1048.0" style="stroke:#050105; fill:none;"/>
	<path d="M 425.0,1048.0 L 432.0,1048.0" style="stroke:#050105; fill:none;"/>
	<path d="M 439.0,1047.0 L 439.0,1048.0" style="stroke:#050105; fill:none;"/>
	<path d="M 444.0,1049.0 L 449.0,1051.0" style="stroke:#050105; fill:none;"/>
	<path d="M 285.0,1053.0 L 284.0,1058.0" style="stroke:#050105; fill:none;"/>
	<path d="M 453.0,1053.0 L 456.0,1054.0" style="stroke:#050105; fill:none;"/>
	<path d="M 460.0,1054.0 L 460.0,1055.0" style="stroke:#050105; fill:none;"/>
	<path d="M 750.0,1054.0 L 750.0,1055.0" style="stroke:#050105; fill:none;"/>
	<path d="M 466.0,1055.0 L 467.0,1056.0" style="stroke:#050105; fill:none;"/>
	<path d="M 470.0,1057.0 L 473.0,1059.0" style="stroke:#050105; fill:none;"/>
	<path d="M 476.0,1059.0 L 478.0,1058.0" style="stroke:#050105; fill:none;"/>
	<path d="M 286.0,1059.0 L 300.0,1090.0 L 297.0,1088.0" style="stroke:#050105; fill:none;"/>
	<path d="M 481.0,1059.0 L 482.0,1059.0" style="stroke:#050105; fill:none;"/>
	<path d="M 485.0,1059.0 L 485.0,1061.0" style="stroke:#050105; fill:none;"/>
	<path d="M 508.0,1068.0 L 516.0,1069.0" style="stroke:#050105; fill:none;"/>
	<path d="M 735.0,1073.0 L 735.0,1074.0" style="stroke:#050105; fill:none;"/>
	<path d="M 732.0,1078.0 L 731.0,1079.0" style="stroke:#050105; fill:none;"/>
	<path d="M 727.0,1082.0 L 723.0,1088.0" style="stroke:#050105; fill:none;"/>
	<path d="M 377.0,1084.0 L 378.0,1085.0" style="stroke:#050105; fill:none;"/>
	<path d="M 391.0,1090.0 L 392.0,1090.0" style="stroke:#050105; fill:none;"/>
	<path d="M 299.0,1091.0 L 313.0,1117.0" style="stroke:#050105; fill:none;"/>
	<path d="M 719.0,1091.0 L 718.0,1092.0" style="stroke:#050105; fill:none;"/>
	<path d="M 725.0,1091.0 L 725.0,1095.0" style="stroke:#050105; fill:none;"/>
	<path d="M 714.0,1094.0 L 714.0,1095.0" style="stroke:#050105; fill:none;"/>
	<path d="M 406.0,1095.0 L 407.0,1095.0" style="stroke:#050105; fill:none;"/>
	<path d="M 711.0,1096.0 L 712.0,1096.0" style="stroke:#050105; fill:none;"/>
	<path d="M 457.0,1097.0 L 459.0,1097.0" style="stroke:#050105; fill:none;"/>
	<path d="M 418.0,1098.0 L 420.0,1099.0" style="stroke:#050105; fill:none;"/>
	<path d="M 422.0,1098.0 L 423.0,1098.0" style="stroke:#050105; fill:none;"/>
	<path d="M 446.0,1098.0 L 447.0,1099.0" style="stroke:#050105; fill:none;"/>
	<path d="M 449.0,1098.0 L 451.0,1099.0" style="stroke:#050105; fill:none;"/>
	<path d="M 429.0,1099.0 L 431.0,1099.0" style="stroke:#050105; fill:none;"/>
	<path d="M 725.0,1099.0 L 724.0,1100.0" style="stroke:#050105; fill:none;"/>
	<path d="M 434.0,1100.0 L 435.0,1100.0" style="stroke:#050105; fill:none;"/>
	<path d="M 707.0,1101.0 L 708.0,1101.0" style="stroke:#050105; fill:none;"/>
	<path d="M 303.0,1102.0 L 302.0,1105.0" style="stroke:#050105; fill:none;"/>
	<path d="M 702.0,1104.0 L 702.0,1106.0" style="stroke:#050105; fill:none;"/>
	<path d="M 307.0,1107.0 L 308.0,1108.0" style="stroke:#050105; fill:none;"/>
	<path d="M 696.0,1110.0 L 692.0,1113.0" style="stroke:#050105; fill:none;"/>
	<path d="M 302.0,1111.0 L 301.0,1115.0" style="stroke:#050105; fill:none;"/>
	<path d="M 689.0,1115.0 L 686.0,1119.0" style="stroke:#050105; fill:none;"/>
	<path d="M 301.0,1118.0 L 300.0,1121.0" style="stroke:#050105; fill:none;"/>
	<path d="M 316.0,1119.0 L 318.0,1125.0" style="stroke:#050105; fill:none;"/>
	<path d="M 679.0,1121.0 L 683.0,1121.0" style="stroke:#050105; fill:none;"/>
	<path d="M 724.0,1122.0 L 724.0,1123.0" style="stroke:#050105; fill:none;"/>
	<path d="M 678.0,1123.0 L 674.0,1124.0" style="stroke:#050105; fill:none;"/>
	<path d="M 301.0,1125.0 L 303.0,1126.0 L 303.0,1131.0" style="stroke:#050105; fill:none;"/>
	<path d="M 322.0,1126.0 L 322.0,1129.0" style="stroke:#050105; fill:none;"/>
	<path d="M 723.0,1126.0 L 724.0,1126.0" style="stroke:#050105; fill:none;"/>
	<path d="M 672.0,1127.0 L 671.0,1130.0" style="stroke:#050105; fill:none;"/>
	<path d="M 711.0,1133.0 L 710.0,1137.0" style="stroke:#050105; fill:none;"/>
	<path d="M 653.0,1139.0 L 660.0,1135.0" style="stroke:#050105; fill:none;"/>
	<path d="M 303.0,1136.0 L 302.0,1138.0" style="stroke:#050105; fill:none;"/>
	<path d="M 327.0,1137.0 L 328.0,1138.0" style="stroke:#050105; fill:none;"/>
	<path d="M 722.0,1137.0 L 721.0,1140.0" style="stroke:#050105; fill:none;"/>
	<path d="M 647.0,1139.0 L 646.0,1140.0" style="stroke:#050105; fill:none;"/>
	<path d="M 302.0,1141.0 L 304.0,1141.0" style="stroke:#050105; fill:none;"/>
	<path d="M 641.0,1142.0 L 640.0,1143.0" style="stroke:#050105; fill:none;"/>
	<path d="M 304.0,1143.0 L 303.0,1148.0" style="stroke:#050105; fill:none;"/>
	<path d="M 639.0,1147.0 L 646.0,1143.0" style="stroke:#050105; fill:none;"/>
	<path d="M 333.0,1146.0 L 334.0,1147.0" style="stroke:#050105; fill:none;"/>
	<path d="M 628.0,1149.0 L 629.0,1149.0" style="stroke:#050105; fill:none;"/>
	<path d="M 719.0,1150.0 L 718.0,1154.0" style="stroke:#050105; fill:none;"/>
	<path d="M 303.0,1153.0 L 305.0,1153.0" style="stroke:#050105; fill:none;"/>
	<path d="M 340.0,1153.0 L 341.0,1153.0" style="stroke:#050105; fill:none;"/>
	<path d="M 620.0,1154.0 L 616.0,1156.0" style="stroke:#050105; fill:none;"/>
	<path d="M 705.0,1155.0 L 705.0,1156.0" style="stroke:#050105; fill:none;"/>
	<path d="M 305.0,1157.0 L 304.0,1164.0" style="stroke:#050105; fill:none;"/>
	<path d="M 345.0,1157.0 L 345.0,1159.0" style="stroke:#050105; fill:none;"/>
	<path d="M 606.0,1161.0 L 614.0,1159.0" style="stroke:#050105; fill:none;"/>
	<path d="M 718.0,1158.0 L 716.0,1161.0" style="stroke:#050105; fill:none;"/>
	<path d="M 350.0,1161.0 L 350.0,1163.0" style="stroke:#050105; fill:none;"/>
	<path d="M 719.0,1161.0 L 716.0,1172.0" style="stroke:#050105; fill:none;"/>
	<path d="M 599.0,1162.0 L 601.0,1162.0" style="stroke:#050105; fill:none;"/>
	<path d="M 596.0,1164.0 L 597.0,1164.0" style="stroke:#050105; fill:none;"/>
	<path d="M 354.0,1165.0 L 357.0,1166.0" style="stroke:#050105; fill:none;"/>
	<path d="M 593.0,1165.0 L 594.0,1165.0" style="stroke:#050105; fill:none;"/>
	<path d="M 587.0,1166.0 L 581.0,1168.0" style="stroke:#050105; fill:none;"/>
	<path d="M 305.0,1170.0 L 303.0,1173.0" style="stroke:#050105; fill:none;"/>
	<path d="M 362.0,1170.0 L 388.0,1180.0" style="stroke:#050105; fill:none;"/>
	<path d="M 574.0,1170.0 L 573.0,1171.0" style="stroke:#050105; fill:none;"/>
	<path d="M 559.0,1174.0 L 567.0,1173.0" style="stroke:#050105; fill:none;"/>
	<path d="M 714.0,1177.0 L 713.0,1178.0" style="stroke:#050105; fill:none;"/>
	<path d="M 304.0,1178.0 L 306.0,1178.0" style="stroke:#050105; fill:none;"/>
	<path d="M 545.0,1178.0 L 546.0,1178.0" style="stroke:#050105; fill:none;"/>
	<path d="M 549.0,1179.0 L 552.0,1178.0" style="stroke:#050105; fill:none;"/>
	<path d="M 305.0,1179.0 L 306.0,1188.0" style="stroke:#050105; fill:none;"/>
	<path d="M 715.0,1179.0 L 713.0,1181.0" style="stroke:#050105; fill:none;"/>
	<path d="M 537.0,1180.0 L 532.0,1183.0" style="stroke:#050105; fill:none;"/>
	<path d="M 391.0,1181.0 L 408.0,1186.0" style="stroke:#050105; fill:none;"/>
	<path d="M 528.0,1184.0 L 527.0,1185.0" style="stroke:#050105; fill:none;"/>
	<path d="M 713.0,1185.0 L 714.0,1189.0" style="stroke:#050105; fill:none;"/>
	<path d="M 519.0,1186.0 L 522.0,1186.0" style="stroke:#050105; fill:none;"/>
	<path d="M 411.0,1187.0 L 413.0,1187.0" style="stroke:#050105; fill:none;"/>
	<path d="M 516.0,1187.0 L 519.0,1189.0" style="stroke:#050105; fill:none;"/>
	<path d="M 426.0,1191.0 L 436.0,1193.0" style="stroke:#050105; fill:none;"/>
	<path d="M 506.0,1190.0 L 509.0,1190.0" style="stroke:#050105; fill:none;"/>
	<path d="M 493.0,1192.0 L 501.0,1191.0" style="stroke:#050105; fill:none;"/>
	<path d="M 487.0,1193.0 L 489.0,1193.0" style="stroke:#050105; fill:none;"/>
	<path d="M 306.0,1193.0 L 304.0,1205.0" style="stroke:#050105; fill:none;"/>
	<path d="M 441.0,1194.0 L 442.0,1194.0" style="stroke:#050105; fill:none;"/>
	<path d="M 479.0,1195.0 L 483.0,1194.0" style="stroke:#050105; fill:none;"/>
	<path d="M 474.0,1195.0 L 475.0,1195.0" style="stroke:#050105; fill:none;"/>
	<path d="M 453.0,1197.0 L 458.0,1197.0" style="stroke:#050105; fill:none;"/>
	<path d="M 467.0,1196.0 L 469.0,1196.0" style="stroke:#050105; fill:none;"/>
	<path d="M 307.0,1204.0 L 308.0,1204.0" style="stroke:#050105; fill:none;"/>
	<path d="M 307.0,1207.0 L 304.0,1209.0" style="stroke:#050105; fill:none;"/>
	<path d="M 702.0,1208.0 L 702.0,1210.0" style="stroke:#050105; fill:none;"/>
	<path d="M 307.0,1214.0 L 306.0,1223.0" style="stroke:#050105; fill:none;"/>
	<path d="M 310.0,1215.0 L 309.0,1216.0" style="stroke:#050105; fill:none;"/>
	<path d="M 697.0,1217.0 L 698.0,1217.0" style="stroke:#050105; fill:none;"/>
	<path d="M 695.0,1220.0 L 697.0,1220.0" style="stroke:#050105; fill:none;"/>
	<path d="M 695.0,1224.0 L 692.0,1228.0 L 692.0,1226.0" style="stroke:#050105; fill:none;"/>
	<path d="M 308.0,1228.0 L 307.0,1235.0" style="stroke:#050105; fill:none;"/>
	<path d="M 690.0,1232.0 L 683.0,1242.0" style="stroke:#050105; fill:none;"/>
	<path d="M 310.0,1234.0 L 310.0,1235.0" style="stroke:#050105; fill:none;"/>
	<path d="M 309.0,1240.0 L 309.0,1243.0" style="stroke:#050105; fill:none;"/>
	<path d="M 678.0,1248.0 L 677.0,1250.0" style="stroke:#050105; fill:none;"/>
	<path d="M 311.0,1249.0 L 310.0,1265.0" style="stroke:#050105; fill:none;"/>
	<path d="M 675.0,1252.0 L 674.0,1253.0" style="stroke:#050105; fill:none;"/>
	<path d="M 670.0,1259.0 L 666.0,1267.0" style="stroke:#050105; fill:none;"/>
	<path d="M 316.0,1285.0 C 314.911,1280.22 311.697,1271.76 315.0,1268.0" style="stroke:#050105; fill:none;"/>
	<path d="M 662.0,1269.0 L 664.0,1271.0" style="stroke:#050105; fill:none;"/>
	<path d="M 657.0,1274.0 L 656.0,1277.0" style="stroke:#050105; fill:none;"/>
	<path d="M 313.0,1278.0 L 313.0,1279.0" style="stroke:#050105; fill:none;"/>
	<path d="M 653.0,1282.0 L 642.0,1291.0" style="stroke:#050105; fill:none;"/>
	<path d="M 318.0,1286.0 L 318.0,1289.0" style="stroke:#050105; fill:none;"/>
	<path d="M 315.0,1289.0 L 316.0,1289.0" style="stroke:#050105; fill:none;"/>
	<path d="M 318.0,1290.0 L 322.0,1298.0 L 319.0,1293.0" style="stroke:#050105; fill:none;"/>
	<path d="M 639.0,1294.0 L 640.0,1294.0" style="stroke:#050105; fill:none;"/>
	<path d="M 636.0,1297.0 L 638.0,1298.0" style="stroke:#050105; fill:none;"/>
	<path d="M 321.0,1299.0 L 323.0,1305.0 L 324.0,1302.0" style="stroke:#050105; fill:none;"/>
	<path d="M 632.0,1301.0 L 634.0,1301.0" style="stroke:#050105; fill:none;"/>
	<path d="M 630.0,1305.0 L 624.0,1310.0" style="stroke:#050105; fill:none;"/>
	<path d="M 325.0,1311.0 L 327.0,1311.0" style="stroke:#050105; fill:none;"/>
	<path d="M 624.0,1314.0 L 620.0,1317.0" style="stroke:#050105; fill:none;"/>
	<path d="M 617.0,1320.0 L 611.0,1326.0" style="stroke:#050105; fill:none;"/>
	<path d="M 609.0,1331.0 L 607.0,1334.0" style="stroke:#050105; fill:none;"/>
	<path d="M 604.0,1335.0 L 592.0,1350.0" style="stroke:#050105; fill:none;"/>
	<path d="M 598.0,1345.0 L 597.0,1346.0" style="stroke:#050105; fill:none;"/>
	<path d="M 589.0,1352.0 L 591.0,1354.0" style="stroke:#050105; fill:none;"/>
	<path d="M 588.0,1355.0 L 588.0,1356.0" style="stroke:#050105; fill:none;"/>
</svg>
