<?xml version="1.0" ?>
<svg baseProfile="full" height="1100" version="1.1" width="1057" xmlns="http://www.w3.org/2000/svg" xmlns:ev="http://www.w3.org/2001/xml-events" xmlns:xlink="http://www.w3.org/1999/xlink">
	<defs/>
	<path d="M 711.0,293.0 L 712.0,294.0" style="stroke:#040104; fill:none;"/>
	<path d="M 692.0,295.0 L 694.0,294.0" style="stroke:#040104; fill:none;"/>
	<path d="M 715.0,296.0 L 717.0,297.0" style="stroke:#040104; fill:none;"/>
	<path d="M 684.0,298.0 L 686.0,297.0" style="stroke:#040104; fill:none;"/>
	<path d="M 677.0,300.0 L 677.0,301.0" style="stroke:#040104; fill:none;"/>
	<path d="M 720.0,301.0 L 722.0,301.0" style="stroke:#040104; fill:none;"/>
	<path d="M 726.0,304.0 L 727.0,304.0" style="stroke:#040104; fill:none;"/>
	<path d="M 729.0,306.0 L 730.0,309.0" style="stroke:#040104; fill:none;"/>
	<path d="M 732.0,311.0 L 736.0,314.0" style="stroke:#040104; fill:none;"/>
	<path d="M 668.0,315.0 L 665.0,320.0" style="stroke:#040104; fill:none;"/>
	<path d="M 690.0,318.0 L 700.0,315.0" style="stroke:#040104; fill:none;"/>
	<path d="M 708.0,315.0 L 709.0,315.0" style="stroke:#040104; fill:none;"/>
	<path d="M 713.0,317.0 L 715.0,319.0" style="stroke:#040104; fill:none;"/>
	<path d="M 686.0,319.0 L 688.0,320.0" style="stroke:#040104; fill:none;"/>
	<path d="M 682.0,322.0 L 676.0,328.0" style="stroke:#040104; fill:none;"/>
	<path d="M 742.0,322.0 L 743.0,322.0" style="stroke:#040104; fill:none;"/>
	<path d="M 662.0,323.0 L 662.0,324.0" style="stroke:#040104; fill:none;"/>
	<path d="M 718.0,324.0 L 719.0,325.0" style="stroke:#040104; fill:none;"/>
	<path d="M 744.0,324.0 L 746.0,333.0" style="stroke:#040104; fill:none;"/>
	<path d="M 742.0,325.0 L 743.0,326.0" style="stroke:#040104; fill:none;"/>
	<path d="M 723.0,329.0 L 724.0,330.0" style="stroke:#040104; fill:none;"/>
	<path d="M 725.0,332.0 L 729.0,336.0" style="stroke:#040104; fill:none;"/>
	<path d="M 749.0,334.0 L 753.0,341.0" style="stroke:#040104; fill:none;"/>
	<path d="M 734.0,342.0 L 735.0,345.0" style="stroke:#040104; fill:none;"/>
	<path d="M 757.0,343.0 L 776.0,371.0" style="stroke:#040104; fill:none;"/>
	<path d="M 755.0,345.0 L 756.0,346.0" style="stroke:#040104; fill:none;"/>
	<path d="M 739.0,350.0 L 740.0,350.0" style="stroke:#040104; fill:none;"/>
	<path d="M 707.0,352.0 L 710.0,352.0" style="stroke:#040104; fill:none;"/>
	<path d="M 761.0,352.0 L 762.0,354.0" style="stroke:#040104; fill:none;"/>
	<path d="M 697.0,354.0 L 697.0,355.0" style="stroke:#040104; fill:none;"/>
	<path d="M 645.0,357.0 L 646.0,357.0" style="stroke:#040104; fill:none;"/>
	<path d="M 746.0,358.0 L 752.0,362.0" style="stroke:#040104; fill:none;"/>
	<path d="M 697.0,365.0 L 697.0,366.0" style="stroke:#040104; fill:none;"/>
	<path d="M 699.0,365.0 L 699.0,366.0" style="stroke:#040104; fill:none;"/>
	<path d="M 701.0,365.0 L 702.0,365.0" style="stroke:#040104; fill:none;"/>
	<path d="M 757.0,367.0 L 758.0,368.0" style="stroke:#040104; fill:none;"/>
	<path d="M 656.0,368.0 L 657.0,368.0" style="stroke:#040104; fill:none;"/>
	<path d="M 774.0,370.0 L 774.0,372.0" style="stroke:#040104; fill:none;"/>
	<path d="M 759.0,371.0 L 759.0,372.0" style="stroke:#040104; fill:none;"/>
	<path d="M 778.0,373.0 L 780.0,375.0" style="stroke:#040104; fill:none;"/>
	<path d="M 781.0,379.0 L 783.0,382.0" style="stroke:#040104; fill:none;"/>
	<path d="M 785.0,383.0 L 787.0,383.0" style="stroke:#040104; fill:none;"/>
	<path d="M 666.0,387.0 L 667.0,387.0" style="stroke:#040104; fill:none;"/>
	<path d="M 770.0,387.0 L 771.0,388.0" style="stroke:#040104; fill:none;"/>
	<path d="M 677.0,392.0 L 687.0,393.0" style="stroke:#040104; fill:none;"/>
	<path d="M 704.0,392.0 L 705.0,392.0" style="stroke:#040104; fill:none;"/>
	<path d="M 695.0,394.0 L 700.0,393.0" style="stroke:#040104; fill:none;"/>
	<path d="M 796.0,397.0 L 799.0,403.0" style="stroke:#040104; fill:none;"/>
	<path d="M 758.0,400.0 L 758.0,402.0" style="stroke:#040104; fill:none;"/>
	<path d="M 685.0,405.0 L 686.0,405.0" style="stroke:#040104; fill:none;"/>
	<path d="M 691.0,405.0 L 693.0,405.0" style="stroke:#040104; fill:none;"/>
	<path d="M 782.0,410.0 L 781.0,405.0" style="stroke:#040104; fill:none;"/>
	<path d="M 800.0,406.0 L 805.0,419.0" style="stroke:#040104; fill:none;"/>
	<path d="M 781.0,416.0 L 782.0,421.0" style="stroke:#040104; fill:none;"/>
	<path d="M 758.0,419.0 L 759.0,419.0" style="stroke:#040104; fill:none;"/>
	<path d="M 756.0,422.0 L 755.0,426.0" style="stroke:#040104; fill:none;"/>
	<path d="M 716.0,426.0 L 716.0,427.0" style="stroke:#040104; fill:none;"/>
	<path d="M 749.0,434.0 L 753.0,431.0" style="stroke:#040104; fill:none;"/>
	<path d="M 719.0,436.0 L 720.0,436.0" style="stroke:#040104; fill:none;"/>
	<path d="M 743.0,440.0 L 746.0,438.0" style="stroke:#040104; fill:none;"/>
	<path d="M 719.0,445.0 L 723.0,452.0" style="stroke:#040104; fill:none;"/>
	<path d="M 806.0,447.0 L 805.0,449.0" style="stroke:#040104; fill:none;"/>
	<path d="M 738.0,451.0 L 738.0,453.0" style="stroke:#040104; fill:none;"/>
	<path d="M 724.0,454.0 L 725.0,458.0" style="stroke:#040104; fill:none;"/>
	<path d="M 806.0,455.0 L 805.0,464.0" style="stroke:#040104; fill:none;"/>
	<path d="M 737.0,457.0 L 739.0,458.0" style="stroke:#040104; fill:none;"/>
	<path d="M 729.0,463.0 L 730.0,463.0" style="stroke:#040104; fill:none;"/>
	<path d="M 738.0,463.0 L 738.0,466.0" style="stroke:#040104; fill:none;"/>
	<path d="M 730.0,468.0 L 731.0,468.0" style="stroke:#040104; fill:none;"/>
	<path d="M 805.0,468.0 L 803.0,472.0" style="stroke:#040104; fill:none;"/>
	<path d="M 733.0,472.0 L 733.0,475.0" style="stroke:#040104; fill:none;"/>
	<path d="M 738.0,472.0 L 738.0,476.0" style="stroke:#040104; fill:none;"/>
	<path d="M 801.0,484.0 L 801.0,485.0" style="stroke:#040104; fill:none;"/>
	<path d="M 799.0,489.0 L 800.0,489.0" style="stroke:#040104; fill:none;"/>
	<path d="M 798.0,496.0 L 797.0,500.0" style="stroke:#040104; fill:none;"/>
	<path d="M 795.0,502.0 L 793.0,508.0" style="stroke:#040104; fill:none;"/>
	<path d="M 792.0,512.0 L 791.0,516.0" style="stroke:#040104; fill:none;"/>
	<path d="M 788.0,519.0 L 790.0,520.0" style="stroke:#040104; fill:none;"/>
	<path d="M 457.0,520.0 L 459.0,520.0" style="stroke:#040104; fill:none;"/>
	<path d="M 434.0,521.0 L 429.0,525.0" style="stroke:#040104; fill:none;"/>
	<path d="M 788.0,522.0 L 786.0,525.0" style="stroke:#040104; fill:none;"/>
	<path d="M 431.0,532.0 L 433.0,531.0" style="stroke:#040104; fill:none;"/>
	<path d="M 445.0,535.0 L 444.0,536.0" style="stroke:#040104; fill:none;"/>
	<path d="M 781.0,536.0 L 783.0,535.0" style="stroke:#040104; fill:none;"/>
	<path d="M 417.0,540.0 L 417.0,541.0" style="stroke:#040104; fill:none;"/>
	<path d="M 856.0,541.0 L 859.0,541.0" style="stroke:#040104; fill:none;"/>
	<path d="M 413.0,545.0 L 414.0,545.0" style="stroke:#040104; fill:none;"/>
	<path d="M 407.0,556.0 L 418.0,546.0" style="stroke:#040104; fill:none;"/>
	<path d="M 410.0,548.0 L 412.0,547.0" style="stroke:#040104; fill:none;"/>
	<path d="M 877.0,551.0 L 879.0,550.0" style="stroke:#040104; fill:none;"/>
	<path d="M 406.0,552.0 L 406.0,553.0" style="stroke:#040104; fill:none;"/>
	<path d="M 875.0,553.0 L 871.0,555.0" style="stroke:#040104; fill:none;"/>
	<path d="M 787.0,554.0 L 786.0,555.0" style="stroke:#040104; fill:none;"/>
	<path d="M 401.0,557.0 L 402.0,557.0" style="stroke:#040104; fill:none;"/>
	<path d="M 866.0,557.0 L 867.0,557.0" style="stroke:#040104; fill:none;"/>
	<path d="M 485.0,558.0 L 486.0,558.0" style="stroke:#040104; fill:none;"/>
	<path d="M 493.0,558.0 L 494.0,558.0" style="stroke:#040104; fill:none;"/>
	<path d="M 481.0,559.0 L 482.0,559.0" style="stroke:#040104; fill:none;"/>
	<path d="M 479.0,560.0 L 479.0,562.0" style="stroke:#040104; fill:none;"/>
	<path d="M 476.0,562.0 L 476.0,563.0" style="stroke:#040104; fill:none;"/>
	<path d="M 400.0,563.0 L 398.0,565.0" style="stroke:#040104; fill:none;"/>
	<path d="M 792.0,563.0 L 793.0,563.0" style="stroke:#040104; fill:none;"/>
	<path d="M 467.0,567.0 L 472.0,565.0" style="stroke:#040104; fill:none;"/>
	<path d="M 498.0,571.0 L 507.0,565.0" style="stroke:#040104; fill:none;"/>
	<path d="M 894.0,566.0 L 895.0,566.0" style="stroke:#040104; fill:none;"/>
	<path d="M 463.0,568.0 L 453.0,578.0 L 454.0,576.0" style="stroke:#040104; fill:none;"/>
	<path d="M 794.0,568.0 L 796.0,569.0" style="stroke:#040104; fill:none;"/>
	<path d="M 393.0,569.0 L 392.0,571.0" style="stroke:#040104; fill:none;"/>
	<path d="M 495.0,571.0 L 493.0,572.0" style="stroke:#040104; fill:none;"/>
	<path d="M 893.0,571.0 L 892.0,574.0" style="stroke:#040104; fill:none;"/>
	<path d="M 883.0,572.0 L 884.0,572.0" style="stroke:#040104; fill:none;"/>
	<path d="M 391.0,574.0 L 385.0,584.0" style="stroke:#040104; fill:none;"/>
	<path d="M 485.0,575.0 L 488.0,574.0 L 492.0,580.0" style="stroke:#040104; fill:none;"/>
	<path d="M 798.0,575.0 L 800.0,576.0" style="stroke:#040104; fill:none;"/>
	<path d="M 464.0,585.0 L 470.0,584.0 L 481.0,577.0" style="stroke:#040104; fill:none;"/>
	<path d="M 800.0,578.0 L 800.0,579.0" style="stroke:#040104; fill:none;"/>
	<path d="M 802.0,579.0 L 802.0,580.0" style="stroke:#040104; fill:none;"/>
	<path d="M 393.0,580.0 L 392.0,581.0" style="stroke:#040104; fill:none;"/>
	<path d="M 399.0,581.0 L 399.0,582.0" style="stroke:#040104; fill:none;"/>
	<path d="M 468.0,581.0 L 468.0,583.0" style="stroke:#040104; fill:none;"/>
	<path d="M 448.0,582.0 L 442.0,586.0" style="stroke:#040104; fill:none;"/>
	<path d="M 803.0,584.0 L 804.0,584.0" style="stroke:#040104; fill:none;"/>
	<path d="M 388.0,585.0 L 387.0,586.0" style="stroke:#040104; fill:none;"/>
	<path d="M 476.0,585.0 L 477.0,585.0" style="stroke:#040104; fill:none;"/>
	<path d="M 504.0,585.0 L 505.0,585.0" style="stroke:#040104; fill:none;"/>
	<path d="M 889.0,585.0 L 889.0,586.0" style="stroke:#040104; fill:none;"/>
	<path d="M 382.0,586.0 L 383.0,586.0" style="stroke:#040104; fill:none;"/>
	<path d="M 466.0,586.0 L 464.0,592.0" style="stroke:#040104; fill:none;"/>
	<path d="M 495.0,586.0 L 490.0,598.0" style="stroke:#040104; fill:none;"/>
	<path d="M 461.0,587.0 L 465.0,588.0" style="stroke:#040104; fill:none;"/>
	<path d="M 440.0,588.0 L 441.0,588.0" style="stroke:#040104; fill:none;"/>
	<path d="M 500.0,588.0 L 501.0,588.0" style="stroke:#040104; fill:none;"/>
	<path d="M 889.0,588.0 L 889.0,589.0" style="stroke:#040104; fill:none;"/>
	<path d="M 382.0,589.0 L 382.0,590.0" style="stroke:#040104; fill:none;"/>
	<path d="M 379.0,590.0 L 378.0,593.0" style="stroke:#040104; fill:none;"/>
	<path d="M 454.0,590.0 L 452.0,593.0" style="stroke:#040104; fill:none;"/>
	<path d="M 809.0,590.0 L 810.0,591.0" style="stroke:#040104; fill:none;"/>
	<path d="M 438.0,591.0 L 434.0,594.0" style="stroke:#040104; fill:none;"/>
	<path d="M 479.0,591.0 L 479.0,592.0" style="stroke:#040104; fill:none;"/>
	<path d="M 457.0,592.0 L 457.0,593.0" style="stroke:#040104; fill:none;"/>
	<path d="M 477.0,593.0 L 475.0,596.0" style="stroke:#040104; fill:none;"/>
	<path d="M 886.0,593.0 L 887.0,593.0" style="stroke:#040104; fill:none;"/>
	<path d="M 811.0,595.0 L 812.0,596.0" style="stroke:#040104; fill:none;"/>
	<path d="M 445.0,597.0 L 447.0,599.0 L 449.0,599.0" style="stroke:#040104; fill:none;"/>
	<path d="M 885.0,597.0 L 884.0,598.0" style="stroke:#040104; fill:none;"/>
	<path d="M 379.0,598.0 L 380.0,598.0" style="stroke:#040104; fill:none;"/>
	<path d="M 432.0,598.0 L 431.0,599.0" style="stroke:#040104; fill:none;"/>
	<path d="M 465.0,599.0 L 471.0,600.0" style="stroke:#040104; fill:none;"/>
	<path d="M 447.0,600.0 L 443.0,606.0 L 441.0,604.0" style="stroke:#040104; fill:none;"/>
	<path d="M 815.0,600.0 L 816.0,602.0" style="stroke:#040104; fill:none;"/>
	<path d="M 428.0,603.0 L 424.0,609.0" style="stroke:#040104; fill:none;"/>
	<path d="M 884.0,603.0 L 885.0,603.0" style="stroke:#040104; fill:none;"/>
	<path d="M 495.0,604.0 L 496.0,604.0" style="stroke:#040104; fill:none;"/>
	<path d="M 485.0,605.0 L 477.0,620.0" style="stroke:#040104; fill:none;"/>
	<path d="M 819.0,605.0 L 819.0,608.0" style="stroke:#040104; fill:none;"/>
	<path d="M 882.0,608.0 L 883.0,612.0" style="stroke:#040104; fill:none;"/>
	<path d="M 822.0,612.0 L 825.0,615.0" style="stroke:#040104; fill:none;"/>
	<path d="M 440.0,613.0 L 436.0,622.0" style="stroke:#040104; fill:none;"/>
	<path d="M 473.0,616.0 L 480.0,616.0" style="stroke:#040104; fill:none;"/>
	<path d="M 457.0,615.0 L 459.0,615.0" style="stroke:#040104; fill:none;"/>
	<path d="M 367.0,616.0 L 367.0,618.0" style="stroke:#040104; fill:none;"/>
	<path d="M 462.0,617.0 L 463.0,617.0" style="stroke:#040104; fill:none;"/>
	<path d="M 467.0,617.0 L 469.0,617.0" style="stroke:#040104; fill:none;"/>
	<path d="M 880.0,618.0 L 878.0,625.0" style="stroke:#040104; fill:none;"/>
	<path d="M 829.0,622.0 L 831.0,624.0" style="stroke:#040104; fill:none;"/>
	<path d="M 473.0,624.0 L 473.0,625.0" style="stroke:#040104; fill:none;"/>
	<path d="M 415.0,626.0 L 416.0,627.0" style="stroke:#040104; fill:none;"/>
	<path d="M 435.0,627.0 L 435.0,628.0" style="stroke:#040104; fill:none;"/>
	<path d="M 470.0,628.0 L 469.0,630.0" style="stroke:#040104; fill:none;"/>
	<path d="M 833.0,628.0 L 833.0,631.0" style="stroke:#040104; fill:none;"/>
	<path d="M 878.0,628.0 L 879.0,629.0" style="stroke:#040104; fill:none;"/>
	<path d="M 434.0,631.0 L 436.0,632.0" style="stroke:#040104; fill:none;"/>
	<path d="M 465.0,634.0 L 461.0,635.0" style="stroke:#040104; fill:none;"/>
	<path d="M 433.0,635.0 L 434.0,648.0" style="stroke:#040104; fill:none;"/>
	<path d="M 838.0,636.0 L 839.0,636.0" style="stroke:#040104; fill:none;"/>
	<path d="M 878.0,636.0 L 879.0,636.0" style="stroke:#040104; fill:none;"/>
	<path d="M 415.0,637.0 L 415.0,640.0" style="stroke:#040104; fill:none;"/>
	<path d="M 456.0,641.0 L 459.0,639.0" style="stroke:#040104; fill:none;"/>
	<path d="M 878.0,640.0 L 880.0,640.0" style="stroke:#040104; fill:none;"/>
	<path d="M 451.0,644.0 L 443.0,656.0" style="stroke:#040104; fill:none;"/>
	<path d="M 878.0,652.0 L 878.0,653.0" style="stroke:#040104; fill:none;"/>
	<path d="M 432.0,657.0 L 433.0,657.0" style="stroke:#040104; fill:none;"/>
	<path d="M 876.0,657.0 L 877.0,657.0" style="stroke:#040104; fill:none;"/>
	<path d="M 432.0,660.0 L 432.0,661.0" style="stroke:#040104; fill:none;"/>
	<path d="M 877.0,660.0 L 873.0,672.0" style="stroke:#040104; fill:none;"/>
	<path d="M 431.0,665.0 L 435.0,668.0" style="stroke:#040104; fill:none;"/>
	<path d="M 437.0,665.0 L 438.0,665.0" style="stroke:#040104; fill:none;"/>
	<path d="M 851.0,666.0 L 851.0,667.0" style="stroke:#040104; fill:none;"/>
	<path d="M 874.0,673.0 L 874.0,675.0" style="stroke:#040104; fill:none;"/>
	<path d="M 854.0,676.0 L 855.0,676.0" style="stroke:#040104; fill:none;"/>
	<path d="M 872.0,681.0 L 871.0,693.0" style="stroke:#040104; fill:none;"/>
	<path d="M 856.0,693.0 L 856.0,694.0" style="stroke:#040104; fill:none;"/>
	<path d="M 870.0,704.0 L 871.0,705.0" style="stroke:#040104; fill:none;"/>
	<path d="M 870.0,714.0 L 869.0,719.0" style="stroke:#040104; fill:none;"/>
	<path d="M 870.0,722.0 L 871.0,723.0" style="stroke:#040104; fill:none;"/>
	<path d="M 870.0,726.0 L 870.0,727.0" style="stroke:#040104; fill:none;"/>
	<path d="M 870.0,732.0 L 870.0,749.0" style="stroke:#040104; fill:none;"/>
	<path d="M 871.0,737.0 L 871.0,738.0" style="stroke:#040104; fill:none;"/>
	<path d="M 287.0,748.0 L 288.0,748.0" style="stroke:#040104; fill:none;"/>
	<path d="M 869.0,755.0 L 869.0,756.0" style="stroke:#040104; fill:none;"/>
	<path d="M 869.0,763.0 L 869.0,777.0" style="stroke:#040104; fill:none;"/>
	<path d="M 867.0,767.0 L 868.0,768.0" style="stroke:#040104; fill:none;"/>
	<path d="M 254.0,769.0 L 254.0,770.0" style="stroke:#040104; fill:none;"/>
	<path d="M 362.0,769.0 L 364.0,770.0" style="stroke:#040104; fill:none;"/>
	<path d="M 868.0,770.0 L 869.0,771.0" style="stroke:#040104; fill:none;"/>
	<path d="M 256.0,771.0 L 256.0,772.0" style="stroke:#040104; fill:none;"/>
	<path d="M 334.0,771.0 L 337.0,772.0" style="stroke:#040104; fill:none;"/>
	<path d="M 513.0,771.0 L 516.0,771.0" style="stroke:#040104; fill:none;"/>
	<path d="M 520.0,771.0 L 524.0,772.0" style="stroke:#040104; fill:none;"/>
	<path d="M 249.0,772.0 L 248.0,773.0" style="stroke:#040104; fill:none;"/>
	<path d="M 320.0,773.0 L 323.0,772.0" style="stroke:#040104; fill:none;"/>
	<path d="M 327.0,772.0 L 330.0,772.0" style="stroke:#040104; fill:none;"/>
	<path d="M 301.0,773.0 L 302.0,773.0" style="stroke:#040104; fill:none;"/>
	<path d="M 295.0,777.0 L 298.0,775.0" style="stroke:#040104; fill:none;"/>
	<path d="M 315.0,775.0 L 317.0,775.0" style="stroke:#040104; fill:none;"/>
	<path d="M 368.0,775.0 L 371.0,779.0" style="stroke:#040104; fill:none;"/>
	<path d="M 532.0,775.0 L 533.0,775.0" style="stroke:#040104; fill:none;"/>
	<path d="M 252.0,777.0 L 251.0,779.0" style="stroke:#040104; fill:none;"/>
	<path d="M 311.0,777.0 L 307.0,779.0" style="stroke:#040104; fill:none;"/>
	<path d="M 257.0,778.0 L 259.0,778.0" style="stroke:#040104; fill:none;"/>
	<path d="M 537.0,778.0 L 539.0,780.0" style="stroke:#040104; fill:none;"/>
	<path d="M 310.0,779.0 L 314.0,779.0" style="stroke:#040104; fill:none;"/>
	<path d="M 305.0,780.0 L 300.0,784.0" style="stroke:#040104; fill:none;"/>
	<path d="M 342.0,780.0 L 343.0,780.0" style="stroke:#040104; fill:none;"/>
	<path d="M 309.0,783.0 L 311.0,785.0 L 306.0,789.0" style="stroke:#040104; fill:none;"/>
	<path d="M 320.0,783.0 L 320.0,784.0" style="stroke:#040104; fill:none;"/>
	<path d="M 377.0,784.0 L 377.0,785.0" style="stroke:#040104; fill:none;"/>
	<path d="M 284.0,786.0 L 286.0,785.0" style="stroke:#040104; fill:none;"/>
	<path d="M 868.0,785.0 C 868.0,789.217 870.93,794.095 867.0,796.0" style="stroke:#040104; fill:none;"/>
	<path d="M 238.0,786.0 L 241.0,787.0" style="stroke:#040104; fill:none;"/>
	<path d="M 297.0,786.0 L 296.0,787.0" style="stroke:#040104; fill:none;"/>
	<path d="M 221.0,787.0 L 223.0,789.0" style="stroke:#040104; fill:none;"/>
	<path d="M 319.0,789.0 L 320.0,789.0" style="stroke:#040104; fill:none;"/>
	<path d="M 331.0,792.0 L 334.0,789.0" style="stroke:#040104; fill:none;"/>
	<path d="M 279.0,790.0 L 279.0,791.0" style="stroke:#040104; fill:none;"/>
	<path d="M 221.0,792.0 L 222.0,792.0" style="stroke:#040104; fill:none;"/>
	<path d="M 292.0,792.0 L 285.0,801.0" style="stroke:#040104; fill:none;"/>
	<path d="M 546.0,792.0 L 547.0,796.0" style="stroke:#040104; fill:none;"/>
	<path d="M 867.0,792.0 L 868.0,794.0" style="stroke:#040104; fill:none;"/>
	<path d="M 218.0,793.0 L 218.0,794.0" style="stroke:#040104; fill:none;"/>
	<path d="M 307.0,794.0 L 309.0,794.0" style="stroke:#040104; fill:none;"/>
	<path d="M 328.0,795.0 L 326.0,797.0" style="stroke:#040104; fill:none;"/>
	<path d="M 869.0,797.0 L 867.0,799.0" style="stroke:#040104; fill:none;"/>
	<path d="M 214.0,800.0 L 216.0,802.0" style="stroke:#040104; fill:none;"/>
	<path d="M 869.0,802.0 L 869.0,808.0" style="stroke:#040104; fill:none;"/>
	<path d="M 283.0,804.0 L 279.0,810.0" style="stroke:#040104; fill:none;"/>
	<path d="M 292.0,804.0 L 293.0,804.0" style="stroke:#040104; fill:none;"/>
	<path d="M 213.0,805.0 L 213.0,807.0 L 213.0,805.0" style="stroke:#040104; fill:none;"/>
	<path d="M 321.0,805.0 L 320.0,806.0" style="stroke:#040104; fill:none;"/>
	<path d="M 296.0,808.0 L 298.0,811.0" style="stroke:#040104; fill:none;"/>
	<path d="M 231.0,809.0 L 231.0,810.0" style="stroke:#040104; fill:none;"/>
	<path d="M 664.0,811.0 L 663.0,812.0" style="stroke:#040104; fill:none;"/>
	<path d="M 869.0,811.0 L 868.0,812.0" style="stroke:#040104; fill:none;"/>
	<path d="M 211.0,812.0 L 212.0,812.0" style="stroke:#040104; fill:none;"/>
	<path d="M 279.0,812.0 L 277.0,814.0" style="stroke:#040104; fill:none;"/>
	<path d="M 522.0,812.0 L 523.0,814.0" style="stroke:#040104; fill:none;"/>
	<path d="M 302.0,813.0 L 303.0,814.0" style="stroke:#040104; fill:none;"/>
	<path d="M 308.0,815.0 L 311.0,815.0" style="stroke:#040104; fill:none;"/>
	<path d="M 223.0,815.0 L 222.0,816.0" style="stroke:#040104; fill:none;"/>
	<path d="M 225.0,815.0 L 226.0,816.0" style="stroke:#040104; fill:none;"/>
	<path d="M 503.0,830.0 L 513.0,815.0" style="stroke:#040104; fill:none;"/>
	<path d="M 660.0,816.0 L 661.0,816.0" style="stroke:#040104; fill:none;"/>
	<path d="M 524.0,817.0 L 525.0,817.0" style="stroke:#040104; fill:none;"/>
	<path d="M 869.0,817.0 L 868.0,827.0" style="stroke:#040104; fill:none;"/>
	<path d="M 209.0,818.0 L 209.0,819.0" style="stroke:#040104; fill:none;"/>
	<path d="M 657.0,819.0 L 658.0,819.0" style="stroke:#040104; fill:none;"/>
	<path d="M 277.0,820.0 L 275.0,825.0" style="stroke:#040104; fill:none;"/>
	<path d="M 523.0,821.0 L 522.0,823.0" style="stroke:#040104; fill:none;"/>
	<path d="M 655.0,822.0 L 653.0,826.0" style="stroke:#040104; fill:none;"/>
	<path d="M 264.0,825.0 L 264.0,826.0" style="stroke:#040104; fill:none;"/>
	<path d="M 215.0,826.0 L 217.0,827.0" style="stroke:#040104; fill:none;"/>
	<path d="M 222.0,828.0 L 221.0,829.0" style="stroke:#040104; fill:none;"/>
	<path d="M 276.0,830.0 L 277.0,830.0" style="stroke:#040104; fill:none;"/>
	<path d="M 264.0,831.0 L 266.0,837.0" style="stroke:#040104; fill:none;"/>
	<path d="M 649.0,832.0 L 647.0,835.0" style="stroke:#040104; fill:none;"/>
	<path d="M 276.0,833.0 L 279.0,852.0" style="stroke:#040104; fill:none;"/>
	<path d="M 869.0,836.0 L 871.0,836.0" style="stroke:#040104; fill:none;"/>
	<path d="M 644.0,839.0 L 641.0,844.0" style="stroke:#040104; fill:none;"/>
	<path d="M 286.0,841.0 L 284.0,843.0" style="stroke:#040104; fill:none;"/>
	<path d="M 502.0,846.0 L 502.0,847.0" style="stroke:#040104; fill:none;"/>
	<path d="M 501.0,849.0 L 502.0,850.0" style="stroke:#040104; fill:none;"/>
	<path d="M 842.0,851.0 L 842.0,852.0" style="stroke:#040104; fill:none;"/>
	<path d="M 628.0,854.0 L 625.0,857.0" style="stroke:#040104; fill:none;"/>
	<path d="M 872.0,859.0 L 871.0,861.0" style="stroke:#040104; fill:none;"/>
	<path d="M 619.0,861.0 L 620.0,861.0" style="stroke:#040104; fill:none;"/>
	<path d="M 616.0,864.0 L 612.0,868.0" style="stroke:#040104; fill:none;"/>
	<path d="M 629.0,867.0 L 629.0,871.0" style="stroke:#040104; fill:none;"/>
	<path d="M 870.0,869.0 L 872.0,872.0" style="stroke:#040104; fill:none;"/>
	<path d="M 431.0,870.0 L 431.0,871.0" style="stroke:#040104; fill:none;"/>
	<path d="M 871.0,874.0 L 872.0,876.0" style="stroke:#040104; fill:none;"/>
	<path d="M 605.0,875.0 L 605.0,877.0" style="stroke:#040104; fill:none;"/>
	<path d="M 627.0,875.0 L 626.0,877.0" style="stroke:#040104; fill:none;"/>
	<path d="M 616.0,878.0 L 619.0,881.0" style="stroke:#040104; fill:none;"/>
	<path d="M 434.0,880.0 L 436.0,881.0" style="stroke:#040104; fill:none;"/>
	<path d="M 602.0,880.0 L 601.0,881.0" style="stroke:#040104; fill:none;"/>
	<path d="M 470.0,882.0 L 473.0,882.0" style="stroke:#040104; fill:none;"/>
	<path d="M 871.0,881.0 L 871.0,884.0" style="stroke:#040104; fill:none;"/>
	<path d="M 623.0,885.0 L 623.0,886.0" style="stroke:#040104; fill:none;"/>
	<path d="M 439.0,887.0 L 440.0,887.0" style="stroke:#040104; fill:none;"/>
	<path d="M 871.0,890.0 L 872.0,890.0" style="stroke:#040104; fill:none;"/>
	<path d="M 447.0,891.0 L 456.0,892.0" style="stroke:#040104; fill:none;"/>
	<path d="M 459.0,892.0 L 460.0,892.0" style="stroke:#040104; fill:none;"/>
	<path d="M 619.0,892.0 L 620.0,892.0" style="stroke:#040104; fill:none;"/>
	<path d="M 591.0,894.0 L 592.0,894.0" style="stroke:#040104; fill:none;"/>
	<path d="M 871.0,894.0 L 871.0,895.0" style="stroke:#040104; fill:none;"/>
	<path d="M 617.0,897.0 L 619.0,895.0" style="stroke:#040104; fill:none;"/>
	<path d="M 870.0,898.0 L 871.0,898.0" style="stroke:#040104; fill:none;"/>
	<path d="M 870.0,900.0 L 870.0,901.0" style="stroke:#040104; fill:none;"/>
	<path d="M 585.0,902.0 L 584.0,903.0" style="stroke:#040104; fill:none;"/>
	<path d="M 873.0,912.0 L 872.0,914.0" style="stroke:#040104; fill:none;"/>
	<path d="M 600.0,921.0 L 601.0,921.0" style="stroke:#040104; fill:none;"/>
	<path d="M 566.0,922.0 L 565.0,923.0" style="stroke:#040104; fill:none;"/>
	<path d="M 597.0,923.0 L 591.0,928.0" style="stroke:#040104; fill:none;"/>
	<path d="M 873.0,927.0 L 875.0,930.0" style="stroke:#040104; fill:none;"/>
	<path d="M 585.0,932.0 L 588.0,930.0" style="stroke:#040104; fill:none;"/>
	<path d="M 580.0,935.0 L 582.0,934.0" style="stroke:#040104; fill:none;"/>
	<path d="M 874.0,934.0 L 875.0,935.0" style="stroke:#040104; fill:none;"/>
	<path d="M 335.0,935.0 L 336.0,937.0" style="stroke:#040104; fill:none;"/>
	<path d="M 569.0,940.0 L 575.0,937.0" style="stroke:#040104; fill:none;"/>
	<path d="M 338.0,938.0 C 351.506,949.823 368.593,957.178 385.0,964.0" style="stroke:#040104; fill:none;"/>
	<path d="M 874.0,940.0 L 877.0,941.0" style="stroke:#040104; fill:none;"/>
	<path d="M 564.0,942.0 L 563.0,943.0" style="stroke:#040104; fill:none;"/>
	<path d="M 557.0,945.0 L 553.0,947.0" style="stroke:#040104; fill:none;"/>
	<path d="M 875.0,946.0 L 875.0,947.0" style="stroke:#040104; fill:none;"/>
	<path d="M 547.0,947.0 L 542.0,949.0" style="stroke:#040104; fill:none;"/>
	<path d="M 876.0,953.0 L 876.0,954.0" style="stroke:#040104; fill:none;"/>
	<path d="M 878.0,956.0 L 879.0,957.0" style="stroke:#040104; fill:none;"/>
	<path d="M 878.0,963.0 L 880.0,965.0" style="stroke:#040104; fill:none;"/>
	<path d="M 389.0,966.0 L 404.0,972.0" style="stroke:#040104; fill:none;"/>
	<path d="M 793.0,969.0 L 794.0,969.0" style="stroke:#040104; fill:none;"/>
	<path d="M 878.0,973.0 L 879.0,975.0" style="stroke:#040104; fill:none;"/>
	<path d="M 407.0,974.0 L 432.0,985.0" style="stroke:#040104; fill:none;"/>
	<path d="M 786.0,979.0 L 786.0,981.0" style="stroke:#040104; fill:none;"/>
	<path d="M 440.0,989.0 L 441.0,990.0" style="stroke:#040104; fill:none;"/>
	<path d="M 780.0,989.0 L 769.0,1003.0" style="stroke:#040104; fill:none;"/>
	<path d="M 447.0,991.0 L 452.0,992.0" style="stroke:#040104; fill:none;"/>
	<path d="M 454.0,995.0 L 468.0,1000.0" style="stroke:#040104; fill:none;"/>
	<path d="M 471.0,1000.0 L 480.0,1004.0" style="stroke:#040104; fill:none;"/>
	<path d="M 482.0,1003.0 L 498.0,1010.0" style="stroke:#040104; fill:none;"/>
	<path d="M 766.0,1006.0 L 765.0,1010.0" style="stroke:#040104; fill:none;"/>
	<path d="M 761.0,1009.0 L 762.0,1012.0" style="stroke:#040104; fill:none;"/>
	<path d="M 501.0,1011.0 L 500.0,1012.0" style="stroke:#040104; fill:none;"/>
	<path d="M 509.0,1015.0 L 513.0,1016.0" style="stroke:#040104; fill:none;"/>
	<path d="M 518.0,1017.0 L 529.0,1021.0" style="stroke:#040104; fill:none;"/>
	<path d="M 755.0,1018.0 L 757.0,1017.0" style="stroke:#040104; fill:none;"/>
	<path d="M 752.0,1021.0 C 744.35,1028.65 736.041,1037.59 726.0,1042.0" style="stroke:#040104; fill:none;"/>
	<path d="M 531.0,1022.0 L 569.0,1029.0" style="stroke:#040104; fill:none;"/>
	<path d="M 757.0,1028.0 L 757.0,1029.0" style="stroke:#040104; fill:none;"/>
	<path d="M 759.0,1029.0 L 762.0,1031.0" style="stroke:#040104; fill:none;"/>
	<path d="M 572.0,1030.0 L 594.0,1036.0" style="stroke:#040104; fill:none;"/>
	<path d="M 769.0,1034.0 L 771.0,1035.0" style="stroke:#040104; fill:none;"/>
	<path d="M 598.0,1036.0 L 608.0,1039.0" style="stroke:#040104; fill:none;"/>
	<path d="M 780.0,1038.0 L 780.0,1040.0" style="stroke:#040104; fill:none;"/>
	<path d="M 611.0,1040.0 L 645.0,1049.0" style="stroke:#040104; fill:none;"/>
	<path d="M 786.0,1040.0 L 786.0,1042.0 L 786.0,1040.0" style="stroke:#040104; fill:none;"/>
	<path d="M 719.0,1046.0 L 722.0,1046.0" style="stroke:#040104; fill:none;"/>
	<path d="M 796.0,1046.0 L 797.0,1046.0" style="stroke:#040104; fill:none;"/>
	<path d="M 648.0,1050.0 L 650.0,1051.0" style="stroke:#040104; fill:none;"/>
	<path d="M 713.0,1049.0 L 715.0,1049.0" style="stroke:#040104; fill:none;"/>
	<path d="M 805.0,1049.0 L 804.0,1051.0" style="stroke:#040104; fill:none;"/>
	<path d="M 655.0,1051.0 L 655.0,1052.0" style="stroke:#040104; fill:none;"/>
	<path d="M 657.0,1053.0 L 661.0,1053.0" style="stroke:#040104; fill:none;"/>
	<path d="M 672.0,1055.0 L 671.0,1056.0" style="stroke:#040104; fill:none;"/>
	<path d="M 679.0,1057.0 L 682.0,1057.0" style="stroke:#040104; fill:none;"/>
	<path d="M 688.0,1057.0 L 689.0,1057.0" style="stroke:#040104; fill:none;"/>
</svg>
