<?xml version="1.0" ?>
<svg baseProfile="full" height="3384" version="1.1" width="2210" xmlns="http://www.w3.org/2000/svg" xmlns:ev="http://www.w3.org/2001/xml-events" xmlns:xlink="http://www.w3.org/1999/xlink">
	<defs/>
	<path d="M 1294.0,737.0 C 1295.33,753.863 1300.64,780.729 1285.0,793.0" style="stroke:#010101; fill:none;"/>
	<path d="M 1284.0,746.0 L 1284.0,747.0" style="stroke:#010101; fill:none;"/>
	<path d="M 1284.0,750.0 L 1284.0,755.0" style="stroke:#010101; fill:none;"/>
	<path d="M 1283.0,757.0 L 1283.0,759.0" style="stroke:#010101; fill:none;"/>
	<path d="M 1342.0,758.0 L 1341.0,763.0" style="stroke:#010101; fill:none;"/>
	<path d="M 1362.0,758.0 L 1366.0,772.0" style="stroke:#010101; fill:none;"/>
	<path d="M 1336.0,760.0 L 1337.0,762.0" style="stroke:#010101; fill:none;"/>
	<path d="M 1282.0,761.0 C 1279.5,772.649 1272.69,781.38 1263.0,788.0" style="stroke:#010101; fill:none;"/>
	<path d="M 1351.0,762.0 L 1355.0,768.0 L 1357.0,763.0" style="stroke:#010101; fill:none;"/>
	<path d="M 1370.0,763.0 L 1381.0,785.0" style="stroke:#010101; fill:none;"/>
	<path d="M 1235.0,764.0 L 1225.0,792.0" style="stroke:#010101; fill:none;"/>
	<path d="M 1336.0,764.0 L 1334.0,777.0" style="stroke:#010101; fill:none;"/>
	<path d="M 1443.0,766.0 L 1443.0,792.0" style="stroke:#010101; fill:none;"/>
	<path d="M 1449.0,768.0 L 1451.0,781.0" style="stroke:#010101; fill:none;"/>
	<path d="M 1319.0,773.0 L 1316.0,789.0" style="stroke:#010101; fill:none;"/>
	<path d="M 1438.0,774.0 L 1437.0,783.0" style="stroke:#010101; fill:none;"/>
	<path d="M 1484.0,781.0 C 1499.62,799.315 1513.85,815.291 1534.0,829.0" style="stroke:#010101; fill:none;"/>
	<path d="M 1510.0,783.0 L 1564.0,816.0" style="stroke:#010101; fill:none;"/>
	<path d="M 1545.0,783.0 L 1546.0,783.0" style="stroke:#010101; fill:none;"/>
	<path d="M 1612.0,783.0 L 1568.0,796.0" style="stroke:#010101; fill:none;"/>
	<path d="M 1548.0,784.0 L 1550.0,784.0" style="stroke:#010101; fill:none;"/>
	<path d="M 1556.0,785.0 L 1558.0,785.0" style="stroke:#010101; fill:none;"/>
	<path d="M 1562.0,785.0 L 1560.0,786.0" style="stroke:#010101; fill:none;"/>
	<path d="M 1572.0,785.0 L 1573.0,785.0" style="stroke:#010101; fill:none;"/>
	<path d="M 1437.0,786.0 L 1434.0,795.0" style="stroke:#010101; fill:none;"/>
	<path d="M 1485.0,788.0 C 1495.83,811.796 1515.82,830.825 1534.0,849.0" style="stroke:#010101; fill:none;"/>
	<path d="M 1402.0,792.0 L 1401.0,793.0" style="stroke:#010101; fill:none;"/>
	<path d="M 1393.0,793.0 L 1397.0,813.0" style="stroke:#010101; fill:none;"/>
	<path d="M 1433.0,797.0 L 1431.0,801.0" style="stroke:#010101; fill:none;"/>
	<path d="M 1396.0,815.0 L 1397.0,816.0" style="stroke:#010101; fill:none;"/>
	<path d="M 1703.0,819.0 L 1708.0,833.0" style="stroke:#010101; fill:none;"/>
	<path d="M 1720.0,827.0 L 1722.0,842.0" style="stroke:#010101; fill:none;"/>
	<path d="M 1038.0,842.0 L 1040.0,841.0" style="stroke:#010101; fill:none;"/>
	<path d="M 920.0,860.0 L 925.0,860.0" style="stroke:#010101; fill:none;"/>
	<path d="M 894.0,861.0 C 860.007,887.978 819.075,920.855 800.0,961.0" style="stroke:#010101; fill:none;"/>
	<path d="M 906.0,861.0 L 918.0,861.0" style="stroke:#010101; fill:none;"/>
	<path d="M 912.0,862.0 C 900.462,873.034 886.455,881.792 874.0,891.804 C 846.512,913.901 819.894,937.878 801.0,968.0" style="stroke:#010101; fill:none;"/>
	<path d="M 921.0,921.0 C 971.336,917.025 1010.62,888.169 1055.0,868.0" style="stroke:#010101; fill:none;"/>
	<path d="M 852.0,880.0 L 823.0,905.0" style="stroke:#010101; fill:none;"/>
	<path d="M 1811.0,913.0 C 1818.09,927.982 1826.26,964.605 1802.0,969.0" style="stroke:#010101; fill:none;"/>
	<path d="M 696.0,924.0 C 681.166,938.958 670.58,959.462 663.0,979.0" style="stroke:#010101; fill:none;"/>
	<path d="M 1823.0,924.0 C 1823.0,937.35 1825.4,950.884 1821.84,964.0 C 1820.1,970.415 1816.38,977.268 1809.0,977.0" style="stroke:#010101; fill:none;"/>
	<path d="M 687.0,957.0 C 675.429,966.852 666.938,983.154 661.0,997.0" style="stroke:#010101; fill:none;"/>
	<path d="M 696.0,960.0 C 684.309,977.186 672.058,993.645 664.0,1013.0" style="stroke:#010101; fill:none;"/>
	<path d="M 708.0,962.0 L 663.0,1032.0" style="stroke:#010101; fill:none;"/>
	<path d="M 1012.0,998.0 L 1098.0,988.0" style="stroke:#010101; fill:none;"/>
	<path d="M 1113.0,990.0 L 1234.0,1013.0" style="stroke:#010101; fill:none;"/>
	<path d="M 703.0,993.0 C 680.386,1031.71 652.471,1067.24 623.0,1101.0" style="stroke:#010101; fill:none;"/>
	<path d="M 1835.0,1015.0 L 1825.0,1029.0" style="stroke:#010101; fill:none;"/>
	<path d="M 1871.0,1030.0 C 1871.0,1050.79 1867.58,1079.39 1851.0,1094.0" style="stroke:#010101; fill:none;"/>
	<path d="M 692.0,1032.0 L 660.0,1072.0" style="stroke:#010101; fill:none;"/>
	<path d="M 702.0,1041.0 L 679.0,1064.0" style="stroke:#010101; fill:none;"/>
	<path d="M 1881.0,1048.0 C 1882.68,1058.89 1881.49,1070.87 1877.0,1081.0" style="stroke:#010101; fill:none;"/>
	<path d="M 1401.0,1050.0 C 1447.49,1059.6 1494.42,1067.16 1541.0,1076.55 C 1562.13,1080.81 1586.16,1084.46 1606.0,1093.0" style="stroke:#010101; fill:none;"/>
	<path d="M 692.0,1059.0 L 689.0,1067.0" style="stroke:#010101; fill:none;"/>
	<path d="M 1942.0,1067.0 L 1944.0,1078.0" style="stroke:#010101; fill:none;"/>
	<path d="M 697.0,1072.0 C 701.208,1072.54 698.975,1076.94 698.0,1080.0" style="stroke:#010101; fill:none;"/>
	<path d="M 696.0,1083.0 L 696.0,1084.0" style="stroke:#010101; fill:none;"/>
	<path d="M 1872.0,1083.0 L 1876.0,1083.0" style="stroke:#010101; fill:none;"/>
	<path d="M 931.0,1102.0 L 1003.0,1091.0" style="stroke:#010101; fill:none;"/>
	<path d="M 1006.0,1092.0 L 1058.0,1095.04 L 1144.0,1101.16 L 1244.0,1119.88 L 1284.0,1130.73 L 1344.0,1136.91 L 1374.0,1140.0" style="stroke:#010101; fill:none;"/>
	<path d="M 682.0,1128.0 L 674.0,1138.0" style="stroke:#010101; fill:none;"/>
	<path d="M 1946.0,1128.0 L 1939.0,1146.0" style="stroke:#010101; fill:none;"/>
	<path d="M 1975.0,1145.0 L 1976.0,1141.0 L 1979.0,1145.0" style="stroke:#010101; fill:none;"/>
	<path d="M 1403.0,1145.0 L 1472.0,1152.0" style="stroke:#010101; fill:none;"/>
	<path d="M 1522.0,1161.0 C 1550.85,1165.26 1580.14,1185.97 1607.0,1197.0" style="stroke:#010101; fill:none;"/>
	<path d="M 669.0,1163.0 L 669.0,1165.0" style="stroke:#010101; fill:none;"/>
	<path d="M 978.0,1169.0 L 1037.0,1176.0" style="stroke:#010101; fill:none;"/>
	<path d="M 1073.0,1183.0 C 1116.11,1184.85 1157.92,1188.15 1198.0,1206.0" style="stroke:#010101; fill:none;"/>
	<path d="M 647.0,1216.0 C 652.187,1206.15 658.3,1193.08 667.0,1186.0" style="stroke:#010101; fill:none;"/>
	<path d="M 1973.0,1196.0 C 1985.38,1239.94 1995.0,1286.24 1995.0,1332.0" style="stroke:#010101; fill:none;"/>
	<path d="M 540.0,1985.0 L 540.0,1991.0 L 536.0,1989.0 C 544.019,1975.32 538.075,1952.31 538.001,1937.0 C 537.853,1906.42 540.911,1875.41 544.166,1845.0 C 545.475,1832.77 550.726,1813.92 547.681,1802.02 C 545.913,1795.1 532.551,1791.73 527.004,1788.19 C 517.277,1781.98 508.905,1770.77 504.946,1760.0 C 497.409,1739.49 495.727,1717.35 487.935,1697.0 C 482.092,1681.74 470.716,1669.23 464.811,1654.0 C 456.945,1633.71 457.682,1613.71 453.181,1593.0 C 449.367,1575.46 441.911,1559.15 440.17,1541.0 C 435.496,1492.28 445.763,1442.57 449.09,1394.0 C 451.062,1365.2 455.0,1336.97 455.0,1308.0 C 455.0,1287.2 451.438,1263.04 461.363,1244.0 C 465.442,1236.18 471.759,1229.18 478.004,1223.01 C 487.399,1213.74 499.124,1202.46 513.0,1201.33 C 522.345,1200.57 532.536,1207.87 540.0,1212.66 C 551.164,1219.83 563.967,1226.44 571.276,1238.0 C 576.703,1246.58 579.845,1259.31 583.0,1269.0" style="stroke:#010101; fill:none;"/>
	<path d="M 661.0,1210.0 L 645.0,1228.0" style="stroke:#010101; fill:none;"/>
	<path d="M 657.0,1228.0 L 655.0,1232.0" style="stroke:#010101; fill:none;"/>
	<path d="M 1327.0,1232.0 C 1336.97,1232.43 1347.0,1234.96 1357.0,1234.71 C 1398.62,1233.68 1441.58,1228.8 1483.0,1236.61 C 1497.78,1239.4 1510.21,1246.55 1524.0,1252.14 C 1540.49,1258.81 1557.51,1264.23 1574.0,1271.0" style="stroke:#010101; fill:none;"/>
	<path d="M 1367.0,1234.0 L 1370.0,1236.0" style="stroke:#010101; fill:none;"/>
	<path d="M 481.0,1252.0 C 485.555,1244.8 492.617,1232.34 502.0,1239.0 L 487.0,1251.95 L 480.0,1257.0 L 483.0,1256.0" style="stroke:#010101; fill:none;"/>
	<path d="M 502.0,1239.0 C 515.322,1245.21 520.661,1263.42 525.861,1276.0 C 536.471,1301.67 540.886,1326.3 547.475,1353.0 C 550.518,1365.33 555.881,1377.53 558.0,1390.0" style="stroke:#010101; fill:none;"/>
	<path d="M 1702.0,1240.0 C 1734.39,1258.03 1764.78,1280.93 1792.0,1306.0" style="stroke:#010101; fill:none;"/>
	<path d="M 1973.0,1244.0 C 1977.55,1279.82 1989.98,1314.55 1990.0,1351.0" style="stroke:#010101; fill:none;"/>
	<path d="M 654.0,1247.0 L 639.0,1268.0" style="stroke:#010101; fill:none;"/>
	<path d="M 480.0,1268.0 L 502.0,1248.0" style="stroke:#010101; fill:none;"/>
	<path d="M 483.0,1253.0 L 484.0,1254.0" style="stroke:#010101; fill:none;"/>
	<path d="M 498.0,1256.0 C 483.919,1268.97 466.878,1280.97 477.0,1302.0 L 496.0,1274.0" style="stroke:#010101; fill:none;"/>
	<path d="M 479.0,1257.0 L 474.0,1276.0" style="stroke:#010101; fill:none;"/>
	<path d="M 501.0,1259.0 L 475.0,1285.0" style="stroke:#010101; fill:none;"/>
	<path d="M 829.0,1275.0 L 868.0,1263.0" style="stroke:#010101; fill:none;"/>
	<path d="M 923.0,1321.0 L 888.714,1301.43 L 852.0,1284.0 L 861.0,1279.0 L 858.0,1275.0 L 892.0,1265.0" style="stroke:#010101; fill:none;"/>
	<path d="M 877.0,1276.0 L 884.0,1272.14 L 911.0,1269.0" style="stroke:#010101; fill:none;"/>
	<path d="M 636.0,1271.0 L 636.0,1272.0" style="stroke:#010101; fill:none;"/>
	<path d="M 893.0,1278.0 L 900.0,1282.0 C 894.757,1283.75 889.272,1279.03 886.0,1275.0 L 901.0,1271.0" style="stroke:#010101; fill:none;"/>
	<path d="M 897.0,1278.0 L 933.0,1272.0" style="stroke:#010101; fill:none;"/>
	<path d="M 851.0,1274.0 L 849.0,1277.0" style="stroke:#010101; fill:none;"/>
	<path d="M 653.0,1275.0 L 635.0,1295.0" style="stroke:#010101; fill:none;"/>
	<path d="M 852.0,1275.0 L 858.0,1275.0" style="stroke:#010101; fill:none;"/>
	<path d="M 891.0,1300.0 L 899.0,1298.0 L 867.0,1279.0 L 875.0,1277.0" style="stroke:#010101; fill:none;"/>
	<path d="M 878.0,1277.0 L 885.0,1275.0" style="stroke:#010101; fill:none;"/>
	<path d="M 937.0,1277.0 L 940.0,1276.0" style="stroke:#010101; fill:none;"/>
	<path d="M 832.0,1277.0 L 838.0,1280.0 L 819.0,1283.0 L 849.0,1296.01 L 909.0,1324.0" style="stroke:#010101; fill:none;"/>
	<path d="M 887.0,1277.0 L 873.0,1281.0" style="stroke:#010101; fill:none;"/>
	<path d="M 1968.0,1277.0 C 1964.48,1304.82 1976.82,1332.44 1979.0,1360.0" style="stroke:#010101; fill:none;"/>
	<path d="M 901.0,1282.0 L 935.0,1278.0" style="stroke:#010101; fill:none;"/>
	<path d="M 861.0,1279.0 L 867.0,1279.0" style="stroke:#010101; fill:none;"/>
	<path d="M 838.0,1280.0 L 852.0,1284.0" style="stroke:#010101; fill:none;"/>
	<path d="M 1581.0,1281.0 C 1604.54,1294.1 1632.56,1302.54 1659.0,1308.0" style="stroke:#010101; fill:none;"/>
	<path d="M 583.0,1282.0 L 582.0,1284.0" style="stroke:#010101; fill:none;"/>
	<path d="M 815.0,1283.0 L 819.0,1283.0" style="stroke:#010101; fill:none;"/>
	<path d="M 894.0,1283.0 L 883.0,1286.0" style="stroke:#010101; fill:none;"/>
	<path d="M 987.0,1334.0 C 965.711,1324.87 939.687,1313.04 922.0,1298.0 C 929.654,1294.54 941.788,1304.49 949.0,1307.84 C 969.864,1317.53 990.837,1326.84 1012.0,1335.85 C 1019.02,1338.84 1029.44,1345.92 1037.0,1343.0 C 1016.1,1331.86 993.645,1322.5 972.0,1312.86 C 962.357,1308.57 947.942,1304.1 941.0,1296.0 L 946.0,1294.0 L 929.0,1285.0 L 946.0,1283.0" style="stroke:#010101; fill:none;"/>
	<path d="M 898.0,1284.0 C 908.266,1291.17 920.977,1294.42 933.0,1288.0" style="stroke:#010101; fill:none;"/>
	<path d="M 913.0,1290.0 C 911.106,1283.52 923.75,1284.08 928.0,1285.0" style="stroke:#010101; fill:none;"/>
	<path d="M 899.0,1285.0 L 888.0,1288.0" style="stroke:#010101; fill:none;"/>
	<path d="M 905.0,1285.0 L 906.0,1286.0" style="stroke:#010101; fill:none;"/>
	<path d="M 906.0,1286.0 L 911.0,1288.0" style="stroke:#010101; fill:none;"/>
	<path d="M 941.0,1290.0 L 961.0,1286.0" style="stroke:#010101; fill:none;"/>
	<path d="M 779.0,1289.0 L 820.0,1286.0" style="stroke:#010101; fill:none;"/>
	<path d="M 906.0,1290.0 L 897.0,1293.0" style="stroke:#010101; fill:none;"/>
	<path d="M 801.0,1291.0 L 853.0,1307.91 L 895.0,1323.0" style="stroke:#010101; fill:none;"/>
	<path d="M 912.0,1292.0 L 922.0,1298.0" style="stroke:#010101; fill:none;"/>
	<path d="M 1015.0,1292.0 L 1036.0,1308.36 L 1061.99,1314.06 L 1082.0,1331.0" style="stroke:#010101; fill:none;"/>
	<path d="M 1293.0,1292.0 L 1281.0,1381.0" style="stroke:#010101; fill:none;"/>
	<path d="M 920.0,1293.0 L 924.0,1296.0" style="stroke:#010101; fill:none;"/>
	<path d="M 1061.0,1353.0 C 1028.13,1328.63 988.87,1316.55 954.0,1296.0 C 960.358,1293.85 970.385,1292.34 977.0,1294.05 C 987.965,1296.87 992.385,1304.74 1005.0,1301.0 C 998.133,1292.93 990.495,1293.84 981.0,1293.0" style="stroke:#010101; fill:none;"/>
	<path d="M 759.0,1294.0 C 770.93,1296.22 783.097,1295.27 795.0,1297.46 C 822.835,1302.61 857.011,1312.69 882.0,1326.0" style="stroke:#010101; fill:none;"/>
	<path d="M 885.0,1294.0 L 888.0,1293.0" style="stroke:#010101; fill:none;"/>
	<path d="M 946.0,1294.0 L 953.0,1295.0" style="stroke:#010101; fill:none;"/>
	<path d="M 580.0,1295.0 L 582.0,1303.0" style="stroke:#010101; fill:none;"/>
	<path d="M 647.0,1295.0 L 646.0,1296.0" style="stroke:#010101; fill:none;"/>
	<path d="M 916.0,1296.0 C 910.748,1298.86 905.688,1300.19 900.0,1298.0" style="stroke:#010101; fill:none;"/>
	<path d="M 932.0,1296.0 L 941.0,1296.0" style="stroke:#010101; fill:none;"/>
	<path d="M 905.0,1299.0 L 907.0,1298.0" style="stroke:#010101; fill:none;"/>
	<path d="M 907.0,1301.0 C 919.63,1310.02 937.281,1321.16 952.0,1326.0" style="stroke:#010101; fill:none;"/>
	<path d="M 970.0,1303.0 L 987.0,1301.0" style="stroke:#010101; fill:none;"/>
	<path d="M 1005.0,1301.0 C 1014.45,1303.06 1021.75,1310.66 1032.0,1306.0" style="stroke:#010101; fill:none;"/>
	<path d="M 1013.0,1303.0 L 1015.0,1302.0" style="stroke:#010101; fill:none;"/>
	<path d="M 476.0,1303.0 L 477.0,1311.0 L 484.0,1303.0" style="stroke:#010101; fill:none;"/>
	<path d="M 774.0,1307.0 L 769.0,1304.0 L 799.0,1308.58 L 875.0,1331.0" style="stroke:#010101; fill:none;"/>
	<path d="M 995.0,1304.0 L 1078.0,1359.0" style="stroke:#010101; fill:none;"/>
	<path d="M 1013.0,1304.0 L 1002.0,1305.0" style="stroke:#010101; fill:none;"/>
	<path d="M 1961.0,1304.0 C 1958.02,1314.36 1963.36,1328.82 1966.0,1339.0" style="stroke:#010101; fill:none;"/>
	<path d="M 761.0,1309.0 C 787.826,1309.55 815.256,1319.46 840.0,1329.0" style="stroke:#010101; fill:none;"/>
	<path d="M 1020.0,1309.0 C 1045.65,1328.71 1076.5,1344.75 1097.0,1370.0" style="stroke:#010101; fill:none;"/>
	<path d="M 1661.0,1309.0 L 1757.0,1339.0" style="stroke:#010101; fill:none;"/>
	<path d="M 477.0,1311.0 C 477.0,1334.08 483.779,1359.04 479.671,1382.0 C 478.224,1390.09 472.357,1398.23 469.425,1406.0 C 463.919,1420.6 459.783,1435.77 456.424,1451.0 C 445.854,1498.93 457.42,1559.73 482.0,1602.0" style="stroke:#010101; fill:none;"/>
	<path d="M 489.0,1311.0 L 480.0,1334.0" style="stroke:#010101; fill:none;"/>
	<path d="M 1038.0,1311.0 C 1050.42,1323.32 1073.29,1336.6 1080.0,1353.0" style="stroke:#010101; fill:none;"/>
	<path d="M 1049.0,1312.0 L 1104.0,1368.0" style="stroke:#010101; fill:none;"/>
	<path d="M 1217.0,1314.0 C 1212.66,1329.18 1200.87,1344.21 1188.0,1353.0" style="stroke:#010101; fill:none;"/>
	<path d="M 640.0,1315.0 L 640.0,1316.0" style="stroke:#010101; fill:none;"/>
	<path d="M 737.0,1316.0 L 783.0,1323.0" style="stroke:#010101; fill:none;"/>
	<path d="M 1049.0,1320.0 L 1055.0,1319.0" style="stroke:#010101; fill:none;"/>
	<path d="M 1062.0,1322.0 L 1068.0,1321.0" style="stroke:#010101; fill:none;"/>
	<path d="M 1076.0,1324.0 L 1114.0,1332.0" style="stroke:#010101; fill:none;"/>
	<path d="M 489.0,1325.0 L 482.0,1352.0" style="stroke:#010101; fill:none;"/>
	<path d="M 1091.0,1325.0 L 1092.0,1325.0" style="stroke:#010101; fill:none;"/>
	<path d="M 1089.0,1328.0 L 1122.0,1359.0" style="stroke:#010101; fill:none;"/>
	<path d="M 638.0,1329.0 L 636.0,1331.0" style="stroke:#010101; fill:none;"/>
	<path d="M 479.0,1331.0 L 481.0,1331.0" style="stroke:#010101; fill:none;"/>
	<path d="M 1084.0,1332.0 L 1127.0,1372.0" style="stroke:#010101; fill:none;"/>
	<path d="M 1116.0,1333.0 L 1119.0,1334.0" style="stroke:#010101; fill:none;"/>
	<path d="M 1082.0,1334.0 L 1111.0,1367.0" style="stroke:#010101; fill:none;"/>
	<path d="M 1953.0,1342.0 L 1955.0,1334.0" style="stroke:#010101; fill:none;"/>
	<path d="M 990.0,1336.0 L 1003.0,1343.0" style="stroke:#010101; fill:none;"/>
	<path d="M 584.0,1337.0 L 587.0,1341.0" style="stroke:#010101; fill:none;"/>
	<path d="M 1478.0,1337.0 L 1536.0,1348.0" style="stroke:#010101; fill:none;"/>
	<path d="M 1110.0,1339.0 C 1121.0,1345.36 1128.75,1357.55 1137.0,1367.0" style="stroke:#010101; fill:none;"/>
	<path d="M 1967.0,1341.0 L 1967.0,1342.0" style="stroke:#010101; fill:none;"/>
	<path d="M 1038.0,1343.0 L 1045.0,1347.0" style="stroke:#010101; fill:none;"/>
	<path d="M 1953.0,1344.0 L 1953.0,1345.0" style="stroke:#010101; fill:none;"/>
	<path d="M 1769.0,1345.0 L 1795.0,1367.0" style="stroke:#010101; fill:none;"/>
	<path d="M 1037.0,1346.0 L 1041.0,1346.0" style="stroke:#010101; fill:none;"/>
	<path d="M 631.0,1349.0 C 624.5,1355.09 623.248,1366.81 620.089,1375.0 C 611.143,1398.19 603.51,1422.31 595.971,1446.0 C 578.434,1501.12 578.279,1557.98 572.83,1615.0 C 569.234,1652.63 561.207,1689.55 556.282,1727.0 C 553.239,1750.14 554.658,1776.69 548.0,1799.0" style="stroke:#010101; fill:none;"/>
	<path d="M 1126.0,1349.0 L 1142.0,1368.0" style="stroke:#010101; fill:none;"/>
	<path d="M 1932.0,1351.0 C 1927.86,1365.0 1935.15,1386.3 1939.0,1400.0" style="stroke:#010101; fill:none;"/>
	<path d="M 1139.0,1352.0 L 1145.0,1365.0" style="stroke:#010101; fill:none;"/>
	<path d="M 1080.0,1354.0 L 1081.0,1355.0" style="stroke:#010101; fill:none;"/>
	<path d="M 586.0,1355.0 L 591.0,1363.0" style="stroke:#010101; fill:none;"/>
	<path d="M 622.0,1356.0 L 626.0,1355.0" style="stroke:#010101; fill:none;"/>
	<path d="M 1944.0,1356.0 L 1946.12,1370.0 L 1954.0,1414.0" style="stroke:#010101; fill:none;"/>
	<path d="M 1131.0,1356.0 L 1129.0,1358.0" style="stroke:#010101; fill:none;"/>
	<path d="M 1558.0,1358.0 L 1567.0,1359.0" style="stroke:#010101; fill:none;"/>
	<path d="M 1946.0,1358.0 L 1956.0,1388.0" style="stroke:#010101; fill:none;"/>
	<path d="M 600.0,1359.0 C 592.669,1372.79 584.593,1389.73 570.0,1397.0" style="stroke:#010101; fill:none;"/>
	<path d="M 1164.0,1362.0 L 1187.0,1360.0" style="stroke:#010101; fill:none;"/>
	<path d="M 1198.0,1374.0 L 1211.0,1367.0" style="stroke:#010101; fill:none;"/>
	<path d="M 1112.0,1370.0 L 1113.0,1370.0" style="stroke:#010101; fill:none;"/>
	<path d="M 1145.0,1371.0 L 1146.0,1372.0" style="stroke:#010101; fill:none;"/>
	<path d="M 1372.0,1375.0 C 1372.38,1383.6 1375.24,1391.58 1381.0,1398.0" style="stroke:#010101; fill:none;"/>
	<path d="M 786.0,1402.0 C 793.08,1399.76 799.197,1394.89 806.0,1391.86 C 819.539,1385.83 835.46,1380.49 850.0,1377.51 C 869.802,1373.46 894.888,1376.48 915.0,1377.72 C 968.401,1380.99 1036.25,1379.73 1073.0,1426.0" style="stroke:#010101; fill:none;"/>
	<path d="M 1924.0,1382.0 L 1924.0,1400.0" style="stroke:#010101; fill:none;"/>
	<path d="M 588.0,1384.0 C 582.988,1395.92 575.476,1405.29 567.0,1415.0" style="stroke:#010101; fill:none;"/>
	<path d="M 929.0,1384.0 C 946.889,1398.51 972.318,1393.43 992.0,1405.0 L 987.0,1404.0" style="stroke:#010101; fill:none;"/>
	<path d="M 902.0,1385.0 C 909.977,1390.23 927.354,1395.53 936.0,1390.0" style="stroke:#010101; fill:none;"/>
	<path d="M 954.0,1387.0 L 954.0,1393.0" style="stroke:#010101; fill:none;"/>
	<path d="M 893.0,1388.0 L 897.0,1393.0 C 901.117,1392.32 905.46,1392.88 906.0,1388.0" style="stroke:#010101; fill:none;"/>
	<path d="M 864.0,1390.0 C 875.802,1394.79 883.465,1394.0 896.0,1394.0" style="stroke:#010101; fill:none;"/>
	<path d="M 849.0,1392.0 C 855.908,1396.62 864.974,1399.19 872.0,1394.0" style="stroke:#010101; fill:none;"/>
	<path d="M 908.0,1392.0 L 910.0,1391.0" style="stroke:#010101; fill:none;"/>
	<path d="M 1276.0,1392.0 C 1272.73,1404.96 1262.18,1415.86 1254.0,1426.0" style="stroke:#010101; fill:none;"/>
	<path d="M 899.0,1393.0 L 903.0,1394.0" style="stroke:#010101; fill:none;"/>
	<path d="M 903.0,1396.0 L 905.0,1396.0" style="stroke:#010101; fill:none;"/>
	<path d="M 914.0,1397.0 C 907.668,1414.43 904.453,1429.09 919.0,1444.0 C 912.431,1448.15 904.091,1442.47 898.0,1439.0 C 889.147,1433.95 879.142,1429.79 871.0,1423.66 C 864.547,1418.8 859.311,1411.41 852.0,1408.0" style="stroke:#010101; fill:none;"/>
	<path d="M 835.0,1398.0 L 847.0,1402.0 C 839.129,1407.68 828.731,1405.77 820.0,1403.0" style="stroke:#010101; fill:none;"/>
	<path d="M 864.0,1398.0 L 847.0,1402.0" style="stroke:#010101; fill:none;"/>
	<path d="M 1164.0,1400.0 L 1167.0,1398.0" style="stroke:#010101; fill:none;"/>
	<path d="M 1397.0,1410.0 L 1421.0,1406.88 L 1466.0,1400.0" style="stroke:#010101; fill:none;"/>
	<path d="M 1258.0,1402.0 L 1232.0,1429.0" style="stroke:#010101; fill:none;"/>
	<path d="M 588.0,1403.0 L 570.0,1428.0" style="stroke:#010101; fill:none;"/>
	<path d="M 991.0,1404.0 L 990.0,1405.0" style="stroke:#010101; fill:none;"/>
	<path d="M 992.0,1405.0 C 997.647,1406.76 1010.96,1411.04 1014.11,1416.21 C 1023.75,1432.06 999.465,1455.34 986.83,1460.4 C 981.168,1462.66 972.777,1460.12 967.0,1459.27 C 950.076,1456.78 932.402,1455.08 917.0,1447.0" style="stroke:#010101; fill:none;"/>
	<path d="M 1420.0,1407.0 L 1423.0,1405.0" style="stroke:#010101; fill:none;"/>
	<path d="M 1940.0,1405.0 L 1941.0,1409.0" style="stroke:#010101; fill:none;"/>
	<path d="M 1424.0,1407.0 L 1458.0,1407.0" style="stroke:#010101; fill:none;"/>
	<path d="M 527.0,1415.0 L 541.0,1407.0" style="stroke:#010101; fill:none;"/>
	<path d="M 741.0,1407.0 C 740.889,1414.45 750.414,1417.71 756.0,1421.0" style="stroke:#010101; fill:none;"/>
	<path d="M 960.001,1407.89 C 966.32,1406.37 970.492,1417.58 962.956,1419.38 C 954.785,1421.34 951.663,1409.89 960.001,1407.89" style="stroke:#010101; fill:none;"/>
	<path d="M 1485.0,1407.0 C 1511.03,1415.47 1541.79,1415.0 1569.0,1415.0" style="stroke:#010101; fill:none;"/>
	<path d="M 990.0,1408.0 L 991.0,1409.0" style="stroke:#010101; fill:none;"/>
	<path d="M 509.0,1414.0 C 499.955,1425.44 493.51,1439.03 489.424,1453.0 C 487.338,1460.13 487.202,1468.35 484.0,1475.0 C 475.207,1456.75 487.207,1414.77 509.0,1411.0" style="stroke:#010101; fill:none;"/>
	<path d="M 1428.0,1415.0 C 1447.57,1416.54 1467.5,1416.46 1487.0,1414.0" style="stroke:#010101; fill:none;"/>
	<path d="M 587.0,1415.0 C 583.099,1431.42 570.671,1447.32 559.0,1459.0" style="stroke:#010101; fill:none;"/>
	<path d="M 1622.0,1416.0 L 1645.0,1415.0" style="stroke:#010101; fill:none;"/>
	<path d="M 844.0,1420.0 L 841.0,1419.0 L 847.0,1417.0" style="stroke:#010101; fill:none;"/>
	<path d="M 1017.0,1417.0 L 1034.0,1436.0" style="stroke:#010101; fill:none;"/>
	<path d="M 806.0,1424.0 L 841.0,1418.0" style="stroke:#010101; fill:none;"/>
	<path d="M 1021.0,1420.0 L 1025.0,1430.0" style="stroke:#010101; fill:none;"/>
	<path d="M 1440.0,1420.0 C 1455.1,1429.29 1476.3,1425.72 1493.0,1426.13 C 1513.74,1426.64 1534.05,1430.0 1555.0,1430.0" style="stroke:#010101; fill:none;"/>
	<path d="M 1541.0,1420.0 C 1559.48,1422.49 1575.42,1422.35 1594.0,1420.0" style="stroke:#010101; fill:none;"/>
	<path d="M 1468.0,1434.0 C 1513.92,1444.53 1560.03,1432.4 1605.0,1422.0" style="stroke:#010101; fill:none;"/>
	<path d="M 1774.0,1424.0 C 1788.87,1442.32 1803.91,1460.1 1813.43,1482.0 C 1819.53,1496.03 1821.46,1510.63 1826.0,1525.0" style="stroke:#010101; fill:none;"/>
	<path d="M 1029.0,1425.0 C 1054.53,1434.68 1076.38,1466.58 1093.0,1487.0 C 1081.41,1493.59 1056.01,1478.59 1046.0,1472.0 C 1049.98,1467.78 1053.33,1466.72 1059.0,1466.0" style="stroke:#010101; fill:none;"/>
	<path d="M 757.0,1428.0 C 769.818,1429.62 785.177,1432.47 798.0,1430.71 C 806.486,1429.55 818.298,1424.07 826.0,1429.0" style="stroke:#010101; fill:none;"/>
	<path d="M 834.0,1427.0 L 846.0,1426.0" style="stroke:#010101; fill:none;"/>
	<path d="M 1623.0,1426.0 C 1625.9,1430.43 1633.21,1429.31 1638.0,1429.8 C 1648.64,1430.9 1660.29,1432.17 1670.0,1437.0 L 1641.0,1439.41 L 1632.0,1441.0 L 1633.0,1441.0 L 1634.0,1441.0" style="stroke:#010101; fill:none;"/>
	<path d="M 504.0,1427.0 C 497.928,1449.2 486.867,1469.54 485.0,1493.0" style="stroke:#010101; fill:none;"/>
	<path d="M 1598.0,1433.0 L 1602.0,1438.0 L 1622.0,1427.0" style="stroke:#010101; fill:none;"/>
	<path d="M 1628.0,1430.0 L 1607.0,1436.0" style="stroke:#010101; fill:none;"/>
	<path d="M 1338.0,1480.0 C 1343.87,1471.85 1353.61,1466.58 1362.0,1461.32 C 1380.23,1449.89 1399.62,1436.42 1421.0,1432.0" style="stroke:#010101; fill:none;"/>
	<path d="M 1651.0,1432.0 L 1655.0,1433.0" style="stroke:#010101; fill:none;"/>
	<path d="M 843.0,1433.0 L 857.0,1433.0" style="stroke:#010101; fill:none;"/>
	<path d="M 1280.0,1433.0 L 1266.0,1452.0" style="stroke:#010101; fill:none;"/>
	<path d="M 1508.0,1443.0 C 1534.53,1443.0 1561.66,1441.25 1587.0,1433.0" style="stroke:#010101; fill:none;"/>
	<path d="M 1700.0,1436.0 C 1692.23,1438.32 1679.37,1440.92 1672.0,1437.0 C 1680.16,1432.65 1694.37,1433.31 1703.0,1436.0" style="stroke:#010101; fill:none;"/>
	<path d="M 582.0,1435.0 C 576.951,1452.79 566.32,1463.34 556.0,1478.0 L 558.0,1477.0" style="stroke:#010101; fill:none;"/>
	<path d="M 1256.0,1435.0 L 1245.0,1445.0" style="stroke:#010101; fill:none;"/>
	<path d="M 1601.0,1435.0 L 1604.0,1435.0" style="stroke:#010101; fill:none;"/>
	<path d="M 1563.0,1447.0 L 1555.0,1446.0 C 1558.93,1444.88 1562.08,1446.26 1566.0,1445.88 C 1577.16,1444.79 1590.1,1441.08 1600.0,1436.0" style="stroke:#010101; fill:none;"/>
	<path d="M 1666.0,1436.0 L 1666.0,1438.0" style="stroke:#010101; fill:none;"/>
	<path d="M 1601.0,1437.0 L 1598.0,1438.0" style="stroke:#010101; fill:none;"/>
	<path d="M 1616.0,1437.0 L 1629.0,1440.0 C 1616.17,1445.42 1594.06,1453.34 1580.0,1450.0" style="stroke:#010101; fill:none;"/>
	<path d="M 1670.0,1437.0 L 1672.0,1437.0" style="stroke:#010101; fill:none;"/>
	<path d="M 1629.0,1440.0 L 1631.0,1440.0" style="stroke:#010101; fill:none;"/>
	<path d="M 1921.0,1440.0 C 1925.76,1463.07 1930.85,1489.42 1929.0,1513.0" style="stroke:#010101; fill:none;"/>
	<path d="M 1592.0,1441.0 L 1613.0,1444.0" style="stroke:#010101; fill:none;"/>
	<path d="M 848.0,1448.0 C 855.31,1445.18 865.919,1438.71 872.0,1446.0 L 858.0,1456.0" style="stroke:#010101; fill:none;"/>
	<path d="M 920.0,1444.0 L 923.0,1446.0" style="stroke:#010101; fill:none;"/>
	<path d="M 1563.0,1445.0 L 1567.0,1444.0" style="stroke:#010101; fill:none;"/>
	<path d="M 858.0,1449.0 L 870.0,1444.0" style="stroke:#010101; fill:none;"/>
	<path d="M 921.0,1445.0 L 918.0,1448.0" style="stroke:#010101; fill:none;"/>
	<path d="M 1555.0,1449.0 L 1548.0,1449.0 L 1555.0,1446.0" style="stroke:#010101; fill:none;"/>
	<path d="M 1615.0,1464.0 L 1649.0,1461.0 L 1630.0,1458.0 C 1639.43,1450.28 1654.0,1454.0 1665.0,1454.0 C 1685.38,1454.01 1705.1,1449.86 1725.0,1446.0" style="stroke:#010101; fill:none;"/>
	<path d="M 501.0,1447.0 C 498.173,1467.89 484.178,1490.45 488.0,1512.0" style="stroke:#010101; fill:none;"/>
	<path d="M 1051.0,1447.0 L 1056.0,1459.0" style="stroke:#010101; fill:none;"/>
	<path d="M 1604.0,1450.0 C 1611.15,1452.61 1617.82,1452.85 1624.0,1448.0 L 1645.0,1449.0 L 1698.0,1447.0" style="stroke:#010101; fill:none;"/>
	<path d="M 1534.0,1449.0 L 1547.0,1450.0" style="stroke:#010101; fill:none;"/>
	<path d="M 1619.0,1448.0 L 1624.0,1451.0" style="stroke:#010101; fill:none;"/>
	<path d="M 856.0,1462.0 C 863.471,1456.09 872.264,1449.86 882.0,1449.0" style="stroke:#010101; fill:none;"/>
	<path d="M 1505.0,1451.0 L 1592.0,1460.0" style="stroke:#010101; fill:none;"/>
	<path d="M 886.0,1452.0 L 880.0,1460.0" style="stroke:#010101; fill:none;"/>
	<path d="M 893.0,1454.0 L 887.0,1462.0 L 898.0,1457.0" style="stroke:#010101; fill:none;"/>
	<path d="M 1265.0,1454.0 L 1264.0,1455.0" style="stroke:#010101; fill:none;"/>
	<path d="M 1597.0,1455.0 L 1630.0,1457.0" style="stroke:#010101; fill:none;"/>
	<path d="M 506.0,1458.0 C 496.737,1476.43 491.002,1502.45 491.0,1523.0" style="stroke:#010101; fill:none;"/>
	<path d="M 1263.0,1458.0 L 1263.0,1459.0" style="stroke:#010101; fill:none;"/>
	<path d="M 1649.0,1461.0 L 1734.0,1459.0" style="stroke:#010101; fill:none;"/>
	<path d="M 1100.0,1461.0 L 1117.0,1480.0" style="stroke:#010101; fill:none;"/>
	<path d="M 887.0,1462.0 L 875.0,1474.0" style="stroke:#010101; fill:none;"/>
	<path d="M 990.0,1462.0 C 1009.71,1462.85 1027.19,1466.62 1046.0,1472.0" style="stroke:#010101; fill:none;"/>
	<path d="M 509.0,1463.0 L 495.0,1531.0" style="stroke:#010101; fill:none;"/>
	<path d="M 838.0,1464.0 C 838.062,1486.32 859.497,1501.79 879.0,1507.97 C 913.605,1518.94 953.268,1519.15 989.0,1516.23 C 1002.23,1515.15 1015.0,1516.65 1028.0,1513.0" style="stroke:#010101; fill:none;"/>
	<path d="M 903.0,1473.0 L 911.0,1465.0" style="stroke:#010101; fill:none;"/>
	<path d="M 1636.0,1471.0 L 1656.0,1471.0 C 1661.35,1474.73 1672.47,1472.0 1679.0,1472.0 C 1701.2,1472.0 1724.14,1471.12 1746.0,1467.0" style="stroke:#010101; fill:none;"/>
	<path d="M 916.0,1468.0 L 908.0,1473.0" style="stroke:#010101; fill:none;"/>
	<path d="M 920.0,1472.0 L 924.0,1470.0" style="stroke:#010101; fill:none;"/>
	<path d="M 942.0,1470.0 L 940.0,1472.0" style="stroke:#010101; fill:none;"/>
	<path d="M 961.0,1470.0 L 957.0,1478.0" style="stroke:#010101; fill:none;"/>
	<path d="M 1644.0,1474.0 L 1656.0,1474.0" style="stroke:#010101; fill:none;"/>
	<path d="M 558.0,1478.0 C 560.052,1477.31 561.983,1476.44 564.004,1475.67 C 577.922,1470.37 561.504,1493.03 560.0,1497.0 C 568.897,1500.97 558.913,1513.39 564.0,1514.0" style="stroke:#010101; fill:none;"/>
	<path d="M 969.0,1475.0 L 969.0,1477.0" style="stroke:#010101; fill:none;"/>
	<path d="M 515.0,1476.0 L 504.0,1548.0" style="stroke:#010101; fill:none;"/>
	<path d="M 1644.0,1480.0 C 1679.11,1473.48 1716.58,1479.0 1752.0,1479.0" style="stroke:#010101; fill:none;"/>
	<path d="M 556.0,1478.0 L 543.0,1485.0" style="stroke:#010101; fill:none;"/>
	<path d="M 982.0,1478.0 L 981.0,1480.0" style="stroke:#010101; fill:none;"/>
	<path d="M 1440.0,1494.0 C 1456.08,1486.84 1483.18,1476.05 1501.0,1478.31 C 1524.96,1481.35 1545.56,1497.41 1568.0,1505.0" style="stroke:#010101; fill:none;"/>
	<path d="M 1725.0,1499.0 L 1682.0,1493.0 C 1687.13,1487.61 1696.94,1487.4 1704.0,1486.43 C 1724.61,1483.59 1745.25,1484.0 1766.0,1484.0" style="stroke:#010101; fill:none;"/>
	<path d="M 1526.0,1487.0 L 1489.0,1496.43 L 1440.0,1511.0" style="stroke:#010101; fill:none;"/>
	<path d="M 1526.0,1490.0 L 1527.0,1490.0" style="stroke:#010101; fill:none;"/>
	<path d="M 1330.0,1493.0 C 1328.47,1503.22 1323.19,1512.86 1320.89,1523.0 C 1316.87,1540.68 1317.68,1556.46 1322.0,1574.0" style="stroke:#010101; fill:none;"/>
	<path d="M 1716.0,1493.0 L 1773.0,1494.0" style="stroke:#010101; fill:none;"/>
	<path d="M 1679.0,1494.0 L 1681.0,1494.0" style="stroke:#010101; fill:none;"/>
	<path d="M 1916.0,1495.0 L 1921.0,1546.0" style="stroke:#010101; fill:none;"/>
	<path d="M 520.0,1497.0 C 514.722,1512.59 506.508,1542.43 514.0,1558.0" style="stroke:#010101; fill:none;"/>
	<path d="M 1559.0,1502.0 C 1559.18,1505.53 1559.6,1509.69 1562.5,1512.16 C 1565.81,1514.98 1570.14,1513.85 1574.0,1514.87 C 1584.91,1517.76 1600.16,1526.16 1611.0,1523.0" style="stroke:#010101; fill:none;"/>
	<path d="M 1543.0,1504.0 C 1544.23,1512.87 1551.98,1513.85 1560.0,1513.0" style="stroke:#010101; fill:none;"/>
	<path d="M 1729.0,1504.0 L 1794.0,1509.0" style="stroke:#010101; fill:none;"/>
	<path d="M 1515.0,1505.0 C 1521.1,1513.7 1528.86,1514.47 1539.0,1511.0 L 1534.0,1505.0" style="stroke:#010101; fill:none;"/>
	<path d="M 1526.0,1505.0 L 1531.0,1510.0" style="stroke:#010101; fill:none;"/>
	<path d="M 1572.0,1513.0 C 1572.42,1500.2 1593.64,1511.51 1601.0,1514.0" style="stroke:#010101; fill:none;"/>
	<path d="M 1504.0,1508.0 L 1517.0,1513.0 C 1509.12,1517.27 1502.48,1516.17 1495.0,1512.0" style="stroke:#010101; fill:none;"/>
	<path d="M 1548.0,1508.0 L 1548.0,1511.0" style="stroke:#010101; fill:none;"/>
	<path d="M 1716.0,1509.0 C 1723.07,1510.32 1737.62,1513.5 1744.0,1510.0" style="stroke:#010101; fill:none;"/>
	<path d="M 1737.0,1511.0 L 1742.0,1512.0" style="stroke:#010101; fill:none;"/>
	<path d="M 1745.0,1511.0 C 1769.58,1512.39 1798.96,1518.31 1822.0,1527.0" style="stroke:#010101; fill:none;"/>
	<path d="M 1047.0,1513.0 L 1052.0,1512.0" style="stroke:#010101; fill:none;"/>
	<path d="M 1540.0,1512.0 L 1543.0,1512.0" style="stroke:#010101; fill:none;"/>
	<path d="M 569.0,1513.0 L 560.0,1532.0" style="stroke:#010101; fill:none;"/>
	<path d="M 1480.0,1513.0 C 1486.89,1516.69 1492.44,1519.19 1500.0,1516.0" style="stroke:#010101; fill:none;"/>
	<path d="M 1537.0,1513.0 C 1534.72,1531.29 1525.43,1542.21 1535.0,1561.0" style="stroke:#010101; fill:none;"/>
	<path d="M 1719.0,1514.0 L 1751.0,1524.0" style="stroke:#010101; fill:none;"/>
	<path d="M 1745.0,1514.0 L 1768.0,1520.0" style="stroke:#010101; fill:none;"/>
	<path d="M 1488.0,1518.0 L 1467.26,1524.94 L 1450.0,1542.0 L 1495.0,1554.15 L 1558.0,1574.27 L 1597.0,1582.0" style="stroke:#010101; fill:none;"/>
	<path d="M 525.0,1519.0 L 521.0,1557.0" style="stroke:#010101; fill:none;"/>
	<path d="M 1425.0,1519.0 L 1404.0,1532.0" style="stroke:#010101; fill:none;"/>
	<path d="M 1767.0,1523.0 L 1804.0,1528.0" style="stroke:#010101; fill:none;"/>
	<path d="M 2049.0,1524.0 L 2046.0,1530.0 C 2063.11,1539.73 2084.96,1531.6 2099.99,1544.09 C 2114.39,1556.08 2114.87,1576.75 2116.09,1594.0 C 2118.42,1627.08 2126.37,1655.2 2110.0,1686.0" style="stroke:#010101; fill:none;"/>
	<path d="M 1474.0,1528.0 L 1482.0,1525.0" style="stroke:#010101; fill:none;"/>
	<path d="M 1607.0,1525.0 C 1612.05,1530.36 1623.88,1534.95 1627.02,1541.13 C 1634.95,1556.74 1613.04,1575.05 1601.0,1579.0" style="stroke:#010101; fill:none;"/>
	<path d="M 1465.0,1547.0 C 1460.13,1549.6 1456.22,1548.13 1451.0,1548.52 C 1441.35,1549.24 1427.85,1554.72 1419.0,1550.0 C 1430.1,1539.41 1449.4,1527.56 1465.0,1526.0" style="stroke:#010101; fill:none;"/>
	<path d="M 1635.0,1526.0 C 1673.4,1543.32 1709.78,1569.97 1736.0,1603.0" style="stroke:#010101; fill:none;"/>
	<path d="M 1611.0,1527.0 L 1615.0,1527.0" style="stroke:#010101; fill:none;"/>
	<path d="M 1749.0,1528.0 L 1802.0,1535.0" style="stroke:#010101; fill:none;"/>
	<path d="M 1575.02,1530.33 C 1584.6,1526.82 1589.6,1542.4 1579.0,1545.29 C 1569.66,1547.84 1566.24,1533.54 1575.02,1530.33" style="stroke:#010101; fill:none;"/>
	<path d="M 1469.0,1531.0 L 1474.0,1539.0" style="stroke:#010101; fill:none;"/>
	<path d="M 1619.0,1532.0 L 1626.0,1531.0" style="stroke:#010101; fill:none;"/>
	<path d="M 1938.0,1701.0 C 1943.28,1685.38 1949.18,1670.06 1953.1,1654.0 C 1957.69,1635.21 1960.75,1614.9 1972.95,1599.14 C 1976.2,1594.95 1984.36,1588.22 1989.0,1585.73 C 1991.49,1584.39 1994.36,1585.31 1996.7,1583.55 C 2003.97,1578.11 2007.48,1568.61 2014.21,1563.6 C 2017.68,1561.03 2022.38,1563.5 2025.58,1560.59 C 2036.34,1550.84 2028.5,1534.08 2045.0,1531.0" style="stroke:#010101; fill:none;"/>
	<path d="M 529.0,1533.0 L 529.0,1550.0" style="stroke:#010101; fill:none;"/>
	<path d="M 1350.0,1541.0 L 1392.0,1534.0" style="stroke:#010101; fill:none;"/>
	<path d="M 1913.0,1535.0 C 1913.04,1550.3 1919.83,1566.83 1915.0,1582.0" style="stroke:#010101; fill:none;"/>
	<path d="M 566.0,1536.0 L 560.0,1551.0" style="stroke:#010101; fill:none;"/>
	<path d="M 1258.0,1537.0 L 1259.0,1539.0" style="stroke:#010101; fill:none;"/>
	<path d="M 1627.0,1537.0 L 1632.0,1538.0" style="stroke:#010101; fill:none;"/>
	<path d="M 1768.0,1539.0 L 1794.0,1542.0" style="stroke:#010101; fill:none;"/>
	<path d="M 1774.0,1541.0 L 1775.0,1541.0" style="stroke:#010101; fill:none;"/>
	<path d="M 1630.0,1542.0 C 1639.31,1549.01 1644.56,1550.0 1656.0,1550.0" style="stroke:#010101; fill:none;"/>
	<path d="M 1634.0,1542.0 L 1646.0,1543.0" style="stroke:#010101; fill:none;"/>
	<path d="M 1341.0,1546.0 L 1337.0,1572.0" style="stroke:#010101; fill:none;"/>
	<path d="M 572.0,1548.0 L 565.0,1560.0" style="stroke:#010101; fill:none;"/>
	<path d="M 1791.0,1548.0 L 1801.0,1550.0" style="stroke:#010101; fill:none;"/>
	<path d="M 537.0,1550.0 L 537.0,1556.0" style="stroke:#010101; fill:none;"/>
	<path d="M 1414.0,1555.0 L 1419.0,1550.0" style="stroke:#010101; fill:none;"/>
	<path d="M 1643.0,1552.0 C 1652.36,1559.59 1659.69,1563.77 1672.0,1564.0" style="stroke:#010101; fill:none;"/>
	<path d="M 1452.0,1554.0 L 1482.0,1559.0" style="stroke:#010101; fill:none;"/>
	<path d="M 1655.0,1558.0 L 1658.0,1558.0" style="stroke:#010101; fill:none;"/>
	<path d="M 1657.0,1564.0 C 1662.65,1569.2 1667.84,1575.39 1676.0,1575.0" style="stroke:#010101; fill:none;"/>
	<path d="M 1663.0,1564.0 L 1664.0,1569.0" style="stroke:#010101; fill:none;"/>
	<path d="M 1666.0,1568.0 L 1679.0,1569.0" style="stroke:#010101; fill:none;"/>
	<path d="M 1667.0,1569.0 L 1667.0,1571.0" style="stroke:#010101; fill:none;"/>
	<path d="M 1908.0,1571.0 L 1909.0,1603.0" style="stroke:#010101; fill:none;"/>
	<path d="M 2100.0,1583.0 L 2086.0,1572.0 C 2095.79,1569.14 2098.8,1575.86 2102.8,1583.29 C 2104.68,1586.76 2107.56,1592.07 2103.76,1595.27 C 2099.17,1599.13 2089.69,1599.76 2084.0,1601.42 C 2070.11,1605.49 2056.33,1609.72 2043.0,1615.21 C 2037.84,1617.34 2033.44,1617.24 2029.0,1621.0 L 2047.0,1641.0 C 2059.02,1631.8 2081.01,1626.22 2096.0,1625.0" style="stroke:#010101; fill:none;"/>
	<path d="M 2086.0,1575.0 C 2085.12,1580.29 2071.38,1586.28 2066.16,1584.45 C 2060.11,1582.33 2067.52,1576.99 2070.0,1575.88 C 2071.93,1575.01 2073.96,1574.29 2076.0,1573.76 C 2079.26,1572.91 2082.69,1572.62 2086.0,1572.0" style="stroke:#010101; fill:none;"/>
	<path d="M 1520.0,1573.0 L 1506.0,1583.0" style="stroke:#010101; fill:none;"/>
	<path d="M 1673.0,1576.0 C 1669.63,1582.42 1662.32,1581.0 1656.0,1581.0 C 1642.11,1581.0 1625.5,1579.79 1612.0,1583.0" style="stroke:#010101; fill:none;"/>
	<path d="M 1516.0,1581.0 L 1521.0,1579.0" style="stroke:#010101; fill:none;"/>
	<path d="M 2086.0,1579.0 L 2088.0,1579.0" style="stroke:#010101; fill:none;"/>
	<path d="M 1674.0,1580.0 L 1686.0,1585.0" style="stroke:#010101; fill:none;"/>
	<path d="M 2095.0,1581.0 C 2086.77,1586.11 2067.13,1594.7 2059.0,1588.0 C 2056.62,1589.97 2046.77,1594.75 2048.92,1598.68 C 2051.2,1602.86 2059.05,1598.53 2062.0,1597.42 C 2073.94,1592.96 2089.87,1590.75 2100.0,1583.0" style="stroke:#010101; fill:none;"/>
	<path d="M 2063.0,1583.0 L 2059.0,1587.0" style="stroke:#010101; fill:none;"/>
	<path d="M 1526.0,1585.0 L 1528.0,1584.0" style="stroke:#010101; fill:none;"/>
	<path d="M 1678.0,1584.0 L 1693.0,1597.0" style="stroke:#010101; fill:none;"/>
	<path d="M 1533.0,1585.0 L 1524.0,1594.0" style="stroke:#010101; fill:none;"/>
	<path d="M 1545.0,1586.0 L 1541.0,1589.0" style="stroke:#010101; fill:none;"/>
	<path d="M 1548.0,1588.0 L 1547.0,1589.0" style="stroke:#010101; fill:none;"/>
	<path d="M 1555.0,1588.0 L 1553.0,1593.0" style="stroke:#010101; fill:none;"/>
	<path d="M 2057.0,1590.0 L 2061.0,1593.0" style="stroke:#010101; fill:none;"/>
	<path d="M 1569.0,1592.0 L 1569.0,1599.0" style="stroke:#010101; fill:none;"/>
	<path d="M 1651.0,1593.0 L 1653.0,1595.0" style="stroke:#010101; fill:none;"/>
	<path d="M 2046.0,1599.0 L 2034.0,1606.0 C 2039.59,1611.28 2045.39,1607.51 2052.0,1605.58 C 2066.26,1601.4 2080.44,1596.01 2095.0,1593.0" style="stroke:#010101; fill:none;"/>
	<path d="M 1576.0,1594.0 L 1576.0,1599.0" style="stroke:#010101; fill:none;"/>
	<path d="M 1594.0,1594.0 L 1594.0,1597.0" style="stroke:#010101; fill:none;"/>
	<path d="M 1425.0,1662.0 C 1408.4,1648.48 1396.87,1631.35 1384.72,1614.0 C 1381.49,1609.39 1372.53,1600.68 1376.0,1595.0" style="stroke:#010101; fill:none;"/>
	<path d="M 1583.0,1595.0 L 1584.0,1597.0" style="stroke:#010101; fill:none;"/>
	<path d="M 2107.0,1595.0 C 2111.04,1611.96 2107.44,1630.76 2107.01,1648.0 C 2106.76,1658.26 2108.46,1670.23 2104.82,1680.0 C 2097.04,1700.88 2079.42,1720.57 2067.0,1739.0" style="stroke:#010101; fill:none;"/>
	<path d="M 1624.0,1596.0 L 1627.0,1609.0" style="stroke:#010101; fill:none;"/>
	<path d="M 1636.0,1596.0 L 1636.0,1607.0" style="stroke:#010101; fill:none;"/>
	<path d="M 1646.0,1596.0 L 1652.0,1598.0" style="stroke:#010101; fill:none;"/>
	<path d="M 1603.0,1597.0 L 1604.0,1601.0" style="stroke:#010101; fill:none;"/>
	<path d="M 1462.0,1598.0 L 1480.0,1606.0" style="stroke:#010101; fill:none;"/>
	<path d="M 1616.0,1598.0 L 1617.0,1600.0" style="stroke:#010101; fill:none;"/>
	<path d="M 1902.0,1601.0 L 1910.0,1630.0" style="stroke:#010101; fill:none;"/>
	<path d="M 2046.0,1615.0 C 2052.73,1616.93 2058.62,1613.7 2065.0,1611.72 C 2076.94,1608.0 2089.46,1603.02 2102.0,1602.0" style="stroke:#010101; fill:none;"/>
	<path d="M 1692.0,1605.0 L 1720.9,1614.11 L 1738.0,1631.11 L 1759.0,1638.0" style="stroke:#010101; fill:none;"/>
	<path d="M 2036.0,1611.0 L 2034.0,1606.0" style="stroke:#010101; fill:none;"/>
	<path d="M 483.0,1607.0 L 488.0,1629.0" style="stroke:#010101; fill:none;"/>
	<path d="M 2080.0,1618.0 L 2083.0,1618.0 C 2077.94,1620.21 2057.1,1623.94 2053.0,1620.0 L 2096.0,1608.0" style="stroke:#010101; fill:none;"/>
	<path d="M 1966.0,1644.0 L 2032.0,1608.0" style="stroke:#010101; fill:none;"/>
	<path d="M 1787.0,1624.0 L 1819.0,1610.0" style="stroke:#010101; fill:none;"/>
	<path d="M 1742.0,1612.0 L 1743.0,1612.0" style="stroke:#010101; fill:none;"/>
	<path d="M 2084.0,1616.0 L 2100.0,1612.0" style="stroke:#010101; fill:none;"/>
	<path d="M 2083.0,1619.0 L 2099.0,1616.0" style="stroke:#010101; fill:none;"/>
	<path d="M 2023.0,1617.0 L 2028.0,1621.0" style="stroke:#010101; fill:none;"/>
	<path d="M 2054.0,1623.0 L 2049.0,1622.0 L 2052.0,1620.0" style="stroke:#010101; fill:none;"/>
	<path d="M 2044.0,1635.0 C 2054.15,1626.18 2068.06,1625.14 2080.0,1620.0" style="stroke:#010101; fill:none;"/>
	<path d="M 2036.0,1628.0 L 2049.0,1622.0" style="stroke:#010101; fill:none;"/>
	<path d="M 1753.0,1624.0 L 1763.0,1625.0" style="stroke:#010101; fill:none;"/>
	<path d="M 1774.0,1624.0 L 1775.0,1624.0" style="stroke:#010101; fill:none;"/>
	<path d="M 1767.0,1625.0 L 1772.0,1625.0" style="stroke:#010101; fill:none;"/>
	<path d="M 2039.0,1630.0 L 2050.0,1624.0" style="stroke:#010101; fill:none;"/>
	<path d="M 1527.0,1627.0 L 1550.0,1641.0" style="stroke:#010101; fill:none;"/>
	<path d="M 1678.0,1632.0 L 1663.0,1641.0" style="stroke:#010101; fill:none;"/>
	<path d="M 1910.0,1632.0 L 1910.0,1633.0" style="stroke:#010101; fill:none;"/>
	<path d="M 2059.0,1645.0 L 2100.0,1632.0" style="stroke:#010101; fill:none;"/>
	<path d="M 2047.0,1642.0 C 2058.32,1658.29 2055.22,1677.46 2055.0,1696.0 C 2054.8,1713.35 2057.0,1730.61 2057.0,1748.0" style="stroke:#010101; fill:none;"/>
	<path d="M 2058.0,1656.0 L 2098.0,1643.0" style="stroke:#010101; fill:none;"/>
	<path d="M 1574.0,1648.0 C 1587.8,1648.0 1602.31,1651.13 1616.0,1649.83 C 1629.16,1648.58 1645.05,1641.93 1658.0,1645.0" style="stroke:#010101; fill:none;"/>
	<path d="M 1772.0,1646.0 L 1792.0,1648.0" style="stroke:#010101; fill:none;"/>
	<path d="M 1653.0,1648.0 L 1656.0,1647.0" style="stroke:#010101; fill:none;"/>
	<path d="M 1795.0,1648.0 L 1807.0,1649.0" style="stroke:#010101; fill:none;"/>
	<path d="M 1809.0,1649.0 L 1814.0,1650.0" style="stroke:#010101; fill:none;"/>
	<path d="M 1902.0,1649.0 L 1905.0,1667.0" style="stroke:#010101; fill:none;"/>
	<path d="M 1970.0,1652.0 L 1975.0,1650.0" style="stroke:#010101; fill:none;"/>
	<path d="M 1967.0,1652.0 L 1961.0,1670.0" style="stroke:#010101; fill:none;"/>
	<path d="M 2071.0,1664.0 L 2096.0,1653.0" style="stroke:#010101; fill:none;"/>
	<path d="M 2074.0,1669.0 L 2087.0,1666.0" style="stroke:#010101; fill:none;"/>
	<path d="M 1904.0,1669.0 L 1905.0,1672.0" style="stroke:#010101; fill:none;"/>
	<path d="M 1898.0,1690.0 C 1899.6,1710.33 1901.15,1730.63 1902.04,1751.0 C 1902.59,1763.53 1904.14,1774.9 1900.0,1787.0 L 1902.0,1785.0" style="stroke:#010101; fill:none;"/>
	<path d="M 2108.0,1691.0 L 2107.0,1693.0" style="stroke:#010101; fill:none;"/>
	<path d="M 2105.0,1696.0 L 2105.0,1698.0" style="stroke:#010101; fill:none;"/>
	<path d="M 1964.0,1700.0 L 1949.0,1706.0 C 1951.86,1700.2 1957.93,1698.33 1964.0,1700.0" style="stroke:#010101; fill:none;"/>
	<path d="M 1965.0,1700.0 L 1978.0,1701.0 L 1939.0,1720.0" style="stroke:#010101; fill:none;"/>
	<path d="M 1991.0,1704.0 L 2002.0,1717.0" style="stroke:#010101; fill:none;"/>
	<path d="M 1934.0,1732.0 C 1949.16,1721.14 1966.18,1710.84 1984.0,1705.0" style="stroke:#010101; fill:none;"/>
	<path d="M 1949.0,1706.0 L 1935.0,1717.0" style="stroke:#010101; fill:none;"/>
	<path d="M 1933.0,1709.0 C 1932.69,1719.04 1929.85,1729.3 1927.37,1739.0 C 1926.79,1741.26 1924.89,1749.98 1922.0,1746.0" style="stroke:#010101; fill:none;"/>
	<path d="M 1935.0,1737.0 C 1950.73,1724.91 1970.24,1715.35 1989.0,1709.0" style="stroke:#010101; fill:none;"/>
	<path d="M 1951.0,1736.0 L 1950.0,1734.0 L 1961.0,1728.31 L 1987.0,1717.0" style="stroke:#010101; fill:none;"/>
	<path d="M 1896.0,1721.0 L 1900.0,1783.0" style="stroke:#010101; fill:none;"/>
	<path d="M 1928.0,1759.0 L 1970.0,1731.69 L 1991.0,1722.0" style="stroke:#010101; fill:none;"/>
	<path d="M 1894.0,1726.0 L 1894.0,1728.0" style="stroke:#010101; fill:none;"/>
	<path d="M 1921.0,1771.0 C 1941.44,1754.79 1968.18,1736.45 1993.0,1728.0" style="stroke:#010101; fill:none;"/>
	<path d="M 1018.0,1733.0 C 1000.3,1766.91 976.67,1811.98 1001.62,1848.0 C 1014.05,1865.94 1035.3,1876.73 1049.0,1894.0" style="stroke:#010101; fill:none;"/>
	<path d="M 1951.0,1734.0 L 1951.0,1735.0" style="stroke:#010101; fill:none;"/>
	<path d="M 1948.0,1738.0 C 1946.21,1737.69 1946.21,1737.31 1948.0,1737.0" style="stroke:#010101; fill:none;"/>
	<path d="M 1945.0,1737.0 L 1944.0,1741.0 L 1945.0,1739.0" style="stroke:#010101; fill:none;"/>
	<path d="M 1933.0,1745.0 L 1942.0,1739.0" style="stroke:#010101; fill:none;"/>
	<path d="M 1925.0,1776.0 C 1945.22,1762.66 1968.41,1749.76 1991.0,1741.0" style="stroke:#010101; fill:none;"/>
	<path d="M 1942.0,1742.0 L 1927.0,1755.0" style="stroke:#010101; fill:none;"/>
	<path d="M 1910.0,1744.0 L 1910.0,1745.0" style="stroke:#010101; fill:none;"/>
	<path d="M 1926.0,1781.0 C 1948.08,1767.49 1973.89,1750.92 1999.0,1744.0" style="stroke:#010101; fill:none;"/>
	<path d="M 2012.0,1747.0 C 2012.0,1764.45 2008.76,1783.59 2000.0,1799.0" style="stroke:#010101; fill:none;"/>
	<path d="M 1910.0,1748.0 L 1911.0,1756.0" style="stroke:#010101; fill:none;"/>
	<path d="M 1923.0,1750.0 C 1915.92,1756.36 1916.62,1770.09 1914.5,1779.0 C 1912.57,1787.1 1908.36,1794.21 1905.75,1802.0 C 1903.59,1808.42 1903.44,1817.79 1896.0,1820.0 L 1897.0,1813.0" style="stroke:#010101; fill:none;"/>
	<path d="M 1284.0,1767.0 L 1286.0,1751.0" style="stroke:#010101; fill:none;"/>
	<path d="M 1936.0,1782.0 C 1957.03,1777.13 1975.67,1763.03 1995.0,1754.0" style="stroke:#010101; fill:none;"/>
	<path d="M 1891.0,1763.0 L 1894.0,1810.0" style="stroke:#010101; fill:none;"/>
	<path d="M 1696.0,1766.0 L 1706.0,1769.0" style="stroke:#010101; fill:none;"/>
	<path d="M 1222.0,1768.0 L 1222.0,1771.0" style="stroke:#010101; fill:none;"/>
	<path d="M 1989.0,1768.0 L 1955.0,1786.0" style="stroke:#010101; fill:none;"/>
	<path d="M 1284.0,1771.0 L 1284.0,1781.0" style="stroke:#010101; fill:none;"/>
	<path d="M 1222.0,1773.0 L 1222.0,1775.0" style="stroke:#010101; fill:none;"/>
	<path d="M 1711.0,1776.0 L 1708.0,1783.0" style="stroke:#010101; fill:none;"/>
	<path d="M 1890.0,1825.0 L 1890.91,1796.0 L 1892.0,1779.0" style="stroke:#010101; fill:none;"/>
	<path d="M 1221.0,1780.0 L 1221.0,1783.0" style="stroke:#010101; fill:none;"/>
	<path d="M 1284.0,1785.0 L 1285.0,1786.0" style="stroke:#010101; fill:none;"/>
	<path d="M 1220.0,1787.0 L 1220.0,1791.0" style="stroke:#010101; fill:none;"/>
	<path d="M 1901.0,1788.0 L 1900.0,1806.0" style="stroke:#010101; fill:none;"/>
	<path d="M 1888.0,1792.0 L 1887.0,1822.0" style="stroke:#010101; fill:none;"/>
	<path d="M 1219.0,1796.0 C 1218.08,1817.45 1208.56,1837.61 1203.0,1858.0" style="stroke:#010101; fill:none;"/>
	<path d="M 1247.0,1814.0 L 1252.0,1818.0" style="stroke:#010101; fill:none;"/>
	<path d="M 907.0,1821.0 L 905.0,1826.0" style="stroke:#010101; fill:none;"/>
	<path d="M 1257.0,1821.0 C 1270.8,1834.92 1282.42,1855.11 1284.0,1875.0" style="stroke:#010101; fill:none;"/>
	<path d="M 1895.0,1821.0 L 1888.0,1837.0 L 1886.0,1833.0 L 1880.0,1845.0" style="stroke:#010101; fill:none;"/>
	<path d="M 1883.0,1823.0 C 1870.54,1865.64 1852.71,1908.3 1836.94,1950.0 C 1829.79,1968.88 1819.58,1991.04 1817.0,2011.0" style="stroke:#010101; fill:none;"/>
	<path d="M 2046.0,1824.0 L 2046.0,1825.0" style="stroke:#010101; fill:none;"/>
	<path d="M 2028.0,1826.0 C 2020.88,1850.91 2000.19,1877.46 1980.0,1893.11 C 1968.89,1901.72 1955.98,1907.51 1945.0,1916.0" style="stroke:#010101; fill:none;"/>
	<path d="M 1886.0,1831.0 L 1886.0,1833.0" style="stroke:#010101; fill:none;"/>
	<path d="M 1300.0,1832.0 L 1301.0,1833.0" style="stroke:#010101; fill:none;"/>
	<path d="M 1989.0,1835.0 C 1982.36,1843.16 1973.66,1854.66 1964.0,1859.23 C 1955.86,1863.09 1942.96,1863.19 1934.0,1864.0" style="stroke:#010101; fill:none;"/>
	<path d="M 1019.0,1840.0 L 1018.0,1841.0" style="stroke:#010101; fill:none;"/>
	<path d="M 1310.0,1840.0 L 1316.0,1846.0" style="stroke:#010101; fill:none;"/>
	<path d="M 1014.0,1846.0 L 1013.0,1848.0" style="stroke:#010101; fill:none;"/>
	<path d="M 1318.0,1848.0 L 1321.0,1853.0" style="stroke:#010101; fill:none;"/>
	<path d="M 1011.0,1858.0 L 1005.09,1879.0 L 1003.4,1890.21 L 993.0,1887.97 L 984.0,1893.0 L 986.0,1895.0 L 987.0,1892.0" style="stroke:#010101; fill:none;"/>
	<path d="M 1324.0,1858.0 L 1326.0,1862.0" style="stroke:#010101; fill:none;"/>
	<path d="M 1203.0,1864.0 C 1199.22,1877.46 1175.46,1892.98 1162.0,1895.0" style="stroke:#010101; fill:none;"/>
	<path d="M 1916.0,1870.0 L 1894.0,1895.0" style="stroke:#010101; fill:none;"/>
	<path d="M 988.0,1893.0 L 995.0,1898.0 L 1001.0,1900.0 L 1000.0,1902.0 C 987.307,1901.45 976.244,1895.49 965.0,1890.31 C 959.237,1887.65 954.411,1886.73 951.0,1881.0 C 961.718,1877.83 971.08,1879.82 974.0,1890.0 C 977.286,1888.16 978.082,1886.6 977.0,1883.0 L 976.0,1883.0 L 975.0,1883.0 L 974.0,1883.0" style="stroke:#010101; fill:none;"/>
	<path d="M 966.0,1882.0 C 967.201,1885.83 968.657,1885.96 972.0,1884.0" style="stroke:#010101; fill:none;"/>
	<path d="M 980.0,1884.0 L 986.0,1886.0 C 984.236,1888.32 981.669,1890.64 984.0,1893.0" style="stroke:#010101; fill:none;"/>
	<path d="M 986.0,1886.0 L 990.0,1886.0" style="stroke:#010101; fill:none;"/>
	<path d="M 980.0,1888.0 L 976.0,1890.0" style="stroke:#010101; fill:none;"/>
	<path d="M 983.0,1890.0 L 985.0,1892.0" style="stroke:#010101; fill:none;"/>
	<path d="M 1004.0,1892.0 L 1008.0,1896.0 L 1002.0,1902.0 C 1006.36,1902.75 1009.68,1903.22 1013.0,1900.0 L 1009.0,1902.0" style="stroke:#010101; fill:none;"/>
	<path d="M 992.0,1895.0 L 994.0,1895.0" style="stroke:#010101; fill:none;"/>
	<path d="M 1155.0,1895.0 L 1160.0,1896.0" style="stroke:#010101; fill:none;"/>
	<path d="M 1008.0,1897.0 L 1010.0,1899.0" style="stroke:#010101; fill:none;"/>
	<path d="M 1001.0,1898.0 L 1002.0,1898.0" style="stroke:#010101; fill:none;"/>
	<path d="M 996.0,1899.0 L 998.0,1898.0" style="stroke:#010101; fill:none;"/>
	<path d="M 1013.0,1901.0 C 1025.47,1905.09 1036.82,1913.85 1046.0,1923.0" style="stroke:#010101; fill:none;"/>
	<path d="M 1018.0,1903.0 L 1012.0,1904.0" style="stroke:#010101; fill:none;"/>
	<path d="M 1923.0,1909.0 C 1916.61,1917.8 1904.22,1918.97 1894.0,1919.0" style="stroke:#010101; fill:none;"/>
	<path d="M 674.0,1913.0 C 670.159,1920.98 673.317,1928.85 675.0,1937.0" style="stroke:#010101; fill:none;"/>
	<path d="M 1194.0,1924.0 L 1191.0,1929.0 L 1180.0,1921.0 C 1192.21,1919.04 1206.16,1927.55 1218.0,1930.0" style="stroke:#010101; fill:none;"/>
	<path d="M 1191.0,1929.0 C 1184.85,1932.1 1173.35,1928.07 1169.0,1923.0 L 1180.0,1921.0" style="stroke:#010101; fill:none;"/>
	<path d="M 1158.0,1924.0 L 1152.0,1926.0 C 1154.95,1929.18 1156.64,1931.48 1161.0,1930.0 L 1158.0,1924.0 L 1168.0,1922.0" style="stroke:#010101; fill:none;"/>
	<path d="M 1074.0,1925.0 L 1075.0,1925.0" style="stroke:#010101; fill:none;"/>
	<path d="M 1077.0,1926.0 L 1078.0,1926.0" style="stroke:#010101; fill:none;"/>
	<path d="M 1119.0,1948.0 C 1129.69,1938.84 1135.92,1926.74 1152.0,1926.0" style="stroke:#010101; fill:none;"/>
	<path d="M 1161.0,1930.0 L 1177.0,1934.0 C 1171.05,1936.07 1165.12,1934.42 1160.0,1931.0" style="stroke:#010101; fill:none;"/>
	<path d="M 1186.0,1931.0 L 1177.0,1934.0" style="stroke:#010101; fill:none;"/>
	<path d="M 1334.0,1933.0 L 1335.0,1937.0 L 1337.0,1934.0" style="stroke:#010101; fill:none;"/>
	<path d="M 1335.0,1937.0 C 1329.28,1944.09 1326.83,1952.89 1320.7,1960.0 C 1309.52,1972.98 1291.63,1979.2 1275.0,1974.84 C 1266.18,1972.53 1258.63,1967.48 1250.0,1965.0" style="stroke:#010101; fill:none;"/>
	<path d="M 1216.0,1954.0 L 1226.0,1954.0" style="stroke:#010101; fill:none;"/>
	<path d="M 1228.0,1955.0 L 1229.0,1955.0" style="stroke:#010101; fill:none;"/>
	<path d="M 1237.0,1955.0 L 1236.0,1956.0" style="stroke:#010101; fill:none;"/>
	<path d="M 1208.0,1956.0 L 1233.0,1960.0" style="stroke:#010101; fill:none;"/>
	<path d="M 1206.0,1995.0 C 1196.15,1988.82 1174.22,1976.37 1194.0,1968.0" style="stroke:#010101; fill:none;"/>
	<path d="M 541.0,1992.0 C 541.178,2056.44 562.35,2117.57 579.424,2179.0 C 584.104,2195.83 589.375,2212.46 595.003,2229.0 C 597.605,2236.64 602.621,2245.77 601.983,2254.0 C 599.822,2281.86 588.901,2311.13 581.424,2338.0 C 570.536,2377.13 561.65,2416.05 554.463,2456.0 C 549.572,2483.19 548.304,2510.68 544.711,2538.0 C 542.385,2555.68 537.337,2573.52 533.714,2591.0 C 528.366,2616.81 516.692,2640.52 514.17,2667.0 C 507.054,2741.72 510.856,2817.34 502.834,2892.0 C 498.511,2932.23 485.958,2971.35 478.54,3011.0 C 476.608,3021.32 472.834,3031.52 472.0,3042.0" style="stroke:#010101; fill:none;"/>
	<path d="M 1819.0,2022.0 L 1824.0,2033.0" style="stroke:#010101; fill:none;"/>
	<path d="M 1819.0,2045.0 L 1818.0,2046.0" style="stroke:#010101; fill:none;"/>
	<path d="M 820.0,2046.0 C 817.337,2052.64 824.723,2058.01 831.0,2058.0" style="stroke:#010101; fill:none;"/>
	<path d="M 1810.0,2055.0 L 1809.0,2056.0" style="stroke:#010101; fill:none;"/>
	<path d="M 1807.0,2059.0 L 1806.0,2061.0" style="stroke:#010101; fill:none;"/>
	<path d="M 1467.0,2081.0 L 1488.66,2118.0 L 1519.0,2155.0" style="stroke:#010101; fill:none;"/>
	<path d="M 929.0,2123.0 C 960.174,2123.0 992.693,2113.93 1024.0,2119.46 C 1050.97,2124.23 1076.21,2133.68 1102.0,2142.46 C 1111.19,2145.6 1118.09,2150.23 1128.0,2151.57 C 1151.49,2154.77 1175.41,2148.75 1199.0,2149.54 C 1225.1,2150.41 1250.24,2156.95 1276.0,2159.0" style="stroke:#010101; fill:none;"/>
	<path d="M 830.0,2134.0 L 825.0,2137.0 C 823.206,2132.41 826.257,2130.24 831.0,2130.15 C 840.982,2129.96 852.902,2131.8 863.0,2132.95 C 881.064,2135.01 896.36,2146.87 914.0,2151.1 C 934.256,2155.96 954.636,2153.42 975.0,2154.11 C 1002.74,2155.04 1026.52,2165.59 1053.0,2171.96 C 1073.2,2176.82 1093.84,2176.88 1114.0,2181.53 C 1124.52,2183.96 1134.31,2190.11 1145.0,2191.7 C 1156.45,2193.4 1167.58,2190.47 1179.0,2190.04 C 1195.47,2189.41 1212.75,2191.57 1229.0,2194.29 C 1248.99,2197.63 1269.49,2202.19 1289.0,2207.71 C 1300.09,2210.85 1311.52,2216.42 1323.0,2217.82 C 1346.61,2220.68 1369.74,2210.61 1393.0,2218.0" style="stroke:#010101; fill:none;"/>
	<path d="M 817.0,2135.0 L 823.0,2133.0" style="stroke:#010101; fill:none;"/>
	<path d="M 812.0,2135.0 L 815.0,2134.0" style="stroke:#010101; fill:none;"/>
	<path d="M 817.0,2135.0 L 809.0,2141.0" style="stroke:#010101; fill:none;"/>
	<path d="M 824.0,2136.0 L 815.0,2141.0" style="stroke:#010101; fill:none;"/>
	<path d="M 1526.0,2186.0 C 1518.89,2220.46 1499.3,2250.38 1483.0,2281.0" style="stroke:#010101; fill:none;"/>
	<path d="M 929.0,2194.0 C 940.739,2207.42 958.677,2209.68 975.0,2214.15 C 988.182,2217.77 1000.8,2223.02 1014.0,2226.64 C 1030.98,2231.3 1043.73,2245.14 1061.0,2250.66 C 1091.45,2260.39 1122.57,2259.79 1154.0,2263.0" style="stroke:#010101; fill:none;"/>
	<path d="M 1380.0,2203.0 L 1401.0,2212.0" style="stroke:#010101; fill:none;"/>
	<path d="M 1374.0,2205.0 L 1397.0,2215.0" style="stroke:#010101; fill:none;"/>
	<path d="M 1406.0,2219.0 L 1419.0,2220.0" style="stroke:#010101; fill:none;"/>
	<path d="M 603.0,2257.0 C 612.502,2270.96 616.996,2292.08 622.95,2308.0 C 625.419,2314.6 626.99,2322.88 632.0,2328.0 L 633.0,2323.0" style="stroke:#010101; fill:none;"/>
	<path d="M 1270.0,2261.0 L 1281.0,2260.0" style="stroke:#010101; fill:none;"/>
	<path d="M 1164.0,2265.0 C 1191.51,2270.68 1222.9,2273.82 1250.0,2265.0" style="stroke:#010101; fill:none;"/>
	<path d="M 1705.0,2296.0 L 1680.26,2328.0 L 1644.0,2374.0 L 1647.0,2377.0 C 1661.72,2361.01 1672.56,2341.65 1691.0,2330.0" style="stroke:#010101; fill:none;"/>
	<path d="M 1703.0,2308.0 L 1700.0,2321.0" style="stroke:#010101; fill:none;"/>
	<path d="M 1701.0,2325.0 L 1700.0,2328.0" style="stroke:#010101; fill:none;"/>
	<path d="M 1688.0,2327.0 L 1682.0,2333.0" style="stroke:#010101; fill:none;"/>
	<path d="M 632.0,2330.0 C 638.111,2356.4 651.003,2383.17 661.719,2408.0 C 701.774,2500.82 766.388,2593.93 863.0,2633.99 C 897.634,2648.35 935.949,2654.3 973.0,2657.83 C 990.627,2659.51 1008.42,2658.79 1026.0,2661.29 C 1037.3,2662.89 1047.15,2668.78 1058.0,2671.84 C 1079.68,2677.97 1106.48,2681.45 1129.0,2679.91 C 1146.51,2678.71 1163.79,2674.47 1181.0,2671.26 C 1203.07,2667.14 1225.42,2664.71 1247.0,2658.28 C 1296.21,2643.62 1343.72,2619.33 1389.0,2595.6 C 1406.29,2586.53 1421.73,2572.34 1438.0,2561.52 C 1487.08,2528.85 1532.22,2495.8 1574.0,2454.0 C 1587.3,2440.69 1599.38,2426.19 1611.72,2412.0 C 1616.66,2406.32 1621.08,2397.77 1629.0,2403.0 L 1575.0,2468.0 C 1582.19,2471.72 1588.73,2461.67 1592.0,2456.0 L 1610.0,2446.0 C 1608.72,2437.06 1623.16,2428.6 1628.74,2422.71 C 1647.16,2403.28 1664.26,2382.12 1686.0,2366.0" style="stroke:#010101; fill:none;"/>
	<path d="M 1698.0,2330.0 L 1697.0,2336.0" style="stroke:#010101; fill:none;"/>
	<path d="M 1683.0,2335.0 L 1681.0,2337.0" style="stroke:#010101; fill:none;"/>
	<path d="M 1152.0,2366.0 C 1175.43,2364.98 1196.52,2347.08 1216.0,2336.0" style="stroke:#010101; fill:none;"/>
	<path d="M 1681.0,2338.0 L 1680.0,2339.0" style="stroke:#010101; fill:none;"/>
	<path d="M 1219.0,2346.0 L 1212.0,2350.0 C 1218.38,2352.27 1226.05,2346.47 1232.0,2344.0" style="stroke:#010101; fill:none;"/>
	<path d="M 1592.0,2455.0 C 1615.78,2430.15 1635.8,2401.59 1658.83,2376.0 C 1668.19,2365.61 1678.39,2352.51 1691.0,2346.0" style="stroke:#010101; fill:none;"/>
	<path d="M 1172.0,2367.0 C 1185.11,2364.96 1200.55,2356.57 1212.0,2350.0" style="stroke:#010101; fill:none;"/>
	<path d="M 949.0,2353.0 C 974.911,2357.7 1003.63,2350.65 1030.0,2353.17 C 1041.69,2354.29 1052.68,2359.14 1064.0,2362.12 C 1093.28,2369.81 1123.3,2379.43 1150.0,2394.0" style="stroke:#010101; fill:none;"/>
	<path d="M 1645.0,2375.0 C 1643.55,2379.94 1642.93,2383.49 1638.0,2386.0 C 1638.7,2382.58 1639.36,2380.72 1643.0,2381.0" style="stroke:#010101; fill:none;"/>
	<path d="M 1646.0,2376.0 L 1644.0,2378.0" style="stroke:#010101; fill:none;"/>
	<path d="M 1641.0,2378.0 L 1643.0,2377.0" style="stroke:#010101; fill:none;"/>
	<path d="M 1639.0,2381.0 L 1642.0,2384.0" style="stroke:#010101; fill:none;"/>
	<path d="M 1638.0,2386.0 L 1626.0,2399.0" style="stroke:#010101; fill:none;"/>
	<path d="M 1631.0,2421.0 L 1674.0,2387.0" style="stroke:#010101; fill:none;"/>
	<path d="M 1637.0,2390.0 L 1632.0,2393.0 L 1632.0,2393.0" style="stroke:#010101; fill:none;"/>
	<path d="M 1685.0,2391.0 C 1681.64,2407.28 1676.4,2428.76 1666.0,2442.0 C 1656.52,2436.88 1642.59,2447.72 1637.0,2455.0 C 1643.67,2455.99 1651.74,2447.86 1657.0,2444.0" style="stroke:#010101; fill:none;"/>
	<path d="M 1629.0,2395.0 L 1634.0,2396.0" style="stroke:#010101; fill:none;"/>
	<path d="M 1675.0,2395.0 C 1665.27,2409.21 1645.35,2420.4 1632.0,2431.26 C 1626.68,2435.59 1619.98,2442.79 1613.0,2444.0 L 1612.0,2445.0 L 1611.0,2446.0" style="stroke:#010101; fill:none;"/>
	<path d="M 1672.0,2397.0 L 1672.0,2398.0" style="stroke:#010101; fill:none;"/>
	<path d="M 1632.0,2399.0 L 1629.0,2401.0" style="stroke:#010101; fill:none;"/>
	<path d="M 1628.0,2400.0 L 1629.0,2401.0" style="stroke:#010101; fill:none;"/>
	<path d="M 1625.0,2402.0 L 1590.0,2442.0" style="stroke:#010101; fill:none;"/>
	<path d="M 1589.0,2473.0 L 1641.0,2437.25 L 1678.0,2411.0" style="stroke:#010101; fill:none;"/>
	<path d="M 1633.0,2417.0 L 1635.0,2419.0" style="stroke:#010101; fill:none;"/>
	<path d="M 1592.0,2473.0 C 1599.41,2474.15 1609.01,2464.57 1615.0,2460.5 C 1629.16,2450.89 1642.94,2440.73 1657.0,2430.98 C 1663.08,2426.76 1668.64,2420.73 1676.0,2419.0" style="stroke:#010101; fill:none;"/>
	<path d="M 1662.0,2433.0 L 1656.0,2440.0" style="stroke:#010101; fill:none;"/>
	<path d="M 1665.0,2437.0 L 1663.0,2439.0" style="stroke:#010101; fill:none;"/>
	<path d="M 1619.0,2443.0 L 1618.0,2444.0" style="stroke:#010101; fill:none;"/>
	<path d="M 1666.0,2443.0 L 1661.0,2457.0 L 1664.0,2460.0 L 1679.0,2449.0" style="stroke:#010101; fill:none;"/>
	<path d="M 1557.0,2521.0 L 1615.0,2480.29 L 1665.0,2444.0" style="stroke:#010101; fill:none;"/>
	<path d="M 1607.0,2445.0 L 1607.0,2446.0" style="stroke:#010101; fill:none;"/>
	<path d="M 1616.0,2446.0 L 1589.0,2470.0" style="stroke:#010101; fill:none;"/>
	<path d="M 1670.0,2451.0 L 1664.0,2454.0" style="stroke:#010101; fill:none;"/>
	<path d="M 1594.0,2454.0 L 1596.0,2456.0" style="stroke:#010101; fill:none;"/>
	<path d="M 1637.0,2458.0 L 1635.0,2455.0 L 1637.0,2457.0" style="stroke:#010101; fill:none;"/>
	<path d="M 1634.0,2457.0 C 1632.8,2459.24 1632.76,2459.2 1635.0,2458.0" style="stroke:#010101; fill:none;"/>
	<path d="M 1677.0,2457.0 L 1640.0,2492.0 L 1642.0,2488.0" style="stroke:#010101; fill:none;"/>
	<path d="M 1633.0,2461.0 L 1632.0,2459.0" style="stroke:#010101; fill:none;"/>
	<path d="M 1591.0,2459.0 L 1593.0,2459.0" style="stroke:#010101; fill:none;"/>
	<path d="M 1660.0,2459.0 L 1663.0,2460.0" style="stroke:#010101; fill:none;"/>
	<path d="M 1630.0,2462.0 L 1629.0,2464.0 L 1627.0,2462.0 L 1629.0,2461.0" style="stroke:#010101; fill:none;"/>
	<path d="M 1553.0,2541.0 L 1606.0,2500.34 L 1659.0,2461.0" style="stroke:#010101; fill:none;"/>
	<path d="M 1623.0,2466.0 L 1619.0,2470.0 L 1627.0,2462.0" style="stroke:#010101; fill:none;"/>
	<path d="M 1628.0,2464.0 L 1625.0,2467.0" style="stroke:#010101; fill:none;"/>
	<path d="M 1652.0,2466.0 L 1651.0,2477.0" style="stroke:#010101; fill:none;"/>
	<path d="M 1618.0,2472.0 L 1614.0,2473.0 L 1618.0,2471.0" style="stroke:#010101; fill:none;"/>
	<path d="M 1578.0,2471.0 L 1573.0,2473.0 C 1574.64,2482.23 1554.5,2487.65 1559.0,2496.0 L 1558.0,2492.0" style="stroke:#010101; fill:none;"/>
	<path d="M 1589.0,2474.0 L 1588.0,2472.0" style="stroke:#010101; fill:none;"/>
	<path d="M 1572.0,2473.0 C 1557.54,2485.51 1537.64,2501.58 1520.0,2509.0" style="stroke:#010101; fill:none;"/>
	<path d="M 1586.0,2473.0 L 1583.0,2476.0 L 1586.0,2475.0" style="stroke:#010101; fill:none;"/>
	<path d="M 1576.0,2474.0 L 1575.0,2475.0" style="stroke:#010101; fill:none;"/>
	<path d="M 1609.0,2477.0 L 1605.0,2478.0 L 1613.0,2474.0" style="stroke:#010101; fill:none;"/>
	<path d="M 1589.0,2475.0 L 1593.0,2475.0" style="stroke:#010101; fill:none;"/>
	<path d="M 1586.0,2477.0 L 1590.0,2477.0" style="stroke:#010101; fill:none;"/>
	<path d="M 1580.0,2481.0 L 1582.0,2481.0 L 1581.0,2482.0 L 1583.0,2477.0" style="stroke:#010101; fill:none;"/>
	<path d="M 1582.0,2478.0 L 1587.0,2479.0" style="stroke:#010101; fill:none;"/>
	<path d="M 1593.0,2490.0 L 1590.0,2488.0 L 1605.0,2478.0" style="stroke:#010101; fill:none;"/>
	<path d="M 1581.0,2483.0 C 1578.13,2483.27 1577.28,2482.49 1579.0,2480.0" style="stroke:#010101; fill:none;"/>
	<path d="M 1606.0,2480.0 L 1597.0,2486.0" style="stroke:#010101; fill:none;"/>
	<path d="M 1641.0,2497.0 L 1639.0,2496.0 C 1648.84,2494.95 1656.87,2486.06 1665.0,2481.0" style="stroke:#010101; fill:none;"/>
	<path d="M 1573.0,2487.0 C 1573.36,2484.32 1573.82,2485.03 1575.0,2487.0 L 1571.0,2487.0 L 1576.0,2482.0" style="stroke:#010101; fill:none;"/>
	<path d="M 1604.0,2482.0 L 1607.0,2485.0" style="stroke:#010101; fill:none;"/>
	<path d="M 1578.0,2485.0 L 1576.0,2487.0" style="stroke:#010101; fill:none;"/>
	<path d="M 1593.0,2487.0 L 1596.0,2485.0" style="stroke:#010101; fill:none;"/>
	<path d="M 1570.0,2486.0 L 1568.0,2491.0 L 1569.0,2488.0" style="stroke:#010101; fill:none;"/>
	<path d="M 1596.0,2488.0 L 1599.0,2491.0" style="stroke:#010101; fill:none;"/>
	<path d="M 1562.0,2489.0 L 1564.0,2495.0 L 1565.0,2491.0" style="stroke:#010101; fill:none;"/>
	<path d="M 1572.0,2489.0 L 1571.0,2490.0" style="stroke:#010101; fill:none;"/>
	<path d="M 1590.0,2492.0 L 1588.0,2489.0 L 1590.0,2491.0" style="stroke:#010101; fill:none;"/>
	<path d="M 1560.0,2491.0 L 1562.0,2494.0" style="stroke:#010101; fill:none;"/>
	<path d="M 1587.0,2495.0 C 1583.13,2494.25 1584.38,2491.94 1588.0,2494.0 L 1588.0,2494.0" style="stroke:#010101; fill:none;"/>
	<path d="M 1638.0,2499.0 C 1630.98,2504.21 1611.3,2521.02 1603.0,2517.0 C 1612.34,2508.92 1627.01,2493.85 1639.0,2491.0" style="stroke:#010101; fill:none;"/>
	<path d="M 1588.0,2492.0 L 1588.0,2494.0" style="stroke:#010101; fill:none;"/>
	<path d="M 1640.0,2492.0 L 1640.0,2495.0" style="stroke:#010101; fill:none;"/>
	<path d="M 1521.0,2530.0 C 1536.21,2522.25 1550.77,2514.15 1565.0,2504.67 C 1570.1,2501.26 1576.65,2494.63 1583.0,2496.0" style="stroke:#010101; fill:none;"/>
	<path d="M 1557.0,2495.0 L 1524.0,2519.0" style="stroke:#010101; fill:none;"/>
	<path d="M 1583.0,2497.0 L 1518.0,2540.0" style="stroke:#010101; fill:none;"/>
	<path d="M 1634.0,2504.0 L 1625.0,2519.0" style="stroke:#010101; fill:none;"/>
	<path d="M 962.0,2539.0 C 978.215,2536.61 996.653,2527.34 1011.0,2519.61 C 1017.95,2515.87 1022.15,2511.23 1030.0,2509.0" style="stroke:#010101; fill:none;"/>
	<path d="M 1535.0,2510.0 L 1536.0,2511.0" style="stroke:#010101; fill:none;"/>
	<path d="M 1568.0,2543.0 L 1603.0,2517.0" style="stroke:#010101; fill:none;"/>
	<path d="M 1602.0,2521.0 L 1605.0,2520.0" style="stroke:#010101; fill:none;"/>
	<path d="M 1007.0,2538.0 C 995.85,2550.32 975.28,2554.11 960.0,2559.0" style="stroke:#010101; fill:none;"/>
	<path d="M 1006.0,2552.0 L 986.0,2562.45 L 950.0,2575.0" style="stroke:#010101; fill:none;"/>
	<path d="M 961.0,2584.0 C 974.65,2582.24 987.721,2578.02 1000.0,2572.0" style="stroke:#010101; fill:none;"/>
	<path d="M 1542.0,2573.0 L 1541.0,2574.0" style="stroke:#010101; fill:none;"/>
	<path d="M 1164.0,2574.0 L 1129.0,2594.0" style="stroke:#010101; fill:none;"/>
	<path d="M 1530.0,2580.0 L 1529.0,2581.0" style="stroke:#010101; fill:none;"/>
	<path d="M 1521.0,2585.0 L 1520.0,2586.0" style="stroke:#010101; fill:none;"/>
	<path d="M 1513.0,2590.0 L 1515.0,2589.0" style="stroke:#010101; fill:none;"/>
	<path d="M 1509.0,2592.0 L 1508.0,2593.0" style="stroke:#010101; fill:none;"/>
	<path d="M 1504.0,2595.0 L 1503.0,2596.0" style="stroke:#010101; fill:none;"/>
	<path d="M 1150.0,2596.0 L 1115.0,2610.0" style="stroke:#010101; fill:none;"/>
	<path d="M 972.0,2609.0 L 996.0,2598.0" style="stroke:#010101; fill:none;"/>
	<path d="M 1160.0,2600.0 L 1160.0,2601.0" style="stroke:#010101; fill:none;"/>
	<path d="M 1159.0,2603.0 C 1148.09,2615.18 1127.43,2619.81 1112.0,2623.0" style="stroke:#010101; fill:none;"/>
	<path d="M 1484.0,2609.0 L 1490.0,2604.0" style="stroke:#010101; fill:none;"/>
	<path d="M 977.0,2616.0 L 994.0,2610.0" style="stroke:#010101; fill:none;"/>
	<path d="M 1162.0,2613.0 C 1156.24,2623.13 1138.8,2628.5 1128.0,2631.0" style="stroke:#010101; fill:none;"/>
	<path d="M 336.0,3189.0 C 375.781,3168.25 417.308,3151.79 456.0,3128.45 C 469.947,3120.04 484.937,3112.0 497.0,3100.91 C 519.409,3080.29 521.225,3050.46 538.76,3027.0 C 557.102,3002.46 589.632,2988.65 616.0,2974.64 C 635.224,2964.43 654.45,2954.02 675.0,2946.63 C 698.317,2938.25 723.146,2934.38 747.0,2927.85 C 755.697,2925.47 763.405,2920.63 772.0,2918.21 C 805.228,2908.87 838.166,2900.03 870.0,2886.35 C 925.49,2862.49 982.919,2840.6 1037.0,2813.75 C 1082.95,2790.94 1126.36,2762.72 1173.0,2741.31 C 1219.15,2720.12 1267.95,2705.44 1315.0,2686.6 C 1345.3,2674.47 1376.34,2663.31 1406.0,2649.69 C 1429.14,2639.07 1451.47,2626.79 1475.0,2617.0" style="stroke:#010101; fill:none;"/>
	<path d="M 1170.0,2629.0 C 1153.42,2644.82 1124.38,2651.04 1102.0,2652.0" style="stroke:#010101; fill:none;"/>
	<path d="M 1017.0,2631.0 L 1023.0,2632.0" style="stroke:#010101; fill:none;"/>
	<path d="M 1102.0,2637.0 L 1126.0,2632.0" style="stroke:#010101; fill:none;"/>
	<path d="M 1089.0,2655.0 L 1100.0,2653.0" style="stroke:#010101; fill:none;"/>
	<path d="M 845.0,2656.0 L 900.0,2662.0" style="stroke:#010101; fill:none;"/>
	<path d="M 1071.0,2659.0 L 1118.0,2656.0" style="stroke:#010101; fill:none;"/>
	<path d="M 776.0,2661.0 C 789.188,2664.02 803.486,2667.22 817.0,2664.0" style="stroke:#010101; fill:none;"/>
	<path d="M 496.0,2839.0 L 505.0,2829.0" style="stroke:#010101; fill:none;"/>
	<path d="M 494.0,2841.0 L 494.0,2842.0" style="stroke:#010101; fill:none;"/>
	<path d="M 680.0,2843.0 C 676.478,2850.49 668.261,2853.89 661.0,2857.0 C 646.295,2863.3 630.938,2868.24 616.0,2874.0" style="stroke:#010101; fill:none;"/>
	<path d="M 490.0,2852.0 L 468.0,2878.0" style="stroke:#010101; fill:none;"/>
	<path d="M 596.0,2889.0 L 652.0,2874.0" style="stroke:#010101; fill:none;"/>
	<path d="M 453.0,2905.0 C 461.755,2896.22 469.601,2882.32 481.0,2877.0" style="stroke:#010101; fill:none;"/>
	<path d="M 575.0,2905.0 L 623.0,2892.0" style="stroke:#010101; fill:none;"/>
	<path d="M 474.0,2893.0 C 448.988,2912.91 435.38,2947.93 418.0,2974.0" style="stroke:#010101; fill:none;"/>
	<path d="M 574.0,2925.0 L 647.0,2897.0" style="stroke:#010101; fill:none;"/>
	<path d="M 575.0,2942.0 C 589.151,2929.09 610.988,2920.13 629.0,2914.0" style="stroke:#010101; fill:none;"/>
	<path d="M 751.0,2918.0 L 762.0,2922.0" style="stroke:#010101; fill:none;"/>
	<path d="M 456.0,2945.0 L 410.0,3009.0" style="stroke:#010101; fill:none;"/>
	<path d="M 563.0,2964.0 L 604.0,2949.0" style="stroke:#010101; fill:none;"/>
	<path d="M 593.0,2972.0 L 567.0,2990.0" style="stroke:#010101; fill:none;"/>
	<path d="M 417.0,2977.0 L 415.0,2981.0" style="stroke:#010101; fill:none;"/>
	<path d="M 377.0,3066.0 L 351.0,3147.0" style="stroke:#010101; fill:none;"/>
</svg>
