<?xml version="1.0" ?>
<svg baseProfile="full" height="960" version="1.1" width="1024" xmlns="http://www.w3.org/2000/svg" xmlns:ev="http://www.w3.org/2001/xml-events" xmlns:xlink="http://www.w3.org/1999/xlink">
	<defs/>
	<path d="M 670.0,81.0 L 670.0,82.0" style="stroke:#060106; fill:none;"/>
	<path d="M 626.0,84.0 L 625.0,85.0" style="stroke:#060106; fill:none;"/>
	<path d="M 673.0,84.0 L 673.0,85.0" style="stroke:#060106; fill:none;"/>
	<path d="M 637.0,86.0 L 637.0,87.0" style="stroke:#060106; fill:none;"/>
	<path d="M 644.0,86.0 L 644.0,87.0" style="stroke:#060106; fill:none;"/>
	<path d="M 645.0,89.0 L 646.0,89.0" style="stroke:#060106; fill:none;"/>
	<path d="M 651.0,89.0 L 652.0,89.0" style="stroke:#060106; fill:none;"/>
	<path d="M 661.0,89.0 L 662.0,89.0" style="stroke:#060106; fill:none;"/>
	<path d="M 682.0,89.0 L 684.0,92.0" style="stroke:#060106; fill:none;"/>
	<path d="M 675.0,92.0 L 676.0,92.0" style="stroke:#060106; fill:none;"/>
	<path d="M 703.0,94.0 L 704.0,94.0" style="stroke:#060106; fill:none;"/>
	<path d="M 687.0,96.0 L 689.0,97.0" style="stroke:#060106; fill:none;"/>
	<path d="M 571.0,104.0 L 571.0,106.0" style="stroke:#060106; fill:none;"/>
	<path d="M 683.0,104.0 L 683.0,105.0" style="stroke:#060106; fill:none;"/>
	<path d="M 698.0,106.0 L 698.0,107.0" style="stroke:#060106; fill:none;"/>
	<path d="M 721.0,106.0 L 722.0,108.0" style="stroke:#060106; fill:none;"/>
	<path d="M 686.0,107.0 L 688.0,110.0" style="stroke:#060106; fill:none;"/>
	<path d="M 562.0,108.0 L 559.0,111.0" style="stroke:#060106; fill:none;"/>
	<path d="M 713.0,109.0 L 714.0,109.0" style="stroke:#060106; fill:none;"/>
	<path d="M 715.0,111.0 L 716.0,113.0" style="stroke:#060106; fill:none;"/>
	<path d="M 707.0,127.0 L 707.0,129.0" style="stroke:#060106; fill:none;"/>
	<path d="M 716.0,129.0 L 718.0,131.0" style="stroke:#060106; fill:none;"/>
	<path d="M 739.0,130.0 L 739.0,132.0" style="stroke:#060106; fill:none;"/>
	<path d="M 713.0,135.0 L 714.0,136.0" style="stroke:#060106; fill:none;"/>
	<path d="M 722.0,136.0 L 723.0,137.0" style="stroke:#060106; fill:none;"/>
	<path d="M 719.0,142.0 L 719.0,143.0" style="stroke:#060106; fill:none;"/>
	<path d="M 722.0,146.0 L 724.0,148.0" style="stroke:#060106; fill:none;"/>
	<path d="M 722.0,151.0 L 722.0,152.0" style="stroke:#060106; fill:none;"/>
	<path d="M 761.0,156.0 L 761.0,157.0" style="stroke:#060106; fill:none;"/>
	<path d="M 763.0,161.0 L 764.0,169.0" style="stroke:#060106; fill:none;"/>
	<path d="M 760.0,169.0 L 761.0,169.0" style="stroke:#060106; fill:none;"/>
	<path d="M 767.0,175.0 L 768.0,186.0" style="stroke:#060106; fill:none;"/>
	<path d="M 763.0,176.0 L 763.0,177.0" style="stroke:#060106; fill:none;"/>
	<path d="M 764.0,180.0 L 766.0,180.0" style="stroke:#060106; fill:none;"/>
	<path d="M 540.0,188.0 L 541.0,188.0" style="stroke:#060106; fill:none;"/>
	<path d="M 768.0,190.0 L 769.0,196.0" style="stroke:#060106; fill:none;"/>
	<path d="M 524.0,191.0 L 525.0,191.0" style="stroke:#060106; fill:none;"/>
	<path d="M 769.0,199.0 L 768.0,205.0" style="stroke:#060106; fill:none;"/>
	<path d="M 821.0,203.0 L 822.0,204.0" style="stroke:#060106; fill:none;"/>
	<path d="M 828.0,207.0 L 838.0,209.0" style="stroke:#060106; fill:none;"/>
	<path d="M 769.0,208.0 L 769.0,210.0" style="stroke:#060106; fill:none;"/>
	<path d="M 816.0,210.0 L 816.0,211.0" style="stroke:#060106; fill:none;"/>
	<path d="M 843.0,210.0 L 849.0,210.0" style="stroke:#060106; fill:none;"/>
	<path d="M 794.0,212.0 L 794.0,213.0" style="stroke:#060106; fill:none;"/>
	<path d="M 501.0,214.0 L 502.0,214.0" style="stroke:#060106; fill:none;"/>
	<path d="M 467.0,217.0 L 466.0,218.0" style="stroke:#060106; fill:none;"/>
	<path d="M 485.0,221.0 L 491.0,218.0" style="stroke:#060106; fill:none;"/>
	<path d="M 769.0,219.0 L 769.0,220.0" style="stroke:#060106; fill:none;"/>
	<path d="M 819.0,220.0 L 819.0,223.0" style="stroke:#060106; fill:none;"/>
	<path d="M 788.0,221.0 L 788.0,222.0" style="stroke:#060106; fill:none;"/>
	<path d="M 794.0,222.0 L 795.0,222.0" style="stroke:#060106; fill:none;"/>
	<path d="M 799.0,222.0 L 798.0,223.0" style="stroke:#060106; fill:none;"/>
	<path d="M 473.0,224.0 L 473.0,225.0" style="stroke:#060106; fill:none;"/>
	<path d="M 478.0,224.0 L 477.0,225.0" style="stroke:#060106; fill:none;"/>
	<path d="M 451.0,225.0 L 452.0,225.0" style="stroke:#060106; fill:none;"/>
	<path d="M 767.0,225.0 L 768.0,230.0" style="stroke:#060106; fill:none;"/>
	<path d="M 469.0,226.0 L 468.0,228.0" style="stroke:#060106; fill:none;"/>
	<path d="M 466.0,227.0 L 464.0,229.0" style="stroke:#060106; fill:none;"/>
	<path d="M 775.0,231.0 L 775.0,232.0" style="stroke:#060106; fill:none;"/>
	<path d="M 768.0,233.0 L 769.0,233.0" style="stroke:#060106; fill:none;"/>
	<path d="M 822.0,233.0 L 823.0,233.0" style="stroke:#060106; fill:none;"/>
	<path d="M 453.0,234.0 L 452.0,235.0" style="stroke:#060106; fill:none;"/>
	<path d="M 450.0,235.0 L 447.0,237.0" style="stroke:#060106; fill:none;"/>
	<path d="M 774.0,235.0 L 775.0,235.0" style="stroke:#060106; fill:none;"/>
	<path d="M 768.0,238.0 L 769.0,238.0" style="stroke:#060106; fill:none;"/>
	<path d="M 442.0,240.0 L 443.0,240.0" style="stroke:#060106; fill:none;"/>
	<path d="M 768.0,240.0 L 768.0,241.0" style="stroke:#060106; fill:none;"/>
	<path d="M 466.0,241.0 L 462.0,242.0" style="stroke:#060106; fill:none;"/>
	<path d="M 431.0,245.0 L 433.0,245.0" style="stroke:#060106; fill:none;"/>
	<path d="M 448.0,251.0 L 450.0,250.0" style="stroke:#060106; fill:none;"/>
	<path d="M 417.0,253.0 L 419.0,254.0" style="stroke:#060106; fill:none;"/>
	<path d="M 445.0,253.0 L 446.0,253.0" style="stroke:#060106; fill:none;"/>
	<path d="M 439.0,255.0 L 435.0,258.0" style="stroke:#060106; fill:none;"/>
	<path d="M 767.0,256.0 L 768.0,256.0" style="stroke:#060106; fill:none;"/>
	<path d="M 410.0,257.0 L 410.0,259.0" style="stroke:#060106; fill:none;"/>
	<path d="M 828.0,257.0 L 828.0,260.0" style="stroke:#060106; fill:none;"/>
	<path d="M 799.0,258.0 L 799.0,261.0" style="stroke:#060106; fill:none;"/>
	<path d="M 430.0,262.0 L 434.0,260.0" style="stroke:#060106; fill:none;"/>
	<path d="M 407.0,261.0 L 408.0,261.0" style="stroke:#060106; fill:none;"/>
	<path d="M 404.0,262.0 L 404.0,264.0" style="stroke:#060106; fill:none;"/>
	<path d="M 316.0,265.0 L 324.0,264.0" style="stroke:#060106; fill:none;"/>
	<path d="M 313.0,266.0 L 313.0,268.0" style="stroke:#060106; fill:none;"/>
	<path d="M 426.0,266.0 L 425.0,267.0" style="stroke:#060106; fill:none;"/>
	<path d="M 797.0,266.0 L 799.0,268.0" style="stroke:#060106; fill:none;"/>
	<path d="M 311.0,268.0 L 308.0,270.0" style="stroke:#060106; fill:none;"/>
	<path d="M 767.0,268.0 L 768.0,269.0" style="stroke:#060106; fill:none;"/>
	<path d="M 829.0,268.0 L 829.0,269.0" style="stroke:#060106; fill:none;"/>
	<path d="M 394.0,271.0 L 392.0,273.0" style="stroke:#060106; fill:none;"/>
	<path d="M 788.0,271.0 L 788.0,272.0" style="stroke:#060106; fill:none;"/>
	<path d="M 416.0,272.0 L 416.0,273.0" style="stroke:#060106; fill:none;"/>
	<path d="M 797.0,273.0 L 799.0,273.0" style="stroke:#060106; fill:none;"/>
	<path d="M 389.0,275.0 L 388.0,276.0" style="stroke:#060106; fill:none;"/>
	<path d="M 411.0,275.0 L 410.0,276.0" style="stroke:#060106; fill:none;"/>
	<path d="M 788.0,275.0 L 787.0,276.0" style="stroke:#060106; fill:none;"/>
	<path d="M 797.0,277.0 L 796.0,278.0" style="stroke:#060106; fill:none;"/>
	<path d="M 800.0,277.0 L 800.0,279.0" style="stroke:#060106; fill:none;"/>
	<path d="M 386.0,279.0 L 387.0,279.0" style="stroke:#060106; fill:none;"/>
	<path d="M 404.0,279.0 L 405.0,279.0" style="stroke:#060106; fill:none;"/>
	<path d="M 297.0,281.0 L 293.0,286.0" style="stroke:#060106; fill:none;"/>
	<path d="M 833.0,285.0 L 834.0,286.0" style="stroke:#060106; fill:none;"/>
	<path d="M 293.0,288.0 L 280.0,302.0" style="stroke:#060106; fill:none;"/>
	<path d="M 834.0,289.0 L 833.0,293.0" style="stroke:#060106; fill:none;"/>
	<path d="M 490.0,294.0 L 490.0,295.0" style="stroke:#060106; fill:none;"/>
	<path d="M 312.0,295.0 L 313.0,295.0" style="stroke:#060106; fill:none;"/>
	<path d="M 310.0,296.0 L 306.0,300.0" style="stroke:#060106; fill:none;"/>
	<path d="M 381.0,298.0 L 384.0,296.0" style="stroke:#060106; fill:none;"/>
	<path d="M 497.0,296.0 L 497.0,297.0" style="stroke:#060106; fill:none;"/>
	<path d="M 325.0,297.0 L 324.0,298.0" style="stroke:#060106; fill:none;"/>
	<path d="M 802.0,299.0 L 803.0,299.0" style="stroke:#060106; fill:none;"/>
	<path d="M 378.0,300.0 L 379.0,301.0" style="stroke:#060106; fill:none;"/>
	<path d="M 302.0,302.0 L 299.0,303.0" style="stroke:#060106; fill:none;"/>
	<path d="M 483.0,302.0 L 484.0,302.0" style="stroke:#060106; fill:none;"/>
	<path d="M 488.0,304.0 L 488.0,305.0" style="stroke:#060106; fill:none;"/>
	<path d="M 292.0,308.0 L 295.0,306.0" style="stroke:#060106; fill:none;"/>
	<path d="M 276.0,307.0 L 274.0,309.0" style="stroke:#060106; fill:none;"/>
	<path d="M 542.0,309.0 L 543.0,310.0" style="stroke:#060106; fill:none;"/>
	<path d="M 272.0,310.0 L 272.0,311.0" style="stroke:#060106; fill:none;"/>
	<path d="M 502.0,310.0 L 503.0,311.0" style="stroke:#060106; fill:none;"/>
	<path d="M 287.0,312.0 L 289.0,311.0" style="stroke:#060106; fill:none;"/>
	<path d="M 491.0,312.0 L 491.0,313.0" style="stroke:#060106; fill:none;"/>
	<path d="M 555.0,312.0 L 555.0,313.0" style="stroke:#060106; fill:none;"/>
	<path d="M 284.0,313.0 L 285.0,313.0" style="stroke:#060106; fill:none;"/>
	<path d="M 325.0,313.0 L 325.0,315.0" style="stroke:#060106; fill:none;"/>
	<path d="M 353.0,313.0 L 355.0,313.0" style="stroke:#060106; fill:none;"/>
	<path d="M 272.0,326.0 L 282.0,316.0" style="stroke:#060106; fill:none;"/>
	<path d="M 520.0,317.0 L 520.0,318.0" style="stroke:#060106; fill:none;"/>
	<path d="M 361.0,319.0 L 360.0,322.0" style="stroke:#060106; fill:none;"/>
	<path d="M 377.0,319.0 L 375.0,322.0" style="stroke:#060106; fill:none;"/>
	<path d="M 289.0,321.0 L 292.0,320.0" style="stroke:#060106; fill:none;"/>
	<path d="M 319.0,320.0 L 317.0,321.0" style="stroke:#060106; fill:none;"/>
	<path d="M 264.0,321.0 L 262.0,324.0" style="stroke:#060106; fill:none;"/>
	<path d="M 346.0,322.0 L 345.0,324.0" style="stroke:#060106; fill:none;"/>
	<path d="M 526.0,324.0 L 526.0,325.0" style="stroke:#060106; fill:none;"/>
	<path d="M 932.0,328.0 L 931.0,329.0" style="stroke:#060106; fill:none;"/>
	<path d="M 259.0,330.0 L 258.0,332.0" style="stroke:#060106; fill:none;"/>
	<path d="M 366.0,332.0 L 369.0,331.0" style="stroke:#060106; fill:none;"/>
	<path d="M 930.0,335.0 L 930.0,336.0" style="stroke:#060106; fill:none;"/>
	<path d="M 365.0,336.0 L 363.0,341.0" style="stroke:#060106; fill:none;"/>
	<path d="M 314.0,337.0 L 315.0,337.0" style="stroke:#060106; fill:none;"/>
	<path d="M 320.0,339.0 L 318.0,345.0" style="stroke:#060106; fill:none;"/>
	<path d="M 594.0,340.0 L 595.0,341.0" style="stroke:#060106; fill:none;"/>
	<path d="M 572.0,341.0 L 573.0,343.0" style="stroke:#060106; fill:none;"/>
	<path d="M 255.0,342.0 L 253.0,343.0" style="stroke:#060106; fill:none;"/>
	<path d="M 273.0,342.0 L 273.0,343.0" style="stroke:#060106; fill:none;"/>
	<path d="M 333.0,342.0 L 332.0,343.0" style="stroke:#060106; fill:none;"/>
	<path d="M 597.0,343.0 L 598.0,343.0" style="stroke:#060106; fill:none;"/>
	<path d="M 359.0,344.0 L 358.0,346.0" style="stroke:#060106; fill:none;"/>
	<path d="M 929.0,345.0 L 929.0,346.0" style="stroke:#060106; fill:none;"/>
	<path d="M 253.0,347.0 L 251.0,348.0" style="stroke:#060106; fill:none;"/>
	<path d="M 503.0,347.0 L 503.0,348.0" style="stroke:#060106; fill:none;"/>
	<path d="M 933.0,347.0 L 933.0,349.0" style="stroke:#060106; fill:none;"/>
	<path d="M 500.0,348.0 L 501.0,348.0" style="stroke:#060106; fill:none;"/>
	<path d="M 515.0,348.0 L 518.0,348.0" style="stroke:#060106; fill:none;"/>
	<path d="M 338.0,350.0 L 339.0,351.0" style="stroke:#060106; fill:none;"/>
	<path d="M 582.0,350.0 L 582.0,351.0" style="stroke:#060106; fill:none;"/>
	<path d="M 927.0,350.0 L 928.0,350.0" style="stroke:#060106; fill:none;"/>
	<path d="M 329.0,351.0 L 327.0,354.0" style="stroke:#060106; fill:none;"/>
	<path d="M 523.0,351.0 L 525.0,351.0" style="stroke:#060106; fill:none;"/>
	<path d="M 251.0,352.0 L 242.0,391.0" style="stroke:#060106; fill:none;"/>
	<path d="M 586.0,353.0 L 584.0,354.0" style="stroke:#060106; fill:none;"/>
	<path d="M 928.0,353.0 L 927.0,354.0" style="stroke:#060106; fill:none;"/>
	<path d="M 536.0,355.0 L 536.0,356.0" style="stroke:#060106; fill:none;"/>
	<path d="M 539.0,356.0 L 540.0,358.0" style="stroke:#060106; fill:none;"/>
	<path d="M 927.0,356.0 L 926.0,359.0" style="stroke:#060106; fill:none;"/>
	<path d="M 352.0,357.0 L 352.0,358.0" style="stroke:#060106; fill:none;"/>
	<path d="M 588.0,357.0 L 589.0,357.0" style="stroke:#060106; fill:none;"/>
	<path d="M 501.0,359.0 L 502.0,361.0" style="stroke:#060106; fill:none;"/>
	<path d="M 589.0,359.0 L 591.0,359.0" style="stroke:#060106; fill:none;"/>
	<path d="M 349.0,360.0 L 350.0,360.0" style="stroke:#060106; fill:none;"/>
	<path d="M 505.0,360.0 L 504.0,362.0" style="stroke:#060106; fill:none;"/>
	<path d="M 546.0,360.0 L 549.0,362.0" style="stroke:#060106; fill:none;"/>
	<path d="M 498.0,362.0 L 499.0,362.0" style="stroke:#060106; fill:none;"/>
	<path d="M 510.0,363.0 L 514.0,363.0 L 508.0,368.0" style="stroke:#060106; fill:none;"/>
	<path d="M 610.0,362.0 L 610.0,363.0" style="stroke:#060106; fill:none;"/>
	<path d="M 924.0,362.0 L 923.0,363.0" style="stroke:#060106; fill:none;"/>
	<path d="M 346.0,363.0 L 348.0,363.0" style="stroke:#060106; fill:none;"/>
	<path d="M 552.0,363.0 L 555.0,364.0" style="stroke:#060106; fill:none;"/>
	<path d="M 589.0,364.0 L 590.0,366.0" style="stroke:#060106; fill:none;"/>
	<path d="M 931.0,364.0 L 931.0,366.0 L 931.0,364.0" style="stroke:#060106; fill:none;"/>
	<path d="M 953.0,365.0 L 953.0,366.0" style="stroke:#060106; fill:none;"/>
	<path d="M 519.0,366.0 L 522.0,367.0 L 519.0,369.0" style="stroke:#060106; fill:none;"/>
	<path d="M 523.0,367.0 L 525.0,370.0" style="stroke:#060106; fill:none;"/>
	<path d="M 560.0,367.0 L 561.0,367.0" style="stroke:#060106; fill:none;"/>
	<path d="M 922.0,367.0 L 924.0,368.0" style="stroke:#060106; fill:none;"/>
	<path d="M 952.0,368.0 L 953.0,368.0" style="stroke:#060106; fill:none;"/>
	<path d="M 930.0,369.0 L 930.0,371.0" style="stroke:#060106; fill:none;"/>
	<path d="M 493.0,370.0 L 493.0,371.0" style="stroke:#060106; fill:none;"/>
	<path d="M 528.0,370.0 L 527.0,373.0" style="stroke:#060106; fill:none;"/>
	<path d="M 566.0,370.0 L 567.0,372.0" style="stroke:#060106; fill:none;"/>
	<path d="M 505.0,371.0 L 505.0,372.0" style="stroke:#060106; fill:none;"/>
	<path d="M 530.0,371.0 L 541.0,379.0" style="stroke:#060106; fill:none;"/>
	<path d="M 591.0,371.0 L 592.0,371.0" style="stroke:#060106; fill:none;"/>
	<path d="M 520.0,372.0 L 519.0,373.0" style="stroke:#060106; fill:none;"/>
	<path d="M 304.0,373.0 L 303.0,376.0" style="stroke:#060106; fill:none;"/>
	<path d="M 324.0,373.0 L 325.0,373.0" style="stroke:#060106; fill:none;"/>
	<path d="M 319.0,374.0 L 318.0,375.0" style="stroke:#060106; fill:none;"/>
	<path d="M 571.0,375.0 L 573.0,376.0" style="stroke:#060106; fill:none;"/>
	<path d="M 533.0,375.0 L 529.0,378.0" style="stroke:#060106; fill:none;"/>
	<path d="M 494.0,376.0 L 496.0,381.0" style="stroke:#060106; fill:none;"/>
	<path d="M 504.0,376.0 L 503.0,380.0" style="stroke:#060106; fill:none;"/>
	<path d="M 918.0,376.0 L 919.0,377.0" style="stroke:#060106; fill:none;"/>
	<path d="M 318.0,377.0 L 316.0,379.0" style="stroke:#060106; fill:none;"/>
	<path d="M 517.0,377.0 L 518.0,377.0" style="stroke:#060106; fill:none;"/>
	<path d="M 532.0,377.0 L 536.0,377.0" style="stroke:#060106; fill:none;"/>
	<path d="M 518.0,380.0 L 518.0,383.0" style="stroke:#060106; fill:none;"/>
	<path d="M 539.0,380.0 L 539.0,381.0" style="stroke:#060106; fill:none;"/>
	<path d="M 545.0,380.0 L 550.0,383.0" style="stroke:#060106; fill:none;"/>
	<path d="M 949.0,380.0 L 949.0,381.0" style="stroke:#060106; fill:none;"/>
	<path d="M 258.0,381.0 L 259.0,381.0" style="stroke:#060106; fill:none;"/>
	<path d="M 348.0,382.0 L 348.0,383.0" style="stroke:#060106; fill:none;"/>
	<path d="M 579.0,382.0 L 580.0,383.0" style="stroke:#060106; fill:none;"/>
	<path d="M 315.0,383.0 L 311.0,388.0" style="stroke:#060106; fill:none;"/>
	<path d="M 528.0,383.0 L 528.0,384.0" style="stroke:#060106; fill:none;"/>
	<path d="M 542.0,383.0 L 542.0,385.0" style="stroke:#060106; fill:none;"/>
	<path d="M 258.0,384.0 L 258.0,385.0" style="stroke:#060106; fill:none;"/>
	<path d="M 521.0,384.0 L 526.0,385.0" style="stroke:#060106; fill:none;"/>
	<path d="M 913.0,385.0 L 915.0,385.0" style="stroke:#060106; fill:none;"/>
	<path d="M 553.0,386.0 L 555.0,392.0 L 555.0,392.0" style="stroke:#060106; fill:none;"/>
	<path d="M 504.0,387.0 L 504.0,388.0" style="stroke:#060106; fill:none;"/>
	<path d="M 540.0,388.0 L 539.0,389.0" style="stroke:#060106; fill:none;"/>
	<path d="M 547.0,388.0 L 547.0,389.0" style="stroke:#060106; fill:none;"/>
	<path d="M 924.0,388.0 L 925.0,388.0" style="stroke:#060106; fill:none;"/>
	<path d="M 296.0,390.0 L 296.0,391.0" style="stroke:#060106; fill:none;"/>
	<path d="M 501.0,390.0 L 503.0,392.0" style="stroke:#060106; fill:none;"/>
	<path d="M 537.0,391.0 L 534.0,395.0" style="stroke:#060106; fill:none;"/>
	<path d="M 588.0,391.0 L 590.0,393.0" style="stroke:#060106; fill:none;"/>
	<path d="M 911.0,391.0 L 912.0,391.0" style="stroke:#060106; fill:none;"/>
	<path d="M 343.0,393.0 L 344.0,393.0" style="stroke:#060106; fill:none;"/>
	<path d="M 307.0,395.0 L 308.0,396.0" style="stroke:#060106; fill:none;"/>
	<path d="M 509.0,395.0 L 507.0,396.0" style="stroke:#060106; fill:none;"/>
	<path d="M 565.0,395.0 L 565.0,396.0" style="stroke:#060106; fill:none;"/>
	<path d="M 511.0,396.0 L 513.0,396.0" style="stroke:#060106; fill:none;"/>
	<path d="M 526.0,397.0 L 530.0,396.0" style="stroke:#060106; fill:none;"/>
	<path d="M 341.0,397.0 L 340.0,400.0" style="stroke:#060106; fill:none;"/>
	<path d="M 514.0,401.0 C 514.696,397.537 516.61,397.256 520.0,397.0" style="stroke:#060106; fill:none;"/>
	<path d="M 945.0,397.0 L 944.0,399.0" style="stroke:#060106; fill:none;"/>
	<path d="M 241.0,398.0 L 238.0,403.0" style="stroke:#060106; fill:none;"/>
	<path d="M 277.0,398.0 L 277.0,400.0" style="stroke:#060106; fill:none;"/>
	<path d="M 568.0,399.0 L 575.0,410.0" style="stroke:#060106; fill:none;"/>
	<path d="M 918.0,400.0 L 918.0,402.0" style="stroke:#060106; fill:none;"/>
	<path d="M 272.0,402.0 L 273.0,402.0" style="stroke:#060106; fill:none;"/>
	<path d="M 279.0,405.0 L 280.0,406.0" style="stroke:#060106; fill:none;"/>
	<path d="M 301.0,410.0 L 304.0,405.0" style="stroke:#060106; fill:none;"/>
	<path d="M 941.0,405.0 L 940.0,406.0" style="stroke:#060106; fill:none;"/>
	<path d="M 239.0,407.0 L 239.0,414.0" style="stroke:#060106; fill:none;"/>
	<path d="M 521.0,407.0 L 522.0,407.0" style="stroke:#060106; fill:none;"/>
	<path d="M 937.0,410.0 L 939.0,409.0" style="stroke:#060106; fill:none;"/>
	<path d="M 283.0,411.0 L 283.0,412.0" style="stroke:#060106; fill:none;"/>
	<path d="M 266.0,412.0 L 264.0,415.0" style="stroke:#060106; fill:none;"/>
	<path d="M 299.0,412.0 L 291.0,426.0" style="stroke:#060106; fill:none;"/>
	<path d="M 578.0,413.0 L 580.0,416.0" style="stroke:#060106; fill:none;"/>
	<path d="M 533.0,414.0 L 535.0,414.0" style="stroke:#060106; fill:none;"/>
	<path d="M 238.0,415.0 L 237.0,421.0 L 238.0,419.0" style="stroke:#060106; fill:none;"/>
	<path d="M 934.0,417.0 L 933.0,420.0" style="stroke:#060106; fill:none;"/>
	<path d="M 583.0,421.0 L 588.0,425.0" style="stroke:#060106; fill:none;"/>
	<path d="M 259.0,420.0 L 260.0,420.0" style="stroke:#060106; fill:none;"/>
	<path d="M 547.0,420.0 L 548.0,421.0" style="stroke:#060106; fill:none;"/>
	<path d="M 237.0,421.0 L 237.0,430.0" style="stroke:#060106; fill:none;"/>
	<path d="M 580.0,422.0 L 580.0,423.0" style="stroke:#060106; fill:none;"/>
	<path d="M 930.0,424.0 L 929.0,426.0" style="stroke:#060106; fill:none;"/>
	<path d="M 588.0,429.0 L 588.0,430.0" style="stroke:#060106; fill:none;"/>
	<path d="M 568.0,430.0 L 573.0,430.0" style="stroke:#060106; fill:none;"/>
	<path d="M 592.0,430.0 L 593.0,432.0" style="stroke:#060106; fill:none;"/>
	<path d="M 580.0,435.0 L 581.0,435.0" style="stroke:#060106; fill:none;"/>
	<path d="M 584.0,436.0 L 589.0,437.0 L 590.0,436.0" style="stroke:#060106; fill:none;"/>
	<path d="M 237.0,437.0 L 238.0,437.0" style="stroke:#060106; fill:none;"/>
	<path d="M 284.0,438.0 L 286.0,438.0" style="stroke:#060106; fill:none;"/>
	<path d="M 239.0,442.0 L 239.0,444.0" style="stroke:#060106; fill:none;"/>
	<path d="M 284.0,442.0 L 284.0,444.0" style="stroke:#060106; fill:none;"/>
	<path d="M 241.0,447.0 L 244.0,452.0" style="stroke:#060106; fill:none;"/>
	<path d="M 281.0,448.0 L 275.0,456.0" style="stroke:#060106; fill:none;"/>
	<path d="M 244.0,454.0 L 246.0,454.0" style="stroke:#060106; fill:none;"/>
	<path d="M 913.0,454.0 L 912.0,456.0" style="stroke:#060106; fill:none;"/>
	<path d="M 728.0,455.0 L 732.0,457.0" style="stroke:#060106; fill:none;"/>
	<path d="M 247.0,458.0 L 248.0,459.0" style="stroke:#060106; fill:none;"/>
	<path d="M 714.0,458.0 L 715.0,458.0" style="stroke:#060106; fill:none;"/>
	<path d="M 725.0,458.0 L 722.0,459.0" style="stroke:#060106; fill:none;"/>
	<path d="M 736.0,459.0 L 737.0,459.0" style="stroke:#060106; fill:none;"/>
	<path d="M 273.0,460.0 L 272.0,461.0" style="stroke:#060106; fill:none;"/>
	<path d="M 728.0,461.0 L 731.0,462.0" style="stroke:#060106; fill:none;"/>
	<path d="M 751.0,463.0 L 751.0,465.0" style="stroke:#060106; fill:none;"/>
	<path d="M 713.0,464.0 L 714.0,464.0" style="stroke:#060106; fill:none;"/>
	<path d="M 257.0,465.0 L 256.0,466.0" style="stroke:#060106; fill:none;"/>
	<path d="M 908.0,466.0 L 908.0,468.0" style="stroke:#060106; fill:none;"/>
	<path d="M 253.0,467.0 L 253.0,468.0" style="stroke:#060106; fill:none;"/>
	<path d="M 257.0,469.0 L 258.0,472.0" style="stroke:#060106; fill:none;"/>
	<path d="M 269.0,469.0 L 262.0,474.0" style="stroke:#060106; fill:none;"/>
	<path d="M 603.0,470.0 L 602.0,471.0" style="stroke:#060106; fill:none;"/>
	<path d="M 764.0,474.0 L 766.0,475.0" style="stroke:#060106; fill:none;"/>
	<path d="M 908.0,474.0 L 909.0,475.0" style="stroke:#060106; fill:none;"/>
	<path d="M 905.0,478.0 L 907.0,479.0" style="stroke:#060106; fill:none;"/>
	<path d="M 671.0,479.0 L 671.0,480.0" style="stroke:#060106; fill:none;"/>
	<path d="M 907.0,481.0 L 906.0,482.0" style="stroke:#060106; fill:none;"/>
	<path d="M 584.0,482.0 L 585.0,483.0" style="stroke:#060106; fill:none;"/>
	<path d="M 261.0,483.0 L 260.0,484.0" style="stroke:#060106; fill:none;"/>
	<path d="M 901.0,483.0 L 902.0,483.0" style="stroke:#060106; fill:none;"/>
	<path d="M 688.0,486.0 L 692.0,485.0" style="stroke:#060106; fill:none;"/>
	<path d="M 697.0,486.0 L 697.0,487.0" style="stroke:#060106; fill:none;"/>
	<path d="M 905.0,486.0 L 906.0,486.0" style="stroke:#060106; fill:none;"/>
	<path d="M 703.0,488.0 L 704.0,488.0" style="stroke:#060106; fill:none;"/>
	<path d="M 898.0,491.0 L 898.0,492.0" style="stroke:#060106; fill:none;"/>
	<path d="M 761.0,493.0 L 762.0,494.0" style="stroke:#060106; fill:none;"/>
	<path d="M 256.0,494.0 L 255.0,495.0" style="stroke:#060106; fill:none;"/>
	<path d="M 764.0,494.0 L 765.0,494.0" style="stroke:#060106; fill:none;"/>
	<path d="M 896.0,495.0 L 897.0,496.0" style="stroke:#060106; fill:none;"/>
	<path d="M 692.0,497.0 L 688.0,499.0" style="stroke:#060106; fill:none;"/>
	<path d="M 763.0,498.0 L 764.0,498.0" style="stroke:#060106; fill:none;"/>
	<path d="M 696.0,499.0 L 697.0,499.0" style="stroke:#060106; fill:none;"/>
	<path d="M 700.0,499.0 L 704.0,501.0" style="stroke:#060106; fill:none;"/>
	<path d="M 766.0,499.0 L 767.0,499.0" style="stroke:#060106; fill:none;"/>
	<path d="M 694.0,500.0 L 689.0,503.0" style="stroke:#060106; fill:none;"/>
	<path d="M 758.0,500.0 L 761.0,501.0" style="stroke:#060106; fill:none;"/>
	<path d="M 894.0,500.0 L 893.0,505.0" style="stroke:#060106; fill:none;"/>
	<path d="M 897.0,500.0 L 898.0,500.0" style="stroke:#060106; fill:none;"/>
	<path d="M 764.0,502.0 L 764.0,503.0" style="stroke:#060106; fill:none;"/>
	<path d="M 685.0,504.0 L 685.0,505.0" style="stroke:#060106; fill:none;"/>
	<path d="M 710.0,504.0 L 713.0,505.0" style="stroke:#060106; fill:none;"/>
	<path d="M 767.0,504.0 L 767.0,505.0" style="stroke:#060106; fill:none;"/>
	<path d="M 249.0,505.0 L 252.0,506.0" style="stroke:#060106; fill:none;"/>
	<path d="M 702.0,505.0 L 702.0,506.0" style="stroke:#060106; fill:none;"/>
	<path d="M 695.0,509.0 L 697.0,508.0" style="stroke:#060106; fill:none;"/>
	<path d="M 716.0,508.0 L 717.0,508.0" style="stroke:#060106; fill:none;"/>
	<path d="M 890.0,508.0 L 887.0,515.0" style="stroke:#060106; fill:none;"/>
	<path d="M 243.0,525.0 C 244.201,519.811 245.175,511.698 250.0,509.0" style="stroke:#060106; fill:none;"/>
	<path d="M 662.0,512.0 L 660.0,516.0" style="stroke:#060106; fill:none;"/>
	<path d="M 777.0,512.0 L 778.0,512.0" style="stroke:#060106; fill:none;"/>
	<path d="M 817.0,512.0 L 817.0,513.0" style="stroke:#060106; fill:none;"/>
	<path d="M 725.0,513.0 L 726.0,513.0" style="stroke:#060106; fill:none;"/>
	<path d="M 770.0,514.0 L 776.0,517.0" style="stroke:#060106; fill:none;"/>
	<path d="M 691.0,515.0 L 690.0,517.0" style="stroke:#060106; fill:none;"/>
	<path d="M 782.0,515.0 L 783.0,516.0" style="stroke:#060106; fill:none;"/>
	<path d="M 730.0,516.0 L 735.0,527.0" style="stroke:#060106; fill:none;"/>
	<path d="M 681.0,517.0 L 684.0,519.0" style="stroke:#060106; fill:none;"/>
	<path d="M 786.0,518.0 L 788.0,519.0" style="stroke:#060106; fill:none;"/>
	<path d="M 886.0,518.0 L 880.0,530.0" style="stroke:#060106; fill:none;"/>
	<path d="M 780.0,519.0 L 781.0,521.0" style="stroke:#060106; fill:none;"/>
	<path d="M 705.0,524.0 L 710.0,520.0" style="stroke:#060106; fill:none;"/>
	<path d="M 716.0,521.0 L 718.0,522.0 L 714.0,525.0" style="stroke:#060106; fill:none;"/>
	<path d="M 785.0,521.0 L 787.0,523.0" style="stroke:#060106; fill:none;"/>
	<path d="M 798.0,521.0 L 799.0,521.0" style="stroke:#060106; fill:none;"/>
	<path d="M 746.0,522.0 L 746.0,523.0" style="stroke:#060106; fill:none;"/>
	<path d="M 717.0,523.0 L 719.0,526.0" style="stroke:#060106; fill:none;"/>
	<path d="M 731.0,523.0 L 731.0,526.0" style="stroke:#060106; fill:none;"/>
	<path d="M 737.0,524.0 L 754.0,546.0" style="stroke:#060106; fill:none;"/>
	<path d="M 748.0,524.0 L 748.0,525.0" style="stroke:#060106; fill:none;"/>
	<path d="M 813.0,524.0 L 814.0,525.0" style="stroke:#060106; fill:none;"/>
	<path d="M 712.0,525.0 L 712.0,526.0" style="stroke:#060106; fill:none;"/>
	<path d="M 804.0,526.0 L 805.0,527.0" style="stroke:#060106; fill:none;"/>
	<path d="M 658.0,527.0 L 657.0,529.0" style="stroke:#060106; fill:none;"/>
	<path d="M 706.0,527.0 L 707.0,530.0" style="stroke:#060106; fill:none;"/>
	<path d="M 750.0,527.0 L 750.0,529.0" style="stroke:#060106; fill:none;"/>
	<path d="M 738.0,528.0 L 739.0,529.0" style="stroke:#060106; fill:none;"/>
	<path d="M 794.0,529.0 L 793.0,530.0" style="stroke:#060106; fill:none;"/>
	<path d="M 819.0,529.0 L 823.0,540.0" style="stroke:#060106; fill:none;"/>
	<path d="M 241.0,530.0 L 240.0,534.0" style="stroke:#060106; fill:none;"/>
	<path d="M 803.0,531.0 L 805.0,531.0" style="stroke:#060106; fill:none;"/>
	<path d="M 795.0,531.0 L 799.0,535.0" style="stroke:#060106; fill:none;"/>
	<path d="M 713.0,532.0 L 714.0,533.0" style="stroke:#060106; fill:none;"/>
	<path d="M 810.0,532.0 L 810.0,533.0" style="stroke:#060106; fill:none;"/>
	<path d="M 655.0,534.0 L 656.0,534.0" style="stroke:#060106; fill:none;"/>
	<path d="M 754.0,535.0 L 756.0,536.0" style="stroke:#060106; fill:none;"/>
	<path d="M 820.0,534.0 L 821.0,535.0" style="stroke:#060106; fill:none;"/>
	<path d="M 877.0,536.0 L 877.0,537.0" style="stroke:#060106; fill:none;"/>
	<path d="M 654.0,538.0 L 652.0,542.0" style="stroke:#060106; fill:none;"/>
	<path d="M 728.0,538.0 L 722.0,544.0" style="stroke:#060106; fill:none;"/>
	<path d="M 800.0,541.0 L 801.0,541.0" style="stroke:#060106; fill:none;"/>
	<path d="M 805.0,541.0 L 806.0,541.0" style="stroke:#060106; fill:none;"/>
	<path d="M 238.0,543.0 L 239.0,544.0" style="stroke:#060106; fill:none;"/>
	<path d="M 764.0,543.0 L 767.0,544.0" style="stroke:#060106; fill:none;"/>
	<path d="M 804.0,543.0 L 805.0,544.0" style="stroke:#060106; fill:none;"/>
	<path d="M 811.0,548.0 L 811.0,545.0" style="stroke:#060106; fill:none;"/>
	<path d="M 826.0,544.0 L 827.0,548.0" style="stroke:#060106; fill:none;"/>
	<path d="M 865.0,544.0 L 862.0,554.0" style="stroke:#060106; fill:none;"/>
	<path d="M 871.0,544.0 L 871.0,545.0" style="stroke:#060106; fill:none;"/>
	<path d="M 237.0,545.0 L 236.0,552.0" style="stroke:#060106; fill:none;"/>
	<path d="M 712.0,546.0 L 712.0,547.0" style="stroke:#060106; fill:none;"/>
	<path d="M 714.0,548.0 L 717.0,547.0" style="stroke:#060106; fill:none;"/>
	<path d="M 800.0,546.0 L 801.0,549.0" style="stroke:#060106; fill:none;"/>
	<path d="M 751.0,547.0 L 752.0,551.0" style="stroke:#060106; fill:none;"/>
	<path d="M 768.0,547.0 L 770.0,550.0" style="stroke:#060106; fill:none;"/>
	<path d="M 753.0,548.0 L 752.0,549.0" style="stroke:#060106; fill:none;"/>
	<path d="M 817.0,549.0 L 818.0,550.0" style="stroke:#060106; fill:none;"/>
	<path d="M 492.0,551.0 L 490.0,555.0" style="stroke:#060106; fill:none;"/>
	<path d="M 648.0,551.0 L 649.0,552.0" style="stroke:#060106; fill:none;"/>
	<path d="M 806.0,551.0 L 806.0,552.0" style="stroke:#060106; fill:none;"/>
	<path d="M 816.0,553.0 L 821.0,552.0" style="stroke:#060106; fill:none;"/>
	<path d="M 757.0,553.0 L 759.0,561.0" style="stroke:#060106; fill:none;"/>
	<path d="M 714.0,555.0 L 717.0,558.0" style="stroke:#060106; fill:none;"/>
	<path d="M 817.0,555.0 L 818.0,555.0" style="stroke:#060106; fill:none;"/>
	<path d="M 822.0,555.0 L 822.0,557.0" style="stroke:#060106; fill:none;"/>
	<path d="M 772.0,556.0 L 774.0,562.0" style="stroke:#060106; fill:none;"/>
	<path d="M 824.0,557.0 L 824.0,558.0" style="stroke:#060106; fill:none;"/>
	<path d="M 645.0,558.0 L 645.0,559.0" style="stroke:#060106; fill:none;"/>
	<path d="M 706.0,559.0 L 705.0,560.0" style="stroke:#060106; fill:none;"/>
	<path d="M 814.0,559.0 L 814.0,560.0" style="stroke:#060106; fill:none;"/>
	<path d="M 235.0,560.0 L 235.0,563.0" style="stroke:#060106; fill:none;"/>
	<path d="M 722.0,561.0 L 722.0,562.0" style="stroke:#060106; fill:none;"/>
	<path d="M 761.0,561.0 L 764.0,564.0" style="stroke:#060106; fill:none;"/>
	<path d="M 859.0,561.0 L 859.0,562.0" style="stroke:#060106; fill:none;"/>
	<path d="M 848.0,562.0 L 848.0,563.0" style="stroke:#060106; fill:none;"/>
	<path d="M 724.0,563.0 L 726.0,563.0" style="stroke:#060106; fill:none;"/>
	<path d="M 758.0,563.0 L 761.0,569.0" style="stroke:#060106; fill:none;"/>
	<path d="M 728.0,565.0 L 732.0,568.0" style="stroke:#060106; fill:none;"/>
	<path d="M 641.0,567.0 L 641.0,568.0" style="stroke:#060106; fill:none;"/>
	<path d="M 765.0,567.0 L 766.0,569.0" style="stroke:#060106; fill:none;"/>
	<path d="M 546.0,569.0 L 547.0,570.0" style="stroke:#060106; fill:none;"/>
	<path d="M 856.0,569.0 L 855.0,570.0" style="stroke:#060106; fill:none;"/>
	<path d="M 736.0,570.0 L 747.0,575.0" style="stroke:#060106; fill:none;"/>
	<path d="M 852.0,571.0 L 853.0,572.0" style="stroke:#060106; fill:none;"/>
	<path d="M 768.0,573.0 L 768.0,574.0" style="stroke:#060106; fill:none;"/>
	<path d="M 511.0,574.0 L 511.0,576.0 L 511.0,574.0" style="stroke:#060106; fill:none;"/>
	<path d="M 764.0,574.0 L 764.0,577.0" style="stroke:#060106; fill:none;"/>
	<path d="M 232.0,576.0 L 234.0,585.0" style="stroke:#060106; fill:none;"/>
	<path d="M 503.0,575.0 L 508.0,576.0 L 509.0,575.0" style="stroke:#060106; fill:none;"/>
	<path d="M 507.0,575.0 L 508.0,576.0" style="stroke:#060106; fill:none;"/>
	<path d="M 513.0,575.0 L 521.0,587.0" style="stroke:#060106; fill:none;"/>
	<path d="M 757.0,577.0 L 757.0,578.0" style="stroke:#060106; fill:none;"/>
	<path d="M 479.0,578.0 L 479.0,579.0" style="stroke:#060106; fill:none;"/>
	<path d="M 846.0,579.0 L 847.0,579.0" style="stroke:#060106; fill:none;"/>
	<path d="M 838.0,580.0 L 837.0,582.0" style="stroke:#060106; fill:none;"/>
	<path d="M 479.0,581.0 L 480.0,584.0" style="stroke:#060106; fill:none;"/>
	<path d="M 768.0,581.0 L 768.0,584.0" style="stroke:#060106; fill:none;"/>
	<path d="M 232.0,582.0 L 234.0,584.0" style="stroke:#060106; fill:none;"/>
	<path d="M 837.0,586.0 L 838.0,586.0" style="stroke:#060106; fill:none;"/>
	<path d="M 835.0,587.0 L 833.0,589.0" style="stroke:#060106; fill:none;"/>
	<path d="M 235.0,590.0 L 234.0,596.0" style="stroke:#060106; fill:none;"/>
	<path d="M 835.0,590.0 L 833.0,592.0" style="stroke:#060106; fill:none;"/>
	<path d="M 844.0,590.0 L 843.0,594.0" style="stroke:#060106; fill:none;"/>
	<path d="M 524.0,593.0 L 526.0,595.0" style="stroke:#060106; fill:none;"/>
	<path d="M 830.0,598.0 L 829.0,602.0" style="stroke:#060106; fill:none;"/>
	<path d="M 237.0,604.0 L 237.0,601.0" style="stroke:#060106; fill:none;"/>
	<path d="M 511.0,602.0 L 517.0,603.0" style="stroke:#060106; fill:none;"/>
	<path d="M 519.0,602.0 L 526.0,601.0" style="stroke:#060106; fill:none;"/>
	<path d="M 531.0,604.0 L 533.0,614.0" style="stroke:#060106; fill:none;"/>
	<path d="M 235.0,609.0 L 238.0,610.0" style="stroke:#060106; fill:none;"/>
	<path d="M 236.0,610.0 L 236.0,612.0" style="stroke:#060106; fill:none;"/>
	<path d="M 822.0,612.0 L 823.0,612.0" style="stroke:#060106; fill:none;"/>
	<path d="M 237.0,616.0 L 238.0,617.0" style="stroke:#060106; fill:none;"/>
	<path d="M 616.0,617.0 L 616.0,618.0" style="stroke:#060106; fill:none;"/>
	<path d="M 534.0,619.0 L 535.0,619.0" style="stroke:#060106; fill:none;"/>
	<path d="M 603.0,623.0 L 603.0,624.0" style="stroke:#060106; fill:none;"/>
	<path d="M 617.0,625.0 L 617.0,626.0" style="stroke:#060106; fill:none;"/>
	<path d="M 816.0,625.0 L 815.0,626.0" style="stroke:#060106; fill:none;"/>
	<path d="M 239.0,626.0 L 240.0,634.0" style="stroke:#060106; fill:none;"/>
	<path d="M 602.0,628.0 L 601.0,630.0" style="stroke:#060106; fill:none;"/>
	<path d="M 813.0,630.0 L 812.0,631.0" style="stroke:#060106; fill:none;"/>
	<path d="M 598.0,633.0 L 595.0,636.0" style="stroke:#060106; fill:none;"/>
	<path d="M 811.0,634.0 L 809.0,635.0" style="stroke:#060106; fill:none;"/>
	<path d="M 592.0,637.0 L 592.0,638.0" style="stroke:#060106; fill:none;"/>
	<path d="M 617.0,637.0 L 617.0,640.0" style="stroke:#060106; fill:none;"/>
	<path d="M 241.0,642.0 L 241.0,643.0" style="stroke:#060106; fill:none;"/>
	<path d="M 553.0,642.0 L 556.0,643.0" style="stroke:#060106; fill:none;"/>
	<path d="M 595.0,642.0 L 590.0,649.0" style="stroke:#060106; fill:none;"/>
	<path d="M 563.0,643.0 L 563.0,650.0" style="stroke:#060106; fill:none;"/>
	<path d="M 570.0,644.0 L 572.0,644.0" style="stroke:#060106; fill:none;"/>
	<path d="M 799.0,648.0 L 800.0,648.0" style="stroke:#060106; fill:none;"/>
	<path d="M 379.0,650.0 L 380.0,653.0" style="stroke:#060106; fill:none;"/>
	<path d="M 798.0,650.0 L 796.0,651.0" style="stroke:#060106; fill:none;"/>
	<path d="M 560.0,652.0 L 558.0,657.0" style="stroke:#060106; fill:none;"/>
	<path d="M 242.0,656.0 L 243.0,656.0" style="stroke:#060106; fill:none;"/>
	<path d="M 383.0,656.0 L 384.0,660.0" style="stroke:#060106; fill:none;"/>
	<path d="M 609.0,660.0 L 608.0,661.0" style="stroke:#060106; fill:none;"/>
	<path d="M 242.0,661.0 L 243.0,661.0" style="stroke:#060106; fill:none;"/>
	<path d="M 795.0,662.0 L 793.0,666.0" style="stroke:#060106; fill:none;"/>
	<path d="M 814.0,662.0 L 811.0,674.0" style="stroke:#060106; fill:none;"/>
	<path d="M 388.0,663.0 L 389.0,664.0" style="stroke:#060106; fill:none;"/>
	<path d="M 602.0,664.0 L 596.0,667.0" style="stroke:#060106; fill:none;"/>
	<path d="M 394.0,667.0 L 397.0,667.0" style="stroke:#060106; fill:none;"/>
	<path d="M 245.0,668.0 L 245.0,675.0" style="stroke:#060106; fill:none;"/>
	<path d="M 593.0,668.0 L 593.0,669.0" style="stroke:#060106; fill:none;"/>
	<path d="M 403.0,671.0 L 404.0,671.0" style="stroke:#060106; fill:none;"/>
	<path d="M 583.0,672.0 L 585.0,671.0" style="stroke:#060106; fill:none;"/>
	<path d="M 579.0,672.0 L 578.0,673.0" style="stroke:#060106; fill:none;"/>
	<path d="M 408.0,673.0 L 409.0,674.0" style="stroke:#060106; fill:none;"/>
	<path d="M 574.0,673.0 L 576.0,673.0" style="stroke:#060106; fill:none;"/>
	<path d="M 440.0,675.0 L 440.0,676.0" style="stroke:#060106; fill:none;"/>
	<path d="M 756.0,677.0 L 755.0,680.0" style="stroke:#060106; fill:none;"/>
	<path d="M 810.0,677.0 L 809.0,680.0" style="stroke:#060106; fill:none;"/>
	<path d="M 451.0,679.0 L 452.0,679.0" style="stroke:#060106; fill:none;"/>
	<path d="M 247.0,680.0 L 247.0,682.0" style="stroke:#060106; fill:none;"/>
	<path d="M 457.0,680.0 L 458.0,681.0" style="stroke:#060106; fill:none;"/>
	<path d="M 420.0,682.0 C 426.664,683.733 430.635,689.007 435.0,694.0" style="stroke:#060106; fill:none;"/>
	<path d="M 750.0,683.0 L 749.0,685.0" style="stroke:#060106; fill:none;"/>
	<path d="M 745.0,686.0 L 745.0,687.0" style="stroke:#060106; fill:none;"/>
	<path d="M 249.0,689.0 L 249.0,690.0" style="stroke:#060106; fill:none;"/>
	<path d="M 805.0,691.0 L 802.0,694.0" style="stroke:#060106; fill:none;"/>
	<path d="M 768.0,693.0 L 762.0,699.0" style="stroke:#060106; fill:none;"/>
	<path d="M 783.0,694.0 L 782.0,695.0" style="stroke:#060106; fill:none;"/>
	<path d="M 438.0,696.0 L 439.0,696.0" style="stroke:#060106; fill:none;"/>
	<path d="M 777.0,699.0 L 777.0,701.0" style="stroke:#060106; fill:none;"/>
	<path d="M 251.0,700.0 L 251.0,702.0" style="stroke:#060106; fill:none;"/>
	<path d="M 444.0,700.0 L 446.0,703.0" style="stroke:#060106; fill:none;"/>
	<path d="M 250.0,706.0 L 252.0,706.0" style="stroke:#060106; fill:none;"/>
	<path d="M 753.0,707.0 L 750.0,711.0" style="stroke:#060106; fill:none;"/>
	<path d="M 790.0,707.0 L 790.0,709.0" style="stroke:#060106; fill:none;"/>
	<path d="M 456.0,709.0 L 456.0,710.0" style="stroke:#060106; fill:none;"/>
	<path d="M 485.0,709.0 L 486.0,710.0" style="stroke:#060106; fill:none;"/>
	<path d="M 746.0,711.0 L 746.0,712.0" style="stroke:#060106; fill:none;"/>
	<path d="M 784.0,712.0 L 785.0,712.0" style="stroke:#060106; fill:none;"/>
	<path d="M 458.0,713.0 L 461.0,716.0" style="stroke:#060106; fill:none;"/>
	<path d="M 764.0,713.0 L 765.0,713.0" style="stroke:#060106; fill:none;"/>
	<path d="M 253.0,716.0 L 254.0,720.0" style="stroke:#060106; fill:none;"/>
	<path d="M 499.0,716.0 L 500.0,716.0" style="stroke:#060106; fill:none;"/>
	<path d="M 777.0,718.0 L 780.0,716.0" style="stroke:#060106; fill:none;"/>
	<path d="M 758.0,717.0 L 759.0,717.0" style="stroke:#060106; fill:none;"/>
	<path d="M 463.0,719.0 L 466.0,723.0" style="stroke:#060106; fill:none;"/>
	<path d="M 736.0,720.0 L 732.0,723.0" style="stroke:#060106; fill:none;"/>
	<path d="M 774.0,720.0 L 768.0,725.0" style="stroke:#060106; fill:none;"/>
	<path d="M 756.0,721.0 L 753.0,725.0" style="stroke:#060106; fill:none;"/>
	<path d="M 749.0,726.0 L 753.0,723.0" style="stroke:#060106; fill:none;"/>
	<path d="M 729.0,725.0 L 730.0,726.0" style="stroke:#060106; fill:none;"/>
	<path d="M 255.0,726.0 L 255.0,728.0" style="stroke:#060106; fill:none;"/>
	<path d="M 713.0,727.0 L 713.0,728.0" style="stroke:#060106; fill:none;"/>
	<path d="M 746.0,728.0 L 748.0,728.0" style="stroke:#060106; fill:none;"/>
	<path d="M 744.0,729.0 L 746.0,730.0" style="stroke:#060106; fill:none;"/>
	<path d="M 711.0,730.0 L 708.0,737.0 L 708.0,733.0" style="stroke:#060106; fill:none;"/>
	<path d="M 724.0,730.0 L 724.0,731.0" style="stroke:#060106; fill:none;"/>
	<path d="M 763.0,730.0 L 756.0,736.0" style="stroke:#060106; fill:none;"/>
	<path d="M 257.0,733.0 L 257.0,741.0" style="stroke:#060106; fill:none;"/>
	<path d="M 707.0,737.0 L 705.0,739.0" style="stroke:#060106; fill:none;"/>
	<path d="M 731.0,738.0 L 733.0,738.0" style="stroke:#060106; fill:none;"/>
	<path d="M 745.0,743.0 L 752.0,738.0" style="stroke:#060106; fill:none;"/>
	<path d="M 486.0,739.0 L 487.0,740.0" style="stroke:#060106; fill:none;"/>
	<path d="M 728.0,739.0 L 728.0,740.0" style="stroke:#060106; fill:none;"/>
	<path d="M 725.0,741.0 L 724.0,742.0" style="stroke:#060106; fill:none;"/>
	<path d="M 490.0,742.0 L 491.0,742.0" style="stroke:#060106; fill:none;"/>
	<path d="M 258.0,744.0 L 258.0,745.0" style="stroke:#060106; fill:none;"/>
	<path d="M 740.0,746.0 L 703.0,774.0" style="stroke:#060106; fill:none;"/>
	<path d="M 258.0,747.0 L 259.0,747.0" style="stroke:#060106; fill:none;"/>
	<path d="M 700.0,748.0 L 700.0,749.0" style="stroke:#060106; fill:none;"/>
	<path d="M 706.0,752.0 L 709.0,751.0" style="stroke:#060106; fill:none;"/>
	<path d="M 261.0,752.0 L 260.0,753.0" style="stroke:#060106; fill:none;"/>
	<path d="M 504.0,752.0 L 504.0,753.0" style="stroke:#060106; fill:none;"/>
	<path d="M 696.0,753.0 C 693.615,757.772 691.086,760.346 686.0,762.0" style="stroke:#060106; fill:none;"/>
	<path d="M 509.0,755.0 L 510.0,758.0" style="stroke:#060106; fill:none;"/>
	<path d="M 262.0,756.0 L 263.0,762.0" style="stroke:#060106; fill:none;"/>
	<path d="M 688.0,762.0 L 688.0,764.0" style="stroke:#060106; fill:none;"/>
	<path d="M 264.0,766.0 L 263.0,770.0" style="stroke:#060106; fill:none;"/>
	<path d="M 524.0,771.0 L 524.0,773.0 L 524.0,771.0" style="stroke:#060106; fill:none;"/>
	<path d="M 680.0,772.0 L 676.0,777.0" style="stroke:#060106; fill:none;"/>
	<path d="M 264.0,774.0 L 266.0,777.0" style="stroke:#060106; fill:none;"/>
	<path d="M 698.0,777.0 L 696.0,780.0" style="stroke:#060106; fill:none;"/>
	<path d="M 672.0,782.0 L 674.0,781.0" style="stroke:#060106; fill:none;"/>
	<path d="M 268.0,782.0 L 267.0,785.0" style="stroke:#060106; fill:none;"/>
	<path d="M 676.0,784.0 L 689.0,782.0" style="stroke:#060106; fill:none;"/>
	<path d="M 268.0,787.0 L 268.0,790.0" style="stroke:#060106; fill:none;"/>
	<path d="M 669.0,787.0 L 668.0,788.0" style="stroke:#060106; fill:none;"/>
	<path d="M 665.0,790.0 L 665.0,792.0" style="stroke:#060106; fill:none;"/>
	<path d="M 270.0,793.0 L 272.0,796.0" style="stroke:#060106; fill:none;"/>
	<path d="M 270.0,796.0 L 271.0,800.0" style="stroke:#060106; fill:none;"/>
	<path d="M 274.0,802.0 L 274.0,804.0" style="stroke:#060106; fill:none;"/>
	<path d="M 275.0,810.0 L 278.0,814.0" style="stroke:#060106; fill:none;"/>
	<path d="M 280.0,819.0 L 283.0,825.0" style="stroke:#060106; fill:none;"/>
	<path d="M 646.0,827.0 L 647.0,832.0" style="stroke:#060106; fill:none;"/>
	<path d="M 285.0,830.0 L 286.0,830.0" style="stroke:#060106; fill:none;"/>
	<path d="M 598.0,841.0 L 607.0,836.0" style="stroke:#060106; fill:none;"/>
	<path d="M 595.0,841.0 L 587.0,843.0" style="stroke:#060106; fill:none;"/>
	<path d="M 295.0,843.0 L 296.0,845.0" style="stroke:#060106; fill:none;"/>
	<path d="M 583.0,848.0 L 581.0,848.0 L 584.0,846.0" style="stroke:#060106; fill:none;"/>
	<path d="M 580.0,847.0 L 573.0,849.0" style="stroke:#060106; fill:none;"/>
	<path d="M 559.0,851.0 L 572.0,850.0" style="stroke:#060106; fill:none;"/>
	<path d="M 552.0,851.0 L 550.0,852.0" style="stroke:#060106; fill:none;"/>
	<path d="M 538.0,856.0 L 541.0,856.0" style="stroke:#060106; fill:none;"/>
	<path d="M 559.0,857.0 L 559.0,858.0" style="stroke:#060106; fill:none;"/>
	<path d="M 531.0,860.0 L 532.0,860.0" style="stroke:#060106; fill:none;"/>
	<path d="M 521.0,864.0 L 522.0,864.0" style="stroke:#060106; fill:none;"/>
	<path d="M 516.0,866.0 L 517.0,866.0" style="stroke:#060106; fill:none;"/>
	<path d="M 505.0,871.0 L 512.0,868.0" style="stroke:#060106; fill:none;"/>
	<path d="M 317.0,868.0 L 317.0,869.0" style="stroke:#060106; fill:none;"/>
	<path d="M 320.0,871.0 L 322.0,873.0" style="stroke:#060106; fill:none;"/>
	<path d="M 469.0,879.0 L 471.0,880.0" style="stroke:#060106; fill:none;"/>
	<path d="M 463.0,881.0 L 466.0,880.0" style="stroke:#060106; fill:none;"/>
	<path d="M 346.0,882.0 L 347.0,882.0" style="stroke:#060106; fill:none;"/>
	<path d="M 356.0,885.0 L 360.0,886.0" style="stroke:#060106; fill:none;"/>
	<path d="M 362.0,887.0 L 366.0,888.0" style="stroke:#060106; fill:none;"/>
	<path d="M 369.0,888.0 L 370.0,889.0" style="stroke:#060106; fill:none;"/>
	<path d="M 377.0,890.0 L 379.0,891.0" style="stroke:#060106; fill:none;"/>
	<path d="M 383.0,891.0 L 384.0,891.0" style="stroke:#060106; fill:none;"/>
	<path d="M 387.0,891.0 L 388.0,892.0" style="stroke:#060106; fill:none;"/>
	<path d="M 391.0,891.0 L 391.0,892.0" style="stroke:#060106; fill:none;"/>
	<path d="M 398.0,891.0 L 397.0,893.0" style="stroke:#060106; fill:none;"/>
	<path d="M 402.0,891.0 L 403.0,894.0" style="stroke:#060106; fill:none;"/>
	<path d="M 408.0,893.0 L 414.0,893.0" style="stroke:#060106; fill:none;"/>
	<path d="M 417.0,892.0 L 420.0,892.0" style="stroke:#060106; fill:none;"/>
</svg>
