<?xml version="1.0" ?>
<svg baseProfile="full" height="1079" version="1.1" width="987" xmlns="http://www.w3.org/2000/svg" xmlns:ev="http://www.w3.org/2001/xml-events" xmlns:xlink="http://www.w3.org/1999/xlink">
	<defs/>
	<path d="M 385.0,73.0 L 385.0,74.0" style="stroke:#040104; fill:none;"/>
	<path d="M 377.0,75.0 L 381.0,75.0" style="stroke:#040104; fill:none;"/>
	<path d="M 368.0,76.0 L 366.0,77.0" style="stroke:#040104; fill:none;"/>
	<path d="M 373.0,76.0 L 374.0,76.0" style="stroke:#040104; fill:none;"/>
	<path d="M 361.0,79.0 L 361.0,81.0 L 361.0,79.0" style="stroke:#040104; fill:none;"/>
	<path d="M 352.0,82.0 L 356.0,81.0" style="stroke:#040104; fill:none;"/>
	<path d="M 345.0,86.0 L 352.0,84.0" style="stroke:#040104; fill:none;"/>
	<path d="M 341.0,88.0 L 341.0,89.0" style="stroke:#040104; fill:none;"/>
	<path d="M 335.0,91.0 L 336.0,91.0" style="stroke:#040104; fill:none;"/>
	<path d="M 331.0,92.0 L 331.0,93.0" style="stroke:#040104; fill:none;"/>
	<path d="M 328.0,93.0 L 323.0,98.0" style="stroke:#040104; fill:none;"/>
	<path d="M 320.0,96.0 L 321.0,96.0" style="stroke:#040104; fill:none;"/>
	<path d="M 315.0,100.0 L 316.0,100.0" style="stroke:#040104; fill:none;"/>
	<path d="M 311.0,102.0 L 312.0,102.0" style="stroke:#040104; fill:none;"/>
	<path d="M 305.0,106.0 L 305.0,107.0" style="stroke:#040104; fill:none;"/>
	<path d="M 299.0,109.0 L 299.0,110.0" style="stroke:#040104; fill:none;"/>
	<path d="M 287.0,115.0 L 283.0,120.0" style="stroke:#040104; fill:none;"/>
	<path d="M 277.0,122.0 L 271.0,128.0" style="stroke:#040104; fill:none;"/>
	<path d="M 258.0,135.0 L 257.0,138.0" style="stroke:#040104; fill:none;"/>
	<path d="M 247.0,143.0 L 243.0,146.0" style="stroke:#040104; fill:none;"/>
	<path d="M 232.0,155.0 L 233.0,155.0" style="stroke:#040104; fill:none;"/>
	<path d="M 223.0,159.0 L 224.0,159.0" style="stroke:#040104; fill:none;"/>
	<path d="M 221.0,162.0 L 221.0,163.0" style="stroke:#040104; fill:none;"/>
	<path d="M 209.0,175.0 L 209.0,177.0" style="stroke:#040104; fill:none;"/>
	<path d="M 200.0,182.0 L 199.0,183.0" style="stroke:#040104; fill:none;"/>
	<path d="M 193.0,189.0 L 195.0,188.0" style="stroke:#040104; fill:none;"/>
	<path d="M 191.0,192.0 L 190.0,193.0" style="stroke:#040104; fill:none;"/>
	<path d="M 183.0,201.0 L 182.0,203.0" style="stroke:#040104; fill:none;"/>
	<path d="M 178.0,205.0 L 178.0,206.0" style="stroke:#040104; fill:none;"/>
	<path d="M 167.0,220.0 L 169.0,218.0" style="stroke:#040104; fill:none;"/>
	<path d="M 163.0,226.0 L 163.0,227.0" style="stroke:#040104; fill:none;"/>
	<path d="M 162.0,231.0 L 162.0,232.0" style="stroke:#040104; fill:none;"/>
	<path d="M 154.0,246.0 L 152.0,249.0" style="stroke:#040104; fill:none;"/>
	<path d="M 151.0,251.0 L 151.0,252.0" style="stroke:#040104; fill:none;"/>
	<path d="M 149.0,256.0 L 147.0,261.0 L 148.0,262.0" style="stroke:#040104; fill:none;"/>
	<path d="M 146.0,265.0 L 145.0,266.0" style="stroke:#040104; fill:none;"/>
	<path d="M 143.0,269.0 L 143.0,273.0" style="stroke:#040104; fill:none;"/>
	<path d="M 142.0,274.0 L 136.0,289.0" style="stroke:#040104; fill:none;"/>
	<path d="M 128.0,319.0 L 127.0,322.0" style="stroke:#040104; fill:none;"/>
	<path d="M 126.0,326.0 L 122.0,351.0" style="stroke:#040104; fill:none;"/>
	<path d="M 120.0,355.0 L 117.0,367.0" style="stroke:#040104; fill:none;"/>
	<path d="M 114.0,368.0 L 112.0,373.0" style="stroke:#040104; fill:none;"/>
	<path d="M 102.0,400.0 L 111.0,385.0" style="stroke:#040104; fill:none;"/>
	<path d="M 98.0,403.0 L 99.0,403.0" style="stroke:#040104; fill:none;"/>
	<path d="M 98.0,406.0 L 98.0,407.0" style="stroke:#040104; fill:none;"/>
	<path d="M 90.0,424.0 L 89.0,425.0" style="stroke:#040104; fill:none;"/>
	<path d="M 141.0,425.0 L 141.0,427.0" style="stroke:#040104; fill:none;"/>
	<path d="M 172.0,425.0 L 172.0,426.0" style="stroke:#040104; fill:none;"/>
	<path d="M 137.0,427.0 L 137.0,428.0" style="stroke:#040104; fill:none;"/>
	<path d="M 132.0,428.0 L 134.0,431.0" style="stroke:#040104; fill:none;"/>
	<path d="M 89.0,429.0 L 87.0,433.0" style="stroke:#040104; fill:none;"/>
	<path d="M 122.0,430.0 L 122.0,431.0" style="stroke:#040104; fill:none;"/>
	<path d="M 141.0,433.0 L 145.0,432.0" style="stroke:#040104; fill:none;"/>
	<path d="M 130.0,441.0 L 137.0,435.0" style="stroke:#040104; fill:none;"/>
	<path d="M 160.0,434.0 L 161.0,434.0" style="stroke:#040104; fill:none;"/>
	<path d="M 167.0,436.0 L 169.0,437.0" style="stroke:#040104; fill:none;"/>
	<path d="M 87.0,437.0 L 81.8341,466.0 L 81.0,477.0" style="stroke:#040104; fill:none;"/>
	<path d="M 151.0,438.0 L 153.0,437.0" style="stroke:#040104; fill:none;"/>
	<path d="M 147.0,439.0 L 148.0,439.0" style="stroke:#040104; fill:none;"/>
	<path d="M 178.0,441.0 L 182.0,442.0" style="stroke:#040104; fill:none;"/>
	<path d="M 119.0,442.0 L 120.0,442.0" style="stroke:#040104; fill:none;"/>
	<path d="M 128.0,444.0 L 122.0,459.0" style="stroke:#040104; fill:none;"/>
	<path d="M 143.0,446.0 L 140.0,448.0" style="stroke:#040104; fill:none;"/>
	<path d="M 187.0,446.0 L 189.0,448.0" style="stroke:#040104; fill:none;"/>
	<path d="M 191.0,448.0 L 190.0,453.0" style="stroke:#040104; fill:none;"/>
	<path d="M 377.0,451.0 L 381.0,449.0" style="stroke:#040104; fill:none;"/>
	<path d="M 387.0,449.0 L 386.0,450.0" style="stroke:#040104; fill:none;"/>
	<path d="M 139.0,450.0 L 139.0,451.0" style="stroke:#040104; fill:none;"/>
	<path d="M 370.0,451.0 L 373.0,450.0" style="stroke:#040104; fill:none;"/>
	<path d="M 195.0,451.0 L 196.0,452.0" style="stroke:#040104; fill:none;"/>
	<path d="M 136.0,455.0 L 137.0,459.0" style="stroke:#040104; fill:none;"/>
	<path d="M 197.0,455.0 L 198.0,461.0" style="stroke:#040104; fill:none;"/>
	<path d="M 189.0,456.0 L 189.0,457.0" style="stroke:#040104; fill:none;"/>
	<path d="M 375.0,459.0 L 377.0,458.0" style="stroke:#040104; fill:none;"/>
	<path d="M 388.0,458.0 L 388.0,459.0" style="stroke:#040104; fill:none;"/>
	<path d="M 113.0,459.0 L 114.0,460.0" style="stroke:#040104; fill:none;"/>
	<path d="M 120.0,459.0 L 114.0,463.0" style="stroke:#040104; fill:none;"/>
	<path d="M 186.0,462.0 L 188.0,461.0" style="stroke:#040104; fill:none;"/>
	<path d="M 399.0,460.0 L 404.0,465.0" style="stroke:#040104; fill:none;"/>
	<path d="M 400.0,461.0 L 398.0,463.0" style="stroke:#040104; fill:none;"/>
	<path d="M 366.0,462.0 L 367.0,462.0" style="stroke:#040104; fill:none;"/>
	<path d="M 108.0,463.0 L 109.0,464.0" style="stroke:#040104; fill:none;"/>
	<path d="M 138.0,463.0 L 138.0,465.0" style="stroke:#040104; fill:none;"/>
	<path d="M 200.0,463.0 L 200.0,464.0" style="stroke:#040104; fill:none;"/>
	<path d="M 375.0,463.0 L 375.0,464.0" style="stroke:#040104; fill:none;"/>
	<path d="M 365.0,464.0 L 365.0,465.0" style="stroke:#040104; fill:none;"/>
	<path d="M 431.0,464.0 L 434.0,467.0" style="stroke:#040104; fill:none;"/>
	<path d="M 184.0,465.0 L 185.0,465.0" style="stroke:#040104; fill:none;"/>
	<path d="M 352.0,465.0 L 351.0,466.0" style="stroke:#040104; fill:none;"/>
	<path d="M 181.0,467.0 L 182.0,468.0" style="stroke:#040104; fill:none;"/>
	<path d="M 411.0,468.0 L 415.0,471.0" style="stroke:#040104; fill:none;"/>
	<path d="M 119.0,469.0 L 120.0,469.0" style="stroke:#040104; fill:none;"/>
	<path d="M 139.0,469.0 L 144.0,470.0" style="stroke:#040104; fill:none;"/>
	<path d="M 158.0,469.0 L 162.0,470.0" style="stroke:#040104; fill:none;"/>
	<path d="M 147.0,470.0 L 149.0,470.0" style="stroke:#040104; fill:none;"/>
	<path d="M 168.0,470.0 L 169.0,470.0" style="stroke:#040104; fill:none;"/>
	<path d="M 174.0,470.0 L 174.0,472.0" style="stroke:#040104; fill:none;"/>
	<path d="M 177.0,471.0 L 180.0,470.0" style="stroke:#040104; fill:none;"/>
	<path d="M 184.0,470.0 L 185.0,470.0" style="stroke:#040104; fill:none;"/>
	<path d="M 134.0,471.0 L 136.0,471.0" style="stroke:#040104; fill:none;"/>
	<path d="M 438.0,471.0 L 439.0,471.0" style="stroke:#040104; fill:none;"/>
	<path d="M 357.0,473.0 L 356.0,475.0" style="stroke:#040104; fill:none;"/>
	<path d="M 364.0,474.0 L 365.0,474.0" style="stroke:#040104; fill:none;"/>
	<path d="M 363.0,476.0 L 361.0,482.0" style="stroke:#040104; fill:none;"/>
	<path d="M 415.0,476.0 L 415.0,488.0" style="stroke:#040104; fill:none;"/>
	<path d="M 445.0,476.0 L 445.0,477.0" style="stroke:#040104; fill:none;"/>
	<path d="M 425.0,477.0 L 426.0,477.0" style="stroke:#040104; fill:none;"/>
	<path d="M 428.0,478.0 L 428.0,479.0" style="stroke:#040104; fill:none;"/>
	<path d="M 80.0,479.0 L 81.0,485.0" style="stroke:#040104; fill:none;"/>
	<path d="M 353.0,479.0 L 352.0,480.0" style="stroke:#040104; fill:none;"/>
	<path d="M 449.0,481.0 L 451.0,482.0" style="stroke:#040104; fill:none;"/>
	<path d="M 427.0,482.0 L 426.0,483.0" style="stroke:#040104; fill:none;"/>
	<path d="M 431.0,485.0 L 438.0,489.0" style="stroke:#040104; fill:none;"/>
	<path d="M 454.0,484.0 L 455.0,485.0" style="stroke:#040104; fill:none;"/>
	<path d="M 347.0,485.0 L 346.0,486.0" style="stroke:#040104; fill:none;"/>
	<path d="M 457.0,488.0 L 457.0,489.0" style="stroke:#040104; fill:none;"/>
	<path d="M 346.0,489.0 L 359.0,496.0" style="stroke:#040104; fill:none;"/>
	<path d="M 361.0,490.0 L 361.0,491.0" style="stroke:#040104; fill:none;"/>
	<path d="M 80.0,491.0 L 77.0,498.0" style="stroke:#040104; fill:none;"/>
	<path d="M 409.0,497.0 L 414.0,491.0" style="stroke:#040104; fill:none;"/>
	<path d="M 460.0,491.0 L 460.0,493.0" style="stroke:#040104; fill:none;"/>
	<path d="M 430.0,493.0 L 430.0,494.0" style="stroke:#040104; fill:none;"/>
	<path d="M 361.0,495.0 L 361.0,496.0" style="stroke:#040104; fill:none;"/>
	<path d="M 443.0,495.0 L 451.0,504.0" style="stroke:#040104; fill:none;"/>
	<path d="M 363.0,496.0 L 364.0,496.0" style="stroke:#040104; fill:none;"/>
	<path d="M 463.0,497.0 L 464.0,498.0" style="stroke:#040104; fill:none;"/>
	<path d="M 466.0,500.0 L 466.0,501.0" style="stroke:#040104; fill:none;"/>
	<path d="M 76.0,501.0 L 75.0,503.0" style="stroke:#040104; fill:none;"/>
	<path d="M 406.0,501.0 L 406.0,502.0" style="stroke:#040104; fill:none;"/>
	<path d="M 380.0,502.0 L 381.0,502.0" style="stroke:#040104; fill:none;"/>
	<path d="M 384.0,504.0 L 389.0,504.0" style="stroke:#040104; fill:none;"/>
	<path d="M 73.0,506.0 L 72.0,509.0" style="stroke:#040104; fill:none;"/>
	<path d="M 454.0,507.0 L 451.0,511.0" style="stroke:#040104; fill:none;"/>
	<path d="M 423.0,509.0 L 428.0,510.0" style="stroke:#040104; fill:none;"/>
	<path d="M 431.0,510.0 L 431.0,511.0" style="stroke:#040104; fill:none;"/>
	<path d="M 437.0,510.0 L 441.0,512.0" style="stroke:#040104; fill:none;"/>
	<path d="M 447.0,512.0 L 449.0,510.0" style="stroke:#040104; fill:none;"/>
	<path d="M 71.0,511.0 L 72.0,512.0" style="stroke:#040104; fill:none;"/>
	<path d="M 70.0,515.0 L 67.0,523.0" style="stroke:#040104; fill:none;"/>
	<path d="M 180.0,526.0 L 181.0,526.0" style="stroke:#040104; fill:none;"/>
	<path d="M 67.0,527.0 L 62.0,542.0" style="stroke:#040104; fill:none;"/>
	<path d="M 176.0,532.0 L 177.0,532.0" style="stroke:#040104; fill:none;"/>
	<path d="M 171.0,538.0 L 173.0,536.0" style="stroke:#040104; fill:none;"/>
	<path d="M 58.0,552.0 L 58.0,553.0" style="stroke:#040104; fill:none;"/>
	<path d="M 58.0,555.0 L 58.0,556.0" style="stroke:#040104; fill:none;"/>
	<path d="M 148.0,566.0 L 148.0,567.0" style="stroke:#040104; fill:none;"/>
	<path d="M 168.0,566.0 C 175.637,568.148 184.73,572.919 187.0,581.0" style="stroke:#040104; fill:none;"/>
	<path d="M 52.0,567.0 L 53.0,567.0" style="stroke:#040104; fill:none;"/>
	<path d="M 147.0,574.0 L 147.0,576.0" style="stroke:#040104; fill:none;"/>
	<path d="M 224.0,576.0 L 227.0,576.0" style="stroke:#040104; fill:none;"/>
	<path d="M 46.0,577.0 L 45.0,578.0" style="stroke:#040104; fill:none;"/>
	<path d="M 220.0,578.0 L 221.0,578.0" style="stroke:#040104; fill:none;"/>
	<path d="M 147.0,579.0 L 148.0,583.0" style="stroke:#040104; fill:none;"/>
	<path d="M 237.0,579.0 L 240.0,580.0" style="stroke:#040104; fill:none;"/>
	<path d="M 245.0,581.0 L 248.0,582.0" style="stroke:#040104; fill:none;"/>
	<path d="M 45.0,582.0 L 43.0,588.0" style="stroke:#040104; fill:none;"/>
	<path d="M 255.0,585.0 L 251.0,588.0" style="stroke:#040104; fill:none;"/>
	<path d="M 244.0,588.0 L 249.0,589.0" style="stroke:#040104; fill:none;"/>
	<path d="M 155.0,590.0 L 156.0,591.0" style="stroke:#040104; fill:none;"/>
	<path d="M 251.0,590.0 L 252.0,590.0" style="stroke:#040104; fill:none;"/>
	<path d="M 40.0,593.0 L 42.0,591.0" style="stroke:#040104; fill:none;"/>
	<path d="M 159.0,593.0 L 161.0,594.0" style="stroke:#040104; fill:none;"/>
	<path d="M 38.0,599.0 L 35.0,611.0" style="stroke:#040104; fill:none;"/>
	<path d="M 278.0,608.0 L 279.0,608.0" style="stroke:#040104; fill:none;"/>
	<path d="M 33.0,615.0 L 31.0,630.0" style="stroke:#040104; fill:none;"/>
	<path d="M 30.0,629.0 L 27.0,634.0" style="stroke:#040104; fill:none;"/>
	<path d="M 759.0,640.0 L 772.0,639.0" style="stroke:#040104; fill:none;"/>
	<path d="M 753.0,639.0 L 754.0,639.0" style="stroke:#040104; fill:none;"/>
	<path d="M 777.0,639.0 L 786.0,642.0" style="stroke:#040104; fill:none;"/>
	<path d="M 26.0,640.0 L 26.0,641.0" style="stroke:#040104; fill:none;"/>
	<path d="M 25.0,645.0 L 25.0,648.0" style="stroke:#040104; fill:none;"/>
	<path d="M 795.0,646.0 L 797.0,647.0" style="stroke:#040104; fill:none;"/>
	<path d="M 25.0,650.0 L 25.0,651.0" style="stroke:#040104; fill:none;"/>
	<path d="M 801.0,650.0 L 804.0,651.0" style="stroke:#040104; fill:none;"/>
	<path d="M 807.0,652.0 L 818.0,662.0" style="stroke:#040104; fill:none;"/>
	<path d="M 23.0,654.0 L 24.0,654.0" style="stroke:#040104; fill:none;"/>
	<path d="M 821.0,662.0 L 821.0,663.0" style="stroke:#040104; fill:none;"/>
	<path d="M 193.0,667.0 L 192.0,668.0" style="stroke:#040104; fill:none;"/>
	<path d="M 200.0,667.0 L 202.0,668.0" style="stroke:#040104; fill:none;"/>
	<path d="M 211.0,669.0 L 212.0,669.0" style="stroke:#040104; fill:none;"/>
	<path d="M 792.0,669.0 L 793.0,669.0" style="stroke:#040104; fill:none;"/>
	<path d="M 188.0,670.0 L 186.0,671.0" style="stroke:#040104; fill:none;"/>
	<path d="M 828.0,670.0 L 827.0,673.0" style="stroke:#040104; fill:none;"/>
	<path d="M 23.0,671.0 L 24.0,671.0" style="stroke:#040104; fill:none;"/>
	<path d="M 175.0,672.0 L 176.0,673.0" style="stroke:#040104; fill:none;"/>
	<path d="M 797.0,672.0 L 798.0,674.0" style="stroke:#040104; fill:none;"/>
	<path d="M 171.0,673.0 L 170.0,674.0" style="stroke:#040104; fill:none;"/>
	<path d="M 181.0,673.0 L 182.0,673.0" style="stroke:#040104; fill:none;"/>
	<path d="M 217.0,673.0 L 221.0,675.0" style="stroke:#040104; fill:none;"/>
	<path d="M 23.0,674.0 L 25.0,685.0" style="stroke:#040104; fill:none;"/>
	<path d="M 164.0,675.0 L 162.0,677.0" style="stroke:#040104; fill:none;"/>
	<path d="M 735.0,675.0 L 734.0,677.0" style="stroke:#040104; fill:none;"/>
	<path d="M 224.0,676.0 L 225.0,677.0" style="stroke:#040104; fill:none;"/>
	<path d="M 801.0,677.0 L 802.0,678.0" style="stroke:#040104; fill:none;"/>
	<path d="M 830.0,677.0 L 831.0,681.0" style="stroke:#040104; fill:none;"/>
	<path d="M 728.0,680.0 L 730.0,680.0" style="stroke:#040104; fill:none;"/>
	<path d="M 829.0,679.0 L 830.0,679.0" style="stroke:#040104; fill:none;"/>
	<path d="M 157.0,682.0 L 159.0,682.0" style="stroke:#040104; fill:none;"/>
	<path d="M 231.0,682.0 L 231.0,683.0" style="stroke:#040104; fill:none;"/>
	<path d="M 177.0,683.0 C 177.25,688.384 178.476,692.402 184.0,694.0" style="stroke:#040104; fill:none;"/>
	<path d="M 806.0,683.0 L 807.0,683.0" style="stroke:#040104; fill:none;"/>
	<path d="M 807.0,685.0 L 807.0,686.0" style="stroke:#040104; fill:none;"/>
	<path d="M 233.0,686.0 L 234.0,686.0" style="stroke:#040104; fill:none;"/>
	<path d="M 833.0,686.0 L 834.0,691.0" style="stroke:#040104; fill:none;"/>
	<path d="M 156.0,687.0 L 155.0,688.0" style="stroke:#040104; fill:none;"/>
	<path d="M 25.0,688.0 L 24.0,689.0" style="stroke:#040104; fill:none;"/>
	<path d="M 808.0,689.0 L 810.0,695.0" style="stroke:#040104; fill:none;"/>
	<path d="M 151.0,692.0 L 153.0,692.0" style="stroke:#040104; fill:none;"/>
	<path d="M 204.0,691.0 L 221.0,701.0" style="stroke:#040104; fill:none;"/>
	<path d="M 241.0,691.0 L 242.0,695.0" style="stroke:#040104; fill:none;"/>
	<path d="M 24.0,692.0 L 25.0,692.0" style="stroke:#040104; fill:none;"/>
	<path d="M 198.0,694.0 L 200.0,693.0" style="stroke:#040104; fill:none;"/>
	<path d="M 149.0,694.0 L 151.0,694.0" style="stroke:#040104; fill:none;"/>
	<path d="M 191.0,694.0 L 192.0,694.0" style="stroke:#040104; fill:none;"/>
	<path d="M 178.0,695.0 L 179.0,696.0" style="stroke:#040104; fill:none;"/>
	<path d="M 239.0,696.0 L 240.0,696.0" style="stroke:#040104; fill:none;"/>
	<path d="M 833.0,697.0 C 833.394,700.431 834.201,703.128 831.0,705.0" style="stroke:#040104; fill:none;"/>
	<path d="M 149.0,698.0 L 149.0,699.0" style="stroke:#040104; fill:none;"/>
	<path d="M 811.0,698.0 L 811.0,699.0" style="stroke:#040104; fill:none;"/>
	<path d="M 168.0,700.0 L 169.0,700.0" style="stroke:#040104; fill:none;"/>
	<path d="M 225.0,700.0 L 229.0,700.0" style="stroke:#040104; fill:none;"/>
	<path d="M 249.0,700.0 L 249.0,701.0" style="stroke:#040104; fill:none;"/>
	<path d="M 811.0,701.0 L 811.0,705.0" style="stroke:#040104; fill:none;"/>
	<path d="M 251.0,705.0 L 253.0,705.0" style="stroke:#040104; fill:none;"/>
	<path d="M 25.0,707.0 L 24.0,712.0" style="stroke:#040104; fill:none;"/>
	<path d="M 256.0,707.0 L 257.0,707.0" style="stroke:#040104; fill:none;"/>
	<path d="M 261.0,711.0 L 262.0,712.0" style="stroke:#040104; fill:none;"/>
	<path d="M 158.0,712.0 L 158.0,713.0" style="stroke:#040104; fill:none;"/>
	<path d="M 813.0,712.0 L 812.0,723.0" style="stroke:#040104; fill:none;"/>
	<path d="M 834.0,712.0 L 833.0,716.0" style="stroke:#040104; fill:none;"/>
	<path d="M 269.0,715.0 L 270.0,717.0" style="stroke:#040104; fill:none;"/>
	<path d="M 24.0,716.0 L 25.0,716.0" style="stroke:#040104; fill:none;"/>
	<path d="M 829.0,723.0 L 832.0,720.0" style="stroke:#040104; fill:none;"/>
	<path d="M 277.0,722.0 L 277.0,724.0" style="stroke:#040104; fill:none;"/>
	<path d="M 676.0,725.0 L 676.0,727.0" style="stroke:#040104; fill:none;"/>
	<path d="M 810.0,725.0 L 810.0,730.0" style="stroke:#040104; fill:none;"/>
	<path d="M 26.0,726.0 L 26.0,727.0" style="stroke:#040104; fill:none;"/>
	<path d="M 162.0,728.0 L 163.0,728.0" style="stroke:#040104; fill:none;"/>
	<path d="M 829.0,728.0 L 829.0,734.0" style="stroke:#040104; fill:none;"/>
	<path d="M 26.0,730.0 L 26.0,731.0" style="stroke:#040104; fill:none;"/>
	<path d="M 207.0,731.0 L 209.0,731.0" style="stroke:#040104; fill:none;"/>
	<path d="M 25.0,733.0 L 25.0,734.0" style="stroke:#040104; fill:none;"/>
	<path d="M 214.0,733.0 L 215.0,734.0" style="stroke:#040104; fill:none;"/>
	<path d="M 261.0,734.0 L 263.0,734.0" style="stroke:#040104; fill:none;"/>
	<path d="M 278.0,734.0 L 279.0,734.0" style="stroke:#040104; fill:none;"/>
	<path d="M 808.0,734.0 L 807.0,737.0" style="stroke:#040104; fill:none;"/>
	<path d="M 240.0,737.0 L 247.0,737.0" style="stroke:#040104; fill:none;"/>
	<path d="M 251.0,736.0 L 256.0,736.0" style="stroke:#040104; fill:none;"/>
	<path d="M 230.0,737.0 L 232.0,737.0" style="stroke:#040104; fill:none;"/>
	<path d="M 234.0,738.0 L 236.0,737.0" style="stroke:#040104; fill:none;"/>
	<path d="M 27.0,739.0 L 28.0,739.0" style="stroke:#040104; fill:none;"/>
	<path d="M 805.0,739.0 L 805.0,740.0" style="stroke:#040104; fill:none;"/>
	<path d="M 28.0,742.0 L 28.0,746.0" style="stroke:#040104; fill:none;"/>
	<path d="M 826.0,742.0 L 827.0,742.0" style="stroke:#040104; fill:none;"/>
	<path d="M 26.0,744.0 L 27.0,744.0" style="stroke:#040104; fill:none;"/>
	<path d="M 825.0,744.0 L 825.0,745.0" style="stroke:#040104; fill:none;"/>
	<path d="M 670.0,745.0 L 668.0,746.0" style="stroke:#040104; fill:none;"/>
	<path d="M 801.0,745.0 L 800.0,747.0" style="stroke:#040104; fill:none;"/>
	<path d="M 798.0,750.0 L 799.0,750.0" style="stroke:#040104; fill:none;"/>
	<path d="M 823.0,751.0 L 823.0,752.0" style="stroke:#040104; fill:none;"/>
	<path d="M 794.0,753.0 L 794.0,754.0" style="stroke:#040104; fill:none;"/>
	<path d="M 659.0,756.0 L 658.0,758.0" style="stroke:#040104; fill:none;"/>
	<path d="M 788.0,760.0 L 793.0,756.0" style="stroke:#040104; fill:none;"/>
	<path d="M 819.0,756.0 L 819.0,760.0" style="stroke:#040104; fill:none;"/>
	<path d="M 652.0,758.0 L 655.0,758.0" style="stroke:#040104; fill:none;"/>
	<path d="M 648.0,760.0 L 650.0,759.0" style="stroke:#040104; fill:none;"/>
	<path d="M 30.0,760.0 L 30.0,764.0" style="stroke:#040104; fill:none;"/>
	<path d="M 817.0,760.0 L 817.0,762.0" style="stroke:#040104; fill:none;"/>
	<path d="M 783.0,764.0 L 782.0,765.0" style="stroke:#040104; fill:none;"/>
	<path d="M 29.0,766.0 L 30.0,766.0" style="stroke:#040104; fill:none;"/>
	<path d="M 813.0,767.0 L 806.0,775.0" style="stroke:#040104; fill:none;"/>
	<path d="M 658.0,769.0 L 659.0,769.0" style="stroke:#040104; fill:none;"/>
	<path d="M 666.0,771.0 L 679.0,770.0" style="stroke:#040104; fill:none;"/>
	<path d="M 683.0,770.0 L 684.0,770.0" style="stroke:#040104; fill:none;"/>
	<path d="M 686.0,770.0 L 687.0,771.0" style="stroke:#040104; fill:none;"/>
	<path d="M 694.0,770.0 L 694.0,771.0" style="stroke:#040104; fill:none;"/>
	<path d="M 690.0,771.0 L 692.0,771.0" style="stroke:#040104; fill:none;"/>
	<path d="M 697.0,772.0 L 699.0,772.0" style="stroke:#040104; fill:none;"/>
	<path d="M 720.0,778.0 L 722.0,777.0" style="stroke:#040104; fill:none;"/>
	<path d="M 716.0,778.0 L 716.0,779.0" style="stroke:#040104; fill:none;"/>
	<path d="M 803.0,778.0 L 798.0,784.0" style="stroke:#040104; fill:none;"/>
	<path d="M 34.0,787.0 L 34.0,788.0" style="stroke:#040104; fill:none;"/>
	<path d="M 794.0,787.0 L 794.0,789.0 L 794.0,787.0" style="stroke:#040104; fill:none;"/>
	<path d="M 27.0,788.0 L 28.0,788.0" style="stroke:#040104; fill:none;"/>
	<path d="M 792.0,790.0 L 790.0,792.0" style="stroke:#040104; fill:none;"/>
	<path d="M 36.0,792.0 L 38.0,796.0" style="stroke:#040104; fill:none;"/>
	<path d="M 786.0,798.0 L 788.0,796.0" style="stroke:#040104; fill:none;"/>
	<path d="M 652.0,798.0 L 654.0,798.0" style="stroke:#040104; fill:none;"/>
	<path d="M 656.0,798.0 L 656.0,801.0" style="stroke:#040104; fill:none;"/>
	<path d="M 36.0,799.0 L 50.0,826.0" style="stroke:#040104; fill:none;"/>
	<path d="M 640.0,800.0 L 645.0,800.0" style="stroke:#040104; fill:none;"/>
	<path d="M 648.0,800.0 L 649.0,800.0" style="stroke:#040104; fill:none;"/>
	<path d="M 780.0,803.0 L 778.0,805.0" style="stroke:#040104; fill:none;"/>
	<path d="M 636.0,805.0 L 639.0,809.0" style="stroke:#040104; fill:none;"/>
	<path d="M 659.0,807.0 L 660.0,809.0" style="stroke:#040104; fill:none;"/>
	<path d="M 774.0,809.0 L 775.0,809.0" style="stroke:#040104; fill:none;"/>
	<path d="M 772.0,812.0 L 769.0,816.0" style="stroke:#040104; fill:none;"/>
	<path d="M 661.0,813.0 L 662.0,813.0" style="stroke:#040104; fill:none;"/>
	<path d="M 637.0,818.0 L 642.0,818.0" style="stroke:#040104; fill:none;"/>
	<path d="M 604.0,819.0 L 605.0,826.0" style="stroke:#040104; fill:none;"/>
	<path d="M 652.0,820.0 L 653.0,820.0" style="stroke:#040104; fill:none;"/>
	<path d="M 49.0,821.0 L 49.0,822.0" style="stroke:#040104; fill:none;"/>
	<path d="M 646.0,823.0 L 648.0,824.0" style="stroke:#040104; fill:none;"/>
	<path d="M 758.0,824.0 L 758.0,825.0" style="stroke:#040104; fill:none;"/>
	<path d="M 49.0,828.0 L 49.0,829.0" style="stroke:#040104; fill:none;"/>
	<path d="M 606.0,830.0 L 608.0,832.0" style="stroke:#040104; fill:none;"/>
	<path d="M 51.0,832.0 L 53.0,831.0" style="stroke:#040104; fill:none;"/>
	<path d="M 744.0,832.0 L 746.0,831.0" style="stroke:#040104; fill:none;"/>
	<path d="M 739.0,832.0 L 739.0,833.0" style="stroke:#040104; fill:none;"/>
	<path d="M 734.0,834.0 L 737.0,833.0" style="stroke:#040104; fill:none;"/>
	<path d="M 728.0,836.0 L 732.0,835.0" style="stroke:#040104; fill:none;"/>
	<path d="M 56.0,837.0 L 56.0,839.0 L 56.0,837.0" style="stroke:#040104; fill:none;"/>
	<path d="M 724.0,837.0 L 725.0,837.0" style="stroke:#040104; fill:none;"/>
	<path d="M 718.0,840.0 L 720.0,839.0" style="stroke:#040104; fill:none;"/>
	<path d="M 613.0,840.0 L 614.0,841.0" style="stroke:#040104; fill:none;"/>
	<path d="M 708.0,841.0 L 706.0,843.0" style="stroke:#040104; fill:none;"/>
	<path d="M 714.0,841.0 L 715.0,841.0" style="stroke:#040104; fill:none;"/>
	<path d="M 616.0,844.0 L 617.0,844.0" style="stroke:#040104; fill:none;"/>
	<path d="M 697.0,845.0 L 696.0,846.0" style="stroke:#040104; fill:none;"/>
	<path d="M 690.0,847.0 L 692.0,848.0" style="stroke:#040104; fill:none;"/>
	<path d="M 618.0,847.0 L 638.0,857.113 L 657.0,858.0" style="stroke:#040104; fill:none;"/>
	<path d="M 63.0,851.0 L 62.0,855.0" style="stroke:#040104; fill:none;"/>
	<path d="M 673.0,854.0 L 674.0,854.0" style="stroke:#040104; fill:none;"/>
	<path d="M 677.0,854.0 L 678.0,854.0" style="stroke:#040104; fill:none;"/>
	<path d="M 663.0,857.0 L 665.0,857.0" style="stroke:#040104; fill:none;"/>
	<path d="M 66.0,857.0 L 65.0,860.0" style="stroke:#040104; fill:none;"/>
	<path d="M 69.0,861.0 L 74.0,870.0" style="stroke:#040104; fill:none;"/>
	<path d="M 77.0,876.0 L 81.0,880.0" style="stroke:#040104; fill:none;"/>
	<path d="M 82.0,884.0 L 84.0,888.0" style="stroke:#040104; fill:none;"/>
	<path d="M 88.0,892.0 L 87.0,893.0" style="stroke:#040104; fill:none;"/>
	<path d="M 92.0,899.0 L 92.0,900.0" style="stroke:#040104; fill:none;"/>
	<path d="M 99.0,909.0 L 100.0,913.0" style="stroke:#040104; fill:none;"/>
	<path d="M 102.0,915.0 L 104.0,918.0" style="stroke:#040104; fill:none;"/>
	<path d="M 109.0,922.0 L 107.0,923.0" style="stroke:#040104; fill:none;"/>
	<path d="M 114.0,929.0 L 115.0,931.0" style="stroke:#040104; fill:none;"/>
	<path d="M 118.0,934.0 L 118.0,935.0" style="stroke:#040104; fill:none;"/>
	<path d="M 122.0,936.0 L 127.0,942.0" style="stroke:#040104; fill:none;"/>
	<path d="M 574.0,938.0 L 575.0,938.0" style="stroke:#040104; fill:none;"/>
	<path d="M 568.0,941.0 L 565.0,944.0" style="stroke:#040104; fill:none;"/>
	<path d="M 133.0,947.0 L 136.0,950.0" style="stroke:#040104; fill:none;"/>
	<path d="M 547.0,949.0 L 548.0,949.0" style="stroke:#040104; fill:none;"/>
	<path d="M 132.0,950.0 L 133.0,955.0" style="stroke:#040104; fill:none;"/>
	<path d="M 550.0,950.0 L 552.0,950.0" style="stroke:#040104; fill:none;"/>
	<path d="M 545.0,951.0 L 547.0,951.0" style="stroke:#040104; fill:none;"/>
	<path d="M 142.0,954.0 L 143.0,956.0" style="stroke:#040104; fill:none;"/>
	<path d="M 532.0,956.0 L 538.0,955.0" style="stroke:#040104; fill:none;"/>
	<path d="M 147.0,957.0 L 146.0,958.0" style="stroke:#040104; fill:none;"/>
	<path d="M 518.0,960.0 L 519.0,961.0" style="stroke:#040104; fill:none;"/>
	<path d="M 149.0,961.0 L 152.0,961.0" style="stroke:#040104; fill:none;"/>
	<path d="M 511.0,961.0 L 514.0,962.0" style="stroke:#040104; fill:none;"/>
	<path d="M 509.0,962.0 L 509.0,963.0" style="stroke:#040104; fill:none;"/>
	<path d="M 157.0,965.0 L 159.0,968.0 L 160.0,965.0" style="stroke:#040104; fill:none;"/>
	<path d="M 166.0,971.0 L 166.0,968.0" style="stroke:#040104; fill:none;"/>
	<path d="M 489.0,968.0 L 491.0,968.0" style="stroke:#040104; fill:none;"/>
	<path d="M 483.0,969.0 L 480.0,971.0" style="stroke:#040104; fill:none;"/>
	<path d="M 168.0,972.0 L 170.0,972.0" style="stroke:#040104; fill:none;"/>
	<path d="M 174.0,974.0 L 178.0,975.0" style="stroke:#040104; fill:none;"/>
	<path d="M 460.0,975.0 L 461.0,975.0" style="stroke:#040104; fill:none;"/>
	<path d="M 184.0,977.0 L 179.0,978.0" style="stroke:#040104; fill:none;"/>
	<path d="M 444.0,977.0 L 443.0,978.0" style="stroke:#040104; fill:none;"/>
	<path d="M 187.0,980.0 L 190.0,981.0" style="stroke:#040104; fill:none;"/>
	<path d="M 193.0,984.0 L 196.0,984.0" style="stroke:#040104; fill:none;"/>
	<path d="M 434.0,984.0 L 434.0,985.0" style="stroke:#040104; fill:none;"/>
	<path d="M 437.0,986.0 L 444.0,984.0" style="stroke:#040104; fill:none;"/>
	<path d="M 199.0,985.0 L 203.0,987.0" style="stroke:#040104; fill:none;"/>
	<path d="M 413.0,986.0 L 414.0,986.0" style="stroke:#040104; fill:none;"/>
	<path d="M 426.0,986.0 L 426.0,987.0" style="stroke:#040104; fill:none;"/>
	<path d="M 400.0,987.0 L 401.0,987.0" style="stroke:#040104; fill:none;"/>
	<path d="M 416.0,987.0 L 419.0,987.0" style="stroke:#040104; fill:none;"/>
	<path d="M 363.0,991.0 L 375.0,989.0" style="stroke:#040104; fill:none;"/>
	<path d="M 385.0,989.0 L 387.0,988.0" style="stroke:#040104; fill:none;"/>
	<path d="M 392.0,989.0 L 394.0,988.0" style="stroke:#040104; fill:none;"/>
	<path d="M 359.0,991.0 L 361.0,989.0" style="stroke:#040104; fill:none;"/>
	<path d="M 210.0,990.0 L 211.0,990.0" style="stroke:#040104; fill:none;"/>
	<path d="M 356.0,990.0 L 355.0,992.0" style="stroke:#040104; fill:none;"/>
	<path d="M 221.0,991.0 L 221.0,992.0" style="stroke:#040104; fill:none;"/>
	<path d="M 344.0,991.0 L 343.0,992.0" style="stroke:#040104; fill:none;"/>
	<path d="M 347.0,991.0 L 347.0,992.0" style="stroke:#040104; fill:none;"/>
	<path d="M 340.0,992.0 L 332.0,994.0" style="stroke:#040104; fill:none;"/>
	<path d="M 325.0,993.0 L 327.0,994.0" style="stroke:#040104; fill:none;"/>
	<path d="M 337.0,993.0 L 338.0,994.0" style="stroke:#040104; fill:none;"/>
	<path d="M 235.0,995.0 L 236.0,996.0" style="stroke:#040104; fill:none;"/>
	<path d="M 314.0,996.0 L 323.0,995.0" style="stroke:#040104; fill:none;"/>
	<path d="M 245.0,997.0 L 245.0,998.0" style="stroke:#040104; fill:none;"/>
	<path d="M 310.0,997.0 L 310.0,998.0" style="stroke:#040104; fill:none;"/>
	<path d="M 251.0,998.0 L 252.0,998.0" style="stroke:#040104; fill:none;"/>
	<path d="M 307.0,998.0 L 308.0,998.0" style="stroke:#040104; fill:none;"/>
	<path d="M 270.0,999.0 L 275.0,999.0" style="stroke:#040104; fill:none;"/>
	<path d="M 293.0,999.0 L 294.0,999.0" style="stroke:#040104; fill:none;"/>
</svg>
