<?xml version="1.0" ?>
<svg baseProfile="full" height="846" version="1.1" width="909" xmlns="http://www.w3.org/2000/svg" xmlns:ev="http://www.w3.org/2001/xml-events" xmlns:xlink="http://www.w3.org/1999/xlink">
	<defs/>
	<path d="M 535.0,1.0 L 535.0,2.0" style="stroke:#060106; fill:none;"/>
	<path d="M 293.0,3.0 L 293.0,4.0" style="stroke:#060106; fill:none;"/>
	<path d="M 527.0,4.0 L 529.0,4.0" style="stroke:#060106; fill:none;"/>
	<path d="M 532.0,5.0 L 534.0,5.0" style="stroke:#060106; fill:none;"/>
	<path d="M 276.0,6.0 L 275.0,7.0" style="stroke:#060106; fill:none;"/>
	<path d="M 311.0,7.0 L 313.0,14.0" style="stroke:#060106; fill:none;"/>
	<path d="M 540.0,7.0 L 543.0,10.0" style="stroke:#060106; fill:none;"/>
	<path d="M 331.0,8.0 L 331.0,10.0" style="stroke:#060106; fill:none;"/>
	<path d="M 271.0,10.0 L 272.0,10.0" style="stroke:#060106; fill:none;"/>
	<path d="M 269.0,12.0 L 270.0,12.0" style="stroke:#060106; fill:none;"/>
	<path d="M 327.0,13.0 L 327.0,15.0" style="stroke:#060106; fill:none;"/>
	<path d="M 325.0,14.0 L 324.0,15.0" style="stroke:#060106; fill:none;"/>
	<path d="M 555.0,18.0 L 559.0,18.0" style="stroke:#060106; fill:none;"/>
	<path d="M 279.0,20.0 L 278.0,22.0" style="stroke:#060106; fill:none;"/>
	<path d="M 266.0,21.0 L 265.0,26.0" style="stroke:#060106; fill:none;"/>
	<path d="M 573.0,24.0 L 573.0,26.0" style="stroke:#060106; fill:none;"/>
	<path d="M 279.0,25.0 L 280.0,26.0" style="stroke:#060106; fill:none;"/>
	<path d="M 574.0,28.0 L 575.0,30.0" style="stroke:#060106; fill:none;"/>
	<path d="M 283.0,31.0 L 285.0,33.0" style="stroke:#060106; fill:none;"/>
	<path d="M 264.0,32.0 L 264.0,33.0" style="stroke:#060106; fill:none;"/>
	<path d="M 320.0,33.0 L 318.0,35.0" style="stroke:#060106; fill:none;"/>
	<path d="M 578.0,34.0 L 578.0,35.0" style="stroke:#060106; fill:none;"/>
	<path d="M 287.0,38.0 L 287.0,40.0" style="stroke:#060106; fill:none;"/>
	<path d="M 589.0,42.0 L 589.0,43.0" style="stroke:#060106; fill:none;"/>
	<path d="M 308.0,44.0 L 307.0,45.0" style="stroke:#060106; fill:none;"/>
	<path d="M 288.0,45.0 L 288.0,54.0" style="stroke:#060106; fill:none;"/>
	<path d="M 312.0,45.0 L 313.0,45.0" style="stroke:#060106; fill:none;"/>
	<path d="M 309.0,46.0 L 310.0,46.0" style="stroke:#060106; fill:none;"/>
	<path d="M 551.0,47.0 L 553.0,48.0" style="stroke:#060106; fill:none;"/>
	<path d="M 595.0,47.0 L 597.0,48.0" style="stroke:#060106; fill:none;"/>
	<path d="M 300.0,52.0 L 294.0,58.0" style="stroke:#060106; fill:none;"/>
	<path d="M 398.0,53.0 L 401.0,53.0" style="stroke:#060106; fill:none;"/>
	<path d="M 559.0,52.0 L 563.0,55.0" style="stroke:#060106; fill:none;"/>
	<path d="M 258.0,53.0 L 256.0,55.0" style="stroke:#060106; fill:none;"/>
	<path d="M 265.0,54.0 L 266.0,55.0" style="stroke:#060106; fill:none;"/>
	<path d="M 406.0,55.0 L 407.0,55.0" style="stroke:#060106; fill:none;"/>
	<path d="M 404.0,56.0 L 404.0,57.0" style="stroke:#060106; fill:none;"/>
	<path d="M 410.0,56.0 L 413.0,56.0" style="stroke:#060106; fill:none;"/>
	<path d="M 436.0,56.0 L 437.0,56.0" style="stroke:#060106; fill:none;"/>
	<path d="M 255.0,57.0 L 255.0,59.0" style="stroke:#060106; fill:none;"/>
	<path d="M 308.0,58.0 L 309.0,58.0" style="stroke:#060106; fill:none;"/>
	<path d="M 390.0,58.0 L 399.0,62.0" style="stroke:#060106; fill:none;"/>
	<path d="M 441.0,59.0 L 443.0,58.0" style="stroke:#060106; fill:none;"/>
	<path d="M 291.0,59.0 L 287.0,64.0" style="stroke:#060106; fill:none;"/>
	<path d="M 412.0,59.0 L 413.0,59.0" style="stroke:#060106; fill:none;"/>
	<path d="M 415.0,59.0 L 417.0,59.0" style="stroke:#060106; fill:none;"/>
	<path d="M 298.0,60.0 L 298.0,62.0" style="stroke:#060106; fill:none;"/>
	<path d="M 419.0,61.0 L 420.0,61.0" style="stroke:#060106; fill:none;"/>
	<path d="M 573.0,61.0 L 573.0,62.0" style="stroke:#060106; fill:none;"/>
	<path d="M 253.0,62.0 L 253.0,64.0" style="stroke:#060106; fill:none;"/>
	<path d="M 423.0,62.0 L 424.0,63.0" style="stroke:#060106; fill:none;"/>
	<path d="M 426.0,63.0 L 427.0,63.0" style="stroke:#060106; fill:none;"/>
	<path d="M 450.0,63.0 L 454.0,66.0" style="stroke:#060106; fill:none;"/>
	<path d="M 410.0,65.0 L 410.0,66.0" style="stroke:#060106; fill:none;"/>
	<path d="M 429.0,65.0 L 430.0,65.0" style="stroke:#060106; fill:none;"/>
	<path d="M 293.0,66.0 L 294.0,66.0" style="stroke:#060106; fill:none;"/>
	<path d="M 433.0,67.0 L 435.0,68.0" style="stroke:#060106; fill:none;"/>
	<path d="M 406.0,68.0 L 406.0,69.0" style="stroke:#060106; fill:none;"/>
	<path d="M 284.0,69.0 L 278.0,73.0" style="stroke:#060106; fill:none;"/>
	<path d="M 299.0,69.0 L 297.0,70.0" style="stroke:#060106; fill:none;"/>
	<path d="M 281.0,70.0 L 282.0,71.0" style="stroke:#060106; fill:none;"/>
	<path d="M 410.0,71.0 L 411.0,71.0" style="stroke:#060106; fill:none;"/>
	<path d="M 440.0,71.0 L 442.0,71.0" style="stroke:#060106; fill:none;"/>
	<path d="M 444.0,72.0 L 444.0,73.0" style="stroke:#060106; fill:none;"/>
	<path d="M 249.0,73.0 L 249.0,74.0" style="stroke:#060106; fill:none;"/>
	<path d="M 466.0,73.0 L 470.0,76.0" style="stroke:#060106; fill:none;"/>
	<path d="M 481.0,77.0 L 482.0,78.0" style="stroke:#060106; fill:none;"/>
	<path d="M 246.0,79.0 L 245.0,80.0" style="stroke:#060106; fill:none;"/>
	<path d="M 281.0,80.0 L 282.0,80.0" style="stroke:#060106; fill:none;"/>
	<path d="M 425.0,80.0 L 426.0,80.0" style="stroke:#060106; fill:none;"/>
	<path d="M 484.0,81.0 L 485.0,84.0" style="stroke:#060106; fill:none;"/>
	<path d="M 283.0,86.0 L 286.0,83.0" style="stroke:#060106; fill:none;"/>
	<path d="M 244.0,84.0 L 242.0,86.0" style="stroke:#060106; fill:none;"/>
	<path d="M 447.0,86.0 L 448.0,87.0" style="stroke:#060106; fill:none;"/>
	<path d="M 486.0,88.0 L 486.0,89.0" style="stroke:#060106; fill:none;"/>
	<path d="M 442.0,89.0 L 442.0,91.0" style="stroke:#060106; fill:none;"/>
	<path d="M 429.0,90.0 L 430.0,90.0" style="stroke:#060106; fill:none;"/>
	<path d="M 433.0,91.0 L 432.0,92.0" style="stroke:#060106; fill:none;"/>
	<path d="M 474.0,91.0 L 477.0,94.0" style="stroke:#060106; fill:none;"/>
	<path d="M 487.0,91.0 L 487.0,93.0" style="stroke:#060106; fill:none;"/>
	<path d="M 490.0,91.0 L 491.0,93.0" style="stroke:#060106; fill:none;"/>
	<path d="M 240.0,95.0 L 240.0,97.0" style="stroke:#060106; fill:none;"/>
	<path d="M 260.0,109.0 L 273.0,97.0" style="stroke:#060106; fill:none;"/>
	<path d="M 489.0,97.0 L 489.0,98.0" style="stroke:#060106; fill:none;"/>
	<path d="M 443.0,99.0 L 444.0,99.0" style="stroke:#060106; fill:none;"/>
	<path d="M 240.0,100.0 L 240.0,101.0" style="stroke:#060106; fill:none;"/>
	<path d="M 446.0,101.0 L 447.0,101.0" style="stroke:#060106; fill:none;"/>
	<path d="M 490.0,101.0 L 491.0,103.0" style="stroke:#060106; fill:none;"/>
	<path d="M 247.0,105.0 L 248.0,105.0" style="stroke:#060106; fill:none;"/>
	<path d="M 462.0,105.0 L 462.0,106.0" style="stroke:#060106; fill:none;"/>
	<path d="M 485.0,106.0 L 486.0,111.0" style="stroke:#060106; fill:none;"/>
	<path d="M 492.0,110.0 L 493.0,115.0" style="stroke:#060106; fill:none;"/>
	<path d="M 239.0,111.0 L 238.0,117.0" style="stroke:#060106; fill:none;"/>
	<path d="M 255.0,112.0 L 253.0,113.0" style="stroke:#060106; fill:none;"/>
	<path d="M 502.0,112.0 L 502.0,113.0" style="stroke:#060106; fill:none;"/>
	<path d="M 488.0,116.0 L 488.0,117.0" style="stroke:#060106; fill:none;"/>
	<path d="M 511.0,118.0 L 511.0,119.0" style="stroke:#060106; fill:none;"/>
	<path d="M 237.0,123.0 L 238.0,125.0" style="stroke:#060106; fill:none;"/>
	<path d="M 237.0,128.0 L 236.0,131.0" style="stroke:#060106; fill:none;"/>
	<path d="M 235.0,135.0 L 235.0,136.0" style="stroke:#060106; fill:none;"/>
	<path d="M 412.0,137.0 L 413.0,137.0" style="stroke:#060106; fill:none;"/>
	<path d="M 417.0,137.0 L 416.0,138.0" style="stroke:#060106; fill:none;"/>
	<path d="M 232.0,138.0 L 233.0,138.0" style="stroke:#060106; fill:none;"/>
	<path d="M 317.0,139.0 L 317.0,140.0" style="stroke:#060106; fill:none;"/>
	<path d="M 389.0,141.0 L 397.0,140.0" style="stroke:#060106; fill:none;"/>
	<path d="M 374.0,142.0 L 376.0,141.0" style="stroke:#060106; fill:none;"/>
	<path d="M 216.0,142.0 L 218.0,142.0" style="stroke:#060106; fill:none;"/>
	<path d="M 220.0,142.0 L 221.0,144.0" style="stroke:#060106; fill:none;"/>
	<path d="M 223.0,145.0 L 223.0,146.0" style="stroke:#060106; fill:none;"/>
	<path d="M 440.0,148.0 L 440.0,149.0" style="stroke:#060106; fill:none;"/>
	<path d="M 325.0,149.0 L 326.0,150.0" style="stroke:#060106; fill:none;"/>
	<path d="M 442.0,149.0 L 442.0,150.0" style="stroke:#060106; fill:none;"/>
	<path d="M 218.0,151.0 L 217.0,152.0" style="stroke:#060106; fill:none;"/>
	<path d="M 367.0,155.0 L 369.0,155.0" style="stroke:#060106; fill:none;"/>
	<path d="M 454.0,154.0 L 455.0,156.0" style="stroke:#060106; fill:none;"/>
	<path d="M 373.0,155.0 L 377.0,155.0" style="stroke:#060106; fill:none;"/>
	<path d="M 388.0,155.0 L 389.0,155.0" style="stroke:#060106; fill:none;"/>
	<path d="M 394.0,156.0 L 397.0,157.0" style="stroke:#060106; fill:none;"/>
	<path d="M 316.0,156.0 L 318.0,156.0" style="stroke:#060106; fill:none;"/>
	<path d="M 210.0,158.0 L 212.0,157.0" style="stroke:#060106; fill:none;"/>
	<path d="M 328.0,157.0 L 328.0,158.0" style="stroke:#060106; fill:none;"/>
	<path d="M 208.0,158.0 L 200.0,166.0" style="stroke:#060106; fill:none;"/>
	<path d="M 339.0,158.0 L 346.0,159.0" style="stroke:#060106; fill:none;"/>
	<path d="M 393.0,158.0 L 394.0,159.0" style="stroke:#060106; fill:none;"/>
	<path d="M 282.0,159.0 L 285.0,160.0" style="stroke:#060106; fill:none;"/>
	<path d="M 330.0,159.0 L 330.0,161.0" style="stroke:#060106; fill:none;"/>
	<path d="M 367.0,160.0 L 367.0,161.0" style="stroke:#060106; fill:none;"/>
	<path d="M 412.0,160.0 L 413.0,161.0" style="stroke:#060106; fill:none;"/>
	<path d="M 305.0,165.0 L 308.0,166.0" style="stroke:#060106; fill:none;"/>
	<path d="M 375.0,165.0 L 375.0,166.0" style="stroke:#060106; fill:none;"/>
	<path d="M 386.0,165.0 L 388.0,165.0" style="stroke:#060106; fill:none;"/>
	<path d="M 392.0,165.0 L 393.0,165.0" style="stroke:#060106; fill:none;"/>
	<path d="M 381.0,166.0 L 378.0,167.0" style="stroke:#060106; fill:none;"/>
	<path d="M 424.0,166.0 L 424.0,168.0" style="stroke:#060106; fill:none;"/>
	<path d="M 312.0,167.0 L 315.0,169.0" style="stroke:#060106; fill:none;"/>
	<path d="M 404.0,167.0 L 405.0,167.0" style="stroke:#060106; fill:none;"/>
	<path d="M 321.0,168.0 L 323.0,169.0" style="stroke:#060106; fill:none;"/>
	<path d="M 380.0,169.0 L 380.0,170.0" style="stroke:#060106; fill:none;"/>
	<path d="M 408.0,169.0 L 410.0,169.0" style="stroke:#060106; fill:none;"/>
	<path d="M 430.0,169.0 L 431.0,169.0" style="stroke:#060106; fill:none;"/>
	<path d="M 416.0,171.0 L 419.0,172.0" style="stroke:#060106; fill:none;"/>
	<path d="M 188.0,176.0 L 190.0,175.0" style="stroke:#060106; fill:none;"/>
	<path d="M 424.0,175.0 L 425.0,175.0" style="stroke:#060106; fill:none;"/>
	<path d="M 385.0,177.0 L 386.0,179.0" style="stroke:#060106; fill:none;"/>
	<path d="M 432.0,178.0 L 433.0,179.0" style="stroke:#060106; fill:none;"/>
	<path d="M 185.0,180.0 L 186.0,180.0" style="stroke:#060106; fill:none;"/>
	<path d="M 443.0,180.0 L 443.0,181.0" style="stroke:#060106; fill:none;"/>
	<path d="M 401.0,183.0 L 401.0,186.0" style="stroke:#060106; fill:none;"/>
	<path d="M 440.0,183.0 L 440.0,184.0" style="stroke:#060106; fill:none;"/>
	<path d="M 389.0,184.0 L 391.0,186.0" style="stroke:#060106; fill:none;"/>
	<path d="M 431.0,185.0 L 433.0,186.0" style="stroke:#060106; fill:none;"/>
	<path d="M 178.0,187.0 L 177.0,188.0" style="stroke:#060106; fill:none;"/>
	<path d="M 447.0,188.0 L 448.0,188.0" style="stroke:#060106; fill:none;"/>
	<path d="M 446.0,190.0 L 447.0,191.0" style="stroke:#060106; fill:none;"/>
	<path d="M 395.0,191.0 L 398.0,193.0" style="stroke:#060106; fill:none;"/>
	<path d="M 401.0,191.0 L 402.0,192.0" style="stroke:#060106; fill:none;"/>
	<path d="M 437.0,192.0 L 437.0,194.0" style="stroke:#060106; fill:none;"/>
	<path d="M 426.0,193.0 L 428.0,193.0" style="stroke:#060106; fill:none;"/>
	<path d="M 430.0,194.0 L 430.0,195.0" style="stroke:#060106; fill:none;"/>
	<path d="M 435.0,194.0 L 435.0,195.0" style="stroke:#060106; fill:none;"/>
	<path d="M 400.0,195.0 L 400.0,196.0" style="stroke:#060106; fill:none;"/>
	<path d="M 404.0,197.0 L 410.0,203.0" style="stroke:#060106; fill:none;"/>
	<path d="M 451.0,198.0 L 451.0,199.0" style="stroke:#060106; fill:none;"/>
	<path d="M 331.0,199.0 L 332.0,200.0" style="stroke:#060106; fill:none;"/>
	<path d="M 453.0,201.0 L 453.0,202.0" style="stroke:#060106; fill:none;"/>
	<path d="M 414.0,204.0 L 415.0,205.0" style="stroke:#060106; fill:none;"/>
	<path d="M 163.0,205.0 L 164.0,205.0" style="stroke:#060106; fill:none;"/>
	<path d="M 453.0,205.0 L 455.0,210.0" style="stroke:#060106; fill:none;"/>
	<path d="M 419.0,209.0 L 420.0,209.0" style="stroke:#060106; fill:none;"/>
	<path d="M 440.0,212.0 L 441.0,212.0" style="stroke:#060106; fill:none;"/>
	<path d="M 457.0,216.0 L 457.0,218.0" style="stroke:#060106; fill:none;"/>
	<path d="M 442.0,222.0 L 442.0,224.0" style="stroke:#060106; fill:none;"/>
	<path d="M 151.0,223.0 L 150.0,227.0" style="stroke:#060106; fill:none;"/>
	<path d="M 459.0,225.0 L 460.0,225.0" style="stroke:#060106; fill:none;"/>
	<path d="M 446.0,226.0 L 452.0,233.0" style="stroke:#060106; fill:none;"/>
	<path d="M 452.0,228.0 L 453.0,229.0" style="stroke:#060106; fill:none;"/>
	<path d="M 461.0,229.0 L 461.0,230.0" style="stroke:#060106; fill:none;"/>
	<path d="M 146.0,234.0 L 146.0,235.0" style="stroke:#060106; fill:none;"/>
	<path d="M 463.0,234.0 L 463.0,235.0" style="stroke:#060106; fill:none;"/>
	<path d="M 456.0,237.0 L 456.0,238.0" style="stroke:#060106; fill:none;"/>
	<path d="M 787.0,240.0 L 787.0,243.0" style="stroke:#060106; fill:none;"/>
	<path d="M 460.0,242.0 L 465.0,249.0" style="stroke:#060106; fill:none;"/>
	<path d="M 140.0,244.0 L 139.0,245.0" style="stroke:#060106; fill:none;"/>
	<path d="M 134.0,248.0 L 135.0,248.0" style="stroke:#060106; fill:none;"/>
	<path d="M 138.0,248.0 L 137.0,251.0" style="stroke:#060106; fill:none;"/>
	<path d="M 789.0,249.0 L 791.0,254.0" style="stroke:#060106; fill:none;"/>
	<path d="M 467.0,252.0 L 468.0,254.0" style="stroke:#060106; fill:none;"/>
	<path d="M 134.0,256.0 L 136.0,254.0" style="stroke:#060106; fill:none;"/>
	<path d="M 793.0,255.0 L 793.0,256.0" style="stroke:#060106; fill:none;"/>
	<path d="M 796.0,261.0 L 795.0,264.0" style="stroke:#060106; fill:none;"/>
	<path d="M 132.0,265.0 L 130.0,266.0" style="stroke:#060106; fill:none;"/>
	<path d="M 798.0,270.0 L 799.0,271.0" style="stroke:#060106; fill:none;"/>
	<path d="M 127.0,275.0 L 126.0,279.0" style="stroke:#060106; fill:none;"/>
	<path d="M 652.0,280.0 L 652.0,281.0" style="stroke:#060106; fill:none;"/>
	<path d="M 122.0,288.0 L 123.0,288.0" style="stroke:#060106; fill:none;"/>
	<path d="M 811.0,292.0 L 812.0,292.0" style="stroke:#060106; fill:none;"/>
	<path d="M 120.0,297.0 L 119.0,298.0" style="stroke:#060106; fill:none;"/>
	<path d="M 694.0,301.0 L 695.0,302.0" style="stroke:#060106; fill:none;"/>
	<path d="M 112.0,317.0 L 112.0,318.0" style="stroke:#060106; fill:none;"/>
	<path d="M 824.0,317.0 L 825.0,317.0" style="stroke:#060106; fill:none;"/>
	<path d="M 111.0,320.0 L 110.0,321.0" style="stroke:#060106; fill:none;"/>
	<path d="M 697.0,325.0 L 698.0,325.0" style="stroke:#060106; fill:none;"/>
	<path d="M 827.0,326.0 L 828.0,328.0" style="stroke:#060106; fill:none;"/>
	<path d="M 109.0,327.0 L 107.0,331.0" style="stroke:#060106; fill:none;"/>
	<path d="M 706.0,331.0 L 707.0,331.0" style="stroke:#060106; fill:none;"/>
	<path d="M 728.0,333.0 L 729.0,333.0" style="stroke:#060106; fill:none;"/>
	<path d="M 712.0,334.0 L 712.0,335.0" style="stroke:#060106; fill:none;"/>
	<path d="M 829.0,336.0 L 829.0,338.0" style="stroke:#060106; fill:none;"/>
	<path d="M 724.0,344.0 L 724.0,345.0" style="stroke:#060106; fill:none;"/>
	<path d="M 367.0,348.0 L 367.0,349.0" style="stroke:#060106; fill:none;"/>
	<path d="M 362.0,350.0 L 364.0,349.0" style="stroke:#060106; fill:none;"/>
	<path d="M 655.0,349.0 L 654.0,351.0" style="stroke:#060106; fill:none;"/>
	<path d="M 358.0,350.0 L 359.0,350.0" style="stroke:#060106; fill:none;"/>
	<path d="M 659.0,350.0 L 660.0,350.0" style="stroke:#060106; fill:none;"/>
	<path d="M 346.0,352.0 L 351.0,352.0" style="stroke:#060106; fill:none;"/>
	<path d="M 830.0,351.0 L 831.0,354.0" style="stroke:#060106; fill:none;"/>
	<path d="M 105.0,353.0 L 105.0,355.0" style="stroke:#060106; fill:none;"/>
	<path d="M 343.0,354.0 L 344.0,354.0" style="stroke:#060106; fill:none;"/>
	<path d="M 340.0,356.0 L 341.0,356.0" style="stroke:#060106; fill:none;"/>
	<path d="M 337.0,357.0 L 337.0,358.0" style="stroke:#060106; fill:none;"/>
	<path d="M 832.0,358.0 L 835.0,366.0" style="stroke:#060106; fill:none;"/>
	<path d="M 104.0,359.0 L 104.0,360.0" style="stroke:#060106; fill:none;"/>
	<path d="M 764.0,359.0 L 763.0,361.0" style="stroke:#060106; fill:none;"/>
	<path d="M 756.0,360.0 L 756.0,361.0" style="stroke:#060106; fill:none;"/>
	<path d="M 329.0,364.0 L 331.0,363.0" style="stroke:#060106; fill:none;"/>
	<path d="M 742.0,363.0 L 743.0,364.0" style="stroke:#060106; fill:none;"/>
	<path d="M 756.0,365.0 L 756.0,368.0" style="stroke:#060106; fill:none;"/>
	<path d="M 744.0,366.0 L 744.0,373.0" style="stroke:#060106; fill:none;"/>
	<path d="M 771.0,367.0 L 770.0,371.0" style="stroke:#060106; fill:none;"/>
	<path d="M 325.0,368.0 L 325.0,369.0" style="stroke:#060106; fill:none;"/>
	<path d="M 733.0,369.0 L 735.0,374.0" style="stroke:#060106; fill:none;"/>
	<path d="M 837.0,369.0 L 837.0,374.0" style="stroke:#060106; fill:none;"/>
	<path d="M 785.0,370.0 L 785.0,371.0" style="stroke:#060106; fill:none;"/>
	<path d="M 606.0,371.0 L 607.0,371.0" style="stroke:#060106; fill:none;"/>
	<path d="M 761.0,372.0 L 761.0,373.0" style="stroke:#060106; fill:none;"/>
	<path d="M 781.0,372.0 L 781.0,373.0" style="stroke:#060106; fill:none;"/>
	<path d="M 647.0,373.0 L 647.0,374.0" style="stroke:#060106; fill:none;"/>
	<path d="M 770.0,373.0 L 770.0,376.0" style="stroke:#060106; fill:none;"/>
	<path d="M 104.0,374.0 L 103.0,379.0" style="stroke:#060106; fill:none;"/>
	<path d="M 619.0,374.0 L 619.0,375.0" style="stroke:#060106; fill:none;"/>
	<path d="M 630.0,374.0 L 630.0,375.0" style="stroke:#060106; fill:none;"/>
	<path d="M 755.0,375.0 L 755.0,376.0" style="stroke:#060106; fill:none;"/>
	<path d="M 638.0,376.0 L 638.0,377.0" style="stroke:#060106; fill:none;"/>
	<path d="M 659.0,376.0 L 658.0,377.0" style="stroke:#060106; fill:none;"/>
	<path d="M 737.0,377.0 L 738.0,377.0" style="stroke:#060106; fill:none;"/>
	<path d="M 746.0,377.0 L 747.0,377.0" style="stroke:#060106; fill:none;"/>
	<path d="M 646.0,378.0 L 648.0,378.0" style="stroke:#060106; fill:none;"/>
	<path d="M 756.0,378.0 L 756.0,381.0" style="stroke:#060106; fill:none;"/>
	<path d="M 692.0,379.0 L 692.0,380.0" style="stroke:#060106; fill:none;"/>
	<path d="M 654.0,381.0 L 657.0,382.0" style="stroke:#060106; fill:none;"/>
	<path d="M 665.0,380.0 L 670.0,382.0" style="stroke:#060106; fill:none;"/>
	<path d="M 743.0,380.0 L 742.0,383.0" style="stroke:#060106; fill:none;"/>
	<path d="M 747.0,380.0 L 747.0,382.0" style="stroke:#060106; fill:none;"/>
	<path d="M 761.0,380.0 L 759.0,388.0" style="stroke:#060106; fill:none;"/>
	<path d="M 767.0,380.0 L 767.0,381.0" style="stroke:#060106; fill:none;"/>
	<path d="M 770.0,380.0 L 765.0,400.0" style="stroke:#060106; fill:none;"/>
	<path d="M 775.0,380.0 L 776.0,380.0" style="stroke:#060106; fill:none;"/>
	<path d="M 841.0,381.0 L 842.0,384.0" style="stroke:#060106; fill:none;"/>
	<path d="M 316.0,383.0 L 316.0,385.0" style="stroke:#060106; fill:none;"/>
	<path d="M 673.0,384.0 L 675.0,385.0" style="stroke:#060106; fill:none;"/>
	<path d="M 746.0,385.0 L 748.0,384.0" style="stroke:#060106; fill:none;"/>
	<path d="M 775.0,384.0 L 775.0,387.0" style="stroke:#060106; fill:none;"/>
	<path d="M 654.0,385.0 L 653.0,386.0" style="stroke:#060106; fill:none;"/>
	<path d="M 695.0,385.0 L 696.0,386.0" style="stroke:#060106; fill:none;"/>
	<path d="M 669.0,386.0 L 669.0,387.0" style="stroke:#060106; fill:none;"/>
	<path d="M 752.0,386.0 L 752.0,388.0" style="stroke:#060106; fill:none;"/>
	<path d="M 676.0,388.0 L 680.0,390.0 L 678.0,390.0" style="stroke:#060106; fill:none;"/>
	<path d="M 748.0,389.0 L 748.0,390.0" style="stroke:#060106; fill:none;"/>
	<path d="M 97.0,391.0 L 97.0,392.0" style="stroke:#060106; fill:none;"/>
	<path d="M 316.0,391.0 L 316.0,392.0" style="stroke:#060106; fill:none;"/>
	<path d="M 681.0,392.0 L 682.0,392.0" style="stroke:#060106; fill:none;"/>
	<path d="M 687.0,392.0 L 687.0,393.0" style="stroke:#060106; fill:none;"/>
	<path d="M 759.0,392.0 L 758.0,393.0" style="stroke:#060106; fill:none;"/>
	<path d="M 630.0,393.0 L 631.0,393.0" style="stroke:#060106; fill:none;"/>
	<path d="M 647.0,394.0 L 646.0,397.0" style="stroke:#060106; fill:none;"/>
	<path d="M 754.0,394.0 L 755.0,394.0" style="stroke:#060106; fill:none;"/>
	<path d="M 757.0,395.0 L 758.0,395.0" style="stroke:#060106; fill:none;"/>
	<path d="M 766.0,396.0 L 768.0,398.0" style="stroke:#060106; fill:none;"/>
	<path d="M 634.0,397.0 L 635.0,397.0" style="stroke:#060106; fill:none;"/>
	<path d="M 679.0,397.0 L 680.0,397.0" style="stroke:#060106; fill:none;"/>
	<path d="M 776.0,398.0 L 777.0,399.0" style="stroke:#060106; fill:none;"/>
	<path d="M 665.0,399.0 L 666.0,399.0" style="stroke:#060106; fill:none;"/>
	<path d="M 692.0,399.0 L 692.0,400.0" style="stroke:#060106; fill:none;"/>
	<path d="M 771.0,399.0 L 771.0,402.0" style="stroke:#060106; fill:none;"/>
	<path d="M 645.0,400.0 L 643.0,409.0" style="stroke:#060106; fill:none;"/>
	<path d="M 785.0,400.0 L 785.0,402.0" style="stroke:#060106; fill:none;"/>
	<path d="M 96.0,401.0 L 95.0,402.0" style="stroke:#060106; fill:none;"/>
	<path d="M 672.0,401.0 L 673.0,401.0" style="stroke:#060106; fill:none;"/>
	<path d="M 684.0,401.0 L 685.0,402.0" style="stroke:#060106; fill:none;"/>
	<path d="M 704.0,401.0 L 704.0,402.0" style="stroke:#060106; fill:none;"/>
	<path d="M 767.0,401.0 L 767.0,404.0" style="stroke:#060106; fill:none;"/>
	<path d="M 637.0,402.0 L 638.0,403.0" style="stroke:#060106; fill:none;"/>
	<path d="M 756.0,403.0 L 754.0,406.0" style="stroke:#060106; fill:none;"/>
	<path d="M 764.0,403.0 L 764.0,404.0" style="stroke:#060106; fill:none;"/>
	<path d="M 774.0,403.0 L 775.0,403.0" style="stroke:#060106; fill:none;"/>
	<path d="M 770.0,404.0 L 771.0,404.0" style="stroke:#060106; fill:none;"/>
	<path d="M 777.0,404.0 L 777.0,405.0" style="stroke:#060106; fill:none;"/>
	<path d="M 94.0,405.0 L 92.0,407.0" style="stroke:#060106; fill:none;"/>
	<path d="M 640.0,405.0 L 642.0,407.0" style="stroke:#060106; fill:none;"/>
	<path d="M 320.0,406.0 L 321.0,407.0" style="stroke:#060106; fill:none;"/>
	<path d="M 692.0,406.0 L 693.0,406.0" style="stroke:#060106; fill:none;"/>
	<path d="M 762.0,407.0 L 761.0,408.0" style="stroke:#060106; fill:none;"/>
	<path d="M 694.0,408.0 L 694.0,409.0" style="stroke:#060106; fill:none;"/>
	<path d="M 766.0,408.0 L 765.0,414.0" style="stroke:#060106; fill:none;"/>
	<path d="M 769.0,408.0 L 770.0,408.0" style="stroke:#060106; fill:none;"/>
	<path d="M 644.0,411.0 L 645.0,411.0" style="stroke:#060106; fill:none;"/>
	<path d="M 673.0,411.0 L 675.0,411.0" style="stroke:#060106; fill:none;"/>
	<path d="M 854.0,413.0 L 854.0,421.0" style="stroke:#060106; fill:none;"/>
	<path d="M 647.0,415.0 L 647.0,416.0" style="stroke:#060106; fill:none;"/>
	<path d="M 86.0,416.0 L 85.0,417.0" style="stroke:#060106; fill:none;"/>
	<path d="M 328.0,416.0 L 329.0,416.0" style="stroke:#060106; fill:none;"/>
	<path d="M 693.0,416.0 L 694.0,417.0" style="stroke:#060106; fill:none;"/>
	<path d="M 711.0,416.0 L 711.0,418.0" style="stroke:#060106; fill:none;"/>
	<path d="M 758.0,416.0 L 758.0,417.0" style="stroke:#060106; fill:none;"/>
	<path d="M 766.0,416.0 L 767.0,416.0" style="stroke:#060106; fill:none;"/>
	<path d="M 766.0,418.0 L 766.0,419.0" style="stroke:#060106; fill:none;"/>
	<path d="M 694.0,420.0 L 689.0,428.0" style="stroke:#060106; fill:none;"/>
	<path d="M 712.0,420.0 L 712.0,421.0" style="stroke:#060106; fill:none;"/>
	<path d="M 762.0,420.0 L 762.0,421.0" style="stroke:#060106; fill:none;"/>
	<path d="M 88.0,423.0 L 89.0,424.0" style="stroke:#060106; fill:none;"/>
	<path d="M 337.0,423.0 L 337.0,428.0" style="stroke:#060106; fill:none;"/>
	<path d="M 713.0,425.0 L 714.0,426.0" style="stroke:#060106; fill:none;"/>
	<path d="M 854.0,425.0 L 855.0,429.0" style="stroke:#060106; fill:none;"/>
	<path d="M 658.0,426.0 L 659.0,426.0" style="stroke:#060106; fill:none;"/>
	<path d="M 768.0,426.0 L 767.0,427.0" style="stroke:#060106; fill:none;"/>
	<path d="M 696.0,427.0 L 696.0,428.0" style="stroke:#060106; fill:none;"/>
	<path d="M 701.0,427.0 L 702.0,427.0" style="stroke:#060106; fill:none;"/>
	<path d="M 732.0,430.0 L 732.0,431.0" style="stroke:#060106; fill:none;"/>
	<path d="M 338.0,431.0 L 338.0,432.0" style="stroke:#060106; fill:none;"/>
	<path d="M 671.0,432.0 L 673.0,431.0" style="stroke:#060106; fill:none;"/>
	<path d="M 679.0,431.0 L 680.0,431.0" style="stroke:#060106; fill:none;"/>
	<path d="M 683.0,431.0 L 685.0,431.0" style="stroke:#060106; fill:none;"/>
	<path d="M 703.0,431.0 L 703.0,437.0" style="stroke:#060106; fill:none;"/>
	<path d="M 731.0,437.0 L 731.0,438.0" style="stroke:#060106; fill:none;"/>
	<path d="M 338.0,440.0 L 338.0,441.0" style="stroke:#060106; fill:none;"/>
	<path d="M 84.0,441.0 L 84.0,442.0" style="stroke:#060106; fill:none;"/>
	<path d="M 673.0,441.0 L 674.0,441.0" style="stroke:#060106; fill:none;"/>
	<path d="M 337.0,444.0 L 338.0,444.0" style="stroke:#060106; fill:none;"/>
	<path d="M 678.0,444.0 L 680.0,444.0" style="stroke:#060106; fill:none;"/>
	<path d="M 757.0,445.0 L 758.0,445.0" style="stroke:#060106; fill:none;"/>
	<path d="M 761.0,446.0 L 761.0,447.0" style="stroke:#060106; fill:none;"/>
	<path d="M 338.0,447.0 L 338.0,456.0" style="stroke:#060106; fill:none;"/>
	<path d="M 689.0,448.0 L 688.0,449.0" style="stroke:#060106; fill:none;"/>
	<path d="M 83.0,449.0 L 84.0,449.0" style="stroke:#060106; fill:none;"/>
	<path d="M 704.0,449.0 L 705.0,449.0" style="stroke:#060106; fill:none;"/>
	<path d="M 82.0,453.0 L 82.0,454.0" style="stroke:#060106; fill:none;"/>
	<path d="M 705.0,453.0 L 706.0,455.0" style="stroke:#060106; fill:none;"/>
	<path d="M 763.0,456.0 L 762.0,457.0" style="stroke:#060106; fill:none;"/>
	<path d="M 81.0,458.0 L 81.0,459.0" style="stroke:#060106; fill:none;"/>
	<path d="M 339.0,459.0 L 339.0,461.0" style="stroke:#060106; fill:none;"/>
	<path d="M 718.0,460.0 L 718.0,461.0" style="stroke:#060106; fill:none;"/>
	<path d="M 713.0,461.0 L 713.0,462.0" style="stroke:#060106; fill:none;"/>
	<path d="M 860.0,462.0 L 859.0,465.0" style="stroke:#060106; fill:none;"/>
	<path d="M 719.0,463.0 L 718.0,465.0" style="stroke:#060106; fill:none;"/>
	<path d="M 81.0,464.0 L 80.0,467.0" style="stroke:#060106; fill:none;"/>
	<path d="M 339.0,464.0 L 340.0,466.0" style="stroke:#060106; fill:none;"/>
	<path d="M 712.0,468.0 L 712.0,469.0" style="stroke:#060106; fill:none;"/>
	<path d="M 720.0,468.0 L 721.0,468.0" style="stroke:#060106; fill:none;"/>
	<path d="M 859.0,468.0 L 860.0,468.0" style="stroke:#060106; fill:none;"/>
	<path d="M 718.0,470.0 L 716.0,473.0" style="stroke:#060106; fill:none;"/>
	<path d="M 340.0,471.0 L 344.0,478.0" style="stroke:#060106; fill:none;"/>
	<path d="M 79.0,475.0 L 80.0,477.0" style="stroke:#060106; fill:none;"/>
	<path d="M 862.0,480.0 L 862.0,481.0" style="stroke:#060106; fill:none;"/>
	<path d="M 345.0,481.0 L 346.0,484.0" style="stroke:#060106; fill:none;"/>
	<path d="M 348.0,485.0 L 348.0,486.0" style="stroke:#060106; fill:none;"/>
	<path d="M 350.0,488.0 L 350.0,489.0" style="stroke:#060106; fill:none;"/>
	<path d="M 862.0,490.0 L 862.0,492.0" style="stroke:#060106; fill:none;"/>
	<path d="M 713.0,495.0 L 715.0,497.0" style="stroke:#060106; fill:none;"/>
	<path d="M 79.0,496.0 L 79.0,499.0" style="stroke:#060106; fill:none;"/>
	<path d="M 98.0,496.0 L 98.0,497.0" style="stroke:#060106; fill:none;"/>
	<path d="M 860.0,497.0 L 860.0,498.0" style="stroke:#060106; fill:none;"/>
	<path d="M 96.0,502.0 L 97.0,502.0" style="stroke:#060106; fill:none;"/>
	<path d="M 858.0,504.0 L 858.0,505.0" style="stroke:#060106; fill:none;"/>
	<path d="M 368.0,506.0 L 368.0,507.0" style="stroke:#060106; fill:none;"/>
	<path d="M 723.0,506.0 L 725.0,508.0" style="stroke:#060106; fill:none;"/>
	<path d="M 79.0,507.0 L 80.0,507.0" style="stroke:#060106; fill:none;"/>
	<path d="M 844.0,507.0 L 845.0,507.0" style="stroke:#060106; fill:none;"/>
	<path d="M 860.0,511.0 L 862.0,507.0" style="stroke:#060106; fill:none;"/>
	<path d="M 95.0,508.0 L 94.0,511.0" style="stroke:#060106; fill:none;"/>
	<path d="M 371.0,508.0 L 372.0,509.0" style="stroke:#060106; fill:none;"/>
	<path d="M 497.0,508.0 L 498.0,508.0" style="stroke:#060106; fill:none;"/>
	<path d="M 80.0,511.0 L 77.0,523.0" style="stroke:#060106; fill:none;"/>
	<path d="M 376.0,511.0 L 377.0,511.0" style="stroke:#060106; fill:none;"/>
	<path d="M 381.0,512.0 L 382.0,513.0" style="stroke:#060106; fill:none;"/>
	<path d="M 94.0,513.0 L 93.0,516.0" style="stroke:#060106; fill:none;"/>
	<path d="M 856.0,514.0 L 859.0,517.0 L 854.0,520.0" style="stroke:#060106; fill:none;"/>
	<path d="M 439.0,515.0 L 440.0,516.0" style="stroke:#060106; fill:none;"/>
	<path d="M 860.0,515.0 L 859.0,516.0" style="stroke:#060106; fill:none;"/>
	<path d="M 434.0,516.0 L 435.0,517.0" style="stroke:#060106; fill:none;"/>
	<path d="M 443.0,517.0 L 445.0,518.0" style="stroke:#060106; fill:none;"/>
	<path d="M 422.0,518.0 L 424.0,518.0" style="stroke:#060106; fill:none;"/>
	<path d="M 93.0,518.0 L 93.0,520.0" style="stroke:#060106; fill:none;"/>
	<path d="M 427.0,518.0 L 432.0,518.0" style="stroke:#060106; fill:none;"/>
	<path d="M 222.0,521.0 L 222.0,522.0" style="stroke:#060106; fill:none;"/>
	<path d="M 852.0,522.0 L 851.0,524.0" style="stroke:#060106; fill:none;"/>
	<path d="M 477.0,527.0 L 478.0,527.0" style="stroke:#060106; fill:none;"/>
	<path d="M 263.0,529.0 L 264.0,530.0" style="stroke:#060106; fill:none;"/>
	<path d="M 841.0,532.0 L 840.0,533.0" style="stroke:#060106; fill:none;"/>
	<path d="M 453.0,533.0 L 453.0,534.0" style="stroke:#060106; fill:none;"/>
	<path d="M 226.0,537.0 L 227.0,538.0" style="stroke:#060106; fill:none;"/>
	<path d="M 270.0,539.0 L 270.0,541.0" style="stroke:#060106; fill:none;"/>
	<path d="M 845.0,541.0 L 846.0,541.0" style="stroke:#060106; fill:none;"/>
	<path d="M 90.0,542.0 L 90.0,543.0" style="stroke:#060106; fill:none;"/>
	<path d="M 272.0,543.0 L 273.0,547.0" style="stroke:#060106; fill:none;"/>
	<path d="M 849.0,543.0 L 853.0,544.0" style="stroke:#060106; fill:none;"/>
	<path d="M 857.0,544.0 L 858.0,544.0" style="stroke:#060106; fill:none;"/>
	<path d="M 89.0,547.0 L 88.0,551.0" style="stroke:#060106; fill:none;"/>
	<path d="M 232.0,548.0 L 232.0,549.0" style="stroke:#060106; fill:none;"/>
	<path d="M 857.0,548.0 L 858.0,549.0" style="stroke:#060106; fill:none;"/>
	<path d="M 275.0,549.0 L 275.0,550.0" style="stroke:#060106; fill:none;"/>
	<path d="M 865.0,553.0 L 866.0,553.0" style="stroke:#060106; fill:none;"/>
	<path d="M 869.0,553.0 L 870.0,554.0" style="stroke:#060106; fill:none;"/>
	<path d="M 89.0,554.0 L 88.0,556.0" style="stroke:#060106; fill:none;"/>
	<path d="M 237.0,555.0 L 237.0,556.0" style="stroke:#060106; fill:none;"/>
	<path d="M 241.0,560.0 L 242.0,561.0" style="stroke:#060106; fill:none;"/>
	<path d="M 88.0,561.0 L 87.0,563.0" style="stroke:#060106; fill:none;"/>
	<path d="M 282.0,561.0 L 287.0,564.0" style="stroke:#060106; fill:none;"/>
	<path d="M 804.0,563.0 L 805.0,564.0" style="stroke:#060106; fill:none;"/>
	<path d="M 798.0,564.0 L 800.0,564.0" style="stroke:#060106; fill:none;"/>
	<path d="M 819.0,564.0 L 823.0,565.0" style="stroke:#060106; fill:none;"/>
	<path d="M 831.0,565.0 L 832.0,568.0" style="stroke:#060106; fill:none;"/>
	<path d="M 792.0,568.0 L 796.0,566.0" style="stroke:#060106; fill:none;"/>
	<path d="M 249.0,568.0 L 249.0,570.0" style="stroke:#060106; fill:none;"/>
	<path d="M 837.0,568.0 L 837.0,569.0" style="stroke:#060106; fill:none;"/>
	<path d="M 87.0,569.0 L 88.0,569.0" style="stroke:#060106; fill:none;"/>
	<path d="M 888.0,570.0 L 888.0,571.0" style="stroke:#060106; fill:none;"/>
	<path d="M 250.0,572.0 L 251.0,572.0" style="stroke:#060106; fill:none;"/>
	<path d="M 844.0,572.0 L 847.0,573.0" style="stroke:#060106; fill:none;"/>
	<path d="M 253.0,574.0 L 253.0,575.0" style="stroke:#060106; fill:none;"/>
	<path d="M 786.0,576.0 L 782.0,581.0" style="stroke:#060106; fill:none;"/>
	<path d="M 891.0,578.0 L 891.0,580.0" style="stroke:#060106; fill:none;"/>
	<path d="M 258.0,580.0 L 261.0,583.0" style="stroke:#060106; fill:none;"/>
	<path d="M 87.0,583.0 L 88.0,583.0" style="stroke:#060106; fill:none;"/>
	<path d="M 780.0,583.0 L 779.0,585.0" style="stroke:#060106; fill:none;"/>
	<path d="M 87.0,585.0 L 88.0,585.0" style="stroke:#060106; fill:none;"/>
	<path d="M 266.0,587.0 L 267.0,588.0" style="stroke:#060106; fill:none;"/>
	<path d="M 886.0,587.0 L 887.0,587.0" style="stroke:#060106; fill:none;"/>
	<path d="M 326.0,591.0 L 328.0,592.0" style="stroke:#060106; fill:none;"/>
	<path d="M 774.0,591.0 L 771.0,594.0" style="stroke:#060106; fill:none;"/>
	<path d="M 87.0,593.0 L 88.0,593.0" style="stroke:#060106; fill:none;"/>
	<path d="M 818.0,593.0 L 820.0,594.0" style="stroke:#060106; fill:none;"/>
	<path d="M 856.0,594.0 L 857.0,594.0" style="stroke:#060106; fill:none;"/>
	<path d="M 769.0,597.0 L 768.0,598.0" style="stroke:#060106; fill:none;"/>
	<path d="M 852.0,597.0 L 848.0,600.0" style="stroke:#060106; fill:none;"/>
	<path d="M 872.0,600.0 L 873.0,600.0" style="stroke:#060106; fill:none;"/>
	<path d="M 841.0,601.0 L 844.0,601.0" style="stroke:#060106; fill:none;"/>
	<path d="M 88.0,602.0 L 88.0,608.0" style="stroke:#060106; fill:none;"/>
	<path d="M 764.0,603.0 L 763.0,604.0" style="stroke:#060106; fill:none;"/>
	<path d="M 804.0,605.0 L 805.0,605.0" style="stroke:#060106; fill:none;"/>
	<path d="M 862.0,606.0 L 864.0,605.0" style="stroke:#060106; fill:none;"/>
	<path d="M 827.0,606.0 L 827.0,607.0" style="stroke:#060106; fill:none;"/>
	<path d="M 858.0,607.0 L 859.0,607.0" style="stroke:#060106; fill:none;"/>
	<path d="M 820.0,609.0 L 822.0,609.0" style="stroke:#060106; fill:none;"/>
	<path d="M 759.0,609.0 L 757.0,612.0" style="stroke:#060106; fill:none;"/>
	<path d="M 792.0,612.0 L 797.0,610.0" style="stroke:#060106; fill:none;"/>
	<path d="M 855.0,610.0 L 851.0,612.0" style="stroke:#060106; fill:none;"/>
	<path d="M 805.0,613.0 L 807.0,613.0" style="stroke:#060106; fill:none;"/>
	<path d="M 801.0,615.0 L 802.0,615.0" style="stroke:#060106; fill:none;"/>
	<path d="M 793.0,617.0 L 794.0,617.0" style="stroke:#060106; fill:none;"/>
	<path d="M 779.0,618.0 L 779.0,619.0" style="stroke:#060106; fill:none;"/>
	<path d="M 839.0,618.0 L 838.0,620.0" style="stroke:#060106; fill:none;"/>
	<path d="M 748.0,619.0 L 749.0,621.0" style="stroke:#060106; fill:none;"/>
	<path d="M 831.0,621.0 L 832.0,621.0" style="stroke:#060106; fill:none;"/>
	<path d="M 829.0,622.0 L 829.0,623.0" style="stroke:#060106; fill:none;"/>
	<path d="M 767.0,623.0 L 762.0,627.0" style="stroke:#060106; fill:none;"/>
	<path d="M 90.0,624.0 L 92.0,629.0" style="stroke:#060106; fill:none;"/>
	<path d="M 743.0,624.0 L 745.0,625.0 L 741.0,630.0" style="stroke:#060106; fill:none;"/>
	<path d="M 824.0,624.0 L 823.0,626.0" style="stroke:#060106; fill:none;"/>
	<path d="M 814.0,627.0 L 814.0,628.0" style="stroke:#060106; fill:none;"/>
	<path d="M 759.0,628.0 L 759.0,629.0" style="stroke:#060106; fill:none;"/>
	<path d="M 799.0,629.0 L 802.0,630.0" style="stroke:#060106; fill:none;"/>
	<path d="M 780.0,631.0 L 781.0,631.0" style="stroke:#060106; fill:none;"/>
	<path d="M 750.0,632.0 L 751.0,633.0" style="stroke:#060106; fill:none;"/>
	<path d="M 92.0,633.0 L 94.0,634.0" style="stroke:#060106; fill:none;"/>
	<path d="M 748.0,633.0 L 748.0,635.0" style="stroke:#060106; fill:none;"/>
	<path d="M 754.0,634.0 L 755.0,634.0" style="stroke:#060106; fill:none;"/>
	<path d="M 739.0,639.0 L 740.0,639.0" style="stroke:#060106; fill:none;"/>
	<path d="M 95.0,640.0 L 94.0,641.0" style="stroke:#060106; fill:none;"/>
	<path d="M 729.0,647.0 L 727.0,649.0" style="stroke:#060106; fill:none;"/>
	<path d="M 97.0,649.0 L 97.0,654.0" style="stroke:#060106; fill:none;"/>
	<path d="M 722.0,654.0 L 722.0,655.0" style="stroke:#060106; fill:none;"/>
	<path d="M 714.0,662.0 L 713.0,664.0" style="stroke:#060106; fill:none;"/>
	<path d="M 707.0,670.0 L 706.0,675.0" style="stroke:#060106; fill:none;"/>
	<path d="M 699.0,676.0 L 698.0,678.0" style="stroke:#060106; fill:none;"/>
	<path d="M 706.0,677.0 L 706.0,678.0" style="stroke:#060106; fill:none;"/>
	<path d="M 684.0,689.0 L 685.0,689.0" style="stroke:#060106; fill:none;"/>
	<path d="M 682.0,691.0 L 683.0,691.0" style="stroke:#060106; fill:none;"/>
	<path d="M 676.0,694.0 L 675.0,696.0" style="stroke:#060106; fill:none;"/>
	<path d="M 665.0,701.0 L 664.0,702.0" style="stroke:#060106; fill:none;"/>
	<path d="M 654.0,707.0 L 653.0,709.0" style="stroke:#060106; fill:none;"/>
	<path d="M 649.0,710.0 L 648.0,711.0" style="stroke:#060106; fill:none;"/>
	<path d="M 633.0,719.0 L 632.0,720.0" style="stroke:#060106; fill:none;"/>
	<path d="M 609.0,730.0 L 608.0,731.0" style="stroke:#060106; fill:none;"/>
	<path d="M 603.0,732.0 L 603.0,733.0" style="stroke:#060106; fill:none;"/>
	<path d="M 569.0,743.0 L 569.0,744.0" style="stroke:#060106; fill:none;"/>
	<path d="M 556.0,748.0 L 558.0,748.0" style="stroke:#060106; fill:none;"/>
	<path d="M 547.0,751.0 L 550.0,750.0" style="stroke:#060106; fill:none;"/>
	<path d="M 552.0,750.0 L 553.0,750.0" style="stroke:#060106; fill:none;"/>
	<path d="M 541.0,753.0 L 543.0,753.0" style="stroke:#060106; fill:none;"/>
	<path d="M 462.0,771.0 L 463.0,771.0" style="stroke:#060106; fill:none;"/>
	<path d="M 465.0,771.0 L 466.0,771.0" style="stroke:#060106; fill:none;"/>
	<path d="M 207.0,772.0 L 208.0,772.0" style="stroke:#060106; fill:none;"/>
	<path d="M 453.0,773.0 L 453.0,774.0" style="stroke:#060106; fill:none;"/>
	<path d="M 458.0,773.0 L 458.0,774.0" style="stroke:#060106; fill:none;"/>
	<path d="M 215.0,774.0 L 217.0,774.0" style="stroke:#060106; fill:none;"/>
	<path d="M 449.0,774.0 L 448.0,775.0" style="stroke:#060106; fill:none;"/>
	<path d="M 223.0,777.0 L 224.0,777.0" style="stroke:#060106; fill:none;"/>
	<path d="M 430.0,779.0 L 435.0,778.0" style="stroke:#060106; fill:none;"/>
	<path d="M 311.0,779.0 L 311.0,780.0" style="stroke:#060106; fill:none;"/>
	<path d="M 422.0,780.0 L 425.0,779.0" style="stroke:#060106; fill:none;"/>
	<path d="M 242.0,780.0 L 243.0,780.0" style="stroke:#060106; fill:none;"/>
	<path d="M 367.0,780.0 L 367.0,781.0" style="stroke:#060106; fill:none;"/>
	<path d="M 413.0,780.0 L 413.0,781.0" style="stroke:#060106; fill:none;"/>
	<path d="M 406.0,782.0 L 409.0,782.0" style="stroke:#060106; fill:none;"/>
	<path d="M 250.0,782.0 L 251.0,782.0" style="stroke:#060106; fill:none;"/>
	<path d="M 360.0,783.0 L 362.0,783.0" style="stroke:#060106; fill:none;"/>
	<path d="M 403.0,782.0 L 403.0,783.0" style="stroke:#060106; fill:none;"/>
	<path d="M 258.0,783.0 L 260.0,783.0" style="stroke:#060106; fill:none;"/>
	<path d="M 280.0,783.0 L 280.0,786.0" style="stroke:#060106; fill:none;"/>
	<path d="M 298.0,784.0 L 301.0,783.0" style="stroke:#060106; fill:none;"/>
	<path d="M 285.0,784.0 L 286.0,784.0" style="stroke:#060106; fill:none;"/>
	<path d="M 290.0,784.0 L 291.0,784.0" style="stroke:#060106; fill:none;"/>
	<path d="M 305.0,784.0 L 308.0,784.0" style="stroke:#060106; fill:none;"/>
	<path d="M 319.0,784.0 L 321.0,784.0" style="stroke:#060106; fill:none;"/>
	<path d="M 333.0,784.0 L 333.0,785.0" style="stroke:#060106; fill:none;"/>
	<path d="M 370.0,785.0 L 375.0,785.0" style="stroke:#060106; fill:none;"/>
</svg>
