<?xml version="1.0" ?>
<svg baseProfile="full" height="2577" version="1.1" width="1990" xmlns="http://www.w3.org/2000/svg" xmlns:ev="http://www.w3.org/2001/xml-events" xmlns:xlink="http://www.w3.org/1999/xlink">
	<defs/>
	<path d="M 1247.0,421.0 L 1250.0,422.0" style="stroke:#010101; fill:none;"/>
	<path d="M 1241.0,422.0 C 1247.39,427.254 1251.7,429.991 1260.0,431.0" style="stroke:#010101; fill:none;"/>
	<path d="M 1252.0,431.0 L 1280.0,469.0" style="stroke:#010101; fill:none;"/>
	<path d="M 1258.0,435.0 L 1266.0,437.0" style="stroke:#010101; fill:none;"/>
	<path d="M 1265.0,445.0 L 1272.0,446.0" style="stroke:#010101; fill:none;"/>
	<path d="M 1282.0,473.0 C 1289.11,479.948 1299.84,488.67 1310.0,490.0 L 1307.0,484.0" style="stroke:#010101; fill:none;"/>
	<path d="M 1308.0,485.0 L 1305.0,488.0" style="stroke:#010101; fill:none;"/>
	<path d="M 1310.0,490.0 C 1325.56,504.318 1344.75,515.049 1361.0,528.741 C 1365.17,532.26 1377.12,540.704 1376.0,546.0 L 1374.0,542.0" style="stroke:#010101; fill:none;"/>
	<path d="M 1328.0,496.0 L 1333.0,500.0" style="stroke:#010101; fill:none;"/>
	<path d="M 1338.0,503.0 L 1360.0,518.0" style="stroke:#010101; fill:none;"/>
	<path d="M 1358.0,509.0 L 1370.0,521.0" style="stroke:#010101; fill:none;"/>
	<path d="M 1310.0,516.0 C 1293.89,529.327 1283.96,552.589 1274.75,571.0 C 1270.39,579.717 1264.7,588.621 1262.0,598.0" style="stroke:#010101; fill:none;"/>
	<path d="M 1302.0,518.0 L 1284.0,540.0 L 1286.0,536.0" style="stroke:#010101; fill:none;"/>
	<path d="M 1315.0,519.0 L 1310.0,523.0" style="stroke:#010101; fill:none;"/>
	<path d="M 1238.0,617.0 L 1273.0,544.0 C 1260.87,541.22 1281.1,524.111 1286.0,521.0" style="stroke:#010101; fill:none;"/>
	<path d="M 1373.0,521.0 L 1378.0,525.0" style="stroke:#010101; fill:none;"/>
	<path d="M 1327.0,522.0 L 1314.0,536.0" style="stroke:#010101; fill:none;"/>
	<path d="M 1292.0,523.0 C 1284.87,528.434 1277.31,535.512 1274.0,544.0" style="stroke:#010101; fill:none;"/>
	<path d="M 1371.0,523.0 L 1398.0,556.0" style="stroke:#010101; fill:none;"/>
	<path d="M 1322.0,524.0 L 1323.0,525.0" style="stroke:#010101; fill:none;"/>
	<path d="M 1298.0,552.0 L 1319.0,525.0" style="stroke:#010101; fill:none;"/>
	<path d="M 1275.0,527.0 L 1277.0,527.0" style="stroke:#010101; fill:none;"/>
	<path d="M 1188.0,672.0 C 1198.31,630.142 1216.08,587.641 1244.72,555.0 C 1253.35,545.157 1263.18,533.032 1275.0,527.0" style="stroke:#010101; fill:none;"/>
	<path d="M 1265.0,528.0 L 1245.34,544.999 L 1238.0,551.0" style="stroke:#010101; fill:none;"/>
	<path d="M 1307.0,529.0 L 1275.0,584.0" style="stroke:#010101; fill:none;"/>
	<path d="M 1251.0,531.0 C 1240.07,539.241 1229.16,558.658 1214.0,557.0 L 1214.0,561.0" style="stroke:#010101; fill:none;"/>
	<path d="M 1242.0,546.0 L 1253.0,537.0" style="stroke:#010101; fill:none;"/>
	<path d="M 1220.0,557.0 C 1215.25,548.599 1231.75,541.291 1238.0,538.0" style="stroke:#010101; fill:none;"/>
	<path d="M 1207.0,657.0 C 1207.86,647.134 1213.15,637.133 1216.8,628.0 C 1225.53,606.182 1235.46,584.892 1248.05,565.0 C 1253.79,555.935 1257.74,543.786 1268.0,539.0" style="stroke:#010101; fill:none;"/>
	<path d="M 1281.0,540.0 L 1283.0,539.0" style="stroke:#010101; fill:none;"/>
	<path d="M 1284.0,540.0 L 1256.0,596.0" style="stroke:#010101; fill:none;"/>
	<path d="M 1272.0,542.0 L 1274.0,541.0" style="stroke:#010101; fill:none;"/>
	<path d="M 1268.0,543.0 C 1250.09,571.866 1225.9,605.699 1220.0,640.0" style="stroke:#010101; fill:none;"/>
	<path d="M 1377.0,543.0 L 1377.0,545.0" style="stroke:#010101; fill:none;"/>
	<path d="M 1270.0,544.0 L 1268.0,546.0" style="stroke:#010101; fill:none;"/>
	<path d="M 1238.0,550.0 L 1242.0,546.0" style="stroke:#010101; fill:none;"/>
	<path d="M 1376.0,547.0 L 1432.0,607.896 L 1498.0,658.615 L 1542.0,698.143 L 1553.0,702.0" style="stroke:#010101; fill:none;"/>
	<path d="M 1238.0,553.0 C 1234.8,559.897 1227.78,569.407 1221.0,573.0 C 1223.35,565.085 1230.42,556.841 1237.0,552.0" style="stroke:#010101; fill:none;"/>
	<path d="M 1196.0,663.0 C 1197.8,650.833 1203.87,638.246 1208.72,627.0 C 1219.56,601.847 1231.56,568.036 1255.0,552.0" style="stroke:#010101; fill:none;"/>
	<path d="M 1217.0,554.0 L 1215.0,556.0" style="stroke:#010101; fill:none;"/>
	<path d="M 1219.0,556.0 L 1217.0,557.0 L 1222.0,554.0" style="stroke:#010101; fill:none;"/>
	<path d="M 1225.0,557.0 C 1211.85,575.297 1196.73,592.954 1188.0,614.0 L 1190.0,611.0" style="stroke:#010101; fill:none;"/>
	<path d="M 1207.0,568.0 L 1213.0,558.0" style="stroke:#010101; fill:none;"/>
	<path d="M 1211.0,560.0 L 1204.0,567.0" style="stroke:#010101; fill:none;"/>
	<path d="M 1215.0,560.0 C 1213.83,563.82 1212.01,565.448 1208.0,565.0" style="stroke:#010101; fill:none;"/>
	<path d="M 1218.0,560.0 L 1217.0,561.0" style="stroke:#010101; fill:none;"/>
	<path d="M 1212.0,561.0 L 1214.0,561.0" style="stroke:#010101; fill:none;"/>
	<path d="M 1406.0,564.0 L 1424.0,582.0" style="stroke:#010101; fill:none;"/>
	<path d="M 1191.0,583.0 C 1191.97,591.154 1179.77,604.229 1175.0,611.0 C 1174.03,605.895 1177.44,601.292 1180.07,596.999 C 1186.4,586.673 1194.54,574.627 1204.0,567.0" style="stroke:#010101; fill:none;"/>
	<path d="M 1210.0,567.0 C 1206.38,575.607 1199.28,582.955 1194.45,591.0 C 1179.21,616.402 1158.75,653.696 1165.0,684.0" style="stroke:#010101; fill:none;"/>
	<path d="M 1205.0,568.0 L 1209.0,570.0" style="stroke:#010101; fill:none;"/>
	<path d="M 1206.0,570.0 L 1193.0,584.0" style="stroke:#010101; fill:none;"/>
	<path d="M 1213.0,584.0 C 1213.19,579.513 1216.08,576.093 1220.0,574.0 C 1217.48,583.052 1209.35,592.282 1205.11,601.0 C 1192.44,627.022 1178.26,658.637 1177.0,688.0" style="stroke:#010101; fill:none;"/>
	<path d="M 1212.0,583.0 L 1209.0,587.0" style="stroke:#010101; fill:none;"/>
	<path d="M 1367.0,602.0 L 1370.0,624.0 L 1376.0,614.0" style="stroke:#010101; fill:none;"/>
	<path d="M 1285.0,676.0 C 1281.19,678.775 1278.94,681.19 1280.0,686.0 C 1291.98,678.599 1275.71,671.52 1279.99,662.0 C 1283.95,653.182 1293.31,644.782 1300.0,638.0 C 1316.86,620.901 1336.34,601.05 1363.0,606.0" style="stroke:#010101; fill:none;"/>
	<path d="M 1173.0,611.0 L 1175.0,612.0" style="stroke:#010101; fill:none;"/>
	<path d="M 1172.0,613.0 L 1174.0,614.0" style="stroke:#010101; fill:none;"/>
	<path d="M 1188.0,614.0 C 1181.18,638.37 1174.0,664.453 1174.0,690.0" style="stroke:#010101; fill:none;"/>
	<path d="M 1189.0,615.0 L 1186.0,617.0" style="stroke:#010101; fill:none;"/>
	<path d="M 1173.0,616.0 L 1159.0,648.0" style="stroke:#010101; fill:none;"/>
	<path d="M 1401.0,616.0 C 1398.61,624.058 1393.05,626.633 1400.0,634.0 L 1407.0,629.0 L 1408.0,628.0 L 1410.0,622.0" style="stroke:#010101; fill:none;"/>
	<path d="M 1185.0,618.0 L 1187.0,620.0" style="stroke:#010101; fill:none;"/>
	<path d="M 1385.0,618.0 L 1368.0,633.0 C 1371.35,638.367 1372.91,643.7 1380.0,640.0 L 1371.0,632.0" style="stroke:#010101; fill:none;"/>
	<path d="M 1186.0,619.0 C 1170.94,638.544 1173.06,666.576 1166.0,689.0" style="stroke:#010101; fill:none;"/>
	<path d="M 1393.0,619.0 C 1387.89,626.106 1382.93,629.606 1390.0,637.0 L 1378.0,635.0" style="stroke:#010101; fill:none;"/>
	<path d="M 1472.0,622.0 L 1474.0,624.0" style="stroke:#010101; fill:none;"/>
	<path d="M 1338.0,623.0 C 1339.86,634.112 1342.53,638.598 1349.0,648.0 C 1350.36,643.917 1348.76,642.144 1346.0,639.0 L 1351.0,635.0 L 1348.0,627.0 C 1350.9,629.268 1351.94,630.405 1351.0,634.0" style="stroke:#010101; fill:none;"/>
	<path d="M 1356.0,624.0 L 1353.0,630.0" style="stroke:#010101; fill:none;"/>
	<path d="M 1369.0,625.0 L 1367.0,632.0" style="stroke:#010101; fill:none;"/>
	<path d="M 1415.0,625.0 L 1403.0,633.0" style="stroke:#010101; fill:none;"/>
	<path d="M 1408.0,626.0 L 1406.0,628.0" style="stroke:#010101; fill:none;"/>
	<path d="M 1324.0,630.0 C 1324.33,646.099 1327.48,647.225 1341.0,640.0" style="stroke:#010101; fill:none;"/>
	<path d="M 1393.0,630.0 L 1397.66,639.089 L 1396.0,648.0 L 1397.0,649.0 L 1397.0,647.0" style="stroke:#010101; fill:none;"/>
	<path d="M 1384.0,631.0 L 1381.0,634.0" style="stroke:#010101; fill:none;"/>
	<path d="M 1352.0,636.0 L 1366.0,633.0" style="stroke:#010101; fill:none;"/>
	<path d="M 1400.0,634.0 L 1397.0,637.0" style="stroke:#010101; fill:none;"/>
	<path d="M 1356.0,637.0 L 1352.0,646.0" style="stroke:#010101; fill:none;"/>
	<path d="M 1390.0,637.0 L 1394.0,636.0" style="stroke:#010101; fill:none;"/>
	<path d="M 1386.0,638.0 L 1381.0,641.0" style="stroke:#010101; fill:none;"/>
	<path d="M 1344.0,639.0 L 1346.0,639.0" style="stroke:#010101; fill:none;"/>
	<path d="M 1387.0,639.0 L 1386.0,648.0" style="stroke:#010101; fill:none;"/>
	<path d="M 1373.0,642.0 L 1383.77,659.004 L 1378.0,689.0 L 1391.0,682.0" style="stroke:#010101; fill:none;"/>
	<path d="M 1309.0,643.0 C 1314.19,652.653 1318.76,657.315 1328.0,647.0" style="stroke:#010101; fill:none;"/>
	<path d="M 1398.0,644.0 L 1397.0,645.0" style="stroke:#010101; fill:none;"/>
	<path d="M 1333.0,645.0 C 1338.13,649.741 1341.86,650.542 1348.0,647.0" style="stroke:#010101; fill:none;"/>
	<path d="M 1397.0,645.0 L 1397.0,647.0" style="stroke:#010101; fill:none;"/>
	<path d="M 1402.0,646.0 L 1399.0,648.0" style="stroke:#010101; fill:none;"/>
	<path d="M 1396.0,648.0 L 1394.0,653.0 L 1395.0,651.0" style="stroke:#010101; fill:none;"/>
	<path d="M 1397.0,649.0 L 1395.0,651.0" style="stroke:#010101; fill:none;"/>
	<path d="M 1300.0,650.0 C 1303.71,656.67 1307.82,663.476 1304.0,671.0 C 1301.49,667.891 1300.03,666.181 1296.0,667.0 C 1298.05,670.145 1299.22,672.046 1303.0,671.0" style="stroke:#010101; fill:none;"/>
	<path d="M 1390.0,665.0 C 1393.33,658.318 1398.24,653.215 1405.0,650.0" style="stroke:#010101; fill:none;"/>
	<path d="M 1312.0,652.0 L 1306.0,658.0" style="stroke:#010101; fill:none;"/>
	<path d="M 1394.0,653.0 L 1395.0,656.0" style="stroke:#010101; fill:none;"/>
	<path d="M 1159.0,654.0 L 1160.0,663.0" style="stroke:#010101; fill:none;"/>
	<path d="M 1320.0,654.0 C 1318.29,660.493 1312.55,665.286 1306.0,662.0" style="stroke:#010101; fill:none;"/>
	<path d="M 1310.0,656.0 L 1315.0,661.0" style="stroke:#010101; fill:none;"/>
	<path d="M 1319.0,660.0 C 1325.27,667.178 1333.91,673.815 1338.78,682.0 C 1345.23,692.872 1345.86,707.769 1345.0,720.0 L 1359.0,714.0 L 1366.0,702.0" style="stroke:#010101; fill:none;"/>
	<path d="M 1153.0,661.0 L 1153.0,664.0" style="stroke:#010101; fill:none;"/>
	<path d="M 1395.0,674.0 L 1390.0,676.0 C 1391.24,667.498 1399.82,661.742 1408.0,661.0" style="stroke:#010101; fill:none;"/>
	<path d="M 1300.0,665.0 L 1304.0,663.0" style="stroke:#010101; fill:none;"/>
	<path d="M 1161.0,665.0 L 1163.0,669.0" style="stroke:#010101; fill:none;"/>
	<path d="M 1285.0,665.0 C 1288.21,669.451 1290.92,671.545 1295.0,667.0 L 1295.0,667.0" style="stroke:#010101; fill:none;"/>
	<path d="M 1278.0,666.0 L 1275.0,670.0" style="stroke:#010101; fill:none;"/>
	<path d="M 1154.0,667.0 L 1154.0,670.0" style="stroke:#010101; fill:none;"/>
	<path d="M 1293.0,670.0 L 1299.0,672.0 L 1299.0,672.0" style="stroke:#010101; fill:none;"/>
	<path d="M 1154.0,672.0 L 1155.0,673.0" style="stroke:#010101; fill:none;"/>
	<path d="M 1292.0,672.0 L 1286.0,675.0" style="stroke:#010101; fill:none;"/>
	<path d="M 1292.0,672.0 L 1297.0,675.0" style="stroke:#010101; fill:none;"/>
	<path d="M 1297.0,672.0 L 1298.0,673.0" style="stroke:#010101; fill:none;"/>
	<path d="M 1155.0,675.0 L 1155.0,678.0" style="stroke:#010101; fill:none;"/>
	<path d="M 1273.0,675.0 C 1268.35,688.668 1260.83,702.469 1259.17,717.0 C 1257.47,731.815 1261.24,743.99 1264.37,758.0 C 1266.42,767.18 1266.26,777.112 1272.0,785.0 L 1301.0,755.155 L 1345.0,720.0" style="stroke:#010101; fill:none;"/>
	<path d="M 1390.0,676.0 L 1385.0,682.0" style="stroke:#010101; fill:none;"/>
	<path d="M 1156.0,682.0 L 1156.0,685.0" style="stroke:#010101; fill:none;"/>
	<path d="M 1278.0,687.0 C 1269.76,707.096 1250.31,747.984 1281.0,758.16 C 1285.0,759.487 1288.8,759.965 1293.0,760.0" style="stroke:#010101; fill:none;"/>
	<path d="M 1376.0,689.0 L 1379.0,689.0" style="stroke:#010101; fill:none;"/>
	<path d="M 1376.0,691.0 L 1371.0,698.0" style="stroke:#010101; fill:none;"/>
	<path d="M 1386.0,700.0 L 1375.0,699.0 C 1378.17,693.225 1384.78,691.508 1391.0,691.0" style="stroke:#010101; fill:none;"/>
	<path d="M 1167.0,693.0 L 1167.0,694.0" style="stroke:#010101; fill:none;"/>
	<path d="M 1182.0,694.0 C 1178.14,726.681 1195.85,754.531 1213.8,780.0 C 1252.04,834.259 1298.95,875.545 1359.0,904.0" style="stroke:#010101; fill:none;"/>
	<path d="M 1324.05,696.422 C 1329.89,694.647 1331.49,703.909 1325.98,705.503 C 1320.84,706.991 1318.85,698.007 1324.05,696.422" style="stroke:#010101; fill:none;"/>
	<path d="M 1375.0,699.0 L 1373.0,701.0" style="stroke:#010101; fill:none;"/>
	<path d="M 1550.0,700.0 L 1546.0,702.0" style="stroke:#010101; fill:none;"/>
	<path d="M 1309.94,702.431 C 1316.71,703.311 1313.89,714.898 1307.05,713.508 C 1299.85,712.042 1303.76,701.626 1309.94,702.431" style="stroke:#010101; fill:none;"/>
	<path d="M 1372.0,705.0 L 1376.0,705.0" style="stroke:#010101; fill:none;"/>
	<path d="M 1547.0,704.0 C 1595.35,752.351 1643.23,803.513 1674.52,865.0 C 1688.79,893.017 1697.61,923.298 1707.52,953.0 C 1730.08,1020.71 1746.36,1089.84 1767.21,1158.0 C 1777.55,1191.81 1789.48,1224.83 1798.85,1259.0 C 1805.1,1281.8 1808.43,1305.42 1815.51,1328.0 C 1828.64,1369.9 1846.61,1410.85 1855.79,1454.0 C 1863.11,1488.4 1868.32,1527.83 1865.91,1563.0 C 1864.92,1577.44 1861.65,1591.69 1859.72,1606.0 C 1859.02,1611.2 1856.09,1617.9 1857.91,1623.0 C 1864.95,1642.65 1884.28,1660.9 1897.04,1677.0 C 1926.61,1714.33 1959.0,1749.16 1989.0,1786.0" style="stroke:#010101; fill:none;"/>
	<path d="M 1366.0,708.0 L 1375.0,710.0" style="stroke:#010101; fill:none;"/>
	<path d="M 1360.0,713.0 L 1362.0,718.0" style="stroke:#010101; fill:none;"/>
	<path d="M 1359.0,715.0 L 1358.0,716.0" style="stroke:#010101; fill:none;"/>
	<path d="M 1355.0,718.0 L 1353.0,726.0" style="stroke:#010101; fill:none;"/>
	<path d="M 1348.0,723.0 L 1347.0,729.0" style="stroke:#010101; fill:none;"/>
	<path d="M 1357.0,725.0 L 1359.0,731.0" style="stroke:#010101; fill:none;"/>
	<path d="M 1342.0,729.0 L 1341.0,732.0" style="stroke:#010101; fill:none;"/>
	<path d="M 1334.0,737.0 L 1333.0,739.0" style="stroke:#010101; fill:none;"/>
	<path d="M 1265.0,749.0 L 1264.0,753.0" style="stroke:#010101; fill:none;"/>
	<path d="M 1013.0,751.0 L 1014.0,752.0" style="stroke:#010101; fill:none;"/>
	<path d="M 1020.0,755.0 L 1022.0,756.0" style="stroke:#010101; fill:none;"/>
	<path d="M 1014.0,756.0 L 1016.0,757.0" style="stroke:#010101; fill:none;"/>
	<path d="M 1024.0,757.0 L 1025.0,757.0" style="stroke:#010101; fill:none;"/>
	<path d="M 1019.0,758.0 L 1042.0,770.0" style="stroke:#010101; fill:none;"/>
	<path d="M 1029.0,759.0 L 1035.0,762.0" style="stroke:#010101; fill:none;"/>
	<path d="M 1352.0,783.0 C 1375.08,778.239 1394.33,771.001 1415.0,760.0" style="stroke:#010101; fill:none;"/>
	<path d="M 1000.0,761.0 L 1001.0,761.0" style="stroke:#010101; fill:none;"/>
	<path d="M 1003.0,762.0 L 1010.0,764.0" style="stroke:#010101; fill:none;"/>
	<path d="M 1040.0,764.0 L 1042.0,765.0" style="stroke:#010101; fill:none;"/>
	<path d="M 1012.0,765.0 L 1043.0,776.0" style="stroke:#010101; fill:none;"/>
	<path d="M 984.0,767.0 L 990.0,768.0" style="stroke:#010101; fill:none;"/>
	<path d="M 993.0,768.0 L 998.0,768.0" style="stroke:#010101; fill:none;"/>
	<path d="M 1000.0,768.0 L 1003.0,769.0" style="stroke:#010101; fill:none;"/>
	<path d="M 1005.0,769.0 L 1007.0,769.0" style="stroke:#010101; fill:none;"/>
	<path d="M 1010.0,770.0 L 1017.0,771.0" style="stroke:#010101; fill:none;"/>
	<path d="M 1044.0,771.0 L 1047.0,773.0" style="stroke:#010101; fill:none;"/>
	<path d="M 972.0,772.0 L 973.0,772.0" style="stroke:#010101; fill:none;"/>
	<path d="M 1020.0,772.0 L 1033.0,777.0" style="stroke:#010101; fill:none;"/>
	<path d="M 980.0,773.0 L 981.0,773.0" style="stroke:#010101; fill:none;"/>
	<path d="M 984.0,773.0 L 985.0,773.0" style="stroke:#010101; fill:none;"/>
	<path d="M 989.0,774.0 L 990.0,774.0" style="stroke:#010101; fill:none;"/>
	<path d="M 992.0,774.0 L 994.0,775.0" style="stroke:#010101; fill:none;"/>
	<path d="M 997.0,775.0 L 1000.0,775.0" style="stroke:#010101; fill:none;"/>
	<path d="M 1003.0,776.0 L 1005.0,776.0" style="stroke:#010101; fill:none;"/>
	<path d="M 1007.0,776.0 L 1009.0,777.0" style="stroke:#010101; fill:none;"/>
	<path d="M 1045.0,777.0 L 1046.0,778.0" style="stroke:#010101; fill:none;"/>
	<path d="M 1036.0,778.0 L 1038.0,779.0" style="stroke:#010101; fill:none;"/>
	<path d="M 978.0,780.0 L 979.0,780.0" style="stroke:#010101; fill:none;"/>
	<path d="M 981.0,781.0 L 983.0,781.0" style="stroke:#010101; fill:none;"/>
	<path d="M 955.0,782.0 L 956.0,782.0" style="stroke:#010101; fill:none;"/>
	<path d="M 985.0,782.0 L 986.0,782.0" style="stroke:#010101; fill:none;"/>
	<path d="M 941.0,783.0 L 927.0,793.0" style="stroke:#010101; fill:none;"/>
	<path d="M 948.0,783.0 L 952.0,783.0" style="stroke:#010101; fill:none;"/>
	<path d="M 988.0,783.0 L 1006.0,786.0" style="stroke:#010101; fill:none;"/>
	<path d="M 943.0,784.0 L 944.0,784.0" style="stroke:#010101; fill:none;"/>
	<path d="M 937.0,798.0 L 934.0,801.0 L 963.0,786.0" style="stroke:#010101; fill:none;"/>
	<path d="M 1009.0,786.0 L 1017.0,786.0" style="stroke:#010101; fill:none;"/>
	<path d="M 981.0,787.0 L 991.0,789.0" style="stroke:#010101; fill:none;"/>
	<path d="M 1343.0,788.0 L 1324.0,798.0" style="stroke:#010101; fill:none;"/>
	<path d="M 993.0,789.0 L 1000.0,790.0" style="stroke:#010101; fill:none;"/>
	<path d="M 914.0,828.0 C 932.171,809.841 954.712,797.903 979.0,790.0" style="stroke:#010101; fill:none;"/>
	<path d="M 1004.0,791.0 L 1008.0,791.0" style="stroke:#010101; fill:none;"/>
	<path d="M 878.0,870.0 L 872.0,868.0 C 864.713,877.028 862.931,887.975 852.0,894.0 C 849.364,886.254 861.054,873.528 865.204,867.0 C 876.479,849.267 888.921,832.962 902.572,817.0 C 909.196,809.255 915.79,799.778 925.0,795.0" style="stroke:#010101; fill:none;"/>
	<path d="M 926.0,797.0 L 872.0,867.0" style="stroke:#010101; fill:none;"/>
	<path d="M 994.0,808.0 C 974.68,807.0 953.12,817.669 936.0,825.64 C 929.379,828.723 918.087,838.118 911.0,836.0 C 924.923,817.797 955.409,806.155 977.0,800.63 C 985.339,798.495 994.639,796.064 1003.0,799.0" style="stroke:#010101; fill:none;"/>
	<path d="M 934.0,802.0 L 919.0,818.0" style="stroke:#010101; fill:none;"/>
	<path d="M 919.0,815.0 C 908.85,826.019 892.842,840.641 888.0,855.0 C 896.926,851.221 904.498,843.0 911.0,836.0" style="stroke:#010101; fill:none;"/>
	<path d="M 885.0,868.0 C 904.307,848.693 927.725,834.909 953.0,824.8 C 961.158,821.537 972.112,815.755 981.0,818.0" style="stroke:#010101; fill:none;"/>
	<path d="M 960.0,838.0 L 948.0,840.0 C 955.699,833.719 969.185,830.081 979.0,830.0" style="stroke:#010101; fill:none;"/>
	<path d="M 912.0,837.0 L 910.0,839.0" style="stroke:#010101; fill:none;"/>
	<path d="M 879.0,838.0 C 864.177,857.844 850.325,877.539 837.847,899.0 C 836.11,901.989 824.864,919.267 829.0,920.0" style="stroke:#010101; fill:none;"/>
	<path d="M 947.0,839.0 L 943.0,842.0 L 949.0,841.0" style="stroke:#010101; fill:none;"/>
	<path d="M 910.0,840.0 L 907.0,841.0" style="stroke:#010101; fill:none;"/>
	<path d="M 944.0,844.0 L 939.0,843.0 L 942.0,843.0" style="stroke:#010101; fill:none;"/>
	<path d="M 940.0,845.0 L 938.0,847.0 L 939.0,843.0" style="stroke:#010101; fill:none;"/>
	<path d="M 935.0,845.0 L 936.0,847.0" style="stroke:#010101; fill:none;"/>
	<path d="M 936.0,848.0 L 931.0,847.0 L 934.0,847.0" style="stroke:#010101; fill:none;"/>
	<path d="M 932.0,849.0 L 930.0,851.0 L 928.0,849.0 L 931.0,847.0" style="stroke:#010101; fill:none;"/>
	<path d="M 929.0,851.0 L 925.0,850.0 L 928.0,849.0" style="stroke:#010101; fill:none;"/>
	<path d="M 862.0,850.0 L 849.0,867.0" style="stroke:#010101; fill:none;"/>
	<path d="M 917.0,856.0 L 912.0,858.0 L 924.0,852.0" style="stroke:#010101; fill:none;"/>
	<path d="M 888.0,855.0 L 881.0,863.0 L 881.0,860.0" style="stroke:#010101; fill:none;"/>
	<path d="M 870.0,898.0 L 857.0,901.0 L 848.0,916.0 C 859.773,910.51 870.62,897.407 881.0,889.289 C 898.672,875.468 920.67,862.157 942.0,855.0" style="stroke:#010101; fill:none;"/>
	<path d="M 889.0,876.0 L 886.0,874.0 L 890.0,876.0 L 895.519,868.642 L 912.0,859.0" style="stroke:#010101; fill:none;"/>
	<path d="M 901.0,865.0 L 906.0,862.0" style="stroke:#010101; fill:none;"/>
	<path d="M 878.0,867.0 L 878.0,864.0 L 873.0,870.0" style="stroke:#010101; fill:none;"/>
	<path d="M 883.0,865.0 L 880.0,869.0" style="stroke:#010101; fill:none;"/>
	<path d="M 847.0,867.0 L 845.0,872.0 L 848.0,868.0" style="stroke:#010101; fill:none;"/>
	<path d="M 878.0,868.0 L 875.0,873.0 L 877.0,873.0" style="stroke:#010101; fill:none;"/>
	<path d="M 895.0,869.0 L 899.0,869.0" style="stroke:#010101; fill:none;"/>
	<path d="M 873.0,870.0 L 869.0,875.0" style="stroke:#010101; fill:none;"/>
	<path d="M 889.0,873.0 L 893.0,870.0" style="stroke:#010101; fill:none;"/>
	<path d="M 844.0,871.0 L 843.0,875.0 L 845.0,872.0" style="stroke:#010101; fill:none;"/>
	<path d="M 841.0,930.0 L 839.0,929.0 L 865.0,909.51 L 919.0,872.0" style="stroke:#010101; fill:none;"/>
	<path d="M 831.0,874.0 C 808.198,898.013 798.19,933.977 783.611,963.0 C 780.032,970.124 777.229,977.627 774.194,985.0 C 773.251,987.291 769.165,991.326 771.0,992.0" style="stroke:#010101; fill:none;"/>
	<path d="M 842.0,874.0 C 830.397,887.254 822.282,905.335 814.399,921.0 C 801.214,947.201 788.547,973.489 776.0,1000.0" style="stroke:#010101; fill:none;"/>
	<path d="M 876.0,874.0 L 857.0,900.0" style="stroke:#010101; fill:none;"/>
	<path d="M 843.0,875.0 L 818.298,922.0 L 788.0,983.0" style="stroke:#010101; fill:none;"/>
	<path d="M 886.0,875.0 L 883.0,881.0" style="stroke:#010101; fill:none;"/>
	<path d="M 887.0,876.0 L 884.0,881.0" style="stroke:#010101; fill:none;"/>
	<path d="M 882.0,878.0 L 880.0,880.0" style="stroke:#010101; fill:none;"/>
	<path d="M 882.0,880.0 L 876.0,886.0 L 880.0,880.0" style="stroke:#010101; fill:none;"/>
	<path d="M 770.0,990.0 C 773.864,964.202 789.778,935.34 801.102,912.0 C 805.756,902.406 810.656,889.913 819.0,883.0" style="stroke:#010101; fill:none;"/>
	<path d="M 876.0,886.0 L 868.0,895.0" style="stroke:#010101; fill:none;"/>
	<path d="M 855.0,926.0 C 853.639,933.903 841.658,940.585 836.0,946.0 C 834.315,939.476 846.403,932.311 851.0,928.286 C 867.502,913.838 888.161,893.629 909.0,886.0" style="stroke:#010101; fill:none;"/>
	<path d="M 857.0,892.0 L 854.0,895.0" style="stroke:#010101; fill:none;"/>
	<path d="M 849.0,893.0 L 849.0,896.0 L 853.0,894.0" style="stroke:#010101; fill:none;"/>
	<path d="M 854.0,895.0 C 852.647,900.218 848.643,907.013 844.671,910.742 C 840.091,915.043 833.511,915.106 837.0,923.0 L 839.0,914.0" style="stroke:#010101; fill:none;"/>
	<path d="M 848.0,897.0 C 846.083,900.601 839.446,908.073 842.0,912.0" style="stroke:#010101; fill:none;"/>
	<path d="M 796.0,913.0 L 758.0,998.0 L 759.0,991.0" style="stroke:#010101; fill:none;"/>
	<path d="M 842.0,915.0 L 841.0,916.0" style="stroke:#010101; fill:none;"/>
	<path d="M 838.0,917.0 L 838.0,919.0" style="stroke:#010101; fill:none;"/>
	<path d="M 847.0,917.0 L 842.0,926.0" style="stroke:#010101; fill:none;"/>
	<path d="M 857.0,928.0 L 869.0,920.0" style="stroke:#010101; fill:none;"/>
	<path d="M 1042.0,920.0 C 1041.77,924.861 1042.24,928.826 1048.0,928.0 L 1043.0,926.0" style="stroke:#010101; fill:none;"/>
	<path d="M 827.0,921.0 L 788.0,995.0" style="stroke:#010101; fill:none;"/>
	<path d="M 837.0,923.0 L 835.0,926.0 L 835.0,921.0" style="stroke:#010101; fill:none;"/>
	<path d="M 1008.0,924.0 C 1005.79,930.996 987.642,933.56 981.0,936.923 C 960.964,947.068 942.84,963.291 927.0,979.0 C 930.647,982.163 936.781,986.737 941.984,985.052 C 947.657,983.215 945.575,977.976 948.869,974.622 C 951.103,972.347 954.144,974.703 956.741,973.728 C 962.515,971.56 965.145,964.659 972.0,963.225 C 983.333,960.856 1000.26,981.892 995.0,992.0 L 999.0,990.0" style="stroke:#010101; fill:none;"/>
	<path d="M 832.0,925.0 L 836.0,926.0" style="stroke:#010101; fill:none;"/>
	<path d="M 842.0,926.0 L 840.0,928.0" style="stroke:#010101; fill:none;"/>
	<path d="M 1009.0,929.0 L 1040.0,927.0" style="stroke:#010101; fill:none;"/>
	<path d="M 831.0,927.0 L 832.0,931.0 L 834.0,929.0" style="stroke:#010101; fill:none;"/>
	<path d="M 1048.0,927.0 L 1090.0,938.0 C 1084.81,948.218 1068.8,956.905 1060.0,964.428 C 1040.52,981.09 1023.52,1000.42 1003.0,1016.0 L 1000.0,994.0 C 996.792,995.614 994.434,999.156 990.986,1000.2 C 982.083,1002.89 981.717,981.353 995.0,990.0" style="stroke:#010101; fill:none;"/>
	<path d="M 1413.0,927.0 L 1444.0,942.203 L 1469.0,957.685 L 1504.0,962.0" style="stroke:#010101; fill:none;"/>
	<path d="M 832.0,932.0 L 829.0,932.0 L 833.0,930.0" style="stroke:#010101; fill:none;"/>
	<path d="M 1019.0,928.0 C 1021.24,935.026 1030.55,932.512 1035.0,929.0" style="stroke:#010101; fill:none;"/>
	<path d="M 1009.0,929.0 C 1010.36,937.531 1023.63,941.337 1028.0,933.0" style="stroke:#010101; fill:none;"/>
	<path d="M 839.0,931.0 L 834.0,937.0" style="stroke:#010101; fill:none;"/>
	<path d="M 1056.0,931.0 L 1071.0,953.0" style="stroke:#010101; fill:none;"/>
	<path d="M 1020.0,932.0 L 1017.0,934.0" style="stroke:#010101; fill:none;"/>
	<path d="M 828.0,933.0 L 830.0,936.0 L 831.0,933.0" style="stroke:#010101; fill:none;"/>
	<path d="M 1073.0,933.0 L 1075.0,942.0" style="stroke:#010101; fill:none;"/>
	<path d="M 1010.0,934.0 C 1009.75,937.563 1011.52,940.19 1015.0,938.0" style="stroke:#010101; fill:none;"/>
	<path d="M 827.0,935.0 L 828.0,939.0 L 829.0,937.0" style="stroke:#010101; fill:none;"/>
	<path d="M 1006.0,943.0 L 1002.0,938.0 C 1006.16,937.931 1006.42,940.224 1006.0,944.0 L 1012.0,942.0" style="stroke:#010101; fill:none;"/>
	<path d="M 826.0,938.0 L 824.0,940.0 L 826.0,942.0 L 827.0,940.0" style="stroke:#010101; fill:none;"/>
	<path d="M 1001.0,940.0 L 1004.0,945.0 L 996.0,946.0 C 996.404,941.753 998.193,939.811 1002.0,938.0" style="stroke:#010101; fill:none;"/>
	<path d="M 824.0,942.0 L 826.0,943.0" style="stroke:#010101; fill:none;"/>
	<path d="M 777.0,943.0 C 769.327,956.196 760.53,975.731 759.0,991.0" style="stroke:#010101; fill:none;"/>
	<path d="M 989.0,947.0 C 992.415,952.299 989.21,954.948 984.0,957.0 C 982.242,950.325 988.549,944.006 995.0,943.0" style="stroke:#010101; fill:none;"/>
	<path d="M 823.0,944.0 L 825.0,945.0" style="stroke:#010101; fill:none;"/>
	<path d="M 834.0,944.0 L 831.0,947.0 L 835.0,945.0" style="stroke:#010101; fill:none;"/>
	<path d="M 823.0,945.0 L 822.0,949.0 L 823.0,947.0" style="stroke:#010101; fill:none;"/>
	<path d="M 808.0,974.0 C 812.021,961.044 820.191,954.517 831.0,947.0" style="stroke:#010101; fill:none;"/>
	<path d="M 995.0,947.0 L 993.0,949.0" style="stroke:#010101; fill:none;"/>
	<path d="M 820.0,949.0 L 821.0,952.0 L 822.0,949.0" style="stroke:#010101; fill:none;"/>
	<path d="M 985.0,949.0 L 990.0,954.0" style="stroke:#010101; fill:none;"/>
	<path d="M 974.0,962.0 C 974.865,956.257 976.885,951.952 983.0,951.0" style="stroke:#010101; fill:none;"/>
	<path d="M 817.0,957.0 L 820.0,953.0" style="stroke:#010101; fill:none;"/>
	<path d="M 984.0,957.0 L 981.0,962.0" style="stroke:#010101; fill:none;"/>
	<path d="M 979.0,965.0 L 971.0,973.0" style="stroke:#010101; fill:none;"/>
	<path d="M 979.0,969.0 L 972.0,979.0" style="stroke:#010101; fill:none;"/>
	<path d="M 1517.0,971.0 C 1537.46,978.744 1541.0,993.383 1541.0,1013.0" style="stroke:#010101; fill:none;"/>
	<path d="M 956.0,975.0 L 948.0,980.0" style="stroke:#010101; fill:none;"/>
	<path d="M 957.0,975.0 C 962.929,987.151 943.116,999.889 933.0,997.0 L 931.148,1007.0 L 923.0,1018.0 C 915.34,1018.26 910.161,1031.03 914.023,1037.74 C 919.745,1047.68 931.052,1052.1 942.0,1053.23 C 953.745,1054.44 973.313,1036.34 983.0,1030.07 C 987.081,1027.44 994.159,1020.91 999.0,1023.0" style="stroke:#010101; fill:none;"/>
	<path d="M 867.0,1099.0 C 874.82,1057.03 890.11,1004.99 927.0,979.0" style="stroke:#010101; fill:none;"/>
	<path d="M 952.0,980.0 L 957.0,985.0" style="stroke:#010101; fill:none;"/>
	<path d="M 946.0,985.0 L 946.0,992.0" style="stroke:#010101; fill:none;"/>
	<path d="M 939.0,986.0 L 934.0,997.0" style="stroke:#010101; fill:none;"/>
	<path d="M 1085.0,988.0 L 1068.94,1017.0 L 1042.0,1056.0" style="stroke:#010101; fill:none;"/>
	<path d="M 1000.0,992.0 L 1000.0,994.0" style="stroke:#010101; fill:none;"/>
	<path d="M 768.0,993.0 L 770.0,996.0 L 767.0,998.0 L 769.0,998.0" style="stroke:#010101; fill:none;"/>
	<path d="M 996.0,994.0 L 997.0,995.0" style="stroke:#010101; fill:none;"/>
	<path d="M 768.0,995.0 L 768.0,996.0" style="stroke:#010101; fill:none;"/>
	<path d="M 970.289,997.047 C 976.243,993.444 978.88,1004.03 973.776,1006.95 C 967.827,1010.36 965.941,999.679 970.289,997.047" style="stroke:#010101; fill:none;"/>
	<path d="M 757.0,997.0 L 756.0,1003.0 L 758.0,998.0" style="stroke:#010101; fill:none;"/>
	<path d="M 903.0,999.0 L 905.0,1000.0" style="stroke:#010101; fill:none;"/>
	<path d="M 768.0,1001.0 L 766.0,1004.0 L 767.0,1000.0" style="stroke:#010101; fill:none;"/>
	<path d="M 917.0,1018.0 C 915.065,1013.85 916.39,1012.46 920.0,1010.0 L 917.0,1006.0 L 930.0,999.0" style="stroke:#010101; fill:none;"/>
	<path d="M 907.0,1001.0 L 916.0,1005.0" style="stroke:#010101; fill:none;"/>
	<path d="M 754.0,1003.0 L 755.0,1007.0 L 754.0,1003.0" style="stroke:#010101; fill:none;"/>
	<path d="M 931.0,1003.0 L 926.0,1008.0 L 924.0,1004.0" style="stroke:#010101; fill:none;"/>
	<path d="M 764.0,1004.0 L 765.0,1008.0 L 764.0,1004.0" style="stroke:#010101; fill:none;"/>
	<path d="M 753.0,1007.0 L 755.0,1008.0" style="stroke:#010101; fill:none;"/>
	<path d="M 763.0,1008.0 L 761.0,1011.0" style="stroke:#010101; fill:none;"/>
	<path d="M 926.0,1008.0 L 926.0,1011.0" style="stroke:#010101; fill:none;"/>
	<path d="M 933.0,1008.0 L 927.0,1013.0" style="stroke:#010101; fill:none;"/>
	<path d="M 752.0,1009.0 L 754.0,1010.0" style="stroke:#010101; fill:none;"/>
	<path d="M 919.0,1009.0 L 917.0,1011.0" style="stroke:#010101; fill:none;"/>
	<path d="M 920.0,1011.0 L 923.0,1014.0" style="stroke:#010101; fill:none;"/>
	<path d="M 744.0,1012.0 L 771.0,1025.0" style="stroke:#010101; fill:none;"/>
	<path d="M 752.0,1012.0 L 752.0,1014.0" style="stroke:#010101; fill:none;"/>
	<path d="M 929.0,1013.0 C 935.153,1019.92 935.639,1027.17 934.0,1036.0" style="stroke:#010101; fill:none;"/>
	<path d="M 751.0,1015.0 L 750.0,1020.0 L 751.0,1017.0" style="stroke:#010101; fill:none;"/>
	<path d="M 1530.0,1015.0 L 1520.83,1020.23 L 1521.77,1031.0 L 1514.0,1047.0" style="stroke:#010101; fill:none;"/>
	<path d="M 1001.0,1017.0 L 999.0,1021.0" style="stroke:#010101; fill:none;"/>
	<path d="M 923.0,1018.0 C 926.616,1023.03 925.738,1027.16 925.0,1033.0" style="stroke:#010101; fill:none;"/>
	<path d="M 749.0,1019.0 L 748.0,1024.0 L 750.0,1021.0" style="stroke:#010101; fill:none;"/>
	<path d="M 748.0,1024.0 C 744.653,1024.62 744.121,1022.66 747.0,1021.0" style="stroke:#010101; fill:none;"/>
	<path d="M 1528.0,1059.0 L 1502.0,1089.0 L 1509.91,1057.0 L 1508.06,1029.04 L 1518.0,1021.0" style="stroke:#010101; fill:none;"/>
	<path d="M 743.0,1025.0 C 739.012,1035.28 740.23,1039.19 747.0,1048.0" style="stroke:#010101; fill:none;"/>
	<path d="M 745.667,1028.33 L 746.333,1028.67 L 745.667,1028.33" style="stroke:#010101; fill:none;"/>
	<path d="M 915.0,1028.0 C 918.395,1031.71 919.469,1034.0 919.0,1039.0" style="stroke:#010101; fill:none;"/>
	<path d="M 912.0,1039.0 L 903.0,1046.0 C 900.027,1037.42 904.842,1031.25 913.0,1029.0" style="stroke:#010101; fill:none;"/>
	<path d="M 744.0,1030.0 L 741.0,1038.0" style="stroke:#010101; fill:none;"/>
	<path d="M 737.0,1033.0 L 739.0,1035.0" style="stroke:#010101; fill:none;"/>
	<path d="M 738.0,1038.0 L 740.0,1041.0" style="stroke:#010101; fill:none;"/>
	<path d="M 737.0,1041.0 L 733.0,1057.0" style="stroke:#010101; fill:none;"/>
	<path d="M 885.0,1053.0 L 901.0,1043.0" style="stroke:#010101; fill:none;"/>
	<path d="M 902.0,1047.0 L 899.0,1057.0 L 893.0,1050.0" style="stroke:#010101; fill:none;"/>
	<path d="M 944.0,1054.0 C 934.036,1060.62 919.961,1065.95 908.0,1067.0" style="stroke:#010101; fill:none;"/>
	<path d="M 896.0,1056.0 C 891.064,1060.14 889.138,1063.54 889.0,1070.0 C 898.274,1069.97 898.341,1065.35 899.0,1057.0" style="stroke:#010101; fill:none;"/>
	<path d="M 1035.0,1063.0 L 1034.0,1064.0" style="stroke:#010101; fill:none;"/>
	<path d="M 889.0,1070.0 C 883.817,1075.81 886.387,1078.7 892.0,1083.0 C 883.617,1092.32 876.448,1105.94 873.0,1118.0" style="stroke:#010101; fill:none;"/>
	<path d="M 898.0,1071.0 L 894.0,1081.0 L 888.0,1072.0" style="stroke:#010101; fill:none;"/>
	<path d="M 909.0,1074.0 L 899.0,1094.0" style="stroke:#010101; fill:none;"/>
	<path d="M 883.0,1077.0 L 871.0,1095.0" style="stroke:#010101; fill:none;"/>
	<path d="M 890.0,1077.0 L 888.0,1079.0" style="stroke:#010101; fill:none;"/>
	<path d="M 896.0,1079.0 L 899.0,1084.0" style="stroke:#010101; fill:none;"/>
	<path d="M 888.0,1080.0 C 881.287,1087.95 875.135,1098.74 873.0,1109.0" style="stroke:#010101; fill:none;"/>
	<path d="M 894.0,1082.0 C 891.585,1099.34 878.328,1114.3 871.0,1130.0" style="stroke:#010101; fill:none;"/>
	<path d="M 877.0,1088.0 L 880.0,1091.0" style="stroke:#010101; fill:none;"/>
	<path d="M 1502.0,1089.0 L 1475.0,1124.0" style="stroke:#010101; fill:none;"/>
	<path d="M 878.0,1091.0 L 878.0,1093.0" style="stroke:#010101; fill:none;"/>
	<path d="M 894.0,1098.0 L 875.0,1135.0" style="stroke:#010101; fill:none;"/>
	<path d="M 921.0,1100.0 C 935.11,1103.23 946.604,1104.71 961.0,1102.0" style="stroke:#010101; fill:none;"/>
	<path d="M 1394.0,1158.0 C 1391.44,1160.16 1380.3,1168.78 1377.24,1163.4 C 1374.57,1158.71 1384.06,1144.26 1386.3,1140.0 C 1399.08,1115.65 1424.02,1098.53 1452.0,1108.0" style="stroke:#010101; fill:none;"/>
	<path d="M 1279.0,1111.0 L 1278.0,1112.0" style="stroke:#010101; fill:none;"/>
	<path d="M 1276.0,1117.0 L 1275.0,1118.0" style="stroke:#010101; fill:none;"/>
	<path d="M 1436.0,1119.0 C 1422.02,1128.52 1411.07,1134.1 1404.0,1151.0" style="stroke:#010101; fill:none;"/>
	<path d="M 1274.0,1120.0 L 1273.0,1121.0" style="stroke:#010101; fill:none;"/>
	<path d="M 1271.0,1126.0 L 1270.0,1128.0" style="stroke:#010101; fill:none;"/>
	<path d="M 1645.0,1126.0 L 1652.0,1134.0" style="stroke:#010101; fill:none;"/>
	<path d="M 1269.0,1130.0 L 1268.0,1133.0" style="stroke:#010101; fill:none;"/>
	<path d="M 1654.0,1138.0 L 1669.0,1159.0" style="stroke:#010101; fill:none;"/>
	<path d="M 1278.0,1141.0 C 1275.62,1176.32 1311.98,1210.16 1347.0,1210.54 C 1361.23,1210.7 1375.49,1203.61 1387.0,1196.0" style="stroke:#010101; fill:none;"/>
	<path d="M 1430.0,1330.0 C 1437.35,1312.94 1448.75,1297.01 1458.14,1281.0 C 1465.15,1269.04 1471.0,1254.9 1481.04,1245.09 C 1498.1,1228.41 1521.06,1218.02 1537.83,1200.97 C 1550.28,1188.32 1562.26,1175.17 1574.9,1162.71 C 1579.43,1158.25 1582.3,1152.21 1588.0,1148.94 C 1600.96,1141.51 1622.1,1145.03 1634.0,1152.71 C 1641.14,1157.33 1646.31,1163.83 1652.0,1170.0" style="stroke:#010101; fill:none;"/>
	<path d="M 1670.0,1161.0 L 1673.0,1165.0" style="stroke:#010101; fill:none;"/>
	<path d="M 1640.0,1168.0 C 1642.72,1175.26 1637.58,1184.34 1640.6,1190.66 C 1642.09,1193.77 1644.48,1191.21 1644.7,1188.94 C 1645.25,1183.39 1645.0,1177.59 1645.0,1172.0" style="stroke:#010101; fill:none;"/>
	<path d="M 1657.0,1176.0 L 1658.0,1178.0" style="stroke:#010101; fill:none;"/>
	<path d="M 1671.0,1177.0 C 1671.1,1195.55 1671.74,1213.05 1666.0,1231.0" style="stroke:#010101; fill:none;"/>
	<path d="M 1660.0,1181.0 L 1661.0,1183.0" style="stroke:#010101; fill:none;"/>
	<path d="M 1646.0,1184.0 L 1646.0,1186.0" style="stroke:#010101; fill:none;"/>
	<path d="M 1662.0,1185.0 L 1663.0,1186.0" style="stroke:#010101; fill:none;"/>
	<path d="M 1664.0,1189.0 L 1665.0,1190.0" style="stroke:#010101; fill:none;"/>
	<path d="M 1640.0,1192.0 C 1631.66,1203.46 1636.28,1220.24 1629.98,1231.96 C 1627.71,1236.17 1622.58,1238.52 1619.0,1241.46 C 1616.02,1243.92 1609.25,1249.09 1612.05,1253.68 C 1614.74,1258.11 1627.33,1258.17 1632.0,1260.93 C 1643.15,1267.52 1648.44,1277.26 1657.0,1286.0 C 1658.82,1278.81 1658.23,1264.72 1655.0,1258.0 L 1652.0,1265.0" style="stroke:#010101; fill:none;"/>
	<path d="M 1632.0,1202.0 L 1630.0,1210.0 C 1624.03,1200.58 1624.29,1193.37 1637.0,1194.0" style="stroke:#010101; fill:none;"/>
	<path d="M 1644.0,1193.0 L 1658.0,1206.0" style="stroke:#010101; fill:none;"/>
	<path d="M 1614.0,1211.0 L 1607.0,1200.0 L 1625.0,1196.0" style="stroke:#010101; fill:none;"/>
	<path d="M 1633.0,1197.0 L 1633.0,1200.0" style="stroke:#010101; fill:none;"/>
	<path d="M 1366.0,1434.0 C 1370.41,1435.72 1372.27,1431.35 1375.26,1428.71 C 1380.27,1424.28 1392.92,1409.28 1399.0,1412.0 C 1400.52,1395.95 1422.23,1378.81 1431.71,1366.0 C 1455.61,1333.72 1479.77,1303.92 1510.0,1277.13 C 1522.5,1266.05 1537.67,1258.39 1550.0,1246.91 C 1556.51,1240.85 1563.81,1234.42 1568.77,1227.0 C 1573.26,1220.28 1576.79,1210.75 1583.32,1205.73 C 1588.58,1201.69 1600.5,1200.3 1607.0,1200.0" style="stroke:#010101; fill:none;"/>
	<path d="M 1644.0,1200.0 L 1636.0,1239.0" style="stroke:#010101; fill:none;"/>
	<path d="M 1639.0,1202.0 L 1639.0,1203.0" style="stroke:#010101; fill:none;"/>
	<path d="M 1638.0,1205.0 L 1638.0,1206.0" style="stroke:#010101; fill:none;"/>
	<path d="M 1648.0,1207.0 C 1643.18,1219.77 1640.28,1236.36 1640.0,1250.0" style="stroke:#010101; fill:none;"/>
	<path d="M 1638.0,1208.0 L 1637.0,1215.0" style="stroke:#010101; fill:none;"/>
	<path d="M 1654.0,1210.0 L 1657.0,1226.0 L 1648.0,1269.0" style="stroke:#010101; fill:none;"/>
	<path d="M 1630.0,1210.0 L 1631.0,1215.0" style="stroke:#010101; fill:none;"/>
	<path d="M 1579.0,1211.0 L 1593.0,1226.0" style="stroke:#010101; fill:none;"/>
	<path d="M 1591.0,1211.0 L 1591.0,1212.0" style="stroke:#010101; fill:none;"/>
	<path d="M 1653.0,1211.0 L 1646.0,1252.0" style="stroke:#010101; fill:none;"/>
	<path d="M 1591.0,1215.0 L 1591.0,1219.0" style="stroke:#010101; fill:none;"/>
	<path d="M 1636.0,1217.0 L 1635.0,1229.0" style="stroke:#010101; fill:none;"/>
	<path d="M 1595.0,1228.0 L 1595.0,1229.0" style="stroke:#010101; fill:none;"/>
	<path d="M 1670.0,1234.0 C 1672.53,1251.1 1684.85,1266.09 1694.18,1280.0 C 1707.42,1299.75 1718.5,1319.62 1719.0,1344.0" style="stroke:#010101; fill:none;"/>
	<path d="M 1656.0,1245.0 L 1656.0,1257.0" style="stroke:#010101; fill:none;"/>
	<path d="M 1639.0,1252.0 L 1639.0,1253.0" style="stroke:#010101; fill:none;"/>
	<path d="M 1549.0,1254.0 C 1548.98,1263.46 1552.12,1267.71 1558.0,1275.0" style="stroke:#010101; fill:none;"/>
	<path d="M 1541.0,1256.0 L 1548.0,1263.0" style="stroke:#010101; fill:none;"/>
	<path d="M 1611.0,1257.0 C 1606.11,1268.62 1595.9,1277.83 1585.0,1283.69 C 1580.7,1286.0 1574.16,1286.77 1570.51,1289.85 C 1567.57,1292.34 1566.25,1297.01 1563.7,1300.0 C 1556.99,1307.85 1546.8,1315.53 1537.0,1318.92 C 1532.04,1320.64 1527.19,1321.36 1522.0,1320.38 C 1519.39,1319.89 1514.92,1317.37 1512.36,1318.42 C 1509.36,1319.64 1510.98,1328.12 1509.54,1331.0 C 1505.78,1338.52 1497.14,1344.58 1490.0,1348.64 C 1477.65,1355.66 1462.04,1349.26 1460.0,1334.0" style="stroke:#010101; fill:none;"/>
	<path d="M 1658.0,1287.0 L 1657.0,1302.0" style="stroke:#010101; fill:none;"/>
	<path d="M 1495.0,1299.0 L 1504.0,1310.0" style="stroke:#010101; fill:none;"/>
	<path d="M 1655.0,1305.0 C 1651.28,1330.26 1629.96,1356.23 1609.0,1369.59 C 1589.43,1382.05 1568.4,1392.33 1548.0,1403.37 C 1510.18,1423.85 1476.53,1443.01 1433.0,1447.17 C 1419.5,1448.46 1403.15,1450.0 1390.0,1446.0 L 1399.0,1423.0" style="stroke:#010101; fill:none;"/>
	<path d="M 1422.0,1341.0 L 1389.0,1407.0" style="stroke:#010101; fill:none;"/>
	<path d="M 1461.0,1343.0 C 1461.41,1348.25 1463.14,1353.78 1461.74,1359.0 C 1457.74,1373.87 1435.68,1391.32 1420.0,1383.0" style="stroke:#010101; fill:none;"/>
	<path d="M 1724.0,1355.0 C 1709.19,1426.54 1633.2,1456.58 1569.0,1468.61 C 1548.88,1472.38 1527.56,1476.32 1507.0,1474.91 C 1485.72,1473.45 1466.59,1468.31 1446.0,1464.0" style="stroke:#010101; fill:none;"/>
	<path d="M 1364.0,1394.0 L 1364.0,1396.0" style="stroke:#010101; fill:none;"/>
	<path d="M 1364.0,1398.0 L 1364.0,1403.0" style="stroke:#010101; fill:none;"/>
	<path d="M 1404.0,1400.0 L 1406.0,1405.0" style="stroke:#010101; fill:none;"/>
	<path d="M 1413.0,1402.0 L 1411.0,1408.0" style="stroke:#010101; fill:none;"/>
	<path d="M 1364.0,1405.0 L 1365.0,1428.0" style="stroke:#010101; fill:none;"/>
	<path d="M 633.0,1406.0 C 636.017,1445.56 670.971,1484.97 698.0,1512.0 C 708.233,1522.23 718.864,1532.26 732.0,1538.73 C 746.645,1545.94 761.307,1542.55 776.0,1546.93 C 801.079,1554.39 821.964,1580.69 829.0,1605.0" style="stroke:#010101; fill:none;"/>
	<path d="M 1397.0,1408.0 L 1398.0,1408.0" style="stroke:#010101; fill:none;"/>
	<path d="M 1405.0,1408.0 L 1404.0,1411.0" style="stroke:#010101; fill:none;"/>
	<path d="M 1416.0,1408.0 L 1403.0,1447.0" style="stroke:#010101; fill:none;"/>
	<path d="M 1388.0,1409.0 L 1387.0,1410.0" style="stroke:#010101; fill:none;"/>
	<path d="M 630.0,1410.0 L 633.0,1416.0" style="stroke:#010101; fill:none;"/>
	<path d="M 1410.0,1410.0 L 1409.0,1413.0" style="stroke:#010101; fill:none;"/>
	<path d="M 1386.0,1412.0 L 1388.0,1417.0" style="stroke:#010101; fill:none;"/>
	<path d="M 1399.0,1412.0 L 1395.0,1422.0" style="stroke:#010101; fill:none;"/>
	<path d="M 1403.0,1413.0 L 1402.0,1416.0" style="stroke:#010101; fill:none;"/>
	<path d="M 1408.0,1415.0 L 1398.0,1441.0" style="stroke:#010101; fill:none;"/>
	<path d="M 1401.0,1418.0 L 1400.0,1421.0" style="stroke:#010101; fill:none;"/>
	<path d="M 1387.0,1419.0 C 1390.62,1425.62 1384.57,1434.5 1382.0,1441.0" style="stroke:#010101; fill:none;"/>
	<path d="M 1373.0,1421.0 L 1374.0,1421.0" style="stroke:#010101; fill:none;"/>
	<path d="M 618.0,1422.0 L 615.0,1429.0 L 614.0,1424.0" style="stroke:#010101; fill:none;"/>
	<path d="M 1421.0,1422.0 L 1419.0,1426.0" style="stroke:#010101; fill:none;"/>
	<path d="M 1394.0,1424.0 L 1387.0,1441.0" style="stroke:#010101; fill:none;"/>
	<path d="M 609.0,1425.0 C 607.443,1436.55 601.663,1445.7 595.0,1455.0 C 604.292,1458.53 614.486,1436.74 615.0,1429.0" style="stroke:#010101; fill:none;"/>
	<path d="M 635.0,1428.0 C 634.93,1453.49 624.357,1483.55 597.0,1490.1 C 586.966,1492.5 576.936,1490.34 567.0,1489.0" style="stroke:#010101; fill:none;"/>
	<path d="M 1384.0,1428.0 L 1380.0,1439.0" style="stroke:#010101; fill:none;"/>
	<path d="M 1418.0,1428.0 L 1412.0,1443.0" style="stroke:#010101; fill:none;"/>
	<path d="M 1379.0,1429.0 C 1376.16,1441.03 1374.67,1445.96 1390.0,1446.0" style="stroke:#010101; fill:none;"/>
	<path d="M 1365.0,1430.0 L 1365.0,1431.0" style="stroke:#010101; fill:none;"/>
	<path d="M 1426.0,1433.0 L 1424.0,1439.0" style="stroke:#010101; fill:none;"/>
	<path d="M 1430.0,1434.0 L 1430.0,1438.0" style="stroke:#010101; fill:none;"/>
	<path d="M 1373.0,1435.0 L 1373.0,1437.0" style="stroke:#010101; fill:none;"/>
	<path d="M 615.0,1436.0 L 615.0,1438.0" style="stroke:#010101; fill:none;"/>
	<path d="M 1367.0,1436.0 L 1368.0,1441.0" style="stroke:#010101; fill:none;"/>
	<path d="M 1423.0,1441.0 L 1423.0,1442.0" style="stroke:#010101; fill:none;"/>
	<path d="M 1397.0,1443.0 L 1397.0,1444.0" style="stroke:#010101; fill:none;"/>
	<path d="M 1369.0,1444.0 L 1371.0,1447.0" style="stroke:#010101; fill:none;"/>
	<path d="M 616.0,1446.0 L 616.0,1451.0" style="stroke:#010101; fill:none;"/>
	<path d="M 585.0,1449.0 L 584.0,1451.0" style="stroke:#010101; fill:none;"/>
	<path d="M 406.0,1455.0 L 405.0,1456.0" style="stroke:#010101; fill:none;"/>
	<path d="M 595.0,1456.0 C 580.665,1467.02 564.376,1476.65 546.0,1478.0" style="stroke:#010101; fill:none;"/>
	<path d="M 616.0,1456.0 L 616.0,1457.0" style="stroke:#010101; fill:none;"/>
	<path d="M 479.0,1458.0 C 480.888,1465.06 501.518,1466.78 508.0,1471.0" style="stroke:#010101; fill:none;"/>
	<path d="M 407.0,1459.0 C 405.598,1470.03 401.041,1466.8 394.514,1473.28 C 388.479,1479.27 383.789,1487.31 380.312,1495.0 C 367.601,1523.12 353.992,1565.49 364.962,1596.0 C 368.33,1605.37 375.428,1611.03 381.191,1618.71 C 388.519,1628.48 394.087,1638.09 403.0,1647.0" style="stroke:#010101; fill:none;"/>
	<path d="M 615.0,1464.0 L 615.0,1467.0" style="stroke:#010101; fill:none;"/>
	<path d="M 1385.0,1464.0 L 1386.0,1465.0" style="stroke:#010101; fill:none;"/>
	<path d="M 407.0,1470.0 L 462.0,1471.0" style="stroke:#010101; fill:none;"/>
	<path d="M 542.0,1479.0 L 545.0,1481.0" style="stroke:#010101; fill:none;"/>
	<path d="M 548.0,1482.0 L 565.0,1488.0" style="stroke:#010101; fill:none;"/>
	<path d="M 474.0,1488.0 L 478.0,1503.0" style="stroke:#010101; fill:none;"/>
	<path d="M 471.0,1498.0 C 466.486,1513.27 468.677,1532.25 469.0,1548.0" style="stroke:#010101; fill:none;"/>
	<path d="M 483.0,1499.0 L 481.0,1579.0" style="stroke:#010101; fill:none;"/>
	<path d="M 419.0,1592.0 L 419.0,1534.0 L 417.047,1515.5 L 431.0,1510.13 L 475.0,1502.0" style="stroke:#010101; fill:none;"/>
	<path d="M 496.0,1502.0 L 492.0,1579.0" style="stroke:#010101; fill:none;"/>
	<path d="M 500.0,1502.0 L 499.0,1556.0" style="stroke:#010101; fill:none;"/>
	<path d="M 476.0,1503.0 L 476.0,1561.0" style="stroke:#010101; fill:none;"/>
	<path d="M 417.0,1506.0 L 416.0,1513.0" style="stroke:#010101; fill:none;"/>
	<path d="M 511.0,1507.0 L 512.0,1527.0" style="stroke:#010101; fill:none;"/>
	<path d="M 487.0,1508.0 L 488.0,1533.0 L 486.0,1589.0" style="stroke:#010101; fill:none;"/>
	<path d="M 518.0,1508.0 L 519.0,1520.0" style="stroke:#010101; fill:none;"/>
	<path d="M 532.0,1510.0 L 542.0,1535.0 C 546.453,1528.83 548.234,1519.87 539.0,1518.0" style="stroke:#010101; fill:none;"/>
	<path d="M 432.0,1515.0 C 432.0,1536.31 431.309,1557.74 432.845,1579.0 C 433.275,1584.95 435.509,1599.96 431.397,1604.67 C 425.299,1611.65 408.509,1599.14 404.0,1595.0 C 411.186,1586.5 408.069,1574.31 409.285,1564.0 C 410.016,1557.81 411.978,1550.67 409.0,1545.0 C 396.717,1555.56 394.49,1581.92 403.0,1595.0" style="stroke:#010101; fill:none;"/>
	<path d="M 506.0,1516.0 L 505.0,1549.0" style="stroke:#010101; fill:none;"/>
	<path d="M 424.0,1519.0 C 424.0,1539.32 423.613,1559.68 424.014,1580.0 C 424.18,1588.43 427.762,1598.12 422.0,1605.0" style="stroke:#010101; fill:none;"/>
	<path d="M 415.0,1521.0 L 409.0,1545.0" style="stroke:#010101; fill:none;"/>
	<path d="M 547.0,1522.0 L 554.0,1526.0 C 550.373,1533.07 553.378,1544.22 553.911,1552.0 C 555.176,1570.47 557.669,1589.82 557.803,1608.0 C 557.862,1615.98 560.897,1625.19 556.0,1632.0 C 564.402,1642.9 579.647,1667.43 597.0,1659.43 C 602.767,1656.77 606.803,1651.54 611.0,1647.0" style="stroke:#010101; fill:none;"/>
	<path d="M 614.0,1523.0 C 614.002,1538.97 611.405,1558.45 616.0,1574.0" style="stroke:#010101; fill:none;"/>
	<path d="M 555.0,1526.0 C 566.333,1534.6 577.43,1545.47 582.674,1559.0 C 585.465,1566.2 584.424,1573.53 585.171,1581.0 C 586.366,1592.96 588.483,1604.95 589.0,1617.0" style="stroke:#010101; fill:none;"/>
	<path d="M 560.0,1531.0 C 555.625,1537.83 558.0,1549.99 558.0,1558.0 C 558.0,1578.11 555.246,1597.11 555.0,1617.0" style="stroke:#010101; fill:none;"/>
	<path d="M 542.0,1535.0 L 545.941,1556.0 L 547.0,1594.0" style="stroke:#010101; fill:none;"/>
	<path d="M 615.0,1539.0 L 613.0,1543.0" style="stroke:#010101; fill:none;"/>
	<path d="M 570.0,1540.0 C 565.556,1548.02 567.0,1558.11 567.0,1567.0 C 567.0,1585.69 568.0,1604.38 568.0,1623.0 C 568.0,1630.36 570.441,1640.45 567.0,1647.0" style="stroke:#010101; fill:none;"/>
	<path d="M 744.0,1540.0 L 745.0,1540.0" style="stroke:#010101; fill:none;"/>
	<path d="M 617.0,1542.0 L 633.438,1565.83 L 645.459,1578.11 L 645.0,1597.0 L 643.0,1649.0" style="stroke:#010101; fill:none;"/>
	<path d="M 753.0,1542.0 L 756.0,1542.0" style="stroke:#010101; fill:none;"/>
	<path d="M 760.0,1543.0 L 761.0,1543.0" style="stroke:#010101; fill:none;"/>
	<path d="M 764.0,1543.0 L 765.0,1544.0" style="stroke:#010101; fill:none;"/>
	<path d="M 541.0,1550.0 C 539.596,1560.87 537.311,1570.9 538.089,1582.0 C 539.348,1599.95 547.617,1615.11 555.0,1631.0" style="stroke:#010101; fill:none;"/>
	<path d="M 435.0,1553.0 C 435.116,1567.05 438.864,1580.93 439.0,1595.0 C 439.065,1601.76 440.738,1610.33 431.0,1607.0" style="stroke:#010101; fill:none;"/>
	<path d="M 574.0,1554.0 L 578.0,1653.0" style="stroke:#010101; fill:none;"/>
	<path d="M 625.0,1556.0 C 619.065,1567.12 624.992,1584.79 625.0,1597.0" style="stroke:#010101; fill:none;"/>
	<path d="M 634.0,1568.0 C 629.79,1575.89 633.0,1589.06 633.0,1598.0" style="stroke:#010101; fill:none;"/>
	<path d="M 580.0,1574.0 C 579.987,1592.9 579.596,1612.21 581.845,1631.0 C 582.484,1636.34 581.907,1646.14 587.0,1649.0" style="stroke:#010101; fill:none;"/>
	<path d="M 639.0,1575.0 L 639.0,1614.0" style="stroke:#010101; fill:none;"/>
	<path d="M 684.0,1575.0 C 687.824,1583.14 694.541,1580.29 702.0,1583.5 C 712.644,1588.1 722.979,1595.79 730.0,1605.0 L 737.0,1597.0" style="stroke:#010101; fill:none;"/>
	<path d="M 591.0,1577.0 L 593.0,1609.0" style="stroke:#010101; fill:none;"/>
	<path d="M 597.0,1578.0 L 595.0,1596.0" style="stroke:#010101; fill:none;"/>
	<path d="M 647.0,1578.0 L 671.0,1584.09 L 684.397,1583.89 L 685.961,1593.0 L 686.0,1616.0" style="stroke:#010101; fill:none;"/>
	<path d="M 445.0,1582.0 C 445.0,1590.49 441.779,1604.16 445.059,1612.0 C 449.813,1623.37 466.488,1634.78 474.83,1644.0 C 507.684,1680.31 556.449,1724.15 609.0,1720.0" style="stroke:#010101; fill:none;"/>
	<path d="M 692.0,1582.0 L 696.0,1612.0" style="stroke:#010101; fill:none;"/>
	<path d="M 584.0,1584.0 L 582.0,1588.0" style="stroke:#010101; fill:none;"/>
	<path d="M 665.0,1585.0 L 666.0,1622.0" style="stroke:#010101; fill:none;"/>
	<path d="M 674.0,1585.0 C 674.0,1596.09 672.594,1608.56 677.0,1619.0" style="stroke:#010101; fill:none;"/>
	<path d="M 704.0,1587.0 L 705.0,1614.0" style="stroke:#010101; fill:none;"/>
	<path d="M 658.0,1591.0 L 658.0,1624.0" style="stroke:#010101; fill:none;"/>
	<path d="M 715.0,1592.0 L 712.0,1606.0" style="stroke:#010101; fill:none;"/>
	<path d="M 649.0,1596.0 C 649.503,1607.73 646.523,1627.74 652.0,1638.0 L 645.0,1642.0" style="stroke:#010101; fill:none;"/>
	<path d="M 806.0,1603.0 C 813.173,1606.4 822.904,1612.69 831.0,1611.0 L 830.0,1608.0" style="stroke:#010101; fill:none;"/>
	<path d="M 730.0,1606.0 C 722.761,1617.39 711.532,1626.43 698.0,1628.56 C 681.579,1631.15 667.005,1626.18 653.0,1638.0" style="stroke:#010101; fill:none;"/>
	<path d="M 765.0,1606.0 C 758.516,1612.48 749.689,1626.35 741.0,1629.0" style="stroke:#010101; fill:none;"/>
	<path d="M 373.0,1610.0 L 372.0,1617.0" style="stroke:#010101; fill:none;"/>
	<path d="M 439.0,1610.0 L 443.0,1611.0" style="stroke:#010101; fill:none;"/>
	<path d="M 830.0,1612.0 C 838.43,1616.88 848.944,1618.34 858.0,1621.99 C 861.535,1623.41 865.437,1625.5 868.0,1622.0" style="stroke:#010101; fill:none;"/>
	<path d="M 868.0,1612.0 L 872.0,1617.0" style="stroke:#010101; fill:none;"/>
	<path d="M 832.0,1614.0 L 833.0,1619.0" style="stroke:#010101; fill:none;"/>
	<path d="M 830.0,1634.0 C 828.54,1630.55 825.728,1623.73 829.0,1621.0" style="stroke:#010101; fill:none;"/>
	<path d="M 384.0,1621.0 C 410.773,1631.15 431.005,1661.23 452.0,1679.71 C 488.439,1711.8 527.806,1738.31 572.0,1758.0 L 564.0,1760.0" style="stroke:#010101; fill:none;"/>
	<path d="M 833.0,1621.0 L 833.0,1623.0" style="stroke:#010101; fill:none;"/>
	<path d="M 863.0,1624.0 L 861.0,1634.0" style="stroke:#010101; fill:none;"/>
	<path d="M 1856.0,1624.0 C 1851.9,1638.45 1848.86,1655.72 1841.88,1669.0 C 1827.32,1696.7 1801.99,1716.28 1779.54,1736.78 C 1716.95,1793.96 1627.46,1809.41 1546.0,1817.17 C 1507.23,1820.86 1469.0,1825.0 1430.0,1825.0 C 1399.55,1825.0 1369.34,1824.37 1339.0,1823.04 C 1287.4,1820.78 1235.31,1819.37 1185.0,1806.12 C 1147.36,1796.2 1111.47,1779.35 1077.0,1761.58 C 1065.45,1755.62 1055.03,1745.63 1043.0,1741.0" style="stroke:#010101; fill:none;"/>
	<path d="M 375.0,1625.0 L 389.0,1641.0" style="stroke:#010101; fill:none;"/>
	<path d="M 854.0,1626.0 L 854.0,1632.0" style="stroke:#010101; fill:none;"/>
	<path d="M 878.0,1627.0 C 877.376,1631.51 870.811,1627.13 868.0,1626.0 L 868.0,1637.0" style="stroke:#010101; fill:none;"/>
	<path d="M 844.0,1627.0 L 845.0,1629.0" style="stroke:#010101; fill:none;"/>
	<path d="M 878.0,1630.0 L 882.0,1641.0" style="stroke:#010101; fill:none;"/>
	<path d="M 559.0,1631.0 L 558.0,1633.0" style="stroke:#010101; fill:none;"/>
	<path d="M 881.0,1633.0 C 901.438,1638.89 920.593,1656.54 938.0,1668.29 C 945.25,1673.18 952.799,1681.84 962.0,1682.0 L 963.0,1683.0 L 960.0,1682.0" style="stroke:#010101; fill:none;"/>
	<path d="M 594.0,1634.0 L 594.0,1655.0" style="stroke:#010101; fill:none;"/>
	<path d="M 1867.0,1635.0 L 1869.0,1635.0" style="stroke:#010101; fill:none;"/>
	<path d="M 825.0,1639.0 C 826.683,1648.07 825.49,1656.04 824.134,1665.0 C 822.197,1677.81 819.849,1691.71 813.07,1703.0 C 801.324,1722.56 772.645,1734.23 752.0,1741.82 C 744.853,1744.44 736.594,1745.2 730.0,1749.0 L 737.0,1753.0" style="stroke:#010101; fill:none;"/>
	<path d="M 702.0,1648.0 C 713.272,1649.33 722.142,1646.19 732.0,1641.0" style="stroke:#010101; fill:none;"/>
	<path d="M 892.0,1643.0 L 892.0,1647.0" style="stroke:#010101; fill:none;"/>
	<path d="M 1871.0,1644.0 L 1869.0,1646.0" style="stroke:#010101; fill:none;"/>
	<path d="M 637.0,1648.0 L 642.0,1646.0" style="stroke:#010101; fill:none;"/>
	<path d="M 906.0,1653.0 L 907.0,1655.0" style="stroke:#010101; fill:none;"/>
	<path d="M 951.0,1673.0 L 961.0,1680.0" style="stroke:#010101; fill:none;"/>
	<path d="M 964.0,1683.0 L 1014.0,1719.0" style="stroke:#010101; fill:none;"/>
	<path d="M 962.0,1685.0 L 965.0,1685.0" style="stroke:#010101; fill:none;"/>
	<path d="M 463.0,1699.0 L 497.0,1725.0" style="stroke:#010101; fill:none;"/>
	<path d="M 474.0,1714.0 C 484.308,1723.86 497.862,1733.34 511.0,1739.0" style="stroke:#010101; fill:none;"/>
	<path d="M 786.0,1738.0 C 808.537,1738.56 830.314,1749.2 851.0,1757.19 C 890.105,1772.29 927.893,1788.75 964.0,1810.24 C 1046.28,1859.22 1127.38,1919.54 1185.39,1997.0 C 1217.6,2040.01 1240.6,2092.5 1258.08,2143.0 C 1263.14,2157.63 1269.92,2172.08 1274.0,2187.0 L 1263.0,2187.0 C 1265.95,2194.62 1275.74,2212.28 1283.0,2216.0 C 1282.94,2212.63 1282.5,2210.96 1279.0,2212.0" style="stroke:#010101; fill:none;"/>
	<path d="M 796.0,1743.0 L 801.0,1746.0" style="stroke:#010101; fill:none;"/>
	<path d="M 690.0,1772.0 L 679.0,1765.0 C 694.471,1759.16 713.355,1749.14 730.0,1749.0" style="stroke:#010101; fill:none;"/>
	<path d="M 806.0,1749.0 L 808.0,1751.0" style="stroke:#010101; fill:none;"/>
	<path d="M 705.0,1757.0 L 714.0,1763.0" style="stroke:#010101; fill:none;"/>
	<path d="M 572.0,1758.0 C 590.38,1762.86 609.88,1768.43 629.0,1769.12 C 645.692,1769.73 662.45,1766.32 679.0,1765.0" style="stroke:#010101; fill:none;"/>
	<path d="M 694.0,1766.0 L 699.0,1768.0" style="stroke:#010101; fill:none;"/>
	<path d="M 630.0,1770.0 L 643.0,1780.0" style="stroke:#010101; fill:none;"/>
	<path d="M 658.0,1775.0 L 670.0,1780.0" style="stroke:#010101; fill:none;"/>
	<path d="M 599.0,1776.0 L 602.0,1777.0" style="stroke:#010101; fill:none;"/>
	<path d="M 816.0,1777.0 L 818.0,1778.0" style="stroke:#010101; fill:none;"/>
	<path d="M 664.0,1779.0 L 665.0,1782.0" style="stroke:#010101; fill:none;"/>
	<path d="M 808.0,1780.0 L 810.0,1780.0" style="stroke:#010101; fill:none;"/>
	<path d="M 912.0,1791.0 L 918.0,1808.0" style="stroke:#010101; fill:none;"/>
	<path d="M 974.0,1817.0 C 974.984,1825.83 984.112,1833.76 989.0,1841.0" style="stroke:#010101; fill:none;"/>
	<path d="M 1873.0,1847.0 C 1899.15,1913.07 1929.75,1975.65 1967.0,2036.0" style="stroke:#010101; fill:none;"/>
	<path d="M 1084.0,1894.0 L 1074.0,1896.0" style="stroke:#010101; fill:none;"/>
	<path d="M 1135.0,1956.0 C 1144.92,1963.56 1154.96,1974.47 1160.0,1986.0" style="stroke:#010101; fill:none;"/>
	<path d="M 1131.0,1967.0 L 1133.0,1967.0" style="stroke:#010101; fill:none;"/>
	<path d="M 1182.0,1986.0 L 1182.0,1992.0" style="stroke:#010101; fill:none;"/>
	<path d="M 1166.0,2011.0 L 1194.0,2028.0" style="stroke:#010101; fill:none;"/>
	<path d="M 1203.0,2068.0 L 1204.0,2072.0" style="stroke:#010101; fill:none;"/>
	<path d="M 1262.0,2186.0 L 1263.0,2187.0" style="stroke:#010101; fill:none;"/>
	<path d="M 1275.0,2188.0 L 1282.0,2210.0" style="stroke:#010101; fill:none;"/>
	<path d="M 1283.0,2216.0 C 1290.1,2227.42 1292.5,2242.12 1295.88,2255.0 C 1297.46,2260.99 1299.82,2265.53 1296.0,2271.0 L 1274.0,2227.0" style="stroke:#010101; fill:none;"/>
	<path d="M 1286.0,2258.0 L 1294.0,2270.0" style="stroke:#010101; fill:none;"/>
	<path d="M 1300.0,2270.0 L 1296.0,2275.0 C 1297.57,2278.23 1301.01,2279.99 1302.36,2283.18 C 1307.71,2295.77 1311.93,2318.7 1308.0,2332.0 L 1297.0,2300.0" style="stroke:#010101; fill:none;"/>
	<path d="M 1293.0,2272.0 L 1296.0,2275.0" style="stroke:#010101; fill:none;"/>
	<path d="M 1296.0,2272.0 L 1295.0,2273.0" style="stroke:#010101; fill:none;"/>
	<path d="M 1301.0,2275.0 L 1301.0,2280.0" style="stroke:#010101; fill:none;"/>
	<path d="M 1299.0,2282.0 L 1301.0,2287.0" style="stroke:#010101; fill:none;"/>
	<path d="M 1298.0,2312.0 L 1298.0,2313.0" style="stroke:#010101; fill:none;"/>
	<path d="M 1298.0,2315.0 L 1298.0,2332.0" style="stroke:#010101; fill:none;"/>
	<path d="M 1308.0,2332.0 C 1308.1,2343.78 1316.09,2359.28 1325.0,2367.0" style="stroke:#010101; fill:none;"/>
	<path d="M 1309.0,2343.0 C 1304.41,2351.48 1303.72,2361.89 1309.0,2370.0 L 1313.0,2366.0" style="stroke:#010101; fill:none;"/>
	<path d="M 1323.0,2363.0 L 1376.0,2369.9 L 1390.0,2369.17 L 1407.0,2372.44 L 1421.0,2370.3 L 1438.0,2375.78 L 1463.0,2374.17 L 1493.0,2376.62 L 1512.0,2381.62 L 1543.0,2381.1 L 1556.0,2384.35 L 1591.0,2381.91 L 1603.0,2384.51 L 1615.0,2382.08 L 1639.0,2386.79 L 1653.0,2385.13 L 1666.0,2387.43 L 1677.0,2383.4 L 1693.0,2384.96 L 1728.0,2378.0" style="stroke:#010101; fill:none;"/>
	<path d="M 1311.0,2368.0 C 1318.16,2376.35 1312.29,2384.29 1312.12,2394.0 C 1311.77,2413.43 1302.59,2431.47 1295.26,2449.0 C 1290.36,2460.73 1287.76,2474.74 1283.74,2487.0 C 1280.5,2496.89 1265.66,2521.7 1279.0,2527.0" style="stroke:#010101; fill:none;"/>
	<path d="M 1316.0,2375.0 C 1327.06,2376.49 1337.25,2375.68 1348.0,2376.55 C 1359.23,2377.46 1370.82,2381.69 1382.0,2383.56 C 1399.0,2386.42 1416.8,2387.73 1434.0,2388.91 C 1439.96,2389.32 1447.14,2389.57 1453.0,2388.3 C 1456.92,2387.45 1460.88,2384.25 1465.0,2384.78 C 1469.4,2385.36 1472.51,2389.32 1477.0,2390.07 C 1483.98,2391.23 1490.98,2389.58 1498.0,2390.09 C 1519.06,2391.63 1540.19,2393.56 1561.0,2393.05 C 1571.7,2392.8 1580.48,2396.52 1591.0,2392.0" style="stroke:#010101; fill:none;"/>
	<path d="M 1598.0,2391.0 C 1607.32,2398.1 1622.94,2395.27 1634.0,2395.13 C 1640.09,2395.06 1645.74,2398.07 1652.0,2397.99 C 1671.01,2397.75 1688.87,2395.01 1708.0,2397.0" style="stroke:#010101; fill:none;"/>
	<path d="M 1296.0,2404.0 L 1296.0,2406.0" style="stroke:#010101; fill:none;"/>
	<path d="M 1294.0,2437.0 L 1296.0,2447.0" style="stroke:#010101; fill:none;"/>
	<path d="M 1270.0,2494.0 L 1277.0,2503.0" style="stroke:#010101; fill:none;"/>
	<path d="M 1236.0,2502.0 L 1236.0,2503.0" style="stroke:#010101; fill:none;"/>
	<path d="M 1264.0,2520.0 L 1271.0,2524.0" style="stroke:#010101; fill:none;"/>
	<path d="M 1271.0,2524.0 C 1269.78,2528.64 1268.14,2532.31 1273.0,2535.0" style="stroke:#010101; fill:none;"/>
	<path d="M 1268.0,2534.0 L 1257.0,2577.0" style="stroke:#010101; fill:none;"/>
	<path d="M 1258.0,2540.0 L 1266.0,2539.0" style="stroke:#010101; fill:none;"/>
	<path d="M 1256.0,2546.0 L 1264.0,2547.0" style="stroke:#010101; fill:none;"/>
</svg>
