<?xml version="1.0" ?>
<svg baseProfile="full" height="1434" version="1.1" width="1137" xmlns="http://www.w3.org/2000/svg" xmlns:ev="http://www.w3.org/2001/xml-events" xmlns:xlink="http://www.w3.org/1999/xlink">
	<defs/>
	<path d="M 332.0,294.0 C 353.444,285.742 381.37,295.0 404.0,295.0" style="stroke:#010101; fill:none;"/>
	<path d="M 422.0,298.0 C 436.248,308.319 454.109,308.351 471.0,308.025 C 500.592,307.454 528.695,303.723 558.0,300.0" style="stroke:#010101; fill:none;"/>
	<path d="M 488.0,366.0 C 520.37,365.911 551.918,352.236 584.0,349.17 C 605.555,347.11 627.357,353.657 648.0,359.0" style="stroke:#010101; fill:none;"/>
	<path d="M 393.0,353.0 C 422.859,361.411 452.994,367.156 484.0,366.0" style="stroke:#010101; fill:none;"/>
	<path d="M 261.0,380.0 C 270.321,375.868 281.763,372.212 292.0,372.0" style="stroke:#010101; fill:none;"/>
	<path d="M 299.0,374.0 C 326.218,377.665 348.361,389.643 374.0,398.0" style="stroke:#010101; fill:none;"/>
	<path d="M 387.0,400.0 L 422.0,409.0" style="stroke:#010101; fill:none;"/>
	<path d="M 422.0,418.0 L 450.0,423.711 L 475.0,423.0" style="stroke:#010101; fill:none;"/>
	<path d="M 488.0,423.0 L 566.0,418.0" style="stroke:#010101; fill:none;"/>
	<path d="M 600.0,424.0 L 624.0,431.0" style="stroke:#010101; fill:none;"/>
	<path d="M 287.0,435.0 L 319.0,443.0" style="stroke:#010101; fill:none;"/>
	<path d="M 365.0,444.0 C 376.128,450.195 388.441,458.119 392.0,471.0" style="stroke:#010101; fill:none;"/>
	<path d="M 543.0,463.0 L 569.0,461.0" style="stroke:#010101; fill:none;"/>
	<path d="M 399.0,476.0 L 396.0,502.0" style="stroke:#010101; fill:none;"/>
	<path d="M 228.0,488.0 L 236.0,482.727 L 263.0,480.0" style="stroke:#010101; fill:none;"/>
	<path d="M 242.0,484.0 L 238.0,486.0 L 274.0,483.0" style="stroke:#010101; fill:none;"/>
	<path d="M 238.0,488.0 L 235.0,489.0 L 238.0,486.0" style="stroke:#010101; fill:none;"/>
	<path d="M 233.0,489.0 L 231.0,490.0 L 234.0,487.0" style="stroke:#010101; fill:none;"/>
	<path d="M 209.0,498.0 L 226.0,488.0" style="stroke:#010101; fill:none;"/>
	<path d="M 229.0,488.0 L 230.0,489.0" style="stroke:#010101; fill:none;"/>
	<path d="M 245.0,488.0 L 249.0,494.0 L 254.0,491.0 C 257.757,498.782 265.718,496.814 273.0,498.0 C 273.337,489.028 262.832,492.306 257.0,492.0" style="stroke:#010101; fill:none;"/>
	<path d="M 265.0,490.0 C 274.951,487.032 287.839,487.114 298.0,489.0" style="stroke:#010101; fill:none;"/>
	<path d="M 255.0,490.0 L 262.0,490.0" style="stroke:#010101; fill:none;"/>
	<path d="M 249.0,495.0 C 243.554,498.64 238.548,499.976 233.0,496.0 L 244.0,492.0" style="stroke:#010101; fill:none;"/>
	<path d="M 251.0,492.0 L 253.0,494.0" style="stroke:#010101; fill:none;"/>
	<path d="M 274.0,492.0 L 297.0,493.0" style="stroke:#010101; fill:none;"/>
	<path d="M 282.0,494.0 L 301.0,501.136 L 319.0,514.0 C 311.964,515.179 300.691,506.063 296.0,501.0" style="stroke:#010101; fill:none;"/>
	<path d="M 290.0,494.0 L 295.0,498.0" style="stroke:#010101; fill:none;"/>
	<path d="M 225.0,495.0 L 233.0,496.0" style="stroke:#010101; fill:none;"/>
	<path d="M 274.0,495.0 L 274.0,499.0" style="stroke:#010101; fill:none;"/>
	<path d="M 231.0,496.0 L 224.0,510.0 C 230.118,511.402 249.489,502.881 249.0,496.0" style="stroke:#010101; fill:none;"/>
	<path d="M 267.0,498.0 C 264.342,499.434 250.359,504.346 256.0,497.0" style="stroke:#010101; fill:none;"/>
	<path d="M 276.0,497.0 C 288.102,499.654 302.222,511.463 312.0,519.0 C 305.762,520.532 300.309,515.453 295.0,512.629 C 285.949,507.814 275.558,504.979 266.0,501.0" style="stroke:#010101; fill:none;"/>
	<path d="M 201.0,511.0 L 201.0,513.0 C 203.727,506.334 211.025,501.721 217.0,498.0" style="stroke:#010101; fill:none;"/>
	<path d="M 226.0,505.0 L 218.0,506.0 L 230.0,499.0" style="stroke:#010101; fill:none;"/>
	<path d="M 237.0,499.0 L 231.0,501.0" style="stroke:#010101; fill:none;"/>
	<path d="M 252.0,499.0 L 253.0,499.0" style="stroke:#010101; fill:none;"/>
	<path d="M 304.0,499.0 C 323.607,509.327 341.339,522.339 357.0,538.0" style="stroke:#010101; fill:none;"/>
	<path d="M 274.0,500.0 L 285.0,507.0" style="stroke:#010101; fill:none;"/>
	<path d="M 256.0,502.0 L 250.0,506.0 C 256.005,514.144 256.427,510.702 264.0,506.0 L 259.0,502.0" style="stroke:#010101; fill:none;"/>
	<path d="M 217.0,505.0 L 203.881,520.112 L 184.0,533.0 L 189.0,532.0" style="stroke:#010101; fill:none;"/>
	<path d="M 230.0,512.0 C 237.863,514.608 242.287,517.206 249.0,511.0 C 246.502,509.348 245.182,508.611 247.0,506.0 L 248.0,506.0 L 249.0,506.0 L 250.0,506.0" style="stroke:#010101; fill:none;"/>
	<path d="M 265.0,506.0 C 285.969,515.936 310.99,525.863 328.0,542.0" style="stroke:#010101; fill:none;"/>
	<path d="M 220.0,507.0 L 218.0,509.0 L 223.0,509.0" style="stroke:#010101; fill:none;"/>
	<path d="M 235.0,512.0 L 244.0,508.0" style="stroke:#010101; fill:none;"/>
	<path d="M 216.0,509.0 L 218.0,509.0" style="stroke:#010101; fill:none;"/>
	<path d="M 207.0,515.0 L 205.0,513.0 L 209.0,510.0" style="stroke:#010101; fill:none;"/>
	<path d="M 254.0,510.0 L 257.0,510.0" style="stroke:#010101; fill:none;"/>
	<path d="M 219.0,511.0 C 215.605,513.63 213.739,514.761 211.0,511.0 L 211.0,511.0" style="stroke:#010101; fill:none;"/>
	<path d="M 225.0,511.0 L 208.0,525.0 L 211.0,522.0" style="stroke:#010101; fill:none;"/>
	<path d="M 249.0,511.0 L 253.0,511.0" style="stroke:#010101; fill:none;"/>
	<path d="M 258.0,511.0 C 260.952,514.115 262.355,515.959 266.0,513.0 L 261.0,512.0" style="stroke:#010101; fill:none;"/>
	<path d="M 266.0,512.0 L 269.0,511.0" style="stroke:#010101; fill:none;"/>
	<path d="M 202.0,512.0 L 205.0,519.0" style="stroke:#010101; fill:none;"/>
	<path d="M 253.0,512.0 L 248.0,516.0 L 285.0,532.0" style="stroke:#010101; fill:none;"/>
	<path d="M 316.0,512.0 L 314.0,514.0" style="stroke:#010101; fill:none;"/>
	<path d="M 203.0,513.0 L 205.0,513.0" style="stroke:#010101; fill:none;"/>
	<path d="M 230.0,513.0 C 225.681,516.549 219.732,521.245 214.0,520.0" style="stroke:#010101; fill:none;"/>
	<path d="M 247.0,513.0 L 249.0,515.0" style="stroke:#010101; fill:none;"/>
	<path d="M 266.0,513.0 L 270.0,519.0 L 272.0,517.0 L 269.0,516.0" style="stroke:#010101; fill:none;"/>
	<path d="M 320.0,514.0 L 322.0,516.0 L 320.0,518.0 L 318.0,516.0" style="stroke:#010101; fill:none;"/>
	<path d="M 186.0,528.0 L 201.0,515.0" style="stroke:#010101; fill:none;"/>
	<path d="M 208.0,516.0 L 211.0,516.0" style="stroke:#010101; fill:none;"/>
	<path d="M 239.0,516.0 L 184.0,545.0 L 186.0,544.0" style="stroke:#010101; fill:none;"/>
	<path d="M 246.0,516.0 L 248.0,516.0" style="stroke:#010101; fill:none;"/>
	<path d="M 323.0,516.0 L 326.0,519.0 L 324.0,521.0 L 321.0,518.0" style="stroke:#010101; fill:none;"/>
	<path d="M 265.0,517.0 L 268.0,517.0" style="stroke:#010101; fill:none;"/>
	<path d="M 272.0,517.0 L 280.0,521.0 L 276.0,519.0" style="stroke:#010101; fill:none;"/>
	<path d="M 532.0,519.0 C 541.913,514.23 559.299,516.548 570.0,518.147 C 576.102,519.059 577.734,521.376 584.0,519.0 L 582.0,524.0 L 586.0,524.0 C 590.498,531.217 599.637,528.803 607.0,531.0 C 601.537,535.021 595.71,531.038 590.134,534.042 C 587.417,535.506 583.248,542.281 589.0,540.0 L 587.0,537.0" style="stroke:#010101; fill:none;"/>
	<path d="M 575.0,518.0 C 575.599,523.413 553.499,521.014 549.0,521.374 C 529.541,522.931 506.399,532.698 490.0,543.345 C 483.703,547.433 473.883,552.209 476.0,561.0 C 495.16,545.137 519.454,535.611 542.0,526.0" style="stroke:#010101; fill:none;"/>
	<path d="M 207.0,519.0 L 210.0,522.0" style="stroke:#010101; fill:none;"/>
	<path d="M 313.0,519.0 L 317.0,524.0 L 316.0,521.0" style="stroke:#010101; fill:none;"/>
	<path d="M 327.0,519.0 L 331.0,523.0 L 325.0,521.0" style="stroke:#010101; fill:none;"/>
	<path d="M 577.0,519.0 L 580.0,519.0" style="stroke:#010101; fill:none;"/>
	<path d="M 272.0,520.0 L 275.0,520.0" style="stroke:#010101; fill:none;"/>
	<path d="M 586.0,520.0 C 596.43,527.503 616.272,521.957 629.0,526.0" style="stroke:#010101; fill:none;"/>
	<path d="M 207.0,521.0 L 210.0,524.0" style="stroke:#010101; fill:none;"/>
	<path d="M 209.0,521.0 L 209.0,523.0" style="stroke:#010101; fill:none;"/>
	<path d="M 280.0,521.0 L 286.0,523.0 L 279.0,522.0" style="stroke:#010101; fill:none;"/>
	<path d="M 203.0,522.0 L 205.0,522.0" style="stroke:#010101; fill:none;"/>
	<path d="M 283.0,522.0 L 283.0,524.0" style="stroke:#010101; fill:none;"/>
	<path d="M 312.0,522.0 L 314.0,522.0" style="stroke:#010101; fill:none;"/>
	<path d="M 206.0,523.0 L 208.0,525.0" style="stroke:#010101; fill:none;"/>
	<path d="M 212.0,523.0 L 215.0,522.0" style="stroke:#010101; fill:none;"/>
	<path d="M 318.0,523.0 C 333.775,534.471 353.568,544.772 365.0,561.0" style="stroke:#010101; fill:none;"/>
	<path d="M 332.0,523.0 L 336.0,527.0 L 333.0,525.0" style="stroke:#010101; fill:none;"/>
	<path d="M 605.0,523.0 L 612.0,524.0" style="stroke:#010101; fill:none;"/>
	<path d="M 200.0,524.0 L 203.0,527.0 L 203.0,524.0" style="stroke:#010101; fill:none;"/>
	<path d="M 286.0,524.0 L 295.0,528.0 L 291.0,526.0" style="stroke:#010101; fill:none;"/>
	<path d="M 201.0,525.0 C 199.804,527.242 199.758,527.196 202.0,526.0" style="stroke:#010101; fill:none;"/>
	<path d="M 330.0,525.0 L 331.0,526.0" style="stroke:#010101; fill:none;"/>
	<path d="M 538.0,530.0 L 553.0,525.0" style="stroke:#010101; fill:none;"/>
	<path d="M 614.0,525.0 L 627.0,530.0" style="stroke:#010101; fill:none;"/>
	<path d="M 287.0,526.0 L 290.0,527.0" style="stroke:#010101; fill:none;"/>
	<path d="M 546.0,529.0 C 549.231,534.213 529.217,539.118 525.0,542.0 C 533.586,546.908 550.619,537.029 558.0,532.0 L 554.0,528.0 L 579.0,527.0 L 576.0,526.0" style="stroke:#010101; fill:none;"/>
	<path d="M 457.0,578.0 C 443.526,567.727 433.652,536.717 454.0,527.0" style="stroke:#010101; fill:none;"/>
	<path d="M 572.0,527.0 L 569.0,528.0" style="stroke:#010101; fill:none;"/>
	<path d="M 579.0,527.0 L 583.0,526.0" style="stroke:#010101; fill:none;"/>
	<path d="M 582.0,527.0 L 587.0,527.0" style="stroke:#010101; fill:none;"/>
	<path d="M 295.0,528.0 L 303.0,532.0 L 300.0,532.0" style="stroke:#010101; fill:none;"/>
	<path d="M 338.0,528.0 L 340.0,530.0 L 336.0,528.0" style="stroke:#010101; fill:none;"/>
	<path d="M 540.0,528.0 L 540.0,529.0" style="stroke:#010101; fill:none;"/>
	<path d="M 575.0,528.0 L 573.0,530.0" style="stroke:#010101; fill:none;"/>
	<path d="M 200.0,529.0 L 187.0,542.0" style="stroke:#010101; fill:none;"/>
	<path d="M 294.0,529.0 L 298.0,529.0" style="stroke:#010101; fill:none;"/>
	<path d="M 395.0,529.0 C 389.952,542.479 384.669,560.619 384.039,575.0 C 383.353,590.673 386.864,603.616 382.279,619.0 C 376.757,637.531 363.28,653.106 354.081,670.0 C 342.365,691.518 334.346,714.866 324.0,737.0" style="stroke:#010101; fill:none;"/>
	<path d="M 557.0,529.0 L 555.0,530.0" style="stroke:#010101; fill:none;"/>
	<path d="M 574.0,529.0 L 579.0,532.0" style="stroke:#010101; fill:none;"/>
	<path d="M 300.0,530.0 L 301.0,531.0" style="stroke:#010101; fill:none;"/>
	<path d="M 536.0,530.0 C 530.915,534.167 522.682,539.05 516.0,539.0" style="stroke:#010101; fill:none;"/>
	<path d="M 340.0,531.0 L 348.0,539.0" style="stroke:#010101; fill:none;"/>
	<path d="M 549.0,531.0 L 554.0,531.0" style="stroke:#010101; fill:none;"/>
	<path d="M 607.0,531.0 L 651.0,540.0" style="stroke:#010101; fill:none;"/>
	<path d="M 304.0,532.0 L 302.0,534.0" style="stroke:#010101; fill:none;"/>
	<path d="M 558.0,532.0 L 574.0,535.0 L 546.0,539.0" style="stroke:#010101; fill:none;"/>
	<path d="M 610.0,533.0 L 606.0,533.0" style="stroke:#010101; fill:none;"/>
	<path d="M 306.0,533.0 L 310.0,535.0" style="stroke:#010101; fill:none;"/>
	<path d="M 611.0,534.0 L 614.0,533.0" style="stroke:#010101; fill:none;"/>
	<path d="M 185.0,535.0 L 180.0,540.0" style="stroke:#010101; fill:none;"/>
	<path d="M 304.0,535.0 L 308.0,538.0" style="stroke:#010101; fill:none;"/>
	<path d="M 575.0,535.0 L 588.0,535.0" style="stroke:#010101; fill:none;"/>
	<path d="M 577.0,537.0 C 554.825,551.654 522.105,550.426 498.0,562.0" style="stroke:#010101; fill:none;"/>
	<path d="M 582.0,537.0 L 584.0,542.0" style="stroke:#010101; fill:none;"/>
	<path d="M 579.0,538.0 L 581.0,540.0" style="stroke:#010101; fill:none;"/>
	<path d="M 513.0,539.0 L 515.0,541.0" style="stroke:#010101; fill:none;"/>
	<path d="M 589.0,540.0 L 621.0,544.719 L 645.0,544.171 L 683.0,552.0" style="stroke:#010101; fill:none;"/>
	<path d="M 514.0,541.0 C 509.786,544.0 505.251,547.29 500.0,546.0" style="stroke:#010101; fill:none;"/>
	<path d="M 582.0,541.0 C 577.075,544.074 572.117,545.031 567.0,542.0" style="stroke:#010101; fill:none;"/>
	<path d="M 492.0,562.0 C 497.739,554.853 516.269,544.445 525.0,542.0" style="stroke:#010101; fill:none;"/>
	<path d="M 191.0,544.0 L 188.0,545.0" style="stroke:#010101; fill:none;"/>
	<path d="M 520.0,544.0 L 522.0,546.0 L 518.0,547.0" style="stroke:#010101; fill:none;"/>
	<path d="M 527.0,544.0 L 522.0,546.0" style="stroke:#010101; fill:none;"/>
	<path d="M 569.0,544.0 C 554.686,554.072 529.112,558.459 512.0,562.0" style="stroke:#010101; fill:none;"/>
	<path d="M 184.0,545.0 L 176.0,553.0" style="stroke:#010101; fill:none;"/>
	<path d="M 617.0,545.0 C 607.333,551.953 582.023,541.131 578.0,555.0 C 586.197,557.852 588.71,555.329 595.0,550.0" style="stroke:#010101; fill:none;"/>
	<path d="M 628.0,545.0 C 634.053,549.354 641.842,548.351 649.0,549.282 C 661.22,550.87 675.465,553.322 686.0,560.0" style="stroke:#010101; fill:none;"/>
	<path d="M 189.0,547.0 L 179.0,559.0" style="stroke:#010101; fill:none;"/>
	<path d="M 174.0,548.0 L 168.0,561.0" style="stroke:#010101; fill:none;"/>
	<path d="M 501.0,548.0 L 493.0,550.0" style="stroke:#010101; fill:none;"/>
	<path d="M 170.0,549.0 L 168.0,556.0" style="stroke:#010101; fill:none;"/>
	<path d="M 578.0,555.0 C 572.192,558.365 564.908,560.995 559.0,557.0 L 572.0,550.0 L 558.0,552.0" style="stroke:#010101; fill:none;"/>
	<path d="M 573.0,551.0 L 578.0,553.0" style="stroke:#010101; fill:none;"/>
	<path d="M 490.0,552.0 L 494.0,552.0" style="stroke:#010101; fill:none;"/>
	<path d="M 581.0,555.0 L 590.0,552.0" style="stroke:#010101; fill:none;"/>
	<path d="M 596.0,552.0 C 604.881,553.267 614.049,551.448 623.0,552.09 C 642.323,553.476 664.831,558.146 683.0,565.0" style="stroke:#010101; fill:none;"/>
	<path d="M 191.0,553.0 C 185.555,557.149 178.551,562.472 180.0,570.0 L 187.0,563.0" style="stroke:#010101; fill:none;"/>
	<path d="M 599.0,553.0 C 602.891,560.057 624.592,558.42 631.0,555.0" style="stroke:#010101; fill:none;"/>
	<path d="M 491.0,554.0 L 482.0,560.0" style="stroke:#010101; fill:none;"/>
	<path d="M 634.0,555.0 L 631.0,556.0" style="stroke:#010101; fill:none;"/>
	<path d="M 502.0,556.0 L 502.0,559.0" style="stroke:#010101; fill:none;"/>
	<path d="M 560.0,560.0 L 551.0,559.0 L 559.0,557.0" style="stroke:#010101; fill:none;"/>
	<path d="M 590.0,557.0 L 598.0,556.0" style="stroke:#010101; fill:none;"/>
	<path d="M 498.0,557.0 L 501.0,560.0" style="stroke:#010101; fill:none;"/>
	<path d="M 583.0,558.0 C 586.084,568.251 608.575,564.535 617.0,563.74 C 628.556,562.65 644.686,559.764 656.0,561.415 C 677.07,564.491 695.009,575.832 712.0,588.0" style="stroke:#010101; fill:none;"/>
	<path d="M 518.0,566.0 L 551.0,559.0" style="stroke:#010101; fill:none;"/>
	<path d="M 545.0,560.0 L 546.0,560.0" style="stroke:#010101; fill:none;"/>
	<path d="M 548.0,560.0 L 552.0,560.0" style="stroke:#010101; fill:none;"/>
	<path d="M 201.0,650.0 C 210.823,624.536 217.505,592.91 242.0,576.723 C 254.945,568.169 270.067,565.813 285.0,563.0" style="stroke:#010101; fill:none;"/>
	<path d="M 381.0,563.0 L 383.0,563.0" style="stroke:#010101; fill:none;"/>
	<path d="M 661.0,563.0 C 648.417,569.826 621.748,572.064 608.0,568.0" style="stroke:#010101; fill:none;"/>
	<path d="M 144.0,565.0 L 145.0,565.0" style="stroke:#010101; fill:none;"/>
	<path d="M 648.0,567.0 C 655.641,570.625 672.842,572.243 681.0,570.0" style="stroke:#010101; fill:none;"/>
	<path d="M 127.0,888.0 C 103.855,858.816 111.691,829.876 115.715,796.0 C 119.619,763.121 118.822,729.703 124.285,697.0 C 127.214,679.471 136.46,662.922 139.405,646.0 C 141.499,633.973 137.881,613.259 133.124,602.0 C 130.746,596.371 121.364,589.106 122.377,583.004 C 123.637,575.405 135.728,572.311 142.0,571.0" style="stroke:#010101; fill:none;"/>
	<path d="M 251.0,573.0 C 256.884,575.469 263.851,573.309 270.0,573.039 C 285.673,572.353 304.754,569.355 320.0,571.572 C 339.159,574.357 353.938,592.548 368.0,604.0" style="stroke:#010101; fill:none;"/>
	<path d="M 322.0,572.0 L 315.0,573.0" style="stroke:#010101; fill:none;"/>
	<path d="M 651.0,573.0 L 681.0,576.46 L 697.0,578.0" style="stroke:#010101; fill:none;"/>
	<path d="M 322.0,574.0 L 358.0,609.0" style="stroke:#010101; fill:none;"/>
	<path d="M 147.0,579.0 L 147.0,584.0" style="stroke:#010101; fill:none;"/>
	<path d="M 473.0,583.0 L 508.0,582.0" style="stroke:#010101; fill:none;"/>
	<path d="M 220.0,638.0 C 226.961,621.822 225.072,605.822 240.001,593.326 C 269.098,568.968 308.048,595.467 332.0,614.6 C 339.276,620.412 347.599,626.354 353.0,634.0 L 342.0,635.0" style="stroke:#010101; fill:none;"/>
	<path d="M 558.0,585.0 L 553.0,584.0 C 563.12,581.373 572.412,586.34 582.0,589.136 C 597.697,593.713 613.35,594.95 628.0,603.173 C 635.054,607.132 648.466,619.528 656.0,619.0 L 653.0,618.0" style="stroke:#010101; fill:none;"/>
	<path d="M 672.0,583.0 L 702.0,589.0" style="stroke:#010101; fill:none;"/>
	<path d="M 530.0,594.0 L 553.0,584.0" style="stroke:#010101; fill:none;"/>
	<path d="M 191.0,625.0 C 200.255,611.013 210.269,592.485 226.0,585.0" style="stroke:#010101; fill:none;"/>
	<path d="M 556.0,587.0 L 481.0,657.0" style="stroke:#010101; fill:none;"/>
	<path d="M 678.0,588.0 L 710.0,598.0" style="stroke:#010101; fill:none;"/>
	<path d="M 289.0,627.0 C 282.467,632.181 275.67,637.153 267.0,637.401 C 253.878,637.777 245.636,623.655 247.3,612.0 C 247.866,608.036 248.632,602.336 251.397,599.275 C 254.488,595.855 260.909,596.429 260.0,591.0 C 271.415,588.536 285.742,594.853 297.0,597.78 C 302.27,599.15 306.663,602.126 312.0,600.0" style="stroke:#010101; fill:none;"/>
	<path d="M 284.0,591.0 L 284.0,594.0" style="stroke:#010101; fill:none;"/>
	<path d="M 258.0,595.0 L 259.0,591.0" style="stroke:#010101; fill:none;"/>
	<path d="M 262.0,592.0 L 261.0,593.0" style="stroke:#010101; fill:none;"/>
	<path d="M 264.0,592.0 L 262.0,594.0" style="stroke:#010101; fill:none;"/>
	<path d="M 152.0,593.0 L 157.0,626.0" style="stroke:#010101; fill:none;"/>
	<path d="M 238.0,595.0 L 256.0,593.0" style="stroke:#010101; fill:none;"/>
	<path d="M 265.0,593.0 L 272.0,593.0" style="stroke:#010101; fill:none;"/>
	<path d="M 245.0,597.0 L 248.0,601.0 L 249.0,601.0" style="stroke:#010101; fill:none;"/>
	<path d="M 296.0,598.0 C 296.0,608.152 295.865,614.924 289.0,623.0" style="stroke:#010101; fill:none;"/>
	<path d="M 274.0,599.0 C 280.724,605.95 280.283,610.706 272.0,616.0 C 269.712,611.372 269.073,606.405 263.0,609.0 C 271.264,624.118 248.348,611.359 264.003,602.558 C 266.187,601.33 268.614,600.697 271.0,600.0" style="stroke:#010101; fill:none;"/>
	<path d="M 690.0,599.0 L 716.0,605.0" style="stroke:#010101; fill:none;"/>
	<path d="M 247.0,601.0 C 236.149,610.262 242.663,621.169 238.0,633.0" style="stroke:#010101; fill:none;"/>
	<path d="M 165.0,603.0 L 165.0,637.0" style="stroke:#010101; fill:none;"/>
	<path d="M 240.0,607.0 C 239.446,604.432 239.384,603.973 242.0,604.0" style="stroke:#010101; fill:none;"/>
	<path d="M 697.0,607.0 L 716.0,614.0" style="stroke:#010101; fill:none;"/>
	<path d="M 517.0,646.0 C 531.764,636.234 540.076,617.892 556.0,610.188 C 563.754,606.437 566.164,610.655 573.129,611.86 C 592.984,615.294 604.157,620.683 620.0,633.0" style="stroke:#010101; fill:none;"/>
	<path d="M 693.0,609.0 L 716.0,641.0" style="stroke:#010101; fill:none;"/>
	<path d="M 239.0,616.0 C 236.031,614.002 236.632,612.385 239.0,610.0" style="stroke:#010101; fill:none;"/>
	<path d="M 165.0,611.0 L 165.0,612.0" style="stroke:#010101; fill:none;"/>
	<path d="M 570.0,612.0 C 566.912,614.365 562.984,615.658 560.133,618.278 C 545.894,631.363 561.692,642.618 567.0,654.0 C 556.893,653.916 547.156,653.203 537.0,654.17 C 529.13,654.919 519.481,656.662 513.0,651.0" style="stroke:#010101; fill:none;"/>
	<path d="M 235.0,617.0 L 235.0,620.0 L 238.0,619.0" style="stroke:#010101; fill:none;"/>
	<path d="M 711.0,618.0 L 725.0,625.0" style="stroke:#010101; fill:none;"/>
	<path d="M 656.0,619.0 C 661.607,637.879 682.073,645.342 683.0,667.0" style="stroke:#010101; fill:none;"/>
	<path d="M 235.0,620.0 L 231.0,625.0" style="stroke:#010101; fill:none;"/>
	<path d="M 587.0,628.0 C 585.855,629.574 584.757,631.376 583.309,632.702 C 574.472,640.802 571.463,619.682 579.897,620.921 C 582.528,621.308 584.655,626.409 587.0,628.0" style="stroke:#010101; fill:none;"/>
	<path d="M 542.0,648.0 C 539.195,638.89 548.089,624.175 557.0,621.0" style="stroke:#010101; fill:none;"/>
	<path d="M 606.0,621.0 L 600.0,622.0" style="stroke:#010101; fill:none;"/>
	<path d="M 659.0,621.0 L 687.0,644.0" style="stroke:#010101; fill:none;"/>
	<path d="M 609.0,622.0 C 624.225,624.28 645.816,633.878 644.0,651.0 L 648.0,650.0 L 650.0,655.0 L 661.015,661.092 L 672.0,663.0" style="stroke:#010101; fill:none;"/>
	<path d="M 654.0,622.0 L 656.0,624.0" style="stroke:#010101; fill:none;"/>
	<path d="M 340.0,623.0 C 339.87,628.385 338.246,632.583 332.996,635.012 C 328.365,637.154 321.085,636.6 316.0,637.075 C 303.372,638.253 287.145,641.764 275.0,637.0" style="stroke:#010101; fill:none;"/>
	<path d="M 609.0,624.0 C 604.273,632.846 605.636,651.564 594.815,656.616 C 587.798,659.892 575.545,655.156 568.0,655.0" style="stroke:#010101; fill:none;"/>
	<path d="M 1070.0,629.0 L 1074.0,625.0 L 1076.0,630.0 C 1062.4,628.927 1046.55,625.164 1033.0,627.213 C 1015.38,629.878 994.249,644.1 979.0,653.0" style="stroke:#010101; fill:none;"/>
	<path d="M 157.0,628.0 C 150.527,648.497 149.144,678.067 152.144,700.0 C 153.922,713.006 157.488,725.456 156.96,739.0 C 154.011,814.673 133.826,896.396 162.0,970.0" style="stroke:#010101; fill:none;"/>
	<path d="M 229.0,630.0 L 234.0,628.0" style="stroke:#010101; fill:none;"/>
	<path d="M 226.0,637.0 L 239.0,628.0" style="stroke:#010101; fill:none;"/>
	<path d="M 623.0,630.0 L 624.0,634.0" style="stroke:#010101; fill:none;"/>
	<path d="M 632.0,631.0 L 631.0,639.0" style="stroke:#010101; fill:none;"/>
	<path d="M 1077.0,631.0 C 1100.84,639.329 1104.86,666.958 1109.87,688.0 C 1117.75,721.091 1105.4,767.382 1092.15,798.0 C 1087.81,808.025 1081.55,816.909 1077.28,827.0 C 1070.76,842.407 1067.19,859.008 1059.75,874.0 C 1044.04,905.652 1017.74,930.543 985.0,944.662 C 975.897,948.587 964.487,948.19 956.0,952.318 C 949.459,955.499 944.852,961.577 938.0,964.688 C 930.622,968.037 923.033,969.104 915.0,968.996 C 911.6,968.951 906.399,966.892 903.637,969.422 C 899.269,973.425 896.702,981.777 893.975,987.0 C 884.871,1004.44 880.11,1023.18 871.702,1041.0 C 865.624,1053.88 857.475,1065.9 851.915,1079.0 C 827.58,1136.33 810.489,1196.4 787.265,1254.0 C 777.744,1277.62 762.46,1298.66 754.975,1323.0 C 752.734,1330.29 748.386,1340.45 750.0,1348.0 C 757.628,1341.46 759.994,1329.59 760.0,1320.0" style="stroke:#010101; fill:none;"/>
	<path d="M 628.0,633.0 L 627.0,637.0" style="stroke:#010101; fill:none;"/>
	<path d="M 161.0,634.0 L 164.0,651.0" style="stroke:#010101; fill:none;"/>
	<path d="M 257.0,634.0 L 237.0,636.0" style="stroke:#010101; fill:none;"/>
	<path d="M 637.0,634.0 L 635.0,641.0" style="stroke:#010101; fill:none;"/>
	<path d="M 170.0,635.0 C 179.935,646.796 184.624,640.222 198.0,641.0" style="stroke:#010101; fill:none;"/>
	<path d="M 336.0,635.0 L 339.0,635.0" style="stroke:#010101; fill:none;"/>
	<path d="M 639.0,639.0 C 639.141,643.254 639.719,645.099 644.0,643.0 L 644.0,643.0" style="stroke:#010101; fill:none;"/>
	<path d="M 528.0,645.0 L 540.0,641.0" style="stroke:#010101; fill:none;"/>
	<path d="M 646.0,642.0 C 655.241,644.745 660.542,653.406 667.0,660.0" style="stroke:#010101; fill:none;"/>
	<path d="M 216.0,644.0 L 205.0,656.0" style="stroke:#010101; fill:none;"/>
	<path d="M 253.0,655.0 C 275.313,660.312 299.724,649.042 321.0,644.0" style="stroke:#010101; fill:none;"/>
	<path d="M 225.0,648.0 L 244.0,656.0" style="stroke:#010101; fill:none;"/>
	<path d="M 180.0,658.0 C 184.14,652.261 189.462,650.131 196.0,648.0" style="stroke:#010101; fill:none;"/>
	<path d="M 158.0,649.0 L 160.0,685.0" style="stroke:#010101; fill:none;"/>
	<path d="M 644.0,651.0 L 642.0,655.0" style="stroke:#010101; fill:none;"/>
	<path d="M 139.0,654.0 L 138.0,677.0" style="stroke:#010101; fill:none;"/>
	<path d="M 684.0,656.0 L 697.0,669.0" style="stroke:#010101; fill:none;"/>
	<path d="M 598.0,658.0 C 614.851,662.362 642.727,668.686 659.0,660.0" style="stroke:#010101; fill:none;"/>
	<path d="M 697.0,658.0 C 708.718,667.694 734.619,678.619 750.0,675.0" style="stroke:#010101; fill:none;"/>
	<path d="M 954.0,777.0 C 981.844,756.36 985.721,728.439 1002.95,701.0 C 1014.73,682.25 1040.56,665.023 1062.0,659.609 C 1081.19,654.761 1086.77,665.514 1092.8,681.0 C 1102.43,705.739 1093.36,733.68 1086.42,758.0 C 1084.11,766.106 1082.29,779.21 1076.0,785.0" style="stroke:#010101; fill:none;"/>
	<path d="M 163.0,662.0 L 175.0,663.0" style="stroke:#010101; fill:none;"/>
	<path d="M 967.0,662.0 L 949.0,683.0" style="stroke:#010101; fill:none;"/>
	<path d="M 161.0,663.0 L 162.0,670.0" style="stroke:#010101; fill:none;"/>
	<path d="M 189.0,670.0 L 206.0,666.0" style="stroke:#010101; fill:none;"/>
	<path d="M 559.0,666.0 C 565.937,673.508 578.428,675.469 588.0,677.873 C 616.355,684.997 644.876,683.677 673.0,676.0" style="stroke:#010101; fill:none;"/>
	<path d="M 760.0,666.0 L 751.0,672.0" style="stroke:#010101; fill:none;"/>
	<path d="M 328.0,667.0 L 303.0,683.0" style="stroke:#010101; fill:none;"/>
	<path d="M 155.0,669.0 C 155.255,681.355 160.953,693.138 155.0,705.0" style="stroke:#010101; fill:none;"/>
	<path d="M 679.0,670.0 C 681.44,677.642 687.768,683.252 694.0,688.0" style="stroke:#010101; fill:none;"/>
	<path d="M 1053.0,703.0 C 1053.0,693.761 1052.32,678.104 1059.0,671.0" style="stroke:#010101; fill:none;"/>
	<path d="M 698.0,673.0 C 701.242,681.5 707.89,694.08 716.015,698.721 C 721.369,701.78 728.082,701.002 734.0,701.0 C 755.589,700.992 770.023,693.793 787.0,681.0" style="stroke:#010101; fill:none;"/>
	<path d="M 179.0,674.0 C 176.297,682.466 168.849,687.838 162.0,693.0" style="stroke:#010101; fill:none;"/>
	<path d="M 209.0,675.0 C 218.475,680.047 225.513,688.397 235.0,693.367 C 251.939,702.239 272.471,699.605 290.0,694.0" style="stroke:#010101; fill:none;"/>
	<path d="M 325.0,678.0 L 327.0,678.0" style="stroke:#010101; fill:none;"/>
	<path d="M 983.0,680.0 L 940.225,741.0 L 883.0,853.0" style="stroke:#010101; fill:none;"/>
	<path d="M 322.0,683.0 L 310.0,689.0" style="stroke:#010101; fill:none;"/>
	<path d="M 1064.0,685.0 C 1061.16,698.745 1056.42,712.085 1054.27,726.0 C 1049.18,759.027 1048.0,794.616 1048.0,828.0" style="stroke:#010101; fill:none;"/>
	<path d="M 206.0,691.0 L 216.0,686.0" style="stroke:#010101; fill:none;"/>
	<path d="M 521.0,687.0 L 526.0,687.0" style="stroke:#010101; fill:none;"/>
	<path d="M 524.0,692.0 L 530.0,691.0" style="stroke:#010101; fill:none;"/>
	<path d="M 299.0,697.0 L 311.0,696.0" style="stroke:#010101; fill:none;"/>
	<path d="M 189.0,710.0 L 205.0,696.0" style="stroke:#010101; fill:none;"/>
	<path d="M 1022.0,696.0 C 1017.57,706.794 1012.73,714.691 1002.0,720.0" style="stroke:#010101; fill:none;"/>
	<path d="M 698.0,697.0 C 704.64,706.235 711.976,708.015 721.0,714.039 C 738.918,726.002 757.294,735.442 774.0,749.0" style="stroke:#010101; fill:none;"/>
	<path d="M 148.0,784.0 C 148.0,765.613 149.0,747.349 149.0,729.0 C 149.0,719.363 147.267,707.733 152.0,699.0 L 156.0,704.0" style="stroke:#010101; fill:none;"/>
	<path d="M 218.0,702.0 L 216.0,704.0 L 214.0,702.0 L 218.0,702.0" style="stroke:#010101; fill:none;"/>
	<path d="M 215.0,703.0 L 213.0,705.0 L 211.0,703.0 L 214.0,702.0" style="stroke:#010101; fill:none;"/>
	<path d="M 232.0,702.0 C 234.985,708.069 241.206,709.419 247.0,712.0" style="stroke:#010101; fill:none;"/>
	<path d="M 291.0,703.0 L 300.0,702.0" style="stroke:#010101; fill:none;"/>
	<path d="M 212.0,705.0 L 211.0,703.0" style="stroke:#010101; fill:none;"/>
	<path d="M 535.0,703.0 L 548.0,704.0" style="stroke:#010101; fill:none;"/>
	<path d="M 741.0,703.0 C 754.361,707.272 770.314,707.753 782.0,716.0" style="stroke:#010101; fill:none;"/>
	<path d="M 210.0,705.0 L 208.0,707.0 L 206.0,705.0 L 209.0,704.0" style="stroke:#010101; fill:none;"/>
	<path d="M 557.0,704.0 C 595.107,723.231 637.636,721.973 676.0,706.0" style="stroke:#010101; fill:none;"/>
	<path d="M 198.0,709.0 L 206.0,705.0" style="stroke:#010101; fill:none;"/>
	<path d="M 276.0,709.0 L 299.0,706.0" style="stroke:#010101; fill:none;"/>
	<path d="M 185.0,710.0 L 159.0,756.0" style="stroke:#010101; fill:none;"/>
	<path d="M 201.0,718.0 C 210.181,714.867 222.337,710.779 232.0,713.0" style="stroke:#010101; fill:none;"/>
	<path d="M 928.0,712.0 L 913.0,729.0" style="stroke:#010101; fill:none;"/>
	<path d="M 690.0,714.0 L 715.0,735.0" style="stroke:#010101; fill:none;"/>
	<path d="M 536.0,717.0 L 552.0,715.0" style="stroke:#010101; fill:none;"/>
	<path d="M 552.0,721.0 C 559.132,734.632 591.431,727.001 604.0,727.0" style="stroke:#010101; fill:none;"/>
	<path d="M 675.0,728.0 L 688.0,722.0" style="stroke:#010101; fill:none;"/>
	<path d="M 186.0,730.0 L 184.0,733.0" style="stroke:#010101; fill:none;"/>
	<path d="M 629.0,741.0 L 648.0,739.273 L 666.0,731.0" style="stroke:#010101; fill:none;"/>
	<path d="M 910.0,730.0 C 898.234,744.321 896.307,768.367 892.489,786.0 C 887.854,807.409 879.997,828.451 867.0,846.0" style="stroke:#010101; fill:none;"/>
	<path d="M 624.0,734.0 L 630.0,731.0" style="stroke:#010101; fill:none;"/>
	<path d="M 571.0,734.0 L 592.0,739.385 L 613.0,739.0" style="stroke:#010101; fill:none;"/>
	<path d="M 676.0,735.0 C 695.778,750.069 706.057,771.923 719.519,792.0 C 726.551,802.487 735.554,811.072 742.0,822.0" style="stroke:#010101; fill:none;"/>
	<path d="M 134.0,736.0 C 131.074,759.131 126.563,786.513 135.0,809.0" style="stroke:#010101; fill:none;"/>
	<path d="M 321.0,736.0 L 314.0,745.0" style="stroke:#010101; fill:none;"/>
	<path d="M 171.0,740.0 L 162.0,764.0" style="stroke:#010101; fill:none;"/>
	<path d="M 718.0,741.0 C 724.006,756.869 737.45,771.912 748.0,785.0" style="stroke:#010101; fill:none;"/>
	<path d="M 957.0,744.0 C 943.03,767.939 950.721,793.33 942.239,818.0 C 938.428,829.086 928.895,837.896 921.887,847.0 C 912.522,859.167 904.568,872.288 896.0,885.0" style="stroke:#010101; fill:none;"/>
	<path d="M 609.0,745.0 L 641.0,751.0" style="stroke:#010101; fill:none;"/>
	<path d="M 985.0,753.0 C 993.045,752.734 998.113,755.63 1004.0,761.0" style="stroke:#010101; fill:none;"/>
	<path d="M 309.0,753.0 C 298.854,762.317 285.087,768.08 276.519,779.0 C 253.826,807.919 279.839,833.205 306.0,846.0" style="stroke:#010101; fill:none;"/>
	<path d="M 326.0,762.0 C 313.55,774.451 304.599,787.563 301.0,805.0" style="stroke:#010101; fill:none;"/>
	<path d="M 982.0,764.0 L 1010.0,803.0" style="stroke:#010101; fill:none;"/>
	<path d="M 482.0,771.0 L 507.0,799.0" style="stroke:#010101; fill:none;"/>
	<path d="M 1024.0,775.0 C 1022.08,790.155 1021.39,807.214 1014.11,821.0 C 1011.04,826.812 1006.87,833.009 1000.0,834.0" style="stroke:#010101; fill:none;"/>
	<path d="M 431.0,777.0 C 430.942,798.117 421.272,816.43 409.0,833.0" style="stroke:#010101; fill:none;"/>
	<path d="M 751.0,787.0 L 762.0,791.0" style="stroke:#010101; fill:none;"/>
	<path d="M 347.0,1370.0 C 338.669,1357.35 335.586,1343.34 326.127,1330.0 C 314.138,1313.09 299.927,1297.88 287.91,1281.0 C 275.772,1263.95 264.906,1245.35 251.88,1229.0 C 235.174,1208.04 215.348,1190.77 200.692,1168.0 C 186.58,1146.08 177.55,1120.09 167.799,1096.0 C 161.045,1079.31 152.506,1063.21 147.029,1046.0 C 135.624,1010.15 130.0,968.497 130.0,931.0 C 130.0,896.435 134.143,860.967 140.804,827.0 C 142.753,817.06 144.446,797.956 152.0,791.0" style="stroke:#010101; fill:none;"/>
	<path d="M 1067.0,799.0 C 1062.69,817.176 1052.84,834.447 1044.5,851.0 C 1040.36,859.22 1035.59,869.8 1027.99,875.362 C 1021.11,880.391 1011.25,881.889 1003.0,883.0" style="stroke:#010101; fill:none;"/>
	<path d="M 924.0,801.0 C 905.904,826.34 896.493,856.649 875.0,880.0" style="stroke:#010101; fill:none;"/>
	<path d="M 499.0,802.0 C 500.412,811.594 503.354,820.092 501.536,830.0 C 497.075,854.312 473.539,863.006 452.0,856.0" style="stroke:#010101; fill:none;"/>
	<path d="M 297.0,828.0 L 301.0,829.0 C 292.827,832.899 275.478,813.566 281.0,805.0" style="stroke:#010101; fill:none;"/>
	<path d="M 307.0,818.0 C 309.648,828.477 318.553,834.066 328.0,838.0" style="stroke:#010101; fill:none;"/>
	<path d="M 302.0,829.0 L 340.0,856.0" style="stroke:#010101; fill:none;"/>
	<path d="M 233.0,856.0 L 257.0,833.0" style="stroke:#010101; fill:none;"/>
	<path d="M 391.0,855.0 C 397.227,852.679 403.754,852.253 410.0,850.177 C 424.059,845.506 435.788,839.131 451.0,838.089 C 458.465,837.578 479.843,844.959 463.0,849.0" style="stroke:#010101; fill:none;"/>
	<path d="M 346.0,841.0 C 356.75,845.007 365.878,845.157 377.0,843.0" style="stroke:#010101; fill:none;"/>
	<path d="M 921.0,870.0 C 947.941,873.387 972.755,854.994 994.0,841.0" style="stroke:#010101; fill:none;"/>
	<path d="M 413.0,850.0 C 421.941,855.093 433.86,849.443 443.0,847.0" style="stroke:#010101; fill:none;"/>
	<path d="M 540.0,848.0 L 589.0,912.0" style="stroke:#010101; fill:none;"/>
	<path d="M 410.0,851.0 L 407.0,856.0" style="stroke:#010101; fill:none;"/>
	<path d="M 907.0,877.0 C 914.883,897.791 933.16,903.093 953.0,899.0" style="stroke:#010101; fill:none;"/>
	<path d="M 199.0,916.0 C 192.147,898.097 206.293,886.829 221.0,879.0" style="stroke:#010101; fill:none;"/>
	<path d="M 710.0,883.0 L 719.961,933.0 L 714.0,987.0" style="stroke:#010101; fill:none;"/>
	<path d="M 678.0,905.0 L 684.0,976.0" style="stroke:#010101; fill:none;"/>
	<path d="M 591.0,908.0 L 600.0,917.0 L 600.0,914.0" style="stroke:#010101; fill:none;"/>
	<path d="M 600.0,917.0 C 612.45,930.009 624.614,947.317 625.0,966.0" style="stroke:#010101; fill:none;"/>
	<path d="M 261.0,939.0 L 286.0,936.684 L 305.0,944.292 L 330.0,938.094 L 382.0,950.812 L 439.0,946.039 L 482.0,953.0" style="stroke:#010101; fill:none;"/>
	<path d="M 218.0,938.0 C 229.83,937.902 239.874,938.118 251.0,943.323 C 264.81,949.784 276.666,960.48 292.0,963.522 C 301.445,965.395 312.237,964.039 322.0,965.286 C 341.783,967.811 361.092,974.308 381.0,975.907 C 392.567,976.836 404.405,973.299 416.0,973.015 C 438.979,972.452 461.946,976.357 485.0,975.741 C 493.13,975.523 500.937,972.472 509.0,972.104 C 516.346,971.769 523.558,973.68 531.0,972.711 C 542.008,971.277 551.852,966.231 563.0,965.17 C 576.216,963.911 589.45,966.151 601.0,958.0" style="stroke:#010101; fill:none;"/>
	<path d="M 484.0,952.0 L 535.0,960.0" style="stroke:#010101; fill:none;"/>
	<path d="M 540.0,958.0 L 552.0,958.0" style="stroke:#010101; fill:none;"/>
	<path d="M 870.0,959.0 L 903.0,970.0" style="stroke:#010101; fill:none;"/>
	<path d="M 872.0,961.0 L 857.669,996.0 L 857.0,1043.0" style="stroke:#010101; fill:none;"/>
	<path d="M 267.0,974.0 C 286.261,996.048 319.773,1009.3 349.0,1007.0" style="stroke:#010101; fill:none;"/>
	<path d="M 218.0,977.0 C 218.289,990.588 228.271,1002.07 235.308,1013.0 C 242.659,1024.42 247.716,1037.26 248.0,1051.0" style="stroke:#010101; fill:none;"/>
	<path d="M 351.0,1007.0 C 367.869,1003.86 385.958,1004.52 403.0,1006.17 C 411.742,1007.02 420.135,1010.05 429.0,1009.96 C 463.282,1009.62 497.387,999.462 528.0,985.0" style="stroke:#010101; fill:none;"/>
	<path d="M 175.0,987.0 C 180.222,1009.56 191.351,1037.97 203.0,1058.0" style="stroke:#010101; fill:none;"/>
	<path d="M 680.0,995.0 C 675.421,1014.79 668.067,1037.31 658.0,1055.0" style="stroke:#010101; fill:none;"/>
	<path d="M 257.0,1055.0 C 252.107,1059.7 253.807,1065.75 261.0,1065.0" style="stroke:#010101; fill:none;"/>
	<path d="M 252.0,1060.0 L 252.0,1062.0" style="stroke:#010101; fill:none;"/>
	<path d="M 257.0,1060.0 L 256.0,1061.0" style="stroke:#010101; fill:none;"/>
	<path d="M 828.0,1064.0 C 822.695,1086.34 806.82,1113.6 790.961,1130.0 C 784.262,1136.92 774.634,1141.14 768.429,1148.3 C 737.597,1183.9 711.409,1224.57 678.0,1258.0" style="stroke:#010101; fill:none;"/>
	<path d="M 211.0,1077.0 C 211.483,1088.25 215.924,1099.14 218.627,1110.0 C 226.392,1141.22 235.008,1174.43 262.0,1195.0" style="stroke:#010101; fill:none;"/>
	<path d="M 163.0,1087.0 C 151.89,1105.05 159.662,1131.9 163.79,1151.0 C 165.6,1159.37 167.202,1168.43 171.417,1176.0 C 174.894,1182.24 181.158,1186.78 185.0,1193.0" style="stroke:#010101; fill:none;"/>
	<path d="M 633.0,1106.0 C 620.308,1128.28 601.004,1148.0 583.0,1166.0" style="stroke:#010101; fill:none;"/>
	<path d="M 753.0,1132.0 L 713.0,1161.0" style="stroke:#010101; fill:none;"/>
	<path d="M 765.0,1154.0 L 766.0,1150.0" style="stroke:#010101; fill:none;"/>
	<path d="M 763.0,1155.0 L 763.0,1152.0" style="stroke:#010101; fill:none;"/>
	<path d="M 463.0,1274.0 C 551.774,1285.23 635.361,1234.45 707.0,1188.31 C 724.964,1176.74 742.343,1163.39 761.0,1153.0" style="stroke:#010101; fill:none;"/>
	<path d="M 625.0,1200.0 L 626.0,1204.0 L 662.0,1178.0" style="stroke:#010101; fill:none;"/>
	<path d="M 594.0,1211.0 L 628.0,1194.0" style="stroke:#010101; fill:none;"/>
	<path d="M 192.0,1200.0 C 198.38,1214.32 213.432,1227.14 223.572,1239.0 C 251.306,1271.43 281.795,1300.8 312.0,1331.0" style="stroke:#010101; fill:none;"/>
	<path d="M 502.0,1241.0 C 531.018,1235.01 555.324,1213.06 583.0,1203.0" style="stroke:#010101; fill:none;"/>
	<path d="M 250.0,1205.0 C 253.113,1214.83 260.87,1222.85 268.0,1230.0" style="stroke:#010101; fill:none;"/>
	<path d="M 549.0,1228.0 L 593.0,1208.0" style="stroke:#010101; fill:none;"/>
	<path d="M 434.0,1242.0 C 452.878,1242.0 470.736,1234.42 488.0,1227.45 C 504.464,1220.81 521.443,1215.42 538.0,1209.0" style="stroke:#010101; fill:none;"/>
	<path d="M 462.0,1251.0 L 538.0,1216.0" style="stroke:#010101; fill:none;"/>
	<path d="M 284.0,1225.0 L 326.0,1243.0" style="stroke:#010101; fill:none;"/>
	<path d="M 276.0,1236.0 C 284.052,1243.47 291.697,1251.61 301.0,1257.56 C 314.554,1266.24 330.04,1271.77 343.0,1281.38 C 367.334,1299.42 387.493,1329.48 392.0,1360.0" style="stroke:#010101; fill:none;"/>
	<path d="M 331.0,1241.0 C 354.102,1247.83 380.38,1238.0 404.0,1246.0" style="stroke:#010101; fill:none;"/>
	<path d="M 361.0,1278.0 L 417.0,1287.0 L 429.0,1289.0 L 426.0,1288.0" style="stroke:#010101; fill:none;"/>
	<path d="M 502.0,1366.0 C 517.033,1363.41 532.463,1354.37 546.0,1347.6 C 583.487,1328.87 616.307,1303.57 652.0,1282.0" style="stroke:#010101; fill:none;"/>
	<path d="M 761.0,1297.0 L 770.0,1286.0" style="stroke:#010101; fill:none;"/>
	<path d="M 768.0,1287.0 L 770.0,1289.0" style="stroke:#010101; fill:none;"/>
	<path d="M 429.0,1289.0 L 466.0,1290.0" style="stroke:#010101; fill:none;"/>
	<path d="M 379.0,1293.0 L 424.0,1291.0" style="stroke:#010101; fill:none;"/>
	<path d="M 395.0,1303.0 C 422.56,1303.0 454.187,1298.46 481.0,1292.0" style="stroke:#010101; fill:none;"/>
	<path d="M 402.0,1310.0 L 426.0,1307.45 L 474.0,1299.0" style="stroke:#010101; fill:none;"/>
	<path d="M 760.0,1299.0 L 759.0,1300.0" style="stroke:#010101; fill:none;"/>
	<path d="M 416.0,1316.0 C 440.753,1315.8 467.629,1304.73 492.0,1300.0" style="stroke:#010101; fill:none;"/>
	<path d="M 758.0,1302.0 L 732.0,1354.0" style="stroke:#010101; fill:none;"/>
	<path d="M 415.0,1326.0 L 493.0,1310.0" style="stroke:#010101; fill:none;"/>
	<path d="M 437.0,1329.0 L 482.0,1321.0" style="stroke:#010101; fill:none;"/>
	<path d="M 444.0,1336.0 L 468.0,1333.0" style="stroke:#010101; fill:none;"/>
	<path d="M 316.0,1335.0 L 339.0,1360.0" style="stroke:#010101; fill:none;"/>
	<path d="M 480.0,1335.0 L 459.0,1340.0" style="stroke:#010101; fill:none;"/>
	<path d="M 751.0,1348.0 C 740.415,1362.39 724.86,1372.54 710.0,1382.21 C 672.915,1406.36 625.11,1430.07 580.0,1431.0" style="stroke:#010101; fill:none;"/>
	<path d="M 342.0,1357.0 L 345.0,1363.0" style="stroke:#010101; fill:none;"/>
	<path d="M 343.0,1359.0 L 341.0,1361.0" style="stroke:#010101; fill:none;"/>
	<path d="M 475.0,1392.0 L 505.0,1375.0" style="stroke:#010101; fill:none;"/>
</svg>
