<?xml version="1.0" ?>
<svg baseProfile="full" height="1466" version="1.1" width="1161" xmlns="http://www.w3.org/2000/svg" xmlns:ev="http://www.w3.org/2001/xml-events" xmlns:xlink="http://www.w3.org/1999/xlink">
	<defs/>
	<path d="M 412.0,617.0 C 401.129,617.09 383.651,625.362 374.0,621.0 L 406.0,609.0" style="stroke:#010101; fill:none;"/>
	<path d="M 410.0,623.0 C 397.565,623.981 385.328,626.166 373.0,628.034 C 366.019,629.092 361.232,631.517 355.0,627.0 L 374.0,621.0" style="stroke:#010101; fill:none;"/>
	<path d="M 323.0,636.0 L 318.0,637.0 L 330.0,634.349 L 355.0,627.0" style="stroke:#010101; fill:none;"/>
	<path d="M 417.0,628.0 L 418.0,628.0" style="stroke:#010101; fill:none;"/>
	<path d="M 351.0,629.0 L 357.0,630.0" style="stroke:#010101; fill:none;"/>
	<path d="M 404.0,629.0 L 389.0,632.92 L 345.0,644.0 C 367.139,651.311 396.017,640.132 418.155,636.509 C 421.507,635.961 424.625,638.05 428.015,638.097 C 441.367,638.283 454.634,637.724 468.0,638.0" style="stroke:#010101; fill:none;"/>
	<path d="M 410.0,629.0 L 410.0,631.0 L 410.0,629.0" style="stroke:#010101; fill:none;"/>
	<path d="M 291.0,630.0 L 259.0,660.0 L 263.0,658.0 L 263.0,658.0" style="stroke:#010101; fill:none;"/>
	<path d="M 405.0,630.0 L 409.0,630.0" style="stroke:#010101; fill:none;"/>
	<path d="M 411.0,630.0 L 434.0,630.0" style="stroke:#010101; fill:none;"/>
	<path d="M 310.0,631.0 L 275.0,652.0" style="stroke:#010101; fill:none;"/>
	<path d="M 363.0,631.0 C 355.298,636.213 347.802,637.197 339.0,639.478 C 336.661,640.085 331.428,641.065 330.921,644.035 C 330.163,648.478 339.486,648.195 342.0,648.63 C 352.408,650.433 370.599,649.957 379.0,656.0 C 384.587,652.233 391.496,654.878 398.0,653.901 C 417.378,650.99 443.815,647.801 462.0,656.0 L 444.0,654.0" style="stroke:#010101; fill:none;"/>
	<path d="M 358.0,636.0 L 384.0,633.0" style="stroke:#010101; fill:none;"/>
	<path d="M 424.0,635.0 L 450.0,633.0" style="stroke:#010101; fill:none;"/>
	<path d="M 298.0,642.0 L 318.0,637.0" style="stroke:#010101; fill:none;"/>
	<path d="M 861.0,638.0 C 868.769,640.528 879.954,647.525 888.0,646.0 L 889.0,647.0 L 886.0,648.0" style="stroke:#010101; fill:none;"/>
	<path d="M 320.0,639.0 L 307.0,645.0" style="stroke:#010101; fill:none;"/>
	<path d="M 417.0,639.0 L 422.0,639.0" style="stroke:#010101; fill:none;"/>
	<path d="M 514.0,640.0 L 517.0,657.0" style="stroke:#010101; fill:none;"/>
	<path d="M 857.0,640.0 C 865.014,641.904 885.496,657.402 890.0,647.0" style="stroke:#010101; fill:none;"/>
	<path d="M 444.0,643.0 L 448.0,641.0 L 449.0,642.0 L 392.0,646.0 L 395.0,647.0" style="stroke:#010101; fill:none;"/>
	<path d="M 454.0,641.0 L 458.0,642.0 L 454.0,641.0" style="stroke:#010101; fill:none;"/>
	<path d="M 449.0,642.0 L 453.0,642.0" style="stroke:#010101; fill:none;"/>
	<path d="M 459.0,642.0 L 467.0,643.0" style="stroke:#010101; fill:none;"/>
	<path d="M 503.0,642.0 L 530.0,687.0" style="stroke:#010101; fill:none;"/>
	<path d="M 306.0,644.0 L 304.0,646.0 L 306.0,643.0" style="stroke:#010101; fill:none;"/>
	<path d="M 329.0,647.0 L 324.0,646.0 L 330.0,643.0" style="stroke:#010101; fill:none;"/>
	<path d="M 472.0,643.0 C 483.089,643.329 495.136,654.778 503.0,662.0 L 505.0,660.0 L 493.0,648.0" style="stroke:#010101; fill:none;"/>
	<path d="M 847.0,643.0 C 867.358,644.778 893.764,661.046 909.0,674.0 L 907.0,678.0 L 913.0,682.0 L 900.0,684.0 L 905.0,682.0" style="stroke:#010101; fill:none;"/>
	<path d="M 302.0,644.0 L 298.0,648.0 C 304.28,651.082 317.489,648.216 324.0,646.0 L 321.0,645.0" style="stroke:#010101; fill:none;"/>
	<path d="M 333.0,646.0 L 345.0,644.0" style="stroke:#010101; fill:none;"/>
	<path d="M 383.0,644.0 L 392.0,646.0" style="stroke:#010101; fill:none;"/>
	<path d="M 396.0,645.0 L 400.0,646.0" style="stroke:#010101; fill:none;"/>
	<path d="M 286.0,648.0 L 299.0,645.0" style="stroke:#010101; fill:none;"/>
	<path d="M 885.0,645.0 L 886.0,646.0" style="stroke:#010101; fill:none;"/>
	<path d="M 292.0,649.0 L 297.0,647.0" style="stroke:#010101; fill:none;"/>
	<path d="M 408.0,646.0 L 430.0,648.0" style="stroke:#010101; fill:none;"/>
	<path d="M 294.0,647.0 L 294.0,651.0 L 299.0,650.0" style="stroke:#010101; fill:none;"/>
	<path d="M 320.0,647.0 L 317.0,649.0" style="stroke:#010101; fill:none;"/>
	<path d="M 946.0,683.0 C 946.277,686.236 945.073,686.477 942.0,686.0 L 946.0,681.0 L 927.0,668.667 L 893.0,648.0 L 909.0,653.306 L 940.999,673.001 L 956.0,681.0" style="stroke:#010101; fill:none;"/>
	<path d="M 891.0,648.0 L 893.0,649.0" style="stroke:#010101; fill:none;"/>
	<path d="M 323.0,649.0 C 328.115,649.647 338.225,653.319 342.0,649.0" style="stroke:#010101; fill:none;"/>
	<path d="M 471.0,649.0 L 482.0,654.0 C 479.264,655.396 468.487,654.273 473.0,651.0" style="stroke:#010101; fill:none;"/>
	<path d="M 827.0,649.0 C 848.976,650.749 877.532,663.252 896.0,675.0 C 886.486,677.805 876.65,670.882 868.0,667.45 C 851.09,660.74 830.296,652.788 812.0,652.0" style="stroke:#010101; fill:none;"/>
	<path d="M 845.0,649.0 C 868.545,652.171 885.75,667.945 907.0,676.0" style="stroke:#010101; fill:none;"/>
	<path d="M 893.0,649.0 L 887.0,653.0" style="stroke:#010101; fill:none;"/>
	<path d="M 906.0,649.0 C 920.199,651.097 933.992,660.624 946.0,668.0" style="stroke:#010101; fill:none;"/>
	<path d="M 281.0,650.0 L 293.0,652.0" style="stroke:#010101; fill:none;"/>
	<path d="M 500.0,650.0 C 505.154,655.389 518.332,667.444 514.0,675.0 L 495.0,671.789 L 444.0,660.0" style="stroke:#010101; fill:none;"/>
	<path d="M 456.0,652.0 L 470.0,652.0" style="stroke:#010101; fill:none;"/>
	<path d="M 892.0,651.0 L 896.0,654.0 L 889.0,654.0" style="stroke:#010101; fill:none;"/>
	<path d="M 307.0,652.0 L 400.0,663.0" style="stroke:#010101; fill:none;"/>
	<path d="M 343.0,652.0 L 349.0,651.0" style="stroke:#010101; fill:none;"/>
	<path d="M 275.0,653.0 L 266.0,659.0" style="stroke:#010101; fill:none;"/>
	<path d="M 378.0,653.0 L 380.0,653.0" style="stroke:#010101; fill:none;"/>
	<path d="M 713.0,677.0 C 728.91,666.599 749.021,655.947 768.0,653.0" style="stroke:#010101; fill:none;"/>
	<path d="M 483.0,654.0 C 488.517,658.952 496.351,663.925 504.0,662.0" style="stroke:#010101; fill:none;"/>
	<path d="M 795.0,662.0 L 805.0,662.0 L 781.0,657.804 L 765.0,659.0 L 780.0,654.0" style="stroke:#010101; fill:none;"/>
	<path d="M 859.0,673.0 L 864.0,675.0 L 853.0,676.0 L 853.0,675.0 L 859.0,673.0 L 805.0,656.0 C 811.963,652.834 821.007,656.869 828.0,658.86 C 845.786,663.923 866.673,676.808 885.0,677.0" style="stroke:#010101; fill:none;"/>
	<path d="M 897.0,654.0 L 899.0,656.0 L 896.0,659.0 L 894.0,657.0" style="stroke:#010101; fill:none;"/>
	<path d="M 299.0,655.0 L 300.0,655.0" style="stroke:#010101; fill:none;"/>
	<path d="M 302.0,655.0 C 310.084,661.837 318.897,657.741 328.09,658.691 C 332.384,659.135 333.658,661.944 338.0,660.0 L 325.0,660.0" style="stroke:#010101; fill:none;"/>
	<path d="M 381.0,655.0 L 388.0,655.0" style="stroke:#010101; fill:none;"/>
	<path d="M 400.0,656.0 L 431.0,659.0" style="stroke:#010101; fill:none;"/>
	<path d="M 462.0,656.0 L 466.0,657.0 L 461.0,658.0" style="stroke:#010101; fill:none;"/>
	<path d="M 524.0,656.0 L 531.0,675.0 L 522.0,662.0" style="stroke:#010101; fill:none;"/>
	<path d="M 797.0,656.0 L 805.0,656.0" style="stroke:#010101; fill:none;"/>
	<path d="M 900.0,656.0 L 897.0,659.0" style="stroke:#010101; fill:none;"/>
	<path d="M 388.0,657.0 L 457.0,666.0" style="stroke:#010101; fill:none;"/>
	<path d="M 466.0,657.0 C 475.495,660.739 485.172,663.842 495.0,666.719 C 499.045,667.903 505.128,668.92 505.0,663.0" style="stroke:#010101; fill:none;"/>
	<path d="M 482.0,657.0 L 484.0,657.0" style="stroke:#010101; fill:none;"/>
	<path d="M 902.0,657.0 L 904.0,659.0 L 901.0,662.0 L 899.0,660.0" style="stroke:#010101; fill:none;"/>
	<path d="M 784.0,658.0 L 777.0,662.0 L 786.0,666.0 C 768.819,672.436 746.208,677.546 728.0,680.0" style="stroke:#010101; fill:none;"/>
	<path d="M 271.0,659.0 L 304.0,659.0" style="stroke:#010101; fill:none;"/>
	<path d="M 742.0,661.0 L 745.0,660.0" style="stroke:#010101; fill:none;"/>
	<path d="M 724.0,677.0 L 765.0,659.0" style="stroke:#010101; fill:none;"/>
	<path d="M 905.0,659.0 C 912.878,665.715 930.245,683.809 941.0,680.0" style="stroke:#010101; fill:none;"/>
	<path d="M 338.0,660.0 L 377.0,665.0" style="stroke:#010101; fill:none;"/>
	<path d="M 466.0,660.0 L 469.0,659.0" style="stroke:#010101; fill:none;"/>
	<path d="M 505.0,660.0 L 507.0,662.0" style="stroke:#010101; fill:none;"/>
	<path d="M 695.0,679.0 C 705.678,671.014 723.757,661.985 737.0,660.0" style="stroke:#010101; fill:none;"/>
	<path d="M 259.0,661.0 L 247.0,672.0" style="stroke:#010101; fill:none;"/>
	<path d="M 262.0,661.0 C 276.226,668.592 301.175,665.0 317.0,665.0" style="stroke:#010101; fill:none;"/>
	<path d="M 277.0,661.0 L 278.0,661.0" style="stroke:#010101; fill:none;"/>
	<path d="M 766.0,661.0 L 735.0,675.0" style="stroke:#010101; fill:none;"/>
	<path d="M 786.0,661.0 L 790.0,661.0" style="stroke:#010101; fill:none;"/>
	<path d="M 800.0,661.0 L 800.0,663.0" style="stroke:#010101; fill:none;"/>
	<path d="M 907.0,661.0 L 902.0,662.0" style="stroke:#010101; fill:none;"/>
	<path d="M 774.0,662.0 L 777.0,662.0" style="stroke:#010101; fill:none;"/>
	<path d="M 791.0,662.0 L 795.0,662.0" style="stroke:#010101; fill:none;"/>
	<path d="M 805.0,662.0 L 808.0,663.0 L 804.0,664.0" style="stroke:#010101; fill:none;"/>
	<path d="M 531.0,663.0 L 536.0,674.0 L 537.0,671.0" style="stroke:#010101; fill:none;"/>
	<path d="M 808.0,663.0 L 823.0,668.0 L 807.0,672.904 L 759.0,687.0" style="stroke:#010101; fill:none;"/>
	<path d="M 337.0,664.0 L 354.0,666.0" style="stroke:#010101; fill:none;"/>
	<path d="M 506.0,664.0 L 508.0,666.0 L 503.0,670.0" style="stroke:#010101; fill:none;"/>
	<path d="M 511.0,664.0 L 509.0,666.0" style="stroke:#010101; fill:none;"/>
	<path d="M 807.0,664.0 L 815.0,666.0" style="stroke:#010101; fill:none;"/>
	<path d="M 813.0,664.0 L 811.0,666.0" style="stroke:#010101; fill:none;"/>
	<path d="M 905.0,664.0 L 922.0,676.0 L 911.0,679.0" style="stroke:#010101; fill:none;"/>
	<path d="M 503.0,665.0 L 504.0,665.0" style="stroke:#010101; fill:none;"/>
	<path d="M 510.0,665.0 L 512.0,667.0" style="stroke:#010101; fill:none;"/>
	<path d="M 786.0,666.0 C 790.01,666.221 792.538,666.679 793.0,671.0 L 811.0,667.0" style="stroke:#010101; fill:none;"/>
	<path d="M 512.0,668.0 L 508.0,671.0" style="stroke:#010101; fill:none;"/>
	<path d="M 262.333,668.667 L 262.667,669.333 L 262.333,668.667" style="stroke:#010101; fill:none;"/>
	<path d="M 507.0,668.0 L 509.0,670.0" style="stroke:#010101; fill:none;"/>
	<path d="M 512.0,668.0 L 515.0,671.0" style="stroke:#010101; fill:none;"/>
	<path d="M 794.0,668.0 L 798.0,669.0" style="stroke:#010101; fill:none;"/>
	<path d="M 823.0,668.0 L 840.0,671.0 L 840.0,676.0 L 847.0,674.0 L 840.0,673.0" style="stroke:#010101; fill:none;"/>
	<path d="M 258.0,669.0 L 261.0,669.0" style="stroke:#010101; fill:none;"/>
	<path d="M 264.0,669.0 L 287.0,671.0 L 274.0,673.0" style="stroke:#010101; fill:none;"/>
	<path d="M 287.0,671.0 L 302.0,669.0" style="stroke:#010101; fill:none;"/>
	<path d="M 792.0,672.0 L 788.0,670.0 L 793.0,669.0" style="stroke:#010101; fill:none;"/>
	<path d="M 829.0,669.0 L 833.0,671.0" style="stroke:#010101; fill:none;"/>
	<path d="M 789.0,672.0 L 783.0,671.0 L 788.0,670.0" style="stroke:#010101; fill:none;"/>
	<path d="M 806.0,670.0 L 808.0,672.0" style="stroke:#010101; fill:none;"/>
	<path d="M 837.0,670.0 L 838.0,673.0" style="stroke:#010101; fill:none;"/>
	<path d="M 504.0,673.0 L 508.0,671.0" style="stroke:#010101; fill:none;"/>
	<path d="M 743.0,681.0 L 783.0,671.0" style="stroke:#010101; fill:none;"/>
	<path d="M 841.0,671.0 L 842.0,672.0" style="stroke:#010101; fill:none;"/>
	<path d="M 834.0,672.0 C 831.852,676.527 835.008,677.058 839.0,676.0" style="stroke:#010101; fill:none;"/>
	<path d="M 718.0,673.0 L 719.0,674.0" style="stroke:#010101; fill:none;"/>
	<path d="M 934.0,673.0 L 930.0,675.0" style="stroke:#010101; fill:none;"/>
	<path d="M 518.0,674.0 L 522.0,684.0" style="stroke:#010101; fill:none;"/>
	<path d="M 536.0,674.0 L 538.0,678.0 L 537.0,674.0" style="stroke:#010101; fill:none;"/>
	<path d="M 750.0,683.0 L 784.0,673.0" style="stroke:#010101; fill:none;"/>
	<path d="M 817.0,674.0 L 831.0,675.0" style="stroke:#010101; fill:none;"/>
	<path d="M 848.0,674.0 L 853.0,675.0" style="stroke:#010101; fill:none;"/>
	<path d="M 872.0,674.0 L 871.0,678.0 L 877.0,677.0" style="stroke:#010101; fill:none;"/>
	<path d="M 903.0,674.0 C 899.955,678.687 897.558,679.934 892.0,680.0 L 889.0,686.0" style="stroke:#010101; fill:none;"/>
	<path d="M 910.0,674.0 L 917.0,674.0" style="stroke:#010101; fill:none;"/>
	<path d="M 865.0,675.0 L 870.0,676.0" style="stroke:#010101; fill:none;"/>
	<path d="M 897.0,675.0 L 901.0,676.0" style="stroke:#010101; fill:none;"/>
	<path d="M 532.0,676.0 L 536.0,687.0" style="stroke:#010101; fill:none;"/>
	<path d="M 810.0,676.0 L 794.0,680.0" style="stroke:#010101; fill:none;"/>
	<path d="M 811.0,677.0 L 816.0,676.0" style="stroke:#010101; fill:none;"/>
	<path d="M 845.0,676.0 C 847.427,678.761 850.045,677.573 853.0,676.0" style="stroke:#010101; fill:none;"/>
	<path d="M 925.0,676.0 L 927.0,687.0 L 942.0,686.0" style="stroke:#010101; fill:none;"/>
	<path d="M 346.0,695.0 C 398.833,674.503 475.012,660.733 517.424,708.996 C 526.468,719.287 536.331,729.356 537.0,744.0" style="stroke:#010101; fill:none;"/>
	<path d="M 518.0,677.0 L 519.0,679.0" style="stroke:#010101; fill:none;"/>
	<path d="M 838.0,677.0 L 844.0,679.0" style="stroke:#010101; fill:none;"/>
	<path d="M 870.0,677.0 L 847.0,683.0" style="stroke:#010101; fill:none;"/>
	<path d="M 801.0,678.0 L 802.0,678.0" style="stroke:#010101; fill:none;"/>
	<path d="M 815.0,680.0 L 832.0,677.0" style="stroke:#010101; fill:none;"/>
	<path d="M 539.0,679.0 L 539.0,682.0" style="stroke:#010101; fill:none;"/>
	<path d="M 797.0,679.0 L 798.0,679.0" style="stroke:#010101; fill:none;"/>
	<path d="M 903.0,679.0 L 906.0,679.0" style="stroke:#010101; fill:none;"/>
	<path d="M 948.0,679.0 L 946.0,681.0" style="stroke:#010101; fill:none;"/>
	<path d="M 830.0,681.0 L 839.0,679.0" style="stroke:#010101; fill:none;"/>
	<path d="M 931.0,680.0 L 926.0,681.0" style="stroke:#010101; fill:none;"/>
	<path d="M 772.0,687.0 L 792.0,681.0" style="stroke:#010101; fill:none;"/>
	<path d="M 892.0,685.0 L 884.0,683.0 L 891.0,681.0" style="stroke:#010101; fill:none;"/>
	<path d="M 884.0,683.0 L 877.0,684.0 L 884.0,682.0" style="stroke:#010101; fill:none;"/>
	<path d="M 913.0,683.0 L 925.0,682.0" style="stroke:#010101; fill:none;"/>
	<path d="M 929.0,682.0 L 929.0,685.0" style="stroke:#010101; fill:none;"/>
	<path d="M 938.0,682.0 L 938.0,685.0" style="stroke:#010101; fill:none;"/>
	<path d="M 873.0,685.0 L 871.0,684.0 L 876.0,685.0" style="stroke:#010101; fill:none;"/>
	<path d="M 875.0,683.0 L 877.0,683.0" style="stroke:#010101; fill:none;"/>
	<path d="M 893.0,683.0 L 899.0,684.0 L 893.0,686.0" style="stroke:#010101; fill:none;"/>
	<path d="M 913.0,683.0 C 916.493,686.36 919.003,688.804 924.0,688.0 L 918.0,687.0" style="stroke:#010101; fill:none;"/>
	<path d="M 917.0,683.0 L 917.0,685.0" style="stroke:#010101; fill:none;"/>
	<path d="M 949.0,686.0 L 960.0,683.0" style="stroke:#010101; fill:none;"/>
	<path d="M 544.0,684.0 L 544.0,685.0" style="stroke:#010101; fill:none;"/>
	<path d="M 862.0,684.0 L 871.0,684.0" style="stroke:#010101; fill:none;"/>
	<path d="M 951.0,686.0 L 963.0,686.0" style="stroke:#010101; fill:none;"/>
	<path d="M 900.0,688.0 L 915.0,688.0 L 893.0,691.0" style="stroke:#010101; fill:none;"/>
	<path d="M 924.0,688.0 L 926.0,688.0" style="stroke:#010101; fill:none;"/>
	<path d="M 930.0,688.0 L 934.0,687.0" style="stroke:#010101; fill:none;"/>
	<path d="M 893.0,689.0 L 898.0,689.0" style="stroke:#010101; fill:none;"/>
	<path d="M 528.0,691.0 C 547.148,704.087 565.94,737.836 552.0,760.0" style="stroke:#010101; fill:none;"/>
	<path d="M 905.0,695.0 C 920.3,690.477 940.078,692.0 956.0,692.0" style="stroke:#010101; fill:none;"/>
	<path d="M 390.0,708.0 L 386.0,710.0 C 395.001,707.659 401.875,698.994 410.209,695.613 C 418.126,692.402 435.076,694.416 443.0,697.0 L 434.0,703.0" style="stroke:#010101; fill:none;"/>
	<path d="M 921.0,697.0 L 961.0,695.0" style="stroke:#010101; fill:none;"/>
	<path d="M 399.0,701.0 C 400.404,696.755 403.898,696.533 408.0,696.0" style="stroke:#010101; fill:none;"/>
	<path d="M 430.0,696.0 L 425.0,702.0" style="stroke:#010101; fill:none;"/>
	<path d="M 678.0,740.0 C 684.661,715.646 706.137,709.592 728.0,704.127 C 740.807,700.925 753.748,696.998 767.0,696.089 C 785.401,694.828 805.974,699.476 824.0,703.155 C 840.521,706.527 853.995,707.739 868.0,718.0 L 858.0,723.0 C 868.486,735.008 891.001,730.0 905.0,730.0" style="stroke:#010101; fill:none;"/>
	<path d="M 416.0,697.0 L 406.0,705.0" style="stroke:#010101; fill:none;"/>
	<path d="M 435.0,697.0 L 434.0,701.0" style="stroke:#010101; fill:none;"/>
	<path d="M 443.0,697.0 C 450.558,697.664 468.19,703.657 469.0,712.0" style="stroke:#010101; fill:none;"/>
	<path d="M 788.0,697.0 L 789.0,698.0" style="stroke:#010101; fill:none;"/>
	<path d="M 385.0,711.0 L 367.0,712.0 C 375.484,705.152 388.423,700.436 399.0,698.0" style="stroke:#010101; fill:none;"/>
	<path d="M 788.0,699.0 C 788.412,704.288 791.043,705.313 796.0,706.0 L 796.0,699.0" style="stroke:#010101; fill:none;"/>
	<path d="M 936.0,700.0 L 953.0,699.0" style="stroke:#010101; fill:none;"/>
	<path d="M 775.0,700.0 L 776.0,705.0 C 766.565,710.769 757.403,715.384 748.0,720.373 C 742.795,723.134 739.19,727.135 733.0,726.0" style="stroke:#010101; fill:none;"/>
	<path d="M 394.0,701.0 L 396.0,703.0" style="stroke:#010101; fill:none;"/>
	<path d="M 804.0,702.0 C 804.637,713.704 821.476,717.227 824.0,704.0" style="stroke:#010101; fill:none;"/>
	<path d="M 813.0,702.0 L 812.0,709.0" style="stroke:#010101; fill:none;"/>
	<path d="M 316.0,705.0 L 327.0,704.0" style="stroke:#010101; fill:none;"/>
	<path d="M 459.0,704.0 L 465.0,712.0" style="stroke:#010101; fill:none;"/>
	<path d="M 776.0,705.0 L 787.0,705.0" style="stroke:#010101; fill:none;"/>
	<path d="M 439.0,714.0 C 432.415,730.772 415.444,721.418 420.0,706.0 C 423.972,710.459 431.878,718.006 438.0,711.0" style="stroke:#010101; fill:none;"/>
	<path d="M 475.0,706.0 C 474.656,716.761 494.75,720.984 500.0,730.0 L 500.0,732.0 L 501.0,731.0" style="stroke:#010101; fill:none;"/>
	<path d="M 834.0,706.0 C 833.819,711.74 837.811,713.766 842.0,717.0 L 837.0,722.0 L 826.0,716.0 L 826.0,718.0 L 829.0,717.0" style="stroke:#010101; fill:none;"/>
	<path d="M 395.0,707.0 C 394.344,715.325 394.413,723.542 399.214,730.911 C 418.45,760.434 464.137,740.056 458.0,707.0" style="stroke:#010101; fill:none;"/>
	<path d="M 797.0,707.0 L 803.0,707.0" style="stroke:#010101; fill:none;"/>
	<path d="M 470.0,709.0 L 474.0,709.0" style="stroke:#010101; fill:none;"/>
	<path d="M 680.0,709.0 C 660.55,728.45 658.922,741.886 661.0,768.0" style="stroke:#010101; fill:none;"/>
	<path d="M 833.0,710.0 L 827.0,715.0" style="stroke:#010101; fill:none;"/>
	<path d="M 763.0,713.0 C 760.445,719.816 756.694,727.493 757.329,735.0 C 760.535,772.922 822.777,772.892 821.739,734.0 C 821.557,727.174 818.362,720.76 815.0,715.0" style="stroke:#010101; fill:none;"/>
	<path d="M 821.0,713.0 L 826.0,717.0" style="stroke:#010101; fill:none;"/>
	<path d="M 341.0,721.0 C 350.99,720.139 358.653,718.926 367.0,713.0" style="stroke:#010101; fill:none;"/>
	<path d="M 753.0,717.0 L 758.0,714.0" style="stroke:#010101; fill:none;"/>
	<path d="M 744.0,715.0 L 748.0,720.0" style="stroke:#010101; fill:none;"/>
	<path d="M 739.0,716.0 L 743.0,723.0" style="stroke:#010101; fill:none;"/>
	<path d="M 755.0,716.0 L 757.0,719.0" style="stroke:#010101; fill:none;"/>
	<path d="M 838.0,717.0 L 841.0,719.0" style="stroke:#010101; fill:none;"/>
	<path d="M 843.0,717.0 C 847.219,721.936 851.691,722.947 858.0,723.0" style="stroke:#010101; fill:none;"/>
	<path d="M 524.0,718.0 L 525.0,719.0" style="stroke:#010101; fill:none;"/>
	<path d="M 869.0,718.0 L 882.0,727.0" style="stroke:#010101; fill:none;"/>
	<path d="M 372.0,719.0 L 363.0,724.0 C 378.623,746.179 405.485,756.726 432.0,754.911 C 443.586,754.117 454.578,750.416 466.0,749.174 C 481.407,747.498 498.131,749.518 513.0,745.0 L 502.0,731.0" style="stroke:#010101; fill:none;"/>
	<path d="M 525.0,719.0 L 527.0,724.0" style="stroke:#010101; fill:none;"/>
	<path d="M 757.0,719.0 L 759.0,721.0" style="stroke:#010101; fill:none;"/>
	<path d="M 827.0,720.0 C 830.441,722.072 832.294,722.646 836.0,721.0" style="stroke:#010101; fill:none;"/>
	<path d="M 842.0,720.0 L 843.0,720.0" style="stroke:#010101; fill:none;"/>
	<path d="M 223.0,721.0 C 219.361,739.766 215.543,757.759 216.015,777.0 C 216.402,792.83 220.798,807.701 217.0,823.0" style="stroke:#010101; fill:none;"/>
	<path d="M 838.0,721.0 C 842.885,725.885 851.356,731.984 853.099,739.0 C 856.22,751.562 831.547,765.366 822.0,768.447 C 800.541,775.372 772.09,769.522 751.0,763.572 C 743.142,761.354 734.149,758.462 731.032,750.0 C 729.816,746.697 732.782,735.806 730.361,734.327 C 725.671,731.463 725.027,740.69 725.0,743.0" style="stroke:#010101; fill:none;"/>
	<path d="M 349.0,724.0 L 363.0,724.0" style="stroke:#010101; fill:none;"/>
	<path d="M 797.0,724.0 C 800.845,733.949 795.054,745.738 783.04,738.86 C 780.892,737.631 775.536,732.711 778.658,730.042 C 783.621,725.8 790.559,733.469 796.0,727.0" style="stroke:#010101; fill:none;"/>
	<path d="M 488.0,725.0 L 482.0,746.0" style="stroke:#010101; fill:none;"/>
	<path d="M 498.0,728.0 L 498.0,730.0" style="stroke:#010101; fill:none;"/>
	<path d="M 852.0,728.0 L 868.0,737.0 L 859.0,739.0" style="stroke:#010101; fill:none;"/>
	<path d="M 920.0,729.0 L 924.0,728.0" style="stroke:#010101; fill:none;"/>
	<path d="M 729.0,733.0 L 733.0,733.0" style="stroke:#010101; fill:none;"/>
	<path d="M 357.0,732.0 L 359.0,733.0" style="stroke:#010101; fill:none;"/>
	<path d="M 500.0,732.0 L 502.0,737.0" style="stroke:#010101; fill:none;"/>
	<path d="M 714.0,751.0 C 709.707,742.246 717.41,740.033 724.0,736.0" style="stroke:#010101; fill:none;"/>
	<path d="M 868.0,737.0 L 892.0,740.0" style="stroke:#010101; fill:none;"/>
	<path d="M 348.0,738.0 L 349.0,741.0" style="stroke:#010101; fill:none;"/>
	<path d="M 867.0,741.0 L 869.0,742.0" style="stroke:#010101; fill:none;"/>
	<path d="M 499.0,743.0 L 502.0,742.0" style="stroke:#010101; fill:none;"/>
	<path d="M 691.0,760.0 C 697.206,753.618 701.536,745.831 711.0,744.0" style="stroke:#010101; fill:none;"/>
	<path d="M 859.0,746.0 L 872.0,752.0" style="stroke:#010101; fill:none;"/>
	<path d="M 374.0,751.0 L 377.0,750.0" style="stroke:#010101; fill:none;"/>
	<path d="M 506.0,750.0 C 513.397,750.067 517.605,752.783 520.0,760.0" style="stroke:#010101; fill:none;"/>
	<path d="M 863.0,751.0 L 876.0,759.0" style="stroke:#010101; fill:none;"/>
	<path d="M 383.0,757.0 L 386.0,755.0" style="stroke:#010101; fill:none;"/>
	<path d="M 695.0,759.0 L 734.0,757.0" style="stroke:#010101; fill:none;"/>
	<path d="M 353.0,757.0 L 370.0,779.0" style="stroke:#010101; fill:none;"/>
	<path d="M 853.0,759.0 L 868.0,758.0" style="stroke:#010101; fill:none;"/>
	<path d="M 392.0,758.0 L 389.0,761.0" style="stroke:#010101; fill:none;"/>
	<path d="M 397.0,759.0 L 396.0,760.0" style="stroke:#010101; fill:none;"/>
	<path d="M 735.0,759.0 L 736.0,759.0" style="stroke:#010101; fill:none;"/>
	<path d="M 407.0,760.0 L 404.0,767.0" style="stroke:#010101; fill:none;"/>
	<path d="M 442.0,760.0 L 445.0,770.0" style="stroke:#010101; fill:none;"/>
	<path d="M 454.0,760.0 L 457.0,764.0" style="stroke:#010101; fill:none;"/>
	<path d="M 458.0,760.0 L 459.0,761.0" style="stroke:#010101; fill:none;"/>
	<path d="M 398.0,765.0 L 402.0,761.0" style="stroke:#010101; fill:none;"/>
	<path d="M 437.0,761.0 L 442.0,772.0" style="stroke:#010101; fill:none;"/>
	<path d="M 452.0,761.0 L 453.0,765.0" style="stroke:#010101; fill:none;"/>
	<path d="M 417.0,762.0 L 416.0,772.0" style="stroke:#010101; fill:none;"/>
	<path d="M 433.0,762.0 L 433.0,768.0" style="stroke:#010101; fill:none;"/>
	<path d="M 850.0,763.0 L 859.0,766.0" style="stroke:#010101; fill:none;"/>
	<path d="M 420.0,763.0 L 422.0,777.0" style="stroke:#010101; fill:none;"/>
	<path d="M 429.0,763.0 L 429.0,769.0" style="stroke:#010101; fill:none;"/>
	<path d="M 425.0,764.0 L 424.0,771.0" style="stroke:#010101; fill:none;"/>
	<path d="M 838.0,782.0 L 834.0,772.0 C 839.885,769.645 841.498,776.101 842.0,781.0" style="stroke:#010101; fill:none;"/>
	<path d="M 857.0,775.0 L 857.0,780.0" style="stroke:#010101; fill:none;"/>
	<path d="M 811.0,776.0 C 814.933,778.349 816.649,780.378 817.0,785.0" style="stroke:#010101; fill:none;"/>
	<path d="M 824.0,777.0 C 831.457,777.269 834.184,784.059 837.0,790.0" style="stroke:#010101; fill:none;"/>
	<path d="M 774.0,777.0 L 775.0,783.0" style="stroke:#010101; fill:none;"/>
	<path d="M 783.0,777.0 L 785.0,784.0" style="stroke:#010101; fill:none;"/>
	<path d="M 802.0,777.0 C 806.291,782.244 806.835,786.413 806.0,793.0" style="stroke:#010101; fill:none;"/>
	<path d="M 804.0,778.0 C 807.542,778.677 808.295,780.542 809.0,784.0" style="stroke:#010101; fill:none;"/>
	<path d="M 794.0,778.0 C 797.189,780.865 799.287,782.69 798.0,787.0 L 797.0,783.0" style="stroke:#010101; fill:none;"/>
	<path d="M 819.0,778.0 C 824.215,780.026 829.344,781.805 832.0,787.0" style="stroke:#010101; fill:none;"/>
	<path d="M 372.0,780.0 L 375.0,783.0" style="stroke:#010101; fill:none;"/>
	<path d="M 790.0,780.0 L 790.0,787.0" style="stroke:#010101; fill:none;"/>
	<path d="M 781.0,781.0 L 782.0,785.0" style="stroke:#010101; fill:none;"/>
	<path d="M 800.0,782.0 L 806.0,788.0" style="stroke:#010101; fill:none;"/>
	<path d="M 856.0,782.0 L 854.0,789.0" style="stroke:#010101; fill:none;"/>
	<path d="M 798.0,787.0 L 798.0,792.0" style="stroke:#010101; fill:none;"/>
	<path d="M 388.0,790.0 L 396.0,791.0" style="stroke:#010101; fill:none;"/>
	<path d="M 437.0,790.0 L 438.0,790.0" style="stroke:#010101; fill:none;"/>
	<path d="M 759.0,791.0 L 760.0,791.0" style="stroke:#010101; fill:none;"/>
	<path d="M 853.0,791.0 C 846.797,799.136 839.123,803.505 829.0,805.0" style="stroke:#010101; fill:none;"/>
	<path d="M 429.0,792.0 L 431.0,792.0" style="stroke:#010101; fill:none;"/>
	<path d="M 762.0,792.0 L 777.0,796.0" style="stroke:#010101; fill:none;"/>
	<path d="M 780.0,797.0 L 781.0,797.0" style="stroke:#010101; fill:none;"/>
	<path d="M 795.0,802.0 L 803.0,804.0" style="stroke:#010101; fill:none;"/>
	<path d="M 821.0,807.0 L 827.0,806.0" style="stroke:#010101; fill:none;"/>
	<path d="M 221.0,819.0 C 221.521,831.123 231.86,853.346 226.0,864.0 L 227.0,858.0" style="stroke:#010101; fill:none;"/>
	<path d="M 225.0,848.0 L 223.0,861.0" style="stroke:#010101; fill:none;"/>
	<path d="M 229.0,863.0 L 233.0,882.0" style="stroke:#010101; fill:none;"/>
	<path d="M 241.0,867.0 L 241.0,868.0" style="stroke:#010101; fill:none;"/>
	<path d="M 242.0,871.0 L 243.0,879.0" style="stroke:#010101; fill:none;"/>
	<path d="M 244.0,882.0 L 244.0,885.0" style="stroke:#010101; fill:none;"/>
	<path d="M 671.0,882.0 L 680.0,895.0" style="stroke:#010101; fill:none;"/>
	<path d="M 234.0,886.0 L 236.0,920.0" style="stroke:#010101; fill:none;"/>
	<path d="M 245.0,887.0 L 257.92,961.0 L 270.0,1026.0" style="stroke:#010101; fill:none;"/>
	<path d="M 511.0,896.0 C 506.118,908.876 494.672,918.326 494.0,933.0" style="stroke:#010101; fill:none;"/>
	<path d="M 665.0,899.0 C 678.516,917.072 669.071,935.556 654.0,949.0" style="stroke:#010101; fill:none;"/>
	<path d="M 682.0,903.0 C 695.929,924.051 703.573,945.031 692.219,969.0 C 687.147,979.707 678.333,988.435 666.0,989.0" style="stroke:#010101; fill:none;"/>
	<path d="M 235.0,931.0 C 235.0,963.849 236.559,996.622 242.805,1029.0 C 246.289,1047.06 252.572,1064.17 256.767,1081.99 C 257.749,1086.15 255.785,1089.76 257.0,1094.0 L 259.0,1088.0" style="stroke:#010101; fill:none;"/>
	<path d="M 531.0,951.0 C 542.657,948.225 556.847,952.786 561.0,965.0" style="stroke:#010101; fill:none;"/>
	<path d="M 647.0,950.0 C 646.001,959.196 637.79,964.358 630.0,968.0" style="stroke:#010101; fill:none;"/>
	<path d="M 514.0,966.0 C 526.801,966.0 536.889,966.503 548.0,973.699 C 557.958,980.149 563.899,990.126 576.0,993.0" style="stroke:#010101; fill:none;"/>
	<path d="M 608.0,996.0 C 622.954,989.741 632.467,974.905 648.0,969.901 C 652.896,968.324 675.646,967.052 665.0,976.0" style="stroke:#010101; fill:none;"/>
	<path d="M 524.0,970.0 L 529.0,976.0" style="stroke:#010101; fill:none;"/>
	<path d="M 626.0,973.0 C 623.093,978.03 617.869,979.642 613.0,982.427 C 593.591,993.53 579.416,992.921 565.0,974.0" style="stroke:#010101; fill:none;"/>
	<path d="M 952.0,978.0 C 951.936,1001.04 943.427,1025.75 937.873,1048.0 C 928.555,1085.33 918.795,1120.33 901.574,1154.91 C 875.214,1207.85 831.761,1251.13 794.414,1296.0 C 765.7,1330.5 736.788,1361.9 699.0,1386.09 C 689.966,1391.87 681.211,1399.83 671.0,1403.45 C 655.52,1408.94 638.007,1406.4 622.0,1408.29 C 593.741,1411.62 566.142,1412.3 538.0,1406.55 C 443.123,1387.16 380.017,1305.52 330.947,1228.0 C 323.027,1215.49 315.794,1202.37 307.755,1190.0 C 293.755,1168.46 275.414,1145.23 272.0,1119.0" style="stroke:#010101; fill:none;"/>
	<path d="M 542.0,981.0 L 551.0,984.0" style="stroke:#010101; fill:none;"/>
	<path d="M 641.0,986.0 L 651.0,984.0" style="stroke:#010101; fill:none;"/>
	<path d="M 645.0,1003.0 L 662.0,992.0" style="stroke:#010101; fill:none;"/>
	<path d="M 556.0,1012.0 L 557.0,1012.0" style="stroke:#010101; fill:none;"/>
	<path d="M 549.0,1014.0 L 550.0,1015.0" style="stroke:#010101; fill:none;"/>
	<path d="M 556.0,1018.0 L 554.0,1019.0" style="stroke:#010101; fill:none;"/>
	<path d="M 615.0,1021.0 L 621.0,1023.0" style="stroke:#010101; fill:none;"/>
	<path d="M 547.0,1022.0 L 547.0,1024.0" style="stroke:#010101; fill:none;"/>
	<path d="M 655.0,1022.0 L 656.0,1022.0" style="stroke:#010101; fill:none;"/>
	<path d="M 655.0,1026.0 L 658.0,1026.0" style="stroke:#010101; fill:none;"/>
	<path d="M 595.0,1027.0 L 595.0,1030.0 L 592.0,1029.0" style="stroke:#010101; fill:none;"/>
	<path d="M 270.0,1028.0 L 270.0,1030.0" style="stroke:#010101; fill:none;"/>
	<path d="M 642.0,1028.0 L 643.0,1028.0" style="stroke:#010101; fill:none;"/>
	<path d="M 551.0,1029.0 L 552.0,1029.0" style="stroke:#010101; fill:none;"/>
	<path d="M 595.0,1030.0 L 598.0,1033.0" style="stroke:#010101; fill:none;"/>
	<path d="M 542.0,1032.0 L 543.0,1032.0" style="stroke:#010101; fill:none;"/>
	<path d="M 927.0,1033.0 L 927.0,1034.0" style="stroke:#010101; fill:none;"/>
	<path d="M 535.0,1041.0 L 536.0,1041.0" style="stroke:#010101; fill:none;"/>
	<path d="M 629.0,1044.0 L 630.0,1044.0" style="stroke:#010101; fill:none;"/>
	<path d="M 630.0,1048.0 L 631.0,1049.0" style="stroke:#010101; fill:none;"/>
	<path d="M 646.0,1048.0 L 647.0,1048.0" style="stroke:#010101; fill:none;"/>
	<path d="M 688.0,1050.0 L 688.0,1051.0" style="stroke:#010101; fill:none;"/>
	<path d="M 247.0,1051.0 L 245.0,1060.0" style="stroke:#010101; fill:none;"/>
	<path d="M 521.0,1052.0 L 520.0,1053.0" style="stroke:#010101; fill:none;"/>
	<path d="M 906.0,1053.0 L 906.0,1054.0" style="stroke:#010101; fill:none;"/>
	<path d="M 432.0,1056.0 L 434.0,1055.0" style="stroke:#010101; fill:none;"/>
	<path d="M 497.0,1056.0 L 497.0,1057.0" style="stroke:#010101; fill:none;"/>
	<path d="M 445.0,1058.0 L 442.0,1062.0" style="stroke:#010101; fill:none;"/>
	<path d="M 696.0,1058.0 L 698.0,1058.0" style="stroke:#010101; fill:none;"/>
	<path d="M 529.0,1059.0 L 529.0,1060.0" style="stroke:#010101; fill:none;"/>
	<path d="M 675.0,1061.0 L 677.0,1060.0" style="stroke:#010101; fill:none;"/>
	<path d="M 715.0,1064.0 L 716.0,1064.0" style="stroke:#010101; fill:none;"/>
	<path d="M 744.0,1065.0 L 747.0,1064.0" style="stroke:#010101; fill:none;"/>
	<path d="M 902.0,1067.0 L 903.0,1068.0" style="stroke:#010101; fill:none;"/>
	<path d="M 713.0,1076.0 L 714.0,1076.0" style="stroke:#010101; fill:none;"/>
	<path d="M 432.0,1079.0 L 429.0,1086.0" style="stroke:#010101; fill:none;"/>
	<path d="M 760.0,1079.0 L 761.0,1081.0" style="stroke:#010101; fill:none;"/>
	<path d="M 897.0,1080.0 L 898.0,1080.0" style="stroke:#010101; fill:none;"/>
	<path d="M 256.0,1081.0 L 256.0,1087.0" style="stroke:#010101; fill:none;"/>
	<path d="M 754.0,1081.0 L 754.0,1082.0" style="stroke:#010101; fill:none;"/>
	<path d="M 472.0,1114.0 C 492.294,1104.51 518.282,1092.07 541.0,1091.04 C 559.361,1090.21 575.878,1097.97 594.0,1096.96 C 608.283,1096.16 619.08,1084.54 633.0,1083.2 C 641.511,1082.38 650.393,1087.61 658.0,1090.71 C 675.238,1097.74 695.741,1102.14 711.0,1113.0" style="stroke:#010101; fill:none;"/>
	<path d="M 889.0,1083.0 L 891.0,1083.0" style="stroke:#010101; fill:none;"/>
	<path d="M 745.0,1084.0 L 746.0,1084.0" style="stroke:#010101; fill:none;"/>
	<path d="M 434.0,1085.0 L 435.0,1086.0" style="stroke:#010101; fill:none;"/>
	<path d="M 445.0,1085.0 L 446.0,1085.0" style="stroke:#010101; fill:none;"/>
	<path d="M 420.0,1089.0 L 420.0,1091.0" style="stroke:#010101; fill:none;"/>
	<path d="M 259.0,1092.0 L 269.0,1112.0" style="stroke:#010101; fill:none;"/>
	<path d="M 257.0,1094.0 L 257.0,1098.0" style="stroke:#010101; fill:none;"/>
	<path d="M 753.0,1099.0 L 753.0,1100.0" style="stroke:#010101; fill:none;"/>
	<path d="M 785.0,1100.0 C 787.158,1100.98 787.501,1101.19 786.0,1103.0" style="stroke:#010101; fill:none;"/>
	<path d="M 767.0,1111.0 L 767.0,1112.0" style="stroke:#010101; fill:none;"/>
	<path d="M 782.0,1121.0 L 784.0,1123.0" style="stroke:#010101; fill:none;"/>
	<path d="M 853.0,1127.0 L 854.0,1127.0" style="stroke:#010101; fill:none;"/>
	<path d="M 455.0,1132.0 C 464.054,1129.87 475.792,1134.77 485.0,1136.39 C 491.484,1137.52 497.534,1136.08 504.0,1136.0 C 516.491,1135.86 530.438,1138.27 542.0,1132.0 L 539.0,1131.0" style="stroke:#010101; fill:none;"/>
	<path d="M 542.0,1132.0 C 568.758,1132.55 595.088,1133.64 622.0,1132.99 C 636.721,1132.62 651.115,1130.0 666.0,1131.09 C 674.32,1131.7 681.858,1135.53 690.0,1136.7 C 702.769,1138.54 722.006,1125.19 732.0,1136.0" style="stroke:#010101; fill:none;"/>
	<path d="M 279.0,1148.0 C 279.355,1165.19 283.729,1182.74 284.91,1200.0 C 287.72,1241.02 287.0,1281.03 287.0,1322.0 C 287.0,1336.05 287.769,1350.01 288.003,1364.0 C 288.114,1370.66 290.517,1376.03 285.0,1381.0 C 281.047,1369.32 281.752,1357.03 282.0,1345.0" style="stroke:#010101; fill:none;"/>
	<path d="M 901.0,1157.0 C 905.508,1163.34 903.0,1173.42 903.0,1181.0 C 902.999,1202.15 906.004,1225.35 902.0,1246.0" style="stroke:#010101; fill:none;"/>
	<path d="M 915.0,1159.0 L 904.0,1170.0" style="stroke:#010101; fill:none;"/>
	<path d="M 850.0,1162.0 L 849.0,1163.0" style="stroke:#010101; fill:none;"/>
	<path d="M 801.0,1173.0 L 801.0,1174.0" style="stroke:#010101; fill:none;"/>
	<path d="M 372.0,1174.0 L 372.0,1176.0" style="stroke:#010101; fill:none;"/>
	<path d="M 514.0,1176.0 C 530.124,1180.31 548.152,1184.64 565.0,1183.9 C 573.76,1183.51 582.202,1180.13 591.0,1180.02 C 602.46,1179.87 613.41,1183.72 625.0,1182.91 C 632.473,1182.39 639.538,1179.34 647.0,1179.0" style="stroke:#010101; fill:none;"/>
	<path d="M 806.0,1177.0 L 808.0,1178.0" style="stroke:#010101; fill:none;"/>
	<path d="M 368.0,1178.0 L 371.0,1181.0" style="stroke:#010101; fill:none;"/>
	<path d="M 811.0,1185.0 L 814.0,1185.0" style="stroke:#010101; fill:none;"/>
	<path d="M 358.0,1188.0 L 362.0,1189.0" style="stroke:#010101; fill:none;"/>
	<path d="M 338.0,1189.0 L 339.0,1189.0" style="stroke:#010101; fill:none;"/>
	<path d="M 870.0,1190.0 L 871.0,1191.0" style="stroke:#010101; fill:none;"/>
	<path d="M 330.0,1191.0 L 333.0,1191.0" style="stroke:#010101; fill:none;"/>
	<path d="M 865.0,1194.0 L 867.0,1194.0" style="stroke:#010101; fill:none;"/>
	<path d="M 374.0,1195.0 L 374.0,1196.0" style="stroke:#010101; fill:none;"/>
	<path d="M 346.0,1198.0 L 348.0,1198.0" style="stroke:#010101; fill:none;"/>
	<path d="M 855.0,1202.0 L 860.0,1205.0" style="stroke:#010101; fill:none;"/>
	<path d="M 370.0,1206.0 L 370.0,1208.0" style="stroke:#010101; fill:none;"/>
	<path d="M 341.0,1207.0 L 346.0,1210.0" style="stroke:#010101; fill:none;"/>
	<path d="M 845.0,1210.0 L 852.0,1215.0" style="stroke:#010101; fill:none;"/>
	<path d="M 828.0,1211.0 L 829.0,1212.0" style="stroke:#010101; fill:none;"/>
	<path d="M 365.0,1215.0 L 366.0,1216.0" style="stroke:#010101; fill:none;"/>
	<path d="M 840.0,1218.0 L 844.0,1221.0" style="stroke:#010101; fill:none;"/>
	<path d="M 398.0,1219.0 L 399.0,1219.0" style="stroke:#010101; fill:none;"/>
	<path d="M 406.0,1219.0 L 405.0,1221.0" style="stroke:#010101; fill:none;"/>
	<path d="M 830.0,1226.0 L 836.0,1230.0" style="stroke:#010101; fill:none;"/>
	<path d="M 837.0,1226.0 L 837.0,1227.0" style="stroke:#010101; fill:none;"/>
	<path d="M 818.0,1231.0 L 821.0,1231.0" style="stroke:#010101; fill:none;"/>
	<path d="M 778.0,1236.0 L 778.0,1237.0" style="stroke:#010101; fill:none;"/>
	<path d="M 438.0,1237.0 L 439.0,1237.0" style="stroke:#010101; fill:none;"/>
	<path d="M 588.0,1240.0 L 637.0,1243.0" style="stroke:#010101; fill:none;"/>
	<path d="M 862.0,1242.0 L 862.0,1243.0" style="stroke:#010101; fill:none;"/>
	<path d="M 413.0,1244.0 L 415.0,1246.0" style="stroke:#010101; fill:none;"/>
	<path d="M 861.0,1246.0 L 837.656,1286.0 L 766.0,1394.0" style="stroke:#010101; fill:none;"/>
	<path d="M 367.0,1250.0 L 369.0,1250.0" style="stroke:#010101; fill:none;"/>
	<path d="M 748.0,1253.0 L 748.0,1254.0" style="stroke:#010101; fill:none;"/>
	<path d="M 792.0,1253.0 L 792.0,1254.0" style="stroke:#010101; fill:none;"/>
	<path d="M 432.0,1259.0 L 432.0,1262.0" style="stroke:#010101; fill:none;"/>
	<path d="M 348.0,1266.0 L 371.0,1297.0" style="stroke:#010101; fill:none;"/>
	<path d="M 765.0,1266.0 L 766.0,1267.0" style="stroke:#010101; fill:none;"/>
	<path d="M 391.0,1268.0 L 391.0,1269.0" style="stroke:#010101; fill:none;"/>
	<path d="M 904.0,1269.0 L 907.089,1301.0 L 910.0,1375.0" style="stroke:#010101; fill:none;"/>
	<path d="M 392.0,1272.0 L 392.0,1273.0" style="stroke:#010101; fill:none;"/>
	<path d="M 425.0,1272.0 L 425.0,1273.0" style="stroke:#010101; fill:none;"/>
	<path d="M 433.0,1272.0 L 434.0,1276.0" style="stroke:#010101; fill:none;"/>
	<path d="M 438.0,1274.0 L 438.0,1275.0" style="stroke:#010101; fill:none;"/>
	<path d="M 778.0,1276.0 L 779.0,1276.0" style="stroke:#010101; fill:none;"/>
	<path d="M 445.0,1286.0 L 447.0,1285.0" style="stroke:#010101; fill:none;"/>
	<path d="M 717.0,1285.0 L 723.0,1287.0" style="stroke:#010101; fill:none;"/>
	<path d="M 457.0,1287.0 L 459.0,1293.0" style="stroke:#010101; fill:none;"/>
	<path d="M 769.0,1288.0 L 769.0,1289.0" style="stroke:#010101; fill:none;"/>
	<path d="M 404.0,1292.0 L 404.0,1296.0" style="stroke:#010101; fill:none;"/>
	<path d="M 778.0,1293.0 L 776.0,1294.0" style="stroke:#010101; fill:none;"/>
	<path d="M 712.0,1294.0 L 713.0,1294.0" style="stroke:#010101; fill:none;"/>
	<path d="M 762.0,1296.0 L 765.0,1297.0" style="stroke:#010101; fill:none;"/>
	<path d="M 372.0,1299.0 C 406.788,1342.84 433.491,1393.94 481.0,1426.0" style="stroke:#010101; fill:none;"/>
	<path d="M 754.0,1300.0 L 756.0,1300.0" style="stroke:#010101; fill:none;"/>
	<path d="M 703.0,1301.0 L 705.0,1301.0" style="stroke:#010101; fill:none;"/>
	<path d="M 741.0,1304.0 L 742.0,1304.0" style="stroke:#010101; fill:none;"/>
	<path d="M 477.0,1307.0 L 477.0,1308.0" style="stroke:#010101; fill:none;"/>
	<path d="M 689.0,1307.0 L 691.0,1307.0" style="stroke:#010101; fill:none;"/>
	<path d="M 760.0,1310.0 L 762.0,1309.0" style="stroke:#010101; fill:none;"/>
	<path d="M 440.0,1310.0 L 440.0,1311.0" style="stroke:#010101; fill:none;"/>
	<path d="M 678.0,1310.0 L 679.0,1310.0" style="stroke:#010101; fill:none;"/>
	<path d="M 667.0,1311.0 L 668.0,1311.0" style="stroke:#010101; fill:none;"/>
	<path d="M 421.0,1312.0 L 421.0,1314.0" style="stroke:#010101; fill:none;"/>
	<path d="M 450.0,1314.0 L 451.0,1314.0" style="stroke:#010101; fill:none;"/>
	<path d="M 488.0,1317.0 L 489.0,1318.0" style="stroke:#010101; fill:none;"/>
	<path d="M 751.0,1320.0 L 754.0,1321.0" style="stroke:#010101; fill:none;"/>
	<path d="M 737.0,1321.0 L 739.0,1322.0" style="stroke:#010101; fill:none;"/>
	<path d="M 433.0,1322.0 L 432.0,1323.0" style="stroke:#010101; fill:none;"/>
	<path d="M 749.0,1326.0 L 751.0,1327.0" style="stroke:#010101; fill:none;"/>
	<path d="M 484.0,1328.0 L 486.0,1328.0" style="stroke:#010101; fill:none;"/>
	<path d="M 736.0,1329.0 L 738.0,1329.0" style="stroke:#010101; fill:none;"/>
	<path d="M 745.0,1330.0 L 745.0,1331.0" style="stroke:#010101; fill:none;"/>
	<path d="M 733.0,1333.0 L 735.0,1333.0" style="stroke:#010101; fill:none;"/>
	<path d="M 458.0,1334.0 L 458.0,1335.0" style="stroke:#010101; fill:none;"/>
	<path d="M 692.0,1334.0 L 695.0,1335.0" style="stroke:#010101; fill:none;"/>
	<path d="M 741.0,1336.0 L 742.0,1336.0" style="stroke:#010101; fill:none;"/>
	<path d="M 461.0,1338.0 L 460.0,1341.0" style="stroke:#010101; fill:none;"/>
	<path d="M 475.0,1340.0 L 476.0,1341.0" style="stroke:#010101; fill:none;"/>
	<path d="M 497.0,1340.0 L 497.0,1341.0" style="stroke:#010101; fill:none;"/>
	<path d="M 728.0,1341.0 L 729.0,1341.0" style="stroke:#010101; fill:none;"/>
	<path d="M 683.0,1342.0 L 682.0,1343.0" style="stroke:#010101; fill:none;"/>
	<path d="M 724.0,1345.0 L 728.0,1345.0" style="stroke:#010101; fill:none;"/>
	<path d="M 451.0,1346.0 L 450.0,1347.0" style="stroke:#010101; fill:none;"/>
	<path d="M 676.0,1353.0 L 677.0,1353.0" style="stroke:#010101; fill:none;"/>
	<path d="M 719.0,1353.0 L 718.0,1354.0" style="stroke:#010101; fill:none;"/>
	<path d="M 713.0,1359.0 L 712.0,1361.0" style="stroke:#010101; fill:none;"/>
	<path d="M 493.0,1361.0 L 493.0,1363.0" style="stroke:#010101; fill:none;"/>
	<path d="M 652.0,1361.0 L 657.0,1365.0" style="stroke:#010101; fill:none;"/>
	<path d="M 705.0,1363.0 L 706.0,1363.0" style="stroke:#010101; fill:none;"/>
	<path d="M 673.0,1366.0 L 675.0,1368.0" style="stroke:#010101; fill:none;"/>
	<path d="M 703.0,1372.0 L 705.0,1372.0" style="stroke:#010101; fill:none;"/>
	<path d="M 494.0,1375.0 L 499.0,1375.0" style="stroke:#010101; fill:none;"/>
	<path d="M 648.0,1375.0 L 649.0,1375.0" style="stroke:#010101; fill:none;"/>
	<path d="M 670.0,1375.0 L 673.0,1377.0" style="stroke:#010101; fill:none;"/>
	<path d="M 513.0,1379.0 L 517.0,1379.0" style="stroke:#010101; fill:none;"/>
	<path d="M 549.0,1379.0 L 547.0,1382.0" style="stroke:#010101; fill:none;"/>
	<path d="M 558.0,1379.0 L 555.0,1383.0" style="stroke:#010101; fill:none;"/>
	<path d="M 637.0,1379.0 L 637.0,1380.0" style="stroke:#010101; fill:none;"/>
	<path d="M 666.0,1379.0 L 668.0,1380.0" style="stroke:#010101; fill:none;"/>
	<path d="M 290.0,1380.0 C 289.158,1412.2 308.759,1435.56 314.0,1466.0" style="stroke:#010101; fill:none;"/>
	<path d="M 615.0,1380.0 L 617.0,1385.0" style="stroke:#010101; fill:none;"/>
	<path d="M 910.0,1380.0 C 910.315,1387.32 912.155,1393.43 917.0,1399.0 L 883.576,1442.0 L 869.0,1466.0" style="stroke:#010101; fill:none;"/>
	<path d="M 285.0,1381.0 L 288.0,1388.0" style="stroke:#010101; fill:none;"/>
	<path d="M 693.0,1381.0 L 694.0,1381.0" style="stroke:#010101; fill:none;"/>
	<path d="M 578.0,1382.0 L 579.0,1392.0" style="stroke:#010101; fill:none;"/>
	<path d="M 610.0,1382.0 L 612.0,1385.0" style="stroke:#010101; fill:none;"/>
	<path d="M 568.0,1383.0 L 565.0,1386.0" style="stroke:#010101; fill:none;"/>
	<path d="M 664.0,1383.0 L 666.0,1385.0" style="stroke:#010101; fill:none;"/>
	<path d="M 533.0,1384.0 L 533.0,1385.0" style="stroke:#010101; fill:none;"/>
	<path d="M 544.0,1385.0 L 544.0,1387.0" style="stroke:#010101; fill:none;"/>
	<path d="M 596.0,1386.0 L 597.0,1389.0" style="stroke:#010101; fill:none;"/>
	<path d="M 605.0,1386.0 L 606.0,1389.0" style="stroke:#010101; fill:none;"/>
	<path d="M 659.0,1386.0 L 660.0,1388.0" style="stroke:#010101; fill:none;"/>
	<path d="M 650.0,1389.0 L 652.0,1393.0" style="stroke:#010101; fill:none;"/>
	<path d="M 631.0,1392.0 L 631.0,1393.0" style="stroke:#010101; fill:none;"/>
	<path d="M 628.0,1395.0 L 629.0,1396.0" style="stroke:#010101; fill:none;"/>
	<path d="M 765.0,1396.0 L 763.0,1398.0" style="stroke:#010101; fill:none;"/>
	<path d="M 912.0,1396.0 L 914.0,1402.0" style="stroke:#010101; fill:none;"/>
	<path d="M 610.0,1397.0 L 610.0,1398.0" style="stroke:#010101; fill:none;"/>
	<path d="M 744.0,1421.0 L 744.0,1422.0" style="stroke:#010101; fill:none;"/>
	<path d="M 742.0,1423.0 C 734.016,1431.75 725.02,1437.72 714.0,1442.0" style="stroke:#010101; fill:none;"/>
	<path d="M 483.0,1427.0 L 494.0,1433.0" style="stroke:#010101; fill:none;"/>
	<path d="M 496.0,1434.0 L 498.0,1435.0" style="stroke:#010101; fill:none;"/>
	<path d="M 712.0,1443.0 L 705.0,1446.0" style="stroke:#010101; fill:none;"/>
</svg>
