<?xml version="1.0" ?>
<svg baseProfile="full" height="1499" version="1.1" width="1197" xmlns="http://www.w3.org/2000/svg" xmlns:ev="http://www.w3.org/2001/xml-events" xmlns:xlink="http://www.w3.org/1999/xlink">
	<defs/>
	<path d="M 431.0,410.0 L 434.0,408.0" style="stroke:#010101; fill:none;"/>
	<path d="M 454.0,450.0 L 483.0,437.0" style="stroke:#010101; fill:none;"/>
	<path d="M 425.0,466.0 L 436.0,459.0" style="stroke:#010101; fill:none;"/>
	<path d="M 412.0,478.0 L 407.0,482.0" style="stroke:#010101; fill:none;"/>
	<path d="M 401.0,487.0 L 405.0,484.0" style="stroke:#010101; fill:none;"/>
	<path d="M 283.0,489.0 L 281.0,491.0" style="stroke:#010101; fill:none;"/>
	<path d="M 399.0,489.0 L 398.0,490.0" style="stroke:#010101; fill:none;"/>
	<path d="M 279.0,492.0 L 278.0,493.0" style="stroke:#010101; fill:none;"/>
	<path d="M 395.0,492.0 L 375.0,501.0" style="stroke:#010101; fill:none;"/>
	<path d="M 515.0,493.0 L 528.0,493.0" style="stroke:#010101; fill:none;"/>
	<path d="M 530.0,494.0 L 542.0,498.0 L 528.0,508.0 C 520.043,501.27 512.2,505.986 503.0,505.0 L 504.0,504.0" style="stroke:#010101; fill:none;"/>
	<path d="M 275.0,495.0 L 274.0,496.0" style="stroke:#010101; fill:none;"/>
	<path d="M 272.0,497.0 L 271.0,498.0" style="stroke:#010101; fill:none;"/>
	<path d="M 513.0,497.0 L 522.0,498.0 L 514.0,500.0" style="stroke:#010101; fill:none;"/>
	<path d="M 522.0,498.0 L 527.0,499.0 L 522.0,500.0" style="stroke:#010101; fill:none;"/>
	<path d="M 542.0,498.0 L 552.0,499.0 L 553.0,500.0 C 552.927,503.177 553.954,503.484 557.0,503.0 L 553.0,500.0" style="stroke:#010101; fill:none;"/>
	<path d="M 269.0,499.0 L 263.0,503.0" style="stroke:#010101; fill:none;"/>
	<path d="M 503.0,500.0 L 511.0,500.0" style="stroke:#010101; fill:none;"/>
	<path d="M 527.0,499.0 L 540.0,502.0" style="stroke:#010101; fill:none;"/>
	<path d="M 545.0,499.0 L 541.0,503.0" style="stroke:#010101; fill:none;"/>
	<path d="M 549.0,500.0 L 551.0,504.0" style="stroke:#010101; fill:none;"/>
	<path d="M 372.0,502.0 L 373.0,502.0" style="stroke:#010101; fill:none;"/>
	<path d="M 370.0,503.0 L 308.0,552.0" style="stroke:#010101; fill:none;"/>
	<path d="M 491.0,504.0 L 502.0,504.0" style="stroke:#010101; fill:none;"/>
	<path d="M 557.0,503.0 L 593.0,506.0" style="stroke:#010101; fill:none;"/>
	<path d="M 597.0,503.0 C 603.44,509.417 611.708,512.69 621.0,511.0" style="stroke:#010101; fill:none;"/>
	<path d="M 253.0,508.0 L 261.0,504.0" style="stroke:#010101; fill:none;"/>
	<path d="M 505.0,504.0 L 506.0,505.0" style="stroke:#010101; fill:none;"/>
	<path d="M 526.0,505.0 L 529.0,504.0" style="stroke:#010101; fill:none;"/>
	<path d="M 545.0,504.0 L 548.0,504.0" style="stroke:#010101; fill:none;"/>
	<path d="M 603.0,504.0 L 609.0,508.0" style="stroke:#010101; fill:none;"/>
	<path d="M 503.0,505.0 L 489.0,508.0" style="stroke:#010101; fill:none;"/>
	<path d="M 526.0,506.0 C 513.682,512.676 493.773,510.062 480.0,511.0" style="stroke:#010101; fill:none;"/>
	<path d="M 620.0,506.0 L 629.0,512.0" style="stroke:#010101; fill:none;"/>
	<path d="M 589.0,507.0 C 592.252,509.487 594.046,510.187 598.0,509.0 L 597.0,508.0 L 595.0,510.0 L 600.0,510.0 L 601.0,509.0 L 602.0,508.0" style="stroke:#010101; fill:none;"/>
	<path d="M 484.0,508.0 L 486.0,508.0" style="stroke:#010101; fill:none;"/>
	<path d="M 599.0,509.0 L 600.0,511.0" style="stroke:#010101; fill:none;"/>
	<path d="M 489.0,518.0 L 519.0,515.0 L 513.0,526.0 C 527.697,521.404 555.503,522.306 565.0,510.0 L 570.0,514.0 L 571.0,513.0 L 568.0,511.0" style="stroke:#010101; fill:none;"/>
	<path d="M 604.0,510.0 L 601.0,512.0" style="stroke:#010101; fill:none;"/>
	<path d="M 545.0,513.0 L 549.0,512.0 C 542.756,514.174 527.462,518.357 522.0,515.0 L 531.0,514.0" style="stroke:#010101; fill:none;"/>
	<path d="M 552.0,511.0 L 557.0,512.0 C 554.354,513.088 553.509,513.481 552.0,511.0" style="stroke:#010101; fill:none;"/>
	<path d="M 562.0,512.0 L 558.0,512.0 L 562.0,512.0" style="stroke:#010101; fill:none;"/>
	<path d="M 617.0,511.0 L 618.0,512.0" style="stroke:#010101; fill:none;"/>
	<path d="M 549.0,512.0 L 551.0,512.0" style="stroke:#010101; fill:none;"/>
	<path d="M 572.0,513.0 L 592.0,511.0" style="stroke:#010101; fill:none;"/>
	<path d="M 608.0,512.0 L 632.0,533.0" style="stroke:#010101; fill:none;"/>
	<path d="M 520.0,514.0 L 521.0,515.0" style="stroke:#010101; fill:none;"/>
	<path d="M 563.0,514.0 L 567.0,514.0" style="stroke:#010101; fill:none;"/>
	<path d="M 617.0,514.0 L 630.0,523.0" style="stroke:#010101; fill:none;"/>
	<path d="M 490.0,516.0 L 499.0,515.0" style="stroke:#010101; fill:none;"/>
	<path d="M 474.0,516.0 L 487.0,516.0" style="stroke:#010101; fill:none;"/>
	<path d="M 519.0,518.0 L 523.0,518.0" style="stroke:#010101; fill:none;"/>
	<path d="M 512.0,519.0 C 503.75,519.651 487.464,525.75 481.0,520.0 L 487.0,519.0" style="stroke:#010101; fill:none;"/>
	<path d="M 467.0,523.0 L 481.0,520.0" style="stroke:#010101; fill:none;"/>
	<path d="M 516.0,521.0 L 501.0,526.0 L 504.0,525.0" style="stroke:#010101; fill:none;"/>
	<path d="M 475.0,523.0 L 480.0,522.0" style="stroke:#010101; fill:none;"/>
	<path d="M 467.0,525.0 L 472.0,524.0" style="stroke:#010101; fill:none;"/>
	<path d="M 475.0,526.0 L 484.0,524.0" style="stroke:#010101; fill:none;"/>
	<path d="M 523.0,532.0 L 503.0,539.0 C 507.392,530.526 531.73,524.891 541.0,525.0" style="stroke:#010101; fill:none;"/>
	<path d="M 493.0,527.0 L 495.0,528.0 L 477.0,530.0 L 488.0,529.0" style="stroke:#010101; fill:none;"/>
	<path d="M 496.0,527.0 L 501.0,526.0" style="stroke:#010101; fill:none;"/>
	<path d="M 471.0,528.0 L 473.0,527.0" style="stroke:#010101; fill:none;"/>
	<path d="M 470.0,542.0 L 512.0,527.0" style="stroke:#010101; fill:none;"/>
	<path d="M 621.0,528.0 L 616.0,530.0" style="stroke:#010101; fill:none;"/>
	<path d="M 491.0,529.0 L 492.0,529.0" style="stroke:#010101; fill:none;"/>
	<path d="M 468.0,531.0 L 477.0,530.0" style="stroke:#010101; fill:none;"/>
	<path d="M 478.0,531.0 L 464.0,535.0" style="stroke:#010101; fill:none;"/>
	<path d="M 577.0,531.0 L 577.0,532.0" style="stroke:#010101; fill:none;"/>
	<path d="M 580.0,531.0 L 583.0,531.0" style="stroke:#010101; fill:none;"/>
	<path d="M 459.0,537.0 L 455.0,536.0 L 466.0,532.0" style="stroke:#010101; fill:none;"/>
	<path d="M 503.0,532.0 L 508.0,532.0" style="stroke:#010101; fill:none;"/>
	<path d="M 529.0,543.0 C 542.567,533.34 558.823,532.0 575.0,532.0" style="stroke:#010101; fill:none;"/>
	<path d="M 588.0,533.0 L 593.0,533.0" style="stroke:#010101; fill:none;"/>
	<path d="M 604.0,533.0 L 605.0,533.0" style="stroke:#010101; fill:none;"/>
	<path d="M 558.0,539.0 L 586.0,534.0" style="stroke:#010101; fill:none;"/>
	<path d="M 589.0,536.0 L 600.0,534.0" style="stroke:#010101; fill:none;"/>
	<path d="M 455.0,538.0 L 449.0,539.0 L 455.0,536.0" style="stroke:#010101; fill:none;"/>
	<path d="M 461.0,536.0 L 462.0,536.0" style="stroke:#010101; fill:none;"/>
	<path d="M 437.0,551.0 L 447.0,546.32 L 476.0,537.0" style="stroke:#010101; fill:none;"/>
	<path d="M 503.0,539.0 L 498.0,540.0 L 503.0,537.0" style="stroke:#010101; fill:none;"/>
	<path d="M 580.0,539.0 L 587.0,537.0" style="stroke:#010101; fill:none;"/>
	<path d="M 442.0,542.0 L 440.0,542.0 L 449.0,538.0" style="stroke:#010101; fill:none;"/>
	<path d="M 497.0,541.0 L 494.0,540.0 L 498.0,538.0" style="stroke:#010101; fill:none;"/>
	<path d="M 449.0,539.0 L 443.0,543.0" style="stroke:#010101; fill:none;"/>
	<path d="M 465.0,548.0 L 461.0,548.0 L 465.0,546.0 C 468.979,550.01 487.916,540.531 494.0,540.0" style="stroke:#010101; fill:none;"/>
	<path d="M 509.0,542.0 L 514.0,540.0" style="stroke:#010101; fill:none;"/>
	<path d="M 577.0,540.0 L 578.0,540.0" style="stroke:#010101; fill:none;"/>
	<path d="M 496.0,541.0 L 488.0,550.0 L 498.0,546.0" style="stroke:#010101; fill:none;"/>
	<path d="M 476.0,544.0 L 479.0,543.0" style="stroke:#010101; fill:none;"/>
	<path d="M 501.0,545.0 L 506.0,543.0" style="stroke:#010101; fill:none;"/>
	<path d="M 494.0,549.0 L 516.0,543.0" style="stroke:#010101; fill:none;"/>
	<path d="M 466.0,545.0 L 468.0,545.0" style="stroke:#010101; fill:none;"/>
	<path d="M 458.0,550.0 L 460.0,552.0 L 457.0,549.0 L 460.0,548.0 L 461.0,549.0" style="stroke:#010101; fill:none;"/>
	<path d="M 481.0,551.0 C 481.307,555.277 478.833,556.282 475.0,555.0 C 478.506,550.963 481.955,548.094 487.0,551.0" style="stroke:#010101; fill:none;"/>
	<path d="M 449.0,555.0 L 447.0,553.0 L 448.0,552.0 L 450.0,554.0 L 457.0,549.0" style="stroke:#010101; fill:none;"/>
	<path d="M 451.0,551.0 L 453.0,551.0" style="stroke:#010101; fill:none;"/>
	<path d="M 463.0,551.0 L 426.0,573.0 C 430.098,575.205 432.101,574.273 436.0,572.0 L 435.0,577.0 C 444.689,582.583 437.184,597.562 434.0,606.0" style="stroke:#010101; fill:none;"/>
	<path d="M 487.0,551.0 L 483.0,553.0" style="stroke:#010101; fill:none;"/>
	<path d="M 454.0,552.0 L 458.0,554.0" style="stroke:#010101; fill:none;"/>
	<path d="M 301.0,555.0 L 306.0,553.0" style="stroke:#010101; fill:none;"/>
	<path d="M 436.0,553.0 L 418.0,568.0" style="stroke:#010101; fill:none;"/>
	<path d="M 431.0,567.0 L 446.0,556.0" style="stroke:#010101; fill:none;"/>
	<path d="M 440.0,572.0 L 441.0,575.0 L 438.0,571.0 C 448.228,564.81 462.019,555.501 474.0,554.0" style="stroke:#010101; fill:none;"/>
	<path d="M 495.0,554.0 C 487.569,559.383 468.808,574.898 460.0,571.0 L 472.0,563.0 C 467.508,560.94 463.664,562.783 465.0,568.0" style="stroke:#010101; fill:none;"/>
	<path d="M 262.0,574.0 L 299.0,556.0" style="stroke:#010101; fill:none;"/>
	<path d="M 436.0,560.0 L 444.0,557.0" style="stroke:#010101; fill:none;"/>
	<path d="M 476.0,556.0 L 476.0,562.0 L 479.0,558.0" style="stroke:#010101; fill:none;"/>
	<path d="M 482.0,556.0 L 480.0,559.0" style="stroke:#010101; fill:none;"/>
	<path d="M 470.0,557.0 L 469.0,561.0" style="stroke:#010101; fill:none;"/>
	<path d="M 466.0,559.0 L 466.0,560.0" style="stroke:#010101; fill:none;"/>
	<path d="M 471.0,559.0 L 473.0,559.0" style="stroke:#010101; fill:none;"/>
	<path d="M 427.0,571.0 C 425.533,565.217 431.294,562.239 436.0,560.0" style="stroke:#010101; fill:none;"/>
	<path d="M 475.0,561.0 L 473.0,563.0" style="stroke:#010101; fill:none;"/>
	<path d="M 451.0,563.0 L 452.0,564.0" style="stroke:#010101; fill:none;"/>
	<path d="M 465.0,563.0 L 468.0,566.0" style="stroke:#010101; fill:none;"/>
	<path d="M 460.0,567.0 L 457.0,569.0 L 462.0,565.0" style="stroke:#010101; fill:none;"/>
	<path d="M 456.0,566.0 L 455.0,572.0" style="stroke:#010101; fill:none;"/>
	<path d="M 420.0,567.0 L 419.0,568.0" style="stroke:#010101; fill:none;"/>
	<path d="M 390.0,607.0 L 400.0,617.0 C 399.316,612.369 396.335,607.625 396.357,603.0 C 396.421,589.799 405.316,575.067 416.0,568.0" style="stroke:#010101; fill:none;"/>
	<path d="M 453.0,568.0 C 451.62,570.297 444.267,581.911 450.0,580.0" style="stroke:#010101; fill:none;"/>
	<path d="M 425.0,569.0 C 417.557,575.855 410.574,582.775 403.421,589.888 C 399.712,593.576 394.572,592.611 396.0,599.0" style="stroke:#010101; fill:none;"/>
	<path d="M 417.0,570.0 L 404.0,583.0" style="stroke:#010101; fill:none;"/>
	<path d="M 448.0,576.0 L 444.0,577.0 C 445.149,573.001 447.096,571.342 451.0,570.0" style="stroke:#010101; fill:none;"/>
	<path d="M 465.0,570.0 L 467.0,572.0" style="stroke:#010101; fill:none;"/>
	<path d="M 458.0,572.0 L 460.0,571.0" style="stroke:#010101; fill:none;"/>
	<path d="M 423.0,572.0 L 425.0,574.0" style="stroke:#010101; fill:none;"/>
	<path d="M 452.0,572.0 L 455.0,572.0" style="stroke:#010101; fill:none;"/>
	<path d="M 442.0,573.0 L 444.0,575.0" style="stroke:#010101; fill:none;"/>
	<path d="M 433.0,574.0 L 435.0,576.0" style="stroke:#010101; fill:none;"/>
	<path d="M 462.0,574.0 L 452.0,590.0 L 454.0,588.0" style="stroke:#010101; fill:none;"/>
	<path d="M 427.0,577.0 L 424.0,580.0 L 429.0,575.0 L 429.0,575.0" style="stroke:#010101; fill:none;"/>
	<path d="M 437.0,575.0 L 437.0,577.0" style="stroke:#010101; fill:none;"/>
	<path d="M 441.0,575.0 L 438.0,578.0" style="stroke:#010101; fill:none;"/>
	<path d="M 406.0,599.0 C 410.749,590.548 414.725,580.326 424.0,576.0" style="stroke:#010101; fill:none;"/>
	<path d="M 256.0,577.0 L 222.0,596.0" style="stroke:#010101; fill:none;"/>
	<path d="M 431.0,577.0 C 424.443,586.594 426.291,595.665 424.0,606.0 L 423.0,603.0" style="stroke:#010101; fill:none;"/>
	<path d="M 421.0,578.0 C 421.257,581.368 420.368,582.257 417.0,582.0" style="stroke:#010101; fill:none;"/>
	<path d="M 427.0,578.0 L 429.0,580.0" style="stroke:#010101; fill:none;"/>
	<path d="M 436.0,578.0 C 428.793,587.644 426.439,605.713 431.0,617.0 L 433.0,597.0" style="stroke:#010101; fill:none;"/>
	<path d="M 443.0,578.0 L 441.0,581.0" style="stroke:#010101; fill:none;"/>
	<path d="M 452.0,581.0 L 457.0,580.0" style="stroke:#010101; fill:none;"/>
	<path d="M 438.0,581.0 L 434.0,595.0" style="stroke:#010101; fill:none;"/>
	<path d="M 446.0,582.0 L 447.0,586.0" style="stroke:#010101; fill:none;"/>
	<path d="M 419.0,584.0 L 412.302,603.0 L 418.0,624.0" style="stroke:#010101; fill:none;"/>
	<path d="M 398.0,586.0 L 400.0,590.0" style="stroke:#010101; fill:none;"/>
	<path d="M 444.0,587.0 L 446.0,588.0" style="stroke:#010101; fill:none;"/>
	<path d="M 445.0,589.0 L 443.0,594.0 L 444.0,592.0" style="stroke:#010101; fill:none;"/>
	<path d="M 398.0,590.0 L 398.0,592.0" style="stroke:#010101; fill:none;"/>
	<path d="M 412.0,591.0 L 412.0,600.0" style="stroke:#010101; fill:none;"/>
	<path d="M 451.0,591.0 L 444.0,609.0" style="stroke:#010101; fill:none;"/>
	<path d="M 453.0,591.0 L 451.0,603.0" style="stroke:#010101; fill:none;"/>
	<path d="M 380.0,592.0 L 380.0,597.0" style="stroke:#010101; fill:none;"/>
	<path d="M 418.0,592.0 L 423.0,621.0" style="stroke:#010101; fill:none;"/>
	<path d="M 442.0,595.0 L 436.0,614.0" style="stroke:#010101; fill:none;"/>
	<path d="M 428.0,596.0 L 428.0,597.0" style="stroke:#010101; fill:none;"/>
	<path d="M 538.0,596.0 L 558.0,596.0" style="stroke:#010101; fill:none;"/>
	<path d="M 562.0,596.0 L 563.0,596.0" style="stroke:#010101; fill:none;"/>
	<path d="M 409.0,597.0 C 409.0,605.431 407.954,619.905 413.0,627.0" style="stroke:#010101; fill:none;"/>
	<path d="M 587.0,597.0 L 590.0,597.0" style="stroke:#010101; fill:none;"/>
	<path d="M 383.0,598.0 L 390.972,615.972 L 396.0,620.0" style="stroke:#010101; fill:none;"/>
	<path d="M 427.0,598.0 L 426.0,602.0" style="stroke:#010101; fill:none;"/>
	<path d="M 400.0,599.0 L 410.0,621.0" style="stroke:#010101; fill:none;"/>
	<path d="M 529.0,599.0 C 511.587,609.269 490.28,619.248 482.0,639.0" style="stroke:#010101; fill:none;"/>
	<path d="M 374.0,600.0 C 377.744,615.764 389.798,627.315 402.0,637.0" style="stroke:#010101; fill:none;"/>
	<path d="M 381.0,600.0 L 387.0,611.0" style="stroke:#010101; fill:none;"/>
	<path d="M 405.0,601.0 L 405.0,602.0" style="stroke:#010101; fill:none;"/>
	<path d="M 178.0,632.0 L 215.0,602.0" style="stroke:#010101; fill:none;"/>
	<path d="M 388.0,602.0 L 389.0,604.0" style="stroke:#010101; fill:none;"/>
	<path d="M 424.0,607.0 L 425.0,611.0" style="stroke:#010101; fill:none;"/>
	<path d="M 434.0,609.0 L 434.0,611.0" style="stroke:#010101; fill:none;"/>
	<path d="M 387.0,611.0 L 388.0,614.0" style="stroke:#010101; fill:none;"/>
	<path d="M 670.0,623.0 L 685.0,611.0" style="stroke:#010101; fill:none;"/>
	<path d="M 290.0,615.0 L 286.0,618.0" style="stroke:#010101; fill:none;"/>
	<path d="M 400.0,617.0 L 410.0,626.0" style="stroke:#010101; fill:none;"/>
	<path d="M 379.0,619.0 L 391.0,634.0" style="stroke:#010101; fill:none;"/>
	<path d="M 238.0,640.0 L 283.0,620.0" style="stroke:#010101; fill:none;"/>
	<path d="M 397.0,621.0 L 410.0,631.0" style="stroke:#010101; fill:none;"/>
	<path d="M 397.0,623.0 L 406.0,633.0" style="stroke:#010101; fill:none;"/>
	<path d="M 528.0,626.0 L 507.0,646.0" style="stroke:#010101; fill:none;"/>
	<path d="M 414.0,627.0 L 420.0,631.0" style="stroke:#010101; fill:none;"/>
	<path d="M 554.0,630.0 L 555.0,630.0" style="stroke:#010101; fill:none;"/>
	<path d="M 657.0,632.0 L 660.0,630.0" style="stroke:#010101; fill:none;"/>
	<path d="M 412.0,631.0 L 413.0,631.0" style="stroke:#010101; fill:none;"/>
	<path d="M 546.0,633.0 L 552.0,631.0" style="stroke:#010101; fill:none;"/>
	<path d="M 509.0,650.0 C 516.029,642.976 523.544,635.579 533.0,632.0" style="stroke:#010101; fill:none;"/>
	<path d="M 636.0,638.0 L 649.0,635.0" style="stroke:#010101; fill:none;"/>
	<path d="M 655.0,636.0 L 657.0,635.0" style="stroke:#010101; fill:none;"/>
	<path d="M 393.0,636.0 L 395.0,637.0" style="stroke:#010101; fill:none;"/>
	<path d="M 537.0,640.0 L 544.0,638.0" style="stroke:#010101; fill:none;"/>
	<path d="M 508.0,682.0 L 513.0,675.0 C 516.852,681.251 510.955,685.826 509.04,692.0 C 505.923,702.053 502.891,717.745 509.0,727.0 C 519.119,720.088 528.213,712.219 539.0,706.204 C 547.972,701.202 558.445,699.249 566.996,693.477 C 573.412,689.146 577.782,682.565 583.036,677.0 C 590.728,668.85 602.154,654.939 598.0,643.0 L 629.0,640.0" style="stroke:#010101; fill:none;"/>
	<path d="M 627.0,648.0 L 650.0,640.0" style="stroke:#010101; fill:none;"/>
	<path d="M 495.0,687.0 C 501.552,667.751 511.585,650.803 530.0,641.0" style="stroke:#010101; fill:none;"/>
	<path d="M 587.0,645.0 L 587.0,641.0 L 593.0,660.0" style="stroke:#010101; fill:none;"/>
	<path d="M 589.0,642.0 L 598.0,643.0" style="stroke:#010101; fill:none;"/>
	<path d="M 583.0,647.0 L 580.0,644.0 L 586.0,642.0" style="stroke:#010101; fill:none;"/>
	<path d="M 570.0,688.0 C 556.225,687.678 545.728,679.601 543.59,666.0 C 543.024,662.395 542.226,657.516 544.719,654.418 C 549.965,647.899 565.219,645.08 573.0,643.0" style="stroke:#010101; fill:none;"/>
	<path d="M 577.0,643.0 L 579.0,643.0" style="stroke:#010101; fill:none;"/>
	<path d="M 616.0,647.0 L 623.0,647.0" style="stroke:#010101; fill:none;"/>
	<path d="M 188.0,669.0 L 221.0,648.0" style="stroke:#010101; fill:none;"/>
	<path d="M 566.487,651.032 C 574.927,644.806 581.058,661.122 572.956,667.21 C 561.667,675.693 561.239,654.903 566.487,651.032" style="stroke:#010101; fill:none;"/>
	<path d="M 556.0,656.0 L 564.0,652.0" style="stroke:#010101; fill:none;"/>
	<path d="M 537.0,661.0 C 537.183,656.912 539.129,655.792 543.0,655.0" style="stroke:#010101; fill:none;"/>
	<path d="M 460.0,656.0 L 452.0,694.0" style="stroke:#010101; fill:none;"/>
	<path d="M 632.0,656.0 L 629.0,662.0" style="stroke:#010101; fill:none;"/>
	<path d="M 531.0,665.0 C 530.38,660.777 532.109,659.353 536.0,658.0" style="stroke:#010101; fill:none;"/>
	<path d="M 501.0,661.0 L 495.0,671.0" style="stroke:#010101; fill:none;"/>
	<path d="M 523.0,675.0 C 521.387,668.732 523.899,665.626 529.0,662.0" style="stroke:#010101; fill:none;"/>
	<path d="M 525.0,665.0 L 528.0,670.0" style="stroke:#010101; fill:none;"/>
	<path d="M 627.0,665.0 L 624.0,667.0" style="stroke:#010101; fill:none;"/>
	<path d="M 597.0,668.0 L 595.0,670.0" style="stroke:#010101; fill:none;"/>
	<path d="M 602.0,669.0 L 602.0,671.0" style="stroke:#010101; fill:none;"/>
	<path d="M 629.0,669.0 L 630.0,674.0" style="stroke:#010101; fill:none;"/>
	<path d="M 560.0,670.0 L 564.0,670.0" style="stroke:#010101; fill:none;"/>
	<path d="M 515.0,677.0 L 519.0,672.0 L 520.0,677.0" style="stroke:#010101; fill:none;"/>
	<path d="M 595.0,675.0 L 598.0,675.0" style="stroke:#010101; fill:none;"/>
	<path d="M 629.0,676.0 L 626.0,680.0" style="stroke:#010101; fill:none;"/>
	<path d="M 596.0,679.0 L 583.0,692.0" style="stroke:#010101; fill:none;"/>
	<path d="M 631.0,680.0 L 644.0,682.0" style="stroke:#010101; fill:none;"/>
	<path d="M 690.0,685.0 L 703.0,682.0" style="stroke:#010101; fill:none;"/>
	<path d="M 507.0,684.0 L 507.0,685.0" style="stroke:#010101; fill:none;"/>
	<path d="M 515.0,685.0 C 515.46,695.718 518.948,705.471 530.0,709.0" style="stroke:#010101; fill:none;"/>
	<path d="M 651.0,685.0 L 671.0,685.0" style="stroke:#010101; fill:none;"/>
	<path d="M 288.0,687.0 L 290.0,687.0" style="stroke:#010101; fill:none;"/>
	<path d="M 506.0,687.0 L 504.0,694.0" style="stroke:#010101; fill:none;"/>
	<path d="M 282.0,688.0 L 282.0,690.0 L 282.0,688.0" style="stroke:#010101; fill:none;"/>
	<path d="M 271.0,692.0 L 265.0,695.0 L 281.0,689.0" style="stroke:#010101; fill:none;"/>
	<path d="M 283.0,689.0 L 285.0,689.0" style="stroke:#010101; fill:none;"/>
	<path d="M 309.0,701.0 L 276.0,699.0 C 286.682,689.018 301.791,689.275 315.0,692.0" style="stroke:#010101; fill:none;"/>
	<path d="M 494.0,689.0 L 493.0,692.0" style="stroke:#010101; fill:none;"/>
	<path d="M 501.0,689.0 L 497.0,710.0" style="stroke:#010101; fill:none;"/>
	<path d="M 276.0,690.0 L 277.0,691.0" style="stroke:#010101; fill:none;"/>
	<path d="M 266.0,696.0 L 261.0,697.0 L 265.0,695.0" style="stroke:#010101; fill:none;"/>
	<path d="M 292.0,695.0 L 304.0,696.0" style="stroke:#010101; fill:none;"/>
	<path d="M 629.0,700.0 L 634.0,696.0" style="stroke:#010101; fill:none;"/>
	<path d="M 234.0,719.0 L 235.0,716.0 C 227.83,722.554 216.499,735.82 206.0,730.0 C 219.958,719.196 232.829,711.32 248.821,704.274 C 253.279,702.31 256.005,698.643 261.0,697.0" style="stroke:#010101; fill:none;"/>
	<path d="M 306.0,697.0 L 307.0,697.0" style="stroke:#010101; fill:none;"/>
	<path d="M 451.0,697.0 L 451.0,705.0" style="stroke:#010101; fill:none;"/>
	<path d="M 262.0,698.0 L 253.0,703.0" style="stroke:#010101; fill:none;"/>
	<path d="M 258.0,711.0 L 257.0,708.0 L 276.0,698.0" style="stroke:#010101; fill:none;"/>
	<path d="M 242.0,699.0 C 231.732,704.258 222.808,711.007 213.0,716.732 C 206.33,720.625 201.78,718.526 198.0,727.0 L 205.0,726.0 L 202.0,722.0" style="stroke:#010101; fill:none;"/>
	<path d="M 557.0,712.0 L 576.0,699.0" style="stroke:#010101; fill:none;"/>
	<path d="M 248.0,703.0 L 251.0,702.0" style="stroke:#010101; fill:none;"/>
	<path d="M 286.0,703.0 L 299.0,705.0" style="stroke:#010101; fill:none;"/>
	<path d="M 636.0,703.0 L 641.0,713.0" style="stroke:#010101; fill:none;"/>
	<path d="M 266.0,704.0 L 283.0,704.0" style="stroke:#010101; fill:none;"/>
	<path d="M 615.0,706.0 L 619.0,704.0" style="stroke:#010101; fill:none;"/>
	<path d="M 301.0,705.0 L 306.0,705.0" style="stroke:#010101; fill:none;"/>
	<path d="M 199.0,706.0 C 193.085,711.116 186.916,714.504 182.139,721.0 C 181.15,722.345 178.628,729.82 182.0,728.0" style="stroke:#010101; fill:none;"/>
	<path d="M 194.0,709.0 L 197.0,708.0" style="stroke:#010101; fill:none;"/>
	<path d="M 205.0,722.0 L 208.0,722.0 C 205.128,716.723 208.423,711.865 211.0,707.0" style="stroke:#010101; fill:none;"/>
	<path d="M 211.0,710.0 L 218.0,707.0" style="stroke:#010101; fill:none;"/>
	<path d="M 279.0,707.0 L 280.0,707.0" style="stroke:#010101; fill:none;"/>
	<path d="M 290.0,707.0 L 296.0,708.0" style="stroke:#010101; fill:none;"/>
	<path d="M 205.0,710.0 L 202.0,714.0 L 209.0,708.0" style="stroke:#010101; fill:none;"/>
	<path d="M 265.0,711.0 L 254.0,709.0 L 257.0,708.0" style="stroke:#010101; fill:none;"/>
	<path d="M 260.0,708.0 L 273.0,708.0" style="stroke:#010101; fill:none;"/>
	<path d="M 283.0,708.0 L 287.0,708.0" style="stroke:#010101; fill:none;"/>
	<path d="M 451.0,708.0 L 451.0,709.0" style="stroke:#010101; fill:none;"/>
	<path d="M 210.0,709.0 L 207.0,712.0" style="stroke:#010101; fill:none;"/>
	<path d="M 238.0,711.0 C 243.593,713.729 248.399,710.529 254.0,709.0" style="stroke:#010101; fill:none;"/>
	<path d="M 542.0,731.0 L 568.0,724.656 L 614.0,709.0" style="stroke:#010101; fill:none;"/>
	<path d="M 193.0,715.0 L 191.0,719.0 L 201.0,710.0" style="stroke:#010101; fill:none;"/>
	<path d="M 217.0,713.0 L 219.0,710.0" style="stroke:#010101; fill:none;"/>
	<path d="M 276.0,711.0 L 293.0,712.0" style="stroke:#010101; fill:none;"/>
	<path d="M 195.0,711.0 L 194.0,712.0" style="stroke:#010101; fill:none;"/>
	<path d="M 268.0,711.0 L 273.0,711.0" style="stroke:#010101; fill:none;"/>
	<path d="M 210.0,718.0 L 216.0,712.0" style="stroke:#010101; fill:none;"/>
	<path d="M 239.0,712.0 L 237.0,715.0" style="stroke:#010101; fill:none;"/>
	<path d="M 295.0,712.0 L 303.0,713.0" style="stroke:#010101; fill:none;"/>
	<path d="M 452.0,712.0 C 452.01,727.721 457.076,740.772 463.0,755.0" style="stroke:#010101; fill:none;"/>
	<path d="M 220.0,713.0 L 219.0,714.0" style="stroke:#010101; fill:none;"/>
	<path d="M 202.0,714.0 C 193.458,722.566 190.351,727.692 188.0,739.0 L 186.0,734.0 L 175.0,751.0 L 175.0,754.0 L 179.0,756.0 L 177.0,755.0" style="stroke:#010101; fill:none;"/>
	<path d="M 270.0,719.0 C 260.426,716.177 253.301,727.007 246.0,718.0 C 257.958,710.667 282.857,712.079 296.0,716.0" style="stroke:#010101; fill:none;"/>
	<path d="M 299.0,716.0 L 305.0,717.0" style="stroke:#010101; fill:none;"/>
	<path d="M 211.0,731.0 C 216.009,725.52 224.745,719.705 232.0,718.0" style="stroke:#010101; fill:none;"/>
	<path d="M 249.0,723.0 C 245.585,726.083 241.573,727.884 237.0,727.0 L 246.0,718.0" style="stroke:#010101; fill:none;"/>
	<path d="M 249.0,720.0 L 262.0,720.0" style="stroke:#010101; fill:none;"/>
	<path d="M 272.0,719.0 L 277.0,719.0" style="stroke:#010101; fill:none;"/>
	<path d="M 659.0,718.0 L 660.0,718.0" style="stroke:#010101; fill:none;"/>
	<path d="M 191.0,719.0 L 183.0,728.0" style="stroke:#010101; fill:none;"/>
	<path d="M 280.0,719.0 L 286.0,719.0" style="stroke:#010101; fill:none;"/>
	<path d="M 545.0,719.0 L 541.0,723.0" style="stroke:#010101; fill:none;"/>
	<path d="M 209.0,720.0 L 208.0,721.0" style="stroke:#010101; fill:none;"/>
	<path d="M 292.0,720.0 L 300.0,722.0" style="stroke:#010101; fill:none;"/>
	<path d="M 646.0,720.0 L 646.0,721.0" style="stroke:#010101; fill:none;"/>
	<path d="M 232.0,721.0 L 240.0,721.0" style="stroke:#010101; fill:none;"/>
	<path d="M 204.0,722.0 L 205.0,722.0" style="stroke:#010101; fill:none;"/>
	<path d="M 229.0,722.0 L 228.0,728.0 L 237.0,728.0 L 234.0,728.0" style="stroke:#010101; fill:none;"/>
	<path d="M 241.0,723.0 L 248.0,722.0" style="stroke:#010101; fill:none;"/>
	<path d="M 261.0,722.0 L 275.0,724.0" style="stroke:#010101; fill:none;"/>
	<path d="M 634.0,722.0 L 625.0,730.0" style="stroke:#010101; fill:none;"/>
	<path d="M 202.0,724.0 L 202.0,725.0" style="stroke:#010101; fill:none;"/>
	<path d="M 265.0,724.0 C 255.325,729.19 240.198,734.947 229.0,734.0 L 228.0,735.0 L 230.0,736.0" style="stroke:#010101; fill:none;"/>
	<path d="M 277.0,724.0 L 282.0,725.0" style="stroke:#010101; fill:none;"/>
	<path d="M 285.0,725.0 L 290.0,725.0" style="stroke:#010101; fill:none;"/>
	<path d="M 250.0,726.0 L 252.0,726.0" style="stroke:#010101; fill:none;"/>
	<path d="M 268.0,726.0 L 276.0,726.0" style="stroke:#010101; fill:none;"/>
	<path d="M 292.0,726.0 L 293.0,726.0" style="stroke:#010101; fill:none;"/>
	<path d="M 204.0,727.0 L 207.0,734.0 C 202.492,737.281 200.194,744.74 194.0,742.0 L 193.0,743.0 L 193.0,744.0 L 194.0,745.0 L 196.0,745.0" style="stroke:#010101; fill:none;"/>
	<path d="M 178.0,728.0 L 182.0,731.0" style="stroke:#010101; fill:none;"/>
	<path d="M 195.0,733.0 L 197.0,728.0" style="stroke:#010101; fill:none;"/>
	<path d="M 219.0,730.0 L 227.0,727.0" style="stroke:#010101; fill:none;"/>
	<path d="M 199.0,729.0 L 203.0,731.0" style="stroke:#010101; fill:none;"/>
	<path d="M 230.0,729.0 L 222.0,736.0 L 227.0,740.0 L 226.0,738.0" style="stroke:#010101; fill:none;"/>
	<path d="M 200.0,730.0 L 196.0,734.0 L 202.0,733.0" style="stroke:#010101; fill:none;"/>
	<path d="M 229.0,730.0 L 231.0,732.0" style="stroke:#010101; fill:none;"/>
	<path d="M 235.0,730.0 L 231.0,732.0" style="stroke:#010101; fill:none;"/>
	<path d="M 177.0,731.0 L 176.0,750.0" style="stroke:#010101; fill:none;"/>
	<path d="M 249.0,732.0 L 271.0,732.0" style="stroke:#010101; fill:none;"/>
	<path d="M 645.0,731.0 L 647.0,748.0" style="stroke:#010101; fill:none;"/>
	<path d="M 182.0,734.0 L 179.0,734.0" style="stroke:#010101; fill:none;"/>
	<path d="M 194.0,732.0 L 195.0,738.0 L 198.0,735.0" style="stroke:#010101; fill:none;"/>
	<path d="M 217.0,732.0 L 214.0,735.0" style="stroke:#010101; fill:none;"/>
	<path d="M 189.0,734.0 L 193.0,733.0" style="stroke:#010101; fill:none;"/>
	<path d="M 202.0,733.0 L 204.0,735.0" style="stroke:#010101; fill:none;"/>
	<path d="M 225.0,733.0 L 226.0,738.0" style="stroke:#010101; fill:none;"/>
	<path d="M 224.0,735.0 L 227.0,735.0" style="stroke:#010101; fill:none;"/>
	<path d="M 229.0,739.0 L 263.0,735.0" style="stroke:#010101; fill:none;"/>
	<path d="M 200.0,736.0 L 195.0,743.0" style="stroke:#010101; fill:none;"/>
	<path d="M 211.0,736.0 C 204.433,741.348 198.232,752.16 190.0,745.0 L 189.0,746.0 L 191.0,747.0" style="stroke:#010101; fill:none;"/>
	<path d="M 224.0,739.0 L 220.0,736.0 L 222.0,736.0" style="stroke:#010101; fill:none;"/>
	<path d="M 194.0,737.0 L 191.0,746.0" style="stroke:#010101; fill:none;"/>
	<path d="M 209.0,743.0 L 206.0,744.0 L 214.0,743.0 L 219.0,737.0" style="stroke:#010101; fill:none;"/>
	<path d="M 187.0,738.0 L 186.0,745.0 L 188.0,739.0" style="stroke:#010101; fill:none;"/>
	<path d="M 195.0,739.0 L 194.0,742.0" style="stroke:#010101; fill:none;"/>
	<path d="M 222.0,745.0 L 265.0,740.0" style="stroke:#010101; fill:none;"/>
	<path d="M 197.0,741.0 L 199.0,743.0" style="stroke:#010101; fill:none;"/>
	<path d="M 215.0,742.0 L 221.0,740.0" style="stroke:#010101; fill:none;"/>
	<path d="M 213.0,742.0 L 211.0,744.0" style="stroke:#010101; fill:none;"/>
	<path d="M 190.0,743.0 L 190.0,745.0" style="stroke:#010101; fill:none;"/>
	<path d="M 359.0,743.0 C 375.361,747.668 390.759,752.793 403.0,765.0" style="stroke:#010101; fill:none;"/>
	<path d="M 184.0,745.0 L 185.0,749.0 L 186.0,745.0" style="stroke:#010101; fill:none;"/>
	<path d="M 203.0,745.0 L 200.0,748.0" style="stroke:#010101; fill:none;"/>
	<path d="M 195.0,746.0 L 193.0,748.0" style="stroke:#010101; fill:none;"/>
	<path d="M 207.0,746.0 L 197.0,754.0 L 200.0,749.0" style="stroke:#010101; fill:none;"/>
	<path d="M 197.0,764.0 L 218.0,746.0" style="stroke:#010101; fill:none;"/>
	<path d="M 183.0,749.0 L 183.0,753.0 L 185.0,749.0" style="stroke:#010101; fill:none;"/>
	<path d="M 189.0,749.0 L 191.0,755.0" style="stroke:#010101; fill:none;"/>
	<path d="M 191.0,752.0 L 194.0,750.0" style="stroke:#010101; fill:none;"/>
	<path d="M 193.0,751.0 L 193.0,758.0" style="stroke:#010101; fill:none;"/>
	<path d="M 292.0,755.0 L 305.0,754.0" style="stroke:#010101; fill:none;"/>
	<path d="M 182.0,754.0 C 179.163,761.125 173.586,763.728 178.0,772.0 L 181.0,761.0" style="stroke:#010101; fill:none;"/>
	<path d="M 197.0,755.0 L 196.0,756.0" style="stroke:#010101; fill:none;"/>
	<path d="M 175.0,756.0 L 177.0,760.0" style="stroke:#010101; fill:none;"/>
	<path d="M 188.0,756.0 L 191.0,758.0" style="stroke:#010101; fill:none;"/>
	<path d="M 289.0,756.0 L 290.0,756.0" style="stroke:#010101; fill:none;"/>
	<path d="M 287.0,757.0 L 263.0,768.0" style="stroke:#010101; fill:none;"/>
	<path d="M 187.0,759.0 L 180.297,779.0 L 180.0,790.0 C 176.887,788.188 176.113,788.188 173.0,790.0 L 170.0,778.0" style="stroke:#010101; fill:none;"/>
	<path d="M 404.0,767.0 L 409.0,776.0" style="stroke:#010101; fill:none;"/>
	<path d="M 261.0,769.0 L 257.0,773.0" style="stroke:#010101; fill:none;"/>
	<path d="M 175.0,771.0 L 176.0,778.0 L 175.0,775.0" style="stroke:#010101; fill:none;"/>
	<path d="M 178.0,772.0 L 178.0,774.0" style="stroke:#010101; fill:none;"/>
	<path d="M 177.0,777.0 L 181.0,779.0" style="stroke:#010101; fill:none;"/>
	<path d="M 183.0,777.0 L 182.0,782.0" style="stroke:#010101; fill:none;"/>
	<path d="M 176.0,778.0 L 172.0,786.0" style="stroke:#010101; fill:none;"/>
	<path d="M 177.0,781.0 L 179.0,781.0" style="stroke:#010101; fill:none;"/>
	<path d="M 411.0,782.0 C 419.081,805.886 427.623,831.922 431.0,857.0" style="stroke:#010101; fill:none;"/>
	<path d="M 180.0,783.0 L 176.0,787.0" style="stroke:#010101; fill:none;"/>
	<path d="M 176.0,784.0 L 176.0,785.0" style="stroke:#010101; fill:none;"/>
	<path d="M 275.0,797.0 L 303.0,784.0" style="stroke:#010101; fill:none;"/>
	<path d="M 301.0,790.0 L 325.0,787.0" style="stroke:#010101; fill:none;"/>
	<path d="M 328.0,787.0 L 356.0,794.0" style="stroke:#010101; fill:none;"/>
	<path d="M 173.0,790.0 L 175.0,794.0 L 178.0,790.0" style="stroke:#010101; fill:none;"/>
	<path d="M 180.0,790.0 C 179.461,799.416 177.973,804.959 182.0,814.0" style="stroke:#010101; fill:none;"/>
	<path d="M 298.0,791.0 L 299.0,791.0" style="stroke:#010101; fill:none;"/>
	<path d="M 296.0,792.0 L 285.0,799.0" style="stroke:#010101; fill:none;"/>
	<path d="M 178.0,793.0 L 178.0,794.0" style="stroke:#010101; fill:none;"/>
	<path d="M 244.0,793.0 L 237.0,818.0" style="stroke:#010101; fill:none;"/>
	<path d="M 175.0,794.0 L 178.0,801.0" style="stroke:#010101; fill:none;"/>
	<path d="M 375.0,808.0 C 366.867,811.032 357.135,812.714 350.0,817.789 C 343.4,822.484 338.591,831.221 331.0,834.308 C 313.422,841.457 292.394,819.409 300.411,802.108 C 302.805,796.942 312.015,795.789 317.0,794.808 C 331.599,791.934 362.248,794.697 373.0,806.0" style="stroke:#010101; fill:none;"/>
	<path d="M 315.0,803.0 C 321.211,798.929 328.141,797.178 332.0,805.0" style="stroke:#010101; fill:none;"/>
	<path d="M 350.0,799.0 C 352.23,804.39 351.256,808.756 349.0,814.0" style="stroke:#010101; fill:none;"/>
	<path d="M 320.0,800.0 C 324.149,806.286 324.184,812.399 318.0,817.0 C 327.953,822.311 334.694,814.643 336.0,805.0" style="stroke:#010101; fill:none;"/>
	<path d="M 298.0,806.0 L 299.0,803.0" style="stroke:#010101; fill:none;"/>
	<path d="M 296.0,804.0 L 268.362,837.0 L 261.74,870.0 L 248.0,890.0" style="stroke:#010101; fill:none;"/>
	<path d="M 286.0,805.0 L 274.0,815.0" style="stroke:#010101; fill:none;"/>
	<path d="M 267.0,808.0 C 259.081,816.298 253.68,826.581 252.0,838.0" style="stroke:#010101; fill:none;"/>
	<path d="M 350.0,826.0 L 368.0,817.0" style="stroke:#010101; fill:none;"/>
	<path d="M 342.0,833.0 L 343.0,833.0" style="stroke:#010101; fill:none;"/>
	<path d="M 327.0,836.0 C 312.671,847.774 282.204,856.396 266.0,844.0" style="stroke:#010101; fill:none;"/>
	<path d="M 367.0,842.0 C 354.397,859.532 335.299,891.431 311.0,892.0" style="stroke:#010101; fill:none;"/>
	<path d="M 320.0,848.0 L 327.0,844.0" style="stroke:#010101; fill:none;"/>
	<path d="M 310.0,856.0 L 311.0,856.0" style="stroke:#010101; fill:none;"/>
	<path d="M 299.0,859.0 L 303.0,858.0" style="stroke:#010101; fill:none;"/>
	<path d="M 285.0,859.0 L 289.0,859.0" style="stroke:#010101; fill:none;"/>
	<path d="M 291.0,859.0 L 297.0,859.0" style="stroke:#010101; fill:none;"/>
	<path d="M 432.0,859.0 L 432.0,861.0" style="stroke:#010101; fill:none;"/>
	<path d="M 267.0,860.0 L 269.0,867.0" style="stroke:#010101; fill:none;"/>
	<path d="M 539.0,897.0 C 537.781,888.633 545.066,882.129 552.0,878.659 C 566.158,871.575 588.761,870.372 604.0,874.0" style="stroke:#010101; fill:none;"/>
	<path d="M 275.0,876.0 L 288.0,884.0" style="stroke:#010101; fill:none;"/>
	<path d="M 617.0,884.0 C 628.923,896.024 642.985,919.069 632.521,935.985 C 628.702,942.159 621.791,945.945 616.0,950.036 C 611.403,953.283 607.311,956.986 602.0,959.0" style="stroke:#010101; fill:none;"/>
	<path d="M 666.0,891.0 L 683.0,898.0" style="stroke:#010101; fill:none;"/>
	<path d="M 450.0,909.0 C 450.158,928.036 456.877,947.812 462.0,966.0" style="stroke:#010101; fill:none;"/>
	<path d="M 444.0,922.0 L 448.0,951.0" style="stroke:#010101; fill:none;"/>
	<path d="M 740.0,939.0 L 781.0,963.0" style="stroke:#010101; fill:none;"/>
	<path d="M 551.0,985.0 C 553.033,961.865 577.024,945.651 598.0,943.0" style="stroke:#010101; fill:none;"/>
	<path d="M 553.0,955.0 L 551.0,957.0" style="stroke:#010101; fill:none;"/>
	<path d="M 450.0,959.0 C 448.101,971.858 442.708,982.524 444.174,996.0 C 447.23,1024.11 476.09,1025.73 498.0,1024.0" style="stroke:#010101; fill:none;"/>
	<path d="M 548.0,960.0 L 534.0,979.0" style="stroke:#010101; fill:none;"/>
	<path d="M 463.0,968.0 L 463.0,970.0" style="stroke:#010101; fill:none;"/>
	<path d="M 786.0,968.0 L 787.0,969.0" style="stroke:#010101; fill:none;"/>
	<path d="M 789.0,971.0 L 806.0,1002.0" style="stroke:#010101; fill:none;"/>
	<path d="M 464.0,972.0 L 464.0,973.0" style="stroke:#010101; fill:none;"/>
	<path d="M 465.0,975.0 C 473.935,996.525 491.606,994.4 511.0,994.0" style="stroke:#010101; fill:none;"/>
	<path d="M 717.0,978.0 L 717.0,980.0" style="stroke:#010101; fill:none;"/>
	<path d="M 710.0,982.0 L 710.0,984.0" style="stroke:#010101; fill:none;"/>
	<path d="M 670.0,988.0 L 669.0,989.0" style="stroke:#010101; fill:none;"/>
	<path d="M 525.0,990.0 L 526.0,990.0" style="stroke:#010101; fill:none;"/>
	<path d="M 521.0,991.0 L 523.0,991.0" style="stroke:#010101; fill:none;"/>
	<path d="M 541.0,1006.0 L 567.0,991.0" style="stroke:#010101; fill:none;"/>
	<path d="M 517.0,992.0 L 519.0,992.0" style="stroke:#010101; fill:none;"/>
	<path d="M 513.0,993.0 L 515.0,993.0" style="stroke:#010101; fill:none;"/>
	<path d="M 623.0,999.0 L 623.0,1000.0" style="stroke:#010101; fill:none;"/>
	<path d="M 759.0,999.0 L 771.0,1002.0" style="stroke:#010101; fill:none;"/>
	<path d="M 683.0,1036.0 L 679.0,1037.0 C 701.279,1025.64 721.31,1008.4 746.0,1002.0" style="stroke:#010101; fill:none;"/>
	<path d="M 807.0,1004.0 L 807.0,1006.0" style="stroke:#010101; fill:none;"/>
	<path d="M 808.0,1008.0 L 808.0,1012.0" style="stroke:#010101; fill:none;"/>
	<path d="M 490.0,1014.0 C 486.564,1017.31 483.402,1017.66 479.0,1016.0 C 483.593,1007.67 499.452,1013.34 507.0,1014.0" style="stroke:#010101; fill:none;"/>
	<path d="M 629.0,1042.0 C 648.747,1025.17 678.869,1023.0 702.0,1012.0" style="stroke:#010101; fill:none;"/>
	<path d="M 809.0,1015.0 L 809.0,1017.0" style="stroke:#010101; fill:none;"/>
	<path d="M 510.0,1021.0 L 502.0,1025.0" style="stroke:#010101; fill:none;"/>
	<path d="M 813.0,1023.0 L 815.0,1030.0" style="stroke:#010101; fill:none;"/>
	<path d="M 303.0,1037.0 C 323.194,1060.24 349.251,1078.25 371.0,1100.0 C 409.116,1138.12 441.649,1177.81 489.0,1205.39 C 504.848,1214.61 521.629,1223.45 539.0,1229.46 C 554.634,1234.86 570.876,1236.94 586.0,1244.26 C 614.483,1258.05 639.514,1280.52 670.0,1290.11 C 700.923,1299.84 736.572,1292.14 765.0,1278.14 C 774.358,1273.53 787.07,1259.79 797.0,1258.51 C 800.794,1258.02 804.933,1261.37 808.0,1263.2 C 814.808,1267.25 821.797,1269.91 829.0,1273.09 C 854.911,1284.53 879.096,1297.81 901.286,1315.43 C 910.74,1322.94 919.047,1329.23 925.0,1340.0" style="stroke:#010101; fill:none;"/>
	<path d="M 682.0,1039.0 C 673.628,1048.58 663.496,1057.28 652.0,1063.0 C 654.512,1050.38 667.96,1041.62 679.0,1037.0" style="stroke:#010101; fill:none;"/>
	<path d="M 628.0,1046.0 C 620.2,1058.7 611.167,1071.37 596.0,1075.51 C 589.053,1077.41 581.937,1076.35 575.0,1078.0" style="stroke:#010101; fill:none;"/>
	<path d="M 820.0,1056.0 L 820.0,1057.0" style="stroke:#010101; fill:none;"/>
	<path d="M 819.0,1061.0 L 817.0,1071.0" style="stroke:#010101; fill:none;"/>
	<path d="M 652.0,1063.0 L 619.258,1086.06 L 600.0,1098.0 L 599.0,1093.0 C 604.485,1090.64 609.748,1088.46 615.0,1092.0" style="stroke:#010101; fill:none;"/>
	<path d="M 712.0,1070.0 C 687.099,1097.12 662.16,1130.72 628.0,1147.0" style="stroke:#010101; fill:none;"/>
	<path d="M 333.0,1074.0 L 335.0,1079.0" style="stroke:#010101; fill:none;"/>
	<path d="M 539.0,1126.0 C 539.727,1109.06 547.356,1093.16 562.0,1084.0" style="stroke:#010101; fill:none;"/>
	<path d="M 619.0,1087.0 L 622.0,1087.0" style="stroke:#010101; fill:none;"/>
	<path d="M 614.0,1088.0 L 616.0,1088.0" style="stroke:#010101; fill:none;"/>
	<path d="M 714.0,1092.0 L 702.0,1106.0" style="stroke:#010101; fill:none;"/>
	<path d="M 594.0,1096.0 C 591.312,1100.0 589.298,1106.08 584.0,1106.0 C 588.306,1098.84 590.324,1094.49 599.0,1093.0" style="stroke:#010101; fill:none;"/>
	<path d="M 575.0,1098.0 C 572.162,1099.74 571.492,1100.7 572.0,1104.0 C 576.649,1098.85 582.027,1096.48 589.0,1096.0" style="stroke:#010101; fill:none;"/>
	<path d="M 512.0,1098.0 L 513.0,1098.0" style="stroke:#010101; fill:none;"/>
	<path d="M 600.0,1098.0 L 589.0,1105.0" style="stroke:#010101; fill:none;"/>
	<path d="M 581.0,1100.0 L 574.0,1110.0 L 569.0,1107.0 L 553.0,1131.0" style="stroke:#010101; fill:none;"/>
	<path d="M 570.0,1105.0 L 570.0,1107.0" style="stroke:#010101; fill:none;"/>
	<path d="M 583.0,1107.0 L 586.0,1107.0" style="stroke:#010101; fill:none;"/>
	<path d="M 583.0,1108.0 L 575.0,1109.0" style="stroke:#010101; fill:none;"/>
	<path d="M 687.0,1119.0 L 685.0,1121.0" style="stroke:#010101; fill:none;"/>
	<path d="M 682.0,1123.0 L 678.0,1127.0" style="stroke:#010101; fill:none;"/>
	<path d="M 505.0,1127.0 L 505.0,1128.0" style="stroke:#010101; fill:none;"/>
	<path d="M 667.0,1135.0 L 675.0,1130.0" style="stroke:#010101; fill:none;"/>
	<path d="M 663.0,1138.0 L 665.0,1137.0" style="stroke:#010101; fill:none;"/>
	<path d="M 661.0,1139.0 L 660.0,1140.0" style="stroke:#010101; fill:none;"/>
	<path d="M 505.0,1140.0 C 509.145,1170.75 542.433,1179.33 564.0,1195.0" style="stroke:#010101; fill:none;"/>
	<path d="M 656.0,1142.0 L 658.0,1141.0" style="stroke:#010101; fill:none;"/>
	<path d="M 653.0,1143.0 L 654.0,1143.0" style="stroke:#010101; fill:none;"/>
	<path d="M 651.0,1144.0 L 650.0,1145.0" style="stroke:#010101; fill:none;"/>
	<path d="M 886.0,1146.0 C 882.025,1158.45 870.55,1169.6 862.884,1180.0 C 842.866,1207.15 822.874,1233.09 798.0,1256.0" style="stroke:#010101; fill:none;"/>
	<path d="M 588.0,1148.0 C 595.535,1157.35 605.736,1154.35 616.0,1152.0" style="stroke:#010101; fill:none;"/>
	<path d="M 832.0,1283.0 L 831.0,1284.0" style="stroke:#010101; fill:none;"/>
	<path d="M 838.0,1288.0 L 843.0,1303.0" style="stroke:#010101; fill:none;"/>
	<path d="M 902.0,1316.0 C 898.47,1323.2 904.04,1332.84 906.344,1340.0 C 913.178,1361.23 921.95,1381.85 929.0,1403.0" style="stroke:#010101; fill:none;"/>
	<path d="M 850.0,1324.0 C 870.941,1362.39 890.949,1410.9 928.0,1437.0" style="stroke:#010101; fill:none;"/>
	<path d="M 793.0,1473.0 L 794.0,1473.0" style="stroke:#010101; fill:none;"/>
	<path d="M 789.0,1474.0 L 790.0,1474.0" style="stroke:#010101; fill:none;"/>
	<path d="M 785.0,1475.0 L 787.0,1475.0" style="stroke:#010101; fill:none;"/>
</svg>
