<?xml version="1.0" ?>
<svg baseProfile="full" height="1406" version="1.1" width="1150" xmlns="http://www.w3.org/2000/svg" xmlns:ev="http://www.w3.org/2001/xml-events" xmlns:xlink="http://www.w3.org/1999/xlink">
	<defs/>
	<path d="M 310.0,494.0 C 304.754,508.009 306.283,533.367 309.0,548.0" style="stroke:#010101; fill:none;"/>
	<path d="M 290.0,503.0 C 290.0,518.361 289.023,536.298 294.0,551.0" style="stroke:#010101; fill:none;"/>
	<path d="M 261.0,521.0 L 279.0,509.0" style="stroke:#010101; fill:none;"/>
	<path d="M 272.0,514.0 L 284.0,510.0" style="stroke:#010101; fill:none;"/>
	<path d="M 389.0,511.0 L 411.0,546.0" style="stroke:#010101; fill:none;"/>
	<path d="M 397.0,512.0 L 397.0,513.0" style="stroke:#010101; fill:none;"/>
	<path d="M 269.0,514.0 L 271.0,513.0" style="stroke:#010101; fill:none;"/>
	<path d="M 309.0,513.0 L 341.0,518.0 L 339.0,520.0" style="stroke:#010101; fill:none;"/>
	<path d="M 282.0,516.0 L 286.0,515.0" style="stroke:#010101; fill:none;"/>
	<path d="M 283.0,525.0 L 269.0,523.0 C 271.593,518.711 275.293,517.975 280.0,517.0" style="stroke:#010101; fill:none;"/>
	<path d="M 315.0,517.0 L 315.0,519.0 L 315.0,517.0" style="stroke:#010101; fill:none;"/>
	<path d="M 337.0,517.0 L 339.0,519.0" style="stroke:#010101; fill:none;"/>
	<path d="M 435.0,517.0 L 462.0,568.0" style="stroke:#010101; fill:none;"/>
	<path d="M 317.0,518.0 L 321.0,526.0 C 329.485,517.38 341.918,525.469 344.0,535.0 L 348.0,528.0 L 344.0,529.0" style="stroke:#010101; fill:none;"/>
	<path d="M 254.0,519.0 L 255.0,533.0 L 262.0,529.0" style="stroke:#010101; fill:none;"/>
	<path d="M 270.0,522.0 L 286.0,520.0" style="stroke:#010101; fill:none;"/>
	<path d="M 334.0,519.0 L 335.0,519.0" style="stroke:#010101; fill:none;"/>
	<path d="M 343.0,519.0 L 346.0,522.0 L 345.0,519.0" style="stroke:#010101; fill:none;"/>
	<path d="M 249.0,520.0 L 251.0,527.0" style="stroke:#010101; fill:none;"/>
	<path d="M 318.0,520.0 L 325.0,521.0" style="stroke:#010101; fill:none;"/>
	<path d="M 320.0,520.0 L 321.0,520.0" style="stroke:#010101; fill:none;"/>
	<path d="M 344.0,520.0 L 341.0,521.0" style="stroke:#010101; fill:none;"/>
	<path d="M 451.0,521.0 C 465.979,546.664 481.76,571.522 508.0,587.0" style="stroke:#010101; fill:none;"/>
	<path d="M 263.0,523.0 L 269.0,523.0" style="stroke:#010101; fill:none;"/>
	<path d="M 313.0,522.0 L 318.0,524.0" style="stroke:#010101; fill:none;"/>
	<path d="M 318.0,522.0 L 318.0,523.0" style="stroke:#010101; fill:none;"/>
	<path d="M 330.0,524.0 L 327.0,524.0" style="stroke:#010101; fill:none;"/>
	<path d="M 333.0,523.0 L 333.0,526.0 L 328.0,526.0" style="stroke:#010101; fill:none;"/>
	<path d="M 348.0,523.0 L 369.0,532.0 L 355.0,542.0 L 363.0,547.0" style="stroke:#010101; fill:none;"/>
	<path d="M 322.0,524.0 L 326.0,524.0" style="stroke:#010101; fill:none;"/>
	<path d="M 330.0,524.0 L 332.0,526.0" style="stroke:#010101; fill:none;"/>
	<path d="M 338.0,524.0 L 341.0,525.0" style="stroke:#010101; fill:none;"/>
	<path d="M 474.0,524.0 C 482.213,533.491 490.91,550.419 506.0,546.0" style="stroke:#010101; fill:none;"/>
	<path d="M 336.0,525.0 L 334.0,527.0" style="stroke:#010101; fill:none;"/>
	<path d="M 236.0,526.0 L 236.0,552.0" style="stroke:#010101; fill:none;"/>
	<path d="M 259.0,527.0 L 261.0,526.0" style="stroke:#010101; fill:none;"/>
	<path d="M 312.0,526.0 L 314.0,524.0" style="stroke:#010101; fill:none;"/>
	<path d="M 313.0,526.0 L 318.0,531.0 L 309.0,528.0" style="stroke:#010101; fill:none;"/>
	<path d="M 324.0,526.0 L 326.0,531.0 L 325.0,529.0" style="stroke:#010101; fill:none;"/>
	<path d="M 335.0,526.0 L 337.0,528.0" style="stroke:#010101; fill:none;"/>
	<path d="M 343.0,526.0 L 345.0,528.0" style="stroke:#010101; fill:none;"/>
	<path d="M 331.0,527.0 L 327.0,530.0" style="stroke:#010101; fill:none;"/>
	<path d="M 334.0,528.0 L 332.0,530.0" style="stroke:#010101; fill:none;"/>
	<path d="M 348.0,528.0 L 358.0,530.0 L 350.0,531.0" style="stroke:#010101; fill:none;"/>
	<path d="M 350.0,528.0 L 351.0,529.0" style="stroke:#010101; fill:none;"/>
	<path d="M 333.0,529.0 L 337.0,529.0" style="stroke:#010101; fill:none;"/>
	<path d="M 349.0,529.0 L 346.0,530.0" style="stroke:#010101; fill:none;"/>
	<path d="M 355.0,529.0 L 353.0,531.0" style="stroke:#010101; fill:none;"/>
	<path d="M 247.0,536.0 L 254.0,530.0" style="stroke:#010101; fill:none;"/>
	<path d="M 336.0,530.0 L 342.0,533.0" style="stroke:#010101; fill:none;"/>
	<path d="M 358.0,530.0 L 365.0,532.0 L 366.0,531.0 L 367.0,530.0" style="stroke:#010101; fill:none;"/>
	<path d="M 326.0,531.0 L 332.0,535.0" style="stroke:#010101; fill:none;"/>
	<path d="M 310.0,532.0 L 318.0,538.0 L 320.0,536.0 L 317.0,535.0" style="stroke:#010101; fill:none;"/>
	<path d="M 319.0,532.0 L 321.0,532.0" style="stroke:#010101; fill:none;"/>
	<path d="M 255.0,533.0 L 238.0,547.0" style="stroke:#010101; fill:none;"/>
	<path d="M 354.0,533.0 C 351.912,535.942 351.516,536.731 353.0,540.0 L 353.0,536.0" style="stroke:#010101; fill:none;"/>
	<path d="M 358.0,533.0 L 362.0,535.0 L 362.0,533.0" style="stroke:#010101; fill:none;"/>
	<path d="M 525.0,533.0 C 536.259,547.648 545.288,563.368 563.0,571.0" style="stroke:#010101; fill:none;"/>
	<path d="M 364.0,534.0 L 367.0,537.0 L 369.0,533.0" style="stroke:#010101; fill:none;"/>
	<path d="M 370.0,534.0 L 376.0,536.0 C 372.646,538.063 371.388,538.005 368.0,536.0" style="stroke:#010101; fill:none;"/>
	<path d="M 255.0,535.0 L 255.0,538.0" style="stroke:#010101; fill:none;"/>
	<path d="M 310.0,536.0 L 316.0,536.0" style="stroke:#010101; fill:none;"/>
	<path d="M 346.0,535.0 L 349.0,537.0" style="stroke:#010101; fill:none;"/>
	<path d="M 321.0,536.0 L 320.0,538.0" style="stroke:#010101; fill:none;"/>
	<path d="M 334.0,536.0 L 365.0,553.167 L 374.0,559.0" style="stroke:#010101; fill:none;"/>
	<path d="M 376.0,536.0 L 389.0,544.0 C 378.929,548.699 390.142,554.354 395.0,559.0 L 383.0,553.914 L 359.0,542.0" style="stroke:#010101; fill:none;"/>
	<path d="M 322.0,538.0 C 326.11,537.146 346.72,543.827 342.0,549.0" style="stroke:#010101; fill:none;"/>
	<path d="M 357.0,537.0 L 360.0,538.0" style="stroke:#010101; fill:none;"/>
	<path d="M 363.0,537.0 L 367.0,537.0" style="stroke:#010101; fill:none;"/>
	<path d="M 224.0,538.0 L 227.0,563.0" style="stroke:#010101; fill:none;"/>
	<path d="M 322.0,538.0 L 333.0,544.0 C 327.729,546.023 323.004,542.941 318.0,541.0" style="stroke:#010101; fill:none;"/>
	<path d="M 358.0,538.0 L 358.0,540.0" style="stroke:#010101; fill:none;"/>
	<path d="M 354.0,539.0 L 356.0,541.0" style="stroke:#010101; fill:none;"/>
	<path d="M 365.0,540.0 L 383.0,547.0" style="stroke:#010101; fill:none;"/>
	<path d="M 375.0,540.0 L 385.0,540.0" style="stroke:#010101; fill:none;"/>
	<path d="M 353.0,541.0 L 355.0,543.0" style="stroke:#010101; fill:none;"/>
	<path d="M 383.0,543.0 L 385.0,545.0" style="stroke:#010101; fill:none;"/>
	<path d="M 334.0,544.0 C 335.524,553.904 352.743,560.72 360.0,567.0" style="stroke:#010101; fill:none;"/>
	<path d="M 372.0,544.0 L 372.0,547.0" style="stroke:#010101; fill:none;"/>
	<path d="M 553.0,544.0 C 564.651,550.714 574.931,562.027 585.0,570.95 C 589.144,574.622 594.223,580.508 600.0,580.0 L 597.0,580.0" style="stroke:#010101; fill:none;"/>
	<path d="M 336.0,545.0 L 341.0,549.0" style="stroke:#010101; fill:none;"/>
	<path d="M 389.0,545.0 C 408.905,550.864 429.307,574.144 443.0,589.0" style="stroke:#010101; fill:none;"/>
	<path d="M 344.0,546.0 L 348.0,548.0 L 345.0,549.0" style="stroke:#010101; fill:none;"/>
	<path d="M 550.0,546.0 L 550.0,547.0" style="stroke:#010101; fill:none;"/>
	<path d="M 337.0,547.0 L 335.0,549.0" style="stroke:#010101; fill:none;"/>
	<path d="M 390.0,547.0 C 400.717,557.228 413.199,564.64 423.0,576.0 C 426.938,580.564 432.797,585.602 431.0,592.0 C 420.931,578.418 408.588,569.03 394.0,561.0" style="stroke:#010101; fill:none;"/>
	<path d="M 349.0,548.0 C 347.539,551.029 346.311,551.492 343.0,551.0" style="stroke:#010101; fill:none;"/>
	<path d="M 365.0,548.0 L 370.0,551.0" style="stroke:#010101; fill:none;"/>
	<path d="M 351.0,549.0 L 358.0,553.0 L 348.0,552.0" style="stroke:#010101; fill:none;"/>
	<path d="M 350.0,552.0 L 351.0,553.0" style="stroke:#010101; fill:none;"/>
	<path d="M 372.0,552.0 C 387.442,561.485 405.793,571.58 416.0,587.0" style="stroke:#010101; fill:none;"/>
	<path d="M 359.0,553.0 L 364.0,560.0 L 365.0,557.0" style="stroke:#010101; fill:none;"/>
	<path d="M 553.0,553.0 L 558.0,559.0" style="stroke:#010101; fill:none;"/>
	<path d="M 350.0,555.0 L 353.0,556.0" style="stroke:#010101; fill:none;"/>
	<path d="M 585.0,555.0 L 599.0,578.0" style="stroke:#010101; fill:none;"/>
	<path d="M 358.0,556.0 L 363.0,559.0" style="stroke:#010101; fill:none;"/>
	<path d="M 202.0,558.0 L 200.0,579.0" style="stroke:#010101; fill:none;"/>
	<path d="M 366.0,558.0 L 371.0,560.0" style="stroke:#010101; fill:none;"/>
	<path d="M 396.0,559.0 L 399.0,562.0" style="stroke:#010101; fill:none;"/>
	<path d="M 365.0,560.0 L 371.0,564.0" style="stroke:#010101; fill:none;"/>
	<path d="M 376.0,560.0 L 377.0,563.0 L 378.0,561.0" style="stroke:#010101; fill:none;"/>
	<path d="M 397.0,560.0 L 395.0,562.0" style="stroke:#010101; fill:none;"/>
	<path d="M 594.0,560.0 L 612.0,585.0" style="stroke:#010101; fill:none;"/>
	<path d="M 375.0,562.0 L 376.0,562.0" style="stroke:#010101; fill:none;"/>
	<path d="M 379.0,562.0 L 396.0,575.0 L 393.0,574.0" style="stroke:#010101; fill:none;"/>
	<path d="M 561.0,563.0 L 564.0,566.0" style="stroke:#010101; fill:none;"/>
	<path d="M 402.0,566.0 L 422.0,589.0" style="stroke:#010101; fill:none;"/>
	<path d="M 611.0,570.0 L 635.0,598.0" style="stroke:#010101; fill:none;"/>
	<path d="M 312.0,572.0 L 313.0,581.0" style="stroke:#010101; fill:none;"/>
	<path d="M 189.0,574.0 L 189.0,580.0" style="stroke:#010101; fill:none;"/>
	<path d="M 397.0,575.0 L 413.0,590.0" style="stroke:#010101; fill:none;"/>
	<path d="M 639.0,577.0 L 670.0,602.0" style="stroke:#010101; fill:none;"/>
	<path d="M 659.0,578.0 L 682.0,608.0" style="stroke:#010101; fill:none;"/>
	<path d="M 599.0,582.0 L 615.0,593.0" style="stroke:#010101; fill:none;"/>
	<path d="M 189.0,583.0 L 190.0,585.0" style="stroke:#010101; fill:none;"/>
	<path d="M 298.0,583.0 L 298.0,589.0 L 308.0,589.0" style="stroke:#010101; fill:none;"/>
	<path d="M 321.0,584.0 C 319.213,593.627 318.741,602.515 327.0,609.0 C 335.189,594.641 318.214,590.978 307.0,590.0" style="stroke:#010101; fill:none;"/>
	<path d="M 180.0,585.0 L 180.0,591.0" style="stroke:#010101; fill:none;"/>
	<path d="M 288.0,587.0 L 286.0,591.0 C 274.86,586.059 278.058,602.842 282.0,608.0 C 288.222,602.889 288.008,598.79 288.0,591.0" style="stroke:#010101; fill:none;"/>
	<path d="M 309.0,587.0 L 308.0,588.0" style="stroke:#010101; fill:none;"/>
	<path d="M 332.0,587.0 L 331.0,596.0" style="stroke:#010101; fill:none;"/>
	<path d="M 677.0,587.0 L 697.0,622.0" style="stroke:#010101; fill:none;"/>
	<path d="M 292.0,588.0 L 297.0,590.0" style="stroke:#010101; fill:none;"/>
	<path d="M 276.0,598.0 L 278.0,589.0" style="stroke:#010101; fill:none;"/>
	<path d="M 251.0,598.0 L 276.0,590.0" style="stroke:#010101; fill:none;"/>
	<path d="M 297.0,590.0 L 299.0,603.0 C 307.377,602.985 306.046,598.597 308.0,592.0" style="stroke:#010101; fill:none;"/>
	<path d="M 686.0,590.0 L 713.333,639.0 L 729.0,645.0" style="stroke:#010101; fill:none;"/>
	<path d="M 286.0,591.0 L 286.0,594.0" style="stroke:#010101; fill:none;"/>
	<path d="M 692.0,591.0 L 722.0,639.0" style="stroke:#010101; fill:none;"/>
	<path d="M 310.0,593.0 C 310.898,598.968 313.822,607.057 321.0,604.0" style="stroke:#010101; fill:none;"/>
	<path d="M 260.0,595.0 C 260.522,600.93 263.645,610.877 271.0,609.0 L 267.0,606.0" style="stroke:#010101; fill:none;"/>
	<path d="M 289.0,596.0 L 298.0,604.0" style="stroke:#010101; fill:none;"/>
	<path d="M 331.0,596.0 L 344.0,603.0 L 333.0,610.0 L 331.0,605.0" style="stroke:#010101; fill:none;"/>
	<path d="M 704.0,596.0 L 736.0,641.0" style="stroke:#010101; fill:none;"/>
	<path d="M 257.0,599.0 C 257.373,607.049 264.069,612.028 258.0,619.0 L 265.0,622.0 C 264.835,630.005 264.097,635.594 268.0,643.0 L 265.0,646.0 C 259.005,642.228 252.973,638.577 246.0,642.0" style="stroke:#010101; fill:none;"/>
	<path d="M 265.0,599.0 L 267.0,605.0" style="stroke:#010101; fill:none;"/>
	<path d="M 301.0,599.0 L 303.0,601.0" style="stroke:#010101; fill:none;"/>
	<path d="M 251.0,601.0 L 257.0,618.0" style="stroke:#010101; fill:none;"/>
	<path d="M 165.0,602.0 L 166.0,606.0 L 169.0,602.0" style="stroke:#010101; fill:none;"/>
	<path d="M 305.0,603.0 L 300.0,605.0" style="stroke:#010101; fill:none;"/>
	<path d="M 345.0,603.0 C 361.81,611.919 376.02,627.381 381.0,646.0" style="stroke:#010101; fill:none;"/>
	<path d="M 573.0,629.0 C 572.187,625.985 576.981,622.086 579.015,620.0 C 585.423,613.426 592.215,606.222 601.0,603.0" style="stroke:#010101; fill:none;"/>
	<path d="M 240.0,604.0 C 241.301,610.744 246.193,619.438 254.0,618.0 L 245.0,604.0" style="stroke:#010101; fill:none;"/>
	<path d="M 288.0,604.0 L 294.0,604.0" style="stroke:#010101; fill:none;"/>
	<path d="M 307.0,604.0 L 313.0,605.0" style="stroke:#010101; fill:none;"/>
	<path d="M 236.0,605.0 C 236.718,610.298 238.386,617.928 245.0,615.0" style="stroke:#010101; fill:none;"/>
	<path d="M 287.0,605.0 L 290.0,608.0 L 293.0,605.0" style="stroke:#010101; fill:none;"/>
	<path d="M 716.0,605.0 C 737.475,626.99 748.68,658.214 777.0,674.0" style="stroke:#010101; fill:none;"/>
	<path d="M 164.0,606.0 L 166.0,607.0" style="stroke:#010101; fill:none;"/>
	<path d="M 280.0,606.0 L 272.0,610.0" style="stroke:#010101; fill:none;"/>
	<path d="M 343.0,606.0 L 342.0,607.0" style="stroke:#010101; fill:none;"/>
	<path d="M 283.0,607.0 L 289.0,608.0" style="stroke:#010101; fill:none;"/>
	<path d="M 165.0,608.0 C 155.369,650.133 141.63,690.84 135.272,734.0 C 114.362,875.941 126.674,1030.24 193.961,1159.0 C 205.07,1180.26 212.97,1202.89 226.519,1223.0 C 244.599,1249.84 268.326,1267.06 296.0,1282.85 C 310.24,1290.97 327.467,1299.55 344.0,1301.32 C 408.383,1308.18 470.599,1279.72 529.0,1257.06 C 579.732,1237.38 628.651,1205.35 667.0,1167.0" style="stroke:#010101; fill:none;"/>
	<path d="M 328.0,608.0 L 331.0,610.0" style="stroke:#010101; fill:none;"/>
	<path d="M 282.0,609.0 L 265.0,622.0" style="stroke:#010101; fill:none;"/>
	<path d="M 574.0,629.0 C 582.865,620.841 593.764,611.107 606.0,609.0" style="stroke:#010101; fill:none;"/>
	<path d="M 333.0,610.0 C 336.73,617.74 350.104,622.1 356.999,627.459 C 370.377,637.855 388.405,665.841 383.678,683.906 C 381.174,693.479 358.864,684.94 352.0,684.0 C 318.856,679.461 287.12,674.481 268.0,644.0" style="stroke:#010101; fill:none;"/>
	<path d="M 338.0,610.0 L 335.0,613.0" style="stroke:#010101; fill:none;"/>
	<path d="M 267.0,611.0 L 264.0,614.0 L 268.0,616.0" style="stroke:#010101; fill:none;"/>
	<path d="M 357.0,611.0 L 345.0,616.0" style="stroke:#010101; fill:none;"/>
	<path d="M 569.0,641.0 C 580.779,629.221 593.869,616.511 610.0,611.0" style="stroke:#010101; fill:none;"/>
	<path d="M 249.0,613.0 L 246.0,616.0" style="stroke:#010101; fill:none;"/>
	<path d="M 334.0,613.0 C 326.251,618.401 316.675,615.868 309.104,623.185 C 292.635,639.103 300.583,667.906 322.0,674.0" style="stroke:#010101; fill:none;"/>
	<path d="M 634.0,613.0 C 652.955,616.532 671.612,621.549 689.0,630.247 C 696.682,634.09 705.822,644.209 715.0,642.0" style="stroke:#010101; fill:none;"/>
	<path d="M 581.0,635.0 C 592.945,619.454 618.196,612.523 637.0,617.0" style="stroke:#010101; fill:none;"/>
	<path d="M 358.0,618.0 L 352.0,623.0" style="stroke:#010101; fill:none;"/>
	<path d="M 244.0,619.0 L 247.0,618.0" style="stroke:#010101; fill:none;"/>
	<path d="M 255.0,619.0 L 256.0,619.0" style="stroke:#010101; fill:none;"/>
	<path d="M 753.0,620.0 C 770.917,625.943 781.076,642.827 802.0,643.0" style="stroke:#010101; fill:none;"/>
	<path d="M 594.0,633.0 C 607.136,626.078 624.211,622.108 639.0,621.089 C 644.022,620.744 650.878,619.877 655.0,623.0" style="stroke:#010101; fill:none;"/>
	<path d="M 259.0,623.0 L 257.0,627.0" style="stroke:#010101; fill:none;"/>
	<path d="M 586.0,643.0 C 605.787,636.551 623.401,624.179 645.0,624.0" style="stroke:#010101; fill:none;"/>
	<path d="M 698.0,625.0 L 700.0,627.0" style="stroke:#010101; fill:none;"/>
	<path d="M 641.0,629.0 C 655.979,628.876 669.574,625.702 684.0,632.0 C 676.594,637.262 656.435,632.0 647.0,632.0 C 644.352,632.0 636.175,631.939 638.0,630.0" style="stroke:#010101; fill:none;"/>
	<path d="M 237.0,629.0 L 255.0,628.0" style="stroke:#010101; fill:none;"/>
	<path d="M 244.0,631.0 L 260.0,639.0" style="stroke:#010101; fill:none;"/>
	<path d="M 572.0,631.0 L 566.0,638.0" style="stroke:#010101; fill:none;"/>
	<path d="M 604.0,637.0 L 636.0,631.0" style="stroke:#010101; fill:none;"/>
	<path d="M 366.0,632.0 L 367.0,632.0" style="stroke:#010101; fill:none;"/>
	<path d="M 685.0,632.0 L 697.0,637.0" style="stroke:#010101; fill:none;"/>
	<path d="M 336.999,633.747 C 346.558,633.396 343.423,653.887 335.981,653.954 C 323.053,654.07 324.932,634.189 336.999,633.747" style="stroke:#010101; fill:none;"/>
	<path d="M 686.0,633.0 L 683.0,634.0" style="stroke:#010101; fill:none;"/>
	<path d="M 578.0,643.0 L 590.0,635.0" style="stroke:#010101; fill:none;"/>
	<path d="M 714.0,665.0 C 693.799,647.521 670.867,644.939 645.0,644.848 C 634.331,644.81 619.988,647.393 610.0,644.0 C 628.025,635.442 652.727,636.385 672.0,638.75 C 676.023,639.244 689.138,642.415 688.0,639.0" style="stroke:#010101; fill:none;"/>
	<path d="M 745.0,638.0 L 774.0,663.0 C 770.648,654.364 761.251,646.525 754.0,641.0" style="stroke:#010101; fill:none;"/>
	<path d="M 691.0,641.0 C 696.807,649.839 707.386,655.14 716.0,661.0" style="stroke:#010101; fill:none;"/>
	<path d="M 627.0,643.0 L 687.0,644.0" style="stroke:#010101; fill:none;"/>
	<path d="M 689.0,642.0 L 691.0,644.0" style="stroke:#010101; fill:none;"/>
	<path d="M 705.0,642.0 L 731.0,661.0" style="stroke:#010101; fill:none;"/>
	<path d="M 367.0,643.0 C 366.06,664.878 347.86,681.757 325.0,675.0" style="stroke:#010101; fill:none;"/>
	<path d="M 693.0,643.0 L 726.0,663.0" style="stroke:#010101; fill:none;"/>
	<path d="M 722.0,643.0 L 726.0,646.0" style="stroke:#010101; fill:none;"/>
	<path d="M 610.0,646.0 L 610.0,644.0" style="stroke:#010101; fill:none;"/>
	<path d="M 632.0,644.0 C 633.536,648.506 637.762,647.965 642.0,647.997 C 651.853,648.071 666.166,651.714 675.0,647.0" style="stroke:#010101; fill:none;"/>
	<path d="M 635.0,644.0 L 635.0,647.0" style="stroke:#010101; fill:none;"/>
	<path d="M 714.0,644.0 L 724.0,651.0" style="stroke:#010101; fill:none;"/>
	<path d="M 626.0,645.0 L 620.0,648.0" style="stroke:#010101; fill:none;"/>
	<path d="M 682.0,648.0 L 674.0,650.0" style="stroke:#010101; fill:none;"/>
	<path d="M 734.0,650.0 L 748.0,658.225 L 788.0,689.0" style="stroke:#010101; fill:none;"/>
	<path d="M 698.0,649.0 L 696.0,651.0" style="stroke:#010101; fill:none;"/>
	<path d="M 769.0,649.0 C 782.078,662.187 794.257,677.574 803.0,694.0" style="stroke:#010101; fill:none;"/>
	<path d="M 828.0,650.0 C 845.592,672.89 854.27,705.559 862.0,733.0" style="stroke:#010101; fill:none;"/>
	<path d="M 834.0,650.0 L 836.0,652.0" style="stroke:#010101; fill:none;"/>
	<path d="M 685.0,651.0 L 687.0,650.0" style="stroke:#010101; fill:none;"/>
	<path d="M 726.0,652.0 L 735.0,660.0" style="stroke:#010101; fill:none;"/>
	<path d="M 729.0,652.0 L 770.0,678.0" style="stroke:#010101; fill:none;"/>
	<path d="M 491.0,751.0 C 494.676,741.203 496.794,731.411 501.782,722.0 C 515.527,696.063 546.007,664.388 574.0,654.0" style="stroke:#010101; fill:none;"/>
	<path d="M 642.0,655.0 C 657.68,650.365 677.864,654.667 694.0,655.0" style="stroke:#010101; fill:none;"/>
	<path d="M 261.0,657.0 L 265.0,656.0" style="stroke:#010101; fill:none;"/>
	<path d="M 648.0,658.0 L 698.0,658.0" style="stroke:#010101; fill:none;"/>
	<path d="M 378.0,658.0 L 373.0,678.0" style="stroke:#010101; fill:none;"/>
	<path d="M 264.0,659.0 L 266.0,659.0" style="stroke:#010101; fill:none;"/>
	<path d="M 847.0,659.0 L 868.0,681.0" style="stroke:#010101; fill:none;"/>
	<path d="M 657.0,661.0 L 691.0,660.0" style="stroke:#010101; fill:none;"/>
	<path d="M 259.0,669.0 C 262.282,663.022 269.692,661.849 276.0,661.0" style="stroke:#010101; fill:none;"/>
	<path d="M 774.0,663.0 L 798.0,693.0" style="stroke:#010101; fill:none;"/>
	<path d="M 273.0,665.0 L 278.0,664.0" style="stroke:#010101; fill:none;"/>
	<path d="M 277.0,668.0 L 281.0,668.0" style="stroke:#010101; fill:none;"/>
	<path d="M 285.0,672.0 L 291.0,672.0" style="stroke:#010101; fill:none;"/>
	<path d="M 289.0,675.0 L 293.0,674.0" style="stroke:#010101; fill:none;"/>
	<path d="M 296.0,680.0 L 299.0,679.0" style="stroke:#010101; fill:none;"/>
	<path d="M 772.0,680.0 L 773.0,681.0" style="stroke:#010101; fill:none;"/>
	<path d="M 303.0,681.0 L 305.0,681.0" style="stroke:#010101; fill:none;"/>
	<path d="M 364.0,685.0 L 369.0,682.0" style="stroke:#010101; fill:none;"/>
	<path d="M 310.0,684.0 L 311.0,684.0" style="stroke:#010101; fill:none;"/>
	<path d="M 855.0,685.0 L 862.0,713.0" style="stroke:#010101; fill:none;"/>
	<path d="M 669.0,690.0 L 664.0,706.0 L 672.0,707.0 L 669.0,715.0 L 663.0,709.0 L 662.0,717.0 L 665.0,713.0" style="stroke:#010101; fill:none;"/>
	<path d="M 859.0,690.0 C 866.532,700.281 873.717,710.791 881.373,721.0 C 884.255,724.842 886.805,730.366 892.0,730.0" style="stroke:#010101; fill:none;"/>
	<path d="M 644.0,691.0 L 641.0,701.0 C 646.083,701.105 652.938,704.035 656.0,699.0" style="stroke:#010101; fill:none;"/>
	<path d="M 622.0,693.0 L 623.0,703.0" style="stroke:#010101; fill:none;"/>
	<path d="M 663.0,695.0 L 662.0,704.0 L 657.0,703.0 C 655.463,708.191 654.673,714.138 660.0,717.0" style="stroke:#010101; fill:none;"/>
	<path d="M 664.0,699.0 L 666.0,699.0" style="stroke:#010101; fill:none;"/>
	<path d="M 663.0,700.0 L 665.0,702.0" style="stroke:#010101; fill:none;"/>
	<path d="M 626.0,703.0 L 640.0,702.0" style="stroke:#010101; fill:none;"/>
	<path d="M 616.0,702.0 L 608.0,712.0 L 612.0,710.0 C 615.137,713.859 616.464,718.256 622.0,717.0 L 616.0,707.0" style="stroke:#010101; fill:none;"/>
	<path d="M 624.0,702.0 C 624.823,711.971 636.522,719.862 646.0,715.0 L 640.0,702.0" style="stroke:#010101; fill:none;"/>
	<path d="M 617.0,705.0 L 623.0,703.0" style="stroke:#010101; fill:none;"/>
	<path d="M 687.0,703.0 L 681.0,715.0 L 690.0,719.0 L 697.0,706.0" style="stroke:#010101; fill:none;"/>
	<path d="M 706.0,703.0 C 703.317,714.322 701.595,715.26 711.0,723.0 L 716.0,714.0" style="stroke:#010101; fill:none;"/>
	<path d="M 662.0,704.0 L 664.0,706.0" style="stroke:#010101; fill:none;"/>
	<path d="M 647.0,705.0 L 646.0,713.0" style="stroke:#010101; fill:none;"/>
	<path d="M 679.0,706.0 L 672.0,707.0" style="stroke:#010101; fill:none;"/>
	<path d="M 665.0,707.0 L 663.0,709.0" style="stroke:#010101; fill:none;"/>
	<path d="M 691.0,708.0 L 689.0,714.0 L 691.0,714.0" style="stroke:#010101; fill:none;"/>
	<path d="M 601.0,709.0 C 601.65,714.7 604.229,721.57 611.0,719.0 L 609.0,713.0" style="stroke:#010101; fill:none;"/>
	<path d="M 680.0,709.0 L 682.0,710.0" style="stroke:#010101; fill:none;"/>
	<path d="M 684.0,709.0 L 687.0,714.0" style="stroke:#010101; fill:none;"/>
	<path d="M 603.0,712.0 L 607.0,709.0" style="stroke:#010101; fill:none;"/>
	<path d="M 677.0,710.0 C 672.74,719.073 681.602,724.03 687.0,730.0 L 694.0,724.0 L 690.0,726.0" style="stroke:#010101; fill:none;"/>
	<path d="M 626.0,711.0 C 626.693,715.301 628.202,716.218 632.0,714.0 L 632.0,714.0" style="stroke:#010101; fill:none;"/>
	<path d="M 600.0,713.0 L 588.0,723.0" style="stroke:#010101; fill:none;"/>
	<path d="M 655.0,716.0 L 652.0,715.0 L 655.0,713.0" style="stroke:#010101; fill:none;"/>
	<path d="M 694.0,713.0 L 701.0,718.0" style="stroke:#010101; fill:none;"/>
	<path d="M 646.0,715.0 L 652.0,715.0" style="stroke:#010101; fill:none;"/>
	<path d="M 669.0,715.0 L 675.0,719.0" style="stroke:#010101; fill:none;"/>
	<path d="M 681.0,715.0 L 677.0,719.0" style="stroke:#010101; fill:none;"/>
	<path d="M 664.0,716.0 L 668.0,718.0" style="stroke:#010101; fill:none;"/>
	<path d="M 616.0,717.0 L 611.0,719.0" style="stroke:#010101; fill:none;"/>
	<path d="M 622.0,717.0 L 626.0,717.0" style="stroke:#010101; fill:none;"/>
	<path d="M 640.0,717.0 C 633.952,728.909 621.356,733.377 621.054,749.0 C 620.553,774.947 654.15,789.428 674.0,775.211 C 691.827,762.444 690.222,749.015 687.0,730.0" style="stroke:#010101; fill:none;"/>
	<path d="M 682.0,717.0 L 686.0,717.0" style="stroke:#010101; fill:none;"/>
	<path d="M 701.0,719.0 L 695.0,726.0" style="stroke:#010101; fill:none;"/>
	<path d="M 690.0,720.0 L 685.0,726.0" style="stroke:#010101; fill:none;"/>
	<path d="M 606.0,721.0 C 593.079,730.199 580.736,736.866 571.0,750.0 C 577.451,753.956 585.055,753.691 592.0,756.323 C 602.856,760.438 613.104,766.993 623.0,772.997 C 628.39,776.267 634.694,781.946 641.0,779.0" style="stroke:#010101; fill:none;"/>
	<path d="M 712.0,722.0 L 717.0,726.0 L 703.0,738.0 C 708.631,740.376 712.764,740.182 718.0,737.0" style="stroke:#010101; fill:none;"/>
	<path d="M 695.0,723.0 L 696.0,723.0" style="stroke:#010101; fill:none;"/>
	<path d="M 711.0,723.0 L 698.0,730.0 L 698.0,725.0" style="stroke:#010101; fill:none;"/>
	<path d="M 686.0,725.0 L 689.0,728.0" style="stroke:#010101; fill:none;"/>
	<path d="M 718.0,726.0 L 738.0,750.0" style="stroke:#010101; fill:none;"/>
	<path d="M 693.0,729.0 L 697.0,731.0" style="stroke:#010101; fill:none;"/>
	<path d="M 698.0,732.0 L 703.0,736.0" style="stroke:#010101; fill:none;"/>
	<path d="M 890.0,732.0 L 873.884,783.0 L 842.0,905.0" style="stroke:#010101; fill:none;"/>
	<path d="M 593.0,734.0 C 587.908,738.057 584.735,742.718 583.0,749.0" style="stroke:#010101; fill:none;"/>
	<path d="M 655.96,734.89 C 665.595,732.589 662.796,753.702 653.985,755.003 C 640.162,757.045 646.847,737.067 655.96,734.89" style="stroke:#010101; fill:none;"/>
	<path d="M 716.0,734.0 L 710.0,741.0" style="stroke:#010101; fill:none;"/>
	<path d="M 710.0,741.0 C 712.649,748.751 716.0,752.467 724.0,754.0" style="stroke:#010101; fill:none;"/>
	<path d="M 712.0,744.0 L 722.0,742.0" style="stroke:#010101; fill:none;"/>
	<path d="M 717.0,745.0 L 728.0,747.0" style="stroke:#010101; fill:none;"/>
	<path d="M 715.0,754.0 C 716.424,759.917 718.841,763.019 725.0,764.0 L 719.0,754.0" style="stroke:#010101; fill:none;"/>
	<path d="M 725.0,758.0 L 732.0,758.0" style="stroke:#010101; fill:none;"/>
	<path d="M 719.0,763.0 C 719.452,772.705 710.712,774.29 703.0,777.579 C 688.623,783.709 665.361,792.449 651.0,782.0" style="stroke:#010101; fill:none;"/>
	<path d="M 726.0,765.0 L 743.0,766.0" style="stroke:#010101; fill:none;"/>
	<path d="M 724.0,769.0 C 729.075,774.59 736.796,773.037 743.0,770.0" style="stroke:#010101; fill:none;"/>
	<path d="M 609.0,775.0 L 611.0,774.0" style="stroke:#010101; fill:none;"/>
	<path d="M 617.0,779.0 L 616.0,780.0" style="stroke:#010101; fill:none;"/>
	<path d="M 624.0,781.0 L 623.0,783.0" style="stroke:#010101; fill:none;"/>
	<path d="M 715.0,782.0 L 722.0,781.0 L 726.0,787.0" style="stroke:#010101; fill:none;"/>
	<path d="M 723.0,782.0 L 732.0,784.0" style="stroke:#010101; fill:none;"/>
	<path d="M 594.0,784.0 L 598.0,789.0" style="stroke:#010101; fill:none;"/>
	<path d="M 634.0,786.0 L 635.0,790.0 L 636.0,788.0" style="stroke:#010101; fill:none;"/>
	<path d="M 715.0,787.0 L 720.0,790.0" style="stroke:#010101; fill:none;"/>
	<path d="M 689.0,789.0 L 696.0,788.0" style="stroke:#010101; fill:none;"/>
	<path d="M 698.0,788.0 L 713.0,792.0" style="stroke:#010101; fill:none;"/>
	<path d="M 642.0,789.0 L 638.0,802.0" style="stroke:#010101; fill:none;"/>
	<path d="M 661.0,789.0 L 674.0,801.0" style="stroke:#010101; fill:none;"/>
	<path d="M 682.0,789.0 L 688.0,794.0" style="stroke:#010101; fill:none;"/>
	<path d="M 701.0,789.0 L 703.0,791.0" style="stroke:#010101; fill:none;"/>
	<path d="M 633.0,790.0 L 633.0,799.0" style="stroke:#010101; fill:none;"/>
	<path d="M 635.0,790.0 L 635.0,792.0" style="stroke:#010101; fill:none;"/>
	<path d="M 645.0,790.0 L 649.0,797.0" style="stroke:#010101; fill:none;"/>
	<path d="M 600.0,791.0 L 603.0,793.0" style="stroke:#010101; fill:none;"/>
	<path d="M 674.0,791.0 L 681.0,800.0" style="stroke:#010101; fill:none;"/>
	<path d="M 694.0,791.0 L 696.0,792.0" style="stroke:#010101; fill:none;"/>
	<path d="M 657.0,793.0 L 660.0,805.0" style="stroke:#010101; fill:none;"/>
	<path d="M 666.0,793.0 L 668.0,800.0" style="stroke:#010101; fill:none;"/>
	<path d="M 605.0,794.0 L 610.0,797.0" style="stroke:#010101; fill:none;"/>
	<path d="M 649.0,794.0 L 653.0,802.0" style="stroke:#010101; fill:none;"/>
	<path d="M 614.0,799.0 L 616.0,800.0" style="stroke:#010101; fill:none;"/>
	<path d="M 347.0,848.0 L 351.0,846.0" style="stroke:#010101; fill:none;"/>
	<path d="M 345.0,849.0 L 336.0,856.0" style="stroke:#010101; fill:none;"/>
	<path d="M 331.0,862.0 C 312.867,877.476 318.259,897.553 333.0,913.0" style="stroke:#010101; fill:none;"/>
	<path d="M 512.0,893.0 C 515.476,908.019 521.78,921.125 518.0,937.0" style="stroke:#010101; fill:none;"/>
	<path d="M 341.0,909.0 C 333.32,902.519 342.914,899.412 348.961,903.275 C 356.751,908.253 361.315,917.942 367.0,925.0" style="stroke:#010101; fill:none;"/>
	<path d="M 413.0,943.0 C 428.421,931.242 454.052,927.458 467.0,945.0 C 456.847,950.847 447.266,944.137 442.0,935.0" style="stroke:#010101; fill:none;"/>
	<path d="M 834.0,935.0 C 825.909,946.33 820.046,959.249 812.564,971.0 C 802.882,986.207 792.042,1001.19 783.387,1017.0 C 773.714,1034.67 765.43,1054.23 754.405,1071.0 C 731.381,1106.03 701.712,1133.9 672.0,1163.0" style="stroke:#010101; fill:none;"/>
	<path d="M 515.0,938.0 C 510.547,970.91 476.234,981.347 450.0,966.0" style="stroke:#010101; fill:none;"/>
	<path d="M 375.0,940.0 C 380.981,947.037 389.803,951.248 399.0,952.0" style="stroke:#010101; fill:none;"/>
	<path d="M 127.0,965.0 L 132.0,956.0" style="stroke:#010101; fill:none;"/>
	<path d="M 375.0,1004.0 L 378.0,1006.0" style="stroke:#010101; fill:none;"/>
	<path d="M 137.0,1012.0 L 137.0,1013.0" style="stroke:#010101; fill:none;"/>
	<path d="M 270.0,1027.0 C 305.061,1018.96 337.477,1002.18 370.0,1027.0" style="stroke:#010101; fill:none;"/>
	<path d="M 138.0,1021.0 L 139.0,1021.0" style="stroke:#010101; fill:none;"/>
	<path d="M 379.0,1031.0 C 392.761,1033.55 406.294,1029.35 420.0,1033.44 C 440.912,1039.67 461.713,1063.03 477.0,1078.0" style="stroke:#010101; fill:none;"/>
	<path d="M 256.0,1034.0 C 268.835,1027.82 284.965,1044.55 298.0,1047.33 C 309.055,1049.69 321.028,1046.89 332.0,1049.31 C 341.608,1051.43 349.774,1058.12 359.0,1061.54 C 372.585,1066.57 388.753,1068.94 403.0,1072.53 C 414.284,1075.37 437.137,1081.44 441.0,1094.0 L 455.0,1100.0" style="stroke:#010101; fill:none;"/>
	<path d="M 331.0,1049.0 L 329.0,1062.0" style="stroke:#010101; fill:none;"/>
	<path d="M 308.0,1050.0 C 320.281,1062.25 334.715,1070.63 351.0,1076.3 C 362.402,1080.28 368.413,1074.45 378.0,1084.0 C 371.811,1085.0 365.191,1082.29 360.0,1079.0" style="stroke:#010101; fill:none;"/>
	<path d="M 321.0,1054.0 L 326.0,1053.0" style="stroke:#010101; fill:none;"/>
	<path d="M 374.0,1067.0 L 374.0,1070.0" style="stroke:#010101; fill:none;"/>
	<path d="M 755.0,1073.0 L 754.0,1079.0" style="stroke:#010101; fill:none;"/>
	<path d="M 272.0,1074.0 C 272.549,1099.77 304.565,1120.1 324.0,1132.0" style="stroke:#010101; fill:none;"/>
	<path d="M 372.0,1075.0 L 371.0,1076.0" style="stroke:#010101; fill:none;"/>
	<path d="M 379.0,1084.0 C 392.046,1089.61 412.899,1096.17 427.0,1092.0 L 424.0,1087.0 L 419.0,1090.0" style="stroke:#010101; fill:none;"/>
	<path d="M 424.0,1084.0 L 424.0,1087.0" style="stroke:#010101; fill:none;"/>
	<path d="M 427.0,1092.0 L 440.0,1095.0" style="stroke:#010101; fill:none;"/>
	<path d="M 461.0,1103.0 C 472.289,1108.26 487.473,1106.95 496.0,1117.0" style="stroke:#010101; fill:none;"/>
	<path d="M 331.0,1137.0 C 376.761,1158.48 422.007,1156.17 466.0,1133.0" style="stroke:#010101; fill:none;"/>
	<path d="M 607.0,1216.0 L 607.0,1223.0" style="stroke:#010101; fill:none;"/>
</svg>
