<?xml version="1.0" ?>
<svg baseProfile="full" height="1195" version="1.1" width="1310" xmlns="http://www.w3.org/2000/svg" xmlns:ev="http://www.w3.org/2001/xml-events" xmlns:xlink="http://www.w3.org/1999/xlink">
	<defs/>
	<path d="M 645.0,99.0 L 641.0,121.0" style="stroke:#010101; fill:none;"/>
	<path d="M 634.0,102.0 L 636.0,115.0" style="stroke:#010101; fill:none;"/>
	<path d="M 629.0,104.0 C 625.758,111.324 623.368,119.452 627.0,127.0" style="stroke:#010101; fill:none;"/>
	<path d="M 673.0,108.0 L 672.0,120.0" style="stroke:#010101; fill:none;"/>
	<path d="M 655.0,112.0 C 653.905,120.671 654.598,128.257 659.0,136.0" style="stroke:#010101; fill:none;"/>
	<path d="M 669.0,112.0 L 669.0,114.0" style="stroke:#010101; fill:none;"/>
	<path d="M 613.0,113.0 C 609.867,120.078 607.756,128.408 610.0,136.0" style="stroke:#010101; fill:none;"/>
	<path d="M 619.0,113.0 L 616.0,119.0 L 618.0,117.0" style="stroke:#010101; fill:none;"/>
	<path d="M 682.0,117.0 C 686.456,141.004 692.549,169.57 714.0,185.0 C 715.162,177.742 709.871,170.341 706.756,164.0 C 701.424,153.147 696.102,141.264 696.0,129.0" style="stroke:#010101; fill:none;"/>
	<path d="M 603.0,120.0 L 605.0,135.0" style="stroke:#010101; fill:none;"/>
	<path d="M 620.0,120.0 L 626.0,133.0" style="stroke:#010101; fill:none;"/>
	<path d="M 617.0,121.0 L 617.0,125.0" style="stroke:#010101; fill:none;"/>
	<path d="M 580.0,123.0 L 578.0,127.0 L 579.0,124.0" style="stroke:#010101; fill:none;"/>
	<path d="M 586.0,123.0 L 582.0,126.0" style="stroke:#010101; fill:none;"/>
	<path d="M 590.0,123.0 L 587.0,136.0" style="stroke:#010101; fill:none;"/>
	<path d="M 578.0,127.0 L 559.0,140.0 C 559.507,137.387 559.539,137.171 562.0,138.0" style="stroke:#010101; fill:none;"/>
	<path d="M 568.0,129.0 L 566.0,134.0" style="stroke:#010101; fill:none;"/>
	<path d="M 559.0,140.0 C 541.264,155.348 513.558,164.805 500.0,184.0 L 512.0,192.0 L 514.0,190.0 L 509.0,186.0" style="stroke:#010101; fill:none;"/>
	<path d="M 516.0,161.0 L 513.0,164.0" style="stroke:#010101; fill:none;"/>
	<path d="M 499.0,183.0 L 456.384,224.424 L 453.476,235.454 L 445.921,234.329 L 440.0,240.0 C 443.613,241.942 449.703,245.407 453.953,244.223 C 461.766,242.047 468.281,222.212 469.0,215.0" style="stroke:#010101; fill:none;"/>
	<path d="M 714.0,185.0 C 721.347,194.29 722.322,204.157 726.0,215.0" style="stroke:#010101; fill:none;"/>
	<path d="M 485.0,188.0 L 469.0,204.0" style="stroke:#010101; fill:none;"/>
	<path d="M 518.0,192.0 L 517.0,196.0 L 518.0,188.0 L 522.0,192.0 L 523.0,191.0 L 524.0,190.0 L 523.0,189.0 L 522.0,188.0" style="stroke:#010101; fill:none;"/>
	<path d="M 514.0,189.0 L 516.0,191.0" style="stroke:#010101; fill:none;"/>
	<path d="M 524.0,191.0 C 526.512,194.228 527.048,195.42 525.0,199.0 L 519.0,194.0" style="stroke:#010101; fill:none;"/>
	<path d="M 522.0,192.0 L 520.0,194.0" style="stroke:#010101; fill:none;"/>
	<path d="M 734.0,193.0 L 735.0,200.0" style="stroke:#010101; fill:none;"/>
	<path d="M 526.0,194.0 L 524.0,196.0" style="stroke:#010101; fill:none;"/>
	<path d="M 517.0,197.0 L 518.0,198.0" style="stroke:#010101; fill:none;"/>
	<path d="M 521.0,197.0 L 522.0,201.0 C 542.877,195.161 553.659,228.575 554.0,245.0" style="stroke:#010101; fill:none;"/>
	<path d="M 529.0,198.0 L 529.0,199.0" style="stroke:#010101; fill:none;"/>
	<path d="M 530.0,200.0 L 536.0,203.0" style="stroke:#010101; fill:none;"/>
	<path d="M 746.0,200.0 L 747.0,202.0" style="stroke:#010101; fill:none;"/>
	<path d="M 526.0,201.0 L 530.0,209.0" style="stroke:#010101; fill:none;"/>
	<path d="M 522.0,202.0 L 524.0,208.0" style="stroke:#010101; fill:none;"/>
	<path d="M 530.0,202.0 L 528.0,204.0" style="stroke:#010101; fill:none;"/>
	<path d="M 736.0,203.0 C 736.468,213.74 744.907,242.836 757.0,245.0 L 754.0,244.0" style="stroke:#010101; fill:none;"/>
	<path d="M 531.0,204.0 L 532.0,208.0 L 534.0,206.0" style="stroke:#010101; fill:none;"/>
	<path d="M 746.0,204.0 L 756.0,242.0" style="stroke:#010101; fill:none;"/>
	<path d="M 751.0,205.0 C 755.047,220.637 758.378,234.807 773.0,244.0" style="stroke:#010101; fill:none;"/>
	<path d="M 533.0,208.0 L 543.0,234.0" style="stroke:#010101; fill:none;"/>
	<path d="M 531.0,209.0 L 531.0,211.0" style="stroke:#010101; fill:none;"/>
	<path d="M 541.0,210.0 L 543.0,214.0" style="stroke:#010101; fill:none;"/>
	<path d="M 531.0,211.0 L 535.0,213.0" style="stroke:#010101; fill:none;"/>
	<path d="M 534.0,211.0 L 534.0,212.0" style="stroke:#010101; fill:none;"/>
	<path d="M 529.0,212.0 L 531.0,222.0" style="stroke:#010101; fill:none;"/>
	<path d="M 533.0,213.0 L 537.0,220.0" style="stroke:#010101; fill:none;"/>
	<path d="M 535.0,213.0 L 535.0,218.0 L 537.0,216.0" style="stroke:#010101; fill:none;"/>
	<path d="M 545.0,214.0 L 544.0,218.0 L 546.0,216.0" style="stroke:#010101; fill:none;"/>
	<path d="M 547.0,218.0 L 544.0,219.0" style="stroke:#010101; fill:none;"/>
	<path d="M 535.0,220.0 L 538.0,230.0" style="stroke:#010101; fill:none;"/>
	<path d="M 545.0,220.0 L 548.0,221.0" style="stroke:#010101; fill:none;"/>
	<path d="M 759.0,220.0 L 771.0,241.0" style="stroke:#010101; fill:none;"/>
	<path d="M 537.0,221.0 L 536.0,222.0" style="stroke:#010101; fill:none;"/>
	<path d="M 546.0,223.0 L 551.0,235.0" style="stroke:#010101; fill:none;"/>
	<path d="M 449.0,224.0 L 431.0,241.0" style="stroke:#010101; fill:none;"/>
	<path d="M 536.0,225.0 L 536.0,226.0" style="stroke:#010101; fill:none;"/>
	<path d="M 466.0,228.0 L 489.0,227.0 C 487.834,230.945 486.953,237.754 490.0,241.0" style="stroke:#010101; fill:none;"/>
	<path d="M 550.0,226.0 L 548.0,228.0" style="stroke:#010101; fill:none;"/>
	<path d="M 489.0,227.0 L 505.0,230.0" style="stroke:#010101; fill:none;"/>
	<path d="M 547.0,227.0 L 547.0,230.0" style="stroke:#010101; fill:none;"/>
	<path d="M 446.0,233.0 L 453.0,228.0" style="stroke:#010101; fill:none;"/>
	<path d="M 444.0,229.0 L 447.0,232.0" style="stroke:#010101; fill:none;"/>
	<path d="M 503.0,230.0 C 504.058,235.929 499.851,238.521 499.282,244.0 C 498.708,249.536 503.529,254.341 507.0,258.0 L 508.0,251.0" style="stroke:#010101; fill:none;"/>
	<path d="M 467.0,231.0 L 470.0,239.0 C 466.064,240.777 463.697,240.12 460.0,238.0" style="stroke:#010101; fill:none;"/>
	<path d="M 546.0,231.0 L 547.0,242.0" style="stroke:#010101; fill:none;"/>
	<path d="M 477.0,233.0 C 477.564,239.414 487.925,254.754 491.0,242.0" style="stroke:#010101; fill:none;"/>
	<path d="M 506.0,234.0 C 518.748,244.118 528.627,257.186 530.0,274.0" style="stroke:#010101; fill:none;"/>
	<path d="M 456.0,235.0 L 459.0,238.0" style="stroke:#010101; fill:none;"/>
	<path d="M 543.0,236.0 L 544.0,239.0" style="stroke:#010101; fill:none;"/>
	<path d="M 550.0,236.0 C 553.032,252.334 549.203,272.349 534.0,281.521 C 526.529,286.028 517.105,286.835 509.0,289.914 C 484.099,299.376 455.348,306.261 433.0,321.0" style="stroke:#010101; fill:none;"/>
	<path d="M 437.0,237.0 L 440.0,240.0" style="stroke:#010101; fill:none;"/>
	<path d="M 443.0,238.0 L 444.0,240.0" style="stroke:#010101; fill:none;"/>
	<path d="M 439.0,239.0 L 432.0,245.0" style="stroke:#010101; fill:none;"/>
	<path d="M 454.0,239.0 L 458.0,239.0" style="stroke:#010101; fill:none;"/>
	<path d="M 487.0,239.0 L 487.0,240.0" style="stroke:#010101; fill:none;"/>
	<path d="M 781.0,240.0 C 786.339,267.532 801.265,288.304 813.0,313.0" style="stroke:#010101; fill:none;"/>
	<path d="M 470.0,242.0 L 480.0,244.0" style="stroke:#010101; fill:none;"/>
	<path d="M 488.0,243.0 L 491.0,246.0" style="stroke:#010101; fill:none;"/>
	<path d="M 474.0,244.0 L 457.0,250.0" style="stroke:#010101; fill:none;"/>
	<path d="M 491.0,246.0 C 494.02,248.48 495.317,249.42 499.0,248.0" style="stroke:#010101; fill:none;"/>
	<path d="M 756.0,246.0 L 775.0,267.0" style="stroke:#010101; fill:none;"/>
	<path d="M 517.0,248.0 L 512.222,262.0 L 523.0,281.0" style="stroke:#010101; fill:none;"/>
	<path d="M 494.0,250.0 C 489.816,253.438 484.062,255.328 480.419,259.329 C 475.098,265.172 475.8,278.352 479.0,285.0 C 470.77,286.59 456.137,276.242 454.304,267.999 C 452.882,261.605 456.31,255.853 460.0,251.0" style="stroke:#010101; fill:none;"/>
	<path d="M 497.0,250.0 L 501.0,254.0" style="stroke:#010101; fill:none;"/>
	<path d="M 449.0,251.0 L 423.0,274.961 L 356.039,324.729 L 317.0,365.0" style="stroke:#010101; fill:none;"/>
	<path d="M 452.0,256.0 C 448.35,261.766 448.61,264.841 451.0,271.0 L 440.0,273.0" style="stroke:#010101; fill:none;"/>
	<path d="M 431.0,258.0 L 407.0,277.254 L 383.0,292.0" style="stroke:#010101; fill:none;"/>
	<path d="M 508.0,258.0 L 511.0,261.0" style="stroke:#010101; fill:none;"/>
	<path d="M 440.0,259.0 L 444.0,260.0" style="stroke:#010101; fill:none;"/>
	<path d="M 805.0,266.0 L 807.0,276.0" style="stroke:#010101; fill:none;"/>
	<path d="M 434.0,274.0 L 447.0,267.0" style="stroke:#010101; fill:none;"/>
	<path d="M 498.0,269.0 C 515.267,268.016 507.157,291.445 496.149,280.877 C 494.613,279.401 493.879,277.877 493.0,276.0" style="stroke:#010101; fill:none;"/>
	<path d="M 507.0,270.0 L 510.0,275.0" style="stroke:#010101; fill:none;"/>
	<path d="M 452.0,272.0 L 454.0,271.0" style="stroke:#010101; fill:none;"/>
	<path d="M 454.0,273.0 L 458.0,279.0" style="stroke:#010101; fill:none;"/>
	<path d="M 497.0,281.0 L 509.0,275.0" style="stroke:#010101; fill:none;"/>
	<path d="M 455.0,278.0 L 451.0,281.0 L 462.0,282.0" style="stroke:#010101; fill:none;"/>
	<path d="M 456.0,281.0 L 456.0,282.0" style="stroke:#010101; fill:none;"/>
	<path d="M 451.0,282.0 C 449.804,284.242 449.758,284.196 452.0,283.0" style="stroke:#010101; fill:none;"/>
	<path d="M 448.0,286.0 C 447.619,284.093 447.453,283.544 449.0,285.0" style="stroke:#010101; fill:none;"/>
	<path d="M 618.0,294.0 C 626.708,286.184 636.587,284.001 648.0,284.0" style="stroke:#010101; fill:none;"/>
	<path d="M 446.0,286.0 L 447.0,287.0" style="stroke:#010101; fill:none;"/>
	<path d="M 479.0,286.0 L 491.0,291.0" style="stroke:#010101; fill:none;"/>
	<path d="M 637.0,288.0 L 657.0,289.0" style="stroke:#010101; fill:none;"/>
	<path d="M 810.0,286.0 L 816.0,306.0" style="stroke:#010101; fill:none;"/>
	<path d="M 462.0,289.0 L 469.0,287.0" style="stroke:#010101; fill:none;"/>
	<path d="M 651.0,287.0 L 644.0,290.0 L 670.0,297.0 L 641.0,298.0 C 644.602,301.602 671.277,301.911 670.0,298.0" style="stroke:#010101; fill:none;"/>
	<path d="M 625.0,292.0 L 635.0,289.0" style="stroke:#010101; fill:none;"/>
	<path d="M 645.0,291.0 L 643.0,293.0 L 644.0,290.0" style="stroke:#010101; fill:none;"/>
	<path d="M 641.0,290.0 L 631.0,293.0" style="stroke:#010101; fill:none;"/>
	<path d="M 468.0,293.0 L 477.0,291.0" style="stroke:#010101; fill:none;"/>
	<path d="M 636.0,292.0 L 638.0,292.0" style="stroke:#010101; fill:none;"/>
	<path d="M 478.0,293.0 L 483.0,293.0" style="stroke:#010101; fill:none;"/>
	<path d="M 640.0,293.0 L 641.0,293.0" style="stroke:#010101; fill:none;"/>
	<path d="M 631.0,296.0 L 630.0,294.0" style="stroke:#010101; fill:none;"/>
	<path d="M 647.0,294.0 L 657.0,295.0" style="stroke:#010101; fill:none;"/>
	<path d="M 625.0,297.0 L 628.0,295.0" style="stroke:#010101; fill:none;"/>
	<path d="M 460.0,296.0 L 464.0,297.0" style="stroke:#010101; fill:none;"/>
	<path d="M 629.0,297.0 L 626.0,300.0" style="stroke:#010101; fill:none;"/>
	<path d="M 633.0,300.0 L 640.0,298.0" style="stroke:#010101; fill:none;"/>
	<path d="M 673.0,300.0 L 703.0,310.0 C 687.15,316.051 667.224,298.91 650.0,304.0 C 657.418,308.02 671.705,309.404 680.0,308.0" style="stroke:#010101; fill:none;"/>
	<path d="M 643.0,303.0 L 650.0,304.0" style="stroke:#010101; fill:none;"/>
	<path d="M 692.0,306.0 L 693.0,308.0" style="stroke:#010101; fill:none;"/>
	<path d="M 682.0,307.0 L 683.0,308.0" style="stroke:#010101; fill:none;"/>
	<path d="M 690.0,307.0 L 688.0,309.0" style="stroke:#010101; fill:none;"/>
	<path d="M 695.0,307.0 L 694.0,309.0" style="stroke:#010101; fill:none;"/>
	<path d="M 698.0,308.0 L 695.0,311.0" style="stroke:#010101; fill:none;"/>
	<path d="M 816.0,308.0 L 831.0,347.0" style="stroke:#010101; fill:none;"/>
	<path d="M 699.0,309.0 L 699.0,311.0" style="stroke:#010101; fill:none;"/>
	<path d="M 653.0,310.0 L 682.0,313.0 L 677.0,314.0" style="stroke:#010101; fill:none;"/>
	<path d="M 704.0,310.0 L 710.0,314.0 L 702.0,312.0" style="stroke:#010101; fill:none;"/>
	<path d="M 673.0,311.0 L 676.0,312.0" style="stroke:#010101; fill:none;"/>
	<path d="M 705.0,311.0 L 703.0,313.0" style="stroke:#010101; fill:none;"/>
	<path d="M 546.0,325.0 C 564.424,315.292 588.556,313.625 609.0,313.0" style="stroke:#010101; fill:none;"/>
	<path d="M 682.0,313.0 L 704.0,314.0" style="stroke:#010101; fill:none;"/>
	<path d="M 707.0,313.0 L 705.0,315.0" style="stroke:#010101; fill:none;"/>
	<path d="M 710.0,314.0 C 726.471,318.923 762.555,340.091 754.0,360.0 C 750.804,355.606 750.475,350.442 747.505,346.005 C 745.965,343.705 742.382,340.047 743.0,345.0 L 744.0,345.0 L 745.0,344.0" style="stroke:#010101; fill:none;"/>
	<path d="M 682.0,315.0 L 708.0,321.358 L 722.0,325.0 L 722.0,322.0" style="stroke:#010101; fill:none;"/>
	<path d="M 714.0,315.0 L 709.0,316.0" style="stroke:#010101; fill:none;"/>
	<path d="M 716.0,317.0 L 714.0,317.0" style="stroke:#010101; fill:none;"/>
	<path d="M 717.0,320.0 L 718.0,320.0" style="stroke:#010101; fill:none;"/>
	<path d="M 724.0,323.0 L 726.0,326.0 L 723.0,327.0" style="stroke:#010101; fill:none;"/>
	<path d="M 728.0,323.0 L 726.0,325.0" style="stroke:#010101; fill:none;"/>
	<path d="M 431.0,325.0 C 424.216,332.11 417.534,344.071 416.008,354.0 C 413.69,369.092 418.802,380.455 412.0,395.0" style="stroke:#010101; fill:none;"/>
	<path d="M 731.0,325.0 L 735.0,331.0" style="stroke:#010101; fill:none;"/>
	<path d="M 347.0,327.0 L 352.0,327.0" style="stroke:#010101; fill:none;"/>
	<path d="M 726.0,327.0 L 734.0,330.0" style="stroke:#010101; fill:none;"/>
	<path d="M 733.0,330.0 L 735.0,337.0 L 736.0,334.0" style="stroke:#010101; fill:none;"/>
	<path d="M 538.0,333.0 L 516.0,347.0" style="stroke:#010101; fill:none;"/>
	<path d="M 737.0,335.0 L 743.0,341.0" style="stroke:#010101; fill:none;"/>
	<path d="M 640.0,345.0 C 639.761,365.19 614.791,353.512 619.618,342.253 C 622.332,335.923 644.313,338.187 650.0,338.895 C 679.083,342.515 699.964,373.673 706.0,400.0" style="stroke:#010101; fill:none;"/>
	<path d="M 735.0,338.0 L 741.0,340.0" style="stroke:#010101; fill:none;"/>
	<path d="M 608.0,344.0 L 619.0,342.0" style="stroke:#010101; fill:none;"/>
	<path d="M 624.0,343.0 C 625.268,352.146 631.087,352.824 631.0,343.0" style="stroke:#010101; fill:none;"/>
	<path d="M 835.0,344.0 L 838.0,378.0 L 840.0,367.0" style="stroke:#010101; fill:none;"/>
	<path d="M 614.0,345.0 C 614.563,348.592 615.422,350.12 619.0,351.0" style="stroke:#010101; fill:none;"/>
	<path d="M 645.0,347.0 C 641.95,356.275 638.711,356.272 631.0,351.0" style="stroke:#010101; fill:none;"/>
	<path d="M 625.0,350.0 L 623.0,352.0" style="stroke:#010101; fill:none;"/>
	<path d="M 658.0,350.0 C 650.875,359.372 653.108,362.838 662.0,369.0 L 652.0,373.0 L 654.0,365.0" style="stroke:#010101; fill:none;"/>
	<path d="M 617.0,352.0 L 620.0,357.0 C 613.159,362.216 611.961,366.12 610.0,374.0 C 605.488,371.706 594.374,361.115 598.697,355.51 C 601.618,351.723 609.632,351.19 614.0,351.0" style="stroke:#010101; fill:none;"/>
	<path d="M 752.0,351.0 L 755.0,355.0" style="stroke:#010101; fill:none;"/>
	<path d="M 628.0,352.0 L 628.0,355.0" style="stroke:#010101; fill:none;"/>
	<path d="M 417.0,354.0 L 417.0,356.0" style="stroke:#010101; fill:none;"/>
	<path d="M 625.0,355.0 L 620.0,357.0" style="stroke:#010101; fill:none;"/>
	<path d="M 759.0,355.0 L 764.0,368.0" style="stroke:#010101; fill:none;"/>
	<path d="M 414.0,357.0 C 412.697,362.475 412.306,367.952 415.0,373.0" style="stroke:#010101; fill:none;"/>
	<path d="M 643.0,357.0 L 647.0,358.0 C 644.004,359.424 643.433,359.274 641.0,357.0" style="stroke:#010101; fill:none;"/>
	<path d="M 756.0,358.0 L 753.0,359.0" style="stroke:#010101; fill:none;"/>
	<path d="M 608.0,370.0 C 605.994,363.0 609.272,359.472 616.0,358.0" style="stroke:#010101; fill:none;"/>
	<path d="M 648.0,358.0 L 652.0,360.0" style="stroke:#010101; fill:none;"/>
	<path d="M 756.0,358.0 L 758.0,358.0" style="stroke:#010101; fill:none;"/>
	<path d="M 455.0,362.0 C 471.929,351.63 485.682,367.878 495.0,380.0" style="stroke:#010101; fill:none;"/>
	<path d="M 832.0,359.0 L 833.0,383.0" style="stroke:#010101; fill:none;"/>
	<path d="M 754.0,360.0 L 756.0,365.0 L 759.0,361.0" style="stroke:#010101; fill:none;"/>
	<path d="M 421.0,361.0 L 423.0,382.0" style="stroke:#010101; fill:none;"/>
	<path d="M 644.0,362.0 L 649.0,367.0" style="stroke:#010101; fill:none;"/>
	<path d="M 666.0,363.0 L 662.0,368.0" style="stroke:#010101; fill:none;"/>
	<path d="M 325.0,364.0 C 304.6,392.566 293.448,427.757 280.551,460.0 C 265.29,498.151 242.079,540.757 247.286,583.0 C 249.89,604.125 271.571,625.477 286.001,640.0 C 298.879,652.961 311.118,664.162 302.0,683.0" style="stroke:#010101; fill:none;"/>
	<path d="M 757.0,364.0 L 761.0,364.0" style="stroke:#010101; fill:none;"/>
	<path d="M 756.0,365.0 C 757.72,373.382 769.498,373.277 763.0,383.0 L 761.0,374.0" style="stroke:#010101; fill:none;"/>
	<path d="M 656.0,366.0 L 656.0,371.0" style="stroke:#010101; fill:none;"/>
	<path d="M 760.0,366.0 L 762.0,368.0" style="stroke:#010101; fill:none;"/>
	<path d="M 760.0,368.0 L 761.0,371.0" style="stroke:#010101; fill:none;"/>
	<path d="M 764.0,368.0 L 765.0,373.0" style="stroke:#010101; fill:none;"/>
	<path d="M 763.0,369.0 L 761.0,371.0" style="stroke:#010101; fill:none;"/>
	<path d="M 608.0,370.0 L 610.0,370.0" style="stroke:#010101; fill:none;"/>
	<path d="M 663.0,371.0 C 667.771,374.156 680.279,382.722 680.539,389.001 C 680.772,394.621 670.831,404.565 665.0,403.073 C 660.297,401.868 657.541,396.692 655.0,393.0" style="stroke:#010101; fill:none;"/>
	<path d="M 763.0,371.0 L 763.0,372.0" style="stroke:#010101; fill:none;"/>
	<path d="M 678.0,373.0 L 672.0,378.0" style="stroke:#010101; fill:none;"/>
	<path d="M 759.0,373.0 L 760.0,374.0" style="stroke:#010101; fill:none;"/>
	<path d="M 644.0,406.0 C 638.094,394.792 637.024,379.43 651.0,374.0" style="stroke:#010101; fill:none;"/>
	<path d="M 765.0,374.0 L 763.0,376.0" style="stroke:#010101; fill:none;"/>
	<path d="M 611.0,375.0 C 613.844,380.618 619.909,385.291 624.17,390.0 C 635.583,402.615 645.746,410.606 660.0,419.296 C 664.956,422.318 675.502,427.315 681.544,425.346 C 684.907,424.251 687.749,419.533 690.0,417.0 C 693.993,424.871 692.615,427.65 684.0,427.0" style="stroke:#010101; fill:none;"/>
	<path d="M 761.0,376.0 L 761.0,378.0" style="stroke:#010101; fill:none;"/>
	<path d="M 508.0,377.0 C 524.752,402.641 510.933,446.094 475.0,436.0" style="stroke:#010101; fill:none;"/>
	<path d="M 595.0,379.0 C 602.023,377.696 605.52,378.348 611.0,383.0 C 606.831,384.241 602.493,385.098 600.0,381.0" style="stroke:#010101; fill:none;"/>
	<path d="M 838.0,378.0 L 833.0,417.0" style="stroke:#010101; fill:none;"/>
	<path d="M 436.0,393.0 C 432.32,379.017 449.422,381.641 457.0,385.0 C 454.694,393.406 461.067,401.194 465.298,407.999 C 466.857,410.507 469.922,416.08 473.696,413.914 C 477.14,411.937 475.297,406.829 474.301,404.0 C 471.233,395.288 465.823,388.236 457.0,385.0" style="stroke:#010101; fill:none;"/>
	<path d="M 605.0,381.0 L 606.0,381.0" style="stroke:#010101; fill:none;"/>
	<path d="M 767.0,382.0 C 765.253,385.358 764.326,387.094 767.0,390.0 L 767.0,385.0" style="stroke:#010101; fill:none;"/>
	<path d="M 673.0,383.0 C 671.768,388.323 674.208,390.515 678.0,394.0" style="stroke:#010101; fill:none;"/>
	<path d="M 600.0,384.0 L 598.0,387.0" style="stroke:#010101; fill:none;"/>
	<path d="M 660.0,384.0 L 670.0,386.0" style="stroke:#010101; fill:none;"/>
	<path d="M 763.0,384.0 L 764.0,385.0" style="stroke:#010101; fill:none;"/>
	<path d="M 602.0,385.0 C 609.827,409.734 634.967,429.809 656.0,443.0" style="stroke:#010101; fill:none;"/>
	<path d="M 612.0,385.0 L 614.0,385.0" style="stroke:#010101; fill:none;"/>
	<path d="M 422.0,386.0 L 419.0,393.0" style="stroke:#010101; fill:none;"/>
	<path d="M 616.0,386.0 L 619.0,388.0" style="stroke:#010101; fill:none;"/>
	<path d="M 666.0,386.0 C 666.071,391.969 664.42,395.331 658.0,394.0" style="stroke:#010101; fill:none;"/>
	<path d="M 624.0,390.0 L 614.0,394.0" style="stroke:#010101; fill:none;"/>
	<path d="M 682.0,391.0 C 687.335,397.574 696.526,406.337 697.0,415.0 L 691.0,417.0" style="stroke:#010101; fill:none;"/>
	<path d="M 688.0,398.0 L 699.0,392.0" style="stroke:#010101; fill:none;"/>
	<path d="M 767.0,392.0 L 770.0,411.0" style="stroke:#010101; fill:none;"/>
	<path d="M 624.0,397.0 L 617.0,398.0 L 627.0,394.0" style="stroke:#010101; fill:none;"/>
	<path d="M 423.0,396.0 L 430.0,400.0" style="stroke:#010101; fill:none;"/>
	<path d="M 617.0,398.0 L 612.0,402.0" style="stroke:#010101; fill:none;"/>
	<path d="M 621.0,400.0 C 623.723,405.47 627.058,410.26 632.0,404.0 L 630.0,405.0" style="stroke:#010101; fill:none;"/>
	<path d="M 683.0,404.0 C 681.898,414.686 671.7,418.793 662.0,419.0" style="stroke:#010101; fill:none;"/>
	<path d="M 767.0,405.0 L 768.0,408.0" style="stroke:#010101; fill:none;"/>
	<path d="M 690.0,406.0 L 693.0,415.0" style="stroke:#010101; fill:none;"/>
	<path d="M 628.0,409.0 L 636.0,408.0" style="stroke:#010101; fill:none;"/>
	<path d="M 767.0,409.0 L 769.0,419.0" style="stroke:#010101; fill:none;"/>
	<path d="M 641.0,410.0 L 639.0,414.0" style="stroke:#010101; fill:none;"/>
	<path d="M 319.0,437.0 C 326.421,428.943 333.072,420.757 343.0,415.633 C 352.444,410.76 367.999,407.725 376.787,415.474 C 382.622,420.619 385.993,428.422 392.09,433.741 C 398.9,439.682 409.353,442.537 415.24,449.213 C 432.823,469.151 439.755,499.848 449.0,524.0" style="stroke:#010101; fill:none;"/>
	<path d="M 630.0,411.0 L 638.0,420.0" style="stroke:#010101; fill:none;"/>
	<path d="M 710.0,412.0 L 695.0,425.0" style="stroke:#010101; fill:none;"/>
	<path d="M 292.0,414.0 L 298.0,415.0" style="stroke:#010101; fill:none;"/>
	<path d="M 643.0,416.0 L 642.0,421.0" style="stroke:#010101; fill:none;"/>
	<path d="M 698.0,416.0 L 700.0,419.0" style="stroke:#010101; fill:none;"/>
	<path d="M 702.0,419.0 L 714.0,416.0" style="stroke:#010101; fill:none;"/>
	<path d="M 646.0,419.0 L 645.0,423.0" style="stroke:#010101; fill:none;"/>
	<path d="M 654.0,422.0 L 653.0,426.0 C 656.818,428.051 658.869,429.471 658.0,434.0" style="stroke:#010101; fill:none;"/>
	<path d="M 700.0,423.0 C 701.771,428.97 708.441,431.276 714.0,433.0" style="stroke:#010101; fill:none;"/>
	<path d="M 652.0,427.0 L 651.0,429.0" style="stroke:#010101; fill:none;"/>
	<path d="M 655.0,428.0 L 653.0,430.0" style="stroke:#010101; fill:none;"/>
	<path d="M 660.0,431.0 L 663.0,428.0 L 667.0,430.0" style="stroke:#010101; fill:none;"/>
	<path d="M 666.0,430.0 L 664.0,433.0" style="stroke:#010101; fill:none;"/>
	<path d="M 671.0,430.0 L 680.0,439.0" style="stroke:#010101; fill:none;"/>
	<path d="M 850.0,430.0 L 847.0,478.0" style="stroke:#010101; fill:none;"/>
	<path d="M 678.0,431.0 L 688.0,441.0" style="stroke:#010101; fill:none;"/>
	<path d="M 683.0,431.0 L 686.0,432.0" style="stroke:#010101; fill:none;"/>
	<path d="M 682.0,435.0 L 683.0,436.0" style="stroke:#010101; fill:none;"/>
	<path d="M 687.0,435.0 L 689.0,438.0" style="stroke:#010101; fill:none;"/>
	<path d="M 317.0,443.0 L 332.0,453.426 L 349.0,456.302 L 373.0,476.55 L 411.0,500.0 C 416.063,486.749 386.542,475.177 379.039,467.91 C 375.736,464.71 371.372,457.133 366.058,457.306 C 362.875,457.41 361.395,461.719 360.0,464.0" style="stroke:#010101; fill:none;"/>
	<path d="M 850.0,450.0 L 848.0,453.0" style="stroke:#010101; fill:none;"/>
	<path d="M 854.0,453.0 C 853.991,466.498 851.281,481.569 846.0,494.0" style="stroke:#010101; fill:none;"/>
	<path d="M 351.0,456.0 C 355.742,453.47 360.258,453.47 365.0,456.0" style="stroke:#010101; fill:none;"/>
	<path d="M 856.0,465.0 L 856.0,466.0" style="stroke:#010101; fill:none;"/>
	<path d="M 856.0,468.0 L 856.0,469.0" style="stroke:#010101; fill:none;"/>
	<path d="M 317.0,469.0 C 317.253,497.321 357.169,514.715 378.0,527.0" style="stroke:#010101; fill:none;"/>
	<path d="M 855.0,475.0 L 853.0,478.0" style="stroke:#010101; fill:none;"/>
	<path d="M 382.0,482.0 L 385.0,480.0" style="stroke:#010101; fill:none;"/>
	<path d="M 847.0,486.0 C 833.601,502.943 827.993,522.133 818.61,541.0 C 814.278,549.709 806.694,558.05 801.0,566.0" style="stroke:#010101; fill:none;"/>
	<path d="M 856.0,495.0 L 822.659,551.0 L 809.0,577.0" style="stroke:#010101; fill:none;"/>
	<path d="M 413.0,499.0 L 428.0,514.0" style="stroke:#010101; fill:none;"/>
	<path d="M 426.0,513.0 C 429.538,528.056 444.544,538.723 457.0,546.0" style="stroke:#010101; fill:none;"/>
	<path d="M 386.0,527.0 C 399.239,536.418 417.084,537.373 432.0,543.0" style="stroke:#010101; fill:none;"/>
	<path d="M 451.0,530.0 L 458.0,542.0" style="stroke:#010101; fill:none;"/>
	<path d="M 817.0,547.0 L 817.0,559.0" style="stroke:#010101; fill:none;"/>
	<path d="M 814.0,558.0 L 816.0,561.0" style="stroke:#010101; fill:none;"/>
	<path d="M 243.0,572.0 L 245.0,571.0" style="stroke:#010101; fill:none;"/>
	<path d="M 803.0,589.0 C 788.046,605.432 779.82,629.504 767.254,648.0 C 747.315,677.347 723.218,702.302 698.0,727.0" style="stroke:#010101; fill:none;"/>
	<path d="M 882.0,617.0 C 880.267,620.283 878.679,620.899 875.0,621.0" style="stroke:#010101; fill:none;"/>
	<path d="M 890.0,617.0 L 883.0,621.0" style="stroke:#010101; fill:none;"/>
	<path d="M 890.0,622.0 C 900.304,623.387 912.161,626.998 921.0,632.544 C 926.578,636.044 932.759,643.957 939.0,645.0 L 941.0,673.0" style="stroke:#010101; fill:none;"/>
	<path d="M 879.0,623.0 L 878.0,624.0" style="stroke:#010101; fill:none;"/>
	<path d="M 862.0,634.0 C 848.903,652.396 838.676,676.162 830.0,697.0" style="stroke:#010101; fill:none;"/>
	<path d="M 864.0,649.0 L 882.0,643.0 L 863.0,642.0 C 873.047,630.321 902.804,636.482 915.0,642.123 C 919.633,644.265 926.078,646.99 928.107,652.04 C 930.652,658.378 927.507,665.891 925.706,672.0 C 918.215,697.405 897.389,707.026 875.0,717.0" style="stroke:#010101; fill:none;"/>
	<path d="M 927.0,637.0 L 927.0,639.0" style="stroke:#010101; fill:none;"/>
	<path d="M 882.0,641.0 L 883.0,643.0" style="stroke:#010101; fill:none;"/>
	<path d="M 884.0,642.0 L 888.0,642.0" style="stroke:#010101; fill:none;"/>
	<path d="M 811.0,647.0 L 809.0,651.0" style="stroke:#010101; fill:none;"/>
	<path d="M 936.0,647.0 L 937.0,648.0" style="stroke:#010101; fill:none;"/>
	<path d="M 848.0,648.0 C 845.404,652.337 845.225,654.724 848.0,659.0" style="stroke:#010101; fill:none;"/>
	<path d="M 885.0,648.0 L 868.0,653.0" style="stroke:#010101; fill:none;"/>
	<path d="M 836.0,669.0 C 837.884,663.219 839.451,655.158 845.0,652.0" style="stroke:#010101; fill:none;"/>
	<path d="M 874.0,657.0 L 884.0,653.0" style="stroke:#010101; fill:none;"/>
	<path d="M 844.0,656.0 L 837.0,674.0" style="stroke:#010101; fill:none;"/>
	<path d="M 805.0,658.0 C 799.229,665.961 792.57,671.383 783.0,674.0" style="stroke:#010101; fill:none;"/>
	<path d="M 877.0,661.0 L 883.0,659.0" style="stroke:#010101; fill:none;"/>
	<path d="M 939.0,662.0 L 919.0,700.0" style="stroke:#010101; fill:none;"/>
	<path d="M 884.0,663.0 L 879.0,667.0" style="stroke:#010101; fill:none;"/>
	<path d="M 308.0,665.0 L 315.0,671.0" style="stroke:#010101; fill:none;"/>
	<path d="M 848.0,666.0 C 847.999,672.183 848.464,681.232 846.449,686.985 C 842.041,699.573 825.147,709.177 812.0,706.316 C 804.485,704.68 800.002,699.224 794.0,695.0 L 766.0,726.0" style="stroke:#010101; fill:none;"/>
	<path d="M 901.0,667.0 C 895.705,706.291 851.698,723.544 817.0,723.981 C 805.931,724.121 794.948,720.894 784.0,720.0" style="stroke:#010101; fill:none;"/>
	<path d="M 847.0,677.0 L 848.0,681.0" style="stroke:#010101; fill:none;"/>
	<path d="M 776.0,679.0 L 775.0,685.0 C 785.811,682.203 788.161,686.097 795.0,694.0" style="stroke:#010101; fill:none;"/>
	<path d="M 847.0,681.0 C 844.141,684.596 842.954,686.73 845.0,691.0" style="stroke:#010101; fill:none;"/>
	<path d="M 774.0,684.0 L 765.0,693.0" style="stroke:#010101; fill:none;"/>
	<path d="M 801.0,686.0 L 795.0,693.0" style="stroke:#010101; fill:none;"/>
	<path d="M 842.0,690.0 L 842.0,691.0" style="stroke:#010101; fill:none;"/>
	<path d="M 721.0,693.0 C 716.442,706.434 698.506,718.086 687.0,725.413 C 650.106,748.905 612.15,752.135 571.0,762.375 C 523.853,774.107 489.237,804.571 461.0,843.0" style="stroke:#010101; fill:none;"/>
	<path d="M 829.0,699.0 L 829.0,702.0" style="stroke:#010101; fill:none;"/>
	<path d="M 754.0,701.0 L 726.0,729.0" style="stroke:#010101; fill:none;"/>
	<path d="M 748.0,712.0 C 756.691,716.811 745.405,724.686 739.0,723.0" style="stroke:#010101; fill:none;"/>
	<path d="M 904.0,717.0 L 881.0,740.0" style="stroke:#010101; fill:none;"/>
	<path d="M 730.0,726.0 C 736.403,732.231 727.771,732.722 729.801,738.971 C 732.314,746.71 747.039,748.029 752.0,743.0" style="stroke:#010101; fill:none;"/>
	<path d="M 880.0,733.0 L 870.0,738.0 L 874.0,742.0 L 885.0,731.0" style="stroke:#010101; fill:none;"/>
	<path d="M 723.0,735.0 L 729.0,735.0" style="stroke:#010101; fill:none;"/>
	<path d="M 872.0,737.0 L 875.0,740.0" style="stroke:#010101; fill:none;"/>
	<path d="M 863.0,740.0 L 857.0,739.0 L 870.0,738.0" style="stroke:#010101; fill:none;"/>
	<path d="M 847.0,746.0 C 849.65,741.354 851.484,739.303 857.0,739.0" style="stroke:#010101; fill:none;"/>
	<path d="M 764.0,751.0 C 770.848,745.208 778.665,747.623 787.0,746.83 C 807.151,744.913 828.847,741.167 849.0,741.0" style="stroke:#010101; fill:none;"/>
	<path d="M 859.0,741.0 L 855.0,744.0" style="stroke:#010101; fill:none;"/>
	<path d="M 860.0,742.0 L 858.0,744.0" style="stroke:#010101; fill:none;"/>
	<path d="M 751.0,747.0 L 766.0,748.0" style="stroke:#010101; fill:none;"/>
	<path d="M 745.0,748.0 L 739.0,752.0" style="stroke:#010101; fill:none;"/>
	<path d="M 523.0,782.0 C 529.665,785.705 540.697,784.739 548.0,783.0" style="stroke:#010101; fill:none;"/>
	<path d="M 509.0,784.0 L 516.0,786.0" style="stroke:#010101; fill:none;"/>
</svg>
