<?xml version="1.0" ?>
<svg baseProfile="full" height="1195" version="1.1" width="1310" xmlns="http://www.w3.org/2000/svg" xmlns:ev="http://www.w3.org/2001/xml-events" xmlns:xlink="http://www.w3.org/1999/xlink">
	<defs/>
	<path d="M 772.0,336.0 C 774.67,339.879 762.287,345.449 759.17,348.425 C 747.53,359.537 737.126,376.106 734.0,392.0" style="stroke:#010101; fill:none;"/>
	<path d="M 775.0,338.0 C 794.674,340.5 809.304,354.468 822.0,369.0" style="stroke:#010101; fill:none;"/>
	<path d="M 793.0,340.0 L 801.0,341.0" style="stroke:#010101; fill:none;"/>
	<path d="M 763.0,345.0 L 766.0,347.0" style="stroke:#010101; fill:none;"/>
	<path d="M 757.0,401.0 L 757.0,387.0 L 752.0,409.0 C 747.349,404.445 748.874,396.87 750.235,391.0 C 753.317,377.71 760.932,353.209 776.0,348.912 C 783.025,346.909 791.543,352.887 797.0,356.507 C 819.493,371.43 823.822,392.852 827.0,418.0" style="stroke:#010101; fill:none;"/>
	<path d="M 455.0,358.0 L 464.0,360.0" style="stroke:#010101; fill:none;"/>
	<path d="M 478.0,360.0 L 487.0,363.0 L 467.0,361.0" style="stroke:#010101; fill:none;"/>
	<path d="M 417.0,367.0 L 458.0,363.0" style="stroke:#010101; fill:none;"/>
	<path d="M 487.0,363.0 L 526.0,379.0" style="stroke:#010101; fill:none;"/>
	<path d="M 486.0,364.0 L 490.0,364.0" style="stroke:#010101; fill:none;"/>
	<path d="M 469.0,366.0 L 494.0,371.0" style="stroke:#010101; fill:none;"/>
	<path d="M 543.0,366.0 L 565.0,375.0" style="stroke:#010101; fill:none;"/>
	<path d="M 372.0,368.0 L 383.0,368.0" style="stroke:#010101; fill:none;"/>
	<path d="M 395.0,368.0 L 415.0,367.0" style="stroke:#010101; fill:none;"/>
	<path d="M 566.0,368.0 L 590.0,376.0 L 588.0,373.0" style="stroke:#010101; fill:none;"/>
	<path d="M 340.0,384.0 C 368.061,384.0 394.591,381.187 421.0,371.0" style="stroke:#010101; fill:none;"/>
	<path d="M 563.0,371.0 L 564.0,372.0" style="stroke:#010101; fill:none;"/>
	<path d="M 582.0,371.0 L 584.0,371.0" style="stroke:#010101; fill:none;"/>
	<path d="M 564.0,372.0 L 588.0,382.0" style="stroke:#010101; fill:none;"/>
	<path d="M 734.0,375.0 L 738.0,378.0" style="stroke:#010101; fill:none;"/>
	<path d="M 590.0,376.0 L 604.0,386.0" style="stroke:#010101; fill:none;"/>
	<path d="M 606.0,377.0 L 629.17,400.0 L 674.0,444.0" style="stroke:#010101; fill:none;"/>
	<path d="M 784.0,379.0 C 799.503,383.466 810.247,397.557 815.911,412.0 C 828.086,443.047 821.634,477.496 805.0,506.0" style="stroke:#010101; fill:none;"/>
	<path d="M 597.0,383.0 C 603.293,397.084 620.023,408.982 632.0,418.116 C 634.688,420.166 646.674,426.724 646.0,430.0" style="stroke:#010101; fill:none;"/>
	<path d="M 732.0,383.0 L 735.0,386.0" style="stroke:#010101; fill:none;"/>
	<path d="M 757.0,385.0 L 757.0,387.0" style="stroke:#010101; fill:none;"/>
	<path d="M 763.0,389.0 L 763.0,406.0" style="stroke:#010101; fill:none;"/>
	<path d="M 767.0,390.0 L 768.0,401.0" style="stroke:#010101; fill:none;"/>
	<path d="M 835.0,390.0 C 840.685,400.898 841.995,408.25 851.0,417.0" style="stroke:#010101; fill:none;"/>
	<path d="M 316.0,400.0 L 342.0,395.0 C 329.839,403.014 317.154,404.0 303.0,404.0" style="stroke:#010101; fill:none;"/>
	<path d="M 772.0,393.0 L 773.0,400.0" style="stroke:#010101; fill:none;"/>
	<path d="M 776.0,393.0 L 779.0,399.0" style="stroke:#010101; fill:none;"/>
	<path d="M 365.0,397.0 C 348.358,408.917 327.721,417.998 307.0,418.0" style="stroke:#010101; fill:none;"/>
	<path d="M 757.0,403.0 L 758.0,409.0" style="stroke:#010101; fill:none;"/>
	<path d="M 292.0,406.0 C 308.4,410.61 323.329,409.344 340.0,409.0" style="stroke:#010101; fill:none;"/>
	<path d="M 742.0,407.0 C 752.667,417.666 769.193,436.005 786.0,434.0 L 783.0,432.0" style="stroke:#010101; fill:none;"/>
	<path d="M 843.0,411.0 L 845.0,427.0 C 850.021,423.126 848.984,420.364 845.0,416.0" style="stroke:#010101; fill:none;"/>
	<path d="M 282.0,416.0 L 292.0,417.0" style="stroke:#010101; fill:none;"/>
	<path d="M 295.0,418.0 L 299.0,418.0" style="stroke:#010101; fill:none;"/>
	<path d="M 301.0,419.0 L 305.0,419.0" style="stroke:#010101; fill:none;"/>
	<path d="M 752.0,424.0 L 772.0,443.0" style="stroke:#010101; fill:none;"/>
	<path d="M 764.0,427.0 L 757.0,429.0" style="stroke:#010101; fill:none;"/>
	<path d="M 845.0,427.0 L 846.0,440.0 L 847.0,441.0 L 847.0,442.0 L 848.0,443.0" style="stroke:#010101; fill:none;"/>
	<path d="M 212.0,437.0 C 241.953,442.809 273.841,431.0 304.0,431.0" style="stroke:#010101; fill:none;"/>
	<path d="M 648.0,430.0 C 652.297,431.546 654.741,433.296 659.0,431.0" style="stroke:#010101; fill:none;"/>
	<path d="M 760.0,431.0 L 775.0,442.0" style="stroke:#010101; fill:none;"/>
	<path d="M 770.0,431.0 C 774.887,441.264 788.546,448.637 797.0,456.0" style="stroke:#010101; fill:none;"/>
	<path d="M 647.0,432.0 L 662.0,450.0" style="stroke:#010101; fill:none;"/>
	<path d="M 845.0,432.0 C 841.213,439.265 843.022,446.039 848.0,452.0" style="stroke:#010101; fill:none;"/>
	<path d="M 271.0,433.0 L 272.0,434.0" style="stroke:#010101; fill:none;"/>
	<path d="M 459.333,434.0 L 459.667,435.0 L 459.333,434.0" style="stroke:#010101; fill:none;"/>
	<path d="M 461.0,433.0 C 467.646,433.993 476.279,440.663 482.0,436.0 L 473.0,435.0" style="stroke:#010101; fill:none;"/>
	<path d="M 660.0,433.0 L 657.0,434.0" style="stroke:#010101; fill:none;"/>
	<path d="M 460.0,437.0 L 458.0,434.0" style="stroke:#010101; fill:none;"/>
	<path d="M 466.0,434.0 C 465.265,437.98 468.09,437.405 471.0,436.0" style="stroke:#010101; fill:none;"/>
	<path d="M 787.0,434.0 L 793.0,442.0 L 794.0,442.0 L 794.0,440.0" style="stroke:#010101; fill:none;"/>
	<path d="M 270.0,435.0 C 245.543,452.263 219.619,448.229 192.0,448.0" style="stroke:#010101; fill:none;"/>
	<path d="M 453.0,437.0 L 455.0,441.0 L 451.0,442.0 L 449.0,437.0 L 456.0,435.0" style="stroke:#010101; fill:none;"/>
	<path d="M 459.0,435.0 L 464.0,436.0" style="stroke:#010101; fill:none;"/>
	<path d="M 467.0,435.0 L 467.0,437.0" style="stroke:#010101; fill:none;"/>
	<path d="M 424.0,453.0 L 425.0,450.0 C 422.831,454.593 419.714,453.535 416.0,451.0 C 422.915,441.633 436.59,436.356 448.0,436.0" style="stroke:#010101; fill:none;"/>
	<path d="M 463.0,436.0 L 461.0,438.0" style="stroke:#010101; fill:none;"/>
	<path d="M 785.0,436.0 L 791.0,441.0" style="stroke:#010101; fill:none;"/>
	<path d="M 457.0,437.0 L 455.0,439.0" style="stroke:#010101; fill:none;"/>
	<path d="M 482.0,437.0 L 496.0,440.0" style="stroke:#010101; fill:none;"/>
	<path d="M 466.0,438.0 L 457.0,441.0" style="stroke:#010101; fill:none;"/>
	<path d="M 500.0,440.0 L 511.0,441.0" style="stroke:#010101; fill:none;"/>
	<path d="M 849.0,438.0 L 849.0,440.0" style="stroke:#010101; fill:none;"/>
	<path d="M 427.0,451.0 C 430.363,445.093 441.131,439.331 448.0,440.0" style="stroke:#010101; fill:none;"/>
	<path d="M 449.0,442.0 L 442.0,442.0" style="stroke:#010101; fill:none;"/>
	<path d="M 796.0,442.0 C 810.809,457.26 800.13,479.044 785.0,488.0 L 805.0,520.0" style="stroke:#010101; fill:none;"/>
	<path d="M 433.0,447.0 L 429.0,449.0" style="stroke:#010101; fill:none;"/>
	<path d="M 424.0,450.0 L 428.0,448.0" style="stroke:#010101; fill:none;"/>
	<path d="M 842.0,448.0 L 833.739,505.0 L 830.0,531.0" style="stroke:#010101; fill:none;"/>
	<path d="M 415.0,450.0 L 410.0,456.0" style="stroke:#010101; fill:none;"/>
	<path d="M 420.0,452.0 L 422.0,451.0" style="stroke:#010101; fill:none;"/>
	<path d="M 412.0,453.0 L 415.0,456.0 L 412.0,457.0" style="stroke:#010101; fill:none;"/>
	<path d="M 684.0,453.0 C 695.748,466.446 709.713,477.906 721.911,491.0 C 748.515,519.56 774.908,553.703 790.0,590.0" style="stroke:#010101; fill:none;"/>
	<path d="M 186.0,454.0 L 197.0,458.0" style="stroke:#010101; fill:none;"/>
	<path d="M 419.0,454.0 L 415.0,456.0" style="stroke:#010101; fill:none;"/>
	<path d="M 384.0,491.0 L 381.0,489.0 L 382.0,488.0 L 385.0,491.0 L 410.0,456.0" style="stroke:#010101; fill:none;"/>
	<path d="M 404.0,461.0 L 407.0,458.0" style="stroke:#010101; fill:none;"/>
	<path d="M 189.0,459.0 L 191.0,459.0" style="stroke:#010101; fill:none;"/>
	<path d="M 413.0,459.0 L 393.256,490.0 L 386.0,503.0 L 388.0,498.0" style="stroke:#010101; fill:none;"/>
	<path d="M 410.0,460.0 L 411.0,461.0" style="stroke:#010101; fill:none;"/>
	<path d="M 742.0,460.0 L 746.0,463.0" style="stroke:#010101; fill:none;"/>
	<path d="M 399.0,466.0 L 403.0,463.0" style="stroke:#010101; fill:none;"/>
	<path d="M 393.0,477.0 C 391.624,472.717 396.097,469.071 399.0,466.0" style="stroke:#010101; fill:none;"/>
	<path d="M 751.0,469.0 C 758.0,475.013 762.829,484.623 761.0,494.0" style="stroke:#010101; fill:none;"/>
	<path d="M 184.0,472.0 C 193.564,475.689 199.966,476.42 210.0,475.0" style="stroke:#010101; fill:none;"/>
	<path d="M 391.0,475.0 L 388.0,479.0" style="stroke:#010101; fill:none;"/>
	<path d="M 395.0,477.0 L 393.0,481.0" style="stroke:#010101; fill:none;"/>
	<path d="M 170.0,479.0 L 190.0,489.0" style="stroke:#010101; fill:none;"/>
	<path d="M 388.0,479.0 L 388.0,484.0" style="stroke:#010101; fill:none;"/>
	<path d="M 778.0,480.0 L 785.0,488.0" style="stroke:#010101; fill:none;"/>
	<path d="M 393.0,481.0 L 387.0,497.0" style="stroke:#010101; fill:none;"/>
	<path d="M 386.0,482.0 L 384.0,487.0 L 385.0,485.0" style="stroke:#010101; fill:none;"/>
	<path d="M 387.0,483.0 L 385.0,485.0" style="stroke:#010101; fill:none;"/>
	<path d="M 382.0,487.0 L 382.0,488.0" style="stroke:#010101; fill:none;"/>
	<path d="M 784.0,487.0 C 773.959,494.086 763.08,500.528 774.0,514.0" style="stroke:#010101; fill:none;"/>
	<path d="M 384.0,488.0 L 383.0,489.0" style="stroke:#010101; fill:none;"/>
	<path d="M 171.0,491.0 L 183.0,491.0" style="stroke:#010101; fill:none;"/>
	<path d="M 380.0,491.0 L 356.0,531.0 L 358.0,529.0" style="stroke:#010101; fill:none;"/>
	<path d="M 383.0,493.0 L 381.0,495.0" style="stroke:#010101; fill:none;"/>
	<path d="M 494.0,493.0 L 493.0,508.0 L 490.0,498.0" style="stroke:#010101; fill:none;"/>
	<path d="M 170.0,494.0 C 176.715,500.422 182.609,503.973 192.0,504.0" style="stroke:#010101; fill:none;"/>
	<path d="M 381.0,495.0 L 382.0,499.0 L 383.0,495.0" style="stroke:#010101; fill:none;"/>
	<path d="M 515.0,495.0 L 500.999,509.052 L 487.0,513.0 L 495.0,527.0 C 498.012,522.748 499.67,519.788 497.0,515.0 C 493.239,515.972 491.862,514.577 489.0,512.0" style="stroke:#010101; fill:none;"/>
	<path d="M 454.0,499.0 L 477.0,497.0" style="stroke:#010101; fill:none;"/>
	<path d="M 381.0,498.0 C 376.495,504.333 367.967,518.629 372.0,526.0 L 366.0,533.0" style="stroke:#010101; fill:none;"/>
	<path d="M 381.0,500.0 L 372.0,525.0" style="stroke:#010101; fill:none;"/>
	<path d="M 401.0,562.0 L 408.0,563.0 L 406.0,570.0 C 394.247,563.176 397.393,556.51 400.63,544.0 C 407.495,517.462 429.529,509.685 452.0,500.0" style="stroke:#010101; fill:none;"/>
	<path d="M 764.0,501.0 L 768.0,506.0" style="stroke:#010101; fill:none;"/>
	<path d="M 467.0,502.0 C 467.505,505.973 471.608,514.345 469.834,517.794 C 468.068,521.227 463.785,518.317 461.0,518.522 C 452.388,519.158 449.314,527.783 443.0,518.0" style="stroke:#010101; fill:none;"/>
	<path d="M 371.0,503.0 L 371.0,505.0" style="stroke:#010101; fill:none;"/>
	<path d="M 384.0,503.0 L 386.0,504.0" style="stroke:#010101; fill:none;"/>
	<path d="M 383.0,505.0 L 384.0,508.0 L 385.0,505.0" style="stroke:#010101; fill:none;"/>
	<path d="M 175.0,506.0 L 188.0,512.0" style="stroke:#010101; fill:none;"/>
	<path d="M 198.0,506.0 L 184.0,510.0" style="stroke:#010101; fill:none;"/>
	<path d="M 357.0,528.0 C 357.622,520.391 360.476,510.224 368.0,507.0" style="stroke:#010101; fill:none;"/>
	<path d="M 372.0,506.0 L 362.0,537.0 L 365.0,517.0" style="stroke:#010101; fill:none;"/>
	<path d="M 384.0,510.0 L 382.0,513.0 L 383.0,509.0" style="stroke:#010101; fill:none;"/>
	<path d="M 498.0,511.0 L 498.0,514.0" style="stroke:#010101; fill:none;"/>
	<path d="M 175.0,513.0 C 181.665,518.666 188.202,521.975 197.0,522.0" style="stroke:#010101; fill:none;"/>
	<path d="M 380.0,513.0 L 377.0,525.0" style="stroke:#010101; fill:none;"/>
	<path d="M 471.0,514.0 L 487.0,513.0" style="stroke:#010101; fill:none;"/>
	<path d="M 772.0,514.0 L 772.0,515.0" style="stroke:#010101; fill:none;"/>
	<path d="M 463.0,518.0 L 470.0,515.0" style="stroke:#010101; fill:none;"/>
	<path d="M 357.0,516.0 L 355.0,544.0 L 355.0,534.0" style="stroke:#010101; fill:none;"/>
	<path d="M 465.0,520.0 L 450.0,538.0" style="stroke:#010101; fill:none;"/>
	<path d="M 475.0,521.0 C 486.657,527.065 484.598,536.128 483.0,547.0 C 489.233,543.581 493.389,533.719 495.0,527.0" style="stroke:#010101; fill:none;"/>
	<path d="M 176.0,522.0 L 193.0,527.0" style="stroke:#010101; fill:none;"/>
	<path d="M 352.0,547.0 C 349.987,540.191 349.509,527.838 354.0,522.0" style="stroke:#010101; fill:none;"/>
	<path d="M 806.0,522.0 L 807.0,523.0" style="stroke:#010101; fill:none;"/>
	<path d="M 451.0,523.0 L 456.0,528.0" style="stroke:#010101; fill:none;"/>
	<path d="M 447.0,524.0 L 438.769,531.259 L 433.0,544.0 L 431.0,526.0" style="stroke:#010101; fill:none;"/>
	<path d="M 511.0,525.0 L 502.0,530.0 C 501.916,524.718 506.542,523.889 511.0,525.0" style="stroke:#010101; fill:none;"/>
	<path d="M 369.0,525.0 L 369.0,527.0" style="stroke:#010101; fill:none;"/>
	<path d="M 464.0,525.0 C 473.999,532.55 468.834,541.097 459.0,545.0 C 459.047,539.793 462.088,533.306 454.0,534.0" style="stroke:#010101; fill:none;"/>
	<path d="M 349.0,526.0 L 348.0,541.0" style="stroke:#010101; fill:none;"/>
	<path d="M 506.0,529.0 L 507.0,529.0" style="stroke:#010101; fill:none;"/>
	<path d="M 416.0,530.0 C 418.783,535.365 422.617,540.212 429.0,538.0" style="stroke:#010101; fill:none;"/>
	<path d="M 781.0,530.0 L 800.0,563.0" style="stroke:#010101; fill:none;"/>
	<path d="M 828.0,530.0 C 825.069,540.405 822.379,546.484 825.0,557.0" style="stroke:#010101; fill:none;"/>
	<path d="M 500.0,531.0 L 499.0,533.0" style="stroke:#010101; fill:none;"/>
	<path d="M 435.0,532.0 L 437.0,532.0" style="stroke:#010101; fill:none;"/>
	<path d="M 357.0,533.0 L 356.0,534.0" style="stroke:#010101; fill:none;"/>
	<path d="M 497.0,539.0 L 508.0,533.0" style="stroke:#010101; fill:none;"/>
	<path d="M 788.0,539.0 C 795.155,531.09 801.505,541.816 798.0,549.0" style="stroke:#010101; fill:none;"/>
	<path d="M 362.0,537.0 L 362.0,540.0" style="stroke:#010101; fill:none;"/>
	<path d="M 432.0,537.0 L 437.0,538.0" style="stroke:#010101; fill:none;"/>
	<path d="M 178.0,538.0 L 188.0,543.0" style="stroke:#010101; fill:none;"/>
	<path d="M 425.0,540.0 L 421.0,549.0 L 432.0,543.0" style="stroke:#010101; fill:none;"/>
	<path d="M 179.0,542.0 L 188.0,572.0 L 183.0,569.0" style="stroke:#010101; fill:none;"/>
	<path d="M 820.0,542.0 L 822.0,545.0" style="stroke:#010101; fill:none;"/>
	<path d="M 410.0,543.0 L 420.0,548.0" style="stroke:#010101; fill:none;"/>
	<path d="M 437.0,543.0 C 441.422,558.576 451.098,561.176 466.0,560.0" style="stroke:#010101; fill:none;"/>
	<path d="M 348.0,544.0 L 352.0,556.0" style="stroke:#010101; fill:none;"/>
	<path d="M 355.0,544.0 L 357.0,549.0 L 357.0,544.0" style="stroke:#010101; fill:none;"/>
	<path d="M 498.0,553.0 L 495.0,545.0 L 498.0,547.0" style="stroke:#010101; fill:none;"/>
	<path d="M 405.0,546.0 L 418.0,550.0" style="stroke:#010101; fill:none;"/>
	<path d="M 497.0,546.0 L 495.0,548.0" style="stroke:#010101; fill:none;"/>
	<path d="M 358.0,547.0 L 360.0,549.0" style="stroke:#010101; fill:none;"/>
	<path d="M 177.0,548.0 L 178.0,549.0" style="stroke:#010101; fill:none;"/>
	<path d="M 482.0,548.0 C 477.995,554.728 471.706,560.497 465.0,564.522 C 457.339,569.119 448.173,570.808 451.0,582.0 L 453.0,576.0" style="stroke:#010101; fill:none;"/>
	<path d="M 822.0,550.0 L 814.532,560.486 L 804.0,568.0" style="stroke:#010101; fill:none;"/>
	<path d="M 487.0,551.0 L 492.0,552.0 L 483.0,554.0" style="stroke:#010101; fill:none;"/>
	<path d="M 416.0,553.0 L 410.0,558.0 C 413.441,562.419 415.104,570.56 407.0,570.0 L 405.0,574.0 L 397.0,574.0 L 397.0,575.0 L 397.0,576.0 L 397.0,577.0" style="stroke:#010101; fill:none;"/>
	<path d="M 417.0,554.0 L 414.0,561.0" style="stroke:#010101; fill:none;"/>
	<path d="M 490.0,554.0 L 492.0,556.0" style="stroke:#010101; fill:none;"/>
	<path d="M 403.0,556.0 L 409.0,557.0" style="stroke:#010101; fill:none;"/>
	<path d="M 489.0,556.0 L 492.0,559.0" style="stroke:#010101; fill:none;"/>
	<path d="M 799.0,558.0 C 803.296,556.008 805.266,557.401 806.0,562.0" style="stroke:#010101; fill:none;"/>
	<path d="M 505.0,557.0 C 496.046,565.88 484.709,576.099 473.0,581.0" style="stroke:#010101; fill:none;"/>
	<path d="M 764.0,559.0 C 776.168,568.333 782.339,587.815 786.717,602.0 C 800.623,647.054 790.895,688.302 792.015,734.0 C 793.083,777.619 815.515,815.185 841.0,849.0" style="stroke:#010101; fill:none;"/>
	<path d="M 411.0,560.0 L 408.0,563.0" style="stroke:#010101; fill:none;"/>
	<path d="M 478.0,560.0 L 483.0,562.0" style="stroke:#010101; fill:none;"/>
	<path d="M 180.0,562.0 L 181.0,563.0" style="stroke:#010101; fill:none;"/>
	<path d="M 475.0,562.0 L 481.0,565.0" style="stroke:#010101; fill:none;"/>
	<path d="M 470.0,563.0 L 472.0,566.0" style="stroke:#010101; fill:none;"/>
	<path d="M 413.0,568.0 L 413.0,565.0" style="stroke:#010101; fill:none;"/>
	<path d="M 408.0,566.0 L 411.0,566.0" style="stroke:#010101; fill:none;"/>
	<path d="M 396.0,567.0 L 396.0,571.0" style="stroke:#010101; fill:none;"/>
	<path d="M 466.0,568.0 L 467.0,576.0 L 463.0,571.0" style="stroke:#010101; fill:none;"/>
	<path d="M 479.0,568.0 L 478.0,569.0" style="stroke:#010101; fill:none;"/>
	<path d="M 368.0,570.0 C 361.067,588.48 362.0,609.614 362.0,629.0" style="stroke:#010101; fill:none;"/>
	<path d="M 414.0,570.0 C 415.437,576.047 417.93,579.454 423.0,583.0 C 420.784,587.251 411.107,596.793 406.028,590.397 C 403.326,586.994 405.0,578.162 405.0,574.0" style="stroke:#010101; fill:none;"/>
	<path d="M 476.0,570.0 L 472.0,573.0" style="stroke:#010101; fill:none;"/>
	<path d="M 422.0,587.0 L 451.0,572.0" style="stroke:#010101; fill:none;"/>
	<path d="M 189.0,573.0 C 191.547,583.754 197.104,593.496 200.481,604.0 C 209.779,632.926 219.357,669.676 248.0,685.0 C 252.025,671.413 250.469,656.531 264.0,648.0 C 273.308,660.548 280.328,659.263 292.0,650.0 L 280.0,639.0 C 289.13,633.885 299.879,635.0 310.0,635.0" style="stroke:#010101; fill:none;"/>
	<path d="M 413.0,573.0 C 413.019,579.554 413.789,584.532 421.0,586.0" style="stroke:#010101; fill:none;"/>
	<path d="M 466.0,575.0 L 456.0,579.0" style="stroke:#010101; fill:none;"/>
	<path d="M 447.0,576.0 L 447.0,586.0" style="stroke:#010101; fill:none;"/>
	<path d="M 442.0,579.0 C 437.825,583.914 435.298,588.485 435.0,595.0 L 440.0,594.0" style="stroke:#010101; fill:none;"/>
	<path d="M 423.0,583.0 L 426.0,583.0" style="stroke:#010101; fill:none;"/>
	<path d="M 453.0,583.0 L 453.0,589.0 L 462.0,586.0" style="stroke:#010101; fill:none;"/>
	<path d="M 465.0,585.0 L 469.0,583.0" style="stroke:#010101; fill:none;"/>
	<path d="M 428.0,599.0 C 428.31,592.23 430.755,587.891 437.0,585.0" style="stroke:#010101; fill:none;"/>
	<path d="M 432.0,589.0 L 432.0,591.0" style="stroke:#010101; fill:none;"/>
	<path d="M 453.0,589.0 L 442.0,593.0" style="stroke:#010101; fill:none;"/>
	<path d="M 431.0,595.0 L 434.0,596.0" style="stroke:#010101; fill:none;"/>
	<path d="M 435.0,597.0 L 437.0,598.0" style="stroke:#010101; fill:none;"/>
	<path d="M 279.0,613.0 C 271.693,610.84 262.915,610.998 257.0,616.0 C 252.133,608.605 249.312,618.17 245.0,620.0 L 246.0,616.0 L 241.0,612.0 C 253.771,604.132 272.464,599.558 287.0,605.0 L 276.0,605.0" style="stroke:#010101; fill:none;"/>
	<path d="M 275.0,603.0 L 276.0,604.0" style="stroke:#010101; fill:none;"/>
	<path d="M 261.0,604.0 C 267.067,608.125 276.67,609.725 284.0,610.0" style="stroke:#010101; fill:none;"/>
	<path d="M 271.0,604.0 L 275.0,605.0" style="stroke:#010101; fill:none;"/>
	<path d="M 258.0,605.0 L 263.0,607.0" style="stroke:#010101; fill:none;"/>
	<path d="M 260.0,605.0 L 260.0,607.0" style="stroke:#010101; fill:none;"/>
	<path d="M 266.0,607.0 L 270.0,607.0" style="stroke:#010101; fill:none;"/>
	<path d="M 252.0,608.0 L 257.0,608.0" style="stroke:#010101; fill:none;"/>
	<path d="M 287.0,608.0 C 300.831,611.278 315.684,619.928 318.532,635.0 C 320.015,642.845 318.403,651.079 319.17,659.0 C 320.466,672.392 322.989,685.547 323.91,699.0 C 324.864,712.918 324.367,727.908 330.0,741.0" style="stroke:#010101; fill:none;"/>
	<path d="M 244.0,620.0 L 238.0,620.0 L 241.0,612.0" style="stroke:#010101; fill:none;"/>
	<path d="M 257.0,612.0 L 259.0,613.0" style="stroke:#010101; fill:none;"/>
	<path d="M 259.0,616.0 L 270.0,617.0" style="stroke:#010101; fill:none;"/>
	<path d="M 250.0,615.0 L 255.0,616.0" style="stroke:#010101; fill:none;"/>
	<path d="M 252.0,615.0 L 254.0,617.0" style="stroke:#010101; fill:none;"/>
	<path d="M 244.0,624.0 C 238.422,622.866 231.143,616.768 241.0,616.0 L 242.0,619.0" style="stroke:#010101; fill:none;"/>
	<path d="M 243.0,616.0 L 243.0,618.0" style="stroke:#010101; fill:none;"/>
	<path d="M 246.0,616.0 L 248.0,616.0" style="stroke:#010101; fill:none;"/>
	<path d="M 235.0,620.0 L 231.0,622.0 L 235.0,617.0" style="stroke:#010101; fill:none;"/>
	<path d="M 224.0,628.0 L 223.0,634.0 C 221.838,629.744 223.573,624.485 228.0,623.0 L 231.0,619.0" style="stroke:#010101; fill:none;"/>
	<path d="M 248.0,619.0 L 257.0,620.0" style="stroke:#010101; fill:none;"/>
	<path d="M 196.0,620.0 L 198.0,622.0" style="stroke:#010101; fill:none;"/>
	<path d="M 224.0,622.0 L 227.0,620.0" style="stroke:#010101; fill:none;"/>
	<path d="M 231.0,622.0 L 226.0,627.0" style="stroke:#010101; fill:none;"/>
	<path d="M 233.0,622.0 L 236.0,624.0" style="stroke:#010101; fill:none;"/>
	<path d="M 234.0,623.0 L 227.0,626.0" style="stroke:#010101; fill:none;"/>
	<path d="M 229.0,624.0 L 233.0,627.0" style="stroke:#010101; fill:none;"/>
	<path d="M 362.0,631.0 L 363.0,632.0" style="stroke:#010101; fill:none;"/>
	<path d="M 220.0,633.0 L 222.0,634.0" style="stroke:#010101; fill:none;"/>
	<path d="M 221.0,635.0 L 215.0,641.0" style="stroke:#010101; fill:none;"/>
	<path d="M 265.0,648.0 L 280.0,639.0" style="stroke:#010101; fill:none;"/>
	<path d="M 369.0,642.0 L 376.0,667.0" style="stroke:#010101; fill:none;"/>
	<path d="M 292.0,650.0 L 315.0,644.0" style="stroke:#010101; fill:none;"/>
	<path d="M 261.0,648.0 L 261.0,649.0" style="stroke:#010101; fill:none;"/>
	<path d="M 281.0,650.0 L 287.0,652.0" style="stroke:#010101; fill:none;"/>
	<path d="M 304.0,656.0 L 300.0,656.0 C 308.019,653.903 308.761,668.61 303.0,672.0" style="stroke:#010101; fill:none;"/>
	<path d="M 306.0,655.0 C 311.573,658.058 314.526,665.188 308.0,669.0" style="stroke:#010101; fill:none;"/>
	<path d="M 302.0,657.0 L 298.0,660.0 L 300.0,656.0" style="stroke:#010101; fill:none;"/>
	<path d="M 216.0,658.0 L 226.0,675.0" style="stroke:#010101; fill:none;"/>
	<path d="M 282.0,658.0 C 272.905,665.096 265.958,678.178 267.031,690.0 C 267.819,698.676 277.761,708.747 287.0,707.011 C 295.36,705.44 302.763,694.994 308.0,689.0 C 292.08,684.294 279.432,684.837 279.0,664.0" style="stroke:#010101; fill:none;"/>
	<path d="M 297.0,661.0 L 297.0,663.0" style="stroke:#010101; fill:none;"/>
	<path d="M 253.0,662.0 C 257.937,665.3 265.225,668.035 271.0,666.0 L 267.0,665.0" style="stroke:#010101; fill:none;"/>
	<path d="M 271.0,666.0 L 273.0,666.0" style="stroke:#010101; fill:none;"/>
	<path d="M 255.0,676.0 L 269.0,675.0" style="stroke:#010101; fill:none;"/>
	<path d="M 316.0,677.0 L 308.0,688.0" style="stroke:#010101; fill:none;"/>
	<path d="M 236.0,679.0 C 238.396,689.472 244.922,701.849 256.0,693.0 L 249.0,686.0" style="stroke:#010101; fill:none;"/>
	<path d="M 266.0,685.0 L 267.0,681.0" style="stroke:#010101; fill:none;"/>
	<path d="M 404.0,683.0 C 418.168,676.182 446.854,684.709 453.672,699.0 C 458.98,710.125 456.456,719.28 452.0,730.0" style="stroke:#010101; fill:none;"/>
	<path d="M 252.0,685.0 L 264.0,684.0" style="stroke:#010101; fill:none;"/>
	<path d="M 261.0,686.0 L 253.739,701.677 L 245.443,707.258 L 251.0,720.0" style="stroke:#010101; fill:none;"/>
	<path d="M 315.0,686.0 L 315.0,689.0" style="stroke:#010101; fill:none;"/>
	<path d="M 312.0,690.0 L 312.0,700.0" style="stroke:#010101; fill:none;"/>
	<path d="M 260.0,695.0 C 263.828,702.295 256.583,714.719 249.0,707.0" style="stroke:#010101; fill:none;"/>
	<path d="M 267.0,696.0 L 267.0,699.0" style="stroke:#010101; fill:none;"/>
	<path d="M 306.0,696.0 L 307.0,705.0" style="stroke:#010101; fill:none;"/>
	<path d="M 403.0,696.0 C 388.325,703.375 370.105,710.43 375.0,731.0" style="stroke:#010101; fill:none;"/>
	<path d="M 251.0,697.0 L 255.0,701.0" style="stroke:#010101; fill:none;"/>
	<path d="M 246.0,699.0 L 247.0,704.0" style="stroke:#010101; fill:none;"/>
	<path d="M 241.0,701.0 L 244.0,706.0" style="stroke:#010101; fill:none;"/>
	<path d="M 299.0,704.0 C 297.166,711.41 296.774,712.554 301.0,719.0" style="stroke:#010101; fill:none;"/>
	<path d="M 295.0,705.0 L 295.0,708.0 L 289.0,709.0" style="stroke:#010101; fill:none;"/>
	<path d="M 266.0,706.0 C 269.346,717.372 278.532,726.789 282.772,738.0 C 297.47,776.868 308.862,814.145 335.2,847.0 C 345.413,859.74 357.739,870.98 370.0,881.715 C 376.87,887.73 383.879,891.172 383.0,901.0" style="stroke:#010101; fill:none;"/>
	<path d="M 314.0,706.0 L 311.0,710.0" style="stroke:#010101; fill:none;"/>
	<path d="M 272.0,707.0 C 277.128,710.342 279.832,711.946 286.0,711.0 L 285.0,721.0" style="stroke:#010101; fill:none;"/>
	<path d="M 287.0,708.0 L 287.0,710.0" style="stroke:#010101; fill:none;"/>
	<path d="M 299.0,709.0 L 299.0,715.0" style="stroke:#010101; fill:none;"/>
	<path d="M 252.0,711.0 L 256.0,721.0" style="stroke:#010101; fill:none;"/>
	<path d="M 255.0,712.0 L 253.0,714.0" style="stroke:#010101; fill:none;"/>
	<path d="M 281.0,713.0 L 285.0,728.0" style="stroke:#010101; fill:none;"/>
	<path d="M 252.0,714.0 L 250.0,716.0" style="stroke:#010101; fill:none;"/>
	<path d="M 274.0,714.0 L 273.0,717.0" style="stroke:#010101; fill:none;"/>
	<path d="M 298.0,716.0 L 299.0,719.0" style="stroke:#010101; fill:none;"/>
	<path d="M 398.0,735.0 C 401.838,726.962 411.616,723.704 420.0,723.001 C 422.942,722.754 430.827,721.636 430.079,726.939 C 429.152,733.507 409.341,736.993 404.0,736.907 C 401.108,736.861 398.031,735.374 395.529,737.447 C 387.471,744.124 390.728,756.437 401.0,757.0" style="stroke:#010101; fill:none;"/>
	<path d="M 267.0,724.0 L 289.0,782.0" style="stroke:#010101; fill:none;"/>
	<path d="M 333.0,745.0 C 341.193,754.407 349.725,761.499 361.0,767.0 L 357.0,767.0" style="stroke:#010101; fill:none;"/>
	<path d="M 806.0,750.0 C 805.359,757.848 803.726,767.615 799.0,774.0" style="stroke:#010101; fill:none;"/>
	<path d="M 366.0,764.0 L 388.0,767.0" style="stroke:#010101; fill:none;"/>
	<path d="M 406.0,764.0 L 399.0,770.0" style="stroke:#010101; fill:none;"/>
	<path d="M 361.0,767.0 C 373.71,769.94 384.846,771.346 395.0,780.0" style="stroke:#010101; fill:none;"/>
	<path d="M 390.0,768.0 L 395.0,773.0" style="stroke:#010101; fill:none;"/>
	<path d="M 360.0,769.0 C 364.595,771.612 368.752,773.439 374.0,772.0" style="stroke:#010101; fill:none;"/>
	<path d="M 536.0,779.0 L 549.0,775.0" style="stroke:#010101; fill:none;"/>
	<path d="M 552.0,777.0 C 539.786,790.971 527.358,792.883 511.0,798.726 C 504.724,800.968 499.543,805.037 493.0,807.0 C 496.194,814.281 482.143,824.18 477.0,828.714 C 467.094,837.448 454.948,842.963 445.17,851.322 C 437.51,857.87 437.053,865.394 431.44,872.909 C 427.902,877.645 421.758,878.538 418.0,883.0" style="stroke:#010101; fill:none;"/>
	<path d="M 432.0,807.0 C 436.688,802.312 441.444,795.646 447.17,792.279 C 453.779,788.392 462.667,788.029 470.0,786.349 C 489.911,781.787 509.479,778.0 530.0,778.0" style="stroke:#010101; fill:none;"/>
	<path d="M 800.0,780.0 L 797.0,787.0" style="stroke:#010101; fill:none;"/>
	<path d="M 544.0,799.0 L 518.0,839.0" style="stroke:#010101; fill:none;"/>
	<path d="M 438.0,855.0 C 440.132,838.216 451.345,836.702 463.0,827.385 C 472.837,819.521 480.303,810.009 493.0,807.0" style="stroke:#010101; fill:none;"/>
	<path d="M 497.0,808.0 L 496.0,809.0" style="stroke:#010101; fill:none;"/>
	<path d="M 428.0,810.0 C 421.14,814.046 410.141,816.021 404.591,821.279 C 387.209,837.742 401.058,866.172 413.0,881.0" style="stroke:#010101; fill:none;"/>
	<path d="M 313.0,821.0 L 314.0,825.0" style="stroke:#010101; fill:none;"/>
	<path d="M 471.0,828.0 L 473.0,831.0" style="stroke:#010101; fill:none;"/>
	<path d="M 442.0,842.0 L 449.0,848.0" style="stroke:#010101; fill:none;"/>
	<path d="M 515.0,847.0 C 501.104,860.896 486.424,877.619 469.0,887.1 C 460.733,891.598 451.014,894.804 442.0,891.0" style="stroke:#010101; fill:none;"/>
	<path d="M 342.0,856.0 L 342.0,864.0" style="stroke:#010101; fill:none;"/>
	<path d="M 386.0,895.0 C 400.241,908.946 418.008,919.473 434.0,931.285 C 463.878,953.353 501.986,990.347 542.0,988.867 C 556.549,988.329 569.297,979.762 582.0,973.677 C 600.677,964.73 621.235,957.351 638.0,945.0" style="stroke:#010101; fill:none;"/>
	<path d="M 631.0,953.0 L 646.0,961.0" style="stroke:#010101; fill:none;"/>
	<path d="M 523.0,987.0 L 523.0,989.0" style="stroke:#010101; fill:none;"/>
</svg>
