<?xml version="1.0" ?>
<svg baseProfile="full" height="1712" version="1.1" width="1547" xmlns="http://www.w3.org/2000/svg" xmlns:ev="http://www.w3.org/2001/xml-events" xmlns:xlink="http://www.w3.org/1999/xlink">
	<defs/>
	<path d="M 183.0,541.0 L 182.0,545.0 L 183.0,543.0" style="stroke:#040104; fill:none;"/>
	<path d="M 181.0,546.0 L 181.0,548.0" style="stroke:#040104; fill:none;"/>
	<path d="M 184.0,566.0 L 185.0,569.0" style="stroke:#040104; fill:none;"/>
	<path d="M 181.0,575.0 L 184.0,576.0 L 182.0,577.0" style="stroke:#040104; fill:none;"/>
	<path d="M 170.0,576.0 L 171.0,578.0" style="stroke:#040104; fill:none;"/>
	<path d="M 182.0,578.0 L 182.0,585.0 L 181.0,583.0" style="stroke:#040104; fill:none;"/>
	<path d="M 168.0,581.0 L 169.0,581.0" style="stroke:#040104; fill:none;"/>
	<path d="M 166.0,585.0 L 165.0,593.0" style="stroke:#040104; fill:none;"/>
	<path d="M 182.0,586.0 L 183.0,590.0 C 179.086,592.231 179.477,596.145 181.0,600.0" style="stroke:#040104; fill:none;"/>
	<path d="M 182.0,592.0 L 183.0,593.0" style="stroke:#040104; fill:none;"/>
	<path d="M 165.0,595.0 L 162.0,604.0" style="stroke:#040104; fill:none;"/>
	<path d="M 163.0,596.0 L 164.0,596.0" style="stroke:#040104; fill:none;"/>
	<path d="M 182.0,596.0 L 181.0,598.0" style="stroke:#040104; fill:none;"/>
	<path d="M 161.0,606.0 L 163.0,612.0" style="stroke:#040104; fill:none;"/>
	<path d="M 181.0,606.0 L 179.0,615.0" style="stroke:#040104; fill:none;"/>
	<path d="M 160.0,613.0 L 161.0,614.0" style="stroke:#040104; fill:none;"/>
	<path d="M 159.0,625.0 L 162.0,618.0" style="stroke:#040104; fill:none;"/>
	<path d="M 161.0,620.0 L 160.0,621.0" style="stroke:#040104; fill:none;"/>
	<path d="M 179.0,621.0 L 180.0,622.0" style="stroke:#040104; fill:none;"/>
	<path d="M 181.0,624.0 L 181.0,626.0" style="stroke:#040104; fill:none;"/>
	<path d="M 179.0,625.0 L 180.0,625.0" style="stroke:#040104; fill:none;"/>
	<path d="M 160.0,627.0 L 159.0,628.0" style="stroke:#040104; fill:none;"/>
	<path d="M 161.0,629.0 L 160.0,634.0 L 161.0,629.0" style="stroke:#040104; fill:none;"/>
	<path d="M 180.0,633.0 L 181.0,630.0 L 183.0,636.0" style="stroke:#040104; fill:none;"/>
	<path d="M 160.0,634.0 L 159.0,642.0 L 161.0,641.0" style="stroke:#040104; fill:none;"/>
	<path d="M 159.0,638.0 L 159.0,639.0" style="stroke:#040104; fill:none;"/>
	<path d="M 181.0,638.0 L 183.0,642.0" style="stroke:#040104; fill:none;"/>
	<path d="M 160.0,643.0 L 161.0,657.0" style="stroke:#040104; fill:none;"/>
	<path d="M 180.0,645.0 L 182.0,651.0" style="stroke:#040104; fill:none;"/>
	<path d="M 173.0,649.0 L 174.0,649.0" style="stroke:#040104; fill:none;"/>
	<path d="M 183.0,652.0 L 186.0,664.0 L 183.0,662.0" style="stroke:#040104; fill:none;"/>
	<path d="M 172.0,653.0 L 173.0,654.0" style="stroke:#040104; fill:none;"/>
	<path d="M 168.0,655.0 L 167.0,656.0" style="stroke:#040104; fill:none;"/>
	<path d="M 181.0,655.0 L 182.0,656.0" style="stroke:#040104; fill:none;"/>
	<path d="M 159.0,657.0 L 161.0,660.0" style="stroke:#040104; fill:none;"/>
	<path d="M 182.0,657.0 L 183.0,658.0" style="stroke:#040104; fill:none;"/>
	<path d="M 161.0,664.0 L 162.0,668.0" style="stroke:#040104; fill:none;"/>
	<path d="M 185.0,666.0 L 183.0,678.0" style="stroke:#040104; fill:none;"/>
	<path d="M 166.0,667.0 L 168.0,668.0" style="stroke:#040104; fill:none;"/>
	<path d="M 163.0,670.0 L 163.0,671.0" style="stroke:#040104; fill:none;"/>
	<path d="M 167.0,670.0 L 166.0,671.0" style="stroke:#040104; fill:none;"/>
	<path d="M 183.0,672.0 L 185.0,674.0" style="stroke:#040104; fill:none;"/>
	<path d="M 164.0,673.0 L 164.0,674.0" style="stroke:#040104; fill:none;"/>
	<path d="M 165.0,676.0 L 165.0,677.0" style="stroke:#040104; fill:none;"/>
	<path d="M 167.0,681.0 L 168.0,682.0" style="stroke:#040104; fill:none;"/>
	<path d="M 172.0,689.0 L 169.0,692.0" style="stroke:#040104; fill:none;"/>
	<path d="M 1288.0,703.0 L 1290.0,704.0 L 1290.0,700.0 L 1291.0,701.0 L 1292.0,701.0" style="stroke:#040104; fill:none;"/>
	<path d="M 1289.0,709.0 L 1289.0,710.0" style="stroke:#040104; fill:none;"/>
	<path d="M 1296.0,710.0 L 1296.0,723.0 L 1297.0,716.0" style="stroke:#040104; fill:none;"/>
	<path d="M 1295.0,715.0 L 1295.0,716.0" style="stroke:#040104; fill:none;"/>
	<path d="M 1299.0,723.0 L 1295.0,720.0 L 1298.0,719.0" style="stroke:#040104; fill:none;"/>
	<path d="M 1282.0,730.0 L 1283.0,722.0" style="stroke:#040104; fill:none;"/>
	<path d="M 1295.0,722.0 L 1297.0,722.0" style="stroke:#040104; fill:none;"/>
	<path d="M 1296.0,723.0 L 1295.0,727.0" style="stroke:#040104; fill:none;"/>
	<path d="M 1298.0,726.0 L 1298.0,727.0" style="stroke:#040104; fill:none;"/>
	<path d="M 1279.0,729.0 L 1278.0,739.0 L 1278.0,734.0" style="stroke:#040104; fill:none;"/>
	<path d="M 1295.0,729.0 L 1297.0,733.0" style="stroke:#040104; fill:none;"/>
	<path d="M 1296.0,735.0 L 1298.0,735.0 L 1296.0,735.0" style="stroke:#040104; fill:none;"/>
	<path d="M 1297.0,736.0 L 1297.0,743.0 L 1296.0,741.0" style="stroke:#040104; fill:none;"/>
	<path d="M 1298.0,738.0 L 1298.0,740.0" style="stroke:#040104; fill:none;"/>
	<path d="M 1276.0,740.0 L 1278.0,748.0" style="stroke:#040104; fill:none;"/>
	<path d="M 1297.0,746.0 L 1297.0,761.0 L 1299.0,758.0" style="stroke:#040104; fill:none;"/>
	<path d="M 1275.0,745.0 L 1272.0,761.0" style="stroke:#040104; fill:none;"/>
	<path d="M 1284.0,750.0 L 1286.0,750.0" style="stroke:#040104; fill:none;"/>
	<path d="M 1295.0,751.0 L 1296.0,752.0" style="stroke:#040104; fill:none;"/>
	<path d="M 1297.0,753.0 L 1295.0,757.0" style="stroke:#040104; fill:none;"/>
	<path d="M 1285.0,754.0 L 1284.0,756.0" style="stroke:#040104; fill:none;"/>
	<path d="M 1283.0,758.0 L 1283.0,759.0" style="stroke:#040104; fill:none;"/>
	<path d="M 1289.0,760.0 L 1290.0,762.0" style="stroke:#040104; fill:none;"/>
	<path d="M 1297.0,762.0 L 1299.0,768.0" style="stroke:#040104; fill:none;"/>
	<path d="M 1271.0,777.0 L 1268.0,777.0 L 1272.0,764.0" style="stroke:#040104; fill:none;"/>
	<path d="M 1282.0,764.0 L 1283.0,764.0" style="stroke:#040104; fill:none;"/>
	<path d="M 1272.0,766.0 L 1272.0,767.0" style="stroke:#040104; fill:none;"/>
	<path d="M 1281.0,766.0 L 1280.0,770.0" style="stroke:#040104; fill:none;"/>
	<path d="M 1296.0,767.0 L 1295.0,777.0 L 1299.0,778.0 C 1296.79,784.499 1300.15,794.188 1294.0,798.0" style="stroke:#040104; fill:none;"/>
	<path d="M 1286.0,772.0 L 1287.0,770.0" style="stroke:#040104; fill:none;"/>
	<path d="M 1268.0,772.0 L 1270.0,774.0" style="stroke:#040104; fill:none;"/>
	<path d="M 1281.0,772.0 L 1279.0,773.0" style="stroke:#040104; fill:none;"/>
	<path d="M 1284.0,779.0 L 1285.0,775.0 L 1287.0,776.0" style="stroke:#040104; fill:none;"/>
	<path d="M 1296.0,779.0 L 1297.0,785.0" style="stroke:#040104; fill:none;"/>
	<path d="M 1262.0,799.0 L 1269.0,780.0" style="stroke:#040104; fill:none;"/>
	<path d="M 1286.0,781.0 L 1284.0,784.0" style="stroke:#040104; fill:none;"/>
	<path d="M 1282.0,789.0 L 1283.0,792.0" style="stroke:#040104; fill:none;"/>
	<path d="M 1297.0,789.0 L 1295.0,797.0" style="stroke:#040104; fill:none;"/>
	<path d="M 1267.0,796.0 L 1263.0,797.0" style="stroke:#040104; fill:none;"/>
	<path d="M 1282.0,797.0 L 1283.0,797.0" style="stroke:#040104; fill:none;"/>
	<path d="M 1296.0,798.0 L 1297.0,801.0 L 1297.0,798.0" style="stroke:#040104; fill:none;"/>
	<path d="M 1265.0,800.0 C 1261.5,804.889 1258.29,820.62 1261.0,826.0" style="stroke:#040104; fill:none;"/>
	<path d="M 1281.0,800.0 L 1283.0,801.0" style="stroke:#040104; fill:none;"/>
	<path d="M 1295.0,801.0 L 1297.0,805.0 L 1297.0,803.0" style="stroke:#040104; fill:none;"/>
	<path d="M 1265.0,803.0 L 1265.0,804.0" style="stroke:#040104; fill:none;"/>
	<path d="M 1294.0,804.0 L 1295.0,805.0" style="stroke:#040104; fill:none;"/>
	<path d="M 1295.0,805.0 L 1296.0,808.0 L 1297.0,805.0" style="stroke:#040104; fill:none;"/>
	<path d="M 1294.0,808.0 L 1295.0,822.0 L 1297.0,820.0" style="stroke:#040104; fill:none;"/>
	<path d="M 1297.0,811.0 L 1298.0,812.0" style="stroke:#040104; fill:none;"/>
	<path d="M 1295.0,813.0 L 1297.0,815.0" style="stroke:#040104; fill:none;"/>
	<path d="M 1295.0,822.0 L 1295.0,829.0" style="stroke:#040104; fill:none;"/>
	<path d="M 1259.0,824.0 L 1256.0,838.0 L 1256.0,830.0" style="stroke:#040104; fill:none;"/>
	<path d="M 1293.0,832.0 L 1291.0,835.0" style="stroke:#040104; fill:none;"/>
	<path d="M 1256.0,838.0 L 1253.0,846.0" style="stroke:#040104; fill:none;"/>
	<path d="M 1256.0,849.0 L 1252.0,863.0 L 1254.0,850.0" style="stroke:#040104; fill:none;"/>
	<path d="M 1252.0,863.0 L 1252.0,867.0" style="stroke:#040104; fill:none;"/>
	<path d="M 1250.0,869.0 L 1248.0,873.0 L 1251.0,872.0" style="stroke:#040104; fill:none;"/>
	<path d="M 1248.0,875.0 L 1247.0,879.0" style="stroke:#040104; fill:none;"/>
	<path d="M 1248.0,881.0 L 1247.0,886.0 L 1246.0,884.0" style="stroke:#040104; fill:none;"/>
	<path d="M 1245.0,887.0 L 1244.0,890.0" style="stroke:#040104; fill:none;"/>
	<path d="M 1268.0,887.0 L 1268.0,889.0" style="stroke:#040104; fill:none;"/>
	<path d="M 1244.0,893.0 L 1246.0,895.0" style="stroke:#040104; fill:none;"/>
	<path d="M 1243.0,899.0 L 1243.0,900.0" style="stroke:#040104; fill:none;"/>
	<path d="M 1242.0,903.0 L 1243.0,906.0" style="stroke:#040104; fill:none;"/>
	<path d="M 1256.0,905.0 L 1258.0,906.0" style="stroke:#040104; fill:none;"/>
</svg>
