<?xml version="1.0" ?>
<svg baseProfile="full" height="1304" version="1.1" width="1221" xmlns="http://www.w3.org/2000/svg" xmlns:ev="http://www.w3.org/2001/xml-events" xmlns:xlink="http://www.w3.org/1999/xlink">
	<defs/>
	<path d="M 647.0,61.0 L 650.0,60.0" style="stroke:#0b010b; fill:none;"/>
	<path d="M 654.0,59.0 L 655.0,60.0" style="stroke:#0b010b; fill:none;"/>
	<path d="M 629.0,61.0 L 631.0,60.0" style="stroke:#0b010b; fill:none;"/>
	<path d="M 636.0,60.0 L 637.0,61.0" style="stroke:#0b010b; fill:none;"/>
	<path d="M 639.0,60.0 L 639.0,61.0" style="stroke:#0b010b; fill:none;"/>
	<path d="M 656.0,62.0 L 659.0,60.0" style="stroke:#0b010b; fill:none;"/>
	<path d="M 625.0,61.0 L 623.0,62.0" style="stroke:#0b010b; fill:none;"/>
	<path d="M 664.0,61.0 L 667.0,62.0" style="stroke:#0b010b; fill:none;"/>
	<path d="M 612.0,62.0 L 620.0,63.0" style="stroke:#0b010b; fill:none;"/>
	<path d="M 608.0,63.0 L 609.0,65.0" style="stroke:#0b010b; fill:none;"/>
	<path d="M 600.0,64.0 L 600.0,66.0" style="stroke:#0b010b; fill:none;"/>
	<path d="M 606.0,64.0 L 605.0,65.0" style="stroke:#0b010b; fill:none;"/>
	<path d="M 597.0,66.0 L 598.0,66.0" style="stroke:#0b010b; fill:none;"/>
	<path d="M 590.0,68.0 L 593.0,68.0" style="stroke:#0b010b; fill:none;"/>
	<path d="M 584.0,70.0 L 588.0,68.0" style="stroke:#0b010b; fill:none;"/>
	<path d="M 659.0,69.0 L 661.0,70.0" style="stroke:#0b010b; fill:none;"/>
	<path d="M 580.0,70.0 L 580.0,71.0" style="stroke:#0b010b; fill:none;"/>
	<path d="M 667.0,70.0 L 668.0,70.0" style="stroke:#0b010b; fill:none;"/>
	<path d="M 575.0,72.0 L 574.0,74.0" style="stroke:#0b010b; fill:none;"/>
	<path d="M 571.0,73.0 L 570.0,74.0" style="stroke:#0b010b; fill:none;"/>
	<path d="M 693.0,73.0 L 694.0,73.0" style="stroke:#0b010b; fill:none;"/>
	<path d="M 659.0,74.0 L 660.0,74.0" style="stroke:#0b010b; fill:none;"/>
	<path d="M 565.0,77.0 L 568.0,76.0" style="stroke:#0b010b; fill:none;"/>
	<path d="M 703.0,75.0 L 704.0,76.0" style="stroke:#0b010b; fill:none;"/>
	<path d="M 559.0,80.0 L 556.0,83.0" style="stroke:#0b010b; fill:none;"/>
	<path d="M 709.0,85.0 L 710.0,86.0" style="stroke:#0b010b; fill:none;"/>
	<path d="M 551.0,86.0 L 550.0,87.0" style="stroke:#0b010b; fill:none;"/>
	<path d="M 670.0,87.0 L 671.0,87.0" style="stroke:#0b010b; fill:none;"/>
	<path d="M 546.0,90.0 L 547.0,90.0" style="stroke:#0b010b; fill:none;"/>
	<path d="M 722.0,90.0 L 722.0,91.0" style="stroke:#0b010b; fill:none;"/>
	<path d="M 543.0,91.0 L 544.0,91.0" style="stroke:#0b010b; fill:none;"/>
	<path d="M 513.0,93.0 L 513.0,94.0" style="stroke:#0b010b; fill:none;"/>
	<path d="M 538.0,93.0 L 539.0,93.0" style="stroke:#0b010b; fill:none;"/>
	<path d="M 541.0,94.0 L 542.0,94.0" style="stroke:#0b010b; fill:none;"/>
	<path d="M 731.0,94.0 L 731.0,95.0" style="stroke:#0b010b; fill:none;"/>
	<path d="M 506.0,95.0 L 505.0,97.0" style="stroke:#0b010b; fill:none;"/>
	<path d="M 569.0,95.0 L 569.0,96.0" style="stroke:#0b010b; fill:none;"/>
	<path d="M 539.0,97.0 L 546.0,96.0" style="stroke:#0b010b; fill:none;"/>
	<path d="M 588.0,96.0 L 589.0,96.0" style="stroke:#0b010b; fill:none;"/>
	<path d="M 593.0,96.0 L 593.0,97.0" style="stroke:#0b010b; fill:none;"/>
	<path d="M 734.0,96.0 L 737.0,97.0" style="stroke:#0b010b; fill:none;"/>
	<path d="M 602.0,98.0 L 602.0,99.0" style="stroke:#0b010b; fill:none;"/>
	<path d="M 726.0,98.0 L 726.0,99.0" style="stroke:#0b010b; fill:none;"/>
	<path d="M 526.0,100.0 L 528.0,99.0" style="stroke:#0b010b; fill:none;"/>
	<path d="M 522.0,101.0 L 521.0,102.0" style="stroke:#0b010b; fill:none;"/>
	<path d="M 515.0,102.0 L 516.0,102.0" style="stroke:#0b010b; fill:none;"/>
	<path d="M 745.0,102.0 L 745.0,103.0" style="stroke:#0b010b; fill:none;"/>
	<path d="M 510.0,103.0 L 510.0,104.0" style="stroke:#0b010b; fill:none;"/>
	<path d="M 512.0,103.0 L 513.0,103.0" style="stroke:#0b010b; fill:none;"/>
	<path d="M 747.0,104.0 L 752.0,106.0" style="stroke:#0b010b; fill:none;"/>
	<path d="M 485.0,105.0 L 486.0,105.0" style="stroke:#0b010b; fill:none;"/>
	<path d="M 762.0,108.0 L 763.0,109.0" style="stroke:#0b010b; fill:none;"/>
	<path d="M 476.0,110.0 L 477.0,111.0" style="stroke:#0b010b; fill:none;"/>
	<path d="M 491.0,110.0 L 490.0,111.0" style="stroke:#0b010b; fill:none;"/>
	<path d="M 487.0,112.0 L 487.0,113.0" style="stroke:#0b010b; fill:none;"/>
	<path d="M 472.0,113.0 L 472.0,114.0" style="stroke:#0b010b; fill:none;"/>
	<path d="M 771.0,113.0 L 771.0,114.0" style="stroke:#0b010b; fill:none;"/>
	<path d="M 469.0,115.0 L 469.0,116.0" style="stroke:#0b010b; fill:none;"/>
	<path d="M 777.0,116.0 L 778.0,117.0" style="stroke:#0b010b; fill:none;"/>
	<path d="M 782.0,118.0 L 782.0,119.0" style="stroke:#0b010b; fill:none;"/>
	<path d="M 469.0,120.0 L 469.0,121.0" style="stroke:#0b010b; fill:none;"/>
	<path d="M 789.0,124.0 L 790.0,125.0" style="stroke:#0b010b; fill:none;"/>
	<path d="M 488.0,129.0 L 486.0,130.0" style="stroke:#0b010b; fill:none;"/>
	<path d="M 793.0,129.0 L 795.0,131.0" style="stroke:#0b010b; fill:none;"/>
	<path d="M 478.0,130.0 L 478.0,131.0" style="stroke:#0b010b; fill:none;"/>
	<path d="M 452.0,135.0 L 454.0,134.0" style="stroke:#0b010b; fill:none;"/>
	<path d="M 822.0,135.0 L 824.0,135.0" style="stroke:#0b010b; fill:none;"/>
	<path d="M 800.0,136.0 L 800.0,137.0" style="stroke:#0b010b; fill:none;"/>
	<path d="M 441.0,138.0 L 439.0,139.0" style="stroke:#0b010b; fill:none;"/>
	<path d="M 558.0,139.0 L 559.0,139.0" style="stroke:#0b010b; fill:none;"/>
	<path d="M 436.0,141.0 L 434.0,142.0" style="stroke:#0b010b; fill:none;"/>
	<path d="M 471.0,144.0 L 471.0,145.0" style="stroke:#0b010b; fill:none;"/>
	<path d="M 488.0,144.0 L 489.0,144.0" style="stroke:#0b010b; fill:none;"/>
	<path d="M 806.0,144.0 L 807.0,145.0" style="stroke:#0b010b; fill:none;"/>
	<path d="M 467.0,145.0 L 469.0,145.0" style="stroke:#0b010b; fill:none;"/>
	<path d="M 464.0,146.0 L 465.0,146.0" style="stroke:#0b010b; fill:none;"/>
	<path d="M 702.0,152.0 L 701.0,153.0" style="stroke:#0b010b; fill:none;"/>
	<path d="M 516.0,155.0 L 517.0,156.0" style="stroke:#0b010b; fill:none;"/>
	<path d="M 529.0,157.0 L 530.0,157.0" style="stroke:#0b010b; fill:none;"/>
	<path d="M 851.0,157.0 L 852.0,159.0" style="stroke:#0b010b; fill:none;"/>
	<path d="M 441.0,158.0 L 442.0,158.0" style="stroke:#0b010b; fill:none;"/>
	<path d="M 467.0,158.0 L 468.0,158.0" style="stroke:#0b010b; fill:none;"/>
	<path d="M 460.0,160.0 L 463.0,159.0" style="stroke:#0b010b; fill:none;"/>
	<path d="M 535.0,159.0 L 536.0,159.0" style="stroke:#0b010b; fill:none;"/>
	<path d="M 421.0,161.0 L 422.0,161.0" style="stroke:#0b010b; fill:none;"/>
	<path d="M 418.0,165.0 L 419.0,165.0" style="stroke:#0b010b; fill:none;"/>
	<path d="M 439.0,165.0 L 440.0,166.0" style="stroke:#0b010b; fill:none;"/>
	<path d="M 549.0,165.0 L 550.0,165.0" style="stroke:#0b010b; fill:none;"/>
	<path d="M 728.0,165.0 L 730.0,166.0" style="stroke:#0b010b; fill:none;"/>
	<path d="M 553.0,167.0 L 554.0,168.0" style="stroke:#0b010b; fill:none;"/>
	<path d="M 427.0,169.0 L 428.0,169.0" style="stroke:#0b010b; fill:none;"/>
	<path d="M 406.0,170.0 L 406.0,171.0" style="stroke:#0b010b; fill:none;"/>
	<path d="M 411.0,171.0 L 411.0,172.0" style="stroke:#0b010b; fill:none;"/>
	<path d="M 590.0,171.0 L 592.0,171.0" style="stroke:#0b010b; fill:none;"/>
	<path d="M 739.0,171.0 L 741.0,172.0" style="stroke:#0b010b; fill:none;"/>
	<path d="M 790.0,171.0 L 790.0,172.0" style="stroke:#0b010b; fill:none;"/>
	<path d="M 746.0,174.0 L 747.0,174.0" style="stroke:#0b010b; fill:none;"/>
	<path d="M 752.0,176.0 L 753.0,176.0" style="stroke:#0b010b; fill:none;"/>
	<path d="M 799.0,176.0 L 799.0,177.0" style="stroke:#0b010b; fill:none;"/>
	<path d="M 688.0,177.0 L 687.0,179.0" style="stroke:#0b010b; fill:none;"/>
	<path d="M 757.0,177.0 L 758.0,177.0" style="stroke:#0b010b; fill:none;"/>
	<path d="M 869.0,177.0 L 870.0,178.0" style="stroke:#0b010b; fill:none;"/>
	<path d="M 490.0,178.0 L 492.0,178.0" style="stroke:#0b010b; fill:none;"/>
	<path d="M 495.0,178.0 L 499.0,178.0" style="stroke:#0b010b; fill:none;"/>
	<path d="M 873.0,179.0 L 874.0,180.0" style="stroke:#0b010b; fill:none;"/>
	<path d="M 478.0,180.0 L 480.0,180.0" style="stroke:#0b010b; fill:none;"/>
	<path d="M 467.0,182.0 L 470.0,181.0" style="stroke:#0b010b; fill:none;"/>
	<path d="M 599.0,181.0 L 598.0,182.0" style="stroke:#0b010b; fill:none;"/>
	<path d="M 715.0,181.0 L 714.0,182.0" style="stroke:#0b010b; fill:none;"/>
	<path d="M 464.0,182.0 L 462.0,184.0" style="stroke:#0b010b; fill:none;"/>
	<path d="M 455.0,185.0 L 456.0,185.0" style="stroke:#0b010b; fill:none;"/>
	<path d="M 888.0,185.0 L 888.0,186.0" style="stroke:#0b010b; fill:none;"/>
	<path d="M 476.0,190.0 L 477.0,190.0" style="stroke:#0b010b; fill:none;"/>
	<path d="M 610.0,194.0 L 612.0,195.0" style="stroke:#0b010b; fill:none;"/>
	<path d="M 450.0,195.0 L 449.0,196.0" style="stroke:#0b010b; fill:none;"/>
	<path d="M 374.0,197.0 L 375.0,197.0" style="stroke:#0b010b; fill:none;"/>
	<path d="M 614.0,199.0 L 616.0,200.0" style="stroke:#0b010b; fill:none;"/>
	<path d="M 410.0,204.0 L 411.0,205.0" style="stroke:#0b010b; fill:none;"/>
	<path d="M 405.0,215.0 L 405.0,216.0" style="stroke:#0b010b; fill:none;"/>
	<path d="M 731.0,215.0 L 732.0,218.0" style="stroke:#0b010b; fill:none;"/>
	<path d="M 824.0,216.0 L 825.0,216.0" style="stroke:#0b010b; fill:none;"/>
	<path d="M 828.0,220.0 L 829.0,220.0" style="stroke:#0b010b; fill:none;"/>
	<path d="M 393.0,224.0 L 394.0,224.0" style="stroke:#0b010b; fill:none;"/>
	<path d="M 756.0,228.0 L 758.0,229.0" style="stroke:#0b010b; fill:none;"/>
	<path d="M 406.0,231.0 L 406.0,232.0" style="stroke:#0b010b; fill:none;"/>
	<path d="M 379.0,234.0 L 380.0,235.0" style="stroke:#0b010b; fill:none;"/>
	<path d="M 952.0,234.0 L 953.0,235.0" style="stroke:#0b010b; fill:none;"/>
	<path d="M 852.0,237.0 L 852.0,238.0" style="stroke:#0b010b; fill:none;"/>
	<path d="M 954.0,238.0 L 955.0,238.0" style="stroke:#0b010b; fill:none;"/>
	<path d="M 385.0,240.0 L 386.0,240.0" style="stroke:#0b010b; fill:none;"/>
	<path d="M 778.0,241.0 L 779.0,241.0" style="stroke:#0b010b; fill:none;"/>
	<path d="M 335.0,242.0 L 336.0,242.0" style="stroke:#0b010b; fill:none;"/>
	<path d="M 957.0,242.0 L 959.0,244.0" style="stroke:#0b010b; fill:none;"/>
	<path d="M 784.0,243.0 L 784.0,244.0" style="stroke:#0b010b; fill:none;"/>
	<path d="M 786.0,245.0 L 788.0,246.0" style="stroke:#0b010b; fill:none;"/>
	<path d="M 497.0,246.0 L 498.0,246.0" style="stroke:#0b010b; fill:none;"/>
	<path d="M 372.0,247.0 L 372.0,248.0" style="stroke:#0b010b; fill:none;"/>
	<path d="M 790.0,248.0 L 791.0,248.0" style="stroke:#0b010b; fill:none;"/>
	<path d="M 794.0,249.0 L 795.0,250.0" style="stroke:#0b010b; fill:none;"/>
	<path d="M 961.0,249.0 L 962.0,251.0" style="stroke:#0b010b; fill:none;"/>
	<path d="M 365.0,253.0 L 367.0,251.0" style="stroke:#0b010b; fill:none;"/>
	<path d="M 712.0,253.0 L 714.0,257.0" style="stroke:#0b010b; fill:none;"/>
	<path d="M 964.0,254.0 L 965.0,254.0" style="stroke:#0b010b; fill:none;"/>
	<path d="M 808.0,255.0 L 809.0,256.0" style="stroke:#0b010b; fill:none;"/>
	<path d="M 812.0,257.0 L 813.0,257.0" style="stroke:#0b010b; fill:none;"/>
	<path d="M 815.0,258.0 L 816.0,258.0" style="stroke:#0b010b; fill:none;"/>
	<path d="M 717.0,259.0 L 717.0,260.0" style="stroke:#0b010b; fill:none;"/>
	<path d="M 821.0,259.0 L 822.0,260.0" style="stroke:#0b010b; fill:none;"/>
	<path d="M 719.0,260.0 L 720.0,262.0" style="stroke:#0b010b; fill:none;"/>
	<path d="M 527.0,261.0 L 528.0,261.0" style="stroke:#0b010b; fill:none;"/>
	<path d="M 825.0,261.0 L 827.0,261.0" style="stroke:#0b010b; fill:none;"/>
	<path d="M 566.0,263.0 L 565.0,264.0" style="stroke:#0b010b; fill:none;"/>
	<path d="M 723.0,263.0 L 724.0,264.0" style="stroke:#0b010b; fill:none;"/>
	<path d="M 839.0,264.0 L 842.0,265.0" style="stroke:#0b010b; fill:none;"/>
	<path d="M 969.0,264.0 L 971.0,264.0" style="stroke:#0b010b; fill:none;"/>
	<path d="M 311.0,265.0 L 310.0,266.0" style="stroke:#0b010b; fill:none;"/>
	<path d="M 570.0,265.0 L 569.0,266.0" style="stroke:#0b010b; fill:none;"/>
	<path d="M 725.0,266.0 L 726.0,266.0" style="stroke:#0b010b; fill:none;"/>
	<path d="M 851.0,266.0 L 854.0,266.0" style="stroke:#0b010b; fill:none;"/>
	<path d="M 546.0,267.0 L 546.0,268.0" style="stroke:#0b010b; fill:none;"/>
	<path d="M 858.0,267.0 L 860.0,268.0" style="stroke:#0b010b; fill:none;"/>
	<path d="M 728.0,268.0 L 735.0,275.0" style="stroke:#0b010b; fill:none;"/>
	<path d="M 973.0,268.0 L 973.0,269.0" style="stroke:#0b010b; fill:none;"/>
	<path d="M 670.0,269.0 L 671.0,269.0" style="stroke:#0b010b; fill:none;"/>
	<path d="M 554.0,271.0 L 555.0,271.0" style="stroke:#0b010b; fill:none;"/>
	<path d="M 973.0,271.0 L 975.0,271.0" style="stroke:#0b010b; fill:none;"/>
	<path d="M 754.0,274.0 L 755.0,274.0" style="stroke:#0b010b; fill:none;"/>
	<path d="M 410.0,276.0 L 425.0,276.0" style="stroke:#0b010b; fill:none;"/>
	<path d="M 408.0,276.0 L 408.0,277.0" style="stroke:#0b010b; fill:none;"/>
	<path d="M 428.0,276.0 L 432.0,277.0" style="stroke:#0b010b; fill:none;"/>
	<path d="M 738.0,276.0 L 742.0,282.0" style="stroke:#0b010b; fill:none;"/>
	<path d="M 399.0,280.0 L 406.0,277.0" style="stroke:#0b010b; fill:none;"/>
	<path d="M 434.0,278.0 L 436.0,279.0" style="stroke:#0b010b; fill:none;"/>
	<path d="M 601.0,278.0 L 603.0,279.0" style="stroke:#0b010b; fill:none;"/>
	<path d="M 676.0,278.0 L 677.0,278.0" style="stroke:#0b010b; fill:none;"/>
	<path d="M 438.0,279.0 L 441.0,281.0" style="stroke:#0b010b; fill:none;"/>
	<path d="M 678.0,281.0 L 679.0,282.0" style="stroke:#0b010b; fill:none;"/>
	<path d="M 978.0,281.0 L 979.0,281.0" style="stroke:#0b010b; fill:none;"/>
	<path d="M 297.0,282.0 L 296.0,283.0" style="stroke:#0b010b; fill:none;"/>
	<path d="M 443.0,282.0 L 458.0,295.0" style="stroke:#0b010b; fill:none;"/>
	<path d="M 759.0,283.0 L 759.0,284.0" style="stroke:#0b010b; fill:none;"/>
	<path d="M 392.0,284.0 L 390.0,285.0" style="stroke:#0b010b; fill:none;"/>
	<path d="M 576.0,284.0 L 577.0,284.0" style="stroke:#0b010b; fill:none;"/>
	<path d="M 681.0,284.0 L 682.0,286.0" style="stroke:#0b010b; fill:none;"/>
	<path d="M 774.0,287.0 L 774.0,289.0" style="stroke:#0b010b; fill:none;"/>
	<path d="M 883.0,287.0 L 884.0,288.0" style="stroke:#0b010b; fill:none;"/>
	<path d="M 382.0,294.0 L 388.0,288.0" style="stroke:#0b010b; fill:none;"/>
	<path d="M 646.0,288.0 L 647.0,289.0" style="stroke:#0b010b; fill:none;"/>
	<path d="M 887.0,290.0 L 888.0,290.0" style="stroke:#0b010b; fill:none;"/>
	<path d="M 675.0,291.0 L 676.0,291.0" style="stroke:#0b010b; fill:none;"/>
	<path d="M 700.0,292.0 L 702.0,294.0" style="stroke:#0b010b; fill:none;"/>
	<path d="M 913.0,294.0 L 914.0,294.0" style="stroke:#0b010b; fill:none;"/>
	<path d="M 324.0,296.0 L 325.0,296.0" style="stroke:#0b010b; fill:none;"/>
	<path d="M 460.0,298.0 L 461.0,299.0" style="stroke:#0b010b; fill:none;"/>
	<path d="M 691.0,299.0 L 690.0,300.0" style="stroke:#0b010b; fill:none;"/>
	<path d="M 601.0,300.0 L 602.0,300.0" style="stroke:#0b010b; fill:none;"/>
	<path d="M 769.0,300.0 L 770.0,303.0" style="stroke:#0b010b; fill:none;"/>
	<path d="M 463.0,301.0 L 464.0,302.0" style="stroke:#0b010b; fill:none;"/>
	<path d="M 901.0,301.0 L 901.0,302.0" style="stroke:#0b010b; fill:none;"/>
	<path d="M 379.0,302.0 L 378.0,303.0" style="stroke:#0b010b; fill:none;"/>
	<path d="M 692.0,302.0 L 693.0,304.0" style="stroke:#0b010b; fill:none;"/>
	<path d="M 378.0,305.0 L 379.0,306.0" style="stroke:#0b010b; fill:none;"/>
	<path d="M 632.0,305.0 L 634.0,305.0" style="stroke:#0b010b; fill:none;"/>
	<path d="M 640.0,307.0 L 641.0,307.0" style="stroke:#0b010b; fill:none;"/>
	<path d="M 468.0,308.0 L 469.0,310.0" style="stroke:#0b010b; fill:none;"/>
	<path d="M 742.0,308.0 L 743.0,308.0" style="stroke:#0b010b; fill:none;"/>
	<path d="M 818.0,308.0 L 819.0,309.0" style="stroke:#0b010b; fill:none;"/>
	<path d="M 622.0,309.0 L 625.0,311.0" style="stroke:#0b010b; fill:none;"/>
	<path d="M 697.0,309.0 L 701.0,314.0" style="stroke:#0b010b; fill:none;"/>
	<path d="M 751.0,310.0 L 752.0,310.0" style="stroke:#0b010b; fill:none;"/>
	<path d="M 715.0,311.0 L 716.0,312.0" style="stroke:#0b010b; fill:none;"/>
	<path d="M 762.0,312.0 L 763.0,313.0" style="stroke:#0b010b; fill:none;"/>
	<path d="M 633.0,313.0 L 635.0,314.0" style="stroke:#0b010b; fill:none;"/>
	<path d="M 822.0,313.0 L 822.0,314.0" style="stroke:#0b010b; fill:none;"/>
	<path d="M 915.0,314.0 L 916.0,314.0" style="stroke:#0b010b; fill:none;"/>
	<path d="M 563.0,315.0 L 564.0,317.0" style="stroke:#0b010b; fill:none;"/>
	<path d="M 917.0,316.0 L 919.0,318.0" style="stroke:#0b010b; fill:none;"/>
	<path d="M 380.0,318.0 L 380.0,319.0" style="stroke:#0b010b; fill:none;"/>
	<path d="M 475.0,318.0 L 478.0,323.0" style="stroke:#0b010b; fill:none;"/>
	<path d="M 639.0,318.0 L 639.0,319.0" style="stroke:#0b010b; fill:none;"/>
	<path d="M 704.0,318.0 L 705.0,319.0" style="stroke:#0b010b; fill:none;"/>
	<path d="M 568.0,321.0 L 570.0,321.0" style="stroke:#0b010b; fill:none;"/>
	<path d="M 658.0,321.0 L 659.0,321.0" style="stroke:#0b010b; fill:none;"/>
	<path d="M 366.0,322.0 L 363.0,326.0" style="stroke:#0b010b; fill:none;"/>
	<path d="M 995.0,324.0 L 995.0,325.0" style="stroke:#0b010b; fill:none;"/>
	<path d="M 699.0,326.0 L 700.0,326.0" style="stroke:#0b010b; fill:none;"/>
	<path d="M 481.0,327.0 L 481.0,328.0" style="stroke:#0b010b; fill:none;"/>
	<path d="M 711.0,327.0 L 712.0,327.0" style="stroke:#0b010b; fill:none;"/>
	<path d="M 362.0,330.0 L 364.0,330.0" style="stroke:#0b010b; fill:none;"/>
	<path d="M 708.0,330.0 L 709.0,331.0" style="stroke:#0b010b; fill:none;"/>
	<path d="M 615.0,331.0 L 617.0,333.0" style="stroke:#0b010b; fill:none;"/>
	<path d="M 650.0,331.0 L 651.0,332.0" style="stroke:#0b010b; fill:none;"/>
	<path d="M 362.0,332.0 L 364.0,332.0" style="stroke:#0b010b; fill:none;"/>
	<path d="M 484.0,332.0 L 485.0,338.0" style="stroke:#0b010b; fill:none;"/>
	<path d="M 599.0,332.0 L 599.0,333.0" style="stroke:#0b010b; fill:none;"/>
	<path d="M 717.0,332.0 L 717.0,333.0" style="stroke:#0b010b; fill:none;"/>
	<path d="M 932.0,333.0 L 933.0,334.0" style="stroke:#0b010b; fill:none;"/>
	<path d="M 580.0,335.0 L 581.0,335.0" style="stroke:#0b010b; fill:none;"/>
	<path d="M 619.0,336.0 L 620.0,338.0" style="stroke:#0b010b; fill:none;"/>
	<path d="M 843.0,336.0 L 844.0,337.0" style="stroke:#0b010b; fill:none;"/>
	<path d="M 356.0,338.0 L 356.0,340.0" style="stroke:#0b010b; fill:none;"/>
	<path d="M 721.0,338.0 L 723.0,340.0" style="stroke:#0b010b; fill:none;"/>
	<path d="M 490.0,341.0 L 493.0,348.0" style="stroke:#0b010b; fill:none;"/>
	<path d="M 487.0,342.0 L 489.0,342.0" style="stroke:#0b010b; fill:none;"/>
	<path d="M 725.0,342.0 L 727.0,342.0" style="stroke:#0b010b; fill:none;"/>
	<path d="M 254.0,343.0 L 255.0,343.0" style="stroke:#0b010b; fill:none;"/>
	<path d="M 785.0,343.0 L 785.0,344.0" style="stroke:#0b010b; fill:none;"/>
	<path d="M 348.0,351.0 L 353.0,347.0" style="stroke:#0b010b; fill:none;"/>
	<path d="M 546.0,346.0 L 546.0,347.0" style="stroke:#0b010b; fill:none;"/>
	<path d="M 972.0,346.0 L 973.0,346.0" style="stroke:#0b010b; fill:none;"/>
	<path d="M 265.0,348.0 L 266.0,348.0" style="stroke:#0b010b; fill:none;"/>
	<path d="M 595.0,349.0 L 595.0,350.0" style="stroke:#0b010b; fill:none;"/>
	<path d="M 821.0,350.0 L 820.0,351.0" style="stroke:#0b010b; fill:none;"/>
	<path d="M 549.0,352.0 L 550.0,352.0" style="stroke:#0b010b; fill:none;"/>
	<path d="M 495.0,353.0 L 495.0,356.0" style="stroke:#0b010b; fill:none;"/>
	<path d="M 867.0,353.0 L 868.0,354.0" style="stroke:#0b010b; fill:none;"/>
	<path d="M 347.0,354.0 L 346.0,356.0" style="stroke:#0b010b; fill:none;"/>
	<path d="M 499.0,359.0 L 502.0,369.0" style="stroke:#0b010b; fill:none;"/>
	<path d="M 300.0,361.0 L 298.0,362.0" style="stroke:#0b010b; fill:none;"/>
	<path d="M 760.0,362.0 L 761.0,362.0" style="stroke:#0b010b; fill:none;"/>
	<path d="M 341.0,364.0 L 344.0,363.0" style="stroke:#0b010b; fill:none;"/>
	<path d="M 990.0,363.0 L 990.0,364.0" style="stroke:#0b010b; fill:none;"/>
	<path d="M 640.0,366.0 L 640.0,367.0" style="stroke:#0b010b; fill:none;"/>
	<path d="M 775.0,366.0 L 776.0,367.0" style="stroke:#0b010b; fill:none;"/>
	<path d="M 249.0,367.0 L 249.0,368.0" style="stroke:#0b010b; fill:none;"/>
	<path d="M 342.0,367.0 L 342.0,368.0" style="stroke:#0b010b; fill:none;"/>
	<path d="M 558.0,369.0 L 558.0,370.0" style="stroke:#0b010b; fill:none;"/>
	<path d="M 340.0,373.0 L 337.0,380.0" style="stroke:#0b010b; fill:none;"/>
	<path d="M 503.0,373.0 L 506.0,376.0" style="stroke:#0b010b; fill:none;"/>
	<path d="M 669.0,373.0 L 670.0,374.0" style="stroke:#0b010b; fill:none;"/>
	<path d="M 821.0,376.0 L 820.0,377.0" style="stroke:#0b010b; fill:none;"/>
	<path d="M 1000.0,376.0 L 1000.0,377.0" style="stroke:#0b010b; fill:none;"/>
	<path d="M 241.0,377.0 L 242.0,377.0" style="stroke:#0b010b; fill:none;"/>
	<path d="M 506.0,378.0 L 506.0,380.0" style="stroke:#0b010b; fill:none;"/>
	<path d="M 632.0,379.0 L 633.0,379.0" style="stroke:#0b010b; fill:none;"/>
	<path d="M 815.0,379.0 L 815.0,380.0" style="stroke:#0b010b; fill:none;"/>
	<path d="M 1000.0,379.0 L 1001.0,379.0" style="stroke:#0b010b; fill:none;"/>
	<path d="M 770.0,380.0 L 769.0,381.0" style="stroke:#0b010b; fill:none;"/>
	<path d="M 563.0,381.0 L 564.0,382.0" style="stroke:#0b010b; fill:none;"/>
	<path d="M 509.0,382.0 L 510.0,383.0" style="stroke:#0b010b; fill:none;"/>
	<path d="M 336.0,384.0 L 336.0,386.0 L 336.0,384.0" style="stroke:#0b010b; fill:none;"/>
	<path d="M 638.0,386.0 L 640.0,386.0" style="stroke:#0b010b; fill:none;"/>
	<path d="M 766.0,386.0 L 767.0,386.0" style="stroke:#0b010b; fill:none;"/>
	<path d="M 510.0,387.0 L 514.0,393.0" style="stroke:#0b010b; fill:none;"/>
	<path d="M 567.0,388.0 L 566.0,389.0" style="stroke:#0b010b; fill:none;"/>
	<path d="M 336.0,389.0 L 335.0,391.0" style="stroke:#0b010b; fill:none;"/>
	<path d="M 642.0,389.0 L 643.0,389.0" style="stroke:#0b010b; fill:none;"/>
	<path d="M 643.0,391.0 L 644.0,392.0" style="stroke:#0b010b; fill:none;"/>
	<path d="M 663.0,394.0 L 665.0,397.0" style="stroke:#0b010b; fill:none;"/>
	<path d="M 706.0,394.0 L 707.0,395.0" style="stroke:#0b010b; fill:none;"/>
	<path d="M 514.0,395.0 L 513.0,397.0" style="stroke:#0b010b; fill:none;"/>
	<path d="M 626.0,395.0 L 625.0,396.0" style="stroke:#0b010b; fill:none;"/>
	<path d="M 749.0,397.0 L 749.0,398.0" style="stroke:#0b010b; fill:none;"/>
	<path d="M 652.0,398.0 L 651.0,399.0" style="stroke:#0b010b; fill:none;"/>
	<path d="M 514.0,399.0 L 515.0,400.0" style="stroke:#0b010b; fill:none;"/>
	<path d="M 522.0,401.0 L 523.0,401.0" style="stroke:#0b010b; fill:none;"/>
	<path d="M 1009.0,401.0 L 1009.0,405.0" style="stroke:#0b010b; fill:none;"/>
	<path d="M 745.0,408.0 L 744.0,409.0" style="stroke:#0b010b; fill:none;"/>
	<path d="M 816.0,409.0 L 817.0,409.0" style="stroke:#0b010b; fill:none;"/>
	<path d="M 234.0,411.0 L 232.0,413.0" style="stroke:#0b010b; fill:none;"/>
	<path d="M 670.0,411.0 L 671.0,412.0" style="stroke:#0b010b; fill:none;"/>
	<path d="M 743.0,411.0 L 742.0,412.0" style="stroke:#0b010b; fill:none;"/>
	<path d="M 1010.0,411.0 L 1011.0,412.0" style="stroke:#0b010b; fill:none;"/>
	<path d="M 519.0,412.0 L 522.0,416.0" style="stroke:#0b010b; fill:none;"/>
	<path d="M 789.0,414.0 L 790.0,414.0" style="stroke:#0b010b; fill:none;"/>
	<path d="M 681.0,417.0 L 682.0,418.0" style="stroke:#0b010b; fill:none;"/>
	<path d="M 522.0,418.0 L 523.0,421.0" style="stroke:#0b010b; fill:none;"/>
	<path d="M 783.0,418.0 L 784.0,418.0" style="stroke:#0b010b; fill:none;"/>
	<path d="M 578.0,419.0 L 579.0,419.0" style="stroke:#0b010b; fill:none;"/>
	<path d="M 690.0,422.0 L 691.0,423.0" style="stroke:#0b010b; fill:none;"/>
	<path d="M 773.0,425.0 L 775.0,424.0" style="stroke:#0b010b; fill:none;"/>
	<path d="M 696.0,426.0 L 698.0,426.0" style="stroke:#0b010b; fill:none;"/>
	<path d="M 712.0,426.0 L 713.0,426.0" style="stroke:#0b010b; fill:none;"/>
	<path d="M 1012.0,426.0 L 1013.0,426.0" style="stroke:#0b010b; fill:none;"/>
	<path d="M 655.0,427.0 L 654.0,428.0" style="stroke:#0b010b; fill:none;"/>
	<path d="M 233.0,429.0 L 233.0,430.0" style="stroke:#0b010b; fill:none;"/>
	<path d="M 1025.0,430.0 L 1025.0,431.0" style="stroke:#0b010b; fill:none;"/>
	<path d="M 774.0,431.0 L 772.0,433.0" style="stroke:#0b010b; fill:none;"/>
	<path d="M 801.0,431.0 L 803.0,431.0" style="stroke:#0b010b; fill:none;"/>
	<path d="M 574.0,433.0 L 576.0,435.0" style="stroke:#0b010b; fill:none;"/>
	<path d="M 775.0,433.0 L 771.0,436.0" style="stroke:#0b010b; fill:none;"/>
	<path d="M 539.0,434.0 L 540.0,435.0" style="stroke:#0b010b; fill:none;"/>
	<path d="M 299.0,435.0 L 300.0,436.0" style="stroke:#0b010b; fill:none;"/>
	<path d="M 542.0,437.0 L 544.0,440.0" style="stroke:#0b010b; fill:none;"/>
	<path d="M 767.0,440.0 L 768.0,440.0" style="stroke:#0b010b; fill:none;"/>
	<path d="M 888.0,441.0 L 888.0,442.0" style="stroke:#0b010b; fill:none;"/>
	<path d="M 934.0,441.0 L 934.0,442.0" style="stroke:#0b010b; fill:none;"/>
	<path d="M 584.0,444.0 L 585.0,445.0" style="stroke:#0b010b; fill:none;"/>
	<path d="M 1028.0,444.0 L 1028.0,446.0" style="stroke:#0b010b; fill:none;"/>
	<path d="M 779.0,445.0 L 780.0,445.0" style="stroke:#0b010b; fill:none;"/>
	<path d="M 727.0,446.0 L 726.0,447.0" style="stroke:#0b010b; fill:none;"/>
	<path d="M 925.0,446.0 L 926.0,446.0" style="stroke:#0b010b; fill:none;"/>
	<path d="M 777.0,447.0 L 778.0,447.0" style="stroke:#0b010b; fill:none;"/>
	<path d="M 551.0,448.0 L 552.0,449.0" style="stroke:#0b010b; fill:none;"/>
	<path d="M 773.0,449.0 L 774.0,449.0" style="stroke:#0b010b; fill:none;"/>
	<path d="M 920.0,449.0 L 921.0,449.0" style="stroke:#0b010b; fill:none;"/>
	<path d="M 597.0,450.0 L 598.0,451.0" style="stroke:#0b010b; fill:none;"/>
	<path d="M 770.0,450.0 L 769.0,451.0" style="stroke:#0b010b; fill:none;"/>
	<path d="M 918.0,450.0 L 918.0,452.0" style="stroke:#0b010b; fill:none;"/>
	<path d="M 294.0,452.0 L 294.0,453.0" style="stroke:#0b010b; fill:none;"/>
	<path d="M 557.0,453.0 L 559.0,453.0" style="stroke:#0b010b; fill:none;"/>
	<path d="M 766.0,452.0 L 767.0,452.0" style="stroke:#0b010b; fill:none;"/>
	<path d="M 820.0,453.0 L 818.0,454.0" style="stroke:#0b010b; fill:none;"/>
	<path d="M 849.0,453.0 L 851.0,453.0" style="stroke:#0b010b; fill:none;"/>
	<path d="M 913.0,453.0 L 914.0,453.0" style="stroke:#0b010b; fill:none;"/>
	<path d="M 696.0,454.0 L 697.0,454.0" style="stroke:#0b010b; fill:none;"/>
	<path d="M 560.0,456.0 L 562.0,456.0" style="stroke:#0b010b; fill:none;"/>
	<path d="M 908.0,456.0 L 907.0,457.0" style="stroke:#0b010b; fill:none;"/>
	<path d="M 293.0,457.0 L 292.0,458.0" style="stroke:#0b010b; fill:none;"/>
	<path d="M 567.0,458.0 L 567.0,459.0" style="stroke:#0b010b; fill:none;"/>
	<path d="M 292.0,460.0 L 293.0,460.0" style="stroke:#0b010b; fill:none;"/>
	<path d="M 1018.0,460.0 L 1018.0,461.0" style="stroke:#0b010b; fill:none;"/>
	<path d="M 710.0,462.0 L 708.0,464.0" style="stroke:#0b010b; fill:none;"/>
	<path d="M 744.0,462.0 L 746.0,462.0" style="stroke:#0b010b; fill:none;"/>
	<path d="M 896.0,463.0 L 897.0,463.0" style="stroke:#0b010b; fill:none;"/>
	<path d="M 791.0,464.0 L 792.0,464.0" style="stroke:#0b010b; fill:none;"/>
	<path d="M 843.0,464.0 L 844.0,464.0" style="stroke:#0b010b; fill:none;"/>
	<path d="M 894.0,464.0 L 894.0,465.0" style="stroke:#0b010b; fill:none;"/>
	<path d="M 862.0,465.0 L 864.0,465.0" style="stroke:#0b010b; fill:none;"/>
	<path d="M 705.0,466.0 L 704.0,467.0" style="stroke:#0b010b; fill:none;"/>
	<path d="M 839.0,466.0 L 840.0,466.0" style="stroke:#0b010b; fill:none;"/>
	<path d="M 784.0,467.0 L 784.0,468.0" style="stroke:#0b010b; fill:none;"/>
	<path d="M 835.0,468.0 L 837.0,467.0" style="stroke:#0b010b; fill:none;"/>
	<path d="M 604.0,468.0 L 605.0,468.0" style="stroke:#0b010b; fill:none;"/>
	<path d="M 719.0,469.0 L 720.0,469.0" style="stroke:#0b010b; fill:none;"/>
	<path d="M 826.0,472.0 L 830.0,470.0" style="stroke:#0b010b; fill:none;"/>
	<path d="M 819.0,474.0 L 822.0,473.0" style="stroke:#0b010b; fill:none;"/>
	<path d="M 1020.0,474.0 L 1021.0,474.0" style="stroke:#0b010b; fill:none;"/>
	<path d="M 690.0,475.0 L 687.0,477.0" style="stroke:#0b010b; fill:none;"/>
	<path d="M 812.0,475.0 L 813.0,475.0" style="stroke:#0b010b; fill:none;"/>
	<path d="M 1021.0,476.0 L 1020.0,480.0" style="stroke:#0b010b; fill:none;"/>
	<path d="M 799.0,479.0 L 802.0,478.0" style="stroke:#0b010b; fill:none;"/>
	<path d="M 787.0,481.0 L 792.0,480.0" style="stroke:#0b010b; fill:none;"/>
	<path d="M 765.0,481.0 L 767.0,481.0" style="stroke:#0b010b; fill:none;"/>
	<path d="M 776.0,481.0 L 777.0,481.0" style="stroke:#0b010b; fill:none;"/>
	<path d="M 289.0,482.0 L 289.0,483.0" style="stroke:#0b010b; fill:none;"/>
	<path d="M 902.0,486.0 L 906.0,485.0" style="stroke:#0b010b; fill:none;"/>
	<path d="M 899.0,486.0 L 900.0,486.0" style="stroke:#0b010b; fill:none;"/>
	<path d="M 833.0,488.0 L 835.0,488.0" style="stroke:#0b010b; fill:none;"/>
	<path d="M 888.0,488.0 L 889.0,488.0" style="stroke:#0b010b; fill:none;"/>
	<path d="M 870.0,489.0 L 870.0,490.0" style="stroke:#0b010b; fill:none;"/>
	<path d="M 872.0,490.0 L 876.0,489.0" style="stroke:#0b010b; fill:none;"/>
	<path d="M 878.0,489.0 L 878.0,490.0" style="stroke:#0b010b; fill:none;"/>
	<path d="M 1027.0,493.0 L 1027.0,495.0" style="stroke:#0b010b; fill:none;"/>
	<path d="M 839.0,494.0 L 844.0,494.0" style="stroke:#0b010b; fill:none;"/>
	<path d="M 846.0,495.0 L 847.0,495.0" style="stroke:#0b010b; fill:none;"/>
	<path d="M 872.0,496.0 L 872.0,497.0" style="stroke:#0b010b; fill:none;"/>
	<path d="M 866.0,497.0 L 867.0,497.0" style="stroke:#0b010b; fill:none;"/>
	<path d="M 1021.0,497.0 L 1020.0,499.0" style="stroke:#0b010b; fill:none;"/>
	<path d="M 313.0,500.0 L 312.0,501.0" style="stroke:#0b010b; fill:none;"/>
	<path d="M 1020.0,501.0 L 1020.0,502.0" style="stroke:#0b010b; fill:none;"/>
	<path d="M 864.0,502.0 L 865.0,502.0" style="stroke:#0b010b; fill:none;"/>
	<path d="M 268.0,503.0 L 269.0,503.0" style="stroke:#0b010b; fill:none;"/>
	<path d="M 285.0,504.0 L 284.0,506.0" style="stroke:#0b010b; fill:none;"/>
	<path d="M 1020.0,505.0 L 1019.0,506.0" style="stroke:#0b010b; fill:none;"/>
	<path d="M 284.0,508.0 L 284.0,509.0" style="stroke:#0b010b; fill:none;"/>
	<path d="M 1027.0,523.0 L 1027.0,525.0" style="stroke:#0b010b; fill:none;"/>
	<path d="M 1026.0,529.0 L 1026.0,532.0" style="stroke:#0b010b; fill:none;"/>
	<path d="M 1027.0,534.0 L 1027.0,535.0" style="stroke:#0b010b; fill:none;"/>
	<path d="M 266.0,540.0 L 267.0,540.0" style="stroke:#0b010b; fill:none;"/>
	<path d="M 1025.0,545.0 L 1024.0,546.0" style="stroke:#0b010b; fill:none;"/>
	<path d="M 962.0,548.0 L 962.0,549.0" style="stroke:#0b010b; fill:none;"/>
	<path d="M 1028.0,551.0 L 1028.0,552.0" style="stroke:#0b010b; fill:none;"/>
	<path d="M 321.0,554.0 L 321.0,557.0" style="stroke:#0b010b; fill:none;"/>
	<path d="M 1024.0,555.0 L 1025.0,556.0" style="stroke:#0b010b; fill:none;"/>
	<path d="M 943.0,561.0 L 943.0,562.0" style="stroke:#0b010b; fill:none;"/>
	<path d="M 1023.0,562.0 L 1023.0,564.0" style="stroke:#0b010b; fill:none;"/>
	<path d="M 1028.0,562.0 L 1028.0,564.0" style="stroke:#0b010b; fill:none;"/>
	<path d="M 931.0,564.0 L 931.0,565.0" style="stroke:#0b010b; fill:none;"/>
	<path d="M 321.0,567.0 L 321.0,570.0" style="stroke:#0b010b; fill:none;"/>
	<path d="M 919.0,569.0 L 919.0,571.0" style="stroke:#0b010b; fill:none;"/>
	<path d="M 1027.0,571.0 L 1027.0,574.0" style="stroke:#0b010b; fill:none;"/>
	<path d="M 1004.0,579.0 L 1005.0,580.0" style="stroke:#0b010b; fill:none;"/>
	<path d="M 952.0,581.0 L 952.0,582.0" style="stroke:#0b010b; fill:none;"/>
	<path d="M 321.0,583.0 L 321.0,585.0" style="stroke:#0b010b; fill:none;"/>
	<path d="M 936.0,583.0 L 937.0,585.0" style="stroke:#0b010b; fill:none;"/>
	<path d="M 278.0,585.0 L 279.0,586.0" style="stroke:#0b010b; fill:none;"/>
	<path d="M 319.0,588.0 L 320.0,588.0" style="stroke:#0b010b; fill:none;"/>
	<path d="M 938.0,590.0 L 937.0,591.0" style="stroke:#0b010b; fill:none;"/>
	<path d="M 1025.0,590.0 L 1025.0,591.0" style="stroke:#0b010b; fill:none;"/>
	<path d="M 920.0,592.0 L 921.0,592.0" style="stroke:#0b010b; fill:none;"/>
	<path d="M 955.0,593.0 L 956.0,593.0" style="stroke:#0b010b; fill:none;"/>
	<path d="M 319.0,596.0 L 320.0,598.0" style="stroke:#0b010b; fill:none;"/>
	<path d="M 319.0,603.0 L 320.0,600.0" style="stroke:#0b010b; fill:none;"/>
	<path d="M 940.0,602.0 L 941.0,604.0" style="stroke:#0b010b; fill:none;"/>
	<path d="M 923.0,603.0 L 922.0,605.0" style="stroke:#0b010b; fill:none;"/>
	<path d="M 296.0,605.0 L 297.0,605.0" style="stroke:#0b010b; fill:none;"/>
	<path d="M 959.0,606.0 L 960.0,607.0" style="stroke:#0b010b; fill:none;"/>
	<path d="M 962.0,606.0 L 963.0,606.0" style="stroke:#0b010b; fill:none;"/>
	<path d="M 318.0,607.0 L 317.0,613.0" style="stroke:#0b010b; fill:none;"/>
	<path d="M 959.0,609.0 L 960.0,609.0" style="stroke:#0b010b; fill:none;"/>
	<path d="M 1022.0,610.0 L 1023.0,611.0" style="stroke:#0b010b; fill:none;"/>
	<path d="M 950.0,614.0 L 951.0,615.0" style="stroke:#0b010b; fill:none;"/>
	<path d="M 1023.0,614.0 L 1023.0,615.0" style="stroke:#0b010b; fill:none;"/>
	<path d="M 950.0,618.0 L 950.0,622.0" style="stroke:#0b010b; fill:none;"/>
	<path d="M 317.0,621.0 L 316.0,626.0" style="stroke:#0b010b; fill:none;"/>
	<path d="M 992.0,621.0 L 992.0,622.0" style="stroke:#0b010b; fill:none;"/>
	<path d="M 955.0,623.0 L 956.0,624.0" style="stroke:#0b010b; fill:none;"/>
	<path d="M 1005.0,624.0 L 1006.0,624.0" style="stroke:#0b010b; fill:none;"/>
	<path d="M 262.0,625.0 L 263.0,625.0" style="stroke:#0b010b; fill:none;"/>
	<path d="M 946.0,626.0 L 947.0,627.0" style="stroke:#0b010b; fill:none;"/>
	<path d="M 951.0,626.0 L 951.0,627.0" style="stroke:#0b010b; fill:none;"/>
	<path d="M 949.0,629.0 L 949.0,630.0" style="stroke:#0b010b; fill:none;"/>
	<path d="M 999.0,629.0 L 998.0,630.0" style="stroke:#0b010b; fill:none;"/>
	<path d="M 965.0,630.0 L 966.0,631.0" style="stroke:#0b010b; fill:none;"/>
	<path d="M 315.0,631.0 L 315.0,632.0" style="stroke:#0b010b; fill:none;"/>
	<path d="M 956.0,632.0 L 957.0,633.0" style="stroke:#0b010b; fill:none;"/>
	<path d="M 315.0,636.0 L 315.0,638.0" style="stroke:#0b010b; fill:none;"/>
	<path d="M 262.0,637.0 L 262.0,638.0" style="stroke:#0b010b; fill:none;"/>
	<path d="M 996.0,637.0 L 995.0,638.0" style="stroke:#0b010b; fill:none;"/>
	<path d="M 992.0,640.0 L 991.0,642.0" style="stroke:#0b010b; fill:none;"/>
	<path d="M 316.0,641.0 L 315.0,644.0" style="stroke:#0b010b; fill:none;"/>
	<path d="M 262.0,643.0 L 263.0,643.0" style="stroke:#0b010b; fill:none;"/>
	<path d="M 268.0,643.0 L 271.0,647.0" style="stroke:#0b010b; fill:none;"/>
	<path d="M 988.0,644.0 L 987.0,645.0" style="stroke:#0b010b; fill:none;"/>
	<path d="M 985.0,650.0 L 990.0,647.0" style="stroke:#0b010b; fill:none;"/>
	<path d="M 946.0,651.0 L 947.0,651.0" style="stroke:#0b010b; fill:none;"/>
	<path d="M 981.0,652.0 L 982.0,652.0" style="stroke:#0b010b; fill:none;"/>
	<path d="M 312.0,654.0 L 313.0,656.0" style="stroke:#0b010b; fill:none;"/>
	<path d="M 286.0,655.0 L 287.0,656.0" style="stroke:#0b010b; fill:none;"/>
	<path d="M 313.0,662.0 L 313.0,664.0 L 313.0,662.0" style="stroke:#0b010b; fill:none;"/>
	<path d="M 313.0,666.0 L 312.0,675.0" style="stroke:#0b010b; fill:none;"/>
	<path d="M 311.0,669.0 L 312.0,669.0" style="stroke:#0b010b; fill:none;"/>
	<path d="M 926.0,669.0 L 927.0,669.0" style="stroke:#0b010b; fill:none;"/>
	<path d="M 311.0,678.0 L 311.0,680.0 L 311.0,678.0" style="stroke:#0b010b; fill:none;"/>
	<path d="M 958.0,678.0 L 959.0,678.0" style="stroke:#0b010b; fill:none;"/>
	<path d="M 957.0,681.0 L 957.0,682.0" style="stroke:#0b010b; fill:none;"/>
	<path d="M 288.0,684.0 L 289.0,685.0" style="stroke:#0b010b; fill:none;"/>
	<path d="M 933.0,692.0 L 934.0,693.0" style="stroke:#0b010b; fill:none;"/>
	<path d="M 309.0,699.0 L 310.0,702.0" style="stroke:#0b010b; fill:none;"/>
	<path d="M 952.0,701.0 L 951.0,702.0" style="stroke:#0b010b; fill:none;"/>
	<path d="M 929.0,702.0 L 929.0,703.0" style="stroke:#0b010b; fill:none;"/>
	<path d="M 310.0,707.0 L 310.0,709.0 L 310.0,707.0" style="stroke:#0b010b; fill:none;"/>
	<path d="M 287.0,708.0 L 287.0,710.0" style="stroke:#0b010b; fill:none;"/>
	<path d="M 930.0,711.0 L 930.0,712.0" style="stroke:#0b010b; fill:none;"/>
	<path d="M 309.0,716.0 L 308.0,717.0" style="stroke:#0b010b; fill:none;"/>
	<path d="M 293.0,717.0 L 293.0,718.0" style="stroke:#0b010b; fill:none;"/>
	<path d="M 944.0,720.0 L 945.0,721.0" style="stroke:#0b010b; fill:none;"/>
	<path d="M 294.0,725.0 L 296.0,730.0" style="stroke:#0b010b; fill:none;"/>
	<path d="M 309.0,725.0 L 310.0,727.0" style="stroke:#0b010b; fill:none;"/>
	<path d="M 940.0,729.0 L 939.0,730.0" style="stroke:#0b010b; fill:none;"/>
	<path d="M 308.0,732.0 L 310.0,732.0" style="stroke:#0b010b; fill:none;"/>
	<path d="M 309.0,734.0 L 309.0,735.0" style="stroke:#0b010b; fill:none;"/>
	<path d="M 310.0,738.0 L 311.0,744.0" style="stroke:#0b010b; fill:none;"/>
	<path d="M 309.0,744.0 L 310.0,754.0" style="stroke:#0b010b; fill:none;"/>
	<path d="M 305.0,754.0 L 305.0,755.0" style="stroke:#0b010b; fill:none;"/>
	<path d="M 310.0,757.0 L 311.0,762.0" style="stroke:#0b010b; fill:none;"/>
	<path d="M 311.0,765.0 L 312.0,765.0" style="stroke:#0b010b; fill:none;"/>
	<path d="M 312.0,769.0 L 314.0,773.0" style="stroke:#0b010b; fill:none;"/>
	<path d="M 314.0,778.0 L 315.0,778.0" style="stroke:#0b010b; fill:none;"/>
	<path d="M 930.0,855.0 L 933.0,855.0" style="stroke:#0b010b; fill:none;"/>
	<path d="M 922.0,863.0 L 923.0,863.0" style="stroke:#0b010b; fill:none;"/>
	<path d="M 916.0,881.0 L 916.0,883.0" style="stroke:#0b010b; fill:none;"/>
	<path d="M 914.0,885.0 L 915.0,886.0" style="stroke:#0b010b; fill:none;"/>
	<path d="M 912.0,893.0 L 913.0,893.0" style="stroke:#0b010b; fill:none;"/>
	<path d="M 908.0,909.0 L 908.0,910.0" style="stroke:#0b010b; fill:none;"/>
	<path d="M 908.0,913.0 L 908.0,914.0" style="stroke:#0b010b; fill:none;"/>
	<path d="M 912.0,945.0 L 913.0,945.0" style="stroke:#0b010b; fill:none;"/>
	<path d="M 905.0,947.0 L 909.0,946.0" style="stroke:#0b010b; fill:none;"/>
	<path d="M 902.0,948.0 L 901.0,951.0" style="stroke:#0b010b; fill:none;"/>
	<path d="M 901.0,953.0 L 901.0,955.0" style="stroke:#0b010b; fill:none;"/>
</svg>
