<?xml version="1.0" ?>
<svg baseProfile="full" height="2687" version="1.1" width="2424" xmlns="http://www.w3.org/2000/svg" xmlns:ev="http://www.w3.org/2001/xml-events" xmlns:xlink="http://www.w3.org/1999/xlink">
	<defs/>
	<path d="M 1138.0,14.0 L 1128.0,15.0 L 1134.0,21.0 C 1143.61,9.1748 1153.36,12.8455 1167.0,8.60645 C 1172.55,6.88159 1175.87,3.28442 1182.0,3.0" style="stroke:#010101; fill:none;"/>
	<path d="M 1172.0,8.0 L 1220.0,5.0" style="stroke:#010101; fill:none;"/>
	<path d="M 1127.0,26.0 L 1131.0,29.0 L 1127.0,32.0 C 1125.61,27.9897 1126.38,26.2739 1129.0,23.0 C 1137.2,31.2026 1154.56,23.2817 1165.0,20.8811 C 1196.23,13.7021 1229.12,8.02124 1261.0,8.0" style="stroke:#010101; fill:none;"/>
	<path d="M 1243.0,10.0 C 1235.3,12.2634 1208.67,16.1929 1209.0,26.0 L 1211.0,26.0" style="stroke:#010101; fill:none;"/>
	<path d="M 837.0,301.0 C 880.251,257.749 931.926,221.969 982.0,187.116 C 1004.77,171.27 1026.07,153.321 1049.0,137.746 C 1069.69,123.694 1093.01,112.202 1115.0,100.309 C 1154.85,78.7549 1198.14,64.249 1238.0,43.0 L 1225.0,37.0 C 1248.04,26.2725 1275.15,20.6206 1300.0,15.9053 C 1312.4,13.5532 1325.33,10.105 1338.0,10.0" style="stroke:#010101; fill:none;"/>
	<path d="M 1119.0,13.0 L 1126.0,15.0 L 1120.0,19.0 L 1119.0,13.0" style="stroke:#010101; fill:none;"/>
	<path d="M 1000.0,34.0 C 1011.97,33.4785 1024.31,29.0056 1036.0,26.4243 C 1062.21,20.6353 1091.08,14.0742 1118.0,14.0" style="stroke:#010101; fill:none;"/>
	<path d="M 1126.0,15.0 L 1128.0,15.0" style="stroke:#010101; fill:none;"/>
	<path d="M 1253.0,19.0 L 1150.0,55.2036 L 1047.0,103.0" style="stroke:#010101; fill:none;"/>
	<path d="M 1021.0,45.0 L 1119.0,20.0" style="stroke:#010101; fill:none;"/>
	<path d="M 1130.0,23.0 L 1133.0,21.0" style="stroke:#010101; fill:none;"/>
	<path d="M 1208.0,27.0 C 1206.5,24.5906 1205.72,23.8049 1208.0,22.0" style="stroke:#010101; fill:none;"/>
	<path d="M 1207.0,27.0 C 1203.75,27.0698 1202.94,26.0942 1202.0,23.0 L 1205.0,23.0" style="stroke:#010101; fill:none;"/>
	<path d="M 1202.0,29.0 L 1194.0,26.0 L 1201.0,24.0" style="stroke:#010101; fill:none;"/>
	<path d="M 418.0,25.0 C 410.453,35.6011 406.559,49.5967 403.0,62.0 C 391.332,102.657 394.462,143.868 388.572,185.0 C 379.653,247.282 356.883,307.814 354.104,371.0 C 353.042,395.148 352.029,424.232 357.364,448.0 C 359.744,458.601 365.224,468.356 367.576,479.0 C 373.239,504.634 378.256,529.124 386.402,554.0 C 388.917,561.68 385.172,568.481 386.529,576.0 C 388.591,587.424 397.108,590.888 401.297,600.054 C 407.308,613.203 405.278,624.35 416.0,636.0 L 418.148,616.015 L 422.833,605.985 L 426.394,579.004 L 435.55,565.999 L 455.0,534.0" style="stroke:#010101; fill:none;"/>
	<path d="M 598.0,160.0 C 636.25,121.754 684.338,90.5881 730.0,61.9497 C 751.59,48.4087 775.852,30.8193 801.0,25.0" style="stroke:#010101; fill:none;"/>
	<path d="M 759.0,68.0 L 759.0,73.0 C 756.81,65.0188 769.335,60.2817 775.0,56.811 C 793.51,45.4705 814.499,29.4956 836.0,25.0" style="stroke:#010101; fill:none;"/>
	<path d="M 647.0,161.0 C 697.832,127.516 744.846,88.479 797.0,56.7971 C 813.575,46.7288 835.261,27.022 855.0,25.0" style="stroke:#010101; fill:none;"/>
	<path d="M 777.0,93.0 C 776.172,91.5244 779.15,89.7041 781.0,89.4722 C 783.487,89.1606 785.452,91.0933 788.0,90.2871 C 795.194,88.011 803.357,80.1846 810.0,76.199 C 843.377,56.175 881.888,37.9844 919.0,26.0" style="stroke:#010101; fill:none;"/>
	<path d="M 1030.0,93.0 C 1043.74,85.3804 1057.58,78.2778 1072.0,71.9961 C 1076.54,70.0188 1085.3,67.9087 1084.0,62.0 L 1194.0,26.0" style="stroke:#010101; fill:none;"/>
	<path d="M 1256.0,36.0 L 1256.0,32.0 L 1257.0,32.0 L 1257.0,35.0 L 1275.0,27.0" style="stroke:#010101; fill:none;"/>
	<path d="M 683.0,115.0 L 654.0,127.0 C 664.496,114.107 684.202,105.199 698.0,96.0 C 721.763,80.1582 745.725,64.6165 770.0,49.5757 C 781.807,42.26 794.589,31.9443 808.0,28.0" style="stroke:#010101; fill:none;"/>
	<path d="M 1054.0,58.0 C 1071.6,50.0039 1092.16,45.1143 1108.0,34.3318 C 1114.6,29.8413 1119.05,37.2083 1122.0,28.0 L 1123.0,28.0 L 1124.0,27.0" style="stroke:#010101; fill:none;"/>
	<path d="M 1394.0,29.0 C 1391.21,30.7 1390.6,30.989 1388.0,29.0 L 1400.0,28.0" style="stroke:#010101; fill:none;"/>
	<path d="M 1114.0,31.0 L 1120.0,29.0" style="stroke:#010101; fill:none;"/>
	<path d="M 1289.0,57.0 C 1284.75,50.9392 1277.24,56.2036 1272.0,59.0 L 1276.0,65.0 L 1300.0,54.0 L 1298.0,49.0 L 1304.0,53.0 L 1303.0,48.0 C 1330.15,40.5054 1359.48,30.2271 1388.0,29.0" style="stroke:#010101; fill:none;"/>
	<path d="M 658.0,84.0 C 693.911,63.0193 737.79,38.7156 779.0,31.0" style="stroke:#010101; fill:none;"/>
	<path d="M 1041.0,96.0 C 1089.58,66.5374 1145.52,52.8167 1197.0,30.0" style="stroke:#010101; fill:none;"/>
	<path d="M 1258.0,31.0 L 1261.0,32.0" style="stroke:#010101; fill:none;"/>
	<path d="M 1123.0,32.0 L 1125.0,32.0" style="stroke:#010101; fill:none;"/>
	<path d="M 777.0,33.0 L 778.0,34.0" style="stroke:#010101; fill:none;"/>
	<path d="M 1251.0,34.0 C 1249.02,35.7688 1249.93,36.6565 1252.0,38.0 L 1253.0,33.0 L 1254.0,33.0 L 1255.0,33.0" style="stroke:#010101; fill:none;"/>
	<path d="M 1467.0,44.0 L 1462.0,41.0 C 1474.06,42.3848 1481.4,36.3408 1493.0,33.0" style="stroke:#010101; fill:none;"/>
	<path d="M 1061.0,46.0 C 1071.28,42.7141 1094.29,31.3242 1104.0,37.0" style="stroke:#010101; fill:none;"/>
	<path d="M 1103.0,34.0 L 1106.0,35.0" style="stroke:#010101; fill:none;"/>
	<path d="M 1113.0,34.0 L 1108.0,35.0" style="stroke:#010101; fill:none;"/>
	<path d="M 1259.0,83.0 C 1256.28,80.7546 1255.24,80.6057 1252.0,82.0 C 1256.68,85.8376 1261.0,82.4495 1266.0,80.4492 C 1276.89,76.0894 1287.95,72.2532 1299.0,68.3079 C 1328.17,57.8911 1357.87,49.2666 1388.0,42.1157 C 1402.56,38.6602 1417.98,34.01 1433.0,34.0" style="stroke:#010101; fill:none;"/>
	<path d="M 1238.0,43.0 L 1245.0,36.0 L 1246.0,35.0 L 1247.0,35.0 L 1248.0,35.0" style="stroke:#010101; fill:none;"/>
	<path d="M 1474.0,39.0 L 1479.0,36.0" style="stroke:#010101; fill:none;"/>
	<path d="M 637.0,187.0 C 667.842,158.592 701.476,132.77 735.0,107.626 C 768.952,82.1621 803.371,56.8003 841.0,37.0" style="stroke:#010101; fill:none;"/>
	<path d="M 783.0,87.0 C 811.584,71.0879 837.63,47.6169 869.0,37.0" style="stroke:#010101; fill:none;"/>
	<path d="M 1228.0,41.0 L 1223.0,37.0 L 1225.0,37.0" style="stroke:#010101; fill:none;"/>
	<path d="M 1243.0,41.0 L 1242.0,37.0" style="stroke:#010101; fill:none;"/>
	<path d="M 1465.0,40.0 L 1474.0,37.0" style="stroke:#010101; fill:none;"/>
	<path d="M 1904.0,37.0 C 1912.87,40.4792 1919.49,49.2705 1924.65,57.0 C 1939.09,78.6714 1943.74,112.317 1943.12,138.0 C 1942.91,146.216 1937.63,154.155 1938.23,162.0 C 1938.92,171.203 1945.46,182.354 1948.81,191.0 C 1960.17,220.315 1973.07,249.391 1980.63,280.0 C 1988.11,310.319 1990.74,341.524 1997.22,372.0 C 2000.01,385.093 2005.82,397.906 2009.1,411.0 C 2010.59,416.9 2010.07,423.25 2011.72,429.0 C 2014.25,437.824 2024.35,447.01 2029.32,455.0 C 2038.86,470.354 2044.75,488.876 2044.98,507.0 C 2045.35,536.011 2037.17,567.038 2026.94,594.0 C 2021.7,607.802 2013.13,621.351 2010.46,636.0 C 2008.35,647.632 2010.82,658.454 2010.2,670.0 C 2009.32,686.131 2005.18,701.971 2003.29,718.0 C 2002.06,728.327 2004.46,737.606 1999.0,747.0" style="stroke:#010101; fill:none;"/>
	<path d="M 1225.0,42.0 C 1221.23,43.3203 1219.74,42.8835 1217.0,40.0 L 1222.0,38.0" style="stroke:#010101; fill:none;"/>
	<path d="M 1236.0,39.0 L 1240.0,38.0" style="stroke:#010101; fill:none;"/>
	<path d="M 1272.0,38.0 C 1245.86,50.2256 1218.4,60.0935 1192.0,71.8611 C 1141.71,94.2751 1092.05,119.49 1045.0,148.0" style="stroke:#010101; fill:none;"/>
	<path d="M 1477.0,38.0 L 1478.0,39.0" style="stroke:#010101; fill:none;"/>
	<path d="M 1245.0,40.0 L 1249.0,39.0" style="stroke:#010101; fill:none;"/>
	<path d="M 1219.0,44.0 L 1214.0,40.0 L 1217.0,40.0" style="stroke:#010101; fill:none;"/>
	<path d="M 1285.0,41.0 L 1277.0,42.0 L 1278.0,40.0" style="stroke:#010101; fill:none;"/>
	<path d="M 1216.0,45.0 L 1211.0,41.0 L 1213.0,41.0" style="stroke:#010101; fill:none;"/>
	<path d="M 1277.0,43.0 L 1276.0,41.0" style="stroke:#010101; fill:none;"/>
	<path d="M 1461.0,41.0 C 1450.8,58.2622 1424.17,66.8481 1407.0,77.2036 C 1402.85,79.7061 1392.4,88.52 1389.0,88.0 L 1392.0,84.0" style="stroke:#010101; fill:none;"/>
	<path d="M 909.0,42.0 L 815.0,103.371 L 787.008,125.196 L 778.0,134.0 L 776.0,134.0 L 777.0,135.0" style="stroke:#010101; fill:none;"/>
	<path d="M 1208.0,43.0 L 1203.0,45.0 C 1205.58,48.3503 1207.1,48.5549 1211.0,47.0 L 1210.0,42.0" style="stroke:#010101; fill:none;"/>
	<path d="M 1275.0,44.0 L 1272.0,45.0 L 1274.0,42.0" style="stroke:#010101; fill:none;"/>
	<path d="M 1270.0,44.0 L 1269.0,47.0 C 1268.18,44.3521 1268.46,44.3308 1271.0,43.0" style="stroke:#010101; fill:none;"/>
	<path d="M 1124.0,113.0 L 1125.0,111.0 L 1118.0,120.0 L 1134.04,110.799 L 1166.0,94.7808 L 1249.0,58.4614 L 1289.0,44.0" style="stroke:#010101; fill:none;"/>
	<path d="M 1455.0,48.0 L 1458.0,44.0" style="stroke:#010101; fill:none;"/>
	<path d="M 1394.0,153.0 C 1402.03,150.616 1408.47,143.485 1415.0,138.425 C 1426.43,129.57 1438.37,121.458 1450.0,112.884 C 1487.91,84.9409 1535.04,52.8472 1582.0,44.0" style="stroke:#010101; fill:none;"/>
	<path d="M 1204.0,50.0 L 1201.0,45.0 L 1203.0,45.0" style="stroke:#010101; fill:none;"/>
	<path d="M 1206.0,45.0 L 1208.0,48.0" style="stroke:#010101; fill:none;"/>
	<path d="M 1268.0,46.0 L 1266.0,48.0 L 1267.0,45.0" style="stroke:#010101; fill:none;"/>
	<path d="M 1220.0,123.0 C 1247.5,112.993 1273.7,97.7734 1301.0,86.8218 C 1344.86,69.2261 1389.92,57.9741 1436.0,51.4575 C 1442.23,50.5762 1447.53,46.4998 1454.0,46.0" style="stroke:#010101; fill:none;"/>
	<path d="M 1198.0,47.0 L 1174.0,56.0 C 1179.3,62.8762 1193.48,54.0498 1200.0,51.0 L 1200.0,46.0" style="stroke:#010101; fill:none;"/>
	<path d="M 1260.0,51.0 L 1264.0,46.0" style="stroke:#010101; fill:none;"/>
	<path d="M 1460.0,46.0 L 1464.0,45.0" style="stroke:#010101; fill:none;"/>
	<path d="M 1253.0,55.0 L 1258.0,48.0" style="stroke:#010101; fill:none;"/>
	<path d="M 1263.0,48.0 L 1268.0,51.0" style="stroke:#010101; fill:none;"/>
	<path d="M 1269.0,48.0 L 1271.0,50.0" style="stroke:#010101; fill:none;"/>
	<path d="M 1195.0,49.0 L 1197.0,52.0" style="stroke:#010101; fill:none;"/>
	<path d="M 1264.0,49.0 L 1261.0,52.0" style="stroke:#010101; fill:none;"/>
	<path d="M 1309.0,49.0 L 1306.0,52.0" style="stroke:#010101; fill:none;"/>
	<path d="M 1193.0,50.0 L 1195.0,53.0" style="stroke:#010101; fill:none;"/>
	<path d="M 1297.0,54.0 L 1297.0,50.0" style="stroke:#010101; fill:none;"/>
	<path d="M 1190.0,51.0 L 1192.0,54.0" style="stroke:#010101; fill:none;"/>
	<path d="M 1265.0,51.0 L 1266.0,52.0" style="stroke:#010101; fill:none;"/>
	<path d="M 1292.0,56.0 L 1290.0,52.0 L 1294.0,55.0" style="stroke:#010101; fill:none;"/>
	<path d="M 1293.0,51.0 L 1295.0,51.0" style="stroke:#010101; fill:none;"/>
	<path d="M 1188.0,52.0 L 1190.0,55.0" style="stroke:#010101; fill:none;"/>
	<path d="M 1288.0,52.0 L 1290.0,52.0" style="stroke:#010101; fill:none;"/>
	<path d="M 1186.0,53.0 L 1186.0,55.0" style="stroke:#010101; fill:none;"/>
	<path d="M 1260.0,53.0 L 1275.0,65.0" style="stroke:#010101; fill:none;"/>
	<path d="M 1425.0,53.0 C 1425.37,57.4646 1419.39,58.4512 1416.0,60.5332 C 1406.5,66.3682 1396.68,71.5032 1387.0,77.0 C 1358.46,93.2009 1330.33,109.449 1303.0,127.667 C 1289.49,136.674 1275.84,150.719 1261.0,157.0 L 1264.0,155.0" style="stroke:#010101; fill:none;"/>
	<path d="M 1183.0,54.0 L 1183.0,56.0" style="stroke:#010101; fill:none;"/>
	<path d="M 1284.0,54.0 L 1287.0,58.0" style="stroke:#010101; fill:none;"/>
	<path d="M 1427.0,55.0 L 1433.0,53.0" style="stroke:#010101; fill:none;"/>
	<path d="M 867.0,55.0 L 864.0,56.0" style="stroke:#010101; fill:none;"/>
	<path d="M 1180.0,55.0 L 1182.0,58.0" style="stroke:#010101; fill:none;"/>
	<path d="M 1281.0,55.0 L 1284.0,59.0" style="stroke:#010101; fill:none;"/>
	<path d="M 1366.0,134.0 L 1359.0,132.0 L 1382.0,109.0 C 1388.14,113.254 1398.46,106.345 1396.0,99.0 L 1429.96,77.3657 L 1461.0,55.0" style="stroke:#010101; fill:none;"/>
	<path d="M 1175.0,61.0 C 1172.53,59.4639 1171.52,58.0044 1174.0,56.0" style="stroke:#010101; fill:none;"/>
	<path d="M 1178.0,56.0 L 1178.0,58.0" style="stroke:#010101; fill:none;"/>
	<path d="M 1261.0,56.0 L 1267.0,69.0 L 1267.0,63.0" style="stroke:#010101; fill:none;"/>
	<path d="M 1279.0,56.0 L 1282.0,60.0" style="stroke:#010101; fill:none;"/>
	<path d="M 1047.0,123.0 C 1075.43,103.643 1107.96,90.7839 1139.0,76.22 C 1150.07,71.0249 1159.69,61.009 1171.0,57.0" style="stroke:#010101; fill:none;"/>
	<path d="M 1266.0,58.0 L 1270.0,60.0" style="stroke:#010101; fill:none;"/>
	<path d="M 1277.0,57.0 L 1280.0,62.0" style="stroke:#010101; fill:none;"/>
	<path d="M 1253.0,58.0 L 1263.0,71.0 C 1263.22,66.0669 1261.44,62.2915 1257.0,60.0" style="stroke:#010101; fill:none;"/>
	<path d="M 1264.0,58.0 L 1262.0,60.0" style="stroke:#010101; fill:none;"/>
	<path d="M 1274.0,58.0 L 1277.0,62.0" style="stroke:#010101; fill:none;"/>
	<path d="M 729.0,184.0 L 728.0,188.0 C 729.111,181.537 734.559,182.239 739.0,178.817 C 748.982,171.127 758.272,162.285 768.0,154.25 C 795.093,131.872 824.198,112.311 853.0,92.2793 C 869.517,80.7915 888.013,65.9517 907.0,59.0" style="stroke:#010101; fill:none;"/>
	<path d="M 1411.0,62.0 L 1415.0,61.0" style="stroke:#010101; fill:none;"/>
	<path d="M 1269.0,79.0 L 1267.0,75.0 L 1306.0,60.0" style="stroke:#010101; fill:none;"/>
	<path d="M 1410.0,64.0 L 1411.0,60.0" style="stroke:#010101; fill:none;"/>
	<path d="M 1475.0,60.0 L 1439.0,75.0 L 1438.0,74.0 L 1436.0,72.0" style="stroke:#010101; fill:none;"/>
	<path d="M 1172.0,61.0 L 1165.0,62.0" style="stroke:#010101; fill:none;"/>
	<path d="M 1083.0,65.0 L 1084.0,62.0" style="stroke:#010101; fill:none;"/>
	<path d="M 1406.0,66.0 C 1404.82,63.6851 1404.3,62.9702 1407.0,63.0" style="stroke:#010101; fill:none;"/>
	<path d="M 1079.0,68.0 L 1076.0,65.0 L 1082.0,63.0" style="stroke:#010101; fill:none;"/>
	<path d="M 1090.0,63.0 L 1086.0,65.0" style="stroke:#010101; fill:none;"/>
	<path d="M 1402.0,68.0 L 1399.0,65.0 L 1404.0,63.0" style="stroke:#010101; fill:none;"/>
	<path d="M 1270.0,64.0 L 1273.0,66.0" style="stroke:#010101; fill:none;"/>
	<path d="M 1407.0,64.0 L 1408.0,65.0" style="stroke:#010101; fill:none;"/>
	<path d="M 1043.0,80.0 L 1076.0,65.0" style="stroke:#010101; fill:none;"/>
	<path d="M 1150.0,70.0 L 1147.0,66.0 L 1152.0,65.0" style="stroke:#010101; fill:none;"/>
	<path d="M 1165.0,224.0 C 1164.27,219.918 1172.06,213.275 1175.0,210.729 C 1187.28,200.1 1200.0,189.947 1212.0,179.0 C 1250.4,143.967 1296.07,115.817 1342.0,91.7029 C 1360.08,82.2102 1379.2,70.416 1399.0,65.0" style="stroke:#010101; fill:none;"/>
	<path d="M 1060.0,102.0 L 1147.0,66.0" style="stroke:#010101; fill:none;"/>
	<path d="M 1260.0,66.0 L 1262.0,66.0" style="stroke:#010101; fill:none;"/>
	<path d="M 1259.0,72.0 L 1256.0,67.0 L 1262.0,70.0" style="stroke:#010101; fill:none;"/>
	<path d="M 1258.0,67.0 L 1259.0,67.0" style="stroke:#010101; fill:none;"/>
	<path d="M 841.0,113.0 C 837.108,107.989 848.718,102.2 852.0,100.001 C 867.67,89.5017 882.875,76.0068 900.0,68.0" style="stroke:#010101; fill:none;"/>
	<path d="M 1268.0,68.0 L 1271.0,67.0" style="stroke:#010101; fill:none;"/>
	<path d="M 1257.0,73.0 L 1254.0,69.0" style="stroke:#010101; fill:none;"/>
	<path d="M 1249.0,70.0 L 1253.0,74.0 L 1251.0,76.0 L 1247.0,72.0 L 1249.0,70.0" style="stroke:#010101; fill:none;"/>
	<path d="M 1251.0,70.0 L 1252.0,70.0" style="stroke:#010101; fill:none;"/>
	<path d="M 681.0,114.0 C 690.706,112.749 697.751,105.278 706.0,100.053 C 722.43,89.6484 739.251,79.8772 756.0,70.0" style="stroke:#010101; fill:none;"/>
	<path d="M 927.0,71.0 C 887.023,100.375 846.222,128.359 808.0,160.081 C 798.982,167.566 789.954,175.028 781.0,182.59 C 777.208,185.793 772.673,188.754 774.0,194.0 C 809.309,163.251 848.866,136.252 888.0,110.656 C 905.722,99.0647 923.495,84.4048 943.0,76.0" style="stroke:#010101; fill:none;"/>
	<path d="M 841.0,72.0 C 778.381,110.466 721.993,157.079 668.089,206.7 C 650.473,222.917 633.87,240.241 617.83,258.0 C 608.969,267.81 599.27,277.229 593.0,289.0" style="stroke:#010101; fill:none;"/>
	<path d="M 1248.0,77.0 C 1244.33,78.2205 1243.0,77.3948 1240.0,75.0 L 1250.0,76.0" style="stroke:#010101; fill:none;"/>
	<path d="M 1246.0,72.0 L 1247.0,72.0" style="stroke:#010101; fill:none;"/>
	<path d="M 1078.0,154.0 L 1118.0,132.309 L 1202.0,90.6914 L 1240.0,75.0" style="stroke:#010101; fill:none;"/>
	<path d="M 1433.0,75.0 L 1439.0,75.0" style="stroke:#010101; fill:none;"/>
	<path d="M 1266.0,80.0 L 1266.0,76.0" style="stroke:#010101; fill:none;"/>
	<path d="M 1264.0,81.0 L 1261.0,78.0 L 1264.0,77.0" style="stroke:#010101; fill:none;"/>
	<path d="M 736.0,236.0 C 781.573,196.186 828.573,158.545 878.0,123.576 C 891.836,113.787 906.027,104.561 920.0,94.9753 C 928.424,89.1968 937.435,81.6265 947.0,78.0" style="stroke:#010101; fill:none;"/>
	<path d="M 1262.0,82.0 L 1261.0,78.0" style="stroke:#010101; fill:none;"/>
	<path d="M 1258.0,79.0 L 1259.0,79.0" style="stroke:#010101; fill:none;"/>
	<path d="M 887.0,80.0 C 873.773,90.4905 859.528,102.404 845.0,110.978 C 840.747,113.488 836.312,111.576 832.0,114.328 C 800.909,134.167 771.953,159.77 744.0,183.729 C 734.133,192.186 724.733,201.13 715.0,209.715 C 708.681,215.288 699.881,221.417 696.0,229.0" style="stroke:#010101; fill:none;"/>
	<path d="M 1112.0,144.0 L 1175.0,111.108 L 1243.0,79.0" style="stroke:#010101; fill:none;"/>
	<path d="M 1254.0,81.0 L 1257.0,84.0" style="stroke:#010101; fill:none;"/>
	<path d="M 1249.0,85.0 L 1243.0,86.0 C 1246.57,88.9226 1250.85,88.3201 1250.0,83.0 L 1251.0,82.0 L 1252.0,82.0" style="stroke:#010101; fill:none;"/>
	<path d="M 952.0,83.0 C 910.449,108.437 869.456,135.614 831.0,165.576 C 817.0,176.484 797.391,187.554 787.0,202.0 C 791.253,204.103 795.968,204.485 797.0,199.0 L 795.0,200.0 L 795.0,201.0 L 796.0,202.0" style="stroke:#010101; fill:none;"/>
	<path d="M 1398.0,83.0 C 1396.08,86.4353 1394.49,86.6223 1391.0,85.0" style="stroke:#010101; fill:none;"/>
	<path d="M 899.0,85.0 L 835.0,130.424 L 798.0,156.0 L 801.0,156.0" style="stroke:#010101; fill:none;"/>
	<path d="M 1245.0,85.0 L 1248.0,88.0" style="stroke:#010101; fill:none;"/>
	<path d="M 1244.0,90.0 L 1242.0,90.0 L 1243.0,86.0" style="stroke:#010101; fill:none;"/>
	<path d="M 1249.0,86.0 L 1250.0,87.0" style="stroke:#010101; fill:none;"/>
	<path d="M 1310.0,152.0 C 1313.99,151.341 1315.78,156.908 1315.0,160.0 L 1304.0,148.0 C 1323.45,133.006 1344.56,120.229 1365.0,106.667 C 1373.81,100.822 1385.65,96.6599 1388.0,86.0 L 1389.0,86.0" style="stroke:#010101; fill:none;"/>
	<path d="M 1241.0,91.0 L 1241.0,87.0" style="stroke:#010101; fill:none;"/>
	<path d="M 1390.0,87.0 L 1390.0,91.0" style="stroke:#010101; fill:none;"/>
	<path d="M 1239.0,92.0 L 1239.0,88.0" style="stroke:#010101; fill:none;"/>
	<path d="M 1385.0,92.0 L 1386.0,88.0" style="stroke:#010101; fill:none;"/>
	<path d="M 1237.0,93.0 L 1234.0,90.0 L 1237.0,89.0" style="stroke:#010101; fill:none;"/>
	<path d="M 1384.0,94.0 L 1381.0,91.0 L 1384.0,89.0" style="stroke:#010101; fill:none;"/>
	<path d="M 779.0,90.0 L 785.0,92.0 L 785.0,92.0" style="stroke:#010101; fill:none;"/>
	<path d="M 1236.0,93.0 L 1233.0,94.0 L 1234.0,90.0" style="stroke:#010101; fill:none;"/>
	<path d="M 1232.0,95.0 L 1232.0,91.0" style="stroke:#010101; fill:none;"/>
	<path d="M 1382.0,95.0 L 1381.0,91.0" style="stroke:#010101; fill:none;"/>
	<path d="M 1384.0,91.0 L 1385.0,92.0" style="stroke:#010101; fill:none;"/>
	<path d="M 776.0,92.0 L 776.0,96.0 L 770.0,97.0 L 773.0,101.0 L 774.0,93.0" style="stroke:#010101; fill:none;"/>
	<path d="M 1230.0,96.0 L 1230.0,92.0" style="stroke:#010101; fill:none;"/>
	<path d="M 1275.0,160.0 C 1305.22,133.847 1343.75,110.761 1379.0,92.0" style="stroke:#010101; fill:none;"/>
	<path d="M 777.0,93.0 L 782.0,95.0" style="stroke:#010101; fill:none;"/>
	<path d="M 1228.0,97.0 L 1228.0,93.0" style="stroke:#010101; fill:none;"/>
	<path d="M 1226.0,98.0 L 1223.0,95.0 L 1226.0,94.0" style="stroke:#010101; fill:none;"/>
	<path d="M 990.0,95.0 L 923.0,135.425 L 814.0,210.13 L 773.0,242.753 L 754.0,261.0" style="stroke:#010101; fill:none;"/>
	<path d="M 1225.0,98.0 L 1222.0,99.0 L 1223.0,95.0" style="stroke:#010101; fill:none;"/>
	<path d="M 1221.0,100.0 L 1221.0,96.0" style="stroke:#010101; fill:none;"/>
	<path d="M 772.0,101.0 L 766.0,104.0 L 770.0,97.0" style="stroke:#010101; fill:none;"/>
	<path d="M 776.0,99.0 L 779.0,97.0" style="stroke:#010101; fill:none;"/>
	<path d="M 1219.0,101.0 L 1219.0,97.0" style="stroke:#010101; fill:none;"/>
	<path d="M 1217.0,102.0 L 1214.0,99.0 L 1217.0,98.0" style="stroke:#010101; fill:none;"/>
	<path d="M 1216.0,102.0 L 1214.0,99.0" style="stroke:#010101; fill:none;"/>
	<path d="M 1390.0,109.0 L 1386.0,105.0 L 1396.0,99.0" style="stroke:#010101; fill:none;"/>
	<path d="M 1214.0,103.0 L 1212.0,100.0" style="stroke:#010101; fill:none;"/>
	<path d="M 1212.0,104.0 L 1210.0,101.0" style="stroke:#010101; fill:none;"/>
	<path d="M 1210.0,105.0 L 1208.0,102.0" style="stroke:#010101; fill:none;"/>
	<path d="M 1390.0,102.0 L 1394.0,106.0" style="stroke:#010101; fill:none;"/>
	<path d="M 1208.0,105.0 L 1205.0,107.0 L 1206.0,103.0" style="stroke:#010101; fill:none;"/>
	<path d="M 1204.0,108.0 L 1204.0,104.0" style="stroke:#010101; fill:none;"/>
	<path d="M 741.0,127.0 C 736.246,129.118 734.605,126.209 737.0,122.0 L 742.0,127.0 L 765.0,105.0" style="stroke:#010101; fill:none;"/>
	<path d="M 869.0,158.0 L 871.0,159.0 L 866.0,155.0 C 890.311,136.313 918.877,119.287 946.0,105.0" style="stroke:#010101; fill:none;"/>
	<path d="M 1202.0,109.0 L 1199.0,106.0 L 1202.0,105.0" style="stroke:#010101; fill:none;"/>
	<path d="M 1382.0,108.0 L 1386.0,105.0" style="stroke:#010101; fill:none;"/>
	<path d="M 957.0,106.0 L 872.0,157.0" style="stroke:#010101; fill:none;"/>
	<path d="M 1201.0,109.0 L 1199.0,106.0" style="stroke:#010101; fill:none;"/>
	<path d="M 1199.0,110.0 L 1197.0,107.0" style="stroke:#010101; fill:none;"/>
	<path d="M 1197.0,111.0 L 1195.0,108.0" style="stroke:#010101; fill:none;"/>
	<path d="M 1125.0,110.0 L 1130.0,112.0" style="stroke:#010101; fill:none;"/>
	<path d="M 1195.0,112.0 L 1193.0,109.0" style="stroke:#010101; fill:none;"/>
	<path d="M 685.0,116.0 L 689.0,110.0" style="stroke:#010101; fill:none;"/>
	<path d="M 840.0,110.0 L 838.0,112.0" style="stroke:#010101; fill:none;"/>
	<path d="M 1138.0,138.0 L 1191.0,110.0" style="stroke:#010101; fill:none;"/>
	<path d="M 684.0,112.0 L 684.0,113.0" style="stroke:#010101; fill:none;"/>
	<path d="M 1126.0,112.0 L 1128.0,112.0" style="stroke:#010101; fill:none;"/>
	<path d="M 746.0,115.0 L 749.0,119.0 L 747.0,115.0 L 754.0,113.0" style="stroke:#010101; fill:none;"/>
	<path d="M 840.0,114.0 L 740.0,197.83 L 709.0,227.0" style="stroke:#010101; fill:none;"/>
	<path d="M 683.0,115.0 L 667.0,128.576 L 632.0,154.0" style="stroke:#010101; fill:none;"/>
	<path d="M 1123.0,115.0 L 1125.0,117.0" style="stroke:#010101; fill:none;"/>
	<path d="M 978.0,117.0 L 976.0,119.0 L 981.0,119.0" style="stroke:#010101; fill:none;"/>
	<path d="M 738.0,121.0 L 745.0,117.0" style="stroke:#010101; fill:none;"/>
	<path d="M 744.0,118.0 L 746.0,121.0" style="stroke:#010101; fill:none;"/>
	<path d="M 741.0,119.0 L 742.0,122.0" style="stroke:#010101; fill:none;"/>
	<path d="M 977.0,121.0 L 975.0,123.0 L 973.0,121.0 L 976.0,119.0" style="stroke:#010101; fill:none;"/>
	<path d="M 994.0,127.0 L 992.0,128.0 L 1011.0,120.0" style="stroke:#010101; fill:none;"/>
	<path d="M 1116.0,122.0 L 1109.0,125.0 C 1111.14,120.799 1113.79,121.07 1118.0,120.0" style="stroke:#010101; fill:none;"/>
	<path d="M 972.0,123.0 L 970.0,125.0 L 973.0,121.0" style="stroke:#010101; fill:none;"/>
	<path d="M 1340.0,134.0 L 1335.0,134.0 L 1338.0,138.0 C 1346.28,130.711 1353.52,122.556 1365.0,121.0" style="stroke:#010101; fill:none;"/>
	<path d="M 1402.0,151.0 C 1446.17,149.104 1488.54,128.39 1532.0,122.0" style="stroke:#010101; fill:none;"/>
	<path d="M 1355.0,124.0 L 1357.0,128.0" style="stroke:#010101; fill:none;"/>
	<path d="M 733.0,125.0 C 692.348,160.175 651.603,192.261 615.0,232.0" style="stroke:#010101; fill:none;"/>
	<path d="M 1109.0,125.0 L 1090.0,136.0 C 1091.8,132.462 1093.26,131.56 1097.0,133.0" style="stroke:#010101; fill:none;"/>
	<path d="M 983.0,133.0 L 987.0,132.0 C 982.214,131.528 977.218,136.377 973.0,138.694 C 961.846,144.821 950.977,151.562 940.0,158.011 C 936.232,160.224 930.538,165.37 926.024,165.403 C 917.465,165.464 928.307,153.548 930.375,151.595 C 941.216,141.356 956.312,132.801 969.0,125.0" style="stroke:#010101; fill:none;"/>
	<path d="M 652.0,127.0 L 655.0,129.0" style="stroke:#010101; fill:none;"/>
	<path d="M 991.0,130.0 L 992.0,128.0" style="stroke:#010101; fill:none;"/>
	<path d="M 652.0,131.0 L 650.0,128.0 L 652.0,130.0" style="stroke:#010101; fill:none;"/>
	<path d="M 1341.0,131.0 L 1347.0,130.0" style="stroke:#010101; fill:none;"/>
	<path d="M 986.0,130.0 L 988.0,132.0" style="stroke:#010101; fill:none;"/>
	<path d="M 649.0,133.0 L 647.0,130.0 L 649.0,132.0" style="stroke:#010101; fill:none;"/>
	<path d="M 738.0,130.0 C 702.921,158.276 670.824,189.175 639.0,221.0" style="stroke:#010101; fill:none;"/>
	<path d="M 777.0,132.0 L 781.0,130.0" style="stroke:#010101; fill:none;"/>
	<path d="M 1018.0,130.0 C 969.534,158.289 920.122,183.996 874.0,216.28 C 862.296,224.473 850.631,232.707 839.0,241.0 C 834.548,244.174 829.648,249.55 824.0,248.0 L 824.0,252.0 C 794.978,266.178 768.768,296.296 746.0,319.0" style="stroke:#010101; fill:none;"/>
	<path d="M 643.0,134.0 L 642.0,137.0 C 642.54,134.102 643.075,133.748 646.0,134.0" style="stroke:#010101; fill:none;"/>
	<path d="M 777.0,133.0 L 774.0,139.0 L 771.0,136.0 L 774.0,140.0" style="stroke:#010101; fill:none;"/>
	<path d="M 1359.0,133.0 C 1350.38,141.344 1347.54,153.412 1338.82,161.674 C 1328.73,171.22 1312.34,174.873 1300.0,180.357 C 1292.98,183.477 1288.38,195.117 1281.0,190.0 L 1290.0,187.0" style="stroke:#010101; fill:none;"/>
	<path d="M 772.0,136.0 L 776.0,134.0" style="stroke:#010101; fill:none;"/>
	<path d="M 1331.0,138.0 L 1335.0,134.0" style="stroke:#010101; fill:none;"/>
	<path d="M 646.0,135.0 L 645.0,136.0" style="stroke:#010101; fill:none;"/>
	<path d="M 1341.0,135.0 L 1352.0,139.0" style="stroke:#010101; fill:none;"/>
	<path d="M 1357.0,135.0 L 1362.0,136.0" style="stroke:#010101; fill:none;"/>
	<path d="M 641.0,136.0 L 626.0,146.0" style="stroke:#010101; fill:none;"/>
	<path d="M 814.0,136.0 L 811.0,139.0" style="stroke:#010101; fill:none;"/>
	<path d="M 817.0,136.0 L 816.0,137.0" style="stroke:#010101; fill:none;"/>
	<path d="M 1090.0,136.0 L 1080.0,144.0 C 1080.86,140.323 1082.39,139.031 1086.0,138.0" style="stroke:#010101; fill:none;"/>
	<path d="M 1338.0,182.0 L 1388.0,169.105 L 1527.0,136.0" style="stroke:#010101; fill:none;"/>
	<path d="M 1330.0,137.0 L 1332.0,142.0 L 1333.0,136.0" style="stroke:#010101; fill:none;"/>
	<path d="M 1331.0,143.0 L 1332.0,149.0 L 1324.0,141.0 L 1329.0,138.0" style="stroke:#010101; fill:none;"/>
	<path d="M 1331.0,138.0 L 1333.0,140.0" style="stroke:#010101; fill:none;"/>
	<path d="M 1339.0,138.0 L 1340.0,144.0 L 1336.0,139.0 L 1339.0,138.0" style="stroke:#010101; fill:none;"/>
	<path d="M 771.0,139.0 L 768.0,142.0 L 772.0,140.0" style="stroke:#010101; fill:none;"/>
	<path d="M 674.0,225.0 L 741.0,161.754 L 768.0,140.0" style="stroke:#010101; fill:none;"/>
	<path d="M 1345.0,140.0 L 1343.0,142.0" style="stroke:#010101; fill:none;"/>
	<path d="M 812.0,141.0 L 801.0,153.0" style="stroke:#010101; fill:none;"/>
	<path d="M 1077.0,147.0 L 1073.0,145.0 L 1077.0,141.0 C 1074.82,156.502 1057.13,147.523 1050.0,160.0 L 1049.0,159.0 L 1050.0,157.0" style="stroke:#010101; fill:none;"/>
	<path d="M 1323.0,143.0 L 1324.0,141.0" style="stroke:#010101; fill:none;"/>
	<path d="M 1328.0,141.0 L 1329.0,151.0 L 1331.0,149.0" style="stroke:#010101; fill:none;"/>
	<path d="M 1322.0,142.0 L 1320.0,147.0 L 1320.0,143.0" style="stroke:#010101; fill:none;"/>
	<path d="M 1074.0,143.0 L 1076.0,145.0" style="stroke:#010101; fill:none;"/>
	<path d="M 1323.0,143.0 L 1326.0,146.0" style="stroke:#010101; fill:none;"/>
	<path d="M 1329.0,143.0 L 1331.0,143.0" style="stroke:#010101; fill:none;"/>
	<path d="M 769.0,144.0 L 733.0,179.0" style="stroke:#010101; fill:none;"/>
	<path d="M 1041.0,172.0 L 1065.68,154.482 L 1073.0,144.0" style="stroke:#010101; fill:none;"/>
	<path d="M 1319.0,146.0 L 1321.0,147.0" style="stroke:#010101; fill:none;"/>
	<path d="M 1339.0,144.0 L 1335.0,147.0" style="stroke:#010101; fill:none;"/>
	<path d="M 1079.0,145.0 L 1078.0,147.0" style="stroke:#010101; fill:none;"/>
	<path d="M 1317.0,147.0 L 1318.0,145.0" style="stroke:#010101; fill:none;"/>
	<path d="M 1069.0,146.0 L 1074.0,149.0" style="stroke:#010101; fill:none;"/>
	<path d="M 1072.0,146.0 L 1072.0,147.0" style="stroke:#010101; fill:none;"/>
	<path d="M 1316.0,146.0 L 1314.0,151.0 L 1314.0,147.0" style="stroke:#010101; fill:none;"/>
	<path d="M 1066.0,150.0 L 1068.0,147.0" style="stroke:#010101; fill:none;"/>
	<path d="M 1199.0,147.0 C 1180.21,155.946 1163.1,169.19 1146.0,180.975 C 1109.74,205.967 1074.32,232.456 1041.0,261.282 C 1025.48,274.713 1010.69,291.241 994.0,303.0" style="stroke:#010101; fill:none;"/>
	<path d="M 1317.0,147.0 L 1320.0,150.0 L 1325.0,147.0" style="stroke:#010101; fill:none;"/>
	<path d="M 1061.0,150.0 L 1065.0,148.0" style="stroke:#010101; fill:none;"/>
	<path d="M 1313.0,150.0 L 1315.0,151.0" style="stroke:#010101; fill:none;"/>
	<path d="M 1067.0,149.0 L 1071.0,151.0" style="stroke:#010101; fill:none;"/>
	<path d="M 1071.0,149.0 L 1070.0,150.0" style="stroke:#010101; fill:none;"/>
	<path d="M 1302.0,149.0 L 1299.0,151.0 L 1303.0,152.0" style="stroke:#010101; fill:none;"/>
	<path d="M 1311.0,149.0 L 1312.0,149.0" style="stroke:#010101; fill:none;"/>
	<path d="M 1322.0,149.0 L 1328.0,151.0 L 1328.0,151.0" style="stroke:#010101; fill:none;"/>
	<path d="M 1313.0,175.0 L 1309.0,171.0 C 1316.6,165.16 1337.57,146.595 1347.0,151.0" style="stroke:#010101; fill:none;"/>
	<path d="M 1310.0,150.0 L 1310.0,153.0" style="stroke:#010101; fill:none;"/>
	<path d="M 1341.0,150.0 L 1345.0,154.0" style="stroke:#010101; fill:none;"/>
	<path d="M 1308.0,151.0 L 1309.0,151.0" style="stroke:#010101; fill:none;"/>
	<path d="M 1313.0,154.0 L 1319.0,151.0" style="stroke:#010101; fill:none;"/>
	<path d="M 1319.0,151.0 L 1325.0,153.0 L 1325.0,153.0" style="stroke:#010101; fill:none;"/>
	<path d="M 1324.0,196.0 C 1347.18,195.985 1369.62,188.468 1392.0,183.425 C 1442.94,171.949 1495.84,155.125 1548.0,151.0" style="stroke:#010101; fill:none;"/>
	<path d="M 926.0,156.0 L 924.0,154.0 L 929.0,152.0" style="stroke:#010101; fill:none;"/>
	<path d="M 1060.0,153.0 L 1065.0,155.0" style="stroke:#010101; fill:none;"/>
	<path d="M 1288.0,164.0 C 1286.21,160.645 1288.37,162.639 1290.0,164.0 L 1298.0,153.0" style="stroke:#010101; fill:none;"/>
	<path d="M 1306.0,152.0 L 1309.0,157.0" style="stroke:#010101; fill:none;"/>
	<path d="M 1316.0,153.0 L 1322.0,155.0 L 1322.0,155.0" style="stroke:#010101; fill:none;"/>
	<path d="M 770.0,266.0 C 774.649,252.913 797.204,241.933 808.0,233.769 C 845.089,205.72 883.291,176.662 924.0,154.0" style="stroke:#010101; fill:none;"/>
	<path d="M 1298.0,154.0 L 1301.0,156.0" style="stroke:#010101; fill:none;"/>
	<path d="M 1307.0,154.0 L 1309.0,156.0" style="stroke:#010101; fill:none;"/>
	<path d="M 1313.0,154.0 L 1311.0,156.0" style="stroke:#010101; fill:none;"/>
	<path d="M 1159.0,155.0 C 1085.02,209.833 1014.06,272.942 949.0,338.0" style="stroke:#010101; fill:none;"/>
	<path d="M 1308.0,155.0 L 1310.0,155.0" style="stroke:#010101; fill:none;"/>
	<path d="M 864.0,156.0 L 867.0,158.0" style="stroke:#010101; fill:none;"/>
	<path d="M 1055.0,156.0 L 1053.0,158.0" style="stroke:#010101; fill:none;"/>
	<path d="M 1301.0,156.0 L 1307.0,162.0 L 1306.0,159.0" style="stroke:#010101; fill:none;"/>
	<path d="M 798.0,157.0 L 737.0,214.0 L 743.0,206.0" style="stroke:#010101; fill:none;"/>
	<path d="M 862.0,161.0 L 865.0,163.0 L 864.0,164.0 C 862.174,161.688 860.283,159.929 863.0,158.0" style="stroke:#010101; fill:none;"/>
	<path d="M 1290.0,161.0 L 1292.0,161.0 L 1291.0,162.0 C 1290.39,153.662 1299.79,160.113 1304.0,160.0" style="stroke:#010101; fill:none;"/>
	<path d="M 1309.0,157.0 L 1309.0,159.0" style="stroke:#010101; fill:none;"/>
	<path d="M 863.0,158.0 L 863.0,160.0" style="stroke:#010101; fill:none;"/>
	<path d="M 1132.0,274.0 L 1128.0,278.0 L 1129.0,279.0 L 1135.0,263.0 C 1141.56,263.945 1141.46,258.079 1145.11,254.039 C 1151.66,246.782 1159.84,240.644 1167.0,233.975 C 1195.61,207.322 1226.84,177.882 1260.0,158.0" style="stroke:#010101; fill:none;"/>
	<path d="M 1307.0,158.0 L 1306.0,159.0" style="stroke:#010101; fill:none;"/>
	<path d="M 866.0,159.0 L 864.0,161.0" style="stroke:#010101; fill:none;"/>
	<path d="M 1306.0,159.0 L 1306.0,161.0" style="stroke:#010101; fill:none;"/>
	<path d="M 860.0,160.0 C 859.126,163.191 859.612,164.271 863.0,164.0" style="stroke:#010101; fill:none;"/>
	<path d="M 865.0,160.0 L 869.0,160.0" style="stroke:#010101; fill:none;"/>
	<path d="M 1049.0,160.0 L 1041.0,166.0" style="stroke:#010101; fill:none;"/>
	<path d="M 1288.0,160.0 L 1289.0,160.0" style="stroke:#010101; fill:none;"/>
	<path d="M 1295.0,160.0 L 1302.0,161.0" style="stroke:#010101; fill:none;"/>
	<path d="M 1287.0,161.0 L 1287.0,163.0" style="stroke:#010101; fill:none;"/>
	<path d="M 1303.0,161.0 L 1307.0,165.0 L 1308.0,162.0" style="stroke:#010101; fill:none;"/>
	<path d="M 1314.0,160.0 L 1310.0,163.0" style="stroke:#010101; fill:none;"/>
	<path d="M 920.0,162.0 L 917.0,166.0" style="stroke:#010101; fill:none;"/>
	<path d="M 1288.0,165.0 L 1286.0,162.0" style="stroke:#010101; fill:none;"/>
	<path d="M 798.0,200.0 L 857.0,162.0" style="stroke:#010101; fill:none;"/>
	<path d="M 1255.0,163.0 L 1252.0,165.0" style="stroke:#010101; fill:none;"/>
	<path d="M 1265.0,163.0 C 1258.86,168.874 1233.84,183.12 1238.0,192.0 L 1203.0,213.0 C 1205.73,214.047 1206.57,214.02 1206.0,211.0" style="stroke:#010101; fill:none;"/>
	<path d="M 1257.0,190.0 L 1289.0,169.0 L 1282.0,164.0 L 1283.0,163.0 L 1284.0,163.0" style="stroke:#010101; fill:none;"/>
	<path d="M 1293.0,163.0 L 1295.0,171.0 L 1265.0,190.0" style="stroke:#010101; fill:none;"/>
	<path d="M 1299.0,163.0 L 1298.0,170.0 L 1297.0,170.0 L 1296.0,171.0" style="stroke:#010101; fill:none;"/>
	<path d="M 1300.0,163.0 L 1301.0,168.0" style="stroke:#010101; fill:none;"/>
	<path d="M 1242.0,164.0 C 1231.27,173.873 1219.38,182.692 1208.0,191.8 C 1203.64,195.292 1196.29,198.849 1199.0,205.0" style="stroke:#010101; fill:none;"/>
	<path d="M 1247.0,167.0 L 1250.0,165.0" style="stroke:#010101; fill:none;"/>
	<path d="M 1239.0,192.0 L 1281.0,165.0" style="stroke:#010101; fill:none;"/>
	<path d="M 1290.0,165.0 L 1290.0,171.0 L 1291.0,172.0 L 1292.0,173.0" style="stroke:#010101; fill:none;"/>
	<path d="M 1295.0,165.0 L 1297.0,165.0" style="stroke:#010101; fill:none;"/>
	<path d="M 860.0,166.0 L 789.0,218.808 L 747.0,256.0" style="stroke:#010101; fill:none;"/>
	<path d="M 919.0,167.0 C 919.27,170.181 918.076,170.509 915.0,171.0 L 917.0,166.0" style="stroke:#010101; fill:none;"/>
	<path d="M 1303.0,166.0 L 1306.0,165.0" style="stroke:#010101; fill:none;"/>
	<path d="M 924.0,167.0 L 922.0,169.0" style="stroke:#010101; fill:none;"/>
	<path d="M 1247.0,167.0 L 1244.0,170.0" style="stroke:#010101; fill:none;"/>
	<path d="M 1317.0,219.0 L 1434.0,187.895 L 1533.0,167.0" style="stroke:#010101; fill:none;"/>
	<path d="M 1110.0,168.0 C 1079.53,194.533 1045.43,217.335 1014.0,242.804 C 948.447,295.925 883.73,352.437 824.0,412.0" style="stroke:#010101; fill:none;"/>
	<path d="M 1283.0,173.0 L 1283.0,168.0 L 1286.0,171.0" style="stroke:#010101; fill:none;"/>
	<path d="M 1280.0,170.0 L 1274.0,175.0" style="stroke:#010101; fill:none;"/>
	<path d="M 915.0,171.0 C 897.869,185.611 877.201,195.487 860.008,210.084 C 855.122,214.233 853.342,220.139 848.82,224.59 C 843.566,229.761 827.973,238.988 830.0,247.0" style="stroke:#010101; fill:none;"/>
	<path d="M 1056.0,171.0 C 1001.15,221.522 943.411,271.901 884.0,317.0" style="stroke:#010101; fill:none;"/>
	<path d="M 1311.0,176.0 L 1309.0,171.0" style="stroke:#010101; fill:none;"/>
	<path d="M 1245.0,172.0 L 1242.0,175.0" style="stroke:#010101; fill:none;"/>
	<path d="M 1302.0,179.0 L 1307.0,172.0" style="stroke:#010101; fill:none;"/>
	<path d="M 1278.0,173.0 L 1280.0,175.0" style="stroke:#010101; fill:none;"/>
	<path d="M 1307.0,174.0 L 1309.0,177.0" style="stroke:#010101; fill:none;"/>
	<path d="M 1367.0,224.0 C 1386.3,213.87 1412.86,211.411 1434.0,206.126 C 1488.83,192.418 1547.19,179.119 1604.0,179.0" style="stroke:#010101; fill:none;"/>
	<path d="M 734.0,181.0 L 730.0,185.0" style="stroke:#010101; fill:none;"/>
	<path d="M 1012.0,186.0 L 953.0,225.0" style="stroke:#010101; fill:none;"/>
	<path d="M 727.0,187.0 L 697.885,216.665 L 689.0,225.0" style="stroke:#010101; fill:none;"/>
	<path d="M 1235.0,189.0 L 1238.0,190.0" style="stroke:#010101; fill:none;"/>
	<path d="M 1230.0,195.0 L 1235.0,189.0" style="stroke:#010101; fill:none;"/>
	<path d="M 1283.0,189.0 C 1286.94,197.402 1261.76,208.438 1255.0,212.0" style="stroke:#010101; fill:none;"/>
	<path d="M 1283.0,195.0 L 1281.0,190.0" style="stroke:#010101; fill:none;"/>
	<path d="M 771.0,191.0 C 768.114,194.014 765.939,195.822 767.0,200.0 L 773.0,194.0" style="stroke:#010101; fill:none;"/>
	<path d="M 1232.0,191.0 L 1235.0,194.0" style="stroke:#010101; fill:none;"/>
	<path d="M 1235.0,191.0 L 1235.0,192.0" style="stroke:#010101; fill:none;"/>
	<path d="M 763.0,560.0 C 800.853,549.258 839.165,538.141 875.0,521.691 C 943.582,490.209 1006.94,443.205 1062.0,391.911 C 1093.13,362.91 1117.21,328.005 1146.09,297.0 C 1185.52,254.671 1228.27,219.132 1279.0,191.0" style="stroke:#010101; fill:none;"/>
	<path d="M 1208.0,192.0 L 1211.0,195.0" style="stroke:#010101; fill:none;"/>
	<path d="M 1277.0,192.0 L 1281.0,196.0" style="stroke:#010101; fill:none;"/>
	<path d="M 1305.0,193.0 L 1325.0,192.0" style="stroke:#010101; fill:none;"/>
	<path d="M 765.0,198.0 C 763.804,200.242 763.758,200.196 766.0,199.0" style="stroke:#010101; fill:none;"/>
	<path d="M 764.0,202.0 L 759.0,203.0 L 763.0,200.0" style="stroke:#010101; fill:none;"/>
	<path d="M 786.0,201.0 L 780.0,206.0 L 786.0,207.0" style="stroke:#010101; fill:none;"/>
	<path d="M 792.0,203.0 L 794.0,202.0" style="stroke:#010101; fill:none;"/>
	<path d="M 1215.0,207.0 C 1214.27,203.387 1215.26,201.937 1219.0,202.0" style="stroke:#010101; fill:none;"/>
	<path d="M 1394.0,245.0 C 1421.8,238.643 1449.09,230.145 1477.0,224.211 C 1544.49,209.862 1613.03,201.0 1682.0,201.0" style="stroke:#010101; fill:none;"/>
	<path d="M 1191.0,212.0 C 1188.89,207.189 1192.09,204.774 1196.0,202.0" style="stroke:#010101; fill:none;"/>
	<path d="M 759.0,203.0 C 751.562,210.438 732.774,222.611 731.0,233.0 L 734.0,232.0" style="stroke:#010101; fill:none;"/>
	<path d="M 743.0,205.0 L 746.0,204.0" style="stroke:#010101; fill:none;"/>
	<path d="M 760.0,204.0 L 758.0,206.0" style="stroke:#010101; fill:none;"/>
	<path d="M 1264.0,207.0 C 1271.4,210.948 1281.05,208.407 1289.0,207.271 C 1301.83,205.437 1314.08,204.966 1327.0,205.0" style="stroke:#010101; fill:none;"/>
	<path d="M 786.0,206.0 L 789.0,205.0" style="stroke:#010101; fill:none;"/>
	<path d="M 1210.0,206.0 L 1213.0,205.0" style="stroke:#010101; fill:none;"/>
	<path d="M 792.0,206.0 L 791.0,207.0" style="stroke:#010101; fill:none;"/>
	<path d="M 758.0,207.0 L 756.0,208.0" style="stroke:#010101; fill:none;"/>
	<path d="M 780.0,207.0 L 745.318,237.424 L 741.397,245.715 L 734.0,256.0" style="stroke:#010101; fill:none;"/>
	<path d="M 789.0,208.0 L 788.0,209.0" style="stroke:#010101; fill:none;"/>
	<path d="M 749.0,322.0 C 781.938,293.246 817.198,267.299 853.0,242.28 C 869.47,230.771 885.414,217.79 903.0,208.0" style="stroke:#010101; fill:none;"/>
	<path d="M 1189.0,210.0 L 1191.0,210.0" style="stroke:#010101; fill:none;"/>
	<path d="M 1211.0,208.0 L 1207.0,212.0" style="stroke:#010101; fill:none;"/>
	<path d="M 1181.0,217.0 L 1183.0,217.0 L 1182.0,218.0 C 1181.7,213.577 1184.51,211.475 1188.0,209.0" style="stroke:#010101; fill:none;"/>
	<path d="M 780.0,210.0 L 778.0,211.0" style="stroke:#010101; fill:none;"/>
	<path d="M 786.0,210.0 L 743.0,245.0 L 740.0,241.0 L 731.0,250.0" style="stroke:#010101; fill:none;"/>
	<path d="M 711.0,237.0 C 717.438,228.55 726.508,217.924 736.0,213.0" style="stroke:#010101; fill:none;"/>
	<path d="M 1203.0,213.0 L 1202.0,219.0 L 1200.0,215.0" style="stroke:#010101; fill:none;"/>
	<path d="M 1205.0,213.0 L 1202.0,216.0" style="stroke:#010101; fill:none;"/>
	<path d="M 852.0,220.0 L 849.0,217.0 L 854.0,215.0" style="stroke:#010101; fill:none;"/>
	<path d="M 1177.0,224.0 L 1174.0,221.0 L 1180.0,216.0" style="stroke:#010101; fill:none;"/>
	<path d="M 1197.0,218.0 C 1197.94,221.173 1196.98,221.711 1194.0,223.0 L 1199.0,216.0" style="stroke:#010101; fill:none;"/>
	<path d="M 848.0,225.0 L 844.0,221.0 L 849.0,217.0" style="stroke:#010101; fill:none;"/>
	<path d="M 1166.0,219.0 L 1168.0,217.0" style="stroke:#010101; fill:none;"/>
	<path d="M 1166.0,219.0 L 1162.0,223.0" style="stroke:#010101; fill:none;"/>
	<path d="M 850.0,220.0 L 851.0,221.0" style="stroke:#010101; fill:none;"/>
	<path d="M 1127.0,220.0 C 1088.57,258.11 1045.63,292.529 1005.0,328.285 C 975.285,354.436 946.677,384.875 913.0,406.0" style="stroke:#010101; fill:none;"/>
	<path d="M 797.0,261.0 L 812.209,245.17 L 844.0,221.0" style="stroke:#010101; fill:none;"/>
	<path d="M 1169.0,231.0 C 1166.89,226.19 1170.09,223.775 1174.0,221.0" style="stroke:#010101; fill:none;"/>
	<path d="M 689.0,224.0 L 692.0,223.0" style="stroke:#010101; fill:none;"/>
	<path d="M 1059.0,315.0 L 1051.0,323.0 L 1061.35,312.258 L 1077.0,297.039 L 1133.0,246.718 L 1162.0,223.0" style="stroke:#010101; fill:none;"/>
	<path d="M 1194.0,223.0 C 1180.84,233.677 1168.55,245.458 1156.03,256.87 C 1150.61,261.809 1150.33,269.37 1142.0,270.0 C 1142.43,264.419 1145.23,263.173 1150.0,261.0" style="stroke:#010101; fill:none;"/>
	<path d="M 1163.0,224.0 L 1167.0,226.0" style="stroke:#010101; fill:none;"/>
	<path d="M 1164.0,225.0 L 1166.0,228.0" style="stroke:#010101; fill:none;"/>
	<path d="M 679.0,234.0 L 688.0,226.0" style="stroke:#010101; fill:none;"/>
	<path d="M 689.0,227.0 L 681.0,238.0" style="stroke:#010101; fill:none;"/>
	<path d="M 1164.0,228.0 L 1136.01,253.834 L 1125.0,268.0 L 1126.0,267.0" style="stroke:#010101; fill:none;"/>
	<path d="M 730.0,232.0 L 724.0,237.0" style="stroke:#010101; fill:none;"/>
	<path d="M 1124.0,233.0 C 1068.2,275.054 1015.48,323.937 967.911,375.0 C 952.169,391.899 933.056,407.906 920.0,427.0" style="stroke:#010101; fill:none;"/>
	<path d="M 1427.0,264.0 C 1466.53,264.0 1505.91,253.422 1545.0,248.282 C 1604.12,240.507 1664.37,236.0 1724.0,236.0" style="stroke:#010101; fill:none;"/>
	<path d="M 741.0,242.0 L 745.0,242.0" style="stroke:#010101; fill:none;"/>
	<path d="M 827.0,244.0 L 824.0,247.0" style="stroke:#010101; fill:none;"/>
	<path d="M 807.0,251.0 L 805.0,249.0 L 810.0,247.0" style="stroke:#010101; fill:none;"/>
	<path d="M 802.0,251.0 L 805.0,249.0" style="stroke:#010101; fill:none;"/>
	<path d="M 825.0,249.0 L 823.0,251.0" style="stroke:#010101; fill:none;"/>
	<path d="M 820.0,253.0 L 822.0,250.0" style="stroke:#010101; fill:none;"/>
	<path d="M 1107.0,256.0 C 1062.49,298.595 1014.66,337.343 971.0,381.0 C 955.069,396.931 935.729,412.364 923.0,431.0" style="stroke:#010101; fill:none;"/>
	<path d="M 1054.0,258.0 L 944.286,352.374 L 805.0,478.0 L 810.0,472.0" style="stroke:#010101; fill:none;"/>
	<path d="M 1142.0,259.0 L 1137.0,264.0" style="stroke:#010101; fill:none;"/>
	<path d="M 1134.0,266.0 L 1131.0,269.0" style="stroke:#010101; fill:none;"/>
	<path d="M 1125.0,268.0 C 1119.09,273.914 1098.83,288.407 1101.0,297.0 L 1102.0,291.0" style="stroke:#010101; fill:none;"/>
	<path d="M 1126.0,269.0 L 1101.0,294.0" style="stroke:#010101; fill:none;"/>
	<path d="M 1129.0,275.0 L 1126.0,273.0 L 1131.0,269.0" style="stroke:#010101; fill:none;"/>
	<path d="M 1135.0,269.0 L 1141.0,271.0 L 1142.0,270.0" style="stroke:#010101; fill:none;"/>
	<path d="M 1117.0,276.0 L 1114.0,273.0 L 1120.0,272.0" style="stroke:#010101; fill:none;"/>
	<path d="M 1133.0,272.0 L 1138.0,277.0 L 1140.0,273.0" style="stroke:#010101; fill:none;"/>
	<path d="M 1124.0,273.0 L 1126.0,273.0" style="stroke:#010101; fill:none;"/>
	<path d="M 1115.0,274.0 L 1109.0,284.0" style="stroke:#010101; fill:none;"/>
	<path d="M 1484.0,277.0 C 1506.29,277.959 1528.57,282.979 1551.0,283.961 C 1614.01,286.718 1677.24,282.5 1740.0,279.0" style="stroke:#010101; fill:none;"/>
	<path d="M 1102.0,312.0 L 1085.0,329.0 L 1100.32,315.573 L 1137.0,277.0" style="stroke:#010101; fill:none;"/>
	<path d="M 1088.0,281.0 L 977.0,386.0 L 936.0,428.0 C 940.676,428.948 944.689,428.457 947.0,424.0 L 944.0,425.0 L 943.0,426.0 L 942.0,427.0" style="stroke:#010101; fill:none;"/>
	<path d="M 1095.0,293.0 L 1098.0,294.0 C 1092.26,290.607 1102.79,283.264 1106.0,281.0" style="stroke:#010101; fill:none;"/>
	<path d="M 1104.0,283.0 L 1107.0,286.0" style="stroke:#010101; fill:none;"/>
	<path d="M 1788.0,299.0 C 1771.38,299.509 1754.62,302.773 1738.0,303.911 C 1710.1,305.821 1681.91,305.26 1654.0,304.039 C 1637.14,303.301 1613.01,304.657 1598.0,296.0 L 1618.0,296.0 L 1665.0,295.988 L 1779.0,288.0" style="stroke:#010101; fill:none;"/>
	<path d="M 1552.0,289.0 C 1560.71,290.796 1571.24,294.57 1580.0,292.0 L 1578.0,290.0" style="stroke:#010101; fill:none;"/>
	<path d="M 499.0,432.0 L 453.0,479.0 C 449.691,472.952 454.455,465.73 457.259,460.0 C 460.449,453.483 464.773,452.416 470.0,448.028 C 479.548,440.012 488.786,431.407 498.0,423.0 C 532.326,391.681 571.123,364.385 609.0,337.576 C 632.458,320.972 657.834,300.021 685.0,290.0" style="stroke:#010101; fill:none;"/>
	<path d="M 1085.0,296.0 L 1085.0,299.0 L 1094.0,292.0" style="stroke:#010101; fill:none;"/>
	<path d="M 1580.0,292.0 L 1598.0,296.0" style="stroke:#010101; fill:none;"/>
	<path d="M 1088.0,293.0 L 1090.0,294.0" style="stroke:#010101; fill:none;"/>
	<path d="M 1097.0,293.0 L 1098.0,297.0 L 1084.0,310.0 L 1091.0,301.0" style="stroke:#010101; fill:none;"/>
	<path d="M 1088.0,295.0 L 1086.0,297.0" style="stroke:#010101; fill:none;"/>
	<path d="M 686.0,297.0 C 644.39,327.843 610.34,363.764 581.515,407.0 C 569.05,425.698 559.29,445.657 548.0,465.0" style="stroke:#010101; fill:none;"/>
	<path d="M 1102.0,297.0 L 1091.0,305.0" style="stroke:#010101; fill:none;"/>
	<path d="M 1082.0,298.0 L 1086.0,299.0" style="stroke:#010101; fill:none;"/>
	<path d="M 1095.0,298.0 L 1093.0,299.0" style="stroke:#010101; fill:none;"/>
	<path d="M 1082.0,299.0 L 1068.0,312.0 C 1080.07,325.768 1052.77,339.594 1044.12,348.478 C 1040.6,352.1 1039.12,357.078 1035.96,361.0 C 1031.85,366.099 1023.89,371.237 1028.0,378.0 L 1062.0,344.985 L 1084.0,326.0" style="stroke:#010101; fill:none;"/>
	<path d="M 1585.0,300.0 C 1644.26,316.174 1705.65,319.487 1767.0,317.985 C 1788.41,317.461 1810.72,312.098 1832.0,313.0" style="stroke:#010101; fill:none;"/>
	<path d="M 1084.0,301.0 L 1084.0,305.0 L 1083.0,304.0" style="stroke:#010101; fill:none;"/>
	<path d="M 1077.0,303.0 L 1080.0,302.0" style="stroke:#010101; fill:none;"/>
	<path d="M 1078.0,304.0 L 1069.0,313.0" style="stroke:#010101; fill:none;"/>
	<path d="M 1085.0,305.0 L 1086.0,306.0" style="stroke:#010101; fill:none;"/>
	<path d="M 1068.0,307.0 L 1065.0,310.0" style="stroke:#010101; fill:none;"/>
	<path d="M 1086.0,310.0 C 1084.14,312.931 1082.95,312.59 1080.0,311.0 L 1083.0,309.0" style="stroke:#010101; fill:none;"/>
	<path d="M 1068.0,310.0 L 1069.0,311.0" style="stroke:#010101; fill:none;"/>
	<path d="M 1076.0,315.0 L 1076.0,317.0 L 1080.0,311.0" style="stroke:#010101; fill:none;"/>
	<path d="M 1066.0,312.0 L 1063.0,316.0 L 1065.0,318.0 L 1070.0,314.0" style="stroke:#010101; fill:none;"/>
	<path d="M 1071.0,315.0 C 1073.24,313.804 1073.2,313.758 1072.0,316.0" style="stroke:#010101; fill:none;"/>
	<path d="M 1077.0,313.0 C 1078.92,317.176 1077.28,319.066 1074.0,322.0" style="stroke:#010101; fill:none;"/>
	<path d="M 1613.0,313.0 C 1683.91,342.091 1764.44,328.854 1838.0,323.0" style="stroke:#010101; fill:none;"/>
	<path d="M 1083.0,314.0 L 1081.0,316.0" style="stroke:#010101; fill:none;"/>
	<path d="M 663.0,316.0 C 660.439,322.611 654.812,326.843 650.171,332.0 C 642.671,340.333 635.527,349.291 628.46,358.0 C 604.917,387.015 579.875,420.038 564.0,454.0" style="stroke:#010101; fill:none;"/>
	<path d="M 1063.0,316.0 C 1057.13,321.911 1050.42,329.623 1057.0,337.0" style="stroke:#010101; fill:none;"/>
	<path d="M 659.0,317.0 L 661.0,319.0" style="stroke:#010101; fill:none;"/>
	<path d="M 1064.0,317.0 L 1056.0,325.0" style="stroke:#010101; fill:none;"/>
	<path d="M 1057.0,320.0 L 1058.0,321.0" style="stroke:#010101; fill:none;"/>
	<path d="M 1064.0,327.0 L 1071.0,320.0" style="stroke:#010101; fill:none;"/>
	<path d="M 656.0,321.0 L 658.0,323.0" style="stroke:#010101; fill:none;"/>
	<path d="M 1059.0,322.0 L 1064.0,327.0" style="stroke:#010101; fill:none;"/>
	<path d="M 1063.0,322.0 L 1064.0,323.0 L 1060.0,327.0 L 1063.0,322.0" style="stroke:#010101; fill:none;"/>
	<path d="M 1052.0,325.0 L 1049.0,326.0 L 1051.0,323.0" style="stroke:#010101; fill:none;"/>
	<path d="M 1049.0,326.0 C 1028.98,345.611 1003.18,364.03 987.0,387.0 L 989.0,389.0 C 999.149,382.061 1007.72,373.009 1017.0,365.0 C 1020.86,361.67 1024.69,356.654 1030.0,358.0 L 1033.0,355.0 C 1031.34,349.109 1037.73,347.439 1042.0,345.0 L 1043.0,346.0 L 1039.0,350.0 L 1039.0,346.0" style="stroke:#010101; fill:none;"/>
	<path d="M 1060.0,328.0 L 1062.0,333.0" style="stroke:#010101; fill:none;"/>
	<path d="M 1088.0,328.0 L 1059.09,361.0 L 1016.0,407.0" style="stroke:#010101; fill:none;"/>
	<path d="M 1055.0,334.0 L 1057.0,331.0 L 1060.0,334.0" style="stroke:#010101; fill:none;"/>
	<path d="M 1052.0,332.0 L 1047.0,337.0 L 1053.0,333.0" style="stroke:#010101; fill:none;"/>
	<path d="M 1048.0,339.0 L 1047.0,337.0" style="stroke:#010101; fill:none;"/>
	<path d="M 1050.0,337.0 L 1053.0,340.0" style="stroke:#010101; fill:none;"/>
	<path d="M 1039.0,346.0 L 1045.0,338.0" style="stroke:#010101; fill:none;"/>
	<path d="M 1048.0,340.0 L 1051.0,343.0" style="stroke:#010101; fill:none;"/>
	<path d="M 1676.0,341.0 C 1691.69,349.92 1714.38,350.0 1732.0,350.0 C 1770.83,350.0 1812.16,349.787 1850.0,340.0" style="stroke:#010101; fill:none;"/>
	<path d="M 1042.0,341.0 L 1046.0,341.0" style="stroke:#010101; fill:none;"/>
	<path d="M 1045.0,343.0 L 1047.0,345.0" style="stroke:#010101; fill:none;"/>
	<path d="M 1042.0,344.0 L 1042.0,345.0" style="stroke:#010101; fill:none;"/>
	<path d="M 1035.0,350.0 C 1036.12,353.416 1035.67,354.605 1033.0,357.0" style="stroke:#010101; fill:none;"/>
	<path d="M 1035.0,352.0 L 1036.0,353.0" style="stroke:#010101; fill:none;"/>
	<path d="M 528.0,354.0 C 505.879,370.853 491.827,396.571 477.8,420.0 C 472.497,428.858 464.061,440.645 463.0,451.0" style="stroke:#010101; fill:none;"/>
	<path d="M 1032.0,354.0 L 1026.8,363.996 L 988.0,401.0 L 991.0,404.0 L 1024.0,374.0" style="stroke:#010101; fill:none;"/>
	<path d="M 1037.0,354.0 L 1040.0,354.0" style="stroke:#010101; fill:none;"/>
	<path d="M 1746.0,364.0 L 1800.0,368.394 L 1857.0,366.0" style="stroke:#010101; fill:none;"/>
	<path d="M 1734.0,395.0 C 1748.92,390.59 1768.34,393.333 1784.0,391.83 C 1809.14,389.418 1832.82,381.597 1857.0,375.0" style="stroke:#010101; fill:none;"/>
	<path d="M 1027.0,378.0 C 1008.22,396.781 984.459,415.508 969.0,437.0" style="stroke:#010101; fill:none;"/>
	<path d="M 987.0,387.0 L 983.0,394.0 L 984.0,390.0" style="stroke:#010101; fill:none;"/>
	<path d="M 988.0,388.0 L 985.0,391.0" style="stroke:#010101; fill:none;"/>
	<path d="M 1730.0,409.0 C 1779.65,409.033 1825.19,406.557 1873.0,391.0" style="stroke:#010101; fill:none;"/>
	<path d="M 689.0,393.0 C 660.133,416.704 633.564,447.883 609.0,476.0" style="stroke:#010101; fill:none;"/>
	<path d="M 982.0,393.0 L 948.0,423.0" style="stroke:#010101; fill:none;"/>
	<path d="M 989.0,402.0 L 984.0,407.0 L 990.0,403.0" style="stroke:#010101; fill:none;"/>
	<path d="M 777.0,545.0 C 830.778,524.136 881.73,491.282 928.0,457.574 C 941.265,447.911 953.341,435.498 965.0,423.996 C 970.439,418.631 977.156,410.282 984.0,407.0" style="stroke:#010101; fill:none;"/>
	<path d="M 571.0,467.0 C 584.358,451.558 602.469,438.705 619.0,426.86 C 628.006,420.406 636.956,412.751 647.0,408.0" style="stroke:#010101; fill:none;"/>
	<path d="M 985.0,409.0 L 983.0,410.0" style="stroke:#010101; fill:none;"/>
	<path d="M 1723.0,423.0 C 1737.28,429.143 1755.76,428.091 1771.0,427.706 C 1803.34,426.89 1836.09,423.054 1867.0,413.0" style="stroke:#010101; fill:none;"/>
	<path d="M 943.0,426.0 L 945.0,428.0" style="stroke:#010101; fill:none;"/>
	<path d="M 936.0,428.0 L 933.0,431.0 L 936.0,430.0" style="stroke:#010101; fill:none;"/>
	<path d="M 688.0,459.0 L 727.0,429.0" style="stroke:#010101; fill:none;"/>
	<path d="M 944.0,429.0 L 912.0,462.0" style="stroke:#010101; fill:none;"/>
	<path d="M 933.0,432.0 L 864.0,484.709 L 800.0,528.0" style="stroke:#010101; fill:none;"/>
	<path d="M 1716.0,445.0 C 1736.61,450.794 1758.88,449.535 1780.0,448.089 C 1807.84,446.183 1834.63,442.65 1862.0,437.0" style="stroke:#010101; fill:none;"/>
	<path d="M 748.0,444.0 C 747.141,441.488 747.448,441.418 750.0,442.0 C 745.268,446.561 736.718,448.298 731.0,452.654 C 704.719,472.676 674.683,493.254 642.0,501.0" style="stroke:#010101; fill:none;"/>
	<path d="M 684.0,443.0 C 664.9,456.6 637.898,469.704 615.0,475.0" style="stroke:#010101; fill:none;"/>
	<path d="M 747.0,443.0 L 745.0,445.0" style="stroke:#010101; fill:none;"/>
	<path d="M 700.0,514.0 C 715.38,493.814 734.627,474.734 754.0,458.41 C 760.837,452.649 769.186,442.668 779.0,444.0" style="stroke:#010101; fill:none;"/>
	<path d="M 746.0,447.0 L 734.0,461.0" style="stroke:#010101; fill:none;"/>
	<path d="M 420.0,520.0 L 438.0,498.0 L 436.0,516.0 C 442.644,512.836 446.799,505.528 451.438,500.0 C 463.065,486.149 479.395,459.985 497.0,454.0" style="stroke:#010101; fill:none;"/>
	<path d="M 1714.0,459.0 C 1762.21,476.703 1814.55,459.227 1863.0,455.0" style="stroke:#010101; fill:none;"/>
	<path d="M 817.0,457.0 C 780.551,478.274 739.357,492.544 706.0,519.0" style="stroke:#010101; fill:none;"/>
	<path d="M 412.0,561.0 C 424.587,540.933 440.002,522.497 454.8,504.0 C 463.511,493.112 471.584,480.92 484.0,474.0" style="stroke:#010101; fill:none;"/>
	<path d="M 1717.0,479.0 C 1728.54,486.858 1746.56,485.45 1760.0,486.039 C 1798.38,487.721 1836.34,483.77 1874.0,476.0" style="stroke:#010101; fill:none;"/>
	<path d="M 451.0,477.0 L 449.0,481.0 L 454.0,479.0" style="stroke:#010101; fill:none;"/>
	<path d="M 803.0,479.0 L 801.0,481.0 L 804.0,477.0" style="stroke:#010101; fill:none;"/>
	<path d="M 800.0,482.0 L 801.0,480.0" style="stroke:#010101; fill:none;"/>
	<path d="M 805.0,479.0 L 804.0,480.0" style="stroke:#010101; fill:none;"/>
	<path d="M 448.0,482.0 L 440.0,500.0" style="stroke:#010101; fill:none;"/>
	<path d="M 799.0,483.0 L 798.0,485.0 L 796.0,483.0 L 798.0,482.0" style="stroke:#010101; fill:none;"/>
	<path d="M 790.0,489.0 L 788.0,492.0 L 796.0,483.0" style="stroke:#010101; fill:none;"/>
	<path d="M 794.0,485.0 L 791.0,488.0" style="stroke:#010101; fill:none;"/>
	<path d="M 792.0,490.0 L 791.0,491.0" style="stroke:#010101; fill:none;"/>
	<path d="M 787.0,491.0 C 757.936,516.151 725.05,544.149 688.0,556.0" style="stroke:#010101; fill:none;"/>
	<path d="M 480.0,493.0 L 433.0,550.0 L 436.0,537.0" style="stroke:#010101; fill:none;"/>
	<path d="M 1709.0,494.0 C 1722.82,499.075 1738.47,499.716 1753.0,501.169 C 1789.49,504.817 1824.61,502.062 1861.0,500.0" style="stroke:#010101; fill:none;"/>
	<path d="M 439.0,497.0 L 441.0,497.0" style="stroke:#010101; fill:none;"/>
	<path d="M 1696.0,507.0 C 1743.19,522.354 1795.73,524.0 1845.0,524.0" style="stroke:#010101; fill:none;"/>
	<path d="M 435.0,517.0 L 431.0,531.0" style="stroke:#010101; fill:none;"/>
	<path d="M 1699.0,526.0 C 1749.77,548.937 1810.88,544.0 1865.0,544.0" style="stroke:#010101; fill:none;"/>
	<path d="M 417.0,543.0 L 430.0,528.0" style="stroke:#010101; fill:none;"/>
	<path d="M 1685.0,539.0 C 1701.91,551.008 1723.99,555.223 1744.0,559.2 C 1796.83,569.7 1862.04,572.765 1913.0,553.0" style="stroke:#010101; fill:none;"/>
	<path d="M 427.0,544.0 L 424.0,545.0" style="stroke:#010101; fill:none;"/>
	<path d="M 431.0,551.0 L 428.0,573.0" style="stroke:#010101; fill:none;"/>
	<path d="M 1696.0,555.0 C 1706.28,569.278 1730.66,575.769 1747.0,579.874 C 1786.25,589.733 1825.67,593.0 1866.0,593.0 C 1883.46,593.0 1905.39,593.875 1921.0,585.0" style="stroke:#010101; fill:none;"/>
	<path d="M 413.0,578.0 L 429.0,557.0" style="stroke:#010101; fill:none;"/>
	<path d="M 418.0,578.0 L 419.0,590.0 L 424.0,587.0" style="stroke:#010101; fill:none;"/>
	<path d="M 1747.0,580.0 C 1743.59,586.781 1749.26,588.753 1755.0,590.667 C 1765.35,594.117 1776.26,595.964 1787.0,597.753 C 1810.95,601.743 1834.86,603.437 1859.0,605.089 C 1879.67,606.505 1901.82,607.683 1922.0,602.0" style="stroke:#010101; fill:none;"/>
	<path d="M 418.0,591.0 L 419.0,601.0 L 422.0,600.0" style="stroke:#010101; fill:none;"/>
	<path d="M 419.0,601.0 L 421.0,605.0" style="stroke:#010101; fill:none;"/>
	<path d="M 1765.0,601.0 C 1776.14,608.583 1792.98,608.624 1806.0,610.286 C 1840.71,614.715 1875.16,614.751 1910.0,612.0" style="stroke:#010101; fill:none;"/>
	<path d="M 418.0,604.0 L 418.0,611.0" style="stroke:#010101; fill:none;"/>
	<path d="M 1782.0,622.0 C 1806.45,632.823 1838.89,629.0 1865.0,629.0" style="stroke:#010101; fill:none;"/>
	<path d="M 1875.0,649.0 L 1919.0,627.0" style="stroke:#010101; fill:none;"/>
	<path d="M 1791.0,634.0 C 1807.48,642.685 1835.58,646.286 1854.0,644.0" style="stroke:#010101; fill:none;"/>
	<path d="M 1807.0,647.0 C 1821.08,651.581 1836.17,653.877 1851.0,654.0" style="stroke:#010101; fill:none;"/>
	<path d="M 1864.0,669.0 L 1904.0,647.0" style="stroke:#010101; fill:none;"/>
	<path d="M 1864.0,689.0 C 1881.19,676.792 1902.63,665.349 1922.0,657.0" style="stroke:#010101; fill:none;"/>
	<path d="M 1859.0,718.0 C 1873.57,704.092 1894.46,694.726 1912.0,685.0" style="stroke:#010101; fill:none;"/>
	<path d="M 1851.0,744.0 L 1907.0,710.0" style="stroke:#010101; fill:none;"/>
	<path d="M 1839.0,777.0 L 1876.0,752.989 L 1933.0,720.0" style="stroke:#010101; fill:none;"/>
	<path d="M 1835.0,796.0 C 1857.88,780.862 1882.63,765.564 1908.0,755.0" style="stroke:#010101; fill:none;"/>
	<path d="M 1844.0,808.0 C 1863.07,794.383 1886.71,784.673 1908.0,775.0" style="stroke:#010101; fill:none;"/>
	<path d="M 1851.0,812.0 C 1868.67,801.586 1888.59,793.566 1908.0,787.0" style="stroke:#010101; fill:none;"/>
	<path d="M 1892.0,827.0 L 1871.0,868.0 L 1870.0,827.0 L 1871.03,812.563 L 1881.0,808.0 L 1907.0,798.0" style="stroke:#010101; fill:none;"/>
	<path d="M 1989.0,799.0 C 1985.91,813.917 1979.66,828.869 1972.0,842.0" style="stroke:#010101; fill:none;"/>
	<path d="M 1975.0,802.0 C 1971.7,843.783 1942.14,889.642 1909.0,913.0" style="stroke:#010101; fill:none;"/>
	<path d="M 1848.0,815.0 L 1870.0,812.0" style="stroke:#010101; fill:none;"/>
	<path d="M 1888.0,816.0 C 1881.3,824.155 1878.97,834.827 1877.0,845.0" style="stroke:#010101; fill:none;"/>
	<path d="M 1904.0,824.0 C 1892.91,842.998 1883.09,865.18 1876.0,886.0" style="stroke:#010101; fill:none;"/>
	<path d="M 1915.0,825.0 C 1900.78,842.977 1892.24,867.751 1884.0,889.0" style="stroke:#010101; fill:none;"/>
	<path d="M 1960.0,830.0 C 1948.01,852.795 1938.82,877.42 1923.0,898.0" style="stroke:#010101; fill:none;"/>
	<path d="M 1936.0,832.0 C 1921.24,854.378 1908.3,880.26 1898.0,905.0" style="stroke:#010101; fill:none;"/>
	<path d="M 1927.0,833.0 C 1909.43,853.662 1896.64,884.46 1888.0,910.0" style="stroke:#010101; fill:none;"/>
	<path d="M 1946.0,834.0 L 1910.0,901.0" style="stroke:#010101; fill:none;"/>
	<path d="M 1871.0,868.0 L 1871.0,906.0" style="stroke:#010101; fill:none;"/>
	<path d="M 1922.0,902.0 L 1924.0,901.0" style="stroke:#010101; fill:none;"/>
	<path d="M 1160.0,943.0 L 1160.0,944.0" style="stroke:#010101; fill:none;"/>
</svg>
