<?xml version="1.0" ?>
<svg baseProfile="full" height="3104" version="1.1" width="2941" xmlns="http://www.w3.org/2000/svg" xmlns:ev="http://www.w3.org/2001/xml-events" xmlns:xlink="http://www.w3.org/1999/xlink">
	<defs/>
	<path d="M 2472.0,2.0 L 2473.0,3.0" style="stroke:#010101; fill:none;"/>
	<path d="M 2404.0,3.0 L 2424.0,18.0 L 2422.0,14.0" style="stroke:#010101; fill:none;"/>
	<path d="M 2475.0,4.0 L 2476.0,6.0" style="stroke:#010101; fill:none;"/>
	<path d="M 258.0,146.0 C 273.082,131.567 291.157,120.074 308.0,107.848 C 343.566,82.031 380.372,57.9255 418.0,35.2036 C 430.812,27.4673 444.07,20.5437 457.0,13.0115 C 462.639,9.72656 470.355,4.70264 477.0,6.0 L 475.0,10.0" style="stroke:#010101; fill:none;"/>
	<path d="M 2426.0,5.0 C 2435.39,5.94214 2447.23,12.6572 2453.0,20.0 L 2452.0,16.0" style="stroke:#010101; fill:none;"/>
	<path d="M 2478.0,9.0 L 2485.0,15.0 L 2480.0,12.0" style="stroke:#010101; fill:none;"/>
	<path d="M 2418.0,10.0 L 2419.0,11.0" style="stroke:#010101; fill:none;"/>
	<path d="M 2423.0,10.0 C 2451.26,30.3127 2477.02,53.9839 2503.0,77.0503 C 2513.95,86.7732 2525.8,102.843 2539.0,109.0 L 2536.0,107.0" style="stroke:#010101; fill:none;"/>
	<path d="M 2446.0,10.0 L 2449.0,13.0" style="stroke:#010101; fill:none;"/>
	<path d="M 2454.0,10.0 L 2461.0,19.0" style="stroke:#010101; fill:none;"/>
	<path d="M 2473.0,10.0 L 2483.0,19.0 L 2484.0,16.0" style="stroke:#010101; fill:none;"/>
	<path d="M 2490.0,10.0 L 2510.0,31.0 L 2510.0,23.0 L 2537.27,49.9106 L 2585.0,100.0" style="stroke:#010101; fill:none;"/>
	<path d="M 2499.0,10.0 L 2509.0,22.0" style="stroke:#010101; fill:none;"/>
	<path d="M 2506.0,10.0 C 2515.92,13.3708 2530.79,27.542 2537.29,35.6836 C 2539.26,38.1558 2538.64,41.4138 2541.11,43.8872 C 2544.41,47.1787 2549.32,46.9839 2553.0,50.0" style="stroke:#010101; fill:none;"/>
	<path d="M 2465.0,11.0 L 2493.0,40.0 L 2517.18,63.1289 L 2556.0,111.0" style="stroke:#010101; fill:none;"/>
	<path d="M 2522.0,11.0 L 2526.0,13.0 L 2528.0,19.0 L 2525.0,14.0" style="stroke:#010101; fill:none;"/>
	<path d="M 2523.0,12.0 L 2523.0,14.0" style="stroke:#010101; fill:none;"/>
	<path d="M 2567.0,12.0 L 2583.0,27.0" style="stroke:#010101; fill:none;"/>
	<path d="M 107.0,13.0 C 94.6332,21.5176 84.4925,42.95 90.6134,58.0 C 93.6361,65.4321 101.935,69.4924 102.61,78.0 C 103.563,90.0298 94.1933,100.441 93.2539,112.0 C 92.6389,119.567 101.828,122.671 101.591,130.0 C 101.052,146.657 92.0721,162.738 92.0787,180.0 C 92.0807,185.164 93.3259,191.088 97.1335,194.786 C 99.844,197.418 106.898,198.743 107.002,203.108 C 107.107,207.566 103.454,212.147 101.63,216.0 C 97.2672,225.212 93.3102,234.635 89.2809,244.0 C 84.1102,256.018 76.7002,268.277 73.5139,281.0 C 69.888,295.478 71.3988,318.416 74.6651,333.0 C 81.0007,361.289 102.55,382.498 119.116,405.0 C 127.518,416.414 133.228,429.728 141.634,440.985 C 145.387,446.01 154.923,446.319 157.106,451.148 C 160.368,458.362 158.558,469.243 159.09,477.0 C 160.279,494.366 163.041,511.869 166.261,529.0 C 167.998,538.242 173.149,546.132 175.971,555.0 C 179.828,567.12 180.158,579.652 182.665,592.0 C 183.995,598.547 187.803,604.55 188.787,611.0 C 191.377,627.984 186.0,646.803 186.0,664.0 C 186.0,684.273 185.249,705.818 187.17,726.0 C 187.846,733.103 191.718,740.378 192.097,747.0 C 192.349,751.391 188.105,755.907 186.75,760.0 C 184.227,767.618 183.304,780.199 185.573,787.996 C 188.16,796.889 197.046,793.997 204.0,794.0 C 206.457,794.001 211.179,793.31 212.223,796.318 C 216.455,808.514 192.33,822.483 187.0,831.0" style="stroke:#010101; fill:none;"/>
	<path d="M 273.0,86.0 C 295.72,66.2146 322.092,50.0898 347.0,33.2546 C 358.363,25.5745 372.815,13.6494 387.0,13.0" style="stroke:#010101; fill:none;"/>
	<path d="M 2418.0,13.0 L 2420.0,15.0" style="stroke:#010101; fill:none;"/>
	<path d="M 298.0,54.0 L 340.0,23.5046 L 357.0,14.0" style="stroke:#010101; fill:none;"/>
	<path d="M 2922.0,14.0 C 2924.82,26.1882 2941.69,46.9722 2935.68,58.9854 C 2927.51,75.3391 2898.22,73.7507 2890.0,91.0 C 2895.7,93.6516 2902.74,94.4536 2907.94,97.9946 C 2912.57,101.142 2910.7,105.758 2913.6,109.7 C 2922.06,121.186 2933.54,129.756 2919.7,143.7 C 2911.74,151.711 2901.73,158.537 2893.0,165.75 C 2889.45,168.683 2883.92,171.72 2884.27,177.004 C 2884.97,187.524 2896.64,190.652 2901.89,198.09 C 2907.35,205.823 2907.13,219.821 2907.21,229.0 C 2907.34,243.987 2894.51,257.842 2893.17,273.0 C 2892.75,277.793 2894.86,282.26 2894.47,287.0 C 2893.91,293.788 2890.15,301.15 2891.24,307.985 C 2891.93,312.283 2896.19,314.64 2896.68,319.004 C 2897.51,326.381 2893.49,334.78 2892.29,342.0 C 2891.02,349.553 2892.22,357.627 2890.61,365.0 C 2888.98,372.462 2882.51,374.483 2879.03,380.325 C 2877.37,383.098 2878.06,386.933 2877.21,390.0 C 2875.42,396.496 2871.43,402.294 2870.33,409.0 C 2868.26,421.468 2875.3,433.771 2872.48,447.0 C 2864.89,482.598 2837.23,505.599 2814.42,532.0 C 2807.83,539.638 2795.85,558.294 2784.0,554.0 C 2780.64,559.748 2777.99,565.847 2773.67,570.999 C 2771.23,573.917 2766.62,576.62 2765.16,580.17 C 2763.75,583.605 2767.27,587.082 2768.58,590.0 C 2770.41,594.063 2770.24,598.721 2769.33,603.0 C 2766.66,615.505 2759.12,627.397 2757.21,640.0 C 2752.68,669.969 2756.0,701.726 2756.0,732.0 C 2756.0,749.143 2749.52,769.256 2752.26,786.0 C 2755.28,804.459 2764.7,821.862 2769.0,840.0" style="stroke:#010101; fill:none;"/>
	<path d="M 2448.0,15.0 L 2450.0,17.0" style="stroke:#010101; fill:none;"/>
	<path d="M 2486.0,15.0 C 2496.21,23.3105 2504.67,33.7107 2514.0,43.0 C 2516.69,45.677 2521.9,52.1162 2526.0,49.0" style="stroke:#010101; fill:none;"/>
	<path d="M 298.0,128.0 C 339.722,99.4719 377.88,66.0142 422.0,40.72 C 435.926,32.7361 454.251,17.2629 471.0,18.0" style="stroke:#010101; fill:none;"/>
	<path d="M 2425.0,17.0 L 2433.0,26.0 L 2432.0,23.0" style="stroke:#010101; fill:none;"/>
	<path d="M 2424.0,18.0 L 2430.0,24.0" style="stroke:#010101; fill:none;"/>
	<path d="M 2454.0,18.0 L 2512.74,75.2593 L 2520.0,86.0 L 2515.0,79.0" style="stroke:#010101; fill:none;"/>
	<path d="M 2529.0,18.0 L 2565.0,47.0" style="stroke:#010101; fill:none;"/>
	<path d="M 237.0,135.0 C 278.523,98.7522 327.239,67.9021 375.0,40.5786 C 387.375,33.4993 413.47,14.0481 428.0,21.0" style="stroke:#010101; fill:none;"/>
	<path d="M 281.0,162.0 C 333.433,119.635 391.008,82.8586 448.0,47.0417 C 461.414,38.6116 475.4,29.6421 490.0,23.4121 C 493.443,21.9429 504.255,16.0994 505.0,22.0" style="stroke:#010101; fill:none;"/>
	<path d="M 2483.0,19.0 L 2542.0,77.0" style="stroke:#010101; fill:none;"/>
	<path d="M 2528.0,19.0 L 2529.0,24.0 L 2527.0,20.0" style="stroke:#010101; fill:none;"/>
	<path d="M 2530.0,23.0 L 2529.0,28.0" style="stroke:#010101; fill:none;"/>
	<path d="M 2383.0,26.0 C 2390.02,25.7502 2395.11,33.4001 2400.0,37.7146 C 2414.48,50.489 2428.42,63.9106 2443.0,76.5757 C 2491.46,118.665 2538.78,165.129 2580.42,214.0 C 2593.54,229.396 2618.76,251.228 2622.0,272.0" style="stroke:#010101; fill:none;"/>
	<path d="M 2434.0,25.0 L 2439.0,30.0 L 2433.0,26.0" style="stroke:#010101; fill:none;"/>
	<path d="M 2514.0,26.0 L 2512.0,28.0" style="stroke:#010101; fill:none;"/>
	<path d="M 2440.0,30.0 L 2448.0,36.0" style="stroke:#010101; fill:none;"/>
	<path d="M 2438.0,32.0 C 2486.66,74.5107 2533.61,126.512 2570.0,180.0" style="stroke:#010101; fill:none;"/>
	<path d="M 2512.0,32.0 L 2526.0,48.0" style="stroke:#010101; fill:none;"/>
	<path d="M 2534.0,34.0 C 2534.21,36.8582 2534.17,38.0 2537.0,38.0" style="stroke:#010101; fill:none;"/>
	<path d="M 2538.0,39.0 L 2546.0,47.0" style="stroke:#010101; fill:none;"/>
	<path d="M 2520.0,49.0 L 2517.0,53.0" style="stroke:#010101; fill:none;"/>
	<path d="M 2526.0,49.0 C 2524.7,57.2388 2536.42,60.248 2533.0,68.0" style="stroke:#010101; fill:none;"/>
	<path d="M 2544.0,49.0 L 2581.0,89.0" style="stroke:#010101; fill:none;"/>
	<path d="M 2523.0,50.0 L 2525.0,52.0" style="stroke:#010101; fill:none;"/>
	<path d="M 2528.0,50.0 L 2526.0,55.0" style="stroke:#010101; fill:none;"/>
	<path d="M 2515.0,51.0 L 2516.0,54.0" style="stroke:#010101; fill:none;"/>
	<path d="M 2530.0,51.0 L 2578.0,101.0" style="stroke:#010101; fill:none;"/>
	<path d="M 275.0,201.0 C 322.914,162.115 371.74,124.527 422.0,88.709 C 434.045,80.1255 446.325,71.8372 459.0,64.2036 C 464.25,61.042 470.029,57.1199 476.0,60.0" style="stroke:#010101; fill:none;"/>
	<path d="M 2513.0,60.0 L 2514.0,64.0 L 2516.0,62.0" style="stroke:#010101; fill:none;"/>
	<path d="M 2515.0,63.0 L 2520.0,68.0" style="stroke:#010101; fill:none;"/>
	<path d="M 2534.0,63.0 L 2532.0,65.0" style="stroke:#010101; fill:none;"/>
	<path d="M 2536.0,66.0 L 2548.0,79.0" style="stroke:#010101; fill:none;"/>
	<path d="M 2522.0,67.0 L 2545.0,90.0" style="stroke:#010101; fill:none;"/>
	<path d="M 2509.0,73.0 L 2514.0,80.0" style="stroke:#010101; fill:none;"/>
	<path d="M 2398.0,75.0 C 2465.24,129.756 2522.83,196.834 2584.0,258.0" style="stroke:#010101; fill:none;"/>
	<path d="M 2522.0,85.0 L 2565.56,131.0 L 2577.0,148.0" style="stroke:#010101; fill:none;"/>
	<path d="M 2520.0,87.0 L 2537.0,105.0" style="stroke:#010101; fill:none;"/>
	<path d="M 249.0,258.0 C 270.609,242.777 289.553,221.452 310.0,204.435 C 344.99,175.315 381.973,148.954 421.0,125.551 C 440.759,113.702 468.222,93.5056 492.0,93.0" style="stroke:#010101; fill:none;"/>
	<path d="M 2532.0,100.0 L 2530.0,102.0" style="stroke:#010101; fill:none;"/>
	<path d="M 2534.0,102.0 L 2532.0,104.0" style="stroke:#010101; fill:none;"/>
	<path d="M 2539.0,109.0 L 2571.0,142.0" style="stroke:#010101; fill:none;"/>
	<path d="M 228.0,320.0 C 287.691,260.309 348.17,202.096 421.0,158.4 C 454.281,138.432 492.303,118.0 532.0,118.0" style="stroke:#010101; fill:none;"/>
	<path d="M 2415.0,133.0 C 2427.78,143.148 2438.05,155.782 2450.0,166.911 C 2467.44,183.156 2485.55,198.661 2503.0,214.911 C 2520.08,230.819 2543.81,249.586 2554.0,271.0" style="stroke:#010101; fill:none;"/>
	<path d="M 2585.0,148.0 C 2600.06,172.496 2619.1,195.237 2636.65,218.0 C 2640.63,223.162 2655.78,236.065 2653.0,242.0 L 2652.0,237.0" style="stroke:#010101; fill:none;"/>
	<path d="M 2596.0,153.0 L 2718.0,294.0" style="stroke:#010101; fill:none;"/>
	<path d="M 304.0,335.0 C 325.338,318.61 344.289,297.451 364.0,279.089 C 388.566,256.205 414.183,234.377 440.0,212.919 C 458.508,197.536 477.629,177.652 500.0,168.0" style="stroke:#010101; fill:none;"/>
	<path d="M 2439.0,176.0 C 2464.6,209.966 2493.12,241.897 2522.09,273.0 C 2541.21,293.525 2562.1,313.575 2579.0,336.0" style="stroke:#010101; fill:none;"/>
	<path d="M 2376.0,194.0 L 2382.0,201.0" style="stroke:#010101; fill:none;"/>
	<path d="M 2384.0,203.0 C 2432.29,262.306 2488.27,315.025 2539.17,372.0 C 2551.95,386.311 2564.59,400.62 2576.1,416.0 C 2580.52,421.9 2587.45,429.275 2587.0,437.0 L 2584.0,436.0" style="stroke:#010101; fill:none;"/>
	<path d="M 2433.0,204.0 L 2537.01,317.0 L 2562.99,342.999 L 2571.0,353.0" style="stroke:#010101; fill:none;"/>
	<path d="M 300.0,361.0 C 334.722,318.357 374.914,278.523 416.0,242.05 C 428.789,230.698 447.839,207.943 466.0,207.0" style="stroke:#010101; fill:none;"/>
	<path d="M 2409.0,210.0 C 2449.44,251.292 2490.37,293.123 2529.17,336.0 C 2543.08,351.369 2565.21,368.125 2574.0,387.0 C 2562.32,379.676 2550.19,367.035 2542.0,356.0" style="stroke:#010101; fill:none;"/>
	<path d="M 2379.0,211.0 C 2393.76,236.909 2414.52,259.531 2433.87,282.0 C 2465.19,318.381 2497.9,353.523 2529.13,390.0 C 2547.93,411.955 2570.17,434.868 2583.0,461.0" style="stroke:#010101; fill:none;"/>
	<path d="M 2355.0,219.0 L 2356.0,221.0" style="stroke:#010101; fill:none;"/>
	<path d="M 2358.0,223.0 C 2411.34,289.179 2472.57,348.071 2527.42,413.0 C 2550.26,440.025 2575.77,467.933 2593.0,499.0" style="stroke:#010101; fill:none;"/>
	<path d="M 312.0,381.0 C 343.742,341.89 379.68,306.538 417.0,272.83 C 435.375,256.234 454.774,234.72 478.0,225.0" style="stroke:#010101; fill:none;"/>
	<path d="M 303.0,446.0 C 348.172,387.392 399.123,334.463 454.0,284.83 C 475.534,265.354 498.775,239.394 526.0,228.0" style="stroke:#010101; fill:none;"/>
	<path d="M 2655.0,240.0 L 2655.0,245.0 L 2658.0,242.0" style="stroke:#010101; fill:none;"/>
	<path d="M 2654.0,241.0 L 2656.0,243.0" style="stroke:#010101; fill:none;"/>
	<path d="M 2658.0,244.0 C 2674.67,254.565 2687.05,275.014 2701.0,289.0" style="stroke:#010101; fill:none;"/>
	<path d="M 2657.0,245.0 L 2659.0,247.0" style="stroke:#010101; fill:none;"/>
	<path d="M 2658.0,248.0 C 2673.04,274.154 2695.77,302.588 2717.0,324.0" style="stroke:#010101; fill:none;"/>
	<path d="M 498.0,283.0 C 470.621,296.388 446.113,319.321 424.0,339.911 C 382.676,378.389 339.689,420.077 312.0,470.0" style="stroke:#010101; fill:none;"/>
	<path d="M 2542.0,300.0 L 2545.0,302.0" style="stroke:#010101; fill:none;"/>
	<path d="M 2547.0,305.0 L 2552.0,309.0" style="stroke:#010101; fill:none;"/>
	<path d="M 2553.0,311.0 L 2564.0,321.0" style="stroke:#010101; fill:none;"/>
	<path d="M 529.0,315.0 C 479.057,351.989 430.58,389.648 385.0,432.089 C 360.76,454.66 338.907,482.583 313.0,503.0" style="stroke:#010101; fill:none;"/>
	<path d="M 2565.0,323.0 L 2569.0,326.0" style="stroke:#010101; fill:none;"/>
	<path d="M 2569.0,326.0 L 2571.0,328.0" style="stroke:#010101; fill:none;"/>
	<path d="M 2571.0,326.0 L 2572.0,330.0" style="stroke:#010101; fill:none;"/>
	<path d="M 510.0,334.0 L 484.0,359.0" style="stroke:#010101; fill:none;"/>
	<path d="M 2537.0,351.0 L 2538.0,353.0" style="stroke:#010101; fill:none;"/>
	<path d="M 2573.0,354.0 L 2586.0,367.0" style="stroke:#010101; fill:none;"/>
	<path d="M 345.0,501.0 C 380.504,465.499 416.559,430.267 454.0,396.834 C 468.515,383.873 485.835,363.521 505.0,358.0" style="stroke:#010101; fill:none;"/>
	<path d="M 2418.0,360.0 C 2422.22,358.486 2425.45,363.637 2428.12,366.576 C 2435.89,375.157 2443.31,383.953 2450.55,393.0 C 2480.37,430.274 2514.53,472.628 2533.0,517.0" style="stroke:#010101; fill:none;"/>
	<path d="M 2431.0,373.0 C 2440.04,396.3 2455.38,416.491 2469.34,437.0 C 2474.43,444.474 2484.64,454.22 2486.75,463.0 C 2488.23,469.136 2485.52,477.694 2485.09,484.0 C 2483.78,502.985 2481.87,521.985 2481.04,541.0 C 2478.8,592.087 2481.17,644.987 2492.01,695.0 C 2498.35,724.214 2510.84,751.486 2519.43,780.0 C 2536.76,837.525 2549.44,896.274 2561.38,955.0 C 2564.72,971.469 2570.45,987.203 2572.72,1004.0 C 2578.71,1048.47 2578.0,1095.15 2578.0,1140.0 C 2578.0,1161.97 2574.9,1187.57 2580.0,1209.0" style="stroke:#010101; fill:none;"/>
	<path d="M 2574.0,387.0 L 2576.0,389.0" style="stroke:#010101; fill:none;"/>
	<path d="M 486.0,394.0 C 466.594,405.447 449.868,420.995 433.0,435.845 C 407.699,458.118 382.837,481.163 359.0,505.0" style="stroke:#010101; fill:none;"/>
	<path d="M 343.0,572.0 C 384.045,527.304 421.996,481.036 466.0,438.961 C 482.748,422.947 505.822,397.624 530.0,394.0" style="stroke:#010101; fill:none;"/>
	<path d="M 2489.0,442.0 L 2494.0,397.0 L 2497.0,403.0" style="stroke:#010101; fill:none;"/>
	<path d="M 2427.0,412.0 C 2442.05,430.974 2452.66,453.255 2466.71,473.0 C 2471.19,479.298 2476.35,491.647 2484.0,494.0" style="stroke:#010101; fill:none;"/>
	<path d="M 381.0,558.0 C 411.151,523.461 442.958,490.577 477.0,459.83 C 492.674,445.673 509.728,427.116 529.0,418.0" style="stroke:#010101; fill:none;"/>
	<path d="M 533.0,430.0 L 393.0,551.0" style="stroke:#010101; fill:none;"/>
	<path d="M 2580.0,433.0 L 2582.0,434.0" style="stroke:#010101; fill:none;"/>
	<path d="M 2482.0,519.0 L 2449.8,467.0 L 2438.0,443.0 L 2448.0,455.0" style="stroke:#010101; fill:none;"/>
	<path d="M 2488.0,447.0 L 2487.0,459.0" style="stroke:#010101; fill:none;"/>
	<path d="M 437.0,527.0 C 471.905,505.262 500.424,473.471 537.0,454.0" style="stroke:#010101; fill:none;"/>
	<path d="M 2450.0,457.0 L 2451.0,458.0" style="stroke:#010101; fill:none;"/>
	<path d="M 2453.0,461.0 C 2460.77,471.821 2470.99,493.132 2483.0,499.0" style="stroke:#010101; fill:none;"/>
	<path d="M 2489.0,466.0 C 2496.23,475.409 2511.8,495.647 2510.0,508.0 L 2504.0,503.0" style="stroke:#010101; fill:none;"/>
	<path d="M 526.0,489.0 L 524.0,490.0" style="stroke:#010101; fill:none;"/>
	<path d="M 489.0,505.0 L 472.0,525.0 L 523.0,491.0" style="stroke:#010101; fill:none;"/>
	<path d="M 524.0,493.0 L 488.0,529.0 L 491.0,528.0" style="stroke:#010101; fill:none;"/>
	<path d="M 2594.0,501.0 L 2595.0,504.0" style="stroke:#010101; fill:none;"/>
	<path d="M 2486.0,502.0 L 2493.0,513.0" style="stroke:#010101; fill:none;"/>
	<path d="M 446.0,586.0 L 503.004,530.834 L 533.0,506.0" style="stroke:#010101; fill:none;"/>
	<path d="M 2484.0,507.0 L 2491.0,513.0" style="stroke:#010101; fill:none;"/>
	<path d="M 401.0,682.0 C 439.431,642.759 475.113,600.887 514.0,562.0 C 531.148,544.852 550.212,521.49 573.0,512.0" style="stroke:#010101; fill:none;"/>
	<path d="M 492.0,525.0 L 515.0,513.0" style="stroke:#010101; fill:none;"/>
	<path d="M 2493.0,513.0 L 2505.0,531.0" style="stroke:#010101; fill:none;"/>
	<path d="M 2492.0,515.0 L 2494.0,517.0" style="stroke:#010101; fill:none;"/>
	<path d="M 2494.0,518.0 L 2496.0,520.0" style="stroke:#010101; fill:none;"/>
	<path d="M 2496.0,521.0 L 2497.0,522.0" style="stroke:#010101; fill:none;"/>
	<path d="M 493.0,526.0 L 491.0,528.0" style="stroke:#010101; fill:none;"/>
	<path d="M 530.0,526.0 L 410.0,640.0" style="stroke:#010101; fill:none;"/>
	<path d="M 2483.0,526.0 L 2496.0,543.0" style="stroke:#010101; fill:none;"/>
	<path d="M 488.0,530.0 L 474.0,542.0" style="stroke:#010101; fill:none;"/>
	<path d="M 410.0,686.0 C 443.527,652.473 476.017,617.93 509.715,584.576 C 524.982,569.465 540.827,548.443 561.0,540.0" style="stroke:#010101; fill:none;"/>
	<path d="M 2788.0,542.0 L 2789.0,554.0" style="stroke:#010101; fill:none;"/>
	<path d="M 2497.0,545.0 L 2502.0,554.0" style="stroke:#010101; fill:none;"/>
	<path d="M 2787.0,548.0 L 2788.0,555.0" style="stroke:#010101; fill:none;"/>
	<path d="M 546.0,576.0 L 527.0,587.0 C 532.547,573.898 550.461,557.128 562.0,549.0" style="stroke:#010101; fill:none;"/>
	<path d="M 2784.0,553.0 L 2784.0,554.0" style="stroke:#010101; fill:none;"/>
	<path d="M 411.0,728.0 C 443.928,693.594 474.016,656.453 506.961,622.0 C 520.996,607.322 536.319,587.886 555.0,579.0" style="stroke:#010101; fill:none;"/>
	<path d="M 406.0,703.0 C 428.874,680.126 451.117,656.286 475.09,634.561 C 481.195,629.028 491.237,614.385 500.0,615.0 C 506.303,605.083 516.397,594.765 526.0,588.0" style="stroke:#010101; fill:none;"/>
	<path d="M 389.0,809.0 C 399.528,784.567 416.396,761.215 430.922,739.0 C 453.425,704.584 475.445,669.056 502.544,638.0 C 514.195,624.647 527.1,596.657 546.0,593.0" style="stroke:#010101; fill:none;"/>
	<path d="M 498.0,613.0 L 502.0,611.0" style="stroke:#010101; fill:none;"/>
	<path d="M 498.0,615.0 C 490.79,630.46 471.934,645.777 460.015,658.0 C 437.824,680.757 417.71,706.877 393.0,727.0" style="stroke:#010101; fill:none;"/>
	<path d="M 516.0,628.0 C 513.393,631.668 510.001,639.484 505.0,639.0" style="stroke:#010101; fill:none;"/>
	<path d="M 507.0,640.0 L 513.0,640.0" style="stroke:#010101; fill:none;"/>
	<path d="M 504.0,642.0 L 499.0,679.0 L 513.0,666.0" style="stroke:#010101; fill:none;"/>
	<path d="M 402.0,826.0 C 425.892,784.018 445.302,739.582 470.2,698.0 C 479.225,682.927 487.759,662.762 501.0,651.0" style="stroke:#010101; fill:none;"/>
	<path d="M 498.0,680.0 L 491.131,727.0 L 469.0,869.0" style="stroke:#010101; fill:none;"/>
	<path d="M 388.0,882.0 C 407.004,833.086 437.204,787.016 462.231,741.0 C 469.048,728.465 476.601,716.164 484.061,704.0 C 487.328,698.674 490.286,691.919 496.0,689.0" style="stroke:#010101; fill:none;"/>
	<path d="M 2455.0,752.0 L 2454.0,756.0" style="stroke:#010101; fill:none;"/>
	<path d="M 2749.0,752.0 L 2752.0,774.0" style="stroke:#010101; fill:none;"/>
	<path d="M 484.0,754.0 L 454.551,800.0 L 405.0,886.0" style="stroke:#010101; fill:none;"/>
	<path d="M 2717.0,782.0 C 2725.05,780.687 2727.03,788.612 2728.86,795.0 C 2732.95,809.237 2734.64,826.055 2742.0,839.0 C 2755.75,828.616 2745.6,802.865 2753.0,789.0" style="stroke:#010101; fill:none;"/>
	<path d="M 474.0,793.0 L 433.753,865.0 L 414.0,910.0" style="stroke:#010101; fill:none;"/>
	<path d="M 2699.0,804.0 C 2701.4,834.204 2711.72,870.825 2727.0,897.0 C 2732.01,887.618 2726.22,873.726 2724.0,864.0" style="stroke:#010101; fill:none;"/>
	<path d="M 2680.0,820.0 C 2682.52,826.718 2682.36,834.061 2684.16,841.0 C 2689.48,861.562 2695.28,881.845 2702.0,902.0 C 2705.59,912.782 2708.3,925.365 2716.0,934.0" style="stroke:#010101; fill:none;"/>
	<path d="M 178.0,830.0 C 174.886,841.354 185.452,859.106 190.637,869.0 C 202.374,891.394 219.99,914.634 242.0,927.742 C 248.523,931.627 256.537,934.856 264.0,936.326 C 267.239,936.965 270.986,935.645 274.0,937.001 C 280.748,940.037 286.473,947.775 292.0,952.576 C 303.742,962.774 316.874,982.04 332.0,986.511 C 336.619,987.876 342.722,991.926 347.0,989.0" style="stroke:#010101; fill:none;"/>
	<path d="M 2660.0,836.0 C 2660.0,875.164 2671.69,913.08 2684.0,950.0 C 2689.64,966.928 2694.36,985.852 2704.0,1001.0" style="stroke:#010101; fill:none;"/>
	<path d="M 2747.0,838.0 L 2746.0,846.0" style="stroke:#010101; fill:none;"/>
	<path d="M 2628.0,840.0 C 2623.26,885.103 2646.7,933.922 2656.39,978.0 C 2658.74,988.691 2661.55,999.354 2664.14,1010.0 C 2664.97,1013.4 2664.64,1020.42 2669.0,1019.0" style="stroke:#010101; fill:none;"/>
	<path d="M 463.0,843.0 L 434.0,901.0" style="stroke:#010101; fill:none;"/>
	<path d="M 2643.0,859.0 C 2643.13,875.126 2649.28,892.535 2653.58,908.0 C 2659.29,928.58 2664.27,949.38 2669.85,970.0 C 2677.03,996.562 2683.14,1023.39 2690.12,1050.0 C 2693.04,1061.15 2694.44,1073.4 2699.0,1084.0" style="stroke:#010101; fill:none;"/>
	<path d="M 2774.0,863.0 C 2777.06,874.221 2781.99,885.108 2781.0,897.0" style="stroke:#010101; fill:none;"/>
	<path d="M 184.0,893.0 L 193.0,884.0" style="stroke:#010101; fill:none;"/>
	<path d="M 244.0,884.0 C 248.818,904.828 263.617,916.698 272.0,935.0" style="stroke:#010101; fill:none;"/>
	<path d="M 436.0,1227.0 C 436.0,1152.4 443.898,1079.13 451.834,1005.0 C 453.867,986.016 455.651,966.744 459.4,948.0 C 460.839,940.802 461.643,931.363 467.0,926.0" style="stroke:#010101; fill:none;"/>
	<path d="M 346.0,991.0 L 353.4,1040.0 L 357.263,1064.0 L 348.0,1079.0" style="stroke:#010101; fill:none;"/>
	<path d="M 348.0,993.0 L 353.0,994.0" style="stroke:#010101; fill:none;"/>
	<path d="M 2667.0,1021.0 L 2688.0,1120.0" style="stroke:#010101; fill:none;"/>
	<path d="M 2667.0,1034.0 L 2665.0,1167.0" style="stroke:#010101; fill:none;"/>
	<path d="M 349.0,1043.0 L 343.0,1053.0" style="stroke:#010101; fill:none;"/>
	<path d="M 347.0,1060.0 L 345.0,1066.0" style="stroke:#010101; fill:none;"/>
	<path d="M 359.0,1067.0 L 364.0,1089.0 C 358.575,1090.69 355.856,1096.93 354.0,1102.0" style="stroke:#010101; fill:none;"/>
	<path d="M 361.0,1077.0 L 351.0,1090.0" style="stroke:#010101; fill:none;"/>
	<path d="M 365.0,1090.0 C 367.268,1103.39 366.892,1106.76 358.0,1118.0" style="stroke:#010101; fill:none;"/>
	<path d="M 2640.0,1095.0 C 2619.17,1142.0 2599.0,1197.12 2599.0,1249.0" style="stroke:#010101; fill:none;"/>
	<path d="M 368.0,1105.0 L 382.738,1146.58 L 412.0,1215.0" style="stroke:#010101; fill:none;"/>
	<path d="M 371.0,1136.0 L 366.0,1141.0" style="stroke:#010101; fill:none;"/>
	<path d="M 382.0,1147.0 L 371.0,1160.0" style="stroke:#010101; fill:none;"/>
	<path d="M 2665.0,1188.0 L 2657.33,1202.0 L 2634.86,1233.0 L 2628.0,1247.0" style="stroke:#010101; fill:none;"/>
	<path d="M 2635.0,1191.0 L 2618.99,1232.0 L 2613.0,1249.0 L 2631.0,1228.0" style="stroke:#010101; fill:none;"/>
	<path d="M 2585.0,1203.0 L 2583.0,1275.0" style="stroke:#010101; fill:none;"/>
	<path d="M 429.0,1224.0 L 429.0,1229.0" style="stroke:#010101; fill:none;"/>
	<path d="M 2631.0,1244.0 L 2649.0,1231.0 C 2653.68,1247.0 2634.33,1265.63 2628.0,1279.0" style="stroke:#010101; fill:none;"/>
	<path d="M 2629.0,1243.0 L 2627.0,1245.0" style="stroke:#010101; fill:none;"/>
	<path d="M 2611.0,1249.0 L 2614.0,1249.0" style="stroke:#010101; fill:none;"/>
	<path d="M 2610.0,1252.0 L 2610.0,1253.0" style="stroke:#010101; fill:none;"/>
	<path d="M 2579.0,1310.0 C 2576.27,1305.94 2569.37,1297.77 2575.0,1294.0" style="stroke:#010101; fill:none;"/>
</svg>
