<?xml version="1.0" ?>
<svg baseProfile="full" height="1406" version="1.1" width="1150" xmlns="http://www.w3.org/2000/svg" xmlns:ev="http://www.w3.org/2001/xml-events" xmlns:xlink="http://www.w3.org/1999/xlink">
	<defs/>
	<path d="M 405.0,58.0 C 397.066,48.3102 388.715,41.959 375.0,39.4645 C 369.809,38.5204 356.48,40.3411 352.647,36.9723 C 348.731,33.5295 357.764,25.4813 360.039,23.4252 C 371.807,12.7893 383.462,6.01331 399.0,3.0" style="stroke:#010101; fill:none;"/>
	<path d="M 445.0,3.0 C 456.767,6.04419 461.223,9.63818 469.0,19.0 L 484.0,5.0" style="stroke:#010101; fill:none;"/>
	<path d="M 503.0,4.0 L 505.0,23.0 C 511.493,19.5051 510.0,11.41 510.0,5.0" style="stroke:#010101; fill:none;"/>
	<path d="M 522.0,4.0 L 518.0,21.0" style="stroke:#010101; fill:none;"/>
	<path d="M 495.0,5.0 C 495.0,24.1344 487.602,35.9863 467.0,36.0" style="stroke:#010101; fill:none;"/>
	<path d="M 550.0,5.0 C 549.962,9.6145 544.755,23.933 548.607,26.9684 C 552.33,29.9021 562.069,26.4231 566.17,25.4553 C 578.718,22.494 593.185,23.8516 606.0,24.0039 C 641.393,24.4248 680.489,35.5834 712.0,51.2477 C 753.576,71.915 785.264,106.186 813.801,142.0 C 846.905,183.547 876.46,227.288 903.548,273.0 C 912.291,287.754 919.56,303.427 926.691,319.0 C 930.086,326.413 932.695,336.481 937.966,342.762 C 940.966,346.337 948.761,346.551 953.0,348.864 C 966.111,356.017 979.121,362.844 991.0,372.0 C 1008.42,357.689 1039.26,361.564 1059.0,369.0" style="stroke:#010101; fill:none;"/>
	<path d="M 380.0,28.0 C 389.509,8.66895 423.025,17.7192 438.0,22.0" style="stroke:#010101; fill:none;"/>
	<path d="M 468.0,20.0 L 453.0,37.0 C 437.235,18.0963 398.643,23.2982 380.0,36.0" style="stroke:#010101; fill:none;"/>
	<path d="M 504.0,24.0 L 500.0,31.0" style="stroke:#010101; fill:none;"/>
	<path d="M 547.0,27.0 L 513.0,34.375 L 470.0,48.0" style="stroke:#010101; fill:none;"/>
	<path d="M 564.0,27.0 C 571.154,32.1461 590.473,32.0068 599.0,30.0" style="stroke:#010101; fill:none;"/>
	<path d="M 159.0,174.0 L 157.0,174.0 C 163.89,164.247 175.364,156.497 185.0,149.579 C 202.381,137.103 220.613,123.957 240.0,114.781 C 248.976,110.532 264.002,109.04 271.528,103.012 C 274.117,100.939 275.023,95.8186 276.89,93.0 C 280.691,87.2637 285.562,82.0924 290.17,77.0 C 307.89,57.4153 325.806,46.8336 350.0,38.0" style="stroke:#010101; fill:none;"/>
	<path d="M 453.0,38.0 L 440.0,53.0" style="stroke:#010101; fill:none;"/>
	<path d="M 532.0,50.0 C 547.478,43.1392 576.398,36.0942 593.0,41.0" style="stroke:#010101; fill:none;"/>
	<path d="M 539.0,56.0 C 558.476,48.5341 581.266,45.5709 602.0,43.9498 C 609.833,43.3374 619.291,41.2795 627.0,43.0 L 618.0,45.0" style="stroke:#010101; fill:none;"/>
	<path d="M 627.0,43.0 C 642.782,43.0 661.058,43.4023 676.0,49.0 L 659.0,49.4282 L 626.0,45.0" style="stroke:#010101; fill:none;"/>
	<path d="M 608.0,45.0 L 611.0,44.0" style="stroke:#010101; fill:none;"/>
	<path d="M 567.0,49.0 L 569.0,49.0" style="stroke:#010101; fill:none;"/>
	<path d="M 398.0,49.0 L 402.0,51.0 L 402.0,51.0" style="stroke:#010101; fill:none;"/>
	<path d="M 676.0,49.0 L 689.0,53.0 L 684.0,51.0" style="stroke:#010101; fill:none;"/>
	<path d="M 610.0,52.0 L 647.0,50.0" style="stroke:#010101; fill:none;"/>
	<path d="M 388.0,51.0 C 396.834,61.2606 402.916,70.8215 396.0,84.0" style="stroke:#010101; fill:none;"/>
	<path d="M 356.0,52.0 C 364.575,53.1559 370.191,58.4347 378.0,60.8063 C 386.928,63.5177 391.379,58.5063 394.0,71.0" style="stroke:#010101; fill:none;"/>
	<path d="M 560.0,57.0 L 567.0,51.0" style="stroke:#010101; fill:none;"/>
	<path d="M 676.0,52.0 L 681.0,52.0" style="stroke:#010101; fill:none;"/>
	<path d="M 404.0,53.0 C 412.323,55.1642 417.44,62.9633 423.0,69.0" style="stroke:#010101; fill:none;"/>
	<path d="M 485.0,55.0 C 525.154,47.5453 571.914,70.6599 609.0,83.6566 C 619.13,87.2064 629.036,91.4113 639.0,95.3997 C 642.245,96.6985 647.534,100.267 650.0,97.0" style="stroke:#010101; fill:none;"/>
	<path d="M 689.0,53.0 L 694.0,55.0 L 688.0,54.0" style="stroke:#010101; fill:none;"/>
	<path d="M 400.0,54.0 L 402.0,54.0" style="stroke:#010101; fill:none;"/>
	<path d="M 402.0,57.0 L 403.0,58.0" style="stroke:#010101; fill:none;"/>
	<path d="M 406.0,58.0 L 404.0,60.0" style="stroke:#010101; fill:none;"/>
	<path d="M 581.0,62.0 C 603.895,62.0 625.853,57.9663 649.0,65.0 L 618.0,65.0 C 629.355,71.1554 644.502,72.2772 657.0,75.2361 C 686.121,82.1307 720.895,89.7003 746.0,107.0 C 739.164,109.025 730.336,103.081 724.0,100.424 C 706.717,93.1777 687.488,88.8937 671.0,80.0" style="stroke:#010101; fill:none;"/>
	<path d="M 333.0,75.0 C 343.281,63.3322 360.295,61.3032 375.0,61.0" style="stroke:#010101; fill:none;"/>
	<path d="M 408.0,61.0 L 408.0,63.0" style="stroke:#010101; fill:none;"/>
	<path d="M 461.0,61.0 C 489.55,72.077 518.559,84.6262 546.0,98.2477 C 554.756,102.594 572.569,115.553 582.0,114.0 L 570.0,98.0" style="stroke:#010101; fill:none;"/>
	<path d="M 601.0,61.0 L 618.0,65.0" style="stroke:#010101; fill:none;"/>
	<path d="M 405.0,62.0 L 406.0,63.0" style="stroke:#010101; fill:none;"/>
	<path d="M 409.0,63.0 L 407.0,65.0" style="stroke:#010101; fill:none;"/>
	<path d="M 600.0,63.0 L 601.0,63.0" style="stroke:#010101; fill:none;"/>
	<path d="M 649.0,65.0 L 657.0,66.0 L 649.0,67.0" style="stroke:#010101; fill:none;"/>
	<path d="M 411.0,67.0 L 408.0,67.0" style="stroke:#010101; fill:none;"/>
	<path d="M 657.0,66.0 C 677.259,66.4178 704.012,69.8866 723.0,77.0" style="stroke:#010101; fill:none;"/>
	<path d="M 460.0,67.0 C 566.675,125.566 659.445,213.699 729.279,313.0 C 763.826,362.124 789.653,415.495 820.0,467.0" style="stroke:#010101; fill:none;"/>
	<path d="M 409.0,68.0 L 413.0,85.0" style="stroke:#010101; fill:none;"/>
	<path d="M 412.0,68.0 L 415.0,77.0" style="stroke:#010101; fill:none;"/>
	<path d="M 657.0,68.0 C 682.375,71.8673 711.116,76.8131 734.0,89.0 C 727.831,91.3682 720.058,86.6444 714.0,84.6698 C 700.403,80.238 686.215,75.8356 672.0,74.0" style="stroke:#010101; fill:none;"/>
	<path d="M 669.0,78.0 L 670.0,78.0" style="stroke:#010101; fill:none;"/>
	<path d="M 286.0,95.0 C 295.442,76.9521 324.189,76.6835 341.0,82.0" style="stroke:#010101; fill:none;"/>
	<path d="M 438.0,79.0 C 461.504,101.885 494.492,113.827 520.0,133.667 C 525.995,138.33 533.82,147.181 540.667,150.0 C 542.151,150.611 538.819,145.785 540.0,148.0" style="stroke:#010101; fill:none;"/>
	<path d="M 681.0,82.0 L 681.0,84.0" style="stroke:#010101; fill:none;"/>
	<path d="M 684.0,83.0 L 682.0,85.0" style="stroke:#010101; fill:none;"/>
	<path d="M 687.0,84.0 L 685.0,86.0" style="stroke:#010101; fill:none;"/>
	<path d="M 691.0,84.0 L 688.0,87.0" style="stroke:#010101; fill:none;"/>
	<path d="M 694.0,85.0 L 691.0,88.0" style="stroke:#010101; fill:none;"/>
	<path d="M 343.0,86.0 C 367.608,111.127 382.667,144.322 404.0,172.0" style="stroke:#010101; fill:none;"/>
	<path d="M 697.0,86.0 L 694.0,89.0" style="stroke:#010101; fill:none;"/>
	<path d="M 352.0,87.0 L 432.0,203.0" style="stroke:#010101; fill:none;"/>
	<path d="M 321.0,98.0 C 298.308,98.0 322.918,88.7534 333.0,88.3334 C 337.6,88.1417 340.788,93.4031 344.667,95.0 C 346.151,95.6112 342.819,90.785 344.0,93.0" style="stroke:#010101; fill:none;"/>
	<path d="M 734.0,89.0 L 739.0,91.0 L 733.0,91.0" style="stroke:#010101; fill:none;"/>
	<path d="M 740.0,91.0 L 738.0,93.0" style="stroke:#010101; fill:none;"/>
	<path d="M 742.0,92.0 L 746.0,94.0 L 740.0,94.0" style="stroke:#010101; fill:none;"/>
	<path d="M 743.0,93.0 L 743.0,95.0" style="stroke:#010101; fill:none;"/>
	<path d="M 309.0,94.0 C 300.909,100.459 284.245,101.789 274.0,102.0" style="stroke:#010101; fill:none;"/>
	<path d="M 747.0,94.0 L 745.0,96.0" style="stroke:#010101; fill:none;"/>
	<path d="M 749.0,95.0 L 747.0,97.0" style="stroke:#010101; fill:none;"/>
	<path d="M 345.0,96.0 C 350.378,111.742 362.492,125.589 371.965,139.0 C 375.565,144.097 383.047,150.681 380.0,157.0 L 381.0,152.0" style="stroke:#010101; fill:none;"/>
	<path d="M 751.0,96.0 L 749.0,98.0" style="stroke:#010101; fill:none;"/>
	<path d="M 752.0,97.0 L 756.0,99.0 L 751.0,99.0" style="stroke:#010101; fill:none;"/>
	<path d="M 308.0,98.0 L 309.0,98.0" style="stroke:#010101; fill:none;"/>
	<path d="M 673.0,112.0 L 678.0,114.0 L 679.0,113.0 L 652.0,100.0 L 650.0,100.0 L 650.0,100.0" style="stroke:#010101; fill:none;"/>
	<path d="M 757.0,99.0 L 755.0,101.0" style="stroke:#010101; fill:none;"/>
	<path d="M 654.0,100.0 L 653.0,102.0" style="stroke:#010101; fill:none;"/>
	<path d="M 759.0,100.0 L 766.0,104.0 L 757.0,102.0" style="stroke:#010101; fill:none;"/>
	<path d="M 760.0,101.0 L 760.0,103.0" style="stroke:#010101; fill:none;"/>
	<path d="M 374.0,104.0 L 403.0,145.0" style="stroke:#010101; fill:none;"/>
	<path d="M 747.0,107.0 L 745.0,109.0" style="stroke:#010101; fill:none;"/>
	<path d="M 766.0,107.0 L 789.0,120.0" style="stroke:#010101; fill:none;"/>
	<path d="M 749.0,108.0 L 747.0,110.0" style="stroke:#010101; fill:none;"/>
	<path d="M 751.0,109.0 L 749.0,111.0" style="stroke:#010101; fill:none;"/>
	<path d="M 753.0,110.0 L 751.0,112.0" style="stroke:#010101; fill:none;"/>
	<path d="M 261.0,146.0 L 248.0,156.0 C 248.405,150.642 252.03,146.338 255.025,142.0 C 262.563,131.083 273.292,114.25 287.0,111.0" style="stroke:#010101; fill:none;"/>
	<path d="M 595.0,111.0 C 624.514,140.534 653.483,171.204 680.573,203.0 C 695.442,220.453 708.628,240.467 724.615,256.832 C 743.301,275.96 759.043,297.524 774.164,320.0 C 780.752,329.794 789.885,341.138 792.0,353.0" style="stroke:#010101; fill:none;"/>
	<path d="M 675.0,111.0 L 675.0,113.0" style="stroke:#010101; fill:none;"/>
	<path d="M 755.0,111.0 L 757.0,115.0 L 764.0,116.0" style="stroke:#010101; fill:none;"/>
	<path d="M 757.0,112.0 L 758.0,113.0" style="stroke:#010101; fill:none;"/>
	<path d="M 589.0,113.0 C 608.238,136.624 631.854,156.841 648.0,183.0" style="stroke:#010101; fill:none;"/>
	<path d="M 679.0,113.0 C 691.657,116.646 704.229,123.867 716.0,129.753 C 750.1,146.805 787.481,170.393 813.0,199.0 C 800.482,195.858 788.204,181.023 778.0,173.234 C 760.132,159.596 740.095,151.058 722.0,138.0" style="stroke:#010101; fill:none;"/>
	<path d="M 754.0,113.0 L 755.0,113.0" style="stroke:#010101; fill:none;"/>
	<path d="M 583.0,114.0 L 657.0,203.0" style="stroke:#010101; fill:none;"/>
	<path d="M 760.0,114.0 L 758.0,115.0" style="stroke:#010101; fill:none;"/>
	<path d="M 605.0,115.0 C 640.557,129.587 675.272,154.508 701.822,182.093 C 704.626,185.007 705.474,189.212 708.0,192.0" style="stroke:#010101; fill:none;"/>
	<path d="M 678.0,115.0 C 700.252,128.669 719.679,144.348 739.0,161.83 C 747.927,169.907 760.866,179.992 766.0,191.0 L 752.0,180.0 L 751.0,182.0" style="stroke:#010101; fill:none;"/>
	<path d="M 499.0,117.0 L 496.0,118.0" style="stroke:#010101; fill:none;"/>
	<path d="M 715.0,118.0 C 751.345,134.44 789.486,156.055 820.0,182.0 L 813.0,178.0" style="stroke:#010101; fill:none;"/>
	<path d="M 766.0,118.0 L 784.0,131.0" style="stroke:#010101; fill:none;"/>
	<path d="M 502.0,119.0 L 499.0,119.0" style="stroke:#010101; fill:none;"/>
	<path d="M 295.0,120.0 C 280.157,141.785 290.223,180.696 292.834,205.0 C 293.636,212.459 293.018,227.077 297.0,233.0 L 297.0,229.0" style="stroke:#010101; fill:none;"/>
	<path d="M 412.0,122.0 L 457.728,180.0 L 578.0,314.0 C 579.007,308.873 574.788,304.953 571.765,301.0 C 564.679,291.731 557.842,282.272 550.765,273.0 C 522.716,236.249 494.562,199.2 470.0,160.0" style="stroke:#010101; fill:none;"/>
	<path d="M 502.0,122.0 L 504.0,123.0" style="stroke:#010101; fill:none;"/>
	<path d="M 678.0,125.0 C 689.301,133.031 703.778,144.919 717.0,149.0 L 716.0,146.0" style="stroke:#010101; fill:none;"/>
	<path d="M 257.0,127.0 C 222.957,151.194 200.759,189.168 184.716,227.0 C 178.208,242.346 170.448,259.423 168.0,276.0" style="stroke:#010101; fill:none;"/>
	<path d="M 787.0,131.0 C 797.157,138.441 810.223,145.667 815.0,158.0" style="stroke:#010101; fill:none;"/>
	<path d="M 528.0,133.0 L 553.0,156.0 L 552.0,157.0 L 547.0,154.0 L 547.0,156.0 L 549.0,154.0" style="stroke:#010101; fill:none;"/>
	<path d="M 728.0,141.0 L 731.0,141.0" style="stroke:#010101; fill:none;"/>
	<path d="M 752.0,142.0 L 785.0,168.333 L 794.667,176.0 L 794.0,174.0" style="stroke:#010101; fill:none;"/>
	<path d="M 215.0,146.0 C 194.523,161.179 177.679,179.906 161.0,199.0" style="stroke:#010101; fill:none;"/>
	<path d="M 675.0,146.0 C 690.78,161.78 707.397,177.951 726.0,190.0 L 723.0,189.0" style="stroke:#010101; fill:none;"/>
	<path d="M 543.0,147.0 L 541.0,149.0" style="stroke:#010101; fill:none;"/>
	<path d="M 718.0,148.0 L 722.0,152.0 L 717.0,149.0" style="stroke:#010101; fill:none;"/>
	<path d="M 741.0,149.0 L 742.0,150.0" style="stroke:#010101; fill:none;"/>
	<path d="M 543.0,150.0 L 547.0,154.0" style="stroke:#010101; fill:none;"/>
	<path d="M 743.0,150.0 L 745.0,152.0" style="stroke:#010101; fill:none;"/>
	<path d="M 541.0,152.0 L 544.0,153.0" style="stroke:#010101; fill:none;"/>
	<path d="M 544.0,153.0 L 546.0,155.0" style="stroke:#010101; fill:none;"/>
	<path d="M 548.0,153.0 L 548.0,155.0" style="stroke:#010101; fill:none;"/>
	<path d="M 747.0,153.0 L 750.0,155.0" style="stroke:#010101; fill:none;"/>
	<path d="M 723.0,154.0 L 750.0,179.0" style="stroke:#010101; fill:none;"/>
	<path d="M 383.0,155.0 L 463.0,251.0" style="stroke:#010101; fill:none;"/>
	<path d="M 680.0,155.0 L 699.0,175.0 L 695.0,173.0" style="stroke:#010101; fill:none;"/>
	<path d="M 554.0,156.0 L 563.0,165.0 L 562.0,166.0 L 559.0,163.0" style="stroke:#010101; fill:none;"/>
	<path d="M 246.0,157.0 L 234.0,173.0 C 235.587,179.451 231.368,186.062 229.0,192.0 C 224.063,204.382 219.407,216.977 216.174,229.911 C 214.06,238.37 215.042,249.89 213.729,259.0 C 211.081,277.375 209.771,295.503 208.961,314.0 C 208.539,323.628 207.209,333.557 210.0,343.0 L 212.0,341.0 L 212.0,350.0 C 206.658,348.255 209.25,365.198 209.778,369.0 C 212.527,388.794 211.29,412.49 220.0,431.0 L 221.0,415.0 L 222.0,417.0 L 223.0,418.0 L 223.0,419.0 L 222.0,420.0" style="stroke:#010101; fill:none;"/>
	<path d="M 380.0,157.0 C 381.028,167.248 387.896,178.031 392.705,187.0 C 405.396,210.664 420.123,233.191 440.0,251.0 L 444.0,247.0 L 439.0,249.0" style="stroke:#010101; fill:none;"/>
	<path d="M 547.0,157.0 C 564.415,174.415 582.321,193.074 594.0,215.0" style="stroke:#010101; fill:none;"/>
	<path d="M 749.0,157.0 L 755.0,164.0" style="stroke:#010101; fill:none;"/>
	<path d="M 552.0,158.0 L 555.0,159.0" style="stroke:#010101; fill:none;"/>
	<path d="M 555.0,159.0 L 557.0,161.0" style="stroke:#010101; fill:none;"/>
	<path d="M 753.0,161.0 L 754.0,164.0" style="stroke:#010101; fill:none;"/>
	<path d="M 494.0,162.0 C 546.414,235.396 596.258,310.07 653.576,380.0 C 680.97,413.422 709.399,447.519 742.0,476.0" style="stroke:#010101; fill:none;"/>
	<path d="M 557.0,162.0 L 558.0,163.0" style="stroke:#010101; fill:none;"/>
	<path d="M 756.0,163.0 L 756.0,165.0" style="stroke:#010101; fill:none;"/>
	<path d="M 759.0,165.0 L 799.0,198.0 L 797.0,194.0" style="stroke:#010101; fill:none;"/>
	<path d="M 563.0,166.0 L 582.0,184.0" style="stroke:#010101; fill:none;"/>
	<path d="M 757.0,167.0 C 792.428,202.428 828.806,237.214 860.614,276.0 C 871.955,289.828 889.827,306.544 895.0,324.0" style="stroke:#010101; fill:none;"/>
	<path d="M 762.0,167.0 L 760.0,169.0" style="stroke:#010101; fill:none;"/>
	<path d="M 236.0,170.0 L 238.0,169.0" style="stroke:#010101; fill:none;"/>
	<path d="M 302.0,169.0 C 298.796,179.865 304.278,195.384 307.29,206.0 C 314.147,230.164 321.044,254.155 329.0,278.0 C 363.597,381.69 432.029,465.917 526.0,521.603 C 551.567,536.754 580.796,556.079 610.0,563.0" style="stroke:#010101; fill:none;"/>
	<path d="M 252.0,170.0 C 248.084,200.986 252.696,232.475 258.8,263.0 C 267.853,308.27 282.341,353.063 307.695,392.0 C 345.775,450.479 407.105,496.299 469.0,527.247 C 507.62,546.557 554.252,565.122 598.0,567.0" style="stroke:#010101; fill:none;"/>
	<path d="M 566.0,170.0 L 567.0,171.0" style="stroke:#010101; fill:none;"/>
	<path d="M 711.0,170.0 L 723.0,186.0" style="stroke:#010101; fill:none;"/>
	<path d="M 778.0,170.0 L 776.0,172.0" style="stroke:#010101; fill:none;"/>
	<path d="M 237.0,172.0 L 236.0,175.0" style="stroke:#010101; fill:none;"/>
	<path d="M 163.0,173.0 L 161.0,175.0" style="stroke:#010101; fill:none;"/>
	<path d="M 234.0,174.0 C 207.847,202.655 191.979,244.586 180.344,281.0 C 176.788,292.131 168.829,310.468 172.0,322.0 C 186.031,295.372 193.344,263.772 205.424,236.0 C 209.29,227.114 214.11,209.619 223.0,205.0" style="stroke:#010101; fill:none;"/>
	<path d="M 727.0,174.0 C 732.851,187.84 746.666,202.201 757.0,213.0" style="stroke:#010101; fill:none;"/>
	<path d="M 158.0,175.0 L 155.0,178.0 L 159.0,176.0" style="stroke:#010101; fill:none;"/>
	<path d="M 700.0,175.0 C 725.949,200.877 747.545,231.369 769.151,261.0 C 785.463,283.371 803.808,306.039 816.0,331.0" style="stroke:#010101; fill:none;"/>
	<path d="M 719.0,175.0 L 783.0,258.0" style="stroke:#010101; fill:none;"/>
	<path d="M 734.0,175.0 C 738.165,182.241 743.491,189.197 751.0,193.0 L 748.0,192.0" style="stroke:#010101; fill:none;"/>
	<path d="M 310.0,176.0 C 312.908,211.6 333.324,245.719 351.205,275.079 C 361.503,291.988 370.335,309.866 380.285,327.0 C 388.057,340.384 392.858,353.76 401.158,367.0 C 404.706,372.659 411.03,379.016 409.0,386.0 L 417.0,391.0" style="stroke:#010101; fill:none;"/>
	<path d="M 396.0,178.0 L 397.0,177.0" style="stroke:#010101; fill:none;"/>
	<path d="M 698.0,176.0 L 698.0,178.0" style="stroke:#010101; fill:none;"/>
	<path d="M 797.0,176.0 L 799.0,178.0 L 795.0,178.0" style="stroke:#010101; fill:none;"/>
	<path d="M 152.0,178.0 L 152.0,183.0 L 154.0,177.0" style="stroke:#010101; fill:none;"/>
	<path d="M 574.0,177.0 L 579.0,184.0" style="stroke:#010101; fill:none;"/>
	<path d="M 701.0,177.0 L 700.0,182.0" style="stroke:#010101; fill:none;"/>
	<path d="M 787.0,177.0 L 785.0,179.0" style="stroke:#010101; fill:none;"/>
	<path d="M 396.0,178.0 C 396.961,187.589 403.164,197.089 408.344,205.0 C 409.716,207.095 412.337,212.494 415.0,212.0" style="stroke:#010101; fill:none;"/>
	<path d="M 800.0,178.0 L 803.0,181.0 L 798.0,180.0" style="stroke:#010101; fill:none;"/>
	<path d="M 156.0,180.0 L 155.0,181.0" style="stroke:#010101; fill:none;"/>
	<path d="M 152.0,181.0 L 153.0,182.0" style="stroke:#010101; fill:none;"/>
	<path d="M 742.0,181.0 L 749.0,190.0" style="stroke:#010101; fill:none;"/>
	<path d="M 754.0,181.0 L 755.0,183.0" style="stroke:#010101; fill:none;"/>
	<path d="M 804.0,181.0 L 806.0,183.0 L 804.0,185.0 L 802.0,183.0" style="stroke:#010101; fill:none;"/>
	<path d="M 151.0,182.0 L 144.0,189.0 L 152.0,183.0" style="stroke:#010101; fill:none;"/>
	<path d="M 821.0,182.0 L 825.0,186.0 L 819.0,184.0" style="stroke:#010101; fill:none;"/>
	<path d="M 700.0,183.0 L 703.0,186.0" style="stroke:#010101; fill:none;"/>
	<path d="M 807.0,183.0 L 863.0,231.0" style="stroke:#010101; fill:none;"/>
	<path d="M 583.0,184.0 C 600.697,201.698 623.96,225.701 632.0,250.0 C 619.438,239.923 608.456,220.699 600.0,207.0" style="stroke:#010101; fill:none;"/>
	<path d="M 805.0,185.0 L 879.0,250.0" style="stroke:#010101; fill:none;"/>
	<path d="M 581.0,186.0 L 642.116,275.0 L 657.884,294.961 L 665.0,300.0" style="stroke:#010101; fill:none;"/>
	<path d="M 755.0,186.0 C 780.089,211.298 800.635,242.45 820.333,272.0 C 829.76,286.142 842.118,302.229 846.0,319.0" style="stroke:#010101; fill:none;"/>
	<path d="M 826.0,186.0 L 860.0,222.0" style="stroke:#010101; fill:none;"/>
	<path d="M 694.0,187.0 L 796.0,328.0" style="stroke:#010101; fill:none;"/>
	<path d="M 764.0,187.0 L 762.0,189.0" style="stroke:#010101; fill:none;"/>
	<path d="M 143.0,206.0 L 91.0,271.0 C 87.9408,263.906 95.8869,253.275 99.4244,247.0 C 110.58,227.21 124.228,201.502 143.0,188.0" style="stroke:#010101; fill:none;"/>
	<path d="M 786.0,188.0 L 788.0,188.0" style="stroke:#010101; fill:none;"/>
	<path d="M 824.0,188.0 L 840.0,203.0" style="stroke:#010101; fill:none;"/>
	<path d="M 145.0,190.0 C 141.072,199.338 129.927,208.444 130.0,219.0" style="stroke:#010101; fill:none;"/>
	<path d="M 437.0,190.0 C 464.752,237.547 498.687,281.548 533.75,324.0 C 589.989,392.09 652.966,456.966 730.0,501.576 C 757.724,517.63 787.543,526.36 817.0,538.0" style="stroke:#010101; fill:none;"/>
	<path d="M 803.0,190.0 L 801.0,192.0" style="stroke:#010101; fill:none;"/>
	<path d="M 685.0,191.0 C 708.698,220.882 732.256,251.299 754.884,282.0 C 767.591,299.24 782.71,317.094 791.0,337.0" style="stroke:#010101; fill:none;"/>
	<path d="M 726.0,191.0 L 758.151,234.0 L 809.0,307.0" style="stroke:#010101; fill:none;"/>
	<path d="M 766.0,191.0 L 778.0,206.0 L 777.0,203.0" style="stroke:#010101; fill:none;"/>
	<path d="M 791.0,191.0 L 793.0,193.0" style="stroke:#010101; fill:none;"/>
	<path d="M 607.0,192.0 C 618.163,215.604 637.063,237.16 652.626,258.0 C 682.774,298.371 713.568,337.595 743.873,378.0 C 753.982,391.477 763.592,408.493 776.289,419.651 C 781.833,424.523 793.124,428.339 789.0,438.0 C 800.176,442.202 805.655,453.42 812.0,463.0" style="stroke:#010101; fill:none;"/>
	<path d="M 708.0,192.0 C 717.535,196.54 723.771,208.932 730.199,217.0 C 748.345,239.776 764.963,263.928 781.344,288.0 C 787.34,296.811 800.482,310.907 800.0,322.0" style="stroke:#010101; fill:none;"/>
	<path d="M 679.0,193.0 L 729.0,258.0" style="stroke:#010101; fill:none;"/>
	<path d="M 406.0,194.0 L 415.0,212.0" style="stroke:#010101; fill:none;"/>
	<path d="M 707.0,194.0 L 789.0,308.0" style="stroke:#010101; fill:none;"/>
	<path d="M 793.0,194.0 L 794.0,195.0" style="stroke:#010101; fill:none;"/>
	<path d="M 750.0,195.0 L 758.0,204.0" style="stroke:#010101; fill:none;"/>
	<path d="M 801.0,197.0 L 805.0,201.0 L 799.0,199.0" style="stroke:#010101; fill:none;"/>
	<path d="M 813.0,199.0 L 820.0,205.0 L 812.0,201.0" style="stroke:#010101; fill:none;"/>
	<path d="M 777.0,201.0 L 778.0,202.0" style="stroke:#010101; fill:none;"/>
	<path d="M 806.0,201.0 L 813.0,208.0 L 804.0,203.0" style="stroke:#010101; fill:none;"/>
	<path d="M 672.0,202.0 C 748.336,290.215 816.255,386.786 874.28,488.0 C 887.626,511.28 900.763,534.68 914.0,558.0 C 916.444,562.305 927.542,577.768 925.0,582.0" style="stroke:#010101; fill:none;"/>
	<path d="M 421.0,204.0 C 414.887,218.193 443.372,231.789 440.0,246.0" style="stroke:#010101; fill:none;"/>
	<path d="M 779.0,205.0 L 786.0,213.0" style="stroke:#010101; fill:none;"/>
	<path d="M 821.0,205.0 L 837.0,221.0 L 819.0,207.0" style="stroke:#010101; fill:none;"/>
	<path d="M 778.0,207.0 L 783.0,213.0" style="stroke:#010101; fill:none;"/>
	<path d="M 814.0,208.0 L 835.0,229.0" style="stroke:#010101; fill:none;"/>
	<path d="M 587.0,210.0 C 593.342,227.428 605.934,243.959 616.576,259.0 C 634.088,283.752 651.855,308.318 670.8,332.0 C 683.354,347.693 695.376,368.362 711.0,381.0 C 712.157,375.047 705.559,369.576 702.127,365.0 C 692.647,352.362 683.071,339.835 673.86,327.0 C 670.107,321.772 662.855,314.74 665.0,308.0 L 640.576,281.0 L 599.0,220.0" style="stroke:#010101; fill:none;"/>
	<path d="M 812.0,210.0 L 829.0,227.0" style="stroke:#010101; fill:none;"/>
	<path d="M 416.0,213.0 C 421.498,220.204 436.786,237.127 436.0,246.0 L 432.0,244.0" style="stroke:#010101; fill:none;"/>
	<path d="M 786.0,213.0 C 789.843,214.872 790.889,216.756 791.0,221.0 L 795.0,220.0 L 800.0,225.0 L 801.0,230.0 L 799.0,226.0" style="stroke:#010101; fill:none;"/>
	<path d="M 415.0,214.0 L 417.0,217.0" style="stroke:#010101; fill:none;"/>
	<path d="M 785.0,214.0 L 790.0,218.0" style="stroke:#010101; fill:none;"/>
	<path d="M 128.0,219.0 L 128.0,220.0" style="stroke:#010101; fill:none;"/>
	<path d="M 418.0,219.0 L 419.0,220.0" style="stroke:#010101; fill:none;"/>
	<path d="M 791.0,219.0 L 793.0,221.0" style="stroke:#010101; fill:none;"/>
	<path d="M 419.0,221.0 L 422.0,224.0" style="stroke:#010101; fill:none;"/>
	<path d="M 837.0,222.0 L 854.0,242.0" style="stroke:#010101; fill:none;"/>
	<path d="M 179.0,223.0 C 170.846,237.702 161.505,251.396 155.012,267.0 C 134.633,315.968 127.807,368.708 122.83,421.0 C 120.489,445.605 115.911,479.017 123.0,503.0 L 126.0,493.0" style="stroke:#010101; fill:none;"/>
	<path d="M 792.0,223.0 L 795.0,226.0 L 794.0,223.0" style="stroke:#010101; fill:none;"/>
	<path d="M 294.0,225.0 L 295.0,228.0" style="stroke:#010101; fill:none;"/>
	<path d="M 422.0,225.0 L 423.0,226.0" style="stroke:#010101; fill:none;"/>
	<path d="M 796.0,225.0 L 798.0,228.0" style="stroke:#010101; fill:none;"/>
	<path d="M 795.0,226.0 L 797.0,229.0" style="stroke:#010101; fill:none;"/>
	<path d="M 808.0,226.0 L 898.0,334.0" style="stroke:#010101; fill:none;"/>
	<path d="M 423.0,227.0 L 425.0,229.0" style="stroke:#010101; fill:none;"/>
	<path d="M 126.0,258.0 C 122.62,251.015 138.686,233.325 144.0,229.0" style="stroke:#010101; fill:none;"/>
	<path d="M 219.0,229.0 L 218.0,233.0" style="stroke:#010101; fill:none;"/>
	<path d="M 425.0,229.0 L 429.0,235.0" style="stroke:#010101; fill:none;"/>
	<path d="M 802.0,229.0 C 811.305,233.967 817.354,249.18 828.0,251.0" style="stroke:#010101; fill:none;"/>
	<path d="M 798.0,230.0 C 810.023,256.975 839.436,276.886 848.0,306.0" style="stroke:#010101; fill:none;"/>
	<path d="M 607.0,232.0 L 611.0,239.0" style="stroke:#010101; fill:none;"/>
	<path d="M 296.0,233.0 L 297.0,239.0 L 297.0,233.0" style="stroke:#010101; fill:none;"/>
	<path d="M 214.0,234.0 C 212.217,237.014 212.185,238.002 214.0,241.0 L 215.0,242.0" style="stroke:#010101; fill:none;"/>
	<path d="M 331.0,235.0 L 332.0,240.0" style="stroke:#010101; fill:none;"/>
	<path d="M 214.0,236.0 L 216.0,238.0" style="stroke:#010101; fill:none;"/>
	<path d="M 429.0,236.0 L 431.0,238.0" style="stroke:#010101; fill:none;"/>
	<path d="M 215.0,237.0 L 213.0,239.0" style="stroke:#010101; fill:none;"/>
	<path d="M 298.0,238.0 L 298.0,243.0 L 297.0,239.0" style="stroke:#010101; fill:none;"/>
	<path d="M 431.0,238.0 L 433.0,241.0" style="stroke:#010101; fill:none;"/>
	<path d="M 449.0,238.0 L 450.0,240.0" style="stroke:#010101; fill:none;"/>
	<path d="M 210.0,239.0 C 189.574,281.946 176.59,329.514 167.0,376.0" style="stroke:#010101; fill:none;"/>
	<path d="M 611.0,239.0 C 616.021,245.515 623.734,261.524 632.0,263.0" style="stroke:#010101; fill:none;"/>
	<path d="M 813.0,239.0 L 814.0,242.0" style="stroke:#010101; fill:none;"/>
	<path d="M 331.0,241.0 L 332.0,244.0" style="stroke:#010101; fill:none;"/>
	<path d="M 435.0,241.0 L 433.0,243.0" style="stroke:#010101; fill:none;"/>
	<path d="M 450.0,241.0 C 470.896,275.019 495.338,306.771 518.849,339.0 C 541.81,370.476 564.384,403.384 592.0,431.0" style="stroke:#010101; fill:none;"/>
	<path d="M 213.0,242.0 L 193.025,304.0 L 174.0,387.0" style="stroke:#010101; fill:none;"/>
	<path d="M 298.0,243.0 C 298.496,267.051 309.58,293.638 317.715,316.0 C 343.069,385.691 384.387,447.348 433.0,503.0" style="stroke:#010101; fill:none;"/>
	<path d="M 301.0,243.0 C 303.249,270.534 315.357,303.103 327.0,328.0" style="stroke:#010101; fill:none;"/>
	<path d="M 268.0,244.0 C 268.003,270.236 277.825,296.826 287.189,321.0 C 307.284,372.878 333.96,425.5 378.0,461.0 C 377.517,455.807 372.723,452.02 369.576,447.999 C 362.906,439.48 356.468,430.787 350.155,422.0 C 331.802,396.457 311.889,365.257 306.0,334.0" style="stroke:#010101; fill:none;"/>
	<path d="M 332.0,245.0 L 333.0,246.0" style="stroke:#010101; fill:none;"/>
	<path d="M 823.0,245.0 L 820.0,248.0 L 824.0,252.0" style="stroke:#010101; fill:none;"/>
	<path d="M 333.0,246.0 L 335.0,251.0" style="stroke:#010101; fill:none;"/>
	<path d="M 439.0,246.0 L 440.0,246.0" style="stroke:#010101; fill:none;"/>
	<path d="M 818.0,246.0 L 820.0,248.0" style="stroke:#010101; fill:none;"/>
	<path d="M 823.0,247.0 L 822.0,248.0" style="stroke:#010101; fill:none;"/>
	<path d="M 826.0,248.0 L 824.0,250.0" style="stroke:#010101; fill:none;"/>
	<path d="M 435.0,249.0 L 438.0,251.0" style="stroke:#010101; fill:none;"/>
	<path d="M 445.0,249.0 L 445.0,251.0" style="stroke:#010101; fill:none;"/>
	<path d="M 632.0,250.0 L 665.0,299.0" style="stroke:#010101; fill:none;"/>
	<path d="M 446.0,251.0 L 449.527,262.0 L 469.0,290.0" style="stroke:#010101; fill:none;"/>
	<path d="M 335.0,252.0 L 336.0,253.0" style="stroke:#010101; fill:none;"/>
	<path d="M 440.0,252.0 L 446.0,259.0" style="stroke:#010101; fill:none;"/>
	<path d="M 827.0,252.0 C 826.708,256.0 828.554,256.55 832.0,255.0 L 832.0,255.0" style="stroke:#010101; fill:none;"/>
	<path d="M 336.0,253.0 L 337.0,256.0" style="stroke:#010101; fill:none;"/>
	<path d="M 447.0,253.0 L 444.0,256.0" style="stroke:#010101; fill:none;"/>
	<path d="M 824.0,253.0 L 825.0,254.0" style="stroke:#010101; fill:none;"/>
	<path d="M 826.0,253.0 L 832.0,262.0" style="stroke:#010101; fill:none;"/>
	<path d="M 831.0,254.0 L 829.0,256.0" style="stroke:#010101; fill:none;"/>
	<path d="M 352.0,255.0 C 365.72,297.095 394.386,336.27 421.119,371.0 C 475.637,441.827 542.285,513.836 619.0,561.0" style="stroke:#010101; fill:none;"/>
	<path d="M 418.0,255.0 C 420.128,281.05 438.998,308.786 451.576,331.0 C 488.516,396.239 535.043,455.087 592.0,504.13 C 608.201,518.08 625.202,530.824 643.0,542.667 C 652.717,549.132 663.238,556.48 675.0,558.0" style="stroke:#010101; fill:none;"/>
	<path d="M 830.0,255.0 L 830.0,257.0" style="stroke:#010101; fill:none;"/>
	<path d="M 337.0,257.0 L 338.0,258.0" style="stroke:#010101; fill:none;"/>
	<path d="M 124.0,258.0 C 112.606,271.403 106.029,290.805 99.5509,307.0 C 97.2214,312.824 92.0552,320.802 93.0,327.0 L 94.0,322.0" style="stroke:#010101; fill:none;"/>
	<path d="M 338.0,258.0 L 357.191,300.0 L 371.0,326.0" style="stroke:#010101; fill:none;"/>
	<path d="M 829.0,258.0 L 831.0,262.0" style="stroke:#010101; fill:none;"/>
	<path d="M 729.0,261.0 L 738.0,273.0" style="stroke:#010101; fill:none;"/>
	<path d="M 834.0,262.0 L 838.0,264.0" style="stroke:#010101; fill:none;"/>
	<path d="M 346.0,263.0 L 349.0,271.0" style="stroke:#010101; fill:none;"/>
	<path d="M 833.0,263.0 L 856.116,294.0 L 891.0,344.0 L 887.0,342.0" style="stroke:#010101; fill:none;"/>
	<path d="M 631.0,264.0 L 629.0,266.0" style="stroke:#010101; fill:none;"/>
	<path d="M 630.0,265.0 L 644.0,283.0" style="stroke:#010101; fill:none;"/>
	<path d="M 839.0,265.0 L 855.25,286.0 L 892.0,334.0" style="stroke:#010101; fill:none;"/>
	<path d="M 664.0,266.0 L 687.0,300.0" style="stroke:#010101; fill:none;"/>
	<path d="M 88.0,270.0 L 92.0,271.0" style="stroke:#010101; fill:none;"/>
	<path d="M 208.0,270.0 C 206.766,285.643 201.668,300.334 200.17,316.0 C 196.669,352.61 200.646,390.266 209.116,426.0 C 212.082,438.517 214.189,452.437 220.0,464.0 C 223.548,457.541 218.808,446.922 217.13,440.0 C 213.394,424.6 204.544,399.51 209.0,384.0" style="stroke:#010101; fill:none;"/>
	<path d="M 88.0,271.0 C 86.5564,273.912 86.5829,275.358 90.0,274.0 L 90.0,274.0" style="stroke:#010101; fill:none;"/>
	<path d="M 768.0,271.0 L 769.0,273.0" style="stroke:#010101; fill:none;"/>
	<path d="M 832.0,271.0 L 930.28,418.0 L 956.72,456.0 L 971.0,473.0 C 968.656,450.112 947.583,421.854 933.0,405.0 C 929.629,413.414 946.778,433.818 952.0,441.0" style="stroke:#010101; fill:none;"/>
	<path d="M 348.0,273.0 L 349.0,274.0" style="stroke:#010101; fill:none;"/>
	<path d="M 769.0,273.0 L 769.0,276.0" style="stroke:#010101; fill:none;"/>
	<path d="M 480.0,274.0 C 482.095,282.918 489.489,290.678 494.709,298.0 C 505.773,313.518 517.18,328.763 528.627,344.0 C 544.177,364.7 560.619,384.728 576.714,405.0 C 584.538,414.853 591.919,426.063 601.089,434.714 C 634.666,466.386 677.384,488.394 716.0,513.0" style="stroke:#010101; fill:none;"/>
	<path d="M 739.0,274.0 C 745.026,289.58 764.905,301.959 767.0,319.0" style="stroke:#010101; fill:none;"/>
	<path d="M 349.0,275.0 L 350.0,276.0" style="stroke:#010101; fill:none;"/>
	<path d="M 85.0,276.0 C 78.372,294.522 69.5563,312.304 63.2978,331.0 C 47.4697,378.284 33.9215,435.868 35.2593,486.0 C 35.7157,503.104 37.9277,521.329 41.8843,538.0 C 43.4408,544.558 48.1418,551.601 48.8133,558.0 C 50.6391,575.399 47.2655,594.329 48.0394,612.0 C 49.4137,643.387 56.1191,682.087 71.0,710.0 C 77.0064,701.65 72.7548,687.706 72.0895,678.0 C 70.3176,652.149 71.0,626.849 71.0,601.0" style="stroke:#010101; fill:none;"/>
	<path d="M 350.0,277.0 L 351.0,278.0" style="stroke:#010101; fill:none;"/>
	<path d="M 217.0,278.0 C 217.0,301.75 225.491,323.351 234.576,345.0 C 252.689,388.166 277.44,426.835 308.286,462.0 C 324.175,480.113 343.343,494.778 357.0,514.0 L 356.0,511.0" style="stroke:#010101; fill:none;"/>
	<path d="M 640.0,278.0 L 640.0,280.0" style="stroke:#010101; fill:none;"/>
	<path d="M 351.0,279.0 L 352.0,280.0" style="stroke:#010101; fill:none;"/>
	<path d="M 352.0,281.0 L 354.0,283.0" style="stroke:#010101; fill:none;"/>
	<path d="M 644.0,283.0 L 652.0,292.0" style="stroke:#010101; fill:none;"/>
	<path d="M 213.0,284.0 C 213.491,297.608 212.657,317.898 219.0,330.0 L 221.0,327.0" style="stroke:#010101; fill:none;"/>
	<path d="M 354.0,284.0 L 355.0,285.0" style="stroke:#010101; fill:none;"/>
	<path d="M 355.0,286.0 L 356.0,287.0" style="stroke:#010101; fill:none;"/>
	<path d="M 356.0,288.0 L 357.0,289.0" style="stroke:#010101; fill:none;"/>
	<path d="M 357.0,290.0 L 359.0,292.0" style="stroke:#010101; fill:none;"/>
	<path d="M 359.0,293.0 L 360.0,294.0" style="stroke:#010101; fill:none;"/>
	<path d="M 206.0,294.0 C 206.0,302.104 204.118,312.727 208.0,320.0" style="stroke:#010101; fill:none;"/>
	<path d="M 360.0,295.0 L 361.0,296.0" style="stroke:#010101; fill:none;"/>
	<path d="M 651.0,295.0 L 656.0,297.0" style="stroke:#010101; fill:none;"/>
	<path d="M 361.0,297.0 L 362.0,298.0" style="stroke:#010101; fill:none;"/>
	<path d="M 362.0,299.0 L 363.0,300.0" style="stroke:#010101; fill:none;"/>
	<path d="M 199.0,301.0 C 189.57,341.763 177.028,383.768 177.0,426.0" style="stroke:#010101; fill:none;"/>
	<path d="M 363.0,301.0 L 365.0,303.0" style="stroke:#010101; fill:none;"/>
	<path d="M 657.0,301.0 L 660.0,302.0" style="stroke:#010101; fill:none;"/>
	<path d="M 660.0,302.0 L 663.0,305.0" style="stroke:#010101; fill:none;"/>
	<path d="M 665.0,303.0 L 670.0,309.0" style="stroke:#010101; fill:none;"/>
	<path d="M 365.0,304.0 L 366.0,305.0" style="stroke:#010101; fill:none;"/>
	<path d="M 687.0,304.0 L 689.0,306.0" style="stroke:#010101; fill:none;"/>
	<path d="M 366.0,306.0 L 367.0,307.0" style="stroke:#010101; fill:none;"/>
	<path d="M 689.0,306.0 L 691.0,309.0" style="stroke:#010101; fill:none;"/>
	<path d="M 367.0,308.0 L 368.0,309.0" style="stroke:#010101; fill:none;"/>
	<path d="M 662.0,308.0 L 663.0,309.0" style="stroke:#010101; fill:none;"/>
	<path d="M 665.0,308.0 L 673.0,317.0 L 665.0,311.0" style="stroke:#010101; fill:none;"/>
	<path d="M 664.0,309.0 L 666.0,311.0" style="stroke:#010101; fill:none;"/>
	<path d="M 691.0,309.0 L 693.0,311.0" style="stroke:#010101; fill:none;"/>
	<path d="M 368.0,310.0 L 370.0,312.0" style="stroke:#010101; fill:none;"/>
	<path d="M 693.0,312.0 L 695.0,314.0" style="stroke:#010101; fill:none;"/>
	<path d="M 370.0,313.0 L 371.0,314.0" style="stroke:#010101; fill:none;"/>
	<path d="M 581.0,313.0 L 584.0,317.0 L 579.0,314.0" style="stroke:#010101; fill:none;"/>
	<path d="M 668.0,313.0 L 668.0,315.0" style="stroke:#010101; fill:none;"/>
	<path d="M 701.0,313.0 L 750.833,381.0 L 767.333,403.0 L 777.667,415.0 L 777.0,413.0" style="stroke:#010101; fill:none;"/>
	<path d="M 511.0,314.0 L 560.0,375.0 L 555.0,370.0" style="stroke:#010101; fill:none;"/>
	<path d="M 371.0,315.0 L 372.0,316.0" style="stroke:#010101; fill:none;"/>
	<path d="M 695.0,315.0 L 698.0,318.0" style="stroke:#010101; fill:none;"/>
	<path d="M 719.0,315.0 L 746.164,358.0 L 757.0,371.0" style="stroke:#010101; fill:none;"/>
	<path d="M 364.0,316.0 L 365.0,318.0" style="stroke:#010101; fill:none;"/>
	<path d="M 372.0,317.0 L 374.0,319.0" style="stroke:#010101; fill:none;"/>
	<path d="M 674.0,317.0 L 677.0,321.0" style="stroke:#010101; fill:none;"/>
	<path d="M 714.0,317.0 L 777.0,412.0" style="stroke:#010101; fill:none;"/>
	<path d="M 584.0,318.0 L 636.0,380.0" style="stroke:#010101; fill:none;"/>
	<path d="M 794.0,318.0 C 830.303,386.096 880.824,446.833 923.742,511.0 C 935.579,528.697 946.911,546.707 957.799,565.0 C 963.502,574.581 971.326,585.83 973.0,597.0" style="stroke:#010101; fill:none;"/>
	<path d="M 365.0,319.0 L 367.0,321.0" style="stroke:#010101; fill:none;"/>
	<path d="M 672.0,319.0 L 674.0,320.0" style="stroke:#010101; fill:none;"/>
	<path d="M 698.0,319.0 L 701.0,322.0" style="stroke:#010101; fill:none;"/>
	<path d="M 374.0,320.0 L 375.0,321.0" style="stroke:#010101; fill:none;"/>
	<path d="M 170.0,322.0 L 163.0,357.0" style="stroke:#010101; fill:none;"/>
	<path d="M 367.0,322.0 L 368.0,323.0" style="stroke:#010101; fill:none;"/>
	<path d="M 375.0,322.0 L 377.0,324.0" style="stroke:#010101; fill:none;"/>
	<path d="M 675.0,322.0 L 680.0,328.0" style="stroke:#010101; fill:none;"/>
	<path d="M 172.0,323.0 L 171.0,324.0" style="stroke:#010101; fill:none;"/>
	<path d="M 368.0,323.0 L 368.0,325.0" style="stroke:#010101; fill:none;"/>
	<path d="M 701.0,323.0 L 703.0,325.0" style="stroke:#010101; fill:none;"/>
	<path d="M 377.0,325.0 L 378.0,326.0" style="stroke:#010101; fill:none;"/>
	<path d="M 703.0,326.0 L 706.0,329.0" style="stroke:#010101; fill:none;"/>
	<path d="M 91.0,327.0 L 93.0,328.0" style="stroke:#010101; fill:none;"/>
	<path d="M 372.0,327.0 L 409.0,386.0" style="stroke:#010101; fill:none;"/>
	<path d="M 378.0,327.0 L 379.0,328.0" style="stroke:#010101; fill:none;"/>
	<path d="M 216.0,328.0 L 217.0,335.0 L 221.0,331.0 L 219.0,333.0" style="stroke:#010101; fill:none;"/>
	<path d="M 370.0,328.0 L 371.0,329.0" style="stroke:#010101; fill:none;"/>
	<path d="M 90.0,329.0 L 91.0,332.0 L 92.0,329.0" style="stroke:#010101; fill:none;"/>
	<path d="M 379.0,329.0 L 381.0,331.0" style="stroke:#010101; fill:none;"/>
	<path d="M 371.0,330.0 L 373.0,330.0" style="stroke:#010101; fill:none;"/>
	<path d="M 706.0,330.0 L 708.0,332.0" style="stroke:#010101; fill:none;"/>
	<path d="M 372.0,331.0 C 377.931,348.648 390.595,365.702 401.0,381.0" style="stroke:#010101; fill:none;"/>
	<path d="M 89.0,332.0 L 90.0,335.0 L 91.0,332.0" style="stroke:#010101; fill:none;"/>
	<path d="M 381.0,332.0 L 382.0,333.0" style="stroke:#010101; fill:none;"/>
	<path d="M 708.0,333.0 L 712.0,337.0" style="stroke:#010101; fill:none;"/>
	<path d="M 220.0,334.0 C 222.637,354.419 228.328,376.638 235.218,396.0 C 237.729,403.058 242.582,409.018 244.84,416.0 C 263.886,474.887 284.883,534.183 327.17,581.0 C 350.047,606.328 378.839,627.184 409.0,643.0" style="stroke:#010101; fill:none;"/>
	<path d="M 382.0,334.0 L 384.0,334.0" style="stroke:#010101; fill:none;"/>
	<path d="M 61.0,341.0 C 59.3524,338.227 58.9336,337.49 61.0,335.0" style="stroke:#010101; fill:none;"/>
	<path d="M 88.0,335.0 C 89.9927,343.496 84.4787,353.847 82.1412,362.0 C 76.5343,381.556 70.9647,401.129 66.5756,421.0 C 64.7702,429.174 60.7349,439.762 63.0,448.0 L 68.0,439.0" style="stroke:#010101; fill:none;"/>
	<path d="M 217.0,335.0 C 217.015,357.025 219.895,383.57 225.0,405.0" style="stroke:#010101; fill:none;"/>
	<path d="M 383.0,335.0 L 389.0,346.0" style="stroke:#010101; fill:none;"/>
	<path d="M 90.0,336.0 L 89.0,337.0" style="stroke:#010101; fill:none;"/>
	<path d="M 212.0,336.0 L 212.0,341.0" style="stroke:#010101; fill:none;"/>
	<path d="M 87.0,337.0 L 87.0,339.0" style="stroke:#010101; fill:none;"/>
	<path d="M 151.0,337.0 C 144.617,357.184 142.083,379.995 139.834,401.0 C 135.152,444.736 133.114,488.033 135.039,532.0 C 135.931,552.371 138.185,572.683 140.075,593.0 C 140.769,600.464 144.46,609.406 140.0,616.0 C 127.074,581.736 123.0,539.313 123.0,503.0" style="stroke:#010101; fill:none;"/>
	<path d="M 712.0,338.0 L 714.0,340.0" style="stroke:#010101; fill:none;"/>
	<path d="M 57.0,340.0 L 59.0,343.0" style="stroke:#010101; fill:none;"/>
	<path d="M 86.0,340.0 L 86.0,342.0" style="stroke:#010101; fill:none;"/>
	<path d="M 714.0,341.0 L 715.0,342.0" style="stroke:#010101; fill:none;"/>
	<path d="M 86.0,342.0 C 79.1104,353.095 76.116,367.65 72.0,380.0 C 61.7192,410.848 51.0036,445.224 51.0,478.0" style="stroke:#010101; fill:none;"/>
	<path d="M 742.0,342.0 L 757.0,370.0" style="stroke:#010101; fill:none;"/>
	<path d="M 210.0,343.0 L 211.0,347.0" style="stroke:#010101; fill:none;"/>
	<path d="M 495.0,344.0 C 504.726,367.123 527.616,387.616 545.0,405.0 L 534.0,396.0" style="stroke:#010101; fill:none;"/>
	<path d="M 392.0,345.0 C 394.518,349.731 398.552,353.732 396.0,359.0" style="stroke:#010101; fill:none;"/>
	<path d="M 940.0,347.0 C 942.289,351.124 945.042,354.461 943.0,359.0 L 943.0,354.0" style="stroke:#010101; fill:none;"/>
	<path d="M 212.0,350.0 L 221.0,415.0" style="stroke:#010101; fill:none;"/>
	<path d="M 892.0,354.0 L 902.0,369.0" style="stroke:#010101; fill:none;"/>
	<path d="M 909.0,354.0 C 916.878,361.884 926.088,371.08 931.39,381.0 C 932.837,383.708 932.594,391.749 937.0,391.0" style="stroke:#010101; fill:none;"/>
	<path d="M 399.0,357.0 C 406.342,366.552 411.735,377.93 419.888,386.832 C 432.082,400.146 449.31,415.213 457.0,432.0 L 448.0,422.0" style="stroke:#010101; fill:none;"/>
	<path d="M 404.0,357.0 L 424.0,388.0" style="stroke:#010101; fill:none;"/>
	<path d="M 905.0,358.0 L 932.0,387.0" style="stroke:#010101; fill:none;"/>
	<path d="M 947.0,359.0 L 943.0,360.0" style="stroke:#010101; fill:none;"/>
	<path d="M 947.0,359.0 L 953.0,371.0 C 958.943,368.978 964.604,374.558 969.0,378.299 C 981.003,388.515 991.181,400.408 1000.62,413.0 C 1018.8,437.231 1027.7,463.717 1039.86,491.0 C 1043.52,499.203 1046.43,507.879 1050.25,515.961 C 1051.71,519.06 1054.77,521.478 1055.09,525.015 C 1056.6,541.646 1047.98,565.245 1041.0,580.0" style="stroke:#010101; fill:none;"/>
	<path d="M 944.0,361.0 L 945.0,367.0" style="stroke:#010101; fill:none;"/>
	<path d="M 336.0,365.0 C 339.854,381.653 352.386,404.44 365.0,416.0" style="stroke:#010101; fill:none;"/>
	<path d="M 329.0,366.0 C 338.501,400.809 364.964,431.517 386.0,460.0" style="stroke:#010101; fill:none;"/>
	<path d="M 552.0,367.0 L 555.0,370.0" style="stroke:#010101; fill:none;"/>
	<path d="M 241.0,371.0 L 242.0,409.0" style="stroke:#010101; fill:none;"/>
	<path d="M 510.0,371.0 L 518.0,379.0" style="stroke:#010101; fill:none;"/>
	<path d="M 905.0,371.0 L 924.0,395.0 L 919.0,390.0" style="stroke:#010101; fill:none;"/>
	<path d="M 953.0,371.0 L 966.667,409.0 L 978.0,443.0 C 983.215,441.003 1000.79,437.296 1000.79,429.869 C 1000.79,426.551 995.157,423.066 993.0,421.0" style="stroke:#010101; fill:none;"/>
	<path d="M 1008.0,387.0 L 998.0,377.0 C 1008.44,365.611 1036.06,377.415 1048.0,383.0 C 1041.66,385.831 1033.65,381.466 1027.0,380.439 C 1019.36,379.258 1013.52,381.854 1008.0,387.0 C 1016.23,395.228 1024.31,411.635 1035.0,416.0 L 1032.0,417.0" style="stroke:#010101; fill:none;"/>
	<path d="M 759.0,373.0 L 763.0,380.0" style="stroke:#010101; fill:none;"/>
	<path d="M 991.0,373.0 L 997.0,377.0" style="stroke:#010101; fill:none;"/>
	<path d="M 757.0,374.0 L 759.0,376.0" style="stroke:#010101; fill:none;"/>
	<path d="M 562.0,375.0 C 578.897,399.082 602.823,420.732 624.0,441.0 C 616.981,440.049 611.192,434.228 606.0,429.711 C 591.688,417.258 578.722,400.6 568.0,385.0" style="stroke:#010101; fill:none;"/>
	<path d="M 710.0,375.0 L 708.0,377.0" style="stroke:#010101; fill:none;"/>
	<path d="M 560.0,376.0 L 565.0,381.0" style="stroke:#010101; fill:none;"/>
	<path d="M 163.0,377.0 C 149.225,451.152 157.745,530.97 167.718,605.0 C 171.115,630.219 173.316,661.625 183.839,685.0 C 188.63,695.642 198.169,705.497 206.0,714.0" style="stroke:#010101; fill:none;"/>
	<path d="M 407.0,377.0 L 405.0,379.0" style="stroke:#010101; fill:none;"/>
	<path d="M 759.0,377.0 L 761.0,377.0" style="stroke:#010101; fill:none;"/>
	<path d="M 909.0,378.0 L 910.0,379.0" style="stroke:#010101; fill:none;"/>
	<path d="M 518.0,379.0 L 520.0,381.0" style="stroke:#010101; fill:none;"/>
	<path d="M 760.0,379.0 L 761.0,380.0" style="stroke:#010101; fill:none;"/>
	<path d="M 409.0,380.0 L 407.0,382.0" style="stroke:#010101; fill:none;"/>
	<path d="M 763.0,380.0 L 803.0,439.0" style="stroke:#010101; fill:none;"/>
	<path d="M 910.0,380.0 L 913.0,381.0" style="stroke:#010101; fill:none;"/>
	<path d="M 565.0,381.0 L 567.0,385.0" style="stroke:#010101; fill:none;"/>
	<path d="M 714.0,381.0 L 716.0,387.0 L 715.0,384.0" style="stroke:#010101; fill:none;"/>
	<path d="M 913.0,381.0 L 915.0,385.0" style="stroke:#010101; fill:none;"/>
	<path d="M 220.0,382.0 L 218.0,396.0" style="stroke:#010101; fill:none;"/>
	<path d="M 520.0,382.0 L 522.0,382.0" style="stroke:#010101; fill:none;"/>
	<path d="M 712.0,382.0 L 713.0,385.0" style="stroke:#010101; fill:none;"/>
	<path d="M 762.0,382.0 L 765.0,386.0" style="stroke:#010101; fill:none;"/>
	<path d="M 1049.0,383.0 L 1047.0,385.0" style="stroke:#010101; fill:none;"/>
	<path d="M 521.0,384.0 L 523.0,385.0" style="stroke:#010101; fill:none;"/>
	<path d="M 1050.0,384.0 L 1053.0,385.0 L 1049.0,386.0" style="stroke:#010101; fill:none;"/>
	<path d="M 412.0,385.0 L 412.0,387.0" style="stroke:#010101; fill:none;"/>
	<path d="M 523.0,385.0 L 528.0,390.0" style="stroke:#010101; fill:none;"/>
	<path d="M 883.0,385.0 C 885.999,395.191 894.014,404.352 899.974,413.0 C 911.05,429.069 921.978,445.366 932.189,462.0 C 958.281,504.504 977.366,550.975 986.864,600.0 C 989.58,614.017 992.99,627.589 993.0,642.0" style="stroke:#010101; fill:none;"/>
	<path d="M 915.0,385.0 L 916.0,388.0" style="stroke:#010101; fill:none;"/>
	<path d="M 934.0,385.0 L 938.0,390.0" style="stroke:#010101; fill:none;"/>
	<path d="M 987.0,385.0 C 1014.92,405.076 1031.86,438.59 1043.81,470.0 C 1050.59,487.84 1056.0,501.713 1056.0,521.0" style="stroke:#010101; fill:none;"/>
	<path d="M 1053.0,385.0 L 1056.0,386.0 L 1052.0,387.0" style="stroke:#010101; fill:none;"/>
	<path d="M 718.0,386.0 L 723.0,394.0" style="stroke:#010101; fill:none;"/>
	<path d="M 1057.0,386.0 L 1055.0,388.0" style="stroke:#010101; fill:none;"/>
	<path d="M 719.0,387.0 L 716.0,388.0" style="stroke:#010101; fill:none;"/>
	<path d="M 765.0,387.0 L 766.0,388.0" style="stroke:#010101; fill:none;"/>
	<path d="M 1058.0,387.0 L 1063.0,389.0 L 1057.0,389.0" style="stroke:#010101; fill:none;"/>
	<path d="M 1064.0,389.0 L 1069.0,392.0 L 1062.0,391.0" style="stroke:#010101; fill:none;"/>
	<path d="M 717.0,390.0 L 719.0,392.0" style="stroke:#010101; fill:none;"/>
	<path d="M 721.0,390.0 L 724.0,393.0" style="stroke:#010101; fill:none;"/>
	<path d="M 1065.0,390.0 L 1063.0,392.0" style="stroke:#010101; fill:none;"/>
	<path d="M 424.0,391.0 L 435.0,406.0" style="stroke:#010101; fill:none;"/>
	<path d="M 528.0,391.0 L 533.0,396.0" style="stroke:#010101; fill:none;"/>
	<path d="M 722.0,391.0 L 720.0,393.0" style="stroke:#010101; fill:none;"/>
	<path d="M 1066.0,391.0 L 1066.0,393.0" style="stroke:#010101; fill:none;"/>
	<path d="M 939.0,392.0 L 940.0,395.0" style="stroke:#010101; fill:none;"/>
	<path d="M 1070.0,392.0 L 1073.0,394.0 L 1068.0,394.0" style="stroke:#010101; fill:none;"/>
	<path d="M 937.0,394.0 L 938.0,395.0" style="stroke:#010101; fill:none;"/>
	<path d="M 1074.0,394.0 L 1072.0,396.0" style="stroke:#010101; fill:none;"/>
	<path d="M 925.0,395.0 L 926.0,400.0 L 925.0,397.0" style="stroke:#010101; fill:none;"/>
	<path d="M 941.0,395.0 L 942.0,399.0 L 939.0,397.0" style="stroke:#010101; fill:none;"/>
	<path d="M 259.0,396.0 C 255.361,402.819 257.846,411.668 259.081,419.0 C 262.42,438.821 268.196,458.334 275.601,477.0 C 304.919,550.899 371.592,636.0 459.0,636.0" style="stroke:#010101; fill:none;"/>
	<path d="M 726.0,396.0 L 734.0,409.0 L 731.0,404.0" style="stroke:#010101; fill:none;"/>
	<path d="M 923.0,397.0 L 924.0,398.0" style="stroke:#010101; fill:none;"/>
	<path d="M 724.0,398.0 L 728.0,400.0" style="stroke:#010101; fill:none;"/>
	<path d="M 1075.0,398.0 L 1081.0,401.0" style="stroke:#010101; fill:none;"/>
	<path d="M 111.0,399.0 C 92.7155,493.283 111.139,596.579 132.349,689.0 C 142.885,734.912 153.627,782.108 171.0,826.0 L 172.0,817.0" style="stroke:#010101; fill:none;"/>
	<path d="M 928.0,399.0 L 929.0,404.0 L 928.0,401.0" style="stroke:#010101; fill:none;"/>
	<path d="M 943.0,400.0 L 979.0,467.0" style="stroke:#010101; fill:none;"/>
	<path d="M 730.0,401.0 L 730.0,405.0" style="stroke:#010101; fill:none;"/>
	<path d="M 926.0,401.0 L 927.0,402.0" style="stroke:#010101; fill:none;"/>
	<path d="M 727.0,402.0 L 728.0,403.0" style="stroke:#010101; fill:none;"/>
	<path d="M 930.0,403.0 L 933.0,404.0" style="stroke:#010101; fill:none;"/>
	<path d="M 929.0,404.0 L 931.0,408.0" style="stroke:#010101; fill:none;"/>
	<path d="M 436.0,407.0 L 438.0,410.0" style="stroke:#010101; fill:none;"/>
	<path d="M 547.0,407.0 L 557.0,417.0 L 556.0,418.0 L 547.0,407.0" style="stroke:#010101; fill:none;"/>
	<path d="M 736.0,408.0 L 739.0,413.0 L 736.0,412.0" style="stroke:#010101; fill:none;"/>
	<path d="M 734.0,409.0 L 735.0,412.0" style="stroke:#010101; fill:none;"/>
	<path d="M 439.0,411.0 L 442.0,415.0" style="stroke:#010101; fill:none;"/>
	<path d="M 740.0,413.0 L 754.0,431.0 L 738.0,415.0" style="stroke:#010101; fill:none;"/>
	<path d="M 861.0,413.0 L 902.576,467.0 L 917.0,483.0" style="stroke:#010101; fill:none;"/>
	<path d="M 442.0,415.0 L 444.0,417.0" style="stroke:#010101; fill:none;"/>
	<path d="M 777.0,415.0 L 775.0,417.0" style="stroke:#010101; fill:none;"/>
	<path d="M 780.0,416.0 L 785.0,423.0" style="stroke:#010101; fill:none;"/>
	<path d="M 1036.0,416.0 C 1064.62,444.624 1082.66,473.9 1085.2,515.0 C 1085.77,524.197 1087.16,533.935 1085.0,543.0" style="stroke:#010101; fill:none;"/>
	<path d="M 558.0,417.0 L 564.0,423.0 L 556.0,419.0" style="stroke:#010101; fill:none;"/>
	<path d="M 571.0,417.0 C 598.05,444.05 629.271,466.163 662.0,485.8 C 675.358,493.815 689.354,503.597 704.0,509.0" style="stroke:#010101; fill:none;"/>
	<path d="M 778.0,417.0 L 780.0,419.0" style="stroke:#010101; fill:none;"/>
	<path d="M 185.0,418.0 C 185.076,445.437 200.732,475.974 212.753,500.0 C 245.048,564.548 285.068,620.301 354.0,649.0" style="stroke:#010101; fill:none;"/>
	<path d="M 366.0,418.0 L 368.0,420.0" style="stroke:#010101; fill:none;"/>
	<path d="M 444.0,418.0 L 446.0,418.0" style="stroke:#010101; fill:none;"/>
	<path d="M 1033.0,418.0 C 1050.05,464.864 1072.86,510.53 1073.0,562.0" style="stroke:#010101; fill:none;"/>
	<path d="M 780.0,419.0 L 781.0,421.0" style="stroke:#010101; fill:none;"/>
	<path d="M 445.0,420.0 L 447.0,422.0" style="stroke:#010101; fill:none;"/>
	<path d="M 368.0,421.0 L 370.0,423.0" style="stroke:#010101; fill:none;"/>
	<path d="M 171.0,422.0 C 161.655,444.146 172.098,472.026 172.156,495.0 C 172.189,508.127 169.447,521.468 170.039,535.0 C 171.644,571.638 178.17,609.156 185.789,645.0 C 190.608,667.67 195.647,694.176 210.0,713.0 L 215.0,705.0" style="stroke:#010101; fill:none;"/>
	<path d="M 221.0,422.0 L 221.0,426.0" style="stroke:#010101; fill:none;"/>
	<path d="M 588.0,422.0 L 592.0,426.0" style="stroke:#010101; fill:none;"/>
	<path d="M 779.0,422.0 L 781.0,424.0" style="stroke:#010101; fill:none;"/>
	<path d="M 94.0,423.0 C 91.2573,432.275 92.3794,442.438 91.9606,452.0 C 91.0513,472.766 91.7494,493.26 91.9961,514.0 C 92.5137,557.511 93.8863,600.886 97.8673,644.0 C 100.067,667.821 96.8064,692.061 103.0,716.0" style="stroke:#010101; fill:none;"/>
	<path d="M 565.0,423.0 C 593.455,450.231 628.564,473.394 663.0,492.306 C 672.3,497.413 690.158,510.82 701.0,508.0" style="stroke:#010101; fill:none;"/>
	<path d="M 370.0,424.0 L 371.0,425.0" style="stroke:#010101; fill:none;"/>
	<path d="M 563.0,425.0 C 604.925,466.897 656.313,506.984 712.0,528.0" style="stroke:#010101; fill:none;"/>
	<path d="M 780.0,425.0 L 787.0,430.0" style="stroke:#010101; fill:none;"/>
	<path d="M 784.0,426.0 L 785.0,429.0" style="stroke:#010101; fill:none;"/>
	<path d="M 592.0,427.0 L 593.0,428.0" style="stroke:#010101; fill:none;"/>
	<path d="M 224.0,428.0 L 223.0,433.0 L 222.0,431.0" style="stroke:#010101; fill:none;"/>
	<path d="M 783.0,429.0 C 784.537,432.126 785.51,433.259 789.0,433.0" style="stroke:#010101; fill:none;"/>
	<path d="M 787.0,430.0 L 785.0,432.0" style="stroke:#010101; fill:none;"/>
	<path d="M 1002.0,430.0 C 1006.36,434.358 1015.95,449.676 1022.0,448.0" style="stroke:#010101; fill:none;"/>
	<path d="M 220.0,431.0 L 224.0,439.0 L 224.0,432.0" style="stroke:#010101; fill:none;"/>
	<path d="M 755.0,431.0 L 757.0,437.0 L 756.0,434.0" style="stroke:#010101; fill:none;"/>
	<path d="M 458.0,433.0 L 468.0,444.0 L 466.0,441.0" style="stroke:#010101; fill:none;"/>
	<path d="M 753.0,432.0 L 754.0,435.0" style="stroke:#010101; fill:none;"/>
	<path d="M 458.0,433.0 L 461.0,438.0" style="stroke:#010101; fill:none;"/>
	<path d="M 787.0,433.0 L 788.0,434.0" style="stroke:#010101; fill:none;"/>
	<path d="M 223.0,434.0 L 222.0,435.0" style="stroke:#010101; fill:none;"/>
	<path d="M 759.0,436.0 L 763.0,442.0" style="stroke:#010101; fill:none;"/>
	<path d="M 787.0,436.0 L 789.0,438.0" style="stroke:#010101; fill:none;"/>
	<path d="M 789.0,436.0 L 792.0,439.0" style="stroke:#010101; fill:none;"/>
	<path d="M 757.0,437.0 L 760.0,442.0" style="stroke:#010101; fill:none;"/>
	<path d="M 225.0,438.0 C 233.902,453.436 235.833,475.979 242.053,493.0 C 255.729,530.424 273.961,564.938 299.0,596.0" style="stroke:#010101; fill:none;"/>
	<path d="M 768.0,438.0 L 793.0,473.0 L 792.0,474.0 C 793.026,468.868 800.684,478.539 802.667,481.0 C 809.267,489.193 817.181,497.942 825.0,505.0 C 828.197,507.886 834.314,511.693 836.0,515.667 C 836.632,517.156 831.742,513.795 834.0,515.0" style="stroke:#010101; fill:none;"/>
	<path d="M 224.0,439.0 L 228.0,467.0" style="stroke:#010101; fill:none;"/>
	<path d="M 791.0,440.0 C 795.812,452.51 807.694,464.533 816.0,475.0" style="stroke:#010101; fill:none;"/>
	<path d="M 803.0,440.0 L 805.0,442.0" style="stroke:#010101; fill:none;"/>
	<path d="M 625.0,441.0 L 680.0,480.444 L 696.0,492.0" style="stroke:#010101; fill:none;"/>
	<path d="M 288.0,442.0 C 288.771,450.827 293.52,458.893 296.799,467.0 C 305.201,487.77 315.806,509.839 329.0,528.0 C 320.8,526.6 313.394,515.243 308.4,509.0 C 292.594,489.244 280.945,469.078 271.0,446.0" style="stroke:#010101; fill:none;"/>
	<path d="M 626.0,442.0 L 623.0,443.0" style="stroke:#010101; fill:none;"/>
	<path d="M 763.0,442.0 L 766.0,448.0 L 767.0,449.0 L 766.0,446.0" style="stroke:#010101; fill:none;"/>
	<path d="M 805.0,442.0 L 809.0,450.0" style="stroke:#010101; fill:none;"/>
	<path d="M 625.0,443.0 L 627.0,445.0" style="stroke:#010101; fill:none;"/>
	<path d="M 762.0,443.0 L 764.0,447.0" style="stroke:#010101; fill:none;"/>
	<path d="M 978.0,443.0 C 979.332,452.051 982.779,471.542 988.843,478.451 C 995.999,486.603 1009.11,489.389 1017.0,482.0" style="stroke:#010101; fill:none;"/>
	<path d="M 468.0,444.0 L 504.0,478.0" style="stroke:#010101; fill:none;"/>
	<path d="M 629.0,445.0 L 627.0,446.0" style="stroke:#010101; fill:none;"/>
	<path d="M 496.0,448.0 C 534.143,492.078 582.316,530.482 632.0,561.0" style="stroke:#010101; fill:none;"/>
	<path d="M 630.0,448.0 L 631.0,448.0" style="stroke:#010101; fill:none;"/>
	<path d="M 768.0,448.0 L 772.0,453.0" style="stroke:#010101; fill:none;"/>
	<path d="M 62.0,449.0 L 61.0,471.0" style="stroke:#010101; fill:none;"/>
	<path d="M 767.0,449.0 L 769.0,453.0" style="stroke:#010101; fill:none;"/>
	<path d="M 1023.0,450.0 L 1022.0,454.0 L 1024.0,452.0" style="stroke:#010101; fill:none;"/>
	<path d="M 1019.0,451.0 L 1021.0,453.0" style="stroke:#010101; fill:none;"/>
	<path d="M 970.0,452.0 L 971.0,454.0" style="stroke:#010101; fill:none;"/>
	<path d="M 773.0,453.0 L 776.0,456.0 L 775.0,453.0" style="stroke:#010101; fill:none;"/>
	<path d="M 771.0,454.0 C 775.57,464.254 785.426,473.397 792.586,482.0 C 807.279,499.654 822.095,521.683 841.0,535.0" style="stroke:#010101; fill:none;"/>
	<path d="M 1025.0,454.0 L 1022.0,455.0" style="stroke:#010101; fill:none;"/>
	<path d="M 777.0,455.0 L 781.0,459.0 L 778.0,458.0" style="stroke:#010101; fill:none;"/>
	<path d="M 971.0,455.0 L 972.0,456.0" style="stroke:#010101; fill:none;"/>
	<path d="M 776.0,457.0 L 777.0,458.0" style="stroke:#010101; fill:none;"/>
	<path d="M 972.0,457.0 L 973.0,458.0" style="stroke:#010101; fill:none;"/>
	<path d="M 1023.0,457.0 L 1025.0,459.0" style="stroke:#010101; fill:none;"/>
	<path d="M 973.0,458.0 L 977.0,475.0" style="stroke:#010101; fill:none;"/>
	<path d="M 379.0,459.0 L 389.0,468.0" style="stroke:#010101; fill:none;"/>
	<path d="M 780.0,461.0 L 788.0,469.0 L 782.0,461.0" style="stroke:#010101; fill:none;"/>
	<path d="M 786.0,461.0 L 784.0,463.0" style="stroke:#010101; fill:none;"/>
	<path d="M 223.0,463.0 L 224.0,476.0 L 220.0,464.0" style="stroke:#010101; fill:none;"/>
	<path d="M 223.0,466.0 L 221.0,468.0" style="stroke:#010101; fill:none;"/>
	<path d="M 59.0,468.0 L 49.0,553.0" style="stroke:#010101; fill:none;"/>
	<path d="M 224.0,469.0 L 222.0,471.0" style="stroke:#010101; fill:none;"/>
	<path d="M 788.0,469.0 L 790.0,473.0" style="stroke:#010101; fill:none;"/>
	<path d="M 207.0,470.0 L 206.0,482.0" style="stroke:#010101; fill:none;"/>
	<path d="M 225.0,472.0 L 223.0,474.0" style="stroke:#010101; fill:none;"/>
	<path d="M 972.0,474.0 C 981.914,497.811 992.59,521.307 996.919,547.0 C 998.859,558.515 1000.11,570.361 1000.91,582.0 C 1001.23,586.702 999.631,593.363 1001.6,597.726 C 1002.96,600.731 1006.82,602.172 1008.65,605.044 C 1015.73,616.169 1022.69,628.269 1028.74,640.0 C 1035.18,652.471 1039.91,665.715 1044.33,679.0 C 1046.73,686.208 1049.34,691.665 1044.0,698.0" style="stroke:#010101; fill:none;"/>
	<path d="M 792.0,475.0 C 806.499,494.099 824.061,512.06 841.0,529.0 C 845.848,533.848 853.481,545.496 861.0,543.0 C 855.215,537.215 840.673,527.46 839.0,519.333 C 838.715,517.949 842.509,520.805 841.0,520.0" style="stroke:#010101; fill:none;"/>
	<path d="M 224.0,476.0 C 227.401,490.692 234.433,505.332 240.691,519.0 C 259.005,558.997 285.556,604.526 325.0,627.0" style="stroke:#010101; fill:none;"/>
	<path d="M 989.0,480.0 L 993.0,498.0 C 999.914,495.809 1006.53,495.255 1010.0,488.0" style="stroke:#010101; fill:none;"/>
	<path d="M 919.0,485.0 L 921.0,490.0 L 917.0,486.0" style="stroke:#010101; fill:none;"/>
	<path d="M 206.0,491.0 C 206.0,569.692 224.831,654.832 277.0,716.0" style="stroke:#010101; fill:none;"/>
	<path d="M 922.0,491.0 L 925.0,496.0 L 923.0,493.0" style="stroke:#010101; fill:none;"/>
	<path d="M 700.0,495.0 L 700.0,493.0 L 702.0,497.0 L 704.0,495.0 L 710.0,499.0 L 707.0,499.0" style="stroke:#010101; fill:none;"/>
	<path d="M 702.0,494.0 L 703.0,495.0" style="stroke:#010101; fill:none;"/>
	<path d="M 395.0,495.0 C 417.496,514.653 439.989,532.66 466.0,547.573 C 487.966,560.166 511.897,569.978 533.0,584.0 C 522.046,589.62 498.567,580.679 487.0,577.87 C 440.213,566.508 391.393,539.576 356.0,507.0" style="stroke:#010101; fill:none;"/>
	<path d="M 584.0,496.0 L 588.0,496.0 L 586.0,498.0" style="stroke:#010101; fill:none;"/>
	<path d="M 589.0,496.0 L 588.0,501.0" style="stroke:#010101; fill:none;"/>
	<path d="M 703.0,496.0 L 705.0,498.0" style="stroke:#010101; fill:none;"/>
	<path d="M 925.0,496.0 C 941.455,517.408 955.857,541.269 968.691,565.0 C 974.494,575.729 978.584,587.68 985.0,598.0" style="stroke:#010101; fill:none;"/>
	<path d="M 707.0,497.0 L 708.0,498.0" style="stroke:#010101; fill:none;"/>
	<path d="M 589.0,498.0 L 590.0,499.0" style="stroke:#010101; fill:none;"/>
	<path d="M 592.0,498.0 C 620.331,516.687 654.032,532.18 687.0,540.373 C 704.925,544.828 723.962,546.092 741.0,538.0" style="stroke:#010101; fill:none;"/>
	<path d="M 993.0,498.0 L 1004.0,552.0" style="stroke:#010101; fill:none;"/>
	<path d="M 144.0,499.0 C 144.0,551.67 148.913,605.369 164.433,656.0 C 173.91,686.918 190.514,713.587 205.0,742.0" style="stroke:#010101; fill:none;"/>
	<path d="M 174.0,500.0 C 174.397,519.223 181.457,539.585 186.576,558.0 C 195.308,589.415 204.578,621.151 217.861,651.0 C 223.273,663.162 231.328,674.657 236.0,687.0 L 218.0,701.0 L 219.0,702.0 L 222.0,700.0" style="stroke:#010101; fill:none;"/>
	<path d="M 709.0,500.0 L 726.0,508.0 C 725.551,514.286 730.769,512.265 735.0,513.0 L 732.0,512.0" style="stroke:#010101; fill:none;"/>
	<path d="M 712.0,500.0 L 717.0,503.0" style="stroke:#010101; fill:none;"/>
	<path d="M 968.0,504.0 C 984.829,545.019 998.0,586.221 998.0,631.0" style="stroke:#010101; fill:none;"/>
	<path d="M 716.0,505.0 L 723.0,510.0" style="stroke:#010101; fill:none;"/>
	<path d="M 720.0,506.0 L 720.0,507.0" style="stroke:#010101; fill:none;"/>
	<path d="M 723.0,506.0 L 721.0,508.0" style="stroke:#010101; fill:none;"/>
	<path d="M 727.0,508.0 L 726.0,511.0" style="stroke:#010101; fill:none;"/>
	<path d="M 729.0,509.0 L 731.0,510.0" style="stroke:#010101; fill:none;"/>
	<path d="M 359.0,510.0 L 357.0,512.0" style="stroke:#010101; fill:none;"/>
	<path d="M 701.0,511.0 L 708.0,513.0" style="stroke:#010101; fill:none;"/>
	<path d="M 832.0,512.0 L 833.0,515.0" style="stroke:#010101; fill:none;"/>
	<path d="M 736.0,513.0 L 775.0,529.0" style="stroke:#010101; fill:none;"/>
	<path d="M 710.0,514.0 L 719.0,517.0" style="stroke:#010101; fill:none;"/>
	<path d="M 731.0,514.0 C 733.665,515.786 735.007,516.797 737.0,514.0" style="stroke:#010101; fill:none;"/>
	<path d="M 357.0,515.0 C 384.514,542.513 416.183,565.796 451.0,583.247 C 465.352,590.44 483.648,598.924 500.0,594.0" style="stroke:#010101; fill:none;"/>
	<path d="M 737.0,515.0 L 741.0,520.0 L 741.0,518.0" style="stroke:#010101; fill:none;"/>
	<path d="M 838.0,516.0 L 839.0,517.0" style="stroke:#010101; fill:none;"/>
	<path d="M 736.0,517.0 L 738.0,519.0" style="stroke:#010101; fill:none;"/>
	<path d="M 836.0,518.0 L 837.0,519.0" style="stroke:#010101; fill:none;"/>
	<path d="M 743.0,519.0 L 748.0,523.0" style="stroke:#010101; fill:none;"/>
	<path d="M 742.0,521.0 L 743.0,521.0" style="stroke:#010101; fill:none;"/>
	<path d="M 599.0,522.0 C 608.829,533.235 623.346,540.268 636.0,547.799 C 642.903,551.908 650.89,557.169 659.0,558.0" style="stroke:#010101; fill:none;"/>
	<path d="M 912.0,523.0 C 936.343,549.448 956.164,581.272 974.6,612.0 C 982.589,625.315 987.931,641.186 998.0,653.0" style="stroke:#010101; fill:none;"/>
	<path d="M 584.0,524.0 L 641.0,560.0" style="stroke:#010101; fill:none;"/>
	<path d="M 329.0,529.0 C 347.628,551.949 379.538,564.216 407.0,573.0" style="stroke:#010101; fill:none;"/>
	<path d="M 448.0,530.0 C 470.104,543.582 492.37,557.842 516.0,568.691 C 524.592,572.636 542.035,575.656 547.0,584.0" style="stroke:#010101; fill:none;"/>
	<path d="M 765.0,530.0 C 792.442,539.511 817.915,565.915 838.0,586.0" style="stroke:#010101; fill:none;"/>
	<path d="M 844.0,536.0 L 848.0,536.0" style="stroke:#010101; fill:none;"/>
	<path d="M 337.0,539.0 C 347.653,564.325 378.305,590.19 403.0,601.138 C 412.465,605.334 432.12,613.006 437.0,599.0" style="stroke:#010101; fill:none;"/>
	<path d="M 848.0,539.0 L 850.0,539.0" style="stroke:#010101; fill:none;"/>
	<path d="M 852.0,542.0 L 854.0,543.0" style="stroke:#010101; fill:none;"/>
	<path d="M 862.0,544.0 L 866.0,552.0 L 867.0,553.0 L 868.0,554.0 L 869.0,555.0" style="stroke:#010101; fill:none;"/>
	<path d="M 853.0,545.0 C 859.698,551.698 865.995,561.511 875.0,565.0" style="stroke:#010101; fill:none;"/>
	<path d="M 1085.0,545.0 L 1085.0,553.0" style="stroke:#010101; fill:none;"/>
	<path d="M 860.0,546.0 L 861.0,546.0" style="stroke:#010101; fill:none;"/>
	<path d="M 807.0,547.0 C 822.485,557.096 844.349,565.247 862.0,571.0 L 862.0,564.0" style="stroke:#010101; fill:none;"/>
	<path d="M 868.0,549.0 C 874.386,553.351 882.341,555.39 890.0,556.0" style="stroke:#010101; fill:none;"/>
	<path d="M 864.0,550.0 L 865.0,551.0" style="stroke:#010101; fill:none;"/>
	<path d="M 812.0,551.0 L 828.0,569.0" style="stroke:#010101; fill:none;"/>
	<path d="M 505.0,556.0 L 573.0,582.0" style="stroke:#010101; fill:none;"/>
	<path d="M 714.0,559.0 L 732.0,564.0" style="stroke:#010101; fill:none;"/>
	<path d="M 896.0,565.0 L 925.0,582.0" style="stroke:#010101; fill:none;"/>
	<path d="M 863.0,572.0 C 870.684,612.781 883.137,650.342 894.834,690.0 C 900.12,707.922 901.038,727.39 907.0,745.0" style="stroke:#010101; fill:none;"/>
	<path d="M 874.0,572.0 C 874.551,584.052 882.788,595.109 889.053,605.0 C 901.991,625.426 918.646,644.341 935.089,662.0 C 943.374,670.897 956.104,680.246 961.802,691.0 C 963.93,695.015 964.039,700.593 965.29,705.0 C 969.268,719.018 972.912,734.436 973.911,749.0 C 974.311,754.843 972.659,761.319 973.968,767.0 C 977.076,780.497 988.84,794.258 994.691,807.0 C 1000.73,820.16 1007.36,833.382 1012.3,847.0 C 1015.85,856.745 1017.37,867.779 1022.0,877.0 C 1026.91,870.354 1025.78,863.861 1026.04,856.0 C 1026.46,842.866 1026.0,830.101 1026.0,817.0 C 1030.94,819.854 1032.57,826.695 1033.87,832.0 C 1037.35,846.222 1037.0,862.338 1037.0,877.0" style="stroke:#010101; fill:none;"/>
	<path d="M 475.0,581.0 L 496.0,590.0" style="stroke:#010101; fill:none;"/>
	<path d="M 926.0,584.0 C 953.818,604.621 981.785,631.876 997.741,663.0 C 1003.39,674.027 1005.48,685.558 1009.71,697.0 C 1018.63,721.115 1025.83,743.972 1027.0,770.0" style="stroke:#010101; fill:none;"/>
	<path d="M 533.0,586.0 L 554.0,589.0" style="stroke:#010101; fill:none;"/>
	<path d="M 979.0,589.0 L 980.0,591.0" style="stroke:#010101; fill:none;"/>
	<path d="M 980.0,591.0 L 981.0,594.0" style="stroke:#010101; fill:none;"/>
	<path d="M 892.0,593.0 C 901.754,611.903 922.305,630.645 937.0,646.0 L 935.0,642.0" style="stroke:#010101; fill:none;"/>
	<path d="M 982.0,597.0 L 985.0,600.0" style="stroke:#010101; fill:none;"/>
	<path d="M 983.0,599.0 L 985.0,608.0" style="stroke:#010101; fill:none;"/>
	<path d="M 1002.0,600.0 C 1002.0,611.713 1000.49,626.68 1003.43,638.0 C 1005.76,646.952 1012.77,656.464 1016.69,665.0 C 1025.37,683.906 1033.66,702.874 1039.08,723.0 C 1046.11,749.127 1041.55,775.565 1041.0,802.0" style="stroke:#010101; fill:none;"/>
	<path d="M 143.0,615.0 C 143.018,631.582 148.457,647.371 153.667,663.0 C 164.719,696.157 179.159,730.636 204.0,756.0" style="stroke:#010101; fill:none;"/>
	<path d="M 140.0,616.0 L 142.0,621.0" style="stroke:#010101; fill:none;"/>
	<path d="M 933.0,629.0 C 953.294,649.294 978.786,671.076 993.241,696.079 C 1001.49,710.349 1007.54,725.991 1011.52,742.0 C 1012.95,747.746 1012.4,754.581 1014.3,760.0 C 1017.96,770.391 1025.69,779.999 1030.46,790.0 C 1038.4,806.624 1045.86,841.576 1072.0,831.0 L 1054.0,816.0 C 1062.39,787.877 1055.0,755.666 1055.0,727.0 L 1078.0,743.0" style="stroke:#010101; fill:none;"/>
	<path d="M 139.0,631.0 C 139.048,648.438 144.572,665.396 149.29,682.0 C 159.307,717.252 173.806,749.993 187.0,784.0" style="stroke:#010101; fill:none;"/>
	<path d="M 96.0,642.0 L 96.0,647.0" style="stroke:#010101; fill:none;"/>
	<path d="M 1004.0,643.0 L 1005.0,666.0" style="stroke:#010101; fill:none;"/>
	<path d="M 893.0,645.0 C 893.411,664.936 903.037,685.396 909.495,704.0 C 920.538,735.809 931.868,767.974 947.259,798.0 C 958.821,820.556 974.094,840.917 984.691,864.0 C 999.191,895.582 1011.53,930.288 1014.83,965.0 C 1017.74,995.612 1013.07,1027.86 1008.08,1058.0 C 1004.41,1080.13 1002.89,1111.67 991.0,1131.0 C 981.96,1117.78 978.832,1099.39 975.349,1084.0 C 965.876,1042.13 963.105,996.713 967.17,954.0 C 968.853,936.311 970.584,918.63 973.0,901.0 C 974.007,893.653 977.156,883.94 974.0,877.0 C 962.515,893.133 957.782,915.928 953.576,935.0 C 941.885,988.006 940.899,1044.8 956.0,1097.0" style="stroke:#010101; fill:none;"/>
	<path d="M 938.0,645.0 C 949.903,657.437 961.814,669.814 974.0,682.0 C 978.183,686.183 983.607,694.617 990.0,693.0" style="stroke:#010101; fill:none;"/>
	<path d="M 937.0,646.0 L 942.0,652.0" style="stroke:#010101; fill:none;"/>
	<path d="M 99.0,648.0 L 102.0,673.0 L 103.0,668.0" style="stroke:#010101; fill:none;"/>
	<path d="M 162.0,649.0 L 162.0,651.0" style="stroke:#010101; fill:none;"/>
	<path d="M 901.0,651.0 C 910.419,696.513 935.777,741.485 957.691,782.0 C 974.885,813.787 990.871,848.29 1013.0,877.0" style="stroke:#010101; fill:none;"/>
	<path d="M 965.0,651.0 L 991.0,691.0" style="stroke:#010101; fill:none;"/>
	<path d="M 942.0,652.0 L 947.0,657.0" style="stroke:#010101; fill:none;"/>
	<path d="M 165.0,653.0 L 165.0,654.0" style="stroke:#010101; fill:none;"/>
	<path d="M 947.0,657.0 C 953.681,671.327 971.747,683.95 983.0,695.0" style="stroke:#010101; fill:none;"/>
	<path d="M 950.0,658.0 L 948.0,660.0" style="stroke:#010101; fill:none;"/>
	<path d="M 932.0,659.0 L 931.0,663.0 L 933.0,661.0" style="stroke:#010101; fill:none;"/>
	<path d="M 983.0,662.0 L 1009.0,711.0 L 1011.0,703.0" style="stroke:#010101; fill:none;"/>
	<path d="M 931.0,663.0 C 933.592,689.009 945.047,715.967 956.756,739.0 C 960.604,746.569 965.205,759.015 973.0,763.0" style="stroke:#010101; fill:none;"/>
	<path d="M 172.0,664.0 L 181.0,681.0" style="stroke:#010101; fill:none;"/>
	<path d="M 103.0,672.0 C 113.193,690.384 115.116,716.817 121.67,737.0 C 125.052,747.416 132.637,762.039 132.4,773.0 C 132.307,777.329 129.622,781.572 129.171,786.0 C 127.471,802.659 125.756,819.336 124.17,836.0 C 122.885,849.5 129.425,874.013 121.0,885.0 C 100.784,864.784 88.3931,845.54 83.7539,817.0 C 82.3628,808.442 80.5003,798.457 83.0,790.0 L 84.0,793.0 L 84.0,794.0" style="stroke:#010101; fill:none;"/>
	<path d="M 102.0,673.0 L 105.0,717.0" style="stroke:#010101; fill:none;"/>
	<path d="M 1010.0,676.0 C 1024.96,707.997 1031.0,744.955 1031.0,780.0" style="stroke:#010101; fill:none;"/>
	<path d="M 227.0,680.0 L 217.0,693.0" style="stroke:#010101; fill:none;"/>
	<path d="M 181.0,682.0 L 182.0,683.0" style="stroke:#010101; fill:none;"/>
	<path d="M 220.0,684.0 L 216.0,691.0" style="stroke:#010101; fill:none;"/>
	<path d="M 230.0,686.0 L 217.0,700.0" style="stroke:#010101; fill:none;"/>
	<path d="M 1053.0,686.0 L 1105.0,694.0" style="stroke:#010101; fill:none;"/>
	<path d="M 236.0,687.0 L 254.0,712.0" style="stroke:#010101; fill:none;"/>
	<path d="M 965.0,693.0 L 992.0,719.0" style="stroke:#010101; fill:none;"/>
	<path d="M 214.0,694.0 L 216.0,695.0" style="stroke:#010101; fill:none;"/>
	<path d="M 989.0,694.0 L 992.0,697.0" style="stroke:#010101; fill:none;"/>
	<path d="M 988.0,695.0 L 990.0,697.0" style="stroke:#010101; fill:none;"/>
	<path d="M 215.0,696.0 L 211.0,702.0" style="stroke:#010101; fill:none;"/>
	<path d="M 223.0,700.0 L 231.0,696.0" style="stroke:#010101; fill:none;"/>
	<path d="M 1049.0,696.0 L 1062.0,697.873 L 1089.0,702.499 L 1149.0,725.0" style="stroke:#010101; fill:none;"/>
	<path d="M 990.0,698.0 L 994.0,700.0" style="stroke:#010101; fill:none;"/>
	<path d="M 1050.0,698.0 L 1053.0,711.0 C 1074.3,703.498 1098.95,716.89 1120.0,719.0" style="stroke:#010101; fill:none;"/>
	<path d="M 217.0,700.0 L 213.0,704.0" style="stroke:#010101; fill:none;"/>
	<path d="M 217.0,708.0 C 214.638,712.293 212.623,715.401 215.0,720.0" style="stroke:#010101; fill:none;"/>
	<path d="M 75.0,709.0 C 74.6024,726.922 76.2461,752.003 82.0,769.0 L 85.0,767.0" style="stroke:#010101; fill:none;"/>
	<path d="M 71.0,710.0 L 73.0,715.0" style="stroke:#010101; fill:none;"/>
	<path d="M 1009.0,712.0 C 1015.45,725.779 1024.03,744.593 1024.0,760.0" style="stroke:#010101; fill:none;"/>
	<path d="M 1052.0,712.0 L 1054.0,726.0" style="stroke:#010101; fill:none;"/>
	<path d="M 206.0,723.0 C 207.465,719.72 207.981,715.664 212.0,716.0" style="stroke:#010101; fill:none;"/>
	<path d="M 983.0,716.0 L 1013.0,758.0" style="stroke:#010101; fill:none;"/>
	<path d="M 213.0,718.0 L 203.0,738.0" style="stroke:#010101; fill:none;"/>
	<path d="M 110.0,719.0 C 100.441,739.44 91.3726,772.558 99.1327,794.83 C 104.944,811.509 120.95,822.749 121.0,841.0" style="stroke:#010101; fill:none;"/>
	<path d="M 1058.0,719.0 L 1092.0,750.0" style="stroke:#010101; fill:none;"/>
	<path d="M 996.0,723.0 L 1011.0,747.0" style="stroke:#010101; fill:none;"/>
	<path d="M 1067.0,734.0 L 1056.0,738.0" style="stroke:#010101; fill:none;"/>
	<path d="M 112.0,735.0 L 115.0,793.0" style="stroke:#010101; fill:none;"/>
	<path d="M 1068.0,736.0 L 1065.0,737.0" style="stroke:#010101; fill:none;"/>
	<path d="M 1068.0,739.0 L 1069.0,739.0" style="stroke:#010101; fill:none;"/>
	<path d="M 116.0,744.0 L 121.0,801.0" style="stroke:#010101; fill:none;"/>
	<path d="M 1011.0,747.0 L 1011.0,750.0" style="stroke:#010101; fill:none;"/>
	<path d="M 120.0,748.0 C 120.0,764.956 120.925,782.46 125.0,799.0" style="stroke:#010101; fill:none;"/>
	<path d="M 919.0,748.0 L 923.284,777.0 L 929.0,800.0" style="stroke:#010101; fill:none;"/>
	<path d="M 1099.0,748.0 C 1117.83,755.997 1134.74,758.503 1149.0,775.0" style="stroke:#010101; fill:none;"/>
	<path d="M 1068.0,749.0 C 1083.46,757.104 1102.2,758.352 1118.0,766.27 C 1130.82,772.695 1139.13,783.05 1149.0,793.0" style="stroke:#010101; fill:none;"/>
	<path d="M 159.0,751.0 L 182.0,795.0" style="stroke:#010101; fill:none;"/>
	<path d="M 1071.0,751.0 C 1074.01,758.954 1080.48,764.715 1084.66,772.0 C 1095.24,790.44 1104.08,813.568 1105.0,835.0" style="stroke:#010101; fill:none;"/>
	<path d="M 987.0,756.0 C 1001.46,777.459 1007.9,800.463 1009.0,826.0" style="stroke:#010101; fill:none;"/>
	<path d="M 124.0,757.0 L 125.0,785.0" style="stroke:#010101; fill:none;"/>
	<path d="M 993.0,757.0 C 996.376,764.24 1002.98,769.729 1006.74,777.0 C 1016.64,796.136 1016.65,814.145 1014.0,835.0" style="stroke:#010101; fill:none;"/>
	<path d="M 156.0,758.0 L 177.0,806.0" style="stroke:#010101; fill:none;"/>
	<path d="M 989.0,762.0 L 990.0,763.0" style="stroke:#010101; fill:none;"/>
	<path d="M 990.0,763.0 L 988.0,765.0" style="stroke:#010101; fill:none;"/>
	<path d="M 161.0,764.0 L 165.0,778.0" style="stroke:#010101; fill:none;"/>
	<path d="M 1059.0,765.0 C 1066.95,775.022 1072.18,785.787 1075.97,798.0 C 1076.72,800.399 1080.24,808.238 1076.64,809.67 C 1072.88,811.169 1062.07,803.387 1058.0,802.0" style="stroke:#010101; fill:none;"/>
	<path d="M 991.0,767.0 L 1006.0,814.0" style="stroke:#010101; fill:none;"/>
	<path d="M 82.0,769.0 L 83.0,790.0" style="stroke:#010101; fill:none;"/>
	<path d="M 133.0,776.0 L 148.053,817.0 L 171.0,879.0" style="stroke:#010101; fill:none;"/>
	<path d="M 915.0,776.0 C 915.0,823.546 908.648,872.484 913.17,920.0 C 914.782,936.944 923.812,951.529 927.765,968.0 C 932.346,987.09 931.531,1007.23 936.0,1026.0" style="stroke:#010101; fill:none;"/>
	<path d="M 164.0,779.0 L 165.0,782.0" style="stroke:#010101; fill:none;"/>
	<path d="M 923.0,781.0 L 919.0,826.0" style="stroke:#010101; fill:none;"/>
	<path d="M 98.0,798.0 C 98.0147,820.151 103.76,840.21 113.0,860.0" style="stroke:#010101; fill:none;"/>
	<path d="M 934.0,798.0 C 928.951,815.075 931.418,835.354 930.985,853.0 C 930.38,877.693 927.009,904.467 931.0,929.0" style="stroke:#010101; fill:none;"/>
	<path d="M 941.0,804.0 L 937.0,865.0 C 942.666,864.62 945.988,861.825 950.0,858.0" style="stroke:#010101; fill:none;"/>
	<path d="M 1026.0,808.0 L 1025.0,816.0" style="stroke:#010101; fill:none;"/>
	<path d="M 1079.0,811.0 L 1080.0,820.0" style="stroke:#010101; fill:none;"/>
	<path d="M 1024.0,817.0 L 1022.0,861.0" style="stroke:#010101; fill:none;"/>
	<path d="M 958.0,822.0 L 948.0,908.0" style="stroke:#010101; fill:none;"/>
	<path d="M 1030.0,825.0 L 1030.0,872.0" style="stroke:#010101; fill:none;"/>
	<path d="M 173.0,827.0 L 178.0,843.0" style="stroke:#010101; fill:none;"/>
	<path d="M 1048.0,829.0 C 1051.07,849.753 1065.06,846.047 1082.0,846.0" style="stroke:#010101; fill:none;"/>
	<path d="M 1072.0,831.0 L 1076.0,835.0" style="stroke:#010101; fill:none;"/>
	<path d="M 1102.0,836.0 C 1118.15,852.29 1131.27,874.03 1140.42,895.0 C 1143.61,902.296 1147.82,909.007 1149.0,917.0" style="stroke:#010101; fill:none;"/>
	<path d="M 1083.0,840.0 C 1101.63,884.941 1110.38,937.973 1082.0,981.0" style="stroke:#010101; fill:none;"/>
	<path d="M 176.0,842.0 C 181.461,884.285 200.479,927.541 215.811,967.0 C 221.53,981.719 233.616,998.242 235.0,1014.0" style="stroke:#010101; fill:none;"/>
	<path d="M 1035.0,842.0 L 1035.0,843.0" style="stroke:#010101; fill:none;"/>
	<path d="M 998.0,845.0 C 1006.34,859.985 1015.7,873.356 1020.79,890.0 C 1030.84,922.853 1025.28,954.642 1025.0,988.0" style="stroke:#010101; fill:none;"/>
	<path d="M 1038.0,845.0 C 1044.79,877.789 1053.35,910.428 1056.0,944.0" style="stroke:#010101; fill:none;"/>
	<path d="M 1053.0,845.0 C 1056.33,859.383 1059.55,876.439 1065.34,890.0 C 1073.92,910.12 1084.98,928.368 1085.0,951.0" style="stroke:#010101; fill:none;"/>
	<path d="M 1101.0,861.0 C 1107.42,880.733 1108.34,903.955 1102.0,924.0" style="stroke:#010101; fill:none;"/>
	<path d="M 1106.0,864.0 C 1122.27,887.819 1125.8,913.646 1127.04,942.0 C 1128.88,984.128 1125.44,1027.24 1089.0,1055.0" style="stroke:#010101; fill:none;"/>
	<path d="M 936.0,866.0 L 936.0,929.0" style="stroke:#010101; fill:none;"/>
	<path d="M 980.0,866.0 L 974.0,876.0" style="stroke:#010101; fill:none;"/>
	<path d="M 914.0,868.0 L 929.0,869.0" style="stroke:#010101; fill:none;"/>
	<path d="M 1023.0,870.0 L 1023.0,872.0" style="stroke:#010101; fill:none;"/>
	<path d="M 1042.0,871.0 L 1042.0,875.0" style="stroke:#010101; fill:none;"/>
	<path d="M 1043.0,876.0 L 1042.0,889.0" style="stroke:#010101; fill:none;"/>
	<path d="M 1022.0,877.0 L 1023.0,883.0 L 1024.0,876.0" style="stroke:#010101; fill:none;"/>
	<path d="M 1057.0,881.0 C 1058.93,891.809 1066.03,902.414 1069.48,913.0 C 1073.51,925.37 1074.61,938.159 1075.83,951.0 C 1076.62,959.299 1071.03,972.668 1077.0,979.0 C 1084.27,968.993 1089.75,957.851 1093.28,946.0 C 1094.62,941.496 1094.47,934.615 1100.0,934.0" style="stroke:#010101; fill:none;"/>
	<path d="M 125.0,883.0 C 123.998,899.937 128.263,918.262 130.728,935.0 C 135.91,970.174 142.458,1004.99 153.025,1039.0 C 164.51,1075.96 180.606,1111.51 186.576,1150.0 C 199.739,1234.87 176.248,1327.61 222.0,1406.0" style="stroke:#010101; fill:none;"/>
	<path d="M 165.0,883.0 C 160.343,895.412 160.8,909.005 159.91,922.0 C 157.061,963.618 164.725,1002.84 168.0,1044.0" style="stroke:#010101; fill:none;"/>
	<path d="M 1026.0,883.0 C 1028.33,895.858 1038.6,908.681 1042.12,922.0 C 1049.63,950.435 1046.76,981.954 1038.71,1010.0 C 1035.63,1020.72 1032.84,1032.03 1026.0,1041.0" style="stroke:#010101; fill:none;"/>
	<path d="M 123.0,886.0 L 124.0,886.0" style="stroke:#010101; fill:none;"/>
	<path d="M 1027.0,891.0 C 1035.7,927.438 1033.25,968.29 1028.13,1005.0 C 1025.85,1021.35 1024.3,1039.4 1016.0,1054.0" style="stroke:#010101; fill:none;"/>
	<path d="M 189.0,902.0 C 188.367,916.733 186.39,931.162 187.039,946.0 C 188.373,976.453 196.312,1004.36 206.0,1033.0" style="stroke:#010101; fill:none;"/>
	<path d="M 1098.0,923.0 L 1101.0,930.0" style="stroke:#010101; fill:none;"/>
	<path d="M 198.0,927.0 C 198.0,988.165 223.735,1045.08 227.91,1106.0 C 232.412,1171.67 219.59,1237.29 224.09,1303.0 C 225.819,1328.26 231.021,1352.82 238.435,1377.0 C 241.445,1386.81 246.634,1396.01 249.0,1406.0" style="stroke:#010101; fill:none;"/>
	<path d="M 1097.0,928.0 L 1097.0,933.0" style="stroke:#010101; fill:none;"/>
	<path d="M 913.0,933.0 C 913.986,950.178 909.962,969.195 906.6,986.0 C 900.32,1017.4 892.049,1048.82 881.308,1079.0 C 875.762,1094.58 866.15,1109.81 863.0,1126.0" style="stroke:#010101; fill:none;"/>
	<path d="M 921.0,934.0 C 925.725,961.461 937.997,985.201 938.0,1014.0" style="stroke:#010101; fill:none;"/>
	<path d="M 1096.0,936.0 L 1099.0,939.0" style="stroke:#010101; fill:none;"/>
	<path d="M 1095.0,940.0 L 1098.0,943.0" style="stroke:#010101; fill:none;"/>
	<path d="M 1051.0,942.0 C 1057.56,951.634 1057.98,966.621 1058.0,978.0 C 1058.05,1011.34 1043.06,1060.5 1013.0,1079.0" style="stroke:#010101; fill:none;"/>
	<path d="M 1094.0,944.0 L 1097.0,947.0" style="stroke:#010101; fill:none;"/>
	<path d="M 1093.0,947.0 L 1096.0,950.0" style="stroke:#010101; fill:none;"/>
	<path d="M 1092.0,950.0 L 1095.0,953.0" style="stroke:#010101; fill:none;"/>
	<path d="M 1091.0,953.0 L 1094.0,956.0" style="stroke:#010101; fill:none;"/>
	<path d="M 165.0,971.0 C 165.004,1008.57 180.337,1046.71 188.765,1083.0 C 197.985,1122.7 200.0,1162.45 200.0,1203.0" style="stroke:#010101; fill:none;"/>
	<path d="M 178.0,976.0 C 185.933,993.897 190.132,1014.06 194.873,1033.0 C 202.529,1063.58 209.881,1094.49 212.09,1126.0 C 213.277,1142.94 215.208,1162.53 210.0,1179.0 L 207.329,1147.0 L 201.576,1097.0 L 191.119,1042.0 L 184.0,1009.0" style="stroke:#010101; fill:none;"/>
	<path d="M 1149.0,976.0 C 1141.05,1016.85 1112.83,1063.56 1071.0,1075.0" style="stroke:#010101; fill:none;"/>
	<path d="M 1073.0,978.0 L 1073.0,980.0" style="stroke:#010101; fill:none;"/>
	<path d="M 1075.0,978.0 C 1073.98,1027.44 1042.23,1068.22 1007.0,1099.0" style="stroke:#010101; fill:none;"/>
	<path d="M 968.0,979.0 L 1008.0,1027.0" style="stroke:#010101; fill:none;"/>
	<path d="M 979.0,997.0 C 984.806,1011.94 995.565,1024.05 1006.0,1036.0" style="stroke:#010101; fill:none;"/>
	<path d="M 968.0,1000.0 C 983.237,1015.24 998.944,1031.71 1005.0,1053.0" style="stroke:#010101; fill:none;"/>
	<path d="M 905.0,1009.0 C 909.797,1021.12 906.061,1029.47 906.001,1042.0 C 905.897,1063.44 907.176,1082.64 917.0,1102.0" style="stroke:#010101; fill:none;"/>
	<path d="M 938.0,1016.0 L 938.0,1017.0" style="stroke:#010101; fill:none;"/>
	<path d="M 911.0,1018.0 L 910.0,1019.0" style="stroke:#010101; fill:none;"/>
	<path d="M 909.0,1022.0 L 910.0,1044.0 L 913.0,1091.0" style="stroke:#010101; fill:none;"/>
	<path d="M 956.0,1023.0 C 956.0,1063.87 963.563,1110.72 981.0,1148.0" style="stroke:#010101; fill:none;"/>
	<path d="M 913.0,1030.0 L 916.0,1069.0 C 921.395,1061.5 917.08,1051.5 916.0,1043.0" style="stroke:#010101; fill:none;"/>
	<path d="M 1032.0,1066.0 L 1035.0,1072.0" style="stroke:#010101; fill:none;"/>
	<path d="M 1049.0,1066.0 L 1063.67,1089.0 L 1088.83,1132.0 L 1098.67,1157.0 L 1099.0,1163.0" style="stroke:#010101; fill:none;"/>
	<path d="M 920.0,1068.0 L 918.0,1087.0 L 921.0,1078.0" style="stroke:#010101; fill:none;"/>
	<path d="M 1061.0,1068.0 L 1061.0,1069.0" style="stroke:#010101; fill:none;"/>
	<path d="M 916.0,1069.0 L 917.0,1078.0" style="stroke:#010101; fill:none;"/>
	<path d="M 1062.0,1071.0 C 1072.38,1097.73 1096.33,1120.16 1103.76,1147.96 C 1104.64,1151.25 1102.9,1154.61 1103.17,1158.0 C 1103.99,1168.27 1105.0,1178.69 1105.0,1189.0" style="stroke:#010101; fill:none;"/>
	<path d="M 1036.0,1075.0 C 1042.58,1088.84 1055.28,1096.06 1065.68,1106.22 C 1076.36,1116.66 1083.29,1131.02 1092.0,1143.0" style="stroke:#010101; fill:none;"/>
	<path d="M 1041.0,1079.0 L 1063.0,1102.0" style="stroke:#010101; fill:none;"/>
	<path d="M 919.0,1084.0 L 921.0,1085.0" style="stroke:#010101; fill:none;"/>
	<path d="M 922.0,1086.0 L 919.0,1095.0 L 918.0,1087.0" style="stroke:#010101; fill:none;"/>
	<path d="M 892.0,1092.0 L 899.0,1124.0 L 896.0,1114.0" style="stroke:#010101; fill:none;"/>
	<path d="M 912.0,1093.0 L 913.0,1094.0" style="stroke:#010101; fill:none;"/>
	<path d="M 922.0,1094.0 C 921.956,1109.84 919.283,1126.01 907.0,1137.0 L 899.0,1124.0" style="stroke:#010101; fill:none;"/>
	<path d="M 952.0,1097.0 C 952.0,1131.82 919.953,1163.13 887.0,1138.0 C 883.317,1146.11 889.628,1158.01 892.194,1166.0 C 900.755,1192.65 915.944,1218.92 930.0,1243.0" style="stroke:#010101; fill:none;"/>
	<path d="M 957.0,1100.0 C 955.88,1126.1 950.737,1160.7 969.0,1183.0" style="stroke:#010101; fill:none;"/>
	<path d="M 1062.0,1104.0 L 1065.0,1107.0" style="stroke:#010101; fill:none;"/>
	<path d="M 901.0,1105.0 L 901.0,1108.0" style="stroke:#010101; fill:none;"/>
	<path d="M 894.0,1107.0 L 894.0,1109.0" style="stroke:#010101; fill:none;"/>
	<path d="M 1065.0,1108.0 L 1066.0,1109.0" style="stroke:#010101; fill:none;"/>
	<path d="M 902.0,1110.0 C 902.716,1118.22 907.974,1124.87 902.0,1132.0" style="stroke:#010101; fill:none;"/>
	<path d="M 897.0,1111.0 L 897.0,1113.0" style="stroke:#010101; fill:none;"/>
	<path d="M 900.0,1123.0 L 900.0,1127.0" style="stroke:#010101; fill:none;"/>
	<path d="M 176.0,1125.0 C 176.108,1138.06 180.565,1150.98 181.83,1164.0 C 184.011,1186.45 183.001,1208.57 183.0,1231.0 C 182.999,1243.99 188.917,1262.62 175.0,1268.0" style="stroke:#010101; fill:none;"/>
	<path d="M 902.0,1127.0 L 904.0,1130.0" style="stroke:#010101; fill:none;"/>
	<path d="M 956.0,1128.0 L 955.0,1140.0" style="stroke:#010101; fill:none;"/>
	<path d="M 907.0,1130.0 L 903.0,1131.0" style="stroke:#010101; fill:none;"/>
	<path d="M 991.0,1131.0 L 979.0,1170.0 L 976.0,1184.0" style="stroke:#010101; fill:none;"/>
	<path d="M 880.0,1133.0 L 886.0,1138.0" style="stroke:#010101; fill:none;"/>
	<path d="M 907.0,1133.0 L 908.0,1135.0" style="stroke:#010101; fill:none;"/>
	<path d="M 997.0,1133.0 C 1024.02,1212.17 1055.28,1302.46 1008.0,1381.0 L 1010.0,1380.0" style="stroke:#010101; fill:none;"/>
	<path d="M 863.0,1134.0 L 863.0,1135.0" style="stroke:#010101; fill:none;"/>
	<path d="M 903.0,1134.0 L 904.0,1137.0" style="stroke:#010101; fill:none;"/>
	<path d="M 957.0,1140.0 L 957.0,1147.0" style="stroke:#010101; fill:none;"/>
	<path d="M 912.0,1148.0 L 914.0,1179.0" style="stroke:#010101; fill:none;"/>
	<path d="M 1102.0,1148.0 L 1102.0,1151.0" style="stroke:#010101; fill:none;"/>
	<path d="M 1105.0,1152.0 L 1132.76,1211.0 L 1141.0,1231.0" style="stroke:#010101; fill:none;"/>
	<path d="M 1105.0,1154.0 L 1106.0,1156.0" style="stroke:#010101; fill:none;"/>
	<path d="M 988.0,1155.0 C 1005.26,1193.95 1023.96,1235.99 1026.91,1279.0 C 1028.36,1300.12 1023.43,1320.18 1023.0,1341.0" style="stroke:#010101; fill:none;"/>
	<path d="M 1106.0,1156.0 L 1110.0,1165.0" style="stroke:#010101; fill:none;"/>
	<path d="M 1110.0,1165.0 L 1112.0,1170.0" style="stroke:#010101; fill:none;"/>
	<path d="M 1112.0,1171.0 L 1113.0,1172.0" style="stroke:#010101; fill:none;"/>
	<path d="M 1113.0,1173.0 L 1114.0,1174.0" style="stroke:#010101; fill:none;"/>
	<path d="M 1114.0,1175.0 L 1115.0,1176.0" style="stroke:#010101; fill:none;"/>
	<path d="M 1115.0,1177.0 L 1116.0,1178.0" style="stroke:#010101; fill:none;"/>
	<path d="M 210.0,1179.0 L 211.0,1192.0 L 213.0,1181.0" style="stroke:#010101; fill:none;"/>
	<path d="M 1116.0,1179.0 L 1117.0,1180.0" style="stroke:#010101; fill:none;"/>
	<path d="M 979.0,1180.0 L 978.0,1182.0" style="stroke:#010101; fill:none;"/>
	<path d="M 1117.0,1180.0 L 1118.0,1183.0" style="stroke:#010101; fill:none;"/>
	<path d="M 975.0,1185.0 L 960.0,1215.0 L 962.0,1214.0" style="stroke:#010101; fill:none;"/>
	<path d="M 1013.0,1186.0 L 1014.0,1190.0" style="stroke:#010101; fill:none;"/>
	<path d="M 1014.0,1191.0 L 1015.0,1192.0" style="stroke:#010101; fill:none;"/>
	<path d="M 211.0,1192.0 L 202.015,1265.0 L 216.0,1367.0" style="stroke:#010101; fill:none;"/>
	<path d="M 1017.0,1193.0 L 1015.0,1195.0" style="stroke:#010101; fill:none;"/>
	<path d="M 962.0,1210.0 L 964.0,1207.0" style="stroke:#010101; fill:none;"/>
	<path d="M 960.0,1217.0 L 934.0,1293.0" style="stroke:#010101; fill:none;"/>
	<path d="M 888.0,1226.0 C 890.08,1237.67 899.447,1252.14 906.0,1262.0" style="stroke:#010101; fill:none;"/>
	<path d="M 1143.0,1232.0 L 1147.0,1239.0 L 1146.0,1240.0 L 1143.0,1232.0" style="stroke:#010101; fill:none;"/>
	<path d="M 207.0,1233.0 C 206.653,1274.88 209.19,1314.86 218.499,1356.0 C 222.339,1372.97 229.105,1389.17 233.0,1406.0" style="stroke:#010101; fill:none;"/>
	<path d="M 1146.0,1240.0 L 1149.0,1248.0" style="stroke:#010101; fill:none;"/>
	<path d="M 951.0,1252.0 C 952.558,1262.14 965.144,1271.85 971.961,1279.0 C 982.965,1290.55 994.533,1306.49 999.0,1322.0" style="stroke:#010101; fill:none;"/>
	<path d="M 950.0,1257.0 C 948.942,1281.64 946.779,1305.35 950.427,1330.0 C 951.979,1340.48 960.686,1360.45 957.0,1370.0 C 946.008,1353.92 935.603,1326.31 933.0,1307.0" style="stroke:#010101; fill:none;"/>
	<path d="M 184.0,1266.0 C 184.0,1299.82 188.064,1335.05 195.884,1368.0 C 198.975,1381.02 204.493,1393.18 208.0,1406.0" style="stroke:#010101; fill:none;"/>
	<path d="M 919.0,1289.0 C 921.383,1302.41 928.914,1315.88 932.974,1329.0 C 940.51,1353.35 944.93,1380.52 945.0,1406.0" style="stroke:#010101; fill:none;"/>
	<path d="M 930.0,1290.0 L 932.0,1305.0" style="stroke:#010101; fill:none;"/>
	<path d="M 955.0,1295.0 C 981.633,1315.29 995.259,1343.67 1014.0,1370.0" style="stroke:#010101; fill:none;"/>
	<path d="M 958.0,1302.0 C 973.386,1324.64 987.086,1348.45 997.0,1374.0" style="stroke:#010101; fill:none;"/>
	<path d="M 999.0,1307.0 L 1014.0,1329.0" style="stroke:#010101; fill:none;"/>
	<path d="M 919.0,1323.0 L 928.0,1355.0" style="stroke:#010101; fill:none;"/>
	<path d="M 1030.0,1338.0 C 1049.88,1357.88 1072.99,1379.56 1084.0,1406.0" style="stroke:#010101; fill:none;"/>
	<path d="M 1022.0,1342.0 L 1022.0,1345.0" style="stroke:#010101; fill:none;"/>
	<path d="M 1021.0,1346.0 L 1021.0,1348.0" style="stroke:#010101; fill:none;"/>
	<path d="M 929.0,1357.0 L 929.0,1358.0" style="stroke:#010101; fill:none;"/>
	<path d="M 1030.0,1368.0 L 1044.0,1406.0" style="stroke:#010101; fill:none;"/>
	<path d="M 958.0,1369.0 L 960.0,1371.0 L 958.0,1373.0 L 957.0,1370.0" style="stroke:#010101; fill:none;"/>
	<path d="M 959.0,1372.0 L 961.0,1374.0 L 959.0,1376.0 L 958.0,1373.0" style="stroke:#010101; fill:none;"/>
	<path d="M 961.0,1376.0 L 961.0,1381.0 L 959.0,1377.0" style="stroke:#010101; fill:none;"/>
	<path d="M 1037.0,1380.0 L 1057.0,1406.0" style="stroke:#010101; fill:none;"/>
	<path d="M 963.0,1381.0 L 978.0,1406.0" style="stroke:#010101; fill:none;"/>
	<path d="M 1008.0,1381.0 L 988.0,1406.0" style="stroke:#010101; fill:none;"/>
	<path d="M 961.0,1382.0 L 962.0,1383.0" style="stroke:#010101; fill:none;"/>
	<path d="M 1008.0,1383.0 L 997.0,1406.0" style="stroke:#010101; fill:none;"/>
	<path d="M 962.0,1384.0 L 963.0,1385.0" style="stroke:#010101; fill:none;"/>
	<path d="M 963.0,1385.0 L 964.0,1388.0" style="stroke:#010101; fill:none;"/>
	<path d="M 964.0,1389.0 L 965.0,1390.0" style="stroke:#010101; fill:none;"/>
	<path d="M 965.0,1391.0 L 966.0,1392.0" style="stroke:#010101; fill:none;"/>
	<path d="M 966.0,1392.0 L 971.0,1401.0" style="stroke:#010101; fill:none;"/>
	<path d="M 937.0,1402.0 L 938.0,1406.0" style="stroke:#010101; fill:none;"/>
</svg>
