<?xml version="1.0" ?>
<svg baseProfile="full" height="1195" version="1.1" width="1310" xmlns="http://www.w3.org/2000/svg" xmlns:ev="http://www.w3.org/2001/xml-events" xmlns:xlink="http://www.w3.org/1999/xlink">
	<defs/>
	<path d="M 627.0,40.0 C 631.158,32.0702 645.927,30.8024 654.0,29.1998 C 680.404,23.9585 713.757,25.226 738.0,38.0 C 729.058,44.8569 707.231,40.0 696.0,40.0 C 665.241,40.0 635.401,40.0729 605.0,44.5725 C 594.156,46.1776 577.062,47.613 569.0,55.0" style="stroke:#010101; fill:none;"/>
	<path d="M 544.0,43.0 L 542.0,39.0 C 551.87,36.8898 564.073,45.3376 573.0,49.0" style="stroke:#010101; fill:none;"/>
	<path d="M 739.0,38.0 C 746.759,46.2362 761.453,47.1503 772.0,50.6666 C 793.414,57.8062 813.833,67.1636 834.0,77.2469 C 887.029,103.761 930.465,145.162 963.656,194.0 C 974.552,210.033 983.351,227.36 991.306,245.0 C 993.821,250.579 1000.49,256.926 999.0,263.0 L 996.0,256.0" style="stroke:#010101; fill:none;"/>
	<path d="M 736.0,42.0 L 741.0,43.0" style="stroke:#010101; fill:none;"/>
	<path d="M 538.0,87.0 C 531.58,81.7759 523.045,71.4596 514.0,73.0 L 529.0,88.0 L 528.0,89.0 C 516.716,79.8031 495.05,77.5913 481.0,75.5795 C 473.548,74.5125 467.101,76.1597 461.0,71.0 C 474.83,61.1798 489.755,58.2438 506.0,54.7893 C 527.508,50.2156 548.44,45.6991 570.0,53.0" style="stroke:#010101; fill:none;"/>
	<path d="M 581.0,52.0 C 589.901,58.3296 602.941,54.3107 614.0,58.0 C 635.486,65.1676 655.697,77.5416 675.0,89.2037 C 700.517,104.62 725.321,123.105 748.0,142.427 C 760.074,152.714 770.813,166.613 784.0,175.35 C 787.786,177.858 792.846,178.122 797.0,180.0 C 794.782,188.079 803.334,192.432 807.0,198.0 L 807.0,200.0 L 808.0,199.0" style="stroke:#010101; fill:none;"/>
	<path d="M 591.0,57.0 C 612.038,74.2883 641.453,84.2566 665.0,98.0" style="stroke:#010101; fill:none;"/>
	<path d="M 629.0,63.0 C 634.908,59.8472 641.531,61.4778 648.0,60.7145 C 676.431,57.3599 703.151,63.9169 730.0,72.4954 C 738.668,75.2648 752.162,76.8633 759.0,83.0" style="stroke:#010101; fill:none;"/>
	<path d="M 554.0,63.0 C 559.165,59.1074 566.78,62.723 572.0,65.2593 C 585.428,71.7832 605.523,85.2208 612.0,99.0 L 610.0,97.0" style="stroke:#010101; fill:none;"/>
	<path d="M 716.0,61.0 L 761.0,74.0" style="stroke:#010101; fill:none;"/>
	<path d="M 537.0,63.0 C 546.722,65.5228 553.79,69.9437 561.0,77.0" style="stroke:#010101; fill:none;"/>
	<path d="M 549.0,64.0 L 568.0,74.0" style="stroke:#010101; fill:none;"/>
	<path d="M 721.0,66.0 L 758.0,78.0" style="stroke:#010101; fill:none;"/>
	<path d="M 549.0,90.0 L 527.0,72.0 C 536.798,65.6031 552.979,83.9027 561.0,89.0" style="stroke:#010101; fill:none;"/>
	<path d="M 464.0,70.0 L 473.0,71.0" style="stroke:#010101; fill:none;"/>
	<path d="M 519.0,70.0 L 526.0,72.0" style="stroke:#010101; fill:none;"/>
	<path d="M 647.0,72.0 C 656.324,67.0242 675.312,71.7202 685.0,75.0" style="stroke:#010101; fill:none;"/>
	<path d="M 456.0,75.0 L 447.0,75.0 L 461.0,71.0" style="stroke:#010101; fill:none;"/>
	<path d="M 502.0,72.0 L 514.0,73.0" style="stroke:#010101; fill:none;"/>
	<path d="M 408.0,97.0 L 400.0,96.0 C 409.562,83.6184 431.219,77.0508 446.0,74.0" style="stroke:#010101; fill:none;"/>
	<path d="M 518.0,106.0 L 476.0,81.0278 L 463.0,75.0" style="stroke:#010101; fill:none;"/>
	<path d="M 456.0,76.0 L 461.0,76.0" style="stroke:#010101; fill:none;"/>
	<path d="M 756.0,81.0 L 758.0,81.0" style="stroke:#010101; fill:none;"/>
	<path d="M 760.0,83.0 L 795.0,99.0" style="stroke:#010101; fill:none;"/>
	<path d="M 529.0,87.0 L 548.0,101.0" style="stroke:#010101; fill:none;"/>
	<path d="M 472.0,88.0 C 479.953,115.608 506.863,135.332 527.0,154.089 C 542.856,168.86 556.342,186.087 571.0,202.0" style="stroke:#010101; fill:none;"/>
	<path d="M 626.0,89.0 C 648.412,114.654 672.489,138.775 693.102,166.0 C 717.882,198.73 738.911,234.72 758.0,271.0" style="stroke:#010101; fill:none;"/>
	<path d="M 609.0,94.0 L 609.0,96.0" style="stroke:#010101; fill:none;"/>
	<path d="M 400.0,96.0 C 392.707,101.842 382.625,103.172 374.0,106.425 C 360.731,111.429 347.766,117.917 336.0,125.849 C 319.764,136.794 297.553,159.489 290.248,178.0 C 288.638,182.08 289.488,186.711 288.575,191.0 C 282.676,218.716 287.602,248.441 307.0,270.0" style="stroke:#010101; fill:none;"/>
	<path d="M 419.0,98.0 C 458.666,122.701 490.807,158.979 522.093,193.0 C 538.388,210.719 556.051,227.091 572.169,245.0 C 584.864,259.105 597.116,273.556 609.421,288.0 C 616.531,296.345 625.125,304.674 629.0,315.0 L 628.0,312.0" style="stroke:#010101; fill:none;"/>
	<path d="M 614.0,98.0 C 615.753,105.92 621.588,111.619 626.373,118.0 C 634.17,128.396 641.515,139.02 648.471,150.0 C 665.531,176.931 679.857,205.544 692.011,235.0 C 698.462,250.635 705.817,267.096 708.0,284.0" style="stroke:#010101; fill:none;"/>
	<path d="M 612.0,100.0 L 614.0,102.0" style="stroke:#010101; fill:none;"/>
	<path d="M 829.0,100.0 C 840.322,105.356 849.287,115.245 857.999,124.0 C 880.241,146.35 897.825,172.533 915.0,198.0" style="stroke:#010101; fill:none;"/>
	<path d="M 579.0,105.0 C 581.153,120.989 588.894,135.576 595.702,150.0 C 610.398,181.133 627.709,216.607 650.0,243.0 L 644.0,238.0" style="stroke:#010101; fill:none;"/>
	<path d="M 599.0,107.0 C 607.956,118.755 619.855,128.204 629.911,139.0 C 644.957,155.154 659.438,175.543 668.0,196.0" style="stroke:#010101; fill:none;"/>
	<path d="M 416.0,110.0 C 411.46,125.366 427.492,145.297 436.0,157.0" style="stroke:#010101; fill:none;"/>
	<path d="M 718.0,113.0 C 728.362,120.082 742.324,122.059 754.0,126.424 C 773.399,133.678 791.928,142.773 810.0,152.86 C 818.133,157.4 833.855,171.414 843.0,170.0 L 824.0,152.0" style="stroke:#010101; fill:none;"/>
	<path d="M 488.0,118.0 L 489.0,119.0" style="stroke:#010101; fill:none;"/>
	<path d="M 489.0,119.0 C 492.045,127.033 498.23,133.915 503.0,141.0 C 515.866,160.112 530.731,178.686 547.0,195.0" style="stroke:#010101; fill:none;"/>
	<path d="M 704.0,124.0 L 750.0,168.0 L 752.0,166.0 L 739.0,153.0" style="stroke:#010101; fill:none;"/>
	<path d="M 708.0,127.0 L 710.0,127.0" style="stroke:#010101; fill:none;"/>
	<path d="M 349.0,170.0 C 349.246,181.547 356.86,191.189 363.651,200.0 C 374.881,214.569 387.812,228.027 402.0,239.75 C 408.892,245.445 417.862,249.67 424.0,256.0 C 413.601,257.544 398.794,250.133 390.0,244.988 C 363.936,229.741 340.606,207.124 336.131,176.0 C 334.318,163.39 331.766,132.304 347.0,127.0" style="stroke:#010101; fill:none;"/>
	<path d="M 412.0,127.0 C 430.887,169.397 462.568,196.228 496.0,227.0 L 498.0,225.0 L 454.0,179.0" style="stroke:#010101; fill:none;"/>
	<path d="M 378.0,129.0 L 394.0,158.0 L 394.0,155.0" style="stroke:#010101; fill:none;"/>
	<path d="M 467.0,140.0 C 469.286,166.179 492.644,193.013 509.0,212.0 C 512.371,215.914 522.765,230.862 528.0,230.0" style="stroke:#010101; fill:none;"/>
	<path d="M 569.0,140.0 C 582.8,163.734 594.327,188.224 610.026,211.0 C 632.765,243.992 659.494,270.746 690.0,296.0" style="stroke:#010101; fill:none;"/>
	<path d="M 838.0,143.0 L 897.0,211.0 L 882.0,196.0" style="stroke:#010101; fill:none;"/>
	<path d="M 726.0,146.0 C 732.62,160.854 748.021,174.625 758.374,187.17 C 770.411,201.754 779.991,218.12 791.529,233.0 C 799.132,242.806 808.603,250.982 816.105,261.0 C 848.467,304.216 867.388,354.244 889.0,403.0" style="stroke:#010101; fill:none;"/>
	<path d="M 472.0,147.0 C 480.945,175.769 507.485,207.55 528.0,229.0" style="stroke:#010101; fill:none;"/>
	<path d="M 476.0,149.0 L 515.449,206.0 L 550.0,248.0" style="stroke:#010101; fill:none;"/>
	<path d="M 827.0,149.0 L 882.0,205.0 L 871.695,194.608 L 843.0,170.0" style="stroke:#010101; fill:none;"/>
	<path d="M 835.0,149.0 C 845.926,162.417 860.862,178.041 875.0,188.0" style="stroke:#010101; fill:none;"/>
	<path d="M 662.0,156.0 L 702.208,226.0 L 726.0,281.0 L 725.0,269.0" style="stroke:#010101; fill:none;"/>
	<path d="M 396.0,157.0 C 427.915,193.882 454.801,235.406 498.0,260.575 C 519.627,273.175 542.612,277.604 566.0,285.0" style="stroke:#010101; fill:none;"/>
	<path d="M 418.0,157.0 C 424.583,171.989 439.621,184.621 451.0,196.0 C 479.921,224.921 511.981,250.632 548.0,270.231 C 558.504,275.946 569.029,281.638 580.0,286.424 C 584.939,288.579 589.487,291.803 595.0,291.0 L 566.0,266.611 L 556.0,261.0" style="stroke:#010101; fill:none;"/>
	<path d="M 394.0,158.0 C 395.66,170.844 402.025,182.574 407.753,194.0 C 424.119,226.647 449.894,260.914 489.0,264.0" style="stroke:#010101; fill:none;"/>
	<path d="M 697.0,158.0 C 719.704,177.706 733.707,211.744 747.258,238.0 C 753.325,249.753 761.955,260.844 767.0,273.0 L 765.0,271.0" style="stroke:#010101; fill:none;"/>
	<path d="M 509.0,161.0 C 513.502,174.572 528.439,186.479 537.714,197.0 C 557.609,219.566 579.652,241.055 602.0,261.169 C 612.689,270.79 623.436,281.841 636.0,289.0 L 614.004,264.0 L 581.925,229.0 L 560.0,201.0" style="stroke:#010101; fill:none;"/>
	<path d="M 758.0,163.0 C 778.3,189.644 805.327,213.324 829.0,237.0" style="stroke:#010101; fill:none;"/>
	<path d="M 752.0,166.0 L 764.0,181.0 L 766.0,179.0 L 756.0,169.0" style="stroke:#010101; fill:none;"/>
	<path d="M 767.0,166.0 C 785.448,186.043 802.213,209.771 825.0,225.0 L 822.0,224.0" style="stroke:#010101; fill:none;"/>
	<path d="M 751.0,168.0 L 754.0,171.0" style="stroke:#010101; fill:none;"/>
	<path d="M 843.0,173.0 L 845.0,173.0" style="stroke:#010101; fill:none;"/>
	<path d="M 615.0,178.0 L 635.849,211.0 L 645.0,220.0" style="stroke:#010101; fill:none;"/>
	<path d="M 790.0,178.0 L 787.0,179.0" style="stroke:#010101; fill:none;"/>
	<path d="M 305.0,179.0 C 305.0,216.606 336.937,250.37 372.0,260.29 C 381.312,262.925 397.078,267.756 406.0,263.0 C 401.559,258.013 389.517,256.662 383.0,254.192 C 367.186,248.198 356.518,242.635 346.0,229.0" style="stroke:#010101; fill:none;"/>
	<path d="M 766.0,179.0 L 776.0,189.0 L 770.0,185.0" style="stroke:#010101; fill:none;"/>
	<path d="M 795.0,179.0 L 788.0,181.0" style="stroke:#010101; fill:none;"/>
	<path d="M 798.0,180.0 L 836.0,216.0" style="stroke:#010101; fill:none;"/>
	<path d="M 793.0,181.0 L 798.0,191.0" style="stroke:#010101; fill:none;"/>
	<path d="M 281.0,319.0 C 269.592,309.548 264.643,289.519 259.783,276.0 C 258.195,271.581 254.347,265.698 254.658,261.0 C 255.622,246.46 264.421,229.404 269.8,216.0 C 274.257,204.895 279.129,190.351 288.0,182.0" style="stroke:#010101; fill:none;"/>
	<path d="M 766.0,182.0 L 767.0,182.0" style="stroke:#010101; fill:none;"/>
	<path d="M 792.0,182.0 L 794.0,184.0" style="stroke:#010101; fill:none;"/>
	<path d="M 768.0,184.0 L 769.0,185.0" style="stroke:#010101; fill:none;"/>
	<path d="M 939.0,184.0 L 975.0,251.0" style="stroke:#010101; fill:none;"/>
	<path d="M 286.0,185.0 L 289.0,188.0" style="stroke:#010101; fill:none;"/>
	<path d="M 808.0,185.0 C 820.093,192.066 831.642,198.442 842.0,208.089 C 871.118,235.21 890.121,275.275 900.86,313.0 C 904.5,325.789 908.425,338.602 909.0,352.0" style="stroke:#010101; fill:none;"/>
	<path d="M 798.0,187.0 L 796.0,189.0" style="stroke:#010101; fill:none;"/>
	<path d="M 408.0,188.0 C 420.125,204.879 433.294,221.294 448.0,236.0 C 453.64,241.64 459.651,249.071 468.0,250.0" style="stroke:#010101; fill:none;"/>
	<path d="M 875.0,188.0 L 878.0,191.0" style="stroke:#010101; fill:none;"/>
	<path d="M 777.0,189.0 L 781.0,195.0 L 781.0,193.0" style="stroke:#010101; fill:none;"/>
	<path d="M 579.0,191.0 L 618.833,244.0 L 630.0,264.0 L 627.0,255.0" style="stroke:#010101; fill:none;"/>
	<path d="M 775.0,191.0 L 777.0,192.0" style="stroke:#010101; fill:none;"/>
	<path d="M 777.0,192.0 L 779.0,194.0" style="stroke:#010101; fill:none;"/>
	<path d="M 819.0,192.0 L 820.0,196.0 L 823.0,193.0" style="stroke:#010101; fill:none;"/>
	<path d="M 878.0,192.0 L 881.0,196.0" style="stroke:#010101; fill:none;"/>
	<path d="M 323.0,246.0 C 310.1,236.165 292.387,210.394 305.0,194.0" style="stroke:#010101; fill:none;"/>
	<path d="M 782.0,194.0 L 788.0,200.0 L 784.0,198.0" style="stroke:#010101; fill:none;"/>
	<path d="M 782.0,197.0 L 783.0,198.0" style="stroke:#010101; fill:none;"/>
	<path d="M 804.0,197.0 L 806.0,199.0" style="stroke:#010101; fill:none;"/>
	<path d="M 820.0,197.0 L 838.0,213.0" style="stroke:#010101; fill:none;"/>
	<path d="M 487.0,198.0 C 495.117,206.812 504.79,221.417 516.0,226.0 L 519.0,223.0" style="stroke:#010101; fill:none;"/>
	<path d="M 916.0,199.0 L 919.0,200.0 L 916.0,203.0 L 914.0,200.0" style="stroke:#010101; fill:none;"/>
	<path d="M 639.0,199.0 L 664.333,238.0 L 675.0,253.0 L 671.0,248.0" style="stroke:#010101; fill:none;"/>
	<path d="M 809.0,199.0 C 811.307,202.2 812.016,204.988 816.0,203.0 L 812.0,202.0" style="stroke:#010101; fill:none;"/>
	<path d="M 631.0,200.0 L 645.0,219.0" style="stroke:#010101; fill:none;"/>
	<path d="M 916.0,200.0 L 922.0,206.0 L 918.0,206.0" style="stroke:#010101; fill:none;"/>
	<path d="M 480.0,201.0 L 536.0,250.0 C 524.763,250.496 517.749,234.186 507.0,235.0 L 497.0,227.0" style="stroke:#010101; fill:none;"/>
	<path d="M 788.0,201.0 L 819.0,234.0" style="stroke:#010101; fill:none;"/>
	<path d="M 807.0,201.0 L 811.0,203.0" style="stroke:#010101; fill:none;"/>
	<path d="M 653.0,203.0 L 672.0,245.0" style="stroke:#010101; fill:none;"/>
	<path d="M 816.0,203.0 L 833.0,218.0" style="stroke:#010101; fill:none;"/>
	<path d="M 372.0,204.0 C 388.865,226.751 410.598,235.691 434.0,248.849 C 440.55,252.531 445.709,259.333 452.0,263.653 C 469.657,275.777 485.202,279.172 506.0,279.0" style="stroke:#010101; fill:none;"/>
	<path d="M 425.0,204.0 C 440.138,221.341 456.736,240.456 477.0,252.0" style="stroke:#010101; fill:none;"/>
	<path d="M 916.0,204.0 L 917.0,205.0" style="stroke:#010101; fill:none;"/>
	<path d="M 883.0,205.0 L 915.0,239.0" style="stroke:#010101; fill:none;"/>
	<path d="M 499.0,206.0 C 506.065,214.675 516.579,228.74 527.0,233.0 L 528.0,230.0" style="stroke:#010101; fill:none;"/>
	<path d="M 923.0,206.0 L 922.0,209.0 L 920.0,209.0" style="stroke:#010101; fill:none;"/>
	<path d="M 674.0,207.0 C 704.909,249.675 710.598,311.79 720.801,362.0 C 727.401,394.48 738.765,427.206 743.0,460.0 L 731.0,449.0 C 731.566,437.275 722.212,424.1 718.515,413.0 C 714.633,401.341 715.506,386.177 710.277,375.349 C 707.349,369.285 699.595,362.62 695.373,357.0 C 682.411,339.745 668.386,321.066 652.0,307.0" style="stroke:#010101; fill:none;"/>
	<path d="M 813.0,207.0 L 834.667,228.0 L 834.0,226.0" style="stroke:#010101; fill:none;"/>
	<path d="M 883.0,207.0 L 885.0,209.0" style="stroke:#010101; fill:none;"/>
	<path d="M 918.0,207.0 L 919.0,208.0" style="stroke:#010101; fill:none;"/>
	<path d="M 691.0,208.0 L 694.0,211.0" style="stroke:#010101; fill:none;"/>
	<path d="M 885.0,209.0 L 891.0,215.0" style="stroke:#010101; fill:none;"/>
	<path d="M 925.0,209.0 L 920.0,210.0" style="stroke:#010101; fill:none;"/>
	<path d="M 922.0,210.0 L 925.0,213.0 L 924.0,210.0" style="stroke:#010101; fill:none;"/>
	<path d="M 619.0,211.0 L 643.0,238.0" style="stroke:#010101; fill:none;"/>
	<path d="M 817.0,211.0 L 820.0,212.0" style="stroke:#010101; fill:none;"/>
	<path d="M 299.0,270.0 C 294.784,267.321 288.907,263.997 286.14,259.741 C 284.151,256.683 284.081,252.503 283.579,249.0 C 282.237,239.628 278.036,219.432 285.0,212.0" style="stroke:#010101; fill:none;"/>
	<path d="M 695.0,212.0 L 695.0,214.0" style="stroke:#010101; fill:none;"/>
	<path d="M 918.0,212.0 L 929.0,232.0" style="stroke:#010101; fill:none;"/>
	<path d="M 927.0,212.0 L 928.0,215.0" style="stroke:#010101; fill:none;"/>
	<path d="M 617.0,213.0 C 629.568,230.496 645.323,252.514 663.0,265.0 L 665.0,263.0 L 650.0,244.0" style="stroke:#010101; fill:none;"/>
	<path d="M 896.0,213.0 L 899.0,216.0" style="stroke:#010101; fill:none;"/>
	<path d="M 922.0,213.0 L 926.0,216.0" style="stroke:#010101; fill:none;"/>
	<path d="M 818.0,214.0 L 822.0,222.0" style="stroke:#010101; fill:none;"/>
	<path d="M 710.0,215.0 L 736.64,266.998 L 745.0,281.0 L 741.0,274.0" style="stroke:#010101; fill:none;"/>
	<path d="M 923.0,215.0 L 925.0,217.0" style="stroke:#010101; fill:none;"/>
	<path d="M 929.0,215.0 L 928.0,218.0 L 925.0,215.0" style="stroke:#010101; fill:none;"/>
	<path d="M 512.0,216.0 L 510.0,218.0" style="stroke:#010101; fill:none;"/>
	<path d="M 694.0,216.0 L 696.0,216.0" style="stroke:#010101; fill:none;"/>
	<path d="M 891.0,216.0 L 892.0,217.0" style="stroke:#010101; fill:none;"/>
	<path d="M 695.0,217.0 L 697.0,221.0" style="stroke:#010101; fill:none;"/>
	<path d="M 911.0,217.0 L 917.0,228.0" style="stroke:#010101; fill:none;"/>
	<path d="M 925.0,217.0 C 926.805,220.63 928.231,221.676 932.0,220.0 L 928.0,221.0" style="stroke:#010101; fill:none;"/>
	<path d="M 919.0,218.0 L 920.0,220.0" style="stroke:#010101; fill:none;"/>
	<path d="M 306.0,219.0 L 329.0,248.0" style="stroke:#010101; fill:none;"/>
	<path d="M 928.0,219.0 L 930.0,221.0" style="stroke:#010101; fill:none;"/>
	<path d="M 418.0,220.0 C 429.954,245.269 456.612,265.997 485.0,266.0" style="stroke:#010101; fill:none;"/>
	<path d="M 916.0,220.0 C 922.327,234.496 933.672,248.176 944.0,260.0" style="stroke:#010101; fill:none;"/>
	<path d="M 932.0,220.0 L 934.0,222.0 L 932.0,224.0 L 930.0,222.0" style="stroke:#010101; fill:none;"/>
	<path d="M 920.0,221.0 L 922.0,223.0" style="stroke:#010101; fill:none;"/>
	<path d="M 302.0,222.0 L 303.0,224.0" style="stroke:#010101; fill:none;"/>
	<path d="M 647.0,222.0 L 664.0,249.0 L 662.0,247.0" style="stroke:#010101; fill:none;"/>
	<path d="M 697.0,222.0 L 699.0,222.0" style="stroke:#010101; fill:none;"/>
	<path d="M 645.0,223.0 L 647.0,225.0" style="stroke:#010101; fill:none;"/>
	<path d="M 698.0,223.0 C 703.229,242.119 713.995,262.336 723.0,280.0" style="stroke:#010101; fill:none;"/>
	<path d="M 303.0,224.0 C 303.167,244.185 312.506,260.99 331.0,269.0" style="stroke:#010101; fill:none;"/>
	<path d="M 922.0,224.0 L 924.0,226.0" style="stroke:#010101; fill:none;"/>
	<path d="M 929.0,224.0 L 933.0,226.0 L 934.0,223.0" style="stroke:#010101; fill:none;"/>
	<path d="M 499.0,225.0 L 503.0,229.0" style="stroke:#010101; fill:none;"/>
	<path d="M 522.0,225.0 L 518.0,228.0 L 525.0,235.0" style="stroke:#010101; fill:none;"/>
	<path d="M 516.0,226.0 L 518.0,228.0" style="stroke:#010101; fill:none;"/>
	<path d="M 647.0,226.0 L 649.0,228.0" style="stroke:#010101; fill:none;"/>
	<path d="M 825.0,226.0 L 844.0,255.0" style="stroke:#010101; fill:none;"/>
	<path d="M 930.0,226.0 L 933.0,229.0 L 932.0,226.0" style="stroke:#010101; fill:none;"/>
	<path d="M 936.0,226.0 L 936.0,234.0 L 933.0,230.0" style="stroke:#010101; fill:none;"/>
	<path d="M 924.0,227.0 L 925.0,228.0" style="stroke:#010101; fill:none;"/>
	<path d="M 935.0,228.0 L 936.0,231.0" style="stroke:#010101; fill:none;"/>
	<path d="M 649.0,229.0 L 652.0,232.0" style="stroke:#010101; fill:none;"/>
	<path d="M 725.0,229.0 L 742.0,273.0" style="stroke:#010101; fill:none;"/>
	<path d="M 835.0,229.0 C 838.847,239.148 854.604,251.721 852.0,263.0 L 853.0,264.0 L 854.0,261.0" style="stroke:#010101; fill:none;"/>
	<path d="M 925.0,229.0 L 928.0,230.0" style="stroke:#010101; fill:none;"/>
	<path d="M 905.0,230.0 C 922.443,261.45 950.676,287.372 962.333,322.0 C 966.452,334.239 971.914,351.364 964.0,363.0 C 953.82,348.362 945.737,328.848 931.0,318.0 C 927.786,328.834 939.846,350.008 943.0,361.0 C 949.14,382.395 954.123,404.042 957.561,426.0 C 959.97,441.388 960.765,458.507 967.0,473.0" style="stroke:#010101; fill:none;"/>
	<path d="M 502.0,231.0 L 505.0,232.0" style="stroke:#010101; fill:none;"/>
	<path d="M 506.0,231.0 L 508.0,233.0" style="stroke:#010101; fill:none;"/>
	<path d="M 530.0,231.0 L 532.0,241.0 L 520.0,227.0" style="stroke:#010101; fill:none;"/>
	<path d="M 920.0,231.0 L 921.0,236.0" style="stroke:#010101; fill:none;"/>
	<path d="M 929.0,231.0 L 929.0,232.0" style="stroke:#010101; fill:none;"/>
	<path d="M 939.0,232.0 L 941.0,236.0 L 936.0,235.0" style="stroke:#010101; fill:none;"/>
	<path d="M 652.0,233.0 L 654.0,235.0" style="stroke:#010101; fill:none;"/>
	<path d="M 278.0,234.0 C 274.84,247.12 277.828,259.035 280.0,272.0 L 278.0,271.0" style="stroke:#010101; fill:none;"/>
	<path d="M 531.0,234.0 L 528.0,237.0" style="stroke:#010101; fill:none;"/>
	<path d="M 931.0,234.0 L 929.0,235.0" style="stroke:#010101; fill:none;"/>
	<path d="M 938.0,234.0 L 940.0,239.0 L 942.0,237.0" style="stroke:#010101; fill:none;"/>
	<path d="M 528.0,235.0 L 525.0,236.0" style="stroke:#010101; fill:none;"/>
	<path d="M 530.0,235.0 L 530.0,237.0" style="stroke:#010101; fill:none;"/>
	<path d="M 533.0,235.0 C 536.17,238.385 537.468,240.341 537.0,245.0 L 538.0,246.0 L 534.0,240.0" style="stroke:#010101; fill:none;"/>
	<path d="M 965.0,235.0 L 965.0,237.0" style="stroke:#010101; fill:none;"/>
	<path d="M 509.0,236.0 L 510.0,236.0" style="stroke:#010101; fill:none;"/>
	<path d="M 654.0,236.0 L 655.0,237.0" style="stroke:#010101; fill:none;"/>
	<path d="M 932.0,237.0 L 950.0,260.0" style="stroke:#010101; fill:none;"/>
	<path d="M 942.0,237.0 L 953.0,253.0 L 950.0,251.0" style="stroke:#010101; fill:none;"/>
	<path d="M 940.0,239.0 L 943.0,242.0" style="stroke:#010101; fill:none;"/>
	<path d="M 966.0,239.0 C 976.879,267.049 987.951,294.765 990.83,325.0 C 991.878,336.006 989.65,347.109 990.209,358.0 C 990.946,372.342 995.209,387.892 991.0,402.0" style="stroke:#010101; fill:none;"/>
	<path d="M 269.0,240.0 C 257.199,263.513 273.073,292.548 292.0,306.0" style="stroke:#010101; fill:none;"/>
	<path d="M 538.0,240.0 L 535.0,243.0" style="stroke:#010101; fill:none;"/>
	<path d="M 532.0,242.0 L 535.0,243.0" style="stroke:#010101; fill:none;"/>
	<path d="M 537.0,241.0 L 537.0,243.0" style="stroke:#010101; fill:none;"/>
	<path d="M 540.0,241.0 L 542.0,243.0" style="stroke:#010101; fill:none;"/>
	<path d="M 797.0,241.0 L 799.0,243.0" style="stroke:#010101; fill:none;"/>
	<path d="M 934.0,242.0 L 936.0,244.0" style="stroke:#010101; fill:none;"/>
	<path d="M 430.0,243.0 L 433.0,246.0" style="stroke:#010101; fill:none;"/>
	<path d="M 756.0,243.0 L 782.0,294.0 L 768.0,274.0" style="stroke:#010101; fill:none;"/>
	<path d="M 799.0,243.0 L 815.576,272.0 L 839.0,316.0" style="stroke:#010101; fill:none;"/>
	<path d="M 943.0,243.0 L 946.0,247.0" style="stroke:#010101; fill:none;"/>
	<path d="M 950.0,244.0 L 952.0,250.0" style="stroke:#010101; fill:none;"/>
	<path d="M 540.0,245.0 L 544.0,249.0 L 543.0,250.0 L 538.0,247.0" style="stroke:#010101; fill:none;"/>
	<path d="M 936.0,245.0 L 940.0,249.0" style="stroke:#010101; fill:none;"/>
	<path d="M 838.0,247.0 C 840.376,276.083 858.476,307.502 869.85,334.0 C 872.518,340.217 877.723,360.73 886.0,358.0 L 914.0,421.0" style="stroke:#010101; fill:none;"/>
	<path d="M 384.0,248.0 C 388.305,250.902 398.423,254.367 398.0,260.0" style="stroke:#010101; fill:none;"/>
	<path d="M 664.0,249.0 L 680.0,271.0" style="stroke:#010101; fill:none;"/>
	<path d="M 740.0,249.0 C 744.863,267.184 755.184,283.42 763.742,300.0 C 775.223,322.246 786.192,346.555 799.522,367.218 C 805.765,376.896 805.178,394.756 814.394,402.4 C 819.304,406.473 830.835,406.323 837.0,407.275 C 851.127,409.457 865.503,413.407 879.0,418.078 C 897.285,424.406 914.21,433.929 930.0,445.036 C 937.436,450.267 943.761,458.181 952.0,462.0 L 938.283,427.0 L 932.0,416.0 C 935.108,402.171 923.85,383.772 921.0,370.0" style="stroke:#010101; fill:none;"/>
	<path d="M 940.0,250.0 L 937.0,252.0" style="stroke:#010101; fill:none;"/>
	<path d="M 438.0,250.0 L 440.0,249.0" style="stroke:#010101; fill:none;"/>
	<path d="M 537.0,250.0 L 539.0,252.0 L 535.0,252.0" style="stroke:#010101; fill:none;"/>
	<path d="M 544.0,250.0 L 550.0,254.0 L 547.0,253.0" style="stroke:#010101; fill:none;"/>
	<path d="M 761.0,251.0 C 768.489,255.18 773.697,268.771 778.228,276.0 C 790.481,295.552 803.744,314.458 816.0,334.0" style="stroke:#010101; fill:none;"/>
	<path d="M 940.0,250.0 L 942.0,252.0" style="stroke:#010101; fill:none;"/>
	<path d="M 723.0,251.0 L 740.569,295.0 L 770.0,359.0" style="stroke:#010101; fill:none;"/>
	<path d="M 745.0,251.0 C 750.701,278.549 770.198,303.597 783.374,328.0 C 789.258,338.897 796.624,351.558 798.0,364.0" style="stroke:#010101; fill:none;"/>
	<path d="M 948.0,251.0 L 949.0,252.0" style="stroke:#010101; fill:none;"/>
	<path d="M 545.0,252.0 L 546.0,253.0" style="stroke:#010101; fill:none;"/>
	<path d="M 676.0,253.0 L 678.0,256.0" style="stroke:#010101; fill:none;"/>
	<path d="M 780.0,253.0 C 787.626,269.407 798.109,284.661 809.178,298.931 C 812.398,303.082 816.681,305.449 819.681,310.0 C 822.143,313.737 829.197,329.824 834.0,329.0" style="stroke:#010101; fill:none;"/>
	<path d="M 892.0,253.0 L 929.0,319.0" style="stroke:#010101; fill:none;"/>
	<path d="M 942.0,253.0 L 945.0,256.0" style="stroke:#010101; fill:none;"/>
	<path d="M 949.0,253.0 L 950.0,254.0" style="stroke:#010101; fill:none;"/>
	<path d="M 540.0,254.0 L 558.0,265.0" style="stroke:#010101; fill:none;"/>
	<path d="M 551.0,254.0 L 556.0,259.0" style="stroke:#010101; fill:none;"/>
	<path d="M 954.0,254.0 L 960.0,270.0 L 955.0,265.0" style="stroke:#010101; fill:none;"/>
	<path d="M 552.0,255.0 L 549.0,256.0" style="stroke:#010101; fill:none;"/>
	<path d="M 950.0,255.0 L 955.0,261.0" style="stroke:#010101; fill:none;"/>
	<path d="M 424.0,256.0 C 439.223,261.174 459.402,285.455 478.0,277.0" style="stroke:#010101; fill:none;"/>
	<path d="M 778.0,256.0 C 784.975,281.31 806.151,311.183 823.0,331.0" style="stroke:#010101; fill:none;"/>
	<path d="M 945.0,257.0 L 947.0,259.0" style="stroke:#010101; fill:none;"/>
	<path d="M 401.0,258.0 L 402.0,259.0" style="stroke:#010101; fill:none;"/>
	<path d="M 552.0,258.0 L 553.0,258.0" style="stroke:#010101; fill:none;"/>
	<path d="M 553.0,258.0 L 555.0,260.0" style="stroke:#010101; fill:none;"/>
	<path d="M 670.0,259.0 L 672.0,262.0" style="stroke:#010101; fill:none;"/>
	<path d="M 947.0,259.0 L 949.0,264.0" style="stroke:#010101; fill:none;"/>
	<path d="M 558.0,260.0 L 561.0,263.0" style="stroke:#010101; fill:none;"/>
	<path d="M 726.0,260.0 L 727.0,261.0" style="stroke:#010101; fill:none;"/>
	<path d="M 287.0,262.0 C 287.503,271.797 292.93,281.008 302.0,285.0" style="stroke:#010101; fill:none;"/>
	<path d="M 402.0,262.0 L 404.0,262.0" style="stroke:#010101; fill:none;"/>
	<path d="M 665.0,262.0 L 670.0,268.0 L 664.0,264.0" style="stroke:#010101; fill:none;"/>
	<path d="M 1000.0,262.0 L 1000.0,267.0 L 999.0,263.0" style="stroke:#010101; fill:none;"/>
	<path d="M 406.0,263.0 L 435.0,278.0" style="stroke:#010101; fill:none;"/>
	<path d="M 672.0,263.0 L 674.0,265.0" style="stroke:#010101; fill:none;"/>
	<path d="M 856.0,263.0 L 892.397,338.0 L 910.0,386.0 L 911.0,377.0" style="stroke:#010101; fill:none;"/>
	<path d="M 633.0,264.0 L 633.0,266.0" style="stroke:#010101; fill:none;"/>
	<path d="M 853.0,264.0 C 854.648,282.902 864.364,302.393 870.95,320.0 C 873.586,327.047 875.466,338.053 879.0,344.0" style="stroke:#010101; fill:none;"/>
	<path d="M 253.0,265.0 C 245.258,302.53 236.451,344.5 239.09,383.0 C 241.584,419.391 246.022,455.419 243.1,492.0 C 242.01,505.65 244.502,519.981 239.0,533.0" style="stroke:#010101; fill:none;"/>
	<path d="M 630.0,265.0 L 631.0,266.0" style="stroke:#010101; fill:none;"/>
	<path d="M 663.0,265.0 L 665.0,267.0" style="stroke:#010101; fill:none;"/>
	<path d="M 674.0,265.0 L 674.0,268.0" style="stroke:#010101; fill:none;"/>
	<path d="M 634.0,266.0 L 635.0,269.0" style="stroke:#010101; fill:none;"/>
	<path d="M 1000.0,267.0 L 1001.0,270.0 L 1003.0,267.0" style="stroke:#010101; fill:none;"/>
	<path d="M 632.0,268.0 L 633.0,269.0" style="stroke:#010101; fill:none;"/>
	<path d="M 665.0,268.0 L 667.0,269.0" style="stroke:#010101; fill:none;"/>
	<path d="M 671.0,268.0 L 694.0,296.0" style="stroke:#010101; fill:none;"/>
	<path d="M 636.0,269.0 L 637.0,274.0 L 636.0,271.0" style="stroke:#010101; fill:none;"/>
	<path d="M 669.0,269.0 C 670.457,276.221 676.992,280.992 682.0,286.0" style="stroke:#010101; fill:none;"/>
	<path d="M 795.0,270.0 L 814.0,302.0" style="stroke:#010101; fill:none;"/>
	<path d="M 1001.0,270.0 C 1010.32,293.682 1010.0,316.08 1010.0,341.0 L 1033.0,325.093 L 1060.0,316.0" style="stroke:#010101; fill:none;"/>
	<path d="M 1004.0,270.0 L 1004.0,273.0" style="stroke:#010101; fill:none;"/>
	<path d="M 634.0,271.0 L 635.0,272.0" style="stroke:#010101; fill:none;"/>
	<path d="M 961.0,272.0 L 972.0,303.0 L 970.0,297.0" style="stroke:#010101; fill:none;"/>
	<path d="M 279.0,273.0 C 280.036,284.789 287.057,297.628 297.0,304.0" style="stroke:#010101; fill:none;"/>
	<path d="M 282.0,273.0 L 292.0,287.0 L 287.0,282.0" style="stroke:#010101; fill:none;"/>
	<path d="M 604.0,273.0 C 613.969,277.716 622.839,285.223 632.0,291.333 C 636.385,294.258 640.567,298.301 646.0,297.0 L 637.0,288.0" style="stroke:#010101; fill:none;"/>
	<path d="M 639.0,273.0 L 685.572,337.0 L 707.0,365.0 C 714.839,350.292 702.055,325.249 700.0,310.0" style="stroke:#010101; fill:none;"/>
	<path d="M 640.0,274.0 L 637.0,275.0" style="stroke:#010101; fill:none;"/>
	<path d="M 586.0,275.0 L 626.0,313.0" style="stroke:#010101; fill:none;"/>
	<path d="M 769.0,275.0 L 769.0,276.0" style="stroke:#010101; fill:none;"/>
	<path d="M 638.0,276.0 L 663.0,316.0" style="stroke:#010101; fill:none;"/>
	<path d="M 806.0,276.0 L 834.0,328.0" style="stroke:#010101; fill:none;"/>
	<path d="M 642.0,277.0 L 640.0,279.0" style="stroke:#010101; fill:none;"/>
	<path d="M 768.0,278.0 L 769.0,279.0" style="stroke:#010101; fill:none;"/>
	<path d="M 769.0,280.0 L 797.0,338.0" style="stroke:#010101; fill:none;"/>
	<path d="M 723.0,281.0 L 725.0,285.0 L 724.0,282.0" style="stroke:#010101; fill:none;"/>
	<path d="M 728.0,281.0 L 756.856,349.0 L 763.895,392.0 L 770.854,423.0 L 774.0,437.0 L 772.0,429.0" style="stroke:#010101; fill:none;"/>
	<path d="M 746.0,282.0 L 748.0,288.0 L 746.0,285.0" style="stroke:#010101; fill:none;"/>
	<path d="M 255.0,283.0 L 254.889,312.971 L 258.0,330.0 L 257.0,327.0" style="stroke:#010101; fill:none;"/>
	<path d="M 614.0,285.0 L 663.0,328.039 L 707.0,379.0" style="stroke:#010101; fill:none;"/>
	<path d="M 725.0,286.0 L 726.0,287.0" style="stroke:#010101; fill:none;"/>
	<path d="M 292.0,287.0 L 307.0,289.0" style="stroke:#010101; fill:none;"/>
	<path d="M 681.0,288.0 L 683.0,290.0" style="stroke:#010101; fill:none;"/>
	<path d="M 291.0,289.0 L 295.0,291.0" style="stroke:#010101; fill:none;"/>
	<path d="M 749.0,289.0 L 776.0,352.0" style="stroke:#010101; fill:none;"/>
	<path d="M 597.0,292.0 L 629.0,321.0" style="stroke:#010101; fill:none;"/>
	<path d="M 782.0,294.0 L 786.0,301.0 L 784.0,299.0" style="stroke:#010101; fill:none;"/>
	<path d="M 257.0,297.0 L 258.0,312.0 L 257.0,309.0" style="stroke:#010101; fill:none;"/>
	<path d="M 265.0,300.0 C 265.0,314.871 269.948,328.746 263.0,343.0 L 258.0,331.0" style="stroke:#010101; fill:none;"/>
	<path d="M 646.0,300.0 L 649.0,301.0" style="stroke:#010101; fill:none;"/>
	<path d="M 786.0,301.0 L 792.0,310.0 L 790.0,308.0" style="stroke:#010101; fill:none;"/>
	<path d="M 902.0,302.0 L 953.0,450.0" style="stroke:#010101; fill:none;"/>
	<path d="M 973.0,302.0 L 990.0,355.0" style="stroke:#010101; fill:none;"/>
	<path d="M 743.0,303.0 L 743.0,304.0" style="stroke:#010101; fill:none;"/>
	<path d="M 972.0,303.0 L 983.919,351.0 L 990.0,376.0" style="stroke:#010101; fill:none;"/>
	<path d="M 814.0,305.0 L 815.0,306.0" style="stroke:#010101; fill:none;"/>
	<path d="M 815.0,307.0 L 818.0,310.0" style="stroke:#010101; fill:none;"/>
	<path d="M 746.0,308.0 L 747.0,312.0" style="stroke:#010101; fill:none;"/>
	<path d="M 875.0,308.0 C 875.893,319.225 879.194,330.226 882.291,341.0 C 883.955,346.791 886.616,351.631 883.0,357.0 L 878.0,346.0" style="stroke:#010101; fill:none;"/>
	<path d="M 627.0,309.0 L 625.0,311.0" style="stroke:#010101; fill:none;"/>
	<path d="M 949.0,310.0 L 960.667,338.0 L 964.0,347.0" style="stroke:#010101; fill:none;"/>
	<path d="M 270.0,311.0 L 268.0,319.0" style="stroke:#010101; fill:none;"/>
	<path d="M 793.0,311.0 L 819.0,349.0" style="stroke:#010101; fill:none;"/>
	<path d="M 818.0,311.0 L 820.0,313.0" style="stroke:#010101; fill:none;"/>
	<path d="M 258.0,312.0 L 259.0,317.0" style="stroke:#010101; fill:none;"/>
	<path d="M 731.0,313.0 C 731.07,338.47 739.097,364.137 743.739,389.0 C 749.896,421.97 753.979,458.596 766.0,490.0 C 771.055,483.406 767.696,475.523 766.2,468.0 C 762.818,450.998 755.146,433.692 755.0,416.0" style="stroke:#010101; fill:none;"/>
	<path d="M 747.0,313.0 L 748.0,314.0" style="stroke:#010101; fill:none;"/>
	<path d="M 631.0,314.0 L 632.0,317.0 L 629.0,316.0" style="stroke:#010101; fill:none;"/>
	<path d="M 820.0,314.0 L 821.0,315.0" style="stroke:#010101; fill:none;"/>
	<path d="M 257.0,315.0 L 257.0,317.0" style="stroke:#010101; fill:none;"/>
	<path d="M 795.0,316.0 L 798.0,320.0" style="stroke:#010101; fill:none;"/>
	<path d="M 936.0,316.0 C 941.349,322.182 953.008,334.508 952.0,343.0" style="stroke:#010101; fill:none;"/>
	<path d="M 632.0,317.0 L 653.0,344.0" style="stroke:#010101; fill:none;"/>
	<path d="M 749.0,317.0 L 750.0,319.0" style="stroke:#010101; fill:none;"/>
	<path d="M 256.0,318.0 L 258.0,326.0" style="stroke:#010101; fill:none;"/>
	<path d="M 258.0,320.0 L 258.0,323.0" style="stroke:#010101; fill:none;"/>
	<path d="M 750.0,320.0 L 751.0,321.0" style="stroke:#010101; fill:none;"/>
	<path d="M 798.0,321.0 L 799.0,322.0" style="stroke:#010101; fill:none;"/>
	<path d="M 751.0,322.0 L 752.0,323.0" style="stroke:#010101; fill:none;"/>
	<path d="M 752.0,323.0 L 754.0,327.0" style="stroke:#010101; fill:none;"/>
	<path d="M 799.0,323.0 L 800.0,324.0" style="stroke:#010101; fill:none;"/>
	<path d="M 827.0,324.0 L 828.0,326.0" style="stroke:#010101; fill:none;"/>
	<path d="M 261.0,325.0 L 265.0,334.0" style="stroke:#010101; fill:none;"/>
	<path d="M 800.0,325.0 L 802.0,327.0" style="stroke:#010101; fill:none;"/>
	<path d="M 250.0,326.0 L 247.0,361.0 C 251.645,357.451 251.412,354.461 251.0,349.0" style="stroke:#010101; fill:none;"/>
	<path d="M 954.0,326.0 L 954.0,327.0" style="stroke:#010101; fill:none;"/>
	<path d="M 754.0,327.0 L 755.0,330.0" style="stroke:#010101; fill:none;"/>
	<path d="M 802.0,327.0 L 807.0,336.0" style="stroke:#010101; fill:none;"/>
	<path d="M 830.0,329.0 L 831.0,330.0" style="stroke:#010101; fill:none;"/>
	<path d="M 755.0,331.0 L 756.0,332.0" style="stroke:#010101; fill:none;"/>
	<path d="M 836.0,331.0 L 834.0,332.0" style="stroke:#010101; fill:none;"/>
	<path d="M 756.0,332.0 L 759.0,339.0" style="stroke:#010101; fill:none;"/>
	<path d="M 835.0,333.0 L 837.0,337.0" style="stroke:#010101; fill:none;"/>
	<path d="M 957.0,333.0 L 958.0,336.0" style="stroke:#010101; fill:none;"/>
	<path d="M 247.0,337.0 L 250.0,347.0" style="stroke:#010101; fill:none;"/>
	<path d="M 958.0,337.0 L 959.0,338.0" style="stroke:#010101; fill:none;"/>
	<path d="M 959.0,338.0 L 960.0,341.0" style="stroke:#010101; fill:none;"/>
	<path d="M 759.0,339.0 L 765.0,355.0" style="stroke:#010101; fill:none;"/>
	<path d="M 960.0,341.0 L 961.0,344.0" style="stroke:#010101; fill:none;"/>
	<path d="M 953.0,342.0 L 957.0,351.0" style="stroke:#010101; fill:none;"/>
	<path d="M 1009.0,342.0 L 1004.59,375.0 L 1004.03,389.88 L 1022.0,397.745 L 1047.0,416.0" style="stroke:#010101; fill:none;"/>
	<path d="M 263.0,343.0 C 262.798,352.805 260.772,366.394 256.0,375.0 L 252.0,359.0" style="stroke:#010101; fill:none;"/>
	<path d="M 770.0,343.0 L 771.0,344.0" style="stroke:#010101; fill:none;"/>
	<path d="M 771.0,344.0 L 772.0,347.0" style="stroke:#010101; fill:none;"/>
	<path d="M 880.0,344.0 L 882.0,346.0" style="stroke:#010101; fill:none;"/>
	<path d="M 881.0,345.0 L 879.0,347.0" style="stroke:#010101; fill:none;"/>
	<path d="M 961.0,345.0 L 962.0,346.0" style="stroke:#010101; fill:none;"/>
	<path d="M 882.0,346.0 L 883.0,349.0" style="stroke:#010101; fill:none;"/>
	<path d="M 772.0,347.0 L 773.0,350.0" style="stroke:#010101; fill:none;"/>
	<path d="M 787.0,348.0 L 788.0,350.0" style="stroke:#010101; fill:none;"/>
	<path d="M 882.0,348.0 L 880.0,350.0" style="stroke:#010101; fill:none;"/>
	<path d="M 883.0,349.0 L 882.0,351.0" style="stroke:#010101; fill:none;"/>
	<path d="M 963.0,349.0 L 964.0,352.0 L 964.0,349.0" style="stroke:#010101; fill:none;"/>
	<path d="M 773.0,350.0 L 779.0,369.0" style="stroke:#010101; fill:none;"/>
	<path d="M 788.0,350.0 L 791.0,355.0" style="stroke:#010101; fill:none;"/>
	<path d="M 958.0,350.0 L 963.0,356.0 L 965.0,352.0" style="stroke:#010101; fill:none;"/>
	<path d="M 885.0,351.0 L 882.0,354.0" style="stroke:#010101; fill:none;"/>
	<path d="M 883.0,353.0 L 886.0,358.0" style="stroke:#010101; fill:none;"/>
	<path d="M 966.0,353.0 L 967.0,357.0" style="stroke:#010101; fill:none;"/>
	<path d="M 685.0,354.0 L 687.0,356.0" style="stroke:#010101; fill:none;"/>
	<path d="M 791.0,356.0 L 792.0,357.0" style="stroke:#010101; fill:none;"/>
	<path d="M 963.0,356.0 L 964.0,360.0 L 963.0,361.0" style="stroke:#010101; fill:none;"/>
	<path d="M 687.0,357.0 L 689.0,359.0" style="stroke:#010101; fill:none;"/>
	<path d="M 883.0,357.0 L 883.0,359.0" style="stroke:#010101; fill:none;"/>
	<path d="M 792.0,358.0 L 793.0,359.0" style="stroke:#010101; fill:none;"/>
	<path d="M 793.0,360.0 L 796.0,361.0" style="stroke:#010101; fill:none;"/>
	<path d="M 882.0,361.0 L 885.0,365.0" style="stroke:#010101; fill:none;"/>
	<path d="M 884.0,361.0 L 883.0,362.0" style="stroke:#010101; fill:none;"/>
	<path d="M 246.0,362.0 L 247.0,370.0 L 249.0,362.0" style="stroke:#010101; fill:none;"/>
	<path d="M 968.0,362.0 L 973.0,379.0" style="stroke:#010101; fill:none;"/>
	<path d="M 964.0,363.0 L 970.0,378.0" style="stroke:#010101; fill:none;"/>
	<path d="M 710.0,365.0 L 710.0,373.0" style="stroke:#010101; fill:none;"/>
	<path d="M 254.0,366.0 L 258.0,370.0" style="stroke:#010101; fill:none;"/>
	<path d="M 249.0,370.0 L 251.0,384.0" style="stroke:#010101; fill:none;"/>
	<path d="M 246.0,371.0 L 248.0,392.0" style="stroke:#010101; fill:none;"/>
	<path d="M 256.0,375.0 C 255.967,386.789 248.371,403.969 253.0,415.0 L 256.0,415.0" style="stroke:#010101; fill:none;"/>
	<path d="M 708.0,375.0 L 709.0,376.0" style="stroke:#010101; fill:none;"/>
	<path d="M 990.0,378.0 L 992.0,387.0" style="stroke:#010101; fill:none;"/>
	<path d="M 713.0,383.0 L 717.0,390.0" style="stroke:#010101; fill:none;"/>
	<path d="M 906.0,384.0 C 907.537,387.126 908.51,388.259 912.0,388.0 L 926.0,433.0" style="stroke:#010101; fill:none;"/>
	<path d="M 910.0,386.0 L 908.0,388.0" style="stroke:#010101; fill:none;"/>
	<path d="M 912.0,386.0 L 912.0,388.0" style="stroke:#010101; fill:none;"/>
	<path d="M 989.0,386.0 L 988.0,397.0" style="stroke:#010101; fill:none;"/>
	<path d="M 910.0,390.0 L 919.0,424.0" style="stroke:#010101; fill:none;"/>
	<path d="M 1002.0,391.0 L 998.343,413.0 L 1010.0,438.0" style="stroke:#010101; fill:none;"/>
	<path d="M 784.0,396.0 C 785.859,409.807 790.797,423.041 795.684,436.0 C 798.094,442.39 802.75,449.043 801.0,456.0 L 802.0,457.0 L 803.0,454.0" style="stroke:#010101; fill:none;"/>
	<path d="M 816.0,406.0 L 832.0,446.0" style="stroke:#010101; fill:none;"/>
	<path d="M 803.0,409.0 L 835.0,507.0" style="stroke:#010101; fill:none;"/>
	<path d="M 816.0,409.0 L 816.0,410.0" style="stroke:#010101; fill:none;"/>
	<path d="M 779.0,410.0 C 781.85,444.887 801.515,478.575 811.0,512.0" style="stroke:#010101; fill:none;"/>
	<path d="M 933.0,413.0 L 935.0,415.0" style="stroke:#010101; fill:none;"/>
	<path d="M 251.0,416.0 C 251.0,434.196 250.858,447.625 256.0,465.0" style="stroke:#010101; fill:none;"/>
	<path d="M 997.0,416.0 L 993.618,436.57 L 1004.0,442.789 L 1013.0,454.0" style="stroke:#010101; fill:none;"/>
	<path d="M 933.0,418.0 L 934.0,419.0" style="stroke:#010101; fill:none;"/>
	<path d="M 820.0,420.0 L 821.0,423.0" style="stroke:#010101; fill:none;"/>
	<path d="M 775.0,422.0 L 780.0,435.0 L 779.0,422.0" style="stroke:#010101; fill:none;"/>
	<path d="M 829.0,422.0 L 830.0,426.0" style="stroke:#010101; fill:none;"/>
	<path d="M 965.0,422.0 L 979.0,474.0 L 980.0,471.0" style="stroke:#010101; fill:none;"/>
	<path d="M 802.0,424.0 L 802.0,425.0" style="stroke:#010101; fill:none;"/>
	<path d="M 821.0,424.0 L 822.0,425.0" style="stroke:#010101; fill:none;"/>
	<path d="M 822.0,425.0 L 823.0,428.0" style="stroke:#010101; fill:none;"/>
	<path d="M 803.0,427.0 C 803.76,444.429 812.631,462.977 819.0,479.0 C 821.647,485.659 828.076,495.989 826.0,503.0 L 803.0,456.0" style="stroke:#010101; fill:none;"/>
	<path d="M 823.0,428.0 C 823.918,434.217 826.593,449.693 832.0,453.0" style="stroke:#010101; fill:none;"/>
	<path d="M 831.0,428.0 L 835.0,448.0" style="stroke:#010101; fill:none;"/>
	<path d="M 962.0,429.0 C 967.174,448.948 968.923,470.394 974.734,490.0 C 978.111,501.395 986.094,511.584 989.997,523.0 C 994.132,535.094 993.195,551.562 1002.0,561.0 L 1002.0,555.0" style="stroke:#010101; fill:none;"/>
	<path d="M 887.0,430.0 L 890.0,434.0 C 884.682,432.903 878.715,430.429 874.0,434.0 L 877.0,436.0" style="stroke:#010101; fill:none;"/>
	<path d="M 841.0,445.0 L 874.0,433.0" style="stroke:#010101; fill:none;"/>
	<path d="M 779.0,435.0 C 780.904,440.354 783.698,444.495 781.0,450.0 L 776.0,437.0" style="stroke:#010101; fill:none;"/>
	<path d="M 891.0,435.0 C 923.329,451.632 948.175,487.589 968.0,517.0" style="stroke:#010101; fill:none;"/>
	<path d="M 986.0,435.0 L 992.0,442.0 L 992.0,439.0" style="stroke:#010101; fill:none;"/>
	<path d="M 781.0,436.0 L 781.0,437.0" style="stroke:#010101; fill:none;"/>
	<path d="M 762.0,437.0 L 764.0,448.0" style="stroke:#010101; fill:none;"/>
	<path d="M 774.0,437.0 L 785.389,498.0 L 797.0,562.0 L 800.0,559.0" style="stroke:#010101; fill:none;"/>
	<path d="M 990.0,443.0 C 989.918,450.406 985.456,456.746 985.222,464.0 C 985.038,469.707 987.904,476.449 989.235,482.0 C 990.218,486.095 993.428,491.406 989.0,494.0" style="stroke:#010101; fill:none;"/>
	<path d="M 980.0,445.0 L 985.0,460.0" style="stroke:#010101; fill:none;"/>
	<path d="M 732.0,446.0 L 734.0,448.0" style="stroke:#010101; fill:none;"/>
	<path d="M 732.0,450.0 L 738.421,491.0 L 741.0,506.0 L 740.0,499.0" style="stroke:#010101; fill:none;"/>
	<path d="M 762.0,450.0 L 762.0,454.0" style="stroke:#010101; fill:none;"/>
	<path d="M 781.0,450.0 L 790.0,493.0" style="stroke:#010101; fill:none;"/>
	<path d="M 784.0,450.0 L 788.0,468.0 L 787.0,464.0" style="stroke:#010101; fill:none;"/>
	<path d="M 989.0,451.0 C 994.696,459.36 992.236,466.657 993.323,476.0 C 994.505,486.168 999.709,497.858 998.0,508.0 L 990.0,498.0" style="stroke:#010101; fill:none;"/>
	<path d="M 976.0,452.0 L 977.0,461.0" style="stroke:#010101; fill:none;"/>
	<path d="M 831.0,454.0 L 824.0,462.0" style="stroke:#010101; fill:none;"/>
	<path d="M 1010.0,454.0 L 1011.0,454.0" style="stroke:#010101; fill:none;"/>
	<path d="M 1013.0,454.0 C 1024.3,460.406 1020.26,477.556 1028.51,485.185 C 1036.89,492.929 1053.49,493.224 1064.0,496.014 C 1068.02,497.08 1073.53,499.435 1077.71,498.4 C 1082.34,497.257 1086.88,492.663 1091.0,490.284 C 1100.36,484.88 1109.71,480.347 1120.0,477.0" style="stroke:#010101; fill:none;"/>
	<path d="M 1012.0,455.0 C 1018.25,477.896 1022.54,498.183 1016.62,522.0 C 1014.49,530.601 1011.59,540.956 1003.0,545.0" style="stroke:#010101; fill:none;"/>
	<path d="M 742.0,456.0 L 740.0,458.0" style="stroke:#010101; fill:none;"/>
	<path d="M 765.0,456.0 L 766.0,458.0" style="stroke:#010101; fill:none;"/>
	<path d="M 802.0,457.0 L 816.0,518.0" style="stroke:#010101; fill:none;"/>
	<path d="M 251.0,459.0 C 251.0,464.576 252.58,485.206 246.0,486.0" style="stroke:#010101; fill:none;"/>
	<path d="M 744.0,461.0 C 767.382,543.396 792.233,628.757 766.279,714.0 C 757.236,743.703 739.067,770.21 719.576,794.0 C 713.167,801.822 706.482,809.48 699.714,816.995 C 697.234,819.748 692.635,821.861 691.097,825.218 C 687.953,832.08 688.428,841.615 687.911,849.0 C 686.459,869.706 686.756,891.732 692.0,912.0" style="stroke:#010101; fill:none;"/>
	<path d="M 792.0,461.0 L 793.0,464.0" style="stroke:#010101; fill:none;"/>
	<path d="M 911.0,462.0 C 913.064,473.076 917.921,484.667 917.921,496.0 C 917.921,507.394 913.533,519.002 911.044,530.0 C 910.074,534.288 913.39,539.818 910.968,543.621 C 906.462,550.698 896.298,557.401 890.583,564.286 C 876.246,581.554 863.258,599.525 847.911,616.0 C 841.144,623.264 829.718,630.517 824.885,639.089 C 821.382,645.303 821.361,655.969 819.626,663.0 C 817.409,671.981 811.064,684.949 813.0,694.0 C 827.068,676.88 828.365,654.505 837.0,635.0 C 839.504,640.103 838.744,658.336 836.0,663.0 L 836.0,657.0" style="stroke:#010101; fill:none;"/>
	<path d="M 952.0,462.0 L 972.0,487.0" style="stroke:#010101; fill:none;"/>
	<path d="M 976.0,462.0 L 977.0,465.0" style="stroke:#010101; fill:none;"/>
	<path d="M 793.0,464.0 L 794.0,467.0" style="stroke:#010101; fill:none;"/>
	<path d="M 977.0,465.0 L 977.0,469.0" style="stroke:#010101; fill:none;"/>
	<path d="M 789.0,467.0 L 791.0,469.0 L 789.0,471.0 L 788.0,468.0" style="stroke:#010101; fill:none;"/>
	<path d="M 794.0,467.0 L 791.0,470.0" style="stroke:#010101; fill:none;"/>
	<path d="M 928.0,467.0 C 922.759,477.216 930.794,495.617 937.0,504.0 L 934.0,488.0 L 934.0,495.0" style="stroke:#010101; fill:none;"/>
	<path d="M 985.0,467.0 C 977.385,479.224 983.567,491.418 987.0,504.0" style="stroke:#010101; fill:none;"/>
	<path d="M 839.0,469.0 C 835.104,473.583 831.843,477.785 833.0,484.0" style="stroke:#010101; fill:none;"/>
	<path d="M 846.0,469.0 L 835.0,483.0" style="stroke:#010101; fill:none;"/>
	<path d="M 928.0,469.0 C 933.76,480.119 945.982,494.625 956.0,502.0" style="stroke:#010101; fill:none;"/>
	<path d="M 995.0,470.0 L 993.0,471.0" style="stroke:#010101; fill:none;"/>
	<path d="M 793.0,470.0 L 795.0,472.0 L 793.0,474.0 L 792.0,471.0" style="stroke:#010101; fill:none;"/>
	<path d="M 789.0,471.0 L 791.0,482.0" style="stroke:#010101; fill:none;"/>
	<path d="M 846.0,471.0 L 840.0,481.0" style="stroke:#010101; fill:none;"/>
	<path d="M 854.0,471.0 L 848.0,479.0" style="stroke:#010101; fill:none;"/>
	<path d="M 996.0,471.0 L 1001.0,491.0" style="stroke:#010101; fill:none;"/>
	<path d="M 946.0,473.0 L 976.0,517.0" style="stroke:#010101; fill:none;"/>
	<path d="M 793.0,474.0 L 798.0,485.0" style="stroke:#010101; fill:none;"/>
	<path d="M 795.0,474.0 L 796.0,480.0" style="stroke:#010101; fill:none;"/>
	<path d="M 856.0,474.0 L 854.0,481.0" style="stroke:#010101; fill:none;"/>
	<path d="M 979.0,475.0 L 980.0,476.0" style="stroke:#010101; fill:none;"/>
	<path d="M 740.0,476.0 L 741.0,498.0" style="stroke:#010101; fill:none;"/>
	<path d="M 930.0,476.0 L 932.0,488.0" style="stroke:#010101; fill:none;"/>
	<path d="M 247.0,479.0 L 254.0,481.0" style="stroke:#010101; fill:none;"/>
	<path d="M 859.0,479.0 L 857.0,485.0" style="stroke:#010101; fill:none;"/>
	<path d="M 1097.0,505.0 C 1103.2,511.013 1111.39,509.749 1119.0,512.0 C 1109.67,521.634 1089.78,516.823 1081.0,509.0 C 1102.13,489.713 1140.59,467.809 1165.0,492.0" style="stroke:#010101; fill:none;"/>
	<path d="M 795.0,481.0 L 796.0,485.0" style="stroke:#010101; fill:none;"/>
	<path d="M 934.0,481.0 L 934.0,488.0" style="stroke:#010101; fill:none;"/>
	<path d="M 240.0,482.0 L 243.0,483.0" style="stroke:#010101; fill:none;"/>
	<path d="M 862.0,483.0 L 862.0,488.0" style="stroke:#010101; fill:none;"/>
	<path d="M 1028.0,486.0 L 1029.0,524.0" style="stroke:#010101; fill:none;"/>
	<path d="M 256.0,495.0 L 249.0,497.0 C 249.328,491.778 248.991,488.468 255.0,488.0" style="stroke:#010101; fill:none;"/>
	<path d="M 770.0,488.0 L 767.0,495.0 L 766.0,490.0" style="stroke:#010101; fill:none;"/>
	<path d="M 941.0,488.0 L 944.0,491.0" style="stroke:#010101; fill:none;"/>
	<path d="M 939.0,489.0 C 941.265,504.392 946.745,523.233 954.0,537.0 C 960.408,523.869 941.111,507.431 948.0,494.0" style="stroke:#010101; fill:none;"/>
	<path d="M 944.0,492.0 L 949.0,497.0" style="stroke:#010101; fill:none;"/>
	<path d="M 231.0,493.0 C 236.292,497.048 241.456,497.982 248.0,498.0 L 246.0,525.0" style="stroke:#010101; fill:none;"/>
	<path d="M 771.0,493.0 L 768.917,503.011 L 773.844,509.179 L 774.0,520.0 C 775.717,516.749 775.67,515.57 773.0,513.0" style="stroke:#010101; fill:none;"/>
	<path d="M 250.0,494.0 L 253.0,495.0" style="stroke:#010101; fill:none;"/>
	<path d="M 1031.0,494.0 C 1036.61,504.653 1037.17,518.323 1035.0,530.0" style="stroke:#010101; fill:none;"/>
	<path d="M 767.0,495.0 L 769.0,500.0" style="stroke:#010101; fill:none;"/>
	<path d="M 936.0,495.0 L 937.0,497.0" style="stroke:#010101; fill:none;"/>
	<path d="M 993.0,495.0 L 992.0,498.0" style="stroke:#010101; fill:none;"/>
	<path d="M 253.0,496.0 C 258.137,505.623 256.047,519.54 255.075,530.0 C 252.061,562.415 237.84,591.413 225.424,621.0 C 201.794,677.312 194.591,734.049 208.349,794.0 C 214.194,819.472 224.738,849.315 245.0,867.0" style="stroke:#010101; fill:none;"/>
	<path d="M 1152.0,496.0 L 1135.0,506.0 C 1142.21,510.598 1156.57,504.199 1164.0,501.0" style="stroke:#010101; fill:none;"/>
	<path d="M 949.0,498.0 L 952.0,501.0" style="stroke:#010101; fill:none;"/>
	<path d="M 994.0,499.0 L 994.0,502.0" style="stroke:#010101; fill:none;"/>
	<path d="M 1076.0,499.0 L 1072.0,503.0" style="stroke:#010101; fill:none;"/>
	<path d="M 921.0,500.0 C 921.235,511.396 921.387,524.967 923.888,536.0 C 925.856,544.679 931.165,554.348 931.831,563.039 C 932.627,573.419 929.051,584.513 929.001,595.0 C 928.827,631.1 929.682,667.098 933.17,703.0 C 934.166,713.256 936.451,723.993 938.898,734.0 C 939.937,738.25 943.098,742.678 943.236,747.0 C 943.623,759.097 932.49,769.02 929.529,780.0 C 922.162,807.32 930.015,845.326 949.0,866.0" style="stroke:#010101; fill:none;"/>
	<path d="M 933.0,500.0 L 934.0,503.0" style="stroke:#010101; fill:none;"/>
	<path d="M 1080.0,500.0 L 1087.0,504.0" style="stroke:#010101; fill:none;"/>
	<path d="M 747.0,501.0 L 746.0,557.0" style="stroke:#010101; fill:none;"/>
	<path d="M 772.0,501.0 L 772.0,506.0" style="stroke:#010101; fill:none;"/>
	<path d="M 263.0,502.0 C 267.408,535.421 254.334,569.79 251.17,603.0 C 249.985,615.433 249.813,627.568 251.285,640.0 C 252.089,646.787 255.286,655.268 254.53,662.0 C 252.581,679.364 245.987,697.106 244.169,715.0 C 239.241,763.51 241.175,817.343 257.0,864.0 C 263.475,851.852 255.313,828.788 256.093,815.0 C 257.739,785.925 255.299,758.206 256.015,729.0 C 256.348,715.391 262.343,701.221 261.725,688.0 C 261.383,680.675 257.636,673.136 256.0,666.0" style="stroke:#010101; fill:none;"/>
	<path d="M 828.0,502.0 L 832.0,505.0" style="stroke:#010101; fill:none;"/>
	<path d="M 958.0,505.0 C 960.454,512.15 965.271,530.325 962.0,537.0 C 957.53,528.517 949.965,511.518 952.0,502.0 C 954.942,504.088 955.731,504.484 959.0,503.0" style="stroke:#010101; fill:none;"/>
	<path d="M 956.0,502.0 L 954.0,504.0" style="stroke:#010101; fill:none;"/>
	<path d="M 826.0,503.0 L 834.0,523.0" style="stroke:#010101; fill:none;"/>
	<path d="M 934.0,503.0 L 936.0,510.0 L 938.0,504.0" style="stroke:#010101; fill:none;"/>
	<path d="M 955.0,503.0 L 957.0,505.0" style="stroke:#010101; fill:none;"/>
	<path d="M 992.0,503.0 L 996.0,515.0" style="stroke:#010101; fill:none;"/>
	<path d="M 830.0,504.0 L 835.0,518.0" style="stroke:#010101; fill:none;"/>
	<path d="M 939.0,505.0 C 940.372,518.98 947.181,536.739 954.0,549.0 L 954.0,537.0" style="stroke:#010101; fill:none;"/>
	<path d="M 741.0,506.0 L 744.0,560.0" style="stroke:#010101; fill:none;"/>
	<path d="M 1120.0,513.0 L 1135.0,506.0" style="stroke:#010101; fill:none;"/>
	<path d="M 771.0,508.0 L 772.0,512.0" style="stroke:#010101; fill:none;"/>
	<path d="M 961.0,509.0 L 962.0,511.0" style="stroke:#010101; fill:none;"/>
	<path d="M 1037.0,517.0 C 1054.73,519.241 1064.64,513.714 1081.0,509.0" style="stroke:#010101; fill:none;"/>
	<path d="M 936.0,510.0 C 937.558,520.59 942.226,531.014 945.95,541.0 C 947.57,545.345 948.502,551.583 954.0,549.0" style="stroke:#010101; fill:none;"/>
	<path d="M 1134.0,510.0 L 1137.0,509.0" style="stroke:#010101; fill:none;"/>
	<path d="M 962.0,512.0 L 964.0,514.0" style="stroke:#010101; fill:none;"/>
	<path d="M 964.0,514.0 L 973.0,554.0 C 964.828,552.823 963.063,544.196 962.0,537.0" style="stroke:#010101; fill:none;"/>
	<path d="M 777.0,519.0 L 781.0,540.0" style="stroke:#010101; fill:none;"/>
	<path d="M 774.0,520.0 L 776.0,524.0" style="stroke:#010101; fill:none;"/>
	<path d="M 917.0,521.0 C 917.238,532.516 920.601,551.618 929.0,560.0" style="stroke:#010101; fill:none;"/>
	<path d="M 923.0,521.0 L 929.0,540.0" style="stroke:#010101; fill:none;"/>
	<path d="M 775.0,524.0 L 782.0,584.0 L 783.0,553.0" style="stroke:#010101; fill:none;"/>
	<path d="M 913.0,531.0 L 923.0,560.0" style="stroke:#010101; fill:none;"/>
	<path d="M 1027.0,531.0 C 1025.25,536.537 1016.93,554.958 1011.0,554.0 L 1010.0,555.0 L 1011.0,556.0 L 1014.0,557.0" style="stroke:#010101; fill:none;"/>
	<path d="M 1031.0,531.0 L 1017.0,554.0" style="stroke:#010101; fill:none;"/>
	<path d="M 1039.0,532.0 C 1033.94,541.095 1027.68,549.838 1020.0,556.907 C 1017.75,558.982 1010.21,562.635 1010.21,566.056 C 1010.21,570.106 1021.59,577.207 1025.0,578.37 C 1041.19,583.886 1056.34,584.14 1073.0,581.0" style="stroke:#010101; fill:none;"/>
	<path d="M 1020.0,533.0 L 1007.0,554.0 L 1010.0,555.0" style="stroke:#010101; fill:none;"/>
	<path d="M 910.0,534.0 L 906.0,545.0" style="stroke:#010101; fill:none;"/>
	<path d="M 939.0,535.0 C 932.952,546.478 937.565,554.231 942.895,565.0 C 951.781,582.953 964.308,598.608 974.0,616.0" style="stroke:#010101; fill:none;"/>
	<path d="M 957.0,537.0 L 956.0,539.0" style="stroke:#010101; fill:none;"/>
	<path d="M 965.0,537.0 L 964.0,540.0" style="stroke:#010101; fill:none;"/>
	<path d="M 958.0,540.0 L 957.0,542.0" style="stroke:#010101; fill:none;"/>
	<path d="M 966.0,541.0 L 965.0,543.0" style="stroke:#010101; fill:none;"/>
	<path d="M 907.0,542.0 L 909.0,544.0" style="stroke:#010101; fill:none;"/>
	<path d="M 959.0,543.0 L 958.0,550.0 L 960.0,547.0" style="stroke:#010101; fill:none;"/>
	<path d="M 967.0,544.0 L 966.0,546.0" style="stroke:#010101; fill:none;"/>
	<path d="M 910.0,546.0 L 906.0,548.0 L 906.0,548.0" style="stroke:#010101; fill:none;"/>
	<path d="M 913.0,546.0 C 915.058,553.802 913.465,557.044 908.0,563.0 L 911.0,567.0 L 909.0,556.0 L 907.0,562.0" style="stroke:#010101; fill:none;"/>
	<path d="M 953.0,546.0 L 955.0,546.0" style="stroke:#010101; fill:none;"/>
	<path d="M 968.0,547.0 L 967.0,549.0" style="stroke:#010101; fill:none;"/>
	<path d="M 909.0,549.0 L 913.0,551.0" style="stroke:#010101; fill:none;"/>
	<path d="M 912.0,549.0 L 912.0,550.0" style="stroke:#010101; fill:none;"/>
	<path d="M 959.0,549.0 C 960.49,554.23 954.854,553.607 951.0,553.0" style="stroke:#010101; fill:none;"/>
	<path d="M 906.0,550.0 L 903.0,554.0 L 903.0,552.0" style="stroke:#010101; fill:none;"/>
	<path d="M 908.0,550.0 L 912.0,557.0" style="stroke:#010101; fill:none;"/>
	<path d="M 934.0,550.0 L 933.0,558.0" style="stroke:#010101; fill:none;"/>
	<path d="M 953.0,553.0 C 953.306,550.703 953.028,550.831 955.0,552.0" style="stroke:#010101; fill:none;"/>
	<path d="M 958.0,550.0 L 958.0,553.0" style="stroke:#010101; fill:none;"/>
	<path d="M 969.0,550.0 L 969.0,551.0" style="stroke:#010101; fill:none;"/>
	<path d="M 911.0,551.0 L 910.0,554.0" style="stroke:#010101; fill:none;"/>
	<path d="M 913.0,551.0 L 913.0,555.0" style="stroke:#010101; fill:none;"/>
	<path d="M 1015.0,553.0 L 1012.0,556.0" style="stroke:#010101; fill:none;"/>
	<path d="M 906.0,554.0 L 908.0,556.0" style="stroke:#010101; fill:none;"/>
	<path d="M 952.0,554.0 L 956.0,562.0" style="stroke:#010101; fill:none;"/>
	<path d="M 954.0,554.0 L 954.0,556.0" style="stroke:#010101; fill:none;"/>
	<path d="M 961.0,554.0 L 963.0,559.0" style="stroke:#010101; fill:none;"/>
	<path d="M 974.0,555.0 L 989.502,596.0 L 998.0,612.0 L 994.0,605.0" style="stroke:#010101; fill:none;"/>
	<path d="M 900.0,556.0 C 901.253,605.15 898.429,654.724 898.996,704.0 C 899.264,727.27 895.903,754.612 903.0,777.0" style="stroke:#010101; fill:none;"/>
	<path d="M 904.0,556.0 L 906.0,576.0" style="stroke:#010101; fill:none;"/>
	<path d="M 905.0,557.0 L 907.0,557.0" style="stroke:#010101; fill:none;"/>
	<path d="M 1012.0,557.0 L 1004.0,560.0" style="stroke:#010101; fill:none;"/>
	<path d="M 915.0,558.0 L 914.0,562.0" style="stroke:#010101; fill:none;"/>
	<path d="M 953.0,558.0 L 954.0,559.0" style="stroke:#010101; fill:none;"/>
	<path d="M 997.0,558.0 L 994.0,574.0" style="stroke:#010101; fill:none;"/>
	<path d="M 938.0,560.0 L 942.0,576.0" style="stroke:#010101; fill:none;"/>
	<path d="M 976.0,561.0 L 978.0,575.0" style="stroke:#010101; fill:none;"/>
	<path d="M 797.0,562.0 L 797.0,587.0" style="stroke:#010101; fill:none;"/>
	<path d="M 895.0,563.0 L 894.0,590.0" style="stroke:#010101; fill:none;"/>
	<path d="M 916.0,563.0 L 914.0,569.0 L 913.0,567.0" style="stroke:#010101; fill:none;"/>
	<path d="M 1006.0,563.0 L 1009.0,566.0" style="stroke:#010101; fill:none;"/>
	<path d="M 902.0,564.0 L 904.0,564.0" style="stroke:#010101; fill:none;"/>
	<path d="M 908.0,565.0 L 907.0,570.0" style="stroke:#010101; fill:none;"/>
	<path d="M 1000.0,569.0 L 1008.0,565.0" style="stroke:#010101; fill:none;"/>
	<path d="M 911.0,569.0 L 910.0,573.0 L 908.0,570.0" style="stroke:#010101; fill:none;"/>
	<path d="M 914.0,569.0 L 914.0,574.0" style="stroke:#010101; fill:none;"/>
	<path d="M 791.0,574.0 L 799.0,614.0 L 802.0,612.0" style="stroke:#010101; fill:none;"/>
	<path d="M 940.0,574.0 L 941.0,575.0" style="stroke:#010101; fill:none;"/>
	<path d="M 787.0,577.0 L 789.0,615.0 L 790.0,596.0" style="stroke:#010101; fill:none;"/>
	<path d="M 941.0,577.0 L 946.0,591.0 L 945.0,584.0" style="stroke:#010101; fill:none;"/>
	<path d="M 943.0,577.0 L 943.0,580.0" style="stroke:#010101; fill:none;"/>
	<path d="M 998.0,577.0 C 1005.57,582.836 1017.04,597.47 1026.0,599.0 L 1026.0,596.0" style="stroke:#010101; fill:none;"/>
	<path d="M 1028.0,579.0 C 1025.16,586.32 1035.74,594.207 1039.64,600.0 C 1050.17,615.622 1057.36,632.524 1061.0,651.0 C 1062.12,656.702 1067.22,675.493 1057.0,674.0 L 1053.0,685.0" style="stroke:#010101; fill:none;"/>
	<path d="M 1024.0,580.0 L 1026.0,582.0" style="stroke:#010101; fill:none;"/>
	<path d="M 942.0,581.0 L 944.0,585.0" style="stroke:#010101; fill:none;"/>
	<path d="M 948.0,582.0 C 954.508,596.678 961.884,615.194 975.0,625.0" style="stroke:#010101; fill:none;"/>
	<path d="M 784.0,584.0 L 782.0,585.0" style="stroke:#010101; fill:none;"/>
	<path d="M 800.0,585.0 L 800.0,587.0" style="stroke:#010101; fill:none;"/>
	<path d="M 782.0,588.0 L 784.318,617.0 L 789.512,627.0 L 789.0,658.0" style="stroke:#010101; fill:none;"/>
	<path d="M 784.0,588.0 L 784.0,598.0" style="stroke:#010101; fill:none;"/>
	<path d="M 954.0,589.0 L 955.0,594.0" style="stroke:#010101; fill:none;"/>
	<path d="M 947.0,590.0 L 948.0,596.0 L 946.0,591.0" style="stroke:#010101; fill:none;"/>
	<path d="M 951.0,597.0 L 948.0,597.0" style="stroke:#010101; fill:none;"/>
	<path d="M 952.0,598.0 L 949.0,599.0" style="stroke:#010101; fill:none;"/>
	<path d="M 951.0,599.0 L 963.0,623.0" style="stroke:#010101; fill:none;"/>
	<path d="M 950.0,600.0 L 953.0,606.0" style="stroke:#010101; fill:none;"/>
	<path d="M 1026.0,601.0 C 1035.29,617.09 1050.1,630.655 1053.0,650.0 L 1046.0,651.0 C 1047.63,656.804 1049.76,663.383 1047.0,669.0 C 1035.83,663.414 1027.04,654.334 1019.0,645.0 C 1016.4,641.975 1012.13,634.468 1012.0,635.0 L 1013.0,636.0" style="stroke:#010101; fill:none;"/>
	<path d="M 953.0,607.0 L 954.0,608.0" style="stroke:#010101; fill:none;"/>
	<path d="M 954.0,609.0 L 955.0,610.0" style="stroke:#010101; fill:none;"/>
	<path d="M 968.0,609.0 L 969.0,611.0" style="stroke:#010101; fill:none;"/>
	<path d="M 955.0,611.0 L 956.0,612.0" style="stroke:#010101; fill:none;"/>
	<path d="M 969.0,612.0 L 974.0,622.0" style="stroke:#010101; fill:none;"/>
	<path d="M 998.0,612.0 L 1011.0,634.0" style="stroke:#010101; fill:none;"/>
	<path d="M 956.0,613.0 L 957.0,614.0" style="stroke:#010101; fill:none;"/>
	<path d="M 998.0,614.0 L 999.0,616.0" style="stroke:#010101; fill:none;"/>
	<path d="M 789.0,615.0 L 787.0,623.0" style="stroke:#010101; fill:none;"/>
	<path d="M 798.0,615.0 L 796.0,630.0" style="stroke:#010101; fill:none;"/>
	<path d="M 957.0,615.0 L 958.0,616.0" style="stroke:#010101; fill:none;"/>
	<path d="M 958.0,617.0 L 959.0,618.0" style="stroke:#010101; fill:none;"/>
	<path d="M 999.0,617.0 L 1001.0,619.0" style="stroke:#010101; fill:none;"/>
	<path d="M 1036.0,618.0 L 1037.0,622.0 L 1039.0,620.0" style="stroke:#010101; fill:none;"/>
	<path d="M 768.0,619.0 C 772.061,622.977 771.0,628.649 771.0,634.0 C 771.0,647.903 769.097,661.604 765.29,675.0 C 758.433,699.134 747.762,721.281 733.656,742.0 C 716.964,766.517 696.113,791.481 692.0,822.0" style="stroke:#010101; fill:none;"/>
	<path d="M 959.0,619.0 L 962.0,620.0" style="stroke:#010101; fill:none;"/>
	<path d="M 257.0,864.0 C 258.754,872.429 265.397,883.602 262.0,892.0 C 252.527,878.694 246.63,861.237 240.95,846.0 C 221.363,793.463 217.223,738.871 228.2,684.0 C 231.243,668.789 235.445,653.719 240.333,639.0 C 242.479,632.539 244.141,624.968 249.0,620.0" style="stroke:#010101; fill:none;"/>
	<path d="M 1001.0,620.0 L 1002.0,621.0" style="stroke:#010101; fill:none;"/>
	<path d="M 850.0,621.0 C 845.883,628.233 840.256,640.63 842.0,649.0 L 852.0,625.0" style="stroke:#010101; fill:none;"/>
	<path d="M 963.0,621.0 L 963.0,623.0" style="stroke:#010101; fill:none;"/>
	<path d="M 969.0,621.0 L 970.0,624.0" style="stroke:#010101; fill:none;"/>
	<path d="M 1002.0,622.0 L 1004.0,624.0" style="stroke:#010101; fill:none;"/>
	<path d="M 1037.0,622.0 C 1038.52,627.566 1046.63,641.235 1043.79,646.667 C 1042.12,649.843 1037.45,647.819 1035.0,646.996 C 1027.19,644.38 1020.09,640.553 1014.0,635.0" style="stroke:#010101; fill:none;"/>
	<path d="M 787.0,623.0 L 785.961,641.0 L 786.0,671.0" style="stroke:#010101; fill:none;"/>
	<path d="M 970.0,624.0 L 973.0,632.0" style="stroke:#010101; fill:none;"/>
	<path d="M 965.0,625.0 L 970.0,634.0" style="stroke:#010101; fill:none;"/>
	<path d="M 1004.0,625.0 L 1005.0,626.0" style="stroke:#010101; fill:none;"/>
	<path d="M 841.0,626.0 L 838.0,636.0" style="stroke:#010101; fill:none;"/>
	<path d="M 963.0,626.0 L 964.0,627.0" style="stroke:#010101; fill:none;"/>
	<path d="M 941.0,627.0 C 963.062,649.529 972.805,683.891 969.83,715.0 C 968.808,725.694 960.725,739.67 961.669,749.714 C 962.363,757.103 968.24,765.253 971.127,772.0 C 975.47,782.148 978.239,794.072 979.711,805.0 C 985.676,849.258 971.749,899.128 955.4,940.0 C 949.015,955.962 941.933,974.318 929.0,986.0 L 929.0,987.0 L 931.0,986.0" style="stroke:#010101; fill:none;"/>
	<path d="M 999.0,627.0 C 994.444,639.166 992.289,666.133 998.0,678.0 L 1009.0,642.0" style="stroke:#010101; fill:none;"/>
	<path d="M 964.0,628.0 L 965.0,629.0" style="stroke:#010101; fill:none;"/>
	<path d="M 1009.0,629.0 L 1012.0,632.0" style="stroke:#010101; fill:none;"/>
	<path d="M 965.0,630.0 L 966.0,631.0" style="stroke:#010101; fill:none;"/>
	<path d="M 826.0,631.0 L 826.0,635.0" style="stroke:#010101; fill:none;"/>
	<path d="M 908.0,632.0 L 907.0,776.0" style="stroke:#010101; fill:none;"/>
	<path d="M 837.0,633.0 L 837.0,635.0" style="stroke:#010101; fill:none;"/>
	<path d="M 816.0,646.0 L 823.0,640.0" style="stroke:#010101; fill:none;"/>
	<path d="M 1009.0,647.0 C 1007.08,657.361 1006.85,667.778 1003.79,678.0 C 1002.43,682.559 997.573,687.629 997.317,692.054 C 996.394,708.014 1000.61,730.095 1006.48,744.921 C 1007.69,747.988 1010.78,749.856 1011.71,753.029 C 1012.72,756.469 1010.8,759.46 1012.0,763.0 L 1014.0,758.0" style="stroke:#010101; fill:none;"/>
	<path d="M 1045.0,648.0 L 1047.0,650.0" style="stroke:#010101; fill:none;"/>
	<path d="M 840.0,649.0 L 841.0,653.0 L 842.0,649.0" style="stroke:#010101; fill:none;"/>
	<path d="M 848.0,649.0 C 844.612,659.014 835.775,673.324 838.0,684.0 L 843.0,671.0" style="stroke:#010101; fill:none;"/>
	<path d="M 1054.0,651.0 C 1054.72,656.602 1057.28,663.265 1055.68,668.903 C 1054.72,672.297 1050.78,672.383 1050.15,676.062 C 1046.32,698.461 1046.56,717.857 1030.0,736.0" style="stroke:#010101; fill:none;"/>
	<path d="M 935.0,653.0 C 951.294,676.083 953.779,717.935 944.0,744.0" style="stroke:#010101; fill:none;"/>
	<path d="M 840.0,654.0 L 839.0,657.0" style="stroke:#010101; fill:none;"/>
	<path d="M 913.0,655.0 C 913.867,675.14 925.252,695.99 924.106,716.0 C 923.104,733.484 921.806,751.571 919.714,769.0 C 918.8,776.622 915.126,785.997 919.0,793.0 L 928.0,785.0" style="stroke:#010101; fill:none;"/>
	<path d="M 792.0,661.0 C 787.874,689.039 772.409,717.207 761.281,743.0 C 730.595,814.122 700.962,891.733 749.0,963.0" style="stroke:#010101; fill:none;"/>
	<path d="M 836.0,664.0 C 833.153,671.588 830.991,681.037 836.0,688.0 L 838.0,684.0" style="stroke:#010101; fill:none;"/>
	<path d="M 1048.0,669.0 L 1051.0,672.0" style="stroke:#010101; fill:none;"/>
	<path d="M 1062.0,675.0 L 1063.0,682.0" style="stroke:#010101; fill:none;"/>
	<path d="M 849.0,677.0 L 834.88,718.992 L 830.0,729.0 L 833.0,725.0" style="stroke:#010101; fill:none;"/>
	<path d="M 1064.0,677.0 C 1102.1,686.028 1125.89,720.621 1126.0,759.0" style="stroke:#010101; fill:none;"/>
	<path d="M 997.0,679.0 L 997.0,687.0" style="stroke:#010101; fill:none;"/>
	<path d="M 911.0,682.0 C 911.0,703.404 910.621,724.562 912.089,746.0 C 913.21,762.359 915.541,785.205 907.0,800.0 C 900.55,788.655 896.701,776.846 888.96,766.0 C 877.34,749.72 861.068,736.852 846.0,724.0 L 852.0,706.0" style="stroke:#010101; fill:none;"/>
	<path d="M 836.0,684.0 L 831.694,695.0 L 830.0,723.0" style="stroke:#010101; fill:none;"/>
	<path d="M 832.0,686.0 L 832.0,691.0" style="stroke:#010101; fill:none;"/>
	<path d="M 257.0,690.0 L 257.0,705.0" style="stroke:#010101; fill:none;"/>
	<path d="M 262.0,690.0 L 266.0,703.0" style="stroke:#010101; fill:none;"/>
	<path d="M 1063.0,691.0 C 1057.77,713.823 1048.15,735.048 1040.31,757.0 C 1037.88,763.797 1030.04,774.802 1030.85,781.999 C 1032.51,796.645 1057.58,802.355 1069.0,801.0" style="stroke:#010101; fill:none;"/>
	<path d="M 811.0,694.0 L 813.0,695.0" style="stroke:#010101; fill:none;"/>
	<path d="M 806.0,717.0 L 804.0,716.0 C 815.388,714.262 819.402,699.127 829.0,694.0" style="stroke:#010101; fill:none;"/>
	<path d="M 812.0,696.0 L 805.0,715.0" style="stroke:#010101; fill:none;"/>
	<path d="M 849.0,699.0 L 836.333,737.0 L 828.0,758.0 L 829.0,730.0" style="stroke:#010101; fill:none;"/>
	<path d="M 789.0,718.0 L 807.0,704.0" style="stroke:#010101; fill:none;"/>
	<path d="M 805.0,705.0 L 807.0,707.0" style="stroke:#010101; fill:none;"/>
	<path d="M 915.0,711.0 L 915.0,787.0" style="stroke:#010101; fill:none;"/>
	<path d="M 816.0,735.0 C 819.938,728.228 822.039,715.961 829.0,712.0" style="stroke:#010101; fill:none;"/>
	<path d="M 803.0,719.0 L 764.247,811.0 L 742.0,850.0" style="stroke:#010101; fill:none;"/>
	<path d="M 925.0,719.0 C 928.319,731.828 930.468,745.769 928.572,759.0 C 927.207,768.521 922.832,777.459 922.0,787.0" style="stroke:#010101; fill:none;"/>
	<path d="M 975.0,719.0 L 978.0,746.0 L 976.0,732.0" style="stroke:#010101; fill:none;"/>
	<path d="M 788.0,727.0 L 801.0,723.0" style="stroke:#010101; fill:none;"/>
	<path d="M 844.0,723.0 L 845.0,724.0" style="stroke:#010101; fill:none;"/>
	<path d="M 979.0,723.0 L 986.286,769.0 L 988.0,788.0 C 979.397,781.666 978.086,756.329 978.0,746.0" style="stroke:#010101; fill:none;"/>
	<path d="M 846.0,726.0 C 843.664,736.093 835.979,747.495 838.0,758.0 C 832.039,762.082 832.79,770.87 829.589,776.911 C 824.973,785.621 825.906,792.631 823.688,802.0 C 819.082,821.445 817.0,838.581 817.0,859.0 C 817.0,866.604 815.291,888.138 824.0,891.0 C 824.26,886.035 821.724,857.201 827.0,863.0 L 827.0,864.0 L 828.0,865.0" style="stroke:#010101; fill:none;"/>
	<path d="M 983.0,726.0 C 984.494,744.768 990.568,763.118 992.086,782.0 C 992.691,789.532 994.709,798.049 991.0,805.0 L 988.0,788.0" style="stroke:#010101; fill:none;"/>
	<path d="M 990.0,728.0 C 990.269,741.05 994.02,754.082 995.718,767.0 C 998.363,787.11 998.849,807.719 997.961,828.0 C 995.035,894.811 967.524,971.079 920.0,1019.0" style="stroke:#010101; fill:none;"/>
	<path d="M 266.0,729.0 L 259.0,775.0" style="stroke:#010101; fill:none;"/>
	<path d="M 814.0,845.0 C 804.967,817.23 806.509,785.8 815.025,758.0 C 817.457,750.06 820.222,736.173 828.0,732.0" style="stroke:#010101; fill:none;"/>
	<path d="M 279.0,734.0 C 282.501,746.799 290.078,758.658 295.0,771.0 C 304.679,795.271 314.315,819.524 327.8,842.0 C 333.104,850.84 339.02,861.379 347.0,868.0 L 342.0,882.0" style="stroke:#010101; fill:none;"/>
	<path d="M 851.0,737.0 L 843.0,757.0 L 872.424,789.0 L 880.972,802.0 L 876.127,821.0 L 866.0,869.0 C 862.04,864.789 863.933,860.343 863.996,855.0 C 864.118,844.728 868.581,819.424 861.0,812.0 L 861.0,824.0 C 855.696,826.45 856.18,832.743 855.989,838.0 C 855.608,848.488 854.943,859.587 853.714,870.0 C 847.487,922.776 858.87,977.649 879.0,1026.0" style="stroke:#010101; fill:none;"/>
	<path d="M 980.0,746.0 L 980.0,759.0" style="stroke:#010101; fill:none;"/>
	<path d="M 958.0,748.0 L 956.0,756.0 L 961.0,751.0" style="stroke:#010101; fill:none;"/>
	<path d="M 1008.0,749.0 L 1009.0,754.0 L 1011.0,752.0" style="stroke:#010101; fill:none;"/>
	<path d="M 1009.0,754.0 L 1010.0,758.0" style="stroke:#010101; fill:none;"/>
	<path d="M 956.0,756.0 C 953.968,764.037 947.6,770.149 942.0,776.0" style="stroke:#010101; fill:none;"/>
	<path d="M 836.0,757.0 L 836.0,758.0" style="stroke:#010101; fill:none;"/>
	<path d="M 843.0,759.0 L 841.0,764.0 C 840.117,760.696 840.043,758.92 843.0,757.0" style="stroke:#010101; fill:none;"/>
	<path d="M 828.0,758.0 C 827.047,765.078 824.458,770.685 829.0,777.0" style="stroke:#010101; fill:none;"/>
	<path d="M 837.0,759.0 L 835.0,782.0 C 837.951,776.883 839.889,769.894 839.0,764.0" style="stroke:#010101; fill:none;"/>
	<path d="M 982.0,759.0 L 985.0,771.0" style="stroke:#010101; fill:none;"/>
	<path d="M 1015.0,760.0 L 1012.0,765.0 L 1012.0,763.0" style="stroke:#010101; fill:none;"/>
	<path d="M 1013.0,762.0 L 1015.0,765.0" style="stroke:#010101; fill:none;"/>
	<path d="M 850.0,763.0 C 835.804,779.384 834.123,814.203 832.964,835.0 C 832.531,842.783 830.605,850.359 833.0,858.0 C 837.433,848.0 848.365,829.791 844.0,819.0 L 842.0,827.0" style="stroke:#010101; fill:none;"/>
	<path d="M 1018.0,765.0 L 1016.0,766.0" style="stroke:#010101; fill:none;"/>
	<path d="M 841.0,765.0 L 840.0,766.0" style="stroke:#010101; fill:none;"/>
	<path d="M 933.0,771.0 C 932.499,767.919 932.915,767.053 936.0,768.0 L 936.0,768.0" style="stroke:#010101; fill:none;"/>
	<path d="M 954.0,766.0 C 951.365,774.912 951.382,785.718 950.961,795.0 C 949.984,816.515 947.439,840.841 966.0,856.0" style="stroke:#010101; fill:none;"/>
	<path d="M 1013.0,766.0 L 1016.0,767.0" style="stroke:#010101; fill:none;"/>
	<path d="M 1019.0,766.0 L 1030.0,782.0" style="stroke:#010101; fill:none;"/>
	<path d="M 1016.0,769.0 L 1026.0,789.0 L 1030.0,783.0" style="stroke:#010101; fill:none;"/>
	<path d="M 1014.0,770.0 L 1015.0,771.0" style="stroke:#010101; fill:none;"/>
	<path d="M 985.0,771.0 L 986.0,777.0" style="stroke:#010101; fill:none;"/>
	<path d="M 1001.0,771.0 C 1006.98,811.653 1032.2,848.332 1069.0,868.0" style="stroke:#010101; fill:none;"/>
	<path d="M 1015.0,771.0 L 1017.0,776.0" style="stroke:#010101; fill:none;"/>
	<path d="M 851.0,773.0 C 842.591,792.54 839.667,817.003 837.0,838.0" style="stroke:#010101; fill:none;"/>
	<path d="M 856.0,774.0 L 844.0,819.0" style="stroke:#010101; fill:none;"/>
	<path d="M 869.0,774.0 L 866.0,778.0" style="stroke:#010101; fill:none;"/>
	<path d="M 254.0,776.0 L 254.0,792.0" style="stroke:#010101; fill:none;"/>
	<path d="M 826.0,776.0 L 826.0,779.0" style="stroke:#010101; fill:none;"/>
	<path d="M 867.0,777.0 L 903.0,808.0 L 907.0,800.0" style="stroke:#010101; fill:none;"/>
	<path d="M 986.0,777.0 L 987.0,783.0" style="stroke:#010101; fill:none;"/>
	<path d="M 837.0,782.0 L 834.0,783.0" style="stroke:#010101; fill:none;"/>
	<path d="M 860.0,782.0 L 849.0,812.0 L 851.0,810.0" style="stroke:#010101; fill:none;"/>
	<path d="M 865.0,782.0 L 853.0,826.0" style="stroke:#010101; fill:none;"/>
	<path d="M 987.0,783.0 L 987.0,785.0" style="stroke:#010101; fill:none;"/>
	<path d="M 834.0,785.0 L 828.17,824.0 L 824.0,844.0 L 824.0,806.0" style="stroke:#010101; fill:none;"/>
	<path d="M 836.0,785.0 L 835.0,806.0" style="stroke:#010101; fill:none;"/>
	<path d="M 869.0,787.0 L 862.0,812.0" style="stroke:#010101; fill:none;"/>
	<path d="M 985.0,787.0 L 991.0,831.0" style="stroke:#010101; fill:none;"/>
	<path d="M 914.0,788.0 L 915.0,793.0 L 917.0,791.0" style="stroke:#010101; fill:none;"/>
	<path d="M 1026.0,790.0 C 1038.74,811.834 1049.44,833.797 1066.29,853.0 C 1091.21,881.418 1124.74,900.967 1158.0,918.0" style="stroke:#010101; fill:none;"/>
	<path d="M 890.0,793.0 L 882.0,801.0" style="stroke:#010101; fill:none;"/>
	<path d="M 921.0,793.0 L 921.0,796.0" style="stroke:#010101; fill:none;"/>
	<path d="M 874.0,794.0 L 866.0,828.0" style="stroke:#010101; fill:none;"/>
	<path d="M 913.0,794.0 L 914.0,799.0 L 916.0,794.0" style="stroke:#010101; fill:none;"/>
	<path d="M 914.0,799.0 C 910.357,803.851 906.68,809.809 908.0,816.0 L 913.0,812.0 C 920.424,831.825 917.858,878.638 953.0,871.0" style="stroke:#010101; fill:none;"/>
	<path d="M 914.0,801.0 L 913.0,812.0" style="stroke:#010101; fill:none;"/>
	<path d="M 897.0,805.0 C 897.0,834.257 892.376,864.112 871.0,886.0" style="stroke:#010101; fill:none;"/>
	<path d="M 907.0,805.0 L 909.0,807.0" style="stroke:#010101; fill:none;"/>
	<path d="M 991.0,805.0 L 993.0,817.0" style="stroke:#010101; fill:none;"/>
	<path d="M 850.0,807.0 L 850.0,809.0" style="stroke:#010101; fill:none;"/>
	<path d="M 903.0,808.0 L 907.0,812.0" style="stroke:#010101; fill:none;"/>
	<path d="M 1011.0,811.0 L 1012.0,815.0 L 1014.0,813.0" style="stroke:#010101; fill:none;"/>
	<path d="M 848.0,813.0 L 846.0,819.0" style="stroke:#010101; fill:none;"/>
	<path d="M 850.0,813.0 L 849.0,822.0" style="stroke:#010101; fill:none;"/>
	<path d="M 1012.0,815.0 L 1010.0,826.0 L 1000.0,816.0" style="stroke:#010101; fill:none;"/>
	<path d="M 908.0,816.0 C 907.989,830.609 895.774,847.293 900.0,862.0 C 907.799,853.937 908.999,837.676 909.0,827.0" style="stroke:#010101; fill:none;"/>
	<path d="M 886.0,819.0 L 873.0,846.0" style="stroke:#010101; fill:none;"/>
	<path d="M 988.0,819.0 C 983.567,834.775 983.966,851.828 981.573,868.0 C 976.673,901.104 968.299,933.115 953.0,963.0" style="stroke:#010101; fill:none;"/>
	<path d="M 858.0,822.0 L 858.0,824.0" style="stroke:#010101; fill:none;"/>
	<path d="M 1013.0,825.0 C 1020.64,863.396 1018.54,905.889 1005.66,943.0 C 997.586,966.245 985.326,986.883 975.0,1009.0" style="stroke:#010101; fill:none;"/>
	<path d="M 1010.0,827.0 L 1012.0,829.0" style="stroke:#010101; fill:none;"/>
	<path d="M 683.0,833.0 L 689.0,829.0" style="stroke:#010101; fill:none;"/>
	<path d="M 756.0,833.0 C 740.168,860.126 739.888,892.626 749.026,922.0 C 752.996,934.762 759.846,946.417 764.308,959.0 C 773.111,983.824 780.0,1010.5 780.0,1037.0 C 780.0,1054.26 782.535,1076.19 772.0,1091.0" style="stroke:#010101; fill:none;"/>
	<path d="M 975.0,838.0 C 970.07,871.532 961.38,905.859 950.667,938.0 C 947.503,947.49 943.866,956.907 939.691,966.0 C 937.348,971.104 933.118,976.349 933.0,982.0" style="stroke:#010101; fill:none;"/>
	<path d="M 824.0,839.0 L 826.0,839.0" style="stroke:#010101; fill:none;"/>
	<path d="M 843.0,839.0 C 837.337,869.503 838.766,903.736 845.211,934.0 C 847.146,943.086 849.271,960.046 858.0,965.0" style="stroke:#010101; fill:none;"/>
	<path d="M 824.0,844.0 L 824.0,859.0" style="stroke:#010101; fill:none;"/>
	<path d="M 831.0,858.0 L 833.0,859.0" style="stroke:#010101; fill:none;"/>
	<path d="M 832.0,860.0 C 831.422,873.42 824.843,887.89 825.343,901.0 C 826.213,923.777 830.369,953.351 840.373,974.0 C 851.119,996.178 867.109,1014.3 880.0,1035.0" style="stroke:#010101; fill:none;"/>
	<path d="M 864.0,860.0 L 867.0,863.0" style="stroke:#010101; fill:none;"/>
	<path d="M 901.0,862.0 L 873.0,898.0" style="stroke:#010101; fill:none;"/>
	<path d="M 258.0,863.0 L 260.0,867.0" style="stroke:#010101; fill:none;"/>
	<path d="M 347.0,869.0 L 368.0,883.0 C 359.41,899.13 359.699,917.321 360.91,935.0 C 363.537,973.316 370.318,1015.34 390.012,1049.0 C 406.383,1076.98 436.897,1108.14 426.0,1144.0 C 419.03,1121.06 413.532,1099.52 400.0,1079.0 L 405.485,1099.0 L 414.0,1136.0" style="stroke:#010101; fill:none;"/>
	<path d="M 862.0,869.0 C 870.431,888.808 858.585,912.888 865.0,934.0 C 878.27,927.681 885.585,905.072 889.996,892.0 C 891.612,887.213 893.748,882.041 893.0,877.0" style="stroke:#010101; fill:none;"/>
	<path d="M 866.0,869.0 L 866.0,873.0" style="stroke:#010101; fill:none;"/>
	<path d="M 342.0,872.0 C 326.294,907.266 315.22,951.942 332.107,988.971 C 349.082,1026.19 375.162,1057.56 383.449,1099.0 C 386.308,1113.3 389.699,1131.31 383.0,1145.0" style="stroke:#010101; fill:none;"/>
	<path d="M 350.0,882.0 C 336.963,922.827 344.368,978.897 360.389,1018.0 C 364.42,1027.84 370.333,1037.89 377.222,1046.0 C 378.624,1047.65 386.03,1057.04 386.0,1052.0" style="stroke:#010101; fill:none;"/>
	<path d="M 336.0,993.0 C 331.699,963.771 326.151,939.584 334.151,910.0 C 336.304,902.04 338.866,887.705 347.0,884.0" style="stroke:#010101; fill:none;"/>
	<path d="M 359.0,883.0 C 353.464,890.783 352.813,898.819 351.715,908.0 C 349.226,928.81 350.299,952.463 354.4,973.0 C 356.057,981.302 356.916,995.412 365.0,1000.0" style="stroke:#010101; fill:none;"/>
	<path d="M 368.0,883.0 C 385.616,887.039 403.89,888.95 422.0,889.0" style="stroke:#010101; fill:none;"/>
	<path d="M 825.0,889.0 L 827.0,889.0" style="stroke:#010101; fill:none;"/>
	<path d="M 263.0,891.0 L 278.0,922.0" style="stroke:#010101; fill:none;"/>
	<path d="M 825.0,892.0 L 827.0,891.0" style="stroke:#010101; fill:none;"/>
	<path d="M 825.0,892.0 L 825.0,895.0" style="stroke:#010101; fill:none;"/>
	<path d="M 262.0,893.0 L 264.0,895.0" style="stroke:#010101; fill:none;"/>
	<path d="M 273.0,917.0 L 275.0,920.0" style="stroke:#010101; fill:none;"/>
	<path d="M 275.0,921.0 L 276.0,922.0" style="stroke:#010101; fill:none;"/>
	<path d="M 276.0,922.0 C 279.251,935.679 289.492,948.533 295.892,961.0 C 305.124,978.985 312.368,999.008 315.715,1019.0 C 317.341,1028.72 318.047,1038.16 317.999,1048.0 C 317.983,1051.4 316.301,1056.75 319.0,1059.0" style="stroke:#010101; fill:none;"/>
	<path d="M 865.0,934.0 C 865.999,946.633 870.045,959.818 876.0,971.0" style="stroke:#010101; fill:none;"/>
	<path d="M 296.0,965.0 L 297.0,967.0" style="stroke:#010101; fill:none;"/>
	<path d="M 764.0,965.0 L 765.0,966.0" style="stroke:#010101; fill:none;"/>
	<path d="M 297.0,967.0 L 309.871,1046.0 L 307.386,1075.0 L 305.0,1094.0 L 317.0,1061.0" style="stroke:#010101; fill:none;"/>
	<path d="M 765.0,967.0 L 766.0,968.0" style="stroke:#010101; fill:none;"/>
	<path d="M 931.0,982.0 L 931.0,983.0" style="stroke:#010101; fill:none;"/>
	<path d="M 929.0,987.0 L 925.0,991.0" style="stroke:#010101; fill:none;"/>
	<path d="M 335.0,994.0 L 336.0,997.0" style="stroke:#010101; fill:none;"/>
	<path d="M 336.0,998.0 L 337.0,999.0" style="stroke:#010101; fill:none;"/>
	<path d="M 337.0,1000.0 L 338.0,1001.0" style="stroke:#010101; fill:none;"/>
	<path d="M 338.0,1001.0 L 338.0,1003.0" style="stroke:#010101; fill:none;"/>
	<path d="M 388.0,1056.0 L 391.0,1058.0" style="stroke:#010101; fill:none;"/>
	<path d="M 389.0,1058.0 L 400.0,1078.0" style="stroke:#010101; fill:none;"/>
	<path d="M 395.0,1071.0 L 396.0,1075.0" style="stroke:#010101; fill:none;"/>
	<path d="M 396.0,1076.0 L 397.0,1077.0" style="stroke:#010101; fill:none;"/>
	<path d="M 397.0,1077.0 L 399.0,1081.0" style="stroke:#010101; fill:none;"/>
	<path d="M 303.0,1094.0 L 305.0,1095.0" style="stroke:#010101; fill:none;"/>
	<path d="M 303.0,1097.0 C 297.609,1119.75 284.339,1143.93 270.0,1162.0" style="stroke:#010101; fill:none;"/>
	<path d="M 426.0,1144.0 C 426.0,1158.45 424.812,1171.0 418.0,1184.0" style="stroke:#010101; fill:none;"/>
	<path d="M 279.0,1153.0 L 278.0,1154.0" style="stroke:#010101; fill:none;"/>
	<path d="M 278.0,1154.0 L 273.0,1166.0" style="stroke:#010101; fill:none;"/>
	<path d="M 846.0,1195.0 L 847.0,1195.0" style="stroke:#010101; fill:none;"/>
</svg>
