<?xml version="1.0" ?>
<svg baseProfile="full" height="1495" version="1.1" width="1168" xmlns="http://www.w3.org/2000/svg" xmlns:ev="http://www.w3.org/2001/xml-events" xmlns:xlink="http://www.w3.org/1999/xlink">
	<defs/>
	<path d="M 595.0,62.0 C 584.413,59.8149 571.948,59.6902 564.0,52.0 C 579.219,47.3752 597.24,49.0 613.0,49.0 C 654.116,49.0 704.431,50.7363 741.0,72.0 L 738.0,79.0 C 745.801,68.968 759.324,77.8759 768.0,84.0 L 768.0,92.0 L 775.0,87.0 L 769.0,90.0" style="stroke:#010101; fill:none;"/>
	<path d="M 567.0,72.0 C 548.401,65.9585 529.353,66.0 510.0,66.0 C 498.99,66.0 489.214,69.6282 481.0,61.0 L 521.0,55.8311 L 564.0,52.0" style="stroke:#010101; fill:none;"/>
	<path d="M 485.0,66.0 C 480.219,68.4045 477.93,66.7574 476.0,62.0 L 481.0,61.0" style="stroke:#010101; fill:none;"/>
	<path d="M 477.0,66.0 C 473.291,67.6505 472.043,66.6089 469.0,64.0 L 476.0,62.0" style="stroke:#010101; fill:none;"/>
	<path d="M 594.0,82.0 L 531.0,75.8835 L 496.0,76.0 L 505.0,79.0 C 497.326,81.6707 487.967,79.5756 480.0,79.0864 C 467.775,78.3358 455.241,78.8986 443.0,79.155 C 439.6,79.2263 424.643,82.7859 425.466,76.0848 C 425.945,72.1841 432.906,70.5455 436.0,69.8187 C 446.982,67.2391 458.072,66.8284 469.0,64.0" style="stroke:#010101; fill:none;"/>
	<path d="M 573.0,67.0 C 593.615,72.6378 611.823,84.2401 630.0,95.0" style="stroke:#010101; fill:none;"/>
	<path d="M 595.0,68.0 C 611.891,76.9115 630.477,81.9244 645.0,95.0" style="stroke:#010101; fill:none;"/>
	<path d="M 622.0,68.0 C 649.842,80.0129 680.451,103.896 702.0,125.0" style="stroke:#010101; fill:none;"/>
	<path d="M 738.0,70.0 L 736.0,77.0" style="stroke:#010101; fill:none;"/>
	<path d="M 430.0,72.0 C 437.363,78.5071 447.858,76.0399 457.0,75.1698 C 470.019,73.9307 483.034,75.9915 496.0,76.0" style="stroke:#010101; fill:none;"/>
	<path d="M 617.0,72.0 C 633.091,78.7347 647.545,89.08 661.0,100.0" style="stroke:#010101; fill:none;"/>
	<path d="M 742.0,72.0 L 743.0,73.0" style="stroke:#010101; fill:none;"/>
	<path d="M 640.0,73.0 L 679.0,97.0 C 679.419,90.9094 671.508,87.2384 667.0,84.0" style="stroke:#010101; fill:none;"/>
	<path d="M 127.0,286.0 C 125.583,275.792 133.616,267.393 139.481,259.714 C 151.587,243.867 163.458,228.859 176.831,214.0 C 224.106,161.473 290.84,122.476 356.0,96.2007 C 377.209,87.6484 401.695,74.0643 425.0,74.0" style="stroke:#010101; fill:none;"/>
	<path d="M 720.0,75.0 C 746.563,93.9132 777.633,106.761 802.0,129.0 L 785.0,120.333 L 747.0,98.0" style="stroke:#010101; fill:none;"/>
	<path d="M 505.0,80.0 L 522.0,83.0 L 514.0,80.0" style="stroke:#010101; fill:none;"/>
	<path d="M 740.0,80.0 C 749.349,84.0337 763.858,98.5739 774.0,97.0 L 770.0,93.0" style="stroke:#010101; fill:none;"/>
	<path d="M 506.0,81.0 L 511.0,81.0" style="stroke:#010101; fill:none;"/>
	<path d="M 523.0,81.0 L 530.0,83.0 L 523.0,84.0" style="stroke:#010101; fill:none;"/>
	<path d="M 670.0,82.0 C 693.376,95.316 714.295,114.808 734.0,132.911 C 739.025,137.527 745.093,140.187 750.0,145.0 L 742.0,139.0" style="stroke:#010101; fill:none;"/>
	<path d="M 407.0,87.0 C 437.442,84.5973 472.059,77.5312 502.0,87.0" style="stroke:#010101; fill:none;"/>
	<path d="M 530.0,83.0 C 560.446,84.311 588.363,98.8135 617.0,107.0" style="stroke:#010101; fill:none;"/>
	<path d="M 688.0,83.0 L 743.0,137.0" style="stroke:#010101; fill:none;"/>
	<path d="M 768.0,84.0 L 773.0,86.0" style="stroke:#010101; fill:none;"/>
	<path d="M 530.0,85.0 L 533.0,85.0" style="stroke:#010101; fill:none;"/>
	<path d="M 775.0,87.0 C 798.167,94.332 824.212,114.756 840.826,132.089 C 851.39,143.11 858.173,155.435 871.0,164.446 C 888.236,176.554 911.541,177.683 931.0,185.064 C 958.315,195.425 981.005,211.27 1003.0,230.209 C 1042.39,264.127 1055.76,308.004 1072.1,355.0 C 1084.44,390.494 1097.42,426.097 1105.58,463.0 C 1109.71,481.721 1109.66,502.939 1115.0,521.0 L 1120.0,514.0" style="stroke:#010101; fill:none;"/>
	<path d="M 401.0,93.0 C 430.415,92.3965 457.64,91.2863 487.0,95.0" style="stroke:#010101; fill:none;"/>
	<path d="M 683.0,96.0 L 687.0,100.0 L 681.0,97.0" style="stroke:#010101; fill:none;"/>
	<path d="M 774.0,96.0 L 777.0,99.0 L 773.0,99.0" style="stroke:#010101; fill:none;"/>
	<path d="M 778.0,99.0 L 780.0,101.0 L 776.0,101.0" style="stroke:#010101; fill:none;"/>
	<path d="M 688.0,100.0 L 691.0,103.0 L 686.0,102.0" style="stroke:#010101; fill:none;"/>
	<path d="M 781.0,101.0 L 783.0,103.0 L 779.0,103.0" style="stroke:#010101; fill:none;"/>
	<path d="M 386.0,103.0 C 399.013,104.84 412.815,103.893 426.0,105.17 C 459.825,108.445 493.808,116.259 526.0,127.0 C 547.445,134.155 569.8,142.65 585.0,160.0" style="stroke:#010101; fill:none;"/>
	<path d="M 692.0,103.0 L 695.0,106.0 L 690.0,105.0" style="stroke:#010101; fill:none;"/>
	<path d="M 784.0,103.0 C 801.032,124.38 838.241,137.545 845.0,167.0" style="stroke:#010101; fill:none;"/>
	<path d="M 721.0,104.0 C 729.877,112.877 739.249,121.463 747.421,131.0 C 750.666,134.788 753.619,140.39 759.0,139.0 C 756.514,138.53 754.846,139.885 756.0,137.0" style="stroke:#010101; fill:none;"/>
	<path d="M 782.0,105.0 L 784.0,106.0" style="stroke:#010101; fill:none;"/>
	<path d="M 696.0,106.0 L 700.0,110.0 L 697.0,109.0" style="stroke:#010101; fill:none;"/>
	<path d="M 694.0,108.0 L 697.0,109.0" style="stroke:#010101; fill:none;"/>
	<path d="M 701.0,110.0 L 705.0,114.0 L 699.0,112.0" style="stroke:#010101; fill:none;"/>
	<path d="M 702.0,111.0 L 702.0,113.0" style="stroke:#010101; fill:none;"/>
	<path d="M 706.0,114.0 L 711.0,119.0 L 704.0,116.0" style="stroke:#010101; fill:none;"/>
	<path d="M 707.0,115.0 L 707.0,117.0" style="stroke:#010101; fill:none;"/>
	<path d="M 712.0,119.0 L 742.0,145.0" style="stroke:#010101; fill:none;"/>
	<path d="M 743.0,119.0 L 756.0,137.0" style="stroke:#010101; fill:none;"/>
	<path d="M 713.0,120.0 L 710.0,121.0" style="stroke:#010101; fill:none;"/>
	<path d="M 712.0,122.0 L 725.0,134.0" style="stroke:#010101; fill:none;"/>
	<path d="M 760.0,124.0 C 783.135,147.15 799.715,177.937 814.247,207.0 C 821.664,221.833 830.538,239.23 832.0,256.0" style="stroke:#010101; fill:none;"/>
	<path d="M 331.0,128.0 C 368.951,127.217 415.628,119.861 452.0,134.0" style="stroke:#010101; fill:none;"/>
	<path d="M 803.0,129.0 L 810.0,137.0 L 809.0,134.0" style="stroke:#010101; fill:none;"/>
	<path d="M 314.0,136.0 C 322.892,132.063 332.447,131.645 342.0,130.841 C 366.658,128.766 396.242,126.955 420.0,135.0" style="stroke:#010101; fill:none;"/>
	<path d="M 801.0,131.0 L 806.0,134.0" style="stroke:#010101; fill:none;"/>
	<path d="M 810.0,137.0 L 815.0,141.0" style="stroke:#010101; fill:none;"/>
	<path d="M 812.0,137.0 L 811.0,138.0" style="stroke:#010101; fill:none;"/>
	<path d="M 760.0,141.0 L 761.0,145.0 L 758.0,142.0" style="stroke:#010101; fill:none;"/>
	<path d="M 312.0,146.0 L 400.0,143.0" style="stroke:#010101; fill:none;"/>
	<path d="M 755.0,149.0 L 751.0,145.0 L 752.0,144.0 L 761.0,160.0 L 760.0,157.0" style="stroke:#010101; fill:none;"/>
	<path d="M 762.0,146.0 C 774.957,169.273 796.039,187.372 805.0,213.0 L 803.0,210.0" style="stroke:#010101; fill:none;"/>
	<path d="M 749.0,147.0 L 752.0,147.0" style="stroke:#010101; fill:none;"/>
	<path d="M 752.0,149.0 L 756.0,152.0" style="stroke:#010101; fill:none;"/>
	<path d="M 754.0,151.0 L 757.0,152.0" style="stroke:#010101; fill:none;"/>
	<path d="M 302.0,153.0 L 338.0,151.015 L 378.0,154.0" style="stroke:#010101; fill:none;"/>
	<path d="M 756.0,155.0 L 758.0,157.0" style="stroke:#010101; fill:none;"/>
	<path d="M 760.0,155.0 L 761.0,156.0" style="stroke:#010101; fill:none;"/>
	<path d="M 763.0,159.0 L 789.0,197.0" style="stroke:#010101; fill:none;"/>
	<path d="M 857.0,170.0 C 877.782,180.595 896.62,198.313 915.0,212.575 C 929.874,224.116 948.031,235.428 959.0,251.0" style="stroke:#010101; fill:none;"/>
	<path d="M 379.0,172.0 L 390.0,173.0" style="stroke:#010101; fill:none;"/>
	<path d="M 771.0,172.0 C 773.917,184.282 781.12,195.993 785.305,208.0 C 793.244,230.78 798.963,254.849 800.0,279.0" style="stroke:#010101; fill:none;"/>
	<path d="M 867.0,172.0 C 883.243,178.999 897.93,192.074 912.0,202.627 C 933.822,218.993 956.671,234.67 976.0,254.0" style="stroke:#010101; fill:none;"/>
	<path d="M 853.0,177.0 C 888.601,196.821 921.057,227.803 949.0,257.0" style="stroke:#010101; fill:none;"/>
	<path d="M 894.0,177.0 C 900.52,184.944 915.499,192.085 925.0,196.0 C 926.715,196.707 934.794,200.019 933.0,201.0" style="stroke:#010101; fill:none;"/>
	<path d="M 273.0,188.0 C 308.577,190.808 343.981,195.534 379.0,202.551 C 399.734,206.705 423.633,211.018 442.0,222.0" style="stroke:#010101; fill:none;"/>
	<path d="M 766.0,188.0 C 772.155,194.096 773.733,204.857 775.884,213.0 C 781.159,232.968 786.351,253.486 789.0,274.0" style="stroke:#010101; fill:none;"/>
	<path d="M 859.0,188.0 C 883.432,211.381 916.254,228.969 936.0,257.0" style="stroke:#010101; fill:none;"/>
	<path d="M 845.0,191.0 C 864.044,201.58 880.579,216.998 897.0,231.13 C 904.466,237.556 912.068,246.836 921.0,251.0" style="stroke:#010101; fill:none;"/>
	<path d="M 270.0,198.0 C 299.129,196.768 327.126,200.716 356.0,204.869 C 374.136,207.477 394.839,209.812 411.0,219.0" style="stroke:#010101; fill:none;"/>
	<path d="M 291.0,200.0 L 297.0,200.0" style="stroke:#010101; fill:none;"/>
	<path d="M 846.0,200.0 C 865.22,215.493 884.969,231.106 901.0,250.0" style="stroke:#010101; fill:none;"/>
	<path d="M 298.0,201.0 C 316.537,202.465 335.048,208.079 353.0,212.626 C 365.857,215.882 380.624,218.986 392.0,226.0" style="stroke:#010101; fill:none;"/>
	<path d="M 935.0,202.0 L 939.0,203.0 L 937.0,202.0" style="stroke:#010101; fill:none;"/>
	<path d="M 939.0,203.0 C 952.536,207.284 966.024,217.833 977.0,226.6 C 1002.03,246.597 1025.1,270.505 1041.8,298.0 C 1049.96,311.438 1057.0,324.99 1057.0,341.0" style="stroke:#010101; fill:none;"/>
	<path d="M 938.0,204.0 C 958.787,221.729 988.928,234.373 1005.0,257.0" style="stroke:#010101; fill:none;"/>
	<path d="M 241.0,206.0 C 288.118,206.39 332.052,221.24 378.0,228.0" style="stroke:#010101; fill:none;"/>
	<path d="M 802.0,208.0 L 802.0,209.0" style="stroke:#010101; fill:none;"/>
	<path d="M 769.0,210.0 C 777.521,236.188 785.823,264.424 788.0,292.0" style="stroke:#010101; fill:none;"/>
	<path d="M 843.0,210.0 L 904.0,259.0" style="stroke:#010101; fill:none;"/>
	<path d="M 238.0,212.0 C 250.007,209.657 264.028,213.187 276.0,214.87 C 304.007,218.806 339.49,221.18 365.0,234.0" style="stroke:#010101; fill:none;"/>
	<path d="M 807.0,214.0 L 810.0,220.0 L 807.0,217.0" style="stroke:#010101; fill:none;"/>
	<path d="M 769.0,215.0 L 769.0,216.0" style="stroke:#010101; fill:none;"/>
	<path d="M 235.0,220.0 C 262.659,220.0 290.008,225.051 317.0,230.789 C 332.024,233.983 347.997,236.452 362.0,243.0" style="stroke:#010101; fill:none;"/>
	<path d="M 809.0,221.0 L 811.0,229.0" style="stroke:#010101; fill:none;"/>
	<path d="M 768.0,225.0 L 782.0,284.0" style="stroke:#010101; fill:none;"/>
	<path d="M 224.0,230.0 C 250.255,230.0 276.16,232.569 302.0,237.411 C 316.009,240.035 329.97,245.109 344.0,247.0" style="stroke:#010101; fill:none;"/>
	<path d="M 763.0,241.0 L 777.0,299.0" style="stroke:#010101; fill:none;"/>
	<path d="M 225.0,242.0 C 263.985,242.0 300.757,251.845 339.0,257.0" style="stroke:#010101; fill:none;"/>
	<path d="M 209.0,249.0 C 247.478,249.0 287.85,254.323 325.0,264.0" style="stroke:#010101; fill:none;"/>
	<path d="M 761.0,259.0 L 759.0,263.0" style="stroke:#010101; fill:none;"/>
	<path d="M 201.0,261.0 C 222.72,262.268 244.326,264.329 266.0,265.911 C 279.931,266.928 295.2,266.838 308.0,273.0" style="stroke:#010101; fill:none;"/>
	<path d="M 762.0,262.0 L 770.0,300.0" style="stroke:#010101; fill:none;"/>
	<path d="M 830.0,275.0 C 840.07,274.431 850.977,276.646 861.0,277.845 C 879.941,280.111 901.773,281.228 919.0,290.0" style="stroke:#010101; fill:none;"/>
	<path d="M 811.0,279.0 C 838.079,279.558 874.822,287.823 899.0,300.0" style="stroke:#010101; fill:none;"/>
	<path d="M 66.0,393.0 C 68.823,394.036 63.8573,395.709 62.1111,394.556 C 55.8639,390.427 69.6954,369.579 72.25,365.0 C 82.6524,346.353 96.3276,329.605 106.75,311.0 C 111.734,302.103 116.734,286.972 125.0,281.0" style="stroke:#010101; fill:none;"/>
	<path d="M 757.0,288.0 C 739.308,313.065 730.823,347.736 723.0,377.0" style="stroke:#010101; fill:none;"/>
	<path d="M 803.0,288.0 C 827.944,289.072 858.148,293.656 881.0,304.0" style="stroke:#010101; fill:none;"/>
	<path d="M 789.0,301.0 C 817.821,301.0 845.915,304.561 874.0,311.0" style="stroke:#010101; fill:none;"/>
	<path d="M 737.0,305.0 C 723.288,334.37 717.0,360.466 717.0,393.0" style="stroke:#010101; fill:none;"/>
	<path d="M 794.0,316.0 C 818.802,309.583 852.21,318.262 876.0,326.0" style="stroke:#010101; fill:none;"/>
	<path d="M 184.0,325.0 C 203.02,319.325 225.366,322.0 245.0,322.0" style="stroke:#010101; fill:none;"/>
	<path d="M 484.0,325.0 C 489.238,330.238 499.32,345.55 507.0,345.0 L 502.0,344.0" style="stroke:#010101; fill:none;"/>
	<path d="M 642.0,327.0 L 655.0,339.0 L 659.0,347.0 L 654.0,340.0" style="stroke:#010101; fill:none;"/>
	<path d="M 635.0,328.0 C 648.427,341.539 665.709,357.554 672.0,376.0" style="stroke:#010101; fill:none;"/>
	<path d="M 784.0,330.0 C 809.396,326.79 833.66,329.911 859.0,331.0" style="stroke:#010101; fill:none;"/>
	<path d="M 492.0,329.0 L 504.0,341.0" style="stroke:#010101; fill:none;"/>
	<path d="M 559.0,331.0 L 580.0,376.0" style="stroke:#010101; fill:none;"/>
	<path d="M 572.0,332.0 L 586.0,371.0" style="stroke:#010101; fill:none;"/>
	<path d="M 621.0,333.0 C 632.615,346.295 646.438,359.826 654.0,376.0" style="stroke:#010101; fill:none;"/>
	<path d="M 174.0,335.0 C 198.284,334.499 224.456,334.534 248.0,342.0" style="stroke:#010101; fill:none;"/>
	<path d="M 479.0,334.0 L 528.0,381.0" style="stroke:#010101; fill:none;"/>
	<path d="M 655.0,334.0 L 666.0,340.0" style="stroke:#010101; fill:none;"/>
	<path d="M 509.0,335.0 L 538.0,362.0 C 538.826,356.354 533.737,352.748 530.0,349.0" style="stroke:#010101; fill:none;"/>
	<path d="M 600.0,335.0 C 610.314,343.054 624.598,357.313 626.0,371.0" style="stroke:#010101; fill:none;"/>
	<path d="M 592.0,336.0 C 600.926,347.613 613.305,363.835 614.0,379.0" style="stroke:#010101; fill:none;"/>
	<path d="M 611.0,337.0 C 619.944,346.132 632.823,358.617 634.0,372.0" style="stroke:#010101; fill:none;"/>
	<path d="M 635.0,337.0 C 648.321,343.212 662.046,363.39 667.0,377.0" style="stroke:#010101; fill:none;"/>
	<path d="M 556.0,338.0 L 573.0,370.0" style="stroke:#010101; fill:none;"/>
	<path d="M 652.0,338.0 L 652.0,340.0" style="stroke:#010101; fill:none;"/>
	<path d="M 671.0,338.0 L 691.0,367.0 L 686.0,361.0" style="stroke:#010101; fill:none;"/>
	<path d="M 547.0,339.0 L 567.0,369.0" style="stroke:#010101; fill:none;"/>
	<path d="M 581.0,339.0 C 587.798,349.076 607.604,371.112 601.0,384.0 L 595.0,376.0" style="stroke:#010101; fill:none;"/>
	<path d="M 603.0,339.0 L 607.0,343.0" style="stroke:#010101; fill:none;"/>
	<path d="M 633.0,339.0 C 642.288,349.64 652.829,360.695 658.0,374.0" style="stroke:#010101; fill:none;"/>
	<path d="M 668.0,342.0 L 685.0,361.0" style="stroke:#010101; fill:none;"/>
	<path d="M 664.0,343.0 L 667.0,346.0 L 665.0,345.0" style="stroke:#010101; fill:none;"/>
	<path d="M 607.0,344.0 L 610.0,347.0" style="stroke:#010101; fill:none;"/>
	<path d="M 624.0,344.0 C 630.004,351.397 638.48,358.991 639.0,369.0" style="stroke:#010101; fill:none;"/>
	<path d="M 173.0,345.0 C 197.122,347.694 221.162,345.299 245.0,352.0" style="stroke:#010101; fill:none;"/>
	<path d="M 456.0,345.0 L 509.0,384.0" style="stroke:#010101; fill:none;"/>
	<path d="M 483.0,345.0 L 524.0,385.0" style="stroke:#010101; fill:none;"/>
	<path d="M 507.0,345.0 L 527.0,368.0 L 520.0,359.0" style="stroke:#010101; fill:none;"/>
	<path d="M 506.0,346.0 L 508.0,348.0" style="stroke:#010101; fill:none;"/>
	<path d="M 590.0,346.0 C 595.351,355.391 610.253,368.335 608.0,380.0" style="stroke:#010101; fill:none;"/>
	<path d="M 661.0,346.0 C 668.703,353.784 677.846,363.281 681.0,374.0" style="stroke:#010101; fill:none;"/>
	<path d="M 668.0,347.0 L 692.0,383.0" style="stroke:#010101; fill:none;"/>
	<path d="M 446.0,348.0 C 460.088,359.182 474.64,372.26 491.0,380.0" style="stroke:#010101; fill:none;"/>
	<path d="M 508.0,348.0 L 518.0,360.0" style="stroke:#010101; fill:none;"/>
	<path d="M 610.0,348.0 L 614.0,350.0" style="stroke:#010101; fill:none;"/>
	<path d="M 659.0,348.0 L 669.0,359.0" style="stroke:#010101; fill:none;"/>
	<path d="M 185.0,351.0 C 205.366,352.607 225.582,352.52 245.0,360.0" style="stroke:#010101; fill:none;"/>
	<path d="M 475.0,351.0 L 508.0,376.0" style="stroke:#010101; fill:none;"/>
	<path d="M 442.0,352.0 L 470.0,373.0" style="stroke:#010101; fill:none;"/>
	<path d="M 613.0,352.0 L 623.0,373.0" style="stroke:#010101; fill:none;"/>
	<path d="M 426.0,353.0 L 463.0,376.0" style="stroke:#010101; fill:none;"/>
	<path d="M 748.0,369.0 C 775.479,361.05 803.584,356.672 832.0,353.831 C 850.258,352.005 870.42,351.192 888.0,357.0" style="stroke:#010101; fill:none;"/>
	<path d="M 410.0,354.0 L 448.0,375.0" style="stroke:#010101; fill:none;"/>
	<path d="M 189.0,357.0 C 207.397,357.01 226.447,359.438 244.0,365.0" style="stroke:#010101; fill:none;"/>
	<path d="M 838.0,362.0 L 829.0,360.0 C 842.735,355.94 866.25,355.936 880.0,360.0" style="stroke:#010101; fill:none;"/>
	<path d="M 384.0,360.0 L 437.0,380.0" style="stroke:#010101; fill:none;"/>
	<path d="M 540.0,360.0 L 554.0,378.0" style="stroke:#010101; fill:none;"/>
	<path d="M 781.0,369.0 L 777.0,369.0 L 789.001,366.368 L 829.0,360.0" style="stroke:#010101; fill:none;"/>
	<path d="M 539.0,361.0 L 541.0,363.0" style="stroke:#010101; fill:none;"/>
	<path d="M 819.0,362.0 L 825.0,362.0" style="stroke:#010101; fill:none;"/>
	<path d="M 94.0,363.0 L 85.0,373.0 L 87.0,371.0" style="stroke:#010101; fill:none;"/>
	<path d="M 796.0,363.0 L 797.0,363.0" style="stroke:#010101; fill:none;"/>
	<path d="M 540.0,364.0 L 543.0,366.0" style="stroke:#010101; fill:none;"/>
	<path d="M 783.0,365.0 L 791.0,364.0" style="stroke:#010101; fill:none;"/>
	<path d="M 196.0,366.0 C 213.251,366.0 233.605,367.226 250.0,373.0" style="stroke:#010101; fill:none;"/>
	<path d="M 94.0,367.0 L 88.0,370.0" style="stroke:#010101; fill:none;"/>
	<path d="M 528.0,367.0 L 545.0,381.0" style="stroke:#010101; fill:none;"/>
	<path d="M 776.0,370.0 L 764.0,370.0 L 777.0,367.0" style="stroke:#010101; fill:none;"/>
	<path d="M 735.0,389.0 C 764.387,377.664 793.895,370.914 825.0,367.0" style="stroke:#010101; fill:none;"/>
	<path d="M 360.0,368.0 L 386.0,385.0" style="stroke:#010101; fill:none;"/>
	<path d="M 527.0,368.0 L 537.0,380.0" style="stroke:#010101; fill:none;"/>
	<path d="M 692.0,368.0 L 703.0,389.0" style="stroke:#010101; fill:none;"/>
	<path d="M 351.0,369.0 L 420.0,411.0" style="stroke:#010101; fill:none;"/>
	<path d="M 765.0,372.0 C 760.34,374.063 755.895,375.953 751.0,374.0 L 764.0,370.0" style="stroke:#010101; fill:none;"/>
	<path d="M 207.0,373.0 C 218.705,369.54 236.566,373.374 248.0,377.0" style="stroke:#010101; fill:none;"/>
	<path d="M 69.0,392.0 L 84.0,374.0" style="stroke:#010101; fill:none;"/>
	<path d="M 752.0,376.0 L 748.0,375.0 L 751.0,374.0" style="stroke:#010101; fill:none;"/>
	<path d="M 878.0,395.0 C 858.316,390.794 840.431,383.116 820.0,381.17 C 808.252,380.051 790.479,385.142 780.0,380.0 C 790.565,376.422 805.907,373.235 817.0,375.0" style="stroke:#010101; fill:none;"/>
	<path d="M 351.0,375.0 L 396.0,402.0" style="stroke:#010101; fill:none;"/>
	<path d="M 552.0,375.0 L 553.0,378.0" style="stroke:#010101; fill:none;"/>
	<path d="M 749.0,377.0 L 745.0,376.0 L 748.0,375.0" style="stroke:#010101; fill:none;"/>
	<path d="M 557.0,378.0 L 567.0,389.0" style="stroke:#010101; fill:none;"/>
	<path d="M 734.0,383.0 L 745.0,378.0" style="stroke:#010101; fill:none;"/>
	<path d="M 555.0,379.0 L 556.0,382.0" style="stroke:#010101; fill:none;"/>
	<path d="M 780.0,382.0 L 776.0,382.0 L 780.0,380.0" style="stroke:#010101; fill:none;"/>
	<path d="M 216.0,381.0 L 247.0,384.0" style="stroke:#010101; fill:none;"/>
	<path d="M 746.0,388.0 L 776.0,382.0 L 773.0,381.0" style="stroke:#010101; fill:none;"/>
	<path d="M 87.0,382.0 L 66.0,402.0 L 67.0,400.0" style="stroke:#010101; fill:none;"/>
	<path d="M 354.0,383.0 L 377.0,396.0 C 368.622,398.676 353.954,388.586 347.0,384.0" style="stroke:#010101; fill:none;"/>
	<path d="M 773.0,383.0 L 771.0,385.0" style="stroke:#010101; fill:none;"/>
	<path d="M 800.0,383.0 L 881.0,408.0" style="stroke:#010101; fill:none;"/>
	<path d="M 310.0,385.0 L 341.0,392.151 L 357.0,395.0 L 337.0,387.0" style="stroke:#010101; fill:none;"/>
	<path d="M 809.0,390.0 C 823.55,392.714 836.187,397.966 850.0,403.54 C 855.301,405.679 862.91,406.589 864.0,413.0 L 875.0,416.0 L 876.0,415.0 L 877.0,416.0 L 876.0,417.0" style="stroke:#010101; fill:none;"/>
	<path d="M 816.0,391.0 L 817.0,391.0" style="stroke:#010101; fill:none;"/>
	<path d="M 82.0,402.0 L 58.0,430.0 L 53.0,426.0 L 85.0,393.0" style="stroke:#010101; fill:none;"/>
	<path d="M 59.0,394.0 C 57.667,399.815 54.6365,405.002 59.0,410.0 L 65.0,402.0" style="stroke:#010101; fill:none;"/>
	<path d="M 1010.0,394.0 C 1002.47,402.761 985.79,406.082 975.0,409.14 C 948.411,416.677 919.689,421.809 892.0,420.985 C 886.432,420.819 881.611,418.281 876.0,418.0" style="stroke:#010101; fill:none;"/>
	<path d="M 358.0,395.0 L 363.0,397.0 L 364.0,400.0 L 369.0,402.0 L 370.0,402.0 L 370.0,400.0" style="stroke:#010101; fill:none;"/>
	<path d="M 66.0,396.0 L 66.0,399.0" style="stroke:#010101; fill:none;"/>
	<path d="M 360.0,396.0 L 361.0,397.0" style="stroke:#010101; fill:none;"/>
	<path d="M 377.0,396.0 L 385.0,399.0" style="stroke:#010101; fill:none;"/>
	<path d="M 357.0,397.0 L 358.0,397.0" style="stroke:#010101; fill:none;"/>
	<path d="M 376.0,397.0 L 381.0,400.0" style="stroke:#010101; fill:none;"/>
	<path d="M 365.0,398.0 L 366.0,399.0" style="stroke:#010101; fill:none;"/>
	<path d="M 362.0,399.0 L 363.0,399.0" style="stroke:#010101; fill:none;"/>
	<path d="M 318.0,406.0 L 284.0,405.0 L 301.0,401.83 L 341.0,401.0" style="stroke:#010101; fill:none;"/>
	<path d="M 367.0,401.0 L 368.0,401.0" style="stroke:#010101; fill:none;"/>
	<path d="M 372.0,401.0 L 377.0,406.0" style="stroke:#010101; fill:none;"/>
	<path d="M 371.0,403.0 L 372.0,403.0" style="stroke:#010101; fill:none;"/>
	<path d="M 283.0,406.0 L 277.0,406.0 L 284.0,404.0" style="stroke:#010101; fill:none;"/>
	<path d="M 834.0,404.0 L 863.0,412.0" style="stroke:#010101; fill:none;"/>
	<path d="M 270.0,407.0 L 263.0,407.0 L 277.0,405.0" style="stroke:#010101; fill:none;"/>
	<path d="M 264.0,408.0 L 257.0,408.0 L 263.0,407.0" style="stroke:#010101; fill:none;"/>
	<path d="M 271.0,408.0 L 276.0,407.0" style="stroke:#010101; fill:none;"/>
	<path d="M 247.0,410.0 C 245.334,412.394 244.66,412.122 242.0,411.0 L 257.0,408.0" style="stroke:#010101; fill:none;"/>
	<path d="M 55.0,409.0 L 53.0,424.0" style="stroke:#010101; fill:none;"/>
	<path d="M 252.0,409.0 L 258.0,409.0" style="stroke:#010101; fill:none;"/>
	<path d="M 170.0,429.0 C 192.571,423.779 218.589,409.848 242.0,411.0" style="stroke:#010101; fill:none;"/>
	<path d="M 866.0,410.0 L 867.0,411.0" style="stroke:#010101; fill:none;"/>
	<path d="M 243.0,412.0 C 235.125,416.546 224.736,417.664 216.0,420.14 C 196.779,425.588 175.447,431.071 158.0,441.0 C 167.013,444.259 184.556,434.501 194.0,432.235 C 223.386,425.185 253.639,417.0 284.0,417.0" style="stroke:#010101; fill:none;"/>
	<path d="M 247.0,412.0 L 251.0,412.0" style="stroke:#010101; fill:none;"/>
	<path d="M 81.0,413.0 C 72.8432,421.158 65.7897,429.997 59.9699,440.0 C 56.8099,445.432 58.3198,450.898 52.0,454.0 L 53.0,428.0" style="stroke:#010101; fill:none;"/>
	<path d="M 866.0,413.0 L 872.0,415.0" style="stroke:#010101; fill:none;"/>
	<path d="M 84.0,414.0 L 59.0,447.0" style="stroke:#010101; fill:none;"/>
	<path d="M 845.0,414.0 C 862.238,419.514 881.681,422.99 897.0,433.0" style="stroke:#010101; fill:none;"/>
	<path d="M 874.0,414.0 L 875.0,415.0" style="stroke:#010101; fill:none;"/>
	<path d="M 877.0,416.0 L 879.0,416.0" style="stroke:#010101; fill:none;"/>
	<path d="M 880.0,420.0 L 881.0,420.0" style="stroke:#010101; fill:none;"/>
	<path d="M 850.0,422.0 C 864.755,425.413 879.147,433.883 894.0,436.221 C 920.037,440.321 949.707,435.073 976.0,435.0" style="stroke:#010101; fill:none;"/>
	<path d="M 140.0,458.0 C 165.404,444.471 196.171,438.517 224.0,432.119 C 236.549,429.234 251.063,423.865 264.0,426.0" style="stroke:#010101; fill:none;"/>
	<path d="M 899.0,430.0 C 929.965,430.0 964.607,432.142 995.0,426.0" style="stroke:#010101; fill:none;"/>
	<path d="M 851.0,428.0 C 867.584,433.611 890.23,440.231 904.0,451.0 L 885.0,456.0" style="stroke:#010101; fill:none;"/>
	<path d="M 58.0,430.0 L 55.0,433.0" style="stroke:#010101; fill:none;"/>
	<path d="M 141.0,468.0 C 152.05,460.2 166.263,455.912 179.0,451.667 C 198.847,445.051 220.05,437.654 241.0,436.0" style="stroke:#010101; fill:none;"/>
	<path d="M 896.0,437.0 C 915.329,449.295 943.541,444.816 966.0,445.0" style="stroke:#010101; fill:none;"/>
	<path d="M 56.0,510.0 C 69.9089,491.745 88.4543,476.405 106.0,461.754 C 115.294,453.993 126.191,444.473 138.0,441.0" style="stroke:#010101; fill:none;"/>
	<path d="M 159.0,443.0 L 158.0,441.0" style="stroke:#010101; fill:none;"/>
	<path d="M 157.0,444.0 L 156.0,442.0" style="stroke:#010101; fill:none;"/>
	<path d="M 155.0,444.0 L 153.0,446.0 L 154.0,443.0" style="stroke:#010101; fill:none;"/>
	<path d="M 131.0,480.0 C 160.16,460.769 201.245,450.809 235.0,443.0" style="stroke:#010101; fill:none;"/>
	<path d="M 146.0,450.0 L 151.0,444.0" style="stroke:#010101; fill:none;"/>
	<path d="M 152.0,445.0 L 150.0,447.0" style="stroke:#010101; fill:none;"/>
	<path d="M 893.0,445.0 L 889.0,448.0" style="stroke:#010101; fill:none;"/>
	<path d="M 899.0,447.0 L 907.0,444.0" style="stroke:#010101; fill:none;"/>
	<path d="M 57.0,446.0 L 53.0,448.0" style="stroke:#010101; fill:none;"/>
	<path d="M 147.0,448.0 L 148.0,446.0" style="stroke:#010101; fill:none;"/>
	<path d="M 144.0,448.0 L 146.0,447.0" style="stroke:#010101; fill:none;"/>
	<path d="M 961.0,457.0 C 945.855,456.998 920.538,462.498 909.0,452.0 C 924.176,445.596 945.783,449.0 962.0,449.0" style="stroke:#010101; fill:none;"/>
	<path d="M 904.0,451.0 L 908.0,451.0" style="stroke:#010101; fill:none;"/>
	<path d="M 51.0,455.0 C 51.0,486.851 43.1615,522.888 53.0,554.0 L 72.2045,529.0 L 99.0,500.0" style="stroke:#010101; fill:none;"/>
	<path d="M 127.0,489.0 C 148.459,476.475 173.26,470.183 197.0,463.576 C 207.355,460.693 219.156,455.467 230.0,456.0" style="stroke:#010101; fill:none;"/>
	<path d="M 889.0,462.0 L 915.0,458.0" style="stroke:#010101; fill:none;"/>
	<path d="M 919.0,460.0 C 929.052,469.087 950.043,462.53 963.0,465.0" style="stroke:#010101; fill:none;"/>
	<path d="M 132.0,498.0 C 158.018,482.815 195.284,464.254 226.0,464.0" style="stroke:#010101; fill:none;"/>
	<path d="M 898.0,467.0 L 922.0,464.0" style="stroke:#010101; fill:none;"/>
	<path d="M 110.0,466.0 C 88.899,479.352 73.0442,499.191 56.0,517.0" style="stroke:#010101; fill:none;"/>
	<path d="M 135.0,505.0 C 164.231,492.83 190.515,479.932 222.0,474.0" style="stroke:#010101; fill:none;"/>
	<path d="M 890.0,478.0 L 924.0,480.92 L 975.0,488.05 L 997.0,492.0 L 979.0,491.961 L 931.0,489.0" style="stroke:#010101; fill:none;"/>
	<path d="M 145.0,512.0 C 160.384,498.69 180.992,491.68 200.0,485.169 C 209.17,482.028 219.235,478.208 229.0,478.0" style="stroke:#010101; fill:none;"/>
	<path d="M 56.0,537.0 C 64.1905,515.36 89.2303,490.414 109.0,479.0" style="stroke:#010101; fill:none;"/>
	<path d="M 104.0,490.0 C 89.6003,500.353 65.6289,521.154 61.0,539.0" style="stroke:#010101; fill:none;"/>
	<path d="M 922.0,491.0 C 927.739,498.641 939.316,490.668 947.0,496.0 L 934.0,496.0" style="stroke:#010101; fill:none;"/>
	<path d="M 918.0,493.0 L 921.0,494.0" style="stroke:#010101; fill:none;"/>
	<path d="M 998.0,493.0 L 1052.0,497.0" style="stroke:#010101; fill:none;"/>
	<path d="M 211.0,494.0 C 207.208,500.482 189.978,503.052 183.0,506.25 C 156.73,518.291 129.037,527.638 103.0,540.0" style="stroke:#010101; fill:none;"/>
	<path d="M 947.0,495.0 C 954.39,493.655 963.516,495.755 971.0,496.74 C 988.787,499.08 1007.23,502.539 1024.0,509.0" style="stroke:#010101; fill:none;"/>
	<path d="M 209.0,495.0 L 210.0,495.0" style="stroke:#010101; fill:none;"/>
	<path d="M 211.0,496.0 L 216.0,495.0" style="stroke:#010101; fill:none;"/>
	<path d="M 953.0,496.0 C 953.404,500.247 955.193,502.189 959.0,504.0 L 965.0,498.0" style="stroke:#010101; fill:none;"/>
	<path d="M 959.0,496.0 L 959.0,499.0 L 954.0,500.0" style="stroke:#010101; fill:none;"/>
	<path d="M 110.0,543.0 C 135.976,530.66 163.185,520.723 190.0,510.388 C 202.769,505.466 217.096,497.325 231.0,497.0" style="stroke:#010101; fill:none;"/>
	<path d="M 947.0,499.0 L 952.0,499.0" style="stroke:#010101; fill:none;"/>
	<path d="M 928.0,500.0 C 949.49,509.564 974.915,519.52 998.0,524.0" style="stroke:#010101; fill:none;"/>
	<path d="M 965.0,500.0 L 1027.0,514.0" style="stroke:#010101; fill:none;"/>
	<path d="M 888.0,504.0 C 903.049,503.899 921.425,515.311 934.0,522.799 C 962.33,539.67 986.314,560.153 1011.0,581.845 C 1023.67,592.977 1037.92,603.848 1046.0,619.0" style="stroke:#010101; fill:none;"/>
	<path d="M 960.0,505.0 L 1009.0,518.0" style="stroke:#010101; fill:none;"/>
	<path d="M 921.0,506.0 L 992.0,531.0" style="stroke:#010101; fill:none;"/>
	<path d="M 127.0,551.0 C 154.058,536.599 180.833,518.929 210.0,509.0" style="stroke:#010101; fill:none;"/>
	<path d="M 118.0,571.0 C 137.508,557.851 157.824,545.881 178.0,533.8 C 190.754,526.163 205.37,516.315 220.0,513.0" style="stroke:#010101; fill:none;"/>
	<path d="M 902.0,518.0 L 922.667,530.0 L 922.0,528.0" style="stroke:#010101; fill:none;"/>
	<path d="M 129.0,575.0 C 148.043,560.47 170.387,548.75 191.0,536.554 C 201.505,530.338 213.84,521.168 226.0,519.0" style="stroke:#010101; fill:none;"/>
	<path d="M 1017.0,519.0 C 1033.6,528.793 1055.46,539.19 1066.0,556.0" style="stroke:#010101; fill:none;"/>
	<path d="M 1115.0,521.0 C 1115.0,555.095 1116.2,587.899 1111.72,622.0 C 1109.68,637.477 1107.08,653.384 1107.0,669.0 C 1106.97,673.877 1105.61,679.19 1107.09,683.961 C 1108.15,687.388 1111.3,689.86 1113.0,693.0" style="stroke:#010101; fill:none;"/>
	<path d="M 134.0,583.0 C 161.43,561.073 193.602,535.961 226.0,522.0" style="stroke:#010101; fill:none;"/>
	<path d="M 1016.0,527.0 C 1030.4,534.665 1051.28,546.114 1059.0,561.0" style="stroke:#010101; fill:none;"/>
	<path d="M 994.0,528.0 C 1011.28,542.303 1031.55,552.26 1046.0,570.0" style="stroke:#010101; fill:none;"/>
	<path d="M 53.0,554.0 C 53.9106,560.166 56.9166,565.85 57.7909,572.0 C 59.1493,581.555 57.6715,590.539 58.0401,600.0 C 58.7175,617.384 60.5655,634.722 62.7153,652.0 C 64.2811,664.585 64.3946,679.419 70.0,691.0 C 82.6029,675.766 89.4734,654.646 100.516,638.0 C 124.242,602.235 152.372,574.71 189.0,552.601 C 201.588,545.003 225.581,525.487 241.0,530.0" style="stroke:#010101; fill:none;"/>
	<path d="M 924.0,531.0 L 943.0,544.0" style="stroke:#010101; fill:none;"/>
	<path d="M 81.0,531.0 L 58.0,570.0" style="stroke:#010101; fill:none;"/>
	<path d="M 924.0,531.0 L 927.0,533.0" style="stroke:#010101; fill:none;"/>
	<path d="M 930.0,533.0 L 930.0,535.0" style="stroke:#010101; fill:none;"/>
	<path d="M 932.0,534.0 L 960.0,551.0" style="stroke:#010101; fill:none;"/>
	<path d="M 914.0,535.0 C 923.653,540.58 934.402,551.034 941.0,560.0" style="stroke:#010101; fill:none;"/>
	<path d="M 993.0,537.0 C 1014.17,548.333 1039.03,564.323 1052.0,585.0" style="stroke:#010101; fill:none;"/>
	<path d="M 981.0,540.0 C 997.151,551.545 1013.83,563.998 1028.0,578.004 C 1034.13,584.059 1041.3,590.176 1043.0,599.0" style="stroke:#010101; fill:none;"/>
	<path d="M 79.0,544.0 L 66.0,572.0" style="stroke:#010101; fill:none;"/>
	<path d="M 215.0,548.0 C 184.44,578.56 159.499,614.247 137.0,651.0" style="stroke:#010101; fill:none;"/>
	<path d="M 225.0,548.0 C 197.702,569.681 170.994,603.506 154.0,634.0" style="stroke:#010101; fill:none;"/>
	<path d="M 909.0,549.0 L 965.0,598.0 L 964.0,596.0" style="stroke:#010101; fill:none;"/>
	<path d="M 916.0,549.0 L 971.0,594.0 L 969.0,592.0" style="stroke:#010101; fill:none;"/>
	<path d="M 168.0,625.0 C 178.199,608.12 189.962,592.286 202.389,577.0 C 209.545,568.197 217.569,557.963 228.0,553.0" style="stroke:#010101; fill:none;"/>
	<path d="M 83.0,554.0 L 65.0,582.0" style="stroke:#010101; fill:none;"/>
	<path d="M 87.0,558.0 C 79.7305,566.401 64.7447,583.04 68.0,595.0 L 86.0,567.0" style="stroke:#010101; fill:none;"/>
	<path d="M 973.0,559.0 C 988.681,573.314 1005.97,585.846 1020.0,602.004 C 1024.75,607.475 1033.59,615.466 1027.0,622.0 C 1031.56,626.964 1039.05,633.918 1036.0,641.0 L 1026.0,635.0" style="stroke:#010101; fill:none;"/>
	<path d="M 154.0,669.0 C 174.932,633.507 198.194,586.861 233.0,563.0" style="stroke:#010101; fill:none;"/>
	<path d="M 919.0,571.0 L 962.925,618.0 L 980.0,637.0 L 978.0,636.0" style="stroke:#010101; fill:none;"/>
	<path d="M 977.0,572.0 L 981.0,576.0 L 978.0,580.0 L 983.0,579.0 C 986.808,591.785 1003.46,603.972 1014.0,612.0 C 1014.76,606.598 1010.57,603.648 1007.01,600.0 C 999.342,592.118 991.068,580.695 981.0,576.0" style="stroke:#010101; fill:none;"/>
	<path d="M 166.0,656.0 C 177.738,634.916 192.336,614.535 207.753,596.0 C 214.23,588.214 220.852,578.746 230.0,574.0" style="stroke:#010101; fill:none;"/>
	<path d="M 234.0,577.0 C 207.835,602.041 186.595,630.27 169.0,662.0" style="stroke:#010101; fill:none;"/>
	<path d="M 87.0,578.0 L 70.0,605.0" style="stroke:#010101; fill:none;"/>
	<path d="M 980.0,578.0 L 984.0,582.0" style="stroke:#010101; fill:none;"/>
	<path d="M 146.0,581.0 L 149.0,579.0" style="stroke:#010101; fill:none;"/>
	<path d="M 968.0,579.0 C 981.655,592.655 994.644,607.007 1007.96,621.0 C 1014.19,627.549 1022.48,635.52 1023.0,645.0" style="stroke:#010101; fill:none;"/>
	<path d="M 985.0,579.0 L 984.0,580.0" style="stroke:#010101; fill:none;"/>
	<path d="M 916.0,582.0 C 938.765,604.955 959.81,629.26 978.0,656.0" style="stroke:#010101; fill:none;"/>
	<path d="M 234.0,583.0 C 204.413,610.255 185.038,645.669 165.0,680.0" style="stroke:#010101; fill:none;"/>
	<path d="M 84.0,680.0 C 99.8715,649.734 120.496,610.079 149.0,590.0" style="stroke:#010101; fill:none;"/>
	<path d="M 972.0,593.0 C 989.541,610.541 1015.18,632.243 1024.0,656.0" style="stroke:#010101; fill:none;"/>
	<path d="M 68.0,595.0 L 66.0,602.0" style="stroke:#010101; fill:none;"/>
	<path d="M 966.0,596.0 L 976.0,611.0" style="stroke:#010101; fill:none;"/>
	<path d="M 233.0,597.0 L 176.0,668.0" style="stroke:#010101; fill:none;"/>
	<path d="M 965.0,599.0 L 968.0,601.0" style="stroke:#010101; fill:none;"/>
	<path d="M 87.0,684.0 C 106.655,656.946 120.836,620.839 149.0,601.0" style="stroke:#010101; fill:none;"/>
	<path d="M 969.0,603.0 L 971.0,607.0" style="stroke:#010101; fill:none;"/>
	<path d="M 1012.0,605.0 L 1010.0,609.0 L 1012.0,605.0" style="stroke:#010101; fill:none;"/>
	<path d="M 976.0,608.0 L 977.0,610.0" style="stroke:#010101; fill:none;"/>
	<path d="M 178.0,681.0 L 215.92,631.0 L 238.0,609.0" style="stroke:#010101; fill:none;"/>
	<path d="M 967.0,609.0 L 980.0,635.0" style="stroke:#010101; fill:none;"/>
	<path d="M 972.0,609.0 L 973.0,610.0" style="stroke:#010101; fill:none;"/>
	<path d="M 226.0,610.0 C 206.415,629.997 193.267,653.61 177.0,676.0" style="stroke:#010101; fill:none;"/>
	<path d="M 1015.0,611.0 L 1027.0,621.0" style="stroke:#010101; fill:none;"/>
	<path d="M 979.0,613.0 L 985.0,617.0 C 980.924,623.862 988.462,630.462 992.421,636.0 C 999.999,646.598 1007.97,656.987 1014.95,668.0 C 1017.85,672.589 1021.65,677.416 1021.0,683.0" style="stroke:#010101; fill:none;"/>
	<path d="M 1014.0,613.0 C 1018.61,619.073 1028.78,626.879 1028.0,635.0" style="stroke:#010101; fill:none;"/>
	<path d="M 145.0,614.0 C 122.568,637.439 105.204,666.617 89.7693,695.0 C 83.5087,706.513 74.4487,717.449 79.0,731.0 L 90.2469,714.0 L 107.0,686.0" style="stroke:#010101; fill:none;"/>
	<path d="M 972.0,614.0 C 985.071,631.84 997.629,650.129 1009.19,669.0 C 1013.45,675.951 1020.11,685.554 1018.0,694.0" style="stroke:#010101; fill:none;"/>
	<path d="M 977.0,615.0 L 983.0,619.0" style="stroke:#010101; fill:none;"/>
	<path d="M 985.0,618.0 C 999.275,632.275 1013.68,647.567 1024.0,665.0" style="stroke:#010101; fill:none;"/>
	<path d="M 980.0,619.0 L 982.0,621.0" style="stroke:#010101; fill:none;"/>
	<path d="M 182.0,711.0 C 191.136,691.773 205.374,673.002 218.127,656.0 C 224.623,647.339 231.07,637.295 240.0,631.0" style="stroke:#010101; fill:none;"/>
	<path d="M 981.0,637.0 C 996.184,658.328 1011.1,689.72 1018.0,715.0" style="stroke:#010101; fill:none;"/>
	<path d="M 979.0,638.0 L 979.0,640.0" style="stroke:#010101; fill:none;"/>
	<path d="M 972.0,650.0 L 973.0,651.0" style="stroke:#010101; fill:none;"/>
	<path d="M 123.0,652.0 C 104.526,670.865 96.0675,696.612 83.0,719.0" style="stroke:#010101; fill:none;"/>
	<path d="M 224.0,654.0 C 211.488,670.278 201.439,688.3 191.142,706.0 C 187.484,712.287 180.417,721.628 181.0,729.0 L 194.0,708.0" style="stroke:#010101; fill:none;"/>
	<path d="M 1101.0,674.0 L 1106.0,677.0" style="stroke:#010101; fill:none;"/>
	<path d="M 1079.0,730.0 C 1077.1,714.939 1085.6,704.392 1090.0,691.0 L 1106.0,685.0" style="stroke:#010101; fill:none;"/>
	<path d="M 183.0,686.0 C 160.543,715.478 137.723,747.262 126.0,783.0" style="stroke:#010101; fill:none;"/>
	<path d="M 86.0,687.0 L 85.0,689.0" style="stroke:#010101; fill:none;"/>
	<path d="M 70.0,691.0 L 77.0,715.0" style="stroke:#010101; fill:none;"/>
	<path d="M 1094.0,693.0 L 1095.0,699.0" style="stroke:#010101; fill:none;"/>
	<path d="M 1087.0,699.0 L 1089.0,705.0" style="stroke:#010101; fill:none;"/>
	<path d="M 97.0,709.0 C 91.4615,718.489 88.9679,732.478 80.0,739.0 L 79.0,731.0" style="stroke:#010101; fill:none;"/>
	<path d="M 171.0,712.0 C 152.31,735.029 139.202,759.69 128.0,787.0" style="stroke:#010101; fill:none;"/>
	<path d="M 1095.0,714.0 L 1092.0,718.0" style="stroke:#010101; fill:none;"/>
	<path d="M 1069.0,740.0 C 1070.65,734.709 1070.32,717.917 1078.0,720.0" style="stroke:#010101; fill:none;"/>
	<path d="M 176.0,720.0 C 155.464,740.707 136.107,774.859 128.0,803.0" style="stroke:#010101; fill:none;"/>
	<path d="M 192.0,722.0 C 175.424,746.368 167.484,772.349 156.0,799.0" style="stroke:#010101; fill:none;"/>
	<path d="M 249.0,725.0 L 246.0,727.0" style="stroke:#010101; fill:none;"/>
	<path d="M 180.0,728.0 L 170.0,746.0" style="stroke:#010101; fill:none;"/>
	<path d="M 181.0,729.0 L 157.0,784.0" style="stroke:#010101; fill:none;"/>
	<path d="M 1060.0,751.0 C 1059.63,743.634 1060.36,737.186 1069.0,738.0" style="stroke:#010101; fill:none;"/>
	<path d="M 187.0,738.0 C 176.162,758.385 165.993,779.591 160.0,802.0" style="stroke:#010101; fill:none;"/>
	<path d="M 80.0,739.0 L 82.0,746.0" style="stroke:#010101; fill:none;"/>
	<path d="M 1051.0,770.0 C 1049.07,763.192 1050.66,746.329 1059.0,745.0" style="stroke:#010101; fill:none;"/>
	<path d="M 188.0,748.0 C 176.17,764.283 169.848,785.043 163.67,804.0 C 161.52,810.596 157.138,819.16 159.0,826.0 C 165.564,820.073 165.824,813.082 168.515,805.0 C 172.869,791.926 176.909,778.365 185.0,767.0" style="stroke:#010101; fill:none;"/>
	<path d="M 159.0,751.0 L 133.0,806.0" style="stroke:#010101; fill:none;"/>
	<path d="M 93.0,761.0 L 99.0,758.0" style="stroke:#010101; fill:none;"/>
	<path d="M 103.0,781.0 L 118.0,765.0" style="stroke:#010101; fill:none;"/>
	<path d="M 1049.0,766.0 L 1045.57,784.0 L 1038.0,803.0" style="stroke:#010101; fill:none;"/>
	<path d="M 117.0,772.0 L 103.0,787.0" style="stroke:#010101; fill:none;"/>
	<path d="M 153.0,773.0 C 147.424,782.798 133.868,799.005 144.0,810.0 L 135.0,813.0 L 135.0,814.0 L 136.0,815.0 L 138.0,815.0" style="stroke:#010101; fill:none;"/>
	<path d="M 121.0,776.0 C 111.166,785.862 97.1546,793.066 91.0,806.0" style="stroke:#010101; fill:none;"/>
	<path d="M 187.0,777.0 L 162.0,835.0" style="stroke:#010101; fill:none;"/>
	<path d="M 114.0,789.0 L 123.0,779.0" style="stroke:#010101; fill:none;"/>
	<path d="M 1036.0,781.0 C 1041.35,789.258 1045.88,788.922 1052.0,782.0" style="stroke:#010101; fill:none;"/>
	<path d="M 1035.0,784.0 L 1030.68,796.522 L 1015.0,796.0 L 1011.0,789.0" style="stroke:#010101; fill:none;"/>
	<path d="M 149.0,788.0 L 141.0,802.0" style="stroke:#010101; fill:none;"/>
	<path d="M 110.0,789.0 L 106.0,795.0" style="stroke:#010101; fill:none;"/>
	<path d="M 1016.0,793.0 L 1017.0,794.0" style="stroke:#010101; fill:none;"/>
	<path d="M 186.0,795.0 L 170.0,842.0" style="stroke:#010101; fill:none;"/>
	<path d="M 1015.0,796.0 L 1023.0,830.0 L 1029.0,819.0" style="stroke:#010101; fill:none;"/>
	<path d="M 1047.0,797.0 L 1043.0,803.0" style="stroke:#010101; fill:none;"/>
	<path d="M 145.0,808.0 L 151.0,801.0" style="stroke:#010101; fill:none;"/>
	<path d="M 139.0,802.0 L 141.0,806.0" style="stroke:#010101; fill:none;"/>
	<path d="M 138.0,805.0 L 140.0,809.0" style="stroke:#010101; fill:none;"/>
	<path d="M 137.0,808.0 L 141.0,812.0" style="stroke:#010101; fill:none;"/>
	<path d="M 136.0,810.0 L 136.0,812.0" style="stroke:#010101; fill:none;"/>
	<path d="M 143.0,812.0 L 142.0,813.0" style="stroke:#010101; fill:none;"/>
	<path d="M 152.0,812.0 L 139.0,827.0" style="stroke:#010101; fill:none;"/>
	<path d="M 142.0,813.0 L 141.0,818.0" style="stroke:#010101; fill:none;"/>
	<path d="M 157.0,814.0 L 146.0,827.0" style="stroke:#010101; fill:none;"/>
	<path d="M 137.0,816.0 L 135.0,822.0" style="stroke:#010101; fill:none;"/>
	<path d="M 157.0,820.0 L 150.0,829.0" style="stroke:#010101; fill:none;"/>
	<path d="M 159.0,826.0 L 156.0,830.0 L 159.0,830.0" style="stroke:#010101; fill:none;"/>
	<path d="M 182.0,829.0 L 178.0,845.0" style="stroke:#010101; fill:none;"/>
	<path d="M 1023.0,830.0 L 1025.0,841.0 L 1029.0,834.0" style="stroke:#010101; fill:none;"/>
	<path d="M 178.0,833.0 L 173.0,838.0" style="stroke:#010101; fill:none;"/>
	<path d="M 1025.0,841.0 L 1025.0,844.0" style="stroke:#010101; fill:none;"/>
	<path d="M 91.0,845.0 L 91.0,846.0" style="stroke:#010101; fill:none;"/>
</svg>
