<?xml version="1.0" ?>
<svg baseProfile="full" height="1181" version="1.1" width="1170" xmlns="http://www.w3.org/2000/svg" xmlns:ev="http://www.w3.org/2001/xml-events" xmlns:xlink="http://www.w3.org/1999/xlink">
	<defs/>
	<path d="M 456.0,265.0 L 455.0,266.0" style="stroke:#060106; fill:none;"/>
	<path d="M 444.0,272.0 L 451.0,268.0" style="stroke:#060106; fill:none;"/>
	<path d="M 586.0,272.0 L 588.0,275.0" style="stroke:#060106; fill:none;"/>
	<path d="M 439.0,275.0 L 439.0,276.0" style="stroke:#060106; fill:none;"/>
	<path d="M 433.0,277.0 L 433.0,279.0 L 437.0,277.0" style="stroke:#060106; fill:none;"/>
	<path d="M 571.0,276.0 L 572.0,277.0" style="stroke:#060106; fill:none;"/>
	<path d="M 574.0,277.0 L 579.0,279.0" style="stroke:#060106; fill:none;"/>
	<path d="M 591.0,277.0 L 593.0,277.0" style="stroke:#060106; fill:none;"/>
	<path d="M 593.0,279.0 L 599.0,284.0" style="stroke:#060106; fill:none;"/>
	<path d="M 580.0,281.0 L 581.0,281.0" style="stroke:#060106; fill:none;"/>
	<path d="M 419.0,288.0 L 423.0,285.0" style="stroke:#060106; fill:none;"/>
	<path d="M 601.0,285.0 L 605.0,288.0" style="stroke:#060106; fill:none;"/>
	<path d="M 404.0,295.0 L 404.0,298.0" style="stroke:#060106; fill:none;"/>
	<path d="M 612.0,295.0 L 613.0,295.0" style="stroke:#060106; fill:none;"/>
	<path d="M 401.0,297.0 L 402.0,297.0" style="stroke:#060106; fill:none;"/>
	<path d="M 613.0,299.0 L 617.0,301.0" style="stroke:#060106; fill:none;"/>
	<path d="M 393.0,303.0 L 393.0,306.0" style="stroke:#060106; fill:none;"/>
	<path d="M 619.0,303.0 L 627.0,313.0" style="stroke:#060106; fill:none;"/>
	<path d="M 395.0,304.0 L 395.0,305.0" style="stroke:#060106; fill:none;"/>
	<path d="M 377.0,317.0 L 377.0,320.0" style="stroke:#060106; fill:none;"/>
	<path d="M 373.0,320.0 L 373.0,321.0" style="stroke:#060106; fill:none;"/>
	<path d="M 635.0,326.0 L 636.0,328.0" style="stroke:#060106; fill:none;"/>
	<path d="M 365.0,329.0 L 366.0,331.0" style="stroke:#060106; fill:none;"/>
	<path d="M 364.0,332.0 L 363.0,333.0" style="stroke:#060106; fill:none;"/>
	<path d="M 640.0,336.0 L 639.0,337.0" style="stroke:#060106; fill:none;"/>
	<path d="M 356.0,340.0 L 356.0,341.0" style="stroke:#060106; fill:none;"/>
	<path d="M 642.0,340.0 L 641.0,341.0" style="stroke:#060106; fill:none;"/>
	<path d="M 642.0,343.0 L 644.0,344.0" style="stroke:#060106; fill:none;"/>
	<path d="M 353.0,344.0 L 352.0,345.0" style="stroke:#060106; fill:none;"/>
	<path d="M 645.0,347.0 L 645.0,349.0" style="stroke:#060106; fill:none;"/>
	<path d="M 351.0,348.0 L 352.0,348.0" style="stroke:#060106; fill:none;"/>
	<path d="M 645.0,352.0 L 647.0,354.0" style="stroke:#060106; fill:none;"/>
	<path d="M 341.0,361.0 L 341.0,363.0" style="stroke:#060106; fill:none;"/>
	<path d="M 339.0,364.0 L 338.0,365.0" style="stroke:#060106; fill:none;"/>
	<path d="M 650.0,365.0 L 651.0,365.0" style="stroke:#060106; fill:none;"/>
	<path d="M 651.0,368.0 L 654.0,372.0" style="stroke:#060106; fill:none;"/>
	<path d="M 332.0,376.0 L 334.0,372.0" style="stroke:#060106; fill:none;"/>
	<path d="M 328.0,378.0 L 330.0,379.0" style="stroke:#060106; fill:none;"/>
	<path d="M 656.0,381.0 L 656.0,382.0" style="stroke:#060106; fill:none;"/>
	<path d="M 326.0,383.0 L 325.0,384.0" style="stroke:#060106; fill:none;"/>
	<path d="M 321.0,390.0 L 322.0,392.0" style="stroke:#060106; fill:none;"/>
	<path d="M 658.0,392.0 L 658.0,393.0" style="stroke:#060106; fill:none;"/>
	<path d="M 318.0,396.0 L 319.0,396.0" style="stroke:#060106; fill:none;"/>
	<path d="M 660.0,401.0 L 661.0,401.0" style="stroke:#060106; fill:none;"/>
	<path d="M 315.0,402.0 L 316.0,402.0" style="stroke:#060106; fill:none;"/>
	<path d="M 315.0,405.0 L 315.0,406.0" style="stroke:#060106; fill:none;"/>
	<path d="M 663.0,406.0 L 664.0,406.0" style="stroke:#060106; fill:none;"/>
	<path d="M 312.0,408.0 L 313.0,408.0" style="stroke:#060106; fill:none;"/>
	<path d="M 664.0,409.0 L 664.0,411.0 L 664.0,409.0" style="stroke:#060106; fill:none;"/>
	<path d="M 312.0,410.0 L 312.0,411.0" style="stroke:#060106; fill:none;"/>
	<path d="M 310.0,412.0 L 310.0,417.0" style="stroke:#060106; fill:none;"/>
	<path d="M 664.0,412.0 L 666.0,414.0" style="stroke:#060106; fill:none;"/>
	<path d="M 664.0,416.0 L 666.0,421.0" style="stroke:#060106; fill:none;"/>
	<path d="M 306.0,422.0 L 306.0,425.0" style="stroke:#060106; fill:none;"/>
	<path d="M 666.0,424.0 L 666.0,426.0" style="stroke:#060106; fill:none;"/>
	<path d="M 303.0,430.0 L 303.0,434.0" style="stroke:#060106; fill:none;"/>
	<path d="M 668.0,431.0 L 668.0,433.0" style="stroke:#060106; fill:none;"/>
	<path d="M 669.0,435.0 L 669.0,437.0" style="stroke:#060106; fill:none;"/>
	<path d="M 299.0,436.0 L 301.0,437.0" style="stroke:#060106; fill:none;"/>
	<path d="M 299.0,441.0 L 299.0,442.0" style="stroke:#060106; fill:none;"/>
	<path d="M 671.0,441.0 L 671.0,442.0" style="stroke:#060106; fill:none;"/>
	<path d="M 671.0,444.0 L 671.0,447.0" style="stroke:#060106; fill:none;"/>
	<path d="M 295.0,449.0 L 295.0,451.0 L 295.0,449.0" style="stroke:#060106; fill:none;"/>
	<path d="M 293.0,452.0 L 293.0,456.0" style="stroke:#060106; fill:none;"/>
	<path d="M 672.0,454.0 L 673.0,459.0" style="stroke:#060106; fill:none;"/>
	<path d="M 298.0,461.0 L 298.0,462.0" style="stroke:#060106; fill:none;"/>
	<path d="M 673.0,463.0 L 675.0,463.0" style="stroke:#060106; fill:none;"/>
	<path d="M 289.0,464.0 L 291.0,463.0" style="stroke:#060106; fill:none;"/>
	<path d="M 288.0,470.0 L 290.0,468.0" style="stroke:#060106; fill:none;"/>
	<path d="M 674.0,470.0 L 676.0,472.0" style="stroke:#060106; fill:none;"/>
	<path d="M 675.0,474.0 L 676.0,474.0" style="stroke:#060106; fill:none;"/>
	<path d="M 285.0,477.0 L 286.0,478.0" style="stroke:#060106; fill:none;"/>
	<path d="M 675.0,477.0 L 677.0,478.0" style="stroke:#060106; fill:none;"/>
	<path d="M 676.0,479.0 L 676.0,481.0" style="stroke:#060106; fill:none;"/>
	<path d="M 285.0,482.0 L 284.0,483.0" style="stroke:#060106; fill:none;"/>
	<path d="M 677.0,489.0 L 678.0,490.0" style="stroke:#060106; fill:none;"/>
	<path d="M 282.0,492.0 L 283.0,493.0" style="stroke:#060106; fill:none;"/>
	<path d="M 677.0,493.0 L 677.0,494.0" style="stroke:#060106; fill:none;"/>
	<path d="M 679.0,496.0 L 679.0,497.0" style="stroke:#060106; fill:none;"/>
	<path d="M 680.0,499.0 L 679.0,504.0" style="stroke:#060106; fill:none;"/>
	<path d="M 287.0,505.0 L 287.0,508.0" style="stroke:#060106; fill:none;"/>
	<path d="M 681.0,508.0 L 680.0,511.0" style="stroke:#060106; fill:none;"/>
	<path d="M 285.0,516.0 L 286.0,516.0" style="stroke:#060106; fill:none;"/>
	<path d="M 682.0,518.0 L 683.0,520.0" style="stroke:#060106; fill:none;"/>
	<path d="M 284.0,520.0 L 286.0,520.0" style="stroke:#060106; fill:none;"/>
	<path d="M 518.0,519.0 L 519.0,520.0" style="stroke:#060106; fill:none;"/>
	<path d="M 541.0,519.0 L 542.0,521.0" style="stroke:#060106; fill:none;"/>
	<path d="M 556.0,519.0 L 564.0,521.0" style="stroke:#060106; fill:none;"/>
	<path d="M 551.0,520.0 L 552.0,520.0" style="stroke:#060106; fill:none;"/>
	<path d="M 574.0,520.0 L 575.0,520.0" style="stroke:#060106; fill:none;"/>
	<path d="M 594.0,521.0 L 594.0,522.0" style="stroke:#060106; fill:none;"/>
	<path d="M 579.0,522.0 L 582.0,522.0" style="stroke:#060106; fill:none;"/>
	<path d="M 285.0,523.0 L 284.0,526.0" style="stroke:#060106; fill:none;"/>
	<path d="M 585.0,523.0 L 587.0,524.0" style="stroke:#060106; fill:none;"/>
	<path d="M 598.0,523.0 L 598.0,524.0" style="stroke:#060106; fill:none;"/>
	<path d="M 590.0,524.0 L 591.0,525.0" style="stroke:#060106; fill:none;"/>
	<path d="M 319.0,526.0 L 316.0,527.0" style="stroke:#060106; fill:none;"/>
	<path d="M 328.0,526.0 L 329.0,527.0" style="stroke:#060106; fill:none;"/>
	<path d="M 487.0,526.0 L 486.0,527.0" style="stroke:#060106; fill:none;"/>
	<path d="M 683.0,526.0 L 683.0,527.0" style="stroke:#060106; fill:none;"/>
	<path d="M 331.0,527.0 L 332.0,527.0" style="stroke:#060106; fill:none;"/>
	<path d="M 599.0,527.0 L 599.0,528.0" style="stroke:#060106; fill:none;"/>
	<path d="M 284.0,528.0 L 285.0,529.0" style="stroke:#060106; fill:none;"/>
	<path d="M 312.0,528.0 L 314.0,528.0" style="stroke:#060106; fill:none;"/>
	<path d="M 683.0,529.0 L 684.0,533.0" style="stroke:#060106; fill:none;"/>
	<path d="M 614.0,530.0 L 616.0,531.0" style="stroke:#060106; fill:none;"/>
	<path d="M 283.0,531.0 L 284.0,533.0" style="stroke:#060106; fill:none;"/>
	<path d="M 490.0,531.0 L 491.0,531.0" style="stroke:#060106; fill:none;"/>
	<path d="M 620.0,532.0 L 622.0,535.0" style="stroke:#060106; fill:none;"/>
	<path d="M 308.0,536.0 L 312.0,535.0" style="stroke:#060106; fill:none;"/>
	<path d="M 315.0,535.0 L 316.0,535.0" style="stroke:#060106; fill:none;"/>
	<path d="M 686.0,537.0 L 685.0,538.0" style="stroke:#060106; fill:none;"/>
	<path d="M 282.0,544.0 L 284.0,543.0" style="stroke:#060106; fill:none;"/>
	<path d="M 341.0,543.0 L 342.0,543.0" style="stroke:#060106; fill:none;"/>
	<path d="M 688.0,544.0 L 687.0,545.0" style="stroke:#060106; fill:none;"/>
	<path d="M 689.0,548.0 L 688.0,550.0" style="stroke:#060106; fill:none;"/>
	<path d="M 285.0,555.0 L 286.0,555.0" style="stroke:#060106; fill:none;"/>
	<path d="M 690.0,555.0 L 692.0,556.0" style="stroke:#060106; fill:none;"/>
	<path d="M 570.0,562.0 L 569.0,566.0" style="stroke:#060106; fill:none;"/>
	<path d="M 692.0,562.0 L 692.0,563.0" style="stroke:#060106; fill:none;"/>
	<path d="M 541.0,563.0 L 545.0,568.0 L 542.0,569.0" style="stroke:#060106; fill:none;"/>
	<path d="M 562.0,563.0 L 561.0,565.0" style="stroke:#060106; fill:none;"/>
	<path d="M 286.0,564.0 L 287.0,564.0" style="stroke:#060106; fill:none;"/>
	<path d="M 547.0,564.0 L 548.0,568.0" style="stroke:#060106; fill:none;"/>
	<path d="M 553.0,565.0 L 553.0,566.0" style="stroke:#060106; fill:none;"/>
	<path d="M 579.0,565.0 L 578.0,567.0" style="stroke:#060106; fill:none;"/>
	<path d="M 533.0,566.0 L 534.0,567.0" style="stroke:#060106; fill:none;"/>
	<path d="M 701.0,566.0 L 701.0,567.0" style="stroke:#060106; fill:none;"/>
	<path d="M 557.0,569.0 L 556.0,567.0 L 563.0,571.0" style="stroke:#060106; fill:none;"/>
	<path d="M 561.0,567.0 L 561.0,569.0" style="stroke:#060106; fill:none;"/>
	<path d="M 569.0,568.0 L 569.0,570.0 L 569.0,568.0" style="stroke:#060106; fill:none;"/>
	<path d="M 530.0,575.0 L 539.0,570.0" style="stroke:#060106; fill:none;"/>
	<path d="M 566.0,570.0 L 568.0,570.0" style="stroke:#060106; fill:none;"/>
	<path d="M 703.0,570.0 L 703.0,571.0" style="stroke:#060106; fill:none;"/>
	<path d="M 287.0,571.0 L 288.0,573.0" style="stroke:#060106; fill:none;"/>
	<path d="M 551.0,571.0 L 552.0,572.0" style="stroke:#060106; fill:none;"/>
	<path d="M 582.0,572.0 L 588.0,575.0" style="stroke:#060106; fill:none;"/>
	<path d="M 696.0,572.0 L 695.0,574.0" style="stroke:#060106; fill:none;"/>
	<path d="M 559.0,573.0 L 559.0,574.0" style="stroke:#060106; fill:none;"/>
	<path d="M 592.0,573.0 L 593.0,574.0" style="stroke:#060106; fill:none;"/>
	<path d="M 358.0,574.0 L 359.0,574.0" style="stroke:#060106; fill:none;"/>
	<path d="M 366.0,574.0 L 366.0,576.0" style="stroke:#060106; fill:none;"/>
	<path d="M 369.0,574.0 L 371.0,575.0" style="stroke:#060106; fill:none;"/>
	<path d="M 704.0,574.0 L 706.0,575.0" style="stroke:#060106; fill:none;"/>
	<path d="M 557.0,575.0 L 554.0,579.0" style="stroke:#060106; fill:none;"/>
	<path d="M 598.0,576.0 L 596.0,579.0 L 591.0,577.0" style="stroke:#060106; fill:none;"/>
	<path d="M 287.0,577.0 L 289.0,579.0" style="stroke:#060106; fill:none;"/>
	<path d="M 578.0,579.0 C 581.761,578.028 583.138,579.423 586.0,582.0" style="stroke:#060106; fill:none;"/>
	<path d="M 338.0,578.0 L 339.0,579.0" style="stroke:#060106; fill:none;"/>
	<path d="M 336.0,579.0 L 336.0,580.0" style="stroke:#060106; fill:none;"/>
	<path d="M 349.0,581.0 L 351.0,581.0" style="stroke:#060106; fill:none;"/>
	<path d="M 354.0,580.0 L 354.0,581.0" style="stroke:#060106; fill:none;"/>
	<path d="M 623.0,580.0 L 624.0,581.0" style="stroke:#060106; fill:none;"/>
	<path d="M 290.0,581.0 L 290.0,588.0" style="stroke:#060106; fill:none;"/>
	<path d="M 343.0,581.0 L 344.0,583.0" style="stroke:#060106; fill:none;"/>
	<path d="M 376.0,581.0 L 376.0,582.0" style="stroke:#060106; fill:none;"/>
	<path d="M 599.0,581.0 L 599.0,582.0" style="stroke:#060106; fill:none;"/>
	<path d="M 609.0,582.0 L 611.0,582.0" style="stroke:#060106; fill:none;"/>
	<path d="M 363.0,582.0 L 366.0,582.0" style="stroke:#060106; fill:none;"/>
	<path d="M 708.0,582.0 L 710.0,592.0" style="stroke:#060106; fill:none;"/>
	<path d="M 324.0,583.0 L 328.0,585.0" style="stroke:#060106; fill:none;"/>
	<path d="M 563.0,583.0 L 565.0,583.0" style="stroke:#060106; fill:none;"/>
	<path d="M 569.0,584.0 L 574.0,585.0" style="stroke:#060106; fill:none;"/>
	<path d="M 605.0,583.0 L 602.0,584.0" style="stroke:#060106; fill:none;"/>
	<path d="M 335.0,584.0 L 338.0,585.0" style="stroke:#060106; fill:none;"/>
	<path d="M 520.0,584.0 L 520.0,586.0 L 520.0,584.0" style="stroke:#060106; fill:none;"/>
	<path d="M 374.0,586.0 L 377.0,588.0" style="stroke:#060106; fill:none;"/>
	<path d="M 331.0,588.0 L 334.0,587.0" style="stroke:#060106; fill:none;"/>
	<path d="M 319.0,588.0 L 324.0,589.0" style="stroke:#060106; fill:none;"/>
	<path d="M 369.0,588.0 L 369.0,589.0" style="stroke:#060106; fill:none;"/>
	<path d="M 586.0,588.0 L 588.0,589.0" style="stroke:#060106; fill:none;"/>
	<path d="M 616.0,588.0 L 616.0,591.0" style="stroke:#060106; fill:none;"/>
	<path d="M 384.0,591.0 L 384.0,589.0 L 389.0,593.0" style="stroke:#060106; fill:none;"/>
	<path d="M 514.0,589.0 L 515.0,589.0" style="stroke:#060106; fill:none;"/>
	<path d="M 564.0,589.0 L 564.0,592.0" style="stroke:#060106; fill:none;"/>
	<path d="M 573.0,589.0 L 573.0,590.0" style="stroke:#060106; fill:none;"/>
	<path d="M 620.0,589.0 L 619.0,590.0" style="stroke:#060106; fill:none;"/>
	<path d="M 328.0,590.0 L 330.0,591.0" style="stroke:#060106; fill:none;"/>
	<path d="M 520.0,590.0 L 519.0,591.0" style="stroke:#060106; fill:none;"/>
	<path d="M 569.0,590.0 L 571.0,590.0" style="stroke:#060106; fill:none;"/>
	<path d="M 554.0,591.0 L 555.0,594.0" style="stroke:#060106; fill:none;"/>
	<path d="M 585.0,591.0 L 586.0,591.0" style="stroke:#060106; fill:none;"/>
	<path d="M 598.0,591.0 L 597.0,596.0" style="stroke:#060106; fill:none;"/>
	<path d="M 290.0,593.0 L 292.0,593.0" style="stroke:#060106; fill:none;"/>
	<path d="M 328.0,592.0 L 329.0,593.0" style="stroke:#060106; fill:none;"/>
	<path d="M 391.0,592.0 L 391.0,593.0" style="stroke:#060106; fill:none;"/>
	<path d="M 511.0,592.0 L 512.0,593.0" style="stroke:#060106; fill:none;"/>
	<path d="M 585.0,593.0 L 586.0,593.0" style="stroke:#060106; fill:none;"/>
	<path d="M 318.0,594.0 C 317.193,598.144 319.191,599.996 322.0,603.0 L 319.0,599.0" style="stroke:#060106; fill:none;"/>
	<path d="M 321.0,594.0 L 328.0,596.0" style="stroke:#060106; fill:none;"/>
	<path d="M 379.0,594.0 L 379.0,598.0" style="stroke:#060106; fill:none;"/>
	<path d="M 583.0,594.0 L 582.0,596.0" style="stroke:#060106; fill:none;"/>
	<path d="M 391.0,595.0 L 391.0,596.0" style="stroke:#060106; fill:none;"/>
	<path d="M 584.0,595.0 L 586.0,595.0" style="stroke:#060106; fill:none;"/>
	<path d="M 292.0,596.0 L 293.0,599.0" style="stroke:#060106; fill:none;"/>
	<path d="M 315.0,596.0 L 316.0,596.0" style="stroke:#060106; fill:none;"/>
	<path d="M 322.0,596.0 L 321.0,601.0" style="stroke:#060106; fill:none;"/>
	<path d="M 385.0,596.0 L 385.0,600.0" style="stroke:#060106; fill:none;"/>
	<path d="M 404.0,596.0 L 406.0,599.0" style="stroke:#060106; fill:none;"/>
	<path d="M 713.0,596.0 L 714.0,597.0" style="stroke:#060106; fill:none;"/>
	<path d="M 371.0,597.0 L 371.0,598.0" style="stroke:#060106; fill:none;"/>
	<path d="M 556.0,597.0 L 558.0,599.0" style="stroke:#060106; fill:none;"/>
	<path d="M 566.0,597.0 L 569.0,599.0" style="stroke:#060106; fill:none;"/>
	<path d="M 599.0,597.0 L 597.0,600.0" style="stroke:#060106; fill:none;"/>
	<path d="M 314.0,598.0 L 315.0,598.0" style="stroke:#060106; fill:none;"/>
	<path d="M 324.0,598.0 L 322.0,600.0" style="stroke:#060106; fill:none;"/>
	<path d="M 352.0,598.0 L 352.0,599.0" style="stroke:#060106; fill:none;"/>
	<path d="M 394.0,598.0 L 397.0,601.0" style="stroke:#060106; fill:none;"/>
	<path d="M 508.0,598.0 L 509.0,599.0" style="stroke:#060106; fill:none;"/>
	<path d="M 377.0,599.0 L 377.0,600.0" style="stroke:#060106; fill:none;"/>
	<path d="M 571.0,599.0 L 573.0,599.0" style="stroke:#060106; fill:none;"/>
	<path d="M 605.0,599.0 L 609.0,600.0" style="stroke:#060106; fill:none;"/>
	<path d="M 590.0,602.0 L 593.0,600.0 L 596.0,603.0" style="stroke:#060106; fill:none;"/>
	<path d="M 316.0,601.0 L 317.0,601.0" style="stroke:#060106; fill:none;"/>
	<path d="M 353.0,601.0 L 353.0,603.0" style="stroke:#060106; fill:none;"/>
	<path d="M 365.0,601.0 L 365.0,602.0" style="stroke:#060106; fill:none;"/>
	<path d="M 385.0,602.0 L 383.0,604.0" style="stroke:#060106; fill:none;"/>
	<path d="M 530.0,602.0 L 533.0,602.0" style="stroke:#060106; fill:none;"/>
	<path d="M 588.0,602.0 L 588.0,603.0" style="stroke:#060106; fill:none;"/>
	<path d="M 717.0,602.0 L 718.0,602.0" style="stroke:#060106; fill:none;"/>
	<path d="M 384.0,603.0 L 386.0,605.0" style="stroke:#060106; fill:none;"/>
	<path d="M 407.0,603.0 L 407.0,605.0" style="stroke:#060106; fill:none;"/>
	<path d="M 534.0,603.0 L 537.0,604.0" style="stroke:#060106; fill:none;"/>
	<path d="M 539.0,603.0 L 540.0,605.0" style="stroke:#060106; fill:none;"/>
	<path d="M 601.0,603.0 L 601.0,605.0" style="stroke:#060106; fill:none;"/>
	<path d="M 308.0,604.0 L 308.0,605.0" style="stroke:#060106; fill:none;"/>
	<path d="M 314.0,605.0 L 318.0,607.0" style="stroke:#060106; fill:none;"/>
	<path d="M 369.0,604.0 L 370.0,605.0" style="stroke:#060106; fill:none;"/>
	<path d="M 354.0,605.0 L 355.0,607.0" style="stroke:#060106; fill:none;"/>
	<path d="M 548.0,605.0 L 551.0,606.0" style="stroke:#060106; fill:none;"/>
	<path d="M 594.0,605.0 L 595.0,606.0" style="stroke:#060106; fill:none;"/>
	<path d="M 323.0,606.0 L 327.0,610.0" style="stroke:#060106; fill:none;"/>
	<path d="M 372.0,606.0 L 373.0,606.0" style="stroke:#060106; fill:none;"/>
	<path d="M 390.0,606.0 L 390.0,607.0" style="stroke:#060106; fill:none;"/>
	<path d="M 537.0,609.0 L 539.0,607.0" style="stroke:#060106; fill:none;"/>
	<path d="M 556.0,607.0 L 557.0,607.0" style="stroke:#060106; fill:none;"/>
	<path d="M 357.0,608.0 L 363.0,611.0" style="stroke:#060106; fill:none;"/>
	<path d="M 408.0,608.0 L 409.0,609.0" style="stroke:#060106; fill:none;"/>
	<path d="M 565.0,608.0 L 567.0,609.0" style="stroke:#060106; fill:none;"/>
	<path d="M 569.0,608.0 L 570.0,608.0" style="stroke:#060106; fill:none;"/>
	<path d="M 334.0,609.0 L 335.0,610.0" style="stroke:#060106; fill:none;"/>
	<path d="M 296.0,613.0 L 297.0,610.0" style="stroke:#060106; fill:none;"/>
	<path d="M 329.0,610.0 L 330.0,611.0" style="stroke:#060106; fill:none;"/>
	<path d="M 358.0,610.0 L 351.0,613.0" style="stroke:#060106; fill:none;"/>
	<path d="M 566.0,612.0 L 567.0,613.0" style="stroke:#060106; fill:none;"/>
	<path d="M 341.0,613.0 L 341.0,614.0" style="stroke:#060106; fill:none;"/>
	<path d="M 346.0,613.0 L 348.0,613.0" style="stroke:#060106; fill:none;"/>
	<path d="M 357.0,613.0 L 357.0,614.0" style="stroke:#060106; fill:none;"/>
	<path d="M 329.0,614.0 L 329.0,615.0" style="stroke:#060106; fill:none;"/>
	<path d="M 726.0,614.0 L 728.0,618.0 L 728.0,616.0" style="stroke:#060106; fill:none;"/>
	<path d="M 298.0,615.0 L 298.0,617.0" style="stroke:#060106; fill:none;"/>
	<path d="M 298.0,620.0 L 300.0,626.0" style="stroke:#060106; fill:none;"/>
	<path d="M 734.0,620.0 L 734.0,622.0" style="stroke:#060106; fill:none;"/>
	<path d="M 737.0,624.0 L 739.0,625.0" style="stroke:#060106; fill:none;"/>
	<path d="M 725.0,625.0 L 726.0,625.0" style="stroke:#060106; fill:none;"/>
	<path d="M 741.0,626.0 L 742.0,626.0" style="stroke:#060106; fill:none;"/>
	<path d="M 731.0,630.0 L 732.0,630.0" style="stroke:#060106; fill:none;"/>
	<path d="M 297.0,633.0 L 296.0,635.0" style="stroke:#060106; fill:none;"/>
	<path d="M 738.0,637.0 L 740.0,639.0" style="stroke:#060106; fill:none;"/>
	<path d="M 757.0,639.0 L 760.0,641.0" style="stroke:#060106; fill:none;"/>
	<path d="M 296.0,643.0 L 296.0,646.0" style="stroke:#060106; fill:none;"/>
	<path d="M 768.0,646.0 L 767.0,647.0" style="stroke:#060106; fill:none;"/>
	<path d="M 751.0,647.0 L 752.0,647.0" style="stroke:#060106; fill:none;"/>
	<path d="M 759.0,648.0 L 760.0,649.0" style="stroke:#060106; fill:none;"/>
	<path d="M 296.0,649.0 L 296.0,651.0" style="stroke:#060106; fill:none;"/>
	<path d="M 775.0,651.0 L 776.0,651.0" style="stroke:#060106; fill:none;"/>
	<path d="M 406.0,653.0 L 407.0,653.0" style="stroke:#060106; fill:none;"/>
	<path d="M 293.0,654.0 L 293.0,658.0" style="stroke:#060106; fill:none;"/>
	<path d="M 782.0,656.0 L 783.0,657.0" style="stroke:#060106; fill:none;"/>
	<path d="M 294.0,660.0 L 295.0,662.0" style="stroke:#060106; fill:none;"/>
	<path d="M 405.0,662.0 L 405.0,663.0" style="stroke:#060106; fill:none;"/>
	<path d="M 778.0,662.0 L 779.0,662.0" style="stroke:#060106; fill:none;"/>
	<path d="M 295.0,665.0 L 295.0,667.0" style="stroke:#060106; fill:none;"/>
	<path d="M 295.0,671.0 L 296.0,676.0" style="stroke:#060106; fill:none;"/>
	<path d="M 297.0,685.0 L 297.0,686.0" style="stroke:#060106; fill:none;"/>
	<path d="M 779.0,712.0 L 783.0,708.0" style="stroke:#060106; fill:none;"/>
	<path d="M 475.0,711.0 L 476.0,712.0" style="stroke:#060106; fill:none;"/>
	<path d="M 484.0,712.0 L 484.0,713.0" style="stroke:#060106; fill:none;"/>
	<path d="M 776.0,712.0 L 774.0,713.0" style="stroke:#060106; fill:none;"/>
	<path d="M 487.0,713.0 L 488.0,714.0" style="stroke:#060106; fill:none;"/>
	<path d="M 299.0,715.0 L 299.0,716.0" style="stroke:#060106; fill:none;"/>
	<path d="M 299.0,727.0 L 300.0,727.0" style="stroke:#060106; fill:none;"/>
	<path d="M 301.0,733.0 L 301.0,735.0" style="stroke:#060106; fill:none;"/>
	<path d="M 503.0,733.0 L 503.0,734.0" style="stroke:#060106; fill:none;"/>
	<path d="M 501.0,736.0 L 502.0,738.0" style="stroke:#060106; fill:none;"/>
	<path d="M 300.0,738.0 L 300.0,740.0 L 300.0,738.0" style="stroke:#060106; fill:none;"/>
	<path d="M 499.0,741.0 L 497.0,743.0" style="stroke:#060106; fill:none;"/>
	<path d="M 386.0,744.0 L 387.0,744.0" style="stroke:#060106; fill:none;"/>
	<path d="M 302.0,745.0 L 303.0,745.0" style="stroke:#060106; fill:none;"/>
	<path d="M 303.0,749.0 L 302.0,753.0 L 301.0,751.0" style="stroke:#060106; fill:none;"/>
	<path d="M 466.0,749.0 L 467.0,749.0" style="stroke:#060106; fill:none;"/>
	<path d="M 470.0,749.0 L 472.0,749.0" style="stroke:#060106; fill:none;"/>
	<path d="M 456.0,752.0 L 459.0,752.0" style="stroke:#060106; fill:none;"/>
	<path d="M 304.0,753.0 L 304.0,755.0" style="stroke:#060106; fill:none;"/>
	<path d="M 445.0,757.0 L 453.0,754.0" style="stroke:#060106; fill:none;"/>
	<path d="M 395.0,756.0 L 398.0,758.0" style="stroke:#060106; fill:none;"/>
	<path d="M 303.0,757.0 L 304.0,757.0" style="stroke:#060106; fill:none;"/>
	<path d="M 400.0,759.0 L 403.0,761.0" style="stroke:#060106; fill:none;"/>
	<path d="M 304.0,762.0 L 308.0,770.0" style="stroke:#060106; fill:none;"/>
	<path d="M 436.0,761.0 L 436.0,762.0" style="stroke:#060106; fill:none;"/>
	<path d="M 753.0,761.0 L 754.0,761.0" style="stroke:#060106; fill:none;"/>
	<path d="M 303.0,763.0 L 304.0,764.0" style="stroke:#060106; fill:none;"/>
	<path d="M 754.0,763.0 L 753.0,764.0" style="stroke:#060106; fill:none;"/>
	<path d="M 307.0,765.0 L 307.0,766.0" style="stroke:#060106; fill:none;"/>
	<path d="M 306.0,769.0 L 306.0,770.0" style="stroke:#060106; fill:none;"/>
	<path d="M 751.0,770.0 L 751.0,771.0" style="stroke:#060106; fill:none;"/>
	<path d="M 306.0,772.0 L 308.0,772.0" style="stroke:#060106; fill:none;"/>
	<path d="M 308.0,777.0 L 308.0,775.0 L 310.0,780.0" style="stroke:#060106; fill:none;"/>
	<path d="M 750.0,780.0 L 751.0,782.0" style="stroke:#060106; fill:none;"/>
	<path d="M 311.0,783.0 L 310.0,784.0" style="stroke:#060106; fill:none;"/>
	<path d="M 312.0,785.0 L 312.0,786.0" style="stroke:#060106; fill:none;"/>
	<path d="M 750.0,788.0 L 751.0,789.0" style="stroke:#060106; fill:none;"/>
	<path d="M 312.0,789.0 L 312.0,790.0" style="stroke:#060106; fill:none;"/>
	<path d="M 750.0,792.0 L 751.0,792.0" style="stroke:#060106; fill:none;"/>
	<path d="M 313.0,794.0 L 315.0,795.0" style="stroke:#060106; fill:none;"/>
	<path d="M 315.0,797.0 L 316.0,801.0" style="stroke:#060106; fill:none;"/>
	<path d="M 757.0,800.0 L 753.0,806.0" style="stroke:#060106; fill:none;"/>
	<path d="M 393.0,803.0 L 397.0,803.0" style="stroke:#060106; fill:none;"/>
	<path d="M 399.0,803.0 L 405.0,805.0" style="stroke:#060106; fill:none;"/>
	<path d="M 754.0,804.0 L 755.0,805.0" style="stroke:#060106; fill:none;"/>
	<path d="M 316.0,806.0 L 316.0,809.0" style="stroke:#060106; fill:none;"/>
	<path d="M 407.0,806.0 L 408.0,806.0" style="stroke:#060106; fill:none;"/>
	<path d="M 432.0,806.0 L 432.0,807.0" style="stroke:#060106; fill:none;"/>
	<path d="M 520.0,806.0 L 520.0,807.0" style="stroke:#060106; fill:none;"/>
	<path d="M 411.0,807.0 L 412.0,807.0" style="stroke:#060106; fill:none;"/>
	<path d="M 419.0,807.0 L 421.0,807.0" style="stroke:#060106; fill:none;"/>
	<path d="M 444.0,808.0 L 446.0,808.0" style="stroke:#060106; fill:none;"/>
	<path d="M 453.0,808.0 L 455.0,809.0" style="stroke:#060106; fill:none;"/>
	<path d="M 466.0,808.0 L 467.0,808.0" style="stroke:#060106; fill:none;"/>
	<path d="M 392.0,809.0 L 393.0,810.0" style="stroke:#060106; fill:none;"/>
	<path d="M 395.0,810.0 L 396.0,811.0" style="stroke:#060106; fill:none;"/>
	<path d="M 555.0,810.0 L 556.0,810.0" style="stroke:#060106; fill:none;"/>
	<path d="M 751.0,810.0 L 751.0,811.0" style="stroke:#060106; fill:none;"/>
	<path d="M 552.0,811.0 L 553.0,811.0" style="stroke:#060106; fill:none;"/>
	<path d="M 544.0,812.0 L 547.0,812.0" style="stroke:#060106; fill:none;"/>
	<path d="M 399.0,813.0 L 401.0,815.0" style="stroke:#060106; fill:none;"/>
	<path d="M 538.0,813.0 L 538.0,814.0" style="stroke:#060106; fill:none;"/>
	<path d="M 746.0,813.0 L 746.0,815.0" style="stroke:#060106; fill:none;"/>
	<path d="M 319.0,815.0 L 319.0,816.0 L 319.0,815.0" style="stroke:#060106; fill:none;"/>
	<path d="M 519.0,816.0 L 524.0,815.0" style="stroke:#060106; fill:none;"/>
	<path d="M 408.0,818.0 L 408.0,819.0" style="stroke:#060106; fill:none;"/>
	<path d="M 489.0,819.0 L 492.0,819.0" style="stroke:#060106; fill:none;"/>
	<path d="M 496.0,819.0 L 498.0,819.0" style="stroke:#060106; fill:none;"/>
	<path d="M 500.0,819.0 L 502.0,818.0" style="stroke:#060106; fill:none;"/>
	<path d="M 504.0,818.0 L 511.0,818.0" style="stroke:#060106; fill:none;"/>
	<path d="M 412.0,819.0 L 416.0,820.0" style="stroke:#060106; fill:none;"/>
	<path d="M 419.0,819.0 L 421.0,820.0" style="stroke:#060106; fill:none;"/>
	<path d="M 423.0,819.0 L 424.0,819.0" style="stroke:#060106; fill:none;"/>
	<path d="M 474.0,820.0 L 476.0,820.0" style="stroke:#060106; fill:none;"/>
	<path d="M 481.0,819.0 L 486.0,819.0" style="stroke:#060106; fill:none;"/>
	<path d="M 744.0,819.0 L 737.0,829.0" style="stroke:#060106; fill:none;"/>
	<path d="M 469.0,821.0 L 471.0,821.0" style="stroke:#060106; fill:none;"/>
	<path d="M 429.0,821.0 L 434.0,822.0" style="stroke:#060106; fill:none;"/>
	<path d="M 464.0,821.0 L 466.0,821.0" style="stroke:#060106; fill:none;"/>
	<path d="M 320.0,822.0 L 319.0,824.0" style="stroke:#060106; fill:none;"/>
	<path d="M 449.0,823.0 L 454.0,823.0" style="stroke:#060106; fill:none;"/>
	<path d="M 438.0,824.0 L 443.0,824.0" style="stroke:#060106; fill:none;"/>
	<path d="M 535.0,825.0 L 537.0,825.0" style="stroke:#060106; fill:none;"/>
	<path d="M 321.0,830.0 L 323.0,834.0" style="stroke:#060106; fill:none;"/>
	<path d="M 734.0,830.0 L 731.0,837.0" style="stroke:#060106; fill:none;"/>
	<path d="M 414.0,837.0 L 418.0,839.0" style="stroke:#060106; fill:none;"/>
	<path d="M 732.0,839.0 L 729.0,840.0" style="stroke:#060106; fill:none;"/>
	<path d="M 326.0,842.0 L 328.0,849.0" style="stroke:#060106; fill:none;"/>
	<path d="M 728.0,844.0 L 723.0,859.0" style="stroke:#060106; fill:none;"/>
	<path d="M 470.0,845.0 L 471.0,845.0" style="stroke:#060106; fill:none;"/>
	<path d="M 465.0,846.0 L 463.0,848.0" style="stroke:#060106; fill:none;"/>
	<path d="M 433.0,847.0 L 435.0,848.0" style="stroke:#060106; fill:none;"/>
	<path d="M 725.0,848.0 L 726.0,848.0" style="stroke:#060106; fill:none;"/>
	<path d="M 437.0,849.0 L 437.0,850.0" style="stroke:#060106; fill:none;"/>
	<path d="M 441.0,849.0 L 442.0,850.0" style="stroke:#060106; fill:none;"/>
	<path d="M 445.0,849.0 L 445.0,850.0" style="stroke:#060106; fill:none;"/>
	<path d="M 448.0,849.0 L 449.0,850.0" style="stroke:#060106; fill:none;"/>
	<path d="M 452.0,849.0 L 453.0,849.0" style="stroke:#060106; fill:none;"/>
	<path d="M 330.0,852.0 L 334.0,859.0" style="stroke:#060106; fill:none;"/>
	<path d="M 336.0,862.0 L 338.0,862.0" style="stroke:#060106; fill:none;"/>
	<path d="M 722.0,863.0 L 722.0,864.0" style="stroke:#060106; fill:none;"/>
	<path d="M 341.0,864.0 L 343.0,867.0" style="stroke:#060106; fill:none;"/>
	<path d="M 720.0,865.0 L 717.0,872.0" style="stroke:#060106; fill:none;"/>
	<path d="M 345.0,871.0 L 350.0,875.0 L 347.0,874.0" style="stroke:#060106; fill:none;"/>
	<path d="M 351.0,875.0 L 356.0,881.0" style="stroke:#060106; fill:none;"/>
	<path d="M 718.0,875.0 L 717.0,878.0" style="stroke:#060106; fill:none;"/>
	<path d="M 355.0,883.0 L 360.0,885.0" style="stroke:#060106; fill:none;"/>
	<path d="M 363.0,888.0 L 374.0,900.0" style="stroke:#060106; fill:none;"/>
	<path d="M 383.0,906.0 L 383.0,908.0" style="stroke:#060106; fill:none;"/>
	<path d="M 383.0,913.0 L 385.0,913.0" style="stroke:#060106; fill:none;"/>
	<path d="M 385.0,917.0 L 386.0,924.0" style="stroke:#060106; fill:none;"/>
	<path d="M 652.0,919.0 L 651.0,923.0" style="stroke:#060106; fill:none;"/>
	<path d="M 649.0,923.0 L 649.0,924.0" style="stroke:#060106; fill:none;"/>
	<path d="M 387.0,928.0 L 391.0,940.0" style="stroke:#060106; fill:none;"/>
	<path d="M 635.0,931.0 L 634.0,933.0" style="stroke:#060106; fill:none;"/>
	<path d="M 630.0,934.0 L 632.0,933.0" style="stroke:#060106; fill:none;"/>
	<path d="M 387.0,935.0 L 389.0,937.0" style="stroke:#060106; fill:none;"/>
	<path d="M 619.0,939.0 L 623.0,939.0" style="stroke:#060106; fill:none;"/>
	<path d="M 617.0,940.0 L 617.0,941.0" style="stroke:#060106; fill:none;"/>
	<path d="M 392.0,943.0 L 407.0,963.0" style="stroke:#060106; fill:none;"/>
	<path d="M 607.0,945.0 L 610.0,944.0" style="stroke:#060106; fill:none;"/>
	<path d="M 604.0,946.0 L 603.0,948.0" style="stroke:#060106; fill:none;"/>
	<path d="M 592.0,952.0 L 594.0,951.0" style="stroke:#060106; fill:none;"/>
	<path d="M 589.0,953.0 L 588.0,954.0" style="stroke:#060106; fill:none;"/>
	<path d="M 585.0,954.0 L 578.0,958.0" style="stroke:#060106; fill:none;"/>
	<path d="M 573.0,960.0 L 576.0,958.0" style="stroke:#060106; fill:none;"/>
	<path d="M 554.0,964.0 L 564.0,963.0" style="stroke:#060106; fill:none;"/>
	<path d="M 409.0,966.0 L 411.0,967.0" style="stroke:#060106; fill:none;"/>
	<path d="M 545.0,967.0 L 546.0,967.0" style="stroke:#060106; fill:none;"/>
	<path d="M 413.0,969.0 L 419.0,972.0" style="stroke:#060106; fill:none;"/>
	<path d="M 537.0,969.0 L 538.0,969.0" style="stroke:#060106; fill:none;"/>
	<path d="M 527.0,971.0 L 531.0,970.0" style="stroke:#060106; fill:none;"/>
	<path d="M 523.0,972.0 L 524.0,972.0" style="stroke:#060106; fill:none;"/>
	<path d="M 423.0,973.0 L 426.0,975.0" style="stroke:#060106; fill:none;"/>
	<path d="M 510.0,975.0 L 518.0,974.0" style="stroke:#060106; fill:none;"/>
	<path d="M 429.0,976.0 L 433.0,976.0" style="stroke:#060106; fill:none;"/>
	<path d="M 437.0,976.0 L 441.0,977.0" style="stroke:#060106; fill:none;"/>
	<path d="M 494.0,978.0 L 506.0,976.0" style="stroke:#060106; fill:none;"/>
	<path d="M 443.0,977.0 L 446.0,977.0" style="stroke:#060106; fill:none;"/>
	<path d="M 451.0,977.0 L 452.0,977.0" style="stroke:#060106; fill:none;"/>
	<path d="M 455.0,978.0 L 458.0,978.0" style="stroke:#060106; fill:none;"/>
	<path d="M 491.0,978.0 L 492.0,978.0" style="stroke:#060106; fill:none;"/>
</svg>
