<?xml version="1.0" ?>
<svg baseProfile="full" height="1374" version="1.1" width="1184" xmlns="http://www.w3.org/2000/svg" xmlns:ev="http://www.w3.org/2001/xml-events" xmlns:xlink="http://www.w3.org/1999/xlink">
	<defs/>
	<path d="M 648.0,1.0 L 684.0,30.0" style="stroke:#010101; fill:none;"/>
	<path d="M 497.0,3.0 C 514.528,2.24707 533.956,1.30249 551.0,6.74622 C 557.699,8.88562 562.74,13.2139 569.0,16.0" style="stroke:#010101; fill:none;"/>
	<path d="M 635.0,2.0 L 654.0,6.0" style="stroke:#010101; fill:none;"/>
	<path d="M 597.0,4.0 C 607.373,2.3374 619.453,11.634 629.0,15.0 L 626.0,14.0" style="stroke:#010101; fill:none;"/>
	<path d="M 653.0,9.0 C 661.194,14.4202 670.067,22.7062 671.0,33.0" style="stroke:#010101; fill:none;"/>
	<path d="M 629.0,14.0 C 640.491,10.7072 651.477,25.2728 663.0,27.0" style="stroke:#010101; fill:none;"/>
	<path d="M 564.0,14.0 C 559.014,17.5868 553.822,16.7183 548.0,17.804 C 535.039,20.2208 515.928,26.6896 503.0,25.0811 C 491.444,23.6433 479.749,16.847 468.0,16.7932 C 454.608,16.7319 445.43,31.3173 433.961,34.973 C 423.982,38.1537 409.728,34.7825 399.0,36.4884 C 371.207,40.908 344.816,59.9541 324.0,77.8696 C 315.781,84.9434 305.718,91.5801 304.0,103.0 C 311.664,102.868 318.032,95.2649 324.0,91.0 C 338.409,80.7031 352.705,70.9355 368.0,62.0" style="stroke:#010101; fill:none;"/>
	<path d="M 628.0,17.0 L 632.0,20.0" style="stroke:#010101; fill:none;"/>
	<path d="M 465.0,32.0 C 465.283,38.5939 465.619,45.6249 471.0,50.0 L 471.0,34.0" style="stroke:#010101; fill:none;"/>
	<path d="M 474.0,32.0 L 472.0,42.0" style="stroke:#010101; fill:none;"/>
	<path d="M 483.0,32.0 L 486.0,57.0" style="stroke:#010101; fill:none;"/>
	<path d="M 493.0,33.0 L 492.0,53.0" style="stroke:#010101; fill:none;"/>
	<path d="M 479.0,34.0 L 477.0,44.0 L 477.0,36.0" style="stroke:#010101; fill:none;"/>
	<path d="M 487.0,34.0 L 489.0,51.0" style="stroke:#010101; fill:none;"/>
	<path d="M 686.0,34.0 C 703.992,38.6549 721.377,40.3856 729.0,60.0" style="stroke:#010101; fill:none;"/>
	<path d="M 499.0,35.0 L 500.0,49.0" style="stroke:#010101; fill:none;"/>
	<path d="M 502.0,35.0 C 512.412,61.4608 534.998,74.355 552.811,95.0 C 559.294,102.514 562.104,117.46 575.0,117.0 L 574.0,116.0" style="stroke:#010101; fill:none;"/>
	<path d="M 462.0,37.0 L 463.0,58.0 L 457.0,41.0" style="stroke:#010101; fill:none;"/>
	<path d="M 683.0,40.0 C 696.108,40.0013 714.119,42.6432 719.0,57.0" style="stroke:#010101; fill:none;"/>
	<path d="M 452.0,42.0 L 453.0,42.0 L 453.0,49.0 L 452.0,42.0" style="stroke:#010101; fill:none;"/>
	<path d="M 478.0,45.0 L 482.0,60.0" style="stroke:#010101; fill:none;"/>
	<path d="M 692.0,46.0 L 704.0,64.0" style="stroke:#010101; fill:none;"/>
	<path d="M 453.0,50.0 L 456.0,63.0 L 454.0,58.0" style="stroke:#010101; fill:none;"/>
	<path d="M 477.0,50.0 L 477.0,54.0 L 472.0,58.0 L 472.0,51.0" style="stroke:#010101; fill:none;"/>
	<path d="M 472.0,52.0 L 474.0,54.0" style="stroke:#010101; fill:none;"/>
	<path d="M 478.0,55.0 L 474.0,62.0 L 476.0,60.0" style="stroke:#010101; fill:none;"/>
	<path d="M 474.0,57.0 L 476.0,59.0" style="stroke:#010101; fill:none;"/>
	<path d="M 486.0,66.0 L 506.0,57.0" style="stroke:#010101; fill:none;"/>
	<path d="M 463.0,58.0 L 464.0,62.0 L 465.0,58.0" style="stroke:#010101; fill:none;"/>
	<path d="M 472.0,58.0 L 473.0,63.0" style="stroke:#010101; fill:none;"/>
	<path d="M 506.0,61.0 L 493.0,69.0" style="stroke:#010101; fill:none;"/>
	<path d="M 458.0,62.0 C 460.44,64.7002 461.446,65.9603 465.0,65.0 L 470.0,79.0" style="stroke:#010101; fill:none;"/>
	<path d="M 466.0,62.0 L 461.0,66.0" style="stroke:#010101; fill:none;"/>
	<path d="M 511.0,62.0 L 502.0,70.0" style="stroke:#010101; fill:none;"/>
	<path d="M 456.0,63.0 L 467.0,89.0" style="stroke:#010101; fill:none;"/>
	<path d="M 473.0,63.0 L 473.0,66.0" style="stroke:#010101; fill:none;"/>
	<path d="M 721.0,64.0 C 741.608,63.9431 762.037,62.6121 781.0,72.9005 C 786.573,75.9243 792.448,79.5875 796.942,84.0895 C 799.726,86.8784 801.243,91.0399 805.058,92.5757 C 827.329,101.542 850.994,102.628 868.87,121.174 C 882.962,135.794 896.648,153.344 906.713,171.0 C 910.576,177.777 911.429,188.04 915.548,193.829 C 919.396,199.239 926.323,203.158 930.961,208.0 C 948.755,226.58 973.389,256.265 964.0,284.0 L 939.83,252.0 L 906.0,223.0" style="stroke:#010101; fill:none;"/>
	<path d="M 600.0,65.0 C 607.435,75.8768 608.228,89.3905 610.611,102.0 C 611.77,108.134 614.24,113.656 613.981,120.0 C 613.784,124.82 609.723,128.328 609.938,133.0 C 610.505,145.272 617.894,156.185 618.0,168.0" style="stroke:#010101; fill:none;"/>
	<path d="M 699.0,67.0 L 716.0,69.0" style="stroke:#010101; fill:none;"/>
	<path d="M 462.0,68.0 L 466.0,68.0" style="stroke:#010101; fill:none;"/>
	<path d="M 478.0,68.0 L 527.0,89.3087 L 557.0,105.0" style="stroke:#010101; fill:none;"/>
	<path d="M 366.0,109.0 C 370.83,96.5294 389.889,76.6476 402.0,71.0" style="stroke:#010101; fill:none;"/>
	<path d="M 464.0,71.0 L 466.0,73.0" style="stroke:#010101; fill:none;"/>
	<path d="M 681.0,75.0 C 692.506,70.1244 706.873,72.1484 719.0,72.7909 C 737.583,73.7754 755.935,72.2758 774.0,78.3557 C 783.562,81.5739 790.178,90.6426 800.0,92.0" style="stroke:#010101; fill:none;"/>
	<path d="M 641.0,91.0 L 623.0,111.0 C 620.482,95.871 635.21,70.4879 653.0,79.0" style="stroke:#010101; fill:none;"/>
	<path d="M 675.0,82.0 C 691.895,77.8373 710.666,77.0115 728.0,77.0" style="stroke:#010101; fill:none;"/>
	<path d="M 599.0,78.0 C 601.268,88.9946 611.908,110.112 605.0,120.0 L 600.0,107.0 C 591.792,110.924 590.055,93.4421 589.0,88.0" style="stroke:#010101; fill:none;"/>
	<path d="M 639.0,82.0 L 643.0,83.0" style="stroke:#010101; fill:none;"/>
	<path d="M 682.0,92.0 C 688.057,85.0654 697.694,86.603 706.0,85.7184 C 715.692,84.6862 724.541,87.2703 734.0,87.9468 C 743.638,88.6361 753.38,87.2542 763.0,88.1698 C 771.271,88.9569 783.309,92.4977 791.0,89.0" style="stroke:#010101; fill:none;"/>
	<path d="M 361.0,118.0 C 362.898,121.294 362.841,122.433 360.0,125.0 C 357.765,118.847 362.707,115.866 367.0,112.05 C 376.784,103.353 386.87,93.9313 398.0,87.0" style="stroke:#010101; fill:none;"/>
	<path d="M 596.0,87.0 C 598.336,92.4302 599.882,97.5725 597.0,103.0 L 594.0,91.0" style="stroke:#010101; fill:none;"/>
	<path d="M 710.0,89.0 L 729.0,88.0" style="stroke:#010101; fill:none;"/>
	<path d="M 712.0,90.0 C 716.506,95.2097 735.161,93.7063 742.0,94.0" style="stroke:#010101; fill:none;"/>
	<path d="M 678.0,99.0 L 711.0,93.0" style="stroke:#010101; fill:none;"/>
	<path d="M 624.0,99.0 L 624.0,94.0" style="stroke:#010101; fill:none;"/>
	<path d="M 622.0,97.0 L 614.0,111.0" style="stroke:#010101; fill:none;"/>
	<path d="M 663.0,110.0 C 694.466,107.516 728.366,93.1104 760.0,102.0" style="stroke:#010101; fill:none;"/>
	<path d="M 591.0,102.0 C 591.242,113.749 594.241,134.48 606.0,140.0 L 609.0,137.0" style="stroke:#010101; fill:none;"/>
	<path d="M 600.0,103.0 L 600.0,107.0" style="stroke:#010101; fill:none;"/>
	<path d="M 623.0,144.0 C 628.08,130.534 630.281,112.709 642.0,103.0" style="stroke:#010101; fill:none;"/>
	<path d="M 564.0,104.0 L 575.0,114.0" style="stroke:#010101; fill:none;"/>
	<path d="M 597.0,104.0 L 596.0,106.0" style="stroke:#010101; fill:none;"/>
	<path d="M 691.0,109.0 L 762.0,104.0" style="stroke:#010101; fill:none;"/>
	<path d="M 304.0,105.0 C 299.498,113.678 290.66,119.815 284.17,127.0 C 272.466,139.958 262.128,154.484 254.109,170.0 C 243.497,190.531 235.562,215.781 234.188,239.0 C 233.581,249.267 235.745,258.29 233.806,269.0 C 232.077,278.544 230.776,288.268 231.015,298.0 C 231.135,302.922 233.498,309.33 230.972,313.941 C 228.261,318.893 222.602,318.095 218.0,317.0" style="stroke:#010101; fill:none;"/>
	<path d="M 362.0,120.0 L 383.0,105.0" style="stroke:#010101; fill:none;"/>
	<path d="M 365.0,122.0 L 388.0,107.0" style="stroke:#010101; fill:none;"/>
	<path d="M 390.0,110.0 L 307.0,166.0" style="stroke:#010101; fill:none;"/>
	<path d="M 576.0,110.0 L 595.0,127.0" style="stroke:#010101; fill:none;"/>
	<path d="M 597.0,110.0 C 597.691,117.92 603.425,127.422 600.0,135.0" style="stroke:#010101; fill:none;"/>
	<path d="M 623.0,111.0 C 622.444,123.923 618.21,138.177 622.0,151.0" style="stroke:#010101; fill:none;"/>
	<path d="M 696.0,122.0 C 718.791,109.399 748.495,113.778 773.0,115.675 C 806.054,118.234 838.551,119.202 867.0,139.209 C 880.209,148.498 900.803,167.421 904.0,184.0 L 866.0,165.0" style="stroke:#010101; fill:none;"/>
	<path d="M 576.0,116.0 L 580.0,124.0 L 580.0,119.0" style="stroke:#010101; fill:none;"/>
	<path d="M 752.0,116.0 L 758.0,116.0" style="stroke:#010101; fill:none;"/>
	<path d="M 575.0,117.0 L 578.0,120.0" style="stroke:#010101; fill:none;"/>
	<path d="M 738.0,117.0 L 748.0,117.0" style="stroke:#010101; fill:none;"/>
	<path d="M 390.0,121.0 L 375.0,126.0 L 388.0,118.0" style="stroke:#010101; fill:none;"/>
	<path d="M 727.0,118.0 L 736.0,118.0" style="stroke:#010101; fill:none;"/>
	<path d="M 609.0,119.0 C 607.726,123.74 603.394,127.865 609.0,131.0" style="stroke:#010101; fill:none;"/>
	<path d="M 720.0,119.0 L 725.0,119.0" style="stroke:#010101; fill:none;"/>
	<path d="M 362.0,120.0 L 360.0,122.0" style="stroke:#010101; fill:none;"/>
	<path d="M 605.0,120.0 L 605.0,124.0" style="stroke:#010101; fill:none;"/>
	<path d="M 813.0,121.0 L 815.0,120.0" style="stroke:#010101; fill:none;"/>
	<path d="M 534.0,122.0 L 595.0,152.0 L 600.0,142.0 L 599.0,141.0 L 595.0,144.0 L 581.0,124.0" style="stroke:#010101; fill:none;"/>
	<path d="M 359.0,125.0 C 356.76,125.062 356.518,124.749 358.0,123.0" style="stroke:#010101; fill:none;"/>
	<path d="M 793.0,123.0 L 794.0,123.0" style="stroke:#010101; fill:none;"/>
	<path d="M 610.0,124.0 L 612.0,128.0" style="stroke:#010101; fill:none;"/>
	<path d="M 796.0,124.0 L 836.0,137.0 C 834.75,132.208 829.26,130.013 825.0,128.0" style="stroke:#010101; fill:none;"/>
	<path d="M 356.0,125.0 C 347.771,136.956 329.037,146.878 317.0,155.0" style="stroke:#010101; fill:none;"/>
	<path d="M 378.0,132.0 L 360.0,147.0 L 417.0,125.0" style="stroke:#010101; fill:none;"/>
	<path d="M 607.0,125.0 L 610.0,128.0" style="stroke:#010101; fill:none;"/>
	<path d="M 358.0,126.0 L 356.0,128.0" style="stroke:#010101; fill:none;"/>
	<path d="M 376.0,128.0 L 375.0,126.0" style="stroke:#010101; fill:none;"/>
	<path d="M 352.0,128.0 L 354.0,127.0" style="stroke:#010101; fill:none;"/>
	<path d="M 374.0,129.0 L 368.0,131.0 L 373.0,127.0" style="stroke:#010101; fill:none;"/>
	<path d="M 409.0,143.0 L 408.0,140.0 L 410.0,142.0 L 448.0,127.0" style="stroke:#010101; fill:none;"/>
	<path d="M 612.0,128.0 C 614.427,131.52 615.016,133.756 611.0,136.0" style="stroke:#010101; fill:none;"/>
	<path d="M 712.0,135.0 C 719.477,132.728 727.344,133.336 735.0,132.08 C 779.317,124.811 826.356,129.6 862.0,160.0" style="stroke:#010101; fill:none;"/>
	<path d="M 587.0,129.0 L 599.0,141.0" style="stroke:#010101; fill:none;"/>
	<path d="M 590.0,131.0 L 588.0,133.0" style="stroke:#010101; fill:none;"/>
	<path d="M 365.0,134.0 L 363.0,135.0 L 367.0,133.0" style="stroke:#010101; fill:none;"/>
	<path d="M 415.0,141.0 L 439.0,133.0" style="stroke:#010101; fill:none;"/>
	<path d="M 354.0,141.0 L 355.0,138.0 L 357.0,141.0 L 363.0,134.0" style="stroke:#010101; fill:none;"/>
	<path d="M 367.0,134.0 L 366.0,135.0" style="stroke:#010101; fill:none;"/>
	<path d="M 360.0,135.0 L 362.0,137.0" style="stroke:#010101; fill:none;"/>
	<path d="M 838.0,135.0 L 882.0,166.0" style="stroke:#010101; fill:none;"/>
	<path d="M 614.0,136.0 C 616.221,140.369 618.061,149.933 615.0,154.0" style="stroke:#010101; fill:none;"/>
	<path d="M 357.0,137.0 L 358.0,137.0" style="stroke:#010101; fill:none;"/>
	<path d="M 601.0,137.0 L 599.0,139.0" style="stroke:#010101; fill:none;"/>
	<path d="M 836.0,137.0 L 840.0,138.0" style="stroke:#010101; fill:none;"/>
	<path d="M 411.0,139.0 L 413.0,138.0" style="stroke:#010101; fill:none;"/>
	<path d="M 353.0,143.0 L 352.0,141.0" style="stroke:#010101; fill:none;"/>
	<path d="M 407.0,142.0 L 403.0,144.0 L 407.0,141.0" style="stroke:#010101; fill:none;"/>
	<path d="M 349.0,144.0 L 350.0,142.0" style="stroke:#010101; fill:none;"/>
	<path d="M 402.0,145.0 L 400.0,145.0 L 403.0,142.0" style="stroke:#010101; fill:none;"/>
	<path d="M 605.0,142.0 L 611.0,146.0" style="stroke:#010101; fill:none;"/>
	<path d="M 399.0,146.0 L 396.0,145.0 L 400.0,143.0" style="stroke:#010101; fill:none;"/>
	<path d="M 599.0,143.0 L 615.0,171.0 L 596.0,153.0" style="stroke:#010101; fill:none;"/>
	<path d="M 348.0,146.0 L 346.0,148.0 L 344.0,146.0 L 347.0,144.0" style="stroke:#010101; fill:none;"/>
	<path d="M 371.0,155.0 L 396.0,146.0" style="stroke:#010101; fill:none;"/>
	<path d="M 641.0,181.0 C 699.252,134.083 782.995,134.042 845.0,172.95 C 859.96,182.338 873.117,193.601 885.911,205.714 C 888.697,208.353 897.619,215.243 897.0,219.0" style="stroke:#010101; fill:none;"/>
	<path d="M 345.0,148.0 L 342.0,151.0 L 340.0,149.0 L 344.0,146.0" style="stroke:#010101; fill:none;"/>
	<path d="M 599.0,146.0 L 601.0,148.0" style="stroke:#010101; fill:none;"/>
	<path d="M 651.0,151.0 L 629.0,176.0 C 625.334,166.138 629.584,152.217 638.0,146.0" style="stroke:#010101; fill:none;"/>
	<path d="M 394.0,147.0 L 395.0,147.0" style="stroke:#010101; fill:none;"/>
	<path d="M 276.0,209.0 C 299.181,186.814 329.131,160.501 359.0,148.0" style="stroke:#010101; fill:none;"/>
	<path d="M 611.0,148.0 L 606.0,153.0" style="stroke:#010101; fill:none;"/>
	<path d="M 341.0,151.0 L 339.0,153.0 L 337.0,151.0 L 340.0,149.0" style="stroke:#010101; fill:none;"/>
	<path d="M 381.0,151.0 L 385.0,149.0" style="stroke:#010101; fill:none;"/>
	<path d="M 584.0,149.0 L 612.0,176.0" style="stroke:#010101; fill:none;"/>
	<path d="M 338.0,153.0 L 336.0,155.0 L 334.0,153.0 L 337.0,151.0" style="stroke:#010101; fill:none;"/>
	<path d="M 376.0,153.0 L 379.0,152.0" style="stroke:#010101; fill:none;"/>
	<path d="M 609.0,152.0 L 608.0,155.0" style="stroke:#010101; fill:none;"/>
	<path d="M 642.0,152.0 L 632.0,171.0" style="stroke:#010101; fill:none;"/>
	<path d="M 635.0,184.0 C 638.71,171.391 653.524,156.138 666.0,152.0" style="stroke:#010101; fill:none;"/>
	<path d="M 294.0,181.0 L 334.0,153.0" style="stroke:#010101; fill:none;"/>
	<path d="M 335.0,155.0 L 283.0,195.0" style="stroke:#010101; fill:none;"/>
	<path d="M 370.0,157.0 L 367.0,158.0 L 370.0,157.0" style="stroke:#010101; fill:none;"/>
	<path d="M 366.0,159.0 L 367.0,157.0" style="stroke:#010101; fill:none;"/>
	<path d="M 329.0,177.0 C 338.684,169.042 352.225,162.272 364.0,158.0" style="stroke:#010101; fill:none;"/>
	<path d="M 366.0,159.0 L 357.0,165.0" style="stroke:#010101; fill:none;"/>
	<path d="M 492.0,164.0 C 529.195,154.836 575.651,166.393 608.0,185.926 C 619.767,193.032 627.081,201.276 633.912,213.0 C 636.891,218.114 642.139,224.314 635.0,228.0" style="stroke:#010101; fill:none;"/>
	<path d="M 597.0,166.0 L 598.0,169.0" style="stroke:#010101; fill:none;"/>
	<path d="M 686.0,176.0 C 757.43,156.511 830.998,176.669 889.0,220.749 C 903.308,231.623 917.297,243.297 930.0,256.0 C 936.407,262.407 942.971,272.935 951.0,277.0 C 951.061,273.247 949.78,271.733 946.0,272.0" style="stroke:#010101; fill:none;"/>
	<path d="M 615.0,171.0 L 619.0,176.0" style="stroke:#010101; fill:none;"/>
	<path d="M 633.0,173.0 L 632.0,174.0" style="stroke:#010101; fill:none;"/>
	<path d="M 629.0,176.0 L 629.0,180.0" style="stroke:#010101; fill:none;"/>
	<path d="M 654.0,179.0 L 652.0,181.0 L 661.0,177.0" style="stroke:#010101; fill:none;"/>
	<path d="M 679.0,181.0 L 684.0,177.0" style="stroke:#010101; fill:none;"/>
	<path d="M 639.0,199.0 L 665.0,179.0" style="stroke:#010101; fill:none;"/>
	<path d="M 733.0,179.0 C 770.714,180.519 811.838,185.644 845.0,205.0" style="stroke:#010101; fill:none;"/>
	<path d="M 649.0,182.0 L 648.0,185.0 L 651.0,180.0" style="stroke:#010101; fill:none;"/>
	<path d="M 667.0,182.0 L 640.0,202.0" style="stroke:#010101; fill:none;"/>
	<path d="M 647.0,184.0 L 636.0,195.0" style="stroke:#010101; fill:none;"/>
	<path d="M 904.0,184.0 L 913.0,191.0" style="stroke:#010101; fill:none;"/>
	<path d="M 277.0,225.0 C 293.205,213.284 310.799,195.843 331.0,191.0" style="stroke:#010101; fill:none;"/>
	<path d="M 836.0,192.0 L 839.0,195.0" style="stroke:#010101; fill:none;"/>
	<path d="M 650.0,203.0 L 669.0,193.0" style="stroke:#010101; fill:none;"/>
	<path d="M 652.0,202.0 L 675.0,197.0" style="stroke:#010101; fill:none;"/>
	<path d="M 870.0,199.0 L 897.0,219.0" style="stroke:#010101; fill:none;"/>
	<path d="M 723.0,205.0 L 795.0,208.0" style="stroke:#010101; fill:none;"/>
	<path d="M 797.0,209.0 L 820.0,216.0" style="stroke:#010101; fill:none;"/>
	<path d="M 641.0,210.0 C 644.787,217.389 654.37,218.963 662.0,218.999 C 677.405,219.074 691.758,217.245 707.0,216.0" style="stroke:#010101; fill:none;"/>
	<path d="M 298.0,300.0 C 306.585,288.965 319.126,280.286 330.0,271.6 C 354.658,251.904 382.677,232.379 412.0,220.397 C 420.895,216.762 429.355,212.3 439.0,211.0" style="stroke:#010101; fill:none;"/>
	<path d="M 823.0,217.0 L 860.0,237.0" style="stroke:#010101; fill:none;"/>
	<path d="M 662.0,225.0 L 723.0,220.0" style="stroke:#010101; fill:none;"/>
	<path d="M 279.0,225.0 L 289.0,221.0" style="stroke:#010101; fill:none;"/>
	<path d="M 898.0,221.0 L 948.0,269.0" style="stroke:#010101; fill:none;"/>
	<path d="M 915.0,222.0 L 927.0,238.0" style="stroke:#010101; fill:none;"/>
	<path d="M 277.0,232.0 C 272.616,236.038 266.86,239.754 263.827,245.0 C 262.441,247.397 262.177,251.595 266.038,251.553 C 271.061,251.498 277.936,244.677 282.0,242.003 C 292.687,234.97 304.197,228.914 316.0,224.0" style="stroke:#010101; fill:none;"/>
	<path d="M 250.0,250.0 L 277.0,225.0" style="stroke:#010101; fill:none;"/>
	<path d="M 666.0,231.0 L 737.0,225.0" style="stroke:#010101; fill:none;"/>
	<path d="M 278.0,227.0 L 253.0,250.0" style="stroke:#010101; fill:none;"/>
	<path d="M 930.0,227.0 C 942.348,235.704 953.231,252.147 959.0,266.0" style="stroke:#010101; fill:none;"/>
	<path d="M 333.0,276.0 C 347.703,263.499 365.727,253.65 382.0,243.305 C 390.494,237.905 399.862,230.52 410.0,229.0" style="stroke:#010101; fill:none;"/>
	<path d="M 511.0,267.0 L 506.0,265.0 C 535.538,247.763 572.263,236.572 606.0,231.579 C 621.928,229.221 640.236,228.208 654.0,238.0" style="stroke:#010101; fill:none;"/>
	<path d="M 425.0,232.0 L 428.0,231.0" style="stroke:#010101; fill:none;"/>
	<path d="M 671.0,236.0 C 691.845,230.977 715.562,232.0 737.0,232.0" style="stroke:#010101; fill:none;"/>
	<path d="M 257.0,268.0 C 272.623,255.229 291.208,241.824 310.0,234.0" style="stroke:#010101; fill:none;"/>
	<path d="M 348.0,269.0 C 370.705,256.846 397.155,240.795 422.0,234.0" style="stroke:#010101; fill:none;"/>
	<path d="M 430.0,240.0 L 425.0,242.0 C 426.702,236.62 436.74,237.04 442.0,235.0" style="stroke:#010101; fill:none;"/>
	<path d="M 265.0,243.0 L 276.0,237.0" style="stroke:#010101; fill:none;"/>
	<path d="M 264.0,252.0 L 280.0,238.0" style="stroke:#010101; fill:none;"/>
	<path d="M 307.0,239.0 L 310.0,238.0" style="stroke:#010101; fill:none;"/>
	<path d="M 675.0,241.0 L 714.0,238.139 L 732.0,240.0 C 725.224,236.79 721.567,240.365 715.0,241.776 C 704.983,243.929 694.201,243.711 684.0,245.0" style="stroke:#010101; fill:none;"/>
	<path d="M 371.0,260.0 L 425.0,239.0" style="stroke:#010101; fill:none;"/>
	<path d="M 717.0,239.0 L 717.0,241.0" style="stroke:#010101; fill:none;"/>
	<path d="M 732.0,240.0 L 741.0,239.0" style="stroke:#010101; fill:none;"/>
	<path d="M 861.0,239.0 L 862.0,239.0" style="stroke:#010101; fill:none;"/>
	<path d="M 281.0,253.0 L 304.0,241.0" style="stroke:#010101; fill:none;"/>
	<path d="M 739.0,242.0 L 748.0,242.0" style="stroke:#010101; fill:none;"/>
	<path d="M 409.0,248.0 L 424.0,243.0" style="stroke:#010101; fill:none;"/>
	<path d="M 866.0,243.0 L 868.0,244.0" style="stroke:#010101; fill:none;"/>
	<path d="M 265.0,246.0 L 264.0,247.0" style="stroke:#010101; fill:none;"/>
	<path d="M 687.0,248.0 L 728.0,247.0" style="stroke:#010101; fill:none;"/>
	<path d="M 679.0,248.0 L 685.0,248.0" style="stroke:#010101; fill:none;"/>
	<path d="M 245.0,256.0 L 240.0,264.0 L 244.0,267.0 L 250.0,250.0" style="stroke:#010101; fill:none;"/>
	<path d="M 262.0,250.0 L 254.0,261.0 L 255.0,261.0 L 256.0,260.0 L 250.0,259.0 L 250.0,260.0 L 249.0,261.0 L 248.0,262.0" style="stroke:#010101; fill:none;"/>
	<path d="M 263.0,251.0 L 255.0,259.0" style="stroke:#010101; fill:none;"/>
	<path d="M 251.0,252.0 L 246.0,256.0" style="stroke:#010101; fill:none;"/>
	<path d="M 277.0,253.0 L 279.0,252.0" style="stroke:#010101; fill:none;"/>
	<path d="M 274.0,255.0 L 277.0,253.0" style="stroke:#010101; fill:none;"/>
	<path d="M 682.0,255.0 L 730.0,253.0" style="stroke:#010101; fill:none;"/>
	<path d="M 288.0,255.0 C 270.6,272.4 249.453,288.353 237.0,310.0" style="stroke:#010101; fill:none;"/>
	<path d="M 686.0,256.0 L 691.0,256.0" style="stroke:#010101; fill:none;"/>
	<path d="M 691.0,256.0 C 699.549,260.562 713.437,258.0 723.0,258.0" style="stroke:#010101; fill:none;"/>
	<path d="M 527.0,257.0 L 530.0,259.0" style="stroke:#010101; fill:none;"/>
	<path d="M 243.0,258.0 L 246.0,261.0" style="stroke:#010101; fill:none;"/>
	<path d="M 248.0,259.0 L 250.0,259.0" style="stroke:#010101; fill:none;"/>
	<path d="M 255.0,261.0 L 237.0,278.0" style="stroke:#010101; fill:none;"/>
	<path d="M 694.0,261.0 L 704.0,262.0" style="stroke:#010101; fill:none;"/>
	<path d="M 244.0,263.0 L 246.0,263.0" style="stroke:#010101; fill:none;"/>
	<path d="M 707.0,263.0 L 712.0,263.0" style="stroke:#010101; fill:none;"/>
	<path d="M 718.0,263.0 L 728.0,263.0" style="stroke:#010101; fill:none;"/>
	<path d="M 240.0,264.0 L 235.0,266.0" style="stroke:#010101; fill:none;"/>
	<path d="M 239.0,265.0 L 243.0,267.0" style="stroke:#010101; fill:none;"/>
	<path d="M 500.0,268.0 L 495.0,267.0 C 499.291,269.007 501.952,266.992 506.0,265.0" style="stroke:#010101; fill:none;"/>
	<path d="M 550.0,315.0 C 568.42,300.392 589.551,290.686 611.0,281.432 C 626.563,274.717 643.039,267.19 660.0,265.0" style="stroke:#010101; fill:none;"/>
	<path d="M 692.0,266.0 C 705.664,272.859 721.552,276.124 736.0,281.079 C 752.902,286.875 771.179,295.048 789.0,296.829 C 820.092,299.938 850.941,296.234 880.0,310.0 L 876.0,315.0 C 893.655,323.623 916.994,337.87 928.621,354.004 C 933.525,360.809 935.757,370.269 938.92,378.0 C 941.58,384.502 948.924,397.506 946.0,404.0 L 945.0,399.0" style="stroke:#010101; fill:none;"/>
	<path d="M 410.0,298.0 L 452.0,281.189 L 495.0,267.0" style="stroke:#010101; fill:none;"/>
	<path d="M 242.0,268.0 L 242.0,271.0" style="stroke:#010101; fill:none;"/>
	<path d="M 505.0,268.0 L 506.0,268.0" style="stroke:#010101; fill:none;"/>
	<path d="M 497.0,269.0 C 481.682,279.908 460.902,285.924 448.0,300.0 C 454.444,301.677 462.022,296.838 468.0,294.449 C 482.266,288.747 496.844,283.886 511.0,278.0" style="stroke:#010101; fill:none;"/>
	<path d="M 592.0,307.0 L 591.0,304.0 L 602.0,302.0 C 612.958,292.006 627.481,287.964 640.741,282.187 C 651.033,277.703 660.019,270.548 672.0,270.0" style="stroke:#010101; fill:none;"/>
	<path d="M 504.0,272.0 L 488.0,278.0" style="stroke:#010101; fill:none;"/>
	<path d="M 514.0,272.0 C 503.028,277.193 491.346,281.108 480.0,285.424 C 474.869,287.376 470.322,290.372 465.0,288.0" style="stroke:#010101; fill:none;"/>
	<path d="M 527.0,334.0 L 594.0,296.741 L 634.0,278.0" style="stroke:#010101; fill:none;"/>
	<path d="M 952.0,278.0 L 962.0,293.0 L 964.0,284.0" style="stroke:#010101; fill:none;"/>
	<path d="M 639.0,282.0 L 643.0,280.0" style="stroke:#010101; fill:none;"/>
	<path d="M 425.0,296.0 C 439.912,291.15 457.347,281.716 473.0,281.0" style="stroke:#010101; fill:none;"/>
	<path d="M 768.0,291.0 C 774.174,286.043 783.393,288.0 791.0,288.0 C 803.003,288.0 815.37,286.009 827.0,283.0" style="stroke:#010101; fill:none;"/>
	<path d="M 880.0,287.0 C 896.615,296.456 915.073,300.524 930.0,313.3 C 956.952,336.369 964.359,367.272 965.259,401.0 C 965.572,412.732 967.513,425.293 965.678,437.0 C 962.914,454.642 948.249,468.501 945.0,486.0" style="stroke:#010101; fill:none;"/>
	<path d="M 492.0,295.0 L 475.0,299.0 L 499.0,288.0" style="stroke:#010101; fill:none;"/>
	<path d="M 520.0,358.0 C 534.219,346.229 551.954,337.558 568.0,328.562 C 593.223,314.419 619.398,297.997 647.0,289.0" style="stroke:#010101; fill:none;"/>
	<path d="M 713.0,289.0 C 702.707,296.035 689.67,298.479 678.0,302.355 C 656.202,309.594 634.143,316.38 613.0,325.427 C 568.697,344.386 527.974,375.326 487.0,401.0" style="stroke:#010101; fill:none;"/>
	<path d="M 455.0,294.0 C 454.725,290.898 456.046,290.658 459.0,290.0" style="stroke:#010101; fill:none;"/>
	<path d="M 434.0,297.0 L 453.0,292.0" style="stroke:#010101; fill:none;"/>
	<path d="M 670.0,353.0 L 688.194,329.326 L 708.0,315.127 L 739.0,291.0" style="stroke:#010101; fill:none;"/>
	<path d="M 456.0,292.0 L 457.0,293.0" style="stroke:#010101; fill:none;"/>
	<path d="M 963.0,294.0 C 966.667,309.613 978.963,324.297 984.11,340.0 C 986.155,346.238 984.245,352.542 985.661,359.0 C 991.499,385.624 996.173,410.626 992.271,438.0 C 990.523,450.258 989.011,475.234 977.0,482.0 C 977.169,461.575 984.817,441.558 981.0,421.0" style="stroke:#010101; fill:none;"/>
	<path d="M 602.0,298.0 L 604.0,299.0" style="stroke:#010101; fill:none;"/>
	<path d="M 709.0,298.0 C 695.939,311.061 677.686,320.802 670.0,338.0 L 685.0,332.0" style="stroke:#010101; fill:none;"/>
	<path d="M 447.0,299.0 C 442.165,303.44 436.067,309.423 430.0,312.052 C 424.413,314.474 415.092,313.763 409.0,314.039 C 398.012,314.538 387.013,315.996 376.0,316.0 C 365.973,316.004 355.359,312.0 346.0,317.0 L 366.0,319.0 L 407.0,318.0" style="stroke:#010101; fill:none;"/>
	<path d="M 447.0,310.0 L 475.0,299.0" style="stroke:#010101; fill:none;"/>
	<path d="M 441.0,302.0 L 444.0,301.0" style="stroke:#010101; fill:none;"/>
	<path d="M 435.0,303.0 L 441.0,301.0" style="stroke:#010101; fill:none;"/>
	<path d="M 445.0,301.0 L 449.0,301.0" style="stroke:#010101; fill:none;"/>
	<path d="M 296.0,307.0 L 267.0,314.0 L 292.0,302.0" style="stroke:#010101; fill:none;"/>
	<path d="M 450.0,313.0 L 476.0,301.0" style="stroke:#010101; fill:none;"/>
	<path d="M 542.0,350.0 L 593.0,320.576 L 630.0,302.0" style="stroke:#010101; fill:none;"/>
	<path d="M 537.0,303.0 C 524.44,318.429 502.692,326.224 485.0,333.814 C 470.08,340.215 456.03,347.291 440.0,351.0" style="stroke:#010101; fill:none;"/>
	<path d="M 592.0,304.0 L 596.0,303.0" style="stroke:#010101; fill:none;"/>
	<path d="M 599.0,303.0 L 601.0,302.0" style="stroke:#010101; fill:none;"/>
	<path d="M 692.0,303.0 C 688.618,307.799 683.287,314.553 677.0,314.0 L 680.0,313.0" style="stroke:#010101; fill:none;"/>
	<path d="M 361.0,314.0 C 371.428,308.349 386.358,311.968 398.0,310.424 C 404.071,309.62 409.938,311.269 411.0,304.0 L 420.0,304.0" style="stroke:#010101; fill:none;"/>
	<path d="M 377.0,311.0 C 385.102,305.167 400.196,305.055 410.0,305.0" style="stroke:#010101; fill:none;"/>
	<path d="M 414.0,305.0 C 416.673,309.601 422.241,308.003 427.0,308.0" style="stroke:#010101; fill:none;"/>
	<path d="M 524.0,344.0 L 589.0,305.0" style="stroke:#010101; fill:none;"/>
	<path d="M 592.0,307.0 L 528.0,348.0" style="stroke:#010101; fill:none;"/>
	<path d="M 350.0,310.0 L 352.0,310.0" style="stroke:#010101; fill:none;"/>
	<path d="M 873.0,310.0 L 876.0,315.0" style="stroke:#010101; fill:none;"/>
	<path d="M 880.0,310.0 C 898.595,313.202 915.263,329.023 929.0,340.87 C 935.4,346.389 943.216,353.927 946.353,362.0 C 950.653,373.063 947.649,387.066 955.0,397.0 L 957.0,380.0" style="stroke:#010101; fill:none;"/>
	<path d="M 346.0,311.0 L 348.0,311.0" style="stroke:#010101; fill:none;"/>
	<path d="M 444.0,311.0 C 434.108,316.212 425.734,316.173 418.0,325.0" style="stroke:#010101; fill:none;"/>
	<path d="M 320.0,316.0 L 315.0,319.0 L 344.0,312.0" style="stroke:#010101; fill:none;"/>
	<path d="M 268.0,315.0 L 265.0,317.0 L 267.0,314.0" style="stroke:#010101; fill:none;"/>
	<path d="M 428.0,314.0 L 428.0,316.0" style="stroke:#010101; fill:none;"/>
	<path d="M 656.0,325.0 C 626.639,337.207 597.657,350.002 569.0,363.778 C 560.814,367.713 545.968,380.197 537.0,378.0 C 564.268,357.04 597.211,341.266 629.0,328.551 C 644.266,322.444 660.419,315.32 677.0,314.0" style="stroke:#010101; fill:none;"/>
	<path d="M 239.0,325.0 L 265.0,316.0" style="stroke:#010101; fill:none;"/>
	<path d="M 321.0,315.0 L 322.0,315.0" style="stroke:#010101; fill:none;"/>
	<path d="M 546.0,352.0 L 593.0,327.413 L 621.0,315.0" style="stroke:#010101; fill:none;"/>
	<path d="M 678.0,316.0 C 661.323,332.331 639.492,339.715 621.651,352.941 C 616.649,356.65 604.497,354.795 605.0,362.0 L 605.0,357.0" style="stroke:#010101; fill:none;"/>
	<path d="M 306.0,321.0 L 310.0,325.0 C 305.794,326.67 304.302,324.55 302.0,321.0 L 315.0,317.0" style="stroke:#010101; fill:none;"/>
	<path d="M 393.0,327.0 C 374.81,327.0 346.952,331.573 331.0,321.0 L 346.0,317.0" style="stroke:#010101; fill:none;"/>
	<path d="M 410.0,318.0 L 414.0,318.0" style="stroke:#010101; fill:none;"/>
	<path d="M 370.0,337.0 C 398.783,337.0 427.396,328.319 454.0,318.0" style="stroke:#010101; fill:none;"/>
	<path d="M 315.0,319.0 L 314.0,324.0 L 331.0,321.0" style="stroke:#010101; fill:none;"/>
	<path d="M 302.0,324.0 L 298.0,322.0 L 302.0,321.0" style="stroke:#010101; fill:none;"/>
	<path d="M 309.0,323.0 L 313.0,321.0" style="stroke:#010101; fill:none;"/>
	<path d="M 242.0,341.0 L 298.0,322.0" style="stroke:#010101; fill:none;"/>
	<path d="M 289.0,326.0 L 294.0,323.0" style="stroke:#010101; fill:none;"/>
	<path d="M 305.0,323.0 L 306.0,323.0" style="stroke:#010101; fill:none;"/>
	<path d="M 688.0,323.0 L 688.0,327.0" style="stroke:#010101; fill:none;"/>
	<path d="M 215.0,325.0 L 221.0,328.0" style="stroke:#010101; fill:none;"/>
	<path d="M 295.0,325.0 L 298.0,325.0" style="stroke:#010101; fill:none;"/>
	<path d="M 310.0,325.0 L 313.0,325.0" style="stroke:#010101; fill:none;"/>
	<path d="M 970.0,326.0 L 983.0,350.0" style="stroke:#010101; fill:none;"/>
	<path d="M 305.0,327.0 L 269.0,340.0" style="stroke:#010101; fill:none;"/>
	<path d="M 577.0,380.0 C 604.094,374.746 626.176,361.475 649.0,346.456 C 656.966,341.214 664.027,333.451 673.0,330.0" style="stroke:#010101; fill:none;"/>
	<path d="M 412.0,350.0 L 479.0,335.0" style="stroke:#010101; fill:none;"/>
	<path d="M 218.0,337.0 L 237.0,339.0" style="stroke:#010101; fill:none;"/>
	<path d="M 670.0,338.0 C 664.693,343.041 657.342,346.338 650.0,347.0" style="stroke:#010101; fill:none;"/>
	<path d="M 577.0,342.0 L 581.0,341.0" style="stroke:#010101; fill:none;"/>
	<path d="M 641.0,343.0 L 644.0,345.0" style="stroke:#010101; fill:none;"/>
	<path d="M 175.0,395.0 C 184.939,383.632 197.06,375.167 207.996,364.91 C 215.916,357.482 222.477,347.99 233.0,344.0" style="stroke:#010101; fill:none;"/>
	<path d="M 664.0,345.0 C 647.983,364.671 629.231,376.595 609.0,391.0" style="stroke:#010101; fill:none;"/>
	<path d="M 258.0,358.0 L 258.0,360.0 L 286.0,354.131 L 311.0,348.0" style="stroke:#010101; fill:none;"/>
	<path d="M 317.0,349.0 C 301.217,360.139 270.118,364.842 251.0,365.0" style="stroke:#010101; fill:none;"/>
	<path d="M 394.0,352.0 L 410.0,350.0" style="stroke:#010101; fill:none;"/>
	<path d="M 621.0,352.0 L 623.0,350.0" style="stroke:#010101; fill:none;"/>
	<path d="M 986.0,350.0 L 985.0,352.0" style="stroke:#010101; fill:none;"/>
	<path d="M 539.0,351.0 L 540.0,351.0" style="stroke:#010101; fill:none;"/>
	<path d="M 619.0,354.0 L 620.0,351.0" style="stroke:#010101; fill:none;"/>
	<path d="M 617.0,355.0 L 617.0,352.0" style="stroke:#010101; fill:none;"/>
	<path d="M 278.0,355.0 L 281.0,353.0" style="stroke:#010101; fill:none;"/>
	<path d="M 611.0,355.0 L 615.0,353.0" style="stroke:#010101; fill:none;"/>
	<path d="M 272.0,356.0 L 276.0,354.0" style="stroke:#010101; fill:none;"/>
	<path d="M 612.0,354.0 L 614.0,356.0" style="stroke:#010101; fill:none;"/>
	<path d="M 604.0,361.0 L 597.0,360.0 L 604.0,356.0" style="stroke:#010101; fill:none;"/>
	<path d="M 601.0,358.0 L 602.0,360.0" style="stroke:#010101; fill:none;"/>
	<path d="M 610.0,358.0 L 608.0,360.0" style="stroke:#010101; fill:none;"/>
	<path d="M 249.0,359.0 L 251.0,361.0 L 232.0,362.0" style="stroke:#010101; fill:none;"/>
	<path d="M 253.0,360.0 L 256.0,359.0" style="stroke:#010101; fill:none;"/>
	<path d="M 600.0,359.0 L 601.0,361.0" style="stroke:#010101; fill:none;"/>
	<path d="M 234.0,360.0 L 243.0,360.0" style="stroke:#010101; fill:none;"/>
	<path d="M 307.0,375.0 C 314.533,368.453 326.26,365.394 336.0,363.755 C 358.91,359.899 386.602,357.415 409.0,365.0" style="stroke:#010101; fill:none;"/>
	<path d="M 467.0,435.0 C 475.078,431.514 481.515,425.37 489.0,420.879 C 523.267,400.317 558.929,372.964 597.0,360.0" style="stroke:#010101; fill:none;"/>
	<path d="M 967.0,360.0 C 971.275,368.734 971.421,379.462 972.089,389.0 C 973.528,409.525 974.158,429.455 972.17,450.0 C 971.27,459.3 972.063,470.404 966.0,478.0 L 965.0,446.0" style="stroke:#010101; fill:none;"/>
	<path d="M 599.0,362.0 C 581.287,377.901 555.931,388.228 536.0,401.515 C 503.482,423.194 475.338,448.348 447.0,475.0" style="stroke:#010101; fill:none;"/>
	<path d="M 601.0,363.0 L 598.0,365.0" style="stroke:#010101; fill:none;"/>
	<path d="M 332.0,373.0 L 393.0,365.0" style="stroke:#010101; fill:none;"/>
	<path d="M 207.0,367.0 L 222.0,366.0" style="stroke:#010101; fill:none;"/>
	<path d="M 230.0,368.0 L 249.0,366.0" style="stroke:#010101; fill:none;"/>
	<path d="M 395.0,366.0 L 418.0,370.0" style="stroke:#010101; fill:none;"/>
	<path d="M 413.0,366.0 L 414.0,366.0" style="stroke:#010101; fill:none;"/>
	<path d="M 327.0,374.0 L 329.0,374.0" style="stroke:#010101; fill:none;"/>
	<path d="M 225.0,382.0 L 213.0,382.0 L 221.0,376.0" style="stroke:#010101; fill:none;"/>
	<path d="M 178.0,377.0 L 183.0,386.0" style="stroke:#010101; fill:none;"/>
	<path d="M 207.0,377.0 L 214.0,377.0" style="stroke:#010101; fill:none;"/>
	<path d="M 535.0,381.0 L 533.0,383.0 L 537.0,378.0" style="stroke:#010101; fill:none;"/>
	<path d="M 220.0,379.0 L 222.0,379.0" style="stroke:#010101; fill:none;"/>
	<path d="M 535.0,379.0 L 538.0,380.0" style="stroke:#010101; fill:none;"/>
	<path d="M 213.0,382.0 L 207.0,382.0 L 213.0,380.0" style="stroke:#010101; fill:none;"/>
	<path d="M 207.0,383.0 L 202.0,386.0" style="stroke:#010101; fill:none;"/>
	<path d="M 532.0,383.0 C 518.322,393.932 499.321,409.722 483.0,416.0" style="stroke:#010101; fill:none;"/>
	<path d="M 526.0,386.0 L 529.0,384.0" style="stroke:#010101; fill:none;"/>
	<path d="M 185.0,386.0 L 188.0,388.0" style="stroke:#010101; fill:none;"/>
	<path d="M 228.0,396.0 L 207.0,397.0 L 227.0,391.0" style="stroke:#010101; fill:none;"/>
	<path d="M 606.0,392.0 L 604.0,393.0" style="stroke:#010101; fill:none;"/>
	<path d="M 156.0,396.0 C 157.814,402.857 157.918,410.518 164.093,415.118 C 173.5,422.125 176.429,407.125 175.0,401.0" style="stroke:#010101; fill:none;"/>
	<path d="M 229.0,426.0 C 219.017,422.629 210.266,419.315 203.214,410.999 C 197.145,403.843 195.91,395.637 207.0,397.0" style="stroke:#010101; fill:none;"/>
	<path d="M 548.0,414.0 C 519.234,427.43 497.201,452.686 471.0,470.0 C 472.422,461.693 485.757,453.74 492.0,448.421 C 512.436,431.01 536.034,406.502 561.0,396.0" style="stroke:#010101; fill:none;"/>
	<path d="M 955.0,397.0 C 955.116,406.947 959.558,416.872 959.317,427.0 C 959.107,435.812 953.726,446.951 958.0,455.0" style="stroke:#010101; fill:none;"/>
	<path d="M 352.0,401.0 L 361.0,402.0 L 315.0,415.0" style="stroke:#010101; fill:none;"/>
	<path d="M 361.0,402.0 C 385.025,400.969 409.275,398.286 433.0,404.0" style="stroke:#010101; fill:none;"/>
	<path d="M 965.0,403.0 L 960.0,423.0" style="stroke:#010101; fill:none;"/>
	<path d="M 946.0,404.0 L 950.0,416.0 L 954.0,405.0" style="stroke:#010101; fill:none;"/>
	<path d="M 976.0,405.0 L 975.0,414.0" style="stroke:#010101; fill:none;"/>
	<path d="M 178.0,410.0 C 190.531,426.244 204.413,439.059 226.0,440.0" style="stroke:#010101; fill:none;"/>
	<path d="M 160.0,414.0 C 161.074,420.02 164.342,426.036 169.0,430.0" style="stroke:#010101; fill:none;"/>
	<path d="M 950.0,416.0 L 948.005,446.0 L 948.0,460.0 L 947.0,453.0" style="stroke:#010101; fill:none;"/>
	<path d="M 167.0,418.0 L 165.0,424.0" style="stroke:#010101; fill:none;"/>
	<path d="M 548.0,419.0 L 519.0,441.765 L 477.0,475.0 L 480.0,474.0" style="stroke:#010101; fill:none;"/>
	<path d="M 365.0,422.0 C 392.038,425.492 418.624,428.159 446.0,426.961 C 457.986,426.436 475.876,419.037 487.0,422.0" style="stroke:#010101; fill:none;"/>
	<path d="M 362.0,421.0 L 363.0,421.0" style="stroke:#010101; fill:none;"/>
	<path d="M 958.0,422.0 L 951.0,454.0" style="stroke:#010101; fill:none;"/>
	<path d="M 481.0,475.0 C 506.386,458.188 532.994,437.068 561.0,425.0" style="stroke:#010101; fill:none;"/>
	<path d="M 159.0,428.0 C 163.87,438.411 168.472,448.236 176.184,457.0 C 179.729,461.028 188.314,466.075 189.833,471.3 C 191.232,476.112 184.17,479.431 183.578,484.0 C 182.871,489.457 189.549,492.049 190.083,496.996 C 190.548,501.318 184.634,502.85 184.636,506.985 C 184.64,514.448 200.202,514.109 205.0,515.0" style="stroke:#010101; fill:none;"/>
	<path d="M 563.0,429.0 C 539.433,444.886 516.149,461.613 492.0,476.576 C 484.016,481.523 467.52,486.611 465.0,496.0 C 460.071,494.526 455.977,496.832 451.0,497.291 C 441.428,498.173 431.625,498.57 422.0,497.911 C 385.606,495.418 354.535,488.053 323.0,469.0" style="stroke:#010101; fill:none;"/>
	<path d="M 178.0,432.0 L 195.0,466.0" style="stroke:#010101; fill:none;"/>
	<path d="M 195.0,432.0 L 197.0,442.0 L 219.0,464.0" style="stroke:#010101; fill:none;"/>
	<path d="M 431.0,513.0 C 444.165,509.88 456.826,502.532 469.0,496.781 C 490.822,486.472 513.39,475.739 533.0,461.512 C 544.022,453.515 554.135,438.548 566.0,433.0" style="stroke:#010101; fill:none;"/>
	<path d="M 301.0,436.0 L 312.0,434.0" style="stroke:#010101; fill:none;"/>
	<path d="M 202.0,435.0 L 199.0,439.0" style="stroke:#010101; fill:none;"/>
	<path d="M 204.0,436.0 C 205.344,444.711 215.079,450.203 221.0,456.003 C 223.43,458.383 227.085,463.532 230.0,460.0 L 226.0,461.0" style="stroke:#010101; fill:none;"/>
	<path d="M 230.0,460.0 C 237.023,448.76 246.463,449.03 259.0,446.536 C 272.297,443.891 285.883,440.472 299.0,437.0" style="stroke:#010101; fill:none;"/>
	<path d="M 569.0,438.0 C 539.907,473.725 487.039,504.58 442.0,515.0" style="stroke:#010101; fill:none;"/>
	<path d="M 197.0,443.0 L 200.0,444.0" style="stroke:#010101; fill:none;"/>
	<path d="M 214.0,443.0 L 228.0,458.0" style="stroke:#010101; fill:none;"/>
	<path d="M 201.0,445.0 L 202.0,450.0 L 204.0,448.0" style="stroke:#010101; fill:none;"/>
	<path d="M 202.0,450.0 C 205.427,459.039 213.418,467.222 221.0,473.0" style="stroke:#010101; fill:none;"/>
	<path d="M 206.0,451.0 L 204.0,453.0" style="stroke:#010101; fill:none;"/>
	<path d="M 232.0,471.0 C 250.551,470.201 269.083,460.739 285.0,452.0" style="stroke:#010101; fill:none;"/>
	<path d="M 955.0,454.0 L 956.0,456.0" style="stroke:#010101; fill:none;"/>
	<path d="M 436.0,456.0 L 465.0,455.0" style="stroke:#010101; fill:none;"/>
	<path d="M 233.0,477.0 C 252.497,476.987 269.575,466.347 286.0,457.0" style="stroke:#010101; fill:none;"/>
	<path d="M 355.0,457.0 C 365.858,459.579 375.97,464.968 387.0,467.5 C 407.126,472.12 427.466,472.0 448.0,472.0" style="stroke:#010101; fill:none;"/>
	<path d="M 412.0,460.0 C 427.129,464.796 442.532,462.319 458.0,462.0" style="stroke:#010101; fill:none;"/>
	<path d="M 948.0,461.0 L 946.0,473.0" style="stroke:#010101; fill:none;"/>
	<path d="M 218.0,462.0 L 219.0,463.0" style="stroke:#010101; fill:none;"/>
	<path d="M 230.0,464.0 C 225.727,479.206 223.672,502.298 233.0,516.0" style="stroke:#010101; fill:none;"/>
	<path d="M 551.0,464.0 L 529.0,481.0 L 535.0,481.0" style="stroke:#010101; fill:none;"/>
	<path d="M 222.0,466.0 L 228.0,470.0" style="stroke:#010101; fill:none;"/>
	<path d="M 220.0,468.0 L 221.0,469.0" style="stroke:#010101; fill:none;"/>
	<path d="M 470.0,469.0 L 465.0,475.0 C 462.035,470.649 458.85,470.849 454.0,472.0" style="stroke:#010101; fill:none;"/>
	<path d="M 465.0,471.0 L 468.0,471.0" style="stroke:#010101; fill:none;"/>
	<path d="M 482.0,471.0 L 484.0,473.0" style="stroke:#010101; fill:none;"/>
	<path d="M 215.0,473.0 C 208.273,481.994 203.637,495.914 202.0,507.0" style="stroke:#010101; fill:none;"/>
	<path d="M 251.0,475.0 L 263.0,474.0" style="stroke:#010101; fill:none;"/>
	<path d="M 394.0,474.0 L 425.0,480.953 L 432.0,481.0" style="stroke:#010101; fill:none;"/>
	<path d="M 433.0,480.0 C 444.958,480.944 453.834,482.444 464.0,475.0" style="stroke:#010101; fill:none;"/>
	<path d="M 550.0,476.0 C 499.419,509.47 447.343,550.794 383.0,541.572 C 360.28,538.315 340.836,527.675 320.0,519.0" style="stroke:#010101; fill:none;"/>
	<path d="M 393.0,477.0 C 401.612,478.777 412.355,482.531 421.0,480.0" style="stroke:#010101; fill:none;"/>
	<path d="M 434.0,491.0 L 428.0,488.0 L 449.0,493.0 L 477.0,476.0" style="stroke:#010101; fill:none;"/>
	<path d="M 461.0,478.0 L 468.0,479.0" style="stroke:#010101; fill:none;"/>
	<path d="M 966.0,478.0 C 965.556,499.394 957.792,523.932 950.691,544.0 C 947.714,552.415 944.892,562.2 939.0,569.0 L 946.0,572.0" style="stroke:#010101; fill:none;"/>
	<path d="M 423.0,479.0 L 430.0,480.0" style="stroke:#010101; fill:none;"/>
	<path d="M 389.0,480.0 L 428.0,488.0" style="stroke:#010101; fill:none;"/>
	<path d="M 230.0,495.0 C 238.424,487.885 248.636,484.263 259.0,481.0" style="stroke:#010101; fill:none;"/>
	<path d="M 526.0,485.0 L 524.0,485.0 L 529.0,481.0" style="stroke:#010101; fill:none;"/>
	<path d="M 386.0,482.0 C 392.074,483.711 398.231,486.405 404.0,483.0" style="stroke:#010101; fill:none;"/>
	<path d="M 218.0,483.0 L 212.0,509.0" style="stroke:#010101; fill:none;"/>
	<path d="M 976.0,483.0 C 972.933,521.533 954.684,562.277 937.0,596.0" style="stroke:#010101; fill:none;"/>
	<path d="M 236.0,484.0 L 243.0,484.0" style="stroke:#010101; fill:none;"/>
	<path d="M 525.0,484.0 L 506.0,496.0 C 509.358,496.688 510.379,496.02 512.0,493.0" style="stroke:#010101; fill:none;"/>
	<path d="M 527.0,485.0 L 530.0,483.0" style="stroke:#010101; fill:none;"/>
	<path d="M 379.0,485.0 C 390.125,489.062 409.447,493.176 421.0,490.0 L 419.0,488.0" style="stroke:#010101; fill:none;"/>
	<path d="M 521.0,487.0 L 524.0,485.0" style="stroke:#010101; fill:none;"/>
	<path d="M 403.0,486.0 L 416.0,487.0" style="stroke:#010101; fill:none;"/>
	<path d="M 954.0,486.0 L 954.0,491.0" style="stroke:#010101; fill:none;"/>
	<path d="M 518.0,489.0 L 521.0,487.0" style="stroke:#010101; fill:none;"/>
	<path d="M 425.0,488.0 L 425.0,490.0 L 421.0,490.0" style="stroke:#010101; fill:none;"/>
	<path d="M 446.0,491.0 L 451.0,490.0" style="stroke:#010101; fill:none;"/>
	<path d="M 464.0,488.0 L 467.0,488.0" style="stroke:#010101; fill:none;"/>
	<path d="M 425.0,490.0 L 433.0,491.0" style="stroke:#010101; fill:none;"/>
	<path d="M 459.0,490.0 L 465.0,492.0" style="stroke:#010101; fill:none;"/>
	<path d="M 513.0,491.0 L 515.0,490.0" style="stroke:#010101; fill:none;"/>
	<path d="M 449.0,493.0 L 448.0,496.0" style="stroke:#010101; fill:none;"/>
	<path d="M 948.0,493.0 L 949.0,511.0 C 945.082,510.997 940.263,509.573 939.0,514.0 L 942.0,514.0" style="stroke:#010101; fill:none;"/>
	<path d="M 514.0,494.0 L 513.0,495.0" style="stroke:#010101; fill:none;"/>
	<path d="M 942.0,494.0 C 938.503,498.61 938.655,501.516 945.0,502.0" style="stroke:#010101; fill:none;"/>
	<path d="M 239.0,498.0 C 264.727,497.469 295.351,489.395 320.0,500.0 C 312.797,504.871 294.155,500.383 287.0,496.0" style="stroke:#010101; fill:none;"/>
	<path d="M 434.0,525.0 L 506.0,496.0" style="stroke:#010101; fill:none;"/>
	<path d="M 507.0,498.0 C 488.17,512.358 465.211,520.961 444.0,531.0" style="stroke:#010101; fill:none;"/>
	<path d="M 415.0,565.0 C 426.924,564.48 438.593,557.606 449.0,552.258 C 477.919,537.396 500.779,516.453 527.0,498.0" style="stroke:#010101; fill:none;"/>
	<path d="M 933.0,498.0 L 938.0,498.0" style="stroke:#010101; fill:none;"/>
	<path d="M 447.0,499.0 L 434.0,504.0" style="stroke:#010101; fill:none;"/>
	<path d="M 320.0,500.0 L 330.0,503.0 L 319.0,503.0" style="stroke:#010101; fill:none;"/>
	<path d="M 928.0,502.0 C 932.437,503.64 934.745,504.472 939.0,502.0" style="stroke:#010101; fill:none;"/>
	<path d="M 330.0,504.0 L 332.0,503.0" style="stroke:#010101; fill:none;"/>
	<path d="M 331.0,505.0 L 355.0,511.0" style="stroke:#010101; fill:none;"/>
	<path d="M 934.0,505.0 L 922.0,513.0 L 924.0,508.0" style="stroke:#010101; fill:none;"/>
	<path d="M 255.0,509.0 L 275.0,515.0" style="stroke:#010101; fill:none;"/>
	<path d="M 255.0,511.0 C 251.538,513.661 236.43,525.824 250.0,523.0" style="stroke:#010101; fill:none;"/>
	<path d="M 917.0,512.0 C 917.986,515.716 916.716,516.986 913.0,516.0 L 920.0,511.0" style="stroke:#010101; fill:none;"/>
	<path d="M 938.0,515.0 L 939.0,511.0" style="stroke:#010101; fill:none;"/>
	<path d="M 907.0,525.0 L 905.0,529.0 L 910.0,523.0 C 914.294,525.306 917.723,524.001 922.0,522.0 L 922.0,514.0 L 936.0,512.0" style="stroke:#010101; fill:none;"/>
	<path d="M 950.0,512.0 C 949.805,520.289 943.581,547.229 935.0,550.0" style="stroke:#010101; fill:none;"/>
	<path d="M 712.0,515.0 L 717.0,514.0" style="stroke:#010101; fill:none;"/>
	<path d="M 740.0,519.0 L 734.0,530.0 C 740.711,532.837 757.684,542.204 751.0,526.0 L 761.0,523.0 L 736.0,516.0 L 747.0,514.0" style="stroke:#010101; fill:none;"/>
	<path d="M 915.0,514.0 L 919.0,520.0" style="stroke:#010101; fill:none;"/>
	<path d="M 919.0,514.0 L 921.0,516.0" style="stroke:#010101; fill:none;"/>
	<path d="M 277.0,515.0 L 278.0,515.0" style="stroke:#010101; fill:none;"/>
	<path d="M 686.0,518.0 L 682.0,519.0 L 686.0,521.0 L 687.0,517.0 L 689.0,521.0 C 692.746,515.845 704.094,515.666 710.0,516.0" style="stroke:#010101; fill:none;"/>
	<path d="M 733.0,521.0 L 737.0,521.0 L 727.0,517.0 L 735.0,516.0" style="stroke:#010101; fill:none;"/>
	<path d="M 280.0,516.0 L 287.0,519.0" style="stroke:#010101; fill:none;"/>
	<path d="M 690.0,518.0 L 693.0,516.0" style="stroke:#010101; fill:none;"/>
	<path d="M 875.0,561.0 L 877.0,558.0 L 878.0,559.0 L 869.0,564.0 C 869.396,556.77 874.213,552.268 878.729,547.0 C 888.236,535.912 899.827,522.725 913.0,516.0" style="stroke:#010101; fill:none;"/>
	<path d="M 661.0,534.0 L 674.0,531.164 L 693.0,525.0 C 693.917,529.278 715.736,528.876 719.889,526.278 C 723.803,523.829 721.908,518.926 727.0,517.0" style="stroke:#010101; fill:none;"/>
	<path d="M 217.0,546.0 C 215.888,540.684 205.084,518.011 216.0,519.0" style="stroke:#010101; fill:none;"/>
	<path d="M 513.0,518.0 C 493.156,530.189 473.793,543.161 454.0,555.424 C 448.757,558.673 439.978,569.451 435.0,567.0 L 433.0,571.0 L 437.0,570.0" style="stroke:#010101; fill:none;"/>
	<path d="M 694.0,524.0 C 702.907,521.619 711.648,517.341 721.0,519.0" style="stroke:#010101; fill:none;"/>
	<path d="M 916.0,518.0 L 910.0,523.0" style="stroke:#010101; fill:none;"/>
	<path d="M 923.0,522.0 L 931.0,518.0" style="stroke:#010101; fill:none;"/>
	<path d="M 677.0,526.0 C 679.265,523.513 680.73,523.615 679.0,520.0 L 680.0,519.0 L 681.0,519.0 L 682.0,519.0" style="stroke:#010101; fill:none;"/>
	<path d="M 728.0,519.0 L 723.0,521.0" style="stroke:#010101; fill:none;"/>
	<path d="M 759.0,519.0 L 772.0,527.0 L 775.0,522.0 L 801.0,533.0 L 790.0,537.0 L 789.0,543.0 C 784.15,538.673 773.67,533.527 767.0,533.367 C 762.742,533.264 760.315,535.502 756.0,534.0 L 758.0,530.0 L 754.0,529.0" style="stroke:#010101; fill:none;"/>
	<path d="M 666.0,528.0 C 663.384,528.027 663.446,527.568 664.0,525.0 L 669.0,530.0 L 668.0,524.0 L 669.0,523.0 L 674.0,528.0 L 676.0,521.0 L 677.0,520.0 L 678.0,520.0 L 679.0,520.0" style="stroke:#010101; fill:none;"/>
	<path d="M 750.0,520.0 L 754.0,520.0" style="stroke:#010101; fill:none;"/>
	<path d="M 769.0,521.0 L 774.0,521.0" style="stroke:#010101; fill:none;"/>
	<path d="M 919.0,520.0 L 917.0,522.0" style="stroke:#010101; fill:none;"/>
	<path d="M 196.0,521.0 C 199.189,533.94 204.056,543.946 215.0,552.0 L 215.0,559.0 L 216.0,559.0 L 217.0,560.0 L 218.0,561.0" style="stroke:#010101; fill:none;"/>
	<path d="M 753.0,521.0 L 755.0,523.0" style="stroke:#010101; fill:none;"/>
	<path d="M 757.0,521.0 L 757.0,523.0" style="stroke:#010101; fill:none;"/>
	<path d="M 670.0,523.0 L 673.0,522.0" style="stroke:#010101; fill:none;"/>
	<path d="M 680.0,522.0 L 678.0,524.0" style="stroke:#010101; fill:none;"/>
	<path d="M 741.0,522.0 L 745.0,524.0 L 741.0,522.0" style="stroke:#010101; fill:none;"/>
	<path d="M 761.0,522.0 L 765.0,522.0" style="stroke:#010101; fill:none;"/>
	<path d="M 254.0,523.0 C 247.931,542.145 254.998,564.323 255.0,584.0" style="stroke:#010101; fill:none;"/>
	<path d="M 764.0,523.0 L 768.0,524.0" style="stroke:#010101; fill:none;"/>
	<path d="M 665.0,525.0 L 668.0,524.0" style="stroke:#010101; fill:none;"/>
	<path d="M 745.0,524.0 L 750.0,525.0" style="stroke:#010101; fill:none;"/>
	<path d="M 763.0,524.0 L 760.0,525.0" style="stroke:#010101; fill:none;"/>
	<path d="M 772.0,524.0 L 773.0,525.0" style="stroke:#010101; fill:none;"/>
	<path d="M 673.0,526.0 L 675.0,525.0" style="stroke:#010101; fill:none;"/>
	<path d="M 744.0,525.0 L 749.0,525.0" style="stroke:#010101; fill:none;"/>
	<path d="M 755.0,527.0 L 759.0,525.0" style="stroke:#010101; fill:none;"/>
	<path d="M 762.0,525.0 L 766.0,525.0" style="stroke:#010101; fill:none;"/>
	<path d="M 769.0,525.0 L 770.0,525.0" style="stroke:#010101; fill:none;"/>
	<path d="M 671.0,526.0 L 672.0,526.0" style="stroke:#010101; fill:none;"/>
	<path d="M 748.0,526.0 L 750.0,528.0" style="stroke:#010101; fill:none;"/>
	<path d="M 777.0,529.0 L 773.0,531.0 C 778.094,524.223 783.69,528.511 788.0,534.0 L 790.0,532.0 L 787.0,530.0" style="stroke:#010101; fill:none;"/>
	<path d="M 662.0,531.0 L 660.0,527.0 L 629.0,543.0" style="stroke:#010101; fill:none;"/>
	<path d="M 747.0,527.0 L 742.0,532.0" style="stroke:#010101; fill:none;"/>
	<path d="M 757.0,527.0 L 761.0,527.0" style="stroke:#010101; fill:none;"/>
	<path d="M 765.0,527.0 L 764.0,533.0" style="stroke:#010101; fill:none;"/>
	<path d="M 765.0,527.0 L 772.0,532.0" style="stroke:#010101; fill:none;"/>
	<path d="M 773.0,527.0 L 770.0,529.0" style="stroke:#010101; fill:none;"/>
	<path d="M 779.0,527.0 L 777.0,529.0" style="stroke:#010101; fill:none;"/>
	<path d="M 668.0,528.0 L 668.0,529.0" style="stroke:#010101; fill:none;"/>
	<path d="M 722.0,528.0 L 734.0,530.0" style="stroke:#010101; fill:none;"/>
	<path d="M 781.0,528.0 L 778.0,537.0" style="stroke:#010101; fill:none;"/>
	<path d="M 677.0,534.0 L 692.0,529.0" style="stroke:#010101; fill:none;"/>
	<path d="M 750.0,529.0 L 745.0,532.0" style="stroke:#010101; fill:none;"/>
	<path d="M 760.0,529.0 L 762.0,531.0 L 758.0,535.0" style="stroke:#010101; fill:none;"/>
	<path d="M 764.0,529.0 L 767.0,530.0" style="stroke:#010101; fill:none;"/>
	<path d="M 897.0,529.0 C 899.414,534.065 886.845,542.333 882.0,544.0" style="stroke:#010101; fill:none;"/>
	<path d="M 901.0,532.0 L 904.0,530.0" style="stroke:#010101; fill:none;"/>
	<path d="M 659.0,531.0 L 660.0,531.0" style="stroke:#010101; fill:none;"/>
	<path d="M 769.0,531.0 L 769.0,533.0" style="stroke:#010101; fill:none;"/>
	<path d="M 782.0,531.0 L 784.0,531.0" style="stroke:#010101; fill:none;"/>
	<path d="M 427.0,536.0 L 441.0,532.0" style="stroke:#010101; fill:none;"/>
	<path d="M 772.0,532.0 L 772.0,534.0" style="stroke:#010101; fill:none;"/>
	<path d="M 791.0,532.0 L 790.0,535.0" style="stroke:#010101; fill:none;"/>
	<path d="M 749.0,533.0 L 751.0,533.0" style="stroke:#010101; fill:none;"/>
	<path d="M 775.0,536.0 L 778.0,533.0" style="stroke:#010101; fill:none;"/>
	<path d="M 793.0,533.0 L 794.0,534.0" style="stroke:#010101; fill:none;"/>
	<path d="M 802.0,533.0 C 807.938,536.506 809.774,539.084 817.0,539.0" style="stroke:#010101; fill:none;"/>
	<path d="M 807.0,533.0 L 809.0,533.0" style="stroke:#010101; fill:none;"/>
	<path d="M 752.0,534.0 L 756.0,534.0" style="stroke:#010101; fill:none;"/>
	<path d="M 780.0,534.0 L 788.0,534.0 L 789.0,534.0" style="stroke:#010101; fill:none;"/>
	<path d="M 767.0,535.0 L 762.0,536.0" style="stroke:#010101; fill:none;"/>
	<path d="M 782.0,535.0 L 780.0,537.0" style="stroke:#010101; fill:none;"/>
	<path d="M 750.0,538.0 L 760.0,543.0" style="stroke:#010101; fill:none;"/>
	<path d="M 767.0,538.0 L 776.0,541.0 L 769.0,540.0" style="stroke:#010101; fill:none;"/>
	<path d="M 787.0,538.0 L 789.0,539.0" style="stroke:#010101; fill:none;"/>
	<path d="M 492.0,539.0 L 443.0,567.0" style="stroke:#010101; fill:none;"/>
	<path d="M 789.0,539.0 L 787.0,541.0" style="stroke:#010101; fill:none;"/>
	<path d="M 806.0,539.0 L 798.0,544.0 C 796.272,537.707 804.129,541.234 808.0,539.0" style="stroke:#010101; fill:none;"/>
	<path d="M 792.0,540.0 L 796.0,542.0" style="stroke:#010101; fill:none;"/>
	<path d="M 776.0,541.0 C 779.99,542.238 785.915,547.095 789.0,543.0" style="stroke:#010101; fill:none;"/>
	<path d="M 776.0,544.0 L 781.0,544.0" style="stroke:#010101; fill:none;"/>
	<path d="M 798.0,545.0 L 818.0,545.0" style="stroke:#010101; fill:none;"/>
	<path d="M 799.0,546.0 L 792.0,547.0" style="stroke:#010101; fill:none;"/>
	<path d="M 895.0,551.0 C 900.191,548.767 905.861,546.881 907.0,554.0 L 893.0,551.0 C 892.662,553.952 893.32,554.07 896.0,553.0" style="stroke:#010101; fill:none;"/>
	<path d="M 907.0,549.0 L 916.0,550.0 C 912.209,557.183 922.604,567.622 929.847,563.211 C 931.968,561.92 933.483,557.549 929.847,557.176 C 926.754,556.859 923.999,560.137 922.0,562.0" style="stroke:#010101; fill:none;"/>
	<path d="M 208.0,549.0 L 212.0,556.0" style="stroke:#010101; fill:none;"/>
	<path d="M 916.0,550.0 L 926.0,551.0 L 917.0,559.0" style="stroke:#010101; fill:none;"/>
	<path d="M 208.0,550.0 C 197.625,560.595 183.827,579.263 180.85,594.17 C 179.655,600.152 184.131,608.257 185.629,614.0 C 190.576,632.973 198.867,662.541 215.0,675.0 C 217.769,668.438 217.456,660.907 219.427,654.0 C 222.605,642.866 227.994,634.96 235.0,626.0 L 227.0,626.0" style="stroke:#010101; fill:none;"/>
	<path d="M 926.0,551.0 L 928.0,551.0" style="stroke:#010101; fill:none;"/>
	<path d="M 425.0,587.0 C 442.625,573.552 463.894,559.199 485.0,552.0" style="stroke:#010101; fill:none;"/>
	<path d="M 879.0,558.0 L 892.0,552.0" style="stroke:#010101; fill:none;"/>
	<path d="M 881.0,557.0 L 888.0,553.0" style="stroke:#010101; fill:none;"/>
	<path d="M 492.0,554.0 L 462.0,576.0 C 459.561,575.156 449.491,578.165 451.0,581.0" style="stroke:#010101; fill:none;"/>
	<path d="M 889.0,555.0 L 891.0,555.0" style="stroke:#010101; fill:none;"/>
	<path d="M 908.0,555.0 L 913.0,555.0" style="stroke:#010101; fill:none;"/>
	<path d="M 895.0,556.0 C 895.218,566.623 894.631,572.634 886.0,580.0" style="stroke:#010101; fill:none;"/>
	<path d="M 491.0,557.0 L 489.0,559.0" style="stroke:#010101; fill:none;"/>
	<path d="M 215.0,559.0 L 207.0,596.0" style="stroke:#010101; fill:none;"/>
	<path d="M 934.0,561.0 L 944.0,559.0" style="stroke:#010101; fill:none;"/>
	<path d="M 755.0,578.0 C 746.842,569.241 738.949,568.522 727.911,567.159 C 722.139,566.446 717.516,569.915 713.0,565.0 C 729.311,558.846 751.76,558.29 764.0,572.0" style="stroke:#010101; fill:none;"/>
	<path d="M 917.0,561.0 L 914.0,585.0 L 909.0,582.0 L 921.412,579.763 L 929.0,565.0 L 939.0,569.0" style="stroke:#010101; fill:none;"/>
	<path d="M 877.0,562.0 L 883.0,565.0 C 879.178,573.099 871.822,573.099 868.0,565.0" style="stroke:#010101; fill:none;"/>
	<path d="M 218.0,565.0 L 212.0,596.0" style="stroke:#010101; fill:none;"/>
	<path d="M 221.0,565.0 C 220.325,573.547 213.965,588.027 222.0,594.0 L 212.0,606.0" style="stroke:#010101; fill:none;"/>
	<path d="M 440.0,568.0 L 440.0,565.0" style="stroke:#010101; fill:none;"/>
	<path d="M 714.0,569.0 L 709.0,569.0 L 713.0,565.0" style="stroke:#010101; fill:none;"/>
	<path d="M 436.0,566.0 L 438.0,566.0" style="stroke:#010101; fill:none;"/>
	<path d="M 704.0,569.0 C 702.751,571.228 702.013,569.988 701.0,568.0 L 709.0,566.0" style="stroke:#010101; fill:none;"/>
	<path d="M 732.0,566.0 L 737.0,568.0" style="stroke:#010101; fill:none;"/>
	<path d="M 697.0,576.0 L 692.0,575.0 L 699.0,573.0 L 698.0,568.0 L 699.0,568.0 L 700.0,568.0 L 701.0,568.0" style="stroke:#010101; fill:none;"/>
	<path d="M 489.0,569.0 C 480.365,575.96 466.185,589.19 455.0,590.0 L 455.0,591.0 L 456.0,592.0" style="stroke:#010101; fill:none;"/>
	<path d="M 660.0,583.0 L 697.0,569.0" style="stroke:#010101; fill:none;"/>
	<path d="M 868.0,569.0 C 863.422,605.223 873.503,643.188 882.92,678.0 C 888.966,700.35 902.234,715.842 883.381,736.83 C 868.93,752.918 846.919,752.702 828.0,760.0" style="stroke:#010101; fill:none;"/>
	<path d="M 705.0,570.0 L 708.0,570.0" style="stroke:#010101; fill:none;"/>
	<path d="M 716.0,570.0 C 720.223,576.72 721.398,582.419 719.0,590.0" style="stroke:#010101; fill:none;"/>
	<path d="M 939.0,571.0 L 931.0,588.0" style="stroke:#010101; fill:none;"/>
	<path d="M 268.0,582.0 C 273.147,567.185 299.065,571.521 311.0,573.615 C 353.523,581.077 391.038,594.651 432.0,572.0" style="stroke:#010101; fill:none;"/>
	<path d="M 699.0,573.0 C 701.384,573.229 702.625,573.61 704.579,575.094 C 717.712,585.065 696.758,589.053 695.0,578.0" style="stroke:#010101; fill:none;"/>
	<path d="M 224.0,573.0 L 220.0,592.0" style="stroke:#010101; fill:none;"/>
	<path d="M 461.0,574.0 L 464.0,573.0" style="stroke:#010101; fill:none;"/>
	<path d="M 748.0,573.0 C 753.49,586.519 747.743,592.967 733.0,594.859 C 715.99,597.042 701.662,592.596 685.0,590.762 C 680.345,590.249 674.332,586.171 670.0,586.724 C 664.869,587.378 659.748,593.476 655.0,595.676 C 648.52,598.678 640.979,598.118 634.0,599.0" style="stroke:#010101; fill:none;"/>
	<path d="M 461.0,575.0 L 457.0,578.0" style="stroke:#010101; fill:none;"/>
	<path d="M 672.0,585.0 L 692.0,575.0" style="stroke:#010101; fill:none;"/>
	<path d="M 375.0,594.0 C 396.022,601.662 416.837,585.48 435.0,577.0" style="stroke:#010101; fill:none;"/>
	<path d="M 264.0,580.0 C 254.877,591.956 246.803,607.92 231.0,612.0 L 233.0,608.0" style="stroke:#010101; fill:none;"/>
	<path d="M 454.0,580.0 L 452.0,582.0" style="stroke:#010101; fill:none;"/>
	<path d="M 753.0,580.0 C 755.836,582.243 762.618,585.367 763.458,589.1 C 765.432,597.867 748.579,593.212 745.0,592.0" style="stroke:#010101; fill:none;"/>
	<path d="M 226.0,581.0 L 221.0,593.0" style="stroke:#010101; fill:none;"/>
	<path d="M 450.0,583.0 L 449.0,581.0" style="stroke:#010101; fill:none;"/>
	<path d="M 448.0,584.0 L 447.0,582.0" style="stroke:#010101; fill:none;"/>
	<path d="M 482.0,582.0 C 458.936,609.105 430.336,609.613 398.0,611.13 C 370.68,612.413 345.556,613.398 319.0,605.0 C 312.458,631.179 346.176,647.369 354.0,667.0" style="stroke:#010101; fill:none;"/>
	<path d="M 871.0,582.0 L 909.0,582.0" style="stroke:#010101; fill:none;"/>
	<path d="M 916.0,583.0 L 913.0,584.0" style="stroke:#010101; fill:none;"/>
	<path d="M 923.0,582.0 C 925.791,603.972 933.398,624.966 935.871,647.0 C 939.523,679.534 928.182,720.184 911.688,748.0 C 903.764,761.362 890.496,771.568 880.17,783.0 C 865.107,799.676 848.29,823.19 839.688,844.0 C 824.507,880.723 850.124,923.206 810.0,950.301 C 772.699,975.49 727.065,957.827 687.0,957.0 C 682.874,980.222 669.309,1003.01 663.011,1026.0 C 661.688,1030.83 661.395,1047.44 656.683,1049.67 C 650.722,1052.49 634.921,1044.85 629.0,1042.79 C 603.168,1033.78 571.279,1021.62 550.0,1004.0" style="stroke:#010101; fill:none;"/>
	<path d="M 419.0,597.0 L 445.0,583.0" style="stroke:#010101; fill:none;"/>
	<path d="M 676.0,583.0 L 678.0,589.0" style="stroke:#010101; fill:none;"/>
	<path d="M 906.0,583.0 L 910.0,584.0" style="stroke:#010101; fill:none;"/>
	<path d="M 917.0,583.0 L 918.0,584.0" style="stroke:#010101; fill:none;"/>
	<path d="M 273.0,584.0 C 306.173,592.604 336.122,594.454 370.0,593.0" style="stroke:#010101; fill:none;"/>
	<path d="M 892.0,585.0 L 892.0,587.0" style="stroke:#010101; fill:none;"/>
	<path d="M 902.0,585.0 L 904.0,587.0" style="stroke:#010101; fill:none;"/>
	<path d="M 432.0,593.0 L 446.0,585.0" style="stroke:#010101; fill:none;"/>
	<path d="M 899.0,586.0 L 898.0,587.0" style="stroke:#010101; fill:none;"/>
	<path d="M 460.0,589.0 L 461.0,587.0" style="stroke:#010101; fill:none;"/>
	<path d="M 458.0,588.0 L 459.0,588.0" style="stroke:#010101; fill:none;"/>
	<path d="M 454.0,593.0 L 452.0,593.0 L 455.0,590.0" style="stroke:#010101; fill:none;"/>
	<path d="M 491.0,590.0 C 488.322,609.79 467.23,624.587 452.0,635.229 C 445.908,639.486 437.809,642.368 434.0,649.0 C 420.418,647.46 407.201,662.301 393.0,661.485 C 382.404,660.877 381.149,647.302 375.721,641.059 C 370.85,635.455 365.722,638.38 360.0,635.883 C 353.455,633.028 348.545,624.861 345.0,619.0" style="stroke:#010101; fill:none;"/>
	<path d="M 451.0,594.0 L 452.0,592.0" style="stroke:#010101; fill:none;"/>
	<path d="M 479.0,591.0 C 469.057,605.557 455.656,617.965 442.0,629.0 C 439.36,631.134 428.396,637.743 429.0,641.0" style="stroke:#010101; fill:none;"/>
	<path d="M 681.0,591.0 C 678.45,595.918 673.008,595.79 668.0,597.0" style="stroke:#010101; fill:none;"/>
	<path d="M 374.0,607.0 C 401.067,607.0 425.83,603.668 450.0,592.0" style="stroke:#010101; fill:none;"/>
	<path d="M 217.0,593.0 L 216.0,599.0" style="stroke:#010101; fill:none;"/>
	<path d="M 446.0,594.0 L 450.0,594.0" style="stroke:#010101; fill:none;"/>
	<path d="M 669.0,596.0 L 673.0,594.0" style="stroke:#010101; fill:none;"/>
	<path d="M 441.0,596.0 L 445.0,595.0" style="stroke:#010101; fill:none;"/>
	<path d="M 687.0,595.0 L 684.0,596.0" style="stroke:#010101; fill:none;"/>
	<path d="M 441.0,597.0 L 438.0,598.0" style="stroke:#010101; fill:none;"/>
	<path d="M 696.0,597.0 L 695.0,599.0" style="stroke:#010101; fill:none;"/>
	<path d="M 271.0,598.0 L 320.0,600.0" style="stroke:#010101; fill:none;"/>
	<path d="M 701.0,598.0 L 700.0,599.0" style="stroke:#010101; fill:none;"/>
	<path d="M 727.0,598.0 L 728.0,598.0" style="stroke:#010101; fill:none;"/>
	<path d="M 713.0,601.0 L 714.0,601.0" style="stroke:#010101; fill:none;"/>
	<path d="M 214.0,616.0 L 233.0,602.0" style="stroke:#010101; fill:none;"/>
	<path d="M 494.0,602.0 C 483.142,620.873 456.049,641.937 435.0,648.0" style="stroke:#010101; fill:none;"/>
	<path d="M 303.0,603.0 C 307.176,617.503 314.019,631.65 318.921,646.0 C 322.395,656.169 323.294,667.017 327.464,677.0 C 336.89,699.568 354.552,724.301 372.0,741.0" style="stroke:#010101; fill:none;"/>
	<path d="M 877.0,603.0 C 890.49,609.019 902.445,610.702 917.0,608.0" style="stroke:#010101; fill:none;"/>
	<path d="M 231.0,612.0 L 222.0,619.0" style="stroke:#010101; fill:none;"/>
	<path d="M 396.0,612.0 L 395.529,637.0 L 404.0,658.0" style="stroke:#010101; fill:none;"/>
	<path d="M 466.0,612.0 C 454.314,622.332 444.525,636.087 429.0,641.0" style="stroke:#010101; fill:none;"/>
	<path d="M 707.0,618.0 L 748.0,612.0" style="stroke:#010101; fill:none;"/>
	<path d="M 235.0,626.0 L 253.0,622.0" style="stroke:#010101; fill:none;"/>
	<path d="M 479.0,625.0 L 466.0,652.0" style="stroke:#010101; fill:none;"/>
	<path d="M 677.0,627.0 L 694.0,625.0" style="stroke:#010101; fill:none;"/>
	<path d="M 255.0,628.0 C 252.11,634.948 253.127,641.744 253.917,649.0 C 256.049,668.601 256.348,709.731 280.0,715.972 C 286.993,717.818 294.656,716.456 299.778,710.972 C 301.65,708.967 308.571,701.577 307.0,701.0" style="stroke:#010101; fill:none;"/>
	<path d="M 249.0,631.0 C 244.712,635.325 238.895,640.612 237.933,647.0 C 236.964,653.432 241.386,663.419 242.576,670.0 C 245.559,686.51 247.083,703.346 249.156,720.0 C 249.934,726.252 255.505,738.764 252.544,744.664 C 250.784,748.17 246.086,744.78 244.17,743.235 C 238.037,738.29 233.592,730.584 231.666,723.0 C 225.49,698.684 231.078,674.847 236.0,651.0" style="stroke:#010101; fill:none;"/>
	<path d="M 419.0,645.0 L 427.0,641.0" style="stroke:#010101; fill:none;"/>
	<path d="M 433.0,647.0 L 434.0,647.0" style="stroke:#010101; fill:none;"/>
	<path d="M 432.0,649.0 L 429.0,650.0" style="stroke:#010101; fill:none;"/>
	<path d="M 405.0,659.0 L 400.0,673.0" style="stroke:#010101; fill:none;"/>
	<path d="M 216.0,676.0 C 216.0,699.501 219.232,724.204 233.0,744.0" style="stroke:#010101; fill:none;"/>
	<path d="M 319.0,683.0 L 310.0,700.0" style="stroke:#010101; fill:none;"/>
	<path d="M 313.0,688.0 L 311.0,694.0" style="stroke:#010101; fill:none;"/>
	<path d="M 327.0,691.0 L 322.0,712.0" style="stroke:#010101; fill:none;"/>
	<path d="M 420.0,691.0 L 422.907,707.0 L 422.0,722.0 L 425.0,720.0" style="stroke:#010101; fill:none;"/>
	<path d="M 361.0,732.0 C 356.527,739.645 357.495,746.183 355.4,754.0 C 353.828,759.87 349.507,765.006 347.782,771.0 C 344.198,783.455 343.934,795.293 342.282,808.0 C 341.016,817.735 338.881,840.327 355.995,829.121 C 365.091,823.166 359.046,819.639 358.372,812.0 C 358.095,808.866 360.494,806.164 360.242,803.0 C 359.985,799.763 357.394,797.373 357.673,794.0 C 358.67,781.952 362.439,769.694 368.295,759.089 C 371.368,753.525 375.448,749.652 376.606,743.0 C 378.822,730.279 371.211,714.388 374.319,702.005 C 375.859,695.867 384.382,694.75 388.907,698.333 C 400.902,707.829 389.856,727.607 388.211,740.0 C 387.507,745.3 390.895,749.752 390.5,755.0 C 389.158,772.824 388.607,791.64 386.83,810.0 C 385.954,819.055 378.13,831.101 380.0,839.0 L 374.0,839.0 L 374.0,840.0 L 373.0,841.0" style="stroke:#010101; fill:none;"/>
	<path d="M 308.0,700.0 L 310.0,697.0" style="stroke:#010101; fill:none;"/>
	<path d="M 260.0,698.0 C 260.098,709.85 262.147,728.737 268.0,739.0 L 268.0,715.0 C 271.998,721.779 275.742,731.743 284.0,734.269 C 296.303,738.031 307.393,713.561 306.0,704.0" style="stroke:#010101; fill:none;"/>
	<path d="M 308.0,704.0 L 307.0,705.0" style="stroke:#010101; fill:none;"/>
	<path d="M 336.0,704.0 C 332.207,729.799 324.93,755.354 320.095,781.0 C 310.092,834.056 306.9,897.719 265.715,937.7 C 256.4,946.742 243.086,953.334 232.0,960.0 C 217.769,968.557 204.368,979.251 189.0,985.769 C 159.124,998.44 125.679,1006.01 97.0,1021.0 L 101.0,1024.0 L 103.0,1020.0" style="stroke:#010101; fill:none;"/>
	<path d="M 258.0,708.0 C 258.295,714.851 259.391,724.724 264.0,730.0" style="stroke:#010101; fill:none;"/>
	<path d="M 267.0,708.0 L 268.0,714.0" style="stroke:#010101; fill:none;"/>
	<path d="M 775.0,708.0 C 768.501,720.398 767.825,737.401 781.0,745.0" style="stroke:#010101; fill:none;"/>
	<path d="M 273.0,714.0 C 278.946,728.004 290.695,726.493 298.0,715.0" style="stroke:#010101; fill:none;"/>
	<path d="M 321.0,715.0 C 317.324,726.362 309.787,739.323 299.0,745.167 C 294.037,747.855 279.997,745.348 279.0,750.0" style="stroke:#010101; fill:none;"/>
	<path d="M 429.0,721.0 C 430.811,743.761 441.034,766.141 447.0,788.0" style="stroke:#010101; fill:none;"/>
	<path d="M 420.0,723.0 C 416.214,734.136 402.998,740.512 392.0,742.0" style="stroke:#010101; fill:none;"/>
	<path d="M 263.0,730.0 L 265.0,734.0" style="stroke:#010101; fill:none;"/>
	<path d="M 273.0,732.0 L 278.0,744.0 C 272.504,751.127 276.436,756.855 285.0,758.0" style="stroke:#010101; fill:none;"/>
	<path d="M 260.0,738.0 L 263.0,740.0" style="stroke:#010101; fill:none;"/>
	<path d="M 368.0,738.0 L 362.0,741.0" style="stroke:#010101; fill:none;"/>
	<path d="M 787.0,743.0 C 799.488,746.508 809.597,739.396 822.0,738.329 C 831.196,737.537 841.373,741.242 850.0,744.0" style="stroke:#010101; fill:none;"/>
	<path d="M 276.0,739.0 L 276.0,741.0" style="stroke:#010101; fill:none;"/>
	<path d="M 268.0,740.0 C 270.137,743.624 271.006,745.165 275.0,743.0 L 275.0,743.0" style="stroke:#010101; fill:none;"/>
	<path d="M 274.0,744.0 L 276.0,746.0" style="stroke:#010101; fill:none;"/>
	<path d="M 277.0,745.0 L 279.0,747.0" style="stroke:#010101; fill:none;"/>
	<path d="M 254.0,747.0 C 258.201,759.911 262.208,779.232 280.0,776.698 C 285.373,775.933 290.918,773.867 296.0,772.0" style="stroke:#010101; fill:none;"/>
	<path d="M 271.0,747.0 L 273.0,750.0" style="stroke:#010101; fill:none;"/>
	<path d="M 727.0,748.0 C 715.341,759.659 703.16,768.649 689.0,777.0" style="stroke:#010101; fill:none;"/>
	<path d="M 363.0,749.0 C 361.766,751.886 361.652,753.361 365.0,752.0 L 365.0,752.0" style="stroke:#010101; fill:none;"/>
	<path d="M 361.0,753.0 L 360.0,757.0 L 363.0,754.0" style="stroke:#010101; fill:none;"/>
	<path d="M 356.0,755.0 L 359.0,755.0" style="stroke:#010101; fill:none;"/>
	<path d="M 885.0,756.0 L 884.0,765.0" style="stroke:#010101; fill:none;"/>
	<path d="M 373.0,757.0 C 372.978,765.341 371.53,773.679 371.634,782.0 C 371.686,786.149 374.094,789.787 373.775,794.0 C 373.427,798.579 370.502,802.424 370.109,807.0 C 369.62,812.687 371.802,818.28 370.726,824.0 C 369.342,831.358 367.958,840.951 365.48,848.0 C 363.812,852.745 360.557,856.717 360.488,862.0 C 360.428,866.645 359.494,877.046 361.458,880.999 C 364.972,888.076 373.435,890.053 378.254,882.895 C 381.375,878.26 377.54,873.976 378.254,869.17 C 379.056,863.766 385.475,860.093 384.578,854.0 C 383.71,848.101 378.97,846.553 381.0,840.0" style="stroke:#010101; fill:none;"/>
	<path d="M 378.0,761.0 L 386.0,763.0 L 382.0,764.0" style="stroke:#010101; fill:none;"/>
	<path d="M 317.0,764.0 C 313.095,768.457 310.173,772.312 304.0,773.0" style="stroke:#010101; fill:none;"/>
	<path d="M 380.0,775.0 L 387.0,777.0" style="stroke:#010101; fill:none;"/>
	<path d="M 377.0,779.0 L 380.0,780.0" style="stroke:#010101; fill:none;"/>
	<path d="M 682.0,782.0 L 672.0,804.0" style="stroke:#010101; fill:none;"/>
	<path d="M 826.0,792.0 L 848.0,786.0" style="stroke:#010101; fill:none;"/>
	<path d="M 725.0,801.0 L 811.0,788.0" style="stroke:#010101; fill:none;"/>
	<path d="M 849.0,788.0 L 852.0,789.0" style="stroke:#010101; fill:none;"/>
	<path d="M 814.0,790.0 L 821.0,792.0" style="stroke:#010101; fill:none;"/>
	<path d="M 353.0,797.0 L 349.0,811.0" style="stroke:#010101; fill:none;"/>
	<path d="M 701.0,803.0 C 716.658,805.909 732.01,812.001 748.0,812.907 C 762.394,813.722 777.548,809.766 792.0,809.304 C 810.613,808.709 830.877,809.993 848.0,802.0" style="stroke:#010101; fill:none;"/>
	<path d="M 355.0,805.0 L 354.0,808.0" style="stroke:#010101; fill:none;"/>
	<path d="M 378.0,805.0 L 377.0,810.0" style="stroke:#010101; fill:none;"/>
	<path d="M 851.0,807.0 L 845.0,828.0" style="stroke:#010101; fill:none;"/>
	<path d="M 676.0,810.0 L 676.0,816.0" style="stroke:#010101; fill:none;"/>
	<path d="M 353.0,814.0 L 357.0,812.0" style="stroke:#010101; fill:none;"/>
	<path d="M 449.0,812.0 C 487.785,873.843 544.311,917.602 608.0,951.0" style="stroke:#010101; fill:none;"/>
	<path d="M 374.0,813.0 L 377.0,816.0" style="stroke:#010101; fill:none;"/>
	<path d="M 353.0,821.0 L 354.0,821.0" style="stroke:#010101; fill:none;"/>
	<path d="M 434.0,824.0 C 460.849,851.414 483.246,885.367 516.0,906.0 L 513.0,905.0" style="stroke:#010101; fill:none;"/>
	<path d="M 731.0,825.0 C 753.114,837.312 775.908,851.828 802.0,852.961 C 809.751,853.297 818.656,851.122 826.0,848.638 C 830.621,847.076 834.114,843.54 839.0,845.0" style="stroke:#010101; fill:none;"/>
	<path d="M 383.0,831.0 L 381.0,840.0" style="stroke:#010101; fill:none;"/>
	<path d="M 377.0,836.0 L 378.0,833.0" style="stroke:#010101; fill:none;"/>
	<path d="M 379.0,836.0 L 382.0,834.0" style="stroke:#010101; fill:none;"/>
	<path d="M 832.0,853.0 L 838.0,848.0" style="stroke:#010101; fill:none;"/>
	<path d="M 376.0,855.0 L 377.0,860.0" style="stroke:#010101; fill:none;"/>
	<path d="M 370.0,856.0 L 373.0,860.0" style="stroke:#010101; fill:none;"/>
	<path d="M 697.0,863.0 L 707.0,872.0" style="stroke:#010101; fill:none;"/>
	<path d="M 435.0,871.0 C 442.352,880.234 453.471,885.938 462.0,894.039 C 493.944,924.378 527.462,950.581 564.0,975.0 L 561.0,974.0" style="stroke:#010101; fill:none;"/>
	<path d="M 380.0,872.0 C 412.16,881.325 438.719,913.107 465.0,932.65 C 487.531,949.405 512.754,960.179 528.0,985.0" style="stroke:#010101; fill:none;"/>
	<path d="M 510.0,897.0 L 513.0,902.0" style="stroke:#010101; fill:none;"/>
	<path d="M 538.0,901.0 L 602.0,931.0" style="stroke:#010101; fill:none;"/>
	<path d="M 516.0,907.0 C 523.548,914.548 531.706,930.898 541.667,935.0 C 543.151,935.611 539.819,930.785 541.0,933.0" style="stroke:#010101; fill:none;"/>
	<path d="M 521.0,907.0 L 543.0,933.0 L 541.0,933.0" style="stroke:#010101; fill:none;"/>
	<path d="M 535.0,917.0 L 543.0,930.0" style="stroke:#010101; fill:none;"/>
	<path d="M 545.0,922.0 L 562.0,944.0" style="stroke:#010101; fill:none;"/>
	<path d="M 551.0,922.0 L 562.0,934.0" style="stroke:#010101; fill:none;"/>
	<path d="M 527.0,928.0 L 561.0,971.0" style="stroke:#010101; fill:none;"/>
	<path d="M 581.0,928.0 L 588.0,937.0" style="stroke:#010101; fill:none;"/>
	<path d="M 604.0,928.0 L 632.0,940.0 L 612.0,960.0" style="stroke:#010101; fill:none;"/>
	<path d="M 544.0,932.0 L 560.0,950.0" style="stroke:#010101; fill:none;"/>
	<path d="M 543.0,935.0 L 551.0,943.0" style="stroke:#010101; fill:none;"/>
	<path d="M 579.0,936.0 L 584.0,944.0" style="stroke:#010101; fill:none;"/>
	<path d="M 632.0,940.0 L 666.0,950.573 L 687.0,957.0" style="stroke:#010101; fill:none;"/>
	<path d="M 333.0,941.0 L 330.0,944.0" style="stroke:#010101; fill:none;"/>
	<path d="M 267.0,950.0 L 259.0,968.0" style="stroke:#010101; fill:none;"/>
	<path d="M 551.0,950.0 L 592.0,1013.0" style="stroke:#010101; fill:none;"/>
	<path d="M 610.0,966.0 L 611.0,984.0" style="stroke:#010101; fill:none;"/>
	<path d="M 258.0,971.0 L 239.0,1026.0" style="stroke:#010101; fill:none;"/>
	<path d="M 564.0,976.0 L 574.0,987.0" style="stroke:#010101; fill:none;"/>
	<path d="M 298.0,999.0 L 297.0,1000.0" style="stroke:#010101; fill:none;"/>
	<path d="M 1.0,1180.0 C 11.183,1158.51 23.4209,1136.61 30.8958,1114.0 C 33.204,1107.02 31.9529,1099.14 33.76,1092.0 C 37.4862,1077.27 46.3455,1064.72 55.6659,1053.0 C 64.6058,1041.76 81.9234,1022.82 97.0,1021.0" style="stroke:#010101; fill:none;"/>
	<path d="M 101.0,1024.0 L 91.0,1034.0" style="stroke:#010101; fill:none;"/>
	<path d="M 246.0,1033.0 L 244.0,1054.0" style="stroke:#010101; fill:none;"/>
	<path d="M 658.0,1050.0 C 665.093,1054.36 674.102,1055.81 682.0,1058.34 C 699.267,1063.88 716.781,1068.91 734.0,1074.52 C 765.371,1084.74 798.665,1091.88 829.0,1104.87 C 851.373,1114.45 872.132,1128.38 892.0,1142.28 C 907.776,1153.32 931.61,1165.97 941.138,1183.0 C 958.608,1214.23 960.526,1253.12 962.039,1288.0 C 963.288,1316.78 958.411,1345.97 952.0,1374.0" style="stroke:#010101; fill:none;"/>
	<path d="M 185.0,1144.0 L 186.0,1144.0" style="stroke:#010101; fill:none;"/>
	<path d="M 93.0,1177.0 L 92.0,1196.0" style="stroke:#010101; fill:none;"/>
	<path d="M 91.0,1199.0 L 91.0,1204.0" style="stroke:#010101; fill:none;"/>
	<path d="M 90.0,1207.0 L 90.0,1213.0" style="stroke:#010101; fill:none;"/>
	<path d="M 212.0,1209.0 L 212.0,1213.0" style="stroke:#010101; fill:none;"/>
	<path d="M 89.0,1215.0 L 84.0,1260.0" style="stroke:#010101; fill:none;"/>
	<path d="M 237.0,1231.0 C 237.0,1270.23 244.549,1310.58 252.0,1349.0" style="stroke:#010101; fill:none;"/>
	<path d="M 83.0,1262.0 L 81.0,1276.0" style="stroke:#010101; fill:none;"/>
	<path d="M 80.0,1278.0 L 76.0,1303.0" style="stroke:#010101; fill:none;"/>
	<path d="M 75.0,1305.0 L 74.0,1311.0" style="stroke:#010101; fill:none;"/>
	<path d="M 73.0,1313.0 L 69.0,1333.0" style="stroke:#010101; fill:none;"/>
	<path d="M 178.0,1313.0 C 172.618,1322.56 171.851,1335.21 171.0,1346.0" style="stroke:#010101; fill:none;"/>
	<path d="M 170.0,1348.0 L 170.0,1352.0" style="stroke:#010101; fill:none;"/>
	<path d="M 258.0,1365.0 L 262.0,1374.0" style="stroke:#010101; fill:none;"/>
</svg>
