<?xml version="1.0" ?>
<svg baseProfile="full" height="1828" version="1.1" width="1353" xmlns="http://www.w3.org/2000/svg" xmlns:ev="http://www.w3.org/2001/xml-events" xmlns:xlink="http://www.w3.org/1999/xlink">
	<defs/>
	<path d="M 885.0,1.0 L 869.0,11.0 C 881.074,15.5217 894.773,15.6254 907.0,20.0541 C 917.333,23.797 926.479,32.1843 937.0,34.483 C 954.455,38.2966 973.115,36.2704 990.0,43.3341 C 1009.29,51.4025 1021.95,61.7535 1037.14,75.2539 C 1045.66,82.8197 1055.74,88.803 1063.56,97.1698 C 1070.18,104.255 1075.14,113.114 1082.09,119.826 C 1091.55,128.95 1105.1,133.264 1115.0,142.171 C 1130.79,156.378 1138.57,173.128 1149.0,191.0" style="stroke:#010101; fill:none;"/>
	<path d="M 220.0,167.0 C 226.518,143.168 246.508,123.205 264.0,106.911 C 286.175,86.2542 309.021,73.7308 335.999,60.6729 C 344.263,56.6732 349.812,50.6797 359.0,47.7462 C 369.811,44.2946 382.649,47.3574 392.871,44.2269 C 398.546,42.4889 403.524,35.9258 410.0,33.696 C 423.448,29.0654 438.245,28.4915 452.0,25.1003 C 459.418,23.2715 464.687,17.2949 472.0,14.6921 C 492.248,7.48584 516.504,3.01428 538.0,3.0" style="stroke:#010101; fill:none;"/>
	<path d="M 842.0,9.0 L 868.0,12.0" style="stroke:#010101; fill:none;"/>
	<path d="M 851.0,35.0 L 854.0,36.0" style="stroke:#010101; fill:none;"/>
	<path d="M 856.0,37.0 L 859.0,37.0" style="stroke:#010101; fill:none;"/>
	<path d="M 861.0,38.0 L 867.0,39.0" style="stroke:#010101; fill:none;"/>
	<path d="M 789.0,40.0 L 844.0,42.0" style="stroke:#010101; fill:none;"/>
	<path d="M 869.0,40.0 L 873.0,41.0" style="stroke:#010101; fill:none;"/>
	<path d="M 875.0,42.0 L 888.0,45.0" style="stroke:#010101; fill:none;"/>
	<path d="M 395.0,44.0 L 399.0,46.0" style="stroke:#010101; fill:none;"/>
	<path d="M 409.0,155.0 C 455.18,104.828 503.713,64.4154 571.0,47.0" style="stroke:#010101; fill:none;"/>
	<path d="M 597.0,61.0 C 618.38,53.028 643.252,49.9656 666.0,51.0757 C 678.717,51.6962 691.285,54.7378 704.0,55.0" style="stroke:#010101; fill:none;"/>
	<path d="M 342.0,57.0 C 352.181,60.333 368.219,53.8508 379.0,53.0" style="stroke:#010101; fill:none;"/>
	<path d="M 702.0,66.0 L 762.0,56.0895 L 809.0,61.0" style="stroke:#010101; fill:none;"/>
	<path d="M 451.0,213.0 C 481.687,167.474 518.6,128.269 564.0,96.9745 C 580.634,85.5085 598.86,72.21 619.0,68.0" style="stroke:#010101; fill:none;"/>
	<path d="M 216.0,224.0 C 229.156,177.639 256.556,127.427 293.0,95.2855 C 304.828,84.8541 321.688,68.1448 339.0,70.0" style="stroke:#010101; fill:none;"/>
	<path d="M 808.0,74.0 L 831.0,74.0" style="stroke:#010101; fill:none;"/>
	<path d="M 501.0,108.0 C 516.029,87.7262 538.704,80.7399 562.0,74.0" style="stroke:#010101; fill:none;"/>
	<path d="M 856.0,78.0 C 884.187,74.4374 917.582,80.5651 940.0,99.0" style="stroke:#010101; fill:none;"/>
	<path d="M 873.0,81.0 L 874.0,81.0" style="stroke:#010101; fill:none;"/>
	<path d="M 813.0,83.0 L 841.0,85.0" style="stroke:#010101; fill:none;"/>
	<path d="M 876.0,82.0 L 923.0,95.0" style="stroke:#010101; fill:none;"/>
	<path d="M 807.0,87.0 C 821.504,88.1448 835.764,88.0239 849.0,95.0" style="stroke:#010101; fill:none;"/>
	<path d="M 640.0,100.0 C 644.219,92.5831 653.251,91.5139 661.0,90.0007 C 681.238,86.0486 701.647,89.0 722.0,89.0" style="stroke:#010101; fill:none;"/>
	<path d="M 795.0,88.0 L 804.0,88.0" style="stroke:#010101; fill:none;"/>
	<path d="M 887.0,94.0 L 896.0,95.0" style="stroke:#010101; fill:none;"/>
	<path d="M 745.0,105.0 C 780.783,89.5846 829.318,88.3107 863.0,109.0" style="stroke:#010101; fill:none;"/>
	<path d="M 900.0,96.0 L 925.0,100.0" style="stroke:#010101; fill:none;"/>
	<path d="M 926.0,96.0 L 927.0,96.0" style="stroke:#010101; fill:none;"/>
	<path d="M 328.0,144.0 C 351.082,117.327 376.919,97.0247 414.0,97.0" style="stroke:#010101; fill:none;"/>
	<path d="M 887.0,98.0 L 902.0,100.0" style="stroke:#010101; fill:none;"/>
	<path d="M 864.0,99.0 C 873.265,100.363 886.907,101.858 894.0,108.0 C 900.888,102.317 908.817,106.406 917.0,106.0" style="stroke:#010101; fill:none;"/>
	<path d="M 675.0,102.0 C 690.765,101.323 708.605,99.4387 724.0,104.0" style="stroke:#010101; fill:none;"/>
	<path d="M 904.0,101.0 L 920.0,103.0" style="stroke:#010101; fill:none;"/>
	<path d="M 891.0,105.0 L 896.0,105.0" style="stroke:#010101; fill:none;"/>
	<path d="M 198.0,301.0 C 195.888,285.392 188.754,270.836 187.171,255.0 C 183.788,221.17 189.542,187.501 198.859,155.0 C 203.642,138.314 209.152,114.547 224.0,104.0" style="stroke:#010101; fill:none;"/>
	<path d="M 741.0,106.0 L 742.0,106.0" style="stroke:#010101; fill:none;"/>
	<path d="M 896.0,107.0 L 921.0,115.0" style="stroke:#010101; fill:none;"/>
	<path d="M 785.0,109.0 L 810.0,118.0" style="stroke:#010101; fill:none;"/>
	<path d="M 238.0,111.0 C 224.824,122.033 216.731,150.245 216.0,167.0" style="stroke:#010101; fill:none;"/>
	<path d="M 798.0,129.0 C 791.544,124.663 784.565,121.575 777.0,119.665 C 774.437,119.018 769.462,118.787 768.346,115.819 C 766.804,111.721 775.36,113.315 777.0,113.615 C 785.95,115.253 795.072,119.114 802.0,125.0" style="stroke:#010101; fill:none;"/>
	<path d="M 888.0,114.0 L 919.0,122.0" style="stroke:#010101; fill:none;"/>
	<path d="M 980.0,115.0 L 1013.0,129.0" style="stroke:#010101; fill:none;"/>
	<path d="M 730.0,117.0 L 766.0,118.0" style="stroke:#010101; fill:none;"/>
	<path d="M 880.0,119.0 L 885.0,120.0" style="stroke:#010101; fill:none;"/>
	<path d="M 940.0,120.0 L 941.0,120.0" style="stroke:#010101; fill:none;"/>
	<path d="M 887.0,121.0 L 907.0,124.0" style="stroke:#010101; fill:none;"/>
	<path d="M 875.0,122.0 L 904.0,129.0" style="stroke:#010101; fill:none;"/>
	<path d="M 944.0,122.0 L 955.0,126.0" style="stroke:#010101; fill:none;"/>
	<path d="M 1088.0,125.0 L 1093.0,136.0" style="stroke:#010101; fill:none;"/>
	<path d="M 498.0,210.0 C 521.615,182.884 545.593,160.157 577.0,142.128 C 591.314,133.911 606.091,126.011 623.0,126.0" style="stroke:#010101; fill:none;"/>
	<path d="M 958.0,127.0 L 961.0,127.0" style="stroke:#010101; fill:none;"/>
	<path d="M 964.0,129.0 L 970.0,131.0" style="stroke:#010101; fill:none;"/>
	<path d="M 1016.0,131.0 L 1020.0,133.0" style="stroke:#010101; fill:none;"/>
	<path d="M 972.0,132.0 L 985.0,137.0" style="stroke:#010101; fill:none;"/>
	<path d="M 1023.0,134.0 L 1054.0,157.0" style="stroke:#010101; fill:none;"/>
	<path d="M 401.0,196.0 C 428.103,168.897 458.581,148.871 495.0,137.0" style="stroke:#010101; fill:none;"/>
	<path d="M 940.0,138.0 L 949.0,139.0" style="stroke:#010101; fill:none;"/>
	<path d="M 951.0,140.0 L 981.0,148.0" style="stroke:#010101; fill:none;"/>
	<path d="M 925.0,144.0 L 929.0,144.0" style="stroke:#010101; fill:none;"/>
	<path d="M 299.0,179.0 C 309.466,166.399 318.297,151.777 334.0,145.0" style="stroke:#010101; fill:none;"/>
	<path d="M 931.0,145.0 L 959.0,149.0" style="stroke:#010101; fill:none;"/>
	<path d="M 911.0,148.0 L 943.0,152.0" style="stroke:#010101; fill:none;"/>
	<path d="M 962.0,150.0 L 963.0,150.0" style="stroke:#010101; fill:none;"/>
	<path d="M 398.0,180.0 C 406.116,168.712 414.908,158.452 428.0,153.0" style="stroke:#010101; fill:none;"/>
	<path d="M 873.0,163.0 C 887.295,154.338 902.771,154.0 919.0,154.0" style="stroke:#010101; fill:none;"/>
	<path d="M 921.0,155.0 L 934.0,157.0" style="stroke:#010101; fill:none;"/>
	<path d="M 506.0,158.0 L 459.0,209.0" style="stroke:#010101; fill:none;"/>
	<path d="M 462.0,495.0 C 475.726,487.819 480.41,467.852 483.873,454.0 C 493.666,414.829 483.034,374.679 501.861,337.0 C 516.391,307.921 539.295,283.714 563.0,261.914 C 616.47,212.743 684.899,174.26 756.0,158.0" style="stroke:#010101; fill:none;"/>
	<path d="M 1024.0,159.0 L 1032.0,163.0" style="stroke:#010101; fill:none;"/>
	<path d="M 1057.0,159.0 L 1075.0,175.0" style="stroke:#010101; fill:none;"/>
	<path d="M 303.0,162.0 L 304.0,162.0" style="stroke:#010101; fill:none;"/>
	<path d="M 300.0,163.0 L 301.0,163.0" style="stroke:#010101; fill:none;"/>
	<path d="M 256.0,201.0 C 268.11,187.095 280.51,172.32 298.0,165.0" style="stroke:#010101; fill:none;"/>
	<path d="M 870.0,165.0 L 870.0,166.0" style="stroke:#010101; fill:none;"/>
	<path d="M 941.0,165.0 C 974.116,173.159 1018.91,182.064 1040.0,212.0" style="stroke:#010101; fill:none;"/>
	<path d="M 1035.0,165.0 L 1082.0,197.0" style="stroke:#010101; fill:none;"/>
	<path d="M 540.0,179.0 L 550.0,172.0" style="stroke:#010101; fill:none;"/>
	<path d="M 841.0,189.0 L 892.0,176.0" style="stroke:#010101; fill:none;"/>
	<path d="M 417.0,202.0 C 426.21,192.816 437.163,182.54 450.0,179.0" style="stroke:#010101; fill:none;"/>
	<path d="M 510.0,205.0 L 538.0,181.0" style="stroke:#010101; fill:none;"/>
	<path d="M 545.0,194.0 L 517.0,215.0 C 526.169,216.991 543.434,203.391 552.0,199.259 C 572.605,189.317 596.982,182.015 620.0,182.0" style="stroke:#010101; fill:none;"/>
	<path d="M 622.0,182.0 L 628.0,183.0" style="stroke:#010101; fill:none;"/>
	<path d="M 837.0,200.0 C 846.194,196.4 860.162,191.642 869.0,198.0 C 873.949,192.452 881.083,192.826 888.0,191.576 C 899.03,189.583 910.501,186.914 921.0,183.0" style="stroke:#010101; fill:none;"/>
	<path d="M 542.0,184.0 L 516.0,206.0" style="stroke:#010101; fill:none;"/>
	<path d="M 974.0,185.0 C 978.98,186.935 994.424,191.953 995.0,197.0 L 992.0,195.0" style="stroke:#010101; fill:none;"/>
	<path d="M 353.0,205.0 C 363.045,196.232 375.09,186.712 389.0,186.0" style="stroke:#010101; fill:none;"/>
	<path d="M 484.0,186.0 L 456.0,220.0" style="stroke:#010101; fill:none;"/>
	<path d="M 58.0,187.0 C 60.1184,236.34 97.9095,261.304 141.0,275.255 C 151.48,278.648 162.28,281.191 173.0,283.651 C 177.477,284.679 184.272,285.705 187.397,289.418 C 192.128,295.039 189.705,306.593 188.339,313.0 C 183.594,335.244 173.583,351.17 160.0,369.0" style="stroke:#010101; fill:none;"/>
	<path d="M 84.0,192.0 C 91.4359,195.796 96.25,202.167 102.004,208.0 C 117.37,223.577 131.004,240.751 134.0,263.0" style="stroke:#010101; fill:none;"/>
	<path d="M 526.0,365.0 C 535.726,352.253 543.975,338.475 554.17,326.0 C 583.138,290.552 617.389,258.085 654.0,230.627 C 672.799,216.528 693.525,200.604 716.0,193.0" style="stroke:#010101; fill:none;"/>
	<path d="M 867.0,195.0 L 870.0,194.0" style="stroke:#010101; fill:none;"/>
	<path d="M 997.0,194.0 L 1020.0,206.0" style="stroke:#010101; fill:none;"/>
	<path d="M 1143.0,194.0 C 1156.01,209.973 1170.62,225.135 1177.66,245.0 C 1180.15,252.034 1184.42,260.104 1180.0,267.0 L 1171.0,251.0" style="stroke:#010101; fill:none;"/>
	<path d="M 833.0,196.0 L 840.0,196.0" style="stroke:#010101; fill:none;"/>
	<path d="M 867.0,197.0 C 859.504,202.01 846.951,203.61 838.0,204.0" style="stroke:#010101; fill:none;"/>
	<path d="M 995.0,197.0 L 1018.0,213.0" style="stroke:#010101; fill:none;"/>
	<path d="M 1084.0,199.0 L 1085.0,200.0" style="stroke:#010101; fill:none;"/>
	<path d="M 880.0,200.0 L 868.0,204.0 L 873.0,200.0" style="stroke:#010101; fill:none;"/>
	<path d="M 840.0,220.0 L 833.0,219.0 C 837.842,214.278 844.362,221.375 851.0,218.586 C 871.02,210.174 892.533,208.021 914.0,205.03 C 926.003,203.358 937.863,200.47 950.0,200.0" style="stroke:#010101; fill:none;"/>
	<path d="M 478.0,202.0 L 462.0,221.0" style="stroke:#010101; fill:none;"/>
	<path d="M 839.0,216.0 L 867.0,208.0 L 865.0,202.0 L 866.0,202.0 L 867.0,202.0 L 868.0,202.0" style="stroke:#010101; fill:none;"/>
	<path d="M 864.0,205.0 L 859.0,206.0 L 864.0,203.0" style="stroke:#010101; fill:none;"/>
	<path d="M 987.0,203.0 C 1005.06,208.162 1020.72,220.606 1036.0,231.0" style="stroke:#010101; fill:none;"/>
	<path d="M 360.0,467.0 C 367.981,439.08 392.992,414.774 413.0,395.004 C 418.224,389.842 426.755,385.597 430.915,379.737 C 436.075,372.468 439.06,362.099 442.883,354.0 C 448.767,341.535 455.862,329.454 463.515,318.0 C 487.772,281.695 521.122,252.91 557.0,228.495 C 569.382,220.07 582.212,209.949 596.0,204.0" style="stroke:#010101; fill:none;"/>
	<path d="M 853.0,205.0 L 859.0,206.0 L 842.0,207.0" style="stroke:#010101; fill:none;"/>
	<path d="M 868.0,204.0 L 866.0,206.0" style="stroke:#010101; fill:none;"/>
	<path d="M 114.0,205.0 C 125.896,222.397 145.146,231.998 166.0,232.0" style="stroke:#010101; fill:none;"/>
	<path d="M 854.0,219.0 C 884.162,228.411 911.112,211.842 940.0,205.0" style="stroke:#010101; fill:none;"/>
	<path d="M 867.0,208.0 L 875.0,206.0" style="stroke:#010101; fill:none;"/>
	<path d="M 514.0,208.0 L 505.0,216.0" style="stroke:#010101; fill:none;"/>
	<path d="M 852.0,208.0 L 834.0,212.0" style="stroke:#010101; fill:none;"/>
	<path d="M 278.0,257.0 C 308.564,234.779 343.003,219.787 380.0,212.4 C 393.02,209.8 411.044,206.17 424.0,210.0" style="stroke:#010101; fill:none;"/>
	<path d="M 864.0,217.0 L 869.0,217.0" style="stroke:#010101; fill:none;"/>
	<path d="M 356.0,268.0 L 390.0,251.309 L 444.0,232.475 L 478.0,227.001 L 498.0,228.817 L 518.0,217.0" style="stroke:#010101; fill:none;"/>
	<path d="M 502.0,219.0 L 499.0,221.0" style="stroke:#010101; fill:none;"/>
	<path d="M 522.0,222.0 L 529.0,219.0" style="stroke:#010101; fill:none;"/>
	<path d="M 894.0,241.0 C 879.539,232.562 862.531,228.848 846.0,227.169 C 839.461,226.505 830.654,227.863 829.0,220.0 L 832.0,220.0" style="stroke:#010101; fill:none;"/>
	<path d="M 612.0,290.0 C 618.144,276.935 638.23,267.391 650.0,259.82 C 686.606,236.273 730.835,224.03 774.0,221.089 C 787.754,220.153 801.804,224.876 815.0,224.438 C 819.193,224.299 823.672,221.614 828.0,221.0" style="stroke:#010101; fill:none;"/>
	<path d="M 825.0,222.0 L 829.0,226.0" style="stroke:#010101; fill:none;"/>
	<path d="M 828.0,223.0 L 828.0,225.0" style="stroke:#010101; fill:none;"/>
	<path d="M 908.0,254.0 C 918.179,246.605 929.97,241.657 941.0,235.691 C 947.149,232.365 953.27,227.152 960.0,225.146 C 980.162,219.136 1007.19,224.646 1025.0,235.0" style="stroke:#010101; fill:none;"/>
	<path d="M 519.0,224.0 C 489.932,239.243 462.334,257.77 439.0,281.001 C 429.663,290.296 418.766,299.926 415.0,313.0" style="stroke:#010101; fill:none;"/>
	<path d="M 818.0,224.0 L 824.0,226.0" style="stroke:#010101; fill:none;"/>
	<path d="M 514.0,285.0 L 512.0,284.0 C 521.13,282.613 528.774,272.51 536.0,267.155 C 555.699,252.557 575.139,234.517 598.0,225.0" style="stroke:#010101; fill:none;"/>
	<path d="M 812.0,225.0 L 789.0,232.0" style="stroke:#010101; fill:none;"/>
	<path d="M 227.0,347.0 C 249.544,315.644 283.817,293.262 315.0,271.411 C 330.693,260.414 347.744,246.328 366.0,240.0" style="stroke:#010101; fill:none;"/>
	<path d="M 798.0,247.0 C 788.039,242.797 775.39,247.204 765.0,248.391 C 757.568,249.239 751.215,244.701 743.0,246.042 C 728.363,248.433 711.554,257.331 697.0,257.0 C 699.37,252.836 703.646,251.774 708.0,250.218 C 717.509,246.819 731.901,239.818 742.0,242.0" style="stroke:#010101; fill:none;"/>
	<path d="M 607.0,242.0 C 574.008,264.26 542.408,295.059 520.0,328.0" style="stroke:#010101; fill:none;"/>
	<path d="M 354.0,297.0 C 372.339,283.817 389.883,270.049 409.0,257.947 C 418.29,252.066 428.758,244.988 440.0,244.0" style="stroke:#010101; fill:none;"/>
	<path d="M 840.0,246.0 C 851.848,246.033 862.881,251.046 873.0,256.872 C 877.081,259.221 881.357,264.03 886.0,264.961 C 897.558,267.279 911.574,256.018 921.0,251.0" style="stroke:#010101; fill:none;"/>
	<path d="M 354.0,313.0 C 379.412,287.588 407.067,264.819 439.0,248.0" style="stroke:#010101; fill:none;"/>
	<path d="M 759.0,248.0 L 719.0,256.2 L 700.0,259.0" style="stroke:#010101; fill:none;"/>
	<path d="M 968.0,250.0 C 997.829,250.003 1031.58,256.471 1056.0,274.417 C 1069.54,284.37 1079.16,296.466 1090.0,309.0" style="stroke:#010101; fill:none;"/>
	<path d="M 828.0,254.0 C 842.211,251.479 856.922,258.362 867.0,268.0" style="stroke:#010101; fill:none;"/>
	<path d="M 1155.0,253.0 L 1165.0,262.0" style="stroke:#010101; fill:none;"/>
	<path d="M 652.0,290.0 C 678.83,275.696 708.477,266.124 738.0,259.349 C 757.116,254.962 778.459,251.372 798.0,255.0" style="stroke:#010101; fill:none;"/>
	<path d="M 665.0,270.0 C 672.944,268.333 679.252,264.669 685.0,259.0 C 690.107,263.043 692.511,257.391 697.0,255.0" style="stroke:#010101; fill:none;"/>
	<path d="M 891.0,270.0 L 946.0,255.0" style="stroke:#010101; fill:none;"/>
	<path d="M 690.0,259.0 L 694.0,256.0" style="stroke:#010101; fill:none;"/>
	<path d="M 1139.0,256.0 C 1151.21,256.811 1162.09,268.833 1169.0,278.0" style="stroke:#010101; fill:none;"/>
	<path d="M 697.0,257.0 L 695.0,259.0" style="stroke:#010101; fill:none;"/>
	<path d="M 184.0,384.0 C 198.879,326.638 243.387,276.905 301.0,258.0" style="stroke:#010101; fill:none;"/>
	<path d="M 686.0,259.0 L 689.0,257.0" style="stroke:#010101; fill:none;"/>
	<path d="M 1112.0,258.0 C 1143.09,266.046 1165.0,280.801 1180.0,310.0" style="stroke:#010101; fill:none;"/>
	<path d="M 695.0,259.0 L 695.0,261.0 L 699.0,261.0" style="stroke:#010101; fill:none;"/>
	<path d="M 676.0,265.0 L 680.0,262.0" style="stroke:#010101; fill:none;"/>
	<path d="M 691.0,262.0 L 694.0,262.0" style="stroke:#010101; fill:none;"/>
	<path d="M 533.0,263.0 L 513.0,282.0" style="stroke:#010101; fill:none;"/>
	<path d="M 588.0,263.0 L 552.714,297.0 L 541.0,313.0 L 543.0,308.0" style="stroke:#010101; fill:none;"/>
	<path d="M 683.0,263.0 L 686.0,263.0" style="stroke:#010101; fill:none;"/>
	<path d="M 787.0,269.0 L 783.0,268.0 C 802.44,263.123 827.185,260.707 845.0,272.0" style="stroke:#010101; fill:none;"/>
	<path d="M 603.0,266.0 L 546.0,310.0" style="stroke:#010101; fill:none;"/>
	<path d="M 1184.0,266.0 L 1180.0,268.0" style="stroke:#010101; fill:none;"/>
	<path d="M 1183.0,267.0 C 1191.7,287.159 1205.09,305.298 1212.81,326.0 C 1215.79,333.982 1220.47,343.406 1218.0,352.0 L 1215.0,348.0" style="stroke:#010101; fill:none;"/>
	<path d="M 765.0,275.0 L 783.0,268.0" style="stroke:#010101; fill:none;"/>
	<path d="M 988.0,269.0 C 987.594,288.695 981.549,311.86 965.0,324.076 C 958.837,328.625 941.09,331.559 938.0,337.0 L 940.0,340.0" style="stroke:#010101; fill:none;"/>
	<path d="M 1181.0,270.0 L 1184.0,271.0" style="stroke:#010101; fill:none;"/>
	<path d="M 308.0,327.0 C 326.012,305.884 346.409,284.704 371.0,271.0" style="stroke:#010101; fill:none;"/>
	<path d="M 745.0,292.0 L 767.892,282.201 L 784.0,271.0" style="stroke:#010101; fill:none;"/>
	<path d="M 803.0,278.0 C 796.338,277.669 787.093,282.14 782.0,277.0 L 796.0,272.0" style="stroke:#010101; fill:none;"/>
	<path d="M 31.0,275.0 C 32.1395,301.137 43.1652,332.247 59.0,353.0 C 67.006,344.229 78.9692,323.778 93.0,333.0" style="stroke:#010101; fill:none;"/>
	<path d="M 765.0,279.0 L 770.0,278.0" style="stroke:#010101; fill:none;"/>
	<path d="M 771.0,282.0 L 781.0,277.0" style="stroke:#010101; fill:none;"/>
	<path d="M 332.0,350.0 C 352.622,322.181 384.496,297.846 414.0,280.0" style="stroke:#010101; fill:none;"/>
	<path d="M 773.0,280.0 L 774.0,281.0" style="stroke:#010101; fill:none;"/>
	<path d="M 778.0,281.0 L 783.0,280.0" style="stroke:#010101; fill:none;"/>
	<path d="M 658.0,291.0 L 673.0,285.0" style="stroke:#010101; fill:none;"/>
	<path d="M 512.0,286.0 C 495.314,302.686 471.53,319.913 462.0,342.0" style="stroke:#010101; fill:none;"/>
	<path d="M 65.0,287.0 C 71.8221,325.271 128.147,335.979 160.0,336.0" style="stroke:#010101; fill:none;"/>
	<path d="M 347.0,383.0 C 352.075,369.765 362.266,357.226 370.769,346.0 C 386.356,325.42 403.21,302.413 425.0,288.0" style="stroke:#010101; fill:none;"/>
	<path d="M 720.0,310.0 C 755.797,291.734 795.8,287.042 835.0,292.0" style="stroke:#010101; fill:none;"/>
	<path d="M 863.0,289.0 L 868.0,290.0 L 847.0,294.0" style="stroke:#010101; fill:none;"/>
	<path d="M 449.0,527.0 L 458.0,532.0 C 446.562,539.008 432.427,534.86 422.0,527.805 C 404.406,515.899 387.286,494.504 394.0,472.0 C 402.321,482.573 400.024,496.896 413.039,505.756 C 433.074,519.395 452.629,503.27 470.0,493.964 C 483.189,486.9 492.868,483.943 502.764,471.0 C 516.693,452.781 519.917,430.673 530.475,411.0 C 549.184,376.143 577.523,346.377 608.0,321.611 C 621.344,310.767 637.419,298.247 654.0,293.0" style="stroke:#010101; fill:none;"/>
	<path d="M 838.0,298.0 C 851.716,303.579 866.644,298.008 881.0,298.0" style="stroke:#010101; fill:none;"/>
	<path d="M 593.0,299.0 C 559.608,329.757 531.854,361.882 509.0,401.0" style="stroke:#010101; fill:none;"/>
	<path d="M 863.0,300.0 C 876.301,306.934 897.289,302.141 912.0,304.0" style="stroke:#010101; fill:none;"/>
	<path d="M 870.0,300.0 L 870.0,301.0" style="stroke:#010101; fill:none;"/>
	<path d="M 847.0,301.0 C 854.493,308.339 866.174,318.322 876.0,308.0 L 859.0,307.0" style="stroke:#010101; fill:none;"/>
	<path d="M 1003.0,301.0 C 1002.29,309.696 999.697,318.743 996.924,327.0 C 995.94,329.93 992.673,335.574 994.237,338.643 C 996.327,342.744 1009.41,338.15 1013.0,337.59 C 1033.84,334.342 1051.0,338.372 1071.0,343.0" style="stroke:#010101; fill:none;"/>
	<path d="M 86.0,302.0 C 106.588,319.546 127.26,309.401 150.0,304.0" style="stroke:#010101; fill:none;"/>
	<path d="M 876.0,309.0 L 915.0,309.0" style="stroke:#010101; fill:none;"/>
	<path d="M 542.0,309.0 L 544.0,309.0" style="stroke:#010101; fill:none;"/>
	<path d="M 485.0,312.0 L 489.0,310.0" style="stroke:#010101; fill:none;"/>
	<path d="M 897.0,310.0 L 920.0,320.198 L 937.0,334.0" style="stroke:#010101; fill:none;"/>
	<path d="M 520.0,490.0 C 524.23,474.542 533.595,459.317 540.753,445.0 C 554.241,418.024 568.898,390.85 590.039,369.004 C 616.244,341.925 654.634,323.062 690.0,311.0" style="stroke:#010101; fill:none;"/>
	<path d="M 263.0,435.0 C 267.863,402.535 287.975,373.166 306.445,347.0 C 314.52,335.561 323.492,321.174 335.0,313.0" style="stroke:#010101; fill:none;"/>
	<path d="M 487.0,313.0 L 444.0,377.0" style="stroke:#010101; fill:none;"/>
	<path d="M 540.0,313.0 L 521.0,331.0" style="stroke:#010101; fill:none;"/>
	<path d="M 403.0,368.0 C 415.739,347.189 432.456,327.59 453.0,314.0" style="stroke:#010101; fill:none;"/>
	<path d="M 484.0,314.0 L 486.0,316.0" style="stroke:#010101; fill:none;"/>
	<path d="M 726.0,317.0 L 691.0,334.427 L 635.0,374.0 L 638.0,374.0" style="stroke:#010101; fill:none;"/>
	<path d="M 747.0,319.0 C 768.343,316.185 786.081,320.862 807.0,322.671 C 820.327,323.824 832.034,321.718 845.0,327.0" style="stroke:#010101; fill:none;"/>
	<path d="M 192.0,380.0 C 198.331,358.125 212.678,331.781 232.0,319.0" style="stroke:#010101; fill:none;"/>
	<path d="M 705.0,341.0 C 726.928,315.105 769.002,322.047 797.0,331.0" style="stroke:#010101; fill:none;"/>
	<path d="M 811.0,323.0 L 829.0,333.0" style="stroke:#010101; fill:none;"/>
	<path d="M 877.0,323.0 L 878.0,324.0" style="stroke:#010101; fill:none;"/>
	<path d="M 890.0,325.0 L 909.667,342.0 L 909.0,340.0" style="stroke:#010101; fill:none;"/>
	<path d="M 267.0,326.0 C 242.233,353.506 233.91,386.864 243.0,422.0" style="stroke:#010101; fill:none;"/>
	<path d="M 501.0,326.0 L 463.0,375.0" style="stroke:#010101; fill:none;"/>
	<path d="M 859.0,326.0 L 887.0,338.866 L 894.0,346.0" style="stroke:#010101; fill:none;"/>
	<path d="M 880.0,326.0 L 916.0,354.0" style="stroke:#010101; fill:none;"/>
	<path d="M 495.0,378.0 C 508.725,359.321 524.468,339.92 544.0,327.0" style="stroke:#010101; fill:none;"/>
	<path d="M 494.0,329.0 L 496.0,330.0" style="stroke:#010101; fill:none;"/>
	<path d="M 1068.0,329.0 C 1082.45,347.963 1106.95,371.232 1129.0,381.0" style="stroke:#010101; fill:none;"/>
	<path d="M 905.0,331.0 L 921.0,342.0" style="stroke:#010101; fill:none;"/>
	<path d="M 1170.0,331.0 C 1197.61,359.846 1225.55,396.884 1241.0,434.0" style="stroke:#010101; fill:none;"/>
	<path d="M 289.0,332.0 C 283.158,340.66 278.13,349.585 272.81,358.429 C 260.666,378.619 238.249,404.09 255.0,428.0 C 260.344,418.662 265.157,404.585 262.0,394.0 L 253.0,418.0" style="stroke:#010101; fill:none;"/>
	<path d="M 481.0,332.0 C 468.266,345.003 456.831,361.57 449.0,378.0" style="stroke:#010101; fill:none;"/>
	<path d="M 460.0,372.0 C 469.844,358.45 477.993,341.894 492.0,332.0" style="stroke:#010101; fill:none;"/>
	<path d="M 752.0,335.0 L 725.0,346.478 L 711.0,352.0 L 742.0,332.0" style="stroke:#010101; fill:none;"/>
	<path d="M 349.0,387.0 C 360.103,367.977 371.075,345.519 390.0,333.0" style="stroke:#010101; fill:none;"/>
	<path d="M 328.0,335.0 C 308.489,355.388 283.309,388.232 279.0,417.0" style="stroke:#010101; fill:none;"/>
	<path d="M 714.0,338.0 L 713.0,343.0 L 724.0,336.0" style="stroke:#010101; fill:none;"/>
	<path d="M 498.0,337.0 C 485.802,349.455 473.757,364.314 466.0,380.0" style="stroke:#010101; fill:none;"/>
	<path d="M 318.0,338.0 C 301.917,357.952 288.24,379.988 277.0,403.0" style="stroke:#010101; fill:none;"/>
	<path d="M 287.0,406.0 C 299.326,389.034 308.837,370.143 322.439,354.0 C 326.506,349.174 333.31,339.55 340.0,340.0" style="stroke:#010101; fill:none;"/>
	<path d="M 540.0,339.0 C 523.563,350.226 511.253,365.562 499.0,381.0" style="stroke:#010101; fill:none;"/>
	<path d="M 746.0,339.0 L 768.0,339.76 L 785.0,346.387 L 819.0,341.17 L 866.0,343.0" style="stroke:#010101; fill:none;"/>
	<path d="M 992.0,340.0 C 979.636,361.325 958.692,370.879 934.0,365.0" style="stroke:#010101; fill:none;"/>
	<path d="M 712.0,343.0 L 700.0,350.0 L 711.0,341.0" style="stroke:#010101; fill:none;"/>
	<path d="M 344.0,342.0 C 322.401,364.054 298.792,393.743 288.0,423.0" style="stroke:#010101; fill:none;"/>
	<path d="M 912.0,342.0 L 920.0,347.0" style="stroke:#010101; fill:none;"/>
	<path d="M 303.0,343.0 C 288.914,362.819 273.83,384.401 267.0,408.0" style="stroke:#010101; fill:none;"/>
	<path d="M 393.0,344.0 C 377.693,362.04 363.073,379.532 351.0,400.0" style="stroke:#010101; fill:none;"/>
	<path d="M 910.0,344.0 L 916.0,350.0" style="stroke:#010101; fill:none;"/>
	<path d="M 902.0,345.0 L 905.0,346.0" style="stroke:#010101; fill:none;"/>
	<path d="M 568.0,421.0 C 581.783,392.026 612.033,362.793 639.0,346.0" style="stroke:#010101; fill:none;"/>
	<path d="M 781.0,346.0 C 771.403,351.88 757.657,352.696 747.0,356.811 C 722.502,366.27 701.041,379.818 683.0,399.0" style="stroke:#010101; fill:none;"/>
	<path d="M 897.0,346.0 L 903.0,352.0" style="stroke:#010101; fill:none;"/>
	<path d="M 895.0,347.0 L 910.0,377.0" style="stroke:#010101; fill:none;"/>
	<path d="M 904.0,348.0 L 912.0,358.0" style="stroke:#010101; fill:none;"/>
	<path d="M 699.0,349.0 C 695.078,352.183 688.539,355.474 690.0,361.0 L 698.0,351.0" style="stroke:#010101; fill:none;"/>
	<path d="M 1016.0,363.0 C 1032.3,353.023 1050.09,347.099 1069.0,351.0" style="stroke:#010101; fill:none;"/>
	<path d="M 9.0,350.0 C 9.0,374.932 22.9819,402.133 45.0,415.0" style="stroke:#010101; fill:none;"/>
	<path d="M 702.0,351.0 L 700.0,353.0" style="stroke:#010101; fill:none;"/>
	<path d="M 231.0,352.0 C 222.106,371.104 218.504,396.718 231.0,415.0" style="stroke:#010101; fill:none;"/>
	<path d="M 702.0,358.0 L 711.0,352.0" style="stroke:#010101; fill:none;"/>
	<path d="M 59.0,353.0 C 62.1533,363.62 72.9537,372.438 82.0,378.0" style="stroke:#010101; fill:none;"/>
	<path d="M 551.0,353.0 C 537.996,364.76 527.953,378.583 518.119,393.0 C 514.585,398.18 508.039,405.568 510.0,412.0 L 547.0,366.0" style="stroke:#010101; fill:none;"/>
	<path d="M 1154.0,353.0 C 1193.91,371.55 1234.0,406.419 1234.0,454.0" style="stroke:#010101; fill:none;"/>
	<path d="M 1218.0,353.0 C 1231.61,373.638 1243.88,400.684 1248.96,425.0 C 1249.67,428.373 1247.24,430.806 1247.55,434.0 C 1248.54,444.153 1255.53,457.337 1259.19,467.0 C 1263.43,478.195 1266.26,489.385 1268.92,501.0 C 1270.06,505.932 1273.27,509.072 1271.0,514.0 L 1270.0,508.0" style="stroke:#010101; fill:none;"/>
	<path d="M 712.0,354.0 L 707.0,358.0" style="stroke:#010101; fill:none;"/>
	<path d="M 59.0,356.0 C 53.3425,363.947 40.1928,384.839 42.6574,395.0 C 45.3922,406.276 60.8008,415.838 69.0,423.0" style="stroke:#010101; fill:none;"/>
	<path d="M 490.0,356.0 L 459.0,397.0" style="stroke:#010101; fill:none;"/>
	<path d="M 510.0,412.0 C 506.694,416.336 502.625,421.388 503.0,427.0 C 517.79,411.665 531.617,394.984 545.714,379.0 C 552.537,371.264 560.437,360.274 570.0,356.0" style="stroke:#010101; fill:none;"/>
	<path d="M 388.0,357.0 L 351.0,405.0" style="stroke:#010101; fill:none;"/>
	<path d="M 209.0,358.0 C 202.002,369.434 199.0,381.627 199.0,395.0" style="stroke:#010101; fill:none;"/>
	<path d="M 272.0,358.0 L 272.0,359.0" style="stroke:#010101; fill:none;"/>
	<path d="M 687.0,358.0 L 660.0,385.0" style="stroke:#010101; fill:none;"/>
	<path d="M 273.0,361.0 L 271.0,361.0" style="stroke:#010101; fill:none;"/>
	<path d="M 689.0,361.0 L 676.0,372.0" style="stroke:#010101; fill:none;"/>
	<path d="M 1113.0,361.0 L 1192.0,411.0" style="stroke:#010101; fill:none;"/>
	<path d="M 272.0,362.0 L 262.0,394.0" style="stroke:#010101; fill:none;"/>
	<path d="M 999.0,362.0 C 989.524,391.934 950.284,386.654 929.0,375.0" style="stroke:#010101; fill:none;"/>
	<path d="M 114.0,364.0 C 136.157,377.673 156.85,387.692 183.0,391.0" style="stroke:#010101; fill:none;"/>
	<path d="M 1148.0,367.0 C 1170.12,381.447 1195.82,398.811 1212.0,420.0" style="stroke:#010101; fill:none;"/>
	<path d="M 80.0,368.0 C 83.8575,379.629 95.6504,383.031 106.0,387.0" style="stroke:#010101; fill:none;"/>
	<path d="M 1054.0,368.0 C 1067.06,378.038 1081.29,386.0 1098.0,386.0" style="stroke:#010101; fill:none;"/>
	<path d="M 1008.0,369.0 C 999.602,391.365 978.343,398.29 956.0,400.086 C 917.93,403.146 868.749,397.188 835.0,378.0" style="stroke:#010101; fill:none;"/>
	<path d="M 1014.0,370.0 C 1008.11,385.363 998.754,403.037 980.0,404.0" style="stroke:#010101; fill:none;"/>
	<path d="M 209.0,373.0 C 206.542,383.373 200.765,393.055 204.0,404.0" style="stroke:#010101; fill:none;"/>
	<path d="M 552.0,465.0 C 563.677,452.901 576.324,441.359 586.621,428.002 C 600.102,410.514 615.482,383.089 637.0,375.0" style="stroke:#010101; fill:none;"/>
	<path d="M 252.0,376.0 L 241.0,402.0" style="stroke:#010101; fill:none;"/>
	<path d="M 414.0,376.0 C 389.784,398.306 352.099,433.218 352.0,469.0" style="stroke:#010101; fill:none;"/>
	<path d="M 635.0,377.0 C 621.868,390.168 609.465,412.211 593.0,421.0" style="stroke:#010101; fill:none;"/>
	<path d="M 491.0,421.0 C 494.349,406.566 509.168,386.715 521.0,378.0" style="stroke:#010101; fill:none;"/>
	<path d="M 213.0,386.0 L 212.0,392.0" style="stroke:#010101; fill:none;"/>
	<path d="M 443.0,387.0 C 432.111,402.307 432.571,423.068 420.621,438.0 C 415.378,444.551 408.452,450.1 400.0,451.512 C 395.586,452.249 388.007,450.622 384.285,452.788 C 376.253,457.462 370.252,467.566 363.0,473.536 C 339.478,492.902 301.678,506.954 279.503,477.999 C 274.818,471.882 272.356,465.242 270.0,458.0" style="stroke:#010101; fill:none;"/>
	<path d="M 135.0,389.0 C 157.065,396.467 177.069,410.0 201.0,410.0" style="stroke:#010101; fill:none;"/>
	<path d="M 348.0,389.0 L 348.0,390.0" style="stroke:#010101; fill:none;"/>
	<path d="M 748.0,389.0 C 747.293,403.788 731.092,418.917 717.0,421.0" style="stroke:#010101; fill:none;"/>
	<path d="M 58.0,390.0 C 68.6968,403.27 85.5833,427.424 105.0,420.0" style="stroke:#010101; fill:none;"/>
	<path d="M 749.0,391.0 L 793.0,398.961 L 851.0,394.0" style="stroke:#010101; fill:none;"/>
	<path d="M 1118.0,392.0 C 1113.88,405.996 1094.75,401.759 1085.0,398.0" style="stroke:#010101; fill:none;"/>
	<path d="M 211.0,394.0 L 211.0,412.0" style="stroke:#010101; fill:none;"/>
	<path d="M 470.0,395.0 L 465.0,402.0" style="stroke:#010101; fill:none;"/>
	<path d="M 41.0,397.0 L 39.0,406.0" style="stroke:#010101; fill:none;"/>
	<path d="M 382.0,397.0 C 368.477,418.909 348.616,446.026 326.0,459.124 C 314.553,465.754 299.415,465.125 289.0,472.0 C 309.284,486.315 345.281,480.712 364.0,467.0" style="stroke:#010101; fill:none;"/>
	<path d="M 1099.0,397.0 L 1107.0,399.0" style="stroke:#010101; fill:none;"/>
	<path d="M 1019.0,398.0 C 1015.71,410.091 1000.93,415.998 990.0,419.279 C 960.397,428.16 930.536,424.771 901.0,418.0" style="stroke:#010101; fill:none;"/>
	<path d="M 341.0,399.0 C 338.665,411.392 337.811,423.39 330.211,434.0 C 316.348,453.356 281.768,461.35 264.0,444.0 C 250.02,459.598 221.998,458.0 203.0,458.0" style="stroke:#010101; fill:none;"/>
	<path d="M 265.0,401.0 L 265.0,402.0" style="stroke:#010101; fill:none;"/>
	<path d="M 1019.0,413.0 C 1038.74,417.863 1054.03,411.446 1071.0,402.0" style="stroke:#010101; fill:none;"/>
	<path d="M 801.0,404.0 C 799.278,425.08 776.877,448.687 755.0,448.661 C 743.528,448.646 733.186,443.388 723.0,439.0" style="stroke:#010101; fill:none;"/>
	<path d="M 464.0,405.0 C 450.594,424.873 438.556,444.277 418.0,457.655 C 413.475,460.6 400.185,470.045 396.0,464.0" style="stroke:#010101; fill:none;"/>
	<path d="M 1085.0,406.0 C 1092.05,408.204 1096.94,408.253 1104.0,406.0" style="stroke:#010101; fill:none;"/>
	<path d="M 568.0,450.0 C 573.993,452.989 578.185,444.925 582.015,441.0 C 592.586,430.163 601.74,416.993 613.0,407.0" style="stroke:#010101; fill:none;"/>
	<path d="M 431.0,410.0 L 433.0,408.0" style="stroke:#010101; fill:none;"/>
	<path d="M 1084.0,408.0 L 1090.0,408.0" style="stroke:#010101; fill:none;"/>
	<path d="M 869.0,409.0 C 871.385,424.457 899.128,434.899 912.0,439.938 C 942.443,451.856 973.469,460.072 1006.0,463.17 C 1024.1,464.894 1045.55,464.999 1061.0,454.0" style="stroke:#010101; fill:none;"/>
	<path d="M 121.0,410.0 C 144.686,426.768 193.093,440.429 219.0,422.0" style="stroke:#010101; fill:none;"/>
	<path d="M 431.0,410.0 L 395.0,450.0" style="stroke:#010101; fill:none;"/>
	<path d="M 1090.0,410.0 L 1100.0,410.0" style="stroke:#010101; fill:none;"/>
	<path d="M 264.0,411.0 L 264.0,415.0" style="stroke:#010101; fill:none;"/>
	<path d="M 1082.0,411.0 L 1100.0,416.0" style="stroke:#010101; fill:none;"/>
	<path d="M 38.0,412.0 C 34.6278,430.164 29.7004,453.036 41.0,469.0" style="stroke:#010101; fill:none;"/>
	<path d="M 247.0,414.0 L 248.0,431.0 L 253.0,427.0" style="stroke:#010101; fill:none;"/>
	<path d="M 50.0,419.0 C 58.3089,427.303 67.0678,434.448 78.0,439.0" style="stroke:#010101; fill:none;"/>
	<path d="M 326.0,419.0 L 298.0,451.0" style="stroke:#010101; fill:none;"/>
	<path d="M 582.0,505.0 C 580.939,498.224 594.464,488.091 598.753,482.996 C 609.46,470.277 620.034,457.305 629.996,444.0 C 636.409,435.436 642.393,425.582 651.0,419.0" style="stroke:#010101; fill:none;"/>
	<path d="M 668.0,419.0 L 606.0,497.0" style="stroke:#010101; fill:none;"/>
	<path d="M 408.0,420.0 L 385.0,451.0" style="stroke:#010101; fill:none;"/>
	<path d="M 473.0,421.0 C 464.466,435.607 457.295,451.316 445.829,463.999 C 434.068,477.01 421.133,480.867 414.0,498.0" style="stroke:#010101; fill:none;"/>
	<path d="M 592.0,422.0 L 590.0,426.0" style="stroke:#010101; fill:none;"/>
	<path d="M 503.0,423.0 L 505.0,425.0" style="stroke:#010101; fill:none;"/>
	<path d="M 259.0,425.0 L 261.0,424.0" style="stroke:#010101; fill:none;"/>
	<path d="M 475.0,424.0 C 476.682,431.359 478.688,439.382 477.689,447.0 C 476.676,454.726 472.287,460.29 468.876,467.0 C 459.03,486.365 445.49,506.052 420.0,500.0" style="stroke:#010101; fill:none;"/>
	<path d="M 1150.0,424.0 C 1182.54,438.021 1218.89,473.381 1229.0,508.0" style="stroke:#010101; fill:none;"/>
	<path d="M 586.0,427.0 L 588.0,425.0" style="stroke:#010101; fill:none;"/>
	<path d="M 700.0,425.0 C 717.22,443.164 707.743,474.972 688.0,487.441 C 675.601,495.271 661.385,495.469 648.0,500.0" style="stroke:#010101; fill:none;"/>
	<path d="M 1114.0,426.0 C 1134.95,437.033 1152.37,457.99 1159.0,481.0" style="stroke:#010101; fill:none;"/>
	<path d="M 1243.0,426.0 L 1246.0,432.0" style="stroke:#010101; fill:none;"/>
	<path d="M 255.0,428.0 L 255.0,437.0" style="stroke:#010101; fill:none;"/>
	<path d="M 501.0,428.0 L 496.0,438.0" style="stroke:#010101; fill:none;"/>
	<path d="M 11.0,429.0 C 13.621,438.332 24.0147,441.438 32.0,445.0" style="stroke:#010101; fill:none;"/>
	<path d="M 247.0,430.0 C 233.021,441.284 210.501,445.762 193.0,447.0" style="stroke:#010101; fill:none;"/>
	<path d="M 1249.0,430.0 L 1249.0,437.0" style="stroke:#010101; fill:none;"/>
	<path d="M 252.0,431.0 L 254.0,435.0" style="stroke:#010101; fill:none;"/>
	<path d="M 528.0,484.0 C 563.858,483.901 597.514,451.339 624.0,431.0" style="stroke:#010101; fill:none;"/>
	<path d="M 811.0,431.0 C 803.023,454.472 758.556,469.336 736.0,468.0" style="stroke:#010101; fill:none;"/>
	<path d="M 253.0,434.0 C 242.733,442.414 217.153,450.378 204.0,447.0" style="stroke:#010101; fill:none;"/>
	<path d="M 586.0,475.0 L 634.0,437.0" style="stroke:#010101; fill:none;"/>
	<path d="M 476.0,438.0 L 476.0,440.0" style="stroke:#010101; fill:none;"/>
	<path d="M 97.0,441.0 C 135.821,464.764 177.205,478.706 223.0,470.75 C 237.56,468.221 260.083,463.823 267.0,449.0" style="stroke:#010101; fill:none;"/>
	<path d="M 475.0,441.0 C 473.615,447.06 471.006,453.164 474.0,459.0" style="stroke:#010101; fill:none;"/>
	<path d="M 264.0,442.0 L 264.0,444.0" style="stroke:#010101; fill:none;"/>
	<path d="M 58.0,444.0 C 49.95,453.973 48.2581,467.807 45.8002,480.0 C 40.4666,506.458 35.8523,534.89 37.0394,562.0 C 37.4102,570.47 41.9601,578.701 41.7392,587.0 C 41.5053,595.787 38.6461,604.031 39.0394,613.0 C 39.3951,621.111 43.1369,628.922 42.9452,637.0 C 42.6114,651.068 38.3088,662.504 41.0,677.0" style="stroke:#010101; fill:none;"/>
	<path d="M 520.0,444.0 C 520.252,474.877 505.949,521.847 468.0,521.0" style="stroke:#010101; fill:none;"/>
	<path d="M 799.0,454.0 C 812.922,438.985 846.947,440.227 859.0,456.0" style="stroke:#010101; fill:none;"/>
	<path d="M 189.0,447.0 L 189.0,448.0" style="stroke:#010101; fill:none;"/>
	<path d="M 1017.0,453.0 L 1056.0,448.0" style="stroke:#010101; fill:none;"/>
	<path d="M 570.0,453.0 L 557.0,463.0" style="stroke:#010101; fill:none;"/>
	<path d="M 832.0,455.0 C 839.326,452.834 848.397,454.301 855.0,458.0" style="stroke:#010101; fill:none;"/>
	<path d="M 422.0,482.0 L 418.0,480.0 L 431.0,457.0" style="stroke:#010101; fill:none;"/>
	<path d="M 55.0,458.0 C 78.4105,477.953 111.159,483.385 141.0,484.0" style="stroke:#010101; fill:none;"/>
	<path d="M 471.0,458.0 L 471.0,461.0" style="stroke:#010101; fill:none;"/>
	<path d="M 283.0,459.0 C 283.066,464.903 284.594,468.054 289.0,472.0" style="stroke:#010101; fill:none;"/>
	<path d="M 1206.0,459.0 C 1223.39,466.506 1228.63,483.156 1233.0,500.0" style="stroke:#010101; fill:none;"/>
	<path d="M 731.0,465.0 C 714.064,484.855 697.975,502.788 672.0,510.562 C 657.172,514.999 640.195,513.009 626.0,519.0" style="stroke:#010101; fill:none;"/>
	<path d="M 377.0,466.0 L 395.0,471.0" style="stroke:#010101; fill:none;"/>
	<path d="M 847.0,467.0 L 857.0,470.0" style="stroke:#010101; fill:none;"/>
	<path d="M 1043.0,472.0 L 1077.0,467.0" style="stroke:#010101; fill:none;"/>
	<path d="M 395.0,468.0 L 395.0,469.0" style="stroke:#010101; fill:none;"/>
	<path d="M 885.0,469.0 C 901.934,476.66 918.706,484.21 937.0,488.041 C 948.18,490.382 963.885,488.724 973.0,496.0 L 974.0,495.0 L 972.0,493.0" style="stroke:#010101; fill:none;"/>
	<path d="M 280.0,471.0 L 282.0,471.0" style="stroke:#010101; fill:none;"/>
	<path d="M 794.0,474.0 C 803.99,474.242 814.015,481.074 822.0,486.587 C 841.488,500.042 858.866,516.501 871.0,537.0" style="stroke:#010101; fill:none;"/>
	<path d="M 975.0,493.0 C 1009.38,493.0 1038.22,488.307 1069.0,473.0" style="stroke:#010101; fill:none;"/>
	<path d="M 835.0,474.0 C 838.252,483.644 848.189,490.66 854.83,498.0 C 878.045,523.658 913.389,556.716 893.0,595.0" style="stroke:#010101; fill:none;"/>
	<path d="M 228.0,475.0 L 229.0,475.0" style="stroke:#010101; fill:none;"/>
	<path d="M 162.0,501.0 L 226.0,476.0" style="stroke:#010101; fill:none;"/>
	<path d="M 175.0,676.0 C 183.52,667.48 192.168,659.438 196.743,648.0 C 204.067,629.69 198.492,609.916 201.439,591.0 C 205.826,562.845 215.502,537.79 231.333,514.0 C 239.357,501.943 249.416,479.134 265.0,476.0" style="stroke:#010101; fill:none;"/>
	<path d="M 162.0,512.0 L 235.0,477.0" style="stroke:#010101; fill:none;"/>
	<path d="M 1098.0,477.0 L 1164.0,510.247 L 1200.0,526.0" style="stroke:#010101; fill:none;"/>
	<path d="M 65.0,480.0 C 58.194,491.718 59.0184,507.912 60.7184,521.0 C 63.9528,545.902 73.6547,574.378 100.0,583.11 C 106.837,585.377 113.903,585.0 121.0,585.0" style="stroke:#010101; fill:none;"/>
	<path d="M 418.0,481.0 L 407.0,499.0" style="stroke:#010101; fill:none;"/>
	<path d="M 168.0,526.0 C 182.601,507.906 209.356,494.123 229.0,482.0" style="stroke:#010101; fill:none;"/>
	<path d="M 126.0,498.0 L 195.0,486.0" style="stroke:#010101; fill:none;"/>
	<path d="M 921.0,486.0 C 933.9,496.706 954.2,506.15 971.0,508.0 C 969.38,505.059 968.314,504.501 965.0,505.0" style="stroke:#010101; fill:none;"/>
	<path d="M 227.0,487.0 C 196.716,511.036 173.192,552.695 160.0,589.0" style="stroke:#010101; fill:none;"/>
	<path d="M 244.0,491.0 L 249.0,487.0" style="stroke:#010101; fill:none;"/>
	<path d="M 528.0,488.0 C 524.34,496.32 516.947,502.042 510.0,507.6 C 494.894,519.686 478.081,531.572 458.0,532.0" style="stroke:#010101; fill:none;"/>
	<path d="M 934.0,488.0 C 938.493,495.916 956.428,500.964 965.0,503.0" style="stroke:#010101; fill:none;"/>
	<path d="M 186.0,572.0 C 199.435,543.278 217.549,510.007 244.0,491.0" style="stroke:#010101; fill:none;"/>
	<path d="M 814.0,491.0 C 814.472,513.875 825.98,543.002 838.345,562.0 C 847.535,576.12 859.716,582.736 874.0,571.0" style="stroke:#010101; fill:none;"/>
	<path d="M 954.0,493.0 C 962.168,499.587 979.38,504.872 990.0,504.799 C 995.012,504.764 999.641,502.004 1005.0,502.0" style="stroke:#010101; fill:none;"/>
	<path d="M 975.0,497.0 L 994.0,502.0" style="stroke:#010101; fill:none;"/>
	<path d="M 1021.0,498.0 L 1043.0,502.0" style="stroke:#010101; fill:none;"/>
	<path d="M 609.0,499.0 C 601.789,505.146 593.42,509.047 585.0,513.247 C 565.139,523.153 539.574,536.438 517.0,531.0" style="stroke:#010101; fill:none;"/>
	<path d="M 1021.0,502.0 C 1027.0,503.604 1032.94,506.463 1039.0,504.0 C 1041.16,509.7 1039.55,513.178 1035.0,517.0 L 1037.0,512.0 L 1038.0,513.0 L 1039.0,514.0" style="stroke:#010101; fill:none;"/>
	<path d="M 1008.0,504.0 C 995.695,512.107 985.496,507.874 972.0,509.0" style="stroke:#010101; fill:none;"/>
	<path d="M 972.0,505.0 L 976.0,508.0" style="stroke:#010101; fill:none;"/>
	<path d="M 519.0,519.0 C 540.051,519.0 562.344,517.537 580.0,505.0" style="stroke:#010101; fill:none;"/>
	<path d="M 992.0,506.0 L 992.0,509.0" style="stroke:#010101; fill:none;"/>
	<path d="M 1020.0,506.0 L 1034.0,511.0" style="stroke:#010101; fill:none;"/>
	<path d="M 879.0,507.0 C 898.34,530.992 926.046,550.039 958.0,546.0" style="stroke:#010101; fill:none;"/>
	<path d="M 1058.0,507.0 L 1058.0,508.0" style="stroke:#010101; fill:none;"/>
	<path d="M 1024.0,510.0 L 1028.0,510.0" style="stroke:#010101; fill:none;"/>
	<path d="M 1057.0,512.0 C 1046.1,551.849 990.696,540.676 962.0,529.808 C 952.508,526.213 942.883,522.817 936.0,515.0" style="stroke:#010101; fill:none;"/>
	<path d="M 1009.0,513.0 C 1016.25,515.358 1026.67,520.151 1034.0,517.0" style="stroke:#010101; fill:none;"/>
	<path d="M 1271.0,514.0 C 1271.38,522.892 1273.13,532.083 1271.7,541.0 C 1270.99,545.35 1266.36,548.786 1266.68,553.039 C 1267.27,561.104 1271.03,569.933 1272.55,578.0 C 1275.75,594.978 1277.52,611.227 1282.42,628.0 C 1286.63,642.386 1293.32,657.662 1291.94,672.985 C 1291.5,677.877 1286.18,678.035 1285.61,682.144 C 1283.87,694.54 1295.89,709.087 1292.0,721.0 L 1276.0,710.0" style="stroke:#010101; fill:none;"/>
	<path d="M 989.0,516.0 L 1005.0,520.0" style="stroke:#010101; fill:none;"/>
	<path d="M 977.0,518.0 C 991.925,521.453 1016.83,530.17 1030.0,519.0" style="stroke:#010101; fill:none;"/>
	<path d="M 1157.0,532.0 C 1171.4,533.178 1193.98,540.415 1203.0,552.0 L 1202.0,548.0" style="stroke:#010101; fill:none;"/>
	<path d="M 1101.0,536.0 C 1129.02,533.788 1153.54,540.391 1180.0,549.0" style="stroke:#010101; fill:none;"/>
	<path d="M 899.0,537.0 C 900.9,560.867 919.185,585.089 934.83,601.985 C 943.521,611.371 954.742,619.889 968.0,620.0" style="stroke:#010101; fill:none;"/>
	<path d="M 88.0,542.0 C 89.4302,559.971 107.062,565.956 123.0,566.0" style="stroke:#010101; fill:none;"/>
	<path d="M 1207.0,544.0 C 1223.49,558.363 1241.19,576.483 1248.0,598.0" style="stroke:#010101; fill:none;"/>
	<path d="M 914.0,549.0 L 912.0,551.0" style="stroke:#010101; fill:none;"/>
	<path d="M 1070.0,549.0 L 1147.0,551.0" style="stroke:#010101; fill:none;"/>
	<path d="M 1205.0,550.0 C 1210.43,551.597 1216.29,554.902 1219.0,560.0 L 1204.0,552.0" style="stroke:#010101; fill:none;"/>
	<path d="M 912.0,553.0 C 915.482,576.576 934.748,592.771 949.0,610.0" style="stroke:#010101; fill:none;"/>
	<path d="M 925.0,554.0 C 927.171,568.482 939.585,582.858 948.45,594.0 C 950.596,596.698 956.494,606.302 960.0,603.0" style="stroke:#010101; fill:none;"/>
	<path d="M 1217.0,555.0 L 1217.0,556.0" style="stroke:#010101; fill:none;"/>
	<path d="M 1215.0,556.0 L 1213.0,558.0" style="stroke:#010101; fill:none;"/>
	<path d="M 201.0,557.0 C 180.79,586.306 192.963,624.246 174.0,653.0" style="stroke:#010101; fill:none;"/>
	<path d="M 1062.0,557.0 L 1132.0,558.0" style="stroke:#010101; fill:none;"/>
	<path d="M 1216.0,557.0 L 1216.0,559.0" style="stroke:#010101; fill:none;"/>
	<path d="M 1220.0,561.0 L 1223.0,561.0" style="stroke:#010101; fill:none;"/>
	<path d="M 1064.0,563.0 L 1123.0,565.0" style="stroke:#010101; fill:none;"/>
	<path d="M 1094.0,566.0 C 1098.55,571.93 1112.47,568.135 1119.0,568.0" style="stroke:#010101; fill:none;"/>
	<path d="M 1063.0,570.0 L 1093.0,569.0" style="stroke:#010101; fill:none;"/>
	<path d="M 1054.0,575.0 L 1118.0,572.0" style="stroke:#010101; fill:none;"/>
	<path d="M 1014.0,578.0 C 1048.83,585.186 1093.99,583.784 1128.0,573.0" style="stroke:#010101; fill:none;"/>
	<path d="M 944.0,575.0 C 963.086,599.742 995.261,620.959 1028.0,617.83 C 1052.01,615.536 1074.84,603.033 1094.0,589.0" style="stroke:#010101; fill:none;"/>
	<path d="M 1157.0,599.0 L 1153.0,600.0 C 1163.87,602.368 1172.5,588.167 1183.0,586.0" style="stroke:#010101; fill:none;"/>
	<path d="M 163.0,587.0 C 163.0,628.947 144.535,677.111 100.0,690.0" style="stroke:#010101; fill:none;"/>
	<path d="M 1160.0,589.0 L 1165.0,590.0 C 1162.35,591.088 1161.51,591.48 1160.0,589.0" style="stroke:#010101; fill:none;"/>
	<path d="M 1166.0,590.0 L 1172.0,589.0" style="stroke:#010101; fill:none;"/>
	<path d="M 1141.0,590.0 L 1159.0,590.0" style="stroke:#010101; fill:none;"/>
	<path d="M 1107.0,598.0 C 1123.98,602.044 1142.37,596.43 1159.0,593.0" style="stroke:#010101; fill:none;"/>
	<path d="M 1105.0,601.0 L 1153.0,600.0" style="stroke:#010101; fill:none;"/>
	<path d="M 154.0,601.0 C 135.971,618.654 110.76,629.054 86.0,621.0" style="stroke:#010101; fill:none;"/>
	<path d="M 1077.0,602.0 C 1084.6,607.98 1100.68,607.0 1110.0,607.0" style="stroke:#010101; fill:none;"/>
	<path d="M 1120.0,607.0 C 1130.75,608.148 1144.11,606.376 1154.0,602.0" style="stroke:#010101; fill:none;"/>
	<path d="M 1178.0,603.0 C 1177.42,606.906 1173.75,612.963 1174.81,616.722 C 1176.77,623.675 1200.38,624.07 1206.0,623.0" style="stroke:#010101; fill:none;"/>
	<path d="M 960.0,606.0 L 964.0,610.0 L 963.0,607.0" style="stroke:#010101; fill:none;"/>
	<path d="M 158.0,608.0 C 138.584,628.233 113.597,655.065 86.0147,631.671 C 81.9191,628.198 79.1067,623.882 77.0,619.0" style="stroke:#010101; fill:none;"/>
	<path d="M 966.0,609.0 C 970.7,612.727 976.732,618.969 983.0,618.0 L 981.0,615.0" style="stroke:#010101; fill:none;"/>
	<path d="M 964.0,610.0 C 968.33,619.259 979.767,625.445 988.0,631.0" style="stroke:#010101; fill:none;"/>
	<path d="M 1183.0,615.0 L 1212.0,616.0" style="stroke:#010101; fill:none;"/>
	<path d="M 945.0,616.0 C 949.56,625.639 956.968,635.981 965.0,643.0 L 961.0,620.0" style="stroke:#010101; fill:none;"/>
	<path d="M 931.0,617.0 L 973.0,676.0" style="stroke:#010101; fill:none;"/>
	<path d="M 983.0,617.0 L 991.0,626.0 L 990.0,622.0" style="stroke:#010101; fill:none;"/>
	<path d="M 1223.0,617.0 C 1212.57,629.808 1199.48,640.285 1182.0,637.561 C 1175.76,636.588 1167.96,631.607 1162.17,631.605 C 1159.4,631.604 1156.62,634.228 1154.0,635.073 C 1146.89,637.359 1139.43,638.353 1132.0,638.0 L 1134.0,642.0 L 1138.0,641.0" style="stroke:#010101; fill:none;"/>
	<path d="M 986.0,620.0 L 992.0,621.0" style="stroke:#010101; fill:none;"/>
	<path d="M 1067.0,618.0 C 1079.38,635.171 1099.17,645.466 1119.0,651.653 C 1125.84,653.786 1139.79,657.584 1142.0,648.0" style="stroke:#010101; fill:none;"/>
	<path d="M 985.0,619.0 L 982.0,620.0" style="stroke:#010101; fill:none;"/>
	<path d="M 990.0,619.0 L 988.0,621.0" style="stroke:#010101; fill:none;"/>
	<path d="M 1173.0,619.0 L 1167.0,634.0" style="stroke:#010101; fill:none;"/>
	<path d="M 1173.0,621.0 C 1178.55,624.204 1185.12,626.121 1191.0,623.0" style="stroke:#010101; fill:none;"/>
	<path d="M 985.0,622.0 L 986.0,622.0" style="stroke:#010101; fill:none;"/>
	<path d="M 1003.0,622.0 C 1016.05,628.875 1026.31,628.764 1040.0,630.0" style="stroke:#010101; fill:none;"/>
	<path d="M 994.0,623.0 L 998.0,624.0 L 996.0,623.0" style="stroke:#010101; fill:none;"/>
	<path d="M 1034.0,623.0 L 1052.0,627.0" style="stroke:#010101; fill:none;"/>
	<path d="M 999.0,624.0 L 1018.0,631.0" style="stroke:#010101; fill:none;"/>
	<path d="M 1021.0,624.0 L 1035.0,629.0" style="stroke:#010101; fill:none;"/>
	<path d="M 1201.0,624.0 L 1191.0,625.0" style="stroke:#010101; fill:none;"/>
	<path d="M 995.0,625.0 C 994.635,629.654 999.582,628.307 1003.0,630.0 L 998.0,630.0" style="stroke:#010101; fill:none;"/>
	<path d="M 997.0,625.0 L 1001.0,625.0" style="stroke:#010101; fill:none;"/>
	<path d="M 1152.0,625.0 L 1153.0,626.0" style="stroke:#010101; fill:none;"/>
	<path d="M 1003.0,626.0 L 1001.0,628.0" style="stroke:#010101; fill:none;"/>
	<path d="M 1204.0,626.0 L 1212.0,628.0" style="stroke:#010101; fill:none;"/>
	<path d="M 1175.0,628.0 L 1200.0,630.0" style="stroke:#010101; fill:none;"/>
	<path d="M 1157.0,629.0 L 1159.0,630.0" style="stroke:#010101; fill:none;"/>
	<path d="M 1163.0,631.0 L 1166.0,629.0" style="stroke:#010101; fill:none;"/>
	<path d="M 1003.0,630.0 L 1015.0,634.0" style="stroke:#010101; fill:none;"/>
	<path d="M 1219.0,633.0 L 1258.0,630.0" style="stroke:#010101; fill:none;"/>
	<path d="M 1169.0,632.0 L 1170.0,635.0" style="stroke:#010101; fill:none;"/>
	<path d="M 921.0,633.0 L 972.0,680.0" style="stroke:#010101; fill:none;"/>
	<path d="M 1090.0,633.0 C 1098.93,636.739 1119.7,651.41 1129.0,645.0 L 1099.0,633.0" style="stroke:#010101; fill:none;"/>
	<path d="M 1109.0,633.0 L 1131.0,641.0" style="stroke:#010101; fill:none;"/>
	<path d="M 1120.0,633.0 L 1131.0,637.0" style="stroke:#010101; fill:none;"/>
	<path d="M 1172.0,633.0 L 1198.0,636.0" style="stroke:#010101; fill:none;"/>
	<path d="M 163.0,636.0 C 162.955,652.309 151.139,671.86 142.0,685.0" style="stroke:#010101; fill:none;"/>
	<path d="M 920.0,638.0 C 939.164,652.051 956.67,672.464 972.714,689.961 C 978.767,696.562 988.541,704.237 991.0,713.0 C 967.502,704.106 942.067,679.984 929.0,659.0" style="stroke:#010101; fill:none;"/>
	<path d="M 1215.0,638.0 L 1243.0,638.0" style="stroke:#010101; fill:none;"/>
	<path d="M 134.0,639.0 L 120.0,641.0" style="stroke:#010101; fill:none;"/>
	<path d="M 990.0,639.0 C 1012.67,676.039 1053.22,711.995 1099.0,712.0" style="stroke:#010101; fill:none;"/>
	<path d="M 1246.0,639.0 C 1245.43,652.179 1240.92,666.126 1229.0,673.0" style="stroke:#010101; fill:none;"/>
	<path d="M 1078.0,641.0 C 1105.22,667.034 1142.09,668.896 1169.0,642.0" style="stroke:#010101; fill:none;"/>
	<path d="M 1208.0,645.0 L 1238.0,642.0" style="stroke:#010101; fill:none;"/>
	<path d="M 1220.0,642.0 L 1233.0,642.0" style="stroke:#010101; fill:none;"/>
	<path d="M 965.0,643.0 C 973.889,653.846 978.502,669.641 985.306,682.0 C 1000.25,709.142 1018.93,735.968 1044.0,754.622 C 1057.52,764.683 1079.62,776.136 1097.0,771.0 L 1065.0,751.0" style="stroke:#010101; fill:none;"/>
	<path d="M 1004.0,643.0 C 1005.56,653.381 1013.63,661.213 1021.01,668.075 C 1039.47,685.227 1066.26,699.983 1092.0,700.0" style="stroke:#010101; fill:none;"/>
	<path d="M 1129.0,645.0 L 1133.0,646.0 L 1129.0,648.0" style="stroke:#010101; fill:none;"/>
	<path d="M 1075.0,652.0 C 1087.96,676.22 1110.25,678.072 1132.0,689.0 C 1114.79,698.184 1088.12,679.356 1079.0,666.0" style="stroke:#010101; fill:none;"/>
	<path d="M 428.0,653.0 L 434.0,653.0" style="stroke:#010101; fill:none;"/>
	<path d="M 377.0,656.0 L 426.0,654.0" style="stroke:#010101; fill:none;"/>
	<path d="M 153.0,656.0 C 140.647,670.275 129.369,685.296 113.0,695.382 C 107.688,698.655 102.133,701.279 96.0,702.55 C 93.6866,703.03 89.8108,702.996 88.6427,705.514 C 85.2676,712.789 93.3596,729.155 96.0,736.0" style="stroke:#010101; fill:none;"/>
	<path d="M 51.0,665.0 C 43.6654,682.043 45.2902,703.901 46.8264,722.0 C 47.3463,728.125 46.5203,733.923 48.2091,740.0 C 50.7601,749.179 55.3837,757.784 58.0,767.0" style="stroke:#010101; fill:none;"/>
	<path d="M 1251.0,666.0 L 1251.0,667.0" style="stroke:#010101; fill:none;"/>
	<path d="M 1068.0,670.0 C 1082.67,679.661 1098.17,692.433 1116.0,695.764 C 1122.17,696.916 1137.63,699.289 1133.0,689.0" style="stroke:#010101; fill:none;"/>
	<path d="M 1250.0,670.0 C 1249.02,677.552 1247.02,685.506 1242.91,692.0 C 1240.9,695.172 1235.2,699.962 1235.78,704.0 C 1236.71,710.525 1247.97,715.91 1253.0,719.0" style="stroke:#010101; fill:none;"/>
	<path d="M 1283.0,674.0 L 1285.0,678.0" style="stroke:#010101; fill:none;"/>
	<path d="M 1000.0,675.0 C 1007.18,690.186 1021.03,703.444 1032.0,716.0" style="stroke:#010101; fill:none;"/>
	<path d="M 1174.0,675.0 L 1163.0,684.0 L 1185.0,686.0" style="stroke:#010101; fill:none;"/>
	<path d="M 146.0,683.0 C 140.072,705.854 126.296,722.39 108.985,738.051 C 103.59,742.932 87.8338,749.98 90.0,758.0 L 93.0,756.0 C 98.0836,767.816 98.0743,785.927 108.0,795.0 C 111.854,786.871 102.892,769.172 101.0,760.0" style="stroke:#010101; fill:none;"/>
	<path d="M 619.0,709.0 C 640.576,705.168 662.621,692.019 683.0,684.0" style="stroke:#010101; fill:none;"/>
	<path d="M 1167.0,699.0 L 1140.0,690.0 L 1162.0,683.0" style="stroke:#010101; fill:none;"/>
	<path d="M 141.0,687.0 L 139.0,690.0" style="stroke:#010101; fill:none;"/>
	<path d="M 1135.0,689.0 L 1139.0,689.0" style="stroke:#010101; fill:none;"/>
	<path d="M 61.0,690.0 C 61.0653,713.667 73.5438,737.869 82.6173,759.0 C 88.0309,771.607 89.3148,785.46 96.0,798.0" style="stroke:#010101; fill:none;"/>
	<path d="M 1154.0,690.0 L 1155.0,690.0" style="stroke:#010101; fill:none;"/>
	<path d="M 95.0,691.0 L 98.0,691.0" style="stroke:#010101; fill:none;"/>
	<path d="M 1158.0,691.0 L 1176.0,691.0" style="stroke:#010101; fill:none;"/>
	<path d="M 134.0,788.0 C 146.636,755.429 166.454,709.459 201.0,695.0" style="stroke:#010101; fill:none;"/>
	<path d="M 1020.0,695.0 C 1028.32,711.293 1046.91,725.166 1059.0,739.0" style="stroke:#010101; fill:none;"/>
	<path d="M 70.0,696.0 C 74.8433,699.827 82.0396,705.446 88.0,701.0" style="stroke:#010101; fill:none;"/>
	<path d="M 1134.0,696.0 C 1141.43,699.97 1156.92,701.386 1165.0,699.0" style="stroke:#010101; fill:none;"/>
	<path d="M 1121.0,697.0 L 1124.0,696.0" style="stroke:#010101; fill:none;"/>
	<path d="M 1166.0,697.0 L 1171.0,697.0" style="stroke:#010101; fill:none;"/>
	<path d="M 1229.0,699.0 L 1232.0,703.0 L 1227.0,707.0 L 1250.0,724.0" style="stroke:#010101; fill:none;"/>
	<path d="M 1238.0,700.0 L 1264.0,718.0" style="stroke:#010101; fill:none;"/>
	<path d="M 74.0,702.0 C 77.0266,716.672 80.4812,735.497 89.0,748.0" style="stroke:#010101; fill:none;"/>
	<path d="M 82.0,703.0 C 82.0353,715.808 85.8287,729.334 91.0,741.0" style="stroke:#010101; fill:none;"/>
	<path d="M 1232.0,703.0 L 1234.0,703.0" style="stroke:#010101; fill:none;"/>
	<path d="M 104.0,704.0 L 106.0,720.0" style="stroke:#010101; fill:none;"/>
	<path d="M 1213.0,705.0 L 1227.0,707.0" style="stroke:#010101; fill:none;"/>
	<path d="M 94.0,707.0 L 101.0,731.0" style="stroke:#010101; fill:none;"/>
	<path d="M 1187.0,709.0 C 1171.76,723.573 1149.23,730.792 1129.0,723.0" style="stroke:#010101; fill:none;"/>
	<path d="M 1212.0,709.0 C 1228.86,724.841 1248.39,739.372 1272.0,742.7 C 1284.47,744.457 1303.24,734.536 1293.0,721.0" style="stroke:#010101; fill:none;"/>
	<path d="M 991.0,713.0 L 1008.0,722.0" style="stroke:#010101; fill:none;"/>
	<path d="M 1226.0,713.0 L 1233.0,719.0" style="stroke:#010101; fill:none;"/>
	<path d="M 1044.0,716.0 L 1074.0,744.0" style="stroke:#010101; fill:none;"/>
	<path d="M 127.0,819.0 C 133.724,789.669 150.578,760.892 170.975,739.0 C 179.166,730.208 187.364,721.969 199.0,718.0" style="stroke:#010101; fill:none;"/>
	<path d="M 1052.0,720.0 L 1056.0,725.0" style="stroke:#010101; fill:none;"/>
	<path d="M 137.0,721.0 C 126.056,740.253 116.985,765.712 111.0,787.0" style="stroke:#010101; fill:none;"/>
	<path d="M 1237.0,722.0 L 1247.0,729.0" style="stroke:#010101; fill:none;"/>
	<path d="M 1057.0,724.0 C 1074.92,730.513 1087.52,738.578 1107.0,732.0" style="stroke:#010101; fill:none;"/>
	<path d="M 1054.0,726.0 L 1058.0,730.0" style="stroke:#010101; fill:none;"/>
	<path d="M 1019.0,729.0 L 1027.0,729.0" style="stroke:#010101; fill:none;"/>
	<path d="M 1298.0,729.0 C 1306.17,733.374 1311.69,743.686 1315.0,752.0" style="stroke:#010101; fill:none;"/>
	<path d="M 1049.0,730.0 L 1049.0,731.0" style="stroke:#010101; fill:none;"/>
	<path d="M 1249.0,730.0 L 1250.0,731.0" style="stroke:#010101; fill:none;"/>
	<path d="M 1058.0,731.0 L 1060.0,731.0" style="stroke:#010101; fill:none;"/>
	<path d="M 1252.0,732.0 L 1253.0,733.0" style="stroke:#010101; fill:none;"/>
	<path d="M 125.0,733.0 L 94.0,756.0" style="stroke:#010101; fill:none;"/>
	<path d="M 1059.0,733.0 L 1064.0,738.0" style="stroke:#010101; fill:none;"/>
	<path d="M 1064.0,734.0 L 1068.0,735.0 L 1068.0,737.0" style="stroke:#010101; fill:none;"/>
	<path d="M 524.0,744.0 L 563.0,736.0" style="stroke:#010101; fill:none;"/>
	<path d="M 345.0,745.0 C 360.205,738.458 377.858,739.668 394.0,738.961 C 434.604,737.182 475.661,741.901 516.0,747.0" style="stroke:#010101; fill:none;"/>
	<path d="M 1068.0,738.0 L 1070.0,740.0" style="stroke:#010101; fill:none;"/>
	<path d="M 1072.0,738.0 L 1072.0,741.0" style="stroke:#010101; fill:none;"/>
	<path d="M 186.0,741.0 C 163.887,757.247 148.904,781.702 136.753,806.0 C 132.954,813.598 125.183,824.253 127.0,833.0 C 143.951,809.26 154.81,769.414 183.0,756.0" style="stroke:#010101; fill:none;"/>
	<path d="M 48.0,742.0 C 43.6231,750.202 47.5125,763.338 49.6258,772.0 C 52.3359,783.109 54.2151,794.293 58.4498,805.0 C 63.4307,817.593 70.6954,829.618 72.2855,843.0 C 72.9836,848.875 75.3049,875.192 84.0,871.0 L 104.0,911.0" style="stroke:#010101; fill:none;"/>
	<path d="M 1163.0,743.0 C 1175.82,766.105 1203.14,788.172 1231.0,783.0" style="stroke:#010101; fill:none;"/>
	<path d="M 1293.0,747.0 C 1279.83,753.91 1266.63,751.718 1253.0,748.0" style="stroke:#010101; fill:none;"/>
	<path d="M 66.0,754.0 C 68.5092,765.949 73.7355,763.279 80.0,756.0" style="stroke:#010101; fill:none;"/>
	<path d="M 83.0,756.0 L 88.0,754.0" style="stroke:#010101; fill:none;"/>
	<path d="M 1306.0,754.0 C 1296.79,760.557 1288.76,761.087 1278.0,759.0" style="stroke:#010101; fill:none;"/>
	<path d="M 1272.0,755.0 L 1274.0,757.0" style="stroke:#010101; fill:none;"/>
	<path d="M 110.0,757.0 L 113.0,776.0" style="stroke:#010101; fill:none;"/>
	<path d="M 653.0,785.0 C 663.399,781.947 672.646,775.194 683.0,771.749 C 708.526,763.255 736.073,758.157 763.0,757.0" style="stroke:#010101; fill:none;"/>
	<path d="M 1162.0,758.0 C 1151.44,768.527 1137.57,776.901 1122.0,775.91 C 1113.8,775.387 1106.16,771.109 1098.0,772.0" style="stroke:#010101; fill:none;"/>
	<path d="M 85.0,761.0 L 89.0,759.0" style="stroke:#010101; fill:none;"/>
	<path d="M 90.0,760.0 C 90.5401,771.819 96.2388,785.259 101.0,796.0" style="stroke:#010101; fill:none;"/>
	<path d="M 124.0,760.0 L 106.0,851.0" style="stroke:#010101; fill:none;"/>
	<path d="M 76.0,762.0 L 83.0,762.0" style="stroke:#010101; fill:none;"/>
	<path d="M 69.0,763.0 C 70.5617,782.094 83.9345,800.071 90.0,818.0" style="stroke:#010101; fill:none;"/>
	<path d="M 78.0,764.0 C 79.0218,776.51 84.7223,789.717 90.0,801.0" style="stroke:#010101; fill:none;"/>
	<path d="M 200.0,766.0 C 175.143,784.733 156.968,810.986 139.0,836.0" style="stroke:#010101; fill:none;"/>
	<path d="M 1267.0,773.0 C 1277.38,769.68 1290.34,767.849 1301.0,771.0 C 1288.19,785.809 1278.24,797.687 1257.0,795.0" style="stroke:#010101; fill:none;"/>
	<path d="M 1226.0,770.0 L 1248.0,775.0" style="stroke:#010101; fill:none;"/>
	<path d="M 124.0,855.0 C 139.888,827.677 153.014,787.754 182.0,771.0" style="stroke:#010101; fill:none;"/>
	<path d="M 1301.0,771.0 C 1322.99,771.517 1328.66,792.693 1321.0,810.0" style="stroke:#010101; fill:none;"/>
	<path d="M 1070.0,781.0 C 1073.48,788.798 1080.92,793.426 1087.0,799.089 C 1097.66,809.014 1107.64,819.63 1113.0,833.0 L 1113.0,829.0" style="stroke:#010101; fill:none;"/>
	<path d="M 1290.0,787.0 C 1300.91,807.436 1288.74,833.715 1291.29,855.0 C 1293.34,872.201 1297.61,889.67 1297.95,907.0 C 1298.5,935.612 1295.71,964.408 1295.01,993.0 C 1293.95,1036.52 1295.08,1079.45 1271.8,1118.0 C 1257.84,1141.11 1241.95,1161.68 1221.0,1178.92 C 1206.12,1191.16 1183.49,1202.05 1175.88,1221.0 C 1172.57,1229.24 1177.01,1238.5 1177.83,1247.0 C 1179.83,1267.71 1184.32,1287.63 1188.4,1308.0 C 1190.48,1318.4 1194.52,1329.42 1192.0,1340.0 C 1220.71,1352.79 1243.2,1360.68 1263.1,1387.0 C 1290.01,1422.6 1306.42,1475.24 1352.0,1493.0" style="stroke:#010101; fill:none;"/>
	<path d="M 107.0,795.0 L 105.0,806.0" style="stroke:#010101; fill:none;"/>
	<path d="M 1199.0,887.0 C 1191.47,892.803 1180.08,893.815 1172.82,886.324 C 1166.13,879.427 1164.54,866.513 1160.63,858.0 C 1152.83,841.033 1137.16,824.169 1133.0,806.0 C 1142.82,805.572 1150.77,800.952 1159.0,796.0" style="stroke:#010101; fill:none;"/>
	<path d="M 571.0,807.0 L 609.0,797.0" style="stroke:#010101; fill:none;"/>
	<path d="M 1108.0,798.0 L 1114.0,801.0" style="stroke:#010101; fill:none;"/>
	<path d="M 1268.0,798.0 C 1253.2,821.276 1207.44,839.527 1186.0,815.0" style="stroke:#010101; fill:none;"/>
	<path d="M 1130.0,800.0 L 1132.0,805.0" style="stroke:#010101; fill:none;"/>
	<path d="M 1116.0,803.0 L 1130.0,806.0" style="stroke:#010101; fill:none;"/>
	<path d="M 316.0,825.0 C 343.521,811.96 378.809,809.296 409.0,808.0" style="stroke:#010101; fill:none;"/>
	<path d="M 431.0,816.0 L 463.0,831.0" style="stroke:#010101; fill:none;"/>
	<path d="M 75.0,817.0 L 85.929,853.0 L 91.0,868.0 L 88.0,860.0" style="stroke:#010101; fill:none;"/>
	<path d="M 1103.0,821.0 L 1111.0,831.0" style="stroke:#010101; fill:none;"/>
	<path d="M 152.0,826.0 C 144.216,878.944 144.618,933.672 147.039,987.0 C 147.691,1001.36 150.221,1015.96 153.211,1030.0 C 154.107,1034.21 158.106,1042.67 155.882,1046.7 C 150.441,1056.56 133.247,1042.63 129.468,1038.0 C 118.084,1024.06 105.62,994.241 111.0,976.0" style="stroke:#010101; fill:none;"/>
	<path d="M 1255.0,830.0 C 1271.37,872.694 1274.46,916.869 1285.0,961.0" style="stroke:#010101; fill:none;"/>
	<path d="M 126.0,832.0 L 125.0,838.0 L 127.0,833.0" style="stroke:#010101; fill:none;"/>
	<path d="M 1115.0,832.0 C 1127.89,847.516 1142.32,869.852 1149.0,889.0" style="stroke:#010101; fill:none;"/>
	<path d="M 1113.0,834.0 L 1119.0,840.0" style="stroke:#010101; fill:none;"/>
	<path d="M 1169.0,836.0 C 1170.3,844.914 1177.95,848.94 1186.0,850.87 C 1203.45,855.052 1220.29,849.156 1233.0,837.0" style="stroke:#010101; fill:none;"/>
	<path d="M 123.0,838.0 L 125.0,839.0" style="stroke:#010101; fill:none;"/>
	<path d="M 1108.0,838.0 L 1120.0,863.0" style="stroke:#010101; fill:none;"/>
	<path d="M 123.0,841.0 L 120.0,854.0" style="stroke:#010101; fill:none;"/>
	<path d="M 708.0,846.0 L 734.0,842.83 L 809.0,841.0" style="stroke:#010101; fill:none;"/>
	<path d="M 796.0,856.0 C 810.837,852.065 824.473,848.728 837.0,841.0" style="stroke:#010101; fill:none;"/>
	<path d="M 1119.0,841.0 L 1123.0,845.0" style="stroke:#010101; fill:none;"/>
	<path d="M 816.0,842.0 L 818.0,844.0 C 788.627,853.392 760.747,858.63 734.0,875.0" style="stroke:#010101; fill:none;"/>
	<path d="M 834.0,845.0 L 853.0,842.0" style="stroke:#010101; fill:none;"/>
	<path d="M 819.0,843.0 L 833.0,843.0" style="stroke:#010101; fill:none;"/>
	<path d="M 726.0,866.0 L 764.0,844.0" style="stroke:#010101; fill:none;"/>
	<path d="M 79.0,845.0 C 82.239,860.651 89.7325,877.983 99.0,891.0 C 100.667,884.538 94.448,874.548 91.0,869.0" style="stroke:#010101; fill:none;"/>
	<path d="M 773.0,845.0 L 750.0,859.0" style="stroke:#010101; fill:none;"/>
	<path d="M 770.0,856.0 L 789.0,845.0" style="stroke:#010101; fill:none;"/>
	<path d="M 862.0,845.0 L 863.0,845.0" style="stroke:#010101; fill:none;"/>
	<path d="M 815.0,856.0 L 858.0,846.0" style="stroke:#010101; fill:none;"/>
	<path d="M 1123.0,846.0 L 1124.0,847.0" style="stroke:#010101; fill:none;"/>
	<path d="M 698.0,850.0 L 704.0,847.0" style="stroke:#010101; fill:none;"/>
	<path d="M 744.0,847.0 L 728.0,857.0" style="stroke:#010101; fill:none;"/>
	<path d="M 889.0,849.0 L 884.0,849.0 C 888.267,845.942 904.599,847.403 910.0,849.0" style="stroke:#010101; fill:none;"/>
	<path d="M 721.0,851.0 L 730.0,848.0" style="stroke:#010101; fill:none;"/>
	<path d="M 862.0,850.0 L 884.0,848.0" style="stroke:#010101; fill:none;"/>
	<path d="M 693.0,860.0 L 718.0,849.0" style="stroke:#010101; fill:none;"/>
	<path d="M 810.0,863.0 C 818.918,857.114 832.669,858.094 843.0,857.198 C 856.764,856.005 869.463,852.035 883.0,850.0" style="stroke:#010101; fill:none;"/>
	<path d="M 858.0,851.0 L 859.0,851.0" style="stroke:#010101; fill:none;"/>
	<path d="M 1165.0,851.0 L 1165.0,852.0" style="stroke:#010101; fill:none;"/>
	<path d="M 719.0,852.0 L 708.0,859.0" style="stroke:#010101; fill:none;"/>
	<path d="M 838.0,857.0 L 856.0,852.0" style="stroke:#010101; fill:none;"/>
	<path d="M 144.0,853.0 L 132.572,891.0 L 133.948,902.0 L 126.633,931.0 L 122.0,970.0" style="stroke:#010101; fill:none;"/>
	<path d="M 652.0,884.0 C 663.529,872.471 676.372,858.799 692.0,853.0" style="stroke:#010101; fill:none;"/>
	<path d="M 864.0,861.0 L 912.0,854.0" style="stroke:#010101; fill:none;"/>
	<path d="M 1167.0,854.0 C 1173.04,874.367 1192.23,876.652 1208.0,867.0" style="stroke:#010101; fill:none;"/>
	<path d="M 866.0,855.0 L 877.0,855.0" style="stroke:#010101; fill:none;"/>
	<path d="M 1226.0,855.0 C 1223.14,867.07 1217.74,880.445 1209.67,889.996 C 1206.35,893.937 1198.79,896.152 1196.56,900.302 C 1188.93,914.538 1189.39,934.516 1178.73,947.424 C 1172.43,955.05 1160.54,971.89 1149.0,966.0" style="stroke:#010101; fill:none;"/>
	<path d="M 769.0,856.0 L 770.0,856.0" style="stroke:#010101; fill:none;"/>
	<path d="M 923.0,856.0 L 925.0,856.0" style="stroke:#010101; fill:none;"/>
	<path d="M 779.0,862.0 L 794.0,857.0" style="stroke:#010101; fill:none;"/>
	<path d="M 811.0,862.0 C 810.147,859.119 810.468,858.647 813.0,857.0" style="stroke:#010101; fill:none;"/>
	<path d="M 1120.0,857.0 L 1144.0,892.0" style="stroke:#010101; fill:none;"/>
	<path d="M 726.0,858.0 L 723.0,860.0" style="stroke:#010101; fill:none;"/>
	<path d="M 882.0,859.0 L 917.0,858.0" style="stroke:#010101; fill:none;"/>
	<path d="M 706.0,860.0 L 706.0,861.0" style="stroke:#010101; fill:none;"/>
	<path d="M 747.0,860.0 L 744.0,862.0" style="stroke:#010101; fill:none;"/>
	<path d="M 785.0,867.0 L 808.0,859.0" style="stroke:#010101; fill:none;"/>
	<path d="M 905.0,863.0 L 944.0,863.0" style="stroke:#010101; fill:none;"/>
	<path d="M 720.0,862.0 L 708.0,870.0" style="stroke:#010101; fill:none;"/>
	<path d="M 832.0,864.0 L 862.0,862.0" style="stroke:#010101; fill:none;"/>
	<path d="M 83.0,863.0 L 84.0,867.0" style="stroke:#010101; fill:none;"/>
	<path d="M 669.0,880.0 L 690.0,863.0" style="stroke:#010101; fill:none;"/>
	<path d="M 700.0,865.0 L 703.0,863.0" style="stroke:#010101; fill:none;"/>
	<path d="M 772.0,865.0 L 788.0,863.0" style="stroke:#010101; fill:none;"/>
	<path d="M 889.0,864.0 L 903.0,863.0" style="stroke:#010101; fill:none;"/>
	<path d="M 738.0,865.0 L 741.0,864.0" style="stroke:#010101; fill:none;"/>
	<path d="M 1117.0,864.0 C 1125.01,887.472 1146.21,905.346 1150.0,931.0" style="stroke:#010101; fill:none;"/>
	<path d="M 1122.0,866.0 L 1143.0,899.0" style="stroke:#010101; fill:none;"/>
	<path d="M 84.0,867.0 L 84.0,871.0" style="stroke:#010101; fill:none;"/>
	<path d="M 697.0,867.0 L 686.0,875.0" style="stroke:#010101; fill:none;"/>
	<path d="M 724.0,867.0 L 720.0,870.0" style="stroke:#010101; fill:none;"/>
	<path d="M 730.0,870.0 L 736.0,867.0" style="stroke:#010101; fill:none;"/>
	<path d="M 764.0,868.0 L 767.0,867.0" style="stroke:#010101; fill:none;"/>
	<path d="M 94.0,868.0 L 95.0,873.0 L 94.0,874.0" style="stroke:#010101; fill:none;"/>
	<path d="M 360.0,868.0 L 364.0,869.0" style="stroke:#010101; fill:none;"/>
	<path d="M 717.0,871.0 L 712.0,874.0" style="stroke:#010101; fill:none;"/>
	<path d="M 1157.0,871.0 L 1180.0,926.0" style="stroke:#010101; fill:none;"/>
	<path d="M 369.0,872.0 L 378.0,876.0" style="stroke:#010101; fill:none;"/>
	<path d="M 701.0,875.0 L 706.0,872.0" style="stroke:#010101; fill:none;"/>
	<path d="M 142.0,873.0 L 134.0,897.0" style="stroke:#010101; fill:none;"/>
	<path d="M 349.0,873.0 L 354.0,874.0" style="stroke:#010101; fill:none;"/>
	<path d="M 384.0,873.0 L 385.0,873.0" style="stroke:#010101; fill:none;"/>
	<path d="M 720.0,875.0 L 725.0,873.0" style="stroke:#010101; fill:none;"/>
	<path d="M 81.0,874.0 C 83.8354,892.931 96.1497,912.816 104.0,930.0 L 104.0,926.0" style="stroke:#010101; fill:none;"/>
	<path d="M 97.0,874.0 L 99.0,884.0" style="stroke:#010101; fill:none;"/>
	<path d="M 388.0,875.0 L 389.0,875.0" style="stroke:#010101; fill:none;"/>
	<path d="M 357.0,876.0 L 364.0,878.0" style="stroke:#010101; fill:none;"/>
	<path d="M 391.0,876.0 L 415.0,886.0 L 412.0,883.0" style="stroke:#010101; fill:none;"/>
	<path d="M 380.0,877.0 L 388.0,881.0" style="stroke:#010101; fill:none;"/>
	<path d="M 683.0,877.0 L 680.0,879.0" style="stroke:#010101; fill:none;"/>
	<path d="M 695.0,879.0 L 698.0,877.0" style="stroke:#010101; fill:none;"/>
	<path d="M 335.0,878.0 L 374.0,891.0" style="stroke:#010101; fill:none;"/>
	<path d="M 407.0,878.0 L 409.0,880.0" style="stroke:#010101; fill:none;"/>
	<path d="M 367.0,880.0 L 370.0,881.0" style="stroke:#010101; fill:none;"/>
	<path d="M 1118.0,880.0 C 1126.63,900.608 1140.81,916.574 1146.0,939.0" style="stroke:#010101; fill:none;"/>
	<path d="M 425.0,882.0 C 430.879,887.928 437.526,894.241 438.0,903.0" style="stroke:#010101; fill:none;"/>
	<path d="M 667.0,882.0 L 666.0,884.0" style="stroke:#010101; fill:none;"/>
	<path d="M 373.0,883.0 L 378.0,885.0" style="stroke:#010101; fill:none;"/>
	<path d="M 392.0,883.0 L 394.0,884.0" style="stroke:#010101; fill:none;"/>
	<path d="M 102.0,884.0 L 114.0,907.0" style="stroke:#010101; fill:none;"/>
	<path d="M 321.0,885.0 L 323.0,885.0" style="stroke:#010101; fill:none;"/>
	<path d="M 415.0,885.0 L 428.0,898.0" style="stroke:#010101; fill:none;"/>
	<path d="M 396.0,886.0 L 400.0,888.0" style="stroke:#010101; fill:none;"/>
	<path d="M 651.0,886.0 L 649.0,889.0" style="stroke:#010101; fill:none;"/>
	<path d="M 328.0,887.0 L 344.0,890.0" style="stroke:#010101; fill:none;"/>
	<path d="M 382.0,887.0 L 391.0,893.0" style="stroke:#010101; fill:none;"/>
	<path d="M 414.0,887.0 L 416.0,889.0" style="stroke:#010101; fill:none;"/>
	<path d="M 1173.0,888.0 L 1173.0,904.0" style="stroke:#010101; fill:none;"/>
	<path d="M 345.0,903.0 C 334.484,899.054 315.534,899.544 308.0,891.0 C 320.059,886.188 337.657,896.984 350.0,898.0" style="stroke:#010101; fill:none;"/>
	<path d="M 100.0,890.0 L 111.0,912.0" style="stroke:#010101; fill:none;"/>
	<path d="M 402.0,890.0 L 408.0,894.0" style="stroke:#010101; fill:none;"/>
	<path d="M 99.0,891.0 L 103.0,899.0" style="stroke:#010101; fill:none;"/>
	<path d="M 346.0,891.0 L 361.0,895.0" style="stroke:#010101; fill:none;"/>
	<path d="M 647.0,891.0 L 645.0,894.0" style="stroke:#010101; fill:none;"/>
	<path d="M 308.0,892.0 L 290.0,893.0" style="stroke:#010101; fill:none;"/>
	<path d="M 1110.0,892.0 L 1111.0,892.0" style="stroke:#010101; fill:none;"/>
	<path d="M 377.0,893.0 L 379.0,894.0" style="stroke:#010101; fill:none;"/>
	<path d="M 1124.0,894.0 L 1139.0,945.0" style="stroke:#010101; fill:none;"/>
	<path d="M 131.0,896.0 L 133.0,902.0" style="stroke:#010101; fill:none;"/>
	<path d="M 1113.0,896.0 L 1115.0,901.0" style="stroke:#010101; fill:none;"/>
	<path d="M 1163.0,896.0 L 1172.0,945.0" style="stroke:#010101; fill:none;"/>
	<path d="M 258.0,900.0 C 263.852,896.76 269.558,897.959 276.0,898.001 C 291.853,898.103 312.45,900.56 327.0,907.0" style="stroke:#010101; fill:none;"/>
	<path d="M 364.0,897.0 L 370.0,898.0" style="stroke:#010101; fill:none;"/>
	<path d="M 386.0,897.0 L 387.0,898.0" style="stroke:#010101; fill:none;"/>
	<path d="M 103.0,899.0 L 104.0,904.0" style="stroke:#010101; fill:none;"/>
	<path d="M 89.0,900.0 C 83.3231,905.466 85.3117,912.006 87.1543,919.0 C 91.0824,933.911 96.5377,951.049 105.0,964.0" style="stroke:#010101; fill:none;"/>
	<path d="M 352.0,900.0 L 354.0,900.0" style="stroke:#010101; fill:none;"/>
	<path d="M 130.0,901.0 L 132.0,907.0" style="stroke:#010101; fill:none;"/>
	<path d="M 430.0,901.0 L 432.0,904.0" style="stroke:#010101; fill:none;"/>
	<path d="M 357.0,902.0 L 360.0,902.0" style="stroke:#010101; fill:none;"/>
	<path d="M 1116.0,903.0 C 1118.29,910.381 1123.28,916.456 1125.24,924.0 C 1130.61,944.645 1123.87,963.265 1114.0,981.0" style="stroke:#010101; fill:none;"/>
	<path d="M 254.0,907.0 C 272.612,904.598 292.751,908.562 311.0,912.0" style="stroke:#010101; fill:none;"/>
	<path d="M 329.0,907.0 L 330.0,907.0" style="stroke:#010101; fill:none;"/>
	<path d="M 129.0,908.0 L 131.0,913.0" style="stroke:#010101; fill:none;"/>
	<path d="M 126.0,986.0 C 126.828,966.724 131.028,945.544 136.29,927.0 C 138.211,920.229 138.352,911.719 145.0,908.0" style="stroke:#010101; fill:none;"/>
	<path d="M 94.0,911.0 L 95.0,914.0" style="stroke:#010101; fill:none;"/>
	<path d="M 251.0,911.0 L 278.0,914.0 C 261.291,918.939 239.604,912.35 224.0,921.0" style="stroke:#010101; fill:none;"/>
	<path d="M 95.0,914.0 L 98.0,919.0" style="stroke:#010101; fill:none;"/>
	<path d="M 128.0,914.0 L 127.0,926.0" style="stroke:#010101; fill:none;"/>
	<path d="M 278.0,914.0 C 286.742,915.105 296.994,914.075 304.0,920.0" style="stroke:#010101; fill:none;"/>
	<path d="M 1171.0,916.0 L 1175.0,932.0" style="stroke:#010101; fill:none;"/>
	<path d="M 98.0,920.0 L 100.0,920.0" style="stroke:#010101; fill:none;"/>
	<path d="M 617.0,1027.0 C 618.207,1011.73 621.754,996.222 623.87,981.0 C 625.094,972.194 624.606,962.106 628.659,954.0 C 635.445,940.426 650.322,927.922 663.0,920.0" style="stroke:#010101; fill:none;"/>
	<path d="M 99.0,922.0 L 101.0,924.0" style="stroke:#010101; fill:none;"/>
	<path d="M 215.0,928.0 L 244.0,925.0" style="stroke:#010101; fill:none;"/>
	<path d="M 273.0,925.0 L 284.0,926.0" style="stroke:#010101; fill:none;"/>
	<path d="M 286.0,926.0 L 289.0,926.0" style="stroke:#010101; fill:none;"/>
	<path d="M 1199.0,928.0 L 1194.0,948.0" style="stroke:#010101; fill:none;"/>
	<path d="M 107.0,931.0 L 104.0,931.0" style="stroke:#010101; fill:none;"/>
	<path d="M 228.0,930.0 L 241.0,930.0" style="stroke:#010101; fill:none;"/>
	<path d="M 201.0,936.0 C 208.181,931.973 216.863,931.151 225.0,931.0" style="stroke:#010101; fill:none;"/>
	<path d="M 1128.0,931.0 C 1130.98,938.773 1134.45,947.72 1132.0,956.0" style="stroke:#010101; fill:none;"/>
	<path d="M 108.0,932.0 L 112.0,939.0" style="stroke:#010101; fill:none;"/>
	<path d="M 688.0,969.0 C 706.312,956.921 727.773,942.486 749.0,936.427 C 770.981,930.154 791.708,932.517 814.0,934.833 C 828.229,936.312 843.008,935.501 857.0,938.9 C 873.784,942.977 889.515,952.635 905.0,960.0" style="stroke:#010101; fill:none;"/>
	<path d="M 1255.0,932.0 C 1247.47,959.535 1232.37,990.375 1218.0,1015.0" style="stroke:#010101; fill:none;"/>
	<path d="M 105.0,933.0 L 108.0,936.0" style="stroke:#010101; fill:none;"/>
	<path d="M 128.0,997.0 C 132.638,981.344 131.314,963.858 135.85,948.0 C 137.503,942.224 137.732,935.298 144.0,933.0" style="stroke:#010101; fill:none;"/>
	<path d="M 1205.0,936.0 L 1199.0,959.0" style="stroke:#010101; fill:none;"/>
	<path d="M 108.0,937.0 L 109.0,938.0" style="stroke:#010101; fill:none;"/>
	<path d="M 1202.0,937.0 L 1197.0,955.0" style="stroke:#010101; fill:none;"/>
	<path d="M 1216.0,937.0 L 1216.0,938.0" style="stroke:#010101; fill:none;"/>
	<path d="M 1238.0,937.0 L 1219.0,992.0" style="stroke:#010101; fill:none;"/>
	<path d="M 109.0,938.0 L 109.0,940.0" style="stroke:#010101; fill:none;"/>
	<path d="M 1232.0,938.0 L 1214.0,989.0" style="stroke:#010101; fill:none;"/>
	<path d="M 194.0,941.0 L 215.0,939.0" style="stroke:#010101; fill:none;"/>
	<path d="M 1215.0,940.0 L 1204.0,970.0" style="stroke:#010101; fill:none;"/>
	<path d="M 1220.0,940.0 L 1210.0,971.0" style="stroke:#010101; fill:none;"/>
	<path d="M 774.0,944.0 C 790.472,944.0 810.116,942.127 826.0,947.14 C 850.602,954.904 875.732,971.458 902.0,972.0" style="stroke:#010101; fill:none;"/>
	<path d="M 832.0,951.0 C 833.809,960.601 835.04,975.278 823.946,980.486 C 807.85,988.042 782.828,982.452 766.0,982.596 C 736.711,982.846 708.766,987.582 681.0,997.0 L 679.0,993.0 C 706.441,976.817 734.601,949.441 767.0,945.0" style="stroke:#010101; fill:none;"/>
	<path d="M 193.0,947.0 L 195.0,947.0" style="stroke:#010101; fill:none;"/>
	<path d="M 766.0,947.0 C 758.102,960.584 761.477,967.675 767.0,981.0" style="stroke:#010101; fill:none;"/>
	<path d="M 1181.0,947.0 C 1193.53,958.048 1197.77,972.421 1202.01,988.0 C 1203.46,993.313 1206.44,1001.49 1205.11,1007.0 C 1204.21,1010.73 1200.67,1013.49 1199.1,1017.0 C 1194.28,1027.79 1190.77,1039.55 1187.9,1051.0 C 1182.85,1071.1 1181.59,1092.11 1176.0,1112.0" style="stroke:#010101; fill:none;"/>
	<path d="M 799.001,950.681 C 811.941,949.529 806.827,971.792 795.005,972.796 C 785.403,973.611 792.189,951.288 799.001,950.681" style="stroke:#010101; fill:none;"/>
	<path d="M 1264.0,950.0 C 1262.06,961.288 1262.67,972.778 1259.23,984.0 C 1252.34,1006.43 1236.87,1019.36 1219.0,1033.0" style="stroke:#010101; fill:none;"/>
	<path d="M 931.0,979.0 C 956.344,977.912 976.777,966.498 999.0,956.0" style="stroke:#010101; fill:none;"/>
	<path d="M 133.0,1011.0 C 133.275,997.654 133.831,983.073 136.662,970.0 C 137.782,964.829 138.423,958.756 144.0,957.0" style="stroke:#010101; fill:none;"/>
	<path d="M 501.0,958.0 L 516.0,1025.0" style="stroke:#010101; fill:none;"/>
	<path d="M 1253.0,965.0 L 1252.0,967.0" style="stroke:#010101; fill:none;"/>
	<path d="M 873.0,966.0 C 864.005,972.656 839.19,981.82 828.0,979.0" style="stroke:#010101; fill:none;"/>
	<path d="M 1284.0,967.0 L 1264.0,1073.0" style="stroke:#010101; fill:none;"/>
	<path d="M 911.0,972.0 L 923.0,970.0" style="stroke:#010101; fill:none;"/>
	<path d="M 1251.0,970.0 L 1222.0,1018.0" style="stroke:#010101; fill:none;"/>
	<path d="M 109.0,971.0 C 102.234,977.4 93.9866,980.791 85.0,977.0" style="stroke:#010101; fill:none;"/>
	<path d="M 387.0,976.0 C 394.988,981.532 408.293,994.163 394.945,1003.11 C 392.049,1005.05 388.31,1005.2 385.0,1006.0 L 383.357,986.603 L 375.0,983.0 C 383.733,973.817 393.721,974.586 405.0,972.741 C 436.389,967.604 471.57,985.574 498.0,1001.0" style="stroke:#010101; fill:none;"/>
	<path d="M 661.0,1037.0 C 652.863,1030.44 635.732,1016.66 639.693,1004.04 C 641.168,999.341 648.131,995.954 652.0,993.424 C 662.725,986.412 672.54,978.282 683.0,971.0" style="stroke:#010101; fill:none;"/>
	<path d="M 365.0,977.0 L 364.0,975.0 L 385.0,976.0" style="stroke:#010101; fill:none;"/>
	<path d="M 409.0,974.0 C 429.169,977.978 447.158,985.99 465.0,995.997 C 468.251,997.821 481.82,1002.27 481.079,1006.96 C 480.368,1011.45 471.072,1010.0 468.0,1010.0 C 457.68,1009.98 447.374,1009.0 437.0,1009.0 C 433.278,1009.0 427.486,1010.04 424.188,1007.97 C 420.568,1005.7 422.679,1001.32 423.103,998.0 C 424.037,990.683 420.628,984.855 419.0,978.0" style="stroke:#010101; fill:none;"/>
	<path d="M 268.0,1021.0 C 273.83,1016.25 279.998,1011.05 284.526,1005.0 C 286.857,1001.89 287.853,997.185 291.224,994.988 C 295.107,992.458 300.707,993.109 305.0,991.42 C 322.837,984.401 343.614,976.402 363.0,976.0" style="stroke:#010101; fill:none;"/>
	<path d="M 363.0,977.0 C 359.573,979.624 354.159,981.11 352.028,985.055 C 347.211,993.968 353.519,1012.87 363.004,1016.4 C 367.062,1017.9 371.848,1016.27 376.0,1016.04 C 389.225,1015.3 409.796,1014.4 421.0,1007.0" style="stroke:#010101; fill:none;"/>
	<path d="M 360.0,1015.0 L 343.0,1017.0 L 304.0,1015.0 C 311.792,998.287 332.347,983.957 351.0,983.0" style="stroke:#010101; fill:none;"/>
	<path d="M 141.0,989.0 L 139.0,1014.0" style="stroke:#010101; fill:none;"/>
	<path d="M 922.0,990.0 L 939.0,994.561 L 970.0,1001.0" style="stroke:#010101; fill:none;"/>
	<path d="M 744.0,990.0 L 771.0,990.0" style="stroke:#010101; fill:none;"/>
	<path d="M 307.0,992.0 L 309.0,992.0" style="stroke:#010101; fill:none;"/>
	<path d="M 678.0,993.0 L 679.0,997.0" style="stroke:#010101; fill:none;"/>
	<path d="M 1244.0,995.0 L 1230.0,1016.0" style="stroke:#010101; fill:none;"/>
	<path d="M 312.0,1003.0 C 311.74,999.651 312.802,998.941 316.0,998.0" style="stroke:#010101; fill:none;"/>
	<path d="M 312.0,999.0 L 315.0,1002.0" style="stroke:#010101; fill:none;"/>
	<path d="M 291.0,1020.0 L 310.0,1001.0" style="stroke:#010101; fill:none;"/>
	<path d="M 381.0,1006.0 L 383.0,1006.0" style="stroke:#010101; fill:none;"/>
	<path d="M 1206.0,1010.0 C 1206.93,1021.77 1208.83,1034.17 1208.41,1046.0 C 1208.08,1054.99 1204.81,1066.25 1208.74,1074.87 C 1212.89,1083.96 1224.06,1072.1 1226.96,1068.0 C 1229.21,1064.81 1231.02,1061.35 1233.0,1058.0" style="stroke:#010101; fill:none;"/>
	<path d="M 913.0,1017.0 L 895.0,1034.0 C 902.621,1038.07 910.966,1035.13 919.0,1034.17 C 928.775,1033.01 938.181,1034.0 948.0,1034.0" style="stroke:#010101; fill:none;"/>
	<path d="M 306.0,1019.0 L 319.0,1021.0" style="stroke:#010101; fill:none;"/>
	<path d="M 321.0,1022.0 L 325.0,1023.0" style="stroke:#010101; fill:none;"/>
	<path d="M 269.0,1038.0 L 294.0,1023.0" style="stroke:#010101; fill:none;"/>
	<path d="M 807.0,1059.0 C 812.92,1059.76 819.003,1061.9 825.0,1061.74 C 851.249,1061.05 872.373,1045.21 895.0,1034.0" style="stroke:#010101; fill:none;"/>
	<path d="M 516.0,1043.0 C 515.458,1069.28 508.157,1097.92 513.0,1124.0" style="stroke:#010101; fill:none;"/>
	<path d="M 158.0,1049.0 C 159.435,1059.65 163.928,1069.66 166.623,1080.0 C 174.353,1109.65 183.174,1139.63 187.572,1170.0 C 191.508,1197.18 196.515,1224.78 199.816,1252.0 C 205.139,1295.9 208.681,1340.26 220.746,1383.0 C 227.44,1406.72 240.159,1428.94 250.892,1451.0 C 264.463,1478.89 276.78,1506.0 294.004,1532.0 C 309.201,1554.94 324.676,1578.95 342.439,1600.0 C 361.33,1622.39 383.642,1641.87 402.812,1664.0 C 405.525,1667.13 406.374,1671.32 408.934,1674.35 C 411.118,1676.94 414.949,1677.7 417.424,1680.14 C 427.5,1690.1 436.884,1700.91 446.285,1711.44 C 457.937,1724.49 474.293,1737.36 488.0,1748.58 C 494.773,1754.12 504.459,1758.65 508.0,1767.0 L 509.0,1764.0" style="stroke:#010101; fill:none;"/>
	<path d="M 1198.0,1049.0 C 1197.08,1093.78 1183.18,1142.78 1172.0,1186.0" style="stroke:#010101; fill:none;"/>
	<path d="M 281.0,1053.0 L 303.0,1069.0" style="stroke:#010101; fill:none;"/>
	<path d="M 416.0,1072.0 L 453.0,1054.0" style="stroke:#010101; fill:none;"/>
	<path d="M 859.0,1062.0 L 883.0,1068.0" style="stroke:#010101; fill:none;"/>
	<path d="M 337.0,1091.0 C 358.853,1092.27 377.288,1081.75 398.0,1077.0" style="stroke:#010101; fill:none;"/>
	<path d="M 300.0,1082.0 C 325.482,1100.25 352.32,1099.12 382.0,1093.0" style="stroke:#010101; fill:none;"/>
	<path d="M 270.0,1093.0 L 287.0,1088.0" style="stroke:#010101; fill:none;"/>
	<path d="M 632.0,1091.0 C 632.002,1110.31 640.83,1123.92 652.0,1139.0" style="stroke:#010101; fill:none;"/>
	<path d="M 276.0,1105.0 L 288.0,1098.0" style="stroke:#010101; fill:none;"/>
	<path d="M 398.0,1134.0 L 383.0,1145.0" style="stroke:#010101; fill:none;"/>
	<path d="M 511.0,1141.0 L 495.0,1174.0" style="stroke:#010101; fill:none;"/>
	<path d="M 502.0,1174.0 C 492.595,1181.23 489.335,1191.43 484.989,1202.0 C 476.918,1221.62 464.846,1243.88 462.0,1265.0" style="stroke:#010101; fill:none;"/>
	<path d="M 1177.0,1186.0 C 1177.0,1195.32 1172.57,1208.68 1177.0,1217.0" style="stroke:#010101; fill:none;"/>
	<path d="M 676.0,1201.0 C 693.998,1194.26 707.838,1208.17 717.0,1222.0" style="stroke:#010101; fill:none;"/>
	<path d="M 656.0,1205.0 L 657.0,1208.0" style="stroke:#010101; fill:none;"/>
	<path d="M 659.0,1212.0 C 659.977,1224.38 663.098,1237.05 657.647,1249.0 C 653.795,1257.45 645.37,1263.25 638.0,1268.41 C 620.677,1280.55 602.751,1289.82 581.0,1288.0" style="stroke:#010101; fill:none;"/>
	<path d="M 721.0,1221.0 C 725.813,1238.6 733.373,1256.12 715.0,1268.78 C 711.29,1271.33 707.146,1273.27 703.0,1275.0" style="stroke:#010101; fill:none;"/>
	<path d="M 1175.0,1233.0 C 1169.31,1242.29 1170.13,1257.29 1168.72,1268.0 C 1165.69,1291.03 1161.64,1313.92 1159.17,1337.0 C 1157.72,1350.53 1157.24,1369.23 1150.0,1381.0" style="stroke:#010101; fill:none;"/>
	<path d="M 477.0,1240.0 C 477.0,1254.69 477.124,1266.57 486.0,1279.0" style="stroke:#010101; fill:none;"/>
	<path d="M 509.0,1261.0 C 522.461,1277.7 532.6,1284.0 554.0,1284.0" style="stroke:#010101; fill:none;"/>
	<path d="M 463.0,1273.0 C 456.398,1295.35 492.492,1313.1 510.0,1303.0 L 495.0,1290.0" style="stroke:#010101; fill:none;"/>
	<path d="M 510.0,1303.0 C 535.798,1311.16 558.628,1331.14 588.0,1322.43 C 624.9,1311.49 652.019,1267.12 695.0,1277.0" style="stroke:#010101; fill:none;"/>
	<path d="M 1193.0,1341.0 L 1193.0,1395.0 C 1193.0,1401.49 1190.77,1410.78 1192.58,1416.9 C 1193.96,1421.57 1199.34,1425.72 1201.85,1430.0 C 1210.2,1444.29 1219.15,1458.28 1226.74,1473.0 C 1233.33,1485.76 1241.33,1512.89 1256.0,1518.0 C 1253.33,1538.71 1244.64,1558.13 1238.72,1578.0 C 1225.32,1622.99 1210.05,1668.67 1187.69,1710.0 C 1173.23,1736.73 1158.31,1763.1 1144.11,1790.0 C 1137.72,1802.1 1129.46,1815.15 1125.0,1828.0" style="stroke:#010101; fill:none;"/>
	<path d="M 1238.0,1374.0 C 1240.47,1388.33 1250.57,1401.47 1254.1,1416.0 C 1262.62,1451.07 1261.49,1481.68 1257.0,1517.0" style="stroke:#010101; fill:none;"/>
	<path d="M 878.0,1384.0 L 868.71,1422.0 L 860.0,1454.0" style="stroke:#010101; fill:none;"/>
	<path d="M 479.0,1415.0 L 549.0,1398.33 L 605.0,1402.54 L 675.0,1391.09 L 717.0,1393.91 L 776.0,1393.0" style="stroke:#010101; fill:none;"/>
	<path d="M 717.0,1427.0 C 716.504,1423.07 713.916,1413.98 717.603,1411.03 C 722.432,1407.17 735.975,1408.37 742.0,1407.84 C 761.7,1406.12 781.452,1401.35 801.0,1400.0" style="stroke:#010101; fill:none;"/>
	<path d="M 793.0,1403.0 C 790.966,1408.93 785.501,1412.74 781.0,1416.91 C 767.991,1428.96 748.106,1439.3 731.0,1444.1 C 723.872,1446.1 720.511,1439.24 714.0,1446.0 C 718.475,1449.68 720.862,1449.08 726.0,1447.0" style="stroke:#010101; fill:none;"/>
	<path d="M 748.0,1408.0 C 747.994,1417.59 745.739,1425.93 750.0,1435.0" style="stroke:#010101; fill:none;"/>
	<path d="M 566.0,1447.0 C 566.017,1440.7 564.829,1426.07 570.303,1421.86 C 579.8,1414.56 600.29,1422.29 611.0,1421.97 C 645.903,1420.94 680.768,1411.0 716.0,1411.0" style="stroke:#010101; fill:none;"/>
	<path d="M 1151.0,1411.0 C 1148.85,1428.03 1146.38,1445.94 1140.07,1462.0 C 1126.33,1497.0 1099.99,1528.35 1073.99,1555.0 C 1007.37,1623.29 929.126,1680.94 849.0,1732.24 C 802.584,1761.96 756.851,1791.5 702.0,1802.45 C 653.489,1812.13 603.178,1808.63 557.0,1790.31 C 540.689,1783.84 523.776,1777.5 511.0,1765.0" style="stroke:#010101; fill:none;"/>
	<path d="M 672.0,1416.0 L 679.0,1437.0" style="stroke:#010101; fill:none;"/>
	<path d="M 565.0,1430.0 C 562.573,1425.14 561.466,1421.51 568.0,1421.0" style="stroke:#010101; fill:none;"/>
	<path d="M 1192.0,1421.0 L 1193.0,1428.0 L 1197.0,1424.0" style="stroke:#010101; fill:none;"/>
	<path d="M 457.0,1422.0 L 474.91,1426.28 L 495.0,1444.0 L 495.0,1425.0 C 503.324,1426.32 520.895,1420.85 527.721,1425.69 C 534.703,1430.65 531.0,1452.34 531.0,1460.0" style="stroke:#010101; fill:none;"/>
	<path d="M 529.0,1425.0 L 562.0,1422.0" style="stroke:#010101; fill:none;"/>
	<path d="M 619.0,1423.0 L 620.0,1461.0" style="stroke:#010101; fill:none;"/>
	<path d="M 612.0,1424.0 L 616.0,1430.0" style="stroke:#010101; fill:none;"/>
	<path d="M 479.0,1426.0 L 494.0,1426.0" style="stroke:#010101; fill:none;"/>
	<path d="M 508.0,1427.0 L 513.0,1448.0" style="stroke:#010101; fill:none;"/>
	<path d="M 454.0,1428.0 L 434.0,1455.0" style="stroke:#010101; fill:none;"/>
	<path d="M 1192.0,1429.0 C 1192.0,1479.24 1176.93,1527.6 1159.06,1574.0 C 1131.76,1644.89 1096.01,1714.12 1038.0,1765.29 C 1019.17,1781.89 1001.48,1799.6 981.0,1814.29 C 972.702,1820.24 966.575,1827.99 956.0,1828.0" style="stroke:#010101; fill:none;"/>
	<path d="M 746.0,1430.0 L 748.0,1433.0" style="stroke:#010101; fill:none;"/>
	<path d="M 496.0,1444.0 C 509.178,1460.96 527.565,1463.68 547.0,1470.52 C 577.038,1481.09 603.175,1491.91 635.0,1483.15 C 647.39,1479.74 658.485,1475.23 670.0,1469.59 C 673.768,1467.75 679.742,1466.75 681.972,1462.87 C 684.064,1459.23 682.91,1453.82 682.0,1450.0" style="stroke:#010101; fill:none;"/>
	<path d="M 683.0,1463.0 C 695.675,1461.73 704.449,1453.45 714.0,1446.0" style="stroke:#010101; fill:none;"/>
	<path d="M 565.0,1449.0 C 564.95,1454.99 561.534,1464.61 565.718,1469.7 C 570.969,1476.09 582.067,1473.57 589.0,1473.09 C 610.318,1471.62 629.584,1465.0 651.0,1465.0 L 656.0,1473.0" style="stroke:#010101; fill:none;"/>
	<path d="M 465.0,1451.0 C 471.674,1466.47 485.726,1479.99 498.004,1491.17 C 525.321,1516.05 560.064,1548.9 599.0,1552.0" style="stroke:#010101; fill:none;"/>
	<path d="M 684.0,1451.0 L 704.0,1453.0" style="stroke:#010101; fill:none;"/>
	<path d="M 711.0,1451.0 L 717.0,1450.0" style="stroke:#010101; fill:none;"/>
	<path d="M 508.0,1454.0 C 513.256,1453.5 516.214,1454.9 518.0,1460.0" style="stroke:#010101; fill:none;"/>
	<path d="M 652.0,1464.0 C 661.518,1464.0 673.429,1459.13 682.0,1464.0" style="stroke:#010101; fill:none;"/>
	<path d="M 549.0,1471.0 L 563.0,1465.0" style="stroke:#010101; fill:none;"/>
	<path d="M 632.0,1466.0 L 628.0,1477.0" style="stroke:#010101; fill:none;"/>
	<path d="M 599.0,1474.0 L 600.0,1481.0" style="stroke:#010101; fill:none;"/>
	<path d="M 750.0,1505.0 C 742.193,1515.21 730.132,1522.73 719.0,1528.86 C 687.748,1546.07 642.66,1557.62 607.0,1551.0" style="stroke:#010101; fill:none;"/>
	<path d="M 1018.0,1679.0 C 1041.66,1649.65 1062.68,1618.97 1082.58,1587.0 C 1091.56,1572.57 1098.81,1549.75 1112.0,1539.0" style="stroke:#010101; fill:none;"/>
	<path d="M 614.0,1638.0 L 615.0,1638.0" style="stroke:#010101; fill:none;"/>
	<path d="M 606.0,1639.0 L 607.0,1639.0" style="stroke:#010101; fill:none;"/>
	<path d="M 610.0,1639.0 L 611.0,1639.0" style="stroke:#010101; fill:none;"/>
	<path d="M 673.0,1639.0 L 675.0,1639.0" style="stroke:#010101; fill:none;"/>
	<path d="M 682.0,1640.0 L 684.0,1640.0" style="stroke:#010101; fill:none;"/>
	<path d="M 688.0,1641.0 L 689.0,1641.0" style="stroke:#010101; fill:none;"/>
	<path d="M 590.0,1642.0 L 591.0,1642.0" style="stroke:#010101; fill:none;"/>
	<path d="M 691.0,1642.0 C 704.03,1643.92 716.21,1651.86 727.0,1659.0" style="stroke:#010101; fill:none;"/>
	<path d="M 545.0,1655.0 C 556.838,1645.91 572.303,1643.01 587.0,1643.0" style="stroke:#010101; fill:none;"/>
	<path d="M 542.0,1658.0 L 541.0,1659.0" style="stroke:#010101; fill:none;"/>
	<path d="M 729.0,1660.0 L 735.0,1665.0" style="stroke:#010101; fill:none;"/>
	<path d="M 738.0,1667.0 L 741.0,1670.0" style="stroke:#010101; fill:none;"/>
	<path d="M 850.0,1672.0 L 849.0,1674.0" style="stroke:#010101; fill:none;"/>
	<path d="M 408.0,1675.0 C 402.738,1678.48 396.421,1678.31 391.0,1681.55 C 372.215,1692.78 355.247,1707.26 336.0,1717.69 C 279.45,1748.35 214.927,1773.44 153.0,1790.84 C 137.239,1795.28 121.059,1795.86 105.0,1798.44 C 70.4537,1803.99 33.3708,1811.4 1.0,1825.0" style="stroke:#010101; fill:none;"/>
	<path d="M 847.0,1678.0 L 844.0,1685.0" style="stroke:#010101; fill:none;"/>
	<path d="M 1017.0,1681.0 L 1014.0,1684.0" style="stroke:#010101; fill:none;"/>
	<path d="M 842.0,1688.0 C 833.786,1704.76 822.934,1719.6 810.0,1733.0" style="stroke:#010101; fill:none;"/>
	<path d="M 1011.0,1688.0 L 1008.0,1692.0" style="stroke:#010101; fill:none;"/>
	<path d="M 1006.0,1694.0 L 1002.0,1699.0" style="stroke:#010101; fill:none;"/>
	<path d="M 1000.0,1701.0 L 998.0,1704.0" style="stroke:#010101; fill:none;"/>
	<path d="M 995.0,1707.0 L 994.0,1708.0" style="stroke:#010101; fill:none;"/>
	<path d="M 992.0,1711.0 L 988.0,1715.0" style="stroke:#010101; fill:none;"/>
	<path d="M 445.0,1714.0 C 432.449,1757.58 396.643,1793.03 370.0,1828.0" style="stroke:#010101; fill:none;"/>
	<path d="M 985.0,1719.0 L 984.0,1721.0" style="stroke:#010101; fill:none;"/>
	<path d="M 980.0,1724.0 L 979.0,1726.0" style="stroke:#010101; fill:none;"/>
	<path d="M 975.0,1730.0 L 974.0,1732.0" style="stroke:#010101; fill:none;"/>
	<path d="M 965.0,1741.0 L 964.0,1742.0" style="stroke:#010101; fill:none;"/>
	<path d="M 480.0,1744.0 L 488.193,1774.0 L 497.0,1828.0" style="stroke:#010101; fill:none;"/>
	<path d="M 507.0,1768.0 L 541.0,1828.0" style="stroke:#010101; fill:none;"/>
	<path d="M 0.0,1825.0 L 1.0,1825.0" style="stroke:#010101; fill:none;"/>
</svg>
