<?xml version="1.0" ?>
<svg baseProfile="full" height="1626" version="1.1" width="2232" xmlns="http://www.w3.org/2000/svg" xmlns:ev="http://www.w3.org/2001/xml-events" xmlns:xlink="http://www.w3.org/1999/xlink">
	<defs/>
	<path d="M 1106.0,314.0 L 1106.0,315.0" style="stroke:#050105; fill:none;"/>
	<path d="M 1114.0,329.0 L 1114.0,331.0" style="stroke:#050105; fill:none;"/>
	<path d="M 1121.0,340.0 L 1122.0,340.0" style="stroke:#050105; fill:none;"/>
	<path d="M 1174.0,425.0 L 1175.0,426.0" style="stroke:#050105; fill:none;"/>
	<path d="M 1180.0,433.0 L 1180.0,434.0" style="stroke:#050105; fill:none;"/>
	<path d="M 1218.0,489.0 L 1219.0,490.0" style="stroke:#050105; fill:none;"/>
	<path d="M 1147.0,557.0 L 1146.0,559.0" style="stroke:#050105; fill:none;"/>
	<path d="M 1130.0,568.0 L 1131.0,568.0" style="stroke:#050105; fill:none;"/>
	<path d="M 1122.0,575.0 L 1120.0,577.0" style="stroke:#050105; fill:none;"/>
	<path d="M 1107.0,607.0 L 1106.0,608.0" style="stroke:#050105; fill:none;"/>
	<path d="M 1102.0,615.0 L 1101.0,616.0" style="stroke:#050105; fill:none;"/>
	<path d="M 1211.0,654.0 L 1212.0,651.0 L 1216.0,652.0" style="stroke:#050105; fill:none;"/>
	<path d="M 1213.0,652.0 L 1213.0,654.0" style="stroke:#050105; fill:none;"/>
	<path d="M 1222.0,652.0 L 1222.0,654.0" style="stroke:#050105; fill:none;"/>
	<path d="M 1191.0,654.0 L 1192.0,654.0" style="stroke:#050105; fill:none;"/>
	<path d="M 1227.0,655.0 L 1231.0,655.0" style="stroke:#050105; fill:none;"/>
	<path d="M 1182.0,656.0 L 1183.0,656.0" style="stroke:#050105; fill:none;"/>
	<path d="M 1245.0,656.0 L 1244.0,660.0" style="stroke:#050105; fill:none;"/>
	<path d="M 1172.0,657.0 L 1172.0,659.0" style="stroke:#050105; fill:none;"/>
	<path d="M 1178.0,657.0 L 1180.0,657.0" style="stroke:#050105; fill:none;"/>
	<path d="M 1207.0,658.0 L 1210.0,658.0" style="stroke:#050105; fill:none;"/>
	<path d="M 1170.0,659.0 L 1168.0,660.0" style="stroke:#050105; fill:none;"/>
	<path d="M 1214.0,659.0 L 1216.0,659.0" style="stroke:#050105; fill:none;"/>
	<path d="M 1207.0,662.0 L 1206.0,668.0" style="stroke:#050105; fill:none;"/>
	<path d="M 1213.0,662.0 L 1214.0,664.0" style="stroke:#050105; fill:none;"/>
	<path d="M 1250.0,662.0 L 1251.0,662.0" style="stroke:#050105; fill:none;"/>
	<path d="M 1217.0,663.0 L 1218.0,663.0" style="stroke:#050105; fill:none;"/>
	<path d="M 1223.0,664.0 L 1223.0,665.0" style="stroke:#050105; fill:none;"/>
	<path d="M 1160.0,665.0 L 1157.0,667.0" style="stroke:#050105; fill:none;"/>
	<path d="M 1262.0,665.0 L 1258.0,671.0" style="stroke:#050105; fill:none;"/>
	<path d="M 1189.0,666.0 L 1190.0,674.0" style="stroke:#050105; fill:none;"/>
	<path d="M 1210.0,666.0 L 1211.0,667.0" style="stroke:#050105; fill:none;"/>
	<path d="M 1238.0,666.0 L 1236.0,668.0" style="stroke:#050105; fill:none;"/>
	<path d="M 1220.0,668.0 L 1220.0,669.0" style="stroke:#050105; fill:none;"/>
	<path d="M 1275.0,669.0 L 1277.0,669.0" style="stroke:#050105; fill:none;"/>
	<path d="M 1147.0,673.0 L 1144.0,675.0" style="stroke:#050105; fill:none;"/>
	<path d="M 1186.0,673.0 L 1184.0,682.0" style="stroke:#050105; fill:none;"/>
	<path d="M 1288.0,673.0 L 1282.0,681.0" style="stroke:#050105; fill:none;"/>
	<path d="M 1270.0,674.0 L 1266.0,678.0" style="stroke:#050105; fill:none;"/>
	<path d="M 1205.0,675.0 L 1206.0,680.0" style="stroke:#050105; fill:none;"/>
	<path d="M 1219.0,676.0 L 1223.0,676.0" style="stroke:#050105; fill:none;"/>
	<path d="M 1226.0,675.0 L 1231.0,675.0" style="stroke:#050105; fill:none;"/>
	<path d="M 1155.0,676.0 L 1155.0,677.0" style="stroke:#050105; fill:none;"/>
	<path d="M 1255.0,676.0 L 1254.0,677.0" style="stroke:#050105; fill:none;"/>
	<path d="M 1206.0,678.0 L 1215.0,677.0" style="stroke:#050105; fill:none;"/>
	<path d="M 1190.0,678.0 L 1190.0,679.0" style="stroke:#050105; fill:none;"/>
	<path d="M 1199.0,681.0 L 1203.0,679.0 L 1203.0,681.0" style="stroke:#050105; fill:none;"/>
	<path d="M 1136.0,680.0 L 1135.0,681.0" style="stroke:#050105; fill:none;"/>
	<path d="M 1240.0,680.0 L 1242.0,680.0" style="stroke:#050105; fill:none;"/>
	<path d="M 1262.0,680.0 L 1258.0,682.0" style="stroke:#050105; fill:none;"/>
	<path d="M 1192.0,681.0 L 1193.0,681.0" style="stroke:#050105; fill:none;"/>
	<path d="M 1254.0,682.0 L 1254.0,684.0 L 1254.0,682.0" style="stroke:#050105; fill:none;"/>
	<path d="M 1188.0,683.0 L 1170.0,693.0" style="stroke:#050105; fill:none;"/>
	<path d="M 1245.0,683.0 C 1247.77,685.744 1249.5,685.577 1253.0,684.0" style="stroke:#050105; fill:none;"/>
	<path d="M 1278.0,683.0 L 1273.0,688.0" style="stroke:#050105; fill:none;"/>
	<path d="M 1241.0,685.0 L 1240.0,686.0" style="stroke:#050105; fill:none;"/>
	<path d="M 1299.0,685.0 L 1297.0,687.0" style="stroke:#050105; fill:none;"/>
	<path d="M 1129.0,686.0 L 1129.0,687.0" style="stroke:#050105; fill:none;"/>
	<path d="M 1181.0,686.0 L 1181.0,688.0" style="stroke:#050105; fill:none;"/>
	<path d="M 1170.0,688.0 L 1171.0,688.0" style="stroke:#050105; fill:none;"/>
	<path d="M 1253.0,690.0 L 1254.0,692.0" style="stroke:#050105; fill:none;"/>
	<path d="M 1289.0,694.0 L 1294.0,690.0" style="stroke:#050105; fill:none;"/>
	<path d="M 1263.0,695.0 L 1262.0,696.0" style="stroke:#050105; fill:none;"/>
	<path d="M 1165.0,698.0 L 1168.0,696.0" style="stroke:#050105; fill:none;"/>
	<path d="M 1202.0,696.0 L 1201.0,697.0" style="stroke:#050105; fill:none;"/>
	<path d="M 1214.0,696.0 L 1215.0,696.0" style="stroke:#050105; fill:none;"/>
	<path d="M 1257.0,696.0 L 1259.0,698.0" style="stroke:#050105; fill:none;"/>
	<path d="M 1286.0,696.0 L 1286.0,697.0" style="stroke:#050105; fill:none;"/>
	<path d="M 1152.0,697.0 L 1152.0,699.0" style="stroke:#050105; fill:none;"/>
	<path d="M 1191.0,698.0 L 1193.0,698.0" style="stroke:#050105; fill:none;"/>
	<path d="M 1195.0,698.0 L 1196.0,698.0" style="stroke:#050105; fill:none;"/>
	<path d="M 1256.0,698.0 L 1257.0,698.0" style="stroke:#050105; fill:none;"/>
	<path d="M 1184.0,699.0 L 1188.0,699.0" style="stroke:#050105; fill:none;"/>
	<path d="M 1241.0,700.0 L 1243.0,702.0" style="stroke:#050105; fill:none;"/>
	<path d="M 1160.0,701.0 L 1161.0,701.0" style="stroke:#050105; fill:none;"/>
	<path d="M 1174.0,703.0 L 1173.0,704.0" style="stroke:#050105; fill:none;"/>
	<path d="M 1152.0,706.0 L 1154.0,705.0" style="stroke:#050105; fill:none;"/>
	<path d="M 1248.0,706.0 L 1253.0,711.0" style="stroke:#050105; fill:none;"/>
	<path d="M 1265.0,708.0 L 1266.0,709.0" style="stroke:#050105; fill:none;"/>
	<path d="M 1149.0,709.0 L 1141.0,719.0 L 1143.0,717.0" style="stroke:#050105; fill:none;"/>
	<path d="M 1255.0,715.0 L 1258.0,715.0" style="stroke:#050105; fill:none;"/>
	<path d="M 1190.0,717.0 L 1195.0,717.0" style="stroke:#050105; fill:none;"/>
	<path d="M 1258.0,718.0 L 1263.0,723.0" style="stroke:#050105; fill:none;"/>
	<path d="M 1201.0,719.0 L 1203.0,720.0" style="stroke:#050105; fill:none;"/>
	<path d="M 1140.0,720.0 L 1132.0,734.0" style="stroke:#050105; fill:none;"/>
	<path d="M 1198.0,721.0 L 1201.0,725.0" style="stroke:#050105; fill:none;"/>
	<path d="M 1205.0,725.0 L 1205.0,726.0" style="stroke:#050105; fill:none;"/>
	<path d="M 1125.0,727.0 L 1125.0,728.0" style="stroke:#050105; fill:none;"/>
	<path d="M 1205.0,728.0 L 1208.0,735.0" style="stroke:#050105; fill:none;"/>
	<path d="M 1131.0,733.0 L 1128.0,737.0" style="stroke:#050105; fill:none;"/>
	<path d="M 1164.0,733.0 L 1165.0,735.0" style="stroke:#050105; fill:none;"/>
	<path d="M 1269.0,738.0 L 1269.0,739.0" style="stroke:#050105; fill:none;"/>
	<path d="M 1295.0,738.0 L 1296.0,738.0" style="stroke:#050105; fill:none;"/>
	<path d="M 1300.0,738.0 L 1302.0,738.0" style="stroke:#050105; fill:none;"/>
	<path d="M 1304.0,738.0 L 1305.0,738.0" style="stroke:#050105; fill:none;"/>
	<path d="M 1168.0,741.0 L 1169.0,741.0" style="stroke:#050105; fill:none;"/>
	<path d="M 1198.0,741.0 L 1209.0,741.0" style="stroke:#050105; fill:none;"/>
	<path d="M 1171.0,743.0 L 1171.0,746.0" style="stroke:#050105; fill:none;"/>
	<path d="M 1254.0,743.0 L 1254.0,746.0" style="stroke:#050105; fill:none;"/>
	<path d="M 1208.0,744.0 L 1211.0,744.0" style="stroke:#050105; fill:none;"/>
	<path d="M 1120.0,746.0 L 1121.0,746.0" style="stroke:#050105; fill:none;"/>
	<path d="M 1267.0,748.0 L 1267.0,749.0" style="stroke:#050105; fill:none;"/>
	<path d="M 1119.0,750.0 L 1119.0,751.0" style="stroke:#050105; fill:none;"/>
	<path d="M 1173.0,751.0 L 1175.0,752.0" style="stroke:#050105; fill:none;"/>
	<path d="M 1088.0,755.0 L 1088.0,756.0" style="stroke:#050105; fill:none;"/>
	<path d="M 1181.0,757.0 L 1185.0,761.0" style="stroke:#050105; fill:none;"/>
	<path d="M 1188.0,764.0 L 1188.0,765.0" style="stroke:#050105; fill:none;"/>
	<path d="M 1244.0,770.0 L 1245.0,770.0" style="stroke:#050105; fill:none;"/>
	<path d="M 1237.0,774.0 L 1238.0,774.0" style="stroke:#050105; fill:none;"/>
	<path d="M 1083.0,778.0 L 1080.0,789.0" style="stroke:#050105; fill:none;"/>
	<path d="M 1077.0,794.0 L 1078.0,794.0" style="stroke:#050105; fill:none;"/>
	<path d="M 1237.0,796.0 L 1235.0,797.0" style="stroke:#050105; fill:none;"/>
	<path d="M 1101.0,800.0 L 1103.0,800.0" style="stroke:#050105; fill:none;"/>
	<path d="M 1078.0,800.0 L 1077.0,808.0" style="stroke:#050105; fill:none;"/>
	<path d="M 1232.0,800.0 L 1234.0,801.0" style="stroke:#050105; fill:none;"/>
	<path d="M 1074.0,804.0 L 1077.0,802.0" style="stroke:#050105; fill:none;"/>
	<path d="M 1102.0,806.0 L 1102.0,804.0" style="stroke:#050105; fill:none;"/>
	<path d="M 1229.0,805.0 L 1229.0,806.0" style="stroke:#050105; fill:none;"/>
	<path d="M 1222.0,810.0 L 1223.0,810.0" style="stroke:#050105; fill:none;"/>
	<path d="M 1073.0,811.0 L 1074.0,811.0" style="stroke:#050105; fill:none;"/>
	<path d="M 1077.0,811.0 L 1076.0,814.0" style="stroke:#050105; fill:none;"/>
	<path d="M 1212.0,815.0 L 1218.0,813.0" style="stroke:#050105; fill:none;"/>
	<path d="M 1071.0,818.0 L 1073.0,815.0" style="stroke:#050105; fill:none;"/>
	<path d="M 1098.0,816.0 L 1099.0,816.0" style="stroke:#050105; fill:none;"/>
	<path d="M 1208.0,817.0 L 1209.0,817.0" style="stroke:#050105; fill:none;"/>
	<path d="M 1200.0,821.0 L 1206.0,818.0" style="stroke:#050105; fill:none;"/>
	<path d="M 1070.0,822.0 L 1070.0,823.0" style="stroke:#050105; fill:none;"/>
	<path d="M 1096.0,830.0 L 1095.0,832.0" style="stroke:#050105; fill:none;"/>
	<path d="M 1169.0,833.0 L 1175.0,832.0" style="stroke:#050105; fill:none;"/>
	<path d="M 1163.0,835.0 L 1166.0,834.0" style="stroke:#050105; fill:none;"/>
	<path d="M 1152.0,838.0 L 1160.0,835.0" style="stroke:#050105; fill:none;"/>
	<path d="M 1139.0,844.0 L 1148.0,839.0" style="stroke:#050105; fill:none;"/>
	<path d="M 1071.0,851.0 L 1072.0,842.0" style="stroke:#050105; fill:none;"/>
	<path d="M 1132.0,848.0 L 1136.0,845.0" style="stroke:#050105; fill:none;"/>
	<path d="M 1126.0,852.0 L 1130.0,850.0" style="stroke:#050105; fill:none;"/>
	<path d="M 1466.0,853.0 L 1467.0,854.0" style="stroke:#050105; fill:none;"/>
	<path d="M 1466.0,856.0 L 1467.0,856.0" style="stroke:#050105; fill:none;"/>
	<path d="M 1121.0,857.0 L 1117.0,861.0" style="stroke:#050105; fill:none;"/>
	<path d="M 1106.0,864.0 L 1113.0,863.0" style="stroke:#050105; fill:none;"/>
	<path d="M 1474.0,866.0 L 1476.0,866.0" style="stroke:#050105; fill:none;"/>
	<path d="M 1494.0,890.0 L 1495.0,891.0" style="stroke:#050105; fill:none;"/>
	<path d="M 1495.0,894.0 L 1497.0,895.0" style="stroke:#050105; fill:none;"/>
	<path d="M 1502.0,899.0 L 1504.0,904.0" style="stroke:#050105; fill:none;"/>
	<path d="M 1505.0,907.0 L 1510.0,912.0" style="stroke:#050105; fill:none;"/>
	<path d="M 670.0,915.0 L 671.0,915.0" style="stroke:#050105; fill:none;"/>
	<path d="M 635.0,922.0 L 635.0,923.0" style="stroke:#050105; fill:none;"/>
	<path d="M 1514.0,922.0 L 1516.0,923.0" style="stroke:#050105; fill:none;"/>
	<path d="M 548.0,954.0 L 548.0,955.0" style="stroke:#050105; fill:none;"/>
	<path d="M 741.0,982.0 L 740.0,985.0 L 737.0,983.0" style="stroke:#050105; fill:none;"/>
	<path d="M 747.0,982.0 L 751.0,984.0" style="stroke:#050105; fill:none;"/>
	<path d="M 735.0,983.0 L 733.0,986.0" style="stroke:#050105; fill:none;"/>
	<path d="M 748.0,983.0 L 746.0,985.0" style="stroke:#050105; fill:none;"/>
	<path d="M 753.0,983.0 L 754.0,983.0" style="stroke:#050105; fill:none;"/>
	<path d="M 758.0,983.0 L 762.0,986.0" style="stroke:#050105; fill:none;"/>
	<path d="M 722.0,986.0 L 730.0,984.0" style="stroke:#050105; fill:none;"/>
	<path d="M 764.0,986.0 L 765.0,986.0" style="stroke:#050105; fill:none;"/>
	<path d="M 771.0,986.0 L 774.0,987.0" style="stroke:#050105; fill:none;"/>
	<path d="M 780.0,986.0 L 782.0,986.0" style="stroke:#050105; fill:none;"/>
	<path d="M 716.0,989.0 L 720.0,987.0" style="stroke:#050105; fill:none;"/>
	<path d="M 777.0,987.0 L 778.0,988.0" style="stroke:#050105; fill:none;"/>
	<path d="M 788.0,987.0 L 790.0,987.0" style="stroke:#050105; fill:none;"/>
	<path d="M 796.0,987.0 L 797.0,987.0" style="stroke:#050105; fill:none;"/>
	<path d="M 799.0,988.0 L 801.0,988.0" style="stroke:#050105; fill:none;"/>
	<path d="M 712.0,989.0 L 711.0,990.0" style="stroke:#050105; fill:none;"/>
	<path d="M 804.0,989.0 L 806.0,990.0" style="stroke:#050105; fill:none;"/>
	<path d="M 809.0,990.0 L 840.0,1002.0" style="stroke:#050105; fill:none;"/>
	<path d="M 705.0,991.0 L 707.0,991.0" style="stroke:#050105; fill:none;"/>
	<path d="M 497.0,992.0 L 499.0,992.0" style="stroke:#050105; fill:none;"/>
	<path d="M 702.0,992.0 L 703.0,992.0" style="stroke:#050105; fill:none;"/>
	<path d="M 694.0,993.0 L 698.0,993.0" style="stroke:#050105; fill:none;"/>
	<path d="M 740.0,998.0 L 740.0,1000.0" style="stroke:#050105; fill:none;"/>
	<path d="M 749.0,998.0 L 748.0,999.0" style="stroke:#050105; fill:none;"/>
	<path d="M 757.0,999.0 L 759.0,1000.0" style="stroke:#050105; fill:none;"/>
	<path d="M 762.0,1000.0 L 765.0,1000.0" style="stroke:#050105; fill:none;"/>
	<path d="M 772.0,1001.0 L 776.0,1001.0" style="stroke:#050105; fill:none;"/>
	<path d="M 696.0,1002.0 L 698.0,1002.0" style="stroke:#050105; fill:none;"/>
	<path d="M 765.0,1002.0 L 765.0,1003.0" style="stroke:#050105; fill:none;"/>
	<path d="M 781.0,1002.0 L 785.0,1003.0" style="stroke:#050105; fill:none;"/>
	<path d="M 485.0,1003.0 L 485.0,1005.0" style="stroke:#050105; fill:none;"/>
	<path d="M 749.0,1003.0 L 748.0,1005.0" style="stroke:#050105; fill:none;"/>
	<path d="M 752.0,1003.0 L 754.0,1003.0" style="stroke:#050105; fill:none;"/>
	<path d="M 761.0,1003.0 L 763.0,1004.0" style="stroke:#050105; fill:none;"/>
	<path d="M 767.0,1003.0 L 768.0,1003.0" style="stroke:#050105; fill:none;"/>
	<path d="M 843.0,1003.0 L 844.0,1003.0" style="stroke:#050105; fill:none;"/>
	<path d="M 717.0,1004.0 L 717.0,1005.0" style="stroke:#050105; fill:none;"/>
	<path d="M 788.0,1004.0 L 790.0,1004.0" style="stroke:#050105; fill:none;"/>
	<path d="M 831.0,1004.0 L 833.0,1005.0" style="stroke:#050105; fill:none;"/>
	<path d="M 714.0,1005.0 L 714.0,1007.0" style="stroke:#050105; fill:none;"/>
	<path d="M 741.0,1005.0 L 740.0,1006.0" style="stroke:#050105; fill:none;"/>
	<path d="M 778.0,1006.0 L 784.0,1007.0" style="stroke:#050105; fill:none;"/>
	<path d="M 482.0,1006.0 L 483.0,1006.0" style="stroke:#050105; fill:none;"/>
	<path d="M 697.0,1006.0 L 698.0,1006.0" style="stroke:#050105; fill:none;"/>
	<path d="M 711.0,1007.0 L 706.0,1008.0" style="stroke:#050105; fill:none;"/>
	<path d="M 798.0,1007.0 L 802.0,1009.0" style="stroke:#050105; fill:none;"/>
	<path d="M 703.0,1008.0 L 703.0,1011.0" style="stroke:#050105; fill:none;"/>
	<path d="M 723.0,1009.0 L 723.0,1010.0" style="stroke:#050105; fill:none;"/>
	<path d="M 809.0,1010.0 L 809.0,1011.0" style="stroke:#050105; fill:none;"/>
	<path d="M 699.0,1011.0 L 700.0,1011.0" style="stroke:#050105; fill:none;"/>
	<path d="M 695.0,1014.0 L 697.0,1014.0" style="stroke:#050105; fill:none;"/>
	<path d="M 679.0,1013.0 L 680.0,1013.0" style="stroke:#050105; fill:none;"/>
	<path d="M 712.0,1014.0 L 716.0,1013.0" style="stroke:#050105; fill:none;"/>
	<path d="M 674.0,1014.0 L 675.0,1015.0" style="stroke:#050105; fill:none;"/>
	<path d="M 695.0,1014.0 L 687.0,1019.0" style="stroke:#050105; fill:none;"/>
	<path d="M 789.0,1014.0 L 791.0,1015.0" style="stroke:#050105; fill:none;"/>
	<path d="M 816.0,1014.0 L 818.0,1015.0" style="stroke:#050105; fill:none;"/>
	<path d="M 651.0,1017.0 L 652.0,1017.0" style="stroke:#050105; fill:none;"/>
	<path d="M 793.0,1018.0 L 794.0,1020.0" style="stroke:#050105; fill:none;"/>
	<path d="M 691.0,1019.0 L 692.0,1020.0" style="stroke:#050105; fill:none;"/>
	<path d="M 808.0,1020.0 L 809.0,1020.0" style="stroke:#050105; fill:none;"/>
	<path d="M 678.0,1023.0 L 677.0,1024.0" style="stroke:#050105; fill:none;"/>
	<path d="M 822.0,1023.0 L 825.0,1025.0" style="stroke:#050105; fill:none;"/>
	<path d="M 739.0,1026.0 L 743.0,1026.0" style="stroke:#050105; fill:none;"/>
	<path d="M 745.0,1025.0 L 749.0,1027.0" style="stroke:#050105; fill:none;"/>
	<path d="M 673.0,1029.0 L 676.0,1026.0" style="stroke:#050105; fill:none;"/>
	<path d="M 729.0,1028.0 L 735.0,1026.0" style="stroke:#050105; fill:none;"/>
	<path d="M 489.0,1027.0 L 489.0,1028.0" style="stroke:#050105; fill:none;"/>
	<path d="M 753.0,1028.0 L 756.0,1031.0" style="stroke:#050105; fill:none;"/>
	<path d="M 797.0,1029.0 L 799.0,1035.0" style="stroke:#050105; fill:none;"/>
	<path d="M 466.0,1030.0 L 466.0,1032.0" style="stroke:#050105; fill:none;"/>
	<path d="M 740.0,1030.0 L 747.0,1031.0" style="stroke:#050105; fill:none;"/>
	<path d="M 734.0,1031.0 L 733.0,1032.0" style="stroke:#050105; fill:none;"/>
	<path d="M 668.0,1032.0 C 662.175,1039.65 657.996,1044.3 648.0,1043.0" style="stroke:#050105; fill:none;"/>
	<path d="M 683.0,1035.0 L 685.0,1033.0" style="stroke:#050105; fill:none;"/>
	<path d="M 728.0,1034.0 L 729.0,1040.0" style="stroke:#050105; fill:none;"/>
	<path d="M 756.0,1034.0 L 757.0,1034.0" style="stroke:#050105; fill:none;"/>
	<path d="M 656.0,1043.0 L 660.0,1041.0" style="stroke:#050105; fill:none;"/>
	<path d="M 644.0,1042.0 L 645.0,1042.0" style="stroke:#050105; fill:none;"/>
	<path d="M 675.0,1043.0 L 674.0,1045.0" style="stroke:#050105; fill:none;"/>
	<path d="M 743.0,1044.0 L 744.0,1047.0" style="stroke:#050105; fill:none;"/>
	<path d="M 735.0,1046.0 L 737.0,1050.0" style="stroke:#050105; fill:none;"/>
	<path d="M 655.0,1048.0 L 654.0,1052.0" style="stroke:#050105; fill:none;"/>
	<path d="M 645.0,1052.0 L 649.0,1051.0" style="stroke:#050105; fill:none;"/>
	<path d="M 628.0,1053.0 L 632.0,1054.0" style="stroke:#050105; fill:none;"/>
	<path d="M 746.0,1053.0 L 746.0,1055.0 L 741.0,1054.0" style="stroke:#050105; fill:none;"/>
	<path d="M 802.0,1054.0 L 801.0,1055.0" style="stroke:#050105; fill:none;"/>
	<path d="M 643.0,1055.0 L 644.0,1055.0" style="stroke:#050105; fill:none;"/>
	<path d="M 835.0,1055.0 L 836.0,1055.0" style="stroke:#050105; fill:none;"/>
	<path d="M 642.0,1058.0 L 646.0,1058.0" style="stroke:#050105; fill:none;"/>
	<path d="M 704.0,1060.0 L 705.0,1062.0" style="stroke:#050105; fill:none;"/>
	<path d="M 828.0,1061.0 L 830.0,1060.0" style="stroke:#050105; fill:none;"/>
	<path d="M 653.0,1062.0 L 655.0,1062.0" style="stroke:#050105; fill:none;"/>
	<path d="M 826.0,1063.0 L 826.0,1064.0" style="stroke:#050105; fill:none;"/>
	<path d="M 654.0,1064.0 L 655.0,1065.0" style="stroke:#050105; fill:none;"/>
	<path d="M 706.0,1066.0 L 707.0,1066.0" style="stroke:#050105; fill:none;"/>
	<path d="M 601.0,1067.0 L 600.0,1068.0" style="stroke:#050105; fill:none;"/>
	<path d="M 654.0,1067.0 L 652.0,1068.0" style="stroke:#050105; fill:none;"/>
	<path d="M 801.0,1067.0 L 800.0,1068.0" style="stroke:#050105; fill:none;"/>
	<path d="M 598.0,1069.0 L 599.0,1071.0" style="stroke:#050105; fill:none;"/>
	<path d="M 799.0,1070.0 L 799.0,1071.0" style="stroke:#050105; fill:none;"/>
	<path d="M 650.0,1071.0 L 651.0,1071.0" style="stroke:#050105; fill:none;"/>
	<path d="M 628.0,1072.0 L 628.0,1073.0" style="stroke:#050105; fill:none;"/>
	<path d="M 647.0,1073.0 L 646.0,1074.0" style="stroke:#050105; fill:none;"/>
	<path d="M 714.0,1075.0 L 714.0,1076.0" style="stroke:#050105; fill:none;"/>
	<path d="M 594.0,1076.0 L 593.0,1077.0" style="stroke:#050105; fill:none;"/>
	<path d="M 639.0,1076.0 L 639.0,1077.0" style="stroke:#050105; fill:none;"/>
	<path d="M 627.0,1079.0 L 628.0,1081.0" style="stroke:#050105; fill:none;"/>
	<path d="M 717.0,1079.0 L 717.0,1080.0" style="stroke:#050105; fill:none;"/>
	<path d="M 806.0,1080.0 L 808.0,1079.0" style="stroke:#050105; fill:none;"/>
	<path d="M 643.0,1081.0 L 638.0,1088.0" style="stroke:#050105; fill:none;"/>
	<path d="M 723.0,1082.0 L 724.0,1083.0" style="stroke:#050105; fill:none;"/>
	<path d="M 627.0,1083.0 L 630.0,1083.0" style="stroke:#050105; fill:none;"/>
	<path d="M 635.0,1083.0 L 636.0,1083.0" style="stroke:#050105; fill:none;"/>
	<path d="M 728.0,1084.0 L 728.0,1086.0 L 728.0,1084.0" style="stroke:#050105; fill:none;"/>
	<path d="M 801.0,1084.0 L 800.0,1086.0" style="stroke:#050105; fill:none;"/>
	<path d="M 629.0,1085.0 L 630.0,1086.0" style="stroke:#050105; fill:none;"/>
	<path d="M 726.0,1085.0 L 727.0,1085.0" style="stroke:#050105; fill:none;"/>
	<path d="M 635.0,1086.0 L 635.0,1087.0" style="stroke:#050105; fill:none;"/>
	<path d="M 623.0,1090.0 L 623.0,1091.0" style="stroke:#050105; fill:none;"/>
	<path d="M 618.0,1091.0 L 620.0,1093.0" style="stroke:#050105; fill:none;"/>
	<path d="M 581.0,1092.0 L 582.0,1092.0" style="stroke:#050105; fill:none;"/>
	<path d="M 635.0,1092.0 L 635.0,1094.0 L 635.0,1092.0" style="stroke:#050105; fill:none;"/>
	<path d="M 577.0,1098.0 L 577.0,1099.0" style="stroke:#050105; fill:none;"/>
	<path d="M 615.0,1099.0 L 614.0,1100.0" style="stroke:#050105; fill:none;"/>
	<path d="M 628.0,1101.0 L 629.0,1101.0" style="stroke:#050105; fill:none;"/>
	<path d="M 626.0,1104.0 L 627.0,1110.0" style="stroke:#050105; fill:none;"/>
	<path d="M 618.0,1106.0 L 619.0,1107.0" style="stroke:#050105; fill:none;"/>
	<path d="M 612.0,1108.0 L 612.0,1109.0" style="stroke:#050105; fill:none;"/>
	<path d="M 618.0,1110.0 L 618.0,1112.0" style="stroke:#050105; fill:none;"/>
	<path d="M 590.0,1112.0 L 592.0,1112.0" style="stroke:#050105; fill:none;"/>
	<path d="M 599.0,1112.0 L 600.0,1112.0" style="stroke:#050105; fill:none;"/>
	<path d="M 611.0,1113.0 L 612.0,1113.0" style="stroke:#050105; fill:none;"/>
	<path d="M 1261.0,1113.0 L 1262.0,1113.0" style="stroke:#050105; fill:none;"/>
	<path d="M 611.0,1116.0 C 608.104,1122.5 604.2,1130.86 606.0,1138.0" style="stroke:#050105; fill:none;"/>
	<path d="M 616.0,1116.0 L 616.0,1118.0" style="stroke:#050105; fill:none;"/>
	<path d="M 598.0,1118.0 L 598.0,1119.0" style="stroke:#050105; fill:none;"/>
	<path d="M 592.0,1120.0 L 594.0,1120.0" style="stroke:#050105; fill:none;"/>
	<path d="M 615.0,1121.0 L 613.0,1124.0" style="stroke:#050105; fill:none;"/>
	<path d="M 599.0,1134.0 L 599.0,1135.0" style="stroke:#050105; fill:none;"/>
	<path d="M 599.0,1139.0 L 598.0,1142.0" style="stroke:#050105; fill:none;"/>
	<path d="M 590.0,1140.0 L 590.0,1141.0" style="stroke:#050105; fill:none;"/>
	<path d="M 605.0,1145.0 L 604.0,1152.0" style="stroke:#050105; fill:none;"/>
	<path d="M 592.0,1152.0 L 591.0,1153.0" style="stroke:#050105; fill:none;"/>
	<path d="M 603.0,1154.0 L 603.0,1161.0" style="stroke:#050105; fill:none;"/>
	<path d="M 713.0,1154.0 L 715.0,1154.0" style="stroke:#050105; fill:none;"/>
	<path d="M 705.0,1157.0 L 710.0,1155.0" style="stroke:#050105; fill:none;"/>
	<path d="M 581.0,1156.0 L 578.0,1157.0" style="stroke:#050105; fill:none;"/>
	<path d="M 616.0,1158.0 L 617.0,1158.0" style="stroke:#050105; fill:none;"/>
	<path d="M 618.0,1161.0 L 618.0,1162.0" style="stroke:#050105; fill:none;"/>
	<path d="M 1253.0,1162.0 L 1254.0,1163.0" style="stroke:#050105; fill:none;"/>
	<path d="M 685.0,1164.0 L 686.0,1165.0" style="stroke:#050105; fill:none;"/>
	<path d="M 678.0,1165.0 L 676.0,1166.0" style="stroke:#050105; fill:none;"/>
	<path d="M 1628.0,1165.0 L 1628.0,1167.0" style="stroke:#050105; fill:none;"/>
	<path d="M 626.0,1166.0 L 627.0,1167.0" style="stroke:#050105; fill:none;"/>
	<path d="M 662.0,1167.0 L 673.0,1167.0" style="stroke:#050105; fill:none;"/>
	<path d="M 581.0,1167.0 L 578.0,1170.0" style="stroke:#050105; fill:none;"/>
	<path d="M 631.0,1167.0 L 634.0,1168.0" style="stroke:#050105; fill:none;"/>
	<path d="M 636.0,1167.0 L 650.0,1167.0" style="stroke:#050105; fill:none;"/>
	<path d="M 653.0,1167.0 L 658.0,1167.0" style="stroke:#050105; fill:none;"/>
	<path d="M 592.0,1170.0 L 590.0,1173.0" style="stroke:#050105; fill:none;"/>
	<path d="M 1245.0,1173.0 L 1246.0,1173.0" style="stroke:#050105; fill:none;"/>
	<path d="M 1215.0,1178.0 L 1216.0,1178.0" style="stroke:#050105; fill:none;"/>
	<path d="M 587.0,1179.0 L 586.0,1180.0" style="stroke:#050105; fill:none;"/>
	<path d="M 1213.0,1180.0 L 1214.0,1180.0" style="stroke:#050105; fill:none;"/>
	<path d="M 1631.0,1181.0 L 1631.0,1182.0" style="stroke:#050105; fill:none;"/>
	<path d="M 586.0,1183.0 L 588.0,1183.0" style="stroke:#050105; fill:none;"/>
	<path d="M 572.0,1196.0 L 584.0,1186.0" style="stroke:#050105; fill:none;"/>
	<path d="M 1633.0,1188.0 L 1633.0,1189.0" style="stroke:#050105; fill:none;"/>
	<path d="M 321.0,1195.0 L 322.0,1195.0" style="stroke:#050105; fill:none;"/>
	<path d="M 1205.0,1197.0 L 1206.0,1197.0" style="stroke:#050105; fill:none;"/>
	<path d="M 321.0,1201.0 L 322.0,1201.0" style="stroke:#050105; fill:none;"/>
	<path d="M 1202.0,1209.0 L 1201.0,1211.0" style="stroke:#050105; fill:none;"/>
	<path d="M 322.0,1235.0 L 321.0,1238.0" style="stroke:#050105; fill:none;"/>
	<path d="M 1107.0,1250.0 L 1108.0,1250.0" style="stroke:#050105; fill:none;"/>
	<path d="M 1103.0,1252.0 L 1105.0,1251.0" style="stroke:#050105; fill:none;"/>
	<path d="M 1092.0,1255.0 L 1098.0,1254.0" style="stroke:#050105; fill:none;"/>
	<path d="M 318.0,1255.0 L 318.0,1256.0" style="stroke:#050105; fill:none;"/>
	<path d="M 1088.0,1257.0 L 1087.0,1259.0" style="stroke:#050105; fill:none;"/>
	<path d="M 1071.0,1272.0 L 1078.0,1267.0" style="stroke:#050105; fill:none;"/>
	<path d="M 1103.0,1269.0 L 1104.0,1269.0" style="stroke:#050105; fill:none;"/>
	<path d="M 1066.0,1279.0 L 1067.0,1279.0" style="stroke:#050105; fill:none;"/>
	<path d="M 1423.0,1282.0 C 1425.42,1284.58 1418.04,1284.21 1416.0,1284.0" style="stroke:#050105; fill:none;"/>
	<path d="M 1426.0,1283.0 L 1431.0,1284.0" style="stroke:#050105; fill:none;"/>
	<path d="M 1411.0,1286.0 L 1399.0,1294.0" style="stroke:#050105; fill:none;"/>
	<path d="M 1400.0,1296.0 L 1401.0,1296.0" style="stroke:#050105; fill:none;"/>
	<path d="M 1394.0,1302.0 L 1390.0,1307.0" style="stroke:#050105; fill:none;"/>
	<path d="M 1017.0,1308.0 L 1019.0,1308.0" style="stroke:#050105; fill:none;"/>
	<path d="M 1023.0,1309.0 L 1025.0,1309.0" style="stroke:#050105; fill:none;"/>
	<path d="M 1036.0,1309.0 L 1039.0,1309.0" style="stroke:#050105; fill:none;"/>
	<path d="M 1386.0,1310.0 L 1385.0,1312.0" style="stroke:#050105; fill:none;"/>
	<path d="M 1383.0,1312.0 L 1383.0,1313.0" style="stroke:#050105; fill:none;"/>
	<path d="M 1380.0,1316.0 L 1380.0,1317.0" style="stroke:#050105; fill:none;"/>
	<path d="M 1377.0,1320.0 L 1376.0,1321.0" style="stroke:#050105; fill:none;"/>
	<path d="M 1330.0,1321.0 L 1332.0,1321.0" style="stroke:#050105; fill:none;"/>
	<path d="M 1324.0,1322.0 L 1326.0,1322.0" style="stroke:#050105; fill:none;"/>
	<path d="M 1373.0,1324.0 L 1373.0,1325.0" style="stroke:#050105; fill:none;"/>
	<path d="M 1367.0,1331.0 L 1363.0,1335.0" style="stroke:#050105; fill:none;"/>
	<path d="M 1360.0,1338.0 L 1356.0,1343.0" style="stroke:#050105; fill:none;"/>
	<path d="M 1353.0,1346.0 L 1354.0,1347.0" style="stroke:#050105; fill:none;"/>
	<path d="M 1347.0,1354.0 L 1349.0,1350.0" style="stroke:#050105; fill:none;"/>
	<path d="M 1334.0,1366.0 L 1334.0,1367.0" style="stroke:#050105; fill:none;"/>
	<path d="M 389.0,1368.0 L 391.0,1371.0" style="stroke:#050105; fill:none;"/>
	<path d="M 1329.0,1369.0 L 1330.0,1369.0" style="stroke:#050105; fill:none;"/>
	<path d="M 395.0,1371.0 L 395.0,1373.0" style="stroke:#050105; fill:none;"/>
	<path d="M 1236.0,1389.0 L 1237.0,1389.0" style="stroke:#050105; fill:none;"/>
	<path d="M 1285.0,1405.0 L 1303.0,1390.0" style="stroke:#050105; fill:none;"/>
	<path d="M 1393.0,1391.0 L 1393.0,1392.0" style="stroke:#050105; fill:none;"/>
	<path d="M 1281.0,1408.0 L 1276.0,1412.0" style="stroke:#050105; fill:none;"/>
	<path d="M 1283.0,1408.0 L 1284.0,1408.0" style="stroke:#050105; fill:none;"/>
	<path d="M 1181.0,1411.0 L 1182.0,1411.0" style="stroke:#050105; fill:none;"/>
	<path d="M 436.0,1415.0 L 436.0,1416.0" style="stroke:#050105; fill:none;"/>
	<path d="M 1270.0,1419.0 L 1273.0,1415.0" style="stroke:#050105; fill:none;"/>
	<path d="M 1264.0,1421.0 L 1269.0,1418.0" style="stroke:#050105; fill:none;"/>
	<path d="M 459.0,1419.0 L 461.0,1422.0" style="stroke:#050105; fill:none;"/>
	<path d="M 1260.0,1422.0 L 1256.0,1425.0" style="stroke:#050105; fill:none;"/>
	<path d="M 1251.0,1426.0 L 1254.0,1426.0" style="stroke:#050105; fill:none;"/>
	<path d="M 1249.0,1427.0 L 1248.0,1430.0" style="stroke:#050105; fill:none;"/>
	<path d="M 1159.0,1430.0 L 1160.0,1430.0" style="stroke:#050105; fill:none;"/>
	<path d="M 1243.0,1432.0 L 1244.0,1432.0" style="stroke:#050105; fill:none;"/>
	<path d="M 1239.0,1434.0 L 1240.0,1434.0" style="stroke:#050105; fill:none;"/>
	<path d="M 1235.0,1437.0 L 1237.0,1436.0" style="stroke:#050105; fill:none;"/>
	<path d="M 1204.0,1455.0 L 1227.0,1444.0" style="stroke:#050105; fill:none;"/>
	<path d="M 494.0,1453.0 L 501.0,1457.0" style="stroke:#050105; fill:none;"/>
	<path d="M 1197.0,1459.0 L 1202.0,1456.0" style="stroke:#050105; fill:none;"/>
	<path d="M 1194.0,1460.0 L 1181.0,1467.0" style="stroke:#050105; fill:none;"/>
	<path d="M 504.0,1462.0 L 507.0,1465.0" style="stroke:#050105; fill:none;"/>
	<path d="M 1347.0,1466.0 L 1349.0,1465.0" style="stroke:#050105; fill:none;"/>
	<path d="M 509.0,1467.0 L 511.0,1469.0" style="stroke:#050105; fill:none;"/>
	<path d="M 1342.0,1469.0 L 1342.0,1470.0" style="stroke:#050105; fill:none;"/>
	<path d="M 1161.0,1478.0 L 1178.0,1470.0" style="stroke:#050105; fill:none;"/>
	<path d="M 1156.0,1480.0 L 1159.0,1479.0" style="stroke:#050105; fill:none;"/>
	<path d="M 1327.0,1480.0 L 1328.0,1480.0" style="stroke:#050105; fill:none;"/>
	<path d="M 1151.0,1483.0 L 1142.0,1488.0" style="stroke:#050105; fill:none;"/>
	<path d="M 526.0,1488.0 L 528.0,1491.0" style="stroke:#050105; fill:none;"/>
	<path d="M 1132.0,1493.0 L 1139.0,1490.0" style="stroke:#050105; fill:none;"/>
	<path d="M 1125.0,1496.0 L 1127.0,1495.0" style="stroke:#050105; fill:none;"/>
	<path d="M 1116.0,1500.0 L 1119.0,1499.0" style="stroke:#050105; fill:none;"/>
	<path d="M 538.0,1500.0 L 557.0,1522.0" style="stroke:#050105; fill:none;"/>
	<path d="M 1102.0,1507.0 L 1101.0,1508.0" style="stroke:#050105; fill:none;"/>
	<path d="M 1075.0,1519.0 L 1096.0,1509.0" style="stroke:#050105; fill:none;"/>
	<path d="M 1071.0,1519.0 L 1068.0,1522.0" style="stroke:#050105; fill:none;"/>
	<path d="M 560.0,1524.0 L 565.0,1528.0" style="stroke:#050105; fill:none;"/>
	<path d="M 1060.0,1528.0 L 1067.0,1524.0" style="stroke:#050105; fill:none;"/>
	<path d="M 569.0,1531.0 L 570.0,1531.0" style="stroke:#050105; fill:none;"/>
	<path d="M 1058.0,1531.0 L 1058.0,1533.0" style="stroke:#050105; fill:none;"/>
	<path d="M 1153.0,1536.0 L 1154.0,1536.0" style="stroke:#050105; fill:none;"/>
	<path d="M 1055.0,1538.0 L 1054.0,1542.0" style="stroke:#050105; fill:none;"/>
	<path d="M 1052.0,1544.0 L 1054.0,1547.0" style="stroke:#050105; fill:none;"/>
	<path d="M 598.0,1558.0 L 598.0,1559.0" style="stroke:#050105; fill:none;"/>
	<path d="M 601.0,1563.0 C 611.105,1578.37 626.947,1591.14 640.845,1603.51 C 649.062,1610.83 657.052,1620.04 667.0,1625.0" style="stroke:#050105; fill:none;"/>
	<path d="M 602.0,1567.0 L 605.0,1570.0" style="stroke:#050105; fill:none;"/>
	<path d="M 612.0,1575.0 L 615.0,1577.0" style="stroke:#050105; fill:none;"/>
	<path d="M 664.0,1621.0 L 663.0,1622.0" style="stroke:#050105; fill:none;"/>
</svg>
