<?xml version="1.0" ?>
<svg baseProfile="full" height="1626" version="1.1" width="2232" xmlns="http://www.w3.org/2000/svg" xmlns:ev="http://www.w3.org/2001/xml-events" xmlns:xlink="http://www.w3.org/1999/xlink">
	<defs/>
	<path d="M 542.0,145.0 L 543.0,145.0" style="stroke:#050105; fill:none;"/>
	<path d="M 537.0,147.0 L 536.0,148.0" style="stroke:#050105; fill:none;"/>
	<path d="M 532.0,149.0 L 531.0,150.0" style="stroke:#050105; fill:none;"/>
	<path d="M 500.0,156.0 L 505.0,156.0" style="stroke:#050105; fill:none;"/>
	<path d="M 1320.0,198.0 L 1321.0,199.0" style="stroke:#050105; fill:none;"/>
	<path d="M 737.0,242.0 L 739.0,242.0" style="stroke:#050105; fill:none;"/>
	<path d="M 742.0,242.0 L 741.0,243.0" style="stroke:#050105; fill:none;"/>
	<path d="M 766.0,252.0 L 767.0,252.0" style="stroke:#050105; fill:none;"/>
	<path d="M 769.0,253.0 L 770.0,253.0" style="stroke:#050105; fill:none;"/>
	<path d="M 393.0,256.0 L 390.0,259.0" style="stroke:#050105; fill:none;"/>
	<path d="M 783.0,259.0 L 783.0,260.0" style="stroke:#050105; fill:none;"/>
	<path d="M 784.0,262.0 L 785.0,265.0" style="stroke:#050105; fill:none;"/>
	<path d="M 747.0,264.0 L 748.0,264.0" style="stroke:#050105; fill:none;"/>
	<path d="M 361.0,337.0 L 362.0,337.0" style="stroke:#050105; fill:none;"/>
	<path d="M 360.0,339.0 L 359.0,341.0" style="stroke:#050105; fill:none;"/>
	<path d="M 662.0,366.0 L 662.0,367.0" style="stroke:#050105; fill:none;"/>
	<path d="M 701.0,367.0 L 703.0,367.0" style="stroke:#050105; fill:none;"/>
	<path d="M 344.0,370.0 L 344.0,371.0" style="stroke:#050105; fill:none;"/>
	<path d="M 714.0,371.0 L 714.0,372.0" style="stroke:#050105; fill:none;"/>
	<path d="M 726.0,376.0 L 727.0,377.0" style="stroke:#050105; fill:none;"/>
	<path d="M 338.0,380.0 L 336.0,385.0" style="stroke:#050105; fill:none;"/>
	<path d="M 735.0,380.0 L 734.0,381.0" style="stroke:#050105; fill:none;"/>
	<path d="M 692.0,381.0 L 692.0,385.0" style="stroke:#050105; fill:none;"/>
	<path d="M 631.0,384.0 L 631.0,385.0" style="stroke:#050105; fill:none;"/>
	<path d="M 645.0,384.0 L 648.0,387.0" style="stroke:#050105; fill:none;"/>
	<path d="M 606.0,387.0 L 619.0,396.0" style="stroke:#050105; fill:none;"/>
	<path d="M 633.0,387.0 L 636.0,389.0" style="stroke:#050105; fill:none;"/>
	<path d="M 685.0,387.0 L 686.0,391.0" style="stroke:#050105; fill:none;"/>
	<path d="M 752.0,388.0 L 752.0,389.0" style="stroke:#050105; fill:none;"/>
	<path d="M 332.0,391.0 L 333.0,392.0" style="stroke:#050105; fill:none;"/>
	<path d="M 688.0,392.0 L 688.0,393.0" style="stroke:#050105; fill:none;"/>
	<path d="M 695.0,392.0 L 695.0,393.0" style="stroke:#050105; fill:none;"/>
	<path d="M 331.0,393.0 L 330.0,394.0" style="stroke:#050105; fill:none;"/>
	<path d="M 623.0,397.0 L 624.0,400.0" style="stroke:#050105; fill:none;"/>
	<path d="M 328.0,398.0 L 327.0,399.0" style="stroke:#050105; fill:none;"/>
	<path d="M 635.0,400.0 L 637.0,400.0" style="stroke:#050105; fill:none;"/>
	<path d="M 666.0,399.0 L 668.0,399.0" style="stroke:#050105; fill:none;"/>
	<path d="M 670.0,405.0 L 694.0,404.0" style="stroke:#050105; fill:none;"/>
	<path d="M 701.0,403.0 L 703.0,404.0" style="stroke:#050105; fill:none;"/>
	<path d="M 716.0,404.0 L 720.0,404.0" style="stroke:#050105; fill:none;"/>
	<path d="M 758.0,405.0 L 759.0,409.0" style="stroke:#050105; fill:none;"/>
	<path d="M 657.0,407.0 L 659.0,406.0" style="stroke:#050105; fill:none;"/>
	<path d="M 661.0,406.0 L 665.0,406.0" style="stroke:#050105; fill:none;"/>
	<path d="M 655.0,407.0 L 649.0,409.0" style="stroke:#050105; fill:none;"/>
	<path d="M 730.0,407.0 L 731.0,409.0" style="stroke:#050105; fill:none;"/>
	<path d="M 785.0,408.0 L 786.0,408.0" style="stroke:#050105; fill:none;"/>
	<path d="M 679.0,409.0 L 680.0,409.0" style="stroke:#050105; fill:none;"/>
	<path d="M 683.0,409.0 L 685.0,410.0" style="stroke:#050105; fill:none;"/>
	<path d="M 687.0,409.0 L 690.0,409.0" style="stroke:#050105; fill:none;"/>
	<path d="M 693.0,410.0 L 696.0,409.0" style="stroke:#050105; fill:none;"/>
	<path d="M 705.0,409.0 L 705.0,410.0" style="stroke:#050105; fill:none;"/>
	<path d="M 740.0,409.0 L 740.0,410.0" style="stroke:#050105; fill:none;"/>
	<path d="M 903.0,409.0 L 903.0,410.0" style="stroke:#050105; fill:none;"/>
	<path d="M 698.0,410.0 L 702.0,410.0" style="stroke:#050105; fill:none;"/>
	<path d="M 721.0,410.0 L 722.0,410.0" style="stroke:#050105; fill:none;"/>
	<path d="M 742.0,412.0 L 743.0,412.0" style="stroke:#050105; fill:none;"/>
	<path d="M 736.0,413.0 L 737.0,413.0" style="stroke:#050105; fill:none;"/>
	<path d="M 728.0,415.0 L 730.0,414.0" style="stroke:#050105; fill:none;"/>
	<path d="M 758.0,414.0 L 758.0,416.0" style="stroke:#050105; fill:none;"/>
	<path d="M 703.0,417.0 L 709.0,416.0" style="stroke:#050105; fill:none;"/>
	<path d="M 773.0,417.0 L 774.0,418.0" style="stroke:#050105; fill:none;"/>
	<path d="M 786.0,418.0 L 786.0,419.0" style="stroke:#050105; fill:none;"/>
	<path d="M 800.0,418.0 L 800.0,419.0" style="stroke:#050105; fill:none;"/>
	<path d="M 732.0,419.0 L 732.0,420.0" style="stroke:#050105; fill:none;"/>
	<path d="M 728.0,420.0 L 729.0,420.0" style="stroke:#050105; fill:none;"/>
	<path d="M 759.0,420.0 L 759.0,422.0" style="stroke:#050105; fill:none;"/>
	<path d="M 761.0,420.0 L 761.0,421.0" style="stroke:#050105; fill:none;"/>
	<path d="M 310.0,422.0 L 312.0,421.0" style="stroke:#050105; fill:none;"/>
	<path d="M 765.0,421.0 L 768.0,425.0" style="stroke:#050105; fill:none;"/>
	<path d="M 774.0,421.0 C 774.473,425.239 775.601,428.205 780.0,429.0" style="stroke:#050105; fill:none;"/>
	<path d="M 726.0,422.0 L 738.0,427.0" style="stroke:#050105; fill:none;"/>
	<path d="M 307.0,425.0 L 308.0,426.0" style="stroke:#050105; fill:none;"/>
	<path d="M 740.0,427.0 L 740.0,428.0" style="stroke:#050105; fill:none;"/>
	<path d="M 743.0,427.0 L 744.0,428.0" style="stroke:#050105; fill:none;"/>
	<path d="M 306.0,428.0 L 307.0,428.0" style="stroke:#050105; fill:none;"/>
	<path d="M 769.0,428.0 L 769.0,430.0 L 769.0,428.0" style="stroke:#050105; fill:none;"/>
	<path d="M 306.0,430.0 L 293.0,448.0" style="stroke:#050105; fill:none;"/>
	<path d="M 748.0,430.0 L 747.0,431.0" style="stroke:#050105; fill:none;"/>
	<path d="M 764.0,430.0 L 765.0,430.0" style="stroke:#050105; fill:none;"/>
	<path d="M 649.0,431.0 L 649.0,433.0" style="stroke:#050105; fill:none;"/>
	<path d="M 751.0,431.0 L 751.0,433.0" style="stroke:#050105; fill:none;"/>
	<path d="M 757.0,431.0 L 755.0,434.0" style="stroke:#050105; fill:none;"/>
	<path d="M 779.0,432.0 L 790.0,438.0" style="stroke:#050105; fill:none;"/>
	<path d="M 757.0,433.0 L 757.0,434.0" style="stroke:#050105; fill:none;"/>
	<path d="M 650.0,437.0 L 650.0,438.0" style="stroke:#050105; fill:none;"/>
	<path d="M 762.0,438.0 L 763.0,438.0" style="stroke:#050105; fill:none;"/>
	<path d="M 794.0,441.0 L 797.0,443.0" style="stroke:#050105; fill:none;"/>
	<path d="M 652.0,444.0 C 650.947,452.637 657.806,469.533 661.0,478.0" style="stroke:#050105; fill:none;"/>
	<path d="M 787.0,444.0 L 788.0,445.0" style="stroke:#050105; fill:none;"/>
	<path d="M 810.0,444.0 L 811.0,444.0" style="stroke:#050105; fill:none;"/>
	<path d="M 780.0,447.0 L 781.0,447.0" style="stroke:#050105; fill:none;"/>
	<path d="M 807.0,451.0 L 813.0,460.0" style="stroke:#050105; fill:none;"/>
	<path d="M 292.0,452.0 L 290.0,456.0" style="stroke:#050105; fill:none;"/>
	<path d="M 790.0,454.0 L 793.0,455.0" style="stroke:#050105; fill:none;"/>
	<path d="M 832.0,454.0 L 835.0,456.0" style="stroke:#050105; fill:none;"/>
	<path d="M 809.0,456.0 L 807.0,458.0" style="stroke:#050105; fill:none;"/>
	<path d="M 804.0,457.0 L 804.0,458.0" style="stroke:#050105; fill:none;"/>
	<path d="M 828.0,457.0 L 826.0,458.0" style="stroke:#050105; fill:none;"/>
	<path d="M 816.0,458.0 L 816.0,460.0" style="stroke:#050105; fill:none;"/>
	<path d="M 817.0,459.0 L 819.0,459.0" style="stroke:#050105; fill:none;"/>
	<path d="M 822.0,459.0 L 822.0,460.0" style="stroke:#050105; fill:none;"/>
	<path d="M 287.0,461.0 L 285.0,466.0" style="stroke:#050105; fill:none;"/>
	<path d="M 840.0,463.0 L 839.0,464.0" style="stroke:#050105; fill:none;"/>
	<path d="M 841.0,468.0 L 843.0,470.0" style="stroke:#050105; fill:none;"/>
	<path d="M 815.0,469.0 L 815.0,471.0" style="stroke:#050105; fill:none;"/>
	<path d="M 823.0,469.0 L 825.0,473.0" style="stroke:#050105; fill:none;"/>
	<path d="M 844.0,473.0 L 852.0,485.0" style="stroke:#050105; fill:none;"/>
	<path d="M 817.0,474.0 L 821.0,478.0" style="stroke:#050105; fill:none;"/>
	<path d="M 825.0,475.0 L 828.0,475.0" style="stroke:#050105; fill:none;"/>
	<path d="M 771.0,479.0 L 770.0,481.0" style="stroke:#050105; fill:none;"/>
	<path d="M 662.0,481.0 L 662.0,483.0" style="stroke:#050105; fill:none;"/>
	<path d="M 832.0,482.0 L 833.0,483.0" style="stroke:#050105; fill:none;"/>
	<path d="M 766.0,484.0 L 767.0,484.0" style="stroke:#050105; fill:none;"/>
	<path d="M 825.0,485.0 L 826.0,485.0" style="stroke:#050105; fill:none;"/>
	<path d="M 664.0,486.0 L 666.0,487.0" style="stroke:#050105; fill:none;"/>
	<path d="M 852.0,488.0 L 852.0,492.0" style="stroke:#050105; fill:none;"/>
	<path d="M 760.0,493.0 L 759.0,494.0" style="stroke:#050105; fill:none;"/>
	<path d="M 855.0,494.0 L 855.0,496.0" style="stroke:#050105; fill:none;"/>
	<path d="M 807.0,495.0 L 806.0,496.0" style="stroke:#050105; fill:none;"/>
	<path d="M 798.0,499.0 L 803.0,496.0" style="stroke:#050105; fill:none;"/>
	<path d="M 809.0,496.0 L 809.0,497.0" style="stroke:#050105; fill:none;"/>
	<path d="M 757.0,497.0 L 755.0,498.0" style="stroke:#050105; fill:none;"/>
	<path d="M 811.0,499.0 L 813.0,500.0" style="stroke:#050105; fill:none;"/>
	<path d="M 674.0,501.0 L 675.0,501.0" style="stroke:#050105; fill:none;"/>
	<path d="M 806.0,501.0 L 808.0,503.0" style="stroke:#050105; fill:none;"/>
	<path d="M 858.0,501.0 L 857.0,506.0" style="stroke:#050105; fill:none;"/>
	<path d="M 803.0,502.0 L 804.0,502.0" style="stroke:#050105; fill:none;"/>
	<path d="M 793.0,503.0 L 795.0,504.0" style="stroke:#050105; fill:none;"/>
	<path d="M 755.0,504.0 L 756.0,504.0" style="stroke:#050105; fill:none;"/>
	<path d="M 814.0,505.0 L 815.0,508.0" style="stroke:#050105; fill:none;"/>
	<path d="M 263.0,506.0 L 262.0,507.0" style="stroke:#050105; fill:none;"/>
	<path d="M 678.0,506.0 L 681.0,512.0" style="stroke:#050105; fill:none;"/>
	<path d="M 790.0,509.0 L 793.0,506.0" style="stroke:#050105; fill:none;"/>
	<path d="M 810.0,506.0 L 811.0,513.0" style="stroke:#050105; fill:none;"/>
	<path d="M 837.0,506.0 L 837.0,508.0" style="stroke:#050105; fill:none;"/>
	<path d="M 753.0,508.0 L 754.0,508.0" style="stroke:#050105; fill:none;"/>
	<path d="M 858.0,509.0 L 860.0,508.0" style="stroke:#050105; fill:none;"/>
	<path d="M 258.0,513.0 L 255.0,515.0 L 260.0,510.0" style="stroke:#050105; fill:none;"/>
	<path d="M 752.0,512.0 L 754.0,511.0" style="stroke:#050105; fill:none;"/>
	<path d="M 259.0,512.0 L 258.0,513.0" style="stroke:#050105; fill:none;"/>
	<path d="M 840.0,512.0 L 840.0,513.0" style="stroke:#050105; fill:none;"/>
	<path d="M 858.0,516.0 L 861.0,512.0" style="stroke:#050105; fill:none;"/>
	<path d="M 683.0,513.0 L 684.0,515.0" style="stroke:#050105; fill:none;"/>
	<path d="M 816.0,513.0 L 816.0,515.0" style="stroke:#050105; fill:none;"/>
	<path d="M 753.0,514.0 L 753.0,515.0" style="stroke:#050105; fill:none;"/>
	<path d="M 795.0,514.0 L 795.0,516.0" style="stroke:#050105; fill:none;"/>
	<path d="M 255.0,515.0 L 254.0,519.0 L 256.0,517.0" style="stroke:#050105; fill:none;"/>
	<path d="M 788.0,515.0 L 790.0,520.0" style="stroke:#050105; fill:none;"/>
	<path d="M 845.0,515.0 L 845.0,517.0" style="stroke:#050105; fill:none;"/>
	<path d="M 859.0,518.0 L 859.0,519.0" style="stroke:#050105; fill:none;"/>
	<path d="M 252.0,519.0 L 242.0,537.0 L 245.0,533.0" style="stroke:#050105; fill:none;"/>
	<path d="M 842.0,519.0 L 843.0,524.0 L 845.0,519.0" style="stroke:#050105; fill:none;"/>
	<path d="M 815.0,520.0 L 813.0,523.0" style="stroke:#050105; fill:none;"/>
	<path d="M 860.0,521.0 L 860.0,522.0" style="stroke:#050105; fill:none;"/>
	<path d="M 843.0,526.0 L 843.0,527.0" style="stroke:#050105; fill:none;"/>
	<path d="M 861.0,526.0 L 861.0,527.0" style="stroke:#050105; fill:none;"/>
	<path d="M 804.0,530.0 L 805.0,531.0" style="stroke:#050105; fill:none;"/>
	<path d="M 847.0,530.0 L 846.0,531.0" style="stroke:#050105; fill:none;"/>
	<path d="M 862.0,531.0 L 861.0,532.0" style="stroke:#050105; fill:none;"/>
	<path d="M 844.0,532.0 L 845.0,534.0" style="stroke:#050105; fill:none;"/>
	<path d="M 847.0,533.0 L 847.0,534.0" style="stroke:#050105; fill:none;"/>
	<path d="M 861.0,535.0 L 863.0,535.0" style="stroke:#050105; fill:none;"/>
	<path d="M 243.0,538.0 C 239.923,541.717 234.788,545.171 238.0,550.0" style="stroke:#050105; fill:none;"/>
	<path d="M 844.0,538.0 L 843.0,542.0" style="stroke:#050105; fill:none;"/>
	<path d="M 848.0,539.0 L 848.0,543.0" style="stroke:#050105; fill:none;"/>
	<path d="M 863.0,539.0 L 863.0,540.0" style="stroke:#050105; fill:none;"/>
	<path d="M 715.0,542.0 L 716.0,542.0" style="stroke:#050105; fill:none;"/>
	<path d="M 864.0,543.0 L 865.0,543.0" style="stroke:#050105; fill:none;"/>
	<path d="M 848.0,546.0 L 848.0,550.0" style="stroke:#050105; fill:none;"/>
	<path d="M 866.0,547.0 L 866.0,548.0" style="stroke:#050105; fill:none;"/>
	<path d="M 839.0,548.0 L 840.0,548.0" style="stroke:#050105; fill:none;"/>
	<path d="M 236.0,549.0 C 229.847,558.707 216.054,579.453 217.0,591.0" style="stroke:#050105; fill:none;"/>
	<path d="M 834.0,556.0 L 836.0,555.0" style="stroke:#050105; fill:none;"/>
	<path d="M 847.0,556.0 L 847.0,561.0" style="stroke:#050105; fill:none;"/>
	<path d="M 826.0,562.0 L 823.0,564.0" style="stroke:#050105; fill:none;"/>
	<path d="M 867.0,565.0 L 863.0,596.0" style="stroke:#050105; fill:none;"/>
	<path d="M 846.0,568.0 L 847.0,568.0" style="stroke:#050105; fill:none;"/>
	<path d="M 837.0,569.0 L 837.0,570.0" style="stroke:#050105; fill:none;"/>
	<path d="M 802.0,572.0 L 803.0,573.0" style="stroke:#050105; fill:none;"/>
	<path d="M 846.0,574.0 L 845.0,580.0" style="stroke:#050105; fill:none;"/>
	<path d="M 772.0,579.0 L 773.0,579.0" style="stroke:#050105; fill:none;"/>
	<path d="M 778.0,583.0 L 780.0,584.0" style="stroke:#050105; fill:none;"/>
	<path d="M 838.0,584.0 L 836.0,589.0" style="stroke:#050105; fill:none;"/>
	<path d="M 842.0,592.0 L 842.0,593.0" style="stroke:#050105; fill:none;"/>
	<path d="M 812.0,594.0 L 813.0,594.0" style="stroke:#050105; fill:none;"/>
	<path d="M 803.0,600.0 L 805.0,602.0" style="stroke:#050105; fill:none;"/>
	<path d="M 184.0,650.0 L 181.0,658.0" style="stroke:#050105; fill:none;"/>
	<path d="M 173.0,678.0 L 180.0,663.0" style="stroke:#050105; fill:none;"/>
	<path d="M 177.0,666.0 L 178.0,667.0" style="stroke:#050105; fill:none;"/>
	<path d="M 1595.0,676.0 L 1597.0,675.0" style="stroke:#050105; fill:none;"/>
	<path d="M 172.0,684.0 L 172.0,685.0" style="stroke:#050105; fill:none;"/>
	<path d="M 1582.0,687.0 L 1584.0,687.0" style="stroke:#050105; fill:none;"/>
	<path d="M 1575.0,696.0 L 1575.0,697.0" style="stroke:#050105; fill:none;"/>
	<path d="M 1303.0,748.0 L 1305.0,749.0" style="stroke:#050105; fill:none;"/>
	<path d="M 1312.0,751.0 L 1314.0,752.0" style="stroke:#050105; fill:none;"/>
	<path d="M 1345.0,756.0 L 1347.0,757.0" style="stroke:#050105; fill:none;"/>
	<path d="M 1352.0,760.0 L 1354.0,762.0" style="stroke:#050105; fill:none;"/>
	<path d="M 1102.0,770.0 C 1101.02,772.158 1100.81,772.501 1099.0,771.0" style="stroke:#050105; fill:none;"/>
	<path d="M 1506.0,770.0 L 1507.0,770.0" style="stroke:#050105; fill:none;"/>
	<path d="M 1108.0,771.0 L 1108.0,772.0" style="stroke:#050105; fill:none;"/>
	<path d="M 1169.0,772.0 L 1171.0,771.0" style="stroke:#050105; fill:none;"/>
	<path d="M 1090.0,775.0 L 1097.0,772.0" style="stroke:#050105; fill:none;"/>
	<path d="M 1120.0,772.0 L 1112.0,774.0" style="stroke:#050105; fill:none;"/>
	<path d="M 1130.0,773.0 L 1142.0,774.0" style="stroke:#050105; fill:none;"/>
	<path d="M 1161.0,772.0 L 1162.0,772.0" style="stroke:#050105; fill:none;"/>
	<path d="M 1086.0,775.0 L 1090.0,773.0" style="stroke:#050105; fill:none;"/>
	<path d="M 1106.0,775.0 L 1105.0,776.0" style="stroke:#050105; fill:none;"/>
	<path d="M 1369.0,775.0 L 1369.0,776.0" style="stroke:#050105; fill:none;"/>
	<path d="M 1079.0,776.0 L 1068.0,781.0" style="stroke:#050105; fill:none;"/>
	<path d="M 1371.0,777.0 L 1372.0,777.0" style="stroke:#050105; fill:none;"/>
	<path d="M 1496.0,781.0 L 1496.0,782.0" style="stroke:#050105; fill:none;"/>
	<path d="M 1386.0,784.0 L 1387.0,785.0" style="stroke:#050105; fill:none;"/>
	<path d="M 1239.0,790.0 L 1238.0,791.0" style="stroke:#050105; fill:none;"/>
	<path d="M 1125.0,796.0 L 1127.0,797.0" style="stroke:#050105; fill:none;"/>
	<path d="M 1119.0,798.0 L 1122.0,798.0" style="stroke:#050105; fill:none;"/>
	<path d="M 1109.0,798.0 L 1111.0,799.0" style="stroke:#050105; fill:none;"/>
	<path d="M 1250.0,798.0 L 1251.0,799.0" style="stroke:#050105; fill:none;"/>
	<path d="M 1087.0,799.0 L 1088.0,799.0" style="stroke:#050105; fill:none;"/>
	<path d="M 1093.0,799.0 L 1095.0,799.0" style="stroke:#050105; fill:none;"/>
	<path d="M 1113.0,799.0 L 1114.0,799.0" style="stroke:#050105; fill:none;"/>
	<path d="M 1183.0,800.0 L 1183.0,801.0" style="stroke:#050105; fill:none;"/>
	<path d="M 141.0,802.0 L 140.0,804.0" style="stroke:#050105; fill:none;"/>
	<path d="M 1385.0,803.0 L 1386.0,804.0" style="stroke:#050105; fill:none;"/>
	<path d="M 1188.0,804.0 L 1189.0,804.0" style="stroke:#050105; fill:none;"/>
	<path d="M 1192.0,806.0 C 1196.82,805.882 1201.87,807.489 1204.0,812.0" style="stroke:#050105; fill:none;"/>
	<path d="M 1257.0,805.0 L 1261.0,809.0" style="stroke:#050105; fill:none;"/>
	<path d="M 1083.0,809.0 L 1083.0,810.0" style="stroke:#050105; fill:none;"/>
	<path d="M 140.0,810.0 L 138.0,816.0" style="stroke:#050105; fill:none;"/>
	<path d="M 1205.0,811.0 L 1226.0,819.0" style="stroke:#050105; fill:none;"/>
	<path d="M 1265.0,811.0 L 1266.0,813.0" style="stroke:#050105; fill:none;"/>
	<path d="M 1470.0,815.0 L 1468.0,818.0" style="stroke:#050105; fill:none;"/>
	<path d="M 1082.0,816.0 L 1082.0,817.0" style="stroke:#050105; fill:none;"/>
	<path d="M 1215.0,816.0 L 1217.0,816.0" style="stroke:#050105; fill:none;"/>
	<path d="M 1258.0,816.0 L 1259.0,816.0" style="stroke:#050105; fill:none;"/>
	<path d="M 1269.0,816.0 L 1271.0,817.0" style="stroke:#050105; fill:none;"/>
	<path d="M 1253.0,817.0 L 1253.0,818.0" style="stroke:#050105; fill:none;"/>
	<path d="M 1066.0,818.0 L 1066.0,822.0" style="stroke:#050105; fill:none;"/>
	<path d="M 1237.0,819.0 L 1239.0,818.0" style="stroke:#050105; fill:none;"/>
	<path d="M 1230.0,821.0 L 1237.0,827.0" style="stroke:#050105; fill:none;"/>
	<path d="M 137.0,822.0 L 138.0,826.0 L 134.0,831.0" style="stroke:#050105; fill:none;"/>
	<path d="M 1068.0,823.0 L 1068.0,824.0" style="stroke:#050105; fill:none;"/>
	<path d="M 1278.0,824.0 L 1278.0,826.0" style="stroke:#050105; fill:none;"/>
	<path d="M 136.0,826.0 L 137.0,827.0" style="stroke:#050105; fill:none;"/>
	<path d="M 1073.0,828.0 L 1078.0,832.0" style="stroke:#050105; fill:none;"/>
	<path d="M 1457.0,829.0 L 1456.0,830.0" style="stroke:#050105; fill:none;"/>
	<path d="M 137.0,831.0 L 137.0,832.0" style="stroke:#050105; fill:none;"/>
	<path d="M 1241.0,832.0 L 1245.0,835.0" style="stroke:#050105; fill:none;"/>
	<path d="M 1082.0,834.0 L 1091.0,841.0" style="stroke:#050105; fill:none;"/>
	<path d="M 1284.0,834.0 L 1284.0,835.0" style="stroke:#050105; fill:none;"/>
	<path d="M 134.0,835.0 L 134.0,836.0" style="stroke:#050105; fill:none;"/>
	<path d="M 137.0,837.0 L 134.0,838.0" style="stroke:#050105; fill:none;"/>
	<path d="M 1246.0,837.0 C 1248.31,837.598 1249.34,837.849 1248.0,840.0" style="stroke:#050105; fill:none;"/>
	<path d="M 1286.0,837.0 L 1286.0,838.0" style="stroke:#050105; fill:none;"/>
	<path d="M 1206.0,840.0 L 1205.0,841.0" style="stroke:#050105; fill:none;"/>
	<path d="M 1250.0,840.0 L 1257.0,843.0" style="stroke:#050105; fill:none;"/>
	<path d="M 135.0,842.0 L 135.0,855.0" style="stroke:#050105; fill:none;"/>
	<path d="M 1094.0,844.0 L 1101.0,852.0" style="stroke:#050105; fill:none;"/>
	<path d="M 1253.0,844.0 L 1267.0,857.0" style="stroke:#050105; fill:none;"/>
	<path d="M 1262.0,845.0 L 1270.0,845.0" style="stroke:#050105; fill:none;"/>
	<path d="M 1290.0,845.0 L 1290.0,846.0" style="stroke:#050105; fill:none;"/>
	<path d="M 1199.0,847.0 L 1201.0,846.0" style="stroke:#050105; fill:none;"/>
	<path d="M 1270.0,849.0 L 1277.0,847.0" style="stroke:#050105; fill:none;"/>
	<path d="M 1245.0,851.0 L 1246.0,854.0" style="stroke:#050105; fill:none;"/>
	<path d="M 1267.0,851.0 L 1267.0,852.0" style="stroke:#050105; fill:none;"/>
	<path d="M 614.0,852.0 L 614.0,854.0" style="stroke:#050105; fill:none;"/>
	<path d="M 1192.0,853.0 L 1191.0,855.0" style="stroke:#050105; fill:none;"/>
	<path d="M 1102.0,854.0 L 1108.0,861.0" style="stroke:#050105; fill:none;"/>
	<path d="M 615.0,860.0 L 615.0,861.0" style="stroke:#050105; fill:none;"/>
	<path d="M 1230.0,860.0 L 1230.0,865.0" style="stroke:#050105; fill:none;"/>
	<path d="M 1249.0,860.0 L 1249.0,861.0" style="stroke:#050105; fill:none;"/>
	<path d="M 1265.0,860.0 L 1272.0,863.0" style="stroke:#050105; fill:none;"/>
	<path d="M 1272.0,860.0 L 1272.0,861.0" style="stroke:#050105; fill:none;"/>
	<path d="M 1187.0,861.0 L 1189.0,861.0" style="stroke:#050105; fill:none;"/>
	<path d="M 135.0,863.0 L 135.0,865.0" style="stroke:#050105; fill:none;"/>
	<path d="M 1188.0,863.0 L 1186.0,866.0" style="stroke:#050105; fill:none;"/>
	<path d="M 1280.0,863.0 L 1281.0,863.0" style="stroke:#050105; fill:none;"/>
	<path d="M 1291.0,864.0 L 1292.0,864.0" style="stroke:#050105; fill:none;"/>
	<path d="M 617.0,865.0 L 617.0,867.0" style="stroke:#050105; fill:none;"/>
	<path d="M 1108.0,865.0 L 1109.0,867.0" style="stroke:#050105; fill:none;"/>
	<path d="M 1251.0,866.0 L 1252.0,867.0" style="stroke:#050105; fill:none;"/>
	<path d="M 1280.0,866.0 L 1280.0,867.0" style="stroke:#050105; fill:none;"/>
	<path d="M 1296.0,866.0 L 1299.0,872.0" style="stroke:#050105; fill:none;"/>
	<path d="M 1283.0,867.0 L 1283.0,868.0" style="stroke:#050105; fill:none;"/>
	<path d="M 1272.0,868.0 L 1274.0,875.0" style="stroke:#050105; fill:none;"/>
	<path d="M 1286.0,870.0 L 1289.0,868.0" style="stroke:#050105; fill:none;"/>
	<path d="M 1291.0,868.0 L 1291.0,870.0" style="stroke:#050105; fill:none;"/>
	<path d="M 1224.0,873.0 L 1228.0,869.0" style="stroke:#050105; fill:none;"/>
	<path d="M 1253.0,869.0 L 1253.0,870.0" style="stroke:#050105; fill:none;"/>
	<path d="M 1111.0,870.0 L 1115.0,876.0" style="stroke:#050105; fill:none;"/>
	<path d="M 1230.0,871.0 L 1230.0,874.0" style="stroke:#050105; fill:none;"/>
	<path d="M 1255.0,874.0 L 1255.0,875.0" style="stroke:#050105; fill:none;"/>
	<path d="M 1208.0,875.0 L 1211.0,885.0" style="stroke:#050105; fill:none;"/>
	<path d="M 1298.0,875.0 L 1299.0,875.0" style="stroke:#050105; fill:none;"/>
	<path d="M 136.0,878.0 L 136.0,879.0" style="stroke:#050105; fill:none;"/>
	<path d="M 1222.0,878.0 L 1216.0,883.0" style="stroke:#050105; fill:none;"/>
	<path d="M 1276.0,878.0 L 1278.0,882.0" style="stroke:#050105; fill:none;"/>
	<path d="M 1289.0,878.0 L 1287.0,879.0" style="stroke:#050105; fill:none;"/>
	<path d="M 1256.0,879.0 L 1257.0,880.0" style="stroke:#050105; fill:none;"/>
	<path d="M 1299.0,880.0 L 1300.0,883.0" style="stroke:#050105; fill:none;"/>
	<path d="M 1208.0,884.0 L 1208.0,886.0" style="stroke:#050105; fill:none;"/>
	<path d="M 1279.0,885.0 L 1280.0,889.0" style="stroke:#050105; fill:none;"/>
	<path d="M 133.0,886.0 L 134.0,886.0" style="stroke:#050105; fill:none;"/>
	<path d="M 1257.0,886.0 L 1257.0,888.0" style="stroke:#050105; fill:none;"/>
	<path d="M 1125.0,887.0 L 1126.0,889.0" style="stroke:#050105; fill:none;"/>
	<path d="M 661.0,889.0 L 670.0,894.0" style="stroke:#050105; fill:none;"/>
	<path d="M 1296.0,896.0 L 1299.0,899.0" style="stroke:#050105; fill:none;"/>
	<path d="M 1300.0,896.0 L 1304.0,900.0" style="stroke:#050105; fill:none;"/>
	<path d="M 657.0,897.0 L 658.0,898.0" style="stroke:#050105; fill:none;"/>
	<path d="M 675.0,897.0 L 676.0,897.0" style="stroke:#050105; fill:none;"/>
	<path d="M 1255.0,897.0 L 1254.0,901.0" style="stroke:#050105; fill:none;"/>
	<path d="M 1132.0,898.0 L 1135.0,901.0" style="stroke:#050105; fill:none;"/>
	<path d="M 1278.0,900.0 L 1278.0,901.0" style="stroke:#050105; fill:none;"/>
	<path d="M 679.0,901.0 L 680.0,901.0" style="stroke:#050105; fill:none;"/>
	<path d="M 1137.0,904.0 L 1138.0,904.0" style="stroke:#050105; fill:none;"/>
	<path d="M 685.0,905.0 L 685.0,907.0 L 685.0,905.0" style="stroke:#050105; fill:none;"/>
	<path d="M 1278.0,914.0 L 1276.0,905.0" style="stroke:#050105; fill:none;"/>
	<path d="M 1297.0,905.0 L 1298.0,905.0" style="stroke:#050105; fill:none;"/>
	<path d="M 131.0,907.0 L 132.0,908.0" style="stroke:#050105; fill:none;"/>
	<path d="M 1257.0,907.0 L 1258.0,907.0" style="stroke:#050105; fill:none;"/>
	<path d="M 685.0,908.0 L 687.0,908.0" style="stroke:#050105; fill:none;"/>
	<path d="M 1140.0,908.0 L 1144.0,913.0" style="stroke:#050105; fill:none;"/>
	<path d="M 1297.0,909.0 L 1297.0,910.0" style="stroke:#050105; fill:none;"/>
	<path d="M 686.0,910.0 L 687.0,911.0" style="stroke:#050105; fill:none;"/>
	<path d="M 1246.0,913.0 L 1244.0,915.0" style="stroke:#050105; fill:none;"/>
	<path d="M 1255.0,914.0 L 1252.0,919.0" style="stroke:#050105; fill:none;"/>
	<path d="M 1289.0,914.0 L 1298.0,917.0" style="stroke:#050105; fill:none;"/>
	<path d="M 690.0,915.0 L 694.0,922.0" style="stroke:#050105; fill:none;"/>
	<path d="M 1271.0,915.0 L 1269.0,916.0" style="stroke:#050105; fill:none;"/>
	<path d="M 1242.0,917.0 L 1241.0,918.0" style="stroke:#050105; fill:none;"/>
	<path d="M 1280.0,917.0 L 1280.0,918.0" style="stroke:#050105; fill:none;"/>
	<path d="M 673.0,919.0 L 673.0,920.0" style="stroke:#050105; fill:none;"/>
	<path d="M 1264.0,920.0 L 1267.0,920.0" style="stroke:#050105; fill:none;"/>
	<path d="M 1186.0,921.0 L 1187.0,922.0" style="stroke:#050105; fill:none;"/>
	<path d="M 1248.0,924.0 L 1242.0,932.0" style="stroke:#050105; fill:none;"/>
	<path d="M 1285.0,924.0 L 1291.0,928.0" style="stroke:#050105; fill:none;"/>
	<path d="M 1268.0,925.0 L 1269.0,925.0" style="stroke:#050105; fill:none;"/>
	<path d="M 1191.0,926.0 L 1192.0,927.0" style="stroke:#050105; fill:none;"/>
	<path d="M 1299.0,928.0 L 1300.0,928.0" style="stroke:#050105; fill:none;"/>
	<path d="M 1219.0,929.0 L 1221.0,929.0" style="stroke:#050105; fill:none;"/>
	<path d="M 1297.0,930.0 L 1299.0,932.0" style="stroke:#050105; fill:none;"/>
	<path d="M 1256.0,931.0 L 1257.0,931.0" style="stroke:#050105; fill:none;"/>
	<path d="M 1173.0,932.0 L 1176.0,933.0" style="stroke:#050105; fill:none;"/>
	<path d="M 1277.0,933.0 L 1278.0,933.0" style="stroke:#050105; fill:none;"/>
	<path d="M 1280.0,934.0 L 1285.0,936.0" style="stroke:#050105; fill:none;"/>
	<path d="M 699.0,936.0 L 699.0,937.0" style="stroke:#050105; fill:none;"/>
	<path d="M 1287.0,940.0 L 1297.0,944.0" style="stroke:#050105; fill:none;"/>
	<path d="M 389.0,941.0 L 392.0,943.0" style="stroke:#050105; fill:none;"/>
	<path d="M 1227.0,942.0 L 1229.0,942.0" style="stroke:#050105; fill:none;"/>
	<path d="M 1215.0,943.0 L 1216.0,943.0" style="stroke:#050105; fill:none;"/>
	<path d="M 1218.0,943.0 L 1220.0,943.0" style="stroke:#050105; fill:none;"/>
	<path d="M 412.0,945.0 L 423.0,954.0" style="stroke:#050105; fill:none;"/>
	<path d="M 1273.0,948.0 L 1274.0,948.0" style="stroke:#050105; fill:none;"/>
	<path d="M 1268.0,949.0 L 1269.0,950.0" style="stroke:#050105; fill:none;"/>
	<path d="M 1277.0,950.0 L 1282.0,954.0" style="stroke:#050105; fill:none;"/>
	<path d="M 743.0,953.0 L 744.0,954.0" style="stroke:#050105; fill:none;"/>
	<path d="M 1249.0,955.0 L 1250.0,956.0" style="stroke:#050105; fill:none;"/>
	<path d="M 1271.0,956.0 L 1271.0,957.0" style="stroke:#050105; fill:none;"/>
	<path d="M 128.0,957.0 L 128.0,958.0" style="stroke:#050105; fill:none;"/>
	<path d="M 1286.0,957.0 L 1289.0,959.0" style="stroke:#050105; fill:none;"/>
	<path d="M 425.0,958.0 L 440.0,975.0" style="stroke:#050105; fill:none;"/>
	<path d="M 1278.0,960.0 L 1279.0,960.0" style="stroke:#050105; fill:none;"/>
	<path d="M 1240.0,968.0 L 1241.0,968.0" style="stroke:#050105; fill:none;"/>
	<path d="M 1237.0,972.0 L 1238.0,974.0" style="stroke:#050105; fill:none;"/>
	<path d="M 1238.0,976.0 L 1238.0,977.0" style="stroke:#050105; fill:none;"/>
	<path d="M 442.0,979.0 L 443.0,980.0" style="stroke:#050105; fill:none;"/>
	<path d="M 450.0,988.0 L 455.0,995.0" style="stroke:#050105; fill:none;"/>
	<path d="M 458.0,997.0 L 458.0,998.0" style="stroke:#050105; fill:none;"/>
	<path d="M 753.0,1000.0 L 757.0,999.0" style="stroke:#050105; fill:none;"/>
	<path d="M 769.0,999.0 L 769.0,1001.0" style="stroke:#050105; fill:none;"/>
	<path d="M 773.0,1001.0 L 775.0,1000.0" style="stroke:#050105; fill:none;"/>
	<path d="M 777.0,1002.0 L 780.0,1001.0" style="stroke:#050105; fill:none;"/>
	<path d="M 786.0,1004.0 L 788.0,1004.0" style="stroke:#050105; fill:none;"/>
	<path d="M 791.0,1005.0 L 792.0,1006.0" style="stroke:#050105; fill:none;"/>
	<path d="M 464.0,1006.0 L 470.0,1013.0" style="stroke:#050105; fill:none;"/>
	<path d="M 801.0,1008.0 L 802.0,1009.0" style="stroke:#050105; fill:none;"/>
	<path d="M 806.0,1011.0 L 807.0,1011.0" style="stroke:#050105; fill:none;"/>
	<path d="M 472.0,1014.0 L 479.0,1022.0" style="stroke:#050105; fill:none;"/>
	<path d="M 532.0,1016.0 L 534.0,1017.0" style="stroke:#050105; fill:none;"/>
	<path d="M 482.0,1025.0 L 483.0,1025.0" style="stroke:#050105; fill:none;"/>
	<path d="M 484.0,1028.0 L 499.0,1043.0" style="stroke:#050105; fill:none;"/>
	<path d="M 551.0,1028.0 L 553.0,1029.0" style="stroke:#050105; fill:none;"/>
	<path d="M 803.0,1031.0 L 803.0,1032.0" style="stroke:#050105; fill:none;"/>
	<path d="M 560.0,1035.0 L 560.0,1036.0" style="stroke:#050105; fill:none;"/>
	<path d="M 856.0,1036.0 L 855.0,1037.0" style="stroke:#050105; fill:none;"/>
	<path d="M 501.0,1046.0 L 517.0,1062.0" style="stroke:#050105; fill:none;"/>
	<path d="M 520.0,1065.0 L 532.0,1078.0" style="stroke:#050105; fill:none;"/>
	<path d="M 534.0,1082.0 L 535.0,1082.0" style="stroke:#050105; fill:none;"/>
	<path d="M 546.0,1090.0 L 550.0,1094.0" style="stroke:#050105; fill:none;"/>
	<path d="M 552.0,1097.0 L 553.0,1098.0" style="stroke:#050105; fill:none;"/>
	<path d="M 555.0,1101.0 L 556.0,1101.0" style="stroke:#050105; fill:none;"/>
	<path d="M 560.0,1104.0 L 565.0,1110.0" style="stroke:#050105; fill:none;"/>
	<path d="M 454.0,1108.0 L 455.0,1110.0" style="stroke:#050105; fill:none;"/>
	<path d="M 567.0,1114.0 L 584.0,1127.0" style="stroke:#050105; fill:none;"/>
	<path d="M 572.0,1117.0 L 572.0,1119.0" style="stroke:#050105; fill:none;"/>
	<path d="M 589.0,1131.0 L 610.0,1144.0" style="stroke:#050105; fill:none;"/>
	<path d="M 682.0,1152.0 L 682.0,1153.0" style="stroke:#050105; fill:none;"/>
	<path d="M 624.0,1155.0 L 625.0,1156.0" style="stroke:#050105; fill:none;"/>
	<path d="M 1170.0,1159.0 L 1171.0,1159.0" style="stroke:#050105; fill:none;"/>
	<path d="M 1165.0,1168.0 L 1164.0,1169.0" style="stroke:#050105; fill:none;"/>
	<path d="M 650.0,1172.0 L 651.0,1172.0" style="stroke:#050105; fill:none;"/>
	<path d="M 1158.0,1174.0 L 1159.0,1175.0" style="stroke:#050105; fill:none;"/>
	<path d="M 655.0,1176.0 L 658.0,1177.0" style="stroke:#050105; fill:none;"/>
	<path d="M 662.0,1179.0 L 672.0,1184.0" style="stroke:#050105; fill:none;"/>
	<path d="M 1151.0,1185.0 L 1148.0,1186.0" style="stroke:#050105; fill:none;"/>
	<path d="M 676.0,1186.0 L 678.0,1188.0" style="stroke:#050105; fill:none;"/>
	<path d="M 528.0,1190.0 L 527.0,1191.0" style="stroke:#050105; fill:none;"/>
	<path d="M 533.0,1194.0 L 533.0,1195.0" style="stroke:#050105; fill:none;"/>
	<path d="M 688.0,1194.0 L 690.0,1194.0" style="stroke:#050105; fill:none;"/>
	<path d="M 694.0,1197.0 L 695.0,1197.0" style="stroke:#050105; fill:none;"/>
	<path d="M 697.0,1198.0 L 699.0,1199.0" style="stroke:#050105; fill:none;"/>
	<path d="M 1141.0,1198.0 L 1135.0,1204.0" style="stroke:#050105; fill:none;"/>
	<path d="M 703.0,1201.0 L 707.0,1204.0" style="stroke:#050105; fill:none;"/>
	<path d="M 541.0,1202.0 L 542.0,1202.0" style="stroke:#050105; fill:none;"/>
	<path d="M 710.0,1205.0 L 714.0,1207.0" style="stroke:#050105; fill:none;"/>
	<path d="M 546.0,1206.0 L 547.0,1207.0" style="stroke:#050105; fill:none;"/>
	<path d="M 1133.0,1207.0 L 1135.0,1206.0" style="stroke:#050105; fill:none;"/>
	<path d="M 1131.0,1208.0 L 1130.0,1212.0" style="stroke:#050105; fill:none;"/>
	<path d="M 550.0,1209.0 L 551.0,1209.0" style="stroke:#050105; fill:none;"/>
	<path d="M 718.0,1209.0 L 719.0,1210.0" style="stroke:#050105; fill:none;"/>
	<path d="M 722.0,1210.0 L 721.0,1211.0" style="stroke:#050105; fill:none;"/>
	<path d="M 725.0,1211.0 L 737.0,1221.0" style="stroke:#050105; fill:none;"/>
	<path d="M 1127.0,1215.0 L 1122.0,1222.0" style="stroke:#050105; fill:none;"/>
	<path d="M 740.0,1226.0 L 744.0,1240.0" style="stroke:#050105; fill:none;"/>
	<path d="M 1115.0,1227.0 L 1115.0,1228.0" style="stroke:#050105; fill:none;"/>
	<path d="M 741.0,1231.0 L 741.0,1232.0" style="stroke:#050105; fill:none;"/>
	<path d="M 911.0,1398.0 L 908.0,1400.0" style="stroke:#050105; fill:none;"/>
	<path d="M 888.0,1410.0 L 889.0,1410.0" style="stroke:#050105; fill:none;"/>
	<path d="M 618.0,1456.0 L 618.0,1457.0" style="stroke:#050105; fill:none;"/>
</svg>
