<?xml version="1.0" ?>
<svg baseProfile="full" height="1268" version="1.1" width="1400" xmlns="http://www.w3.org/2000/svg" xmlns:ev="http://www.w3.org/2001/xml-events" xmlns:xlink="http://www.w3.org/1999/xlink">
	<defs/>
	<path d="M 822.0,344.0 L 824.0,343.0" style="stroke:#050105; fill:none;"/>
	<path d="M 811.0,345.0 L 809.0,350.0" style="stroke:#050105; fill:none;"/>
	<path d="M 805.0,346.0 L 806.0,346.0" style="stroke:#050105; fill:none;"/>
	<path d="M 882.0,359.0 L 882.0,360.0" style="stroke:#050105; fill:none;"/>
	<path d="M 778.0,361.0 L 778.0,362.0" style="stroke:#050105; fill:none;"/>
	<path d="M 880.0,361.0 L 878.0,363.0" style="stroke:#050105; fill:none;"/>
	<path d="M 817.0,363.0 L 818.0,363.0" style="stroke:#050105; fill:none;"/>
	<path d="M 832.0,363.0 L 837.0,364.0" style="stroke:#050105; fill:none;"/>
	<path d="M 801.0,365.0 L 793.0,371.0" style="stroke:#050105; fill:none;"/>
	<path d="M 806.0,366.0 L 815.0,367.0" style="stroke:#050105; fill:none;"/>
	<path d="M 844.0,365.0 L 845.0,365.0" style="stroke:#050105; fill:none;"/>
	<path d="M 848.0,366.0 L 849.0,367.0" style="stroke:#050105; fill:none;"/>
	<path d="M 820.0,368.0 L 822.0,369.0" style="stroke:#050105; fill:none;"/>
	<path d="M 764.0,373.0 L 765.0,373.0" style="stroke:#050105; fill:none;"/>
	<path d="M 786.0,373.0 L 786.0,374.0" style="stroke:#050105; fill:none;"/>
	<path d="M 829.0,373.0 L 830.0,374.0" style="stroke:#050105; fill:none;"/>
	<path d="M 774.0,382.0 L 775.0,382.0" style="stroke:#050105; fill:none;"/>
	<path d="M 836.0,384.0 L 836.0,386.0" style="stroke:#050105; fill:none;"/>
	<path d="M 798.0,389.0 L 801.0,388.0" style="stroke:#050105; fill:none;"/>
	<path d="M 793.0,391.0 L 796.0,390.0" style="stroke:#050105; fill:none;"/>
	<path d="M 864.0,390.0 L 864.0,391.0" style="stroke:#050105; fill:none;"/>
	<path d="M 789.0,392.0 L 791.0,392.0" style="stroke:#050105; fill:none;"/>
	<path d="M 798.0,393.0 L 800.0,394.0" style="stroke:#050105; fill:none;"/>
	<path d="M 786.0,395.0 L 788.0,397.0" style="stroke:#050105; fill:none;"/>
	<path d="M 762.0,396.0 L 762.0,397.0" style="stroke:#050105; fill:none;"/>
	<path d="M 799.0,397.0 L 807.0,399.0" style="stroke:#050105; fill:none;"/>
	<path d="M 792.0,398.0 L 792.0,399.0" style="stroke:#050105; fill:none;"/>
	<path d="M 857.0,399.0 L 857.0,401.0" style="stroke:#050105; fill:none;"/>
	<path d="M 838.0,401.0 L 840.0,401.0 L 839.0,404.0" style="stroke:#050105; fill:none;"/>
	<path d="M 804.0,407.0 L 797.0,411.0" style="stroke:#050105; fill:none;"/>
	<path d="M 837.0,408.0 L 836.0,409.0" style="stroke:#050105; fill:none;"/>
	<path d="M 759.0,410.0 L 759.0,411.0" style="stroke:#050105; fill:none;"/>
	<path d="M 791.0,410.0 L 795.0,413.0" style="stroke:#050105; fill:none;"/>
	<path d="M 835.0,414.0 L 833.0,417.0" style="stroke:#050105; fill:none;"/>
	<path d="M 1064.0,420.0 L 1064.0,421.0" style="stroke:#050105; fill:none;"/>
	<path d="M 762.0,421.0 L 765.0,421.0" style="stroke:#050105; fill:none;"/>
	<path d="M 745.0,425.0 L 745.0,427.0" style="stroke:#050105; fill:none;"/>
	<path d="M 768.0,426.0 L 784.0,439.0" style="stroke:#050105; fill:none;"/>
	<path d="M 1066.0,426.0 L 1066.0,427.0" style="stroke:#050105; fill:none;"/>
	<path d="M 1066.0,429.0 L 1066.0,430.0" style="stroke:#050105; fill:none;"/>
	<path d="M 772.0,431.0 L 773.0,432.0" style="stroke:#050105; fill:none;"/>
	<path d="M 479.0,433.0 L 483.0,436.0" style="stroke:#050105; fill:none;"/>
	<path d="M 792.0,435.0 L 785.0,437.0" style="stroke:#050105; fill:none;"/>
	<path d="M 548.0,436.0 L 549.0,437.0" style="stroke:#050105; fill:none;"/>
	<path d="M 488.0,438.0 L 490.0,439.0" style="stroke:#050105; fill:none;"/>
	<path d="M 555.0,439.0 L 556.0,439.0" style="stroke:#050105; fill:none;"/>
	<path d="M 776.0,441.0 L 780.0,440.0" style="stroke:#050105; fill:none;"/>
	<path d="M 495.0,442.0 L 495.0,443.0" style="stroke:#050105; fill:none;"/>
	<path d="M 1070.0,446.0 L 1070.0,447.0" style="stroke:#050105; fill:none;"/>
	<path d="M 503.0,448.0 L 504.0,449.0" style="stroke:#050105; fill:none;"/>
	<path d="M 1134.0,448.0 L 1134.0,449.0" style="stroke:#050105; fill:none;"/>
	<path d="M 1071.0,455.0 L 1073.0,457.0" style="stroke:#050105; fill:none;"/>
	<path d="M 1136.0,458.0 L 1138.0,458.0" style="stroke:#050105; fill:none;"/>
	<path d="M 1073.0,460.0 L 1074.0,461.0" style="stroke:#050105; fill:none;"/>
	<path d="M 1074.0,465.0 L 1075.0,466.0" style="stroke:#050105; fill:none;"/>
	<path d="M 413.0,466.0 L 415.0,469.0" style="stroke:#050105; fill:none;"/>
	<path d="M 1138.0,466.0 L 1138.0,469.0" style="stroke:#050105; fill:none;"/>
	<path d="M 1076.0,470.0 L 1077.0,472.0" style="stroke:#050105; fill:none;"/>
	<path d="M 417.0,471.0 L 417.0,472.0" style="stroke:#050105; fill:none;"/>
	<path d="M 1140.0,473.0 L 1142.0,484.0" style="stroke:#050105; fill:none;"/>
	<path d="M 417.0,476.0 L 418.0,479.0" style="stroke:#050105; fill:none;"/>
	<path d="M 1076.0,477.0 L 1077.0,480.0" style="stroke:#050105; fill:none;"/>
	<path d="M 420.0,481.0 L 420.0,482.0" style="stroke:#050105; fill:none;"/>
	<path d="M 422.0,485.0 L 422.0,486.0" style="stroke:#050105; fill:none;"/>
	<path d="M 1078.0,486.0 L 1080.0,487.0" style="stroke:#050105; fill:none;"/>
	<path d="M 1142.0,488.0 L 1145.0,496.0" style="stroke:#050105; fill:none;"/>
	<path d="M 1079.0,489.0 L 1079.0,490.0" style="stroke:#050105; fill:none;"/>
	<path d="M 1119.0,489.0 L 1118.0,491.0" style="stroke:#050105; fill:none;"/>
	<path d="M 423.0,490.0 L 423.0,492.0 L 423.0,490.0" style="stroke:#050105; fill:none;"/>
	<path d="M 1116.0,493.0 L 1118.0,493.0" style="stroke:#050105; fill:none;"/>
	<path d="M 1114.0,495.0 L 1113.0,496.0" style="stroke:#050105; fill:none;"/>
	<path d="M 1081.0,496.0 L 1082.0,498.0" style="stroke:#050105; fill:none;"/>
	<path d="M 422.0,497.0 L 423.0,497.0" style="stroke:#050105; fill:none;"/>
	<path d="M 423.0,499.0 L 425.0,499.0" style="stroke:#050105; fill:none;"/>
	<path d="M 1110.0,499.0 L 1110.0,500.0" style="stroke:#050105; fill:none;"/>
	<path d="M 1144.0,500.0 L 1145.0,503.0" style="stroke:#050105; fill:none;"/>
	<path d="M 425.0,503.0 L 425.0,505.0" style="stroke:#050105; fill:none;"/>
	<path d="M 1083.0,503.0 L 1084.0,506.0" style="stroke:#050105; fill:none;"/>
	<path d="M 1100.0,510.0 L 1101.0,510.0" style="stroke:#050105; fill:none;"/>
	<path d="M 1143.0,511.0 L 1143.0,513.0" style="stroke:#050105; fill:none;"/>
	<path d="M 1097.0,514.0 L 1097.0,515.0" style="stroke:#050105; fill:none;"/>
	<path d="M 1088.0,518.0 L 1090.0,525.0" style="stroke:#050105; fill:none;"/>
	<path d="M 524.0,521.0 L 524.0,522.0" style="stroke:#050105; fill:none;"/>
	<path d="M 1090.0,523.0 L 1089.0,524.0" style="stroke:#050105; fill:none;"/>
	<path d="M 1141.0,523.0 L 1141.0,527.0" style="stroke:#050105; fill:none;"/>
	<path d="M 550.0,526.0 L 551.0,527.0" style="stroke:#050105; fill:none;"/>
	<path d="M 497.0,527.0 L 498.0,527.0" style="stroke:#050105; fill:none;"/>
	<path d="M 1090.0,528.0 L 1092.0,530.0" style="stroke:#050105; fill:none;"/>
	<path d="M 528.0,534.0 L 532.0,535.0" style="stroke:#050105; fill:none;"/>
	<path d="M 1092.0,534.0 L 1095.0,540.0" style="stroke:#050105; fill:none;"/>
	<path d="M 1141.0,535.0 L 1142.0,542.0" style="stroke:#050105; fill:none;"/>
	<path d="M 535.0,537.0 L 540.0,541.0" style="stroke:#050105; fill:none;"/>
	<path d="M 500.0,538.0 L 500.0,539.0" style="stroke:#050105; fill:none;"/>
	<path d="M 496.0,540.0 L 482.0,553.0" style="stroke:#050105; fill:none;"/>
	<path d="M 1094.0,544.0 L 1095.0,548.0" style="stroke:#050105; fill:none;"/>
	<path d="M 543.0,545.0 L 546.0,548.0" style="stroke:#050105; fill:none;"/>
	<path d="M 1141.0,545.0 L 1140.0,548.0" style="stroke:#050105; fill:none;"/>
	<path d="M 571.0,550.0 L 571.0,551.0" style="stroke:#050105; fill:none;"/>
	<path d="M 548.0,551.0 L 549.0,554.0" style="stroke:#050105; fill:none;"/>
	<path d="M 1095.0,551.0 L 1096.0,551.0" style="stroke:#050105; fill:none;"/>
	<path d="M 1139.0,551.0 L 1137.0,556.0" style="stroke:#050105; fill:none;"/>
	<path d="M 512.0,554.0 L 518.0,554.0" style="stroke:#050105; fill:none;"/>
	<path d="M 481.0,555.0 L 482.0,555.0" style="stroke:#050105; fill:none;"/>
	<path d="M 566.0,559.0 L 569.0,555.0" style="stroke:#050105; fill:none;"/>
	<path d="M 480.0,557.0 L 481.0,557.0" style="stroke:#050105; fill:none;"/>
	<path d="M 549.0,558.0 L 553.0,565.0" style="stroke:#050105; fill:none;"/>
	<path d="M 1137.0,558.0 L 1138.0,561.0" style="stroke:#050105; fill:none;"/>
	<path d="M 516.0,559.0 L 517.0,559.0" style="stroke:#050105; fill:none;"/>
	<path d="M 1098.0,559.0 L 1099.0,559.0" style="stroke:#050105; fill:none;"/>
	<path d="M 477.0,560.0 L 476.0,562.0" style="stroke:#050105; fill:none;"/>
	<path d="M 506.0,560.0 L 510.0,560.0" style="stroke:#050105; fill:none;"/>
	<path d="M 503.0,562.0 L 504.0,562.0" style="stroke:#050105; fill:none;"/>
	<path d="M 519.0,562.0 C 522.251,564.372 524.119,565.229 528.0,564.0" style="stroke:#050105; fill:none;"/>
	<path d="M 563.0,563.0 L 565.0,562.0" style="stroke:#050105; fill:none;"/>
	<path d="M 474.0,565.0 L 476.0,567.0" style="stroke:#050105; fill:none;"/>
	<path d="M 552.0,567.0 L 551.0,572.0" style="stroke:#050105; fill:none;"/>
	<path d="M 1135.0,567.0 L 1133.0,572.0" style="stroke:#050105; fill:none;"/>
	<path d="M 472.0,568.0 L 469.0,576.0" style="stroke:#050105; fill:none;"/>
	<path d="M 511.0,568.0 L 509.0,573.0" style="stroke:#050105; fill:none;"/>
	<path d="M 1100.0,568.0 L 1101.0,569.0" style="stroke:#050105; fill:none;"/>
	<path d="M 524.0,572.0 C 520.005,575.948 512.524,582.979 508.0,576.0" style="stroke:#050105; fill:none;"/>
	<path d="M 476.0,573.0 L 477.0,577.0" style="stroke:#050105; fill:none;"/>
	<path d="M 1101.0,573.0 L 1102.0,576.0" style="stroke:#050105; fill:none;"/>
	<path d="M 1131.0,576.0 L 1131.0,580.0" style="stroke:#050105; fill:none;"/>
	<path d="M 1103.0,578.0 L 1104.0,581.0" style="stroke:#050105; fill:none;"/>
	<path d="M 467.0,580.0 L 466.0,583.0" style="stroke:#050105; fill:none;"/>
	<path d="M 476.0,582.0 L 478.0,582.0" style="stroke:#050105; fill:none;"/>
	<path d="M 436.0,582.0 L 436.0,583.0" style="stroke:#050105; fill:none;"/>
	<path d="M 1104.0,584.0 L 1103.0,585.0" style="stroke:#050105; fill:none;"/>
	<path d="M 1129.0,584.0 L 1127.0,587.0" style="stroke:#050105; fill:none;"/>
	<path d="M 826.0,585.0 L 827.0,585.0" style="stroke:#050105; fill:none;"/>
	<path d="M 435.0,586.0 L 435.0,587.0" style="stroke:#050105; fill:none;"/>
	<path d="M 465.0,586.0 L 465.0,589.0" style="stroke:#050105; fill:none;"/>
	<path d="M 478.0,586.0 L 479.0,586.0" style="stroke:#050105; fill:none;"/>
	<path d="M 480.0,589.0 L 486.0,597.0" style="stroke:#050105; fill:none;"/>
	<path d="M 1106.0,589.0 L 1106.0,592.0" style="stroke:#050105; fill:none;"/>
	<path d="M 1120.0,591.0 L 1118.0,592.0" style="stroke:#050105; fill:none;"/>
	<path d="M 828.0,592.0 L 828.0,598.0" style="stroke:#050105; fill:none;"/>
	<path d="M 536.0,593.0 L 532.0,596.0" style="stroke:#050105; fill:none;"/>
	<path d="M 777.0,595.0 L 779.0,594.0" style="stroke:#050105; fill:none;"/>
	<path d="M 1115.0,593.0 L 1115.0,594.0" style="stroke:#050105; fill:none;"/>
	<path d="M 462.0,594.0 L 461.0,606.0" style="stroke:#050105; fill:none;"/>
	<path d="M 789.0,594.0 L 795.0,606.0" style="stroke:#050105; fill:none;"/>
	<path d="M 1109.0,596.0 L 1111.0,596.0" style="stroke:#050105; fill:none;"/>
	<path d="M 432.0,597.0 L 432.0,598.0" style="stroke:#050105; fill:none;"/>
	<path d="M 457.0,597.0 L 458.0,597.0" style="stroke:#050105; fill:none;"/>
	<path d="M 778.0,598.0 L 774.0,600.0 L 781.0,607.0" style="stroke:#050105; fill:none;"/>
	<path d="M 489.0,600.0 L 497.0,602.0" style="stroke:#050105; fill:none;"/>
	<path d="M 1107.0,600.0 L 1109.0,601.0" style="stroke:#050105; fill:none;"/>
	<path d="M 525.0,601.0 L 525.0,602.0" style="stroke:#050105; fill:none;"/>
	<path d="M 768.0,605.0 L 773.0,603.0 L 773.0,603.0" style="stroke:#050105; fill:none;"/>
	<path d="M 827.0,602.0 L 826.0,603.0" style="stroke:#050105; fill:none;"/>
	<path d="M 499.0,603.0 L 503.0,604.0" style="stroke:#050105; fill:none;"/>
	<path d="M 500.0,606.0 L 501.0,606.0" style="stroke:#050105; fill:none;"/>
	<path d="M 507.0,608.0 L 509.0,608.0" style="stroke:#050105; fill:none;"/>
	<path d="M 1111.0,608.0 L 1114.0,615.0" style="stroke:#050105; fill:none;"/>
	<path d="M 496.0,615.0 L 497.0,615.0" style="stroke:#050105; fill:none;"/>
	<path d="M 475.0,617.0 L 481.0,617.0" style="stroke:#050105; fill:none;"/>
	<path d="M 461.0,617.0 L 463.0,617.0" style="stroke:#050105; fill:none;"/>
	<path d="M 467.0,617.0 L 473.0,617.0" style="stroke:#050105; fill:none;"/>
	<path d="M 815.0,619.0 L 816.0,619.0" style="stroke:#050105; fill:none;"/>
	<path d="M 1114.0,633.0 L 1115.0,634.0" style="stroke:#050105; fill:none;"/>
	<path d="M 713.0,634.0 L 706.0,635.0" style="stroke:#050105; fill:none;"/>
	<path d="M 701.0,640.0 L 703.0,638.0" style="stroke:#050105; fill:none;"/>
	<path d="M 711.0,642.0 L 711.0,643.0" style="stroke:#050105; fill:none;"/>
	<path d="M 694.0,643.0 L 694.0,648.0" style="stroke:#050105; fill:none;"/>
	<path d="M 710.0,646.0 L 711.0,646.0" style="stroke:#050105; fill:none;"/>
	<path d="M 696.0,654.0 L 697.0,659.0" style="stroke:#050105; fill:none;"/>
	<path d="M 705.0,655.0 L 707.0,655.0" style="stroke:#050105; fill:none;"/>
	<path d="M 701.0,657.0 L 702.0,657.0" style="stroke:#050105; fill:none;"/>
	<path d="M 1117.0,662.0 L 1117.0,665.0" style="stroke:#050105; fill:none;"/>
	<path d="M 1117.0,672.0 L 1116.0,674.0" style="stroke:#050105; fill:none;"/>
	<path d="M 345.0,674.0 L 346.0,679.0" style="stroke:#050105; fill:none;"/>
	<path d="M 719.0,678.0 L 721.0,677.0" style="stroke:#050105; fill:none;"/>
	<path d="M 1116.0,678.0 L 1116.0,679.0" style="stroke:#050105; fill:none;"/>
	<path d="M 714.0,680.0 L 715.0,680.0" style="stroke:#050105; fill:none;"/>
	<path d="M 348.0,682.0 L 349.0,686.0" style="stroke:#050105; fill:none;"/>
	<path d="M 707.0,684.0 L 708.0,684.0" style="stroke:#050105; fill:none;"/>
	<path d="M 697.0,687.0 L 698.0,687.0" style="stroke:#050105; fill:none;"/>
	<path d="M 1115.0,688.0 L 1115.0,690.0" style="stroke:#050105; fill:none;"/>
	<path d="M 352.0,700.0 L 353.0,700.0" style="stroke:#050105; fill:none;"/>
	<path d="M 1113.0,702.0 L 1113.0,703.0" style="stroke:#050105; fill:none;"/>
	<path d="M 354.0,706.0 L 356.0,707.0" style="stroke:#050105; fill:none;"/>
	<path d="M 845.0,728.0 L 846.0,728.0" style="stroke:#050105; fill:none;"/>
	<path d="M 854.0,728.0 L 859.0,728.0" style="stroke:#050105; fill:none;"/>
	<path d="M 864.0,728.0 L 867.0,728.0" style="stroke:#050105; fill:none;"/>
	<path d="M 869.0,728.0 L 873.0,728.0" style="stroke:#050105; fill:none;"/>
	<path d="M 891.0,728.0 L 883.0,730.0" style="stroke:#050105; fill:none;"/>
	<path d="M 842.0,729.0 L 843.0,729.0" style="stroke:#050105; fill:none;"/>
	<path d="M 877.0,729.0 L 881.0,729.0" style="stroke:#050105; fill:none;"/>
	<path d="M 899.0,729.0 L 898.0,730.0" style="stroke:#050105; fill:none;"/>
	<path d="M 901.0,729.0 L 901.0,730.0" style="stroke:#050105; fill:none;"/>
	<path d="M 893.0,730.0 L 895.0,730.0" style="stroke:#050105; fill:none;"/>
	<path d="M 828.0,735.0 L 834.0,732.0" style="stroke:#050105; fill:none;"/>
	<path d="M 825.0,736.0 L 823.0,738.0" style="stroke:#050105; fill:none;"/>
	<path d="M 848.0,737.0 L 849.0,737.0" style="stroke:#050105; fill:none;"/>
	<path d="M 903.0,737.0 L 903.0,739.0" style="stroke:#050105; fill:none;"/>
	<path d="M 820.0,740.0 L 814.0,742.0" style="stroke:#050105; fill:none;"/>
	<path d="M 761.0,744.0 L 761.0,745.0" style="stroke:#050105; fill:none;"/>
	<path d="M 900.0,745.0 L 895.0,756.0" style="stroke:#050105; fill:none;"/>
	<path d="M 798.0,753.0 L 800.0,751.0" style="stroke:#050105; fill:none;"/>
	<path d="M 818.0,754.0 L 816.0,755.0" style="stroke:#050105; fill:none;"/>
	<path d="M 378.0,760.0 L 378.0,761.0" style="stroke:#050105; fill:none;"/>
	<path d="M 1102.0,761.0 L 1101.0,764.0" style="stroke:#050105; fill:none;"/>
	<path d="M 888.0,762.0 L 888.0,763.0" style="stroke:#050105; fill:none;"/>
	<path d="M 1102.0,767.0 L 1101.0,768.0" style="stroke:#050105; fill:none;"/>
	<path d="M 1099.0,771.0 L 1099.0,773.0" style="stroke:#050105; fill:none;"/>
	<path d="M 383.0,774.0 L 387.0,780.0" style="stroke:#050105; fill:none;"/>
	<path d="M 869.0,775.0 L 860.0,783.0" style="stroke:#050105; fill:none;"/>
	<path d="M 390.0,782.0 L 390.0,785.0" style="stroke:#050105; fill:none;"/>
	<path d="M 1095.0,784.0 L 1093.0,791.0" style="stroke:#050105; fill:none;"/>
	<path d="M 854.0,786.0 L 856.0,786.0" style="stroke:#050105; fill:none;"/>
	<path d="M 393.0,787.0 L 394.0,787.0" style="stroke:#050105; fill:none;"/>
	<path d="M 849.0,788.0 L 845.0,790.0" style="stroke:#050105; fill:none;"/>
	<path d="M 779.0,789.0 L 778.0,791.0" style="stroke:#050105; fill:none;"/>
	<path d="M 838.0,793.0 L 841.0,792.0" style="stroke:#050105; fill:none;"/>
	<path d="M 397.0,794.0 L 398.0,794.0" style="stroke:#050105; fill:none;"/>
	<path d="M 1091.0,794.0 L 1081.0,811.0" style="stroke:#050105; fill:none;"/>
	<path d="M 340.0,795.0 L 342.0,798.0 L 340.0,798.0" style="stroke:#050105; fill:none;"/>
	<path d="M 335.0,796.0 L 334.0,798.0" style="stroke:#050105; fill:none;"/>
	<path d="M 345.0,796.0 L 355.0,802.0" style="stroke:#050105; fill:none;"/>
	<path d="M 398.0,798.0 L 399.0,798.0" style="stroke:#050105; fill:none;"/>
	<path d="M 829.0,799.0 L 831.0,798.0" style="stroke:#050105; fill:none;"/>
	<path d="M 343.0,799.0 L 345.0,799.0" style="stroke:#050105; fill:none;"/>
	<path d="M 774.0,800.0 L 772.0,804.0" style="stroke:#050105; fill:none;"/>
	<path d="M 357.0,803.0 L 359.0,804.0" style="stroke:#050105; fill:none;"/>
	<path d="M 772.0,807.0 L 771.0,809.0" style="stroke:#050105; fill:none;"/>
	<path d="M 372.0,812.0 L 373.0,812.0" style="stroke:#050105; fill:none;"/>
	<path d="M 769.0,813.0 L 772.0,813.0" style="stroke:#050105; fill:none;"/>
	<path d="M 380.0,814.0 L 380.0,815.0" style="stroke:#050105; fill:none;"/>
	<path d="M 383.0,814.0 L 388.0,816.0" style="stroke:#050105; fill:none;"/>
	<path d="M 771.0,814.0 L 769.0,818.0 L 769.0,815.0" style="stroke:#050105; fill:none;"/>
	<path d="M 772.0,817.0 L 777.0,819.0" style="stroke:#050105; fill:none;"/>
	<path d="M 797.0,817.0 L 792.0,819.0" style="stroke:#050105; fill:none;"/>
	<path d="M 398.0,818.0 L 399.0,820.0" style="stroke:#050105; fill:none;"/>
	<path d="M 401.0,819.0 L 404.0,821.0" style="stroke:#050105; fill:none;"/>
	<path d="M 339.0,820.0 L 340.0,821.0" style="stroke:#050105; fill:none;"/>
	<path d="M 780.0,820.0 L 787.0,821.0" style="stroke:#050105; fill:none;"/>
	<path d="M 1078.0,820.0 L 1074.0,825.0" style="stroke:#050105; fill:none;"/>
	<path d="M 415.0,822.0 L 416.0,822.0" style="stroke:#050105; fill:none;"/>
	<path d="M 351.0,828.0 L 354.0,830.0 L 349.0,828.0" style="stroke:#050105; fill:none;"/>
	<path d="M 423.0,828.0 L 423.0,829.0" style="stroke:#050105; fill:none;"/>
	<path d="M 1073.0,828.0 L 1073.0,829.0" style="stroke:#050105; fill:none;"/>
	<path d="M 764.0,829.0 L 764.0,830.0" style="stroke:#050105; fill:none;"/>
	<path d="M 357.0,832.0 L 361.0,835.0" style="stroke:#050105; fill:none;"/>
	<path d="M 428.0,832.0 L 429.0,832.0" style="stroke:#050105; fill:none;"/>
	<path d="M 1071.0,833.0 L 1072.0,833.0" style="stroke:#050105; fill:none;"/>
	<path d="M 433.0,836.0 L 434.0,837.0" style="stroke:#050105; fill:none;"/>
	<path d="M 1107.0,837.0 L 1108.0,840.0" style="stroke:#050105; fill:none;"/>
	<path d="M 1180.0,838.0 L 1181.0,838.0" style="stroke:#050105; fill:none;"/>
	<path d="M 436.0,839.0 L 436.0,840.0" style="stroke:#050105; fill:none;"/>
	<path d="M 1170.0,839.0 L 1173.0,839.0" style="stroke:#050105; fill:none;"/>
	<path d="M 1164.0,840.0 L 1165.0,840.0" style="stroke:#050105; fill:none;"/>
	<path d="M 366.0,841.0 L 367.0,841.0" style="stroke:#050105; fill:none;"/>
	<path d="M 438.0,841.0 L 438.0,842.0" style="stroke:#050105; fill:none;"/>
	<path d="M 1146.0,843.0 L 1150.0,842.0" style="stroke:#050105; fill:none;"/>
	<path d="M 441.0,843.0 L 443.0,844.0" style="stroke:#050105; fill:none;"/>
	<path d="M 1138.0,843.0 L 1138.0,844.0" style="stroke:#050105; fill:none;"/>
	<path d="M 1141.0,843.0 L 1140.0,844.0" style="stroke:#050105; fill:none;"/>
	<path d="M 1129.0,844.0 L 1132.0,845.0" style="stroke:#050105; fill:none;"/>
	<path d="M 369.0,846.0 L 370.0,846.0" style="stroke:#050105; fill:none;"/>
	<path d="M 1109.0,846.0 L 1110.0,846.0" style="stroke:#050105; fill:none;"/>
	<path d="M 1064.0,847.0 L 1062.0,850.0" style="stroke:#050105; fill:none;"/>
	<path d="M 376.0,852.0 L 378.0,856.0" style="stroke:#050105; fill:none;"/>
	<path d="M 454.0,855.0 L 455.0,855.0" style="stroke:#050105; fill:none;"/>
	<path d="M 1059.0,856.0 L 1054.0,865.0" style="stroke:#050105; fill:none;"/>
	<path d="M 457.0,857.0 L 458.0,857.0" style="stroke:#050105; fill:none;"/>
	<path d="M 1264.0,857.0 L 1265.0,858.0" style="stroke:#050105; fill:none;"/>
	<path d="M 460.0,860.0 L 466.0,865.0" style="stroke:#050105; fill:none;"/>
	<path d="M 384.0,862.0 L 386.0,861.0" style="stroke:#050105; fill:none;"/>
	<path d="M 1267.0,864.0 L 1268.0,870.0" style="stroke:#050105; fill:none;"/>
	<path d="M 387.0,865.0 L 388.0,867.0" style="stroke:#050105; fill:none;"/>
	<path d="M 390.0,867.0 L 389.0,869.0" style="stroke:#050105; fill:none;"/>
	<path d="M 1051.0,869.0 L 1051.0,870.0" style="stroke:#050105; fill:none;"/>
	<path d="M 472.0,870.0 L 474.0,871.0" style="stroke:#050105; fill:none;"/>
	<path d="M 393.0,873.0 L 396.0,874.0" style="stroke:#050105; fill:none;"/>
	<path d="M 1049.0,873.0 L 1038.0,889.0" style="stroke:#050105; fill:none;"/>
	<path d="M 478.0,875.0 L 484.0,878.0" style="stroke:#050105; fill:none;"/>
	<path d="M 1269.0,875.0 L 1269.0,876.0" style="stroke:#050105; fill:none;"/>
	<path d="M 464.0,876.0 L 464.0,877.0" style="stroke:#050105; fill:none;"/>
	<path d="M 398.0,877.0 L 400.0,878.0" style="stroke:#050105; fill:none;"/>
	<path d="M 455.0,879.0 L 461.0,878.0" style="stroke:#050105; fill:none;"/>
	<path d="M 447.0,880.0 L 448.0,880.0" style="stroke:#050105; fill:none;"/>
	<path d="M 486.0,880.0 L 501.0,894.0" style="stroke:#050105; fill:none;"/>
	<path d="M 400.0,882.0 L 402.0,882.0" style="stroke:#050105; fill:none;"/>
	<path d="M 406.0,886.0 L 417.0,896.0" style="stroke:#050105; fill:none;"/>
	<path d="M 1271.0,889.0 L 1273.0,891.0" style="stroke:#050105; fill:none;"/>
	<path d="M 1035.0,893.0 L 1037.0,893.0" style="stroke:#050105; fill:none;"/>
	<path d="M 504.0,895.0 L 526.0,912.0" style="stroke:#050105; fill:none;"/>
	<path d="M 1034.0,896.0 L 1032.0,902.0" style="stroke:#050105; fill:none;"/>
	<path d="M 1274.0,897.0 L 1275.0,904.0" style="stroke:#050105; fill:none;"/>
	<path d="M 424.0,900.0 L 426.0,901.0" style="stroke:#050105; fill:none;"/>
	<path d="M 429.0,903.0 L 439.0,905.0" style="stroke:#050105; fill:none;"/>
	<path d="M 1015.0,920.0 L 1016.0,922.0 L 1031.0,905.0" style="stroke:#050105; fill:none;"/>
	<path d="M 1276.0,906.0 L 1278.0,915.0" style="stroke:#050105; fill:none;"/>
	<path d="M 449.0,909.0 L 465.0,914.0" style="stroke:#050105; fill:none;"/>
	<path d="M 521.0,908.0 L 520.0,909.0" style="stroke:#050105; fill:none;"/>
	<path d="M 528.0,915.0 L 560.0,937.0" style="stroke:#050105; fill:none;"/>
	<path d="M 472.0,917.0 L 473.0,917.0" style="stroke:#050105; fill:none;"/>
	<path d="M 481.0,922.0 L 496.0,930.0" style="stroke:#050105; fill:none;"/>
	<path d="M 1278.0,921.0 L 1280.0,922.0" style="stroke:#050105; fill:none;"/>
	<path d="M 1011.0,925.0 L 1014.0,923.0" style="stroke:#050105; fill:none;"/>
	<path d="M 549.0,928.0 L 550.0,929.0" style="stroke:#050105; fill:none;"/>
	<path d="M 1002.0,933.0 L 1007.0,931.0" style="stroke:#050105; fill:none;"/>
	<path d="M 501.0,932.0 L 502.0,934.0" style="stroke:#050105; fill:none;"/>
	<path d="M 511.0,934.0 L 512.0,934.0" style="stroke:#050105; fill:none;"/>
	<path d="M 996.0,938.0 L 994.0,941.0" style="stroke:#050105; fill:none;"/>
	<path d="M 564.0,940.0 L 569.0,942.0" style="stroke:#050105; fill:none;"/>
	<path d="M 990.0,944.0 L 986.0,948.0" style="stroke:#050105; fill:none;"/>
	<path d="M 982.0,950.0 L 982.0,952.0" style="stroke:#050105; fill:none;"/>
	<path d="M 978.0,954.0 L 980.0,954.0" style="stroke:#050105; fill:none;"/>
	<path d="M 974.0,957.0 L 972.0,958.0" style="stroke:#050105; fill:none;"/>
	<path d="M 963.0,964.0 L 965.0,964.0" style="stroke:#050105; fill:none;"/>
	<path d="M 954.0,969.0 L 954.0,970.0" style="stroke:#050105; fill:none;"/>
	<path d="M 941.0,977.0 L 951.0,972.0" style="stroke:#050105; fill:none;"/>
	<path d="M 628.0,974.0 L 630.0,974.0" style="stroke:#050105; fill:none;"/>
	<path d="M 636.0,977.0 L 638.0,977.0" style="stroke:#050105; fill:none;"/>
	<path d="M 632.0,979.0 L 633.0,979.0" style="stroke:#050105; fill:none;"/>
	<path d="M 643.0,979.0 L 647.0,980.0" style="stroke:#050105; fill:none;"/>
	<path d="M 653.0,980.0 L 658.0,982.0" style="stroke:#050105; fill:none;"/>
	<path d="M 929.0,981.0 L 929.0,982.0" style="stroke:#050105; fill:none;"/>
	<path d="M 933.0,981.0 L 934.0,981.0" style="stroke:#050105; fill:none;"/>
	<path d="M 931.0,982.0 L 931.0,983.0" style="stroke:#050105; fill:none;"/>
	<path d="M 1129.0,982.0 L 1127.0,983.0" style="stroke:#050105; fill:none;"/>
	<path d="M 663.0,983.0 L 666.0,985.0" style="stroke:#050105; fill:none;"/>
	<path d="M 926.0,984.0 L 928.0,984.0" style="stroke:#050105; fill:none;"/>
	<path d="M 1141.0,986.0 L 1142.0,986.0" style="stroke:#050105; fill:none;"/>
	<path d="M 677.0,988.0 L 682.0,988.0" style="stroke:#050105; fill:none;"/>
	<path d="M 841.0,998.0 C 865.623,1003.2 893.248,991.609 917.0,987.0" style="stroke:#050105; fill:none;"/>
	<path d="M 691.0,991.0 L 694.0,991.0" style="stroke:#050105; fill:none;"/>
	<path d="M 851.0,991.0 L 853.0,992.0" style="stroke:#050105; fill:none;"/>
	<path d="M 696.0,992.0 L 697.0,992.0" style="stroke:#050105; fill:none;"/>
	<path d="M 700.0,992.0 L 701.0,992.0" style="stroke:#050105; fill:none;"/>
	<path d="M 705.0,993.0 L 706.0,993.0" style="stroke:#050105; fill:none;"/>
	<path d="M 833.0,993.0 L 832.0,996.0" style="stroke:#050105; fill:none;"/>
	<path d="M 836.0,994.0 L 840.0,994.0" style="stroke:#050105; fill:none;"/>
	<path d="M 845.0,994.0 L 847.0,993.0" style="stroke:#050105; fill:none;"/>
	<path d="M 712.0,994.0 L 717.0,995.0" style="stroke:#050105; fill:none;"/>
	<path d="M 721.0,996.0 L 725.0,996.0" style="stroke:#050105; fill:none;"/>
	<path d="M 820.0,995.0 L 827.0,996.0" style="stroke:#050105; fill:none;"/>
	<path d="M 738.0,997.0 L 750.0,999.0" style="stroke:#050105; fill:none;"/>
	<path d="M 816.0,996.0 L 818.0,997.0" style="stroke:#050105; fill:none;"/>
	<path d="M 753.0,997.0 L 758.0,998.0" style="stroke:#050105; fill:none;"/>
	<path d="M 761.0,997.0 L 764.0,999.0" style="stroke:#050105; fill:none;"/>
	<path d="M 797.0,997.0 L 797.0,998.0" style="stroke:#050105; fill:none;"/>
	<path d="M 809.0,997.0 L 812.0,997.0" style="stroke:#050105; fill:none;"/>
	<path d="M 777.0,998.0 L 780.0,1000.0" style="stroke:#050105; fill:none;"/>
	<path d="M 789.0,998.0 L 790.0,998.0" style="stroke:#050105; fill:none;"/>
	<path d="M 838.0,998.0 L 838.0,999.0" style="stroke:#050105; fill:none;"/>
	<path d="M 767.0,999.0 L 772.0,999.0" style="stroke:#050105; fill:none;"/>
	<path d="M 783.0,999.0 L 784.0,1000.0" style="stroke:#050105; fill:none;"/>
	<path d="M 659.0,1008.0 L 663.0,1013.0" style="stroke:#050105; fill:none;"/>
	<path d="M 943.0,1072.0 L 945.0,1072.0" style="stroke:#050105; fill:none;"/>
	<path d="M 957.0,1072.0 L 958.0,1072.0" style="stroke:#050105; fill:none;"/>
	<path d="M 960.0,1073.0 L 963.0,1074.0" style="stroke:#050105; fill:none;"/>
	<path d="M 939.0,1074.0 L 940.0,1074.0" style="stroke:#050105; fill:none;"/>
	<path d="M 933.0,1077.0 L 936.0,1076.0" style="stroke:#050105; fill:none;"/>
	<path d="M 927.0,1081.0 L 929.0,1080.0" style="stroke:#050105; fill:none;"/>
	<path d="M 690.0,1083.0 L 693.0,1085.0" style="stroke:#050105; fill:none;"/>
	<path d="M 698.0,1088.0 L 699.0,1088.0" style="stroke:#050105; fill:none;"/>
	<path d="M 704.0,1091.0 L 706.0,1092.0" style="stroke:#050105; fill:none;"/>
	<path d="M 736.0,1102.0 L 738.0,1102.0" style="stroke:#050105; fill:none;"/>
	<path d="M 741.0,1103.0 L 742.0,1103.0" style="stroke:#050105; fill:none;"/>
	<path d="M 746.0,1105.0 L 747.0,1105.0" style="stroke:#050105; fill:none;"/>
	<path d="M 750.0,1105.0 L 755.0,1107.0" style="stroke:#050105; fill:none;"/>
	<path d="M 764.0,1106.0 L 761.0,1107.0" style="stroke:#050105; fill:none;"/>
	<path d="M 878.0,1108.0 L 874.0,1111.0" style="stroke:#050105; fill:none;"/>
	<path d="M 791.0,1111.0 L 795.0,1112.0" style="stroke:#050105; fill:none;"/>
	<path d="M 869.0,1114.0 L 870.0,1114.0" style="stroke:#050105; fill:none;"/>
	<path d="M 805.0,1115.0 L 807.0,1116.0" style="stroke:#050105; fill:none;"/>
	<path d="M 857.0,1120.0 L 867.0,1115.0" style="stroke:#050105; fill:none;"/>
</svg>
