<?xml version="1.0" ?>
<svg baseProfile="full" height="3402" version="1.1" width="2654" xmlns="http://www.w3.org/2000/svg" xmlns:ev="http://www.w3.org/2001/xml-events" xmlns:xlink="http://www.w3.org/1999/xlink">
	<defs/>
	<path d="M 1098.0,1181.0 L 1099.0,1181.0" style="stroke:#010101; fill:none;"/>
	<path d="M 1108.0,1186.0 L 1109.0,1186.0" style="stroke:#010101; fill:none;"/>
	<path d="M 1051.0,1217.0 L 1052.0,1217.0" style="stroke:#010101; fill:none;"/>
	<path d="M 1054.0,1218.0 L 1055.0,1218.0" style="stroke:#010101; fill:none;"/>
	<path d="M 1058.0,1219.0 L 1059.0,1219.0" style="stroke:#010101; fill:none;"/>
	<path d="M 1037.0,1232.0 L 1038.0,1232.0" style="stroke:#010101; fill:none;"/>
	<path d="M 1040.0,1233.0 L 1045.0,1235.0" style="stroke:#010101; fill:none;"/>
	<path d="M 1047.0,1236.0 L 1049.0,1237.0" style="stroke:#010101; fill:none;"/>
	<path d="M 1051.0,1239.0 L 1052.0,1239.0" style="stroke:#010101; fill:none;"/>
	<path d="M 1308.0,1258.0 C 1312.51,1263.35 1315.06,1269.06 1316.0,1276.0" style="stroke:#010101; fill:none;"/>
	<path d="M 1351.0,1262.0 L 1350.0,1264.0" style="stroke:#010101; fill:none;"/>
	<path d="M 1365.0,1264.0 L 1386.0,1322.0" style="stroke:#010101; fill:none;"/>
	<path d="M 1333.0,1276.0 C 1338.11,1284.79 1341.36,1295.08 1338.0,1305.0" style="stroke:#010101; fill:none;"/>
	<path d="M 964.0,1280.0 L 966.0,1280.0" style="stroke:#010101; fill:none;"/>
	<path d="M 969.0,1280.0 L 970.0,1280.0" style="stroke:#010101; fill:none;"/>
	<path d="M 972.0,1281.0 L 973.0,1281.0" style="stroke:#010101; fill:none;"/>
	<path d="M 1387.0,1284.0 C 1391.12,1296.09 1397.24,1308.84 1405.0,1319.0" style="stroke:#010101; fill:none;"/>
	<path d="M 1455.0,1305.0 L 1468.0,1315.0" style="stroke:#010101; fill:none;"/>
	<path d="M 980.0,1311.0 L 981.0,1311.0" style="stroke:#010101; fill:none;"/>
	<path d="M 984.0,1312.0 L 999.0,1319.0" style="stroke:#010101; fill:none;"/>
	<path d="M 1387.0,1324.0 L 1388.0,1328.0" style="stroke:#010101; fill:none;"/>
	<path d="M 990.0,1353.0 L 991.0,1353.0" style="stroke:#010101; fill:none;"/>
	<path d="M 929.0,1358.0 L 948.0,1361.0" style="stroke:#010101; fill:none;"/>
	<path d="M 950.0,1362.0 L 952.0,1362.0" style="stroke:#010101; fill:none;"/>
	<path d="M 954.0,1363.0 L 955.0,1363.0" style="stroke:#010101; fill:none;"/>
	<path d="M 957.0,1364.0 L 958.0,1364.0" style="stroke:#010101; fill:none;"/>
	<path d="M 878.0,1385.0 L 879.0,1385.0" style="stroke:#010101; fill:none;"/>
	<path d="M 881.0,1385.0 C 903.854,1385.19 934.251,1387.71 953.0,1402.0" style="stroke:#010101; fill:none;"/>
	<path d="M 857.0,1419.0 L 857.0,1420.0" style="stroke:#010101; fill:none;"/>
	<path d="M 1747.0,1558.0 C 1777.04,1557.92 1805.6,1545.96 1835.0,1542.0" style="stroke:#010101; fill:none;"/>
	<path d="M 1797.0,1562.0 L 1856.0,1546.0" style="stroke:#010101; fill:none;"/>
	<path d="M 1848.0,1565.0 L 1844.0,1565.0 L 1864.0,1556.0" style="stroke:#010101; fill:none;"/>
	<path d="M 1743.0,1559.0 L 1745.0,1558.0" style="stroke:#010101; fill:none;"/>
	<path d="M 1735.0,1559.0 L 1736.0,1559.0" style="stroke:#010101; fill:none;"/>
	<path d="M 1739.0,1559.0 L 1740.0,1559.0" style="stroke:#010101; fill:none;"/>
	<path d="M 1793.0,1563.0 L 1794.0,1563.0" style="stroke:#010101; fill:none;"/>
	<path d="M 1807.0,1575.0 L 1843.0,1566.0" style="stroke:#010101; fill:none;"/>
	<path d="M 1990.0,1574.0 L 1997.0,1573.0" style="stroke:#010101; fill:none;"/>
	<path d="M 1803.0,1576.0 L 1805.0,1576.0" style="stroke:#010101; fill:none;"/>
	<path d="M 1829.0,1586.0 L 1882.0,1579.24 L 1947.0,1576.0" style="stroke:#010101; fill:none;"/>
	<path d="M 1799.0,1577.0 L 1800.0,1577.0" style="stroke:#010101; fill:none;"/>
	<path d="M 1991.0,1580.0 L 2001.0,1582.0" style="stroke:#010101; fill:none;"/>
	<path d="M 2003.0,1583.0 L 2004.0,1583.0" style="stroke:#010101; fill:none;"/>
	<path d="M 1278.0,1629.0 L 1279.0,1629.0" style="stroke:#010101; fill:none;"/>
	<path d="M 1282.0,1631.0 L 1283.0,1631.0" style="stroke:#010101; fill:none;"/>
	<path d="M 1285.0,1632.0 L 1294.0,1638.0" style="stroke:#010101; fill:none;"/>
	<path d="M 1296.0,1640.0 L 1297.0,1641.0" style="stroke:#010101; fill:none;"/>
	<path d="M 1303.0,1646.0 L 1304.0,1647.0" style="stroke:#010101; fill:none;"/>
	<path d="M 2049.0,1669.0 L 2049.0,1670.0" style="stroke:#010101; fill:none;"/>
	<path d="M 2050.0,1672.0 L 2051.0,1675.0" style="stroke:#010101; fill:none;"/>
	<path d="M 2052.0,1677.0 L 2053.0,1680.0" style="stroke:#010101; fill:none;"/>
	<path d="M 865.0,1686.0 L 926.0,1691.17 L 991.0,1702.71 L 1027.0,1709.0 C 1031.89,1705.31 1040.32,1708.3 1046.0,1709.25 C 1063.06,1712.09 1082.05,1715.14 1098.0,1722.0" style="stroke:#010101; fill:none;"/>
	<path d="M 903.0,1693.0 C 937.997,1700.22 970.82,1714.2 1004.0,1727.0" style="stroke:#010101; fill:none;"/>
	<path d="M 860.0,1694.0 C 879.333,1697.6 899.412,1701.73 917.0,1711.0" style="stroke:#010101; fill:none;"/>
	<path d="M 2046.0,1696.0 L 2047.0,1698.0" style="stroke:#010101; fill:none;"/>
	<path d="M 962.0,1697.0 L 958.0,1698.0" style="stroke:#010101; fill:none;"/>
	<path d="M 948.0,1698.0 L 949.0,1698.0" style="stroke:#010101; fill:none;"/>
	<path d="M 952.0,1698.0 L 957.0,1698.0" style="stroke:#010101; fill:none;"/>
	<path d="M 917.0,1700.0 L 918.0,1700.0" style="stroke:#010101; fill:none;"/>
	<path d="M 2048.0,1700.0 C 2063.47,1733.08 2081.77,1767.86 2104.0,1797.0" style="stroke:#010101; fill:none;"/>
	<path d="M 652.0,1702.0 L 642.0,1715.0" style="stroke:#010101; fill:none;"/>
	<path d="M 921.0,1702.0 L 978.0,1725.28 L 1021.0,1745.0" style="stroke:#010101; fill:none;"/>
	<path d="M 1025.0,1706.0 L 1026.0,1706.0" style="stroke:#010101; fill:none;"/>
	<path d="M 963.0,1707.0 L 964.0,1707.0" style="stroke:#010101; fill:none;"/>
	<path d="M 966.0,1707.0 L 1029.0,1715.45 L 1096.0,1736.0 L 1094.0,1734.0" style="stroke:#010101; fill:none;"/>
	<path d="M 1028.0,1710.0 L 1059.0,1717.0" style="stroke:#010101; fill:none;"/>
	<path d="M 938.0,1711.0 C 959.873,1725.43 983.752,1737.02 1006.0,1750.95 C 1012.22,1754.84 1023.75,1765.51 1031.0,1762.0 L 981.0,1728.0" style="stroke:#010101; fill:none;"/>
	<path d="M 919.0,1712.0 L 921.0,1712.0" style="stroke:#010101; fill:none;"/>
	<path d="M 2044.0,1717.0 L 2045.0,1719.0" style="stroke:#010101; fill:none;"/>
	<path d="M 1061.0,1718.0 L 1062.0,1718.0" style="stroke:#010101; fill:none;"/>
	<path d="M 639.0,1719.0 L 639.0,1720.0" style="stroke:#010101; fill:none;"/>
	<path d="M 637.0,1722.0 L 637.0,1723.0" style="stroke:#010101; fill:none;"/>
	<path d="M 1100.0,1723.0 L 1101.0,1723.0" style="stroke:#010101; fill:none;"/>
	<path d="M 2047.0,1723.0 L 2048.0,1725.0" style="stroke:#010101; fill:none;"/>
	<path d="M 1003.0,1724.0 L 1063.0,1737.03 L 1116.0,1756.0" style="stroke:#010101; fill:none;"/>
	<path d="M 1103.0,1724.0 L 1104.0,1724.0" style="stroke:#010101; fill:none;"/>
	<path d="M 2049.0,1727.0 L 2096.0,1812.0" style="stroke:#010101; fill:none;"/>
	<path d="M 1006.0,1728.0 L 1007.0,1728.0" style="stroke:#010101; fill:none;"/>
	<path d="M 1010.0,1730.0 L 1011.0,1730.0" style="stroke:#010101; fill:none;"/>
	<path d="M 643.0,1735.0 L 643.0,1736.0" style="stroke:#010101; fill:none;"/>
	<path d="M 1096.0,1736.0 L 1100.0,1739.0" style="stroke:#010101; fill:none;"/>
	<path d="M 1098.0,1736.0 L 1129.0,1747.0" style="stroke:#010101; fill:none;"/>
	<path d="M 1013.0,1737.0 L 1014.0,1737.0" style="stroke:#010101; fill:none;"/>
	<path d="M 641.0,1738.0 L 640.0,1740.0" style="stroke:#010101; fill:none;"/>
	<path d="M 1016.0,1738.0 L 1018.0,1738.0" style="stroke:#010101; fill:none;"/>
	<path d="M 1020.0,1739.0 C 1055.34,1746.3 1096.85,1751.88 1129.0,1769.0" style="stroke:#010101; fill:none;"/>
	<path d="M 1102.0,1740.0 L 1103.0,1740.0" style="stroke:#010101; fill:none;"/>
	<path d="M 1094.0,1741.0 L 1095.0,1741.0" style="stroke:#010101; fill:none;"/>
	<path d="M 638.0,1742.0 L 595.0,1819.0" style="stroke:#010101; fill:none;"/>
	<path d="M 1097.0,1742.0 C 1131.64,1750.21 1165.23,1768.49 1197.0,1784.0" style="stroke:#010101; fill:none;"/>
	<path d="M 1012.0,1746.0 L 1013.0,1748.0" style="stroke:#010101; fill:none;"/>
	<path d="M 1023.0,1746.0 L 1024.0,1747.0" style="stroke:#010101; fill:none;"/>
	<path d="M 1031.0,1746.0 L 1032.0,1746.0" style="stroke:#010101; fill:none;"/>
	<path d="M 1015.0,1747.0 L 1014.0,1750.0" style="stroke:#010101; fill:none;"/>
	<path d="M 1035.0,1747.0 L 1036.0,1747.0" style="stroke:#010101; fill:none;"/>
	<path d="M 1017.0,1748.0 L 1067.0,1774.78 L 1084.0,1783.0 L 1080.0,1784.0" style="stroke:#010101; fill:none;"/>
	<path d="M 1038.0,1748.0 L 1040.0,1748.0" style="stroke:#010101; fill:none;"/>
	<path d="M 1131.0,1748.0 L 1132.0,1749.0" style="stroke:#010101; fill:none;"/>
	<path d="M 1042.0,1749.0 C 1076.95,1758.99 1105.37,1789.12 1139.0,1802.0 L 1135.0,1802.0" style="stroke:#010101; fill:none;"/>
	<path d="M 1057.0,1754.0 L 1113.0,1769.3 L 1134.0,1776.0 L 1131.0,1775.0" style="stroke:#010101; fill:none;"/>
	<path d="M 2057.0,1757.0 L 2059.0,1762.0" style="stroke:#010101; fill:none;"/>
	<path d="M 1031.0,1762.0 L 1032.0,1766.0 L 1034.0,1764.0 L 1031.0,1763.0" style="stroke:#010101; fill:none;"/>
	<path d="M 1133.0,1762.0 L 1134.0,1762.0" style="stroke:#010101; fill:none;"/>
	<path d="M 2049.0,1764.0 L 2050.0,1767.0" style="stroke:#010101; fill:none;"/>
	<path d="M 1141.0,1765.0 L 1142.0,1765.0" style="stroke:#010101; fill:none;"/>
	<path d="M 2060.0,1765.0 L 2085.0,1816.0" style="stroke:#010101; fill:none;"/>
	<path d="M 1037.0,1770.0 L 1035.0,1766.0 L 1108.0,1818.0" style="stroke:#010101; fill:none;"/>
	<path d="M 1144.0,1766.0 L 1145.0,1766.0" style="stroke:#010101; fill:none;"/>
	<path d="M 1032.0,1767.0 L 1033.0,1768.0" style="stroke:#010101; fill:none;"/>
	<path d="M 1669.0,1767.0 L 1671.0,1767.0" style="stroke:#010101; fill:none;"/>
	<path d="M 1673.0,1768.0 L 1767.0,1789.0 L 1810.0,1797.0" style="stroke:#010101; fill:none;"/>
	<path d="M 1151.0,1769.0 L 1152.0,1769.0" style="stroke:#010101; fill:none;"/>
	<path d="M 2051.0,1769.0 L 2075.0,1825.0" style="stroke:#010101; fill:none;"/>
	<path d="M 1132.0,1770.0 L 1137.0,1773.0" style="stroke:#010101; fill:none;"/>
	<path d="M 1109.0,1771.0 L 1110.0,1771.0" style="stroke:#010101; fill:none;"/>
	<path d="M 1156.0,1771.0 L 1160.0,1772.0" style="stroke:#010101; fill:none;"/>
	<path d="M 1112.0,1772.0 L 1114.0,1772.0" style="stroke:#010101; fill:none;"/>
	<path d="M 1116.0,1773.0 L 1118.0,1773.0" style="stroke:#010101; fill:none;"/>
	<path d="M 1118.0,1773.0 L 1126.0,1774.0" style="stroke:#010101; fill:none;"/>
	<path d="M 1163.0,1774.0 L 1164.0,1774.0" style="stroke:#010101; fill:none;"/>
	<path d="M 1134.0,1776.0 L 1156.0,1784.0 L 1225.0,1807.0" style="stroke:#010101; fill:none;"/>
	<path d="M 1168.0,1776.0 L 1171.0,1777.0" style="stroke:#010101; fill:none;"/>
	<path d="M 1133.0,1777.0 L 1138.0,1777.0 L 1138.0,1777.0" style="stroke:#010101; fill:none;"/>
	<path d="M 1173.0,1778.0 L 1175.0,1779.0" style="stroke:#010101; fill:none;"/>
	<path d="M 2044.0,1779.0 L 2074.0,1845.0" style="stroke:#010101; fill:none;"/>
	<path d="M 1115.0,1780.0 C 1155.08,1792.82 1197.53,1798.56 1235.0,1819.0" style="stroke:#010101; fill:none;"/>
	<path d="M 1139.0,1780.0 L 1141.0,1779.0" style="stroke:#010101; fill:none;"/>
	<path d="M 1177.0,1780.0 L 1178.0,1780.0" style="stroke:#010101; fill:none;"/>
	<path d="M 1075.0,1781.0 L 1077.0,1783.0" style="stroke:#010101; fill:none;"/>
	<path d="M 1081.0,1781.0 L 1082.0,1782.0" style="stroke:#010101; fill:none;"/>
	<path d="M 1181.0,1782.0 L 1182.0,1782.0" style="stroke:#010101; fill:none;"/>
	<path d="M 1085.0,1783.0 L 1157.0,1828.0" style="stroke:#010101; fill:none;"/>
	<path d="M 1184.0,1783.0 L 1186.0,1784.0" style="stroke:#010101; fill:none;"/>
	<path d="M 1188.0,1785.0 L 1189.0,1785.0" style="stroke:#010101; fill:none;"/>
	<path d="M 1199.0,1785.0 L 1201.0,1786.0" style="stroke:#010101; fill:none;"/>
	<path d="M 1082.0,1786.0 L 1136.0,1824.0" style="stroke:#010101; fill:none;"/>
	<path d="M 1192.0,1787.0 L 1193.0,1787.0" style="stroke:#010101; fill:none;"/>
	<path d="M 1195.0,1788.0 L 1196.0,1789.0" style="stroke:#010101; fill:none;"/>
	<path d="M 1203.0,1788.0 L 1204.0,1788.0" style="stroke:#010101; fill:none;"/>
	<path d="M 1117.0,1790.0 C 1124.85,1788.74 1134.47,1793.36 1142.0,1795.58 C 1165.54,1802.49 1187.92,1812.66 1209.0,1825.0 L 1204.0,1824.0" style="stroke:#010101; fill:none;"/>
	<path d="M 1199.0,1790.0 L 1200.0,1790.0" style="stroke:#010101; fill:none;"/>
	<path d="M 1207.0,1790.0 L 1208.0,1790.0" style="stroke:#010101; fill:none;"/>
	<path d="M 1241.0,1791.0 L 1289.0,1861.0" style="stroke:#010101; fill:none;"/>
	<path d="M 1265.0,1791.0 C 1282.84,1809.65 1299.16,1839.76 1305.0,1865.0" style="stroke:#010101; fill:none;"/>
	<path d="M 1203.0,1792.0 L 1204.0,1792.0" style="stroke:#010101; fill:none;"/>
	<path d="M 1210.0,1795.0 L 1211.0,1796.0" style="stroke:#010101; fill:none;"/>
	<path d="M 1213.0,1797.0 L 1214.0,1797.0" style="stroke:#010101; fill:none;"/>
	<path d="M 1255.0,1797.0 C 1269.45,1816.18 1292.62,1839.44 1297.0,1864.0" style="stroke:#010101; fill:none;"/>
	<path d="M 1812.0,1798.0 L 1813.0,1798.0" style="stroke:#010101; fill:none;"/>
	<path d="M 2041.0,1798.0 L 2042.0,1800.0" style="stroke:#010101; fill:none;"/>
	<path d="M 1125.0,1799.0 L 1127.0,1798.0" style="stroke:#010101; fill:none;"/>
	<path d="M 1217.0,1799.0 L 1218.0,1799.0" style="stroke:#010101; fill:none;"/>
	<path d="M 2105.0,1799.0 L 2106.0,1800.0" style="stroke:#010101; fill:none;"/>
	<path d="M 1221.0,1801.0 L 1222.0,1801.0" style="stroke:#010101; fill:none;"/>
	<path d="M 1139.0,1802.0 C 1159.16,1807.76 1179.72,1819.01 1198.0,1829.14 C 1204.18,1832.56 1214.24,1840.65 1221.0,1837.0 L 1208.0,1827.0" style="stroke:#010101; fill:none;"/>
	<path d="M 2043.0,1803.0 L 2056.0,1826.0" style="stroke:#010101; fill:none;"/>
	<path d="M 1138.0,1804.0 L 1161.0,1820.0 C 1168.69,1815.84 1182.24,1826.91 1189.0,1831.06 C 1213.73,1846.23 1240.59,1860.28 1262.0,1880.0" style="stroke:#010101; fill:none;"/>
	<path d="M 1231.0,1810.0 L 1232.0,1810.0" style="stroke:#010101; fill:none;"/>
	<path d="M 1238.0,1813.0 L 1239.0,1813.0" style="stroke:#010101; fill:none;"/>
	<path d="M 1141.0,1814.0 L 1143.0,1815.0" style="stroke:#010101; fill:none;"/>
	<path d="M 1295.0,1814.0 C 1306.28,1831.1 1313.27,1853.0 1317.2,1873.0 C 1318.86,1881.46 1318.59,1890.84 1321.0,1899.0" style="stroke:#010101; fill:none;"/>
	<path d="M 1242.0,1815.0 L 1249.0,1819.0" style="stroke:#010101; fill:none;"/>
	<path d="M 1160.0,1816.0 L 1163.0,1817.0" style="stroke:#010101; fill:none;"/>
	<path d="M 1146.0,1817.0 L 1176.0,1834.58 L 1190.0,1841.0 L 1162.0,1820.0" style="stroke:#010101; fill:none;"/>
	<path d="M 1237.0,1820.0 L 1239.0,1821.0" style="stroke:#010101; fill:none;"/>
	<path d="M 594.0,1821.0 L 594.0,1822.0" style="stroke:#010101; fill:none;"/>
	<path d="M 1241.0,1822.0 L 1242.0,1822.0" style="stroke:#010101; fill:none;"/>
	<path d="M 1244.0,1823.0 C 1270.04,1840.23 1289.26,1878.24 1302.0,1906.0 C 1307.03,1916.96 1312.47,1927.73 1313.0,1940.0" style="stroke:#010101; fill:none;"/>
	<path d="M 1209.0,1825.0 L 1244.0,1844.0" style="stroke:#010101; fill:none;"/>
	<path d="M 2076.0,1827.0 L 2076.0,1828.0" style="stroke:#010101; fill:none;"/>
	<path d="M 903.0,1833.0 C 931.677,1836.7 958.699,1827.71 987.0,1829.11 C 999.82,1829.75 1010.74,1836.22 1023.0,1838.81 C 1035.06,1841.35 1050.29,1840.58 1060.0,1849.0 C 1069.9,1841.88 1086.17,1854.82 1096.0,1859.0 C 1093.1,1861.73 1086.88,1866.3 1088.0,1859.0 L 1088.0,1857.0" style="stroke:#010101; fill:none;"/>
	<path d="M 1237.0,1829.0 C 1245.26,1839.14 1254.25,1848.5 1262.13,1859.0 C 1265.99,1864.15 1270.39,1868.04 1266.0,1874.0 L 1270.0,1876.0 L 1270.0,1871.0" style="stroke:#010101; fill:none;"/>
	<path d="M 1159.0,1830.0 L 1160.0,1830.0" style="stroke:#010101; fill:none;"/>
	<path d="M 982.0,1831.0 C 991.614,1841.34 1009.2,1846.14 1022.0,1851.03 C 1025.62,1852.42 1026.92,1856.63 1030.3,1857.8 C 1033.48,1858.9 1045.24,1859.04 1047.08,1855.69 C 1048.88,1852.42 1044.09,1851.45 1042.0,1851.12 C 1035.91,1850.16 1032.84,1849.73 1028.0,1854.0" style="stroke:#010101; fill:none;"/>
	<path d="M 2059.0,1832.0 L 2060.0,1834.0" style="stroke:#010101; fill:none;"/>
	<path d="M 1318.0,1833.0 C 1324.38,1856.37 1331.24,1878.58 1332.91,1903.0 C 1333.63,1913.55 1331.01,1923.55 1331.0,1934.0" style="stroke:#010101; fill:none;"/>
	<path d="M 1610.0,1833.0 L 1612.0,1833.0" style="stroke:#010101; fill:none;"/>
	<path d="M 1614.0,1834.0 L 1616.0,1834.0" style="stroke:#010101; fill:none;"/>
	<path d="M 1622.0,1835.0 L 1623.0,1835.0" style="stroke:#010101; fill:none;"/>
	<path d="M 1625.0,1836.0 L 1627.0,1836.0" style="stroke:#010101; fill:none;"/>
	<path d="M 2061.0,1836.0 L 2063.0,1839.0" style="stroke:#010101; fill:none;"/>
	<path d="M 950.0,1837.0 L 951.0,1837.0" style="stroke:#010101; fill:none;"/>
	<path d="M 1222.0,1837.0 C 1225.83,1842.79 1236.99,1853.63 1244.0,1850.0 L 1231.0,1840.0" style="stroke:#010101; fill:none;"/>
	<path d="M 1633.0,1837.0 L 1635.0,1837.0" style="stroke:#010101; fill:none;"/>
	<path d="M 953.0,1838.0 C 965.225,1841.49 983.368,1845.65 993.0,1854.0 C 993.305,1845.16 982.781,1842.75 977.0,1838.0" style="stroke:#010101; fill:none;"/>
	<path d="M 1640.0,1838.0 L 1643.0,1838.0" style="stroke:#010101; fill:none;"/>
	<path d="M 1648.0,1839.0 L 1650.0,1839.0" style="stroke:#010101; fill:none;"/>
	<path d="M 1652.0,1840.0 L 1653.0,1840.0" style="stroke:#010101; fill:none;"/>
	<path d="M 1656.0,1840.0 L 1657.0,1840.0" style="stroke:#010101; fill:none;"/>
	<path d="M 1025.0,1841.0 L 1033.0,1848.0" style="stroke:#010101; fill:none;"/>
	<path d="M 1220.0,1841.0 L 1222.0,1841.0" style="stroke:#010101; fill:none;"/>
	<path d="M 1659.0,1841.0 L 1662.0,1841.0" style="stroke:#010101; fill:none;"/>
	<path d="M 1191.0,1842.0 L 1205.0,1855.13 L 1246.0,1886.0" style="stroke:#010101; fill:none;"/>
	<path d="M 1667.0,1842.0 L 1673.0,1843.0" style="stroke:#010101; fill:none;"/>
	<path d="M 1675.0,1844.0 L 1676.0,1844.0" style="stroke:#010101; fill:none;"/>
	<path d="M 945.0,1845.0 C 958.815,1849.42 968.654,1858.39 981.129,1864.49 C 992.515,1870.05 1018.35,1865.14 1028.0,1858.0" style="stroke:#010101; fill:none;"/>
	<path d="M 1682.0,1845.0 L 1684.0,1845.0" style="stroke:#010101; fill:none;"/>
	<path d="M 1246.0,1846.0 L 1247.0,1846.0" style="stroke:#010101; fill:none;"/>
	<path d="M 1686.0,1846.0 L 1687.0,1846.0" style="stroke:#010101; fill:none;"/>
	<path d="M 1249.0,1848.0 L 1250.0,1848.0" style="stroke:#010101; fill:none;"/>
	<path d="M 921.0,1849.0 C 929.161,1851.32 939.554,1858.11 948.0,1856.0 L 944.0,1853.0" style="stroke:#010101; fill:none;"/>
	<path d="M 1060.0,1849.0 C 1058.99,1855.31 1054.47,1855.0 1049.0,1855.0" style="stroke:#010101; fill:none;"/>
	<path d="M 1015.0,1850.0 L 1007.0,1855.0 L 1012.0,1862.0" style="stroke:#010101; fill:none;"/>
	<path d="M 1486.0,1850.0 L 1486.0,1851.0" style="stroke:#010101; fill:none;"/>
	<path d="M 1243.0,1851.0 L 1249.0,1858.0 L 1247.0,1854.0" style="stroke:#010101; fill:none;"/>
	<path d="M 994.0,1852.0 L 1007.0,1855.0" style="stroke:#010101; fill:none;"/>
	<path d="M 1042.0,1852.0 L 1042.0,1857.0" style="stroke:#010101; fill:none;"/>
	<path d="M 1242.0,1852.0 L 1245.0,1855.0" style="stroke:#010101; fill:none;"/>
	<path d="M 1014.0,1853.0 C 1018.3,1855.84 1021.38,1856.45 1026.0,1854.0" style="stroke:#010101; fill:none;"/>
	<path d="M 1338.0,1853.0 C 1343.84,1872.76 1342.0,1897.51 1342.0,1918.0" style="stroke:#010101; fill:none;"/>
	<path d="M 1486.0,1853.0 L 1486.0,1855.0" style="stroke:#010101; fill:none;"/>
	<path d="M 992.0,1854.0 L 979.0,1865.0" style="stroke:#010101; fill:none;"/>
	<path d="M 1061.0,1855.0 C 1068.63,1857.84 1076.35,1860.84 1083.0,1855.0" style="stroke:#010101; fill:none;"/>
	<path d="M 948.0,1856.0 L 962.0,1857.0" style="stroke:#010101; fill:none;"/>
	<path d="M 976.0,1858.0 L 985.0,1856.0" style="stroke:#010101; fill:none;"/>
	<path d="M 1227.0,1857.0 L 1232.0,1857.0" style="stroke:#010101; fill:none;"/>
	<path d="M 1486.0,1857.0 L 1486.0,1859.0" style="stroke:#010101; fill:none;"/>
	<path d="M 1234.0,1858.0 C 1232.6,1863.5 1238.12,1866.33 1242.0,1869.59 C 1251.68,1877.72 1261.16,1886.06 1271.0,1894.0" style="stroke:#010101; fill:none;"/>
	<path d="M 1249.0,1858.0 L 1266.0,1874.0" style="stroke:#010101; fill:none;"/>
	<path d="M 556.0,1859.0 C 553.752,1881.55 543.104,1905.99 537.151,1928.0 C 527.876,1962.29 521.057,1998.03 514.46,2033.0 C 508.388,2065.18 504.978,2097.72 499.565,2130.0 C 492.767,2170.53 483.842,2210.84 482.039,2252.0 C 480.892,2278.21 486.0,2303.92 486.0,2330.0" style="stroke:#010101; fill:none;"/>
	<path d="M 1230.0,1859.0 L 1232.0,1861.0" style="stroke:#010101; fill:none;"/>
	<path d="M 1032.0,1860.0 C 1028.68,1866.67 1022.61,1871.33 1019.44,1878.0 C 1016.15,1884.91 1018.07,1901.93 1020.68,1909.0 C 1023.37,1916.27 1032.89,1921.01 1039.0,1925.0 C 1055.41,1935.7 1083.63,1957.23 1104.91,1952.1 C 1130.63,1945.9 1146.12,1914.25 1135.94,1891.04 C 1132.08,1882.23 1115.76,1878.04 1108.02,1873.52 C 1102.99,1870.58 1099.59,1864.48 1096.0,1860.0" style="stroke:#010101; fill:none;"/>
	<path d="M 1080.0,1861.0 L 1085.0,1862.0" style="stroke:#010101; fill:none;"/>
	<path d="M 1486.0,1861.0 C 1492.77,1889.43 1487.82,1918.45 1480.0,1946.0" style="stroke:#010101; fill:none;"/>
	<path d="M 1788.0,1863.0 L 1808.0,1865.0" style="stroke:#010101; fill:none;"/>
	<path d="M 979.0,1865.0 L 962.0,1872.0 L 994.0,1889.91 L 1018.0,1907.0" style="stroke:#010101; fill:none;"/>
	<path d="M 1103.0,1867.0 C 1112.05,1862.56 1127.87,1871.17 1137.0,1873.86 C 1156.11,1879.48 1176.96,1881.9 1192.91,1894.76 C 1205.66,1905.05 1212.04,1921.12 1225.0,1931.0" style="stroke:#010101; fill:none;"/>
	<path d="M 1092.0,1866.0 L 1099.0,1867.0" style="stroke:#010101; fill:none;"/>
	<path d="M 1348.0,1867.0 C 1349.64,1887.82 1350.91,1908.26 1347.0,1929.0" style="stroke:#010101; fill:none;"/>
	<path d="M 1306.0,1869.0 L 1306.0,1870.0" style="stroke:#010101; fill:none;"/>
	<path d="M 1094.0,1909.0 C 1081.08,1917.63 1054.28,1912.79 1053.11,1894.0 C 1052.55,1885.11 1060.94,1871.4 1071.68,1876.6 C 1077.55,1879.45 1073.52,1892.03 1080.21,1895.81 C 1082.76,1897.25 1086.08,1895.55 1088.4,1897.12 C 1090.92,1898.81 1092.38,1906.15 1094.0,1909.0" style="stroke:#010101; fill:none;"/>
	<path d="M 1270.0,1876.0 C 1283.57,1890.73 1292.11,1905.99 1302.0,1923.0" style="stroke:#010101; fill:none;"/>
	<path d="M 1192.0,1960.0 C 1191.18,1963.01 1189.96,1975.33 1191.06,1977.81 C 1192.51,1981.1 1197.26,1982.8 1200.0,1984.79 C 1205.51,1988.78 1210.79,1993.88 1215.83,1998.46 C 1219.61,2001.9 1230.79,2015.12 1235.8,2005.85 C 1237.6,2002.54 1235.28,1999.45 1232.94,1997.18 C 1226.29,1990.76 1219.56,1984.6 1213.0,1978.0 C 1205.48,1970.45 1196.14,1964.15 1189.33,1956.0 C 1179.27,1943.96 1173.32,1928.61 1164.08,1916.0 C 1157.4,1906.89 1147.92,1900.92 1140.0,1893.0 C 1142.87,1891.64 1144.32,1891.13 1146.0,1894.0 L 1145.0,1895.0 L 1144.0,1894.0 L 1145.0,1893.0 L 1146.0,1894.0" style="stroke:#010101; fill:none;"/>
	<path d="M 1139.0,1892.0 L 1140.0,1893.0" style="stroke:#010101; fill:none;"/>
	<path d="M 1148.0,1893.0 C 1163.63,1905.4 1181.08,1919.07 1189.0,1938.0" style="stroke:#010101; fill:none;"/>
	<path d="M 968.0,1897.0 L 984.0,1901.0" style="stroke:#010101; fill:none;"/>
	<path d="M 1354.0,1899.0 C 1354.0,1911.0 1354.72,1925.1 1349.0,1936.0" style="stroke:#010101; fill:none;"/>
	<path d="M 999.0,1913.0 L 1011.0,1911.0" style="stroke:#010101; fill:none;"/>
	<path d="M 1015.0,1925.0 L 1021.0,1923.0" style="stroke:#010101; fill:none;"/>
	<path d="M 1018.0,1928.0 L 1025.0,1928.0" style="stroke:#010101; fill:none;"/>
	<path d="M 1226.0,1940.0 L 1243.0,1963.0" style="stroke:#010101; fill:none;"/>
	<path d="M 1020.0,1944.0 L 1021.0,1944.0" style="stroke:#010101; fill:none;"/>
	<path d="M 1027.0,1948.0 L 1028.0,1948.0" style="stroke:#010101; fill:none;"/>
	<path d="M 1031.0,1950.0 L 1040.0,1953.0" style="stroke:#010101; fill:none;"/>
	<path d="M 1478.0,1950.0 L 1478.0,1951.0" style="stroke:#010101; fill:none;"/>
	<path d="M 526.0,1952.0 L 529.0,1959.0" style="stroke:#010101; fill:none;"/>
	<path d="M 1108.0,1952.0 L 1139.0,1959.87 L 1188.0,1976.0" style="stroke:#010101; fill:none;"/>
	<path d="M 1477.0,1953.0 L 1477.0,1954.0" style="stroke:#010101; fill:none;"/>
	<path d="M 524.0,1956.0 L 529.0,1962.0" style="stroke:#010101; fill:none;"/>
	<path d="M 1327.0,1956.0 L 1327.0,1957.0" style="stroke:#010101; fill:none;"/>
	<path d="M 1475.0,1957.0 L 1475.0,1958.0" style="stroke:#010101; fill:none;"/>
	<path d="M 523.0,1958.0 L 519.0,1974.0" style="stroke:#010101; fill:none;"/>
	<path d="M 1327.0,1960.0 L 1336.0,2026.0" style="stroke:#010101; fill:none;"/>
	<path d="M 1075.0,1963.0 L 1096.0,1969.0" style="stroke:#010101; fill:none;"/>
	<path d="M 524.0,1965.0 L 527.0,1965.0" style="stroke:#010101; fill:none;"/>
	<path d="M 1098.0,1970.0 L 1099.0,1970.0" style="stroke:#010101; fill:none;"/>
	<path d="M 1101.0,1971.0 L 1103.0,1971.0" style="stroke:#010101; fill:none;"/>
	<path d="M 1564.0,1978.0 L 1570.0,1976.0" style="stroke:#010101; fill:none;"/>
	<path d="M 497.0,1979.0 C 482.826,2052.09 461.197,2123.68 447.46,2197.0 C 437.85,2248.29 433.84,2300.62 424.576,2352.0 C 412.294,2420.12 397.433,2490.6 396.0,2560.0" style="stroke:#010101; fill:none;"/>
	<path d="M 1556.0,1981.0 L 1562.0,1979.0" style="stroke:#010101; fill:none;"/>
	<path d="M 1135.0,1981.0 L 1136.0,1981.0" style="stroke:#010101; fill:none;"/>
	<path d="M 1507.0,2006.0 C 1513.75,1993.69 1541.26,1986.31 1554.0,1982.0" style="stroke:#010101; fill:none;"/>
	<path d="M 1346.0,1984.0 C 1346.0,1998.09 1349.93,2020.75 1341.3,2032.96 C 1334.86,2042.05 1307.18,2040.38 1300.56,2031.87 C 1296.28,2026.35 1297.9,2017.4 1296.0,2011.0" style="stroke:#010101; fill:none;"/>
	<path d="M 1326.0,1987.0 L 1327.0,1989.0" style="stroke:#010101; fill:none;"/>
	<path d="M 1184.0,1991.0 L 1189.0,1993.0" style="stroke:#010101; fill:none;"/>
	<path d="M 1327.0,1992.0 L 1329.0,2028.0" style="stroke:#010101; fill:none;"/>
	<path d="M 1191.0,1994.0 L 1193.0,1995.0" style="stroke:#010101; fill:none;"/>
	<path d="M 1319.0,1996.0 L 1322.0,2031.0" style="stroke:#010101; fill:none;"/>
	<path d="M 1457.0,2000.0 L 1456.0,2002.0" style="stroke:#010101; fill:none;"/>
	<path d="M 1306.0,2001.0 L 1307.0,2027.0" style="stroke:#010101; fill:none;"/>
	<path d="M 1311.0,2003.0 L 1314.0,2036.0" style="stroke:#010101; fill:none;"/>
	<path d="M 1455.0,2004.0 L 1454.0,2006.0" style="stroke:#010101; fill:none;"/>
	<path d="M 1681.0,2006.0 L 1682.0,2006.0" style="stroke:#010101; fill:none;"/>
	<path d="M 1669.0,2007.0 L 1674.0,2007.0" style="stroke:#010101; fill:none;"/>
	<path d="M 1567.0,2032.0 C 1596.81,2020.75 1633.86,2008.27 1666.0,2008.0" style="stroke:#010101; fill:none;"/>
	<path d="M 1703.0,2011.0 L 1704.0,2011.0" style="stroke:#010101; fill:none;"/>
	<path d="M 1665.0,2015.0 L 1660.0,2016.0 L 1669.58,2015.21 L 1700.0,2012.0" style="stroke:#010101; fill:none;"/>
	<path d="M 1671.0,2014.0 L 1672.0,2014.0" style="stroke:#010101; fill:none;"/>
	<path d="M 1656.0,2016.0 L 1660.0,2016.0" style="stroke:#010101; fill:none;"/>
	<path d="M 1788.0,2016.0 L 1884.0,2027.0" style="stroke:#010101; fill:none;"/>
	<path d="M 1645.0,2018.0 L 1653.0,2017.0" style="stroke:#010101; fill:none;"/>
	<path d="M 1661.0,2017.0 C 1653.91,2020.93 1636.44,2025.65 1629.0,2022.0 L 1637.0,2020.0" style="stroke:#010101; fill:none;"/>
	<path d="M 1668.0,2017.0 L 1669.0,2017.0" style="stroke:#010101; fill:none;"/>
	<path d="M 1706.0,2018.0 L 1707.0,2018.0" style="stroke:#010101; fill:none;"/>
	<path d="M 1753.0,2018.0 L 1754.0,2018.0" style="stroke:#010101; fill:none;"/>
	<path d="M 1640.0,2019.0 L 1643.0,2019.0" style="stroke:#010101; fill:none;"/>
	<path d="M 1702.0,2019.0 L 1703.0,2019.0" style="stroke:#010101; fill:none;"/>
	<path d="M 1745.0,2019.0 L 1746.0,2019.0" style="stroke:#010101; fill:none;"/>
	<path d="M 1748.0,2019.0 L 1749.0,2019.0" style="stroke:#010101; fill:none;"/>
	<path d="M 1695.0,2020.0 L 1698.0,2020.0" style="stroke:#010101; fill:none;"/>
	<path d="M 1737.0,2020.0 L 1738.0,2020.0" style="stroke:#010101; fill:none;"/>
	<path d="M 1740.0,2020.0 L 1741.0,2020.0" style="stroke:#010101; fill:none;"/>
	<path d="M 1764.0,2022.0 C 1788.9,2016.09 1820.53,2030.31 1845.0,2036.12 C 1858.37,2039.28 1871.6,2038.23 1885.0,2042.0" style="stroke:#010101; fill:none;"/>
	<path d="M 1688.0,2021.0 L 1678.0,2023.0" style="stroke:#010101; fill:none;"/>
	<path d="M 1690.0,2021.0 L 1693.0,2021.0" style="stroke:#010101; fill:none;"/>
	<path d="M 1781.0,2021.0 L 1786.0,2021.0" style="stroke:#010101; fill:none;"/>
	<path d="M 1629.0,2025.0 L 1625.0,2025.0 L 1629.0,2022.0" style="stroke:#010101; fill:none;"/>
	<path d="M 1725.0,2022.0 L 1726.0,2022.0" style="stroke:#010101; fill:none;"/>
	<path d="M 1760.0,2022.0 L 1761.0,2022.0" style="stroke:#010101; fill:none;"/>
	<path d="M 1090.0,2026.0 L 1177.0,2023.0" style="stroke:#010101; fill:none;"/>
	<path d="M 1179.0,2023.0 L 1181.0,2023.0" style="stroke:#010101; fill:none;"/>
	<path d="M 1183.0,2023.0 L 1185.0,2023.0" style="stroke:#010101; fill:none;"/>
	<path d="M 1187.0,2023.0 L 1188.0,2023.0" style="stroke:#010101; fill:none;"/>
	<path d="M 1593.0,2032.0 L 1624.0,2023.0" style="stroke:#010101; fill:none;"/>
	<path d="M 1752.0,2023.0 L 1753.0,2023.0" style="stroke:#010101; fill:none;"/>
	<path d="M 1755.0,2023.0 L 1756.0,2023.0" style="stroke:#010101; fill:none;"/>
	<path d="M 1615.0,2026.0 L 1617.0,2024.0 L 1621.0,2025.0" style="stroke:#010101; fill:none;"/>
	<path d="M 1646.0,2029.0 L 1676.0,2024.0" style="stroke:#010101; fill:none;"/>
	<path d="M 1744.0,2024.0 L 1745.0,2024.0" style="stroke:#010101; fill:none;"/>
	<path d="M 1747.0,2024.0 L 1748.0,2024.0" style="stroke:#010101; fill:none;"/>
	<path d="M 1720.0,2025.0 L 1722.0,2025.0" style="stroke:#010101; fill:none;"/>
	<path d="M 1724.0,2025.0 L 1760.0,2031.0 L 1734.0,2035.16 L 1687.0,2042.0" style="stroke:#010101; fill:none;"/>
	<path d="M 1087.0,2026.0 L 1088.0,2026.0" style="stroke:#010101; fill:none;"/>
	<path d="M 1759.0,2026.0 L 1776.0,2030.0" style="stroke:#010101; fill:none;"/>
	<path d="M 1886.0,2028.0 L 1887.0,2028.0" style="stroke:#010101; fill:none;"/>
	<path d="M 1909.0,2028.0 L 1910.0,2028.0" style="stroke:#010101; fill:none;"/>
	<path d="M 1778.0,2030.0 L 1791.0,2029.0" style="stroke:#010101; fill:none;"/>
	<path d="M 1634.0,2032.0 L 1644.0,2030.0" style="stroke:#010101; fill:none;"/>
	<path d="M 1760.0,2031.0 L 1776.0,2031.0" style="stroke:#010101; fill:none;"/>
	<path d="M 1790.0,2031.0 L 1835.0,2044.0 L 1834.0,2042.0" style="stroke:#010101; fill:none;"/>
	<path d="M 1916.0,2031.0 L 1918.0,2032.0" style="stroke:#010101; fill:none;"/>
	<path d="M 1627.0,2033.0 L 1632.0,2032.0" style="stroke:#010101; fill:none;"/>
	<path d="M 1775.0,2032.0 L 1828.0,2047.0 C 1818.13,2052.19 1799.26,2048.4 1788.0,2048.79 C 1758.31,2049.84 1728.65,2049.26 1699.0,2050.92 C 1689.42,2051.46 1679.39,2049.76 1670.0,2052.0" style="stroke:#010101; fill:none;"/>
	<path d="M 1920.0,2033.0 L 1939.0,2042.0" style="stroke:#010101; fill:none;"/>
	<path d="M 1649.0,2035.0 L 1650.0,2035.0" style="stroke:#010101; fill:none;"/>
	<path d="M 1642.0,2036.0 L 1643.0,2036.0" style="stroke:#010101; fill:none;"/>
	<path d="M 1635.0,2037.0 L 1638.0,2037.0" style="stroke:#010101; fill:none;"/>
	<path d="M 1795.0,2038.0 C 1786.39,2044.2 1769.39,2041.76 1759.0,2042.01 C 1734.22,2042.62 1705.11,2042.12 1681.0,2048.0" style="stroke:#010101; fill:none;"/>
	<path d="M 1865.0,2038.0 C 1863.5,2042.63 1886.19,2046.44 1891.0,2047.64 C 1893.96,2048.38 1897.69,2050.06 1899.0,2047.0" style="stroke:#010101; fill:none;"/>
	<path d="M 1626.0,2039.0 L 1627.0,2039.0" style="stroke:#010101; fill:none;"/>
	<path d="M 1862.0,2040.0 L 1863.0,2040.0" style="stroke:#010101; fill:none;"/>
	<path d="M 1645.0,2041.0 L 1646.0,2041.0" style="stroke:#010101; fill:none;"/>
	<path d="M 1888.0,2042.0 L 1889.0,2042.0" style="stroke:#010101; fill:none;"/>
	<path d="M 1672.0,2045.0 L 1685.0,2043.0" style="stroke:#010101; fill:none;"/>
	<path d="M 1836.0,2043.0 L 1887.0,2055.0" style="stroke:#010101; fill:none;"/>
	<path d="M 1892.0,2043.0 L 1898.0,2045.0" style="stroke:#010101; fill:none;"/>
	<path d="M 1835.0,2044.0 L 1835.0,2048.0 L 1828.0,2047.0" style="stroke:#010101; fill:none;"/>
	<path d="M 1838.0,2046.0 L 1861.0,2054.02 L 1908.0,2067.37 L 1934.0,2074.0" style="stroke:#010101; fill:none;"/>
	<path d="M 1900.0,2048.0 L 1934.0,2071.0" style="stroke:#010101; fill:none;"/>
	<path d="M 1837.0,2049.0 L 1839.0,2048.0" style="stroke:#010101; fill:none;"/>
	<path d="M 1726.0,2053.0 L 1767.0,2054.0 L 1837.0,2055.0" style="stroke:#010101; fill:none;"/>
	<path d="M 1933.0,2053.0 L 1934.0,2054.0" style="stroke:#010101; fill:none;"/>
	<path d="M 1925.0,2055.0 L 1926.0,2056.0" style="stroke:#010101; fill:none;"/>
	<path d="M 1937.0,2056.0 L 1938.0,2057.0" style="stroke:#010101; fill:none;"/>
	<path d="M 1732.0,2057.0 L 1784.0,2061.83 L 1805.0,2066.0 L 1784.0,2067.0 L 1734.0,2066.0" style="stroke:#010101; fill:none;"/>
	<path d="M 1930.0,2059.0 L 1979.0,2092.0 L 1978.0,2089.0" style="stroke:#010101; fill:none;"/>
	<path d="M 1940.0,2059.0 L 2005.0,2102.0" style="stroke:#010101; fill:none;"/>
	<path d="M 1527.0,2102.0 C 1527.43,2091.94 1530.93,2078.24 1526.0,2069.0 C 1538.74,2062.21 1556.92,2057.23 1571.0,2062.0 C 1568.21,2067.19 1568.28,2073.27 1567.2,2079.0 C 1565.09,2090.12 1559.41,2103.75 1562.0,2115.0" style="stroke:#010101; fill:none;"/>
	<path d="M 1571.0,2062.0 C 1595.72,2062.51 1622.63,2070.71 1647.0,2075.15 C 1656.78,2076.93 1662.16,2085.65 1673.0,2080.0 C 1662.5,2069.37 1646.29,2086.6 1636.0,2088.61 C 1623.39,2091.08 1616.18,2090.45 1618.0,2076.0" style="stroke:#010101; fill:none;"/>
	<path d="M 1734.0,2062.0 L 1753.0,2065.0" style="stroke:#010101; fill:none;"/>
	<path d="M 1963.0,2063.0 L 1964.0,2063.0" style="stroke:#010101; fill:none;"/>
	<path d="M 1800.0,2064.0 L 1800.0,2067.0" style="stroke:#010101; fill:none;"/>
	<path d="M 1561.0,2065.0 L 1561.0,2066.0" style="stroke:#010101; fill:none;"/>
	<path d="M 1806.0,2066.0 L 1838.0,2068.17 L 1889.0,2074.0" style="stroke:#010101; fill:none;"/>
	<path d="M 1967.0,2066.0 L 2006.0,2092.0" style="stroke:#010101; fill:none;"/>
	<path d="M 1548.0,2067.0 L 1548.0,2068.0" style="stroke:#010101; fill:none;"/>
	<path d="M 1560.0,2068.0 L 1551.0,2120.0" style="stroke:#010101; fill:none;"/>
	<path d="M 1512.0,2090.0 L 1510.0,2075.0 L 1526.0,2069.0" style="stroke:#010101; fill:none;"/>
	<path d="M 1826.0,2069.0 C 1829.87,2072.26 1831.64,2073.07 1835.0,2069.0" style="stroke:#010101; fill:none;"/>
	<path d="M 1547.0,2070.0 L 1543.0,2112.0" style="stroke:#010101; fill:none;"/>
	<path d="M 1584.0,2072.0 L 1577.0,2104.0" style="stroke:#010101; fill:none;"/>
	<path d="M 1537.0,2073.0 L 1537.0,2074.0" style="stroke:#010101; fill:none;"/>
	<path d="M 1785.0,2073.0 L 1789.0,2074.0" style="stroke:#010101; fill:none;"/>
	<path d="M 1900.0,2073.0 L 1901.0,2073.0" style="stroke:#010101; fill:none;"/>
	<path d="M 1935.0,2073.0 C 1949.42,2077.24 1964.88,2090.19 1977.0,2099.0" style="stroke:#010101; fill:none;"/>
	<path d="M 1834.0,2074.0 L 1915.0,2084.0" style="stroke:#010101; fill:none;"/>
	<path d="M 1903.0,2074.0 L 1904.0,2074.0" style="stroke:#010101; fill:none;"/>
	<path d="M 1501.0,2103.0 C 1501.0,2092.36 1496.68,2077.3 1510.0,2075.0" style="stroke:#010101; fill:none;"/>
	<path d="M 1791.0,2075.0 L 1793.0,2075.0" style="stroke:#010101; fill:none;"/>
	<path d="M 1536.0,2076.0 L 1536.0,2098.0" style="stroke:#010101; fill:none;"/>
	<path d="M 1596.0,2076.0 C 1594.94,2083.88 1591.9,2092.29 1595.0,2100.0 L 1617.0,2087.0" style="stroke:#010101; fill:none;"/>
	<path d="M 1795.0,2076.0 L 1797.0,2076.0" style="stroke:#010101; fill:none;"/>
	<path d="M 1799.0,2077.0 C 1844.88,2082.83 1890.52,2093.0 1937.0,2093.0" style="stroke:#010101; fill:none;"/>
	<path d="M 1911.0,2077.0 L 1912.0,2077.0" style="stroke:#010101; fill:none;"/>
	<path d="M 1662.0,2078.0 L 1662.0,2081.0" style="stroke:#010101; fill:none;"/>
	<path d="M 1666.0,2078.0 L 1666.0,2081.0" style="stroke:#010101; fill:none;"/>
	<path d="M 1685.0,2081.0 C 1690.37,2077.14 1695.41,2077.78 1701.0,2081.0 C 1691.92,2087.2 1682.8,2080.77 1673.0,2080.0" style="stroke:#010101; fill:none;"/>
	<path d="M 1914.0,2078.0 L 1916.0,2078.0" style="stroke:#010101; fill:none;"/>
	<path d="M 1486.0,2084.0 L 1500.0,2079.0" style="stroke:#010101; fill:none;"/>
	<path d="M 1629.0,2079.0 L 1629.0,2084.0 C 1633.05,2083.27 1638.82,2080.75 1637.0,2087.0" style="stroke:#010101; fill:none;"/>
	<path d="M 1696.0,2079.0 L 1696.0,2083.0" style="stroke:#010101; fill:none;"/>
	<path d="M 1918.0,2079.0 L 1938.0,2086.0" style="stroke:#010101; fill:none;"/>
	<path d="M 1640.0,2083.0 L 1642.0,2082.0" style="stroke:#010101; fill:none;"/>
	<path d="M 1495.0,2083.0 L 1494.0,2112.0" style="stroke:#010101; fill:none;"/>
	<path d="M 1634.0,2083.0 L 1637.0,2084.0" style="stroke:#010101; fill:none;"/>
	<path d="M 1492.0,2084.0 C 1490.69,2095.4 1486.7,2109.83 1490.0,2121.0 L 1492.0,2118.0" style="stroke:#010101; fill:none;"/>
	<path d="M 1618.0,2086.0 L 1628.0,2085.0" style="stroke:#010101; fill:none;"/>
	<path d="M 1688.0,2085.0 C 1686.8,2089.83 1682.47,2095.97 1683.37,2101.0 C 1686.29,2117.17 1703.26,2102.31 1707.0,2096.0 C 1724.13,2103.54 1716.09,2131.12 1699.0,2133.79 C 1682.17,2136.41 1653.06,2115.9 1669.23,2098.1 C 1673.21,2093.73 1679.44,2091.52 1685.0,2090.0" style="stroke:#010101; fill:none;"/>
	<path d="M 1700.0,2085.0 C 1713.84,2085.59 1726.61,2090.85 1740.0,2093.52 C 1778.87,2101.28 1829.73,2116.36 1859.0,2145.0" style="stroke:#010101; fill:none;"/>
	<path d="M 1607.0,2088.0 L 1614.0,2086.0" style="stroke:#010101; fill:none;"/>
	<path d="M 1636.0,2086.0 L 1637.0,2087.0" style="stroke:#010101; fill:none;"/>
	<path d="M 1441.0,2228.0 C 1437.22,2212.79 1440.97,2202.04 1445.29,2187.0 C 1451.77,2164.44 1460.73,2142.71 1469.6,2121.0 C 1474.06,2110.11 1479.74,2092.27 1491.0,2087.0" style="stroke:#010101; fill:none;"/>
	<path d="M 1836.0,2087.0 C 1853.91,2094.08 1874.04,2093.76 1893.0,2095.09 C 1917.45,2096.8 1942.55,2100.8 1967.0,2101.0" style="stroke:#010101; fill:none;"/>
	<path d="M 1940.0,2087.0 L 1941.0,2087.0" style="stroke:#010101; fill:none;"/>
	<path d="M 1944.0,2089.0 L 1945.0,2089.0" style="stroke:#010101; fill:none;"/>
	<path d="M 1635.0,2090.0 C 1633.62,2105.78 1630.53,2118.3 1641.55,2131.87 C 1646.47,2137.92 1659.82,2139.75 1667.0,2142.42 C 1677.63,2146.39 1688.37,2150.07 1699.0,2154.05 C 1703.42,2155.7 1709.06,2158.79 1713.91,2158.4 C 1721.45,2157.79 1734.63,2151.24 1741.0,2147.03 C 1748.96,2141.77 1753.76,2132.46 1753.95,2123.0 C 1754.04,2118.36 1750.17,2109.01 1754.33,2105.53 C 1761.46,2099.57 1769.91,2117.25 1775.0,2109.0 L 1769.0,2110.0" style="stroke:#010101; fill:none;"/>
	<path d="M 1975.0,2090.0 L 1976.0,2090.0" style="stroke:#010101; fill:none;"/>
	<path d="M 1981.0,2091.0 L 1989.0,2096.0" style="stroke:#010101; fill:none;"/>
	<path d="M 1616.0,2092.0 L 1619.0,2092.0" style="stroke:#010101; fill:none;"/>
	<path d="M 1979.0,2092.0 L 1998.0,2104.0" style="stroke:#010101; fill:none;"/>
	<path d="M 1609.0,2095.0 C 1606.36,2098.02 1602.69,2101.31 1601.04,2105.0 C 1596.47,2115.29 1622.01,2121.13 1627.0,2127.0 C 1620.68,2128.32 1614.24,2124.44 1608.0,2123.26 C 1592.6,2120.34 1574.7,2117.82 1560.0,2125.0" style="stroke:#010101; fill:none;"/>
	<path d="M 1743.0,2096.0 L 1756.0,2102.0" style="stroke:#010101; fill:none;"/>
	<path d="M 1602.0,2097.0 L 1605.0,2100.0" style="stroke:#010101; fill:none;"/>
	<path d="M 1600.0,2098.0 L 1603.0,2101.0" style="stroke:#010101; fill:none;"/>
	<path d="M 1970.0,2098.0 L 1971.0,2099.0" style="stroke:#010101; fill:none;"/>
	<path d="M 1596.0,2100.0 L 1565.0,2121.0" style="stroke:#010101; fill:none;"/>
	<path d="M 1973.0,2100.0 L 1975.0,2101.0" style="stroke:#010101; fill:none;"/>
	<path d="M 1751.0,2102.0 L 1753.0,2106.0" style="stroke:#010101; fill:none;"/>
	<path d="M 1888.0,2102.0 C 1911.19,2106.79 1933.24,2111.43 1957.0,2112.01 C 1962.74,2112.16 1968.27,2113.91 1974.0,2113.0" style="stroke:#010101; fill:none;"/>
	<path d="M 1980.0,2104.0 L 2000.0,2114.0" style="stroke:#010101; fill:none;"/>
	<path d="M 1766.0,2106.0 L 1771.0,2108.0" style="stroke:#010101; fill:none;"/>
	<path d="M 1481.0,2108.0 L 1481.0,2109.0" style="stroke:#010101; fill:none;"/>
	<path d="M 1775.0,2111.0 C 1782.26,2114.97 1778.8,2123.54 1784.28,2127.34 C 1786.71,2129.02 1790.86,2127.34 1790.37,2124.04 C 1789.88,2120.73 1785.64,2119.69 1783.0,2119.0" style="stroke:#010101; fill:none;"/>
	<path d="M 1480.0,2112.0 L 1482.0,2159.0" style="stroke:#010101; fill:none;"/>
	<path d="M 1773.0,2113.0 C 1774.81,2116.42 1776.32,2117.24 1780.0,2116.0" style="stroke:#010101; fill:none;"/>
	<path d="M 1477.0,2115.0 L 1477.0,2117.0" style="stroke:#010101; fill:none;"/>
	<path d="M 1476.0,2119.0 L 1476.0,2120.0" style="stroke:#010101; fill:none;"/>
	<path d="M 1490.0,2121.0 L 1492.0,2130.0" style="stroke:#010101; fill:none;"/>
	<path d="M 1789.0,2121.0 L 1783.0,2127.0" style="stroke:#010101; fill:none;"/>
	<path d="M 1476.0,2122.0 C 1472.52,2149.51 1476.55,2177.69 1480.0,2205.0" style="stroke:#010101; fill:none;"/>
	<path d="M 1492.0,2123.0 L 1491.0,2124.0" style="stroke:#010101; fill:none;"/>
	<path d="M 1515.0,2124.0 L 1515.0,2125.0" style="stroke:#010101; fill:none;"/>
	<path d="M 1525.0,2126.0 L 1525.0,2127.0" style="stroke:#010101; fill:none;"/>
	<path d="M 1553.0,2126.0 L 1553.0,2127.0" style="stroke:#010101; fill:none;"/>
	<path d="M 1793.13,2128.46 C 1789.59,2129.47 1790.01,2136.01 1794.0,2135.37 C 1798.43,2134.66 1797.67,2127.16 1793.13,2128.46" style="stroke:#010101; fill:none;"/>
	<path d="M 1627.0,2128.0 C 1631.22,2130.67 1635.14,2132.87 1640.0,2131.0" style="stroke:#010101; fill:none;"/>
	<path d="M 1798.0,2130.0 L 1806.0,2131.0 L 1803.0,2135.0 L 1809.0,2137.0 L 1804.0,2145.0 L 1832.04,2167.82 L 1852.0,2175.0" style="stroke:#010101; fill:none;"/>
	<path d="M 1485.0,2129.0 L 1485.0,2130.0" style="stroke:#010101; fill:none;"/>
	<path d="M 1531.0,2129.0 L 1536.0,2159.0" style="stroke:#010101; fill:none;"/>
	<path d="M 1525.0,2130.0 L 1526.03,2151.0 L 1529.0,2157.0" style="stroke:#010101; fill:none;"/>
	<path d="M 1553.0,2130.0 L 1552.0,2134.0" style="stroke:#010101; fill:none;"/>
	<path d="M 1806.0,2131.0 L 1812.0,2133.0" style="stroke:#010101; fill:none;"/>
	<path d="M 1485.0,2132.0 L 1485.0,2141.0" style="stroke:#010101; fill:none;"/>
	<path d="M 1492.0,2133.0 L 1498.0,2170.0" style="stroke:#010101; fill:none;"/>
	<path d="M 1508.0,2135.0 L 1508.0,2136.0" style="stroke:#010101; fill:none;"/>
	<path d="M 1798.0,2135.0 L 1803.0,2136.0" style="stroke:#010101; fill:none;"/>
	<path d="M 1516.0,2136.0 L 1520.0,2160.0" style="stroke:#010101; fill:none;"/>
	<path d="M 1543.0,2136.0 L 1543.0,2137.0" style="stroke:#010101; fill:none;"/>
	<path d="M 1552.0,2136.0 L 1553.0,2142.0" style="stroke:#010101; fill:none;"/>
	<path d="M 1810.0,2137.0 L 1811.0,2138.0" style="stroke:#010101; fill:none;"/>
	<path d="M 1463.0,2138.0 C 1468.04,2146.23 1467.32,2159.47 1468.09,2169.0 C 1469.61,2188.0 1470.56,2210.77 1476.0,2229.0" style="stroke:#010101; fill:none;"/>
	<path d="M 1543.0,2139.0 L 1543.0,2140.0" style="stroke:#010101; fill:none;"/>
	<path d="M 1801.0,2139.0 L 1807.0,2140.0" style="stroke:#010101; fill:none;"/>
	<path d="M 1612.0,2141.0 L 1621.0,2141.0" style="stroke:#010101; fill:none;"/>
	<path d="M 1809.0,2141.0 L 1821.0,2146.0" style="stroke:#010101; fill:none;"/>
	<path d="M 1803.0,2142.0 L 1803.0,2144.0" style="stroke:#010101; fill:none;"/>
	<path d="M 1485.0,2143.0 L 1488.42,2171.0 L 1498.0,2221.0" style="stroke:#010101; fill:none;"/>
	<path d="M 1509.0,2143.0 L 1509.0,2144.0" style="stroke:#010101; fill:none;"/>
	<path d="M 1644.0,2146.0 L 1643.0,2148.0" style="stroke:#010101; fill:none;"/>
	<path d="M 1544.0,2147.0 L 1545.0,2153.0" style="stroke:#010101; fill:none;"/>
	<path d="M 1654.0,2148.0 L 1648.0,2155.0" style="stroke:#010101; fill:none;"/>
	<path d="M 1510.0,2150.0 L 1510.0,2151.0" style="stroke:#010101; fill:none;"/>
	<path d="M 1814.0,2152.0 L 1829.0,2154.0" style="stroke:#010101; fill:none;"/>
	<path d="M 1511.0,2155.0 L 1511.0,2156.0" style="stroke:#010101; fill:none;"/>
	<path d="M 1546.0,2155.0 L 1546.0,2156.0" style="stroke:#010101; fill:none;"/>
	<path d="M 1461.0,2156.0 L 1461.0,2157.0" style="stroke:#010101; fill:none;"/>
	<path d="M 1511.0,2158.0 L 1511.0,2159.0" style="stroke:#010101; fill:none;"/>
	<path d="M 1460.0,2159.0 L 1473.0,2266.0" style="stroke:#010101; fill:none;"/>
	<path d="M 1717.0,2160.0 C 1750.98,2160.28 1786.66,2159.21 1820.0,2167.0" style="stroke:#010101; fill:none;"/>
	<path d="M 1512.0,2163.0 L 1512.0,2164.0" style="stroke:#010101; fill:none;"/>
	<path d="M 1622.0,2163.0 L 1670.0,2188.0" style="stroke:#010101; fill:none;"/>
	<path d="M 1816.0,2167.0 C 1818.62,2176.15 1832.75,2180.64 1840.0,2186.0" style="stroke:#010101; fill:none;"/>
	<path d="M 1513.0,2170.0 L 1513.0,2171.0" style="stroke:#010101; fill:none;"/>
	<path d="M 1834.0,2170.0 C 1838.42,2179.44 1854.48,2179.59 1864.0,2180.0" style="stroke:#010101; fill:none;"/>
	<path d="M 1454.0,2171.0 L 1454.0,2172.0" style="stroke:#010101; fill:none;"/>
	<path d="M 1499.0,2172.0 L 1499.0,2174.0" style="stroke:#010101; fill:none;"/>
	<path d="M 1777.0,2172.0 L 1784.0,2188.0" style="stroke:#010101; fill:none;"/>
	<path d="M 1839.0,2172.0 L 1840.0,2173.0" style="stroke:#010101; fill:none;"/>
	<path d="M 1514.0,2173.0 L 1514.0,2177.0" style="stroke:#010101; fill:none;"/>
	<path d="M 1454.0,2174.0 L 1473.0,2290.0" style="stroke:#010101; fill:none;"/>
	<path d="M 1721.0,2174.0 L 1721.0,2175.0" style="stroke:#010101; fill:none;"/>
	<path d="M 1744.0,2175.0 L 1750.0,2183.0" style="stroke:#010101; fill:none;"/>
	<path d="M 1766.0,2175.0 L 1768.0,2178.0" style="stroke:#010101; fill:none;"/>
	<path d="M 1793.0,2176.0 L 1794.0,2179.0" style="stroke:#010101; fill:none;"/>
	<path d="M 1855.0,2176.0 L 1856.0,2176.0" style="stroke:#010101; fill:none;"/>
	<path d="M 1500.0,2177.0 L 1501.0,2182.0" style="stroke:#010101; fill:none;"/>
	<path d="M 1759.0,2177.0 L 1759.0,2179.0" style="stroke:#010101; fill:none;"/>
	<path d="M 1788.0,2178.0 L 1788.0,2179.0" style="stroke:#010101; fill:none;"/>
	<path d="M 1866.0,2181.0 L 1868.0,2181.0" style="stroke:#010101; fill:none;"/>
	<path d="M 1979.0,2182.0 L 1976.0,2187.0" style="stroke:#010101; fill:none;"/>
	<path d="M 1870.0,2193.0 L 1856.0,2191.0 L 1875.0,2186.0" style="stroke:#010101; fill:none;"/>
	<path d="M 1502.0,2188.0 L 1502.0,2189.0" style="stroke:#010101; fill:none;"/>
	<path d="M 1672.0,2189.0 L 1673.0,2189.0" style="stroke:#010101; fill:none;"/>
	<path d="M 1851.0,2190.0 L 1849.0,2191.0" style="stroke:#010101; fill:none;"/>
	<path d="M 629.0,2191.0 L 630.0,2191.0" style="stroke:#010101; fill:none;"/>
	<path d="M 1854.0,2191.0 L 1856.0,2191.0" style="stroke:#010101; fill:none;"/>
	<path d="M 632.0,2192.0 L 633.0,2192.0" style="stroke:#010101; fill:none;"/>
	<path d="M 636.0,2192.0 L 637.0,2192.0" style="stroke:#010101; fill:none;"/>
	<path d="M 1503.0,2192.0 L 1503.0,2193.0" style="stroke:#010101; fill:none;"/>
	<path d="M 1873.0,2192.0 L 1874.0,2192.0" style="stroke:#010101; fill:none;"/>
	<path d="M 1450.0,2199.0 L 1450.0,2202.0" style="stroke:#010101; fill:none;"/>
	<path d="M 1450.0,2204.0 L 1451.0,2214.0" style="stroke:#010101; fill:none;"/>
	<path d="M 1720.0,2206.0 C 1738.8,2209.5 1754.96,2211.41 1774.0,2209.0" style="stroke:#010101; fill:none;"/>
	<path d="M 1500.0,2211.0 L 1500.0,2213.0" style="stroke:#010101; fill:none;"/>
	<path d="M 1452.0,2216.0 L 1464.0,2293.0" style="stroke:#010101; fill:none;"/>
	<path d="M 621.0,2225.0 L 630.0,2222.0" style="stroke:#010101; fill:none;"/>
	<path d="M 1437.0,2223.0 C 1434.23,2237.87 1427.6,2256.93 1430.0,2272.0" style="stroke:#010101; fill:none;"/>
	<path d="M 1442.0,2230.0 L 1458.0,2322.0" style="stroke:#010101; fill:none;"/>
	<path d="M 1476.0,2231.0 L 1477.0,2236.0" style="stroke:#010101; fill:none;"/>
	<path d="M 1963.0,2231.0 L 1962.0,2232.0" style="stroke:#010101; fill:none;"/>
	<path d="M 626.0,2240.0 L 622.0,2243.0" style="stroke:#010101; fill:none;"/>
	<path d="M 1436.0,2260.0 L 1443.92,2304.0 L 1451.0,2349.0" style="stroke:#010101; fill:none;"/>
	<path d="M 1935.0,2272.0 L 1945.0,2266.0" style="stroke:#010101; fill:none;"/>
	<path d="M 1116.0,2281.0 L 1079.0,2315.0" style="stroke:#010101; fill:none;"/>
	<path d="M 1109.0,2286.0 L 1110.0,2284.0" style="stroke:#010101; fill:none;"/>
	<path d="M 1056.0,2316.0 L 1108.0,2285.0" style="stroke:#010101; fill:none;"/>
	<path d="M 1465.0,2295.0 L 1466.0,2304.0" style="stroke:#010101; fill:none;"/>
	<path d="M 622.0,2308.0 L 638.0,2300.0" style="stroke:#010101; fill:none;"/>
	<path d="M 1467.0,2307.0 L 1467.0,2308.0" style="stroke:#010101; fill:none;"/>
	<path d="M 506.0,2317.0 L 502.0,2322.0" style="stroke:#010101; fill:none;"/>
	<path d="M 1443.0,2324.0 L 1443.0,2325.0" style="stroke:#010101; fill:none;"/>
	<path d="M 1459.0,2325.0 L 1459.0,2327.0" style="stroke:#010101; fill:none;"/>
	<path d="M 1076.0,2326.0 C 1067.5,2338.05 1062.96,2359.45 1061.0,2374.0" style="stroke:#010101; fill:none;"/>
	<path d="M 1442.0,2327.0 L 1442.0,2328.0" style="stroke:#010101; fill:none;"/>
	<path d="M 1459.0,2329.0 L 1460.0,2331.0" style="stroke:#010101; fill:none;"/>
	<path d="M 1442.0,2330.0 L 1442.0,2333.0" style="stroke:#010101; fill:none;"/>
	<path d="M 487.0,2333.0 L 487.0,2336.0" style="stroke:#010101; fill:none;"/>
	<path d="M 1460.0,2333.0 L 1462.0,2342.0" style="stroke:#010101; fill:none;"/>
	<path d="M 1442.0,2335.0 L 1442.0,2337.0" style="stroke:#010101; fill:none;"/>
	<path d="M 1442.0,2339.0 C 1438.61,2362.51 1442.92,2389.28 1443.96,2413.0 C 1444.94,2435.42 1441.75,2456.81 1440.0,2479.0" style="stroke:#010101; fill:none;"/>
	<path d="M 530.0,2342.0 L 518.0,2347.0" style="stroke:#010101; fill:none;"/>
	<path d="M 1451.0,2352.0 L 1451.0,2353.0" style="stroke:#010101; fill:none;"/>
	<path d="M 1451.0,2355.0 L 1451.0,2356.0" style="stroke:#010101; fill:none;"/>
	<path d="M 492.0,2361.0 C 494.04,2385.98 503.75,2411.05 510.579,2435.0 C 534.651,2519.43 576.159,2595.22 617.691,2672.0 C 637.082,2707.85 648.404,2747.71 669.0,2783.0" style="stroke:#010101; fill:none;"/>
	<path d="M 1085.0,2454.0 C 1102.81,2480.39 1137.51,2478.64 1162.0,2496.04 C 1168.96,2500.99 1169.28,2507.45 1173.77,2514.0 C 1183.7,2528.46 1194.83,2543.85 1210.0,2553.25 C 1229.5,2565.33 1255.9,2574.45 1279.0,2570.56 C 1293.3,2568.16 1307.58,2559.03 1322.0,2559.03 C 1335.93,2559.02 1347.67,2565.14 1361.0,2567.54 C 1381.33,2571.19 1400.8,2563.08 1415.0,2549.0" style="stroke:#010101; fill:none;"/>
	<path d="M 651.0,2456.0 L 653.0,2455.0" style="stroke:#010101; fill:none;"/>
	<path d="M 636.0,2461.0 L 637.0,2461.0" style="stroke:#010101; fill:none;"/>
	<path d="M 674.0,2464.0 L 675.0,2464.0" style="stroke:#010101; fill:none;"/>
	<path d="M 652.0,2476.0 L 672.0,2465.0" style="stroke:#010101; fill:none;"/>
	<path d="M 1439.0,2481.0 L 1439.0,2482.0" style="stroke:#010101; fill:none;"/>
	<path d="M 981.0,2517.0 L 978.0,2519.0" style="stroke:#010101; fill:none;"/>
	<path d="M 976.0,2520.0 L 972.0,2525.0" style="stroke:#010101; fill:none;"/>
	<path d="M 902.0,2526.0 L 903.0,2526.0" style="stroke:#010101; fill:none;"/>
	<path d="M 897.0,2527.0 L 898.0,2527.0" style="stroke:#010101; fill:none;"/>
	<path d="M 1099.0,2548.0 L 1100.0,2548.0" style="stroke:#010101; fill:none;"/>
	<path d="M 1095.0,2549.0 L 1094.0,2550.0" style="stroke:#010101; fill:none;"/>
	<path d="M 1092.0,2551.0 L 1091.0,2552.0" style="stroke:#010101; fill:none;"/>
	<path d="M 1475.0,2571.0 L 1475.0,2572.0" style="stroke:#010101; fill:none;"/>
	<path d="M 1718.0,2576.0 C 1704.48,2595.81 1684.84,2610.45 1667.0,2626.16 C 1632.37,2656.64 1594.1,2687.13 1566.0,2724.0" style="stroke:#010101; fill:none;"/>
	<path d="M 1475.0,2582.0 L 1476.0,2584.0" style="stroke:#010101; fill:none;"/>
	<path d="M 1475.0,2586.0 C 1479.04,2599.66 1476.67,2617.73 1477.01,2632.0 C 1477.73,2661.32 1480.88,2693.13 1474.0,2722.0" style="stroke:#010101; fill:none;"/>
	<path d="M 933.0,2631.0 C 965.336,2641.27 997.054,2651.59 1031.0,2654.83 C 1046.61,2656.32 1064.89,2649.77 1080.0,2654.21 C 1097.09,2659.23 1114.51,2672.37 1126.99,2685.0 C 1137.33,2695.48 1147.34,2708.62 1161.0,2715.09 C 1189.24,2728.46 1218.26,2717.77 1248.0,2724.43 C 1271.33,2729.65 1289.47,2749.8 1311.0,2760.0" style="stroke:#010101; fill:none;"/>
	<path d="M 907.0,2637.0 C 932.295,2644.12 952.716,2657.32 976.0,2668.74 C 988.329,2674.79 1001.64,2678.23 1014.0,2684.26 C 1032.14,2693.1 1050.89,2705.48 1068.0,2716.19 C 1089.41,2729.59 1107.93,2744.75 1132.0,2753.63 C 1161.94,2764.67 1195.19,2771.16 1227.0,2772.79 C 1249.75,2773.96 1273.27,2769.74 1296.0,2772.17 C 1310.72,2773.75 1326.57,2778.53 1341.0,2782.0" style="stroke:#010101; fill:none;"/>
	<path d="M 1344.0,2670.0 L 1343.0,2675.0" style="stroke:#010101; fill:none;"/>
	<path d="M 1366.0,2670.0 L 1358.0,2681.0" style="stroke:#010101; fill:none;"/>
	<path d="M 1386.0,2683.0 L 1386.0,2684.0" style="stroke:#010101; fill:none;"/>
	<path d="M 1385.0,2686.0 L 1381.0,2695.0" style="stroke:#010101; fill:none;"/>
	<path d="M 405.0,2709.0 L 406.0,2718.0" style="stroke:#010101; fill:none;"/>
	<path d="M 1564.0,2726.0 L 1563.0,2727.0" style="stroke:#010101; fill:none;"/>
	<path d="M 1602.0,2737.0 C 1577.89,2774.83 1542.82,2813.34 1506.0,2839.23 C 1490.96,2849.8 1475.86,2860.11 1460.0,2869.41 C 1451.92,2874.14 1442.25,2876.67 1435.47,2883.6 C 1432.1,2887.05 1432.28,2891.68 1430.91,2896.0 C 1428.1,2904.81 1424.87,2913.71 1420.75,2922.0 C 1407.28,2949.13 1390.11,2974.71 1370.71,2998.0 C 1342.43,3031.96 1304.13,3053.31 1265.0,3072.26 C 1236.3,3086.16 1205.94,3099.46 1175.0,3107.52 C 1156.77,3112.27 1138.26,3114.13 1120.0,3118.0" style="stroke:#010101; fill:none;"/>
	<path d="M 1531.0,2764.0 L 1531.0,2765.0" style="stroke:#010101; fill:none;"/>
	<path d="M 1529.0,2767.0 L 1528.0,2768.0" style="stroke:#010101; fill:none;"/>
	<path d="M 1526.0,2771.0 L 1525.0,2772.0" style="stroke:#010101; fill:none;"/>
	<path d="M 986.0,2774.0 C 1015.55,2783.63 1034.19,2811.83 1062.0,2825.73 C 1074.73,2832.09 1089.25,2834.72 1103.0,2837.88 C 1127.97,2843.62 1152.21,2848.1 1178.0,2846.96 C 1188.31,2846.51 1198.67,2843.82 1209.0,2843.0" style="stroke:#010101; fill:none;"/>
	<path d="M 1523.0,2775.0 L 1520.0,2779.0" style="stroke:#010101; fill:none;"/>
	<path d="M 1518.0,2781.0 L 1488.0,2821.0" style="stroke:#010101; fill:none;"/>
	<path d="M 681.0,2794.0 C 703.877,2861.62 744.597,2924.83 785.0,2983.0 L 790.0,2973.0" style="stroke:#010101; fill:none;"/>
	<path d="M 905.0,2798.0 C 933.333,2819.51 961.929,2831.87 995.0,2844.46 C 1034.2,2859.38 1072.41,2871.15 1114.0,2877.13 C 1129.81,2879.4 1146.01,2884.87 1162.0,2885.0" style="stroke:#010101; fill:none;"/>
	<path d="M 1220.0,2840.0 C 1233.51,2839.23 1245.39,2831.18 1257.0,2825.0" style="stroke:#010101; fill:none;"/>
	<path d="M 1211.0,2842.0 L 1213.0,2842.0" style="stroke:#010101; fill:none;"/>
	<path d="M 737.0,2868.0 L 727.0,2872.0" style="stroke:#010101; fill:none;"/>
	<path d="M 803.0,2880.0 L 794.0,2903.0" style="stroke:#010101; fill:none;"/>
	<path d="M 785.0,2984.0 C 802.989,3010.69 823.97,3036.04 851.0,3054.25 C 887.864,3079.08 935.673,3091.02 979.0,3098.29 C 1003.64,3102.42 1026.76,3108.78 1052.0,3108.99 C 1118.57,3109.53 1190.94,3083.23 1244.0,3043.63 C 1285.52,3012.64 1326.36,2977.64 1363.0,2941.0 C 1377.5,2926.5 1393.32,2912.79 1410.0,2900.86 C 1416.59,2896.15 1423.89,2889.47 1432.0,2888.0" style="stroke:#010101; fill:none;"/>
	<path d="M 755.0,2893.0 L 754.0,2894.0" style="stroke:#010101; fill:none;"/>
	<path d="M 1228.0,2894.0 L 1229.0,2894.0" style="stroke:#010101; fill:none;"/>
	<path d="M 1231.0,2895.0 L 1263.0,2895.0" style="stroke:#010101; fill:none;"/>
	<path d="M 764.0,2899.0 L 759.0,2907.0" style="stroke:#010101; fill:none;"/>
	<path d="M 804.0,2904.0 L 798.0,2924.0" style="stroke:#010101; fill:none;"/>
	<path d="M 809.0,2916.0 L 804.0,2933.0" style="stroke:#010101; fill:none;"/>
	<path d="M 820.0,2929.0 L 811.0,2949.0" style="stroke:#010101; fill:none;"/>
	<path d="M 831.0,2946.0 L 831.0,2947.0" style="stroke:#010101; fill:none;"/>
	<path d="M 830.0,2949.0 L 828.0,2954.0" style="stroke:#010101; fill:none;"/>
	<path d="M 827.0,2957.0 L 827.0,2958.0" style="stroke:#010101; fill:none;"/>
	<path d="M 1253.0,2967.0 L 1250.0,2983.0" style="stroke:#010101; fill:none;"/>
	<path d="M 818.0,2987.0 L 809.0,3001.0" style="stroke:#010101; fill:none;"/>
	<path d="M 1214.0,2996.0 L 1214.0,3003.0" style="stroke:#010101; fill:none;"/>
	<path d="M 835.0,3004.0 L 829.0,3012.0" style="stroke:#010101; fill:none;"/>
	<path d="M 1188.0,3021.0 L 1187.0,3031.0" style="stroke:#010101; fill:none;"/>
	<path d="M 962.0,3026.0 L 958.0,3044.0" style="stroke:#010101; fill:none;"/>
	<path d="M 1166.0,3029.0 L 1166.0,3030.0" style="stroke:#010101; fill:none;"/>
	<path d="M 1165.0,3032.0 L 1166.0,3045.0" style="stroke:#010101; fill:none;"/>
	<path d="M 1221.0,3034.0 L 1221.0,3036.0" style="stroke:#010101; fill:none;"/>
	<path d="M 894.0,3037.0 L 893.0,3040.0" style="stroke:#010101; fill:none;"/>
	<path d="M 983.0,3040.0 L 979.0,3050.0" style="stroke:#010101; fill:none;"/>
	<path d="M 919.0,3051.0 L 915.0,3066.0" style="stroke:#010101; fill:none;"/>
	<path d="M 1147.0,3061.0 L 1147.0,3064.0" style="stroke:#010101; fill:none;"/>
	<path d="M 1128.0,3066.0 L 1127.0,3068.0" style="stroke:#010101; fill:none;"/>
</svg>
