<?xml version="1.0" ?>
<svg baseProfile="full" height="3402" version="1.1" width="2654" xmlns="http://www.w3.org/2000/svg" xmlns:ev="http://www.w3.org/2001/xml-events" xmlns:xlink="http://www.w3.org/1999/xlink">
	<defs/>
	<path d="M 1844.0,1254.0 L 1843.0,1255.0" style="stroke:#010101; fill:none;"/>
	<path d="M 1841.0,1257.0 L 1837.0,1259.0" style="stroke:#010101; fill:none;"/>
	<path d="M 1841.0,1264.0 L 1853.0,1261.0" style="stroke:#010101; fill:none;"/>
	<path d="M 1704.0,1351.0 C 1734.76,1325.98 1766.79,1301.55 1802.0,1283.0" style="stroke:#010101; fill:none;"/>
	<path d="M 1241.0,1294.0 L 1253.0,1296.0" style="stroke:#010101; fill:none;"/>
	<path d="M 1708.0,1301.0 L 1659.0,1350.0" style="stroke:#010101; fill:none;"/>
	<path d="M 1210.0,1304.0 L 1212.0,1304.0" style="stroke:#010101; fill:none;"/>
	<path d="M 1719.0,1305.0 L 1707.0,1323.0 L 1710.0,1323.0" style="stroke:#010101; fill:none;"/>
	<path d="M 1143.0,1306.0 C 1162.53,1318.9 1180.5,1335.5 1197.0,1352.0" style="stroke:#010101; fill:none;"/>
	<path d="M 1932.0,1309.0 L 1933.0,1310.0" style="stroke:#010101; fill:none;"/>
	<path d="M 1686.0,1310.0 L 1616.0,1370.0" style="stroke:#010101; fill:none;"/>
	<path d="M 1170.0,1311.0 L 1205.0,1332.0" style="stroke:#010101; fill:none;"/>
	<path d="M 1936.0,1313.0 L 1937.0,1314.0" style="stroke:#010101; fill:none;"/>
	<path d="M 1939.0,1315.0 L 1946.0,1321.0" style="stroke:#010101; fill:none;"/>
	<path d="M 1706.0,1324.0 L 1708.0,1325.0" style="stroke:#010101; fill:none;"/>
	<path d="M 1706.0,1326.0 L 1676.0,1356.0" style="stroke:#010101; fill:none;"/>
	<path d="M 1088.0,1327.0 L 1104.0,1338.0" style="stroke:#010101; fill:none;"/>
	<path d="M 1119.0,1329.0 C 1127.07,1336.03 1135.37,1342.03 1138.0,1353.0" style="stroke:#010101; fill:none;"/>
	<path d="M 1947.0,1337.0 L 1949.0,1339.0" style="stroke:#010101; fill:none;"/>
	<path d="M 1951.0,1340.0 C 1980.9,1363.73 2016.33,1378.0 2049.0,1397.0" style="stroke:#010101; fill:none;"/>
	<path d="M 1958.0,1358.0 L 1959.0,1359.0" style="stroke:#010101; fill:none;"/>
	<path d="M 1650.0,1359.0 L 1649.0,1360.0" style="stroke:#010101; fill:none;"/>
	<path d="M 1961.0,1360.0 L 1962.0,1361.0" style="stroke:#010101; fill:none;"/>
	<path d="M 1964.0,1362.0 L 2046.0,1412.0" style="stroke:#010101; fill:none;"/>
	<path d="M 869.0,1365.0 L 870.0,1365.0" style="stroke:#010101; fill:none;"/>
	<path d="M 873.0,1365.0 L 874.0,1365.0" style="stroke:#010101; fill:none;"/>
	<path d="M 1608.0,1374.0 L 1609.0,1374.0" style="stroke:#010101; fill:none;"/>
	<path d="M 1604.0,1376.0 L 1605.0,1376.0" style="stroke:#010101; fill:none;"/>
	<path d="M 1984.0,1383.0 L 1985.0,1384.0" style="stroke:#010101; fill:none;"/>
	<path d="M 1989.0,1387.0 L 2042.0,1423.0" style="stroke:#010101; fill:none;"/>
	<path d="M 1980.0,1392.0 L 2038.0,1436.0" style="stroke:#010101; fill:none;"/>
	<path d="M 853.0,1395.0 L 854.0,1395.0" style="stroke:#010101; fill:none;"/>
	<path d="M 1986.0,1410.0 L 2046.0,1453.0" style="stroke:#010101; fill:none;"/>
	<path d="M 852.0,1418.0 L 854.0,1418.0" style="stroke:#010101; fill:none;"/>
	<path d="M 848.0,1419.0 L 850.0,1419.0" style="stroke:#010101; fill:none;"/>
	<path d="M 845.0,1420.0 L 846.0,1420.0" style="stroke:#010101; fill:none;"/>
	<path d="M 1993.0,1428.0 L 1996.0,1430.0" style="stroke:#010101; fill:none;"/>
	<path d="M 1998.0,1431.0 L 2025.0,1448.0" style="stroke:#010101; fill:none;"/>
	<path d="M 851.0,1438.0 L 852.0,1439.0" style="stroke:#010101; fill:none;"/>
	<path d="M 843.0,1439.0 L 849.0,1439.0" style="stroke:#010101; fill:none;"/>
	<path d="M 856.0,1439.0 L 857.0,1439.0" style="stroke:#010101; fill:none;"/>
	<path d="M 2027.0,1449.0 L 2028.0,1450.0" style="stroke:#010101; fill:none;"/>
	<path d="M 2035.0,1454.0 L 2036.0,1455.0" style="stroke:#010101; fill:none;"/>
	<path d="M 807.0,1515.0 L 808.0,1515.0" style="stroke:#010101; fill:none;"/>
	<path d="M 801.0,1518.0 L 804.0,1517.0" style="stroke:#010101; fill:none;"/>
	<path d="M 848.0,1534.0 L 850.0,1534.0" style="stroke:#010101; fill:none;"/>
	<path d="M 852.0,1534.0 L 853.0,1534.0" style="stroke:#010101; fill:none;"/>
	<path d="M 836.0,1536.0 L 846.0,1535.0" style="stroke:#010101; fill:none;"/>
	<path d="M 833.0,1536.0 L 834.0,1536.0" style="stroke:#010101; fill:none;"/>
	<path d="M 829.0,1537.0 L 831.0,1537.0" style="stroke:#010101; fill:none;"/>
	<path d="M 1662.0,1585.0 C 1707.69,1575.57 1751.98,1556.99 1796.0,1542.0" style="stroke:#010101; fill:none;"/>
	<path d="M 1655.0,1587.0 L 1660.0,1586.0" style="stroke:#010101; fill:none;"/>
	<path d="M 837.0,1594.0 L 838.0,1594.0" style="stroke:#010101; fill:none;"/>
	<path d="M 833.0,1595.0 L 834.0,1595.0" style="stroke:#010101; fill:none;"/>
	<path d="M 810.0,1603.0 L 831.0,1596.0" style="stroke:#010101; fill:none;"/>
	<path d="M 1810.0,1609.0 L 1825.0,1603.0" style="stroke:#010101; fill:none;"/>
	<path d="M 807.0,1604.0 L 808.0,1604.0" style="stroke:#010101; fill:none;"/>
	<path d="M 1808.0,1610.0 L 1805.0,1611.0" style="stroke:#010101; fill:none;"/>
	<path d="M 782.0,1651.0 C 802.587,1638.98 827.756,1627.85 852.0,1629.0" style="stroke:#010101; fill:none;"/>
	<path d="M 1709.0,1647.0 L 1710.0,1647.0" style="stroke:#010101; fill:none;"/>
	<path d="M 1706.0,1648.0 L 1707.0,1648.0" style="stroke:#010101; fill:none;"/>
	<path d="M 1698.0,1651.0 L 1699.0,1651.0" style="stroke:#010101; fill:none;"/>
	<path d="M 1691.0,1653.0 L 1696.0,1652.0" style="stroke:#010101; fill:none;"/>
	<path d="M 1687.0,1655.0 L 1688.0,1655.0" style="stroke:#010101; fill:none;"/>
	<path d="M 1681.0,1657.0 L 1685.0,1656.0" style="stroke:#010101; fill:none;"/>
	<path d="M 1676.0,1659.0 L 1677.0,1659.0" style="stroke:#010101; fill:none;"/>
	<path d="M 1673.0,1660.0 L 1674.0,1660.0" style="stroke:#010101; fill:none;"/>
	<path d="M 1666.0,1663.0 L 1670.0,1662.0" style="stroke:#010101; fill:none;"/>
	<path d="M 1248.0,1663.0 L 1249.0,1663.0" style="stroke:#010101; fill:none;"/>
	<path d="M 1252.0,1663.0 L 1254.0,1663.0" style="stroke:#010101; fill:none;"/>
	<path d="M 1260.0,1663.0 L 1264.0,1663.0" style="stroke:#010101; fill:none;"/>
	<path d="M 1268.0,1664.0 L 1272.0,1664.0" style="stroke:#010101; fill:none;"/>
	<path d="M 1275.0,1665.0 L 1276.0,1665.0" style="stroke:#010101; fill:none;"/>
	<path d="M 1661.0,1665.0 L 1662.0,1665.0" style="stroke:#010101; fill:none;"/>
	<path d="M 1658.0,1666.0 L 1659.0,1666.0" style="stroke:#010101; fill:none;"/>
	<path d="M 1654.0,1668.0 L 1655.0,1668.0" style="stroke:#010101; fill:none;"/>
	<path d="M 1651.0,1669.0 L 1652.0,1669.0" style="stroke:#010101; fill:none;"/>
	<path d="M 1643.0,1672.0 L 1644.0,1672.0" style="stroke:#010101; fill:none;"/>
	<path d="M 1639.0,1673.0 L 1641.0,1673.0" style="stroke:#010101; fill:none;"/>
	<path d="M 2014.0,1692.0 L 2026.0,1691.0" style="stroke:#010101; fill:none;"/>
	<path d="M 778.0,1692.0 L 779.0,1692.0" style="stroke:#010101; fill:none;"/>
	<path d="M 2001.0,1692.0 L 2002.0,1692.0" style="stroke:#010101; fill:none;"/>
	<path d="M 2004.0,1692.0 L 2007.0,1692.0" style="stroke:#010101; fill:none;"/>
	<path d="M 2009.0,1692.0 L 2011.0,1692.0" style="stroke:#010101; fill:none;"/>
	<path d="M 1994.0,1693.0 L 1995.0,1693.0" style="stroke:#010101; fill:none;"/>
	<path d="M 2061.0,1697.0 L 2062.0,1697.0" style="stroke:#010101; fill:none;"/>
	<path d="M 2064.0,1697.0 L 2096.0,1699.0 L 2094.0,1697.0" style="stroke:#010101; fill:none;"/>
	<path d="M 2096.0,1699.0 L 2107.0,1700.0" style="stroke:#010101; fill:none;"/>
	<path d="M 1975.0,1704.0 L 1976.0,1704.0" style="stroke:#010101; fill:none;"/>
	<path d="M 2034.0,1704.0 L 2035.0,1704.0" style="stroke:#010101; fill:none;"/>
	<path d="M 2037.0,1704.0 C 2060.73,1709.67 2089.64,1710.0 2114.0,1710.0" style="stroke:#010101; fill:none;"/>
	<path d="M 1884.0,1743.0 C 1911.12,1728.54 1943.44,1713.45 1973.0,1705.0" style="stroke:#010101; fill:none;"/>
	<path d="M 2023.0,1709.0 L 2024.0,1709.0" style="stroke:#010101; fill:none;"/>
	<path d="M 2026.0,1709.0 L 2027.0,1709.0" style="stroke:#010101; fill:none;"/>
	<path d="M 2030.0,1710.0 L 2098.0,1712.0" style="stroke:#010101; fill:none;"/>
	<path d="M 2116.0,1710.0 L 2117.0,1710.0" style="stroke:#010101; fill:none;"/>
	<path d="M 2082.0,1712.0 L 2083.0,1712.0" style="stroke:#010101; fill:none;"/>
	<path d="M 1988.0,1714.0 L 2039.0,1719.0 L 2012.0,1728.0 L 1941.0,1747.0 L 1936.0,1743.0" style="stroke:#010101; fill:none;"/>
	<path d="M 2085.0,1714.0 L 2110.0,1715.0" style="stroke:#010101; fill:none;"/>
	<path d="M 1985.0,1715.0 L 1986.0,1715.0" style="stroke:#010101; fill:none;"/>
	<path d="M 1965.0,1723.0 L 1958.0,1727.0 L 1967.0,1725.0 C 1966.01,1719.94 1978.85,1717.59 1983.0,1716.0" style="stroke:#010101; fill:none;"/>
	<path d="M 1996.0,1716.0 L 1967.0,1725.0" style="stroke:#010101; fill:none;"/>
	<path d="M 2039.0,1719.0 L 2090.0,1720.0" style="stroke:#010101; fill:none;"/>
	<path d="M 2090.0,1724.0 L 2115.0,1723.0" style="stroke:#010101; fill:none;"/>
	<path d="M 1961.0,1724.0 L 1963.0,1726.0" style="stroke:#010101; fill:none;"/>
	<path d="M 2083.0,1724.0 L 2084.0,1724.0" style="stroke:#010101; fill:none;"/>
	<path d="M 2087.0,1724.0 L 2088.0,1724.0" style="stroke:#010101; fill:none;"/>
	<path d="M 1883.0,1749.0 L 1879.0,1752.0 L 1957.0,1728.0" style="stroke:#010101; fill:none;"/>
	<path d="M 2056.0,1728.0 L 2057.0,1728.0" style="stroke:#010101; fill:none;"/>
	<path d="M 1960.0,1781.0 C 1979.16,1778.3 1996.89,1767.8 2014.0,1759.25 C 2035.8,1748.35 2057.97,1738.35 2080.0,1728.0" style="stroke:#010101; fill:none;"/>
	<path d="M 1937.0,1744.0 C 1950.26,1735.84 1971.79,1732.52 1987.0,1729.0" style="stroke:#010101; fill:none;"/>
	<path d="M 2048.0,1729.0 L 2050.0,1729.0" style="stroke:#010101; fill:none;"/>
	<path d="M 2037.0,1731.0 L 2046.0,1730.0" style="stroke:#010101; fill:none;"/>
	<path d="M 2026.0,1733.0 L 2035.0,1732.0" style="stroke:#010101; fill:none;"/>
	<path d="M 2022.0,1734.0 L 2024.0,1734.0" style="stroke:#010101; fill:none;"/>
	<path d="M 2015.0,1735.0 L 2016.0,1735.0" style="stroke:#010101; fill:none;"/>
	<path d="M 2018.0,1735.0 L 2020.0,1735.0" style="stroke:#010101; fill:none;"/>
	<path d="M 2014.0,1767.0 C 2041.79,1763.25 2068.11,1746.84 2093.0,1735.0" style="stroke:#010101; fill:none;"/>
	<path d="M 2011.0,1736.0 L 2012.0,1736.0" style="stroke:#010101; fill:none;"/>
	<path d="M 2038.0,1747.0 C 2036.31,1740.68 2046.32,1738.45 2051.0,1736.0" style="stroke:#010101; fill:none;"/>
	<path d="M 2007.0,1737.0 L 2008.0,1737.0" style="stroke:#010101; fill:none;"/>
	<path d="M 2000.0,1738.0 L 2001.0,1738.0" style="stroke:#010101; fill:none;"/>
	<path d="M 1996.0,1739.0 L 1997.0,1739.0" style="stroke:#010101; fill:none;"/>
	<path d="M 1876.0,1803.0 L 1871.0,1805.0 C 1875.26,1805.86 1878.18,1803.4 1882.0,1801.54 C 1889.96,1797.65 1916.02,1788.71 1915.0,1779.0 L 1919.0,1782.0 L 2028.0,1739.0" style="stroke:#010101; fill:none;"/>
	<path d="M 1980.0,1751.0 L 1977.0,1752.0 L 2001.0,1742.0" style="stroke:#010101; fill:none;"/>
	<path d="M 1864.0,1766.0 C 1885.56,1755.88 1910.75,1749.33 1934.0,1744.0" style="stroke:#010101; fill:none;"/>
	<path d="M 1942.0,1744.0 L 1943.0,1744.0" style="stroke:#010101; fill:none;"/>
	<path d="M 2032.0,1750.0 C 2031.0,1746.26 2032.48,1745.25 2036.0,1744.0" style="stroke:#010101; fill:none;"/>
	<path d="M 2028.0,1752.0 L 2025.0,1749.0 L 2030.0,1747.0" style="stroke:#010101; fill:none;"/>
	<path d="M 1807.0,1824.0 C 1834.04,1800.94 1866.95,1784.93 1896.0,1764.65 C 1904.6,1758.64 1920.96,1746.55 1932.0,1753.0 L 1940.0,1748.0" style="stroke:#010101; fill:none;"/>
	<path d="M 2024.0,1754.0 L 2021.0,1751.0 L 2025.0,1749.0" style="stroke:#010101; fill:none;"/>
	<path d="M 1931.0,1750.0 L 1933.0,1750.0" style="stroke:#010101; fill:none;"/>
	<path d="M 1539.0,1751.0 L 1539.0,1752.0" style="stroke:#010101; fill:none;"/>
	<path d="M 1921.0,1791.0 L 2021.0,1751.0" style="stroke:#010101; fill:none;"/>
	<path d="M 1894.0,1752.0 L 1893.0,1753.0" style="stroke:#010101; fill:none;"/>
	<path d="M 1867.0,1759.0 L 1878.0,1753.0" style="stroke:#010101; fill:none;"/>
	<path d="M 1848.0,1807.0 L 1945.0,1753.0" style="stroke:#010101; fill:none;"/>
	<path d="M 1953.0,1770.0 L 1949.0,1766.0 L 1976.0,1753.0" style="stroke:#010101; fill:none;"/>
	<path d="M 1541.0,1754.0 L 1542.0,1756.0" style="stroke:#010101; fill:none;"/>
	<path d="M 1799.0,1834.0 L 1837.0,1809.58 L 1931.0,1753.0" style="stroke:#010101; fill:none;"/>
	<path d="M 1543.0,1758.0 L 1544.0,1759.0" style="stroke:#010101; fill:none;"/>
	<path d="M 1832.0,1783.0 C 1855.77,1778.76 1877.0,1760.14 1902.0,1759.0" style="stroke:#010101; fill:none;"/>
	<path d="M 1545.0,1761.0 C 1559.53,1782.35 1573.67,1802.19 1579.0,1828.0" style="stroke:#010101; fill:none;"/>
	<path d="M 1881.0,1761.0 L 1881.0,1763.0" style="stroke:#010101; fill:none;"/>
	<path d="M 1854.0,1763.0 L 1852.0,1764.0" style="stroke:#010101; fill:none;"/>
	<path d="M 1860.0,1764.0 L 1861.0,1764.0" style="stroke:#010101; fill:none;"/>
	<path d="M 1858.0,1766.0 L 1856.0,1767.0" style="stroke:#010101; fill:none;"/>
	<path d="M 1945.0,1768.0 L 1949.0,1766.0" style="stroke:#010101; fill:none;"/>
	<path d="M 1854.0,1769.0 L 1853.0,1770.0" style="stroke:#010101; fill:none;"/>
	<path d="M 1867.0,1772.0 C 1842.17,1788.89 1816.47,1807.97 1795.0,1829.0" style="stroke:#010101; fill:none;"/>
	<path d="M 1839.0,1774.0 L 1838.0,1775.0" style="stroke:#010101; fill:none;"/>
	<path d="M 1917.0,1779.0 L 1924.0,1779.0" style="stroke:#010101; fill:none;"/>
	<path d="M 1821.0,1780.0 L 1820.0,1781.0" style="stroke:#010101; fill:none;"/>
	<path d="M 1856.0,1807.0 L 1914.0,1780.0" style="stroke:#010101; fill:none;"/>
	<path d="M 1783.0,1798.0 C 1792.2,1797.07 1801.2,1785.86 1809.0,1781.0" style="stroke:#010101; fill:none;"/>
	<path d="M 1817.0,1783.0 L 1816.0,1784.0" style="stroke:#010101; fill:none;"/>
	<path d="M 1829.0,1785.0 L 1828.0,1786.0" style="stroke:#010101; fill:none;"/>
	<path d="M 1814.0,1786.0 L 1813.0,1787.0" style="stroke:#010101; fill:none;"/>
	<path d="M 1822.0,1788.0 L 1821.0,1789.0" style="stroke:#010101; fill:none;"/>
	<path d="M 1806.0,1793.0 L 1811.0,1789.0" style="stroke:#010101; fill:none;"/>
	<path d="M 1783.0,1790.0 L 1782.0,1791.0" style="stroke:#010101; fill:none;"/>
	<path d="M 2131.0,1790.0 L 2132.0,1796.0" style="stroke:#010101; fill:none;"/>
	<path d="M 1818.0,1791.0 L 1817.0,1792.0" style="stroke:#010101; fill:none;"/>
	<path d="M 1918.0,1792.0 L 1919.0,1792.0" style="stroke:#010101; fill:none;"/>
	<path d="M 1779.0,1793.0 C 1749.88,1816.11 1725.21,1841.79 1699.0,1868.0" style="stroke:#010101; fill:none;"/>
	<path d="M 1909.0,1795.0 L 1915.0,1793.0" style="stroke:#010101; fill:none;"/>
	<path d="M 1804.0,1794.0 L 1752.0,1839.0" style="stroke:#010101; fill:none;"/>
	<path d="M 1781.0,1800.0 L 1781.0,1802.0 L 1781.0,1800.0" style="stroke:#010101; fill:none;"/>
	<path d="M 1785.0,1800.0 L 1782.0,1801.0" style="stroke:#010101; fill:none;"/>
	<path d="M 1777.0,1805.0 L 1775.0,1805.0 L 1781.0,1803.0" style="stroke:#010101; fill:none;"/>
	<path d="M 1780.0,1804.0 L 1778.0,1806.0" style="stroke:#010101; fill:none;"/>
	<path d="M 1859.0,1811.0 L 1871.0,1805.0" style="stroke:#010101; fill:none;"/>
	<path d="M 1770.0,1809.0 L 1774.0,1806.0" style="stroke:#010101; fill:none;"/>
	<path d="M 1775.0,1808.0 L 1754.0,1825.0" style="stroke:#010101; fill:none;"/>
	<path d="M 1863.0,1812.0 L 1872.0,1807.0" style="stroke:#010101; fill:none;"/>
	<path d="M 1317.0,1809.0 C 1342.44,1821.05 1368.64,1834.07 1389.0,1854.0" style="stroke:#010101; fill:none;"/>
	<path d="M 1767.0,1811.0 L 1762.0,1815.0" style="stroke:#010101; fill:none;"/>
	<path d="M 1357.0,1816.0 C 1381.46,1832.5 1401.74,1850.97 1419.0,1875.0" style="stroke:#010101; fill:none;"/>
	<path d="M 1675.0,1817.0 L 1673.0,1819.0" style="stroke:#010101; fill:none;"/>
	<path d="M 1760.0,1817.0 L 1754.0,1823.0" style="stroke:#010101; fill:none;"/>
	<path d="M 1909.0,1833.0 L 1921.0,1834.0 C 1910.56,1826.49 1897.65,1840.89 1887.0,1832.0 C 1895.06,1828.06 1904.41,1828.34 1913.0,1826.25 C 1940.62,1819.54 1980.29,1809.62 2008.0,1820.0" style="stroke:#010101; fill:none;"/>
	<path d="M 1311.0,1820.0 C 1335.16,1828.17 1362.61,1840.22 1382.0,1857.0" style="stroke:#010101; fill:none;"/>
	<path d="M 1385.0,1821.0 C 1404.79,1836.08 1422.27,1856.79 1435.19,1878.0 C 1439.47,1885.03 1441.63,1893.06 1446.0,1900.0" style="stroke:#010101; fill:none;"/>
	<path d="M 1672.0,1821.0 C 1658.76,1836.17 1639.69,1855.25 1634.0,1875.0" style="stroke:#010101; fill:none;"/>
	<path d="M 1299.0,1823.0 L 1373.0,1859.0" style="stroke:#010101; fill:none;"/>
	<path d="M 1746.0,1832.0 L 1742.0,1837.0 C 1742.96,1831.39 1748.48,1827.19 1753.0,1824.0" style="stroke:#010101; fill:none;"/>
	<path d="M 1754.0,1826.0 L 1747.0,1833.0" style="stroke:#010101; fill:none;"/>
	<path d="M 1413.0,1828.0 L 1448.0,1882.0" style="stroke:#010101; fill:none;"/>
	<path d="M 1747.0,1829.0 L 1749.0,1831.0" style="stroke:#010101; fill:none;"/>
	<path d="M 1772.0,1829.0 L 1773.0,1829.0" style="stroke:#010101; fill:none;"/>
	<path d="M 1580.0,1830.0 L 1580.0,1832.0" style="stroke:#010101; fill:none;"/>
	<path d="M 1843.0,1846.0 L 1838.0,1843.0 C 1852.19,1844.66 1873.35,1838.97 1886.0,1831.0" style="stroke:#010101; fill:none;"/>
	<path d="M 1142.0,1833.0 L 1144.0,1833.0" style="stroke:#010101; fill:none;"/>
	<path d="M 1928.0,1834.0 L 1938.0,1834.0 L 1932.0,1842.0 C 1928.56,1837.87 1926.69,1834.43 1921.0,1834.0" style="stroke:#010101; fill:none;"/>
	<path d="M 1965.0,1838.0 L 1952.0,1842.0 C 1949.59,1835.65 1955.43,1833.18 1961.0,1833.0" style="stroke:#010101; fill:none;"/>
	<path d="M 1135.0,1834.0 L 1140.0,1834.0" style="stroke:#010101; fill:none;"/>
	<path d="M 1581.0,1834.0 L 1581.0,1836.0" style="stroke:#010101; fill:none;"/>
	<path d="M 1938.0,1834.0 L 1950.0,1838.0" style="stroke:#010101; fill:none;"/>
	<path d="M 1104.0,1849.0 L 1071.0,1858.0 C 1073.94,1852.52 1081.46,1850.95 1087.0,1848.81 C 1101.8,1843.1 1117.46,1838.21 1133.0,1835.0" style="stroke:#010101; fill:none;"/>
	<path d="M 1765.0,1835.0 L 1766.0,1835.0" style="stroke:#010101; fill:none;"/>
	<path d="M 1774.0,1835.0 L 1773.0,1836.0" style="stroke:#010101; fill:none;"/>
	<path d="M 1901.0,1835.0 C 1895.86,1841.99 1903.59,1846.85 1907.12,1853.0 C 1911.2,1860.12 1912.52,1869.19 1909.53,1877.0 C 1906.44,1885.09 1900.58,1890.55 1895.16,1897.0 C 1893.26,1899.25 1892.39,1902.86 1889.77,1904.35 C 1877.75,1911.18 1855.65,1911.12 1842.0,1913.41 C 1834.79,1914.63 1819.93,1920.59 1813.29,1917.09 C 1805.35,1912.92 1797.88,1907.0 1793.63,1899.0 C 1790.62,1893.33 1790.37,1883.49 1784.0,1881.0 L 1788.0,1875.0 L 1778.0,1883.0 L 1780.0,1888.0 L 1785.0,1883.0" style="stroke:#010101; fill:none;"/>
	<path d="M 1428.0,1836.0 C 1439.49,1849.2 1455.42,1870.99 1457.0,1889.0" style="stroke:#010101; fill:none;"/>
	<path d="M 1741.0,1836.0 L 1722.0,1856.0" style="stroke:#010101; fill:none;"/>
	<path d="M 1883.0,1836.0 L 1889.0,1836.0" style="stroke:#010101; fill:none;"/>
	<path d="M 1894.0,1836.0 L 1897.0,1839.0" style="stroke:#010101; fill:none;"/>
	<path d="M 1763.0,1837.0 L 1762.0,1838.0" style="stroke:#010101; fill:none;"/>
	<path d="M 1943.0,1837.0 C 1939.69,1840.19 1937.57,1842.73 1933.0,1841.0" style="stroke:#010101; fill:none;"/>
	<path d="M 1153.0,1850.0 L 1257.0,1838.0" style="stroke:#010101; fill:none;"/>
	<path d="M 1259.0,1838.0 L 1261.0,1838.0" style="stroke:#010101; fill:none;"/>
	<path d="M 1263.0,1838.0 L 1265.0,1838.0" style="stroke:#010101; fill:none;"/>
	<path d="M 1267.0,1838.0 L 1268.0,1838.0" style="stroke:#010101; fill:none;"/>
	<path d="M 1271.0,1838.0 L 1272.0,1838.0" style="stroke:#010101; fill:none;"/>
	<path d="M 1178.0,1840.0 L 1180.0,1840.0" style="stroke:#010101; fill:none;"/>
	<path d="M 1182.0,1840.0 L 1183.0,1840.0" style="stroke:#010101; fill:none;"/>
	<path d="M 1962.0,1840.0 L 1959.0,1845.0 C 1967.37,1851.02 1977.93,1845.23 1987.0,1843.0" style="stroke:#010101; fill:none;"/>
	<path d="M 1963.0,1841.0 L 1977.0,1840.0" style="stroke:#010101; fill:none;"/>
	<path d="M 1142.0,1846.0 L 1142.0,1848.0 C 1150.17,1842.1 1166.03,1841.21 1176.0,1841.0" style="stroke:#010101; fill:none;"/>
	<path d="M 1271.0,1841.0 L 1272.0,1841.0" style="stroke:#010101; fill:none;"/>
	<path d="M 1275.0,1841.0 L 1276.0,1841.0" style="stroke:#010101; fill:none;"/>
	<path d="M 1279.0,1841.0 L 1280.0,1841.0" style="stroke:#010101; fill:none;"/>
	<path d="M 1582.0,1841.0 L 1582.0,1843.0" style="stroke:#010101; fill:none;"/>
	<path d="M 1758.0,1841.0 L 1759.0,1841.0" style="stroke:#010101; fill:none;"/>
	<path d="M 1260.0,1842.0 L 1261.0,1842.0" style="stroke:#010101; fill:none;"/>
	<path d="M 1264.0,1842.0 L 1265.0,1842.0" style="stroke:#010101; fill:none;"/>
	<path d="M 1314.0,1842.0 L 1319.0,1842.0" style="stroke:#010101; fill:none;"/>
	<path d="M 1953.0,1842.0 L 1959.0,1845.0" style="stroke:#010101; fill:none;"/>
	<path d="M 1248.0,1843.0 L 1250.0,1843.0" style="stroke:#010101; fill:none;"/>
	<path d="M 1252.0,1843.0 L 1253.0,1843.0" style="stroke:#010101; fill:none;"/>
	<path d="M 1298.0,1843.0 L 1300.0,1843.0" style="stroke:#010101; fill:none;"/>
	<path d="M 1303.0,1843.0 L 1304.0,1843.0" style="stroke:#010101; fill:none;"/>
	<path d="M 1756.0,1843.0 L 1755.0,1844.0" style="stroke:#010101; fill:none;"/>
	<path d="M 1237.0,1844.0 L 1238.0,1844.0" style="stroke:#010101; fill:none;"/>
	<path d="M 1240.0,1844.0 L 1242.0,1844.0" style="stroke:#010101; fill:none;"/>
	<path d="M 1245.0,1844.0 L 1246.0,1844.0" style="stroke:#010101; fill:none;"/>
	<path d="M 1200.0,1862.0 L 1196.0,1864.0 L 1205.0,1862.8 L 1229.0,1856.55 L 1296.0,1844.0" style="stroke:#010101; fill:none;"/>
	<path d="M 1829.0,1852.0 L 1827.0,1848.0 C 1831.45,1844.89 1833.98,1843.94 1838.0,1848.0 L 1830.0,1853.0 C 1832.96,1859.45 1826.14,1863.63 1823.11,1869.0 C 1818.84,1876.56 1822.53,1887.18 1829.17,1892.35 C 1849.03,1907.81 1883.46,1883.58 1868.18,1860.0 C 1867.29,1858.63 1866.21,1857.27 1864.95,1856.23 C 1852.88,1846.32 1855.02,1860.88 1850.49,1866.96 C 1846.84,1871.85 1838.94,1874.95 1834.76,1868.87 C 1832.81,1866.03 1833.43,1862.12 1832.0,1859.0" style="stroke:#010101; fill:none;"/>
	<path d="M 1229.0,1845.0 L 1231.0,1845.0" style="stroke:#010101; fill:none;"/>
	<path d="M 1233.0,1845.0 L 1235.0,1845.0" style="stroke:#010101; fill:none;"/>
	<path d="M 1221.0,1846.0 L 1223.0,1846.0" style="stroke:#010101; fill:none;"/>
	<path d="M 1226.0,1846.0 L 1227.0,1846.0" style="stroke:#010101; fill:none;"/>
	<path d="M 2045.0,1846.0 L 2029.0,1861.0" style="stroke:#010101; fill:none;"/>
	<path d="M 1018.0,1886.0 C 1031.58,1882.78 1043.9,1874.47 1057.0,1869.7 C 1084.37,1859.72 1111.38,1852.33 1140.0,1847.0" style="stroke:#010101; fill:none;"/>
	<path d="M 1144.0,1847.0 L 1149.0,1847.0" style="stroke:#010101; fill:none;"/>
	<path d="M 1152.0,1847.0 L 1153.0,1847.0" style="stroke:#010101; fill:none;"/>
	<path d="M 1156.0,1847.0 L 1157.0,1847.0" style="stroke:#010101; fill:none;"/>
	<path d="M 1214.0,1847.0 L 1216.0,1847.0" style="stroke:#010101; fill:none;"/>
	<path d="M 1972.0,1848.0 L 1997.0,1853.26 L 2008.0,1856.49 L 2035.0,1847.0" style="stroke:#010101; fill:none;"/>
	<path d="M 1106.0,1848.0 L 1107.0,1848.0" style="stroke:#010101; fill:none;"/>
	<path d="M 1206.0,1848.0 L 1208.0,1848.0" style="stroke:#010101; fill:none;"/>
	<path d="M 1316.0,1848.0 L 1331.0,1849.0" style="stroke:#010101; fill:none;"/>
	<path d="M 1788.0,1882.0 L 1798.0,1869.0 L 1795.0,1864.0 C 1798.19,1862.91 1799.29,1863.05 1801.0,1866.0 L 1827.0,1848.0" style="stroke:#010101; fill:none;"/>
	<path d="M 1199.0,1849.0 L 1200.0,1849.0" style="stroke:#010101; fill:none;"/>
	<path d="M 1303.0,1849.0 L 1304.0,1849.0" style="stroke:#010101; fill:none;"/>
	<path d="M 1307.0,1849.0 L 1308.0,1849.0" style="stroke:#010101; fill:none;"/>
	<path d="M 1311.0,1849.0 L 1313.0,1849.0" style="stroke:#010101; fill:none;"/>
	<path d="M 1583.0,1849.0 L 1583.0,1850.0" style="stroke:#010101; fill:none;"/>
	<path d="M 2008.0,1853.0 L 2003.0,1852.0 L 2018.0,1849.0" style="stroke:#010101; fill:none;"/>
	<path d="M 1183.0,1875.0 C 1222.83,1869.86 1259.98,1850.0 1301.0,1850.0" style="stroke:#010101; fill:none;"/>
	<path d="M 1149.0,1851.0 L 1151.0,1851.0" style="stroke:#010101; fill:none;"/>
	<path d="M 1145.0,1852.0 L 1147.0,1852.0" style="stroke:#010101; fill:none;"/>
	<path d="M 1331.0,1852.0 C 1368.95,1860.78 1408.67,1888.48 1435.0,1916.0" style="stroke:#010101; fill:none;"/>
	<path d="M 2000.0,1853.0 L 2003.0,1852.0" style="stroke:#010101; fill:none;"/>
	<path d="M 1823.0,1854.0 L 1828.0,1853.0" style="stroke:#010101; fill:none;"/>
	<path d="M 1176.0,1854.0 L 1177.0,1854.0" style="stroke:#010101; fill:none;"/>
	<path d="M 1168.0,1855.0 L 1170.0,1855.0" style="stroke:#010101; fill:none;"/>
	<path d="M 1391.0,1855.0 L 1392.0,1857.0" style="stroke:#010101; fill:none;"/>
	<path d="M 1810.0,1860.0 L 1809.0,1857.0 L 1815.0,1855.0" style="stroke:#010101; fill:none;"/>
	<path d="M 2043.0,1855.0 L 2031.0,1861.0" style="stroke:#010101; fill:none;"/>
	<path d="M 999.0,1886.0 L 1018.0,1877.2 L 1071.0,1856.0" style="stroke:#010101; fill:none;"/>
	<path d="M 1057.0,1883.0 C 1092.65,1872.88 1128.18,1856.78 1166.0,1856.0" style="stroke:#010101; fill:none;"/>
	<path d="M 1312.0,1857.0 L 1357.0,1874.28 L 1371.0,1883.65 L 1417.0,1907.0" style="stroke:#010101; fill:none;"/>
	<path d="M 1808.0,1857.0 L 1806.0,1862.0" style="stroke:#010101; fill:none;"/>
	<path d="M 2011.0,1857.0 L 2012.0,1857.0" style="stroke:#010101; fill:none;"/>
	<path d="M 1192.0,1858.0 L 1193.0,1858.0" style="stroke:#010101; fill:none;"/>
	<path d="M 1196.0,1858.0 L 1197.0,1858.0" style="stroke:#010101; fill:none;"/>
	<path d="M 1069.0,1859.0 L 1070.0,1859.0" style="stroke:#010101; fill:none;"/>
	<path d="M 1080.0,1887.0 C 1116.21,1879.51 1151.37,1859.78 1189.0,1859.0" style="stroke:#010101; fill:none;"/>
	<path d="M 1800.0,1863.0 L 1806.0,1859.0" style="stroke:#010101; fill:none;"/>
	<path d="M 2014.0,1864.0 C 2006.43,1864.36 1987.54,1867.08 1983.0,1860.0 L 1986.0,1859.0" style="stroke:#010101; fill:none;"/>
	<path d="M 1204.0,1863.0 L 1206.0,1860.0" style="stroke:#010101; fill:none;"/>
	<path d="M 1893.0,1903.0 C 1925.74,1897.16 1948.81,1862.99 1983.0,1860.0" style="stroke:#010101; fill:none;"/>
	<path d="M 2143.0,1860.0 L 2143.0,1861.0" style="stroke:#010101; fill:none;"/>
	<path d="M 1201.0,1861.0 L 1204.0,1861.0" style="stroke:#010101; fill:none;"/>
	<path d="M 1449.0,1861.0 C 1456.16,1870.05 1462.46,1882.26 1463.0,1894.0" style="stroke:#010101; fill:none;"/>
	<path d="M 1193.0,1881.0 C 1178.09,1886.83 1159.86,1883.84 1144.0,1883.63 C 1135.39,1883.51 1126.46,1885.1 1118.0,1883.0 C 1137.07,1871.99 1164.26,1871.61 1185.0,1867.58 C 1188.94,1866.81 1192.06,1863.93 1196.0,1863.0" style="stroke:#010101; fill:none;"/>
	<path d="M 2025.0,1863.0 L 2024.0,1864.0" style="stroke:#010101; fill:none;"/>
	<path d="M 1192.0,1864.0 L 1196.0,1864.0" style="stroke:#010101; fill:none;"/>
	<path d="M 1677.0,1973.0 C 1672.66,1967.3 1663.17,1952.37 1664.0,1945.0 C 1665.07,1935.62 1679.12,1924.95 1684.67,1917.83 C 1701.4,1896.37 1720.57,1890.88 1745.0,1881.95 C 1761.52,1875.91 1778.11,1868.82 1795.0,1864.0" style="stroke:#010101; fill:none;"/>
	<path d="M 1181.0,1866.0 L 1188.0,1865.0" style="stroke:#010101; fill:none;"/>
	<path d="M 2020.0,1865.0 L 2022.0,1865.0" style="stroke:#010101; fill:none;"/>
	<path d="M 1333.0,1876.0 C 1334.58,1873.91 1335.11,1874.27 1337.0,1876.0 C 1326.03,1879.07 1310.95,1873.33 1300.0,1871.44 C 1293.71,1870.36 1286.79,1870.81 1281.0,1868.0 L 1322.0,1866.0" style="stroke:#010101; fill:none;"/>
	<path d="M 1329.0,1867.0 L 1330.0,1867.0" style="stroke:#010101; fill:none;"/>
	<path d="M 1800.0,1867.0 L 1799.0,1869.0" style="stroke:#010101; fill:none;"/>
	<path d="M 1195.0,1880.0 C 1224.0,1874.0 1251.23,1868.02 1281.0,1868.0" style="stroke:#010101; fill:none;"/>
	<path d="M 1178.0,1869.0 L 1180.0,1869.0" style="stroke:#010101; fill:none;"/>
	<path d="M 1311.0,1869.0 L 1333.0,1872.0" style="stroke:#010101; fill:none;"/>
	<path d="M 1174.0,1870.0 L 1176.0,1870.0" style="stroke:#010101; fill:none;"/>
	<path d="M 1171.0,1871.0 L 1172.0,1871.0" style="stroke:#010101; fill:none;"/>
	<path d="M 1306.0,1874.0 C 1297.39,1878.59 1281.76,1876.98 1272.0,1877.0 C 1250.84,1877.03 1219.83,1876.73 1201.0,1887.0" style="stroke:#010101; fill:none;"/>
	<path d="M 1789.0,1874.0 L 1792.0,1874.0" style="stroke:#010101; fill:none;"/>
	<path d="M 1180.0,1876.0 L 1181.0,1876.0" style="stroke:#010101; fill:none;"/>
	<path d="M 1337.0,1876.0 C 1344.09,1877.46 1354.96,1883.18 1361.0,1878.0" style="stroke:#010101; fill:none;"/>
	<path d="M 1784.0,1877.0 L 1787.0,1880.0" style="stroke:#010101; fill:none;"/>
	<path d="M 1788.0,1878.0 L 1790.0,1880.0" style="stroke:#010101; fill:none;"/>
	<path d="M 1766.0,1879.0 L 1774.0,1894.0 C 1776.44,1891.47 1781.15,1887.63 1777.0,1885.0" style="stroke:#010101; fill:none;"/>
	<path d="M 1778.0,1879.0 L 1782.0,1880.0" style="stroke:#010101; fill:none;"/>
	<path d="M 1967.0,1879.0 L 1969.0,1881.0" style="stroke:#010101; fill:none;"/>
	<path d="M 1005.0,1882.0 L 1008.0,1880.0" style="stroke:#010101; fill:none;"/>
	<path d="M 919.0,1919.0 L 978.0,1891.69 L 1005.0,1882.0" style="stroke:#010101; fill:none;"/>
	<path d="M 1360.0,1882.0 L 1365.0,1882.0" style="stroke:#010101; fill:none;"/>
	<path d="M 2144.0,1882.0 L 2141.0,1886.0" style="stroke:#010101; fill:none;"/>
	<path d="M 1103.0,1885.0 L 1118.0,1883.0" style="stroke:#010101; fill:none;"/>
	<path d="M 1240.0,1884.0 L 1238.0,1886.0 C 1253.7,1881.68 1269.73,1882.8 1286.0,1883.91 C 1315.39,1885.92 1343.89,1890.58 1373.0,1896.0" style="stroke:#010101; fill:none;"/>
	<path d="M 1962.0,1883.0 L 1965.0,1886.0" style="stroke:#010101; fill:none;"/>
	<path d="M 1068.0,1884.0 L 1069.0,1884.0" style="stroke:#010101; fill:none;"/>
	<path d="M 1072.0,1884.0 L 1073.0,1884.0" style="stroke:#010101; fill:none;"/>
	<path d="M 1190.0,1884.0 L 1201.0,1885.0" style="stroke:#010101; fill:none;"/>
	<path d="M 1319.0,1884.0 L 1359.0,1888.0" style="stroke:#010101; fill:none;"/>
	<path d="M 1060.0,1885.0 L 1063.0,1885.0" style="stroke:#010101; fill:none;"/>
	<path d="M 1065.0,1885.0 L 1066.0,1885.0" style="stroke:#010101; fill:none;"/>
	<path d="M 1210.0,1885.0 L 1237.0,1885.0" style="stroke:#010101; fill:none;"/>
	<path d="M 1771.0,1890.0 L 1777.0,1885.0" style="stroke:#010101; fill:none;"/>
	<path d="M 1952.0,1885.0 L 1966.0,1894.0" style="stroke:#010101; fill:none;"/>
	<path d="M 954.0,1906.0 L 1057.0,1886.0" style="stroke:#010101; fill:none;"/>
	<path d="M 1099.0,1886.0 L 1101.0,1886.0" style="stroke:#010101; fill:none;"/>
	<path d="M 1096.0,1887.0 L 1097.0,1887.0" style="stroke:#010101; fill:none;"/>
	<path d="M 1242.0,1887.0 L 1267.0,1889.31 L 1277.0,1890.0" style="stroke:#010101; fill:none;"/>
	<path d="M 1076.0,1888.0 L 1078.0,1888.0" style="stroke:#010101; fill:none;"/>
	<path d="M 1092.0,1888.0 L 1093.0,1888.0" style="stroke:#010101; fill:none;"/>
	<path d="M 1774.0,1888.0 L 1777.0,1891.0" style="stroke:#010101; fill:none;"/>
	<path d="M 2140.0,1888.0 L 2139.0,1891.0" style="stroke:#010101; fill:none;"/>
	<path d="M 1073.0,1889.0 L 1074.0,1889.0" style="stroke:#010101; fill:none;"/>
	<path d="M 1747.0,1890.0 L 1747.0,1891.0" style="stroke:#010101; fill:none;"/>
	<path d="M 1769.0,1890.0 L 1762.0,1897.0" style="stroke:#010101; fill:none;"/>
	<path d="M 1276.0,1891.0 L 1257.0,1892.06 L 1224.0,1892.0" style="stroke:#010101; fill:none;"/>
	<path d="M 1589.0,1891.0 L 1589.0,1892.0" style="stroke:#010101; fill:none;"/>
	<path d="M 1773.0,1891.0 L 1773.0,1893.0" style="stroke:#010101; fill:none;"/>
	<path d="M 1241.0,1896.0 C 1201.97,1896.0 1162.85,1892.43 1124.0,1895.09 C 1112.73,1895.86 1101.23,1895.1 1090.0,1896.17 C 1073.68,1897.72 1057.23,1901.17 1041.0,1897.0 C 1050.02,1890.77 1067.31,1893.98 1078.0,1892.0" style="stroke:#010101; fill:none;"/>
	<path d="M 1080.0,1892.0 L 1082.0,1892.0" style="stroke:#010101; fill:none;"/>
	<path d="M 1085.0,1892.0 L 1086.0,1892.0" style="stroke:#010101; fill:none;"/>
	<path d="M 1220.0,1892.0 L 1221.0,1892.0" style="stroke:#010101; fill:none;"/>
	<path d="M 1770.0,1892.0 L 1770.0,1896.0 L 1774.0,1894.0" style="stroke:#010101; fill:none;"/>
	<path d="M 1748.0,1893.0 C 1749.56,1900.47 1751.94,1909.14 1759.0,1913.0 L 1770.0,1896.0" style="stroke:#010101; fill:none;"/>
	<path d="M 1944.0,1893.0 L 1947.0,1894.0" style="stroke:#010101; fill:none;"/>
	<path d="M 1278.0,1894.0 L 1349.0,1902.0" style="stroke:#010101; fill:none;"/>
	<path d="M 1154.0,1895.0 C 1156.92,1899.5 1166.89,1898.71 1172.0,1898.96 C 1186.36,1899.66 1204.26,1898.94 1218.0,1903.0" style="stroke:#010101; fill:none;"/>
	<path d="M 1735.0,1895.0 C 1736.82,1902.85 1739.44,1921.23 1747.0,1925.0" style="stroke:#010101; fill:none;"/>
	<path d="M 975.0,1905.0 L 1041.0,1896.0" style="stroke:#010101; fill:none;"/>
	<path d="M 1150.0,1896.0 L 1153.0,1898.0" style="stroke:#010101; fill:none;"/>
	<path d="M 1248.0,1897.0 L 1249.0,1897.0" style="stroke:#010101; fill:none;"/>
	<path d="M 1589.0,1898.0 L 1589.0,1900.0" style="stroke:#010101; fill:none;"/>
	<path d="M 1719.0,1898.0 C 1725.94,1911.03 1726.65,1933.24 1738.0,1943.0" style="stroke:#010101; fill:none;"/>
	<path d="M 1938.0,1898.0 L 1939.0,1899.0" style="stroke:#010101; fill:none;"/>
	<path d="M 1074.0,1900.0 L 1110.0,1904.86 L 1146.0,1906.76 L 1193.0,1912.0" style="stroke:#010101; fill:none;"/>
	<path d="M 1712.0,1901.0 C 1715.25,1915.02 1720.76,1942.78 1731.0,1953.0" style="stroke:#010101; fill:none;"/>
	<path d="M 1589.0,1902.0 L 1589.0,1903.0" style="stroke:#010101; fill:none;"/>
	<path d="M 1221.0,1903.0 L 1222.0,1903.0" style="stroke:#010101; fill:none;"/>
	<path d="M 1925.0,1903.0 L 1934.0,1908.0" style="stroke:#010101; fill:none;"/>
	<path d="M 997.0,1904.0 C 1022.64,1905.98 1049.22,1904.96 1075.0,1905.0 C 1084.74,1905.02 1097.02,1908.79 1106.0,1904.0" style="stroke:#010101; fill:none;"/>
	<path d="M 971.0,1905.0 L 972.0,1905.0" style="stroke:#010101; fill:none;"/>
	<path d="M 1767.0,1905.0 L 1766.0,1909.0 L 1763.0,1906.0" style="stroke:#010101; fill:none;"/>
	<path d="M 1766.0,1909.0 C 1762.75,1927.71 1789.73,1915.61 1799.0,1921.0 C 1779.21,1931.97 1752.72,1929.53 1740.0,1953.0" style="stroke:#010101; fill:none;"/>
	<path d="M 1702.0,1911.0 L 1702.0,1912.0" style="stroke:#010101; fill:none;"/>
	<path d="M 1195.0,1912.0 L 1196.0,1912.0" style="stroke:#010101; fill:none;"/>
	<path d="M 1758.0,1913.0 L 1742.0,1947.0" style="stroke:#010101; fill:none;"/>
	<path d="M 976.0,1914.0 L 976.0,1915.0" style="stroke:#010101; fill:none;"/>
	<path d="M 979.0,1914.0 L 981.0,1914.0" style="stroke:#010101; fill:none;"/>
	<path d="M 1904.0,1914.0 L 1906.0,1914.0" style="stroke:#010101; fill:none;"/>
	<path d="M 919.0,1928.0 L 974.0,1915.0" style="stroke:#010101; fill:none;"/>
	<path d="M 1703.0,1915.0 L 1718.0,1948.0" style="stroke:#010101; fill:none;"/>
	<path d="M 1812.0,1918.0 L 1799.0,1921.0" style="stroke:#010101; fill:none;"/>
	<path d="M 1967.0,1918.0 L 1965.0,1919.0" style="stroke:#010101; fill:none;"/>
	<path d="M 1684.0,1920.0 L 1700.0,1948.0" style="stroke:#010101; fill:none;"/>
	<path d="M 1695.0,1920.0 L 1695.0,1921.0" style="stroke:#010101; fill:none;"/>
	<path d="M 1454.0,1921.0 L 1497.0,1980.0" style="stroke:#010101; fill:none;"/>
	<path d="M 1919.0,1942.0 C 1935.32,1936.48 1949.42,1930.08 1964.0,1921.0" style="stroke:#010101; fill:none;"/>
	<path d="M 1696.0,1923.0 L 1706.0,1941.0" style="stroke:#010101; fill:none;"/>
	<path d="M 1833.0,1926.0 L 1832.0,1932.0" style="stroke:#010101; fill:none;"/>
	<path d="M 1823.0,1928.0 L 1823.0,1930.0" style="stroke:#010101; fill:none;"/>
	<path d="M 916.0,1929.0 L 917.0,1929.0" style="stroke:#010101; fill:none;"/>
	<path d="M 1673.0,1933.0 L 1681.0,1946.0" style="stroke:#010101; fill:none;"/>
	<path d="M 1811.0,1933.0 L 1810.0,1934.0" style="stroke:#010101; fill:none;"/>
	<path d="M 1794.0,1939.0 L 1803.0,1934.0" style="stroke:#010101; fill:none;"/>
	<path d="M 1163.0,1974.0 C 1157.53,1971.24 1154.58,1974.39 1159.0,1979.0 C 1162.51,1975.01 1166.33,1969.87 1171.17,1967.43 C 1182.52,1961.7 1196.81,1965.51 1208.0,1961.4 C 1212.68,1959.68 1215.38,1954.83 1220.0,1952.85 C 1231.48,1947.95 1244.94,1946.68 1257.0,1943.63 C 1270.54,1940.2 1284.81,1934.12 1299.0,1935.09 C 1319.09,1936.46 1335.59,1948.34 1355.0,1952.0" style="stroke:#010101; fill:none;"/>
	<path d="M 1484.0,1936.0 C 1492.09,1948.22 1506.23,1966.4 1504.88,1982.0 C 1504.28,1988.87 1489.59,2001.18 1482.46,1997.14 C 1473.78,1992.21 1467.84,1977.29 1463.0,1969.0" style="stroke:#010101; fill:none;"/>
	<path d="M 1665.0,1942.0 L 1678.0,1962.0" style="stroke:#010101; fill:none;"/>
	<path d="M 1467.0,1945.0 L 1468.0,1947.0" style="stroke:#010101; fill:none;"/>
	<path d="M 1663.0,1947.0 C 1658.67,1953.85 1669.49,1970.26 1673.25,1977.0 C 1674.47,1979.19 1678.01,1987.1 1680.0,1983.0" style="stroke:#010101; fill:none;"/>
	<path d="M 1469.0,1949.0 L 1492.0,1983.0" style="stroke:#010101; fill:none;"/>
	<path d="M 1655.0,1953.0 L 1661.0,1949.0" style="stroke:#010101; fill:none;"/>
	<path d="M 1865.0,1951.0 L 1871.0,1951.0" style="stroke:#010101; fill:none;"/>
	<path d="M 1657.0,1952.0 C 1660.39,1957.37 1657.43,1962.08 1657.26,1968.0 C 1657.06,1975.02 1658.5,1983.03 1659.42,1990.0 C 1664.07,2024.95 1666.18,2068.8 1684.0,2100.0 C 1690.69,2098.16 1698.43,2111.31 1702.42,2116.0 C 1718.43,2134.79 1735.14,2153.29 1750.0,2173.0" style="stroke:#010101; fill:none;"/>
	<path d="M 1813.0,1954.0 L 1863.0,1952.0" style="stroke:#010101; fill:none;"/>
	<path d="M 1199.0,1961.0 C 1198.97,1951.59 1207.48,1953.34 1213.0,1958.0" style="stroke:#010101; fill:none;"/>
	<path d="M 1169.0,1966.0 C 1171.63,1952.41 1186.4,1955.83 1197.0,1955.0" style="stroke:#010101; fill:none;"/>
	<path d="M 1214.0,1957.0 C 1225.83,1967.01 1252.16,1957.93 1266.0,1957.31 C 1286.19,1956.41 1309.33,1965.72 1326.0,1976.0" style="stroke:#010101; fill:none;"/>
	<path d="M 1357.0,1957.0 L 1386.0,1971.0" style="stroke:#010101; fill:none;"/>
	<path d="M 1735.0,1957.0 L 1735.0,1958.0" style="stroke:#010101; fill:none;"/>
	<path d="M 1260.0,1960.0 C 1268.51,1965.62 1280.47,1963.9 1290.0,1967.86 C 1304.88,1974.04 1318.1,1984.38 1333.0,1990.53 C 1342.12,1994.3 1353.36,1995.22 1363.0,1997.42 C 1373.0,1999.71 1383.08,2002.08 1393.0,2004.39 C 1395.91,2005.07 1399.19,2006.9 1399.96,2010.04 C 1401.74,2017.33 1390.39,2017.54 1386.0,2016.61 C 1372.07,2013.67 1357.54,2008.43 1343.0,2009.43 C 1331.59,2010.21 1319.34,2013.95 1308.0,2015.92 C 1287.21,2019.52 1268.72,2029.19 1249.0,2035.09 C 1233.28,2039.79 1217.25,2040.17 1201.0,2040.0 C 1191.63,2039.91 1172.42,2041.86 1165.3,2034.72 C 1159.72,2029.13 1149.26,2015.97 1148.23,2008.0 C 1147.21,2000.2 1153.37,1993.41 1149.0,1986.0 L 1158.0,1979.0" style="stroke:#010101; fill:none;"/>
	<path d="M 1737.0,1960.0 L 1743.0,1972.0" style="stroke:#010101; fill:none;"/>
	<path d="M 1258.0,1961.0 C 1259.0,1969.95 1267.92,1973.23 1271.44,1981.0 C 1278.28,1996.07 1268.01,2014.33 1261.0,2027.0" style="stroke:#010101; fill:none;"/>
	<path d="M 1467.0,1961.0 L 1469.0,1962.0" style="stroke:#010101; fill:none;"/>
	<path d="M 1155.0,1974.0 C 1147.56,1975.44 1143.76,1975.37 1138.0,1970.0 C 1146.28,1966.43 1160.37,1959.57 1169.0,1964.0" style="stroke:#010101; fill:none;"/>
	<path d="M 1470.0,1964.0 C 1473.89,1969.75 1476.73,1976.09 1480.39,1982.0 C 1481.7,1984.12 1484.2,1989.71 1486.0,1986.0" style="stroke:#010101; fill:none;"/>
	<path d="M 1023.0,2028.0 C 1050.94,2018.91 1069.04,1996.56 1094.0,1983.03 C 1107.79,1975.55 1124.46,1977.56 1138.0,1970.0" style="stroke:#010101; fill:none;"/>
	<path d="M 1718.0,1970.0 C 1721.71,1978.49 1728.66,1988.66 1737.0,1993.0" style="stroke:#010101; fill:none;"/>
	<path d="M 1711.0,1971.0 L 1712.0,1973.0" style="stroke:#010101; fill:none;"/>
	<path d="M 1458.0,1972.0 L 1472.0,1994.0" style="stroke:#010101; fill:none;"/>
	<path d="M 1135.0,1973.0 L 1141.0,1975.0" style="stroke:#010101; fill:none;"/>
	<path d="M 1147.0,1976.0 C 1143.76,1980.28 1141.53,1984.95 1144.0,1990.0 L 1148.0,1986.0 L 1144.0,1984.0" style="stroke:#010101; fill:none;"/>
	<path d="M 1703.0,1976.0 L 1704.0,1978.0" style="stroke:#010101; fill:none;"/>
	<path d="M 1713.0,1976.0 L 1730.0,1998.0" style="stroke:#010101; fill:none;"/>
	<path d="M 1735.0,1976.0 L 1736.0,1977.0" style="stroke:#010101; fill:none;"/>
	<path d="M 1664.0,1978.0 L 1664.0,1979.0" style="stroke:#010101; fill:none;"/>
	<path d="M 1738.0,1979.0 L 1743.0,1985.0" style="stroke:#010101; fill:none;"/>
	<path d="M 1218.0,1989.0 L 1229.0,1998.0 C 1221.84,2010.33 1204.27,2017.87 1191.01,2010.06 C 1181.14,2004.25 1179.39,1989.44 1189.02,1982.81 C 1197.17,1977.19 1200.36,1989.87 1207.0,1992.78 C 1211.14,1994.59 1214.81,1991.26 1218.0,1989.0" style="stroke:#010101; fill:none;"/>
	<path d="M 1678.0,1980.0 L 1678.0,1982.0" style="stroke:#010101; fill:none;"/>
	<path d="M 1705.0,1980.0 L 1706.0,1981.0" style="stroke:#010101; fill:none;"/>
	<path d="M 1665.0,1981.0 C 1670.6,1995.22 1680.47,2009.97 1691.0,2021.0" style="stroke:#010101; fill:none;"/>
	<path d="M 1145.0,1990.0 C 1143.15,1991.74 1140.81,1994.64 1138.0,1994.66 C 1134.3,1994.68 1130.37,1989.62 1132.66,1986.28 C 1134.76,1983.22 1139.67,1982.69 1143.0,1982.0" style="stroke:#010101; fill:none;"/>
	<path d="M 1454.0,1983.0 C 1460.18,1994.09 1468.78,2007.0 1482.0,1998.0" style="stroke:#010101; fill:none;"/>
	<path d="M 1707.0,1983.0 L 1724.0,2004.0" style="stroke:#010101; fill:none;"/>
	<path d="M 1091.0,1985.0 C 1102.47,1992.34 1119.3,1981.75 1131.0,1988.0" style="stroke:#010101; fill:none;"/>
	<path d="M 1664.0,1985.0 L 1664.0,1987.0" style="stroke:#010101; fill:none;"/>
	<path d="M 1699.0,1985.0 L 1700.0,1986.0" style="stroke:#010101; fill:none;"/>
	<path d="M 1132.0,1991.0 L 1141.0,1987.0" style="stroke:#010101; fill:none;"/>
	<path d="M 1682.0,1987.0 L 1719.0,2033.0" style="stroke:#010101; fill:none;"/>
	<path d="M 1674.0,1988.0 L 1674.0,1989.0" style="stroke:#010101; fill:none;"/>
	<path d="M 1665.0,1989.0 L 1665.0,1990.0" style="stroke:#010101; fill:none;"/>
	<path d="M 1131.0,1990.0 L 1127.0,1995.0 L 1134.0,2001.0 L 1138.0,1996.0" style="stroke:#010101; fill:none;"/>
	<path d="M 1676.0,1991.0 L 1679.0,1996.0" style="stroke:#010101; fill:none;"/>
	<path d="M 1339.0,1993.0 L 1345.0,2009.0" style="stroke:#010101; fill:none;"/>
	<path d="M 1667.0,1993.0 L 1684.33,2024.0 L 1711.0,2061.0" style="stroke:#010101; fill:none;"/>
	<path d="M 1129.0,1994.0 L 1134.0,1997.0" style="stroke:#010101; fill:none;"/>
	<path d="M 1091.0,1995.0 L 1111.0,1997.0 C 1100.39,2004.85 1081.75,2004.63 1069.0,2007.0" style="stroke:#010101; fill:none;"/>
	<path d="M 1134.0,2001.0 C 1127.94,2006.56 1120.69,2010.78 1113.0,2013.76 C 1110.5,2014.72 1105.8,2016.25 1103.83,2013.42 C 1101.55,2010.15 1107.0,2007.03 1108.96,2005.41 C 1115.45,2000.02 1118.37,1996.79 1127.0,1995.0" style="stroke:#010101; fill:none;"/>
	<path d="M 1707.0,1995.0 L 1708.0,1997.0" style="stroke:#010101; fill:none;"/>
	<path d="M 1111.0,1997.0 L 1113.0,1997.0" style="stroke:#010101; fill:none;"/>
	<path d="M 1681.0,2000.0 L 1734.0,2066.0" style="stroke:#010101; fill:none;"/>
	<path d="M 1715.0,2006.0 L 1716.0,2007.0" style="stroke:#010101; fill:none;"/>
	<path d="M 1718.0,2009.0 L 1719.0,2010.0" style="stroke:#010101; fill:none;"/>
	<path d="M 1665.0,2011.0 C 1682.98,2038.17 1702.55,2065.43 1724.0,2090.0" style="stroke:#010101; fill:none;"/>
	<path d="M 1721.0,2013.0 L 1727.0,2020.0" style="stroke:#010101; fill:none;"/>
	<path d="M 1066.0,2016.0 L 1101.0,2014.0" style="stroke:#010101; fill:none;"/>
	<path d="M 1107.0,2017.0 L 1095.0,2031.0 L 1119.0,2031.0 L 1163.0,2035.0" style="stroke:#010101; fill:none;"/>
	<path d="M 1088.0,2018.0 C 1076.74,2028.04 1063.13,2029.26 1049.0,2032.0" style="stroke:#010101; fill:none;"/>
	<path d="M 1349.0,2023.0 L 1359.0,2023.0" style="stroke:#010101; fill:none;"/>
	<path d="M 1361.0,2023.0 L 1362.0,2023.0" style="stroke:#010101; fill:none;"/>
	<path d="M 1071.0,2024.0 L 1075.0,2025.0" style="stroke:#010101; fill:none;"/>
	<path d="M 1670.0,2029.0 C 1684.88,2060.26 1712.41,2090.89 1735.0,2117.0" style="stroke:#010101; fill:none;"/>
	<path d="M 1722.0,2036.0 L 1723.0,2037.0" style="stroke:#010101; fill:none;"/>
	<path d="M 742.0,2038.0 L 740.0,2056.0" style="stroke:#010101; fill:none;"/>
	<path d="M 1725.0,2039.0 L 1726.0,2040.0" style="stroke:#010101; fill:none;"/>
	<path d="M 1156.0,2042.0 L 1149.0,2047.0" style="stroke:#010101; fill:none;"/>
	<path d="M 1255.0,2042.0 L 1255.0,2043.0" style="stroke:#010101; fill:none;"/>
	<path d="M 1113.0,2051.0 L 1129.0,2046.0" style="stroke:#010101; fill:none;"/>
	<path d="M 1672.0,2046.0 L 1747.0,2138.0" style="stroke:#010101; fill:none;"/>
	<path d="M 1171.0,2047.0 L 1168.0,2050.0" style="stroke:#010101; fill:none;"/>
	<path d="M 1267.0,2047.0 L 1269.0,2047.0" style="stroke:#010101; fill:none;"/>
	<path d="M 1259.0,2049.0 L 1265.0,2048.0" style="stroke:#010101; fill:none;"/>
	<path d="M 1368.0,2048.0 L 1369.0,2048.0" style="stroke:#010101; fill:none;"/>
	<path d="M 1172.0,2052.0 L 1177.0,2050.0" style="stroke:#010101; fill:none;"/>
	<path d="M 1238.0,2054.0 L 1257.0,2050.0" style="stroke:#010101; fill:none;"/>
	<path d="M 1358.0,2055.0 L 1366.0,2050.0" style="stroke:#010101; fill:none;"/>
	<path d="M 1729.0,2054.0 L 1730.0,2055.0" style="stroke:#010101; fill:none;"/>
	<path d="M 1355.0,2056.0 L 1283.0,2102.0" style="stroke:#010101; fill:none;"/>
	<path d="M 740.0,2060.0 L 740.0,2062.0" style="stroke:#010101; fill:none;"/>
	<path d="M 1193.0,2065.0 L 1205.0,2063.0" style="stroke:#010101; fill:none;"/>
	<path d="M 1185.0,2065.0 L 1186.0,2065.0" style="stroke:#010101; fill:none;"/>
	<path d="M 1189.0,2065.0 L 1191.0,2065.0" style="stroke:#010101; fill:none;"/>
	<path d="M 1682.0,2071.0 L 1682.0,2073.0" style="stroke:#010101; fill:none;"/>
	<path d="M 751.0,2075.0 L 751.0,2076.0" style="stroke:#010101; fill:none;"/>
	<path d="M 1684.0,2075.0 L 1685.0,2076.0" style="stroke:#010101; fill:none;"/>
	<path d="M 751.0,2078.0 L 751.0,2080.0" style="stroke:#010101; fill:none;"/>
	<path d="M 1687.0,2078.0 L 1751.0,2157.0" style="stroke:#010101; fill:none;"/>
	<path d="M 750.0,2086.0 L 752.0,2172.0" style="stroke:#010101; fill:none;"/>
	<path d="M 1684.0,2100.0 L 1700.0,2143.0" style="stroke:#010101; fill:none;"/>
	<path d="M 1700.0,2128.0 C 1702.94,2137.91 1712.0,2145.37 1718.57,2153.0 C 1733.14,2169.9 1749.18,2187.02 1761.0,2206.0" style="stroke:#010101; fill:none;"/>
	<path d="M 1753.0,2159.0 L 1754.0,2160.0" style="stroke:#010101; fill:none;"/>
	<path d="M 1752.0,2175.0 L 1764.0,2189.0" style="stroke:#010101; fill:none;"/>
	<path d="M 1739.0,2184.0 L 1739.0,2185.0" style="stroke:#010101; fill:none;"/>
	<path d="M 1741.0,2188.0 C 1745.19,2202.53 1756.19,2216.4 1764.31,2229.0 C 1782.18,2256.75 1803.83,2286.93 1813.0,2319.0" style="stroke:#010101; fill:none;"/>
	<path d="M 738.0,2223.0 C 757.693,2308.9 787.064,2391.06 819.55,2473.0 C 833.739,2508.79 843.837,2546.11 860.298,2581.0 C 875.088,2612.35 894.883,2640.91 915.0,2669.0" style="stroke:#010101; fill:none;"/>
	<path d="M 2103.0,2260.0 L 2103.0,2261.0" style="stroke:#010101; fill:none;"/>
	<path d="M 2103.0,2263.0 L 2102.0,2266.0" style="stroke:#010101; fill:none;"/>
	<path d="M 2102.0,2268.0 C 2100.88,2294.05 2087.5,2321.5 2079.33,2346.0 C 2065.66,2387.03 2054.34,2428.05 2044.0,2470.0" style="stroke:#010101; fill:none;"/>
	<path d="M 1434.0,2309.0 L 1419.0,2355.0" style="stroke:#010101; fill:none;"/>
	<path d="M 1431.0,2318.0 L 1431.0,2314.0" style="stroke:#010101; fill:none;"/>
	<path d="M 1429.0,2316.0 L 1401.0,2366.0" style="stroke:#010101; fill:none;"/>
	<path d="M 758.0,2318.0 L 756.0,2331.0" style="stroke:#010101; fill:none;"/>
	<path d="M 1814.0,2321.0 L 1814.0,2322.0" style="stroke:#010101; fill:none;"/>
	<path d="M 759.0,2327.0 L 765.0,2329.0 L 765.0,2329.0" style="stroke:#010101; fill:none;"/>
	<path d="M 763.0,2331.0 L 764.0,2342.0" style="stroke:#010101; fill:none;"/>
	<path d="M 756.0,2333.0 L 756.0,2334.0" style="stroke:#010101; fill:none;"/>
	<path d="M 746.0,2356.0 C 758.548,2385.0 764.957,2418.54 773.424,2449.0 C 784.245,2487.93 797.261,2526.89 810.691,2565.0 C 828.203,2614.7 850.408,2662.73 869.086,2712.0 C 885.904,2756.36 901.055,2801.19 919.424,2845.0 C 928.807,2867.38 940.715,2888.67 950.0,2911.0" style="stroke:#010101; fill:none;"/>
	<path d="M 753.0,2358.0 L 752.0,2359.0" style="stroke:#010101; fill:none;"/>
	<path d="M 1400.0,2368.0 L 1399.0,2369.0" style="stroke:#010101; fill:none;"/>
	<path d="M 1421.0,2369.0 C 1421.13,2384.16 1427.39,2401.59 1432.0,2416.0" style="stroke:#010101; fill:none;"/>
	<path d="M 1894.0,2388.0 L 1895.0,2389.0" style="stroke:#010101; fill:none;"/>
	<path d="M 1827.0,2391.0 C 1821.91,2410.03 1809.51,2426.06 1791.0,2433.8 C 1779.28,2438.7 1766.68,2439.35 1755.0,2444.89 C 1736.52,2453.66 1727.71,2475.5 1709.0,2485.36 C 1683.4,2498.83 1648.12,2502.14 1621.0,2491.54 C 1613.27,2488.51 1604.07,2484.85 1597.01,2480.52 C 1591.37,2477.06 1588.0,2472.93 1581.0,2472.17 C 1548.63,2468.65 1520.78,2489.08 1490.0,2472.0" style="stroke:#010101; fill:none;"/>
	<path d="M 1896.0,2391.0 L 1902.0,2400.0" style="stroke:#010101; fill:none;"/>
	<path d="M 1903.0,2402.0 C 1925.79,2436.45 1948.29,2472.71 1964.0,2511.0" style="stroke:#010101; fill:none;"/>
	<path d="M 1433.0,2418.0 L 1433.0,2419.0" style="stroke:#010101; fill:none;"/>
	<path d="M 2083.0,2460.0 L 2083.0,2461.0" style="stroke:#010101; fill:none;"/>
	<path d="M 2083.0,2464.0 C 2081.27,2472.14 2081.89,2480.73 2080.39,2489.0 C 2074.05,2523.89 2066.56,2559.12 2052.99,2592.0 C 2045.52,2610.11 2036.47,2628.06 2026.65,2645.0 C 2021.72,2653.51 2013.21,2661.98 2011.41,2672.0 C 2009.58,2682.18 2016.33,2699.31 2017.72,2710.0 C 2020.44,2730.92 2018.85,2752.11 2016.83,2773.0 C 2009.79,2845.72 1973.36,2902.7 1929.21,2959.0 C 1908.41,2985.53 1883.87,3015.35 1854.0,3032.0" style="stroke:#010101; fill:none;"/>
	<path d="M 976.0,2470.0 L 972.0,2473.0" style="stroke:#010101; fill:none;"/>
	<path d="M 968.0,2474.0 L 970.0,2474.0" style="stroke:#010101; fill:none;"/>
	<path d="M 984.0,2500.0 L 977.0,2508.0" style="stroke:#010101; fill:none;"/>
	<path d="M 990.0,2516.0 L 987.0,2523.0" style="stroke:#010101; fill:none;"/>
	<path d="M 1868.0,2519.0 L 1868.0,2520.0" style="stroke:#010101; fill:none;"/>
	<path d="M 1844.0,2520.0 L 1843.0,2535.0" style="stroke:#010101; fill:none;"/>
	<path d="M 2035.0,2520.0 L 2035.0,2521.0" style="stroke:#010101; fill:none;"/>
	<path d="M 1869.0,2523.0 L 1870.0,2535.0" style="stroke:#010101; fill:none;"/>
	<path d="M 2034.0,2524.0 L 2034.0,2525.0" style="stroke:#010101; fill:none;"/>
	<path d="M 2034.0,2528.0 L 2033.0,2530.0" style="stroke:#010101; fill:none;"/>
	<path d="M 1826.0,2531.0 L 1827.0,2537.0" style="stroke:#010101; fill:none;"/>
	<path d="M 2033.0,2532.0 L 2033.0,2533.0" style="stroke:#010101; fill:none;"/>
	<path d="M 2033.0,2535.0 L 2032.0,2541.0" style="stroke:#010101; fill:none;"/>
	<path d="M 2032.0,2545.0 L 2026.0,2585.0" style="stroke:#010101; fill:none;"/>
	<path d="M 1551.0,2549.0 L 1548.0,2554.0" style="stroke:#010101; fill:none;"/>
	<path d="M 1028.0,2566.0 L 1020.0,2579.0" style="stroke:#010101; fill:none;"/>
	<path d="M 1436.0,2580.0 L 1434.0,2582.0" style="stroke:#010101; fill:none;"/>
	<path d="M 1433.0,2584.0 L 1431.0,2593.0" style="stroke:#010101; fill:none;"/>
	<path d="M 2026.0,2587.0 L 2026.0,2589.0" style="stroke:#010101; fill:none;"/>
	<path d="M 1450.0,2703.0 C 1459.42,2702.57 1468.79,2698.66 1478.0,2696.66 C 1502.0,2691.47 1524.88,2686.08 1547.0,2674.74 C 1563.97,2666.04 1577.91,2652.34 1597.0,2648.51 C 1628.01,2642.31 1657.0,2665.37 1687.0,2662.83 C 1693.43,2662.28 1703.1,2662.03 1709.0,2659.78 C 1730.11,2651.75 1746.99,2633.74 1769.0,2627.17 C 1793.03,2619.99 1818.21,2629.13 1843.0,2626.0" style="stroke:#010101; fill:none;"/>
	<path d="M 1372.0,2627.0 L 1371.0,2628.0" style="stroke:#010101; fill:none;"/>
	<path d="M 1369.0,2630.0 L 1368.0,2631.0" style="stroke:#010101; fill:none;"/>
	<path d="M 1878.0,2630.0 C 1863.33,2636.94 1846.41,2638.71 1832.0,2646.11 C 1782.85,2671.34 1738.62,2703.33 1682.0,2710.71 C 1639.42,2716.26 1595.78,2709.31 1553.0,2709.0 C 1536.95,2708.89 1521.89,2714.26 1506.0,2714.96 C 1480.83,2716.06 1455.28,2714.1 1431.0,2722.0" style="stroke:#010101; fill:none;"/>
	<path d="M 1365.0,2634.0 L 1364.0,2635.0" style="stroke:#010101; fill:none;"/>
	<path d="M 1362.0,2637.0 L 1361.0,2638.0" style="stroke:#010101; fill:none;"/>
	<path d="M 924.0,2646.0 L 922.0,2652.0" style="stroke:#010101; fill:none;"/>
	<path d="M 955.0,2658.0 L 948.0,2667.0" style="stroke:#010101; fill:none;"/>
	<path d="M 1497.0,3070.0 C 1498.25,3073.93 1497.9,3080.51 1500.49,3083.61 C 1508.47,3093.16 1527.83,3096.43 1539.0,3100.58 C 1585.98,3118.02 1632.03,3110.69 1679.0,3098.87 C 1715.42,3089.71 1753.91,3078.63 1787.0,3060.69 C 1851.09,3025.95 1906.64,2960.54 1931.56,2892.0 C 1948.92,2844.28 1966.63,2796.87 1980.58,2748.0 C 1985.66,2730.19 1991.48,2711.59 1999.75,2695.0 C 2002.65,2689.19 2005.01,2682.28 2010.0,2678.0" style="stroke:#010101; fill:none;"/>
	<path d="M 1124.0,2686.0 L 1123.0,2687.0" style="stroke:#010101; fill:none;"/>
	<path d="M 1129.0,2710.0 L 1144.0,2688.0" style="stroke:#010101; fill:none;"/>
	<path d="M 933.0,2690.0 C 945.613,2707.01 962.085,2721.08 977.0,2736.0 C 1042.11,2801.11 1118.27,2847.84 1196.0,2896.06 C 1230.9,2917.71 1262.72,2944.32 1297.0,2967.0" style="stroke:#010101; fill:none;"/>
	<path d="M 1121.0,2690.0 L 1120.0,2691.0" style="stroke:#010101; fill:none;"/>
	<path d="M 1115.0,2697.0 L 1114.0,2698.0" style="stroke:#010101; fill:none;"/>
	<path d="M 1112.0,2701.0 L 1111.0,2702.0" style="stroke:#010101; fill:none;"/>
	<path d="M 1828.0,2709.0 C 1821.15,2720.61 1813.26,2736.9 1800.0,2742.0" style="stroke:#010101; fill:none;"/>
	<path d="M 1797.0,2747.0 C 1770.85,2772.6 1737.94,2785.61 1704.0,2796.67 C 1688.16,2801.83 1670.9,2808.19 1654.0,2807.98 C 1625.66,2807.62 1595.72,2794.66 1568.0,2801.0" style="stroke:#010101; fill:none;"/>
	<path d="M 1869.0,2767.0 L 1848.0,2780.0" style="stroke:#010101; fill:none;"/>
	<path d="M 1844.0,2781.0 L 1845.0,2781.0" style="stroke:#010101; fill:none;"/>
	<path d="M 1842.0,2782.0 L 1840.0,2783.0" style="stroke:#010101; fill:none;"/>
	<path d="M 1507.0,2863.0 C 1513.4,2861.99 1519.61,2864.47 1526.0,2864.91 C 1537.12,2865.68 1548.87,2865.45 1560.0,2864.96 C 1588.54,2863.71 1617.96,2856.64 1646.0,2851.39 C 1691.2,2842.92 1731.19,2822.52 1775.0,2810.0" style="stroke:#010101; fill:none;"/>
	<path d="M 1896.0,2836.0 L 1901.0,2851.0" style="stroke:#010101; fill:none;"/>
	<path d="M 1877.0,2880.0 L 1879.0,2885.0" style="stroke:#010101; fill:none;"/>
	<path d="M 1901.0,2908.0 L 1902.0,2909.0" style="stroke:#010101; fill:none;"/>
	<path d="M 1866.0,2914.0 L 1871.0,2925.0" style="stroke:#010101; fill:none;"/>
	<path d="M 1851.0,2931.0 L 1851.0,2932.0" style="stroke:#010101; fill:none;"/>
	<path d="M 1852.0,2934.0 C 1853.34,2938.85 1854.89,2943.42 1860.0,2945.0" style="stroke:#010101; fill:none;"/>
	<path d="M 1850.0,2966.0 L 1850.0,2967.0" style="stroke:#010101; fill:none;"/>
	<path d="M 1851.0,2970.0 L 1853.0,2972.0" style="stroke:#010101; fill:none;"/>
	<path d="M 1313.0,2971.0 C 1348.12,2997.47 1384.25,3020.67 1422.0,3043.2 C 1445.94,3057.49 1471.19,3073.74 1498.0,3082.0" style="stroke:#010101; fill:none;"/>
	<path d="M 1463.0,2985.0 L 1466.0,3009.0" style="stroke:#010101; fill:none;"/>
	<path d="M 1475.0,3004.0 L 1479.0,3024.0" style="stroke:#010101; fill:none;"/>
	<path d="M 1399.0,3008.0 L 1392.0,3016.0" style="stroke:#010101; fill:none;"/>
	<path d="M 1486.0,3013.0 L 1489.0,3030.0" style="stroke:#010101; fill:none;"/>
	<path d="M 1502.0,3019.0 L 1503.0,3040.0" style="stroke:#010101; fill:none;"/>
	<path d="M 1438.0,3020.0 L 1438.0,3025.0" style="stroke:#010101; fill:none;"/>
	<path d="M 1519.0,3025.0 L 1519.0,3026.0" style="stroke:#010101; fill:none;"/>
	<path d="M 1438.0,3027.0 L 1438.0,3028.0" style="stroke:#010101; fill:none;"/>
	<path d="M 1520.0,3028.0 L 1520.0,3030.0" style="stroke:#010101; fill:none;"/>
	<path d="M 1673.0,3031.0 L 1678.0,3048.0" style="stroke:#010101; fill:none;"/>
	<path d="M 1521.0,3032.0 L 1521.0,3037.0" style="stroke:#010101; fill:none;"/>
	<path d="M 1698.0,3033.0 L 1700.0,3044.0" style="stroke:#010101; fill:none;"/>
	<path d="M 1032.0,3035.0 L 1037.0,3043.0" style="stroke:#010101; fill:none;"/>
	<path d="M 1522.0,3039.0 L 1522.0,3041.0" style="stroke:#010101; fill:none;"/>
	<path d="M 1528.0,3071.0 L 1528.0,3084.0" style="stroke:#010101; fill:none;"/>
	<path d="M 1648.0,3074.0 L 1652.0,3088.0" style="stroke:#010101; fill:none;"/>
	<path d="M 1620.0,3076.0 L 1620.0,3077.0" style="stroke:#010101; fill:none;"/>
	<path d="M 1551.0,3079.0 L 1551.0,3083.0" style="stroke:#010101; fill:none;"/>
</svg>
