<?xml version="1.0" ?>
<svg baseProfile="full" height="1454" version="1.1" width="1386" xmlns="http://www.w3.org/2000/svg" xmlns:ev="http://www.w3.org/2001/xml-events" xmlns:xlink="http://www.w3.org/1999/xlink">
	<defs/>
	<path d="M 477.0,634.0 L 478.0,634.0" style="stroke:#040104; fill:none;"/>
	<path d="M 485.0,634.0 L 485.0,635.0" style="stroke:#040104; fill:none;"/>
	<path d="M 499.0,637.0 L 500.0,637.0" style="stroke:#040104; fill:none;"/>
	<path d="M 486.0,641.0 L 488.0,641.0" style="stroke:#040104; fill:none;"/>
	<path d="M 496.0,641.0 L 493.0,642.0" style="stroke:#040104; fill:none;"/>
	<path d="M 507.0,644.0 L 508.0,644.0" style="stroke:#040104; fill:none;"/>
	<path d="M 498.0,645.0 L 503.0,646.0" style="stroke:#040104; fill:none;"/>
	<path d="M 509.0,649.0 L 514.0,651.0" style="stroke:#040104; fill:none;"/>
	<path d="M 529.0,651.0 L 529.0,652.0" style="stroke:#040104; fill:none;"/>
	<path d="M 517.0,652.0 L 521.0,652.0" style="stroke:#040104; fill:none;"/>
	<path d="M 503.0,653.0 L 502.0,654.0" style="stroke:#040104; fill:none;"/>
	<path d="M 524.0,654.0 L 532.0,657.0" style="stroke:#040104; fill:none;"/>
	<path d="M 536.0,658.0 L 537.0,659.0" style="stroke:#040104; fill:none;"/>
	<path d="M 540.0,659.0 L 540.0,660.0" style="stroke:#040104; fill:none;"/>
	<path d="M 516.0,662.0 L 517.0,662.0" style="stroke:#040104; fill:none;"/>
	<path d="M 550.0,665.0 L 551.0,665.0" style="stroke:#040104; fill:none;"/>
	<path d="M 548.0,668.0 L 550.0,671.0" style="stroke:#040104; fill:none;"/>
	<path d="M 556.0,671.0 L 559.0,674.0" style="stroke:#040104; fill:none;"/>
	<path d="M 557.0,675.0 L 557.0,676.0" style="stroke:#040104; fill:none;"/>
	<path d="M 562.0,675.0 L 564.0,677.0" style="stroke:#040104; fill:none;"/>
	<path d="M 566.0,679.0 L 567.0,679.0" style="stroke:#040104; fill:none;"/>
	<path d="M 571.0,682.0 L 575.0,685.0" style="stroke:#040104; fill:none;"/>
	<path d="M 560.0,683.0 L 561.0,684.0" style="stroke:#040104; fill:none;"/>
	<path d="M 577.0,685.0 L 579.0,689.0 L 581.0,686.0" style="stroke:#040104; fill:none;"/>
	<path d="M 365.0,687.0 L 365.0,689.0" style="stroke:#040104; fill:none;"/>
	<path d="M 566.0,689.0 L 567.0,691.0" style="stroke:#040104; fill:none;"/>
	<path d="M 581.0,689.0 L 581.0,690.0" style="stroke:#040104; fill:none;"/>
	<path d="M 589.0,689.0 L 590.0,690.0" style="stroke:#040104; fill:none;"/>
	<path d="M 474.0,690.0 L 474.0,691.0" style="stroke:#040104; fill:none;"/>
	<path d="M 584.0,691.0 L 584.0,695.0" style="stroke:#040104; fill:none;"/>
	<path d="M 489.0,692.0 L 489.0,693.0" style="stroke:#040104; fill:none;"/>
	<path d="M 570.0,692.0 L 571.0,692.0" style="stroke:#040104; fill:none;"/>
	<path d="M 593.0,692.0 L 597.0,696.0" style="stroke:#040104; fill:none;"/>
	<path d="M 492.0,694.0 L 493.0,694.0" style="stroke:#040104; fill:none;"/>
	<path d="M 360.0,696.0 L 361.0,696.0" style="stroke:#040104; fill:none;"/>
	<path d="M 581.0,697.0 L 581.0,698.0" style="stroke:#040104; fill:none;"/>
	<path d="M 506.0,698.0 L 507.0,698.0" style="stroke:#040104; fill:none;"/>
	<path d="M 590.0,698.0 L 590.0,699.0" style="stroke:#040104; fill:none;"/>
	<path d="M 360.0,700.0 L 362.0,700.0" style="stroke:#040104; fill:none;"/>
	<path d="M 605.0,700.0 L 605.0,701.0" style="stroke:#040104; fill:none;"/>
	<path d="M 516.0,702.0 L 519.0,703.0" style="stroke:#040104; fill:none;"/>
	<path d="M 359.0,703.0 L 363.0,704.0" style="stroke:#040104; fill:none;"/>
	<path d="M 466.0,704.0 L 472.0,707.0 L 472.0,708.0 L 471.0,709.0" style="stroke:#040104; fill:none;"/>
	<path d="M 473.0,704.0 C 477.31,705.348 480.152,705.464 484.0,703.0 L 497.0,714.0 L 499.0,710.0" style="stroke:#040104; fill:none;"/>
	<path d="M 604.0,704.0 L 604.0,705.0" style="stroke:#040104; fill:none;"/>
	<path d="M 523.0,705.0 L 523.0,706.0" style="stroke:#040104; fill:none;"/>
	<path d="M 611.0,705.0 L 612.0,707.0" style="stroke:#040104; fill:none;"/>
	<path d="M 483.0,706.0 L 485.0,706.0" style="stroke:#040104; fill:none;"/>
	<path d="M 359.0,708.0 L 361.0,707.0" style="stroke:#040104; fill:none;"/>
	<path d="M 490.0,707.0 L 492.0,709.0" style="stroke:#040104; fill:none;"/>
	<path d="M 374.0,708.0 L 374.0,709.0" style="stroke:#040104; fill:none;"/>
	<path d="M 627.0,708.0 L 627.0,709.0" style="stroke:#040104; fill:none;"/>
	<path d="M 358.0,711.0 L 357.0,718.0" style="stroke:#040104; fill:none;"/>
	<path d="M 493.0,711.0 L 494.0,713.0" style="stroke:#040104; fill:none;"/>
	<path d="M 615.0,711.0 L 616.0,712.0" style="stroke:#040104; fill:none;"/>
	<path d="M 501.0,713.0 L 504.0,715.0 L 499.0,713.0" style="stroke:#040104; fill:none;"/>
	<path d="M 610.0,713.0 L 611.0,713.0" style="stroke:#040104; fill:none;"/>
	<path d="M 473.0,714.0 L 478.0,731.0" style="stroke:#040104; fill:none;"/>
	<path d="M 545.0,714.0 L 546.0,714.0" style="stroke:#040104; fill:none;"/>
	<path d="M 621.0,715.0 L 621.0,717.0" style="stroke:#040104; fill:none;"/>
	<path d="M 372.0,716.0 L 370.0,718.0" style="stroke:#040104; fill:none;"/>
	<path d="M 633.0,716.0 L 634.0,717.0" style="stroke:#040104; fill:none;"/>
	<path d="M 505.0,717.0 L 514.0,720.0" style="stroke:#040104; fill:none;"/>
	<path d="M 492.0,718.0 L 490.0,720.0" style="stroke:#040104; fill:none;"/>
	<path d="M 511.0,719.0 L 510.0,727.0" style="stroke:#040104; fill:none;"/>
	<path d="M 355.0,721.0 L 355.0,729.0 L 354.0,730.0 L 353.0,730.0" style="stroke:#040104; fill:none;"/>
	<path d="M 487.0,723.0 L 491.0,727.0" style="stroke:#040104; fill:none;"/>
	<path d="M 496.0,723.0 L 497.0,723.0" style="stroke:#040104; fill:none;"/>
	<path d="M 519.0,724.0 L 533.0,729.0" style="stroke:#040104; fill:none;"/>
	<path d="M 355.0,726.0 L 356.0,727.0" style="stroke:#040104; fill:none;"/>
	<path d="M 569.0,726.0 L 569.0,727.0" style="stroke:#040104; fill:none;"/>
	<path d="M 531.0,728.0 L 527.0,729.0" style="stroke:#040104; fill:none;"/>
	<path d="M 368.0,729.0 L 367.0,730.0" style="stroke:#040104; fill:none;"/>
	<path d="M 537.0,730.0 L 547.0,739.0" style="stroke:#040104; fill:none;"/>
	<path d="M 352.0,733.0 L 353.0,734.0" style="stroke:#040104; fill:none;"/>
	<path d="M 367.0,733.0 L 364.0,742.0" style="stroke:#040104; fill:none;"/>
	<path d="M 507.0,733.0 L 502.0,739.0" style="stroke:#040104; fill:none;"/>
	<path d="M 480.0,736.0 L 480.0,737.0" style="stroke:#040104; fill:none;"/>
	<path d="M 578.0,737.0 L 578.0,738.0" style="stroke:#040104; fill:none;"/>
	<path d="M 353.0,739.0 L 353.0,740.0" style="stroke:#040104; fill:none;"/>
	<path d="M 362.0,740.0 L 364.0,740.0" style="stroke:#040104; fill:none;"/>
	<path d="M 481.0,740.0 L 482.0,740.0" style="stroke:#040104; fill:none;"/>
	<path d="M 350.0,741.0 L 350.0,742.0" style="stroke:#040104; fill:none;"/>
	<path d="M 578.0,741.0 L 579.0,741.0" style="stroke:#040104; fill:none;"/>
	<path d="M 548.0,742.0 L 552.0,744.0" style="stroke:#040104; fill:none;"/>
	<path d="M 495.0,744.0 L 497.0,743.0" style="stroke:#040104; fill:none;"/>
	<path d="M 350.0,744.0 L 350.0,745.0" style="stroke:#040104; fill:none;"/>
	<path d="M 352.0,744.0 L 352.0,745.0" style="stroke:#040104; fill:none;"/>
	<path d="M 491.0,744.0 L 491.0,749.0" style="stroke:#040104; fill:none;"/>
	<path d="M 363.0,747.0 C 361.587,751.321 361.822,755.456 357.0,757.0" style="stroke:#040104; fill:none;"/>
	<path d="M 580.0,747.0 L 581.0,749.0" style="stroke:#040104; fill:none;"/>
	<path d="M 352.0,748.0 L 350.0,753.0" style="stroke:#040104; fill:none;"/>
	<path d="M 557.0,749.0 L 559.0,753.0" style="stroke:#040104; fill:none;"/>
	<path d="M 496.0,751.0 L 499.0,753.0" style="stroke:#040104; fill:none;"/>
	<path d="M 583.0,753.0 L 583.0,756.0" style="stroke:#040104; fill:none;"/>
	<path d="M 502.0,755.0 L 502.0,756.0" style="stroke:#040104; fill:none;"/>
	<path d="M 359.0,760.0 L 353.0,775.0" style="stroke:#040104; fill:none;"/>
	<path d="M 535.0,768.0 L 537.0,770.0" style="stroke:#040104; fill:none;"/>
	<path d="M 562.0,768.0 L 561.0,771.0" style="stroke:#040104; fill:none;"/>
	<path d="M 569.0,770.0 L 571.0,772.0" style="stroke:#040104; fill:none;"/>
	<path d="M 356.0,776.0 L 355.0,777.0" style="stroke:#040104; fill:none;"/>
	<path d="M 558.0,780.0 L 559.0,776.0" style="stroke:#040104; fill:none;"/>
	<path d="M 573.0,776.0 L 574.0,780.0" style="stroke:#040104; fill:none;"/>
	<path d="M 555.0,777.0 L 557.0,777.0" style="stroke:#040104; fill:none;"/>
	<path d="M 353.0,779.0 L 350.0,783.0" style="stroke:#040104; fill:none;"/>
	<path d="M 784.0,779.0 L 784.0,780.0" style="stroke:#040104; fill:none;"/>
	<path d="M 561.0,780.0 L 561.0,781.0" style="stroke:#040104; fill:none;"/>
	<path d="M 795.0,782.0 L 798.0,782.0" style="stroke:#040104; fill:none;"/>
	<path d="M 801.0,783.0 L 803.0,783.0" style="stroke:#040104; fill:none;"/>
	<path d="M 771.0,784.0 L 779.0,787.0" style="stroke:#040104; fill:none;"/>
	<path d="M 351.0,785.0 L 351.0,790.0" style="stroke:#040104; fill:none;"/>
	<path d="M 785.0,786.0 L 785.0,787.0 L 785.0,786.0" style="stroke:#040104; fill:none;"/>
	<path d="M 809.0,785.0 L 820.0,789.0" style="stroke:#040104; fill:none;"/>
	<path d="M 790.0,786.0 L 790.0,789.0" style="stroke:#040104; fill:none;"/>
	<path d="M 796.0,786.0 L 798.0,788.0 L 796.0,790.0 L 796.0,786.0" style="stroke:#040104; fill:none;"/>
	<path d="M 800.0,791.0 C 805.269,786.845 811.598,790.434 809.0,797.0" style="stroke:#040104; fill:none;"/>
	<path d="M 796.0,790.0 L 796.0,792.0" style="stroke:#040104; fill:none;"/>
	<path d="M 817.0,795.0 L 824.0,790.0 L 826.0,796.0" style="stroke:#040104; fill:none;"/>
	<path d="M 815.0,791.0 L 817.0,792.0" style="stroke:#040104; fill:none;"/>
	<path d="M 790.0,794.0 L 790.0,795.0" style="stroke:#040104; fill:none;"/>
	<path d="M 823.0,794.0 L 828.0,799.0 L 832.0,794.0" style="stroke:#040104; fill:none;"/>
	<path d="M 799.0,795.0 L 799.0,798.0" style="stroke:#040104; fill:none;"/>
	<path d="M 830.0,796.0 L 839.0,804.0 L 836.0,803.0" style="stroke:#040104; fill:none;"/>
	<path d="M 839.0,801.0 L 837.0,797.0 L 841.0,798.0" style="stroke:#040104; fill:none;"/>
	<path d="M 350.0,800.0 L 350.0,798.0 L 349.0,802.0" style="stroke:#040104; fill:none;"/>
	<path d="M 803.0,798.0 L 803.0,800.0" style="stroke:#040104; fill:none;"/>
	<path d="M 811.0,798.0 L 812.0,798.0" style="stroke:#040104; fill:none;"/>
	<path d="M 809.0,800.0 L 809.0,801.0" style="stroke:#040104; fill:none;"/>
	<path d="M 837.0,800.0 L 837.0,801.0" style="stroke:#040104; fill:none;"/>
	<path d="M 811.0,801.0 L 812.0,801.0" style="stroke:#040104; fill:none;"/>
	<path d="M 820.0,801.0 L 820.0,804.0" style="stroke:#040104; fill:none;"/>
	<path d="M 348.0,803.0 L 347.0,807.0" style="stroke:#040104; fill:none;"/>
	<path d="M 825.0,803.0 L 826.0,803.0" style="stroke:#040104; fill:none;"/>
	<path d="M 836.0,804.0 L 834.0,806.0" style="stroke:#040104; fill:none;"/>
	<path d="M 845.0,804.0 L 846.0,804.0" style="stroke:#040104; fill:none;"/>
	<path d="M 830.0,805.0 L 831.0,805.0" style="stroke:#040104; fill:none;"/>
	<path d="M 854.0,805.0 L 853.0,807.0" style="stroke:#040104; fill:none;"/>
	<path d="M 836.0,811.0 L 838.0,806.0 L 842.0,808.0" style="stroke:#040104; fill:none;"/>
	<path d="M 829.0,808.0 L 830.0,808.0" style="stroke:#040104; fill:none;"/>
	<path d="M 845.0,809.0 L 845.0,810.0" style="stroke:#040104; fill:none;"/>
	<path d="M 862.0,810.0 L 867.0,813.0" style="stroke:#040104; fill:none;"/>
	<path d="M 346.0,811.0 L 345.0,818.0" style="stroke:#040104; fill:none;"/>
	<path d="M 830.0,811.0 L 830.0,812.0" style="stroke:#040104; fill:none;"/>
	<path d="M 545.0,812.0 L 546.0,812.0" style="stroke:#040104; fill:none;"/>
	<path d="M 870.0,813.0 L 871.0,815.0" style="stroke:#040104; fill:none;"/>
	<path d="M 901.0,813.0 L 902.0,814.0" style="stroke:#040104; fill:none;"/>
	<path d="M 827.0,815.0 L 829.0,814.0" style="stroke:#040104; fill:none;"/>
	<path d="M 858.0,814.0 L 860.0,814.0" style="stroke:#040104; fill:none;"/>
	<path d="M 873.0,815.0 L 874.0,815.0" style="stroke:#040104; fill:none;"/>
	<path d="M 831.0,816.0 L 833.0,816.0" style="stroke:#040104; fill:none;"/>
	<path d="M 837.0,817.0 L 838.0,818.0" style="stroke:#040104; fill:none;"/>
	<path d="M 857.0,818.0 L 859.0,819.0" style="stroke:#040104; fill:none;"/>
	<path d="M 871.0,818.0 L 870.0,820.0" style="stroke:#040104; fill:none;"/>
	<path d="M 840.0,819.0 L 841.0,819.0" style="stroke:#040104; fill:none;"/>
	<path d="M 863.0,819.0 L 863.0,821.0 L 863.0,819.0" style="stroke:#040104; fill:none;"/>
	<path d="M 847.0,820.0 L 847.0,821.0" style="stroke:#040104; fill:none;"/>
	<path d="M 861.0,820.0 L 862.0,820.0" style="stroke:#040104; fill:none;"/>
	<path d="M 343.0,822.0 L 344.0,823.0" style="stroke:#040104; fill:none;"/>
	<path d="M 854.0,822.0 L 855.0,822.0" style="stroke:#040104; fill:none;"/>
	<path d="M 867.0,822.0 L 868.0,822.0" style="stroke:#040104; fill:none;"/>
	<path d="M 865.0,823.0 L 865.0,824.0" style="stroke:#040104; fill:none;"/>
	<path d="M 871.0,824.0 L 871.0,825.0" style="stroke:#040104; fill:none;"/>
	<path d="M 873.0,824.0 L 877.0,825.0" style="stroke:#040104; fill:none;"/>
	<path d="M 344.0,825.0 L 344.0,826.0" style="stroke:#040104; fill:none;"/>
	<path d="M 774.0,827.0 L 781.0,827.0" style="stroke:#040104; fill:none;"/>
	<path d="M 878.0,827.0 L 879.0,827.0" style="stroke:#040104; fill:none;"/>
	<path d="M 341.0,828.0 L 343.0,831.0" style="stroke:#040104; fill:none;"/>
	<path d="M 764.0,829.0 L 770.0,828.0" style="stroke:#040104; fill:none;"/>
	<path d="M 762.0,829.0 L 761.0,830.0" style="stroke:#040104; fill:none;"/>
	<path d="M 340.0,832.0 L 335.0,876.0 L 337.0,872.0" style="stroke:#040104; fill:none;"/>
	<path d="M 810.0,834.0 L 810.0,836.0" style="stroke:#040104; fill:none;"/>
	<path d="M 812.0,837.0 L 813.0,837.0" style="stroke:#040104; fill:none;"/>
	<path d="M 815.0,837.0 L 815.0,838.0" style="stroke:#040104; fill:none;"/>
	<path d="M 909.0,838.0 L 911.0,838.0" style="stroke:#040104; fill:none;"/>
	<path d="M 817.0,839.0 L 821.0,839.0" style="stroke:#040104; fill:none;"/>
	<path d="M 763.0,840.0 L 765.0,841.0" style="stroke:#040104; fill:none;"/>
	<path d="M 767.0,841.0 L 770.0,840.0" style="stroke:#040104; fill:none;"/>
	<path d="M 775.0,840.0 L 775.0,845.0" style="stroke:#040104; fill:none;"/>
	<path d="M 778.0,840.0 L 777.0,841.0" style="stroke:#040104; fill:none;"/>
	<path d="M 824.0,841.0 L 832.0,846.0" style="stroke:#040104; fill:none;"/>
	<path d="M 788.0,844.0 L 786.0,847.0" style="stroke:#040104; fill:none;"/>
	<path d="M 919.0,844.0 L 920.0,844.0" style="stroke:#040104; fill:none;"/>
	<path d="M 780.0,845.0 L 778.0,846.0" style="stroke:#040104; fill:none;"/>
	<path d="M 753.0,846.0 L 750.0,850.0" style="stroke:#040104; fill:none;"/>
	<path d="M 759.0,846.0 L 755.0,857.0" style="stroke:#040104; fill:none;"/>
	<path d="M 798.0,846.0 L 798.0,847.0" style="stroke:#040104; fill:none;"/>
	<path d="M 835.0,846.0 L 837.0,847.0" style="stroke:#040104; fill:none;"/>
	<path d="M 802.0,849.0 L 801.0,850.0" style="stroke:#040104; fill:none;"/>
	<path d="M 773.0,850.0 L 772.0,854.0" style="stroke:#040104; fill:none;"/>
	<path d="M 842.0,850.0 L 854.0,858.0" style="stroke:#040104; fill:none;"/>
	<path d="M 744.0,854.0 L 747.0,852.0" style="stroke:#040104; fill:none;"/>
	<path d="M 777.0,852.0 L 781.0,856.0" style="stroke:#040104; fill:none;"/>
	<path d="M 777.0,854.0 L 774.0,856.0" style="stroke:#040104; fill:none;"/>
	<path d="M 812.0,856.0 L 809.0,856.0 L 812.0,854.0" style="stroke:#040104; fill:none;"/>
	<path d="M 785.0,855.0 L 785.0,857.0 L 785.0,855.0" style="stroke:#040104; fill:none;"/>
	<path d="M 813.0,855.0 L 843.046,877.835 L 853.0,884.0 L 862.0,893.0 C 857.322,893.916 855.633,891.122 854.0,887.0" style="stroke:#040104; fill:none;"/>
	<path d="M 737.0,859.0 L 740.0,857.0" style="stroke:#040104; fill:none;"/>
	<path d="M 338.0,858.0 L 336.0,862.0" style="stroke:#040104; fill:none;"/>
	<path d="M 802.0,859.0 L 800.0,873.0" style="stroke:#040104; fill:none;"/>
	<path d="M 757.0,860.0 L 756.0,862.0" style="stroke:#040104; fill:none;"/>
	<path d="M 779.0,860.0 L 781.0,860.0" style="stroke:#040104; fill:none;"/>
	<path d="M 819.0,860.0 L 820.0,868.0" style="stroke:#040104; fill:none;"/>
	<path d="M 859.0,862.0 L 861.0,863.0" style="stroke:#040104; fill:none;"/>
	<path d="M 757.0,866.0 L 758.0,868.0" style="stroke:#040104; fill:none;"/>
	<path d="M 825.0,867.0 L 825.0,870.0" style="stroke:#040104; fill:none;"/>
	<path d="M 828.0,868.0 L 830.0,869.0" style="stroke:#040104; fill:none;"/>
	<path d="M 874.0,871.0 L 875.0,871.0" style="stroke:#040104; fill:none;"/>
	<path d="M 798.0,875.0 L 796.0,879.0" style="stroke:#040104; fill:none;"/>
	<path d="M 335.0,876.0 L 331.0,878.0" style="stroke:#040104; fill:none;"/>
	<path d="M 840.0,879.0 L 841.0,885.0" style="stroke:#040104; fill:none;"/>
	<path d="M 881.0,879.0 L 882.0,881.0" style="stroke:#040104; fill:none;"/>
	<path d="M 785.0,885.0 L 793.0,880.0" style="stroke:#040104; fill:none;"/>
	<path d="M 333.0,882.0 C 336.52,884.278 337.783,894.047 334.0,896.0 L 334.0,897.0 L 336.0,897.0" style="stroke:#040104; fill:none;"/>
	<path d="M 337.0,882.0 L 336.0,883.0" style="stroke:#040104; fill:none;"/>
	<path d="M 850.0,884.0 L 852.0,883.0" style="stroke:#040104; fill:none;"/>
	<path d="M 883.0,883.0 L 883.0,886.0" style="stroke:#040104; fill:none;"/>
	<path d="M 857.0,887.0 L 855.0,889.0" style="stroke:#040104; fill:none;"/>
	<path d="M 856.0,892.0 L 859.0,889.0 L 859.0,894.0" style="stroke:#040104; fill:none;"/>
	<path d="M 860.0,895.0 L 861.0,898.0 L 861.0,895.0" style="stroke:#040104; fill:none;"/>
	<path d="M 334.0,899.0 L 333.0,906.0" style="stroke:#040104; fill:none;"/>
	<path d="M 823.0,901.0 L 824.0,901.0" style="stroke:#040104; fill:none;"/>
	<path d="M 847.0,901.0 L 848.0,901.0" style="stroke:#040104; fill:none;"/>
	<path d="M 335.0,903.0 C 336.628,906.37 336.968,910.288 334.0,913.0" style="stroke:#040104; fill:none;"/>
	<path d="M 803.0,907.0 L 803.0,908.0" style="stroke:#040104; fill:none;"/>
	<path d="M 332.0,910.0 L 332.0,911.0" style="stroke:#040104; fill:none;"/>
	<path d="M 336.0,926.0 L 335.0,921.0 L 334.0,930.0" style="stroke:#040104; fill:none;"/>
	<path d="M 513.0,927.0 L 513.0,928.0" style="stroke:#040104; fill:none;"/>
	<path d="M 337.0,928.0 L 344.0,967.0 L 346.0,983.0" style="stroke:#040104; fill:none;"/>
	<path d="M 789.0,933.0 L 790.0,934.0" style="stroke:#040104; fill:none;"/>
	<path d="M 932.0,962.0 L 932.0,965.0" style="stroke:#040104; fill:none;"/>
	<path d="M 520.0,963.0 L 529.0,974.0" style="stroke:#040104; fill:none;"/>
	<path d="M 929.0,975.0 L 928.0,976.0" style="stroke:#040104; fill:none;"/>
	<path d="M 531.0,978.0 L 532.0,982.0" style="stroke:#040104; fill:none;"/>
	<path d="M 534.0,983.0 L 535.0,986.0" style="stroke:#040104; fill:none;"/>
	<path d="M 927.0,984.0 L 924.0,987.0" style="stroke:#040104; fill:none;"/>
	<path d="M 347.0,985.0 L 352.0,1009.0" style="stroke:#040104; fill:none;"/>
	<path d="M 922.0,991.0 L 921.0,993.0" style="stroke:#040104; fill:none;"/>
	<path d="M 438.0,995.0 L 441.0,997.0" style="stroke:#040104; fill:none;"/>
	<path d="M 444.0,998.0 L 448.0,1002.0" style="stroke:#040104; fill:none;"/>
	<path d="M 915.0,1001.0 L 915.0,1002.0" style="stroke:#040104; fill:none;"/>
	<path d="M 452.0,1004.0 C 457.439,1013.31 461.333,1024.26 470.0,1031.0" style="stroke:#040104; fill:none;"/>
	<path d="M 911.0,1007.0 L 911.0,1008.0" style="stroke:#040104; fill:none;"/>
	<path d="M 355.0,1009.0 L 355.0,1013.0" style="stroke:#040104; fill:none;"/>
	<path d="M 910.0,1011.0 L 909.0,1012.0" style="stroke:#040104; fill:none;"/>
	<path d="M 907.0,1015.0 L 903.0,1022.0" style="stroke:#040104; fill:none;"/>
	<path d="M 356.0,1019.0 L 357.0,1024.0" style="stroke:#040104; fill:none;"/>
	<path d="M 610.0,1026.0 L 629.0,1022.0" style="stroke:#040104; fill:none;"/>
	<path d="M 636.0,1023.0 L 638.0,1023.0" style="stroke:#040104; fill:none;"/>
	<path d="M 901.0,1027.0 L 901.0,1025.0" style="stroke:#040104; fill:none;"/>
	<path d="M 600.0,1027.0 L 607.0,1027.0" style="stroke:#040104; fill:none;"/>
	<path d="M 898.0,1028.0 L 892.0,1032.0" style="stroke:#040104; fill:none;"/>
	<path d="M 362.0,1033.0 L 362.0,1038.0" style="stroke:#040104; fill:none;"/>
	<path d="M 471.0,1033.0 L 475.0,1036.0" style="stroke:#040104; fill:none;"/>
	<path d="M 893.0,1034.0 L 895.0,1034.0" style="stroke:#040104; fill:none;"/>
	<path d="M 477.0,1039.0 L 479.0,1040.0" style="stroke:#040104; fill:none;"/>
	<path d="M 885.0,1047.0 L 891.0,1040.0" style="stroke:#040104; fill:none;"/>
	<path d="M 365.0,1043.0 L 380.0,1087.0" style="stroke:#040104; fill:none;"/>
	<path d="M 883.0,1046.0 L 880.0,1054.0" style="stroke:#040104; fill:none;"/>
	<path d="M 366.0,1052.0 L 364.0,1054.0" style="stroke:#040104; fill:none;"/>
	<path d="M 491.0,1053.0 L 493.0,1056.0" style="stroke:#040104; fill:none;"/>
	<path d="M 516.0,1054.0 L 517.0,1054.0" style="stroke:#040104; fill:none;"/>
	<path d="M 877.0,1055.0 L 875.0,1057.0" style="stroke:#040104; fill:none;"/>
	<path d="M 873.0,1057.0 L 872.0,1060.0 L 876.0,1059.0" style="stroke:#040104; fill:none;"/>
	<path d="M 498.0,1058.0 L 508.0,1068.0" style="stroke:#040104; fill:none;"/>
	<path d="M 365.0,1059.0 L 362.0,1062.0" style="stroke:#040104; fill:none;"/>
	<path d="M 527.0,1060.0 L 527.0,1061.0" style="stroke:#040104; fill:none;"/>
	<path d="M 871.0,1061.0 C 870.747,1064.39 866.993,1072.96 863.0,1069.0" style="stroke:#040104; fill:none;"/>
	<path d="M 360.0,1066.0 L 358.0,1075.0" style="stroke:#040104; fill:none;"/>
	<path d="M 362.0,1067.0 L 362.0,1068.0" style="stroke:#040104; fill:none;"/>
	<path d="M 541.0,1067.0 L 541.0,1068.0" style="stroke:#040104; fill:none;"/>
	<path d="M 356.0,1070.0 L 357.0,1070.0" style="stroke:#040104; fill:none;"/>
	<path d="M 860.0,1072.0 L 860.0,1073.0" style="stroke:#040104; fill:none;"/>
	<path d="M 864.0,1073.0 L 858.0,1080.0" style="stroke:#040104; fill:none;"/>
	<path d="M 513.0,1074.0 L 516.0,1076.0" style="stroke:#040104; fill:none;"/>
	<path d="M 859.0,1076.0 L 861.0,1076.0" style="stroke:#040104; fill:none;"/>
	<path d="M 356.0,1078.0 L 356.0,1094.0" style="stroke:#040104; fill:none;"/>
	<path d="M 359.0,1078.0 L 358.0,1079.0" style="stroke:#040104; fill:none;"/>
	<path d="M 519.0,1079.0 L 531.0,1089.0" style="stroke:#040104; fill:none;"/>
	<path d="M 854.0,1086.0 L 857.0,1079.0" style="stroke:#040104; fill:none;"/>
	<path d="M 488.0,1087.0 L 489.0,1088.0" style="stroke:#040104; fill:none;"/>
	<path d="M 849.0,1087.0 L 846.0,1095.0" style="stroke:#040104; fill:none;"/>
	<path d="M 383.0,1089.0 L 383.0,1090.0" style="stroke:#040104; fill:none;"/>
	<path d="M 534.0,1090.0 L 541.0,1092.0" style="stroke:#040104; fill:none;"/>
	<path d="M 542.0,1092.0 L 552.0,1095.0" style="stroke:#040104; fill:none;"/>
	<path d="M 829.0,1105.0 C 835.403,1105.97 839.797,1097.92 844.0,1094.0" style="stroke:#040104; fill:none;"/>
	<path d="M 557.0,1096.0 L 560.0,1096.0" style="stroke:#040104; fill:none;"/>
	<path d="M 354.0,1096.0 L 352.0,1106.0" style="stroke:#040104; fill:none;"/>
	<path d="M 386.0,1097.0 L 386.0,1100.0" style="stroke:#040104; fill:none;"/>
	<path d="M 563.0,1097.0 L 587.0,1100.0" style="stroke:#040104; fill:none;"/>
	<path d="M 651.0,1097.0 L 651.0,1098.0" style="stroke:#040104; fill:none;"/>
	<path d="M 839.0,1098.0 L 837.0,1100.0" style="stroke:#040104; fill:none;"/>
	<path d="M 635.0,1101.0 L 644.0,1099.0" style="stroke:#040104; fill:none;"/>
	<path d="M 504.0,1100.0 L 505.0,1101.0" style="stroke:#040104; fill:none;"/>
	<path d="M 682.0,1100.0 L 683.0,1100.0" style="stroke:#040104; fill:none;"/>
	<path d="M 593.0,1101.0 L 595.0,1101.0" style="stroke:#040104; fill:none;"/>
	<path d="M 598.0,1102.0 L 601.0,1102.0" style="stroke:#040104; fill:none;"/>
	<path d="M 617.0,1102.0 L 626.0,1102.0" style="stroke:#040104; fill:none;"/>
	<path d="M 631.0,1101.0 L 631.0,1102.0" style="stroke:#040104; fill:none;"/>
	<path d="M 605.0,1102.0 L 605.0,1103.0" style="stroke:#040104; fill:none;"/>
	<path d="M 633.0,1102.0 L 633.0,1103.0" style="stroke:#040104; fill:none;"/>
	<path d="M 388.0,1104.0 L 388.0,1105.0" style="stroke:#040104; fill:none;"/>
	<path d="M 828.0,1109.0 L 827.0,1111.0" style="stroke:#040104; fill:none;"/>
	<path d="M 352.0,1110.0 L 350.0,1123.0" style="stroke:#040104; fill:none;"/>
	<path d="M 517.0,1110.0 L 519.0,1111.0" style="stroke:#040104; fill:none;"/>
	<path d="M 391.0,1111.0 L 392.0,1114.0" style="stroke:#040104; fill:none;"/>
	<path d="M 824.0,1111.0 L 809.0,1125.0" style="stroke:#040104; fill:none;"/>
	<path d="M 527.0,1114.0 L 527.0,1115.0" style="stroke:#040104; fill:none;"/>
	<path d="M 530.0,1115.0 L 530.0,1116.0" style="stroke:#040104; fill:none;"/>
	<path d="M 537.0,1117.0 L 541.0,1119.0" style="stroke:#040104; fill:none;"/>
	<path d="M 396.0,1121.0 L 396.0,1122.0" style="stroke:#040104; fill:none;"/>
	<path d="M 545.0,1121.0 L 548.0,1121.0" style="stroke:#040104; fill:none;"/>
	<path d="M 348.0,1123.0 L 348.0,1127.0" style="stroke:#040104; fill:none;"/>
	<path d="M 814.0,1124.0 L 815.0,1124.0" style="stroke:#040104; fill:none;"/>
	<path d="M 800.0,1134.0 L 808.0,1127.0" style="stroke:#040104; fill:none;"/>
	<path d="M 324.0,1129.0 L 324.0,1131.0" style="stroke:#040104; fill:none;"/>
	<path d="M 345.0,1130.0 L 345.0,1138.0" style="stroke:#040104; fill:none;"/>
	<path d="M 323.0,1134.0 L 323.0,1136.0" style="stroke:#040104; fill:none;"/>
	<path d="M 325.0,1138.0 L 325.0,1168.0 L 323.0,1177.0" style="stroke:#040104; fill:none;"/>
	<path d="M 792.0,1140.0 L 794.0,1139.0" style="stroke:#040104; fill:none;"/>
	<path d="M 323.0,1139.0 L 324.0,1140.0" style="stroke:#040104; fill:none;"/>
	<path d="M 789.0,1143.0 L 789.0,1144.0" style="stroke:#040104; fill:none;"/>
	<path d="M 337.0,1144.0 L 338.0,1144.0" style="stroke:#040104; fill:none;"/>
	<path d="M 780.0,1148.0 L 786.0,1146.0" style="stroke:#040104; fill:none;"/>
	<path d="M 777.0,1150.0 L 779.0,1150.0" style="stroke:#040104; fill:none;"/>
	<path d="M 774.0,1152.0 L 774.0,1153.0" style="stroke:#040104; fill:none;"/>
	<path d="M 333.0,1153.0 L 331.0,1159.0" style="stroke:#040104; fill:none;"/>
	<path d="M 762.0,1160.0 L 771.0,1154.0" style="stroke:#040104; fill:none;"/>
	<path d="M 758.0,1162.0 L 756.0,1165.0" style="stroke:#040104; fill:none;"/>
	<path d="M 766.0,1162.0 L 765.0,1164.0" style="stroke:#040104; fill:none;"/>
	<path d="M 750.0,1168.0 C 750.787,1165.11 751.253,1164.92 754.0,1166.0" style="stroke:#040104; fill:none;"/>
	<path d="M 325.0,1167.0 L 324.0,1173.0" style="stroke:#040104; fill:none;"/>
	<path d="M 747.0,1168.0 L 745.0,1169.0" style="stroke:#040104; fill:none;"/>
	<path d="M 741.0,1171.0 L 742.0,1171.0" style="stroke:#040104; fill:none;"/>
	<path d="M 428.0,1172.0 L 428.0,1173.0" style="stroke:#040104; fill:none;"/>
	<path d="M 736.0,1172.0 L 739.0,1173.0" style="stroke:#040104; fill:none;"/>
	<path d="M 738.0,1173.0 L 734.0,1175.0" style="stroke:#040104; fill:none;"/>
	<path d="M 324.0,1179.0 L 333.0,1225.0" style="stroke:#040104; fill:none;"/>
	<path d="M 723.0,1180.0 L 726.0,1180.0" style="stroke:#040104; fill:none;"/>
	<path d="M 763.0,1179.0 L 763.0,1180.0" style="stroke:#040104; fill:none;"/>
	<path d="M 718.0,1182.0 L 705.0,1189.0" style="stroke:#040104; fill:none;"/>
	<path d="M 763.0,1183.0 L 763.0,1184.0" style="stroke:#040104; fill:none;"/>
	<path d="M 437.0,1185.0 L 439.0,1185.0" style="stroke:#040104; fill:none;"/>
	<path d="M 444.0,1189.0 L 444.0,1190.0" style="stroke:#040104; fill:none;"/>
	<path d="M 764.0,1189.0 L 763.0,1192.0" style="stroke:#040104; fill:none;"/>
	<path d="M 700.0,1192.0 L 703.0,1190.0" style="stroke:#040104; fill:none;"/>
	<path d="M 445.0,1193.0 L 446.0,1193.0" style="stroke:#040104; fill:none;"/>
	<path d="M 693.0,1193.0 L 680.0,1202.0" style="stroke:#040104; fill:none;"/>
	<path d="M 696.0,1194.0 L 697.0,1194.0" style="stroke:#040104; fill:none;"/>
	<path d="M 766.0,1196.0 L 767.0,1198.0" style="stroke:#040104; fill:none;"/>
	<path d="M 451.0,1197.0 L 451.0,1198.0" style="stroke:#040104; fill:none;"/>
	<path d="M 455.0,1197.0 L 454.0,1198.0" style="stroke:#040104; fill:none;"/>
	<path d="M 457.0,1198.0 L 458.0,1200.0" style="stroke:#040104; fill:none;"/>
	<path d="M 769.0,1201.0 L 769.0,1202.0" style="stroke:#040104; fill:none;"/>
	<path d="M 795.0,1201.0 L 795.0,1202.0" style="stroke:#040104; fill:none;"/>
	<path d="M 677.0,1202.0 C 659.651,1211.16 635.211,1217.98 616.0,1222.0" style="stroke:#040104; fill:none;"/>
	<path d="M 464.0,1203.0 L 498.0,1218.0" style="stroke:#040104; fill:none;"/>
	<path d="M 668.0,1204.0 L 669.0,1205.0" style="stroke:#040104; fill:none;"/>
	<path d="M 769.0,1204.0 L 770.0,1204.0" style="stroke:#040104; fill:none;"/>
	<path d="M 793.0,1209.0 L 796.0,1205.0" style="stroke:#040104; fill:none;"/>
	<path d="M 771.0,1206.0 L 771.0,1217.0" style="stroke:#040104; fill:none;"/>
	<path d="M 500.0,1219.0 L 502.0,1220.0" style="stroke:#040104; fill:none;"/>
	<path d="M 505.0,1220.0 L 506.0,1222.0" style="stroke:#040104; fill:none;"/>
	<path d="M 795.0,1221.0 L 796.0,1228.0" style="stroke:#040104; fill:none;"/>
	<path d="M 613.0,1222.0 L 614.0,1222.0" style="stroke:#040104; fill:none;"/>
	<path d="M 516.0,1223.0 L 516.0,1224.0" style="stroke:#040104; fill:none;"/>
	<path d="M 603.0,1225.0 L 610.0,1223.0" style="stroke:#040104; fill:none;"/>
	<path d="M 512.0,1224.0 L 513.0,1224.0" style="stroke:#040104; fill:none;"/>
	<path d="M 531.0,1228.0 L 531.0,1229.0" style="stroke:#040104; fill:none;"/>
	<path d="M 774.0,1231.0 L 775.0,1247.0" style="stroke:#040104; fill:none;"/>
	<path d="M 335.0,1232.0 L 337.0,1236.0" style="stroke:#040104; fill:none;"/>
	<path d="M 798.0,1236.0 L 799.0,1264.0" style="stroke:#040104; fill:none;"/>
	<path d="M 817.0,1238.0 L 817.0,1239.0" style="stroke:#040104; fill:none;"/>
	<path d="M 337.0,1240.0 L 340.0,1249.0" style="stroke:#040104; fill:none;"/>
	<path d="M 822.0,1245.0 L 822.0,1246.0" style="stroke:#040104; fill:none;"/>
	<path d="M 821.0,1250.0 L 821.0,1251.0" style="stroke:#040104; fill:none;"/>
	<path d="M 774.0,1252.0 L 776.0,1256.0" style="stroke:#040104; fill:none;"/>
	<path d="M 340.0,1253.0 L 350.576,1283.0 L 353.0,1294.0" style="stroke:#040104; fill:none;"/>
	<path d="M 777.0,1257.0 L 776.0,1276.0 L 779.0,1275.0" style="stroke:#040104; fill:none;"/>
	<path d="M 826.0,1257.0 L 829.0,1272.0" style="stroke:#040104; fill:none;"/>
	<path d="M 801.0,1269.0 L 803.0,1285.0" style="stroke:#040104; fill:none;"/>
	<path d="M 775.0,1273.0 L 777.0,1271.0" style="stroke:#040104; fill:none;"/>
	<path d="M 830.0,1278.0 L 830.0,1281.0" style="stroke:#040104; fill:none;"/>
	<path d="M 775.0,1282.0 L 779.0,1282.0 L 780.0,1290.0 L 780.0,1287.0" style="stroke:#040104; fill:none;"/>
	<path d="M 801.0,1283.0 L 801.0,1285.0" style="stroke:#040104; fill:none;"/>
	<path d="M 835.0,1285.0 L 835.0,1286.0" style="stroke:#040104; fill:none;"/>
	<path d="M 833.0,1287.0 L 836.0,1290.0" style="stroke:#040104; fill:none;"/>
	<path d="M 799.0,1290.0 L 799.0,1291.0" style="stroke:#040104; fill:none;"/>
	<path d="M 803.0,1291.0 L 800.0,1299.0" style="stroke:#040104; fill:none;"/>
	<path d="M 836.0,1293.0 L 836.0,1294.0" style="stroke:#040104; fill:none;"/>
	<path d="M 778.0,1298.0 L 780.0,1297.0 C 779.833,1307.88 778.798,1321.39 785.0,1331.0" style="stroke:#040104; fill:none;"/>
	<path d="M 836.0,1296.0 L 837.0,1301.0" style="stroke:#040104; fill:none;"/>
	<path d="M 802.0,1297.0 L 804.0,1299.0" style="stroke:#040104; fill:none;"/>
	<path d="M 356.0,1298.0 L 360.0,1315.0" style="stroke:#040104; fill:none;"/>
	<path d="M 837.0,1303.0 L 838.0,1303.0" style="stroke:#040104; fill:none;"/>
	<path d="M 804.0,1306.0 C 801.489,1306.86 801.418,1306.55 802.0,1304.0 C 805.497,1307.86 806.262,1316.85 806.0,1322.0" style="stroke:#040104; fill:none;"/>
	<path d="M 844.0,1309.0 L 845.0,1307.0 L 850.0,1311.0" style="stroke:#040104; fill:none;"/>
	<path d="M 781.0,1308.0 L 781.0,1311.0" style="stroke:#040104; fill:none;"/>
	<path d="M 801.0,1309.0 L 801.0,1310.0" style="stroke:#040104; fill:none;"/>
	<path d="M 779.0,1315.0 L 779.0,1316.0" style="stroke:#040104; fill:none;"/>
	<path d="M 361.0,1316.0 L 363.0,1323.0" style="stroke:#040104; fill:none;"/>
	<path d="M 783.0,1324.0 L 783.0,1325.0" style="stroke:#040104; fill:none;"/>
	<path d="M 858.0,1326.0 L 858.0,1328.0" style="stroke:#040104; fill:none;"/>
	<path d="M 363.0,1327.0 L 364.0,1330.0" style="stroke:#040104; fill:none;"/>
	<path d="M 808.0,1333.0 L 807.0,1328.0 L 811.0,1340.0 L 809.0,1338.0" style="stroke:#040104; fill:none;"/>
	<path d="M 856.0,1331.0 L 854.0,1334.0" style="stroke:#040104; fill:none;"/>
	<path d="M 781.0,1334.0 C 785.196,1335.12 788.576,1341.19 786.0,1345.0" style="stroke:#040104; fill:none;"/>
	<path d="M 783.0,1339.0 L 784.0,1340.0" style="stroke:#040104; fill:none;"/>
	<path d="M 851.0,1340.0 L 853.0,1340.0" style="stroke:#040104; fill:none;"/>
	<path d="M 810.0,1341.0 L 809.0,1346.0" style="stroke:#040104; fill:none;"/>
	<path d="M 366.0,1344.0 L 366.0,1346.0" style="stroke:#040104; fill:none;"/>
	<path d="M 847.0,1353.0 L 852.0,1344.0" style="stroke:#040104; fill:none;"/>
	<path d="M 790.0,1347.0 L 796.0,1380.0 L 794.0,1379.0" style="stroke:#040104; fill:none;"/>
	<path d="M 367.0,1349.0 L 367.0,1350.0" style="stroke:#040104; fill:none;"/>
	<path d="M 807.0,1349.0 C 813.076,1355.41 812.957,1368.62 814.0,1377.0" style="stroke:#040104; fill:none;"/>
	<path d="M 369.0,1357.0 L 369.0,1358.0" style="stroke:#040104; fill:none;"/>
	<path d="M 844.0,1358.0 L 844.0,1359.0" style="stroke:#040104; fill:none;"/>
	<path d="M 791.0,1359.0 L 794.0,1362.0" style="stroke:#040104; fill:none;"/>
	<path d="M 841.0,1362.0 L 838.0,1368.0" style="stroke:#040104; fill:none;"/>
	<path d="M 370.0,1364.0 L 370.0,1365.0" style="stroke:#040104; fill:none;"/>
	<path d="M 370.0,1369.0 L 372.0,1372.0" style="stroke:#040104; fill:none;"/>
	<path d="M 836.0,1371.0 L 818.0,1396.0" style="stroke:#040104; fill:none;"/>
	<path d="M 375.0,1380.0 L 375.0,1383.0" style="stroke:#040104; fill:none;"/>
	<path d="M 814.0,1381.0 L 816.0,1380.0" style="stroke:#040104; fill:none;"/>
	<path d="M 795.0,1381.0 L 795.0,1389.0" style="stroke:#040104; fill:none;"/>
	<path d="M 796.0,1393.0 L 797.0,1411.0 L 795.0,1409.0" style="stroke:#040104; fill:none;"/>
	<path d="M 809.0,1401.0 L 810.0,1401.0" style="stroke:#040104; fill:none;"/>
	<path d="M 802.0,1408.0 L 806.0,1405.0" style="stroke:#040104; fill:none;"/>
	<path d="M 800.0,1409.0 L 799.0,1410.0" style="stroke:#040104; fill:none;"/>
	<path d="M 794.0,1415.0 L 797.0,1415.0" style="stroke:#040104; fill:none;"/>
	<path d="M 791.0,1418.0 L 789.0,1420.0" style="stroke:#040104; fill:none;"/>
	<path d="M 785.0,1421.0 L 776.0,1430.0" style="stroke:#040104; fill:none;"/>
	<path d="M 770.0,1433.0 L 770.0,1435.0" style="stroke:#040104; fill:none;"/>
	<path d="M 738.0,1449.0 L 726.0,1454.0" style="stroke:#040104; fill:none;"/>
</svg>
