<?xml version="1.0" ?>
<svg baseProfile="full" height="1079" version="1.1" width="1061" xmlns="http://www.w3.org/2000/svg" xmlns:ev="http://www.w3.org/2001/xml-events" xmlns:xlink="http://www.w3.org/1999/xlink">
	<defs/>
	<path d="M 323.0,339.0 L 326.0,339.0" style="stroke:#070107; fill:none;"/>
	<path d="M 329.0,342.0 L 329.0,343.0" style="stroke:#070107; fill:none;"/>
	<path d="M 323.0,348.0 L 324.0,348.0" style="stroke:#070107; fill:none;"/>
	<path d="M 331.0,349.0 L 332.0,351.0" style="stroke:#070107; fill:none;"/>
	<path d="M 300.0,352.0 L 300.0,353.0" style="stroke:#070107; fill:none;"/>
	<path d="M 302.0,352.0 L 304.0,352.0" style="stroke:#070107; fill:none;"/>
	<path d="M 316.0,352.0 L 317.0,353.0" style="stroke:#070107; fill:none;"/>
	<path d="M 313.0,353.0 L 314.0,353.0" style="stroke:#070107; fill:none;"/>
	<path d="M 306.0,354.0 L 307.0,355.0" style="stroke:#070107; fill:none;"/>
	<path d="M 349.0,357.0 L 350.0,357.0" style="stroke:#070107; fill:none;"/>
	<path d="M 293.0,368.0 L 295.0,360.0" style="stroke:#070107; fill:none;"/>
	<path d="M 367.0,361.0 L 369.0,363.0" style="stroke:#070107; fill:none;"/>
	<path d="M 375.0,367.0 L 376.0,368.0" style="stroke:#070107; fill:none;"/>
	<path d="M 288.0,373.0 L 291.0,372.0" style="stroke:#070107; fill:none;"/>
	<path d="M 286.0,376.0 L 289.0,377.0" style="stroke:#070107; fill:none;"/>
	<path d="M 284.0,387.0 L 282.0,387.0 L 288.0,380.0" style="stroke:#070107; fill:none;"/>
	<path d="M 405.0,388.0 L 406.0,390.0" style="stroke:#070107; fill:none;"/>
	<path d="M 282.0,390.0 L 283.0,395.0" style="stroke:#070107; fill:none;"/>
	<path d="M 283.0,399.0 L 281.0,404.0" style="stroke:#070107; fill:none;"/>
	<path d="M 400.0,399.0 L 401.0,399.0" style="stroke:#070107; fill:none;"/>
	<path d="M 280.0,407.0 L 281.0,407.0" style="stroke:#070107; fill:none;"/>
	<path d="M 422.0,407.0 L 423.0,407.0" style="stroke:#070107; fill:none;"/>
	<path d="M 280.0,409.0 L 280.0,412.0" style="stroke:#070107; fill:none;"/>
	<path d="M 278.0,410.0 L 278.0,411.0" style="stroke:#070107; fill:none;"/>
	<path d="M 278.0,413.0 L 277.0,418.0" style="stroke:#070107; fill:none;"/>
	<path d="M 310.0,418.0 L 307.0,420.0" style="stroke:#070107; fill:none;"/>
	<path d="M 276.0,422.0 L 275.0,429.0" style="stroke:#070107; fill:none;"/>
	<path d="M 299.0,428.0 L 300.0,428.0" style="stroke:#070107; fill:none;"/>
	<path d="M 270.0,448.0 L 268.0,448.0 L 274.0,435.0" style="stroke:#070107; fill:none;"/>
	<path d="M 316.0,433.0 L 316.0,435.0" style="stroke:#070107; fill:none;"/>
	<path d="M 291.0,434.0 L 288.0,436.0" style="stroke:#070107; fill:none;"/>
	<path d="M 310.0,434.0 L 314.0,436.0" style="stroke:#070107; fill:none;"/>
	<path d="M 318.0,435.0 L 319.0,435.0" style="stroke:#070107; fill:none;"/>
	<path d="M 329.0,435.0 L 330.0,438.0" style="stroke:#070107; fill:none;"/>
	<path d="M 322.0,436.0 L 328.0,438.0" style="stroke:#070107; fill:none;"/>
	<path d="M 313.0,438.0 L 315.0,438.0" style="stroke:#070107; fill:none;"/>
	<path d="M 338.0,438.0 L 338.0,439.0" style="stroke:#070107; fill:none;"/>
	<path d="M 281.0,442.0 L 289.0,439.0" style="stroke:#070107; fill:none;"/>
	<path d="M 291.0,439.0 L 302.0,441.0" style="stroke:#070107; fill:none;"/>
	<path d="M 306.0,439.0 L 305.0,441.0" style="stroke:#070107; fill:none;"/>
	<path d="M 334.0,441.0 L 336.0,441.0" style="stroke:#070107; fill:none;"/>
	<path d="M 276.0,441.0 L 278.0,443.0" style="stroke:#070107; fill:none;"/>
	<path d="M 280.0,440.0 L 279.0,441.0" style="stroke:#070107; fill:none;"/>
	<path d="M 293.0,441.0 L 292.0,442.0" style="stroke:#070107; fill:none;"/>
	<path d="M 329.0,441.0 L 329.0,442.0" style="stroke:#070107; fill:none;"/>
	<path d="M 339.0,441.0 L 341.0,444.0" style="stroke:#070107; fill:none;"/>
	<path d="M 289.0,442.0 L 290.0,442.0" style="stroke:#070107; fill:none;"/>
	<path d="M 323.0,442.0 L 324.0,442.0" style="stroke:#070107; fill:none;"/>
	<path d="M 274.0,443.0 L 278.0,445.0" style="stroke:#070107; fill:none;"/>
	<path d="M 276.0,443.0 L 276.0,444.0" style="stroke:#070107; fill:none;"/>
	<path d="M 303.0,443.0 L 285.0,447.0" style="stroke:#070107; fill:none;"/>
	<path d="M 280.0,445.0 L 281.0,446.0" style="stroke:#070107; fill:none;"/>
	<path d="M 288.0,445.0 L 289.0,446.0" style="stroke:#070107; fill:none;"/>
	<path d="M 300.0,446.0 L 301.0,446.0" style="stroke:#070107; fill:none;"/>
	<path d="M 335.0,446.0 L 340.0,448.0" style="stroke:#070107; fill:none;"/>
	<path d="M 317.0,447.0 L 317.0,448.0" style="stroke:#070107; fill:none;"/>
	<path d="M 345.0,447.0 L 347.0,450.0" style="stroke:#070107; fill:none;"/>
	<path d="M 346.0,448.0 L 344.0,450.0" style="stroke:#070107; fill:none;"/>
	<path d="M 350.0,449.0 L 351.0,449.0" style="stroke:#070107; fill:none;"/>
	<path d="M 269.0,450.0 C 263.812,459.284 255.848,472.071 256.0,483.0" style="stroke:#070107; fill:none;"/>
	<path d="M 380.0,450.0 L 380.0,451.0" style="stroke:#070107; fill:none;"/>
	<path d="M 358.0,451.0 L 354.0,454.0" style="stroke:#070107; fill:none;"/>
	<path d="M 331.0,452.0 L 330.0,453.0" style="stroke:#070107; fill:none;"/>
	<path d="M 352.0,454.0 L 352.0,452.0" style="stroke:#070107; fill:none;"/>
	<path d="M 362.0,453.0 L 363.0,453.0" style="stroke:#070107; fill:none;"/>
	<path d="M 266.0,454.0 L 267.0,455.0" style="stroke:#070107; fill:none;"/>
	<path d="M 343.0,454.0 L 344.0,454.0" style="stroke:#070107; fill:none;"/>
	<path d="M 364.0,456.0 L 369.0,456.0" style="stroke:#070107; fill:none;"/>
	<path d="M 315.0,456.0 L 315.0,457.0" style="stroke:#070107; fill:none;"/>
	<path d="M 344.0,457.0 L 346.0,459.0" style="stroke:#070107; fill:none;"/>
	<path d="M 353.0,456.0 L 354.0,456.0" style="stroke:#070107; fill:none;"/>
	<path d="M 303.0,458.0 L 304.0,461.0" style="stroke:#070107; fill:none;"/>
	<path d="M 309.0,459.0 L 308.0,460.0" style="stroke:#070107; fill:none;"/>
	<path d="M 363.0,460.0 L 364.0,460.0" style="stroke:#070107; fill:none;"/>
	<path d="M 373.0,460.0 L 374.0,461.0" style="stroke:#070107; fill:none;"/>
	<path d="M 315.0,461.0 L 316.0,461.0" style="stroke:#070107; fill:none;"/>
	<path d="M 329.0,461.0 L 328.0,462.0" style="stroke:#070107; fill:none;"/>
	<path d="M 357.0,462.0 L 359.0,462.0" style="stroke:#070107; fill:none;"/>
	<path d="M 563.0,461.0 L 565.0,461.0" style="stroke:#070107; fill:none;"/>
	<path d="M 347.0,462.0 L 348.0,465.0" style="stroke:#070107; fill:none;"/>
	<path d="M 258.0,464.0 L 259.0,464.0" style="stroke:#070107; fill:none;"/>
	<path d="M 307.0,464.0 L 308.0,467.0" style="stroke:#070107; fill:none;"/>
	<path d="M 369.0,464.0 L 368.0,465.0" style="stroke:#070107; fill:none;"/>
	<path d="M 572.0,464.0 L 572.0,465.0" style="stroke:#070107; fill:none;"/>
	<path d="M 578.0,466.0 L 585.0,469.0" style="stroke:#070107; fill:none;"/>
	<path d="M 374.0,466.0 L 374.0,467.0" style="stroke:#070107; fill:none;"/>
	<path d="M 378.0,466.0 L 378.0,468.0" style="stroke:#070107; fill:none;"/>
	<path d="M 409.0,466.0 L 409.0,468.0" style="stroke:#070107; fill:none;"/>
	<path d="M 629.0,466.0 L 631.0,467.0" style="stroke:#070107; fill:none;"/>
	<path d="M 347.0,467.0 L 347.0,469.0" style="stroke:#070107; fill:none;"/>
	<path d="M 587.0,468.0 L 591.0,470.0" style="stroke:#070107; fill:none;"/>
	<path d="M 296.0,469.0 L 303.0,469.0" style="stroke:#070107; fill:none;"/>
	<path d="M 632.0,469.0 L 633.0,469.0" style="stroke:#070107; fill:none;"/>
	<path d="M 309.0,470.0 L 310.0,470.0" style="stroke:#070107; fill:none;"/>
	<path d="M 318.0,470.0 L 317.0,471.0" style="stroke:#070107; fill:none;"/>
	<path d="M 341.0,471.0 L 344.0,470.0" style="stroke:#070107; fill:none;"/>
	<path d="M 357.0,470.0 L 356.0,473.0" style="stroke:#070107; fill:none;"/>
	<path d="M 594.0,470.0 L 605.0,476.0" style="stroke:#070107; fill:none;"/>
	<path d="M 381.0,471.0 L 383.0,474.0" style="stroke:#070107; fill:none;"/>
	<path d="M 339.0,472.0 L 339.0,473.0" style="stroke:#070107; fill:none;"/>
	<path d="M 370.0,474.0 L 369.0,475.0" style="stroke:#070107; fill:none;"/>
	<path d="M 303.0,476.0 L 304.0,476.0" style="stroke:#070107; fill:none;"/>
	<path d="M 607.0,476.0 L 607.0,477.0" style="stroke:#070107; fill:none;"/>
	<path d="M 255.0,478.0 L 256.0,478.0" style="stroke:#070107; fill:none;"/>
	<path d="M 354.0,478.0 L 354.0,479.0" style="stroke:#070107; fill:none;"/>
	<path d="M 309.0,479.0 L 310.0,480.0" style="stroke:#070107; fill:none;"/>
	<path d="M 352.0,479.0 L 351.0,480.0" style="stroke:#070107; fill:none;"/>
	<path d="M 614.0,479.0 L 615.0,480.0" style="stroke:#070107; fill:none;"/>
	<path d="M 603.0,480.0 L 604.0,480.0" style="stroke:#070107; fill:none;"/>
	<path d="M 619.0,480.0 L 622.0,483.0" style="stroke:#070107; fill:none;"/>
	<path d="M 608.0,481.0 L 608.0,482.0" style="stroke:#070107; fill:none;"/>
	<path d="M 617.0,481.0 L 618.0,482.0" style="stroke:#070107; fill:none;"/>
	<path d="M 634.0,482.0 L 635.0,484.0" style="stroke:#070107; fill:none;"/>
	<path d="M 627.0,486.0 L 630.0,487.0" style="stroke:#070107; fill:none;"/>
	<path d="M 314.0,485.0 L 315.0,485.0" style="stroke:#070107; fill:none;"/>
	<path d="M 356.0,485.0 L 358.0,485.0" style="stroke:#070107; fill:none;"/>
	<path d="M 643.0,485.0 L 644.0,485.0" style="stroke:#070107; fill:none;"/>
	<path d="M 253.0,486.0 L 252.0,491.0" style="stroke:#070107; fill:none;"/>
	<path d="M 617.0,486.0 L 618.0,486.0" style="stroke:#070107; fill:none;"/>
	<path d="M 250.0,487.0 L 251.0,488.0" style="stroke:#070107; fill:none;"/>
	<path d="M 623.0,488.0 L 625.0,488.0" style="stroke:#070107; fill:none;"/>
	<path d="M 650.0,487.0 L 649.0,488.0" style="stroke:#070107; fill:none;"/>
	<path d="M 632.0,488.0 L 634.0,489.0" style="stroke:#070107; fill:none;"/>
	<path d="M 371.0,489.0 L 372.0,489.0" style="stroke:#070107; fill:none;"/>
	<path d="M 375.0,489.0 L 376.0,490.0" style="stroke:#070107; fill:none;"/>
	<path d="M 625.0,490.0 L 628.0,490.0" style="stroke:#070107; fill:none;"/>
	<path d="M 646.0,490.0 L 645.0,492.0" style="stroke:#070107; fill:none;"/>
	<path d="M 638.0,491.0 L 641.0,493.0" style="stroke:#070107; fill:none;"/>
	<path d="M 642.0,491.0 L 643.0,492.0" style="stroke:#070107; fill:none;"/>
	<path d="M 654.0,491.0 L 654.0,493.0" style="stroke:#070107; fill:none;"/>
	<path d="M 614.0,492.0 L 615.0,492.0" style="stroke:#070107; fill:none;"/>
	<path d="M 632.0,493.0 L 634.0,492.0" style="stroke:#070107; fill:none;"/>
	<path d="M 657.0,492.0 L 657.0,493.0" style="stroke:#070107; fill:none;"/>
	<path d="M 248.0,497.0 L 250.0,494.0" style="stroke:#070107; fill:none;"/>
	<path d="M 337.0,493.0 L 335.0,496.0" style="stroke:#070107; fill:none;"/>
	<path d="M 618.0,493.0 L 619.0,493.0" style="stroke:#070107; fill:none;"/>
	<path d="M 636.0,496.0 L 639.0,496.0" style="stroke:#070107; fill:none;"/>
	<path d="M 660.0,495.0 L 661.0,496.0" style="stroke:#070107; fill:none;"/>
	<path d="M 641.0,497.0 L 644.0,498.0" style="stroke:#070107; fill:none;"/>
	<path d="M 648.0,496.0 L 649.0,497.0" style="stroke:#070107; fill:none;"/>
	<path d="M 657.0,498.0 L 658.0,500.0" style="stroke:#070107; fill:none;"/>
	<path d="M 661.0,499.0 L 665.0,499.0" style="stroke:#070107; fill:none;"/>
	<path d="M 661.0,501.0 L 661.0,502.0" style="stroke:#070107; fill:none;"/>
	<path d="M 667.0,502.0 L 672.0,506.0" style="stroke:#070107; fill:none;"/>
	<path d="M 678.0,503.0 L 681.0,506.0" style="stroke:#070107; fill:none;"/>
	<path d="M 665.0,504.0 L 664.0,505.0" style="stroke:#070107; fill:none;"/>
	<path d="M 699.0,506.0 L 699.0,507.0" style="stroke:#070107; fill:none;"/>
	<path d="M 667.0,507.0 L 669.0,509.0" style="stroke:#070107; fill:none;"/>
	<path d="M 241.0,509.0 L 241.0,510.0" style="stroke:#070107; fill:none;"/>
	<path d="M 701.0,509.0 L 702.0,512.0" style="stroke:#070107; fill:none;"/>
	<path d="M 687.0,511.0 L 688.0,516.0" style="stroke:#070107; fill:none;"/>
	<path d="M 704.0,515.0 L 704.0,517.0 L 704.0,515.0" style="stroke:#070107; fill:none;"/>
	<path d="M 694.0,518.0 L 694.0,519.0" style="stroke:#070107; fill:none;"/>
	<path d="M 697.0,518.0 L 697.0,519.0" style="stroke:#070107; fill:none;"/>
	<path d="M 706.0,519.0 L 709.0,525.0" style="stroke:#070107; fill:none;"/>
	<path d="M 701.0,527.0 L 702.0,527.0" style="stroke:#070107; fill:none;"/>
	<path d="M 705.0,528.0 L 707.0,529.0" style="stroke:#070107; fill:none;"/>
	<path d="M 710.0,528.0 L 714.0,529.0" style="stroke:#070107; fill:none;"/>
	<path d="M 712.0,529.0 L 714.0,535.0" style="stroke:#070107; fill:none;"/>
	<path d="M 586.0,531.0 L 588.0,532.0" style="stroke:#070107; fill:none;"/>
	<path d="M 707.0,531.0 L 708.0,532.0" style="stroke:#070107; fill:none;"/>
	<path d="M 710.0,533.0 L 709.0,534.0" style="stroke:#070107; fill:none;"/>
	<path d="M 706.0,536.0 L 706.0,537.0" style="stroke:#070107; fill:none;"/>
	<path d="M 711.0,536.0 L 713.0,542.0" style="stroke:#070107; fill:none;"/>
	<path d="M 226.0,537.0 L 226.0,539.0" style="stroke:#070107; fill:none;"/>
	<path d="M 718.0,538.0 L 720.0,539.0" style="stroke:#070107; fill:none;"/>
	<path d="M 718.0,541.0 L 720.0,544.0" style="stroke:#070107; fill:none;"/>
	<path d="M 223.0,543.0 L 223.0,545.0" style="stroke:#070107; fill:none;"/>
	<path d="M 718.0,544.0 L 721.0,546.0" style="stroke:#070107; fill:none;"/>
	<path d="M 221.0,547.0 L 223.0,547.0" style="stroke:#070107; fill:none;"/>
	<path d="M 568.0,547.0 L 579.0,552.0" style="stroke:#070107; fill:none;"/>
	<path d="M 221.0,549.0 L 222.0,549.0" style="stroke:#070107; fill:none;"/>
	<path d="M 556.0,549.0 L 557.0,549.0" style="stroke:#070107; fill:none;"/>
	<path d="M 571.0,552.0 L 569.0,549.0 L 565.0,553.0" style="stroke:#070107; fill:none;"/>
	<path d="M 552.0,551.0 L 555.0,551.0" style="stroke:#070107; fill:none;"/>
	<path d="M 549.0,551.0 L 543.0,553.0" style="stroke:#070107; fill:none;"/>
	<path d="M 567.0,551.0 L 569.0,553.0" style="stroke:#070107; fill:none;"/>
	<path d="M 581.0,551.0 L 582.0,551.0" style="stroke:#070107; fill:none;"/>
	<path d="M 727.0,551.0 L 725.0,555.0" style="stroke:#070107; fill:none;"/>
	<path d="M 584.0,552.0 L 588.0,552.0" style="stroke:#070107; fill:none;"/>
	<path d="M 219.0,554.0 L 216.0,566.0" style="stroke:#070107; fill:none;"/>
	<path d="M 541.0,554.0 L 542.0,555.0" style="stroke:#070107; fill:none;"/>
	<path d="M 592.0,556.0 L 591.0,558.0" style="stroke:#070107; fill:none;"/>
	<path d="M 536.0,557.0 L 535.0,560.0" style="stroke:#070107; fill:none;"/>
	<path d="M 563.0,557.0 L 562.0,562.0" style="stroke:#070107; fill:none;"/>
	<path d="M 572.0,557.0 L 574.0,557.0" style="stroke:#070107; fill:none;"/>
	<path d="M 543.0,558.0 L 544.0,560.0" style="stroke:#070107; fill:none;"/>
	<path d="M 595.0,558.0 L 597.0,559.0" style="stroke:#070107; fill:none;"/>
	<path d="M 599.0,560.0 L 600.0,560.0" style="stroke:#070107; fill:none;"/>
	<path d="M 605.0,560.0 L 606.0,560.0" style="stroke:#070107; fill:none;"/>
	<path d="M 581.0,565.0 L 585.0,561.0" style="stroke:#070107; fill:none;"/>
	<path d="M 588.0,561.0 L 589.0,562.0" style="stroke:#070107; fill:none;"/>
	<path d="M 604.0,565.0 L 603.0,562.0 L 609.0,567.0" style="stroke:#070107; fill:none;"/>
	<path d="M 592.0,563.0 L 594.0,563.0" style="stroke:#070107; fill:none;"/>
	<path d="M 736.0,564.0 L 736.0,565.0" style="stroke:#070107; fill:none;"/>
	<path d="M 561.0,565.0 L 562.0,568.0" style="stroke:#070107; fill:none;"/>
	<path d="M 501.0,566.0 L 502.0,566.0" style="stroke:#070107; fill:none;"/>
	<path d="M 544.0,566.0 L 545.0,566.0" style="stroke:#070107; fill:none;"/>
	<path d="M 651.0,566.0 L 654.0,568.0" style="stroke:#070107; fill:none;"/>
	<path d="M 547.0,567.0 L 547.0,568.0" style="stroke:#070107; fill:none;"/>
	<path d="M 580.0,567.0 L 581.0,567.0" style="stroke:#070107; fill:none;"/>
	<path d="M 612.0,568.0 L 611.0,583.0" style="stroke:#070107; fill:none;"/>
	<path d="M 550.0,569.0 L 552.0,569.0" style="stroke:#070107; fill:none;"/>
	<path d="M 580.0,570.0 L 581.0,571.0" style="stroke:#070107; fill:none;"/>
	<path d="M 618.0,570.0 L 619.0,572.0" style="stroke:#070107; fill:none;"/>
	<path d="M 553.0,571.0 L 554.0,572.0" style="stroke:#070107; fill:none;"/>
	<path d="M 621.0,572.0 L 621.0,574.0" style="stroke:#070107; fill:none;"/>
	<path d="M 581.0,573.0 L 582.0,573.0" style="stroke:#070107; fill:none;"/>
	<path d="M 559.0,575.0 L 564.0,578.0" style="stroke:#070107; fill:none;"/>
	<path d="M 563.0,575.0 L 562.0,576.0" style="stroke:#070107; fill:none;"/>
	<path d="M 583.0,576.0 L 582.0,577.0" style="stroke:#070107; fill:none;"/>
	<path d="M 625.0,576.0 L 628.0,579.0" style="stroke:#070107; fill:none;"/>
	<path d="M 628.0,576.0 L 627.0,577.0" style="stroke:#070107; fill:none;"/>
	<path d="M 631.0,580.0 L 632.0,578.0" style="stroke:#070107; fill:none;"/>
	<path d="M 584.0,579.0 L 587.0,580.0" style="stroke:#070107; fill:none;"/>
	<path d="M 567.0,581.0 L 570.0,585.0" style="stroke:#070107; fill:none;"/>
	<path d="M 594.0,581.0 L 593.0,582.0" style="stroke:#070107; fill:none;"/>
	<path d="M 589.0,582.0 L 591.0,582.0" style="stroke:#070107; fill:none;"/>
	<path d="M 631.0,583.0 L 637.0,585.0" style="stroke:#070107; fill:none;"/>
	<path d="M 335.0,583.0 L 335.0,584.0" style="stroke:#070107; fill:none;"/>
	<path d="M 620.0,583.0 L 621.0,584.0" style="stroke:#070107; fill:none;"/>
	<path d="M 618.0,584.0 L 619.0,585.0" style="stroke:#070107; fill:none;"/>
	<path d="M 669.0,584.0 L 670.0,585.0" style="stroke:#070107; fill:none;"/>
	<path d="M 629.0,585.0 L 628.0,586.0" style="stroke:#070107; fill:none;"/>
	<path d="M 612.0,586.0 L 613.0,587.0" style="stroke:#070107; fill:none;"/>
	<path d="M 332.0,587.0 L 331.0,588.0" style="stroke:#070107; fill:none;"/>
	<path d="M 573.0,588.0 L 574.0,590.0" style="stroke:#070107; fill:none;"/>
	<path d="M 633.0,588.0 L 633.0,591.0" style="stroke:#070107; fill:none;"/>
	<path d="M 611.0,589.0 L 610.0,591.0" style="stroke:#070107; fill:none;"/>
	<path d="M 622.0,589.0 L 624.0,590.0" style="stroke:#070107; fill:none;"/>
	<path d="M 643.0,589.0 L 656.0,601.0" style="stroke:#070107; fill:none;"/>
	<path d="M 560.0,590.0 L 558.0,592.0" style="stroke:#070107; fill:none;"/>
	<path d="M 566.0,590.0 L 564.0,592.0" style="stroke:#070107; fill:none;"/>
	<path d="M 630.0,590.0 L 631.0,591.0" style="stroke:#070107; fill:none;"/>
	<path d="M 626.0,591.0 L 629.0,593.0" style="stroke:#070107; fill:none;"/>
	<path d="M 209.0,593.0 L 209.0,594.0" style="stroke:#070107; fill:none;"/>
	<path d="M 327.0,594.0 L 326.0,595.0" style="stroke:#070107; fill:none;"/>
	<path d="M 601.0,597.0 L 605.0,595.0" style="stroke:#070107; fill:none;"/>
	<path d="M 630.0,596.0 L 631.0,597.0" style="stroke:#070107; fill:none;"/>
	<path d="M 633.0,596.0 L 634.0,596.0" style="stroke:#070107; fill:none;"/>
	<path d="M 599.0,597.0 L 598.0,600.0 L 593.0,598.0" style="stroke:#070107; fill:none;"/>
	<path d="M 323.0,598.0 L 322.0,599.0" style="stroke:#070107; fill:none;"/>
	<path d="M 640.0,599.0 L 640.0,601.0" style="stroke:#070107; fill:none;"/>
	<path d="M 208.0,601.0 L 207.0,604.0" style="stroke:#070107; fill:none;"/>
	<path d="M 567.0,601.0 L 568.0,601.0" style="stroke:#070107; fill:none;"/>
	<path d="M 604.0,601.0 L 605.0,601.0" style="stroke:#070107; fill:none;"/>
	<path d="M 608.0,601.0 L 607.0,602.0" style="stroke:#070107; fill:none;"/>
	<path d="M 579.0,603.0 L 582.0,602.0" style="stroke:#070107; fill:none;"/>
	<path d="M 586.0,603.0 L 588.0,602.0" style="stroke:#070107; fill:none;"/>
	<path d="M 611.0,602.0 L 614.0,604.0" style="stroke:#070107; fill:none;"/>
	<path d="M 619.0,604.0 L 629.0,606.0" style="stroke:#070107; fill:none;"/>
	<path d="M 659.0,604.0 L 662.0,604.0 L 665.0,607.0" style="stroke:#070107; fill:none;"/>
	<path d="M 571.0,604.0 L 575.0,608.0" style="stroke:#070107; fill:none;"/>
	<path d="M 654.0,604.0 L 654.0,605.0" style="stroke:#070107; fill:none;"/>
	<path d="M 664.0,604.0 L 664.0,605.0" style="stroke:#070107; fill:none;"/>
	<path d="M 583.0,606.0 L 585.0,606.0" style="stroke:#070107; fill:none;"/>
	<path d="M 631.0,605.0 L 632.0,605.0" style="stroke:#070107; fill:none;"/>
	<path d="M 635.0,607.0 L 636.0,605.0 L 640.0,606.0" style="stroke:#070107; fill:none;"/>
	<path d="M 642.0,605.0 L 650.0,605.0" style="stroke:#070107; fill:none;"/>
	<path d="M 307.0,607.0 L 306.0,608.0" style="stroke:#070107; fill:none;"/>
	<path d="M 206.0,608.0 L 206.0,612.0" style="stroke:#070107; fill:none;"/>
	<path d="M 645.0,608.0 L 650.0,613.0" style="stroke:#070107; fill:none;"/>
	<path d="M 654.0,608.0 L 653.0,609.0" style="stroke:#070107; fill:none;"/>
	<path d="M 659.0,608.0 L 659.0,609.0" style="stroke:#070107; fill:none;"/>
	<path d="M 611.0,610.0 L 612.0,610.0" style="stroke:#070107; fill:none;"/>
	<path d="M 650.0,610.0 L 648.0,612.0" style="stroke:#070107; fill:none;"/>
	<path d="M 573.0,612.0 L 572.0,613.0" style="stroke:#070107; fill:none;"/>
	<path d="M 610.0,612.0 L 610.0,613.0" style="stroke:#070107; fill:none;"/>
	<path d="M 631.0,613.0 L 630.0,614.0" style="stroke:#070107; fill:none;"/>
	<path d="M 593.0,614.0 L 594.0,614.0" style="stroke:#070107; fill:none;"/>
	<path d="M 654.0,614.0 L 655.0,614.0" style="stroke:#070107; fill:none;"/>
	<path d="M 641.0,615.0 L 642.0,616.0" style="stroke:#070107; fill:none;"/>
	<path d="M 204.0,616.0 L 205.0,616.0" style="stroke:#070107; fill:none;"/>
	<path d="M 604.0,617.0 L 604.0,618.0" style="stroke:#070107; fill:none;"/>
	<path d="M 664.0,617.0 L 664.0,619.0" style="stroke:#070107; fill:none;"/>
	<path d="M 661.0,618.0 L 662.0,619.0" style="stroke:#070107; fill:none;"/>
	<path d="M 204.0,619.0 L 203.0,622.0" style="stroke:#070107; fill:none;"/>
	<path d="M 656.0,619.0 L 656.0,620.0" style="stroke:#070107; fill:none;"/>
	<path d="M 612.0,620.0 L 611.0,623.0" style="stroke:#070107; fill:none;"/>
	<path d="M 669.0,620.0 L 669.0,621.0" style="stroke:#070107; fill:none;"/>
	<path d="M 599.0,623.0 L 600.0,623.0" style="stroke:#070107; fill:none;"/>
	<path d="M 649.0,624.0 L 649.0,625.0" style="stroke:#070107; fill:none;"/>
	<path d="M 665.0,624.0 L 665.0,626.0" style="stroke:#070107; fill:none;"/>
	<path d="M 632.0,625.0 L 633.0,626.0" style="stroke:#070107; fill:none;"/>
	<path d="M 671.0,625.0 L 671.0,626.0" style="stroke:#070107; fill:none;"/>
	<path d="M 202.0,627.0 L 201.0,631.0" style="stroke:#070107; fill:none;"/>
	<path d="M 634.0,629.0 L 634.0,632.0" style="stroke:#070107; fill:none;"/>
	<path d="M 663.0,631.0 L 663.0,632.0" style="stroke:#070107; fill:none;"/>
	<path d="M 667.0,632.0 L 668.0,632.0" style="stroke:#070107; fill:none;"/>
	<path d="M 314.0,634.0 L 314.0,635.0" style="stroke:#070107; fill:none;"/>
	<path d="M 197.0,644.0 L 200.0,638.0" style="stroke:#070107; fill:none;"/>
	<path d="M 327.0,649.0 L 328.0,651.0" style="stroke:#070107; fill:none;"/>
	<path d="M 331.0,657.0 L 331.0,658.0" style="stroke:#070107; fill:none;"/>
	<path d="M 376.0,671.0 L 378.0,670.0" style="stroke:#070107; fill:none;"/>
	<path d="M 387.0,670.0 L 389.0,670.0" style="stroke:#070107; fill:none;"/>
	<path d="M 193.0,671.0 L 194.0,677.0" style="stroke:#070107; fill:none;"/>
	<path d="M 341.0,671.0 L 341.0,672.0" style="stroke:#070107; fill:none;"/>
	<path d="M 401.0,676.0 L 403.0,678.0" style="stroke:#070107; fill:none;"/>
	<path d="M 393.0,677.0 L 394.0,677.0" style="stroke:#070107; fill:none;"/>
	<path d="M 364.0,678.0 L 365.0,678.0" style="stroke:#070107; fill:none;"/>
	<path d="M 400.0,678.0 L 401.0,679.0" style="stroke:#070107; fill:none;"/>
	<path d="M 193.0,681.0 L 194.0,684.0" style="stroke:#070107; fill:none;"/>
	<path d="M 192.0,686.0 L 192.0,687.0" style="stroke:#070107; fill:none;"/>
	<path d="M 401.0,700.0 L 405.0,702.0" style="stroke:#070107; fill:none;"/>
	<path d="M 193.0,703.0 L 194.0,703.0" style="stroke:#070107; fill:none;"/>
	<path d="M 409.0,704.0 L 409.0,705.0" style="stroke:#070107; fill:none;"/>
	<path d="M 418.0,707.0 L 420.0,707.0" style="stroke:#070107; fill:none;"/>
	<path d="M 422.0,707.0 L 423.0,707.0" style="stroke:#070107; fill:none;"/>
	<path d="M 193.0,717.0 L 192.0,718.0" style="stroke:#070107; fill:none;"/>
	<path d="M 294.0,726.0 L 293.0,727.0" style="stroke:#070107; fill:none;"/>
	<path d="M 194.0,737.0 L 193.0,742.0" style="stroke:#070107; fill:none;"/>
	<path d="M 259.0,740.0 L 262.0,741.0" style="stroke:#070107; fill:none;"/>
	<path d="M 195.0,744.0 L 195.0,745.0" style="stroke:#070107; fill:none;"/>
	<path d="M 272.0,744.0 L 272.0,745.0" style="stroke:#070107; fill:none;"/>
	<path d="M 289.0,745.0 L 292.0,745.0" style="stroke:#070107; fill:none;"/>
	<path d="M 298.0,745.0 L 306.0,750.0" style="stroke:#070107; fill:none;"/>
	<path d="M 279.0,747.0 L 280.0,749.0" style="stroke:#070107; fill:none;"/>
	<path d="M 297.0,747.0 L 297.0,748.0" style="stroke:#070107; fill:none;"/>
	<path d="M 194.0,750.0 L 194.0,754.0" style="stroke:#070107; fill:none;"/>
	<path d="M 349.0,750.0 L 350.0,750.0" style="stroke:#070107; fill:none;"/>
	<path d="M 309.0,752.0 L 313.0,755.0" style="stroke:#070107; fill:none;"/>
	<path d="M 193.0,756.0 L 195.0,758.0" style="stroke:#070107; fill:none;"/>
	<path d="M 286.0,760.0 L 288.0,761.0" style="stroke:#070107; fill:none;"/>
	<path d="M 194.0,761.0 L 194.0,767.0" style="stroke:#070107; fill:none;"/>
	<path d="M 333.0,763.0 L 336.0,764.0" style="stroke:#070107; fill:none;"/>
	<path d="M 339.0,765.0 L 342.0,765.0" style="stroke:#070107; fill:none;"/>
	<path d="M 296.0,766.0 L 297.0,766.0" style="stroke:#070107; fill:none;"/>
	<path d="M 195.0,770.0 L 195.0,772.0 L 195.0,770.0" style="stroke:#070107; fill:none;"/>
	<path d="M 333.0,770.0 L 328.0,779.0" style="stroke:#070107; fill:none;"/>
	<path d="M 295.0,771.0 L 297.0,771.0" style="stroke:#070107; fill:none;"/>
	<path d="M 195.0,773.0 L 196.0,782.0" style="stroke:#070107; fill:none;"/>
	<path d="M 304.0,775.0 L 305.0,775.0" style="stroke:#070107; fill:none;"/>
	<path d="M 317.0,781.0 L 317.0,782.0" style="stroke:#070107; fill:none;"/>
	<path d="M 320.0,784.0 L 322.0,784.0" style="stroke:#070107; fill:none;"/>
	<path d="M 376.0,786.0 L 380.0,789.0" style="stroke:#070107; fill:none;"/>
	<path d="M 197.0,788.0 L 199.0,793.0" style="stroke:#070107; fill:none;"/>
	<path d="M 330.0,789.0 L 337.0,791.0" style="stroke:#070107; fill:none;"/>
	<path d="M 381.0,791.0 L 388.0,796.0" style="stroke:#070107; fill:none;"/>
	<path d="M 339.0,792.0 L 344.0,795.0" style="stroke:#070107; fill:none;"/>
	<path d="M 374.0,793.0 L 372.0,797.0" style="stroke:#070107; fill:none;"/>
	<path d="M 391.0,798.0 L 399.0,805.0" style="stroke:#070107; fill:none;"/>
	<path d="M 368.0,800.0 L 371.0,799.0" style="stroke:#070107; fill:none;"/>
	<path d="M 781.0,799.0 L 781.0,800.0" style="stroke:#070107; fill:none;"/>
	<path d="M 779.0,802.0 L 779.0,803.0" style="stroke:#070107; fill:none;"/>
	<path d="M 777.0,805.0 L 776.0,806.0" style="stroke:#070107; fill:none;"/>
	<path d="M 377.0,809.0 L 378.0,810.0" style="stroke:#070107; fill:none;"/>
	<path d="M 383.0,812.0 L 384.0,812.0" style="stroke:#070107; fill:none;"/>
	<path d="M 408.0,813.0 L 409.0,813.0" style="stroke:#070107; fill:none;"/>
	<path d="M 779.0,814.0 L 779.0,818.0" style="stroke:#070107; fill:none;"/>
	<path d="M 412.0,815.0 L 412.0,818.0 L 416.0,819.0" style="stroke:#070107; fill:none;"/>
	<path d="M 198.0,816.0 L 198.0,817.0" style="stroke:#070107; fill:none;"/>
	<path d="M 304.0,816.0 L 306.0,816.0" style="stroke:#070107; fill:none;"/>
	<path d="M 396.0,817.0 L 398.0,818.0" style="stroke:#070107; fill:none;"/>
	<path d="M 401.0,818.0 L 406.0,818.0" style="stroke:#070107; fill:none;"/>
	<path d="M 410.0,818.0 L 411.0,819.0" style="stroke:#070107; fill:none;"/>
	<path d="M 420.0,819.0 L 421.0,820.0" style="stroke:#070107; fill:none;"/>
	<path d="M 771.0,826.0 L 774.0,829.0" style="stroke:#070107; fill:none;"/>
	<path d="M 771.0,829.0 L 772.0,829.0" style="stroke:#070107; fill:none;"/>
	<path d="M 768.0,836.0 L 772.0,831.0" style="stroke:#070107; fill:none;"/>
	<path d="M 428.0,834.0 L 428.0,835.0" style="stroke:#070107; fill:none;"/>
	<path d="M 200.0,838.0 L 202.0,857.0" style="stroke:#070107; fill:none;"/>
	<path d="M 766.0,838.0 L 763.0,842.0" style="stroke:#070107; fill:none;"/>
	<path d="M 744.0,843.0 L 745.0,843.0" style="stroke:#070107; fill:none;"/>
	<path d="M 762.0,846.0 L 760.0,848.0 L 762.0,846.0" style="stroke:#070107; fill:none;"/>
	<path d="M 740.0,846.0 L 738.0,847.0" style="stroke:#070107; fill:none;"/>
	<path d="M 197.0,849.0 L 197.0,850.0" style="stroke:#070107; fill:none;"/>
	<path d="M 760.0,849.0 L 761.0,850.0" style="stroke:#070107; fill:none;"/>
	<path d="M 736.0,850.0 L 737.0,850.0" style="stroke:#070107; fill:none;"/>
	<path d="M 757.0,851.0 L 757.0,853.0 L 757.0,851.0" style="stroke:#070107; fill:none;"/>
	<path d="M 198.0,852.0 L 198.0,854.0" style="stroke:#070107; fill:none;"/>
	<path d="M 735.0,852.0 L 735.0,853.0" style="stroke:#070107; fill:none;"/>
	<path d="M 756.0,853.0 L 753.0,857.0" style="stroke:#070107; fill:none;"/>
	<path d="M 731.0,855.0 L 733.0,855.0" style="stroke:#070107; fill:none;"/>
	<path d="M 198.0,856.0 L 198.0,859.0" style="stroke:#070107; fill:none;"/>
	<path d="M 729.0,857.0 L 730.0,858.0" style="stroke:#070107; fill:none;"/>
	<path d="M 753.0,858.0 L 751.0,860.0" style="stroke:#070107; fill:none;"/>
	<path d="M 726.0,859.0 L 724.0,861.0" style="stroke:#070107; fill:none;"/>
	<path d="M 203.0,860.0 L 204.0,860.0" style="stroke:#070107; fill:none;"/>
	<path d="M 198.0,861.0 L 202.0,876.0 C 205.905,875.681 205.402,878.015 204.0,881.0 L 202.0,876.0" style="stroke:#070107; fill:none;"/>
	<path d="M 728.0,862.0 L 727.0,863.0" style="stroke:#070107; fill:none;"/>
	<path d="M 203.0,863.0 L 204.0,865.0" style="stroke:#070107; fill:none;"/>
	<path d="M 712.0,863.0 L 714.0,870.0 L 716.0,869.0" style="stroke:#070107; fill:none;"/>
	<path d="M 717.0,866.0 L 719.0,866.0" style="stroke:#070107; fill:none;"/>
	<path d="M 711.0,869.0 L 713.0,871.0" style="stroke:#070107; fill:none;"/>
	<path d="M 204.0,871.0 L 204.0,872.0" style="stroke:#070107; fill:none;"/>
	<path d="M 729.0,871.0 L 729.0,872.0" style="stroke:#070107; fill:none;"/>
	<path d="M 714.0,876.0 L 713.0,872.0 L 711.0,874.0" style="stroke:#070107; fill:none;"/>
	<path d="M 206.0,874.0 L 205.0,875.0" style="stroke:#070107; fill:none;"/>
	<path d="M 708.0,874.0 L 707.0,875.0" style="stroke:#070107; fill:none;"/>
	<path d="M 704.0,878.0 L 706.0,878.0" style="stroke:#070107; fill:none;"/>
	<path d="M 714.0,879.0 L 715.0,880.0" style="stroke:#070107; fill:none;"/>
	<path d="M 205.0,880.0 L 208.0,884.0" style="stroke:#070107; fill:none;"/>
	<path d="M 702.0,881.0 L 703.0,882.0" style="stroke:#070107; fill:none;"/>
	<path d="M 204.0,883.0 L 204.0,885.0" style="stroke:#070107; fill:none;"/>
	<path d="M 698.0,883.0 L 698.0,884.0" style="stroke:#070107; fill:none;"/>
	<path d="M 695.0,887.0 L 697.0,886.0" style="stroke:#070107; fill:none;"/>
	<path d="M 691.0,889.0 L 693.0,889.0" style="stroke:#070107; fill:none;"/>
	<path d="M 209.0,890.0 L 210.0,890.0" style="stroke:#070107; fill:none;"/>
	<path d="M 687.0,891.0 L 683.0,895.0" style="stroke:#070107; fill:none;"/>
	<path d="M 206.0,896.0 L 206.0,897.0" style="stroke:#070107; fill:none;"/>
	<path d="M 212.0,896.0 L 212.0,897.0" style="stroke:#070107; fill:none;"/>
	<path d="M 675.0,900.0 L 680.0,899.0" style="stroke:#070107; fill:none;"/>
	<path d="M 212.0,899.0 C 214.896,901.521 215.899,903.227 215.0,907.0" style="stroke:#070107; fill:none;"/>
	<path d="M 670.0,903.0 L 672.0,902.0" style="stroke:#070107; fill:none;"/>
	<path d="M 218.0,907.0 L 229.0,925.0" style="stroke:#070107; fill:none;"/>
	<path d="M 651.0,910.0 L 653.0,914.0" style="stroke:#070107; fill:none;"/>
	<path d="M 640.0,919.0 L 651.0,915.0" style="stroke:#070107; fill:none;"/>
	<path d="M 631.0,920.0 L 632.0,920.0" style="stroke:#070107; fill:none;"/>
	<path d="M 634.0,920.0 L 635.0,921.0" style="stroke:#070107; fill:none;"/>
	<path d="M 632.0,924.0 L 631.0,925.0" style="stroke:#070107; fill:none;"/>
	<path d="M 231.0,927.0 L 239.0,936.0" style="stroke:#070107; fill:none;"/>
	<path d="M 626.0,927.0 L 627.0,928.0" style="stroke:#070107; fill:none;"/>
	<path d="M 623.0,930.0 L 624.0,930.0" style="stroke:#070107; fill:none;"/>
	<path d="M 620.0,931.0 L 620.0,932.0" style="stroke:#070107; fill:none;"/>
	<path d="M 615.0,935.0 L 616.0,937.0" style="stroke:#070107; fill:none;"/>
	<path d="M 608.0,938.0 L 605.0,942.0" style="stroke:#070107; fill:none;"/>
	<path d="M 598.0,944.0 L 599.0,944.0" style="stroke:#070107; fill:none;"/>
	<path d="M 596.0,945.0 L 596.0,946.0" style="stroke:#070107; fill:none;"/>
	<path d="M 594.0,946.0 L 594.0,947.0" style="stroke:#070107; fill:none;"/>
	<path d="M 258.0,949.0 L 259.0,952.0" style="stroke:#070107; fill:none;"/>
	<path d="M 566.0,954.0 L 567.0,954.0" style="stroke:#070107; fill:none;"/>
	<path d="M 267.0,957.0 L 269.0,958.0" style="stroke:#070107; fill:none;"/>
	<path d="M 560.0,957.0 L 561.0,958.0" style="stroke:#070107; fill:none;"/>
	<path d="M 555.0,961.0 L 556.0,959.0" style="stroke:#070107; fill:none;"/>
	<path d="M 543.0,966.0 L 546.0,964.0" style="stroke:#070107; fill:none;"/>
	<path d="M 534.0,966.0 L 534.0,968.0 L 534.0,966.0" style="stroke:#070107; fill:none;"/>
	<path d="M 537.0,966.0 L 538.0,966.0" style="stroke:#070107; fill:none;"/>
	<path d="M 559.0,968.0 L 559.0,969.0" style="stroke:#070107; fill:none;"/>
	<path d="M 525.0,969.0 L 523.0,971.0" style="stroke:#070107; fill:none;"/>
	<path d="M 518.0,971.0 L 518.0,973.0" style="stroke:#070107; fill:none;"/>
	<path d="M 547.0,971.0 L 547.0,972.0" style="stroke:#070107; fill:none;"/>
	<path d="M 295.0,972.0 L 297.0,972.0" style="stroke:#070107; fill:none;"/>
	<path d="M 515.0,972.0 L 516.0,974.0" style="stroke:#070107; fill:none;"/>
	<path d="M 508.0,973.0 L 505.0,974.0" style="stroke:#070107; fill:none;"/>
	<path d="M 510.0,973.0 L 511.0,973.0" style="stroke:#070107; fill:none;"/>
	<path d="M 538.0,973.0 L 538.0,974.0" style="stroke:#070107; fill:none;"/>
	<path d="M 497.0,977.0 L 499.0,976.0" style="stroke:#070107; fill:none;"/>
	<path d="M 494.0,975.0 L 485.0,977.0" style="stroke:#070107; fill:none;"/>
	<path d="M 501.0,976.0 L 502.0,977.0" style="stroke:#070107; fill:none;"/>
	<path d="M 436.0,983.0 L 452.0,979.981 L 482.0,977.0" style="stroke:#070107; fill:none;"/>
	<path d="M 310.0,978.0 L 313.0,980.0" style="stroke:#070107; fill:none;"/>
	<path d="M 315.0,980.0 L 325.0,982.0" style="stroke:#070107; fill:none;"/>
	<path d="M 466.0,981.0 L 468.0,981.0" style="stroke:#070107; fill:none;"/>
	<path d="M 319.0,982.0 L 308.0,990.0" style="stroke:#070107; fill:none;"/>
	<path d="M 331.0,983.0 L 339.0,984.0" style="stroke:#070107; fill:none;"/>
	<path d="M 344.0,983.0 L 344.0,984.0" style="stroke:#070107; fill:none;"/>
	<path d="M 469.0,984.0 L 471.0,983.0" style="stroke:#070107; fill:none;"/>
	<path d="M 352.0,984.0 L 346.0,985.0" style="stroke:#070107; fill:none;"/>
	<path d="M 341.0,985.0 L 342.0,985.0" style="stroke:#070107; fill:none;"/>
	<path d="M 357.0,985.0 L 356.0,987.0" style="stroke:#070107; fill:none;"/>
	<path d="M 368.0,985.0 L 369.0,985.0" style="stroke:#070107; fill:none;"/>
	<path d="M 428.0,987.0 L 437.0,985.0" style="stroke:#070107; fill:none;"/>
	<path d="M 475.0,986.0 L 478.0,993.0" style="stroke:#070107; fill:none;"/>
	<path d="M 375.0,989.0 L 379.0,990.0" style="stroke:#070107; fill:none;"/>
	<path d="M 420.0,990.0 L 424.0,988.0" style="stroke:#070107; fill:none;"/>
	<path d="M 381.0,989.0 L 381.0,990.0" style="stroke:#070107; fill:none;"/>
	<path d="M 486.0,989.0 L 486.0,990.0" style="stroke:#070107; fill:none;"/>
	<path d="M 384.0,990.0 L 385.0,992.0" style="stroke:#070107; fill:none;"/>
	<path d="M 386.0,990.0 L 388.0,992.0" style="stroke:#070107; fill:none;"/>
	<path d="M 404.0,991.0 C 406.97,993.966 411.729,991.6 415.0,990.0" style="stroke:#070107; fill:none;"/>
	<path d="M 391.0,991.0 L 391.0,993.0" style="stroke:#070107; fill:none;"/>
	<path d="M 394.0,991.0 L 393.0,994.0" style="stroke:#070107; fill:none;"/>
	<path d="M 408.0,991.0 L 409.0,992.0" style="stroke:#070107; fill:none;"/>
	<path d="M 309.0,992.0 L 309.0,995.0" style="stroke:#070107; fill:none;"/>
	<path d="M 411.0,993.0 L 411.0,995.0" style="stroke:#070107; fill:none;"/>
	<path d="M 388.0,994.0 L 389.0,996.0" style="stroke:#070107; fill:none;"/>
	<path d="M 480.0,994.0 L 481.0,995.0" style="stroke:#070107; fill:none;"/>
	<path d="M 405.0,995.0 L 404.0,996.0" style="stroke:#070107; fill:none;"/>
	<path d="M 391.0,997.0 L 390.0,998.0" style="stroke:#070107; fill:none;"/>
	<path d="M 481.0,998.0 L 482.0,999.0" style="stroke:#070107; fill:none;"/>
	<path d="M 401.0,999.0 L 398.0,1001.0" style="stroke:#070107; fill:none;"/>
	<path d="M 307.0,1000.0 L 308.0,1000.0" style="stroke:#070107; fill:none;"/>
	<path d="M 485.0,1004.0 L 486.0,1005.0" style="stroke:#070107; fill:none;"/>
	<path d="M 306.0,1005.0 L 306.0,1010.0" style="stroke:#070107; fill:none;"/>
	<path d="M 393.0,1005.0 L 395.0,1007.0" style="stroke:#070107; fill:none;"/>
	<path d="M 486.0,1007.0 L 486.0,1009.0" style="stroke:#070107; fill:none;"/>
	<path d="M 397.0,1012.0 L 395.0,1013.0" style="stroke:#070107; fill:none;"/>
	<path d="M 306.0,1013.0 L 305.0,1019.0" style="stroke:#070107; fill:none;"/>
	<path d="M 487.0,1014.0 L 487.0,1015.0" style="stroke:#070107; fill:none;"/>
	<path d="M 407.0,1016.0 L 408.0,1018.0" style="stroke:#070107; fill:none;"/>
	<path d="M 398.0,1017.0 L 398.0,1018.0" style="stroke:#070107; fill:none;"/>
	<path d="M 489.0,1017.0 L 490.0,1019.0" style="stroke:#070107; fill:none;"/>
	<path d="M 396.0,1018.0 L 396.0,1019.0" style="stroke:#070107; fill:none;"/>
	<path d="M 399.0,1022.0 L 401.0,1027.0 L 407.0,1030.0" style="stroke:#070107; fill:none;"/>
	<path d="M 492.0,1027.0 C 491.242,1023.06 494.821,1023.44 498.0,1024.0" style="stroke:#070107; fill:none;"/>
	<path d="M 307.0,1025.0 L 317.0,1041.0" style="stroke:#070107; fill:none;"/>
	<path d="M 502.0,1025.0 L 502.0,1026.0" style="stroke:#070107; fill:none;"/>
	<path d="M 504.0,1027.0 L 506.0,1028.0" style="stroke:#070107; fill:none;"/>
	<path d="M 402.0,1031.0 L 402.0,1032.0" style="stroke:#070107; fill:none;"/>
	<path d="M 410.0,1035.0 L 410.0,1036.0" style="stroke:#070107; fill:none;"/>
	<path d="M 262.0,1036.0 L 263.0,1037.0" style="stroke:#070107; fill:none;"/>
	<path d="M 402.0,1036.0 L 403.0,1036.0" style="stroke:#070107; fill:none;"/>
	<path d="M 493.0,1036.0 L 493.0,1038.0" style="stroke:#070107; fill:none;"/>
	<path d="M 253.0,1038.0 L 260.0,1037.0" style="stroke:#070107; fill:none;"/>
	<path d="M 274.0,1038.0 L 282.0,1042.0" style="stroke:#070107; fill:none;"/>
	<path d="M 404.0,1038.0 L 404.0,1041.0" style="stroke:#070107; fill:none;"/>
	<path d="M 410.0,1039.0 L 414.0,1055.0" style="stroke:#070107; fill:none;"/>
	<path d="M 495.0,1042.0 L 496.0,1049.0" style="stroke:#070107; fill:none;"/>
	<path d="M 404.0,1043.0 L 405.0,1043.0" style="stroke:#070107; fill:none;"/>
	<path d="M 513.0,1043.0 L 515.0,1044.0" style="stroke:#070107; fill:none;"/>
	<path d="M 282.0,1045.0 L 283.0,1045.0" style="stroke:#070107; fill:none;"/>
	<path d="M 319.0,1047.0 C 318.139,1050.27 316.657,1051.38 320.0,1053.0 L 320.0,1054.0 L 319.0,1055.0 L 320.0,1056.0" style="stroke:#070107; fill:none;"/>
	<path d="M 405.0,1048.0 L 407.0,1048.0" style="stroke:#070107; fill:none;"/>
	<path d="M 412.0,1048.0 L 413.0,1049.0" style="stroke:#070107; fill:none;"/>
	<path d="M 232.0,1055.0 L 239.0,1049.0" style="stroke:#070107; fill:none;"/>
	<path d="M 286.0,1049.0 L 290.0,1054.0" style="stroke:#070107; fill:none;"/>
	<path d="M 497.0,1050.0 L 498.0,1053.0" style="stroke:#070107; fill:none;"/>
	<path d="M 516.0,1050.0 L 517.0,1050.0" style="stroke:#070107; fill:none;"/>
	<path d="M 319.0,1051.0 L 319.0,1052.0" style="stroke:#070107; fill:none;"/>
	<path d="M 407.0,1052.0 L 408.0,1052.0" style="stroke:#070107; fill:none;"/>
	<path d="M 318.0,1055.0 L 319.0,1055.0" style="stroke:#070107; fill:none;"/>
	<path d="M 415.0,1056.0 L 415.0,1058.0" style="stroke:#070107; fill:none;"/>
	<path d="M 498.0,1056.0 L 498.0,1057.0" style="stroke:#070107; fill:none;"/>
	<path d="M 521.0,1056.0 L 521.0,1057.0" style="stroke:#070107; fill:none;"/>
	<path d="M 229.0,1057.0 L 226.0,1063.0" style="stroke:#070107; fill:none;"/>
	<path d="M 319.0,1058.0 L 321.0,1062.0 L 322.0,1062.0" style="stroke:#070107; fill:none;"/>
	<path d="M 293.0,1059.0 L 294.0,1060.0" style="stroke:#070107; fill:none;"/>
	<path d="M 416.0,1061.0 L 418.0,1068.0" style="stroke:#070107; fill:none;"/>
	<path d="M 523.0,1062.0 L 526.0,1067.0" style="stroke:#070107; fill:none;"/>
	<path d="M 321.0,1065.0 L 323.0,1066.0" style="stroke:#070107; fill:none;"/>
	<path d="M 500.0,1065.0 L 499.0,1066.0" style="stroke:#070107; fill:none;"/>
	<path d="M 414.0,1066.0 L 417.0,1066.0" style="stroke:#070107; fill:none;"/>
	<path d="M 223.0,1071.0 L 224.0,1078.0" style="stroke:#070107; fill:none;"/>
	<path d="M 304.0,1072.0 L 305.0,1073.0" style="stroke:#070107; fill:none;"/>
	<path d="M 323.0,1073.0 L 325.0,1073.0" style="stroke:#070107; fill:none;"/>
	<path d="M 502.0,1073.0 L 502.0,1074.0" style="stroke:#070107; fill:none;"/>
	<path d="M 221.0,1077.0 L 222.0,1078.0" style="stroke:#070107; fill:none;"/>
	<path d="M 307.0,1077.0 L 307.0,1078.0" style="stroke:#070107; fill:none;"/>
	<path d="M 325.0,1078.0 L 326.0,1078.0" style="stroke:#070107; fill:none;"/>
</svg>
