<?xml version="1.0" ?>
<svg baseProfile="full" height="1079" version="1.1" width="1061" xmlns="http://www.w3.org/2000/svg" xmlns:ev="http://www.w3.org/2001/xml-events" xmlns:xlink="http://www.w3.org/1999/xlink">
	<defs/>
	<path d="M 429.0,398.0 L 430.0,398.0" style="stroke:#060106; fill:none;"/>
	<path d="M 423.0,400.0 L 426.0,400.0" style="stroke:#060106; fill:none;"/>
	<path d="M 414.0,403.0 L 421.0,401.0" style="stroke:#060106; fill:none;"/>
	<path d="M 398.0,405.0 L 411.0,404.0" style="stroke:#060106; fill:none;"/>
	<path d="M 413.0,407.0 L 415.0,408.0" style="stroke:#060106; fill:none;"/>
	<path d="M 382.0,408.0 L 381.0,409.0" style="stroke:#060106; fill:none;"/>
	<path d="M 408.0,408.0 L 408.0,409.0" style="stroke:#060106; fill:none;"/>
	<path d="M 394.0,409.0 L 396.0,411.0" style="stroke:#060106; fill:none;"/>
	<path d="M 400.0,411.0 L 406.0,409.0" style="stroke:#060106; fill:none;"/>
	<path d="M 417.0,409.0 L 418.0,409.0" style="stroke:#060106; fill:none;"/>
	<path d="M 429.0,409.0 L 431.0,410.0" style="stroke:#060106; fill:none;"/>
	<path d="M 450.0,409.0 L 451.0,409.0" style="stroke:#060106; fill:none;"/>
	<path d="M 371.0,412.0 L 373.0,411.0" style="stroke:#060106; fill:none;"/>
	<path d="M 392.0,411.0 L 393.0,411.0" style="stroke:#060106; fill:none;"/>
	<path d="M 381.0,412.0 L 381.0,413.0" style="stroke:#060106; fill:none;"/>
	<path d="M 454.0,416.0 L 460.0,416.0" style="stroke:#060106; fill:none;"/>
	<path d="M 464.0,416.0 L 466.0,418.0" style="stroke:#060106; fill:none;"/>
	<path d="M 477.0,418.0 L 476.0,419.0" style="stroke:#060106; fill:none;"/>
	<path d="M 454.0,420.0 L 457.0,420.0" style="stroke:#060106; fill:none;"/>
	<path d="M 468.0,421.0 L 469.0,421.0" style="stroke:#060106; fill:none;"/>
	<path d="M 483.0,423.0 L 482.0,424.0" style="stroke:#060106; fill:none;"/>
	<path d="M 476.0,425.0 L 478.0,426.0" style="stroke:#060106; fill:none;"/>
	<path d="M 495.0,425.0 L 495.0,426.0" style="stroke:#060106; fill:none;"/>
	<path d="M 484.0,426.0 L 485.0,426.0" style="stroke:#060106; fill:none;"/>
	<path d="M 479.0,429.0 L 482.0,431.0" style="stroke:#060106; fill:none;"/>
	<path d="M 493.0,431.0 L 498.0,432.0" style="stroke:#060106; fill:none;"/>
	<path d="M 501.0,432.0 L 501.0,433.0" style="stroke:#060106; fill:none;"/>
	<path d="M 490.0,433.0 L 491.0,433.0" style="stroke:#060106; fill:none;"/>
	<path d="M 503.0,434.0 L 516.0,438.0" style="stroke:#060106; fill:none;"/>
	<path d="M 524.0,442.0 L 534.0,445.0" style="stroke:#060106; fill:none;"/>
	<path d="M 504.0,446.0 L 505.0,447.0" style="stroke:#060106; fill:none;"/>
	<path d="M 536.0,447.0 L 537.0,447.0" style="stroke:#060106; fill:none;"/>
	<path d="M 540.0,448.0 L 540.0,449.0" style="stroke:#060106; fill:none;"/>
	<path d="M 543.0,451.0 L 544.0,451.0" style="stroke:#060106; fill:none;"/>
	<path d="M 562.0,460.0 L 563.0,460.0" style="stroke:#060106; fill:none;"/>
	<path d="M 422.0,472.0 L 423.0,473.0" style="stroke:#060106; fill:none;"/>
	<path d="M 387.0,492.0 L 394.0,494.0" style="stroke:#060106; fill:none;"/>
	<path d="M 397.0,494.0 L 415.0,496.0" style="stroke:#060106; fill:none;"/>
	<path d="M 495.0,493.0 L 496.0,493.0" style="stroke:#060106; fill:none;"/>
	<path d="M 423.0,497.0 L 425.0,497.0" style="stroke:#060106; fill:none;"/>
	<path d="M 390.0,497.0 L 391.0,497.0" style="stroke:#060106; fill:none;"/>
	<path d="M 418.0,497.0 L 419.0,497.0" style="stroke:#060106; fill:none;"/>
	<path d="M 429.0,499.0 L 437.0,498.0" style="stroke:#060106; fill:none;"/>
	<path d="M 396.0,498.0 L 397.0,498.0" style="stroke:#060106; fill:none;"/>
	<path d="M 443.0,498.0 L 442.0,499.0" style="stroke:#060106; fill:none;"/>
	<path d="M 462.0,500.0 L 455.0,504.0" style="stroke:#060106; fill:none;"/>
	<path d="M 382.0,502.0 L 381.0,503.0" style="stroke:#060106; fill:none;"/>
	<path d="M 428.0,502.0 L 428.0,503.0" style="stroke:#060106; fill:none;"/>
	<path d="M 453.0,502.0 L 442.0,513.0" style="stroke:#060106; fill:none;"/>
	<path d="M 376.0,503.0 L 374.0,505.0" style="stroke:#060106; fill:none;"/>
	<path d="M 401.0,503.0 L 404.0,506.0" style="stroke:#060106; fill:none;"/>
	<path d="M 389.0,505.0 L 390.0,505.0" style="stroke:#060106; fill:none;"/>
	<path d="M 393.0,507.0 L 396.0,506.0" style="stroke:#060106; fill:none;"/>
	<path d="M 408.0,505.0 L 410.0,505.0" style="stroke:#060106; fill:none;"/>
	<path d="M 460.0,505.0 L 463.0,505.0" style="stroke:#060106; fill:none;"/>
	<path d="M 466.0,505.0 L 467.0,505.0" style="stroke:#060106; fill:none;"/>
	<path d="M 399.0,506.0 L 401.0,506.0" style="stroke:#060106; fill:none;"/>
	<path d="M 469.0,506.0 L 471.0,507.0" style="stroke:#060106; fill:none;"/>
	<path d="M 419.0,509.0 L 425.0,510.0" style="stroke:#060106; fill:none;"/>
	<path d="M 473.0,508.0 L 474.0,509.0" style="stroke:#060106; fill:none;"/>
	<path d="M 376.0,510.0 L 377.0,510.0" style="stroke:#060106; fill:none;"/>
	<path d="M 406.0,510.0 L 409.0,513.0" style="stroke:#060106; fill:none;"/>
	<path d="M 480.0,510.0 L 483.0,510.0" style="stroke:#060106; fill:none;"/>
	<path d="M 486.0,512.0 L 496.0,518.0" style="stroke:#060106; fill:none;"/>
	<path d="M 412.0,514.0 L 412.0,515.0" style="stroke:#060106; fill:none;"/>
	<path d="M 473.0,514.0 C 477.684,515.519 477.808,518.845 476.0,523.0" style="stroke:#060106; fill:none;"/>
	<path d="M 413.0,517.0 L 421.0,521.0" style="stroke:#060106; fill:none;"/>
	<path d="M 437.0,518.0 L 439.0,518.0" style="stroke:#060106; fill:none;"/>
	<path d="M 385.0,520.0 L 386.0,520.0" style="stroke:#060106; fill:none;"/>
	<path d="M 407.0,520.0 L 407.0,521.0" style="stroke:#060106; fill:none;"/>
	<path d="M 437.0,520.0 L 438.0,520.0" style="stroke:#060106; fill:none;"/>
	<path d="M 487.0,521.0 L 488.0,522.0" style="stroke:#060106; fill:none;"/>
	<path d="M 496.0,523.0 L 496.0,526.0" style="stroke:#060106; fill:none;"/>
	<path d="M 456.0,524.0 L 456.0,525.0" style="stroke:#060106; fill:none;"/>
	<path d="M 426.0,526.0 L 428.0,527.0" style="stroke:#060106; fill:none;"/>
	<path d="M 473.0,526.0 L 474.0,526.0" style="stroke:#060106; fill:none;"/>
	<path d="M 439.0,527.0 L 440.0,534.0" style="stroke:#060106; fill:none;"/>
	<path d="M 458.0,528.0 L 459.0,528.0" style="stroke:#060106; fill:none;"/>
	<path d="M 461.0,528.0 L 464.0,529.0" style="stroke:#060106; fill:none;"/>
	<path d="M 770.0,528.0 L 771.0,529.0" style="stroke:#060106; fill:none;"/>
	<path d="M 494.0,529.0 L 491.0,533.0" style="stroke:#060106; fill:none;"/>
	<path d="M 394.0,530.0 L 393.0,531.0" style="stroke:#060106; fill:none;"/>
	<path d="M 505.0,530.0 L 507.0,532.0" style="stroke:#060106; fill:none;"/>
	<path d="M 423.0,532.0 L 424.0,533.0" style="stroke:#060106; fill:none;"/>
	<path d="M 436.0,532.0 L 436.0,533.0" style="stroke:#060106; fill:none;"/>
	<path d="M 721.0,532.0 L 722.0,532.0" style="stroke:#060106; fill:none;"/>
	<path d="M 509.0,535.0 L 512.0,542.0" style="stroke:#060106; fill:none;"/>
	<path d="M 442.0,536.0 L 443.0,536.0" style="stroke:#060106; fill:none;"/>
	<path d="M 487.0,537.0 L 490.0,536.0" style="stroke:#060106; fill:none;"/>
	<path d="M 787.0,538.0 L 788.0,538.0" style="stroke:#060106; fill:none;"/>
	<path d="M 415.0,539.0 L 414.0,541.0" style="stroke:#060106; fill:none;"/>
	<path d="M 473.0,544.0 L 475.0,543.0" style="stroke:#060106; fill:none;"/>
	<path d="M 478.0,544.0 L 484.0,544.0" style="stroke:#060106; fill:none;"/>
	<path d="M 817.0,543.0 L 818.0,544.0" style="stroke:#060106; fill:none;"/>
	<path d="M 463.0,544.0 L 464.0,544.0" style="stroke:#060106; fill:none;"/>
	<path d="M 506.0,545.0 L 509.0,544.0" style="stroke:#060106; fill:none;"/>
	<path d="M 169.0,546.0 L 169.0,547.0" style="stroke:#060106; fill:none;"/>
	<path d="M 494.0,546.0 L 496.0,547.0" style="stroke:#060106; fill:none;"/>
	<path d="M 499.0,547.0 L 498.0,548.0" style="stroke:#060106; fill:none;"/>
	<path d="M 458.0,549.0 L 458.0,550.0" style="stroke:#060106; fill:none;"/>
	<path d="M 168.0,550.0 L 169.0,550.0" style="stroke:#060106; fill:none;"/>
	<path d="M 160.0,553.0 L 160.0,554.0" style="stroke:#060106; fill:none;"/>
	<path d="M 168.0,553.0 L 168.0,554.0" style="stroke:#060106; fill:none;"/>
	<path d="M 451.0,557.0 L 452.0,557.0" style="stroke:#060106; fill:none;"/>
	<path d="M 161.0,558.0 L 159.0,560.0" style="stroke:#060106; fill:none;"/>
	<path d="M 158.0,565.0 L 156.0,573.0 L 155.0,572.0 L 153.0,572.0 L 153.0,572.0" style="stroke:#060106; fill:none;"/>
	<path d="M 155.0,567.0 L 157.0,567.0" style="stroke:#060106; fill:none;"/>
	<path d="M 156.0,570.0 L 154.0,572.0" style="stroke:#060106; fill:none;"/>
	<path d="M 824.0,578.0 L 824.0,579.0" style="stroke:#060106; fill:none;"/>
	<path d="M 155.0,580.0 L 151.0,589.0" style="stroke:#060106; fill:none;"/>
	<path d="M 824.0,581.0 L 821.0,584.0" style="stroke:#060106; fill:none;"/>
	<path d="M 821.0,590.0 L 818.0,594.0" style="stroke:#060106; fill:none;"/>
	<path d="M 149.0,592.0 L 150.0,595.0" style="stroke:#060106; fill:none;"/>
	<path d="M 690.0,595.0 L 688.0,597.0" style="stroke:#060106; fill:none;"/>
	<path d="M 816.0,595.0 L 817.0,595.0" style="stroke:#060106; fill:none;"/>
	<path d="M 681.0,597.0 L 684.0,597.0" style="stroke:#060106; fill:none;"/>
	<path d="M 705.0,596.0 L 707.0,596.0" style="stroke:#060106; fill:none;"/>
	<path d="M 709.0,596.0 L 710.0,597.0" style="stroke:#060106; fill:none;"/>
	<path d="M 714.0,599.0 L 714.0,605.0" style="stroke:#060106; fill:none;"/>
	<path d="M 816.0,599.0 L 814.0,601.0" style="stroke:#060106; fill:none;"/>
	<path d="M 149.0,600.0 L 149.0,606.0" style="stroke:#060106; fill:none;"/>
	<path d="M 164.0,602.0 L 164.0,603.0" style="stroke:#060106; fill:none;"/>
	<path d="M 718.0,604.0 L 718.0,606.0" style="stroke:#060106; fill:none;"/>
	<path d="M 723.0,606.0 L 728.0,605.0" style="stroke:#060106; fill:none;"/>
	<path d="M 730.0,605.0 L 731.0,607.0" style="stroke:#060106; fill:none;"/>
	<path d="M 734.0,605.0 L 735.0,605.0" style="stroke:#060106; fill:none;"/>
	<path d="M 707.0,606.0 L 708.0,607.0" style="stroke:#060106; fill:none;"/>
	<path d="M 737.0,607.0 L 739.0,608.0" style="stroke:#060106; fill:none;"/>
	<path d="M 812.0,607.0 L 812.0,609.0" style="stroke:#060106; fill:none;"/>
	<path d="M 703.0,608.0 L 702.0,610.0" style="stroke:#060106; fill:none;"/>
	<path d="M 746.0,608.0 L 743.0,610.0" style="stroke:#060106; fill:none;"/>
	<path d="M 148.0,609.0 L 148.0,611.0" style="stroke:#060106; fill:none;"/>
	<path d="M 165.0,610.0 L 166.0,610.0" style="stroke:#060106; fill:none;"/>
	<path d="M 730.0,611.0 L 735.0,611.0" style="stroke:#060106; fill:none;"/>
	<path d="M 811.0,610.0 L 808.0,613.0" style="stroke:#060106; fill:none;"/>
	<path d="M 745.0,611.0 L 752.0,614.0" style="stroke:#060106; fill:none;"/>
	<path d="M 711.0,622.0 C 711.207,617.338 714.001,615.094 718.0,613.0" style="stroke:#060106; fill:none;"/>
	<path d="M 701.0,615.0 L 701.0,616.0" style="stroke:#060106; fill:none;"/>
	<path d="M 678.0,616.0 L 679.0,616.0" style="stroke:#060106; fill:none;"/>
	<path d="M 748.0,619.0 L 749.0,619.0" style="stroke:#060106; fill:none;"/>
	<path d="M 804.0,619.0 L 801.0,623.0" style="stroke:#060106; fill:none;"/>
	<path d="M 754.0,620.0 L 755.0,621.0" style="stroke:#060106; fill:none;"/>
	<path d="M 757.0,620.0 L 762.0,622.0" style="stroke:#060106; fill:none;"/>
	<path d="M 746.0,625.0 L 746.0,626.0" style="stroke:#060106; fill:none;"/>
	<path d="M 799.0,625.0 L 800.0,626.0" style="stroke:#060106; fill:none;"/>
	<path d="M 699.0,627.0 L 700.0,627.0" style="stroke:#060106; fill:none;"/>
	<path d="M 713.0,627.0 L 714.0,627.0" style="stroke:#060106; fill:none;"/>
	<path d="M 797.0,627.0 L 785.201,650.0 L 770.0,684.0" style="stroke:#060106; fill:none;"/>
	<path d="M 760.0,628.0 L 759.0,629.0" style="stroke:#060106; fill:none;"/>
	<path d="M 164.0,630.0 L 166.0,630.0" style="stroke:#060106; fill:none;"/>
	<path d="M 772.0,649.0 C 767.853,643.887 759.334,637.889 760.0,631.0 L 773.0,640.0" style="stroke:#060106; fill:none;"/>
	<path d="M 774.0,634.0 L 774.0,635.0" style="stroke:#060106; fill:none;"/>
	<path d="M 737.0,636.0 L 738.0,636.0" style="stroke:#060106; fill:none;"/>
	<path d="M 166.0,637.0 L 167.0,638.0" style="stroke:#060106; fill:none;"/>
	<path d="M 774.0,637.0 L 775.0,637.0" style="stroke:#060106; fill:none;"/>
	<path d="M 768.0,638.0 L 769.0,639.0" style="stroke:#060106; fill:none;"/>
	<path d="M 778.0,638.0 L 779.0,638.0" style="stroke:#060106; fill:none;"/>
	<path d="M 769.0,639.0 L 767.0,641.0" style="stroke:#060106; fill:none;"/>
	<path d="M 166.0,641.0 C 166.901,644.184 166.886,645.295 164.0,647.0" style="stroke:#060106; fill:none;"/>
	<path d="M 172.0,641.0 L 168.0,643.0" style="stroke:#060106; fill:none;"/>
	<path d="M 746.0,643.0 L 747.0,643.0" style="stroke:#060106; fill:none;"/>
	<path d="M 166.0,644.0 L 166.0,645.0" style="stroke:#060106; fill:none;"/>
	<path d="M 740.0,645.0 L 741.0,645.0" style="stroke:#060106; fill:none;"/>
	<path d="M 777.0,648.0 L 778.0,648.0" style="stroke:#060106; fill:none;"/>
	<path d="M 159.0,650.0 L 161.0,649.0" style="stroke:#060106; fill:none;"/>
	<path d="M 718.0,649.0 L 720.0,651.0" style="stroke:#060106; fill:none;"/>
	<path d="M 741.0,651.0 L 743.0,653.0" style="stroke:#060106; fill:none;"/>
	<path d="M 777.0,651.0 L 777.0,652.0" style="stroke:#060106; fill:none;"/>
	<path d="M 721.0,653.0 L 722.0,654.0" style="stroke:#060106; fill:none;"/>
	<path d="M 728.0,653.0 L 729.0,654.0" style="stroke:#060106; fill:none;"/>
	<path d="M 779.0,653.0 L 780.0,653.0" style="stroke:#060106; fill:none;"/>
	<path d="M 719.0,654.0 L 720.0,655.0" style="stroke:#060106; fill:none;"/>
	<path d="M 167.0,655.0 L 168.0,656.0" style="stroke:#060106; fill:none;"/>
	<path d="M 166.0,660.0 L 168.0,660.0" style="stroke:#060106; fill:none;"/>
	<path d="M 169.0,667.0 L 169.0,669.0" style="stroke:#060106; fill:none;"/>
	<path d="M 170.0,672.0 L 168.0,674.0" style="stroke:#060106; fill:none;"/>
	<path d="M 171.0,676.0 L 171.0,682.0" style="stroke:#060106; fill:none;"/>
	<path d="M 769.0,687.0 L 767.0,693.0" style="stroke:#060106; fill:none;"/>
	<path d="M 170.0,688.0 L 173.0,692.0" style="stroke:#060106; fill:none;"/>
	<path d="M 764.0,697.0 L 763.0,702.0" style="stroke:#060106; fill:none;"/>
	<path d="M 176.0,705.0 L 177.0,705.0" style="stroke:#060106; fill:none;"/>
	<path d="M 762.0,707.0 L 761.0,708.0" style="stroke:#060106; fill:none;"/>
	<path d="M 637.0,708.0 L 637.0,709.0" style="stroke:#060106; fill:none;"/>
	<path d="M 179.0,715.0 L 181.0,716.0" style="stroke:#060106; fill:none;"/>
	<path d="M 181.0,721.0 L 185.0,731.0" style="stroke:#060106; fill:none;"/>
	<path d="M 522.0,727.0 L 523.0,728.0" style="stroke:#060106; fill:none;"/>
	<path d="M 538.0,732.0 L 539.0,733.0" style="stroke:#060106; fill:none;"/>
	<path d="M 186.0,735.0 L 187.0,735.0" style="stroke:#060106; fill:none;"/>
	<path d="M 490.0,736.0 L 491.0,737.0" style="stroke:#060106; fill:none;"/>
	<path d="M 544.0,737.0 L 544.0,738.0" style="stroke:#060106; fill:none;"/>
	<path d="M 186.0,740.0 L 186.0,742.0" style="stroke:#060106; fill:none;"/>
	<path d="M 499.0,742.0 L 500.0,742.0" style="stroke:#060106; fill:none;"/>
	<path d="M 504.0,743.0 L 507.0,744.0" style="stroke:#060106; fill:none;"/>
	<path d="M 187.0,746.0 L 188.0,746.0" style="stroke:#060106; fill:none;"/>
	<path d="M 640.0,746.0 L 640.0,747.0" style="stroke:#060106; fill:none;"/>
	<path d="M 748.0,749.0 L 749.0,749.0" style="stroke:#060106; fill:none;"/>
	<path d="M 747.0,753.0 L 746.0,754.0" style="stroke:#060106; fill:none;"/>
	<path d="M 188.0,759.0 L 189.0,759.0" style="stroke:#060106; fill:none;"/>
	<path d="M 616.0,759.0 L 617.0,759.0" style="stroke:#060106; fill:none;"/>
	<path d="M 745.0,759.0 L 744.0,760.0" style="stroke:#060106; fill:none;"/>
	<path d="M 594.0,761.0 L 595.0,761.0" style="stroke:#060106; fill:none;"/>
	<path d="M 743.0,762.0 L 743.0,763.0" style="stroke:#060106; fill:none;"/>
	<path d="M 570.0,767.0 L 571.0,767.0" style="stroke:#060106; fill:none;"/>
	<path d="M 193.0,768.0 L 193.0,771.0" style="stroke:#060106; fill:none;"/>
	<path d="M 740.0,769.0 L 734.0,780.0" style="stroke:#060106; fill:none;"/>
	<path d="M 197.0,781.0 L 197.0,782.0" style="stroke:#060106; fill:none;"/>
	<path d="M 726.0,792.0 L 726.0,793.0" style="stroke:#060106; fill:none;"/>
	<path d="M 721.0,799.0 L 722.0,799.0" style="stroke:#060106; fill:none;"/>
	<path d="M 211.0,807.0 L 212.0,807.0" style="stroke:#060106; fill:none;"/>
	<path d="M 716.0,809.0 L 715.0,810.0" style="stroke:#060106; fill:none;"/>
	<path d="M 212.0,813.0 L 213.0,814.0" style="stroke:#060106; fill:none;"/>
	<path d="M 409.0,815.0 L 419.0,822.0" style="stroke:#060106; fill:none;"/>
	<path d="M 203.0,817.0 L 204.0,817.0" style="stroke:#060106; fill:none;"/>
	<path d="M 711.0,817.0 L 708.0,821.0" style="stroke:#060106; fill:none;"/>
	<path d="M 216.0,819.0 L 216.0,821.0" style="stroke:#060106; fill:none;"/>
	<path d="M 418.0,819.0 L 417.0,820.0" style="stroke:#060106; fill:none;"/>
	<path d="M 435.0,820.0 L 445.0,821.0" style="stroke:#060106; fill:none;"/>
	<path d="M 450.0,822.0 L 454.0,822.0" style="stroke:#060106; fill:none;"/>
	<path d="M 456.0,822.0 L 457.0,822.0" style="stroke:#060106; fill:none;"/>
	<path d="M 460.0,822.0 L 466.0,823.0" style="stroke:#060106; fill:none;"/>
	<path d="M 421.0,823.0 L 425.0,828.0" style="stroke:#060106; fill:none;"/>
	<path d="M 706.0,824.0 L 704.0,829.0" style="stroke:#060106; fill:none;"/>
	<path d="M 462.0,829.0 L 461.0,832.0" style="stroke:#060106; fill:none;"/>
	<path d="M 504.0,832.0 L 505.0,832.0" style="stroke:#060106; fill:none;"/>
	<path d="M 700.0,833.0 L 700.0,834.0" style="stroke:#060106; fill:none;"/>
	<path d="M 559.0,835.0 L 560.0,835.0" style="stroke:#060106; fill:none;"/>
	<path d="M 223.0,836.0 L 224.0,836.0" style="stroke:#060106; fill:none;"/>
	<path d="M 460.0,836.0 L 461.0,839.0" style="stroke:#060106; fill:none;"/>
	<path d="M 515.0,838.0 L 515.0,839.0" style="stroke:#060106; fill:none;"/>
	<path d="M 225.0,840.0 L 225.0,841.0" style="stroke:#060106; fill:none;"/>
	<path d="M 506.0,840.0 L 507.0,840.0" style="stroke:#060106; fill:none;"/>
	<path d="M 227.0,843.0 L 226.0,844.0" style="stroke:#060106; fill:none;"/>
	<path d="M 506.0,843.0 L 504.0,854.0" style="stroke:#060106; fill:none;"/>
	<path d="M 531.0,845.0 L 532.0,845.0" style="stroke:#060106; fill:none;"/>
	<path d="M 534.0,846.0 L 538.0,846.0" style="stroke:#060106; fill:none;"/>
	<path d="M 228.0,848.0 L 231.0,850.0" style="stroke:#060106; fill:none;"/>
	<path d="M 541.0,847.0 L 549.0,849.0" style="stroke:#060106; fill:none;"/>
	<path d="M 692.0,849.0 L 694.0,847.0" style="stroke:#060106; fill:none;"/>
	<path d="M 483.0,852.0 L 486.0,854.0" style="stroke:#060106; fill:none;"/>
	<path d="M 233.0,853.0 L 234.0,853.0" style="stroke:#060106; fill:none;"/>
	<path d="M 488.0,855.0 L 495.0,857.0" style="stroke:#060106; fill:none;"/>
	<path d="M 234.0,856.0 L 235.0,856.0" style="stroke:#060106; fill:none;"/>
	<path d="M 545.0,856.0 L 543.0,859.0" style="stroke:#060106; fill:none;"/>
	<path d="M 237.0,860.0 L 238.0,860.0" style="stroke:#060106; fill:none;"/>
	<path d="M 505.0,860.0 L 506.0,861.0" style="stroke:#060106; fill:none;"/>
	<path d="M 239.0,863.0 L 239.0,864.0" style="stroke:#060106; fill:none;"/>
	<path d="M 534.0,866.0 L 536.0,865.0" style="stroke:#060106; fill:none;"/>
	<path d="M 677.0,867.0 L 666.0,880.0" style="stroke:#060106; fill:none;"/>
	<path d="M 241.0,869.0 L 244.0,870.0" style="stroke:#060106; fill:none;"/>
	<path d="M 532.0,868.0 L 532.0,869.0" style="stroke:#060106; fill:none;"/>
	<path d="M 578.0,872.0 L 580.0,873.0" style="stroke:#060106; fill:none;"/>
	<path d="M 248.0,873.0 L 253.0,881.0" style="stroke:#060106; fill:none;"/>
	<path d="M 255.0,883.0 C 262.31,891.373 273.69,901.271 277.0,912.0" style="stroke:#060106; fill:none;"/>
	<path d="M 654.0,892.0 L 652.0,893.0" style="stroke:#060106; fill:none;"/>
	<path d="M 248.0,895.0 L 253.0,895.0" style="stroke:#060106; fill:none;"/>
	<path d="M 262.0,896.0 L 263.0,897.0" style="stroke:#060106; fill:none;"/>
	<path d="M 240.0,898.0 L 242.0,898.0" style="stroke:#060106; fill:none;"/>
	<path d="M 231.0,901.0 L 229.0,902.0" style="stroke:#060106; fill:none;"/>
	<path d="M 202.0,902.0 L 207.0,903.0" style="stroke:#060106; fill:none;"/>
	<path d="M 210.0,905.0 L 213.0,907.0" style="stroke:#060106; fill:none;"/>
	<path d="M 222.0,906.0 L 220.0,908.0" style="stroke:#060106; fill:none;"/>
	<path d="M 186.0,908.0 L 187.0,908.0" style="stroke:#060106; fill:none;"/>
	<path d="M 215.0,909.0 L 215.0,911.0" style="stroke:#060106; fill:none;"/>
	<path d="M 210.0,913.0 L 211.0,913.0" style="stroke:#060106; fill:none;"/>
	<path d="M 165.0,915.0 L 167.0,914.0" style="stroke:#060106; fill:none;"/>
	<path d="M 277.0,915.0 L 286.0,928.0" style="stroke:#060106; fill:none;"/>
	<path d="M 626.0,921.0 L 632.0,915.0" style="stroke:#060106; fill:none;"/>
	<path d="M 155.0,917.0 L 155.0,918.0" style="stroke:#060106; fill:none;"/>
	<path d="M 205.0,917.0 L 205.0,918.0" style="stroke:#060106; fill:none;"/>
	<path d="M 151.0,918.0 L 152.0,920.0" style="stroke:#060106; fill:none;"/>
	<path d="M 198.0,921.0 L 198.0,922.0" style="stroke:#060106; fill:none;"/>
	<path d="M 189.0,926.0 L 196.0,923.0" style="stroke:#060106; fill:none;"/>
	<path d="M 619.0,927.0 L 620.0,927.0" style="stroke:#060106; fill:none;"/>
	<path d="M 602.0,941.0 L 614.0,931.0" style="stroke:#060106; fill:none;"/>
	<path d="M 287.0,932.0 L 289.0,935.0" style="stroke:#060106; fill:none;"/>
	<path d="M 294.0,940.0 L 300.0,948.0" style="stroke:#060106; fill:none;"/>
	<path d="M 599.0,943.0 L 592.0,948.0" style="stroke:#060106; fill:none;"/>
	<path d="M 297.0,948.0 L 297.0,951.0" style="stroke:#060106; fill:none;"/>
	<path d="M 584.0,954.0 L 590.0,951.0" style="stroke:#060106; fill:none;"/>
	<path d="M 582.0,955.0 L 582.0,956.0" style="stroke:#060106; fill:none;"/>
	<path d="M 297.0,956.0 L 297.0,960.0" style="stroke:#060106; fill:none;"/>
	<path d="M 311.0,960.0 L 313.0,960.0" style="stroke:#060106; fill:none;"/>
	<path d="M 305.0,962.0 L 307.0,962.0" style="stroke:#060106; fill:none;"/>
	<path d="M 313.0,962.0 L 315.0,962.0" style="stroke:#060106; fill:none;"/>
	<path d="M 296.0,966.0 L 298.0,966.0" style="stroke:#060106; fill:none;"/>
	<path d="M 320.0,965.0 L 322.0,967.0" style="stroke:#060106; fill:none;"/>
	<path d="M 291.0,968.0 L 291.0,969.0" style="stroke:#060106; fill:none;"/>
	<path d="M 569.0,970.0 L 570.0,970.0" style="stroke:#060106; fill:none;"/>
	<path d="M 271.0,973.0 L 282.0,974.0" style="stroke:#060106; fill:none;"/>
	<path d="M 274.0,977.0 L 270.0,981.0" style="stroke:#060106; fill:none;"/>
	<path d="M 259.0,978.0 L 258.0,980.0" style="stroke:#060106; fill:none;"/>
	<path d="M 337.0,978.0 L 338.0,978.0" style="stroke:#060106; fill:none;"/>
	<path d="M 245.0,987.0 L 254.0,982.0" style="stroke:#060106; fill:none;"/>
	<path d="M 266.0,982.0 L 265.0,983.0" style="stroke:#060106; fill:none;"/>
	<path d="M 343.0,983.0 L 345.0,984.0" style="stroke:#060106; fill:none;"/>
	<path d="M 263.0,984.0 L 263.0,985.0" style="stroke:#060106; fill:none;"/>
	<path d="M 553.0,984.0 L 539.0,994.0" style="stroke:#060106; fill:none;"/>
	<path d="M 348.0,985.0 L 361.0,996.0" style="stroke:#060106; fill:none;"/>
	<path d="M 255.0,988.0 L 255.0,989.0" style="stroke:#060106; fill:none;"/>
	<path d="M 240.0,994.0 C 239.147,991.12 239.468,990.647 242.0,989.0" style="stroke:#060106; fill:none;"/>
	<path d="M 544.0,996.0 L 536.0,1003.0" style="stroke:#060106; fill:none;"/>
	<path d="M 362.0,998.0 L 372.0,1004.0" style="stroke:#060106; fill:none;"/>
	<path d="M 531.0,1001.0 L 532.0,1001.0" style="stroke:#060106; fill:none;"/>
	<path d="M 527.0,1002.0 L 514.0,1012.0" style="stroke:#060106; fill:none;"/>
	<path d="M 367.0,1003.0 L 365.0,1018.0" style="stroke:#060106; fill:none;"/>
	<path d="M 533.0,1004.0 L 526.0,1009.0" style="stroke:#060106; fill:none;"/>
	<path d="M 389.0,1010.0 L 390.0,1011.0" style="stroke:#060106; fill:none;"/>
	<path d="M 522.0,1010.0 L 522.0,1011.0" style="stroke:#060106; fill:none;"/>
	<path d="M 518.0,1013.0 L 517.0,1014.0" style="stroke:#060106; fill:none;"/>
	<path d="M 506.0,1015.0 L 509.0,1015.0" style="stroke:#060106; fill:none;"/>
	<path d="M 481.0,1024.0 L 500.0,1018.0" style="stroke:#060106; fill:none;"/>
	<path d="M 419.0,1020.0 L 421.0,1021.0" style="stroke:#060106; fill:none;"/>
	<path d="M 424.0,1021.0 L 425.0,1021.0" style="stroke:#060106; fill:none;"/>
	<path d="M 362.0,1022.0 L 362.0,1023.0" style="stroke:#060106; fill:none;"/>
	<path d="M 479.0,1022.0 L 471.0,1025.0" style="stroke:#060106; fill:none;"/>
	<path d="M 457.0,1026.0 L 468.0,1025.0" style="stroke:#060106; fill:none;"/>
	<path d="M 360.0,1026.0 L 356.0,1031.0" style="stroke:#060106; fill:none;"/>
	<path d="M 354.0,1033.0 L 354.0,1034.0" style="stroke:#060106; fill:none;"/>
	<path d="M 341.0,1036.0 L 340.0,1038.0" style="stroke:#060106; fill:none;"/>
	<path d="M 350.0,1037.0 L 351.0,1037.0" style="stroke:#060106; fill:none;"/>
	<path d="M 336.0,1038.0 L 336.0,1039.0" style="stroke:#060106; fill:none;"/>
	<path d="M 325.0,1045.0 L 332.0,1042.0" style="stroke:#060106; fill:none;"/>
	<path d="M 343.0,1041.0 L 340.0,1043.0" style="stroke:#060106; fill:none;"/>
	<path d="M 334.0,1043.0 L 335.0,1043.0" style="stroke:#060106; fill:none;"/>
	<path d="M 321.0,1047.0 L 314.0,1054.0 L 317.0,1052.0" style="stroke:#060106; fill:none;"/>
	<path d="M 309.0,1058.0 L 313.0,1055.0" style="stroke:#060106; fill:none;"/>
	<path d="M 306.0,1058.0 L 304.0,1059.0" style="stroke:#060106; fill:none;"/>
	<path d="M 300.0,1062.0 L 300.0,1063.0" style="stroke:#060106; fill:none;"/>
	<path d="M 341.0,1073.0 L 344.0,1072.0" style="stroke:#060106; fill:none;"/>
	<path d="M 348.0,1072.0 L 353.0,1073.0" style="stroke:#060106; fill:none;"/>
	<path d="M 336.0,1073.0 L 337.0,1073.0" style="stroke:#060106; fill:none;"/>
	<path d="M 355.0,1074.0 L 359.0,1074.0" style="stroke:#060106; fill:none;"/>
	<path d="M 363.0,1076.0 L 366.0,1079.0" style="stroke:#060106; fill:none;"/>
	<path d="M 308.0,1077.0 L 308.0,1078.0" style="stroke:#060106; fill:none;"/>
</svg>
