<?xml version="1.0" ?>
<svg baseProfile="full" height="1329" version="1.1" width="1005" xmlns="http://www.w3.org/2000/svg" xmlns:ev="http://www.w3.org/2001/xml-events" xmlns:xlink="http://www.w3.org/1999/xlink">
	<defs/>
	<path d="M 725.0,339.0 L 726.0,339.0" style="stroke:#060106; fill:none;"/>
	<path d="M 736.0,362.0 L 737.0,362.0" style="stroke:#060106; fill:none;"/>
	<path d="M 404.0,383.0 L 406.0,382.0" style="stroke:#060106; fill:none;"/>
	<path d="M 328.0,385.0 L 334.0,383.0" style="stroke:#060106; fill:none;"/>
	<path d="M 402.0,385.0 L 401.0,386.0" style="stroke:#060106; fill:none;"/>
	<path d="M 388.0,397.0 L 387.0,398.0" style="stroke:#060106; fill:none;"/>
	<path d="M 341.0,398.0 L 341.0,403.0" style="stroke:#060106; fill:none;"/>
	<path d="M 342.0,406.0 L 342.0,409.0" style="stroke:#060106; fill:none;"/>
	<path d="M 360.0,416.0 L 360.0,417.0" style="stroke:#060106; fill:none;"/>
	<path d="M 342.0,419.0 L 340.0,421.0" style="stroke:#060106; fill:none;"/>
	<path d="M 358.0,423.0 L 356.0,424.0" style="stroke:#060106; fill:none;"/>
	<path d="M 340.0,424.0 L 339.0,442.0" style="stroke:#060106; fill:none;"/>
	<path d="M 324.0,429.0 L 324.0,430.0" style="stroke:#060106; fill:none;"/>
	<path d="M 295.0,434.0 L 290.0,440.0" style="stroke:#060106; fill:none;"/>
	<path d="M 350.0,435.0 L 350.0,436.0" style="stroke:#060106; fill:none;"/>
	<path d="M 763.0,435.0 L 762.0,436.0" style="stroke:#060106; fill:none;"/>
	<path d="M 778.0,436.0 L 779.0,436.0" style="stroke:#060106; fill:none;"/>
	<path d="M 307.0,443.0 L 309.0,442.0" style="stroke:#060106; fill:none;"/>
	<path d="M 321.0,445.0 L 322.0,445.0" style="stroke:#060106; fill:none;"/>
	<path d="M 337.0,445.0 L 339.0,448.0" style="stroke:#060106; fill:none;"/>
	<path d="M 303.0,447.0 L 303.0,448.0" style="stroke:#060106; fill:none;"/>
	<path d="M 283.0,451.0 L 285.0,451.0" style="stroke:#060106; fill:none;"/>
	<path d="M 770.0,452.0 L 769.0,453.0" style="stroke:#060106; fill:none;"/>
	<path d="M 283.0,453.0 L 282.0,455.0" style="stroke:#060106; fill:none;"/>
	<path d="M 289.0,455.0 L 286.0,458.0" style="stroke:#060106; fill:none;"/>
	<path d="M 773.0,455.0 L 772.0,456.0" style="stroke:#060106; fill:none;"/>
	<path d="M 278.0,459.0 L 273.0,467.0" style="stroke:#060106; fill:none;"/>
	<path d="M 268.0,471.0 L 270.0,470.0" style="stroke:#060106; fill:none;"/>
	<path d="M 266.0,473.0 L 266.0,475.0" style="stroke:#060106; fill:none;"/>
	<path d="M 477.0,476.0 L 480.0,477.0" style="stroke:#060106; fill:none;"/>
	<path d="M 468.0,477.0 L 475.0,477.0" style="stroke:#060106; fill:none;"/>
	<path d="M 485.0,477.0 L 485.0,478.0" style="stroke:#060106; fill:none;"/>
	<path d="M 312.0,490.0 L 321.0,481.0" style="stroke:#060106; fill:none;"/>
	<path d="M 786.0,481.0 L 786.0,484.0" style="stroke:#060106; fill:none;"/>
	<path d="M 493.0,482.0 L 493.0,483.0" style="stroke:#060106; fill:none;"/>
	<path d="M 306.0,486.0 L 308.0,484.0" style="stroke:#060106; fill:none;"/>
	<path d="M 500.0,485.0 L 501.0,485.0" style="stroke:#060106; fill:none;"/>
	<path d="M 784.0,485.0 L 780.0,492.0" style="stroke:#060106; fill:none;"/>
	<path d="M 302.0,488.0 L 294.0,495.0" style="stroke:#060106; fill:none;"/>
	<path d="M 510.0,488.0 L 512.0,490.0" style="stroke:#060106; fill:none;"/>
	<path d="M 833.0,492.0 L 838.0,488.0" style="stroke:#060106; fill:none;"/>
	<path d="M 260.0,490.0 L 262.0,490.0" style="stroke:#060106; fill:none;"/>
	<path d="M 514.0,491.0 L 516.0,493.0" style="stroke:#060106; fill:none;"/>
	<path d="M 310.0,493.0 L 308.0,494.0" style="stroke:#060106; fill:none;"/>
	<path d="M 488.0,495.0 L 488.0,497.0" style="stroke:#060106; fill:none;"/>
	<path d="M 305.0,498.0 L 295.0,512.0" style="stroke:#060106; fill:none;"/>
	<path d="M 509.0,499.0 L 510.0,499.0" style="stroke:#060106; fill:none;"/>
	<path d="M 287.0,501.0 L 288.0,501.0" style="stroke:#060106; fill:none;"/>
	<path d="M 850.0,501.0 L 851.0,501.0" style="stroke:#060106; fill:none;"/>
	<path d="M 510.0,504.0 L 509.0,505.0" style="stroke:#060106; fill:none;"/>
	<path d="M 284.0,505.0 L 284.0,507.0" style="stroke:#060106; fill:none;"/>
	<path d="M 532.0,512.0 L 532.0,513.0" style="stroke:#060106; fill:none;"/>
	<path d="M 293.0,514.0 L 273.0,538.0" style="stroke:#060106; fill:none;"/>
	<path d="M 241.0,517.0 L 238.0,524.0" style="stroke:#060106; fill:none;"/>
	<path d="M 537.0,522.0 L 537.0,523.0" style="stroke:#060106; fill:none;"/>
	<path d="M 845.0,523.0 L 844.0,525.0" style="stroke:#060106; fill:none;"/>
	<path d="M 236.0,527.0 L 230.0,539.0" style="stroke:#060106; fill:none;"/>
	<path d="M 841.0,527.0 L 842.0,527.0" style="stroke:#060106; fill:none;"/>
	<path d="M 279.0,533.0 L 278.0,534.0" style="stroke:#060106; fill:none;"/>
	<path d="M 837.0,533.0 L 836.0,535.0" style="stroke:#060106; fill:none;"/>
	<path d="M 233.0,535.0 L 232.0,536.0" style="stroke:#060106; fill:none;"/>
	<path d="M 544.0,540.0 L 545.0,540.0" style="stroke:#060106; fill:none;"/>
	<path d="M 228.0,542.0 L 229.0,542.0" style="stroke:#060106; fill:none;"/>
	<path d="M 269.0,543.0 L 268.0,546.0" style="stroke:#060106; fill:none;"/>
	<path d="M 228.0,545.0 L 229.0,545.0" style="stroke:#060106; fill:none;"/>
	<path d="M 251.0,568.0 L 263.0,553.0" style="stroke:#060106; fill:none;"/>
	<path d="M 548.0,556.0 L 548.0,557.0" style="stroke:#060106; fill:none;"/>
	<path d="M 246.0,572.0 L 247.0,574.0" style="stroke:#060106; fill:none;"/>
	<path d="M 242.0,579.0 L 244.0,580.0" style="stroke:#060106; fill:none;"/>
	<path d="M 239.0,586.0 L 240.0,582.0" style="stroke:#060106; fill:none;"/>
	<path d="M 235.0,590.0 L 233.0,593.0" style="stroke:#060106; fill:none;"/>
	<path d="M 231.0,596.0 L 232.0,596.0" style="stroke:#060106; fill:none;"/>
	<path d="M 203.0,638.0 L 196.0,651.0" style="stroke:#060106; fill:none;"/>
	<path d="M 183.0,680.0 C 184.804,671.371 188.476,661.875 194.0,655.0" style="stroke:#060106; fill:none;"/>
	<path d="M 432.0,656.0 L 431.0,657.0" style="stroke:#060106; fill:none;"/>
	<path d="M 667.0,657.0 L 666.0,658.0" style="stroke:#060106; fill:none;"/>
	<path d="M 429.0,659.0 L 427.0,661.0" style="stroke:#060106; fill:none;"/>
	<path d="M 670.0,659.0 L 671.0,659.0" style="stroke:#060106; fill:none;"/>
	<path d="M 677.0,664.0 L 679.0,663.0" style="stroke:#060106; fill:none;"/>
	<path d="M 672.0,669.0 L 674.0,669.0" style="stroke:#060106; fill:none;"/>
	<path d="M 703.0,679.0 L 704.0,679.0" style="stroke:#060106; fill:none;"/>
	<path d="M 697.0,680.0 L 698.0,681.0" style="stroke:#060106; fill:none;"/>
	<path d="M 688.0,683.0 L 690.0,684.0" style="stroke:#060106; fill:none;"/>
	<path d="M 699.0,683.0 L 700.0,686.0" style="stroke:#060106; fill:none;"/>
	<path d="M 685.0,686.0 L 685.0,687.0" style="stroke:#060106; fill:none;"/>
	<path d="M 692.0,689.0 L 692.0,690.0" style="stroke:#060106; fill:none;"/>
	<path d="M 687.0,690.0 L 687.0,692.0" style="stroke:#060106; fill:none;"/>
	<path d="M 772.0,693.0 L 772.0,694.0" style="stroke:#060106; fill:none;"/>
	<path d="M 710.0,694.0 L 710.0,695.0" style="stroke:#060106; fill:none;"/>
	<path d="M 441.0,706.0 L 441.0,707.0" style="stroke:#060106; fill:none;"/>
	<path d="M 716.0,732.0 L 716.0,733.0" style="stroke:#060106; fill:none;"/>
	<path d="M 178.0,748.0 L 179.0,752.0" style="stroke:#060106; fill:none;"/>
	<path d="M 492.0,750.0 L 493.0,752.0" style="stroke:#060106; fill:none;"/>
	<path d="M 335.0,754.0 L 337.0,756.0" style="stroke:#060106; fill:none;"/>
	<path d="M 493.0,754.0 L 494.0,754.0" style="stroke:#060106; fill:none;"/>
	<path d="M 495.0,758.0 L 495.0,760.0" style="stroke:#060106; fill:none;"/>
	<path d="M 179.0,759.0 L 179.0,762.0" style="stroke:#060106; fill:none;"/>
	<path d="M 341.0,759.0 L 342.0,759.0" style="stroke:#060106; fill:none;"/>
	<path d="M 180.0,767.0 L 178.0,768.0" style="stroke:#060106; fill:none;"/>
	<path d="M 352.0,768.0 L 362.0,778.0" style="stroke:#060106; fill:none;"/>
	<path d="M 179.0,769.0 L 179.0,772.0" style="stroke:#060106; fill:none;"/>
	<path d="M 180.0,775.0 L 180.0,777.0" style="stroke:#060106; fill:none;"/>
	<path d="M 179.0,780.0 L 179.0,783.0" style="stroke:#060106; fill:none;"/>
	<path d="M 180.0,786.0 L 180.0,805.0" style="stroke:#060106; fill:none;"/>
	<path d="M 121.0,804.0 L 120.0,806.0" style="stroke:#060106; fill:none;"/>
	<path d="M 385.0,806.0 L 386.0,807.0" style="stroke:#060106; fill:none;"/>
	<path d="M 117.0,809.0 L 115.0,812.0" style="stroke:#060106; fill:none;"/>
	<path d="M 180.0,811.0 L 181.0,814.0" style="stroke:#060106; fill:none;"/>
	<path d="M 391.0,812.0 L 392.0,812.0" style="stroke:#060106; fill:none;"/>
	<path d="M 113.0,815.0 L 114.0,815.0" style="stroke:#060106; fill:none;"/>
	<path d="M 395.0,815.0 L 396.0,816.0" style="stroke:#060106; fill:none;"/>
	<path d="M 181.0,818.0 L 181.0,822.0" style="stroke:#060106; fill:none;"/>
	<path d="M 398.0,818.0 L 399.0,818.0" style="stroke:#060106; fill:none;"/>
	<path d="M 111.0,821.0 L 106.0,829.0" style="stroke:#060106; fill:none;"/>
	<path d="M 405.0,824.0 L 408.0,826.0" style="stroke:#060106; fill:none;"/>
	<path d="M 180.0,826.0 L 181.0,826.0" style="stroke:#060106; fill:none;"/>
	<path d="M 181.0,829.0 L 182.0,832.0" style="stroke:#060106; fill:none;"/>
	<path d="M 103.0,834.0 L 103.0,835.0" style="stroke:#060106; fill:none;"/>
	<path d="M 181.0,835.0 L 181.0,836.0" style="stroke:#060106; fill:none;"/>
	<path d="M 101.0,838.0 L 101.0,839.0" style="stroke:#060106; fill:none;"/>
	<path d="M 426.0,842.0 L 427.0,843.0" style="stroke:#060106; fill:none;"/>
	<path d="M 98.0,843.0 L 97.0,844.0" style="stroke:#060106; fill:none;"/>
	<path d="M 94.0,847.0 L 94.0,849.0" style="stroke:#060106; fill:none;"/>
	<path d="M 181.0,850.0 L 181.0,852.0" style="stroke:#060106; fill:none;"/>
	<path d="M 182.0,856.0 L 183.0,856.0" style="stroke:#060106; fill:none;"/>
	<path d="M 90.0,857.0 L 89.0,858.0" style="stroke:#060106; fill:none;"/>
	<path d="M 182.0,858.0 L 181.0,859.0" style="stroke:#060106; fill:none;"/>
	<path d="M 182.0,861.0 L 183.0,861.0" style="stroke:#060106; fill:none;"/>
	<path d="M 86.0,863.0 L 85.0,864.0" style="stroke:#060106; fill:none;"/>
	<path d="M 443.0,863.0 L 444.0,863.0" style="stroke:#060106; fill:none;"/>
	<path d="M 757.0,865.0 L 759.0,866.0" style="stroke:#060106; fill:none;"/>
	<path d="M 183.0,866.0 L 183.0,869.0" style="stroke:#060106; fill:none;"/>
	<path d="M 83.0,867.0 L 84.0,867.0" style="stroke:#060106; fill:none;"/>
	<path d="M 450.0,868.0 L 454.0,868.0" style="stroke:#060106; fill:none;"/>
	<path d="M 740.0,871.0 L 742.0,869.0" style="stroke:#060106; fill:none;"/>
	<path d="M 80.0,872.0 L 81.0,873.0" style="stroke:#060106; fill:none;"/>
	<path d="M 183.0,875.0 L 182.0,876.0" style="stroke:#060106; fill:none;"/>
	<path d="M 766.0,879.0 L 769.0,877.0" style="stroke:#060106; fill:none;"/>
	<path d="M 772.0,877.0 L 774.0,877.0" style="stroke:#060106; fill:none;"/>
	<path d="M 797.0,878.0 L 799.0,877.0" style="stroke:#060106; fill:none;"/>
	<path d="M 801.0,878.0 L 803.0,877.0" style="stroke:#060106; fill:none;"/>
	<path d="M 812.0,877.0 L 813.0,877.0" style="stroke:#060106; fill:none;"/>
	<path d="M 78.0,879.0 L 77.0,881.0" style="stroke:#060106; fill:none;"/>
	<path d="M 761.0,879.0 L 761.0,880.0" style="stroke:#060106; fill:none;"/>
	<path d="M 753.0,881.0 L 755.0,881.0" style="stroke:#060106; fill:none;"/>
	<path d="M 822.0,881.0 L 823.0,881.0" style="stroke:#060106; fill:none;"/>
	<path d="M 76.0,884.0 L 75.0,886.0" style="stroke:#060106; fill:none;"/>
	<path d="M 726.0,884.0 L 724.0,886.0" style="stroke:#060106; fill:none;"/>
	<path d="M 185.0,887.0 L 186.0,887.0" style="stroke:#060106; fill:none;"/>
	<path d="M 155.0,888.0 L 155.0,889.0" style="stroke:#060106; fill:none;"/>
	<path d="M 739.0,888.0 L 740.0,888.0" style="stroke:#060106; fill:none;"/>
	<path d="M 74.0,889.0 L 67.0,895.0" style="stroke:#060106; fill:none;"/>
	<path d="M 736.0,892.0 L 738.0,890.0" style="stroke:#060106; fill:none;"/>
	<path d="M 188.0,892.0 L 189.0,893.0" style="stroke:#060106; fill:none;"/>
	<path d="M 717.0,893.0 L 717.0,894.0" style="stroke:#060106; fill:none;"/>
	<path d="M 733.0,893.0 L 732.0,895.0" style="stroke:#060106; fill:none;"/>
	<path d="M 63.0,897.0 L 64.0,897.0" style="stroke:#060106; fill:none;"/>
	<path d="M 768.0,897.0 L 768.0,898.0" style="stroke:#060106; fill:none;"/>
	<path d="M 69.0,898.0 L 70.0,898.0" style="stroke:#060106; fill:none;"/>
	<path d="M 806.0,900.0 L 806.0,901.0" style="stroke:#060106; fill:none;"/>
	<path d="M 189.0,901.0 L 189.0,902.0" style="stroke:#060106; fill:none;"/>
	<path d="M 804.0,902.0 L 804.0,903.0" style="stroke:#060106; fill:none;"/>
	<path d="M 708.0,903.0 L 704.0,907.0" style="stroke:#060106; fill:none;"/>
	<path d="M 725.0,905.0 L 725.0,906.0" style="stroke:#060106; fill:none;"/>
	<path d="M 817.0,905.0 L 816.0,907.0" style="stroke:#060106; fill:none;"/>
	<path d="M 798.0,908.0 L 796.0,910.0" style="stroke:#060106; fill:none;"/>
	<path d="M 196.0,909.0 L 196.0,910.0" style="stroke:#060106; fill:none;"/>
	<path d="M 811.0,910.0 L 811.0,911.0" style="stroke:#060106; fill:none;"/>
	<path d="M 808.0,913.0 L 802.0,918.0" style="stroke:#060106; fill:none;"/>
	<path d="M 63.0,914.0 L 60.0,917.0" style="stroke:#060106; fill:none;"/>
	<path d="M 194.0,914.0 L 195.0,914.0" style="stroke:#060106; fill:none;"/>
	<path d="M 719.0,914.0 L 718.0,915.0" style="stroke:#060106; fill:none;"/>
	<path d="M 196.0,916.0 L 195.0,918.0" style="stroke:#060106; fill:none;"/>
	<path d="M 789.0,916.0 L 789.0,917.0" style="stroke:#060106; fill:none;"/>
	<path d="M 691.0,917.0 L 690.0,918.0" style="stroke:#060106; fill:none;"/>
	<path d="M 786.0,918.0 L 783.0,920.0" style="stroke:#060106; fill:none;"/>
	<path d="M 59.0,920.0 L 60.0,920.0" style="stroke:#060106; fill:none;"/>
	<path d="M 373.0,921.0 L 372.0,922.0" style="stroke:#060106; fill:none;"/>
	<path d="M 799.0,921.0 L 798.0,922.0" style="stroke:#060106; fill:none;"/>
	<path d="M 198.0,922.0 L 202.0,925.0 L 200.0,924.0" style="stroke:#060106; fill:none;"/>
	<path d="M 705.0,926.0 L 708.0,924.0" style="stroke:#060106; fill:none;"/>
	<path d="M 681.0,925.0 L 682.0,925.0" style="stroke:#060106; fill:none;"/>
	<path d="M 56.0,926.0 L 57.0,926.0" style="stroke:#060106; fill:none;"/>
	<path d="M 789.0,928.0 L 788.0,929.0" style="stroke:#060106; fill:none;"/>
	<path d="M 46.0,929.0 L 45.0,930.0" style="stroke:#060106; fill:none;"/>
	<path d="M 761.0,931.0 L 764.0,929.0" style="stroke:#060106; fill:none;"/>
	<path d="M 202.0,932.0 L 204.0,930.0" style="stroke:#060106; fill:none;"/>
	<path d="M 206.0,931.0 L 206.0,933.0" style="stroke:#060106; fill:none;"/>
	<path d="M 754.0,931.0 L 753.0,933.0" style="stroke:#060106; fill:none;"/>
	<path d="M 782.0,933.0 L 776.0,938.0" style="stroke:#060106; fill:none;"/>
	<path d="M 670.0,934.0 L 669.0,935.0" style="stroke:#060106; fill:none;"/>
	<path d="M 204.0,935.0 L 205.0,935.0" style="stroke:#060106; fill:none;"/>
	<path d="M 34.0,938.0 L 31.0,940.0" style="stroke:#060106; fill:none;"/>
	<path d="M 662.0,940.0 L 664.0,939.0" style="stroke:#060106; fill:none;"/>
	<path d="M 658.0,944.0 L 660.0,942.0" style="stroke:#060106; fill:none;"/>
	<path d="M 48.0,944.0 L 46.0,947.0" style="stroke:#060106; fill:none;"/>
	<path d="M 26.0,945.0 L 26.0,946.0" style="stroke:#060106; fill:none;"/>
	<path d="M 218.0,946.0 L 220.0,950.0" style="stroke:#060106; fill:none;"/>
	<path d="M 19.0,951.0 L 18.0,952.0" style="stroke:#060106; fill:none;"/>
	<path d="M 13.0,956.0 L 13.0,957.0" style="stroke:#060106; fill:none;"/>
	<path d="M 9.0,961.0 L 11.0,958.0" style="stroke:#060106; fill:none;"/>
	<path d="M 230.0,959.0 L 230.0,960.0" style="stroke:#060106; fill:none;"/>
	<path d="M 5.0,963.0 L 5.0,964.0" style="stroke:#060106; fill:none;"/>
	<path d="M 230.0,966.0 L 230.0,967.0" style="stroke:#060106; fill:none;"/>
	<path d="M 2.0,967.0 L 1.0,968.0" style="stroke:#060106; fill:none;"/>
	<path d="M 245.0,979.0 L 246.0,979.0" style="stroke:#060106; fill:none;"/>
	<path d="M 608.0,979.0 L 611.0,982.0" style="stroke:#060106; fill:none;"/>
	<path d="M 255.0,986.0 L 255.0,987.0" style="stroke:#060106; fill:none;"/>
	<path d="M 264.0,993.0 L 266.0,994.0" style="stroke:#060106; fill:none;"/>
	<path d="M 581.0,996.0 L 579.0,997.0" style="stroke:#060106; fill:none;"/>
	<path d="M 576.0,999.0 L 574.0,1000.0" style="stroke:#060106; fill:none;"/>
	<path d="M 572.0,1001.0 L 572.0,1002.0" style="stroke:#060106; fill:none;"/>
	<path d="M 282.0,1002.0 L 283.0,1004.0" style="stroke:#060106; fill:none;"/>
	<path d="M 287.0,1005.0 L 289.0,1006.0" style="stroke:#060106; fill:none;"/>
	<path d="M 295.0,1010.0 L 297.0,1011.0" style="stroke:#060106; fill:none;"/>
	<path d="M 300.0,1013.0 L 302.0,1012.0" style="stroke:#060106; fill:none;"/>
	<path d="M 551.0,1014.0 L 553.0,1013.0" style="stroke:#060106; fill:none;"/>
	<path d="M 308.0,1015.0 L 310.0,1016.0" style="stroke:#060106; fill:none;"/>
	<path d="M 312.0,1016.0 L 312.0,1017.0" style="stroke:#060106; fill:none;"/>
	<path d="M 315.0,1016.0 L 327.0,1022.0" style="stroke:#060106; fill:none;"/>
	<path d="M 545.0,1017.0 L 544.0,1018.0" style="stroke:#060106; fill:none;"/>
	<path d="M 536.0,1020.0 L 542.0,1018.0" style="stroke:#060106; fill:none;"/>
	<path d="M 534.0,1021.0 L 533.0,1022.0" style="stroke:#060106; fill:none;"/>
	<path d="M 334.0,1023.0 L 334.0,1025.0" style="stroke:#060106; fill:none;"/>
	<path d="M 525.0,1025.0 L 527.0,1024.0" style="stroke:#060106; fill:none;"/>
	<path d="M 352.0,1025.0 L 353.0,1025.0" style="stroke:#060106; fill:none;"/>
	<path d="M 364.0,1025.0 L 363.0,1026.0" style="stroke:#060106; fill:none;"/>
	<path d="M 368.0,1026.0 L 373.0,1027.0" style="stroke:#060106; fill:none;"/>
	<path d="M 376.0,1027.0 L 381.0,1027.0" style="stroke:#060106; fill:none;"/>
	<path d="M 385.0,1028.0 L 390.0,1028.0" style="stroke:#060106; fill:none;"/>
	<path d="M 397.0,1028.0 L 397.0,1029.0" style="stroke:#060106; fill:none;"/>
	<path d="M 518.0,1028.0 L 517.0,1029.0" style="stroke:#060106; fill:none;"/>
	<path d="M 393.0,1029.0 L 394.0,1029.0" style="stroke:#060106; fill:none;"/>
	<path d="M 407.0,1030.0 L 406.0,1031.0" style="stroke:#060106; fill:none;"/>
	<path d="M 411.0,1032.0 L 413.0,1031.0" style="stroke:#060106; fill:none;"/>
	<path d="M 418.0,1031.0 L 419.0,1031.0" style="stroke:#060106; fill:none;"/>
	<path d="M 432.0,1032.0 L 435.0,1032.0" style="stroke:#060106; fill:none;"/>
	<path d="M 438.0,1032.0 L 441.0,1034.0" style="stroke:#060106; fill:none;"/>
	<path d="M 445.0,1034.0 L 471.0,1034.0" style="stroke:#060106; fill:none;"/>
	<path d="M 475.0,1034.0 L 481.0,1034.0" style="stroke:#060106; fill:none;"/>
	<path d="M 505.0,1071.0 L 506.0,1071.0" style="stroke:#060106; fill:none;"/>
	<path d="M 2.0,1093.0 L 2.0,1094.0" style="stroke:#060106; fill:none;"/>
	<path d="M 469.0,1111.0 L 468.0,1112.0" style="stroke:#060106; fill:none;"/>
	<path d="M 471.0,1116.0 L 470.0,1118.0" style="stroke:#060106; fill:none;"/>
	<path d="M 467.0,1124.0 L 459.0,1135.0" style="stroke:#060106; fill:none;"/>
	<path d="M 339.0,1137.0 L 340.0,1137.0" style="stroke:#060106; fill:none;"/>
	<path d="M 458.0,1137.0 L 455.0,1143.0" style="stroke:#060106; fill:none;"/>
	<path d="M 454.0,1146.0 L 446.0,1158.0" style="stroke:#060106; fill:none;"/>
	<path d="M 392.0,1214.0 L 401.0,1209.0" style="stroke:#060106; fill:none;"/>
	<path d="M 389.0,1215.0 L 373.0,1226.0" style="stroke:#060106; fill:none;"/>
	<path d="M 384.0,1217.0 L 386.0,1217.0" style="stroke:#060106; fill:none;"/>
	<path d="M 367.0,1231.0 L 352.0,1242.0" style="stroke:#060106; fill:none;"/>
	<path d="M 348.0,1245.0 L 342.0,1250.0" style="stroke:#060106; fill:none;"/>
	<path d="M 338.0,1253.0 L 340.0,1253.0" style="stroke:#060106; fill:none;"/>
	<path d="M 336.0,1254.0 L 336.0,1255.0" style="stroke:#060106; fill:none;"/>
	<path d="M 314.0,1275.0 L 334.0,1257.0" style="stroke:#060106; fill:none;"/>
	<path d="M 311.0,1278.0 L 311.0,1279.0" style="stroke:#060106; fill:none;"/>
	<path d="M 308.0,1282.0 L 306.0,1285.0" style="stroke:#060106; fill:none;"/>
</svg>
