<?xml version="1.0" ?>
<svg baseProfile="full" height="1329" version="1.1" width="1005" xmlns="http://www.w3.org/2000/svg" xmlns:ev="http://www.w3.org/2001/xml-events" xmlns:xlink="http://www.w3.org/1999/xlink">
	<defs/>
	<path d="M 636.0,290.0 L 636.0,291.0" style="stroke:#070107; fill:none;"/>
	<path d="M 632.0,293.0 L 634.0,292.0" style="stroke:#070107; fill:none;"/>
	<path d="M 651.0,311.0 L 650.0,312.0" style="stroke:#070107; fill:none;"/>
	<path d="M 649.0,314.0 L 649.0,315.0" style="stroke:#070107; fill:none;"/>
	<path d="M 694.0,376.0 L 694.0,377.0" style="stroke:#070107; fill:none;"/>
	<path d="M 706.0,390.0 L 705.0,391.0" style="stroke:#070107; fill:none;"/>
	<path d="M 709.0,392.0 L 709.0,393.0" style="stroke:#070107; fill:none;"/>
	<path d="M 347.0,405.0 L 345.0,407.0" style="stroke:#070107; fill:none;"/>
	<path d="M 780.0,407.0 L 777.0,412.0" style="stroke:#070107; fill:none;"/>
	<path d="M 341.0,410.0 L 341.0,411.0" style="stroke:#070107; fill:none;"/>
	<path d="M 335.0,417.0 L 335.0,418.0" style="stroke:#070107; fill:none;"/>
	<path d="M 333.0,420.0 L 331.0,421.0" style="stroke:#070107; fill:none;"/>
	<path d="M 726.0,424.0 L 726.0,426.0" style="stroke:#070107; fill:none;"/>
	<path d="M 797.0,426.0 L 797.0,427.0" style="stroke:#070107; fill:none;"/>
	<path d="M 262.0,440.0 L 267.0,436.0" style="stroke:#070107; fill:none;"/>
	<path d="M 322.0,436.0 L 322.0,437.0" style="stroke:#070107; fill:none;"/>
	<path d="M 797.0,439.0 L 795.0,442.0" style="stroke:#070107; fill:none;"/>
	<path d="M 794.0,444.0 L 795.0,444.0" style="stroke:#070107; fill:none;"/>
	<path d="M 278.0,450.0 L 281.0,460.0" style="stroke:#070107; fill:none;"/>
	<path d="M 792.0,451.0 L 791.0,453.0" style="stroke:#070107; fill:none;"/>
	<path d="M 301.0,461.0 L 301.0,462.0" style="stroke:#070107; fill:none;"/>
	<path d="M 282.0,463.0 L 282.0,464.0" style="stroke:#070107; fill:none;"/>
	<path d="M 284.0,469.0 L 282.0,470.0" style="stroke:#070107; fill:none;"/>
	<path d="M 300.0,469.0 L 298.0,470.0" style="stroke:#070107; fill:none;"/>
	<path d="M 284.0,476.0 L 287.0,491.0" style="stroke:#070107; fill:none;"/>
	<path d="M 297.0,482.0 L 296.0,483.0" style="stroke:#070107; fill:none;"/>
	<path d="M 269.0,483.0 L 269.0,484.0" style="stroke:#070107; fill:none;"/>
	<path d="M 437.0,488.0 L 438.0,488.0" style="stroke:#070107; fill:none;"/>
	<path d="M 426.0,490.0 L 424.0,492.0" style="stroke:#070107; fill:none;"/>
	<path d="M 430.0,490.0 L 431.0,490.0" style="stroke:#070107; fill:none;"/>
	<path d="M 462.0,490.0 L 465.0,490.0" style="stroke:#070107; fill:none;"/>
	<path d="M 467.0,490.0 L 469.0,491.0" style="stroke:#070107; fill:none;"/>
	<path d="M 420.0,492.0 L 422.0,492.0" style="stroke:#070107; fill:none;"/>
	<path d="M 470.0,494.0 L 471.0,495.0" style="stroke:#070107; fill:none;"/>
	<path d="M 242.0,495.0 L 241.0,498.0" style="stroke:#070107; fill:none;"/>
	<path d="M 285.0,495.0 L 288.0,497.0" style="stroke:#070107; fill:none;"/>
	<path d="M 478.0,498.0 L 478.0,499.0" style="stroke:#070107; fill:none;"/>
	<path d="M 270.0,499.0 L 271.0,499.0" style="stroke:#070107; fill:none;"/>
	<path d="M 257.0,500.0 L 256.0,501.0" style="stroke:#070107; fill:none;"/>
	<path d="M 467.0,502.0 L 466.0,503.0" style="stroke:#070107; fill:none;"/>
	<path d="M 445.0,505.0 L 445.0,506.0" style="stroke:#070107; fill:none;"/>
	<path d="M 235.0,517.0 L 235.0,519.0" style="stroke:#070107; fill:none;"/>
	<path d="M 499.0,518.0 L 499.0,519.0" style="stroke:#070107; fill:none;"/>
	<path d="M 241.0,519.0 L 240.0,520.0" style="stroke:#070107; fill:none;"/>
	<path d="M 284.0,521.0 L 285.0,521.0" style="stroke:#070107; fill:none;"/>
	<path d="M 808.0,523.0 L 807.0,524.0" style="stroke:#070107; fill:none;"/>
	<path d="M 283.0,524.0 L 284.0,524.0" style="stroke:#070107; fill:none;"/>
	<path d="M 233.0,526.0 L 229.0,533.0" style="stroke:#070107; fill:none;"/>
	<path d="M 279.0,532.0 L 280.0,532.0" style="stroke:#070107; fill:none;"/>
	<path d="M 510.0,533.0 L 511.0,533.0" style="stroke:#070107; fill:none;"/>
	<path d="M 227.0,536.0 L 226.0,539.0" style="stroke:#070107; fill:none;"/>
	<path d="M 278.0,536.0 L 275.0,540.0" style="stroke:#070107; fill:none;"/>
	<path d="M 267.0,540.0 L 268.0,540.0" style="stroke:#070107; fill:none;"/>
	<path d="M 224.0,542.0 L 224.0,543.0" style="stroke:#070107; fill:none;"/>
	<path d="M 266.0,542.0 L 266.0,543.0" style="stroke:#070107; fill:none;"/>
	<path d="M 274.0,543.0 L 263.0,567.0" style="stroke:#070107; fill:none;"/>
	<path d="M 263.0,546.0 L 257.0,554.0" style="stroke:#070107; fill:none;"/>
	<path d="M 518.0,548.0 L 519.0,549.0" style="stroke:#070107; fill:none;"/>
	<path d="M 225.0,558.0 L 224.0,559.0" style="stroke:#070107; fill:none;"/>
	<path d="M 252.0,562.0 L 253.0,562.0" style="stroke:#070107; fill:none;"/>
	<path d="M 250.0,567.0 L 250.0,569.0" style="stroke:#070107; fill:none;"/>
	<path d="M 262.0,570.0 L 248.0,602.0" style="stroke:#070107; fill:none;"/>
	<path d="M 212.0,590.0 L 210.0,597.0" style="stroke:#070107; fill:none;"/>
	<path d="M 741.0,595.0 L 742.0,595.0" style="stroke:#070107; fill:none;"/>
	<path d="M 210.0,599.0 L 207.0,610.0" style="stroke:#070107; fill:none;"/>
	<path d="M 246.0,607.0 L 245.0,611.0" style="stroke:#070107; fill:none;"/>
	<path d="M 206.0,614.0 L 206.0,618.0" style="stroke:#070107; fill:none;"/>
	<path d="M 659.0,615.0 L 660.0,615.0" style="stroke:#070107; fill:none;"/>
	<path d="M 668.0,616.0 L 667.0,617.0" style="stroke:#070107; fill:none;"/>
	<path d="M 242.0,617.0 L 243.0,617.0" style="stroke:#070107; fill:none;"/>
	<path d="M 671.0,617.0 L 676.0,618.0" style="stroke:#070107; fill:none;"/>
	<path d="M 206.0,620.0 L 207.0,620.0" style="stroke:#070107; fill:none;"/>
	<path d="M 241.0,620.0 L 235.0,635.0" style="stroke:#070107; fill:none;"/>
	<path d="M 668.0,620.0 L 669.0,620.0" style="stroke:#070107; fill:none;"/>
	<path d="M 698.0,623.0 L 699.0,623.0" style="stroke:#070107; fill:none;"/>
	<path d="M 770.0,623.0 L 771.0,623.0" style="stroke:#070107; fill:none;"/>
	<path d="M 669.0,624.0 L 668.0,625.0" style="stroke:#070107; fill:none;"/>
	<path d="M 700.0,626.0 L 701.0,626.0" style="stroke:#070107; fill:none;"/>
	<path d="M 666.0,628.0 L 666.0,629.0" style="stroke:#070107; fill:none;"/>
	<path d="M 694.0,629.0 L 695.0,630.0" style="stroke:#070107; fill:none;"/>
	<path d="M 698.0,633.0 L 698.0,634.0" style="stroke:#070107; fill:none;"/>
	<path d="M 679.0,635.0 L 679.0,636.0" style="stroke:#070107; fill:none;"/>
	<path d="M 692.0,638.0 L 692.0,640.0" style="stroke:#070107; fill:none;"/>
	<path d="M 231.0,642.0 L 232.0,643.0" style="stroke:#070107; fill:none;"/>
	<path d="M 688.0,642.0 L 688.0,643.0" style="stroke:#070107; fill:none;"/>
	<path d="M 698.0,642.0 L 699.0,642.0" style="stroke:#070107; fill:none;"/>
	<path d="M 227.0,656.0 L 231.0,649.0" style="stroke:#070107; fill:none;"/>
	<path d="M 225.0,660.0 L 224.0,666.0" style="stroke:#070107; fill:none;"/>
	<path d="M 223.0,668.0 L 223.0,669.0" style="stroke:#070107; fill:none;"/>
	<path d="M 726.0,675.0 L 727.0,675.0" style="stroke:#070107; fill:none;"/>
	<path d="M 430.0,678.0 L 429.0,680.0" style="stroke:#070107; fill:none;"/>
	<path d="M 207.0,717.0 L 202.0,730.0" style="stroke:#070107; fill:none;"/>
	<path d="M 454.0,721.0 L 454.0,722.0" style="stroke:#070107; fill:none;"/>
	<path d="M 199.0,740.0 L 202.0,735.0" style="stroke:#070107; fill:none;"/>
	<path d="M 200.0,742.0 L 200.0,744.0" style="stroke:#070107; fill:none;"/>
	<path d="M 198.0,749.0 L 198.0,762.0" style="stroke:#070107; fill:none;"/>
	<path d="M 515.0,751.0 L 517.0,753.0" style="stroke:#070107; fill:none;"/>
	<path d="M 519.0,757.0 L 520.0,758.0" style="stroke:#070107; fill:none;"/>
	<path d="M 857.0,789.0 L 856.0,790.0" style="stroke:#070107; fill:none;"/>
	<path d="M 868.0,790.0 L 867.0,791.0" style="stroke:#070107; fill:none;"/>
	<path d="M 846.0,793.0 L 848.0,792.0" style="stroke:#070107; fill:none;"/>
	<path d="M 363.0,794.0 L 365.0,795.0" style="stroke:#070107; fill:none;"/>
	<path d="M 827.0,798.0 L 830.0,796.0" style="stroke:#070107; fill:none;"/>
	<path d="M 371.0,797.0 L 372.0,797.0" style="stroke:#070107; fill:none;"/>
	<path d="M 374.0,798.0 L 374.0,799.0" style="stroke:#070107; fill:none;"/>
	<path d="M 786.0,799.0 L 785.0,802.0" style="stroke:#070107; fill:none;"/>
	<path d="M 817.0,801.0 L 820.0,799.0" style="stroke:#070107; fill:none;"/>
	<path d="M 814.0,800.0 L 813.0,802.0" style="stroke:#070107; fill:none;"/>
	<path d="M 384.0,803.0 L 385.0,803.0" style="stroke:#070107; fill:none;"/>
	<path d="M 387.0,804.0 L 395.0,810.0" style="stroke:#070107; fill:none;"/>
	<path d="M 803.0,807.0 L 801.0,809.0" style="stroke:#070107; fill:none;"/>
	<path d="M 568.0,812.0 L 568.0,813.0" style="stroke:#070107; fill:none;"/>
	<path d="M 868.0,817.0 L 867.0,818.0" style="stroke:#070107; fill:none;"/>
	<path d="M 775.0,819.0 L 774.0,821.0" style="stroke:#070107; fill:none;"/>
	<path d="M 853.0,819.0 L 852.0,821.0" style="stroke:#070107; fill:none;"/>
	<path d="M 784.0,827.0 L 788.0,822.0" style="stroke:#070107; fill:none;"/>
	<path d="M 772.0,824.0 L 772.0,825.0" style="stroke:#070107; fill:none;"/>
	<path d="M 850.0,824.0 L 850.0,825.0" style="stroke:#070107; fill:none;"/>
	<path d="M 862.0,825.0 L 857.0,830.0" style="stroke:#070107; fill:none;"/>
	<path d="M 211.0,830.0 L 211.0,831.0" style="stroke:#070107; fill:none;"/>
	<path d="M 422.0,830.0 L 423.0,830.0" style="stroke:#070107; fill:none;"/>
	<path d="M 426.0,832.0 L 427.0,833.0" style="stroke:#070107; fill:none;"/>
	<path d="M 844.0,833.0 L 844.0,834.0" style="stroke:#070107; fill:none;"/>
	<path d="M 766.0,835.0 L 766.0,836.0" style="stroke:#070107; fill:none;"/>
	<path d="M 437.0,837.0 L 439.0,838.0" style="stroke:#070107; fill:none;"/>
	<path d="M 780.0,837.0 L 778.0,841.0" style="stroke:#070107; fill:none;"/>
	<path d="M 841.0,837.0 L 840.0,838.0" style="stroke:#070107; fill:none;"/>
	<path d="M 214.0,840.0 L 215.0,842.0" style="stroke:#070107; fill:none;"/>
	<path d="M 442.0,840.0 L 443.0,841.0" style="stroke:#070107; fill:none;"/>
	<path d="M 448.0,843.0 L 453.0,845.0" style="stroke:#070107; fill:none;"/>
	<path d="M 847.0,845.0 L 847.0,846.0" style="stroke:#070107; fill:none;"/>
	<path d="M 845.0,847.0 L 845.0,848.0" style="stroke:#070107; fill:none;"/>
	<path d="M 460.0,848.0 L 461.0,848.0" style="stroke:#070107; fill:none;"/>
	<path d="M 463.0,849.0 L 465.0,850.0" style="stroke:#070107; fill:none;"/>
	<path d="M 827.0,850.0 L 829.0,849.0" style="stroke:#070107; fill:none;"/>
	<path d="M 217.0,850.0 L 217.0,851.0" style="stroke:#070107; fill:none;"/>
	<path d="M 776.0,850.0 L 774.0,852.0" style="stroke:#070107; fill:none;"/>
	<path d="M 842.0,850.0 L 839.0,855.0" style="stroke:#070107; fill:none;"/>
	<path d="M 756.0,852.0 L 755.0,854.0" style="stroke:#070107; fill:none;"/>
	<path d="M 821.0,854.0 L 821.0,855.0" style="stroke:#070107; fill:none;"/>
	<path d="M 814.0,857.0 L 813.0,859.0" style="stroke:#070107; fill:none;"/>
	<path d="M 838.0,857.0 L 837.0,858.0" style="stroke:#070107; fill:none;"/>
	<path d="M 220.0,858.0 L 221.0,862.0" style="stroke:#070107; fill:none;"/>
	<path d="M 750.0,858.0 L 749.0,861.0" style="stroke:#070107; fill:none;"/>
	<path d="M 812.0,861.0 L 812.0,862.0" style="stroke:#070107; fill:none;"/>
	<path d="M 768.0,862.0 L 766.0,864.0" style="stroke:#070107; fill:none;"/>
	<path d="M 221.0,866.0 L 229.0,886.0" style="stroke:#070107; fill:none;"/>
	<path d="M 811.0,866.0 L 811.0,867.0" style="stroke:#070107; fill:none;"/>
	<path d="M 744.0,868.0 L 741.0,872.0" style="stroke:#070107; fill:none;"/>
	<path d="M 496.0,871.0 L 497.0,871.0" style="stroke:#070107; fill:none;"/>
	<path d="M 504.0,874.0 L 508.0,874.0" style="stroke:#070107; fill:none;"/>
	<path d="M 729.0,886.0 L 728.0,889.0" style="stroke:#070107; fill:none;"/>
	<path d="M 229.0,891.0 L 231.0,898.0" style="stroke:#070107; fill:none;"/>
	<path d="M 725.0,892.0 L 726.0,892.0" style="stroke:#070107; fill:none;"/>
	<path d="M 170.0,898.0 L 169.0,900.0" style="stroke:#070107; fill:none;"/>
	<path d="M 232.0,901.0 L 233.0,901.0" style="stroke:#070107; fill:none;"/>
	<path d="M 233.0,903.0 L 234.0,904.0" style="stroke:#070107; fill:none;"/>
	<path d="M 168.0,904.0 L 166.0,907.0" style="stroke:#070107; fill:none;"/>
	<path d="M 235.0,907.0 L 236.0,909.0" style="stroke:#070107; fill:none;"/>
	<path d="M 236.0,912.0 L 237.0,915.0" style="stroke:#070107; fill:none;"/>
	<path d="M 164.0,917.0 L 163.0,922.0" style="stroke:#070107; fill:none;"/>
	<path d="M 238.0,918.0 L 238.0,919.0" style="stroke:#070107; fill:none;"/>
	<path d="M 240.0,927.0 L 240.0,929.0" style="stroke:#070107; fill:none;"/>
	<path d="M 159.0,931.0 L 161.0,932.0" style="stroke:#070107; fill:none;"/>
	<path d="M 242.0,932.0 L 243.0,932.0" style="stroke:#070107; fill:none;"/>
	<path d="M 242.0,934.0 L 242.0,935.0" style="stroke:#070107; fill:none;"/>
	<path d="M 159.0,936.0 L 159.0,937.0" style="stroke:#070107; fill:none;"/>
	<path d="M 245.0,940.0 L 246.0,943.0" style="stroke:#070107; fill:none;"/>
	<path d="M 158.0,941.0 L 156.0,944.0" style="stroke:#070107; fill:none;"/>
	<path d="M 686.0,941.0 L 689.0,943.0" style="stroke:#070107; fill:none;"/>
	<path d="M 442.0,947.0 L 444.0,947.0" style="stroke:#070107; fill:none;"/>
	<path d="M 248.0,950.0 L 248.0,951.0" style="stroke:#070107; fill:none;"/>
	<path d="M 153.0,958.0 L 153.0,959.0" style="stroke:#070107; fill:none;"/>
	<path d="M 254.0,961.0 L 253.0,962.0" style="stroke:#070107; fill:none;"/>
	<path d="M 255.0,965.0 L 257.0,966.0" style="stroke:#070107; fill:none;"/>
	<path d="M 150.0,968.0 L 149.0,970.0" style="stroke:#070107; fill:none;"/>
	<path d="M 660.0,969.0 L 659.0,970.0" style="stroke:#070107; fill:none;"/>
	<path d="M 148.0,974.0 L 149.0,977.0" style="stroke:#070107; fill:none;"/>
	<path d="M 261.0,974.0 L 261.0,975.0" style="stroke:#070107; fill:none;"/>
	<path d="M 653.0,976.0 L 652.0,977.0" style="stroke:#070107; fill:none;"/>
	<path d="M 267.0,978.0 L 268.0,978.0" style="stroke:#070107; fill:none;"/>
	<path d="M 650.0,978.0 L 648.0,980.0" style="stroke:#070107; fill:none;"/>
	<path d="M 148.0,982.0 L 147.0,984.0" style="stroke:#070107; fill:none;"/>
	<path d="M 645.0,984.0 L 645.0,985.0" style="stroke:#070107; fill:none;"/>
	<path d="M 147.0,987.0 L 147.0,989.0" style="stroke:#070107; fill:none;"/>
	<path d="M 271.0,987.0 L 271.0,989.0" style="stroke:#070107; fill:none;"/>
	<path d="M 274.0,987.0 L 275.0,988.0" style="stroke:#070107; fill:none;"/>
	<path d="M 640.0,989.0 L 640.0,990.0" style="stroke:#070107; fill:none;"/>
	<path d="M 147.0,991.0 L 147.0,992.0" style="stroke:#070107; fill:none;"/>
	<path d="M 275.0,991.0 L 278.0,994.0" style="stroke:#070107; fill:none;"/>
	<path d="M 145.0,993.0 L 142.0,999.0" style="stroke:#070107; fill:none;"/>
	<path d="M 629.0,998.0 L 636.0,993.0" style="stroke:#070107; fill:none;"/>
	<path d="M 279.0,994.0 L 282.0,996.0" style="stroke:#070107; fill:none;"/>
	<path d="M 282.0,998.0 L 283.0,998.0" style="stroke:#070107; fill:none;"/>
	<path d="M 285.0,999.0 L 286.0,1001.0" style="stroke:#070107; fill:none;"/>
	<path d="M 281.0,1000.0 L 282.0,1000.0" style="stroke:#070107; fill:none;"/>
	<path d="M 284.0,1001.0 L 284.0,1003.0" style="stroke:#070107; fill:none;"/>
	<path d="M 138.0,1002.0 L 140.0,1002.0" style="stroke:#070107; fill:none;"/>
	<path d="M 144.0,1002.0 L 145.0,1002.0" style="stroke:#070107; fill:none;"/>
	<path d="M 619.0,1005.0 L 617.0,1006.0" style="stroke:#070107; fill:none;"/>
	<path d="M 612.0,1011.0 L 613.0,1011.0" style="stroke:#070107; fill:none;"/>
	<path d="M 303.0,1012.0 L 303.0,1013.0" style="stroke:#070107; fill:none;"/>
	<path d="M 312.0,1018.0 L 314.0,1018.0" style="stroke:#070107; fill:none;"/>
	<path d="M 142.0,1020.0 L 140.0,1023.0" style="stroke:#070107; fill:none;"/>
	<path d="M 584.0,1025.0 L 586.0,1024.0" style="stroke:#070107; fill:none;"/>
	<path d="M 317.0,1026.0 L 317.0,1027.0" style="stroke:#070107; fill:none;"/>
	<path d="M 570.0,1029.0 L 577.0,1027.0" style="stroke:#070107; fill:none;"/>
	<path d="M 567.0,1029.0 L 543.0,1036.0" style="stroke:#070107; fill:none;"/>
	<path d="M 326.0,1031.0 L 327.0,1031.0" style="stroke:#070107; fill:none;"/>
	<path d="M 335.0,1035.0 L 337.0,1035.0" style="stroke:#070107; fill:none;"/>
	<path d="M 540.0,1035.0 L 541.0,1035.0" style="stroke:#070107; fill:none;"/>
	<path d="M 530.0,1037.0 L 533.0,1036.0" style="stroke:#070107; fill:none;"/>
	<path d="M 535.0,1036.0 L 538.0,1036.0" style="stroke:#070107; fill:none;"/>
	<path d="M 130.0,1037.0 L 129.0,1039.0" style="stroke:#070107; fill:none;"/>
	<path d="M 517.0,1039.0 L 516.0,1040.0" style="stroke:#070107; fill:none;"/>
	<path d="M 524.0,1039.0 L 525.0,1039.0" style="stroke:#070107; fill:none;"/>
	<path d="M 346.0,1040.0 L 347.0,1040.0" style="stroke:#070107; fill:none;"/>
	<path d="M 505.0,1042.0 L 503.0,1043.0" style="stroke:#070107; fill:none;"/>
	<path d="M 509.0,1043.0 L 511.0,1042.0" style="stroke:#070107; fill:none;"/>
	<path d="M 357.0,1043.0 L 359.0,1044.0" style="stroke:#070107; fill:none;"/>
	<path d="M 488.0,1044.0 L 482.0,1045.0" style="stroke:#070107; fill:none;"/>
	<path d="M 362.0,1045.0 L 364.0,1045.0" style="stroke:#070107; fill:none;"/>
	<path d="M 461.0,1050.0 L 478.0,1047.0" style="stroke:#070107; fill:none;"/>
	<path d="M 369.0,1047.0 L 370.0,1048.0" style="stroke:#070107; fill:none;"/>
	<path d="M 373.0,1048.0 L 374.0,1048.0" style="stroke:#070107; fill:none;"/>
	<path d="M 376.0,1048.0 L 379.0,1050.0" style="stroke:#070107; fill:none;"/>
	<path d="M 382.0,1049.0 L 384.0,1049.0" style="stroke:#070107; fill:none;"/>
	<path d="M 455.0,1049.0 L 455.0,1050.0" style="stroke:#070107; fill:none;"/>
	<path d="M 121.0,1050.0 L 119.0,1052.0" style="stroke:#070107; fill:none;"/>
	<path d="M 451.0,1051.0 L 450.0,1052.0" style="stroke:#070107; fill:none;"/>
	<path d="M 136.0,1052.0 L 136.0,1053.0" style="stroke:#070107; fill:none;"/>
	<path d="M 392.0,1052.0 L 394.0,1052.0" style="stroke:#070107; fill:none;"/>
	<path d="M 398.0,1052.0 L 396.0,1053.0" style="stroke:#070107; fill:none;"/>
	<path d="M 405.0,1053.0 L 407.0,1054.0" style="stroke:#070107; fill:none;"/>
	<path d="M 410.0,1053.0 L 410.0,1054.0" style="stroke:#070107; fill:none;"/>
	<path d="M 414.0,1054.0 L 425.0,1055.0" style="stroke:#070107; fill:none;"/>
	<path d="M 429.0,1054.0 L 428.0,1055.0" style="stroke:#070107; fill:none;"/>
	<path d="M 116.0,1056.0 L 115.0,1059.0" style="stroke:#070107; fill:none;"/>
	<path d="M 113.0,1061.0 L 112.0,1062.0" style="stroke:#070107; fill:none;"/>
	<path d="M 110.0,1066.0 L 109.0,1067.0" style="stroke:#070107; fill:none;"/>
	<path d="M 603.0,1070.0 L 601.0,1072.0" style="stroke:#070107; fill:none;"/>
	<path d="M 103.0,1075.0 L 102.0,1077.0" style="stroke:#070107; fill:none;"/>
	<path d="M 99.0,1081.0 L 98.0,1083.0" style="stroke:#070107; fill:none;"/>
	<path d="M 97.0,1086.0 L 96.0,1088.0" style="stroke:#070107; fill:none;"/>
	<path d="M 589.0,1108.0 L 588.0,1111.0" style="stroke:#070107; fill:none;"/>
	<path d="M 586.0,1118.0 L 580.0,1139.0" style="stroke:#070107; fill:none;"/>
	<path d="M 75.0,1120.0 L 76.0,1121.0" style="stroke:#070107; fill:none;"/>
	<path d="M 79.0,1124.0 L 79.0,1125.0" style="stroke:#070107; fill:none;"/>
	<path d="M 81.0,1127.0 L 81.0,1128.0" style="stroke:#070107; fill:none;"/>
	<path d="M 84.0,1133.0 L 91.0,1141.0" style="stroke:#070107; fill:none;"/>
	<path d="M 580.0,1143.0 L 576.0,1154.0" style="stroke:#070107; fill:none;"/>
	<path d="M 469.0,1162.0 L 466.0,1163.0" style="stroke:#070107; fill:none;"/>
	<path d="M 548.0,1214.0 L 547.0,1215.0" style="stroke:#070107; fill:none;"/>
	<path d="M 544.0,1217.0 L 525.0,1237.0" style="stroke:#070107; fill:none;"/>
	<path d="M 535.0,1224.0 L 538.0,1223.0" style="stroke:#070107; fill:none;"/>
	<path d="M 531.0,1227.0 L 533.0,1228.0" style="stroke:#070107; fill:none;"/>
	<path d="M 530.0,1230.0 L 532.0,1230.0" style="stroke:#070107; fill:none;"/>
	<path d="M 518.0,1247.0 L 515.0,1250.0" style="stroke:#070107; fill:none;"/>
	<path d="M 510.0,1257.0 L 514.0,1252.0" style="stroke:#070107; fill:none;"/>
	<path d="M 508.0,1260.0 L 508.0,1261.0" style="stroke:#070107; fill:none;"/>
	<path d="M 504.0,1265.0 L 499.0,1272.0" style="stroke:#070107; fill:none;"/>
	<path d="M 495.0,1275.0 L 497.0,1275.0" style="stroke:#070107; fill:none;"/>
	<path d="M 492.0,1281.0 L 478.0,1303.0" style="stroke:#070107; fill:none;"/>
	<path d="M 476.0,1306.0 L 476.0,1308.0" style="stroke:#070107; fill:none;"/>
	<path d="M 360.0,1309.0 L 362.0,1309.0" style="stroke:#070107; fill:none;"/>
	<path d="M 469.0,1327.0 L 469.0,1328.0" style="stroke:#070107; fill:none;"/>
</svg>
