<?xml version="1.0" ?>
<svg baseProfile="full" height="1329" version="1.1" width="1005" xmlns="http://www.w3.org/2000/svg" xmlns:ev="http://www.w3.org/2001/xml-events" xmlns:xlink="http://www.w3.org/1999/xlink">
	<defs/>
	<path d="M 515.0,256.0 L 516.0,259.0" style="stroke:#040104; fill:none;"/>
	<path d="M 434.0,285.0 L 434.0,286.0" style="stroke:#040104; fill:none;"/>
	<path d="M 417.0,295.0 L 420.0,300.0" style="stroke:#040104; fill:none;"/>
	<path d="M 453.0,297.0 L 457.0,301.0" style="stroke:#040104; fill:none;"/>
	<path d="M 461.0,306.0 L 462.0,309.0" style="stroke:#040104; fill:none;"/>
	<path d="M 532.0,329.0 L 532.0,330.0" style="stroke:#040104; fill:none;"/>
	<path d="M 399.0,344.0 L 400.0,344.0" style="stroke:#040104; fill:none;"/>
	<path d="M 401.0,346.0 L 403.0,348.0" style="stroke:#040104; fill:none;"/>
	<path d="M 405.0,351.0 L 406.0,352.0" style="stroke:#040104; fill:none;"/>
	<path d="M 270.0,359.0 L 271.0,361.0" style="stroke:#040104; fill:none;"/>
	<path d="M 244.0,361.0 L 245.0,362.0" style="stroke:#040104; fill:none;"/>
	<path d="M 244.0,365.0 L 245.0,365.0" style="stroke:#040104; fill:none;"/>
	<path d="M 785.0,394.0 L 786.0,394.0" style="stroke:#040104; fill:none;"/>
	<path d="M 788.0,419.0 L 787.0,421.0" style="stroke:#040104; fill:none;"/>
	<path d="M 561.0,422.0 L 561.0,423.0" style="stroke:#040104; fill:none;"/>
	<path d="M 785.0,429.0 L 786.0,429.0" style="stroke:#040104; fill:none;"/>
	<path d="M 784.0,433.0 L 783.0,435.0" style="stroke:#040104; fill:none;"/>
	<path d="M 809.0,434.0 L 810.0,435.0" style="stroke:#040104; fill:none;"/>
	<path d="M 821.0,434.0 L 824.0,441.0" style="stroke:#040104; fill:none;"/>
	<path d="M 826.0,444.0 L 827.0,446.0" style="stroke:#040104; fill:none;"/>
	<path d="M 779.0,447.0 L 780.0,450.0" style="stroke:#040104; fill:none;"/>
	<path d="M 827.0,448.0 L 828.0,449.0" style="stroke:#040104; fill:none;"/>
	<path d="M 819.0,453.0 L 820.0,454.0" style="stroke:#040104; fill:none;"/>
	<path d="M 829.0,455.0 L 830.0,457.0" style="stroke:#040104; fill:none;"/>
	<path d="M 777.0,458.0 L 777.0,460.0" style="stroke:#040104; fill:none;"/>
	<path d="M 820.0,459.0 L 822.0,460.0" style="stroke:#040104; fill:none;"/>
	<path d="M 833.0,464.0 L 837.0,471.0" style="stroke:#040104; fill:none;"/>
	<path d="M 761.0,470.0 L 762.0,471.0" style="stroke:#040104; fill:none;"/>
	<path d="M 583.0,472.0 L 584.0,472.0" style="stroke:#040104; fill:none;"/>
	<path d="M 575.0,473.0 L 577.0,473.0" style="stroke:#040104; fill:none;"/>
	<path d="M 563.0,474.0 L 564.0,474.0" style="stroke:#040104; fill:none;"/>
	<path d="M 567.0,474.0 L 568.0,474.0" style="stroke:#040104; fill:none;"/>
	<path d="M 824.0,474.0 L 825.0,474.0" style="stroke:#040104; fill:none;"/>
	<path d="M 570.0,475.0 L 571.0,476.0" style="stroke:#040104; fill:none;"/>
	<path d="M 623.0,475.0 L 623.0,477.0" style="stroke:#040104; fill:none;"/>
	<path d="M 776.0,476.0 L 776.0,478.0" style="stroke:#040104; fill:none;"/>
	<path d="M 568.0,480.0 L 567.0,481.0" style="stroke:#040104; fill:none;"/>
	<path d="M 573.0,480.0 L 574.0,480.0" style="stroke:#040104; fill:none;"/>
	<path d="M 570.0,487.0 L 568.0,491.0" style="stroke:#040104; fill:none;"/>
	<path d="M 573.0,487.0 L 575.0,488.0" style="stroke:#040104; fill:none;"/>
	<path d="M 761.0,487.0 L 761.0,488.0" style="stroke:#040104; fill:none;"/>
	<path d="M 547.0,491.0 L 548.0,491.0" style="stroke:#040104; fill:none;"/>
	<path d="M 824.0,491.0 L 826.0,492.0" style="stroke:#040104; fill:none;"/>
	<path d="M 779.0,493.0 L 779.0,494.0" style="stroke:#040104; fill:none;"/>
	<path d="M 546.0,494.0 L 546.0,498.0" style="stroke:#040104; fill:none;"/>
	<path d="M 570.0,494.0 L 571.0,494.0" style="stroke:#040104; fill:none;"/>
	<path d="M 827.0,495.0 L 828.0,495.0" style="stroke:#040104; fill:none;"/>
	<path d="M 766.0,496.0 L 767.0,496.0" style="stroke:#040104; fill:none;"/>
	<path d="M 830.0,497.0 L 831.0,498.0" style="stroke:#040104; fill:none;"/>
	<path d="M 549.0,499.0 L 550.0,502.0" style="stroke:#040104; fill:none;"/>
	<path d="M 782.0,501.0 L 783.0,503.0" style="stroke:#040104; fill:none;"/>
	<path d="M 772.0,506.0 L 773.0,509.0" style="stroke:#040104; fill:none;"/>
	<path d="M 788.0,508.0 L 789.0,508.0" style="stroke:#040104; fill:none;"/>
	<path d="M 790.0,510.0 L 792.0,513.0" style="stroke:#040104; fill:none;"/>
	<path d="M 780.0,519.0 L 782.0,522.0" style="stroke:#040104; fill:none;"/>
	<path d="M 799.0,520.0 L 800.0,522.0" style="stroke:#040104; fill:none;"/>
	<path d="M 805.0,533.0 L 806.0,537.0" style="stroke:#040104; fill:none;"/>
	<path d="M 791.0,539.0 L 793.0,542.0" style="stroke:#040104; fill:none;"/>
	<path d="M 807.0,541.0 L 807.0,542.0" style="stroke:#040104; fill:none;"/>
	<path d="M 800.0,561.0 L 801.0,562.0" style="stroke:#040104; fill:none;"/>
	<path d="M 812.0,569.0 L 812.0,570.0" style="stroke:#040104; fill:none;"/>
	<path d="M 808.0,580.0 L 808.0,581.0" style="stroke:#040104; fill:none;"/>
	<path d="M 392.0,591.0 L 392.0,592.0" style="stroke:#040104; fill:none;"/>
	<path d="M 397.0,592.0 L 398.0,592.0" style="stroke:#040104; fill:none;"/>
	<path d="M 410.0,592.0 L 410.0,593.0" style="stroke:#040104; fill:none;"/>
	<path d="M 373.0,594.0 L 374.0,595.0" style="stroke:#040104; fill:none;"/>
	<path d="M 362.0,596.0 L 363.0,596.0" style="stroke:#040104; fill:none;"/>
	<path d="M 333.0,608.0 L 339.0,607.0" style="stroke:#040104; fill:none;"/>
	<path d="M 337.0,608.0 L 331.0,609.0" style="stroke:#040104; fill:none;"/>
	<path d="M 343.0,614.0 L 344.0,615.0" style="stroke:#040104; fill:none;"/>
	<path d="M 349.0,615.0 L 349.0,617.0" style="stroke:#040104; fill:none;"/>
	<path d="M 324.0,626.0 L 323.0,627.0" style="stroke:#040104; fill:none;"/>
	<path d="M 353.0,626.0 L 354.0,626.0" style="stroke:#040104; fill:none;"/>
	<path d="M 315.0,639.0 L 314.0,640.0" style="stroke:#040104; fill:none;"/>
	<path d="M 313.0,643.0 L 313.0,646.0" style="stroke:#040104; fill:none;"/>
	<path d="M 199.0,668.0 L 199.0,669.0" style="stroke:#040104; fill:none;"/>
	<path d="M 200.0,671.0 L 200.0,672.0" style="stroke:#040104; fill:none;"/>
	<path d="M 845.0,684.0 L 846.0,685.0" style="stroke:#040104; fill:none;"/>
	<path d="M 611.0,687.0 L 612.0,687.0" style="stroke:#040104; fill:none;"/>
	<path d="M 205.0,689.0 L 205.0,691.0" style="stroke:#040104; fill:none;"/>
	<path d="M 847.0,690.0 L 847.0,691.0" style="stroke:#040104; fill:none;"/>
	<path d="M 848.0,694.0 L 848.0,695.0" style="stroke:#040104; fill:none;"/>
	<path d="M 584.0,696.0 L 581.0,697.0" style="stroke:#040104; fill:none;"/>
	<path d="M 590.0,696.0 L 592.0,696.0" style="stroke:#040104; fill:none;"/>
	<path d="M 849.0,699.0 L 850.0,701.0" style="stroke:#040104; fill:none;"/>
	<path d="M 213.0,706.0 L 214.0,706.0" style="stroke:#040104; fill:none;"/>
	<path d="M 851.0,706.0 L 852.0,708.0" style="stroke:#040104; fill:none;"/>
	<path d="M 852.0,713.0 L 853.0,713.0" style="stroke:#040104; fill:none;"/>
	<path d="M 573.0,714.0 L 574.0,714.0" style="stroke:#040104; fill:none;"/>
	<path d="M 853.0,715.0 L 854.0,724.0" style="stroke:#040104; fill:none;"/>
	<path d="M 854.0,726.0 L 855.0,728.0" style="stroke:#040104; fill:none;"/>
	<path d="M 855.0,733.0 L 855.0,736.0" style="stroke:#040104; fill:none;"/>
	<path d="M 477.0,734.0 L 478.0,736.0" style="stroke:#040104; fill:none;"/>
	<path d="M 527.0,734.0 L 527.0,735.0" style="stroke:#040104; fill:none;"/>
	<path d="M 231.0,742.0 L 231.0,744.0" style="stroke:#040104; fill:none;"/>
	<path d="M 857.0,742.0 L 857.0,743.0" style="stroke:#040104; fill:none;"/>
	<path d="M 241.0,751.0 L 241.0,753.0" style="stroke:#040104; fill:none;"/>
	<path d="M 205.0,752.0 L 207.0,752.0" style="stroke:#040104; fill:none;"/>
	<path d="M 210.0,753.0 L 213.0,754.0" style="stroke:#040104; fill:none;"/>
	<path d="M 186.0,754.0 L 187.0,760.0" style="stroke:#040104; fill:none;"/>
	<path d="M 217.0,755.0 L 218.0,755.0" style="stroke:#040104; fill:none;"/>
	<path d="M 229.0,760.0 L 244.0,765.0" style="stroke:#040104; fill:none;"/>
	<path d="M 685.0,765.0 L 684.0,768.0" style="stroke:#040104; fill:none;"/>
	<path d="M 247.0,768.0 L 250.0,767.0" style="stroke:#040104; fill:none;"/>
	<path d="M 855.0,773.0 L 855.0,774.0" style="stroke:#040104; fill:none;"/>
	<path d="M 853.0,779.0 L 851.0,787.0" style="stroke:#040104; fill:none;"/>
	<path d="M 268.0,781.0 L 269.0,781.0" style="stroke:#040104; fill:none;"/>
	<path d="M 903.0,781.0 L 904.0,783.0" style="stroke:#040104; fill:none;"/>
	<path d="M 243.0,782.0 L 243.0,783.0" style="stroke:#040104; fill:none;"/>
	<path d="M 270.0,784.0 L 272.0,785.0" style="stroke:#040104; fill:none;"/>
	<path d="M 643.0,790.0 L 642.0,791.0" style="stroke:#040104; fill:none;"/>
	<path d="M 275.0,791.0 L 287.0,807.0" style="stroke:#040104; fill:none;"/>
	<path d="M 850.0,791.0 L 844.0,815.0" style="stroke:#040104; fill:none;"/>
	<path d="M 237.0,796.0 L 237.0,797.0" style="stroke:#040104; fill:none;"/>
	<path d="M 633.0,797.0 L 630.0,800.0" style="stroke:#040104; fill:none;"/>
	<path d="M 623.0,805.0 L 625.0,804.0" style="stroke:#040104; fill:none;"/>
	<path d="M 276.0,806.0 L 278.0,806.0" style="stroke:#040104; fill:none;"/>
	<path d="M 619.0,807.0 L 621.0,806.0" style="stroke:#040104; fill:none;"/>
	<path d="M 278.0,808.0 L 278.0,809.0" style="stroke:#040104; fill:none;"/>
	<path d="M 289.0,811.0 C 297.418,824.472 309.232,843.543 321.0,854.0" style="stroke:#040104; fill:none;"/>
	<path d="M 929.0,811.0 L 931.0,814.0" style="stroke:#040104; fill:none;"/>
	<path d="M 611.0,812.0 L 608.0,814.0" style="stroke:#040104; fill:none;"/>
	<path d="M 280.0,813.0 L 283.0,822.0" style="stroke:#040104; fill:none;"/>
	<path d="M 925.0,813.0 L 925.0,814.0" style="stroke:#040104; fill:none;"/>
	<path d="M 933.0,815.0 L 934.0,816.0" style="stroke:#040104; fill:none;"/>
	<path d="M 604.0,816.0 L 605.0,816.0" style="stroke:#040104; fill:none;"/>
	<path d="M 842.0,816.0 L 843.0,818.0" style="stroke:#040104; fill:none;"/>
	<path d="M 245.0,819.0 L 246.0,821.0" style="stroke:#040104; fill:none;"/>
	<path d="M 840.0,819.0 L 840.0,822.0" style="stroke:#040104; fill:none;"/>
	<path d="M 937.0,819.0 L 951.0,835.0" style="stroke:#040104; fill:none;"/>
	<path d="M 839.0,825.0 L 838.0,827.0" style="stroke:#040104; fill:none;"/>
	<path d="M 246.0,829.0 L 249.0,832.0" style="stroke:#040104; fill:none;"/>
	<path d="M 288.0,829.0 L 288.0,830.0" style="stroke:#040104; fill:none;"/>
	<path d="M 567.0,834.0 L 573.0,831.0" style="stroke:#040104; fill:none;"/>
	<path d="M 291.0,834.0 L 293.0,835.0" style="stroke:#040104; fill:none;"/>
	<path d="M 565.0,834.0 L 563.0,836.0" style="stroke:#040104; fill:none;"/>
	<path d="M 250.0,835.0 L 251.0,835.0" style="stroke:#040104; fill:none;"/>
	<path d="M 953.0,835.0 L 962.0,844.0" style="stroke:#040104; fill:none;"/>
	<path d="M 253.0,839.0 L 254.0,841.0" style="stroke:#040104; fill:none;"/>
	<path d="M 835.0,839.0 L 834.0,842.0" style="stroke:#040104; fill:none;"/>
	<path d="M 255.0,843.0 L 257.0,845.0" style="stroke:#040104; fill:none;"/>
	<path d="M 273.0,846.0 L 274.0,846.0" style="stroke:#040104; fill:none;"/>
	<path d="M 547.0,848.0 L 545.0,850.0" style="stroke:#040104; fill:none;"/>
	<path d="M 830.0,851.0 L 830.0,853.0" style="stroke:#040104; fill:none;"/>
	<path d="M 271.0,852.0 L 271.0,853.0" style="stroke:#040104; fill:none;"/>
	<path d="M 717.0,856.0 L 716.0,858.0" style="stroke:#040104; fill:none;"/>
	<path d="M 324.0,858.0 L 326.0,861.0" style="stroke:#040104; fill:none;"/>
	<path d="M 826.0,860.0 L 827.0,862.0" style="stroke:#040104; fill:none;"/>
	<path d="M 330.0,866.0 L 333.0,870.0" style="stroke:#040104; fill:none;"/>
	<path d="M 823.0,868.0 L 823.0,870.0" style="stroke:#040104; fill:none;"/>
	<path d="M 336.0,874.0 L 344.0,882.0" style="stroke:#040104; fill:none;"/>
	<path d="M 820.0,875.0 L 818.0,881.0" style="stroke:#040104; fill:none;"/>
	<path d="M 291.0,878.0 L 296.0,883.0" style="stroke:#040104; fill:none;"/>
	<path d="M 818.0,883.0 L 816.0,888.0" style="stroke:#040104; fill:none;"/>
	<path d="M 299.0,886.0 L 313.0,898.0" style="stroke:#040104; fill:none;"/>
	<path d="M 814.0,889.0 L 815.0,893.0" style="stroke:#040104; fill:none;"/>
	<path d="M 351.0,890.0 L 356.0,900.0" style="stroke:#040104; fill:none;"/>
	<path d="M 349.0,892.0 L 353.0,892.0" style="stroke:#040104; fill:none;"/>
	<path d="M 811.0,898.0 L 812.0,898.0" style="stroke:#040104; fill:none;"/>
	<path d="M 1000.0,899.0 L 1000.0,901.0" style="stroke:#040104; fill:none;"/>
	<path d="M 811.0,902.0 L 811.0,903.0" style="stroke:#040104; fill:none;"/>
	<path d="M 359.0,903.0 L 362.0,905.0" style="stroke:#040104; fill:none;"/>
	<path d="M 1001.0,904.0 L 1004.0,914.0" style="stroke:#040104; fill:none;"/>
	<path d="M 809.0,910.0 L 809.0,912.0" style="stroke:#040104; fill:none;"/>
	<path d="M 801.0,927.0 L 794.0,936.0" style="stroke:#040104; fill:none;"/>
	<path d="M 792.0,939.0 L 793.0,939.0" style="stroke:#040104; fill:none;"/>
	<path d="M 791.0,942.0 L 792.0,942.0" style="stroke:#040104; fill:none;"/>
	<path d="M 916.0,942.0 L 916.0,946.0" style="stroke:#040104; fill:none;"/>
	<path d="M 398.0,947.0 L 409.0,957.0" style="stroke:#040104; fill:none;"/>
	<path d="M 785.0,950.0 L 785.0,951.0" style="stroke:#040104; fill:none;"/>
	<path d="M 783.0,952.0 L 782.0,953.0" style="stroke:#040104; fill:none;"/>
	<path d="M 412.0,960.0 L 416.0,963.0" style="stroke:#040104; fill:none;"/>
	<path d="M 776.0,960.0 L 775.0,961.0" style="stroke:#040104; fill:none;"/>
	<path d="M 417.0,964.0 L 420.0,967.0" style="stroke:#040104; fill:none;"/>
	<path d="M 770.0,966.0 L 774.0,964.0" style="stroke:#040104; fill:none;"/>
	<path d="M 424.0,971.0 L 434.0,977.0" style="stroke:#040104; fill:none;"/>
	<path d="M 767.0,971.0 L 766.0,972.0" style="stroke:#040104; fill:none;"/>
	<path d="M 761.0,976.0 L 762.0,976.0" style="stroke:#040104; fill:none;"/>
	<path d="M 756.0,980.0 L 759.0,979.0" style="stroke:#040104; fill:none;"/>
	<path d="M 748.0,987.0 L 749.0,987.0" style="stroke:#040104; fill:none;"/>
	<path d="M 740.0,993.0 L 739.0,994.0" style="stroke:#040104; fill:none;"/>
	<path d="M 498.0,1000.0 L 502.0,1000.0" style="stroke:#040104; fill:none;"/>
	<path d="M 731.0,999.0 L 731.0,1000.0" style="stroke:#040104; fill:none;"/>
	<path d="M 510.0,1002.0 L 512.0,1002.0" style="stroke:#040104; fill:none;"/>
	<path d="M 519.0,1004.0 L 522.0,1005.0" style="stroke:#040104; fill:none;"/>
	<path d="M 714.0,1004.0 L 713.0,1006.0" style="stroke:#040104; fill:none;"/>
	<path d="M 529.0,1005.0 L 530.0,1007.0" style="stroke:#040104; fill:none;"/>
	<path d="M 535.0,1008.0 L 558.0,1014.0" style="stroke:#040104; fill:none;"/>
	<path d="M 703.0,1011.0 L 704.0,1011.0" style="stroke:#040104; fill:none;"/>
	<path d="M 700.0,1012.0 L 701.0,1012.0" style="stroke:#040104; fill:none;"/>
	<path d="M 561.0,1015.0 L 569.0,1016.0" style="stroke:#040104; fill:none;"/>
	<path d="M 571.0,1017.0 L 574.0,1018.0" style="stroke:#040104; fill:none;"/>
	<path d="M 578.0,1018.0 L 580.0,1018.0" style="stroke:#040104; fill:none;"/>
	<path d="M 583.0,1019.0 L 585.0,1019.0" style="stroke:#040104; fill:none;"/>
	<path d="M 683.0,1020.0 L 685.0,1020.0" style="stroke:#040104; fill:none;"/>
	<path d="M 676.0,1023.0 L 678.0,1024.0" style="stroke:#040104; fill:none;"/>
	<path d="M 604.0,1023.0 L 603.0,1024.0" style="stroke:#040104; fill:none;"/>
	<path d="M 667.0,1024.0 L 673.0,1023.0" style="stroke:#040104; fill:none;"/>
	<path d="M 680.0,1023.0 L 682.0,1024.0" style="stroke:#040104; fill:none;"/>
	<path d="M 685.0,1023.0 L 686.0,1023.0" style="stroke:#040104; fill:none;"/>
	<path d="M 656.0,1024.0 L 656.0,1025.0" style="stroke:#040104; fill:none;"/>
	<path d="M 610.0,1025.0 L 617.0,1027.0" style="stroke:#040104; fill:none;"/>
	<path d="M 641.0,1026.0 L 638.0,1029.0" style="stroke:#040104; fill:none;"/>
	<path d="M 622.0,1027.0 L 623.0,1028.0" style="stroke:#040104; fill:none;"/>
	<path d="M 635.0,1027.0 L 634.0,1028.0" style="stroke:#040104; fill:none;"/>
	<path d="M 646.0,1028.0 L 647.0,1028.0" style="stroke:#040104; fill:none;"/>
	<path d="M 649.0,1028.0 L 650.0,1029.0" style="stroke:#040104; fill:none;"/>
	<path d="M 653.0,1028.0 L 654.0,1028.0" style="stroke:#040104; fill:none;"/>
	<path d="M 541.0,1074.0 L 544.0,1077.0" style="stroke:#040104; fill:none;"/>
	<path d="M 550.0,1083.0 L 557.0,1090.0" style="stroke:#040104; fill:none;"/>
	<path d="M 564.0,1097.0 L 566.0,1098.0" style="stroke:#040104; fill:none;"/>
	<path d="M 569.0,1100.0 L 569.0,1101.0" style="stroke:#040104; fill:none;"/>
	<path d="M 570.0,1103.0 L 571.0,1104.0" style="stroke:#040104; fill:none;"/>
	<path d="M 574.0,1107.0 L 575.0,1108.0" style="stroke:#040104; fill:none;"/>
	<path d="M 990.0,1108.0 L 989.0,1109.0" style="stroke:#040104; fill:none;"/>
	<path d="M 589.0,1122.0 L 589.0,1123.0" style="stroke:#040104; fill:none;"/>
	<path d="M 593.0,1126.0 L 595.0,1126.0" style="stroke:#040104; fill:none;"/>
	<path d="M 598.0,1131.0 L 600.0,1132.0" style="stroke:#040104; fill:none;"/>
	<path d="M 604.0,1134.0 L 604.0,1135.0" style="stroke:#040104; fill:none;"/>
	<path d="M 607.0,1136.0 L 611.0,1144.0" style="stroke:#040104; fill:none;"/>
	<path d="M 614.0,1141.0 L 616.0,1144.0" style="stroke:#040104; fill:none;"/>
	<path d="M 613.0,1147.0 L 612.0,1149.0" style="stroke:#040104; fill:none;"/>
	<path d="M 628.0,1153.0 L 634.0,1158.0" style="stroke:#040104; fill:none;"/>
	<path d="M 642.0,1166.0 L 644.0,1168.0" style="stroke:#040104; fill:none;"/>
	<path d="M 638.0,1173.0 L 639.0,1174.0" style="stroke:#040104; fill:none;"/>
	<path d="M 644.0,1187.0 L 646.0,1191.0" style="stroke:#040104; fill:none;"/>
	<path d="M 648.0,1196.0 L 649.0,1197.0" style="stroke:#040104; fill:none;"/>
	<path d="M 653.0,1205.0 L 653.0,1207.0" style="stroke:#040104; fill:none;"/>
	<path d="M 656.0,1211.0 L 656.0,1213.0" style="stroke:#040104; fill:none;"/>
	<path d="M 658.0,1217.0 L 660.0,1218.0" style="stroke:#040104; fill:none;"/>
	<path d="M 661.0,1222.0 L 662.0,1224.0" style="stroke:#040104; fill:none;"/>
	<path d="M 664.0,1227.0 L 667.0,1229.0" style="stroke:#040104; fill:none;"/>
	<path d="M 721.0,1258.0 L 721.0,1259.0" style="stroke:#040104; fill:none;"/>
	<path d="M 698.0,1261.0 L 709.0,1259.0" style="stroke:#040104; fill:none;"/>
	<path d="M 712.0,1259.0 L 715.0,1259.0" style="stroke:#040104; fill:none;"/>
	<path d="M 717.0,1259.0 L 718.0,1259.0" style="stroke:#040104; fill:none;"/>
	<path d="M 786.0,1259.0 L 787.0,1259.0" style="stroke:#040104; fill:none;"/>
	<path d="M 743.0,1260.0 L 744.0,1260.0" style="stroke:#040104; fill:none;"/>
	<path d="M 681.0,1262.0 L 684.0,1262.0" style="stroke:#040104; fill:none;"/>
</svg>
