<?xml version="1.0" ?>
<svg baseProfile="full" height="1528" version="1.1" width="1179" xmlns="http://www.w3.org/2000/svg" xmlns:ev="http://www.w3.org/2001/xml-events" xmlns:xlink="http://www.w3.org/1999/xlink">
	<defs/>
	<path d="M 841.0,620.0 L 842.0,620.0" style="stroke:#050105; fill:none;"/>
	<path d="M 1007.0,634.0 L 1012.0,635.0" style="stroke:#050105; fill:none;"/>
	<path d="M 1020.0,636.0 L 1023.0,639.0" style="stroke:#050105; fill:none;"/>
	<path d="M 990.0,639.0 L 991.0,639.0" style="stroke:#050105; fill:none;"/>
	<path d="M 986.0,640.0 L 987.0,640.0" style="stroke:#050105; fill:none;"/>
	<path d="M 988.0,649.0 L 988.0,650.0" style="stroke:#050105; fill:none;"/>
	<path d="M 1031.0,654.0 L 1032.0,656.0" style="stroke:#050105; fill:none;"/>
	<path d="M 1034.0,661.0 L 1035.0,664.0" style="stroke:#050105; fill:none;"/>
	<path d="M 989.0,662.0 L 989.0,663.0" style="stroke:#050105; fill:none;"/>
	<path d="M 1008.0,666.0 L 1007.0,668.0" style="stroke:#050105; fill:none;"/>
	<path d="M 1035.0,668.0 L 1036.0,668.0" style="stroke:#050105; fill:none;"/>
	<path d="M 1022.0,669.0 L 1022.0,670.0" style="stroke:#050105; fill:none;"/>
	<path d="M 1004.0,671.0 L 1002.0,672.0" style="stroke:#050105; fill:none;"/>
	<path d="M 1036.0,671.0 L 1036.0,673.0" style="stroke:#050105; fill:none;"/>
	<path d="M 990.0,673.0 L 991.0,681.0" style="stroke:#050105; fill:none;"/>
	<path d="M 1000.0,676.0 L 1002.0,674.0" style="stroke:#050105; fill:none;"/>
	<path d="M 1023.0,676.0 L 1025.0,681.0" style="stroke:#050105; fill:none;"/>
	<path d="M 779.0,679.0 L 793.0,678.0" style="stroke:#050105; fill:none;"/>
	<path d="M 796.0,680.0 L 798.0,680.0" style="stroke:#050105; fill:none;"/>
	<path d="M 799.0,679.0 L 808.0,680.0" style="stroke:#050105; fill:none;"/>
	<path d="M 1038.0,679.0 L 1038.0,680.0" style="stroke:#050105; fill:none;"/>
	<path d="M 766.0,683.0 L 774.0,681.0" style="stroke:#050105; fill:none;"/>
	<path d="M 782.0,681.0 L 783.0,682.0" style="stroke:#050105; fill:none;"/>
	<path d="M 810.0,682.0 L 812.0,682.0" style="stroke:#050105; fill:none;"/>
	<path d="M 814.0,681.0 L 814.0,683.0" style="stroke:#050105; fill:none;"/>
	<path d="M 995.0,681.0 L 995.0,683.0" style="stroke:#050105; fill:none;"/>
	<path d="M 763.0,683.0 L 764.0,683.0" style="stroke:#050105; fill:none;"/>
	<path d="M 784.0,684.0 L 785.0,690.0" style="stroke:#050105; fill:none;"/>
	<path d="M 755.0,687.0 L 760.0,685.0" style="stroke:#050105; fill:none;"/>
	<path d="M 820.0,685.0 L 822.0,686.0" style="stroke:#050105; fill:none;"/>
	<path d="M 992.0,687.0 L 991.0,694.0" style="stroke:#050105; fill:none;"/>
	<path d="M 828.0,688.0 L 830.0,688.0" style="stroke:#050105; fill:none;"/>
	<path d="M 832.0,688.0 L 833.0,688.0" style="stroke:#050105; fill:none;"/>
	<path d="M 1027.0,688.0 L 1027.0,689.0" style="stroke:#050105; fill:none;"/>
	<path d="M 807.0,689.0 L 807.0,691.0" style="stroke:#050105; fill:none;"/>
	<path d="M 787.0,693.0 L 787.0,694.0" style="stroke:#050105; fill:none;"/>
	<path d="M 722.0,694.0 L 722.0,696.0" style="stroke:#050105; fill:none;"/>
	<path d="M 734.0,696.0 L 736.0,694.0" style="stroke:#050105; fill:none;"/>
	<path d="M 811.0,698.0 L 813.0,697.0" style="stroke:#050105; fill:none;"/>
	<path d="M 991.0,697.0 L 991.0,698.0" style="stroke:#050105; fill:none;"/>
	<path d="M 724.0,699.0 L 728.0,700.0" style="stroke:#050105; fill:none;"/>
	<path d="M 832.0,699.0 L 832.0,700.0" style="stroke:#050105; fill:none;"/>
	<path d="M 779.0,700.0 L 782.0,701.0" style="stroke:#050105; fill:none;"/>
	<path d="M 787.0,700.0 L 791.0,702.0" style="stroke:#050105; fill:none;"/>
	<path d="M 816.0,700.0 L 816.0,701.0" style="stroke:#050105; fill:none;"/>
	<path d="M 766.0,702.0 L 769.0,701.0" style="stroke:#050105; fill:none;"/>
	<path d="M 721.0,703.0 L 724.0,702.0" style="stroke:#050105; fill:none;"/>
	<path d="M 778.0,702.0 L 779.0,703.0" style="stroke:#050105; fill:none;"/>
	<path d="M 992.0,702.0 L 992.0,707.0" style="stroke:#050105; fill:none;"/>
	<path d="M 762.0,703.0 L 763.0,703.0" style="stroke:#050105; fill:none;"/>
	<path d="M 793.0,703.0 L 794.0,703.0" style="stroke:#050105; fill:none;"/>
	<path d="M 848.0,703.0 L 850.0,703.0" style="stroke:#050105; fill:none;"/>
	<path d="M 1027.0,703.0 L 1027.0,711.0" style="stroke:#050105; fill:none;"/>
	<path d="M 732.0,704.0 L 733.0,705.0" style="stroke:#050105; fill:none;"/>
	<path d="M 839.0,707.0 C 837.499,705.188 837.842,704.978 840.0,704.0" style="stroke:#050105; fill:none;"/>
	<path d="M 845.0,704.0 L 844.0,705.0" style="stroke:#050105; fill:none;"/>
	<path d="M 716.0,705.0 L 715.0,706.0" style="stroke:#050105; fill:none;"/>
	<path d="M 1040.0,705.0 L 1040.0,707.0" style="stroke:#050105; fill:none;"/>
	<path d="M 751.0,706.0 L 752.0,706.0" style="stroke:#050105; fill:none;"/>
	<path d="M 784.0,706.0 L 786.0,708.0" style="stroke:#050105; fill:none;"/>
	<path d="M 802.0,706.0 L 802.0,707.0" style="stroke:#050105; fill:none;"/>
	<path d="M 806.0,707.0 L 811.0,709.0" style="stroke:#050105; fill:none;"/>
	<path d="M 844.0,710.0 L 845.0,710.0" style="stroke:#050105; fill:none;"/>
	<path d="M 992.0,710.0 L 992.0,711.0" style="stroke:#050105; fill:none;"/>
	<path d="M 1041.0,710.0 L 1041.0,712.0" style="stroke:#050105; fill:none;"/>
	<path d="M 788.0,711.0 L 790.0,717.0" style="stroke:#050105; fill:none;"/>
	<path d="M 706.0,712.0 L 707.0,714.0" style="stroke:#050105; fill:none;"/>
	<path d="M 735.0,712.0 L 737.0,712.0" style="stroke:#050105; fill:none;"/>
	<path d="M 755.0,714.0 L 762.0,714.0" style="stroke:#050105; fill:none;"/>
	<path d="M 822.0,713.0 L 823.0,713.0" style="stroke:#050105; fill:none;"/>
	<path d="M 752.0,714.0 L 753.0,714.0" style="stroke:#050105; fill:none;"/>
	<path d="M 1027.0,714.0 L 1028.0,715.0" style="stroke:#050105; fill:none;"/>
	<path d="M 730.0,716.0 L 732.0,715.0" style="stroke:#050105; fill:none;"/>
	<path d="M 764.0,715.0 L 767.0,721.0" style="stroke:#050105; fill:none;"/>
	<path d="M 992.0,716.0 L 992.0,720.0" style="stroke:#050105; fill:none;"/>
	<path d="M 815.0,717.0 L 808.0,723.0" style="stroke:#050105; fill:none;"/>
	<path d="M 750.0,718.0 L 750.0,725.0" style="stroke:#050105; fill:none;"/>
	<path d="M 1027.0,718.0 L 1027.0,725.0" style="stroke:#050105; fill:none;"/>
	<path d="M 725.0,720.0 L 727.0,720.0" style="stroke:#050105; fill:none;"/>
	<path d="M 831.0,720.0 L 832.0,720.0" style="stroke:#050105; fill:none;"/>
	<path d="M 1041.0,720.0 L 1041.0,723.0" style="stroke:#050105; fill:none;"/>
	<path d="M 697.0,721.0 L 698.0,721.0" style="stroke:#050105; fill:none;"/>
	<path d="M 836.0,722.0 L 838.0,722.0" style="stroke:#050105; fill:none;"/>
	<path d="M 722.0,723.0 L 721.0,724.0" style="stroke:#050105; fill:none;"/>
	<path d="M 696.0,724.0 L 696.0,725.0" style="stroke:#050105; fill:none;"/>
	<path d="M 765.0,724.0 L 764.0,726.0" style="stroke:#050105; fill:none;"/>
	<path d="M 788.0,724.0 L 781.0,737.0" style="stroke:#050105; fill:none;"/>
	<path d="M 823.0,724.0 L 820.0,725.0" style="stroke:#050105; fill:none;"/>
	<path d="M 752.0,728.0 L 760.0,727.0" style="stroke:#050105; fill:none;"/>
	<path d="M 717.0,728.0 L 715.0,729.0" style="stroke:#050105; fill:none;"/>
	<path d="M 732.0,728.0 L 732.0,729.0" style="stroke:#050105; fill:none;"/>
	<path d="M 800.0,728.0 L 794.0,732.0" style="stroke:#050105; fill:none;"/>
	<path d="M 1025.0,730.0 L 1027.0,729.0" style="stroke:#050105; fill:none;"/>
	<path d="M 690.0,732.0 L 691.0,732.0" style="stroke:#050105; fill:none;"/>
	<path d="M 1026.0,732.0 L 1027.0,735.0" style="stroke:#050105; fill:none;"/>
	<path d="M 713.0,733.0 L 711.0,736.0" style="stroke:#050105; fill:none;"/>
	<path d="M 734.0,735.0 L 737.0,740.0" style="stroke:#050105; fill:none;"/>
	<path d="M 787.0,736.0 L 789.0,735.0" style="stroke:#050105; fill:none;"/>
	<path d="M 1042.0,736.0 L 1042.0,737.0" style="stroke:#050105; fill:none;"/>
	<path d="M 1025.0,738.0 L 1026.0,738.0" style="stroke:#050105; fill:none;"/>
	<path d="M 706.0,741.0 L 701.0,749.0" style="stroke:#050105; fill:none;"/>
	<path d="M 766.0,741.0 L 766.0,742.0" style="stroke:#050105; fill:none;"/>
	<path d="M 741.0,743.0 L 747.0,747.0" style="stroke:#050105; fill:none;"/>
	<path d="M 753.0,745.0 L 761.0,744.0" style="stroke:#050105; fill:none;"/>
	<path d="M 1025.0,745.0 L 1026.0,745.0" style="stroke:#050105; fill:none;"/>
	<path d="M 749.0,746.0 L 750.0,746.0" style="stroke:#050105; fill:none;"/>
	<path d="M 730.0,748.0 L 738.0,747.0" style="stroke:#050105; fill:none;"/>
	<path d="M 723.0,750.0 L 726.0,749.0" style="stroke:#050105; fill:none;"/>
	<path d="M 697.0,753.0 L 697.0,754.0" style="stroke:#050105; fill:none;"/>
	<path d="M 717.0,753.0 L 711.0,757.0" style="stroke:#050105; fill:none;"/>
	<path d="M 989.0,755.0 L 990.0,756.0" style="stroke:#050105; fill:none;"/>
	<path d="M 992.0,758.0 L 994.0,759.0" style="stroke:#050105; fill:none;"/>
	<path d="M 693.0,759.0 L 693.0,760.0" style="stroke:#050105; fill:none;"/>
	<path d="M 704.0,759.0 L 704.0,760.0" style="stroke:#050105; fill:none;"/>
	<path d="M 1043.0,759.0 L 1043.0,760.0" style="stroke:#050105; fill:none;"/>
	<path d="M 700.0,760.0 L 701.0,760.0" style="stroke:#050105; fill:none;"/>
	<path d="M 1001.0,764.0 L 1002.0,765.0" style="stroke:#050105; fill:none;"/>
	<path d="M 982.0,766.0 L 982.0,768.0" style="stroke:#050105; fill:none;"/>
	<path d="M 1005.0,768.0 L 1009.0,775.0" style="stroke:#050105; fill:none;"/>
	<path d="M 984.0,770.0 L 983.0,771.0" style="stroke:#050105; fill:none;"/>
	<path d="M 1009.0,780.0 L 1012.0,784.0" style="stroke:#050105; fill:none;"/>
	<path d="M 464.0,786.0 L 470.0,788.0" style="stroke:#050105; fill:none;"/>
	<path d="M 982.0,786.0 L 983.0,786.0" style="stroke:#050105; fill:none;"/>
	<path d="M 1012.0,786.0 L 1011.0,787.0" style="stroke:#050105; fill:none;"/>
	<path d="M 453.0,788.0 L 454.0,788.0" style="stroke:#050105; fill:none;"/>
	<path d="M 432.0,793.0 L 440.0,790.0" style="stroke:#050105; fill:none;"/>
	<path d="M 473.0,789.0 L 476.0,789.0" style="stroke:#050105; fill:none;"/>
	<path d="M 478.0,790.0 L 481.0,792.0" style="stroke:#050105; fill:none;"/>
	<path d="M 486.0,792.0 L 487.0,792.0" style="stroke:#050105; fill:none;"/>
	<path d="M 493.0,792.0 L 494.0,792.0" style="stroke:#050105; fill:none;"/>
	<path d="M 1009.0,792.0 L 1011.0,792.0" style="stroke:#050105; fill:none;"/>
	<path d="M 496.0,793.0 L 498.0,795.0" style="stroke:#050105; fill:none;"/>
	<path d="M 983.0,793.0 L 984.0,794.0" style="stroke:#050105; fill:none;"/>
	<path d="M 425.0,794.0 L 425.0,795.0" style="stroke:#050105; fill:none;"/>
	<path d="M 441.0,796.0 L 447.0,796.0" style="stroke:#050105; fill:none;"/>
	<path d="M 1007.0,795.0 L 1007.0,797.0" style="stroke:#050105; fill:none;"/>
	<path d="M 430.0,799.0 L 431.0,796.0" style="stroke:#050105; fill:none;"/>
	<path d="M 439.0,796.0 L 438.0,797.0" style="stroke:#050105; fill:none;"/>
	<path d="M 454.0,797.0 L 457.0,797.0" style="stroke:#050105; fill:none;"/>
	<path d="M 433.0,799.0 L 436.0,797.0" style="stroke:#050105; fill:none;"/>
	<path d="M 460.0,797.0 L 464.0,797.0" style="stroke:#050105; fill:none;"/>
	<path d="M 466.0,797.0 L 466.0,798.0" style="stroke:#050105; fill:none;"/>
	<path d="M 984.0,797.0 L 984.0,798.0" style="stroke:#050105; fill:none;"/>
	<path d="M 410.0,798.0 L 412.0,799.0" style="stroke:#050105; fill:none;"/>
	<path d="M 504.0,798.0 L 506.0,799.0" style="stroke:#050105; fill:none;"/>
	<path d="M 446.0,799.0 L 447.0,800.0" style="stroke:#050105; fill:none;"/>
	<path d="M 469.0,799.0 L 482.0,805.0" style="stroke:#050105; fill:none;"/>
	<path d="M 1006.0,800.0 L 1004.0,803.0" style="stroke:#050105; fill:none;"/>
	<path d="M 396.0,802.0 L 398.0,802.0" style="stroke:#050105; fill:none;"/>
	<path d="M 420.0,802.0 L 420.0,803.0" style="stroke:#050105; fill:none;"/>
	<path d="M 449.0,802.0 L 451.0,803.0" style="stroke:#050105; fill:none;"/>
	<path d="M 390.0,806.0 L 390.0,807.0" style="stroke:#050105; fill:none;"/>
	<path d="M 454.0,806.0 L 455.0,807.0" style="stroke:#050105; fill:none;"/>
	<path d="M 410.0,807.0 L 410.0,808.0" style="stroke:#050105; fill:none;"/>
	<path d="M 486.0,807.0 L 495.0,809.0" style="stroke:#050105; fill:none;"/>
	<path d="M 984.0,809.0 L 985.0,809.0" style="stroke:#050105; fill:none;"/>
	<path d="M 407.0,810.0 L 406.0,812.0" style="stroke:#050105; fill:none;"/>
	<path d="M 393.0,811.0 L 394.0,811.0" style="stroke:#050105; fill:none;"/>
	<path d="M 499.0,811.0 L 503.0,813.0" style="stroke:#050105; fill:none;"/>
	<path d="M 426.0,814.0 L 438.0,813.0" style="stroke:#050105; fill:none;"/>
	<path d="M 487.0,812.0 L 487.0,813.0" style="stroke:#050105; fill:none;"/>
	<path d="M 381.0,813.0 L 379.0,815.0" style="stroke:#050105; fill:none;"/>
	<path d="M 403.0,813.0 L 403.0,817.0" style="stroke:#050105; fill:none;"/>
	<path d="M 399.0,815.0 L 399.0,816.0" style="stroke:#050105; fill:none;"/>
	<path d="M 375.0,816.0 L 370.0,822.0" style="stroke:#050105; fill:none;"/>
	<path d="M 423.0,816.0 L 424.0,816.0" style="stroke:#050105; fill:none;"/>
	<path d="M 985.0,816.0 L 986.0,817.0" style="stroke:#050105; fill:none;"/>
	<path d="M 424.0,818.0 L 424.0,820.0" style="stroke:#050105; fill:none;"/>
	<path d="M 511.0,818.0 L 512.0,818.0" style="stroke:#050105; fill:none;"/>
	<path d="M 461.0,820.0 L 461.0,823.0" style="stroke:#050105; fill:none;"/>
	<path d="M 501.0,822.0 L 504.0,821.0" style="stroke:#050105; fill:none;"/>
	<path d="M 402.0,822.0 L 402.0,824.0" style="stroke:#050105; fill:none;"/>
	<path d="M 1016.0,822.0 L 1015.0,823.0" style="stroke:#050105; fill:none;"/>
	<path d="M 425.0,823.0 L 427.0,826.0" style="stroke:#050105; fill:none;"/>
	<path d="M 484.0,823.0 L 485.0,823.0" style="stroke:#050105; fill:none;"/>
	<path d="M 493.0,823.0 L 496.0,823.0" style="stroke:#050105; fill:none;"/>
	<path d="M 438.0,824.0 L 435.0,828.0" style="stroke:#050105; fill:none;"/>
	<path d="M 480.0,824.0 L 482.0,824.0" style="stroke:#050105; fill:none;"/>
	<path d="M 987.0,824.0 L 987.0,828.0" style="stroke:#050105; fill:none;"/>
	<path d="M 367.0,825.0 L 366.0,829.0" style="stroke:#050105; fill:none;"/>
	<path d="M 387.0,828.0 L 389.0,826.0" style="stroke:#050105; fill:none;"/>
	<path d="M 403.0,828.0 C 404.997,835.458 408.492,839.53 416.0,842.0" style="stroke:#050105; fill:none;"/>
	<path d="M 433.0,828.0 L 431.0,829.0" style="stroke:#050105; fill:none;"/>
	<path d="M 477.0,828.0 L 478.0,828.0" style="stroke:#050105; fill:none;"/>
	<path d="M 460.0,829.0 L 461.0,829.0" style="stroke:#050105; fill:none;"/>
	<path d="M 469.0,832.0 L 471.0,831.0" style="stroke:#050105; fill:none;"/>
	<path d="M 988.0,831.0 L 989.0,832.0" style="stroke:#050105; fill:none;"/>
	<path d="M 1038.0,833.0 L 1038.0,834.0" style="stroke:#050105; fill:none;"/>
	<path d="M 461.0,836.0 L 465.0,834.0" style="stroke:#050105; fill:none;"/>
	<path d="M 381.0,836.0 L 381.0,838.0" style="stroke:#050105; fill:none;"/>
	<path d="M 359.0,837.0 L 359.0,838.0" style="stroke:#050105; fill:none;"/>
	<path d="M 453.0,839.0 L 456.0,838.0" style="stroke:#050105; fill:none;"/>
	<path d="M 1037.0,838.0 L 1037.0,845.0" style="stroke:#050105; fill:none;"/>
	<path d="M 356.0,841.0 L 355.0,842.0" style="stroke:#050105; fill:none;"/>
	<path d="M 378.0,841.0 L 379.0,843.0" style="stroke:#050105; fill:none;"/>
	<path d="M 443.0,842.0 L 446.0,841.0" style="stroke:#050105; fill:none;"/>
	<path d="M 438.0,843.0 L 439.0,843.0" style="stroke:#050105; fill:none;"/>
	<path d="M 376.0,844.0 L 377.0,844.0" style="stroke:#050105; fill:none;"/>
	<path d="M 428.0,845.0 L 436.0,844.0" style="stroke:#050105; fill:none;"/>
	<path d="M 352.0,846.0 L 352.0,847.0" style="stroke:#050105; fill:none;"/>
	<path d="M 411.0,848.0 L 421.0,846.0" style="stroke:#050105; fill:none;"/>
	<path d="M 249.0,848.0 L 249.0,849.0" style="stroke:#050105; fill:none;"/>
	<path d="M 393.0,849.0 L 399.0,848.0" style="stroke:#050105; fill:none;"/>
	<path d="M 404.0,849.0 L 406.0,848.0" style="stroke:#050105; fill:none;"/>
	<path d="M 381.0,849.0 L 382.0,849.0" style="stroke:#050105; fill:none;"/>
	<path d="M 1036.0,850.0 L 1035.0,854.0" style="stroke:#050105; fill:none;"/>
	<path d="M 251.0,856.0 L 250.0,857.0" style="stroke:#050105; fill:none;"/>
	<path d="M 1034.0,858.0 L 1034.0,859.0" style="stroke:#050105; fill:none;"/>
	<path d="M 252.0,862.0 L 253.0,865.0" style="stroke:#050105; fill:none;"/>
	<path d="M 253.0,867.0 L 254.0,867.0" style="stroke:#050105; fill:none;"/>
	<path d="M 995.0,873.0 L 995.0,874.0" style="stroke:#050105; fill:none;"/>
	<path d="M 198.0,884.0 L 199.0,884.0" style="stroke:#050105; fill:none;"/>
	<path d="M 192.0,885.0 L 195.0,885.0" style="stroke:#050105; fill:none;"/>
	<path d="M 188.0,886.0 L 189.0,886.0" style="stroke:#050105; fill:none;"/>
	<path d="M 1000.0,893.0 L 1000.0,896.0" style="stroke:#050105; fill:none;"/>
	<path d="M 176.0,894.0 L 177.0,894.0" style="stroke:#050105; fill:none;"/>
	<path d="M 751.0,902.0 L 752.0,903.0" style="stroke:#050105; fill:none;"/>
	<path d="M 227.0,904.0 L 228.0,905.0" style="stroke:#050105; fill:none;"/>
	<path d="M 169.0,908.0 L 168.0,924.0" style="stroke:#050105; fill:none;"/>
	<path d="M 1004.0,910.0 L 1006.0,908.0" style="stroke:#050105; fill:none;"/>
	<path d="M 758.0,909.0 L 759.0,910.0" style="stroke:#050105; fill:none;"/>
	<path d="M 269.0,922.0 L 269.0,923.0" style="stroke:#050105; fill:none;"/>
	<path d="M 1006.0,922.0 L 1007.0,924.0" style="stroke:#050105; fill:none;"/>
	<path d="M 193.0,925.0 L 200.0,926.0" style="stroke:#050105; fill:none;"/>
	<path d="M 187.0,926.0 L 184.0,931.0" style="stroke:#050105; fill:none;"/>
	<path d="M 204.0,926.0 L 206.0,926.0" style="stroke:#050105; fill:none;"/>
	<path d="M 209.0,926.0 L 210.0,926.0" style="stroke:#050105; fill:none;"/>
	<path d="M 213.0,926.0 L 221.0,928.0" style="stroke:#050105; fill:none;"/>
	<path d="M 767.0,926.0 L 768.0,927.0" style="stroke:#050105; fill:none;"/>
	<path d="M 271.0,928.0 L 271.0,930.0" style="stroke:#050105; fill:none;"/>
	<path d="M 224.0,929.0 L 225.0,929.0" style="stroke:#050105; fill:none;"/>
	<path d="M 230.0,929.0 L 232.0,929.0" style="stroke:#050105; fill:none;"/>
	<path d="M 194.0,930.0 L 196.0,933.0" style="stroke:#050105; fill:none;"/>
	<path d="M 1008.0,931.0 L 1010.0,935.0" style="stroke:#050105; fill:none;"/>
	<path d="M 271.0,934.0 L 272.0,934.0" style="stroke:#050105; fill:none;"/>
	<path d="M 198.0,937.0 L 199.0,937.0" style="stroke:#050105; fill:none;"/>
	<path d="M 187.0,938.0 L 188.0,940.0" style="stroke:#050105; fill:none;"/>
	<path d="M 1010.0,938.0 L 1011.0,939.0" style="stroke:#050105; fill:none;"/>
	<path d="M 200.0,939.0 L 200.0,940.0" style="stroke:#050105; fill:none;"/>
	<path d="M 190.0,942.0 L 190.0,943.0" style="stroke:#050105; fill:none;"/>
	<path d="M 246.0,942.0 L 247.0,944.0" style="stroke:#050105; fill:none;"/>
	<path d="M 202.0,943.0 L 203.0,943.0" style="stroke:#050105; fill:none;"/>
	<path d="M 205.0,943.0 L 206.0,946.0" style="stroke:#050105; fill:none;"/>
	<path d="M 276.0,954.0 L 277.0,954.0" style="stroke:#050105; fill:none;"/>
	<path d="M 726.0,955.0 L 733.0,954.0" style="stroke:#050105; fill:none;"/>
	<path d="M 213.0,957.0 L 215.0,958.0" style="stroke:#050105; fill:none;"/>
	<path d="M 278.0,957.0 L 279.0,960.0" style="stroke:#050105; fill:none;"/>
	<path d="M 718.0,957.0 L 718.0,959.0 L 718.0,957.0" style="stroke:#050105; fill:none;"/>
	<path d="M 730.0,957.0 L 731.0,957.0" style="stroke:#050105; fill:none;"/>
	<path d="M 1015.0,957.0 L 1016.0,957.0" style="stroke:#050105; fill:none;"/>
	<path d="M 724.0,958.0 L 719.0,959.0" style="stroke:#050105; fill:none;"/>
	<path d="M 256.0,959.0 L 255.0,960.0" style="stroke:#050105; fill:none;"/>
	<path d="M 216.0,961.0 L 218.0,964.0" style="stroke:#050105; fill:none;"/>
	<path d="M 280.0,963.0 L 281.0,967.0" style="stroke:#050105; fill:none;"/>
	<path d="M 705.0,971.0 L 714.0,964.0" style="stroke:#050105; fill:none;"/>
	<path d="M 744.0,965.0 L 743.0,966.0" style="stroke:#050105; fill:none;"/>
	<path d="M 1017.0,965.0 L 1017.0,966.0" style="stroke:#050105; fill:none;"/>
	<path d="M 545.0,968.0 L 545.0,969.0" style="stroke:#050105; fill:none;"/>
	<path d="M 739.0,969.0 L 740.0,969.0" style="stroke:#050105; fill:none;"/>
	<path d="M 282.0,971.0 L 284.0,975.0" style="stroke:#050105; fill:none;"/>
	<path d="M 223.0,972.0 L 225.0,974.0" style="stroke:#050105; fill:none;"/>
	<path d="M 264.0,972.0 L 264.0,973.0" style="stroke:#050105; fill:none;"/>
	<path d="M 545.0,975.0 L 545.0,976.0" style="stroke:#050105; fill:none;"/>
	<path d="M 702.0,975.0 L 701.0,976.0" style="stroke:#050105; fill:none;"/>
	<path d="M 733.0,975.0 L 734.0,975.0" style="stroke:#050105; fill:none;"/>
	<path d="M 1020.0,976.0 L 1022.0,979.0" style="stroke:#050105; fill:none;"/>
	<path d="M 272.0,977.0 L 273.0,977.0" style="stroke:#050105; fill:none;"/>
	<path d="M 284.0,977.0 L 285.0,977.0" style="stroke:#050105; fill:none;"/>
	<path d="M 695.0,982.0 L 695.0,983.0" style="stroke:#050105; fill:none;"/>
	<path d="M 287.0,987.0 L 288.0,987.0" style="stroke:#050105; fill:none;"/>
	<path d="M 284.0,990.0 L 283.0,992.0" style="stroke:#050105; fill:none;"/>
	<path d="M 548.0,990.0 L 549.0,990.0" style="stroke:#050105; fill:none;"/>
	<path d="M 601.0,990.0 L 603.0,991.0" style="stroke:#050105; fill:none;"/>
	<path d="M 281.0,991.0 L 281.0,992.0" style="stroke:#050105; fill:none;"/>
	<path d="M 606.0,991.0 L 608.0,992.0" style="stroke:#050105; fill:none;"/>
	<path d="M 614.0,991.0 L 615.0,992.0" style="stroke:#050105; fill:none;"/>
	<path d="M 256.0,992.0 L 256.0,994.0" style="stroke:#050105; fill:none;"/>
	<path d="M 596.0,992.0 L 596.0,993.0" style="stroke:#050105; fill:none;"/>
	<path d="M 621.0,992.0 L 623.0,992.0" style="stroke:#050105; fill:none;"/>
	<path d="M 626.0,993.0 L 631.0,995.0" style="stroke:#050105; fill:none;"/>
	<path d="M 290.0,995.0 L 290.0,999.0" style="stroke:#050105; fill:none;"/>
	<path d="M 593.0,995.0 L 593.0,996.0" style="stroke:#050105; fill:none;"/>
	<path d="M 554.0,997.0 L 556.0,998.0" style="stroke:#050105; fill:none;"/>
	<path d="M 596.0,997.0 L 598.0,997.0" style="stroke:#050105; fill:none;"/>
	<path d="M 639.0,997.0 L 640.0,997.0" style="stroke:#050105; fill:none;"/>
	<path d="M 643.0,997.0 L 644.0,997.0" style="stroke:#050105; fill:none;"/>
	<path d="M 646.0,998.0 L 647.0,998.0" style="stroke:#050105; fill:none;"/>
	<path d="M 217.0,999.0 L 217.0,1000.0" style="stroke:#050105; fill:none;"/>
	<path d="M 256.0,999.0 L 257.0,999.0" style="stroke:#050105; fill:none;"/>
	<path d="M 1023.0,1000.0 L 1022.0,1001.0" style="stroke:#050105; fill:none;"/>
	<path d="M 560.0,1001.0 L 565.0,1004.0" style="stroke:#050105; fill:none;"/>
	<path d="M 222.0,1006.0 L 223.0,1008.0" style="stroke:#050105; fill:none;"/>
	<path d="M 295.0,1008.0 L 296.0,1013.0" style="stroke:#050105; fill:none;"/>
	<path d="M 259.0,1010.0 L 259.0,1011.0" style="stroke:#050105; fill:none;"/>
	<path d="M 892.0,1011.0 L 894.0,1013.0" style="stroke:#050105; fill:none;"/>
	<path d="M 1025.0,1013.0 L 1024.0,1014.0" style="stroke:#050105; fill:none;"/>
	<path d="M 259.0,1015.0 L 260.0,1015.0" style="stroke:#050105; fill:none;"/>
	<path d="M 234.0,1018.0 L 237.0,1023.0" style="stroke:#050105; fill:none;"/>
	<path d="M 263.0,1020.0 L 264.0,1020.0" style="stroke:#050105; fill:none;"/>
	<path d="M 1024.0,1021.0 L 1025.0,1021.0" style="stroke:#050105; fill:none;"/>
	<path d="M 266.0,1023.0 L 267.0,1024.0" style="stroke:#050105; fill:none;"/>
	<path d="M 299.0,1024.0 L 301.0,1027.0" style="stroke:#050105; fill:none;"/>
	<path d="M 240.0,1026.0 L 249.0,1037.0" style="stroke:#050105; fill:none;"/>
	<path d="M 275.0,1027.0 L 276.0,1028.0" style="stroke:#050105; fill:none;"/>
	<path d="M 280.0,1028.0 L 281.0,1028.0" style="stroke:#050105; fill:none;"/>
	<path d="M 303.0,1034.0 L 303.0,1035.0" style="stroke:#050105; fill:none;"/>
	<path d="M 856.0,1043.0 L 855.0,1045.0" style="stroke:#050105; fill:none;"/>
	<path d="M 258.0,1049.0 L 263.0,1053.0" style="stroke:#050105; fill:none;"/>
	<path d="M 845.0,1052.0 C 847.987,1051.52 850.186,1052.9 847.0,1055.0" style="stroke:#050105; fill:none;"/>
	<path d="M 265.0,1056.0 L 266.0,1056.0" style="stroke:#050105; fill:none;"/>
	<path d="M 314.0,1056.0 L 314.0,1057.0" style="stroke:#050105; fill:none;"/>
	<path d="M 840.0,1056.0 L 840.0,1057.0" style="stroke:#050105; fill:none;"/>
	<path d="M 1025.0,1056.0 L 1025.0,1058.0" style="stroke:#050105; fill:none;"/>
	<path d="M 265.0,1059.0 L 271.0,1065.0" style="stroke:#050105; fill:none;"/>
	<path d="M 315.0,1060.0 L 316.0,1061.0" style="stroke:#050105; fill:none;"/>
	<path d="M 832.0,1061.0 L 834.0,1060.0" style="stroke:#050105; fill:none;"/>
	<path d="M 1025.0,1061.0 L 1025.0,1064.0" style="stroke:#050105; fill:none;"/>
	<path d="M 829.0,1062.0 L 830.0,1062.0" style="stroke:#050105; fill:none;"/>
	<path d="M 842.0,1063.0 L 844.0,1064.0" style="stroke:#050105; fill:none;"/>
	<path d="M 317.0,1064.0 L 317.0,1065.0" style="stroke:#050105; fill:none;"/>
	<path d="M 826.0,1064.0 L 827.0,1064.0" style="stroke:#050105; fill:none;"/>
	<path d="M 822.0,1065.0 L 824.0,1066.0" style="stroke:#050105; fill:none;"/>
	<path d="M 813.0,1070.0 L 816.0,1068.0" style="stroke:#050105; fill:none;"/>
	<path d="M 1024.0,1067.0 L 1025.0,1070.0" style="stroke:#050105; fill:none;"/>
	<path d="M 835.0,1068.0 L 834.0,1070.0" style="stroke:#050105; fill:none;"/>
	<path d="M 839.0,1068.0 L 839.0,1069.0" style="stroke:#050105; fill:none;"/>
	<path d="M 275.0,1070.0 L 278.0,1074.0" style="stroke:#050105; fill:none;"/>
	<path d="M 319.0,1071.0 L 318.0,1075.0" style="stroke:#050105; fill:none;"/>
	<path d="M 797.0,1072.0 L 800.0,1072.0" style="stroke:#050105; fill:none;"/>
	<path d="M 830.0,1075.0 L 832.0,1073.0" style="stroke:#050105; fill:none;"/>
	<path d="M 785.0,1075.0 L 788.0,1074.0" style="stroke:#050105; fill:none;"/>
	<path d="M 281.0,1075.0 L 284.0,1077.0" style="stroke:#050105; fill:none;"/>
	<path d="M 781.0,1075.0 L 781.0,1076.0" style="stroke:#050105; fill:none;"/>
	<path d="M 765.0,1077.0 L 773.0,1076.0" style="stroke:#050105; fill:none;"/>
	<path d="M 778.0,1076.0 L 779.0,1076.0" style="stroke:#050105; fill:none;"/>
	<path d="M 811.0,1078.0 L 811.0,1079.0" style="stroke:#050105; fill:none;"/>
	<path d="M 827.0,1078.0 L 827.0,1079.0" style="stroke:#050105; fill:none;"/>
	<path d="M 1023.0,1078.0 L 1022.0,1083.0" style="stroke:#050105; fill:none;"/>
	<path d="M 288.0,1080.0 L 288.0,1081.0" style="stroke:#050105; fill:none;"/>
	<path d="M 735.0,1082.0 L 746.0,1081.0" style="stroke:#050105; fill:none;"/>
	<path d="M 820.0,1081.0 L 818.0,1085.0" style="stroke:#050105; fill:none;"/>
	<path d="M 291.0,1083.0 L 300.0,1092.0" style="stroke:#050105; fill:none;"/>
	<path d="M 323.0,1085.0 L 322.0,1086.0" style="stroke:#050105; fill:none;"/>
	<path d="M 727.0,1086.0 L 729.0,1085.0" style="stroke:#050105; fill:none;"/>
	<path d="M 802.0,1085.0 L 800.0,1097.0 L 807.0,1092.0" style="stroke:#050105; fill:none;"/>
	<path d="M 815.0,1087.0 L 816.0,1087.0" style="stroke:#050105; fill:none;"/>
	<path d="M 771.0,1088.0 L 771.0,1090.0 L 771.0,1088.0" style="stroke:#050105; fill:none;"/>
	<path d="M 303.0,1092.0 L 305.0,1094.0" style="stroke:#050105; fill:none;"/>
	<path d="M 709.0,1092.0 L 709.0,1093.0" style="stroke:#050105; fill:none;"/>
	<path d="M 747.0,1092.0 L 747.0,1093.0" style="stroke:#050105; fill:none;"/>
	<path d="M 707.0,1093.0 L 707.0,1094.0" style="stroke:#050105; fill:none;"/>
	<path d="M 704.0,1094.0 L 698.0,1095.0" style="stroke:#050105; fill:none;"/>
	<path d="M 800.0,1094.0 L 802.0,1096.0" style="stroke:#050105; fill:none;"/>
	<path d="M 779.0,1095.0 L 783.0,1096.0" style="stroke:#050105; fill:none;"/>
	<path d="M 691.0,1097.0 L 695.0,1096.0" style="stroke:#050105; fill:none;"/>
	<path d="M 771.0,1096.0 L 771.0,1097.0" style="stroke:#050105; fill:none;"/>
	<path d="M 327.0,1097.0 L 328.0,1097.0" style="stroke:#050105; fill:none;"/>
	<path d="M 681.0,1098.0 L 676.0,1100.0" style="stroke:#050105; fill:none;"/>
	<path d="M 685.0,1098.0 L 683.0,1099.0" style="stroke:#050105; fill:none;"/>
	<path d="M 785.0,1099.0 L 787.0,1100.0" style="stroke:#050105; fill:none;"/>
	<path d="M 672.0,1100.0 L 673.0,1101.0" style="stroke:#050105; fill:none;"/>
	<path d="M 328.0,1101.0 L 329.0,1103.0" style="stroke:#050105; fill:none;"/>
	<path d="M 707.0,1102.0 L 708.0,1104.0" style="stroke:#050105; fill:none;"/>
	<path d="M 788.0,1102.0 L 793.0,1102.0" style="stroke:#050105; fill:none;"/>
	<path d="M 1014.0,1102.0 L 1014.0,1103.0" style="stroke:#050105; fill:none;"/>
	<path d="M 653.0,1106.0 L 661.0,1104.0" style="stroke:#050105; fill:none;"/>
	<path d="M 663.0,1103.0 L 663.0,1104.0" style="stroke:#050105; fill:none;"/>
	<path d="M 665.0,1103.0 L 666.0,1103.0" style="stroke:#050105; fill:none;"/>
	<path d="M 317.0,1105.0 L 317.0,1106.0" style="stroke:#050105; fill:none;"/>
	<path d="M 787.0,1105.0 L 788.0,1105.0" style="stroke:#050105; fill:none;"/>
	<path d="M 330.0,1106.0 L 330.0,1108.0" style="stroke:#050105; fill:none;"/>
	<path d="M 756.0,1106.0 L 756.0,1107.0" style="stroke:#050105; fill:none;"/>
	<path d="M 768.0,1106.0 L 768.0,1107.0" style="stroke:#050105; fill:none;"/>
	<path d="M 649.0,1107.0 L 650.0,1108.0" style="stroke:#050105; fill:none;"/>
	<path d="M 708.0,1107.0 L 710.0,1109.0" style="stroke:#050105; fill:none;"/>
	<path d="M 765.0,1110.0 L 767.0,1109.0" style="stroke:#050105; fill:none;"/>
	<path d="M 642.0,1110.0 L 643.0,1110.0" style="stroke:#050105; fill:none;"/>
	<path d="M 781.0,1110.0 L 780.0,1111.0" style="stroke:#050105; fill:none;"/>
	<path d="M 1013.0,1111.0 L 1010.0,1116.0" style="stroke:#050105; fill:none;"/>
	<path d="M 710.0,1112.0 L 711.0,1112.0" style="stroke:#050105; fill:none;"/>
	<path d="M 326.0,1113.0 L 328.0,1115.0" style="stroke:#050105; fill:none;"/>
	<path d="M 333.0,1113.0 L 334.0,1114.0" style="stroke:#050105; fill:none;"/>
	<path d="M 756.0,1113.0 L 756.0,1114.0" style="stroke:#050105; fill:none;"/>
	<path d="M 759.0,1114.0 L 763.0,1113.0" style="stroke:#050105; fill:none;"/>
	<path d="M 775.0,1115.0 L 777.0,1113.0" style="stroke:#050105; fill:none;"/>
	<path d="M 629.0,1116.0 L 632.0,1115.0" style="stroke:#050105; fill:none;"/>
	<path d="M 334.0,1118.0 L 334.0,1120.0" style="stroke:#050105; fill:none;"/>
	<path d="M 751.0,1118.0 L 750.0,1119.0" style="stroke:#050105; fill:none;"/>
	<path d="M 616.0,1120.0 L 616.0,1121.0" style="stroke:#050105; fill:none;"/>
	<path d="M 618.0,1120.0 L 619.0,1120.0" style="stroke:#050105; fill:none;"/>
	<path d="M 1009.0,1120.0 L 1009.0,1121.0" style="stroke:#050105; fill:none;"/>
	<path d="M 716.0,1123.0 L 719.0,1128.0" style="stroke:#050105; fill:none;"/>
	<path d="M 608.0,1124.0 L 609.0,1124.0" style="stroke:#050105; fill:none;"/>
	<path d="M 737.0,1125.0 L 741.0,1124.0" style="stroke:#050105; fill:none;"/>
	<path d="M 754.0,1126.0 L 758.0,1124.0" style="stroke:#050105; fill:none;"/>
	<path d="M 601.0,1129.0 L 603.0,1126.0" style="stroke:#050105; fill:none;"/>
	<path d="M 671.0,1128.0 L 671.0,1129.0" style="stroke:#050105; fill:none;"/>
	<path d="M 748.0,1128.0 L 749.0,1128.0" style="stroke:#050105; fill:none;"/>
	<path d="M 1007.0,1128.0 L 1007.0,1130.0" style="stroke:#050105; fill:none;"/>
	<path d="M 598.0,1129.0 L 598.0,1131.0" style="stroke:#050105; fill:none;"/>
	<path d="M 728.0,1129.0 L 730.0,1129.0" style="stroke:#050105; fill:none;"/>
	<path d="M 339.0,1130.0 L 340.0,1132.0" style="stroke:#050105; fill:none;"/>
	<path d="M 725.0,1130.0 L 726.0,1130.0" style="stroke:#050105; fill:none;"/>
	<path d="M 740.0,1132.0 L 746.0,1130.0" style="stroke:#050105; fill:none;"/>
	<path d="M 637.0,1132.0 L 639.0,1134.0" style="stroke:#050105; fill:none;"/>
	<path d="M 707.0,1132.0 L 708.0,1132.0" style="stroke:#050105; fill:none;"/>
	<path d="M 710.0,1132.0 L 711.0,1132.0" style="stroke:#050105; fill:none;"/>
	<path d="M 592.0,1133.0 L 586.0,1136.0" style="stroke:#050105; fill:none;"/>
	<path d="M 734.0,1135.0 L 736.0,1133.0" style="stroke:#050105; fill:none;"/>
	<path d="M 1008.0,1133.0 L 1008.0,1134.0" style="stroke:#050105; fill:none;"/>
	<path d="M 636.0,1135.0 L 635.0,1139.0" style="stroke:#050105; fill:none;"/>
	<path d="M 699.0,1135.0 L 701.0,1135.0" style="stroke:#050105; fill:none;"/>
	<path d="M 574.0,1138.0 L 578.0,1137.0" style="stroke:#050105; fill:none;"/>
	<path d="M 674.0,1137.0 L 675.0,1139.0" style="stroke:#050105; fill:none;"/>
	<path d="M 695.0,1137.0 L 696.0,1137.0" style="stroke:#050105; fill:none;"/>
	<path d="M 721.0,1138.0 L 718.0,1140.0" style="stroke:#050105; fill:none;"/>
	<path d="M 567.0,1140.0 L 570.0,1139.0" style="stroke:#050105; fill:none;"/>
	<path d="M 713.0,1139.0 L 713.0,1141.0" style="stroke:#050105; fill:none;"/>
	<path d="M 1009.0,1139.0 L 1010.0,1139.0" style="stroke:#050105; fill:none;"/>
	<path d="M 643.0,1140.0 L 644.0,1140.0" style="stroke:#050105; fill:none;"/>
	<path d="M 681.0,1140.0 L 683.0,1140.0" style="stroke:#050105; fill:none;"/>
	<path d="M 587.0,1141.0 L 592.0,1146.0" style="stroke:#050105; fill:none;"/>
	<path d="M 343.0,1142.0 L 346.0,1145.0" style="stroke:#050105; fill:none;"/>
	<path d="M 706.0,1144.0 L 708.0,1142.0" style="stroke:#050105; fill:none;"/>
	<path d="M 569.0,1143.0 L 576.0,1147.0" style="stroke:#050105; fill:none;"/>
	<path d="M 647.0,1143.0 L 649.0,1143.0" style="stroke:#050105; fill:none;"/>
	<path d="M 652.0,1143.0 L 653.0,1143.0" style="stroke:#050105; fill:none;"/>
	<path d="M 662.0,1145.0 L 667.0,1143.0" style="stroke:#050105; fill:none;"/>
	<path d="M 656.0,1145.0 L 659.0,1145.0" style="stroke:#050105; fill:none;"/>
	<path d="M 696.0,1146.0 L 702.0,1144.0" style="stroke:#050105; fill:none;"/>
	<path d="M 599.0,1146.0 L 600.0,1146.0" style="stroke:#050105; fill:none;"/>
	<path d="M 634.0,1146.0 L 632.0,1152.0" style="stroke:#050105; fill:none;"/>
	<path d="M 688.0,1147.0 L 692.0,1147.0" style="stroke:#050105; fill:none;"/>
	<path d="M 345.0,1148.0 L 346.0,1152.0" style="stroke:#050105; fill:none;"/>
	<path d="M 585.0,1148.0 L 595.0,1154.0" style="stroke:#050105; fill:none;"/>
	<path d="M 604.0,1148.0 L 609.0,1150.0" style="stroke:#050105; fill:none;"/>
	<path d="M 615.0,1149.0 L 618.0,1151.0" style="stroke:#050105; fill:none;"/>
	<path d="M 683.0,1150.0 L 685.0,1149.0" style="stroke:#050105; fill:none;"/>
	<path d="M 675.0,1150.0 L 679.0,1150.0" style="stroke:#050105; fill:none;"/>
	<path d="M 614.0,1151.0 L 614.0,1152.0" style="stroke:#050105; fill:none;"/>
	<path d="M 663.0,1152.0 L 663.0,1153.0" style="stroke:#050105; fill:none;"/>
	<path d="M 667.0,1152.0 L 670.0,1152.0" style="stroke:#050105; fill:none;"/>
	<path d="M 1011.0,1154.0 L 1013.0,1154.0 L 1013.0,1158.0" style="stroke:#050105; fill:none;"/>
	<path d="M 347.0,1154.0 L 351.0,1159.0" style="stroke:#050105; fill:none;"/>
	<path d="M 656.0,1154.0 L 660.0,1154.0" style="stroke:#050105; fill:none;"/>
	<path d="M 994.0,1154.0 L 995.0,1154.0" style="stroke:#050105; fill:none;"/>
	<path d="M 598.0,1155.0 L 600.0,1155.0" style="stroke:#050105; fill:none;"/>
	<path d="M 618.0,1155.0 L 619.0,1155.0" style="stroke:#050105; fill:none;"/>
	<path d="M 628.0,1155.0 L 629.0,1156.0" style="stroke:#050105; fill:none;"/>
	<path d="M 632.0,1155.0 L 633.0,1155.0" style="stroke:#050105; fill:none;"/>
	<path d="M 636.0,1155.0 L 638.0,1156.0" style="stroke:#050105; fill:none;"/>
	<path d="M 650.0,1156.0 L 652.0,1155.0" style="stroke:#050105; fill:none;"/>
	<path d="M 602.0,1156.0 L 602.0,1157.0" style="stroke:#050105; fill:none;"/>
	<path d="M 605.0,1156.0 L 608.0,1156.0" style="stroke:#050105; fill:none;"/>
	<path d="M 641.0,1156.0 L 644.0,1156.0" style="stroke:#050105; fill:none;"/>
	<path d="M 1014.0,1160.0 L 1019.0,1176.0" style="stroke:#050105; fill:none;"/>
	<path d="M 991.0,1163.0 L 989.0,1168.0" style="stroke:#050105; fill:none;"/>
	<path d="M 350.0,1164.0 L 351.0,1164.0" style="stroke:#050105; fill:none;"/>
	<path d="M 351.0,1167.0 L 354.0,1168.0" style="stroke:#050105; fill:none;"/>
	<path d="M 754.0,1171.0 L 754.0,1172.0" style="stroke:#050105; fill:none;"/>
	<path d="M 356.0,1173.0 L 357.0,1177.0" style="stroke:#050105; fill:none;"/>
	<path d="M 986.0,1173.0 L 986.0,1174.0" style="stroke:#050105; fill:none;"/>
	<path d="M 739.0,1177.0 L 740.0,1177.0" style="stroke:#050105; fill:none;"/>
	<path d="M 982.0,1177.0 L 982.0,1181.0" style="stroke:#050105; fill:none;"/>
	<path d="M 358.0,1180.0 L 359.0,1180.0" style="stroke:#050105; fill:none;"/>
	<path d="M 979.0,1185.0 L 980.0,1185.0" style="stroke:#050105; fill:none;"/>
	<path d="M 1022.0,1186.0 L 1021.0,1187.0" style="stroke:#050105; fill:none;"/>
	<path d="M 362.0,1187.0 L 363.0,1189.0" style="stroke:#050105; fill:none;"/>
	<path d="M 977.0,1188.0 L 975.0,1190.0" style="stroke:#050105; fill:none;"/>
	<path d="M 1023.0,1190.0 L 1024.0,1190.0" style="stroke:#050105; fill:none;"/>
	<path d="M 1024.0,1192.0 L 1024.0,1194.0" style="stroke:#050105; fill:none;"/>
	<path d="M 363.0,1193.0 L 364.0,1193.0" style="stroke:#050105; fill:none;"/>
	<path d="M 366.0,1197.0 L 366.0,1198.0" style="stroke:#050105; fill:none;"/>
	<path d="M 1026.0,1198.0 L 1026.0,1199.0" style="stroke:#050105; fill:none;"/>
	<path d="M 1028.0,1205.0 L 1029.0,1212.0" style="stroke:#050105; fill:none;"/>
	<path d="M 370.0,1206.0 L 371.0,1207.0" style="stroke:#050105; fill:none;"/>
	<path d="M 374.0,1210.0 L 374.0,1212.0" style="stroke:#050105; fill:none;"/>
	<path d="M 962.0,1213.0 L 962.0,1215.0" style="stroke:#050105; fill:none;"/>
	<path d="M 377.0,1218.0 L 379.0,1220.0" style="stroke:#050105; fill:none;"/>
	<path d="M 382.0,1224.0 L 382.0,1225.0" style="stroke:#050105; fill:none;"/>
	<path d="M 1036.0,1228.0 L 1036.0,1229.0" style="stroke:#050105; fill:none;"/>
	<path d="M 1037.0,1233.0 L 1036.0,1235.0" style="stroke:#050105; fill:none;"/>
	<path d="M 383.0,1234.0 L 384.0,1237.0" style="stroke:#050105; fill:none;"/>
	<path d="M 389.0,1236.0 L 390.0,1236.0" style="stroke:#050105; fill:none;"/>
	<path d="M 1038.0,1236.0 L 1038.0,1237.0" style="stroke:#050105; fill:none;"/>
	<path d="M 386.0,1238.0 L 386.0,1239.0" style="stroke:#050105; fill:none;"/>
	<path d="M 941.0,1240.0 L 941.0,1241.0" style="stroke:#050105; fill:none;"/>
	<path d="M 1038.0,1240.0 L 1039.0,1240.0" style="stroke:#050105; fill:none;"/>
	<path d="M 937.0,1248.0 L 938.0,1248.0" style="stroke:#050105; fill:none;"/>
	<path d="M 395.0,1250.0 L 395.0,1251.0" style="stroke:#050105; fill:none;"/>
	<path d="M 935.0,1250.0 L 935.0,1252.0" style="stroke:#050105; fill:none;"/>
	<path d="M 1044.0,1255.0 L 1044.0,1258.0" style="stroke:#050105; fill:none;"/>
	<path d="M 401.0,1256.0 L 403.0,1258.0" style="stroke:#050105; fill:none;"/>
	<path d="M 930.0,1260.0 L 930.0,1261.0" style="stroke:#050105; fill:none;"/>
	<path d="M 1045.0,1260.0 L 1047.0,1261.0" style="stroke:#050105; fill:none;"/>
	<path d="M 408.0,1264.0 L 411.0,1266.0" style="stroke:#050105; fill:none;"/>
	<path d="M 1047.0,1265.0 L 1049.0,1265.0" style="stroke:#050105; fill:none;"/>
	<path d="M 925.0,1266.0 L 924.0,1268.0" style="stroke:#050105; fill:none;"/>
	<path d="M 1048.0,1267.0 L 1049.0,1268.0" style="stroke:#050105; fill:none;"/>
	<path d="M 915.0,1278.0 L 922.0,1271.0" style="stroke:#050105; fill:none;"/>
	<path d="M 418.0,1272.0 L 420.0,1273.0" style="stroke:#050105; fill:none;"/>
	<path d="M 1049.0,1272.0 L 1050.0,1274.0" style="stroke:#050105; fill:none;"/>
	<path d="M 423.0,1275.0 L 425.0,1278.0" style="stroke:#050105; fill:none;"/>
	<path d="M 1050.0,1276.0 L 1051.0,1276.0" style="stroke:#050105; fill:none;"/>
	<path d="M 428.0,1281.0 L 432.0,1282.0" style="stroke:#050105; fill:none;"/>
	<path d="M 436.0,1285.0 L 436.0,1286.0" style="stroke:#050105; fill:none;"/>
	<path d="M 439.0,1287.0 L 443.0,1290.0" style="stroke:#050105; fill:none;"/>
	<path d="M 1053.0,1289.0 L 1054.0,1291.0" style="stroke:#050105; fill:none;"/>
	<path d="M 904.0,1290.0 L 904.0,1291.0" style="stroke:#050105; fill:none;"/>
	<path d="M 900.0,1295.0 L 901.0,1295.0" style="stroke:#050105; fill:none;"/>
	<path d="M 896.0,1299.0 L 895.0,1302.0" style="stroke:#050105; fill:none;"/>
	<path d="M 466.0,1303.0 L 467.0,1303.0" style="stroke:#050105; fill:none;"/>
	<path d="M 1051.0,1303.0 L 1052.0,1306.0" style="stroke:#050105; fill:none;"/>
	<path d="M 1049.0,1309.0 L 1050.0,1309.0" style="stroke:#050105; fill:none;"/>
	<path d="M 1048.0,1315.0 L 1049.0,1315.0" style="stroke:#050105; fill:none;"/>
	<path d="M 486.0,1319.0 L 486.0,1320.0" style="stroke:#050105; fill:none;"/>
	<path d="M 1048.0,1320.0 L 1047.0,1323.0" style="stroke:#050105; fill:none;"/>
	<path d="M 487.0,1324.0 L 488.0,1324.0" style="stroke:#050105; fill:none;"/>
	<path d="M 1046.0,1327.0 L 1046.0,1331.0" style="stroke:#050105; fill:none;"/>
	<path d="M 490.0,1330.0 L 490.0,1331.0" style="stroke:#050105; fill:none;"/>
	<path d="M 491.0,1334.0 L 493.0,1340.0" style="stroke:#050105; fill:none;"/>
	<path d="M 1045.0,1335.0 L 1043.0,1340.0" style="stroke:#050105; fill:none;"/>
	<path d="M 838.0,1338.0 L 839.0,1338.0" style="stroke:#050105; fill:none;"/>
	<path d="M 588.0,1341.0 L 588.0,1342.0" style="stroke:#050105; fill:none;"/>
	<path d="M 1042.0,1344.0 L 1041.0,1350.0" style="stroke:#050105; fill:none;"/>
	<path d="M 494.0,1345.0 L 495.0,1347.0" style="stroke:#050105; fill:none;"/>
	<path d="M 822.0,1349.0 L 823.0,1349.0" style="stroke:#050105; fill:none;"/>
	<path d="M 613.0,1350.0 L 613.0,1351.0" style="stroke:#050105; fill:none;"/>
	<path d="M 798.0,1350.0 L 798.0,1351.0" style="stroke:#050105; fill:none;"/>
	<path d="M 497.0,1355.0 L 497.0,1357.0" style="stroke:#050105; fill:none;"/>
	<path d="M 1040.0,1361.0 L 1041.0,1357.0 L 1042.0,1359.0" style="stroke:#050105; fill:none;"/>
	<path d="M 702.0,1361.0 L 702.0,1362.0" style="stroke:#050105; fill:none;"/>
	<path d="M 653.0,1362.0 L 653.0,1363.0" style="stroke:#050105; fill:none;"/>
	<path d="M 1041.0,1365.0 L 1043.0,1367.0" style="stroke:#050105; fill:none;"/>
	<path d="M 1039.0,1366.0 L 1040.0,1366.0" style="stroke:#050105; fill:none;"/>
	<path d="M 697.0,1368.0 L 696.0,1370.0" style="stroke:#050105; fill:none;"/>
	<path d="M 1039.0,1371.0 L 1040.0,1373.0" style="stroke:#050105; fill:none;"/>
	<path d="M 502.0,1374.0 L 504.0,1372.0" style="stroke:#050105; fill:none;"/>
	<path d="M 500.0,1376.0 L 499.0,1377.0" style="stroke:#050105; fill:none;"/>
	<path d="M 505.0,1377.0 L 508.0,1387.0" style="stroke:#050105; fill:none;"/>
	<path d="M 1042.0,1385.0 L 1041.0,1392.0" style="stroke:#050105; fill:none;"/>
	<path d="M 1040.0,1389.0 L 1041.0,1390.0" style="stroke:#050105; fill:none;"/>
	<path d="M 1041.0,1397.0 L 1041.0,1401.0" style="stroke:#050105; fill:none;"/>
	<path d="M 513.0,1402.0 L 513.0,1409.0" style="stroke:#050105; fill:none;"/>
	<path d="M 1044.0,1405.0 L 1047.0,1420.0" style="stroke:#050105; fill:none;"/>
	<path d="M 516.0,1412.0 L 516.0,1413.0" style="stroke:#050105; fill:none;"/>
	<path d="M 516.0,1415.0 L 517.0,1416.0" style="stroke:#050105; fill:none;"/>
	<path d="M 518.0,1420.0 L 518.0,1423.0" style="stroke:#050105; fill:none;"/>
	<path d="M 1047.0,1428.0 L 1047.0,1430.0" style="stroke:#050105; fill:none;"/>
	<path d="M 522.0,1432.0 L 521.0,1435.0" style="stroke:#050105; fill:none;"/>
	<path d="M 530.0,1449.0 L 533.0,1453.0" style="stroke:#050105; fill:none;"/>
	<path d="M 540.0,1463.0 L 540.0,1464.0" style="stroke:#050105; fill:none;"/>
	<path d="M 545.0,1470.0 L 548.0,1474.0" style="stroke:#050105; fill:none;"/>
	<path d="M 555.0,1481.0 L 556.0,1481.0" style="stroke:#050105; fill:none;"/>
	<path d="M 560.0,1484.0 L 563.0,1487.0" style="stroke:#050105; fill:none;"/>
	<path d="M 567.0,1490.0 L 573.0,1498.0" style="stroke:#050105; fill:none;"/>
	<path d="M 577.0,1500.0 L 586.0,1507.0" style="stroke:#050105; fill:none;"/>
	<path d="M 588.0,1509.0 L 587.0,1510.0" style="stroke:#050105; fill:none;"/>
	<path d="M 600.0,1520.0 L 601.0,1521.0" style="stroke:#050105; fill:none;"/>
	<path d="M 603.0,1525.0 L 605.0,1524.0" style="stroke:#050105; fill:none;"/>
</svg>
