<?xml version="1.0" ?>
<svg baseProfile="full" height="1528" version="1.1" width="1179" xmlns="http://www.w3.org/2000/svg" xmlns:ev="http://www.w3.org/2001/xml-events" xmlns:xlink="http://www.w3.org/1999/xlink">
	<defs/>
	<path d="M 253.0,666.0 L 253.0,667.0" style="stroke:#060106; fill:none;"/>
	<path d="M 177.0,669.0 L 178.0,669.0" style="stroke:#060106; fill:none;"/>
	<path d="M 191.0,673.0 L 192.0,673.0" style="stroke:#060106; fill:none;"/>
	<path d="M 251.0,674.0 L 250.0,675.0" style="stroke:#060106; fill:none;"/>
	<path d="M 152.0,680.0 L 145.0,693.0" style="stroke:#060106; fill:none;"/>
	<path d="M 248.0,681.0 L 249.0,681.0" style="stroke:#060106; fill:none;"/>
	<path d="M 202.0,683.0 L 203.0,683.0" style="stroke:#060106; fill:none;"/>
	<path d="M 246.0,687.0 L 248.0,686.0" style="stroke:#060106; fill:none;"/>
	<path d="M 202.0,687.0 L 203.0,689.0" style="stroke:#060106; fill:none;"/>
	<path d="M 205.0,696.0 L 205.0,697.0" style="stroke:#060106; fill:none;"/>
	<path d="M 403.0,701.0 L 404.0,701.0" style="stroke:#060106; fill:none;"/>
	<path d="M 386.0,702.0 L 385.0,704.0" style="stroke:#060106; fill:none;"/>
	<path d="M 382.0,703.0 L 383.0,703.0" style="stroke:#060106; fill:none;"/>
	<path d="M 410.0,703.0 L 411.0,704.0" style="stroke:#060106; fill:none;"/>
	<path d="M 164.0,704.0 L 164.0,705.0" style="stroke:#060106; fill:none;"/>
	<path d="M 373.0,704.0 L 376.0,704.0" style="stroke:#060106; fill:none;"/>
	<path d="M 396.0,704.0 L 397.0,707.0" style="stroke:#060106; fill:none;"/>
	<path d="M 418.0,704.0 L 418.0,705.0" style="stroke:#060106; fill:none;"/>
	<path d="M 157.0,705.0 L 158.0,705.0" style="stroke:#060106; fill:none;"/>
	<path d="M 167.0,706.0 L 172.0,711.0" style="stroke:#060106; fill:none;"/>
	<path d="M 432.0,708.0 L 432.0,709.0" style="stroke:#060106; fill:none;"/>
	<path d="M 155.0,709.0 L 155.0,710.0" style="stroke:#060106; fill:none;"/>
	<path d="M 164.0,709.0 L 165.0,714.0" style="stroke:#060106; fill:none;"/>
	<path d="M 364.0,709.0 L 365.0,709.0" style="stroke:#060106; fill:none;"/>
	<path d="M 439.0,710.0 L 445.0,711.0" style="stroke:#060106; fill:none;"/>
	<path d="M 356.0,711.0 L 357.0,711.0" style="stroke:#060106; fill:none;"/>
	<path d="M 447.0,711.0 L 449.0,712.0" style="stroke:#060106; fill:none;"/>
	<path d="M 155.0,712.0 L 155.0,716.0" style="stroke:#060106; fill:none;"/>
	<path d="M 176.0,712.0 L 180.0,714.0" style="stroke:#060106; fill:none;"/>
	<path d="M 349.0,713.0 L 348.0,715.0" style="stroke:#060106; fill:none;"/>
	<path d="M 399.0,713.0 L 399.0,714.0" style="stroke:#060106; fill:none;"/>
	<path d="M 407.0,714.0 L 409.0,713.0" style="stroke:#060106; fill:none;"/>
	<path d="M 411.0,714.0 L 413.0,713.0" style="stroke:#060106; fill:none;"/>
	<path d="M 402.0,714.0 L 404.0,714.0" style="stroke:#060106; fill:none;"/>
	<path d="M 433.0,714.0 L 434.0,714.0" style="stroke:#060106; fill:none;"/>
	<path d="M 453.0,714.0 L 454.0,714.0" style="stroke:#060106; fill:none;"/>
	<path d="M 183.0,716.0 L 189.0,722.0" style="stroke:#060106; fill:none;"/>
	<path d="M 437.0,717.0 L 441.0,716.0" style="stroke:#060106; fill:none;"/>
	<path d="M 165.0,717.0 L 165.0,722.0" style="stroke:#060106; fill:none;"/>
	<path d="M 343.0,717.0 L 343.0,718.0" style="stroke:#060106; fill:none;"/>
	<path d="M 369.0,717.0 L 369.0,718.0" style="stroke:#060106; fill:none;"/>
	<path d="M 384.0,717.0 L 382.0,719.0" style="stroke:#060106; fill:none;"/>
	<path d="M 460.0,717.0 L 461.0,717.0" style="stroke:#060106; fill:none;"/>
	<path d="M 444.0,718.0 L 449.0,720.0" style="stroke:#060106; fill:none;"/>
	<path d="M 466.0,719.0 L 467.0,719.0" style="stroke:#060106; fill:none;"/>
	<path d="M 154.0,720.0 L 155.0,720.0" style="stroke:#060106; fill:none;"/>
	<path d="M 398.0,720.0 L 397.0,723.0" style="stroke:#060106; fill:none;"/>
	<path d="M 379.0,721.0 L 379.0,722.0" style="stroke:#060106; fill:none;"/>
	<path d="M 471.0,721.0 L 475.0,725.0" style="stroke:#060106; fill:none;"/>
	<path d="M 372.0,725.0 L 374.0,723.0" style="stroke:#060106; fill:none;"/>
	<path d="M 447.0,723.0 L 448.0,723.0" style="stroke:#060106; fill:none;"/>
	<path d="M 367.0,724.0 L 368.0,726.0" style="stroke:#060106; fill:none;"/>
	<path d="M 166.0,725.0 L 165.0,726.0" style="stroke:#060106; fill:none;"/>
	<path d="M 456.0,725.0 L 459.0,727.0" style="stroke:#060106; fill:none;"/>
	<path d="M 420.0,726.0 L 419.0,728.0" style="stroke:#060106; fill:none;"/>
	<path d="M 423.0,727.0 L 429.0,727.0" style="stroke:#060106; fill:none;"/>
	<path d="M 396.0,727.0 C 395.147,733.754 395.695,737.934 399.0,744.0" style="stroke:#060106; fill:none;"/>
	<path d="M 167.0,728.0 L 165.0,729.0" style="stroke:#060106; fill:none;"/>
	<path d="M 196.0,728.0 L 198.0,729.0" style="stroke:#060106; fill:none;"/>
	<path d="M 461.0,728.0 L 464.0,730.0" style="stroke:#060106; fill:none;"/>
	<path d="M 477.0,728.0 L 484.0,735.0" style="stroke:#060106; fill:none;"/>
	<path d="M 363.0,730.0 L 364.0,732.0" style="stroke:#060106; fill:none;"/>
	<path d="M 434.0,730.0 L 435.0,731.0" style="stroke:#060106; fill:none;"/>
	<path d="M 452.0,732.0 L 452.0,740.0" style="stroke:#060106; fill:none;"/>
	<path d="M 468.0,733.0 L 477.0,746.0" style="stroke:#060106; fill:none;"/>
	<path d="M 368.0,734.0 L 368.0,735.0" style="stroke:#060106; fill:none;"/>
	<path d="M 418.0,735.0 L 418.0,736.0" style="stroke:#060106; fill:none;"/>
	<path d="M 486.0,736.0 L 487.0,737.0" style="stroke:#060106; fill:none;"/>
	<path d="M 233.0,737.0 L 234.0,737.0" style="stroke:#060106; fill:none;"/>
	<path d="M 373.0,738.0 L 374.0,738.0" style="stroke:#060106; fill:none;"/>
	<path d="M 378.0,740.0 L 383.0,742.0" style="stroke:#060106; fill:none;"/>
	<path d="M 432.0,740.0 L 432.0,741.0" style="stroke:#060106; fill:none;"/>
	<path d="M 493.0,740.0 L 493.0,741.0" style="stroke:#060106; fill:none;"/>
	<path d="M 167.0,741.0 L 169.0,745.0" style="stroke:#060106; fill:none;"/>
	<path d="M 233.0,741.0 L 232.0,742.0" style="stroke:#060106; fill:none;"/>
	<path d="M 422.0,742.0 L 427.0,743.0" style="stroke:#060106; fill:none;"/>
	<path d="M 494.0,743.0 L 494.0,744.0" style="stroke:#060106; fill:none;"/>
	<path d="M 387.0,745.0 L 390.0,745.0" style="stroke:#060106; fill:none;"/>
	<path d="M 203.0,747.0 L 204.0,749.0" style="stroke:#060106; fill:none;"/>
	<path d="M 168.0,748.0 L 168.0,750.0" style="stroke:#060106; fill:none;"/>
	<path d="M 232.0,748.0 L 232.0,749.0" style="stroke:#060106; fill:none;"/>
	<path d="M 394.0,748.0 L 403.0,751.0" style="stroke:#060106; fill:none;"/>
	<path d="M 450.0,749.0 L 450.0,751.0" style="stroke:#060106; fill:none;"/>
	<path d="M 479.0,749.0 L 486.0,756.0" style="stroke:#060106; fill:none;"/>
	<path d="M 476.0,751.0 L 476.0,752.0" style="stroke:#060106; fill:none;"/>
	<path d="M 168.0,753.0 L 169.0,753.0" style="stroke:#060106; fill:none;"/>
	<path d="M 229.0,753.0 L 230.0,753.0" style="stroke:#060106; fill:none;"/>
	<path d="M 410.0,754.0 L 413.0,754.0" style="stroke:#060106; fill:none;"/>
	<path d="M 477.0,754.0 L 477.0,755.0" style="stroke:#060106; fill:none;"/>
	<path d="M 444.0,756.0 L 446.0,756.0" style="stroke:#060106; fill:none;"/>
	<path d="M 417.0,757.0 L 416.0,758.0" style="stroke:#060106; fill:none;"/>
	<path d="M 420.0,757.0 L 420.0,758.0" style="stroke:#060106; fill:none;"/>
	<path d="M 169.0,759.0 L 168.0,765.0" style="stroke:#060106; fill:none;"/>
	<path d="M 424.0,759.0 L 428.0,760.0" style="stroke:#060106; fill:none;"/>
	<path d="M 431.0,760.0 L 432.0,761.0" style="stroke:#060106; fill:none;"/>
	<path d="M 488.0,760.0 L 491.0,763.0" style="stroke:#060106; fill:none;"/>
	<path d="M 227.0,761.0 L 227.0,762.0" style="stroke:#060106; fill:none;"/>
	<path d="M 442.0,762.0 L 449.0,762.0" style="stroke:#060106; fill:none;"/>
	<path d="M 452.0,763.0 L 454.0,763.0" style="stroke:#060106; fill:none;"/>
	<path d="M 457.0,762.0 L 459.0,763.0" style="stroke:#060106; fill:none;"/>
	<path d="M 466.0,763.0 L 470.0,763.0" style="stroke:#060106; fill:none;"/>
	<path d="M 473.0,765.0 L 474.0,765.0" style="stroke:#060106; fill:none;"/>
	<path d="M 476.0,766.0 L 479.0,769.0" style="stroke:#060106; fill:none;"/>
	<path d="M 226.0,768.0 L 227.0,768.0" style="stroke:#060106; fill:none;"/>
	<path d="M 493.0,769.0 L 495.0,768.0" style="stroke:#060106; fill:none;"/>
	<path d="M 481.0,770.0 L 482.0,770.0" style="stroke:#060106; fill:none;"/>
	<path d="M 484.0,770.0 L 487.0,771.0" style="stroke:#060106; fill:none;"/>
	<path d="M 489.0,772.0 L 491.0,772.0" style="stroke:#060106; fill:none;"/>
	<path d="M 495.0,772.0 L 496.0,772.0" style="stroke:#060106; fill:none;"/>
	<path d="M 224.0,773.0 L 225.0,773.0" style="stroke:#060106; fill:none;"/>
	<path d="M 223.0,775.0 L 225.0,775.0" style="stroke:#060106; fill:none;"/>
	<path d="M 740.0,775.0 L 741.0,777.0" style="stroke:#060106; fill:none;"/>
	<path d="M 224.0,777.0 L 223.0,779.0" style="stroke:#060106; fill:none;"/>
	<path d="M 727.0,777.0 L 729.0,777.0" style="stroke:#060106; fill:none;"/>
	<path d="M 735.0,777.0 L 738.0,778.0" style="stroke:#060106; fill:none;"/>
	<path d="M 751.0,777.0 L 752.0,777.0" style="stroke:#060106; fill:none;"/>
	<path d="M 717.0,778.0 L 717.0,779.0" style="stroke:#060106; fill:none;"/>
	<path d="M 767.0,779.0 L 770.0,780.0" style="stroke:#060106; fill:none;"/>
	<path d="M 204.0,781.0 L 204.0,782.0" style="stroke:#060106; fill:none;"/>
	<path d="M 705.0,781.0 L 705.0,782.0" style="stroke:#060106; fill:none;"/>
	<path d="M 776.0,781.0 L 777.0,781.0" style="stroke:#060106; fill:none;"/>
	<path d="M 781.0,781.0 L 791.0,785.0" style="stroke:#060106; fill:none;"/>
	<path d="M 222.0,782.0 L 221.0,786.0" style="stroke:#060106; fill:none;"/>
	<path d="M 803.0,782.0 L 804.0,782.0" style="stroke:#060106; fill:none;"/>
	<path d="M 702.0,783.0 L 702.0,784.0" style="stroke:#060106; fill:none;"/>
	<path d="M 795.0,784.0 L 801.0,788.0" style="stroke:#060106; fill:none;"/>
	<path d="M 730.0,785.0 L 730.0,786.0" style="stroke:#060106; fill:none;"/>
	<path d="M 694.0,786.0 L 693.0,787.0" style="stroke:#060106; fill:none;"/>
	<path d="M 800.0,787.0 L 798.0,789.0" style="stroke:#060106; fill:none;"/>
	<path d="M 209.0,788.0 L 209.0,790.0" style="stroke:#060106; fill:none;"/>
	<path d="M 220.0,789.0 L 220.0,790.0" style="stroke:#060106; fill:none;"/>
	<path d="M 805.0,790.0 L 810.0,792.0" style="stroke:#060106; fill:none;"/>
	<path d="M 151.0,791.0 L 151.0,793.0" style="stroke:#060106; fill:none;"/>
	<path d="M 220.0,792.0 L 220.0,794.0" style="stroke:#060106; fill:none;"/>
	<path d="M 741.0,793.0 L 743.0,793.0" style="stroke:#060106; fill:none;"/>
	<path d="M 798.0,792.0 L 797.0,797.0" style="stroke:#060106; fill:none;"/>
	<path d="M 736.0,793.0 L 738.0,793.0" style="stroke:#060106; fill:none;"/>
	<path d="M 747.0,793.0 L 747.0,794.0" style="stroke:#060106; fill:none;"/>
	<path d="M 813.0,794.0 L 817.0,797.0" style="stroke:#060106; fill:none;"/>
	<path d="M 187.0,795.0 L 187.0,797.0" style="stroke:#060106; fill:none;"/>
	<path d="M 725.0,795.0 L 726.0,795.0" style="stroke:#060106; fill:none;"/>
	<path d="M 759.0,795.0 L 760.0,795.0" style="stroke:#060106; fill:none;"/>
	<path d="M 151.0,796.0 L 152.0,796.0" style="stroke:#060106; fill:none;"/>
	<path d="M 219.0,796.0 L 219.0,800.0" style="stroke:#060106; fill:none;"/>
	<path d="M 715.0,798.0 L 718.0,797.0" style="stroke:#060106; fill:none;"/>
	<path d="M 712.0,798.0 L 709.0,801.0" style="stroke:#060106; fill:none;"/>
	<path d="M 770.0,798.0 L 771.0,798.0" style="stroke:#060106; fill:none;"/>
	<path d="M 733.0,799.0 L 731.0,805.0" style="stroke:#060106; fill:none;"/>
	<path d="M 776.0,799.0 L 777.0,799.0" style="stroke:#060106; fill:none;"/>
	<path d="M 183.0,800.0 L 184.0,801.0" style="stroke:#060106; fill:none;"/>
	<path d="M 781.0,800.0 L 782.0,801.0" style="stroke:#060106; fill:none;"/>
	<path d="M 820.0,800.0 L 821.0,801.0" style="stroke:#060106; fill:none;"/>
	<path d="M 208.0,802.0 L 209.0,803.0" style="stroke:#060106; fill:none;"/>
	<path d="M 755.0,802.0 L 756.0,803.0" style="stroke:#060106; fill:none;"/>
	<path d="M 796.0,802.0 L 797.0,802.0" style="stroke:#060106; fill:none;"/>
	<path d="M 700.0,805.0 L 703.0,803.0" style="stroke:#060106; fill:none;"/>
	<path d="M 759.0,803.0 L 759.0,804.0" style="stroke:#060106; fill:none;"/>
	<path d="M 785.0,803.0 L 787.0,805.0" style="stroke:#060106; fill:none;"/>
	<path d="M 823.0,804.0 L 824.0,804.0" style="stroke:#060106; fill:none;"/>
	<path d="M 761.0,805.0 L 764.0,807.0" style="stroke:#060106; fill:none;"/>
	<path d="M 217.0,806.0 L 217.0,807.0" style="stroke:#060106; fill:none;"/>
	<path d="M 696.0,806.0 L 694.0,807.0" style="stroke:#060106; fill:none;"/>
	<path d="M 751.0,806.0 L 748.0,810.0" style="stroke:#060106; fill:none;"/>
	<path d="M 785.0,806.0 L 785.0,807.0" style="stroke:#060106; fill:none;"/>
	<path d="M 825.0,806.0 L 825.0,807.0" style="stroke:#060106; fill:none;"/>
	<path d="M 154.0,807.0 L 155.0,807.0" style="stroke:#060106; fill:none;"/>
	<path d="M 209.0,807.0 L 209.0,808.0" style="stroke:#060106; fill:none;"/>
	<path d="M 212.0,807.0 L 213.0,808.0" style="stroke:#060106; fill:none;"/>
	<path d="M 818.0,808.0 L 819.0,808.0" style="stroke:#060106; fill:none;"/>
	<path d="M 827.0,808.0 L 830.0,813.0" style="stroke:#060106; fill:none;"/>
	<path d="M 815.0,809.0 L 815.0,810.0" style="stroke:#060106; fill:none;"/>
	<path d="M 155.0,810.0 L 155.0,813.0" style="stroke:#060106; fill:none;"/>
	<path d="M 766.0,810.0 L 765.0,815.0" style="stroke:#060106; fill:none;"/>
	<path d="M 216.0,811.0 L 217.0,811.0" style="stroke:#060106; fill:none;"/>
	<path d="M 795.0,811.0 L 795.0,812.0" style="stroke:#060106; fill:none;"/>
	<path d="M 730.0,812.0 L 730.0,816.0" style="stroke:#060106; fill:none;"/>
	<path d="M 788.0,813.0 L 788.0,814.0" style="stroke:#060106; fill:none;"/>
	<path d="M 797.0,813.0 L 798.0,814.0" style="stroke:#060106; fill:none;"/>
	<path d="M 215.0,815.0 L 213.0,818.0" style="stroke:#060106; fill:none;"/>
	<path d="M 749.0,815.0 L 756.0,817.0" style="stroke:#060106; fill:none;"/>
	<path d="M 178.0,816.0 L 179.0,817.0" style="stroke:#060106; fill:none;"/>
	<path d="M 681.0,816.0 L 682.0,816.0" style="stroke:#060106; fill:none;"/>
	<path d="M 685.0,817.0 L 688.0,817.0" style="stroke:#060106; fill:none;"/>
	<path d="M 157.0,817.0 L 158.0,829.0" style="stroke:#060106; fill:none;"/>
	<path d="M 761.0,818.0 L 763.0,817.0" style="stroke:#060106; fill:none;"/>
	<path d="M 788.0,817.0 L 786.0,826.0" style="stroke:#060106; fill:none;"/>
	<path d="M 813.0,817.0 L 813.0,818.0" style="stroke:#060106; fill:none;"/>
	<path d="M 699.0,819.0 L 707.0,819.0" style="stroke:#060106; fill:none;"/>
	<path d="M 801.0,818.0 L 803.0,821.0" style="stroke:#060106; fill:none;"/>
	<path d="M 817.0,818.0 L 817.0,819.0" style="stroke:#060106; fill:none;"/>
	<path d="M 179.0,819.0 L 180.0,819.0" style="stroke:#060106; fill:none;"/>
	<path d="M 713.0,819.0 L 714.0,819.0" style="stroke:#060106; fill:none;"/>
	<path d="M 826.0,819.0 L 826.0,820.0" style="stroke:#060106; fill:none;"/>
	<path d="M 829.0,819.0 L 829.0,820.0" style="stroke:#060106; fill:none;"/>
	<path d="M 836.0,819.0 L 840.0,822.0" style="stroke:#060106; fill:none;"/>
	<path d="M 720.0,821.0 L 727.0,824.0" style="stroke:#060106; fill:none;"/>
	<path d="M 732.0,822.0 L 732.0,823.0" style="stroke:#060106; fill:none;"/>
	<path d="M 818.0,822.0 L 818.0,823.0" style="stroke:#060106; fill:none;"/>
	<path d="M 179.0,823.0 L 180.0,823.0" style="stroke:#060106; fill:none;"/>
	<path d="M 806.0,823.0 L 809.0,828.0" style="stroke:#060106; fill:none;"/>
	<path d="M 731.0,825.0 L 734.0,827.0" style="stroke:#060106; fill:none;"/>
	<path d="M 180.0,826.0 L 181.0,829.0" style="stroke:#060106; fill:none;"/>
	<path d="M 213.0,827.0 L 211.0,833.0" style="stroke:#060106; fill:none;"/>
	<path d="M 738.0,829.0 L 739.0,829.0" style="stroke:#060106; fill:none;"/>
	<path d="M 780.0,830.0 L 784.0,829.0" style="stroke:#060106; fill:none;"/>
	<path d="M 832.0,829.0 L 832.0,830.0" style="stroke:#060106; fill:none;"/>
	<path d="M 741.0,831.0 L 748.0,833.0" style="stroke:#060106; fill:none;"/>
	<path d="M 812.0,830.0 L 812.0,831.0" style="stroke:#060106; fill:none;"/>
	<path d="M 182.0,831.0 L 183.0,831.0" style="stroke:#060106; fill:none;"/>
	<path d="M 778.0,831.0 L 778.0,833.0" style="stroke:#060106; fill:none;"/>
	<path d="M 754.0,833.0 L 754.0,834.0" style="stroke:#060106; fill:none;"/>
	<path d="M 775.0,833.0 L 774.0,834.0" style="stroke:#060106; fill:none;"/>
	<path d="M 772.0,834.0 L 770.0,835.0" style="stroke:#060106; fill:none;"/>
	<path d="M 186.0,835.0 L 187.0,836.0" style="stroke:#060106; fill:none;"/>
	<path d="M 833.0,836.0 L 835.0,837.0" style="stroke:#060106; fill:none;"/>
	<path d="M 799.0,838.0 L 809.0,837.0" style="stroke:#060106; fill:none;"/>
	<path d="M 775.0,839.0 L 779.0,839.0" style="stroke:#060106; fill:none;"/>
	<path d="M 782.0,839.0 L 790.0,839.0" style="stroke:#060106; fill:none;"/>
	<path d="M 834.0,840.0 L 835.0,840.0" style="stroke:#060106; fill:none;"/>
	<path d="M 845.0,842.0 L 846.0,842.0" style="stroke:#060106; fill:none;"/>
	<path d="M 849.0,842.0 L 851.0,842.0" style="stroke:#060106; fill:none;"/>
	<path d="M 208.0,845.0 L 208.0,848.0" style="stroke:#060106; fill:none;"/>
	<path d="M 819.0,845.0 L 820.0,845.0" style="stroke:#060106; fill:none;"/>
	<path d="M 837.0,845.0 L 838.0,845.0" style="stroke:#060106; fill:none;"/>
	<path d="M 809.0,846.0 L 811.0,847.0" style="stroke:#060106; fill:none;"/>
	<path d="M 161.0,848.0 L 162.0,851.0" style="stroke:#060106; fill:none;"/>
	<path d="M 786.0,848.0 L 787.0,849.0" style="stroke:#060106; fill:none;"/>
	<path d="M 821.0,848.0 L 822.0,848.0" style="stroke:#060106; fill:none;"/>
	<path d="M 825.0,852.0 L 826.0,853.0" style="stroke:#060106; fill:none;"/>
	<path d="M 1000.0,857.0 L 1001.0,857.0" style="stroke:#060106; fill:none;"/>
	<path d="M 1007.0,858.0 L 1007.0,859.0" style="stroke:#060106; fill:none;"/>
	<path d="M 163.0,860.0 L 164.0,865.0" style="stroke:#060106; fill:none;"/>
	<path d="M 1016.0,861.0 L 1021.0,864.0" style="stroke:#060106; fill:none;"/>
	<path d="M 990.0,868.0 L 990.0,869.0" style="stroke:#060106; fill:none;"/>
	<path d="M 1026.0,869.0 L 1028.0,874.0" style="stroke:#060106; fill:none;"/>
	<path d="M 166.0,876.0 L 165.0,877.0" style="stroke:#060106; fill:none;"/>
	<path d="M 167.0,880.0 L 169.0,883.0" style="stroke:#060106; fill:none;"/>
	<path d="M 204.0,880.0 L 205.0,880.0" style="stroke:#060106; fill:none;"/>
	<path d="M 984.0,882.0 L 984.0,883.0" style="stroke:#060106; fill:none;"/>
	<path d="M 981.0,887.0 L 978.0,894.0" style="stroke:#060106; fill:none;"/>
	<path d="M 204.0,888.0 L 203.0,889.0" style="stroke:#060106; fill:none;"/>
	<path d="M 172.0,891.0 L 177.0,904.0" style="stroke:#060106; fill:none;"/>
	<path d="M 988.0,894.0 L 997.0,891.0" style="stroke:#060106; fill:none;"/>
	<path d="M 1027.0,891.0 L 1027.0,892.0" style="stroke:#060106; fill:none;"/>
	<path d="M 202.0,894.0 L 200.0,898.0" style="stroke:#060106; fill:none;"/>
	<path d="M 977.0,896.0 L 978.0,896.0" style="stroke:#060106; fill:none;"/>
	<path d="M 1012.0,898.0 L 1012.0,899.0" style="stroke:#060106; fill:none;"/>
	<path d="M 1026.0,898.0 L 1026.0,900.0" style="stroke:#060106; fill:none;"/>
	<path d="M 973.0,904.0 L 973.0,905.0" style="stroke:#060106; fill:none;"/>
	<path d="M 1025.0,904.0 L 1024.0,905.0" style="stroke:#060106; fill:none;"/>
	<path d="M 177.0,906.0 L 178.0,908.0" style="stroke:#060106; fill:none;"/>
	<path d="M 1023.0,907.0 L 1022.0,909.0" style="stroke:#060106; fill:none;"/>
	<path d="M 1009.0,908.0 L 1009.0,911.0" style="stroke:#060106; fill:none;"/>
	<path d="M 178.0,910.0 L 179.0,911.0" style="stroke:#060106; fill:none;"/>
	<path d="M 1006.0,917.0 L 1006.0,918.0" style="stroke:#060106; fill:none;"/>
	<path d="M 963.0,922.0 L 960.0,928.0" style="stroke:#060106; fill:none;"/>
	<path d="M 1017.0,923.0 L 1016.0,925.0" style="stroke:#060106; fill:none;"/>
	<path d="M 195.0,927.0 L 195.0,928.0" style="stroke:#060106; fill:none;"/>
	<path d="M 1000.0,929.0 L 996.0,938.0" style="stroke:#060106; fill:none;"/>
	<path d="M 1014.0,929.0 L 1014.0,930.0" style="stroke:#060106; fill:none;"/>
	<path d="M 187.0,930.0 L 186.0,931.0" style="stroke:#060106; fill:none;"/>
	<path d="M 194.0,931.0 L 193.0,933.0" style="stroke:#060106; fill:none;"/>
	<path d="M 188.0,935.0 L 189.0,939.0" style="stroke:#060106; fill:none;"/>
	<path d="M 1010.0,938.0 L 1008.0,940.0" style="stroke:#060106; fill:none;"/>
	<path d="M 191.0,942.0 L 192.0,946.0" style="stroke:#060106; fill:none;"/>
	<path d="M 442.0,942.0 L 442.0,943.0" style="stroke:#060106; fill:none;"/>
	<path d="M 992.0,944.0 L 992.0,945.0" style="stroke:#060106; fill:none;"/>
	<path d="M 990.0,946.0 L 989.0,950.0" style="stroke:#060106; fill:none;"/>
	<path d="M 443.0,947.0 L 443.0,948.0" style="stroke:#060106; fill:none;"/>
	<path d="M 444.0,950.0 L 444.0,951.0" style="stroke:#060106; fill:none;"/>
	<path d="M 986.0,952.0 L 984.0,953.0" style="stroke:#060106; fill:none;"/>
	<path d="M 1003.0,952.0 L 1001.0,955.0" style="stroke:#060106; fill:none;"/>
	<path d="M 446.0,954.0 L 448.0,958.0" style="stroke:#060106; fill:none;"/>
	<path d="M 190.0,956.0 L 190.0,957.0" style="stroke:#060106; fill:none;"/>
	<path d="M 984.0,956.0 L 984.0,957.0" style="stroke:#060106; fill:none;"/>
	<path d="M 941.0,958.0 L 943.0,962.0" style="stroke:#060106; fill:none;"/>
	<path d="M 980.0,960.0 L 981.0,960.0" style="stroke:#060106; fill:none;"/>
	<path d="M 929.0,962.0 L 928.0,965.0" style="stroke:#060106; fill:none;"/>
	<path d="M 452.0,964.0 L 452.0,965.0" style="stroke:#060106; fill:none;"/>
	<path d="M 945.0,964.0 L 945.0,965.0" style="stroke:#060106; fill:none;"/>
	<path d="M 997.0,964.0 L 996.0,967.0" style="stroke:#060106; fill:none;"/>
	<path d="M 188.0,965.0 L 189.0,965.0" style="stroke:#060106; fill:none;"/>
	<path d="M 661.0,965.0 L 661.0,966.0" style="stroke:#060106; fill:none;"/>
	<path d="M 977.0,965.0 L 977.0,966.0" style="stroke:#060106; fill:none;"/>
	<path d="M 477.0,966.0 L 477.0,967.0" style="stroke:#060106; fill:none;"/>
	<path d="M 485.0,966.0 L 488.0,967.0" style="stroke:#060106; fill:none;"/>
	<path d="M 188.0,969.0 L 189.0,971.0" style="stroke:#060106; fill:none;"/>
	<path d="M 480.0,971.0 L 481.0,971.0" style="stroke:#060106; fill:none;"/>
	<path d="M 947.0,971.0 L 947.0,972.0" style="stroke:#060106; fill:none;"/>
	<path d="M 502.0,976.0 L 504.0,978.0" style="stroke:#060106; fill:none;"/>
	<path d="M 185.0,978.0 L 186.0,978.0" style="stroke:#060106; fill:none;"/>
	<path d="M 948.0,978.0 L 948.0,979.0" style="stroke:#060106; fill:none;"/>
	<path d="M 185.0,981.0 L 185.0,986.0" style="stroke:#060106; fill:none;"/>
	<path d="M 507.0,982.0 L 511.0,986.0" style="stroke:#060106; fill:none;"/>
	<path d="M 916.0,985.0 L 916.0,986.0" style="stroke:#060106; fill:none;"/>
	<path d="M 984.0,987.0 L 985.0,987.0" style="stroke:#060106; fill:none;"/>
	<path d="M 184.0,989.0 L 183.0,992.0" style="stroke:#060106; fill:none;"/>
	<path d="M 915.0,989.0 L 915.0,990.0" style="stroke:#060106; fill:none;"/>
	<path d="M 946.0,989.0 L 943.0,997.0" style="stroke:#060106; fill:none;"/>
	<path d="M 516.0,991.0 L 517.0,991.0" style="stroke:#060106; fill:none;"/>
	<path d="M 520.0,992.0 L 523.0,996.0" style="stroke:#060106; fill:none;"/>
	<path d="M 663.0,994.0 L 663.0,995.0" style="stroke:#060106; fill:none;"/>
	<path d="M 183.0,996.0 L 183.0,998.0 L 183.0,996.0" style="stroke:#060106; fill:none;"/>
	<path d="M 601.0,998.0 L 607.0,1001.0 C 610.48,999.232 614.948,996.852 616.0,1002.0" style="stroke:#060106; fill:none;"/>
	<path d="M 593.0,998.0 L 589.0,1001.0" style="stroke:#060106; fill:none;"/>
	<path d="M 911.0,998.0 L 909.0,1001.0" style="stroke:#060106; fill:none;"/>
	<path d="M 594.0,999.0 L 599.0,999.0" style="stroke:#060106; fill:none;"/>
	<path d="M 938.0,1000.0 L 940.0,999.0" style="stroke:#060106; fill:none;"/>
	<path d="M 936.0,1000.0 L 936.0,1003.0" style="stroke:#060106; fill:none;"/>
	<path d="M 181.0,1001.0 L 184.0,1002.0" style="stroke:#060106; fill:none;"/>
	<path d="M 182.0,1002.0 L 182.0,1006.0" style="stroke:#060106; fill:none;"/>
	<path d="M 586.0,1002.0 L 587.0,1002.0" style="stroke:#060106; fill:none;"/>
	<path d="M 582.0,1003.0 L 580.0,1004.0" style="stroke:#060106; fill:none;"/>
	<path d="M 909.0,1003.0 L 909.0,1004.0" style="stroke:#060106; fill:none;"/>
	<path d="M 653.0,1004.0 L 654.0,1005.0" style="stroke:#060106; fill:none;"/>
	<path d="M 930.0,1006.0 L 933.0,1004.0" style="stroke:#060106; fill:none;"/>
	<path d="M 568.0,1009.0 L 567.0,1010.0" style="stroke:#060106; fill:none;"/>
	<path d="M 640.0,1012.0 L 641.0,1012.0" style="stroke:#060106; fill:none;"/>
	<path d="M 966.0,1012.0 L 967.0,1012.0" style="stroke:#060106; fill:none;"/>
	<path d="M 632.0,1014.0 L 633.0,1014.0" style="stroke:#060106; fill:none;"/>
	<path d="M 904.0,1014.0 L 903.0,1019.0" style="stroke:#060106; fill:none;"/>
	<path d="M 942.0,1015.0 L 943.0,1015.0" style="stroke:#060106; fill:none;"/>
	<path d="M 622.0,1016.0 L 623.0,1016.0" style="stroke:#060106; fill:none;"/>
	<path d="M 180.0,1018.0 L 182.0,1017.0" style="stroke:#060106; fill:none;"/>
	<path d="M 617.0,1017.0 L 618.0,1017.0" style="stroke:#060106; fill:none;"/>
	<path d="M 614.0,1018.0 L 615.0,1018.0" style="stroke:#060106; fill:none;"/>
	<path d="M 609.0,1019.0 L 610.0,1020.0" style="stroke:#060106; fill:none;"/>
	<path d="M 937.0,1021.0 L 937.0,1022.0" style="stroke:#060106; fill:none;"/>
	<path d="M 902.0,1022.0 L 902.0,1023.0" style="stroke:#060106; fill:none;"/>
	<path d="M 180.0,1023.0 L 179.0,1025.0" style="stroke:#060106; fill:none;"/>
	<path d="M 958.0,1026.0 L 958.0,1027.0" style="stroke:#060106; fill:none;"/>
	<path d="M 179.0,1028.0 L 179.0,1029.0" style="stroke:#060106; fill:none;"/>
	<path d="M 930.0,1028.0 L 929.0,1029.0" style="stroke:#060106; fill:none;"/>
	<path d="M 949.0,1039.0 L 949.0,1041.0" style="stroke:#060106; fill:none;"/>
	<path d="M 180.0,1043.0 L 180.0,1044.0" style="stroke:#060106; fill:none;"/>
	<path d="M 302.0,1043.0 L 301.0,1045.0" style="stroke:#060106; fill:none;"/>
	<path d="M 179.0,1047.0 L 179.0,1048.0" style="stroke:#060106; fill:none;"/>
	<path d="M 944.0,1048.0 L 943.0,1049.0" style="stroke:#060106; fill:none;"/>
	<path d="M 890.0,1052.0 L 890.0,1053.0" style="stroke:#060106; fill:none;"/>
	<path d="M 941.0,1052.0 L 930.0,1065.0" style="stroke:#060106; fill:none;"/>
	<path d="M 179.0,1054.0 L 180.0,1054.0" style="stroke:#060106; fill:none;"/>
	<path d="M 180.0,1059.0 L 179.0,1060.0" style="stroke:#060106; fill:none;"/>
	<path d="M 176.0,1068.0 L 176.0,1071.0" style="stroke:#060106; fill:none;"/>
	<path d="M 180.0,1068.0 L 180.0,1069.0" style="stroke:#060106; fill:none;"/>
	<path d="M 176.0,1073.0 L 177.0,1074.0" style="stroke:#060106; fill:none;"/>
	<path d="M 180.0,1073.0 L 181.0,1073.0" style="stroke:#060106; fill:none;"/>
	<path d="M 387.0,1089.0 C 384.617,1085.63 380.38,1080.92 386.0,1079.0" style="stroke:#060106; fill:none;"/>
	<path d="M 390.0,1081.0 L 393.0,1081.0" style="stroke:#060106; fill:none;"/>
	<path d="M 881.0,1082.0 L 880.0,1084.0" style="stroke:#060106; fill:none;"/>
	<path d="M 396.0,1083.0 L 399.0,1085.0" style="stroke:#060106; fill:none;"/>
	<path d="M 401.0,1084.0 L 401.0,1085.0" style="stroke:#060106; fill:none;"/>
	<path d="M 403.0,1084.0 L 404.0,1086.0 L 408.0,1086.0" style="stroke:#060106; fill:none;"/>
	<path d="M 411.0,1085.0 L 411.0,1086.0" style="stroke:#060106; fill:none;"/>
	<path d="M 415.0,1085.0 L 414.0,1086.0" style="stroke:#060106; fill:none;"/>
	<path d="M 431.0,1086.0 L 431.0,1087.0" style="stroke:#060106; fill:none;"/>
	<path d="M 399.0,1087.0 L 400.0,1091.0" style="stroke:#060106; fill:none;"/>
	<path d="M 441.0,1087.0 L 442.0,1088.0" style="stroke:#060106; fill:none;"/>
	<path d="M 451.0,1089.0 L 453.0,1090.0" style="stroke:#060106; fill:none;"/>
	<path d="M 389.0,1091.0 L 391.0,1091.0" style="stroke:#060106; fill:none;"/>
	<path d="M 467.0,1091.0 L 470.0,1092.0" style="stroke:#060106; fill:none;"/>
	<path d="M 473.0,1092.0 L 484.0,1096.0" style="stroke:#060106; fill:none;"/>
	<path d="M 419.0,1094.0 L 419.0,1095.0" style="stroke:#060106; fill:none;"/>
	<path d="M 180.0,1095.0 L 181.0,1099.0" style="stroke:#060106; fill:none;"/>
	<path d="M 394.0,1095.0 L 395.0,1095.0" style="stroke:#060106; fill:none;"/>
	<path d="M 486.0,1096.0 L 487.0,1096.0" style="stroke:#060106; fill:none;"/>
	<path d="M 396.0,1098.0 L 403.0,1108.0" style="stroke:#060106; fill:none;"/>
	<path d="M 496.0,1099.0 L 502.0,1100.0" style="stroke:#060106; fill:none;"/>
	<path d="M 407.0,1101.0 L 409.0,1101.0" style="stroke:#060106; fill:none;"/>
	<path d="M 504.0,1101.0 L 506.0,1102.0" style="stroke:#060106; fill:none;"/>
	<path d="M 509.0,1102.0 L 515.0,1104.0" style="stroke:#060106; fill:none;"/>
	<path d="M 411.0,1104.0 L 413.0,1107.0" style="stroke:#060106; fill:none;"/>
	<path d="M 519.0,1107.0 L 525.0,1107.0" style="stroke:#060106; fill:none;"/>
	<path d="M 446.0,1107.0 L 448.0,1110.0" style="stroke:#060106; fill:none;"/>
	<path d="M 527.0,1108.0 L 527.0,1109.0" style="stroke:#060106; fill:none;"/>
	<path d="M 529.0,1108.0 L 529.0,1109.0" style="stroke:#060106; fill:none;"/>
	<path d="M 536.0,1109.0 L 537.0,1110.0" style="stroke:#060106; fill:none;"/>
	<path d="M 417.0,1112.0 L 421.0,1114.0" style="stroke:#060106; fill:none;"/>
	<path d="M 441.0,1112.0 L 443.0,1112.0" style="stroke:#060106; fill:none;"/>
	<path d="M 550.0,1112.0 L 551.0,1112.0" style="stroke:#060106; fill:none;"/>
	<path d="M 187.0,1114.0 L 187.0,1115.0" style="stroke:#060106; fill:none;"/>
	<path d="M 558.0,1114.0 L 568.0,1118.0" style="stroke:#060106; fill:none;"/>
	<path d="M 419.0,1117.0 L 420.0,1118.0" style="stroke:#060106; fill:none;"/>
	<path d="M 449.0,1117.0 L 449.0,1118.0" style="stroke:#060106; fill:none;"/>
	<path d="M 523.0,1117.0 L 522.0,1118.0" style="stroke:#060106; fill:none;"/>
	<path d="M 187.0,1118.0 L 188.0,1120.0" style="stroke:#060106; fill:none;"/>
	<path d="M 570.0,1118.0 L 570.0,1119.0" style="stroke:#060106; fill:none;"/>
	<path d="M 436.0,1119.0 L 434.0,1121.0" style="stroke:#060106; fill:none;"/>
	<path d="M 572.0,1119.0 L 574.0,1120.0" style="stroke:#060106; fill:none;"/>
	<path d="M 869.0,1119.0 L 869.0,1122.0" style="stroke:#060106; fill:none;"/>
	<path d="M 522.0,1121.0 L 522.0,1123.0" style="stroke:#060106; fill:none;"/>
	<path d="M 577.0,1121.0 L 578.0,1121.0" style="stroke:#060106; fill:none;"/>
	<path d="M 190.0,1122.0 L 190.0,1124.0" style="stroke:#060106; fill:none;"/>
	<path d="M 451.0,1122.0 L 452.0,1123.0" style="stroke:#060106; fill:none;"/>
	<path d="M 584.0,1123.0 L 585.0,1123.0" style="stroke:#060106; fill:none;"/>
	<path d="M 455.0,1124.0 L 455.0,1125.0" style="stroke:#060106; fill:none;"/>
	<path d="M 587.0,1124.0 L 588.0,1125.0" style="stroke:#060106; fill:none;"/>
	<path d="M 866.0,1125.0 L 868.0,1127.0" style="stroke:#060106; fill:none;"/>
	<path d="M 434.0,1126.0 L 436.0,1128.0" style="stroke:#060106; fill:none;"/>
	<path d="M 590.0,1127.0 L 592.0,1126.0" style="stroke:#060106; fill:none;"/>
	<path d="M 457.0,1127.0 L 459.0,1128.0" style="stroke:#060106; fill:none;"/>
	<path d="M 477.0,1129.0 L 477.0,1132.0" style="stroke:#060106; fill:none;"/>
	<path d="M 597.0,1129.0 L 598.0,1129.0" style="stroke:#060106; fill:none;"/>
	<path d="M 439.0,1130.0 L 441.0,1131.0" style="stroke:#060106; fill:none;"/>
	<path d="M 462.0,1131.0 L 465.0,1131.0" style="stroke:#060106; fill:none;"/>
	<path d="M 475.0,1130.0 L 476.0,1130.0" style="stroke:#060106; fill:none;"/>
	<path d="M 600.0,1130.0 L 601.0,1130.0" style="stroke:#060106; fill:none;"/>
	<path d="M 469.0,1131.0 L 470.0,1132.0" style="stroke:#060106; fill:none;"/>
	<path d="M 604.0,1131.0 L 607.0,1132.0" style="stroke:#060106; fill:none;"/>
	<path d="M 729.0,1131.0 L 729.0,1133.0" style="stroke:#060106; fill:none;"/>
	<path d="M 193.0,1132.0 L 195.0,1134.0" style="stroke:#060106; fill:none;"/>
	<path d="M 447.0,1134.0 L 448.0,1134.0" style="stroke:#060106; fill:none;"/>
	<path d="M 479.0,1134.0 L 483.0,1137.0" style="stroke:#060106; fill:none;"/>
	<path d="M 865.0,1134.0 L 866.0,1134.0" style="stroke:#060106; fill:none;"/>
	<path d="M 612.0,1135.0 L 613.0,1135.0" style="stroke:#060106; fill:none;"/>
	<path d="M 453.0,1136.0 L 457.0,1137.0" style="stroke:#060106; fill:none;"/>
	<path d="M 585.0,1137.0 L 586.0,1139.0" style="stroke:#060106; fill:none;"/>
	<path d="M 459.0,1138.0 L 461.0,1139.0" style="stroke:#060106; fill:none;"/>
	<path d="M 485.0,1138.0 L 486.0,1139.0" style="stroke:#060106; fill:none;"/>
	<path d="M 489.0,1138.0 L 490.0,1139.0" style="stroke:#060106; fill:none;"/>
	<path d="M 624.0,1138.0 L 625.0,1138.0" style="stroke:#060106; fill:none;"/>
	<path d="M 196.0,1139.0 L 197.0,1139.0" style="stroke:#060106; fill:none;"/>
	<path d="M 520.0,1139.0 L 521.0,1144.0" style="stroke:#060106; fill:none;"/>
	<path d="M 628.0,1142.0 L 634.0,1140.0" style="stroke:#060106; fill:none;"/>
	<path d="M 684.0,1139.0 L 683.0,1140.0" style="stroke:#060106; fill:none;"/>
	<path d="M 465.0,1140.0 L 465.0,1141.0" style="stroke:#060106; fill:none;"/>
	<path d="M 495.0,1140.0 L 497.0,1140.0" style="stroke:#060106; fill:none;"/>
	<path d="M 667.0,1142.0 L 672.0,1143.0 L 665.0,1148.0" style="stroke:#060106; fill:none;"/>
	<path d="M 673.0,1141.0 L 672.0,1142.0" style="stroke:#060106; fill:none;"/>
	<path d="M 198.0,1142.0 L 200.0,1147.0" style="stroke:#060106; fill:none;"/>
	<path d="M 641.0,1142.0 L 646.0,1143.0" style="stroke:#060106; fill:none;"/>
	<path d="M 651.0,1142.0 L 654.0,1143.0" style="stroke:#060106; fill:none;"/>
	<path d="M 474.0,1143.0 L 477.0,1143.0" style="stroke:#060106; fill:none;"/>
	<path d="M 511.0,1144.0 L 513.0,1144.0" style="stroke:#060106; fill:none;"/>
	<path d="M 478.0,1145.0 L 480.0,1145.0" style="stroke:#060106; fill:none;"/>
	<path d="M 562.0,1146.0 L 564.0,1145.0" style="stroke:#060106; fill:none;"/>
	<path d="M 588.0,1145.0 L 590.0,1147.0" style="stroke:#060106; fill:none;"/>
	<path d="M 625.0,1145.0 L 626.0,1145.0" style="stroke:#060106; fill:none;"/>
	<path d="M 861.0,1147.0 L 863.0,1145.0" style="stroke:#060106; fill:none;"/>
	<path d="M 484.0,1146.0 L 487.0,1147.0" style="stroke:#060106; fill:none;"/>
	<path d="M 577.0,1146.0 L 577.0,1148.0" style="stroke:#060106; fill:none;"/>
	<path d="M 523.0,1147.0 L 528.0,1150.0" style="stroke:#060106; fill:none;"/>
	<path d="M 492.0,1149.0 L 496.0,1150.0" style="stroke:#060106; fill:none;"/>
	<path d="M 574.0,1149.0 L 573.0,1151.0" style="stroke:#060106; fill:none;"/>
	<path d="M 861.0,1149.0 L 861.0,1151.0" style="stroke:#060106; fill:none;"/>
	<path d="M 559.0,1150.0 L 559.0,1151.0" style="stroke:#060106; fill:none;"/>
	<path d="M 616.0,1150.0 L 619.0,1150.0" style="stroke:#060106; fill:none;"/>
	<path d="M 649.0,1152.0 L 651.0,1150.0" style="stroke:#060106; fill:none;"/>
	<path d="M 500.0,1152.0 L 502.0,1151.0" style="stroke:#060106; fill:none;"/>
	<path d="M 537.0,1151.0 L 539.0,1152.0" style="stroke:#060106; fill:none;"/>
	<path d="M 552.0,1152.0 L 554.0,1151.0" style="stroke:#060106; fill:none;"/>
	<path d="M 612.0,1151.0 C 609.489,1154.05 607.497,1157.51 613.0,1157.0 L 613.0,1157.0" style="stroke:#060106; fill:none;"/>
	<path d="M 659.0,1151.0 L 658.0,1152.0" style="stroke:#060106; fill:none;"/>
	<path d="M 505.0,1152.0 L 508.0,1153.0" style="stroke:#060106; fill:none;"/>
	<path d="M 562.0,1152.0 L 566.0,1153.0" style="stroke:#060106; fill:none;"/>
	<path d="M 569.0,1152.0 L 571.0,1152.0" style="stroke:#060106; fill:none;"/>
	<path d="M 592.0,1152.0 L 593.0,1154.0" style="stroke:#060106; fill:none;"/>
	<path d="M 654.0,1152.0 L 654.0,1153.0" style="stroke:#060106; fill:none;"/>
	<path d="M 642.0,1154.0 L 646.0,1153.0" style="stroke:#060106; fill:none;"/>
	<path d="M 513.0,1154.0 L 515.0,1154.0" style="stroke:#060106; fill:none;"/>
	<path d="M 524.0,1155.0 L 525.0,1155.0" style="stroke:#060106; fill:none;"/>
	<path d="M 639.0,1155.0 L 638.0,1156.0" style="stroke:#060106; fill:none;"/>
	<path d="M 530.0,1156.0 L 533.0,1157.0" style="stroke:#060106; fill:none;"/>
	<path d="M 606.0,1156.0 L 607.0,1158.0" style="stroke:#060106; fill:none;"/>
	<path d="M 627.0,1156.0 L 628.0,1156.0" style="stroke:#060106; fill:none;"/>
	<path d="M 620.0,1157.0 L 622.0,1158.0" style="stroke:#060106; fill:none;"/>
	<path d="M 536.0,1158.0 L 546.0,1160.0" style="stroke:#060106; fill:none;"/>
	<path d="M 590.0,1159.0 L 598.0,1159.0" style="stroke:#060106; fill:none;"/>
	<path d="M 557.0,1159.0 L 552.0,1160.0" style="stroke:#060106; fill:none;"/>
	<path d="M 564.0,1159.0 L 564.0,1160.0" style="stroke:#060106; fill:none;"/>
	<path d="M 569.0,1160.0 L 572.0,1161.0" style="stroke:#060106; fill:none;"/>
	<path d="M 575.0,1161.0 L 577.0,1160.0" style="stroke:#060106; fill:none;"/>
	<path d="M 857.0,1163.0 L 857.0,1164.0" style="stroke:#060106; fill:none;"/>
	<path d="M 857.0,1166.0 L 857.0,1167.0" style="stroke:#060106; fill:none;"/>
	<path d="M 214.0,1169.0 L 214.0,1170.0" style="stroke:#060106; fill:none;"/>
	<path d="M 855.0,1170.0 L 855.0,1171.0" style="stroke:#060106; fill:none;"/>
	<path d="M 217.0,1174.0 L 217.0,1175.0" style="stroke:#060106; fill:none;"/>
	<path d="M 850.0,1178.0 L 850.0,1179.0" style="stroke:#060106; fill:none;"/>
	<path d="M 221.0,1180.0 L 222.0,1181.0" style="stroke:#060106; fill:none;"/>
	<path d="M 223.0,1189.0 L 224.0,1189.0" style="stroke:#060106; fill:none;"/>
	<path d="M 222.0,1198.0 L 222.0,1199.0" style="stroke:#060106; fill:none;"/>
	<path d="M 221.0,1205.0 L 219.0,1214.0" style="stroke:#060106; fill:none;"/>
	<path d="M 217.0,1218.0 L 217.0,1222.0" style="stroke:#060106; fill:none;"/>
	<path d="M 215.0,1230.0 L 215.0,1233.0" style="stroke:#060106; fill:none;"/>
	<path d="M 822.0,1232.0 L 820.0,1237.0" style="stroke:#060106; fill:none;"/>
	<path d="M 818.0,1240.0 L 817.0,1242.0" style="stroke:#060106; fill:none;"/>
	<path d="M 209.0,1249.0 L 212.0,1248.0" style="stroke:#060106; fill:none;"/>
	<path d="M 205.0,1250.0 L 206.0,1250.0" style="stroke:#060106; fill:none;"/>
	<path d="M 210.0,1253.0 L 207.0,1265.0" style="stroke:#060106; fill:none;"/>
	<path d="M 808.0,1254.0 L 804.0,1257.0" style="stroke:#060106; fill:none;"/>
	<path d="M 300.0,1266.0 L 299.0,1267.0" style="stroke:#060106; fill:none;"/>
	<path d="M 789.0,1269.0 L 788.0,1270.0" style="stroke:#060106; fill:none;"/>
	<path d="M 782.0,1277.0 L 779.0,1279.0" style="stroke:#060106; fill:none;"/>
	<path d="M 204.0,1279.0 L 201.0,1285.0" style="stroke:#060106; fill:none;"/>
	<path d="M 769.0,1288.0 L 769.0,1290.0" style="stroke:#060106; fill:none;"/>
	<path d="M 202.0,1289.0 L 202.0,1290.0" style="stroke:#060106; fill:none;"/>
	<path d="M 768.0,1293.0 L 767.0,1294.0" style="stroke:#060106; fill:none;"/>
	<path d="M 200.0,1295.0 L 199.0,1299.0" style="stroke:#060106; fill:none;"/>
	<path d="M 749.0,1302.0 L 750.0,1302.0" style="stroke:#060106; fill:none;"/>
	<path d="M 746.0,1305.0 L 747.0,1305.0" style="stroke:#060106; fill:none;"/>
	<path d="M 198.0,1309.0 L 197.0,1311.0" style="stroke:#060106; fill:none;"/>
	<path d="M 734.0,1314.0 L 739.0,1311.0" style="stroke:#060106; fill:none;"/>
	<path d="M 762.0,1312.0 L 760.0,1313.0" style="stroke:#060106; fill:none;"/>
	<path d="M 346.0,1314.0 L 346.0,1315.0" style="stroke:#060106; fill:none;"/>
	<path d="M 761.0,1315.0 L 760.0,1318.0" style="stroke:#060106; fill:none;"/>
	<path d="M 195.0,1320.0 L 196.0,1320.0" style="stroke:#060106; fill:none;"/>
	<path d="M 723.0,1320.0 L 720.0,1321.0" style="stroke:#060106; fill:none;"/>
	<path d="M 713.0,1325.0 L 713.0,1326.0" style="stroke:#060106; fill:none;"/>
	<path d="M 758.0,1325.0 L 756.0,1336.0" style="stroke:#060106; fill:none;"/>
	<path d="M 711.0,1326.0 L 711.0,1327.0" style="stroke:#060106; fill:none;"/>
	<path d="M 196.0,1328.0 L 196.0,1332.0" style="stroke:#060106; fill:none;"/>
	<path d="M 197.0,1338.0 L 197.0,1341.0" style="stroke:#060106; fill:none;"/>
	<path d="M 688.0,1339.0 L 687.0,1341.0" style="stroke:#060106; fill:none;"/>
	<path d="M 381.0,1341.0 L 378.0,1342.0" style="stroke:#060106; fill:none;"/>
	<path d="M 198.0,1344.0 L 198.0,1346.0" style="stroke:#060106; fill:none;"/>
	<path d="M 752.0,1346.0 L 754.0,1346.0" style="stroke:#060106; fill:none;"/>
	<path d="M 656.0,1353.0 L 658.0,1352.0" style="stroke:#060106; fill:none;"/>
	<path d="M 199.0,1353.0 L 199.0,1355.0" style="stroke:#060106; fill:none;"/>
	<path d="M 751.0,1358.0 L 751.0,1359.0" style="stroke:#060106; fill:none;"/>
	<path d="M 646.0,1359.0 L 645.0,1360.0" style="stroke:#060106; fill:none;"/>
	<path d="M 641.0,1361.0 L 641.0,1362.0" style="stroke:#060106; fill:none;"/>
	<path d="M 749.0,1363.0 L 747.0,1373.0" style="stroke:#060106; fill:none;"/>
	<path d="M 636.0,1364.0 L 636.0,1365.0" style="stroke:#060106; fill:none;"/>
	<path d="M 631.0,1366.0 L 628.0,1368.0" style="stroke:#060106; fill:none;"/>
	<path d="M 621.0,1370.0 L 624.0,1370.0" style="stroke:#060106; fill:none;"/>
	<path d="M 618.0,1370.0 L 615.0,1372.0" style="stroke:#060106; fill:none;"/>
	<path d="M 205.0,1374.0 L 206.0,1377.0" style="stroke:#060106; fill:none;"/>
	<path d="M 606.0,1375.0 L 607.0,1375.0" style="stroke:#060106; fill:none;"/>
	<path d="M 478.0,1376.0 L 477.0,1377.0" style="stroke:#060106; fill:none;"/>
	<path d="M 600.0,1377.0 L 599.0,1378.0" style="stroke:#060106; fill:none;"/>
	<path d="M 593.0,1379.0 L 594.0,1380.0" style="stroke:#060106; fill:none;"/>
	<path d="M 746.0,1379.0 L 746.0,1380.0" style="stroke:#060106; fill:none;"/>
	<path d="M 207.0,1382.0 L 209.0,1387.0" style="stroke:#060106; fill:none;"/>
	<path d="M 584.0,1383.0 L 587.0,1382.0" style="stroke:#060106; fill:none;"/>
	<path d="M 745.0,1385.0 L 744.0,1388.0" style="stroke:#060106; fill:none;"/>
	<path d="M 518.0,1386.0 L 519.0,1386.0" style="stroke:#060106; fill:none;"/>
	<path d="M 209.0,1390.0 L 209.0,1391.0" style="stroke:#060106; fill:none;"/>
	<path d="M 744.0,1390.0 L 742.0,1393.0" style="stroke:#060106; fill:none;"/>
	<path d="M 741.0,1396.0 L 743.0,1395.0" style="stroke:#060106; fill:none;"/>
	<path d="M 212.0,1396.0 L 215.0,1405.0" style="stroke:#060106; fill:none;"/>
	<path d="M 740.0,1401.0 L 741.0,1401.0" style="stroke:#060106; fill:none;"/>
	<path d="M 740.0,1407.0 L 739.0,1411.0" style="stroke:#060106; fill:none;"/>
	<path d="M 217.0,1414.0 L 218.0,1414.0" style="stroke:#060106; fill:none;"/>
	<path d="M 738.0,1417.0 L 736.0,1420.0" style="stroke:#060106; fill:none;"/>
	<path d="M 221.0,1424.0 L 221.0,1426.0" style="stroke:#060106; fill:none;"/>
	<path d="M 736.0,1427.0 L 735.0,1430.0" style="stroke:#060106; fill:none;"/>
	<path d="M 223.0,1432.0 L 224.0,1432.0" style="stroke:#060106; fill:none;"/>
	<path d="M 734.0,1434.0 L 734.0,1436.0" style="stroke:#060106; fill:none;"/>
	<path d="M 224.0,1440.0 L 226.0,1440.0" style="stroke:#060106; fill:none;"/>
	<path d="M 734.0,1445.0 L 734.0,1446.0" style="stroke:#060106; fill:none;"/>
	<path d="M 729.0,1452.0 L 730.0,1452.0" style="stroke:#060106; fill:none;"/>
	<path d="M 228.0,1454.0 L 228.0,1455.0" style="stroke:#060106; fill:none;"/>
	<path d="M 725.0,1456.0 L 724.0,1459.0" style="stroke:#060106; fill:none;"/>
	<path d="M 721.0,1462.0 L 719.0,1466.0" style="stroke:#060106; fill:none;"/>
	<path d="M 712.0,1471.0 L 712.0,1472.0" style="stroke:#060106; fill:none;"/>
	<path d="M 708.0,1475.0 L 707.0,1477.0" style="stroke:#060106; fill:none;"/>
	<path d="M 704.0,1481.0 L 694.0,1490.0" style="stroke:#060106; fill:none;"/>
	<path d="M 688.0,1497.0 L 691.0,1494.0" style="stroke:#060106; fill:none;"/>
	<path d="M 682.0,1505.0 L 685.0,1504.0 L 681.0,1506.0" style="stroke:#060106; fill:none;"/>
	<path d="M 680.0,1513.0 L 681.0,1513.0" style="stroke:#060106; fill:none;"/>
	<path d="M 676.0,1516.0 L 676.0,1517.0" style="stroke:#060106; fill:none;"/>
	<path d="M 675.0,1519.0 L 674.0,1524.0" style="stroke:#060106; fill:none;"/>
	<path d="M 673.0,1522.0 L 674.0,1522.0" style="stroke:#060106; fill:none;"/>
	<path d="M 670.0,1528.0 L 671.0,1528.0" style="stroke:#060106; fill:none;"/>
</svg>
