<?xml version="1.0" ?>
<svg baseProfile="full" height="3318" version="1.1" width="2654" xmlns="http://www.w3.org/2000/svg" xmlns:ev="http://www.w3.org/2001/xml-events" xmlns:xlink="http://www.w3.org/1999/xlink">
	<defs/>
	<path d="M 1024.0,409.0 L 1021.0,411.0 C 1030.61,406.728 1039.66,397.034 1049.0,391.4 C 1074.42,376.061 1101.78,361.612 1130.0,352.167 C 1144.71,347.244 1162.59,340.785 1178.0,346.0" style="stroke:#010101; fill:none;"/>
	<path d="M 1084.0,396.0 C 1111.21,378.057 1154.95,372.005 1187.0,375.0" style="stroke:#010101; fill:none;"/>
	<path d="M 1002.0,391.0 C 994.011,401.777 983.742,410.625 975.08,421.0 C 971.143,425.716 967.38,431.048 961.0,432.0" style="stroke:#010101; fill:none;"/>
	<path d="M 1199.0,395.0 L 1236.0,416.0" style="stroke:#010101; fill:none;"/>
	<path d="M 1173.0,397.0 C 1190.69,406.432 1205.32,417.703 1220.09,431.3 C 1226.54,437.237 1231.92,444.909 1239.0,450.0" style="stroke:#010101; fill:none;"/>
	<path d="M 1248.0,399.0 L 1251.0,399.0 L 1246.0,399.0" style="stroke:#010101; fill:none;"/>
	<path d="M 1251.0,399.0 L 1267.0,403.0" style="stroke:#010101; fill:none;"/>
	<path d="M 991.0,401.0 L 990.0,402.0" style="stroke:#010101; fill:none;"/>
	<path d="M 1231.0,402.0 L 1256.0,420.0" style="stroke:#010101; fill:none;"/>
	<path d="M 1068.0,406.0 L 1048.0,426.0" style="stroke:#010101; fill:none;"/>
	<path d="M 1119.0,408.0 L 1156.0,412.0" style="stroke:#010101; fill:none;"/>
	<path d="M 1020.0,414.0 L 1016.0,414.0 L 1021.0,412.0" style="stroke:#010101; fill:none;"/>
	<path d="M 1015.0,414.0 L 1016.0,414.0" style="stroke:#010101; fill:none;"/>
	<path d="M 1017.0,416.0 L 999.0,428.0" style="stroke:#010101; fill:none;"/>
	<path d="M 1267.0,420.0 C 1297.75,444.404 1315.5,486.65 1322.0,525.0" style="stroke:#010101; fill:none;"/>
	<path d="M 962.0,425.0 L 953.0,436.0" style="stroke:#010101; fill:none;"/>
	<path d="M 1196.0,427.0 C 1222.01,433.019 1242.62,457.922 1257.0,479.0" style="stroke:#010101; fill:none;"/>
	<path d="M 983.0,436.0 L 996.0,430.0" style="stroke:#010101; fill:none;"/>
	<path d="M 933.0,451.0 C 920.051,465.97 902.931,479.168 887.0,490.845 C 883.425,493.465 870.945,498.924 873.0,504.0" style="stroke:#010101; fill:none;"/>
	<path d="M 957.0,453.0 C 943.027,466.982 930.284,485.451 912.0,494.0" style="stroke:#010101; fill:none;"/>
	<path d="M 1340.0,485.0 C 1345.77,495.242 1346.44,508.606 1345.0,520.0" style="stroke:#010101; fill:none;"/>
	<path d="M 837.0,511.0 L 829.0,539.0" style="stroke:#010101; fill:none;"/>
	<path d="M 818.0,521.0 L 817.0,554.0" style="stroke:#010101; fill:none;"/>
	<path d="M 1349.0,542.0 C 1361.05,538.688 1378.94,546.513 1391.0,549.0" style="stroke:#010101; fill:none;"/>
	<path d="M 797.0,546.0 L 801.0,556.0" style="stroke:#010101; fill:none;"/>
	<path d="M 794.0,549.0 L 798.0,554.0" style="stroke:#010101; fill:none;"/>
	<path d="M 785.0,558.0 L 803.0,579.0" style="stroke:#010101; fill:none;"/>
	<path d="M 777.0,563.0 L 806.0,589.0" style="stroke:#010101; fill:none;"/>
	<path d="M 774.0,567.0 L 794.0,588.0" style="stroke:#010101; fill:none;"/>
	<path d="M 1403.0,596.0 C 1417.56,596.665 1435.72,604.115 1449.0,610.0" style="stroke:#010101; fill:none;"/>
	<path d="M 718.0,633.0 L 760.0,634.0" style="stroke:#010101; fill:none;"/>
	<path d="M 708.0,646.0 L 755.0,639.0" style="stroke:#010101; fill:none;"/>
	<path d="M 1468.0,644.0 C 1506.47,658.749 1549.2,666.046 1584.0,689.0" style="stroke:#010101; fill:none;"/>
	<path d="M 698.0,659.0 L 729.0,651.0" style="stroke:#010101; fill:none;"/>
	<path d="M 689.0,666.0 L 716.0,659.0" style="stroke:#010101; fill:none;"/>
	<path d="M 676.0,682.0 L 693.0,681.0" style="stroke:#010101; fill:none;"/>
	<path d="M 1480.0,681.0 C 1557.25,691.676 1633.02,729.645 1692.0,779.439 C 1719.19,802.39 1741.11,832.027 1769.0,854.0 L 1758.0,853.0 C 1757.4,858.206 1760.56,861.37 1764.0,865.0" style="stroke:#010101; fill:none;"/>
	<path d="M 668.0,693.0 L 689.0,686.0" style="stroke:#010101; fill:none;"/>
	<path d="M 1608.0,688.0 L 1618.0,717.0" style="stroke:#010101; fill:none;"/>
	<path d="M 1860.0,690.0 L 1874.0,701.0 L 1860.0,703.0" style="stroke:#010101; fill:none;"/>
	<path d="M 1875.0,703.0 C 1896.66,708.604 1915.71,711.258 1934.0,725.669 C 1962.22,747.904 1972.35,779.785 1984.23,812.0 C 1995.76,843.26 2009.18,874.263 2019.25,906.0 C 2024.77,923.392 2027.56,941.88 2033.69,959.0 C 2041.01,979.472 2057.1,998.207 2066.51,1018.0 C 2074.63,1035.07 2077.68,1053.93 2086.27,1071.0 C 2097.52,1093.35 2114.38,1113.32 2122.91,1137.0 C 2128.36,1152.13 2128.5,1167.92 2133.0,1183.0 L 2135.0,1174.0" style="stroke:#010101; fill:none;"/>
	<path d="M 1868.0,706.0 C 1860.56,722.811 1873.55,747.785 1891.0,753.225 C 1899.56,755.894 1904.94,753.703 1913.0,751.0" style="stroke:#010101; fill:none;"/>
	<path d="M 617.0,730.0 L 652.0,726.0" style="stroke:#010101; fill:none;"/>
	<path d="M 596.0,742.0 L 615.0,740.0" style="stroke:#010101; fill:none;"/>
	<path d="M 1880.0,748.0 C 1877.62,749.3 1873.73,749.964 1872.18,752.317 C 1864.51,763.926 1880.93,784.371 1890.0,789.637 C 1900.26,795.594 1907.36,791.871 1918.0,791.0 C 1916.05,803.602 1899.25,797.972 1892.0,806.0 L 1881.0,796.0" style="stroke:#010101; fill:none;"/>
	<path d="M 547.0,770.0 C 565.396,766.432 589.222,758.681 607.0,768.0" style="stroke:#010101; fill:none;"/>
	<path d="M 1930.0,766.0 L 1948.3,791.0 L 1955.97,829.985 L 1975.0,856.0 L 1976.0,853.0" style="stroke:#010101; fill:none;"/>
	<path d="M 1933.0,771.0 L 1934.0,778.0" style="stroke:#010101; fill:none;"/>
	<path d="M 1928.0,773.0 L 1919.0,790.0" style="stroke:#010101; fill:none;"/>
	<path d="M 411.0,814.0 C 403.779,822.708 391.686,822.59 388.0,835.0 C 402.635,830.368 415.619,820.142 429.996,814.586 C 433.906,813.076 437.002,816.005 441.015,814.541 C 485.043,798.48 533.7,777.61 581.0,775.0" style="stroke:#010101; fill:none;"/>
	<path d="M 579.0,777.0 L 578.0,778.0" style="stroke:#010101; fill:none;"/>
	<path d="M 554.0,787.0 C 530.406,797.167 503.774,803.139 479.0,809.849 C 468.877,812.59 454.032,813.71 448.0,823.0 L 440.0,823.0" style="stroke:#010101; fill:none;"/>
	<path d="M 435.0,813.0 C 450.506,803.245 470.645,795.872 488.0,790.0" style="stroke:#010101; fill:none;"/>
	<path d="M 367.0,814.0 L 408.0,797.0" style="stroke:#010101; fill:none;"/>
	<path d="M 450.0,822.0 L 487.0,813.424 L 545.0,798.0" style="stroke:#010101; fill:none;"/>
	<path d="M 1890.0,801.0 L 1896.0,799.0" style="stroke:#010101; fill:none;"/>
	<path d="M 1869.0,803.0 L 1882.0,812.0 L 1878.0,816.0 L 1876.0,810.0" style="stroke:#010101; fill:none;"/>
	<path d="M 1893.0,806.0 C 1901.21,816.429 1888.5,814.047 1882.0,812.0" style="stroke:#010101; fill:none;"/>
	<path d="M 436.0,816.0 L 424.0,823.0" style="stroke:#010101; fill:none;"/>
	<path d="M 1878.0,817.0 L 1891.0,836.0" style="stroke:#010101; fill:none;"/>
	<path d="M 433.0,821.0 L 449.0,818.0" style="stroke:#010101; fill:none;"/>
	<path d="M 435.0,819.0 L 435.0,820.0" style="stroke:#010101; fill:none;"/>
	<path d="M 448.0,820.0 L 449.0,820.0" style="stroke:#010101; fill:none;"/>
	<path d="M 302.0,946.0 C 338.781,903.765 378.846,851.06 434.0,832.516 C 453.412,825.989 473.783,826.0 494.0,826.0" style="stroke:#010101; fill:none;"/>
	<path d="M 378.0,842.0 L 387.0,836.0" style="stroke:#010101; fill:none;"/>
	<path d="M 370.0,848.0 L 377.0,843.0" style="stroke:#010101; fill:none;"/>
	<path d="M 371.0,847.0 L 374.0,845.0" style="stroke:#010101; fill:none;"/>
	<path d="M 378.0,845.0 L 375.0,846.0" style="stroke:#010101; fill:none;"/>
	<path d="M 1886.0,850.0 L 1885.0,846.0 C 1901.75,846.345 1922.05,848.302 1937.0,856.324 C 1956.39,866.727 1970.98,886.785 1983.9,904.0 C 1992.77,915.828 2002.49,927.273 2010.0,940.0" style="stroke:#010101; fill:none;"/>
	<path d="M 1880.0,847.0 L 1884.0,847.0" style="stroke:#010101; fill:none;"/>
	<path d="M 1571.0,849.0 L 1572.0,850.0" style="stroke:#010101; fill:none;"/>
	<path d="M 1881.0,849.0 L 1894.0,877.0 L 1890.0,881.0 L 1885.0,876.0 C 1882.86,884.571 1891.65,897.598 1895.85,905.0 C 1907.18,924.976 1913.99,946.1 1923.0,967.0" style="stroke:#010101; fill:none;"/>
	<path d="M 1768.0,857.0 C 1773.43,856.908 1778.99,866.043 1782.42,870.0 C 1793.76,883.052 1807.0,894.456 1818.91,906.985 C 1836.48,925.469 1856.61,942.94 1873.2,962.054 C 1903.36,996.828 1927.38,1038.61 1949.0,1079.0 C 1957.65,1072.7 1952.58,1065.01 1948.75,1057.0 C 1941.44,1041.72 1934.52,1026.65 1926.0,1012.0" style="stroke:#010101; fill:none;"/>
	<path d="M 1975.0,856.0 L 1981.0,892.0" style="stroke:#010101; fill:none;"/>
	<path d="M 1978.0,856.0 C 1984.35,871.479 1986.95,883.288 1987.0,900.0" style="stroke:#010101; fill:none;"/>
	<path d="M 1768.0,858.0 L 1771.0,860.0" style="stroke:#010101; fill:none;"/>
	<path d="M 1881.0,866.0 L 1884.0,875.0" style="stroke:#010101; fill:none;"/>
	<path d="M 1895.0,879.0 C 1896.36,889.406 1906.72,897.28 1914.0,904.0" style="stroke:#010101; fill:none;"/>
	<path d="M 1890.0,882.0 L 1894.0,884.0" style="stroke:#010101; fill:none;"/>
	<path d="M 1535.0,886.0 L 1573.0,889.0" style="stroke:#010101; fill:none;"/>
	<path d="M 1515.0,892.0 C 1534.08,893.524 1556.1,895.508 1575.0,892.0" style="stroke:#010101; fill:none;"/>
	<path d="M 1509.0,900.0 L 1505.0,899.0 C 1510.76,895.122 1520.34,897.119 1527.0,897.379 C 1543.29,898.014 1559.67,898.0 1576.0,898.0" style="stroke:#010101; fill:none;"/>
	<path d="M 1499.0,898.0 L 1505.0,898.0" style="stroke:#010101; fill:none;"/>
	<path d="M 387.0,899.0 C 362.873,923.127 342.461,952.027 328.0,983.0" style="stroke:#010101; fill:none;"/>
	<path d="M 1490.0,908.0 L 1486.0,907.0 L 1504.0,905.17 L 1545.0,902.12 L 1601.0,905.0" style="stroke:#010101; fill:none;"/>
	<path d="M 1592.0,903.0 C 1581.43,908.639 1561.05,905.511 1549.0,906.039 C 1522.66,907.193 1491.22,909.163 1466.0,917.0" style="stroke:#010101; fill:none;"/>
	<path d="M 314.0,954.0 C 324.966,938.734 336.614,924.491 352.0,913.428 C 357.928,909.165 364.344,903.85 372.0,905.0" style="stroke:#010101; fill:none;"/>
	<path d="M 1481.0,907.0 L 1481.0,910.0 L 1477.0,908.0 L 1480.0,908.0" style="stroke:#010101; fill:none;"/>
	<path d="M 1487.0,909.0 L 1486.0,907.0" style="stroke:#010101; fill:none;"/>
	<path d="M 1492.0,908.0 L 1491.0,909.0" style="stroke:#010101; fill:none;"/>
	<path d="M 1419.0,922.0 L 1476.0,909.0" style="stroke:#010101; fill:none;"/>
	<path d="M 1519.0,914.0 L 1493.0,918.0 C 1500.17,923.014 1518.52,917.579 1527.0,916.424 C 1552.6,912.937 1580.27,909.674 1606.0,912.0" style="stroke:#010101; fill:none;"/>
	<path d="M 1515.0,925.0 L 1514.0,929.0 C 1512.1,922.237 1526.24,922.87 1531.0,922.285 C 1549.83,919.965 1569.41,920.451 1588.0,917.0" style="stroke:#010101; fill:none;"/>
	<path d="M 1493.0,921.0 L 1487.0,920.0 L 1493.0,918.0" style="stroke:#010101; fill:none;"/>
	<path d="M 1421.0,931.0 L 1475.0,922.127 L 1487.0,919.0" style="stroke:#010101; fill:none;"/>
	<path d="M 1473.0,922.0 L 1478.0,920.0" style="stroke:#010101; fill:none;"/>
	<path d="M 1480.0,920.0 L 1487.0,920.0" style="stroke:#010101; fill:none;"/>
	<path d="M 1648.0,921.0 L 1660.0,941.0" style="stroke:#010101; fill:none;"/>
	<path d="M 1624.0,924.0 C 1612.69,924.0 1601.24,923.959 1590.0,925.285 C 1582.19,926.207 1572.32,928.394 1565.0,925.0 L 1583.0,922.0" style="stroke:#010101; fill:none;"/>
	<path d="M 1476.0,930.0 L 1471.0,929.0 C 1477.69,932.153 1498.03,927.416 1504.0,923.0 C 1506.09,925.94 1507.43,926.403 1511.0,926.0" style="stroke:#010101; fill:none;"/>
	<path d="M 1556.0,927.0 L 1562.0,926.0 C 1551.21,930.269 1526.2,932.309 1515.0,929.0" style="stroke:#010101; fill:none;"/>
	<path d="M 1566.0,927.0 L 1565.0,925.0" style="stroke:#010101; fill:none;"/>
	<path d="M 1503.0,927.0 L 1504.0,927.0" style="stroke:#010101; fill:none;"/>
	<path d="M 1510.0,927.0 C 1510.79,929.889 1511.25,930.082 1514.0,929.0" style="stroke:#010101; fill:none;"/>
	<path d="M 1554.0,945.0 C 1546.47,945.323 1526.57,952.401 1522.0,945.0 C 1531.15,941.897 1542.31,943.606 1552.0,941.724 C 1556.29,940.89 1558.21,937.552 1562.08,936.228 C 1570.01,933.513 1579.72,933.592 1588.0,932.424 C 1593.76,931.612 1606.39,927.443 1610.0,933.0 L 1635.0,928.0" style="stroke:#010101; fill:none;"/>
	<path d="M 1396.0,948.0 C 1419.07,939.102 1445.98,929.207 1471.0,929.0" style="stroke:#010101; fill:none;"/>
	<path d="M 1610.0,931.0 L 1614.0,931.0" style="stroke:#010101; fill:none;"/>
	<path d="M 1471.0,931.0 C 1476.33,939.042 1500.55,932.069 1509.0,931.0" style="stroke:#010101; fill:none;"/>
	<path d="M 1201.0,1118.0 C 1201.58,1131.58 1206.12,1148.83 1214.0,1160.0 C 1222.82,1134.65 1211.0,1105.74 1223.26,1082.0 C 1229.78,1069.36 1237.67,1053.98 1248.09,1044.13 C 1261.24,1031.71 1279.84,1021.89 1295.0,1011.92 C 1334.63,985.865 1376.86,962.462 1422.0,947.485 C 1437.71,942.272 1453.52,936.084 1470.0,934.0" style="stroke:#010101; fill:none;"/>
	<path d="M 1537.0,956.0 C 1520.61,958.207 1497.18,971.649 1481.0,967.0 C 1491.23,953.569 1503.62,955.672 1519.0,953.718 C 1532.11,952.052 1546.26,951.459 1559.0,948.116 C 1575.48,943.788 1592.16,936.477 1609.0,934.0" style="stroke:#010101; fill:none;"/>
	<path d="M 1526.0,943.0 L 1557.0,937.0" style="stroke:#010101; fill:none;"/>
	<path d="M 1565.0,953.0 L 1641.0,937.0" style="stroke:#010101; fill:none;"/>
	<path d="M 1449.0,944.0 L 1522.0,945.0" style="stroke:#010101; fill:none;"/>
	<path d="M 1595.0,951.0 L 1650.0,945.0" style="stroke:#010101; fill:none;"/>
	<path d="M 1344.0,991.0 L 1341.0,991.0 C 1349.04,984.861 1359.95,980.577 1369.0,975.92 C 1391.83,964.175 1421.66,947.84 1448.0,947.418 C 1452.09,947.353 1455.89,949.602 1460.0,949.91 C 1472.76,950.865 1485.26,950.001 1498.0,950.0 C 1505.81,950.0 1514.96,950.774 1522.0,947.0" style="stroke:#010101; fill:none;"/>
	<path d="M 1904.0,951.0 C 1913.23,972.429 1930.97,989.901 1944.0,1009.0" style="stroke:#010101; fill:none;"/>
	<path d="M 1451.0,953.0 C 1436.96,962.997 1418.23,968.501 1407.0,982.0 C 1401.45,979.075 1396.88,983.471 1392.0,986.4 C 1380.26,993.45 1369.11,1001.56 1358.0,1009.55 C 1332.39,1028.0 1302.71,1047.47 1284.79,1074.0 C 1269.93,1095.98 1262.77,1123.39 1248.0,1145.0 C 1247.42,1142.45 1247.49,1142.14 1250.0,1143.0" style="stroke:#010101; fill:none;"/>
	<path d="M 1394.0,995.0 L 1390.0,995.0 C 1394.51,993.292 1399.64,994.846 1404.0,992.741 C 1431.2,979.601 1457.01,949.223 1489.0,957.0" style="stroke:#010101; fill:none;"/>
	<path d="M 1381.0,985.0 L 1377.0,985.0 L 1382.0,985.0 C 1394.25,971.5 1418.36,962.92 1435.0,956.0" style="stroke:#010101; fill:none;"/>
	<path d="M 1475.0,957.0 L 1461.0,971.0 L 1462.0,968.0" style="stroke:#010101; fill:none;"/>
	<path d="M 1454.0,963.0 L 1457.0,961.0" style="stroke:#010101; fill:none;"/>
	<path d="M 1398.0,993.0 L 1439.0,966.0" style="stroke:#010101; fill:none;"/>
	<path d="M 1471.0,966.0 L 1465.0,970.0" style="stroke:#010101; fill:none;"/>
	<path d="M 1451.0,967.0 L 1412.0,996.425 L 1352.0,1044.0" style="stroke:#010101; fill:none;"/>
	<path d="M 1481.0,968.0 C 1470.76,982.329 1455.78,988.321 1443.0,999.286 C 1434.15,1006.88 1424.42,1013.93 1416.17,1022.17 C 1408.34,1029.99 1401.85,1039.25 1393.0,1046.0" style="stroke:#010101; fill:none;"/>
	<path d="M 1460.0,969.0 L 1458.0,974.0 L 1459.0,971.0" style="stroke:#010101; fill:none;"/>
	<path d="M 1475.0,972.0 L 1479.0,970.0" style="stroke:#010101; fill:none;"/>
	<path d="M 1358.0,1051.0 C 1367.04,1037.08 1384.12,1029.76 1397.0,1020.1 C 1416.89,1005.18 1434.81,987.199 1456.0,974.0" style="stroke:#010101; fill:none;"/>
	<path d="M 1497.0,974.0 L 1469.0,994.0" style="stroke:#010101; fill:none;"/>
	<path d="M 1405.0,979.0 L 1409.0,978.0" style="stroke:#010101; fill:none;"/>
	<path d="M 1459.0,990.0 C 1458.63,984.732 1464.55,981.062 1469.0,979.0" style="stroke:#010101; fill:none;"/>
	<path d="M 1381.0,983.0 L 1384.0,982.0" style="stroke:#010101; fill:none;"/>
	<path d="M 1406.0,982.0 L 1392.0,993.0" style="stroke:#010101; fill:none;"/>
	<path d="M 1293.0,1033.0 C 1320.33,1017.84 1347.65,995.748 1377.0,985.0" style="stroke:#010101; fill:none;"/>
	<path d="M 1378.0,987.0 C 1348.22,1013.8 1308.39,1030.67 1281.59,1061.04 C 1268.72,1075.63 1258.94,1094.67 1250.25,1112.0 C 1245.99,1120.49 1243.22,1131.7 1236.0,1138.0 C 1245.11,1149.35 1230.88,1171.05 1235.0,1185.0" style="stroke:#010101; fill:none;"/>
	<path d="M 1917.0,987.0 C 1922.84,996.535 1928.07,1006.31 1933.58,1016.0 C 1936.53,1021.18 1940.38,1026.01 1938.0,1032.0" style="stroke:#010101; fill:none;"/>
	<path d="M 1456.0,990.0 L 1457.0,988.0" style="stroke:#010101; fill:none;"/>
	<path d="M 1341.0,994.0 L 1337.0,993.0 L 1341.0,990.0" style="stroke:#010101; fill:none;"/>
	<path d="M 1452.0,992.0 L 1456.0,993.0" style="stroke:#010101; fill:none;"/>
	<path d="M 1332.0,999.0 C 1330.79,994.553 1333.44,994.131 1337.0,996.0 L 1290.0,1029.2 L 1267.0,1048.0 L 1270.0,1046.0" style="stroke:#010101; fill:none;"/>
	<path d="M 1455.0,994.0 C 1438.92,1010.07 1421.96,1029.46 1403.0,1042.0" style="stroke:#010101; fill:none;"/>
	<path d="M 1391.0,997.0 C 1388.76,997.062 1388.52,996.749 1390.0,995.0" style="stroke:#010101; fill:none;"/>
	<path d="M 1400.0,995.0 C 1381.83,1009.65 1359.65,1022.62 1346.0,1042.0" style="stroke:#010101; fill:none;"/>
	<path d="M 1447.0,996.0 L 1450.0,999.0" style="stroke:#010101; fill:none;"/>
	<path d="M 339.0,997.0 C 331.509,1011.07 327.676,1026.87 322.975,1042.0 C 312.649,1075.23 303.395,1109.41 299.0,1144.0" style="stroke:#010101; fill:none;"/>
	<path d="M 1218.0,1103.0 C 1224.37,1097.47 1226.92,1088.49 1230.76,1081.0 C 1235.58,1071.59 1242.32,1061.91 1249.44,1054.09 C 1270.96,1030.45 1302.73,1013.73 1329.0,996.0" style="stroke:#010101; fill:none;"/>
	<path d="M 1386.0,997.0 L 1390.0,998.0" style="stroke:#010101; fill:none;"/>
	<path d="M 1386.0,1000.0 L 1382.0,1001.0 L 1385.0,999.0" style="stroke:#010101; fill:none;"/>
	<path d="M 1337.0,1040.0 L 1382.0,1001.0" style="stroke:#010101; fill:none;"/>
	<path d="M 1384.0,1002.0 L 1378.0,1006.0" style="stroke:#010101; fill:none;"/>
	<path d="M 1296.0,1233.0 C 1297.57,1213.06 1304.23,1195.34 1307.91,1176.0 C 1309.46,1167.81 1308.33,1159.96 1309.37,1152.0 C 1310.65,1142.16 1318.41,1126.16 1324.11,1118.09 C 1337.06,1099.73 1365.07,1089.49 1384.0,1078.72 C 1404.38,1067.13 1425.23,1057.49 1446.0,1046.74 C 1482.71,1027.74 1518.2,1009.16 1560.0,1004.16 C 1569.8,1002.98 1577.54,1006.42 1587.0,1008.08 C 1602.77,1010.85 1620.02,1013.0 1636.0,1013.0" style="stroke:#010101; fill:none;"/>
	<path d="M 1932.0,1014.0 L 1929.0,1017.0" style="stroke:#010101; fill:none;"/>
	<path d="M 1409.0,1018.0 L 1362.0,1054.27 L 1337.0,1074.0 L 1339.0,1073.0" style="stroke:#010101; fill:none;"/>
	<path d="M 1410.0,1023.0 L 1412.0,1027.0" style="stroke:#010101; fill:none;"/>
	<path d="M 1315.0,1024.0 L 1276.0,1052.0 L 1277.0,1048.0" style="stroke:#010101; fill:none;"/>
	<path d="M 1368.0,1061.0 L 1409.0,1024.0" style="stroke:#010101; fill:none;"/>
	<path d="M 1438.0,1024.0 L 1420.0,1035.0" style="stroke:#010101; fill:none;"/>
	<path d="M 1407.0,1026.0 L 1410.0,1029.0" style="stroke:#010101; fill:none;"/>
	<path d="M 1600.0,1029.0 C 1595.66,1030.92 1584.3,1036.39 1581.0,1032.0 C 1576.83,1033.97 1574.71,1036.4 1574.0,1041.0 L 1579.0,1040.0 C 1575.11,1036.43 1572.27,1034.75 1567.0,1036.0 L 1573.0,1042.0" style="stroke:#010101; fill:none;"/>
	<path d="M 1350.0,1037.0 C 1349.75,1033.6 1350.64,1032.59 1354.0,1032.0" style="stroke:#010101; fill:none;"/>
	<path d="M 1546.0,1031.0 L 1560.0,1036.0 C 1553.53,1039.18 1543.75,1036.9 1537.0,1035.0" style="stroke:#010101; fill:none;"/>
	<path d="M 1582.0,1031.0 L 1583.0,1031.0" style="stroke:#010101; fill:none;"/>
	<path d="M 1337.0,1032.0 C 1321.42,1045.61 1303.6,1059.1 1290.33,1075.0 C 1278.84,1088.76 1270.78,1106.88 1263.22,1123.0 C 1256.67,1136.97 1249.67,1153.4 1249.0,1169.0" style="stroke:#010101; fill:none;"/>
	<path d="M 1271.0,1143.0 C 1280.82,1121.38 1295.83,1100.44 1309.43,1081.0 C 1321.49,1063.76 1330.06,1047.63 1348.0,1035.0" style="stroke:#010101; fill:none;"/>
	<path d="M 1520.0,1035.0 C 1529.05,1042.25 1543.73,1038.36 1550.0,1048.0 C 1536.13,1056.7 1509.02,1048.28 1498.0,1038.0" style="stroke:#010101; fill:none;"/>
	<path d="M 1560.0,1036.0 L 1566.0,1036.0" style="stroke:#010101; fill:none;"/>
	<path d="M 1571.0,1036.0 L 1571.0,1039.0" style="stroke:#010101; fill:none;"/>
	<path d="M 1578.0,1036.0 L 1580.0,1036.0" style="stroke:#010101; fill:none;"/>
	<path d="M 2022.0,1036.0 L 2004.0,1077.0" style="stroke:#010101; fill:none;"/>
	<path d="M 1341.0,1037.0 L 1343.0,1039.0" style="stroke:#010101; fill:none;"/>
	<path d="M 1565.0,1037.0 L 1567.0,1043.0 L 1568.0,1040.0" style="stroke:#010101; fill:none;"/>
	<path d="M 1576.0,1039.0 L 1576.0,1040.0" style="stroke:#010101; fill:none;"/>
	<path d="M 1580.0,1041.0 L 1600.0,1039.0" style="stroke:#010101; fill:none;"/>
	<path d="M 1484.0,1041.0 L 1502.0,1053.0 L 1486.0,1057.0 C 1490.19,1067.92 1475.35,1061.58 1471.0,1061.79 C 1464.24,1062.13 1460.87,1065.24 1454.0,1062.0" style="stroke:#010101; fill:none;"/>
	<path d="M 1568.0,1042.0 L 1570.0,1042.0" style="stroke:#010101; fill:none;"/>
	<path d="M 1586.0,1042.0 C 1568.17,1066.79 1549.48,1091.98 1530.66,1116.0 C 1522.06,1126.99 1512.96,1141.73 1500.0,1148.0 C 1502.19,1140.28 1508.13,1134.23 1510.1,1126.0 C 1516.08,1101.0 1505.56,1078.94 1488.0,1062.0" style="stroke:#010101; fill:none;"/>
	<path d="M 1550.0,1045.0 L 1564.0,1043.0" style="stroke:#010101; fill:none;"/>
	<path d="M 2006.0,1088.0 L 2019.64,1055.0 L 2028.0,1045.0 L 2028.0,1048.0" style="stroke:#010101; fill:none;"/>
	<path d="M 1242.0,1045.0 L 1225.25,1066.57 L 1209.0,1085.0" style="stroke:#010101; fill:none;"/>
	<path d="M 1546.0,1049.0 L 1548.0,1046.0" style="stroke:#010101; fill:none;"/>
	<path d="M 1337.0,1073.0 L 1333.0,1072.0 C 1337.52,1061.26 1347.68,1048.65 1360.0,1047.0" style="stroke:#010101; fill:none;"/>
	<path d="M 1267.0,1048.0 C 1259.52,1057.19 1242.7,1073.35 1243.0,1086.0 L 1245.0,1082.0" style="stroke:#010101; fill:none;"/>
	<path d="M 1541.0,1050.0 L 1545.0,1048.0" style="stroke:#010101; fill:none;"/>
	<path d="M 1613.0,1048.0 L 1622.0,1049.0" style="stroke:#010101; fill:none;"/>
	<path d="M 1474.0,1058.0 C 1470.2,1051.95 1474.08,1048.86 1480.0,1052.0 L 1473.0,1061.0" style="stroke:#010101; fill:none;"/>
	<path d="M 1496.0,1049.0 L 1490.0,1055.0" style="stroke:#010101; fill:none;"/>
	<path d="M 1520.0,1050.0 L 1502.0,1053.0" style="stroke:#010101; fill:none;"/>
	<path d="M 1276.0,1052.0 C 1261.58,1069.77 1250.57,1092.33 1243.0,1114.0 C 1240.52,1121.09 1236.48,1128.46 1236.0,1136.0" style="stroke:#010101; fill:none;"/>
	<path d="M 1480.0,1052.0 L 1487.0,1056.0" style="stroke:#010101; fill:none;"/>
	<path d="M 1547.0,1052.0 L 1560.0,1060.0" style="stroke:#010101; fill:none;"/>
	<path d="M 1609.0,1052.0 L 1592.0,1062.0" style="stroke:#010101; fill:none;"/>
	<path d="M 1618.0,1053.0 C 1622.51,1061.6 1625.92,1070.16 1626.0,1080.0" style="stroke:#010101; fill:none;"/>
	<path d="M 343.0,1054.0 C 327.002,1090.09 320.0,1138.72 320.0,1178.0" style="stroke:#010101; fill:none;"/>
	<path d="M 1458.0,1055.0 L 1470.0,1061.0" style="stroke:#010101; fill:none;"/>
	<path d="M 1949.0,1057.0 C 1956.31,1054.12 1958.56,1064.55 1954.0,1069.0" style="stroke:#010101; fill:none;"/>
	<path d="M 1476.0,1058.0 L 1486.0,1057.0" style="stroke:#010101; fill:none;"/>
	<path d="M 1951.0,1061.0 L 1954.0,1059.0" style="stroke:#010101; fill:none;"/>
	<path d="M 1330.0,1062.0 L 1330.0,1066.0 L 1338.0,1061.0" style="stroke:#010101; fill:none;"/>
	<path d="M 1440.0,1061.0 C 1441.57,1069.75 1451.72,1069.4 1458.0,1066.0" style="stroke:#010101; fill:none;"/>
	<path d="M 1286.0,1062.0 L 1258.22,1113.0 L 1248.0,1141.0" style="stroke:#010101; fill:none;"/>
	<path d="M 1322.0,1062.0 L 1321.0,1064.0" style="stroke:#010101; fill:none;"/>
	<path d="M 1956.0,1062.0 L 1953.0,1065.0" style="stroke:#010101; fill:none;"/>
	<path d="M 353.0,1063.0 C 347.115,1075.58 344.835,1089.59 341.525,1103.0 C 334.569,1131.19 328.288,1161.01 326.0,1190.0" style="stroke:#010101; fill:none;"/>
	<path d="M 1257.0,1159.0 C 1258.92,1148.21 1266.05,1137.47 1271.35,1128.0 C 1283.51,1106.27 1296.51,1077.81 1318.0,1064.0" style="stroke:#010101; fill:none;"/>
	<path d="M 1223.0,1068.0 L 1226.0,1065.0" style="stroke:#010101; fill:none;"/>
	<path d="M 1252.0,1076.0 L 1265.0,1065.0" style="stroke:#010101; fill:none;"/>
	<path d="M 1430.0,1066.0 L 1436.0,1072.0 L 1432.0,1076.0 L 1447.0,1079.0" style="stroke:#010101; fill:none;"/>
	<path d="M 1306.0,1096.0 L 1329.0,1066.0" style="stroke:#010101; fill:none;"/>
	<path d="M 1457.0,1067.0 C 1464.72,1072.61 1474.25,1071.26 1483.0,1069.0" style="stroke:#010101; fill:none;"/>
	<path d="M 1446.0,1068.0 C 1443.9,1075.68 1457.14,1074.0 1462.0,1074.0" style="stroke:#010101; fill:none;"/>
	<path d="M 1224.0,1069.0 L 1210.0,1098.0" style="stroke:#010101; fill:none;"/>
	<path d="M 1581.0,1074.0 L 1596.0,1069.0" style="stroke:#010101; fill:none;"/>
	<path d="M 1436.0,1072.0 L 1443.0,1072.0" style="stroke:#010101; fill:none;"/>
	<path d="M 1333.0,1072.0 L 1320.0,1088.0" style="stroke:#010101; fill:none;"/>
	<path d="M 1335.0,1073.0 L 1332.0,1074.0" style="stroke:#010101; fill:none;"/>
	<path d="M 1424.0,1073.0 C 1427.37,1079.36 1419.45,1081.61 1415.0,1085.0 C 1422.68,1091.29 1430.13,1092.44 1438.0,1086.0" style="stroke:#010101; fill:none;"/>
	<path d="M 1238.0,1074.0 L 1235.0,1075.0" style="stroke:#010101; fill:none;"/>
	<path d="M 1236.0,1076.0 L 1220.99,1142.0 L 1223.0,1164.0 C 1227.94,1149.42 1224.17,1130.88 1234.0,1118.0" style="stroke:#010101; fill:none;"/>
	<path d="M 1338.0,1076.0 L 1334.0,1080.0" style="stroke:#010101; fill:none;"/>
	<path d="M 1427.0,1076.0 L 1432.0,1076.0" style="stroke:#010101; fill:none;"/>
	<path d="M 1956.0,1077.0 L 1950.0,1082.0 C 1962.64,1092.13 1962.86,1109.38 1968.42,1124.0 C 1978.46,1150.36 1992.21,1175.42 2003.97,1201.0 C 2009.29,1212.56 2016.41,1237.29 2029.0,1241.0 C 2027.0,1243.16 2026.51,1243.54 2024.0,1242.0" style="stroke:#010101; fill:none;"/>
	<path d="M 2023.0,1076.0 C 2011.98,1092.34 2001.47,1112.68 1997.0,1132.0" style="stroke:#010101; fill:none;"/>
	<path d="M 1410.0,1077.0 L 1415.0,1085.0" style="stroke:#010101; fill:none;"/>
	<path d="M 1587.0,1087.0 L 1575.0,1087.0 C 1576.78,1080.85 1582.38,1079.63 1588.0,1078.0" style="stroke:#010101; fill:none;"/>
	<path d="M 1957.0,1078.0 L 1957.0,1086.0" style="stroke:#010101; fill:none;"/>
	<path d="M 2030.0,1079.0 C 2019.12,1092.76 2006.63,1114.43 2004.0,1132.0" style="stroke:#010101; fill:none;"/>
	<path d="M 1500.0,1148.0 C 1483.6,1162.76 1467.95,1165.58 1447.0,1165.86 C 1435.9,1166.01 1423.4,1165.73 1414.01,1158.9 C 1401.98,1150.13 1385.32,1120.57 1391.53,1105.13 C 1393.9,1099.26 1401.28,1096.92 1404.1,1091.54 C 1406.18,1087.58 1401.73,1083.96 1406.0,1081.0" style="stroke:#010101; fill:none;"/>
	<path d="M 357.0,1083.0 C 351.004,1094.93 349.827,1109.99 347.389,1123.0 C 342.365,1149.81 336.226,1178.66 336.0,1206.0" style="stroke:#010101; fill:none;"/>
	<path d="M 1413.0,1085.0 C 1403.04,1095.91 1418.34,1098.61 1427.0,1097.0" style="stroke:#010101; fill:none;"/>
	<path d="M 1232.0,1104.0 L 1242.0,1087.0 L 1232.0,1118.0" style="stroke:#010101; fill:none;"/>
	<path d="M 1395.0,1087.0 L 1396.0,1097.0" style="stroke:#010101; fill:none;"/>
	<path d="M 1400.0,1088.0 L 1401.0,1092.0" style="stroke:#010101; fill:none;"/>
	<path d="M 1570.0,1089.0 L 1574.0,1088.0" style="stroke:#010101; fill:none;"/>
	<path d="M 1388.0,1090.0 L 1391.0,1102.0" style="stroke:#010101; fill:none;"/>
	<path d="M 1406.0,1090.0 L 1408.0,1090.0" style="stroke:#010101; fill:none;"/>
	<path d="M 1239.0,1091.0 L 1241.0,1093.0" style="stroke:#010101; fill:none;"/>
	<path d="M 1445.0,1095.81 C 1453.85,1095.47 1467.99,1113.22 1462.68,1121.7 C 1460.36,1125.41 1452.93,1125.61 1449.0,1125.79 C 1433.76,1126.47 1430.79,1096.36 1445.0,1095.81" style="stroke:#010101; fill:none;"/>
	<path d="M 1563.0,1095.0 L 1597.0,1105.0" style="stroke:#010101; fill:none;"/>
	<path d="M 1220.0,1101.0 L 1222.0,1097.0" style="stroke:#010101; fill:none;"/>
	<path d="M 1402.0,1097.0 L 1398.0,1116.0" style="stroke:#010101; fill:none;"/>
	<path d="M 1574.0,1098.0 L 1560.0,1107.0" style="stroke:#010101; fill:none;"/>
	<path d="M 1221.0,1102.0 L 1220.0,1106.0" style="stroke:#010101; fill:none;"/>
	<path d="M 1396.0,1103.0 L 1395.0,1112.0" style="stroke:#010101; fill:none;"/>
	<path d="M 292.0,1104.0 L 291.0,1120.0" style="stroke:#010101; fill:none;"/>
	<path d="M 1217.0,1106.0 L 1217.0,1108.0" style="stroke:#010101; fill:none;"/>
	<path d="M 1217.0,1108.0 C 1211.9,1116.84 1212.0,1128.06 1212.0,1138.0" style="stroke:#010101; fill:none;"/>
	<path d="M 1379.0,1110.0 L 1390.0,1109.0" style="stroke:#010101; fill:none;"/>
	<path d="M 2021.0,1109.0 L 2008.0,1146.0" style="stroke:#010101; fill:none;"/>
	<path d="M 1386.0,1111.0 C 1377.79,1121.93 1380.97,1128.47 1381.0,1141.0" style="stroke:#010101; fill:none;"/>
	<path d="M 1376.0,1112.0 L 1378.0,1116.0 L 1383.0,1115.0" style="stroke:#010101; fill:none;"/>
	<path d="M 1554.0,1114.0 L 1566.0,1112.0" style="stroke:#010101; fill:none;"/>
	<path d="M 1183.0,1114.0 L 1196.28,1141.0 L 1202.0,1153.0 L 1201.0,1149.0" style="stroke:#010101; fill:none;"/>
	<path d="M 1622.0,1114.0 C 1617.71,1126.61 1609.98,1139.09 1602.41,1150.0 C 1581.15,1180.66 1549.29,1216.76 1511.0,1225.0" style="stroke:#010101; fill:none;"/>
	<path d="M 1998.0,1114.0 L 1992.0,1134.0" style="stroke:#010101; fill:none;"/>
	<path d="M 1377.0,1117.0 C 1376.08,1120.52 1374.01,1125.66 1370.0,1123.0" style="stroke:#010101; fill:none;"/>
	<path d="M 1547.0,1117.0 L 1561.0,1119.0" style="stroke:#010101; fill:none;"/>
	<path d="M 1382.0,1118.0 L 1386.0,1122.0 L 1390.0,1118.0" style="stroke:#010101; fill:none;"/>
	<path d="M 1237.0,1123.0 L 1236.0,1129.0" style="stroke:#010101; fill:none;"/>
	<path d="M 1385.0,1123.0 L 1387.0,1137.0" style="stroke:#010101; fill:none;"/>
	<path d="M 360.0,1124.0 C 350.863,1156.44 348.203,1189.74 344.0,1223.0" style="stroke:#010101; fill:none;"/>
	<path d="M 1287.0,1124.0 L 1286.0,1127.0" style="stroke:#010101; fill:none;"/>
	<path d="M 1369.0,1126.0 L 1373.0,1158.0" style="stroke:#010101; fill:none;"/>
	<path d="M 1372.0,1126.0 L 1371.0,1129.0" style="stroke:#010101; fill:none;"/>
	<path d="M 1536.0,1130.0 L 1561.0,1127.0" style="stroke:#010101; fill:none;"/>
	<path d="M 1173.0,1130.0 C 1189.2,1146.22 1197.91,1163.0 1208.0,1183.0 C 1212.3,1174.23 1204.38,1161.7 1202.0,1153.0" style="stroke:#010101; fill:none;"/>
	<path d="M 1537.0,1133.0 L 1558.0,1140.0" style="stroke:#010101; fill:none;"/>
	<path d="M 1370.0,1134.0 L 1372.0,1140.0" style="stroke:#010101; fill:none;"/>
	<path d="M 1946.0,1135.0 L 1975.0,1170.0" style="stroke:#010101; fill:none;"/>
	<path d="M 2020.0,1135.0 L 2009.0,1166.0" style="stroke:#010101; fill:none;"/>
	<path d="M 1241.0,1137.0 L 1239.0,1141.0" style="stroke:#010101; fill:none;"/>
	<path d="M 1369.0,1137.0 C 1363.8,1144.27 1359.31,1152.82 1361.0,1162.0 L 1362.0,1160.0" style="stroke:#010101; fill:none;"/>
	<path d="M 1231.0,1188.0 C 1227.69,1177.26 1230.9,1163.98 1231.93,1153.0 C 1232.41,1147.79 1232.29,1141.96 1236.0,1138.0" style="stroke:#010101; fill:none;"/>
	<path d="M 1359.0,1139.0 L 1362.0,1146.0" style="stroke:#010101; fill:none;"/>
	<path d="M 1505.0,1139.0 L 1508.0,1142.0" style="stroke:#010101; fill:none;"/>
	<path d="M 1529.0,1140.0 L 1544.0,1142.0" style="stroke:#010101; fill:none;"/>
	<path d="M 1166.0,1141.0 C 1185.75,1144.56 1205.78,1176.49 1203.0,1196.0" style="stroke:#010101; fill:none;"/>
	<path d="M 1522.0,1144.0 L 1533.0,1145.0" style="stroke:#010101; fill:none;"/>
	<path d="M 1160.0,1146.0 C 1176.87,1150.96 1197.18,1174.05 1198.0,1192.0" style="stroke:#010101; fill:none;"/>
	<path d="M 1248.0,1146.0 L 1244.0,1169.0" style="stroke:#010101; fill:none;"/>
	<path d="M 1517.0,1147.0 L 1527.0,1150.0" style="stroke:#010101; fill:none;"/>
	<path d="M 1205.0,1153.0 C 1208.54,1160.57 1214.26,1168.04 1221.0,1173.0 L 1223.0,1164.0" style="stroke:#010101; fill:none;"/>
	<path d="M 1355.0,1153.0 L 1360.4,1169.0 L 1361.0,1184.0" style="stroke:#010101; fill:none;"/>
	<path d="M 1518.0,1153.0 L 1518.0,1155.0 L 1518.0,1153.0" style="stroke:#010101; fill:none;"/>
	<path d="M 1149.0,1155.0 C 1170.0,1152.52 1193.95,1178.61 1195.0,1199.0" style="stroke:#010101; fill:none;"/>
	<path d="M 1362.0,1154.0 L 1365.0,1169.0" style="stroke:#010101; fill:none;"/>
	<path d="M 1520.0,1154.0 L 1522.0,1155.0" style="stroke:#010101; fill:none;"/>
	<path d="M 2017.0,1154.0 L 2012.0,1181.0" style="stroke:#010101; fill:none;"/>
	<path d="M 1511.0,1156.0 L 1528.0,1173.0" style="stroke:#010101; fill:none;"/>
	<path d="M 1518.0,1156.0 L 1530.0,1172.0" style="stroke:#010101; fill:none;"/>
	<path d="M 1361.0,1158.0 L 1363.0,1158.0" style="stroke:#010101; fill:none;"/>
	<path d="M 1510.0,1159.0 L 1518.0,1167.0" style="stroke:#010101; fill:none;"/>
	<path d="M 1214.0,1160.0 L 1215.0,1166.0" style="stroke:#010101; fill:none;"/>
	<path d="M 1360.0,1162.0 C 1355.69,1167.08 1356.1,1172.11 1353.82,1178.0 C 1348.22,1192.44 1344.52,1206.99 1338.03,1221.0 C 1336.46,1224.39 1329.91,1237.4 1337.15,1238.73 C 1347.55,1240.64 1360.29,1223.28 1367.0,1217.29 C 1378.29,1207.22 1388.61,1192.35 1403.0,1186.61 C 1421.43,1179.25 1448.45,1179.54 1464.0,1167.0" style="stroke:#010101; fill:none;"/>
	<path d="M 1502.0,1162.0 L 1511.0,1169.0" style="stroke:#010101; fill:none;"/>
	<path d="M 1152.0,1166.0 C 1163.61,1173.11 1176.01,1180.9 1183.0,1193.0" style="stroke:#010101; fill:none;"/>
	<path d="M 1495.0,1167.0 L 1513.0,1184.0" style="stroke:#010101; fill:none;"/>
	<path d="M 1506.0,1167.0 L 1510.0,1175.0" style="stroke:#010101; fill:none;"/>
	<path d="M 1224.0,1173.0 L 1228.0,1181.0" style="stroke:#010101; fill:none;"/>
	<path d="M 1224.0,1178.0 L 1224.0,1180.0" style="stroke:#010101; fill:none;"/>
	<path d="M 1354.0,1178.0 L 1355.0,1187.0" style="stroke:#010101; fill:none;"/>
	<path d="M 1480.0,1178.0 L 1487.0,1185.0" style="stroke:#010101; fill:none;"/>
	<path d="M 1976.0,1178.0 L 1994.0,1202.0" style="stroke:#010101; fill:none;"/>
	<path d="M 1476.0,1182.0 L 1482.0,1194.0" style="stroke:#010101; fill:none;"/>
	<path d="M 1208.0,1183.0 L 1210.0,1188.0 L 1210.0,1183.0" style="stroke:#010101; fill:none;"/>
	<path d="M 1245.0,1183.0 C 1238.07,1206.46 1249.76,1238.74 1257.0,1261.0" style="stroke:#010101; fill:none;"/>
	<path d="M 1468.0,1183.0 L 1478.0,1208.0" style="stroke:#010101; fill:none;"/>
	<path d="M 2133.0,1183.0 C 2134.54,1208.98 2123.34,1239.29 2111.46,1262.0 C 2104.74,1274.85 2098.42,1283.91 2084.0,1288.0" style="stroke:#010101; fill:none;"/>
	<path d="M 1459.0,1184.0 L 1465.0,1205.0" style="stroke:#010101; fill:none;"/>
	<path d="M 1444.0,1187.0 L 1445.0,1199.0" style="stroke:#010101; fill:none;"/>
	<path d="M 1452.0,1188.0 L 1453.0,1197.0" style="stroke:#010101; fill:none;"/>
	<path d="M 1429.0,1192.0 L 1428.0,1200.0" style="stroke:#010101; fill:none;"/>
	<path d="M 1979.0,1193.0 L 2000.0,1221.0" style="stroke:#010101; fill:none;"/>
	<path d="M 1420.0,1194.0 L 1420.0,1206.0" style="stroke:#010101; fill:none;"/>
	<path d="M 1437.0,1195.0 L 1437.0,1199.0" style="stroke:#010101; fill:none;"/>
	<path d="M 1404.0,1198.0 L 1399.0,1214.0" style="stroke:#010101; fill:none;"/>
	<path d="M 363.0,1201.0 L 357.0,1245.0" style="stroke:#010101; fill:none;"/>
	<path d="M 1387.0,1217.0 L 1383.0,1224.0" style="stroke:#010101; fill:none;"/>
	<path d="M 1342.0,1218.0 C 1342.66,1225.23 1346.95,1226.66 1352.0,1231.0" style="stroke:#010101; fill:none;"/>
	<path d="M 1367.0,1223.0 L 1368.0,1223.0" style="stroke:#010101; fill:none;"/>
	<path d="M 1999.0,1224.0 C 2003.25,1231.2 2007.34,1238.02 2015.0,1242.0" style="stroke:#010101; fill:none;"/>
	<path d="M 1350.0,1227.0 L 1354.0,1229.0" style="stroke:#010101; fill:none;"/>
	<path d="M 393.0,1228.0 L 381.0,1284.0" style="stroke:#010101; fill:none;"/>
	<path d="M 378.0,1232.0 L 371.0,1267.0" style="stroke:#010101; fill:none;"/>
	<path d="M 1420.0,1243.0 C 1441.74,1247.22 1459.83,1235.85 1481.0,1233.0" style="stroke:#010101; fill:none;"/>
	<path d="M 1295.0,1239.0 C 1297.41,1257.93 1301.9,1279.47 1321.0,1287.0" style="stroke:#010101; fill:none;"/>
	<path d="M 2009.0,1245.0 L 2016.0,1255.0" style="stroke:#010101; fill:none;"/>
	<path d="M 2028.0,1246.0 C 2031.59,1257.77 2040.72,1267.3 2046.72,1278.0 C 2060.9,1303.32 2074.9,1328.76 2089.28,1354.0 C 2094.01,1362.31 2111.57,1384.62 2102.0,1392.0" style="stroke:#010101; fill:none;"/>
	<path d="M 403.0,1248.0 L 393.0,1298.0" style="stroke:#010101; fill:none;"/>
	<path d="M 1371.0,1249.0 L 1347.0,1263.0" style="stroke:#010101; fill:none;"/>
	<path d="M 419.0,1271.0 L 407.0,1312.0" style="stroke:#010101; fill:none;"/>
	<path d="M 437.0,1281.0 L 415.0,1331.0" style="stroke:#010101; fill:none;"/>
	<path d="M 1309.0,1282.0 C 1311.71,1287.68 1317.38,1290.58 1323.0,1293.0" style="stroke:#010101; fill:none;"/>
	<path d="M 989.0,1294.0 C 973.702,1295.25 958.172,1302.6 944.0,1308.09 C 922.182,1316.54 899.581,1325.39 879.0,1336.59 C 869.532,1341.74 859.319,1345.58 850.0,1351.01 C 845.309,1353.74 841.327,1357.61 836.0,1355.0 C 849.154,1343.79 865.875,1335.91 881.0,1327.69 C 899.485,1317.65 917.805,1307.35 937.0,1298.69 C 950.077,1292.8 966.228,1283.38 981.0,1286.0" style="stroke:#010101; fill:none;"/>
	<path d="M 822.0,1351.0 C 847.29,1330.94 875.37,1310.24 905.0,1297.14 C 917.892,1291.44 930.683,1286.01 945.0,1286.0" style="stroke:#010101; fill:none;"/>
	<path d="M 827.0,1371.0 L 865.0,1352.81 L 928.0,1323.31 L 975.0,1303.45 L 992.714,1298.19 L 1004.0,1287.0" style="stroke:#010101; fill:none;"/>
	<path d="M 1014.0,1288.0 C 1003.3,1298.7 993.358,1310.47 984.836,1323.0 C 983.033,1325.65 974.947,1334.86 982.063,1336.46 C 986.085,1337.36 991.143,1331.43 994.0,1329.24 C 1002.73,1322.54 1011.84,1315.38 1022.0,1311.0" style="stroke:#010101; fill:none;"/>
	<path d="M 1277.0,1288.0 L 1299.0,1320.0" style="stroke:#010101; fill:none;"/>
	<path d="M 460.0,1289.0 L 454.105,1318.0 L 441.0,1367.0" style="stroke:#010101; fill:none;"/>
	<path d="M 1327.0,1292.0 C 1345.87,1309.9 1376.4,1310.01 1400.0,1318.0" style="stroke:#010101; fill:none;"/>
	<path d="M 447.0,1293.0 L 429.0,1348.0" style="stroke:#010101; fill:none;"/>
	<path d="M 1000.0,1295.0 L 1006.0,1294.0" style="stroke:#010101; fill:none;"/>
	<path d="M 1329.0,1297.0 C 1336.5,1306.77 1350.41,1310.6 1362.0,1313.0" style="stroke:#010101; fill:none;"/>
	<path d="M 991.0,1300.0 L 994.0,1304.0" style="stroke:#010101; fill:none;"/>
	<path d="M 991.0,1302.0 C 985.558,1308.46 982.305,1316.69 976.737,1322.97 C 973.231,1326.92 968.018,1327.25 964.043,1330.61 C 958.796,1335.05 955.952,1341.79 950.741,1346.22 C 946.487,1349.84 940.052,1350.96 935.0,1353.17 C 928.735,1355.91 917.121,1364.98 911.0,1360.0 C 925.467,1351.11 943.451,1337.97 960.0,1334.0" style="stroke:#010101; fill:none;"/>
	<path d="M 1015.0,1304.0 L 980.0,1335.0" style="stroke:#010101; fill:none;"/>
	<path d="M 985.0,1310.0 L 983.0,1308.0 L 987.0,1306.0" style="stroke:#010101; fill:none;"/>
	<path d="M 982.0,1311.0 L 984.0,1307.0 L 986.0,1309.0" style="stroke:#010101; fill:none;"/>
	<path d="M 771.0,1416.0 L 767.0,1416.0 C 775.798,1409.52 786.618,1404.5 796.0,1398.79 C 836.224,1374.3 876.883,1352.19 920.0,1333.14 C 938.77,1324.85 962.235,1309.07 983.0,1308.0" style="stroke:#010101; fill:none;"/>
	<path d="M 911.0,1347.0 L 907.0,1346.0 C 913.167,1344.15 917.521,1341.62 923.0,1346.0 L 942.0,1335.74 L 959.0,1325.87 L 971.83,1321.34 L 982.0,1311.0" style="stroke:#010101; fill:none;"/>
	<path d="M 980.0,1342.0 L 975.0,1346.0 C 973.571,1343.47 972.55,1340.56 976.063,1338.92 C 979.501,1337.31 982.816,1341.04 987.004,1339.12 C 1002.49,1332.03 1014.57,1319.21 1030.0,1312.0" style="stroke:#010101; fill:none;"/>
	<path d="M 1295.0,1313.0 L 1295.0,1315.0" style="stroke:#010101; fill:none;"/>
	<path d="M 852.0,1317.0 L 793.0,1358.0" style="stroke:#010101; fill:none;"/>
	<path d="M 980.0,1323.0 L 981.0,1323.0" style="stroke:#010101; fill:none;"/>
	<path d="M 969.0,1324.0 L 969.0,1326.0" style="stroke:#010101; fill:none;"/>
	<path d="M 1049.0,1327.0 C 1065.74,1327.77 1085.94,1336.03 1101.0,1343.12 C 1107.36,1346.11 1116.16,1354.76 1123.0,1354.0 C 1120.14,1351.42 1118.76,1350.03 1115.0,1351.0" style="stroke:#010101; fill:none;"/>
	<path d="M 972.0,1329.0 L 961.0,1347.0 L 974.0,1346.0" style="stroke:#010101; fill:none;"/>
	<path d="M 929.0,1339.0 L 948.0,1330.0" style="stroke:#010101; fill:none;"/>
	<path d="M 978.0,1334.0 L 976.0,1336.0" style="stroke:#010101; fill:none;"/>
	<path d="M 957.0,1335.0 L 959.0,1337.0" style="stroke:#010101; fill:none;"/>
	<path d="M 1100.0,1337.0 L 1117.0,1349.0" style="stroke:#010101; fill:none;"/>
	<path d="M 983.0,1338.0 L 981.0,1340.0" style="stroke:#010101; fill:none;"/>
	<path d="M 801.0,1340.0 C 777.757,1363.24 759.21,1387.58 740.0,1414.0" style="stroke:#010101; fill:none;"/>
	<path d="M 920.0,1342.0 L 926.0,1340.0" style="stroke:#010101; fill:none;"/>
	<path d="M 975.0,1340.0 L 978.0,1343.0" style="stroke:#010101; fill:none;"/>
	<path d="M 460.0,1341.0 L 447.0,1377.0" style="stroke:#010101; fill:none;"/>
	<path d="M 492.0,1342.0 C 482.018,1360.72 473.784,1383.32 469.0,1404.0" style="stroke:#010101; fill:none;"/>
	<path d="M 972.0,1343.0 L 970.0,1345.0" style="stroke:#010101; fill:none;"/>
	<path d="M 841.0,1345.0 C 824.789,1354.97 803.06,1366.09 791.0,1381.0 L 817.0,1369.0 C 815.165,1375.4 805.999,1382.29 800.0,1385.0 L 798.0,1385.0 L 799.0,1386.0" style="stroke:#010101; fill:none;"/>
	<path d="M 903.0,1349.0 L 896.0,1351.0 C 901.047,1353.23 903.135,1348.95 907.0,1346.0" style="stroke:#010101; fill:none;"/>
	<path d="M 788.0,1415.0 L 787.0,1419.0 L 784.0,1415.0 L 794.0,1415.06 L 812.0,1404.06 L 851.0,1380.45 L 883.0,1362.0 C 891.667,1366.69 913.868,1350.75 922.0,1346.0" style="stroke:#010101; fill:none;"/>
	<path d="M 961.0,1347.0 L 954.0,1356.0 L 955.0,1357.0 L 962.0,1356.0 L 960.0,1355.0" style="stroke:#010101; fill:none;"/>
	<path d="M 969.0,1347.0 L 963.0,1354.0" style="stroke:#010101; fill:none;"/>
	<path d="M 904.0,1348.0 L 910.0,1348.0" style="stroke:#010101; fill:none;"/>
	<path d="M 898.0,1350.0 L 900.0,1352.0" style="stroke:#010101; fill:none;"/>
	<path d="M 474.0,1351.0 L 457.0,1388.0" style="stroke:#010101; fill:none;"/>
	<path d="M 884.0,1362.0 L 882.0,1358.0 L 896.0,1351.0" style="stroke:#010101; fill:none;"/>
	<path d="M 946.0,1351.0 C 927.218,1370.18 907.625,1387.04 885.0,1402.0" style="stroke:#010101; fill:none;"/>
	<path d="M 747.0,1414.0 L 746.0,1418.0 C 745.742,1410.77 754.355,1403.09 759.0,1398.0 C 769.375,1386.62 779.699,1375.56 791.0,1365.09 C 796.8,1359.71 802.978,1353.45 811.0,1352.0" style="stroke:#010101; fill:none;"/>
	<path d="M 1121.0,1352.0 L 1119.0,1354.0" style="stroke:#010101; fill:none;"/>
	<path d="M 898.0,1354.0 L 886.0,1361.0" style="stroke:#010101; fill:none;"/>
	<path d="M 946.0,1361.0 L 954.0,1354.0" style="stroke:#010101; fill:none;"/>
	<path d="M 1123.0,1354.0 L 1140.0,1379.0" style="stroke:#010101; fill:none;"/>
	<path d="M 838.0,1358.0 C 834.489,1360.01 832.687,1360.81 829.0,1359.0 L 836.0,1355.0" style="stroke:#010101; fill:none;"/>
	<path d="M 953.0,1357.0 L 956.0,1357.0" style="stroke:#010101; fill:none;"/>
	<path d="M 1123.0,1357.0 L 1125.0,1358.0" style="stroke:#010101; fill:none;"/>
	<path d="M 789.0,1414.0 C 793.016,1406.09 803.821,1401.42 811.0,1396.65 C 832.065,1382.63 857.499,1365.06 882.0,1358.0" style="stroke:#010101; fill:none;"/>
	<path d="M 953.0,1358.0 L 925.0,1379.0" style="stroke:#010101; fill:none;"/>
	<path d="M 825.0,1361.0 L 823.0,1365.0 L 829.0,1359.0" style="stroke:#010101; fill:none;"/>
	<path d="M 909.0,1362.0 L 907.0,1366.0 L 911.0,1360.0" style="stroke:#010101; fill:none;"/>
	<path d="M 914.0,1360.0 L 914.0,1362.0" style="stroke:#010101; fill:none;"/>
	<path d="M 1126.0,1360.0 L 1127.0,1361.0" style="stroke:#010101; fill:none;"/>
	<path d="M 905.0,1366.0 L 906.0,1361.0" style="stroke:#010101; fill:none;"/>
	<path d="M 936.0,1364.0 L 944.0,1361.0" style="stroke:#010101; fill:none;"/>
	<path d="M 904.0,1362.0 L 906.0,1364.0" style="stroke:#010101; fill:none;"/>
	<path d="M 828.0,1363.0 L 831.0,1362.0" style="stroke:#010101; fill:none;"/>
	<path d="M 789.0,1425.0 L 791.0,1428.0 L 787.0,1429.0 L 801.0,1420.1 L 828.0,1404.43 L 902.0,1363.0" style="stroke:#010101; fill:none;"/>
	<path d="M 924.0,1371.0 C 920.453,1365.5 929.295,1364.35 933.0,1366.0" style="stroke:#010101; fill:none;"/>
	<path d="M 2078.0,1364.0 C 2080.56,1371.35 2091.95,1376.6 2099.0,1373.0" style="stroke:#010101; fill:none;"/>
	<path d="M 942.0,1367.0 L 945.0,1365.0" style="stroke:#010101; fill:none;"/>
	<path d="M 500.0,1366.0 C 490.579,1383.88 484.511,1407.32 480.0,1427.0" style="stroke:#010101; fill:none;"/>
	<path d="M 818.0,1368.0 L 822.0,1366.0" style="stroke:#010101; fill:none;"/>
	<path d="M 881.0,1366.0 L 882.0,1364.0" style="stroke:#010101; fill:none;"/>
	<path d="M 819.0,1446.0 L 809.0,1452.0 L 818.0,1437.0 L 810.0,1440.0 L 817.0,1427.0 L 793.0,1442.0 C 789.242,1430.33 807.985,1421.88 816.0,1417.0 C 844.913,1399.41 875.846,1384.63 904.0,1366.0" style="stroke:#010101; fill:none;"/>
	<path d="M 944.0,1368.0 L 943.0,1371.0" style="stroke:#010101; fill:none;"/>
	<path d="M 1052.0,1368.0 C 1045.13,1372.95 1036.1,1371.91 1028.0,1372.0 C 1012.78,1372.18 996.152,1370.14 981.0,1372.3 C 965.148,1374.57 944.47,1378.47 930.0,1385.4 C 914.843,1392.67 901.315,1404.29 887.0,1412.0 L 891.0,1410.0" style="stroke:#010101; fill:none;"/>
	<path d="M 883.0,1394.0 C 882.329,1397.44 881.025,1397.4 878.0,1396.0 L 885.0,1391.0 L 891.0,1393.0 L 891.0,1387.0 C 895.551,1388.3 895.772,1383.75 899.094,1381.23 C 905.526,1376.37 913.612,1372.18 921.0,1369.0" style="stroke:#010101; fill:none;"/>
	<path d="M 1051.0,1372.0 C 1072.8,1377.05 1099.74,1397.39 1108.97,1418.0 C 1114.64,1430.69 1115.0,1446.35 1115.0,1460.0" style="stroke:#010101; fill:none;"/>
	<path d="M 750.0,1375.0 C 746.492,1384.64 734.273,1398.52 737.0,1409.0 L 754.0,1380.0" style="stroke:#010101; fill:none;"/>
	<path d="M 804.0,1381.0 L 808.0,1379.0" style="stroke:#010101; fill:none;"/>
	<path d="M 727.0,1380.0 C 713.962,1394.2 706.615,1413.12 700.053,1431.0 C 696.759,1439.98 695.038,1453.68 687.151,1458.91 C 682.166,1462.22 678.911,1473.45 673.0,1473.0 L 677.0,1473.0" style="stroke:#010101; fill:none;"/>
	<path d="M 749.0,1415.0 C 759.717,1404.29 775.489,1386.89 790.0,1382.0" style="stroke:#010101; fill:none;"/>
	<path d="M 799.0,1384.0 L 803.0,1382.0" style="stroke:#010101; fill:none;"/>
	<path d="M 892.0,1386.0 L 891.0,1382.0 L 891.0,1387.0" style="stroke:#010101; fill:none;"/>
	<path d="M 889.0,1383.0 L 890.0,1388.0" style="stroke:#010101; fill:none;"/>
	<path d="M 740.0,1384.0 L 721.719,1422.0 L 717.0,1439.0 L 724.0,1434.0 L 721.0,1451.0 C 714.84,1455.15 709.919,1466.58 711.0,1474.0 C 724.637,1461.5 737.397,1442.23 748.0,1427.0 L 740.0,1432.0" style="stroke:#010101; fill:none;"/>
	<path d="M 799.0,1387.0 L 796.0,1389.0 L 798.0,1385.0" style="stroke:#010101; fill:none;"/>
	<path d="M 885.0,1390.0 L 884.0,1387.0 L 887.0,1385.0" style="stroke:#010101; fill:none;"/>
	<path d="M 717.0,1386.0 L 700.778,1412.0 L 697.0,1420.0" style="stroke:#010101; fill:none;"/>
	<path d="M 794.0,1387.0 C 777.712,1399.52 760.509,1410.34 748.0,1427.0" style="stroke:#010101; fill:none;"/>
	<path d="M 818.0,1426.0 C 837.706,1412.13 861.093,1395.34 884.0,1387.0" style="stroke:#010101; fill:none;"/>
	<path d="M 752.0,1391.0 L 757.0,1388.0" style="stroke:#010101; fill:none;"/>
	<path d="M 733.0,1389.0 C 720.187,1405.8 714.562,1427.36 705.142,1446.0 C 702.196,1451.83 694.18,1461.11 697.0,1467.0 L 717.0,1439.0" style="stroke:#010101; fill:none;"/>
	<path d="M 797.0,1389.0 L 790.0,1396.0 L 797.0,1394.0" style="stroke:#010101; fill:none;"/>
	<path d="M 886.0,1389.0 L 889.0,1389.0" style="stroke:#010101; fill:none;"/>
	<path d="M 2107.0,1389.0 C 2116.13,1400.11 2121.64,1416.02 2127.78,1429.0 C 2130.67,1435.11 2134.35,1440.05 2128.0,1445.0" style="stroke:#010101; fill:none;"/>
	<path d="M 505.0,1393.0 L 491.0,1446.0" style="stroke:#010101; fill:none;"/>
	<path d="M 936.0,1403.0 L 933.0,1399.0 C 948.003,1391.66 967.112,1394.9 983.0,1395.91 C 997.246,1396.82 1011.58,1395.63 1026.0,1396.83 C 1036.91,1397.73 1045.78,1395.67 1056.0,1401.0" style="stroke:#010101; fill:none;"/>
	<path d="M 885.0,1396.0 L 887.0,1395.0" style="stroke:#010101; fill:none;"/>
	<path d="M 791.0,1402.0 C 786.206,1402.08 786.668,1399.33 789.0,1396.0 L 790.0,1396.0" style="stroke:#010101; fill:none;"/>
	<path d="M 862.0,1413.0 L 861.0,1411.0 C 869.485,1411.75 874.511,1402.08 878.0,1396.0" style="stroke:#010101; fill:none;"/>
	<path d="M 792.0,1397.0 L 789.0,1400.0" style="stroke:#010101; fill:none;"/>
	<path d="M 875.0,1402.0 L 872.0,1398.0 L 876.0,1397.0" style="stroke:#010101; fill:none;"/>
	<path d="M 876.0,1398.0 L 874.0,1400.0" style="stroke:#010101; fill:none;"/>
	<path d="M 848.0,1421.0 L 850.0,1423.0 L 841.0,1426.0 C 839.404,1416.85 864.039,1398.34 872.0,1402.0 L 866.0,1408.0" style="stroke:#010101; fill:none;"/>
	<path d="M 934.0,1402.0 C 930.116,1403.12 929.83,1400.86 933.0,1399.0 L 933.0,1399.0" style="stroke:#010101; fill:none;"/>
	<path d="M 779.0,1408.0 L 785.0,1400.0" style="stroke:#010101; fill:none;"/>
	<path d="M 867.0,1401.0 L 869.0,1403.0" style="stroke:#010101; fill:none;"/>
	<path d="M 874.0,1401.0 L 872.0,1403.0" style="stroke:#010101; fill:none;"/>
	<path d="M 1026.0,1401.0 C 1033.66,1405.24 1048.27,1415.97 1044.51,1426.96 C 1041.66,1435.28 1022.04,1441.36 1015.04,1446.34 C 994.57,1460.92 980.04,1483.73 960.0,1499.0 C 958.308,1491.09 962.408,1482.19 961.816,1474.0 C 960.32,1453.3 948.156,1438.53 933.0,1425.87 C 925.754,1419.82 904.624,1411.88 897.466,1422.19 C 892.374,1429.52 906.971,1427.56 910.0,1427.0" style="stroke:#010101; fill:none;"/>
	<path d="M 929.0,1402.0 C 922.091,1407.85 910.346,1407.39 907.0,1417.0" style="stroke:#010101; fill:none;"/>
	<path d="M 990.0,1402.0 L 1022.0,1403.0" style="stroke:#010101; fill:none;"/>
	<path d="M 1059.0,1403.0 C 1068.16,1413.89 1057.92,1424.27 1046.0,1427.0" style="stroke:#010101; fill:none;"/>
	<path d="M 926.0,1406.0 C 935.628,1412.9 963.232,1405.49 975.0,1404.0" style="stroke:#010101; fill:none;"/>
	<path d="M 779.0,1405.0 L 781.0,1407.0" style="stroke:#010101; fill:none;"/>
	<path d="M 894.0,1410.0 L 892.0,1407.0 L 897.0,1406.0" style="stroke:#010101; fill:none;"/>
	<path d="M 776.0,1407.0 L 778.0,1410.0" style="stroke:#010101; fill:none;"/>
	<path d="M 865.0,1410.0 L 866.0,1408.0" style="stroke:#010101; fill:none;"/>
	<path d="M 863.0,1408.0 L 861.0,1410.0" style="stroke:#010101; fill:none;"/>
	<path d="M 890.0,1408.0 L 890.0,1409.0" style="stroke:#010101; fill:none;"/>
	<path d="M 734.0,1410.0 L 737.0,1410.0" style="stroke:#010101; fill:none;"/>
	<path d="M 771.0,1413.0 L 776.0,1411.0 L 776.0,1411.0" style="stroke:#010101; fill:none;"/>
	<path d="M 733.0,1411.0 L 735.0,1414.0 L 736.0,1411.0" style="stroke:#010101; fill:none;"/>
	<path d="M 773.0,1411.0 L 775.0,1413.0" style="stroke:#010101; fill:none;"/>
	<path d="M 888.0,1414.0 L 882.0,1415.0 L 887.0,1412.0" style="stroke:#010101; fill:none;"/>
	<path d="M 860.0,1415.0 L 856.0,1414.0 L 860.0,1415.0" style="stroke:#010101; fill:none;"/>
	<path d="M 732.0,1414.0 L 725.0,1433.0" style="stroke:#010101; fill:none;"/>
	<path d="M 735.0,1414.0 L 733.0,1418.0" style="stroke:#010101; fill:none;"/>
	<path d="M 881.0,1414.0 L 851.0,1443.0" style="stroke:#010101; fill:none;"/>
	<path d="M 728.0,1459.0 C 737.992,1443.39 751.754,1426.74 767.0,1416.0" style="stroke:#010101; fill:none;"/>
	<path d="M 682.0,1548.0 C 689.657,1521.42 713.408,1497.66 731.384,1477.83 C 740.135,1468.18 747.346,1457.13 756.116,1447.42 C 765.014,1437.58 769.123,1421.58 783.0,1417.0" style="stroke:#010101; fill:none;"/>
	<path d="M 849.0,1420.0 L 855.0,1416.0 L 852.0,1422.0" style="stroke:#010101; fill:none;"/>
	<path d="M 745.0,1417.0 L 731.0,1435.0" style="stroke:#010101; fill:none;"/>
	<path d="M 768.0,1417.0 L 752.17,1435.0 L 724.0,1471.0" style="stroke:#010101; fill:none;"/>
	<path d="M 798.0,1417.0 L 791.0,1424.0" style="stroke:#010101; fill:none;"/>
	<path d="M 764.0,1418.0 L 766.0,1420.0" style="stroke:#010101; fill:none;"/>
	<path d="M 780.0,1418.0 L 783.0,1421.0 L 783.0,1418.0" style="stroke:#010101; fill:none;"/>
	<path d="M 788.0,1418.0 L 791.0,1417.0" style="stroke:#010101; fill:none;"/>
	<path d="M 867.0,1427.0 L 883.0,1418.0" style="stroke:#010101; fill:none;"/>
	<path d="M 851.0,1419.0 L 853.0,1421.0" style="stroke:#010101; fill:none;"/>
	<path d="M 695.0,1420.0 C 687.12,1429.59 683.356,1442.39 679.485,1454.0 C 677.624,1459.58 675.147,1464.44 678.0,1470.0" style="stroke:#010101; fill:none;"/>
	<path d="M 837.0,1423.0 L 833.0,1426.0 C 835.67,1422.77 837.783,1421.31 842.0,1422.0" style="stroke:#010101; fill:none;"/>
	<path d="M 696.0,1421.0 C 693.832,1433.59 680.377,1449.37 683.0,1462.0" style="stroke:#010101; fill:none;"/>
	<path d="M 762.0,1421.0 L 764.0,1423.0" style="stroke:#010101; fill:none;"/>
	<path d="M 783.0,1421.0 L 767.0,1435.0" style="stroke:#010101; fill:none;"/>
	<path d="M 843.0,1421.0 L 846.0,1423.0" style="stroke:#010101; fill:none;"/>
	<path d="M 513.0,1422.0 L 501.0,1461.0" style="stroke:#010101; fill:none;"/>
	<path d="M 794.0,1422.0 L 796.0,1424.0" style="stroke:#010101; fill:none;"/>
	<path d="M 842.0,1422.0 C 845.228,1424.51 846.419,1425.05 850.0,1423.0" style="stroke:#010101; fill:none;"/>
	<path d="M 844.0,1422.0 L 844.0,1424.0" style="stroke:#010101; fill:none;"/>
	<path d="M 760.0,1423.0 L 762.0,1425.0" style="stroke:#010101; fill:none;"/>
	<path d="M 846.0,1423.0 L 848.0,1425.0" style="stroke:#010101; fill:none;"/>
	<path d="M 746.0,1426.0 L 750.0,1424.0" style="stroke:#010101; fill:none;"/>
	<path d="M 832.0,1425.0 L 818.0,1437.0" style="stroke:#010101; fill:none;"/>
	<path d="M 841.0,1426.0 C 840.715,1434.81 833.701,1439.88 828.17,1446.0 C 818.041,1457.2 807.532,1468.29 798.0,1480.0" style="stroke:#010101; fill:none;"/>
	<path d="M 847.0,1426.0 C 839.76,1430.84 822.097,1438.65 825.0,1450.0" style="stroke:#010101; fill:none;"/>
	<path d="M 881.0,1450.0 C 862.372,1444.62 885.065,1430.09 894.0,1426.0" style="stroke:#010101; fill:none;"/>
	<path d="M 715.0,1430.0 L 719.0,1429.0" style="stroke:#010101; fill:none;"/>
	<path d="M 835.0,1427.0 L 833.0,1429.0" style="stroke:#010101; fill:none;"/>
	<path d="M 864.0,1430.0 L 868.0,1429.0" style="stroke:#010101; fill:none;"/>
	<path d="M 758.0,1456.0 C 761.655,1464.18 742.65,1481.09 737.0,1487.0 C 732.014,1480.96 741.908,1472.55 745.95,1468.0 C 751.506,1461.74 760.549,1457.66 765.441,1451.62 C 770.817,1444.99 772.597,1436.62 782.0,1432.8 C 785.282,1431.47 788.573,1433.74 792.0,1433.0" style="stroke:#010101; fill:none;"/>
	<path d="M 888.0,1431.0 L 896.0,1434.0" style="stroke:#010101; fill:none;"/>
	<path d="M 866.0,1432.0 L 852.0,1447.0" style="stroke:#010101; fill:none;"/>
	<path d="M 729.0,1480.0 C 726.327,1474.46 731.048,1470.41 734.374,1466.0 C 742.875,1454.73 752.601,1441.39 764.0,1433.0" style="stroke:#010101; fill:none;"/>
	<path d="M 785.0,1433.0 L 785.0,1436.0 L 788.0,1435.0" style="stroke:#010101; fill:none;"/>
	<path d="M 861.0,1433.0 L 863.0,1435.0" style="stroke:#010101; fill:none;"/>
	<path d="M 781.0,1434.0 L 784.0,1437.0" style="stroke:#010101; fill:none;"/>
	<path d="M 791.0,1434.0 L 793.0,1436.0" style="stroke:#010101; fill:none;"/>
	<path d="M 831.0,1435.0 L 830.0,1438.0" style="stroke:#010101; fill:none;"/>
	<path d="M 720.0,1437.0 L 723.0,1440.0" style="stroke:#010101; fill:none;"/>
	<path d="M 783.0,1437.0 L 769.0,1450.0" style="stroke:#010101; fill:none;"/>
	<path d="M 804.0,1437.0 C 800.75,1441.22 796.173,1445.54 798.0,1451.0 L 810.0,1440.0" style="stroke:#010101; fill:none;"/>
	<path d="M 821.0,1444.0 L 829.0,1437.0" style="stroke:#010101; fill:none;"/>
	<path d="M 791.0,1440.0 C 789.883,1442.3 789.557,1442.41 792.0,1442.0" style="stroke:#010101; fill:none;"/>
	<path d="M 875.0,1440.0 C 879.73,1443.41 884.318,1443.67 890.0,1443.0" style="stroke:#010101; fill:none;"/>
	<path d="M 2133.0,1442.0 C 2143.7,1457.65 2150.46,1480.77 2155.37,1499.0 C 2158.16,1509.33 2161.84,1515.52 2153.0,1524.0" style="stroke:#010101; fill:none;"/>
	<path d="M 777.0,1448.0 L 776.0,1452.0 L 789.0,1443.0" style="stroke:#010101; fill:none;"/>
	<path d="M 520.0,1445.0 L 509.0,1481.0" style="stroke:#010101; fill:none;"/>
	<path d="M 820.0,1445.0 L 822.0,1447.0" style="stroke:#010101; fill:none;"/>
	<path d="M 863.0,1471.0 C 858.533,1458.73 859.619,1453.7 871.0,1445.0" style="stroke:#010101; fill:none;"/>
	<path d="M 817.0,1447.0 L 819.0,1446.0" style="stroke:#010101; fill:none;"/>
	<path d="M 699.0,1447.0 L 692.0,1453.0" style="stroke:#010101; fill:none;"/>
	<path d="M 722.0,1447.0 L 721.0,1449.0" style="stroke:#010101; fill:none;"/>
	<path d="M 766.0,1448.0 L 763.0,1452.0" style="stroke:#010101; fill:none;"/>
	<path d="M 765.0,1449.0 L 767.0,1449.0" style="stroke:#010101; fill:none;"/>
	<path d="M 785.0,1449.0 L 780.0,1463.0 L 796.0,1449.0" style="stroke:#010101; fill:none;"/>
	<path d="M 815.0,1449.0 L 819.0,1449.0" style="stroke:#010101; fill:none;"/>
	<path d="M 821.0,1449.0 C 817.785,1452.95 812.658,1456.7 814.0,1462.0" style="stroke:#010101; fill:none;"/>
	<path d="M 718.0,1450.0 L 718.0,1452.0" style="stroke:#010101; fill:none;"/>
	<path d="M 816.0,1450.0 L 817.0,1453.0" style="stroke:#010101; fill:none;"/>
	<path d="M 866.0,1450.0 L 875.0,1456.0" style="stroke:#010101; fill:none;"/>
	<path d="M 776.0,1452.0 C 769.683,1459.76 763.689,1467.6 763.0,1478.0 L 773.0,1472.0 C 771.165,1482.66 760.203,1495.41 763.0,1506.0 L 788.0,1461.0" style="stroke:#010101; fill:none;"/>
	<path d="M 796.0,1452.0 L 795.0,1453.0" style="stroke:#010101; fill:none;"/>
	<path d="M 800.0,1452.0 C 797.11,1456.37 793.197,1460.71 795.0,1466.0 L 809.0,1452.0" style="stroke:#010101; fill:none;"/>
	<path d="M 689.0,1458.0 L 692.0,1453.0" style="stroke:#010101; fill:none;"/>
	<path d="M 719.0,1453.0 L 718.0,1463.0" style="stroke:#010101; fill:none;"/>
	<path d="M 812.0,1457.0 L 814.0,1453.0 L 816.0,1455.0" style="stroke:#010101; fill:none;"/>
	<path d="M 699.0,1457.0 L 701.0,1454.0" style="stroke:#010101; fill:none;"/>
	<path d="M 762.0,1455.0 L 761.0,1458.0" style="stroke:#010101; fill:none;"/>
	<path d="M 709.0,1456.0 L 668.0,1535.0 L 670.0,1532.0" style="stroke:#010101; fill:none;"/>
	<path d="M 786.0,1487.0 L 812.0,1457.0" style="stroke:#010101; fill:none;"/>
	<path d="M 863.0,1457.0 L 870.0,1464.0" style="stroke:#010101; fill:none;"/>
	<path d="M 895.0,1458.0 C 901.495,1459.26 906.915,1463.68 909.0,1470.0 L 906.0,1472.0" style="stroke:#010101; fill:none;"/>
	<path d="M 698.0,1459.0 L 700.0,1462.0" style="stroke:#010101; fill:none;"/>
	<path d="M 700.0,1459.0 L 699.0,1460.0" style="stroke:#010101; fill:none;"/>
	<path d="M 690.0,1460.0 C 687.607,1465.34 684.071,1471.56 687.0,1477.0 L 695.0,1465.0" style="stroke:#010101; fill:none;"/>
	<path d="M 755.0,1466.0 L 768.0,1461.0" style="stroke:#010101; fill:none;"/>
	<path d="M 857.0,1461.0 C 854.626,1463.45 852.903,1465.75 851.0,1462.0 L 851.0,1462.0" style="stroke:#010101; fill:none;"/>
	<path d="M 681.0,1462.0 L 681.0,1463.0" style="stroke:#010101; fill:none;"/>
	<path d="M 780.0,1463.0 L 774.0,1471.0" style="stroke:#010101; fill:none;"/>
	<path d="M 892.0,1463.0 C 890.436,1469.57 890.891,1479.47 896.394,1484.35 C 907.573,1494.25 913.787,1479.44 910.0,1470.0" style="stroke:#010101; fill:none;"/>
	<path d="M 793.0,1464.0 L 786.0,1478.0 L 796.0,1466.0" style="stroke:#010101; fill:none;"/>
	<path d="M 829.0,1465.0 L 810.334,1496.0 L 766.0,1549.0 L 768.0,1548.0" style="stroke:#010101; fill:none;"/>
	<path d="M 521.0,1466.0 L 514.0,1496.0" style="stroke:#010101; fill:none;"/>
	<path d="M 685.0,1469.0 L 687.0,1466.0" style="stroke:#010101; fill:none;"/>
	<path d="M 677.0,1602.0 C 685.264,1573.31 706.635,1549.66 722.201,1525.0 C 734.188,1506.01 746.38,1480.39 765.0,1467.0" style="stroke:#010101; fill:none;"/>
	<path d="M 851.0,1467.0 L 838.0,1486.0 L 836.0,1481.0" style="stroke:#010101; fill:none;"/>
	<path d="M 855.0,1467.0 L 859.0,1476.0" style="stroke:#010101; fill:none;"/>
	<path d="M 697.0,1468.0 L 670.0,1526.0" style="stroke:#010101; fill:none;"/>
	<path d="M 675.0,1469.0 L 675.0,1471.0" style="stroke:#010101; fill:none;"/>
	<path d="M 763.0,1469.0 L 765.0,1471.0" style="stroke:#010101; fill:none;"/>
	<path d="M 829.0,1470.0 L 827.0,1472.0" style="stroke:#010101; fill:none;"/>
	<path d="M 842.0,1470.0 L 841.0,1477.0" style="stroke:#010101; fill:none;"/>
	<path d="M 679.0,1487.0 L 676.0,1490.0 L 684.0,1472.0" style="stroke:#010101; fill:none;"/>
	<path d="M 851.0,1472.0 L 850.0,1494.0" style="stroke:#010101; fill:none;"/>
	<path d="M 711.0,1474.0 L 678.0,1528.0 L 680.0,1526.0" style="stroke:#010101; fill:none;"/>
	<path d="M 643.0,1545.0 C 645.386,1527.29 652.814,1508.88 660.753,1493.0 C 664.151,1486.2 667.101,1479.0 673.0,1474.0" style="stroke:#010101; fill:none;"/>
	<path d="M 675.0,1475.0 L 673.0,1476.0" style="stroke:#010101; fill:none;"/>
	<path d="M 687.0,1477.0 C 684.031,1487.31 677.786,1497.23 673.309,1507.0 C 671.563,1510.81 670.733,1515.36 666.0,1515.0 L 665.0,1516.0 L 663.0,1525.0 L 661.0,1521.0 L 668.0,1518.0" style="stroke:#010101; fill:none;"/>
	<path d="M 681.0,1539.0 C 693.713,1518.3 707.49,1493.02 726.0,1477.0" style="stroke:#010101; fill:none;"/>
	<path d="M 674.0,1478.0 C 664.754,1500.28 652.129,1519.37 649.0,1544.0" style="stroke:#010101; fill:none;"/>
	<path d="M 763.0,1478.0 L 725.0,1526.0" style="stroke:#010101; fill:none;"/>
	<path d="M 784.0,1478.0 L 787.0,1478.0" style="stroke:#010101; fill:none;"/>
	<path d="M 846.0,1478.0 L 847.0,1495.0" style="stroke:#010101; fill:none;"/>
	<path d="M 784.0,1479.0 L 782.0,1484.0 L 784.0,1481.0" style="stroke:#010101; fill:none;"/>
	<path d="M 782.0,1484.0 L 767.0,1509.0" style="stroke:#010101; fill:none;"/>
	<path d="M 734.0,1485.0 C 707.216,1514.08 685.993,1553.1 670.0,1589.0" style="stroke:#010101; fill:none;"/>
	<path d="M 838.0,1486.0 C 836.494,1517.72 871.323,1542.9 901.0,1532.0" style="stroke:#010101; fill:none;"/>
	<path d="M 733.0,1487.0 L 737.0,1488.0" style="stroke:#010101; fill:none;"/>
	<path d="M 736.0,1489.0 C 730.471,1496.6 727.268,1505.45 722.061,1513.0 C 706.505,1535.55 682.956,1562.11 678.0,1590.0" style="stroke:#010101; fill:none;"/>
	<path d="M 756.0,1490.0 L 752.0,1499.0" style="stroke:#010101; fill:none;"/>
	<path d="M 812.0,1549.0 C 813.461,1541.14 816.882,1536.23 819.285,1529.0 C 823.272,1517.0 821.761,1509.05 829.221,1497.83 C 831.759,1494.01 832.044,1490.82 837.0,1490.0" style="stroke:#010101; fill:none;"/>
	<path d="M 675.0,1491.0 L 666.0,1512.0 L 668.0,1510.0" style="stroke:#010101; fill:none;"/>
	<path d="M 724.0,1499.0 L 725.0,1495.0" style="stroke:#010101; fill:none;"/>
	<path d="M 1034.0,1496.0 L 1014.0,1527.0" style="stroke:#010101; fill:none;"/>
	<path d="M 722.0,1497.0 C 706.041,1514.33 684.566,1539.57 679.0,1563.0" style="stroke:#010101; fill:none;"/>
	<path d="M 823.0,1498.0 L 824.0,1504.0" style="stroke:#010101; fill:none;"/>
	<path d="M 736.0,1529.0 L 762.0,1499.0" style="stroke:#010101; fill:none;"/>
	<path d="M 958.0,1500.0 C 952.717,1507.35 944.213,1512.4 937.0,1517.73 C 918.915,1531.1 897.635,1543.12 877.0,1552.08 C 868.91,1555.59 859.091,1563.08 850.0,1563.19 C 832.014,1563.42 825.769,1549.35 819.032,1536.0 C 815.307,1528.62 811.731,1519.53 819.0,1513.0" style="stroke:#010101; fill:none;"/>
	<path d="M 2150.0,1500.0 L 2147.0,1508.0" style="stroke:#010101; fill:none;"/>
	<path d="M 830.0,1501.0 L 826.0,1530.0" style="stroke:#010101; fill:none;"/>
	<path d="M 1005.0,1502.0 L 1006.0,1506.0" style="stroke:#010101; fill:none;"/>
	<path d="M 837.0,1503.0 L 835.0,1516.0" style="stroke:#010101; fill:none;"/>
	<path d="M 980.0,1503.0 L 991.0,1515.0" style="stroke:#010101; fill:none;"/>
	<path d="M 995.0,1503.0 L 999.0,1518.0" style="stroke:#010101; fill:none;"/>
	<path d="M 532.0,1505.0 C 525.013,1529.86 519.0,1559.15 519.0,1585.0" style="stroke:#010101; fill:none;"/>
	<path d="M 761.0,1506.0 L 762.0,1509.0 L 763.0,1506.0" style="stroke:#010101; fill:none;"/>
	<path d="M 761.0,1508.0 L 755.273,1520.71 L 736.0,1542.0" style="stroke:#010101; fill:none;"/>
	<path d="M 815.0,1508.0 L 816.0,1514.0" style="stroke:#010101; fill:none;"/>
	<path d="M 668.0,1513.0 L 670.0,1515.0" style="stroke:#010101; fill:none;"/>
	<path d="M 666.0,1514.0 L 666.0,1515.0" style="stroke:#010101; fill:none;"/>
	<path d="M 816.0,1515.0 L 820.0,1519.0" style="stroke:#010101; fill:none;"/>
	<path d="M 809.0,1518.0 L 808.0,1540.0 L 807.0,1536.0" style="stroke:#010101; fill:none;"/>
	<path d="M 967.0,1518.0 L 973.0,1528.0" style="stroke:#010101; fill:none;"/>
	<path d="M 2161.0,1518.0 C 2163.48,1525.77 2162.9,1529.35 2161.0,1537.0" style="stroke:#010101; fill:none;"/>
	<path d="M 812.0,1522.0 L 814.0,1521.0" style="stroke:#010101; fill:none;"/>
	<path d="M 660.0,1525.0 L 660.0,1533.0 L 660.0,1527.0" style="stroke:#010101; fill:none;"/>
	<path d="M 663.0,1525.0 L 663.0,1528.0" style="stroke:#010101; fill:none;"/>
	<path d="M 955.0,1525.0 L 961.0,1537.0" style="stroke:#010101; fill:none;"/>
	<path d="M 816.0,1527.0 L 819.0,1527.0" style="stroke:#010101; fill:none;"/>
	<path d="M 678.0,1528.0 L 666.0,1549.0 L 668.0,1547.0" style="stroke:#010101; fill:none;"/>
	<path d="M 1177.0,1528.0 C 1186.93,1579.18 1199.79,1628.7 1219.69,1677.0 C 1227.24,1695.3 1236.21,1721.35 1251.0,1735.0" style="stroke:#010101; fill:none;"/>
	<path d="M 679.0,1529.0 L 677.0,1534.0" style="stroke:#010101; fill:none;"/>
	<path d="M 946.0,1531.0 C 943.3,1541.69 950.661,1554.15 960.0,1559.0" style="stroke:#010101; fill:none;"/>
	<path d="M 657.0,1532.0 L 660.0,1534.0" style="stroke:#010101; fill:none;"/>
	<path d="M 800.0,1532.0 L 803.0,1543.0 L 804.0,1540.0" style="stroke:#010101; fill:none;"/>
	<path d="M 2165.0,1533.0 C 2166.96,1539.11 2169.49,1545.12 2166.0,1551.0" style="stroke:#010101; fill:none;"/>
	<path d="M 656.0,1534.0 L 658.0,1538.0 L 659.0,1535.0" style="stroke:#010101; fill:none;"/>
	<path d="M 677.0,1534.0 L 676.0,1537.0" style="stroke:#010101; fill:none;"/>
	<path d="M 668.0,1535.0 C 660.846,1543.86 657.093,1557.71 657.0,1569.0" style="stroke:#010101; fill:none;"/>
	<path d="M 669.0,1536.0 L 670.0,1545.0" style="stroke:#010101; fill:none;"/>
	<path d="M 655.0,1537.0 L 655.0,1538.0" style="stroke:#010101; fill:none;"/>
	<path d="M 658.0,1538.0 L 652.0,1565.0" style="stroke:#010101; fill:none;"/>
	<path d="M 934.0,1538.0 L 942.0,1562.0" style="stroke:#010101; fill:none;"/>
	<path d="M 809.0,1541.0 L 808.0,1556.0" style="stroke:#010101; fill:none;"/>
	<path d="M 535.0,1542.0 C 528.866,1565.7 525.561,1590.55 525.0,1615.0" style="stroke:#010101; fill:none;"/>
	<path d="M 721.0,1542.0 C 703.209,1562.87 692.65,1587.61 679.0,1611.0" style="stroke:#010101; fill:none;"/>
	<path d="M 1598.0,1542.0 L 1640.0,1587.0" style="stroke:#010101; fill:none;"/>
	<path d="M 676.0,1543.0 C 668.548,1556.98 660.698,1574.98 660.0,1591.0" style="stroke:#010101; fill:none;"/>
	<path d="M 802.0,1543.0 L 800.0,1575.0 L 846.0,1565.0" style="stroke:#010101; fill:none;"/>
	<path d="M 667.0,1544.0 L 667.0,1546.0" style="stroke:#010101; fill:none;"/>
	<path d="M 925.0,1544.0 C 925.005,1551.01 925.733,1556.25 930.0,1562.0" style="stroke:#010101; fill:none;"/>
	<path d="M 916.0,1545.0 C 912.765,1552.28 910.825,1562.82 915.0,1570.0 C 908.93,1574.03 910.357,1577.42 914.0,1583.0 L 917.0,1579.0 L 913.0,1580.0" style="stroke:#010101; fill:none;"/>
	<path d="M 931.0,1545.0 L 934.0,1556.0" style="stroke:#010101; fill:none;"/>
	<path d="M 797.0,1547.0 C 795.379,1551.3 787.706,1573.67 798.0,1569.0" style="stroke:#010101; fill:none;"/>
	<path d="M 2168.0,1549.0 L 2175.0,1565.0 L 2179.0,1557.0" style="stroke:#010101; fill:none;"/>
	<path d="M 665.0,1550.0 C 667.33,1558.51 660.22,1572.85 657.0,1581.0" style="stroke:#010101; fill:none;"/>
	<path d="M 765.0,1550.0 C 755.452,1568.15 755.0,1583.89 755.0,1604.0" style="stroke:#010101; fill:none;"/>
	<path d="M 667.0,1551.0 L 666.0,1552.0" style="stroke:#010101; fill:none;"/>
	<path d="M 545.0,1559.0 L 540.0,1630.0" style="stroke:#010101; fill:none;"/>
	<path d="M 2159.0,1560.0 L 2170.0,1566.0" style="stroke:#010101; fill:none;"/>
	<path d="M 844.0,1562.0 L 844.0,1564.0" style="stroke:#010101; fill:none;"/>
	<path d="M 907.0,1563.0 L 909.0,1572.0" style="stroke:#010101; fill:none;"/>
	<path d="M 901.0,1583.0 C 896.994,1578.11 896.354,1568.55 901.0,1564.0 L 901.0,1577.0" style="stroke:#010101; fill:none;"/>
	<path d="M 2175.0,1565.0 L 2180.0,1581.0 L 2185.0,1577.0" style="stroke:#010101; fill:none;"/>
	<path d="M 884.0,1607.0 C 883.77,1595.84 879.921,1578.28 888.0,1569.0" style="stroke:#010101; fill:none;"/>
	<path d="M 912.0,1569.0 L 912.0,1571.0" style="stroke:#010101; fill:none;"/>
	<path d="M 791.0,1570.0 L 788.0,1591.0 L 793.0,1583.0" style="stroke:#010101; fill:none;"/>
	<path d="M 882.0,1608.0 C 879.23,1601.0 870.456,1573.18 882.0,1571.0" style="stroke:#010101; fill:none;"/>
	<path d="M 711.0,1571.0 C 702.468,1582.52 692.156,1595.4 690.0,1610.0" style="stroke:#010101; fill:none;"/>
	<path d="M 914.0,1571.0 L 916.0,1577.0" style="stroke:#010101; fill:none;"/>
	<path d="M 2161.0,1571.0 L 2174.0,1580.0 L 2162.0,1577.0" style="stroke:#010101; fill:none;"/>
	<path d="M 673.0,1572.0 L 664.0,1601.0" style="stroke:#010101; fill:none;"/>
	<path d="M 913.0,1572.0 L 915.0,1576.0" style="stroke:#010101; fill:none;"/>
	<path d="M 875.0,1576.0 L 877.0,1573.0" style="stroke:#010101; fill:none;"/>
	<path d="M 800.0,1575.0 L 797.0,1579.0" style="stroke:#010101; fill:none;"/>
	<path d="M 820.0,1639.0 C 836.094,1639.0 853.011,1640.68 869.0,1638.71 C 894.267,1635.61 922.042,1622.13 943.0,1608.11 C 957.398,1598.48 968.655,1584.56 983.0,1575.0" style="stroke:#010101; fill:none;"/>
	<path d="M 875.0,1576.0 C 869.294,1583.71 868.403,1595.62 868.0,1605.0" style="stroke:#010101; fill:none;"/>
	<path d="M 625.0,1578.0 L 630.0,1611.0 L 629.0,1608.0" style="stroke:#010101; fill:none;"/>
	<path d="M 854.0,1579.0 L 845.0,1613.0" style="stroke:#010101; fill:none;"/>
	<path d="M 863.0,1601.0 C 863.944,1593.57 864.643,1582.68 872.0,1579.0" style="stroke:#010101; fill:none;"/>
	<path d="M 918.0,1579.0 L 923.0,1585.0" style="stroke:#010101; fill:none;"/>
	<path d="M 862.0,1580.0 C 856.86,1586.42 856.005,1594.0 856.0,1602.0" style="stroke:#010101; fill:none;"/>
	<path d="M 2175.0,1580.0 L 2173.0,1582.0" style="stroke:#010101; fill:none;"/>
	<path d="M 2176.0,1581.0 L 2178.0,1581.0" style="stroke:#010101; fill:none;"/>
	<path d="M 2180.0,1581.0 C 2181.09,1586.27 2183.99,1592.61 2180.0,1597.0" style="stroke:#010101; fill:none;"/>
	<path d="M 916.0,1582.0 L 923.0,1592.0" style="stroke:#010101; fill:none;"/>
	<path d="M 839.0,1616.0 C 839.75,1606.58 841.803,1588.78 851.0,1584.0" style="stroke:#010101; fill:none;"/>
	<path d="M 817.0,1621.0 C 813.87,1610.41 815.443,1591.59 827.0,1587.0" style="stroke:#010101; fill:none;"/>
	<path d="M 711.0,1588.0 L 687.0,1636.0" style="stroke:#010101; fill:none;"/>
	<path d="M 814.0,1590.0 C 806.146,1596.67 805.419,1608.25 805.0,1618.0" style="stroke:#010101; fill:none;"/>
	<path d="M 837.0,1590.0 C 830.416,1598.63 832.0,1609.72 832.0,1620.0" style="stroke:#010101; fill:none;"/>
	<path d="M 788.0,1591.0 C 784.577,1605.41 775.162,1626.37 762.0,1634.0" style="stroke:#010101; fill:none;"/>
	<path d="M 795.0,1592.0 L 790.0,1605.0" style="stroke:#010101; fill:none;"/>
	<path d="M 802.0,1592.0 L 799.0,1612.0" style="stroke:#010101; fill:none;"/>
	<path d="M 2188.0,1593.0 L 2184.0,1597.0" style="stroke:#010101; fill:none;"/>
	<path d="M 805.0,1594.0 L 802.0,1597.0" style="stroke:#010101; fill:none;"/>
	<path d="M 518.0,1595.0 L 518.0,1601.0" style="stroke:#010101; fill:none;"/>
	<path d="M 802.0,1597.0 L 800.0,1601.0" style="stroke:#010101; fill:none;"/>
	<path d="M 565.0,1599.0 L 556.0,1665.0" style="stroke:#010101; fill:none;"/>
	<path d="M 798.0,1601.0 L 798.0,1603.0" style="stroke:#010101; fill:none;"/>
	<path d="M 1655.0,1602.0 C 1659.56,1617.96 1672.22,1630.84 1675.64,1647.0 C 1677.51,1655.86 1674.97,1665.39 1672.87,1674.0 C 1670.77,1682.6 1667.54,1689.53 1660.0,1694.64 C 1652.37,1699.82 1643.48,1703.47 1635.0,1707.0" style="stroke:#010101; fill:none;"/>
	<path d="M 641.0,1604.0 C 642.516,1616.0 643.542,1630.51 650.0,1641.0" style="stroke:#010101; fill:none;"/>
	<path d="M 797.0,1604.0 L 796.0,1609.0" style="stroke:#010101; fill:none;"/>
	<path d="M 2191.0,1607.0 L 2194.0,1607.0" style="stroke:#010101; fill:none;"/>
	<path d="M 631.0,1610.0 L 636.0,1625.0" style="stroke:#010101; fill:none;"/>
	<path d="M 572.0,1611.0 C 565.529,1632.69 566.781,1659.43 565.0,1682.0" style="stroke:#010101; fill:none;"/>
	<path d="M 630.0,1611.0 L 630.0,1618.0" style="stroke:#010101; fill:none;"/>
	<path d="M 562.0,1614.0 L 562.0,1615.0" style="stroke:#010101; fill:none;"/>
	<path d="M 564.0,1617.0 L 567.0,1632.0" style="stroke:#010101; fill:none;"/>
	<path d="M 641.0,1625.0 L 644.0,1643.0" style="stroke:#010101; fill:none;"/>
	<path d="M 655.0,1630.0 L 659.0,1647.0 L 660.0,1642.0" style="stroke:#010101; fill:none;"/>
	<path d="M 663.0,1635.0 L 666.0,1653.0" style="stroke:#010101; fill:none;"/>
	<path d="M 2195.0,1639.0 C 2195.92,1650.28 2204.22,1660.56 2210.0,1670.0" style="stroke:#010101; fill:none;"/>
	<path d="M 2197.0,1651.0 L 2198.0,1654.0" style="stroke:#010101; fill:none;"/>
	<path d="M 2197.0,1655.0 L 2200.0,1672.0 L 2201.0,1669.0" style="stroke:#010101; fill:none;"/>
	<path d="M 584.0,1662.0 L 577.0,1701.0" style="stroke:#010101; fill:none;"/>
	<path d="M 2200.0,1673.0 C 2197.06,1690.35 2197.15,1709.34 2195.91,1727.0 C 2194.38,1748.66 2191.24,1770.35 2189.17,1792.0 C 2186.11,1824.06 2185.04,1856.34 2178.34,1888.0 C 2174.09,1908.06 2170.58,1928.07 2165.63,1948.0 C 2163.73,1955.64 2159.16,1966.77 2163.0,1974.0" style="stroke:#010101; fill:none;"/>
	<path d="M 1574.0,1693.0 L 1572.0,1699.0 C 1569.46,1686.84 1584.22,1688.88 1589.62,1684.55 C 1593.24,1681.66 1600.5,1670.71 1606.17,1677.57 C 1614.62,1687.8 1585.01,1704.93 1603.0,1714.0" style="stroke:#010101; fill:none;"/>
	<path d="M 1589.0,1685.0 L 1587.0,1683.0 L 1592.0,1681.0" style="stroke:#010101; fill:none;"/>
	<path d="M 1602.0,1694.0 C 1592.39,1691.65 1577.42,1706.72 1571.0,1713.0 C 1569.76,1708.11 1573.57,1705.31 1577.0,1702.04 C 1585.24,1694.19 1596.45,1685.38 1607.0,1681.0" style="stroke:#010101; fill:none;"/>
	<path d="M 1583.0,1685.0 L 1587.0,1683.0" style="stroke:#010101; fill:none;"/>
	<path d="M 1587.0,1685.0 L 1587.0,1686.0" style="stroke:#010101; fill:none;"/>
	<path d="M 1586.0,1688.0 L 1577.0,1696.0" style="stroke:#010101; fill:none;"/>
	<path d="M 2194.0,1692.0 L 2197.0,1694.0" style="stroke:#010101; fill:none;"/>
	<path d="M 599.0,1694.0 L 589.0,1726.0" style="stroke:#010101; fill:none;"/>
	<path d="M 1572.0,1694.0 L 1575.0,1697.0" style="stroke:#010101; fill:none;"/>
	<path d="M 1570.0,1698.0 C 1561.7,1706.85 1552.99,1720.18 1556.0,1733.0" style="stroke:#010101; fill:none;"/>
	<path d="M 1592.0,1711.0 L 1566.0,1727.0 C 1573.01,1717.84 1586.15,1705.2 1597.0,1701.0" style="stroke:#010101; fill:none;"/>
	<path d="M 1571.0,1709.0 L 1573.0,1711.0" style="stroke:#010101; fill:none;"/>
	<path d="M 2193.0,1709.0 L 2196.0,1710.0" style="stroke:#010101; fill:none;"/>
	<path d="M 1569.0,1711.0 C 1567.88,1713.3 1567.56,1713.41 1570.0,1713.0" style="stroke:#010101; fill:none;"/>
	<path d="M 1567.0,1714.0 L 1558.0,1725.0" style="stroke:#010101; fill:none;"/>
	<path d="M 605.0,1718.0 L 600.0,1742.0" style="stroke:#010101; fill:none;"/>
	<path d="M 1574.0,1730.0 L 1593.0,1719.0" style="stroke:#010101; fill:none;"/>
	<path d="M 1565.0,1726.0 L 1561.0,1728.0" style="stroke:#010101; fill:none;"/>
	<path d="M 1537.0,1727.0 C 1533.92,1739.95 1523.35,1748.53 1516.0,1759.0" style="stroke:#010101; fill:none;"/>
	<path d="M 610.0,1750.0 L 609.0,1758.0" style="stroke:#010101; fill:none;"/>
	<path d="M 388.0,1792.0 L 398.0,1753.0 L 405.0,1764.0" style="stroke:#010101; fill:none;"/>
	<path d="M 406.0,1754.0 L 405.0,1762.0" style="stroke:#010101; fill:none;"/>
	<path d="M 628.0,1755.0 C 626.432,1769.83 628.251,1791.56 635.0,1805.0" style="stroke:#010101; fill:none;"/>
	<path d="M 416.0,1756.0 L 425.0,1766.0 L 429.0,1761.0 L 424.0,1764.0" style="stroke:#010101; fill:none;"/>
	<path d="M 426.0,1758.0 L 428.0,1759.0" style="stroke:#010101; fill:none;"/>
	<path d="M 411.0,1797.0 C 415.107,1784.97 427.885,1766.51 438.0,1759.0" style="stroke:#010101; fill:none;"/>
	<path d="M 1329.0,1760.0 C 1336.15,1765.77 1344.26,1774.01 1354.0,1774.0" style="stroke:#010101; fill:none;"/>
	<path d="M 2181.0,1760.0 L 2182.0,1760.0" style="stroke:#010101; fill:none;"/>
	<path d="M 429.0,1761.0 L 432.0,1764.0" style="stroke:#010101; fill:none;"/>
	<path d="M 426.0,1766.0 L 429.0,1769.0" style="stroke:#010101; fill:none;"/>
	<path d="M 462.0,1766.0 L 470.0,1778.0 C 479.356,1772.94 481.0,1778.25 485.796,1786.0 C 494.321,1799.78 493.429,1813.0 497.0,1828.0" style="stroke:#010101; fill:none;"/>
	<path d="M 433.0,1767.0 C 442.609,1772.62 455.864,1776.52 467.0,1777.0" style="stroke:#010101; fill:none;"/>
	<path d="M 1364.0,1770.0 C 1385.34,1764.48 1398.97,1771.37 1418.0,1780.0" style="stroke:#010101; fill:none;"/>
	<path d="M 372.0,1768.0 C 384.467,1769.73 379.543,1788.44 385.015,1798.0 C 397.122,1819.16 419.211,1837.97 438.0,1853.2 C 454.887,1866.88 471.976,1881.18 490.0,1893.33 C 512.865,1908.74 537.423,1922.21 559.0,1939.45 C 584.048,1959.46 602.188,1985.98 625.464,2007.89 C 636.219,2018.01 647.685,2027.32 660.0,2035.48 C 664.846,2038.7 671.076,2040.46 675.61,2043.92 C 681.831,2048.67 685.367,2060.49 689.885,2067.0 C 701.353,2083.53 717.716,2103.7 736.0,2112.86 C 740.611,2115.18 745.183,2114.4 750.0,2115.61 C 762.202,2118.68 772.29,2121.0 785.0,2121.0 C 824.395,2121.0 865.159,2112.98 888.0,2077.0" style="stroke:#010101; fill:none;"/>
	<path d="M 1434.0,1791.0 L 1465.0,1785.56 L 1511.0,1771.0" style="stroke:#010101; fill:none;"/>
	<path d="M 381.0,1775.0 L 385.0,1776.0" style="stroke:#010101; fill:none;"/>
	<path d="M 2178.0,1775.0 L 2186.0,1775.0" style="stroke:#010101; fill:none;"/>
	<path d="M 476.0,1777.0 L 476.0,1806.0" style="stroke:#010101; fill:none;"/>
	<path d="M 2177.0,1778.0 L 2182.0,1779.0" style="stroke:#010101; fill:none;"/>
	<path d="M 470.0,1779.0 L 475.0,1784.0" style="stroke:#010101; fill:none;"/>
	<path d="M 488.0,1779.0 L 487.0,1787.0" style="stroke:#010101; fill:none;"/>
	<path d="M 494.0,1781.0 L 545.0,1833.0 L 543.0,1826.0" style="stroke:#010101; fill:none;"/>
	<path d="M 1274.0,1781.0 C 1279.95,1821.46 1324.58,1866.59 1367.0,1859.0" style="stroke:#010101; fill:none;"/>
	<path d="M 473.0,1784.0 L 474.0,1788.0" style="stroke:#010101; fill:none;"/>
	<path d="M 491.0,1786.0 L 489.0,1790.0" style="stroke:#010101; fill:none;"/>
	<path d="M 634.0,1786.0 C 639.145,1815.9 659.54,1848.13 676.0,1873.0" style="stroke:#010101; fill:none;"/>
	<path d="M 416.0,1788.0 C 443.767,1818.17 476.238,1845.4 512.0,1865.85 C 520.183,1870.53 539.807,1884.27 549.0,1881.0 C 536.989,1862.79 523.11,1842.07 517.0,1821.0" style="stroke:#010101; fill:none;"/>
	<path d="M 2173.0,1790.0 L 2184.0,1791.0" style="stroke:#010101; fill:none;"/>
	<path d="M 522.0,1792.0 L 532.0,1804.0" style="stroke:#010101; fill:none;"/>
	<path d="M 2173.0,1798.0 L 2183.0,1801.0" style="stroke:#010101; fill:none;"/>
	<path d="M 1393.0,1807.0 L 1396.0,1809.0 L 1390.0,1808.0 C 1399.75,1795.94 1431.04,1804.73 1443.0,1811.0" style="stroke:#010101; fill:none;"/>
	<path d="M 1384.0,1810.0 L 1386.0,1813.0 C 1381.41,1814.78 1378.32,1815.68 1374.0,1813.0 L 1392.0,1804.0" style="stroke:#010101; fill:none;"/>
	<path d="M 1417.0,1805.0 C 1411.4,1809.03 1402.81,1808.86 1396.0,1809.0" style="stroke:#010101; fill:none;"/>
	<path d="M 2172.0,1805.0 L 2178.0,1806.0" style="stroke:#010101; fill:none;"/>
	<path d="M 1392.0,1809.0 L 1392.0,1811.0" style="stroke:#010101; fill:none;"/>
	<path d="M 1387.0,1810.0 L 1391.0,1812.0" style="stroke:#010101; fill:none;"/>
	<path d="M 1884.0,1810.0 C 1866.29,1821.73 1853.96,1838.78 1835.0,1849.14 C 1808.29,1863.73 1777.94,1869.43 1752.0,1886.24 C 1709.47,1913.8 1672.25,1949.16 1630.0,1976.92 C 1599.51,1996.96 1565.18,2007.93 1534.0,2025.87 C 1513.89,2037.44 1498.95,2054.9 1481.0,2069.19 C 1457.37,2088.02 1428.71,2102.79 1399.0,2109.0" style="stroke:#010101; fill:none;"/>
	<path d="M 1390.0,1811.0 L 1386.0,1813.0" style="stroke:#010101; fill:none;"/>
	<path d="M 1374.0,1814.0 L 1362.0,1824.0 L 1383.0,1820.37 L 1426.0,1813.0" style="stroke:#010101; fill:none;"/>
	<path d="M 2173.0,1814.0 L 2183.0,1814.0" style="stroke:#010101; fill:none;"/>
	<path d="M 1373.0,1815.0 L 1376.0,1816.0" style="stroke:#010101; fill:none;"/>
	<path d="M 650.0,1816.0 C 652.534,1830.22 665.5,1844.92 674.211,1856.0 C 678.228,1861.11 684.588,1866.59 686.0,1873.0 L 683.0,1872.0" style="stroke:#010101; fill:none;"/>
	<path d="M 2172.0,1820.0 L 2186.0,1824.0" style="stroke:#010101; fill:none;"/>
	<path d="M 1361.0,1826.0 C 1368.34,1834.41 1381.88,1833.0 1392.0,1833.0" style="stroke:#010101; fill:none;"/>
	<path d="M 546.0,1831.0 C 552.973,1838.03 557.808,1842.25 567.0,1846.0" style="stroke:#010101; fill:none;"/>
	<path d="M 2172.0,1835.0 L 2178.0,1836.0" style="stroke:#010101; fill:none;"/>
	<path d="M 1671.0,1869.0 C 1692.92,1859.66 1713.91,1858.88 1737.0,1855.57 C 1759.42,1852.36 1781.49,1847.11 1804.0,1844.0" style="stroke:#010101; fill:none;"/>
	<path d="M 2171.0,1845.0 L 2180.0,1848.0" style="stroke:#010101; fill:none;"/>
	<path d="M 671.0,1846.0 C 685.639,1861.3 699.367,1876.97 717.0,1889.0" style="stroke:#010101; fill:none;"/>
	<path d="M 585.0,1855.0 C 586.713,1867.71 594.123,1878.75 599.753,1890.0 C 611.452,1913.38 623.995,1941.05 641.0,1961.0" style="stroke:#010101; fill:none;"/>
	<path d="M 2168.0,1856.0 L 2171.0,1857.0" style="stroke:#010101; fill:none;"/>
	<path d="M 696.0,1863.0 L 728.0,1891.0" style="stroke:#010101; fill:none;"/>
	<path d="M 2165.0,1873.0 L 2170.0,1874.0" style="stroke:#010101; fill:none;"/>
	<path d="M 688.0,1874.0 L 738.0,1906.0" style="stroke:#010101; fill:none;"/>
	<path d="M 609.0,1880.0 L 629.0,1896.0 L 626.0,1889.0" style="stroke:#010101; fill:none;"/>
	<path d="M 2163.0,1880.0 L 2164.0,1880.0" style="stroke:#010101; fill:none;"/>
	<path d="M 549.0,1882.0 L 591.0,1949.0" style="stroke:#010101; fill:none;"/>
	<path d="M 680.0,1884.0 L 712.0,1901.96 L 724.0,1908.0 C 725.801,1919.77 742.12,1923.57 747.0,1934.0 L 739.0,1931.0" style="stroke:#010101; fill:none;"/>
	<path d="M 1645.0,1884.0 C 1635.69,1894.2 1630.1,1907.39 1619.99,1916.91 C 1600.46,1935.28 1574.26,1940.87 1549.0,1945.0" style="stroke:#010101; fill:none;"/>
	<path d="M 2158.0,1889.0 L 2161.0,1893.0" style="stroke:#010101; fill:none;"/>
	<path d="M 630.0,1897.0 L 640.0,1903.0 L 640.0,1900.0" style="stroke:#010101; fill:none;"/>
	<path d="M 631.0,1899.0 L 639.0,1928.0" style="stroke:#010101; fill:none;"/>
	<path d="M 690.0,1900.0 L 695.0,1902.0" style="stroke:#010101; fill:none;"/>
	<path d="M 640.0,1904.0 L 648.0,1937.0" style="stroke:#010101; fill:none;"/>
	<path d="M 643.0,1906.0 L 649.0,1909.0 L 650.0,1907.0" style="stroke:#010101; fill:none;"/>
	<path d="M 725.0,1909.0 L 745.0,1917.0" style="stroke:#010101; fill:none;"/>
	<path d="M 651.0,1910.0 C 661.31,1921.85 684.533,1929.39 699.0,1935.0" style="stroke:#010101; fill:none;"/>
	<path d="M 722.0,1910.0 L 723.0,1911.0" style="stroke:#010101; fill:none;"/>
	<path d="M 651.0,1913.0 L 657.0,1941.0" style="stroke:#010101; fill:none;"/>
	<path d="M 659.0,1916.0 C 659.79,1925.99 662.052,1940.19 670.0,1947.0 L 673.0,1943.0 L 679.0,1951.0 C 683.359,1943.21 680.915,1936.91 676.0,1930.0" style="stroke:#010101; fill:none;"/>
	<path d="M 1820.0,1920.0 C 1807.63,1949.55 1782.2,1985.48 1756.0,2003.96 C 1740.12,2015.15 1720.8,2020.42 1705.0,2031.09 C 1686.08,2043.87 1666.05,2054.88 1647.0,2067.52 C 1621.96,2084.13 1600.77,2100.67 1571.0,2108.1 C 1553.63,2112.45 1536.57,2110.36 1519.0,2110.0" style="stroke:#010101; fill:none;"/>
	<path d="M 667.0,1927.0 L 673.0,1943.0" style="stroke:#010101; fill:none;"/>
	<path d="M 747.0,1934.0 L 806.0,1993.0 L 804.0,1989.0" style="stroke:#010101; fill:none;"/>
	<path d="M 737.0,1944.0 C 743.56,1948.12 749.385,1953.02 753.0,1960.0" style="stroke:#010101; fill:none;"/>
	<path d="M 684.0,1945.0 L 691.0,1958.0 L 692.0,1948.0 C 700.318,1959.45 700.95,1960.5 715.0,1961.0 L 716.0,1956.0 L 728.0,1967.0" style="stroke:#010101; fill:none;"/>
	<path d="M 702.0,1945.0 L 710.0,1960.0" style="stroke:#010101; fill:none;"/>
	<path d="M 731.0,1945.0 C 740.242,1948.87 746.117,1955.06 752.0,1963.0" style="stroke:#010101; fill:none;"/>
	<path d="M 1538.0,1948.0 C 1504.2,1977.53 1479.05,2020.86 1456.0,2059.0" style="stroke:#010101; fill:none;"/>
	<path d="M 595.0,1957.0 C 606.595,1967.59 613.603,1983.88 626.134,1993.46 C 632.471,1998.3 643.39,1999.47 651.0,2001.37 C 655.303,2002.45 673.278,2009.65 674.0,2004.0" style="stroke:#010101; fill:none;"/>
	<path d="M 645.0,1957.0 C 657.176,1966.75 685.397,1966.88 699.0,1960.0" style="stroke:#010101; fill:none;"/>
	<path d="M 691.0,1958.0 L 693.0,1960.0" style="stroke:#010101; fill:none;"/>
	<path d="M 691.0,1960.0 L 691.0,1961.0" style="stroke:#010101; fill:none;"/>
	<path d="M 716.0,1962.0 L 720.0,1962.0" style="stroke:#010101; fill:none;"/>
	<path d="M 727.0,1963.0 C 735.66,1964.99 737.474,1970.51 743.0,1976.0 L 745.0,1974.0 L 741.0,1971.0" style="stroke:#010101; fill:none;"/>
	<path d="M 2156.0,1971.0 L 2160.0,1973.0" style="stroke:#010101; fill:none;"/>
	<path d="M 745.0,1974.0 L 762.0,1984.0" style="stroke:#010101; fill:none;"/>
	<path d="M 2160.0,1974.0 C 2153.82,1994.91 2150.58,2018.42 2146.54,2040.0 C 2138.68,2081.91 2128.84,2123.91 2117.42,2165.0 C 2109.65,2192.97 2101.1,2224.06 2084.0,2248.0" style="stroke:#010101; fill:none;"/>
	<path d="M 796.0,1980.0 L 805.0,1988.0" style="stroke:#010101; fill:none;"/>
	<path d="M 2153.0,1980.0 L 2153.0,1982.0" style="stroke:#010101; fill:none;"/>
	<path d="M 808.0,1992.0 L 855.91,2043.0 L 884.0,2074.0" style="stroke:#010101; fill:none;"/>
	<path d="M 2151.0,1992.0 L 2152.0,1992.0" style="stroke:#010101; fill:none;"/>
	<path d="M 806.0,1993.0 C 811.862,2006.15 826.038,2016.07 835.985,2026.01 C 851.865,2041.89 865.136,2060.14 881.0,2076.0" style="stroke:#010101; fill:none;"/>
	<path d="M 2148.0,2001.0 L 2150.0,2001.0" style="stroke:#010101; fill:none;"/>
	<path d="M 675.0,2006.0 C 688.512,2012.29 697.862,2027.68 703.0,2041.0" style="stroke:#010101; fill:none;"/>
	<path d="M 2147.0,2009.0 L 2149.0,2010.0" style="stroke:#010101; fill:none;"/>
	<path d="M 2017.0,2014.0 L 2021.0,2016.0" style="stroke:#010101; fill:none;"/>
	<path d="M 2142.0,2023.0 L 2149.0,2025.0" style="stroke:#010101; fill:none;"/>
	<path d="M 855.0,2043.0 L 853.0,2045.0" style="stroke:#010101; fill:none;"/>
	<path d="M 872.0,2063.0 L 870.0,2065.0" style="stroke:#010101; fill:none;"/>
	<path d="M 2119.0,2079.0 L 2119.0,2080.0" style="stroke:#010101; fill:none;"/>
	<path d="M 893.0,2085.0 L 929.83,2125.0 L 990.0,2189.91 L 1055.0,2247.0" style="stroke:#010101; fill:none;"/>
	<path d="M 2114.0,2093.0 L 2119.0,2098.0" style="stroke:#010101; fill:none;"/>
	<path d="M 2108.0,2109.0 L 2112.0,2112.0" style="stroke:#010101; fill:none;"/>
	<path d="M 969.0,2111.0 L 969.0,2116.0" style="stroke:#010101; fill:none;"/>
	<path d="M 2103.0,2123.0 L 2106.0,2125.0" style="stroke:#010101; fill:none;"/>
	<path d="M 2084.0,2192.0 L 2086.0,2193.0" style="stroke:#010101; fill:none;"/>
	<path d="M 2076.0,2209.0 L 2080.0,2211.0" style="stroke:#010101; fill:none;"/>
	<path d="M 2069.0,2214.0 L 2074.0,2218.0" style="stroke:#010101; fill:none;"/>
	<path d="M 2059.0,2220.0 L 2068.0,2232.0" style="stroke:#010101; fill:none;"/>
	<path d="M 2060.0,2268.0 L 2060.0,2269.0" style="stroke:#010101; fill:none;"/>
	<path d="M 2052.0,2281.0 L 2063.0,2287.0" style="stroke:#010101; fill:none;"/>
	<path d="M 1100.0,2282.0 L 1110.0,2293.0" style="stroke:#010101; fill:none;"/>
	<path d="M 1115.0,2286.0 C 1142.5,2295.3 1167.35,2312.6 1193.0,2325.98 C 1243.36,2352.25 1296.26,2378.06 1350.0,2396.66 C 1396.75,2412.83 1445.23,2424.39 1494.0,2432.56 C 1533.15,2439.13 1575.07,2443.0 1613.0,2455.0" style="stroke:#010101; fill:none;"/>
	<path d="M 2045.0,2288.0 L 2046.0,2288.0" style="stroke:#010101; fill:none;"/>
	<path d="M 2038.0,2298.0 C 2040.58,2300.83 2042.26,2302.03 2046.0,2301.0" style="stroke:#010101; fill:none;"/>
	<path d="M 2026.0,2309.0 L 2035.0,2311.0" style="stroke:#010101; fill:none;"/>
	<path d="M 1225.0,2316.0 L 1225.0,2317.0" style="stroke:#010101; fill:none;"/>
	<path d="M 2020.0,2317.0 L 2026.0,2325.0" style="stroke:#010101; fill:none;"/>
	<path d="M 2002.0,2332.0 L 2015.0,2337.0" style="stroke:#010101; fill:none;"/>
	<path d="M 1989.0,2354.0 C 1969.16,2372.28 1946.85,2387.68 1924.0,2401.94 C 1911.94,2409.46 1903.01,2417.96 1891.0,2407.0" style="stroke:#010101; fill:none;"/>
	<path d="M 1377.0,2385.0 L 1373.0,2391.0" style="stroke:#010101; fill:none;"/>
	<path d="M 1900.0,2415.0 L 1884.0,2425.0" style="stroke:#010101; fill:none;"/>
	<path d="M 1532.0,2430.0 L 1530.0,2431.0" style="stroke:#010101; fill:none;"/>
	<path d="M 1547.0,2431.0 L 1548.0,2435.0 L 1553.0,2431.0" style="stroke:#010101; fill:none;"/>
	<path d="M 1737.0,2468.0 C 1750.95,2474.89 1764.53,2468.98 1779.0,2464.34 C 1801.0,2457.3 1825.38,2449.02 1848.0,2445.0" style="stroke:#010101; fill:none;"/>
	<path d="M 1623.0,2461.0 C 1632.98,2465.29 1644.41,2465.41 1655.0,2467.25 C 1671.49,2470.12 1688.16,2474.8 1705.0,2475.0 C 1709.63,2475.05 1730.69,2476.43 1730.0,2470.0" style="stroke:#010101; fill:none;"/>
	<path d="M 1733.0,2471.0 L 1740.0,2473.0" style="stroke:#010101; fill:none;"/>
</svg>
