<?xml version="1.0" ?>
<svg baseProfile="full" height="3318" version="1.1" width="2654" xmlns="http://www.w3.org/2000/svg" xmlns:ev="http://www.w3.org/2001/xml-events" xmlns:xlink="http://www.w3.org/1999/xlink">
	<defs/>
	<path d="M 1353.0,376.0 C 1362.39,367.575 1380.98,364.104 1393.0,360.849 C 1419.48,353.676 1446.67,348.108 1474.0,345.841 C 1490.16,344.501 1508.48,343.565 1523.0,352.0" style="stroke:#010101; fill:none;"/>
	<path d="M 1342.0,350.0 L 1327.0,360.0" style="stroke:#010101; fill:none;"/>
	<path d="M 1292.0,380.0 C 1304.61,377.752 1314.67,366.829 1325.0,360.0" style="stroke:#010101; fill:none;"/>
	<path d="M 1296.0,371.0 L 1283.0,381.0" style="stroke:#010101; fill:none;"/>
	<path d="M 1420.0,376.0 C 1456.5,364.406 1490.08,379.065 1526.0,382.0" style="stroke:#010101; fill:none;"/>
	<path d="M 1354.0,374.0 L 1356.0,374.0" style="stroke:#010101; fill:none;"/>
	<path d="M 1353.0,377.0 L 1349.0,376.0 L 1352.0,375.0" style="stroke:#010101; fill:none;"/>
	<path d="M 1348.0,376.0 L 1349.0,376.0" style="stroke:#010101; fill:none;"/>
	<path d="M 1332.0,384.0 L 1350.0,378.0" style="stroke:#010101; fill:none;"/>
	<path d="M 1402.0,382.0 L 1377.0,396.0" style="stroke:#010101; fill:none;"/>
	<path d="M 1311.0,389.0 L 1330.0,385.0" style="stroke:#010101; fill:none;"/>
	<path d="M 1187.0,426.0 C 1187.67,420.437 1200.29,418.566 1205.0,416.551 C 1223.96,408.44 1242.06,397.865 1261.0,390.0" style="stroke:#010101; fill:none;"/>
	<path d="M 1450.0,397.0 L 1486.0,410.0" style="stroke:#010101; fill:none;"/>
	<path d="M 1227.0,426.0 C 1247.94,424.289 1263.16,406.129 1282.0,399.0" style="stroke:#010101; fill:none;"/>
	<path d="M 1505.0,400.0 C 1528.12,418.828 1538.23,444.514 1555.0,468.0" style="stroke:#010101; fill:none;"/>
	<path d="M 1531.0,405.0 L 1561.0,435.0" style="stroke:#010101; fill:none;"/>
	<path d="M 1561.0,420.0 L 1580.0,444.0" style="stroke:#010101; fill:none;"/>
	<path d="M 1577.0,421.0 L 1595.0,431.0" style="stroke:#010101; fill:none;"/>
	<path d="M 1150.0,425.0 L 1136.0,449.0" style="stroke:#010101; fill:none;"/>
	<path d="M 1130.0,430.0 L 1120.0,460.0" style="stroke:#010101; fill:none;"/>
	<path d="M 1521.0,436.0 C 1543.57,448.035 1557.38,477.615 1565.0,501.0" style="stroke:#010101; fill:none;"/>
	<path d="M 1103.0,445.0 L 1105.0,458.0" style="stroke:#010101; fill:none;"/>
	<path d="M 1590.0,445.0 C 1594.67,455.491 1602.41,463.845 1606.3,475.0 C 1616.13,503.164 1616.0,533.57 1616.0,563.0" style="stroke:#010101; fill:none;"/>
	<path d="M 1101.0,450.0 L 1102.0,455.0" style="stroke:#010101; fill:none;"/>
	<path d="M 1088.0,455.0 L 1100.0,480.0" style="stroke:#010101; fill:none;"/>
	<path d="M 1080.0,458.0 C 1087.82,467.166 1096.62,478.279 1100.0,490.0" style="stroke:#010101; fill:none;"/>
	<path d="M 1076.0,461.0 C 1081.71,468.427 1086.82,476.81 1089.0,486.0" style="stroke:#010101; fill:none;"/>
	<path d="M 1004.0,510.0 L 1045.0,523.0" style="stroke:#010101; fill:none;"/>
	<path d="M 992.0,521.0 L 1039.0,525.0" style="stroke:#010101; fill:none;"/>
	<path d="M 1645.0,529.0 C 1645.0,540.776 1644.59,553.339 1639.0,564.0" style="stroke:#010101; fill:none;"/>
	<path d="M 978.0,530.0 L 1011.0,530.0" style="stroke:#010101; fill:none;"/>
	<path d="M 968.0,535.0 L 996.0,535.0" style="stroke:#010101; fill:none;"/>
	<path d="M 951.0,547.0 L 968.0,550.0" style="stroke:#010101; fill:none;"/>
	<path d="M 941.0,555.0 L 965.0,553.0" style="stroke:#010101; fill:none;"/>
	<path d="M 882.0,578.0 L 916.0,584.0" style="stroke:#010101; fill:none;"/>
	<path d="M 860.0,585.0 L 878.0,587.0" style="stroke:#010101; fill:none;"/>
	<path d="M 1638.0,586.0 C 1650.71,585.719 1664.52,598.218 1676.0,603.0" style="stroke:#010101; fill:none;"/>
	<path d="M 618.0,594.0 L 664.0,588.0" style="stroke:#010101; fill:none;"/>
	<path d="M 801.0,599.0 C 820.386,599.0 846.633,598.215 862.0,612.0" style="stroke:#010101; fill:none;"/>
	<path d="M 616.0,627.0 L 635.0,618.0 C 641.445,622.145 657.656,615.235 665.0,613.669 C 689.345,608.477 718.054,601.815 743.0,603.0" style="stroke:#010101; fill:none;"/>
	<path d="M 661.0,606.0 L 635.0,618.0" style="stroke:#010101; fill:none;"/>
	<path d="M 687.0,622.0 L 694.0,621.0 L 681.0,617.0 C 692.547,610.742 711.062,611.44 724.0,610.946 C 750.026,609.953 775.902,608.489 802.0,609.116 C 812.227,609.362 824.345,608.384 834.0,612.0 L 830.0,614.0" style="stroke:#010101; fill:none;"/>
	<path d="M 671.0,618.0 L 681.0,617.0" style="stroke:#010101; fill:none;"/>
	<path d="M 795.0,625.0 L 724.0,625.0 C 715.853,625.0 702.157,626.998 696.0,621.0 L 731.0,619.235 L 807.0,617.0" style="stroke:#010101; fill:none;"/>
	<path d="M 695.0,621.0 L 696.0,619.0" style="stroke:#010101; fill:none;"/>
	<path d="M 693.0,622.0 L 696.0,624.0" style="stroke:#010101; fill:none;"/>
	<path d="M 617.0,627.0 L 620.0,625.0" style="stroke:#010101; fill:none;"/>
	<path d="M 522.0,705.0 C 585.585,665.268 658.226,605.122 738.0,639.0" style="stroke:#010101; fill:none;"/>
	<path d="M 1676.0,652.0 C 1689.37,655.933 1705.44,668.0 1716.0,677.0" style="stroke:#010101; fill:none;"/>
	<path d="M 617.0,681.0 C 586.924,696.938 556.674,721.866 536.0,749.0" style="stroke:#010101; fill:none;"/>
	<path d="M 531.0,716.0 C 545.944,703.872 561.643,692.251 580.0,685.834 C 586.213,683.662 594.678,679.57 600.0,685.0" style="stroke:#010101; fill:none;"/>
	<path d="M 1726.0,715.0 C 1760.76,738.452 1797.33,759.08 1827.0,789.0" style="stroke:#010101; fill:none;"/>
	<path d="M 1728.0,754.0 C 1747.47,759.325 1766.09,774.218 1783.0,784.947 C 1841.71,822.203 1886.23,868.857 1922.42,928.0 C 1932.31,944.162 1941.58,960.715 1951.27,977.0 C 1954.79,982.922 1961.63,990.925 1960.0,998.0 L 1961.0,999.0 L 1962.0,996.0" style="stroke:#010101; fill:none;"/>
	<path d="M 544.0,764.0 C 524.764,784.947 510.731,812.408 496.719,837.0 C 486.454,855.016 473.767,874.98 468.0,895.0" style="stroke:#010101; fill:none;"/>
	<path d="M 1851.0,794.0 L 1852.0,825.0" style="stroke:#010101; fill:none;"/>
	<path d="M 533.0,820.0 C 509.765,854.157 488.934,894.944 478.0,935.0" style="stroke:#010101; fill:none;"/>
	<path d="M 540.0,831.0 C 518.778,868.29 492.921,907.3 481.0,949.0" style="stroke:#010101; fill:none;"/>
	<path d="M 539.0,851.0 C 519.272,886.434 497.77,925.622 487.0,965.0" style="stroke:#010101; fill:none;"/>
	<path d="M 472.0,853.0 L 466.0,870.0" style="stroke:#010101; fill:none;"/>
	<path d="M 2091.0,860.0 C 2098.63,864.11 2100.4,873.666 2107.06,878.531 C 2122.52,889.836 2138.8,894.471 2151.71,910.0 C 2186.8,952.184 2181.2,1014.72 2186.17,1066.0 C 2188.2,1087.01 2191.28,1107.89 2191.96,1129.0 C 2192.36,1141.55 2189.48,1154.39 2191.3,1167.0 C 2194.22,1187.27 2202.08,1207.91 2206.57,1228.0 C 2210.4,1245.11 2208.32,1262.75 2211.32,1280.0 C 2215.46,1303.81 2225.08,1326.21 2229.54,1350.0 C 2231.53,1360.61 2232.86,1372.22 2231.83,1383.0 C 2231.1,1390.64 2227.86,1399.54 2230.0,1407.0 L 2234.0,1399.0" style="stroke:#010101; fill:none;"/>
	<path d="M 2089.0,874.0 L 2097.0,877.0 C 2085.74,894.079 2090.7,923.882 2111.0,932.633 C 2117.06,935.244 2123.72,933.496 2130.0,933.0" style="stroke:#010101; fill:none;"/>
	<path d="M 2097.0,877.0 L 2102.0,877.0" style="stroke:#010101; fill:none;"/>
	<path d="M 532.0,891.0 C 515.868,918.614 498.415,951.711 491.0,983.0" style="stroke:#010101; fill:none;"/>
	<path d="M 2137.0,959.0 C 2132.94,963.408 2128.79,970.323 2123.0,972.535 C 2105.55,979.203 2088.27,960.698 2085.87,945.0 C 2084.42,935.448 2083.14,922.688 2096.0,923.0" style="stroke:#010101; fill:none;"/>
	<path d="M 2140.0,952.0 C 2144.4,959.922 2150.34,967.803 2151.7,977.0 C 2153.81,991.295 2147.59,1004.87 2149.17,1019.0 C 2150.51,1030.9 2161.37,1041.77 2164.32,1054.0 C 2168.12,1069.78 2162.66,1080.71 2162.0,1096.0" style="stroke:#010101; fill:none;"/>
	<path d="M 2142.0,959.0 L 2142.0,966.0" style="stroke:#010101; fill:none;"/>
	<path d="M 1728.0,966.0 L 1764.0,979.0" style="stroke:#010101; fill:none;"/>
	<path d="M 514.0,967.0 L 498.0,1008.0" style="stroke:#010101; fill:none;"/>
	<path d="M 1708.0,968.0 L 1766.0,982.0" style="stroke:#010101; fill:none;"/>
	<path d="M 1692.0,969.0 L 1764.0,988.0" style="stroke:#010101; fill:none;"/>
	<path d="M 2086.0,969.0 C 2088.01,971.369 2101.8,988.177 2093.84,989.508 C 2087.72,990.53 2082.31,983.083 2077.0,981.0 L 2078.0,988.0 L 2082.0,984.0" style="stroke:#010101; fill:none;"/>
	<path d="M 1607.0,971.0 L 1672.0,974.0 L 1669.0,973.0" style="stroke:#010101; fill:none;"/>
	<path d="M 1676.0,973.0 L 1673.0,975.0" style="stroke:#010101; fill:none;"/>
	<path d="M 1678.0,974.0 L 1682.0,975.0 L 1676.0,976.0" style="stroke:#010101; fill:none;"/>
	<path d="M 2073.0,974.0 L 2076.0,980.0" style="stroke:#010101; fill:none;"/>
	<path d="M 2122.0,974.0 C 2118.05,987.305 2101.38,974.26 2093.0,976.0" style="stroke:#010101; fill:none;"/>
	<path d="M 1682.0,975.0 C 1708.06,978.455 1741.15,981.615 1765.0,993.0 C 1756.75,996.731 1741.8,990.212 1733.0,988.614 C 1706.91,983.878 1680.43,980.087 1654.0,978.0" style="stroke:#010101; fill:none;"/>
	<path d="M 1607.0,980.0 C 1621.24,980.0 1634.92,981.67 1649.0,983.546 C 1656.04,984.485 1662.15,983.166 1668.0,988.0 C 1677.52,981.547 1695.11,988.14 1706.0,989.0" style="stroke:#010101; fill:none;"/>
	<path d="M 1654.0,984.0 L 1658.0,984.0" style="stroke:#010101; fill:none;"/>
	<path d="M 1661.0,985.0 L 1665.0,985.0" style="stroke:#010101; fill:none;"/>
	<path d="M 1667.0,985.0 L 1669.0,985.0" style="stroke:#010101; fill:none;"/>
	<path d="M 1676.0,986.0 L 1670.0,987.0" style="stroke:#010101; fill:none;"/>
	<path d="M 1685.0,987.0 C 1689.1,993.35 1706.83,992.603 1714.0,993.73 C 1737.77,997.464 1768.48,998.707 1790.0,1010.0" style="stroke:#010101; fill:none;"/>
	<path d="M 1578.0,990.0 L 1635.0,988.855 L 1660.0,993.0 C 1653.76,997.485 1645.39,994.951 1638.0,995.003 C 1621.19,995.122 1603.68,995.237 1587.0,997.286 C 1532.83,1003.94 1479.9,1018.85 1429.0,1038.19 C 1423.27,1040.37 1416.31,1041.33 1411.0,1044.22 C 1398.69,1050.93 1388.72,1062.16 1379.0,1072.0 C 1374.1,1076.96 1365.28,1084.53 1366.0,1092.0 L 1371.0,1090.0 C 1363.75,1107.23 1355.69,1122.8 1350.42,1141.0 C 1348.46,1147.79 1344.02,1157.7 1352.0,1162.0 L 1353.0,1155.0 L 1353.0,1156.0 L 1353.0,1157.0" style="stroke:#010101; fill:none;"/>
	<path d="M 1677.0,989.0 L 1684.0,990.0" style="stroke:#010101; fill:none;"/>
	<path d="M 2077.0,989.0 L 2086.0,1011.0" style="stroke:#010101; fill:none;"/>
	<path d="M 1761.0,992.0 L 1759.0,994.0" style="stroke:#010101; fill:none;"/>
	<path d="M 1956.0,1006.0 C 1952.9,1001.61 1950.65,997.393 1952.0,992.0 L 1960.0,998.0" style="stroke:#010101; fill:none;"/>
	<path d="M 1660.0,993.0 L 1660.0,998.0 L 1695.0,1003.0 L 1695.0,999.0 L 1703.05,1004.85 L 1749.0,1012.0 L 1745.0,1012.0" style="stroke:#010101; fill:none;"/>
	<path d="M 1765.0,993.0 L 1769.0,994.0 L 1764.0,995.0" style="stroke:#010101; fill:none;"/>
	<path d="M 1663.0,994.0 L 1694.0,998.0" style="stroke:#010101; fill:none;"/>
	<path d="M 1769.0,994.0 L 1773.0,995.0 L 1768.0,995.0" style="stroke:#010101; fill:none;"/>
	<path d="M 1773.0,995.0 L 1777.0,996.0 L 1772.0,997.0" style="stroke:#010101; fill:none;"/>
	<path d="M 1658.0,996.0 L 1660.0,998.0" style="stroke:#010101; fill:none;"/>
	<path d="M 1778.0,996.0 L 1786.0,1002.0" style="stroke:#010101; fill:none;"/>
	<path d="M 1779.0,997.0 L 1776.0,998.0" style="stroke:#010101; fill:none;"/>
	<path d="M 1699.0,998.0 L 1770.0,1010.0" style="stroke:#010101; fill:none;"/>
	<path d="M 1963.0,998.0 C 1980.34,1031.61 1999.2,1064.82 2017.54,1098.0 C 2023.13,1108.11 2031.02,1117.51 2035.72,1128.0 C 2048.03,1155.53 2059.49,1185.93 2067.58,1215.0 C 2072.04,1231.06 2073.68,1248.28 2079.0,1264.0 C 2089.47,1253.4 2084.83,1237.53 2081.88,1224.0 C 2080.72,1218.68 2075.24,1210.07 2082.0,1208.0 L 2072.0,1164.0" style="stroke:#010101; fill:none;"/>
	<path d="M 521.0,1000.0 L 506.0,1032.0" style="stroke:#010101; fill:none;"/>
	<path d="M 1631.0,1000.0 L 1698.0,1019.02 L 1711.0,1018.27 L 1747.0,1022.17 L 1816.0,1032.0" style="stroke:#010101; fill:none;"/>
	<path d="M 1961.0,1000.0 L 1963.0,1002.0" style="stroke:#010101; fill:none;"/>
	<path d="M 536.0,1002.0 L 510.0,1052.0" style="stroke:#010101; fill:none;"/>
	<path d="M 1371.0,1090.0 C 1375.57,1085.4 1383.25,1072.48 1390.0,1073.0 C 1400.84,1053.3 1426.59,1046.93 1446.0,1038.72 C 1464.54,1030.88 1484.36,1023.02 1504.0,1018.44 C 1507.91,1017.53 1511.29,1019.79 1515.04,1018.77 C 1542.0,1011.47 1568.66,1004.03 1597.0,1002.09 C 1608.41,1001.31 1619.67,1002.91 1631.0,1003.0" style="stroke:#010101; fill:none;"/>
	<path d="M 1696.0,1004.0 L 1698.0,1004.0" style="stroke:#010101; fill:none;"/>
	<path d="M 1632.0,1006.0 C 1665.46,1015.15 1697.5,1023.23 1732.0,1028.0" style="stroke:#010101; fill:none;"/>
	<path d="M 1554.0,1022.0 L 1550.0,1021.0 L 1613.0,1008.0" style="stroke:#010101; fill:none;"/>
	<path d="M 1615.0,1018.0 L 1578.0,1030.56 L 1563.0,1033.0 C 1580.87,1021.04 1607.67,1012.87 1629.0,1010.0" style="stroke:#010101; fill:none;"/>
	<path d="M 1738.0,1011.0 L 1741.0,1012.0" style="stroke:#010101; fill:none;"/>
	<path d="M 1750.0,1012.0 L 1756.0,1013.0 L 1748.0,1014.0" style="stroke:#010101; fill:none;"/>
	<path d="M 1756.0,1013.0 L 1766.0,1013.0" style="stroke:#010101; fill:none;"/>
	<path d="M 1515.0,1018.0 L 1519.0,1017.0" style="stroke:#010101; fill:none;"/>
	<path d="M 1511.0,1071.0 L 1605.0,1031.55 L 1643.0,1015.77 L 1667.0,1023.0 L 1641.0,1037.0 L 1645.0,1038.0" style="stroke:#010101; fill:none;"/>
	<path d="M 1510.0,1018.0 L 1515.0,1016.0" style="stroke:#010101; fill:none;"/>
	<path d="M 1756.0,1016.0 L 1805.0,1026.0" style="stroke:#010101; fill:none;"/>
	<path d="M 2072.0,1023.0 L 2073.0,1018.0 C 2075.84,1021.5 2073.35,1033.48 2074.32,1039.0 C 2077.05,1054.58 2079.91,1068.24 2090.0,1081.0" style="stroke:#010101; fill:none;"/>
	<path d="M 2076.0,1018.0 C 2091.24,1021.62 2111.3,1029.62 2123.0,1040.17 C 2150.79,1065.25 2159.74,1108.9 2174.0,1142.0" style="stroke:#010101; fill:none;"/>
	<path d="M 1652.0,1019.0 L 1604.0,1040.42 L 1519.0,1075.84 L 1480.0,1087.96 L 1454.0,1109.0" style="stroke:#010101; fill:none;"/>
	<path d="M 1700.0,1020.0 L 1700.0,1022.0" style="stroke:#010101; fill:none;"/>
	<path d="M 1431.0,1052.0 C 1436.78,1047.93 1446.27,1045.09 1453.0,1042.0 C 1470.92,1033.78 1490.64,1025.01 1510.0,1021.0" style="stroke:#010101; fill:none;"/>
	<path d="M 1456.0,1046.0 C 1485.84,1036.46 1518.94,1025.18 1550.0,1021.0" style="stroke:#010101; fill:none;"/>
	<path d="M 1514.0,1059.0 L 1513.0,1063.0 C 1537.06,1047.67 1565.69,1037.37 1593.0,1029.58 C 1603.5,1026.58 1614.05,1021.89 1625.0,1021.0" style="stroke:#010101; fill:none;"/>
	<path d="M 1706.0,1021.0 L 1738.0,1025.0" style="stroke:#010101; fill:none;"/>
	<path d="M 541.0,1022.0 L 519.0,1070.0" style="stroke:#010101; fill:none;"/>
	<path d="M 1374.0,1164.0 C 1377.05,1143.63 1397.58,1125.39 1410.91,1111.0 C 1420.87,1100.25 1431.2,1087.64 1443.0,1078.92 C 1465.41,1062.37 1492.57,1053.24 1518.0,1042.58 C 1537.51,1034.4 1560.75,1023.74 1582.0,1022.0" style="stroke:#010101; fill:none;"/>
	<path d="M 1667.0,1023.0 C 1697.75,1025.45 1726.88,1032.0 1758.0,1032.0 C 1765.04,1032.0 1784.41,1034.68 1789.0,1029.0" style="stroke:#010101; fill:none;"/>
	<path d="M 1356.0,1179.0 C 1358.65,1165.36 1362.53,1147.79 1370.21,1136.03 C 1372.59,1132.4 1376.42,1132.6 1379.25,1129.75 C 1389.07,1119.91 1397.09,1108.01 1407.0,1098.0 C 1417.04,1087.85 1427.18,1075.14 1440.0,1068.4 C 1465.17,1055.17 1492.45,1045.33 1519.0,1035.22 C 1529.45,1031.25 1541.29,1028.52 1551.0,1023.0" style="stroke:#010101; fill:none;"/>
	<path d="M 1632.0,1029.0 L 1646.0,1027.0" style="stroke:#010101; fill:none;"/>
	<path d="M 1792.0,1030.0 L 1790.0,1032.0" style="stroke:#010101; fill:none;"/>
	<path d="M 1829.0,1030.0 L 1834.0,1051.0" style="stroke:#010101; fill:none;"/>
	<path d="M 1656.0,1031.0 L 1675.0,1033.05 L 1713.0,1034.0" style="stroke:#010101; fill:none;"/>
	<path d="M 1647.0,1035.0 L 1652.0,1032.0" style="stroke:#010101; fill:none;"/>
	<path d="M 1564.0,1035.0 L 1560.0,1034.0 L 1563.0,1033.0" style="stroke:#010101; fill:none;"/>
	<path d="M 1497.0,1064.0 C 1511.35,1052.66 1530.23,1047.77 1547.0,1041.36 C 1551.78,1039.53 1554.94,1035.5 1560.0,1034.0" style="stroke:#010101; fill:none;"/>
	<path d="M 1561.0,1036.0 L 1553.0,1039.0" style="stroke:#010101; fill:none;"/>
	<path d="M 2067.0,1037.0 C 2069.53,1046.58 2067.62,1056.85 2069.46,1067.0 C 2074.1,1092.57 2081.78,1117.77 2082.0,1144.0" style="stroke:#010101; fill:none;"/>
	<path d="M 1549.0,1040.0 L 1550.0,1038.0" style="stroke:#010101; fill:none;"/>
	<path d="M 1641.0,1038.0 L 1623.0,1049.0" style="stroke:#010101; fill:none;"/>
	<path d="M 1544.0,1041.0 L 1548.0,1039.0" style="stroke:#010101; fill:none;"/>
	<path d="M 1739.0,1039.0 L 1817.0,1043.0" style="stroke:#010101; fill:none;"/>
	<path d="M 1669.0,1041.0 L 1637.0,1053.0" style="stroke:#010101; fill:none;"/>
	<path d="M 1375.0,1130.0 C 1379.15,1119.09 1388.05,1109.1 1395.21,1100.0 C 1404.07,1088.74 1413.88,1075.77 1425.09,1066.76 C 1439.11,1055.49 1463.47,1047.06 1481.0,1043.0" style="stroke:#010101; fill:none;"/>
	<path d="M 1628.0,1047.0 C 1627.73,1043.82 1628.92,1043.49 1632.0,1043.0" style="stroke:#010101; fill:none;"/>
	<path d="M 1404.0,1044.0 L 1385.0,1058.0 L 1379.0,1063.0" style="stroke:#010101; fill:none;"/>
	<path d="M 1623.0,1046.0 L 1626.0,1045.0" style="stroke:#010101; fill:none;"/>
	<path d="M 1769.0,1045.0 L 1825.0,1053.0" style="stroke:#010101; fill:none;"/>
	<path d="M 1572.0,1066.0 L 1574.0,1070.0 C 1586.74,1060.15 1605.87,1052.49 1621.0,1047.0" style="stroke:#010101; fill:none;"/>
	<path d="M 2070.0,1048.0 L 2077.0,1057.0" style="stroke:#010101; fill:none;"/>
	<path d="M 550.0,1049.0 L 528.0,1086.0" style="stroke:#010101; fill:none;"/>
	<path d="M 2161.0,1049.0 L 2158.0,1088.0" style="stroke:#010101; fill:none;"/>
	<path d="M 1623.0,1050.0 C 1603.85,1061.17 1581.32,1076.86 1560.0,1083.0" style="stroke:#010101; fill:none;"/>
	<path d="M 1397.0,1082.0 L 1394.0,1081.0 L 1409.01,1067.01 L 1430.0,1051.0" style="stroke:#010101; fill:none;"/>
	<path d="M 1431.0,1053.0 L 1428.0,1054.0" style="stroke:#010101; fill:none;"/>
	<path d="M 1437.0,1056.0 L 1436.0,1058.0" style="stroke:#010101; fill:none;"/>
	<path d="M 1500.0,1056.0 C 1480.88,1065.06 1459.32,1073.66 1442.09,1086.04 C 1427.49,1096.53 1414.75,1112.18 1403.42,1126.0 C 1394.02,1137.47 1383.18,1150.5 1379.0,1165.0" style="stroke:#010101; fill:none;"/>
	<path d="M 1476.0,1079.0 L 1476.0,1083.0 C 1481.29,1072.95 1500.26,1064.1 1511.0,1061.0" style="stroke:#010101; fill:none;"/>
	<path d="M 1493.0,1086.0 L 1483.0,1095.0 C 1490.88,1097.19 1500.66,1090.45 1508.0,1087.68 C 1530.21,1079.31 1551.85,1069.55 1574.0,1061.0" style="stroke:#010101; fill:none;"/>
	<path d="M 1382.0,1062.0 L 1380.0,1064.0" style="stroke:#010101; fill:none;"/>
	<path d="M 1361.0,1074.0 L 1377.0,1063.0" style="stroke:#010101; fill:none;"/>
	<path d="M 566.0,1064.0 L 531.0,1106.0" style="stroke:#010101; fill:none;"/>
	<path d="M 1378.0,1064.0 L 1359.0,1087.0" style="stroke:#010101; fill:none;"/>
	<path d="M 1504.0,1068.0 L 1512.0,1063.0" style="stroke:#010101; fill:none;"/>
	<path d="M 1520.0,1092.0 L 1571.0,1067.0" style="stroke:#010101; fill:none;"/>
	<path d="M 1406.0,1077.0 L 1422.0,1069.0" style="stroke:#010101; fill:none;"/>
	<path d="M 1568.0,1069.0 L 1573.0,1070.0" style="stroke:#010101; fill:none;"/>
	<path d="M 1389.0,1071.0 L 1391.0,1070.0" style="stroke:#010101; fill:none;"/>
	<path d="M 1571.0,1071.0 L 1552.0,1083.0" style="stroke:#010101; fill:none;"/>
	<path d="M 1442.0,1072.0 C 1425.42,1085.5 1410.92,1102.34 1397.6,1119.0 C 1393.22,1124.47 1385.24,1131.54 1386.0,1139.0" style="stroke:#010101; fill:none;"/>
	<path d="M 1390.0,1074.0 C 1373.64,1095.23 1354.57,1126.35 1354.0,1154.0" style="stroke:#010101; fill:none;"/>
	<path d="M 1599.0,1074.0 L 1578.0,1080.0" style="stroke:#010101; fill:none;"/>
	<path d="M 1516.0,1076.0 L 1518.0,1075.0" style="stroke:#010101; fill:none;"/>
	<path d="M 585.0,1077.0 L 547.0,1148.0" style="stroke:#010101; fill:none;"/>
	<path d="M 1395.0,1080.0 L 1399.0,1078.0" style="stroke:#010101; fill:none;"/>
	<path d="M 1516.0,1078.0 L 1514.0,1080.0" style="stroke:#010101; fill:none;"/>
	<path d="M 572.0,1079.0 L 541.0,1125.0" style="stroke:#010101; fill:none;"/>
	<path d="M 1389.0,1157.0 C 1410.81,1129.52 1440.13,1093.47 1474.0,1081.0" style="stroke:#010101; fill:none;"/>
	<path d="M 1394.0,1082.0 L 1392.0,1084.0 L 1396.0,1083.0" style="stroke:#010101; fill:none;"/>
	<path d="M 1475.0,1083.0 L 1425.0,1128.0 L 1407.0,1146.0" style="stroke:#010101; fill:none;"/>
	<path d="M 1485.0,1083.0 L 1482.0,1086.0" style="stroke:#010101; fill:none;"/>
	<path d="M 1356.0,1154.0 C 1364.06,1129.26 1377.65,1105.28 1392.0,1084.0" style="stroke:#010101; fill:none;"/>
	<path d="M 1408.0,1240.0 C 1412.53,1220.44 1424.56,1205.32 1433.68,1188.0 C 1437.61,1180.53 1438.06,1172.36 1441.33,1165.0 C 1445.55,1155.48 1456.93,1141.9 1465.01,1135.39 C 1482.46,1121.35 1511.92,1118.65 1533.0,1113.12 C 1565.34,1104.62 1598.28,1098.27 1631.0,1092.38 C 1663.02,1086.62 1693.26,1081.19 1726.0,1087.32 C 1734.1,1088.84 1740.66,1094.62 1748.0,1097.97 C 1762.16,1104.44 1777.32,1109.99 1792.0,1115.0" style="stroke:#010101; fill:none;"/>
	<path d="M 1394.0,1085.0 L 1392.0,1087.0" style="stroke:#010101; fill:none;"/>
	<path d="M 1390.0,1086.0 L 1380.0,1098.0" style="stroke:#010101; fill:none;"/>
	<path d="M 1386.0,1091.0 L 1388.0,1093.0" style="stroke:#010101; fill:none;"/>
	<path d="M 1364.0,1092.0 L 1365.0,1094.0 L 1368.0,1093.0 L 1369.0,1094.0" style="stroke:#010101; fill:none;"/>
	<path d="M 1329.0,1094.0 L 1335.12,1124.0 L 1338.0,1139.0 L 1337.0,1135.0" style="stroke:#010101; fill:none;"/>
	<path d="M 1364.0,1096.0 L 1366.0,1097.0" style="stroke:#010101; fill:none;"/>
	<path d="M 1469.0,1105.0 L 1483.0,1095.0" style="stroke:#010101; fill:none;"/>
	<path d="M 1363.0,1097.0 C 1357.83,1106.71 1352.1,1115.64 1352.0,1127.0" style="stroke:#010101; fill:none;"/>
	<path d="M 1490.0,1097.0 L 1485.0,1101.0" style="stroke:#010101; fill:none;"/>
	<path d="M 1363.0,1099.0 L 1365.0,1101.0" style="stroke:#010101; fill:none;"/>
	<path d="M 1346.0,1103.0 C 1342.16,1115.15 1341.88,1136.58 1348.0,1148.0" style="stroke:#010101; fill:none;"/>
	<path d="M 1639.0,1103.0 L 1648.0,1113.0 C 1644.66,1116.24 1639.25,1122.81 1634.87,1124.36 C 1626.84,1127.19 1615.49,1113.56 1610.0,1109.0" style="stroke:#010101; fill:none;"/>
	<path d="M 1654.0,1104.0 L 1666.0,1115.0 C 1659.42,1121.37 1656.39,1121.25 1651.0,1114.0 L 1643.0,1119.0" style="stroke:#010101; fill:none;"/>
	<path d="M 1676.0,1106.0 C 1680.76,1115.74 1702.25,1125.01 1712.96,1124.85 C 1716.92,1124.79 1718.34,1119.68 1722.0,1120.2 C 1725.16,1120.65 1725.83,1124.38 1728.3,1125.86 C 1731.17,1127.57 1734.94,1127.35 1738.0,1129.0 C 1729.42,1136.88 1719.12,1142.22 1710.0,1149.36 C 1693.26,1162.48 1677.43,1176.62 1661.0,1190.08 C 1652.31,1197.2 1638.85,1209.53 1627.0,1208.0 L 1627.0,1210.0 L 1630.0,1209.0" style="stroke:#010101; fill:none;"/>
	<path d="M 1627.0,1107.0 L 1632.0,1112.0 C 1625.13,1118.27 1621.87,1113.98 1627.0,1107.0" style="stroke:#010101; fill:none;"/>
	<path d="M 1702.0,1108.0 L 1718.0,1119.0" style="stroke:#010101; fill:none;"/>
	<path d="M 1316.0,1109.0 C 1325.02,1124.3 1331.71,1140.33 1334.27,1158.0 C 1335.05,1163.36 1337.59,1168.74 1336.0,1174.0 L 1335.0,1168.0" style="stroke:#010101; fill:none;"/>
	<path d="M 1691.0,1110.0 C 1696.43,1113.55 1703.63,1117.84 1710.0,1115.0" style="stroke:#010101; fill:none;"/>
	<path d="M 1630.0,1130.0 C 1618.43,1128.81 1609.57,1123.63 1599.01,1120.43 C 1595.09,1119.24 1590.46,1115.15 1592.0,1111.0" style="stroke:#010101; fill:none;"/>
	<path d="M 1633.0,1112.0 L 1639.0,1118.0" style="stroke:#010101; fill:none;"/>
	<path d="M 1581.0,1113.0 C 1584.49,1121.91 1600.09,1127.0 1609.0,1129.0" style="stroke:#010101; fill:none;"/>
	<path d="M 1649.0,1113.0 L 1650.0,1114.0" style="stroke:#010101; fill:none;"/>
	<path d="M 1604.0,1114.0 L 1607.0,1120.0 L 1606.0,1121.0" style="stroke:#010101; fill:none;"/>
	<path d="M 1667.0,1115.0 C 1673.6,1124.3 1689.61,1129.37 1700.0,1123.0" style="stroke:#010101; fill:none;"/>
	<path d="M 1624.0,1116.0 L 1622.0,1118.0" style="stroke:#010101; fill:none;"/>
	<path d="M 1307.0,1117.0 C 1324.42,1130.27 1333.47,1157.84 1328.0,1179.0" style="stroke:#010101; fill:none;"/>
	<path d="M 1379.0,1117.0 L 1379.0,1121.0" style="stroke:#010101; fill:none;"/>
	<path d="M 1628.0,1117.0 L 1635.0,1118.0" style="stroke:#010101; fill:none;"/>
	<path d="M 1714.0,1117.0 L 1709.0,1118.0" style="stroke:#010101; fill:none;"/>
	<path d="M 1573.0,1118.0 C 1577.52,1125.27 1586.32,1127.55 1594.0,1130.0" style="stroke:#010101; fill:none;"/>
	<path d="M 1608.0,1119.0 L 1621.0,1118.0" style="stroke:#010101; fill:none;"/>
	<path d="M 1558.0,1119.0 C 1559.79,1131.89 1572.18,1140.2 1584.0,1134.0" style="stroke:#010101; fill:none;"/>
	<path d="M 1584.0,1119.0 L 1580.0,1123.0" style="stroke:#010101; fill:none;"/>
	<path d="M 1595.0,1119.0 L 1593.0,1121.0" style="stroke:#010101; fill:none;"/>
	<path d="M 1630.0,1119.0 L 1626.0,1123.0" style="stroke:#010101; fill:none;"/>
	<path d="M 1726.0,1120.0 L 1736.0,1119.0" style="stroke:#010101; fill:none;"/>
	<path d="M 1299.0,1120.0 C 1313.85,1131.35 1326.34,1155.07 1324.0,1174.0" style="stroke:#010101; fill:none;"/>
	<path d="M 1721.0,1120.0 L 1718.0,1126.0" style="stroke:#010101; fill:none;"/>
	<path d="M 1377.0,1121.0 L 1377.0,1122.0" style="stroke:#010101; fill:none;"/>
	<path d="M 1569.0,1142.0 C 1561.35,1141.67 1555.8,1139.31 1552.6,1132.0 C 1550.72,1127.71 1548.32,1122.88 1554.0,1121.0" style="stroke:#010101; fill:none;"/>
	<path d="M 1646.0,1121.0 L 1654.0,1120.0" style="stroke:#010101; fill:none;"/>
	<path d="M 1725.0,1121.0 L 1725.0,1126.0" style="stroke:#010101; fill:none;"/>
	<path d="M 1731.0,1121.0 L 1755.0,1121.0" style="stroke:#010101; fill:none;"/>
	<path d="M 1575.0,1122.0 L 1563.0,1126.0" style="stroke:#010101; fill:none;"/>
	<path d="M 1662.0,1122.0 L 1669.0,1122.0" style="stroke:#010101; fill:none;"/>
	<path d="M 1729.0,1122.0 L 1730.0,1125.0" style="stroke:#010101; fill:none;"/>
	<path d="M 1541.0,1123.0 L 1540.0,1135.0 C 1544.18,1133.31 1545.66,1131.52 1546.0,1127.0" style="stroke:#010101; fill:none;"/>
	<path d="M 1375.0,1126.0 L 1377.0,1124.0" style="stroke:#010101; fill:none;"/>
	<path d="M 1534.0,1124.0 C 1534.0,1134.71 1530.04,1142.68 1529.02,1153.0 C 1527.37,1169.66 1533.48,1195.21 1548.0,1204.9 C 1559.62,1212.64 1574.37,1211.84 1586.0,1219.0 C 1578.09,1223.85 1567.89,1221.92 1559.0,1221.59 C 1547.39,1221.17 1534.56,1221.2 1523.0,1222.52 C 1504.9,1224.58 1487.52,1238.98 1472.0,1247.62 C 1467.44,1250.16 1446.58,1262.01 1443.71,1252.86 C 1441.47,1245.72 1453.83,1236.83 1457.58,1231.96 C 1470.07,1215.72 1480.92,1197.85 1485.0,1178.0" style="stroke:#010101; fill:none;"/>
	<path d="M 1701.0,1124.0 L 1696.0,1127.0" style="stroke:#010101; fill:none;"/>
	<path d="M 1729.0,1124.0 L 1727.0,1126.0" style="stroke:#010101; fill:none;"/>
	<path d="M 1638.0,1125.0 C 1649.67,1143.93 1652.62,1160.57 1645.48,1182.0 C 1643.14,1189.04 1631.78,1201.99 1633.0,1208.0" style="stroke:#010101; fill:none;"/>
	<path d="M 2068.0,1125.0 L 2091.0,1191.0" style="stroke:#010101; fill:none;"/>
	<path d="M 573.0,1126.0 L 551.0,1157.0" style="stroke:#010101; fill:none;"/>
	<path d="M 1287.0,1126.0 C 1307.3,1130.57 1322.69,1160.07 1319.0,1180.0" style="stroke:#010101; fill:none;"/>
	<path d="M 1559.0,1126.0 L 1553.0,1130.0" style="stroke:#010101; fill:none;"/>
	<path d="M 1721.0,1126.0 L 1722.0,1126.0" style="stroke:#010101; fill:none;"/>
	<path d="M 1551.0,1129.0 L 1546.0,1132.0" style="stroke:#010101; fill:none;"/>
	<path d="M 1697.0,1129.0 L 1707.0,1142.0" style="stroke:#010101; fill:none;"/>
	<path d="M 1738.0,1129.0 L 1752.0,1131.0" style="stroke:#010101; fill:none;"/>
	<path d="M 1377.0,1133.0 L 1361.0,1177.0" style="stroke:#010101; fill:none;"/>
	<path d="M 1540.0,1135.0 L 1535.0,1148.0" style="stroke:#010101; fill:none;"/>
	<path d="M 1545.0,1135.0 L 1536.0,1153.0" style="stroke:#010101; fill:none;"/>
	<path d="M 602.0,1137.0 L 563.0,1192.0" style="stroke:#010101; fill:none;"/>
	<path d="M 1285.0,1138.0 C 1295.41,1144.29 1307.73,1160.64 1309.0,1173.0" style="stroke:#010101; fill:none;"/>
	<path d="M 1339.0,1138.0 L 1347.0,1155.0" style="stroke:#010101; fill:none;"/>
	<path d="M 1535.0,1138.0 L 1537.0,1138.0" style="stroke:#010101; fill:none;"/>
	<path d="M 1338.0,1139.0 L 1338.0,1167.0" style="stroke:#010101; fill:none;"/>
	<path d="M 1384.0,1139.0 L 1384.0,1140.0" style="stroke:#010101; fill:none;"/>
	<path d="M 1534.0,1139.0 L 1536.0,1141.0" style="stroke:#010101; fill:none;"/>
	<path d="M 583.0,1141.0 C 573.691,1150.51 562.959,1162.03 557.0,1174.0" style="stroke:#010101; fill:none;"/>
	<path d="M 1520.0,1142.0 L 1526.0,1142.0" style="stroke:#010101; fill:none;"/>
	<path d="M 1516.0,1143.0 L 1517.0,1148.0 L 1522.0,1144.0" style="stroke:#010101; fill:none;"/>
	<path d="M 1762.0,1143.0 L 1770.0,1146.0" style="stroke:#010101; fill:none;"/>
	<path d="M 1528.0,1144.0 L 1530.0,1144.0" style="stroke:#010101; fill:none;"/>
	<path d="M 1526.0,1145.0 C 1521.5,1148.61 1510.81,1158.64 1505.0,1155.0" style="stroke:#010101; fill:none;"/>
	<path d="M 1583.01,1145.79 C 1595.06,1141.77 1606.68,1171.69 1595.79,1176.4 C 1576.19,1184.86 1564.36,1152.0 1583.01,1145.79" style="stroke:#010101; fill:none;"/>
	<path d="M 1738.0,1151.0 L 1757.0,1146.0" style="stroke:#010101; fill:none;"/>
	<path d="M 1765.0,1148.0 L 1766.0,1177.0" style="stroke:#010101; fill:none;"/>
	<path d="M 1516.0,1149.0 L 1513.0,1174.0" style="stroke:#010101; fill:none;"/>
	<path d="M 1522.0,1152.0 L 1521.0,1170.0" style="stroke:#010101; fill:none;"/>
	<path d="M 1508.0,1153.0 L 1508.0,1155.0" style="stroke:#010101; fill:none;"/>
	<path d="M 1524.0,1155.0 L 1528.0,1153.0" style="stroke:#010101; fill:none;"/>
	<path d="M 1507.0,1158.0 L 1505.0,1173.0 C 1507.7,1169.04 1508.19,1166.31 1506.0,1162.0" style="stroke:#010101; fill:none;"/>
	<path d="M 1723.0,1161.0 L 1740.0,1159.0" style="stroke:#010101; fill:none;"/>
	<path d="M 604.0,1162.0 L 569.0,1216.0" style="stroke:#010101; fill:none;"/>
	<path d="M 1353.0,1163.0 L 1357.0,1173.0" style="stroke:#010101; fill:none;"/>
	<path d="M 1493.0,1165.0 L 1494.0,1173.0 L 1502.0,1166.0" style="stroke:#010101; fill:none;"/>
	<path d="M 1726.0,1174.0 L 1715.0,1171.0 C 1717.96,1165.36 1724.21,1165.03 1730.0,1166.0" style="stroke:#010101; fill:none;"/>
	<path d="M 1352.0,1168.0 L 1351.0,1170.0" style="stroke:#010101; fill:none;"/>
	<path d="M 1500.0,1168.0 L 1503.0,1171.0" style="stroke:#010101; fill:none;"/>
	<path d="M 1505.0,1168.0 L 1507.0,1168.0" style="stroke:#010101; fill:none;"/>
	<path d="M 1714.0,1172.0 L 1715.0,1170.0" style="stroke:#010101; fill:none;"/>
	<path d="M 1709.0,1171.0 L 1712.0,1172.0" style="stroke:#010101; fill:none;"/>
	<path d="M 1494.0,1173.0 L 1490.0,1197.0" style="stroke:#010101; fill:none;"/>
	<path d="M 1504.0,1174.0 L 1501.0,1187.0" style="stroke:#010101; fill:none;"/>
	<path d="M 1701.0,1175.0 L 1732.0,1194.0" style="stroke:#010101; fill:none;"/>
	<path d="M 1371.0,1177.0 C 1362.22,1199.76 1358.52,1230.84 1363.0,1255.0" style="stroke:#010101; fill:none;"/>
	<path d="M 1491.0,1182.0 L 1491.0,1187.0" style="stroke:#010101; fill:none;"/>
	<path d="M 1712.0,1182.0 L 1696.0,1186.0" style="stroke:#010101; fill:none;"/>
	<path d="M 1488.0,1186.0 L 1483.0,1209.0" style="stroke:#010101; fill:none;"/>
	<path d="M 602.0,1191.0 C 591.745,1203.06 582.113,1220.39 576.0,1235.0" style="stroke:#010101; fill:none;"/>
	<path d="M 1687.0,1192.0 L 1700.0,1192.0" style="stroke:#010101; fill:none;"/>
	<path d="M 1680.0,1193.0 L 1693.0,1198.0" style="stroke:#010101; fill:none;"/>
	<path d="M 2074.0,1193.0 L 2077.0,1208.0" style="stroke:#010101; fill:none;"/>
	<path d="M 919.0,1231.0 C 944.583,1219.09 972.66,1209.96 1000.0,1203.13 C 1017.66,1198.71 1037.07,1195.36 1055.0,1200.0" style="stroke:#010101; fill:none;"/>
	<path d="M 1684.0,1218.0 L 1666.0,1203.0 C 1673.87,1200.02 1682.47,1203.19 1690.0,1206.0" style="stroke:#010101; fill:none;"/>
	<path d="M 1479.0,1202.0 L 1477.0,1210.0" style="stroke:#010101; fill:none;"/>
	<path d="M 888.0,1231.0 C 910.446,1221.79 933.113,1210.93 957.0,1206.0" style="stroke:#010101; fill:none;"/>
	<path d="M 1095.0,1219.0 C 1083.18,1216.81 1070.86,1219.04 1059.0,1219.91 C 1028.75,1222.13 998.813,1228.13 969.0,1233.32 C 958.557,1235.14 948.209,1237.74 938.0,1240.58 C 932.272,1242.17 927.246,1244.53 922.0,1241.0 C 958.934,1225.11 1003.45,1216.47 1043.0,1209.92 C 1056.64,1207.66 1076.05,1202.69 1089.0,1209.0" style="stroke:#010101; fill:none;"/>
	<path d="M 1629.0,1206.0 L 1631.0,1206.0" style="stroke:#010101; fill:none;"/>
	<path d="M 2083.0,1209.0 L 2080.0,1214.0" style="stroke:#010101; fill:none;"/>
	<path d="M 1627.0,1210.0 C 1615.1,1217.4 1599.7,1219.0 1586.0,1219.0" style="stroke:#010101; fill:none;"/>
	<path d="M 1657.0,1210.0 L 1670.0,1216.0" style="stroke:#010101; fill:none;"/>
	<path d="M 1753.0,1210.0 C 1720.87,1249.45 1670.53,1285.74 1618.0,1288.0" style="stroke:#010101; fill:none;"/>
	<path d="M 1643.0,1214.0 L 1660.0,1216.0" style="stroke:#010101; fill:none;"/>
	<path d="M 841.0,1252.0 L 902.0,1215.0" style="stroke:#010101; fill:none;"/>
	<path d="M 1647.0,1215.0 L 1653.0,1219.0" style="stroke:#010101; fill:none;"/>
	<path d="M 1099.0,1229.0 L 1095.0,1227.0 L 1111.0,1216.0" style="stroke:#010101; fill:none;"/>
	<path d="M 603.0,1219.0 L 581.0,1253.0" style="stroke:#010101; fill:none;"/>
	<path d="M 1650.0,1240.0 L 1642.0,1219.0 L 1646.0,1223.0" style="stroke:#010101; fill:none;"/>
	<path d="M 1121.0,1220.0 C 1105.89,1227.9 1085.18,1240.18 1075.0,1254.0 C 1080.67,1255.09 1085.26,1250.78 1090.0,1248.01 C 1098.5,1243.04 1108.16,1237.45 1118.0,1236.0" style="stroke:#010101; fill:none;"/>
	<path d="M 1636.0,1221.0 L 1647.0,1242.0" style="stroke:#010101; fill:none;"/>
	<path d="M 1633.0,1222.0 L 1639.0,1233.0" style="stroke:#010101; fill:none;"/>
	<path d="M 1106.0,1223.0 L 1111.0,1223.0" style="stroke:#010101; fill:none;"/>
	<path d="M 918.0,1252.0 C 976.642,1243.7 1035.35,1224.0 1095.0,1224.0" style="stroke:#010101; fill:none;"/>
	<path d="M 1625.0,1224.0 L 1632.0,1233.0" style="stroke:#010101; fill:none;"/>
	<path d="M 1462.0,1226.0 L 1464.0,1228.0" style="stroke:#010101; fill:none;"/>
	<path d="M 1095.0,1227.0 L 1084.0,1236.0 L 1091.0,1230.0" style="stroke:#010101; fill:none;"/>
	<path d="M 1617.0,1227.0 L 1630.0,1249.0" style="stroke:#010101; fill:none;"/>
	<path d="M 810.0,1288.0 L 877.0,1241.18 L 908.0,1228.0" style="stroke:#010101; fill:none;"/>
	<path d="M 832.0,1271.0 C 840.578,1272.91 855.005,1262.42 863.0,1258.86 C 887.69,1247.87 912.939,1237.4 939.0,1230.0" style="stroke:#010101; fill:none;"/>
	<path d="M 872.0,1272.0 L 867.0,1273.0 L 871.0,1268.0 C 875.49,1274.45 880.697,1270.74 887.0,1268.67 C 899.174,1264.66 911.665,1261.21 924.0,1257.71 C 955.646,1248.72 988.649,1244.12 1021.0,1238.71 C 1042.3,1235.16 1064.33,1230.18 1086.0,1230.0" style="stroke:#010101; fill:none;"/>
	<path d="M 1627.0,1230.0 L 1629.0,1239.0" style="stroke:#010101; fill:none;"/>
	<path d="M 1522.0,1233.0 L 1512.0,1248.0" style="stroke:#010101; fill:none;"/>
	<path d="M 1537.0,1233.0 L 1534.0,1246.0" style="stroke:#010101; fill:none;"/>
	<path d="M 820.0,1234.0 C 800.961,1246.99 779.049,1271.49 770.0,1293.0 L 776.0,1291.0" style="stroke:#010101; fill:none;"/>
	<path d="M 1562.0,1234.0 L 1561.0,1244.0" style="stroke:#010101; fill:none;"/>
	<path d="M 1600.0,1234.0 L 1606.0,1244.0" style="stroke:#010101; fill:none;"/>
	<path d="M 1084.0,1237.0 L 1071.0,1247.0 L 1068.0,1242.0 L 1083.0,1235.0" style="stroke:#010101; fill:none;"/>
	<path d="M 1546.0,1235.0 L 1544.0,1241.0" style="stroke:#010101; fill:none;"/>
	<path d="M 1578.0,1235.0 L 1578.0,1256.0" style="stroke:#010101; fill:none;"/>
	<path d="M 1570.0,1236.0 L 1569.0,1244.0" style="stroke:#010101; fill:none;"/>
	<path d="M 1587.0,1236.0 L 1590.0,1261.0" style="stroke:#010101; fill:none;"/>
	<path d="M 809.0,1237.0 L 788.0,1256.0 L 779.333,1265.0 L 780.0,1263.0" style="stroke:#010101; fill:none;"/>
	<path d="M 843.0,1237.0 L 819.0,1266.0" style="stroke:#010101; fill:none;"/>
	<path d="M 1456.0,1237.0 C 1454.02,1245.45 1458.63,1246.27 1465.0,1250.0" style="stroke:#010101; fill:none;"/>
	<path d="M 1595.0,1237.0 L 1597.0,1251.0" style="stroke:#010101; fill:none;"/>
	<path d="M 2160.0,1237.0 L 2131.0,1273.0" style="stroke:#010101; fill:none;"/>
	<path d="M 1554.0,1240.0 L 1552.0,1244.0" style="stroke:#010101; fill:none;"/>
	<path d="M 846.0,1241.0 L 822.0,1266.0" style="stroke:#010101; fill:none;"/>
	<path d="M 889.0,1257.0 L 887.0,1259.0 L 922.0,1241.0" style="stroke:#010101; fill:none;"/>
	<path d="M 979.0,1259.0 L 974.0,1258.0 L 1067.0,1241.0" style="stroke:#010101; fill:none;"/>
	<path d="M 2086.0,1241.0 C 2090.15,1245.54 2090.72,1247.79 2086.0,1252.0" style="stroke:#010101; fill:none;"/>
	<path d="M 818.0,1266.0 C 811.651,1275.13 808.033,1281.68 798.0,1287.0 C 796.142,1281.45 800.89,1277.24 804.21,1273.0 C 812.492,1262.43 820.941,1249.79 832.0,1242.0" style="stroke:#010101; fill:none;"/>
	<path d="M 603.0,1243.0 L 584.0,1274.0" style="stroke:#010101; fill:none;"/>
	<path d="M 1026.0,1247.0 L 1046.0,1243.0" style="stroke:#010101; fill:none;"/>
	<path d="M 1068.0,1244.0 C 1056.27,1252.28 1032.46,1260.77 1026.0,1274.0 L 1028.0,1272.0" style="stroke:#010101; fill:none;"/>
	<path d="M 1077.0,1260.0 L 1072.0,1264.0 L 1069.0,1260.0 L 1082.01,1258.4 L 1123.0,1244.0" style="stroke:#010101; fill:none;"/>
	<path d="M 1406.0,1244.0 C 1400.7,1261.44 1401.89,1286.46 1417.0,1298.0" style="stroke:#010101; fill:none;"/>
	<path d="M 823.0,1245.0 C 810.905,1254.92 802.306,1267.33 794.0,1280.0 L 795.0,1277.0" style="stroke:#010101; fill:none;"/>
	<path d="M 918.0,1245.0 L 924.0,1244.0" style="stroke:#010101; fill:none;"/>
	<path d="M 1079.0,1245.0 L 1080.0,1245.0" style="stroke:#010101; fill:none;"/>
	<path d="M 882.0,1252.0 L 909.0,1246.0" style="stroke:#010101; fill:none;"/>
	<path d="M 2130.0,1284.0 C 2137.42,1274.38 2144.02,1264.05 2152.17,1255.0 C 2155.48,1251.32 2158.84,1246.92 2164.0,1247.0 L 2162.0,1250.0" style="stroke:#010101; fill:none;"/>
	<path d="M 1009.0,1248.0 L 1005.0,1251.0 L 1005.0,1247.0 L 1022.0,1247.0" style="stroke:#010101; fill:none;"/>
	<path d="M 1071.0,1247.0 L 1049.0,1265.99 L 1034.0,1272.0 C 1038.55,1274.59 1041.1,1273.14 1045.0,1270.0" style="stroke:#010101; fill:none;"/>
	<path d="M 1076.0,1263.0 L 1131.0,1247.0" style="stroke:#010101; fill:none;"/>
	<path d="M 1499.0,1247.0 L 1494.0,1255.0" style="stroke:#010101; fill:none;"/>
	<path d="M 997.0,1249.0 C 994.032,1249.5 993.323,1249.99 993.0,1253.0 L 1004.0,1248.0" style="stroke:#010101; fill:none;"/>
	<path d="M 733.0,1384.0 C 754.065,1361.99 776.398,1346.05 801.0,1328.7 C 815.456,1318.5 828.986,1307.12 844.0,1297.66 C 849.194,1294.39 855.77,1293.14 860.767,1289.73 C 863.283,1288.01 863.508,1284.65 866.158,1283.06 C 882.307,1273.38 905.787,1268.43 924.0,1263.87 C 939.236,1260.06 954.528,1256.46 970.0,1253.75 C 977.95,1252.36 984.664,1249.71 992.0,1254.0" style="stroke:#010101; fill:none;"/>
	<path d="M 989.0,1250.0 L 992.0,1250.0" style="stroke:#010101; fill:none;"/>
	<path d="M 1000.0,1250.0 L 1004.0,1252.0" style="stroke:#010101; fill:none;"/>
	<path d="M 1038.0,1261.0 C 1028.53,1261.41 1009.27,1269.85 1002.0,1263.0 C 1018.37,1257.41 1037.76,1251.5 1055.0,1250.0" style="stroke:#010101; fill:none;"/>
	<path d="M 846.0,1252.0 L 823.0,1271.0" style="stroke:#010101; fill:none;"/>
	<path d="M 893.0,1256.0 L 896.0,1254.0" style="stroke:#010101; fill:none;"/>
	<path d="M 978.0,1258.0 L 990.0,1254.0" style="stroke:#010101; fill:none;"/>
	<path d="M 1072.0,1256.0 L 1074.0,1255.0" style="stroke:#010101; fill:none;"/>
	<path d="M 1074.0,1255.0 L 1076.0,1257.0" style="stroke:#010101; fill:none;"/>
	<path d="M 1076.0,1255.0 L 1076.0,1257.0" style="stroke:#010101; fill:none;"/>
	<path d="M 818.0,1288.0 C 838.508,1277.34 862.674,1262.14 886.0,1258.0" style="stroke:#010101; fill:none;"/>
	<path d="M 974.0,1261.0 L 970.0,1260.0 L 974.0,1258.0" style="stroke:#010101; fill:none;"/>
	<path d="M 2086.0,1259.0 C 2085.96,1269.72 2083.34,1280.01 2084.09,1291.0 C 2086.35,1323.98 2094.27,1356.3 2098.87,1389.0 C 2100.7,1401.98 2102.62,1429.84 2114.0,1437.0 C 2108.22,1447.67 2116.59,1461.25 2119.58,1472.0 C 2127.76,1501.44 2135.12,1531.35 2142.63,1561.0 C 2144.84,1569.73 2155.11,1596.47 2147.0,1602.0 L 2145.0,1601.0" style="stroke:#010101; fill:none;"/>
	<path d="M 864.0,1288.0 L 918.0,1272.71 L 970.0,1260.0" style="stroke:#010101; fill:none;"/>
	<path d="M 1071.0,1264.0 L 1064.0,1264.0 L 1069.0,1260.0" style="stroke:#010101; fill:none;"/>
	<path d="M 1075.0,1260.0 L 1076.0,1261.0" style="stroke:#010101; fill:none;"/>
	<path d="M 874.0,1270.0 L 887.0,1260.0" style="stroke:#010101; fill:none;"/>
	<path d="M 880.0,1288.0 L 870.0,1294.0 C 879.546,1296.88 898.228,1287.63 908.0,1284.86 C 937.82,1276.41 970.954,1264.11 1002.0,1263.0" style="stroke:#010101; fill:none;"/>
	<path d="M 1062.0,1265.0 L 1062.0,1262.0 L 1052.0,1274.0" style="stroke:#010101; fill:none;"/>
	<path d="M 1056.0,1263.0 L 1060.0,1263.0" style="stroke:#010101; fill:none;"/>
	<path d="M 599.0,1264.0 L 584.0,1291.0" style="stroke:#010101; fill:none;"/>
	<path d="M 995.0,1264.0 L 1002.0,1267.0" style="stroke:#010101; fill:none;"/>
	<path d="M 2079.0,1264.0 L 2083.0,1270.0" style="stroke:#010101; fill:none;"/>
	<path d="M 764.0,1297.0 L 767.0,1298.0 L 756.0,1300.0 L 743.0,1315.0 C 742.775,1310.09 747.283,1305.2 749.781,1300.99 C 757.125,1288.6 766.189,1273.5 778.0,1265.0" style="stroke:#010101; fill:none;"/>
	<path d="M 779.0,1266.0 L 756.0,1299.0" style="stroke:#010101; fill:none;"/>
	<path d="M 876.0,1268.0 L 884.0,1266.0" style="stroke:#010101; fill:none;"/>
	<path d="M 1145.0,1266.0 C 1161.33,1272.83 1177.4,1284.25 1191.0,1295.46 C 1195.59,1299.25 1201.75,1309.65 1208.0,1308.0 L 1192.0,1291.0" style="stroke:#010101; fill:none;"/>
	<path d="M 872.0,1268.0 L 875.0,1267.0" style="stroke:#010101; fill:none;"/>
	<path d="M 787.0,1393.0 L 810.815,1377.5 L 823.0,1364.0 C 822.474,1358.56 826.513,1355.11 829.664,1351.0 C 837.063,1341.35 841.858,1332.44 853.0,1327.0 C 849.906,1317.68 870.961,1301.43 879.0,1298.75 C 916.31,1286.32 955.56,1274.96 994.0,1267.0" style="stroke:#010101; fill:none;"/>
	<path d="M 820.0,1268.0 L 817.0,1269.0" style="stroke:#010101; fill:none;"/>
	<path d="M 1045.0,1272.0 L 1053.0,1270.0" style="stroke:#010101; fill:none;"/>
	<path d="M 818.0,1271.0 L 814.0,1273.0" style="stroke:#010101; fill:none;"/>
	<path d="M 866.0,1274.0 L 867.0,1271.0" style="stroke:#010101; fill:none;"/>
	<path d="M 865.0,1275.0 L 862.0,1276.0 L 864.0,1272.0" style="stroke:#010101; fill:none;"/>
	<path d="M 1022.0,1274.0 C 1017.29,1277.26 1014.68,1277.35 1010.0,1274.0 L 1026.0,1272.0" style="stroke:#010101; fill:none;"/>
	<path d="M 1028.0,1273.0 L 1034.0,1272.0" style="stroke:#010101; fill:none;"/>
	<path d="M 843.0,1285.0 L 862.0,1273.0" style="stroke:#010101; fill:none;"/>
	<path d="M 1023.0,1273.0 L 1025.0,1275.0" style="stroke:#010101; fill:none;"/>
	<path d="M 829.0,1275.0 L 833.0,1273.0" style="stroke:#010101; fill:none;"/>
	<path d="M 824.0,1364.0 C 842.338,1345.28 859.083,1321.67 881.17,1307.07 C 890.429,1300.96 903.489,1299.28 914.0,1296.4 C 932.662,1291.27 951.772,1283.59 971.0,1281.0 C 971.746,1284.48 974.802,1284.62 978.0,1283.31 C 987.815,1279.26 999.196,1274.54 1010.0,1274.0" style="stroke:#010101; fill:none;"/>
	<path d="M 854.0,1278.0 L 858.0,1275.0" style="stroke:#010101; fill:none;"/>
	<path d="M 1037.0,1275.0 L 1030.0,1282.0" style="stroke:#010101; fill:none;"/>
	<path d="M 1448.0,1281.0 L 1476.0,1275.0" style="stroke:#010101; fill:none;"/>
	<path d="M 1012.0,1285.0 L 1034.0,1276.0" style="stroke:#010101; fill:none;"/>
	<path d="M 2151.0,1276.0 C 2134.7,1288.42 2123.57,1306.16 2111.0,1322.0" style="stroke:#010101; fill:none;"/>
	<path d="M 850.0,1280.0 L 854.0,1277.0" style="stroke:#010101; fill:none;"/>
	<path d="M 859.0,1277.0 L 861.0,1277.0" style="stroke:#010101; fill:none;"/>
	<path d="M 847.0,1282.0 L 850.0,1280.0" style="stroke:#010101; fill:none;"/>
	<path d="M 967.0,1291.0 L 962.0,1289.0 L 967.0,1287.0 L 968.0,1291.0 L 977.0,1279.0 L 980.0,1282.0" style="stroke:#010101; fill:none;"/>
	<path d="M 965.0,1298.0 L 1014.0,1278.0" style="stroke:#010101; fill:none;"/>
	<path d="M 793.0,1280.0 C 785.469,1287.54 774.481,1296.87 773.0,1308.0 L 796.0,1285.0" style="stroke:#010101; fill:none;"/>
	<path d="M 972.0,1280.0 L 974.0,1280.0" style="stroke:#010101; fill:none;"/>
	<path d="M 843.0,1283.0 L 847.0,1281.0" style="stroke:#010101; fill:none;"/>
	<path d="M 1525.0,1281.0 C 1541.71,1291.62 1566.95,1287.0 1586.0,1287.0" style="stroke:#010101; fill:none;"/>
	<path d="M 2157.0,1281.0 C 2140.81,1291.29 2127.61,1309.27 2117.0,1325.0" style="stroke:#010101; fill:none;"/>
	<path d="M 827.0,1284.0 L 830.0,1282.0" style="stroke:#010101; fill:none;"/>
	<path d="M 870.0,1283.0 L 870.0,1285.0" style="stroke:#010101; fill:none;"/>
	<path d="M 802.0,1309.0 C 814.018,1299.94 827.281,1288.24 842.0,1284.0" style="stroke:#010101; fill:none;"/>
	<path d="M 971.0,1284.0 L 968.0,1286.0" style="stroke:#010101; fill:none;"/>
	<path d="M 842.0,1297.0 C 846.703,1290.91 855.445,1286.35 863.0,1285.0" style="stroke:#010101; fill:none;"/>
	<path d="M 803.0,1286.0 L 792.0,1302.0 L 795.0,1301.0" style="stroke:#010101; fill:none;"/>
	<path d="M 827.0,1286.0 L 790.0,1313.0 L 790.0,1305.0 C 785.647,1308.88 779.227,1316.02 781.0,1322.0 L 790.0,1313.0" style="stroke:#010101; fill:none;"/>
	<path d="M 843.0,1286.0 L 794.0,1321.0" style="stroke:#010101; fill:none;"/>
	<path d="M 971.0,1287.0 L 971.0,1288.0" style="stroke:#010101; fill:none;"/>
	<path d="M 796.0,1288.0 L 795.0,1289.0" style="stroke:#010101; fill:none;"/>
	<path d="M 964.0,1292.0 C 961.852,1291.62 959.811,1290.82 962.0,1289.0" style="stroke:#010101; fill:none;"/>
	<path d="M 1375.0,1288.0 L 1388.0,1325.0" style="stroke:#010101; fill:none;"/>
	<path d="M 954.0,1293.0 L 953.0,1289.0 L 958.0,1290.0 C 955.813,1292.21 954.085,1293.32 956.0,1296.0 L 956.0,1293.0" style="stroke:#010101; fill:none;"/>
	<path d="M 973.0,1290.0 L 974.0,1290.0" style="stroke:#010101; fill:none;"/>
	<path d="M 1407.0,1290.0 L 1408.0,1292.0" style="stroke:#010101; fill:none;"/>
	<path d="M 928.0,1306.0 L 931.0,1305.0 L 924.0,1305.0 C 922.59,1308.63 922.029,1310.34 918.0,1311.0 C 918.682,1298.84 939.728,1290.33 951.0,1292.0" style="stroke:#010101; fill:none;"/>
	<path d="M 969.0,1308.0 L 968.0,1304.0 C 973.051,1308.31 975.793,1303.99 981.0,1302.01 C 990.414,1298.44 1001.24,1295.26 1011.0,1292.76 C 1023.44,1289.58 1037.43,1291.74 1050.0,1292.68 C 1063.57,1293.68 1075.58,1293.47 1089.0,1297.44 C 1102.39,1301.4 1123.08,1311.8 1137.0,1307.0" style="stroke:#010101; fill:none;"/>
	<path d="M 961.0,1292.0 L 958.0,1295.0" style="stroke:#010101; fill:none;"/>
	<path d="M 1408.0,1292.0 L 1417.0,1304.0" style="stroke:#010101; fill:none;"/>
	<path d="M 770.0,1293.0 L 768.0,1295.0 L 772.0,1294.0" style="stroke:#010101; fill:none;"/>
	<path d="M 952.0,1294.0 L 945.0,1300.0 L 947.0,1297.0" style="stroke:#010101; fill:none;"/>
	<path d="M 844.0,1294.0 L 846.0,1296.0" style="stroke:#010101; fill:none;"/>
	<path d="M 871.0,1296.0 L 866.0,1296.0 L 870.0,1294.0" style="stroke:#010101; fill:none;"/>
	<path d="M 954.0,1295.0 L 948.0,1299.0" style="stroke:#010101; fill:none;"/>
	<path d="M 794.0,1299.0 L 797.0,1296.0" style="stroke:#010101; fill:none;"/>
	<path d="M 735.0,1375.0 C 757.52,1357.84 779.777,1339.29 802.0,1321.71 C 813.292,1312.78 827.671,1299.29 842.0,1296.0" style="stroke:#010101; fill:none;"/>
	<path d="M 870.0,1303.0 L 863.0,1299.0 L 866.0,1297.0" style="stroke:#010101; fill:none;"/>
	<path d="M 931.0,1306.0 L 944.0,1297.0" style="stroke:#010101; fill:none;"/>
	<path d="M 762.0,1299.0 L 766.0,1299.0" style="stroke:#010101; fill:none;"/>
	<path d="M 753.0,1315.0 L 752.0,1317.0 L 776.0,1299.0" style="stroke:#010101; fill:none;"/>
	<path d="M 837.0,1311.0 L 835.0,1315.0 C 839.078,1313.69 839.728,1309.68 843.037,1307.05 C 848.245,1302.92 856.377,1299.43 863.0,1299.0" style="stroke:#010101; fill:none;"/>
	<path d="M 941.0,1299.0 L 944.0,1301.0" style="stroke:#010101; fill:none;"/>
	<path d="M 940.0,1300.0 L 942.0,1301.0" style="stroke:#010101; fill:none;"/>
	<path d="M 862.0,1301.0 L 865.0,1303.0" style="stroke:#010101; fill:none;"/>
	<path d="M 758.0,1302.0 L 754.0,1304.0" style="stroke:#010101; fill:none;"/>
	<path d="M 763.0,1302.0 C 760.161,1306.31 756.495,1309.64 758.0,1315.0" style="stroke:#010101; fill:none;"/>
	<path d="M 783.0,1302.0 C 775.642,1312.77 765.837,1320.42 757.17,1330.0 C 746.906,1341.34 737.718,1353.8 727.271,1364.92 C 717.473,1375.35 705.287,1384.74 703.0,1400.0" style="stroke:#010101; fill:none;"/>
	<path d="M 792.0,1302.0 L 789.0,1305.0" style="stroke:#010101; fill:none;"/>
	<path d="M 918.0,1307.0 L 915.0,1304.0 L 919.0,1302.0" style="stroke:#010101; fill:none;"/>
	<path d="M 930.0,1303.0 L 934.0,1302.0" style="stroke:#010101; fill:none;"/>
	<path d="M 973.0,1305.0 L 977.0,1304.0" style="stroke:#010101; fill:none;"/>
	<path d="M 793.0,1303.0 L 792.0,1306.0" style="stroke:#010101; fill:none;"/>
	<path d="M 935.0,1304.0 L 939.0,1303.0" style="stroke:#010101; fill:none;"/>
	<path d="M 969.0,1304.0 L 973.0,1303.0" style="stroke:#010101; fill:none;"/>
	<path d="M 599.0,1304.0 C 586.914,1327.71 573.293,1352.31 566.0,1378.0" style="stroke:#010101; fill:none;"/>
	<path d="M 840.0,1313.0 L 861.0,1304.0" style="stroke:#010101; fill:none;"/>
	<path d="M 895.0,1304.0 L 885.0,1313.0 L 893.0,1313.0 C 884.234,1324.9 862.673,1339.97 849.0,1345.0 L 852.0,1344.0" style="stroke:#010101; fill:none;"/>
	<path d="M 910.0,1309.0 L 915.0,1305.0" style="stroke:#010101; fill:none;"/>
	<path d="M 1422.0,1304.0 C 1434.03,1324.83 1466.88,1338.99 1488.0,1349.0" style="stroke:#010101; fill:none;"/>
	<path d="M 894.0,1312.0 L 911.0,1305.0" style="stroke:#010101; fill:none;"/>
	<path d="M 915.0,1305.0 L 913.0,1307.0" style="stroke:#010101; fill:none;"/>
	<path d="M 919.0,1305.0 L 918.0,1310.0" style="stroke:#010101; fill:none;"/>
	<path d="M 1054.0,1321.0 C 1045.79,1320.93 1038.1,1318.28 1030.0,1317.29 C 1020.95,1316.17 1011.34,1317.72 1005.0,1310.0 C 1016.04,1302.68 1024.01,1307.01 1036.0,1307.91 C 1046.67,1308.71 1054.86,1313.41 1065.0,1316.11 C 1085.74,1321.65 1113.65,1324.91 1131.0,1338.0" style="stroke:#010101; fill:none;"/>
	<path d="M 748.0,1306.0 L 750.0,1308.0" style="stroke:#010101; fill:none;"/>
	<path d="M 914.0,1306.0 L 918.0,1310.0" style="stroke:#010101; fill:none;"/>
	<path d="M 943.0,1316.0 C 942.237,1320.0 939.822,1320.91 936.0,1320.0 C 944.624,1313.38 956.946,1305.45 968.0,1308.0" style="stroke:#010101; fill:none;"/>
	<path d="M 1015.0,1306.0 C 1014.1,1309.38 1013.04,1309.48 1010.0,1308.0" style="stroke:#010101; fill:none;"/>
	<path d="M 2117.0,1306.0 L 2106.0,1323.0" style="stroke:#010101; fill:none;"/>
	<path d="M 767.0,1308.0 L 769.0,1310.0 L 767.0,1312.0 L 765.0,1310.0" style="stroke:#010101; fill:none;"/>
	<path d="M 772.0,1308.0 L 770.0,1310.0" style="stroke:#010101; fill:none;"/>
	<path d="M 865.0,1311.0 L 879.0,1308.0" style="stroke:#010101; fill:none;"/>
	<path d="M 927.0,1308.0 L 924.0,1309.0" style="stroke:#010101; fill:none;"/>
	<path d="M 1134.0,1309.0 C 1152.56,1323.27 1174.13,1343.52 1178.54,1368.0 C 1181.09,1382.17 1177.83,1398.36 1174.0,1412.0" style="stroke:#010101; fill:none;"/>
	<path d="M 1207.0,1309.0 C 1214.19,1317.22 1217.64,1330.29 1219.0,1341.0" style="stroke:#010101; fill:none;"/>
	<path d="M 2139.0,1309.0 L 2117.0,1341.0" style="stroke:#010101; fill:none;"/>
	<path d="M 752.0,1313.0 L 757.0,1310.0" style="stroke:#010101; fill:none;"/>
	<path d="M 945.0,1318.0 L 966.0,1309.0" style="stroke:#010101; fill:none;"/>
	<path d="M 835.0,1446.0 C 840.016,1440.05 846.929,1442.03 854.0,1442.61 C 868.15,1443.77 882.816,1443.29 897.0,1442.98 C 937.152,1442.13 981.671,1425.69 1017.0,1408.0 C 1013.49,1399.87 1022.88,1387.2 1023.0,1378.0 C 1023.23,1359.07 1016.17,1336.9 1000.83,1324.64 C 995.823,1320.64 989.134,1319.75 984.0,1316.0 C 989.11,1310.32 997.746,1310.0 1005.0,1310.0" style="stroke:#010101; fill:none;"/>
	<path d="M 863.0,1349.0 C 875.102,1340.84 889.952,1333.91 900.742,1324.1 C 906.555,1318.81 906.443,1310.78 917.0,1312.0" style="stroke:#010101; fill:none;"/>
	<path d="M 741.0,1312.0 C 721.262,1329.24 708.067,1350.61 695.0,1373.0" style="stroke:#010101; fill:none;"/>
	<path d="M 767.0,1312.0 L 752.537,1330.17 L 728.0,1359.0" style="stroke:#010101; fill:none;"/>
	<path d="M 1207.0,1312.0 L 1209.0,1312.0" style="stroke:#010101; fill:none;"/>
	<path d="M 1423.0,1312.0 C 1431.08,1321.24 1439.77,1328.75 1451.0,1334.0" style="stroke:#010101; fill:none;"/>
	<path d="M 755.0,1313.0 L 756.0,1313.0" style="stroke:#010101; fill:none;"/>
	<path d="M 858.0,1314.0 L 848.0,1317.0 L 851.0,1313.0" style="stroke:#010101; fill:none;"/>
	<path d="M 885.0,1313.0 L 851.0,1342.0" style="stroke:#010101; fill:none;"/>
	<path d="M 917.0,1313.0 L 905.0,1322.0" style="stroke:#010101; fill:none;"/>
	<path d="M 1208.0,1313.0 L 1212.0,1320.0" style="stroke:#010101; fill:none;"/>
	<path d="M 2062.0,1313.0 L 2079.0,1354.0" style="stroke:#010101; fill:none;"/>
	<path d="M 743.0,1315.0 L 724.754,1336.0 L 702.0,1372.0" style="stroke:#010101; fill:none;"/>
	<path d="M 834.0,1317.0 L 830.0,1316.0 L 834.0,1316.0" style="stroke:#010101; fill:none;"/>
	<path d="M 833.0,1318.0 L 802.0,1341.0 C 796.721,1331.66 822.556,1319.1 830.0,1316.0" style="stroke:#010101; fill:none;"/>
	<path d="M 903.0,1319.0 L 904.0,1316.0" style="stroke:#010101; fill:none;"/>
	<path d="M 908.0,1316.0 L 905.0,1317.0" style="stroke:#010101; fill:none;"/>
	<path d="M 969.0,1330.0 L 961.0,1325.0 L 984.0,1316.0" style="stroke:#010101; fill:none;"/>
	<path d="M 751.0,1317.0 L 729.0,1346.0 L 731.0,1341.0" style="stroke:#010101; fill:none;"/>
	<path d="M 755.0,1317.0 L 757.0,1317.0" style="stroke:#010101; fill:none;"/>
	<path d="M 848.0,1317.0 C 842.19,1321.43 833.44,1326.21 826.0,1324.0" style="stroke:#010101; fill:none;"/>
	<path d="M 901.0,1320.0 L 893.0,1321.0 L 901.0,1317.0" style="stroke:#010101; fill:none;"/>
	<path d="M 755.0,1319.0 C 746.956,1330.56 737.011,1342.1 727.0,1352.0 C 723.508,1355.45 715.625,1357.88 717.0,1363.0 L 720.0,1360.0" style="stroke:#010101; fill:none;"/>
	<path d="M 924.0,1327.0 L 936.0,1320.0" style="stroke:#010101; fill:none;"/>
	<path d="M 867.0,1322.0 L 871.0,1321.0" style="stroke:#010101; fill:none;"/>
	<path d="M 888.0,1323.0 L 888.0,1325.0 L 893.0,1321.0" style="stroke:#010101; fill:none;"/>
	<path d="M 780.0,1322.0 L 742.222,1358.0 L 732.0,1370.0" style="stroke:#010101; fill:none;"/>
	<path d="M 891.0,1322.0 L 895.0,1324.0" style="stroke:#010101; fill:none;"/>
	<path d="M 937.0,1322.0 L 923.0,1331.0" style="stroke:#010101; fill:none;"/>
	<path d="M 970.0,1322.0 C 974.6,1325.9 979.054,1326.88 985.0,1327.0" style="stroke:#010101; fill:none;"/>
	<path d="M 882.0,1323.0 L 887.0,1324.0" style="stroke:#010101; fill:none;"/>
	<path d="M 1067.0,1323.0 L 1098.0,1333.0" style="stroke:#010101; fill:none;"/>
	<path d="M 890.0,1324.0 L 893.0,1325.0" style="stroke:#010101; fill:none;"/>
	<path d="M 838.0,1325.0 L 829.0,1337.0 L 840.0,1336.0" style="stroke:#010101; fill:none;"/>
	<path d="M 851.0,1325.0 L 849.0,1327.0" style="stroke:#010101; fill:none;"/>
	<path d="M 888.0,1325.0 L 886.0,1330.0 L 889.0,1328.0" style="stroke:#010101; fill:none;"/>
	<path d="M 962.0,1337.0 C 956.15,1336.88 951.728,1335.72 948.0,1331.0 L 961.0,1325.0" style="stroke:#010101; fill:none;"/>
	<path d="M 892.0,1326.0 L 890.0,1328.0" style="stroke:#010101; fill:none;"/>
	<path d="M 853.0,1327.0 L 856.0,1327.0" style="stroke:#010101; fill:none;"/>
	<path d="M 829.0,1338.0 L 796.0,1361.45 L 781.0,1371.0 C 791.856,1355.59 816.123,1334.55 834.0,1328.0" style="stroke:#010101; fill:none;"/>
	<path d="M 881.0,1331.0 L 886.0,1329.0" style="stroke:#010101; fill:none;"/>
	<path d="M 943.0,1328.0 L 948.0,1331.0" style="stroke:#010101; fill:none;"/>
	<path d="M 945.0,1331.0 C 942.373,1336.06 945.596,1338.43 950.0,1341.0" style="stroke:#010101; fill:none;"/>
	<path d="M 848.0,1354.0 L 880.0,1332.0" style="stroke:#010101; fill:none;"/>
	<path d="M 1103.0,1332.0 C 1109.14,1336.71 1113.26,1342.41 1115.1,1350.0 C 1115.74,1352.65 1114.56,1360.29 1116.69,1361.88 C 1121.59,1365.53 1135.09,1356.46 1136.79,1352.0 C 1137.99,1348.85 1135.83,1345.04 1135.0,1342.0" style="stroke:#010101; fill:none;"/>
	<path d="M 2132.0,1333.0 C 2125.29,1340.28 2115.81,1349.99 2114.0,1360.0" style="stroke:#010101; fill:none;"/>
	<path d="M 840.0,1334.0 L 841.0,1334.0" style="stroke:#010101; fill:none;"/>
	<path d="M 936.0,1352.0 C 930.18,1342.49 932.057,1339.05 942.0,1334.0" style="stroke:#010101; fill:none;"/>
	<path d="M 731.0,1341.0 L 733.0,1338.0" style="stroke:#010101; fill:none;"/>
	<path d="M 801.0,1338.0 L 803.0,1339.0" style="stroke:#010101; fill:none;"/>
	<path d="M 936.0,1338.0 L 943.0,1346.0" style="stroke:#010101; fill:none;"/>
	<path d="M 788.0,1344.0 L 784.0,1347.0 L 798.0,1339.0" style="stroke:#010101; fill:none;"/>
	<path d="M 592.0,1340.0 L 564.0,1410.0" style="stroke:#010101; fill:none;"/>
	<path d="M 801.0,1341.0 C 772.79,1368.0 741.529,1392.26 718.0,1424.0" style="stroke:#010101; fill:none;"/>
	<path d="M 922.0,1360.0 C 921.917,1350.61 920.937,1347.17 930.0,1342.0" style="stroke:#010101; fill:none;"/>
	<path d="M 896.0,1343.0 C 890.242,1354.04 875.4,1364.57 865.0,1371.34 C 846.504,1383.39 827.163,1394.89 811.014,1410.08 C 796.545,1423.68 793.767,1441.97 788.0,1460.0" style="stroke:#010101; fill:none;"/>
	<path d="M 918.0,1343.0 C 918.095,1353.61 913.761,1366.53 909.0,1376.0" style="stroke:#010101; fill:none;"/>
	<path d="M 850.0,1347.0 L 847.0,1348.0 L 849.0,1345.0" style="stroke:#010101; fill:none;"/>
	<path d="M 891.0,1347.0 L 894.0,1345.0" style="stroke:#010101; fill:none;"/>
	<path d="M 725.0,1352.0 C 725.784,1348.71 726.618,1347.74 730.0,1348.0" style="stroke:#010101; fill:none;"/>
	<path d="M 725.0,1400.0 C 737.715,1379.99 762.692,1357.61 784.0,1347.0" style="stroke:#010101; fill:none;"/>
	<path d="M 820.0,1347.0 L 814.0,1355.0" style="stroke:#010101; fill:none;"/>
	<path d="M 926.0,1347.0 L 928.0,1357.0" style="stroke:#010101; fill:none;"/>
	<path d="M 727.0,1348.0 L 729.0,1350.0" style="stroke:#010101; fill:none;"/>
	<path d="M 785.0,1349.0 C 760.044,1371.98 732.042,1392.12 712.0,1420.0" style="stroke:#010101; fill:none;"/>
	<path d="M 825.0,1369.0 L 846.0,1349.0" style="stroke:#010101; fill:none;"/>
	<path d="M 724.0,1354.0 L 724.0,1350.0" style="stroke:#010101; fill:none;"/>
	<path d="M 2125.0,1350.0 C 2119.1,1357.32 2113.84,1364.35 2113.0,1374.0" style="stroke:#010101; fill:none;"/>
	<path d="M 907.0,1352.0 L 906.0,1358.0 L 909.0,1358.0 L 907.0,1374.0" style="stroke:#010101; fill:none;"/>
	<path d="M 721.0,1353.0 L 718.0,1356.0" style="stroke:#010101; fill:none;"/>
	<path d="M 910.0,1357.0 L 916.0,1353.0" style="stroke:#010101; fill:none;"/>
	<path d="M 962.0,1353.0 C 967.806,1356.04 973.456,1362.2 971.0,1369.0 L 969.0,1369.0" style="stroke:#010101; fill:none;"/>
	<path d="M 958.0,1357.0 C 954.736,1362.83 952.916,1372.86 956.858,1378.91 C 965.161,1391.64 973.517,1378.32 974.0,1369.0" style="stroke:#010101; fill:none;"/>
	<path d="M 906.0,1358.0 L 903.0,1362.0 L 908.0,1365.0" style="stroke:#010101; fill:none;"/>
	<path d="M 717.0,1359.0 L 719.0,1361.0" style="stroke:#010101; fill:none;"/>
	<path d="M 790.0,1381.0 C 799.279,1373.85 811.52,1361.72 823.0,1359.0" style="stroke:#010101; fill:none;"/>
	<path d="M 899.0,1359.0 L 901.0,1365.0 L 903.0,1363.0" style="stroke:#010101; fill:none;"/>
	<path d="M 598.0,1360.0 C 590.778,1382.2 583.969,1407.4 573.0,1428.0" style="stroke:#010101; fill:none;"/>
	<path d="M 715.0,1361.0 L 715.0,1366.0 L 715.0,1363.0" style="stroke:#010101; fill:none;"/>
	<path d="M 1115.0,1362.0 L 1079.0,1373.71 L 1018.0,1408.0" style="stroke:#010101; fill:none;"/>
	<path d="M 732.0,1367.0 L 736.0,1363.0" style="stroke:#010101; fill:none;"/>
	<path d="M 2079.0,1363.0 C 2080.31,1372.73 2084.56,1381.91 2090.0,1390.0" style="stroke:#010101; fill:none;"/>
	<path d="M 713.0,1364.0 L 709.0,1368.0" style="stroke:#010101; fill:none;"/>
	<path d="M 714.0,1365.0 L 700.0,1393.0" style="stroke:#010101; fill:none;"/>
	<path d="M 822.0,1365.0 L 820.0,1368.0" style="stroke:#010101; fill:none;"/>
	<path d="M 901.0,1365.0 L 889.0,1393.0" style="stroke:#010101; fill:none;"/>
	<path d="M 723.0,1367.0 L 726.0,1366.0" style="stroke:#010101; fill:none;"/>
	<path d="M 893.0,1367.0 L 896.0,1369.0" style="stroke:#010101; fill:none;"/>
	<path d="M 724.0,1369.0 L 722.0,1377.0 L 729.0,1371.0" style="stroke:#010101; fill:none;"/>
	<path d="M 893.0,1369.0 L 877.0,1403.0" style="stroke:#010101; fill:none;"/>
	<path d="M 781.0,1371.0 L 779.0,1373.0 L 783.0,1372.0" style="stroke:#010101; fill:none;"/>
	<path d="M 730.0,1372.0 L 730.0,1374.0" style="stroke:#010101; fill:none;"/>
	<path d="M 882.0,1372.0 L 880.0,1377.0 L 886.0,1376.0" style="stroke:#010101; fill:none;"/>
	<path d="M 714.0,1435.0 C 734.293,1413.79 752.975,1387.83 779.0,1373.0" style="stroke:#010101; fill:none;"/>
	<path d="M 721.0,1376.0 L 719.0,1382.0" style="stroke:#010101; fill:none;"/>
	<path d="M 2078.0,1376.0 L 2090.0,1410.0" style="stroke:#010101; fill:none;"/>
	<path d="M 722.0,1377.0 L 721.0,1380.0" style="stroke:#010101; fill:none;"/>
	<path d="M 729.0,1378.0 C 717.896,1390.09 704.619,1405.96 700.0,1422.0" style="stroke:#010101; fill:none;"/>
	<path d="M 881.0,1378.0 C 879.076,1383.07 876.747,1386.84 871.0,1387.0 L 872.0,1381.0" style="stroke:#010101; fill:none;"/>
	<path d="M 884.0,1378.0 L 887.0,1381.0" style="stroke:#010101; fill:none;"/>
	<path d="M 896.0,1381.0 C 899.888,1386.82 900.515,1393.88 903.866,1400.0 C 912.984,1416.65 929.555,1429.02 949.0,1426.0" style="stroke:#010101; fill:none;"/>
	<path d="M 717.0,1384.0 L 701.0,1411.0" style="stroke:#010101; fill:none;"/>
	<path d="M 863.0,1388.0 L 866.0,1398.0 L 870.0,1388.0" style="stroke:#010101; fill:none;"/>
	<path d="M 875.0,1388.0 C 874.22,1392.53 872.733,1400.8 867.0,1398.0 C 865.47,1403.24 867.662,1406.0 868.701,1411.0 C 872.089,1427.3 874.763,1432.15 889.0,1441.0" style="stroke:#010101; fill:none;"/>
	<path d="M 772.0,1389.0 L 714.0,1445.0" style="stroke:#010101; fill:none;"/>
	<path d="M 562.0,1390.0 L 560.0,1395.0" style="stroke:#010101; fill:none;"/>
	<path d="M 864.0,1393.0 L 867.0,1393.0" style="stroke:#010101; fill:none;"/>
	<path d="M 868.0,1394.0 L 872.0,1398.0" style="stroke:#010101; fill:none;"/>
	<path d="M 863.0,1395.0 L 852.0,1426.0" style="stroke:#010101; fill:none;"/>
	<path d="M 670.0,1399.0 L 665.0,1440.0" style="stroke:#010101; fill:none;"/>
	<path d="M 851.0,1400.0 C 848.957,1416.27 845.638,1425.14 836.0,1439.0" style="stroke:#010101; fill:none;"/>
	<path d="M 870.0,1401.0 L 867.0,1407.0" style="stroke:#010101; fill:none;"/>
	<path d="M 606.0,1405.0 L 600.0,1420.0 L 602.0,1418.0" style="stroke:#010101; fill:none;"/>
	<path d="M 857.0,1411.0 C 855.352,1408.23 854.934,1407.49 857.0,1405.0" style="stroke:#010101; fill:none;"/>
	<path d="M 718.0,1406.0 L 702.0,1431.0" style="stroke:#010101; fill:none;"/>
	<path d="M 866.0,1406.0 L 857.0,1420.0" style="stroke:#010101; fill:none;"/>
	<path d="M 1015.0,1406.0 L 1013.0,1408.0" style="stroke:#010101; fill:none;"/>
	<path d="M 816.0,1408.0 L 814.0,1408.0" style="stroke:#010101; fill:none;"/>
	<path d="M 854.0,1408.0 L 852.0,1410.0" style="stroke:#010101; fill:none;"/>
	<path d="M 2229.0,1408.0 C 2224.06,1431.74 2207.64,1454.58 2192.58,1473.0 C 2186.42,1480.52 2179.75,1489.08 2171.0,1493.74 C 2165.76,1496.53 2159.74,1496.0 2154.0,1496.0" style="stroke:#010101; fill:none;"/>
	<path d="M 849.0,1410.0 L 850.0,1413.0" style="stroke:#010101; fill:none;"/>
	<path d="M 2089.0,1412.0 L 2089.0,1414.0" style="stroke:#010101; fill:none;"/>
	<path d="M 844.0,1413.0 C 840.308,1419.33 832.497,1429.1 837.0,1436.0" style="stroke:#010101; fill:none;"/>
	<path d="M 611.0,1416.0 L 594.656,1459.0 L 585.0,1487.0" style="stroke:#010101; fill:none;"/>
	<path d="M 753.0,1416.0 C 742.163,1425.46 731.115,1434.2 724.0,1447.0" style="stroke:#010101; fill:none;"/>
	<path d="M 2090.0,1416.0 L 2100.0,1435.0" style="stroke:#010101; fill:none;"/>
	<path d="M 1033.0,1418.0 L 1040.0,1435.0" style="stroke:#010101; fill:none;"/>
	<path d="M 599.0,1421.0 L 600.0,1436.0" style="stroke:#010101; fill:none;"/>
	<path d="M 1047.0,1421.0 L 1047.0,1437.0" style="stroke:#010101; fill:none;"/>
	<path d="M 601.0,1422.0 L 600.0,1423.0" style="stroke:#010101; fill:none;"/>
	<path d="M 598.0,1423.0 L 580.0,1468.0" style="stroke:#010101; fill:none;"/>
	<path d="M 1087.0,1425.0 C 1077.76,1433.07 1068.59,1448.72 1056.0,1451.0" style="stroke:#010101; fill:none;"/>
	<path d="M 1057.0,1427.0 L 1057.0,1428.0" style="stroke:#010101; fill:none;"/>
	<path d="M 669.0,1429.0 L 669.0,1448.0" style="stroke:#010101; fill:none;"/>
	<path d="M 679.0,1429.0 L 677.0,1465.0" style="stroke:#010101; fill:none;"/>
	<path d="M 751.0,1431.0 C 737.608,1441.91 726.432,1456.31 716.0,1470.0" style="stroke:#010101; fill:none;"/>
	<path d="M 1016.0,1431.0 L 1019.0,1440.0" style="stroke:#010101; fill:none;"/>
	<path d="M 834.0,1433.0 C 830.349,1438.13 823.141,1447.78 825.0,1454.0 L 832.0,1446.0" style="stroke:#010101; fill:none;"/>
	<path d="M 1003.0,1435.0 L 1005.0,1448.0" style="stroke:#010101; fill:none;"/>
	<path d="M 2109.0,1435.0 L 2111.0,1442.0" style="stroke:#010101; fill:none;"/>
	<path d="M 841.0,1436.0 L 840.0,1440.0" style="stroke:#010101; fill:none;"/>
	<path d="M 2094.0,1436.0 L 2099.0,1448.0" style="stroke:#010101; fill:none;"/>
	<path d="M 837.0,1437.0 L 839.0,1439.0" style="stroke:#010101; fill:none;"/>
	<path d="M 999.0,1467.0 C 991.295,1461.27 986.336,1445.14 993.0,1437.0" style="stroke:#010101; fill:none;"/>
	<path d="M 979.0,1440.0 L 980.0,1466.0" style="stroke:#010101; fill:none;"/>
	<path d="M 961.0,1442.0 L 951.0,1462.0 L 950.0,1459.0" style="stroke:#010101; fill:none;"/>
	<path d="M 969.0,1444.0 C 966.51,1449.9 966.197,1456.18 969.0,1462.0" style="stroke:#010101; fill:none;"/>
	<path d="M 974.0,1446.0 L 975.0,1458.0" style="stroke:#010101; fill:none;"/>
	<path d="M 673.0,1448.0 L 672.0,1466.0" style="stroke:#010101; fill:none;"/>
	<path d="M 825.0,1454.0 C 814.288,1466.56 804.211,1484.91 787.0,1489.0" style="stroke:#010101; fill:none;"/>
	<path d="M 685.0,1455.0 L 685.0,1473.0 L 687.0,1471.0" style="stroke:#010101; fill:none;"/>
	<path d="M 831.0,1456.0 L 822.0,1468.0" style="stroke:#010101; fill:none;"/>
	<path d="M 942.0,1456.0 L 937.0,1470.0" style="stroke:#010101; fill:none;"/>
	<path d="M 946.0,1456.0 C 946.0,1462.49 943.763,1474.07 950.0,1478.0 L 951.0,1474.0 L 957.0,1485.0" style="stroke:#010101; fill:none;"/>
	<path d="M 937.0,1475.0 C 931.137,1471.2 934.981,1458.9 941.0,1457.0" style="stroke:#010101; fill:none;"/>
	<path d="M 838.0,1458.0 L 838.0,1463.0 L 840.0,1461.0" style="stroke:#010101; fill:none;"/>
	<path d="M 894.0,1483.0 C 898.109,1470.93 907.14,1460.69 920.0,1458.0" style="stroke:#010101; fill:none;"/>
	<path d="M 893.0,1459.0 C 883.545,1466.27 879.851,1477.98 874.0,1488.0" style="stroke:#010101; fill:none;"/>
	<path d="M 913.0,1495.0 C 913.827,1484.54 916.657,1464.1 927.0,1459.0" style="stroke:#010101; fill:none;"/>
	<path d="M 834.0,1484.0 C 836.012,1475.31 840.178,1462.02 850.0,1460.0" style="stroke:#010101; fill:none;"/>
	<path d="M 844.0,1492.0 C 844.504,1480.3 849.244,1461.42 863.0,1460.0" style="stroke:#010101; fill:none;"/>
	<path d="M 911.0,1462.0 L 914.0,1460.0" style="stroke:#010101; fill:none;"/>
	<path d="M 827.0,1474.0 L 834.0,1462.0 L 835.0,1463.0 L 837.0,1463.0 L 837.0,1463.0" style="stroke:#010101; fill:none;"/>
	<path d="M 886.0,1483.0 C 889.672,1474.76 891.384,1466.48 900.0,1462.0" style="stroke:#010101; fill:none;"/>
	<path d="M 951.0,1462.0 L 951.0,1471.0 L 952.0,1466.0" style="stroke:#010101; fill:none;"/>
	<path d="M 866.0,1492.0 C 870.707,1482.07 875.817,1468.4 886.0,1463.0" style="stroke:#010101; fill:none;"/>
	<path d="M 913.0,1463.0 L 911.0,1493.0" style="stroke:#010101; fill:none;"/>
	<path d="M 693.0,1465.0 L 690.0,1483.0" style="stroke:#010101; fill:none;"/>
	<path d="M 836.0,1465.0 L 835.0,1466.0" style="stroke:#010101; fill:none;"/>
	<path d="M 860.0,1494.0 C 860.4,1484.7 863.159,1469.43 873.0,1466.0" style="stroke:#010101; fill:none;"/>
	<path d="M 908.0,1466.0 L 898.0,1488.0" style="stroke:#010101; fill:none;"/>
	<path d="M 833.0,1468.0 L 831.0,1468.0" style="stroke:#010101; fill:none;"/>
	<path d="M 832.0,1469.0 L 829.0,1477.0" style="stroke:#010101; fill:none;"/>
	<path d="M 609.0,1470.0 L 591.0,1507.0" style="stroke:#010101; fill:none;"/>
	<path d="M 829.0,1471.0 L 831.0,1473.0" style="stroke:#010101; fill:none;"/>
	<path d="M 951.0,1471.0 L 951.0,1474.0" style="stroke:#010101; fill:none;"/>
	<path d="M 685.0,1473.0 L 685.0,1475.0" style="stroke:#010101; fill:none;"/>
	<path d="M 951.0,1479.0 L 954.0,1489.0" style="stroke:#010101; fill:none;"/>
	<path d="M 843.0,1508.0 C 882.598,1526.44 930.522,1524.3 971.0,1509.91 C 986.598,1504.37 1000.63,1495.05 1016.0,1489.0" style="stroke:#010101; fill:none;"/>
	<path d="M 1216.0,1494.0 C 1216.0,1520.34 1211.88,1546.54 1213.04,1573.0 C 1215.14,1621.06 1222.28,1665.23 1233.0,1712.0" style="stroke:#010101; fill:none;"/>
	<path d="M 615.0,1504.0 L 597.0,1531.0" style="stroke:#010101; fill:none;"/>
	<path d="M 383.0,1520.0 C 382.589,1529.55 378.086,1538.72 382.0,1548.0 L 405.0,1509.0 L 409.0,1520.0 L 413.0,1513.0" style="stroke:#010101; fill:none;"/>
	<path d="M 422.0,1516.0 L 429.0,1529.0 L 433.0,1525.0 L 436.0,1530.0 L 443.0,1525.0" style="stroke:#010101; fill:none;"/>
	<path d="M 409.0,1520.0 L 409.0,1522.0" style="stroke:#010101; fill:none;"/>
	<path d="M 432.0,1522.0 L 433.0,1525.0" style="stroke:#010101; fill:none;"/>
	<path d="M 383.0,1524.0 L 387.0,1528.0" style="stroke:#010101; fill:none;"/>
	<path d="M 615.0,1529.0 L 603.0,1552.0" style="stroke:#010101; fill:none;"/>
	<path d="M 429.0,1530.0 L 436.0,1531.0" style="stroke:#010101; fill:none;"/>
	<path d="M 433.0,1532.0 L 406.0,1556.0" style="stroke:#010101; fill:none;"/>
	<path d="M 437.0,1532.0 C 443.998,1540.01 465.197,1555.98 476.0,1549.0 L 483.0,1566.0 L 486.0,1557.0" style="stroke:#010101; fill:none;"/>
	<path d="M 464.0,1539.0 L 467.0,1549.0" style="stroke:#010101; fill:none;"/>
	<path d="M 382.0,1548.0 C 383.505,1565.23 396.882,1582.55 405.551,1597.0 C 431.498,1640.24 466.22,1677.77 499.83,1715.0 C 527.667,1745.83 540.669,1784.23 562.424,1819.0 C 569.82,1830.82 578.458,1841.49 587.576,1852.0 C 591.054,1856.01 597.15,1859.45 599.487,1864.17 C 602.552,1870.37 603.157,1878.41 605.355,1885.0 C 611.708,1904.06 622.754,1930.22 638.039,1943.79 C 642.476,1947.72 648.117,1948.42 653.0,1951.47 C 693.424,1976.68 757.891,1984.49 795.0,1949.0" style="stroke:#010101; fill:none;"/>
	<path d="M 414.0,1548.0 C 428.271,1582.28 455.749,1615.12 480.911,1642.0 C 491.191,1652.98 504.257,1667.6 518.0,1674.0 L 503.0,1604.0" style="stroke:#010101; fill:none;"/>
	<path d="M 469.0,1551.0 L 471.0,1563.0 L 474.0,1553.0" style="stroke:#010101; fill:none;"/>
	<path d="M 611.0,1561.0 L 607.0,1570.0" style="stroke:#010101; fill:none;"/>
	<path d="M 492.0,1562.0 C 503.553,1582.92 510.953,1607.58 528.0,1625.0 L 529.0,1621.0 L 525.0,1622.0" style="stroke:#010101; fill:none;"/>
	<path d="M 471.0,1563.0 L 466.0,1583.0" style="stroke:#010101; fill:none;"/>
	<path d="M 487.0,1565.0 L 484.0,1569.0 L 483.0,1566.0" style="stroke:#010101; fill:none;"/>
	<path d="M 2129.0,1568.0 C 2129.61,1576.04 2138.57,1582.24 2146.0,1584.0" style="stroke:#010101; fill:none;"/>
	<path d="M 484.0,1569.0 C 484.502,1582.94 484.853,1594.42 481.0,1608.0" style="stroke:#010101; fill:none;"/>
	<path d="M 627.0,1570.0 C 622.883,1585.4 617.966,1605.07 621.0,1621.0" style="stroke:#010101; fill:none;"/>
	<path d="M 515.0,1579.0 C 518.651,1584.17 521.31,1589.57 521.0,1596.0" style="stroke:#010101; fill:none;"/>
	<path d="M 625.0,1601.0 C 625.0,1632.14 631.337,1669.43 644.0,1698.0" style="stroke:#010101; fill:none;"/>
	<path d="M 2152.0,1602.0 C 2153.9,1616.09 2157.44,1630.0 2159.92,1644.0 C 2161.0,1650.09 2164.5,1657.65 2156.0,1659.0" style="stroke:#010101; fill:none;"/>
	<path d="M 2148.0,1615.0 L 2149.0,1615.0" style="stroke:#010101; fill:none;"/>
	<path d="M 1620.0,1617.0 L 1648.0,1668.0" style="stroke:#010101; fill:none;"/>
	<path d="M 529.0,1625.0 L 544.0,1642.0" style="stroke:#010101; fill:none;"/>
	<path d="M 632.0,1635.0 C 637.151,1674.89 659.817,1719.62 693.0,1743.0" style="stroke:#010101; fill:none;"/>
	<path d="M 560.0,1658.0 C 557.903,1668.75 562.446,1680.54 564.551,1691.0 C 569.844,1717.3 575.1,1747.41 586.0,1772.0" style="stroke:#010101; fill:none;"/>
	<path d="M 2163.0,1659.0 C 2163.48,1682.31 2169.03,1705.48 2169.0,1729.0 C 2168.99,1740.09 2171.94,1748.45 2164.0,1757.0" style="stroke:#010101; fill:none;"/>
	<path d="M 646.0,1670.0 C 654.915,1688.74 664.509,1707.85 679.0,1723.0" style="stroke:#010101; fill:none;"/>
	<path d="M 519.0,1675.0 L 541.0,1749.0" style="stroke:#010101; fill:none;"/>
	<path d="M 577.0,1687.0 L 591.0,1706.0 L 591.0,1699.0" style="stroke:#010101; fill:none;"/>
	<path d="M 1659.0,1689.0 C 1659.3,1703.4 1665.31,1716.82 1666.83,1731.0 C 1668.75,1748.95 1656.33,1773.69 1639.0,1779.91 C 1630.78,1782.86 1621.62,1783.9 1613.0,1785.0" style="stroke:#010101; fill:none;"/>
	<path d="M 666.0,1693.0 L 689.0,1729.0" style="stroke:#010101; fill:none;"/>
	<path d="M 650.0,1698.0 L 653.0,1699.0" style="stroke:#010101; fill:none;"/>
	<path d="M 592.0,1707.0 C 593.865,1711.07 596.457,1715.16 601.0,1716.0 L 601.0,1713.0" style="stroke:#010101; fill:none;"/>
	<path d="M 644.0,1709.0 C 659.902,1727.87 679.83,1742.79 699.0,1758.0" style="stroke:#010101; fill:none;"/>
	<path d="M 593.0,1712.0 L 594.0,1740.0" style="stroke:#010101; fill:none;"/>
	<path d="M 601.0,1718.0 L 608.0,1725.0 L 609.0,1722.0" style="stroke:#010101; fill:none;"/>
	<path d="M 2163.0,1720.0 L 2159.0,1726.0" style="stroke:#010101; fill:none;"/>
	<path d="M 600.0,1721.0 L 599.0,1752.0" style="stroke:#010101; fill:none;"/>
	<path d="M 609.0,1726.0 C 616.351,1741.09 637.491,1753.11 650.0,1764.0" style="stroke:#010101; fill:none;"/>
	<path d="M 649.0,1727.0 L 654.0,1730.0" style="stroke:#010101; fill:none;"/>
	<path d="M 609.0,1730.0 C 607.026,1738.29 605.561,1749.75 608.0,1758.0" style="stroke:#010101; fill:none;"/>
	<path d="M 615.0,1736.0 C 614.786,1746.36 612.699,1757.44 618.0,1767.0 C 624.034,1762.17 622.653,1754.94 621.0,1748.0" style="stroke:#010101; fill:none;"/>
	<path d="M 2160.0,1742.0 L 2168.0,1738.0" style="stroke:#010101; fill:none;"/>
	<path d="M 678.0,1743.0 C 678.857,1745.73 679.167,1746.26 682.0,1746.0 L 682.0,1746.0" style="stroke:#010101; fill:none;"/>
	<path d="M 681.0,1745.0 L 681.0,1747.0" style="stroke:#010101; fill:none;"/>
	<path d="M 1529.0,1789.0 C 1530.03,1775.21 1543.63,1766.12 1553.0,1758.05 C 1558.28,1753.51 1565.17,1747.7 1571.0,1754.0 C 1575.42,1751.14 1579.56,1746.89 1585.0,1746.23 C 1587.59,1745.91 1595.56,1748.09 1591.38,1751.81 C 1579.81,1762.11 1558.84,1759.35 1548.0,1772.0 C 1556.36,1773.62 1567.9,1765.96 1576.0,1763.43 C 1579.38,1762.37 1583.97,1762.41 1586.91,1760.44 C 1589.56,1758.66 1590.89,1755.85 1592.0,1753.0" style="stroke:#010101; fill:none;"/>
	<path d="M 1573.0,1751.0 L 1576.0,1748.0" style="stroke:#010101; fill:none;"/>
	<path d="M 680.0,1749.0 C 697.488,1771.05 710.96,1797.57 725.0,1822.0 C 729.063,1829.07 740.061,1839.61 738.0,1848.0 L 732.0,1836.0" style="stroke:#010101; fill:none;"/>
	<path d="M 1569.0,1750.0 L 1571.0,1749.0" style="stroke:#010101; fill:none;"/>
	<path d="M 629.0,1751.0 C 630.19,1759.84 630.088,1776.2 636.0,1783.0 L 640.0,1774.0 L 637.0,1775.0" style="stroke:#010101; fill:none;"/>
	<path d="M 1570.0,1754.0 C 1565.22,1756.98 1560.26,1759.96 1555.0,1757.0" style="stroke:#010101; fill:none;"/>
	<path d="M 2170.0,1755.0 C 2170.0,1765.03 2167.05,1776.87 2172.0,1786.0 L 2176.0,1781.0" style="stroke:#010101; fill:none;"/>
	<path d="M 543.0,1757.0 C 552.335,1770.23 553.912,1789.98 565.213,1801.83 C 577.025,1814.21 596.552,1817.48 609.816,1827.58 C 620.594,1835.8 625.744,1855.24 625.0,1868.0" style="stroke:#010101; fill:none;"/>
	<path d="M 1303.0,1757.0 C 1308.71,1764.2 1313.88,1773.9 1323.0,1777.0" style="stroke:#010101; fill:none;"/>
	<path d="M 1552.0,1759.0 L 1557.0,1760.0" style="stroke:#010101; fill:none;"/>
	<path d="M 1244.0,1763.0 C 1244.0,1792.22 1252.34,1814.44 1270.92,1837.0 C 1283.25,1851.96 1294.86,1861.94 1315.0,1862.0" style="stroke:#010101; fill:none;"/>
	<path d="M 1585.0,1763.0 C 1577.67,1769.69 1573.03,1774.18 1579.0,1784.0" style="stroke:#010101; fill:none;"/>
	<path d="M 623.0,1765.0 L 626.0,1773.0 L 629.0,1767.0" style="stroke:#010101; fill:none;"/>
	<path d="M 689.0,1770.0 L 695.0,1775.0" style="stroke:#010101; fill:none;"/>
	<path d="M 1569.0,1778.0 L 1541.0,1787.0 C 1547.75,1779.61 1566.12,1771.48 1576.0,1770.0" style="stroke:#010101; fill:none;"/>
	<path d="M 639.0,1771.0 L 639.0,1773.0" style="stroke:#010101; fill:none;"/>
	<path d="M 2166.0,1772.0 L 2169.0,1771.0" style="stroke:#010101; fill:none;"/>
	<path d="M 592.0,1772.0 C 605.479,1784.1 625.536,1787.15 643.0,1788.0 L 639.0,1775.0" style="stroke:#010101; fill:none;"/>
	<path d="M 1546.0,1772.0 L 1534.0,1782.0" style="stroke:#010101; fill:none;"/>
	<path d="M 650.0,1773.0 C 651.608,1780.77 656.855,1795.5 643.0,1788.0" style="stroke:#010101; fill:none;"/>
	<path d="M 1550.0,1773.0 L 1547.0,1775.0" style="stroke:#010101; fill:none;"/>
	<path d="M 1333.0,1775.0 L 1361.0,1781.27 L 1384.0,1799.0" style="stroke:#010101; fill:none;"/>
	<path d="M 2156.0,1778.0 L 2166.0,1788.0" style="stroke:#010101; fill:none;"/>
	<path d="M 1512.0,1780.0 C 1506.48,1790.57 1493.75,1797.76 1484.0,1804.0" style="stroke:#010101; fill:none;"/>
	<path d="M 678.0,1781.0 L 693.0,1800.0 C 694.48,1792.53 687.859,1785.96 683.0,1781.0" style="stroke:#010101; fill:none;"/>
	<path d="M 635.0,1783.0 L 635.0,1786.0" style="stroke:#010101; fill:none;"/>
	<path d="M 1537.0,1787.0 L 1541.0,1786.0" style="stroke:#010101; fill:none;"/>
	<path d="M 1547.0,1791.0 L 1569.0,1786.0" style="stroke:#010101; fill:none;"/>
	<path d="M 2170.0,1786.0 L 2173.0,1786.0" style="stroke:#010101; fill:none;"/>
	<path d="M 663.0,1795.0 L 658.0,1792.0 L 661.0,1787.0 L 681.0,1814.0 L 681.0,1808.0" style="stroke:#010101; fill:none;"/>
	<path d="M 2171.0,1788.0 L 2171.0,1820.0 L 2177.0,1818.0" style="stroke:#010101; fill:none;"/>
	<path d="M 653.0,1790.0 L 658.0,1792.0" style="stroke:#010101; fill:none;"/>
	<path d="M 2156.0,1791.0 L 2171.0,1804.0" style="stroke:#010101; fill:none;"/>
	<path d="M 2155.0,1796.0 L 2166.0,1802.0" style="stroke:#010101; fill:none;"/>
	<path d="M 669.0,1797.0 L 671.0,1804.0" style="stroke:#010101; fill:none;"/>
	<path d="M 693.0,1800.0 L 693.0,1805.0" style="stroke:#010101; fill:none;"/>
	<path d="M 695.0,1800.0 L 696.0,1802.0" style="stroke:#010101; fill:none;"/>
	<path d="M 2172.0,1803.0 L 2177.0,1802.0" style="stroke:#010101; fill:none;"/>
	<path d="M 683.0,1811.0 L 698.0,1827.0" style="stroke:#010101; fill:none;"/>
	<path d="M 1396.0,1814.0 C 1407.86,1814.51 1418.93,1817.76 1431.0,1816.91 C 1445.87,1815.87 1459.98,1811.43 1475.0,1815.0" style="stroke:#010101; fill:none;"/>
	<path d="M 1383.0,1833.0 L 1318.0,1829.0 C 1320.97,1823.05 1343.1,1813.46 1349.87,1815.69 C 1352.67,1816.62 1353.82,1819.77 1356.13,1821.4 C 1361.42,1825.13 1372.04,1825.79 1377.0,1822.0 L 1353.0,1815.0" style="stroke:#010101; fill:none;"/>
	<path d="M 1342.0,1818.0 C 1345.25,1825.02 1335.08,1824.0 1331.0,1822.0" style="stroke:#010101; fill:none;"/>
	<path d="M 1353.0,1819.0 C 1351.52,1821.86 1351.65,1823.06 1355.0,1822.0 L 1355.0,1822.0" style="stroke:#010101; fill:none;"/>
	<path d="M 1346.0,1821.0 L 1348.0,1821.0 L 1350.0,1824.0" style="stroke:#010101; fill:none;"/>
	<path d="M 1348.0,1821.0 L 1351.0,1821.0" style="stroke:#010101; fill:none;"/>
	<path d="M 2168.0,1821.0 L 2170.0,1821.0" style="stroke:#010101; fill:none;"/>
	<path d="M 1344.0,1822.0 L 1347.0,1823.0" style="stroke:#010101; fill:none;"/>
	<path d="M 1377.0,1822.0 L 1399.0,1835.0" style="stroke:#010101; fill:none;"/>
	<path d="M 1317.0,1830.0 C 1324.2,1838.62 1334.64,1841.06 1345.0,1844.0" style="stroke:#010101; fill:none;"/>
	<path d="M 2176.0,1833.0 L 2178.0,1833.0" style="stroke:#010101; fill:none;"/>
	<path d="M 736.0,1839.0 L 734.0,1841.0" style="stroke:#010101; fill:none;"/>
	<path d="M 738.0,1843.0 L 736.0,1845.0" style="stroke:#010101; fill:none;"/>
	<path d="M 739.0,1847.0 L 753.0,1872.0" style="stroke:#010101; fill:none;"/>
	<path d="M 738.0,1848.0 L 755.0,1883.0" style="stroke:#010101; fill:none;"/>
	<path d="M 2170.0,1866.0 L 2167.0,1898.0 L 2169.0,1894.0" style="stroke:#010101; fill:none;"/>
	<path d="M 754.0,1875.0 L 772.828,1908.0 L 776.0,1920.0 L 774.0,1912.0" style="stroke:#010101; fill:none;"/>
	<path d="M 2169.0,1876.0 L 2169.0,1878.0" style="stroke:#010101; fill:none;"/>
	<path d="M 2172.0,1879.0 L 2177.0,1900.0" style="stroke:#010101; fill:none;"/>
	<path d="M 757.0,1886.0 L 773.0,1914.0" style="stroke:#010101; fill:none;"/>
	<path d="M 2166.0,1899.0 C 2161.95,1926.52 2146.21,1954.9 2136.7,1981.0 C 2115.32,2039.63 2094.68,2098.53 2063.72,2153.0 C 2053.56,2170.87 2046.09,2190.04 2036.14,2208.0 C 2033.25,2213.2 2030.0,2225.06 2023.0,2224.0 L 2020.0,2222.0" style="stroke:#010101; fill:none;"/>
	<path d="M 2156.0,1915.0 L 2159.0,1918.0" style="stroke:#010101; fill:none;"/>
	<path d="M 776.0,1920.0 L 778.0,1924.0 L 778.0,1919.0" style="stroke:#010101; fill:none;"/>
	<path d="M 779.0,1923.0 L 789.0,1947.0" style="stroke:#010101; fill:none;"/>
	<path d="M 778.0,1924.0 L 780.0,1929.0" style="stroke:#010101; fill:none;"/>
	<path d="M 783.0,1928.0 L 792.0,1945.0" style="stroke:#010101; fill:none;"/>
	<path d="M 2150.0,1931.0 L 2154.0,1935.0" style="stroke:#010101; fill:none;"/>
	<path d="M 1827.0,1948.0 C 1807.28,1959.43 1784.77,1971.51 1762.0,1975.54 C 1734.09,1980.47 1705.08,1978.88 1678.0,1988.81 C 1644.55,2001.07 1611.12,2014.39 1578.0,2027.46 C 1563.8,2033.07 1550.78,2040.57 1536.0,2045.11 C 1500.84,2055.93 1463.71,2057.28 1429.0,2068.03 C 1402.36,2076.27 1379.28,2092.45 1353.0,2101.66 C 1328.82,2110.13 1304.31,2111.0 1279.0,2113.0" style="stroke:#010101; fill:none;"/>
	<path d="M 1605.0,1951.0 C 1628.19,1947.4 1648.19,1951.42 1671.0,1954.87 C 1683.57,1956.76 1696.37,1955.96 1709.0,1957.17 C 1719.35,1958.16 1729.59,1960.79 1740.0,1961.0" style="stroke:#010101; fill:none;"/>
	<path d="M 798.0,1958.0 C 802.207,1977.44 818.535,1998.43 827.917,2016.0 C 841.688,2041.79 854.469,2068.14 869.914,2093.0 C 883.486,2114.85 899.528,2135.07 913.0,2157.0" style="stroke:#010101; fill:none;"/>
	<path d="M 1574.0,1960.0 C 1563.9,1967.61 1555.15,1977.58 1544.0,1983.69 C 1520.47,1996.58 1493.53,1995.02 1468.0,1993.0" style="stroke:#010101; fill:none;"/>
	<path d="M 2126.0,1978.0 L 2127.0,1978.0" style="stroke:#010101; fill:none;"/>
	<path d="M 2120.0,1992.0 L 2128.0,1993.0" style="stroke:#010101; fill:none;"/>
	<path d="M 1348.0,2079.0 C 1370.58,2057.39 1393.97,2035.9 1419.0,2017.13 C 1430.95,2008.16 1442.99,1998.51 1457.0,1993.0" style="stroke:#010101; fill:none;"/>
	<path d="M 2117.0,1994.0 L 2123.0,1996.0" style="stroke:#010101; fill:none;"/>
	<path d="M 864.0,2004.0 L 863.0,2010.0" style="stroke:#010101; fill:none;"/>
	<path d="M 2111.0,2005.0 L 2119.0,2008.0" style="stroke:#010101; fill:none;"/>
	<path d="M 2121.0,2009.0 L 2122.0,2009.0" style="stroke:#010101; fill:none;"/>
	<path d="M 2109.0,2012.0 L 2118.0,2017.0" style="stroke:#010101; fill:none;"/>
	<path d="M 2107.0,2019.0 L 2112.0,2021.0" style="stroke:#010101; fill:none;"/>
	<path d="M 2105.0,2028.0 L 2114.0,2031.0" style="stroke:#010101; fill:none;"/>
	<path d="M 2102.0,2033.0 L 2115.0,2040.0" style="stroke:#010101; fill:none;"/>
	<path d="M 1735.0,2040.0 C 1726.03,2051.57 1713.28,2061.37 1702.0,2070.61 C 1686.3,2083.49 1671.4,2096.24 1652.0,2103.3 C 1634.06,2109.84 1614.68,2109.96 1597.0,2115.75 C 1574.91,2122.99 1552.0,2129.03 1530.0,2136.7 C 1506.3,2144.96 1484.54,2154.84 1459.0,2155.96 C 1436.58,2156.94 1418.34,2149.94 1397.0,2145.0" style="stroke:#010101; fill:none;"/>
	<path d="M 2098.0,2048.0 L 2102.0,2050.0" style="stroke:#010101; fill:none;"/>
	<path d="M 2095.0,2057.0 L 2106.0,2065.0" style="stroke:#010101; fill:none;"/>
	<path d="M 2089.0,2067.0 L 2093.0,2070.0" style="stroke:#010101; fill:none;"/>
	<path d="M 2081.0,2082.0 L 2086.0,2085.0" style="stroke:#010101; fill:none;"/>
	<path d="M 2078.0,2089.0 L 2078.0,2090.0" style="stroke:#010101; fill:none;"/>
	<path d="M 2071.0,2095.0 L 2072.0,2101.0" style="stroke:#010101; fill:none;"/>
	<path d="M 2047.0,2174.0 L 2050.0,2177.0" style="stroke:#010101; fill:none;"/>
	<path d="M 1901.0,2179.0 L 1906.0,2184.0" style="stroke:#010101; fill:none;"/>
	<path d="M 2042.0,2183.0 L 2041.0,2185.0" style="stroke:#010101; fill:none;"/>
	<path d="M 2037.0,2194.0 L 2038.0,2194.0" style="stroke:#010101; fill:none;"/>
	<path d="M 948.0,2205.0 L 954.0,2215.0" style="stroke:#010101; fill:none;"/>
	<path d="M 2028.0,2209.0 L 2029.0,2210.0" style="stroke:#010101; fill:none;"/>
	<path d="M 961.0,2210.0 C 983.45,2226.13 1001.57,2247.35 1022.0,2265.83 C 1065.17,2304.89 1110.01,2343.9 1158.0,2376.97 C 1233.0,2428.67 1318.61,2458.52 1398.0,2502.0" style="stroke:#010101; fill:none;"/>
	<path d="M 2026.0,2226.0 C 2019.74,2247.74 2004.51,2269.9 1994.02,2290.0 C 1969.24,2337.5 1944.25,2385.75 1906.0,2424.0" style="stroke:#010101; fill:none;"/>
	<path d="M 1058.0,2268.0 L 1059.0,2268.0" style="stroke:#010101; fill:none;"/>
	<path d="M 1975.0,2282.0 L 1979.0,2289.0" style="stroke:#010101; fill:none;"/>
	<path d="M 1965.0,2296.0 L 1968.0,2300.0" style="stroke:#010101; fill:none;"/>
	<path d="M 1957.0,2308.0 L 1959.0,2311.0" style="stroke:#010101; fill:none;"/>
	<path d="M 1948.0,2324.0 L 1949.0,2326.0" style="stroke:#010101; fill:none;"/>
	<path d="M 1510.0,2356.0 L 1511.0,2357.0" style="stroke:#010101; fill:none;"/>
	<path d="M 1921.0,2370.0 L 1922.0,2371.0" style="stroke:#010101; fill:none;"/>
	<path d="M 1188.0,2373.0 L 1181.0,2378.0" style="stroke:#010101; fill:none;"/>
	<path d="M 1910.0,2386.0 L 1912.0,2387.0" style="stroke:#010101; fill:none;"/>
	<path d="M 1900.0,2387.0 L 1905.0,2393.0" style="stroke:#010101; fill:none;"/>
	<path d="M 1890.0,2392.0 L 1895.0,2405.0" style="stroke:#010101; fill:none;"/>
	<path d="M 1867.0,2447.0 L 1876.0,2456.0" style="stroke:#010101; fill:none;"/>
	<path d="M 1858.0,2452.0 L 1859.0,2452.0" style="stroke:#010101; fill:none;"/>
	<path d="M 1848.0,2460.0 L 1855.0,2466.0" style="stroke:#010101; fill:none;"/>
	<path d="M 1340.0,2461.0 C 1340.61,2464.48 1341.63,2464.77 1345.0,2464.0 L 1346.0,2463.0" style="stroke:#010101; fill:none;"/>
	<path d="M 1836.0,2468.0 L 1842.0,2472.0" style="stroke:#010101; fill:none;"/>
	<path d="M 1826.0,2472.0 L 1830.0,2483.0" style="stroke:#010101; fill:none;"/>
	<path d="M 1805.0,2483.0 L 1808.0,2485.0 L 1808.0,2483.0" style="stroke:#010101; fill:none;"/>
	<path d="M 1809.0,2486.0 L 1817.0,2492.0" style="stroke:#010101; fill:none;"/>
	<path d="M 1678.0,2527.0 L 1685.0,2538.0 C 1720.91,2530.59 1755.23,2517.06 1788.0,2501.0" style="stroke:#010101; fill:none;"/>
	<path d="M 1406.0,2511.0 C 1414.07,2516.32 1423.34,2519.08 1432.0,2523.26 C 1448.0,2530.98 1464.01,2539.59 1481.0,2544.97 C 1485.45,2546.38 1506.57,2553.15 1506.0,2546.0" style="stroke:#010101; fill:none;"/>
	<path d="M 1668.0,2543.0 L 1684.0,2539.0" style="stroke:#010101; fill:none;"/>
	<path d="M 1513.0,2547.0 L 1517.0,2551.0 L 1511.0,2549.0 L 1513.0,2547.0" style="stroke:#010101; fill:none;"/>
	<path d="M 1509.0,2549.0 L 1511.0,2549.0" style="stroke:#010101; fill:none;"/>
	<path d="M 1518.0,2552.0 C 1534.1,2556.17 1551.62,2553.76 1568.0,2553.04 C 1587.15,2552.2 1606.78,2553.25 1626.0,2553.0" style="stroke:#010101; fill:none;"/>
	<path d="M 1633.0,2552.0 L 1634.0,2552.0" style="stroke:#010101; fill:none;"/>
</svg>
