<?xml version="1.0" ?>
<svg baseProfile="full" height="1100" version="1.1" width="1057" xmlns="http://www.w3.org/2000/svg" xmlns:ev="http://www.w3.org/2001/xml-events" xmlns:xlink="http://www.w3.org/1999/xlink">
	<defs/>
	<path d="M 165.0,403.0 L 166.0,403.0" style="stroke:#050105; fill:none;"/>
	<path d="M 155.0,405.0 L 155.0,406.0" style="stroke:#050105; fill:none;"/>
	<path d="M 168.0,407.0 L 170.0,406.0" style="stroke:#050105; fill:none;"/>
	<path d="M 149.0,406.0 L 148.0,407.0" style="stroke:#050105; fill:none;"/>
	<path d="M 158.0,406.0 L 159.0,406.0" style="stroke:#050105; fill:none;"/>
	<path d="M 143.0,407.0 L 144.0,407.0" style="stroke:#050105; fill:none;"/>
	<path d="M 149.0,412.0 L 149.0,413.0" style="stroke:#050105; fill:none;"/>
	<path d="M 147.0,416.0 L 149.0,416.0" style="stroke:#050105; fill:none;"/>
	<path d="M 133.0,418.0 L 133.0,419.0" style="stroke:#050105; fill:none;"/>
	<path d="M 180.0,418.0 L 179.0,420.0" style="stroke:#050105; fill:none;"/>
	<path d="M 147.0,419.0 L 148.0,420.0" style="stroke:#050105; fill:none;"/>
	<path d="M 196.0,419.0 L 197.0,420.0" style="stroke:#050105; fill:none;"/>
	<path d="M 201.0,423.0 L 202.0,423.0" style="stroke:#050105; fill:none;"/>
	<path d="M 191.0,425.0 L 194.0,425.0" style="stroke:#050105; fill:none;"/>
	<path d="M 201.0,425.0 L 201.0,426.0" style="stroke:#050105; fill:none;"/>
	<path d="M 204.0,427.0 L 205.0,427.0" style="stroke:#050105; fill:none;"/>
	<path d="M 196.0,430.0 L 197.0,431.0" style="stroke:#050105; fill:none;"/>
	<path d="M 215.0,432.0 L 216.0,433.0" style="stroke:#050105; fill:none;"/>
	<path d="M 419.0,441.0 L 417.0,442.0" style="stroke:#050105; fill:none;"/>
	<path d="M 423.0,441.0 L 425.0,442.0" style="stroke:#050105; fill:none;"/>
	<path d="M 415.0,443.0 L 414.0,444.0" style="stroke:#050105; fill:none;"/>
	<path d="M 441.0,443.0 L 438.0,444.0" style="stroke:#050105; fill:none;"/>
	<path d="M 445.0,443.0 L 444.0,444.0" style="stroke:#050105; fill:none;"/>
	<path d="M 390.0,445.0 L 393.0,444.0" style="stroke:#050105; fill:none;"/>
	<path d="M 421.0,444.0 L 422.0,444.0" style="stroke:#050105; fill:none;"/>
	<path d="M 429.0,444.0 L 435.0,444.0" style="stroke:#050105; fill:none;"/>
	<path d="M 406.0,445.0 L 407.0,445.0" style="stroke:#050105; fill:none;"/>
	<path d="M 465.0,446.0 L 467.0,446.0" style="stroke:#050105; fill:none;"/>
	<path d="M 471.0,447.0 L 473.0,448.0" style="stroke:#050105; fill:none;"/>
	<path d="M 225.0,448.0 L 225.0,449.0" style="stroke:#050105; fill:none;"/>
	<path d="M 434.0,448.0 L 435.0,448.0" style="stroke:#050105; fill:none;"/>
	<path d="M 463.0,449.0 L 464.0,449.0" style="stroke:#050105; fill:none;"/>
	<path d="M 476.0,449.0 L 477.0,449.0" style="stroke:#050105; fill:none;"/>
	<path d="M 445.0,450.0 L 446.0,450.0" style="stroke:#050105; fill:none;"/>
	<path d="M 466.0,450.0 L 479.0,453.0" style="stroke:#050105; fill:none;"/>
	<path d="M 502.0,453.0 L 507.0,455.0" style="stroke:#050105; fill:none;"/>
	<path d="M 183.0,454.0 L 184.0,454.0" style="stroke:#050105; fill:none;"/>
	<path d="M 189.0,454.0 L 190.0,454.0" style="stroke:#050105; fill:none;"/>
	<path d="M 480.0,455.0 L 481.0,455.0" style="stroke:#050105; fill:none;"/>
	<path d="M 161.0,457.0 L 163.0,457.0" style="stroke:#050105; fill:none;"/>
	<path d="M 202.0,458.0 L 204.0,458.0" style="stroke:#050105; fill:none;"/>
	<path d="M 339.0,457.0 L 340.0,457.0" style="stroke:#050105; fill:none;"/>
	<path d="M 157.0,460.0 L 159.0,459.0" style="stroke:#050105; fill:none;"/>
	<path d="M 212.0,460.0 L 212.0,461.0" style="stroke:#050105; fill:none;"/>
	<path d="M 451.0,460.0 L 451.0,461.0" style="stroke:#050105; fill:none;"/>
	<path d="M 214.0,461.0 L 220.0,464.0" style="stroke:#050105; fill:none;"/>
	<path d="M 152.0,464.0 L 154.0,463.0" style="stroke:#050105; fill:none;"/>
	<path d="M 179.0,465.0 L 187.0,466.0" style="stroke:#050105; fill:none;"/>
	<path d="M 190.0,465.0 L 192.0,465.0" style="stroke:#050105; fill:none;"/>
	<path d="M 150.0,466.0 L 150.0,468.0" style="stroke:#050105; fill:none;"/>
	<path d="M 174.0,466.0 L 176.0,467.0" style="stroke:#050105; fill:none;"/>
	<path d="M 194.0,466.0 L 196.0,466.0" style="stroke:#050105; fill:none;"/>
	<path d="M 222.0,466.0 L 223.0,466.0" style="stroke:#050105; fill:none;"/>
	<path d="M 198.0,467.0 L 203.0,467.0" style="stroke:#050105; fill:none;"/>
	<path d="M 169.0,468.0 L 166.0,470.0" style="stroke:#050105; fill:none;"/>
	<path d="M 208.0,468.0 L 210.0,469.0" style="stroke:#050105; fill:none;"/>
	<path d="M 212.0,470.0 L 218.0,473.0" style="stroke:#050105; fill:none;"/>
	<path d="M 229.0,470.0 L 230.0,471.0" style="stroke:#050105; fill:none;"/>
	<path d="M 191.0,473.0 L 191.0,474.0" style="stroke:#050105; fill:none;"/>
	<path d="M 511.0,473.0 L 512.0,473.0" style="stroke:#050105; fill:none;"/>
	<path d="M 147.0,482.0 L 158.0,476.0" style="stroke:#050105; fill:none;"/>
	<path d="M 222.0,475.0 L 223.0,480.0" style="stroke:#050105; fill:none;"/>
	<path d="M 224.0,476.0 L 226.0,477.0" style="stroke:#050105; fill:none;"/>
	<path d="M 513.0,476.0 L 514.0,476.0" style="stroke:#050105; fill:none;"/>
	<path d="M 190.0,477.0 L 189.0,480.0" style="stroke:#050105; fill:none;"/>
	<path d="M 211.0,478.0 L 212.0,479.0" style="stroke:#050105; fill:none;"/>
	<path d="M 216.0,480.0 L 217.0,480.0" style="stroke:#050105; fill:none;"/>
	<path d="M 232.0,482.0 L 235.0,485.0" style="stroke:#050105; fill:none;"/>
	<path d="M 153.0,486.0 L 154.0,486.0" style="stroke:#050105; fill:none;"/>
	<path d="M 221.0,487.0 L 223.0,487.0" style="stroke:#050105; fill:none;"/>
	<path d="M 237.0,487.0 L 238.0,490.0" style="stroke:#050105; fill:none;"/>
	<path d="M 188.0,488.0 L 191.0,495.0" style="stroke:#050105; fill:none;"/>
	<path d="M 213.0,488.0 L 215.0,489.0" style="stroke:#050105; fill:none;"/>
	<path d="M 219.0,488.0 L 218.0,489.0" style="stroke:#050105; fill:none;"/>
	<path d="M 426.0,489.0 L 426.0,490.0" style="stroke:#050105; fill:none;"/>
	<path d="M 428.0,490.0 L 431.0,491.0" style="stroke:#050105; fill:none;"/>
	<path d="M 406.0,492.0 L 408.0,491.0" style="stroke:#050105; fill:none;"/>
	<path d="M 436.0,491.0 L 439.0,491.0" style="stroke:#050105; fill:none;"/>
	<path d="M 443.0,492.0 L 449.0,493.0" style="stroke:#050105; fill:none;"/>
	<path d="M 240.0,493.0 L 242.0,497.0" style="stroke:#050105; fill:none;"/>
	<path d="M 172.0,494.0 L 173.0,494.0" style="stroke:#050105; fill:none;"/>
	<path d="M 451.0,494.0 L 452.0,494.0" style="stroke:#050105; fill:none;"/>
	<path d="M 455.0,495.0 L 462.0,497.0" style="stroke:#050105; fill:none;"/>
	<path d="M 397.0,496.0 L 396.0,497.0" style="stroke:#050105; fill:none;"/>
	<path d="M 214.0,498.0 L 214.0,499.0" style="stroke:#050105; fill:none;"/>
	<path d="M 465.0,498.0 L 481.0,503.0" style="stroke:#050105; fill:none;"/>
	<path d="M 194.0,499.0 L 195.0,499.0" style="stroke:#050105; fill:none;"/>
	<path d="M 216.0,499.0 L 218.0,500.0" style="stroke:#050105; fill:none;"/>
	<path d="M 221.0,501.0 L 224.0,502.0" style="stroke:#050105; fill:none;"/>
	<path d="M 437.0,505.0 L 449.0,507.0" style="stroke:#050105; fill:none;"/>
	<path d="M 417.0,506.0 L 432.0,506.0" style="stroke:#050105; fill:none;"/>
	<path d="M 483.0,506.0 L 490.0,511.0" style="stroke:#050105; fill:none;"/>
	<path d="M 456.0,507.0 L 457.0,507.0" style="stroke:#050105; fill:none;"/>
	<path d="M 415.0,509.0 L 416.0,509.0" style="stroke:#050105; fill:none;"/>
	<path d="M 456.0,510.0 L 458.0,510.0" style="stroke:#050105; fill:none;"/>
	<path d="M 257.0,511.0 L 258.0,511.0" style="stroke:#050105; fill:none;"/>
	<path d="M 466.0,511.0 L 467.0,516.0" style="stroke:#050105; fill:none;"/>
	<path d="M 394.0,518.0 L 411.0,512.0" style="stroke:#050105; fill:none;"/>
	<path d="M 492.0,512.0 L 493.0,512.0" style="stroke:#050105; fill:none;"/>
	<path d="M 464.0,513.0 L 466.0,515.0" style="stroke:#050105; fill:none;"/>
	<path d="M 469.0,513.0 L 482.0,523.0" style="stroke:#050105; fill:none;"/>
	<path d="M 495.0,513.0 L 494.0,514.0" style="stroke:#050105; fill:none;"/>
	<path d="M 465.0,514.0 L 459.0,516.0" style="stroke:#050105; fill:none;"/>
	<path d="M 497.0,514.0 L 497.0,516.0" style="stroke:#050105; fill:none;"/>
	<path d="M 438.0,515.0 L 438.0,516.0" style="stroke:#050105; fill:none;"/>
	<path d="M 470.0,515.0 L 473.0,516.0" style="stroke:#050105; fill:none;"/>
	<path d="M 257.0,517.0 L 256.0,520.0" style="stroke:#050105; fill:none;"/>
	<path d="M 470.0,517.0 L 471.0,518.0" style="stroke:#050105; fill:none;"/>
	<path d="M 501.0,517.0 L 501.0,518.0" style="stroke:#050105; fill:none;"/>
	<path d="M 460.0,518.0 L 459.0,519.0" style="stroke:#050105; fill:none;"/>
	<path d="M 437.0,519.0 L 438.0,524.0" style="stroke:#050105; fill:none;"/>
	<path d="M 456.0,522.0 L 458.0,526.0" style="stroke:#050105; fill:none;"/>
	<path d="M 473.0,523.0 L 469.0,530.0" style="stroke:#050105; fill:none;"/>
	<path d="M 254.0,524.0 L 252.0,530.0" style="stroke:#050105; fill:none;"/>
	<path d="M 504.0,524.0 L 505.0,525.0" style="stroke:#050105; fill:none;"/>
	<path d="M 380.0,526.0 L 380.0,528.0" style="stroke:#050105; fill:none;"/>
	<path d="M 438.0,527.0 L 438.0,529.0" style="stroke:#050105; fill:none;"/>
	<path d="M 486.0,527.0 L 489.0,529.0" style="stroke:#050105; fill:none;"/>
	<path d="M 462.0,528.0 L 466.0,528.0" style="stroke:#050105; fill:none;"/>
	<path d="M 487.0,528.0 L 483.0,534.0" style="stroke:#050105; fill:none;"/>
	<path d="M 391.0,529.0 L 391.0,531.0 L 391.0,529.0" style="stroke:#050105; fill:none;"/>
	<path d="M 388.0,530.0 L 390.0,530.0" style="stroke:#050105; fill:none;"/>
	<path d="M 395.0,530.0 L 409.0,531.0" style="stroke:#050105; fill:none;"/>
	<path d="M 440.0,531.0 L 442.0,533.0" style="stroke:#050105; fill:none;"/>
	<path d="M 414.0,533.0 L 417.0,535.0" style="stroke:#050105; fill:none;"/>
	<path d="M 422.0,535.0 L 425.0,538.0" style="stroke:#050105; fill:none;"/>
	<path d="M 497.0,535.0 L 499.0,538.0" style="stroke:#050105; fill:none;"/>
	<path d="M 250.0,537.0 L 250.0,538.0" style="stroke:#050105; fill:none;"/>
	<path d="M 445.0,537.0 C 451.694,542.368 455.694,541.656 464.0,541.0" style="stroke:#050105; fill:none;"/>
	<path d="M 500.0,537.0 L 505.0,539.0" style="stroke:#050105; fill:none;"/>
	<path d="M 431.0,539.0 L 430.0,540.0" style="stroke:#050105; fill:none;"/>
	<path d="M 433.0,539.0 L 434.0,539.0" style="stroke:#050105; fill:none;"/>
	<path d="M 469.0,542.0 L 482.0,539.0" style="stroke:#050105; fill:none;"/>
	<path d="M 437.0,540.0 L 439.0,540.0" style="stroke:#050105; fill:none;"/>
	<path d="M 443.0,542.0 L 444.0,542.0" style="stroke:#050105; fill:none;"/>
	<path d="M 446.0,542.0 L 447.0,542.0" style="stroke:#050105; fill:none;"/>
	<path d="M 482.0,545.0 L 482.0,546.0" style="stroke:#050105; fill:none;"/>
	<path d="M 461.0,549.0 L 461.0,550.0" style="stroke:#050105; fill:none;"/>
	<path d="M 466.0,549.0 L 466.0,550.0" style="stroke:#050105; fill:none;"/>
	<path d="M 805.0,553.0 L 806.0,553.0" style="stroke:#050105; fill:none;"/>
	<path d="M 810.0,553.0 L 812.0,554.0" style="stroke:#050105; fill:none;"/>
	<path d="M 796.0,554.0 L 800.0,555.0" style="stroke:#050105; fill:none;"/>
	<path d="M 820.0,555.0 L 821.0,555.0" style="stroke:#050105; fill:none;"/>
	<path d="M 754.0,556.0 L 757.0,557.0" style="stroke:#050105; fill:none;"/>
	<path d="M 825.0,559.0 L 828.0,562.0" style="stroke:#050105; fill:none;"/>
	<path d="M 831.0,564.0 L 834.0,566.0" style="stroke:#050105; fill:none;"/>
	<path d="M 790.0,565.0 L 804.0,570.0" style="stroke:#050105; fill:none;"/>
	<path d="M 750.0,571.0 L 753.0,571.0" style="stroke:#050105; fill:none;"/>
	<path d="M 808.0,573.0 L 809.0,573.0" style="stroke:#050105; fill:none;"/>
	<path d="M 811.0,575.0 L 818.0,582.0" style="stroke:#050105; fill:none;"/>
	<path d="M 98.0,577.0 L 95.0,599.0 L 97.0,598.0" style="stroke:#050105; fill:none;"/>
	<path d="M 843.0,581.0 L 843.0,582.0" style="stroke:#050105; fill:none;"/>
	<path d="M 820.0,586.0 L 821.0,587.0" style="stroke:#050105; fill:none;"/>
	<path d="M 739.0,589.0 L 739.0,590.0" style="stroke:#050105; fill:none;"/>
	<path d="M 823.0,595.0 L 823.0,597.0" style="stroke:#050105; fill:none;"/>
	<path d="M 739.0,597.0 L 739.0,598.0" style="stroke:#050105; fill:none;"/>
	<path d="M 841.0,597.0 L 841.0,599.0" style="stroke:#050105; fill:none;"/>
	<path d="M 782.0,599.0 L 783.0,599.0" style="stroke:#050105; fill:none;"/>
	<path d="M 96.0,600.0 L 99.0,633.0" style="stroke:#050105; fill:none;"/>
	<path d="M 741.0,601.0 L 742.0,604.0" style="stroke:#050105; fill:none;"/>
	<path d="M 820.0,602.0 L 820.0,603.0" style="stroke:#050105; fill:none;"/>
	<path d="M 840.0,604.0 L 839.0,605.0" style="stroke:#050105; fill:none;"/>
	<path d="M 773.0,605.0 L 776.0,608.0" style="stroke:#050105; fill:none;"/>
	<path d="M 743.0,607.0 L 744.0,610.0" style="stroke:#050105; fill:none;"/>
	<path d="M 790.0,607.0 L 791.0,609.0" style="stroke:#050105; fill:none;"/>
	<path d="M 819.0,608.0 L 816.0,613.0" style="stroke:#050105; fill:none;"/>
	<path d="M 732.0,613.0 L 733.0,615.0" style="stroke:#050105; fill:none;"/>
	<path d="M 210.0,614.0 L 211.0,614.0" style="stroke:#050105; fill:none;"/>
	<path d="M 815.0,617.0 L 814.0,618.0" style="stroke:#050105; fill:none;"/>
	<path d="M 749.0,618.0 L 752.0,622.0" style="stroke:#050105; fill:none;"/>
	<path d="M 736.0,619.0 L 737.0,621.0" style="stroke:#050105; fill:none;"/>
	<path d="M 754.0,624.0 L 755.0,625.0" style="stroke:#050105; fill:none;"/>
	<path d="M 831.0,625.0 L 830.0,629.0" style="stroke:#050105; fill:none;"/>
	<path d="M 811.0,626.0 L 810.0,627.0" style="stroke:#050105; fill:none;"/>
	<path d="M 202.0,627.0 L 203.0,627.0" style="stroke:#050105; fill:none;"/>
	<path d="M 826.0,631.0 L 823.0,639.0 L 825.0,638.0" style="stroke:#050105; fill:none;"/>
	<path d="M 197.0,633.0 L 196.0,636.0" style="stroke:#050105; fill:none;"/>
	<path d="M 826.0,637.0 L 825.0,638.0" style="stroke:#050105; fill:none;"/>
	<path d="M 100.0,639.0 L 101.0,643.0" style="stroke:#050105; fill:none;"/>
	<path d="M 824.0,640.0 C 818.914,646.935 816.417,657.112 812.625,665.0 C 811.591,667.152 809.774,675.832 807.0,672.0" style="stroke:#050105; fill:none;"/>
	<path d="M 806.0,641.0 L 804.0,648.0" style="stroke:#050105; fill:none;"/>
	<path d="M 193.0,642.0 L 194.0,642.0" style="stroke:#050105; fill:none;"/>
	<path d="M 820.0,643.0 L 821.0,644.0" style="stroke:#050105; fill:none;"/>
	<path d="M 734.0,644.0 L 734.0,645.0" style="stroke:#050105; fill:none;"/>
	<path d="M 100.0,648.0 L 105.0,679.0" style="stroke:#050105; fill:none;"/>
	<path d="M 330.0,649.0 L 331.0,650.0" style="stroke:#050105; fill:none;"/>
	<path d="M 194.0,652.0 L 197.0,659.0" style="stroke:#050105; fill:none;"/>
	<path d="M 715.0,652.0 L 715.0,653.0" style="stroke:#050105; fill:none;"/>
	<path d="M 334.0,654.0 L 336.0,661.0" style="stroke:#050105; fill:none;"/>
	<path d="M 727.0,656.0 L 728.0,657.0" style="stroke:#050105; fill:none;"/>
	<path d="M 723.0,658.0 L 723.0,660.0" style="stroke:#050105; fill:none;"/>
	<path d="M 800.0,660.0 L 799.0,662.0" style="stroke:#050105; fill:none;"/>
	<path d="M 198.0,661.0 L 199.0,663.0" style="stroke:#050105; fill:none;"/>
	<path d="M 712.0,669.0 L 717.0,662.0" style="stroke:#050105; fill:none;"/>
	<path d="M 336.0,664.0 L 336.0,667.0" style="stroke:#050105; fill:none;"/>
	<path d="M 212.0,665.0 L 214.0,667.0" style="stroke:#050105; fill:none;"/>
	<path d="M 274.0,668.0 L 292.0,670.0" style="stroke:#050105; fill:none;"/>
	<path d="M 808.0,669.0 L 810.0,669.0" style="stroke:#050105; fill:none;"/>
	<path d="M 217.0,672.0 L 219.0,673.0" style="stroke:#050105; fill:none;"/>
	<path d="M 772.0,676.0 L 774.0,675.0" style="stroke:#050105; fill:none;"/>
	<path d="M 256.0,677.0 L 256.0,678.0" style="stroke:#050105; fill:none;"/>
	<path d="M 707.0,678.0 L 707.0,679.0" style="stroke:#050105; fill:none;"/>
	<path d="M 809.0,678.0 L 807.0,682.0" style="stroke:#050105; fill:none;"/>
	<path d="M 289.0,683.0 L 293.0,682.0" style="stroke:#050105; fill:none;"/>
	<path d="M 295.0,681.0 L 296.0,681.0" style="stroke:#050105; fill:none;"/>
	<path d="M 105.0,682.0 L 104.0,685.0" style="stroke:#050105; fill:none;"/>
	<path d="M 705.0,682.0 L 705.0,683.0" style="stroke:#050105; fill:none;"/>
	<path d="M 715.0,686.0 L 721.0,682.0" style="stroke:#050105; fill:none;"/>
	<path d="M 732.0,682.0 L 734.0,683.0" style="stroke:#050105; fill:none;"/>
	<path d="M 738.0,684.0 L 743.0,685.0" style="stroke:#050105; fill:none;"/>
	<path d="M 750.0,685.0 L 755.0,684.0" style="stroke:#050105; fill:none;"/>
	<path d="M 804.0,684.0 L 802.0,688.0" style="stroke:#050105; fill:none;"/>
	<path d="M 700.0,686.0 L 702.0,685.0" style="stroke:#050105; fill:none;"/>
	<path d="M 757.0,685.0 L 758.0,685.0" style="stroke:#050105; fill:none;"/>
	<path d="M 788.0,685.0 L 789.0,685.0" style="stroke:#050105; fill:none;"/>
	<path d="M 328.0,687.0 L 325.0,689.0" style="stroke:#050105; fill:none;"/>
	<path d="M 710.0,688.0 L 707.0,692.0" style="stroke:#050105; fill:none;"/>
	<path d="M 802.0,691.0 L 804.0,692.0" style="stroke:#050105; fill:none;"/>
	<path d="M 319.0,692.0 L 320.0,692.0" style="stroke:#050105; fill:none;"/>
	<path d="M 312.0,694.0 L 314.0,694.0" style="stroke:#050105; fill:none;"/>
	<path d="M 697.0,695.0 L 703.0,694.0" style="stroke:#050105; fill:none;"/>
	<path d="M 308.0,696.0 L 310.0,695.0" style="stroke:#050105; fill:none;"/>
	<path d="M 779.0,696.0 L 781.0,696.0" style="stroke:#050105; fill:none;"/>
	<path d="M 779.0,698.0 L 776.0,700.0" style="stroke:#050105; fill:none;"/>
	<path d="M 107.0,701.0 L 107.0,705.0" style="stroke:#050105; fill:none;"/>
	<path d="M 773.0,702.0 L 768.0,706.0" style="stroke:#050105; fill:none;"/>
	<path d="M 795.0,707.0 L 782.0,724.0" style="stroke:#050105; fill:none;"/>
	<path d="M 761.0,709.0 L 763.0,708.0" style="stroke:#050105; fill:none;"/>
	<path d="M 107.0,709.0 L 112.0,735.0" style="stroke:#050105; fill:none;"/>
	<path d="M 109.0,723.0 L 109.0,724.0" style="stroke:#050105; fill:none;"/>
	<path d="M 762.0,736.0 L 761.0,737.0" style="stroke:#050105; fill:none;"/>
	<path d="M 112.0,739.0 L 116.0,754.0" style="stroke:#050105; fill:none;"/>
	<path d="M 743.0,746.0 L 755.0,742.0" style="stroke:#050105; fill:none;"/>
	<path d="M 734.0,750.0 L 735.0,748.0 L 739.0,748.0" style="stroke:#050105; fill:none;"/>
	<path d="M 721.0,754.0 L 723.0,754.0" style="stroke:#050105; fill:none;"/>
	<path d="M 718.0,755.0 L 718.0,756.0" style="stroke:#050105; fill:none;"/>
	<path d="M 707.0,758.0 L 715.0,756.0" style="stroke:#050105; fill:none;"/>
	<path d="M 698.0,759.0 L 703.0,759.0" style="stroke:#050105; fill:none;"/>
	<path d="M 174.0,760.0 L 174.0,761.0" style="stroke:#050105; fill:none;"/>
	<path d="M 686.0,760.0 L 686.0,762.0" style="stroke:#050105; fill:none;"/>
	<path d="M 694.0,760.0 L 693.0,761.0" style="stroke:#050105; fill:none;"/>
	<path d="M 689.0,761.0 L 691.0,761.0" style="stroke:#050105; fill:none;"/>
	<path d="M 190.0,762.0 L 195.0,766.0" style="stroke:#050105; fill:none;"/>
	<path d="M 674.0,762.0 L 675.0,762.0" style="stroke:#050105; fill:none;"/>
	<path d="M 680.0,762.0 L 683.0,762.0" style="stroke:#050105; fill:none;"/>
	<path d="M 669.0,763.0 L 669.0,764.0" style="stroke:#050105; fill:none;"/>
	<path d="M 210.0,766.0 L 213.0,767.0" style="stroke:#050105; fill:none;"/>
	<path d="M 216.0,767.0 L 218.0,767.0" style="stroke:#050105; fill:none;"/>
	<path d="M 118.0,768.0 L 118.0,769.0" style="stroke:#050105; fill:none;"/>
	<path d="M 224.0,769.0 L 226.0,770.0" style="stroke:#050105; fill:none;"/>
	<path d="M 232.0,770.0 L 233.0,770.0" style="stroke:#050105; fill:none;"/>
	<path d="M 238.0,771.0 L 239.0,771.0" style="stroke:#050105; fill:none;"/>
	<path d="M 120.0,772.0 L 121.0,786.0" style="stroke:#050105; fill:none;"/>
	<path d="M 246.0,774.0 L 247.0,774.0" style="stroke:#050105; fill:none;"/>
	<path d="M 251.0,776.0 L 254.0,776.0" style="stroke:#050105; fill:none;"/>
	<path d="M 277.0,779.0 L 278.0,779.0" style="stroke:#050105; fill:none;"/>
	<path d="M 284.0,781.0 L 286.0,780.0" style="stroke:#050105; fill:none;"/>
	<path d="M 652.0,780.0 L 653.0,780.0" style="stroke:#050105; fill:none;"/>
	<path d="M 214.0,782.0 L 216.0,784.0" style="stroke:#050105; fill:none;"/>
	<path d="M 294.0,782.0 L 301.0,784.0" style="stroke:#050105; fill:none;"/>
	<path d="M 305.0,785.0 L 308.0,786.0" style="stroke:#050105; fill:none;"/>
	<path d="M 311.0,788.0 L 316.0,790.0" style="stroke:#050105; fill:none;"/>
	<path d="M 223.0,789.0 L 224.0,789.0" style="stroke:#050105; fill:none;"/>
	<path d="M 226.0,789.0 L 229.0,792.0" style="stroke:#050105; fill:none;"/>
	<path d="M 123.0,791.0 L 134.0,826.0" style="stroke:#050105; fill:none;"/>
	<path d="M 319.0,791.0 L 321.0,792.0" style="stroke:#050105; fill:none;"/>
	<path d="M 647.0,791.0 L 648.0,791.0" style="stroke:#050105; fill:none;"/>
	<path d="M 234.0,794.0 L 240.0,796.0" style="stroke:#050105; fill:none;"/>
	<path d="M 314.0,794.0 L 313.0,795.0" style="stroke:#050105; fill:none;"/>
	<path d="M 331.0,795.0 L 337.0,796.0" style="stroke:#050105; fill:none;"/>
	<path d="M 340.0,796.0 L 346.0,796.0" style="stroke:#050105; fill:none;"/>
	<path d="M 357.0,796.0 L 356.0,797.0" style="stroke:#050105; fill:none;"/>
	<path d="M 304.0,797.0 L 300.0,799.0" style="stroke:#050105; fill:none;"/>
	<path d="M 354.0,797.0 L 353.0,798.0" style="stroke:#050105; fill:none;"/>
	<path d="M 124.0,799.0 L 125.0,800.0" style="stroke:#050105; fill:none;"/>
	<path d="M 244.0,799.0 L 245.0,799.0" style="stroke:#050105; fill:none;"/>
	<path d="M 248.0,799.0 L 248.0,800.0" style="stroke:#050105; fill:none;"/>
	<path d="M 295.0,799.0 L 297.0,799.0" style="stroke:#050105; fill:none;"/>
	<path d="M 285.0,801.0 L 288.0,800.0" style="stroke:#050105; fill:none;"/>
	<path d="M 274.0,801.0 L 275.0,801.0" style="stroke:#050105; fill:none;"/>
	<path d="M 638.0,806.0 L 638.0,807.0" style="stroke:#050105; fill:none;"/>
	<path d="M 634.0,814.0 L 634.0,815.0" style="stroke:#050105; fill:none;"/>
	<path d="M 632.0,818.0 L 632.0,819.0" style="stroke:#050105; fill:none;"/>
	<path d="M 629.0,824.0 L 626.0,826.0" style="stroke:#050105; fill:none;"/>
	<path d="M 700.0,828.0 L 701.0,828.0" style="stroke:#050105; fill:none;"/>
	<path d="M 136.0,829.0 L 146.0,864.0" style="stroke:#050105; fill:none;"/>
	<path d="M 701.0,830.0 L 702.0,832.0" style="stroke:#050105; fill:none;"/>
	<path d="M 626.0,831.0 L 623.0,833.0" style="stroke:#050105; fill:none;"/>
	<path d="M 622.0,836.0 L 621.0,841.0" style="stroke:#050105; fill:none;"/>
	<path d="M 619.0,843.0 L 617.0,844.0" style="stroke:#050105; fill:none;"/>
	<path d="M 692.0,847.0 L 693.0,848.0" style="stroke:#050105; fill:none;"/>
	<path d="M 696.0,850.0 L 700.0,853.0" style="stroke:#050105; fill:none;"/>
	<path d="M 609.0,860.0 L 610.0,860.0" style="stroke:#050105; fill:none;"/>
	<path d="M 679.0,860.0 L 680.0,861.0" style="stroke:#050105; fill:none;"/>
	<path d="M 607.0,863.0 L 610.0,863.0" style="stroke:#050105; fill:none;"/>
	<path d="M 682.0,865.0 L 683.0,865.0" style="stroke:#050105; fill:none;"/>
	<path d="M 146.0,868.0 L 155.0,900.0" style="stroke:#050105; fill:none;"/>
	<path d="M 690.0,870.0 L 691.0,872.0" style="stroke:#050105; fill:none;"/>
	<path d="M 697.0,876.0 L 698.0,876.0" style="stroke:#050105; fill:none;"/>
	<path d="M 689.0,878.0 L 693.0,877.0" style="stroke:#050105; fill:none;"/>
	<path d="M 682.0,879.0 L 682.0,880.0" style="stroke:#050105; fill:none;"/>
	<path d="M 676.0,882.0 L 680.0,881.0" style="stroke:#050105; fill:none;"/>
	<path d="M 665.0,884.0 L 667.0,883.0" style="stroke:#050105; fill:none;"/>
	<path d="M 658.0,885.0 L 653.0,888.0" style="stroke:#050105; fill:none;"/>
	<path d="M 661.0,886.0 L 662.0,886.0" style="stroke:#050105; fill:none;"/>
	<path d="M 649.0,887.0 L 651.0,887.0" style="stroke:#050105; fill:none;"/>
	<path d="M 590.0,888.0 L 589.0,889.0" style="stroke:#050105; fill:none;"/>
	<path d="M 642.0,891.0 L 646.0,890.0" style="stroke:#050105; fill:none;"/>
	<path d="M 638.0,891.0 L 640.0,891.0" style="stroke:#050105; fill:none;"/>
	<path d="M 583.0,896.0 L 583.0,897.0" style="stroke:#050105; fill:none;"/>
	<path d="M 631.0,897.0 L 630.0,898.0" style="stroke:#050105; fill:none;"/>
	<path d="M 626.0,899.0 L 625.0,902.0" style="stroke:#050105; fill:none;"/>
	<path d="M 157.0,904.0 L 156.0,908.0" style="stroke:#050105; fill:none;"/>
	<path d="M 612.0,905.0 L 616.0,904.0" style="stroke:#050105; fill:none;"/>
	<path d="M 592.0,913.0 L 609.0,907.0" style="stroke:#050105; fill:none;"/>
	<path d="M 157.0,912.0 L 159.0,912.0" style="stroke:#050105; fill:none;"/>
	<path d="M 158.0,914.0 L 161.0,918.0" style="stroke:#050105; fill:none;"/>
	<path d="M 578.0,919.0 L 588.0,914.0" style="stroke:#050105; fill:none;"/>
	<path d="M 571.0,921.0 L 573.0,920.0" style="stroke:#050105; fill:none;"/>
	<path d="M 561.0,926.0 L 563.0,926.0" style="stroke:#050105; fill:none;"/>
	<path d="M 553.0,931.0 L 559.0,929.0" style="stroke:#050105; fill:none;"/>
	<path d="M 551.0,933.0 L 551.0,934.0" style="stroke:#050105; fill:none;"/>
	<path d="M 548.0,934.0 L 546.0,935.0" style="stroke:#050105; fill:none;"/>
	<path d="M 165.0,935.0 L 166.0,937.0" style="stroke:#050105; fill:none;"/>
	<path d="M 543.0,937.0 L 541.0,938.0" style="stroke:#050105; fill:none;"/>
	<path d="M 526.0,946.0 L 540.0,939.0" style="stroke:#050105; fill:none;"/>
	<path d="M 522.0,948.0 L 521.0,949.0" style="stroke:#050105; fill:none;"/>
	<path d="M 178.0,949.0 L 177.0,951.0" style="stroke:#050105; fill:none;"/>
	<path d="M 503.0,959.0 L 515.0,953.0" style="stroke:#050105; fill:none;"/>
	<path d="M 508.0,955.0 L 509.0,955.0" style="stroke:#050105; fill:none;"/>
	<path d="M 185.0,957.0 L 186.0,958.0" style="stroke:#050105; fill:none;"/>
	<path d="M 188.0,959.0 L 191.0,961.0" style="stroke:#050105; fill:none;"/>
	<path d="M 498.0,961.0 L 490.0,967.0" style="stroke:#050105; fill:none;"/>
	<path d="M 196.0,965.0 L 198.0,966.0" style="stroke:#050105; fill:none;"/>
	<path d="M 488.0,967.0 L 483.0,969.0" style="stroke:#050105; fill:none;"/>
	<path d="M 200.0,968.0 L 223.0,977.0" style="stroke:#050105; fill:none;"/>
	<path d="M 479.0,972.0 L 481.0,970.0 L 478.0,973.0" style="stroke:#050105; fill:none;"/>
	<path d="M 425.0,973.0 L 426.0,973.0" style="stroke:#050105; fill:none;"/>
	<path d="M 472.0,976.0 L 473.0,976.0" style="stroke:#050105; fill:none;"/>
	<path d="M 225.0,978.0 L 233.0,980.0" style="stroke:#050105; fill:none;"/>
	<path d="M 228.0,979.0 L 228.0,983.0" style="stroke:#050105; fill:none;"/>
	<path d="M 459.0,984.0 L 469.0,979.0" style="stroke:#050105; fill:none;"/>
	<path d="M 236.0,981.0 L 243.0,982.0" style="stroke:#050105; fill:none;"/>
	<path d="M 249.0,985.0 L 253.0,985.0" style="stroke:#050105; fill:none;"/>
	<path d="M 257.0,986.0 L 262.0,986.0" style="stroke:#050105; fill:none;"/>
	<path d="M 228.0,988.0 L 229.0,988.0" style="stroke:#050105; fill:none;"/>
	<path d="M 269.0,989.0 L 275.0,989.0" style="stroke:#050105; fill:none;"/>
	<path d="M 453.0,989.0 L 453.0,990.0" style="stroke:#050105; fill:none;"/>
	<path d="M 298.0,990.0 L 299.0,990.0" style="stroke:#050105; fill:none;"/>
	<path d="M 230.0,992.0 L 230.0,993.0" style="stroke:#050105; fill:none;"/>
	<path d="M 447.0,993.0 L 448.0,993.0" style="stroke:#050105; fill:none;"/>
	<path d="M 442.0,996.0 L 443.0,996.0" style="stroke:#050105; fill:none;"/>
	<path d="M 430.0,1004.0 L 434.0,1001.0" style="stroke:#050105; fill:none;"/>
	<path d="M 231.0,1002.0 L 231.0,1004.0" style="stroke:#050105; fill:none;"/>
	<path d="M 425.0,1005.0 L 423.0,1008.0" style="stroke:#050105; fill:none;"/>
	<path d="M 421.0,1008.0 L 417.0,1011.0" style="stroke:#050105; fill:none;"/>
	<path d="M 406.0,1017.0 L 407.0,1017.0" style="stroke:#050105; fill:none;"/>
	<path d="M 232.0,1018.0 L 232.0,1021.0" style="stroke:#050105; fill:none;"/>
	<path d="M 403.0,1019.0 L 397.0,1023.0" style="stroke:#050105; fill:none;"/>
	<path d="M 391.0,1026.0 L 390.0,1027.0" style="stroke:#050105; fill:none;"/>
	<path d="M 386.0,1031.0 L 388.0,1030.0" style="stroke:#050105; fill:none;"/>
	<path d="M 233.0,1031.0 L 234.0,1031.0" style="stroke:#050105; fill:none;"/>
	<path d="M 380.0,1035.0 L 383.0,1034.0" style="stroke:#050105; fill:none;"/>
	<path d="M 374.0,1040.0 L 376.0,1036.0 L 377.0,1038.0" style="stroke:#050105; fill:none;"/>
	<path d="M 233.0,1040.0 L 235.0,1040.0" style="stroke:#050105; fill:none;"/>
	<path d="M 369.0,1042.0 L 369.0,1044.0" style="stroke:#050105; fill:none;"/>
	<path d="M 365.0,1046.0 L 365.0,1048.0" style="stroke:#050105; fill:none;"/>
	<path d="M 352.0,1057.0 L 352.0,1058.0" style="stroke:#050105; fill:none;"/>
	<path d="M 349.0,1058.0 L 345.0,1063.0" style="stroke:#050105; fill:none;"/>
	<path d="M 337.0,1067.0 L 339.0,1065.0" style="stroke:#050105; fill:none;"/>
</svg>
