<?xml version="1.0" ?>
<svg baseProfile="full" height="1178" version="1.1" width="873" xmlns="http://www.w3.org/2000/svg" xmlns:ev="http://www.w3.org/2001/xml-events" xmlns:xlink="http://www.w3.org/1999/xlink">
	<defs/>
	<path d="M 595.0,373.0 L 597.0,375.0" style="stroke:#050105; fill:none;"/>
	<path d="M 589.0,385.0 L 588.0,387.0" style="stroke:#050105; fill:none;"/>
	<path d="M 592.0,438.0 L 588.0,442.0" style="stroke:#050105; fill:none;"/>
	<path d="M 598.0,438.0 L 599.0,438.0" style="stroke:#050105; fill:none;"/>
	<path d="M 586.0,445.0 L 581.0,449.0" style="stroke:#050105; fill:none;"/>
	<path d="M 579.0,452.0 L 580.0,452.0" style="stroke:#050105; fill:none;"/>
	<path d="M 619.0,453.0 L 620.0,455.0" style="stroke:#050105; fill:none;"/>
	<path d="M 594.0,456.0 L 593.0,457.0" style="stroke:#050105; fill:none;"/>
	<path d="M 575.0,458.0 L 576.0,460.0" style="stroke:#050105; fill:none;"/>
	<path d="M 591.0,459.0 L 588.0,461.0" style="stroke:#050105; fill:none;"/>
	<path d="M 630.0,461.0 L 631.0,461.0" style="stroke:#050105; fill:none;"/>
	<path d="M 586.0,462.0 L 584.0,464.0" style="stroke:#050105; fill:none;"/>
	<path d="M 571.0,465.0 L 573.0,463.0" style="stroke:#050105; fill:none;"/>
	<path d="M 634.0,465.0 L 636.0,470.0" style="stroke:#050105; fill:none;"/>
	<path d="M 634.0,470.0 L 634.0,471.0" style="stroke:#050105; fill:none;"/>
	<path d="M 566.0,471.0 L 566.0,474.0" style="stroke:#050105; fill:none;"/>
	<path d="M 589.0,471.0 L 609.0,477.0" style="stroke:#050105; fill:none;"/>
	<path d="M 578.0,475.0 L 587.0,472.0" style="stroke:#050105; fill:none;"/>
	<path d="M 632.0,476.0 L 633.0,476.0" style="stroke:#050105; fill:none;"/>
	<path d="M 586.0,481.0 L 587.0,481.0" style="stroke:#050105; fill:none;"/>
	<path d="M 611.0,481.0 L 615.0,483.0" style="stroke:#050105; fill:none;"/>
	<path d="M 592.0,482.0 L 595.0,483.0" style="stroke:#050105; fill:none;"/>
	<path d="M 572.0,483.0 L 572.0,487.0" style="stroke:#050105; fill:none;"/>
	<path d="M 583.0,483.0 L 584.0,483.0" style="stroke:#050105; fill:none;"/>
	<path d="M 612.0,485.0 L 615.0,497.0" style="stroke:#050105; fill:none;"/>
	<path d="M 579.0,486.0 L 578.0,492.0" style="stroke:#050105; fill:none;"/>
	<path d="M 569.0,491.0 L 571.0,491.0" style="stroke:#050105; fill:none;"/>
	<path d="M 569.0,494.0 L 570.0,494.0" style="stroke:#050105; fill:none;"/>
	<path d="M 571.0,496.0 L 571.0,501.0" style="stroke:#050105; fill:none;"/>
	<path d="M 602.0,496.0 L 602.0,497.0" style="stroke:#050105; fill:none;"/>
	<path d="M 620.0,498.0 L 619.0,499.0" style="stroke:#050105; fill:none;"/>
	<path d="M 585.0,500.0 L 585.0,504.0" style="stroke:#050105; fill:none;"/>
	<path d="M 589.0,506.0 C 594.88,506.515 597.561,503.279 602.0,500.0" style="stroke:#050105; fill:none;"/>
	<path d="M 571.0,506.0 L 579.0,513.0" style="stroke:#050105; fill:none;"/>
	<path d="M 562.0,508.0 L 563.0,509.0" style="stroke:#050105; fill:none;"/>
	<path d="M 552.0,518.0 L 552.0,519.0" style="stroke:#050105; fill:none;"/>
	<path d="M 588.0,518.0 L 598.0,518.0" style="stroke:#050105; fill:none;"/>
	<path d="M 565.0,521.0 L 566.0,525.0" style="stroke:#050105; fill:none;"/>
	<path d="M 571.0,531.0 L 573.0,531.0" style="stroke:#050105; fill:none;"/>
	<path d="M 576.0,532.0 L 577.0,532.0" style="stroke:#050105; fill:none;"/>
	<path d="M 565.0,539.0 L 567.0,540.0" style="stroke:#050105; fill:none;"/>
	<path d="M 570.0,539.0 L 571.0,539.0" style="stroke:#050105; fill:none;"/>
	<path d="M 492.0,572.0 L 491.0,574.0" style="stroke:#050105; fill:none;"/>
	<path d="M 490.0,578.0 L 490.0,580.0" style="stroke:#050105; fill:none;"/>
	<path d="M 486.0,589.0 L 483.0,593.0" style="stroke:#050105; fill:none;"/>
	<path d="M 598.0,594.0 L 599.0,595.0" style="stroke:#050105; fill:none;"/>
	<path d="M 840.0,596.0 L 842.0,600.0" style="stroke:#050105; fill:none;"/>
	<path d="M 612.0,603.0 L 612.0,604.0" style="stroke:#050105; fill:none;"/>
	<path d="M 844.0,603.0 L 845.0,604.0" style="stroke:#050105; fill:none;"/>
	<path d="M 614.0,604.0 L 614.0,606.0" style="stroke:#050105; fill:none;"/>
	<path d="M 621.0,610.0 L 622.0,610.0" style="stroke:#050105; fill:none;"/>
	<path d="M 849.0,611.0 L 854.0,619.0" style="stroke:#050105; fill:none;"/>
	<path d="M 628.0,615.0 L 629.0,615.0" style="stroke:#050105; fill:none;"/>
	<path d="M 642.0,624.0 L 643.0,625.0" style="stroke:#050105; fill:none;"/>
	<path d="M 459.0,625.0 L 454.0,628.0" style="stroke:#050105; fill:none;"/>
	<path d="M 464.0,625.0 L 467.0,625.0" style="stroke:#050105; fill:none;"/>
	<path d="M 855.0,625.0 L 856.0,626.0" style="stroke:#050105; fill:none;"/>
	<path d="M 859.0,628.0 L 858.0,629.0" style="stroke:#050105; fill:none;"/>
	<path d="M 680.0,629.0 L 682.0,629.0" style="stroke:#050105; fill:none;"/>
	<path d="M 684.0,630.0 L 691.0,632.0" style="stroke:#050105; fill:none;"/>
	<path d="M 438.0,637.0 L 444.0,632.0" style="stroke:#050105; fill:none;"/>
	<path d="M 651.0,631.0 L 652.0,631.0" style="stroke:#050105; fill:none;"/>
	<path d="M 696.0,635.0 L 700.0,637.0" style="stroke:#050105; fill:none;"/>
	<path d="M 436.0,641.0 L 433.0,642.0 L 437.0,640.0" style="stroke:#050105; fill:none;"/>
	<path d="M 455.0,640.0 L 453.0,642.0" style="stroke:#050105; fill:none;"/>
	<path d="M 439.0,641.0 L 440.0,642.0" style="stroke:#050105; fill:none;"/>
	<path d="M 703.0,641.0 L 707.0,647.0" style="stroke:#050105; fill:none;"/>
	<path d="M 446.0,642.0 L 448.0,642.0" style="stroke:#050105; fill:none;"/>
	<path d="M 459.0,643.0 L 460.0,644.0" style="stroke:#050105; fill:none;"/>
	<path d="M 427.0,650.0 L 431.0,646.0" style="stroke:#050105; fill:none;"/>
	<path d="M 460.0,646.0 L 464.0,646.0" style="stroke:#050105; fill:none;"/>
	<path d="M 710.0,648.0 L 709.0,649.0" style="stroke:#050105; fill:none;"/>
	<path d="M 685.0,652.0 L 690.0,651.0" style="stroke:#050105; fill:none;"/>
	<path d="M 710.0,651.0 L 709.0,652.0" style="stroke:#050105; fill:none;"/>
	<path d="M 425.0,652.0 L 426.0,652.0" style="stroke:#050105; fill:none;"/>
	<path d="M 692.0,653.0 L 692.0,655.0" style="stroke:#050105; fill:none;"/>
	<path d="M 694.0,654.0 L 695.0,655.0" style="stroke:#050105; fill:none;"/>
	<path d="M 421.0,658.0 L 423.0,656.0" style="stroke:#050105; fill:none;"/>
	<path d="M 867.0,659.0 L 869.0,660.0" style="stroke:#050105; fill:none;"/>
	<path d="M 424.0,662.0 L 427.0,664.0" style="stroke:#050105; fill:none;"/>
	<path d="M 688.0,664.0 L 688.0,665.0" style="stroke:#050105; fill:none;"/>
	<path d="M 869.0,664.0 L 870.0,664.0" style="stroke:#050105; fill:none;"/>
	<path d="M 446.0,665.0 L 445.0,666.0" style="stroke:#050105; fill:none;"/>
	<path d="M 415.0,666.0 L 415.0,667.0" style="stroke:#050105; fill:none;"/>
	<path d="M 429.0,666.0 L 432.0,669.0" style="stroke:#050105; fill:none;"/>
	<path d="M 417.0,667.0 L 418.0,668.0" style="stroke:#050105; fill:none;"/>
	<path d="M 413.0,668.0 L 412.0,669.0" style="stroke:#050105; fill:none;"/>
	<path d="M 712.0,668.0 L 713.0,670.0" style="stroke:#050105; fill:none;"/>
	<path d="M 870.0,668.0 L 870.0,669.0" style="stroke:#050105; fill:none;"/>
	<path d="M 872.0,669.0 L 872.0,670.0" style="stroke:#050105; fill:none;"/>
	<path d="M 434.0,672.0 L 434.0,673.0" style="stroke:#050105; fill:none;"/>
	<path d="M 686.0,672.0 L 686.0,674.0" style="stroke:#050105; fill:none;"/>
	<path d="M 872.0,673.0 L 872.0,674.0" style="stroke:#050105; fill:none;"/>
	<path d="M 421.0,674.0 L 422.0,675.0" style="stroke:#050105; fill:none;"/>
	<path d="M 434.0,676.0 L 434.0,681.0" style="stroke:#050105; fill:none;"/>
	<path d="M 432.0,679.0 L 432.0,680.0" style="stroke:#050105; fill:none;"/>
	<path d="M 403.0,680.0 L 404.0,680.0" style="stroke:#050105; fill:none;"/>
	<path d="M 399.0,682.0 L 401.0,681.0" style="stroke:#050105; fill:none;"/>
	<path d="M 407.0,681.0 L 408.0,683.0" style="stroke:#050105; fill:none;"/>
	<path d="M 420.0,682.0 L 421.0,682.0" style="stroke:#050105; fill:none;"/>
	<path d="M 416.0,687.0 L 414.0,691.0" style="stroke:#050105; fill:none;"/>
	<path d="M 401.0,688.0 L 406.0,688.0" style="stroke:#050105; fill:none;"/>
	<path d="M 391.0,690.0 L 391.0,692.0" style="stroke:#050105; fill:none;"/>
	<path d="M 406.0,691.0 L 413.0,690.0" style="stroke:#050105; fill:none;"/>
	<path d="M 394.0,697.0 C 400.939,701.971 407.652,702.396 416.0,702.0" style="stroke:#050105; fill:none;"/>
	<path d="M 410.0,708.0 L 411.0,708.0" style="stroke:#050105; fill:none;"/>
	<path d="M 401.0,710.0 L 405.0,710.0" style="stroke:#050105; fill:none;"/>
	<path d="M 396.0,712.0 L 397.0,712.0" style="stroke:#050105; fill:none;"/>
	<path d="M 384.0,713.0 L 385.0,713.0" style="stroke:#050105; fill:none;"/>
	<path d="M 391.0,713.0 L 394.0,713.0" style="stroke:#050105; fill:none;"/>
	<path d="M 644.0,716.0 L 646.0,715.0" style="stroke:#050105; fill:none;"/>
	<path d="M 642.0,717.0 L 640.0,718.0" style="stroke:#050105; fill:none;"/>
	<path d="M 631.0,720.0 L 635.0,720.0" style="stroke:#050105; fill:none;"/>
	<path d="M 781.0,723.0 L 783.0,721.0" style="stroke:#050105; fill:none;"/>
	<path d="M 623.0,725.0 L 626.0,723.0" style="stroke:#050105; fill:none;"/>
	<path d="M 621.0,724.0 L 621.0,726.0" style="stroke:#050105; fill:none;"/>
	<path d="M 638.0,725.0 L 636.0,728.0" style="stroke:#050105; fill:none;"/>
	<path d="M 619.0,728.0 L 618.0,731.0" style="stroke:#050105; fill:none;"/>
	<path d="M 771.0,732.0 L 771.0,733.0" style="stroke:#050105; fill:none;"/>
	<path d="M 757.0,734.0 L 759.0,734.0" style="stroke:#050105; fill:none;"/>
	<path d="M 617.0,738.0 L 621.0,741.0" style="stroke:#050105; fill:none;"/>
	<path d="M 766.0,739.0 L 769.0,738.0" style="stroke:#050105; fill:none;"/>
	<path d="M 745.0,742.0 L 751.0,739.0" style="stroke:#050105; fill:none;"/>
	<path d="M 764.0,744.0 L 766.0,742.0" style="stroke:#050105; fill:none;"/>
	<path d="M 741.0,743.0 L 739.0,744.0" style="stroke:#050105; fill:none;"/>
	<path d="M 735.0,746.0 L 736.0,746.0" style="stroke:#050105; fill:none;"/>
	<path d="M 761.0,748.0 L 762.0,748.0" style="stroke:#050105; fill:none;"/>
	<path d="M 735.0,749.0 L 735.0,750.0" style="stroke:#050105; fill:none;"/>
	<path d="M 759.0,750.0 L 755.0,754.0" style="stroke:#050105; fill:none;"/>
	<path d="M 794.0,750.0 L 795.0,750.0" style="stroke:#050105; fill:none;"/>
	<path d="M 794.0,754.0 L 794.0,755.0" style="stroke:#050105; fill:none;"/>
	<path d="M 752.0,756.0 L 753.0,756.0" style="stroke:#050105; fill:none;"/>
	<path d="M 750.0,759.0 L 745.0,771.0" style="stroke:#050105; fill:none;"/>
	<path d="M 602.0,762.0 L 603.0,762.0" style="stroke:#050105; fill:none;"/>
	<path d="M 793.0,762.0 L 790.0,767.0" style="stroke:#050105; fill:none;"/>
	<path d="M 624.0,764.0 L 622.0,765.0" style="stroke:#050105; fill:none;"/>
	<path d="M 609.0,766.0 L 611.0,766.0" style="stroke:#050105; fill:none;"/>
	<path d="M 742.0,776.0 L 742.0,778.0" style="stroke:#050105; fill:none;"/>
	<path d="M 787.0,777.0 L 788.0,778.0" style="stroke:#050105; fill:none;"/>
	<path d="M 739.0,781.0 L 735.0,788.0" style="stroke:#050105; fill:none;"/>
	<path d="M 781.0,790.0 L 782.0,790.0" style="stroke:#050105; fill:none;"/>
	<path d="M 727.0,794.0 L 722.0,799.0" style="stroke:#050105; fill:none;"/>
	<path d="M 720.0,800.0 L 720.0,801.0" style="stroke:#050105; fill:none;"/>
	<path d="M 711.0,807.0 L 712.0,807.0" style="stroke:#050105; fill:none;"/>
	<path d="M 707.0,811.0 L 709.0,810.0" style="stroke:#050105; fill:none;"/>
	<path d="M 764.0,813.0 L 761.0,816.0" style="stroke:#050105; fill:none;"/>
	<path d="M 703.0,815.0 L 700.0,818.0" style="stroke:#050105; fill:none;"/>
	<path d="M 758.0,820.0 L 753.0,823.0" style="stroke:#050105; fill:none;"/>
	<path d="M 690.0,827.0 L 690.0,828.0" style="stroke:#050105; fill:none;"/>
	<path d="M 748.0,827.0 L 749.0,828.0" style="stroke:#050105; fill:none;"/>
	<path d="M 746.0,829.0 L 745.0,830.0" style="stroke:#050105; fill:none;"/>
	<path d="M 736.0,836.0 L 741.0,832.0" style="stroke:#050105; fill:none;"/>
	<path d="M 670.0,834.0 L 671.0,834.0" style="stroke:#050105; fill:none;"/>
	<path d="M 730.0,839.0 L 729.0,840.0" style="stroke:#050105; fill:none;"/>
	<path d="M 661.0,851.0 L 663.0,851.0" style="stroke:#050105; fill:none;"/>
	<path d="M 248.0,853.0 L 250.0,853.0" style="stroke:#050105; fill:none;"/>
	<path d="M 656.0,855.0 L 657.0,855.0" style="stroke:#050105; fill:none;"/>
	<path d="M 651.0,860.0 L 653.0,858.0" style="stroke:#050105; fill:none;"/>
	<path d="M 265.0,859.0 L 270.0,865.0" style="stroke:#050105; fill:none;"/>
	<path d="M 269.0,860.0 L 269.0,861.0" style="stroke:#050105; fill:none;"/>
	<path d="M 265.0,861.0 L 265.0,862.0" style="stroke:#050105; fill:none;"/>
	<path d="M 205.0,862.0 C 204.512,868.179 203.392,872.534 207.0,878.0" style="stroke:#050105; fill:none;"/>
	<path d="M 648.0,863.0 L 645.0,865.0" style="stroke:#050105; fill:none;"/>
	<path d="M 274.0,865.0 L 276.0,865.0" style="stroke:#050105; fill:none;"/>
	<path d="M 277.0,866.0 L 288.0,871.0" style="stroke:#050105; fill:none;"/>
	<path d="M 233.0,869.0 L 236.0,869.0" style="stroke:#050105; fill:none;"/>
	<path d="M 238.0,868.0 L 242.0,868.0" style="stroke:#050105; fill:none;"/>
	<path d="M 224.0,872.0 L 225.0,872.0" style="stroke:#050105; fill:none;"/>
	<path d="M 290.0,872.0 L 311.0,876.0" style="stroke:#050105; fill:none;"/>
	<path d="M 210.0,880.0 L 210.0,882.0 L 210.0,880.0" style="stroke:#050105; fill:none;"/>
	<path d="M 210.0,883.0 L 221.0,893.0" style="stroke:#050105; fill:none;"/>
	<path d="M 235.0,885.0 L 236.0,886.0" style="stroke:#050105; fill:none;"/>
	<path d="M 317.0,895.0 L 319.0,897.0" style="stroke:#050105; fill:none;"/>
	<path d="M 228.0,896.0 L 228.0,897.0" style="stroke:#050105; fill:none;"/>
	<path d="M 250.0,896.0 L 251.0,897.0" style="stroke:#050105; fill:none;"/>
	<path d="M 230.0,898.0 L 231.0,900.0" style="stroke:#050105; fill:none;"/>
	<path d="M 234.0,900.0 L 235.0,903.0 L 234.0,900.0" style="stroke:#050105; fill:none;"/>
	<path d="M 322.0,902.0 L 323.0,902.0" style="stroke:#050105; fill:none;"/>
	<path d="M 236.0,904.0 L 240.0,906.0" style="stroke:#050105; fill:none;"/>
	<path d="M 272.0,904.0 L 273.0,905.0" style="stroke:#050105; fill:none;"/>
	<path d="M 263.0,907.0 L 265.0,907.0" style="stroke:#050105; fill:none;"/>
	<path d="M 246.0,908.0 L 247.0,911.0 L 246.0,908.0" style="stroke:#050105; fill:none;"/>
	<path d="M 330.0,911.0 L 335.0,916.0" style="stroke:#050105; fill:none;"/>
	<path d="M 248.0,912.0 L 250.0,915.0" style="stroke:#050105; fill:none;"/>
	<path d="M 272.0,912.0 L 274.0,913.0" style="stroke:#050105; fill:none;"/>
	<path d="M 254.0,915.0 L 255.0,916.0" style="stroke:#050105; fill:none;"/>
	<path d="M 292.0,918.0 L 291.0,919.0" style="stroke:#050105; fill:none;"/>
	<path d="M 263.0,919.0 L 265.0,921.0" style="stroke:#050105; fill:none;"/>
	<path d="M 260.0,920.0 L 261.0,920.0" style="stroke:#050105; fill:none;"/>
	<path d="M 341.0,921.0 L 343.0,922.0" style="stroke:#050105; fill:none;"/>
	<path d="M 271.0,924.0 L 272.0,924.0" style="stroke:#050105; fill:none;"/>
	<path d="M 274.0,925.0 L 277.0,925.0" style="stroke:#050105; fill:none;"/>
	<path d="M 304.0,925.0 L 306.0,925.0" style="stroke:#050105; fill:none;"/>
	<path d="M 282.0,929.0 L 304.0,941.034 L 344.0,957.76 L 367.0,964.0" style="stroke:#050105; fill:none;"/>
	<path d="M 391.0,952.0 C 388.222,957.032 382.651,960.319 377.0,961.0" style="stroke:#050105; fill:none;"/>
	<path d="M 333.0,953.0 L 331.0,955.0" style="stroke:#050105; fill:none;"/>
	<path d="M 404.0,953.0 L 406.0,954.0" style="stroke:#050105; fill:none;"/>
	<path d="M 817.0,953.0 L 817.0,955.0" style="stroke:#050105; fill:none;"/>
	<path d="M 325.0,954.0 L 326.0,955.0" style="stroke:#050105; fill:none;"/>
	<path d="M 410.0,957.0 L 413.0,959.0" style="stroke:#050105; fill:none;"/>
	<path d="M 816.0,959.0 L 816.0,960.0" style="stroke:#050105; fill:none;"/>
	<path d="M 418.0,961.0 L 425.0,964.0" style="stroke:#050105; fill:none;"/>
	<path d="M 372.0,963.0 L 373.0,963.0" style="stroke:#050105; fill:none;"/>
	<path d="M 795.0,969.0 L 796.0,969.0" style="stroke:#050105; fill:none;"/>
	<path d="M 437.0,970.0 L 438.0,971.0" style="stroke:#050105; fill:none;"/>
	<path d="M 782.0,973.0 L 782.0,974.0" style="stroke:#050105; fill:none;"/>
	<path d="M 780.0,974.0 L 778.0,975.0" style="stroke:#050105; fill:none;"/>
	<path d="M 450.0,977.0 L 451.0,977.0" style="stroke:#050105; fill:none;"/>
	<path d="M 771.0,977.0 L 772.0,977.0" style="stroke:#050105; fill:none;"/>
	<path d="M 767.0,978.0 L 768.0,978.0" style="stroke:#050105; fill:none;"/>
	<path d="M 458.0,981.0 L 471.0,987.0" style="stroke:#050105; fill:none;"/>
	<path d="M 762.0,980.0 L 763.0,980.0" style="stroke:#050105; fill:none;"/>
	<path d="M 745.0,983.0 L 745.0,984.0" style="stroke:#050105; fill:none;"/>
	<path d="M 466.0,987.0 L 467.0,987.0" style="stroke:#050105; fill:none;"/>
	<path d="M 469.0,987.0 L 473.0,993.0" style="stroke:#050105; fill:none;"/>
	<path d="M 475.0,987.0 L 477.0,990.0" style="stroke:#050105; fill:none;"/>
	<path d="M 479.0,990.0 L 485.0,992.0" style="stroke:#050105; fill:none;"/>
	<path d="M 489.0,994.0 L 499.0,996.0" style="stroke:#050105; fill:none;"/>
	<path d="M 476.0,996.0 L 477.0,998.0" style="stroke:#050105; fill:none;"/>
	<path d="M 498.0,999.0 C 501.837,999.193 513.752,1005.58 512.0,1000.0" style="stroke:#050105; fill:none;"/>
	<path d="M 508.0,999.0 L 507.0,1000.0" style="stroke:#050105; fill:none;"/>
	<path d="M 482.0,1001.0 L 482.0,1003.0 L 482.0,1001.0" style="stroke:#050105; fill:none;"/>
	<path d="M 483.0,1003.0 L 489.0,1012.0" style="stroke:#050105; fill:none;"/>
	<path d="M 515.0,1003.0 L 524.0,1005.0" style="stroke:#050105; fill:none;"/>
	<path d="M 531.0,1006.0 L 532.0,1007.0" style="stroke:#050105; fill:none;"/>
	<path d="M 520.0,1007.0 L 522.0,1008.0" style="stroke:#050105; fill:none;"/>
	<path d="M 537.0,1008.0 L 538.0,1008.0" style="stroke:#050105; fill:none;"/>
	<path d="M 549.0,1010.0 L 550.0,1011.0" style="stroke:#050105; fill:none;"/>
	<path d="M 532.0,1011.0 L 537.0,1013.0" style="stroke:#050105; fill:none;"/>
	<path d="M 491.0,1013.0 L 496.0,1018.0" style="stroke:#050105; fill:none;"/>
	<path d="M 548.0,1015.0 L 549.0,1018.0" style="stroke:#050105; fill:none;"/>
	<path d="M 497.0,1020.0 L 502.0,1024.0" style="stroke:#050105; fill:none;"/>
	<path d="M 566.0,1020.0 L 564.0,1021.0" style="stroke:#050105; fill:none;"/>
	<path d="M 568.0,1022.0 L 571.0,1021.0" style="stroke:#050105; fill:none;"/>
	<path d="M 575.0,1021.0 L 574.0,1022.0" style="stroke:#050105; fill:none;"/>
	<path d="M 581.0,1022.0 L 582.0,1022.0" style="stroke:#050105; fill:none;"/>
	<path d="M 504.0,1025.0 L 506.0,1026.0" style="stroke:#050105; fill:none;"/>
	<path d="M 507.0,1029.0 L 507.0,1031.0" style="stroke:#050105; fill:none;"/>
	<path d="M 512.0,1035.0 L 512.0,1032.0 L 513.0,1037.0" style="stroke:#050105; fill:none;"/>
	<path d="M 515.0,1038.0 L 521.0,1046.0" style="stroke:#050105; fill:none;"/>
	<path d="M 526.0,1051.0 L 528.0,1050.0" style="stroke:#050105; fill:none;"/>
	<path d="M 529.0,1053.0 L 530.0,1053.0" style="stroke:#050105; fill:none;"/>
	<path d="M 532.0,1056.0 L 533.0,1056.0" style="stroke:#050105; fill:none;"/>
	<path d="M 535.0,1058.0 L 536.0,1059.0" style="stroke:#050105; fill:none;"/>
	<path d="M 538.0,1062.0 L 537.0,1063.0" style="stroke:#050105; fill:none;"/>
	<path d="M 541.0,1067.0 L 542.0,1068.0" style="stroke:#050105; fill:none;"/>
	<path d="M 544.0,1067.0 L 544.0,1070.0" style="stroke:#050105; fill:none;"/>
	<path d="M 546.0,1071.0 L 548.0,1073.0" style="stroke:#050105; fill:none;"/>
	<path d="M 550.0,1075.0 L 552.0,1077.0" style="stroke:#050105; fill:none;"/>
	<path d="M 556.0,1081.0 L 556.0,1084.0" style="stroke:#050105; fill:none;"/>
	<path d="M 560.0,1092.0 L 560.0,1096.0" style="stroke:#050105; fill:none;"/>
	<path d="M 560.0,1101.0 L 562.0,1101.0" style="stroke:#050105; fill:none;"/>
	<path d="M 564.0,1107.0 L 566.0,1109.0" style="stroke:#050105; fill:none;"/>
	<path d="M 564.0,1112.0 L 566.0,1113.0" style="stroke:#050105; fill:none;"/>
	<path d="M 567.0,1119.0 L 566.0,1121.0" style="stroke:#050105; fill:none;"/>
	<path d="M 567.0,1124.0 L 568.0,1125.0" style="stroke:#050105; fill:none;"/>
	<path d="M 569.0,1134.0 L 568.0,1137.0" style="stroke:#050105; fill:none;"/>
	<path d="M 556.0,1150.0 C 556.971,1145.19 559.236,1142.35 564.0,1141.0" style="stroke:#050105; fill:none;"/>
	<path d="M 564.0,1145.0 L 566.0,1144.0" style="stroke:#050105; fill:none;"/>
	<path d="M 567.0,1149.0 L 566.0,1161.0" style="stroke:#050105; fill:none;"/>
	<path d="M 561.0,1157.0 L 564.0,1159.0" style="stroke:#050105; fill:none;"/>
	<path d="M 578.0,1169.0 L 580.0,1169.0" style="stroke:#050105; fill:none;"/>
	<path d="M 582.0,1171.0 L 587.0,1170.0" style="stroke:#050105; fill:none;"/>
	<path d="M 593.0,1173.0 L 597.0,1173.0" style="stroke:#050105; fill:none;"/>
	<path d="M 597.0,1175.0 L 600.0,1174.0" style="stroke:#050105; fill:none;"/>
	<path d="M 605.0,1176.0 L 608.0,1175.0" style="stroke:#050105; fill:none;"/>
	<path d="M 613.0,1176.0 L 618.0,1178.0" style="stroke:#050105; fill:none;"/>
	<path d="M 621.0,1175.0 L 622.0,1177.0" style="stroke:#050105; fill:none;"/>
	<path d="M 626.0,1178.0 L 628.0,1178.0" style="stroke:#050105; fill:none;"/>
	<path d="M 669.0,1176.0 L 680.0,1177.0" style="stroke:#050105; fill:none;"/>
	<path d="M 633.0,1177.0 L 633.0,1178.0" style="stroke:#050105; fill:none;"/>
	<path d="M 650.0,1178.0 L 655.0,1178.0" style="stroke:#050105; fill:none;"/>
	<path d="M 643.0,1178.0 L 646.0,1178.0" style="stroke:#050105; fill:none;"/>
	<path d="M 660.0,1178.0 L 661.0,1178.0" style="stroke:#050105; fill:none;"/>
	<path d="M 664.0,1178.0 L 665.0,1178.0" style="stroke:#050105; fill:none;"/>
</svg>
