<?xml version="1.0" ?>
<svg baseProfile="full" height="1178" version="1.1" width="873" xmlns="http://www.w3.org/2000/svg" xmlns:ev="http://www.w3.org/2001/xml-events" xmlns:xlink="http://www.w3.org/1999/xlink">
	<defs/>
	<path d="M 149.0,361.0 C 153.423,357.232 158.611,358.78 164.0,359.0" style="stroke:#050105; fill:none;"/>
	<path d="M 145.0,363.0 L 145.0,365.0 L 145.0,363.0" style="stroke:#050105; fill:none;"/>
	<path d="M 133.0,375.0 L 144.0,364.0" style="stroke:#050105; fill:none;"/>
	<path d="M 154.0,378.0 L 155.0,379.0" style="stroke:#050105; fill:none;"/>
	<path d="M 129.0,382.0 L 130.0,382.0" style="stroke:#050105; fill:none;"/>
	<path d="M 128.0,384.0 L 126.0,385.0" style="stroke:#050105; fill:none;"/>
	<path d="M 125.0,387.0 L 121.0,393.0" style="stroke:#050105; fill:none;"/>
	<path d="M 157.0,387.0 L 158.0,389.0" style="stroke:#050105; fill:none;"/>
	<path d="M 141.0,389.0 L 140.0,390.0" style="stroke:#050105; fill:none;"/>
	<path d="M 158.0,392.0 L 158.0,396.0" style="stroke:#050105; fill:none;"/>
	<path d="M 117.0,399.0 L 111.0,404.0" style="stroke:#050105; fill:none;"/>
	<path d="M 173.0,402.0 L 173.0,404.0" style="stroke:#050105; fill:none;"/>
	<path d="M 130.0,404.0 L 129.0,405.0" style="stroke:#050105; fill:none;"/>
	<path d="M 111.0,408.0 L 110.0,409.0" style="stroke:#050105; fill:none;"/>
	<path d="M 169.0,411.0 L 168.0,412.0" style="stroke:#050105; fill:none;"/>
	<path d="M 106.0,414.0 L 106.0,415.0" style="stroke:#050105; fill:none;"/>
	<path d="M 107.0,417.0 L 104.0,420.0" style="stroke:#050105; fill:none;"/>
	<path d="M 120.0,418.0 L 119.0,419.0" style="stroke:#050105; fill:none;"/>
	<path d="M 165.0,419.0 L 168.0,419.0" style="stroke:#050105; fill:none;"/>
	<path d="M 166.0,420.0 L 162.0,425.0" style="stroke:#050105; fill:none;"/>
	<path d="M 165.0,423.0 L 166.0,423.0" style="stroke:#050105; fill:none;"/>
	<path d="M 114.0,426.0 L 114.0,427.0" style="stroke:#050105; fill:none;"/>
	<path d="M 122.0,426.0 L 121.0,427.0" style="stroke:#050105; fill:none;"/>
	<path d="M 159.0,430.0 L 156.0,441.0" style="stroke:#050105; fill:none;"/>
	<path d="M 100.0,430.0 L 100.0,432.0 L 100.0,430.0" style="stroke:#050105; fill:none;"/>
	<path d="M 98.0,437.0 C 86.5814,456.906 76.4779,475.282 68.9005,497.0 C 66.277,504.519 62.1657,511.886 62.0,520.0" style="stroke:#050105; fill:none;"/>
	<path d="M 107.0,445.0 L 108.0,446.0" style="stroke:#050105; fill:none;"/>
	<path d="M 155.0,445.0 L 150.0,465.0" style="stroke:#050105; fill:none;"/>
	<path d="M 101.0,459.0 L 101.0,460.0" style="stroke:#050105; fill:none;"/>
	<path d="M 131.0,471.0 L 129.0,474.0" style="stroke:#050105; fill:none;"/>
	<path d="M 74.0,474.0 L 76.0,473.0" style="stroke:#050105; fill:none;"/>
	<path d="M 124.0,476.0 L 124.0,477.0" style="stroke:#050105; fill:none;"/>
	<path d="M 72.0,479.0 L 71.0,480.0" style="stroke:#050105; fill:none;"/>
	<path d="M 110.0,489.0 L 116.0,484.0" style="stroke:#050105; fill:none;"/>
	<path d="M 71.0,485.0 L 73.0,487.0" style="stroke:#050105; fill:none;"/>
	<path d="M 105.0,495.0 L 104.0,497.0" style="stroke:#050105; fill:none;"/>
	<path d="M 65.0,531.0 C 66.3268,537.349 69.4235,542.574 75.0,546.0" style="stroke:#050105; fill:none;"/>
	<path d="M 313.0,538.0 L 313.0,539.0" style="stroke:#050105; fill:none;"/>
	<path d="M 313.0,545.0 L 313.0,548.0" style="stroke:#050105; fill:none;"/>
	<path d="M 334.0,545.0 L 336.0,545.0" style="stroke:#050105; fill:none;"/>
	<path d="M 329.0,549.0 C 324.291,555.358 324.095,562.346 324.0,570.0" style="stroke:#050105; fill:none;"/>
	<path d="M 314.0,550.0 L 314.0,551.0" style="stroke:#050105; fill:none;"/>
	<path d="M 345.0,554.0 L 345.0,555.0" style="stroke:#050105; fill:none;"/>
	<path d="M 316.0,555.0 L 317.0,560.0" style="stroke:#050105; fill:none;"/>
	<path d="M 338.0,555.0 L 338.0,561.0" style="stroke:#050105; fill:none;"/>
	<path d="M 346.0,557.0 L 346.0,558.0" style="stroke:#050105; fill:none;"/>
	<path d="M 72.0,559.0 L 73.0,559.0" style="stroke:#050105; fill:none;"/>
	<path d="M 335.0,560.0 L 339.0,570.0" style="stroke:#050105; fill:none;"/>
	<path d="M 345.0,561.0 L 343.0,563.0" style="stroke:#050105; fill:none;"/>
	<path d="M 69.0,564.0 L 67.0,567.0" style="stroke:#050105; fill:none;"/>
	<path d="M 318.0,564.0 L 318.0,565.0" style="stroke:#050105; fill:none;"/>
	<path d="M 357.0,566.0 L 358.0,567.0" style="stroke:#050105; fill:none;"/>
	<path d="M 359.0,571.0 L 358.0,572.0" style="stroke:#050105; fill:none;"/>
	<path d="M 65.0,572.0 L 62.0,578.0" style="stroke:#050105; fill:none;"/>
	<path d="M 341.0,573.0 L 342.0,573.0" style="stroke:#050105; fill:none;"/>
	<path d="M 344.0,574.0 L 344.0,575.0" style="stroke:#050105; fill:none;"/>
	<path d="M 352.0,575.0 L 351.0,576.0" style="stroke:#050105; fill:none;"/>
	<path d="M 368.0,575.0 L 370.0,576.0" style="stroke:#050105; fill:none;"/>
	<path d="M 365.0,578.0 L 362.0,581.0" style="stroke:#050105; fill:none;"/>
	<path d="M 374.0,579.0 L 374.0,580.0" style="stroke:#050105; fill:none;"/>
	<path d="M 376.0,581.0 L 380.0,584.0" style="stroke:#050105; fill:none;"/>
	<path d="M 360.0,584.0 L 357.0,587.0" style="stroke:#050105; fill:none;"/>
	<path d="M 346.0,586.0 L 347.0,586.0" style="stroke:#050105; fill:none;"/>
	<path d="M 350.0,587.0 L 346.0,589.0" style="stroke:#050105; fill:none;"/>
	<path d="M 384.0,589.0 L 385.0,587.0 L 386.0,591.0" style="stroke:#050105; fill:none;"/>
	<path d="M 354.0,588.0 L 354.0,589.0" style="stroke:#050105; fill:none;"/>
	<path d="M 56.0,591.0 L 55.0,592.0" style="stroke:#050105; fill:none;"/>
	<path d="M 388.0,592.0 L 395.0,598.0" style="stroke:#050105; fill:none;"/>
	<path d="M 385.0,593.0 L 384.0,594.0" style="stroke:#050105; fill:none;"/>
	<path d="M 360.0,599.0 L 361.0,600.0" style="stroke:#050105; fill:none;"/>
	<path d="M 53.0,600.0 L 52.0,601.0" style="stroke:#050105; fill:none;"/>
	<path d="M 384.0,600.0 L 384.0,602.0" style="stroke:#050105; fill:none;"/>
	<path d="M 49.0,604.0 L 49.0,605.0" style="stroke:#050105; fill:none;"/>
	<path d="M 385.0,607.0 L 386.0,609.0" style="stroke:#050105; fill:none;"/>
	<path d="M 399.0,608.0 L 401.0,613.0" style="stroke:#050105; fill:none;"/>
	<path d="M 45.0,612.0 C 45.1576,620.136 37.6943,622.574 33.0,628.0" style="stroke:#050105; fill:none;"/>
	<path d="M 383.0,613.0 L 382.0,614.0" style="stroke:#050105; fill:none;"/>
	<path d="M 380.0,614.0 L 380.0,617.0" style="stroke:#050105; fill:none;"/>
	<path d="M 401.0,619.0 L 401.0,621.0" style="stroke:#050105; fill:none;"/>
	<path d="M 39.0,620.0 L 39.0,622.0" style="stroke:#050105; fill:none;"/>
	<path d="M 29.0,630.0 L 31.0,629.0" style="stroke:#050105; fill:none;"/>
	<path d="M 37.0,631.0 L 39.0,629.0" style="stroke:#050105; fill:none;"/>
	<path d="M 36.0,634.0 L 34.0,639.0" style="stroke:#050105; fill:none;"/>
	<path d="M 24.0,635.0 L 24.0,637.0 L 24.0,635.0" style="stroke:#050105; fill:none;"/>
	<path d="M 23.0,637.0 L 14.0,643.0" style="stroke:#050105; fill:none;"/>
	<path d="M 433.0,637.0 L 437.0,640.0" style="stroke:#050105; fill:none;"/>
	<path d="M 439.0,642.0 L 440.0,642.0" style="stroke:#050105; fill:none;"/>
	<path d="M 33.0,643.0 L 30.0,653.0" style="stroke:#050105; fill:none;"/>
	<path d="M 446.0,645.0 L 449.0,645.0" style="stroke:#050105; fill:none;"/>
	<path d="M 13.0,645.0 L 8.0,650.0" style="stroke:#050105; fill:none;"/>
	<path d="M 452.0,645.0 L 454.0,646.0" style="stroke:#050105; fill:none;"/>
	<path d="M 6.0,651.0 L 2.0,656.0" style="stroke:#050105; fill:none;"/>
	<path d="M 28.0,652.0 L 27.0,662.0" style="stroke:#050105; fill:none;"/>
	<path d="M 1.0,658.0 L 1.0,659.0" style="stroke:#050105; fill:none;"/>
	<path d="M 26.0,661.0 C 23.9155,662.986 21.145,666.947 26.0,666.0" style="stroke:#050105; fill:none;"/>
	<path d="M 23.0,669.0 L 22.0,678.0" style="stroke:#050105; fill:none;"/>
	<path d="M 20.0,674.0 L 19.0,676.0" style="stroke:#050105; fill:none;"/>
	<path d="M 16.0,683.0 L 17.0,683.0" style="stroke:#050105; fill:none;"/>
	<path d="M 15.0,687.0 L 13.0,691.0" style="stroke:#050105; fill:none;"/>
	<path d="M 18.0,691.0 L 18.0,692.0" style="stroke:#050105; fill:none;"/>
	<path d="M 17.0,696.0 L 16.0,697.0" style="stroke:#050105; fill:none;"/>
	<path d="M 9.0,704.0 L 11.0,702.0" style="stroke:#050105; fill:none;"/>
	<path d="M 16.0,703.0 L 15.0,704.0" style="stroke:#050105; fill:none;"/>
	<path d="M 507.0,706.0 L 508.0,706.0" style="stroke:#050105; fill:none;"/>
	<path d="M 518.0,716.0 L 517.0,717.0" style="stroke:#050105; fill:none;"/>
	<path d="M 5.0,718.0 L 7.0,720.0" style="stroke:#050105; fill:none;"/>
	<path d="M 487.0,719.0 L 486.0,721.0" style="stroke:#050105; fill:none;"/>
	<path d="M 505.0,719.0 L 501.0,720.0" style="stroke:#050105; fill:none;"/>
	<path d="M 552.0,720.0 L 555.0,720.0" style="stroke:#050105; fill:none;"/>
	<path d="M 5.0,723.0 L 5.0,725.0" style="stroke:#050105; fill:none;"/>
	<path d="M 526.0,726.0 L 530.0,725.0" style="stroke:#050105; fill:none;"/>
	<path d="M 532.0,723.0 L 532.0,724.0" style="stroke:#050105; fill:none;"/>
	<path d="M 535.0,723.0 L 535.0,725.0" style="stroke:#050105; fill:none;"/>
	<path d="M 557.0,723.0 L 558.0,723.0" style="stroke:#050105; fill:none;"/>
	<path d="M 487.0,724.0 L 487.0,725.0" style="stroke:#050105; fill:none;"/>
	<path d="M 495.0,725.0 L 495.0,727.0" style="stroke:#050105; fill:none;"/>
	<path d="M 520.0,725.0 L 513.0,733.0" style="stroke:#050105; fill:none;"/>
	<path d="M 538.0,726.0 L 544.0,727.0" style="stroke:#050105; fill:none;"/>
	<path d="M 562.0,725.0 L 563.0,726.0" style="stroke:#050105; fill:none;"/>
	<path d="M 4.0,728.0 L 5.0,729.0" style="stroke:#050105; fill:none;"/>
	<path d="M 491.0,729.0 L 491.0,730.0" style="stroke:#050105; fill:none;"/>
	<path d="M 566.0,730.0 L 569.0,730.0" style="stroke:#050105; fill:none;"/>
	<path d="M 494.0,730.0 L 494.0,731.0" style="stroke:#050105; fill:none;"/>
	<path d="M 531.0,731.0 L 531.0,732.0" style="stroke:#050105; fill:none;"/>
	<path d="M 533.0,732.0 L 541.0,734.0" style="stroke:#050105; fill:none;"/>
	<path d="M 552.0,733.0 L 554.0,741.0" style="stroke:#050105; fill:none;"/>
	<path d="M 527.0,734.0 L 528.0,734.0" style="stroke:#050105; fill:none;"/>
	<path d="M 4.0,735.0 L 4.0,736.0" style="stroke:#050105; fill:none;"/>
	<path d="M 577.0,736.0 L 581.0,740.0" style="stroke:#050105; fill:none;"/>
	<path d="M 543.0,737.0 L 543.0,738.0" style="stroke:#050105; fill:none;"/>
	<path d="M 521.0,739.0 L 526.0,739.0" style="stroke:#050105; fill:none;"/>
	<path d="M 563.0,739.0 L 564.0,740.0" style="stroke:#050105; fill:none;"/>
	<path d="M 545.0,740.0 L 545.0,741.0" style="stroke:#050105; fill:none;"/>
	<path d="M 509.0,742.0 L 509.0,753.0" style="stroke:#050105; fill:none;"/>
	<path d="M 639.0,742.0 L 641.0,743.0" style="stroke:#050105; fill:none;"/>
	<path d="M 555.0,743.0 C 554.955,750.915 553.561,756.442 549.0,763.0" style="stroke:#050105; fill:none;"/>
	<path d="M 566.0,743.0 L 567.0,746.0" style="stroke:#050105; fill:none;"/>
	<path d="M 585.0,743.0 L 588.0,745.0" style="stroke:#050105; fill:none;"/>
	<path d="M 520.0,744.0 L 526.0,755.0" style="stroke:#050105; fill:none;"/>
	<path d="M 544.0,747.0 L 543.0,750.0" style="stroke:#050105; fill:none;"/>
	<path d="M 569.0,747.0 L 570.0,748.0" style="stroke:#050105; fill:none;"/>
	<path d="M 653.0,749.0 L 652.0,751.0" style="stroke:#050105; fill:none;"/>
	<path d="M 553.0,751.0 L 554.0,751.0" style="stroke:#050105; fill:none;"/>
	<path d="M 432.0,752.0 L 431.0,753.0" style="stroke:#050105; fill:none;"/>
	<path d="M 588.0,752.0 L 588.0,753.0" style="stroke:#050105; fill:none;"/>
	<path d="M 529.0,756.0 L 530.0,756.0" style="stroke:#050105; fill:none;"/>
	<path d="M 264.0,757.0 L 265.0,757.0" style="stroke:#050105; fill:none;"/>
	<path d="M 260.0,763.0 L 260.0,765.0" style="stroke:#050105; fill:none;"/>
	<path d="M 546.0,765.0 L 543.0,769.0" style="stroke:#050105; fill:none;"/>
	<path d="M 422.0,766.0 L 423.0,766.0" style="stroke:#050105; fill:none;"/>
	<path d="M 541.0,766.0 L 529.0,769.0" style="stroke:#050105; fill:none;"/>
	<path d="M 524.0,767.0 L 524.0,768.0" style="stroke:#050105; fill:none;"/>
	<path d="M 420.0,768.0 L 422.0,768.0" style="stroke:#050105; fill:none;"/>
	<path d="M 260.0,769.0 L 260.0,770.0" style="stroke:#050105; fill:none;"/>
	<path d="M 288.0,771.0 L 284.0,773.0" style="stroke:#050105; fill:none;"/>
	<path d="M 294.0,772.0 L 298.0,773.0" style="stroke:#050105; fill:none;"/>
	<path d="M 573.0,773.0 L 571.0,774.0" style="stroke:#050105; fill:none;"/>
	<path d="M 300.0,775.0 L 302.0,775.0" style="stroke:#050105; fill:none;"/>
	<path d="M 416.0,775.0 L 416.0,776.0" style="stroke:#050105; fill:none;"/>
	<path d="M 261.0,776.0 L 262.0,778.0" style="stroke:#050105; fill:none;"/>
	<path d="M 301.0,777.0 L 304.0,779.0" style="stroke:#050105; fill:none;"/>
	<path d="M 411.0,782.0 L 411.0,783.0" style="stroke:#050105; fill:none;"/>
	<path d="M 565.0,784.0 L 565.0,785.0" style="stroke:#050105; fill:none;"/>
	<path d="M 266.0,785.0 L 267.0,786.0" style="stroke:#050105; fill:none;"/>
	<path d="M 306.0,785.0 L 306.0,789.0" style="stroke:#050105; fill:none;"/>
	<path d="M 543.0,785.0 L 544.0,786.0" style="stroke:#050105; fill:none;"/>
	<path d="M 550.0,787.0 L 551.0,787.0" style="stroke:#050105; fill:none;"/>
	<path d="M 555.0,788.0 L 562.0,788.0" style="stroke:#050105; fill:none;"/>
	<path d="M 298.0,791.0 L 301.0,792.0" style="stroke:#050105; fill:none;"/>
	<path d="M 308.0,794.0 L 309.0,796.0" style="stroke:#050105; fill:none;"/>
	<path d="M 402.0,796.0 L 401.0,797.0" style="stroke:#050105; fill:none;"/>
	<path d="M 310.0,798.0 L 311.0,800.0" style="stroke:#050105; fill:none;"/>
	<path d="M 161.0,799.0 L 163.0,802.0" style="stroke:#050105; fill:none;"/>
	<path d="M 166.0,805.0 L 168.0,807.0" style="stroke:#050105; fill:none;"/>
	<path d="M 395.0,805.0 L 395.0,806.0" style="stroke:#050105; fill:none;"/>
	<path d="M 170.0,810.0 L 171.0,810.0" style="stroke:#050105; fill:none;"/>
	<path d="M 175.0,815.0 L 175.0,817.0" style="stroke:#050105; fill:none;"/>
	<path d="M 192.0,824.0 L 192.0,825.0" style="stroke:#050105; fill:none;"/>
	<path d="M 397.0,834.0 L 397.0,836.0" style="stroke:#050105; fill:none;"/>
	<path d="M 396.0,839.0 L 395.0,846.0" style="stroke:#050105; fill:none;"/>
	<path d="M 351.0,841.0 L 354.0,840.0" style="stroke:#050105; fill:none;"/>
	<path d="M 375.0,840.0 L 375.0,844.0" style="stroke:#050105; fill:none;"/>
	<path d="M 360.0,842.0 L 363.0,842.0" style="stroke:#050105; fill:none;"/>
	<path d="M 198.0,844.0 L 199.0,844.0" style="stroke:#050105; fill:none;"/>
	<path d="M 371.0,846.0 L 371.0,849.0" style="stroke:#050105; fill:none;"/>
	<path d="M 364.0,848.0 L 365.0,848.0" style="stroke:#050105; fill:none;"/>
	<path d="M 392.0,850.0 L 390.0,854.0" style="stroke:#050105; fill:none;"/>
	<path d="M 208.0,854.0 L 211.0,857.0" style="stroke:#050105; fill:none;"/>
	<path d="M 385.0,857.0 L 379.0,861.0" style="stroke:#050105; fill:none;"/>
	<path d="M 215.0,861.0 L 216.0,863.0" style="stroke:#050105; fill:none;"/>
	<path d="M 374.0,863.0 L 375.0,864.0" style="stroke:#050105; fill:none;"/>
	<path d="M 377.0,863.0 L 378.0,864.0" style="stroke:#050105; fill:none;"/>
	<path d="M 219.0,865.0 L 219.0,866.0" style="stroke:#050105; fill:none;"/>
	<path d="M 356.0,867.0 L 358.0,866.0" style="stroke:#050105; fill:none;"/>
	<path d="M 363.0,866.0 L 365.0,867.0" style="stroke:#050105; fill:none;"/>
	<path d="M 225.0,874.0 L 226.0,874.0" style="stroke:#050105; fill:none;"/>
	<path d="M 227.0,876.0 L 233.0,882.0" style="stroke:#050105; fill:none;"/>
	<path d="M 186.0,883.0 L 187.0,884.0" style="stroke:#050105; fill:none;"/>
	<path d="M 237.0,887.0 L 245.0,893.0" style="stroke:#050105; fill:none;"/>
	<path d="M 277.0,889.0 L 276.0,890.0" style="stroke:#050105; fill:none;"/>
	<path d="M 280.0,889.0 L 280.0,890.0" style="stroke:#050105; fill:none;"/>
	<path d="M 190.0,890.0 L 194.0,895.0" style="stroke:#050105; fill:none;"/>
	<path d="M 282.0,893.0 L 283.0,895.0" style="stroke:#050105; fill:none;"/>
	<path d="M 247.0,896.0 L 251.0,897.0" style="stroke:#050105; fill:none;"/>
	<path d="M 42.0,899.0 L 43.0,899.0" style="stroke:#050105; fill:none;"/>
	<path d="M 196.0,899.0 L 197.0,900.0" style="stroke:#050105; fill:none;"/>
	<path d="M 255.0,899.0 L 268.0,905.0" style="stroke:#050105; fill:none;"/>
	<path d="M 285.0,899.0 L 287.0,905.0" style="stroke:#050105; fill:none;"/>
	<path d="M 199.0,902.0 L 198.0,903.0" style="stroke:#050105; fill:none;"/>
	<path d="M 203.0,907.0 L 206.0,911.0" style="stroke:#050105; fill:none;"/>
	<path d="M 270.0,907.0 L 271.0,907.0" style="stroke:#050105; fill:none;"/>
	<path d="M 273.0,910.0 L 276.0,914.0" style="stroke:#050105; fill:none;"/>
	<path d="M 292.0,911.0 L 292.0,913.0" style="stroke:#050105; fill:none;"/>
	<path d="M 210.0,915.0 L 213.0,918.0" style="stroke:#050105; fill:none;"/>
	<path d="M 282.0,918.0 L 284.0,920.0" style="stroke:#050105; fill:none;"/>
	<path d="M 287.0,920.0 L 289.0,923.0" style="stroke:#050105; fill:none;"/>
	<path d="M 48.0,921.0 L 48.0,922.0" style="stroke:#050105; fill:none;"/>
	<path d="M 49.0,925.0 L 49.0,926.0" style="stroke:#050105; fill:none;"/>
	<path d="M 293.0,925.0 L 294.0,925.0" style="stroke:#050105; fill:none;"/>
	<path d="M 51.0,932.0 L 52.0,934.0" style="stroke:#050105; fill:none;"/>
	<path d="M 300.0,933.0 L 301.0,933.0" style="stroke:#050105; fill:none;"/>
	<path d="M 303.0,935.0 L 305.0,937.0" style="stroke:#050105; fill:none;"/>
	<path d="M 52.0,936.0 L 53.0,936.0" style="stroke:#050105; fill:none;"/>
	<path d="M 236.0,936.0 L 237.0,936.0" style="stroke:#050105; fill:none;"/>
	<path d="M 249.0,941.0 L 248.0,942.0" style="stroke:#050105; fill:none;"/>
	<path d="M 251.0,943.0 L 252.0,943.0" style="stroke:#050105; fill:none;"/>
	<path d="M 255.0,944.0 L 256.0,944.0" style="stroke:#050105; fill:none;"/>
	<path d="M 260.0,945.0 L 265.0,946.0" style="stroke:#050105; fill:none;"/>
	<path d="M 271.0,948.0 L 272.0,948.0" style="stroke:#050105; fill:none;"/>
	<path d="M 276.0,948.0 L 276.0,949.0" style="stroke:#050105; fill:none;"/>
	<path d="M 66.0,970.0 L 68.0,970.0" style="stroke:#050105; fill:none;"/>
	<path d="M 71.0,971.0 L 73.0,971.0" style="stroke:#050105; fill:none;"/>
	<path d="M 426.0,997.0 L 431.0,995.0" style="stroke:#050105; fill:none;"/>
	<path d="M 415.0,1003.0 L 406.0,1008.0" style="stroke:#050105; fill:none;"/>
	<path d="M 397.0,1012.0 L 398.0,1013.0" style="stroke:#050105; fill:none;"/>
	<path d="M 392.0,1015.0 L 393.0,1015.0" style="stroke:#050105; fill:none;"/>
	<path d="M 367.0,1021.0 L 366.0,1023.0" style="stroke:#050105; fill:none;"/>
	<path d="M 362.0,1023.0 L 362.0,1024.0" style="stroke:#050105; fill:none;"/>
	<path d="M 357.0,1024.0 L 358.0,1024.0" style="stroke:#050105; fill:none;"/>
	<path d="M 356.0,1026.0 L 357.0,1026.0" style="stroke:#050105; fill:none;"/>
	<path d="M 349.0,1027.0 L 350.0,1027.0" style="stroke:#050105; fill:none;"/>
	<path d="M 149.0,1028.0 L 149.0,1030.0" style="stroke:#050105; fill:none;"/>
	<path d="M 315.0,1037.0 L 316.0,1037.0" style="stroke:#050105; fill:none;"/>
	<path d="M 303.0,1038.0 L 305.0,1038.0" style="stroke:#050105; fill:none;"/>
	<path d="M 237.0,1041.0 L 237.0,1042.0" style="stroke:#050105; fill:none;"/>
	<path d="M 252.0,1047.0 L 249.0,1050.0" style="stroke:#050105; fill:none;"/>
	<path d="M 244.0,1057.0 L 236.0,1065.0" style="stroke:#050105; fill:none;"/>
	<path d="M 234.0,1068.0 L 232.0,1072.0" style="stroke:#050105; fill:none;"/>
	<path d="M 230.0,1074.0 L 230.0,1075.0" style="stroke:#050105; fill:none;"/>
	<path d="M 223.0,1082.0 L 228.0,1077.0" style="stroke:#050105; fill:none;"/>
	<path d="M 216.0,1093.0 L 212.0,1100.0" style="stroke:#050105; fill:none;"/>
	<path d="M 210.0,1105.0 L 205.0,1120.0" style="stroke:#050105; fill:none;"/>
	<path d="M 205.0,1110.0 L 207.0,1110.0" style="stroke:#050105; fill:none;"/>
	<path d="M 200.0,1122.0 L 200.0,1123.0" style="stroke:#050105; fill:none;"/>
	<path d="M 203.0,1122.0 L 203.0,1123.0" style="stroke:#050105; fill:none;"/>
	<path d="M 201.0,1126.0 L 199.0,1134.0" style="stroke:#050105; fill:none;"/>
	<path d="M 196.0,1136.0 L 191.0,1143.0" style="stroke:#050105; fill:none;"/>
	<path d="M 189.0,1146.0 L 181.0,1151.0" style="stroke:#050105; fill:none;"/>
	<path d="M 172.0,1155.0 L 171.0,1156.0" style="stroke:#050105; fill:none;"/>
</svg>
