<?xml version="1.0" ?>
<svg baseProfile="full" height="1178" version="1.1" width="873" xmlns="http://www.w3.org/2000/svg" xmlns:ev="http://www.w3.org/2001/xml-events" xmlns:xlink="http://www.w3.org/1999/xlink">
	<defs/>
	<path d="M 702.0,549.0 L 702.0,551.0" style="stroke:#060106; fill:none;"/>
	<path d="M 687.0,553.0 L 690.0,553.0" style="stroke:#060106; fill:none;"/>
	<path d="M 698.0,556.0 L 699.0,556.0" style="stroke:#060106; fill:none;"/>
	<path d="M 727.0,559.0 L 727.0,560.0" style="stroke:#060106; fill:none;"/>
	<path d="M 727.0,562.0 L 727.0,563.0" style="stroke:#060106; fill:none;"/>
	<path d="M 726.0,565.0 L 726.0,567.0" style="stroke:#060106; fill:none;"/>
	<path d="M 636.0,571.0 L 637.0,571.0" style="stroke:#060106; fill:none;"/>
	<path d="M 631.0,579.0 L 632.0,579.0" style="stroke:#060106; fill:none;"/>
	<path d="M 611.0,586.0 L 611.0,587.0" style="stroke:#060106; fill:none;"/>
	<path d="M 642.0,592.0 L 644.0,594.0" style="stroke:#060106; fill:none;"/>
	<path d="M 649.0,593.0 L 653.0,593.0" style="stroke:#060106; fill:none;"/>
	<path d="M 634.0,594.0 L 636.0,595.0" style="stroke:#060106; fill:none;"/>
	<path d="M 638.0,593.0 L 641.0,594.0" style="stroke:#060106; fill:none;"/>
	<path d="M 626.0,595.0 L 628.0,595.0" style="stroke:#060106; fill:none;"/>
	<path d="M 620.0,597.0 L 623.0,597.0" style="stroke:#060106; fill:none;"/>
	<path d="M 658.0,597.0 L 659.0,598.0" style="stroke:#060106; fill:none;"/>
	<path d="M 612.0,598.0 L 610.0,600.0" style="stroke:#060106; fill:none;"/>
	<path d="M 661.0,599.0 L 662.0,599.0" style="stroke:#060106; fill:none;"/>
	<path d="M 336.0,605.0 L 337.0,605.0" style="stroke:#060106; fill:none;"/>
	<path d="M 627.0,606.0 L 627.0,607.0" style="stroke:#060106; fill:none;"/>
	<path d="M 631.0,606.0 L 632.0,606.0" style="stroke:#060106; fill:none;"/>
	<path d="M 635.0,607.0 L 638.0,607.0" style="stroke:#060106; fill:none;"/>
	<path d="M 641.0,607.0 L 644.0,609.0" style="stroke:#060106; fill:none;"/>
	<path d="M 672.0,608.0 L 673.0,609.0" style="stroke:#060106; fill:none;"/>
	<path d="M 614.0,609.0 L 615.0,609.0" style="stroke:#060106; fill:none;"/>
	<path d="M 618.0,609.0 L 622.0,611.0" style="stroke:#060106; fill:none;"/>
	<path d="M 604.0,613.0 L 609.0,611.0" style="stroke:#060106; fill:none;"/>
	<path d="M 653.0,611.0 L 652.0,612.0" style="stroke:#060106; fill:none;"/>
	<path d="M 624.0,612.0 C 632.366,616.34 635.931,623.52 639.0,632.0" style="stroke:#060106; fill:none;"/>
	<path d="M 655.0,612.0 L 659.0,617.0" style="stroke:#060106; fill:none;"/>
	<path d="M 493.0,613.0 L 493.0,614.0" style="stroke:#060106; fill:none;"/>
	<path d="M 601.0,615.0 L 601.0,616.0" style="stroke:#060106; fill:none;"/>
	<path d="M 489.0,616.0 L 486.0,618.0" style="stroke:#060106; fill:none;"/>
	<path d="M 615.0,617.0 L 620.0,620.0" style="stroke:#060106; fill:none;"/>
	<path d="M 605.0,622.0 L 607.0,618.0 L 612.0,618.0" style="stroke:#060106; fill:none;"/>
	<path d="M 482.0,622.0 C 482.0,619.478 481.705,619.63 484.0,620.0" style="stroke:#060106; fill:none;"/>
	<path d="M 595.0,619.0 L 596.0,623.0" style="stroke:#060106; fill:none;"/>
	<path d="M 597.0,619.0 L 598.0,619.0" style="stroke:#060106; fill:none;"/>
	<path d="M 69.0,628.0 L 80.0,620.0" style="stroke:#060106; fill:none;"/>
	<path d="M 548.0,621.0 L 548.0,622.0" style="stroke:#060106; fill:none;"/>
	<path d="M 569.0,621.0 L 568.0,622.0" style="stroke:#060106; fill:none;"/>
	<path d="M 404.0,622.0 L 400.0,626.0 L 400.0,624.0" style="stroke:#060106; fill:none;"/>
	<path d="M 464.0,622.0 L 465.0,623.0" style="stroke:#060106; fill:none;"/>
	<path d="M 622.0,622.0 L 625.0,628.0" style="stroke:#060106; fill:none;"/>
	<path d="M 410.0,623.0 L 412.0,625.0" style="stroke:#060106; fill:none;"/>
	<path d="M 474.0,625.0 L 476.0,624.0" style="stroke:#060106; fill:none;"/>
	<path d="M 583.0,623.0 L 582.0,625.0" style="stroke:#060106; fill:none;"/>
	<path d="M 662.0,623.0 L 663.0,626.0" style="stroke:#060106; fill:none;"/>
	<path d="M 579.0,624.0 L 579.0,625.0" style="stroke:#060106; fill:none;"/>
	<path d="M 390.0,627.0 L 393.0,626.0" style="stroke:#060106; fill:none;"/>
	<path d="M 398.0,625.0 L 397.0,626.0" style="stroke:#060106; fill:none;"/>
	<path d="M 466.0,625.0 L 470.0,627.0" style="stroke:#060106; fill:none;"/>
	<path d="M 605.0,625.0 L 606.0,626.0" style="stroke:#060106; fill:none;"/>
	<path d="M 545.0,626.0 L 543.0,628.0" style="stroke:#060106; fill:none;"/>
	<path d="M 575.0,626.0 L 575.0,627.0" style="stroke:#060106; fill:none;"/>
	<path d="M 591.0,626.0 L 591.0,631.0" style="stroke:#060106; fill:none;"/>
	<path d="M 377.0,627.0 L 378.0,627.0" style="stroke:#060106; fill:none;"/>
	<path d="M 380.0,627.0 L 381.0,627.0" style="stroke:#060106; fill:none;"/>
	<path d="M 581.0,627.0 L 579.0,628.0" style="stroke:#060106; fill:none;"/>
	<path d="M 422.0,628.0 L 426.0,631.0" style="stroke:#060106; fill:none;"/>
	<path d="M 664.0,628.0 L 664.0,629.0" style="stroke:#060106; fill:none;"/>
	<path d="M 331.0,629.0 L 333.0,630.0" style="stroke:#060106; fill:none;"/>
	<path d="M 345.0,629.0 L 348.0,629.0" style="stroke:#060106; fill:none;"/>
	<path d="M 363.0,629.0 L 363.0,630.0" style="stroke:#060106; fill:none;"/>
	<path d="M 367.0,629.0 L 368.0,633.0" style="stroke:#060106; fill:none;"/>
	<path d="M 402.0,629.0 L 402.0,630.0" style="stroke:#060106; fill:none;"/>
	<path d="M 70.0,630.0 L 70.0,632.0" style="stroke:#060106; fill:none;"/>
	<path d="M 319.0,631.0 L 320.0,632.0" style="stroke:#060106; fill:none;"/>
	<path d="M 349.0,631.0 L 350.0,631.0" style="stroke:#060106; fill:none;"/>
	<path d="M 404.0,631.0 L 404.0,632.0" style="stroke:#060106; fill:none;"/>
	<path d="M 592.0,632.0 L 593.0,636.0" style="stroke:#060106; fill:none;"/>
	<path d="M 604.0,632.0 L 602.0,635.0" style="stroke:#060106; fill:none;"/>
	<path d="M 332.0,633.0 L 333.0,643.0" style="stroke:#060106; fill:none;"/>
	<path d="M 378.0,633.0 L 377.0,636.0" style="stroke:#060106; fill:none;"/>
	<path d="M 430.0,633.0 L 434.0,638.0" style="stroke:#060106; fill:none;"/>
	<path d="M 80.0,634.0 L 81.0,634.0" style="stroke:#060106; fill:none;"/>
	<path d="M 341.0,634.0 L 342.0,634.0" style="stroke:#060106; fill:none;"/>
	<path d="M 576.0,634.0 L 575.0,638.0" style="stroke:#060106; fill:none;"/>
	<path d="M 69.0,637.0 L 71.0,635.0" style="stroke:#060106; fill:none;"/>
	<path d="M 351.0,635.0 L 350.0,638.0" style="stroke:#060106; fill:none;"/>
	<path d="M 407.0,635.0 L 408.0,635.0" style="stroke:#060106; fill:none;"/>
	<path d="M 637.0,635.0 L 638.0,638.0" style="stroke:#060106; fill:none;"/>
	<path d="M 591.0,636.0 L 591.0,637.0" style="stroke:#060106; fill:none;"/>
	<path d="M 346.0,639.0 L 348.0,637.0" style="stroke:#060106; fill:none;"/>
	<path d="M 535.0,637.0 L 536.0,637.0" style="stroke:#060106; fill:none;"/>
	<path d="M 343.0,638.0 L 349.0,646.0" style="stroke:#060106; fill:none;"/>
	<path d="M 411.0,638.0 L 414.0,639.0" style="stroke:#060106; fill:none;"/>
	<path d="M 604.0,638.0 C 606.784,643.317 611.495,643.445 617.0,643.0" style="stroke:#060106; fill:none;"/>
	<path d="M 86.0,639.0 L 88.0,640.0" style="stroke:#060106; fill:none;"/>
	<path d="M 296.0,639.0 L 297.0,639.0" style="stroke:#060106; fill:none;"/>
	<path d="M 378.0,639.0 L 378.0,644.0" style="stroke:#060106; fill:none;"/>
	<path d="M 363.0,641.0 L 366.0,640.0" style="stroke:#060106; fill:none;"/>
	<path d="M 635.0,640.0 L 635.0,643.0" style="stroke:#060106; fill:none;"/>
	<path d="M 664.0,640.0 L 664.0,642.0 L 664.0,640.0" style="stroke:#060106; fill:none;"/>
	<path d="M 532.0,642.0 L 533.0,643.0" style="stroke:#060106; fill:none;"/>
	<path d="M 69.0,643.0 L 69.0,655.0" style="stroke:#060106; fill:none;"/>
	<path d="M 95.0,643.0 L 95.0,644.0" style="stroke:#060106; fill:none;"/>
	<path d="M 359.0,644.0 L 362.0,643.0" style="stroke:#060106; fill:none;"/>
	<path d="M 415.0,643.0 L 415.0,645.0" style="stroke:#060106; fill:none;"/>
	<path d="M 353.0,644.0 L 357.0,645.0" style="stroke:#060106; fill:none;"/>
	<path d="M 573.0,644.0 L 576.0,646.0" style="stroke:#060106; fill:none;"/>
	<path d="M 594.0,644.0 L 603.0,654.0" style="stroke:#060106; fill:none;"/>
	<path d="M 97.0,645.0 L 103.0,649.0" style="stroke:#060106; fill:none;"/>
	<path d="M 332.0,645.0 L 342.0,654.0" style="stroke:#060106; fill:none;"/>
	<path d="M 351.0,645.0 L 352.0,646.0" style="stroke:#060106; fill:none;"/>
	<path d="M 424.0,645.0 L 424.0,647.0" style="stroke:#060106; fill:none;"/>
	<path d="M 532.0,645.0 L 531.0,647.0" style="stroke:#060106; fill:none;"/>
	<path d="M 563.0,645.0 L 564.0,648.0" style="stroke:#060106; fill:none;"/>
	<path d="M 660.0,645.0 L 661.0,645.0" style="stroke:#060106; fill:none;"/>
	<path d="M 318.0,646.0 L 322.0,649.0" style="stroke:#060106; fill:none;"/>
	<path d="M 633.0,646.0 L 630.0,650.0" style="stroke:#060106; fill:none;"/>
	<path d="M 408.0,648.0 L 408.0,650.0" style="stroke:#060106; fill:none;"/>
	<path d="M 410.0,648.0 L 410.0,649.0" style="stroke:#060106; fill:none;"/>
	<path d="M 413.0,648.0 L 415.0,650.0" style="stroke:#060106; fill:none;"/>
	<path d="M 656.0,648.0 L 657.0,648.0" style="stroke:#060106; fill:none;"/>
	<path d="M 567.0,649.0 L 570.0,650.0" style="stroke:#060106; fill:none;"/>
	<path d="M 576.0,649.0 L 577.0,650.0" style="stroke:#060106; fill:none;"/>
	<path d="M 587.0,649.0 L 591.0,650.0" style="stroke:#060106; fill:none;"/>
	<path d="M 326.0,650.0 L 330.0,653.0" style="stroke:#060106; fill:none;"/>
	<path d="M 370.0,650.0 L 369.0,654.0" style="stroke:#060106; fill:none;"/>
	<path d="M 393.0,650.0 L 394.0,650.0" style="stroke:#060106; fill:none;"/>
	<path d="M 104.0,651.0 L 105.0,652.0" style="stroke:#060106; fill:none;"/>
	<path d="M 627.0,651.0 L 628.0,651.0" style="stroke:#060106; fill:none;"/>
	<path d="M 652.0,651.0 L 649.0,652.0" style="stroke:#060106; fill:none;"/>
	<path d="M 369.0,652.0 L 370.0,653.0" style="stroke:#060106; fill:none;"/>
	<path d="M 594.0,652.0 L 595.0,652.0" style="stroke:#060106; fill:none;"/>
	<path d="M 644.0,653.0 L 646.0,653.0" style="stroke:#060106; fill:none;"/>
	<path d="M 623.0,654.0 L 626.0,655.0" style="stroke:#060106; fill:none;"/>
	<path d="M 630.0,655.0 L 632.0,655.0" style="stroke:#060106; fill:none;"/>
	<path d="M 337.0,656.0 L 337.0,657.0" style="stroke:#060106; fill:none;"/>
	<path d="M 72.0,659.0 L 72.0,660.0" style="stroke:#060106; fill:none;"/>
	<path d="M 125.0,659.0 L 125.0,667.0" style="stroke:#060106; fill:none;"/>
	<path d="M 123.0,660.0 L 123.0,661.0" style="stroke:#060106; fill:none;"/>
	<path d="M 73.0,664.0 L 74.0,667.0" style="stroke:#060106; fill:none;"/>
	<path d="M 72.0,669.0 L 74.0,677.0" style="stroke:#060106; fill:none;"/>
	<path d="M 86.0,670.0 L 86.0,671.0" style="stroke:#060106; fill:none;"/>
	<path d="M 129.0,670.0 C 127.328,675.105 129.664,679.071 133.0,683.0" style="stroke:#060106; fill:none;"/>
	<path d="M 130.0,673.0 L 129.0,674.0" style="stroke:#060106; fill:none;"/>
	<path d="M 88.0,675.0 L 88.0,676.0" style="stroke:#060106; fill:none;"/>
	<path d="M 76.0,680.0 L 76.0,682.0 L 76.0,680.0" style="stroke:#060106; fill:none;"/>
	<path d="M 76.0,682.0 L 75.0,689.0" style="stroke:#060106; fill:none;"/>
	<path d="M 134.0,687.0 L 145.0,704.0" style="stroke:#060106; fill:none;"/>
	<path d="M 78.0,691.0 L 78.0,693.0" style="stroke:#060106; fill:none;"/>
	<path d="M 91.0,694.0 L 92.0,696.0" style="stroke:#060106; fill:none;"/>
	<path d="M 98.0,697.0 L 98.0,698.0" style="stroke:#060106; fill:none;"/>
	<path d="M 81.0,700.0 L 83.0,706.0" style="stroke:#060106; fill:none;"/>
	<path d="M 98.0,700.0 L 99.0,700.0" style="stroke:#060106; fill:none;"/>
	<path d="M 91.0,702.0 L 93.0,704.0" style="stroke:#060106; fill:none;"/>
	<path d="M 85.0,713.0 L 88.0,717.0" style="stroke:#060106; fill:none;"/>
	<path d="M 85.0,715.0 L 85.0,716.0" style="stroke:#060106; fill:none;"/>
	<path d="M 549.0,716.0 L 550.0,716.0" style="stroke:#060106; fill:none;"/>
	<path d="M 87.0,721.0 L 94.0,738.0" style="stroke:#060106; fill:none;"/>
	<path d="M 101.0,720.0 L 102.0,720.0" style="stroke:#060106; fill:none;"/>
	<path d="M 550.0,721.0 L 551.0,722.0" style="stroke:#060106; fill:none;"/>
	<path d="M 136.0,722.0 L 137.0,722.0" style="stroke:#060106; fill:none;"/>
	<path d="M 87.0,723.0 L 88.0,723.0" style="stroke:#060106; fill:none;"/>
	<path d="M 550.0,724.0 L 551.0,724.0" style="stroke:#060106; fill:none;"/>
	<path d="M 104.0,725.0 L 103.0,727.0" style="stroke:#060106; fill:none;"/>
	<path d="M 88.0,726.0 L 89.0,727.0" style="stroke:#060106; fill:none;"/>
	<path d="M 552.0,726.0 L 551.0,727.0" style="stroke:#060106; fill:none;"/>
	<path d="M 106.0,732.0 L 107.0,735.0" style="stroke:#060106; fill:none;"/>
	<path d="M 553.0,735.0 L 553.0,736.0" style="stroke:#060106; fill:none;"/>
	<path d="M 94.0,740.0 L 93.0,743.0" style="stroke:#060106; fill:none;"/>
	<path d="M 134.0,741.0 L 134.0,749.0" style="stroke:#060106; fill:none;"/>
	<path d="M 554.0,744.0 L 555.0,744.0" style="stroke:#060106; fill:none;"/>
	<path d="M 94.0,748.0 C 97.361,750.446 100.145,757.306 98.0,761.0" style="stroke:#060106; fill:none;"/>
	<path d="M 556.0,760.0 L 559.0,765.0" style="stroke:#060106; fill:none;"/>
	<path d="M 558.0,760.0 L 557.0,761.0" style="stroke:#060106; fill:none;"/>
	<path d="M 102.0,762.0 L 101.0,767.0 L 102.0,768.0 L 101.0,764.0" style="stroke:#060106; fill:none;"/>
	<path d="M 100.0,763.0 L 101.0,764.0" style="stroke:#060106; fill:none;"/>
	<path d="M 99.0,766.0 L 103.0,765.0" style="stroke:#060106; fill:none;"/>
	<path d="M 104.0,768.0 L 108.0,775.0 L 106.0,774.0" style="stroke:#060106; fill:none;"/>
	<path d="M 100.0,769.0 L 100.0,770.0" style="stroke:#060106; fill:none;"/>
	<path d="M 559.0,771.0 L 560.0,772.0" style="stroke:#060106; fill:none;"/>
	<path d="M 107.0,776.0 L 112.0,787.0" style="stroke:#060106; fill:none;"/>
	<path d="M 560.0,777.0 L 560.0,778.0" style="stroke:#060106; fill:none;"/>
	<path d="M 577.0,785.0 L 578.0,787.0" style="stroke:#060106; fill:none;"/>
	<path d="M 113.0,789.0 L 115.0,794.0 L 115.0,792.0" style="stroke:#060106; fill:none;"/>
	<path d="M 582.0,791.0 L 587.0,800.0" style="stroke:#060106; fill:none;"/>
	<path d="M 113.0,794.0 L 114.0,795.0" style="stroke:#060106; fill:none;"/>
	<path d="M 116.0,796.0 L 123.0,806.0" style="stroke:#060106; fill:none;"/>
	<path d="M 121.0,804.0 L 120.0,805.0" style="stroke:#060106; fill:none;"/>
	<path d="M 589.0,804.0 L 589.0,810.0" style="stroke:#060106; fill:none;"/>
	<path d="M 126.0,808.0 L 141.0,815.0" style="stroke:#060106; fill:none;"/>
	<path d="M 567.0,810.0 L 572.0,813.0" style="stroke:#060106; fill:none;"/>
	<path d="M 145.0,815.0 L 149.0,814.0" style="stroke:#060106; fill:none;"/>
	<path d="M 589.0,814.0 L 590.0,818.0" style="stroke:#060106; fill:none;"/>
	<path d="M 435.0,815.0 L 436.0,816.0" style="stroke:#060106; fill:none;"/>
	<path d="M 571.0,817.0 L 573.0,819.0" style="stroke:#060106; fill:none;"/>
	<path d="M 461.0,829.0 C 458.661,822.644 462.254,817.908 469.0,818.0" style="stroke:#060106; fill:none;"/>
	<path d="M 473.0,818.0 L 476.0,817.0" style="stroke:#060106; fill:none;"/>
	<path d="M 483.0,821.0 L 484.0,822.0" style="stroke:#060106; fill:none;"/>
	<path d="M 589.0,821.0 L 589.0,823.0" style="stroke:#060106; fill:none;"/>
	<path d="M 434.0,822.0 L 431.0,826.0" style="stroke:#060106; fill:none;"/>
	<path d="M 566.0,824.0 L 568.0,823.0" style="stroke:#060106; fill:none;"/>
	<path d="M 157.0,824.0 L 157.0,825.0" style="stroke:#060106; fill:none;"/>
	<path d="M 433.0,825.0 L 433.0,827.0" style="stroke:#060106; fill:none;"/>
	<path d="M 490.0,825.0 L 496.0,827.0" style="stroke:#060106; fill:none;"/>
	<path d="M 553.0,827.0 L 555.0,825.0" style="stroke:#060106; fill:none;"/>
	<path d="M 174.0,827.0 L 175.0,828.0" style="stroke:#060106; fill:none;"/>
	<path d="M 585.0,827.0 L 587.0,827.0" style="stroke:#060106; fill:none;"/>
	<path d="M 484.0,828.0 L 479.0,830.0" style="stroke:#060106; fill:none;"/>
	<path d="M 433.0,830.0 L 433.0,832.0" style="stroke:#060106; fill:none;"/>
	<path d="M 463.0,830.0 L 467.0,831.0" style="stroke:#060106; fill:none;"/>
	<path d="M 583.0,830.0 L 582.0,831.0" style="stroke:#060106; fill:none;"/>
	<path d="M 158.0,831.0 L 159.0,832.0" style="stroke:#060106; fill:none;"/>
	<path d="M 547.0,831.0 L 547.0,832.0" style="stroke:#060106; fill:none;"/>
	<path d="M 470.0,832.0 L 470.0,833.0" style="stroke:#060106; fill:none;"/>
	<path d="M 158.0,835.0 L 160.0,834.0" style="stroke:#060106; fill:none;"/>
	<path d="M 432.0,835.0 L 435.0,837.0" style="stroke:#060106; fill:none;"/>
	<path d="M 160.0,836.0 L 159.0,837.0" style="stroke:#060106; fill:none;"/>
	<path d="M 579.0,836.0 L 582.0,836.0" style="stroke:#060106; fill:none;"/>
	<path d="M 161.0,839.0 L 164.0,847.0" style="stroke:#060106; fill:none;"/>
	<path d="M 576.0,841.0 L 573.0,844.0" style="stroke:#060106; fill:none;"/>
	<path d="M 438.0,842.0 L 439.0,842.0" style="stroke:#060106; fill:none;"/>
	<path d="M 444.0,846.0 L 446.0,847.0" style="stroke:#060106; fill:none;"/>
	<path d="M 170.0,868.0 L 172.0,869.0" style="stroke:#060106; fill:none;"/>
	<path d="M 719.0,868.0 L 719.0,869.0" style="stroke:#060106; fill:none;"/>
	<path d="M 719.0,871.0 L 719.0,873.0" style="stroke:#060106; fill:none;"/>
	<path d="M 174.0,879.0 L 176.0,879.0" style="stroke:#060106; fill:none;"/>
	<path d="M 718.0,879.0 L 717.0,885.0" style="stroke:#060106; fill:none;"/>
	<path d="M 177.0,881.0 L 179.0,890.0" style="stroke:#060106; fill:none;"/>
	<path d="M 177.0,894.0 L 177.0,904.0" style="stroke:#060106; fill:none;"/>
	<path d="M 715.0,893.0 L 716.0,894.0" style="stroke:#060106; fill:none;"/>
	<path d="M 181.0,897.0 L 186.0,909.0" style="stroke:#060106; fill:none;"/>
	<path d="M 713.0,897.0 L 714.0,897.0" style="stroke:#060106; fill:none;"/>
	<path d="M 711.0,899.0 L 712.0,906.0" style="stroke:#060106; fill:none;"/>
	<path d="M 177.0,907.0 L 176.0,908.0" style="stroke:#060106; fill:none;"/>
	<path d="M 177.0,910.0 L 178.0,914.0" style="stroke:#060106; fill:none;"/>
	<path d="M 708.0,910.0 L 707.0,913.0" style="stroke:#060106; fill:none;"/>
	<path d="M 189.0,913.0 L 191.0,922.0" style="stroke:#060106; fill:none;"/>
	<path d="M 535.0,913.0 L 535.0,915.0" style="stroke:#060106; fill:none;"/>
	<path d="M 523.0,917.0 L 526.0,917.0" style="stroke:#060106; fill:none;"/>
	<path d="M 550.0,917.0 L 553.0,918.0" style="stroke:#060106; fill:none;"/>
	<path d="M 707.0,916.0 L 708.0,916.0" style="stroke:#060106; fill:none;"/>
	<path d="M 178.0,918.0 L 176.0,931.0" style="stroke:#060106; fill:none;"/>
	<path d="M 561.0,919.0 L 563.0,920.0" style="stroke:#060106; fill:none;"/>
	<path d="M 705.0,919.0 L 707.0,919.0" style="stroke:#060106; fill:none;"/>
	<path d="M 703.0,922.0 L 705.0,921.0" style="stroke:#060106; fill:none;"/>
	<path d="M 192.0,924.0 L 195.0,925.0" style="stroke:#060106; fill:none;"/>
	<path d="M 193.0,925.0 L 191.0,927.0" style="stroke:#060106; fill:none;"/>
	<path d="M 192.0,926.0 L 199.0,931.0" style="stroke:#060106; fill:none;"/>
	<path d="M 575.0,927.0 L 574.0,928.0" style="stroke:#060106; fill:none;"/>
	<path d="M 586.0,928.0 L 588.0,928.0" style="stroke:#060106; fill:none;"/>
	<path d="M 593.0,927.0 L 593.0,928.0" style="stroke:#060106; fill:none;"/>
	<path d="M 581.0,928.0 L 582.0,930.0" style="stroke:#060106; fill:none;"/>
	<path d="M 564.0,929.0 L 566.0,930.0" style="stroke:#060106; fill:none;"/>
	<path d="M 196.0,930.0 L 198.0,936.0 L 200.0,934.0" style="stroke:#060106; fill:none;"/>
	<path d="M 555.0,933.0 L 562.0,931.0" style="stroke:#060106; fill:none;"/>
	<path d="M 532.0,934.0 L 540.0,932.0" style="stroke:#060106; fill:none;"/>
	<path d="M 548.0,933.0 L 548.0,931.0 L 552.0,933.0" style="stroke:#060106; fill:none;"/>
	<path d="M 177.0,932.0 L 176.0,935.0" style="stroke:#060106; fill:none;"/>
	<path d="M 194.0,932.0 L 195.0,933.0" style="stroke:#060106; fill:none;"/>
	<path d="M 397.0,933.0 L 400.0,933.0" style="stroke:#060106; fill:none;"/>
	<path d="M 389.0,933.0 L 391.0,933.0" style="stroke:#060106; fill:none;"/>
	<path d="M 403.0,933.0 L 405.0,934.0" style="stroke:#060106; fill:none;"/>
	<path d="M 197.0,934.0 L 196.0,935.0" style="stroke:#060106; fill:none;"/>
	<path d="M 200.0,936.0 L 204.0,946.0 L 201.0,943.0" style="stroke:#060106; fill:none;"/>
	<path d="M 526.0,936.0 L 527.0,936.0" style="stroke:#060106; fill:none;"/>
	<path d="M 445.0,938.0 L 449.0,938.0" style="stroke:#060106; fill:none;"/>
	<path d="M 453.0,938.0 L 455.0,939.0" style="stroke:#060106; fill:none;"/>
	<path d="M 457.0,937.0 L 458.0,937.0" style="stroke:#060106; fill:none;"/>
	<path d="M 462.0,939.0 L 466.0,938.0" style="stroke:#060106; fill:none;"/>
	<path d="M 473.0,938.0 L 475.0,938.0" style="stroke:#060106; fill:none;"/>
	<path d="M 519.0,939.0 L 522.0,938.0" style="stroke:#060106; fill:none;"/>
	<path d="M 696.0,938.0 L 697.0,938.0" style="stroke:#060106; fill:none;"/>
	<path d="M 177.0,939.0 L 176.0,944.0" style="stroke:#060106; fill:none;"/>
	<path d="M 485.0,939.0 L 488.0,940.0" style="stroke:#060106; fill:none;"/>
	<path d="M 492.0,940.0 L 499.0,940.0" style="stroke:#060106; fill:none;"/>
	<path d="M 511.0,939.0 L 512.0,941.0 L 516.0,939.0" style="stroke:#060106; fill:none;"/>
	<path d="M 501.0,940.0 L 501.0,941.0" style="stroke:#060106; fill:none;"/>
	<path d="M 505.0,940.0 L 508.0,941.0" style="stroke:#060106; fill:none;"/>
	<path d="M 692.0,943.0 L 692.0,944.0" style="stroke:#060106; fill:none;"/>
	<path d="M 177.0,946.0 L 178.0,946.0" style="stroke:#060106; fill:none;"/>
	<path d="M 177.0,948.0 L 176.0,951.0 L 175.0,949.0" style="stroke:#060106; fill:none;"/>
	<path d="M 209.0,951.0 L 206.0,956.0" style="stroke:#060106; fill:none;"/>
	<path d="M 177.0,952.0 L 176.0,974.0" style="stroke:#060106; fill:none;"/>
	<path d="M 204.0,952.0 L 206.0,953.0" style="stroke:#060106; fill:none;"/>
	<path d="M 688.0,952.0 L 688.0,955.0" style="stroke:#060106; fill:none;"/>
	<path d="M 212.0,955.0 L 212.0,957.0 L 212.0,955.0" style="stroke:#060106; fill:none;"/>
	<path d="M 175.0,956.0 L 175.0,957.0" style="stroke:#060106; fill:none;"/>
	<path d="M 577.0,956.0 L 577.0,957.0" style="stroke:#060106; fill:none;"/>
	<path d="M 177.0,958.0 L 174.0,961.0" style="stroke:#060106; fill:none;"/>
	<path d="M 685.0,958.0 L 686.0,958.0" style="stroke:#060106; fill:none;"/>
	<path d="M 176.0,959.0 L 176.0,961.0" style="stroke:#060106; fill:none;"/>
	<path d="M 209.0,959.0 L 209.0,960.0" style="stroke:#060106; fill:none;"/>
	<path d="M 573.0,959.0 L 572.0,960.0" style="stroke:#060106; fill:none;"/>
	<path d="M 684.0,960.0 L 684.0,961.0" style="stroke:#060106; fill:none;"/>
	<path d="M 214.0,961.0 L 215.0,963.0" style="stroke:#060106; fill:none;"/>
	<path d="M 566.0,962.0 L 558.0,968.0" style="stroke:#060106; fill:none;"/>
	<path d="M 176.0,963.0 L 175.0,964.0" style="stroke:#060106; fill:none;"/>
	<path d="M 683.0,963.0 L 683.0,965.0" style="stroke:#060106; fill:none;"/>
	<path d="M 219.0,967.0 L 219.0,969.0" style="stroke:#060106; fill:none;"/>
	<path d="M 214.0,970.0 L 213.0,972.0" style="stroke:#060106; fill:none;"/>
	<path d="M 554.0,970.0 L 554.0,971.0" style="stroke:#060106; fill:none;"/>
	<path d="M 552.0,971.0 L 552.0,972.0" style="stroke:#060106; fill:none;"/>
	<path d="M 547.0,972.0 L 546.0,975.0" style="stroke:#060106; fill:none;"/>
	<path d="M 216.0,974.0 L 217.0,974.0" style="stroke:#060106; fill:none;"/>
	<path d="M 539.0,975.0 L 540.0,976.0" style="stroke:#060106; fill:none;"/>
	<path d="M 217.0,976.0 L 217.0,977.0" style="stroke:#060106; fill:none;"/>
	<path d="M 474.0,976.0 L 478.0,977.0" style="stroke:#060106; fill:none;"/>
	<path d="M 533.0,976.0 L 534.0,976.0" style="stroke:#060106; fill:none;"/>
	<path d="M 480.0,977.0 L 481.0,977.0" style="stroke:#060106; fill:none;"/>
	<path d="M 174.0,978.0 L 174.0,979.0" style="stroke:#060106; fill:none;"/>
	<path d="M 490.0,978.0 L 489.0,980.0" style="stroke:#060106; fill:none;"/>
	<path d="M 176.0,979.0 L 176.0,980.0" style="stroke:#060106; fill:none;"/>
	<path d="M 492.0,979.0 L 493.0,979.0" style="stroke:#060106; fill:none;"/>
	<path d="M 495.0,979.0 L 496.0,979.0" style="stroke:#060106; fill:none;"/>
	<path d="M 506.0,979.0 L 508.0,980.0" style="stroke:#060106; fill:none;"/>
	<path d="M 510.0,979.0 L 510.0,980.0" style="stroke:#060106; fill:none;"/>
	<path d="M 499.0,980.0 L 502.0,980.0" style="stroke:#060106; fill:none;"/>
	<path d="M 173.0,984.0 L 176.0,984.0" style="stroke:#060106; fill:none;"/>
	<path d="M 221.0,984.0 L 222.0,986.0" style="stroke:#060106; fill:none;"/>
	<path d="M 175.0,986.0 L 175.0,989.0" style="stroke:#060106; fill:none;"/>
	<path d="M 224.0,989.0 L 226.0,988.0" style="stroke:#060106; fill:none;"/>
	<path d="M 226.0,990.0 L 227.0,990.0" style="stroke:#060106; fill:none;"/>
	<path d="M 666.0,990.0 L 667.0,991.0" style="stroke:#060106; fill:none;"/>
	<path d="M 175.0,991.0 L 175.0,993.0" style="stroke:#060106; fill:none;"/>
	<path d="M 228.0,993.0 L 230.0,993.0" style="stroke:#060106; fill:none;"/>
	<path d="M 247.0,993.0 L 248.0,995.0" style="stroke:#060106; fill:none;"/>
	<path d="M 173.0,996.0 L 175.0,997.0" style="stroke:#060106; fill:none;"/>
	<path d="M 233.0,997.0 L 234.0,999.0" style="stroke:#060106; fill:none;"/>
	<path d="M 659.0,1000.0 L 659.0,1001.0" style="stroke:#060106; fill:none;"/>
	<path d="M 173.0,1003.0 L 174.0,1001.0 L 173.0,1006.0" style="stroke:#060106; fill:none;"/>
	<path d="M 174.0,1011.0 L 175.0,1009.0" style="stroke:#060106; fill:none;"/>
	<path d="M 175.0,1017.0 L 174.0,1013.0" style="stroke:#060106; fill:none;"/>
	<path d="M 647.0,1013.0 L 648.0,1014.0" style="stroke:#060106; fill:none;"/>
	<path d="M 174.0,1020.0 L 173.0,1027.0" style="stroke:#060106; fill:none;"/>
	<path d="M 170.0,1028.0 L 169.0,1029.0" style="stroke:#060106; fill:none;"/>
	<path d="M 164.0,1036.0 L 170.0,1032.0" style="stroke:#060106; fill:none;"/>
	<path d="M 163.0,1040.0 L 164.0,1041.0" style="stroke:#060106; fill:none;"/>
	<path d="M 620.0,1042.0 L 620.0,1043.0" style="stroke:#060106; fill:none;"/>
	<path d="M 629.0,1043.0 L 630.0,1047.0" style="stroke:#060106; fill:none;"/>
	<path d="M 157.0,1052.0 L 159.0,1047.0 L 161.0,1049.0" style="stroke:#060106; fill:none;"/>
	<path d="M 614.0,1050.0 L 615.0,1051.0" style="stroke:#060106; fill:none;"/>
	<path d="M 155.0,1054.0 L 153.0,1059.0 L 153.0,1057.0" style="stroke:#060106; fill:none;"/>
	<path d="M 630.0,1056.0 L 630.0,1058.0 L 630.0,1056.0" style="stroke:#060106; fill:none;"/>
	<path d="M 151.0,1060.0 L 151.0,1062.0" style="stroke:#060106; fill:none;"/>
	<path d="M 631.0,1061.0 L 630.0,1065.0" style="stroke:#060106; fill:none;"/>
	<path d="M 149.0,1062.0 L 148.0,1066.0" style="stroke:#060106; fill:none;"/>
	<path d="M 131.0,1068.0 L 132.0,1068.0" style="stroke:#060106; fill:none;"/>
	<path d="M 145.0,1068.0 L 143.0,1072.0" style="stroke:#060106; fill:none;"/>
	<path d="M 124.0,1070.0 L 129.0,1069.0" style="stroke:#060106; fill:none;"/>
	<path d="M 135.0,1069.0 L 137.0,1070.0" style="stroke:#060106; fill:none;"/>
	<path d="M 631.0,1071.0 L 632.0,1075.0" style="stroke:#060106; fill:none;"/>
	<path d="M 134.0,1073.0 L 136.0,1074.0" style="stroke:#060106; fill:none;"/>
	<path d="M 129.0,1074.0 L 128.0,1077.0" style="stroke:#060106; fill:none;"/>
	<path d="M 139.0,1074.0 L 141.0,1074.0" style="stroke:#060106; fill:none;"/>
	<path d="M 127.0,1075.0 L 128.0,1075.0" style="stroke:#060106; fill:none;"/>
	<path d="M 134.0,1077.0 L 128.0,1082.0" style="stroke:#060106; fill:none;"/>
	<path d="M 633.0,1078.0 L 633.0,1079.0" style="stroke:#060106; fill:none;"/>
	<path d="M 125.0,1079.0 L 124.0,1080.0" style="stroke:#060106; fill:none;"/>
	<path d="M 633.0,1082.0 L 632.0,1084.0" style="stroke:#060106; fill:none;"/>
	<path d="M 124.0,1084.0 L 124.0,1088.0" style="stroke:#060106; fill:none;"/>
	<path d="M 633.0,1087.0 L 633.0,1089.0" style="stroke:#060106; fill:none;"/>
	<path d="M 125.0,1090.0 L 124.0,1091.0" style="stroke:#060106; fill:none;"/>
	<path d="M 383.0,1091.0 L 384.0,1092.0" style="stroke:#060106; fill:none;"/>
	<path d="M 391.0,1096.0 L 391.0,1097.0" style="stroke:#060106; fill:none;"/>
	<path d="M 635.0,1098.0 L 635.0,1099.0" style="stroke:#060106; fill:none;"/>
	<path d="M 128.0,1099.0 L 131.0,1109.0" style="stroke:#060106; fill:none;"/>
	<path d="M 400.0,1100.0 L 400.0,1102.0" style="stroke:#060106; fill:none;"/>
	<path d="M 543.0,1102.0 L 544.0,1104.0" style="stroke:#060106; fill:none;"/>
	<path d="M 635.0,1102.0 L 640.0,1111.0" style="stroke:#060106; fill:none;"/>
	<path d="M 406.0,1104.0 L 407.0,1105.0" style="stroke:#060106; fill:none;"/>
	<path d="M 410.0,1105.0 L 409.0,1106.0" style="stroke:#060106; fill:none;"/>
	<path d="M 412.0,1106.0 L 411.0,1107.0" style="stroke:#060106; fill:none;"/>
	<path d="M 639.0,1106.0 L 639.0,1107.0" style="stroke:#060106; fill:none;"/>
	<path d="M 414.0,1109.0 L 416.0,1109.0" style="stroke:#060106; fill:none;"/>
	<path d="M 420.0,1109.0 L 419.0,1110.0" style="stroke:#060106; fill:none;"/>
	<path d="M 136.0,1114.0 L 144.0,1125.0" style="stroke:#060106; fill:none;"/>
	<path d="M 429.0,1114.0 L 430.0,1114.0" style="stroke:#060106; fill:none;"/>
	<path d="M 640.0,1114.0 L 641.0,1117.0 L 640.0,1114.0" style="stroke:#060106; fill:none;"/>
	<path d="M 448.0,1117.0 L 447.0,1118.0" style="stroke:#060106; fill:none;"/>
	<path d="M 641.0,1117.0 L 643.0,1119.0 L 641.0,1121.0 L 642.0,1118.0" style="stroke:#060106; fill:none;"/>
	<path d="M 443.0,1118.0 L 443.0,1121.0" style="stroke:#060106; fill:none;"/>
	<path d="M 137.0,1120.0 L 138.0,1120.0" style="stroke:#060106; fill:none;"/>
	<path d="M 494.0,1120.0 L 494.0,1121.0" style="stroke:#060106; fill:none;"/>
	<path d="M 642.0,1120.0 L 645.0,1126.0" style="stroke:#060106; fill:none;"/>
	<path d="M 145.0,1128.0 L 149.0,1134.0" style="stroke:#060106; fill:none;"/>
	<path d="M 645.0,1131.0 L 647.0,1129.0" style="stroke:#060106; fill:none;"/>
	<path d="M 147.0,1132.0 L 148.0,1132.0" style="stroke:#060106; fill:none;"/>
	<path d="M 645.0,1133.0 L 646.0,1134.0" style="stroke:#060106; fill:none;"/>
	<path d="M 651.0,1141.0 L 652.0,1136.0" style="stroke:#060106; fill:none;"/>
	<path d="M 156.0,1139.0 L 156.0,1141.0 L 156.0,1139.0" style="stroke:#060106; fill:none;"/>
	<path d="M 652.0,1142.0 L 654.0,1153.0" style="stroke:#060106; fill:none;"/>
	<path d="M 160.0,1145.0 L 163.0,1149.0" style="stroke:#060106; fill:none;"/>
	<path d="M 652.0,1146.0 L 652.0,1147.0" style="stroke:#060106; fill:none;"/>
	<path d="M 169.0,1155.0 L 168.0,1151.0" style="stroke:#060106; fill:none;"/>
	<path d="M 172.0,1157.0 L 177.0,1161.0" style="stroke:#060106; fill:none;"/>
	<path d="M 654.0,1157.0 L 654.0,1159.0" style="stroke:#060106; fill:none;"/>
	<path d="M 173.0,1161.0 L 175.0,1163.0" style="stroke:#060106; fill:none;"/>
	<path d="M 653.0,1162.0 L 652.0,1167.0" style="stroke:#060106; fill:none;"/>
	<path d="M 179.0,1165.0 L 179.0,1166.0" style="stroke:#060106; fill:none;"/>
	<path d="M 182.0,1167.0 L 182.0,1169.0" style="stroke:#060106; fill:none;"/>
	<path d="M 651.0,1171.0 L 652.0,1171.0" style="stroke:#060106; fill:none;"/>
	<path d="M 187.0,1172.0 L 189.0,1172.0" style="stroke:#060106; fill:none;"/>
	<path d="M 188.0,1174.0 L 190.0,1174.0" style="stroke:#060106; fill:none;"/>
	<path d="M 192.0,1175.0 L 193.0,1176.0" style="stroke:#060106; fill:none;"/>
	<path d="M 649.0,1176.0 L 649.0,1178.0" style="stroke:#060106; fill:none;"/>
	<path d="M 193.0,1178.0 L 194.0,1178.0" style="stroke:#060106; fill:none;"/>
</svg>
