<?xml version="1.0" ?>
<svg baseProfile="full" height="960" version="1.1" width="1024" xmlns="http://www.w3.org/2000/svg" xmlns:ev="http://www.w3.org/2001/xml-events" xmlns:xlink="http://www.w3.org/1999/xlink">
	<defs/>
	<path d="M 558.0,51.0 L 555.0,55.0" style="stroke:#050105; fill:none;"/>
	<path d="M 550.0,59.0 L 546.0,61.0" style="stroke:#050105; fill:none;"/>
	<path d="M 541.0,64.0 L 544.0,63.0" style="stroke:#050105; fill:none;"/>
	<path d="M 534.0,66.0 L 535.0,66.0" style="stroke:#050105; fill:none;"/>
	<path d="M 374.0,72.0 L 374.0,73.0" style="stroke:#050105; fill:none;"/>
	<path d="M 380.0,73.0 L 382.0,73.0" style="stroke:#050105; fill:none;"/>
	<path d="M 391.0,75.0 L 392.0,76.0" style="stroke:#050105; fill:none;"/>
	<path d="M 394.0,76.0 L 397.0,77.0" style="stroke:#050105; fill:none;"/>
	<path d="M 459.0,76.0 L 460.0,76.0" style="stroke:#050105; fill:none;"/>
	<path d="M 401.0,77.0 L 401.0,78.0" style="stroke:#050105; fill:none;"/>
	<path d="M 409.0,79.0 L 410.0,79.0" style="stroke:#050105; fill:none;"/>
	<path d="M 464.0,79.0 L 467.0,79.0" style="stroke:#050105; fill:none;"/>
	<path d="M 545.0,79.0 L 547.0,81.0" style="stroke:#050105; fill:none;"/>
	<path d="M 706.0,79.0 L 706.0,80.0" style="stroke:#050105; fill:none;"/>
	<path d="M 415.0,80.0 L 416.0,80.0" style="stroke:#050105; fill:none;"/>
	<path d="M 467.0,81.0 L 469.0,82.0" style="stroke:#050105; fill:none;"/>
	<path d="M 704.0,82.0 L 705.0,82.0" style="stroke:#050105; fill:none;"/>
	<path d="M 357.0,85.0 L 359.0,84.0" style="stroke:#050105; fill:none;"/>
	<path d="M 386.0,84.0 L 386.0,85.0" style="stroke:#050105; fill:none;"/>
	<path d="M 355.0,85.0 L 355.0,86.0" style="stroke:#050105; fill:none;"/>
	<path d="M 363.0,85.0 L 364.0,85.0" style="stroke:#050105; fill:none;"/>
	<path d="M 466.0,85.0 L 467.0,85.0" style="stroke:#050105; fill:none;"/>
	<path d="M 474.0,85.0 L 485.0,92.0" style="stroke:#050105; fill:none;"/>
	<path d="M 398.0,86.0 L 399.0,87.0" style="stroke:#050105; fill:none;"/>
	<path d="M 555.0,86.0 L 557.0,86.0" style="stroke:#050105; fill:none;"/>
	<path d="M 341.0,87.0 L 342.0,87.0" style="stroke:#050105; fill:none;"/>
	<path d="M 418.0,88.0 L 418.0,89.0" style="stroke:#050105; fill:none;"/>
	<path d="M 474.0,88.0 L 474.0,89.0" style="stroke:#050105; fill:none;"/>
	<path d="M 715.0,88.0 L 717.0,91.0" style="stroke:#050105; fill:none;"/>
	<path d="M 325.0,89.0 L 325.0,90.0" style="stroke:#050105; fill:none;"/>
	<path d="M 350.0,92.0 L 349.0,93.0" style="stroke:#050105; fill:none;"/>
	<path d="M 371.0,93.0 L 372.0,93.0" style="stroke:#050105; fill:none;"/>
	<path d="M 410.0,94.0 L 412.0,94.0" style="stroke:#050105; fill:none;"/>
	<path d="M 414.0,94.0 L 415.0,94.0" style="stroke:#050105; fill:none;"/>
	<path d="M 488.0,94.0 L 492.0,98.0" style="stroke:#050105; fill:none;"/>
	<path d="M 422.0,95.0 L 426.0,96.0" style="stroke:#050105; fill:none;"/>
	<path d="M 748.0,97.0 L 750.0,98.0" style="stroke:#050105; fill:none;"/>
	<path d="M 430.0,99.0 L 431.0,99.0" style="stroke:#050105; fill:none;"/>
	<path d="M 493.0,100.0 L 498.0,103.0" style="stroke:#050105; fill:none;"/>
	<path d="M 496.0,100.0 L 495.0,101.0" style="stroke:#050105; fill:none;"/>
	<path d="M 574.0,100.0 L 575.0,100.0" style="stroke:#050105; fill:none;"/>
	<path d="M 578.0,100.0 L 579.0,101.0" style="stroke:#050105; fill:none;"/>
	<path d="M 750.0,100.0 L 750.0,101.0" style="stroke:#050105; fill:none;"/>
	<path d="M 717.0,101.0 L 718.0,102.0" style="stroke:#050105; fill:none;"/>
	<path d="M 335.0,102.0 L 333.0,105.0" style="stroke:#050105; fill:none;"/>
	<path d="M 524.0,102.0 L 524.0,103.0" style="stroke:#050105; fill:none;"/>
	<path d="M 725.0,102.0 L 727.0,104.0" style="stroke:#050105; fill:none;"/>
	<path d="M 729.0,105.0 L 729.0,108.0" style="stroke:#050105; fill:none;"/>
	<path d="M 500.0,107.0 L 501.0,107.0" style="stroke:#050105; fill:none;"/>
	<path d="M 721.0,110.0 L 723.0,110.0" style="stroke:#050105; fill:none;"/>
	<path d="M 324.0,111.0 L 323.0,112.0" style="stroke:#050105; fill:none;"/>
	<path d="M 506.0,111.0 L 506.0,112.0" style="stroke:#050105; fill:none;"/>
	<path d="M 756.0,112.0 L 757.0,114.0" style="stroke:#050105; fill:none;"/>
	<path d="M 321.0,113.0 L 321.0,114.0" style="stroke:#050105; fill:none;"/>
	<path d="M 599.0,113.0 L 598.0,114.0" style="stroke:#050105; fill:none;"/>
	<path d="M 724.0,116.0 L 725.0,117.0" style="stroke:#050105; fill:none;"/>
	<path d="M 759.0,116.0 L 759.0,117.0" style="stroke:#050105; fill:none;"/>
	<path d="M 604.0,118.0 L 606.0,119.0" style="stroke:#050105; fill:none;"/>
	<path d="M 312.0,120.0 L 312.0,121.0" style="stroke:#050105; fill:none;"/>
	<path d="M 512.0,120.0 L 515.0,123.0" style="stroke:#050105; fill:none;"/>
	<path d="M 726.0,120.0 L 727.0,121.0" style="stroke:#050105; fill:none;"/>
	<path d="M 759.0,120.0 L 760.0,120.0" style="stroke:#050105; fill:none;"/>
	<path d="M 524.0,121.0 L 524.0,122.0" style="stroke:#050105; fill:none;"/>
	<path d="M 558.0,121.0 L 560.0,122.0" style="stroke:#050105; fill:none;"/>
	<path d="M 556.0,123.0 L 557.0,123.0" style="stroke:#050105; fill:none;"/>
	<path d="M 727.0,123.0 L 728.0,124.0" style="stroke:#050105; fill:none;"/>
	<path d="M 518.0,124.0 L 521.0,128.0" style="stroke:#050105; fill:none;"/>
	<path d="M 761.0,124.0 L 762.0,124.0" style="stroke:#050105; fill:none;"/>
	<path d="M 729.0,128.0 L 729.0,129.0" style="stroke:#050105; fill:none;"/>
	<path d="M 762.0,128.0 L 763.0,128.0" style="stroke:#050105; fill:none;"/>
	<path d="M 762.0,130.0 L 762.0,131.0" style="stroke:#050105; fill:none;"/>
	<path d="M 567.0,131.0 L 567.0,132.0" style="stroke:#050105; fill:none;"/>
	<path d="M 730.0,132.0 L 730.0,135.0" style="stroke:#050105; fill:none;"/>
	<path d="M 554.0,133.0 L 555.0,133.0" style="stroke:#050105; fill:none;"/>
	<path d="M 569.0,135.0 L 569.0,136.0" style="stroke:#050105; fill:none;"/>
	<path d="M 742.0,135.0 L 742.0,138.0" style="stroke:#050105; fill:none;"/>
	<path d="M 765.0,137.0 L 766.0,140.0" style="stroke:#050105; fill:none;"/>
	<path d="M 534.0,141.0 L 533.0,142.0" style="stroke:#050105; fill:none;"/>
	<path d="M 583.0,143.0 L 584.0,143.0" style="stroke:#050105; fill:none;"/>
	<path d="M 537.0,144.0 L 540.0,145.0" style="stroke:#050105; fill:none;"/>
	<path d="M 767.0,145.0 L 767.0,147.0" style="stroke:#050105; fill:none;"/>
	<path d="M 588.0,147.0 L 589.0,147.0" style="stroke:#050105; fill:none;"/>
	<path d="M 542.0,150.0 L 543.0,150.0" style="stroke:#050105; fill:none;"/>
	<path d="M 289.0,169.0 L 289.0,170.0" style="stroke:#050105; fill:none;"/>
	<path d="M 287.0,173.0 L 288.0,174.0" style="stroke:#050105; fill:none;"/>
	<path d="M 285.0,179.0 L 286.0,179.0" style="stroke:#050105; fill:none;"/>
	<path d="M 777.0,179.0 L 777.0,181.0" style="stroke:#050105; fill:none;"/>
	<path d="M 275.0,180.0 L 276.0,180.0" style="stroke:#050105; fill:none;"/>
	<path d="M 283.0,184.0 L 284.0,184.0" style="stroke:#050105; fill:none;"/>
	<path d="M 283.0,186.0 L 283.0,187.0" style="stroke:#050105; fill:none;"/>
	<path d="M 782.0,191.0 L 782.0,192.0" style="stroke:#050105; fill:none;"/>
	<path d="M 788.0,199.0 L 787.0,201.0" style="stroke:#050105; fill:none;"/>
	<path d="M 793.0,205.0 L 794.0,207.0" style="stroke:#050105; fill:none;"/>
	<path d="M 792.0,215.0 L 793.0,216.0" style="stroke:#050105; fill:none;"/>
	<path d="M 799.0,235.0 L 801.0,240.0" style="stroke:#050105; fill:none;"/>
	<path d="M 803.0,243.0 L 805.0,252.0" style="stroke:#050105; fill:none;"/>
	<path d="M 807.0,255.0 L 807.0,257.0" style="stroke:#050105; fill:none;"/>
	<path d="M 809.0,261.0 L 809.0,262.0" style="stroke:#050105; fill:none;"/>
	<path d="M 809.0,271.0 L 811.0,272.0" style="stroke:#050105; fill:none;"/>
	<path d="M 806.0,276.0 L 808.0,282.0 L 807.0,280.0" style="stroke:#050105; fill:none;"/>
	<path d="M 733.0,282.0 L 734.0,282.0" style="stroke:#050105; fill:none;"/>
	<path d="M 808.0,283.0 L 810.0,283.0" style="stroke:#050105; fill:none;"/>
	<path d="M 811.0,289.0 L 811.0,291.0" style="stroke:#050105; fill:none;"/>
	<path d="M 687.0,296.0 L 687.0,297.0" style="stroke:#050105; fill:none;"/>
	<path d="M 682.0,298.0 L 683.0,298.0" style="stroke:#050105; fill:none;"/>
	<path d="M 763.0,298.0 L 765.0,298.0" style="stroke:#050105; fill:none;"/>
	<path d="M 813.0,298.0 L 813.0,299.0" style="stroke:#050105; fill:none;"/>
	<path d="M 767.0,299.0 L 769.0,301.0" style="stroke:#050105; fill:none;"/>
	<path d="M 817.0,299.0 L 818.0,301.0" style="stroke:#050105; fill:none;"/>
	<path d="M 668.0,300.0 L 669.0,300.0" style="stroke:#050105; fill:none;"/>
	<path d="M 773.0,303.0 L 774.0,303.0" style="stroke:#050105; fill:none;"/>
	<path d="M 778.0,304.0 L 783.0,306.0" style="stroke:#050105; fill:none;"/>
	<path d="M 751.0,306.0 L 752.0,306.0" style="stroke:#050105; fill:none;"/>
	<path d="M 759.0,306.0 L 760.0,307.0" style="stroke:#050105; fill:none;"/>
	<path d="M 311.0,309.0 L 312.0,311.0" style="stroke:#050105; fill:none;"/>
	<path d="M 650.0,309.0 L 649.0,310.0" style="stroke:#050105; fill:none;"/>
	<path d="M 753.0,309.0 L 753.0,310.0" style="stroke:#050105; fill:none;"/>
	<path d="M 659.0,310.0 L 659.0,311.0" style="stroke:#050105; fill:none;"/>
	<path d="M 651.0,314.0 L 653.0,312.0" style="stroke:#050105; fill:none;"/>
	<path d="M 311.0,313.0 L 309.0,318.0" style="stroke:#050105; fill:none;"/>
	<path d="M 641.0,313.0 L 642.0,313.0" style="stroke:#050105; fill:none;"/>
	<path d="M 732.0,313.0 L 734.0,313.0" style="stroke:#050105; fill:none;"/>
	<path d="M 780.0,313.0 L 778.0,317.0" style="stroke:#050105; fill:none;"/>
	<path d="M 818.0,313.0 L 818.0,314.0" style="stroke:#050105; fill:none;"/>
	<path d="M 726.0,314.0 L 727.0,314.0" style="stroke:#050105; fill:none;"/>
	<path d="M 729.0,314.0 L 730.0,315.0" style="stroke:#050105; fill:none;"/>
	<path d="M 783.0,314.0 L 786.0,315.0" style="stroke:#050105; fill:none;"/>
	<path d="M 745.0,315.0 L 745.0,316.0" style="stroke:#050105; fill:none;"/>
	<path d="M 768.0,315.0 L 768.0,317.0 L 768.0,315.0" style="stroke:#050105; fill:none;"/>
	<path d="M 736.0,316.0 L 733.0,317.0" style="stroke:#050105; fill:none;"/>
	<path d="M 749.0,317.0 L 753.0,316.0" style="stroke:#050105; fill:none;"/>
	<path d="M 756.0,316.0 L 757.0,316.0" style="stroke:#050105; fill:none;"/>
	<path d="M 761.0,316.0 L 762.0,316.0" style="stroke:#050105; fill:none;"/>
	<path d="M 764.0,317.0 L 762.0,319.0" style="stroke:#050105; fill:none;"/>
	<path d="M 771.0,317.0 L 769.0,317.0" style="stroke:#050105; fill:none;"/>
	<path d="M 699.0,320.0 L 703.0,319.0" style="stroke:#050105; fill:none;"/>
	<path d="M 727.0,319.0 L 730.0,319.0" style="stroke:#050105; fill:none;"/>
	<path d="M 756.0,319.0 L 758.0,320.0" style="stroke:#050105; fill:none;"/>
	<path d="M 811.0,320.0 L 812.0,320.0" style="stroke:#050105; fill:none;"/>
	<path d="M 639.0,321.0 L 639.0,322.0" style="stroke:#050105; fill:none;"/>
	<path d="M 718.0,321.0 L 722.0,321.0" style="stroke:#050105; fill:none;"/>
	<path d="M 813.0,322.0 L 813.0,323.0" style="stroke:#050105; fill:none;"/>
	<path d="M 306.0,323.0 L 306.0,324.0" style="stroke:#050105; fill:none;"/>
	<path d="M 470.0,324.0 L 472.0,324.0" style="stroke:#050105; fill:none;"/>
	<path d="M 769.0,323.0 L 770.0,323.0" style="stroke:#050105; fill:none;"/>
	<path d="M 824.0,323.0 L 826.0,325.0" style="stroke:#050105; fill:none;"/>
	<path d="M 762.0,324.0 L 764.0,324.0" style="stroke:#050105; fill:none;"/>
	<path d="M 786.0,326.0 L 787.0,326.0" style="stroke:#050105; fill:none;"/>
	<path d="M 433.0,329.0 L 434.0,329.0" style="stroke:#050105; fill:none;"/>
	<path d="M 437.0,329.0 L 438.0,330.0" style="stroke:#050105; fill:none;"/>
	<path d="M 441.0,329.0 L 442.0,329.0" style="stroke:#050105; fill:none;"/>
	<path d="M 815.0,329.0 L 815.0,330.0" style="stroke:#050105; fill:none;"/>
	<path d="M 449.0,330.0 L 450.0,331.0" style="stroke:#050105; fill:none;"/>
	<path d="M 302.0,331.0 L 302.0,333.0" style="stroke:#050105; fill:none;"/>
	<path d="M 817.0,331.0 L 818.0,333.0" style="stroke:#050105; fill:none;"/>
	<path d="M 828.0,331.0 L 828.0,332.0" style="stroke:#050105; fill:none;"/>
	<path d="M 651.0,332.0 L 652.0,332.0" style="stroke:#050105; fill:none;"/>
	<path d="M 412.0,338.0 L 413.0,338.0" style="stroke:#050105; fill:none;"/>
	<path d="M 474.0,338.0 L 474.0,340.0" style="stroke:#050105; fill:none;"/>
	<path d="M 451.0,339.0 L 452.0,340.0" style="stroke:#050105; fill:none;"/>
	<path d="M 468.0,340.0 L 470.0,340.0" style="stroke:#050105; fill:none;"/>
	<path d="M 481.0,339.0 L 482.0,339.0" style="stroke:#050105; fill:none;"/>
	<path d="M 820.0,340.0 L 822.0,342.0" style="stroke:#050105; fill:none;"/>
	<path d="M 701.0,344.0 L 703.0,344.0" style="stroke:#050105; fill:none;"/>
	<path d="M 476.0,344.0 L 477.0,344.0" style="stroke:#050105; fill:none;"/>
	<path d="M 489.0,344.0 L 489.0,345.0" style="stroke:#050105; fill:none;"/>
	<path d="M 309.0,346.0 L 310.0,346.0" style="stroke:#050105; fill:none;"/>
	<path d="M 713.0,346.0 L 715.0,347.0" style="stroke:#050105; fill:none;"/>
	<path d="M 722.0,346.0 L 723.0,346.0" style="stroke:#050105; fill:none;"/>
	<path d="M 295.0,347.0 L 295.0,349.0" style="stroke:#050105; fill:none;"/>
	<path d="M 734.0,347.0 L 736.0,347.0" style="stroke:#050105; fill:none;"/>
	<path d="M 739.0,347.0 L 740.0,347.0" style="stroke:#050105; fill:none;"/>
	<path d="M 743.0,348.0 L 744.0,349.0" style="stroke:#050105; fill:none;"/>
	<path d="M 749.0,351.0 L 754.0,353.0" style="stroke:#050105; fill:none;"/>
	<path d="M 294.0,351.0 L 293.0,354.0" style="stroke:#050105; fill:none;"/>
	<path d="M 684.0,353.0 L 685.0,353.0" style="stroke:#050105; fill:none;"/>
	<path d="M 695.0,353.0 C 702.585,353.0 723.895,359.195 729.0,355.0" style="stroke:#050105; fill:none;"/>
	<path d="M 436.0,354.0 L 437.0,354.0" style="stroke:#050105; fill:none;"/>
	<path d="M 678.0,354.0 L 678.0,355.0" style="stroke:#050105; fill:none;"/>
	<path d="M 675.0,355.0 L 676.0,355.0" style="stroke:#050105; fill:none;"/>
	<path d="M 668.0,357.0 L 671.0,356.0" style="stroke:#050105; fill:none;"/>
	<path d="M 640.0,359.0 L 642.0,359.0" style="stroke:#050105; fill:none;"/>
	<path d="M 730.0,358.0 L 731.0,361.0" style="stroke:#050105; fill:none;"/>
	<path d="M 292.0,359.0 L 292.0,360.0" style="stroke:#050105; fill:none;"/>
	<path d="M 663.0,359.0 L 657.0,361.0" style="stroke:#050105; fill:none;"/>
	<path d="M 736.0,359.0 L 750.0,367.0" style="stroke:#050105; fill:none;"/>
	<path d="M 743.0,362.0 L 747.0,361.0" style="stroke:#050105; fill:none;"/>
	<path d="M 389.0,362.0 L 389.0,363.0" style="stroke:#050105; fill:none;"/>
	<path d="M 290.0,363.0 L 291.0,363.0" style="stroke:#050105; fill:none;"/>
	<path d="M 479.0,365.0 L 481.0,364.0" style="stroke:#050105; fill:none;"/>
	<path d="M 498.0,363.0 L 499.0,363.0" style="stroke:#050105; fill:none;"/>
	<path d="M 654.0,363.0 L 654.0,369.0" style="stroke:#050105; fill:none;"/>
	<path d="M 304.0,364.0 L 304.0,367.0" style="stroke:#050105; fill:none;"/>
	<path d="M 502.0,364.0 L 504.0,364.0" style="stroke:#050105; fill:none;"/>
	<path d="M 663.0,364.0 L 664.0,364.0" style="stroke:#050105; fill:none;"/>
	<path d="M 752.0,364.0 L 752.0,365.0" style="stroke:#050105; fill:none;"/>
	<path d="M 471.0,365.0 L 474.0,365.0" style="stroke:#050105; fill:none;"/>
	<path d="M 651.0,365.0 L 649.0,369.0" style="stroke:#050105; fill:none;"/>
	<path d="M 684.0,365.0 L 685.0,365.0" style="stroke:#050105; fill:none;"/>
	<path d="M 758.0,365.0 L 759.0,367.0" style="stroke:#050105; fill:none;"/>
	<path d="M 679.0,366.0 L 678.0,367.0" style="stroke:#050105; fill:none;"/>
	<path d="M 686.0,369.0 L 689.0,366.0" style="stroke:#050105; fill:none;"/>
	<path d="M 465.0,367.0 L 466.0,367.0" style="stroke:#050105; fill:none;"/>
	<path d="M 704.0,367.0 L 705.0,374.0" style="stroke:#050105; fill:none;"/>
	<path d="M 458.0,369.0 L 460.0,368.0" style="stroke:#050105; fill:none;"/>
	<path d="M 756.0,368.0 L 758.0,371.0" style="stroke:#050105; fill:none;"/>
	<path d="M 828.0,368.0 L 828.0,369.0" style="stroke:#050105; fill:none;"/>
	<path d="M 761.0,369.0 L 762.0,370.0" style="stroke:#050105; fill:none;"/>
	<path d="M 453.0,370.0 L 454.0,370.0" style="stroke:#050105; fill:none;"/>
	<path d="M 661.0,370.0 L 661.0,372.0" style="stroke:#050105; fill:none;"/>
	<path d="M 678.0,370.0 L 679.0,375.0" style="stroke:#050105; fill:none;"/>
	<path d="M 381.0,371.0 L 381.0,372.0" style="stroke:#050105; fill:none;"/>
	<path d="M 450.0,371.0 L 451.0,371.0" style="stroke:#050105; fill:none;"/>
	<path d="M 686.0,373.0 L 690.0,375.0" style="stroke:#050105; fill:none;"/>
	<path d="M 301.0,374.0 L 301.0,377.0" style="stroke:#050105; fill:none;"/>
	<path d="M 443.0,374.0 L 444.0,374.0" style="stroke:#050105; fill:none;"/>
	<path d="M 768.0,374.0 L 770.0,375.0" style="stroke:#050105; fill:none;"/>
	<path d="M 650.0,375.0 L 651.0,375.0" style="stroke:#050105; fill:none;"/>
	<path d="M 378.0,376.0 L 378.0,377.0" style="stroke:#050105; fill:none;"/>
	<path d="M 753.0,376.0 L 754.0,376.0" style="stroke:#050105; fill:none;"/>
	<path d="M 681.0,377.0 L 686.0,378.0" style="stroke:#050105; fill:none;"/>
	<path d="M 831.0,378.0 L 831.0,380.0" style="stroke:#050105; fill:none;"/>
	<path d="M 663.0,379.0 L 663.0,380.0" style="stroke:#050105; fill:none;"/>
	<path d="M 300.0,381.0 L 299.0,385.0" style="stroke:#050105; fill:none;"/>
	<path d="M 651.0,382.0 L 652.0,383.0" style="stroke:#050105; fill:none;"/>
	<path d="M 704.0,382.0 L 704.0,383.0" style="stroke:#050105; fill:none;"/>
	<path d="M 732.0,386.0 L 744.0,382.0" style="stroke:#050105; fill:none;"/>
	<path d="M 831.0,382.0 L 832.0,382.0" style="stroke:#050105; fill:none;"/>
	<path d="M 489.0,383.0 L 489.0,384.0" style="stroke:#050105; fill:none;"/>
	<path d="M 702.0,383.0 L 702.0,385.0" style="stroke:#050105; fill:none;"/>
	<path d="M 419.0,384.0 L 422.0,384.0" style="stroke:#050105; fill:none;"/>
	<path d="M 472.0,385.0 L 478.0,386.0" style="stroke:#050105; fill:none;"/>
	<path d="M 486.0,384.0 L 487.0,386.0" style="stroke:#050105; fill:none;"/>
	<path d="M 493.0,384.0 L 505.0,387.0" style="stroke:#050105; fill:none;"/>
	<path d="M 654.0,384.0 L 654.0,385.0" style="stroke:#050105; fill:none;"/>
	<path d="M 667.0,384.0 L 669.0,384.0" style="stroke:#050105; fill:none;"/>
	<path d="M 467.0,386.0 L 469.0,385.0" style="stroke:#050105; fill:none;"/>
	<path d="M 511.0,386.0 L 515.0,388.0" style="stroke:#050105; fill:none;"/>
	<path d="M 519.0,386.0 L 519.0,388.0" style="stroke:#050105; fill:none;"/>
	<path d="M 283.0,387.0 L 284.0,387.0" style="stroke:#050105; fill:none;"/>
	<path d="M 298.0,387.0 L 299.0,388.0" style="stroke:#050105; fill:none;"/>
	<path d="M 452.0,395.0 L 460.0,388.0" style="stroke:#050105; fill:none;"/>
	<path d="M 470.0,387.0 L 470.0,388.0" style="stroke:#050105; fill:none;"/>
	<path d="M 522.0,387.0 L 526.0,388.0" style="stroke:#050105; fill:none;"/>
	<path d="M 530.0,387.0 L 530.0,388.0" style="stroke:#050105; fill:none;"/>
	<path d="M 658.0,387.0 L 659.0,387.0" style="stroke:#050105; fill:none;"/>
	<path d="M 726.0,387.0 L 726.0,388.0" style="stroke:#050105; fill:none;"/>
	<path d="M 728.0,387.0 L 729.0,387.0" style="stroke:#050105; fill:none;"/>
	<path d="M 271.0,388.0 L 271.0,389.0" style="stroke:#050105; fill:none;"/>
	<path d="M 533.0,389.0 L 534.0,389.0" style="stroke:#050105; fill:none;"/>
	<path d="M 720.0,389.0 L 721.0,389.0" style="stroke:#050105; fill:none;"/>
	<path d="M 283.0,390.0 L 284.0,390.0" style="stroke:#050105; fill:none;"/>
	<path d="M 443.0,394.0 C 443.574,389.578 451.222,390.405 455.0,390.0" style="stroke:#050105; fill:none;"/>
	<path d="M 471.0,390.0 L 471.0,391.0" style="stroke:#050105; fill:none;"/>
	<path d="M 708.0,390.0 L 711.0,390.0" style="stroke:#050105; fill:none;"/>
	<path d="M 716.0,390.0 L 717.0,390.0" style="stroke:#050105; fill:none;"/>
	<path d="M 464.0,391.0 L 465.0,392.0" style="stroke:#050105; fill:none;"/>
	<path d="M 519.0,391.0 L 519.0,392.0" style="stroke:#050105; fill:none;"/>
	<path d="M 529.0,391.0 L 531.0,391.0" style="stroke:#050105; fill:none;"/>
	<path d="M 452.0,392.0 L 452.0,393.0" style="stroke:#050105; fill:none;"/>
	<path d="M 636.0,392.0 L 636.0,393.0" style="stroke:#050105; fill:none;"/>
	<path d="M 435.0,394.0 L 438.0,396.0" style="stroke:#050105; fill:none;"/>
	<path d="M 409.0,394.0 L 409.0,395.0" style="stroke:#050105; fill:none;"/>
	<path d="M 466.0,394.0 L 466.0,395.0" style="stroke:#050105; fill:none;"/>
	<path d="M 535.0,394.0 L 531.0,399.0" style="stroke:#050105; fill:none;"/>
	<path d="M 852.0,394.0 L 855.0,399.0" style="stroke:#050105; fill:none;"/>
	<path d="M 833.0,396.0 L 834.0,396.0" style="stroke:#050105; fill:none;"/>
	<path d="M 428.0,397.0 L 427.0,398.0" style="stroke:#050105; fill:none;"/>
	<path d="M 440.0,397.0 L 440.0,399.0" style="stroke:#050105; fill:none;"/>
	<path d="M 639.0,397.0 L 641.0,400.0" style="stroke:#050105; fill:none;"/>
	<path d="M 283.0,398.0 L 283.0,399.0" style="stroke:#050105; fill:none;"/>
	<path d="M 452.0,398.0 L 452.0,400.0" style="stroke:#050105; fill:none;"/>
	<path d="M 431.0,399.0 L 430.0,405.0" style="stroke:#050105; fill:none;"/>
	<path d="M 466.0,400.0 L 466.0,405.0" style="stroke:#050105; fill:none;"/>
	<path d="M 296.0,401.0 L 297.0,402.0" style="stroke:#050105; fill:none;"/>
	<path d="M 420.0,402.0 L 423.0,401.0" style="stroke:#050105; fill:none;"/>
	<path d="M 442.0,402.0 L 446.0,407.0" style="stroke:#050105; fill:none;"/>
	<path d="M 519.0,403.0 L 517.0,404.0" style="stroke:#050105; fill:none;"/>
	<path d="M 859.0,403.0 L 860.0,406.0" style="stroke:#050105; fill:none;"/>
	<path d="M 453.0,404.0 L 451.0,405.0" style="stroke:#050105; fill:none;"/>
	<path d="M 295.0,407.0 L 295.0,408.0" style="stroke:#050105; fill:none;"/>
	<path d="M 281.0,408.0 L 281.0,410.0" style="stroke:#050105; fill:none;"/>
	<path d="M 839.0,408.0 L 841.0,413.0" style="stroke:#050105; fill:none;"/>
	<path d="M 861.0,409.0 L 863.0,413.0" style="stroke:#050105; fill:none;"/>
	<path d="M 412.0,411.0 L 414.0,410.0" style="stroke:#050105; fill:none;"/>
	<path d="M 462.0,411.0 L 464.0,410.0" style="stroke:#050105; fill:none;"/>
	<path d="M 647.0,410.0 L 647.0,412.0" style="stroke:#050105; fill:none;"/>
	<path d="M 432.0,412.0 L 435.0,418.0" style="stroke:#050105; fill:none;"/>
	<path d="M 409.0,413.0 L 410.0,413.0" style="stroke:#050105; fill:none;"/>
	<path d="M 293.0,414.0 L 293.0,415.0" style="stroke:#050105; fill:none;"/>
	<path d="M 406.0,415.0 L 407.0,415.0" style="stroke:#050105; fill:none;"/>
	<path d="M 421.0,415.0 L 421.0,418.0" style="stroke:#050105; fill:none;"/>
	<path d="M 487.0,415.0 L 488.0,415.0" style="stroke:#050105; fill:none;"/>
	<path d="M 865.0,416.0 L 866.0,417.0" style="stroke:#050105; fill:none;"/>
	<path d="M 458.0,417.0 L 455.0,419.0" style="stroke:#050105; fill:none;"/>
	<path d="M 481.0,417.0 L 480.0,419.0" style="stroke:#050105; fill:none;"/>
	<path d="M 280.0,419.0 L 281.0,419.0" style="stroke:#050105; fill:none;"/>
	<path d="M 828.0,419.0 L 829.0,420.0" style="stroke:#050105; fill:none;"/>
	<path d="M 425.0,420.0 L 430.0,422.0" style="stroke:#050105; fill:none;"/>
	<path d="M 440.0,420.0 L 440.0,421.0" style="stroke:#050105; fill:none;"/>
	<path d="M 653.0,421.0 L 654.0,423.0" style="stroke:#050105; fill:none;"/>
	<path d="M 450.0,422.0 L 449.0,424.0" style="stroke:#050105; fill:none;"/>
	<path d="M 866.0,422.0 L 868.0,427.0" style="stroke:#050105; fill:none;"/>
	<path d="M 452.0,424.0 L 453.0,424.0" style="stroke:#050105; fill:none;"/>
	<path d="M 441.0,425.0 L 443.0,425.0" style="stroke:#050105; fill:none;"/>
	<path d="M 469.0,425.0 L 470.0,425.0" style="stroke:#050105; fill:none;"/>
	<path d="M 280.0,427.0 L 281.0,427.0" style="stroke:#050105; fill:none;"/>
	<path d="M 564.0,431.0 L 565.0,431.0" style="stroke:#050105; fill:none;"/>
	<path d="M 291.0,433.0 L 291.0,437.0" style="stroke:#050105; fill:none;"/>
	<path d="M 657.0,433.0 L 658.0,435.0" style="stroke:#050105; fill:none;"/>
	<path d="M 659.0,437.0 L 659.0,438.0" style="stroke:#050105; fill:none;"/>
	<path d="M 853.0,439.0 L 854.0,441.0" style="stroke:#050105; fill:none;"/>
	<path d="M 290.0,441.0 L 291.0,441.0" style="stroke:#050105; fill:none;"/>
	<path d="M 660.0,441.0 L 661.0,442.0" style="stroke:#050105; fill:none;"/>
	<path d="M 824.0,442.0 L 825.0,442.0" style="stroke:#050105; fill:none;"/>
	<path d="M 844.0,442.0 L 844.0,446.0" style="stroke:#050105; fill:none;"/>
	<path d="M 662.0,445.0 L 662.0,446.0" style="stroke:#050105; fill:none;"/>
	<path d="M 823.0,447.0 L 824.0,447.0" style="stroke:#050105; fill:none;"/>
	<path d="M 853.0,447.0 L 856.0,452.0" style="stroke:#050105; fill:none;"/>
	<path d="M 824.0,449.0 L 824.0,450.0" style="stroke:#050105; fill:none;"/>
	<path d="M 867.0,449.0 L 868.0,449.0" style="stroke:#050105; fill:none;"/>
	<path d="M 843.0,450.0 L 844.0,460.0" style="stroke:#050105; fill:none;"/>
	<path d="M 868.0,452.0 L 867.0,453.0" style="stroke:#050105; fill:none;"/>
	<path d="M 855.0,455.0 L 855.0,456.0" style="stroke:#050105; fill:none;"/>
	<path d="M 823.0,456.0 L 823.0,457.0" style="stroke:#050105; fill:none;"/>
	<path d="M 867.0,458.0 L 867.0,460.0" style="stroke:#050105; fill:none;"/>
	<path d="M 854.0,459.0 L 854.0,460.0" style="stroke:#050105; fill:none;"/>
	<path d="M 225.0,461.0 L 220.0,467.0" style="stroke:#050105; fill:none;"/>
	<path d="M 822.0,461.0 L 822.0,462.0" style="stroke:#050105; fill:none;"/>
	<path d="M 302.0,462.0 L 302.0,466.0" style="stroke:#050105; fill:none;"/>
	<path d="M 843.0,464.0 L 843.0,467.0" style="stroke:#050105; fill:none;"/>
	<path d="M 867.0,465.0 L 865.0,472.0" style="stroke:#050105; fill:none;"/>
	<path d="M 290.0,466.0 L 291.0,466.0" style="stroke:#050105; fill:none;"/>
	<path d="M 854.0,467.0 L 855.0,467.0" style="stroke:#050105; fill:none;"/>
	<path d="M 246.0,468.0 L 246.0,469.0" style="stroke:#050105; fill:none;"/>
	<path d="M 219.0,469.0 L 219.0,475.0" style="stroke:#050105; fill:none;"/>
	<path d="M 842.0,470.0 L 843.0,474.0" style="stroke:#050105; fill:none;"/>
	<path d="M 291.0,473.0 L 292.0,477.0" style="stroke:#050105; fill:none;"/>
	<path d="M 304.0,476.0 L 304.0,479.0" style="stroke:#050105; fill:none;"/>
	<path d="M 855.0,478.0 L 852.0,487.0" style="stroke:#050105; fill:none;"/>
	<path d="M 281.0,479.0 L 281.0,480.0" style="stroke:#050105; fill:none;"/>
	<path d="M 306.0,482.0 L 307.0,485.0" style="stroke:#050105; fill:none;"/>
	<path d="M 865.0,482.0 L 865.0,483.0" style="stroke:#050105; fill:none;"/>
	<path d="M 841.0,483.0 L 841.0,484.0" style="stroke:#050105; fill:none;"/>
	<path d="M 281.0,485.0 L 283.0,485.0" style="stroke:#050105; fill:none;"/>
	<path d="M 282.0,486.0 L 282.0,488.0" style="stroke:#050105; fill:none;"/>
	<path d="M 863.0,487.0 L 865.0,489.0" style="stroke:#050105; fill:none;"/>
	<path d="M 220.0,488.0 L 220.0,489.0" style="stroke:#050105; fill:none;"/>
	<path d="M 853.0,489.0 L 853.0,491.0 L 853.0,489.0" style="stroke:#050105; fill:none;"/>
	<path d="M 239.0,490.0 L 239.0,491.0" style="stroke:#050105; fill:none;"/>
	<path d="M 839.0,491.0 L 839.0,497.0" style="stroke:#050105; fill:none;"/>
	<path d="M 863.0,491.0 L 863.0,493.0" style="stroke:#050105; fill:none;"/>
	<path d="M 219.0,492.0 L 221.0,501.0" style="stroke:#050105; fill:none;"/>
	<path d="M 238.0,493.0 L 237.0,499.0" style="stroke:#050105; fill:none;"/>
	<path d="M 261.0,495.0 L 262.0,496.0" style="stroke:#050105; fill:none;"/>
	<path d="M 862.0,497.0 L 862.0,501.0" style="stroke:#050105; fill:none;"/>
	<path d="M 851.0,499.0 L 850.0,500.0" style="stroke:#050105; fill:none;"/>
	<path d="M 839.0,500.0 L 840.0,500.0" style="stroke:#050105; fill:none;"/>
	<path d="M 285.0,502.0 L 285.0,503.0" style="stroke:#050105; fill:none;"/>
	<path d="M 838.0,502.0 L 840.0,503.0" style="stroke:#050105; fill:none;"/>
	<path d="M 220.0,503.0 L 220.0,505.0" style="stroke:#050105; fill:none;"/>
	<path d="M 237.0,503.0 L 236.0,506.0" style="stroke:#050105; fill:none;"/>
	<path d="M 262.0,504.0 L 262.0,506.0" style="stroke:#050105; fill:none;"/>
	<path d="M 682.0,504.0 L 682.0,505.0" style="stroke:#050105; fill:none;"/>
	<path d="M 848.0,506.0 L 850.0,506.0" style="stroke:#050105; fill:none;"/>
	<path d="M 860.0,508.0 L 861.0,508.0" style="stroke:#050105; fill:none;"/>
	<path d="M 221.0,509.0 L 222.0,518.0" style="stroke:#050105; fill:none;"/>
	<path d="M 287.0,510.0 L 287.0,511.0" style="stroke:#050105; fill:none;"/>
	<path d="M 847.0,510.0 L 848.0,512.0" style="stroke:#050105; fill:none;"/>
	<path d="M 235.0,511.0 L 234.0,512.0" style="stroke:#050105; fill:none;"/>
	<path d="M 312.0,513.0 L 312.0,514.0" style="stroke:#050105; fill:none;"/>
	<path d="M 828.0,513.0 L 829.0,513.0" style="stroke:#050105; fill:none;"/>
	<path d="M 860.0,513.0 L 858.0,529.0" style="stroke:#050105; fill:none;"/>
	<path d="M 848.0,514.0 L 846.0,515.0" style="stroke:#050105; fill:none;"/>
	<path d="M 277.0,517.0 L 278.0,520.0" style="stroke:#050105; fill:none;"/>
	<path d="M 289.0,517.0 L 291.0,519.0" style="stroke:#050105; fill:none;"/>
	<path d="M 677.0,517.0 L 677.0,518.0" style="stroke:#050105; fill:none;"/>
	<path d="M 697.0,518.0 L 698.0,519.0" style="stroke:#050105; fill:none;"/>
	<path d="M 233.0,519.0 L 232.0,521.0" style="stroke:#050105; fill:none;"/>
	<path d="M 267.0,519.0 L 270.0,519.0" style="stroke:#050105; fill:none;"/>
	<path d="M 598.0,520.0 L 601.0,519.0" style="stroke:#050105; fill:none;"/>
	<path d="M 830.0,519.0 L 831.0,523.0" style="stroke:#050105; fill:none;"/>
	<path d="M 291.0,521.0 L 293.0,523.0" style="stroke:#050105; fill:none;"/>
	<path d="M 679.0,521.0 L 680.0,521.0" style="stroke:#050105; fill:none;"/>
	<path d="M 222.0,523.0 L 221.0,528.0" style="stroke:#050105; fill:none;"/>
	<path d="M 232.0,523.0 L 233.0,523.0" style="stroke:#050105; fill:none;"/>
	<path d="M 680.0,523.0 L 680.0,524.0" style="stroke:#050105; fill:none;"/>
	<path d="M 241.0,524.0 L 241.0,525.0" style="stroke:#050105; fill:none;"/>
	<path d="M 298.0,524.0 L 300.0,524.0" style="stroke:#050105; fill:none;"/>
	<path d="M 703.0,525.0 L 703.0,526.0" style="stroke:#050105; fill:none;"/>
	<path d="M 326.0,526.0 L 327.0,529.0" style="stroke:#050105; fill:none;"/>
	<path d="M 680.0,526.0 L 680.0,529.0" style="stroke:#050105; fill:none;"/>
	<path d="M 830.0,527.0 L 831.0,527.0" style="stroke:#050105; fill:none;"/>
	<path d="M 843.0,527.0 L 844.0,527.0" style="stroke:#050105; fill:none;"/>
	<path d="M 232.0,528.0 L 232.0,535.0" style="stroke:#050105; fill:none;"/>
	<path d="M 222.0,530.0 L 222.0,531.0" style="stroke:#050105; fill:none;"/>
	<path d="M 242.0,530.0 L 243.0,530.0" style="stroke:#050105; fill:none;"/>
	<path d="M 681.0,532.0 L 681.0,533.0" style="stroke:#050105; fill:none;"/>
	<path d="M 859.0,532.0 L 857.0,535.0" style="stroke:#050105; fill:none;"/>
	<path d="M 841.0,534.0 L 841.0,535.0" style="stroke:#050105; fill:none;"/>
	<path d="M 706.0,535.0 L 706.0,536.0" style="stroke:#050105; fill:none;"/>
	<path d="M 243.0,536.0 L 244.0,536.0" style="stroke:#050105; fill:none;"/>
	<path d="M 684.0,536.0 L 686.0,544.0" style="stroke:#050105; fill:none;"/>
	<path d="M 834.0,536.0 L 835.0,539.0" style="stroke:#050105; fill:none;"/>
	<path d="M 858.0,536.0 L 858.0,542.0" style="stroke:#050105; fill:none;"/>
	<path d="M 330.0,538.0 L 331.0,538.0" style="stroke:#050105; fill:none;"/>
	<path d="M 299.0,539.0 L 300.0,540.0" style="stroke:#050105; fill:none;"/>
	<path d="M 233.0,541.0 L 235.0,540.0" style="stroke:#050105; fill:none;"/>
	<path d="M 300.0,542.0 L 300.0,543.0" style="stroke:#050105; fill:none;"/>
	<path d="M 332.0,543.0 L 333.0,545.0" style="stroke:#050105; fill:none;"/>
	<path d="M 834.0,543.0 L 836.0,555.0" style="stroke:#050105; fill:none;"/>
	<path d="M 548.0,545.0 L 549.0,549.0" style="stroke:#050105; fill:none;"/>
	<path d="M 223.0,546.0 L 224.0,547.0" style="stroke:#050105; fill:none;"/>
	<path d="M 302.0,546.0 L 301.0,548.0" style="stroke:#050105; fill:none;"/>
	<path d="M 857.0,546.0 L 853.0,554.0 L 855.0,553.0" style="stroke:#050105; fill:none;"/>
	<path d="M 236.0,547.0 L 236.0,548.0" style="stroke:#050105; fill:none;"/>
	<path d="M 575.0,549.0 L 576.0,551.0 C 577.603,548.252 578.045,547.895 581.0,549.0" style="stroke:#050105; fill:none;"/>
	<path d="M 583.0,547.0 L 594.0,551.0" style="stroke:#050105; fill:none;"/>
	<path d="M 580.0,548.0 L 578.0,550.0" style="stroke:#050105; fill:none;"/>
	<path d="M 705.0,548.0 L 704.0,551.0" style="stroke:#050105; fill:none;"/>
	<path d="M 288.0,550.0 L 290.0,555.0" style="stroke:#050105; fill:none;"/>
	<path d="M 245.0,551.0 L 245.0,552.0" style="stroke:#050105; fill:none;"/>
	<path d="M 303.0,552.0 L 305.0,557.0" style="stroke:#050105; fill:none;"/>
	<path d="M 574.0,552.0 L 572.0,554.0" style="stroke:#050105; fill:none;"/>
	<path d="M 599.0,552.0 L 602.0,552.0" style="stroke:#050105; fill:none;"/>
	<path d="M 672.0,552.0 L 672.0,553.0" style="stroke:#050105; fill:none;"/>
	<path d="M 606.0,553.0 L 606.0,554.0" style="stroke:#050105; fill:none;"/>
	<path d="M 608.0,554.0 L 614.0,556.0" style="stroke:#050105; fill:none;"/>
	<path d="M 702.0,553.0 L 703.0,553.0" style="stroke:#050105; fill:none;"/>
	<path d="M 226.0,554.0 L 226.0,555.0" style="stroke:#050105; fill:none;"/>
	<path d="M 607.0,556.0 L 603.0,561.0" style="stroke:#050105; fill:none;"/>
	<path d="M 702.0,556.0 L 702.0,557.0" style="stroke:#050105; fill:none;"/>
	<path d="M 617.0,558.0 L 621.0,561.0" style="stroke:#050105; fill:none;"/>
	<path d="M 665.0,559.0 L 666.0,561.0" style="stroke:#050105; fill:none;"/>
	<path d="M 290.0,560.0 L 291.0,560.0" style="stroke:#050105; fill:none;"/>
	<path d="M 305.0,561.0 L 306.0,561.0" style="stroke:#050105; fill:none;"/>
	<path d="M 659.0,563.0 L 662.0,562.0" style="stroke:#050105; fill:none;"/>
	<path d="M 853.0,562.0 L 853.0,563.0" style="stroke:#050105; fill:none;"/>
	<path d="M 625.0,563.0 L 626.0,564.0" style="stroke:#050105; fill:none;"/>
	<path d="M 666.0,563.0 L 667.0,565.0" style="stroke:#050105; fill:none;"/>
	<path d="M 231.0,564.0 L 230.0,567.0" style="stroke:#050105; fill:none;"/>
	<path d="M 600.0,564.0 L 601.0,564.0" style="stroke:#050105; fill:none;"/>
	<path d="M 836.0,567.0 L 838.0,574.0" style="stroke:#050105; fill:none;"/>
	<path d="M 596.0,568.0 L 597.0,568.0" style="stroke:#050105; fill:none;"/>
	<path d="M 850.0,568.0 L 844.0,577.0" style="stroke:#050105; fill:none;"/>
	<path d="M 668.0,569.0 L 669.0,572.0" style="stroke:#050105; fill:none;"/>
	<path d="M 234.0,570.0 L 258.0,609.0" style="stroke:#050105; fill:none;"/>
	<path d="M 309.0,571.0 L 309.0,572.0" style="stroke:#050105; fill:none;"/>
	<path d="M 252.0,572.0 L 252.0,573.0" style="stroke:#050105; fill:none;"/>
	<path d="M 690.0,574.0 L 692.0,573.0" style="stroke:#050105; fill:none;"/>
	<path d="M 310.0,575.0 L 311.0,578.0" style="stroke:#050105; fill:none;"/>
	<path d="M 559.0,575.0 L 560.0,575.0" style="stroke:#050105; fill:none;"/>
	<path d="M 838.0,579.0 L 838.0,580.0" style="stroke:#050105; fill:none;"/>
	<path d="M 313.0,583.0 L 317.0,595.0" style="stroke:#050105; fill:none;"/>
	<path d="M 286.0,588.0 L 287.0,588.0" style="stroke:#050105; fill:none;"/>
	<path d="M 839.0,588.0 L 838.0,589.0" style="stroke:#050105; fill:none;"/>
	<path d="M 261.0,589.0 L 263.0,589.0" style="stroke:#050105; fill:none;"/>
	<path d="M 291.0,591.0 L 295.0,592.0" style="stroke:#050105; fill:none;"/>
	<path d="M 839.0,591.0 L 840.0,593.0" style="stroke:#050105; fill:none;"/>
	<path d="M 286.0,595.0 L 287.0,595.0" style="stroke:#050105; fill:none;"/>
	<path d="M 841.0,597.0 L 839.0,598.0" style="stroke:#050105; fill:none;"/>
	<path d="M 840.0,603.0 L 841.0,603.0" style="stroke:#050105; fill:none;"/>
	<path d="M 289.0,607.0 L 290.0,611.0" style="stroke:#050105; fill:none;"/>
	<path d="M 322.0,611.0 L 321.0,612.0" style="stroke:#050105; fill:none;"/>
	<path d="M 262.0,615.0 L 264.0,617.0" style="stroke:#050105; fill:none;"/>
	<path d="M 323.0,615.0 L 324.0,616.0" style="stroke:#050105; fill:none;"/>
	<path d="M 322.0,617.0 L 322.0,618.0" style="stroke:#050105; fill:none;"/>
	<path d="M 841.0,619.0 L 842.0,619.0" style="stroke:#050105; fill:none;"/>
	<path d="M 325.0,621.0 L 326.0,622.0" style="stroke:#050105; fill:none;"/>
	<path d="M 267.0,622.0 L 270.0,627.0" style="stroke:#050105; fill:none;"/>
	<path d="M 325.0,625.0 L 326.0,630.0" style="stroke:#050105; fill:none;"/>
	<path d="M 842.0,627.0 L 842.0,628.0" style="stroke:#050105; fill:none;"/>
	<path d="M 273.0,629.0 L 282.0,640.0" style="stroke:#050105; fill:none;"/>
	<path d="M 848.0,629.0 L 849.0,631.0" style="stroke:#050105; fill:none;"/>
	<path d="M 273.0,632.0 L 274.0,634.0" style="stroke:#050105; fill:none;"/>
	<path d="M 853.0,633.0 L 855.0,633.0" style="stroke:#050105; fill:none;"/>
	<path d="M 328.0,636.0 L 327.0,637.0" style="stroke:#050105; fill:none;"/>
	<path d="M 329.0,639.0 L 332.0,640.0" style="stroke:#050105; fill:none;"/>
	<path d="M 286.0,644.0 L 287.0,644.0" style="stroke:#050105; fill:none;"/>
	<path d="M 331.0,644.0 L 333.0,651.0" style="stroke:#050105; fill:none;"/>
	<path d="M 836.0,645.0 L 837.0,645.0" style="stroke:#050105; fill:none;"/>
	<path d="M 290.0,646.0 L 292.0,647.0" style="stroke:#050105; fill:none;"/>
	<path d="M 296.0,649.0 L 302.0,650.0" style="stroke:#050105; fill:none;"/>
	<path d="M 305.0,650.0 L 304.0,651.0" style="stroke:#050105; fill:none;"/>
	<path d="M 309.0,652.0 L 310.0,652.0" style="stroke:#050105; fill:none;"/>
	<path d="M 323.0,653.0 L 326.0,654.0" style="stroke:#050105; fill:none;"/>
	<path d="M 670.0,656.0 L 669.0,657.0" style="stroke:#050105; fill:none;"/>
	<path d="M 651.0,661.0 L 650.0,663.0" style="stroke:#050105; fill:none;"/>
	<path d="M 655.0,661.0 L 656.0,661.0" style="stroke:#050105; fill:none;"/>
	<path d="M 629.0,663.0 L 630.0,663.0" style="stroke:#050105; fill:none;"/>
	<path d="M 339.0,665.0 L 339.0,666.0" style="stroke:#050105; fill:none;"/>
	<path d="M 829.0,666.0 L 828.0,670.0" style="stroke:#050105; fill:none;"/>
	<path d="M 340.0,670.0 L 340.0,671.0" style="stroke:#050105; fill:none;"/>
	<path d="M 342.0,674.0 L 342.0,675.0" style="stroke:#050105; fill:none;"/>
	<path d="M 726.0,677.0 L 726.0,678.0 L 726.0,677.0" style="stroke:#050105; fill:none;"/>
	<path d="M 704.0,677.0 L 706.0,678.0" style="stroke:#050105; fill:none;"/>
	<path d="M 691.0,678.0 L 692.0,678.0" style="stroke:#050105; fill:none;"/>
	<path d="M 697.0,678.0 L 698.0,679.0" style="stroke:#050105; fill:none;"/>
	<path d="M 825.0,678.0 L 821.0,684.0" style="stroke:#050105; fill:none;"/>
	<path d="M 681.0,680.0 L 681.0,682.0" style="stroke:#050105; fill:none;"/>
	<path d="M 717.0,680.0 L 717.0,681.0" style="stroke:#050105; fill:none;"/>
	<path d="M 675.0,682.0 L 678.0,682.0" style="stroke:#050105; fill:none;"/>
	<path d="M 343.0,684.0 L 345.0,682.0" style="stroke:#050105; fill:none;"/>
	<path d="M 633.0,682.0 L 634.0,682.0" style="stroke:#050105; fill:none;"/>
	<path d="M 622.0,683.0 L 622.0,684.0" style="stroke:#050105; fill:none;"/>
	<path d="M 638.0,683.0 L 643.0,684.0" style="stroke:#050105; fill:none;"/>
	<path d="M 655.0,683.0 L 654.0,684.0" style="stroke:#050105; fill:none;"/>
	<path d="M 618.0,684.0 L 620.0,684.0" style="stroke:#050105; fill:none;"/>
	<path d="M 649.0,684.0 L 651.0,684.0" style="stroke:#050105; fill:none;"/>
	<path d="M 592.0,685.0 L 589.0,687.0" style="stroke:#050105; fill:none;"/>
	<path d="M 594.0,686.0 L 598.0,686.0" style="stroke:#050105; fill:none;"/>
	<path d="M 602.0,686.0 L 608.0,686.0" style="stroke:#050105; fill:none;"/>
	<path d="M 346.0,687.0 L 353.0,703.0" style="stroke:#050105; fill:none;"/>
	<path d="M 821.0,688.0 L 819.0,693.0" style="stroke:#050105; fill:none;"/>
	<path d="M 562.0,694.0 L 560.0,696.0" style="stroke:#050105; fill:none;"/>
	<path d="M 540.0,695.0 L 540.0,697.0" style="stroke:#050105; fill:none;"/>
	<path d="M 544.0,696.0 L 547.0,697.0" style="stroke:#050105; fill:none;"/>
	<path d="M 552.0,697.0 L 554.0,698.0" style="stroke:#050105; fill:none;"/>
	<path d="M 816.0,698.0 L 816.0,700.0 L 814.0,701.0 L 815.0,702.0" style="stroke:#050105; fill:none;"/>
	<path d="M 814.0,701.0 L 804.0,712.0" style="stroke:#050105; fill:none;"/>
	<path d="M 355.0,704.0 L 354.0,710.0" style="stroke:#050105; fill:none;"/>
	<path d="M 357.0,710.0 L 357.0,711.0" style="stroke:#050105; fill:none;"/>
	<path d="M 359.0,713.0 L 361.0,716.0" style="stroke:#050105; fill:none;"/>
	<path d="M 811.0,714.0 L 812.0,715.0" style="stroke:#050105; fill:none;"/>
	<path d="M 801.0,715.0 L 802.0,716.0" style="stroke:#050105; fill:none;"/>
	<path d="M 356.0,718.0 L 357.0,720.0" style="stroke:#050105; fill:none;"/>
	<path d="M 362.0,719.0 L 363.0,719.0" style="stroke:#050105; fill:none;"/>
	<path d="M 799.0,720.0 L 799.0,722.0" style="stroke:#050105; fill:none;"/>
	<path d="M 366.0,722.0 L 367.0,727.0" style="stroke:#050105; fill:none;"/>
	<path d="M 646.0,722.0 L 647.0,723.0" style="stroke:#050105; fill:none;"/>
	<path d="M 798.0,725.0 L 796.0,728.0" style="stroke:#050105; fill:none;"/>
	<path d="M 371.0,732.0 L 373.0,734.0" style="stroke:#050105; fill:none;"/>
	<path d="M 794.0,734.0 L 793.0,736.0" style="stroke:#050105; fill:none;"/>
	<path d="M 376.0,739.0 L 378.0,739.0" style="stroke:#050105; fill:none;"/>
	<path d="M 381.0,746.0 L 389.0,751.0" style="stroke:#050105; fill:none;"/>
	<path d="M 790.0,744.0 L 789.0,745.0" style="stroke:#050105; fill:none;"/>
	<path d="M 385.0,748.0 L 385.0,750.0" style="stroke:#050105; fill:none;"/>
	<path d="M 787.0,750.0 L 788.0,750.0" style="stroke:#050105; fill:none;"/>
	<path d="M 392.0,753.0 L 397.0,756.0" style="stroke:#050105; fill:none;"/>
	<path d="M 785.0,755.0 L 782.0,763.0" style="stroke:#050105; fill:none;"/>
	<path d="M 402.0,760.0 L 404.0,763.0" style="stroke:#050105; fill:none;"/>
	<path d="M 407.0,767.0 L 410.0,769.0" style="stroke:#050105; fill:none;"/>
	<path d="M 412.0,771.0 L 415.0,771.0" style="stroke:#050105; fill:none;"/>
	<path d="M 778.0,770.0 L 778.0,771.0" style="stroke:#050105; fill:none;"/>
	<path d="M 422.0,778.0 L 426.0,780.0" style="stroke:#050105; fill:none;"/>
	<path d="M 428.0,781.0 L 428.0,782.0" style="stroke:#050105; fill:none;"/>
	<path d="M 431.0,784.0 L 432.0,784.0" style="stroke:#050105; fill:none;"/>
	<path d="M 766.0,788.0 L 767.0,788.0" style="stroke:#050105; fill:none;"/>
	<path d="M 438.0,789.0 L 438.0,790.0" style="stroke:#050105; fill:none;"/>
	<path d="M 764.0,792.0 L 765.0,792.0" style="stroke:#050105; fill:none;"/>
	<path d="M 445.0,796.0 L 446.0,796.0" style="stroke:#050105; fill:none;"/>
	<path d="M 759.0,799.0 L 762.0,796.0" style="stroke:#050105; fill:none;"/>
	<path d="M 448.0,799.0 L 450.0,798.0" style="stroke:#050105; fill:none;"/>
	<path d="M 455.0,802.0 L 457.0,804.0" style="stroke:#050105; fill:none;"/>
	<path d="M 459.0,806.0 L 461.0,808.0" style="stroke:#050105; fill:none;"/>
	<path d="M 461.0,806.0 L 462.0,806.0" style="stroke:#050105; fill:none;"/>
	<path d="M 463.0,808.0 L 466.0,811.0" style="stroke:#050105; fill:none;"/>
	<path d="M 468.0,811.0 L 468.0,813.0" style="stroke:#050105; fill:none;"/>
	<path d="M 471.0,814.0 L 473.0,815.0" style="stroke:#050105; fill:none;"/>
	<path d="M 486.0,824.0 L 486.0,826.0" style="stroke:#050105; fill:none;"/>
	<path d="M 495.0,831.0 L 499.0,833.0" style="stroke:#050105; fill:none;"/>
	<path d="M 503.0,836.0 L 507.0,837.0" style="stroke:#050105; fill:none;"/>
	<path d="M 737.0,837.0 L 736.0,838.0" style="stroke:#050105; fill:none;"/>
	<path d="M 734.0,841.0 L 730.0,846.0" style="stroke:#050105; fill:none;"/>
	<path d="M 513.0,842.0 L 516.0,845.0" style="stroke:#050105; fill:none;"/>
	<path d="M 521.0,847.0 L 521.0,848.0" style="stroke:#050105; fill:none;"/>
	<path d="M 726.0,847.0 L 727.0,847.0" style="stroke:#050105; fill:none;"/>
	<path d="M 526.0,850.0 L 526.0,851.0" style="stroke:#050105; fill:none;"/>
	<path d="M 726.0,850.0 L 727.0,850.0" style="stroke:#050105; fill:none;"/>
	<path d="M 722.0,853.0 L 724.0,851.0" style="stroke:#050105; fill:none;"/>
	<path d="M 529.0,853.0 L 531.0,854.0" style="stroke:#050105; fill:none;"/>
	<path d="M 539.0,858.0 L 540.0,860.0" style="stroke:#050105; fill:none;"/>
	<path d="M 543.0,864.0 L 548.0,865.0" style="stroke:#050105; fill:none;"/>
	<path d="M 708.0,864.0 L 708.0,865.0" style="stroke:#050105; fill:none;"/>
	<path d="M 551.0,865.0 L 551.0,866.0" style="stroke:#050105; fill:none;"/>
	<path d="M 554.0,868.0 L 555.0,870.0" style="stroke:#050105; fill:none;"/>
	<path d="M 698.0,870.0 L 702.0,868.0" style="stroke:#050105; fill:none;"/>
	<path d="M 696.0,872.0 L 693.0,874.0" style="stroke:#050105; fill:none;"/>
	<path d="M 561.0,873.0 L 567.0,877.0" style="stroke:#050105; fill:none;"/>
	<path d="M 687.0,877.0 L 690.0,876.0" style="stroke:#050105; fill:none;"/>
	<path d="M 571.0,877.0 L 573.0,879.0" style="stroke:#050105; fill:none;"/>
	<path d="M 684.0,879.0 L 685.0,879.0" style="stroke:#050105; fill:none;"/>
	<path d="M 681.0,880.0 L 682.0,880.0" style="stroke:#050105; fill:none;"/>
	<path d="M 576.0,881.0 L 584.0,884.0" style="stroke:#050105; fill:none;"/>
	<path d="M 672.0,883.0 L 673.0,883.0" style="stroke:#050105; fill:none;"/>
	<path d="M 592.0,886.0 L 595.0,888.0" style="stroke:#050105; fill:none;"/>
	<path d="M 599.0,887.0 L 598.0,888.0" style="stroke:#050105; fill:none;"/>
	<path d="M 606.0,889.0 L 608.0,890.0" style="stroke:#050105; fill:none;"/>
	<path d="M 631.0,890.0 L 635.0,892.0" style="stroke:#050105; fill:none;"/>
	<path d="M 625.0,892.0 L 627.0,892.0" style="stroke:#050105; fill:none;"/>
	<path d="M 652.0,893.0 L 655.0,892.0" style="stroke:#050105; fill:none;"/>
	<path d="M 647.0,893.0 L 648.0,893.0" style="stroke:#050105; fill:none;"/>
</svg>
