<?xml version="1.0" ?>
<svg baseProfile="full" height="2373" version="1.1" width="2793" xmlns="http://www.w3.org/2000/svg" xmlns:ev="http://www.w3.org/2001/xml-events" xmlns:xlink="http://www.w3.org/1999/xlink">
	<defs/>
	<path d="M 1441.0,72.0 L 1435.0,76.0" style="stroke:#010101; fill:none;"/>
	<path d="M 1427.0,83.0 C 1404.38,109.144 1384.47,125.121 1349.0,127.0" style="stroke:#010101; fill:none;"/>
	<path d="M 1463.0,91.0 L 1462.0,100.0" style="stroke:#010101; fill:none;"/>
	<path d="M 1283.0,94.0 C 1278.61,102.748 1280.54,111.63 1285.0,120.0" style="stroke:#010101; fill:none;"/>
	<path d="M 1303.0,94.0 C 1299.51,102.261 1300.77,111.589 1303.0,120.0" style="stroke:#010101; fill:none;"/>
	<path d="M 1266.0,96.0 L 1263.0,103.0" style="stroke:#010101; fill:none;"/>
	<path d="M 1225.0,111.0 L 1240.0,106.0" style="stroke:#010101; fill:none;"/>
	<path d="M 1464.0,110.0 L 1465.0,111.0" style="stroke:#010101; fill:none;"/>
	<path d="M 1151.0,154.0 L 1226.0,119.0" style="stroke:#010101; fill:none;"/>
	<path d="M 1337.0,124.0 L 1347.0,126.0" style="stroke:#010101; fill:none;"/>
	<path d="M 1529.0,134.0 C 1549.17,157.307 1566.88,180.539 1592.0,199.0" style="stroke:#010101; fill:none;"/>
	<path d="M 1157.0,141.0 L 1167.0,137.0" style="stroke:#010101; fill:none;"/>
	<path d="M 1139.0,144.0 L 1146.0,141.0" style="stroke:#010101; fill:none;"/>
	<path d="M 1549.0,141.0 L 1550.0,142.0" style="stroke:#010101; fill:none;"/>
	<path d="M 1572.0,143.0 L 1591.0,158.0" style="stroke:#010101; fill:none;"/>
	<path d="M 1552.0,146.0 C 1564.28,162.296 1579.46,176.154 1596.0,188.0" style="stroke:#010101; fill:none;"/>
	<path d="M 1617.0,149.0 L 1637.0,154.0" style="stroke:#010101; fill:none;"/>
	<path d="M 1639.0,155.0 L 1640.0,155.0" style="stroke:#010101; fill:none;"/>
	<path d="M 1131.0,173.0 L 1169.0,156.0" style="stroke:#010101; fill:none;"/>
	<path d="M 1674.0,163.0 L 1677.0,164.0" style="stroke:#010101; fill:none;"/>
	<path d="M 1680.0,166.0 L 1682.0,166.0" style="stroke:#010101; fill:none;"/>
	<path d="M 1684.0,168.0 L 1685.0,168.0" style="stroke:#010101; fill:none;"/>
	<path d="M 1687.0,170.0 L 1702.0,183.0" style="stroke:#010101; fill:none;"/>
	<path d="M 1099.0,192.0 L 1108.0,186.0" style="stroke:#010101; fill:none;"/>
	<path d="M 1705.0,186.0 L 1715.0,198.0" style="stroke:#010101; fill:none;"/>
	<path d="M 1733.0,201.0 L 1731.0,219.0" style="stroke:#010101; fill:none;"/>
	<path d="M 1717.0,202.0 L 1729.0,226.0" style="stroke:#010101; fill:none;"/>
	<path d="M 1086.0,234.0 L 1064.0,267.0" style="stroke:#010101; fill:none;"/>
	<path d="M 1073.0,259.0 L 1063.0,286.0" style="stroke:#010101; fill:none;"/>
	<path d="M 1060.0,294.0 L 1059.0,296.0" style="stroke:#010101; fill:none;"/>
	<path d="M 1057.0,301.0 L 1056.0,303.0" style="stroke:#010101; fill:none;"/>
	<path d="M 1072.0,522.0 C 1065.25,526.594 1047.25,533.58 1040.0,529.0 L 1091.0,518.0" style="stroke:#010101; fill:none;"/>
	<path d="M 1172.0,520.0 L 1245.0,589.0" style="stroke:#010101; fill:none;"/>
	<path d="M 1132.0,521.0 L 1195.0,566.662 L 1220.0,586.0" style="stroke:#010101; fill:none;"/>
	<path d="M 1156.0,522.0 C 1183.67,540.286 1209.6,565.604 1233.0,589.0" style="stroke:#010101; fill:none;"/>
	<path d="M 1034.0,538.0 L 1065.0,530.654 L 1105.0,523.0" style="stroke:#010101; fill:none;"/>
	<path d="M 1186.0,523.0 C 1215.22,541.278 1236.48,573.42 1260.0,598.0" style="stroke:#010101; fill:none;"/>
	<path d="M 1121.0,526.0 L 1196.0,573.0" style="stroke:#010101; fill:none;"/>
	<path d="M 1206.0,527.0 L 1253.95,578.0 L 1273.0,600.0 L 1263.86,583.0 L 1233.0,543.0" style="stroke:#010101; fill:none;"/>
	<path d="M 1002.0,544.0 C 1012.69,535.517 1025.83,527.327 1040.0,529.0" style="stroke:#010101; fill:none;"/>
	<path d="M 1038.0,529.0 L 1037.0,534.0 L 1038.0,531.0" style="stroke:#010101; fill:none;"/>
	<path d="M 1129.0,555.0 C 1113.07,552.655 1090.28,543.078 1077.0,534.0 C 1110.31,519.941 1141.37,547.679 1169.0,563.0" style="stroke:#010101; fill:none;"/>
	<path d="M 1014.0,541.0 L 1036.0,531.0" style="stroke:#010101; fill:none;"/>
	<path d="M 1032.0,533.0 L 1036.0,533.0" style="stroke:#010101; fill:none;"/>
	<path d="M 1038.0,533.0 L 1042.0,532.0" style="stroke:#010101; fill:none;"/>
	<path d="M 1050.0,539.0 L 1077.0,534.0" style="stroke:#010101; fill:none;"/>
	<path d="M 1095.0,534.0 L 1152.0,558.0" style="stroke:#010101; fill:none;"/>
	<path d="M 990.0,550.0 L 987.0,549.0 C 992.681,541.008 1001.8,537.462 1011.0,535.0" style="stroke:#010101; fill:none;"/>
	<path d="M 1790.0,539.0 L 1796.0,595.0" style="stroke:#010101; fill:none;"/>
	<path d="M 1251.0,544.0 C 1264.35,561.51 1275.25,584.292 1285.0,604.0" style="stroke:#010101; fill:none;"/>
	<path d="M 1549.0,544.0 C 1544.23,564.196 1545.0,587.321 1545.0,608.0" style="stroke:#010101; fill:none;"/>
	<path d="M 1586.0,547.0 C 1578.6,560.879 1570.67,579.481 1568.0,595.0" style="stroke:#010101; fill:none;"/>
	<path d="M 1573.0,612.0 C 1581.62,586.729 1608.27,558.758 1632.0,547.0" style="stroke:#010101; fill:none;"/>
	<path d="M 1684.0,549.0 C 1694.09,547.126 1703.89,548.517 1714.0,548.961 C 1735.1,549.886 1759.07,551.481 1779.0,559.0 L 1761.0,560.255 L 1707.0,568.0" style="stroke:#010101; fill:none;"/>
	<path d="M 1533.0,549.0 L 1538.0,595.0" style="stroke:#010101; fill:none;"/>
	<path d="M 1602.0,603.0 C 1622.78,582.219 1650.0,558.293 1679.0,550.0" style="stroke:#010101; fill:none;"/>
	<path d="M 986.0,551.0 L 977.0,567.0" style="stroke:#010101; fill:none;"/>
	<path d="M 1587.0,605.0 C 1605.2,586.128 1624.0,565.232 1647.0,552.0" style="stroke:#010101; fill:none;"/>
	<path d="M 1744.0,552.0 L 1744.0,556.0 L 1717.0,557.0" style="stroke:#010101; fill:none;"/>
	<path d="M 1265.0,553.0 C 1270.4,562.254 1283.23,583.321 1280.0,594.0" style="stroke:#010101; fill:none;"/>
	<path d="M 1517.0,556.0 C 1517.0,568.118 1520.09,580.9 1525.0,592.0" style="stroke:#010101; fill:none;"/>
	<path d="M 1744.0,556.0 L 1758.0,559.0" style="stroke:#010101; fill:none;"/>
	<path d="M 1617.0,602.0 C 1637.54,582.345 1666.99,563.479 1695.0,557.0" style="stroke:#010101; fill:none;"/>
	<path d="M 1712.0,557.0 L 1687.0,567.0" style="stroke:#010101; fill:none;"/>
	<path d="M 1775.0,558.0 L 1775.0,560.0" style="stroke:#010101; fill:none;"/>
	<path d="M 1780.0,559.0 L 1790.0,562.0" style="stroke:#010101; fill:none;"/>
	<path d="M 1627.0,602.0 C 1659.45,588.42 1686.66,567.293 1722.0,560.0" style="stroke:#010101; fill:none;"/>
	<path d="M 1781.0,560.0 L 1778.0,561.0" style="stroke:#010101; fill:none;"/>
	<path d="M 1291.0,561.0 L 1292.0,600.0" style="stroke:#010101; fill:none;"/>
	<path d="M 1490.0,561.0 L 1503.0,578.0" style="stroke:#010101; fill:none;"/>
	<path d="M 1300.0,563.0 L 1303.0,606.0" style="stroke:#010101; fill:none;"/>
	<path d="M 1564.0,563.0 L 1553.0,606.0" style="stroke:#010101; fill:none;"/>
	<path d="M 1782.0,563.0 L 1788.0,564.0" style="stroke:#010101; fill:none;"/>
	<path d="M 1646.0,599.0 C 1670.7,581.111 1710.76,569.39 1741.0,567.0" style="stroke:#010101; fill:none;"/>
	<path d="M 1760.0,569.0 L 1758.0,573.0 L 1789.0,571.0" style="stroke:#010101; fill:none;"/>
	<path d="M 1758.0,573.0 C 1748.84,577.204 1724.24,585.174 1715.0,581.0 L 1758.0,571.0" style="stroke:#010101; fill:none;"/>
	<path d="M 1755.0,573.0 L 1755.0,574.0" style="stroke:#010101; fill:none;"/>
	<path d="M 969.0,581.0 L 975.0,576.0" style="stroke:#010101; fill:none;"/>
	<path d="M 1767.0,577.0 L 1792.0,577.0" style="stroke:#010101; fill:none;"/>
	<path d="M 1716.0,582.0 L 1711.0,582.0 L 1715.0,581.0" style="stroke:#010101; fill:none;"/>
	<path d="M 1712.0,583.0 L 1708.0,584.0 L 1711.0,582.0" style="stroke:#010101; fill:none;"/>
	<path d="M 1647.0,602.0 C 1665.58,594.795 1688.05,584.629 1708.0,583.0" style="stroke:#010101; fill:none;"/>
	<path d="M 1281.0,593.0 L 1282.0,597.0" style="stroke:#010101; fill:none;"/>
	<path d="M 1512.0,596.0 L 1520.0,615.0" style="stroke:#010101; fill:none;"/>
	<path d="M 1275.0,600.0 L 1276.0,602.0" style="stroke:#010101; fill:none;"/>
	<path d="M 1289.0,626.0 L 1304.57,654.0 L 1315.0,686.0" style="stroke:#010101; fill:none;"/>
	<path d="M 1069.0,673.0 L 1073.0,681.0 C 1074.17,672.943 1061.22,664.316 1064.93,657.185 C 1068.53,650.276 1083.13,646.083 1090.0,643.587 C 1116.65,633.905 1143.29,631.779 1171.0,637.0" style="stroke:#010101; fill:none;"/>
	<path d="M 1179.0,639.0 C 1187.71,641.753 1196.54,642.576 1205.0,646.41 C 1220.89,653.61 1233.46,666.239 1245.0,679.0" style="stroke:#010101; fill:none;"/>
	<path d="M 1458.0,750.0 C 1466.75,737.61 1471.75,722.217 1479.29,709.0 C 1493.49,684.076 1517.17,657.722 1544.0,646.0" style="stroke:#010101; fill:none;"/>
	<path d="M 1099.0,648.0 C 1100.24,654.662 1102.41,676.182 1113.0,674.927 C 1121.71,673.896 1126.01,663.224 1136.94,665.407 C 1144.29,666.874 1138.74,682.369 1150.0,678.0 L 1144.0,677.0" style="stroke:#010101; fill:none;"/>
	<path d="M 1043.0,651.0 L 1051.0,667.0 L 1063.0,658.0" style="stroke:#010101; fill:none;"/>
	<path d="M 1095.0,653.0 C 1092.85,662.141 1098.46,677.726 1110.0,676.0" style="stroke:#010101; fill:none;"/>
	<path d="M 1121.0,653.0 L 1123.0,667.0" style="stroke:#010101; fill:none;"/>
	<path d="M 1116.0,655.0 L 1121.0,668.0" style="stroke:#010101; fill:none;"/>
	<path d="M 1143.0,655.0 C 1142.52,657.575 1141.37,661.112 1143.03,663.486 C 1147.27,669.551 1170.97,669.224 1174.0,663.0" style="stroke:#010101; fill:none;"/>
	<path d="M 1109.0,661.0 L 1113.0,671.0 L 1119.0,666.0" style="stroke:#010101; fill:none;"/>
	<path d="M 1157.0,661.0 L 1157.0,666.0" style="stroke:#010101; fill:none;"/>
	<path d="M 1078.0,663.0 C 1085.87,674.56 1091.02,690.645 1107.0,677.0" style="stroke:#010101; fill:none;"/>
	<path d="M 1082.0,664.0 L 1081.0,666.0" style="stroke:#010101; fill:none;"/>
	<path d="M 1142.0,664.0 L 1140.0,666.0" style="stroke:#010101; fill:none;"/>
	<path d="M 1051.0,668.0 L 1038.0,684.0 L 1027.0,670.0" style="stroke:#010101; fill:none;"/>
	<path d="M 1156.0,667.0 L 1156.0,672.0 C 1145.63,672.001 1134.41,668.587 1126.0,676.0 L 1130.0,678.0 C 1125.04,693.524 1112.89,704.864 1117.56,723.0 C 1124.29,749.158 1152.27,752.215 1174.0,751.735 C 1179.91,751.604 1189.46,754.441 1194.58,751.153 C 1206.78,743.305 1215.22,727.664 1214.95,713.0 C 1214.85,707.953 1211.19,700.812 1212.7,696.059 C 1214.37,690.788 1219.69,693.156 1223.0,695.0 C 1213.74,699.795 1210.47,683.56 1199.0,690.0 L 1198.0,689.0 L 1201.0,685.0 C 1198.01,685.322 1197.32,686.007 1197.0,689.0" style="stroke:#010101; fill:none;"/>
	<path d="M 1561.0,732.0 C 1586.05,711.604 1608.43,686.475 1639.0,674.015 C 1658.37,666.121 1676.98,667.597 1697.0,671.255 C 1730.84,677.438 1760.78,688.966 1790.0,707.0" style="stroke:#010101; fill:none;"/>
	<path d="M 1051.0,668.0 C 1055.48,672.811 1058.41,682.186 1064.02,685.389 C 1067.26,687.239 1073.82,686.214 1073.0,682.0" style="stroke:#010101; fill:none;"/>
	<path d="M 1124.0,668.0 L 1125.0,676.0" style="stroke:#010101; fill:none;"/>
	<path d="M 1192.0,676.0 C 1188.54,682.391 1181.32,684.23 1175.0,681.0 L 1180.0,677.0 C 1177.7,676.344 1166.7,670.482 1175.15,669.782 C 1180.67,669.326 1190.88,678.143 1195.0,674.0" style="stroke:#010101; fill:none;"/>
	<path d="M 1811.0,670.0 C 1823.46,696.646 1829.11,726.177 1841.78,753.0 C 1870.46,813.721 1917.34,854.613 1978.0,882.0" style="stroke:#010101; fill:none;"/>
	<path d="M 1113.0,671.0 L 1113.0,675.0" style="stroke:#010101; fill:none;"/>
	<path d="M 1150.0,678.0 L 1157.0,678.0 L 1157.0,673.0 L 1171.0,674.0" style="stroke:#010101; fill:none;"/>
	<path d="M 1006.0,674.0 C 1013.69,681.532 1022.65,686.813 1031.0,693.39 C 1034.22,695.925 1037.05,700.361 1041.0,701.762 C 1045.22,703.258 1051.94,698.769 1050.0,694.0 C 1048.2,689.556 1042.68,686.705 1039.0,684.0" style="stroke:#010101; fill:none;"/>
	<path d="M 1046.0,674.0 C 1050.34,678.756 1057.09,688.387 1064.0,687.0" style="stroke:#010101; fill:none;"/>
	<path d="M 1145.0,674.0 L 1146.0,675.0" style="stroke:#010101; fill:none;"/>
	<path d="M 1116.0,677.0 L 1124.0,677.0" style="stroke:#010101; fill:none;"/>
	<path d="M 1131.0,677.0 L 1140.0,677.0" style="stroke:#010101; fill:none;"/>
	<path d="M 1180.0,677.0 L 1197.0,682.0 L 1193.0,680.0" style="stroke:#010101; fill:none;"/>
	<path d="M 1210.0,677.0 L 1206.0,685.0" style="stroke:#010101; fill:none;"/>
	<path d="M 1162.0,680.0 L 1169.0,680.0 L 1158.0,679.0" style="stroke:#010101; fill:none;"/>
	<path d="M 1173.0,678.0 L 1173.0,680.0 L 1169.0,680.0" style="stroke:#010101; fill:none;"/>
	<path d="M 1179.0,679.0 L 1181.0,681.0" style="stroke:#010101; fill:none;"/>
	<path d="M 1174.0,681.0 L 1175.0,681.0" style="stroke:#010101; fill:none;"/>
	<path d="M 1075.0,684.0 L 1086.0,682.0" style="stroke:#010101; fill:none;"/>
	<path d="M 1197.0,682.0 L 1200.0,683.0" style="stroke:#010101; fill:none;"/>
	<path d="M 1184.0,683.0 C 1187.32,685.529 1191.17,688.238 1194.0,684.0" style="stroke:#010101; fill:none;"/>
	<path d="M 1203.0,687.0 L 1204.0,683.0" style="stroke:#010101; fill:none;"/>
	<path d="M 1005.0,685.0 L 1003.0,689.0" style="stroke:#010101; fill:none;"/>
	<path d="M 1228.0,687.0 L 1221.0,693.0" style="stroke:#010101; fill:none;"/>
	<path d="M 1194.0,688.0 L 1196.0,688.0" style="stroke:#010101; fill:none;"/>
	<path d="M 1005.0,690.0 L 1029.0,707.0 C 1017.93,717.454 1007.07,708.758 997.0,701.0" style="stroke:#010101; fill:none;"/>
	<path d="M 1060.0,690.0 L 1053.0,695.0" style="stroke:#010101; fill:none;"/>
	<path d="M 1211.0,690.0 L 1201.0,690.0" style="stroke:#010101; fill:none;"/>
	<path d="M 1221.0,694.0 L 1218.0,697.0" style="stroke:#010101; fill:none;"/>
	<path d="M 1224.0,695.0 L 1227.0,700.0 L 1228.0,697.0" style="stroke:#010101; fill:none;"/>
	<path d="M 1173.0,696.0 C 1175.65,698.771 1178.49,701.604 1180.35,705.0 C 1188.41,719.729 1165.1,729.244 1154.02,723.682 C 1149.26,721.295 1145.1,714.266 1148.94,709.333 C 1151.94,705.468 1159.64,708.875 1163.95,706.991 C 1168.26,705.105 1170.03,699.428 1173.0,696.0" style="stroke:#010101; fill:none;"/>
	<path d="M 1242.0,696.0 L 1235.0,701.0 L 1251.0,717.0 L 1251.0,713.0" style="stroke:#010101; fill:none;"/>
	<path d="M 1221.0,698.0 L 1225.0,700.0" style="stroke:#010101; fill:none;"/>
	<path d="M 1229.0,698.0 L 1235.0,701.0" style="stroke:#010101; fill:none;"/>
	<path d="M 1227.0,701.0 L 1231.0,701.0" style="stroke:#010101; fill:none;"/>
	<path d="M 1230.0,702.0 L 1233.0,705.0 L 1236.0,702.0" style="stroke:#010101; fill:none;"/>
	<path d="M 1041.0,703.0 C 1042.33,707.726 1045.69,710.335 1048.79,714.0 C 1054.67,720.957 1061.55,736.486 1073.0,734.0 C 1068.06,725.797 1062.06,715.787 1066.0,706.0" style="stroke:#010101; fill:none;"/>
	<path d="M 1720.0,705.0 C 1719.95,711.093 1718.85,733.364 1709.99,733.364 C 1705.83,733.365 1705.31,729.1 1703.03,726.753 C 1699.25,722.87 1691.5,725.318 1688.0,728.0 C 1682.94,724.42 1680.3,726.028 1676.0,730.0 C 1684.04,735.787 1696.51,733.948 1706.0,734.0" style="stroke:#010101; fill:none;"/>
	<path d="M 1041.0,706.0 C 1036.24,709.69 1033.59,715.957 1028.81,719.062 C 1016.22,727.247 997.02,718.745 986.0,712.0" style="stroke:#010101; fill:none;"/>
	<path d="M 1235.0,706.0 L 1246.0,710.0" style="stroke:#010101; fill:none;"/>
	<path d="M 1030.0,707.0 L 1034.0,708.0" style="stroke:#010101; fill:none;"/>
	<path d="M 1666.0,708.0 C 1664.37,716.389 1662.76,731.491 1676.0,730.0" style="stroke:#010101; fill:none;"/>
	<path d="M 1696.0,708.0 L 1692.0,724.0" style="stroke:#010101; fill:none;"/>
	<path d="M 1677.0,709.0 C 1680.86,718.157 1676.35,721.7 1670.0,728.0" style="stroke:#010101; fill:none;"/>
	<path d="M 1245.0,712.0 L 1249.0,714.0" style="stroke:#010101; fill:none;"/>
	<path d="M 1322.0,712.0 C 1324.09,728.572 1325.1,743.408 1323.0,760.0" style="stroke:#010101; fill:none;"/>
	<path d="M 1710.0,715.0 L 1704.0,726.0" style="stroke:#010101; fill:none;"/>
	<path d="M 1761.0,715.0 L 1755.0,729.0 L 1760.0,725.0" style="stroke:#010101; fill:none;"/>
	<path d="M 1254.0,718.0 C 1264.4,728.41 1271.64,749.605 1251.0,755.265 C 1232.77,760.266 1214.17,753.0 1196.0,753.0" style="stroke:#010101; fill:none;"/>
	<path d="M 1252.0,719.0 L 1258.0,741.0" style="stroke:#010101; fill:none;"/>
	<path d="M 1680.0,722.0 L 1680.0,724.0" style="stroke:#010101; fill:none;"/>
	<path d="M 1698.0,726.0 L 1698.0,733.0" style="stroke:#010101; fill:none;"/>
	<path d="M 1025.0,730.0 L 1043.74,728.032 L 1054.0,739.0 L 1043.0,744.0" style="stroke:#010101; fill:none;"/>
	<path d="M 1688.0,728.0 L 1688.0,733.0" style="stroke:#010101; fill:none;"/>
	<path d="M 1755.0,729.0 C 1746.85,737.343 1740.89,744.372 1750.0,754.0 C 1747.13,756.875 1742.94,760.005 1741.64,764.0 C 1739.46,770.711 1741.94,777.844 1738.82,785.0 C 1729.95,805.36 1695.03,829.805 1673.0,813.0" style="stroke:#010101; fill:none;"/>
	<path d="M 1639.0,745.0 C 1637.31,738.579 1629.72,735.631 1624.0,733.0 L 1627.0,741.0 C 1622.78,741.064 1621.12,738.96 1620.0,735.0 L 1611.0,738.0 C 1614.61,744.181 1617.11,742.298 1622.74,744.616 C 1630.37,747.756 1631.04,752.069 1639.0,745.0 L 1648.0,749.0 C 1651.14,744.239 1651.72,740.097 1649.0,735.0 L 1669.0,731.0" style="stroke:#010101; fill:none;"/>
	<path d="M 1043.0,732.0 L 1045.0,732.0" style="stroke:#010101; fill:none;"/>
	<path d="M 1073.0,733.0 C 1086.76,748.378 1105.58,749.92 1125.0,750.259 C 1131.14,750.366 1137.39,752.936 1143.0,750.0" style="stroke:#010101; fill:none;"/>
	<path d="M 1621.0,734.0 L 1623.0,734.0" style="stroke:#010101; fill:none;"/>
	<path d="M 1713.0,734.0 L 1743.0,744.0" style="stroke:#010101; fill:none;"/>
	<path d="M 1637.0,737.0 L 1649.0,735.0" style="stroke:#010101; fill:none;"/>
	<path d="M 1072.0,736.0 L 1075.0,738.0" style="stroke:#010101; fill:none;"/>
	<path d="M 1041.0,741.0 L 1050.0,738.0" style="stroke:#010101; fill:none;"/>
	<path d="M 1254.0,738.0 L 1245.0,755.0" style="stroke:#010101; fill:none;"/>
	<path d="M 1614.0,745.0 C 1607.55,746.922 1605.02,746.805 1600.0,742.0 L 1611.0,738.0" style="stroke:#010101; fill:none;"/>
	<path d="M 1631.0,739.0 L 1627.0,741.0" style="stroke:#010101; fill:none;"/>
	<path d="M 1055.0,741.0 L 1057.0,742.0" style="stroke:#010101; fill:none;"/>
	<path d="M 1768.0,741.0 L 1752.0,754.0 C 1762.76,762.904 1763.56,756.692 1774.0,752.589 C 1781.2,749.758 1789.55,748.686 1797.0,746.0" style="stroke:#010101; fill:none;"/>
	<path d="M 1605.0,748.0 C 1598.54,750.472 1585.17,757.822 1580.0,752.0 L 1600.0,742.0" style="stroke:#010101; fill:none;"/>
	<path d="M 1624.0,742.0 L 1624.0,744.0" style="stroke:#010101; fill:none;"/>
	<path d="M 1046.0,755.0 C 1047.07,743.755 1055.86,746.238 1063.17,748.006 C 1074.78,750.815 1085.7,755.402 1097.0,758.0" style="stroke:#010101; fill:none;"/>
	<path d="M 1258.0,746.0 L 1253.0,749.0" style="stroke:#010101; fill:none;"/>
	<path d="M 1625.0,748.0 C 1613.79,758.85 1595.05,762.67 1582.0,772.335 C 1578.41,774.992 1571.16,777.308 1569.93,782.043 C 1568.26,788.505 1578.77,793.531 1583.0,796.526 C 1590.46,801.809 1602.47,800.722 1611.0,802.681 C 1619.69,804.675 1627.52,810.405 1635.0,815.0" style="stroke:#010101; fill:none;"/>
	<path d="M 1648.0,749.0 C 1642.29,775.741 1639.06,799.979 1670.0,812.0" style="stroke:#010101; fill:none;"/>
	<path d="M 1035.0,760.0 L 1045.0,752.0" style="stroke:#010101; fill:none;"/>
	<path d="M 1578.0,754.0 L 1574.0,759.0 L 1580.0,757.0 L 1577.0,755.0" style="stroke:#010101; fill:none;"/>
	<path d="M 1578.0,753.0 L 1578.0,754.0" style="stroke:#010101; fill:none;"/>
	<path d="M 1071.0,760.0 L 1080.0,753.0" style="stroke:#010101; fill:none;"/>
	<path d="M 1750.0,754.0 L 1752.0,754.0" style="stroke:#010101; fill:none;"/>
	<path d="M 1074.0,766.0 C 1076.09,759.863 1080.66,757.166 1086.0,754.0" style="stroke:#010101; fill:none;"/>
	<path d="M 1089.0,757.0 L 1084.0,761.0" style="stroke:#010101; fill:none;"/>
	<path d="M 1693.1,759.067 C 1698.46,756.382 1710.4,760.997 1711.64,767.015 C 1713.21,774.612 1705.31,785.15 1699.0,788.312 C 1691.17,792.231 1667.19,784.705 1670.71,773.148 C 1672.1,768.594 1680.49,770.536 1683.98,768.269 C 1687.64,765.891 1689.25,760.998 1693.1,759.067" style="stroke:#010101; fill:none;"/>
	<path d="M 1101.0,759.0 L 1096.0,768.0" style="stroke:#010101; fill:none;"/>
	<path d="M 1815.0,759.0 C 1806.5,766.757 1784.7,765.972 1781.79,778.0 C 1779.2,788.692 1795.02,790.393 1800.67,794.013 C 1804.75,796.624 1805.47,802.495 1809.06,805.786 C 1817.0,813.078 1832.39,813.502 1842.0,810.0" style="stroke:#010101; fill:none;"/>
	<path d="M 1104.0,765.0 L 1112.0,760.0" style="stroke:#010101; fill:none;"/>
	<path d="M 1166.0,768.0 L 1172.0,760.0" style="stroke:#010101; fill:none;"/>
	<path d="M 1573.0,760.0 C 1569.57,764.047 1563.41,766.122 1566.0,772.0 L 1565.0,768.0" style="stroke:#010101; fill:none;"/>
	<path d="M 1128.0,769.0 L 1141.0,761.0" style="stroke:#010101; fill:none;"/>
	<path d="M 1160.0,761.0 L 1152.0,769.0" style="stroke:#010101; fill:none;"/>
	<path d="M 1764.0,761.0 C 1765.89,769.668 1772.8,774.45 1781.0,777.0" style="stroke:#010101; fill:none;"/>
	<path d="M 1148.0,764.0 L 1153.0,762.0" style="stroke:#010101; fill:none;"/>
	<path d="M 1190.0,762.0 L 1190.0,763.0" style="stroke:#010101; fill:none;"/>
	<path d="M 1215.0,762.0 L 1219.0,762.0" style="stroke:#010101; fill:none;"/>
	<path d="M 1573.0,769.0 L 1594.0,762.0" style="stroke:#010101; fill:none;"/>
	<path d="M 1177.0,763.0 L 1176.0,765.0" style="stroke:#010101; fill:none;"/>
	<path d="M 1048.0,764.0 C 1049.18,773.119 1052.81,779.261 1059.0,786.0" style="stroke:#010101; fill:none;"/>
	<path d="M 1120.0,764.0 L 1119.0,768.0" style="stroke:#010101; fill:none;"/>
	<path d="M 1453.0,769.0 C 1451.23,791.373 1448.71,814.838 1454.0,837.0" style="stroke:#010101; fill:none;"/>
	<path d="M 1582.0,799.0 C 1572.31,798.577 1562.6,794.994 1555.0,788.985 C 1552.24,786.801 1547.5,783.342 1548.71,779.184 C 1550.11,774.39 1558.77,770.702 1563.0,769.0" style="stroke:#010101; fill:none;"/>
	<path d="M 1567.0,771.0 L 1569.0,771.0" style="stroke:#010101; fill:none;"/>
	<path d="M 1127.0,772.0 L 1127.0,773.0" style="stroke:#010101; fill:none;"/>
	<path d="M 1836.0,774.0 L 1811.0,792.0 C 1819.78,798.341 1824.28,793.674 1833.0,792.618 C 1835.61,792.302 1837.52,794.651 1840.0,795.026 C 1845.13,795.804 1851.06,791.74 1855.0,789.0" style="stroke:#010101; fill:none;"/>
	<path d="M 1120.0,809.0 C 1132.62,805.269 1147.0,805.443 1160.0,802.576 C 1184.8,797.106 1207.63,788.715 1231.0,779.0" style="stroke:#010101; fill:none;"/>
	<path d="M 1803.0,792.0 L 1811.0,792.0" style="stroke:#010101; fill:none;"/>
	<path d="M 1856.0,792.0 L 1852.0,792.0" style="stroke:#010101; fill:none;"/>
	<path d="M 1828.0,797.0 L 1838.0,796.0" style="stroke:#010101; fill:none;"/>
	<path d="M 1072.0,798.0 L 1089.0,803.0" style="stroke:#010101; fill:none;"/>
	<path d="M 1550.0,800.0 L 1569.0,806.0" style="stroke:#010101; fill:none;"/>
	<path d="M 1805.0,802.0 C 1802.0,805.089 1799.46,809.552 1795.87,811.915 C 1786.5,818.073 1772.65,818.71 1762.0,821.373 C 1735.75,827.935 1711.13,832.321 1684.0,831.996 C 1674.68,831.885 1664.83,828.486 1656.0,825.656 C 1653.13,824.736 1647.32,821.192 1644.36,822.417 C 1641.57,823.572 1643.49,828.003 1644.0,830.0" style="stroke:#010101; fill:none;"/>
	<path d="M 1118.0,808.0 L 1115.0,809.0" style="stroke:#010101; fill:none;"/>
	<path d="M 1608.0,813.0 L 1604.0,818.0" style="stroke:#010101; fill:none;"/>
	<path d="M 1615.0,814.0 L 1611.0,823.0" style="stroke:#010101; fill:none;"/>
	<path d="M 1810.0,820.0 L 1809.0,816.0 L 1814.0,817.0 L 1809.0,822.0 L 1815.0,826.0" style="stroke:#010101; fill:none;"/>
	<path d="M 1639.0,817.0 L 1644.0,821.0" style="stroke:#010101; fill:none;"/>
	<path d="M 1799.0,817.0 L 1808.0,817.0" style="stroke:#010101; fill:none;"/>
	<path d="M 1814.0,817.0 L 1823.0,822.0" style="stroke:#010101; fill:none;"/>
	<path d="M 1813.0,820.0 L 1818.0,823.0" style="stroke:#010101; fill:none;"/>
	<path d="M 1780.0,826.0 L 1790.0,828.0 C 1793.93,820.783 1801.91,821.104 1809.0,822.0" style="stroke:#010101; fill:none;"/>
	<path d="M 1785.0,826.0 L 1791.0,823.0" style="stroke:#010101; fill:none;"/>
	<path d="M 1796.0,824.0 L 1806.0,830.0" style="stroke:#010101; fill:none;"/>
	<path d="M 1778.0,843.0 L 1767.0,827.0 C 1775.36,826.02 1784.41,834.53 1790.0,840.0" style="stroke:#010101; fill:none;"/>
	<path d="M 1762.0,831.0 L 1767.0,827.0" style="stroke:#010101; fill:none;"/>
	<path d="M 1760.0,856.0 L 1754.0,830.0 L 1761.0,831.0" style="stroke:#010101; fill:none;"/>
	<path d="M 1791.0,829.0 L 1795.0,831.0" style="stroke:#010101; fill:none;"/>
	<path d="M 1765.0,831.0 L 1766.0,832.0" style="stroke:#010101; fill:none;"/>
	<path d="M 1655.0,832.0 L 1655.0,834.0" style="stroke:#010101; fill:none;"/>
	<path d="M 1666.0,833.0 L 1663.0,847.0" style="stroke:#010101; fill:none;"/>
	<path d="M 1732.0,833.0 L 1754.0,837.0" style="stroke:#010101; fill:none;"/>
	<path d="M 1763.0,833.0 L 1764.0,834.0" style="stroke:#010101; fill:none;"/>
	<path d="M 1660.0,834.0 L 1659.0,839.0" style="stroke:#010101; fill:none;"/>
	<path d="M 1737.0,835.0 L 1738.0,839.0" style="stroke:#010101; fill:none;"/>
	<path d="M 1745.0,835.0 L 1749.0,839.0" style="stroke:#010101; fill:none;"/>
	<path d="M 1755.0,835.0 L 1756.0,838.0" style="stroke:#010101; fill:none;"/>
	<path d="M 1718.0,836.0 C 1727.74,839.621 1734.69,847.88 1739.18,857.0 C 1740.7,860.08 1740.86,866.931 1743.6,868.958 C 1746.47,871.081 1752.81,868.793 1756.0,868.246 C 1769.25,865.973 1780.63,859.806 1793.0,855.0" style="stroke:#010101; fill:none;"/>
	<path d="M 1727.0,836.0 L 1735.0,847.0" style="stroke:#010101; fill:none;"/>
	<path d="M 1673.0,838.0 L 1672.0,852.0" style="stroke:#010101; fill:none;"/>
	<path d="M 1685.0,838.0 L 1685.0,847.0" style="stroke:#010101; fill:none;"/>
	<path d="M 1679.0,839.0 L 1680.0,844.0" style="stroke:#010101; fill:none;"/>
	<path d="M 1698.0,839.0 C 1703.01,843.279 1706.47,846.433 1708.0,853.0" style="stroke:#010101; fill:none;"/>
	<path d="M 1714.0,839.0 L 1719.0,842.0" style="stroke:#010101; fill:none;"/>
	<path d="M 1704.0,840.0 L 1705.0,843.0" style="stroke:#010101; fill:none;"/>
	<path d="M 1711.0,841.0 L 1714.0,844.0" style="stroke:#010101; fill:none;"/>
	<path d="M 1704.0,845.0 L 1705.0,848.0" style="stroke:#010101; fill:none;"/>
	<path d="M 1601.0,848.0 L 1634.0,865.0" style="stroke:#010101; fill:none;"/>
	<path d="M 1705.0,848.0 L 1706.0,851.0" style="stroke:#010101; fill:none;"/>
	<path d="M 1706.0,851.0 L 1707.0,880.0 C 1687.35,881.03 1664.83,875.294 1646.0,870.0" style="stroke:#010101; fill:none;"/>
	<path d="M 1742.0,869.0 L 1722.0,871.0" style="stroke:#010101; fill:none;"/>
	<path d="M 1708.0,881.0 L 1727.0,881.0" style="stroke:#010101; fill:none;"/>
	<path d="M 2025.0,929.0 C 2018.74,962.236 2013.38,994.819 2015.0,1029.0" style="stroke:#010101; fill:none;"/>
	<path d="M 2028.0,952.0 L 2029.04,1008.0 L 2032.0,1038.0" style="stroke:#010101; fill:none;"/>
	<path d="M 2018.0,965.0 L 2020.0,960.0" style="stroke:#010101; fill:none;"/>
	<path d="M 1450.0,961.0 C 1450.77,978.985 1454.21,1000.62 1444.52,1017.0 C 1438.92,1026.47 1430.43,1033.2 1422.0,1040.0" style="stroke:#010101; fill:none;"/>
	<path d="M 2019.0,966.0 C 2022.72,974.353 2020.4,990.798 2019.97,1000.0 C 2019.83,1003.12 2017.02,1011.63 2022.0,1010.0" style="stroke:#010101; fill:none;"/>
	<path d="M 2013.0,968.0 L 2007.09,1001.0 L 2009.0,1052.0" style="stroke:#010101; fill:none;"/>
	<path d="M 923.0,978.0 L 922.0,980.0" style="stroke:#010101; fill:none;"/>
	<path d="M 2009.0,984.0 L 2008.0,989.0" style="stroke:#010101; fill:none;"/>
	<path d="M 2011.0,990.0 L 2011.0,1015.0 L 2013.0,1025.0" style="stroke:#010101; fill:none;"/>
	<path d="M 2029.0,991.0 L 2029.0,992.0" style="stroke:#010101; fill:none;"/>
	<path d="M 2032.0,994.0 L 2032.0,1003.0" style="stroke:#010101; fill:none;"/>
	<path d="M 1233.0,1004.0 C 1224.07,1027.92 1220.09,1055.34 1228.7,1080.0 C 1234.87,1097.71 1245.48,1109.99 1265.0,1110.0" style="stroke:#010101; fill:none;"/>
	<path d="M 1263.0,1006.0 C 1263.0,1012.18 1262.02,1019.24 1264.65,1025.0 C 1272.1,1041.33 1299.78,1055.11 1316.0,1061.0" style="stroke:#010101; fill:none;"/>
	<path d="M 2020.0,1012.0 L 2021.0,1036.0 L 2030.0,1022.0" style="stroke:#010101; fill:none;"/>
	<path d="M 2003.0,1021.0 L 2002.0,1040.0" style="stroke:#010101; fill:none;"/>
	<path d="M 2011.0,1027.0 L 2012.0,1038.0" style="stroke:#010101; fill:none;"/>
	<path d="M 1496.0,1028.0 C 1503.35,1063.6 1507.81,1125.72 1460.0,1134.32 C 1450.04,1136.11 1438.01,1129.35 1428.0,1128.0" style="stroke:#010101; fill:none;"/>
	<path d="M 939.0,1037.0 C 939.0,1058.0 945.802,1077.89 951.116,1098.0 C 958.207,1124.85 965.079,1153.08 975.0,1179.0" style="stroke:#010101; fill:none;"/>
	<path d="M 2020.0,1037.0 L 2009.47,1058.0 L 1992.0,1094.0" style="stroke:#010101; fill:none;"/>
	<path d="M 2032.0,1041.0 L 2032.0,1042.0" style="stroke:#010101; fill:none;"/>
	<path d="M 2002.0,1043.0 L 2006.0,1065.0" style="stroke:#010101; fill:none;"/>
	<path d="M 2019.0,1046.0 L 2019.0,1052.0" style="stroke:#010101; fill:none;"/>
	<path d="M 2030.0,1048.0 L 2028.0,1094.0" style="stroke:#010101; fill:none;"/>
	<path d="M 1360.0,1059.0 L 1380.0,1053.0" style="stroke:#010101; fill:none;"/>
	<path d="M 1270.0,1076.0 C 1272.35,1071.6 1275.04,1069.14 1280.0,1071.0 L 1268.0,1083.0 L 1284.0,1072.0 L 1280.0,1071.0" style="stroke:#010101; fill:none;"/>
	<path d="M 1284.0,1073.0 L 1324.0,1098.0" style="stroke:#010101; fill:none;"/>
	<path d="M 1403.0,1078.0 L 1399.0,1075.0 L 1412.0,1079.0 L 1408.0,1085.0 L 1409.0,1086.0 L 1410.0,1084.0" style="stroke:#010101; fill:none;"/>
	<path d="M 1377.0,1097.0 L 1367.0,1098.0 C 1371.23,1089.95 1388.76,1076.81 1398.0,1076.0" style="stroke:#010101; fill:none;"/>
	<path d="M 1270.0,1078.0 L 1272.0,1080.0" style="stroke:#010101; fill:none;"/>
	<path d="M 1283.0,1079.0 L 1270.0,1083.0" style="stroke:#010101; fill:none;"/>
	<path d="M 1400.0,1079.0 L 1379.0,1096.0" style="stroke:#010101; fill:none;"/>
	<path d="M 1413.0,1079.0 L 1416.0,1081.0 L 1411.0,1085.0" style="stroke:#010101; fill:none;"/>
	<path d="M 1416.0,1081.0 C 1420.64,1082.47 1434.2,1089.11 1430.21,1095.77 C 1428.05,1099.37 1421.53,1100.15 1418.0,1102.0" style="stroke:#010101; fill:none;"/>
	<path d="M 1267.0,1084.0 L 1267.0,1086.0" style="stroke:#010101; fill:none;"/>
	<path d="M 1272.0,1091.0 L 1283.0,1084.0" style="stroke:#010101; fill:none;"/>
	<path d="M 1371.0,1088.0 L 1381.0,1084.0" style="stroke:#010101; fill:none;"/>
	<path d="M 1385.0,1084.0 L 1391.0,1087.0" style="stroke:#010101; fill:none;"/>
	<path d="M 1355.0,1112.0 L 1400.99,1095.3 L 1408.0,1084.0" style="stroke:#010101; fill:none;"/>
	<path d="M 1408.0,1085.0 L 1402.0,1086.0 L 1405.0,1085.0" style="stroke:#010101; fill:none;"/>
	<path d="M 1425.0,1085.0 C 1414.76,1094.19 1408.9,1092.48 1397.0,1089.0 L 1402.0,1086.0" style="stroke:#010101; fill:none;"/>
	<path d="M 2021.0,1085.0 L 2020.0,1091.0" style="stroke:#010101; fill:none;"/>
	<path d="M 1408.0,1090.0 L 1415.0,1087.0" style="stroke:#010101; fill:none;"/>
	<path d="M 1392.0,1089.0 L 1397.0,1089.0" style="stroke:#010101; fill:none;"/>
	<path d="M 1363.0,1114.0 L 1397.0,1102.03 L 1426.0,1092.0" style="stroke:#010101; fill:none;"/>
	<path d="M 1275.0,1094.0 L 1273.0,1096.0" style="stroke:#010101; fill:none;"/>
	<path d="M 1432.0,1096.0 L 1434.0,1099.0" style="stroke:#010101; fill:none;"/>
	<path d="M 2028.0,1096.0 L 2028.0,1105.0" style="stroke:#010101; fill:none;"/>
	<path d="M 1367.0,1098.0 L 1354.0,1105.0" style="stroke:#010101; fill:none;"/>
	<path d="M 930.0,1100.0 L 929.0,1103.0" style="stroke:#010101; fill:none;"/>
	<path d="M 2002.0,1136.0 L 2001.0,1138.0" style="stroke:#010101; fill:none;"/>
	<path d="M 1152.0,1286.0 C 1180.35,1250.28 1221.56,1205.55 1271.0,1202.71 C 1290.12,1201.62 1311.18,1218.29 1330.0,1222.06 C 1343.43,1224.75 1355.63,1216.57 1369.0,1216.0" style="stroke:#010101; fill:none;"/>
	<path d="M 1374.0,1216.0 C 1429.24,1220.4 1467.97,1259.97 1503.0,1298.0" style="stroke:#010101; fill:none;"/>
	<path d="M 1143.0,1313.0 L 1161.0,1313.28 L 1189.0,1313.17 L 1214.0,1317.91 L 1246.83,1316.4 L 1258.0,1324.0 C 1260.4,1319.5 1258.96,1313.24 1262.51,1309.42 C 1266.0,1305.67 1273.27,1304.3 1278.0,1302.81 C 1291.8,1298.45 1312.83,1292.53 1327.0,1297.0 L 1326.0,1308.0" style="stroke:#010101; fill:none;"/>
	<path d="M 1327.0,1297.0 C 1341.47,1297.3 1359.65,1301.93 1373.0,1307.48 C 1378.42,1309.73 1382.42,1314.5 1388.0,1316.36 C 1403.89,1321.66 1422.67,1321.62 1438.0,1328.56 C 1444.97,1331.71 1450.14,1339.47 1457.09,1341.93 C 1484.22,1351.53 1512.44,1349.63 1540.0,1357.0" style="stroke:#010101; fill:none;"/>
	<path d="M 1248.0,1316.0 L 1261.0,1310.0" style="stroke:#010101; fill:none;"/>
	<path d="M 1327.0,1322.0 C 1334.5,1334.92 1356.66,1336.72 1370.0,1337.0" style="stroke:#010101; fill:none;"/>
	<path d="M 1327.0,1324.0 C 1324.15,1326.85 1321.0,1331.11 1317.0,1332.31 C 1312.35,1333.7 1305.77,1331.37 1301.0,1330.99 C 1286.77,1329.85 1272.36,1329.75 1259.0,1324.0" style="stroke:#010101; fill:none;"/>
	<path d="M 1380.0,1339.0 L 1407.0,1329.82 L 1427.0,1338.0" style="stroke:#010101; fill:none;"/>
	<path d="M 1319.0,1332.0 C 1331.69,1339.33 1348.87,1338.02 1363.0,1339.93 C 1382.82,1342.61 1405.06,1351.24 1425.0,1349.91 C 1435.63,1349.2 1448.09,1350.32 1456.0,1342.0" style="stroke:#010101; fill:none;"/>
	<path d="M 1431.0,1340.0 L 1449.0,1346.0" style="stroke:#010101; fill:none;"/>
	<path d="M 1162.0,1366.0 C 1173.27,1400.87 1215.84,1421.27 1248.0,1432.17 C 1276.02,1441.67 1305.77,1446.61 1335.0,1450.72 C 1360.95,1454.37 1386.89,1457.46 1413.0,1452.54 C 1437.36,1447.95 1460.95,1435.89 1484.0,1427.0" style="stroke:#010101; fill:none;"/>
	<path d="M 1926.0,1367.0 L 1926.0,1368.0" style="stroke:#010101; fill:none;"/>
	<path d="M 1914.0,1386.0 L 1914.0,1387.0" style="stroke:#010101; fill:none;"/>
	<path d="M 1889.0,1422.0 L 1885.0,1426.0" style="stroke:#010101; fill:none;"/>
	<path d="M 1493.0,1424.0 L 1496.0,1423.0" style="stroke:#010101; fill:none;"/>
	<path d="M 1872.0,1445.0 L 1850.0,1471.0 C 1842.64,1469.57 1836.01,1480.3 1831.0,1484.83 C 1814.84,1499.46 1797.84,1510.64 1779.0,1521.58 C 1727.97,1551.19 1678.48,1582.94 1628.0,1613.4 C 1599.66,1630.49 1570.2,1645.74 1542.0,1663.0" style="stroke:#010101; fill:none;"/>
	<path d="M 1221.0,1454.0 L 1231.0,1456.0" style="stroke:#010101; fill:none;"/>
	<path d="M 1268.0,1462.0 L 1300.0,1462.0" style="stroke:#010101; fill:none;"/>
	<path d="M 1207.0,1490.0 C 1211.75,1474.01 1234.78,1468.72 1249.0,1465.0" style="stroke:#010101; fill:none;"/>
	<path d="M 1849.0,1468.0 L 1851.0,1468.0" style="stroke:#010101; fill:none;"/>
	<path d="M 1850.0,1471.0 C 1845.0,1494.41 1829.19,1517.14 1818.04,1538.0 C 1804.85,1562.65 1789.32,1585.79 1775.43,1610.0 C 1762.76,1632.08 1751.84,1655.09 1738.86,1677.0 C 1725.54,1699.47 1713.21,1721.91 1703.0,1746.0 C 1699.12,1755.15 1693.69,1765.2 1692.0,1775.0" style="stroke:#010101; fill:none;"/>
	<path d="M 1040.0,1479.0 L 1041.0,1480.0" style="stroke:#010101; fill:none;"/>
	<path d="M 1044.0,1483.0 C 1053.58,1510.55 1076.97,1533.58 1092.56,1558.0 C 1117.42,1596.91 1137.72,1637.96 1175.0,1667.33 C 1240.07,1718.6 1325.16,1719.32 1403.0,1708.29 C 1427.12,1704.87 1451.55,1702.42 1475.0,1695.43 C 1489.84,1691.01 1503.72,1683.86 1518.0,1678.0" style="stroke:#010101; fill:none;"/>
	<path d="M 1026.0,1562.0 L 1025.0,1568.0" style="stroke:#010101; fill:none;"/>
	<path d="M 1029.0,1564.0 C 1018.51,1647.0 1022.28,1730.56 1048.0,1811.0" style="stroke:#010101; fill:none;"/>
	<path d="M 1022.0,1574.0 L 1022.0,1575.0" style="stroke:#010101; fill:none;"/>
	<path d="M 1020.0,1577.0 L 1020.0,1578.0" style="stroke:#010101; fill:none;"/>
	<path d="M 1018.0,1581.0 L 1015.0,1586.0" style="stroke:#010101; fill:none;"/>
	<path d="M 1022.0,1582.0 L 1021.0,1585.0" style="stroke:#010101; fill:none;"/>
	<path d="M 1010.0,1595.0 L 992.0,1610.0" style="stroke:#010101; fill:none;"/>
	<path d="M 1009.0,1607.0 L 933.0,1656.0" style="stroke:#010101; fill:none;"/>
	<path d="M 1526.0,1607.0 C 1523.74,1610.42 1516.61,1621.58 1515.0,1612.0" style="stroke:#010101; fill:none;"/>
	<path d="M 1015.0,1632.0 C 1015.87,1626.11 1017.55,1618.1 1023.0,1615.0" style="stroke:#010101; fill:none;"/>
	<path d="M 982.0,1633.0 L 926.0,1666.0" style="stroke:#010101; fill:none;"/>
	<path d="M 1014.0,1634.0 L 1006.09,1696.0 L 1008.0,1770.0" style="stroke:#010101; fill:none;"/>
	<path d="M 971.0,1650.0 L 908.0,1687.0" style="stroke:#010101; fill:none;"/>
	<path d="M 953.0,1672.0 C 932.761,1684.39 910.569,1695.87 893.0,1712.0" style="stroke:#010101; fill:none;"/>
	<path d="M 939.0,1691.0 L 875.0,1733.0" style="stroke:#010101; fill:none;"/>
	<path d="M 903.0,1693.0 L 904.0,1693.0" style="stroke:#010101; fill:none;"/>
	<path d="M 897.0,1700.0 L 888.0,1713.0" style="stroke:#010101; fill:none;"/>
	<path d="M 886.0,1714.0 L 886.0,1715.0" style="stroke:#010101; fill:none;"/>
	<path d="M 882.0,1718.0 L 881.0,1719.0" style="stroke:#010101; fill:none;"/>
	<path d="M 879.0,1738.0 L 903.0,1723.0" style="stroke:#010101; fill:none;"/>
	<path d="M 1604.0,1743.0 L 1596.0,1777.0" style="stroke:#010101; fill:none;"/>
	<path d="M 816.0,1760.0 L 817.0,1760.0" style="stroke:#010101; fill:none;"/>
	<path d="M 1592.0,1766.0 C 1587.59,1776.24 1585.09,1788.86 1585.0,1800.0" style="stroke:#010101; fill:none;"/>
	<path d="M 1575.0,1794.0 L 1572.0,1806.0" style="stroke:#010101; fill:none;"/>
	<path d="M 1561.0,1801.0 C 1555.65,1826.94 1553.02,1855.51 1553.0,1882.0" style="stroke:#010101; fill:none;"/>
	<path d="M 1571.0,1809.0 L 1566.0,1860.0" style="stroke:#010101; fill:none;"/>
	<path d="M 1598.0,1827.0 L 1570.34,1870.0 L 1538.0,1923.0 L 1538.91,1895.0 L 1544.0,1835.0" style="stroke:#010101; fill:none;"/>
	<path d="M 484.0,1832.0 C 515.391,1832.0 545.344,1838.05 576.0,1844.0" style="stroke:#010101; fill:none;"/>
	<path d="M 503.0,1839.0 L 508.0,1839.0" style="stroke:#010101; fill:none;"/>
	<path d="M 1532.0,1847.0 C 1526.94,1873.89 1526.0,1902.7 1526.0,1930.0" style="stroke:#010101; fill:none;"/>
	<path d="M 509.0,1849.0 L 614.0,1858.0" style="stroke:#010101; fill:none;"/>
	<path d="M 1647.0,1868.0 L 1647.0,1869.0" style="stroke:#010101; fill:none;"/>
	<path d="M 577.0,1869.0 L 630.0,1877.0" style="stroke:#010101; fill:none;"/>
	<path d="M 1511.0,1872.0 L 1510.0,1956.0" style="stroke:#010101; fill:none;"/>
	<path d="M 632.0,1878.0 L 672.0,1883.0" style="stroke:#010101; fill:none;"/>
	<path d="M 158.0,1892.0 C 198.966,1891.77 239.246,1894.89 280.0,1898.83 C 300.158,1900.78 321.069,1901.34 341.0,1905.0" style="stroke:#010101; fill:none;"/>
	<path d="M 108.0,1898.0 L 121.0,1895.0" style="stroke:#010101; fill:none;"/>
	<path d="M 630.0,1897.0 L 675.0,1899.0" style="stroke:#010101; fill:none;"/>
	<path d="M 642.0,1911.0 L 686.0,1917.0" style="stroke:#010101; fill:none;"/>
	<path d="M 1538.0,1923.0 L 1507.0,1980.0 L 1449.0,2094.0" style="stroke:#010101; fill:none;"/>
	<path d="M 669.0,1926.0 L 700.0,1933.0" style="stroke:#010101; fill:none;"/>
	<path d="M 685.0,1941.0 L 694.0,1944.0" style="stroke:#010101; fill:none;"/>
	<path d="M 696.0,1945.0 L 709.0,1948.0" style="stroke:#010101; fill:none;"/>
	<path d="M 711.0,1949.0 L 717.0,1950.0" style="stroke:#010101; fill:none;"/>
	<path d="M 714.0,1953.0 L 734.0,1959.0" style="stroke:#010101; fill:none;"/>
	<path d="M 556.0,1957.0 C 576.408,1965.75 596.75,1976.94 616.0,1988.0 C 628.921,1995.43 641.423,2002.44 650.0,2015.0" style="stroke:#010101; fill:none;"/>
	<path d="M 778.0,2002.0 C 787.373,1998.26 804.395,2006.71 814.0,2009.13 C 850.631,2018.34 887.922,2031.87 920.0,2051.95 C 970.856,2083.78 1019.95,2117.69 1071.0,2149.17 C 1089.3,2160.45 1105.42,2174.17 1125.0,2183.51 C 1161.24,2200.8 1202.83,2209.92 1242.0,2218.0" style="stroke:#010101; fill:none;"/>
	<path d="M 1301.0,2014.0 C 1301.46,2029.81 1312.37,2048.83 1319.0,2063.0" style="stroke:#010101; fill:none;"/>
	<path d="M 651.0,2028.0 C 646.81,2042.87 643.63,2057.91 635.0,2071.0" style="stroke:#010101; fill:none;"/>
	<path d="M 858.0,2083.0 L 843.0,2113.0" style="stroke:#010101; fill:none;"/>
	<path d="M 870.0,2091.0 C 859.948,2105.72 845.203,2116.56 831.0,2127.0" style="stroke:#010101; fill:none;"/>
	<path d="M 1324.0,2093.0 C 1329.3,2094.25 1330.81,2099.14 1332.28,2104.0 C 1335.56,2114.89 1337.68,2126.11 1341.02,2137.0 C 1344.17,2147.22 1344.76,2161.73 1349.44,2170.91 C 1352.86,2177.61 1359.96,2183.31 1364.83,2189.0 C 1377.48,2203.79 1390.21,2218.21 1404.0,2232.0" style="stroke:#010101; fill:none;"/>
	<path d="M 871.0,2099.0 C 867.082,2112.31 853.774,2125.79 843.0,2134.0" style="stroke:#010101; fill:none;"/>
	<path d="M 1451.0,2106.0 C 1445.19,2121.48 1443.58,2139.66 1441.83,2156.0 C 1438.48,2187.31 1438.43,2216.92 1443.0,2248.0" style="stroke:#010101; fill:none;"/>
	<path d="M 879.0,2108.0 C 863.447,2128.41 838.909,2144.58 820.0,2162.0" style="stroke:#010101; fill:none;"/>
	<path d="M 882.0,2123.0 L 831.0,2168.0" style="stroke:#010101; fill:none;"/>
	<path d="M 863.0,2146.0 C 856.488,2158.55 842.002,2170.91 832.0,2181.0" style="stroke:#010101; fill:none;"/>
	<path d="M 1543.0,2153.0 L 1543.0,2154.0" style="stroke:#010101; fill:none;"/>
	<path d="M 1543.0,2160.0 L 1543.0,2161.0" style="stroke:#010101; fill:none;"/>
	<path d="M 1543.0,2164.0 L 1544.0,2166.0" style="stroke:#010101; fill:none;"/>
	<path d="M 858.0,2168.0 L 825.0,2199.0" style="stroke:#010101; fill:none;"/>
	<path d="M 1544.0,2168.0 C 1544.59,2174.72 1549.86,2180.59 1550.14,2187.0 C 1550.31,2190.89 1547.25,2195.16 1546.41,2199.0 C 1544.28,2208.77 1542.18,2219.05 1541.17,2229.0 C 1536.29,2277.08 1531.0,2324.74 1531.0,2373.0" style="stroke:#010101; fill:none;"/>
	<path d="M 864.0,2183.0 L 830.0,2211.0" style="stroke:#010101; fill:none;"/>
	<path d="M 1382.0,2229.0 C 1383.52,2240.75 1386.03,2253.21 1393.0,2263.0" style="stroke:#010101; fill:none;"/>
	<path d="M 1559.0,2232.0 L 1560.0,2240.0" style="stroke:#010101; fill:none;"/>
	<path d="M 1394.0,2240.0 L 1405.0,2284.0" style="stroke:#010101; fill:none;"/>
	<path d="M 1568.0,2242.0 C 1576.09,2258.56 1583.23,2275.42 1591.26,2292.0 C 1598.19,2306.32 1607.26,2321.09 1610.0,2337.0" style="stroke:#010101; fill:none;"/>
	<path d="M 1407.0,2247.0 C 1401.0,2267.3 1412.36,2294.38 1414.0,2315.0" style="stroke:#010101; fill:none;"/>
	<path d="M 1420.0,2249.0 C 1420.0,2275.24 1423.0,2300.87 1423.98,2327.0 C 1424.16,2331.82 1426.34,2350.33 1421.0,2351.0" style="stroke:#010101; fill:none;"/>
	<path d="M 1441.0,2279.0 L 1439.0,2295.0" style="stroke:#010101; fill:none;"/>
	<path d="M 1424.0,2289.0 C 1428.99,2315.9 1430.0,2345.66 1430.0,2373.0" style="stroke:#010101; fill:none;"/>
	<path d="M 1442.0,2291.0 L 1447.0,2337.0" style="stroke:#010101; fill:none;"/>
	<path d="M 1438.0,2298.0 L 1439.0,2373.0" style="stroke:#010101; fill:none;"/>
	<path d="M 1460.0,2298.0 L 1463.0,2337.0" style="stroke:#010101; fill:none;"/>
	<path d="M 1469.0,2325.0 L 1476.0,2356.0" style="stroke:#010101; fill:none;"/>
	<path d="M 1495.0,2333.0 L 1493.0,2370.0" style="stroke:#010101; fill:none;"/>
	<path d="M 1616.0,2349.0 L 1617.0,2350.0" style="stroke:#010101; fill:none;"/>
	<path d="M 1617.0,2352.0 L 1618.0,2353.0" style="stroke:#010101; fill:none;"/>
	<path d="M 1619.0,2355.0 L 1619.0,2356.0" style="stroke:#010101; fill:none;"/>
</svg>
