<?xml version="1.0" ?>
<svg baseProfile="full" height="2373" version="1.1" width="2793" xmlns="http://www.w3.org/2000/svg" xmlns:ev="http://www.w3.org/2001/xml-events" xmlns:xlink="http://www.w3.org/1999/xlink">
	<defs/>
	<path d="M 710.0,402.0 L 725.0,413.0" style="stroke:#010101; fill:none;"/>
	<path d="M 699.0,416.0 L 700.0,416.0" style="stroke:#010101; fill:none;"/>
	<path d="M 702.0,416.0 L 729.0,418.0" style="stroke:#010101; fill:none;"/>
	<path d="M 686.0,418.0 L 697.0,417.0" style="stroke:#010101; fill:none;"/>
	<path d="M 668.0,423.0 L 683.0,419.0" style="stroke:#010101; fill:none;"/>
	<path d="M 657.0,428.0 L 666.0,424.0" style="stroke:#010101; fill:none;"/>
	<path d="M 655.0,429.0 L 654.0,430.0" style="stroke:#010101; fill:none;"/>
	<path d="M 650.0,433.0 L 649.0,434.0" style="stroke:#010101; fill:none;"/>
	<path d="M 624.0,460.0 L 606.0,478.0" style="stroke:#010101; fill:none;"/>
	<path d="M 603.0,479.0 L 603.0,480.0" style="stroke:#010101; fill:none;"/>
	<path d="M 602.0,504.0 L 579.0,513.0" style="stroke:#010101; fill:none;"/>
	<path d="M 1487.0,513.0 C 1493.97,519.842 1502.83,524.707 1509.57,531.591 C 1513.67,535.773 1516.21,541.997 1523.0,541.0 L 1515.0,538.0" style="stroke:#010101; fill:none;"/>
	<path d="M 573.0,532.0 L 630.0,515.0" style="stroke:#010101; fill:none;"/>
	<path d="M 1029.0,520.0 L 1030.0,521.0" style="stroke:#010101; fill:none;"/>
	<path d="M 640.0,522.0 C 617.033,535.355 583.449,542.864 557.0,544.0" style="stroke:#010101; fill:none;"/>
	<path d="M 1032.0,522.0 L 1066.0,538.0 L 1053.0,560.0" style="stroke:#010101; fill:none;"/>
	<path d="M 1508.0,522.0 L 1536.0,535.627 L 1546.0,540.0" style="stroke:#010101; fill:none;"/>
	<path d="M 1425.0,529.0 C 1397.21,547.898 1369.27,565.497 1337.0,575.784 C 1278.52,594.429 1215.11,584.041 1157.0,569.0" style="stroke:#010101; fill:none;"/>
	<path d="M 1513.0,533.0 L 1516.0,536.0" style="stroke:#010101; fill:none;"/>
	<path d="M 987.0,618.0 C 1001.8,586.767 1025.74,559.256 1050.0,535.0 L 1035.48,558.0 L 1015.0,608.0" style="stroke:#010101; fill:none;"/>
	<path d="M 1066.0,538.0 L 1083.0,545.0" style="stroke:#010101; fill:none;"/>
	<path d="M 1058.0,540.0 L 1045.0,570.0 L 1044.0,566.0" style="stroke:#010101; fill:none;"/>
	<path d="M 1524.0,541.0 L 1556.0,558.0 L 1553.0,557.0" style="stroke:#010101; fill:none;"/>
	<path d="M 1547.0,541.0 L 1555.0,544.0" style="stroke:#010101; fill:none;"/>
	<path d="M 1546.0,543.0 L 1588.0,563.0" style="stroke:#010101; fill:none;"/>
	<path d="M 550.0,545.0 L 555.0,544.0" style="stroke:#010101; fill:none;"/>
	<path d="M 1516.0,544.0 L 1545.0,568.201 L 1586.0,590.0" style="stroke:#010101; fill:none;"/>
	<path d="M 1523.0,544.0 L 1568.0,572.0" style="stroke:#010101; fill:none;"/>
	<path d="M 1527.0,554.0 L 1529.0,556.0" style="stroke:#010101; fill:none;"/>
	<path d="M 1531.0,555.0 L 1531.0,557.0" style="stroke:#010101; fill:none;"/>
	<path d="M 1533.0,556.0 L 1575.0,580.0" style="stroke:#010101; fill:none;"/>
	<path d="M 1571.0,557.0 C 1574.43,567.844 1581.39,575.497 1591.0,581.0" style="stroke:#010101; fill:none;"/>
	<path d="M 1011.0,593.0 C 1016.29,581.666 1023.97,567.693 1034.0,560.0" style="stroke:#010101; fill:none;"/>
	<path d="M 1557.0,560.0 L 1577.0,572.0" style="stroke:#010101; fill:none;"/>
	<path d="M 1021.0,568.0 L 1024.0,571.0" style="stroke:#010101; fill:none;"/>
	<path d="M 1042.0,570.0 L 1044.0,573.0 L 1045.0,570.0" style="stroke:#010101; fill:none;"/>
	<path d="M 1594.0,570.0 L 1629.0,592.0" style="stroke:#010101; fill:none;"/>
	<path d="M 1041.0,572.0 C 1036.96,583.858 1026.81,602.334 1030.0,615.0 L 1044.0,574.0" style="stroke:#010101; fill:none;"/>
	<path d="M 1031.0,578.0 C 1021.87,611.439 1011.0,642.759 1011.0,678.0" style="stroke:#010101; fill:none;"/>
	<path d="M 1584.0,578.0 C 1586.17,587.465 1594.14,599.012 1603.0,603.0" style="stroke:#010101; fill:none;"/>
	<path d="M 1557.0,580.0 L 1593.0,598.0" style="stroke:#010101; fill:none;"/>
	<path d="M 482.0,582.0 L 486.0,586.0" style="stroke:#010101; fill:none;"/>
	<path d="M 452.0,591.0 L 453.0,598.0" style="stroke:#010101; fill:none;"/>
	<path d="M 1281.0,591.0 L 1282.0,595.0 L 1284.0,591.0" style="stroke:#010101; fill:none;"/>
	<path d="M 1015.0,593.0 C 1008.05,626.655 1005.0,659.617 1005.0,694.0" style="stroke:#010101; fill:none;"/>
	<path d="M 1631.0,593.0 L 1636.0,596.0" style="stroke:#010101; fill:none;"/>
	<path d="M 1282.0,595.0 C 1281.48,600.965 1280.11,610.104 1276.57,615.0 C 1272.35,620.837 1264.38,624.785 1262.76,632.001 C 1260.64,641.471 1267.72,642.347 1270.8,650.0 C 1272.33,653.784 1270.31,659.061 1270.0,663.0 L 1280.0,665.0" style="stroke:#010101; fill:none;"/>
	<path d="M 1620.0,595.0 L 1625.0,599.0" style="stroke:#010101; fill:none;"/>
	<path d="M 1257.0,597.0 C 1260.44,608.019 1255.51,618.227 1264.0,627.0" style="stroke:#010101; fill:none;"/>
	<path d="M 1638.0,597.0 L 1642.0,600.0" style="stroke:#010101; fill:none;"/>
	<path d="M 1009.0,598.0 L 1004.0,626.0" style="stroke:#010101; fill:none;"/>
	<path d="M 1599.0,602.0 L 1614.0,624.0" style="stroke:#010101; fill:none;"/>
	<path d="M 1176.0,606.0 C 1170.27,611.17 1161.56,613.921 1155.0,618.228 C 1143.02,626.092 1131.46,635.299 1121.0,645.089 C 1104.28,660.732 1086.16,680.321 1077.91,702.0 C 1068.01,728.04 1073.42,758.495 1078.39,785.0 C 1080.31,795.239 1081.33,806.215 1085.0,816.0" style="stroke:#010101; fill:none;"/>
	<path d="M 454.0,607.0 C 469.557,637.515 474.6,682.691 445.0,707.0" style="stroke:#010101; fill:none;"/>
	<path d="M 1235.0,609.0 C 1236.45,623.121 1226.59,638.461 1237.0,649.0 C 1229.46,654.961 1209.16,663.934 1208.32,646.0 C 1207.9,636.915 1214.0,627.706 1214.0,618.0" style="stroke:#010101; fill:none;"/>
	<path d="M 999.0,613.0 C 996.401,644.822 993.442,673.212 1000.0,705.0" style="stroke:#010101; fill:none;"/>
	<path d="M 1292.0,613.0 C 1289.98,626.448 1278.44,639.015 1265.0,641.0" style="stroke:#010101; fill:none;"/>
	<path d="M 1028.0,615.0 L 1029.0,616.0" style="stroke:#010101; fill:none;"/>
	<path d="M 1028.0,617.0 L 1015.0,676.0" style="stroke:#010101; fill:none;"/>
	<path d="M 985.0,624.0 C 984.749,654.27 980.763,689.534 994.0,718.0" style="stroke:#010101; fill:none;"/>
	<path d="M 1169.0,635.0 L 1186.0,666.0 L 1162.63,685.8 L 1152.0,702.0 L 1146.0,697.0 C 1142.02,702.799 1146.52,708.513 1152.0,703.0" style="stroke:#010101; fill:none;"/>
	<path d="M 1280.0,635.0 L 1283.0,636.0" style="stroke:#010101; fill:none;"/>
	<path d="M 1291.0,640.0 L 1287.0,638.0 L 1293.0,635.0" style="stroke:#010101; fill:none;"/>
	<path d="M 1655.0,637.0 L 1656.0,638.0" style="stroke:#010101; fill:none;"/>
	<path d="M 1281.0,638.0 L 1282.0,639.0" style="stroke:#010101; fill:none;"/>
	<path d="M 1283.0,643.0 L 1281.0,648.0 L 1285.0,639.0 L 1286.0,640.0 L 1287.0,641.0 L 1286.0,642.0 L 1285.0,641.0 L 1284.0,640.0 L 1285.0,639.0 L 1286.0,638.0 L 1287.0,638.0" style="stroke:#010101; fill:none;"/>
	<path d="M 1176.0,640.0 L 1178.0,648.0" style="stroke:#010101; fill:none;"/>
	<path d="M 1237.0,649.0 L 1260.0,640.0" style="stroke:#010101; fill:none;"/>
	<path d="M 1196.0,642.0 C 1193.21,653.901 1205.51,663.048 1216.0,657.0" style="stroke:#010101; fill:none;"/>
	<path d="M 1286.0,642.0 L 1283.0,645.0" style="stroke:#010101; fill:none;"/>
	<path d="M 1178.0,643.0 L 1176.0,645.0" style="stroke:#010101; fill:none;"/>
	<path d="M 1283.0,645.0 L 1294.0,644.0" style="stroke:#010101; fill:none;"/>
	<path d="M 1286.0,646.0 C 1283.22,650.179 1280.06,654.907 1281.0,660.0 L 1293.0,652.0" style="stroke:#010101; fill:none;"/>
	<path d="M 1281.0,648.0 L 1277.0,653.0" style="stroke:#010101; fill:none;"/>
	<path d="M 971.0,653.0 C 973.002,678.323 977.66,707.673 988.0,731.0" style="stroke:#010101; fill:none;"/>
	<path d="M 1204.0,660.0 L 1193.0,666.0 C 1200.25,673.269 1208.78,678.214 1215.79,685.209 C 1230.26,699.646 1231.96,717.057 1227.57,736.0 C 1225.4,745.382 1220.43,757.896 1210.0,760.0" style="stroke:#010101; fill:none;"/>
	<path d="M 1280.0,661.0 L 1278.0,664.0" style="stroke:#010101; fill:none;"/>
	<path d="M 959.0,662.0 C 959.615,691.79 969.465,727.095 989.0,750.0" style="stroke:#010101; fill:none;"/>
	<path d="M 1269.0,664.0 C 1268.28,672.213 1264.45,680.054 1262.38,688.0 C 1255.83,713.107 1247.78,739.71 1232.37,761.0 C 1224.42,771.978 1212.9,780.879 1203.0,790.0 L 1211.0,794.0" style="stroke:#010101; fill:none;"/>
	<path d="M 1282.0,667.0 L 1288.0,664.0" style="stroke:#010101; fill:none;"/>
	<path d="M 1140.0,665.0 L 1162.0,685.0" style="stroke:#010101; fill:none;"/>
	<path d="M 1186.0,666.0 L 1193.0,666.0" style="stroke:#010101; fill:none;"/>
	<path d="M 1277.0,667.0 L 1280.0,668.0" style="stroke:#010101; fill:none;"/>
	<path d="M 1278.0,670.0 L 1275.0,674.0" style="stroke:#010101; fill:none;"/>
	<path d="M 1272.0,684.0 C 1271.01,678.342 1288.75,673.588 1293.0,672.0" style="stroke:#010101; fill:none;"/>
	<path d="M 1306.0,678.0 C 1306.0,701.222 1298.77,726.467 1286.0,746.0" style="stroke:#010101; fill:none;"/>
	<path d="M 1145.0,680.0 L 1155.0,693.0" style="stroke:#010101; fill:none;"/>
	<path d="M 1273.0,685.0 L 1289.0,684.0" style="stroke:#010101; fill:none;"/>
	<path d="M 1271.0,685.0 C 1268.82,689.746 1270.91,692.161 1276.0,692.0" style="stroke:#010101; fill:none;"/>
	<path d="M 1131.0,688.0 L 1143.0,701.0" style="stroke:#010101; fill:none;"/>
	<path d="M 1271.0,690.0 L 1274.0,689.0" style="stroke:#010101; fill:none;"/>
	<path d="M 1148.0,697.0 L 1152.0,692.0" style="stroke:#010101; fill:none;"/>
	<path d="M 1269.0,692.0 L 1271.0,693.0" style="stroke:#010101; fill:none;"/>
	<path d="M 1269.0,694.0 L 1266.0,698.0 L 1292.0,707.0" style="stroke:#010101; fill:none;"/>
	<path d="M 1273.0,701.0 L 1265.0,709.0 L 1271.0,707.0" style="stroke:#010101; fill:none;"/>
	<path d="M 936.0,703.0 L 970.0,744.0" style="stroke:#010101; fill:none;"/>
	<path d="M 1143.0,703.0 L 1137.0,712.0 L 1121.0,704.0" style="stroke:#010101; fill:none;"/>
	<path d="M 1185.0,703.747 C 1194.54,700.281 1201.45,715.625 1201.91,723.0 C 1202.56,733.678 1193.3,740.289 1184.0,743.095 C 1168.82,747.675 1177.4,734.985 1177.51,728.0 C 1177.58,723.766 1174.16,720.969 1173.66,717.0 C 1173.01,711.895 1180.68,705.317 1185.0,703.747" style="stroke:#010101; fill:none;"/>
	<path d="M 1147.0,707.0 L 1139.09,718.104 L 1134.0,729.0 L 1117.0,714.0" style="stroke:#010101; fill:none;"/>
	<path d="M 1265.0,709.0 L 1265.0,713.0" style="stroke:#010101; fill:none;"/>
	<path d="M 1137.0,713.0 L 1140.0,716.0" style="stroke:#010101; fill:none;"/>
	<path d="M 1262.0,713.0 L 1257.0,719.0" style="stroke:#010101; fill:none;"/>
	<path d="M 1263.0,717.0 L 1266.0,717.0" style="stroke:#010101; fill:none;"/>
	<path d="M 402.0,721.0 C 408.357,727.3 416.492,733.96 426.0,733.0" style="stroke:#010101; fill:none;"/>
	<path d="M 1256.0,726.0 L 1270.0,724.0 L 1267.0,725.0" style="stroke:#010101; fill:none;"/>
	<path d="M 1271.0,724.0 L 1294.0,730.0" style="stroke:#010101; fill:none;"/>
	<path d="M 1253.0,732.0 L 1267.0,726.0" style="stroke:#010101; fill:none;"/>
	<path d="M 1134.0,729.0 C 1133.48,735.465 1128.21,741.79 1128.76,748.0 C 1129.64,757.993 1138.09,753.678 1142.0,749.0 C 1160.88,768.724 1182.15,782.655 1207.0,763.0" style="stroke:#010101; fill:none;"/>
	<path d="M 940.0,730.0 L 971.0,761.0" style="stroke:#010101; fill:none;"/>
	<path d="M 915.0,733.0 C 930.952,746.802 950.57,758.78 969.0,769.0" style="stroke:#010101; fill:none;"/>
	<path d="M 1253.0,737.0 L 1259.0,735.0" style="stroke:#010101; fill:none;"/>
	<path d="M 1121.0,736.0 L 1129.0,744.0" style="stroke:#010101; fill:none;"/>
	<path d="M 392.0,737.0 C 397.602,746.715 406.197,749.97 417.0,750.0" style="stroke:#010101; fill:none;"/>
	<path d="M 1133.0,739.0 L 1142.0,749.0" style="stroke:#010101; fill:none;"/>
	<path d="M 1252.0,742.0 L 1258.0,741.0" style="stroke:#010101; fill:none;"/>
	<path d="M 1249.0,747.0 L 1262.0,749.0" style="stroke:#010101; fill:none;"/>
	<path d="M 1296.0,748.0 C 1282.17,771.679 1264.99,791.407 1247.0,812.0" style="stroke:#010101; fill:none;"/>
	<path d="M 911.0,750.0 L 954.0,768.0" style="stroke:#010101; fill:none;"/>
	<path d="M 1245.0,752.0 L 1254.0,750.0" style="stroke:#010101; fill:none;"/>
	<path d="M 1127.0,751.0 C 1125.85,754.576 1123.89,765.517 1127.6,768.168 C 1133.21,772.166 1135.92,760.173 1136.0,757.0" style="stroke:#010101; fill:none;"/>
	<path d="M 1255.0,751.0 C 1265.9,752.469 1276.84,757.671 1285.0,765.0" style="stroke:#010101; fill:none;"/>
	<path d="M 387.0,755.0 L 390.0,759.0" style="stroke:#010101; fill:none;"/>
	<path d="M 1124.0,755.0 C 1119.61,759.444 1114.51,770.94 1126.0,768.0" style="stroke:#010101; fill:none;"/>
	<path d="M 1237.0,762.0 L 1246.0,768.0" style="stroke:#010101; fill:none;"/>
	<path d="M 909.0,766.0 C 919.284,773.448 933.433,777.007 946.0,778.0" style="stroke:#010101; fill:none;"/>
	<path d="M 1116.0,766.0 C 1115.62,779.049 1110.77,791.688 1111.02,805.0 C 1111.14,810.811 1110.2,816.002 1115.0,820.0 L 1119.4,790.0 L 1119.96,779.318 L 1111.0,777.0" style="stroke:#010101; fill:none;"/>
	<path d="M 1118.0,768.0 L 1122.0,778.0" style="stroke:#010101; fill:none;"/>
	<path d="M 1235.0,769.0 L 1242.0,771.0" style="stroke:#010101; fill:none;"/>
	<path d="M 1124.0,770.0 L 1122.0,772.0" style="stroke:#010101; fill:none;"/>
	<path d="M 1129.0,770.0 C 1133.53,775.927 1130.5,781.254 1129.44,788.0 C 1127.53,800.193 1123.53,812.622 1123.0,825.0" style="stroke:#010101; fill:none;"/>
	<path d="M 1233.0,773.0 L 1243.0,781.0" style="stroke:#010101; fill:none;"/>
	<path d="M 1225.0,777.0 L 1234.0,784.0" style="stroke:#010101; fill:none;"/>
	<path d="M 1222.0,781.0 L 1226.0,785.0" style="stroke:#010101; fill:none;"/>
	<path d="M 381.0,782.0 L 379.0,795.0" style="stroke:#010101; fill:none;"/>
	<path d="M 1218.0,785.0 L 1219.0,786.0" style="stroke:#010101; fill:none;"/>
	<path d="M 1001.0,787.0 C 1001.0,834.691 1019.13,875.536 1048.0,913.0" style="stroke:#010101; fill:none;"/>
	<path d="M 901.0,793.0 L 923.0,790.0" style="stroke:#010101; fill:none;"/>
	<path d="M 1116.0,821.0 C 1116.0,827.173 1114.63,849.705 1121.15,852.497 C 1128.79,855.77 1141.26,844.697 1145.99,839.985 C 1151.06,834.94 1153.72,828.426 1158.3,823.0 C 1170.56,808.496 1184.77,796.308 1203.0,790.0" style="stroke:#010101; fill:none;"/>
	<path d="M 942.0,791.0 L 963.0,793.0" style="stroke:#010101; fill:none;"/>
	<path d="M 386.0,802.0 C 378.485,825.765 380.0,856.255 380.0,881.0" style="stroke:#010101; fill:none;"/>
	<path d="M 1129.0,804.0 C 1129.0,810.602 1127.39,834.021 1135.04,835.894 C 1139.82,837.062 1146.8,831.991 1151.0,830.0" style="stroke:#010101; fill:none;"/>
	<path d="M 1112.0,810.0 L 1115.0,810.0" style="stroke:#010101; fill:none;"/>
	<path d="M 1183.0,811.0 L 1188.0,819.0" style="stroke:#010101; fill:none;"/>
	<path d="M 1178.0,817.0 L 1180.0,822.0" style="stroke:#010101; fill:none;"/>
	<path d="M 1206.0,839.0 L 1236.0,820.0" style="stroke:#010101; fill:none;"/>
	<path d="M 1151.0,829.0 L 1154.0,828.0" style="stroke:#010101; fill:none;"/>
	<path d="M 1122.0,829.0 L 1119.0,834.0" style="stroke:#010101; fill:none;"/>
	<path d="M 1152.0,847.0 L 1138.0,860.0" style="stroke:#010101; fill:none;"/>
	<path d="M 372.0,856.0 L 372.0,857.0" style="stroke:#010101; fill:none;"/>
	<path d="M 372.0,859.0 L 371.0,871.0" style="stroke:#010101; fill:none;"/>
	<path d="M 389.0,867.0 L 385.0,911.0" style="stroke:#010101; fill:none;"/>
	<path d="M 1846.0,878.0 L 1848.0,885.0" style="stroke:#010101; fill:none;"/>
	<path d="M 365.0,879.0 L 365.0,882.0" style="stroke:#010101; fill:none;"/>
	<path d="M 364.0,884.0 L 364.0,888.0" style="stroke:#010101; fill:none;"/>
	<path d="M 1860.0,909.0 L 1867.0,937.0 L 1868.0,933.0" style="stroke:#010101; fill:none;"/>
	<path d="M 1063.0,930.0 C 1081.69,942.713 1100.76,954.068 1122.0,962.0" style="stroke:#010101; fill:none;"/>
	<path d="M 385.0,934.0 L 385.0,947.0" style="stroke:#010101; fill:none;"/>
	<path d="M 1869.0,936.0 C 1900.73,972.436 1922.6,1017.03 1945.86,1059.0 C 1977.63,1116.31 2011.63,1174.16 2053.0,1225.0" style="stroke:#010101; fill:none;"/>
	<path d="M 1867.0,937.0 L 1876.96,988.0 L 1877.01,1090.0 L 1881.99,1201.0 L 1881.0,1299.0" style="stroke:#010101; fill:none;"/>
	<path d="M 808.0,959.0 L 847.0,977.0" style="stroke:#010101; fill:none;"/>
	<path d="M 803.0,966.0 L 835.0,984.0" style="stroke:#010101; fill:none;"/>
	<path d="M 416.0,979.0 L 432.0,1014.0" style="stroke:#010101; fill:none;"/>
	<path d="M 780.0,983.0 C 794.931,986.555 813.188,983.344 827.0,991.0 C 809.591,996.146 785.234,991.0 767.0,991.0" style="stroke:#010101; fill:none;"/>
	<path d="M 827.0,991.0 L 837.0,992.0" style="stroke:#010101; fill:none;"/>
	<path d="M 757.0,1006.0 C 780.147,999.495 805.249,1000.41 829.0,999.0" style="stroke:#010101; fill:none;"/>
	<path d="M 856.0,1000.0 L 883.0,999.17 L 922.0,1007.0" style="stroke:#010101; fill:none;"/>
	<path d="M 826.0,1001.0 C 795.021,1011.49 759.625,1008.82 729.0,1022.0" style="stroke:#010101; fill:none;"/>
	<path d="M 430.0,1002.0 L 449.0,1025.0" style="stroke:#010101; fill:none;"/>
	<path d="M 715.0,1037.0 C 745.229,1023.54 785.008,1013.63 818.0,1011.0" style="stroke:#010101; fill:none;"/>
	<path d="M 948.0,1014.0 C 963.311,1021.25 978.561,1027.1 991.0,1039.0" style="stroke:#010101; fill:none;"/>
	<path d="M 706.0,1047.0 L 804.0,1019.0" style="stroke:#010101; fill:none;"/>
	<path d="M 1308.0,1021.0 C 1339.72,1032.84 1402.26,1060.22 1382.32,1105.0 C 1377.93,1114.85 1367.5,1122.5 1360.0,1130.0" style="stroke:#010101; fill:none;"/>
	<path d="M 1227.0,1028.0 C 1255.88,1037.85 1280.34,1058.98 1281.0,1091.0" style="stroke:#010101; fill:none;"/>
	<path d="M 700.0,1062.0 L 761.0,1040.33 L 798.0,1030.0" style="stroke:#010101; fill:none;"/>
	<path d="M 455.0,1032.0 L 456.0,1033.0" style="stroke:#010101; fill:none;"/>
	<path d="M 459.0,1038.0 L 460.0,1039.0" style="stroke:#010101; fill:none;"/>
	<path d="M 688.0,1082.0 C 717.631,1064.71 755.003,1049.41 788.0,1040.0" style="stroke:#010101; fill:none;"/>
	<path d="M 686.0,1095.0 C 709.289,1078.08 737.497,1065.02 764.0,1054.0" style="stroke:#010101; fill:none;"/>
	<path d="M 813.0,1101.0 C 829.975,1078.72 854.34,1069.17 881.0,1064.0" style="stroke:#010101; fill:none;"/>
	<path d="M 743.0,1071.0 C 714.643,1087.72 675.516,1101.2 670.0,1138.0 C 685.983,1129.84 703.275,1114.62 716.0,1102.0" style="stroke:#010101; fill:none;"/>
	<path d="M 941.0,1084.0 C 932.882,1084.55 925.706,1081.58 919.0,1077.0 C 932.308,1068.81 954.074,1078.16 949.763,1096.0 C 944.42,1118.12 923.8,1136.66 911.468,1155.0 C 889.106,1188.26 876.549,1223.88 839.911,1244.7 C 830.616,1249.99 821.941,1248.07 813.0,1251.49 C 799.014,1256.84 783.741,1283.17 766.0,1275.0" style="stroke:#010101; fill:none;"/>
	<path d="M 894.0,1075.0 L 896.0,1084.0 C 903.147,1079.11 910.445,1077.2 919.0,1077.0" style="stroke:#010101; fill:none;"/>
	<path d="M 909.0,1078.0 C 910.445,1085.42 892.949,1086.1 889.0,1089.0 L 892.0,1089.0" style="stroke:#010101; fill:none;"/>
	<path d="M 913.0,1079.0 L 912.0,1080.0" style="stroke:#010101; fill:none;"/>
	<path d="M 904.0,1080.0 L 906.0,1082.0" style="stroke:#010101; fill:none;"/>
	<path d="M 729.0,1084.0 L 680.0,1121.0" style="stroke:#010101; fill:none;"/>
	<path d="M 879.0,1084.0 L 881.0,1092.0 L 891.0,1090.0" style="stroke:#010101; fill:none;"/>
	<path d="M 894.0,1084.0 L 893.0,1086.0" style="stroke:#010101; fill:none;"/>
	<path d="M 945.0,1085.0 L 946.0,1090.0" style="stroke:#010101; fill:none;"/>
	<path d="M 937.0,1086.0 L 946.0,1103.0" style="stroke:#010101; fill:none;"/>
	<path d="M 861.0,1092.0 L 866.0,1101.0" style="stroke:#010101; fill:none;"/>
	<path d="M 881.0,1092.0 C 878.458,1095.32 877.026,1098.32 881.074,1101.27 C 885.112,1104.22 890.705,1104.78 895.0,1107.55 C 907.471,1115.58 916.778,1128.05 918.0,1143.0" style="stroke:#010101; fill:none;"/>
	<path d="M 880.0,1093.0 L 883.0,1096.0 L 879.0,1099.0" style="stroke:#010101; fill:none;"/>
	<path d="M 884.0,1096.0 L 888.0,1093.0" style="stroke:#010101; fill:none;"/>
	<path d="M 868.0,1102.0 L 876.0,1099.0" style="stroke:#010101; fill:none;"/>
	<path d="M 867.0,1100.0 L 869.0,1100.0" style="stroke:#010101; fill:none;"/>
	<path d="M 874.0,1101.0 L 848.0,1126.0 L 851.0,1121.0" style="stroke:#010101; fill:none;"/>
	<path d="M 863.0,1103.0 L 861.0,1110.0" style="stroke:#010101; fill:none;"/>
	<path d="M 866.0,1104.0 L 860.0,1108.0 L 860.0,1106.0" style="stroke:#010101; fill:none;"/>
	<path d="M 852.0,1108.0 C 853.589,1116.01 835.09,1131.4 830.0,1138.0 L 825.0,1134.0 C 834.324,1123.32 842.997,1111.47 856.0,1105.0" style="stroke:#010101; fill:none;"/>
	<path d="M 676.0,1107.0 L 653.0,1176.0" style="stroke:#010101; fill:none;"/>
	<path d="M 807.0,1107.0 C 781.937,1135.69 759.535,1188.37 774.0,1227.0 C 780.289,1224.87 786.283,1222.9 792.0,1227.0 C 784.78,1233.68 772.799,1233.06 783.0,1244.0 L 763.0,1248.0" style="stroke:#010101; fill:none;"/>
	<path d="M 855.0,1110.0 L 859.0,1107.0" style="stroke:#010101; fill:none;"/>
	<path d="M 863.0,1109.0 L 863.0,1110.0" style="stroke:#010101; fill:none;"/>
	<path d="M 1311.0,1184.0 L 1319.61,1134.0 L 1323.0,1111.0 L 1339.0,1111.0" style="stroke:#010101; fill:none;"/>
	<path d="M 861.0,1110.0 L 857.0,1114.0" style="stroke:#010101; fill:none;"/>
	<path d="M 1313.0,1117.0 L 1314.0,1125.0 L 1313.0,1125.0 L 1310.0,1119.0 L 1322.0,1111.0" style="stroke:#010101; fill:none;"/>
	<path d="M 1335.0,1112.0 L 1333.0,1127.0" style="stroke:#010101; fill:none;"/>
	<path d="M 853.0,1113.0 L 856.0,1113.0" style="stroke:#010101; fill:none;"/>
	<path d="M 854.0,1114.0 L 857.0,1118.0" style="stroke:#010101; fill:none;"/>
	<path d="M 1328.0,1114.0 L 1324.37,1137.0 L 1317.0,1179.0" style="stroke:#010101; fill:none;"/>
	<path d="M 830.0,1117.0 L 836.0,1122.0" style="stroke:#010101; fill:none;"/>
	<path d="M 853.0,1117.0 L 853.0,1119.0" style="stroke:#010101; fill:none;"/>
	<path d="M 664.0,1118.0 C 657.814,1136.13 657.507,1157.83 647.0,1174.0 L 650.0,1172.0" style="stroke:#010101; fill:none;"/>
	<path d="M 846.0,1119.0 L 848.0,1121.0" style="stroke:#010101; fill:none;"/>
	<path d="M 1313.0,1125.0 L 1309.0,1142.0 C 1302.56,1136.63 1303.52,1123.88 1310.0,1119.0" style="stroke:#010101; fill:none;"/>
	<path d="M 1318.0,1119.0 L 1319.0,1134.0" style="stroke:#010101; fill:none;"/>
	<path d="M 836.0,1122.0 L 839.0,1125.0" style="stroke:#010101; fill:none;"/>
	<path d="M 842.0,1125.0 L 847.0,1126.0" style="stroke:#010101; fill:none;"/>
	<path d="M 960.0,1125.0 C 952.502,1165.38 947.033,1203.67 928.0,1241.0" style="stroke:#010101; fill:none;"/>
	<path d="M 1304.0,1130.0 L 1304.0,1125.0" style="stroke:#010101; fill:none;"/>
	<path d="M 845.0,1128.0 L 839.0,1136.0 L 843.0,1130.0" style="stroke:#010101; fill:none;"/>
	<path d="M 939.0,1128.0 L 937.0,1131.0" style="stroke:#010101; fill:none;"/>
	<path d="M 1302.0,1128.0 C 1298.26,1133.65 1297.86,1139.63 1300.0,1146.0 L 1307.0,1142.0" style="stroke:#010101; fill:none;"/>
	<path d="M 1314.0,1130.0 L 1313.0,1137.0" style="stroke:#010101; fill:none;"/>
	<path d="M 822.0,1132.0 L 824.0,1133.0" style="stroke:#010101; fill:none;"/>
	<path d="M 858.0,1136.0 C 861.252,1134.01 864.134,1133.03 868.0,1133.03 C 886.026,1133.02 886.229,1154.73 874.79,1164.28 C 870.687,1167.7 861.846,1168.36 858.89,1162.87 C 856.442,1158.32 863.36,1153.34 864.292,1149.0 C 865.303,1144.3 860.474,1139.6 858.0,1136.0" style="stroke:#010101; fill:none;"/>
	<path d="M 648.0,1167.0 L 646.0,1170.0 C 646.825,1162.93 651.529,1139.3 658.0,1136.0" style="stroke:#010101; fill:none;"/>
	<path d="M 825.0,1135.0 L 816.0,1147.0 L 809.0,1141.0" style="stroke:#010101; fill:none;"/>
	<path d="M 1272.0,1135.0 L 1267.0,1154.0" style="stroke:#010101; fill:none;"/>
	<path d="M 839.0,1136.0 C 833.062,1143.49 824.306,1154.5 823.0,1164.0 L 797.0,1165.0" style="stroke:#010101; fill:none;"/>
	<path d="M 832.0,1137.0 L 835.0,1140.0" style="stroke:#010101; fill:none;"/>
	<path d="M 670.0,1138.0 L 662.0,1161.0" style="stroke:#010101; fill:none;"/>
	<path d="M 830.0,1138.0 C 825.985,1143.12 823.551,1146.43 828.0,1152.0" style="stroke:#010101; fill:none;"/>
	<path d="M 930.0,1141.0 L 930.0,1142.0" style="stroke:#010101; fill:none;"/>
	<path d="M 1309.0,1142.0 L 1307.0,1165.0 L 1306.0,1162.0" style="stroke:#010101; fill:none;"/>
	<path d="M 826.0,1150.0 L 832.0,1145.0" style="stroke:#010101; fill:none;"/>
	<path d="M 1300.0,1146.0 L 1297.0,1158.0" style="stroke:#010101; fill:none;"/>
	<path d="M 817.0,1147.0 L 809.0,1164.0" style="stroke:#010101; fill:none;"/>
	<path d="M 817.0,1147.0 L 824.0,1148.0" style="stroke:#010101; fill:none;"/>
	<path d="M 1615.0,1148.0 C 1602.21,1160.79 1594.11,1175.16 1582.91,1189.0 C 1577.17,1196.09 1567.38,1202.14 1563.09,1210.0 C 1556.66,1221.81 1556.56,1235.91 1548.75,1248.0 C 1541.28,1259.58 1530.31,1269.49 1521.44,1280.0 C 1508.3,1295.57 1496.83,1311.92 1483.43,1327.29 C 1469.04,1343.78 1457.59,1376.6 1433.0,1380.0 L 1435.0,1365.0 L 1446.0,1374.0" style="stroke:#010101; fill:none;"/>
	<path d="M 1300.0,1149.0 L 1301.57,1162.0 L 1305.0,1181.0" style="stroke:#010101; fill:none;"/>
	<path d="M 822.0,1150.0 C 818.706,1154.63 816.244,1158.6 819.0,1164.0" style="stroke:#010101; fill:none;"/>
	<path d="M 1411.0,1219.0 C 1445.26,1174.03 1494.6,1162.38 1546.0,1150.0" style="stroke:#010101; fill:none;"/>
	<path d="M 795.0,1157.0 L 809.0,1164.0" style="stroke:#010101; fill:none;"/>
	<path d="M 823.0,1164.0 C 827.211,1169.22 828.992,1175.81 833.263,1181.0 C 836.089,1184.44 839.482,1187.88 843.0,1190.61 C 860.056,1203.83 874.803,1191.9 892.0,1188.0" style="stroke:#010101; fill:none;"/>
	<path d="M 919.0,1165.0 L 919.0,1166.0" style="stroke:#010101; fill:none;"/>
	<path d="M 1307.0,1166.0 L 1305.0,1168.0" style="stroke:#010101; fill:none;"/>
	<path d="M 807.0,1167.0 L 812.0,1176.0 L 815.0,1167.0" style="stroke:#010101; fill:none;"/>
	<path d="M 914.0,1167.0 L 918.0,1177.0" style="stroke:#010101; fill:none;"/>
	<path d="M 648.0,1168.0 L 650.0,1170.0" style="stroke:#010101; fill:none;"/>
	<path d="M 644.0,1170.0 C 641.694,1187.13 632.596,1205.9 639.0,1223.0 L 641.0,1219.0" style="stroke:#010101; fill:none;"/>
	<path d="M 796.0,1173.0 L 812.0,1176.0" style="stroke:#010101; fill:none;"/>
	<path d="M 648.0,1175.0 L 646.0,1193.0" style="stroke:#010101; fill:none;"/>
	<path d="M 780.0,1175.0 L 806.0,1183.0 C 798.605,1188.9 789.955,1186.7 783.0,1181.0" style="stroke:#010101; fill:none;"/>
	<path d="M 810.0,1178.0 L 807.0,1183.0" style="stroke:#010101; fill:none;"/>
	<path d="M 909.0,1179.0 L 912.0,1190.0" style="stroke:#010101; fill:none;"/>
	<path d="M 809.0,1181.0 C 813.233,1189.25 807.032,1196.26 804.644,1204.0 C 799.236,1221.52 803.73,1236.43 784.0,1244.0" style="stroke:#010101; fill:none;"/>
	<path d="M 906.0,1184.0 L 906.0,1190.0" style="stroke:#010101; fill:none;"/>
	<path d="M 1247.0,1193.0 C 1234.27,1204.01 1208.57,1221.01 1191.0,1220.11 C 1184.14,1219.76 1177.74,1215.39 1172.0,1212.0" style="stroke:#010101; fill:none;"/>
	<path d="M 899.0,1194.0 C 898.47,1202.36 896.852,1206.1 903.0,1213.0" style="stroke:#010101; fill:none;"/>
	<path d="M 641.0,1195.0 L 642.0,1205.0" style="stroke:#010101; fill:none;"/>
	<path d="M 785.0,1198.0 L 804.0,1205.0" style="stroke:#010101; fill:none;"/>
	<path d="M 782.0,1201.0 L 788.0,1200.0" style="stroke:#010101; fill:none;"/>
	<path d="M 1239.0,1227.0 C 1233.08,1234.51 1234.82,1239.76 1242.0,1246.0 L 1240.0,1227.0 L 1283.0,1206.0" style="stroke:#010101; fill:none;"/>
	<path d="M 772.0,1211.0 L 792.0,1212.0 L 789.0,1218.0 L 790.0,1217.0 L 790.0,1216.0" style="stroke:#010101; fill:none;"/>
	<path d="M 793.0,1212.0 L 801.0,1217.0" style="stroke:#010101; fill:none;"/>
	<path d="M 1435.0,1365.0 C 1435.03,1326.36 1459.21,1292.61 1487.17,1268.39 C 1492.76,1263.54 1500.11,1262.28 1505.42,1256.83 C 1521.31,1240.53 1536.84,1216.62 1561.0,1213.0" style="stroke:#010101; fill:none;"/>
	<path d="M 893.0,1216.0 L 895.0,1219.0" style="stroke:#010101; fill:none;"/>
	<path d="M 785.0,1217.0 L 787.0,1216.0" style="stroke:#010101; fill:none;"/>
	<path d="M 790.0,1218.0 L 798.0,1226.0 L 792.0,1227.0" style="stroke:#010101; fill:none;"/>
	<path d="M 1650.0,1219.0 L 1650.0,1220.0" style="stroke:#010101; fill:none;"/>
	<path d="M 884.0,1221.0 L 884.0,1229.0" style="stroke:#010101; fill:none;"/>
	<path d="M 1547.0,1232.0 L 1560.0,1221.0" style="stroke:#010101; fill:none;"/>
	<path d="M 641.0,1224.0 L 649.0,1239.0" style="stroke:#010101; fill:none;"/>
	<path d="M 754.0,1225.0 L 772.0,1227.0" style="stroke:#010101; fill:none;"/>
	<path d="M 1406.0,1226.0 C 1402.27,1239.23 1401.34,1252.35 1391.83,1263.0 C 1378.96,1277.41 1355.71,1286.68 1346.84,1304.0 C 1323.49,1349.57 1346.85,1403.5 1359.0,1448.0" style="stroke:#010101; fill:none;"/>
	<path d="M 774.0,1228.0 L 777.0,1234.0" style="stroke:#010101; fill:none;"/>
	<path d="M 871.0,1244.0 C 869.893,1237.93 872.963,1234.25 877.0,1230.0 L 881.0,1237.0" style="stroke:#010101; fill:none;"/>
	<path d="M 1647.0,1231.0 C 1646.95,1304.2 1607.25,1359.87 1560.17,1412.0 C 1526.73,1449.02 1484.9,1482.23 1433.0,1480.0" style="stroke:#010101; fill:none;"/>
	<path d="M 814.0,1232.0 C 821.206,1241.33 831.614,1239.86 842.0,1241.0" style="stroke:#010101; fill:none;"/>
	<path d="M 1238.0,1232.0 L 1238.0,1241.0" style="stroke:#010101; fill:none;"/>
	<path d="M 1246.0,1232.0 C 1245.81,1235.72 1246.47,1247.46 1242.0,1246.0" style="stroke:#010101; fill:none;"/>
	<path d="M 1250.0,1234.0 L 1250.0,1247.0" style="stroke:#010101; fill:none;"/>
	<path d="M 799.0,1235.0 L 803.0,1258.0" style="stroke:#010101; fill:none;"/>
	<path d="M 1156.0,1236.0 C 1174.2,1267.62 1238.59,1302.51 1264.0,1262.0" style="stroke:#010101; fill:none;"/>
	<path d="M 1519.0,1277.0 L 1525.03,1248.3 L 1542.0,1236.0" style="stroke:#010101; fill:none;"/>
	<path d="M 864.0,1255.0 C 862.012,1249.13 861.076,1243.65 864.0,1238.0 L 869.0,1255.0" style="stroke:#010101; fill:none;"/>
	<path d="M 866.0,1239.0 L 870.0,1238.0" style="stroke:#010101; fill:none;"/>
	<path d="M 843.0,1239.0 L 846.0,1240.0" style="stroke:#010101; fill:none;"/>
	<path d="M 849.0,1258.0 L 861.0,1243.0" style="stroke:#010101; fill:none;"/>
	<path d="M 1255.0,1244.0 L 1255.0,1248.0" style="stroke:#010101; fill:none;"/>
	<path d="M 656.0,1246.0 L 657.0,1251.0" style="stroke:#010101; fill:none;"/>
	<path d="M 757.0,1268.0 L 800.0,1254.0" style="stroke:#010101; fill:none;"/>
	<path d="M 836.0,1270.0 L 834.0,1261.0 L 841.0,1258.0" style="stroke:#010101; fill:none;"/>
	<path d="M 845.0,1287.0 C 844.305,1278.19 838.79,1264.86 846.0,1258.0" style="stroke:#010101; fill:none;"/>
	<path d="M 802.0,1260.0 C 818.03,1276.58 792.593,1297.06 779.0,1305.0" style="stroke:#010101; fill:none;"/>
	<path d="M 815.0,1280.0 C 816.558,1273.27 818.416,1264.29 825.0,1261.0 L 827.0,1269.0" style="stroke:#010101; fill:none;"/>
	<path d="M 837.0,1261.0 L 836.0,1264.0" style="stroke:#010101; fill:none;"/>
	<path d="M 910.0,1261.0 L 896.0,1274.0" style="stroke:#010101; fill:none;"/>
	<path d="M 833.0,1264.0 L 833.0,1273.0" style="stroke:#010101; fill:none;"/>
	<path d="M 796.0,1265.0 C 804.671,1277.83 783.965,1286.18 775.0,1290.0" style="stroke:#010101; fill:none;"/>
	<path d="M 854.0,1277.0 C 864.084,1280.88 870.674,1280.36 881.0,1278.0" style="stroke:#010101; fill:none;"/>
	<path d="M 1512.0,1285.0 L 1507.0,1294.0" style="stroke:#010101; fill:none;"/>
	<path d="M 1982.0,1285.0 L 2006.0,1308.0" style="stroke:#010101; fill:none;"/>
	<path d="M 1825.0,1286.0 C 1827.58,1289.96 1830.15,1293.77 1827.0,1298.0" style="stroke:#010101; fill:none;"/>
	<path d="M 1509.0,1291.0 L 1511.0,1293.0" style="stroke:#010101; fill:none;"/>
	<path d="M 1484.0,1326.0 C 1477.26,1314.3 1487.22,1312.92 1495.0,1306.62 C 1499.21,1303.21 1501.86,1298.42 1506.0,1295.0" style="stroke:#010101; fill:none;"/>
	<path d="M 1456.0,1303.0 L 1466.0,1309.0" style="stroke:#010101; fill:none;"/>
	<path d="M 1995.0,1307.0 L 2020.0,1330.0" style="stroke:#010101; fill:none;"/>
	<path d="M 1477.0,1314.0 L 1481.0,1315.0" style="stroke:#010101; fill:none;"/>
	<path d="M 1882.0,1328.0 C 1879.01,1365.87 1867.62,1398.77 1854.22,1434.0 C 1827.29,1504.79 1786.21,1578.46 1715.0,1612.89 C 1688.1,1625.9 1655.73,1632.87 1626.0,1634.91 C 1609.73,1636.02 1593.27,1633.98 1577.0,1635.09 C 1558.66,1636.35 1540.27,1636.97 1522.0,1639.16 C 1507.54,1640.89 1490.11,1644.63 1476.0,1640.0" style="stroke:#010101; fill:none;"/>
	<path d="M 2052.0,1333.0 C 2062.88,1351.65 2071.14,1372.02 2081.54,1391.0 C 2108.08,1439.42 2136.7,1486.77 2166.92,1533.0 C 2179.99,1552.99 2192.17,1574.25 2207.0,1593.0" style="stroke:#010101; fill:none;"/>
	<path d="M 2011.0,1336.0 L 2063.0,1376.0" style="stroke:#010101; fill:none;"/>
	<path d="M 2011.0,1352.0 C 2029.82,1370.01 2054.38,1386.12 2077.0,1399.0" style="stroke:#010101; fill:none;"/>
	<path d="M 1432.0,1381.0 C 1429.05,1400.01 1413.98,1414.83 1402.47,1429.0 C 1393.77,1439.7 1385.89,1453.61 1380.0,1466.0" style="stroke:#010101; fill:none;"/>
	<path d="M 2030.0,1384.0 L 2059.0,1403.56 L 2103.0,1433.0" style="stroke:#010101; fill:none;"/>
	<path d="M 2036.0,1400.0 C 2056.6,1418.8 2083.06,1433.83 2107.0,1448.0" style="stroke:#010101; fill:none;"/>
	<path d="M 1586.0,1408.0 L 1571.0,1434.0" style="stroke:#010101; fill:none;"/>
	<path d="M 2047.0,1430.0 L 2093.0,1457.69 L 2119.0,1474.0" style="stroke:#010101; fill:none;"/>
	<path d="M 894.0,1443.0 L 895.0,1444.0" style="stroke:#010101; fill:none;"/>
	<path d="M 1563.0,1455.0 C 1557.51,1467.77 1554.4,1488.61 1562.0,1501.0" style="stroke:#010101; fill:none;"/>
	<path d="M 1546.0,1463.0 L 1540.0,1472.0" style="stroke:#010101; fill:none;"/>
	<path d="M 978.0,1493.0 L 980.0,1494.0" style="stroke:#010101; fill:none;"/>
	<path d="M 1037.0,1508.0 C 1080.13,1531.89 1132.05,1532.44 1178.0,1548.0" style="stroke:#010101; fill:none;"/>
	<path d="M 2315.0,1548.0 C 2321.75,1549.85 2332.96,1550.71 2338.83,1554.03 C 2344.33,1557.13 2349.08,1564.38 2354.0,1568.57 C 2365.61,1578.45 2377.99,1587.48 2390.0,1596.88 C 2423.62,1623.21 2460.96,1650.34 2500.0,1668.0" style="stroke:#010101; fill:none;"/>
	<path d="M 2396.0,1566.0 L 2499.0,1576.0" style="stroke:#010101; fill:none;"/>
	<path d="M 2382.0,1568.0 L 2389.0,1571.0" style="stroke:#010101; fill:none;"/>
	<path d="M 2512.0,1577.0 L 2515.0,1578.0" style="stroke:#010101; fill:none;"/>
	<path d="M 2517.0,1578.0 L 2520.0,1578.0" style="stroke:#010101; fill:none;"/>
	<path d="M 2622.0,1579.0 L 2619.0,1582.0" style="stroke:#010101; fill:none;"/>
	<path d="M 2220.0,1600.0 C 2253.31,1633.31 2293.95,1660.58 2338.0,1677.0" style="stroke:#010101; fill:none;"/>
	<path d="M 1471.0,1641.0 L 1472.0,1641.0" style="stroke:#010101; fill:none;"/>
	<path d="M 2439.0,1675.0 L 2470.0,1694.0" style="stroke:#010101; fill:none;"/>
	<path d="M 2065.0,1684.0 C 2080.86,1690.07 2100.19,1690.67 2117.0,1692.0" style="stroke:#010101; fill:none;"/>
	<path d="M 2391.0,1688.0 L 2427.0,1705.0" style="stroke:#010101; fill:none;"/>
	<path d="M 1538.0,1693.0 C 1556.67,1706.42 1574.28,1721.25 1594.0,1733.23 C 1631.64,1756.08 1671.96,1773.96 1714.0,1787.02 C 1729.59,1791.87 1745.78,1797.82 1762.0,1800.0" style="stroke:#010101; fill:none;"/>
	<path d="M 2417.0,1693.0 L 2448.0,1702.0" style="stroke:#010101; fill:none;"/>
	<path d="M 2364.0,1694.0 L 2416.0,1718.0" style="stroke:#010101; fill:none;"/>
	<path d="M 1536.0,1695.0 L 1540.0,1699.0" style="stroke:#010101; fill:none;"/>
	<path d="M 2327.0,1698.0 C 2336.24,1702.43 2344.82,1708.19 2354.0,1712.78 C 2357.92,1714.74 2362.02,1718.44 2365.0,1714.0 L 2446.0,1754.0" style="stroke:#010101; fill:none;"/>
	<path d="M 2145.0,1702.0 C 2151.38,1697.17 2161.19,1701.58 2168.0,1703.58 C 2181.52,1707.53 2195.59,1710.0 2209.0,1713.98 C 2213.77,1715.39 2218.09,1718.73 2223.0,1719.57 C 2230.69,1720.89 2241.38,1716.71 2249.0,1715.2 C 2267.4,1711.55 2286.05,1708.7 2304.0,1703.0" style="stroke:#010101; fill:none;"/>
	<path d="M 2373.0,1700.0 L 2394.0,1716.19 L 2453.0,1748.0" style="stroke:#010101; fill:none;"/>
	<path d="M 1544.0,1704.0 L 1545.0,1705.0" style="stroke:#010101; fill:none;"/>
	<path d="M 2318.0,1707.0 C 2334.52,1719.68 2361.44,1731.35 2382.0,1735.0" style="stroke:#010101; fill:none;"/>
	<path d="M 1546.0,1708.0 L 1547.0,1708.0" style="stroke:#010101; fill:none;"/>
	<path d="M 1550.0,1708.0 L 1554.0,1712.0" style="stroke:#010101; fill:none;"/>
	<path d="M 1548.0,1711.0 L 1551.0,1718.0" style="stroke:#010101; fill:none;"/>
	<path d="M 2305.0,1716.0 C 2317.56,1712.55 2339.61,1723.67 2351.0,1729.0" style="stroke:#010101; fill:none;"/>
	<path d="M 2364.0,1717.0 C 2376.72,1725.38 2391.74,1730.13 2405.0,1737.58 C 2408.22,1739.38 2417.84,1742.61 2416.0,1747.0" style="stroke:#010101; fill:none;"/>
	<path d="M 2290.0,1720.0 C 2302.17,1724.72 2312.87,1728.0 2326.0,1728.0" style="stroke:#010101; fill:none;"/>
	<path d="M 1557.0,1725.0 L 1560.0,1748.0" style="stroke:#010101; fill:none;"/>
	<path d="M 1579.0,1725.0 L 1581.0,1726.0" style="stroke:#010101; fill:none;"/>
	<path d="M 1580.0,1728.0 C 1613.69,1766.69 1658.41,1788.1 1702.0,1813.0" style="stroke:#010101; fill:none;"/>
	<path d="M 1567.0,1732.0 L 1569.99,1787.0 L 1571.0,1823.0" style="stroke:#010101; fill:none;"/>
	<path d="M 1575.0,1767.0 L 1576.0,1832.0" style="stroke:#010101; fill:none;"/>
	<path d="M 1585.0,1788.0 L 1585.0,1860.0" style="stroke:#010101; fill:none;"/>
	<path d="M 1594.0,1811.0 C 1594.0,1833.72 1592.36,1862.14 1599.0,1884.0" style="stroke:#010101; fill:none;"/>
	<path d="M 1705.0,1814.0 L 1708.0,1814.0" style="stroke:#010101; fill:none;"/>
	<path d="M 1603.0,1834.0 L 1605.36,1855.0 L 1608.0,1911.0" style="stroke:#010101; fill:none;"/>
	<path d="M 2212.0,1836.0 C 2181.78,1866.22 2154.27,1900.58 2118.0,1923.91 C 2102.43,1933.92 2085.32,1940.29 2069.0,1948.78 C 2051.13,1958.09 2034.12,1969.08 2016.0,1977.89 C 1972.66,1998.97 1927.69,2017.48 1887.0,2043.69 C 1851.38,2066.63 1824.65,2098.62 1793.0,2126.0" style="stroke:#010101; fill:none;"/>
	<path d="M 1591.0,1876.0 L 1597.0,1890.0" style="stroke:#010101; fill:none;"/>
	<path d="M 1613.0,1881.0 L 1615.0,1909.0" style="stroke:#010101; fill:none;"/>
	<path d="M 1604.0,1962.0 L 1604.0,1963.0" style="stroke:#010101; fill:none;"/>
	<path d="M 1604.0,1965.0 L 1604.0,1966.0" style="stroke:#010101; fill:none;"/>
	<path d="M 1603.0,1970.0 L 1603.0,1971.0" style="stroke:#010101; fill:none;"/>
	<path d="M 1933.0,2093.0 L 1942.21,2126.0 L 1952.0,2174.0" style="stroke:#010101; fill:none;"/>
	<path d="M 1915.0,2095.0 C 1924.27,2108.13 1926.87,2130.2 1927.0,2146.0" style="stroke:#010101; fill:none;"/>
	<path d="M 1923.0,2098.0 C 1931.83,2108.09 1938.71,2125.53 1939.0,2139.0" style="stroke:#010101; fill:none;"/>
	<path d="M 1949.0,2098.0 C 1949.95,2120.09 1955.03,2147.75 1964.0,2168.0" style="stroke:#010101; fill:none;"/>
	<path d="M 1903.0,2102.0 L 1922.0,2129.0" style="stroke:#010101; fill:none;"/>
	<path d="M 1960.0,2128.0 L 1975.0,2172.0" style="stroke:#010101; fill:none;"/>
	<path d="M 1977.0,2144.0 C 1978.14,2158.45 1980.85,2174.8 1987.0,2188.0" style="stroke:#010101; fill:none;"/>
	<path d="M 1733.0,2147.0 L 1718.0,2161.0" style="stroke:#010101; fill:none;"/>
	<path d="M 1993.0,2147.0 L 1999.0,2188.0" style="stroke:#010101; fill:none;"/>
	<path d="M 1718.0,2155.0 L 1694.0,2180.0" style="stroke:#010101; fill:none;"/>
	<path d="M 1637.0,2162.0 C 1617.59,2186.46 1599.69,2216.49 1576.0,2237.0" style="stroke:#010101; fill:none;"/>
	<path d="M 1694.0,2162.0 L 1672.0,2186.0" style="stroke:#010101; fill:none;"/>
	<path d="M 1672.0,2167.0 L 1646.0,2202.0" style="stroke:#010101; fill:none;"/>
	<path d="M 1652.0,2169.0 L 1627.0,2206.0" style="stroke:#010101; fill:none;"/>
	<path d="M 1587.0,2199.0 L 1526.0,2286.0" style="stroke:#010101; fill:none;"/>
	<path d="M 1554.0,2226.0 L 1498.0,2299.0" style="stroke:#010101; fill:none;"/>
	<path d="M 1642.0,2300.0 C 1656.85,2289.39 1672.67,2280.04 1688.0,2270.14 C 1703.69,2260.01 1720.89,2248.52 1740.0,2247.0" style="stroke:#010101; fill:none;"/>
	<path d="M 1752.0,2253.0 C 1762.8,2263.8 1774.85,2274.72 1781.0,2289.0" style="stroke:#010101; fill:none;"/>
	<path d="M 1516.0,2283.0 L 1513.0,2287.0" style="stroke:#010101; fill:none;"/>
</svg>
