<?xml version="1.0" ?>
<svg baseProfile="full" height="1079" version="1.1" width="987" xmlns="http://www.w3.org/2000/svg" xmlns:ev="http://www.w3.org/2001/xml-events" xmlns:xlink="http://www.w3.org/1999/xlink">
	<defs/>
	<path d="M 731.0,112.0 L 732.0,112.0" style="stroke:#050105; fill:none;"/>
	<path d="M 588.0,117.0 L 588.0,118.0" style="stroke:#050105; fill:none;"/>
	<path d="M 718.0,117.0 L 718.0,118.0" style="stroke:#050105; fill:none;"/>
	<path d="M 723.0,121.0 L 726.0,121.0" style="stroke:#050105; fill:none;"/>
	<path d="M 734.0,124.0 L 735.0,126.0" style="stroke:#050105; fill:none;"/>
	<path d="M 739.0,129.0 L 740.0,130.0" style="stroke:#050105; fill:none;"/>
	<path d="M 744.0,130.0 L 748.0,134.0" style="stroke:#050105; fill:none;"/>
	<path d="M 749.0,136.0 L 752.0,138.0" style="stroke:#050105; fill:none;"/>
	<path d="M 746.0,143.0 L 745.0,144.0" style="stroke:#050105; fill:none;"/>
	<path d="M 755.0,143.0 L 757.0,143.0" style="stroke:#050105; fill:none;"/>
	<path d="M 766.0,150.0 L 775.0,160.0" style="stroke:#050105; fill:none;"/>
	<path d="M 774.0,154.0 L 774.0,156.0" style="stroke:#050105; fill:none;"/>
	<path d="M 772.0,155.0 L 771.0,156.0" style="stroke:#050105; fill:none;"/>
	<path d="M 778.0,161.0 L 779.0,161.0" style="stroke:#050105; fill:none;"/>
	<path d="M 782.0,164.0 L 785.0,166.0" style="stroke:#050105; fill:none;"/>
	<path d="M 785.0,169.0 L 787.0,170.0" style="stroke:#050105; fill:none;"/>
	<path d="M 789.0,171.0 L 792.0,174.0" style="stroke:#050105; fill:none;"/>
	<path d="M 795.0,176.0 L 795.0,177.0" style="stroke:#050105; fill:none;"/>
	<path d="M 797.0,181.0 L 799.0,181.0" style="stroke:#050105; fill:none;"/>
	<path d="M 800.0,183.0 L 804.0,190.0" style="stroke:#050105; fill:none;"/>
	<path d="M 807.0,192.0 L 812.0,197.0" style="stroke:#050105; fill:none;"/>
	<path d="M 815.0,199.0 L 816.0,199.0" style="stroke:#050105; fill:none;"/>
	<path d="M 818.0,202.0 L 820.0,203.0" style="stroke:#050105; fill:none;"/>
	<path d="M 824.0,207.0 L 827.0,211.0" style="stroke:#050105; fill:none;"/>
	<path d="M 825.0,212.0 L 825.0,213.0" style="stroke:#050105; fill:none;"/>
	<path d="M 827.0,216.0 L 828.0,214.0 L 830.0,219.0" style="stroke:#050105; fill:none;"/>
	<path d="M 833.0,220.0 L 837.0,224.0" style="stroke:#050105; fill:none;"/>
	<path d="M 839.0,225.0 L 839.0,226.0" style="stroke:#050105; fill:none;"/>
	<path d="M 839.0,229.0 L 841.0,230.0" style="stroke:#050105; fill:none;"/>
	<path d="M 344.0,235.0 L 345.0,235.0" style="stroke:#050105; fill:none;"/>
	<path d="M 844.0,235.0 L 843.0,237.0" style="stroke:#050105; fill:none;"/>
	<path d="M 845.0,238.0 L 846.0,241.0" style="stroke:#050105; fill:none;"/>
	<path d="M 851.0,242.0 L 853.0,243.0" style="stroke:#050105; fill:none;"/>
	<path d="M 857.0,248.0 L 856.0,249.0" style="stroke:#050105; fill:none;"/>
	<path d="M 862.0,261.0 L 863.0,264.0" style="stroke:#050105; fill:none;"/>
	<path d="M 861.0,263.0 L 862.0,263.0" style="stroke:#050105; fill:none;"/>
	<path d="M 866.0,269.0 L 870.0,271.0" style="stroke:#050105; fill:none;"/>
	<path d="M 872.0,277.0 L 874.0,279.0" style="stroke:#050105; fill:none;"/>
	<path d="M 875.0,282.0 L 876.0,283.0" style="stroke:#050105; fill:none;"/>
	<path d="M 875.0,285.0 L 875.0,286.0" style="stroke:#050105; fill:none;"/>
	<path d="M 881.0,293.0 L 881.0,295.0" style="stroke:#050105; fill:none;"/>
	<path d="M 884.0,299.0 L 884.0,301.0" style="stroke:#050105; fill:none;"/>
	<path d="M 891.0,314.0 L 891.0,316.0" style="stroke:#050105; fill:none;"/>
	<path d="M 890.0,318.0 L 890.0,319.0" style="stroke:#050105; fill:none;"/>
	<path d="M 892.0,320.0 L 893.0,320.0" style="stroke:#050105; fill:none;"/>
	<path d="M 893.0,323.0 L 893.0,328.0" style="stroke:#050105; fill:none;"/>
	<path d="M 894.0,330.0 L 895.0,330.0" style="stroke:#050105; fill:none;"/>
	<path d="M 893.0,333.0 L 896.0,333.0" style="stroke:#050105; fill:none;"/>
	<path d="M 894.0,336.0 L 895.0,336.0" style="stroke:#050105; fill:none;"/>
	<path d="M 895.667,339.0 L 895.333,340.0 L 895.667,339.0" style="stroke:#050105; fill:none;"/>
	<path d="M 898.0,342.0 L 896.0,344.0 L 896.0,346.0" style="stroke:#050105; fill:none;"/>
	<path d="M 898.0,344.0 L 897.0,345.0" style="stroke:#050105; fill:none;"/>
	<path d="M 898.0,349.0 L 898.0,350.0" style="stroke:#050105; fill:none;"/>
	<path d="M 897.0,352.0 C 899.272,354.891 900.042,357.831 898.0,361.0" style="stroke:#050105; fill:none;"/>
	<path d="M 899.0,364.0 L 900.0,366.0" style="stroke:#050105; fill:none;"/>
	<path d="M 902.0,369.0 L 902.0,382.0" style="stroke:#050105; fill:none;"/>
	<path d="M 900.0,373.0 L 901.0,374.0" style="stroke:#050105; fill:none;"/>
	<path d="M 903.0,385.0 L 902.0,390.0" style="stroke:#050105; fill:none;"/>
	<path d="M 902.0,398.0 L 904.0,402.0" style="stroke:#050105; fill:none;"/>
	<path d="M 904.0,408.0 L 904.0,410.0" style="stroke:#050105; fill:none;"/>
	<path d="M 903.0,421.0 L 903.0,422.0 L 903.0,421.0" style="stroke:#050105; fill:none;"/>
	<path d="M 903.0,423.0 L 900.0,439.0" style="stroke:#050105; fill:none;"/>
	<path d="M 903.0,439.0 L 901.0,454.0" style="stroke:#050105; fill:none;"/>
	<path d="M 901.0,458.0 L 902.0,468.0" style="stroke:#050105; fill:none;"/>
	<path d="M 901.0,470.0 L 904.0,477.0" style="stroke:#050105; fill:none;"/>
	<path d="M 611.0,479.0 L 612.0,479.0" style="stroke:#050105; fill:none;"/>
	<path d="M 617.0,480.0 L 617.0,481.0" style="stroke:#050105; fill:none;"/>
	<path d="M 619.0,481.0 L 620.0,481.0" style="stroke:#050105; fill:none;"/>
	<path d="M 610.0,482.0 L 608.0,484.0" style="stroke:#050105; fill:none;"/>
	<path d="M 627.0,482.0 L 630.0,482.0" style="stroke:#050105; fill:none;"/>
	<path d="M 569.0,485.0 L 573.0,483.0" style="stroke:#050105; fill:none;"/>
	<path d="M 566.0,485.0 L 566.0,486.0" style="stroke:#050105; fill:none;"/>
	<path d="M 634.0,485.0 L 635.0,485.0" style="stroke:#050105; fill:none;"/>
	<path d="M 559.0,489.0 L 564.0,487.0" style="stroke:#050105; fill:none;"/>
	<path d="M 605.0,491.0 L 605.0,487.0" style="stroke:#050105; fill:none;"/>
	<path d="M 905.0,487.0 L 904.0,495.0" style="stroke:#050105; fill:none;"/>
	<path d="M 597.0,491.0 L 603.0,488.0" style="stroke:#050105; fill:none;"/>
	<path d="M 609.0,488.0 L 612.0,489.0" style="stroke:#050105; fill:none;"/>
	<path d="M 637.0,488.0 L 638.0,490.0" style="stroke:#050105; fill:none;"/>
	<path d="M 902.0,488.0 L 902.0,490.0" style="stroke:#050105; fill:none;"/>
	<path d="M 615.0,489.0 L 616.0,489.0" style="stroke:#050105; fill:none;"/>
	<path d="M 618.0,489.0 L 619.0,489.0" style="stroke:#050105; fill:none;"/>
	<path d="M 557.0,490.0 L 556.0,492.0" style="stroke:#050105; fill:none;"/>
	<path d="M 626.0,491.0 L 630.0,491.0" style="stroke:#050105; fill:none;"/>
	<path d="M 553.0,492.0 L 551.0,495.0" style="stroke:#050105; fill:none;"/>
	<path d="M 589.0,492.0 L 591.0,492.0" style="stroke:#050105; fill:none;"/>
	<path d="M 548.0,494.0 L 548.0,496.0" style="stroke:#050105; fill:none;"/>
	<path d="M 587.0,494.0 L 582.0,510.0" style="stroke:#050105; fill:none;"/>
	<path d="M 625.0,494.0 L 625.0,495.0" style="stroke:#050105; fill:none;"/>
	<path d="M 634.0,494.0 L 635.0,498.0" style="stroke:#050105; fill:none;"/>
	<path d="M 637.0,494.0 L 638.0,494.0" style="stroke:#050105; fill:none;"/>
	<path d="M 546.0,495.0 L 544.0,497.0" style="stroke:#050105; fill:none;"/>
	<path d="M 574.0,497.0 L 575.0,497.0" style="stroke:#050105; fill:none;"/>
	<path d="M 626.0,497.0 L 627.0,497.0" style="stroke:#050105; fill:none;"/>
	<path d="M 905.0,498.0 L 907.0,506.0" style="stroke:#050105; fill:none;"/>
	<path d="M 643.0,498.0 L 643.0,499.0" style="stroke:#050105; fill:none;"/>
	<path d="M 580.0,499.0 L 580.0,500.0" style="stroke:#050105; fill:none;"/>
	<path d="M 628.0,499.0 L 630.0,500.0" style="stroke:#050105; fill:none;"/>
	<path d="M 538.0,501.0 L 536.0,503.0" style="stroke:#050105; fill:none;"/>
	<path d="M 561.0,504.0 L 568.0,503.0" style="stroke:#050105; fill:none;"/>
	<path d="M 636.0,501.0 L 638.0,502.0" style="stroke:#050105; fill:none;"/>
	<path d="M 649.0,503.0 L 650.0,506.0" style="stroke:#050105; fill:none;"/>
	<path d="M 559.0,504.0 L 559.0,505.0" style="stroke:#050105; fill:none;"/>
	<path d="M 638.0,505.0 L 639.0,506.0" style="stroke:#050105; fill:none;"/>
	<path d="M 533.0,506.0 L 529.0,509.0" style="stroke:#050105; fill:none;"/>
	<path d="M 555.0,506.0 L 556.0,506.0" style="stroke:#050105; fill:none;"/>
	<path d="M 565.0,506.0 L 566.0,506.0" style="stroke:#050105; fill:none;"/>
	<path d="M 566.0,508.0 L 566.0,509.0" style="stroke:#050105; fill:none;"/>
	<path d="M 541.0,521.0 C 537.089,517.428 549.857,510.382 553.0,509.0" style="stroke:#050105; fill:none;"/>
	<path d="M 634.0,510.0 L 636.0,518.0" style="stroke:#050105; fill:none;"/>
	<path d="M 527.0,510.0 L 524.0,513.0" style="stroke:#050105; fill:none;"/>
	<path d="M 566.0,511.0 L 566.0,513.0" style="stroke:#050105; fill:none;"/>
	<path d="M 643.0,511.0 L 643.0,512.0" style="stroke:#050105; fill:none;"/>
	<path d="M 555.0,512.0 L 555.0,514.0" style="stroke:#050105; fill:none;"/>
	<path d="M 829.0,512.0 L 831.0,514.0" style="stroke:#050105; fill:none;"/>
	<path d="M 831.0,512.0 L 830.0,513.0" style="stroke:#050105; fill:none;"/>
	<path d="M 833.0,513.0 L 836.0,512.0" style="stroke:#050105; fill:none;"/>
	<path d="M 558.0,513.0 L 559.0,513.0" style="stroke:#050105; fill:none;"/>
	<path d="M 583.0,513.0 L 588.0,529.0" style="stroke:#050105; fill:none;"/>
	<path d="M 827.0,513.0 L 827.0,514.0" style="stroke:#050105; fill:none;"/>
	<path d="M 909.0,513.0 L 911.0,514.0" style="stroke:#050105; fill:none;"/>
	<path d="M 820.0,515.0 L 824.0,514.0" style="stroke:#050105; fill:none;"/>
	<path d="M 908.0,515.0 L 908.0,517.0" style="stroke:#050105; fill:none;"/>
	<path d="M 911.0,518.0 L 912.0,519.0" style="stroke:#050105; fill:none;"/>
	<path d="M 813.0,519.0 L 812.0,520.0" style="stroke:#050105; fill:none;"/>
	<path d="M 855.0,520.0 L 855.0,521.0" style="stroke:#050105; fill:none;"/>
	<path d="M 863.0,520.0 L 862.0,522.0" style="stroke:#050105; fill:none;"/>
	<path d="M 867.0,521.0 L 868.0,521.0" style="stroke:#050105; fill:none;"/>
	<path d="M 911.0,521.0 L 910.0,522.0" style="stroke:#050105; fill:none;"/>
	<path d="M 543.0,522.0 L 545.0,525.0" style="stroke:#050105; fill:none;"/>
	<path d="M 636.0,522.0 L 633.0,527.0" style="stroke:#050105; fill:none;"/>
	<path d="M 808.0,522.0 L 808.0,523.0" style="stroke:#050105; fill:none;"/>
	<path d="M 847.0,523.0 L 854.0,524.0" style="stroke:#050105; fill:none;"/>
	<path d="M 647.0,523.0 L 649.0,526.0" style="stroke:#050105; fill:none;"/>
	<path d="M 834.0,523.0 L 834.0,525.0 L 834.0,523.0" style="stroke:#050105; fill:none;"/>
	<path d="M 827.0,524.0 L 827.0,525.0" style="stroke:#050105; fill:none;"/>
	<path d="M 864.0,525.0 L 866.0,524.0" style="stroke:#050105; fill:none;"/>
	<path d="M 823.0,525.0 L 823.0,526.0" style="stroke:#050105; fill:none;"/>
	<path d="M 857.0,526.0 L 861.0,527.0" style="stroke:#050105; fill:none;"/>
	<path d="M 871.0,525.0 C 864.212,531.05 869.966,542.401 873.0,550.0" style="stroke:#050105; fill:none;"/>
	<path d="M 548.0,526.0 L 555.0,526.0" style="stroke:#050105; fill:none;"/>
	<path d="M 817.0,527.0 L 821.0,526.0" style="stroke:#050105; fill:none;"/>
	<path d="M 553.0,527.0 L 553.0,529.0" style="stroke:#050105; fill:none;"/>
	<path d="M 558.0,527.0 L 557.0,528.0" style="stroke:#050105; fill:none;"/>
	<path d="M 560.0,527.0 L 561.0,527.0" style="stroke:#050105; fill:none;"/>
	<path d="M 564.0,527.0 L 569.0,529.0" style="stroke:#050105; fill:none;"/>
	<path d="M 878.0,527.0 L 878.0,528.0" style="stroke:#050105; fill:none;"/>
	<path d="M 911.0,527.0 L 913.0,529.0" style="stroke:#050105; fill:none;"/>
	<path d="M 913.0,527.0 L 912.0,528.0" style="stroke:#050105; fill:none;"/>
	<path d="M 574.0,528.0 L 574.0,529.0" style="stroke:#050105; fill:none;"/>
	<path d="M 849.0,528.0 L 853.0,532.0" style="stroke:#050105; fill:none;"/>
	<path d="M 638.0,531.0 L 649.0,529.0" style="stroke:#050105; fill:none;"/>
	<path d="M 808.0,534.0 L 812.0,529.0" style="stroke:#050105; fill:none;"/>
	<path d="M 863.0,530.0 L 864.0,531.0" style="stroke:#050105; fill:none;"/>
	<path d="M 880.0,530.0 L 879.0,531.0" style="stroke:#050105; fill:none;"/>
	<path d="M 621.0,533.0 L 626.0,532.0" style="stroke:#050105; fill:none;"/>
	<path d="M 629.0,531.0 L 632.0,532.0" style="stroke:#050105; fill:none;"/>
	<path d="M 634.0,532.0 L 636.0,531.0" style="stroke:#050105; fill:none;"/>
	<path d="M 804.0,531.0 L 802.0,532.0" style="stroke:#050105; fill:none;"/>
	<path d="M 913.0,531.0 L 913.0,542.0" style="stroke:#050105; fill:none;"/>
	<path d="M 596.0,532.0 L 598.0,532.0" style="stroke:#050105; fill:none;"/>
	<path d="M 603.0,532.0 L 608.0,533.0" style="stroke:#050105; fill:none;"/>
	<path d="M 873.0,532.0 L 874.0,532.0" style="stroke:#050105; fill:none;"/>
	<path d="M 610.0,534.0 L 612.0,533.0" style="stroke:#050105; fill:none;"/>
	<path d="M 614.0,533.0 L 615.0,533.0" style="stroke:#050105; fill:none;"/>
	<path d="M 801.0,534.0 L 799.0,540.0" style="stroke:#050105; fill:none;"/>
	<path d="M 911.0,536.0 L 912.0,536.0" style="stroke:#050105; fill:none;"/>
	<path d="M 876.0,537.0 L 876.0,538.0" style="stroke:#050105; fill:none;"/>
	<path d="M 808.0,538.0 L 809.0,538.0" style="stroke:#050105; fill:none;"/>
	<path d="M 856.0,539.0 L 857.0,543.0" style="stroke:#050105; fill:none;"/>
	<path d="M 810.0,540.0 L 810.0,545.0" style="stroke:#050105; fill:none;"/>
	<path d="M 796.0,541.0 L 795.0,545.0" style="stroke:#050105; fill:none;"/>
	<path d="M 858.0,545.0 L 858.0,546.0" style="stroke:#050105; fill:none;"/>
	<path d="M 878.0,546.0 L 880.0,546.0" style="stroke:#050105; fill:none;"/>
	<path d="M 913.0,546.0 L 908.333,580.0 L 909.0,585.0" style="stroke:#050105; fill:none;"/>
	<path d="M 795.0,550.0 L 800.0,550.0" style="stroke:#050105; fill:none;"/>
	<path d="M 812.0,551.0 L 814.0,550.0" style="stroke:#050105; fill:none;"/>
	<path d="M 848.0,563.0 C 856.71,564.448 856.156,555.217 860.0,550.0" style="stroke:#050105; fill:none;"/>
	<path d="M 809.0,553.0 L 810.0,553.0" style="stroke:#050105; fill:none;"/>
	<path d="M 815.0,553.0 L 816.0,556.0" style="stroke:#050105; fill:none;"/>
	<path d="M 873.0,554.0 L 879.0,563.0" style="stroke:#050105; fill:none;"/>
	<path d="M 819.0,555.0 L 819.0,557.0" style="stroke:#050105; fill:none;"/>
	<path d="M 821.0,556.0 L 822.0,556.0" style="stroke:#050105; fill:none;"/>
	<path d="M 874.0,557.0 L 873.0,558.0" style="stroke:#050105; fill:none;"/>
	<path d="M 878.0,558.0 L 880.0,561.0" style="stroke:#050105; fill:none;"/>
	<path d="M 827.0,558.0 L 828.0,558.0" style="stroke:#050105; fill:none;"/>
	<path d="M 831.0,559.0 L 835.0,558.0" style="stroke:#050105; fill:none;"/>
	<path d="M 837.0,559.0 L 838.0,561.0" style="stroke:#050105; fill:none;"/>
	<path d="M 184.0,562.0 L 193.0,562.0" style="stroke:#050105; fill:none;"/>
	<path d="M 196.0,562.0 L 197.0,564.0" style="stroke:#050105; fill:none;"/>
	<path d="M 844.0,562.0 L 845.0,562.0" style="stroke:#050105; fill:none;"/>
	<path d="M 179.0,563.0 L 180.0,563.0" style="stroke:#050105; fill:none;"/>
	<path d="M 199.0,563.0 L 211.0,567.0" style="stroke:#050105; fill:none;"/>
	<path d="M 882.0,563.0 L 882.0,565.0 L 882.0,563.0" style="stroke:#050105; fill:none;"/>
	<path d="M 169.0,564.0 L 164.0,567.0" style="stroke:#050105; fill:none;"/>
	<path d="M 170.0,566.0 L 176.0,564.0" style="stroke:#050105; fill:none;"/>
	<path d="M 862.0,565.0 L 861.0,567.0" style="stroke:#050105; fill:none;"/>
	<path d="M 885.0,565.0 L 884.0,566.0" style="stroke:#050105; fill:none;"/>
	<path d="M 856.0,566.0 L 858.0,566.0" style="stroke:#050105; fill:none;"/>
	<path d="M 147.0,574.0 L 161.0,567.0" style="stroke:#050105; fill:none;"/>
	<path d="M 868.0,567.0 L 868.0,568.0" style="stroke:#050105; fill:none;"/>
	<path d="M 871.0,567.0 L 874.0,568.0" style="stroke:#050105; fill:none;"/>
	<path d="M 214.0,569.0 L 216.0,569.0" style="stroke:#050105; fill:none;"/>
	<path d="M 876.0,568.0 L 877.0,569.0" style="stroke:#050105; fill:none;"/>
	<path d="M 219.0,570.0 L 220.0,571.0" style="stroke:#050105; fill:none;"/>
	<path d="M 145.0,573.0 L 144.0,574.0" style="stroke:#050105; fill:none;"/>
	<path d="M 224.0,574.0 L 226.0,574.0" style="stroke:#050105; fill:none;"/>
	<path d="M 783.0,574.0 L 784.0,575.0" style="stroke:#050105; fill:none;"/>
	<path d="M 138.0,577.0 L 136.0,583.0" style="stroke:#050105; fill:none;"/>
	<path d="M 233.0,580.0 L 233.0,581.0" style="stroke:#050105; fill:none;"/>
	<path d="M 909.0,581.0 L 908.0,582.0" style="stroke:#050105; fill:none;"/>
	<path d="M 124.0,598.0 L 133.0,585.0" style="stroke:#050105; fill:none;"/>
	<path d="M 132.0,587.0 L 133.0,587.0" style="stroke:#050105; fill:none;"/>
	<path d="M 169.0,587.0 L 171.0,587.0" style="stroke:#050105; fill:none;"/>
	<path d="M 167.0,588.0 L 165.0,590.0" style="stroke:#050105; fill:none;"/>
	<path d="M 908.0,588.0 L 905.0,594.0" style="stroke:#050105; fill:none;"/>
	<path d="M 148.0,608.0 C 149.79,600.363 155.242,593.853 163.0,592.0" style="stroke:#050105; fill:none;"/>
	<path d="M 203.0,594.0 L 203.0,595.0" style="stroke:#050105; fill:none;"/>
	<path d="M 906.0,595.0 L 907.0,613.0" style="stroke:#050105; fill:none;"/>
	<path d="M 212.0,598.0 L 213.0,598.0" style="stroke:#050105; fill:none;"/>
	<path d="M 125.0,601.0 L 125.0,602.0" style="stroke:#050105; fill:none;"/>
	<path d="M 218.0,601.0 L 216.0,602.0" style="stroke:#050105; fill:none;"/>
	<path d="M 124.0,604.0 C 122.516,607.415 121.233,609.079 124.0,612.0" style="stroke:#050105; fill:none;"/>
	<path d="M 905.0,604.0 L 906.0,605.0" style="stroke:#050105; fill:none;"/>
	<path d="M 219.0,605.0 L 221.0,606.0" style="stroke:#050105; fill:none;"/>
	<path d="M 223.0,607.0 L 225.0,610.0" style="stroke:#050105; fill:none;"/>
	<path d="M 144.0,613.0 L 143.0,617.0" style="stroke:#050105; fill:none;"/>
	<path d="M 228.0,614.0 L 230.0,614.0" style="stroke:#050105; fill:none;"/>
	<path d="M 217.0,614.0 L 216.0,615.0" style="stroke:#050105; fill:none;"/>
	<path d="M 801.0,614.0 L 805.0,620.0" style="stroke:#050105; fill:none;"/>
	<path d="M 120.0,616.0 L 121.0,632.0" style="stroke:#050105; fill:none;"/>
	<path d="M 122.0,616.0 L 123.0,617.0" style="stroke:#050105; fill:none;"/>
	<path d="M 908.0,616.0 L 909.0,622.0" style="stroke:#050105; fill:none;"/>
	<path d="M 209.0,619.0 L 208.0,620.0" style="stroke:#050105; fill:none;"/>
	<path d="M 119.0,621.0 L 119.0,622.0" style="stroke:#050105; fill:none;"/>
	<path d="M 906.0,622.0 L 907.0,622.0" style="stroke:#050105; fill:none;"/>
	<path d="M 139.0,623.0 L 140.0,624.0" style="stroke:#050105; fill:none;"/>
	<path d="M 236.0,625.0 L 236.0,627.0" style="stroke:#050105; fill:none;"/>
	<path d="M 908.0,625.0 L 908.0,627.0" style="stroke:#050105; fill:none;"/>
	<path d="M 137.0,634.0 L 141.0,626.0" style="stroke:#050105; fill:none;"/>
	<path d="M 119.0,629.0 L 120.0,629.0" style="stroke:#050105; fill:none;"/>
	<path d="M 907.0,629.0 L 909.0,631.0 L 907.0,633.0 L 909.0,636.0" style="stroke:#050105; fill:none;"/>
	<path d="M 119.0,633.0 L 119.0,643.0" style="stroke:#050105; fill:none;"/>
	<path d="M 909.0,633.0 L 908.0,634.0" style="stroke:#050105; fill:none;"/>
	<path d="M 139.0,636.0 L 139.0,637.0" style="stroke:#050105; fill:none;"/>
	<path d="M 137.0,637.0 L 137.0,638.0" style="stroke:#050105; fill:none;"/>
	<path d="M 907.0,637.0 L 910.0,638.0" style="stroke:#050105; fill:none;"/>
	<path d="M 140.0,639.0 L 138.0,643.0" style="stroke:#050105; fill:none;"/>
	<path d="M 811.0,639.0 L 812.0,639.0" style="stroke:#050105; fill:none;"/>
	<path d="M 909.0,639.0 L 907.0,643.0" style="stroke:#050105; fill:none;"/>
	<path d="M 734.0,642.0 L 737.0,644.0" style="stroke:#050105; fill:none;"/>
	<path d="M 909.0,643.0 L 909.0,646.0" style="stroke:#050105; fill:none;"/>
	<path d="M 719.0,644.0 L 722.0,644.0" style="stroke:#050105; fill:none;"/>
	<path d="M 728.0,644.0 L 731.0,644.0" style="stroke:#050105; fill:none;"/>
	<path d="M 741.0,644.0 L 743.0,647.0" style="stroke:#050105; fill:none;"/>
	<path d="M 815.0,645.0 L 817.0,645.0" style="stroke:#050105; fill:none;"/>
	<path d="M 710.0,647.0 L 714.0,645.0" style="stroke:#050105; fill:none;"/>
	<path d="M 141.0,646.0 L 139.0,647.0" style="stroke:#050105; fill:none;"/>
	<path d="M 711.0,646.0 L 721.0,651.0" style="stroke:#050105; fill:none;"/>
	<path d="M 745.0,648.0 L 747.0,647.0" style="stroke:#050105; fill:none;"/>
	<path d="M 713.0,648.0 L 711.0,650.0" style="stroke:#050105; fill:none;"/>
	<path d="M 118.0,649.0 L 119.0,649.0" style="stroke:#050105; fill:none;"/>
	<path d="M 791.0,651.0 C 795.531,649.341 797.988,649.156 802.0,652.0" style="stroke:#050105; fill:none;"/>
	<path d="M 801.0,649.0 L 802.0,650.0" style="stroke:#050105; fill:none;"/>
	<path d="M 817.0,649.0 L 817.0,650.0" style="stroke:#050105; fill:none;"/>
	<path d="M 139.0,650.0 L 140.0,652.0" style="stroke:#050105; fill:none;"/>
	<path d="M 909.0,650.0 L 908.0,656.0" style="stroke:#050105; fill:none;"/>
	<path d="M 119.0,651.0 L 120.0,652.0" style="stroke:#050105; fill:none;"/>
	<path d="M 713.0,651.0 L 714.0,651.0" style="stroke:#050105; fill:none;"/>
	<path d="M 778.0,659.0 L 787.0,652.0" style="stroke:#050105; fill:none;"/>
	<path d="M 206.0,654.0 L 205.0,655.0" style="stroke:#050105; fill:none;"/>
	<path d="M 672.0,655.0 L 673.0,655.0" style="stroke:#050105; fill:none;"/>
	<path d="M 121.0,656.0 L 121.0,658.0" style="stroke:#050105; fill:none;"/>
	<path d="M 141.0,657.0 L 143.0,657.0" style="stroke:#050105; fill:none;"/>
	<path d="M 910.0,657.0 L 909.0,659.0" style="stroke:#050105; fill:none;"/>
	<path d="M 172.0,659.0 L 171.0,660.0" style="stroke:#050105; fill:none;"/>
	<path d="M 143.0,660.0 L 146.0,665.0 L 144.0,665.0" style="stroke:#050105; fill:none;"/>
	<path d="M 819.0,660.0 L 818.0,665.0" style="stroke:#050105; fill:none;"/>
	<path d="M 682.0,661.0 L 683.0,662.0" style="stroke:#050105; fill:none;"/>
	<path d="M 775.0,661.0 L 773.0,662.0" style="stroke:#050105; fill:none;"/>
	<path d="M 122.0,664.0 L 124.0,671.0" style="stroke:#050105; fill:none;"/>
	<path d="M 688.0,664.0 L 689.0,665.0" style="stroke:#050105; fill:none;"/>
	<path d="M 692.0,665.0 L 693.0,665.0" style="stroke:#050105; fill:none;"/>
	<path d="M 695.0,666.0 L 694.0,668.0" style="stroke:#050105; fill:none;"/>
	<path d="M 147.0,667.0 L 147.0,669.0" style="stroke:#050105; fill:none;"/>
	<path d="M 909.0,667.0 L 911.0,672.0" style="stroke:#050105; fill:none;"/>
	<path d="M 817.0,668.0 L 816.0,670.0" style="stroke:#050105; fill:none;"/>
	<path d="M 147.0,671.0 L 151.0,676.0" style="stroke:#050105; fill:none;"/>
	<path d="M 269.0,672.0 L 268.0,675.0" style="stroke:#050105; fill:none;"/>
	<path d="M 810.0,674.0 L 805.0,677.0" style="stroke:#050105; fill:none;"/>
	<path d="M 124.0,676.0 L 124.0,678.0" style="stroke:#050105; fill:none;"/>
	<path d="M 126.0,677.0 L 128.0,682.0" style="stroke:#050105; fill:none;"/>
	<path d="M 800.0,678.0 L 802.0,678.0" style="stroke:#050105; fill:none;"/>
	<path d="M 911.0,680.0 L 913.0,680.0" style="stroke:#050105; fill:none;"/>
	<path d="M 155.0,682.0 L 155.0,684.0 L 155.0,682.0" style="stroke:#050105; fill:none;"/>
	<path d="M 267.0,682.0 L 267.0,683.0" style="stroke:#050105; fill:none;"/>
	<path d="M 913.0,682.0 L 914.0,684.0" style="stroke:#050105; fill:none;"/>
	<path d="M 130.0,685.0 L 140.0,706.0" style="stroke:#050105; fill:none;"/>
	<path d="M 915.0,687.0 L 916.0,688.0" style="stroke:#050105; fill:none;"/>
	<path d="M 915.0,692.0 L 917.0,694.0" style="stroke:#050105; fill:none;"/>
	<path d="M 269.0,693.0 L 271.0,695.0" style="stroke:#050105; fill:none;"/>
	<path d="M 915.333,697.0 L 915.667,698.0 L 915.333,697.0" style="stroke:#050105; fill:none;"/>
	<path d="M 273.0,699.0 L 273.0,700.0" style="stroke:#050105; fill:none;"/>
	<path d="M 136.0,700.0 L 137.0,701.0" style="stroke:#050105; fill:none;"/>
	<path d="M 916.0,700.0 L 915.0,703.0" style="stroke:#050105; fill:none;"/>
	<path d="M 137.0,702.0 L 138.0,703.0" style="stroke:#050105; fill:none;"/>
	<path d="M 207.0,705.0 L 208.0,706.0" style="stroke:#050105; fill:none;"/>
	<path d="M 915.0,705.0 L 915.0,706.0" style="stroke:#050105; fill:none;"/>
	<path d="M 278.0,707.0 L 286.0,712.0" style="stroke:#050105; fill:none;"/>
	<path d="M 917.0,707.0 L 917.0,708.0" style="stroke:#050105; fill:none;"/>
	<path d="M 234.0,709.0 L 237.0,710.0" style="stroke:#050105; fill:none;"/>
	<path d="M 211.0,710.0 L 212.0,711.0" style="stroke:#050105; fill:none;"/>
	<path d="M 142.0,711.0 L 146.0,716.0" style="stroke:#050105; fill:none;"/>
	<path d="M 239.0,711.0 L 244.0,712.0" style="stroke:#050105; fill:none;"/>
	<path d="M 917.0,711.0 L 917.0,712.0" style="stroke:#050105; fill:none;"/>
	<path d="M 246.0,713.0 L 250.0,713.0" style="stroke:#050105; fill:none;"/>
	<path d="M 222.0,713.0 L 223.0,713.0" style="stroke:#050105; fill:none;"/>
	<path d="M 254.0,714.0 L 261.0,716.0" style="stroke:#050105; fill:none;"/>
	<path d="M 917.0,715.0 L 919.0,721.0" style="stroke:#050105; fill:none;"/>
	<path d="M 263.0,716.0 L 266.0,718.0" style="stroke:#050105; fill:none;"/>
	<path d="M 284.0,722.0 L 288.0,717.0" style="stroke:#050105; fill:none;"/>
	<path d="M 148.0,720.0 L 151.0,724.0" style="stroke:#050105; fill:none;"/>
	<path d="M 916.0,721.0 L 917.0,727.0 L 916.0,725.0" style="stroke:#050105; fill:none;"/>
	<path d="M 150.0,728.0 L 152.0,727.0" style="stroke:#050105; fill:none;"/>
	<path d="M 916.0,729.0 L 918.0,729.0 L 916.0,729.0" style="stroke:#050105; fill:none;"/>
	<path d="M 153.0,730.0 L 155.0,735.0" style="stroke:#050105; fill:none;"/>
	<path d="M 917.0,730.0 L 916.0,733.0" style="stroke:#050105; fill:none;"/>
	<path d="M 918.0,737.0 L 917.0,739.0" style="stroke:#050105; fill:none;"/>
	<path d="M 737.0,739.0 L 743.0,739.0" style="stroke:#050105; fill:none;"/>
	<path d="M 158.0,739.0 L 159.0,740.0" style="stroke:#050105; fill:none;"/>
	<path d="M 714.0,743.0 L 719.0,741.0" style="stroke:#050105; fill:none;"/>
	<path d="M 721.0,741.0 L 725.0,740.0" style="stroke:#050105; fill:none;"/>
	<path d="M 750.0,741.0 L 756.0,746.0" style="stroke:#050105; fill:none;"/>
	<path d="M 159.0,742.0 L 161.0,743.0" style="stroke:#050105; fill:none;"/>
	<path d="M 917.0,742.0 L 919.0,754.0" style="stroke:#050105; fill:none;"/>
	<path d="M 164.0,745.0 L 163.0,747.0" style="stroke:#050105; fill:none;"/>
	<path d="M 166.0,746.0 L 169.0,752.0" style="stroke:#050105; fill:none;"/>
	<path d="M 269.0,748.0 L 267.0,755.0" style="stroke:#050105; fill:none;"/>
	<path d="M 271.0,748.0 L 272.0,748.0" style="stroke:#050105; fill:none;"/>
	<path d="M 758.0,749.0 L 760.0,749.0" style="stroke:#050105; fill:none;"/>
	<path d="M 762.0,749.0 L 766.0,750.0" style="stroke:#050105; fill:none;"/>
	<path d="M 275.0,750.0 L 277.0,751.0" style="stroke:#050105; fill:none;"/>
	<path d="M 701.0,750.0 L 701.0,751.0" style="stroke:#050105; fill:none;"/>
	<path d="M 714.0,751.0 L 713.0,752.0" style="stroke:#050105; fill:none;"/>
	<path d="M 279.0,752.0 L 284.0,753.0" style="stroke:#050105; fill:none;"/>
	<path d="M 694.0,754.0 L 697.0,753.0 L 691.0,758.0" style="stroke:#050105; fill:none;"/>
	<path d="M 719.0,752.0 L 719.0,753.0" style="stroke:#050105; fill:none;"/>
	<path d="M 281.0,753.0 L 281.0,755.0" style="stroke:#050105; fill:none;"/>
	<path d="M 692.0,755.0 L 694.0,754.0" style="stroke:#050105; fill:none;"/>
	<path d="M 695.0,753.0 L 695.0,755.0" style="stroke:#050105; fill:none;"/>
	<path d="M 773.0,753.0 L 776.0,757.0" style="stroke:#050105; fill:none;"/>
	<path d="M 265.0,754.0 L 262.0,757.0" style="stroke:#050105; fill:none;"/>
	<path d="M 172.0,756.0 L 175.0,756.0" style="stroke:#050105; fill:none;"/>
	<path d="M 690.0,755.0 L 690.0,756.0" style="stroke:#050105; fill:none;"/>
	<path d="M 697.0,755.0 L 697.0,757.0" style="stroke:#050105; fill:none;"/>
	<path d="M 286.0,756.0 L 284.0,760.0" style="stroke:#050105; fill:none;"/>
	<path d="M 918.0,757.0 L 918.0,759.0" style="stroke:#050105; fill:none;"/>
	<path d="M 178.0,758.0 L 180.0,761.0" style="stroke:#050105; fill:none;"/>
	<path d="M 698.0,759.0 L 699.0,760.0" style="stroke:#050105; fill:none;"/>
	<path d="M 763.0,759.0 C 759.605,764.125 757.508,768.198 751.0,769.0" style="stroke:#050105; fill:none;"/>
	<path d="M 182.0,760.0 L 184.0,761.0" style="stroke:#050105; fill:none;"/>
	<path d="M 259.0,760.0 L 260.0,760.0" style="stroke:#050105; fill:none;"/>
	<path d="M 683.0,760.0 L 683.0,762.0 L 683.0,760.0" style="stroke:#050105; fill:none;"/>
	<path d="M 777.0,761.0 L 780.0,760.0" style="stroke:#050105; fill:none;"/>
	<path d="M 264.0,761.0 L 265.0,762.0" style="stroke:#050105; fill:none;"/>
	<path d="M 714.0,766.0 L 734.0,761.0" style="stroke:#050105; fill:none;"/>
	<path d="M 917.0,762.0 L 917.0,764.0 L 917.0,762.0" style="stroke:#050105; fill:none;"/>
	<path d="M 186.0,763.0 L 190.0,765.0" style="stroke:#050105; fill:none;"/>
	<path d="M 678.0,763.0 L 678.0,764.0" style="stroke:#050105; fill:none;"/>
	<path d="M 708.0,764.0 L 711.0,764.0" style="stroke:#050105; fill:none;"/>
	<path d="M 735.0,764.0 L 738.0,765.0" style="stroke:#050105; fill:none;"/>
	<path d="M 671.0,766.0 L 674.0,765.0" style="stroke:#050105; fill:none;"/>
	<path d="M 266.0,766.0 L 266.0,768.0 L 266.0,766.0" style="stroke:#050105; fill:none;"/>
	<path d="M 741.0,767.0 L 745.0,767.0" style="stroke:#050105; fill:none;"/>
	<path d="M 664.0,767.0 L 663.0,770.0" style="stroke:#050105; fill:none;"/>
	<path d="M 916.0,768.0 L 917.0,768.0" style="stroke:#050105; fill:none;"/>
	<path d="M 266.0,769.0 L 272.0,773.0" style="stroke:#050105; fill:none;"/>
	<path d="M 279.0,771.0 L 283.0,771.0 L 278.0,770.0" style="stroke:#050105; fill:none;"/>
	<path d="M 659.0,769.0 L 660.0,770.0" style="stroke:#050105; fill:none;"/>
	<path d="M 781.0,769.0 L 783.0,770.0" style="stroke:#050105; fill:none;"/>
	<path d="M 197.0,770.0 L 197.0,772.0 L 197.0,770.0" style="stroke:#050105; fill:none;"/>
	<path d="M 199.0,771.0 L 202.0,773.0" style="stroke:#050105; fill:none;"/>
	<path d="M 756.0,772.0 L 758.0,771.0" style="stroke:#050105; fill:none;"/>
	<path d="M 652.0,772.0 L 652.0,773.0" style="stroke:#050105; fill:none;"/>
	<path d="M 655.0,772.0 L 654.0,773.0" style="stroke:#050105; fill:none;"/>
	<path d="M 782.0,775.0 L 784.0,774.0" style="stroke:#050105; fill:none;"/>
	<path d="M 917.0,772.0 L 918.0,772.0" style="stroke:#050105; fill:none;"/>
	<path d="M 760.0,774.0 L 761.0,774.0" style="stroke:#050105; fill:none;"/>
	<path d="M 207.0,775.0 L 207.0,778.0" style="stroke:#050105; fill:none;"/>
	<path d="M 763.0,775.0 L 764.0,776.0" style="stroke:#050105; fill:none;"/>
	<path d="M 784.0,776.0 L 785.0,778.0" style="stroke:#050105; fill:none;"/>
	<path d="M 209.0,778.0 L 212.0,779.0" style="stroke:#050105; fill:none;"/>
	<path d="M 644.0,778.0 L 645.0,778.0" style="stroke:#050105; fill:none;"/>
	<path d="M 765.0,778.0 L 765.0,779.0" style="stroke:#050105; fill:none;"/>
	<path d="M 914.0,780.0 L 913.0,783.0" style="stroke:#050105; fill:none;"/>
	<path d="M 313.0,781.0 L 311.0,788.0" style="stroke:#050105; fill:none;"/>
	<path d="M 785.0,781.0 L 784.0,784.0" style="stroke:#050105; fill:none;"/>
	<path d="M 217.0,782.0 L 218.0,783.0" style="stroke:#050105; fill:none;"/>
	<path d="M 650.0,782.0 L 654.0,783.0" style="stroke:#050105; fill:none;"/>
	<path d="M 768.0,783.0 L 769.0,783.0" style="stroke:#050105; fill:none;"/>
	<path d="M 221.0,786.0 L 223.0,786.0" style="stroke:#050105; fill:none;"/>
	<path d="M 913.0,785.0 L 914.0,786.0" style="stroke:#050105; fill:none;"/>
	<path d="M 666.0,788.0 L 669.0,789.0" style="stroke:#050105; fill:none;"/>
	<path d="M 308.0,791.0 L 306.0,793.0" style="stroke:#050105; fill:none;"/>
	<path d="M 672.0,791.0 L 677.0,793.0" style="stroke:#050105; fill:none;"/>
	<path d="M 912.0,792.0 L 908.0,801.0" style="stroke:#050105; fill:none;"/>
	<path d="M 679.0,794.0 L 683.0,794.0" style="stroke:#050105; fill:none;"/>
	<path d="M 772.0,793.0 L 772.0,794.0" style="stroke:#050105; fill:none;"/>
	<path d="M 232.0,795.0 L 234.0,796.0" style="stroke:#050105; fill:none;"/>
	<path d="M 685.0,795.0 L 686.0,796.0" style="stroke:#050105; fill:none;"/>
	<path d="M 237.0,796.0 L 238.0,797.0" style="stroke:#050105; fill:none;"/>
	<path d="M 690.0,797.0 L 692.0,798.0" style="stroke:#050105; fill:none;"/>
	<path d="M 300.0,798.0 L 298.0,799.0" style="stroke:#050105; fill:none;"/>
	<path d="M 694.0,798.0 L 696.0,800.0" style="stroke:#050105; fill:none;"/>
	<path d="M 716.0,799.0 L 720.0,799.0" style="stroke:#050105; fill:none;"/>
	<path d="M 772.0,798.0 L 772.0,799.0" style="stroke:#050105; fill:none;"/>
	<path d="M 240.0,799.0 L 242.0,799.0" style="stroke:#050105; fill:none;"/>
	<path d="M 704.0,799.0 L 705.0,799.0" style="stroke:#050105; fill:none;"/>
	<path d="M 722.0,799.0 L 723.0,800.0" style="stroke:#050105; fill:none;"/>
	<path d="M 245.0,802.0 L 254.0,805.0" style="stroke:#050105; fill:none;"/>
	<path d="M 295.0,801.0 L 295.0,802.0" style="stroke:#050105; fill:none;"/>
	<path d="M 733.0,803.0 L 733.0,804.0" style="stroke:#050105; fill:none;"/>
	<path d="M 769.0,805.0 L 771.0,803.0" style="stroke:#050105; fill:none;"/>
	<path d="M 278.0,808.0 L 293.0,805.0" style="stroke:#050105; fill:none;"/>
	<path d="M 907.0,804.0 L 907.0,808.0" style="stroke:#050105; fill:none;"/>
	<path d="M 256.0,805.0 L 264.0,809.0" style="stroke:#050105; fill:none;"/>
	<path d="M 284.0,806.0 L 285.0,807.0" style="stroke:#050105; fill:none;"/>
	<path d="M 763.0,807.0 L 764.0,807.0" style="stroke:#050105; fill:none;"/>
	<path d="M 265.0,808.0 L 275.0,809.0" style="stroke:#050105; fill:none;"/>
	<path d="M 904.0,814.0 L 904.0,815.0" style="stroke:#050105; fill:none;"/>
	<path d="M 902.0,822.0 L 901.0,828.0" style="stroke:#050105; fill:none;"/>
	<path d="M 730.0,824.0 L 732.0,826.0" style="stroke:#050105; fill:none;"/>
	<path d="M 734.0,826.0 L 736.0,827.0" style="stroke:#050105; fill:none;"/>
	<path d="M 899.0,831.0 L 901.0,832.0" style="stroke:#050105; fill:none;"/>
	<path d="M 898.0,839.0 L 895.0,845.0" style="stroke:#050105; fill:none;"/>
	<path d="M 895.0,847.0 L 894.0,851.0" style="stroke:#050105; fill:none;"/>
	<path d="M 891.0,852.0 L 890.0,862.0" style="stroke:#050105; fill:none;"/>
	<path d="M 884.0,868.0 L 885.0,869.0" style="stroke:#050105; fill:none;"/>
	<path d="M 884.0,872.0 L 882.0,876.0" style="stroke:#050105; fill:none;"/>
	<path d="M 886.0,873.0 L 886.0,874.0" style="stroke:#050105; fill:none;"/>
	<path d="M 882.0,878.0 L 882.0,879.0" style="stroke:#050105; fill:none;"/>
	<path d="M 294.0,883.0 L 293.0,884.0" style="stroke:#050105; fill:none;"/>
	<path d="M 299.0,890.0 L 299.0,891.0" style="stroke:#050105; fill:none;"/>
	<path d="M 301.0,895.0 L 302.0,895.0" style="stroke:#050105; fill:none;"/>
	<path d="M 867.0,909.0 C 865.134,903.981 871.11,898.581 876.0,899.0" style="stroke:#050105; fill:none;"/>
	<path d="M 304.0,899.0 L 305.0,899.0" style="stroke:#050105; fill:none;"/>
	<path d="M 308.0,900.0 L 307.0,901.0" style="stroke:#050105; fill:none;"/>
	<path d="M 879.0,901.0 L 881.0,902.0" style="stroke:#050105; fill:none;"/>
	<path d="M 311.0,906.0 L 311.0,904.0 L 315.0,906.0" style="stroke:#050105; fill:none;"/>
	<path d="M 318.0,909.0 L 318.0,910.0 L 318.0,909.0" style="stroke:#050105; fill:none;"/>
	<path d="M 865.0,909.0 L 862.0,914.0 L 864.0,912.0" style="stroke:#050105; fill:none;"/>
	<path d="M 862.0,914.0 L 849.0,928.0 L 851.0,926.0" style="stroke:#050105; fill:none;"/>
	<path d="M 325.0,915.0 L 323.0,916.0" style="stroke:#050105; fill:none;"/>
	<path d="M 327.0,915.0 L 328.0,918.0" style="stroke:#050105; fill:none;"/>
	<path d="M 330.0,920.0 L 332.0,921.0" style="stroke:#050105; fill:none;"/>
	<path d="M 334.0,921.0 L 335.0,921.0" style="stroke:#050105; fill:none;"/>
	<path d="M 339.0,927.0 L 348.0,931.0" style="stroke:#050105; fill:none;"/>
	<path d="M 848.0,929.0 L 847.0,933.0 L 848.0,930.0" style="stroke:#050105; fill:none;"/>
	<path d="M 350.0,934.0 L 351.0,935.0" style="stroke:#050105; fill:none;"/>
	<path d="M 355.0,935.0 L 355.0,938.0" style="stroke:#050105; fill:none;"/>
	<path d="M 843.0,935.0 L 844.0,936.0" style="stroke:#050105; fill:none;"/>
	<path d="M 359.0,940.0 L 361.0,940.0" style="stroke:#050105; fill:none;"/>
	<path d="M 840.0,939.0 L 838.0,940.0" style="stroke:#050105; fill:none;"/>
	<path d="M 363.0,941.0 L 369.0,947.0" style="stroke:#050105; fill:none;"/>
	<path d="M 833.0,946.0 L 834.0,946.0" style="stroke:#050105; fill:none;"/>
	<path d="M 374.0,947.0 L 374.0,948.0" style="stroke:#050105; fill:none;"/>
	<path d="M 376.0,948.0 L 378.0,949.0" style="stroke:#050105; fill:none;"/>
	<path d="M 383.0,952.0 L 386.0,955.0" style="stroke:#050105; fill:none;"/>
	<path d="M 828.0,952.0 L 828.0,956.0" style="stroke:#050105; fill:none;"/>
	<path d="M 825.0,954.0 L 824.0,960.0" style="stroke:#050105; fill:none;"/>
	<path d="M 389.0,956.0 L 390.0,956.0" style="stroke:#050105; fill:none;"/>
	<path d="M 822.0,956.0 L 822.0,957.0" style="stroke:#050105; fill:none;"/>
	<path d="M 392.0,957.0 L 394.0,957.0" style="stroke:#050105; fill:none;"/>
	<path d="M 396.0,959.0 L 397.0,961.0" style="stroke:#050105; fill:none;"/>
	<path d="M 820.0,960.0 L 819.0,963.0" style="stroke:#050105; fill:none;"/>
	<path d="M 813.0,967.0 L 817.0,963.0" style="stroke:#050105; fill:none;"/>
	<path d="M 411.0,968.0 L 412.0,969.0" style="stroke:#050105; fill:none;"/>
	<path d="M 805.0,972.0 L 808.0,972.0" style="stroke:#050105; fill:none;"/>
	<path d="M 427.0,974.0 L 428.0,976.0" style="stroke:#050105; fill:none;"/>
	<path d="M 806.0,974.0 L 803.0,977.0" style="stroke:#050105; fill:none;"/>
	<path d="M 801.0,978.0 L 797.0,983.0" style="stroke:#050105; fill:none;"/>
	<path d="M 440.0,981.0 L 440.0,982.0" style="stroke:#050105; fill:none;"/>
	<path d="M 425.0,982.0 L 428.0,983.0" style="stroke:#050105; fill:none;"/>
	<path d="M 431.0,984.0 L 432.0,984.0" style="stroke:#050105; fill:none;"/>
	<path d="M 435.0,985.0 L 434.0,986.0" style="stroke:#050105; fill:none;"/>
	<path d="M 793.0,985.0 L 794.0,986.0" style="stroke:#050105; fill:none;"/>
	<path d="M 437.0,987.0 L 439.0,988.0" style="stroke:#050105; fill:none;"/>
	<path d="M 442.0,989.0 L 446.0,988.0" style="stroke:#050105; fill:none;"/>
	<path d="M 787.0,989.0 L 789.0,989.0" style="stroke:#050105; fill:none;"/>
	<path d="M 447.0,990.0 L 451.0,992.0" style="stroke:#050105; fill:none;"/>
	<path d="M 454.0,991.0 L 455.0,991.0" style="stroke:#050105; fill:none;"/>
	<path d="M 787.0,991.0 L 787.0,992.0" style="stroke:#050105; fill:none;"/>
	<path d="M 464.0,995.0 L 464.0,996.0" style="stroke:#050105; fill:none;"/>
	<path d="M 780.0,997.0 L 780.0,998.0" style="stroke:#050105; fill:none;"/>
	<path d="M 473.0,998.0 L 475.0,1000.0" style="stroke:#050105; fill:none;"/>
	<path d="M 778.0,999.0 L 776.0,1001.0" style="stroke:#050105; fill:none;"/>
	<path d="M 478.0,1001.0 L 481.0,1001.0" style="stroke:#050105; fill:none;"/>
	<path d="M 485.0,1001.0 L 484.0,1002.0" style="stroke:#050105; fill:none;"/>
	<path d="M 774.0,1001.0 L 771.0,1006.0" style="stroke:#050105; fill:none;"/>
	<path d="M 490.0,1004.0 L 498.0,1006.0" style="stroke:#050105; fill:none;"/>
	<path d="M 771.0,1004.0 L 772.0,1005.0" style="stroke:#050105; fill:none;"/>
	<path d="M 500.0,1009.0 L 500.0,1007.0 L 504.0,1008.0" style="stroke:#050105; fill:none;"/>
	<path d="M 506.0,1008.0 L 506.0,1011.0" style="stroke:#050105; fill:none;"/>
	<path d="M 765.0,1008.0 C 764.63,1010.29 764.478,1010.0 767.0,1010.0" style="stroke:#050105; fill:none;"/>
	<path d="M 509.0,1011.0 L 509.0,1012.0" style="stroke:#050105; fill:none;"/>
	<path d="M 514.0,1012.0 L 514.0,1014.0 L 514.0,1012.0" style="stroke:#050105; fill:none;"/>
	<path d="M 517.0,1012.0 L 517.0,1015.0" style="stroke:#050105; fill:none;"/>
	<path d="M 758.0,1015.0 L 761.0,1015.0" style="stroke:#050105; fill:none;"/>
	<path d="M 520.0,1015.0 L 526.0,1020.0 L 524.0,1016.0" style="stroke:#050105; fill:none;"/>
	<path d="M 525.0,1017.0 L 525.0,1019.0" style="stroke:#050105; fill:none;"/>
	<path d="M 750.0,1018.0 L 743.0,1022.0 L 745.0,1020.0" style="stroke:#050105; fill:none;"/>
	<path d="M 528.0,1019.0 L 533.0,1019.0" style="stroke:#050105; fill:none;"/>
	<path d="M 536.0,1021.0 L 538.0,1021.0" style="stroke:#050105; fill:none;"/>
	<path d="M 540.0,1024.0 C 543.161,1024.49 544.392,1024.83 545.0,1028.0" style="stroke:#050105; fill:none;"/>
	<path d="M 742.0,1023.0 L 743.0,1025.0" style="stroke:#050105; fill:none;"/>
	<path d="M 734.0,1026.0 L 736.0,1028.0 L 733.0,1029.0" style="stroke:#050105; fill:none;"/>
	<path d="M 551.0,1028.0 L 551.0,1030.0" style="stroke:#050105; fill:none;"/>
	<path d="M 729.0,1029.0 L 729.0,1031.0" style="stroke:#050105; fill:none;"/>
	<path d="M 735.0,1029.0 L 733.0,1034.0" style="stroke:#050105; fill:none;"/>
	<path d="M 722.0,1031.0 L 726.0,1031.0" style="stroke:#050105; fill:none;"/>
	<path d="M 558.0,1032.0 L 557.0,1033.0" style="stroke:#050105; fill:none;"/>
	<path d="M 561.0,1032.0 L 560.0,1034.0" style="stroke:#050105; fill:none;"/>
	<path d="M 565.0,1033.0 L 567.0,1035.0" style="stroke:#050105; fill:none;"/>
	<path d="M 720.0,1033.0 L 721.0,1036.0" style="stroke:#050105; fill:none;"/>
	<path d="M 724.0,1033.0 L 724.0,1034.0" style="stroke:#050105; fill:none;"/>
	<path d="M 716.0,1035.0 L 715.0,1036.0" style="stroke:#050105; fill:none;"/>
	<path d="M 571.0,1036.0 L 570.0,1037.0" style="stroke:#050105; fill:none;"/>
	<path d="M 575.0,1036.0 L 575.0,1037.0" style="stroke:#050105; fill:none;"/>
	<path d="M 707.0,1038.0 L 704.0,1038.0 L 710.0,1037.0" style="stroke:#050105; fill:none;"/>
	<path d="M 700.0,1039.0 L 701.0,1041.0" style="stroke:#050105; fill:none;"/>
	<path d="M 585.0,1040.0 L 590.0,1041.0" style="stroke:#050105; fill:none;"/>
	<path d="M 694.0,1040.0 L 699.0,1041.0" style="stroke:#050105; fill:none;"/>
	<path d="M 594.0,1041.0 L 594.0,1043.0" style="stroke:#050105; fill:none;"/>
	<path d="M 688.0,1043.0 L 690.0,1042.0" style="stroke:#050105; fill:none;"/>
	<path d="M 597.0,1042.0 L 599.0,1045.0" style="stroke:#050105; fill:none;"/>
	<path d="M 678.0,1042.0 L 685.0,1044.0" style="stroke:#050105; fill:none;"/>
	<path d="M 599.0,1043.0 L 598.0,1044.0" style="stroke:#050105; fill:none;"/>
	<path d="M 601.0,1044.0 L 605.0,1044.0" style="stroke:#050105; fill:none;"/>
	<path d="M 673.0,1046.0 L 671.0,1044.0 L 675.0,1044.0" style="stroke:#050105; fill:none;"/>
	<path d="M 664.0,1044.0 L 668.0,1046.0" style="stroke:#050105; fill:none;"/>
	<path d="M 606.0,1046.0 L 609.0,1045.0" style="stroke:#050105; fill:none;"/>
	<path d="M 624.0,1046.0 L 624.0,1047.0" style="stroke:#050105; fill:none;"/>
	<path d="M 635.0,1046.0 L 634.0,1047.0" style="stroke:#050105; fill:none;"/>
	<path d="M 639.0,1046.0 L 637.0,1047.0" style="stroke:#050105; fill:none;"/>
	<path d="M 641.0,1046.0 L 642.0,1048.0" style="stroke:#050105; fill:none;"/>
	<path d="M 648.0,1046.0 L 652.0,1048.0" style="stroke:#050105; fill:none;"/>
	<path d="M 656.0,1046.0 L 655.0,1048.0" style="stroke:#050105; fill:none;"/>
	<path d="M 645.0,1047.0 L 645.0,1048.0" style="stroke:#050105; fill:none;"/>
	<path d="M 658.0,1047.0 L 661.0,1047.0" style="stroke:#050105; fill:none;"/>
</svg>
