<?xml version="1.0" ?>
<svg baseProfile="full" height="1119" version="1.1" width="1024" xmlns="http://www.w3.org/2000/svg" xmlns:ev="http://www.w3.org/2001/xml-events" xmlns:xlink="http://www.w3.org/1999/xlink">
	<defs/>
	<path d="M 638.0,250.0 L 638.0,251.0" style="stroke:#070107; fill:none;"/>
	<path d="M 692.0,258.0 L 695.0,257.0" style="stroke:#070107; fill:none;"/>
	<path d="M 375.0,264.0 L 374.0,265.0" style="stroke:#070107; fill:none;"/>
	<path d="M 337.0,293.0 L 339.0,290.0" style="stroke:#070107; fill:none;"/>
	<path d="M 336.0,295.0 L 337.0,295.0" style="stroke:#070107; fill:none;"/>
	<path d="M 336.0,298.0 L 335.0,299.0" style="stroke:#070107; fill:none;"/>
	<path d="M 333.0,302.0 L 331.0,310.0" style="stroke:#070107; fill:none;"/>
	<path d="M 347.0,305.0 L 347.0,306.0" style="stroke:#070107; fill:none;"/>
	<path d="M 367.0,308.0 L 365.0,310.0" style="stroke:#070107; fill:none;"/>
	<path d="M 741.0,310.0 L 741.0,311.0" style="stroke:#070107; fill:none;"/>
	<path d="M 364.0,313.0 L 365.0,321.0" style="stroke:#070107; fill:none;"/>
	<path d="M 347.0,314.0 L 355.0,323.0" style="stroke:#070107; fill:none;"/>
	<path d="M 332.0,316.0 L 331.0,317.0" style="stroke:#070107; fill:none;"/>
	<path d="M 739.0,318.0 L 740.0,318.0" style="stroke:#070107; fill:none;"/>
	<path d="M 330.0,319.0 L 328.0,329.0" style="stroke:#070107; fill:none;"/>
	<path d="M 380.0,322.0 L 381.0,322.0" style="stroke:#070107; fill:none;"/>
	<path d="M 343.0,325.0 L 345.0,325.0" style="stroke:#070107; fill:none;"/>
	<path d="M 361.0,324.0 L 370.0,326.0" style="stroke:#070107; fill:none;"/>
	<path d="M 351.0,325.0 L 351.0,326.0" style="stroke:#070107; fill:none;"/>
	<path d="M 356.0,327.0 L 360.0,327.0" style="stroke:#070107; fill:none;"/>
	<path d="M 374.0,327.0 L 378.0,330.0" style="stroke:#070107; fill:none;"/>
	<path d="M 341.0,328.0 L 342.0,328.0" style="stroke:#070107; fill:none;"/>
	<path d="M 327.0,329.0 L 328.0,329.0" style="stroke:#070107; fill:none;"/>
	<path d="M 347.0,329.0 L 348.0,333.0" style="stroke:#070107; fill:none;"/>
	<path d="M 328.0,344.0 L 327.0,348.0 L 330.0,333.0" style="stroke:#070107; fill:none;"/>
	<path d="M 382.0,334.0 L 382.0,335.0" style="stroke:#070107; fill:none;"/>
	<path d="M 342.0,335.0 L 343.0,335.0" style="stroke:#070107; fill:none;"/>
	<path d="M 717.0,336.0 L 716.0,337.0" style="stroke:#070107; fill:none;"/>
	<path d="M 322.0,339.0 L 328.0,341.0" style="stroke:#070107; fill:none;"/>
	<path d="M 636.0,343.0 L 635.0,345.0" style="stroke:#070107; fill:none;"/>
	<path d="M 738.0,345.0 L 738.0,351.0" style="stroke:#070107; fill:none;"/>
	<path d="M 327.0,348.0 L 322.0,357.0" style="stroke:#070107; fill:none;"/>
	<path d="M 337.0,348.0 L 339.0,348.0" style="stroke:#070107; fill:none;"/>
	<path d="M 715.0,349.0 L 715.0,350.0" style="stroke:#070107; fill:none;"/>
	<path d="M 337.0,351.0 L 338.0,351.0" style="stroke:#070107; fill:none;"/>
	<path d="M 645.0,352.0 L 647.0,353.0" style="stroke:#070107; fill:none;"/>
	<path d="M 363.0,357.0 L 363.0,358.0" style="stroke:#070107; fill:none;"/>
	<path d="M 714.0,362.0 L 713.0,363.0" style="stroke:#070107; fill:none;"/>
	<path d="M 315.0,363.0 L 317.0,363.0" style="stroke:#070107; fill:none;"/>
	<path d="M 737.0,367.0 L 738.0,367.0" style="stroke:#070107; fill:none;"/>
	<path d="M 311.0,369.0 L 310.0,371.0" style="stroke:#070107; fill:none;"/>
	<path d="M 714.0,369.0 L 713.0,373.0" style="stroke:#070107; fill:none;"/>
	<path d="M 727.0,369.0 L 727.0,370.0" style="stroke:#070107; fill:none;"/>
	<path d="M 307.0,373.0 L 306.0,375.0" style="stroke:#070107; fill:none;"/>
	<path d="M 738.0,374.0 L 738.0,375.0" style="stroke:#070107; fill:none;"/>
	<path d="M 545.0,377.0 L 546.0,377.0" style="stroke:#070107; fill:none;"/>
	<path d="M 561.0,377.0 L 561.0,379.0" style="stroke:#070107; fill:none;"/>
	<path d="M 304.0,378.0 L 303.0,380.0" style="stroke:#070107; fill:none;"/>
	<path d="M 736.0,378.0 L 736.0,379.0" style="stroke:#070107; fill:none;"/>
	<path d="M 713.0,382.0 L 713.0,386.0" style="stroke:#070107; fill:none;"/>
	<path d="M 540.0,383.0 L 541.0,384.0" style="stroke:#070107; fill:none;"/>
	<path d="M 736.0,383.0 L 737.0,383.0" style="stroke:#070107; fill:none;"/>
	<path d="M 536.0,384.0 L 537.0,385.0" style="stroke:#070107; fill:none;"/>
	<path d="M 565.0,385.0 L 567.0,385.0" style="stroke:#070107; fill:none;"/>
	<path d="M 550.0,386.0 L 551.0,386.0" style="stroke:#070107; fill:none;"/>
	<path d="M 532.0,387.0 L 533.0,387.0" style="stroke:#070107; fill:none;"/>
	<path d="M 540.0,388.0 L 546.0,388.0" style="stroke:#070107; fill:none;"/>
	<path d="M 535.0,390.0 L 536.0,392.0" style="stroke:#070107; fill:none;"/>
	<path d="M 589.0,390.0 L 590.0,390.0" style="stroke:#070107; fill:none;"/>
	<path d="M 726.0,390.0 L 727.0,392.0" style="stroke:#070107; fill:none;"/>
	<path d="M 560.0,391.0 L 564.0,392.0 L 563.0,394.0" style="stroke:#070107; fill:none;"/>
	<path d="M 567.0,391.0 L 570.0,392.0" style="stroke:#070107; fill:none;"/>
	<path d="M 714.0,392.0 L 713.0,393.0" style="stroke:#070107; fill:none;"/>
	<path d="M 549.0,395.0 L 555.0,393.0" style="stroke:#070107; fill:none;"/>
	<path d="M 577.0,395.0 L 579.0,394.0" style="stroke:#070107; fill:none;"/>
	<path d="M 542.0,395.0 L 542.0,396.0" style="stroke:#070107; fill:none;"/>
	<path d="M 582.0,395.0 L 583.0,398.0" style="stroke:#070107; fill:none;"/>
	<path d="M 566.0,396.0 L 567.0,397.0" style="stroke:#070107; fill:none;"/>
	<path d="M 713.0,396.0 L 714.0,396.0" style="stroke:#070107; fill:none;"/>
	<path d="M 561.0,397.0 L 562.0,397.0" style="stroke:#070107; fill:none;"/>
	<path d="M 570.0,397.0 L 571.0,397.0" style="stroke:#070107; fill:none;"/>
	<path d="M 575.0,399.0 L 578.0,400.0" style="stroke:#070107; fill:none;"/>
	<path d="M 561.0,399.0 L 560.0,401.0" style="stroke:#070107; fill:none;"/>
	<path d="M 594.0,400.0 L 595.0,400.0" style="stroke:#070107; fill:none;"/>
	<path d="M 581.0,401.0 L 580.0,402.0" style="stroke:#070107; fill:none;"/>
	<path d="M 583.0,401.0 L 585.0,401.0" style="stroke:#070107; fill:none;"/>
	<path d="M 727.0,401.0 L 726.0,403.0" style="stroke:#070107; fill:none;"/>
	<path d="M 587.0,404.0 L 592.0,402.0" style="stroke:#070107; fill:none;"/>
	<path d="M 558.0,403.0 L 557.0,404.0" style="stroke:#070107; fill:none;"/>
	<path d="M 738.0,404.0 L 738.0,405.0" style="stroke:#070107; fill:none;"/>
	<path d="M 369.0,406.0 L 370.0,406.0" style="stroke:#070107; fill:none;"/>
	<path d="M 555.0,406.0 L 556.0,406.0" style="stroke:#070107; fill:none;"/>
	<path d="M 592.0,408.0 L 593.0,408.0" style="stroke:#070107; fill:none;"/>
	<path d="M 584.0,410.0 L 583.0,411.0" style="stroke:#070107; fill:none;"/>
	<path d="M 555.0,411.0 L 555.0,412.0" style="stroke:#070107; fill:none;"/>
	<path d="M 596.0,411.0 L 597.0,412.0" style="stroke:#070107; fill:none;"/>
	<path d="M 593.0,413.0 L 594.0,416.0" style="stroke:#070107; fill:none;"/>
	<path d="M 726.0,413.0 L 727.0,414.0" style="stroke:#070107; fill:none;"/>
	<path d="M 276.0,415.0 L 268.0,431.0" style="stroke:#070107; fill:none;"/>
	<path d="M 715.0,415.0 L 715.0,417.0" style="stroke:#070107; fill:none;"/>
	<path d="M 601.0,416.0 L 603.0,419.0" style="stroke:#070107; fill:none;"/>
	<path d="M 581.0,417.0 L 582.0,417.0" style="stroke:#070107; fill:none;"/>
	<path d="M 589.0,423.0 L 587.0,426.0" style="stroke:#070107; fill:none;"/>
	<path d="M 602.0,423.0 L 603.0,424.0" style="stroke:#070107; fill:none;"/>
	<path d="M 563.0,428.0 L 566.0,426.0" style="stroke:#070107; fill:none;"/>
	<path d="M 728.0,426.0 L 728.0,427.0" style="stroke:#070107; fill:none;"/>
	<path d="M 576.0,431.0 L 579.0,432.0" style="stroke:#070107; fill:none;"/>
	<path d="M 717.0,432.0 L 718.0,433.0" style="stroke:#070107; fill:none;"/>
	<path d="M 728.0,432.0 L 729.0,432.0" style="stroke:#070107; fill:none;"/>
	<path d="M 326.0,434.0 L 326.0,436.0" style="stroke:#070107; fill:none;"/>
	<path d="M 597.0,435.0 L 597.0,436.0" style="stroke:#070107; fill:none;"/>
	<path d="M 728.0,436.0 L 729.0,436.0" style="stroke:#070107; fill:none;"/>
	<path d="M 264.0,437.0 L 257.0,457.0 L 259.0,455.0" style="stroke:#070107; fill:none;"/>
	<path d="M 719.0,439.0 L 719.0,440.0" style="stroke:#070107; fill:none;"/>
	<path d="M 616.0,441.0 L 618.0,444.0" style="stroke:#070107; fill:none;"/>
	<path d="M 731.0,452.0 L 732.0,453.0" style="stroke:#070107; fill:none;"/>
	<path d="M 257.0,457.0 L 255.0,459.0" style="stroke:#070107; fill:none;"/>
	<path d="M 723.0,459.0 L 722.0,460.0" style="stroke:#070107; fill:none;"/>
	<path d="M 256.0,462.0 L 252.0,479.0" style="stroke:#070107; fill:none;"/>
	<path d="M 724.0,463.0 L 724.0,464.0" style="stroke:#070107; fill:none;"/>
	<path d="M 733.0,465.0 L 733.0,467.0" style="stroke:#070107; fill:none;"/>
	<path d="M 734.0,476.0 L 736.0,478.0" style="stroke:#070107; fill:none;"/>
	<path d="M 250.0,484.0 L 251.0,484.0" style="stroke:#070107; fill:none;"/>
	<path d="M 251.0,488.0 L 248.0,503.0" style="stroke:#070107; fill:none;"/>
	<path d="M 362.0,489.0 L 361.0,492.0" style="stroke:#070107; fill:none;"/>
	<path d="M 370.0,490.0 L 374.0,492.0" style="stroke:#070107; fill:none;"/>
	<path d="M 381.0,496.0 L 382.0,497.0" style="stroke:#070107; fill:none;"/>
	<path d="M 386.0,499.0 L 389.0,503.0" style="stroke:#070107; fill:none;"/>
	<path d="M 736.0,500.0 L 737.0,500.0" style="stroke:#070107; fill:none;"/>
	<path d="M 391.0,504.0 L 394.0,507.0" style="stroke:#070107; fill:none;"/>
	<path d="M 248.0,505.0 L 247.0,507.0" style="stroke:#070107; fill:none;"/>
	<path d="M 245.0,512.0 L 245.0,513.0" style="stroke:#070107; fill:none;"/>
	<path d="M 245.0,516.0 L 245.0,521.0" style="stroke:#070107; fill:none;"/>
	<path d="M 243.0,524.0 L 244.0,524.0" style="stroke:#070107; fill:none;"/>
	<path d="M 425.0,528.0 L 428.0,528.0" style="stroke:#070107; fill:none;"/>
	<path d="M 242.0,528.0 L 242.0,530.0" style="stroke:#070107; fill:none;"/>
	<path d="M 413.0,528.0 L 421.0,529.0" style="stroke:#070107; fill:none;"/>
	<path d="M 241.0,535.0 L 242.0,535.0" style="stroke:#070107; fill:none;"/>
	<path d="M 291.0,583.0 L 295.0,584.0" style="stroke:#070107; fill:none;"/>
	<path d="M 237.0,590.0 L 236.0,593.0" style="stroke:#070107; fill:none;"/>
	<path d="M 365.0,594.0 L 367.0,595.0" style="stroke:#070107; fill:none;"/>
	<path d="M 755.0,595.0 L 755.0,597.0" style="stroke:#070107; fill:none;"/>
	<path d="M 797.0,620.0 L 797.0,621.0" style="stroke:#070107; fill:none;"/>
	<path d="M 416.0,622.0 L 419.0,624.0" style="stroke:#070107; fill:none;"/>
	<path d="M 422.0,625.0 L 425.0,627.0" style="stroke:#070107; fill:none;"/>
	<path d="M 428.0,627.0 L 432.0,632.0" style="stroke:#070107; fill:none;"/>
	<path d="M 434.0,634.0 L 435.0,634.0" style="stroke:#070107; fill:none;"/>
	<path d="M 796.0,634.0 L 796.0,635.0" style="stroke:#070107; fill:none;"/>
	<path d="M 232.0,635.0 L 232.0,637.0" style="stroke:#070107; fill:none;"/>
	<path d="M 781.0,636.0 L 781.0,637.0" style="stroke:#070107; fill:none;"/>
	<path d="M 795.0,638.0 L 795.0,639.0" style="stroke:#070107; fill:none;"/>
	<path d="M 231.0,644.0 L 231.0,655.0" style="stroke:#070107; fill:none;"/>
	<path d="M 778.0,645.0 L 777.0,646.0" style="stroke:#070107; fill:none;"/>
	<path d="M 775.0,652.0 L 772.0,657.0" style="stroke:#070107; fill:none;"/>
	<path d="M 231.0,659.0 L 230.0,671.0" style="stroke:#070107; fill:none;"/>
	<path d="M 771.0,660.0 L 770.0,661.0" style="stroke:#070107; fill:none;"/>
	<path d="M 765.0,671.0 L 766.0,671.0" style="stroke:#070107; fill:none;"/>
	<path d="M 230.0,673.0 L 232.0,677.0" style="stroke:#070107; fill:none;"/>
	<path d="M 762.0,675.0 L 763.0,675.0" style="stroke:#070107; fill:none;"/>
	<path d="M 231.0,676.0 L 230.0,705.0" style="stroke:#070107; fill:none;"/>
	<path d="M 229.0,680.0 L 231.0,683.0" style="stroke:#070107; fill:none;"/>
	<path d="M 758.0,682.0 L 759.0,682.0" style="stroke:#070107; fill:none;"/>
	<path d="M 757.0,685.0 L 756.0,687.0" style="stroke:#070107; fill:none;"/>
	<path d="M 753.0,690.0 L 751.0,692.0" style="stroke:#070107; fill:none;"/>
	<path d="M 747.0,696.0 L 737.0,708.0" style="stroke:#070107; fill:none;"/>
	<path d="M 721.0,707.0 L 723.0,707.0" style="stroke:#070107; fill:none;"/>
	<path d="M 729.0,707.0 L 731.0,707.0" style="stroke:#070107; fill:none;"/>
	<path d="M 230.0,709.0 L 231.0,715.0" style="stroke:#070107; fill:none;"/>
	<path d="M 732.0,714.0 L 732.0,715.0" style="stroke:#070107; fill:none;"/>
	<path d="M 231.0,717.0 L 232.0,729.0" style="stroke:#070107; fill:none;"/>
	<path d="M 713.0,717.0 L 713.0,718.0" style="stroke:#070107; fill:none;"/>
	<path d="M 710.0,720.0 L 710.0,721.0" style="stroke:#070107; fill:none;"/>
	<path d="M 726.0,720.0 L 726.0,721.0" style="stroke:#070107; fill:none;"/>
	<path d="M 706.0,726.0 L 708.0,723.0" style="stroke:#070107; fill:none;"/>
	<path d="M 724.0,723.0 L 724.0,724.0" style="stroke:#070107; fill:none;"/>
	<path d="M 235.0,732.0 L 236.0,736.0" style="stroke:#070107; fill:none;"/>
	<path d="M 698.0,734.0 L 699.0,734.0" style="stroke:#070107; fill:none;"/>
	<path d="M 706.0,741.0 L 705.0,744.0" style="stroke:#070107; fill:none;"/>
	<path d="M 685.0,743.0 L 684.0,748.0" style="stroke:#070107; fill:none;"/>
	<path d="M 703.0,745.0 L 701.0,747.0" style="stroke:#070107; fill:none;"/>
	<path d="M 683.0,746.0 L 684.0,746.0" style="stroke:#070107; fill:none;"/>
	<path d="M 698.0,749.0 L 693.0,755.0" style="stroke:#070107; fill:none;"/>
	<path d="M 244.0,754.0 L 246.0,754.0" style="stroke:#070107; fill:none;"/>
	<path d="M 675.0,753.0 L 674.0,756.0" style="stroke:#070107; fill:none;"/>
	<path d="M 688.0,759.0 L 688.0,760.0" style="stroke:#070107; fill:none;"/>
	<path d="M 250.0,760.0 L 254.0,762.0" style="stroke:#070107; fill:none;"/>
	<path d="M 686.0,762.0 L 681.0,766.0" style="stroke:#070107; fill:none;"/>
	<path d="M 663.0,764.0 L 660.0,770.0" style="stroke:#070107; fill:none;"/>
	<path d="M 255.0,765.0 L 256.0,766.0" style="stroke:#070107; fill:none;"/>
	<path d="M 257.0,768.0 L 258.0,769.0" style="stroke:#070107; fill:none;"/>
	<path d="M 677.0,768.0 L 677.0,771.0" style="stroke:#070107; fill:none;"/>
	<path d="M 657.0,769.0 L 657.0,771.0" style="stroke:#070107; fill:none;"/>
	<path d="M 675.0,770.0 L 670.0,777.0" style="stroke:#070107; fill:none;"/>
	<path d="M 667.0,777.0 L 666.0,778.0" style="stroke:#070107; fill:none;"/>
	<path d="M 658.0,785.0 L 653.0,790.0" style="stroke:#070107; fill:none;"/>
	<path d="M 312.0,792.0 L 312.0,793.0" style="stroke:#070107; fill:none;"/>
	<path d="M 314.0,793.0 L 315.0,793.0" style="stroke:#070107; fill:none;"/>
	<path d="M 319.0,794.0 L 322.0,795.0" style="stroke:#070107; fill:none;"/>
	<path d="M 325.0,795.0 L 330.0,796.0" style="stroke:#070107; fill:none;"/>
	<path d="M 621.0,795.0 L 621.0,796.0" style="stroke:#070107; fill:none;"/>
	<path d="M 645.0,796.0 L 644.0,797.0" style="stroke:#070107; fill:none;"/>
	<path d="M 373.0,797.0 L 373.0,798.0" style="stroke:#070107; fill:none;"/>
	<path d="M 387.0,799.0 L 389.0,799.0" style="stroke:#070107; fill:none;"/>
	<path d="M 398.0,799.0 L 398.0,800.0" style="stroke:#070107; fill:none;"/>
	<path d="M 594.0,801.0 L 595.0,802.0" style="stroke:#070107; fill:none;"/>
	<path d="M 512.0,806.0 L 513.0,806.0" style="stroke:#070107; fill:none;"/>
</svg>
