<?xml version="1.0" ?>
<svg baseProfile="full" height="880" version="1.1" width="1010" xmlns="http://www.w3.org/2000/svg" xmlns:ev="http://www.w3.org/2001/xml-events" xmlns:xlink="http://www.w3.org/1999/xlink">
	<defs/>
	<path d="M 580.0,193.0 L 582.0,193.0" style="stroke:#050105; fill:none;"/>
	<path d="M 597.0,198.0 L 599.0,195.0" style="stroke:#050105; fill:none;"/>
	<path d="M 595.0,196.0 L 597.0,196.0" style="stroke:#050105; fill:none;"/>
	<path d="M 602.0,196.0 L 603.0,196.0" style="stroke:#050105; fill:none;"/>
	<path d="M 606.0,198.0 L 607.0,198.0" style="stroke:#050105; fill:none;"/>
	<path d="M 593.0,202.0 L 592.0,204.0" style="stroke:#050105; fill:none;"/>
	<path d="M 567.0,204.0 L 567.0,205.0" style="stroke:#050105; fill:none;"/>
	<path d="M 544.0,207.0 L 547.0,205.0" style="stroke:#050105; fill:none;"/>
	<path d="M 407.0,217.0 L 421.0,206.0" style="stroke:#050105; fill:none;"/>
	<path d="M 627.0,206.0 L 629.0,206.0" style="stroke:#050105; fill:none;"/>
	<path d="M 518.0,207.0 L 518.0,209.0" style="stroke:#050105; fill:none;"/>
	<path d="M 361.0,209.0 L 360.0,211.0" style="stroke:#050105; fill:none;"/>
	<path d="M 508.0,209.0 L 507.0,210.0" style="stroke:#050105; fill:none;"/>
	<path d="M 462.0,210.0 L 462.0,211.0" style="stroke:#050105; fill:none;"/>
	<path d="M 496.0,210.0 L 495.0,212.0" style="stroke:#050105; fill:none;"/>
	<path d="M 573.0,210.0 L 574.0,211.0" style="stroke:#050105; fill:none;"/>
	<path d="M 587.0,210.0 L 584.0,212.0" style="stroke:#050105; fill:none;"/>
	<path d="M 569.0,211.0 L 568.0,212.0" style="stroke:#050105; fill:none;"/>
	<path d="M 651.0,211.0 L 649.0,214.0" style="stroke:#050105; fill:none;"/>
	<path d="M 630.0,212.0 L 631.0,216.0" style="stroke:#050105; fill:none;"/>
	<path d="M 340.0,214.0 L 340.0,215.0" style="stroke:#050105; fill:none;"/>
	<path d="M 492.0,216.0 L 493.0,219.0" style="stroke:#050105; fill:none;"/>
	<path d="M 354.0,217.0 L 348.0,221.0" style="stroke:#050105; fill:none;"/>
	<path d="M 504.0,217.0 L 503.0,220.0" style="stroke:#050105; fill:none;"/>
	<path d="M 510.0,217.0 L 510.0,219.0" style="stroke:#050105; fill:none;"/>
	<path d="M 404.0,220.0 L 399.0,222.0" style="stroke:#050105; fill:none;"/>
	<path d="M 459.0,220.0 L 459.0,221.0" style="stroke:#050105; fill:none;"/>
	<path d="M 457.0,221.0 L 457.0,223.0" style="stroke:#050105; fill:none;"/>
	<path d="M 632.0,221.0 L 634.0,222.0" style="stroke:#050105; fill:none;"/>
	<path d="M 693.0,222.0 L 693.0,223.0" style="stroke:#050105; fill:none;"/>
	<path d="M 335.0,223.0 L 335.0,224.0" style="stroke:#050105; fill:none;"/>
	<path d="M 491.0,223.0 L 491.0,225.0" style="stroke:#050105; fill:none;"/>
	<path d="M 501.0,224.0 L 503.0,223.0" style="stroke:#050105; fill:none;"/>
	<path d="M 506.0,224.0 L 503.0,228.0" style="stroke:#050105; fill:none;"/>
	<path d="M 392.0,227.0 L 395.0,226.0" style="stroke:#050105; fill:none;"/>
	<path d="M 635.0,225.0 L 637.0,227.0" style="stroke:#050105; fill:none;"/>
	<path d="M 696.0,225.0 L 701.0,232.0" style="stroke:#050105; fill:none;"/>
	<path d="M 452.0,226.0 L 453.0,226.0" style="stroke:#050105; fill:none;"/>
	<path d="M 450.0,229.0 L 449.0,230.0" style="stroke:#050105; fill:none;"/>
	<path d="M 501.0,232.0 L 503.0,230.0" style="stroke:#050105; fill:none;"/>
	<path d="M 59.0,234.0 L 66.0,233.0" style="stroke:#050105; fill:none;"/>
	<path d="M 498.0,233.0 L 498.0,235.0" style="stroke:#050105; fill:none;"/>
	<path d="M 643.0,233.0 L 644.0,233.0" style="stroke:#050105; fill:none;"/>
	<path d="M 702.0,235.0 L 708.0,240.0" style="stroke:#050105; fill:none;"/>
	<path d="M 484.0,235.0 L 479.0,241.0" style="stroke:#050105; fill:none;"/>
	<path d="M 646.0,236.0 L 651.0,238.0" style="stroke:#050105; fill:none;"/>
	<path d="M 52.0,241.0 L 55.0,238.0" style="stroke:#050105; fill:none;"/>
	<path d="M 48.0,241.0 L 47.0,244.0" style="stroke:#050105; fill:none;"/>
	<path d="M 305.0,241.0 L 302.0,250.0" style="stroke:#050105; fill:none;"/>
	<path d="M 711.0,244.0 L 713.0,245.0" style="stroke:#050105; fill:none;"/>
	<path d="M 476.0,245.0 L 475.0,247.0" style="stroke:#050105; fill:none;"/>
	<path d="M 773.0,245.0 L 773.0,246.0" style="stroke:#050105; fill:none;"/>
	<path d="M 43.0,246.0 L 39.0,251.0 L 41.0,251.0" style="stroke:#050105; fill:none;"/>
	<path d="M 87.0,249.0 L 87.0,250.0" style="stroke:#050105; fill:none;"/>
	<path d="M 288.0,250.0 L 288.0,251.0" style="stroke:#050105; fill:none;"/>
	<path d="M 719.0,252.0 L 721.0,253.0" style="stroke:#050105; fill:none;"/>
	<path d="M 38.0,253.0 L 37.0,258.0" style="stroke:#050105; fill:none;"/>
	<path d="M 89.0,257.0 L 91.0,259.0" style="stroke:#050105; fill:none;"/>
	<path d="M 34.0,259.0 L 33.0,264.0" style="stroke:#050105; fill:none;"/>
	<path d="M 278.0,259.0 L 277.0,262.0" style="stroke:#050105; fill:none;"/>
	<path d="M 285.0,259.0 L 285.0,261.0" style="stroke:#050105; fill:none;"/>
	<path d="M 94.0,263.0 L 98.0,273.0" style="stroke:#050105; fill:none;"/>
	<path d="M 294.0,263.0 L 293.0,264.0" style="stroke:#050105; fill:none;"/>
	<path d="M 277.0,264.0 L 278.0,264.0" style="stroke:#050105; fill:none;"/>
	<path d="M 61.0,266.0 L 73.0,268.0" style="stroke:#050105; fill:none;"/>
	<path d="M 53.0,267.0 L 56.0,267.0" style="stroke:#050105; fill:none;"/>
	<path d="M 50.0,268.0 L 51.0,268.0" style="stroke:#050105; fill:none;"/>
	<path d="M 261.0,268.0 L 261.0,270.0 L 261.0,268.0" style="stroke:#050105; fill:none;"/>
	<path d="M 278.0,268.0 L 278.0,269.0" style="stroke:#050105; fill:none;"/>
	<path d="M 76.0,271.0 L 78.0,273.0" style="stroke:#050105; fill:none;"/>
	<path d="M 277.0,271.0 L 275.0,274.0" style="stroke:#050105; fill:none;"/>
	<path d="M 260.0,273.0 L 261.0,273.0" style="stroke:#050105; fill:none;"/>
	<path d="M 81.0,274.0 L 87.0,279.0" style="stroke:#050105; fill:none;"/>
	<path d="M 90.0,279.0 L 106.0,289.0 L 104.0,289.0" style="stroke:#050105; fill:none;"/>
	<path d="M 259.0,280.0 L 258.0,285.0" style="stroke:#050105; fill:none;"/>
	<path d="M 275.0,280.0 L 275.0,281.0" style="stroke:#050105; fill:none;"/>
	<path d="M 258.0,282.0 L 259.0,283.0" style="stroke:#050105; fill:none;"/>
	<path d="M 42.0,284.0 L 43.0,288.0" style="stroke:#050105; fill:none;"/>
	<path d="M 105.0,284.0 L 105.0,287.0" style="stroke:#050105; fill:none;"/>
	<path d="M 28.0,286.0 L 29.0,286.0" style="stroke:#050105; fill:none;"/>
	<path d="M 106.0,290.0 L 109.0,295.0" style="stroke:#050105; fill:none;"/>
	<path d="M 29.0,291.0 L 29.0,299.0" style="stroke:#050105; fill:none;"/>
	<path d="M 304.0,292.0 L 304.0,294.0" style="stroke:#050105; fill:none;"/>
	<path d="M 308.0,295.0 L 314.0,296.0" style="stroke:#050105; fill:none;"/>
	<path d="M 238.0,296.0 L 238.0,297.0" style="stroke:#050105; fill:none;"/>
	<path d="M 317.0,297.0 L 318.0,297.0" style="stroke:#050105; fill:none;"/>
	<path d="M 799.0,297.0 L 800.0,297.0" style="stroke:#050105; fill:none;"/>
	<path d="M 263.0,299.0 L 265.0,298.0" style="stroke:#050105; fill:none;"/>
	<path d="M 45.0,299.0 L 45.0,300.0" style="stroke:#050105; fill:none;"/>
	<path d="M 72.0,299.0 L 72.0,300.0" style="stroke:#050105; fill:none;"/>
	<path d="M 237.0,299.0 L 237.0,300.0" style="stroke:#050105; fill:none;"/>
	<path d="M 320.0,299.0 L 321.0,299.0" style="stroke:#050105; fill:none;"/>
	<path d="M 333.0,299.0 L 334.0,300.0" style="stroke:#050105; fill:none;"/>
	<path d="M 112.0,300.0 L 115.0,305.0" style="stroke:#050105; fill:none;"/>
	<path d="M 253.0,300.0 L 253.0,303.0" style="stroke:#050105; fill:none;"/>
	<path d="M 251.0,303.0 L 251.0,304.0" style="stroke:#050105; fill:none;"/>
	<path d="M 805.0,303.0 L 806.0,305.0" style="stroke:#050105; fill:none;"/>
	<path d="M 44.0,304.0 L 45.0,304.0" style="stroke:#050105; fill:none;"/>
	<path d="M 786.0,304.0 L 787.0,304.0" style="stroke:#050105; fill:none;"/>
	<path d="M 797.0,304.0 C 795.55,307.423 793.851,311.245 797.0,314.0" style="stroke:#050105; fill:none;"/>
	<path d="M 348.0,305.0 L 349.0,305.0" style="stroke:#050105; fill:none;"/>
	<path d="M 29.0,306.0 L 30.0,309.0" style="stroke:#050105; fill:none;"/>
	<path d="M 46.0,306.0 L 46.0,308.0" style="stroke:#050105; fill:none;"/>
	<path d="M 248.0,306.0 L 248.0,307.0" style="stroke:#050105; fill:none;"/>
	<path d="M 353.0,306.0 L 355.0,306.0" style="stroke:#050105; fill:none;"/>
	<path d="M 446.0,306.0 L 445.0,307.0" style="stroke:#050105; fill:none;"/>
	<path d="M 116.0,308.0 L 116.0,310.0" style="stroke:#050105; fill:none;"/>
	<path d="M 814.0,308.0 L 815.0,308.0" style="stroke:#050105; fill:none;"/>
	<path d="M 32.0,309.0 L 30.0,318.0" style="stroke:#050105; fill:none;"/>
	<path d="M 359.0,309.0 L 362.0,309.0" style="stroke:#050105; fill:none;"/>
	<path d="M 804.0,309.0 L 805.0,309.0" style="stroke:#050105; fill:none;"/>
	<path d="M 424.0,310.0 L 426.0,311.0" style="stroke:#050105; fill:none;"/>
	<path d="M 231.0,312.0 L 231.0,313.0" style="stroke:#050105; fill:none;"/>
	<path d="M 120.0,313.0 L 120.0,316.0" style="stroke:#050105; fill:none;"/>
	<path d="M 804.0,313.0 L 803.0,314.0" style="stroke:#050105; fill:none;"/>
	<path d="M 822.0,313.0 L 821.0,317.0" style="stroke:#050105; fill:none;"/>
	<path d="M 794.0,315.0 L 794.0,317.0" style="stroke:#050105; fill:none;"/>
	<path d="M 49.0,316.0 L 52.0,319.0" style="stroke:#050105; fill:none;"/>
	<path d="M 831.0,316.0 L 831.0,318.0 L 831.0,316.0" style="stroke:#050105; fill:none;"/>
	<path d="M 122.0,317.0 L 123.0,321.0" style="stroke:#050105; fill:none;"/>
	<path d="M 35.0,319.0 L 37.0,327.0" style="stroke:#050105; fill:none;"/>
	<path d="M 397.0,319.0 L 398.0,319.0" style="stroke:#050105; fill:none;"/>
	<path d="M 31.0,320.0 L 30.0,321.0" style="stroke:#050105; fill:none;"/>
	<path d="M 795.0,320.0 L 798.0,321.0" style="stroke:#050105; fill:none;"/>
	<path d="M 474.0,321.0 L 474.0,322.0" style="stroke:#050105; fill:none;"/>
	<path d="M 829.0,321.0 L 829.0,332.0" style="stroke:#050105; fill:none;"/>
	<path d="M 52.0,322.0 L 54.0,330.0" style="stroke:#050105; fill:none;"/>
	<path d="M 126.0,323.0 L 127.0,324.0" style="stroke:#050105; fill:none;"/>
	<path d="M 74.0,326.0 L 73.0,327.0" style="stroke:#050105; fill:none;"/>
	<path d="M 130.0,326.0 L 130.0,327.0" style="stroke:#050105; fill:none;"/>
	<path d="M 800.0,326.0 L 803.0,330.0" style="stroke:#050105; fill:none;"/>
	<path d="M 415.0,328.0 L 415.0,329.0" style="stroke:#050105; fill:none;"/>
	<path d="M 535.0,328.0 L 536.0,329.0" style="stroke:#050105; fill:none;"/>
	<path d="M 37.0,330.0 L 45.0,342.0" style="stroke:#050105; fill:none;"/>
	<path d="M 133.0,330.0 L 135.0,332.0" style="stroke:#050105; fill:none;"/>
	<path d="M 843.0,331.0 L 843.0,332.0" style="stroke:#050105; fill:none;"/>
	<path d="M 845.0,331.0 L 845.0,332.0" style="stroke:#050105; fill:none;"/>
	<path d="M 57.0,334.0 L 58.0,339.0" style="stroke:#050105; fill:none;"/>
	<path d="M 806.0,334.0 L 806.0,335.0" style="stroke:#050105; fill:none;"/>
	<path d="M 829.0,335.0 L 831.0,338.0" style="stroke:#050105; fill:none;"/>
	<path d="M 844.0,335.0 L 843.0,348.0" style="stroke:#050105; fill:none;"/>
	<path d="M 850.0,340.0 L 851.0,335.0" style="stroke:#050105; fill:none;"/>
	<path d="M 140.0,339.0 L 140.0,340.0" style="stroke:#050105; fill:none;"/>
	<path d="M 831.0,341.0 L 835.0,349.0" style="stroke:#050105; fill:none;"/>
	<path d="M 142.0,342.0 L 142.0,344.0" style="stroke:#050105; fill:none;"/>
	<path d="M 356.0,344.0 L 361.0,348.0 L 359.0,348.0" style="stroke:#050105; fill:none;"/>
	<path d="M 370.0,345.0 L 372.0,344.0" style="stroke:#050105; fill:none;"/>
	<path d="M 376.0,344.0 L 376.0,345.0" style="stroke:#050105; fill:none;"/>
	<path d="M 387.0,344.0 L 388.0,344.0" style="stroke:#050105; fill:none;"/>
	<path d="M 352.0,345.0 L 352.0,346.0" style="stroke:#050105; fill:none;"/>
	<path d="M 395.0,345.0 L 401.0,345.0" style="stroke:#050105; fill:none;"/>
	<path d="M 46.0,346.0 L 46.0,347.0" style="stroke:#050105; fill:none;"/>
	<path d="M 150.0,348.0 L 150.0,349.0 L 150.0,348.0" style="stroke:#050105; fill:none;"/>
	<path d="M 64.0,348.0 L 66.0,353.0" style="stroke:#050105; fill:none;"/>
	<path d="M 74.0,348.0 L 74.0,349.0" style="stroke:#050105; fill:none;"/>
	<path d="M 340.0,351.0 C 343.445,347.848 345.264,348.918 347.0,353.0" style="stroke:#050105; fill:none;"/>
	<path d="M 418.0,349.0 L 419.0,349.0" style="stroke:#050105; fill:none;"/>
	<path d="M 540.0,349.0 L 541.0,349.0" style="stroke:#050105; fill:none;"/>
	<path d="M 47.0,350.0 L 50.0,356.0" style="stroke:#050105; fill:none;"/>
	<path d="M 542.0,351.0 L 544.0,354.0" style="stroke:#050105; fill:none;"/>
	<path d="M 365.0,353.0 L 366.0,355.0" style="stroke:#050105; fill:none;"/>
	<path d="M 397.0,353.0 C 401.259,357.637 407.87,358.723 414.0,359.0" style="stroke:#050105; fill:none;"/>
	<path d="M 152.0,354.0 L 152.0,355.0" style="stroke:#050105; fill:none;"/>
	<path d="M 403.0,354.0 L 402.0,355.0" style="stroke:#050105; fill:none;"/>
	<path d="M 447.0,354.0 L 447.0,355.0" style="stroke:#050105; fill:none;"/>
	<path d="M 326.0,355.0 L 327.0,355.0" style="stroke:#050105; fill:none;"/>
	<path d="M 330.0,355.0 L 331.0,355.0" style="stroke:#050105; fill:none;"/>
	<path d="M 452.0,355.0 L 451.0,356.0" style="stroke:#050105; fill:none;"/>
	<path d="M 67.0,356.0 L 68.0,356.0" style="stroke:#050105; fill:none;"/>
	<path d="M 369.0,356.0 C 373.339,363.646 385.38,352.814 392.0,358.0" style="stroke:#050105; fill:none;"/>
	<path d="M 154.0,357.0 L 155.0,361.0" style="stroke:#050105; fill:none;"/>
	<path d="M 335.0,357.0 L 337.0,360.0" style="stroke:#050105; fill:none;"/>
	<path d="M 388.0,357.0 L 386.0,359.0" style="stroke:#050105; fill:none;"/>
	<path d="M 68.0,358.0 L 69.0,358.0" style="stroke:#050105; fill:none;"/>
	<path d="M 458.0,358.0 L 459.0,358.0" style="stroke:#050105; fill:none;"/>
	<path d="M 51.0,359.0 L 56.0,369.0" style="stroke:#050105; fill:none;"/>
	<path d="M 448.0,359.0 L 448.0,360.0" style="stroke:#050105; fill:none;"/>
	<path d="M 354.0,360.0 L 355.0,360.0" style="stroke:#050105; fill:none;"/>
	<path d="M 357.0,360.0 L 358.0,361.0" style="stroke:#050105; fill:none;"/>
	<path d="M 417.0,361.0 L 424.0,360.0" style="stroke:#050105; fill:none;"/>
	<path d="M 428.0,362.0 C 431.744,360.976 433.205,361.547 435.0,365.0" style="stroke:#050105; fill:none;"/>
	<path d="M 369.0,361.0 L 362.0,363.0" style="stroke:#050105; fill:none;"/>
	<path d="M 456.0,361.0 L 453.0,364.0" style="stroke:#050105; fill:none;"/>
	<path d="M 325.0,362.0 L 326.0,363.0" style="stroke:#050105; fill:none;"/>
	<path d="M 437.0,362.0 L 438.0,362.0" style="stroke:#050105; fill:none;"/>
	<path d="M 463.0,363.0 L 462.0,365.0" style="stroke:#050105; fill:none;"/>
	<path d="M 444.0,364.0 L 439.0,367.0" style="stroke:#050105; fill:none;"/>
	<path d="M 70.0,365.0 L 71.0,369.0" style="stroke:#050105; fill:none;"/>
	<path d="M 355.0,365.0 L 357.0,366.0" style="stroke:#050105; fill:none;"/>
	<path d="M 479.0,365.0 L 480.0,366.0" style="stroke:#050105; fill:none;"/>
	<path d="M 52.0,366.0 L 53.0,367.0" style="stroke:#050105; fill:none;"/>
	<path d="M 329.0,366.0 L 330.0,366.0" style="stroke:#050105; fill:none;"/>
	<path d="M 353.0,367.0 L 348.0,370.0" style="stroke:#050105; fill:none;"/>
	<path d="M 157.0,368.0 L 159.0,368.0" style="stroke:#050105; fill:none;"/>
	<path d="M 337.0,368.0 L 336.0,372.0" style="stroke:#050105; fill:none;"/>
	<path d="M 450.0,369.0 L 448.0,371.0 L 450.0,369.0" style="stroke:#050105; fill:none;"/>
	<path d="M 457.0,368.0 L 457.0,369.0" style="stroke:#050105; fill:none;"/>
	<path d="M 188.0,369.0 L 188.0,370.0" style="stroke:#050105; fill:none;"/>
	<path d="M 340.0,369.0 L 340.0,370.0" style="stroke:#050105; fill:none;"/>
	<path d="M 343.0,369.0 L 345.0,369.0" style="stroke:#050105; fill:none;"/>
	<path d="M 451.0,369.0 L 455.0,370.0" style="stroke:#050105; fill:none;"/>
	<path d="M 466.0,370.0 L 465.0,375.0 L 469.0,374.0" style="stroke:#050105; fill:none;"/>
	<path d="M 474.0,370.0 L 473.0,371.0" style="stroke:#050105; fill:none;"/>
	<path d="M 57.0,371.0 L 56.0,372.0" style="stroke:#050105; fill:none;"/>
	<path d="M 331.0,371.0 L 332.0,371.0" style="stroke:#050105; fill:none;"/>
	<path d="M 74.0,373.0 L 78.0,387.0" style="stroke:#050105; fill:none;"/>
	<path d="M 160.0,373.0 L 159.0,374.0" style="stroke:#050105; fill:none;"/>
	<path d="M 453.0,374.0 L 464.0,376.0" style="stroke:#050105; fill:none;"/>
	<path d="M 472.0,374.0 L 472.0,375.0" style="stroke:#050105; fill:none;"/>
	<path d="M 160.0,376.0 L 161.0,380.0" style="stroke:#050105; fill:none;"/>
	<path d="M 57.0,377.0 L 59.0,377.0" style="stroke:#050105; fill:none;"/>
	<path d="M 371.0,377.0 L 370.0,380.0" style="stroke:#050105; fill:none;"/>
	<path d="M 477.0,378.0 L 476.0,379.0" style="stroke:#050105; fill:none;"/>
	<path d="M 342.0,379.0 L 342.0,380.0" style="stroke:#050105; fill:none;"/>
	<path d="M 451.0,379.0 L 451.0,381.0" style="stroke:#050105; fill:none;"/>
	<path d="M 143.0,381.0 L 143.0,382.0" style="stroke:#050105; fill:none;"/>
	<path d="M 462.0,381.0 L 463.0,382.0" style="stroke:#050105; fill:none;"/>
	<path d="M 492.0,381.0 L 493.0,386.0" style="stroke:#050105; fill:none;"/>
	<path d="M 187.0,382.0 L 186.0,384.0" style="stroke:#050105; fill:none;"/>
	<path d="M 414.0,382.0 L 416.0,384.0" style="stroke:#050105; fill:none;"/>
	<path d="M 469.0,383.0 L 471.0,387.0" style="stroke:#050105; fill:none;"/>
	<path d="M 162.0,384.0 L 163.0,389.0" style="stroke:#050105; fill:none;"/>
	<path d="M 347.0,384.0 L 350.0,386.0" style="stroke:#050105; fill:none;"/>
	<path d="M 369.0,385.0 L 371.0,393.0" style="stroke:#050105; fill:none;"/>
	<path d="M 875.0,385.0 L 875.0,386.0" style="stroke:#050105; fill:none;"/>
	<path d="M 452.0,386.0 L 449.0,395.0" style="stroke:#050105; fill:none;"/>
	<path d="M 417.0,388.0 L 417.0,389.0" style="stroke:#050105; fill:none;"/>
	<path d="M 473.0,388.0 L 475.0,391.0" style="stroke:#050105; fill:none;"/>
	<path d="M 353.0,389.0 L 357.0,394.0" style="stroke:#050105; fill:none;"/>
	<path d="M 399.0,389.0 L 406.0,396.0" style="stroke:#050105; fill:none;"/>
	<path d="M 468.0,389.0 L 470.0,391.0" style="stroke:#050105; fill:none;"/>
	<path d="M 185.0,390.0 L 178.0,429.0 L 180.0,428.0" style="stroke:#050105; fill:none;"/>
	<path d="M 81.0,391.0 L 84.0,404.0" style="stroke:#050105; fill:none;"/>
	<path d="M 873.0,391.0 L 873.0,396.0" style="stroke:#050105; fill:none;"/>
	<path d="M 415.0,393.0 L 411.0,395.0" style="stroke:#050105; fill:none;"/>
	<path d="M 66.0,394.0 L 67.0,395.0" style="stroke:#050105; fill:none;"/>
	<path d="M 471.0,394.0 L 472.0,396.0" style="stroke:#050105; fill:none;"/>
	<path d="M 359.0,395.0 L 360.0,396.0" style="stroke:#050105; fill:none;"/>
	<path d="M 497.0,395.0 L 497.0,396.0" style="stroke:#050105; fill:none;"/>
	<path d="M 373.0,396.0 L 376.0,405.0" style="stroke:#050105; fill:none;"/>
	<path d="M 363.0,398.0 L 363.0,399.0" style="stroke:#050105; fill:none;"/>
	<path d="M 474.0,398.0 L 474.0,401.0" style="stroke:#050105; fill:none;"/>
	<path d="M 450.0,399.0 L 449.0,402.0" style="stroke:#050105; fill:none;"/>
	<path d="M 478.0,400.0 L 479.0,400.0" style="stroke:#050105; fill:none;"/>
	<path d="M 69.0,401.0 L 71.0,401.0" style="stroke:#050105; fill:none;"/>
	<path d="M 166.0,402.0 L 165.0,404.0" style="stroke:#050105; fill:none;"/>
	<path d="M 72.0,404.0 L 72.0,405.0" style="stroke:#050105; fill:none;"/>
	<path d="M 166.0,405.0 L 166.0,410.0" style="stroke:#050105; fill:none;"/>
	<path d="M 479.0,406.0 L 479.0,407.0" style="stroke:#050105; fill:none;"/>
	<path d="M 869.0,406.0 L 869.0,411.0 L 869.0,411.0" style="stroke:#050105; fill:none;"/>
	<path d="M 87.0,407.0 L 93.0,417.0" style="stroke:#050105; fill:none;"/>
	<path d="M 446.0,407.0 L 441.0,414.0" style="stroke:#050105; fill:none;"/>
	<path d="M 73.0,408.0 L 74.0,412.0" style="stroke:#050105; fill:none;"/>
	<path d="M 815.0,408.0 L 815.0,409.0" style="stroke:#050105; fill:none;"/>
	<path d="M 482.0,410.0 L 485.0,415.0" style="stroke:#050105; fill:none;"/>
	<path d="M 867.0,411.0 L 865.0,413.0" style="stroke:#050105; fill:none;"/>
	<path d="M 812.0,415.0 L 819.0,418.0" style="stroke:#050105; fill:none;"/>
	<path d="M 76.0,416.0 L 76.0,419.0" style="stroke:#050105; fill:none;"/>
	<path d="M 166.0,416.0 L 166.0,417.0" style="stroke:#050105; fill:none;"/>
	<path d="M 91.0,417.0 L 91.0,418.0" style="stroke:#050105; fill:none;"/>
	<path d="M 180.0,417.0 L 181.0,418.0" style="stroke:#050105; fill:none;"/>
	<path d="M 438.0,417.0 L 429.0,423.0" style="stroke:#050105; fill:none;"/>
	<path d="M 866.0,417.0 L 861.0,433.0" style="stroke:#050105; fill:none;"/>
	<path d="M 166.0,420.0 L 166.0,424.0" style="stroke:#050105; fill:none;"/>
	<path d="M 93.0,421.0 L 94.0,421.0" style="stroke:#050105; fill:none;"/>
	<path d="M 490.0,421.0 L 491.0,421.0" style="stroke:#050105; fill:none;"/>
	<path d="M 77.0,423.0 L 78.0,425.0" style="stroke:#050105; fill:none;"/>
	<path d="M 94.0,423.0 L 95.0,423.0" style="stroke:#050105; fill:none;"/>
	<path d="M 408.0,424.0 L 408.0,425.0" style="stroke:#050105; fill:none;"/>
	<path d="M 486.0,424.0 L 484.0,431.0" style="stroke:#050105; fill:none;"/>
	<path d="M 821.0,424.0 L 822.0,424.0" style="stroke:#050105; fill:none;"/>
	<path d="M 98.0,426.0 L 101.0,431.0" style="stroke:#050105; fill:none;"/>
	<path d="M 414.0,426.0 L 426.0,431.0" style="stroke:#050105; fill:none;"/>
	<path d="M 707.0,428.0 L 712.0,428.0" style="stroke:#050105; fill:none;"/>
	<path d="M 715.0,427.0 L 716.0,428.0" style="stroke:#050105; fill:none;"/>
	<path d="M 79.0,428.0 L 80.0,431.0" style="stroke:#050105; fill:none;"/>
	<path d="M 700.0,428.0 L 698.0,429.0" style="stroke:#050105; fill:none;"/>
	<path d="M 835.0,428.0 L 837.0,429.0" style="stroke:#050105; fill:none;"/>
	<path d="M 695.0,430.0 L 692.0,432.0" style="stroke:#050105; fill:none;"/>
	<path d="M 799.0,430.0 L 800.0,430.0" style="stroke:#050105; fill:none;"/>
	<path d="M 178.0,431.0 L 178.0,432.0" style="stroke:#050105; fill:none;"/>
	<path d="M 104.0,432.0 L 105.0,432.0" style="stroke:#050105; fill:none;"/>
	<path d="M 166.0,433.0 L 167.0,433.0" style="stroke:#050105; fill:none;"/>
	<path d="M 104.0,434.0 C 108.457,438.05 109.225,444.222 110.0,450.0" style="stroke:#050105; fill:none;"/>
	<path d="M 451.0,434.0 L 456.0,435.0" style="stroke:#050105; fill:none;"/>
	<path d="M 481.0,434.0 L 471.0,437.0" style="stroke:#050105; fill:none;"/>
	<path d="M 467.0,435.0 L 468.0,436.0" style="stroke:#050105; fill:none;"/>
	<path d="M 181.0,436.0 L 179.0,441.0" style="stroke:#050105; fill:none;"/>
	<path d="M 459.0,436.0 L 460.0,437.0" style="stroke:#050105; fill:none;"/>
	<path d="M 680.0,437.0 L 677.0,439.0" style="stroke:#050105; fill:none;"/>
	<path d="M 861.0,437.0 L 862.0,437.0" style="stroke:#050105; fill:none;"/>
	<path d="M 81.0,438.0 L 82.0,442.0" style="stroke:#050105; fill:none;"/>
	<path d="M 488.0,439.0 L 490.0,438.0" style="stroke:#050105; fill:none;"/>
	<path d="M 833.0,439.0 L 836.0,440.0" style="stroke:#050105; fill:none;"/>
	<path d="M 717.0,441.0 L 719.0,441.0" style="stroke:#050105; fill:none;"/>
	<path d="M 858.0,440.0 L 861.0,441.0" style="stroke:#050105; fill:none;"/>
	<path d="M 711.0,441.0 L 710.0,442.0" style="stroke:#050105; fill:none;"/>
	<path d="M 725.0,441.0 L 727.0,442.0" style="stroke:#050105; fill:none;"/>
	<path d="M 671.0,442.0 L 673.0,444.0" style="stroke:#050105; fill:none;"/>
	<path d="M 699.0,442.0 L 701.0,442.0" style="stroke:#050105; fill:none;"/>
	<path d="M 730.0,443.0 L 734.0,444.0" style="stroke:#050105; fill:none;"/>
	<path d="M 180.0,444.0 L 181.0,446.0" style="stroke:#050105; fill:none;"/>
	<path d="M 860.0,444.0 L 857.0,447.0" style="stroke:#050105; fill:none;"/>
	<path d="M 742.0,445.0 L 743.0,445.0" style="stroke:#050105; fill:none;"/>
	<path d="M 747.0,445.0 L 747.0,446.0" style="stroke:#050105; fill:none;"/>
	<path d="M 766.0,445.0 L 767.0,445.0" style="stroke:#050105; fill:none;"/>
	<path d="M 133.0,446.0 L 134.0,447.0" style="stroke:#050105; fill:none;"/>
	<path d="M 769.0,446.0 L 771.0,447.0" style="stroke:#050105; fill:none;"/>
	<path d="M 666.0,447.0 L 666.0,450.0" style="stroke:#050105; fill:none;"/>
	<path d="M 749.0,447.0 L 754.0,449.0" style="stroke:#050105; fill:none;"/>
	<path d="M 83.0,449.0 L 85.0,453.0" style="stroke:#050105; fill:none;"/>
	<path d="M 181.0,449.0 L 179.0,453.0" style="stroke:#050105; fill:none;"/>
	<path d="M 137.0,450.0 L 144.0,452.0" style="stroke:#050105; fill:none;"/>
	<path d="M 841.0,450.0 L 841.0,451.0" style="stroke:#050105; fill:none;"/>
	<path d="M 758.0,451.0 L 763.0,452.0" style="stroke:#050105; fill:none;"/>
	<path d="M 777.0,451.0 L 778.0,452.0" style="stroke:#050105; fill:none;"/>
	<path d="M 855.0,451.0 L 856.0,454.0" style="stroke:#050105; fill:none;"/>
	<path d="M 114.0,453.0 L 114.0,457.0" style="stroke:#050105; fill:none;"/>
	<path d="M 650.0,453.0 L 651.0,453.0" style="stroke:#050105; fill:none;"/>
	<path d="M 766.0,453.0 L 769.0,455.0" style="stroke:#050105; fill:none;"/>
	<path d="M 781.0,453.0 L 782.0,453.0" style="stroke:#050105; fill:none;"/>
	<path d="M 753.0,454.0 L 753.0,455.0" style="stroke:#050105; fill:none;"/>
	<path d="M 650.0,456.0 L 648.0,457.0" style="stroke:#050105; fill:none;"/>
	<path d="M 772.0,456.0 L 778.0,461.0" style="stroke:#050105; fill:none;"/>
	<path d="M 86.0,457.0 L 88.0,467.0" style="stroke:#050105; fill:none;"/>
	<path d="M 182.0,457.0 L 180.0,462.0" style="stroke:#050105; fill:none;"/>
	<path d="M 662.0,457.0 L 662.0,458.0" style="stroke:#050105; fill:none;"/>
	<path d="M 854.0,458.0 L 852.0,467.0" style="stroke:#050105; fill:none;"/>
	<path d="M 119.0,459.0 L 120.0,460.0" style="stroke:#050105; fill:none;"/>
	<path d="M 648.0,460.0 L 645.0,463.0" style="stroke:#050105; fill:none;"/>
	<path d="M 677.0,460.0 L 676.0,473.0" style="stroke:#050105; fill:none;"/>
	<path d="M 660.0,461.0 L 661.0,462.0" style="stroke:#050105; fill:none;"/>
	<path d="M 780.0,462.0 L 788.0,468.0" style="stroke:#050105; fill:none;"/>
	<path d="M 180.0,465.0 L 181.0,468.0" style="stroke:#050105; fill:none;"/>
	<path d="M 712.0,465.0 L 706.0,468.0" style="stroke:#050105; fill:none;"/>
	<path d="M 723.0,465.0 L 725.0,470.0" style="stroke:#050105; fill:none;"/>
	<path d="M 755.0,466.0 L 756.0,466.0" style="stroke:#050105; fill:none;"/>
	<path d="M 852.0,469.0 L 852.0,470.0" style="stroke:#050105; fill:none;"/>
	<path d="M 174.0,472.0 L 174.0,473.0" style="stroke:#050105; fill:none;"/>
	<path d="M 180.0,472.0 L 180.0,473.0" style="stroke:#050105; fill:none;"/>
	<path d="M 706.0,472.0 L 706.0,476.0" style="stroke:#050105; fill:none;"/>
	<path d="M 756.0,473.0 L 757.0,474.0" style="stroke:#050105; fill:none;"/>
	<path d="M 849.0,474.0 L 851.0,473.0" style="stroke:#050105; fill:none;"/>
	<path d="M 643.0,474.0 L 644.0,474.0" style="stroke:#050105; fill:none;"/>
	<path d="M 90.0,475.0 L 90.0,482.0" style="stroke:#050105; fill:none;"/>
	<path d="M 725.0,475.0 L 725.0,476.0" style="stroke:#050105; fill:none;"/>
	<path d="M 182.0,476.0 L 180.0,477.0" style="stroke:#050105; fill:none;"/>
	<path d="M 757.0,476.0 L 756.0,480.0" style="stroke:#050105; fill:none;"/>
	<path d="M 135.0,477.0 L 137.0,478.0" style="stroke:#050105; fill:none;"/>
	<path d="M 677.0,477.0 L 681.0,484.0" style="stroke:#050105; fill:none;"/>
	<path d="M 850.0,477.0 L 848.0,482.0" style="stroke:#050105; fill:none;"/>
	<path d="M 139.0,479.0 L 140.0,479.0" style="stroke:#050105; fill:none;"/>
	<path d="M 708.0,481.0 L 712.0,484.0" style="stroke:#050105; fill:none;"/>
	<path d="M 752.0,485.0 L 754.0,485.0" style="stroke:#050105; fill:none;"/>
	<path d="M 673.0,486.0 L 677.0,487.0" style="stroke:#050105; fill:none;"/>
	<path d="M 795.0,487.0 L 796.0,487.0" style="stroke:#050105; fill:none;"/>
	<path d="M 98.0,515.0 C 92.3207,508.895 86.9808,495.353 93.0,488.0" style="stroke:#050105; fill:none;"/>
	<path d="M 681.0,489.0 L 689.0,491.0" style="stroke:#050105; fill:none;"/>
	<path d="M 795.0,490.0 L 795.0,491.0" style="stroke:#050105; fill:none;"/>
	<path d="M 847.0,490.0 L 847.0,494.0" style="stroke:#050105; fill:none;"/>
	<path d="M 181.0,491.0 L 182.0,496.0 L 181.0,494.0" style="stroke:#050105; fill:none;"/>
	<path d="M 747.0,492.0 L 748.0,493.0" style="stroke:#050105; fill:none;"/>
	<path d="M 692.0,494.0 L 693.0,495.0" style="stroke:#050105; fill:none;"/>
	<path d="M 793.0,494.0 L 788.0,499.0" style="stroke:#050105; fill:none;"/>
	<path d="M 845.0,494.0 L 845.0,496.0" style="stroke:#050105; fill:none;"/>
	<path d="M 746.0,495.0 L 744.0,497.0" style="stroke:#050105; fill:none;"/>
	<path d="M 740.0,499.0 L 741.0,500.0" style="stroke:#050105; fill:none;"/>
	<path d="M 183.0,502.0 L 183.0,503.0" style="stroke:#050105; fill:none;"/>
	<path d="M 843.0,502.0 L 844.0,502.0" style="stroke:#050105; fill:none;"/>
	<path d="M 91.0,503.0 L 92.0,504.0" style="stroke:#050105; fill:none;"/>
	<path d="M 90.0,506.0 L 91.0,506.0" style="stroke:#050105; fill:none;"/>
	<path d="M 842.0,506.0 L 842.0,508.0" style="stroke:#050105; fill:none;"/>
	<path d="M 732.0,508.0 L 737.0,509.0" style="stroke:#050105; fill:none;"/>
	<path d="M 739.0,509.0 L 742.0,510.0" style="stroke:#050105; fill:none;"/>
	<path d="M 840.0,513.0 L 839.0,514.0" style="stroke:#050105; fill:none;"/>
	<path d="M 837.0,518.0 L 840.0,517.0" style="stroke:#050105; fill:none;"/>
	<path d="M 112.0,525.0 L 112.0,526.0" style="stroke:#050105; fill:none;"/>
	<path d="M 836.0,526.0 L 836.0,527.0" style="stroke:#050105; fill:none;"/>
	<path d="M 125.0,531.0 L 166.0,527.0" style="stroke:#050105; fill:none;"/>
	<path d="M 150.0,530.0 L 153.0,529.0" style="stroke:#050105; fill:none;"/>
	<path d="M 118.0,530.0 L 121.0,530.0" style="stroke:#050105; fill:none;"/>
	<path d="M 833.0,529.0 L 835.0,530.0" style="stroke:#050105; fill:none;"/>
	<path d="M 832.0,534.0 L 832.0,536.0" style="stroke:#050105; fill:none;"/>
	<path d="M 829.0,541.0 L 827.0,546.0" style="stroke:#050105; fill:none;"/>
	<path d="M 824.0,552.0 L 821.0,559.0" style="stroke:#050105; fill:none;"/>
	<path d="M 817.0,563.0 L 817.0,565.0" style="stroke:#050105; fill:none;"/>
	<path d="M 814.0,567.0 L 814.0,570.0" style="stroke:#050105; fill:none;"/>
	<path d="M 817.0,567.0 L 818.0,567.0" style="stroke:#050105; fill:none;"/>
	<path d="M 813.0,573.0 L 813.0,574.0" style="stroke:#050105; fill:none;"/>
	<path d="M 810.0,577.0 L 807.0,583.0" style="stroke:#050105; fill:none;"/>
	<path d="M 453.0,591.0 L 455.0,595.0" style="stroke:#050105; fill:none;"/>
	<path d="M 457.0,596.0 L 458.0,598.0" style="stroke:#050105; fill:none;"/>
	<path d="M 803.0,597.0 L 803.0,598.0" style="stroke:#050105; fill:none;"/>
	<path d="M 461.0,602.0 L 476.0,617.0" style="stroke:#050105; fill:none;"/>
	<path d="M 801.0,604.0 L 803.0,603.0" style="stroke:#050105; fill:none;"/>
	<path d="M 504.0,605.0 L 498.0,608.0" style="stroke:#050105; fill:none;"/>
	<path d="M 506.0,607.0 L 509.0,608.0" style="stroke:#050105; fill:none;"/>
	<path d="M 799.0,609.0 L 800.0,609.0" style="stroke:#050105; fill:none;"/>
	<path d="M 515.0,610.0 L 523.0,615.0 L 521.0,617.0" style="stroke:#050105; fill:none;"/>
	<path d="M 502.0,612.0 L 502.0,613.0" style="stroke:#050105; fill:none;"/>
	<path d="M 799.0,612.0 L 798.0,613.0" style="stroke:#050105; fill:none;"/>
	<path d="M 521.0,614.0 L 522.0,614.0" style="stroke:#050105; fill:none;"/>
	<path d="M 524.0,615.0 L 528.0,617.0 L 526.0,618.0" style="stroke:#050105; fill:none;"/>
	<path d="M 479.0,617.0 L 479.0,619.0" style="stroke:#050105; fill:none;"/>
	<path d="M 483.0,619.0 L 484.0,620.0" style="stroke:#050105; fill:none;"/>
	<path d="M 527.0,619.0 L 527.0,621.0" style="stroke:#050105; fill:none;"/>
	<path d="M 798.0,620.0 L 796.0,627.0" style="stroke:#050105; fill:none;"/>
	<path d="M 801.0,621.0 L 800.0,622.0" style="stroke:#050105; fill:none;"/>
	<path d="M 487.0,622.0 L 491.0,624.0" style="stroke:#050105; fill:none;"/>
	<path d="M 532.0,622.0 L 535.0,625.0" style="stroke:#050105; fill:none;"/>
	<path d="M 640.0,628.0 L 639.0,633.0" style="stroke:#050105; fill:none;"/>
	<path d="M 597.0,635.0 L 619.0,632.0" style="stroke:#050105; fill:none;"/>
	<path d="M 794.0,634.0 L 793.0,640.0" style="stroke:#050105; fill:none;"/>
	<path d="M 634.0,641.0 L 632.0,645.0" style="stroke:#050105; fill:none;"/>
	<path d="M 594.0,642.0 L 595.0,643.0" style="stroke:#050105; fill:none;"/>
	<path d="M 791.0,644.0 L 790.0,649.0" style="stroke:#050105; fill:none;"/>
	<path d="M 624.0,654.0 L 628.0,649.0" style="stroke:#050105; fill:none;"/>
	<path d="M 605.0,654.0 L 624.0,652.0" style="stroke:#050105; fill:none;"/>
	<path d="M 787.0,653.0 L 787.0,654.0" style="stroke:#050105; fill:none;"/>
	<path d="M 600.0,654.0 L 601.0,654.0" style="stroke:#050105; fill:none;"/>
	<path d="M 788.0,658.0 L 786.0,665.0" style="stroke:#050105; fill:none;"/>
	<path d="M 784.0,668.0 L 785.0,668.0" style="stroke:#050105; fill:none;"/>
	<path d="M 782.0,676.0 L 784.0,674.0" style="stroke:#050105; fill:none;"/>
	<path d="M 781.0,678.0 L 780.0,682.0" style="stroke:#050105; fill:none;"/>
	<path d="M 774.0,704.0 L 773.0,709.0" style="stroke:#050105; fill:none;"/>
	<path d="M 412.0,706.0 L 412.0,707.0" style="stroke:#050105; fill:none;"/>
	<path d="M 422.0,709.0 L 427.0,712.0" style="stroke:#050105; fill:none;"/>
	<path d="M 434.0,712.0 L 439.0,711.0" style="stroke:#050105; fill:none;"/>
	<path d="M 442.0,712.0 L 448.0,713.0" style="stroke:#050105; fill:none;"/>
	<path d="M 451.0,713.0 L 453.0,714.0" style="stroke:#050105; fill:none;"/>
	<path d="M 483.0,719.0 L 484.0,719.0" style="stroke:#050105; fill:none;"/>
	<path d="M 489.0,721.0 L 490.0,721.0" style="stroke:#050105; fill:none;"/>
	<path d="M 492.0,721.0 L 493.0,721.0" style="stroke:#050105; fill:none;"/>
	<path d="M 507.0,725.0 L 509.0,726.0" style="stroke:#050105; fill:none;"/>
	<path d="M 511.0,727.0 L 511.0,728.0" style="stroke:#050105; fill:none;"/>
	<path d="M 762.0,728.0 L 763.0,728.0" style="stroke:#050105; fill:none;"/>
	<path d="M 519.0,732.0 L 525.0,734.0" style="stroke:#050105; fill:none;"/>
	<path d="M 528.0,734.0 L 528.0,735.0" style="stroke:#050105; fill:none;"/>
	<path d="M 535.0,737.0 L 537.0,737.0" style="stroke:#050105; fill:none;"/>
	<path d="M 549.0,737.0 L 553.0,737.0" style="stroke:#050105; fill:none;"/>
	<path d="M 758.0,737.0 L 758.0,739.0" style="stroke:#050105; fill:none;"/>
	<path d="M 541.0,738.0 L 542.0,738.0" style="stroke:#050105; fill:none;"/>
	<path d="M 545.0,738.0 L 546.0,738.0" style="stroke:#050105; fill:none;"/>
	<path d="M 555.0,738.0 L 555.0,739.0" style="stroke:#050105; fill:none;"/>
	<path d="M 558.0,740.0 L 560.0,740.0" style="stroke:#050105; fill:none;"/>
	<path d="M 756.0,741.0 L 756.0,742.0" style="stroke:#050105; fill:none;"/>
	<path d="M 564.0,742.0 L 573.0,746.0" style="stroke:#050105; fill:none;"/>
	<path d="M 753.0,746.0 L 736.0,765.0" style="stroke:#050105; fill:none;"/>
	<path d="M 578.0,748.0 L 580.0,748.0" style="stroke:#050105; fill:none;"/>
	<path d="M 584.0,748.0 L 584.0,749.0" style="stroke:#050105; fill:none;"/>
	<path d="M 588.0,749.0 L 589.0,749.0" style="stroke:#050105; fill:none;"/>
	<path d="M 592.0,750.0 L 592.0,751.0" style="stroke:#050105; fill:none;"/>
	<path d="M 594.0,751.0 L 610.0,758.0" style="stroke:#050105; fill:none;"/>
	<path d="M 614.0,764.0 L 616.0,768.0" style="stroke:#050105; fill:none;"/>
	<path d="M 726.0,776.0 L 732.0,770.0" style="stroke:#050105; fill:none;"/>
	<path d="M 722.0,778.0 L 723.0,780.0" style="stroke:#050105; fill:none;"/>
	<path d="M 721.0,780.0 L 719.0,782.0" style="stroke:#050105; fill:none;"/>
	<path d="M 714.0,785.0 L 715.0,785.0" style="stroke:#050105; fill:none;"/>
	<path d="M 711.0,789.0 L 710.0,790.0" style="stroke:#050105; fill:none;"/>
	<path d="M 706.0,791.0 L 706.0,793.0" style="stroke:#050105; fill:none;"/>
	<path d="M 698.0,797.0 L 699.0,797.0" style="stroke:#050105; fill:none;"/>
	<path d="M 696.0,798.0 L 696.0,799.0" style="stroke:#050105; fill:none;"/>
	<path d="M 691.0,800.0 L 692.0,803.0" style="stroke:#050105; fill:none;"/>
	<path d="M 303.0,802.0 L 304.0,802.0" style="stroke:#050105; fill:none;"/>
	<path d="M 307.0,804.0 L 307.0,805.0" style="stroke:#050105; fill:none;"/>
	<path d="M 686.0,805.0 L 688.0,804.0" style="stroke:#050105; fill:none;"/>
	<path d="M 310.0,807.0 L 311.0,807.0" style="stroke:#050105; fill:none;"/>
	<path d="M 680.0,807.0 L 683.0,807.0" style="stroke:#050105; fill:none;"/>
	<path d="M 672.0,812.0 L 676.0,809.0" style="stroke:#050105; fill:none;"/>
	<path d="M 671.0,810.0 L 673.0,810.0" style="stroke:#050105; fill:none;"/>
	<path d="M 669.0,811.0 L 661.0,814.0" style="stroke:#050105; fill:none;"/>
	<path d="M 316.0,813.0 L 316.0,814.0" style="stroke:#050105; fill:none;"/>
	<path d="M 657.0,816.0 L 659.0,814.0" style="stroke:#050105; fill:none;"/>
	<path d="M 320.0,816.0 L 323.0,818.0" style="stroke:#050105; fill:none;"/>
	<path d="M 654.0,816.0 L 654.0,817.0" style="stroke:#050105; fill:none;"/>
	<path d="M 637.0,821.0 L 651.0,817.0" style="stroke:#050105; fill:none;"/>
	<path d="M 324.0,820.0 L 331.0,824.0" style="stroke:#050105; fill:none;"/>
	<path d="M 626.0,825.0 L 634.0,822.0" style="stroke:#050105; fill:none;"/>
	<path d="M 622.0,826.0 L 620.0,827.0" style="stroke:#050105; fill:none;"/>
	<path d="M 614.0,829.0 L 617.0,829.0" style="stroke:#050105; fill:none;"/>
	<path d="M 340.0,830.0 L 343.0,831.0" style="stroke:#050105; fill:none;"/>
	<path d="M 346.0,831.0 L 346.0,832.0" style="stroke:#050105; fill:none;"/>
	<path d="M 609.0,832.0 L 611.0,832.0" style="stroke:#050105; fill:none;"/>
	<path d="M 349.0,834.0 L 349.0,836.0" style="stroke:#050105; fill:none;"/>
	<path d="M 606.0,834.0 L 608.0,834.0" style="stroke:#050105; fill:none;"/>
	<path d="M 352.0,838.0 L 353.0,840.0" style="stroke:#050105; fill:none;"/>
	<path d="M 597.0,841.0 L 590.0,843.0" style="stroke:#050105; fill:none;"/>
	<path d="M 357.0,842.0 L 357.0,843.0" style="stroke:#050105; fill:none;"/>
	<path d="M 587.0,845.0 C 584.051,847.16 576.44,854.364 573.0,852.0" style="stroke:#050105; fill:none;"/>
	<path d="M 590.0,846.0 L 589.0,847.0" style="stroke:#050105; fill:none;"/>
	<path d="M 362.0,847.0 L 363.0,847.0" style="stroke:#050105; fill:none;"/>
	<path d="M 365.0,848.0 L 370.0,850.0" style="stroke:#050105; fill:none;"/>
	<path d="M 572.0,854.0 L 562.0,862.0" style="stroke:#050105; fill:none;"/>
	<path d="M 376.0,855.0 L 379.0,857.0" style="stroke:#050105; fill:none;"/>
	<path d="M 387.0,858.0 L 387.0,859.0" style="stroke:#050105; fill:none;"/>
	<path d="M 558.0,865.0 L 559.0,865.0" style="stroke:#050105; fill:none;"/>
	<path d="M 427.0,870.0 L 428.0,870.0" style="stroke:#050105; fill:none;"/>
	<path d="M 547.0,870.0 L 549.0,870.0" style="stroke:#050105; fill:none;"/>
	<path d="M 445.0,873.0 L 445.0,874.0" style="stroke:#050105; fill:none;"/>
	<path d="M 536.0,874.0 L 539.0,874.0" style="stroke:#050105; fill:none;"/>
	<path d="M 455.0,875.0 L 461.0,875.0" style="stroke:#050105; fill:none;"/>
	<path d="M 467.0,875.0 L 467.0,877.0" style="stroke:#050105; fill:none;"/>
	<path d="M 521.0,875.0 L 521.0,877.0" style="stroke:#050105; fill:none;"/>
	<path d="M 524.0,876.0 L 533.0,875.0" style="stroke:#050105; fill:none;"/>
	<path d="M 471.0,877.0 L 478.0,877.0" style="stroke:#050105; fill:none;"/>
	<path d="M 516.0,876.0 L 516.0,877.0" style="stroke:#050105; fill:none;"/>
	<path d="M 481.0,878.0 L 485.0,878.0" style="stroke:#050105; fill:none;"/>
	<path d="M 509.0,877.0 L 509.0,878.0" style="stroke:#050105; fill:none;"/>
	<path d="M 490.0,878.0 L 493.0,878.0" style="stroke:#050105; fill:none;"/>
	<path d="M 496.0,878.0 L 501.0,878.0" style="stroke:#050105; fill:none;"/>
</svg>
