<?xml version="1.0" ?>
<svg baseProfile="full" height="765" version="1.1" width="685" xmlns="http://www.w3.org/2000/svg" xmlns:ev="http://www.w3.org/2001/xml-events" xmlns:xlink="http://www.w3.org/1999/xlink">
	<defs/>
	<path d="M 409.0,133.0 L 410.0,134.0" style="stroke:#070107; fill:none;"/>
	<path d="M 345.0,135.0 L 347.0,135.0" style="stroke:#070107; fill:none;"/>
	<path d="M 404.0,135.0 L 412.0,139.0" style="stroke:#070107; fill:none;"/>
	<path d="M 320.0,139.0 L 319.0,140.0" style="stroke:#070107; fill:none;"/>
	<path d="M 304.0,145.0 L 304.0,146.0" style="stroke:#070107; fill:none;"/>
	<path d="M 427.0,147.0 L 429.0,149.0" style="stroke:#070107; fill:none;"/>
	<path d="M 414.0,148.0 L 416.0,149.0" style="stroke:#070107; fill:none;"/>
	<path d="M 411.0,149.0 L 412.0,149.0" style="stroke:#070107; fill:none;"/>
	<path d="M 435.0,157.0 L 436.0,157.0" style="stroke:#070107; fill:none;"/>
	<path d="M 307.0,161.0 L 308.0,161.0" style="stroke:#070107; fill:none;"/>
	<path d="M 447.0,161.0 L 451.0,165.0" style="stroke:#070107; fill:none;"/>
	<path d="M 438.0,162.0 L 439.0,162.0" style="stroke:#070107; fill:none;"/>
	<path d="M 454.0,167.0 L 457.0,170.0" style="stroke:#070107; fill:none;"/>
	<path d="M 468.0,176.0 L 471.0,177.0" style="stroke:#070107; fill:none;"/>
	<path d="M 475.0,179.0 L 477.0,181.0" style="stroke:#070107; fill:none;"/>
	<path d="M 479.0,184.0 L 482.0,185.0" style="stroke:#070107; fill:none;"/>
	<path d="M 276.0,186.0 L 277.0,186.0" style="stroke:#070107; fill:none;"/>
	<path d="M 485.0,188.0 L 486.0,189.0" style="stroke:#070107; fill:none;"/>
	<path d="M 489.0,190.0 L 493.0,194.0" style="stroke:#070107; fill:none;"/>
	<path d="M 504.0,201.0 L 506.0,204.0" style="stroke:#070107; fill:none;"/>
	<path d="M 446.0,212.0 L 454.0,211.0" style="stroke:#070107; fill:none;"/>
	<path d="M 519.0,213.0 L 521.0,215.0" style="stroke:#070107; fill:none;"/>
	<path d="M 438.0,215.0 L 440.0,215.0" style="stroke:#070107; fill:none;"/>
	<path d="M 524.0,217.0 L 524.0,218.0" style="stroke:#070107; fill:none;"/>
	<path d="M 526.0,218.0 L 530.0,222.0" style="stroke:#070107; fill:none;"/>
	<path d="M 429.0,225.0 L 430.0,229.0" style="stroke:#070107; fill:none;"/>
	<path d="M 533.0,226.0 L 538.0,230.0" style="stroke:#070107; fill:none;"/>
	<path d="M 426.0,231.0 L 424.0,233.0" style="stroke:#070107; fill:none;"/>
	<path d="M 493.0,236.0 L 493.0,237.0" style="stroke:#070107; fill:none;"/>
	<path d="M 427.0,237.0 L 426.0,238.0" style="stroke:#070107; fill:none;"/>
	<path d="M 424.0,242.0 L 421.0,245.0" style="stroke:#070107; fill:none;"/>
	<path d="M 479.0,245.0 L 480.0,245.0" style="stroke:#070107; fill:none;"/>
	<path d="M 212.0,246.0 L 210.0,249.0" style="stroke:#070107; fill:none;"/>
	<path d="M 463.0,247.0 L 469.0,246.0" style="stroke:#070107; fill:none;"/>
	<path d="M 479.0,247.0 L 479.0,248.0" style="stroke:#070107; fill:none;"/>
	<path d="M 555.0,247.0 L 555.0,249.0" style="stroke:#070107; fill:none;"/>
	<path d="M 411.0,259.0 L 420.0,249.0" style="stroke:#070107; fill:none;"/>
	<path d="M 456.0,248.0 L 461.0,248.0" style="stroke:#070107; fill:none;"/>
	<path d="M 490.0,251.0 L 490.0,255.0" style="stroke:#070107; fill:none;"/>
	<path d="M 558.0,252.0 L 559.0,254.0" style="stroke:#070107; fill:none;"/>
	<path d="M 451.0,254.0 L 453.0,253.0" style="stroke:#070107; fill:none;"/>
	<path d="M 449.0,254.0 L 449.0,255.0" style="stroke:#070107; fill:none;"/>
	<path d="M 444.0,257.0 L 446.0,258.0" style="stroke:#070107; fill:none;"/>
	<path d="M 479.0,257.0 C 479.808,262.258 475.254,262.055 471.0,262.0" style="stroke:#070107; fill:none;"/>
	<path d="M 204.0,258.0 L 204.0,260.0" style="stroke:#070107; fill:none;"/>
	<path d="M 485.0,258.0 L 486.0,258.0" style="stroke:#070107; fill:none;"/>
	<path d="M 477.0,259.0 L 476.0,260.0" style="stroke:#070107; fill:none;"/>
	<path d="M 466.0,260.0 L 469.0,266.0" style="stroke:#070107; fill:none;"/>
	<path d="M 469.0,260.0 L 468.0,261.0" style="stroke:#070107; fill:none;"/>
	<path d="M 440.0,261.0 L 440.0,262.0" style="stroke:#070107; fill:none;"/>
	<path d="M 438.0,263.0 L 436.0,265.0" style="stroke:#070107; fill:none;"/>
	<path d="M 408.0,264.0 L 408.0,265.0" style="stroke:#070107; fill:none;"/>
	<path d="M 468.0,264.0 C 465.334,266.618 464.424,267.655 461.0,266.0 L 460.0,267.0 L 461.0,268.0" style="stroke:#070107; fill:none;"/>
	<path d="M 473.0,264.0 L 474.0,265.0" style="stroke:#070107; fill:none;"/>
	<path d="M 477.0,264.0 L 478.0,264.0" style="stroke:#070107; fill:none;"/>
	<path d="M 199.0,265.0 L 199.0,266.0" style="stroke:#070107; fill:none;"/>
	<path d="M 452.0,266.0 L 447.0,270.0" style="stroke:#070107; fill:none;"/>
	<path d="M 405.0,268.0 L 404.0,269.0" style="stroke:#070107; fill:none;"/>
	<path d="M 442.0,268.0 L 442.0,269.0" style="stroke:#070107; fill:none;"/>
	<path d="M 456.0,269.0 C 461.57,272.924 467.244,278.247 469.0,285.0" style="stroke:#070107; fill:none;"/>
	<path d="M 408.0,270.0 L 407.0,273.0" style="stroke:#070107; fill:none;"/>
	<path d="M 458.0,270.0 C 451.666,273.805 443.287,276.391 443.0,285.0" style="stroke:#070107; fill:none;"/>
	<path d="M 444.0,273.0 L 446.0,276.0" style="stroke:#070107; fill:none;"/>
	<path d="M 484.0,273.0 L 484.0,276.0" style="stroke:#070107; fill:none;"/>
	<path d="M 489.0,273.0 L 489.0,274.0" style="stroke:#070107; fill:none;"/>
	<path d="M 191.0,277.0 L 190.0,279.0" style="stroke:#070107; fill:none;"/>
	<path d="M 439.0,280.0 L 438.0,283.0" style="stroke:#070107; fill:none;"/>
	<path d="M 454.0,286.0 L 454.0,287.0" style="stroke:#070107; fill:none;"/>
	<path d="M 498.0,286.0 L 499.0,286.0" style="stroke:#070107; fill:none;"/>
	<path d="M 583.0,286.0 L 584.0,287.0" style="stroke:#070107; fill:none;"/>
	<path d="M 434.0,287.0 L 436.0,289.0" style="stroke:#070107; fill:none;"/>
	<path d="M 422.0,289.0 L 424.0,288.0" style="stroke:#070107; fill:none;"/>
	<path d="M 442.0,288.0 L 443.0,288.0" style="stroke:#070107; fill:none;"/>
	<path d="M 479.0,288.0 L 479.0,289.0" style="stroke:#070107; fill:none;"/>
	<path d="M 433.0,289.0 L 434.0,289.0" style="stroke:#070107; fill:none;"/>
	<path d="M 183.0,290.0 L 180.0,291.0" style="stroke:#070107; fill:none;"/>
	<path d="M 587.0,290.0 L 587.0,291.0" style="stroke:#070107; fill:none;"/>
	<path d="M 442.0,292.0 L 443.0,293.0" style="stroke:#070107; fill:none;"/>
	<path d="M 589.0,293.0 L 591.0,295.0" style="stroke:#070107; fill:none;"/>
	<path d="M 177.0,295.0 L 176.0,296.0" style="stroke:#070107; fill:none;"/>
	<path d="M 432.0,295.0 L 431.0,298.0 L 427.0,297.0" style="stroke:#070107; fill:none;"/>
	<path d="M 449.0,296.0 L 450.0,296.0" style="stroke:#070107; fill:none;"/>
	<path d="M 467.0,296.0 L 465.0,299.0" style="stroke:#070107; fill:none;"/>
	<path d="M 169.0,302.0 L 171.0,301.0" style="stroke:#070107; fill:none;"/>
	<path d="M 436.0,303.0 L 437.0,303.0" style="stroke:#070107; fill:none;"/>
	<path d="M 439.0,305.0 L 440.0,306.0" style="stroke:#070107; fill:none;"/>
	<path d="M 458.0,305.0 L 457.0,306.0" style="stroke:#070107; fill:none;"/>
	<path d="M 158.0,308.0 L 157.0,310.0" style="stroke:#070107; fill:none;"/>
	<path d="M 454.0,308.0 L 455.0,308.0" style="stroke:#070107; fill:none;"/>
	<path d="M 464.0,308.0 L 463.0,309.0" style="stroke:#070107; fill:none;"/>
	<path d="M 432.0,311.0 L 432.0,312.0" style="stroke:#070107; fill:none;"/>
	<path d="M 456.0,314.0 L 458.0,313.0" style="stroke:#070107; fill:none;"/>
	<path d="M 606.0,314.0 L 607.0,316.0" style="stroke:#070107; fill:none;"/>
	<path d="M 153.0,316.0 L 152.0,318.0" style="stroke:#070107; fill:none;"/>
	<path d="M 433.0,316.0 L 432.0,317.0" style="stroke:#070107; fill:none;"/>
	<path d="M 610.0,318.0 L 610.0,320.0" style="stroke:#070107; fill:none;"/>
	<path d="M 433.0,319.0 L 433.0,320.0" style="stroke:#070107; fill:none;"/>
	<path d="M 151.0,321.0 L 148.0,325.0" style="stroke:#070107; fill:none;"/>
	<path d="M 433.0,322.0 L 433.0,323.0" style="stroke:#070107; fill:none;"/>
	<path d="M 612.0,322.0 L 613.0,322.0" style="stroke:#070107; fill:none;"/>
	<path d="M 433.0,326.0 L 433.0,327.0" style="stroke:#070107; fill:none;"/>
	<path d="M 442.0,327.0 L 441.0,328.0" style="stroke:#070107; fill:none;"/>
	<path d="M 617.0,327.0 L 619.0,328.0" style="stroke:#070107; fill:none;"/>
	<path d="M 148.0,328.0 L 148.0,329.0" style="stroke:#070107; fill:none;"/>
	<path d="M 621.0,332.0 L 623.0,333.0" style="stroke:#070107; fill:none;"/>
	<path d="M 145.0,335.0 L 145.0,337.0" style="stroke:#070107; fill:none;"/>
	<path d="M 437.0,335.0 L 436.0,336.0" style="stroke:#070107; fill:none;"/>
	<path d="M 144.0,340.0 L 142.0,346.0" style="stroke:#070107; fill:none;"/>
	<path d="M 628.0,342.0 L 629.0,342.0" style="stroke:#070107; fill:none;"/>
	<path d="M 633.0,350.0 L 634.0,351.0" style="stroke:#070107; fill:none;"/>
	<path d="M 141.0,351.0 L 140.0,354.0" style="stroke:#070107; fill:none;"/>
	<path d="M 636.0,352.0 L 635.0,353.0" style="stroke:#070107; fill:none;"/>
	<path d="M 140.0,356.0 L 140.0,358.0" style="stroke:#070107; fill:none;"/>
	<path d="M 139.0,360.0 L 139.0,361.0" style="stroke:#070107; fill:none;"/>
	<path d="M 643.0,366.0 L 644.0,368.0" style="stroke:#070107; fill:none;"/>
	<path d="M 652.0,383.0 L 652.0,384.0" style="stroke:#070107; fill:none;"/>
	<path d="M 312.0,389.0 L 313.0,389.0" style="stroke:#070107; fill:none;"/>
	<path d="M 656.0,393.0 L 658.0,395.0" style="stroke:#070107; fill:none;"/>
	<path d="M 349.0,398.0 L 351.0,398.0" style="stroke:#070107; fill:none;"/>
	<path d="M 354.0,398.0 L 355.0,398.0" style="stroke:#070107; fill:none;"/>
	<path d="M 325.0,406.0 L 326.0,406.0" style="stroke:#070107; fill:none;"/>
	<path d="M 360.0,408.0 L 361.0,408.0" style="stroke:#070107; fill:none;"/>
	<path d="M 363.0,408.0 L 364.0,408.0" style="stroke:#070107; fill:none;"/>
	<path d="M 370.0,409.0 L 371.0,409.0" style="stroke:#070107; fill:none;"/>
	<path d="M 349.0,410.0 L 350.0,410.0" style="stroke:#070107; fill:none;"/>
	<path d="M 530.0,410.0 L 531.0,410.0" style="stroke:#070107; fill:none;"/>
	<path d="M 663.0,412.0 L 664.0,415.0" style="stroke:#070107; fill:none;"/>
	<path d="M 338.0,414.0 L 339.0,414.0" style="stroke:#070107; fill:none;"/>
	<path d="M 375.0,415.0 L 374.0,416.0" style="stroke:#070107; fill:none;"/>
	<path d="M 309.0,416.0 L 309.0,417.0" style="stroke:#070107; fill:none;"/>
	<path d="M 330.0,416.0 L 330.0,417.0" style="stroke:#070107; fill:none;"/>
	<path d="M 332.0,417.0 L 333.0,417.0" style="stroke:#070107; fill:none;"/>
	<path d="M 318.0,429.0 C 317.516,423.226 321.683,419.493 327.0,418.0" style="stroke:#070107; fill:none;"/>
	<path d="M 534.0,420.0 L 533.0,421.0" style="stroke:#070107; fill:none;"/>
	<path d="M 370.0,421.0 L 371.0,421.0" style="stroke:#070107; fill:none;"/>
	<path d="M 275.0,422.0 L 277.0,422.0" style="stroke:#070107; fill:none;"/>
	<path d="M 324.0,422.0 L 323.0,423.0" style="stroke:#070107; fill:none;"/>
	<path d="M 173.0,423.0 L 173.0,424.0" style="stroke:#070107; fill:none;"/>
	<path d="M 303.0,423.0 L 304.0,423.0" style="stroke:#070107; fill:none;"/>
	<path d="M 342.0,423.0 L 343.0,423.0" style="stroke:#070107; fill:none;"/>
	<path d="M 311.0,424.0 L 310.0,425.0" style="stroke:#070107; fill:none;"/>
	<path d="M 265.0,426.0 L 264.0,428.0" style="stroke:#070107; fill:none;"/>
	<path d="M 302.0,426.0 L 303.0,426.0" style="stroke:#070107; fill:none;"/>
	<path d="M 346.0,427.0 L 346.0,429.0" style="stroke:#070107; fill:none;"/>
	<path d="M 312.0,430.0 L 311.0,431.0" style="stroke:#070107; fill:none;"/>
	<path d="M 330.0,430.0 L 334.0,432.0" style="stroke:#070107; fill:none;"/>
	<path d="M 322.0,431.0 L 323.0,432.0" style="stroke:#070107; fill:none;"/>
	<path d="M 315.0,433.0 C 311.979,438.1 308.884,439.858 303.0,440.0" style="stroke:#070107; fill:none;"/>
	<path d="M 256.0,434.0 L 257.0,435.0" style="stroke:#070107; fill:none;"/>
	<path d="M 178.0,435.0 L 178.0,436.0" style="stroke:#070107; fill:none;"/>
	<path d="M 263.0,435.0 L 259.0,439.0" style="stroke:#070107; fill:none;"/>
	<path d="M 320.0,435.0 L 321.0,438.0" style="stroke:#070107; fill:none;"/>
	<path d="M 338.0,435.0 L 339.0,435.0" style="stroke:#070107; fill:none;"/>
	<path d="M 311.0,437.0 L 312.0,438.0" style="stroke:#070107; fill:none;"/>
	<path d="M 295.0,438.0 L 297.0,438.0" style="stroke:#070107; fill:none;"/>
	<path d="M 179.0,439.0 L 180.0,440.0" style="stroke:#070107; fill:none;"/>
	<path d="M 321.0,441.0 L 328.0,445.0" style="stroke:#070107; fill:none;"/>
	<path d="M 346.0,441.0 L 347.0,441.0" style="stroke:#070107; fill:none;"/>
	<path d="M 310.0,445.0 L 309.0,447.0" style="stroke:#070107; fill:none;"/>
	<path d="M 181.0,447.0 L 183.0,447.0" style="stroke:#070107; fill:none;"/>
	<path d="M 344.0,446.0 L 344.0,449.0" style="stroke:#070107; fill:none;"/>
	<path d="M 305.0,447.0 L 301.0,450.0" style="stroke:#070107; fill:none;"/>
	<path d="M 251.0,449.0 L 253.0,449.0" style="stroke:#070107; fill:none;"/>
	<path d="M 573.0,449.0 L 574.0,449.0" style="stroke:#070107; fill:none;"/>
	<path d="M 590.0,449.0 L 589.0,450.0" style="stroke:#070107; fill:none;"/>
	<path d="M 341.0,451.0 L 340.0,453.0" style="stroke:#070107; fill:none;"/>
	<path d="M 184.0,453.0 L 187.0,455.0" style="stroke:#070107; fill:none;"/>
	<path d="M 309.0,453.0 L 305.0,455.0" style="stroke:#070107; fill:none;"/>
	<path d="M 338.0,453.0 L 338.0,454.0" style="stroke:#070107; fill:none;"/>
	<path d="M 325.0,455.0 L 326.0,455.0" style="stroke:#070107; fill:none;"/>
	<path d="M 585.0,455.0 L 584.0,457.0" style="stroke:#070107; fill:none;"/>
	<path d="M 249.0,456.0 L 251.0,456.0" style="stroke:#070107; fill:none;"/>
	<path d="M 188.0,458.0 L 189.0,461.0" style="stroke:#070107; fill:none;"/>
	<path d="M 298.0,458.0 L 297.0,459.0" style="stroke:#070107; fill:none;"/>
	<path d="M 290.0,460.0 L 291.0,460.0" style="stroke:#070107; fill:none;"/>
	<path d="M 301.0,460.0 L 300.0,461.0" style="stroke:#070107; fill:none;"/>
	<path d="M 578.0,461.0 L 578.0,462.0" style="stroke:#070107; fill:none;"/>
	<path d="M 297.0,462.0 L 298.0,462.0" style="stroke:#070107; fill:none;"/>
	<path d="M 290.0,463.0 L 290.0,464.0" style="stroke:#070107; fill:none;"/>
	<path d="M 340.0,463.0 L 341.0,463.0" style="stroke:#070107; fill:none;"/>
	<path d="M 248.0,464.0 L 248.0,465.0" style="stroke:#070107; fill:none;"/>
	<path d="M 287.0,465.0 L 288.0,467.0" style="stroke:#070107; fill:none;"/>
	<path d="M 576.0,465.0 L 576.0,466.0" style="stroke:#070107; fill:none;"/>
	<path d="M 192.0,467.0 L 194.0,468.0" style="stroke:#070107; fill:none;"/>
	<path d="M 308.0,468.0 L 307.0,470.0" style="stroke:#070107; fill:none;"/>
	<path d="M 584.0,468.0 L 585.0,468.0" style="stroke:#070107; fill:none;"/>
	<path d="M 295.0,470.0 L 296.0,470.0" style="stroke:#070107; fill:none;"/>
	<path d="M 202.0,475.0 L 204.0,477.0" style="stroke:#070107; fill:none;"/>
	<path d="M 209.0,476.0 L 210.0,476.0" style="stroke:#070107; fill:none;"/>
	<path d="M 491.0,476.0 L 491.0,477.0" style="stroke:#070107; fill:none;"/>
	<path d="M 571.0,476.0 L 570.0,477.0" style="stroke:#070107; fill:none;"/>
	<path d="M 576.0,478.0 L 576.0,479.0" style="stroke:#070107; fill:none;"/>
	<path d="M 207.0,481.0 L 208.0,481.0" style="stroke:#070107; fill:none;"/>
	<path d="M 573.0,483.0 L 573.0,484.0" style="stroke:#070107; fill:none;"/>
	<path d="M 219.0,488.0 L 219.0,489.0" style="stroke:#070107; fill:none;"/>
	<path d="M 482.0,488.0 L 481.0,489.0" style="stroke:#070107; fill:none;"/>
	<path d="M 215.0,489.0 L 216.0,489.0" style="stroke:#070107; fill:none;"/>
	<path d="M 217.0,492.0 L 221.0,496.0" style="stroke:#070107; fill:none;"/>
	<path d="M 559.0,498.0 L 558.0,499.0" style="stroke:#070107; fill:none;"/>
	<path d="M 602.0,499.0 L 602.0,500.0" style="stroke:#070107; fill:none;"/>
	<path d="M 601.0,502.0 L 601.0,503.0" style="stroke:#070107; fill:none;"/>
	<path d="M 548.0,505.0 L 548.0,507.0" style="stroke:#070107; fill:none;"/>
	<path d="M 599.0,505.0 L 599.0,506.0" style="stroke:#070107; fill:none;"/>
	<path d="M 232.0,507.0 L 232.0,508.0" style="stroke:#070107; fill:none;"/>
	<path d="M 597.0,507.0 L 597.0,508.0" style="stroke:#070107; fill:none;"/>
	<path d="M 546.0,508.0 L 547.0,509.0" style="stroke:#070107; fill:none;"/>
	<path d="M 544.0,510.0 L 543.0,511.0" style="stroke:#070107; fill:none;"/>
	<path d="M 596.0,511.0 L 595.0,512.0" style="stroke:#070107; fill:none;"/>
	<path d="M 237.0,514.0 L 238.0,515.0" style="stroke:#070107; fill:none;"/>
	<path d="M 538.0,517.0 L 539.0,517.0" style="stroke:#070107; fill:none;"/>
	<path d="M 541.0,520.0 L 544.0,522.0" style="stroke:#070107; fill:none;"/>
	<path d="M 250.0,527.0 L 252.0,527.0" style="stroke:#070107; fill:none;"/>
	<path d="M 252.0,529.0 L 257.0,532.0" style="stroke:#070107; fill:none;"/>
	<path d="M 529.0,531.0 L 531.0,530.0" style="stroke:#070107; fill:none;"/>
	<path d="M 262.0,535.0 L 265.0,539.0" style="stroke:#070107; fill:none;"/>
	<path d="M 684.0,540.0 L 683.0,543.0" style="stroke:#070107; fill:none;"/>
	<path d="M 520.0,543.0 L 521.0,543.0" style="stroke:#070107; fill:none;"/>
	<path d="M 283.0,550.0 L 283.0,552.0" style="stroke:#070107; fill:none;"/>
	<path d="M 678.0,553.0 L 678.0,555.0" style="stroke:#070107; fill:none;"/>
	<path d="M 294.0,557.0 L 294.0,558.0" style="stroke:#070107; fill:none;"/>
	<path d="M 297.0,558.0 L 296.0,559.0" style="stroke:#070107; fill:none;"/>
	<path d="M 298.0,560.0 L 300.0,560.0" style="stroke:#070107; fill:none;"/>
	<path d="M 304.0,563.0 L 308.0,563.0" style="stroke:#070107; fill:none;"/>
	<path d="M 310.0,563.0 L 311.0,563.0" style="stroke:#070107; fill:none;"/>
	<path d="M 309.0,565.0 L 310.0,565.0" style="stroke:#070107; fill:none;"/>
	<path d="M 667.0,566.0 L 667.0,568.0 L 667.0,566.0" style="stroke:#070107; fill:none;"/>
	<path d="M 318.0,567.0 L 321.0,567.0" style="stroke:#070107; fill:none;"/>
	<path d="M 329.0,571.0 L 329.0,572.0" style="stroke:#070107; fill:none;"/>
	<path d="M 331.0,572.0 L 338.0,576.0" style="stroke:#070107; fill:none;"/>
	<path d="M 663.0,572.0 L 663.0,574.0" style="stroke:#070107; fill:none;"/>
	<path d="M 660.0,577.0 L 659.0,580.0" style="stroke:#070107; fill:none;"/>
	<path d="M 333.0,580.0 L 336.0,581.0" style="stroke:#070107; fill:none;"/>
	<path d="M 345.0,580.0 L 345.0,581.0" style="stroke:#070107; fill:none;"/>
	<path d="M 347.0,581.0 L 347.0,583.0" style="stroke:#070107; fill:none;"/>
	<path d="M 657.0,581.0 L 657.0,583.0" style="stroke:#070107; fill:none;"/>
	<path d="M 655.0,583.0 L 655.0,585.0" style="stroke:#070107; fill:none;"/>
	<path d="M 354.0,586.0 L 362.0,591.0" style="stroke:#070107; fill:none;"/>
	<path d="M 651.0,587.0 L 653.0,588.0" style="stroke:#070107; fill:none;"/>
	<path d="M 366.0,592.0 L 369.0,594.0" style="stroke:#070107; fill:none;"/>
	<path d="M 371.0,596.0 L 374.0,597.0" style="stroke:#070107; fill:none;"/>
	<path d="M 642.0,596.0 L 643.0,596.0" style="stroke:#070107; fill:none;"/>
	<path d="M 640.0,599.0 L 642.0,598.0" style="stroke:#070107; fill:none;"/>
	<path d="M 377.0,599.0 L 381.0,601.0" style="stroke:#070107; fill:none;"/>
	<path d="M 390.0,605.0 L 391.0,606.0" style="stroke:#070107; fill:none;"/>
	<path d="M 633.0,606.0 L 630.0,609.0" style="stroke:#070107; fill:none;"/>
	<path d="M 395.0,607.0 L 401.0,610.0" style="stroke:#070107; fill:none;"/>
	<path d="M 627.0,612.0 L 627.0,613.0" style="stroke:#070107; fill:none;"/>
	<path d="M 624.0,615.0 L 615.0,619.0" style="stroke:#070107; fill:none;"/>
	<path d="M 422.0,619.0 L 423.0,619.0" style="stroke:#070107; fill:none;"/>
	<path d="M 608.0,622.0 L 611.0,622.0" style="stroke:#070107; fill:none;"/>
	<path d="M 605.0,622.0 L 604.0,623.0" style="stroke:#070107; fill:none;"/>
	<path d="M 432.0,623.0 L 434.0,623.0" style="stroke:#070107; fill:none;"/>
	<path d="M 439.0,625.0 L 441.0,625.0" style="stroke:#070107; fill:none;"/>
	<path d="M 593.0,625.0 L 584.0,627.0" style="stroke:#070107; fill:none;"/>
	<path d="M 596.0,625.0 L 599.0,625.0" style="stroke:#070107; fill:none;"/>
	<path d="M 447.0,626.0 L 448.0,626.0" style="stroke:#070107; fill:none;"/>
	<path d="M 578.0,628.0 L 581.0,627.0" style="stroke:#070107; fill:none;"/>
	<path d="M 454.0,628.0 L 456.0,628.0" style="stroke:#070107; fill:none;"/>
	<path d="M 553.0,629.0 L 553.0,630.0" style="stroke:#070107; fill:none;"/>
	<path d="M 557.0,630.0 L 559.0,630.0" style="stroke:#070107; fill:none;"/>
	<path d="M 569.0,629.0 L 570.0,629.0" style="stroke:#070107; fill:none;"/>
	<path d="M 541.0,630.0 L 542.0,630.0" style="stroke:#070107; fill:none;"/>
	<path d="M 548.0,630.0 L 551.0,630.0" style="stroke:#070107; fill:none;"/>
	<path d="M 467.0,631.0 L 468.0,632.0" style="stroke:#070107; fill:none;"/>
	<path d="M 522.0,632.0 L 527.0,631.0" style="stroke:#070107; fill:none;"/>
	<path d="M 534.0,631.0 L 535.0,631.0" style="stroke:#070107; fill:none;"/>
	<path d="M 470.0,632.0 L 471.0,632.0" style="stroke:#070107; fill:none;"/>
	<path d="M 483.0,633.0 L 499.0,633.0" style="stroke:#070107; fill:none;"/>
	<path d="M 518.0,632.0 L 517.0,633.0" style="stroke:#070107; fill:none;"/>
	<path d="M 501.0,633.0 L 501.0,634.0" style="stroke:#070107; fill:none;"/>
</svg>
