<?xml version="1.0" ?>
<svg baseProfile="full" height="765" version="1.1" width="685" xmlns="http://www.w3.org/2000/svg" xmlns:ev="http://www.w3.org/2001/xml-events" xmlns:xlink="http://www.w3.org/1999/xlink">
	<defs/>
	<path d="M 366.0,144.0 L 367.0,144.0" style="stroke:#080108; fill:none;"/>
	<path d="M 402.0,147.0 L 403.0,147.0" style="stroke:#080108; fill:none;"/>
	<path d="M 464.0,157.0 L 464.0,158.0" style="stroke:#080108; fill:none;"/>
	<path d="M 472.0,158.0 L 472.0,160.0" style="stroke:#080108; fill:none;"/>
	<path d="M 466.0,159.0 L 469.0,162.0" style="stroke:#080108; fill:none;"/>
	<path d="M 366.0,160.0 L 367.0,160.0" style="stroke:#080108; fill:none;"/>
	<path d="M 473.0,164.0 L 473.0,166.0" style="stroke:#080108; fill:none;"/>
	<path d="M 477.0,166.0 L 478.0,166.0" style="stroke:#080108; fill:none;"/>
	<path d="M 472.0,174.0 L 474.0,176.0" style="stroke:#080108; fill:none;"/>
	<path d="M 469.0,175.0 L 470.0,175.0" style="stroke:#080108; fill:none;"/>
	<path d="M 329.0,176.0 L 330.0,176.0" style="stroke:#080108; fill:none;"/>
	<path d="M 478.0,179.0 L 480.0,181.0" style="stroke:#080108; fill:none;"/>
	<path d="M 487.0,179.0 L 487.0,180.0" style="stroke:#080108; fill:none;"/>
	<path d="M 492.0,194.0 L 493.0,195.0" style="stroke:#080108; fill:none;"/>
	<path d="M 501.0,197.0 L 503.0,199.0" style="stroke:#080108; fill:none;"/>
	<path d="M 506.0,203.0 L 509.0,207.0" style="stroke:#080108; fill:none;"/>
	<path d="M 511.0,209.0 L 513.0,209.0" style="stroke:#080108; fill:none;"/>
	<path d="M 518.0,216.0 L 521.0,220.0" style="stroke:#080108; fill:none;"/>
	<path d="M 523.0,221.0 L 529.0,228.0" style="stroke:#080108; fill:none;"/>
	<path d="M 234.0,232.0 L 234.0,233.0" style="stroke:#080108; fill:none;"/>
	<path d="M 534.0,235.0 L 536.0,239.0" style="stroke:#080108; fill:none;"/>
	<path d="M 224.0,241.0 L 222.0,243.0" style="stroke:#080108; fill:none;"/>
	<path d="M 485.0,245.0 L 495.0,246.0" style="stroke:#080108; fill:none;"/>
	<path d="M 479.0,246.0 L 480.0,246.0" style="stroke:#080108; fill:none;"/>
	<path d="M 482.0,246.0 L 483.0,246.0" style="stroke:#080108; fill:none;"/>
	<path d="M 472.0,249.0 L 473.0,249.0" style="stroke:#080108; fill:none;"/>
	<path d="M 546.0,249.0 L 547.0,252.0" style="stroke:#080108; fill:none;"/>
	<path d="M 469.0,252.0 L 469.0,255.0" style="stroke:#080108; fill:none;"/>
	<path d="M 467.0,253.0 L 468.0,253.0" style="stroke:#080108; fill:none;"/>
	<path d="M 465.0,256.0 L 466.0,256.0" style="stroke:#080108; fill:none;"/>
	<path d="M 460.0,260.0 L 463.0,258.0" style="stroke:#080108; fill:none;"/>
	<path d="M 196.0,260.0 L 199.0,259.0" style="stroke:#080108; fill:none;"/>
	<path d="M 557.0,265.0 L 559.0,268.0" style="stroke:#080108; fill:none;"/>
	<path d="M 458.0,268.0 L 454.0,270.0" style="stroke:#080108; fill:none;"/>
	<path d="M 452.0,270.0 L 437.0,283.0" style="stroke:#080108; fill:none;"/>
	<path d="M 561.0,270.0 L 567.0,277.0" style="stroke:#080108; fill:none;"/>
	<path d="M 170.0,277.0 L 176.0,271.0" style="stroke:#080108; fill:none;"/>
	<path d="M 496.0,278.0 L 496.0,280.0" style="stroke:#080108; fill:none;"/>
	<path d="M 566.0,279.0 L 570.0,284.0" style="stroke:#080108; fill:none;"/>
	<path d="M 168.0,280.0 L 169.0,280.0" style="stroke:#080108; fill:none;"/>
	<path d="M 495.0,283.0 L 499.0,283.0" style="stroke:#080108; fill:none;"/>
	<path d="M 486.0,286.0 L 491.0,284.0" style="stroke:#080108; fill:none;"/>
	<path d="M 506.0,284.0 L 507.0,284.0" style="stroke:#080108; fill:none;"/>
	<path d="M 164.0,285.0 L 164.0,287.0" style="stroke:#080108; fill:none;"/>
	<path d="M 434.0,286.0 L 434.0,287.0" style="stroke:#080108; fill:none;"/>
	<path d="M 481.0,286.0 L 484.0,286.0" style="stroke:#080108; fill:none;"/>
	<path d="M 511.0,286.0 L 509.0,288.0" style="stroke:#080108; fill:none;"/>
	<path d="M 475.0,288.0 L 475.0,289.0" style="stroke:#080108; fill:none;"/>
	<path d="M 161.0,289.0 L 162.0,289.0" style="stroke:#080108; fill:none;"/>
	<path d="M 468.0,289.0 L 468.0,291.0" style="stroke:#080108; fill:none;"/>
	<path d="M 519.0,289.0 L 519.0,290.0" style="stroke:#080108; fill:none;"/>
	<path d="M 433.0,291.0 L 435.0,291.0" style="stroke:#080108; fill:none;"/>
	<path d="M 161.0,292.0 L 159.0,296.0" style="stroke:#080108; fill:none;"/>
	<path d="M 464.0,293.0 L 466.0,292.0" style="stroke:#080108; fill:none;"/>
	<path d="M 519.0,294.0 L 518.0,297.0" style="stroke:#080108; fill:none;"/>
	<path d="M 521.0,295.0 L 523.0,294.0" style="stroke:#080108; fill:none;"/>
	<path d="M 429.0,296.0 L 431.0,296.0" style="stroke:#080108; fill:none;"/>
	<path d="M 511.0,296.0 L 512.0,296.0" style="stroke:#080108; fill:none;"/>
	<path d="M 185.0,297.0 L 185.0,298.0" style="stroke:#080108; fill:none;"/>
	<path d="M 485.0,297.0 L 482.0,298.0" style="stroke:#080108; fill:none;"/>
	<path d="M 497.0,297.0 L 499.0,297.0" style="stroke:#080108; fill:none;"/>
	<path d="M 468.0,298.0 L 468.0,299.0" style="stroke:#080108; fill:none;"/>
	<path d="M 490.0,299.0 L 495.0,303.0" style="stroke:#080108; fill:none;"/>
	<path d="M 507.0,298.0 L 506.0,301.0 L 504.0,301.0" style="stroke:#080108; fill:none;"/>
	<path d="M 513.0,299.0 L 516.0,298.0" style="stroke:#080108; fill:none;"/>
	<path d="M 455.0,299.0 L 455.0,300.0" style="stroke:#080108; fill:none;"/>
	<path d="M 473.0,301.0 L 479.0,299.0" style="stroke:#080108; fill:none;"/>
	<path d="M 156.0,300.0 L 155.0,303.0" style="stroke:#080108; fill:none;"/>
	<path d="M 494.0,300.0 C 491.17,301.94 489.945,302.889 487.0,301.0 L 486.0,301.0 L 485.0,301.0" style="stroke:#080108; fill:none;"/>
	<path d="M 500.0,301.0 L 503.0,300.0" style="stroke:#080108; fill:none;"/>
	<path d="M 481.0,302.0 L 486.0,308.0" style="stroke:#080108; fill:none;"/>
	<path d="M 503.0,303.0 L 504.0,303.0" style="stroke:#080108; fill:none;"/>
	<path d="M 426.0,304.0 L 426.0,305.0" style="stroke:#080108; fill:none;"/>
	<path d="M 469.0,304.0 L 471.0,307.0 L 466.0,306.0" style="stroke:#080108; fill:none;"/>
	<path d="M 471.0,307.0 L 482.0,305.0" style="stroke:#080108; fill:none;"/>
	<path d="M 583.0,307.0 L 583.0,309.0" style="stroke:#080108; fill:none;"/>
	<path d="M 152.0,308.0 L 152.0,310.0" style="stroke:#080108; fill:none;"/>
	<path d="M 424.0,308.0 L 423.0,309.0" style="stroke:#080108; fill:none;"/>
	<path d="M 462.0,308.0 L 461.0,311.0" style="stroke:#080108; fill:none;"/>
	<path d="M 513.0,309.0 L 514.0,311.0" style="stroke:#080108; fill:none;"/>
	<path d="M 444.0,312.0 L 445.0,312.0" style="stroke:#080108; fill:none;"/>
	<path d="M 585.0,312.0 L 585.0,315.0" style="stroke:#080108; fill:none;"/>
	<path d="M 462.0,315.0 L 465.0,314.0" style="stroke:#080108; fill:none;"/>
	<path d="M 488.0,313.0 L 490.0,321.0" style="stroke:#080108; fill:none;"/>
	<path d="M 457.0,314.0 L 458.0,316.0" style="stroke:#080108; fill:none;"/>
	<path d="M 508.0,314.0 L 506.0,318.0" style="stroke:#080108; fill:none;"/>
	<path d="M 512.0,315.0 L 512.0,316.0" style="stroke:#080108; fill:none;"/>
	<path d="M 464.0,316.0 L 464.0,317.0" style="stroke:#080108; fill:none;"/>
	<path d="M 441.0,318.0 L 441.0,319.0" style="stroke:#080108; fill:none;"/>
	<path d="M 453.0,319.0 L 448.0,323.0 L 447.0,322.0" style="stroke:#080108; fill:none;"/>
	<path d="M 588.0,319.0 L 587.0,320.0" style="stroke:#080108; fill:none;"/>
	<path d="M 457.0,320.0 L 456.0,321.0" style="stroke:#080108; fill:none;"/>
	<path d="M 462.0,321.0 L 463.0,322.0" style="stroke:#080108; fill:none;"/>
	<path d="M 477.0,321.0 L 477.0,322.0" style="stroke:#080108; fill:none;"/>
	<path d="M 439.0,325.0 L 440.0,325.0" style="stroke:#080108; fill:none;"/>
	<path d="M 467.0,327.0 L 469.0,327.0" style="stroke:#080108; fill:none;"/>
	<path d="M 438.0,329.0 L 440.0,331.0" style="stroke:#080108; fill:none;"/>
	<path d="M 454.0,330.0 L 455.0,330.0" style="stroke:#080108; fill:none;"/>
	<path d="M 484.0,331.0 L 484.0,332.0" style="stroke:#080108; fill:none;"/>
	<path d="M 456.0,332.0 L 457.0,334.0" style="stroke:#080108; fill:none;"/>
	<path d="M 482.0,333.0 L 482.0,334.0" style="stroke:#080108; fill:none;"/>
	<path d="M 479.0,335.0 L 479.0,336.0" style="stroke:#080108; fill:none;"/>
	<path d="M 447.0,337.0 L 448.0,337.0" style="stroke:#080108; fill:none;"/>
	<path d="M 447.0,342.0 L 446.0,345.0" style="stroke:#080108; fill:none;"/>
	<path d="M 470.0,346.0 L 472.0,346.0" style="stroke:#080108; fill:none;"/>
	<path d="M 445.0,348.0 L 445.0,349.0" style="stroke:#080108; fill:none;"/>
	<path d="M 452.0,355.0 L 453.0,355.0" style="stroke:#080108; fill:none;"/>
	<path d="M 443.0,358.0 L 443.0,360.0" style="stroke:#080108; fill:none;"/>
	<path d="M 446.0,361.0 L 445.0,362.0" style="stroke:#080108; fill:none;"/>
	<path d="M 604.0,361.0 L 605.0,363.0" style="stroke:#080108; fill:none;"/>
	<path d="M 159.0,364.0 L 159.0,366.0" style="stroke:#080108; fill:none;"/>
	<path d="M 614.0,384.0 L 615.0,385.0" style="stroke:#080108; fill:none;"/>
	<path d="M 616.0,387.0 L 618.0,391.0" style="stroke:#080108; fill:none;"/>
	<path d="M 287.0,396.0 L 288.0,396.0" style="stroke:#080108; fill:none;"/>
	<path d="M 170.0,397.0 L 170.0,398.0" style="stroke:#080108; fill:none;"/>
	<path d="M 325.0,400.0 L 327.0,400.0" style="stroke:#080108; fill:none;"/>
	<path d="M 623.0,400.0 L 624.0,401.0" style="stroke:#080108; fill:none;"/>
	<path d="M 320.0,401.0 L 321.0,401.0" style="stroke:#080108; fill:none;"/>
	<path d="M 350.0,401.0 L 351.0,401.0" style="stroke:#080108; fill:none;"/>
	<path d="M 171.0,402.0 L 170.0,403.0" style="stroke:#080108; fill:none;"/>
	<path d="M 256.0,404.0 L 255.0,406.0" style="stroke:#080108; fill:none;"/>
	<path d="M 269.0,404.0 L 270.0,404.0" style="stroke:#080108; fill:none;"/>
	<path d="M 171.0,406.0 L 172.0,406.0" style="stroke:#080108; fill:none;"/>
	<path d="M 301.0,406.0 L 301.0,407.0" style="stroke:#080108; fill:none;"/>
	<path d="M 250.0,407.0 L 251.0,407.0" style="stroke:#080108; fill:none;"/>
	<path d="M 172.0,408.0 L 172.0,410.0" style="stroke:#080108; fill:none;"/>
	<path d="M 245.0,409.0 L 246.0,411.0" style="stroke:#080108; fill:none;"/>
	<path d="M 254.0,410.0 L 254.0,411.0" style="stroke:#080108; fill:none;"/>
	<path d="M 342.0,411.0 L 345.0,411.0" style="stroke:#080108; fill:none;"/>
	<path d="M 626.0,411.0 L 627.0,411.0" style="stroke:#080108; fill:none;"/>
	<path d="M 294.0,412.0 L 295.0,412.0" style="stroke:#080108; fill:none;"/>
	<path d="M 322.0,412.0 L 324.0,414.0" style="stroke:#080108; fill:none;"/>
	<path d="M 330.0,412.0 L 331.0,412.0" style="stroke:#080108; fill:none;"/>
	<path d="M 352.0,412.0 L 354.0,412.0" style="stroke:#080108; fill:none;"/>
	<path d="M 250.0,414.0 L 252.0,413.0" style="stroke:#080108; fill:none;"/>
	<path d="M 312.0,414.0 L 313.0,414.0" style="stroke:#080108; fill:none;"/>
	<path d="M 174.0,415.0 L 174.0,419.0" style="stroke:#080108; fill:none;"/>
	<path d="M 292.0,415.0 L 293.0,415.0" style="stroke:#080108; fill:none;"/>
	<path d="M 300.0,415.0 L 301.0,415.0" style="stroke:#080108; fill:none;"/>
	<path d="M 367.0,415.0 L 367.0,416.0" style="stroke:#080108; fill:none;"/>
	<path d="M 307.0,421.0 L 309.0,416.0" style="stroke:#080108; fill:none;"/>
	<path d="M 314.0,417.0 L 316.0,416.0" style="stroke:#080108; fill:none;"/>
	<path d="M 361.0,418.0 L 362.0,418.0" style="stroke:#080108; fill:none;"/>
	<path d="M 310.0,419.0 L 310.0,420.0" style="stroke:#080108; fill:none;"/>
	<path d="M 332.0,421.0 L 332.0,422.0" style="stroke:#080108; fill:none;"/>
	<path d="M 237.0,422.0 L 239.0,424.0" style="stroke:#080108; fill:none;"/>
	<path d="M 282.0,424.0 L 284.0,425.0" style="stroke:#080108; fill:none;"/>
	<path d="M 296.0,424.0 L 295.0,425.0" style="stroke:#080108; fill:none;"/>
	<path d="M 311.0,424.0 L 311.0,425.0" style="stroke:#080108; fill:none;"/>
	<path d="M 175.0,425.0 L 177.0,427.0" style="stroke:#080108; fill:none;"/>
	<path d="M 303.0,425.0 L 299.0,428.0" style="stroke:#080108; fill:none;"/>
	<path d="M 319.0,426.0 L 321.0,428.0" style="stroke:#080108; fill:none;"/>
	<path d="M 334.0,426.0 L 335.0,429.0" style="stroke:#080108; fill:none;"/>
	<path d="M 359.0,427.0 L 360.0,427.0" style="stroke:#080108; fill:none;"/>
	<path d="M 632.0,427.0 L 633.0,427.0" style="stroke:#080108; fill:none;"/>
	<path d="M 289.0,428.0 L 294.0,429.0" style="stroke:#080108; fill:none;"/>
	<path d="M 296.0,429.0 L 297.0,429.0" style="stroke:#080108; fill:none;"/>
	<path d="M 634.0,429.0 L 633.0,430.0" style="stroke:#080108; fill:none;"/>
	<path d="M 233.0,430.0 L 234.0,430.0" style="stroke:#080108; fill:none;"/>
	<path d="M 277.0,430.0 L 278.0,432.0" style="stroke:#080108; fill:none;"/>
	<path d="M 307.0,430.0 L 307.0,431.0" style="stroke:#080108; fill:none;"/>
	<path d="M 287.0,431.0 L 287.0,432.0" style="stroke:#080108; fill:none;"/>
	<path d="M 276.0,434.0 L 277.0,434.0" style="stroke:#080108; fill:none;"/>
	<path d="M 290.0,435.0 L 285.0,437.0" style="stroke:#080108; fill:none;"/>
	<path d="M 294.0,436.0 L 293.0,437.0" style="stroke:#080108; fill:none;"/>
	<path d="M 184.0,437.0 L 184.0,438.0" style="stroke:#080108; fill:none;"/>
	<path d="M 230.0,437.0 L 230.0,438.0" style="stroke:#080108; fill:none;"/>
	<path d="M 311.0,438.0 L 315.0,439.0" style="stroke:#080108; fill:none;"/>
	<path d="M 298.0,440.0 L 298.0,441.0" style="stroke:#080108; fill:none;"/>
	<path d="M 186.0,443.0 L 187.0,443.0" style="stroke:#080108; fill:none;"/>
	<path d="M 284.0,443.0 L 283.0,445.0" style="stroke:#080108; fill:none;"/>
	<path d="M 288.0,443.0 L 291.0,443.0" style="stroke:#080108; fill:none;"/>
	<path d="M 271.0,444.0 L 275.0,444.0" style="stroke:#080108; fill:none;"/>
	<path d="M 280.0,444.0 L 279.0,445.0" style="stroke:#080108; fill:none;"/>
	<path d="M 328.0,445.0 L 327.0,446.0" style="stroke:#080108; fill:none;"/>
	<path d="M 188.0,447.0 L 188.0,448.0" style="stroke:#080108; fill:none;"/>
	<path d="M 279.0,447.0 L 279.0,448.0" style="stroke:#080108; fill:none;"/>
	<path d="M 281.0,447.0 L 283.0,447.0" style="stroke:#080108; fill:none;"/>
	<path d="M 268.0,449.0 L 268.0,450.0" style="stroke:#080108; fill:none;"/>
	<path d="M 320.0,450.0 L 320.0,451.0" style="stroke:#080108; fill:none;"/>
	<path d="M 191.0,453.0 L 193.0,452.0" style="stroke:#080108; fill:none;"/>
	<path d="M 640.0,453.0 L 640.0,454.0" style="stroke:#080108; fill:none;"/>
	<path d="M 274.0,455.0 L 275.0,455.0" style="stroke:#080108; fill:none;"/>
	<path d="M 287.0,456.0 L 286.0,458.0" style="stroke:#080108; fill:none;"/>
	<path d="M 194.0,457.0 L 194.0,458.0" style="stroke:#080108; fill:none;"/>
	<path d="M 517.0,458.0 L 518.0,458.0" style="stroke:#080108; fill:none;"/>
	<path d="M 641.0,463.0 L 642.0,464.0" style="stroke:#080108; fill:none;"/>
	<path d="M 197.0,464.0 L 198.0,464.0" style="stroke:#080108; fill:none;"/>
	<path d="M 294.0,466.0 L 295.0,466.0" style="stroke:#080108; fill:none;"/>
	<path d="M 642.0,470.0 L 642.0,471.0" style="stroke:#080108; fill:none;"/>
	<path d="M 643.0,473.0 L 644.0,476.0" style="stroke:#080108; fill:none;"/>
	<path d="M 205.0,477.0 L 205.0,478.0" style="stroke:#080108; fill:none;"/>
	<path d="M 207.0,482.0 L 207.0,484.0" style="stroke:#080108; fill:none;"/>
	<path d="M 645.0,494.0 L 645.0,495.0" style="stroke:#080108; fill:none;"/>
	<path d="M 215.0,496.0 L 220.0,504.0" style="stroke:#080108; fill:none;"/>
	<path d="M 226.0,510.0 L 228.0,515.0" style="stroke:#080108; fill:none;"/>
	<path d="M 473.0,510.0 L 474.0,510.0" style="stroke:#080108; fill:none;"/>
	<path d="M 433.0,514.0 L 436.0,516.0" style="stroke:#080108; fill:none;"/>
	<path d="M 558.0,515.0 L 559.0,515.0" style="stroke:#080108; fill:none;"/>
	<path d="M 555.0,517.0 L 556.0,517.0" style="stroke:#080108; fill:none;"/>
	<path d="M 550.0,519.0 L 550.0,521.0" style="stroke:#080108; fill:none;"/>
	<path d="M 450.0,520.0 L 449.0,521.0" style="stroke:#080108; fill:none;"/>
	<path d="M 543.0,525.0 L 544.0,525.0" style="stroke:#080108; fill:none;"/>
	<path d="M 554.0,528.0 L 555.0,528.0" style="stroke:#080108; fill:none;"/>
	<path d="M 539.0,532.0 L 538.0,533.0" style="stroke:#080108; fill:none;"/>
	<path d="M 543.0,536.0 L 545.0,535.0" style="stroke:#080108; fill:none;"/>
	<path d="M 573.0,538.0 L 573.0,539.0" style="stroke:#080108; fill:none;"/>
	<path d="M 540.0,539.0 L 539.0,541.0" style="stroke:#080108; fill:none;"/>
	<path d="M 252.0,541.0 L 256.0,544.0" style="stroke:#080108; fill:none;"/>
	<path d="M 259.0,547.0 L 262.0,548.0" style="stroke:#080108; fill:none;"/>
	<path d="M 264.0,548.0 L 265.0,549.0" style="stroke:#080108; fill:none;"/>
	<path d="M 521.0,551.0 L 523.0,551.0" style="stroke:#080108; fill:none;"/>
	<path d="M 272.0,555.0 L 274.0,555.0" style="stroke:#080108; fill:none;"/>
	<path d="M 280.0,562.0 L 286.0,567.0 L 284.0,568.0" style="stroke:#080108; fill:none;"/>
	<path d="M 498.0,562.0 L 498.0,565.0" style="stroke:#080108; fill:none;"/>
	<path d="M 561.0,565.0 L 561.0,566.0" style="stroke:#080108; fill:none;"/>
	<path d="M 500.0,568.0 L 501.0,569.0" style="stroke:#080108; fill:none;"/>
	<path d="M 280.0,569.0 L 285.0,573.0" style="stroke:#080108; fill:none;"/>
	<path d="M 288.0,569.0 L 289.0,569.0" style="stroke:#080108; fill:none;"/>
	<path d="M 494.0,572.0 L 494.0,573.0" style="stroke:#080108; fill:none;"/>
	<path d="M 554.0,572.0 L 553.0,573.0" style="stroke:#080108; fill:none;"/>
	<path d="M 484.0,574.0 L 487.0,574.0" style="stroke:#080108; fill:none;"/>
	<path d="M 294.0,575.0 L 296.0,576.0" style="stroke:#080108; fill:none;"/>
	<path d="M 642.0,580.0 L 642.0,581.0" style="stroke:#080108; fill:none;"/>
	<path d="M 301.0,582.0 L 303.0,582.0" style="stroke:#080108; fill:none;"/>
	<path d="M 472.0,584.0 L 474.0,584.0" style="stroke:#080108; fill:none;"/>
	<path d="M 304.0,585.0 L 309.0,590.0" style="stroke:#080108; fill:none;"/>
	<path d="M 642.0,588.0 L 643.0,590.0" style="stroke:#080108; fill:none;"/>
	<path d="M 312.0,592.0 L 314.0,594.0" style="stroke:#080108; fill:none;"/>
	<path d="M 316.0,596.0 L 324.0,604.0" style="stroke:#080108; fill:none;"/>
	<path d="M 640.0,604.0 L 640.0,605.0" style="stroke:#080108; fill:none;"/>
	<path d="M 638.0,606.0 L 638.0,608.0" style="stroke:#080108; fill:none;"/>
	<path d="M 335.0,613.0 L 340.0,618.0" style="stroke:#080108; fill:none;"/>
	<path d="M 635.0,614.0 L 636.0,614.0" style="stroke:#080108; fill:none;"/>
	<path d="M 634.0,620.0 L 634.0,621.0" style="stroke:#080108; fill:none;"/>
	<path d="M 634.0,629.0 L 634.0,630.0" style="stroke:#080108; fill:none;"/>
	<path d="M 626.0,631.0 L 627.0,631.0" style="stroke:#080108; fill:none;"/>
	<path d="M 624.0,632.0 L 622.0,636.0" style="stroke:#080108; fill:none;"/>
	<path d="M 373.0,641.0 L 375.0,642.0" style="stroke:#080108; fill:none;"/>
	<path d="M 613.0,642.0 L 613.0,643.0" style="stroke:#080108; fill:none;"/>
	<path d="M 380.0,645.0 L 381.0,645.0" style="stroke:#080108; fill:none;"/>
	<path d="M 609.0,645.0 L 611.0,645.0" style="stroke:#080108; fill:none;"/>
	<path d="M 606.0,646.0 L 606.0,647.0" style="stroke:#080108; fill:none;"/>
	<path d="M 387.0,647.0 L 389.0,651.0" style="stroke:#080108; fill:none;"/>
	<path d="M 603.0,648.0 L 603.0,650.0" style="stroke:#080108; fill:none;"/>
	<path d="M 599.0,653.0 L 597.0,655.0" style="stroke:#080108; fill:none;"/>
	<path d="M 399.0,655.0 L 399.0,656.0" style="stroke:#080108; fill:none;"/>
	<path d="M 594.0,656.0 L 594.0,658.0 L 594.0,656.0" style="stroke:#080108; fill:none;"/>
	<path d="M 408.0,659.0 L 410.0,661.0" style="stroke:#080108; fill:none;"/>
	<path d="M 413.0,660.0 L 423.0,664.0" style="stroke:#080108; fill:none;"/>
	<path d="M 588.0,660.0 L 590.0,661.0" style="stroke:#080108; fill:none;"/>
	<path d="M 585.0,662.0 L 585.0,663.0" style="stroke:#080108; fill:none;"/>
	<path d="M 582.0,664.0 L 582.0,665.0" style="stroke:#080108; fill:none;"/>
	<path d="M 426.0,665.0 L 429.0,665.0" style="stroke:#080108; fill:none;"/>
	<path d="M 431.0,665.0 L 432.0,665.0" style="stroke:#080108; fill:none;"/>
	<path d="M 435.0,666.0 L 436.0,666.0" style="stroke:#080108; fill:none;"/>
	<path d="M 442.0,667.0 L 441.0,668.0" style="stroke:#080108; fill:none;"/>
	<path d="M 574.0,668.0 L 578.0,667.0" style="stroke:#080108; fill:none;"/>
	<path d="M 446.0,669.0 L 448.0,669.0" style="stroke:#080108; fill:none;"/>
	<path d="M 453.0,671.0 L 457.0,670.0" style="stroke:#080108; fill:none;"/>
	<path d="M 569.0,672.0 L 571.0,671.0" style="stroke:#080108; fill:none;"/>
	<path d="M 470.0,673.0 L 472.0,674.0" style="stroke:#080108; fill:none;"/>
	<path d="M 477.0,675.0 L 480.0,676.0" style="stroke:#080108; fill:none;"/>
	<path d="M 561.0,677.0 L 565.0,675.0" style="stroke:#080108; fill:none;"/>
	<path d="M 482.0,676.0 L 483.0,677.0" style="stroke:#080108; fill:none;"/>
	<path d="M 497.0,679.0 L 502.0,680.0" style="stroke:#080108; fill:none;"/>
	<path d="M 558.0,678.0 L 558.0,679.0" style="stroke:#080108; fill:none;"/>
	<path d="M 554.0,680.0 L 552.0,681.0" style="stroke:#080108; fill:none;"/>
	<path d="M 510.0,681.0 L 522.0,682.0" style="stroke:#080108; fill:none;"/>
	<path d="M 536.0,681.0 L 540.0,683.0" style="stroke:#080108; fill:none;"/>
	<path d="M 544.0,682.0 L 549.0,682.0" style="stroke:#080108; fill:none;"/>
	<path d="M 525.0,683.0 L 528.0,683.0" style="stroke:#080108; fill:none;"/>
</svg>
