<?xml version="1.0" ?>
<svg baseProfile="full" height="846" version="1.1" width="909" xmlns="http://www.w3.org/2000/svg" xmlns:ev="http://www.w3.org/2001/xml-events" xmlns:xlink="http://www.w3.org/1999/xlink">
	<defs/>
	<path d="M 630.0,5.0 L 630.0,6.0" style="stroke:#060106; fill:none;"/>
	<path d="M 584.0,8.0 L 583.0,9.0" style="stroke:#060106; fill:none;"/>
	<path d="M 631.0,10.0 L 633.0,11.0" style="stroke:#060106; fill:none;"/>
	<path d="M 582.0,13.0 L 583.0,13.0" style="stroke:#060106; fill:none;"/>
	<path d="M 635.0,15.0 L 636.0,17.0" style="stroke:#060106; fill:none;"/>
	<path d="M 510.0,16.0 L 511.0,16.0" style="stroke:#060106; fill:none;"/>
	<path d="M 520.0,16.0 L 522.0,16.0" style="stroke:#060106; fill:none;"/>
	<path d="M 537.0,17.0 L 541.0,18.0" style="stroke:#060106; fill:none;"/>
	<path d="M 492.0,18.0 L 495.0,19.0" style="stroke:#060106; fill:none;"/>
	<path d="M 498.0,18.0 L 498.0,19.0" style="stroke:#060106; fill:none;"/>
	<path d="M 505.0,18.0 L 506.0,18.0" style="stroke:#060106; fill:none;"/>
	<path d="M 527.0,18.0 L 528.0,18.0" style="stroke:#060106; fill:none;"/>
	<path d="M 544.0,19.0 L 545.0,22.0" style="stroke:#060106; fill:none;"/>
	<path d="M 637.0,19.0 L 637.0,20.0" style="stroke:#060106; fill:none;"/>
	<path d="M 534.0,20.0 L 535.0,20.0" style="stroke:#060106; fill:none;"/>
	<path d="M 547.0,20.0 L 550.0,23.0" style="stroke:#060106; fill:none;"/>
	<path d="M 574.0,20.0 L 574.0,21.0" style="stroke:#060106; fill:none;"/>
	<path d="M 579.0,20.0 L 578.0,21.0" style="stroke:#060106; fill:none;"/>
	<path d="M 538.0,21.0 L 539.0,22.0" style="stroke:#060106; fill:none;"/>
	<path d="M 624.0,21.0 L 624.0,22.0" style="stroke:#060106; fill:none;"/>
	<path d="M 455.0,24.0 L 459.0,23.0" style="stroke:#060106; fill:none;"/>
	<path d="M 639.0,23.0 L 642.0,26.0" style="stroke:#060106; fill:none;"/>
	<path d="M 442.0,25.0 L 451.0,24.0" style="stroke:#060106; fill:none;"/>
	<path d="M 574.0,25.0 L 573.0,28.0" style="stroke:#060106; fill:none;"/>
	<path d="M 552.0,26.0 L 554.0,28.0" style="stroke:#060106; fill:none;"/>
	<path d="M 627.0,26.0 L 630.0,30.0" style="stroke:#060106; fill:none;"/>
	<path d="M 437.0,28.0 L 436.0,29.0" style="stroke:#060106; fill:none;"/>
	<path d="M 603.0,31.0 L 601.0,35.0" style="stroke:#060106; fill:none;"/>
	<path d="M 643.0,31.0 L 644.0,31.0" style="stroke:#060106; fill:none;"/>
	<path d="M 571.0,32.0 L 571.0,33.0" style="stroke:#060106; fill:none;"/>
	<path d="M 537.0,33.0 L 537.0,34.0" style="stroke:#060106; fill:none;"/>
	<path d="M 423.0,34.0 L 424.0,34.0" style="stroke:#060106; fill:none;"/>
	<path d="M 631.0,34.0 L 631.0,37.0" style="stroke:#060106; fill:none;"/>
	<path d="M 414.0,36.0 L 411.0,38.0" style="stroke:#060106; fill:none;"/>
	<path d="M 562.0,37.0 L 563.0,38.0" style="stroke:#060106; fill:none;"/>
	<path d="M 648.0,39.0 L 650.0,40.0" style="stroke:#060106; fill:none;"/>
	<path d="M 399.0,41.0 L 404.0,41.0" style="stroke:#060106; fill:none;"/>
	<path d="M 599.0,41.0 L 598.0,42.0" style="stroke:#060106; fill:none;"/>
	<path d="M 396.0,43.0 L 388.0,46.0" style="stroke:#060106; fill:none;"/>
	<path d="M 595.0,47.0 L 597.0,46.0" style="stroke:#060106; fill:none;"/>
	<path d="M 651.0,46.0 L 651.0,47.0" style="stroke:#060106; fill:none;"/>
	<path d="M 381.0,48.0 L 384.0,47.0" style="stroke:#060106; fill:none;"/>
	<path d="M 365.0,49.0 L 368.0,49.0" style="stroke:#060106; fill:none;"/>
	<path d="M 652.0,49.0 L 653.0,49.0" style="stroke:#060106; fill:none;"/>
	<path d="M 356.0,51.0 L 358.0,51.0" style="stroke:#060106; fill:none;"/>
	<path d="M 636.0,51.0 L 637.0,51.0" style="stroke:#060106; fill:none;"/>
	<path d="M 347.0,53.0 L 347.0,54.0" style="stroke:#060106; fill:none;"/>
	<path d="M 654.0,54.0 L 656.0,55.0" style="stroke:#060106; fill:none;"/>
	<path d="M 595.0,56.0 L 594.0,59.0" style="stroke:#060106; fill:none;"/>
	<path d="M 638.0,56.0 L 638.0,58.0" style="stroke:#060106; fill:none;"/>
	<path d="M 624.0,58.0 L 623.0,60.0" style="stroke:#060106; fill:none;"/>
	<path d="M 657.0,64.0 L 658.0,64.0" style="stroke:#060106; fill:none;"/>
	<path d="M 322.0,66.0 L 322.0,67.0" style="stroke:#060106; fill:none;"/>
	<path d="M 315.0,71.0 L 316.0,71.0" style="stroke:#060106; fill:none;"/>
	<path d="M 632.0,71.0 L 633.0,71.0" style="stroke:#060106; fill:none;"/>
	<path d="M 643.0,71.0 L 643.0,73.0" style="stroke:#060106; fill:none;"/>
	<path d="M 594.0,73.0 L 593.0,74.0" style="stroke:#060106; fill:none;"/>
	<path d="M 635.0,73.0 L 635.0,74.0" style="stroke:#060106; fill:none;"/>
	<path d="M 644.0,77.0 L 645.0,77.0" style="stroke:#060106; fill:none;"/>
	<path d="M 660.0,77.0 L 659.0,79.0" style="stroke:#060106; fill:none;"/>
	<path d="M 594.0,78.0 L 594.0,80.0" style="stroke:#060106; fill:none;"/>
	<path d="M 301.0,79.0 L 300.0,80.0" style="stroke:#060106; fill:none;"/>
	<path d="M 291.0,82.0 L 294.0,83.0" style="stroke:#060106; fill:none;"/>
	<path d="M 596.0,82.0 L 598.0,87.0" style="stroke:#060106; fill:none;"/>
	<path d="M 640.0,82.0 L 642.0,86.0" style="stroke:#060106; fill:none;"/>
	<path d="M 647.0,84.0 L 647.0,85.0" style="stroke:#060106; fill:none;"/>
	<path d="M 285.0,85.0 L 286.0,85.0" style="stroke:#060106; fill:none;"/>
	<path d="M 283.0,87.0 L 279.0,89.0" style="stroke:#060106; fill:none;"/>
	<path d="M 270.0,91.0 L 273.0,91.0" style="stroke:#060106; fill:none;"/>
	<path d="M 606.0,92.0 L 611.0,97.0" style="stroke:#060106; fill:none;"/>
	<path d="M 400.0,93.0 L 401.0,93.0" style="stroke:#060106; fill:none;"/>
	<path d="M 430.0,93.0 L 432.0,93.0" style="stroke:#060106; fill:none;"/>
	<path d="M 402.0,97.0 L 403.0,97.0" style="stroke:#060106; fill:none;"/>
	<path d="M 661.0,97.0 L 661.0,98.0" style="stroke:#060106; fill:none;"/>
	<path d="M 613.0,98.0 L 615.0,99.0" style="stroke:#060106; fill:none;"/>
	<path d="M 648.0,99.0 L 649.0,99.0" style="stroke:#060106; fill:none;"/>
	<path d="M 429.0,101.0 L 428.0,102.0" style="stroke:#060106; fill:none;"/>
	<path d="M 434.0,101.0 L 435.0,101.0" style="stroke:#060106; fill:none;"/>
	<path d="M 410.0,102.0 L 410.0,103.0" style="stroke:#060106; fill:none;"/>
	<path d="M 414.0,103.0 L 417.0,103.0" style="stroke:#060106; fill:none;"/>
	<path d="M 433.0,103.0 L 433.0,104.0" style="stroke:#060106; fill:none;"/>
	<path d="M 650.0,104.0 L 651.0,104.0" style="stroke:#060106; fill:none;"/>
	<path d="M 621.0,105.0 L 623.0,107.0" style="stroke:#060106; fill:none;"/>
	<path d="M 397.0,107.0 L 400.0,108.0" style="stroke:#060106; fill:none;"/>
	<path d="M 429.0,107.0 L 432.0,107.0" style="stroke:#060106; fill:none;"/>
	<path d="M 434.0,107.0 L 434.0,108.0" style="stroke:#060106; fill:none;"/>
	<path d="M 403.0,108.0 L 406.0,108.0" style="stroke:#060106; fill:none;"/>
	<path d="M 438.0,108.0 L 438.0,109.0" style="stroke:#060106; fill:none;"/>
	<path d="M 409.0,109.0 L 431.0,114.0" style="stroke:#060106; fill:none;"/>
	<path d="M 626.0,109.0 L 628.0,111.0" style="stroke:#060106; fill:none;"/>
	<path d="M 455.0,110.0 L 456.0,111.0" style="stroke:#060106; fill:none;"/>
	<path d="M 410.0,111.0 L 411.0,111.0" style="stroke:#060106; fill:none;"/>
	<path d="M 427.0,111.0 L 426.0,112.0" style="stroke:#060106; fill:none;"/>
	<path d="M 430.0,111.0 L 435.0,112.0" style="stroke:#060106; fill:none;"/>
	<path d="M 446.0,111.0 L 446.0,112.0" style="stroke:#060106; fill:none;"/>
	<path d="M 653.0,111.0 L 657.0,116.0" style="stroke:#060106; fill:none;"/>
	<path d="M 438.0,112.0 L 444.0,113.0" style="stroke:#060106; fill:none;"/>
	<path d="M 448.0,112.0 L 449.0,112.0" style="stroke:#060106; fill:none;"/>
	<path d="M 389.0,114.0 L 391.0,115.0" style="stroke:#060106; fill:none;"/>
	<path d="M 433.0,114.0 L 434.0,114.0" style="stroke:#060106; fill:none;"/>
	<path d="M 633.0,114.0 L 634.0,115.0" style="stroke:#060106; fill:none;"/>
	<path d="M 486.0,115.0 L 487.0,116.0" style="stroke:#060106; fill:none;"/>
	<path d="M 408.0,116.0 L 408.0,117.0" style="stroke:#060106; fill:none;"/>
	<path d="M 436.0,116.0 L 438.0,117.0" style="stroke:#060106; fill:none;"/>
	<path d="M 449.0,116.0 L 451.0,116.0" style="stroke:#060106; fill:none;"/>
	<path d="M 402.0,117.0 L 403.0,117.0" style="stroke:#060106; fill:none;"/>
	<path d="M 410.0,117.0 L 418.0,119.0" style="stroke:#060106; fill:none;"/>
	<path d="M 638.0,118.0 L 644.0,123.0" style="stroke:#060106; fill:none;"/>
	<path d="M 422.0,119.0 L 423.0,120.0" style="stroke:#060106; fill:none;"/>
	<path d="M 657.0,119.0 L 659.0,120.0" style="stroke:#060106; fill:none;"/>
	<path d="M 425.0,120.0 L 425.0,121.0" style="stroke:#060106; fill:none;"/>
	<path d="M 446.0,120.0 L 447.0,120.0" style="stroke:#060106; fill:none;"/>
	<path d="M 475.0,120.0 L 475.0,121.0" style="stroke:#060106; fill:none;"/>
	<path d="M 390.0,122.0 L 391.0,122.0" style="stroke:#060106; fill:none;"/>
	<path d="M 395.0,122.0 L 398.0,122.0" style="stroke:#060106; fill:none;"/>
	<path d="M 408.0,122.0 L 411.0,122.0" style="stroke:#060106; fill:none;"/>
	<path d="M 432.0,123.0 L 435.0,123.0" style="stroke:#060106; fill:none;"/>
	<path d="M 424.0,123.0 L 424.0,124.0" style="stroke:#060106; fill:none;"/>
	<path d="M 664.0,123.0 L 664.0,124.0" style="stroke:#060106; fill:none;"/>
	<path d="M 416.0,126.0 L 418.0,126.0" style="stroke:#060106; fill:none;"/>
	<path d="M 663.0,127.0 L 662.0,128.0" style="stroke:#060106; fill:none;"/>
	<path d="M 649.0,130.0 L 651.0,129.0" style="stroke:#060106; fill:none;"/>
	<path d="M 414.0,130.0 L 415.0,132.0" style="stroke:#060106; fill:none;"/>
	<path d="M 419.0,130.0 L 420.0,130.0" style="stroke:#060106; fill:none;"/>
	<path d="M 663.0,130.0 L 665.0,130.0" style="stroke:#060106; fill:none;"/>
	<path d="M 407.0,131.0 L 407.0,132.0" style="stroke:#060106; fill:none;"/>
	<path d="M 409.0,132.0 L 411.0,131.0" style="stroke:#060106; fill:none;"/>
	<path d="M 396.0,134.0 L 403.0,134.0" style="stroke:#060106; fill:none;"/>
	<path d="M 653.0,133.0 L 660.0,137.0" style="stroke:#060106; fill:none;"/>
	<path d="M 394.0,135.0 L 393.0,136.0" style="stroke:#060106; fill:none;"/>
	<path d="M 410.0,135.0 L 413.0,137.0" style="stroke:#060106; fill:none;"/>
	<path d="M 669.0,138.0 L 669.0,139.0" style="stroke:#060106; fill:none;"/>
	<path d="M 407.0,140.0 L 407.0,141.0" style="stroke:#060106; fill:none;"/>
	<path d="M 398.0,146.0 L 405.0,143.0" style="stroke:#060106; fill:none;"/>
	<path d="M 460.0,146.0 L 461.0,146.0" style="stroke:#060106; fill:none;"/>
	<path d="M 467.0,147.0 L 468.0,147.0" style="stroke:#060106; fill:none;"/>
	<path d="M 363.0,149.0 L 363.0,150.0" style="stroke:#060106; fill:none;"/>
	<path d="M 676.0,149.0 L 679.0,151.0" style="stroke:#060106; fill:none;"/>
	<path d="M 374.0,154.0 L 375.0,154.0" style="stroke:#060106; fill:none;"/>
	<path d="M 537.0,154.0 L 536.0,155.0" style="stroke:#060106; fill:none;"/>
	<path d="M 684.0,156.0 L 685.0,157.0" style="stroke:#060106; fill:none;"/>
	<path d="M 498.0,157.0 L 498.0,158.0" style="stroke:#060106; fill:none;"/>
	<path d="M 493.0,159.0 L 495.0,160.0" style="stroke:#060106; fill:none;"/>
	<path d="M 490.0,160.0 L 491.0,160.0" style="stroke:#060106; fill:none;"/>
	<path d="M 500.0,160.0 L 503.0,162.0" style="stroke:#060106; fill:none;"/>
	<path d="M 487.0,163.0 L 488.0,163.0" style="stroke:#060106; fill:none;"/>
	<path d="M 527.0,163.0 L 525.0,165.0" style="stroke:#060106; fill:none;"/>
	<path d="M 692.0,164.0 L 694.0,165.0" style="stroke:#060106; fill:none;"/>
	<path d="M 491.0,165.0 L 492.0,165.0" style="stroke:#060106; fill:none;"/>
	<path d="M 364.0,166.0 L 365.0,166.0" style="stroke:#060106; fill:none;"/>
	<path d="M 450.0,166.0 L 451.0,166.0" style="stroke:#060106; fill:none;"/>
	<path d="M 498.0,166.0 L 499.0,166.0" style="stroke:#060106; fill:none;"/>
	<path d="M 446.0,167.0 L 448.0,167.0" style="stroke:#060106; fill:none;"/>
	<path d="M 361.0,171.0 L 361.0,172.0" style="stroke:#060106; fill:none;"/>
	<path d="M 700.0,171.0 L 705.0,172.0" style="stroke:#060106; fill:none;"/>
	<path d="M 483.0,173.0 L 485.0,172.0" style="stroke:#060106; fill:none;"/>
	<path d="M 707.0,172.0 L 708.0,172.0" style="stroke:#060106; fill:none;"/>
	<path d="M 479.0,173.0 L 479.0,174.0" style="stroke:#060106; fill:none;"/>
	<path d="M 431.0,174.0 L 432.0,174.0" style="stroke:#060106; fill:none;"/>
	<path d="M 461.0,175.0 L 466.0,176.0" style="stroke:#060106; fill:none;"/>
	<path d="M 471.0,175.0 L 472.0,175.0" style="stroke:#060106; fill:none;"/>
	<path d="M 457.0,176.0 L 457.0,177.0" style="stroke:#060106; fill:none;"/>
	<path d="M 706.0,179.0 L 708.0,180.0" style="stroke:#060106; fill:none;"/>
	<path d="M 355.0,180.0 L 355.0,181.0" style="stroke:#060106; fill:none;"/>
	<path d="M 416.0,182.0 L 415.0,183.0" style="stroke:#060106; fill:none;"/>
	<path d="M 457.0,182.0 L 458.0,182.0" style="stroke:#060106; fill:none;"/>
	<path d="M 332.0,183.0 L 331.0,184.0" style="stroke:#060106; fill:none;"/>
	<path d="M 442.0,183.0 L 443.0,183.0" style="stroke:#060106; fill:none;"/>
	<path d="M 438.0,184.0 L 439.0,184.0" style="stroke:#060106; fill:none;"/>
	<path d="M 447.0,184.0 L 446.0,185.0" style="stroke:#060106; fill:none;"/>
	<path d="M 450.0,184.0 L 458.0,189.0" style="stroke:#060106; fill:none;"/>
	<path d="M 436.0,185.0 L 436.0,186.0" style="stroke:#060106; fill:none;"/>
	<path d="M 408.0,187.0 L 410.0,186.0" style="stroke:#060106; fill:none;"/>
	<path d="M 428.0,187.0 L 430.0,186.0" style="stroke:#060106; fill:none;"/>
	<path d="M 478.0,189.0 L 479.0,190.0" style="stroke:#060106; fill:none;"/>
	<path d="M 422.0,191.0 L 423.0,191.0" style="stroke:#060106; fill:none;"/>
	<path d="M 432.0,193.0 L 431.0,194.0" style="stroke:#060106; fill:none;"/>
	<path d="M 719.0,193.0 L 719.0,194.0" style="stroke:#060106; fill:none;"/>
	<path d="M 721.0,195.0 L 721.0,196.0" style="stroke:#060106; fill:none;"/>
	<path d="M 420.0,198.0 L 420.0,200.0 L 420.0,198.0" style="stroke:#060106; fill:none;"/>
	<path d="M 427.0,198.0 L 427.0,199.0" style="stroke:#060106; fill:none;"/>
	<path d="M 461.0,198.0 L 461.0,199.0" style="stroke:#060106; fill:none;"/>
	<path d="M 474.0,198.0 L 474.0,200.0" style="stroke:#060106; fill:none;"/>
	<path d="M 424.0,201.0 L 423.0,202.0" style="stroke:#060106; fill:none;"/>
	<path d="M 724.0,202.0 L 725.0,203.0" style="stroke:#060106; fill:none;"/>
	<path d="M 415.0,203.0 L 414.0,205.0" style="stroke:#060106; fill:none;"/>
	<path d="M 441.0,203.0 L 441.0,205.0" style="stroke:#060106; fill:none;"/>
	<path d="M 471.0,204.0 L 471.0,205.0" style="stroke:#060106; fill:none;"/>
	<path d="M 431.0,205.0 L 431.0,206.0" style="stroke:#060106; fill:none;"/>
	<path d="M 461.0,205.0 L 462.0,207.0" style="stroke:#060106; fill:none;"/>
	<path d="M 411.0,209.0 L 410.0,212.0" style="stroke:#060106; fill:none;"/>
	<path d="M 416.0,209.0 L 417.0,209.0" style="stroke:#060106; fill:none;"/>
	<path d="M 429.0,212.0 L 429.0,213.0" style="stroke:#060106; fill:none;"/>
	<path d="M 434.0,213.0 L 435.0,213.0" style="stroke:#060106; fill:none;"/>
	<path d="M 731.0,213.0 L 732.0,214.0" style="stroke:#060106; fill:none;"/>
	<path d="M 380.0,218.0 L 380.0,219.0" style="stroke:#060106; fill:none;"/>
	<path d="M 406.0,219.0 L 407.0,220.0" style="stroke:#060106; fill:none;"/>
	<path d="M 456.0,219.0 L 456.0,220.0" style="stroke:#060106; fill:none;"/>
	<path d="M 411.0,224.0 L 413.0,221.0" style="stroke:#060106; fill:none;"/>
	<path d="M 379.0,223.0 L 381.0,224.0" style="stroke:#060106; fill:none;"/>
	<path d="M 736.0,223.0 L 739.0,226.0" style="stroke:#060106; fill:none;"/>
	<path d="M 415.0,224.0 L 416.0,225.0" style="stroke:#060106; fill:none;"/>
	<path d="M 310.0,226.0 L 311.0,226.0" style="stroke:#060106; fill:none;"/>
	<path d="M 404.0,227.0 L 405.0,228.0" style="stroke:#060106; fill:none;"/>
	<path d="M 740.0,229.0 L 741.0,230.0" style="stroke:#060106; fill:none;"/>
	<path d="M 408.0,230.0 L 408.0,232.0" style="stroke:#060106; fill:none;"/>
	<path d="M 403.0,231.0 L 404.0,231.0" style="stroke:#060106; fill:none;"/>
	<path d="M 423.0,231.0 L 427.0,232.0" style="stroke:#060106; fill:none;"/>
	<path d="M 445.0,231.0 L 446.0,231.0" style="stroke:#060106; fill:none;"/>
	<path d="M 430.0,233.0 L 439.0,235.0" style="stroke:#060106; fill:none;"/>
	<path d="M 441.0,233.0 L 441.0,234.0" style="stroke:#060106; fill:none;"/>
	<path d="M 437.0,236.0 L 435.0,238.0" style="stroke:#060106; fill:none;"/>
	<path d="M 406.0,240.0 L 407.0,240.0" style="stroke:#060106; fill:none;"/>
	<path d="M 433.0,240.0 L 432.0,241.0" style="stroke:#060106; fill:none;"/>
	<path d="M 427.0,243.0 L 427.0,244.0" style="stroke:#060106; fill:none;"/>
	<path d="M 749.0,245.0 L 750.0,246.0" style="stroke:#060106; fill:none;"/>
	<path d="M 423.0,247.0 L 423.0,248.0" style="stroke:#060106; fill:none;"/>
	<path d="M 404.0,248.0 L 405.0,248.0" style="stroke:#060106; fill:none;"/>
	<path d="M 404.0,259.0 L 405.0,259.0" style="stroke:#060106; fill:none;"/>
	<path d="M 760.0,269.0 L 761.0,270.0" style="stroke:#060106; fill:none;"/>
	<path d="M 401.0,271.0 L 401.0,272.0" style="stroke:#060106; fill:none;"/>
	<path d="M 762.0,275.0 L 763.0,275.0" style="stroke:#060106; fill:none;"/>
	<path d="M 78.0,281.0 L 77.0,283.0" style="stroke:#060106; fill:none;"/>
	<path d="M 71.0,290.0 L 73.0,289.0" style="stroke:#060106; fill:none;"/>
	<path d="M 58.0,304.0 L 60.0,303.0" style="stroke:#060106; fill:none;"/>
	<path d="M 54.0,305.0 L 56.0,305.0" style="stroke:#060106; fill:none;"/>
	<path d="M 91.0,305.0 L 92.0,305.0" style="stroke:#060106; fill:none;"/>
	<path d="M 773.0,309.0 L 774.0,309.0" style="stroke:#060106; fill:none;"/>
	<path d="M 85.0,315.0 L 82.0,319.0" style="stroke:#060106; fill:none;"/>
	<path d="M 48.0,319.0 L 48.0,323.0" style="stroke:#060106; fill:none;"/>
	<path d="M 778.0,320.0 L 778.0,322.0" style="stroke:#060106; fill:none;"/>
	<path d="M 78.0,325.0 L 77.0,327.0" style="stroke:#060106; fill:none;"/>
	<path d="M 780.0,328.0 L 781.0,331.0" style="stroke:#060106; fill:none;"/>
	<path d="M 40.0,335.0 L 36.0,339.0" style="stroke:#060106; fill:none;"/>
	<path d="M 782.0,335.0 L 783.0,337.0" style="stroke:#060106; fill:none;"/>
	<path d="M 31.0,343.0 L 32.0,343.0" style="stroke:#060106; fill:none;"/>
	<path d="M 35.0,344.0 L 35.0,346.0" style="stroke:#060106; fill:none;"/>
	<path d="M 34.0,349.0 L 34.0,351.0" style="stroke:#060106; fill:none;"/>
	<path d="M 29.0,366.0 L 29.0,368.0" style="stroke:#060106; fill:none;"/>
	<path d="M 148.0,367.0 L 149.0,367.0" style="stroke:#060106; fill:none;"/>
	<path d="M 142.0,376.0 L 143.0,376.0" style="stroke:#060106; fill:none;"/>
	<path d="M 28.0,377.0 L 28.0,379.0" style="stroke:#060106; fill:none;"/>
	<path d="M 538.0,380.0 L 538.0,381.0" style="stroke:#060106; fill:none;"/>
	<path d="M 140.0,386.0 L 145.0,386.0" style="stroke:#060106; fill:none;"/>
	<path d="M 25.0,386.0 L 25.0,387.0" style="stroke:#060106; fill:none;"/>
	<path d="M 121.0,388.0 L 123.0,387.0" style="stroke:#060106; fill:none;"/>
	<path d="M 133.0,387.0 L 131.0,388.0" style="stroke:#060106; fill:none;"/>
	<path d="M 127.0,389.0 L 128.0,389.0" style="stroke:#060106; fill:none;"/>
	<path d="M 146.0,390.0 L 147.0,390.0" style="stroke:#060106; fill:none;"/>
	<path d="M 25.0,391.0 L 21.0,398.0" style="stroke:#060106; fill:none;"/>
	<path d="M 121.0,391.0 L 123.0,391.0" style="stroke:#060106; fill:none;"/>
	<path d="M 118.0,392.0 L 119.0,392.0" style="stroke:#060106; fill:none;"/>
	<path d="M 136.0,393.0 L 141.0,392.0" style="stroke:#060106; fill:none;"/>
	<path d="M 111.0,395.0 L 115.0,394.0" style="stroke:#060106; fill:none;"/>
	<path d="M 107.0,397.0 L 108.0,397.0" style="stroke:#060106; fill:none;"/>
	<path d="M 557.0,400.0 L 557.0,401.0" style="stroke:#060106; fill:none;"/>
	<path d="M 124.0,401.0 L 121.0,404.0" style="stroke:#060106; fill:none;"/>
	<path d="M 20.0,404.0 L 19.0,406.0" style="stroke:#060106; fill:none;"/>
	<path d="M 106.0,408.0 L 103.0,412.0" style="stroke:#060106; fill:none;"/>
	<path d="M 16.0,410.0 L 13.0,414.0" style="stroke:#060106; fill:none;"/>
	<path d="M 284.0,410.0 L 282.0,412.0" style="stroke:#060106; fill:none;"/>
	<path d="M 272.0,418.0 L 279.0,413.0" style="stroke:#060106; fill:none;"/>
	<path d="M 800.0,413.0 L 801.0,413.0" style="stroke:#060106; fill:none;"/>
	<path d="M 801.0,415.0 L 801.0,416.0" style="stroke:#060106; fill:none;"/>
	<path d="M 135.0,416.0 L 136.0,416.0" style="stroke:#060106; fill:none;"/>
	<path d="M 259.0,417.0 L 260.0,417.0" style="stroke:#060106; fill:none;"/>
	<path d="M 8.0,421.0 L 10.0,418.0" style="stroke:#060106; fill:none;"/>
	<path d="M 254.0,419.0 L 255.0,419.0" style="stroke:#060106; fill:none;"/>
	<path d="M 803.0,420.0 L 804.0,420.0" style="stroke:#060106; fill:none;"/>
	<path d="M 246.0,421.0 L 248.0,421.0" style="stroke:#060106; fill:none;"/>
	<path d="M 13.0,422.0 L 17.0,424.0" style="stroke:#060106; fill:none;"/>
	<path d="M 267.0,422.0 L 268.0,422.0" style="stroke:#060106; fill:none;"/>
	<path d="M 184.0,424.0 L 186.0,423.0" style="stroke:#060106; fill:none;"/>
	<path d="M 4.0,424.0 L 5.0,424.0" style="stroke:#060106; fill:none;"/>
	<path d="M 93.0,428.0 L 96.0,424.0" style="stroke:#060106; fill:none;"/>
	<path d="M 235.0,425.0 L 239.0,424.0" style="stroke:#060106; fill:none;"/>
	<path d="M 231.0,425.0 L 232.0,425.0" style="stroke:#060106; fill:none;"/>
	<path d="M 259.0,425.0 L 258.0,426.0" style="stroke:#060106; fill:none;"/>
	<path d="M 563.0,425.0 L 564.0,425.0" style="stroke:#060106; fill:none;"/>
	<path d="M 803.0,425.0 L 804.0,425.0" style="stroke:#060106; fill:none;"/>
	<path d="M 16.0,426.0 L 16.0,429.0" style="stroke:#060106; fill:none;"/>
	<path d="M 256.0,432.0 L 263.0,426.0" style="stroke:#060106; fill:none;"/>
	<path d="M 228.0,427.0 L 229.0,427.0" style="stroke:#060106; fill:none;"/>
	<path d="M 237.0,427.0 L 238.0,428.0" style="stroke:#060106; fill:none;"/>
	<path d="M 804.0,429.0 L 805.0,430.0" style="stroke:#060106; fill:none;"/>
	<path d="M 117.0,430.0 L 116.0,431.0" style="stroke:#060106; fill:none;"/>
	<path d="M 218.0,430.0 L 218.0,431.0" style="stroke:#060106; fill:none;"/>
	<path d="M 131.0,431.0 L 131.0,432.0" style="stroke:#060106; fill:none;"/>
	<path d="M 221.0,431.0 L 220.0,432.0" style="stroke:#060106; fill:none;"/>
	<path d="M 547.0,435.0 L 548.0,433.0" style="stroke:#060106; fill:none;"/>
	<path d="M 102.0,434.0 L 103.0,434.0" style="stroke:#060106; fill:none;"/>
	<path d="M 129.0,434.0 L 129.0,435.0" style="stroke:#060106; fill:none;"/>
	<path d="M 88.0,435.0 L 88.0,437.0" style="stroke:#060106; fill:none;"/>
	<path d="M 210.0,435.0 L 211.0,435.0" style="stroke:#060106; fill:none;"/>
	<path d="M 119.0,436.0 L 121.0,436.0" style="stroke:#060106; fill:none;"/>
	<path d="M 179.0,436.0 L 180.0,436.0" style="stroke:#060106; fill:none;"/>
	<path d="M 252.0,436.0 L 254.0,436.0" style="stroke:#060106; fill:none;"/>
	<path d="M 100.0,437.0 L 101.0,437.0" style="stroke:#060106; fill:none;"/>
	<path d="M 241.0,437.0 L 242.0,438.0" style="stroke:#060106; fill:none;"/>
	<path d="M 178.0,438.0 L 179.0,438.0" style="stroke:#060106; fill:none;"/>
	<path d="M 213.0,438.0 L 214.0,438.0" style="stroke:#060106; fill:none;"/>
	<path d="M 546.0,438.0 L 545.0,439.0" style="stroke:#060106; fill:none;"/>
	<path d="M 6.0,440.0 L 6.0,442.0" style="stroke:#060106; fill:none;"/>
	<path d="M 86.0,441.0 L 86.0,442.0" style="stroke:#060106; fill:none;"/>
	<path d="M 222.0,441.0 L 224.0,441.0" style="stroke:#060106; fill:none;"/>
	<path d="M 98.0,443.0 L 97.0,446.0" style="stroke:#060106; fill:none;"/>
	<path d="M 224.0,443.0 L 225.0,443.0" style="stroke:#060106; fill:none;"/>
	<path d="M 547.0,443.0 L 546.0,444.0" style="stroke:#060106; fill:none;"/>
	<path d="M 808.0,444.0 L 808.0,449.0" style="stroke:#060106; fill:none;"/>
	<path d="M 121.0,445.0 L 122.0,446.0" style="stroke:#060106; fill:none;"/>
	<path d="M 208.0,445.0 L 208.0,446.0" style="stroke:#060106; fill:none;"/>
	<path d="M 215.0,446.0 L 214.0,448.0" style="stroke:#060106; fill:none;"/>
	<path d="M 10.0,447.0 L 10.0,449.0" style="stroke:#060106; fill:none;"/>
	<path d="M 199.0,447.0 L 199.0,448.0" style="stroke:#060106; fill:none;"/>
	<path d="M 548.0,447.0 L 548.0,451.0" style="stroke:#060106; fill:none;"/>
	<path d="M 95.0,448.0 L 95.0,449.0" style="stroke:#060106; fill:none;"/>
	<path d="M 224.0,448.0 L 225.0,448.0" style="stroke:#060106; fill:none;"/>
	<path d="M 119.0,449.0 L 120.0,449.0" style="stroke:#060106; fill:none;"/>
	<path d="M 223.0,450.0 L 223.0,452.0" style="stroke:#060106; fill:none;"/>
	<path d="M 93.0,451.0 L 93.0,452.0" style="stroke:#060106; fill:none;"/>
	<path d="M 8.0,452.0 L 8.0,453.0" style="stroke:#060106; fill:none;"/>
	<path d="M 109.0,453.0 L 110.0,453.0" style="stroke:#060106; fill:none;"/>
	<path d="M 205.0,453.0 L 205.0,454.0" style="stroke:#060106; fill:none;"/>
	<path d="M 196.0,454.0 L 198.0,454.0" style="stroke:#060106; fill:none;"/>
	<path d="M 548.0,454.0 L 548.0,456.0" style="stroke:#060106; fill:none;"/>
	<path d="M 809.0,454.0 L 809.0,456.0" style="stroke:#060106; fill:none;"/>
	<path d="M 6.0,456.0 L 5.0,457.0" style="stroke:#060106; fill:none;"/>
	<path d="M 239.0,458.0 L 239.0,459.0" style="stroke:#060106; fill:none;"/>
	<path d="M 2.0,459.0 L 1.0,462.0" style="stroke:#060106; fill:none;"/>
	<path d="M 201.0,460.0 L 201.0,462.0" style="stroke:#060106; fill:none;"/>
	<path d="M 89.0,461.0 L 89.0,463.0" style="stroke:#060106; fill:none;"/>
	<path d="M 167.0,461.0 L 168.0,462.0" style="stroke:#060106; fill:none;"/>
	<path d="M 235.0,463.0 L 234.0,464.0" style="stroke:#060106; fill:none;"/>
	<path d="M 86.0,465.0 L 85.0,469.0" style="stroke:#060106; fill:none;"/>
	<path d="M 167.0,465.0 L 167.0,466.0" style="stroke:#060106; fill:none;"/>
	<path d="M 191.0,465.0 L 189.0,467.0" style="stroke:#060106; fill:none;"/>
	<path d="M 810.0,465.0 L 811.0,465.0" style="stroke:#060106; fill:none;"/>
	<path d="M 88.0,466.0 L 89.0,466.0" style="stroke:#060106; fill:none;"/>
	<path d="M 101.0,467.0 L 101.0,468.0" style="stroke:#060106; fill:none;"/>
	<path d="M 95.0,468.0 L 96.0,468.0" style="stroke:#060106; fill:none;"/>
	<path d="M 233.0,468.0 L 228.0,474.0" style="stroke:#060106; fill:none;"/>
	<path d="M 812.0,469.0 L 812.0,472.0" style="stroke:#060106; fill:none;"/>
	<path d="M 85.0,471.0 L 85.0,472.0" style="stroke:#060106; fill:none;"/>
	<path d="M 97.0,473.0 L 99.0,472.0" style="stroke:#060106; fill:none;"/>
	<path d="M 197.0,473.0 L 197.0,474.0" style="stroke:#060106; fill:none;"/>
	<path d="M 86.0,474.0 L 87.0,474.0" style="stroke:#060106; fill:none;"/>
	<path d="M 812.0,475.0 L 813.0,475.0" style="stroke:#060106; fill:none;"/>
	<path d="M 83.0,477.0 L 83.0,480.0" style="stroke:#060106; fill:none;"/>
	<path d="M 213.0,477.0 L 216.0,477.0" style="stroke:#060106; fill:none;"/>
	<path d="M 225.0,478.0 L 226.0,478.0" style="stroke:#060106; fill:none;"/>
	<path d="M 92.0,479.0 L 88.0,488.0" style="stroke:#060106; fill:none;"/>
	<path d="M 223.0,480.0 L 221.0,483.0" style="stroke:#060106; fill:none;"/>
	<path d="M 187.0,481.0 L 186.0,484.0" style="stroke:#060106; fill:none;"/>
	<path d="M 0.0,482.0 L 1.0,484.0" style="stroke:#060106; fill:none;"/>
	<path d="M 170.0,482.0 L 171.0,489.0" style="stroke:#060106; fill:none;"/>
	<path d="M 189.0,484.0 L 188.0,485.0" style="stroke:#060106; fill:none;"/>
	<path d="M 195.0,485.0 L 195.0,486.0" style="stroke:#060106; fill:none;"/>
	<path d="M 214.0,489.0 L 216.0,487.0" style="stroke:#060106; fill:none;"/>
	<path d="M 185.0,489.0 L 185.0,490.0" style="stroke:#060106; fill:none;"/>
	<path d="M 195.0,490.0 L 195.0,492.0" style="stroke:#060106; fill:none;"/>
	<path d="M 4.0,491.0 L 3.0,503.0" style="stroke:#060106; fill:none;"/>
	<path d="M 209.0,492.0 L 207.0,493.0" style="stroke:#060106; fill:none;"/>
	<path d="M 814.0,493.0 L 815.0,493.0" style="stroke:#060106; fill:none;"/>
	<path d="M 185.0,494.0 L 186.0,495.0" style="stroke:#060106; fill:none;"/>
	<path d="M 543.0,496.0 L 542.0,497.0" style="stroke:#060106; fill:none;"/>
	<path d="M 195.0,497.0 L 197.0,500.0" style="stroke:#060106; fill:none;"/>
	<path d="M 199.0,498.0 L 200.0,498.0" style="stroke:#060106; fill:none;"/>
	<path d="M 185.0,501.0 L 185.0,505.0" style="stroke:#060106; fill:none;"/>
	<path d="M 541.0,501.0 L 540.0,502.0" style="stroke:#060106; fill:none;"/>
	<path d="M 170.0,503.0 L 172.0,504.0" style="stroke:#060106; fill:none;"/>
	<path d="M 195.0,503.0 L 196.0,503.0" style="stroke:#060106; fill:none;"/>
	<path d="M 815.0,503.0 L 815.0,507.0" style="stroke:#060106; fill:none;"/>
	<path d="M 539.0,506.0 L 538.0,507.0" style="stroke:#060106; fill:none;"/>
	<path d="M 11.0,508.0 L 14.0,509.0" style="stroke:#060106; fill:none;"/>
	<path d="M 4.0,508.0 L 5.0,508.0" style="stroke:#060106; fill:none;"/>
	<path d="M 185.0,509.0 L 185.0,511.0" style="stroke:#060106; fill:none;"/>
	<path d="M 536.0,510.0 L 537.0,510.0" style="stroke:#060106; fill:none;"/>
	<path d="M 190.0,511.0 L 191.0,511.0" style="stroke:#060106; fill:none;"/>
	<path d="M 378.0,511.0 L 379.0,511.0" style="stroke:#060106; fill:none;"/>
	<path d="M 810.0,511.0 L 811.0,511.0" style="stroke:#060106; fill:none;"/>
	<path d="M 379.0,514.0 L 379.0,516.0" style="stroke:#060106; fill:none;"/>
	<path d="M 812.0,517.0 L 812.0,518.0" style="stroke:#060106; fill:none;"/>
	<path d="M 380.0,519.0 L 380.0,520.0" style="stroke:#060106; fill:none;"/>
	<path d="M 23.0,523.0 L 24.0,523.0" style="stroke:#060106; fill:none;"/>
	<path d="M 22.0,525.0 L 22.0,528.0" style="stroke:#060106; fill:none;"/>
	<path d="M 382.0,527.0 L 382.0,532.0" style="stroke:#060106; fill:none;"/>
	<path d="M 518.0,528.0 L 519.0,528.0" style="stroke:#060106; fill:none;"/>
	<path d="M 515.0,530.0 L 516.0,530.0" style="stroke:#060106; fill:none;"/>
	<path d="M 189.0,532.0 L 188.0,539.0" style="stroke:#060106; fill:none;"/>
	<path d="M 511.0,533.0 L 513.0,533.0" style="stroke:#060106; fill:none;"/>
	<path d="M 384.0,534.0 L 384.0,535.0" style="stroke:#060106; fill:none;"/>
	<path d="M 508.0,534.0 L 501.0,538.0" style="stroke:#060106; fill:none;"/>
	<path d="M 27.0,536.0 L 31.0,539.0" style="stroke:#060106; fill:none;"/>
	<path d="M 386.0,537.0 L 386.0,538.0" style="stroke:#060106; fill:none;"/>
	<path d="M 494.0,539.0 L 496.0,538.0" style="stroke:#060106; fill:none;"/>
	<path d="M 813.0,538.0 L 814.0,538.0" style="stroke:#060106; fill:none;"/>
	<path d="M 489.0,539.0 L 491.0,539.0" style="stroke:#060106; fill:none;"/>
	<path d="M 461.0,540.0 L 462.0,540.0" style="stroke:#060106; fill:none;"/>
	<path d="M 470.0,540.0 L 471.0,540.0" style="stroke:#060106; fill:none;"/>
	<path d="M 476.0,541.0 L 486.0,540.0" style="stroke:#060106; fill:none;"/>
	<path d="M 387.0,541.0 L 388.0,541.0" style="stroke:#060106; fill:none;"/>
	<path d="M 453.0,541.0 L 457.0,541.0" style="stroke:#060106; fill:none;"/>
	<path d="M 473.0,541.0 L 474.0,541.0" style="stroke:#060106; fill:none;"/>
	<path d="M 814.0,545.0 L 815.0,545.0" style="stroke:#060106; fill:none;"/>
	<path d="M 230.0,546.0 L 229.0,547.0" style="stroke:#060106; fill:none;"/>
	<path d="M 38.0,547.0 L 40.0,547.0" style="stroke:#060106; fill:none;"/>
	<path d="M 393.0,547.0 L 393.0,549.0" style="stroke:#060106; fill:none;"/>
	<path d="M 188.0,548.0 L 191.0,548.0" style="stroke:#060106; fill:none;"/>
	<path d="M 446.0,549.0 L 446.0,550.0" style="stroke:#060106; fill:none;"/>
	<path d="M 43.0,551.0 L 45.0,551.0" style="stroke:#060106; fill:none;"/>
	<path d="M 187.0,550.0 L 188.0,550.0" style="stroke:#060106; fill:none;"/>
	<path d="M 622.0,550.0 L 621.0,552.0" style="stroke:#060106; fill:none;"/>
	<path d="M 180.0,552.0 L 179.0,553.0" style="stroke:#060106; fill:none;"/>
	<path d="M 44.0,553.0 L 45.0,554.0" style="stroke:#060106; fill:none;"/>
	<path d="M 398.0,553.0 L 399.0,553.0" style="stroke:#060106; fill:none;"/>
	<path d="M 199.0,555.0 L 198.0,557.0" style="stroke:#060106; fill:none;"/>
	<path d="M 437.0,557.0 L 436.0,558.0" style="stroke:#060106; fill:none;"/>
	<path d="M 814.0,557.0 L 814.0,559.0" style="stroke:#060106; fill:none;"/>
	<path d="M 62.0,558.0 L 65.0,561.0" style="stroke:#060106; fill:none;"/>
	<path d="M 186.0,560.0 L 186.0,562.0" style="stroke:#060106; fill:none;"/>
	<path d="M 405.0,560.0 L 406.0,561.0" style="stroke:#060106; fill:none;"/>
	<path d="M 169.0,561.0 L 170.0,561.0" style="stroke:#060106; fill:none;"/>
	<path d="M 413.0,562.0 L 415.0,562.0" style="stroke:#060106; fill:none;"/>
	<path d="M 421.0,562.0 L 422.0,562.0" style="stroke:#060106; fill:none;"/>
	<path d="M 67.0,563.0 L 68.0,565.0" style="stroke:#060106; fill:none;"/>
	<path d="M 198.0,563.0 L 197.0,566.0" style="stroke:#060106; fill:none;"/>
	<path d="M 72.0,564.0 L 73.0,565.0" style="stroke:#060106; fill:none;"/>
	<path d="M 45.0,565.0 L 37.0,567.0" style="stroke:#060106; fill:none;"/>
	<path d="M 75.0,565.0 L 75.0,566.0" style="stroke:#060106; fill:none;"/>
	<path d="M 809.0,567.0 L 810.0,567.0" style="stroke:#060106; fill:none;"/>
	<path d="M 76.0,568.0 L 76.0,569.0" style="stroke:#060106; fill:none;"/>
	<path d="M 88.0,569.0 L 88.0,570.0" style="stroke:#060106; fill:none;"/>
	<path d="M 73.0,570.0 L 75.0,571.0" style="stroke:#060106; fill:none;"/>
	<path d="M 196.0,570.0 L 195.0,573.0" style="stroke:#060106; fill:none;"/>
	<path d="M 814.0,570.0 L 814.0,573.0" style="stroke:#060106; fill:none;"/>
	<path d="M 813.0,577.0 L 813.0,580.0" style="stroke:#060106; fill:none;"/>
	<path d="M 81.0,578.0 L 88.0,584.0" style="stroke:#060106; fill:none;"/>
	<path d="M 98.0,579.0 L 100.0,580.0" style="stroke:#060106; fill:none;"/>
	<path d="M 90.0,580.0 L 93.0,580.0" style="stroke:#060106; fill:none;"/>
	<path d="M 96.0,584.0 L 96.0,585.0" style="stroke:#060106; fill:none;"/>
	<path d="M 33.0,585.0 L 33.0,586.0" style="stroke:#060106; fill:none;"/>
	<path d="M 88.0,587.0 L 95.0,592.0" style="stroke:#060106; fill:none;"/>
	<path d="M 75.0,590.0 L 84.0,590.0" style="stroke:#060106; fill:none;"/>
	<path d="M 68.0,591.0 L 70.0,591.0" style="stroke:#060106; fill:none;"/>
	<path d="M 594.0,591.0 L 591.0,596.0" style="stroke:#060106; fill:none;"/>
	<path d="M 113.0,592.0 L 115.0,596.0" style="stroke:#060106; fill:none;"/>
	<path d="M 814.0,592.0 L 814.0,593.0" style="stroke:#060106; fill:none;"/>
	<path d="M 63.0,593.0 L 61.0,595.0" style="stroke:#060106; fill:none;"/>
	<path d="M 190.0,593.0 L 189.0,596.0" style="stroke:#060106; fill:none;"/>
	<path d="M 99.0,594.0 L 103.0,600.0" style="stroke:#060106; fill:none;"/>
	<path d="M 34.0,596.0 L 34.0,597.0" style="stroke:#060106; fill:none;"/>
	<path d="M 110.0,596.0 L 110.0,597.0" style="stroke:#060106; fill:none;"/>
	<path d="M 56.0,598.0 L 55.0,599.0" style="stroke:#060106; fill:none;"/>
	<path d="M 813.0,598.0 L 816.0,598.0" style="stroke:#060106; fill:none;"/>
	<path d="M 50.0,599.0 L 51.0,601.0" style="stroke:#060106; fill:none;"/>
	<path d="M 36.0,602.0 L 37.0,603.0" style="stroke:#060106; fill:none;"/>
	<path d="M 579.0,603.0 L 580.0,603.0" style="stroke:#060106; fill:none;"/>
	<path d="M 573.0,606.0 L 577.0,605.0" style="stroke:#060106; fill:none;"/>
	<path d="M 40.0,606.0 L 40.0,607.0" style="stroke:#060106; fill:none;"/>
	<path d="M 127.0,606.0 L 139.0,619.0" style="stroke:#060106; fill:none;"/>
	<path d="M 42.0,608.0 L 42.0,609.0" style="stroke:#060106; fill:none;"/>
	<path d="M 569.0,608.0 L 571.0,608.0" style="stroke:#060106; fill:none;"/>
	<path d="M 618.0,611.0 L 617.0,612.0" style="stroke:#060106; fill:none;"/>
	<path d="M 50.0,612.0 L 56.0,613.0" style="stroke:#060106; fill:none;"/>
	<path d="M 85.0,612.0 L 84.0,613.0" style="stroke:#060106; fill:none;"/>
	<path d="M 560.0,614.0 L 558.0,615.0" style="stroke:#060106; fill:none;"/>
	<path d="M 62.0,615.0 L 63.0,615.0" style="stroke:#060106; fill:none;"/>
	<path d="M 613.0,617.0 L 610.0,620.0" style="stroke:#060106; fill:none;"/>
	<path d="M 813.0,618.0 L 813.0,620.0" style="stroke:#060106; fill:none;"/>
	<path d="M 83.0,620.0 L 85.0,622.0" style="stroke:#060106; fill:none;"/>
	<path d="M 87.0,623.0 L 89.0,623.0" style="stroke:#060106; fill:none;"/>
	<path d="M 142.0,623.0 L 143.0,625.0" style="stroke:#060106; fill:none;"/>
	<path d="M 92.0,625.0 L 94.0,625.0" style="stroke:#060106; fill:none;"/>
	<path d="M 604.0,625.0 L 605.0,625.0" style="stroke:#060106; fill:none;"/>
	<path d="M 96.0,627.0 L 98.0,628.0" style="stroke:#060106; fill:none;"/>
	<path d="M 602.0,627.0 L 602.0,628.0" style="stroke:#060106; fill:none;"/>
	<path d="M 812.0,627.0 L 812.0,628.0" style="stroke:#060106; fill:none;"/>
	<path d="M 103.0,629.0 L 104.0,629.0" style="stroke:#060106; fill:none;"/>
	<path d="M 598.0,629.0 L 600.0,629.0" style="stroke:#060106; fill:none;"/>
	<path d="M 135.0,630.0 L 135.0,631.0" style="stroke:#060106; fill:none;"/>
	<path d="M 109.0,633.0 L 111.0,634.0" style="stroke:#060106; fill:none;"/>
	<path d="M 114.0,635.0 L 116.0,636.0" style="stroke:#060106; fill:none;"/>
	<path d="M 810.0,635.0 L 810.0,636.0" style="stroke:#060106; fill:none;"/>
	<path d="M 591.0,636.0 L 590.0,637.0" style="stroke:#060106; fill:none;"/>
	<path d="M 124.0,638.0 L 127.0,639.0" style="stroke:#060106; fill:none;"/>
	<path d="M 130.0,638.0 L 131.0,638.0" style="stroke:#060106; fill:none;"/>
	<path d="M 140.0,640.0 L 147.0,640.0" style="stroke:#060106; fill:none;"/>
	<path d="M 155.0,640.0 L 152.0,641.0" style="stroke:#060106; fill:none;"/>
	<path d="M 158.0,641.0 L 161.0,642.0" style="stroke:#060106; fill:none;"/>
	<path d="M 585.0,641.0 L 586.0,641.0" style="stroke:#060106; fill:none;"/>
	<path d="M 165.0,643.0 L 166.0,643.0" style="stroke:#060106; fill:none;"/>
	<path d="M 168.0,645.0 L 168.0,646.0" style="stroke:#060106; fill:none;"/>
	<path d="M 578.0,646.0 L 579.0,646.0" style="stroke:#060106; fill:none;"/>
	<path d="M 568.0,651.0 L 567.0,652.0" style="stroke:#060106; fill:none;"/>
	<path d="M 807.0,654.0 L 807.0,655.0" style="stroke:#060106; fill:none;"/>
	<path d="M 175.0,655.0 L 176.0,655.0" style="stroke:#060106; fill:none;"/>
	<path d="M 551.0,656.0 L 552.0,656.0" style="stroke:#060106; fill:none;"/>
	<path d="M 172.0,658.0 L 174.0,657.0" style="stroke:#060106; fill:none;"/>
	<path d="M 172.0,660.0 L 172.0,662.0" style="stroke:#060106; fill:none;"/>
	<path d="M 181.0,660.0 L 182.0,661.0" style="stroke:#060106; fill:none;"/>
	<path d="M 804.0,661.0 L 803.0,664.0" style="stroke:#060106; fill:none;"/>
	<path d="M 186.0,666.0 L 187.0,668.0" style="stroke:#060106; fill:none;"/>
	<path d="M 188.0,670.0 L 196.0,678.0" style="stroke:#060106; fill:none;"/>
	<path d="M 802.0,670.0 L 802.0,671.0" style="stroke:#060106; fill:none;"/>
	<path d="M 205.0,688.0 L 206.0,690.0" style="stroke:#060106; fill:none;"/>
	<path d="M 210.0,692.0 L 210.0,693.0" style="stroke:#060106; fill:none;"/>
	<path d="M 217.0,700.0 L 218.0,701.0" style="stroke:#060106; fill:none;"/>
	<path d="M 235.0,714.0 L 235.0,715.0" style="stroke:#060106; fill:none;"/>
	<path d="M 253.0,727.0 L 257.0,729.0" style="stroke:#060106; fill:none;"/>
	<path d="M 274.0,738.0 L 275.0,739.0" style="stroke:#060106; fill:none;"/>
	<path d="M 278.0,740.0 L 280.0,741.0" style="stroke:#060106; fill:none;"/>
	<path d="M 284.0,742.0 L 286.0,744.0" style="stroke:#060106; fill:none;"/>
	<path d="M 278.0,743.0 L 278.0,744.0" style="stroke:#060106; fill:none;"/>
	<path d="M 294.0,747.0 L 296.0,748.0" style="stroke:#060106; fill:none;"/>
	<path d="M 305.0,751.0 L 309.0,752.0" style="stroke:#060106; fill:none;"/>
	<path d="M 318.0,755.0 L 318.0,756.0" style="stroke:#060106; fill:none;"/>
	<path d="M 327.0,758.0 L 328.0,759.0" style="stroke:#060106; fill:none;"/>
	<path d="M 347.0,766.0 L 348.0,766.0" style="stroke:#060106; fill:none;"/>
	<path d="M 350.0,767.0 L 351.0,768.0" style="stroke:#060106; fill:none;"/>
	<path d="M 357.0,769.0 L 360.0,770.0" style="stroke:#060106; fill:none;"/>
	<path d="M 363.0,771.0 L 363.0,772.0" style="stroke:#060106; fill:none;"/>
	<path d="M 369.0,771.0 L 370.0,771.0" style="stroke:#060106; fill:none;"/>
	<path d="M 383.0,773.0 L 385.0,773.0" style="stroke:#060106; fill:none;"/>
	<path d="M 389.0,774.0 L 390.0,774.0" style="stroke:#060106; fill:none;"/>
	<path d="M 404.0,774.0 L 408.0,775.0" style="stroke:#060106; fill:none;"/>
	<path d="M 526.0,780.0 L 527.0,780.0" style="stroke:#060106; fill:none;"/>
	<path d="M 421.0,781.0 L 422.0,781.0" style="stroke:#060106; fill:none;"/>
	<path d="M 532.0,781.0 L 532.0,782.0" style="stroke:#060106; fill:none;"/>
	<path d="M 679.0,781.0 L 684.0,781.0" style="stroke:#060106; fill:none;"/>
	<path d="M 538.0,783.0 L 540.0,784.0" style="stroke:#060106; fill:none;"/>
	<path d="M 670.0,783.0 L 671.0,784.0" style="stroke:#060106; fill:none;"/>
	<path d="M 434.0,784.0 L 437.0,786.0" style="stroke:#060106; fill:none;"/>
	<path d="M 543.0,784.0 L 546.0,785.0" style="stroke:#060106; fill:none;"/>
	<path d="M 664.0,784.0 L 663.0,786.0" style="stroke:#060106; fill:none;"/>
	<path d="M 548.0,785.0 L 550.0,785.0" style="stroke:#060106; fill:none;"/>
	<path d="M 654.0,788.0 L 659.0,786.0" style="stroke:#060106; fill:none;"/>
	<path d="M 572.0,788.0 L 573.0,788.0" style="stroke:#060106; fill:none;"/>
	<path d="M 454.0,789.0 L 453.0,790.0" style="stroke:#060106; fill:none;"/>
	<path d="M 577.0,789.0 L 581.0,790.0" style="stroke:#060106; fill:none;"/>
	<path d="M 584.0,789.0 L 586.0,791.0" style="stroke:#060106; fill:none;"/>
	<path d="M 590.0,790.0 L 592.0,791.0" style="stroke:#060106; fill:none;"/>
	<path d="M 599.0,790.0 L 599.0,791.0" style="stroke:#060106; fill:none;"/>
	<path d="M 615.0,790.0 L 615.0,791.0" style="stroke:#060106; fill:none;"/>
	<path d="M 631.0,791.0 L 638.0,790.0" style="stroke:#060106; fill:none;"/>
	<path d="M 612.0,791.0 L 613.0,791.0" style="stroke:#060106; fill:none;"/>
	<path d="M 471.0,794.0 L 472.0,794.0" style="stroke:#060106; fill:none;"/>
	<path d="M 479.0,794.0 L 479.0,795.0" style="stroke:#060106; fill:none;"/>
	<path d="M 488.0,797.0 L 489.0,797.0" style="stroke:#060106; fill:none;"/>
	<path d="M 494.0,798.0 L 497.0,798.0" style="stroke:#060106; fill:none;"/>
	<path d="M 540.0,799.0 C 545.14,797.51 548.391,798.455 553.0,801.0" style="stroke:#060106; fill:none;"/>
	<path d="M 505.0,799.0 L 507.0,798.0" style="stroke:#060106; fill:none;"/>
	<path d="M 526.0,799.0 L 529.0,799.0" style="stroke:#060106; fill:none;"/>
</svg>
