<?xml version="1.0" ?>
<svg baseProfile="full" height="946" version="1.1" width="1024" xmlns="http://www.w3.org/2000/svg" xmlns:ev="http://www.w3.org/2001/xml-events" xmlns:xlink="http://www.w3.org/1999/xlink">
	<defs/>
	<path d="M 572.0,221.0 L 573.0,223.0" style="stroke:#070107; fill:none;"/>
	<path d="M 565.0,222.0 L 566.0,222.0" style="stroke:#070107; fill:none;"/>
	<path d="M 555.0,233.0 L 557.0,236.0" style="stroke:#070107; fill:none;"/>
	<path d="M 601.0,236.0 L 601.0,237.0" style="stroke:#070107; fill:none;"/>
	<path d="M 533.0,237.0 L 534.0,237.0" style="stroke:#070107; fill:none;"/>
	<path d="M 580.0,237.0 L 584.0,243.0" style="stroke:#070107; fill:none;"/>
	<path d="M 557.0,238.0 L 557.0,239.0" style="stroke:#070107; fill:none;"/>
	<path d="M 620.0,240.0 L 622.0,246.0" style="stroke:#070107; fill:none;"/>
	<path d="M 522.0,242.0 L 522.0,243.0" style="stroke:#070107; fill:none;"/>
	<path d="M 562.0,243.0 L 562.0,244.0" style="stroke:#070107; fill:none;"/>
	<path d="M 496.0,247.0 L 496.0,248.0" style="stroke:#070107; fill:none;"/>
	<path d="M 496.0,250.0 L 497.0,252.0" style="stroke:#070107; fill:none;"/>
	<path d="M 636.0,251.0 L 637.0,251.0" style="stroke:#070107; fill:none;"/>
	<path d="M 623.0,252.0 L 624.0,252.0" style="stroke:#070107; fill:none;"/>
	<path d="M 637.0,253.0 L 638.0,254.0" style="stroke:#070107; fill:none;"/>
	<path d="M 557.0,254.0 L 558.0,254.0" style="stroke:#070107; fill:none;"/>
	<path d="M 516.0,255.0 L 518.0,255.0" style="stroke:#070107; fill:none;"/>
	<path d="M 487.0,256.0 L 487.0,257.0" style="stroke:#070107; fill:none;"/>
	<path d="M 520.0,261.0 L 521.0,263.0" style="stroke:#070107; fill:none;"/>
	<path d="M 469.0,264.0 L 470.0,264.0" style="stroke:#070107; fill:none;"/>
	<path d="M 523.0,266.0 L 524.0,269.0" style="stroke:#070107; fill:none;"/>
	<path d="M 550.0,269.0 L 551.0,270.0" style="stroke:#070107; fill:none;"/>
	<path d="M 471.0,270.0 L 472.0,272.0" style="stroke:#070107; fill:none;"/>
	<path d="M 452.0,271.0 L 453.0,271.0" style="stroke:#070107; fill:none;"/>
	<path d="M 525.0,273.0 L 526.0,273.0" style="stroke:#070107; fill:none;"/>
	<path d="M 631.0,274.0 L 632.0,274.0" style="stroke:#070107; fill:none;"/>
	<path d="M 498.0,275.0 L 497.0,276.0" style="stroke:#070107; fill:none;"/>
	<path d="M 720.0,275.0 L 720.0,276.0" style="stroke:#070107; fill:none;"/>
	<path d="M 527.0,276.0 L 527.0,278.0" style="stroke:#070107; fill:none;"/>
	<path d="M 594.0,276.0 L 595.0,277.0" style="stroke:#070107; fill:none;"/>
	<path d="M 721.0,278.0 L 722.0,278.0" style="stroke:#070107; fill:none;"/>
	<path d="M 473.0,280.0 L 473.0,281.0" style="stroke:#070107; fill:none;"/>
	<path d="M 595.0,280.0 L 595.0,282.0" style="stroke:#070107; fill:none;"/>
	<path d="M 528.0,281.0 L 529.0,283.0" style="stroke:#070107; fill:none;"/>
	<path d="M 560.0,281.0 L 560.0,283.0" style="stroke:#070107; fill:none;"/>
	<path d="M 683.0,281.0 L 683.0,282.0" style="stroke:#070107; fill:none;"/>
	<path d="M 732.0,281.0 L 733.0,284.0" style="stroke:#070107; fill:none;"/>
	<path d="M 457.0,286.0 L 456.0,287.0" style="stroke:#070107; fill:none;"/>
	<path d="M 564.0,286.0 L 564.0,287.0" style="stroke:#070107; fill:none;"/>
	<path d="M 687.0,286.0 L 688.0,287.0" style="stroke:#070107; fill:none;"/>
	<path d="M 731.0,288.0 L 732.0,291.0" style="stroke:#070107; fill:none;"/>
	<path d="M 565.0,289.0 L 565.0,290.0" style="stroke:#070107; fill:none;"/>
	<path d="M 597.0,289.0 L 598.0,289.0" style="stroke:#070107; fill:none;"/>
	<path d="M 434.0,290.0 L 435.0,290.0" style="stroke:#070107; fill:none;"/>
	<path d="M 435.0,292.0 L 440.0,303.0" style="stroke:#070107; fill:none;"/>
	<path d="M 534.0,294.0 L 534.0,295.0" style="stroke:#070107; fill:none;"/>
	<path d="M 574.0,295.0 L 574.0,297.0" style="stroke:#070107; fill:none;"/>
	<path d="M 445.0,296.0 L 445.0,300.0" style="stroke:#070107; fill:none;"/>
	<path d="M 534.0,298.0 L 534.0,299.0" style="stroke:#070107; fill:none;"/>
	<path d="M 738.0,299.0 L 738.0,300.0" style="stroke:#070107; fill:none;"/>
	<path d="M 721.0,302.0 L 722.0,302.0" style="stroke:#070107; fill:none;"/>
	<path d="M 576.0,305.0 L 576.0,306.0" style="stroke:#070107; fill:none;"/>
	<path d="M 439.0,306.0 L 441.0,306.0" style="stroke:#070107; fill:none;"/>
	<path d="M 538.0,306.0 L 538.0,308.0" style="stroke:#070107; fill:none;"/>
	<path d="M 439.0,308.0 L 441.0,310.0" style="stroke:#070107; fill:none;"/>
	<path d="M 620.0,309.0 L 620.0,312.0" style="stroke:#070107; fill:none;"/>
	<path d="M 614.0,311.0 L 617.0,311.0" style="stroke:#070107; fill:none;"/>
	<path d="M 724.0,312.0 L 727.0,320.0" style="stroke:#070107; fill:none;"/>
	<path d="M 539.0,313.0 L 539.0,315.0" style="stroke:#070107; fill:none;"/>
	<path d="M 602.0,314.0 L 603.0,314.0" style="stroke:#070107; fill:none;"/>
	<path d="M 746.0,315.0 L 747.0,315.0" style="stroke:#070107; fill:none;"/>
	<path d="M 441.0,317.0 L 442.0,317.0" style="stroke:#070107; fill:none;"/>
	<path d="M 617.0,318.0 L 620.0,317.0" style="stroke:#070107; fill:none;"/>
	<path d="M 621.0,319.0 L 631.0,319.0" style="stroke:#070107; fill:none;"/>
	<path d="M 611.0,320.0 L 612.0,320.0" style="stroke:#070107; fill:none;"/>
	<path d="M 606.0,323.0 L 609.0,321.0" style="stroke:#070107; fill:none;"/>
	<path d="M 620.0,323.0 L 620.0,324.0" style="stroke:#070107; fill:none;"/>
	<path d="M 729.0,324.0 L 730.0,325.0" style="stroke:#070107; fill:none;"/>
	<path d="M 625.0,325.0 L 623.0,326.0" style="stroke:#070107; fill:none;"/>
	<path d="M 599.0,326.0 L 600.0,326.0" style="stroke:#070107; fill:none;"/>
	<path d="M 617.0,328.0 L 619.0,327.0" style="stroke:#070107; fill:none;"/>
	<path d="M 584.0,333.0 L 590.0,330.0" style="stroke:#070107; fill:none;"/>
	<path d="M 614.0,331.0 L 615.0,331.0" style="stroke:#070107; fill:none;"/>
	<path d="M 610.0,334.0 L 612.0,332.0" style="stroke:#070107; fill:none;"/>
	<path d="M 590.0,333.0 L 591.0,333.0" style="stroke:#070107; fill:none;"/>
	<path d="M 596.0,334.0 L 589.0,338.0" style="stroke:#070107; fill:none;"/>
	<path d="M 602.0,334.0 L 604.0,334.0" style="stroke:#070107; fill:none;"/>
	<path d="M 607.0,335.0 L 607.0,336.0" style="stroke:#070107; fill:none;"/>
	<path d="M 583.0,337.0 L 582.0,338.0" style="stroke:#070107; fill:none;"/>
	<path d="M 436.0,338.0 L 436.0,339.0" style="stroke:#070107; fill:none;"/>
	<path d="M 753.0,338.0 L 753.0,339.0" style="stroke:#070107; fill:none;"/>
	<path d="M 442.0,339.0 L 442.0,341.0" style="stroke:#070107; fill:none;"/>
	<path d="M 588.0,341.0 L 590.0,341.0" style="stroke:#070107; fill:none;"/>
	<path d="M 716.0,341.0 L 717.0,341.0" style="stroke:#070107; fill:none;"/>
	<path d="M 442.0,344.0 L 442.0,345.0" style="stroke:#070107; fill:none;"/>
	<path d="M 573.0,346.0 L 574.0,347.0" style="stroke:#070107; fill:none;"/>
	<path d="M 581.0,346.0 L 582.0,346.0" style="stroke:#070107; fill:none;"/>
	<path d="M 436.0,347.0 L 436.0,348.0" style="stroke:#070107; fill:none;"/>
	<path d="M 766.0,347.0 L 766.0,348.0" style="stroke:#070107; fill:none;"/>
	<path d="M 719.0,349.0 L 719.0,350.0" style="stroke:#070107; fill:none;"/>
	<path d="M 752.0,349.0 L 753.0,350.0" style="stroke:#070107; fill:none;"/>
	<path d="M 429.0,350.0 L 430.0,350.0" style="stroke:#070107; fill:none;"/>
	<path d="M 581.0,351.0 L 582.0,353.0" style="stroke:#070107; fill:none;"/>
	<path d="M 583.0,351.0 L 584.0,351.0" style="stroke:#070107; fill:none;"/>
	<path d="M 721.0,352.0 L 721.0,354.0" style="stroke:#070107; fill:none;"/>
	<path d="M 752.0,354.0 L 753.0,358.0" style="stroke:#070107; fill:none;"/>
	<path d="M 441.0,355.0 L 441.0,356.0" style="stroke:#070107; fill:none;"/>
	<path d="M 423.0,356.0 L 423.0,359.0" style="stroke:#070107; fill:none;"/>
	<path d="M 617.0,356.0 L 618.0,356.0" style="stroke:#070107; fill:none;"/>
	<path d="M 609.0,357.0 L 611.0,357.0" style="stroke:#070107; fill:none;"/>
	<path d="M 751.0,357.0 L 751.0,358.0" style="stroke:#070107; fill:none;"/>
	<path d="M 567.0,358.0 L 567.0,360.0" style="stroke:#070107; fill:none;"/>
	<path d="M 422.0,362.0 L 421.0,363.0" style="stroke:#070107; fill:none;"/>
	<path d="M 435.0,364.0 L 434.0,367.0" style="stroke:#070107; fill:none;"/>
	<path d="M 421.0,365.0 L 420.0,368.0" style="stroke:#070107; fill:none;"/>
	<path d="M 767.0,366.0 L 767.0,367.0" style="stroke:#070107; fill:none;"/>
	<path d="M 613.0,371.0 L 620.0,370.0" style="stroke:#070107; fill:none;"/>
	<path d="M 734.0,369.0 L 734.0,370.0" style="stroke:#070107; fill:none;"/>
	<path d="M 607.0,371.0 L 608.0,371.0" style="stroke:#070107; fill:none;"/>
	<path d="M 600.0,372.0 L 605.0,372.0" style="stroke:#070107; fill:none;"/>
	<path d="M 418.0,373.0 L 417.0,374.0" style="stroke:#070107; fill:none;"/>
	<path d="M 572.0,375.0 L 575.0,373.0" style="stroke:#070107; fill:none;"/>
	<path d="M 596.0,373.0 L 580.0,388.0" style="stroke:#070107; fill:none;"/>
	<path d="M 433.0,374.0 L 433.0,375.0" style="stroke:#070107; fill:none;"/>
	<path d="M 541.0,376.0 L 540.0,377.0" style="stroke:#070107; fill:none;"/>
	<path d="M 570.0,376.0 L 570.0,377.0" style="stroke:#070107; fill:none;"/>
	<path d="M 592.0,376.0 L 593.0,377.0" style="stroke:#070107; fill:none;"/>
	<path d="M 417.0,377.0 L 417.0,380.0" style="stroke:#070107; fill:none;"/>
	<path d="M 568.0,378.0 L 567.0,379.0" style="stroke:#070107; fill:none;"/>
	<path d="M 535.0,381.0 L 537.0,381.0" style="stroke:#070107; fill:none;"/>
	<path d="M 544.0,380.0 L 545.0,380.0" style="stroke:#070107; fill:none;"/>
	<path d="M 632.0,380.0 L 631.0,382.0" style="stroke:#070107; fill:none;"/>
	<path d="M 564.0,381.0 L 565.0,381.0" style="stroke:#070107; fill:none;"/>
	<path d="M 775.0,383.0 L 780.0,392.0" style="stroke:#070107; fill:none;"/>
	<path d="M 562.0,383.0 L 562.0,384.0" style="stroke:#070107; fill:none;"/>
	<path d="M 414.0,384.0 L 414.0,385.0" style="stroke:#070107; fill:none;"/>
	<path d="M 532.0,384.0 L 531.0,385.0" style="stroke:#070107; fill:none;"/>
	<path d="M 560.0,385.0 L 559.0,387.0" style="stroke:#070107; fill:none;"/>
	<path d="M 540.0,386.0 L 540.0,387.0" style="stroke:#070107; fill:none;"/>
	<path d="M 634.0,386.0 L 635.0,386.0" style="stroke:#070107; fill:none;"/>
	<path d="M 410.0,387.0 L 412.0,391.0" style="stroke:#070107; fill:none;"/>
	<path d="M 612.0,387.0 L 613.0,390.0" style="stroke:#070107; fill:none;"/>
	<path d="M 627.0,387.0 L 627.0,388.0" style="stroke:#070107; fill:none;"/>
	<path d="M 738.0,388.0 L 738.0,389.0" style="stroke:#070107; fill:none;"/>
	<path d="M 542.0,390.0 L 542.0,391.0" style="stroke:#070107; fill:none;"/>
	<path d="M 624.0,390.0 L 625.0,390.0" style="stroke:#070107; fill:none;"/>
	<path d="M 408.0,392.0 L 410.0,392.0" style="stroke:#070107; fill:none;"/>
	<path d="M 554.0,392.0 L 555.0,392.0" style="stroke:#070107; fill:none;"/>
	<path d="M 576.0,392.0 L 574.0,393.0" style="stroke:#070107; fill:none;"/>
	<path d="M 741.0,393.0 L 741.0,394.0" style="stroke:#070107; fill:none;"/>
	<path d="M 589.0,394.0 L 589.0,395.0" style="stroke:#070107; fill:none;"/>
	<path d="M 574.0,395.0 L 575.0,395.0" style="stroke:#070107; fill:none;"/>
	<path d="M 596.0,395.0 L 595.0,397.0" style="stroke:#070107; fill:none;"/>
	<path d="M 738.0,395.0 L 738.0,396.0" style="stroke:#070107; fill:none;"/>
	<path d="M 623.0,397.0 L 625.0,398.0" style="stroke:#070107; fill:none;"/>
	<path d="M 741.0,397.0 L 743.0,398.0" style="stroke:#070107; fill:none;"/>
	<path d="M 576.0,398.0 L 576.0,401.0" style="stroke:#070107; fill:none;"/>
	<path d="M 590.0,399.0 L 591.0,399.0" style="stroke:#070107; fill:none;"/>
	<path d="M 782.0,399.0 L 784.0,399.0" style="stroke:#070107; fill:none;"/>
	<path d="M 551.0,400.0 L 551.0,402.0" style="stroke:#070107; fill:none;"/>
	<path d="M 621.0,401.0 L 622.0,401.0" style="stroke:#070107; fill:none;"/>
	<path d="M 743.0,401.0 L 745.0,402.0" style="stroke:#070107; fill:none;"/>
	<path d="M 610.0,402.0 L 610.0,403.0" style="stroke:#070107; fill:none;"/>
	<path d="M 569.0,403.0 L 567.0,406.0" style="stroke:#070107; fill:none;"/>
	<path d="M 746.0,405.0 L 746.0,406.0" style="stroke:#070107; fill:none;"/>
	<path d="M 785.0,405.0 L 787.0,406.0" style="stroke:#070107; fill:none;"/>
	<path d="M 378.0,407.0 L 377.0,410.0" style="stroke:#070107; fill:none;"/>
	<path d="M 548.0,410.0 L 548.0,411.0" style="stroke:#070107; fill:none;"/>
	<path d="M 581.0,410.0 L 589.0,414.0" style="stroke:#070107; fill:none;"/>
	<path d="M 371.0,415.0 L 369.0,420.0" style="stroke:#070107; fill:none;"/>
	<path d="M 771.0,416.0 L 772.0,416.0" style="stroke:#070107; fill:none;"/>
	<path d="M 372.0,418.0 L 372.0,421.0" style="stroke:#070107; fill:none;"/>
	<path d="M 754.0,419.0 L 755.0,422.0" style="stroke:#070107; fill:none;"/>
	<path d="M 778.0,420.0 L 778.0,421.0" style="stroke:#070107; fill:none;"/>
	<path d="M 560.0,421.0 L 554.0,429.0" style="stroke:#070107; fill:none;"/>
	<path d="M 787.0,421.0 L 791.0,423.0" style="stroke:#070107; fill:none;"/>
	<path d="M 570.0,422.0 L 569.0,423.0" style="stroke:#070107; fill:none;"/>
	<path d="M 369.0,423.0 L 366.0,428.0" style="stroke:#070107; fill:none;"/>
	<path d="M 772.0,423.0 L 772.0,424.0" style="stroke:#070107; fill:none;"/>
	<path d="M 348.0,424.0 L 349.0,424.0" style="stroke:#070107; fill:none;"/>
	<path d="M 566.0,425.0 L 567.0,425.0" style="stroke:#070107; fill:none;"/>
	<path d="M 781.0,425.0 L 783.0,426.0" style="stroke:#070107; fill:none;"/>
	<path d="M 346.0,427.0 L 345.0,433.0" style="stroke:#070107; fill:none;"/>
	<path d="M 757.0,427.0 L 759.0,428.0" style="stroke:#070107; fill:none;"/>
	<path d="M 785.0,429.0 L 788.0,433.0" style="stroke:#070107; fill:none;"/>
	<path d="M 557.0,432.0 L 559.0,431.0" style="stroke:#070107; fill:none;"/>
	<path d="M 782.0,431.0 L 782.0,432.0" style="stroke:#070107; fill:none;"/>
	<path d="M 757.0,432.0 L 758.0,434.0" style="stroke:#070107; fill:none;"/>
	<path d="M 761.0,432.0 L 762.0,432.0" style="stroke:#070107; fill:none;"/>
	<path d="M 777.0,432.0 L 781.0,442.0" style="stroke:#070107; fill:none;"/>
	<path d="M 783.0,434.0 L 785.0,435.0" style="stroke:#070107; fill:none;"/>
	<path d="M 349.0,435.0 L 348.0,436.0" style="stroke:#070107; fill:none;"/>
	<path d="M 353.0,436.0 L 352.0,437.0" style="stroke:#070107; fill:none;"/>
	<path d="M 765.0,436.0 L 769.0,441.0" style="stroke:#070107; fill:none;"/>
	<path d="M 343.0,437.0 L 344.0,437.0" style="stroke:#070107; fill:none;"/>
	<path d="M 786.0,438.0 L 785.0,439.0" style="stroke:#070107; fill:none;"/>
	<path d="M 774.0,440.0 L 776.0,440.0" style="stroke:#070107; fill:none;"/>
	<path d="M 337.0,441.0 L 337.0,442.0" style="stroke:#070107; fill:none;"/>
	<path d="M 341.0,444.0 L 343.0,443.0" style="stroke:#070107; fill:none;"/>
	<path d="M 778.0,444.0 L 778.0,445.0" style="stroke:#070107; fill:none;"/>
	<path d="M 339.0,446.0 L 339.0,447.0" style="stroke:#070107; fill:none;"/>
	<path d="M 768.0,449.0 L 769.0,451.0" style="stroke:#070107; fill:none;"/>
	<path d="M 326.0,451.0 L 325.0,452.0" style="stroke:#070107; fill:none;"/>
	<path d="M 305.0,463.0 L 304.0,464.0" style="stroke:#070107; fill:none;"/>
	<path d="M 454.0,466.0 L 455.0,466.0" style="stroke:#070107; fill:none;"/>
	<path d="M 385.0,469.0 L 385.0,470.0" style="stroke:#070107; fill:none;"/>
	<path d="M 407.0,471.0 L 409.0,470.0" style="stroke:#070107; fill:none;"/>
	<path d="M 411.0,470.0 L 411.0,471.0" style="stroke:#070107; fill:none;"/>
	<path d="M 416.0,470.0 L 420.0,471.0" style="stroke:#070107; fill:none;"/>
	<path d="M 425.0,470.0 L 427.0,470.0" style="stroke:#070107; fill:none;"/>
	<path d="M 397.0,472.0 L 401.0,471.0" style="stroke:#070107; fill:none;"/>
	<path d="M 403.0,471.0 L 405.0,471.0" style="stroke:#070107; fill:none;"/>
	<path d="M 431.0,471.0 L 433.0,471.0" style="stroke:#070107; fill:none;"/>
	<path d="M 396.0,478.0 L 397.0,478.0" style="stroke:#070107; fill:none;"/>
	<path d="M 446.0,480.0 L 446.0,481.0" style="stroke:#070107; fill:none;"/>
	<path d="M 450.0,481.0 L 452.0,480.0" style="stroke:#070107; fill:none;"/>
	<path d="M 408.0,481.0 L 408.0,482.0" style="stroke:#070107; fill:none;"/>
	<path d="M 442.0,481.0 L 444.0,482.0" style="stroke:#070107; fill:none;"/>
	<path d="M 487.0,481.0 L 489.0,482.0" style="stroke:#070107; fill:none;"/>
	<path d="M 381.0,484.0 L 385.0,482.0" style="stroke:#070107; fill:none;"/>
	<path d="M 425.0,485.0 L 428.0,484.0" style="stroke:#070107; fill:none;"/>
	<path d="M 431.0,484.0 L 432.0,484.0" style="stroke:#070107; fill:none;"/>
	<path d="M 384.0,486.0 L 387.0,485.0" style="stroke:#070107; fill:none;"/>
	<path d="M 419.0,486.0 L 421.0,486.0" style="stroke:#070107; fill:none;"/>
	<path d="M 291.0,487.0 L 291.0,488.0" style="stroke:#070107; fill:none;"/>
	<path d="M 377.0,487.0 L 378.0,488.0" style="stroke:#070107; fill:none;"/>
	<path d="M 407.0,491.0 L 414.0,488.0" style="stroke:#070107; fill:none;"/>
	<path d="M 374.0,489.0 L 373.0,491.0" style="stroke:#070107; fill:none;"/>
	<path d="M 397.0,490.0 L 398.0,490.0" style="stroke:#070107; fill:none;"/>
	<path d="M 369.0,491.0 L 365.0,494.0" style="stroke:#070107; fill:none;"/>
	<path d="M 379.0,491.0 L 379.0,492.0" style="stroke:#070107; fill:none;"/>
	<path d="M 361.0,492.0 L 361.0,493.0" style="stroke:#070107; fill:none;"/>
	<path d="M 399.0,493.0 L 401.0,493.0" style="stroke:#070107; fill:none;"/>
	<path d="M 386.0,494.0 L 387.0,495.0" style="stroke:#070107; fill:none;"/>
	<path d="M 382.0,495.0 L 383.0,495.0" style="stroke:#070107; fill:none;"/>
	<path d="M 460.0,495.0 L 460.0,496.0" style="stroke:#070107; fill:none;"/>
	<path d="M 362.0,496.0 L 361.0,497.0" style="stroke:#070107; fill:none;"/>
	<path d="M 447.0,496.0 L 448.0,496.0" style="stroke:#070107; fill:none;"/>
	<path d="M 390.0,497.0 L 392.0,497.0" style="stroke:#070107; fill:none;"/>
	<path d="M 439.0,497.0 L 439.0,498.0" style="stroke:#070107; fill:none;"/>
	<path d="M 281.0,498.0 L 283.0,499.0" style="stroke:#070107; fill:none;"/>
	<path d="M 357.0,499.0 L 358.0,499.0" style="stroke:#070107; fill:none;"/>
	<path d="M 425.0,499.0 L 424.0,500.0" style="stroke:#070107; fill:none;"/>
	<path d="M 451.0,500.0 L 449.0,501.0" style="stroke:#070107; fill:none;"/>
	<path d="M 355.0,503.0 L 358.0,502.0" style="stroke:#070107; fill:none;"/>
	<path d="M 373.0,501.0 L 373.0,502.0" style="stroke:#070107; fill:none;"/>
	<path d="M 416.0,501.0 L 418.0,501.0" style="stroke:#070107; fill:none;"/>
	<path d="M 407.0,502.0 L 406.0,503.0" style="stroke:#070107; fill:none;"/>
	<path d="M 439.0,503.0 L 440.0,509.0" style="stroke:#070107; fill:none;"/>
	<path d="M 329.0,504.0 L 330.0,504.0" style="stroke:#070107; fill:none;"/>
	<path d="M 345.0,504.0 L 346.0,504.0" style="stroke:#070107; fill:none;"/>
	<path d="M 403.0,504.0 L 398.0,506.0" style="stroke:#070107; fill:none;"/>
	<path d="M 422.0,504.0 L 423.0,509.0" style="stroke:#070107; fill:none;"/>
	<path d="M 342.0,505.0 L 341.0,506.0" style="stroke:#070107; fill:none;"/>
	<path d="M 795.0,505.0 L 797.0,508.0" style="stroke:#070107; fill:none;"/>
	<path d="M 349.0,508.0 L 352.0,506.0" style="stroke:#070107; fill:none;"/>
	<path d="M 336.0,507.0 L 337.0,507.0" style="stroke:#070107; fill:none;"/>
	<path d="M 394.0,507.0 L 395.0,507.0" style="stroke:#070107; fill:none;"/>
	<path d="M 334.0,512.0 L 334.0,514.0" style="stroke:#070107; fill:none;"/>
	<path d="M 370.0,512.0 L 370.0,513.0" style="stroke:#070107; fill:none;"/>
	<path d="M 386.0,513.0 L 389.0,513.0" style="stroke:#070107; fill:none;"/>
	<path d="M 405.0,513.0 C 407.747,512.171 409.0,512.012 409.0,515.0" style="stroke:#070107; fill:none;"/>
	<path d="M 798.0,512.0 L 797.0,514.0" style="stroke:#070107; fill:none;"/>
	<path d="M 424.0,513.0 L 423.0,520.0" style="stroke:#070107; fill:none;"/>
	<path d="M 368.0,514.0 L 368.0,515.0" style="stroke:#070107; fill:none;"/>
	<path d="M 284.0,516.0 L 285.0,518.0" style="stroke:#070107; fill:none;"/>
	<path d="M 372.0,535.0 C 375.127,528.739 379.501,520.134 386.0,517.0" style="stroke:#070107; fill:none;"/>
	<path d="M 366.0,517.0 L 365.0,519.0" style="stroke:#070107; fill:none;"/>
	<path d="M 326.0,526.0 L 326.0,527.0" style="stroke:#070107; fill:none;"/>
	<path d="M 372.0,527.0 L 375.0,528.0" style="stroke:#070107; fill:none;"/>
	<path d="M 388.0,527.0 L 390.0,529.0" style="stroke:#070107; fill:none;"/>
	<path d="M 417.0,528.0 L 419.0,527.0" style="stroke:#070107; fill:none;"/>
	<path d="M 393.0,530.0 L 395.0,530.0" style="stroke:#070107; fill:none;"/>
	<path d="M 413.0,531.0 L 406.0,534.0" style="stroke:#070107; fill:none;"/>
	<path d="M 398.0,532.0 L 400.0,533.0" style="stroke:#070107; fill:none;"/>
	<path d="M 408.0,532.0 L 409.0,533.0" style="stroke:#070107; fill:none;"/>
	<path d="M 358.0,533.0 L 357.0,537.0" style="stroke:#070107; fill:none;"/>
	<path d="M 651.0,533.0 L 653.0,537.0" style="stroke:#070107; fill:none;"/>
	<path d="M 370.0,538.0 L 368.0,546.0" style="stroke:#070107; fill:none;"/>
	<path d="M 400.0,538.0 L 401.0,538.0" style="stroke:#070107; fill:none;"/>
	<path d="M 394.0,541.0 L 396.0,539.0" style="stroke:#070107; fill:none;"/>
	<path d="M 356.0,541.0 L 357.0,541.0" style="stroke:#070107; fill:none;"/>
	<path d="M 386.0,541.0 L 386.0,542.0" style="stroke:#070107; fill:none;"/>
	<path d="M 377.0,542.0 L 378.0,542.0" style="stroke:#070107; fill:none;"/>
	<path d="M 380.0,542.0 L 382.0,542.0" style="stroke:#070107; fill:none;"/>
	<path d="M 299.0,543.0 L 302.0,547.0" style="stroke:#070107; fill:none;"/>
	<path d="M 356.0,543.0 L 356.0,546.0" style="stroke:#070107; fill:none;"/>
	<path d="M 805.0,543.0 L 804.0,547.0" style="stroke:#070107; fill:none;"/>
	<path d="M 320.0,548.0 L 322.0,549.0" style="stroke:#070107; fill:none;"/>
	<path d="M 366.0,548.0 L 365.0,549.0" style="stroke:#070107; fill:none;"/>
	<path d="M 648.0,549.0 L 649.0,549.0" style="stroke:#070107; fill:none;"/>
	<path d="M 364.0,551.0 L 363.0,552.0" style="stroke:#070107; fill:none;"/>
	<path d="M 804.0,551.0 L 805.0,551.0" style="stroke:#070107; fill:none;"/>
	<path d="M 381.0,553.0 L 381.0,554.0" style="stroke:#070107; fill:none;"/>
	<path d="M 312.0,554.0 L 312.0,555.0" style="stroke:#070107; fill:none;"/>
	<path d="M 805.0,554.0 L 804.0,556.0" style="stroke:#070107; fill:none;"/>
	<path d="M 631.0,566.0 L 643.0,555.0" style="stroke:#070107; fill:none;"/>
	<path d="M 356.0,556.0 L 356.0,558.0" style="stroke:#070107; fill:none;"/>
	<path d="M 716.0,562.0 L 719.0,561.0" style="stroke:#070107; fill:none;"/>
	<path d="M 803.0,562.0 L 804.0,569.0" style="stroke:#070107; fill:none;"/>
	<path d="M 354.0,565.0 L 355.0,566.0" style="stroke:#070107; fill:none;"/>
	<path d="M 629.0,568.0 L 630.0,569.0" style="stroke:#070107; fill:none;"/>
	<path d="M 409.0,569.0 L 408.0,570.0" style="stroke:#070107; fill:none;"/>
	<path d="M 702.0,571.0 L 703.0,571.0" style="stroke:#070107; fill:none;"/>
	<path d="M 627.0,573.0 L 629.0,572.0" style="stroke:#070107; fill:none;"/>
	<path d="M 699.0,572.0 L 696.0,578.0" style="stroke:#070107; fill:none;"/>
	<path d="M 626.0,577.0 L 626.0,578.0" style="stroke:#070107; fill:none;"/>
	<path d="M 625.0,580.0 L 625.0,581.0" style="stroke:#070107; fill:none;"/>
	<path d="M 682.0,591.0 L 690.0,582.0" style="stroke:#070107; fill:none;"/>
	<path d="M 623.0,583.0 L 623.0,585.0" style="stroke:#070107; fill:none;"/>
	<path d="M 803.0,583.0 L 803.0,589.0" style="stroke:#070107; fill:none;"/>
	<path d="M 684.0,592.0 L 684.0,594.0" style="stroke:#070107; fill:none;"/>
	<path d="M 508.0,593.0 L 508.0,594.0" style="stroke:#070107; fill:none;"/>
	<path d="M 681.0,598.0 L 680.0,599.0" style="stroke:#070107; fill:none;"/>
	<path d="M 801.0,598.0 L 802.0,598.0" style="stroke:#070107; fill:none;"/>
	<path d="M 677.0,602.0 L 679.0,602.0" style="stroke:#070107; fill:none;"/>
	<path d="M 510.0,603.0 L 510.0,606.0" style="stroke:#070107; fill:none;"/>
	<path d="M 669.0,603.0 L 669.0,605.0" style="stroke:#070107; fill:none;"/>
	<path d="M 676.0,605.0 L 677.0,606.0" style="stroke:#070107; fill:none;"/>
	<path d="M 800.0,607.0 L 801.0,607.0" style="stroke:#070107; fill:none;"/>
	<path d="M 665.0,609.0 L 663.0,611.0" style="stroke:#070107; fill:none;"/>
	<path d="M 511.0,610.0 L 513.0,614.0" style="stroke:#070107; fill:none;"/>
	<path d="M 559.0,611.0 L 571.0,610.0" style="stroke:#070107; fill:none;"/>
	<path d="M 577.0,611.0 L 579.0,610.0" style="stroke:#070107; fill:none;"/>
	<path d="M 800.0,612.0 L 800.0,613.0" style="stroke:#070107; fill:none;"/>
	<path d="M 553.0,613.0 L 555.0,614.0" style="stroke:#070107; fill:none;"/>
	<path d="M 549.0,614.0 L 550.0,614.0" style="stroke:#070107; fill:none;"/>
	<path d="M 803.0,614.0 L 803.0,615.0" style="stroke:#070107; fill:none;"/>
	<path d="M 670.0,615.0 L 669.0,616.0" style="stroke:#070107; fill:none;"/>
	<path d="M 515.0,616.0 L 516.0,619.0" style="stroke:#070107; fill:none;"/>
	<path d="M 800.0,616.0 L 799.0,617.0" style="stroke:#070107; fill:none;"/>
	<path d="M 542.0,618.0 L 543.0,618.0" style="stroke:#070107; fill:none;"/>
	<path d="M 655.0,620.0 L 656.0,618.0" style="stroke:#070107; fill:none;"/>
	<path d="M 667.0,618.0 L 668.0,618.0" style="stroke:#070107; fill:none;"/>
	<path d="M 639.0,620.0 L 640.0,621.0" style="stroke:#070107; fill:none;"/>
	<path d="M 517.0,621.0 L 520.0,623.0" style="stroke:#070107; fill:none;"/>
	<path d="M 539.0,623.0 L 540.0,623.0" style="stroke:#070107; fill:none;"/>
	<path d="M 664.0,623.0 L 663.0,624.0" style="stroke:#070107; fill:none;"/>
	<path d="M 522.0,625.0 L 526.0,625.0" style="stroke:#070107; fill:none;"/>
	<path d="M 658.0,625.0 L 657.0,633.0" style="stroke:#070107; fill:none;"/>
	<path d="M 799.0,626.0 L 799.0,627.0" style="stroke:#070107; fill:none;"/>
	<path d="M 799.0,629.0 L 800.0,629.0" style="stroke:#070107; fill:none;"/>
	<path d="M 630.0,637.0 L 630.0,638.0" style="stroke:#070107; fill:none;"/>
	<path d="M 796.0,642.0 L 797.0,642.0" style="stroke:#070107; fill:none;"/>
	<path d="M 619.0,643.0 L 620.0,643.0" style="stroke:#070107; fill:none;"/>
	<path d="M 634.0,645.0 L 634.0,647.0" style="stroke:#070107; fill:none;"/>
	<path d="M 361.0,649.0 L 361.0,650.0" style="stroke:#070107; fill:none;"/>
	<path d="M 796.0,649.0 L 796.0,650.0" style="stroke:#070107; fill:none;"/>
	<path d="M 600.0,653.0 L 600.0,654.0" style="stroke:#070107; fill:none;"/>
	<path d="M 601.0,656.0 L 602.0,656.0" style="stroke:#070107; fill:none;"/>
	<path d="M 606.0,662.0 L 607.0,662.0" style="stroke:#070107; fill:none;"/>
	<path d="M 373.0,663.0 L 374.0,666.0" style="stroke:#070107; fill:none;"/>
	<path d="M 581.0,666.0 L 583.0,664.0" style="stroke:#070107; fill:none;"/>
	<path d="M 609.0,664.0 L 611.0,664.0" style="stroke:#070107; fill:none;"/>
	<path d="M 602.0,668.0 L 602.0,669.0" style="stroke:#070107; fill:none;"/>
	<path d="M 373.0,670.0 L 377.0,670.0" style="stroke:#070107; fill:none;"/>
	<path d="M 599.0,670.0 L 600.0,670.0" style="stroke:#070107; fill:none;"/>
	<path d="M 566.0,674.0 L 570.0,672.0" style="stroke:#070107; fill:none;"/>
	<path d="M 593.0,672.0 L 593.0,673.0" style="stroke:#070107; fill:none;"/>
	<path d="M 790.0,672.0 L 791.0,673.0" style="stroke:#070107; fill:none;"/>
	<path d="M 378.0,673.0 L 380.0,676.0" style="stroke:#070107; fill:none;"/>
	<path d="M 570.0,676.0 L 570.0,677.0" style="stroke:#070107; fill:none;"/>
	<path d="M 789.0,676.0 L 789.0,677.0" style="stroke:#070107; fill:none;"/>
	<path d="M 553.0,681.0 L 563.0,677.0" style="stroke:#070107; fill:none;"/>
	<path d="M 381.0,679.0 L 381.0,680.0" style="stroke:#070107; fill:none;"/>
	<path d="M 786.0,684.0 L 787.0,685.0" style="stroke:#070107; fill:none;"/>
	<path d="M 581.0,693.0 L 581.0,694.0" style="stroke:#070107; fill:none;"/>
	<path d="M 390.0,695.0 L 391.0,699.0" style="stroke:#070107; fill:none;"/>
	<path d="M 784.0,697.0 L 782.0,698.0" style="stroke:#070107; fill:none;"/>
	<path d="M 394.0,702.0 L 394.0,703.0" style="stroke:#070107; fill:none;"/>
	<path d="M 402.0,712.0 L 402.0,713.0" style="stroke:#070107; fill:none;"/>
	<path d="M 406.0,718.0 L 406.0,719.0" style="stroke:#070107; fill:none;"/>
	<path d="M 408.0,721.0 L 409.0,721.0" style="stroke:#070107; fill:none;"/>
	<path d="M 417.0,730.0 L 417.0,731.0" style="stroke:#070107; fill:none;"/>
	<path d="M 420.0,733.0 L 420.0,734.0" style="stroke:#070107; fill:none;"/>
	<path d="M 422.0,736.0 L 425.0,737.0" style="stroke:#070107; fill:none;"/>
	<path d="M 427.0,740.0 L 427.0,741.0" style="stroke:#070107; fill:none;"/>
	<path d="M 432.0,743.0 L 432.0,744.0" style="stroke:#070107; fill:none;"/>
	<path d="M 444.0,752.0 L 446.0,752.0" style="stroke:#070107; fill:none;"/>
	<path d="M 451.0,756.0 L 452.0,756.0" style="stroke:#070107; fill:none;"/>
	<path d="M 463.0,762.0 L 464.0,762.0" style="stroke:#070107; fill:none;"/>
	<path d="M 470.0,765.0 L 511.0,781.0" style="stroke:#070107; fill:none;"/>
	<path d="M 476.0,768.0 L 476.0,771.0" style="stroke:#070107; fill:none;"/>
	<path d="M 719.0,784.0 L 723.0,781.0" style="stroke:#070107; fill:none;"/>
	<path d="M 504.0,782.0 L 505.0,784.0" style="stroke:#070107; fill:none;"/>
	<path d="M 513.0,782.0 L 514.0,783.0" style="stroke:#070107; fill:none;"/>
	<path d="M 717.0,785.0 L 715.0,787.0" style="stroke:#070107; fill:none;"/>
	<path d="M 516.0,787.0 L 517.0,787.0" style="stroke:#070107; fill:none;"/>
	<path d="M 523.0,787.0 L 525.0,787.0" style="stroke:#070107; fill:none;"/>
	<path d="M 528.0,789.0 L 537.0,791.0" style="stroke:#070107; fill:none;"/>
	<path d="M 708.0,789.0 L 708.0,791.0" style="stroke:#070107; fill:none;"/>
	<path d="M 545.0,793.0 L 548.0,794.0" style="stroke:#070107; fill:none;"/>
	<path d="M 550.0,794.0 L 555.0,796.0" style="stroke:#070107; fill:none;"/>
	<path d="M 559.0,798.0 L 561.0,799.0" style="stroke:#070107; fill:none;"/>
	<path d="M 689.0,801.0 L 692.0,801.0" style="stroke:#070107; fill:none;"/>
	<path d="M 571.0,801.0 L 571.0,802.0" style="stroke:#070107; fill:none;"/>
	<path d="M 573.0,803.0 L 574.0,803.0" style="stroke:#070107; fill:none;"/>
	<path d="M 684.0,803.0 L 683.0,804.0" style="stroke:#070107; fill:none;"/>
	<path d="M 675.0,806.0 L 673.0,807.0" style="stroke:#070107; fill:none;"/>
	<path d="M 666.0,809.0 L 669.0,809.0" style="stroke:#070107; fill:none;"/>
	<path d="M 613.0,811.0 L 613.0,812.0" style="stroke:#070107; fill:none;"/>
	<path d="M 659.0,811.0 L 660.0,811.0" style="stroke:#070107; fill:none;"/>
	<path d="M 619.0,812.0 L 619.0,813.0" style="stroke:#070107; fill:none;"/>
	<path d="M 633.0,812.0 L 636.0,812.0" style="stroke:#070107; fill:none;"/>
	<path d="M 638.0,812.0 L 639.0,812.0" style="stroke:#070107; fill:none;"/>
</svg>
