<?xml version="1.0" ?>
<svg baseProfile="full" height="2577" version="1.1" width="1990" xmlns="http://www.w3.org/2000/svg" xmlns:ev="http://www.w3.org/2001/xml-events" xmlns:xlink="http://www.w3.org/1999/xlink">
	<defs/>
	<path d="M 206.0,852.0 C 205.998,866.232 206.181,881.941 208.44,896.0 C 209.939,905.332 214.539,913.175 213.91,923.0 C 213.29,932.682 208.236,940.778 206.259,950.0 C 201.66,971.462 197.178,995.03 197.179,1017.0 C 197.179,1023.41 199.465,1029.64 199.91,1036.0 C 202.01,1065.95 204.97,1096.92 202.91,1127.0 C 201.329,1150.1 195.377,1172.9 193.17,1196.0 C 186.712,1263.59 187.181,1334.91 198.435,1402.0 C 203.523,1432.33 209.811,1462.4 221.452,1491.0 C 231.947,1516.78 245.943,1541.15 258.398,1566.0 C 288.828,1626.71 323.572,1684.93 356.941,1744.0 C 361.878,1752.74 364.811,1762.94 369.258,1772.0 C 378.597,1791.04 389.567,1809.45 399.861,1828.0 C 414.377,1854.16 432.569,1878.07 445.726,1905.0 C 466.085,1946.68 484.421,1991.65 512.475,2029.0 C 547.5,2075.63 584.751,2113.33 636.0,2141.64 C 646.974,2147.71 656.802,2154.32 669.0,2158.1 C 694.915,2166.14 727.594,2163.53 754.0,2160.7 C 761.728,2159.88 769.175,2160.99 777.0,2159.58 C 840.192,2148.18 900.808,2114.3 950.0,2074.38 C 1016.8,2020.17 1078.4,1964.03 1137.09,1901.0 C 1169.34,1866.37 1201.95,1830.28 1225.57,1789.0 C 1252.14,1742.59 1265.66,1692.89 1280.0,1642.0" style="stroke:#010101; fill:none;"/>
	<path d="M 201.0,855.0 L 200.0,857.0" style="stroke:#010101; fill:none;"/>
	<path d="M 200.0,870.0 L 205.0,863.0" style="stroke:#010101; fill:none;"/>
	<path d="M 200.0,878.0 L 206.0,871.0" style="stroke:#010101; fill:none;"/>
	<path d="M 831.0,877.0 C 849.867,878.502 868.643,886.8 886.0,893.799 C 901.397,900.008 917.633,905.615 932.0,914.0 C 923.248,917.164 906.568,906.655 898.0,903.424 C 872.581,893.836 842.51,880.018 815.0,880.0" style="stroke:#010101; fill:none;"/>
	<path d="M 201.0,889.0 L 207.0,881.0" style="stroke:#010101; fill:none;"/>
	<path d="M 868.0,883.0 C 893.021,886.373 918.99,900.792 942.0,910.719 C 951.375,914.764 960.513,913.958 969.0,920.0 L 955.0,916.0" style="stroke:#010101; fill:none;"/>
	<path d="M 777.0,885.0 L 797.0,885.944 L 806.0,887.0 L 801.0,886.0" style="stroke:#010101; fill:none;"/>
	<path d="M 795.0,886.0 L 799.0,887.0" style="stroke:#010101; fill:none;"/>
	<path d="M 806.0,887.0 C 853.392,890.772 899.47,915.486 944.0,930.0" style="stroke:#010101; fill:none;"/>
	<path d="M 757.0,888.0 C 817.58,897.067 873.95,916.11 932.0,935.0" style="stroke:#010101; fill:none;"/>
	<path d="M 691.0,890.0 C 731.463,888.262 777.646,891.318 816.0,906.0 C 806.659,913.287 797.976,908.223 788.0,905.0 L 789.0,907.0 L 790.0,908.0" style="stroke:#010101; fill:none;"/>
	<path d="M 901.0,889.0 L 956.0,913.0" style="stroke:#010101; fill:none;"/>
	<path d="M 806.0,890.0 C 847.284,895.56 884.825,917.701 925.0,927.0" style="stroke:#010101; fill:none;"/>
	<path d="M 672.0,893.0 C 707.955,895.13 746.065,892.952 781.0,904.0 L 776.0,907.0 L 813.0,916.404 L 859.0,926.0" style="stroke:#010101; fill:none;"/>
	<path d="M 675.0,894.0 L 659.0,906.0" style="stroke:#010101; fill:none;"/>
	<path d="M 687.0,902.0 L 692.0,901.0 L 660.0,911.0" style="stroke:#010101; fill:none;"/>
	<path d="M 692.0,901.0 L 749.0,903.428 L 768.0,906.62 L 779.0,910.0" style="stroke:#010101; fill:none;"/>
	<path d="M 713.0,902.0 L 715.0,902.0" style="stroke:#010101; fill:none;"/>
	<path d="M 781.0,904.0 L 786.0,906.0" style="stroke:#010101; fill:none;"/>
	<path d="M 773.0,907.0 L 770.0,907.0 L 775.0,907.0" style="stroke:#010101; fill:none;"/>
	<path d="M 651.0,926.0 C 673.183,913.053 699.374,906.0 725.0,906.0" style="stroke:#010101; fill:none;"/>
	<path d="M 781.0,906.0 L 785.0,907.0" style="stroke:#010101; fill:none;"/>
	<path d="M 816.0,906.0 L 824.0,909.0 C 819.518,912.698 816.435,912.402 811.0,911.0" style="stroke:#010101; fill:none;"/>
	<path d="M 645.0,907.0 L 618.0,942.0" style="stroke:#010101; fill:none;"/>
	<path d="M 655.0,948.0 C 661.7,938.923 674.846,933.387 685.0,929.0 C 702.421,921.473 720.444,914.666 739.0,910.459 C 746.9,908.668 755.195,909.468 763.0,907.0" style="stroke:#010101; fill:none;"/>
	<path d="M 819.0,908.0 L 815.0,909.0" style="stroke:#010101; fill:none;"/>
	<path d="M 641.0,948.0 C 661.955,922.285 704.718,909.0 737.0,909.0" style="stroke:#010101; fill:none;"/>
	<path d="M 824.0,909.0 L 839.0,912.0 L 836.0,911.0" style="stroke:#010101; fill:none;"/>
	<path d="M 618.0,930.0 L 635.0,910.0" style="stroke:#010101; fill:none;"/>
	<path d="M 782.0,911.0 L 783.0,911.0" style="stroke:#010101; fill:none;"/>
	<path d="M 833.0,911.0 C 828.859,914.416 826.037,914.688 821.0,913.0" style="stroke:#010101; fill:none;"/>
	<path d="M 839.0,912.0 L 843.0,916.0 L 830.0,915.0" style="stroke:#010101; fill:none;"/>
	<path d="M 671.0,945.0 C 677.193,937.771 688.41,933.976 697.0,930.281 C 721.613,919.692 749.017,912.401 776.0,914.0" style="stroke:#010101; fill:none;"/>
	<path d="M 836.0,913.0 L 833.0,916.0" style="stroke:#010101; fill:none;"/>
	<path d="M 842.0,913.0 L 846.0,914.0 L 844.0,916.0" style="stroke:#010101; fill:none;"/>
	<path d="M 619.0,914.0 C 613.971,931.457 598.624,945.403 597.0,964.0" style="stroke:#010101; fill:none;"/>
	<path d="M 647.0,914.0 C 641.748,929.374 629.075,940.105 620.0,953.0" style="stroke:#010101; fill:none;"/>
	<path d="M 840.0,914.0 L 838.0,916.0" style="stroke:#010101; fill:none;"/>
	<path d="M 846.0,914.0 L 849.0,915.0 L 847.0,917.0 L 845.0,915.0" style="stroke:#010101; fill:none;"/>
	<path d="M 933.0,914.0 L 931.0,916.0" style="stroke:#010101; fill:none;"/>
	<path d="M 959.0,914.0 L 956.0,917.0" style="stroke:#010101; fill:none;"/>
	<path d="M 849.0,915.0 L 858.0,922.0 L 855.0,918.0" style="stroke:#010101; fill:none;"/>
	<path d="M 934.0,915.0 L 939.0,917.0 L 933.0,917.0" style="stroke:#010101; fill:none;"/>
	<path d="M 960.0,915.0 L 960.0,918.0" style="stroke:#010101; fill:none;"/>
	<path d="M 975.0,915.0 C 973.459,922.471 977.866,923.034 984.0,924.0 C 979.522,927.326 977.185,926.378 973.0,923.0 L 965.0,944.0" style="stroke:#010101; fill:none;"/>
	<path d="M 848.0,916.0 L 852.0,917.0" style="stroke:#010101; fill:none;"/>
	<path d="M 962.0,916.0 L 962.0,919.0" style="stroke:#010101; fill:none;"/>
	<path d="M 842.0,917.0 L 847.0,917.0 L 847.0,917.0" style="stroke:#010101; fill:none;"/>
	<path d="M 940.0,917.0 L 938.0,919.0" style="stroke:#010101; fill:none;"/>
	<path d="M 964.0,917.0 L 964.0,920.0" style="stroke:#010101; fill:none;"/>
	<path d="M 654.0,918.0 L 631.0,949.0" style="stroke:#010101; fill:none;"/>
	<path d="M 793.0,920.0 C 789.039,921.327 786.15,922.025 783.0,919.0 L 819.0,919.0" style="stroke:#010101; fill:none;"/>
	<path d="M 851.0,918.0 L 848.0,920.0" style="stroke:#010101; fill:none;"/>
	<path d="M 942.0,918.0 L 940.0,920.0" style="stroke:#010101; fill:none;"/>
	<path d="M 966.0,918.0 L 966.0,921.0" style="stroke:#010101; fill:none;"/>
	<path d="M 783.0,922.0 L 765.0,922.0 L 783.0,919.0" style="stroke:#010101; fill:none;"/>
	<path d="M 850.0,919.0 L 853.0,921.0" style="stroke:#010101; fill:none;"/>
	<path d="M 859.0,919.0 L 876.0,925.0 L 859.0,923.0" style="stroke:#010101; fill:none;"/>
	<path d="M 943.0,919.0 L 946.0,920.0 L 942.0,921.0" style="stroke:#010101; fill:none;"/>
	<path d="M 776.0,920.0 L 776.0,922.0" style="stroke:#010101; fill:none;"/>
	<path d="M 863.0,920.0 L 861.0,922.0" style="stroke:#010101; fill:none;"/>
	<path d="M 947.0,920.0 L 945.0,922.0" style="stroke:#010101; fill:none;"/>
	<path d="M 970.0,920.0 L 972.0,925.0" style="stroke:#010101; fill:none;"/>
	<path d="M 601.0,921.0 L 590.0,953.0" style="stroke:#010101; fill:none;"/>
	<path d="M 766.0,923.0 L 761.0,926.0 C 760.506,922.863 760.964,922.0 764.0,921.0" style="stroke:#010101; fill:none;"/>
	<path d="M 771.0,921.0 L 771.0,923.0" style="stroke:#010101; fill:none;"/>
	<path d="M 834.0,921.0 C 824.029,926.321 807.305,923.791 796.0,925.428 C 770.754,929.084 746.727,935.797 723.0,945.0" style="stroke:#010101; fill:none;"/>
	<path d="M 865.0,921.0 L 865.0,923.0" style="stroke:#010101; fill:none;"/>
	<path d="M 949.0,921.0 L 963.0,928.0" style="stroke:#010101; fill:none;"/>
	<path d="M 968.0,921.0 L 970.0,923.0" style="stroke:#010101; fill:none;"/>
	<path d="M 972.0,921.0 L 973.0,922.0" style="stroke:#010101; fill:none;"/>
	<path d="M 759.0,926.0 L 755.0,923.0 L 760.0,922.0" style="stroke:#010101; fill:none;"/>
	<path d="M 869.0,922.0 L 869.0,924.0" style="stroke:#010101; fill:none;"/>
	<path d="M 950.0,922.0 L 947.0,923.0" style="stroke:#010101; fill:none;"/>
	<path d="M 755.0,927.0 L 751.0,927.0 L 755.0,923.0" style="stroke:#010101; fill:none;"/>
	<path d="M 952.0,923.0 L 951.0,925.0" style="stroke:#010101; fill:none;"/>
	<path d="M 750.0,928.0 C 746.929,926.267 747.933,924.809 751.0,924.0" style="stroke:#010101; fill:none;"/>
	<path d="M 954.0,924.0 L 953.0,926.0" style="stroke:#010101; fill:none;"/>
	<path d="M 978.0,924.0 L 976.0,926.0" style="stroke:#010101; fill:none;"/>
	<path d="M 980.0,924.0 L 983.0,926.0" style="stroke:#010101; fill:none;"/>
	<path d="M 985.0,924.0 L 981.0,928.0" style="stroke:#010101; fill:none;"/>
	<path d="M 746.0,929.0 L 742.0,927.0 L 747.0,925.0" style="stroke:#010101; fill:none;"/>
	<path d="M 851.0,925.0 C 841.916,929.848 826.324,928.137 816.0,929.169 C 794.587,931.31 772.547,934.43 752.0,941.0" style="stroke:#010101; fill:none;"/>
	<path d="M 876.0,925.0 L 879.0,926.0 L 877.0,928.0 L 875.0,926.0" style="stroke:#010101; fill:none;"/>
	<path d="M 956.0,925.0 L 955.0,927.0" style="stroke:#010101; fill:none;"/>
	<path d="M 979.0,925.0 L 979.0,927.0" style="stroke:#010101; fill:none;"/>
	<path d="M 986.0,925.0 L 1001.0,932.0 C 997.939,936.272 997.986,939.218 1000.0,944.0" style="stroke:#010101; fill:none;"/>
	<path d="M 291.0,930.0 C 317.01,920.187 361.786,923.84 387.0,935.0 C 381.163,937.638 374.076,934.408 368.0,933.2 C 356.169,930.848 344.047,929.41 332.0,929.116 C 326.502,928.981 316.326,926.869 313.0,932.0 C 346.009,931.799 375.861,939.814 406.0,953.14 C 416.649,957.848 431.551,963.719 439.737,972.183 C 444.629,977.24 448.247,985.016 452.0,991.0" style="stroke:#010101; fill:none;"/>
	<path d="M 604.0,926.0 C 598.061,937.152 593.686,951.478 592.0,964.0" style="stroke:#010101; fill:none;"/>
	<path d="M 881.0,929.0 L 904.0,934.0" style="stroke:#010101; fill:none;"/>
	<path d="M 959.0,926.0 L 957.0,928.0" style="stroke:#010101; fill:none;"/>
	<path d="M 995.0,926.0 L 995.0,927.0" style="stroke:#010101; fill:none;"/>
	<path d="M 742.0,928.0 L 737.0,928.0 L 742.0,928.0" style="stroke:#010101; fill:none;"/>
	<path d="M 881.0,927.0 C 876.395,934.13 860.459,930.445 853.0,931.424 C 824.89,935.115 796.526,935.188 769.0,943.0" style="stroke:#010101; fill:none;"/>
	<path d="M 883.0,927.0 L 885.0,928.0" style="stroke:#010101; fill:none;"/>
	<path d="M 738.0,930.0 C 735.189,930.9 734.302,929.381 737.0,928.0 L 737.0,928.0" style="stroke:#010101; fill:none;"/>
	<path d="M 986.0,930.0 L 988.0,929.0 L 983.0,929.0" style="stroke:#010101; fill:none;"/>
	<path d="M 735.0,931.0 L 730.0,930.0 L 734.0,929.0" style="stroke:#010101; fill:none;"/>
	<path d="M 989.0,929.0 L 998.0,930.0" style="stroke:#010101; fill:none;"/>
	<path d="M 731.0,933.0 L 728.0,934.0 L 728.0,930.0 L 730.0,930.0" style="stroke:#010101; fill:none;"/>
	<path d="M 727.0,935.0 C 725.267,933.106 724.908,932.582 727.0,931.0" style="stroke:#010101; fill:none;"/>
	<path d="M 616.0,932.0 L 603.0,958.0" style="stroke:#010101; fill:none;"/>
	<path d="M 996.0,932.0 L 998.0,934.0" style="stroke:#010101; fill:none;"/>
	<path d="M 1002.0,932.0 L 1015.0,940.0" style="stroke:#010101; fill:none;"/>
	<path d="M 277.0,934.0 C 301.32,932.08 327.198,934.235 351.0,939.884 C 355.943,941.057 374.952,949.552 378.0,947.0 C 403.964,955.769 423.121,970.879 446.0,985.0" style="stroke:#010101; fill:none;"/>
	<path d="M 722.0,935.0 L 718.0,935.0 L 725.0,935.0" style="stroke:#010101; fill:none;"/>
	<path d="M 821.0,939.0 L 868.0,934.0" style="stroke:#010101; fill:none;"/>
	<path d="M 387.0,935.0 L 390.0,936.0 L 386.0,937.0" style="stroke:#010101; fill:none;"/>
	<path d="M 715.0,939.0 C 713.456,936.837 713.752,936.394 716.0,935.0 C 716.513,937.475 716.604,937.575 719.0,937.0" style="stroke:#010101; fill:none;"/>
	<path d="M 391.0,936.0 L 389.0,938.0" style="stroke:#010101; fill:none;"/>
	<path d="M 711.0,940.0 L 707.0,939.0 L 713.0,939.0" style="stroke:#010101; fill:none;"/>
	<path d="M 711.0,937.0 L 712.0,937.0" style="stroke:#010101; fill:none;"/>
	<path d="M 279.0,938.0 C 300.121,938.0 324.846,937.614 345.0,944.0" style="stroke:#010101; fill:none;"/>
	<path d="M 391.0,938.0 C 408.602,948.198 428.69,947.045 437.0,969.0" style="stroke:#010101; fill:none;"/>
	<path d="M 708.0,941.0 L 707.0,939.0" style="stroke:#010101; fill:none;"/>
	<path d="M 204.0,940.0 L 206.0,947.0" style="stroke:#010101; fill:none;"/>
	<path d="M 681.0,953.0 C 686.612,946.698 696.696,941.48 705.0,940.0" style="stroke:#010101; fill:none;"/>
	<path d="M 264.0,942.0 C 278.512,940.855 292.49,941.381 307.0,942.039 C 313.731,942.345 320.097,945.124 326.0,941.0" style="stroke:#010101; fill:none;"/>
	<path d="M 324.0,943.0 L 328.0,943.0" style="stroke:#010101; fill:none;"/>
	<path d="M 330.0,943.0 C 338.992,947.378 350.422,948.283 360.0,951.692 C 387.507,961.482 418.568,973.881 441.0,993.0" style="stroke:#010101; fill:none;"/>
	<path d="M 698.0,946.0 L 706.0,942.0" style="stroke:#010101; fill:none;"/>
	<path d="M 410.0,989.0 C 380.536,971.145 343.122,956.769 309.0,951.439 C 298.306,949.769 285.827,950.617 275.0,951.039 C 268.813,951.28 261.827,952.557 257.0,948.0 C 270.482,944.006 287.159,945.526 301.0,946.795 C 344.353,950.77 383.807,968.904 422.0,989.0" style="stroke:#010101; fill:none;"/>
	<path d="M 375.0,946.0 L 377.0,946.0" style="stroke:#010101; fill:none;"/>
	<path d="M 256.0,948.0 L 257.0,948.0" style="stroke:#010101; fill:none;"/>
	<path d="M 326.0,948.0 L 327.0,949.0" style="stroke:#010101; fill:none;"/>
	<path d="M 380.0,948.0 L 379.0,950.0" style="stroke:#010101; fill:none;"/>
	<path d="M 383.0,949.0 L 381.0,951.0" style="stroke:#010101; fill:none;"/>
	<path d="M 385.0,950.0 L 384.0,952.0" style="stroke:#010101; fill:none;"/>
	<path d="M 245.0,952.0 L 257.0,951.0" style="stroke:#010101; fill:none;"/>
	<path d="M 270.0,952.0 C 280.475,957.939 294.442,958.277 306.0,961.721 C 329.586,968.749 354.254,977.406 376.0,989.0" style="stroke:#010101; fill:none;"/>
	<path d="M 295.0,952.0 L 289.0,953.0" style="stroke:#010101; fill:none;"/>
	<path d="M 435.0,952.0 L 458.0,983.0" style="stroke:#010101; fill:none;"/>
	<path d="M 628.0,952.0 L 627.0,953.0" style="stroke:#010101; fill:none;"/>
	<path d="M 386.0,953.0 C 408.197,962.241 425.578,978.48 445.0,992.0" style="stroke:#010101; fill:none;"/>
	<path d="M 276.0,956.0 L 268.0,958.0 L 301.0,968.079 L 347.0,985.0" style="stroke:#010101; fill:none;"/>
	<path d="M 295.0,955.0 C 319.04,956.963 344.065,967.737 366.0,977.15 C 376.294,981.568 387.853,985.488 397.0,992.0" style="stroke:#010101; fill:none;"/>
	<path d="M 241.0,958.0 L 268.0,958.0" style="stroke:#010101; fill:none;"/>
	<path d="M 199.0,959.0 L 199.0,961.0" style="stroke:#010101; fill:none;"/>
	<path d="M 231.0,961.0 C 260.301,961.0 293.099,971.972 320.0,984.0" style="stroke:#010101; fill:none;"/>
	<path d="M 258.0,962.0 L 262.0,962.0" style="stroke:#010101; fill:none;"/>
	<path d="M 198.0,963.0 L 197.0,970.0" style="stroke:#010101; fill:none;"/>
	<path d="M 225.0,965.0 C 248.175,965.0 272.264,973.795 294.0,981.46 C 301.66,984.161 310.052,985.686 317.0,990.0" style="stroke:#010101; fill:none;"/>
	<path d="M 223.0,971.0 L 230.0,971.0" style="stroke:#010101; fill:none;"/>
	<path d="M 196.0,972.0 L 191.0,1003.0" style="stroke:#010101; fill:none;"/>
	<path d="M 234.0,972.0 L 299.0,989.0" style="stroke:#010101; fill:none;"/>
	<path d="M 194.0,974.0 L 194.0,976.0" style="stroke:#010101; fill:none;"/>
	<path d="M 237.0,982.0 L 224.0,978.0 C 234.17,975.148 248.734,981.066 259.0,983.0" style="stroke:#010101; fill:none;"/>
	<path d="M 221.0,978.0 L 224.0,978.0" style="stroke:#010101; fill:none;"/>
	<path d="M 215.0,981.0 L 223.0,981.0" style="stroke:#010101; fill:none;"/>
	<path d="M 1530.0,993.0 L 1538.0,1000.0 C 1550.71,989.311 1571.84,998.239 1585.0,1004.59 C 1609.15,1016.25 1637.39,1029.8 1652.3,1053.0 C 1657.49,1061.08 1659.01,1069.16 1662.0,1078.0 C 1664.91,1077.17 1665.46,1077.37 1667.0,1080.0" style="stroke:#010101; fill:none;"/>
	<path d="M 186.0,994.0 L 191.0,1058.0" style="stroke:#010101; fill:none;"/>
	<path d="M 441.0,1000.0 C 467.528,1021.6 474.886,1052.83 480.247,1085.0 C 487.368,1127.73 489.711,1171.22 481.739,1214.0 C 477.909,1234.56 469.788,1253.78 465.0,1274.0" style="stroke:#010101; fill:none;"/>
	<path d="M 1538.0,1001.0 L 1500.0,1040.0" style="stroke:#010101; fill:none;"/>
	<path d="M 184.0,1011.0 L 183.0,1019.0" style="stroke:#010101; fill:none;"/>
	<path d="M 854.0,1020.0 L 853.0,1034.0 L 852.0,1030.0" style="stroke:#010101; fill:none;"/>
	<path d="M 733.0,1048.0 C 739.246,1047.85 741.75,1045.32 747.0,1050.0 C 740.953,1053.67 734.852,1057.6 728.0,1054.0 C 731.525,1049.57 729.57,1043.95 733.167,1040.38 C 740.908,1032.69 754.772,1029.96 765.0,1027.65 C 794.174,1021.06 823.437,1021.76 853.0,1022.0" style="stroke:#010101; fill:none;"/>
	<path d="M 823.0,1022.0 C 822.35,1036.92 811.174,1036.29 803.0,1046.0 C 796.778,1039.85 787.76,1036.47 779.233,1041.43 C 775.725,1043.48 776.216,1048.41 771.011,1047.54 C 761.927,1046.03 766.221,1033.97 776.0,1043.0" style="stroke:#010101; fill:none;"/>
	<path d="M 854.0,1023.0 C 889.222,1023.29 923.444,1047.22 952.0,1065.0" style="stroke:#010101; fill:none;"/>
	<path d="M 198.0,1027.0 L 196.0,1032.0" style="stroke:#010101; fill:none;"/>
	<path d="M 1492.0,1028.0 L 1493.0,1028.0" style="stroke:#010101; fill:none;"/>
	<path d="M 850.0,1032.0 C 845.866,1034.94 844.168,1036.83 844.0,1042.0 L 835.0,1038.0 L 834.0,1039.0 L 840.0,1048.0 L 844.0,1045.0 L 847.0,1053.0 L 853.0,1045.0 L 845.0,1045.0" style="stroke:#010101; fill:none;"/>
	<path d="M 1552.0,1032.0 L 1569.0,1043.29 L 1592.0,1055.0 L 1589.0,1059.0 L 1588.0,1054.0" style="stroke:#010101; fill:none;"/>
	<path d="M 795.0,1039.0 C 799.247,1034.89 805.608,1030.27 807.0,1039.0 L 799.0,1041.0" style="stroke:#010101; fill:none;"/>
	<path d="M 807.0,1034.0 L 814.0,1037.0" style="stroke:#010101; fill:none;"/>
	<path d="M 849.0,1034.0 L 874.0,1052.0 L 869.0,1057.0 C 871.665,1058.79 873.008,1059.8 875.0,1057.0 L 871.0,1058.0" style="stroke:#010101; fill:none;"/>
	<path d="M 822.0,1036.0 L 833.0,1038.0" style="stroke:#010101; fill:none;"/>
	<path d="M 835.0,1038.0 L 844.0,1036.0" style="stroke:#010101; fill:none;"/>
	<path d="M 852.0,1037.0 L 852.0,1044.0" style="stroke:#010101; fill:none;"/>
	<path d="M 814.0,1038.0 C 820.28,1045.56 826.657,1045.54 833.0,1038.0" style="stroke:#010101; fill:none;"/>
	<path d="M 1562.0,1038.0 L 1512.0,1072.0 C 1522.65,1087.12 1539.57,1102.38 1554.0,1114.0" style="stroke:#010101; fill:none;"/>
	<path d="M 727.0,1039.0 L 730.0,1044.0" style="stroke:#010101; fill:none;"/>
	<path d="M 748.0,1050.0 C 750.917,1041.56 755.471,1041.78 764.0,1041.0" style="stroke:#010101; fill:none;"/>
	<path d="M 844.0,1042.0 L 846.0,1044.0" style="stroke:#010101; fill:none;"/>
	<path d="M 252.0,1066.0 C 265.473,1040.1 303.219,1043.28 327.0,1044.91 C 335.701,1045.51 344.587,1045.34 353.0,1048.0 L 355.0,1060.0 C 369.636,1060.85 391.265,1071.34 403.0,1080.52 C 409.611,1085.69 415.871,1095.62 424.0,1098.0 L 423.0,1099.0" style="stroke:#010101; fill:none;"/>
	<path d="M 729.0,1043.0 C 723.233,1048.52 707.746,1056.13 709.0,1065.0 L 713.0,1063.0 L 710.0,1059.0" style="stroke:#010101; fill:none;"/>
	<path d="M 757.0,1043.0 L 757.0,1048.0 L 750.0,1048.0" style="stroke:#010101; fill:none;"/>
	<path d="M 1476.0,1043.0 L 1481.0,1045.0 L 1467.0,1073.0" style="stroke:#010101; fill:none;"/>
	<path d="M 743.0,1045.0 L 747.0,1044.0" style="stroke:#010101; fill:none;"/>
	<path d="M 854.0,1044.0 L 859.0,1044.0" style="stroke:#010101; fill:none;"/>
	<path d="M 869.0,1046.0 C 875.528,1042.52 880.772,1044.17 886.0,1049.0 L 873.0,1056.0" style="stroke:#010101; fill:none;"/>
	<path d="M 898.0,1046.0 L 889.0,1054.0 C 886.875,1049.8 890.135,1042.74 895.687,1046.05 C 898.304,1047.61 899.447,1052.46 901.0,1055.0 C 907.369,1051.75 915.325,1058.24 922.0,1060.0 L 918.0,1066.0" style="stroke:#010101; fill:none;"/>
	<path d="M 899.0,1045.0 L 906.0,1045.0" style="stroke:#010101; fill:none;"/>
	<path d="M 1567.0,1045.0 C 1569.1,1052.47 1576.63,1056.9 1582.0,1062.04 C 1593.23,1072.78 1604.01,1084.01 1615.0,1095.0" style="stroke:#010101; fill:none;"/>
	<path d="M 820.0,1046.0 C 814.58,1049.58 809.707,1048.52 804.0,1046.0" style="stroke:#010101; fill:none;"/>
	<path d="M 766.0,1047.0 L 758.0,1049.0" style="stroke:#010101; fill:none;"/>
	<path d="M 1561.0,1047.0 L 1617.0,1106.0 L 1613.0,1104.0" style="stroke:#010101; fill:none;"/>
	<path d="M 353.0,1048.0 L 360.0,1050.0" style="stroke:#010101; fill:none;"/>
	<path d="M 777.0,1048.0 C 778.626,1055.61 770.6,1077.71 784.0,1080.0 L 784.0,1085.0 C 787.031,1083.37 792.024,1083.32 794.242,1080.57 C 799.245,1074.37 783.723,1063.45 783.0,1079.0" style="stroke:#010101; fill:none;"/>
	<path d="M 866.0,1048.0 L 868.0,1056.0" style="stroke:#010101; fill:none;"/>
	<path d="M 738.0,1049.0 L 741.0,1052.0" style="stroke:#010101; fill:none;"/>
	<path d="M 790.0,1054.0 L 782.0,1052.0 L 788.0,1049.0" style="stroke:#010101; fill:none;"/>
	<path d="M 854.0,1049.0 L 864.0,1057.0 L 861.0,1056.0" style="stroke:#010101; fill:none;"/>
	<path d="M 721.0,1050.0 C 723.279,1054.48 721.089,1056.8 719.0,1061.0 C 723.948,1062.21 727.645,1060.53 730.0,1056.0" style="stroke:#010101; fill:none;"/>
	<path d="M 363.0,1051.0 C 388.45,1062.34 407.964,1072.02 425.0,1095.0" style="stroke:#010101; fill:none;"/>
	<path d="M 315.0,1052.0 L 320.0,1063.0 L 304.054,1073.32 L 292.0,1085.0 C 288.055,1080.17 285.014,1075.87 279.0,1080.0 L 270.0,1074.0" style="stroke:#010101; fill:none;"/>
	<path d="M 779.0,1052.0 L 782.0,1052.0" style="stroke:#010101; fill:none;"/>
	<path d="M 1552.0,1052.0 L 1617.0,1116.0 C 1619.33,1112.3 1619.43,1110.65 1617.0,1107.0" style="stroke:#010101; fill:none;"/>
	<path d="M 348.0,1053.0 L 354.0,1061.0" style="stroke:#010101; fill:none;"/>
	<path d="M 847.0,1053.0 L 857.0,1066.0" style="stroke:#010101; fill:none;"/>
	<path d="M 866.0,1053.0 L 863.0,1056.0" style="stroke:#010101; fill:none;"/>
	<path d="M 327.0,1054.0 C 327.574,1056.38 327.586,1060.43 329.603,1062.09 C 333.334,1065.15 349.666,1062.51 354.0,1061.0" style="stroke:#010101; fill:none;"/>
	<path d="M 724.0,1054.0 L 728.0,1054.0" style="stroke:#010101; fill:none;"/>
	<path d="M 909.0,1054.0 L 902.0,1061.0 L 901.0,1055.0" style="stroke:#010101; fill:none;"/>
	<path d="M 296.0,1055.0 L 300.0,1061.0 L 297.0,1057.0" style="stroke:#010101; fill:none;"/>
	<path d="M 891.0,1055.0 L 898.0,1057.0" style="stroke:#010101; fill:none;"/>
	<path d="M 1592.0,1055.0 C 1616.65,1061.73 1642.05,1085.42 1620.0,1110.0" style="stroke:#010101; fill:none;"/>
	<path d="M 911.0,1056.0 L 905.0,1063.0 L 910.0,1067.0 L 917.0,1061.0" style="stroke:#010101; fill:none;"/>
	<path d="M 349.0,1057.0 L 344.0,1062.0 L 352.0,1066.0 L 352.0,1065.0 C 345.427,1067.45 344.276,1068.52 339.0,1063.0" style="stroke:#010101; fill:none;"/>
	<path d="M 280.0,1058.0 C 283.387,1065.44 287.632,1067.93 281.0,1075.0 L 275.0,1070.0" style="stroke:#010101; fill:none;"/>
	<path d="M 913.0,1059.0 L 908.0,1064.0" style="stroke:#010101; fill:none;"/>
	<path d="M 1590.0,1059.0 L 1628.0,1091.0" style="stroke:#010101; fill:none;"/>
	<path d="M 922.0,1060.0 L 954.0,1075.0" style="stroke:#010101; fill:none;"/>
	<path d="M 875.0,1061.0 C 874.568,1070.92 869.769,1077.34 864.0,1085.0 C 875.615,1087.9 889.025,1075.66 899.0,1071.0" style="stroke:#010101; fill:none;"/>
	<path d="M 903.0,1061.0 L 905.0,1063.0" style="stroke:#010101; fill:none;"/>
	<path d="M 917.0,1061.0 L 919.0,1064.0" style="stroke:#010101; fill:none;"/>
	<path d="M 301.0,1062.0 L 306.0,1071.0" style="stroke:#010101; fill:none;"/>
	<path d="M 356.0,1062.0 C 359.763,1064.74 361.905,1065.38 366.0,1063.0" style="stroke:#010101; fill:none;"/>
	<path d="M 713.0,1063.0 L 718.0,1062.0" style="stroke:#010101; fill:none;"/>
	<path d="M 320.0,1063.0 L 327.0,1063.0" style="stroke:#010101; fill:none;"/>
	<path d="M 937.0,1063.0 L 944.0,1064.0" style="stroke:#010101; fill:none;"/>
	<path d="M 1463.0,1063.0 L 1464.0,1063.0" style="stroke:#010101; fill:none;"/>
	<path d="M 1503.0,1063.0 L 1512.0,1073.0" style="stroke:#010101; fill:none;"/>
	<path d="M 191.0,1064.0 L 191.0,1093.0" style="stroke:#010101; fill:none;"/>
	<path d="M 324.0,1064.0 L 325.0,1072.0 L 331.0,1064.0" style="stroke:#010101; fill:none;"/>
	<path d="M 708.0,1064.0 C 704.777,1065.69 702.966,1066.27 704.0,1070.0 L 706.0,1067.0" style="stroke:#010101; fill:none;"/>
	<path d="M 915.0,1065.0 L 917.0,1065.0" style="stroke:#010101; fill:none;"/>
	<path d="M 919.0,1064.0 L 922.0,1071.0 C 934.125,1071.25 949.312,1076.37 960.0,1082.0" style="stroke:#010101; fill:none;"/>
	<path d="M 245.0,1065.0 C 247.736,1074.21 253.955,1077.57 261.0,1083.0 C 254.544,1089.98 251.301,1090.58 242.0,1090.0" style="stroke:#010101; fill:none;"/>
	<path d="M 339.0,1065.0 L 342.0,1070.0" style="stroke:#010101; fill:none;"/>
	<path d="M 804.333,1066.05 C 808.771,1063.22 815.656,1070.83 810.677,1073.95 C 806.245,1076.73 799.539,1069.1 804.333,1066.05" style="stroke:#010101; fill:none;"/>
	<path d="M 922.0,1066.0 L 937.0,1067.0" style="stroke:#010101; fill:none;"/>
	<path d="M 1511.0,1065.0 L 1517.0,1069.0" style="stroke:#010101; fill:none;"/>
	<path d="M 331.0,1066.0 C 333.862,1068.58 335.239,1069.97 339.0,1069.0" style="stroke:#010101; fill:none;"/>
	<path d="M 921.0,1066.0 L 914.0,1069.0 L 916.0,1067.0" style="stroke:#010101; fill:none;"/>
	<path d="M 702.0,1068.0 C 696.336,1078.98 684.519,1088.37 693.0,1100.0" style="stroke:#010101; fill:none;"/>
	<path d="M 910.0,1068.0 L 914.0,1069.0" style="stroke:#010101; fill:none;"/>
	<path d="M 939.0,1068.0 L 937.0,1070.0" style="stroke:#010101; fill:none;"/>
	<path d="M 288.0,1069.0 C 289.763,1072.6 289.831,1074.1 287.0,1077.0 L 286.0,1078.0" style="stroke:#010101; fill:none;"/>
	<path d="M 1517.0,1069.0 L 1550.0,1101.0" style="stroke:#010101; fill:none;"/>
	<path d="M 704.0,1070.0 L 702.0,1072.0" style="stroke:#010101; fill:none;"/>
	<path d="M 314.0,1071.0 L 323.0,1072.0" style="stroke:#010101; fill:none;"/>
	<path d="M 914.0,1071.0 L 917.0,1075.0 L 918.0,1071.0" style="stroke:#010101; fill:none;"/>
	<path d="M 291.0,1074.0 L 303.0,1074.0" style="stroke:#010101; fill:none;"/>
	<path d="M 922.0,1074.0 L 917.0,1076.0" style="stroke:#010101; fill:none;"/>
	<path d="M 318.0,1074.0 C 323.738,1081.98 319.732,1092.8 321.468,1102.0 C 323.616,1113.39 334.198,1125.56 343.0,1132.65 C 349.193,1137.64 364.715,1131.45 372.0,1130.42 C 390.216,1127.86 413.744,1133.3 419.033,1110.0 C 419.913,1106.12 419.032,1101.94 419.0,1098.0" style="stroke:#010101; fill:none;"/>
	<path d="M 923.0,1075.0 L 971.0,1089.0" style="stroke:#010101; fill:none;"/>
	<path d="M 281.0,1076.0 L 282.0,1077.0" style="stroke:#010101; fill:none;"/>
	<path d="M 903.0,1077.0 L 923.0,1083.0" style="stroke:#010101; fill:none;"/>
	<path d="M 1506.0,1077.0 L 1562.0,1130.0" style="stroke:#010101; fill:none;"/>
	<path d="M 282.0,1078.0 L 291.0,1085.0" style="stroke:#010101; fill:none;"/>
	<path d="M 697.0,1078.0 C 702.682,1084.79 696.136,1101.46 705.133,1105.65 C 710.295,1108.06 719.459,1105.35 725.0,1105.08 C 740.936,1104.3 757.033,1104.47 773.0,1103.97 C 776.503,1103.86 791.342,1104.4 792.654,1100.6 C 793.946,1096.86 785.005,1089.21 783.0,1086.0" style="stroke:#010101; fill:none;"/>
	<path d="M 1576.0,1079.0 L 1613.0,1123.0 L 1616.0,1116.0" style="stroke:#010101; fill:none;"/>
	<path d="M 1661.0,1079.0 L 1666.0,1122.0" style="stroke:#010101; fill:none;"/>
	<path d="M 257.0,1080.0 C 253.579,1083.46 251.535,1083.39 247.0,1082.0" style="stroke:#010101; fill:none;"/>
	<path d="M 279.0,1080.0 C 280.947,1084.13 283.289,1086.67 288.0,1086.0" style="stroke:#010101; fill:none;"/>
	<path d="M 279.0,1082.0 L 266.0,1086.0 C 267.574,1090.14 265.885,1091.85 263.0,1095.0 L 256.0,1091.0" style="stroke:#010101; fill:none;"/>
	<path d="M 781.0,1082.0 L 782.0,1083.0" style="stroke:#010101; fill:none;"/>
	<path d="M 783.0,1082.0 L 785.0,1084.0" style="stroke:#010101; fill:none;"/>
	<path d="M 261.0,1083.0 L 265.0,1086.0" style="stroke:#010101; fill:none;"/>
	<path d="M 929.0,1083.0 L 970.0,1095.0" style="stroke:#010101; fill:none;"/>
	<path d="M 256.0,1085.0 L 257.0,1085.0" style="stroke:#010101; fill:none;"/>
	<path d="M 265.0,1086.0 L 260.0,1091.0" style="stroke:#010101; fill:none;"/>
	<path d="M 864.0,1086.0 L 838.0,1092.75 L 801.0,1102.0 L 806.0,1105.0" style="stroke:#010101; fill:none;"/>
	<path d="M 1497.0,1086.0 L 1555.0,1139.0" style="stroke:#010101; fill:none;"/>
	<path d="M 1508.0,1086.0 L 1565.0,1141.0" style="stroke:#010101; fill:none;"/>
	<path d="M 1670.0,1087.0 L 1671.0,1111.0" style="stroke:#010101; fill:none;"/>
	<path d="M 1494.0,1089.0 L 1533.0,1126.0" style="stroke:#010101; fill:none;"/>
	<path d="M 267.0,1091.0 C 273.763,1100.01 269.07,1108.44 273.322,1116.96 C 279.152,1128.64 300.286,1134.58 312.0,1137.0" style="stroke:#010101; fill:none;"/>
	<path d="M 1660.0,1091.0 C 1659.39,1098.44 1656.6,1105.52 1656.09,1113.0 C 1654.6,1134.59 1656.39,1156.4 1654.91,1178.0 C 1653.0,1205.94 1648.91,1234.48 1643.74,1262.0 C 1641.18,1275.61 1637.94,1289.2 1632.58,1302.0 C 1629.96,1308.23 1625.7,1313.82 1630.0,1320.0 L 1632.0,1316.0" style="stroke:#010101; fill:none;"/>
	<path d="M 687.0,1093.0 L 679.0,1109.0 C 685.501,1109.97 697.181,1108.11 703.0,1105.0" style="stroke:#010101; fill:none;"/>
	<path d="M 359.123,1095.07 C 365.794,1091.59 371.373,1101.27 363.955,1104.96 C 358.208,1107.82 353.186,1098.17 359.123,1095.07" style="stroke:#010101; fill:none;"/>
	<path d="M 263.0,1096.0 L 262.0,1101.0 L 239.0,1097.0" style="stroke:#010101; fill:none;"/>
	<path d="M 259.0,1097.0 L 260.0,1097.0" style="stroke:#010101; fill:none;"/>
	<path d="M 426.0,1097.0 L 438.76,1119.0 L 440.864,1127.4 L 433.0,1129.0 L 411.0,1128.0" style="stroke:#010101; fill:none;"/>
	<path d="M 269.0,1098.0 C 266.732,1100.79 265.542,1101.71 262.0,1101.0" style="stroke:#010101; fill:none;"/>
	<path d="M 257.0,1099.0 C 257.082,1105.95 260.235,1109.22 265.0,1114.0" style="stroke:#010101; fill:none;"/>
	<path d="M 268.0,1100.0 L 272.0,1102.0" style="stroke:#010101; fill:none;"/>
	<path d="M 423.0,1100.0 L 426.0,1101.0" style="stroke:#010101; fill:none;"/>
	<path d="M 231.0,1101.0 L 256.0,1107.0" style="stroke:#010101; fill:none;"/>
	<path d="M 342.36,1102.07 C 347.319,1099.14 353.277,1106.82 347.812,1109.95 C 342.944,1112.74 337.043,1105.2 342.36,1102.07" style="stroke:#010101; fill:none;"/>
	<path d="M 794.0,1101.0 L 801.0,1102.0" style="stroke:#010101; fill:none;"/>
	<path d="M 913.0,1102.0 C 905.378,1114.92 897.226,1124.22 885.0,1133.0" style="stroke:#010101; fill:none;"/>
	<path d="M 1449.0,1102.0 C 1445.59,1112.08 1441.7,1122.01 1435.91,1131.0 C 1432.35,1136.52 1427.9,1141.46 1423.0,1145.83 C 1390.04,1175.21 1353.21,1139.36 1332.0,1115.0" style="stroke:#010101; fill:none;"/>
	<path d="M 1491.0,1102.0 L 1505.0,1117.0" style="stroke:#010101; fill:none;"/>
	<path d="M 263.0,1103.0 L 259.0,1105.0" style="stroke:#010101; fill:none;"/>
	<path d="M 1500.0,1103.0 L 1524.0,1126.0" style="stroke:#010101; fill:none;"/>
	<path d="M 1446.0,1104.0 C 1433.38,1115.97 1418.17,1118.94 1402.0,1123.13 C 1397.61,1124.27 1393.57,1127.66 1389.0,1127.72 C 1381.04,1127.83 1373.71,1124.14 1366.0,1123.0 C 1373.18,1133.32 1382.66,1141.94 1393.0,1149.0" style="stroke:#010101; fill:none;"/>
	<path d="M 1486.0,1105.0 L 1494.0,1115.0" style="stroke:#010101; fill:none;"/>
	<path d="M 1589.0,1106.0 C 1595.63,1112.63 1608.12,1121.11 1611.4,1130.0 C 1615.43,1140.93 1612.29,1158.28 1613.09,1170.0 C 1616.42,1218.6 1612.91,1286.68 1572.0,1320.0" style="stroke:#010101; fill:none;"/>
	<path d="M 250.0,1108.0 L 247.0,1113.0 C 250.139,1116.48 252.131,1119.08 257.0,1118.0 L 253.0,1116.0" style="stroke:#010101; fill:none;"/>
	<path d="M 229.0,1111.0 L 241.0,1113.0 C 235.597,1116.89 229.987,1116.54 224.0,1114.0" style="stroke:#010101; fill:none;"/>
	<path d="M 241.0,1113.0 L 247.0,1113.0" style="stroke:#010101; fill:none;"/>
	<path d="M 249.0,1112.0 L 252.0,1115.0" style="stroke:#010101; fill:none;"/>
	<path d="M 1363.0,1112.0 C 1373.15,1119.37 1383.47,1122.99 1396.0,1123.0" style="stroke:#010101; fill:none;"/>
	<path d="M 1395.0,1112.0 L 1401.0,1113.0" style="stroke:#010101; fill:none;"/>
	<path d="M 1359.0,1115.0 L 1361.0,1119.0 L 1354.0,1116.0" style="stroke:#010101; fill:none;"/>
	<path d="M 1338.0,1116.0 L 1341.0,1125.0" style="stroke:#010101; fill:none;"/>
	<path d="M 257.0,1118.0 L 264.0,1123.0 L 252.0,1127.0" style="stroke:#010101; fill:none;"/>
	<path d="M 1361.0,1119.0 L 1366.0,1123.0" style="stroke:#010101; fill:none;"/>
	<path d="M 1478.0,1121.0 C 1478.03,1129.77 1487.38,1133.21 1483.0,1142.0 L 1487.0,1141.0 C 1495.29,1151.18 1506.36,1155.72 1516.0,1164.18 C 1532.23,1178.45 1544.1,1201.52 1547.0,1223.0 C 1535.24,1217.52 1524.66,1201.73 1516.02,1192.1 C 1514.03,1189.89 1506.0,1183.7 1508.0,1181.0" style="stroke:#010101; fill:none;"/>
	<path d="M 251.0,1122.0 L 261.0,1122.0" style="stroke:#010101; fill:none;"/>
	<path d="M 1613.0,1123.0 L 1612.0,1128.0" style="stroke:#010101; fill:none;"/>
	<path d="M 265.0,1125.0 L 273.0,1127.0" style="stroke:#010101; fill:none;"/>
	<path d="M 1478.0,1129.0 C 1475.1,1134.78 1478.94,1137.9 1483.0,1142.0" style="stroke:#010101; fill:none;"/>
	<path d="M 258.0,1136.0 C 269.943,1130.45 277.074,1134.96 289.0,1135.0" style="stroke:#010101; fill:none;"/>
	<path d="M 1345.0,1133.0 C 1355.08,1176.57 1368.69,1221.8 1359.6,1267.0 C 1357.3,1278.44 1353.19,1289.64 1346.1,1299.0 C 1344.22,1301.48 1340.28,1307.54 1337.0,1307.0" style="stroke:#010101; fill:none;"/>
	<path d="M 315.0,1136.0 L 342.0,1135.0" style="stroke:#010101; fill:none;"/>
	<path d="M 276.0,1137.0 L 280.0,1135.0" style="stroke:#010101; fill:none;"/>
	<path d="M 284.0,1140.0 L 301.0,1135.0" style="stroke:#010101; fill:none;"/>
	<path d="M 1475.0,1136.0 C 1472.36,1149.56 1497.84,1169.65 1507.0,1179.0" style="stroke:#010101; fill:none;"/>
	<path d="M 363.0,1138.0 L 367.0,1139.0" style="stroke:#010101; fill:none;"/>
	<path d="M 292.0,1146.0 C 297.158,1141.37 302.124,1138.63 309.0,1141.0" style="stroke:#010101; fill:none;"/>
	<path d="M 328.0,1139.0 L 331.0,1145.0" style="stroke:#010101; fill:none;"/>
	<path d="M 344.0,1139.0 L 349.0,1142.0" style="stroke:#010101; fill:none;"/>
	<path d="M 352.0,1139.0 L 355.0,1140.0" style="stroke:#010101; fill:none;"/>
	<path d="M 329.0,1140.0 L 332.0,1140.0" style="stroke:#010101; fill:none;"/>
	<path d="M 336.0,1140.0 L 343.0,1144.0" style="stroke:#010101; fill:none;"/>
	<path d="M 717.0,1140.0 L 797.0,1157.0" style="stroke:#010101; fill:none;"/>
	<path d="M 1487.0,1140.0 L 1487.0,1141.0" style="stroke:#010101; fill:none;"/>
	<path d="M 307.0,1141.0 L 302.0,1149.0" style="stroke:#010101; fill:none;"/>
	<path d="M 320.0,1142.0 L 316.0,1147.0" style="stroke:#010101; fill:none;"/>
	<path d="M 311.0,1145.0 L 314.0,1143.0" style="stroke:#010101; fill:none;"/>
	<path d="M 1473.0,1145.0 C 1471.59,1152.6 1470.49,1160.57 1473.0,1168.0 C 1481.06,1167.24 1490.64,1179.6 1496.0,1185.0 C 1513.22,1202.38 1528.66,1225.21 1548.0,1240.0 L 1548.0,1224.0" style="stroke:#010101; fill:none;"/>
	<path d="M 339.0,1147.0 L 342.0,1152.0" style="stroke:#010101; fill:none;"/>
	<path d="M 186.0,1148.0 L 186.0,1150.0" style="stroke:#010101; fill:none;"/>
	<path d="M 249.0,1151.0 L 251.0,1153.0" style="stroke:#010101; fill:none;"/>
	<path d="M 185.0,1154.0 L 185.0,1157.0" style="stroke:#010101; fill:none;"/>
	<path d="M 1477.0,1154.0 L 1506.0,1181.0" style="stroke:#010101; fill:none;"/>
	<path d="M 1498.0,1154.0 C 1501.23,1166.38 1518.03,1179.03 1527.0,1188.0" style="stroke:#010101; fill:none;"/>
	<path d="M 806.0,1158.0 L 808.0,1158.0" style="stroke:#010101; fill:none;"/>
	<path d="M 1473.0,1168.0 C 1473.0,1179.35 1481.97,1210.48 1498.0,1206.0 L 1489.0,1198.0" style="stroke:#010101; fill:none;"/>
	<path d="M 393.0,1181.0 L 414.0,1175.0" style="stroke:#010101; fill:none;"/>
	<path d="M 1480.0,1180.0 C 1497.1,1197.1 1513.61,1214.69 1529.42,1233.0 C 1532.69,1236.78 1541.66,1250.79 1546.94,1250.79 C 1550.93,1250.79 1550.0,1242.43 1550.0,1240.0" style="stroke:#010101; fill:none;"/>
	<path d="M 1509.0,1181.0 L 1525.0,1199.0" style="stroke:#010101; fill:none;"/>
	<path d="M 322.0,1212.0 L 353.0,1202.03 L 384.0,1184.0" style="stroke:#010101; fill:none;"/>
	<path d="M 1428.0,1184.0 L 1444.0,1198.0 C 1439.21,1203.99 1442.13,1210.53 1445.0,1217.0 C 1453.83,1216.86 1468.74,1238.63 1473.0,1246.0" style="stroke:#010101; fill:none;"/>
	<path d="M 1429.0,1188.0 L 1429.0,1190.0" style="stroke:#010101; fill:none;"/>
	<path d="M 1439.0,1197.0 L 1440.0,1201.0" style="stroke:#010101; fill:none;"/>
	<path d="M 1444.0,1199.0 L 1464.0,1222.0" style="stroke:#010101; fill:none;"/>
	<path d="M 1526.0,1199.0 L 1537.0,1210.0" style="stroke:#010101; fill:none;"/>
	<path d="M 1660.0,1202.0 L 1654.0,1247.0" style="stroke:#010101; fill:none;"/>
	<path d="M 1483.0,1205.0 C 1486.36,1214.89 1497.82,1224.5 1505.0,1232.0" style="stroke:#010101; fill:none;"/>
	<path d="M 1498.0,1206.0 L 1533.0,1244.0 L 1530.0,1243.0" style="stroke:#010101; fill:none;"/>
	<path d="M 1495.0,1207.0 L 1492.0,1208.0" style="stroke:#010101; fill:none;"/>
	<path d="M 1493.0,1210.0 L 1512.0,1233.0" style="stroke:#010101; fill:none;"/>
	<path d="M 1479.0,1211.0 L 1495.0,1225.0" style="stroke:#010101; fill:none;"/>
	<path d="M 1445.0,1217.0 L 1445.99,1237.7 L 1453.91,1245.02 L 1475.0,1267.0" style="stroke:#010101; fill:none;"/>
	<path d="M 1546.0,1219.0 L 1544.0,1221.0" style="stroke:#010101; fill:none;"/>
	<path d="M 1663.0,1221.0 L 1655.0,1264.0" style="stroke:#010101; fill:none;"/>
	<path d="M 1447.0,1231.0 C 1455.11,1234.79 1463.87,1245.71 1469.0,1253.0" style="stroke:#010101; fill:none;"/>
	<path d="M 1445.0,1241.0 C 1445.54,1248.11 1450.97,1251.85 1456.0,1256.29 C 1465.29,1264.48 1473.98,1273.53 1483.0,1282.02 C 1488.93,1287.61 1492.83,1293.26 1501.0,1289.0" style="stroke:#010101; fill:none;"/>
	<path d="M 1533.0,1245.0 L 1539.0,1255.0" style="stroke:#010101; fill:none;"/>
	<path d="M 1444.0,1247.0 C 1440.79,1260.86 1431.98,1269.93 1420.0,1277.0 L 1445.0,1303.0" style="stroke:#010101; fill:none;"/>
	<path d="M 1522.0,1249.0 L 1536.0,1264.0" style="stroke:#010101; fill:none;"/>
	<path d="M 1549.0,1253.0 C 1545.39,1268.58 1532.84,1273.54 1518.0,1270.0" style="stroke:#010101; fill:none;"/>
	<path d="M 184.0,1271.0 L 189.0,1260.0" style="stroke:#010101; fill:none;"/>
	<path d="M 1445.0,1261.0 L 1470.0,1288.0" style="stroke:#010101; fill:none;"/>
	<path d="M 1457.0,1262.0 C 1463.54,1270.23 1470.58,1277.51 1478.0,1285.0 C 1482.5,1289.55 1485.43,1294.44 1492.0,1291.0" style="stroke:#010101; fill:none;"/>
	<path d="M 1436.0,1264.0 L 1462.0,1292.0" style="stroke:#010101; fill:none;"/>
	<path d="M 1416.0,1272.0 L 1419.0,1277.0" style="stroke:#010101; fill:none;"/>
	<path d="M 1432.0,1272.0 L 1453.0,1298.0" style="stroke:#010101; fill:none;"/>
	<path d="M 1419.0,1277.0 C 1415.78,1280.25 1409.78,1284.96 1409.73,1290.0 C 1409.65,1298.53 1425.13,1308.61 1430.0,1315.0" style="stroke:#010101; fill:none;"/>
	<path d="M 1415.0,1281.0 L 1434.0,1305.0" style="stroke:#010101; fill:none;"/>
	<path d="M 1351.0,1285.0 L 1337.0,1306.0" style="stroke:#010101; fill:none;"/>
	<path d="M 1484.0,1292.0 C 1478.33,1295.15 1471.53,1295.42 1466.0,1298.97 C 1457.3,1304.54 1451.56,1314.03 1443.0,1319.95 C 1428.12,1330.22 1409.57,1327.11 1393.0,1324.0" style="stroke:#010101; fill:none;"/>
	<path d="M 1408.0,1293.0 C 1406.2,1306.36 1410.77,1305.8 1420.0,1315.0" style="stroke:#010101; fill:none;"/>
	<path d="M 1496.0,1293.0 L 1498.0,1295.0" style="stroke:#010101; fill:none;"/>
	<path d="M 1405.0,1306.0 L 1405.0,1323.0" style="stroke:#010101; fill:none;"/>
	<path d="M 1336.0,1309.0 C 1316.92,1334.51 1320.95,1377.16 1339.0,1402.0 L 1350.0,1378.0" style="stroke:#010101; fill:none;"/>
	<path d="M 1327.0,1311.0 L 1332.0,1314.0" style="stroke:#010101; fill:none;"/>
	<path d="M 1626.0,1318.0 L 1594.0,1368.0 L 1589.0,1389.0" style="stroke:#010101; fill:none;"/>
	<path d="M 1630.0,1321.0 L 1627.0,1322.0" style="stroke:#010101; fill:none;"/>
	<path d="M 443.0,1328.0 L 425.198,1388.0 L 403.0,1417.0" style="stroke:#010101; fill:none;"/>
	<path d="M 1454.0,1337.0 C 1446.0,1345.0 1438.9,1349.15 1428.0,1352.0" style="stroke:#010101; fill:none;"/>
	<path d="M 1380.0,1351.0 L 1414.0,1351.0" style="stroke:#010101; fill:none;"/>
	<path d="M 1619.0,1352.0 L 1617.0,1356.0" style="stroke:#010101; fill:none;"/>
	<path d="M 659.0,1361.0 L 662.0,1362.0" style="stroke:#010101; fill:none;"/>
	<path d="M 664.0,1363.0 L 695.0,1374.0" style="stroke:#010101; fill:none;"/>
	<path d="M 1552.0,1413.0 L 1554.0,1402.0 L 1592.0,1370.0" style="stroke:#010101; fill:none;"/>
	<path d="M 1590.0,1372.0 L 1593.0,1375.0" style="stroke:#010101; fill:none;"/>
	<path d="M 690.0,1384.0 C 716.455,1406.87 714.135,1457.69 689.907,1481.91 C 678.865,1492.94 664.492,1496.92 650.0,1501.0" style="stroke:#010101; fill:none;"/>
	<path d="M 1576.0,1395.0 L 1575.0,1402.0 L 1576.0,1400.0" style="stroke:#010101; fill:none;"/>
	<path d="M 1574.0,1401.0 L 1570.0,1407.0" style="stroke:#010101; fill:none;"/>
	<path d="M 1339.0,1402.0 L 1346.0,1412.0" style="stroke:#010101; fill:none;"/>
	<path d="M 1527.0,1426.0 L 1531.8,1413.65 L 1554.0,1402.0" style="stroke:#010101; fill:none;"/>
	<path d="M 1339.0,1404.0 C 1334.98,1409.63 1324.71,1423.42 1325.99,1430.71 C 1326.56,1433.92 1330.82,1436.83 1333.0,1439.0" style="stroke:#010101; fill:none;"/>
	<path d="M 1552.0,1404.0 L 1554.0,1406.0" style="stroke:#010101; fill:none;"/>
	<path d="M 1346.0,1407.0 C 1350.42,1406.55 1353.53,1413.78 1356.0,1417.0" style="stroke:#010101; fill:none;"/>
	<path d="M 1545.0,1412.0 L 1541.0,1419.0" style="stroke:#010101; fill:none;"/>
	<path d="M 1505.0,1435.0 C 1509.59,1422.24 1516.82,1417.76 1530.0,1414.0" style="stroke:#010101; fill:none;"/>
	<path d="M 1363.0,1417.0 C 1375.4,1435.14 1404.42,1454.44 1427.0,1454.14 C 1438.35,1453.99 1460.15,1442.29 1469.0,1449.0 C 1469.08,1446.2 1468.8,1445.74 1466.0,1446.0" style="stroke:#010101; fill:none;"/>
	<path d="M 1339.0,1422.0 L 1340.0,1424.0" style="stroke:#010101; fill:none;"/>
	<path d="M 1312.0,1426.0 L 1313.0,1435.0" style="stroke:#010101; fill:none;"/>
	<path d="M 1332.0,1427.0 L 1336.0,1432.0" style="stroke:#010101; fill:none;"/>
	<path d="M 1469.0,1444.0 L 1506.0,1427.0" style="stroke:#010101; fill:none;"/>
	<path d="M 1325.0,1432.0 C 1322.81,1434.74 1322.2,1435.62 1319.0,1434.0 L 1319.0,1434.0" style="stroke:#010101; fill:none;"/>
	<path d="M 400.0,1433.0 C 392.157,1451.47 397.699,1468.52 414.0,1480.0" style="stroke:#010101; fill:none;"/>
	<path d="M 1496.0,1435.0 L 1496.0,1438.0" style="stroke:#010101; fill:none;"/>
	<path d="M 1313.0,1437.0 L 1314.0,1440.0" style="stroke:#010101; fill:none;"/>
	<path d="M 1322.0,1437.0 L 1329.0,1445.0" style="stroke:#010101; fill:none;"/>
	<path d="M 1321.0,1440.0 C 1318.9,1448.87 1318.13,1451.42 1324.0,1459.0" style="stroke:#010101; fill:none;"/>
	<path d="M 1316.0,1445.0 L 1318.0,1449.0" style="stroke:#010101; fill:none;"/>
	<path d="M 1317.0,1453.0 C 1314.54,1460.55 1314.66,1463.8 1320.0,1470.0" style="stroke:#010101; fill:none;"/>
	<path d="M 543.0,1483.0 C 549.35,1474.17 557.119,1465.25 567.0,1460.28 C 588.681,1449.37 616.892,1461.04 637.0,1470.0 C 633.095,1476.76 624.354,1478.68 617.0,1479.0" style="stroke:#010101; fill:none;"/>
	<path d="M 1459.0,1459.0 C 1445.17,1474.98 1437.41,1495.02 1428.69,1514.0 C 1416.42,1540.73 1404.79,1567.79 1396.28,1596.0 C 1391.85,1610.69 1382.91,1628.5 1382.47,1643.91 C 1382.2,1653.28 1387.22,1665.12 1388.0,1675.0" style="stroke:#010101; fill:none;"/>
	<path d="M 1315.0,1464.0 C 1305.92,1479.73 1305.57,1503.33 1302.39,1521.0 C 1297.14,1550.16 1287.36,1578.09 1285.0,1608.0" style="stroke:#010101; fill:none;"/>
	<path d="M 455.0,1485.0 C 448.934,1484.09 441.189,1481.27 437.593,1475.96 C 433.105,1469.33 441.203,1465.38 446.957,1467.6 C 453.83,1470.26 459.979,1483.49 466.0,1488.56 C 483.8,1503.56 515.321,1516.64 539.0,1511.0" style="stroke:#010101; fill:none;"/>
	<path d="M 1456.0,1468.0 L 1454.0,1475.0" style="stroke:#010101; fill:none;"/>
	<path d="M 421.0,1474.0 L 435.0,1470.0" style="stroke:#010101; fill:none;"/>
	<path d="M 561.0,1481.0 C 578.988,1476.73 590.69,1475.15 609.0,1481.0" style="stroke:#010101; fill:none;"/>
	<path d="M 1453.0,1479.0 L 1452.0,1485.0" style="stroke:#010101; fill:none;"/>
	<path d="M 1314.0,1484.0 L 1315.0,1485.0" style="stroke:#010101; fill:none;"/>
	<path d="M 454.0,1503.0 C 464.542,1504.98 484.337,1510.14 494.0,1505.0" style="stroke:#010101; fill:none;"/>
	<path d="M 1474.0,1503.0 L 1472.0,1506.0" style="stroke:#010101; fill:none;"/>
	<path d="M 1466.0,1507.0 L 1465.0,1509.0" style="stroke:#010101; fill:none;"/>
	<path d="M 1296.0,1530.0 L 1295.0,1546.0" style="stroke:#010101; fill:none;"/>
	<path d="M 1294.0,1547.0 L 1294.0,1549.0" style="stroke:#010101; fill:none;"/>
	<path d="M 1408.0,1585.0 L 1415.0,1601.0" style="stroke:#010101; fill:none;"/>
	<path d="M 446.0,1669.0 C 445.803,1659.43 444.202,1650.51 446.763,1641.0 C 450.319,1627.8 464.191,1611.49 478.0,1608.54 C 483.877,1607.29 490.066,1609.93 496.0,1610.0 C 513.353,1610.2 530.711,1610.47 548.0,1610.87 C 572.212,1611.43 596.756,1600.41 621.0,1601.13 C 631.689,1601.45 642.718,1606.02 653.0,1608.63 C 674.456,1614.06 695.761,1619.94 717.0,1626.0" style="stroke:#010101; fill:none;"/>
	<path d="M 807.0,1624.0 C 820.313,1637.31 840.058,1652.44 841.0,1673.0" style="stroke:#010101; fill:none;"/>
	<path d="M 728.0,1627.0 C 754.135,1637.08 780.984,1649.38 809.0,1653.0" style="stroke:#010101; fill:none;"/>
	<path d="M 419.0,1632.0 L 427.0,1682.0" style="stroke:#010101; fill:none;"/>
	<path d="M 586.0,1678.0 C 585.226,1671.87 581.913,1656.84 586.028,1651.6 C 588.354,1648.64 596.507,1648.83 600.0,1648.25 C 614.14,1645.89 627.809,1645.52 642.0,1644.17 C 682.339,1640.33 721.263,1651.06 761.0,1654.97 C 784.275,1657.27 808.683,1655.12 829.0,1668.0" style="stroke:#010101; fill:none;"/>
	<path d="M 523.0,1661.0 L 511.0,1651.0 C 522.928,1641.94 534.83,1650.22 548.0,1651.82 C 560.283,1653.31 572.747,1651.01 585.0,1651.0" style="stroke:#010101; fill:none;"/>
	<path d="M 527.0,1648.0 L 527.0,1673.0" style="stroke:#010101; fill:none;"/>
	<path d="M 1381.0,1648.0 C 1362.41,1738.08 1347.93,1829.82 1359.9,1922.0 C 1364.61,1958.3 1378.04,1994.66 1390.31,2029.0 C 1398.22,2051.17 1408.33,2071.92 1418.69,2093.0 C 1423.36,2102.49 1426.87,2113.39 1433.0,2122.0 L 1440.0,2111.0" style="stroke:#010101; fill:none;"/>
	<path d="M 647.0,1649.0 L 649.0,1664.0" style="stroke:#010101; fill:none;"/>
	<path d="M 697.0,1650.0 C 707.394,1663.42 698.848,1678.25 684.0,1681.57 C 667.789,1685.2 657.993,1683.27 648.0,1670.0" style="stroke:#010101; fill:none;"/>
	<path d="M 819.0,1650.0 L 820.0,1650.0" style="stroke:#010101; fill:none;"/>
	<path d="M 503.0,1677.0 C 498.951,1664.56 496.442,1656.33 511.0,1651.0" style="stroke:#010101; fill:none;"/>
	<path d="M 576.0,1653.0 L 583.0,1662.0" style="stroke:#010101; fill:none;"/>
	<path d="M 760.0,1656.0 C 755.227,1672.87 727.137,1676.36 714.015,1668.63 C 709.214,1665.81 707.108,1660.58 703.0,1657.0" style="stroke:#010101; fill:none;"/>
	<path d="M 831.0,1659.0 C 826.728,1662.03 824.617,1661.74 821.0,1658.0 C 825.112,1655.85 827.268,1656.33 831.0,1659.0" style="stroke:#010101; fill:none;"/>
	<path d="M 835.0,1656.0 L 833.244,1669.0 L 825.0,1681.0 L 781.0,1659.0" style="stroke:#010101; fill:none;"/>
	<path d="M 813.0,1658.0 L 821.0,1658.0" style="stroke:#010101; fill:none;"/>
	<path d="M 467.0,1700.0 C 465.641,1689.01 466.759,1680.64 475.0,1673.0 L 488.0,1683.0 C 489.318,1677.63 485.676,1672.58 483.0,1668.0 L 498.0,1659.0" style="stroke:#010101; fill:none;"/>
	<path d="M 793.0,1659.0 C 798.353,1667.85 816.256,1669.03 825.0,1674.0" style="stroke:#010101; fill:none;"/>
	<path d="M 809.0,1659.0 C 812.35,1665.71 821.791,1667.38 828.0,1671.0" style="stroke:#010101; fill:none;"/>
	<path d="M 452.0,1660.0 L 470.0,1677.0" style="stroke:#010101; fill:none;"/>
	<path d="M 776.0,1664.0 L 819.0,1683.0" style="stroke:#010101; fill:none;"/>
	<path d="M 452.0,1667.0 L 466.0,1680.0" style="stroke:#010101; fill:none;"/>
	<path d="M 476.0,1673.0 L 483.0,1668.0" style="stroke:#010101; fill:none;"/>
	<path d="M 455.0,1672.0 L 456.0,1672.0" style="stroke:#010101; fill:none;"/>
	<path d="M 781.0,1672.0 C 794.059,1677.91 813.771,1694.73 825.0,1682.0" style="stroke:#010101; fill:none;"/>
	<path d="M 650.0,1674.0 C 646.291,1678.51 644.37,1684.5 639.895,1688.32 C 629.055,1697.58 612.734,1699.65 599.0,1698.96 C 595.012,1698.76 590.867,1695.83 587.0,1696.42 C 578.311,1697.75 570.324,1704.41 561.0,1705.45 C 554.676,1706.15 542.742,1705.8 537.039,1702.82 C 533.649,1701.05 531.847,1697.31 527.985,1696.32 C 518.867,1693.98 509.007,1700.53 500.0,1698.61 C 490.894,1696.66 480.119,1684.97 472.0,1680.0" style="stroke:#010101; fill:none;"/>
	<path d="M 460.0,1675.0 L 462.0,1677.0" style="stroke:#010101; fill:none;"/>
	<path d="M 473.0,1676.0 C 476.76,1679.2 486.48,1688.82 490.0,1682.0" style="stroke:#010101; fill:none;"/>
	<path d="M 446.0,1677.0 L 450.0,1693.0" style="stroke:#010101; fill:none;"/>
	<path d="M 785.0,1683.0 L 808.0,1693.0" style="stroke:#010101; fill:none;"/>
	<path d="M 492.0,1686.0 L 489.0,1687.0" style="stroke:#010101; fill:none;"/>
	<path d="M 473.0,1686.0 L 505.0,1707.0" style="stroke:#010101; fill:none;"/>
	<path d="M 492.0,1686.0 L 503.0,1698.0" style="stroke:#010101; fill:none;"/>
	<path d="M 436.0,1687.0 C 449.171,1700.17 462.441,1715.69 480.0,1723.0" style="stroke:#010101; fill:none;"/>
	<path d="M 842.0,1688.0 L 842.0,1690.0" style="stroke:#010101; fill:none;"/>
	<path d="M 817.0,1691.0 C 802.805,1705.19 788.386,1719.26 771.0,1729.55 C 740.398,1747.65 704.654,1754.62 671.0,1764.72 C 624.424,1778.69 583.69,1791.29 538.0,1767.0" style="stroke:#010101; fill:none;"/>
	<path d="M 473.0,1692.0 L 513.0,1719.0" style="stroke:#010101; fill:none;"/>
	<path d="M 788.0,1695.0 L 800.0,1700.0" style="stroke:#010101; fill:none;"/>
	<path d="M 471.0,1698.0 L 474.0,1700.0 C 471.497,1700.32 470.973,1700.47 471.0,1698.0" style="stroke:#010101; fill:none;"/>
	<path d="M 789.0,1699.0 L 795.0,1704.0" style="stroke:#010101; fill:none;"/>
	<path d="M 475.0,1700.0 L 507.0,1723.0" style="stroke:#010101; fill:none;"/>
	<path d="M 473.0,1701.0 C 476.333,1710.8 486.831,1716.27 493.985,1723.09 C 497.982,1726.9 500.815,1731.86 506.0,1734.0 L 504.0,1733.0" style="stroke:#010101; fill:none;"/>
	<path d="M 534.0,1702.0 C 524.324,1714.55 516.029,1738.16 523.848,1754.0 C 526.117,1758.6 531.412,1762.41 535.0,1766.0" style="stroke:#010101; fill:none;"/>
	<path d="M 497.0,1726.0 C 503.681,1724.02 512.962,1732.82 518.0,1737.0" style="stroke:#010101; fill:none;"/>
	<path d="M 501.0,1725.0 L 499.0,1727.0" style="stroke:#010101; fill:none;"/>
	<path d="M 478.0,1726.0 C 492.305,1752.08 491.865,1781.46 501.698,1809.0 C 505.859,1820.65 513.885,1830.1 521.0,1840.0" style="stroke:#010101; fill:none;"/>
	<path d="M 507.0,1733.0 C 509.591,1741.72 515.634,1746.63 522.0,1753.0" style="stroke:#010101; fill:none;"/>
	<path d="M 798.0,1733.0 C 763.248,1792.76 705.361,1841.35 638.0,1860.71 C 615.383,1867.21 592.665,1872.63 569.0,1868.68 C 553.819,1866.14 538.424,1858.14 525.0,1851.0" style="stroke:#010101; fill:none;"/>
	<path d="M 506.0,1734.0 L 508.0,1736.0" style="stroke:#010101; fill:none;"/>
	<path d="M 510.0,1735.0 L 512.0,1737.0" style="stroke:#010101; fill:none;"/>
	<path d="M 525.0,1752.0 L 524.0,1754.0" style="stroke:#010101; fill:none;"/>
	<path d="M 1367.0,1775.0 L 1360.0,1781.0" style="stroke:#010101; fill:none;"/>
	<path d="M 1367.0,1860.0 C 1363.65,1871.35 1365.9,1888.05 1370.0,1899.0" style="stroke:#010101; fill:none;"/>
	<path d="M 1376.0,1866.0 L 1378.0,1864.0" style="stroke:#010101; fill:none;"/>
	<path d="M 1355.0,1913.0 L 1359.0,1920.0" style="stroke:#010101; fill:none;"/>
	<path d="M 1383.0,1919.0 L 1376.0,1953.0" style="stroke:#010101; fill:none;"/>
	<path d="M 1399.0,1988.0 L 1401.0,1991.0" style="stroke:#010101; fill:none;"/>
	<path d="M 1441.0,2115.0 L 1446.18,2140.0 L 1445.0,2149.0 L 1448.0,2144.0" style="stroke:#010101; fill:none;"/>
	<path d="M 1433.0,2122.0 L 1444.0,2146.0" style="stroke:#010101; fill:none;"/>
	<path d="M 621.0,2135.0 L 626.0,2161.0 L 629.0,2160.0" style="stroke:#010101; fill:none;"/>
	<path d="M 623.0,2149.0 L 620.0,2151.0" style="stroke:#010101; fill:none;"/>
	<path d="M 1460.0,2149.0 C 1463.01,2161.72 1467.81,2174.74 1472.41,2187.0 C 1474.83,2193.43 1480.5,2196.09 1476.0,2203.0 C 1473.74,2199.31 1472.12,2197.07 1474.0,2193.0" style="stroke:#010101; fill:none;"/>
	<path d="M 1447.0,2150.0 C 1450.66,2165.82 1462.01,2181.67 1471.0,2195.0" style="stroke:#010101; fill:none;"/>
	<path d="M 626.0,2161.0 C 626.452,2182.88 631.649,2205.2 633.831,2227.0 C 639.392,2282.57 645.411,2339.04 642.961,2395.0 C 641.056,2438.49 633.039,2480.44 626.699,2523.0 C 625.251,2532.72 619.522,2542.03 617.514,2552.0 C 615.927,2559.88 618.0,2568.93 618.0,2577.0" style="stroke:#010101; fill:none;"/>
	<path d="M 1473.0,2180.0 L 1477.0,2193.0" style="stroke:#010101; fill:none;"/>
	<path d="M 1476.0,2194.0 L 1473.0,2197.0" style="stroke:#010101; fill:none;"/>
	<path d="M 1475.0,2195.0 L 1477.0,2197.0" style="stroke:#010101; fill:none;"/>
	<path d="M 1474.0,2199.0 L 1477.0,2199.0" style="stroke:#010101; fill:none;"/>
	<path d="M 1477.0,2199.0 L 1475.0,2201.0" style="stroke:#010101; fill:none;"/>
	<path d="M 1480.0,2202.0 L 1476.0,2204.0 L 1476.0,2204.0" style="stroke:#010101; fill:none;"/>
	<path d="M 1482.0,2205.0 L 1479.0,2208.0 L 1482.0,2207.0" style="stroke:#010101; fill:none;"/>
	<path d="M 1478.0,2207.0 L 1481.0,2208.0" style="stroke:#010101; fill:none;"/>
	<path d="M 1483.0,2208.0 C 1481.12,2222.37 1499.76,2238.26 1509.57,2245.91 C 1512.9,2248.5 1513.43,2253.21 1517.21,2255.62 C 1523.63,2259.74 1538.81,2265.58 1533.0,2275.0 L 1534.0,2276.0 L 1535.0,2276.0 L 1536.0,2274.0" style="stroke:#010101; fill:none;"/>
	<path d="M 1480.0,2210.0 L 1482.0,2212.0" style="stroke:#010101; fill:none;"/>
	<path d="M 1495.0,2217.0 L 1518.0,2242.0" style="stroke:#010101; fill:none;"/>
	<path d="M 1500.0,2225.0 L 1509.0,2244.0" style="stroke:#010101; fill:none;"/>
	<path d="M 1509.0,2247.0 L 1511.0,2249.0" style="stroke:#010101; fill:none;"/>
	<path d="M 1516.0,2256.0 L 1523.07,2277.0 L 1505.68,2298.0 L 1469.5,2345.74 L 1457.53,2355.04 L 1449.21,2370.79 L 1436.09,2381.04 L 1412.32,2409.04 L 1401.36,2426.62 L 1379.39,2448.04 L 1372.47,2459.61 L 1327.1,2502.02 L 1315.24,2519.96 L 1304.21,2529.1 L 1297.61,2538.77 L 1286.33,2544.56 L 1274.96,2558.39 L 1248.0,2577.0" style="stroke:#010101; fill:none;"/>
	<path d="M 1530.0,2275.0 L 1533.0,2275.0" style="stroke:#010101; fill:none;"/>
	<path d="M 1534.0,2276.0 L 1534.0,2284.0 C 1542.59,2286.02 1548.28,2293.3 1555.0,2298.47 C 1566.24,2307.12 1585.55,2319.26 1600.0,2320.0 L 1594.0,2312.0" style="stroke:#010101; fill:none;"/>
	<path d="M 1524.0,2281.0 L 1524.0,2284.0" style="stroke:#010101; fill:none;"/>
	<path d="M 1533.0,2285.0 C 1528.31,2296.2 1518.77,2300.76 1512.04,2310.01 C 1495.09,2333.32 1479.62,2357.81 1459.91,2379.0 C 1453.38,2386.01 1443.59,2389.05 1437.43,2395.42 C 1434.01,2398.96 1434.45,2404.93 1431.44,2409.0 C 1422.99,2420.41 1411.1,2430.98 1401.04,2441.04 C 1391.53,2450.55 1382.32,2461.23 1373.32,2471.09 C 1366.45,2478.64 1361.03,2487.32 1351.0,2491.0" style="stroke:#010101; fill:none;"/>
	<path d="M 1568.0,2290.0 L 1572.0,2292.0" style="stroke:#010101; fill:none;"/>
	<path d="M 767.0,2304.0 C 778.643,2324.02 784.847,2348.49 793.449,2370.0 C 806.027,2401.44 818.147,2433.09 826.373,2466.0 C 829.603,2478.92 833.889,2492.61 834.0,2506.0" style="stroke:#010101; fill:none;"/>
	<path d="M 1601.0,2321.0 C 1612.94,2327.79 1624.34,2334.9 1637.0,2340.42 C 1640.35,2341.89 1646.96,2346.88 1650.68,2344.87 C 1654.5,2342.81 1651.8,2337.02 1651.0,2334.0" style="stroke:#010101; fill:none;"/>
	<path d="M 1651.0,2346.0 C 1658.72,2351.5 1671.53,2352.83 1670.0,2364.0" style="stroke:#010101; fill:none;"/>
	<path d="M 1674.0,2349.0 L 1671.0,2356.0" style="stroke:#010101; fill:none;"/>
	<path d="M 1672.0,2358.0 C 1680.12,2360.34 1683.82,2364.86 1692.0,2360.0" style="stroke:#010101; fill:none;"/>
	<path d="M 1686.0,2364.0 C 1691.36,2368.1 1693.55,2365.46 1699.0,2363.0" style="stroke:#010101; fill:none;"/>
	<path d="M 1693.0,2368.0 C 1719.08,2389.44 1753.9,2405.2 1784.0,2420.25 C 1797.41,2426.95 1810.42,2436.63 1825.0,2440.0" style="stroke:#010101; fill:none;"/>
	<path d="M 1817.0,2459.0 L 1742.0,2522.04 L 1699.09,2561.43 L 1683.0,2577.0" style="stroke:#010101; fill:none;"/>
	<path d="M 1347.0,2494.0 C 1346.38,2505.44 1332.91,2514.94 1325.21,2522.38 C 1320.63,2526.8 1318.45,2533.25 1313.83,2537.83 C 1300.29,2551.24 1285.65,2562.47 1273.0,2577.0" style="stroke:#010101; fill:none;"/>
	<path d="M 604.0,2577.0 C 606.376,2558.21 611.344,2541.12 615.761,2523.0 C 617.208,2517.06 618.229,2504.66 627.0,2508.0" style="stroke:#010101; fill:none;"/>
</svg>
