<?xml version="1.0" ?>
<svg baseProfile="full" height="2577" version="1.1" width="1990" xmlns="http://www.w3.org/2000/svg" xmlns:ev="http://www.w3.org/2001/xml-events" xmlns:xlink="http://www.w3.org/1999/xlink">
	<defs/>
	<path d="M 1641.0,660.0 C 1644.86,666.969 1644.45,672.674 1652.0,677.0" style="stroke:#010101; fill:none;"/>
	<path d="M 1649.0,665.0 L 1650.0,666.0" style="stroke:#010101; fill:none;"/>
	<path d="M 1647.0,675.0 C 1647.42,680.468 1651.22,682.445 1655.0,686.0" style="stroke:#010101; fill:none;"/>
	<path d="M 1648.0,681.0 C 1648.75,690.412 1652.04,699.675 1652.86,709.0 C 1653.73,718.961 1651.91,726.087 1655.5,736.0 C 1657.76,742.232 1661.44,751.794 1669.0,751.0 C 1667.63,760.033 1673.15,768.087 1677.0,776.0 C 1682.86,788.044 1687.18,800.563 1692.05,813.0 C 1694.38,818.945 1700.08,831.583 1697.0,837.0 L 1696.0,831.0" style="stroke:#010101; fill:none;"/>
	<path d="M 1652.0,692.0 L 1656.0,696.0" style="stroke:#010101; fill:none;"/>
	<path d="M 1668.0,748.0 L 1668.0,750.0" style="stroke:#010101; fill:none;"/>
	<path d="M 1665.0,754.0 L 1666.0,755.0" style="stroke:#010101; fill:none;"/>
	<path d="M 1540.0,770.0 L 1542.0,773.0 L 1538.0,768.0 C 1551.76,762.079 1567.15,760.0 1582.0,760.0" style="stroke:#010101; fill:none;"/>
	<path d="M 1554.0,767.0 L 1551.0,769.0 L 1566.04,768.417 L 1596.0,761.0" style="stroke:#010101; fill:none;"/>
	<path d="M 1594.0,768.0 L 1594.0,765.0 C 1598.38,768.667 1604.76,765.986 1610.0,765.0" style="stroke:#010101; fill:none;"/>
	<path d="M 1555.0,766.0 L 1558.0,766.0" style="stroke:#010101; fill:none;"/>
	<path d="M 1592.0,769.0 L 1589.0,767.0 L 1593.0,766.0" style="stroke:#010101; fill:none;"/>
	<path d="M 1590.0,769.0 L 1585.0,768.0 L 1589.0,767.0" style="stroke:#010101; fill:none;"/>
	<path d="M 1540.0,773.0 L 1536.0,768.0 L 1538.0,768.0" style="stroke:#010101; fill:none;"/>
	<path d="M 1551.0,769.0 L 1547.0,771.0 L 1551.0,768.0" style="stroke:#010101; fill:none;"/>
	<path d="M 1586.0,770.0 L 1578.0,770.0 L 1585.0,768.0" style="stroke:#010101; fill:none;"/>
	<path d="M 1471.0,851.0 C 1503.08,811.609 1556.44,780.425 1606.0,770.449 C 1614.62,768.714 1622.4,770.157 1631.0,769.0" style="stroke:#010101; fill:none;"/>
	<path d="M 1535.0,772.0 L 1532.0,770.0 L 1535.0,769.0" style="stroke:#010101; fill:none;"/>
	<path d="M 1544.0,769.0 L 1547.0,769.0" style="stroke:#010101; fill:none;"/>
	<path d="M 1562.0,769.0 C 1547.54,778.199 1529.85,782.18 1515.0,791.425 C 1487.83,808.337 1465.84,834.777 1448.0,861.0" style="stroke:#010101; fill:none;"/>
	<path d="M 1680.0,769.0 L 1682.0,774.0" style="stroke:#010101; fill:none;"/>
	<path d="M 1492.0,790.0 L 1501.0,782.756 L 1532.0,770.0" style="stroke:#010101; fill:none;"/>
	<path d="M 1579.0,772.0 L 1573.0,772.0 L 1578.0,770.0" style="stroke:#010101; fill:none;"/>
	<path d="M 1538.0,771.0 L 1539.0,771.0" style="stroke:#010101; fill:none;"/>
	<path d="M 1533.0,772.0 L 1493.0,791.0" style="stroke:#010101; fill:none;"/>
	<path d="M 1543.0,772.0 L 1546.0,772.0" style="stroke:#010101; fill:none;"/>
	<path d="M 1551.0,781.0 L 1549.0,782.0 C 1555.34,776.503 1564.72,773.223 1573.0,772.0" style="stroke:#010101; fill:none;"/>
	<path d="M 1514.0,839.0 C 1547.44,813.795 1580.86,786.573 1620.0,771.0" style="stroke:#010101; fill:none;"/>
	<path d="M 1541.0,828.0 C 1571.94,810.377 1599.12,778.763 1636.0,774.0" style="stroke:#010101; fill:none;"/>
	<path d="M 1443.0,856.0 C 1445.59,850.607 1445.49,844.038 1448.73,839.0 C 1468.48,808.273 1507.12,790.463 1538.0,774.0" style="stroke:#010101; fill:none;"/>
	<path d="M 1553.0,783.0 L 1574.0,774.0" style="stroke:#010101; fill:none;"/>
	<path d="M 1566.0,820.0 C 1591.15,804.482 1617.15,779.393 1647.0,775.0" style="stroke:#010101; fill:none;"/>
	<path d="M 1482.0,847.0 C 1503.41,826.033 1528.87,807.715 1555.0,793.14 C 1561.63,789.442 1576.74,778.595 1584.0,784.0 L 1605.0,776.0" style="stroke:#010101; fill:none;"/>
	<path d="M 1683.0,776.0 C 1689.45,784.808 1694.12,795.456 1697.0,806.0" style="stroke:#010101; fill:none;"/>
	<path d="M 1572.0,824.0 C 1594.56,806.109 1625.67,783.496 1654.0,777.0" style="stroke:#010101; fill:none;"/>
	<path d="M 1585.0,781.0 L 1587.0,781.0" style="stroke:#010101; fill:none;"/>
	<path d="M 1603.0,781.0 L 1609.0,781.0" style="stroke:#010101; fill:none;"/>
	<path d="M 1542.0,783.0 L 1539.0,787.0 L 1549.0,782.0" style="stroke:#010101; fill:none;"/>
	<path d="M 1618.0,783.0 L 1623.0,782.0" style="stroke:#010101; fill:none;"/>
	<path d="M 1650.0,784.0 L 1658.0,782.0" style="stroke:#010101; fill:none;"/>
	<path d="M 1584.0,784.0 C 1554.14,805.258 1521.46,820.609 1495.0,847.0" style="stroke:#010101; fill:none;"/>
	<path d="M 1535.0,788.0 L 1533.0,788.0 L 1538.0,785.0" style="stroke:#010101; fill:none;"/>
	<path d="M 1589.0,819.0 L 1647.0,786.0" style="stroke:#010101; fill:none;"/>
	<path d="M 1539.0,787.0 L 1536.0,789.0" style="stroke:#010101; fill:none;"/>
	<path d="M 1662.0,788.0 L 1625.0,803.0" style="stroke:#010101; fill:none;"/>
	<path d="M 1491.0,792.0 L 1487.0,792.0 L 1490.0,790.0" style="stroke:#010101; fill:none;"/>
	<path d="M 1534.0,790.0 C 1503.88,810.302 1475.13,831.599 1452.0,860.0" style="stroke:#010101; fill:none;"/>
	<path d="M 1667.0,790.0 L 1660.0,792.0" style="stroke:#010101; fill:none;"/>
	<path d="M 1658.0,791.0 L 1647.0,797.0" style="stroke:#010101; fill:none;"/>
	<path d="M 1487.0,793.0 L 1456.0,817.0" style="stroke:#010101; fill:none;"/>
	<path d="M 1699.0,795.0 L 1708.0,817.0" style="stroke:#010101; fill:none;"/>
	<path d="M 1496.0,805.0 L 1501.0,801.0" style="stroke:#010101; fill:none;"/>
	<path d="M 1447.0,852.0 C 1460.95,834.689 1475.35,815.305 1495.0,804.0" style="stroke:#010101; fill:none;"/>
	<path d="M 1704.0,812.0 L 1710.0,856.0" style="stroke:#010101; fill:none;"/>
	<path d="M 1455.0,819.0 L 1453.0,824.0" style="stroke:#010101; fill:none;"/>
	<path d="M 1447.0,820.0 L 1447.0,822.0" style="stroke:#010101; fill:none;"/>
	<path d="M 1203.0,823.0 C 1171.17,835.009 1134.66,840.25 1106.0,860.0 C 1113.37,863.34 1119.34,858.524 1126.0,855.566 C 1139.55,849.551 1153.7,844.392 1168.0,840.614 C 1172.42,839.446 1183.04,834.398 1187.0,837.0" style="stroke:#010101; fill:none;"/>
	<path d="M 1446.0,824.0 L 1445.0,826.0" style="stroke:#010101; fill:none;"/>
	<path d="M 1070.0,875.0 L 1074.0,876.0 L 1070.0,879.0 C 1066.54,867.912 1087.04,861.835 1095.0,857.972 C 1124.23,843.783 1152.45,832.6 1184.0,825.0" style="stroke:#010101; fill:none;"/>
	<path d="M 1203.0,826.0 L 1206.0,827.0" style="stroke:#010101; fill:none;"/>
	<path d="M 1452.0,826.0 L 1450.0,835.0" style="stroke:#010101; fill:none;"/>
	<path d="M 1208.0,828.0 L 1211.0,829.0" style="stroke:#010101; fill:none;"/>
	<path d="M 1233.0,829.0 L 1234.0,830.0" style="stroke:#010101; fill:none;"/>
	<path d="M 1213.0,830.0 L 1214.0,830.0" style="stroke:#010101; fill:none;"/>
	<path d="M 1443.0,830.0 L 1443.0,831.0" style="stroke:#010101; fill:none;"/>
	<path d="M 1216.0,831.0 L 1218.0,832.0" style="stroke:#010101; fill:none;"/>
	<path d="M 1236.0,831.0 L 1238.0,833.0" style="stroke:#010101; fill:none;"/>
	<path d="M 1262.0,833.0 L 1269.0,840.0" style="stroke:#010101; fill:none;"/>
	<path d="M 1442.0,833.0 L 1441.0,836.0" style="stroke:#010101; fill:none;"/>
	<path d="M 1240.0,834.0 L 1241.0,835.0" style="stroke:#010101; fill:none;"/>
	<path d="M 1280.0,834.0 L 1281.0,835.0" style="stroke:#010101; fill:none;"/>
	<path d="M 1188.0,836.0 L 1220.0,837.0" style="stroke:#010101; fill:none;"/>
	<path d="M 1255.0,837.0 L 1258.0,839.0" style="stroke:#010101; fill:none;"/>
	<path d="M 1278.0,837.0 L 1279.0,839.0" style="stroke:#010101; fill:none;"/>
	<path d="M 1282.0,837.0 L 1283.0,838.0" style="stroke:#010101; fill:none;"/>
	<path d="M 1697.0,837.0 C 1701.21,868.241 1708.41,901.24 1718.94,931.0 C 1725.25,948.855 1734.95,965.221 1741.47,983.0 C 1750.08,1006.48 1755.48,1032.4 1766.0,1055.0 L 1772.0,1059.0" style="stroke:#010101; fill:none;"/>
	<path d="M 1440.0,838.0 L 1439.0,841.0" style="stroke:#010101; fill:none;"/>
	<path d="M 1234.0,839.0 L 1250.0,854.0" style="stroke:#010101; fill:none;"/>
	<path d="M 1246.0,839.0 L 1248.0,840.0" style="stroke:#010101; fill:none;"/>
	<path d="M 1284.0,840.0 L 1286.0,842.0" style="stroke:#010101; fill:none;"/>
	<path d="M 1260.0,841.0 L 1261.0,842.0" style="stroke:#010101; fill:none;"/>
	<path d="M 1281.0,841.0 L 1282.0,842.0" style="stroke:#010101; fill:none;"/>
	<path d="M 963.0,931.0 C 999.7,910.547 1033.0,884.112 1070.0,863.826 C 1084.26,856.006 1101.75,844.436 1118.0,842.0" style="stroke:#010101; fill:none;"/>
	<path d="M 1082.0,850.0 L 1079.0,849.0 L 1099.0,843.0" style="stroke:#010101; fill:none;"/>
	<path d="M 1164.0,843.0 L 1165.0,843.0" style="stroke:#010101; fill:none;"/>
	<path d="M 1271.0,843.0 C 1279.43,851.429 1288.83,860.079 1294.0,871.0" style="stroke:#010101; fill:none;"/>
	<path d="M 1438.0,843.0 L 1438.0,844.0" style="stroke:#010101; fill:none;"/>
	<path d="M 1156.0,849.0 C 1180.09,842.764 1206.84,843.047 1231.0,849.0" style="stroke:#010101; fill:none;"/>
	<path d="M 1264.0,844.0 L 1265.0,845.0" style="stroke:#010101; fill:none;"/>
	<path d="M 1287.0,844.0 L 1288.0,845.0" style="stroke:#010101; fill:none;"/>
	<path d="M 1254.0,845.0 L 1255.0,846.0" style="stroke:#010101; fill:none;"/>
	<path d="M 1284.0,845.0 L 1296.0,864.0" style="stroke:#010101; fill:none;"/>
	<path d="M 1268.0,847.0 L 1284.0,864.0" style="stroke:#010101; fill:none;"/>
	<path d="M 957.0,913.0 L 955.0,913.0 C 966.085,911.792 977.125,899.219 986.0,892.86 C 1007.85,877.205 1034.41,854.315 1061.0,848.0" style="stroke:#010101; fill:none;"/>
	<path d="M 1234.0,848.0 L 1249.0,860.0" style="stroke:#010101; fill:none;"/>
	<path d="M 1258.0,848.0 L 1259.0,849.0" style="stroke:#010101; fill:none;"/>
	<path d="M 1290.0,848.0 L 1291.0,849.0" style="stroke:#010101; fill:none;"/>
	<path d="M 1436.0,848.0 L 1436.0,849.0" style="stroke:#010101; fill:none;"/>
	<path d="M 956.0,911.0 C 983.877,890.957 1012.18,858.743 1046.0,849.0" style="stroke:#010101; fill:none;"/>
	<path d="M 1075.0,852.0 L 1073.0,852.0 L 1078.0,851.0" style="stroke:#010101; fill:none;"/>
	<path d="M 1234.0,871.0 C 1216.6,861.832 1194.25,860.153 1175.0,858.321 C 1167.13,857.573 1154.06,860.54 1148.0,855.0 C 1154.93,852.022 1162.57,852.069 1170.0,851.46 C 1193.24,849.556 1228.55,852.328 1247.0,868.0" style="stroke:#010101; fill:none;"/>
	<path d="M 1262.0,851.0 L 1263.0,852.0" style="stroke:#010101; fill:none;"/>
	<path d="M 1292.0,851.0 L 1293.0,852.0" style="stroke:#010101; fill:none;"/>
	<path d="M 951.0,929.0 L 1036.0,871.716 L 1073.0,852.0" style="stroke:#010101; fill:none;"/>
	<path d="M 1078.0,852.0 L 1076.0,853.0" style="stroke:#010101; fill:none;"/>
	<path d="M 1444.0,852.0 L 1445.0,853.0" style="stroke:#010101; fill:none;"/>
	<path d="M 1074.0,854.0 L 1063.0,857.0" style="stroke:#010101; fill:none;"/>
	<path d="M 1294.0,854.0 L 1296.0,856.0" style="stroke:#010101; fill:none;"/>
	<path d="M 1120.0,861.0 L 1148.0,855.0" style="stroke:#010101; fill:none;"/>
	<path d="M 1252.0,855.0 L 1257.0,859.0" style="stroke:#010101; fill:none;"/>
	<path d="M 1146.0,858.0 L 1148.0,858.0" style="stroke:#010101; fill:none;"/>
	<path d="M 1297.0,858.0 L 1298.0,859.0" style="stroke:#010101; fill:none;"/>
	<path d="M 1064.0,859.0 L 1012.0,891.692 L 970.0,920.0" style="stroke:#010101; fill:none;"/>
	<path d="M 1074.0,876.0 L 1106.0,860.0" style="stroke:#010101; fill:none;"/>
	<path d="M 1251.0,861.0 L 1253.0,863.0" style="stroke:#010101; fill:none;"/>
	<path d="M 1097.0,864.0 L 1101.0,862.0" style="stroke:#010101; fill:none;"/>
	<path d="M 1108.0,863.0 L 1104.0,867.0 L 1111.0,865.0" style="stroke:#010101; fill:none;"/>
	<path d="M 1111.0,862.0 L 1109.0,864.0" style="stroke:#010101; fill:none;"/>
	<path d="M 1262.0,862.0 L 1265.0,864.0" style="stroke:#010101; fill:none;"/>
	<path d="M 1102.0,863.0 L 1105.0,863.0" style="stroke:#010101; fill:none;"/>
	<path d="M 1109.0,870.0 C 1135.65,863.102 1160.78,862.137 1188.0,865.718 C 1197.86,867.016 1209.26,867.939 1218.0,873.0" style="stroke:#010101; fill:none;"/>
	<path d="M 1011.0,864.0 C 992.719,875.088 975.822,887.781 959.0,901.0 C 951.512,906.884 942.901,916.703 933.0,917.0 L 936.0,919.0" style="stroke:#010101; fill:none;"/>
	<path d="M 1255.0,864.0 L 1256.0,865.0" style="stroke:#010101; fill:none;"/>
	<path d="M 1091.0,867.0 L 1095.0,865.0" style="stroke:#010101; fill:none;"/>
	<path d="M 1297.0,866.0 L 1298.0,868.0" style="stroke:#010101; fill:none;"/>
	<path d="M 1456.0,866.0 C 1435.03,890.605 1435.93,924.812 1438.94,955.0 C 1445.44,1020.2 1462.36,1084.12 1503.0,1137.0" style="stroke:#010101; fill:none;"/>
	<path d="M 1713.0,866.0 L 1721.0,892.0" style="stroke:#010101; fill:none;"/>
	<path d="M 1032.0,904.0 L 1081.0,878.731 L 1103.0,868.0" style="stroke:#010101; fill:none;"/>
	<path d="M 1286.0,867.0 L 1287.0,868.0" style="stroke:#010101; fill:none;"/>
	<path d="M 1103.0,868.0 L 1100.0,869.0" style="stroke:#010101; fill:none;"/>
	<path d="M 1299.0,870.0 L 1299.0,871.0" style="stroke:#010101; fill:none;"/>
	<path d="M 1547.0,893.0 C 1576.37,875.041 1624.01,858.937 1655.0,881.0" style="stroke:#010101; fill:none;"/>
	<path d="M 1069.0,879.0 L 1064.0,876.0 L 1068.0,873.0" style="stroke:#010101; fill:none;"/>
	<path d="M 1116.0,876.0 L 1122.0,876.0 L 1108.0,876.0 L 1111.0,877.0" style="stroke:#010101; fill:none;"/>
	<path d="M 1167.0,876.0 L 1159.0,875.0 C 1172.27,871.781 1199.85,876.154 1211.0,884.0" style="stroke:#010101; fill:none;"/>
	<path d="M 1122.0,876.0 L 1159.0,875.0" style="stroke:#010101; fill:none;"/>
	<path d="M 1163.0,875.0 L 1163.0,877.0" style="stroke:#010101; fill:none;"/>
	<path d="M 1067.0,880.0 C 1062.64,882.769 1058.96,885.393 1055.0,881.0 L 1064.0,876.0" style="stroke:#010101; fill:none;"/>
	<path d="M 1111.0,878.0 C 1106.12,880.043 1101.69,880.675 1097.0,878.0 L 1108.0,876.0" style="stroke:#010101; fill:none;"/>
	<path d="M 1170.0,876.0 L 1175.0,878.0 L 1175.0,876.0" style="stroke:#010101; fill:none;"/>
	<path d="M 1178.0,876.0 L 1191.0,881.0" style="stroke:#010101; fill:none;"/>
	<path d="M 1067.0,877.0 L 1068.0,877.0" style="stroke:#010101; fill:none;"/>
	<path d="M 1175.0,877.0 L 1177.0,879.0" style="stroke:#010101; fill:none;"/>
	<path d="M 1068.0,886.0 C 1077.42,887.514 1088.54,881.484 1097.0,878.0" style="stroke:#010101; fill:none;"/>
	<path d="M 1168.0,878.0 L 1169.0,878.0" style="stroke:#010101; fill:none;"/>
	<path d="M 981.0,879.0 C 967.646,888.564 943.804,901.392 936.0,916.0" style="stroke:#010101; fill:none;"/>
	<path d="M 1112.0,879.0 L 1115.0,879.0" style="stroke:#010101; fill:none;"/>
	<path d="M 1661.0,879.0 C 1659.99,890.559 1650.12,895.299 1647.48,905.286 C 1645.86,911.451 1653.45,914.016 1658.0,914.0 L 1654.0,931.0" style="stroke:#010101; fill:none;"/>
	<path d="M 1054.0,881.0 L 1051.0,884.0 L 1057.0,885.0" style="stroke:#010101; fill:none;"/>
	<path d="M 1095.0,881.0 L 1098.0,881.0" style="stroke:#010101; fill:none;"/>
	<path d="M 1609.0,881.0 C 1608.15,886.143 1606.9,894.607 1603.3,898.566 C 1599.45,902.786 1593.38,901.172 1591.59,908.001 C 1589.61,915.535 1595.59,924.369 1595.96,932.0 C 1596.64,946.097 1590.25,957.835 1584.0,970.0 L 1600.0,970.0 L 1599.0,972.0 L 1598.0,973.0 L 1597.0,974.0 L 1596.0,974.0" style="stroke:#010101; fill:none;"/>
	<path d="M 1625.0,881.0 C 1624.01,888.175 1616.44,896.83 1625.0,901.0 C 1620.92,906.702 1624.8,912.913 1629.37,905.941 C 1632.41,901.299 1629.23,896.172 1633.0,891.0" style="stroke:#010101; fill:none;"/>
	<path d="M 1030.0,897.0 L 1029.0,901.0 C 1027.11,894.188 1045.5,886.534 1051.0,884.0" style="stroke:#010101; fill:none;"/>
	<path d="M 1060.0,890.0 C 1066.59,894.238 1082.29,887.917 1090.0,887.05 C 1114.11,884.341 1143.33,879.645 1167.0,887.0" style="stroke:#010101; fill:none;"/>
	<path d="M 1036.0,886.0 L 1037.0,886.0" style="stroke:#010101; fill:none;"/>
	<path d="M 1042.0,888.0 L 1045.0,886.0" style="stroke:#010101; fill:none;"/>
	<path d="M 1051.0,886.0 L 1052.0,887.0" style="stroke:#010101; fill:none;"/>
	<path d="M 1047.0,887.0 C 1047.39,892.077 1041.3,894.286 1037.0,893.0" style="stroke:#010101; fill:none;"/>
	<path d="M 1591.0,887.0 C 1589.29,892.897 1587.86,895.772 1582.0,898.0 C 1584.77,901.673 1585.88,905.747 1591.0,905.0" style="stroke:#010101; fill:none;"/>
	<path d="M 1052.0,888.0 L 1049.0,889.0" style="stroke:#010101; fill:none;"/>
	<path d="M 1579.0,889.0 L 1582.0,898.0" style="stroke:#010101; fill:none;"/>
	<path d="M 1041.0,890.0 L 1039.0,891.0" style="stroke:#010101; fill:none;"/>
	<path d="M 1040.0,901.0 L 1074.0,895.296 L 1138.0,890.0" style="stroke:#010101; fill:none;"/>
	<path d="M 1553.0,892.0 C 1551.04,899.764 1554.64,902.635 1560.0,908.0 C 1565.37,901.49 1570.04,901.183 1578.0,900.0 C 1579.23,904.335 1581.38,906.654 1586.0,906.0" style="stroke:#010101; fill:none;"/>
	<path d="M 1056.0,893.0 L 1060.0,893.0" style="stroke:#010101; fill:none;"/>
	<path d="M 1558.0,893.0 C 1558.34,897.454 1559.62,899.73 1564.0,901.0" style="stroke:#010101; fill:none;"/>
	<path d="M 1033.0,895.0 L 1035.0,897.0 L 1031.0,899.0" style="stroke:#010101; fill:none;"/>
	<path d="M 1038.0,895.0 L 1036.0,897.0" style="stroke:#010101; fill:none;"/>
	<path d="M 1632.0,900.0 L 1638.0,895.0" style="stroke:#010101; fill:none;"/>
	<path d="M 1071.0,906.0 C 1057.48,906.037 1036.23,915.948 1024.0,911.0 C 1043.69,902.53 1068.87,901.356 1090.0,898.845 C 1100.1,897.645 1111.95,894.688 1122.0,897.0" style="stroke:#010101; fill:none;"/>
	<path d="M 1543.0,896.0 C 1527.68,907.011 1511.15,919.955 1502.26,937.0 C 1499.17,942.93 1494.15,950.781 1498.0,957.0 C 1503.14,950.14 1506.24,941.831 1511.53,935.0 C 1517.52,927.255 1525.82,921.101 1533.42,915.041 C 1540.07,909.746 1545.41,904.203 1554.0,903.0" style="stroke:#010101; fill:none;"/>
	<path d="M 1654.0,896.0 C 1657.58,898.191 1659.26,897.764 1663.0,896.0" style="stroke:#010101; fill:none;"/>
	<path d="M 1581.0,897.0 L 1578.0,900.0" style="stroke:#010101; fill:none;"/>
	<path d="M 1589.0,898.0 L 1595.0,902.0" style="stroke:#010101; fill:none;"/>
	<path d="M 1658.0,899.0 L 1651.0,901.0" style="stroke:#010101; fill:none;"/>
	<path d="M 1023.0,901.0 L 1026.0,901.0 L 1018.0,904.0 L 1024.0,904.0" style="stroke:#010101; fill:none;"/>
	<path d="M 1621.0,910.0 C 1615.03,908.935 1611.24,906.063 1608.0,901.0 L 1619.0,900.0" style="stroke:#010101; fill:none;"/>
	<path d="M 1605.0,901.0 L 1608.0,901.0" style="stroke:#010101; fill:none;"/>
	<path d="M 1625.0,901.0 L 1630.0,901.0" style="stroke:#010101; fill:none;"/>
	<path d="M 1556.0,902.0 L 1560.0,901.0" style="stroke:#010101; fill:none;"/>
	<path d="M 1572.0,902.0 C 1571.06,907.883 1566.14,908.79 1561.0,907.0" style="stroke:#010101; fill:none;"/>
	<path d="M 1565.0,903.0 L 1567.0,907.0" style="stroke:#010101; fill:none;"/>
	<path d="M 1578.0,903.0 L 1573.0,908.0" style="stroke:#010101; fill:none;"/>
	<path d="M 1649.0,903.0 C 1654.86,907.831 1660.51,905.873 1667.0,903.0" style="stroke:#010101; fill:none;"/>
	<path d="M 990.0,923.0 L 1018.0,904.0" style="stroke:#010101; fill:none;"/>
	<path d="M 1552.0,905.0 C 1549.24,908.467 1547.2,909.775 1543.0,908.0" style="stroke:#010101; fill:none;"/>
	<path d="M 1631.0,905.0 L 1646.0,905.0" style="stroke:#010101; fill:none;"/>
	<path d="M 1019.0,906.0 L 1017.0,908.0" style="stroke:#010101; fill:none;"/>
	<path d="M 1012.0,909.0 L 1015.0,907.0" style="stroke:#010101; fill:none;"/>
	<path d="M 1659.0,913.0 L 1675.0,908.0" style="stroke:#010101; fill:none;"/>
	<path d="M 1647.0,909.0 C 1645.13,912.577 1645.13,914.423 1647.0,918.0 L 1651.0,914.0" style="stroke:#010101; fill:none;"/>
	<path d="M 1683.0,910.0 L 1666.0,922.0 C 1673.48,926.346 1680.43,920.964 1688.0,919.0" style="stroke:#010101; fill:none;"/>
	<path d="M 1007.0,912.0 L 1010.0,911.0" style="stroke:#010101; fill:none;"/>
	<path d="M 1014.0,912.0 L 1024.0,911.0" style="stroke:#010101; fill:none;"/>
	<path d="M 955.0,916.0 L 952.0,919.0 L 950.0,917.0 L 954.0,914.0" style="stroke:#010101; fill:none;"/>
	<path d="M 952.0,915.0 L 954.0,917.0" style="stroke:#010101; fill:none;"/>
	<path d="M 1653.0,915.0 C 1651.08,918.782 1646.97,918.343 1645.12,921.403 C 1642.33,925.99 1648.91,931.752 1646.98,937.0 C 1642.06,950.309 1625.81,959.81 1614.0,966.0" style="stroke:#010101; fill:none;"/>
	<path d="M 951.0,919.0 C 948.76,919.062 948.518,918.749 950.0,917.0" style="stroke:#010101; fill:none;"/>
	<path d="M 933.0,918.0 C 931.804,920.242 931.758,920.196 934.0,919.0" style="stroke:#010101; fill:none;"/>
	<path d="M 1651.0,919.0 L 1657.0,921.0" style="stroke:#010101; fill:none;"/>
	<path d="M 932.0,922.0 L 928.0,925.0 L 931.0,920.0" style="stroke:#010101; fill:none;"/>
	<path d="M 947.0,922.0 L 944.0,922.0 L 950.0,920.0" style="stroke:#010101; fill:none;"/>
	<path d="M 947.0,920.0 L 947.0,921.0" style="stroke:#010101; fill:none;"/>
	<path d="M 929.0,921.0 L 931.0,923.0" style="stroke:#010101; fill:none;"/>
	<path d="M 1681.0,921.0 C 1684.45,923.888 1686.55,924.683 1691.0,924.0" style="stroke:#010101; fill:none;"/>
	<path d="M 927.0,922.0 L 925.0,927.0 L 926.0,925.0" style="stroke:#010101; fill:none;"/>
	<path d="M 1660.0,922.0 L 1666.0,922.0" style="stroke:#010101; fill:none;"/>
	<path d="M 916.0,923.0 L 933.0,948.0" style="stroke:#010101; fill:none;"/>
	<path d="M 944.0,923.0 L 940.0,928.0 L 942.0,925.0" style="stroke:#010101; fill:none;"/>
	<path d="M 1677.0,924.0 L 1684.0,925.0" style="stroke:#010101; fill:none;"/>
	<path d="M 924.0,926.0 L 913.0,934.0 L 916.0,935.0" style="stroke:#010101; fill:none;"/>
	<path d="M 1670.0,926.0 L 1665.0,932.0 L 1669.0,929.0" style="stroke:#010101; fill:none;"/>
	<path d="M 922.0,928.0 L 923.0,929.0" style="stroke:#010101; fill:none;"/>
	<path d="M 925.0,928.0 L 924.0,929.0" style="stroke:#010101; fill:none;"/>
	<path d="M 932.0,932.0 L 939.0,928.0" style="stroke:#010101; fill:none;"/>
	<path d="M 917.0,933.0 L 920.0,930.0" style="stroke:#010101; fill:none;"/>
	<path d="M 936.0,930.0 L 937.0,930.0" style="stroke:#010101; fill:none;"/>
	<path d="M 1665.0,932.0 L 1663.0,934.0 L 1665.0,931.0" style="stroke:#010101; fill:none;"/>
	<path d="M 901.0,957.0 L 897.0,945.0 L 912.0,938.0 L 913.0,932.0" style="stroke:#010101; fill:none;"/>
	<path d="M 1662.0,933.0 L 1659.0,937.0 L 1670.0,935.0" style="stroke:#010101; fill:none;"/>
	<path d="M 898.0,943.0 L 910.0,934.0" style="stroke:#010101; fill:none;"/>
	<path d="M 915.0,936.0 L 913.0,938.0" style="stroke:#010101; fill:none;"/>
	<path d="M 1557.96,937.145 C 1564.83,937.145 1564.35,947.986 1557.96,948.454 C 1549.95,949.04 1550.08,937.145 1557.96,937.145" style="stroke:#010101; fill:none;"/>
	<path d="M 908.0,939.0 L 911.0,937.0" style="stroke:#010101; fill:none;"/>
	<path d="M 1658.0,938.0 C 1660.84,942.366 1666.41,940.095 1671.0,940.0" style="stroke:#010101; fill:none;"/>
	<path d="M 904.0,939.0 L 906.0,941.0" style="stroke:#010101; fill:none;"/>
	<path d="M 1574.11,939.891 C 1580.56,938.23 1581.06,947.474 1575.0,948.958 C 1569.09,950.41 1569.18,941.158 1574.11,939.891" style="stroke:#010101; fill:none;"/>
	<path d="M 1658.0,940.0 L 1649.0,946.0" style="stroke:#010101; fill:none;"/>
	<path d="M 900.0,943.0 L 900.0,944.0" style="stroke:#010101; fill:none;"/>
	<path d="M 896.0,945.0 L 884.0,958.0" style="stroke:#010101; fill:none;"/>
	<path d="M 1636.0,958.0 C 1647.95,953.412 1654.38,948.471 1668.0,951.0" style="stroke:#010101; fill:none;"/>
	<path d="M 1742.0,950.0 L 1742.0,952.0" style="stroke:#010101; fill:none;"/>
	<path d="M 1496.0,955.0 L 1495.0,960.0 L 1496.0,957.0" style="stroke:#010101; fill:none;"/>
	<path d="M 1500.0,956.0 C 1505.59,966.304 1508.71,972.885 1518.0,981.0 C 1511.16,985.246 1502.71,987.127 1495.0,989.29 C 1492.88,989.885 1488.79,991.579 1487.07,989.357 C 1482.73,983.772 1492.89,964.887 1496.0,960.0" style="stroke:#010101; fill:none;"/>
	<path d="M 1646.0,956.0 L 1649.0,956.0" style="stroke:#010101; fill:none;"/>
	<path d="M 1626.0,961.0 L 1640.0,962.0" style="stroke:#010101; fill:none;"/>
	<path d="M 1610.0,966.0 L 1601.0,969.0" style="stroke:#010101; fill:none;"/>
	<path d="M 1617.0,969.0 C 1623.66,965.338 1629.27,965.472 1636.0,969.0" style="stroke:#010101; fill:none;"/>
	<path d="M 1620.0,968.0 L 1627.0,974.0" style="stroke:#010101; fill:none;"/>
	<path d="M 1518.0,981.0 L 1552.0,975.282 L 1583.0,971.0" style="stroke:#010101; fill:none;"/>
	<path d="M 1614.0,972.0 L 1617.0,973.0" style="stroke:#010101; fill:none;"/>
	<path d="M 1600.0,973.0 L 1599.0,977.0" style="stroke:#010101; fill:none;"/>
	<path d="M 1608.0,973.0 L 1614.0,977.0" style="stroke:#010101; fill:none;"/>
	<path d="M 1591.0,975.0 L 1586.0,980.0" style="stroke:#010101; fill:none;"/>
	<path d="M 1071.0,1037.0 C 1074.28,1031.24 1077.13,1024.7 1076.0,1018.0 C 1081.05,1015.67 1081.82,1010.04 1086.14,1007.9 C 1093.12,1004.45 1101.34,1011.89 1103.0,999.0 C 1098.61,998.666 1087.35,989.391 1094.33,985.589 C 1099.58,982.732 1108.15,982.679 1114.0,981.626 C 1132.1,978.37 1149.68,976.554 1168.0,978.0" style="stroke:#010101; fill:none;"/>
	<path d="M 1580.0,980.0 L 1583.0,977.0" style="stroke:#010101; fill:none;"/>
	<path d="M 1171.0,979.0 C 1182.76,978.921 1191.51,989.467 1176.86,994.647 C 1173.99,995.66 1170.93,993.443 1168.0,993.5 C 1163.66,993.585 1159.22,997.547 1155.0,996.339 C 1151.7,995.394 1148.83,990.275 1145.1,991.346 C 1141.16,992.476 1142.15,997.218 1143.0,1000.0 L 1152.0,996.0" style="stroke:#010101; fill:none;"/>
	<path d="M 1573.0,980.0 L 1576.0,978.0" style="stroke:#010101; fill:none;"/>
	<path d="M 1189.0,979.0 C 1189.33,986.655 1198.38,987.539 1204.0,990.532 C 1212.0,994.802 1221.15,1002.87 1228.0,1009.0 C 1223.85,1016.91 1234.7,1029.95 1227.68,1036.61 C 1224.41,1039.71 1216.34,1040.2 1212.0,1041.02 C 1200.53,1043.2 1189.48,1046.94 1178.0,1049.2 C 1138.7,1056.9 1099.19,1062.78 1059.0,1060.01 C 1049.15,1059.33 1039.76,1055.31 1030.0,1054.0" style="stroke:#010101; fill:none;"/>
	<path d="M 1565.0,980.0 L 1562.0,982.0" style="stroke:#010101; fill:none;"/>
	<path d="M 1590.0,983.0 L 1589.0,987.0" style="stroke:#010101; fill:none;"/>
	<path d="M 1061.0,991.0 L 1063.0,995.0 L 1092.0,986.0" style="stroke:#010101; fill:none;"/>
	<path d="M 1146.0,990.0 L 1161.0,990.0 L 1161.0,993.0" style="stroke:#010101; fill:none;"/>
	<path d="M 1162.0,988.0 L 1180.0,990.0" style="stroke:#010101; fill:none;"/>
	<path d="M 1198.0,988.0 C 1193.14,993.542 1186.39,998.011 1179.0,995.0" style="stroke:#010101; fill:none;"/>
	<path d="M 1185.0,989.0 L 1191.0,993.0" style="stroke:#010101; fill:none;"/>
	<path d="M 1153.0,990.0 L 1153.0,994.0" style="stroke:#010101; fill:none;"/>
	<path d="M 1169.0,990.0 L 1169.0,992.0" style="stroke:#010101; fill:none;"/>
	<path d="M 1195.0,992.0 C 1200.05,995.558 1202.64,997.978 1209.0,998.0" style="stroke:#010101; fill:none;"/>
	<path d="M 1062.0,994.0 C 1051.52,1001.22 1039.49,1005.93 1029.0,1013.43 C 1009.75,1027.19 993.935,1043.7 978.0,1061.0" style="stroke:#010101; fill:none;"/>
	<path d="M 1103.0,999.0 C 1108.57,992.704 1110.15,997.269 1117.0,997.237 C 1124.92,997.2 1132.85,994.022 1141.0,994.0" style="stroke:#010101; fill:none;"/>
	<path d="M 1219.0,994.0 L 1217.0,997.0" style="stroke:#010101; fill:none;"/>
	<path d="M 1063.0,995.0 C 1065.89,1005.61 1075.67,1006.02 1085.0,1006.0" style="stroke:#010101; fill:none;"/>
	<path d="M 1190.0,996.0 C 1193.81,998.819 1196.56,1000.01 1201.0,998.0" style="stroke:#010101; fill:none;"/>
	<path d="M 1218.0,997.0 L 1222.0,1003.0" style="stroke:#010101; fill:none;"/>
	<path d="M 1097.0,998.0 L 1088.0,1006.0" style="stroke:#010101; fill:none;"/>
	<path d="M 1113.0,998.0 L 1104.0,1001.0" style="stroke:#010101; fill:none;"/>
	<path d="M 1118.0,998.0 C 1116.45,1006.55 1108.15,1013.21 1100.0,1008.0" style="stroke:#010101; fill:none;"/>
	<path d="M 1220.0,1000.0 L 1218.0,1002.0" style="stroke:#010101; fill:none;"/>
	<path d="M 1142.0,1001.0 C 1139.55,1006.01 1135.4,1008.16 1130.0,1009.0" style="stroke:#010101; fill:none;"/>
	<path d="M 1132.0,1004.0 L 1138.0,1006.0" style="stroke:#010101; fill:none;"/>
	<path d="M 1142.0,1004.0 C 1157.28,1020.48 1143.01,1038.94 1139.0,1056.0" style="stroke:#010101; fill:none;"/>
	<path d="M 1069.0,1006.0 C 1067.73,1010.54 1069.92,1012.71 1073.0,1016.0 L 1076.0,1007.0" style="stroke:#010101; fill:none;"/>
	<path d="M 1072.0,1016.0 C 1065.4,1018.32 1060.78,1014.2 1067.0,1009.0" style="stroke:#010101; fill:none;"/>
	<path d="M 1229.0,1009.0 C 1237.41,1016.34 1248.52,1023.42 1253.0,1034.0 L 1230.0,1037.0" style="stroke:#010101; fill:none;"/>
	<path d="M 1074.0,1016.0 L 1076.0,1018.0" style="stroke:#010101; fill:none;"/>
	<path d="M 1055.0,1023.0 C 1057.23,1026.81 1056.93,1029.07 1055.0,1033.0 C 1048.7,1025.94 1054.93,1020.67 1062.0,1017.0" style="stroke:#010101; fill:none;"/>
	<path d="M 1069.0,1018.0 L 1063.0,1031.0" style="stroke:#010101; fill:none;"/>
	<path d="M 1241.0,1019.0 L 1237.0,1028.0" style="stroke:#010101; fill:none;"/>
	<path d="M 1019.0,1051.0 L 1017.0,1056.0 L 1010.0,1048.0 L 1019.95,1049.26 L 1029.0,1038.0 C 1023.67,1030.65 1028.66,1025.11 1036.0,1031.0 C 1041.18,1025.08 1045.35,1018.46 1054.0,1023.0" style="stroke:#010101; fill:none;"/>
	<path d="M 1119.96,1024.15 C 1126.41,1024.15 1123.06,1034.36 1117.98,1034.36 C 1110.99,1034.36 1114.21,1024.15 1119.96,1024.15" style="stroke:#010101; fill:none;"/>
	<path d="M 1136.11,1025.05 C 1142.77,1021.6 1146.54,1032.53 1140.8,1036.05 C 1133.33,1040.63 1128.96,1028.74 1136.11,1025.05" style="stroke:#010101; fill:none;"/>
	<path d="M 1525.0,1028.0 L 1548.0,1029.0" style="stroke:#010101; fill:none;"/>
	<path d="M 1016.0,1030.0 L 1024.0,1029.0" style="stroke:#010101; fill:none;"/>
	<path d="M 1050.0,1029.0 C 1045.58,1032.73 1042.82,1033.45 1038.0,1030.0" style="stroke:#010101; fill:none;"/>
	<path d="M 1556.0,1029.0 C 1579.2,1035.58 1600.58,1042.91 1625.0,1040.0" style="stroke:#010101; fill:none;"/>
	<path d="M 1036.0,1031.0 L 1029.0,1038.0" style="stroke:#010101; fill:none;"/>
	<path d="M 1049.0,1031.0 L 1055.0,1033.0 L 1055.0,1033.0" style="stroke:#010101; fill:none;"/>
	<path d="M 1145.0,1032.0 L 1147.0,1032.0" style="stroke:#010101; fill:none;"/>
	<path d="M 1047.0,1033.0 L 1052.0,1036.0" style="stroke:#010101; fill:none;"/>
	<path d="M 1144.0,1033.0 L 1147.0,1036.0" style="stroke:#010101; fill:none;"/>
	<path d="M 1052.0,1036.0 C 1052.31,1046.36 1060.17,1052.37 1068.0,1058.0" style="stroke:#010101; fill:none;"/>
	<path d="M 1143.0,1036.0 L 1146.0,1039.0" style="stroke:#010101; fill:none;"/>
	<path d="M 1014.0,1045.0 C 1016.92,1038.81 1021.33,1036.94 1027.0,1041.0" style="stroke:#010101; fill:none;"/>
	<path d="M 1018.0,1040.0 L 1024.0,1046.0" style="stroke:#010101; fill:none;"/>
	<path d="M 985.0,1059.0 L 1010.0,1048.0" style="stroke:#010101; fill:none;"/>
	<path d="M 1011.0,1051.0 C 1007.87,1055.22 1009.95,1059.96 1006.7,1063.91 C 997.362,1075.27 978.23,1081.93 966.0,1090.0" style="stroke:#010101; fill:none;"/>
	<path d="M 1010.0,1053.0 L 1017.0,1056.0" style="stroke:#010101; fill:none;"/>
	<path d="M 978.0,1072.0 C 986.688,1066.25 996.584,1057.07 1007.0,1055.0" style="stroke:#010101; fill:none;"/>
	<path d="M 1766.0,1055.0 L 1767.0,1060.0 L 1770.0,1057.0" style="stroke:#010101; fill:none;"/>
	<path d="M 993.0,1058.0 L 991.0,1062.0" style="stroke:#010101; fill:none;"/>
	<path d="M 992.0,1059.0 L 994.0,1061.0" style="stroke:#010101; fill:none;"/>
	<path d="M 1010.0,1059.0 L 1014.0,1059.0" style="stroke:#010101; fill:none;"/>
	<path d="M 974.0,1080.0 C 984.131,1073.11 996.436,1061.36 1009.0,1060.0" style="stroke:#010101; fill:none;"/>
	<path d="M 1028.0,1060.0 L 1010.0,1072.0" style="stroke:#010101; fill:none;"/>
	<path d="M 1133.0,1060.0 L 1132.0,1061.0" style="stroke:#010101; fill:none;"/>
	<path d="M 1767.0,1060.0 C 1768.83,1082.44 1778.69,1105.83 1783.33,1128.0 C 1792.37,1171.14 1797.89,1216.9 1795.96,1261.0 C 1793.68,1313.14 1778.26,1366.33 1766.65,1417.0 C 1755.41,1466.04 1740.55,1514.06 1728.9,1563.0 C 1720.51,1598.22 1714.36,1633.83 1705.12,1669.0 C 1699.54,1690.21 1691.61,1710.69 1686.37,1732.0 C 1677.15,1769.57 1672.74,1808.44 1662.85,1846.0 C 1654.01,1879.55 1638.37,1914.33 1622.22,1945.0 C 1610.26,1967.71 1591.53,1985.0 1577.29,2006.0 C 1571.06,2015.2 1580.65,2027.9 1573.0,2036.0" style="stroke:#010101; fill:none;"/>
	<path d="M 1004.0,1073.0 L 968.0,1095.0" style="stroke:#010101; fill:none;"/>
	<path d="M 1151.0,1111.0 L 1201.0,1087.23 L 1224.0,1074.0" style="stroke:#010101; fill:none;"/>
	<path d="M 1026.0,1088.0 C 1033.73,1098.94 1046.51,1105.93 1059.0,1110.0" style="stroke:#010101; fill:none;"/>
	<path d="M 1141.0,1114.0 L 1142.0,1114.0" style="stroke:#010101; fill:none;"/>
	<path d="M 400.0,1144.0 L 394.0,1151.0 L 443.0,1180.0" style="stroke:#010101; fill:none;"/>
	<path d="M 291.0,1261.0 L 296.0,1257.0 C 295.679,1218.21 323.35,1186.61 354.0,1164.29 C 363.853,1157.12 381.755,1142.04 394.0,1151.0" style="stroke:#010101; fill:none;"/>
	<path d="M 482.0,1202.0 C 478.335,1195.64 459.009,1182.39 466.0,1176.0" style="stroke:#010101; fill:none;"/>
	<path d="M 1538.0,1184.0 L 1558.7,1215.0 L 1570.55,1237.83 L 1599.0,1260.0" style="stroke:#010101; fill:none;"/>
	<path d="M 389.0,1185.0 L 382.0,1193.0 C 391.9,1200.27 408.268,1202.18 420.0,1205.81 C 424.488,1207.2 430.404,1210.53 435.0,1210.0 L 437.0,1207.0" style="stroke:#010101; fill:none;"/>
	<path d="M 483.0,1192.0 L 484.0,1192.0" style="stroke:#010101; fill:none;"/>
	<path d="M 382.0,1194.0 C 377.287,1199.12 373.368,1204.9 367.996,1209.39 C 353.73,1221.29 332.481,1231.53 329.444,1252.0 C 326.523,1271.69 352.856,1281.25 358.076,1298.0 C 366.246,1324.22 369.182,1351.85 377.749,1378.0 C 382.853,1393.58 391.286,1407.88 399.435,1422.0 C 411.076,1442.17 423.539,1458.79 445.0,1469.0" style="stroke:#010101; fill:none;"/>
	<path d="M 377.0,1201.0 C 379.682,1207.31 373.386,1213.58 370.28,1219.0 C 361.954,1233.52 351.637,1247.6 345.0,1263.0" style="stroke:#010101; fill:none;"/>
	<path d="M 385.0,1202.0 L 358.092,1250.0 L 343.0,1277.0" style="stroke:#010101; fill:none;"/>
	<path d="M 445.0,1202.0 L 409.0,1265.0" style="stroke:#010101; fill:none;"/>
	<path d="M 395.0,1204.0 C 376.515,1228.05 368.281,1260.71 348.0,1283.0" style="stroke:#010101; fill:none;"/>
	<path d="M 623.0,1209.0 L 619.0,1217.0" style="stroke:#010101; fill:none;"/>
	<path d="M 434.0,1211.0 L 410.0,1250.0" style="stroke:#010101; fill:none;"/>
	<path d="M 435.0,1211.0 L 438.0,1214.0" style="stroke:#010101; fill:none;"/>
	<path d="M 618.0,1211.0 L 618.0,1215.0" style="stroke:#010101; fill:none;"/>
	<path d="M 592.0,1215.0 L 567.0,1233.0 C 578.976,1240.56 593.58,1221.21 602.0,1215.0" style="stroke:#010101; fill:none;"/>
	<path d="M 446.0,1216.0 L 405.0,1283.0" style="stroke:#010101; fill:none;"/>
	<path d="M 597.0,1216.0 L 597.0,1217.0" style="stroke:#010101; fill:none;"/>
	<path d="M 361.0,1218.0 L 357.0,1219.0" style="stroke:#010101; fill:none;"/>
	<path d="M 599.0,1218.0 L 597.0,1220.0" style="stroke:#010101; fill:none;"/>
	<path d="M 618.0,1218.0 C 616.502,1226.81 611.014,1234.13 605.55,1241.0 C 584.513,1267.44 549.363,1276.07 525.0,1248.0" style="stroke:#010101; fill:none;"/>
	<path d="M 359.0,1221.0 C 353.317,1234.44 341.084,1251.43 331.0,1262.0" style="stroke:#010101; fill:none;"/>
	<path d="M 560.0,1222.0 L 556.0,1224.0" style="stroke:#010101; fill:none;"/>
	<path d="M 456.0,1223.0 C 444.788,1245.85 429.496,1268.84 414.0,1289.0" style="stroke:#010101; fill:none;"/>
	<path d="M 460.0,1224.0 C 455.099,1239.49 442.331,1258.52 432.0,1271.0" style="stroke:#010101; fill:none;"/>
	<path d="M 446.0,1226.0 L 405.0,1294.0" style="stroke:#010101; fill:none;"/>
	<path d="M 593.0,1226.0 L 592.0,1227.0" style="stroke:#010101; fill:none;"/>
	<path d="M 508.0,1228.0 L 509.0,1230.0" style="stroke:#010101; fill:none;"/>
	<path d="M 512.0,1228.0 C 523.543,1234.56 537.08,1235.0 550.0,1235.0 C 555.711,1235.0 561.335,1235.75 566.0,1232.0" style="stroke:#010101; fill:none;"/>
	<path d="M 616.0,1229.0 C 611.885,1281.14 618.426,1355.68 660.0,1392.0" style="stroke:#010101; fill:none;"/>
	<path d="M 591.0,1230.0 L 588.0,1235.0" style="stroke:#010101; fill:none;"/>
	<path d="M 511.0,1232.0 L 512.0,1233.0" style="stroke:#010101; fill:none;"/>
	<path d="M 565.0,1234.0 L 568.0,1236.0" style="stroke:#010101; fill:none;"/>
	<path d="M 513.0,1235.0 L 523.0,1247.0" style="stroke:#010101; fill:none;"/>
	<path d="M 467.0,1236.0 L 457.0,1254.0" style="stroke:#010101; fill:none;"/>
	<path d="M 378.0,1238.0 L 353.0,1288.0" style="stroke:#010101; fill:none;"/>
	<path d="M 587.0,1238.0 L 586.0,1239.0" style="stroke:#010101; fill:none;"/>
	<path d="M 458.0,1239.0 L 441.0,1268.0" style="stroke:#010101; fill:none;"/>
	<path d="M 472.0,1240.0 L 467.0,1250.0" style="stroke:#010101; fill:none;"/>
	<path d="M 582.0,1246.0 L 579.0,1250.0" style="stroke:#010101; fill:none;"/>
	<path d="M 484.0,1248.0 C 484.16,1255.75 486.082,1259.26 491.0,1265.0 L 481.0,1274.0 L 485.0,1260.0" style="stroke:#010101; fill:none;"/>
	<path d="M 578.0,1252.0 L 577.0,1253.0" style="stroke:#010101; fill:none;"/>
	<path d="M 297.0,1258.0 C 297.739,1274.95 311.83,1292.09 316.105,1309.0 C 324.463,1342.07 335.807,1372.68 349.15,1404.0 C 359.992,1429.45 371.057,1454.23 388.449,1476.0 C 403.481,1494.82 421.95,1507.61 440.0,1523.0 C 437.117,1529.17 442.228,1534.23 446.0,1539.0" style="stroke:#010101; fill:none;"/>
	<path d="M 373.0,1266.0 L 356.0,1293.0" style="stroke:#010101; fill:none;"/>
	<path d="M 491.0,1266.0 C 494.987,1272.4 491.297,1275.96 488.248,1282.0 C 483.659,1291.09 472.297,1305.82 473.0,1316.0 L 493.0,1284.0" style="stroke:#010101; fill:none;"/>
	<path d="M 290.0,1270.0 L 295.0,1292.0" style="stroke:#010101; fill:none;"/>
	<path d="M 298.0,1270.0 L 303.0,1302.0" style="stroke:#010101; fill:none;"/>
	<path d="M 494.0,1273.0 C 497.197,1277.18 502.7,1286.3 501.216,1291.87 C 499.623,1297.86 490.64,1306.27 487.2,1312.0 C 477.01,1328.98 467.914,1346.57 458.541,1364.0 C 452.823,1374.63 443.378,1385.35 450.0,1397.0 L 465.521,1369.0 L 498.0,1308.0" style="stroke:#010101; fill:none;"/>
	<path d="M 481.0,1274.0 L 471.823,1296.0 L 455.0,1328.0" style="stroke:#010101; fill:none;"/>
	<path d="M 1607.0,1274.0 C 1616.84,1292.77 1618.54,1305.38 1605.0,1323.0" style="stroke:#010101; fill:none;"/>
	<path d="M 1326.0,1279.0 L 1325.0,1280.0" style="stroke:#010101; fill:none;"/>
	<path d="M 1322.0,1281.0 L 1323.0,1281.0" style="stroke:#010101; fill:none;"/>
	<path d="M 1320.0,1283.0 L 1318.0,1284.0" style="stroke:#010101; fill:none;"/>
	<path d="M 1315.0,1286.0 L 1314.0,1287.0" style="stroke:#010101; fill:none;"/>
	<path d="M 1312.0,1288.0 L 1308.0,1292.0" style="stroke:#010101; fill:none;"/>
	<path d="M 471.0,1289.0 C 452.617,1307.54 437.372,1342.29 444.0,1369.0 L 445.0,1365.0" style="stroke:#010101; fill:none;"/>
	<path d="M 503.0,1295.0 L 501.674,1321.0 L 480.0,1370.0" style="stroke:#010101; fill:none;"/>
	<path d="M 549.0,1300.0 C 538.347,1316.17 546.485,1329.26 542.987,1346.0 C 540.865,1356.15 531.157,1366.35 527.0,1376.0" style="stroke:#010101; fill:none;"/>
	<path d="M 1313.0,1302.0 C 1296.77,1332.84 1308.64,1379.46 1340.0,1397.36 C 1352.54,1404.52 1367.99,1405.0 1382.0,1405.0" style="stroke:#010101; fill:none;"/>
	<path d="M 548.0,1303.0 L 550.0,1305.0" style="stroke:#010101; fill:none;"/>
	<path d="M 471.0,1316.0 L 474.0,1316.0" style="stroke:#010101; fill:none;"/>
	<path d="M 524.0,1346.0 C 527.52,1337.28 532.356,1320.49 541.0,1316.0" style="stroke:#010101; fill:none;"/>
	<path d="M 470.0,1318.0 L 472.0,1319.0" style="stroke:#010101; fill:none;"/>
	<path d="M 1493.0,1386.0 C 1518.24,1380.96 1540.58,1365.93 1556.54,1346.0 C 1562.04,1339.13 1563.5,1323.11 1571.05,1319.03 C 1577.93,1315.31 1588.69,1319.49 1596.0,1319.0" style="stroke:#010101; fill:none;"/>
	<path d="M 470.0,1319.0 L 468.0,1325.0 L 471.0,1320.0" style="stroke:#010101; fill:none;"/>
	<path d="M 1582.0,1319.0 C 1582.45,1329.24 1574.55,1334.75 1566.0,1339.0" style="stroke:#010101; fill:none;"/>
	<path d="M 466.0,1325.0 L 469.0,1325.0" style="stroke:#010101; fill:none;"/>
	<path d="M 465.0,1327.0 L 467.0,1328.0" style="stroke:#010101; fill:none;"/>
	<path d="M 464.0,1329.0 L 466.0,1330.0" style="stroke:#010101; fill:none;"/>
	<path d="M 493.0,1329.0 C 490.319,1332.98 487.362,1336.19 489.0,1341.0 L 492.0,1338.0" style="stroke:#010101; fill:none;"/>
	<path d="M 463.0,1331.0 L 465.0,1332.0" style="stroke:#010101; fill:none;"/>
	<path d="M 463.0,1332.0 L 460.0,1337.0 L 464.0,1334.0" style="stroke:#010101; fill:none;"/>
	<path d="M 501.0,1335.0 L 487.0,1367.0" style="stroke:#010101; fill:none;"/>
	<path d="M 521.0,1371.0 C 523.478,1362.4 532.143,1338.77 541.0,1336.0" style="stroke:#010101; fill:none;"/>
	<path d="M 459.0,1338.0 L 461.0,1339.0" style="stroke:#010101; fill:none;"/>
	<path d="M 459.0,1339.0 L 458.0,1344.0 L 460.0,1340.0" style="stroke:#010101; fill:none;"/>
	<path d="M 486.0,1340.0 L 488.0,1341.0" style="stroke:#010101; fill:none;"/>
	<path d="M 486.0,1341.0 L 464.923,1381.0 L 461.0,1397.0" style="stroke:#010101; fill:none;"/>
	<path d="M 506.0,1341.0 L 495.0,1356.0" style="stroke:#010101; fill:none;"/>
	<path d="M 457.0,1343.0 L 456.0,1347.0 L 457.0,1345.0" style="stroke:#010101; fill:none;"/>
	<path d="M 1408.0,1375.0 C 1400.77,1376.72 1394.22,1376.23 1388.0,1372.0 C 1407.78,1344.16 1456.44,1332.43 1481.0,1360.0" style="stroke:#010101; fill:none;"/>
	<path d="M 455.0,1346.0 L 450.0,1353.0" style="stroke:#010101; fill:none;"/>
	<path d="M 456.0,1347.0 L 446.0,1366.0" style="stroke:#010101; fill:none;"/>
	<path d="M 543.0,1348.0 C 549.513,1359.36 529.786,1380.89 525.0,1392.0" style="stroke:#010101; fill:none;"/>
	<path d="M 1534.0,1368.0 C 1544.11,1371.06 1562.76,1360.39 1572.0,1356.0" style="stroke:#010101; fill:none;"/>
	<path d="M 545.0,1357.0 C 552.47,1368.23 557.646,1375.88 569.0,1384.0 C 563.665,1393.34 555.952,1404.1 555.0,1415.0" style="stroke:#010101; fill:none;"/>
	<path d="M 1416.0,1375.0 C 1432.24,1365.96 1443.35,1361.08 1462.0,1363.0" style="stroke:#010101; fill:none;"/>
	<path d="M 548.0,1365.0 C 538.553,1377.39 531.744,1391.9 523.308,1405.0 C 521.265,1408.17 514.775,1414.62 515.831,1418.68 C 516.534,1421.38 520.086,1420.36 522.001,1420.14 C 528.154,1419.44 536.014,1419.22 542.0,1420.94 C 551.015,1423.52 558.299,1430.72 567.0,1434.17 C 583.692,1440.81 603.438,1435.21 618.0,1426.0" style="stroke:#010101; fill:none;"/>
	<path d="M 444.0,1369.0 L 446.0,1385.0" style="stroke:#010101; fill:none;"/>
	<path d="M 552.0,1379.0 L 536.0,1410.0" style="stroke:#010101; fill:none;"/>
	<path d="M 330.0,1380.0 L 346.0,1418.0" style="stroke:#010101; fill:none;"/>
	<path d="M 651.0,1380.0 L 652.0,1381.0" style="stroke:#010101; fill:none;"/>
	<path d="M 560.0,1381.0 L 544.0,1413.0" style="stroke:#010101; fill:none;"/>
	<path d="M 583.0,1381.0 L 563.0,1419.0" style="stroke:#010101; fill:none;"/>
	<path d="M 542.0,1382.0 C 535.867,1392.73 525.182,1406.91 523.0,1419.0" style="stroke:#010101; fill:none;"/>
	<path d="M 570.0,1384.0 L 580.0,1387.0" style="stroke:#010101; fill:none;"/>
	<path d="M 475.0,1387.0 L 465.0,1404.0" style="stroke:#010101; fill:none;"/>
	<path d="M 581.0,1388.0 L 587.0,1391.0 L 575.0,1418.0" style="stroke:#010101; fill:none;"/>
	<path d="M 663.0,1390.0 L 664.0,1391.0" style="stroke:#010101; fill:none;"/>
	<path d="M 588.0,1391.0 C 592.01,1394.33 599.999,1402.29 599.762,1408.0 C 599.552,1413.08 592.804,1419.84 590.0,1424.0" style="stroke:#010101; fill:none;"/>
	<path d="M 662.0,1393.0 C 682.054,1406.36 693.201,1425.48 695.826,1450.0 C 696.701,1458.17 695.846,1466.95 694.386,1475.0 C 693.739,1478.57 691.344,1483.42 691.979,1487.0 C 692.63,1490.67 696.541,1493.46 698.961,1496.0 C 705.001,1502.33 709.731,1511.14 717.0,1516.0 L 718.0,1513.0" style="stroke:#010101; fill:none;"/>
	<path d="M 669.0,1395.0 L 670.0,1396.0" style="stroke:#010101; fill:none;"/>
	<path d="M 331.0,1396.0 C 334.96,1409.66 342.47,1424.63 351.0,1436.0" style="stroke:#010101; fill:none;"/>
	<path d="M 450.0,1397.0 C 455.829,1412.05 470.08,1413.02 483.0,1407.0" style="stroke:#010101; fill:none;"/>
	<path d="M 595.0,1400.0 L 581.0,1427.0" style="stroke:#010101; fill:none;"/>
	<path d="M 602.0,1411.0 L 608.0,1429.0" style="stroke:#010101; fill:none;"/>
	<path d="M 506.0,1421.0 L 514.0,1421.0" style="stroke:#010101; fill:none;"/>
	<path d="M 511.0,1423.0 L 510.0,1425.0" style="stroke:#010101; fill:none;"/>
	<path d="M 605.0,1457.0 L 638.0,1449.0" style="stroke:#010101; fill:none;"/>
	<path d="M 563.0,1455.0 C 573.12,1459.96 580.638,1462.25 592.0,1462.0" style="stroke:#010101; fill:none;"/>
	<path d="M 1350.0,1543.0 C 1366.63,1529.82 1387.47,1520.32 1406.0,1509.99 C 1415.79,1504.53 1426.05,1496.58 1437.0,1493.71 C 1459.87,1487.72 1484.91,1489.67 1508.0,1484.74 C 1526.11,1480.88 1544.07,1473.99 1562.0,1469.17 C 1567.5,1467.69 1572.1,1464.08 1578.0,1464.08 C 1604.8,1464.07 1621.15,1491.61 1623.0,1515.0" style="stroke:#010101; fill:none;"/>
	<path d="M 675.0,1467.0 L 691.0,1487.0" style="stroke:#010101; fill:none;"/>
	<path d="M 1640.0,1474.0 L 1640.0,1475.0" style="stroke:#010101; fill:none;"/>
	<path d="M 391.0,1480.0 L 386.0,1481.0" style="stroke:#010101; fill:none;"/>
	<path d="M 1641.0,1481.0 L 1641.0,1483.0" style="stroke:#010101; fill:none;"/>
	<path d="M 394.0,1483.0 L 388.0,1484.0" style="stroke:#010101; fill:none;"/>
	<path d="M 1641.0,1486.0 L 1641.0,1487.0" style="stroke:#010101; fill:none;"/>
	<path d="M 692.0,1489.0 L 690.0,1492.0" style="stroke:#010101; fill:none;"/>
	<path d="M 1642.0,1489.0 L 1644.0,1522.0" style="stroke:#010101; fill:none;"/>
	<path d="M 679.0,1506.0 L 685.0,1493.0" style="stroke:#010101; fill:none;"/>
	<path d="M 724.0,1506.0 L 724.0,1507.0" style="stroke:#010101; fill:none;"/>
	<path d="M 673.0,1507.0 C 667.226,1516.89 662.194,1525.16 654.754,1534.0 C 647.619,1542.47 639.814,1551.35 630.0,1556.8 C 601.238,1572.77 565.729,1556.36 536.0,1555.0 L 540.0,1562.0" style="stroke:#010101; fill:none;"/>
	<path d="M 696.0,1507.0 L 695.0,1508.0" style="stroke:#010101; fill:none;"/>
	<path d="M 1614.0,1507.0 C 1610.52,1526.49 1589.06,1525.18 1583.0,1542.0 C 1589.67,1541.69 1594.88,1532.71 1599.0,1528.0" style="stroke:#010101; fill:none;"/>
	<path d="M 724.0,1509.0 L 724.0,1511.0" style="stroke:#010101; fill:none;"/>
	<path d="M 704.0,1510.0 L 702.0,1516.0" style="stroke:#010101; fill:none;"/>
	<path d="M 1491.0,1538.0 L 1488.0,1543.0 L 1483.0,1533.0 C 1495.48,1529.06 1508.78,1528.61 1521.0,1523.28 C 1528.91,1519.82 1538.16,1511.26 1547.0,1511.1 C 1562.15,1510.82 1579.49,1521.11 1594.0,1525.0" style="stroke:#010101; fill:none;"/>
	<path d="M 409.0,1513.0 L 411.0,1515.0" style="stroke:#010101; fill:none;"/>
	<path d="M 712.0,1513.0 L 706.0,1521.0" style="stroke:#010101; fill:none;"/>
	<path d="M 1554.0,1513.0 L 1553.0,1517.0" style="stroke:#010101; fill:none;"/>
	<path d="M 1616.0,1513.0 L 1614.0,1520.0" style="stroke:#010101; fill:none;"/>
	<path d="M 1539.0,1515.0 L 1544.0,1534.0" style="stroke:#010101; fill:none;"/>
	<path d="M 716.0,1516.0 L 725.0,1524.0 C 723.271,1532.21 733.345,1542.84 737.273,1550.0 C 749.107,1571.56 756.502,1596.52 770.0,1617.0 L 767.0,1601.0" style="stroke:#010101; fill:none;"/>
	<path d="M 725.0,1517.0 L 725.0,1518.0" style="stroke:#010101; fill:none;"/>
	<path d="M 1570.0,1518.0 L 1570.0,1534.0" style="stroke:#010101; fill:none;"/>
	<path d="M 715.0,1519.0 L 711.0,1527.0" style="stroke:#010101; fill:none;"/>
	<path d="M 1550.0,1520.0 L 1546.0,1526.0" style="stroke:#010101; fill:none;"/>
	<path d="M 1612.0,1521.0 L 1608.0,1525.0 L 1611.0,1524.0" style="stroke:#010101; fill:none;"/>
	<path d="M 1625.0,1522.0 L 1625.0,1524.0" style="stroke:#010101; fill:none;"/>
	<path d="M 440.0,1523.0 C 452.129,1526.5 462.959,1535.23 475.0,1539.68 C 478.966,1541.15 485.172,1541.93 484.0,1547.0 L 483.0,1543.0" style="stroke:#010101; fill:none;"/>
	<path d="M 1586.0,1523.0 L 1584.0,1536.0" style="stroke:#010101; fill:none;"/>
	<path d="M 722.0,1525.0 L 724.0,1527.0" style="stroke:#010101; fill:none;"/>
	<path d="M 1608.0,1527.0 C 1604.84,1534.6 1609.24,1540.57 1611.0,1548.0" style="stroke:#010101; fill:none;"/>
	<path d="M 1603.0,1529.0 L 1606.0,1531.0" style="stroke:#010101; fill:none;"/>
	<path d="M 723.0,1531.0 L 721.0,1537.0" style="stroke:#010101; fill:none;"/>
	<path d="M 1636.0,1531.0 C 1627.07,1546.14 1618.68,1564.48 1604.0,1575.0" style="stroke:#010101; fill:none;"/>
	<path d="M 1493.0,1532.0 L 1493.0,1535.0" style="stroke:#010101; fill:none;"/>
	<path d="M 1258.0,1617.0 C 1265.05,1610.56 1273.64,1606.2 1280.94,1600.1 C 1283.53,1597.94 1284.48,1594.34 1287.23,1592.53 C 1301.14,1583.41 1321.59,1579.37 1337.0,1572.72 C 1383.12,1552.82 1431.93,1533.0 1483.0,1533.0" style="stroke:#010101; fill:none;"/>
	<path d="M 1599.0,1533.0 L 1588.0,1545.0" style="stroke:#010101; fill:none;"/>
	<path d="M 1625.0,1534.0 L 1625.0,1535.0" style="stroke:#010101; fill:none;"/>
	<path d="M 1545.0,1536.0 L 1545.0,1537.0" style="stroke:#010101; fill:none;"/>
	<path d="M 1602.0,1536.0 L 1575.0,1566.0" style="stroke:#010101; fill:none;"/>
	<path d="M 731.0,1541.0 L 727.0,1548.0" style="stroke:#010101; fill:none;"/>
	<path d="M 461.0,1542.0 L 469.0,1552.0" style="stroke:#010101; fill:none;"/>
	<path d="M 1488.0,1543.0 L 1489.0,1557.0" style="stroke:#010101; fill:none;"/>
	<path d="M 1582.0,1543.0 C 1580.05,1548.03 1577.92,1554.77 1572.9,1557.54 C 1566.85,1560.88 1558.58,1558.62 1552.04,1561.26 C 1547.8,1562.98 1547.21,1567.32 1543.86,1570.01 C 1538.36,1574.42 1529.74,1576.84 1523.0,1578.58 C 1512.9,1581.18 1502.49,1575.65 1493.09,1577.35 C 1489.76,1577.95 1487.11,1580.95 1484.0,1582.24 C 1476.24,1585.45 1465.39,1587.59 1457.0,1586.83 C 1450.48,1586.24 1443.6,1585.06 1438.01,1581.44 C 1435.14,1579.58 1431.47,1573.39 1427.96,1573.35 C 1424.09,1573.29 1422.64,1580.07 1419.87,1582.12 C 1415.5,1585.35 1408.26,1586.61 1403.0,1587.54 C 1385.48,1590.63 1369.0,1580.95 1375.0,1561.0" style="stroke:#010101; fill:none;"/>
	<path d="M 486.0,1544.0 C 500.987,1547.09 523.448,1545.87 536.0,1555.0" style="stroke:#010101; fill:none;"/>
	<path d="M 1601.0,1545.0 L 1571.0,1580.0" style="stroke:#010101; fill:none;"/>
	<path d="M 463.0,1548.0 L 463.0,1549.0" style="stroke:#010101; fill:none;"/>
	<path d="M 484.0,1548.0 L 490.0,1555.0" style="stroke:#010101; fill:none;"/>
	<path d="M 1287.0,1583.0 L 1338.0,1548.0" style="stroke:#010101; fill:none;"/>
	<path d="M 1423.0,1548.0 L 1425.0,1561.0" style="stroke:#010101; fill:none;"/>
	<path d="M 1586.0,1548.0 L 1582.0,1554.0" style="stroke:#010101; fill:none;"/>
	<path d="M 510.0,1549.0 L 515.0,1559.0" style="stroke:#010101; fill:none;"/>
	<path d="M 1605.0,1550.0 C 1607.9,1553.19 1602.45,1560.73 1600.74,1564.0 C 1593.91,1577.01 1581.26,1586.72 1571.0,1597.0" style="stroke:#010101; fill:none;"/>
	<path d="M 497.0,1552.0 L 499.0,1555.0" style="stroke:#010101; fill:none;"/>
	<path d="M 1603.0,1552.0 L 1577.0,1582.0" style="stroke:#010101; fill:none;"/>
	<path d="M 1580.0,1556.0 L 1579.0,1557.0" style="stroke:#010101; fill:none;"/>
	<path d="M 1262.0,1564.0 L 1257.0,1573.0" style="stroke:#010101; fill:none;"/>
	<path d="M 1316.0,1583.0 C 1327.67,1596.74 1351.22,1594.72 1363.81,1583.47 C 1368.4,1579.38 1368.46,1573.0 1373.0,1569.0" style="stroke:#010101; fill:none;"/>
	<path d="M 1547.0,1569.0 L 1561.01,1583.0 L 1570.0,1617.0 C 1574.21,1611.21 1580.87,1602.4 1580.0,1595.0 L 1576.0,1597.0" style="stroke:#010101; fill:none;"/>
	<path d="M 589.0,1574.0 C 607.223,1579.82 620.454,1602.99 632.079,1617.0 C 651.866,1640.84 670.24,1665.28 687.461,1691.0 C 695.516,1703.03 706.645,1717.22 711.319,1731.0 C 714.224,1739.56 713.994,1754.67 714.0,1764.0" style="stroke:#010101; fill:none;"/>
	<path d="M 1256.0,1575.0 L 1246.0,1592.0" style="stroke:#010101; fill:none;"/>
	<path d="M 1607.0,1578.0 C 1598.29,1605.48 1607.97,1635.87 1605.91,1664.0 C 1605.09,1675.16 1599.98,1685.73 1596.0,1696.0" style="stroke:#010101; fill:none;"/>
	<path d="M 595.0,1582.0 L 598.0,1586.0" style="stroke:#010101; fill:none;"/>
	<path d="M 1588.0,1582.0 L 1582.0,1595.0" style="stroke:#010101; fill:none;"/>
	<path d="M 1283.0,1585.0 L 1277.0,1588.0" style="stroke:#010101; fill:none;"/>
	<path d="M 1274.0,1590.0 L 1275.0,1590.0" style="stroke:#010101; fill:none;"/>
	<path d="M 1270.0,1592.0 L 1272.0,1591.0" style="stroke:#010101; fill:none;"/>
	<path d="M 1580.0,1593.0 L 1582.0,1593.0" style="stroke:#010101; fill:none;"/>
	<path d="M 1246.0,1594.0 L 1244.0,1600.0" style="stroke:#010101; fill:none;"/>
	<path d="M 1254.0,1615.0 C 1262.48,1606.7 1271.75,1595.08 1284.0,1594.0" style="stroke:#010101; fill:none;"/>
	<path d="M 1294.0,1594.0 L 1293.0,1595.0" style="stroke:#010101; fill:none;"/>
	<path d="M 602.0,1595.0 L 603.0,1597.0" style="stroke:#010101; fill:none;"/>
	<path d="M 1302.0,1595.0 L 1301.0,1596.0" style="stroke:#010101; fill:none;"/>
	<path d="M 1291.0,1597.0 L 1290.0,1598.0" style="stroke:#010101; fill:none;"/>
	<path d="M 1299.0,1597.0 L 1266.0,1624.0" style="stroke:#010101; fill:none;"/>
	<path d="M 1265.0,1600.0 L 1261.0,1600.0 L 1270.0,1598.0" style="stroke:#010101; fill:none;"/>
	<path d="M 1288.0,1599.0 L 1284.0,1603.0" style="stroke:#010101; fill:none;"/>
	<path d="M 1257.0,1601.0 C 1255.3,1604.33 1248.84,1605.48 1251.18,1601.59 C 1252.64,1599.15 1258.58,1600.12 1261.0,1600.0" style="stroke:#010101; fill:none;"/>
	<path d="M 1243.0,1603.0 L 1243.0,1605.0" style="stroke:#010101; fill:none;"/>
	<path d="M 1263.0,1603.0 L 1253.0,1611.0" style="stroke:#010101; fill:none;"/>
	<path d="M 1300.0,1603.0 L 1269.0,1630.0 C 1318.42,1663.31 1371.53,1664.59 1429.0,1665.0 C 1462.04,1665.24 1494.9,1669.95 1526.0,1655.85 C 1538.57,1650.16 1548.53,1641.69 1559.0,1633.0" style="stroke:#010101; fill:none;"/>
	<path d="M 1249.0,1605.0 C 1248.15,1610.91 1250.59,1624.05 1260.0,1621.25 C 1265.07,1619.75 1269.49,1613.82 1274.0,1611.0" style="stroke:#010101; fill:none;"/>
	<path d="M 1276.0,1609.0 L 1280.0,1606.0" style="stroke:#010101; fill:none;"/>
	<path d="M 1242.0,1607.0 L 1242.0,1609.0" style="stroke:#010101; fill:none;"/>
	<path d="M 1242.0,1611.0 L 1241.0,1613.0" style="stroke:#010101; fill:none;"/>
	<path d="M 1297.0,1617.0 L 1296.0,1618.0" style="stroke:#010101; fill:none;"/>
	<path d="M 772.0,1618.0 C 783.644,1631.67 788.728,1654.9 797.0,1671.0" style="stroke:#010101; fill:none;"/>
	<path d="M 1570.0,1618.0 L 1562.0,1631.0" style="stroke:#010101; fill:none;"/>
	<path d="M 1294.0,1619.0 L 1293.0,1620.0" style="stroke:#010101; fill:none;"/>
	<path d="M 588.0,1621.0 L 589.0,1622.0" style="stroke:#010101; fill:none;"/>
	<path d="M 596.0,1622.0 L 597.0,1624.0" style="stroke:#010101; fill:none;"/>
	<path d="M 1280.0,1630.0 L 1291.0,1622.0" style="stroke:#010101; fill:none;"/>
	<path d="M 1259.0,1623.0 L 1268.0,1630.0" style="stroke:#010101; fill:none;"/>
	<path d="M 1291.0,1634.0 L 1299.0,1628.0" style="stroke:#010101; fill:none;"/>
	<path d="M 1299.0,1632.0 L 1299.0,1633.0" style="stroke:#010101; fill:none;"/>
	<path d="M 1297.0,1635.0 L 1296.0,1637.0" style="stroke:#010101; fill:none;"/>
	<path d="M 1299.0,1666.0 C 1309.9,1677.83 1320.7,1688.56 1334.0,1697.79 C 1377.87,1728.26 1433.71,1747.27 1487.0,1749.08 C 1510.48,1749.88 1534.24,1748.72 1556.0,1738.82 C 1569.68,1732.59 1583.45,1720.52 1594.0,1710.0" style="stroke:#010101; fill:none;"/>
	<path d="M 672.0,1682.0 L 669.0,1699.0" style="stroke:#010101; fill:none;"/>
	<path d="M 811.0,1704.0 C 836.812,1746.56 860.028,1789.71 895.424,1825.71 C 938.26,1869.29 991.024,1902.63 1043.0,1934.2 C 1139.0,1992.52 1242.73,2051.96 1355.0,2069.3 C 1402.24,2076.59 1444.21,2073.83 1490.0,2060.42 C 1503.71,2056.41 1518.34,2052.82 1531.0,2046.04 C 1547.3,2037.32 1559.16,2021.94 1573.0,2010.0" style="stroke:#010101; fill:none;"/>
	<path d="M 714.0,1736.0 C 733.229,1762.55 745.562,1796.01 758.291,1826.0 C 761.729,1834.1 765.38,1842.56 767.902,1851.0 C 769.914,1857.73 765.734,1858.36 761.0,1855.0" style="stroke:#010101; fill:none;"/>
	<path d="M 769.0,1858.0 C 783.209,1879.58 788.261,1913.03 793.668,1938.0 C 798.382,1959.77 804.72,1981.82 806.83,2004.0 C 811.399,2052.0 805.302,2101.61 798.134,2149.0 C 795.204,2168.37 791.085,2187.71 787.614,2207.0 C 785.882,2216.63 785.793,2228.35 781.0,2237.0 C 775.83,2227.31 778.575,2209.97 778.0,2199.0" style="stroke:#010101; fill:none;"/>
	<path d="M 783.0,1935.0 L 790.0,1975.0" style="stroke:#010101; fill:none;"/>
	<path d="M 773.0,1944.0 L 775.0,1945.0" style="stroke:#010101; fill:none;"/>
	<path d="M 808.0,1985.0 L 806.0,1991.0" style="stroke:#010101; fill:none;"/>
	<path d="M 782.0,1999.0 L 798.0,2029.0" style="stroke:#010101; fill:none;"/>
	<path d="M 1577.0,2025.0 L 1579.0,2025.0" style="stroke:#010101; fill:none;"/>
	<path d="M 1577.0,2036.0 C 1577.63,2066.35 1585.72,2098.09 1590.71,2128.0 C 1601.19,2190.76 1613.82,2253.39 1636.91,2313.0 C 1645.03,2333.95 1656.2,2352.89 1665.69,2373.0 C 1667.64,2377.14 1667.46,2381.82 1669.63,2386.0 C 1674.74,2395.83 1682.66,2403.42 1686.83,2414.0 C 1689.33,2420.37 1689.91,2427.46 1692.0,2434.0" style="stroke:#010101; fill:none;"/>
	<path d="M 785.0,2068.0 L 784.0,2071.0" style="stroke:#010101; fill:none;"/>
	<path d="M 779.0,2201.0 L 787.0,2209.0" style="stroke:#010101; fill:none;"/>
	<path d="M 1477.0,2212.0 C 1470.87,2230.1 1472.05,2252.08 1469.72,2271.0 C 1463.55,2321.05 1457.64,2372.69 1464.0,2423.0" style="stroke:#010101; fill:none;"/>
	<path d="M 781.0,2237.0 C 780.869,2252.83 774.491,2268.87 770.36,2284.0 C 768.9,2289.35 768.469,2298.34 762.0,2299.0 L 763.0,2292.0 L 767.0,2296.0" style="stroke:#010101; fill:none;"/>
	<path d="M 768.0,2241.0 C 765.913,2252.24 766.517,2264.57 765.961,2276.0 C 765.672,2281.95 764.296,2285.85 768.0,2291.0" style="stroke:#010101; fill:none;"/>
	<path d="M 763.0,2273.0 C 762.042,2275.62 760.892,2290.82 764.0,2289.0" style="stroke:#010101; fill:none;"/>
	<path d="M 761.0,2300.0 L 763.0,2306.0 L 765.0,2300.0" style="stroke:#010101; fill:none;"/>
	<path d="M 763.0,2307.0 C 759.208,2317.05 756.503,2327.14 751.972,2337.0 C 747.817,2346.04 743.142,2352.09 741.406,2362.0 C 740.472,2367.34 737.431,2374.55 739.742,2379.87 C 742.251,2385.64 754.846,2390.52 760.0,2394.09 C 769.082,2400.38 776.263,2408.98 785.0,2415.58 C 790.676,2419.87 797.446,2421.59 802.961,2426.44 C 809.848,2432.49 816.858,2433.69 823.985,2438.8 C 829.152,2442.51 831.621,2448.83 837.004,2452.26 C 840.62,2454.57 845.204,2454.83 849.0,2456.9 C 860.04,2462.93 870.804,2471.32 881.0,2478.64 C 886.776,2482.78 890.702,2489.0 896.286,2493.3 C 904.286,2499.46 914.652,2502.5 922.985,2507.97 C 926.901,2510.54 929.199,2514.78 933.015,2517.44 C 942.273,2523.89 953.994,2527.83 963.985,2533.0 C 971.473,2536.87 977.135,2541.9 985.0,2545.55 C 991.842,2548.73 996.376,2555.02 1002.0,2559.79 C 1006.28,2563.41 1011.24,2564.18 1016.0,2566.76 C 1025.89,2572.13 1027.89,2577.0 1040.0,2577.0" style="stroke:#010101; fill:none;"/>
	<path d="M 751.0,2315.0 C 749.244,2323.75 742.794,2338.99 747.0,2347.0" style="stroke:#010101; fill:none;"/>
	<path d="M 749.0,2325.0 L 749.0,2322.0" style="stroke:#010101; fill:none;"/>
	<path d="M 745.0,2329.0 L 736.0,2344.0" style="stroke:#010101; fill:none;"/>
	<path d="M 744.0,2346.0 L 744.0,2348.0" style="stroke:#010101; fill:none;"/>
	<path d="M 733.0,2385.0 C 728.445,2385.39 725.649,2379.21 726.577,2375.0 C 727.919,2368.9 735.133,2360.68 741.0,2359.0" style="stroke:#010101; fill:none;"/>
	<path d="M 1665.0,2371.0 C 1672.91,2367.37 1676.56,2377.48 1680.09,2383.0 C 1687.4,2394.42 1693.47,2405.97 1699.61,2418.0 C 1702.32,2423.31 1702.62,2429.15 1709.0,2431.0" style="stroke:#010101; fill:none;"/>
	<path d="M 730.0,2381.0 L 729.0,2382.0" style="stroke:#010101; fill:none;"/>
	<path d="M 741.0,2383.0 L 742.0,2388.0" style="stroke:#010101; fill:none;"/>
	<path d="M 730.0,2388.0 C 737.899,2399.21 747.992,2400.77 758.0,2408.29 C 781.395,2425.86 802.202,2446.02 827.0,2461.91 C 831.749,2464.95 837.633,2468.55 843.0,2470.3 C 846.542,2471.46 850.588,2470.58 853.775,2472.86 C 857.438,2475.48 858.396,2480.5 862.044,2483.39 C 867.509,2487.72 874.348,2489.91 880.0,2493.94 C 896.993,2506.04 914.618,2518.57 933.0,2527.85 C 942.657,2532.72 949.165,2539.92 960.0,2543.0" style="stroke:#010101; fill:none;"/>
	<path d="M 730.0,2389.0 C 722.636,2396.69 717.98,2406.15 710.575,2413.71 C 686.749,2438.04 659.194,2458.97 633.576,2481.44 C 622.748,2490.94 607.99,2512.6 593.0,2509.0" style="stroke:#010101; fill:none;"/>
	<path d="M 699.0,2405.0 L 697.0,2407.0" style="stroke:#010101; fill:none;"/>
	<path d="M 678.0,2441.0 L 679.0,2435.0" style="stroke:#010101; fill:none;"/>
	<path d="M 597.0,2460.0 L 597.0,2461.0" style="stroke:#010101; fill:none;"/>
	<path d="M 631.0,2469.0 C 630.446,2473.84 630.813,2476.19 634.0,2480.0" style="stroke:#010101; fill:none;"/>
	<path d="M 612.0,2489.0 L 617.0,2495.0" style="stroke:#010101; fill:none;"/>
	<path d="M 617.0,2497.0 L 622.0,2503.0" style="stroke:#010101; fill:none;"/>
	<path d="M 598.0,2504.0 L 605.0,2507.0" style="stroke:#010101; fill:none;"/>
	<path d="M 600.0,2513.0 L 558.0,2555.0 L 536.0,2577.0" style="stroke:#010101; fill:none;"/>
	<path d="M 967.0,2544.0 C 969.601,2556.89 987.723,2560.56 997.0,2567.43 C 1001.84,2571.02 1004.72,2576.03 1011.0,2577.0" style="stroke:#010101; fill:none;"/>
</svg>
