<?xml version="1.0" ?>
<svg baseProfile="full" height="2673" version="1.1" width="2119" xmlns="http://www.w3.org/2000/svg" xmlns:ev="http://www.w3.org/2001/xml-events" xmlns:xlink="http://www.w3.org/1999/xlink">
	<defs/>
	<path d="M 1503.0,317.0 C 1508.31,332.601 1517.39,347.285 1524.75,362.0 C 1554.04,420.537 1593.96,474.63 1639.88,521.335 C 1660.64,542.442 1687.59,557.026 1706.54,580.0 C 1717.9,593.78 1728.61,609.094 1736.74,625.0 C 1740.17,631.703 1741.72,639.412 1745.53,645.896 C 1748.07,650.225 1752.78,652.385 1755.16,657.001 C 1761.22,668.735 1764.28,681.235 1772.53,692.0 C 1807.8,738.043 1848.52,780.189 1883.16,826.571 C 1903.4,853.678 1917.41,884.756 1935.7,913.0 C 1942.12,922.923 1950.66,931.326 1957.43,941.0 C 1978.1,970.543 1997.91,1002.04 2014.68,1034.0 C 2028.72,1060.76 2036.95,1091.83 2047.9,1120.0 C 2064.15,1161.85 2081.01,1203.43 2097.89,1245.0 C 2104.0,1260.05 2117.94,1276.5 2118.0,1293.0" style="stroke:#010101; fill:none;"/>
	<path d="M 1449.0,391.0 C 1464.05,381.087 1473.43,379.592 1491.0,383.0" style="stroke:#010101; fill:none;"/>
	<path d="M 1444.0,398.0 C 1421.68,426.121 1390.99,448.905 1366.04,475.0 C 1339.99,502.245 1316.22,535.205 1287.0,559.0" style="stroke:#010101; fill:none;"/>
	<path d="M 1491.0,481.0 L 1529.0,462.0" style="stroke:#010101; fill:none;"/>
	<path d="M 1475.0,494.0 L 1373.0,627.0" style="stroke:#010101; fill:none;"/>
	<path d="M 1478.0,655.0 C 1479.81,644.844 1486.92,635.679 1490.46,626.0 C 1504.17,588.512 1521.07,544.552 1561.0,527.876 C 1571.65,523.429 1585.6,523.448 1597.0,522.0" style="stroke:#010101; fill:none;"/>
	<path d="M 1283.0,553.0 C 1261.09,582.07 1231.81,606.459 1206.0,632.004 C 1151.26,686.178 1092.64,740.527 1028.0,782.921 C 1008.34,795.815 986.762,805.112 966.0,816.0" style="stroke:#010101; fill:none;"/>
	<path d="M 1628.0,572.0 C 1638.34,566.119 1653.14,561.969 1665.0,561.0" style="stroke:#010101; fill:none;"/>
	<path d="M 1580.0,588.0 C 1598.84,577.395 1624.87,574.834 1646.0,571.87 C 1654.61,570.661 1664.38,568.583 1673.0,570.0" style="stroke:#010101; fill:none;"/>
	<path d="M 1660.0,571.0 L 1660.0,573.0 L 1665.0,573.0" style="stroke:#010101; fill:none;"/>
	<path d="M 1558.0,604.0 C 1590.2,591.507 1624.52,578.643 1659.0,574.0" style="stroke:#010101; fill:none;"/>
	<path d="M 1677.0,577.0 L 1666.0,589.0" style="stroke:#010101; fill:none;"/>
	<path d="M 1686.0,584.0 L 1661.0,608.94 L 1652.0,615.0" style="stroke:#010101; fill:none;"/>
	<path d="M 1537.0,624.0 L 1620.0,598.29 L 1663.0,587.0" style="stroke:#010101; fill:none;"/>
	<path d="M 1642.0,608.0 L 1639.0,609.0 L 1661.0,598.0" style="stroke:#010101; fill:none;"/>
	<path d="M 1684.0,598.0 C 1669.31,612.57 1650.79,630.015 1632.0,639.0" style="stroke:#010101; fill:none;"/>
	<path d="M 1694.0,602.0 C 1675.58,618.045 1653.73,637.488 1631.0,647.0" style="stroke:#010101; fill:none;"/>
	<path d="M 1638.0,611.0 L 1639.0,607.0" style="stroke:#010101; fill:none;"/>
	<path d="M 1543.0,640.0 L 1593.0,623.136 L 1636.0,608.0" style="stroke:#010101; fill:none;"/>
	<path d="M 1546.0,652.0 L 1637.0,611.0" style="stroke:#010101; fill:none;"/>
	<path d="M 1647.0,614.0 C 1603.31,639.522 1552.84,652.213 1521.0,694.0" style="stroke:#010101; fill:none;"/>
	<path d="M 1685.0,617.0 L 1654.0,641.333 L 1646.0,649.0" style="stroke:#010101; fill:none;"/>
	<path d="M 1687.0,622.0 L 1616.0,679.0" style="stroke:#010101; fill:none;"/>
	<path d="M 1541.0,679.0 C 1571.42,660.383 1607.21,640.542 1641.0,629.0" style="stroke:#010101; fill:none;"/>
	<path d="M 1752.0,652.0 C 1754.07,648.102 1750.8,631.933 1755.32,630.948 C 1759.8,629.969 1764.36,636.642 1766.88,639.424 C 1776.57,650.112 1785.2,661.276 1793.58,673.0 C 1828.09,721.29 1859.4,769.504 1883.0,824.0" style="stroke:#010101; fill:none;"/>
	<path d="M 1646.0,646.0 L 1647.0,647.0" style="stroke:#010101; fill:none;"/>
	<path d="M 1359.0,647.0 C 1333.38,672.623 1305.83,697.76 1277.0,719.764 C 1267.49,727.023 1256.62,732.133 1247.0,739.159 C 1228.73,752.506 1211.55,768.518 1195.0,783.911 C 1184.32,793.839 1173.81,804.049 1163.0,813.83 C 1155.83,820.321 1146.9,826.551 1142.0,835.0" style="stroke:#010101; fill:none;"/>
	<path d="M 1540.0,683.0 L 1561.0,674.281 L 1621.0,647.0" style="stroke:#010101; fill:none;"/>
	<path d="M 1594.0,683.0 L 1536.0,709.424 L 1511.0,717.0 C 1516.83,708.725 1528.08,694.902 1537.0,690.059 C 1550.21,682.89 1567.78,679.334 1582.0,673.936 C 1602.27,666.243 1621.93,657.025 1642.0,649.0 C 1642.35,651.883 1642.69,651.561 1645.0,650.0" style="stroke:#010101; fill:none;"/>
	<path d="M 1642.0,652.0 C 1622.36,668.992 1601.16,684.101 1584.42,704.286 C 1580.89,708.543 1570.82,724.958 1565.0,724.0" style="stroke:#010101; fill:none;"/>
	<path d="M 1547.0,666.0 L 1549.0,664.0" style="stroke:#010101; fill:none;"/>
	<path d="M 1618.0,664.0 C 1590.77,681.956 1557.06,692.669 1527.0,705.0" style="stroke:#010101; fill:none;"/>
	<path d="M 1541.0,667.0 L 1546.0,665.0" style="stroke:#010101; fill:none;"/>
	<path d="M 1716.0,665.0 L 1718.0,693.0" style="stroke:#010101; fill:none;"/>
	<path d="M 1469.0,668.0 C 1455.64,689.825 1439.92,713.661 1421.96,731.985 C 1405.58,748.7 1383.66,763.795 1365.0,778.0" style="stroke:#010101; fill:none;"/>
	<path d="M 1536.0,685.0 L 1539.0,684.0" style="stroke:#010101; fill:none;"/>
	<path d="M 1540.0,686.0 L 1539.0,687.0" style="stroke:#010101; fill:none;"/>
	<path d="M 1527.0,695.0 L 1531.0,693.0" style="stroke:#010101; fill:none;"/>
	<path d="M 1600.0,696.0 C 1585.36,712.816 1572.38,735.054 1554.0,748.0 L 1555.0,743.0" style="stroke:#010101; fill:none;"/>
	<path d="M 1585.0,697.0 L 1550.0,719.741 L 1525.0,732.0 L 1529.0,731.0" style="stroke:#010101; fill:none;"/>
	<path d="M 1720.0,707.0 L 1715.0,724.0" style="stroke:#010101; fill:none;"/>
	<path d="M 1591.0,712.0 L 1559.41,750.0 L 1541.0,768.0" style="stroke:#010101; fill:none;"/>
	<path d="M 1490.0,736.0 L 1510.0,718.0" style="stroke:#010101; fill:none;"/>
	<path d="M 1513.0,724.0 L 1464.0,771.0" style="stroke:#010101; fill:none;"/>
	<path d="M 1438.0,805.0 L 1468.0,777.627 L 1515.0,753.14 L 1564.0,725.0" style="stroke:#010101; fill:none;"/>
	<path d="M 1565.0,726.0 L 1558.0,735.0" style="stroke:#010101; fill:none;"/>
	<path d="M 1716.0,728.0 C 1702.88,736.301 1687.16,745.202 1681.0,760.0" style="stroke:#010101; fill:none;"/>
	<path d="M 1506.0,736.0 L 1525.0,730.0" style="stroke:#010101; fill:none;"/>
	<path d="M 1581.0,733.0 C 1566.34,747.785 1553.66,765.716 1537.0,778.402 C 1520.78,790.752 1498.87,798.627 1480.0,806.2 C 1469.81,810.29 1449.5,821.514 1439.0,816.0 C 1448.07,805.741 1461.19,798.282 1475.0,797.0 L 1473.0,796.0" style="stroke:#010101; fill:none;"/>
	<path d="M 1491.0,749.0 L 1525.0,733.0" style="stroke:#010101; fill:none;"/>
	<path d="M 1576.0,746.0 C 1567.57,757.372 1557.68,767.347 1548.42,778.0 C 1542.69,784.6 1536.28,793.682 1528.0,797.0 L 1527.0,794.0" style="stroke:#010101; fill:none;"/>
	<path d="M 1498.0,748.0 L 1473.0,773.0" style="stroke:#010101; fill:none;"/>
	<path d="M 1545.0,750.0 L 1480.0,793.0 C 1486.13,794.518 1491.68,790.047 1497.0,787.37 C 1511.83,779.905 1525.17,771.109 1539.0,762.0" style="stroke:#010101; fill:none;"/>
	<path d="M 1585.0,801.0 L 1577.0,797.0 C 1583.78,794.025 1584.89,802.346 1591.0,803.079 C 1594.52,803.502 1597.09,799.32 1599.0,797.0 L 1591.0,794.0 C 1604.93,770.623 1641.37,751.423 1669.0,758.0" style="stroke:#010101; fill:none;"/>
	<path d="M 1686.0,772.0 L 1697.0,787.0" style="stroke:#010101; fill:none;"/>
	<path d="M 1597.0,778.0 L 1596.0,782.0" style="stroke:#010101; fill:none;"/>
	<path d="M 1635.0,780.0 C 1631.83,783.573 1629.84,786.178 1631.0,791.0 C 1642.09,787.691 1645.85,789.746 1653.0,780.0" style="stroke:#010101; fill:none;"/>
	<path d="M 1553.0,782.0 C 1540.45,800.82 1518.37,815.963 1499.0,826.999 C 1492.3,830.815 1481.13,837.764 1474.0,833.0 L 1528.0,798.0" style="stroke:#010101; fill:none;"/>
	<path d="M 1624.0,782.0 L 1610.0,786.0 L 1618.0,794.0 L 1599.0,797.0" style="stroke:#010101; fill:none;"/>
	<path d="M 1653.0,786.0 L 1660.0,788.0 L 1659.0,795.0 C 1654.55,790.483 1650.69,785.369 1659.0,783.0" style="stroke:#010101; fill:none;"/>
	<path d="M 1683.0,787.0 L 1670.0,789.0 C 1671.13,782.21 1678.54,784.0 1684.0,784.0" style="stroke:#010101; fill:none;"/>
	<path d="M 1669.0,790.0 L 1665.0,790.0 L 1670.0,785.0" style="stroke:#010101; fill:none;"/>
	<path d="M 1355.0,786.0 L 1314.0,823.0" style="stroke:#010101; fill:none;"/>
	<path d="M 1605.0,794.0 L 1610.0,786.0" style="stroke:#010101; fill:none;"/>
	<path d="M 1650.0,786.0 L 1652.0,788.0" style="stroke:#010101; fill:none;"/>
	<path d="M 1661.0,787.0 L 1665.0,787.0" style="stroke:#010101; fill:none;"/>
	<path d="M 1630.0,790.0 L 1618.0,794.0" style="stroke:#010101; fill:none;"/>
	<path d="M 1468.0,791.0 L 1460.0,799.0" style="stroke:#010101; fill:none;"/>
	<path d="M 1640.0,791.0 C 1641.55,800.772 1651.1,797.462 1658.0,796.0 L 1650.0,808.0" style="stroke:#010101; fill:none;"/>
	<path d="M 1666.0,791.0 L 1666.0,793.0 L 1661.0,793.0" style="stroke:#010101; fill:none;"/>
	<path d="M 1631.0,792.0 C 1634.18,795.077 1636.44,797.646 1641.0,797.0" style="stroke:#010101; fill:none;"/>
	<path d="M 1481.0,795.0 L 1480.0,793.0" style="stroke:#010101; fill:none;"/>
	<path d="M 1666.0,793.0 L 1672.0,795.0" style="stroke:#010101; fill:none;"/>
	<path d="M 1476.0,794.0 L 1478.0,795.0" style="stroke:#010101; fill:none;"/>
	<path d="M 1478.0,795.0 L 1476.0,797.0" style="stroke:#010101; fill:none;"/>
	<path d="M 1526.0,800.0 L 1523.0,797.0 L 1526.0,795.0" style="stroke:#010101; fill:none;"/>
	<path d="M 1586.0,799.0 L 1590.0,795.0" style="stroke:#010101; fill:none;"/>
	<path d="M 1371.0,872.0 C 1395.29,854.652 1425.85,842.899 1453.0,830.83 C 1476.64,820.322 1499.16,806.926 1523.0,797.0" style="stroke:#010101; fill:none;"/>
	<path d="M 1577.0,798.0 L 1573.0,805.0 C 1577.92,806.294 1580.41,804.319 1584.0,801.0" style="stroke:#010101; fill:none;"/>
	<path d="M 1576.0,800.0 L 1580.0,804.0" style="stroke:#010101; fill:none;"/>
	<path d="M 1649.0,800.0 C 1639.37,825.006 1628.87,849.81 1612.0,871.0 C 1606.3,878.149 1597.0,889.474 1588.0,892.0 C 1590.45,881.681 1595.18,872.896 1595.91,862.0 C 1596.89,847.374 1588.2,833.993 1580.99,822.0 C 1579.01,818.723 1574.11,810.59 1569.96,809.913 C 1567.42,809.498 1563.75,812.582 1561.0,813.0 L 1567.0,808.0" style="stroke:#010101; fill:none;"/>
	<path d="M 1665.0,800.0 L 1648.0,815.0" style="stroke:#010101; fill:none;"/>
	<path d="M 1701.0,800.0 L 1698.0,807.0" style="stroke:#010101; fill:none;"/>
	<path d="M 1664.0,805.0 L 1645.0,822.0" style="stroke:#010101; fill:none;"/>
	<path d="M 1513.0,810.0 L 1511.0,808.0 L 1515.0,807.0" style="stroke:#010101; fill:none;"/>
	<path d="M 1573.0,806.0 L 1570.0,809.0" style="stroke:#010101; fill:none;"/>
	<path d="M 1561.0,807.0 L 1561.0,809.0" style="stroke:#010101; fill:none;"/>
	<path d="M 1652.0,822.0 L 1670.0,808.0" style="stroke:#010101; fill:none;"/>
	<path d="M 1551.0,809.0 L 1548.0,820.0 L 1561.0,813.0" style="stroke:#010101; fill:none;"/>
	<path d="M 1415.0,831.0 L 1439.0,816.0" style="stroke:#010101; fill:none;"/>
	<path d="M 1493.0,816.0 L 1489.0,820.0" style="stroke:#010101; fill:none;"/>
	<path d="M 1547.0,821.0 C 1543.8,826.002 1539.87,829.62 1534.0,831.0 L 1534.0,824.0" style="stroke:#010101; fill:none;"/>
	<path d="M 1404.0,847.0 L 1444.0,824.0" style="stroke:#010101; fill:none;"/>
	<path d="M 1882.0,827.0 L 1884.0,829.0" style="stroke:#010101; fill:none;"/>
	<path d="M 1533.0,832.0 C 1530.65,838.907 1524.02,843.001 1519.0,848.001 C 1508.17,858.778 1497.46,870.234 1489.0,883.0 C 1486.4,886.931 1481.7,892.26 1480.97,897.0 C 1480.16,902.183 1485.23,908.102 1488.0,912.0 C 1498.01,926.105 1512.46,933.129 1530.0,930.951 C 1537.33,930.041 1545.19,922.458 1551.0,918.286 C 1563.07,909.617 1575.48,902.452 1587.0,893.0" style="stroke:#010101; fill:none;"/>
	<path d="M 1475.0,834.0 L 1472.0,837.0 L 1474.0,833.0" style="stroke:#010101; fill:none;"/>
	<path d="M 1471.0,836.0 C 1453.13,850.283 1436.04,865.568 1422.0,884.0" style="stroke:#010101; fill:none;"/>
	<path d="M 1465.0,839.0 L 1468.0,837.0" style="stroke:#010101; fill:none;"/>
	<path d="M 1474.0,837.0 L 1475.0,837.0" style="stroke:#010101; fill:none;"/>
	<path d="M 1141.0,840.0 C 1113.25,866.016 1082.66,888.027 1053.0,911.665 C 1022.94,935.626 995.305,958.558 962.0,978.139 C 939.54,991.344 917.726,1006.02 895.0,1018.69 C 886.387,1023.49 870.492,1027.86 866.0,1037.0" style="stroke:#010101; fill:none;"/>
	<path d="M 1459.0,840.0 C 1430.56,861.919 1406.94,890.178 1375.0,907.0" style="stroke:#010101; fill:none;"/>
	<path d="M 1467.0,841.0 L 1447.0,862.0" style="stroke:#010101; fill:none;"/>
	<path d="M 1437.0,845.0 C 1416.59,862.661 1389.9,873.341 1365.0,883.0" style="stroke:#010101; fill:none;"/>
	<path d="M 1547.85,855.016 C 1553.42,854.548 1548.21,863.254 1547.04,864.999 C 1542.97,871.117 1535.62,876.38 1528.0,876.515 C 1519.64,876.662 1511.45,863.147 1520.19,857.752 C 1523.34,855.808 1527.47,860.794 1531.0,860.898 C 1537.36,861.085 1541.94,855.513 1547.85,855.016" style="stroke:#010101; fill:none;"/>
	<path d="M 1426.0,865.0 L 1430.0,862.0" style="stroke:#010101; fill:none;"/>
	<path d="M 1422.0,871.0 C 1421.74,867.51 1422.87,866.537 1426.0,865.0" style="stroke:#010101; fill:none;"/>
	<path d="M 1634.0,865.0 L 1637.0,867.0 L 1632.0,867.0 L 1634.0,865.0" style="stroke:#010101; fill:none;"/>
	<path d="M 1423.0,866.0 L 1425.0,868.0" style="stroke:#010101; fill:none;"/>
	<path d="M 1622.0,869.0 L 1632.0,867.0" style="stroke:#010101; fill:none;"/>
	<path d="M 1637.0,867.0 L 1642.0,869.0" style="stroke:#010101; fill:none;"/>
	<path d="M 1721.0,868.0 C 1718.43,899.44 1703.05,937.005 1672.0,950.0" style="stroke:#010101; fill:none;"/>
	<path d="M 1367.0,893.0 C 1387.53,892.83 1402.56,877.289 1420.0,869.0" style="stroke:#010101; fill:none;"/>
	<path d="M 1626.0,869.0 L 1654.0,885.0" style="stroke:#010101; fill:none;"/>
	<path d="M 1637.0,870.0 L 1643.0,873.0" style="stroke:#010101; fill:none;"/>
	<path d="M 1000.0,872.0 C 984.728,883.739 966.923,892.172 951.0,903.029 C 932.069,915.936 914.348,930.669 895.0,942.947 C 857.467,966.764 817.315,987.405 778.0,1008.11 C 740.387,1027.92 700.69,1043.88 667.0,1070.51 C 627.819,1101.49 591.664,1146.77 565.054,1189.0 C 556.301,1202.89 549.633,1218.0 541.0,1232.0" style="stroke:#010101; fill:none;"/>
	<path d="M 1614.0,878.0 L 1619.0,878.0 L 1610.0,884.0" style="stroke:#010101; fill:none;"/>
	<path d="M 1620.0,878.0 C 1633.22,875.872 1647.94,887.981 1655.0,898.0" style="stroke:#010101; fill:none;"/>
	<path d="M 1737.0,882.0 L 1732.0,929.0 L 1759.0,921.0" style="stroke:#010101; fill:none;"/>
	<path d="M 1607.0,886.0 L 1619.0,888.0" style="stroke:#010101; fill:none;"/>
	<path d="M 1605.0,894.0 L 1604.0,892.0 L 1617.0,900.0" style="stroke:#010101; fill:none;"/>
	<path d="M 1598.0,893.0 L 1602.0,893.0" style="stroke:#010101; fill:none;"/>
	<path d="M 1409.0,894.0 C 1397.01,907.017 1385.57,918.483 1367.0,920.0" style="stroke:#010101; fill:none;"/>
	<path d="M 1590.0,898.0 C 1602.44,899.837 1614.66,907.923 1624.0,916.0" style="stroke:#010101; fill:none;"/>
	<path d="M 1480.0,899.0 C 1455.04,930.563 1433.9,976.453 1446.0,1017.0 L 1473.0,975.0 C 1469.23,974.196 1464.63,974.319 1465.0,979.0 L 1466.0,980.0 L 1467.0,981.0 L 1468.0,982.0" style="stroke:#010101; fill:none;"/>
	<path d="M 1580.0,900.0 L 1604.0,909.0" style="stroke:#010101; fill:none;"/>
	<path d="M 1619.0,901.0 L 1621.0,903.0" style="stroke:#010101; fill:none;"/>
	<path d="M 1617.0,903.0 L 1625.0,912.0" style="stroke:#010101; fill:none;"/>
	<path d="M 1400.0,910.0 C 1392.76,918.365 1376.26,936.506 1364.0,930.0" style="stroke:#010101; fill:none;"/>
	<path d="M 1576.0,911.0 C 1583.19,911.33 1588.59,914.402 1594.0,919.0" style="stroke:#010101; fill:none;"/>
	<path d="M 1475.0,913.0 C 1466.93,926.163 1469.15,943.564 1465.92,958.0 C 1464.43,964.65 1460.06,970.139 1463.0,977.0" style="stroke:#010101; fill:none;"/>
	<path d="M 569.0,1044.0 C 607.459,1017.76 648.656,996.151 688.0,971.319 C 717.186,952.897 744.953,929.342 777.0,916.0" style="stroke:#010101; fill:none;"/>
	<path d="M 1587.0,926.0 L 1575.0,918.0 C 1581.59,915.471 1586.49,920.6 1591.0,925.0" style="stroke:#010101; fill:none;"/>
	<path d="M 1569.0,918.0 L 1575.0,918.0" style="stroke:#010101; fill:none;"/>
	<path d="M 1548.0,926.0 L 1552.0,932.0" style="stroke:#010101; fill:none;"/>
	<path d="M 1546.0,929.0 L 1547.0,935.0" style="stroke:#010101; fill:none;"/>
	<path d="M 1731.0,930.0 L 1729.0,939.0" style="stroke:#010101; fill:none;"/>
	<path d="M 1527.0,932.0 C 1507.55,945.892 1487.6,954.142 1473.0,974.0" style="stroke:#010101; fill:none;"/>
	<path d="M 1535.0,936.0 L 1536.0,939.0" style="stroke:#010101; fill:none;"/>
	<path d="M 1391.0,938.0 C 1388.24,1002.21 1391.52,1087.07 1456.0,1123.0" style="stroke:#010101; fill:none;"/>
	<path d="M 1726.0,947.0 C 1714.34,964.135 1700.68,976.878 1682.0,986.0" style="stroke:#010101; fill:none;"/>
	<path d="M 1512.0,951.0 L 1510.0,959.0" style="stroke:#010101; fill:none;"/>
	<path d="M 1148.0,953.0 C 1120.41,970.704 1088.58,979.802 1059.0,993.309 C 1036.86,1003.42 1016.97,1017.74 995.0,1028.0" style="stroke:#010101; fill:none;"/>
	<path d="M 1505.0,957.0 L 1507.0,964.0" style="stroke:#010101; fill:none;"/>
	<path d="M 1655.0,958.0 L 1611.0,980.0" style="stroke:#010101; fill:none;"/>
	<path d="M 1447.0,961.0 L 1446.0,964.0" style="stroke:#010101; fill:none;"/>
	<path d="M 1504.0,961.0 L 1504.0,978.0" style="stroke:#010101; fill:none;"/>
	<path d="M 1444.0,963.0 L 1434.0,990.0" style="stroke:#010101; fill:none;"/>
	<path d="M 1462.0,974.0 L 1464.0,974.0" style="stroke:#010101; fill:none;"/>
	<path d="M 1461.0,976.0 L 1451.0,984.0" style="stroke:#010101; fill:none;"/>
	<path d="M 1585.0,1034.0 L 1668.0,993.0" style="stroke:#010101; fill:none;"/>
	<path d="M 989.0,1032.0 C 953.844,1065.62 909.245,1086.77 866.0,1107.64 C 858.851,1111.09 851.07,1112.63 844.0,1116.26 C 821.969,1127.58 804.05,1144.3 784.0,1158.43 C 767.812,1169.84 749.725,1177.91 734.0,1190.0" style="stroke:#010101; fill:none;"/>
	<path d="M 557.0,1053.0 C 532.41,1077.59 505.514,1105.0 489.0,1136.0" style="stroke:#010101; fill:none;"/>
	<path d="M 1099.0,1114.0 L 1135.0,1082.0" style="stroke:#010101; fill:none;"/>
	<path d="M 1137.0,1088.0 L 1142.0,1085.0" style="stroke:#010101; fill:none;"/>
	<path d="M 1112.0,1088.0 L 1108.0,1094.0 L 1112.0,1090.0" style="stroke:#010101; fill:none;"/>
	<path d="M 1092.0,1089.0 C 1079.81,1106.87 1064.17,1122.45 1048.0,1136.71 C 1041.69,1142.28 1027.44,1151.59 1026.0,1160.0 L 1028.0,1156.0" style="stroke:#010101; fill:none;"/>
	<path d="M 1108.0,1094.0 L 1056.0,1142.0" style="stroke:#010101; fill:none;"/>
	<path d="M 1073.0,1100.0 C 1037.52,1140.62 997.848,1177.92 956.0,1212.0" style="stroke:#010101; fill:none;"/>
	<path d="M 1055.0,1109.0 L 996.0,1171.17 L 967.0,1195.0 L 970.0,1195.0" style="stroke:#010101; fill:none;"/>
	<path d="M 1089.0,1112.0 L 1092.0,1109.0" style="stroke:#010101; fill:none;"/>
	<path d="M 1086.0,1115.0 L 1088.0,1111.0" style="stroke:#010101; fill:none;"/>
	<path d="M 1043.0,1114.0 C 1023.93,1128.57 1009.81,1148.34 993.83,1166.0 C 986.352,1174.26 974.745,1181.83 970.0,1192.0" style="stroke:#010101; fill:none;"/>
	<path d="M 1081.0,1118.0 L 1085.0,1114.0" style="stroke:#010101; fill:none;"/>
	<path d="M 1204.0,1114.0 C 1215.96,1120.29 1228.7,1124.82 1240.0,1132.35 C 1274.1,1155.09 1303.72,1185.62 1334.0,1213.0" style="stroke:#010101; fill:none;"/>
	<path d="M 1082.0,1116.0 L 1084.0,1118.0" style="stroke:#010101; fill:none;"/>
	<path d="M 1077.0,1123.0 L 1081.0,1118.0" style="stroke:#010101; fill:none;"/>
	<path d="M 1075.0,1121.0 L 1072.0,1125.0" style="stroke:#010101; fill:none;"/>
	<path d="M 1031.0,1154.0 L 1043.0,1147.0 L 1072.0,1125.0" style="stroke:#010101; fill:none;"/>
	<path d="M 1006.0,1127.0 L 995.0,1139.0" style="stroke:#010101; fill:none;"/>
	<path d="M 977.0,1139.0 C 938.304,1187.01 895.112,1231.88 853.089,1277.0 C 830.734,1301.0 810.084,1326.72 787.0,1350.0 C 795.084,1351.74 808.985,1339.29 816.0,1335.0" style="stroke:#010101; fill:none;"/>
	<path d="M 961.0,1143.0 L 908.116,1198.46 L 855.0,1254.0" style="stroke:#010101; fill:none;"/>
	<path d="M 868.0,1278.0 C 902.41,1248.35 934.37,1215.95 967.576,1185.0 C 980.905,1172.58 995.475,1151.71 1012.0,1144.0" style="stroke:#010101; fill:none;"/>
	<path d="M 1008.0,1146.0 L 1010.0,1148.0" style="stroke:#010101; fill:none;"/>
	<path d="M 1006.0,1148.0 L 1008.0,1150.0" style="stroke:#010101; fill:none;"/>
	<path d="M 983.0,1150.0 C 978.021,1166.93 960.861,1183.42 949.025,1196.0 C 944.661,1200.63 934.317,1208.35 936.0,1215.0" style="stroke:#010101; fill:none;"/>
	<path d="M 1004.0,1151.0 L 1006.0,1153.0" style="stroke:#010101; fill:none;"/>
	<path d="M 1025.0,1159.0 L 1006.0,1174.0" style="stroke:#010101; fill:none;"/>
	<path d="M 1231.0,1165.0 C 1240.4,1172.17 1256.68,1169.0 1268.0,1169.0" style="stroke:#010101; fill:none;"/>
	<path d="M 921.0,1166.0 C 915.866,1179.25 902.753,1189.4 892.714,1198.26 C 885.556,1204.58 879.758,1212.29 872.999,1219.0 C 868.632,1223.33 861.777,1226.56 859.0,1232.0 L 861.0,1229.0" style="stroke:#010101; fill:none;"/>
	<path d="M 951.0,1178.0 C 906.051,1229.61 862.417,1283.55 814.0,1332.0" style="stroke:#010101; fill:none;"/>
	<path d="M 1214.0,1180.0 L 1199.0,1202.0" style="stroke:#010101; fill:none;"/>
	<path d="M 888.0,1181.0 L 845.039,1229.0 L 825.0,1248.0 L 828.0,1236.0 L 799.0,1262.0 L 803.0,1260.0" style="stroke:#010101; fill:none;"/>
	<path d="M 901.0,1189.0 L 907.0,1185.0" style="stroke:#010101; fill:none;"/>
	<path d="M 974.0,1186.0 L 977.0,1189.0" style="stroke:#010101; fill:none;"/>
	<path d="M 903.0,1187.0 L 905.0,1189.0" style="stroke:#010101; fill:none;"/>
	<path d="M 971.0,1189.0 L 973.0,1191.0" style="stroke:#010101; fill:none;"/>
	<path d="M 1626.0,1189.0 L 1627.0,1189.0" style="stroke:#010101; fill:none;"/>
	<path d="M 903.0,1192.0 L 901.0,1194.0" style="stroke:#010101; fill:none;"/>
	<path d="M 899.0,1193.0 L 896.0,1196.0" style="stroke:#010101; fill:none;"/>
	<path d="M 967.0,1196.0 L 934.0,1228.0" style="stroke:#010101; fill:none;"/>
	<path d="M 884.0,1197.0 L 865.0,1224.0" style="stroke:#010101; fill:none;"/>
	<path d="M 897.0,1198.0 L 856.285,1244.0 L 785.0,1329.0" style="stroke:#010101; fill:none;"/>
	<path d="M 858.0,1204.0 L 827.0,1236.0" style="stroke:#010101; fill:none;"/>
	<path d="M 720.0,1206.0 L 695.0,1247.0" style="stroke:#010101; fill:none;"/>
	<path d="M 934.0,1213.0 L 931.0,1218.0" style="stroke:#010101; fill:none;"/>
	<path d="M 1186.0,1214.0 C 1169.21,1222.85 1138.74,1234.52 1120.0,1229.0" style="stroke:#010101; fill:none;"/>
	<path d="M 933.0,1215.0 L 935.0,1217.0" style="stroke:#010101; fill:none;"/>
	<path d="M 865.0,1224.0 L 862.0,1227.0" style="stroke:#010101; fill:none;"/>
	<path d="M 854.0,1225.0 L 796.83,1289.89 L 786.0,1297.0 L 793.0,1295.0" style="stroke:#010101; fill:none;"/>
	<path d="M 863.0,1229.0 L 862.0,1230.0" style="stroke:#010101; fill:none;"/>
	<path d="M 859.0,1232.0 C 823.404,1267.69 787.81,1306.91 756.0,1346.0" style="stroke:#010101; fill:none;"/>
	<path d="M 1005.0,1252.0 L 1006.0,1259.0 C 1038.32,1240.21 1078.11,1238.76 1114.0,1232.0" style="stroke:#010101; fill:none;"/>
	<path d="M 1597.0,1236.0 L 1639.0,1262.5 L 1692.0,1304.66 L 1720.0,1318.47 L 1760.0,1342.0" style="stroke:#010101; fill:none;"/>
	<path d="M 2051.0,1240.0 L 2053.0,1255.0" style="stroke:#010101; fill:none;"/>
	<path d="M 809.0,1244.0 L 801.0,1257.0" style="stroke:#010101; fill:none;"/>
	<path d="M 805.0,1249.0 L 806.0,1247.0" style="stroke:#010101; fill:none;"/>
	<path d="M 780.0,1270.0 L 778.0,1269.0 C 788.545,1267.39 795.576,1253.93 804.0,1248.0" style="stroke:#010101; fill:none;"/>
	<path d="M 825.0,1248.0 C 819.314,1255.38 813.985,1265.42 805.0,1269.0" style="stroke:#010101; fill:none;"/>
	<path d="M 859.0,1250.0 L 863.0,1248.0" style="stroke:#010101; fill:none;"/>
	<path d="M 791.0,1252.0 L 780.0,1267.0" style="stroke:#010101; fill:none;"/>
	<path d="M 861.0,1252.0 L 817.919,1303.0 L 791.0,1336.0 L 793.0,1338.0 L 799.0,1336.0" style="stroke:#010101; fill:none;"/>
	<path d="M 1050.0,1252.0 C 1047.21,1259.02 1045.22,1261.63 1039.23,1265.91 C 1037.92,1266.85 1036.36,1268.67 1037.26,1270.4 C 1038.38,1272.58 1042.12,1271.81 1044.0,1271.57 C 1050.59,1270.75 1057.36,1271.01 1064.0,1271.0 C 1071.15,1270.99 1081.25,1271.99 1088.0,1270.08 C 1099.32,1266.89 1108.2,1258.72 1120.0,1256.46 C 1125.99,1255.31 1132.89,1253.5 1139.0,1254.11 C 1144.16,1254.63 1146.96,1257.54 1152.0,1255.0" style="stroke:#010101; fill:none;"/>
	<path d="M 1020.0,1256.0 L 1009.0,1276.0 C 1014.82,1278.63 1021.44,1275.46 1027.0,1273.0 C 1023.82,1266.72 1031.33,1260.99 1035.0,1256.0" style="stroke:#010101; fill:none;"/>
	<path d="M 1044.0,1257.0 L 1040.0,1264.0" style="stroke:#010101; fill:none;"/>
	<path d="M 1145.0,1257.0 L 1078.0,1297.0 L 1075.64,1286.51 L 1055.0,1272.0" style="stroke:#010101; fill:none;"/>
	<path d="M 1005.0,1259.0 C 1002.15,1264.96 1001.8,1273.64 994.985,1276.89 C 986.739,1280.82 987.748,1269.67 992.0,1266.0 L 993.0,1277.0" style="stroke:#010101; fill:none;"/>
	<path d="M 700.0,1373.0 C 709.732,1344.88 731.527,1318.1 748.576,1294.0 C 756.562,1282.71 764.765,1268.27 776.0,1260.0" style="stroke:#010101; fill:none;"/>
	<path d="M 995.0,1267.0 L 1003.0,1261.0" style="stroke:#010101; fill:none;"/>
	<path d="M 799.0,1262.0 L 714.0,1366.0" style="stroke:#010101; fill:none;"/>
	<path d="M 808.0,1269.0 C 805.384,1275.18 795.951,1281.18 799.0,1288.0" style="stroke:#010101; fill:none;"/>
	<path d="M 1015.0,1273.0 L 1024.0,1269.0" style="stroke:#010101; fill:none;"/>
	<path d="M 972.0,1281.0 L 958.0,1290.0 C 967.481,1296.71 969.549,1284.91 974.383,1279.17 C 977.652,1275.29 982.62,1272.44 987.0,1270.0" style="stroke:#010101; fill:none;"/>
	<path d="M 778.0,1271.0 C 751.259,1298.94 729.67,1335.88 708.0,1368.0" style="stroke:#010101; fill:none;"/>
	<path d="M 976.0,1272.0 L 975.0,1276.0" style="stroke:#010101; fill:none;"/>
	<path d="M 1028.0,1274.0 L 1035.0,1272.0" style="stroke:#010101; fill:none;"/>
	<path d="M 753.0,1273.0 C 730.59,1295.6 714.191,1327.42 700.702,1356.0 C 695.649,1366.71 689.13,1377.55 686.0,1389.0" style="stroke:#010101; fill:none;"/>
	<path d="M 1001.0,1275.0 C 1003.82,1277.93 1005.5,1277.97 1009.0,1276.0" style="stroke:#010101; fill:none;"/>
	<path d="M 987.0,1278.0 L 988.0,1284.0 L 991.0,1279.0" style="stroke:#010101; fill:none;"/>
	<path d="M 1006.0,1279.0 C 999.885,1283.18 980.73,1284.73 978.346,1292.24 C 977.431,1295.13 981.003,1296.72 983.005,1297.7 C 990.132,1301.21 996.603,1305.74 1001.62,1312.0 C 1013.75,1327.13 1015.66,1344.92 1013.0,1363.0 C 1022.67,1357.98 1029.46,1347.14 1036.43,1339.0 C 1048.85,1324.47 1061.89,1308.75 1077.0,1297.0" style="stroke:#010101; fill:none;"/>
	<path d="M 1008.0,1279.0 L 1010.0,1278.0" style="stroke:#010101; fill:none;"/>
	<path d="M 980.0,1281.0 L 983.0,1288.0" style="stroke:#010101; fill:none;"/>
	<path d="M 798.0,1283.0 L 800.0,1285.0" style="stroke:#010101; fill:none;"/>
	<path d="M 796.0,1286.0 L 794.0,1292.0 L 794.0,1292.0" style="stroke:#010101; fill:none;"/>
	<path d="M 795.0,1288.0 L 797.0,1290.0" style="stroke:#010101; fill:none;"/>
	<path d="M 963.0,1288.0 L 963.0,1300.0 L 976.0,1292.0 L 972.0,1290.0" style="stroke:#010101; fill:none;"/>
	<path d="M 745.0,1305.0 L 761.0,1290.0" style="stroke:#010101; fill:none;"/>
	<path d="M 886.0,1413.0 C 882.032,1406.36 885.207,1399.43 885.826,1392.0 C 888.564,1359.15 919.311,1336.95 940.887,1314.71 C 945.168,1310.3 940.746,1306.72 942.979,1302.17 C 945.351,1297.35 953.451,1292.63 958.0,1290.0" style="stroke:#010101; fill:none;"/>
	<path d="M 759.0,1291.0 L 761.0,1293.0" style="stroke:#010101; fill:none;"/>
	<path d="M 789.0,1294.0 L 791.0,1296.0" style="stroke:#010101; fill:none;"/>
	<path d="M 953.0,1295.0 C 953.004,1302.77 952.958,1306.55 946.0,1311.0" style="stroke:#010101; fill:none;"/>
	<path d="M 789.0,1299.0 L 783.0,1300.0 L 786.0,1298.0" style="stroke:#010101; fill:none;"/>
	<path d="M 785.0,1299.0 L 787.0,1301.0" style="stroke:#010101; fill:none;"/>
	<path d="M 962.0,1299.0 L 952.0,1314.0" style="stroke:#010101; fill:none;"/>
	<path d="M 470.0,1301.0 L 471.0,1302.0" style="stroke:#010101; fill:none;"/>
	<path d="M 783.0,1301.0 C 779.865,1304.18 776.842,1306.43 778.0,1311.0 C 780.886,1307.99 783.061,1306.18 782.0,1302.0" style="stroke:#010101; fill:none;"/>
	<path d="M 786.0,1302.0 L 784.0,1304.0" style="stroke:#010101; fill:none;"/>
	<path d="M 925.0,1326.0 C 921.368,1315.57 932.994,1308.58 941.0,1303.0" style="stroke:#010101; fill:none;"/>
	<path d="M 780.0,1304.0 L 782.0,1306.0" style="stroke:#010101; fill:none;"/>
	<path d="M 954.0,1305.0 L 956.0,1305.0" style="stroke:#010101; fill:none;"/>
	<path d="M 778.0,1306.0 L 780.0,1308.0" style="stroke:#010101; fill:none;"/>
	<path d="M 930.0,1306.0 L 932.0,1309.0" style="stroke:#010101; fill:none;"/>
	<path d="M 776.0,1309.0 L 769.0,1318.0" style="stroke:#010101; fill:none;"/>
	<path d="M 774.0,1311.0 L 778.0,1311.0" style="stroke:#010101; fill:none;"/>
	<path d="M 933.0,1312.0 L 935.0,1318.0" style="stroke:#010101; fill:none;"/>
	<path d="M 773.0,1313.0 L 772.0,1318.0" style="stroke:#010101; fill:none;"/>
	<path d="M 919.0,1313.0 L 922.0,1318.0" style="stroke:#010101; fill:none;"/>
	<path d="M 771.0,1314.0 L 773.0,1316.0" style="stroke:#010101; fill:none;"/>
	<path d="M 944.0,1314.0 L 944.0,1317.0" style="stroke:#010101; fill:none;"/>
	<path d="M 1081.0,1320.0 L 1093.0,1317.0" style="stroke:#010101; fill:none;"/>
	<path d="M 728.0,1358.0 L 769.0,1318.0" style="stroke:#010101; fill:none;"/>
	<path d="M 767.0,1319.0 L 770.0,1320.0" style="stroke:#010101; fill:none;"/>
	<path d="M 922.0,1320.0 C 895.274,1346.73 869.937,1380.16 855.001,1415.0 C 850.092,1426.45 841.136,1440.59 845.0,1453.0 L 841.0,1453.0 L 841.0,1458.0 L 844.0,1454.0" style="stroke:#010101; fill:none;"/>
	<path d="M 765.0,1321.0 L 769.0,1321.0" style="stroke:#010101; fill:none;"/>
	<path d="M 763.0,1323.0 L 767.0,1323.0" style="stroke:#010101; fill:none;"/>
	<path d="M 1072.0,1326.0 L 1079.0,1323.0" style="stroke:#010101; fill:none;"/>
	<path d="M 760.0,1326.0 L 765.0,1326.0" style="stroke:#010101; fill:none;"/>
	<path d="M 916.0,1326.0 L 919.0,1332.0" style="stroke:#010101; fill:none;"/>
	<path d="M 758.0,1328.0 L 760.0,1330.0 L 759.0,1331.0 L 757.0,1329.0 L 759.0,1329.0" style="stroke:#010101; fill:none;"/>
	<path d="M 763.0,1328.0 L 761.0,1330.0" style="stroke:#010101; fill:none;"/>
	<path d="M 942.999,1331.25 C 946.947,1330.9 949.247,1335.08 952.17,1336.99 C 954.745,1338.68 959.247,1338.52 960.933,1341.32 C 967.973,1353.0 949.026,1360.8 941.0,1361.2 C 922.699,1362.12 928.085,1332.57 942.999,1331.25" style="stroke:#010101; fill:none;"/>
	<path d="M 1069.0,1330.0 L 1072.0,1330.0" style="stroke:#010101; fill:none;"/>
	<path d="M 755.0,1331.0 L 759.0,1332.0" style="stroke:#010101; fill:none;"/>
	<path d="M 753.0,1333.0 L 755.0,1335.0 L 754.0,1336.0 L 752.0,1334.0 L 754.0,1334.0" style="stroke:#010101; fill:none;"/>
	<path d="M 758.0,1333.0 L 756.0,1335.0" style="stroke:#010101; fill:none;"/>
	<path d="M 912.0,1334.0 L 915.0,1339.0" style="stroke:#010101; fill:none;"/>
	<path d="M 1066.0,1336.0 L 1069.0,1335.0" style="stroke:#010101; fill:none;"/>
	<path d="M 750.0,1336.0 L 754.0,1337.0" style="stroke:#010101; fill:none;"/>
	<path d="M 790.0,1337.0 L 792.0,1338.0" style="stroke:#010101; fill:none;"/>
	<path d="M 753.0,1338.0 L 742.0,1350.0" style="stroke:#010101; fill:none;"/>
	<path d="M 747.0,1339.0 L 750.0,1342.0" style="stroke:#010101; fill:none;"/>
	<path d="M 654.0,1452.0 C 661.884,1438.34 674.91,1426.09 686.0,1415.0 C 717.135,1383.86 751.595,1361.6 789.0,1339.0" style="stroke:#010101; fill:none;"/>
	<path d="M 1062.0,1341.0 L 1067.0,1339.0" style="stroke:#010101; fill:none;"/>
	<path d="M 903.0,1344.0 L 904.0,1349.0" style="stroke:#010101; fill:none;"/>
	<path d="M 1060.0,1347.0 L 1066.0,1345.0" style="stroke:#010101; fill:none;"/>
	<path d="M 1058.0,1350.0 L 1066.0,1351.0" style="stroke:#010101; fill:none;"/>
	<path d="M 788.0,1352.0 C 750.571,1380.77 711.841,1405.61 679.83,1441.0 C 669.854,1452.03 659.605,1462.49 653.0,1476.0" style="stroke:#010101; fill:none;"/>
	<path d="M 1048.0,1356.0 C 1053.96,1353.23 1063.5,1359.4 1069.0,1362.0" style="stroke:#010101; fill:none;"/>
	<path d="M 692.0,1393.0 L 692.0,1391.0 L 689.0,1396.0 L 708.0,1380.05 L 740.0,1357.0" style="stroke:#010101; fill:none;"/>
	<path d="M 1012.0,1364.0 C 996.303,1386.28 970.402,1399.28 947.089,1411.42 C 938.152,1416.07 930.807,1421.04 921.0,1424.59 C 911.546,1428.0 902.014,1430.04 892.0,1430.92 C 888.578,1431.23 881.204,1429.54 878.564,1431.7 C 874.585,1434.95 874.376,1445.25 874.0,1450.0" style="stroke:#010101; fill:none;"/>
	<path d="M 1037.0,1367.0 C 1045.49,1363.28 1056.9,1368.88 1065.0,1372.0" style="stroke:#010101; fill:none;"/>
	<path d="M 896.0,1370.0 C 899.499,1386.96 905.142,1400.72 923.0,1406.9 C 930.152,1409.37 938.314,1408.41 945.0,1412.0" style="stroke:#010101; fill:none;"/>
	<path d="M 1032.0,1373.0 L 1043.0,1370.0" style="stroke:#010101; fill:none;"/>
	<path d="M 1784.0,1371.0 L 1789.0,1419.0" style="stroke:#010101; fill:none;"/>
	<path d="M 1020.0,1379.0 L 1036.0,1378.0" style="stroke:#010101; fill:none;"/>
	<path d="M 764.0,1378.0 C 732.585,1396.53 706.787,1423.8 682.845,1451.0 C 673.764,1461.32 660.964,1473.53 657.0,1487.0" style="stroke:#010101; fill:none;"/>
	<path d="M 890.0,1379.0 L 892.0,1382.0" style="stroke:#010101; fill:none;"/>
	<path d="M 1151.0,1381.0 L 1091.0,1480.0" style="stroke:#010101; fill:none;"/>
	<path d="M 1017.0,1384.0 C 1023.52,1383.62 1029.85,1388.32 1035.0,1392.0" style="stroke:#010101; fill:none;"/>
	<path d="M 699.0,1384.0 L 692.0,1390.0" style="stroke:#010101; fill:none;"/>
	<path d="M 885.0,1385.0 L 880.0,1393.0" style="stroke:#010101; fill:none;"/>
	<path d="M 1014.0,1389.0 L 1019.0,1392.0" style="stroke:#010101; fill:none;"/>
	<path d="M 876.0,1393.0 L 882.0,1406.0" style="stroke:#010101; fill:none;"/>
	<path d="M 1008.0,1395.0 L 1016.0,1395.0" style="stroke:#010101; fill:none;"/>
	<path d="M 689.0,1396.0 L 651.0,1440.0" style="stroke:#010101; fill:none;"/>
	<path d="M 1494.0,1399.0 C 1506.06,1430.49 1521.26,1460.07 1536.74,1490.0 C 1543.34,1502.75 1550.11,1521.19 1561.17,1530.69 C 1593.51,1558.45 1637.91,1555.53 1677.0,1552.0" style="stroke:#010101; fill:none;"/>
	<path d="M 1002.0,1400.0 L 1008.0,1400.0" style="stroke:#010101; fill:none;"/>
	<path d="M 751.0,1401.0 C 723.416,1419.61 696.351,1444.47 676.13,1471.0 C 669.345,1479.9 660.026,1489.63 658.0,1501.0" style="stroke:#010101; fill:none;"/>
	<path d="M 872.0,1401.0 L 878.0,1421.0 L 882.0,1410.0" style="stroke:#010101; fill:none;"/>
	<path d="M 997.0,1402.0 L 1012.0,1413.0" style="stroke:#010101; fill:none;"/>
	<path d="M 765.0,1405.0 C 729.133,1436.24 698.001,1468.27 669.0,1506.0" style="stroke:#010101; fill:none;"/>
	<path d="M 884.0,1406.0 L 886.0,1410.0" style="stroke:#010101; fill:none;"/>
	<path d="M 870.0,1407.0 C 872.762,1423.33 868.064,1441.75 866.0,1458.0" style="stroke:#010101; fill:none;"/>
	<path d="M 1784.0,1407.0 C 1784.95,1429.01 1788.46,1450.83 1786.91,1473.0 C 1784.3,1510.21 1769.25,1541.75 1743.0,1568.0 C 1734.19,1576.81 1725.05,1585.15 1714.0,1591.1 C 1699.36,1598.97 1683.94,1593.48 1669.01,1597.32 C 1658.83,1599.93 1650.88,1611.8 1640.0,1615.0" style="stroke:#010101; fill:none;"/>
	<path d="M 997.0,1410.0 L 1007.0,1428.0" style="stroke:#010101; fill:none;"/>
	<path d="M 991.0,1411.0 L 997.0,1420.0" style="stroke:#010101; fill:none;"/>
	<path d="M 867.0,1412.0 L 868.0,1435.0" style="stroke:#010101; fill:none;"/>
	<path d="M 667.0,1520.0 C 672.054,1507.92 680.588,1497.25 688.576,1487.0 C 709.842,1459.72 738.14,1432.26 769.0,1416.0" style="stroke:#010101; fill:none;"/>
	<path d="M 990.0,1416.0 L 994.0,1426.0" style="stroke:#010101; fill:none;"/>
	<path d="M 979.0,1424.0 L 980.0,1417.0 L 982.0,1422.0" style="stroke:#010101; fill:none;"/>
	<path d="M 878.0,1421.0 L 878.0,1429.0" style="stroke:#010101; fill:none;"/>
	<path d="M 972.0,1423.0 L 973.0,1431.0" style="stroke:#010101; fill:none;"/>
	<path d="M 964.0,1427.0 L 971.0,1448.0" style="stroke:#010101; fill:none;"/>
	<path d="M 861.0,1429.0 L 854.0,1475.0" style="stroke:#010101; fill:none;"/>
	<path d="M 955.0,1429.0 L 956.0,1439.0" style="stroke:#010101; fill:none;"/>
	<path d="M 946.0,1430.0 L 945.0,1439.0" style="stroke:#010101; fill:none;"/>
	<path d="M 866.0,1435.0 L 863.0,1457.0" style="stroke:#010101; fill:none;"/>
	<path d="M 936.0,1436.0 L 935.0,1446.0" style="stroke:#010101; fill:none;"/>
	<path d="M 680.0,1523.0 C 692.601,1504.32 706.846,1487.86 721.714,1471.0 C 731.425,1459.99 742.153,1447.39 755.0,1440.0" style="stroke:#010101; fill:none;"/>
	<path d="M 1086.0,1440.0 L 1051.0,1487.0" style="stroke:#010101; fill:none;"/>
	<path d="M 928.0,1443.0 L 927.0,1450.0" style="stroke:#010101; fill:none;"/>
	<path d="M 908.0,1446.0 L 904.0,1450.0" style="stroke:#010101; fill:none;"/>
	<path d="M 684.0,1530.0 C 687.095,1520.22 695.026,1511.83 701.389,1504.0 C 717.091,1484.69 736.282,1458.32 759.0,1447.0" style="stroke:#010101; fill:none;"/>
	<path d="M 842.0,1450.0 L 842.0,1452.0" style="stroke:#010101; fill:none;"/>
	<path d="M 855.0,1451.0 L 836.0,1503.0" style="stroke:#010101; fill:none;"/>
	<path d="M 849.0,1457.0 L 836.0,1475.0" style="stroke:#010101; fill:none;"/>
	<path d="M 840.0,1459.0 L 837.0,1472.0" style="stroke:#010101; fill:none;"/>
	<path d="M 744.0,1469.0 C 734.345,1478.66 713.09,1496.67 712.0,1511.0 L 726.0,1494.0" style="stroke:#010101; fill:none;"/>
	<path d="M 794.0,1479.0 C 798.131,1489.12 805.006,1488.72 814.0,1484.0" style="stroke:#010101; fill:none;"/>
	<path d="M 1425.0,1545.0 C 1422.56,1534.34 1420.4,1523.78 1423.77,1513.0 C 1429.64,1494.28 1454.81,1475.92 1474.0,1481.0" style="stroke:#010101; fill:none;"/>
	<path d="M 12.0,1484.0 L 51.0,1526.0" style="stroke:#010101; fill:none;"/>
	<path d="M 2043.0,1486.0 L 2035.0,1511.0" style="stroke:#010101; fill:none;"/>
	<path d="M 832.0,1493.0 C 826.576,1499.22 819.82,1504.07 814.17,1510.04 C 807.215,1517.39 800.232,1528.33 790.0,1531.0" style="stroke:#010101; fill:none;"/>
	<path d="M 1025.0,1504.0 L 968.0,1542.0" style="stroke:#010101; fill:none;"/>
	<path d="M 1745.0,1507.0 C 1734.5,1521.44 1726.61,1533.13 1710.0,1541.0" style="stroke:#010101; fill:none;"/>
	<path d="M 43.0,1512.0 L 48.0,1510.0" style="stroke:#010101; fill:none;"/>
	<path d="M 1066.0,1511.0 L 1055.0,1523.0" style="stroke:#010101; fill:none;"/>
	<path d="M 710.0,1512.0 L 703.0,1521.0" style="stroke:#010101; fill:none;"/>
	<path d="M 46.0,1516.0 C 55.691,1520.61 63.3856,1528.77 73.0,1533.74 C 104.546,1550.06 136.794,1560.56 172.0,1565.56 C 178.08,1566.42 182.238,1562.44 188.0,1561.44 C 196.665,1559.95 206.223,1561.0 215.0,1561.0 C 241.405,1561.0 264.836,1567.13 290.0,1574.0" style="stroke:#010101; fill:none;"/>
	<path d="M 43.0,1517.0 C 41.7778,1532.49 42.5331,1550.17 50.8295,1564.0 C 59.1398,1577.85 73.0345,1584.64 85.0,1594.44 C 99.3949,1606.23 111.547,1620.01 122.511,1635.0 C 160.432,1686.84 184.808,1746.75 218.684,1801.0 C 246.096,1844.9 284.202,1886.7 322.0,1921.91 C 348.277,1946.39 377.159,1966.33 408.0,1984.6 C 418.307,1990.71 441.143,1998.36 445.0,2010.0 L 446.0,2006.0" style="stroke:#010101; fill:none;"/>
	<path d="M 2034.0,1517.0 L 2008.96,1542.81 L 1994.35,1556.0 L 1974.55,1608.0 L 1956.52,1637.0 L 1903.37,1704.0 L 1884.0,1730.0 L 1887.0,1728.0" style="stroke:#010101; fill:none;"/>
	<path d="M 2084.0,1519.0 C 2080.55,1530.68 2080.55,1554.32 2084.0,1566.0" style="stroke:#010101; fill:none;"/>
	<path d="M 841.0,1525.0 L 830.0,1553.0" style="stroke:#010101; fill:none;"/>
	<path d="M 781.0,1532.0 C 766.51,1545.22 748.822,1548.55 732.0,1557.0" style="stroke:#010101; fill:none;"/>
	<path d="M 1045.0,1539.0 C 1034.89,1552.27 1020.26,1564.9 1007.0,1575.0" style="stroke:#010101; fill:none;"/>
	<path d="M 829.0,1556.0 C 815.76,1569.52 806.64,1584.6 789.0,1593.0" style="stroke:#010101; fill:none;"/>
	<path d="M 182.0,1564.0 L 202.0,1568.0" style="stroke:#010101; fill:none;"/>
	<path d="M 74.0,1572.0 L 113.0,1585.0 C 109.959,1586.46 109.059,1586.27 108.0,1583.0" style="stroke:#010101; fill:none;"/>
	<path d="M 190.0,1573.0 C 227.8,1602.13 276.34,1606.25 322.0,1601.83 C 329.741,1601.08 336.998,1599.94 344.0,1596.4 C 349.603,1593.56 356.214,1587.8 362.996,1589.33 C 369.828,1590.87 376.163,1600.32 382.0,1604.25 C 393.51,1612.0 407.236,1617.55 417.96,1626.39 C 425.238,1632.39 431.929,1642.66 438.0,1650.0" style="stroke:#010101; fill:none;"/>
	<path d="M 200.0,1576.0 L 198.0,1577.0" style="stroke:#010101; fill:none;"/>
	<path d="M 113.0,1585.0 C 129.093,1585.69 149.012,1580.44 163.0,1590.0 C 149.208,1600.21 123.979,1597.13 110.0,1589.0" style="stroke:#010101; fill:none;"/>
	<path d="M 179.0,1586.0 L 169.0,1591.0 L 175.0,1595.0" style="stroke:#010101; fill:none;"/>
	<path d="M 1441.0,1587.0 C 1441.41,1636.16 1495.68,1668.7 1541.0,1663.0" style="stroke:#010101; fill:none;"/>
	<path d="M 163.0,1590.0 L 168.0,1591.0" style="stroke:#010101; fill:none;"/>
	<path d="M 111.0,1594.0 C 126.259,1611.45 158.92,1615.42 179.0,1602.0" style="stroke:#010101; fill:none;"/>
	<path d="M 1559.0,1631.0 L 1555.0,1630.0 C 1561.6,1620.83 1572.61,1615.13 1580.96,1607.68 C 1583.97,1604.98 1585.37,1599.67 1589.14,1598.15 C 1595.96,1595.4 1605.79,1597.01 1613.0,1597.12 C 1629.0,1597.36 1649.65,1593.46 1665.0,1598.0" style="stroke:#010101; fill:none;"/>
	<path d="M 1694.0,1597.0 C 1690.5,1604.34 1679.89,1610.58 1672.0,1612.0" style="stroke:#010101; fill:none;"/>
	<path d="M 381.0,1598.0 L 382.0,1598.0" style="stroke:#010101; fill:none;"/>
	<path d="M 1605.0,1598.0 C 1600.86,1610.16 1575.45,1623.06 1564.0,1628.0" style="stroke:#010101; fill:none;"/>
	<path d="M 1615.0,1598.0 C 1611.58,1611.1 1591.49,1618.08 1581.0,1625.0" style="stroke:#010101; fill:none;"/>
	<path d="M 1649.0,1598.0 C 1645.83,1606.93 1631.31,1613.42 1623.0,1617.0" style="stroke:#010101; fill:none;"/>
	<path d="M 1571.0,1602.0 C 1557.37,1602.04 1521.46,1612.25 1541.0,1630.0 C 1548.54,1620.54 1557.27,1615.69 1566.96,1608.77 C 1574.63,1603.28 1575.28,1599.46 1586.0,1599.0" style="stroke:#010101; fill:none;"/>
	<path d="M 1632.0,1599.0 C 1626.13,1608.95 1612.02,1615.74 1602.0,1621.0" style="stroke:#010101; fill:none;"/>
	<path d="M 1684.0,1599.0 L 1658.0,1614.0" style="stroke:#010101; fill:none;"/>
	<path d="M 1915.0,1602.0 L 1916.0,1602.0" style="stroke:#010101; fill:none;"/>
	<path d="M 129.0,1603.0 L 130.0,1605.0" style="stroke:#010101; fill:none;"/>
	<path d="M 189.0,1605.0 C 177.607,1613.66 150.077,1622.67 138.0,1611.0" style="stroke:#010101; fill:none;"/>
	<path d="M 1952.0,1613.0 C 1933.71,1638.96 1906.34,1656.5 1886.47,1681.0 C 1872.64,1698.04 1864.85,1723.53 1845.0,1735.0" style="stroke:#010101; fill:none;"/>
	<path d="M 1903.0,1616.0 L 1904.0,1616.0" style="stroke:#010101; fill:none;"/>
	<path d="M 1886.0,1617.0 L 1887.0,1618.0" style="stroke:#010101; fill:none;"/>
	<path d="M 151.0,1618.0 C 162.34,1627.93 175.884,1630.33 190.0,1625.0" style="stroke:#010101; fill:none;"/>
	<path d="M 1892.0,1619.0 L 1892.0,1620.0" style="stroke:#010101; fill:none;"/>
	<path d="M 164.0,1627.0 C 169.601,1638.45 186.255,1637.0 197.0,1637.0" style="stroke:#010101; fill:none;"/>
	<path d="M 1839.0,1629.0 L 1838.0,1630.0" style="stroke:#010101; fill:none;"/>
	<path d="M 1859.0,1629.0 L 1859.0,1630.0" style="stroke:#010101; fill:none;"/>
	<path d="M 1543.0,1631.0 L 1554.0,1631.0" style="stroke:#010101; fill:none;"/>
	<path d="M 291.0,1694.0 C 301.216,1683.56 306.853,1668.86 310.964,1655.0 C 312.495,1649.84 311.882,1639.49 315.742,1635.6 C 319.265,1632.06 328.158,1635.38 332.0,1637.0 L 336.481,1655.0 L 343.0,1684.0" style="stroke:#010101; fill:none;"/>
	<path d="M 332.0,1637.0 C 334.119,1637.07 336.594,1636.88 338.167,1638.6 C 340.357,1641.0 341.09,1645.95 341.996,1649.0 C 344.607,1657.79 350.581,1672.19 347.0,1681.0 L 345.0,1677.0" style="stroke:#010101; fill:none;"/>
	<path d="M 172.0,1638.0 C 179.856,1649.5 189.57,1652.35 201.0,1659.0" style="stroke:#010101; fill:none;"/>
	<path d="M 340.0,1639.0 C 358.752,1639.86 375.209,1658.98 388.0,1671.0" style="stroke:#010101; fill:none;"/>
	<path d="M 319.0,1645.0 L 337.0,1688.0" style="stroke:#010101; fill:none;"/>
	<path d="M 347.0,1647.0 L 358.0,1686.0" style="stroke:#010101; fill:none;"/>
	<path d="M 363.0,1649.0 L 359.0,1653.0 C 363.924,1659.15 366.95,1668.21 368.0,1676.0" style="stroke:#010101; fill:none;"/>
	<path d="M 356.0,1673.0 C 356.0,1666.48 354.642,1658.32 359.0,1653.0" style="stroke:#010101; fill:none;"/>
	<path d="M 1816.0,1655.0 L 1817.0,1659.0" style="stroke:#010101; fill:none;"/>
	<path d="M 181.0,1657.0 C 185.428,1663.48 189.838,1668.26 198.0,1669.0" style="stroke:#010101; fill:none;"/>
	<path d="M 393.0,1660.0 C 415.51,1666.48 432.982,1694.86 436.715,1717.0 C 440.465,1739.24 435.9,1756.07 453.039,1774.0 C 491.607,1814.35 535.533,1852.02 583.0,1881.57 C 609.359,1897.98 637.972,1908.47 665.0,1923.31 C 677.191,1930.01 688.231,1938.67 700.0,1946.0" style="stroke:#010101; fill:none;"/>
	<path d="M 191.0,1668.0 C 192.216,1674.03 196.563,1677.12 201.0,1681.0" style="stroke:#010101; fill:none;"/>
	<path d="M 197.0,1678.0 L 199.0,1680.0" style="stroke:#010101; fill:none;"/>
	<path d="M 198.0,1681.0 C 200.363,1688.4 206.113,1694.17 212.0,1699.0" style="stroke:#010101; fill:none;"/>
	<path d="M 349.0,1681.0 L 347.0,1682.0" style="stroke:#010101; fill:none;"/>
	<path d="M 1989.0,1681.0 C 1991.12,1707.83 1992.95,1738.45 1979.0,1763.0" style="stroke:#010101; fill:none;"/>
	<path d="M 348.0,1683.0 L 345.0,1703.0" style="stroke:#010101; fill:none;"/>
	<path d="M 1796.0,1685.0 L 1797.0,1688.0" style="stroke:#010101; fill:none;"/>
	<path d="M 331.0,1687.0 L 335.0,1703.0" style="stroke:#010101; fill:none;"/>
	<path d="M 424.0,1687.0 C 418.685,1696.17 418.213,1707.7 416.729,1718.0 C 413.766,1738.56 411.0,1759.22 411.0,1780.0" style="stroke:#010101; fill:none;"/>
	<path d="M 327.0,1688.0 L 327.0,1710.0 L 322.0,1707.0" style="stroke:#010101; fill:none;"/>
	<path d="M 330.0,1692.0 L 332.0,1696.0" style="stroke:#010101; fill:none;"/>
	<path d="M 307.0,1704.0 L 304.0,1715.0" style="stroke:#010101; fill:none;"/>
	<path d="M 428.0,1716.0 C 428.0,1745.5 415.045,1777.72 420.0,1807.0" style="stroke:#010101; fill:none;"/>
	<path d="M 432.0,1729.0 L 427.0,1820.0" style="stroke:#010101; fill:none;"/>
	<path d="M 1883.0,1731.0 C 1877.81,1740.69 1868.62,1748.1 1861.09,1755.99 C 1846.76,1770.99 1830.79,1786.6 1814.0,1798.84 C 1804.57,1805.72 1793.71,1810.59 1784.0,1817.09 C 1764.86,1829.91 1747.5,1844.89 1728.0,1857.3 C 1695.3,1878.13 1659.01,1895.56 1624.0,1912.11 C 1600.16,1923.39 1573.86,1927.09 1550.0,1938.49 C 1515.54,1954.94 1493.07,1988.36 1459.0,2005.0" style="stroke:#010101; fill:none;"/>
	<path d="M 1924.0,1732.0 L 1936.0,1736.0" style="stroke:#010101; fill:none;"/>
	<path d="M 1744.0,1734.0 L 1744.0,1736.0" style="stroke:#010101; fill:none;"/>
	<path d="M 1842.0,1739.0 C 1811.33,1767.23 1771.05,1775.52 1738.0,1799.88 C 1707.84,1822.12 1678.28,1845.72 1650.0,1870.28 C 1635.86,1882.56 1622.08,1899.89 1605.0,1908.0" style="stroke:#010101; fill:none;"/>
	<path d="M 1726.0,1754.0 L 1723.0,1755.0" style="stroke:#010101; fill:none;"/>
	<path d="M 237.0,1755.0 C 242.057,1768.81 251.985,1781.71 259.91,1794.0 C 291.351,1842.76 341.741,1887.88 396.0,1909.85 C 414.195,1917.22 434.315,1916.55 453.0,1922.29 C 476.248,1929.43 501.979,1950.51 527.0,1947.83 C 555.042,1944.82 570.442,1909.41 597.0,1901.0" style="stroke:#010101; fill:none;"/>
	<path d="M 440.0,1760.0 L 437.0,1822.0" style="stroke:#010101; fill:none;"/>
	<path d="M 448.0,1771.0 L 447.0,1821.0" style="stroke:#010101; fill:none;"/>
	<path d="M 359.0,1777.0 C 377.654,1817.14 404.618,1850.12 448.0,1864.0" style="stroke:#010101; fill:none;"/>
	<path d="M 456.0,1781.0 L 455.0,1829.0" style="stroke:#010101; fill:none;"/>
	<path d="M 460.0,1789.0 C 464.643,1797.85 465.918,1810.08 466.0,1820.0" style="stroke:#010101; fill:none;"/>
	<path d="M 1850.0,1789.0 L 1875.0,1820.0" style="stroke:#010101; fill:none;"/>
	<path d="M 1973.0,1790.0 C 1925.95,1847.79 1862.63,1902.59 1793.0,1930.69 C 1769.66,1940.11 1745.52,1945.01 1721.0,1950.0 C 1695.78,1955.14 1668.84,1963.27 1643.0,1960.0" style="stroke:#010101; fill:none;"/>
	<path d="M 2021.0,1790.0 L 2017.0,1813.0" style="stroke:#010101; fill:none;"/>
	<path d="M 471.0,1797.0 L 477.0,1811.0" style="stroke:#010101; fill:none;"/>
	<path d="M 2017.0,1822.0 L 2003.17,1849.0 L 2000.0,1858.0" style="stroke:#010101; fill:none;"/>
	<path d="M 1995.0,1843.0 L 1957.0,1897.0 C 1961.75,1897.32 1963.91,1894.34 1962.0,1890.0" style="stroke:#010101; fill:none;"/>
	<path d="M 524.0,1851.0 L 520.0,1854.0 C 527.297,1859.35 538.46,1868.39 548.0,1867.0 L 533.0,1855.0" style="stroke:#010101; fill:none;"/>
	<path d="M 1772.0,1852.0 L 1774.0,1860.0" style="stroke:#010101; fill:none;"/>
	<path d="M 531.0,1874.0 C 521.222,1875.26 512.24,1876.27 503.0,1871.62 C 500.573,1870.4 494.382,1867.12 496.176,1863.51 C 498.358,1859.12 515.262,1855.84 520.0,1854.0" style="stroke:#010101; fill:none;"/>
	<path d="M 1993.0,1858.0 C 1972.75,1888.02 1953.8,1920.5 1930.0,1948.0" style="stroke:#010101; fill:none;"/>
	<path d="M 1587.0,1859.0 L 1583.0,1874.0" style="stroke:#010101; fill:none;"/>
	<path d="M 510.0,1860.0 L 534.0,1871.0" style="stroke:#010101; fill:none;"/>
	<path d="M 1999.0,1861.0 C 1988.72,1884.11 1974.25,1907.22 1957.0,1926.0" style="stroke:#010101; fill:none;"/>
	<path d="M 473.0,1864.0 C 480.838,1868.31 486.869,1864.86 495.0,1863.0" style="stroke:#010101; fill:none;"/>
	<path d="M 1775.0,1863.0 L 1775.0,1867.0" style="stroke:#010101; fill:none;"/>
	<path d="M 1940.0,1943.0 C 1951.72,1924.31 1966.09,1907.36 1978.33,1889.0 C 1983.33,1881.5 1988.93,1868.31 1997.0,1864.0" style="stroke:#010101; fill:none;"/>
	<path d="M 548.0,1867.0 L 557.0,1871.0" style="stroke:#010101; fill:none;"/>
	<path d="M 1994.0,1867.0 L 1996.0,1869.0" style="stroke:#010101; fill:none;"/>
	<path d="M 1775.0,1869.0 L 1776.0,1869.0" style="stroke:#010101; fill:none;"/>
	<path d="M 1748.0,1871.0 L 1748.0,1872.0" style="stroke:#010101; fill:none;"/>
	<path d="M 1776.0,1871.0 L 1776.0,1873.0" style="stroke:#010101; fill:none;"/>
	<path d="M 1747.0,1874.0 L 1741.0,1886.0" style="stroke:#010101; fill:none;"/>
	<path d="M 1965.0,1892.0 L 1975.0,1882.0" style="stroke:#010101; fill:none;"/>
	<path d="M 1561.0,1883.0 L 1559.0,1890.0" style="stroke:#010101; fill:none;"/>
	<path d="M 1972.0,1884.0 L 1974.0,1886.0" style="stroke:#010101; fill:none;"/>
	<path d="M 1543.0,1891.0 L 1543.0,1896.0" style="stroke:#010101; fill:none;"/>
	<path d="M 1886.0,1966.0 C 1910.04,1940.81 1929.06,1910.64 1959.0,1892.0" style="stroke:#010101; fill:none;"/>
	<path d="M 1961.0,1893.0 L 1963.0,1895.0" style="stroke:#010101; fill:none;"/>
	<path d="M 1953.0,1896.0 L 1956.0,1898.0" style="stroke:#010101; fill:none;"/>
	<path d="M 1955.0,1898.0 C 1949.77,1916.36 1932.8,1931.14 1921.0,1946.0" style="stroke:#010101; fill:none;"/>
	<path d="M 1959.0,1900.0 L 1955.0,1904.0" style="stroke:#010101; fill:none;"/>
	<path d="M 1493.0,1901.0 L 1492.0,1902.0" style="stroke:#010101; fill:none;"/>
	<path d="M 1894.0,1967.0 L 1928.84,1929.0 L 1952.0,1904.0" style="stroke:#010101; fill:none;"/>
	<path d="M 1924.0,1915.0 L 1935.0,1909.0" style="stroke:#010101; fill:none;"/>
	<path d="M 1947.0,1910.0 L 1949.0,1912.0" style="stroke:#010101; fill:none;"/>
	<path d="M 1450.0,1918.0 L 1428.0,1955.0" style="stroke:#010101; fill:none;"/>
	<path d="M 1330.0,2061.0 C 1329.9,2024.55 1324.92,1989.74 1336.03,1954.0 C 1338.76,1945.18 1342.13,1926.04 1352.0,1923.0" style="stroke:#010101; fill:none;"/>
	<path d="M 1479.0,1923.0 L 1481.0,1924.0" style="stroke:#010101; fill:none;"/>
	<path d="M 1902.0,1938.0 L 1918.0,1930.0" style="stroke:#010101; fill:none;"/>
	<path d="M 1903.0,1935.0 L 1902.0,1937.0" style="stroke:#010101; fill:none;"/>
	<path d="M 1893.0,1951.0 L 1888.0,1953.0 L 1893.0,1950.0 C 1893.49,1947.21 1893.16,1946.06 1896.0,1947.0 L 1900.0,1940.0" style="stroke:#010101; fill:none;"/>
	<path d="M 1901.0,1941.0 L 1898.0,1946.0" style="stroke:#010101; fill:none;"/>
	<path d="M 1898.0,1942.0 L 1900.0,1944.0" style="stroke:#010101; fill:none;"/>
	<path d="M 1467.0,1945.0 L 1467.0,1947.0" style="stroke:#010101; fill:none;"/>
	<path d="M 1896.0,1948.0 L 1895.0,1949.0" style="stroke:#010101; fill:none;"/>
	<path d="M 1888.0,1953.0 C 1876.88,1964.13 1866.62,1976.94 1851.0,1981.91 C 1839.78,1985.48 1828.27,1982.26 1817.0,1981.17 C 1809.58,1980.45 1802.38,1981.94 1795.0,1982.0" style="stroke:#010101; fill:none;"/>
	<path d="M 1446.0,1959.0 L 1448.0,1962.0" style="stroke:#010101; fill:none;"/>
	<path d="M 1433.0,1978.0 L 1431.0,1984.0" style="stroke:#010101; fill:none;"/>
	<path d="M 1423.0,1985.0 L 1414.0,1998.0" style="stroke:#010101; fill:none;"/>
	<path d="M 448.0,2007.0 C 460.917,2017.61 482.171,2023.65 498.0,2028.74 C 522.435,2036.62 545.626,2039.63 571.0,2042.17 C 597.402,2044.81 626.079,2046.66 652.0,2039.57 C 664.276,2036.22 676.955,2032.42 688.0,2025.91 C 706.367,2015.08 725.922,1997.81 749.0,2000.17 C 765.992,2001.91 779.626,2012.39 793.0,2022.0" style="stroke:#010101; fill:none;"/>
	<path d="M 449.0,2009.0 L 446.0,2010.0" style="stroke:#010101; fill:none;"/>
	<path d="M 725.0,2011.0 C 736.47,2032.78 750.622,2053.62 765.79,2073.0 C 771.35,2080.1 776.801,2090.85 785.0,2095.0 L 784.0,2089.0" style="stroke:#010101; fill:none;"/>
	<path d="M 722.0,2019.0 L 732.0,2028.0" style="stroke:#010101; fill:none;"/>
	<path d="M 712.0,2022.0 L 756.0,2067.0" style="stroke:#010101; fill:none;"/>
	<path d="M 701.0,2028.0 L 714.0,2043.0" style="stroke:#010101; fill:none;"/>
	<path d="M 811.0,2034.0 C 815.832,2048.57 832.397,2060.49 843.0,2071.0 C 873.032,2100.77 906.667,2133.65 942.0,2157.0" style="stroke:#010101; fill:none;"/>
	<path d="M 708.0,2044.0 L 709.0,2045.0" style="stroke:#010101; fill:none;"/>
	<path d="M 769.0,2093.0 L 779.0,2104.0" style="stroke:#010101; fill:none;"/>
	<path d="M 785.0,2095.0 C 821.939,2142.88 868.022,2183.09 914.0,2222.13 C 960.042,2261.23 1006.81,2300.23 1058.0,2332.47 C 1173.55,2405.26 1302.81,2453.62 1434.0,2489.15 C 1486.47,2503.36 1539.37,2516.44 1593.0,2525.44 C 1612.85,2528.77 1632.93,2534.41 1653.0,2536.0" style="stroke:#010101; fill:none;"/>
	<path d="M 2116.0,2107.0 L 2114.0,2109.0" style="stroke:#010101; fill:none;"/>
	<path d="M 2037.0,2123.0 L 2038.0,2135.0" style="stroke:#010101; fill:none;"/>
	<path d="M 2099.0,2125.0 L 2099.0,2127.0" style="stroke:#010101; fill:none;"/>
	<path d="M 805.0,2135.0 C 824.238,2156.08 847.303,2177.71 870.0,2195.0" style="stroke:#010101; fill:none;"/>
	<path d="M 2095.0,2137.0 L 2097.0,2143.0" style="stroke:#010101; fill:none;"/>
	<path d="M 2118.0,2138.0 C 2116.06,2144.92 2109.04,2150.6 2104.42,2156.0 C 2093.36,2168.91 2082.01,2181.97 2070.0,2194.0 C 2053.18,2210.84 2035.09,2228.96 2015.0,2241.91 C 1995.6,2254.41 1972.98,2260.78 1952.0,2269.85 C 1919.54,2283.89 1887.6,2295.18 1853.0,2303.87 C 1827.58,2310.26 1801.2,2314.34 1775.0,2314.99 C 1753.34,2315.52 1731.62,2312.61 1710.0,2314.09 C 1650.54,2318.16 1592.43,2315.71 1533.0,2315.0 C 1485.06,2314.43 1437.5,2317.43 1390.0,2309.92 C 1328.93,2300.26 1270.81,2277.43 1211.0,2262.48 C 1182.06,2255.24 1152.53,2249.88 1124.0,2241.11 C 1103.0,2234.66 1082.68,2226.06 1062.0,2218.69 C 1031.17,2207.71 997.454,2195.59 971.0,2176.0" style="stroke:#010101; fill:none;"/>
	<path d="M 2021.0,2146.0 L 2024.0,2154.0" style="stroke:#010101; fill:none;"/>
	<path d="M 2073.0,2146.0 L 2075.0,2149.0" style="stroke:#010101; fill:none;"/>
	<path d="M 2086.0,2150.0 L 2071.0,2168.0" style="stroke:#010101; fill:none;"/>
	<path d="M 2074.0,2161.0 L 2074.0,2164.0" style="stroke:#010101; fill:none;"/>
	<path d="M 2058.0,2163.0 L 2059.0,2167.0" style="stroke:#010101; fill:none;"/>
	<path d="M 2005.0,2164.0 L 2008.0,2176.0" style="stroke:#010101; fill:none;"/>
	<path d="M 834.0,2172.0 C 909.62,2229.62 982.252,2291.37 1061.0,2345.0" style="stroke:#010101; fill:none;"/>
	<path d="M 2024.0,2189.0 L 2027.0,2198.0" style="stroke:#010101; fill:none;"/>
	<path d="M 1982.0,2207.0 L 1983.0,2214.0" style="stroke:#010101; fill:none;"/>
	<path d="M 2024.0,2214.0 L 2022.0,2221.0" style="stroke:#010101; fill:none;"/>
	<path d="M 1965.0,2220.0 L 1967.0,2228.0" style="stroke:#010101; fill:none;"/>
	<path d="M 2003.0,2223.0 L 1999.0,2240.0" style="stroke:#010101; fill:none;"/>
	<path d="M 1952.0,2230.0 L 1955.0,2239.0" style="stroke:#010101; fill:none;"/>
	<path d="M 1035.0,2232.0 C 1080.17,2256.08 1133.77,2268.83 1182.0,2285.5 C 1275.49,2317.82 1371.53,2347.89 1468.0,2370.0" style="stroke:#010101; fill:none;"/>
	<path d="M 1944.0,2242.0 L 1945.0,2248.0" style="stroke:#010101; fill:none;"/>
	<path d="M 1693.0,2257.0 L 1693.0,2285.0" style="stroke:#010101; fill:none;"/>
	<path d="M 1059.0,2258.0 L 1087.0,2271.0" style="stroke:#010101; fill:none;"/>
	<path d="M 1708.0,2261.0 C 1706.71,2265.47 1704.4,2273.43 1699.0,2273.0" style="stroke:#010101; fill:none;"/>
	<path d="M 1085.0,2268.0 C 1184.22,2301.77 1283.56,2334.02 1385.0,2360.73 C 1412.55,2367.99 1440.24,2374.99 1468.0,2381.4 C 1482.29,2384.69 1497.34,2390.16 1512.0,2391.0" style="stroke:#010101; fill:none;"/>
	<path d="M 1717.0,2268.0 L 1723.0,2270.0" style="stroke:#010101; fill:none;"/>
	<path d="M 1759.0,2268.0 L 1756.0,2272.0" style="stroke:#010101; fill:none;"/>
	<path d="M 1856.0,2270.0 L 1855.0,2278.0" style="stroke:#010101; fill:none;"/>
	<path d="M 1941.0,2271.0 L 1948.0,2271.0" style="stroke:#010101; fill:none;"/>
	<path d="M 1840.0,2276.0 L 1842.0,2274.0" style="stroke:#010101; fill:none;"/>
	<path d="M 1680.0,2276.0 L 1677.0,2279.0" style="stroke:#010101; fill:none;"/>
	<path d="M 1621.0,2282.0 L 1622.0,2287.0" style="stroke:#010101; fill:none;"/>
	<path d="M 1654.0,2282.0 L 1651.0,2285.0" style="stroke:#010101; fill:none;"/>
	<path d="M 964.0,2293.0 C 974.157,2301.79 987.311,2312.35 1000.0,2317.0" style="stroke:#010101; fill:none;"/>
	<path d="M 1539.0,2293.0 L 1536.0,2296.0" style="stroke:#010101; fill:none;"/>
	<path d="M 1611.0,2295.0 L 1608.0,2302.0" style="stroke:#010101; fill:none;"/>
	<path d="M 1591.0,2300.0 L 1591.0,2301.0" style="stroke:#010101; fill:none;"/>
	<path d="M 1499.0,2311.0 L 1499.0,2314.0" style="stroke:#010101; fill:none;"/>
	<path d="M 1205.0,2323.0 C 1239.88,2334.8 1273.7,2349.01 1309.0,2359.79 C 1395.34,2386.17 1485.63,2404.76 1574.0,2423.0" style="stroke:#010101; fill:none;"/>
	<path d="M 1315.0,2376.0 L 1508.0,2423.46 L 1566.0,2435.0" style="stroke:#010101; fill:none;"/>
	<path d="M 1394.0,2417.0 L 1438.0,2430.12 L 1525.0,2448.55 L 1608.0,2462.2 L 1641.0,2469.0" style="stroke:#010101; fill:none;"/>
	<path d="M 1297.0,2422.0 C 1331.76,2431.79 1367.6,2438.04 1403.0,2445.0 C 1422.0,2448.74 1444.28,2455.5 1463.0,2455.0 L 1459.0,2453.0" style="stroke:#010101; fill:none;"/>
	<path d="M 1262.0,2423.0 C 1340.81,2456.12 1429.31,2471.71 1513.0,2487.39 C 1533.33,2491.2 1553.58,2494.94 1574.0,2498.25 C 1582.88,2499.68 1592.39,2499.33 1601.0,2502.0" style="stroke:#010101; fill:none;"/>
	<path d="M 1406.0,2440.0 L 1451.0,2451.0" style="stroke:#010101; fill:none;"/>
	<path d="M 1453.0,2455.0 L 1457.0,2454.0" style="stroke:#010101; fill:none;"/>
	<path d="M 1468.0,2456.0 L 1466.0,2454.0 L 1504.0,2461.74 L 1516.0,2462.0" style="stroke:#010101; fill:none;"/>
	<path d="M 1463.0,2455.0 L 1465.0,2455.0" style="stroke:#010101; fill:none;"/>
	<path d="M 1388.0,2462.0 L 1395.0,2465.0" style="stroke:#010101; fill:none;"/>
	<path d="M 1522.0,2463.0 L 1540.0,2466.0 C 1535.54,2468.26 1524.84,2467.56 1522.0,2463.0" style="stroke:#010101; fill:none;"/>
	<path d="M 1517.0,2464.0 L 1521.0,2464.0" style="stroke:#010101; fill:none;"/>
	<path d="M 1397.0,2466.0 C 1426.4,2475.93 1460.84,2485.66 1492.0,2487.0" style="stroke:#010101; fill:none;"/>
	<path d="M 1540.0,2466.0 L 1587.0,2471.71 L 1631.0,2479.0" style="stroke:#010101; fill:none;"/>
	<path d="M 1546.0,2467.0 L 1539.0,2468.0" style="stroke:#010101; fill:none;"/>
	<path d="M 1547.0,2470.0 L 1589.0,2475.92 L 1624.0,2483.0" style="stroke:#010101; fill:none;"/>
</svg>
