<?xml version="1.0" ?>
<svg baseProfile="full" height="2687" version="1.1" width="2424" xmlns="http://www.w3.org/2000/svg" xmlns:ev="http://www.w3.org/2001/xml-events" xmlns:xlink="http://www.w3.org/1999/xlink">
	<defs/>
	<path d="M 819.0,302.0 L 821.0,301.0" style="stroke:#010101; fill:none;"/>
	<path d="M 1620.0,528.0 C 1615.86,510.601 1615.18,492.555 1610.36,475.0 C 1608.44,468.023 1601.03,459.751 1600.69,453.0 C 1599.9,437.504 1607.82,415.491 1613.23,401.0 C 1621.32,379.352 1648.6,342.153 1675.99,357.417 C 1685.24,362.574 1695.38,378.978 1700.79,388.0 C 1711.86,406.458 1717.88,427.993 1725.43,448.0 C 1737.56,480.18 1750.51,511.833 1765.03,543.0 C 1787.99,592.275 1826.77,637.002 1837.55,691.0 C 1845.25,729.552 1844.28,768.199 1848.17,807.0 C 1849.91,824.326 1857.12,840.354 1857.9,858.0 C 1858.48,871.338 1855.18,884.962 1852.74,898.0 C 1851.69,903.595 1848.82,909.352 1850.0,915.0 L 1852.0,911.0" style="stroke:#010101; fill:none;"/>
	<path d="M 1632.0,663.0 C 1636.91,600.804 1642.28,536.254 1654.6,475.0 C 1659.11,452.605 1667.65,419.253 1687.0,405.0" style="stroke:#010101; fill:none;"/>
	<path d="M 1595.0,426.0 L 1601.0,441.0" style="stroke:#010101; fill:none;"/>
	<path d="M 1711.0,451.0 C 1720.52,480.248 1727.41,510.442 1741.51,538.0 C 1754.55,563.462 1768.55,588.683 1781.89,614.0 C 1793.35,635.769 1805.55,659.247 1808.71,684.0 C 1813.32,720.087 1799.63,753.09 1793.46,788.0 C 1790.55,804.508 1798.43,820.525 1795.67,837.0 C 1793.4,850.614 1782.57,860.998 1773.0,870.0" style="stroke:#010101; fill:none;"/>
	<path d="M 1599.0,457.0 L 1599.0,461.0" style="stroke:#010101; fill:none;"/>
	<path d="M 1601.0,493.0 L 1611.0,525.0" style="stroke:#010101; fill:none;"/>
	<path d="M 1613.0,549.0 L 1608.0,604.0" style="stroke:#010101; fill:none;"/>
	<path d="M 1070.0,828.0 C 1079.58,822.56 1081.29,802.78 1084.34,793.0 C 1091.89,768.778 1097.96,743.62 1104.13,719.0 C 1106.59,709.151 1107.92,693.511 1113.74,685.17 C 1117.44,679.864 1124.11,675.897 1129.0,671.728 C 1141.5,661.067 1154.41,650.905 1168.0,641.656 C 1185.63,629.65 1203.22,614.526 1222.09,604.719 C 1233.05,599.019 1246.7,598.057 1258.0,593.06 C 1283.7,581.7 1306.66,567.851 1331.0,554.0" style="stroke:#010101; fill:none;"/>
	<path d="M 1186.0,685.0 C 1184.59,684.483 1192.52,677.334 1194.39,675.0 C 1201.95,665.55 1213.89,659.334 1223.0,650.917 C 1260.48,616.291 1297.31,577.993 1343.0,554.0" style="stroke:#010101; fill:none;"/>
	<path d="M 1681.0,557.0 C 1721.72,592.235 1741.87,638.96 1757.75,689.0 C 1765.3,712.827 1772.63,745.217 1765.37,769.999 C 1762.73,778.98 1749.4,779.323 1743.0,784.39 C 1731.54,793.471 1729.65,807.282 1729.0,821.0" style="stroke:#010101; fill:none;"/>
	<path d="M 1334.0,570.0 L 1332.0,572.0" style="stroke:#010101; fill:none;"/>
	<path d="M 1326.0,575.0 C 1319.07,581.77 1310.7,585.816 1304.09,593.0 C 1292.71,605.346 1281.12,623.154 1266.0,631.0" style="stroke:#010101; fill:none;"/>
	<path d="M 1312.0,579.0 C 1293.21,597.651 1273.93,618.036 1252.0,633.0" style="stroke:#010101; fill:none;"/>
	<path d="M 1655.0,587.0 C 1648.04,592.309 1643.3,598.188 1642.0,607.0" style="stroke:#010101; fill:none;"/>
	<path d="M 1663.0,589.0 C 1656.62,595.67 1649.66,603.664 1648.0,613.0" style="stroke:#010101; fill:none;"/>
	<path d="M 1190.0,663.0 C 1221.32,637.491 1248.01,609.235 1285.0,592.0" style="stroke:#010101; fill:none;"/>
	<path d="M 1671.0,592.0 C 1663.62,598.738 1655.83,607.212 1653.0,617.0" style="stroke:#010101; fill:none;"/>
	<path d="M 1275.0,594.0 L 1274.0,595.0" style="stroke:#010101; fill:none;"/>
	<path d="M 1256.0,596.0 L 1203.0,638.424 L 1172.0,663.0 L 1175.0,654.0" style="stroke:#010101; fill:none;"/>
	<path d="M 1677.0,597.0 L 1659.0,624.0" style="stroke:#010101; fill:none;"/>
	<path d="M 1685.0,599.0 L 1667.0,622.0" style="stroke:#010101; fill:none;"/>
	<path d="M 1234.0,603.0 C 1196.35,631.725 1155.82,656.269 1122.0,690.0" style="stroke:#010101; fill:none;"/>
	<path d="M 1190.0,614.0 L 1219.0,606.0" style="stroke:#010101; fill:none;"/>
	<path d="M 1545.0,607.0 L 1592.0,683.0" style="stroke:#010101; fill:none;"/>
	<path d="M 1688.0,611.0 L 1675.0,625.0" style="stroke:#010101; fill:none;"/>
	<path d="M 1603.0,616.0 L 1601.0,621.0" style="stroke:#010101; fill:none;"/>
	<path d="M 1197.0,617.0 C 1156.05,640.9 1115.71,666.188 1081.0,698.964 C 1071.9,707.561 1054.74,718.481 1049.7,730.015 C 1046.01,738.467 1045.76,749.927 1044.25,759.0 C 1040.36,782.293 1037.32,805.711 1033.41,829.0 C 1031.47,840.575 1030.18,854.409 1025.0,865.0" style="stroke:#010101; fill:none;"/>
	<path d="M 1697.0,618.0 L 1682.0,630.0" style="stroke:#010101; fill:none;"/>
	<path d="M 1006.0,763.0 C 1052.77,705.372 1115.1,657.817 1178.0,619.0" style="stroke:#010101; fill:none;"/>
	<path d="M 1236.0,623.0 C 1237.77,628.991 1231.95,633.043 1228.0,637.0 C 1219.53,645.487 1208.05,654.966 1203.0,666.0" style="stroke:#010101; fill:none;"/>
	<path d="M 1693.0,632.0 L 1700.0,627.0" style="stroke:#010101; fill:none;"/>
	<path d="M 1705.0,637.0 L 1703.0,639.0" style="stroke:#010101; fill:none;"/>
	<path d="M 1207.0,648.0 L 1210.0,646.0" style="stroke:#010101; fill:none;"/>
	<path d="M 1209.0,649.0 L 1188.0,680.0" style="stroke:#010101; fill:none;"/>
	<path d="M 1186.0,662.0 L 1166.44,699.0 L 1162.0,714.0 L 1185.0,687.0" style="stroke:#010101; fill:none;"/>
	<path d="M 1172.0,663.0 C 1164.15,672.467 1160.24,687.504 1155.95,699.0 C 1147.69,721.161 1137.46,743.974 1132.0,767.0" style="stroke:#010101; fill:none;"/>
	<path d="M 1154.0,667.0 L 1133.66,731.0 L 1106.0,799.0" style="stroke:#010101; fill:none;"/>
	<path d="M 1162.0,671.0 L 1167.0,669.0" style="stroke:#010101; fill:none;"/>
	<path d="M 1196.0,669.0 L 1198.0,671.0" style="stroke:#010101; fill:none;"/>
	<path d="M 1188.0,680.0 L 1185.0,683.0" style="stroke:#010101; fill:none;"/>
	<path d="M 1736.0,680.0 L 1729.0,700.0" style="stroke:#010101; fill:none;"/>
	<path d="M 1729.0,682.0 L 1726.0,692.0" style="stroke:#010101; fill:none;"/>
	<path d="M 1595.0,683.0 C 1605.22,698.503 1612.13,716.61 1620.89,733.0 C 1649.19,785.989 1676.22,841.028 1693.0,899.0" style="stroke:#010101; fill:none;"/>
	<path d="M 1183.0,686.0 L 1183.0,687.0" style="stroke:#010101; fill:none;"/>
	<path d="M 1111.0,687.0 L 1094.0,703.0 L 1094.0,693.0" style="stroke:#010101; fill:none;"/>
	<path d="M 1184.0,689.0 L 1182.0,690.0" style="stroke:#010101; fill:none;"/>
	<path d="M 1131.0,690.0 C 1124.73,720.404 1115.22,750.999 1104.19,780.0 C 1100.06,790.865 1095.88,806.098 1085.0,812.0" style="stroke:#010101; fill:none;"/>
	<path d="M 1743.0,690.0 L 1733.0,718.0" style="stroke:#010101; fill:none;"/>
	<path d="M 1749.0,700.0 C 1743.39,707.72 1732.56,722.117 1734.0,732.0 L 1748.0,711.0" style="stroke:#010101; fill:none;"/>
	<path d="M 1093.0,703.0 L 1083.58,735.0 L 1059.0,832.0" style="stroke:#010101; fill:none;"/>
	<path d="M 1077.0,707.0 L 1058.5,773.0 L 1043.0,857.0" style="stroke:#010101; fill:none;"/>
	<path d="M 1161.0,713.0 L 1138.0,768.0" style="stroke:#010101; fill:none;"/>
	<path d="M 1163.0,714.0 L 1161.0,716.0" style="stroke:#010101; fill:none;"/>
	<path d="M 1052.0,718.0 L 1051.0,725.0" style="stroke:#010101; fill:none;"/>
	<path d="M 1748.0,727.0 L 1739.0,741.0 L 1747.0,741.0" style="stroke:#010101; fill:none;"/>
	<path d="M 1048.0,730.0 L 1043.0,735.0" style="stroke:#010101; fill:none;"/>
	<path d="M 1732.0,732.0 L 1734.0,733.0" style="stroke:#010101; fill:none;"/>
	<path d="M 1731.0,734.0 L 1733.0,735.0" style="stroke:#010101; fill:none;"/>
	<path d="M 1732.0,736.0 L 1731.0,740.0" style="stroke:#010101; fill:none;"/>
	<path d="M 1040.0,738.0 C 1022.25,779.235 1020.0,831.824 1020.0,876.0" style="stroke:#010101; fill:none;"/>
	<path d="M 1738.0,743.0 L 1730.0,758.0" style="stroke:#010101; fill:none;"/>
	<path d="M 1312.0,746.0 C 1322.53,754.917 1322.01,768.481 1321.09,781.0 C 1320.54,788.455 1316.58,796.522 1326.0,799.0" style="stroke:#010101; fill:none;"/>
	<path d="M 1735.0,748.0 L 1735.0,752.0" style="stroke:#010101; fill:none;"/>
	<path d="M 1737.0,750.0 C 1740.58,751.877 1741.56,754.032 1742.0,758.0" style="stroke:#010101; fill:none;"/>
	<path d="M 1290.0,753.0 C 1294.03,770.573 1304.4,791.746 1294.0,809.0 L 1285.0,804.0 C 1287.35,806.351 1292.86,810.213 1292.37,814.0 C 1291.76,818.725 1275.68,834.34 1282.33,838.972 C 1290.23,844.472 1298.1,836.445 1304.0,832.854 C 1309.38,829.583 1325.48,823.472 1324.37,815.0 C 1323.87,811.234 1318.52,807.525 1316.0,805.0 C 1311.07,818.14 1317.62,836.332 1334.0,826.157 C 1351.4,815.346 1370.36,784.155 1367.0,763.0" style="stroke:#010101; fill:none;"/>
	<path d="M 1328.0,753.0 C 1344.92,768.505 1339.14,796.28 1327.0,813.0 L 1316.0,804.0" style="stroke:#010101; fill:none;"/>
	<path d="M 1020.0,755.0 C 1007.36,792.329 1005.0,838.884 1005.0,878.0" style="stroke:#010101; fill:none;"/>
	<path d="M 1272.0,758.0 C 1272.53,770.24 1274.17,789.238 1280.0,800.0 C 1285.79,795.788 1286.17,790.499 1288.0,784.0" style="stroke:#010101; fill:none;"/>
	<path d="M 1740.0,759.0 L 1738.0,762.0" style="stroke:#010101; fill:none;"/>
	<path d="M 1266.0,765.0 L 1266.0,806.0 C 1275.25,806.698 1279.96,816.942 1286.0,823.0" style="stroke:#010101; fill:none;"/>
	<path d="M 1768.0,766.0 L 1767.0,768.0" style="stroke:#010101; fill:none;"/>
	<path d="M 1727.0,772.0 C 1730.92,765.29 1737.52,768.855 1742.0,773.0" style="stroke:#010101; fill:none;"/>
	<path d="M 1764.0,768.0 L 1766.0,771.0" style="stroke:#010101; fill:none;"/>
	<path d="M 1763.0,770.0 L 1763.0,772.0" style="stroke:#010101; fill:none;"/>
	<path d="M 1246.0,776.0 L 1253.0,811.0 C 1263.5,802.125 1261.94,812.947 1266.33,819.0 C 1270.34,824.523 1276.18,829.18 1281.0,834.0" style="stroke:#010101; fill:none;"/>
	<path d="M 1726.0,776.0 L 1719.0,824.0" style="stroke:#010101; fill:none;"/>
	<path d="M 995.0,777.0 L 996.961,834.0 L 1000.0,869.0" style="stroke:#010101; fill:none;"/>
	<path d="M 985.0,781.0 C 981.04,791.575 983.158,804.014 983.911,815.0 C 985.496,838.157 990.166,860.953 992.0,884.0" style="stroke:#010101; fill:none;"/>
	<path d="M 1731.0,781.0 L 1733.0,796.0" style="stroke:#010101; fill:none;"/>
	<path d="M 1720.0,787.0 C 1713.84,801.321 1709.27,820.466 1708.0,836.0" style="stroke:#010101; fill:none;"/>
	<path d="M 1717.0,788.0 C 1704.05,799.345 1691.52,827.58 1698.0,845.0 L 1701.89,828.0 L 1712.0,794.0" style="stroke:#010101; fill:none;"/>
	<path d="M 1200.0,792.0 C 1203.87,796.046 1216.23,809.373 1210.51,815.44 C 1206.73,819.455 1198.73,820.066 1194.0,823.0 L 1195.0,831.0 L 1189.0,815.0" style="stroke:#010101; fill:none;"/>
	<path d="M 1292.0,793.0 L 1296.0,803.0" style="stroke:#010101; fill:none;"/>
	<path d="M 968.0,795.0 C 968.788,833.157 978.957,869.547 984.0,907.0" style="stroke:#010101; fill:none;"/>
	<path d="M 1229.0,795.0 C 1231.58,807.528 1229.06,817.859 1213.0,815.0" style="stroke:#010101; fill:none;"/>
	<path d="M 1293.0,796.0 L 1297.0,796.0" style="stroke:#010101; fill:none;"/>
	<path d="M 1318.0,797.0 L 1317.0,803.0" style="stroke:#010101; fill:none;"/>
	<path d="M 1280.0,800.0 L 1278.0,812.0" style="stroke:#010101; fill:none;"/>
	<path d="M 1281.0,800.0 L 1285.0,804.0" style="stroke:#010101; fill:none;"/>
	<path d="M 1299.0,801.0 C 1306.13,801.001 1309.75,801.921 1315.0,807.0" style="stroke:#010101; fill:none;"/>
	<path d="M 973.0,885.0 C 965.971,866.368 963.327,844.603 960.08,825.0 C 958.994,818.44 955.647,808.746 960.0,803.0" style="stroke:#010101; fill:none;"/>
	<path d="M 1265.0,807.0 L 1265.0,808.0" style="stroke:#010101; fill:none;"/>
	<path d="M 1226.0,845.0 C 1224.35,846.64 1222.75,848.371 1220.98,849.88 C 1219.78,850.899 1218.49,851.986 1217.0,852.562 C 1204.28,857.487 1212.04,838.091 1220.03,839.747 C 1222.44,840.245 1224.29,842.424 1226.0,844.0 C 1233.37,835.683 1227.39,817.51 1235.15,811.599 C 1239.76,808.089 1249.03,807.875 1251.4,814.019 C 1253.28,818.911 1250.09,824.235 1251.64,829.0 C 1255.72,841.541 1270.37,845.957 1281.0,840.0" style="stroke:#010101; fill:none;"/>
	<path d="M 1294.0,809.0 L 1294.0,811.0" style="stroke:#010101; fill:none;"/>
	<path d="M 943.0,810.0 L 970.0,909.0" style="stroke:#010101; fill:none;"/>
	<path d="M 1327.0,814.0 L 1326.0,815.0" style="stroke:#010101; fill:none;"/>
	<path d="M 1732.0,814.0 L 1730.0,816.0" style="stroke:#010101; fill:none;"/>
	<path d="M 1180.0,816.0 C 1182.63,820.6 1183.91,825.356 1190.0,824.0" style="stroke:#010101; fill:none;"/>
	<path d="M 1215.0,817.0 L 1216.0,838.0" style="stroke:#010101; fill:none;"/>
	<path d="M 1733.0,817.0 C 1734.92,821.46 1738.63,825.948 1738.51,831.0 C 1738.2,844.847 1719.03,855.71 1710.0,864.0" style="stroke:#010101; fill:none;"/>
	<path d="M 1192.0,823.0 L 1194.0,823.0" style="stroke:#010101; fill:none;"/>
	<path d="M 1376.0,823.0 L 1328.0,851.0 L 1342.0,866.0 L 1334.0,871.0 L 1317.0,854.0 C 1324.06,855.206 1330.05,864.049 1335.0,869.0" style="stroke:#010101; fill:none;"/>
	<path d="M 1204.0,824.0 C 1204.95,828.148 1207.59,833.746 1206.31,837.999 C 1204.2,844.989 1197.95,843.102 1193.14,846.003 C 1189.48,848.215 1187.04,853.857 1184.0,857.0 C 1175.94,848.862 1177.31,829.519 1163.0,839.0 C 1167.26,843.83 1168.16,846.802 1164.0,852.0 L 1152.0,833.0" style="stroke:#010101; fill:none;"/>
	<path d="M 1185.0,825.0 L 1173.0,835.0" style="stroke:#010101; fill:none;"/>
	<path d="M 1169.0,828.0 L 1174.0,833.0" style="stroke:#010101; fill:none;"/>
	<path d="M 1186.0,829.0 C 1185.45,836.258 1181.51,835.117 1177.0,831.0" style="stroke:#010101; fill:none;"/>
	<path d="M 1195.0,832.0 L 1198.0,844.0" style="stroke:#010101; fill:none;"/>
	<path d="M 1306.0,832.0 L 1338.0,868.0" style="stroke:#010101; fill:none;"/>
	<path d="M 1180.0,835.0 L 1176.0,839.0" style="stroke:#010101; fill:none;"/>
	<path d="M 1187.0,836.0 L 1193.0,845.0" style="stroke:#010101; fill:none;"/>
	<path d="M 1377.0,836.0 L 1368.51,849.334 L 1343.0,866.0" style="stroke:#010101; fill:none;"/>
	<path d="M 1385.0,837.0 L 1378.0,845.0 L 1388.0,837.0" style="stroke:#010101; fill:none;"/>
	<path d="M 1160.0,841.0 L 1163.0,839.0" style="stroke:#010101; fill:none;"/>
	<path d="M 1296.0,840.0 L 1329.0,873.0 L 1321.0,860.0" style="stroke:#010101; fill:none;"/>
	<path d="M 1081.0,933.0 C 1084.67,925.314 1095.16,923.02 1103.0,925.0 L 1101.0,937.0 C 1116.31,932.702 1125.07,917.222 1112.0,906.0 C 1113.64,903.945 1115.14,901.198 1117.26,899.602 C 1130.87,889.346 1138.16,907.743 1149.99,909.231 C 1153.5,909.672 1165.21,902.173 1167.87,899.671 C 1169.57,898.061 1170.76,896.182 1171.6,893.999 C 1176.59,880.989 1165.88,881.038 1158.43,875.972 C 1154.84,873.533 1154.3,866.526 1156.6,863.174 C 1157.98,861.165 1160.19,859.597 1162.0,858.0 L 1151.0,846.0 L 1159.0,841.0" style="stroke:#010101; fill:none;"/>
	<path d="M 1229.0,842.0 C 1233.02,845.531 1239.72,852.828 1245.0,853.778 C 1248.9,854.479 1252.24,850.846 1256.0,851.665 C 1262.37,853.052 1264.95,861.74 1271.0,863.824 C 1278.28,866.331 1291.41,847.218 1295.0,842.0 C 1304.08,851.083 1314.53,867.653 1326.0,873.0" style="stroke:#010101; fill:none;"/>
	<path d="M 1263.0,843.0 L 1256.0,850.0" style="stroke:#010101; fill:none;"/>
	<path d="M 1293.0,845.0 L 1318.0,869.0" style="stroke:#010101; fill:none;"/>
	<path d="M 1150.0,846.0 C 1147.29,850.962 1150.71,860.406 1155.0,864.0" style="stroke:#010101; fill:none;"/>
	<path d="M 1203.0,846.0 L 1209.0,849.0" style="stroke:#010101; fill:none;"/>
	<path d="M 1372.0,848.0 L 1377.0,846.0" style="stroke:#010101; fill:none;"/>
	<path d="M 1163.0,850.0 L 1167.0,847.0" style="stroke:#010101; fill:none;"/>
	<path d="M 1168.0,849.0 L 1176.0,848.0" style="stroke:#010101; fill:none;"/>
	<path d="M 1293.0,848.0 C 1295.59,857.585 1305.28,869.49 1316.0,869.0" style="stroke:#010101; fill:none;"/>
	<path d="M 1061.0,1016.0 C 1061.77,1002.96 1059.2,990.047 1060.09,977.0 C 1062.34,944.104 1075.53,909.895 1099.57,887.767 C 1106.32,881.555 1112.11,874.344 1119.0,868.171 C 1121.27,866.134 1124.63,862.521 1128.0,862.914 C 1132.65,863.454 1137.2,868.615 1142.0,870.0 C 1139.7,860.099 1133.82,853.208 1147.0,849.0" style="stroke:#010101; fill:none;"/>
	<path d="M 1169.0,851.0 L 1182.0,864.0 C 1173.69,869.786 1172.79,889.336 1187.0,885.458 C 1191.96,884.104 1192.73,879.718 1195.65,876.224 C 1201.72,868.962 1204.63,861.997 1210.0,854.0" style="stroke:#010101; fill:none;"/>
	<path d="M 1325.0,852.0 L 1328.0,851.0" style="stroke:#010101; fill:none;"/>
	<path d="M 1164.0,852.0 L 1178.0,866.0" style="stroke:#010101; fill:none;"/>
	<path d="M 1325.0,852.0 L 1340.0,867.0" style="stroke:#010101; fill:none;"/>
	<path d="M 1219.0,853.0 C 1225.58,859.085 1235.37,860.034 1243.0,855.0" style="stroke:#010101; fill:none;"/>
	<path d="M 1321.0,853.0 L 1323.0,853.0" style="stroke:#010101; fill:none;"/>
	<path d="M 1312.0,854.0 L 1317.0,854.0" style="stroke:#010101; fill:none;"/>
	<path d="M 1295.0,855.0 C 1290.59,861.549 1295.96,878.047 1304.02,880.427 C 1310.08,882.22 1316.25,878.308 1322.0,879.738 C 1328.87,881.449 1329.76,887.242 1338.0,887.0 L 1338.0,886.0 L 1333.0,882.0 L 1330.0,886.0" style="stroke:#010101; fill:none;"/>
	<path d="M 1129.0,862.0 L 1136.0,856.0" style="stroke:#010101; fill:none;"/>
	<path d="M 1165.0,856.0 L 1163.0,858.0" style="stroke:#010101; fill:none;"/>
	<path d="M 1184.0,857.0 L 1182.0,863.0 C 1189.77,865.297 1195.48,862.969 1202.0,869.0" style="stroke:#010101; fill:none;"/>
	<path d="M 1153.0,864.0 C 1146.4,870.628 1143.57,877.925 1156.0,877.0" style="stroke:#010101; fill:none;"/>
	<path d="M 1181.0,865.0 L 1194.0,874.0" style="stroke:#010101; fill:none;"/>
	<path d="M 1142.0,870.0 L 1145.0,873.0" style="stroke:#010101; fill:none;"/>
	<path d="M 1333.0,870.0 L 1331.0,872.0" style="stroke:#010101; fill:none;"/>
	<path d="M 1143.0,871.0 C 1135.62,878.376 1127.37,883.724 1130.0,895.0" style="stroke:#010101; fill:none;"/>
	<path d="M 1218.0,872.0 C 1227.73,873.755 1234.65,881.192 1241.17,888.025 C 1244.39,891.393 1248.17,893.276 1246.0,898.0 L 1245.0,893.0" style="stroke:#010101; fill:none;"/>
	<path d="M 1117.0,873.0 L 1124.0,878.0 L 1119.0,883.0 L 1112.0,875.0" style="stroke:#010101; fill:none;"/>
	<path d="M 1325.0,873.0 L 1322.0,877.0" style="stroke:#010101; fill:none;"/>
	<path d="M 1329.0,873.0 L 1333.0,881.0" style="stroke:#010101; fill:none;"/>
	<path d="M 1151.0,878.0 C 1151.0,881.548 1149.51,889.716 1152.6,892.212 C 1157.9,896.486 1166.95,885.045 1170.0,882.0" style="stroke:#010101; fill:none;"/>
	<path d="M 1152.0,878.0 C 1156.1,882.049 1159.08,884.808 1165.0,885.0" style="stroke:#010101; fill:none;"/>
	<path d="M 1124.0,879.0 L 1129.0,886.0" style="stroke:#010101; fill:none;"/>
	<path d="M 1320.0,880.0 C 1322.77,882.963 1325.2,891.072 1328.34,892.687 C 1337.21,897.251 1354.43,891.197 1364.0,891.0" style="stroke:#010101; fill:none;"/>
	<path d="M 1172.0,881.0 L 1174.0,881.0" style="stroke:#010101; fill:none;"/>
	<path d="M 1339.0,885.0 L 1350.0,883.0" style="stroke:#010101; fill:none;"/>
	<path d="M 1119.0,884.0 L 1128.0,891.0" style="stroke:#010101; fill:none;"/>
	<path d="M 1330.0,887.0 L 1328.0,889.0" style="stroke:#010101; fill:none;"/>
	<path d="M 1338.0,887.0 L 1346.0,888.0" style="stroke:#010101; fill:none;"/>
	<path d="M 1097.0,891.0 L 1118.0,898.0" style="stroke:#010101; fill:none;"/>
	<path d="M 1326.0,892.0 C 1318.06,901.342 1314.99,912.221 1309.74,923.0 C 1303.66,935.482 1295.73,947.303 1286.92,958.0 C 1249.92,1002.88 1185.91,1031.31 1130.0,1041.7 C 1113.76,1044.71 1107.85,1054.97 1096.0,1064.77 C 1092.44,1067.71 1084.65,1071.6 1080.06,1069.11 C 1075.62,1066.7 1074.43,1060.07 1072.0,1056.0 L 1073.0,1075.0" style="stroke:#010101; fill:none;"/>
	<path d="M 1350.0,893.0 L 1369.0,895.0" style="stroke:#010101; fill:none;"/>
	<path d="M 1151.0,894.0 C 1150.07,899.863 1145.29,899.895 1141.0,903.0" style="stroke:#010101; fill:none;"/>
	<path d="M 1250.0,898.0 L 1246.0,899.0" style="stroke:#010101; fill:none;"/>
	<path d="M 1250.0,898.0 C 1255.68,905.425 1251.81,908.672 1253.47,916.0 C 1254.22,919.276 1256.71,921.439 1256.93,925.0 C 1259.18,961.988 1224.53,992.338 1189.0,987.711 C 1168.69,985.065 1152.64,972.383 1145.32,953.0 C 1142.42,945.304 1143.75,935.6 1139.0,929.0 C 1146.54,921.024 1146.67,915.761 1139.0,908.0 C 1133.93,914.159 1135.0,921.413 1135.0,929.0 L 1139.0,929.0" style="stroke:#010101; fill:none;"/>
	<path d="M 1334.0,900.0 L 1340.0,898.0" style="stroke:#010101; fill:none;"/>
	<path d="M 1251.0,899.0 L 1247.0,901.0" style="stroke:#010101; fill:none;"/>
	<path d="M 1150.0,900.0 L 1155.0,905.0" style="stroke:#010101; fill:none;"/>
	<path d="M 1096.0,903.0 L 1111.0,905.0" style="stroke:#010101; fill:none;"/>
	<path d="M 1248.0,902.0 C 1249.04,905.904 1250.0,907.881 1254.0,906.0" style="stroke:#010101; fill:none;"/>
	<path d="M 1139.0,904.0 L 1139.0,908.0" style="stroke:#010101; fill:none;"/>
	<path d="M 1113.0,907.0 C 1108.48,912.886 1104.33,922.313 1115.0,924.0" style="stroke:#010101; fill:none;"/>
	<path d="M 1332.0,912.0 L 1341.0,907.0" style="stroke:#010101; fill:none;"/>
	<path d="M 1180.0,927.0 C 1176.65,924.678 1172.76,922.506 1172.4,917.999 C 1171.95,912.479 1177.12,905.254 1182.68,910.448 C 1188.9,916.251 1181.77,922.38 1180.24,928.0 C 1177.27,938.867 1185.21,948.173 1196.0,947.762 C 1208.69,947.279 1215.86,926.425 1206.12,918.126 C 1203.21,915.646 1191.13,919.544 1187.0,920.0" style="stroke:#010101; fill:none;"/>
	<path d="M 1251.0,909.0 L 1253.0,913.0" style="stroke:#010101; fill:none;"/>
	<path d="M 1083.0,918.0 C 1088.28,907.203 1098.33,912.628 1107.0,915.0" style="stroke:#010101; fill:none;"/>
	<path d="M 1257.0,912.0 L 1256.0,919.0" style="stroke:#010101; fill:none;"/>
	<path d="M 1208.0,919.0 C 1220.61,907.344 1228.4,924.464 1212.0,929.0" style="stroke:#010101; fill:none;"/>
	<path d="M 1850.0,915.0 C 1848.14,922.264 1842.8,928.843 1838.64,935.0 C 1825.43,954.554 1798.56,981.069 1774.0,984.699 C 1759.74,986.806 1751.99,981.74 1739.0,978.759 C 1732.34,977.232 1724.06,978.897 1717.0,978.0 C 1720.45,994.49 1727.98,1011.05 1733.5,1027.0 C 1756.53,1093.58 1789.14,1155.34 1814.06,1221.0 C 1824.25,1247.83 1833.14,1273.52 1837.13,1302.0 C 1838.15,1309.3 1840.97,1320.07 1840.0,1327.0 L 1839.0,1324.0" style="stroke:#010101; fill:none;"/>
	<path d="M 1693.0,916.0 C 1703.0,933.196 1711.42,957.656 1716.0,977.0" style="stroke:#010101; fill:none;"/>
	<path d="M 1326.0,920.0 L 1337.0,918.0" style="stroke:#010101; fill:none;"/>
	<path d="M 1109.0,922.0 L 1103.0,925.0" style="stroke:#010101; fill:none;"/>
	<path d="M 1321.0,927.0 L 1330.0,925.0" style="stroke:#010101; fill:none;"/>
	<path d="M 1119.0,927.0 C 1113.75,930.094 1111.88,938.383 1105.0,937.0" style="stroke:#010101; fill:none;"/>
	<path d="M 1120.0,928.0 L 1122.0,937.0 L 1135.0,929.0" style="stroke:#010101; fill:none;"/>
	<path d="M 1112.0,932.0 L 1106.0,938.0" style="stroke:#010101; fill:none;"/>
	<path d="M 1317.0,936.0 L 1315.0,935.0 L 1319.0,933.0" style="stroke:#010101; fill:none;"/>
	<path d="M 976.0,934.0 C 968.783,965.482 965.621,996.613 967.039,1029.0 C 968.06,1052.3 971.519,1075.7 972.0,1099.0" style="stroke:#010101; fill:none;"/>
	<path d="M 1121.0,936.0 L 1109.0,939.0" style="stroke:#010101; fill:none;"/>
	<path d="M 1315.0,936.0 L 1309.0,944.0" style="stroke:#010101; fill:none;"/>
	<path d="M 1083.0,940.0 C 1087.79,936.877 1094.49,936.604 1100.0,938.0" style="stroke:#010101; fill:none;"/>
	<path d="M 1092.0,938.0 L 1087.0,944.0" style="stroke:#010101; fill:none;"/>
	<path d="M 1100.0,938.0 L 1093.69,951.268 L 1079.0,953.0" style="stroke:#010101; fill:none;"/>
	<path d="M 1122.0,938.0 C 1125.91,946.268 1120.45,961.236 1115.0,968.0 C 1111.71,964.433 1101.89,951.107 1095.6,955.132 C 1090.49,958.401 1091.91,977.359 1090.71,983.0 C 1085.32,1008.47 1072.0,1028.93 1072.0,1056.0" style="stroke:#010101; fill:none;"/>
	<path d="M 1110.0,941.0 L 1120.0,955.0" style="stroke:#010101; fill:none;"/>
	<path d="M 1182.0,946.0 C 1178.15,947.995 1176.58,951.976 1172.96,954.243 C 1155.92,964.906 1165.2,927.629 1173.0,946.0" style="stroke:#010101; fill:none;"/>
	<path d="M 1311.0,943.0 L 1316.0,941.0" style="stroke:#010101; fill:none;"/>
	<path d="M 1308.0,950.0 L 1316.0,948.0" style="stroke:#010101; fill:none;"/>
	<path d="M 1090.0,953.0 L 1080.0,961.0" style="stroke:#010101; fill:none;"/>
	<path d="M 1305.0,954.0 L 1312.0,957.0" style="stroke:#010101; fill:none;"/>
	<path d="M 1304.0,957.0 L 1313.0,967.0" style="stroke:#010101; fill:none;"/>
	<path d="M 1290.0,965.0 L 1301.0,968.0" style="stroke:#010101; fill:none;"/>
	<path d="M 1087.0,965.0 L 1091.0,966.0" style="stroke:#010101; fill:none;"/>
	<path d="M 1094.0,968.0 L 1099.0,970.0 L 1093.0,974.0" style="stroke:#010101; fill:none;"/>
	<path d="M 1099.0,969.0 C 1104.03,968.182 1106.93,972.424 1110.0,976.0 L 1115.0,969.0" style="stroke:#010101; fill:none;"/>
	<path d="M 1099.0,971.0 L 1104.0,971.0" style="stroke:#010101; fill:none;"/>
	<path d="M 1107.0,972.0 L 1102.0,973.0" style="stroke:#010101; fill:none;"/>
	<path d="M 1272.0,981.0 C 1278.73,978.378 1282.37,974.206 1290.0,976.0" style="stroke:#010101; fill:none;"/>
	<path d="M 1104.0,976.0 C 1110.67,983.864 1110.87,997.147 1106.0,1006.0" style="stroke:#010101; fill:none;"/>
	<path d="M 1110.0,977.0 L 1108.0,979.0" style="stroke:#010101; fill:none;"/>
	<path d="M 1268.0,985.0 L 1279.0,990.0" style="stroke:#010101; fill:none;"/>
	<path d="M 1255.0,993.0 C 1265.79,992.767 1272.35,996.505 1280.0,1004.0" style="stroke:#010101; fill:none;"/>
	<path d="M 1250.0,1000.0 C 1256.83,1002.64 1261.92,1008.07 1266.0,1014.0" style="stroke:#010101; fill:none;"/>
	<path d="M 1109.0,1004.0 C 1107.05,1026.29 1084.06,1042.44 1084.0,1065.0" style="stroke:#010101; fill:none;"/>
	<path d="M 1242.0,1004.0 L 1245.0,1006.0" style="stroke:#010101; fill:none;"/>
	<path d="M 594.0,1017.0 C 611.977,1022.1 629.714,1029.22 646.0,1038.42 C 653.089,1042.43 661.112,1046.57 665.0,1054.0" style="stroke:#010101; fill:none;"/>
	<path d="M 1220.0,1019.0 L 1227.0,1029.0" style="stroke:#010101; fill:none;"/>
	<path d="M 1060.0,1022.0 L 1056.0,1037.0" style="stroke:#010101; fill:none;"/>
	<path d="M 1215.0,1023.0 L 1223.0,1036.0" style="stroke:#010101; fill:none;"/>
	<path d="M 583.0,1024.0 C 610.1,1030.27 637.518,1044.52 661.0,1059.0" style="stroke:#010101; fill:none;"/>
	<path d="M 1210.0,1028.0 L 1210.0,1031.0" style="stroke:#010101; fill:none;"/>
	<path d="M 1200.0,1030.0 L 1200.0,1033.0" style="stroke:#010101; fill:none;"/>
	<path d="M 574.0,1032.0 C 604.673,1037.28 636.385,1055.1 665.0,1067.0" style="stroke:#010101; fill:none;"/>
	<path d="M 1196.0,1033.0 L 1193.0,1037.0" style="stroke:#010101; fill:none;"/>
	<path d="M 533.0,1034.0 C 552.899,1036.52 575.822,1035.46 594.0,1045.0 C 587.246,1049.27 574.473,1043.93 567.0,1042.0" style="stroke:#010101; fill:none;"/>
	<path d="M 1187.0,1037.0 L 1181.0,1047.0" style="stroke:#010101; fill:none;"/>
	<path d="M 1169.0,1040.0 L 1168.0,1045.0" style="stroke:#010101; fill:none;"/>
	<path d="M 503.0,1045.0 C 511.579,1042.96 523.753,1043.91 532.0,1047.0 L 520.0,1051.0 C 529.504,1057.68 548.577,1057.3 560.0,1059.6 C 585.311,1064.69 614.129,1071.81 637.0,1084.0" style="stroke:#010101; fill:none;"/>
	<path d="M 594.0,1045.0 C 596.529,1047.1 594.589,1048.08 592.0,1048.0 L 592.0,1048.0" style="stroke:#010101; fill:none;"/>
	<path d="M 598.0,1046.0 C 601.591,1048.11 604.323,1051.56 608.039,1053.35 C 624.71,1061.38 645.046,1063.77 659.0,1077.0" style="stroke:#010101; fill:none;"/>
	<path d="M 532.0,1047.0 L 578.0,1051.13 L 603.0,1053.0 L 597.0,1050.0" style="stroke:#010101; fill:none;"/>
	<path d="M 599.0,1047.0 L 599.0,1049.0" style="stroke:#010101; fill:none;"/>
	<path d="M 541.0,1050.0 C 580.284,1057.4 615.218,1070.69 653.0,1083.0" style="stroke:#010101; fill:none;"/>
	<path d="M 501.0,1051.0 L 507.0,1052.0 C 498.067,1057.16 488.541,1056.09 479.0,1058.72 C 448.4,1067.16 414.4,1071.35 385.0,1084.0 L 407.0,1086.0 L 377.0,1094.51 L 325.0,1109.0" style="stroke:#010101; fill:none;"/>
	<path d="M 507.0,1052.0 L 520.0,1051.0" style="stroke:#010101; fill:none;"/>
	<path d="M 470.0,1057.0 L 478.0,1057.0" style="stroke:#010101; fill:none;"/>
	<path d="M 498.0,1058.0 L 592.0,1077.29 L 627.0,1090.0" style="stroke:#010101; fill:none;"/>
	<path d="M 438.0,1064.0 L 451.0,1063.0" style="stroke:#010101; fill:none;"/>
	<path d="M 470.0,1064.0 L 481.0,1066.0 L 448.0,1072.2 L 436.0,1074.0" style="stroke:#010101; fill:none;"/>
	<path d="M 481.0,1066.0 C 523.8,1066.0 577.06,1077.79 616.0,1096.0" style="stroke:#010101; fill:none;"/>
	<path d="M 408.0,1086.0 L 497.0,1072.0" style="stroke:#010101; fill:none;"/>
	<path d="M 402.0,1082.0 L 435.0,1075.0" style="stroke:#010101; fill:none;"/>
	<path d="M 438.0,1077.0 L 441.0,1077.0" style="stroke:#010101; fill:none;"/>
	<path d="M 466.0,1078.0 C 507.358,1078.09 550.801,1086.24 590.0,1099.0" style="stroke:#010101; fill:none;"/>
	<path d="M 374.0,1086.0 L 385.0,1084.0" style="stroke:#010101; fill:none;"/>
	<path d="M 428.0,1085.0 L 430.0,1087.0 L 393.0,1094.63 L 317.0,1119.0" style="stroke:#010101; fill:none;"/>
	<path d="M 431.0,1086.0 C 478.438,1083.96 531.701,1090.27 577.0,1105.0" style="stroke:#010101; fill:none;"/>
	<path d="M 320.0,1107.0 L 386.0,1086.0" style="stroke:#010101; fill:none;"/>
	<path d="M 697.0,1089.0 C 736.735,1096.49 770.018,1114.74 805.0,1134.14 C 817.981,1141.34 832.922,1146.4 845.0,1155.0" style="stroke:#010101; fill:none;"/>
	<path d="M 414.0,1093.0 C 465.058,1093.0 513.552,1094.5 563.0,1108.0" style="stroke:#010101; fill:none;"/>
	<path d="M 311.0,1130.0 C 330.177,1121.44 352.492,1112.04 373.0,1107.6 C 412.607,1099.03 456.941,1101.55 497.0,1105.83 C 519.029,1108.19 545.985,1108.5 566.0,1119.0" style="stroke:#010101; fill:none;"/>
	<path d="M 315.0,1136.0 L 313.0,1139.0 C 331.092,1125.65 355.595,1120.17 377.0,1114.54 C 386.316,1112.1 395.217,1109.2 405.0,1109.0" style="stroke:#010101; fill:none;"/>
	<path d="M 379.0,1115.0 C 393.109,1118.06 409.506,1114.0 424.0,1114.0 C 464.301,1114.0 509.333,1112.8 548.0,1126.0" style="stroke:#010101; fill:none;"/>
	<path d="M 395.0,1115.0 L 396.0,1116.0" style="stroke:#010101; fill:none;"/>
	<path d="M 331.0,1153.0 C 326.585,1155.39 323.379,1150.58 322.0,1147.0 L 354.0,1136.17 L 391.0,1122.0 L 394.0,1117.0" style="stroke:#010101; fill:none;"/>
	<path d="M 385.0,1122.0 L 390.0,1119.0" style="stroke:#010101; fill:none;"/>
	<path d="M 391.0,1122.0 C 423.772,1121.73 455.17,1119.55 488.0,1122.83 C 500.852,1124.12 515.048,1124.71 527.0,1130.0" style="stroke:#010101; fill:none;"/>
	<path d="M 170.0,1122.0 C 170.056,1137.74 187.642,1158.76 195.95,1172.0 C 224.666,1217.76 265.4,1254.82 292.281,1302.0 C 299.264,1314.26 315.93,1331.63 316.0,1346.0 L 317.0,1347.0 L 316.0,1344.0" style="stroke:#010101; fill:none;"/>
	<path d="M 292.0,1153.0 C 322.619,1142.58 352.381,1124.57 385.0,1122.0" style="stroke:#010101; fill:none;"/>
	<path d="M 347.0,1127.0 L 354.0,1127.0" style="stroke:#010101; fill:none;"/>
	<path d="M 357.0,1136.0 L 365.0,1139.0 C 375.005,1132.87 389.647,1134.05 401.0,1132.71 C 436.822,1128.49 478.771,1128.51 514.0,1137.0" style="stroke:#010101; fill:none;"/>
	<path d="M 318.0,1137.0 L 323.0,1136.0" style="stroke:#010101; fill:none;"/>
	<path d="M 365.0,1136.0 L 366.0,1136.0" style="stroke:#010101; fill:none;"/>
	<path d="M 306.0,1140.0 L 312.0,1138.0" style="stroke:#010101; fill:none;"/>
	<path d="M 345.0,1144.0 L 364.0,1139.0" style="stroke:#010101; fill:none;"/>
	<path d="M 347.0,1145.0 C 353.292,1146.5 360.565,1144.65 367.0,1144.18 C 381.679,1143.12 396.306,1141.68 411.0,1141.04 C 447.166,1139.46 481.16,1143.15 517.0,1146.0" style="stroke:#010101; fill:none;"/>
	<path d="M 476.0,1142.0 C 465.227,1147.91 448.051,1145.26 436.0,1146.09 C 414.341,1147.57 392.698,1149.87 371.0,1150.94 C 358.757,1151.54 344.705,1150.04 333.0,1154.0" style="stroke:#010101; fill:none;"/>
	<path d="M 325.0,1150.0 L 344.0,1145.0" style="stroke:#010101; fill:none;"/>
	<path d="M 319.0,1152.0 L 323.0,1152.0 L 317.0,1152.0 L 322.0,1147.0" style="stroke:#010101; fill:none;"/>
	<path d="M 626.0,1147.0 C 623.785,1158.76 622.38,1197.67 644.852,1191.67 C 649.365,1190.46 647.572,1183.44 652.0,1181.0 C 657.652,1190.47 665.01,1188.82 672.0,1182.0 C 665.797,1176.38 658.934,1176.01 652.0,1181.0" style="stroke:#010101; fill:none;"/>
	<path d="M 667.0,1148.0 C 663.588,1157.29 663.776,1166.31 665.0,1176.0" style="stroke:#010101; fill:none;"/>
	<path d="M 244.0,1174.0 L 317.0,1149.0" style="stroke:#010101; fill:none;"/>
	<path d="M 321.0,1149.0 L 321.0,1150.0" style="stroke:#010101; fill:none;"/>
	<path d="M 650.0,1152.0 C 642.277,1164.62 657.24,1159.14 664.0,1164.0" style="stroke:#010101; fill:none;"/>
	<path d="M 313.0,1153.0 L 316.0,1153.0" style="stroke:#010101; fill:none;"/>
	<path d="M 309.0,1171.0 L 305.0,1172.0 L 312.0,1172.0 C 310.466,1166.61 316.829,1166.45 321.0,1165.75 C 332.338,1163.85 343.619,1162.13 355.0,1160.58 C 385.529,1156.41 416.2,1154.0 447.0,1154.0 C 463.372,1154.0 481.302,1153.69 497.0,1159.0" style="stroke:#010101; fill:none;"/>
	<path d="M 330.0,1155.0 L 304.0,1163.88 L 234.0,1184.0" style="stroke:#010101; fill:none;"/>
	<path d="M 596.0,1156.0 C 593.982,1160.12 594.705,1167.05 592.112,1170.44 C 587.375,1176.62 570.032,1172.32 575.84,1185.0 C 576.49,1186.42 577.412,1187.75 578.366,1188.98 C 579.766,1190.78 581.408,1192.37 583.0,1194.0 C 590.845,1186.16 596.685,1183.65 593.0,1172.0" style="stroke:#010101; fill:none;"/>
	<path d="M 694.0,1158.0 C 695.164,1164.99 704.193,1164.78 710.0,1166.0 C 727.428,1169.67 747.206,1175.63 765.0,1176.0" style="stroke:#010101; fill:none;"/>
	<path d="M 606.0,1159.0 L 607.0,1167.0 L 624.0,1165.0" style="stroke:#010101; fill:none;"/>
	<path d="M 857.0,1160.0 C 888.565,1213.51 923.021,1264.31 949.028,1321.0 C 958.075,1340.72 969.53,1361.62 974.0,1383.0" style="stroke:#010101; fill:none;"/>
	<path d="M 649.0,1182.0 C 645.193,1176.85 643.029,1168.01 646.0,1162.0" style="stroke:#010101; fill:none;"/>
	<path d="M 665.0,1162.0 C 668.323,1162.0 673.812,1161.02 676.397,1163.6 C 681.296,1168.5 678.078,1180.24 672.0,1182.0" style="stroke:#010101; fill:none;"/>
	<path d="M 678.0,1163.0 L 694.0,1162.0" style="stroke:#010101; fill:none;"/>
	<path d="M 312.0,1172.0 L 391.0,1164.17 L 458.0,1164.0" style="stroke:#010101; fill:none;"/>
	<path d="M 565.0,1163.0 C 566.347,1168.87 567.614,1176.08 574.0,1178.0" style="stroke:#010101; fill:none;"/>
	<path d="M 646.0,1181.0 C 636.188,1178.34 638.106,1171.65 634.0,1164.0 L 644.0,1163.0" style="stroke:#010101; fill:none;"/>
	<path d="M 625.0,1164.0 L 634.0,1164.0" style="stroke:#010101; fill:none;"/>
	<path d="M 692.0,1164.0 C 692.001,1169.49 695.293,1184.39 686.903,1185.65 C 683.602,1186.15 679.081,1183.14 676.0,1182.0" style="stroke:#010101; fill:none;"/>
	<path d="M 299.0,1167.0 L 310.0,1167.0" style="stroke:#010101; fill:none;"/>
	<path d="M 594.0,1170.0 L 606.0,1168.0" style="stroke:#010101; fill:none;"/>
	<path d="M 609.0,1168.0 L 601.0,1191.0 L 618.0,1192.0 L 610.0,1177.0" style="stroke:#010101; fill:none;"/>
	<path d="M 718.0,1169.0 C 718.383,1173.81 720.823,1179.21 720.387,1183.96 C 720.118,1186.89 717.291,1188.93 718.157,1192.02 C 718.931,1194.78 721.86,1197.31 724.855,1196.76 C 732.567,1195.36 722.347,1188.87 720.0,1188.0" style="stroke:#010101; fill:none;"/>
	<path d="M 417.0,1175.0 C 385.456,1175.0 354.51,1174.17 323.0,1177.17 C 311.62,1178.25 291.266,1184.39 281.0,1179.0 L 305.0,1172.0" style="stroke:#010101; fill:none;"/>
	<path d="M 542.0,1173.0 L 551.0,1191.0 L 570.0,1177.0" style="stroke:#010101; fill:none;"/>
	<path d="M 276.0,1178.0 L 278.0,1181.0 L 265.0,1181.0 C 268.667,1179.63 271.692,1178.59 275.0,1181.0" style="stroke:#010101; fill:none;"/>
	<path d="M 548.0,1179.0 L 555.0,1184.0" style="stroke:#010101; fill:none;"/>
	<path d="M 639.0,1179.0 L 629.0,1185.0" style="stroke:#010101; fill:none;"/>
	<path d="M 680.0,1183.0 L 690.0,1180.0" style="stroke:#010101; fill:none;"/>
	<path d="M 782.0,1180.0 L 791.0,1183.0" style="stroke:#010101; fill:none;"/>
	<path d="M 265.0,1184.0 L 261.0,1182.0 L 265.0,1181.0" style="stroke:#010101; fill:none;"/>
	<path d="M 262.0,1183.0 L 257.0,1185.0 L 261.0,1182.0" style="stroke:#010101; fill:none;"/>
	<path d="M 693.0,1182.0 L 717.0,1189.0" style="stroke:#010101; fill:none;"/>
	<path d="M 222.0,1190.0 L 257.0,1183.0" style="stroke:#010101; fill:none;"/>
	<path d="M 551.0,1184.0 L 548.0,1187.0" style="stroke:#010101; fill:none;"/>
	<path d="M 597.0,1184.0 L 599.0,1184.0" style="stroke:#010101; fill:none;"/>
	<path d="M 696.0,1184.0 L 702.0,1191.0" style="stroke:#010101; fill:none;"/>
	<path d="M 274.0,1195.0 L 296.981,1192.35 L 306.054,1188.14 L 378.0,1185.0" style="stroke:#010101; fill:none;"/>
	<path d="M 629.0,1185.0 L 618.0,1192.0" style="stroke:#010101; fill:none;"/>
	<path d="M 254.0,1186.0 L 256.0,1186.0" style="stroke:#010101; fill:none;"/>
	<path d="M 547.0,1186.0 L 531.0,1198.0 C 522.108,1198.98 510.824,1207.35 504.0,1213.0 C 510.188,1219.71 517.454,1223.86 524.0,1230.04 C 526.989,1232.86 530.349,1237.32 535.0,1236.51 C 544.34,1234.88 552.794,1222.58 560.0,1217.0 C 571.77,1227.79 586.93,1215.33 583.0,1201.0 C 568.737,1205.22 563.373,1198.78 556.0,1188.0" style="stroke:#010101; fill:none;"/>
	<path d="M 655.0,1186.0 L 648.0,1191.0" style="stroke:#010101; fill:none;"/>
	<path d="M 291.0,1192.0 L 302.0,1189.0" style="stroke:#010101; fill:none;"/>
	<path d="M 278.0,1192.0 L 291.0,1190.0" style="stroke:#010101; fill:none;"/>
	<path d="M 294.0,1190.0 L 294.0,1192.0" style="stroke:#010101; fill:none;"/>
	<path d="M 296.0,1190.0 L 296.0,1192.0" style="stroke:#010101; fill:none;"/>
	<path d="M 298.0,1190.0 L 298.0,1192.0" style="stroke:#010101; fill:none;"/>
	<path d="M 257.0,1193.0 L 278.0,1191.0" style="stroke:#010101; fill:none;"/>
	<path d="M 280.0,1191.0 L 280.0,1193.0" style="stroke:#010101; fill:none;"/>
	<path d="M 287.0,1191.0 L 287.0,1193.0" style="stroke:#010101; fill:none;"/>
	<path d="M 601.0,1191.0 L 585.0,1201.0" style="stroke:#010101; fill:none;"/>
	<path d="M 623.0,1191.0 C 627.78,1195.3 630.185,1195.22 635.0,1191.0" style="stroke:#010101; fill:none;"/>
	<path d="M 729.0,1191.0 C 738.289,1193.03 743.54,1201.82 752.001,1205.92 C 757.095,1208.39 761.837,1206.28 767.0,1207.51 C 773.103,1208.97 778.919,1212.47 785.0,1214.28 C 789.133,1215.51 802.125,1216.76 802.94,1222.13 C 803.746,1227.45 795.743,1230.07 792.0,1231.33 C 777.865,1236.11 763.041,1238.89 750.001,1246.51 C 744.098,1249.97 740.045,1255.93 734.961,1260.42 C 719.327,1274.24 704.84,1289.59 688.961,1303.07 C 667.827,1321.0 638.201,1331.75 611.0,1335.7 C 583.882,1339.64 533.393,1337.64 518.788,1309.0 C 515.103,1301.78 526.56,1291.26 521.218,1284.25 C 517.664,1279.59 505.397,1284.39 500.0,1282.4 C 490.235,1278.8 487.146,1266.28 478.0,1262.0 C 475.649,1265.98 473.746,1268.28 469.0,1267.0 C 466.215,1271.46 463.252,1280.35 457.015,1280.96 C 452.335,1281.42 450.889,1275.03 448.363,1272.38 C 444.114,1267.93 436.063,1266.65 431.0,1262.0" style="stroke:#010101; fill:none;"/>
	<path d="M 303.0,1192.0 L 327.0,1192.0" style="stroke:#010101; fill:none;"/>
	<path d="M 530.0,1192.0 L 530.0,1194.0" style="stroke:#010101; fill:none;"/>
	<path d="M 551.0,1192.0 L 564.0,1203.0" style="stroke:#010101; fill:none;"/>
	<path d="M 736.0,1193.0 L 730.0,1199.0 C 734.157,1200.71 736.3,1200.58 740.0,1198.0" style="stroke:#010101; fill:none;"/>
	<path d="M 583.0,1194.0 L 583.0,1201.0" style="stroke:#010101; fill:none;"/>
	<path d="M 613.0,1194.0 C 606.528,1201.35 597.525,1208.65 588.0,1201.0" style="stroke:#010101; fill:none;"/>
	<path d="M 727.0,1197.0 L 729.0,1199.0" style="stroke:#010101; fill:none;"/>
	<path d="M 532.0,1199.0 L 552.0,1221.0" style="stroke:#010101; fill:none;"/>
	<path d="M 499.0,1201.0 L 504.0,1212.0 C 489.014,1224.2 484.251,1241.18 473.066,1255.75 C 470.771,1258.74 465.116,1259.19 462.0,1262.0 L 446.0,1245.0" style="stroke:#010101; fill:none;"/>
	<path d="M 667.0,1202.0 C 702.685,1216.94 708.713,1261.12 684.471,1289.91 C 669.244,1307.99 629.96,1315.92 609.0,1305.18 C 586.671,1293.73 578.725,1272.47 579.004,1249.0 C 579.128,1238.53 587.632,1227.33 580.0,1219.0" style="stroke:#010101; fill:none;"/>
	<path d="M 563.0,1203.0 L 560.0,1216.0" style="stroke:#010101; fill:none;"/>
	<path d="M 456.0,1219.0 C 458.12,1230.93 467.089,1239.91 477.0,1246.0" style="stroke:#010101; fill:none;"/>
	<path d="M 623.997,1221.8 C 630.155,1221.14 629.957,1228.69 634.225,1230.88 C 637.754,1232.69 642.084,1229.16 645.415,1231.9 C 659.701,1243.65 650.754,1264.32 633.044,1265.46 C 629.365,1265.7 617.82,1253.61 618.667,1249.99 C 619.463,1246.58 624.564,1243.62 624.079,1240.17 C 623.46,1235.76 609.359,1223.36 623.997,1221.8" style="stroke:#010101; fill:none;"/>
	<path d="M 649.0,1237.0 C 650.003,1234.98 650.911,1232.83 652.42,1231.13 C 661.822,1220.5 670.652,1241.15 654.0,1243.0" style="stroke:#010101; fill:none;"/>
	<path d="M 633.0,1231.0 L 626.0,1238.0" style="stroke:#010101; fill:none;"/>
	<path d="M 449.0,1234.0 C 451.807,1244.16 459.355,1250.38 467.0,1257.0" style="stroke:#010101; fill:none;"/>
	<path d="M 499.0,1234.0 C 505.065,1239.8 519.374,1248.46 521.183,1257.0 C 521.872,1260.25 519.145,1263.03 518.347,1266.0 C 517.088,1270.68 518.133,1276.33 519.0,1281.0" style="stroke:#010101; fill:none;"/>
	<path d="M 370.0,1410.0 C 378.454,1427.77 395.992,1443.72 407.382,1460.0 C 445.731,1514.81 488.159,1564.99 530.001,1617.0 C 543.098,1633.28 556.567,1649.23 570.282,1665.0 C 572.854,1667.96 583.906,1677.21 581.168,1681.56 C 576.179,1689.5 556.225,1672.8 552.0,1669.62 C 532.607,1655.05 520.578,1635.02 503.826,1618.1 C 496.947,1611.16 487.066,1608.48 480.285,1600.99 C 455.934,1574.06 430.161,1549.08 408.039,1520.0 C 378.31,1480.92 352.918,1438.51 319.83,1402.0 C 310.235,1391.41 298.016,1384.39 286.985,1375.54 C 268.11,1360.41 248.282,1342.17 232.285,1324.0 C 218.035,1307.81 201.312,1285.13 199.17,1263.0 C 197.436,1245.08 208.924,1231.46 228.0,1236.0" style="stroke:#010101; fill:none;"/>
	<path d="M 531.0,1237.0 L 522.0,1255.0" style="stroke:#010101; fill:none;"/>
	<path d="M 435.0,1245.0 C 435.199,1254.34 440.587,1260.22 445.0,1268.0" style="stroke:#010101; fill:none;"/>
	<path d="M 480.0,1247.0 L 503.0,1253.03 L 517.0,1266.0" style="stroke:#010101; fill:none;"/>
	<path d="M 494.0,1252.0 L 485.0,1267.0" style="stroke:#010101; fill:none;"/>
	<path d="M 612.0,1256.0 C 616.9,1259.18 618.18,1269.36 609.988,1269.36 C 604.947,1269.36 601.451,1262.11 604.527,1258.23 C 607.058,1255.04 613.302,1253.53 617.0,1252.0" style="stroke:#010101; fill:none;"/>
	<path d="M 618.0,1255.0 L 616.0,1257.0" style="stroke:#010101; fill:none;"/>
	<path d="M 477.0,1261.0 L 472.0,1259.0 L 469.0,1266.0" style="stroke:#010101; fill:none;"/>
	<path d="M 476.0,1261.0 L 471.0,1268.0" style="stroke:#010101; fill:none;"/>
	<path d="M 463.0,1262.0 L 467.0,1265.0" style="stroke:#010101; fill:none;"/>
	<path d="M 419.0,1267.0 C 420.417,1277.24 436.44,1281.09 435.793,1290.01 C 435.305,1296.73 428.551,1294.49 425.001,1291.74 C 418.119,1286.4 411.327,1278.81 410.0,1270.0" style="stroke:#010101; fill:none;"/>
	<path d="M 429.0,1269.0 C 435.983,1274.8 443.712,1286.67 453.0,1280.0" style="stroke:#010101; fill:none;"/>
	<path d="M 475.0,1270.0 C 483.008,1272.09 488.341,1279.34 494.0,1285.0 C 491.883,1286.98 486.076,1290.12 485.631,1293.13 C 485.052,1297.05 491.599,1301.54 493.961,1304.0 C 502.527,1312.92 506.779,1319.11 517.0,1309.0" style="stroke:#010101; fill:none;"/>
	<path d="M 459.0,1281.0 L 470.0,1285.02 L 484.0,1293.0" style="stroke:#010101; fill:none;"/>
	<path d="M 443.0,1282.0 L 437.0,1284.0" style="stroke:#010101; fill:none;"/>
	<path d="M 498.0,1282.0 L 495.0,1285.0" style="stroke:#010101; fill:none;"/>
	<path d="M 463.0,1284.0 C 458.603,1290.11 458.901,1300.9 461.0,1308.0 C 471.957,1304.29 473.507,1302.5 480.0,1293.0" style="stroke:#010101; fill:none;"/>
	<path d="M 433.0,1285.0 L 426.0,1292.0" style="stroke:#010101; fill:none;"/>
	<path d="M 404.0,1289.0 C 406.654,1302.72 425.864,1311.19 438.0,1314.78 C 442.451,1316.09 452.616,1313.65 450.079,1307.0 C 447.806,1301.04 440.314,1298.9 436.0,1295.0" style="stroke:#010101; fill:none;"/>
	<path d="M 224.0,1291.0 L 308.83,1354.43 L 327.0,1372.0 C 330.19,1362.57 318.687,1355.81 313.634,1349.39 C 299.62,1331.58 283.287,1312.62 272.0,1293.0" style="stroke:#010101; fill:none;"/>
	<path d="M 259.0,1295.0 L 297.0,1339.0" style="stroke:#010101; fill:none;"/>
	<path d="M 719.0,1302.0 L 723.0,1312.0" style="stroke:#010101; fill:none;"/>
	<path d="M 287.0,1303.0 C 291.344,1317.77 304.967,1332.62 314.0,1345.0" style="stroke:#010101; fill:none;"/>
	<path d="M 708.0,1307.0 L 712.0,1317.0" style="stroke:#010101; fill:none;"/>
	<path d="M 414.0,1308.0 L 416.0,1308.0 L 414.0,1308.0" style="stroke:#010101; fill:none;"/>
	<path d="M 452.0,1309.0 L 459.0,1308.0" style="stroke:#010101; fill:none;"/>
	<path d="M 415.0,1309.0 C 418.93,1316.29 427.513,1319.43 434.0,1314.0" style="stroke:#010101; fill:none;"/>
	<path d="M 702.0,1309.0 L 704.0,1315.0" style="stroke:#010101; fill:none;"/>
	<path d="M 692.0,1310.0 L 693.0,1316.0" style="stroke:#010101; fill:none;"/>
	<path d="M 515.0,1312.0 C 522.905,1319.94 523.194,1325.56 517.0,1335.0 L 507.0,1325.0 C 506.92,1330.38 511.829,1335.12 517.0,1336.0" style="stroke:#010101; fill:none;"/>
	<path d="M 685.0,1316.0 L 685.0,1317.0" style="stroke:#010101; fill:none;"/>
	<path d="M 507.0,1317.0 C 504.164,1323.06 498.83,1325.01 494.039,1329.21 C 479.841,1341.64 468.233,1352.56 448.0,1347.0" style="stroke:#010101; fill:none;"/>
	<path d="M 507.0,1320.0 L 519.0,1330.0" style="stroke:#010101; fill:none;"/>
	<path d="M 507.0,1322.0 L 507.0,1325.0" style="stroke:#010101; fill:none;"/>
	<path d="M 673.0,1322.0 L 674.0,1328.0" style="stroke:#010101; fill:none;"/>
	<path d="M 665.0,1327.0 L 665.0,1332.0" style="stroke:#010101; fill:none;"/>
	<path d="M 1843.0,1327.0 C 1857.48,1372.12 1879.12,1414.75 1902.14,1456.0 C 1924.41,1495.9 1948.54,1536.36 1981.09,1568.91 C 2024.74,1612.56 2078.23,1644.1 2132.0,1673.31 C 2167.43,1692.56 2204.69,1715.36 2244.0,1725.84 C 2274.08,1733.86 2304.58,1728.64 2335.0,1729.0 C 2364.26,1729.35 2393.72,1734.92 2423.0,1735.0" style="stroke:#010101; fill:none;"/>
	<path d="M 494.0,1329.0 L 503.0,1338.0 L 506.0,1331.0 L 516.0,1337.0" style="stroke:#010101; fill:none;"/>
	<path d="M 506.0,1330.0 L 506.0,1331.0" style="stroke:#010101; fill:none;"/>
	<path d="M 1837.0,1330.0 C 1836.68,1368.53 1836.6,1408.75 1831.71,1447.0 C 1827.81,1477.61 1819.26,1507.81 1813.0,1538.0 C 1806.17,1570.99 1800.54,1605.28 1788.95,1637.0 C 1784.22,1649.94 1776.72,1660.7 1770.89,1673.0 C 1749.43,1718.32 1725.37,1762.52 1704.31,1808.0 C 1685.05,1849.6 1663.88,1892.62 1631.96,1926.0 C 1624.36,1933.95 1610.49,1953.91 1599.0,1955.0" style="stroke:#010101; fill:none;"/>
	<path d="M 649.0,1335.0 L 650.0,1341.0" style="stroke:#010101; fill:none;"/>
	<path d="M 657.0,1335.0 L 657.0,1340.0" style="stroke:#010101; fill:none;"/>
	<path d="M 313.0,1337.0 L 311.0,1339.0" style="stroke:#010101; fill:none;"/>
	<path d="M 503.0,1338.0 C 500.879,1350.33 492.576,1365.22 482.0,1372.0 L 480.0,1368.0 L 470.0,1373.0" style="stroke:#010101; fill:none;"/>
	<path d="M 643.0,1338.0 L 642.0,1342.0" style="stroke:#010101; fill:none;"/>
	<path d="M 315.0,1340.0 L 313.0,1342.0" style="stroke:#010101; fill:none;"/>
	<path d="M 625.0,1342.0 L 621.0,1355.0" style="stroke:#010101; fill:none;"/>
	<path d="M 634.0,1342.0 L 634.0,1343.0" style="stroke:#010101; fill:none;"/>
	<path d="M 316.0,1346.0 L 313.0,1349.0" style="stroke:#010101; fill:none;"/>
	<path d="M 319.0,1346.0 C 321.525,1349.28 322.251,1351.01 321.0,1355.0 L 322.0,1356.0 L 324.0,1354.0" style="stroke:#010101; fill:none;"/>
	<path d="M 304.0,1347.0 L 307.0,1351.0" style="stroke:#010101; fill:none;"/>
	<path d="M 320.0,1347.0 L 315.0,1350.0" style="stroke:#010101; fill:none;"/>
	<path d="M 614.0,1358.0 L 619.0,1347.0" style="stroke:#010101; fill:none;"/>
	<path d="M 318.0,1349.0 L 321.0,1355.0" style="stroke:#010101; fill:none;"/>
	<path d="M 542.0,1349.0 L 534.0,1357.0" style="stroke:#010101; fill:none;"/>
	<path d="M 607.0,1354.0 L 612.0,1350.0" style="stroke:#010101; fill:none;"/>
	<path d="M 599.0,1351.0 L 592.0,1365.0" style="stroke:#010101; fill:none;"/>
	<path d="M 548.0,1353.0 L 544.0,1362.0" style="stroke:#010101; fill:none;"/>
	<path d="M 585.0,1353.0 L 578.0,1372.0" style="stroke:#010101; fill:none;"/>
	<path d="M 592.0,1353.0 L 582.0,1368.0" style="stroke:#010101; fill:none;"/>
	<path d="M 324.0,1355.0 L 326.0,1361.0 L 326.0,1361.0" style="stroke:#010101; fill:none;"/>
	<path d="M 323.0,1358.0 L 325.0,1358.0" style="stroke:#010101; fill:none;"/>
	<path d="M 561.0,1356.0 L 556.0,1370.0" style="stroke:#010101; fill:none;"/>
	<path d="M 576.0,1356.0 L 567.0,1376.0" style="stroke:#010101; fill:none;"/>
	<path d="M 555.0,1358.0 L 551.0,1367.0" style="stroke:#010101; fill:none;"/>
	<path d="M 321.0,1359.0 L 322.0,1360.0" style="stroke:#010101; fill:none;"/>
	<path d="M 328.0,1360.0 L 365.0,1408.0" style="stroke:#010101; fill:none;"/>
	<path d="M 476.0,1364.0 C 481.491,1362.17 485.779,1359.55 491.0,1363.0" style="stroke:#010101; fill:none;"/>
	<path d="M 322.0,1361.0 L 323.0,1362.0" style="stroke:#010101; fill:none;"/>
	<path d="M 484.0,1362.0 L 488.0,1368.0" style="stroke:#010101; fill:none;"/>
	<path d="M 323.0,1363.0 L 324.0,1364.0" style="stroke:#010101; fill:none;"/>
	<path d="M 331.0,1364.0 L 328.0,1367.0" style="stroke:#010101; fill:none;"/>
	<path d="M 484.0,1365.0 L 485.0,1370.0" style="stroke:#010101; fill:none;"/>
	<path d="M 481.0,1367.0 L 482.0,1367.0" style="stroke:#010101; fill:none;"/>
	<path d="M 328.0,1371.0 C 329.196,1373.24 329.242,1373.2 327.0,1372.0" style="stroke:#010101; fill:none;"/>
	<path d="M 331.0,1373.0 L 348.0,1393.0" style="stroke:#010101; fill:none;"/>
	<path d="M 473.0,1373.0 L 481.0,1372.0" style="stroke:#010101; fill:none;"/>
	<path d="M 329.0,1375.0 L 332.0,1375.0" style="stroke:#010101; fill:none;"/>
	<path d="M 332.0,1377.0 L 335.0,1381.0" style="stroke:#010101; fill:none;"/>
	<path d="M 1302.0,1399.0 C 1326.42,1439.45 1294.99,1489.76 1256.0,1506.0" style="stroke:#010101; fill:none;"/>
	<path d="M 1253.0,1472.0 L 1267.0,1447.0 L 1278.0,1447.0 C 1279.36,1453.65 1274.37,1458.51 1269.99,1463.0 C 1259.88,1473.36 1248.29,1483.32 1236.0,1491.0" style="stroke:#010101; fill:none;"/>
	<path d="M 1229.0,1495.0 L 1248.8,1462.0 L 1256.5,1449.03 L 1266.0,1448.0" style="stroke:#010101; fill:none;"/>
	<path d="M 972.0,1449.0 C 967.797,1471.64 966.127,1495.01 966.0,1518.0" style="stroke:#010101; fill:none;"/>
	<path d="M 1214.0,1500.0 C 1220.71,1489.04 1228.06,1478.59 1235.34,1468.0 C 1238.8,1462.97 1243.55,1458.42 1242.0,1452.0 L 1255.0,1449.0" style="stroke:#010101; fill:none;"/>
	<path d="M 1204.0,1500.0 C 1210.61,1489.23 1218.34,1479.37 1225.51,1469.0 C 1228.68,1464.41 1233.43,1460.74 1231.0,1455.0 L 1242.0,1452.0" style="stroke:#010101; fill:none;"/>
	<path d="M 1197.0,1503.0 C 1199.07,1491.01 1207.67,1480.1 1213.98,1470.0 C 1216.02,1466.73 1216.46,1462.09 1219.24,1459.42 C 1222.24,1456.53 1227.03,1455.59 1231.0,1455.0" style="stroke:#010101; fill:none;"/>
	<path d="M 1193.0,1533.0 C 1183.71,1531.52 1185.56,1519.13 1186.75,1512.0 C 1189.61,1495.02 1199.52,1469.68 1216.0,1462.0" style="stroke:#010101; fill:none;"/>
	<path d="M 1513.0,1531.0 C 1504.36,1539.64 1499.6,1550.04 1491.67,1558.96 C 1485.64,1565.75 1476.61,1568.66 1470.16,1576.0 C 1447.94,1601.26 1428.72,1629.98 1404.0,1652.91 C 1390.13,1665.78 1371.39,1670.18 1357.0,1681.14 C 1331.65,1700.43 1309.77,1724.15 1283.0,1741.56 C 1254.17,1760.32 1220.92,1767.51 1189.0,1778.76 C 1174.91,1783.73 1163.31,1795.43 1149.0,1800.77 C 1127.94,1808.64 1107.94,1808.08 1086.0,1809.04 C 1077.54,1809.41 1069.61,1812.0 1061.0,1812.0" style="stroke:#010101; fill:none;"/>
	<path d="M 965.0,1535.0 C 968.396,1548.13 970.211,1561.93 976.865,1574.0 C 993.94,1604.98 1026.66,1613.87 1059.0,1608.0" style="stroke:#010101; fill:none;"/>
	<path d="M 1218.0,1537.0 C 1203.25,1559.3 1187.05,1569.52 1162.0,1578.0" style="stroke:#010101; fill:none;"/>
	<path d="M 1453.0,1548.0 C 1416.33,1579.73 1367.98,1597.52 1328.0,1624.75 C 1307.3,1638.84 1292.42,1662.39 1269.0,1672.0" style="stroke:#010101; fill:none;"/>
	<path d="M 1054.0,1574.0 L 1054.0,1564.0 L 1065.0,1561.0 C 1062.2,1565.83 1055.49,1579.57 1064.0,1581.0" style="stroke:#010101; fill:none;"/>
	<path d="M 1065.0,1561.0 C 1081.74,1562.83 1095.88,1576.03 1112.0,1580.79 C 1127.24,1585.3 1141.8,1580.93 1157.0,1579.0" style="stroke:#010101; fill:none;"/>
	<path d="M 1058.0,1581.0 C 1054.17,1580.7 1047.35,1580.93 1044.36,1578.26 C 1038.65,1573.15 1049.91,1565.39 1054.0,1564.0" style="stroke:#010101; fill:none;"/>
	<path d="M 1070.0,1564.0 L 1068.0,1574.0" style="stroke:#010101; fill:none;"/>
	<path d="M 1081.0,1569.0 L 1081.0,1574.0" style="stroke:#010101; fill:none;"/>
	<path d="M 1480.0,1674.0 C 1471.89,1709.05 1453.59,1751.93 1426.0,1776.0" style="stroke:#010101; fill:none;"/>
	<path d="M 1263.0,1679.0 C 1246.22,1687.94 1226.68,1694.25 1208.0,1697.74 C 1195.5,1700.07 1180.5,1699.46 1169.0,1705.13 C 1134.89,1721.97 1111.13,1758.8 1085.0,1785.0" style="stroke:#010101; fill:none;"/>
	<path d="M 583.0,1680.0 L 682.0,1776.0 L 680.0,1768.0" style="stroke:#010101; fill:none;"/>
	<path d="M 2072.0,1705.0 C 2050.0,1720.82 2032.73,1745.9 2016.0,1767.0 C 1991.44,1797.97 1967.46,1829.45 1945.03,1862.0 C 1931.87,1881.08 1920.11,1901.65 1906.0,1920.0" style="stroke:#010101; fill:none;"/>
	<path d="M 2006.0,1750.0 L 1979.5,1786.0 L 1923.0,1881.0" style="stroke:#010101; fill:none;"/>
	<path d="M 684.0,1774.0 L 692.0,1784.0 L 689.0,1780.0" style="stroke:#010101; fill:none;"/>
	<path d="M 687.0,1777.0 L 687.0,1781.0" style="stroke:#010101; fill:none;"/>
	<path d="M 684.0,1778.0 L 685.0,1779.0" style="stroke:#010101; fill:none;"/>
	<path d="M 1422.0,1781.0 C 1393.4,1804.29 1366.1,1828.77 1333.0,1845.74 C 1279.7,1873.06 1222.19,1873.37 1165.0,1861.0" style="stroke:#010101; fill:none;"/>
	<path d="M 692.0,1784.0 C 768.034,1859.4 847.799,1935.2 943.0,1986.69 C 980.514,2006.98 1018.84,2018.43 1059.0,2031.52 C 1124.33,2052.81 1189.54,2068.54 1258.0,2075.17 C 1285.06,2077.79 1311.92,2081.91 1339.0,2084.09 C 1343.45,2084.45 1347.52,2086.76 1352.0,2086.82 C 1401.62,2087.43 1453.64,2068.12 1497.0,2045.74 C 1537.87,2024.64 1569.91,1989.09 1602.0,1957.0" style="stroke:#010101; fill:none;"/>
	<path d="M 1936.0,1903.0 C 1929.26,1913.63 1926.99,1927.88 1924.12,1940.0 C 1919.22,1960.6 1914.76,1981.3 1910.34,2002.0 C 1897.09,2064.11 1882.03,2130.22 1855.0,2188.0" style="stroke:#010101; fill:none;"/>
	<path d="M 1227.0,2077.0 C 1254.24,2109.82 1279.42,2144.62 1304.76,2179.0 C 1320.19,2199.95 1336.71,2219.34 1346.09,2244.0 C 1359.69,2279.77 1356.67,2318.37 1354.09,2356.0 C 1351.6,2392.28 1350.34,2425.9 1338.65,2461.0 C 1331.92,2481.18 1320.15,2499.23 1310.42,2518.0 C 1279.93,2576.87 1242.93,2630.9 1208.0,2687.0" style="stroke:#010101; fill:none;"/>
	<path d="M 1411.0,2333.0 C 1419.84,2312.79 1440.87,2295.31 1458.0,2282.24 C 1463.67,2277.91 1472.66,2269.84 1480.0,2273.0" style="stroke:#010101; fill:none;"/>
	<path d="M 1432.0,2281.0 C 1411.52,2306.81 1398.64,2345.36 1390.0,2377.0" style="stroke:#010101; fill:none;"/>
</svg>
