<?xml version="1.0" ?>
<svg baseProfile="full" height="2687" version="1.1" width="2424" xmlns="http://www.w3.org/2000/svg" xmlns:ev="http://www.w3.org/2001/xml-events" xmlns:xlink="http://www.w3.org/1999/xlink">
	<defs/>
	<path d="M 884.0,330.0 C 875.916,334.804 874.346,341.118 869.85,349.0 C 863.036,360.944 855.599,372.561 849.703,385.0 C 826.688,433.552 812.301,485.114 785.421,532.0 C 776.764,547.1 769.431,563.045 760.632,578.0 C 757.963,582.537 756.577,593.043 750.0,590.0 L 742.0,604.0 L 744.0,602.0" style="stroke:#010101; fill:none;"/>
	<path d="M 851.0,410.0 L 886.0,450.0" style="stroke:#010101; fill:none;"/>
	<path d="M 862.0,417.0 C 875.578,436.275 897.375,452.74 915.0,468.285 C 922.258,474.687 929.163,483.879 938.0,488.0 L 934.0,486.0" style="stroke:#010101; fill:none;"/>
	<path d="M 579.0,1094.0 L 575.0,1101.0 C 572.519,1091.15 578.827,1076.83 580.986,1067.0 C 585.904,1044.62 590.841,1022.22 596.475,1000.0 C 598.7,991.225 604.206,981.935 605.092,973.0 C 605.566,968.219 600.803,963.818 599.924,959.0 C 598.049,948.718 599.291,938.211 601.084,928.0 C 604.88,906.384 615.331,887.724 621.211,867.0 C 623.317,859.579 621.069,851.544 622.326,844.0 C 624.893,828.589 630.056,811.805 635.075,797.0 C 656.596,733.513 689.729,675.161 711.656,612.0 C 726.182,570.156 726.251,524.34 740.516,482.0 C 747.298,461.871 760.016,436.684 778.0,424.598 C 791.902,415.256 810.951,421.362 814.0,439.0" style="stroke:#010101; fill:none;"/>
	<path d="M 876.0,421.0 C 894.576,439.565 917.716,453.884 932.0,476.0 L 936.0,472.0 L 929.0,468.0" style="stroke:#010101; fill:none;"/>
	<path d="M 872.0,434.0 L 869.0,436.0" style="stroke:#010101; fill:none;"/>
	<path d="M 871.0,435.0 L 873.0,437.0" style="stroke:#010101; fill:none;"/>
	<path d="M 873.0,437.0 L 883.0,450.0" style="stroke:#010101; fill:none;"/>
	<path d="M 876.0,438.0 L 874.0,440.0" style="stroke:#010101; fill:none;"/>
	<path d="M 865.0,441.0 L 876.0,458.0" style="stroke:#010101; fill:none;"/>
	<path d="M 884.0,447.0 L 882.0,449.0" style="stroke:#010101; fill:none;"/>
	<path d="M 887.0,450.0 C 907.307,492.129 942.758,526.558 960.0,571.0" style="stroke:#010101; fill:none;"/>
	<path d="M 885.0,451.0 L 890.0,455.0" style="stroke:#010101; fill:none;"/>
	<path d="M 918.0,452.0 L 971.0,494.0 L 969.0,492.0" style="stroke:#010101; fill:none;"/>
	<path d="M 971.0,453.0 C 988.708,465.108 1003.9,481.897 1019.0,497.0 L 1021.0,495.0 L 1014.0,492.0" style="stroke:#010101; fill:none;"/>
	<path d="M 891.0,455.0 L 915.0,476.0 L 908.0,464.0" style="stroke:#010101; fill:none;"/>
	<path d="M 872.0,457.0 L 873.0,458.0" style="stroke:#010101; fill:none;"/>
	<path d="M 959.0,457.0 C 980.733,471.374 1001.8,492.276 1019.7,511.17 C 1028.16,520.1 1035.18,531.49 1045.0,539.0 L 1044.0,532.0 L 1046.0,533.0 L 1046.0,534.0 L 1047.0,535.0" style="stroke:#010101; fill:none;"/>
	<path d="M 876.0,458.0 L 879.0,459.0 L 879.0,462.0" style="stroke:#010101; fill:none;"/>
	<path d="M 936.0,458.0 C 965.21,478.399 989.739,501.119 1013.0,528.0" style="stroke:#010101; fill:none;"/>
	<path d="M 949.0,458.0 C 965.281,470.359 983.779,484.137 997.711,499.054 C 1010.4,512.636 1018.97,528.286 1028.45,544.0 C 1052.89,584.527 1070.79,626.097 1085.0,671.0" style="stroke:#010101; fill:none;"/>
	<path d="M 875.0,459.0 L 876.0,462.0" style="stroke:#010101; fill:none;"/>
	<path d="M 973.0,459.0 L 1010.99,495.999 L 1033.0,518.0 C 1033.76,505.843 1029.58,503.212 1021.0,495.0" style="stroke:#010101; fill:none;"/>
	<path d="M 879.0,462.0 L 884.0,472.0 L 882.0,465.0" style="stroke:#010101; fill:none;"/>
	<path d="M 941.0,462.0 L 944.0,463.0" style="stroke:#010101; fill:none;"/>
	<path d="M 764.0,463.0 C 763.996,497.734 753.996,531.631 751.799,566.0 C 751.197,575.422 742.287,585.812 747.0,595.0" style="stroke:#010101; fill:none;"/>
	<path d="M 878.0,463.0 L 880.0,467.0" style="stroke:#010101; fill:none;"/>
	<path d="M 911.0,465.0 L 909.0,467.0" style="stroke:#010101; fill:none;"/>
	<path d="M 944.0,467.0 L 948.0,470.0" style="stroke:#010101; fill:none;"/>
	<path d="M 886.0,470.0 C 887.047,472.729 887.02,473.574 884.0,473.0 L 884.0,473.0" style="stroke:#010101; fill:none;"/>
	<path d="M 933.0,471.0 L 931.0,473.0" style="stroke:#010101; fill:none;"/>
	<path d="M 907.0,472.0 L 913.0,481.0 L 916.0,478.0 C 937.857,500.04 955.269,526.576 972.883,552.0 C 989.686,576.251 1008.91,603.567 1015.0,633.0" style="stroke:#010101; fill:none;"/>
	<path d="M 888.0,474.0 L 891.0,482.0 L 886.0,476.0" style="stroke:#010101; fill:none;"/>
	<path d="M 912.0,474.0 L 912.0,476.0" style="stroke:#010101; fill:none;"/>
	<path d="M 935.0,477.0 L 939.0,475.0 L 932.0,477.0" style="stroke:#010101; fill:none;"/>
	<path d="M 940.0,475.0 L 967.0,500.0 L 963.0,498.0" style="stroke:#010101; fill:none;"/>
	<path d="M 890.0,476.0 L 888.0,478.0" style="stroke:#010101; fill:none;"/>
	<path d="M 912.0,476.0 L 910.0,478.0" style="stroke:#010101; fill:none;"/>
	<path d="M 916.0,477.0 L 916.0,478.0" style="stroke:#010101; fill:none;"/>
	<path d="M 890.0,481.0 C 896.378,480.551 900.379,490.319 903.709,495.0 C 914.238,509.801 922.859,525.353 932.0,541.0" style="stroke:#010101; fill:none;"/>
	<path d="M 933.0,479.0 L 936.0,483.0" style="stroke:#010101; fill:none;"/>
	<path d="M 938.0,479.0 C 945.664,488.727 958.891,504.819 970.0,510.0 C 969.213,507.111 968.747,506.918 966.0,508.0" style="stroke:#010101; fill:none;"/>
	<path d="M 891.0,482.0 L 901.0,501.0" style="stroke:#010101; fill:none;"/>
	<path d="M 913.0,482.0 C 942.938,519.724 966.856,559.634 991.0,601.0" style="stroke:#010101; fill:none;"/>
	<path d="M 1918.0,483.0 L 1920.0,483.0" style="stroke:#010101; fill:none;"/>
	<path d="M 938.0,488.0 L 1016.0,603.0 L 1018.0,599.0 L 1014.0,599.0" style="stroke:#010101; fill:none;"/>
	<path d="M 968.0,488.0 L 970.0,490.0" style="stroke:#010101; fill:none;"/>
	<path d="M 1019.0,493.0 L 1017.0,495.0" style="stroke:#010101; fill:none;"/>
	<path d="M 778.0,494.0 L 759.0,550.0" style="stroke:#010101; fill:none;"/>
	<path d="M 971.0,494.0 L 992.0,519.0 L 999.0,521.0 L 994.0,507.0" style="stroke:#010101; fill:none;"/>
	<path d="M 952.0,495.0 L 953.0,497.0" style="stroke:#010101; fill:none;"/>
	<path d="M 953.0,497.0 L 975.997,531.0 L 1016.0,596.0" style="stroke:#010101; fill:none;"/>
	<path d="M 1021.0,497.0 L 1054.68,534.0 L 1061.29,549.0 L 1090.0,589.0" style="stroke:#010101; fill:none;"/>
	<path d="M 1024.0,498.0 L 1022.0,500.0" style="stroke:#010101; fill:none;"/>
	<path d="M 968.0,500.0 L 990.0,519.0" style="stroke:#010101; fill:none;"/>
	<path d="M 966.0,501.0 L 965.0,506.0" style="stroke:#010101; fill:none;"/>
	<path d="M 787.0,503.0 L 766.576,550.0 L 760.0,570.0 L 765.0,569.0" style="stroke:#010101; fill:none;"/>
	<path d="M 1035.0,508.0 L 1074.0,547.0 L 1073.0,545.0" style="stroke:#010101; fill:none;"/>
	<path d="M 970.0,510.0 C 991.661,533.588 1008.98,563.487 1023.25,592.0 C 1030.43,606.353 1038.34,620.181 1042.0,636.0" style="stroke:#010101; fill:none;"/>
	<path d="M 989.0,514.0 L 986.0,517.0" style="stroke:#010101; fill:none;"/>
	<path d="M 1033.0,518.0 L 1043.0,531.0" style="stroke:#010101; fill:none;"/>
	<path d="M 992.0,520.0 L 996.0,520.0" style="stroke:#010101; fill:none;"/>
	<path d="M 999.0,521.0 L 999.0,523.0" style="stroke:#010101; fill:none;"/>
	<path d="M 1002.0,521.0 C 1004.51,533.102 1018.22,547.057 1024.58,558.0 C 1042.0,588.026 1063.85,625.156 1069.0,660.0" style="stroke:#010101; fill:none;"/>
	<path d="M 768.0,563.0 C 764.022,553.823 778.725,528.029 786.0,522.0" style="stroke:#010101; fill:none;"/>
	<path d="M 994.0,523.0 C 1014.8,547.035 1031.46,579.689 1043.4,609.0 C 1047.92,620.107 1054.01,631.911 1055.0,644.0" style="stroke:#010101; fill:none;"/>
	<path d="M 999.0,523.0 L 1001.0,523.0" style="stroke:#010101; fill:none;"/>
	<path d="M 1029.0,523.0 L 1031.0,525.0" style="stroke:#010101; fill:none;"/>
	<path d="M 1030.0,527.0 C 1059.51,567.591 1077.87,615.637 1092.0,663.0" style="stroke:#010101; fill:none;"/>
	<path d="M 1068.0,534.0 L 1074.0,543.0" style="stroke:#010101; fill:none;"/>
	<path d="M 1045.0,535.0 L 1043.0,537.0" style="stroke:#010101; fill:none;"/>
	<path d="M 1048.0,535.0 L 1057.0,545.0" style="stroke:#010101; fill:none;"/>
	<path d="M 1055.0,536.0 L 1058.0,538.0" style="stroke:#010101; fill:none;"/>
	<path d="M 1058.0,538.0 L 1088.0,573.0 L 1086.0,571.0" style="stroke:#010101; fill:none;"/>
	<path d="M 1045.0,539.0 C 1055.47,551.284 1061.58,568.414 1068.31,583.0 C 1081.86,612.392 1095.43,642.148 1102.0,674.0" style="stroke:#010101; fill:none;"/>
	<path d="M 1075.0,547.0 L 1094.0,567.0 L 1090.0,559.0" style="stroke:#010101; fill:none;"/>
	<path d="M 1083.0,558.0 L 1085.0,560.0" style="stroke:#010101; fill:none;"/>
	<path d="M 756.0,559.0 L 753.0,564.0" style="stroke:#010101; fill:none;"/>
	<path d="M 1084.0,561.0 L 1087.0,570.0" style="stroke:#010101; fill:none;"/>
	<path d="M 765.0,562.0 L 767.0,565.0" style="stroke:#010101; fill:none;"/>
	<path d="M 765.0,563.0 L 763.0,567.0" style="stroke:#010101; fill:none;"/>
	<path d="M 1069.0,563.0 L 1071.0,565.0" style="stroke:#010101; fill:none;"/>
	<path d="M 1071.0,565.0 C 1082.07,603.72 1112.14,640.402 1113.0,682.0" style="stroke:#010101; fill:none;"/>
	<path d="M 1094.0,567.0 C 1099.72,574.416 1104.23,583.731 1113.0,588.0 L 1111.0,582.0" style="stroke:#010101; fill:none;"/>
	<path d="M 758.0,570.0 L 761.0,570.0" style="stroke:#010101; fill:none;"/>
	<path d="M 762.0,570.0 L 764.0,572.0" style="stroke:#010101; fill:none;"/>
	<path d="M 758.0,571.0 L 756.0,578.0 L 757.0,573.0" style="stroke:#010101; fill:none;"/>
	<path d="M 759.0,573.0 L 758.0,574.0" style="stroke:#010101; fill:none;"/>
	<path d="M 1088.0,573.0 L 1099.0,589.0" style="stroke:#010101; fill:none;"/>
	<path d="M 759.0,575.0 L 761.0,577.0" style="stroke:#010101; fill:none;"/>
	<path d="M 758.0,577.0 L 760.0,579.0" style="stroke:#010101; fill:none;"/>
	<path d="M 757.0,586.0 C 754.889,583.448 753.347,582.016 755.0,579.0" style="stroke:#010101; fill:none;"/>
	<path d="M 756.0,580.0 L 755.0,584.0 L 755.0,582.0" style="stroke:#010101; fill:none;"/>
	<path d="M 1103.0,581.0 C 1104.73,591.036 1110.89,600.405 1114.31,610.0 C 1125.42,641.184 1139.98,677.497 1140.0,711.0" style="stroke:#010101; fill:none;"/>
	<path d="M 1118.0,581.0 C 1134.75,608.397 1143.99,639.779 1157.0,669.0 C 1164.19,662.948 1162.23,657.486 1160.75,649.0 C 1158.01,633.254 1149.04,615.783 1141.0,602.0" style="stroke:#010101; fill:none;"/>
	<path d="M 753.0,582.0 L 752.0,587.0 L 753.0,584.0" style="stroke:#010101; fill:none;"/>
	<path d="M 752.0,587.0 L 750.0,589.0" style="stroke:#010101; fill:none;"/>
	<path d="M 1113.0,588.0 L 1128.0,607.0" style="stroke:#010101; fill:none;"/>
	<path d="M 1097.0,589.0 L 1114.28,639.0 L 1130.0,702.0" style="stroke:#010101; fill:none;"/>
	<path d="M 744.0,594.0 L 744.0,598.0" style="stroke:#010101; fill:none;"/>
	<path d="M 753.0,594.0 L 733.0,642.0" style="stroke:#010101; fill:none;"/>
	<path d="M 743.0,599.0 L 743.0,601.0" style="stroke:#010101; fill:none;"/>
	<path d="M 1119.0,599.0 L 1121.0,600.0" style="stroke:#010101; fill:none;"/>
	<path d="M 1120.0,602.0 C 1134.91,635.479 1149.98,680.042 1150.0,717.0" style="stroke:#010101; fill:none;"/>
	<path d="M 1019.0,603.0 L 1019.0,606.0 L 1016.0,604.0" style="stroke:#010101; fill:none;"/>
	<path d="M 743.0,605.0 L 738.0,621.0" style="stroke:#010101; fill:none;"/>
	<path d="M 1020.0,607.0 L 1036.0,641.0" style="stroke:#010101; fill:none;"/>
	<path d="M 882.0,618.0 C 874.075,627.645 878.05,639.673 867.0,646.0 C 860.141,636.464 867.223,618.335 876.0,612.0" style="stroke:#010101; fill:none;"/>
	<path d="M 870.0,678.0 L 890.0,659.0 C 894.003,672.539 889.785,690.829 872.174,680.697 C 867.811,678.187 865.983,672.949 862.818,669.275 C 859.621,665.564 853.328,665.057 850.848,660.787 C 849.224,657.991 850.171,653.185 849.728,650.0 C 848.128,638.521 846.552,623.781 857.0,616.0" style="stroke:#010101; fill:none;"/>
	<path d="M 1131.0,617.0 C 1150.25,650.833 1148.03,691.912 1159.0,728.0" style="stroke:#010101; fill:none;"/>
	<path d="M 890.0,659.0 C 890.34,646.473 899.666,628.086 910.0,621.0" style="stroke:#010101; fill:none;"/>
	<path d="M 886.0,627.0 C 884.614,637.908 877.55,647.687 888.0,655.0" style="stroke:#010101; fill:none;"/>
	<path d="M 893.0,627.0 C 891.072,633.096 890.12,638.605 894.0,644.0" style="stroke:#010101; fill:none;"/>
	<path d="M 942.0,627.0 C 932.687,637.21 932.62,646.755 929.0,659.0 L 931.0,661.0 C 942.123,657.712 960.928,659.186 971.0,665.0 L 979.0,656.0" style="stroke:#010101; fill:none;"/>
	<path d="M 926.0,628.0 C 918.473,636.854 913.461,650.281 916.0,662.0 L 929.0,659.0" style="stroke:#010101; fill:none;"/>
	<path d="M 915.0,631.0 L 908.593,655.0 L 907.072,668.0 L 889.0,687.0 L 898.0,691.0 C 885.034,703.967 882.346,711.345 896.0,725.0 C 893.024,727.976 885.156,738.935 880.299,736.824 C 877.286,735.515 874.373,729.45 872.0,727.0 C 877.804,721.633 882.821,722.709 890.0,721.0" style="stroke:#010101; fill:none;"/>
	<path d="M 1164.0,634.0 L 1179.0,731.0" style="stroke:#010101; fill:none;"/>
	<path d="M 1151.0,635.0 L 1160.0,665.0" style="stroke:#010101; fill:none;"/>
	<path d="M 844.0,636.0 C 839.832,644.661 841.769,653.918 849.0,660.0" style="stroke:#010101; fill:none;"/>
	<path d="M 1175.0,638.0 C 1178.87,666.757 1184.6,693.78 1184.0,723.0" style="stroke:#010101; fill:none;"/>
	<path d="M 874.0,642.0 L 879.0,645.0" style="stroke:#010101; fill:none;"/>
	<path d="M 1187.0,646.0 C 1191.61,668.362 1202.0,703.687 1190.0,725.0" style="stroke:#010101; fill:none;"/>
	<path d="M 734.0,647.0 L 714.048,695.0 L 662.811,812.0 L 627.922,908.0 L 606.0,969.0" style="stroke:#010101; fill:none;"/>
	<path d="M 867.0,647.0 L 862.0,667.0" style="stroke:#010101; fill:none;"/>
	<path d="M 931.0,661.0 C 931.218,671.506 932.847,684.281 939.0,693.0 L 952.0,671.0" style="stroke:#010101; fill:none;"/>
	<path d="M 892.0,670.0 C 896.548,665.493 900.477,660.676 907.0,664.0" style="stroke:#010101; fill:none;"/>
	<path d="M 909.0,662.0 L 914.0,662.0" style="stroke:#010101; fill:none;"/>
	<path d="M 916.0,662.0 L 915.0,680.0 C 919.908,675.849 924.863,675.186 931.0,677.0" style="stroke:#010101; fill:none;"/>
	<path d="M 970.0,666.0 C 969.875,680.92 967.571,691.429 957.0,702.0 C 961.592,706.705 964.868,718.558 971.044,720.448 C 977.808,722.517 989.019,712.637 982.692,706.317 C 977.146,700.778 965.793,703.644 959.0,700.0" style="stroke:#010101; fill:none;"/>
	<path d="M 973.0,666.0 C 978.356,667.696 994.656,674.551 996.444,680.188 C 999.301,689.196 989.564,701.432 984.0,707.0" style="stroke:#010101; fill:none;"/>
	<path d="M 1164.0,666.0 L 1168.0,730.0" style="stroke:#010101; fill:none;"/>
	<path d="M 909.0,667.0 L 915.0,667.0" style="stroke:#010101; fill:none;"/>
	<path d="M 1161.0,668.0 L 1163.0,671.0" style="stroke:#010101; fill:none;"/>
	<path d="M 908.0,670.0 L 914.0,678.0" style="stroke:#010101; fill:none;"/>
	<path d="M 1157.0,670.0 L 1160.0,672.0" style="stroke:#010101; fill:none;"/>
	<path d="M 1003.0,677.0 L 998.0,680.0" style="stroke:#010101; fill:none;"/>
	<path d="M 1025.0,678.0 L 1016.0,690.0 C 1020.29,691.667 1021.64,689.58 1024.0,686.0" style="stroke:#010101; fill:none;"/>
	<path d="M 1162.0,678.0 L 1164.0,685.0" style="stroke:#010101; fill:none;"/>
	<path d="M 915.0,680.0 C 912.999,687.131 905.68,690.653 908.893,699.0 C 914.397,713.3 935.774,704.459 939.0,693.0" style="stroke:#010101; fill:none;"/>
	<path d="M 1001.0,680.0 L 1016.0,690.0 C 1012.73,696.82 1021.33,698.903 1015.0,706.0 L 1013.0,696.0" style="stroke:#010101; fill:none;"/>
	<path d="M 828.0,684.0 C 834.521,711.52 859.994,706.183 876.0,722.0" style="stroke:#010101; fill:none;"/>
	<path d="M 886.0,684.0 L 889.0,687.0" style="stroke:#010101; fill:none;"/>
	<path d="M 898.0,691.0 L 907.0,691.0" style="stroke:#010101; fill:none;"/>
	<path d="M 1021.0,693.0 C 1028.18,702.936 1046.55,709.814 1050.0,722.0 L 1068.0,716.0" style="stroke:#010101; fill:none;"/>
	<path d="M 1045.0,694.0 L 1035.0,704.0" style="stroke:#010101; fill:none;"/>
	<path d="M 1020.0,696.0 L 1020.0,698.0" style="stroke:#010101; fill:none;"/>
	<path d="M 937.0,700.0 L 956.0,701.0" style="stroke:#010101; fill:none;"/>
	<path d="M 1015.0,706.0 C 1009.24,718.345 996.995,718.763 986.0,713.0" style="stroke:#010101; fill:none;"/>
	<path d="M 917.0,708.0 C 911.577,716.527 908.383,725.094 901.741,733.001 C 898.123,737.307 891.689,741.273 890.322,747.0 C 887.545,758.63 896.623,777.377 900.797,788.0 C 914.597,823.121 948.228,854.881 983.0,869.405 C 1000.29,876.628 1019.42,879.445 1037.0,885.912 C 1045.6,889.078 1055.9,890.287 1064.0,894.376 C 1075.88,900.373 1084.17,910.045 1094.0,918.576 C 1097.72,921.805 1107.13,933.285 1112.68,928.508 C 1117.29,924.536 1112.2,912.996 1111.2,908.0 C 1107.23,888.159 1102.06,869.952 1096.0,851.0 C 1107.96,846.51 1099.16,842.527 1097.46,834.91 C 1096.1,828.831 1098.18,822.582 1094.3,817.043 C 1092.01,813.776 1087.19,812.025 1086.17,807.957 C 1083.52,797.399 1101.04,796.099 1100.46,786.985 C 1100.16,782.242 1095.84,778.156 1093.92,774.0 C 1084.96,754.584 1067.57,739.936 1055.0,723.0" style="stroke:#010101; fill:none;"/>
	<path d="M 1034.0,709.0 C 1030.31,718.817 1024.83,723.002 1016.0,728.0 L 1028.0,745.0 L 1036.0,737.0 L 1029.0,730.0 C 1038.71,721.869 1047.79,734.59 1056.0,740.0 L 1069.0,727.0" style="stroke:#010101; fill:none;"/>
	<path d="M 818.0,720.0 L 817.0,716.0 C 819.334,718.862 818.879,722.094 823.0,720.0 L 821.0,718.0" style="stroke:#010101; fill:none;"/>
	<path d="M 827.0,716.0 L 840.04,728.852 L 860.999,730.452 L 878.0,738.0" style="stroke:#010101; fill:none;"/>
	<path d="M 1008.0,718.0 L 1015.0,728.0 C 1010.78,732.219 1006.38,738.256 1001.0,740.973 C 996.852,743.067 991.432,742.443 987.0,743.911 C 971.024,749.202 957.939,758.9 950.37,774.0 C 934.104,806.454 958.143,849.014 992.0,858.957 C 1017.02,866.304 1047.73,852.107 1059.65,830.0 C 1064.33,821.321 1063.0,809.54 1063.0,800.0" style="stroke:#010101; fill:none;"/>
	<path d="M 824.0,720.0 L 836.0,729.0" style="stroke:#010101; fill:none;"/>
	<path d="M 825.0,722.0 C 823.7,727.078 827.36,728.65 832.0,729.0" style="stroke:#010101; fill:none;"/>
	<path d="M 821.0,723.0 L 823.0,725.0" style="stroke:#010101; fill:none;"/>
	<path d="M 827.0,723.0 L 825.0,727.0" style="stroke:#010101; fill:none;"/>
	<path d="M 1049.0,723.0 L 1044.0,730.0" style="stroke:#010101; fill:none;"/>
	<path d="M 896.0,725.0 L 905.0,726.0" style="stroke:#010101; fill:none;"/>
	<path d="M 1023.0,726.0 L 1028.0,730.0" style="stroke:#010101; fill:none;"/>
	<path d="M 863.0,729.0 L 872.0,727.0" style="stroke:#010101; fill:none;"/>
	<path d="M 1043.0,732.0 C 1042.71,736.534 1040.11,741.365 1041.32,745.907 C 1042.26,749.459 1046.07,750.815 1047.48,754.093 C 1050.48,761.087 1054.3,775.228 1059.0,760.0 L 1050.0,757.0" style="stroke:#010101; fill:none;"/>
	<path d="M 1037.0,737.0 L 1041.0,740.0" style="stroke:#010101; fill:none;"/>
	<path d="M 1074.0,746.0 L 1088.0,739.0" style="stroke:#010101; fill:none;"/>
	<path d="M 1055.0,740.0 L 1047.0,751.0" style="stroke:#010101; fill:none;"/>
	<path d="M 1073.0,745.0 L 1059.0,759.0 C 1067.12,765.75 1071.62,770.182 1063.0,779.0 C 1067.75,783.47 1070.09,780.631 1073.0,776.0 L 1084.0,787.0 L 1095.0,778.0" style="stroke:#010101; fill:none;"/>
	<path d="M 1030.0,746.0 C 1033.48,749.473 1036.59,750.248 1041.0,748.0" style="stroke:#010101; fill:none;"/>
	<path d="M 1079.0,754.0 L 1068.0,765.0" style="stroke:#010101; fill:none;"/>
	<path d="M 1085.0,761.0 C 1080.04,765.329 1074.06,769.115 1073.0,776.0" style="stroke:#010101; fill:none;"/>
	<path d="M 1089.0,763.0 L 1098.0,761.0" style="stroke:#010101; fill:none;"/>
	<path d="M 863.0,764.0 L 874.0,766.0" style="stroke:#010101; fill:none;"/>
	<path d="M 1058.0,769.0 L 1062.0,779.0" style="stroke:#010101; fill:none;"/>
	<path d="M 993.0,786.0 L 1011.0,783.0 C 1007.96,775.918 1015.42,765.376 1022.68,772.434 C 1027.57,777.18 1021.87,781.086 1021.51,786.0 C 1021.03,792.487 1026.39,794.563 1024.0,802.0 C 1026.94,802.385 1030.19,802.157 1032.89,803.576 C 1039.06,806.821 1036.64,815.115 1030.0,815.667 C 1025.21,816.065 1022.49,812.437 1020.0,809.0 C 1012.64,814.371 992.753,813.978 990.21,801.907 C 989.426,798.187 992.326,794.569 992.898,791.001 C 993.75,785.686 987.159,774.336 981.04,774.778 C 972.59,775.388 973.158,790.813 982.995,787.928 C 985.417,787.218 987.135,785.593 989.0,784.0" style="stroke:#010101; fill:none;"/>
	<path d="M 1070.0,772.0 L 1073.0,772.0" style="stroke:#010101; fill:none;"/>
	<path d="M 1176.0,772.0 C 1187.16,793.173 1189.01,821.564 1190.04,845.0 C 1191.29,873.514 1192.76,902.49 1193.0,931.0" style="stroke:#010101; fill:none;"/>
	<path d="M 862.0,775.0 L 873.0,773.0" style="stroke:#010101; fill:none;"/>
	<path d="M 1097.0,778.0 L 1111.0,774.0" style="stroke:#010101; fill:none;"/>
	<path d="M 991.0,780.0 L 995.0,784.0" style="stroke:#010101; fill:none;"/>
	<path d="M 861.0,783.0 L 871.0,782.0" style="stroke:#010101; fill:none;"/>
	<path d="M 1070.0,782.0 L 1080.0,797.0 C 1075.05,804.851 1082.16,804.463 1087.0,800.0 L 1081.0,797.0" style="stroke:#010101; fill:none;"/>
	<path d="M 1011.0,783.0 L 1020.0,786.0" style="stroke:#010101; fill:none;"/>
	<path d="M 859.0,789.0 L 876.0,786.0" style="stroke:#010101; fill:none;"/>
	<path d="M 1084.0,787.0 L 1083.0,796.0" style="stroke:#010101; fill:none;"/>
	<path d="M 1101.0,789.0 L 1114.33,816.0 L 1116.51,826.911 L 1103.0,841.0" style="stroke:#010101; fill:none;"/>
	<path d="M 862.0,802.0 L 883.0,799.0" style="stroke:#010101; fill:none;"/>
	<path d="M 1024.0,802.0 L 1019.0,809.0" style="stroke:#010101; fill:none;"/>
	<path d="M 1088.0,802.0 L 1094.0,812.0 L 1108.0,804.0" style="stroke:#010101; fill:none;"/>
	<path d="M 1112.0,804.0 L 1115.0,803.0" style="stroke:#010101; fill:none;"/>
	<path d="M 871.0,809.0 C 877.343,806.607 885.339,804.086 892.0,806.0" style="stroke:#010101; fill:none;"/>
	<path d="M 877.0,811.0 C 883.059,809.862 888.311,809.231 894.0,812.0" style="stroke:#010101; fill:none;"/>
	<path d="M 1094.0,813.0 L 1093.0,814.0" style="stroke:#010101; fill:none;"/>
	<path d="M 1093.0,815.0 L 1089.0,826.0" style="stroke:#010101; fill:none;"/>
	<path d="M 882.0,818.0 L 900.0,817.0" style="stroke:#010101; fill:none;"/>
	<path d="M 899.0,825.0 L 907.0,827.0" style="stroke:#010101; fill:none;"/>
	<path d="M 1117.0,828.0 L 1134.0,872.0" style="stroke:#010101; fill:none;"/>
	<path d="M 901.0,833.0 L 913.0,832.0" style="stroke:#010101; fill:none;"/>
	<path d="M 907.0,838.0 L 921.0,835.0" style="stroke:#010101; fill:none;"/>
	<path d="M 1097.0,838.0 C 1094.54,842.273 1093.91,845.456 1096.0,850.0" style="stroke:#010101; fill:none;"/>
	<path d="M 1540.0,844.0 L 1468.0,917.0" style="stroke:#010101; fill:none;"/>
	<path d="M 928.0,849.0 L 933.0,848.0" style="stroke:#010101; fill:none;"/>
	<path d="M 1103.0,849.0 C 1105.6,853.874 1105.21,857.542 1102.0,862.0" style="stroke:#010101; fill:none;"/>
	<path d="M 937.0,853.0 L 932.0,856.0" style="stroke:#010101; fill:none;"/>
	<path d="M 1491.0,907.0 L 1530.0,870.87 L 1554.0,854.0" style="stroke:#010101; fill:none;"/>
	<path d="M 943.0,858.0 L 939.0,861.0" style="stroke:#010101; fill:none;"/>
	<path d="M 1477.0,929.0 C 1492.59,909.862 1514.23,894.672 1534.0,880.116 C 1543.84,872.868 1554.69,863.694 1566.0,859.0" style="stroke:#010101; fill:none;"/>
	<path d="M 952.0,863.0 L 949.0,865.0" style="stroke:#010101; fill:none;"/>
	<path d="M 1501.0,924.0 C 1518.37,906.993 1538.54,892.592 1559.0,879.587 C 1567.28,874.322 1577.01,867.024 1587.0,866.0" style="stroke:#010101; fill:none;"/>
	<path d="M 956.0,870.0 L 960.0,868.0" style="stroke:#010101; fill:none;"/>
	<path d="M 1595.0,872.0 L 1517.0,923.0" style="stroke:#010101; fill:none;"/>
	<path d="M 973.0,873.0 L 971.0,875.0" style="stroke:#010101; fill:none;"/>
	<path d="M 1612.0,875.0 C 1687.27,889.183 1754.32,919.455 1823.0,952.0" style="stroke:#010101; fill:none;"/>
	<path d="M 981.0,877.0 L 977.0,880.0" style="stroke:#010101; fill:none;"/>
	<path d="M 1513.0,932.0 C 1527.25,921.651 1544.0,915.21 1560.0,908.14 C 1581.33,898.715 1604.22,888.273 1627.0,883.0" style="stroke:#010101; fill:none;"/>
	<path d="M 988.0,884.0 L 983.0,889.0" style="stroke:#010101; fill:none;"/>
	<path d="M 992.0,890.0 L 986.0,897.0" style="stroke:#010101; fill:none;"/>
	<path d="M 1140.0,890.0 L 1141.0,898.0" style="stroke:#010101; fill:none;"/>
	<path d="M 1521.0,944.0 C 1558.74,920.821 1606.64,897.974 1651.0,892.0" style="stroke:#010101; fill:none;"/>
	<path d="M 1654.0,893.0 L 1661.0,896.0 C 1645.78,905.454 1624.81,909.682 1608.0,916.064 C 1583.95,925.194 1558.71,939.535 1533.0,943.0" style="stroke:#010101; fill:none;"/>
	<path d="M 1835.0,968.0 C 1803.01,948.333 1769.35,931.026 1734.0,918.053 C 1713.5,910.532 1686.45,907.352 1668.0,896.0 L 1674.0,893.0" style="stroke:#010101; fill:none;"/>
	<path d="M 1661.0,896.0 L 1668.0,896.0" style="stroke:#010101; fill:none;"/>
	<path d="M 1001.0,897.0 L 996.0,904.0" style="stroke:#010101; fill:none;"/>
	<path d="M 1550.0,954.0 C 1599.62,940.456 1645.2,915.976 1697.0,909.0" style="stroke:#010101; fill:none;"/>
	<path d="M 1588.0,964.0 C 1600.09,967.566 1616.34,960.36 1628.0,957.0 C 1650.2,950.603 1672.59,944.498 1695.0,938.895 C 1706.24,936.085 1719.9,934.828 1730.0,929.0 L 1709.0,921.0 L 1717.0,917.0" style="stroke:#010101; fill:none;"/>
	<path d="M 1579.0,956.0 L 1672.0,928.849 L 1709.0,920.0" style="stroke:#010101; fill:none;"/>
	<path d="M 1730.0,929.0 C 1738.48,929.251 1747.02,934.223 1755.0,937.0 C 1777.57,944.858 1799.32,955.053 1821.0,965.028 C 1829.29,968.842 1843.98,981.21 1853.0,979.0 L 1833.0,960.0" style="stroke:#010101; fill:none;"/>
	<path d="M 1304.0,1014.0 C 1348.46,984.004 1395.23,946.098 1449.0,935.0" style="stroke:#010101; fill:none;"/>
	<path d="M 1733.0,939.0 C 1764.8,945.647 1799.93,960.852 1829.0,975.248 C 1836.85,979.136 1857.15,992.852 1865.0,989.0 L 1854.0,979.0" style="stroke:#010101; fill:none;"/>
	<path d="M 1193.0,946.0 C 1157.71,1021.58 1112.59,1093.37 1060.0,1158.0" style="stroke:#010101; fill:none;"/>
	<path d="M 1610.0,969.0 C 1622.12,974.868 1638.39,970.307 1651.0,967.8 C 1680.64,961.909 1709.6,953.739 1739.0,947.0" style="stroke:#010101; fill:none;"/>
	<path d="M 1631.0,980.0 L 1768.0,956.0" style="stroke:#010101; fill:none;"/>
	<path d="M 1769.0,964.0 C 1794.97,978.239 1826.07,986.617 1854.0,996.505 C 1862.53,999.524 1873.93,1008.27 1883.0,1007.0 C 1879.38,999.844 1870.72,993.841 1863.0,992.0" style="stroke:#010101; fill:none;"/>
	<path d="M 1784.0,968.0 L 1791.0,967.0" style="stroke:#010101; fill:none;"/>
	<path d="M 1671.0,986.0 L 1729.0,975.414 L 1774.0,968.0" style="stroke:#010101; fill:none;"/>
	<path d="M 1674.0,992.0 L 1716.0,985.286 L 1791.0,980.0" style="stroke:#010101; fill:none;"/>
	<path d="M 1855.0,980.0 L 1852.0,981.0" style="stroke:#010101; fill:none;"/>
	<path d="M 1730.0,984.0 C 1736.29,988.527 1745.47,987.512 1753.0,988.086 C 1767.64,989.204 1782.28,991.706 1797.0,993.075 C 1803.05,993.638 1809.31,995.651 1815.0,993.0 L 1790.0,985.0" style="stroke:#010101; fill:none;"/>
	<path d="M 1766.0,990.0 L 1770.0,992.0" style="stroke:#010101; fill:none;"/>
	<path d="M 1773.0,990.0 C 1780.08,995.992 1791.1,996.184 1800.0,997.324 C 1810.06,998.612 1820.09,1001.65 1830.0,1003.79 C 1836.37,1005.17 1842.91,1008.2 1849.0,1005.0 L 1816.0,994.0" style="stroke:#010101; fill:none;"/>
	<path d="M 1811.0,992.0 L 1811.0,994.0" style="stroke:#010101; fill:none;"/>
	<path d="M 1795.0,999.0 L 1832.0,1011.44 L 1904.0,1033.8 L 1963.0,1062.0" style="stroke:#010101; fill:none;"/>
	<path d="M 1849.0,1005.0 C 1868.78,1008.41 1883.53,1021.28 1900.0,1031.0" style="stroke:#010101; fill:none;"/>
	<path d="M 1883.0,1006.0 C 1904.81,1025.15 1930.61,1038.46 1956.0,1052.0" style="stroke:#010101; fill:none;"/>
	<path d="M 1421.0,1050.0 C 1439.18,1036.12 1460.47,1022.66 1483.0,1017.5 C 1499.95,1013.62 1518.69,1013.97 1536.0,1014.0 C 1547.62,1014.02 1561.6,1020.48 1573.0,1024.02 C 1577.19,1025.33 1584.01,1029.28 1587.0,1025.0" style="stroke:#010101; fill:none;"/>
	<path d="M 1548.0,1017.0 L 1542.0,1019.0" style="stroke:#010101; fill:none;"/>
	<path d="M 1517.0,1019.0 C 1529.46,1020.88 1525.68,1028.83 1531.02,1036.68 C 1533.23,1039.91 1539.06,1038.36 1539.64,1043.06 C 1540.27,1048.3 1532.46,1056.59 1527.6,1051.59 C 1524.26,1048.16 1522.24,1041.99 1519.0,1038.0 C 1508.12,1047.51 1508.85,1055.01 1524.0,1055.0 C 1523.7,1064.11 1515.46,1065.46 1514.0,1056.0" style="stroke:#010101; fill:none;"/>
	<path d="M 1545.0,1020.0 L 1551.0,1039.0 L 1542.0,1039.0 C 1541.49,1032.6 1540.33,1027.87 1536.0,1023.0" style="stroke:#010101; fill:none;"/>
	<path d="M 1568.0,1023.0 C 1569.42,1028.29 1573.12,1032.14 1571.0,1037.95 C 1567.59,1047.28 1549.71,1051.76 1561.07,1063.89 C 1562.55,1065.46 1564.3,1066.7 1566.0,1068.0 C 1560.41,1077.84 1559.51,1073.87 1552.0,1068.0 C 1547.26,1073.65 1542.6,1076.73 1536.0,1072.0 C 1524.0,1086.32 1509.53,1096.43 1505.51,1116.0 C 1497.91,1153.05 1533.65,1185.25 1569.0,1181.83 C 1586.04,1180.18 1595.9,1175.17 1605.96,1162.0 C 1607.76,1159.64 1614.11,1148.43 1617.0,1150.0" style="stroke:#010101; fill:none;"/>
	<path d="M 1847.0,1023.0 C 1871.62,1033.24 1899.47,1044.1 1926.0,1048.0" style="stroke:#010101; fill:none;"/>
	<path d="M 1503.0,1024.0 C 1510.81,1026.27 1516.58,1029.84 1519.0,1038.0" style="stroke:#010101; fill:none;"/>
	<path d="M 1572.0,1024.0 L 1572.0,1028.0" style="stroke:#010101; fill:none;"/>
	<path d="M 1567.0,1027.0 L 1571.0,1036.0" style="stroke:#010101; fill:none;"/>
	<path d="M 1596.0,1027.0 C 1594.14,1034.26 1595.25,1039.69 1589.0,1045.0 L 1586.0,1028.0" style="stroke:#010101; fill:none;"/>
	<path d="M 1497.0,1031.0 C 1503.43,1032.84 1506.24,1039.87 1510.0,1045.0" style="stroke:#010101; fill:none;"/>
	<path d="M 1588.0,1031.0 L 1594.0,1031.0" style="stroke:#010101; fill:none;"/>
	<path d="M 1565.0,1032.0 L 1571.0,1039.0" style="stroke:#010101; fill:none;"/>
	<path d="M 1484.0,1033.0 C 1493.54,1037.69 1488.17,1051.73 1501.96,1043.34 C 1503.46,1042.43 1504.69,1041.16 1506.0,1040.0" style="stroke:#010101; fill:none;"/>
	<path d="M 1564.0,1034.0 L 1567.0,1042.0" style="stroke:#010101; fill:none;"/>
	<path d="M 1596.0,1034.0 C 1611.54,1037.69 1601.98,1042.11 1602.31,1052.0 C 1602.41,1055.25 1605.92,1057.89 1608.0,1060.0 C 1609.75,1054.26 1615.21,1042.71 1608.0,1040.0" style="stroke:#010101; fill:none;"/>
	<path d="M 1496.0,1036.0 L 1502.0,1036.0" style="stroke:#010101; fill:none;"/>
	<path d="M 1625.0,1035.0 L 1619.0,1046.0 L 1613.0,1043.0" style="stroke:#010101; fill:none;"/>
	<path d="M 1856.0,1035.0 L 1915.0,1049.86 L 1936.0,1058.0" style="stroke:#010101; fill:none;"/>
	<path d="M 1478.0,1038.0 L 1490.0,1045.0" style="stroke:#010101; fill:none;"/>
	<path d="M 1542.0,1039.0 L 1540.0,1041.0" style="stroke:#010101; fill:none;"/>
	<path d="M 1530.0,1040.0 L 1526.0,1046.0" style="stroke:#010101; fill:none;"/>
	<path d="M 1552.0,1040.0 L 1558.0,1049.0" style="stroke:#010101; fill:none;"/>
	<path d="M 1571.0,1041.0 C 1579.72,1047.48 1593.88,1054.06 1578.0,1063.0 L 1594.0,1080.0 L 1597.0,1077.0 C 1592.21,1071.82 1592.0,1067.78 1592.0,1061.0 L 1586.0,1061.0" style="stroke:#010101; fill:none;"/>
	<path d="M 1589.0,1045.0 L 1586.0,1050.0" style="stroke:#010101; fill:none;"/>
	<path d="M 1490.0,1046.0 L 1480.51,1053.21 L 1482.0,1065.0 C 1479.09,1062.59 1475.78,1056.7 1471.91,1056.21 C 1466.67,1055.56 1460.34,1060.19 1455.0,1060.83 C 1427.06,1064.2 1396.64,1069.42 1376.0,1090.0" style="stroke:#010101; fill:none;"/>
	<path d="M 1620.0,1046.0 C 1617.13,1050.48 1614.68,1055.71 1616.0,1061.0 L 1626.0,1049.0 L 1644.0,1062.0 L 1654.0,1052.0" style="stroke:#010101; fill:none;"/>
	<path d="M 1589.0,1047.0 L 1600.0,1054.0" style="stroke:#010101; fill:none;"/>
	<path d="M 1621.0,1047.0 L 1625.0,1049.0" style="stroke:#010101; fill:none;"/>
	<path d="M 1479.0,1048.0 L 1479.0,1051.0" style="stroke:#010101; fill:none;"/>
	<path d="M 1493.0,1048.0 C 1493.25,1053.87 1489.1,1065.12 1490.71,1069.81 C 1492.13,1073.97 1501.01,1072.09 1503.13,1069.44 C 1506.78,1064.85 1506.63,1057.99 1511.0,1053.0" style="stroke:#010101; fill:none;"/>
	<path d="M 1638.0,1049.0 L 1617.0,1074.0 L 1609.0,1060.0" style="stroke:#010101; fill:none;"/>
	<path d="M 1399.0,1055.0 L 1415.0,1052.0" style="stroke:#010101; fill:none;"/>
	<path d="M 1474.0,1055.0 L 1479.0,1053.0" style="stroke:#010101; fill:none;"/>
	<path d="M 1513.0,1053.0 L 1525.0,1054.0" style="stroke:#010101; fill:none;"/>
	<path d="M 1598.0,1055.0 L 1592.0,1061.0" style="stroke:#010101; fill:none;"/>
	<path d="M 1479.0,1058.0 L 1483.0,1063.0" style="stroke:#010101; fill:none;"/>
	<path d="M 1507.0,1058.0 C 1510.18,1061.14 1512.43,1064.16 1517.0,1063.0" style="stroke:#010101; fill:none;"/>
	<path d="M 1638.0,1058.0 C 1638.13,1070.55 1632.03,1085.97 1618.0,1073.0" style="stroke:#010101; fill:none;"/>
	<path d="M 1685.0,1058.0 C 1679.87,1070.88 1672.3,1081.27 1661.0,1089.51 C 1654.86,1093.99 1646.02,1095.71 1641.69,1102.42 C 1638.54,1107.33 1643.66,1122.02 1649.83,1122.94 C 1659.24,1124.34 1653.39,1109.99 1651.0,1107.0 C 1658.13,1104.89 1678.17,1104.37 1680.54,1094.9 C 1681.4,1091.44 1677.08,1088.12 1675.0,1086.0 C 1667.93,1078.83 1660.85,1072.24 1653.0,1066.0 L 1658.0,1060.0" style="stroke:#010101; fill:none;"/>
	<path d="M 1536.0,1071.0 C 1538.83,1064.79 1550.54,1061.15 1557.0,1060.0" style="stroke:#010101; fill:none;"/>
	<path d="M 1558.0,1061.0 L 1553.0,1068.0" style="stroke:#010101; fill:none;"/>
	<path d="M 1616.0,1061.0 L 1613.0,1064.0" style="stroke:#010101; fill:none;"/>
	<path d="M 1647.0,1061.0 L 1652.0,1066.0 L 1647.0,1075.0 L 1655.0,1068.0" style="stroke:#010101; fill:none;"/>
	<path d="M 1940.0,1061.0 L 1943.0,1063.0" style="stroke:#010101; fill:none;"/>
	<path d="M 1577.0,1063.0 C 1573.59,1066.87 1571.12,1067.94 1566.0,1068.0" style="stroke:#010101; fill:none;"/>
	<path d="M 1643.0,1063.0 L 1641.0,1067.0" style="stroke:#010101; fill:none;"/>
	<path d="M 1478.0,1064.0 L 1478.0,1071.0 L 1482.0,1065.0" style="stroke:#010101; fill:none;"/>
	<path d="M 1522.0,1064.0 L 1534.0,1069.0" style="stroke:#010101; fill:none;"/>
	<path d="M 1514.0,1065.0 L 1506.0,1070.0" style="stroke:#010101; fill:none;"/>
	<path d="M 1574.0,1068.0 C 1577.54,1072.99 1585.67,1079.9 1592.0,1079.0" style="stroke:#010101; fill:none;"/>
	<path d="M 1477.0,1070.0 C 1464.9,1079.6 1452.73,1087.55 1437.0,1088.78 C 1422.25,1089.94 1404.59,1085.39 1391.0,1093.0" style="stroke:#010101; fill:none;"/>
	<path d="M 1479.0,1071.0 L 1490.0,1073.0" style="stroke:#010101; fill:none;"/>
	<path d="M 1658.0,1078.0 L 1638.0,1099.0 L 1627.0,1097.8 L 1608.0,1078.0 L 1615.0,1074.0" style="stroke:#010101; fill:none;"/>
	<path d="M 1563.0,1075.0 C 1570.08,1082.94 1578.31,1088.23 1587.0,1080.0" style="stroke:#010101; fill:none;"/>
	<path d="M 1647.0,1075.0 C 1641.83,1079.2 1638.84,1082.96 1633.0,1078.0 L 1633.0,1078.0" style="stroke:#010101; fill:none;"/>
	<path d="M 1598.0,1078.0 L 1608.0,1078.0" style="stroke:#010101; fill:none;"/>
	<path d="M 1391.0,1081.0 C 1388.88,1083.17 1386.44,1085.34 1384.91,1088.0 C 1382.03,1093.03 1386.36,1097.12 1390.04,1100.23 C 1399.11,1107.9 1412.17,1105.54 1422.0,1111.88 C 1430.67,1117.46 1435.92,1126.81 1443.0,1134.0 C 1476.2,1167.65 1521.31,1198.94 1567.0,1212.09 C 1586.44,1217.69 1605.84,1218.84 1626.0,1217.96 C 1635.0,1217.57 1648.37,1212.65 1656.91,1217.01 C 1666.56,1221.95 1674.45,1239.93 1680.0,1249.0" style="stroke:#010101; fill:none;"/>
	<path d="M 1593.0,1081.0 C 1593.29,1086.58 1600.07,1103.33 1607.4,1093.84 C 1609.96,1090.51 1609.0,1084.94 1609.0,1081.0" style="stroke:#010101; fill:none;"/>
	<path d="M 1450.0,1083.0 L 1453.0,1083.0" style="stroke:#010101; fill:none;"/>
	<path d="M 1638.0,1083.0 L 1638.0,1094.0" style="stroke:#010101; fill:none;"/>
	<path d="M 1696.0,1084.0 L 1685.63,1095.09 L 1696.0,1110.0 C 1688.49,1116.17 1681.02,1118.24 1674.56,1126.0 C 1672.66,1128.29 1668.73,1131.48 1669.64,1134.87 C 1670.62,1138.53 1676.22,1140.12 1678.42,1143.09 C 1680.6,1146.06 1681.54,1151.77 1686.0,1152.37 C 1689.99,1152.9 1707.65,1136.94 1707.0,1133.0" style="stroke:#010101; fill:none;"/>
	<path d="M 1721.0,1090.0 L 1696.0,1111.0" style="stroke:#010101; fill:none;"/>
	<path d="M 1565.0,1109.0 C 1563.49,1108.43 1561.58,1107.98 1560.26,1107.01 C 1545.52,1096.2 1585.14,1089.52 1570.87,1104.69 C 1569.41,1106.25 1567.6,1107.59 1566.0,1109.0 C 1568.63,1112.4 1577.59,1120.29 1578.08,1124.04 C 1578.76,1129.23 1569.93,1133.12 1574.49,1138.61 C 1577.86,1142.65 1588.01,1143.17 1587.46,1135.99 C 1587.09,1131.19 1582.56,1129.19 1579.0,1127.0" style="stroke:#010101; fill:none;"/>
	<path d="M 1682.0,1094.0 L 1684.0,1096.0" style="stroke:#010101; fill:none;"/>
	<path d="M 1610.0,1095.0 C 1613.27,1100.34 1619.39,1099.0 1625.0,1099.0" style="stroke:#010101; fill:none;"/>
	<path d="M 1638.0,1099.0 L 1641.0,1102.0" style="stroke:#010101; fill:none;"/>
	<path d="M 573.0,1101.0 L 574.0,1102.0" style="stroke:#010101; fill:none;"/>
	<path d="M 1571.0,1137.0 C 1563.25,1136.48 1553.54,1140.43 1547.59,1132.79 C 1544.43,1128.74 1545.92,1122.11 1541.7,1118.74 C 1537.2,1115.16 1524.63,1117.84 1526.63,1108.0 C 1528.38,1099.4 1542.71,1100.69 1538.0,1110.0" style="stroke:#010101; fill:none;"/>
	<path d="M 1643.0,1102.0 L 1651.0,1107.0" style="stroke:#010101; fill:none;"/>
	<path d="M 1708.0,1134.0 L 1706.0,1122.0 L 1740.0,1102.0" style="stroke:#010101; fill:none;"/>
	<path d="M 573.0,1103.0 L 573.0,1105.0 L 575.0,1102.0" style="stroke:#010101; fill:none;"/>
	<path d="M 1748.0,1104.0 C 1740.12,1110.08 1725.55,1118.29 1720.89,1127.17 C 1716.37,1135.77 1733.36,1130.14 1736.0,1129.0" style="stroke:#010101; fill:none;"/>
	<path d="M 572.0,1106.0 L 572.0,1109.0 L 575.0,1106.0" style="stroke:#010101; fill:none;"/>
	<path d="M 1544.0,1119.0 C 1548.84,1114.49 1550.99,1109.27 1558.0,1108.0" style="stroke:#010101; fill:none;"/>
	<path d="M 571.0,1110.0 L 571.0,1116.0 L 570.0,1113.0" style="stroke:#010101; fill:none;"/>
	<path d="M 574.0,1110.0 L 572.0,1113.0" style="stroke:#010101; fill:none;"/>
	<path d="M 1696.0,1111.0 L 1706.0,1122.0" style="stroke:#010101; fill:none;"/>
	<path d="M 1624.0,1113.0 C 1626.47,1121.14 1626.26,1145.31 1618.0,1150.0" style="stroke:#010101; fill:none;"/>
	<path d="M 1764.0,1115.0 C 1751.56,1127.7 1740.73,1139.87 1724.0,1147.0 L 1733.0,1163.0 L 1727.0,1165.0 L 1730.0,1179.0 C 1749.66,1174.32 1774.8,1175.93 1782.0,1151.0" style="stroke:#010101; fill:none;"/>
	<path d="M 571.0,1117.0 C 568.247,1125.71 567.607,1135.12 565.091,1144.0 C 548.862,1201.26 535.94,1257.9 528.845,1317.0 C 524.117,1356.38 519.298,1396.24 521.039,1436.0 C 522.908,1478.67 531.753,1518.74 541.761,1560.0 C 554.337,1611.85 566.618,1662.03 585.939,1712.0 C 594.881,1735.13 605.928,1757.24 615.719,1780.0 C 623.646,1798.42 630.211,1818.26 639.403,1836.0 C 650.356,1857.14 669.772,1879.65 687.174,1895.75 C 709.407,1916.32 734.123,1935.64 761.0,1949.74 C 797.982,1969.13 839.789,1978.76 880.0,1988.4 C 920.134,1998.02 956.156,2007.79 998.0,2005.96 C 1056.33,2003.41 1114.73,1999.08 1173.0,1995.09 C 1195.06,1993.58 1218.2,1995.07 1240.0,1991.56 C 1297.88,1982.24 1355.56,1958.52 1411.0,1939.92 C 1445.02,1928.51 1475.66,1910.79 1507.0,1893.59 C 1515.44,1888.95 1533.4,1875.17 1542.0,1882.0 C 1484.23,1953.62 1424.58,2035.53 1400.73,2126.0 C 1386.02,2181.8 1386.72,2238.96 1387.0,2296.0 C 1387.23,2343.17 1385.74,2397.02 1402.09,2442.0 C 1411.09,2466.76 1428.68,2487.02 1440.83,2510.0 C 1459.73,2545.74 1474.16,2584.2 1494.86,2619.0 C 1507.96,2641.01 1528.19,2662.28 1536.0,2687.0" style="stroke:#010101; fill:none;"/>
	<path d="M 1703.0,1121.0 L 1698.0,1124.0 L 1707.0,1133.0" style="stroke:#010101; fill:none;"/>
	<path d="M 1652.0,1124.0 L 1667.0,1132.0" style="stroke:#010101; fill:none;"/>
	<path d="M 1679.0,1143.0 L 1698.0,1124.0" style="stroke:#010101; fill:none;"/>
	<path d="M 1729.0,1138.0 L 1720.0,1145.0 L 1715.0,1132.0 L 1718.0,1131.0" style="stroke:#010101; fill:none;"/>
	<path d="M 1709.0,1133.0 L 1714.0,1133.0" style="stroke:#010101; fill:none;"/>
	<path d="M 1780.0,1134.0 C 1773.57,1151.29 1750.38,1161.27 1733.0,1163.0" style="stroke:#010101; fill:none;"/>
	<path d="M 1670.0,1137.0 C 1665.06,1141.94 1654.88,1148.32 1658.0,1156.0 L 1674.0,1140.0" style="stroke:#010101; fill:none;"/>
	<path d="M 1728.0,1139.0 L 1732.0,1143.0" style="stroke:#010101; fill:none;"/>
	<path d="M 1726.0,1140.0 L 1730.0,1144.0" style="stroke:#010101; fill:none;"/>
	<path d="M 1701.0,1142.0 C 1707.32,1148.11 1711.77,1147.53 1720.0,1146.0" style="stroke:#010101; fill:none;"/>
	<path d="M 1620.0,1143.0 L 1617.0,1148.0" style="stroke:#010101; fill:none;"/>
	<path d="M 1721.0,1147.0 L 1724.0,1147.0" style="stroke:#010101; fill:none;"/>
	<path d="M 1619.0,1151.0 C 1616.45,1158.68 1609.94,1165.99 1603.0,1170.0" style="stroke:#010101; fill:none;"/>
	<path d="M 1449.0,1156.0 L 1455.0,1154.0" style="stroke:#010101; fill:none;"/>
	<path d="M 1613.0,1154.0 L 1616.0,1157.0" style="stroke:#010101; fill:none;"/>
	<path d="M 1686.0,1154.0 C 1686.38,1165.51 1698.87,1172.0 1709.0,1172.0 L 1710.0,1174.0 C 1703.37,1180.63 1688.6,1190.65 1687.0,1200.0 L 1688.0,1199.0" style="stroke:#010101; fill:none;"/>
	<path d="M 1611.0,1155.0 L 1615.0,1159.0" style="stroke:#010101; fill:none;"/>
	<path d="M 1658.0,1156.0 C 1659.97,1160.23 1669.37,1173.2 1674.87,1171.65 C 1678.68,1170.58 1683.16,1162.85 1686.0,1160.0" style="stroke:#010101; fill:none;"/>
	<path d="M 1608.0,1161.0 L 1611.0,1164.0" style="stroke:#010101; fill:none;"/>
	<path d="M 1605.0,1163.0 L 1608.0,1166.0" style="stroke:#010101; fill:none;"/>
	<path d="M 1728.0,1179.0 C 1722.15,1178.56 1719.0,1174.99 1715.0,1171.0 C 1718.82,1167.3 1721.6,1165.18 1727.0,1165.0" style="stroke:#010101; fill:none;"/>
	<path d="M 1453.0,1168.0 L 1464.0,1169.0" style="stroke:#010101; fill:none;"/>
	<path d="M 1677.0,1171.0 L 1682.0,1176.0 C 1676.09,1181.92 1670.9,1186.47 1675.0,1195.0 L 1687.0,1182.0 L 1682.0,1177.0" style="stroke:#010101; fill:none;"/>
	<path d="M 1710.0,1171.0 L 1715.0,1171.0" style="stroke:#010101; fill:none;"/>
	<path d="M 1672.0,1173.0 C 1668.48,1175.51 1663.04,1177.34 1660.69,1181.1 C 1655.55,1189.35 1664.8,1201.72 1671.0,1206.0 L 1659.0,1216.0" style="stroke:#010101; fill:none;"/>
	<path d="M 1468.0,1175.0 L 1474.0,1175.0" style="stroke:#010101; fill:none;"/>
	<path d="M 1478.0,1176.0 L 1474.0,1179.0" style="stroke:#010101; fill:none;"/>
	<path d="M 1711.0,1176.0 C 1723.56,1206.17 1769.85,1198.78 1794.0,1188.0" style="stroke:#010101; fill:none;"/>
	<path d="M 1688.0,1184.0 L 1682.0,1196.0 L 1689.0,1188.0" style="stroke:#010101; fill:none;"/>
	<path d="M 1484.0,1185.0 L 1483.0,1186.0" style="stroke:#010101; fill:none;"/>
	<path d="M 1491.0,1186.0 L 1485.0,1199.0" style="stroke:#010101; fill:none;"/>
	<path d="M 1002.0,1188.0 L 939.0,1218.0" style="stroke:#010101; fill:none;"/>
	<path d="M 1498.0,1188.0 L 1493.0,1200.0" style="stroke:#010101; fill:none;"/>
	<path d="M 1690.0,1192.0 L 1678.0,1203.0 C 1675.63,1198.55 1676.74,1196.64 1680.0,1193.0" style="stroke:#010101; fill:none;"/>
	<path d="M 1692.0,1193.0 C 1706.48,1207.17 1726.71,1216.71 1745.0,1225.0" style="stroke:#010101; fill:none;"/>
	<path d="M 1693.0,1195.0 L 1689.0,1199.0" style="stroke:#010101; fill:none;"/>
	<path d="M 1675.0,1196.0 L 1676.0,1197.0" style="stroke:#010101; fill:none;"/>
	<path d="M 1682.0,1196.0 L 1677.0,1201.0" style="stroke:#010101; fill:none;"/>
	<path d="M 1696.0,1198.0 L 1680.0,1212.0 C 1678.24,1201.83 1667.36,1214.15 1669.0,1221.0 L 1670.0,1218.0" style="stroke:#010101; fill:none;"/>
	<path d="M 1522.0,1201.0 L 1521.0,1202.0" style="stroke:#010101; fill:none;"/>
	<path d="M 1687.0,1201.0 L 1680.0,1208.0" style="stroke:#010101; fill:none;"/>
	<path d="M 1678.0,1203.0 L 1678.0,1207.0" style="stroke:#010101; fill:none;"/>
	<path d="M 1530.0,1206.0 L 1525.0,1226.0" style="stroke:#010101; fill:none;"/>
	<path d="M 1537.0,1206.0 C 1545.3,1213.3 1542.4,1224.46 1541.0,1234.0" style="stroke:#010101; fill:none;"/>
	<path d="M 1671.0,1206.0 L 1674.0,1206.0" style="stroke:#010101; fill:none;"/>
	<path d="M 1680.0,1212.0 L 1673.0,1221.0" style="stroke:#010101; fill:none;"/>
	<path d="M 1683.0,1212.0 C 1694.4,1221.86 1707.47,1226.35 1720.0,1234.05 C 1726.08,1237.79 1731.31,1244.42 1739.0,1241.0 C 1736.03,1239.62 1732.56,1237.35 1730.0,1240.0" style="stroke:#010101; fill:none;"/>
	<path d="M 1552.0,1214.0 L 1552.0,1224.0" style="stroke:#010101; fill:none;"/>
	<path d="M 1557.0,1215.0 L 1571.0,1228.0" style="stroke:#010101; fill:none;"/>
	<path d="M 1664.0,1216.0 L 1668.0,1220.0" style="stroke:#010101; fill:none;"/>
	<path d="M 2200.0,1216.0 C 2195.59,1219.51 2190.79,1223.35 2194.0,1229.0 L 2177.44,1235.18 L 2159.58,1258.71 L 2121.0,1290.0" style="stroke:#010101; fill:none;"/>
	<path d="M 2194.0,1229.0 C 2202.55,1227.85 2210.65,1224.45 2219.0,1222.38 C 2244.89,1215.93 2291.78,1216.49 2298.48,1250.0 C 2300.39,1259.56 2291.59,1272.31 2288.1,1281.0 C 2274.21,1315.6 2240.44,1345.14 2217.4,1374.0 C 2195.4,1401.55 2174.73,1431.63 2156.86,1462.0 C 2143.53,1484.66 2132.31,1510.09 2116.35,1531.0 C 2085.44,1571.48 2040.08,1595.66 1999.0,1624.03 C 1980.46,1636.82 1967.61,1654.37 1947.0,1664.75 C 1933.37,1671.62 1913.09,1681.11 1898.0,1683.0 C 1879.55,1685.3 1860.26,1678.96 1843.0,1673.33 C 1827.86,1668.39 1811.39,1661.37 1801.79,1648.0 C 1794.84,1638.32 1795.47,1629.66 1792.57,1619.0 C 1790.66,1611.98 1781.99,1607.03 1782.4,1599.0 C 1782.7,1593.12 1790.13,1587.13 1793.72,1583.0 C 1804.17,1570.96 1814.56,1558.84 1824.0,1546.0" style="stroke:#010101; fill:none;"/>
	<path d="M 1581.0,1223.0 L 1582.0,1234.0" style="stroke:#010101; fill:none;"/>
	<path d="M 1673.0,1225.0 L 1672.0,1223.0 L 1681.0,1233.0" style="stroke:#010101; fill:none;"/>
	<path d="M 923.0,1226.0 C 894.306,1247.86 875.687,1283.03 890.579,1319.0 C 894.609,1328.73 900.928,1336.32 908.0,1344.0" style="stroke:#010101; fill:none;"/>
	<path d="M 1656.0,1226.0 L 1662.0,1232.0" style="stroke:#010101; fill:none;"/>
	<path d="M 1672.0,1226.0 L 1674.0,1231.0" style="stroke:#010101; fill:none;"/>
	<path d="M 1612.0,1232.0 L 1608.0,1228.0 L 1623.0,1232.0" style="stroke:#010101; fill:none;"/>
	<path d="M 2190.0,1227.0 L 2190.0,1228.0" style="stroke:#010101; fill:none;"/>
	<path d="M 1593.0,1230.0 L 1590.0,1243.0" style="stroke:#010101; fill:none;"/>
	<path d="M 1597.0,1230.0 L 1598.0,1236.0" style="stroke:#010101; fill:none;"/>
	<path d="M 1603.0,1230.0 L 1607.0,1236.0" style="stroke:#010101; fill:none;"/>
	<path d="M 1628.0,1230.0 L 1632.0,1233.0" style="stroke:#010101; fill:none;"/>
	<path d="M 1722.0,1234.0 C 1726.48,1230.32 1728.86,1230.92 1734.0,1233.0" style="stroke:#010101; fill:none;"/>
	<path d="M 1637.0,1231.0 L 1644.0,1239.0" style="stroke:#010101; fill:none;"/>
	<path d="M 1647.0,1232.0 L 1655.0,1237.0" style="stroke:#010101; fill:none;"/>
	<path d="M 1670.0,1235.0 L 1671.0,1238.0" style="stroke:#010101; fill:none;"/>
	<path d="M 1725.0,1236.0 L 1730.0,1238.0" style="stroke:#010101; fill:none;"/>
	<path d="M 2170.0,1237.0 L 2175.0,1236.0" style="stroke:#010101; fill:none;"/>
	<path d="M 1671.0,1239.0 L 1673.0,1239.0" style="stroke:#010101; fill:none;"/>
	<path d="M 1672.0,1240.0 L 1679.0,1255.0" style="stroke:#010101; fill:none;"/>
	<path d="M 2143.0,1256.0 L 2121.0,1280.0" style="stroke:#010101; fill:none;"/>
	<path d="M 2017.0,1264.0 C 2003.09,1287.94 1989.22,1313.06 1977.06,1338.0 C 1975.15,1341.92 1975.57,1346.15 1973.36,1350.0 C 1965.26,1364.1 1955.01,1377.14 1946.46,1391.0 C 1914.53,1442.74 1879.74,1493.48 1838.0,1538.0" style="stroke:#010101; fill:none;"/>
	<path d="M 2012.0,1367.0 C 2027.02,1361.46 2041.32,1353.3 2056.0,1346.86 C 2090.14,1331.89 2124.55,1317.38 2159.0,1303.14 C 2190.93,1289.94 2228.02,1276.38 2263.0,1285.0" style="stroke:#010101; fill:none;"/>
	<path d="M 2051.0,1317.0 L 2100.0,1295.0" style="stroke:#010101; fill:none;"/>
	<path d="M 932.0,1332.0 C 929.79,1327.8 924.084,1320.15 925.708,1315.15 C 928.989,1305.04 960.398,1322.04 947.938,1331.3 C 945.631,1333.01 942.604,1333.84 940.0,1335.0" style="stroke:#010101; fill:none;"/>
	<path d="M 942.0,1317.0 L 934.0,1322.0" style="stroke:#010101; fill:none;"/>
	<path d="M 2031.0,1319.0 L 2039.0,1318.0" style="stroke:#010101; fill:none;"/>
	<path d="M 949.0,1322.0 L 932.0,1330.0" style="stroke:#010101; fill:none;"/>
	<path d="M 952.0,1329.0 C 958.852,1341.77 953.517,1359.96 956.518,1374.0 C 959.878,1389.72 971.245,1400.98 981.0,1413.0" style="stroke:#010101; fill:none;"/>
	<path d="M 2234.0,1330.0 C 2216.9,1354.27 2192.59,1372.89 2175.89,1398.0 C 2159.86,1422.09 2144.79,1447.45 2129.46,1472.0 C 2116.44,1492.86 2101.83,1515.47 2082.0,1530.52 C 2054.44,1551.43 2021.02,1557.42 1989.0,1568.0 C 1973.35,1573.17 1963.98,1584.88 1950.0,1592.65 C 1935.86,1600.51 1918.48,1599.24 1904.0,1593.0" style="stroke:#010101; fill:none;"/>
	<path d="M 946.0,1346.0 L 954.0,1343.0" style="stroke:#010101; fill:none;"/>
	<path d="M 2066.0,1348.0 C 2074.8,1344.27 2082.17,1347.5 2091.0,1349.0" style="stroke:#010101; fill:none;"/>
	<path d="M 2064.0,1356.0 C 2073.33,1353.17 2081.75,1354.88 2091.0,1357.0" style="stroke:#010101; fill:none;"/>
	<path d="M 2129.0,1357.0 C 2110.48,1415.43 2083.03,1464.36 2036.0,1505.28 C 2023.85,1515.85 2010.82,1524.54 1996.01,1530.95 C 1990.56,1533.31 1989.51,1537.47 1983.0,1536.0 L 1990.0,1534.0" style="stroke:#010101; fill:none;"/>
	<path d="M 2062.0,1364.0 C 2069.52,1357.46 2084.86,1362.5 2093.0,1366.0" style="stroke:#010101; fill:none;"/>
	<path d="M 2060.0,1371.0 L 2091.0,1373.0" style="stroke:#010101; fill:none;"/>
	<path d="M 2064.0,1377.0 L 2095.0,1381.0" style="stroke:#010101; fill:none;"/>
	<path d="M 2066.0,1386.0 L 2085.0,1390.0" style="stroke:#010101; fill:none;"/>
	<path d="M 2066.0,1395.0 L 2084.0,1401.0" style="stroke:#010101; fill:none;"/>
	<path d="M 1039.0,1421.0 C 1035.95,1409.44 1056.7,1405.4 1065.0,1403.8 C 1083.31,1400.27 1102.72,1398.65 1119.0,1409.7 C 1127.32,1415.34 1134.72,1424.2 1141.32,1431.71 C 1143.22,1433.88 1147.13,1437.62 1146.41,1440.85 C 1145.09,1446.83 1126.28,1444.02 1122.0,1443.0" style="stroke:#010101; fill:none;"/>
	<path d="M 2069.0,1405.0 L 2077.0,1408.0" style="stroke:#010101; fill:none;"/>
	<path d="M 1112.0,1407.0 C 1106.06,1410.81 1097.82,1408.81 1091.0,1408.56 C 1082.66,1408.25 1074.28,1409.35 1066.0,1410.0" style="stroke:#010101; fill:none;"/>
	<path d="M 1072.0,1415.0 C 1083.96,1415.1 1096.09,1417.1 1108.0,1418.21 C 1114.7,1418.83 1120.42,1420.48 1126.0,1416.0" style="stroke:#010101; fill:none;"/>
	<path d="M 2067.0,1417.0 L 2073.0,1418.0" style="stroke:#010101; fill:none;"/>
	<path d="M 986.0,1419.0 C 1002.76,1431.93 1025.52,1451.94 1049.0,1445.0" style="stroke:#010101; fill:none;"/>
	<path d="M 1078.0,1424.0 C 1091.03,1424.0 1104.01,1425.29 1117.0,1426.01 C 1123.09,1426.35 1128.26,1428.67 1133.0,1424.0" style="stroke:#010101; fill:none;"/>
	<path d="M 1141.0,1432.0 C 1129.38,1440.36 1103.85,1434.0 1090.0,1434.0" style="stroke:#010101; fill:none;"/>
	<path d="M 1097.0,1439.0 C 1110.13,1443.54 1122.43,1449.42 1136.0,1452.88 C 1140.6,1454.06 1147.09,1456.38 1151.84,1454.8 C 1157.63,1452.86 1151.2,1443.93 1147.0,1444.0" style="stroke:#010101; fill:none;"/>
	<path d="M 732.0,1446.0 C 733.312,1455.81 743.142,1461.0 747.926,1469.0 C 759.468,1488.3 769.613,1506.11 788.0,1520.1 C 799.054,1528.51 813.341,1532.68 824.0,1541.27 C 847.06,1559.88 866.118,1583.04 892.0,1598.12 C 924.349,1616.97 961.05,1623.99 994.996,1639.11 C 999.585,1641.15 1002.75,1645.35 1007.0,1648.0 C 1018.97,1655.43 1031.49,1661.92 1045.0,1666.1 C 1077.43,1676.15 1112.73,1678.03 1146.0,1684.81 C 1153.3,1686.29 1158.07,1692.0 1165.0,1693.52 C 1175.52,1695.81 1186.35,1694.01 1197.0,1697.0" style="stroke:#010101; fill:none;"/>
	<path d="M 1209.0,1451.0 C 1179.91,1486.75 1132.14,1490.98 1095.0,1464.0" style="stroke:#010101; fill:none;"/>
	<path d="M 766.0,1455.0 C 788.358,1458.29 810.177,1464.35 832.0,1470.12 C 847.705,1474.26 866.741,1479.21 879.999,1488.93 C 888.757,1495.34 894.349,1505.78 901.296,1514.0 C 914.428,1529.53 929.505,1544.42 947.0,1555.0" style="stroke:#010101; fill:none;"/>
	<path d="M 2033.0,1463.0 L 2044.0,1461.0" style="stroke:#010101; fill:none;"/>
	<path d="M 2028.0,1470.0 L 2050.0,1466.0" style="stroke:#010101; fill:none;"/>
	<path d="M 2013.0,1483.0 L 2044.0,1477.0" style="stroke:#010101; fill:none;"/>
	<path d="M 1995.0,1492.0 C 2010.02,1487.96 2023.12,1487.0 2039.0,1487.0" style="stroke:#010101; fill:none;"/>
	<path d="M 2001.0,1491.0 L 2030.0,1492.0" style="stroke:#010101; fill:none;"/>
	<path d="M 1978.0,1500.0 C 1985.92,1498.56 1994.79,1498.62 2001.0,1504.0" style="stroke:#010101; fill:none;"/>
	<path d="M 1988.0,1499.0 L 1989.0,1499.0" style="stroke:#010101; fill:none;"/>
	<path d="M 1999.0,1499.0 L 2015.0,1500.0" style="stroke:#010101; fill:none;"/>
	<path d="M 1940.0,1501.0 L 1914.0,1507.43 L 1888.0,1516.0 C 1890.93,1510.27 1897.2,1508.35 1903.0,1506.34 C 1916.95,1501.52 1931.82,1498.46 1946.0,1503.0" style="stroke:#010101; fill:none;"/>
	<path d="M 1985.0,1501.0 L 1986.0,1501.0" style="stroke:#010101; fill:none;"/>
	<path d="M 1990.0,1502.0 C 1988.91,1509.02 1984.03,1508.68 1978.0,1509.0" style="stroke:#010101; fill:none;"/>
	<path d="M 1964.0,1504.0 C 1972.01,1503.72 1973.96,1510.38 1972.0,1517.0" style="stroke:#010101; fill:none;"/>
	<path d="M 1949.0,1505.0 L 1900.0,1519.0" style="stroke:#010101; fill:none;"/>
	<path d="M 1961.0,1505.0 L 1916.0,1523.0" style="stroke:#010101; fill:none;"/>
	<path d="M 1958.0,1513.0 L 1947.0,1521.0 L 1965.0,1525.42 L 1983.0,1536.0" style="stroke:#010101; fill:none;"/>
	<path d="M 1877.0,1535.0 C 1886.88,1539.96 1908.3,1549.58 1919.0,1543.14 C 1929.93,1536.56 1931.46,1524.18 1946.0,1522.0" style="stroke:#010101; fill:none;"/>
	<path d="M 1929.0,1530.0 L 1931.0,1528.0" style="stroke:#010101; fill:none;"/>
	<path d="M 1924.0,1530.0 L 1927.0,1528.0" style="stroke:#010101; fill:none;"/>
	<path d="M 957.0,1558.0 C 979.197,1572.04 1005.64,1574.13 1029.0,1585.81 C 1072.04,1607.33 1111.36,1636.78 1156.0,1655.0" style="stroke:#010101; fill:none;"/>
	<path d="M 742.0,1562.0 C 743.399,1571.34 748.544,1580.12 751.657,1589.0 C 770.788,1643.58 810.423,1685.35 861.0,1712.69 C 886.076,1726.25 913.19,1733.51 939.0,1745.0" style="stroke:#010101; fill:none;"/>
	<path d="M 1542.0,1880.0 C 1557.39,1865.26 1576.26,1854.11 1590.83,1838.0 C 1634.4,1789.83 1667.8,1734.5 1708.2,1684.0 C 1724.56,1663.55 1741.54,1643.66 1758.84,1624.0 C 1765.36,1616.6 1772.17,1604.47 1781.0,1600.0" style="stroke:#010101; fill:none;"/>
	<path d="M 1903.0,1682.0 L 1908.0,1682.0" style="stroke:#010101; fill:none;"/>
	<path d="M 584.0,1724.0 C 582.066,1732.45 577.187,1740.77 574.217,1749.0 C 564.32,1776.44 552.656,1803.5 540.474,1830.0 C 524.065,1865.69 512.048,1899.17 483.91,1927.96 C 467.91,1944.33 441.798,1953.82 422.0,1964.86 C 385.525,1985.21 348.625,2004.89 307.0,2012.38 C 284.935,2016.36 262.275,2014.97 240.0,2016.06 C 195.0,2018.28 148.991,2019.05 104.0,2015.88 C 70.3273,2013.51 34.6928,2006.65 1.0,2009.0" style="stroke:#010101; fill:none;"/>
	<path d="M 946.0,1746.0 C 985.188,1756.14 1021.22,1747.22 1060.0,1742.0" style="stroke:#010101; fill:none;"/>
	<path d="M 1540.0,1880.0 L 1544.0,1878.0" style="stroke:#010101; fill:none;"/>
	<path d="M 878.0,1985.0 L 878.0,1987.0" style="stroke:#010101; fill:none;"/>
	<path d="M 406.0,2014.0 C 441.085,2013.28 475.544,1996.41 511.0,2003.0" style="stroke:#010101; fill:none;"/>
	<path d="M 0.0,2009.0 L 1.0,2009.0" style="stroke:#010101; fill:none;"/>
	<path d="M 455.0,2011.0 C 476.241,2008.26 501.607,2018.02 521.0,2025.8 C 527.891,2028.57 538.8,2031.86 542.0,2039.0 L 539.0,2041.0" style="stroke:#010101; fill:none;"/>
	<path d="M 1101.0,2228.0 C 1138.21,2232.36 1177.47,2227.34 1215.0,2229.91 C 1229.29,2230.89 1244.32,2230.01 1258.0,2235.0" style="stroke:#010101; fill:none;"/>
	<path d="M 1059.0,2233.0 C 1121.48,2238.96 1183.75,2242.56 1246.0,2251.73 C 1273.43,2255.77 1303.04,2258.99 1329.0,2269.0" style="stroke:#010101; fill:none;"/>
	<path d="M 802.0,2323.0 C 871.749,2314.19 937.823,2293.25 1005.0,2273.58 C 1025.08,2267.69 1044.76,2260.46 1065.0,2255.12 C 1072.84,2253.05 1082.95,2248.97 1091.0,2251.0" style="stroke:#010101; fill:none;"/>
</svg>
