<?xml version="1.0" ?>
<svg baseProfile="full" height="2687" version="1.1" width="2424" xmlns="http://www.w3.org/2000/svg" xmlns:ev="http://www.w3.org/2001/xml-events" xmlns:xlink="http://www.w3.org/1999/xlink">
	<defs/>
	<path d="M 1817.0,661.0 C 1819.24,643.618 1822.52,626.682 1821.97,609.0 C 1821.73,601.417 1817.47,592.147 1818.19,585.0 C 1818.84,578.581 1823.42,572.499 1826.32,567.0 C 1834.06,552.335 1841.41,538.112 1853.04,526.001 C 1867.08,511.38 1894.65,494.523 1913.96,509.558 C 1922.21,515.984 1925.03,530.652 1929.0,540.0 C 1935.92,556.307 1936.86,575.505 1938.09,593.0 C 1939.69,615.865 1942.07,639.305 1945.29,662.0 C 1949.99,695.161 1955.37,728.59 1963.88,761.0 C 1971.91,791.57 1983.74,822.323 1985.91,854.0 C 1988.99,898.909 1973.76,944.283 1966.08,988.0 C 1963.72,1001.49 1965.45,1015.38 1963.71,1029.0 C 1960.94,1050.77 1950.86,1076.73 1939.0,1095.0 L 1940.0,1092.0" style="stroke:#010101; fill:none;"/>
	<path d="M 1817.0,537.0 L 1817.0,538.0" style="stroke:#010101; fill:none;"/>
	<path d="M 1820.0,553.0 L 1821.0,572.0" style="stroke:#010101; fill:none;"/>
	<path d="M 1914.0,559.0 C 1887.67,573.957 1870.98,604.224 1859.14,631.0 C 1841.88,670.028 1825.64,709.948 1810.95,750.0 C 1805.45,764.967 1798.2,779.599 1794.0,795.0" style="stroke:#010101; fill:none;"/>
	<path d="M 1817.0,587.0 L 1814.0,591.0" style="stroke:#010101; fill:none;"/>
	<path d="M 1284.0,766.0 C 1297.38,744.512 1312.18,723.254 1327.37,703.0 C 1333.22,695.199 1339.25,683.767 1347.1,677.948 C 1356.0,671.357 1369.89,667.879 1380.0,662.972 C 1403.6,651.519 1429.69,636.55 1455.0,629.765 C 1480.65,622.888 1506.91,621.291 1532.0,611.0" style="stroke:#010101; fill:none;"/>
	<path d="M 1925.0,611.0 C 1927.58,621.824 1925.74,633.925 1926.01,645.0 C 1926.4,660.915 1927.84,677.285 1930.61,693.0 C 1940.36,748.143 1968.19,808.132 1958.56,865.0 C 1953.01,897.784 1933.74,927.21 1918.31,956.0 C 1910.62,970.343 1913.88,986.967 1908.45,1002.0 C 1903.57,1015.53 1889.75,1025.53 1877.0,1031.0" style="stroke:#010101; fill:none;"/>
	<path d="M 1363.0,696.0 C 1361.24,696.94 1360.2,697.123 1362.0,695.0 C 1364.7,691.816 1366.93,693.873 1370.0,692.167 C 1380.14,686.534 1391.47,683.81 1402.0,677.667 C 1427.34,662.888 1454.01,649.522 1480.0,636.167 C 1499.52,626.138 1523.48,621.559 1544.0,614.0" style="stroke:#010101; fill:none;"/>
	<path d="M 1808.0,623.0 C 1811.94,633.514 1809.47,645.123 1809.0,656.0" style="stroke:#010101; fill:none;"/>
	<path d="M 1527.0,629.0 L 1531.0,628.0" style="stroke:#010101; fill:none;"/>
	<path d="M 1294.0,689.0 C 1327.41,671.421 1362.43,655.966 1398.0,643.308 C 1414.51,637.432 1430.3,630.365 1448.0,630.0" style="stroke:#010101; fill:none;"/>
	<path d="M 1507.0,630.0 C 1485.72,646.227 1458.3,657.231 1434.0,668.0" style="stroke:#010101; fill:none;"/>
	<path d="M 1522.0,630.0 C 1515.36,634.374 1507.71,635.206 1501.0,639.126 C 1485.65,648.097 1466.96,666.65 1449.0,669.0" style="stroke:#010101; fill:none;"/>
	<path d="M 1381.0,634.0 L 1424.0,632.0" style="stroke:#010101; fill:none;"/>
	<path d="M 1410.0,633.0 C 1401.58,638.74 1390.5,640.015 1381.0,643.435 C 1358.37,651.582 1336.06,659.977 1314.0,669.576 C 1306.02,673.047 1293.66,676.456 1287.27,682.383 C 1279.47,689.627 1274.32,703.72 1269.14,713.0 C 1257.5,733.85 1245.22,754.328 1233.28,775.0 C 1227.34,785.298 1220.08,803.719 1209.0,809.0" style="stroke:#010101; fill:none;"/>
	<path d="M 1163.0,730.0 C 1202.66,699.514 1250.86,677.993 1297.0,659.551 C 1319.46,650.573 1343.44,640.583 1367.0,635.0" style="stroke:#010101; fill:none;"/>
	<path d="M 1378.0,687.0 C 1388.41,678.124 1400.51,671.609 1412.0,664.305 C 1416.08,661.709 1422.38,659.325 1422.0,654.0 L 1467.0,636.0" style="stroke:#010101; fill:none;"/>
	<path d="M 1465.0,638.0 L 1476.0,637.0" style="stroke:#010101; fill:none;"/>
	<path d="M 1218.0,697.0 L 1217.0,705.0 C 1233.82,701.757 1251.4,687.149 1267.0,679.781 C 1303.84,662.381 1345.43,643.966 1386.0,638.0" style="stroke:#010101; fill:none;"/>
	<path d="M 1391.0,671.0 L 1387.0,671.0 L 1422.0,654.0" style="stroke:#010101; fill:none;"/>
	<path d="M 1354.0,669.0 L 1350.0,674.0" style="stroke:#010101; fill:none;"/>
	<path d="M 1367.0,681.0 L 1387.0,671.0" style="stroke:#010101; fill:none;"/>
	<path d="M 1389.0,673.0 L 1365.0,692.0" style="stroke:#010101; fill:none;"/>
	<path d="M 1331.0,675.0 C 1307.24,715.28 1280.49,753.76 1251.0,790.0" style="stroke:#010101; fill:none;"/>
	<path d="M 1364.0,678.0 C 1350.89,691.107 1331.64,706.862 1324.0,724.0 C 1334.54,721.044 1342.94,703.164 1354.0,704.0 L 1353.0,702.0" style="stroke:#010101; fill:none;"/>
	<path d="M 1338.0,681.0 L 1344.0,680.0" style="stroke:#010101; fill:none;"/>
	<path d="M 1805.0,680.0 C 1802.7,697.09 1795.49,718.248 1785.0,732.0" style="stroke:#010101; fill:none;"/>
	<path d="M 1197.0,810.0 L 1243.55,726.0 L 1260.61,696.222 L 1285.0,684.0" style="stroke:#010101; fill:none;"/>
	<path d="M 1267.0,685.0 L 1263.0,693.0" style="stroke:#010101; fill:none;"/>
	<path d="M 1304.0,691.0 C 1286.53,717.207 1272.61,745.547 1253.88,771.0 C 1247.29,779.966 1239.55,794.254 1228.0,797.0" style="stroke:#010101; fill:none;"/>
	<path d="M 1247.0,694.0 C 1216.35,735.832 1200.31,784.52 1175.0,829.0" style="stroke:#010101; fill:none;"/>
	<path d="M 1367.0,694.0 L 1364.0,697.0" style="stroke:#010101; fill:none;"/>
	<path d="M 1359.0,699.0 L 1358.0,701.0 L 1360.0,697.0" style="stroke:#010101; fill:none;"/>
	<path d="M 1356.0,699.0 L 1354.0,701.0" style="stroke:#010101; fill:none;"/>
	<path d="M 1361.0,699.0 L 1360.0,700.0" style="stroke:#010101; fill:none;"/>
	<path d="M 1358.0,701.0 L 1356.0,703.0" style="stroke:#010101; fill:none;"/>
	<path d="M 1217.0,705.0 C 1206.23,716.893 1200.6,736.396 1194.14,751.0 C 1182.17,778.083 1168.35,804.743 1157.0,832.0" style="stroke:#010101; fill:none;"/>
	<path d="M 1869.0,705.0 C 1901.1,752.2 1909.0,808.336 1909.0,864.0 C 1909.0,883.955 1906.31,903.436 1898.8,922.0 C 1897.55,925.083 1898.07,929.035 1896.24,931.791 C 1891.07,939.584 1881.62,937.658 1874.0,939.554 C 1867.89,941.074 1862.66,944.967 1858.0,949.0 C 1855.39,943.907 1857.59,940.178 1859.0,935.0" style="stroke:#010101; fill:none;"/>
	<path d="M 1206.0,713.0 L 1212.0,710.0" style="stroke:#010101; fill:none;"/>
	<path d="M 1203.0,714.0 C 1188.96,732.399 1179.38,754.932 1170.14,776.0 C 1161.07,796.682 1151.04,819.443 1148.0,842.0" style="stroke:#010101; fill:none;"/>
	<path d="M 1725.0,719.0 C 1730.72,746.294 1740.13,775.853 1750.0,802.0" style="stroke:#010101; fill:none;"/>
	<path d="M 1179.0,724.0 C 1165.17,762.067 1136.62,799.538 1133.0,841.0" style="stroke:#010101; fill:none;"/>
	<path d="M 1324.0,724.0 L 1290.0,768.0" style="stroke:#010101; fill:none;"/>
	<path d="M 1819.0,742.0 C 1822.11,733.965 1829.14,729.682 1837.0,727.0" style="stroke:#010101; fill:none;"/>
	<path d="M 1822.0,750.0 C 1827.64,742.601 1834.37,735.726 1843.0,732.0" style="stroke:#010101; fill:none;"/>
	<path d="M 1827.0,756.0 C 1830.06,746.994 1841.42,740.185 1850.0,737.0" style="stroke:#010101; fill:none;"/>
	<path d="M 1149.0,740.0 C 1140.18,767.524 1131.26,801.052 1130.0,830.0" style="stroke:#010101; fill:none;"/>
	<path d="M 1779.0,740.0 L 1774.0,747.0" style="stroke:#010101; fill:none;"/>
	<path d="M 1138.0,742.0 C 1131.58,751.423 1130.31,764.028 1128.2,775.0 C 1123.91,797.219 1119.06,820.306 1119.0,843.0" style="stroke:#010101; fill:none;"/>
	<path d="M 1830.0,764.0 C 1836.54,755.412 1845.58,748.248 1855.0,743.0" style="stroke:#010101; fill:none;"/>
	<path d="M 1838.0,764.0 L 1862.0,747.0" style="stroke:#010101; fill:none;"/>
	<path d="M 1119.0,751.0 C 1110.06,774.839 1109.22,804.841 1106.83,830.0 C 1105.93,839.456 1103.5,852.895 1106.0,862.0" style="stroke:#010101; fill:none;"/>
	<path d="M 1107.0,756.0 L 1102.83,780.0 L 1100.0,839.0" style="stroke:#010101; fill:none;"/>
	<path d="M 1091.0,758.0 C 1086.69,792.113 1091.0,827.725 1091.0,862.0" style="stroke:#010101; fill:none;"/>
	<path d="M 1846.0,769.0 L 1861.0,760.0" style="stroke:#010101; fill:none;"/>
	<path d="M 1868.0,768.0 L 1851.0,776.0" style="stroke:#010101; fill:none;"/>
	<path d="M 1868.0,778.0 L 1860.0,781.0" style="stroke:#010101; fill:none;"/>
	<path d="M 1868.0,790.0 L 1872.0,789.0" style="stroke:#010101; fill:none;"/>
	<path d="M 1440.0,793.0 L 1440.25,824.0 L 1437.93,839.941 L 1451.0,850.0 C 1462.99,836.853 1474.52,809.619 1464.0,793.0" style="stroke:#010101; fill:none;"/>
	<path d="M 1421.0,795.0 C 1420.4,808.868 1420.23,824.381 1417.81,838.0 C 1416.28,846.662 1411.91,855.119 1415.0,864.0 C 1418.56,860.442 1429.88,852.512 1429.23,847.0 C 1428.74,842.879 1422.76,838.757 1420.0,836.0 C 1425.13,832.001 1428.4,827.332 1430.0,821.0" style="stroke:#010101; fill:none;"/>
	<path d="M 1414.0,801.0 L 1408.25,826.0 L 1405.41,836.741 L 1415.0,846.0" style="stroke:#010101; fill:none;"/>
	<path d="M 1392.0,803.0 L 1392.03,834.852 L 1401.0,840.317 L 1414.0,853.0" style="stroke:#010101; fill:none;"/>
	<path d="M 1477.0,803.0 C 1493.3,829.352 1468.61,858.727 1446.0,871.012 C 1436.95,875.927 1430.09,873.936 1422.0,882.0 C 1429.4,889.403 1437.77,896.219 1444.71,904.004 C 1448.21,907.915 1452.57,914.868 1458.0,916.096 C 1475.55,920.066 1490.29,901.443 1504.0,896.0" style="stroke:#010101; fill:none;"/>
	<path d="M 1754.0,805.0 C 1758.04,834.993 1767.02,864.425 1773.34,894.0 C 1783.41,941.143 1792.0,991.687 1792.0,1040.0" style="stroke:#010101; fill:none;"/>
	<path d="M 1344.0,808.0 L 1351.0,835.0 C 1353.32,834.569 1355.63,834.084 1358.0,834.055 C 1375.72,833.834 1362.94,856.916 1356.53,863.545 C 1354.15,866.002 1350.23,867.635 1348.92,871.005 C 1345.21,880.568 1366.55,880.365 1371.0,878.0 L 1358.0,864.0" style="stroke:#010101; fill:none;"/>
	<path d="M 1371.0,818.0 L 1368.0,837.0" style="stroke:#010101; fill:none;"/>
	<path d="M 1513.0,822.0 C 1505.55,841.422 1495.01,854.956 1478.0,867.255 C 1472.4,871.302 1463.51,877.898 1456.0,876.107 C 1446.08,873.743 1435.0,858.003 1428.0,851.0" style="stroke:#010101; fill:none;"/>
	<path d="M 1317.0,825.0 C 1322.62,836.651 1315.59,848.279 1325.0,858.0 C 1330.66,851.865 1331.99,836.361 1321.0,836.0" style="stroke:#010101; fill:none;"/>
	<path d="M 1327.0,827.0 L 1327.0,836.0" style="stroke:#010101; fill:none;"/>
	<path d="M 1304.0,833.0 L 1308.07,860.0 L 1328.0,881.0 C 1324.21,884.972 1310.41,896.361 1305.0,895.106 C 1300.31,894.017 1296.86,888.511 1294.0,885.0 L 1304.0,875.0 C 1298.6,869.603 1292.05,864.376 1287.8,858.0 C 1284.77,853.443 1283.58,846.824 1277.0,849.0 L 1280.0,867.0 L 1270.0,872.0 L 1259.0,848.0" style="stroke:#010101; fill:none;"/>
	<path d="M 1329.0,836.0 C 1335.68,834.405 1343.74,832.662 1350.0,836.0" style="stroke:#010101; fill:none;"/>
	<path d="M 1432.0,834.0 L 1436.0,839.0" style="stroke:#010101; fill:none;"/>
	<path d="M 1287.0,835.0 C 1292.14,848.977 1294.14,859.137 1305.0,870.0 L 1324.0,857.0" style="stroke:#010101; fill:none;"/>
	<path d="M 1370.0,835.0 L 1389.0,839.0 L 1390.0,836.0" style="stroke:#010101; fill:none;"/>
	<path d="M 1350.0,836.0 C 1350.0,849.63 1347.79,857.212 1338.0,867.0 L 1333.0,859.0 L 1326.0,857.0" style="stroke:#010101; fill:none;"/>
	<path d="M 1431.0,836.0 C 1431.65,840.143 1432.97,841.828 1437.0,840.0" style="stroke:#010101; fill:none;"/>
	<path d="M 1404.0,837.0 L 1401.0,840.0" style="stroke:#010101; fill:none;"/>
	<path d="M 1318.0,848.0 L 1311.0,840.0 L 1319.0,838.0" style="stroke:#010101; fill:none;"/>
	<path d="M 1891.0,838.0 L 1878.0,855.0" style="stroke:#010101; fill:none;"/>
	<path d="M 1308.0,841.0 L 1311.0,840.0" style="stroke:#010101; fill:none;"/>
	<path d="M 1882.0,839.0 L 1877.0,847.0" style="stroke:#010101; fill:none;"/>
	<path d="M 1388.0,840.0 L 1384.41,858.0 L 1397.0,873.0 C 1394.42,875.578 1391.5,878.072 1389.32,881.0 C 1385.57,886.02 1388.74,896.364 1396.0,896.364 C 1402.83,896.364 1415.7,881.352 1414.0,875.0 L 1393.0,895.0" style="stroke:#010101; fill:none;"/>
	<path d="M 1295.0,858.0 C 1298.39,853.285 1298.5,849.204 1296.0,844.0 L 1306.0,842.0" style="stroke:#010101; fill:none;"/>
	<path d="M 1339.0,842.0 C 1339.0,849.498 1338.39,853.433 1333.0,859.0" style="stroke:#010101; fill:none;"/>
	<path d="M 1401.0,842.0 C 1399.93,851.359 1406.82,855.822 1413.0,862.0" style="stroke:#010101; fill:none;"/>
	<path d="M 1292.0,844.0 L 1296.0,844.0" style="stroke:#010101; fill:none;"/>
	<path d="M 1434.0,843.0 L 1431.0,846.0" style="stroke:#010101; fill:none;"/>
	<path d="M 1282.0,848.0 L 1289.0,845.0" style="stroke:#010101; fill:none;"/>
	<path d="M 1265.0,853.0 L 1277.0,849.0" style="stroke:#010101; fill:none;"/>
	<path d="M 1452.0,850.0 L 1447.0,869.0" style="stroke:#010101; fill:none;"/>
	<path d="M 1452.0,850.0 L 1462.0,860.0" style="stroke:#010101; fill:none;"/>
	<path d="M 1894.0,850.0 C 1887.64,856.667 1879.68,865.709 1878.0,875.0" style="stroke:#010101; fill:none;"/>
	<path d="M 1237.0,866.0 C 1242.27,875.261 1250.13,882.045 1251.0,893.0 L 1218.0,879.0 C 1226.99,867.448 1246.69,856.979 1261.0,854.0" style="stroke:#010101; fill:none;"/>
	<path d="M 1258.0,857.0 L 1266.0,868.0 L 1250.0,882.0" style="stroke:#010101; fill:none;"/>
	<path d="M 1290.0,861.0 L 1281.0,868.0" style="stroke:#010101; fill:none;"/>
	<path d="M 1897.0,861.0 C 1887.41,870.594 1877.08,879.7 1871.0,892.0 L 1872.0,889.0" style="stroke:#010101; fill:none;"/>
	<path d="M 1242.0,863.0 L 1250.0,880.0" style="stroke:#010101; fill:none;"/>
	<path d="M 1414.0,865.0 C 1412.48,874.551 1404.85,873.0 1397.0,873.0" style="stroke:#010101; fill:none;"/>
	<path d="M 1310.0,866.0 L 1326.0,882.0" style="stroke:#010101; fill:none;"/>
	<path d="M 1338.0,867.0 C 1339.43,871.703 1342.46,871.946 1347.0,872.0" style="stroke:#010101; fill:none;"/>
	<path d="M 261.0,868.0 C 272.435,883.451 272.836,909.979 279.811,928.0 C 295.94,969.674 320.009,1009.61 331.371,1053.0 C 334.795,1066.07 338.801,1078.98 342.36,1092.0 C 343.917,1097.7 346.732,1103.42 344.0,1109.0 C 337.412,1096.63 330.223,1079.02 329.0,1065.0" style="stroke:#010101; fill:none;"/>
	<path d="M 699.0,868.0 C 715.397,876.729 730.9,888.905 744.0,902.0 C 750.006,908.004 756.533,913.616 759.0,922.0" style="stroke:#010101; fill:none;"/>
	<path d="M 1281.0,868.0 C 1280.97,875.164 1279.48,877.912 1272.0,878.0 C 1272.0,881.584 1270.54,889.357 1273.03,892.218 C 1278.14,898.085 1288.76,888.211 1292.0,885.0 L 1280.0,878.0" style="stroke:#010101; fill:none;"/>
	<path d="M 636.0,869.0 C 654.648,875.963 675.453,881.128 691.0,894.0 C 684.326,897.51 674.339,889.018 668.0,886.0" style="stroke:#010101; fill:none;"/>
	<path d="M 1305.0,870.0 C 1305.21,877.44 1312.08,882.076 1317.0,887.0" style="stroke:#010101; fill:none;"/>
	<path d="M 1338.0,870.0 L 1328.0,880.0" style="stroke:#010101; fill:none;"/>
	<path d="M 604.0,871.0 C 613.003,872.69 623.658,875.382 631.0,881.0 L 620.0,883.0 C 631.383,891.035 646.459,895.972 659.0,902.247 C 681.531,913.52 704.916,927.486 724.0,944.0" style="stroke:#010101; fill:none;"/>
	<path d="M 1874.0,890.0 L 1895.0,871.0" style="stroke:#010101; fill:none;"/>
	<path d="M 687.0,872.0 C 711.317,885.538 733.771,905.075 753.0,925.0" style="stroke:#010101; fill:none;"/>
	<path d="M 1270.0,872.0 L 1272.0,878.0" style="stroke:#010101; fill:none;"/>
	<path d="M 1412.0,872.0 L 1414.0,874.0" style="stroke:#010101; fill:none;"/>
	<path d="M 536.0,873.0 L 548.0,876.0 C 537.498,882.227 515.187,878.0 503.0,878.0 C 491.689,878.0 481.676,881.175 471.0,881.762 C 451.306,882.844 431.63,881.519 412.0,884.0" style="stroke:#010101; fill:none;"/>
	<path d="M 1371.0,878.0 L 1394.0,874.0" style="stroke:#010101; fill:none;"/>
	<path d="M 570.0,875.0 L 576.0,877.0 L 566.0,880.0 L 576.0,885.0 C 562.742,890.564 545.861,879.91 532.0,884.0 C 548.078,893.604 573.566,894.545 592.0,896.0" style="stroke:#010101; fill:none;"/>
	<path d="M 1152.0,988.0 C 1154.83,953.307 1169.53,922.331 1192.83,897.039 C 1198.88,890.473 1209.1,874.397 1219.0,876.0" style="stroke:#010101; fill:none;"/>
	<path d="M 549.0,876.0 L 548.0,878.0" style="stroke:#010101; fill:none;"/>
	<path d="M 550.0,877.0 L 565.0,880.0" style="stroke:#010101; fill:none;"/>
	<path d="M 577.0,877.0 L 575.0,879.0" style="stroke:#010101; fill:none;"/>
	<path d="M 601.0,877.0 L 619.0,882.0" style="stroke:#010101; fill:none;"/>
	<path d="M 676.0,877.0 C 702.862,891.97 731.385,913.184 754.0,934.0" style="stroke:#010101; fill:none;"/>
	<path d="M 469.0,878.0 L 470.0,880.0" style="stroke:#010101; fill:none;"/>
	<path d="M 472.0,879.0 L 478.0,878.0" style="stroke:#010101; fill:none;"/>
	<path d="M 578.0,878.0 L 594.0,883.0 L 607.0,880.0" style="stroke:#010101; fill:none;"/>
	<path d="M 1215.0,881.0 L 1218.0,879.0" style="stroke:#010101; fill:none;"/>
	<path d="M 1416.0,879.0 L 1422.0,882.0" style="stroke:#010101; fill:none;"/>
	<path d="M 593.0,880.0 L 595.0,880.0" style="stroke:#010101; fill:none;"/>
	<path d="M 478.0,881.0 L 497.0,881.0 L 502.0,886.0 L 474.0,887.0 L 415.0,888.0" style="stroke:#010101; fill:none;"/>
	<path d="M 499.0,882.0 L 531.0,883.0" style="stroke:#010101; fill:none;"/>
	<path d="M 631.0,881.0 C 647.8,884.26 663.337,891.738 679.0,898.421 C 684.529,900.781 691.708,906.337 697.0,902.0 L 689.0,897.0" style="stroke:#010101; fill:none;"/>
	<path d="M 595.0,882.0 C 605.548,888.686 618.633,892.089 630.0,897.309 C 657.939,910.138 688.648,925.808 712.0,946.0" style="stroke:#010101; fill:none;"/>
	<path d="M 1421.0,882.0 C 1413.54,891.303 1410.63,910.48 1421.21,919.362 C 1426.05,923.422 1433.05,923.248 1439.0,924.0 C 1439.13,927.092 1440.48,931.019 1439.51,934.0 C 1437.24,940.967 1428.21,945.108 1424.09,951.004 C 1412.14,968.097 1395.94,983.963 1378.0,994.796 C 1364.83,1002.75 1350.02,1007.94 1337.0,1016.0 L 1350.0,1040.0" style="stroke:#010101; fill:none;"/>
	<path d="M 1441.0,898.0 C 1462.98,897.998 1484.46,889.949 1505.0,883.0" style="stroke:#010101; fill:none;"/>
	<path d="M 576.0,885.0 L 579.0,886.0 L 576.0,887.0" style="stroke:#010101; fill:none;"/>
	<path d="M 1292.0,885.0 L 1294.0,885.0" style="stroke:#010101; fill:none;"/>
	<path d="M 503.0,886.0 C 557.546,903.25 611.296,918.969 661.0,949.0" style="stroke:#010101; fill:none;"/>
	<path d="M 580.0,886.0 L 598.0,890.0" style="stroke:#010101; fill:none;"/>
	<path d="M 1419.0,886.0 L 1449.39,919.0 L 1450.99,932.114 L 1465.0,934.0" style="stroke:#010101; fill:none;"/>
	<path d="M 640.0,887.0 C 675.881,897.336 709.896,924.629 739.0,947.0" style="stroke:#010101; fill:none;"/>
	<path d="M 1889.0,887.0 L 1877.0,899.0 L 1885.0,900.0" style="stroke:#010101; fill:none;"/>
	<path d="M 522.0,888.0 L 538.0,888.0" style="stroke:#010101; fill:none;"/>
	<path d="M 1090.0,888.0 C 1077.23,905.888 1070.3,928.099 1064.29,949.0 C 1055.3,980.289 1048.11,1012.68 1044.0,1045.0" style="stroke:#010101; fill:none;"/>
	<path d="M 1214.0,888.0 C 1222.83,888.453 1228.14,897.052 1235.0,889.0" style="stroke:#010101; fill:none;"/>
	<path d="M 1297.0,889.0 L 1286.78,902.347 L 1265.0,908.659 L 1256.0,901.0 L 1272.0,893.0" style="stroke:#010101; fill:none;"/>
	<path d="M 1340.0,889.0 C 1347.5,894.137 1364.88,911.033 1360.0,921.0 L 1361.0,916.0" style="stroke:#010101; fill:none;"/>
	<path d="M 405.0,895.0 C 431.942,894.777 458.999,891.339 486.0,891.339 C 497.94,891.339 512.556,896.526 524.0,892.0" style="stroke:#010101; fill:none;"/>
	<path d="M 595.0,891.0 L 641.0,913.258 L 700.0,949.0" style="stroke:#010101; fill:none;"/>
	<path d="M 505.0,893.0 L 507.0,892.0" style="stroke:#010101; fill:none;"/>
	<path d="M 559.0,892.0 C 569.549,899.813 585.781,902.562 598.0,907.449 C 624.095,917.887 651.484,928.82 674.0,946.0" style="stroke:#010101; fill:none;"/>
	<path d="M 1871.0,892.0 L 1870.0,895.0" style="stroke:#010101; fill:none;"/>
	<path d="M 692.0,894.0 L 692.0,898.0" style="stroke:#010101; fill:none;"/>
	<path d="M 1252.0,894.0 C 1254.62,907.396 1262.8,916.048 1248.0,924.0 C 1251.53,929.952 1248.97,938.212 1249.0,945.0 C 1249.04,953.925 1251.65,963.103 1255.78,971.0 C 1275.29,1008.25 1328.77,1005.27 1351.84,974.0 C 1359.16,964.09 1366.14,950.551 1366.76,938.0 C 1366.98,933.695 1366.92,923.271 1361.0,925.0 L 1360.0,921.0" style="stroke:#010101; fill:none;"/>
	<path d="M 693.0,895.0 L 692.0,896.0" style="stroke:#010101; fill:none;"/>
	<path d="M 1197.0,899.0 C 1205.01,893.081 1214.52,894.489 1220.41,903.039 C 1223.88,908.067 1223.19,913.067 1230.0,915.0 L 1230.0,927.0 C 1249.43,927.858 1242.83,914.734 1252.0,904.0" style="stroke:#010101; fill:none;"/>
	<path d="M 1230.0,895.0 L 1222.0,903.0" style="stroke:#010101; fill:none;"/>
	<path d="M 508.0,896.0 C 538.289,900.079 569.84,911.924 598.0,923.397 C 614.187,929.991 631.554,936.539 645.0,948.0" style="stroke:#010101; fill:none;"/>
	<path d="M 695.0,896.0 L 695.0,901.0" style="stroke:#010101; fill:none;"/>
	<path d="M 1229.0,896.0 C 1233.89,902.391 1235.43,908.573 1230.0,915.0" style="stroke:#010101; fill:none;"/>
	<path d="M 398.0,904.0 C 418.469,901.413 441.501,897.211 462.0,898.104 C 501.164,899.811 542.467,913.811 579.0,927.319 C 601.921,935.793 628.1,943.931 647.0,960.0" style="stroke:#010101; fill:none;"/>
	<path d="M 1417.0,898.0 L 1438.0,912.907 L 1448.0,918.0" style="stroke:#010101; fill:none;"/>
	<path d="M 697.0,899.0 L 697.0,903.0 L 706.0,908.0 C 704.464,905.367 703.911,905.17 701.0,906.0" style="stroke:#010101; fill:none;"/>
	<path d="M 1265.0,899.0 L 1270.0,905.0" style="stroke:#010101; fill:none;"/>
	<path d="M 1505.0,905.0 C 1504.67,900.74 1508.19,899.927 1512.0,900.0 C 1506.01,907.185 1500.15,905.717 1492.0,907.0" style="stroke:#010101; fill:none;"/>
	<path d="M 1877.0,899.0 L 1865.0,911.0" style="stroke:#010101; fill:none;"/>
	<path d="M 1254.0,901.0 L 1256.0,901.0" style="stroke:#010101; fill:none;"/>
	<path d="M 696.0,906.0 L 704.0,903.0" style="stroke:#010101; fill:none;"/>
	<path d="M 1442.0,903.0 L 1442.0,909.0" style="stroke:#010101; fill:none;"/>
	<path d="M 1497.0,906.0 L 1503.0,903.0" style="stroke:#010101; fill:none;"/>
	<path d="M 1435.0,904.0 L 1435.0,911.0" style="stroke:#010101; fill:none;"/>
	<path d="M 399.0,911.0 L 397.0,913.0 C 418.968,906.955 442.181,905.581 465.0,906.406 C 474.465,906.748 483.629,905.701 493.0,908.0" style="stroke:#010101; fill:none;"/>
	<path d="M 1870.0,908.0 C 1876.32,905.574 1876.57,911.05 1876.0,916.0" style="stroke:#010101; fill:none;"/>
	<path d="M 468.0,908.0 L 482.0,912.0 L 477.0,917.0 C 520.181,930.656 567.201,933.851 606.0,960.0" style="stroke:#010101; fill:none;"/>
	<path d="M 706.0,908.0 C 720.317,918.224 735.765,928.205 747.0,942.0" style="stroke:#010101; fill:none;"/>
	<path d="M 1192.0,912.0 C 1201.63,905.444 1211.61,909.433 1222.0,912.0" style="stroke:#010101; fill:none;"/>
	<path d="M 433.0,911.0 L 440.0,913.0 L 422.0,916.156 L 373.0,922.0" style="stroke:#010101; fill:none;"/>
	<path d="M 1216.0,911.0 L 1199.0,935.0 C 1202.18,938.281 1206.39,940.26 1209.08,944.04 C 1211.03,946.77 1212.41,952.47 1216.06,953.4 C 1219.7,954.324 1221.36,949.502 1222.51,947.039 C 1225.68,940.251 1231.07,936.212 1229.0,928.0" style="stroke:#010101; fill:none;"/>
	<path d="M 389.0,913.0 L 396.0,912.0" style="stroke:#010101; fill:none;"/>
	<path d="M 482.0,912.0 C 533.059,921.902 580.294,938.209 627.0,961.0" style="stroke:#010101; fill:none;"/>
	<path d="M 401.0,913.0 L 408.0,913.0" style="stroke:#010101; fill:none;"/>
	<path d="M 440.0,913.0 L 477.0,917.0" style="stroke:#010101; fill:none;"/>
	<path d="M 591.0,973.0 L 559.0,960.895 L 478.0,938.0 L 442.0,931.349 L 428.0,927.0 L 448.0,925.0 L 439.0,921.0 L 466.0,918.713 L 478.0,916.0" style="stroke:#010101; fill:none;"/>
	<path d="M 477.0,914.0 L 479.0,914.0" style="stroke:#010101; fill:none;"/>
	<path d="M 1296.0,927.0 C 1283.64,936.981 1280.45,917.357 1289.13,914.931 C 1298.36,912.354 1294.5,923.997 1297.64,927.062 C 1302.04,931.348 1310.88,929.262 1316.0,928.0 L 1318.0,932.0 C 1322.12,929.726 1334.97,928.28 1332.2,936.96 C 1328.57,948.337 1318.55,940.371 1317.0,933.0" style="stroke:#010101; fill:none;"/>
	<path d="M 469.0,915.0 L 467.0,917.0" style="stroke:#010101; fill:none;"/>
	<path d="M 1228.0,915.0 L 1221.0,921.0 L 1223.0,921.0" style="stroke:#010101; fill:none;"/>
	<path d="M 1874.0,915.0 L 1871.0,919.0" style="stroke:#010101; fill:none;"/>
	<path d="M 1451.0,918.0 L 1456.0,917.0" style="stroke:#010101; fill:none;"/>
	<path d="M 1192.0,922.0 C 1196.03,917.927 1201.85,919.76 1207.0,921.0" style="stroke:#010101; fill:none;"/>
	<path d="M 1444.0,919.0 L 1439.0,924.0" style="stroke:#010101; fill:none;"/>
	<path d="M 1200.0,920.0 L 1195.0,925.0" style="stroke:#010101; fill:none;"/>
	<path d="M 1364.0,920.0 L 1364.0,923.0" style="stroke:#010101; fill:none;"/>
	<path d="M 549.0,956.0 C 544.974,962.139 520.894,953.578 514.0,952.2 L 428.0,935.0 C 417.946,932.989 402.794,933.729 397.0,924.0 L 439.0,921.0" style="stroke:#010101; fill:none;"/>
	<path d="M 1210.0,922.0 C 1220.47,926.779 1217.1,934.836 1223.0,943.0" style="stroke:#010101; fill:none;"/>
	<path d="M 1221.0,922.0 L 1218.0,925.0" style="stroke:#010101; fill:none;"/>
	<path d="M 1857.0,926.0 C 1861.38,918.501 1868.5,923.63 1872.0,929.0" style="stroke:#010101; fill:none;"/>
	<path d="M 397.0,928.0 C 394.777,926.537 393.076,925.36 396.0,924.0" style="stroke:#010101; fill:none;"/>
	<path d="M 402.0,924.0 C 406.099,930.318 421.121,925.517 428.0,928.0" style="stroke:#010101; fill:none;"/>
	<path d="M 321.0,929.0 L 393.0,925.0" style="stroke:#010101; fill:none;"/>
	<path d="M 448.0,925.0 C 485.003,927.921 521.853,937.389 557.0,949.001 C 568.914,952.937 579.987,959.566 592.0,963.0" style="stroke:#010101; fill:none;"/>
	<path d="M 1361.0,925.0 L 1364.0,944.0" style="stroke:#010101; fill:none;"/>
	<path d="M 400.0,927.0 L 401.0,927.0" style="stroke:#010101; fill:none;"/>
	<path d="M 1897.0,927.0 L 1893.0,933.0" style="stroke:#010101; fill:none;"/>
	<path d="M 1219.0,928.0 L 1229.0,928.0" style="stroke:#010101; fill:none;"/>
	<path d="M 1449.0,928.0 L 1441.0,934.0" style="stroke:#010101; fill:none;"/>
	<path d="M 1856.0,929.0 C 1848.53,941.792 1840.42,957.55 1837.0,972.0" style="stroke:#010101; fill:none;"/>
	<path d="M 1185.0,931.0 L 1198.0,935.0" style="stroke:#010101; fill:none;"/>
	<path d="M 410.0,932.0 C 402.08,936.227 389.875,934.549 381.0,935.05 C 357.288,936.389 330.581,940.201 307.0,936.0" style="stroke:#010101; fill:none;"/>
	<path d="M 1289.0,933.0 L 1287.0,951.0 C 1291.0,952.955 1295.59,957.035 1300.0,957.592 C 1308.69,958.689 1315.08,948.391 1320.0,943.0" style="stroke:#010101; fill:none;"/>
	<path d="M 1197.0,934.0 L 1184.0,940.0" style="stroke:#010101; fill:none;"/>
	<path d="M 1445.0,934.0 L 1449.0,934.0" style="stroke:#010101; fill:none;"/>
	<path d="M 1449.0,934.0 L 1454.0,934.0" style="stroke:#010101; fill:none;"/>
	<path d="M 1453.0,935.0 L 1460.0,938.0" style="stroke:#010101; fill:none;"/>
	<path d="M 1200.0,937.0 L 1194.0,950.0 C 1201.82,952.659 1205.26,954.349 1209.0,962.0 L 1216.0,955.0" style="stroke:#010101; fill:none;"/>
	<path d="M 1439.0,937.0 L 1479.0,951.0" style="stroke:#010101; fill:none;"/>
	<path d="M 1836.0,941.0 C 1826.39,950.81 1806.87,972.935 1811.0,988.0 C 1824.64,973.636 1825.16,943.567 1847.0,937.0" style="stroke:#010101; fill:none;"/>
	<path d="M 377.0,938.0 C 393.039,941.831 409.636,942.196 426.0,944.155 C 472.59,949.733 527.8,955.958 569.0,980.0" style="stroke:#010101; fill:none;"/>
	<path d="M 1845.0,938.0 L 1822.0,982.0" style="stroke:#010101; fill:none;"/>
	<path d="M 296.0,939.0 C 344.851,940.22 391.758,945.475 440.0,953.565 C 470.012,958.598 500.447,964.067 529.0,975.0" style="stroke:#010101; fill:none;"/>
	<path d="M 1362.0,939.0 L 1363.0,940.0" style="stroke:#010101; fill:none;"/>
	<path d="M 1364.0,939.0 L 1366.0,939.0" style="stroke:#010101; fill:none;"/>
	<path d="M 387.0,941.0 L 382.0,942.0" style="stroke:#010101; fill:none;"/>
	<path d="M 349.0,942.0 L 353.0,944.0" style="stroke:#010101; fill:none;"/>
	<path d="M 1287.0,951.0 C 1282.81,952.421 1280.02,955.74 1276.0,957.384 C 1257.79,964.84 1271.75,930.715 1277.0,948.0" style="stroke:#010101; fill:none;"/>
	<path d="M 1458.0,943.0 L 1461.0,944.0" style="stroke:#010101; fill:none;"/>
	<path d="M 327.0,944.0 L 348.0,945.0" style="stroke:#010101; fill:none;"/>
	<path d="M 355.0,944.0 C 365.313,950.813 382.009,950.217 394.0,952.46 C 425.418,958.336 458.54,962.941 488.0,976.0" style="stroke:#010101; fill:none;"/>
	<path d="M 1464.0,944.0 L 1475.0,946.0" style="stroke:#010101; fill:none;"/>
	<path d="M 1190.0,946.0 L 1194.0,949.0" style="stroke:#010101; fill:none;"/>
	<path d="M 1444.0,947.0 L 1452.0,946.0" style="stroke:#010101; fill:none;"/>
	<path d="M 1856.0,950.0 L 1847.0,972.0" style="stroke:#010101; fill:none;"/>
	<path d="M 328.0,951.0 L 375.0,959.0 C 366.082,963.435 353.555,957.642 344.0,957.0" style="stroke:#010101; fill:none;"/>
	<path d="M 1193.0,951.0 L 1194.0,956.0 L 1199.0,953.0 L 1205.0,955.0" style="stroke:#010101; fill:none;"/>
	<path d="M 351.0,955.0 L 351.0,957.0" style="stroke:#010101; fill:none;"/>
	<path d="M 1193.0,955.0 C 1174.84,981.567 1148.02,1014.2 1148.0,1048.0" style="stroke:#010101; fill:none;"/>
	<path d="M 1440.0,958.0 L 1450.0,955.0" style="stroke:#010101; fill:none;"/>
	<path d="M 358.0,957.0 L 358.0,959.0" style="stroke:#010101; fill:none;"/>
	<path d="M 360.0,957.0 L 360.0,959.0" style="stroke:#010101; fill:none;"/>
	<path d="M 1202.0,957.0 C 1202.79,960.872 1203.91,962.817 1208.0,963.0" style="stroke:#010101; fill:none;"/>
	<path d="M 368.0,958.0 L 368.0,960.0" style="stroke:#010101; fill:none;"/>
	<path d="M 375.0,959.0 C 398.667,959.488 424.635,967.725 447.0,975.0" style="stroke:#010101; fill:none;"/>
	<path d="M 550.0,960.0 L 553.0,959.0" style="stroke:#010101; fill:none;"/>
	<path d="M 373.0,962.0 L 396.0,968.0" style="stroke:#010101; fill:none;"/>
	<path d="M 1205.0,964.0 C 1203.25,974.692 1203.05,986.614 1196.77,996.0 C 1186.35,1011.6 1167.52,1022.03 1161.0,1040.0" style="stroke:#010101; fill:none;"/>
	<path d="M 1432.0,964.0 L 1443.0,965.0" style="stroke:#010101; fill:none;"/>
	<path d="M 781.0,965.0 C 813.366,977.558 838.426,1002.46 863.0,1025.96 C 877.136,1039.48 892.155,1052.19 906.0,1066.0" style="stroke:#010101; fill:none;"/>
	<path d="M 1851.0,967.0 C 1851.45,972.203 1854.53,977.781 1853.57,983.0 C 1850.95,997.17 1828.46,1004.3 1817.0,1009.0" style="stroke:#010101; fill:none;"/>
	<path d="M 1423.0,969.0 L 1434.0,970.0" style="stroke:#010101; fill:none;"/>
	<path d="M 1419.0,977.0 L 1418.0,975.0 L 1423.0,974.0" style="stroke:#010101; fill:none;"/>
	<path d="M 1415.0,982.0 L 1410.0,982.0 L 1417.0,977.0" style="stroke:#010101; fill:none;"/>
	<path d="M 591.0,1627.0 L 594.0,1631.0 L 586.58,1620.99 L 568.424,1592.0 L 537.287,1543.0 L 517.0,1505.0 C 506.902,1512.51 495.1,1494.35 489.63,1487.0 C 475.211,1467.62 468.902,1445.37 456.914,1425.0 C 451.588,1415.95 442.563,1409.49 437.15,1400.0 C 417.943,1366.33 400.356,1332.03 385.9,1296.0 C 370.176,1256.81 358.183,1216.06 339.575,1178.0 C 320.528,1139.04 288.098,1107.59 269.297,1068.0 C 259.337,1047.03 251.264,1022.35 255.286,999.0 C 258.111,982.605 278.171,976.219 291.0,986.0" style="stroke:#010101; fill:none;"/>
	<path d="M 1407.0,987.0 L 1415.0,988.0" style="stroke:#010101; fill:none;"/>
	<path d="M 1196.0,991.0 L 1199.0,989.0" style="stroke:#010101; fill:none;"/>
	<path d="M 1407.0,1006.0 L 1402.0,991.0 L 1410.0,997.0" style="stroke:#010101; fill:none;"/>
	<path d="M 1149.0,994.0 L 1141.0,1006.0" style="stroke:#010101; fill:none;"/>
	<path d="M 1386.0,998.0 L 1395.0,1004.0" style="stroke:#010101; fill:none;"/>
	<path d="M 665.0,1003.0 L 660.0,1016.0 L 696.0,1019.07 L 710.791,1020.82 L 719.0,1013.0" style="stroke:#010101; fill:none;"/>
	<path d="M 697.0,1003.0 L 691.0,1017.0" style="stroke:#010101; fill:none;"/>
	<path d="M 634.0,1004.0 L 635.0,1017.0 C 625.271,1018.23 620.231,1018.79 613.0,1026.0 L 609.0,1005.0" style="stroke:#010101; fill:none;"/>
	<path d="M 1364.0,1009.0 L 1384.0,1008.0" style="stroke:#010101; fill:none;"/>
	<path d="M 674.0,1009.0 C 674.0,1017.13 671.228,1034.41 677.434,1040.71 C 683.004,1046.37 692.92,1036.91 699.0,1037.0 C 701.457,1037.03 706.005,1039.45 707.972,1037.3 C 710.556,1034.48 709.97,1025.68 710.0,1022.0" style="stroke:#010101; fill:none;"/>
	<path d="M 1360.0,1012.0 L 1369.0,1020.0" style="stroke:#010101; fill:none;"/>
	<path d="M 614.0,1013.0 L 618.0,1019.0" style="stroke:#010101; fill:none;"/>
	<path d="M 736.0,1014.0 C 730.202,1022.8 728.0,1030.56 728.0,1041.0 C 725.311,1040.94 722.675,1040.43 720.005,1040.34 C 705.791,1039.9 725.232,1061.12 729.379,1047.01 C 729.861,1045.36 729.305,1043.61 729.0,1042.0" style="stroke:#010101; fill:none;"/>
	<path d="M 660.0,1016.0 C 657.986,1021.78 657.657,1027.47 662.0,1032.0 L 673.0,1029.0" style="stroke:#010101; fill:none;"/>
	<path d="M 1152.0,1030.0 C 1152.12,1032.71 1152.44,1035.33 1152.92,1038.0 C 1154.41,1046.1 1160.57,1047.13 1168.0,1045.62 C 1179.38,1043.3 1187.07,1032.39 1199.0,1031.17 C 1214.36,1029.6 1229.41,1034.33 1245.0,1032.46 C 1263.24,1030.26 1282.04,1027.88 1300.0,1023.99 C 1312.38,1021.3 1324.29,1017.0 1337.0,1016.0" style="stroke:#010101; fill:none;"/>
	<path d="M 1345.0,1016.0 C 1355.16,1018.19 1360.74,1024.44 1366.0,1033.0" style="stroke:#010101; fill:none;"/>
	<path d="M 657.0,1030.0 L 645.0,1037.0 C 641.759,1033.57 633.742,1022.67 639.603,1018.03 C 643.16,1015.21 652.638,1017.0 657.0,1017.0" style="stroke:#010101; fill:none;"/>
	<path d="M 636.0,1018.0 L 638.0,1018.0" style="stroke:#010101; fill:none;"/>
	<path d="M 612.0,1019.0 L 614.0,1019.0" style="stroke:#010101; fill:none;"/>
	<path d="M 690.0,1019.0 L 692.0,1039.0" style="stroke:#010101; fill:none;"/>
	<path d="M 592.0,1020.0 C 592.738,1034.7 598.725,1042.72 609.0,1053.0 C 604.202,1056.66 588.995,1062.38 583.0,1059.94 C 573.947,1056.25 565.923,1042.37 562.0,1034.0 C 548.888,1038.76 538.683,1049.27 529.001,1059.0 C 524.725,1063.3 518.439,1067.79 522.0,1074.0 L 517.0,1079.0 C 508.82,1070.73 502.294,1060.84 498.0,1050.0" style="stroke:#010101; fill:none;"/>
	<path d="M 593.0,1024.0 L 611.0,1020.0" style="stroke:#010101; fill:none;"/>
	<path d="M 560.0,1021.0 C 560.292,1040.17 580.359,1027.76 592.0,1025.0" style="stroke:#010101; fill:none;"/>
	<path d="M 619.0,1022.0 L 623.0,1041.0 L 610.0,1053.0" style="stroke:#010101; fill:none;"/>
	<path d="M 701.0,1022.0 L 701.0,1036.0" style="stroke:#010101; fill:none;"/>
	<path d="M 714.0,1022.0 L 729.0,1027.0" style="stroke:#010101; fill:none;"/>
	<path d="M 1329.0,1023.0 L 1332.0,1027.0" style="stroke:#010101; fill:none;"/>
	<path d="M 730.0,1025.0 C 733.207,1026.78 738.986,1027.24 741.107,1030.42 C 745.608,1037.16 739.02,1047.47 732.0,1048.0 L 735.0,1057.0 C 738.337,1053.51 740.549,1051.51 738.0,1047.0" style="stroke:#010101; fill:none;"/>
	<path d="M 613.0,1026.0 L 619.0,1035.0" style="stroke:#010101; fill:none;"/>
	<path d="M 514.0,1027.0 C 514.193,1039.74 518.375,1050.48 528.0,1059.0" style="stroke:#010101; fill:none;"/>
	<path d="M 743.0,1031.0 L 772.0,1041.69 L 824.0,1067.0" style="stroke:#010101; fill:none;"/>
	<path d="M 662.0,1032.0 C 662.461,1037.98 666.845,1040.2 671.0,1044.0 C 658.754,1055.88 652.729,1046.68 640.0,1042.02 C 634.798,1040.11 628.455,1041.0 623.0,1041.0" style="stroke:#010101; fill:none;"/>
	<path d="M 1304.0,1032.0 L 1307.0,1042.0" style="stroke:#010101; fill:none;"/>
	<path d="M 756.0,1035.0 C 755.339,1049.48 748.218,1052.15 736.0,1057.0" style="stroke:#010101; fill:none;"/>
	<path d="M 1298.0,1035.0 L 1302.0,1049.0" style="stroke:#010101; fill:none;"/>
	<path d="M 271.0,1037.0 C 286.236,1052.92 301.007,1070.85 313.498,1089.0 C 319.467,1097.67 326.679,1112.9 336.0,1118.0 L 334.0,1112.0" style="stroke:#010101; fill:none;"/>
	<path d="M 662.0,1037.0 L 647.0,1046.0" style="stroke:#010101; fill:none;"/>
	<path d="M 1282.0,1037.0 L 1281.0,1041.0" style="stroke:#010101; fill:none;"/>
	<path d="M 645.0,1038.0 L 642.0,1042.0" style="stroke:#010101; fill:none;"/>
	<path d="M 1292.0,1038.0 L 1292.0,1040.0" style="stroke:#010101; fill:none;"/>
	<path d="M 708.0,1039.0 C 709.65,1042.66 707.706,1051.4 701.981,1050.11 C 697.54,1049.12 693.901,1044.18 691.0,1041.0" style="stroke:#010101; fill:none;"/>
	<path d="M 1249.0,1039.0 L 1247.0,1042.0" style="stroke:#010101; fill:none;"/>
	<path d="M 1274.0,1042.0 L 1277.0,1040.0" style="stroke:#010101; fill:none;"/>
	<path d="M 504.0,1042.0 L 509.3,1059.0 L 517.0,1073.0 L 514.0,1076.0" style="stroke:#010101; fill:none;"/>
	<path d="M 711.0,1042.0 L 714.0,1042.0" style="stroke:#010101; fill:none;"/>
	<path d="M 1266.0,1042.0 L 1259.0,1049.0" style="stroke:#010101; fill:none;"/>
	<path d="M 641.0,1044.0 C 636.921,1052.76 632.418,1068.3 620.005,1057.86 C 617.876,1056.07 615.966,1053.96 614.0,1052.0" style="stroke:#010101; fill:none;"/>
	<path d="M 671.0,1044.0 L 678.0,1043.0" style="stroke:#010101; fill:none;"/>
	<path d="M 682.0,1044.0 C 686.423,1048.26 688.858,1050.18 694.0,1046.0" style="stroke:#010101; fill:none;"/>
	<path d="M 487.0,1046.0 C 484.398,1060.02 495.079,1070.73 484.0,1082.0 L 475.0,1067.0" style="stroke:#010101; fill:none;"/>
	<path d="M 780.0,1046.0 C 779.977,1054.16 781.216,1063.26 773.0,1067.0 C 773.949,1069.45 774.566,1072.59 776.512,1074.48 C 782.834,1080.63 783.141,1070.18 778.0,1066.0" style="stroke:#010101; fill:none;"/>
	<path d="M 714.0,1047.0 L 707.0,1051.0" style="stroke:#010101; fill:none;"/>
	<path d="M 741.0,1050.0 L 743.0,1052.0" style="stroke:#010101; fill:none;"/>
	<path d="M 304.0,1051.0 C 314.295,1065.21 325.139,1086.12 330.0,1103.0" style="stroke:#010101; fill:none;"/>
	<path d="M 317.0,1051.0 L 336.551,1100.0 L 347.0,1126.0 L 351.0,1120.0 C 346.322,1117.89 345.287,1113.72 344.0,1109.0" style="stroke:#010101; fill:none;"/>
	<path d="M 752.0,1052.0 L 772.0,1066.0" style="stroke:#010101; fill:none;"/>
	<path d="M 552.0,1053.0 C 555.084,1058.42 563.7,1074.0 571.0,1073.41 C 575.344,1073.06 579.314,1068.73 584.0,1068.0 L 584.0,1062.0" style="stroke:#010101; fill:none;"/>
	<path d="M 608.0,1055.0 C 610.692,1062.45 603.012,1076.42 594.0,1075.39 C 589.866,1074.92 586.754,1070.74 584.0,1068.0" style="stroke:#010101; fill:none;"/>
	<path d="M 755.0,1055.0 L 758.0,1065.0" style="stroke:#010101; fill:none;"/>
	<path d="M 1788.0,1055.0 C 1798.63,1139.08 1799.64,1223.31 1814.32,1307.0 C 1821.85,1349.95 1830.43,1394.14 1829.04,1438.0 C 1828.52,1454.05 1828.33,1474.06 1822.0,1489.0 L 1825.0,1488.0" style="stroke:#010101; fill:none;"/>
	<path d="M 529.0,1059.0 C 539.307,1068.25 556.563,1072.18 562.972,1085.0 C 569.093,1097.24 556.721,1099.21 553.144,1107.27 C 551.274,1111.49 546.185,1123.68 547.417,1128.0 C 548.5,1131.79 553.25,1133.81 553.38,1138.0 C 553.619,1145.74 545.695,1151.57 541.0,1156.0" style="stroke:#010101; fill:none;"/>
	<path d="M 634.0,1060.0 C 640.091,1067.67 626.65,1082.94 623.746,1092.0 C 616.917,1113.31 624.091,1141.47 644.0,1153.79 C 662.839,1165.44 693.103,1167.2 713.0,1157.0 C 735.552,1145.45 750.064,1110.61 740.518,1087.0 C 736.882,1078.01 728.095,1070.33 721.0,1064.0" style="stroke:#010101; fill:none;"/>
	<path d="M 466.0,1063.0 C 465.599,1074.37 475.095,1080.69 466.0,1090.0 C 460.01,1082.21 456.082,1073.95 456.0,1064.0" style="stroke:#010101; fill:none;"/>
	<path d="M 479.0,1063.0 L 489.0,1074.0" style="stroke:#010101; fill:none;"/>
	<path d="M 514.0,1066.0 L 510.0,1070.0" style="stroke:#010101; fill:none;"/>
	<path d="M 541.0,1070.0 C 537.926,1073.08 533.267,1076.52 532.337,1081.0 C 530.406,1090.31 546.879,1100.14 553.0,1105.0" style="stroke:#010101; fill:none;"/>
	<path d="M 784.0,1072.0 L 790.0,1074.0 L 785.0,1080.0 C 788.072,1081.29 792.009,1081.22 794.816,1082.88 C 799.149,1085.45 801.558,1090.7 806.001,1093.41 C 809.405,1095.49 813.469,1094.6 817.0,1096.32 C 822.699,1099.08 827.526,1104.43 833.0,1107.81 C 837.035,1110.3 848.859,1114.9 848.079,1120.91 C 847.32,1126.75 837.173,1126.38 833.0,1126.76 C 818.257,1128.14 799.609,1124.36 786.0,1131.82 C 761.886,1145.03 737.022,1162.35 711.0,1171.62 C 656.806,1190.92 595.073,1182.42 554.0,1141.0" style="stroke:#010101; fill:none;"/>
	<path d="M 658.0,1104.0 C 654.309,1103.25 649.669,1101.14 646.603,1104.51 C 643.343,1108.11 645.78,1116.12 651.015,1116.25 C 657.17,1116.39 657.682,1109.13 659.625,1105.17 C 662.675,1098.95 667.593,1095.87 673.0,1092.0 C 669.78,1087.27 662.849,1068.1 676.941,1074.47 C 681.801,1076.67 679.666,1082.24 683.318,1085.14 C 687.938,1088.81 693.797,1085.63 695.0,1093.0 C 698.477,1091.54 702.069,1088.18 705.995,1088.28 C 712.029,1088.43 713.099,1095.66 709.486,1099.44 C 706.412,1102.66 701.949,1102.06 698.0,1103.0 L 694.0,1094.0" style="stroke:#010101; fill:none;"/>
	<path d="M 523.0,1074.0 L 519.0,1081.0 C 525.981,1086.68 537.457,1104.1 547.0,1102.0" style="stroke:#010101; fill:none;"/>
	<path d="M 791.0,1074.0 L 794.0,1081.0" style="stroke:#010101; fill:none;"/>
	<path d="M 839.0,1074.0 L 846.0,1079.0" style="stroke:#010101; fill:none;"/>
	<path d="M 917.0,1074.0 L 953.349,1200.0 L 968.728,1281.0 L 973.0,1319.0" style="stroke:#010101; fill:none;"/>
	<path d="M 492.0,1075.0 C 494.296,1078.69 495.41,1085.69 499.275,1088.0 C 505.102,1091.49 511.7,1080.45 515.0,1077.0" style="stroke:#010101; fill:none;"/>
	<path d="M 524.0,1075.0 L 532.0,1080.0" style="stroke:#010101; fill:none;"/>
	<path d="M 570.0,1075.0 L 564.0,1084.0" style="stroke:#010101; fill:none;"/>
	<path d="M 782.0,1077.0 L 785.0,1080.0" style="stroke:#010101; fill:none;"/>
	<path d="M 517.0,1080.0 L 518.0,1081.0" style="stroke:#010101; fill:none;"/>
	<path d="M 446.0,1081.0 C 443.18,1094.54 460.737,1108.2 471.0,1114.06 C 474.525,1116.08 484.385,1118.78 484.698,1111.98 C 484.948,1106.54 478.48,1101.75 476.623,1097.0 C 474.771,1092.27 476.198,1088.45 473.0,1084.0" style="stroke:#010101; fill:none;"/>
	<path d="M 484.0,1083.0 L 488.0,1087.0 L 477.0,1098.0" style="stroke:#010101; fill:none;"/>
	<path d="M 682.0,1085.0 L 673.0,1090.0" style="stroke:#010101; fill:none;"/>
	<path d="M 477.0,1086.0 L 484.0,1086.0" style="stroke:#010101; fill:none;"/>
	<path d="M 488.0,1087.0 L 496.0,1088.0" style="stroke:#010101; fill:none;"/>
	<path d="M 466.0,1091.0 L 475.0,1095.0" style="stroke:#010101; fill:none;"/>
	<path d="M 505.0,1091.0 C 510.788,1104.81 527.962,1114.03 541.0,1103.0" style="stroke:#010101; fill:none;"/>
	<path d="M 1940.0,1091.0 L 1940.0,1092.0" style="stroke:#010101; fill:none;"/>
	<path d="M 698.0,1094.0 L 696.0,1097.0" style="stroke:#010101; fill:none;"/>
	<path d="M 1939.0,1095.0 C 1935.43,1102.09 1927.16,1108.02 1920.96,1112.87 C 1902.5,1127.33 1870.6,1146.28 1846.0,1142.56 C 1832.5,1140.52 1826.38,1133.16 1815.0,1127.46 C 1809.48,1124.69 1801.09,1123.44 1795.0,1122.0" style="stroke:#010101; fill:none;"/>
	<path d="M 454.0,1100.0 C 448.177,1108.44 461.012,1120.03 469.0,1114.0" style="stroke:#010101; fill:none;"/>
	<path d="M 662.0,1103.0 C 665.329,1106.49 668.496,1115.84 672.303,1117.8 C 681.229,1122.4 696.847,1111.63 698.0,1103.0" style="stroke:#010101; fill:none;"/>
	<path d="M 516.0,1107.0 C 508.15,1115.42 496.554,1117.72 486.0,1112.0" style="stroke:#010101; fill:none;"/>
	<path d="M 347.0,1109.0 L 346.0,1111.0" style="stroke:#010101; fill:none;"/>
	<path d="M 466.0,1110.0 L 461.0,1115.0" style="stroke:#010101; fill:none;"/>
	<path d="M 348.0,1113.0 L 346.0,1114.0" style="stroke:#010101; fill:none;"/>
	<path d="M 349.0,1114.0 L 348.0,1116.0" style="stroke:#010101; fill:none;"/>
	<path d="M 350.0,1117.0 L 350.0,1119.0" style="stroke:#010101; fill:none;"/>
	<path d="M 337.0,1119.0 C 341.735,1130.37 348.337,1145.18 357.0,1154.0 C 357.247,1149.57 355.655,1144.94 351.0,1144.0" style="stroke:#010101; fill:none;"/>
	<path d="M 348.0,1120.0 L 348.0,1123.0" style="stroke:#010101; fill:none;"/>
	<path d="M 352.0,1124.0 C 349.423,1130.24 351.561,1136.63 353.0,1143.0" style="stroke:#010101; fill:none;"/>
	<path d="M 348.0,1126.0 L 350.0,1128.0" style="stroke:#010101; fill:none;"/>
	<path d="M 352.0,1126.0 L 351.0,1131.0" style="stroke:#010101; fill:none;"/>
	<path d="M 348.0,1128.0 L 349.0,1132.0" style="stroke:#010101; fill:none;"/>
	<path d="M 546.0,1128.0 C 535.536,1138.47 535.694,1140.7 546.0,1151.0" style="stroke:#010101; fill:none;"/>
	<path d="M 353.0,1129.0 L 377.0,1186.0" style="stroke:#010101; fill:none;"/>
	<path d="M 349.0,1132.0 L 351.0,1136.0" style="stroke:#010101; fill:none;"/>
	<path d="M 474.0,1150.0 C 483.609,1154.28 493.824,1156.19 504.0,1152.97 C 515.257,1149.41 522.066,1141.12 534.0,1145.0 L 534.0,1144.0 L 535.0,1143.0 L 536.0,1142.0" style="stroke:#010101; fill:none;"/>
	<path d="M 534.0,1144.0 L 544.0,1154.0" style="stroke:#010101; fill:none;"/>
	<path d="M 533.0,1146.0 L 540.0,1155.0" style="stroke:#010101; fill:none;"/>
	<path d="M 532.0,1149.0 L 541.0,1157.0" style="stroke:#010101; fill:none;"/>
	<path d="M 531.0,1152.0 C 526.401,1162.88 515.063,1174.42 504.915,1180.34 C 499.959,1183.23 496.941,1174.72 493.0,1181.0 L 499.0,1182.0" style="stroke:#010101; fill:none;"/>
	<path d="M 357.0,1154.0 L 365.0,1168.0" style="stroke:#010101; fill:none;"/>
	<path d="M 495.0,1172.0 L 509.0,1176.0" style="stroke:#010101; fill:none;"/>
	<path d="M 564.0,1175.0 L 553.0,1182.0" style="stroke:#010101; fill:none;"/>
	<path d="M 718.0,1176.0 L 718.0,1181.0" style="stroke:#010101; fill:none;"/>
	<path d="M 500.0,1177.0 L 508.0,1177.0" style="stroke:#010101; fill:none;"/>
	<path d="M 728.0,1177.0 L 728.0,1183.0" style="stroke:#010101; fill:none;"/>
	<path d="M 747.0,1177.0 L 748.0,1185.0" style="stroke:#010101; fill:none;"/>
	<path d="M 492.0,1182.0 L 488.0,1180.0 L 493.0,1180.0" style="stroke:#010101; fill:none;"/>
	<path d="M 735.0,1178.0 L 736.0,1188.0" style="stroke:#010101; fill:none;"/>
	<path d="M 568.0,1181.0 L 562.0,1188.0" style="stroke:#010101; fill:none;"/>
	<path d="M 710.0,1181.0 L 710.0,1182.0" style="stroke:#010101; fill:none;"/>
	<path d="M 697.0,1183.0 L 696.0,1191.0" style="stroke:#010101; fill:none;"/>
	<path d="M 567.0,1195.0 L 574.0,1188.0" style="stroke:#010101; fill:none;"/>
	<path d="M 579.0,1188.0 L 571.0,1200.0" style="stroke:#010101; fill:none;"/>
	<path d="M 688.0,1188.0 L 687.0,1191.0" style="stroke:#010101; fill:none;"/>
	<path d="M 381.0,1189.0 C 386.164,1205.12 394.75,1220.02 400.459,1236.0 C 418.322,1286.01 436.979,1336.2 460.258,1384.0 C 473.153,1410.48 485.014,1437.36 497.551,1464.0 C 503.826,1477.33 512.921,1490.84 517.0,1505.0" style="stroke:#010101; fill:none;"/>
	<path d="M 678.0,1189.0 L 677.0,1196.0" style="stroke:#010101; fill:none;"/>
	<path d="M 595.0,1190.0 L 581.0,1208.0" style="stroke:#010101; fill:none;"/>
	<path d="M 604.0,1190.0 L 592.0,1207.0" style="stroke:#010101; fill:none;"/>
	<path d="M 646.0,1190.0 L 639.0,1201.0" style="stroke:#010101; fill:none;"/>
	<path d="M 670.0,1190.0 L 670.0,1196.0" style="stroke:#010101; fill:none;"/>
	<path d="M 607.0,1204.0 L 619.0,1192.0" style="stroke:#010101; fill:none;"/>
	<path d="M 663.0,1192.0 L 662.0,1195.0" style="stroke:#010101; fill:none;"/>
	<path d="M 597.0,1205.0 L 609.0,1193.0" style="stroke:#010101; fill:none;"/>
	<path d="M 631.0,1203.0 L 637.0,1194.0" style="stroke:#010101; fill:none;"/>
	<path d="M 625.0,1197.0 L 630.0,1195.0" style="stroke:#010101; fill:none;"/>
	<path d="M 953.0,1382.0 L 930.0,1447.0" style="stroke:#010101; fill:none;"/>
	<path d="M 1285.0,1421.0 C 1299.0,1465.15 1253.21,1506.59 1213.0,1512.0" style="stroke:#010101; fill:none;"/>
	<path d="M 1164.0,1493.0 C 1173.03,1483.97 1183.11,1476.43 1193.0,1468.39 C 1197.2,1464.98 1202.56,1461.87 1202.0,1456.0 L 1215.0,1456.0 C 1207.9,1471.45 1185.97,1483.03 1174.0,1495.0" style="stroke:#010101; fill:none;"/>
	<path d="M 1156.0,1494.0 C 1164.77,1478.81 1183.98,1456.01 1202.0,1456.0" style="stroke:#010101; fill:none;"/>
	<path d="M 1215.0,1456.0 C 1226.95,1456.01 1238.92,1457.23 1250.0,1462.0 C 1242.37,1476.58 1211.8,1489.67 1196.0,1492.0" style="stroke:#010101; fill:none;"/>
	<path d="M 1225.0,1457.0 C 1220.33,1470.73 1200.2,1483.8 1190.0,1494.0" style="stroke:#010101; fill:none;"/>
	<path d="M 1145.0,1521.0 C 1135.4,1518.08 1141.83,1504.0 1145.13,1498.0 C 1154.04,1481.8 1168.11,1462.76 1187.0,1458.0" style="stroke:#010101; fill:none;"/>
	<path d="M 1181.0,1460.0 L 1184.0,1463.0" style="stroke:#010101; fill:none;"/>
	<path d="M 1237.0,1460.0 L 1219.0,1478.0" style="stroke:#010101; fill:none;"/>
	<path d="M 924.0,1465.0 C 923.99,1479.85 922.063,1495.55 926.439,1510.0 C 935.286,1539.22 965.914,1560.58 996.0,1559.0" style="stroke:#010101; fill:none;"/>
	<path d="M 1823.0,1490.0 L 1824.0,1493.0 L 1825.0,1489.0" style="stroke:#010101; fill:none;"/>
	<path d="M 1819.0,1492.0 C 1808.66,1523.78 1801.37,1556.57 1789.95,1588.0 C 1777.31,1622.78 1758.2,1655.17 1741.36,1688.0 C 1726.11,1717.74 1712.46,1748.38 1693.49,1776.0 C 1683.78,1790.15 1671.26,1801.01 1660.27,1814.0 C 1631.58,1847.94 1601.9,1880.97 1572.17,1914.0 C 1549.82,1938.84 1528.84,1965.37 1504.0,1987.83 C 1483.25,2006.59 1458.85,2019.2 1435.0,2033.35 C 1389.47,2060.36 1344.71,2088.01 1292.0,2098.55 C 1248.7,2107.21 1197.98,2109.77 1155.0,2097.46 C 1125.12,2088.9 1096.48,2072.35 1067.0,2061.86 C 1005.19,2039.88 949.108,2008.45 894.0,1973.22 C 857.505,1949.89 821.958,1928.68 790.0,1898.91 C 715.631,1829.63 660.183,1743.85 610.716,1656.0 C 605.998,1647.62 599.646,1640.46 595.0,1632.0" style="stroke:#010101; fill:none;"/>
	<path d="M 1826.0,1494.0 C 1828.03,1541.14 1838.24,1588.54 1850.27,1634.0 C 1862.79,1681.33 1876.93,1727.78 1902.45,1770.0 C 1930.62,1816.61 1969.47,1855.26 2008.0,1893.01 C 2039.44,1923.82 2072.61,1958.16 2111.0,1980.38 C 2138.32,1996.2 2169.79,1997.49 2199.0,2007.09 C 2230.8,2017.54 2261.94,2030.62 2294.0,2040.28 C 2317.34,2047.31 2341.46,2050.71 2365.0,2056.88 C 2384.03,2061.88 2403.58,2070.14 2423.0,2073.0" style="stroke:#010101; fill:none;"/>
	<path d="M 516.0,1508.0 L 517.0,1508.0" style="stroke:#010101; fill:none;"/>
	<path d="M 1001.0,1523.0 L 1002.0,1516.0 C 1008.18,1513.71 1013.32,1514.87 1019.0,1518.0 L 1013.0,1531.0" style="stroke:#010101; fill:none;"/>
	<path d="M 1011.0,1517.0 C 1009.29,1520.98 1006.48,1528.81 1002.61,1531.07 C 999.232,1533.04 989.454,1528.94 988.921,1524.9 C 988.108,1518.73 997.586,1516.23 1002.0,1516.0" style="stroke:#010101; fill:none;"/>
	<path d="M 1020.0,1518.0 C 1033.86,1529.28 1045.93,1544.65 1063.0,1551.38 C 1074.18,1555.79 1086.51,1554.27 1098.0,1557.0" style="stroke:#010101; fill:none;"/>
	<path d="M 1027.0,1527.0 L 1025.0,1532.0" style="stroke:#010101; fill:none;"/>
	<path d="M 1168.0,1531.0 C 1151.55,1550.33 1128.5,1556.49 1104.0,1557.0" style="stroke:#010101; fill:none;"/>
	<path d="M 1004.0,1533.0 L 1007.0,1534.0" style="stroke:#010101; fill:none;"/>
	<path d="M 1182.0,1676.0 C 1207.04,1670.02 1226.73,1653.49 1251.0,1645.24 C 1297.37,1629.49 1348.65,1624.09 1393.0,1603.0" style="stroke:#010101; fill:none;"/>
	<path d="M 1451.0,1604.0 C 1442.53,1610.51 1434.02,1619.62 1425.0,1624.99 C 1420.66,1627.58 1415.48,1626.61 1411.0,1628.92 C 1400.5,1634.32 1390.78,1642.08 1381.0,1648.67 C 1360.02,1662.81 1340.81,1680.57 1318.0,1691.87 C 1301.11,1700.23 1281.47,1699.71 1265.0,1707.12 C 1233.47,1721.3 1201.85,1741.5 1168.0,1749.5 C 1137.54,1756.7 1106.91,1755.18 1076.0,1758.1 C 1062.03,1759.43 1048.32,1767.0 1034.0,1768.71 C 1012.1,1771.33 991.946,1766.05 971.0,1761.04 C 961.434,1758.75 952.48,1759.37 943.0,1756.0" style="stroke:#010101; fill:none;"/>
	<path d="M 589.0,1617.0 L 588.0,1622.0" style="stroke:#010101; fill:none;"/>
	<path d="M 591.0,1622.0 L 592.0,1626.0" style="stroke:#010101; fill:none;"/>
	<path d="M 591.0,1623.0 L 589.0,1625.0" style="stroke:#010101; fill:none;"/>
	<path d="M 974.0,1738.0 C 1007.69,1719.98 1038.46,1690.14 1077.0,1681.82 C 1090.08,1679.0 1104.82,1684.01 1118.0,1684.91 C 1136.69,1686.19 1155.64,1684.46 1174.0,1681.0" style="stroke:#010101; fill:none;"/>
	<path d="M 1386.0,1732.0 C 1370.13,1755.98 1354.36,1778.11 1332.83,1797.46 C 1325.5,1804.05 1316.18,1814.64 1306.0,1816.0" style="stroke:#010101; fill:none;"/>
	<path d="M 1302.0,1820.0 C 1229.9,1862.08 1139.84,1881.01 1062.0,1844.3 C 1052.75,1839.93 1042.36,1836.95 1034.0,1831.0" style="stroke:#010101; fill:none;"/>
	<path d="M 1733.0,2081.0 C 1774.79,2039.56 1822.91,2002.79 1870.0,1967.63 C 1894.72,1949.17 1921.07,1926.38 1950.0,1915.0" style="stroke:#010101; fill:none;"/>
	<path d="M 1760.0,2047.0 C 1786.44,2020.56 1811.9,1993.45 1840.0,1968.71 C 1850.17,1959.76 1861.13,1946.88 1874.0,1942.0" style="stroke:#010101; fill:none;"/>
	<path d="M 1429.0,2034.0 L 1431.0,2036.0" style="stroke:#010101; fill:none;"/>
	<path d="M 1037.0,2055.0 C 1041.16,2070.56 1049.29,2084.31 1055.57,2099.0 C 1066.0,2123.37 1074.83,2148.42 1084.73,2173.0 C 1094.98,2198.43 1106.2,2222.39 1108.83,2250.0 C 1111.93,2282.62 1101.03,2312.09 1091.72,2343.0 C 1079.97,2382.01 1068.64,2419.33 1046.31,2454.0 C 1034.69,2472.04 1018.65,2486.61 1004.2,2502.29 C 974.416,2534.57 943.283,2565.91 911.089,2595.7 C 878.54,2625.82 837.025,2651.61 810.0,2687.0" style="stroke:#010101; fill:none;"/>
	<path d="M 1767.0,2071.0 C 1756.25,2082.26 1749.26,2097.43 1741.83,2111.0 C 1728.65,2135.06 1716.32,2159.62 1703.74,2184.0 C 1677.95,2233.96 1645.87,2279.28 1615.0,2326.0" style="stroke:#010101; fill:none;"/>
	<path d="M 1182.0,2306.0 C 1153.64,2326.39 1136.97,2360.8 1116.0,2388.0" style="stroke:#010101; fill:none;"/>
	<path d="M 1148.0,2351.0 C 1164.65,2334.36 1185.52,2323.33 1207.0,2314.15 C 1211.11,2312.39 1229.14,2304.11 1229.0,2312.0" style="stroke:#010101; fill:none;"/>
</svg>
