<?xml version="1.0" ?>
<svg baseProfile="full" height="2909" version="1.1" width="2871" xmlns="http://www.w3.org/2000/svg" xmlns:ev="http://www.w3.org/2001/xml-events" xmlns:xlink="http://www.w3.org/1999/xlink">
	<defs/>
	<path d="M 1277.0,434.0 L 1292.0,442.0" style="stroke:#010101; fill:none;"/>
	<path d="M 1236.0,463.0 L 1243.0,461.0" style="stroke:#010101; fill:none;"/>
	<path d="M 1570.0,496.0 L 1611.0,497.0" style="stroke:#010101; fill:none;"/>
	<path d="M 1614.0,498.0 L 1615.0,498.0" style="stroke:#010101; fill:none;"/>
	<path d="M 1609.0,514.0 C 1616.18,514.572 1634.1,521.984 1639.0,518.0 L 1634.0,517.0" style="stroke:#010101; fill:none;"/>
	<path d="M 1639.0,518.0 L 1653.0,522.0" style="stroke:#010101; fill:none;"/>
	<path d="M 1638.0,522.0 L 1668.0,536.0" style="stroke:#010101; fill:none;"/>
	<path d="M 1700.0,557.0 C 1724.1,567.597 1740.18,595.801 1758.0,614.0" style="stroke:#010101; fill:none;"/>
	<path d="M 1727.0,568.0 C 1752.34,587.307 1766.44,619.248 1782.0,646.0" style="stroke:#010101; fill:none;"/>
	<path d="M 1786.0,655.0 L 1787.0,656.0" style="stroke:#010101; fill:none;"/>
	<path d="M 963.0,755.0 L 963.0,756.0" style="stroke:#010101; fill:none;"/>
	<path d="M 949.0,767.0 L 953.0,767.0" style="stroke:#010101; fill:none;"/>
	<path d="M 934.0,779.0 L 940.0,778.0" style="stroke:#010101; fill:none;"/>
	<path d="M 1840.0,817.0 L 1840.0,819.0" style="stroke:#010101; fill:none;"/>
	<path d="M 1083.0,902.0 L 1079.0,902.0 L 1094.0,900.0" style="stroke:#010101; fill:none;"/>
	<path d="M 1112.0,915.0 L 1112.0,918.0 C 1098.35,907.674 1069.58,918.346 1059.0,905.0 L 1079.0,902.0" style="stroke:#010101; fill:none;"/>
	<path d="M 1085.0,904.0 C 1099.05,904.0 1129.97,901.599 1140.0,913.0" style="stroke:#010101; fill:none;"/>
	<path d="M 975.0,913.0 C 982.188,917.356 988.485,913.612 996.0,912.256 C 1006.81,910.306 1016.9,906.849 1028.0,906.089 C 1037.62,905.43 1048.76,907.724 1058.0,905.0" style="stroke:#010101; fill:none;"/>
	<path d="M 1013.0,909.0 C 1015.3,915.933 1040.84,913.536 1048.0,914.061 C 1084.63,916.746 1118.52,926.793 1154.0,935.0 L 1155.0,934.0 L 1155.0,931.0 L 1113.0,918.0" style="stroke:#010101; fill:none;"/>
	<path d="M 1009.0,910.0 L 1012.0,913.0" style="stroke:#010101; fill:none;"/>
	<path d="M 1053.0,915.0 L 1057.0,915.0" style="stroke:#010101; fill:none;"/>
	<path d="M 978.0,916.0 C 968.436,921.865 952.148,924.113 941.0,925.0" style="stroke:#010101; fill:none;"/>
	<path d="M 1056.0,916.0 C 1074.53,926.776 1100.93,924.796 1121.0,931.958 C 1130.46,935.334 1140.31,945.672 1149.0,951.208 C 1156.2,955.798 1163.58,960.95 1169.95,966.648 C 1172.8,969.197 1172.0,973.737 1176.0,973.0 L 1175.0,970.0" style="stroke:#010101; fill:none;"/>
	<path d="M 1114.0,916.0 C 1127.3,917.211 1141.89,920.889 1153.99,926.584 C 1157.59,928.277 1159.35,931.788 1163.0,933.0 L 1161.0,930.0" style="stroke:#010101; fill:none;"/>
	<path d="M 1118.0,917.0 L 1116.0,919.0" style="stroke:#010101; fill:none;"/>
	<path d="M 1155.0,931.0 L 1159.0,931.0" style="stroke:#010101; fill:none;"/>
	<path d="M 1163.0,933.0 L 1175.0,942.0 L 1169.0,943.0 L 1171.0,941.0" style="stroke:#010101; fill:none;"/>
	<path d="M 1127.0,934.0 C 1144.24,934.788 1155.21,942.518 1169.0,951.189 C 1193.92,966.859 1219.31,987.412 1238.25,1010.0 C 1246.91,1020.34 1256.58,1031.04 1261.0,1044.0" style="stroke:#010101; fill:none;"/>
	<path d="M 1156.0,935.0 L 1167.0,942.0" style="stroke:#010101; fill:none;"/>
	<path d="M 1118.0,938.0 L 1149.0,956.799 L 1172.0,972.0" style="stroke:#010101; fill:none;"/>
	<path d="M 1146.0,940.0 C 1169.43,963.368 1199.55,981.223 1224.29,1003.67 C 1235.26,1013.62 1249.8,1026.81 1255.0,1041.0" style="stroke:#010101; fill:none;"/>
	<path d="M 1159.0,941.0 L 1165.0,941.0" style="stroke:#010101; fill:none;"/>
	<path d="M 1175.0,942.0 L 1180.0,945.0 C 1176.5,952.985 1197.27,964.934 1203.0,969.87 C 1228.9,992.17 1253.5,1015.34 1271.0,1045.0" style="stroke:#010101; fill:none;"/>
	<path d="M 1172.0,945.0 C 1177.55,947.463 1194.95,946.104 1191.0,955.0 L 1184.0,948.0" style="stroke:#010101; fill:none;"/>
	<path d="M 1180.0,945.0 L 1184.0,947.0" style="stroke:#010101; fill:none;"/>
	<path d="M 1190.0,951.0 L 1191.0,951.0" style="stroke:#010101; fill:none;"/>
	<path d="M 1195.0,952.0 C 1201.94,955.15 1210.13,957.619 1213.0,965.0 C 1220.8,961.555 1227.63,972.704 1230.0,979.0 L 1231.0,978.0 L 1231.0,975.0" style="stroke:#010101; fill:none;"/>
	<path d="M 1192.0,955.0 C 1221.17,980.239 1255.0,1004.12 1272.0,1040.0" style="stroke:#010101; fill:none;"/>
	<path d="M 1209.0,961.0 L 1210.0,963.0" style="stroke:#010101; fill:none;"/>
	<path d="M 1214.0,961.0 L 1215.0,962.0" style="stroke:#010101; fill:none;"/>
	<path d="M 1214.0,965.0 L 1228.0,977.0" style="stroke:#010101; fill:none;"/>
	<path d="M 1223.0,969.0 L 1221.0,971.0" style="stroke:#010101; fill:none;"/>
	<path d="M 1236.0,970.0 C 1256.38,983.48 1273.64,1002.93 1288.66,1022.0 C 1295.0,1030.04 1303.14,1038.59 1305.0,1049.0" style="stroke:#010101; fill:none;"/>
	<path d="M 1176.0,975.0 C 1180.09,968.862 1183.82,982.765 1186.0,985.0 L 1189.0,982.0 L 1185.0,978.0" style="stroke:#010101; fill:none;"/>
	<path d="M 1176.0,976.0 L 1182.0,980.0" style="stroke:#010101; fill:none;"/>
	<path d="M 1232.0,976.0 L 1240.0,986.0 L 1237.0,982.0" style="stroke:#010101; fill:none;"/>
	<path d="M 1187.0,980.0 L 1184.0,983.0" style="stroke:#010101; fill:none;"/>
	<path d="M 1232.0,980.0 L 1234.0,979.0" style="stroke:#010101; fill:none;"/>
	<path d="M 1234.0,981.0 L 1235.0,983.0" style="stroke:#010101; fill:none;"/>
	<path d="M 1190.0,982.0 C 1192.61,985.043 1193.65,986.291 1192.0,990.0 L 1215.0,1013.0" style="stroke:#010101; fill:none;"/>
	<path d="M 1187.0,985.0 L 1192.0,990.0" style="stroke:#010101; fill:none;"/>
	<path d="M 1240.0,986.0 C 1255.29,1001.29 1281.96,1020.33 1286.0,1043.0" style="stroke:#010101; fill:none;"/>
	<path d="M 1196.0,987.0 L 1240.0,1031.0" style="stroke:#010101; fill:none;"/>
	<path d="M 1254.0,1000.0 L 1256.0,1004.0" style="stroke:#010101; fill:none;"/>
	<path d="M 1261.0,1008.0 L 1264.0,1009.0" style="stroke:#010101; fill:none;"/>
	<path d="M 1262.0,1011.0 L 1274.0,1032.0" style="stroke:#010101; fill:none;"/>
	<path d="M 1015.0,1054.0 C 1041.23,1034.94 1074.6,1024.82 1107.0,1027.09 C 1115.59,1027.69 1123.53,1031.42 1132.0,1032.73 C 1171.59,1038.84 1204.93,1045.5 1234.83,1074.58 C 1241.56,1081.12 1246.56,1089.4 1252.0,1097.0" style="stroke:#010101; fill:none;"/>
	<path d="M 1120.0,1030.0 C 1120.21,1048.75 1139.4,1065.5 1158.0,1060.0 C 1154.61,1054.23 1151.07,1047.73 1153.0,1041.0" style="stroke:#010101; fill:none;"/>
	<path d="M 1590.0,1037.0 C 1570.77,1048.82 1551.11,1061.03 1535.0,1077.0" style="stroke:#010101; fill:none;"/>
	<path d="M 1195.0,1093.0 C 1205.82,1108.05 1190.72,1133.94 1176.0,1140.32 C 1143.58,1154.37 1106.44,1138.19 1097.9,1103.0 C 1095.62,1093.58 1097.78,1083.0 1103.22,1075.0 C 1105.64,1071.44 1111.35,1067.41 1111.94,1063.0 C 1112.56,1058.37 1107.08,1057.92 1104.69,1055.42 C 1101.51,1052.08 1100.41,1041.55 1103.0,1038.0" style="stroke:#010101; fill:none;"/>
	<path d="M 1102.0,1052.0 C 1098.26,1049.25 1090.48,1045.35 1093.0,1040.0" style="stroke:#010101; fill:none;"/>
	<path d="M 1600.0,1045.0 L 1577.0,1058.0 L 1593.0,1052.86 L 1625.0,1041.0" style="stroke:#010101; fill:none;"/>
	<path d="M 1526.0,1080.0 C 1533.43,1066.05 1545.14,1050.01 1559.0,1042.0" style="stroke:#010101; fill:none;"/>
	<path d="M 1546.0,1043.0 C 1535.12,1054.37 1524.68,1069.48 1521.0,1085.0" style="stroke:#010101; fill:none;"/>
	<path d="M 1569.0,1070.0 C 1588.89,1057.01 1619.26,1046.07 1643.0,1044.0" style="stroke:#010101; fill:none;"/>
	<path d="M 1081.0,1046.0 C 1085.25,1054.73 1094.48,1062.08 1104.0,1057.0" style="stroke:#010101; fill:none;"/>
	<path d="M 1514.0,1079.0 C 1516.34,1067.71 1521.45,1053.09 1531.0,1046.0" style="stroke:#010101; fill:none;"/>
	<path d="M 1090.0,1059.0 C 1083.25,1059.0 1075.67,1060.56 1070.81,1054.94 C 1068.6,1052.39 1065.93,1049.44 1069.0,1047.0" style="stroke:#010101; fill:none;"/>
	<path d="M 1583.0,1070.0 C 1605.53,1057.18 1637.44,1050.3 1663.0,1047.0" style="stroke:#010101; fill:none;"/>
	<path d="M 1666.0,1062.0 L 1662.0,1063.0 L 1684.0,1059.12 L 1742.0,1047.0" style="stroke:#010101; fill:none;"/>
	<path d="M 1045.0,1048.0 C 1041.31,1062.58 1064.49,1065.79 1073.0,1059.0" style="stroke:#010101; fill:none;"/>
	<path d="M 1058.0,1048.0 L 1068.0,1054.0" style="stroke:#010101; fill:none;"/>
	<path d="M 1592.0,1072.0 C 1621.01,1056.55 1661.55,1050.56 1694.0,1048.0" style="stroke:#010101; fill:none;"/>
	<path d="M 1174.0,1050.0 C 1175.94,1061.24 1187.43,1074.94 1198.0,1079.0 L 1198.0,1062.0" style="stroke:#010101; fill:none;"/>
	<path d="M 1161.0,1051.0 C 1161.51,1055.17 1162.14,1057.89 1159.0,1061.0" style="stroke:#010101; fill:none;"/>
	<path d="M 1813.0,1053.0 C 1798.92,1054.11 1784.99,1056.27 1771.0,1058.27 C 1764.8,1059.16 1758.45,1061.33 1754.0,1056.0 L 1777.0,1051.0" style="stroke:#010101; fill:none;"/>
	<path d="M 1032.0,1054.0 C 1037.52,1057.93 1046.1,1062.97 1053.0,1062.0" style="stroke:#010101; fill:none;"/>
	<path d="M 1000.0,1055.0 C 1002.33,1061.83 1008.12,1064.53 1014.0,1068.0 L 1010.0,1072.0 C 1016.25,1078.36 1019.52,1084.94 1010.0,1090.0" style="stroke:#010101; fill:none;"/>
	<path d="M 1748.0,1058.0 L 1747.0,1062.0 L 1745.0,1062.0 C 1744.17,1056.57 1749.61,1056.45 1754.0,1056.0" style="stroke:#010101; fill:none;"/>
	<path d="M 1015.0,1068.0 L 1019.0,1064.0 C 1015.47,1061.55 1013.79,1059.64 1018.0,1057.0" style="stroke:#010101; fill:none;"/>
	<path d="M 1111.0,1057.0 L 1131.0,1057.0" style="stroke:#010101; fill:none;"/>
	<path d="M 1281.0,1057.0 C 1293.48,1075.86 1311.13,1094.59 1318.91,1116.0 C 1329.54,1145.23 1322.42,1172.36 1320.0,1202.0" style="stroke:#010101; fill:none;"/>
	<path d="M 1745.0,1067.0 L 1839.0,1057.0" style="stroke:#010101; fill:none;"/>
	<path d="M 1578.0,1060.0 L 1577.0,1058.0" style="stroke:#010101; fill:none;"/>
	<path d="M 1717.0,1064.0 L 1712.0,1065.0 C 1721.12,1069.25 1734.92,1060.26 1744.0,1058.0" style="stroke:#010101; fill:none;"/>
	<path d="M 1750.0,1058.0 L 1756.0,1060.0" style="stroke:#010101; fill:none;"/>
	<path d="M 1574.0,1061.0 L 1572.0,1063.0 L 1575.0,1059.0" style="stroke:#010101; fill:none;"/>
	<path d="M 1515.0,1060.0 L 1510.0,1081.0" style="stroke:#010101; fill:none;"/>
	<path d="M 1161.0,1061.0 C 1167.32,1065.59 1178.03,1074.55 1186.0,1071.0" style="stroke:#010101; fill:none;"/>
	<path d="M 1571.0,1064.0 L 1572.0,1062.0" style="stroke:#010101; fill:none;"/>
	<path d="M 1739.0,1061.0 L 1743.0,1062.0" style="stroke:#010101; fill:none;"/>
	<path d="M 1748.0,1061.0 L 1750.0,1061.0" style="stroke:#010101; fill:none;"/>
	<path d="M 1538.0,1085.0 C 1546.86,1077.27 1559.05,1067.24 1570.0,1063.0" style="stroke:#010101; fill:none;"/>
	<path d="M 1720.0,1064.0 L 1725.0,1062.0" style="stroke:#010101; fill:none;"/>
	<path d="M 1613.0,1074.0 L 1662.0,1063.0" style="stroke:#010101; fill:none;"/>
	<path d="M 1020.0,1064.0 L 1031.0,1068.0 L 1018.0,1079.0" style="stroke:#010101; fill:none;"/>
	<path d="M 1051.0,1064.0 C 1049.19,1067.11 1049.19,1067.89 1051.0,1071.0 L 1056.0,1064.0" style="stroke:#010101; fill:none;"/>
	<path d="M 1779.0,1069.0 L 1838.0,1065.0" style="stroke:#010101; fill:none;"/>
	<path d="M 1568.0,1065.0 L 1569.0,1065.0" style="stroke:#010101; fill:none;"/>
	<path d="M 1666.0,1076.0 L 1712.0,1065.0" style="stroke:#010101; fill:none;"/>
	<path d="M 1633.0,1072.0 L 1662.0,1066.0" style="stroke:#010101; fill:none;"/>
	<path d="M 1824.0,1066.0 C 1825.91,1068.85 1827.75,1068.67 1831.0,1068.0 L 1828.0,1067.0" style="stroke:#010101; fill:none;"/>
	<path d="M 1000.0,1067.0 L 1010.0,1072.0" style="stroke:#010101; fill:none;"/>
	<path d="M 1022.0,1067.0 L 1015.0,1077.0" style="stroke:#010101; fill:none;"/>
	<path d="M 1022.0,1078.0 L 1048.0,1067.0" style="stroke:#010101; fill:none;"/>
	<path d="M 1712.0,1067.0 L 1714.0,1068.0" style="stroke:#010101; fill:none;"/>
	<path d="M 1820.0,1067.0 L 1823.0,1069.0" style="stroke:#010101; fill:none;"/>
	<path d="M 972.0,1068.0 C 982.166,1078.53 1000.16,1087.92 1015.0,1080.0" style="stroke:#010101; fill:none;"/>
	<path d="M 1016.0,1068.0 L 1019.0,1071.0" style="stroke:#010101; fill:none;"/>
	<path d="M 1025.0,1068.0 L 1025.0,1072.0" style="stroke:#010101; fill:none;"/>
	<path d="M 1031.0,1068.0 L 1038.0,1071.0" style="stroke:#010101; fill:none;"/>
	<path d="M 1682.0,1078.0 L 1711.0,1069.0" style="stroke:#010101; fill:none;"/>
	<path d="M 1832.0,1069.0 L 1855.0,1074.0" style="stroke:#010101; fill:none;"/>
	<path d="M 1031.0,1070.0 L 1031.0,1076.0" style="stroke:#010101; fill:none;"/>
	<path d="M 1501.0,1070.0 L 1496.0,1094.0" style="stroke:#010101; fill:none;"/>
	<path d="M 1848.0,1070.0 L 1850.0,1070.0" style="stroke:#010101; fill:none;"/>
	<path d="M 1039.0,1071.0 C 1043.04,1073.87 1045.44,1073.65 1050.0,1072.0" style="stroke:#010101; fill:none;"/>
	<path d="M 1158.0,1079.0 C 1154.69,1090.55 1165.1,1095.83 1175.0,1094.0 C 1174.08,1098.01 1172.23,1101.76 1169.61,1104.98 C 1161.49,1114.98 1141.69,1114.12 1135.46,1101.99 C 1129.7,1090.77 1141.55,1074.83 1153.0,1074.0" style="stroke:#010101; fill:none;"/>
	<path d="M 1861.0,1078.0 L 1862.0,1078.0" style="stroke:#010101; fill:none;"/>
	<path d="M 1198.0,1079.0 C 1204.37,1084.18 1212.79,1092.35 1214.0,1079.0" style="stroke:#010101; fill:none;"/>
	<path d="M 1211.0,1088.0 C 1225.02,1103.86 1242.45,1111.78 1254.34,1130.0 C 1259.1,1137.29 1265.69,1145.2 1261.0,1154.0" style="stroke:#010101; fill:none;"/>
	<path d="M 1035.0,1089.0 C 1039.39,1098.24 1046.95,1104.74 1053.83,1112.04 C 1093.85,1154.49 1144.01,1159.94 1199.0,1156.09 C 1210.4,1155.29 1222.63,1154.91 1234.0,1156.42 C 1239.49,1157.15 1249.65,1160.81 1254.86,1159.22 C 1258.24,1158.19 1258.59,1153.93 1259.0,1151.0" style="stroke:#010101; fill:none;"/>
	<path d="M 1176.0,1092.0 L 1176.0,1093.0" style="stroke:#010101; fill:none;"/>
	<path d="M 1009.0,1100.0 C 1020.78,1094.93 1024.92,1102.48 1036.0,1105.0" style="stroke:#010101; fill:none;"/>
	<path d="M 1222.0,1100.0 L 1226.0,1102.0 L 1226.0,1102.0" style="stroke:#010101; fill:none;"/>
	<path d="M 1533.0,1101.0 C 1509.7,1116.72 1487.68,1133.95 1467.0,1153.0" style="stroke:#010101; fill:none;"/>
	<path d="M 1025.0,1102.0 L 1011.0,1110.0" style="stroke:#010101; fill:none;"/>
	<path d="M 1224.0,1105.0 C 1238.16,1116.53 1249.12,1129.78 1255.0,1147.0" style="stroke:#010101; fill:none;"/>
	<path d="M 999.0,1124.0 C 1009.48,1116.71 1025.97,1108.93 1039.0,1112.0" style="stroke:#010101; fill:none;"/>
	<path d="M 1026.0,1120.0 L 1039.0,1117.0" style="stroke:#010101; fill:none;"/>
	<path d="M 1030.0,1124.0 L 1040.0,1124.0" style="stroke:#010101; fill:none;"/>
	<path d="M 1039.0,1128.0 L 1051.0,1126.0" style="stroke:#010101; fill:none;"/>
	<path d="M 1044.0,1135.0 L 1057.0,1129.0" style="stroke:#010101; fill:none;"/>
	<path d="M 1049.0,1144.0 L 1063.0,1134.0" style="stroke:#010101; fill:none;"/>
	<path d="M 1065.0,1142.0 L 1053.0,1150.0" style="stroke:#010101; fill:none;"/>
	<path d="M 1534.0,1171.0 C 1568.98,1149.59 1611.4,1146.12 1651.0,1151.83 C 1664.54,1153.78 1678.74,1153.34 1692.0,1156.89 C 1718.26,1163.9 1747.51,1182.35 1767.0,1201.0" style="stroke:#010101; fill:none;"/>
	<path d="M 1070.0,1175.0 L 1089.0,1154.0" style="stroke:#010101; fill:none;"/>
	<path d="M 1083.0,1167.0 L 1102.0,1155.0" style="stroke:#010101; fill:none;"/>
	<path d="M 1109.0,1166.0 C 1109.92,1160.15 1113.81,1158.36 1119.0,1161.0 C 1116.42,1163.86 1115.03,1165.24 1116.0,1169.0 L 1130.0,1159.0" style="stroke:#010101; fill:none;"/>
	<path d="M 1120.0,1161.0 L 1122.0,1160.0" style="stroke:#010101; fill:none;"/>
	<path d="M 1258.0,1160.0 L 1265.0,1160.0" style="stroke:#010101; fill:none;"/>
	<path d="M 1100.0,1170.0 L 1109.0,1162.0" style="stroke:#010101; fill:none;"/>
	<path d="M 1661.0,1166.0 L 1650.0,1182.0 L 1651.0,1170.0" style="stroke:#010101; fill:none;"/>
	<path d="M 1113.0,1168.0 L 1114.0,1169.0" style="stroke:#010101; fill:none;"/>
	<path d="M 1603.0,1168.0 C 1603.48,1190.46 1633.16,1191.23 1637.0,1170.0" style="stroke:#010101; fill:none;"/>
	<path d="M 1114.0,1169.0 L 1107.0,1178.0" style="stroke:#010101; fill:none;"/>
	<path d="M 1618.0,1175.0 L 1620.0,1182.0" style="stroke:#010101; fill:none;"/>
	<path d="M 1690.0,1175.0 L 1673.79,1189.23 L 1649.0,1184.96 L 1632.0,1185.0" style="stroke:#010101; fill:none;"/>
	<path d="M 1587.0,1179.0 C 1592.83,1187.44 1597.84,1185.39 1607.0,1185.0" style="stroke:#010101; fill:none;"/>
	<path d="M 1727.0,1179.0 C 1723.03,1182.97 1719.16,1187.63 1714.0,1190.08 C 1710.14,1191.91 1704.03,1191.62 1701.95,1196.06 C 1699.8,1200.64 1706.05,1204.81 1710.0,1204.92 C 1717.85,1205.14 1730.99,1200.93 1739.0,1199.0" style="stroke:#010101; fill:none;"/>
	<path d="M 1650.0,1182.0 L 1650.0,1184.0" style="stroke:#010101; fill:none;"/>
	<path d="M 1666.0,1182.0 L 1665.0,1188.0" style="stroke:#010101; fill:none;"/>
	<path d="M 1700.0,1182.0 L 1691.0,1193.0 L 1699.0,1196.0" style="stroke:#010101; fill:none;"/>
	<path d="M 1549.0,1183.0 L 1552.0,1184.0" style="stroke:#010101; fill:none;"/>
	<path d="M 1575.0,1184.0 L 1580.0,1189.0 C 1567.39,1198.61 1548.22,1201.2 1533.99,1208.24 C 1530.2,1210.11 1519.9,1212.12 1518.18,1216.11 C 1516.5,1219.99 1522.38,1222.13 1525.0,1223.17 C 1534.44,1226.94 1545.19,1227.33 1555.0,1230.16 C 1566.09,1233.35 1571.44,1245.54 1581.0,1251.52 C 1602.99,1265.28 1623.76,1272.78 1648.0,1281.0 L 1638.0,1311.0" style="stroke:#010101; fill:none;"/>
	<path d="M 1721.0,1187.0 L 1729.0,1184.0" style="stroke:#010101; fill:none;"/>
	<path d="M 1591.0,1186.0 L 1580.0,1189.0" style="stroke:#010101; fill:none;"/>
	<path d="M 1627.0,1186.0 C 1624.91,1196.52 1616.51,1204.9 1614.46,1216.0 C 1608.9,1246.18 1632.47,1260.43 1659.0,1264.0" style="stroke:#010101; fill:none;"/>
	<path d="M 1555.0,1188.0 L 1566.0,1194.0" style="stroke:#010101; fill:none;"/>
	<path d="M 1677.0,1191.0 L 1691.0,1193.0" style="stroke:#010101; fill:none;"/>
	<path d="M 1433.0,1192.0 L 1403.0,1290.0" style="stroke:#010101; fill:none;"/>
	<path d="M 1545.0,1192.0 L 1551.0,1199.0" style="stroke:#010101; fill:none;"/>
	<path d="M 1533.0,1195.0 L 1538.0,1203.0" style="stroke:#010101; fill:none;"/>
	<path d="M 1714.0,1205.0 C 1723.9,1213.02 1735.97,1207.52 1747.0,1205.0" style="stroke:#010101; fill:none;"/>
	<path d="M 1708.0,1206.0 C 1709.58,1210.35 1711.31,1210.61 1715.0,1208.0 L 1716.0,1207.0" style="stroke:#010101; fill:none;"/>
	<path d="M 1686.37,1208.17 C 1690.97,1206.29 1692.98,1212.7 1692.27,1216.0 C 1690.79,1222.94 1685.51,1229.82 1679.0,1232.63 C 1671.24,1235.98 1659.03,1234.1 1653.21,1227.9 C 1649.98,1224.44 1645.78,1215.65 1650.7,1211.71 C 1653.83,1209.22 1664.7,1215.65 1669.0,1215.91 C 1677.49,1216.41 1679.74,1210.89 1686.37,1208.17" style="stroke:#010101; fill:none;"/>
	<path d="M 1539.0,1208.0 L 1541.0,1226.0" style="stroke:#010101; fill:none;"/>
	<path d="M 1733.0,1209.0 L 1735.0,1217.0 C 1731.47,1216.9 1724.24,1219.61 1728.54,1224.23 C 1731.15,1227.04 1736.44,1228.05 1740.0,1229.0 L 1739.0,1221.0 L 1764.0,1217.0" style="stroke:#010101; fill:none;"/>
	<path d="M 1721.0,1210.0 C 1720.69,1236.66 1695.76,1281.23 1664.0,1265.0" style="stroke:#010101; fill:none;"/>
	<path d="M 1727.0,1210.0 C 1725.61,1218.7 1716.85,1215.59 1711.0,1213.0" style="stroke:#010101; fill:none;"/>
	<path d="M 1732.0,1210.0 L 1732.0,1216.0" style="stroke:#010101; fill:none;"/>
	<path d="M 1751.0,1211.0 C 1745.94,1213.0 1735.83,1213.85 1739.0,1221.0" style="stroke:#010101; fill:none;"/>
	<path d="M 1727.0,1215.0 L 1729.0,1217.0" style="stroke:#010101; fill:none;"/>
	<path d="M 1722.0,1219.0 L 1726.0,1222.0" style="stroke:#010101; fill:none;"/>
	<path d="M 1776.0,1234.0 C 1766.66,1234.36 1762.01,1236.74 1757.0,1228.0 L 1770.0,1226.0" style="stroke:#010101; fill:none;"/>
	<path d="M 1756.0,1243.0 L 1774.0,1254.0 C 1771.72,1256.16 1768.59,1259.91 1765.09,1259.75 C 1757.62,1259.4 1753.83,1248.76 1756.0,1243.0 C 1748.52,1238.1 1748.48,1231.99 1757.0,1228.0" style="stroke:#010101; fill:none;"/>
	<path d="M 853.0,1229.0 L 853.0,1233.0" style="stroke:#010101; fill:none;"/>
	<path d="M 1741.0,1230.0 L 1750.0,1232.0" style="stroke:#010101; fill:none;"/>
	<path d="M 1752.0,1232.0 L 1758.0,1235.0" style="stroke:#010101; fill:none;"/>
	<path d="M 1501.0,1241.0 L 1519.0,1252.0" style="stroke:#010101; fill:none;"/>
	<path d="M 1762.0,1243.0 L 1783.0,1241.0" style="stroke:#010101; fill:none;"/>
	<path d="M 1816.0,1255.0 C 1804.2,1260.93 1788.25,1265.72 1778.0,1255.0 C 1782.88,1250.49 1786.55,1250.0 1793.0,1250.0" style="stroke:#010101; fill:none;"/>
	<path d="M 1578.0,1251.0 L 1567.0,1258.0" style="stroke:#010101; fill:none;"/>
	<path d="M 1465.0,1252.0 L 1450.0,1257.0" style="stroke:#010101; fill:none;"/>
	<path d="M 1775.0,1255.0 L 1778.0,1255.0" style="stroke:#010101; fill:none;"/>
	<path d="M 1791.0,1261.0 C 1791.34,1256.64 1792.64,1255.34 1797.0,1255.0" style="stroke:#010101; fill:none;"/>
	<path d="M 1785.0,1259.0 L 1791.0,1256.0" style="stroke:#010101; fill:none;"/>
	<path d="M 1574.0,1262.0 L 1581.0,1259.0" style="stroke:#010101; fill:none;"/>
	<path d="M 1763.0,1260.0 C 1742.89,1274.32 1711.34,1281.85 1687.0,1283.09 C 1679.58,1283.48 1660.29,1280.9 1658.0,1289.0" style="stroke:#010101; fill:none;"/>
	<path d="M 1580.0,1265.0 L 1586.0,1262.0" style="stroke:#010101; fill:none;"/>
	<path d="M 1765.0,1271.0 L 1783.0,1281.0" style="stroke:#010101; fill:none;"/>
	<path d="M 1760.0,1274.0 L 1764.0,1277.0" style="stroke:#010101; fill:none;"/>
	<path d="M 1753.0,1275.0 L 1757.0,1278.0" style="stroke:#010101; fill:none;"/>
	<path d="M 1748.0,1276.0 L 1750.0,1278.0" style="stroke:#010101; fill:none;"/>
	<path d="M 1604.0,1279.0 L 1609.0,1277.0" style="stroke:#010101; fill:none;"/>
	<path d="M 1740.0,1278.0 L 1745.0,1280.0" style="stroke:#010101; fill:none;"/>
	<path d="M 1648.0,1281.0 L 1658.0,1283.0" style="stroke:#010101; fill:none;"/>
	<path d="M 1611.0,1282.0 L 1606.0,1287.0" style="stroke:#010101; fill:none;"/>
	<path d="M 1733.0,1282.0 L 1738.0,1286.0" style="stroke:#010101; fill:none;"/>
	<path d="M 1653.0,1283.0 L 1646.0,1304.0" style="stroke:#010101; fill:none;"/>
	<path d="M 1616.0,1296.0 L 1629.0,1284.0" style="stroke:#010101; fill:none;"/>
	<path d="M 1637.0,1284.0 L 1621.0,1299.0" style="stroke:#010101; fill:none;"/>
	<path d="M 1676.0,1285.0 C 1676.75,1295.0 1686.86,1297.8 1687.0,1286.0" style="stroke:#010101; fill:none;"/>
	<path d="M 1726.0,1285.0 L 1731.0,1289.0" style="stroke:#010101; fill:none;"/>
	<path d="M 1609.0,1298.0 L 1622.0,1286.0" style="stroke:#010101; fill:none;"/>
	<path d="M 1713.0,1286.0 L 1703.0,1298.0 L 1700.0,1292.0" style="stroke:#010101; fill:none;"/>
	<path d="M 1293.0,1292.0 C 1287.18,1320.22 1278.29,1343.22 1255.0,1362.0" style="stroke:#010101; fill:none;"/>
	<path d="M 1711.0,1293.0 C 1716.18,1300.19 1716.0,1312.34 1716.0,1321.0" style="stroke:#010101; fill:none;"/>
	<path d="M 1709.0,1294.0 L 1709.0,1296.0" style="stroke:#010101; fill:none;"/>
	<path d="M 852.0,1295.0 L 852.0,1298.0" style="stroke:#010101; fill:none;"/>
	<path d="M 1678.0,1295.0 L 1678.0,1299.0" style="stroke:#010101; fill:none;"/>
	<path d="M 1685.0,1297.0 L 1687.0,1317.0" style="stroke:#010101; fill:none;"/>
	<path d="M 1703.0,1299.0 L 1704.0,1301.0" style="stroke:#010101; fill:none;"/>
	<path d="M 1284.0,1361.0 C 1263.61,1382.32 1253.01,1410.72 1237.0,1435.0" style="stroke:#010101; fill:none;"/>
	<path d="M 1177.0,1440.0 C 1191.29,1416.66 1210.57,1387.62 1235.0,1374.0" style="stroke:#010101; fill:none;"/>
	<path d="M 1415.0,1417.0 C 1413.51,1451.79 1408.63,1489.36 1383.0,1515.0" style="stroke:#010101; fill:none;"/>
	<path d="M 1436.0,1451.0 L 1439.0,1495.0" style="stroke:#010101; fill:none;"/>
	<path d="M 1245.0,1453.0 C 1237.33,1478.96 1260.37,1508.15 1285.0,1514.0" style="stroke:#010101; fill:none;"/>
	<path d="M 1175.0,1459.0 C 1168.84,1475.34 1173.24,1500.87 1185.3,1513.91 C 1193.65,1522.93 1208.27,1531.02 1219.0,1537.0" style="stroke:#010101; fill:none;"/>
	<path d="M 1986.0,1484.0 L 1986.0,1485.0" style="stroke:#010101; fill:none;"/>
	<path d="M 1208.0,1500.0 C 1216.88,1494.96 1232.51,1499.25 1231.56,1511.94 C 1231.11,1517.89 1223.97,1514.77 1221.29,1512.71 C 1219.16,1511.08 1217.08,1509.34 1214.99,1507.66 C 1212.14,1505.38 1209.93,1503.08 1208.0,1500.0" style="stroke:#010101; fill:none;"/>
	<path d="M 1215.0,1498.0 L 1211.0,1499.0" style="stroke:#010101; fill:none;"/>
	<path d="M 1218.0,1498.0 L 1216.0,1501.0" style="stroke:#010101; fill:none;"/>
	<path d="M 1223.0,1499.0 L 1218.0,1500.0" style="stroke:#010101; fill:none;"/>
	<path d="M 1207.0,1500.0 L 1208.0,1500.0" style="stroke:#010101; fill:none;"/>
	<path d="M 1226.0,1500.0 L 1224.0,1502.0" style="stroke:#010101; fill:none;"/>
	<path d="M 1352.0,1500.0 C 1338.93,1509.97 1323.21,1514.0 1307.0,1514.0" style="stroke:#010101; fill:none;"/>
	<path d="M 1217.0,1504.0 L 1229.0,1504.0" style="stroke:#010101; fill:none;"/>
	<path d="M 1230.0,1508.0 L 1221.0,1510.0" style="stroke:#010101; fill:none;"/>
	<path d="M 1234.0,1515.0 C 1236.25,1523.24 1240.12,1530.8 1246.0,1537.0" style="stroke:#010101; fill:none;"/>
	<path d="M 1481.0,1515.0 C 1489.61,1532.14 1493.55,1556.05 1496.0,1575.0" style="stroke:#010101; fill:none;"/>
	<path d="M 1376.0,1537.0 C 1371.81,1538.13 1355.01,1544.81 1352.16,1540.73 C 1349.7,1537.2 1355.2,1533.35 1358.0,1532.56 C 1365.61,1530.45 1375.96,1531.87 1383.0,1535.0" style="stroke:#010101; fill:none;"/>
	<path d="M 1362.0,1534.0 L 1352.0,1538.0" style="stroke:#010101; fill:none;"/>
	<path d="M 1373.0,1534.0 L 1372.0,1537.0" style="stroke:#010101; fill:none;"/>
	<path d="M 1250.0,1539.0 C 1259.42,1549.23 1277.13,1557.79 1291.0,1559.0" style="stroke:#010101; fill:none;"/>
	<path d="M 1315.0,1554.0 C 1324.47,1553.51 1342.72,1545.12 1350.0,1539.0" style="stroke:#010101; fill:none;"/>
	<path d="M 1431.0,1540.0 C 1412.14,1565.02 1388.5,1560.23 1361.0,1560.0" style="stroke:#010101; fill:none;"/>
	<path d="M 1348.0,1542.0 L 1351.0,1544.0" style="stroke:#010101; fill:none;"/>
	<path d="M 1947.0,1549.0 L 1832.0,1658.0" style="stroke:#010101; fill:none;"/>
	<path d="M 1310.0,1557.0 L 1314.0,1557.0" style="stroke:#010101; fill:none;"/>
	<path d="M 1293.0,1585.0 L 1288.0,1604.0" style="stroke:#010101; fill:none;"/>
	<path d="M 1082.0,1679.0 C 1114.84,1660.31 1157.71,1643.03 1196.0,1643.0" style="stroke:#010101; fill:none;"/>
	<path d="M 1206.0,1650.0 C 1219.71,1662.07 1233.54,1681.91 1253.0,1685.66 C 1273.13,1689.53 1292.03,1676.16 1312.0,1681.64 C 1323.89,1684.91 1335.06,1692.02 1346.0,1697.58 C 1367.27,1708.38 1387.6,1719.67 1408.0,1732.0" style="stroke:#010101; fill:none;"/>
	<path d="M 1068.0,1689.0 C 1082.37,1694.23 1096.37,1700.96 1112.0,1702.22 C 1129.17,1703.59 1146.55,1699.84 1164.0,1702.43 C 1175.42,1704.12 1184.34,1710.54 1195.0,1714.3 C 1207.24,1718.61 1222.22,1721.56 1235.0,1724.33 C 1256.91,1729.08 1279.19,1726.96 1301.0,1731.09 C 1316.89,1734.11 1331.66,1742.5 1347.0,1747.48 C 1367.69,1754.2 1388.93,1756.11 1410.0,1760.89 C 1423.1,1763.86 1435.76,1770.29 1449.0,1772.0" style="stroke:#010101; fill:none;"/>
	<path d="M 1098.0,1743.0 C 1095.34,1755.8 1112.99,1771.98 1120.39,1781.0 C 1150.38,1817.6 1186.72,1840.0 1235.0,1840.0" style="stroke:#010101; fill:none;"/>
	<path d="M 1428.0,1743.0 L 1443.0,1751.0" style="stroke:#010101; fill:none;"/>
	<path d="M 1460.0,1775.0 C 1468.35,1775.43 1477.11,1779.42 1484.0,1784.0" style="stroke:#010101; fill:none;"/>
	<path d="M 1883.0,1776.0 L 1853.0,1819.0" style="stroke:#010101; fill:none;"/>
	<path d="M 1493.0,1786.0 L 1495.0,1787.0" style="stroke:#010101; fill:none;"/>
	<path d="M 1438.0,1788.0 L 1408.0,1810.0" style="stroke:#010101; fill:none;"/>
	<path d="M 1229.0,1844.0 C 1249.02,1844.42 1268.66,1853.07 1289.0,1853.96 C 1320.29,1855.33 1348.4,1841.75 1375.0,1827.0" style="stroke:#010101; fill:none;"/>
	<path d="M 1850.0,1853.0 C 1843.75,1870.08 1829.78,1886.28 1819.29,1901.0 C 1794.01,1936.47 1764.89,1976.42 1730.0,2003.0" style="stroke:#010101; fill:none;"/>
	<path d="M 1141.0,1872.0 C 1141.94,1867.61 1146.11,1868.15 1150.0,1867.94 C 1159.1,1867.44 1168.06,1865.32 1177.0,1863.75 C 1191.69,1861.18 1209.0,1854.19 1224.0,1856.19 C 1231.68,1857.21 1236.82,1864.09 1244.0,1866.54 C 1259.29,1871.75 1275.38,1874.27 1291.0,1878.0" style="stroke:#010101; fill:none;"/>
	<path d="M 1788.0,1892.0 C 1746.28,1933.37 1696.73,1974.09 1643.0,1998.69 C 1607.21,2015.08 1567.47,2024.02 1530.0,2036.52 C 1503.84,2045.24 1478.83,2057.82 1452.0,2064.52 C 1427.53,2070.64 1402.03,2070.94 1377.0,2072.04 C 1338.46,2073.73 1299.87,2075.8 1262.0,2066.0" style="stroke:#010101; fill:none;"/>
	<path d="M 1894.0,1897.0 L 1895.0,1898.0" style="stroke:#010101; fill:none;"/>
	<path d="M 1858.0,1903.0 C 1838.63,1960.26 1813.05,2014.44 1787.3,2069.0 C 1772.78,2099.76 1761.09,2132.7 1742.0,2161.0" style="stroke:#010101; fill:none;"/>
	<path d="M 1900.0,1910.0 L 1901.0,1911.0" style="stroke:#010101; fill:none;"/>
	<path d="M 1903.0,1915.0 L 1904.0,1917.0" style="stroke:#010101; fill:none;"/>
	<path d="M 1919.0,1939.0 L 1940.0,1958.0" style="stroke:#010101; fill:none;"/>
	<path d="M 1942.0,1946.0 L 1940.0,1949.0" style="stroke:#010101; fill:none;"/>
	<path d="M 1946.0,1946.0 L 1945.0,1947.0" style="stroke:#010101; fill:none;"/>
	<path d="M 1886.0,1972.0 C 1886.72,1965.52 1890.66,1961.41 1896.0,1958.0" style="stroke:#010101; fill:none;"/>
	<path d="M 1051.0,1987.0 L 1052.0,1987.0 L 1051.0,1991.0 L 1051.0,1987.0" style="stroke:#010101; fill:none;"/>
	<path d="M 1637.0,2013.0 C 1633.31,2012.01 1632.22,2013.32 1633.0,2017.0 L 1654.0,2005.75 L 1691.0,1988.0" style="stroke:#010101; fill:none;"/>
	<path d="M 1054.0,1991.0 C 1093.56,2050.87 1182.47,2062.72 1248.0,2071.0" style="stroke:#010101; fill:none;"/>
	<path d="M 1051.0,1992.0 L 1053.0,1993.0" style="stroke:#010101; fill:none;"/>
	<path d="M 1864.0,2007.0 C 1840.5,2046.84 1825.95,2092.27 1808.69,2135.0 C 1800.87,2154.36 1786.83,2177.05 1785.0,2198.0" style="stroke:#010101; fill:none;"/>
	<path d="M 1616.0,2009.0 L 1618.0,2008.0" style="stroke:#010101; fill:none;"/>
	<path d="M 1633.0,2013.0 L 1635.0,2015.0" style="stroke:#010101; fill:none;"/>
	<path d="M 1632.0,2017.0 C 1614.07,2028.43 1594.14,2038.48 1575.0,2047.74 C 1568.83,2050.73 1559.7,2056.9 1553.0,2054.0 L 1607.0,2025.36 L 1631.0,2014.0" style="stroke:#010101; fill:none;"/>
	<path d="M 1584.0,2031.0 L 1575.0,2033.0 C 1580.69,2026.48 1592.03,2023.09 1600.0,2020.0" style="stroke:#010101; fill:none;"/>
	<path d="M 1575.0,2033.0 L 1572.0,2035.0 L 1575.0,2032.0" style="stroke:#010101; fill:none;"/>
	<path d="M 1434.0,2106.0 L 1422.0,2113.0 C 1427.34,2114.14 1430.79,2110.07 1435.0,2107.17 C 1443.61,2101.23 1452.94,2096.35 1462.0,2091.15 C 1496.57,2071.3 1533.78,2045.92 1572.0,2034.0" style="stroke:#010101; fill:none;"/>
	<path d="M 1567.0,2035.0 L 1568.0,2036.0" style="stroke:#010101; fill:none;"/>
	<path d="M 1358.0,2123.0 L 1491.0,2063.03 L 1545.0,2041.0" style="stroke:#010101; fill:none;"/>
	<path d="M 1480.0,2151.0 C 1494.32,2137.86 1516.88,2128.87 1534.0,2119.52 C 1582.83,2092.86 1633.85,2070.89 1683.0,2045.0" style="stroke:#010101; fill:none;"/>
	<path d="M 1112.0,2053.0 C 1112.25,2056.31 1112.44,2058.29 1116.0,2058.0" style="stroke:#010101; fill:none;"/>
	<path d="M 1334.0,2175.0 L 1489.0,2089.0 L 1504.0,2080.54 L 1553.0,2054.0" style="stroke:#010101; fill:none;"/>
	<path d="M 1549.0,2056.0 L 1556.0,2056.0" style="stroke:#010101; fill:none;"/>
	<path d="M 1548.0,2058.0 L 1554.0,2058.0" style="stroke:#010101; fill:none;"/>
	<path d="M 1550.0,2060.0 C 1534.65,2071.15 1512.26,2083.74 1494.0,2089.0" style="stroke:#010101; fill:none;"/>
	<path d="M 1113.0,2061.0 L 1122.25,2120.0 L 1124.93,2141.72 L 1114.0,2146.58 L 1083.0,2151.0 L 1094.69,2123.0 L 1112.0,2076.0" style="stroke:#010101; fill:none;"/>
	<path d="M 1485.0,2064.0 L 1487.0,2063.0" style="stroke:#010101; fill:none;"/>
	<path d="M 1328.0,2211.0 C 1353.12,2188.08 1387.69,2171.59 1417.0,2154.58 C 1471.42,2122.99 1527.87,2089.32 1586.0,2065.0" style="stroke:#010101; fill:none;"/>
	<path d="M 1370.0,2132.0 L 1485.0,2066.0" style="stroke:#010101; fill:none;"/>
	<path d="M 1348.0,2121.0 C 1372.52,2106.69 1399.54,2091.27 1426.0,2081.0" style="stroke:#010101; fill:none;"/>
	<path d="M 1480.0,2152.0 L 1388.0,2216.0 C 1387.01,2210.74 1390.26,2206.51 1392.73,2202.0 C 1400.42,2187.96 1414.8,2181.12 1428.0,2172.33 C 1475.67,2140.61 1525.95,2106.06 1579.0,2084.0" style="stroke:#010101; fill:none;"/>
	<path d="M 1489.0,2089.0 L 1493.0,2087.0" style="stroke:#010101; fill:none;"/>
	<path d="M 1486.0,2091.0 L 1489.0,2092.0" style="stroke:#010101; fill:none;"/>
	<path d="M 1946.0,2094.0 L 1947.0,2096.0" style="stroke:#010101; fill:none;"/>
	<path d="M 1948.0,2098.0 L 1950.0,2101.0" style="stroke:#010101; fill:none;"/>
	<path d="M 1437.0,2105.0 L 1440.0,2104.0" style="stroke:#010101; fill:none;"/>
	<path d="M 1954.0,2107.0 L 1955.0,2108.0" style="stroke:#010101; fill:none;"/>
	<path d="M 1957.0,2110.0 L 1958.0,2112.0" style="stroke:#010101; fill:none;"/>
	<path d="M 1360.0,2143.0 C 1381.86,2139.24 1401.71,2121.45 1422.0,2113.0" style="stroke:#010101; fill:none;"/>
	<path d="M 1388.0,2136.0 L 1423.0,2115.0" style="stroke:#010101; fill:none;"/>
	<path d="M 1922.0,2120.0 C 1920.87,2128.25 1929.43,2132.6 1936.0,2135.43 C 1952.92,2142.71 1971.17,2141.0 1989.0,2141.0" style="stroke:#010101; fill:none;"/>
	<path d="M 1938.0,2126.0 L 1975.0,2133.0" style="stroke:#010101; fill:none;"/>
	<path d="M 1950.0,2126.0 L 1966.0,2130.0" style="stroke:#010101; fill:none;"/>
	<path d="M 1417.0,2130.0 L 1415.0,2130.0" style="stroke:#010101; fill:none;"/>
	<path d="M 1411.0,2131.0 L 1412.0,2132.0" style="stroke:#010101; fill:none;"/>
	<path d="M 1966.0,2133.0 L 1969.0,2132.0" style="stroke:#010101; fill:none;"/>
	<path d="M 1981.0,2134.0 L 1984.0,2134.0" style="stroke:#010101; fill:none;"/>
	<path d="M 1127.0,2144.0 C 1127.68,2159.83 1131.89,2176.32 1134.41,2192.0 C 1135.25,2197.22 1138.34,2207.0 1135.93,2211.91 C 1131.04,2221.88 1113.52,2228.11 1104.0,2232.28 C 1090.41,2238.25 1077.82,2246.55 1064.0,2251.94 C 1050.19,2257.32 1035.92,2259.14 1022.0,2263.5 C 1015.28,2265.6 1010.31,2271.89 1005.0,2276.2 C 995.133,2284.21 984.784,2291.59 974.0,2298.32 C 938.924,2320.21 898.653,2338.57 858.0,2347.0" style="stroke:#010101; fill:none;"/>
	<path d="M 1481.0,2149.0 L 1484.0,2147.0" style="stroke:#010101; fill:none;"/>
	<path d="M 1083.0,2151.0 L 1080.0,2154.0" style="stroke:#010101; fill:none;"/>
	<path d="M 1418.0,2162.0 L 1401.0,2189.0" style="stroke:#010101; fill:none;"/>
	<path d="M 1459.0,2186.0 C 1433.28,2199.12 1409.44,2216.06 1386.0,2232.86 C 1374.59,2241.03 1361.7,2250.37 1361.0,2266.0 C 1382.8,2254.87 1398.53,2232.88 1422.0,2224.0" style="stroke:#010101; fill:none;"/>
	<path d="M 1727.0,2191.0 L 1666.0,2278.0" style="stroke:#010101; fill:none;"/>
	<path d="M 1332.0,2237.0 L 1373.0,2209.0 L 1396.0,2195.0" style="stroke:#010101; fill:none;"/>
	<path d="M 1944.0,2210.0 L 1951.0,2210.0" style="stroke:#010101; fill:none;"/>
	<path d="M 1137.0,2214.0 L 1138.0,2216.0 L 1142.0,2215.0" style="stroke:#010101; fill:none;"/>
	<path d="M 1387.0,2215.0 C 1380.83,2221.78 1375.25,2232.07 1373.0,2241.0" style="stroke:#010101; fill:none;"/>
	<path d="M 1138.0,2216.0 C 1139.25,2276.46 1155.08,2336.87 1160.83,2397.0 C 1167.44,2466.15 1162.43,2534.82 1161.0,2604.0" style="stroke:#010101; fill:none;"/>
	<path d="M 1312.0,2275.0 L 1357.0,2239.12 L 1381.0,2222.0" style="stroke:#010101; fill:none;"/>
	<path d="M 1324.0,2280.0 C 1336.15,2269.42 1351.93,2253.8 1367.0,2248.0" style="stroke:#010101; fill:none;"/>
	<path d="M 1380.0,2266.0 C 1370.32,2275.68 1358.61,2289.38 1346.0,2295.0 L 1355.0,2273.0 L 1307.0,2312.0" style="stroke:#010101; fill:none;"/>
	<path d="M 1359.0,2267.0 L 1355.0,2273.0" style="stroke:#010101; fill:none;"/>
	<path d="M 1364.0,2289.0 L 1337.36,2311.09 L 1317.08,2353.0 L 1268.0,2465.0" style="stroke:#010101; fill:none;"/>
	<path d="M 1346.0,2295.0 L 1340.0,2307.0" style="stroke:#010101; fill:none;"/>
	<path d="M 1303.0,2332.0 C 1313.89,2322.52 1326.82,2308.88 1340.0,2303.0" style="stroke:#010101; fill:none;"/>
	<path d="M 1324.0,2322.0 L 1334.0,2316.0" style="stroke:#010101; fill:none;"/>
	<path d="M 787.0,2353.0 L 794.0,2355.0" style="stroke:#010101; fill:none;"/>
	<path d="M 796.0,2354.0 L 811.0,2353.0" style="stroke:#010101; fill:none;"/>
	<path d="M 813.0,2353.0 L 814.0,2353.0" style="stroke:#010101; fill:none;"/>
	<path d="M 970.0,2380.0 C 951.913,2405.33 937.551,2436.04 923.948,2464.0 C 919.303,2473.54 917.2,2491.0 910.298,2498.57 C 907.487,2501.65 901.869,2501.88 898.0,2502.58 C 888.6,2504.27 879.241,2506.3 870.0,2508.73 C 843.695,2515.66 817.319,2525.04 790.0,2526.91 C 776.027,2527.87 762.753,2524.6 749.0,2524.0" style="stroke:#010101; fill:none;"/>
	<path d="M 742.0,2462.0 L 863.0,2439.0" style="stroke:#010101; fill:none;"/>
	<path d="M 788.0,2472.0 C 825.869,2469.01 861.116,2446.09 899.0,2443.0" style="stroke:#010101; fill:none;"/>
	<path d="M 797.0,2492.0 C 833.685,2480.27 871.191,2463.09 910.0,2460.0" style="stroke:#010101; fill:none;"/>
	<path d="M 833.0,2492.0 C 833.698,2497.33 845.364,2491.85 849.0,2491.0 C 866.123,2487.0 882.011,2478.4 899.0,2474.0" style="stroke:#010101; fill:none;"/>
	<path d="M 1239.0,2485.0 C 1230.98,2497.16 1226.3,2512.4 1226.0,2527.0" style="stroke:#010101; fill:none;"/>
	<path d="M 1258.0,2497.0 L 1238.0,2541.0" style="stroke:#010101; fill:none;"/>
	<path d="M 585.0,2607.0 C 577.186,2617.98 568.039,2634.32 568.0,2648.0" style="stroke:#010101; fill:none;"/>
</svg>
