<?xml version="1.0" ?>
<svg baseProfile="full" height="2190" version="1.1" width="2120" xmlns="http://www.w3.org/2000/svg" xmlns:ev="http://www.w3.org/2001/xml-events" xmlns:xlink="http://www.w3.org/1999/xlink">
	<defs/>
	<path d="M 1329.0,411.0 L 1326.0,442.0" style="stroke:#010101; fill:none;"/>
	<path d="M 1128.0,422.0 L 1132.0,461.0" style="stroke:#010101; fill:none;"/>
	<path d="M 1310.0,425.0 L 1318.0,454.0 L 1307.0,442.0" style="stroke:#010101; fill:none;"/>
	<path d="M 1318.0,431.0 L 1323.0,439.0" style="stroke:#010101; fill:none;"/>
	<path d="M 1205.0,434.0 L 1206.0,440.0" style="stroke:#010101; fill:none;"/>
	<path d="M 1219.0,434.0 L 1219.0,435.0" style="stroke:#010101; fill:none;"/>
	<path d="M 1483.0,435.0 C 1485.89,443.547 1489.52,458.246 1487.0,467.0 L 1481.0,447.0 L 1480.0,458.0" style="stroke:#010101; fill:none;"/>
	<path d="M 1169.0,436.0 L 1169.0,437.0" style="stroke:#010101; fill:none;"/>
	<path d="M 1343.0,436.0 L 1345.0,448.0" style="stroke:#010101; fill:none;"/>
	<path d="M 1221.0,438.0 C 1227.39,446.41 1234.13,452.166 1244.0,456.0" style="stroke:#010101; fill:none;"/>
	<path d="M 1151.0,439.0 L 1155.0,464.0" style="stroke:#010101; fill:none;"/>
	<path d="M 1481.0,439.0 L 1481.0,446.0" style="stroke:#010101; fill:none;"/>
	<path d="M 1170.0,440.0 L 1180.0,458.0" style="stroke:#010101; fill:none;"/>
	<path d="M 1490.0,443.0 L 1494.0,467.0" style="stroke:#010101; fill:none;"/>
	<path d="M 1209.0,444.0 L 1220.0,464.0" style="stroke:#010101; fill:none;"/>
	<path d="M 1192.0,448.0 C 1196.1,463.003 1205.6,475.255 1214.0,488.0" style="stroke:#010101; fill:none;"/>
	<path d="M 1108.0,455.0 L 1108.0,456.0" style="stroke:#010101; fill:none;"/>
	<path d="M 1409.0,458.0 L 1409.0,459.0" style="stroke:#010101; fill:none;"/>
	<path d="M 1409.0,461.0 L 1409.0,464.0" style="stroke:#010101; fill:none;"/>
	<path d="M 1448.0,461.0 L 1453.0,470.0" style="stroke:#010101; fill:none;"/>
	<path d="M 1428.0,463.0 L 1428.0,465.0" style="stroke:#010101; fill:none;"/>
	<path d="M 1108.0,466.0 L 1112.0,503.0" style="stroke:#010101; fill:none;"/>
	<path d="M 1498.0,466.0 L 1498.0,467.0" style="stroke:#010101; fill:none;"/>
	<path d="M 1429.0,467.0 L 1432.0,478.0" style="stroke:#010101; fill:none;"/>
	<path d="M 1371.0,468.0 L 1372.0,474.0" style="stroke:#010101; fill:none;"/>
	<path d="M 1398.0,468.0 L 1400.0,480.0" style="stroke:#010101; fill:none;"/>
	<path d="M 1445.0,468.0 L 1445.0,470.0" style="stroke:#010101; fill:none;"/>
	<path d="M 1468.0,470.0 L 1469.0,477.0" style="stroke:#010101; fill:none;"/>
	<path d="M 1521.0,472.0 L 1518.0,475.0" style="stroke:#010101; fill:none;"/>
	<path d="M 1569.0,473.0 L 1564.0,485.0" style="stroke:#010101; fill:none;"/>
	<path d="M 1446.0,474.0 L 1447.0,479.0" style="stroke:#010101; fill:none;"/>
	<path d="M 1555.0,475.0 C 1550.32,482.929 1546.26,489.604 1548.0,499.0" style="stroke:#010101; fill:none;"/>
	<path d="M 870.0,480.0 C 874.064,489.142 875.627,498.78 871.0,508.0" style="stroke:#010101; fill:none;"/>
	<path d="M 1573.0,481.0 C 1574.12,488.074 1584.05,493.068 1589.0,498.0" style="stroke:#010101; fill:none;"/>
	<path d="M 1534.0,482.0 L 1524.0,499.0" style="stroke:#010101; fill:none;"/>
	<path d="M 1539.0,483.0 L 1536.0,489.0" style="stroke:#010101; fill:none;"/>
	<path d="M 852.0,486.0 C 854.354,494.376 854.174,501.597 852.0,510.0" style="stroke:#010101; fill:none;"/>
	<path d="M 1572.0,486.0 L 1573.0,490.0 L 1576.0,487.0" style="stroke:#010101; fill:none;"/>
	<path d="M 889.0,488.0 L 884.0,495.0" style="stroke:#010101; fill:none;"/>
	<path d="M 899.0,493.0 L 900.0,494.0" style="stroke:#010101; fill:none;"/>
	<path d="M 1602.0,519.0 L 1602.0,520.0" style="stroke:#010101; fill:none;"/>
	<path d="M 829.0,542.0 L 841.0,534.0" style="stroke:#010101; fill:none;"/>
	<path d="M 848.0,582.0 L 839.0,590.0" style="stroke:#010101; fill:none;"/>
	<path d="M 841.0,609.0 L 841.0,610.0" style="stroke:#010101; fill:none;"/>
	<path d="M 859.0,611.0 L 846.0,627.0" style="stroke:#010101; fill:none;"/>
	<path d="M 883.0,655.0 L 874.0,662.0" style="stroke:#010101; fill:none;"/>
	<path d="M 887.0,663.0 L 888.0,663.0" style="stroke:#010101; fill:none;"/>
	<path d="M 904.0,669.0 L 906.0,668.0" style="stroke:#010101; fill:none;"/>
	<path d="M 881.0,704.0 L 923.0,674.0" style="stroke:#010101; fill:none;"/>
	<path d="M 921.0,688.0 L 887.0,713.0" style="stroke:#010101; fill:none;"/>
	<path d="M 880.0,738.0 L 897.0,725.0" style="stroke:#010101; fill:none;"/>
	<path d="M 925.0,729.0 L 874.0,761.0" style="stroke:#010101; fill:none;"/>
	<path d="M 901.0,737.0 L 870.0,760.0" style="stroke:#010101; fill:none;"/>
	<path d="M 813.0,808.0 L 896.0,757.0" style="stroke:#010101; fill:none;"/>
	<path d="M 1145.0,787.0 C 1141.33,788.704 1139.65,789.911 1139.0,794.0 L 1148.0,791.0" style="stroke:#010101; fill:none;"/>
	<path d="M 1135.0,793.0 L 1139.0,790.0" style="stroke:#010101; fill:none;"/>
	<path d="M 1134.0,792.0 L 1124.0,802.0" style="stroke:#010101; fill:none;"/>
	<path d="M 1126.0,797.0 L 1133.0,793.0" style="stroke:#010101; fill:none;"/>
	<path d="M 1136.0,794.0 L 1138.0,795.0" style="stroke:#010101; fill:none;"/>
	<path d="M 1134.0,795.0 L 1138.0,795.0" style="stroke:#010101; fill:none;"/>
	<path d="M 1168.0,798.0 C 1157.33,800.208 1145.1,804.627 1137.0,812.0 L 1133.0,808.0 C 1140.69,801.974 1152.34,796.662 1162.0,795.0" style="stroke:#010101; fill:none;"/>
	<path d="M 1123.0,801.0 L 1121.0,799.0 L 1126.0,796.0" style="stroke:#010101; fill:none;"/>
	<path d="M 1133.0,798.0 L 1135.0,797.0" style="stroke:#010101; fill:none;"/>
	<path d="M 1714.0,798.0 L 1728.0,832.0 C 1711.92,829.145 1696.02,823.454 1680.0,819.884 C 1673.36,818.404 1664.45,815.378 1658.0,818.0 L 1687.0,825.0 L 1701.0,826.0" style="stroke:#010101; fill:none;"/>
	<path d="M 1121.0,804.0 L 1121.0,799.0" style="stroke:#010101; fill:none;"/>
	<path d="M 1131.0,799.0 L 1125.0,803.0" style="stroke:#010101; fill:none;"/>
	<path d="M 1066.0,840.0 L 1068.0,840.0 L 1062.0,838.0 C 1076.81,823.834 1099.46,806.679 1119.0,800.0" style="stroke:#010101; fill:none;"/>
	<path d="M 1139.0,800.0 L 1135.0,804.0" style="stroke:#010101; fill:none;"/>
	<path d="M 1140.0,810.0 C 1143.98,812.522 1147.83,810.07 1152.0,808.667 C 1160.47,805.818 1169.03,801.782 1178.0,801.0" style="stroke:#010101; fill:none;"/>
	<path d="M 1133.0,808.0 L 1131.0,806.0 L 1135.0,804.0" style="stroke:#010101; fill:none;"/>
	<path d="M 1120.0,806.0 L 1114.0,807.0 L 1119.0,804.0" style="stroke:#010101; fill:none;"/>
	<path d="M 1123.0,804.0 L 1122.0,805.0" style="stroke:#010101; fill:none;"/>
	<path d="M 1201.0,813.0 C 1194.02,816.104 1188.28,816.389 1181.0,814.0 C 1194.6,802.786 1212.88,806.49 1230.0,808.87 C 1250.78,811.758 1271.48,813.933 1292.0,818.424 C 1306.42,821.583 1320.26,827.097 1335.0,829.0" style="stroke:#010101; fill:none;"/>
	<path d="M 1113.0,809.0 L 1114.0,807.0" style="stroke:#010101; fill:none;"/>
	<path d="M 1181.0,814.0 C 1174.53,815.28 1168.1,815.894 1162.0,813.0 L 1185.0,808.0" style="stroke:#010101; fill:none;"/>
	<path d="M 1138.0,812.0 L 1124.0,811.0 L 1131.0,807.0" style="stroke:#010101; fill:none;"/>
	<path d="M 1130.0,808.0 L 1134.0,810.0" style="stroke:#010101; fill:none;"/>
	<path d="M 1110.0,811.0 L 1111.0,809.0" style="stroke:#010101; fill:none;"/>
	<path d="M 1107.0,813.0 L 1108.0,811.0" style="stroke:#010101; fill:none;"/>
	<path d="M 1112.0,811.0 L 1111.0,812.0" style="stroke:#010101; fill:none;"/>
	<path d="M 1125.0,813.0 L 1122.0,815.0 L 1124.0,811.0" style="stroke:#010101; fill:none;"/>
	<path d="M 1244.0,811.0 L 1257.0,817.0" style="stroke:#010101; fill:none;"/>
	<path d="M 1121.0,812.0 C 1108.85,822.9 1092.7,831.383 1079.0,840.515 C 1064.18,850.398 1050.11,861.442 1035.0,870.896 C 1026.05,876.498 1004.4,887.317 1002.0,898.0 L 1003.0,894.0" style="stroke:#010101; fill:none;"/>
	<path d="M 1094.0,822.0 L 1103.0,818.0 L 1103.0,819.0 L 1101.0,821.0 L 1098.0,817.0 L 1105.0,813.0" style="stroke:#010101; fill:none;"/>
	<path d="M 1109.0,813.0 L 1108.0,814.0" style="stroke:#010101; fill:none;"/>
	<path d="M 1139.0,813.0 L 1140.0,813.0" style="stroke:#010101; fill:none;"/>
	<path d="M 1150.0,818.0 L 1145.0,819.0 C 1149.04,814.982 1156.38,813.402 1162.0,813.0" style="stroke:#010101; fill:none;"/>
	<path d="M 1119.0,814.0 L 1121.0,816.0" style="stroke:#010101; fill:none;"/>
	<path d="M 1102.0,815.0 L 1106.0,815.0" style="stroke:#010101; fill:none;"/>
	<path d="M 1005.0,892.0 C 1013.46,896.078 1030.62,878.453 1038.0,873.811 C 1069.7,853.883 1100.31,830.383 1134.0,814.0" style="stroke:#010101; fill:none;"/>
	<path d="M 1174.0,816.0 L 1116.0,848.424 L 1026.0,901.0" style="stroke:#010101; fill:none;"/>
	<path d="M 1200.0,816.0 L 1235.91,817.471 L 1259.0,822.0" style="stroke:#010101; fill:none;"/>
	<path d="M 1693.0,816.0 L 1712.0,821.0" style="stroke:#010101; fill:none;"/>
	<path d="M 1097.0,817.0 L 1094.0,820.0" style="stroke:#010101; fill:none;"/>
	<path d="M 1190.0,817.0 L 1149.0,839.861 L 1066.0,888.0" style="stroke:#010101; fill:none;"/>
	<path d="M 1147.0,820.0 L 1144.0,822.0 L 1142.0,819.0 L 1145.0,818.0" style="stroke:#010101; fill:none;"/>
	<path d="M 1210.0,818.0 L 1115.0,866.0" style="stroke:#010101; fill:none;"/>
	<path d="M 1283.0,818.0 L 1288.0,821.0" style="stroke:#010101; fill:none;"/>
	<path d="M 1654.0,820.0 L 1658.0,818.0" style="stroke:#010101; fill:none;"/>
	<path d="M 1115.0,823.0 L 1141.0,819.0" style="stroke:#010101; fill:none;"/>
	<path d="M 1103.0,820.0 L 1106.0,820.0" style="stroke:#010101; fill:none;"/>
	<path d="M 1139.0,820.0 L 1138.0,826.0 L 1140.0,823.0" style="stroke:#010101; fill:none;"/>
	<path d="M 1140.0,820.0 L 1142.0,822.0" style="stroke:#010101; fill:none;"/>
	<path d="M 1229.0,820.0 C 1214.59,831.292 1192.83,836.364 1176.0,843.424 C 1162.28,849.182 1146.71,858.795 1132.0,861.0" style="stroke:#010101; fill:none;"/>
	<path d="M 1241.0,820.0 L 1207.0,838.0 C 1212.1,840.914 1215.93,838.547 1221.0,836.424 C 1231.6,831.984 1244.89,829.021 1254.0,822.0" style="stroke:#010101; fill:none;"/>
	<path d="M 1092.0,823.0 L 1093.0,821.0" style="stroke:#010101; fill:none;"/>
	<path d="M 1120.0,823.0 L 1122.0,823.0" style="stroke:#010101; fill:none;"/>
	<path d="M 1084.0,829.0 L 1090.0,823.0" style="stroke:#010101; fill:none;"/>
	<path d="M 1094.0,823.0 L 1093.0,824.0" style="stroke:#010101; fill:none;"/>
	<path d="M 1109.0,824.0 L 1115.0,823.0" style="stroke:#010101; fill:none;"/>
	<path d="M 1134.0,825.0 L 1134.0,828.0 L 1136.0,824.0" style="stroke:#010101; fill:none;"/>
	<path d="M 1142.0,823.0 L 1141.0,824.0" style="stroke:#010101; fill:none;"/>
	<path d="M 1183.0,823.0 L 1197.0,824.0" style="stroke:#010101; fill:none;"/>
	<path d="M 1310.0,824.0 C 1310.42,828.142 1312.04,828.849 1316.0,828.0 L 1317.0,827.0" style="stroke:#010101; fill:none;"/>
	<path d="M 1084.0,826.0 L 1087.0,824.0" style="stroke:#010101; fill:none;"/>
	<path d="M 1091.0,825.0 L 1090.0,826.0" style="stroke:#010101; fill:none;"/>
	<path d="M 1248.0,854.0 L 1234.0,858.0 C 1242.44,847.177 1259.87,838.074 1272.0,831.745 C 1276.01,829.656 1280.48,826.061 1285.0,825.349 C 1292.79,824.122 1300.4,829.348 1308.0,827.0" style="stroke:#010101; fill:none;"/>
	<path d="M 1133.0,829.0 L 1131.0,830.0 L 1132.0,826.0" style="stroke:#010101; fill:none;"/>
	<path d="M 1260.0,826.0 L 1261.0,829.0 L 1259.0,827.0 L 1255.0,831.0 L 1259.0,829.0" style="stroke:#010101; fill:none;"/>
	<path d="M 1653.0,826.0 L 1679.0,829.0 C 1665.4,848.542 1644.7,862.342 1628.0,879.0 L 1630.0,881.0 L 1690.0,826.0" style="stroke:#010101; fill:none;"/>
	<path d="M 1084.0,830.0 L 1083.0,828.0" style="stroke:#010101; fill:none;"/>
	<path d="M 1130.0,831.0 C 1128.27,829.106 1127.91,828.582 1130.0,827.0" style="stroke:#010101; fill:none;"/>
	<path d="M 1291.0,827.0 L 1246.0,859.667 L 1231.0,868.0" style="stroke:#010101; fill:none;"/>
	<path d="M 1694.0,827.0 C 1690.86,836.237 1680.91,842.656 1674.0,849.089 C 1658.4,863.621 1642.56,877.558 1626.0,891.0" style="stroke:#010101; fill:none;"/>
	<path d="M 1299.0,830.0 C 1300.97,828.831 1300.69,828.703 1301.0,831.0 C 1294.69,831.031 1290.17,834.715 1285.0,838.004 C 1273.02,845.62 1256.44,855.544 1248.0,867.0 C 1254.06,867.354 1259.36,861.745 1264.0,858.231 C 1275.6,849.438 1287.59,841.045 1299.0,832.0" style="stroke:#010101; fill:none;"/>
	<path d="M 1316.0,828.0 C 1317.18,833.847 1310.08,837.676 1306.0,841.08 C 1294.42,850.74 1281.9,859.576 1271.0,870.0 L 1288.0,867.0 L 1281.0,876.0 C 1288.61,877.118 1296.05,866.946 1301.0,862.0 L 1299.0,863.0" style="stroke:#010101; fill:none;"/>
	<path d="M 1081.0,832.0 L 1079.0,829.0 L 1081.0,831.0" style="stroke:#010101; fill:none;"/>
	<path d="M 1127.0,832.0 L 1119.0,834.0 C 1121.52,831.104 1123.23,830.101 1127.0,831.0" style="stroke:#010101; fill:none;"/>
	<path d="M 1244.0,836.0 L 1238.0,837.0 L 1243.0,833.0 L 1245.0,836.0 L 1255.0,829.0" style="stroke:#010101; fill:none;"/>
	<path d="M 1312.0,830.0 L 1268.0,865.421 L 1248.0,877.0" style="stroke:#010101; fill:none;"/>
	<path d="M 1318.0,830.0 L 1326.0,831.0 C 1316.75,844.027 1300.53,857.055 1288.0,867.0" style="stroke:#010101; fill:none;"/>
	<path d="M 1642.0,831.0 L 1662.0,830.0" style="stroke:#010101; fill:none;"/>
	<path d="M 1701.0,831.0 L 1720.0,837.0" style="stroke:#010101; fill:none;"/>
	<path d="M 1070.0,840.0 L 1077.0,832.0 L 1079.0,833.0 L 1079.0,833.0" style="stroke:#010101; fill:none;"/>
	<path d="M 1244.0,834.0 L 1248.0,833.0" style="stroke:#010101; fill:none;"/>
	<path d="M 1252.0,832.0 L 1254.0,832.0" style="stroke:#010101; fill:none;"/>
	<path d="M 1728.0,832.0 C 1736.95,848.063 1729.6,852.068 1714.0,856.0" style="stroke:#010101; fill:none;"/>
	<path d="M 1263.0,833.0 C 1241.47,847.188 1215.0,857.687 1191.0,867.0" style="stroke:#010101; fill:none;"/>
	<path d="M 1068.0,837.0 L 1073.0,834.0" style="stroke:#010101; fill:none;"/>
	<path d="M 1078.0,834.0 L 1076.0,836.0" style="stroke:#010101; fill:none;"/>
	<path d="M 1120.0,837.0 C 1087.84,852.213 1056.3,875.108 1027.0,895.25 C 1018.85,900.854 1001.51,917.692 991.0,912.0 L 1024.0,890.653 L 1118.0,833.0" style="stroke:#010101; fill:none;"/>
	<path d="M 1663.0,834.0 L 1593.0,904.0" style="stroke:#010101; fill:none;"/>
	<path d="M 1066.0,835.0 L 1068.0,837.0" style="stroke:#010101; fill:none;"/>
	<path d="M 1653.0,835.0 L 1594.0,899.0" style="stroke:#010101; fill:none;"/>
	<path d="M 1698.0,835.0 L 1630.0,892.0" style="stroke:#010101; fill:none;"/>
	<path d="M 1070.0,836.0 L 1072.0,838.0" style="stroke:#010101; fill:none;"/>
	<path d="M 1330.0,836.0 C 1322.75,845.475 1311.09,854.674 1301.0,861.0" style="stroke:#010101; fill:none;"/>
	<path d="M 1304.0,882.0 L 1368.0,836.0" style="stroke:#010101; fill:none;"/>
	<path d="M 1064.0,841.0 L 1061.0,846.0 L 1062.0,838.0" style="stroke:#010101; fill:none;"/>
	<path d="M 1065.0,838.0 L 1065.0,839.0" style="stroke:#010101; fill:none;"/>
	<path d="M 1202.0,841.0 L 1201.0,845.0 L 1197.0,842.0 L 1207.0,838.0" style="stroke:#010101; fill:none;"/>
	<path d="M 1352.0,838.0 C 1337.07,846.809 1321.57,856.982 1309.0,869.0 L 1325.0,865.0" style="stroke:#010101; fill:none;"/>
	<path d="M 1169.0,864.0 L 1198.0,852.073 L 1208.09,852.71 L 1238.0,838.0" style="stroke:#010101; fill:none;"/>
	<path d="M 1058.0,844.0 L 1059.0,840.0" style="stroke:#010101; fill:none;"/>
	<path d="M 1594.0,840.0 C 1580.77,855.48 1570.67,871.976 1563.2,891.0 C 1560.52,897.824 1556.15,906.655 1558.0,914.0 C 1570.72,892.199 1577.28,866.333 1594.0,847.0" style="stroke:#010101; fill:none;"/>
	<path d="M 1711.0,840.0 L 1694.0,853.888 L 1689.0,860.0" style="stroke:#010101; fill:none;"/>
	<path d="M 1390.0,841.0 C 1389.68,843.806 1390.17,844.075 1393.0,844.0" style="stroke:#010101; fill:none;"/>
	<path d="M 1650.0,881.0 C 1667.47,868.048 1685.34,848.564 1706.0,841.0" style="stroke:#010101; fill:none;"/>
	<path d="M 1057.0,842.0 L 1056.0,846.0 L 1058.0,844.0" style="stroke:#010101; fill:none;"/>
	<path d="M 1061.0,842.0 L 1063.0,842.0" style="stroke:#010101; fill:none;"/>
	<path d="M 1067.0,842.0 L 1064.0,843.0" style="stroke:#010101; fill:none;"/>
	<path d="M 1195.0,844.0 L 1193.0,844.0 L 1197.0,842.0" style="stroke:#010101; fill:none;"/>
	<path d="M 1203.0,843.0 L 1209.0,841.0" style="stroke:#010101; fill:none;"/>
	<path d="M 1720.0,842.0 C 1715.13,845.371 1704.82,847.766 1708.0,855.0 L 1707.0,851.0" style="stroke:#010101; fill:none;"/>
	<path d="M 1194.0,843.0 L 1194.0,847.0 L 1196.0,845.0" style="stroke:#010101; fill:none;"/>
	<path d="M 1323.0,883.0 L 1327.0,881.0 C 1324.32,875.466 1333.05,872.748 1337.0,869.769 C 1349.44,860.389 1364.39,848.537 1379.0,843.0" style="stroke:#010101; fill:none;"/>
	<path d="M 1636.0,843.0 L 1586.0,898.0 L 1589.0,896.0" style="stroke:#010101; fill:none;"/>
	<path d="M 1193.0,848.0 L 1190.0,845.0 L 1193.0,844.0" style="stroke:#010101; fill:none;"/>
	<path d="M 1213.0,848.0 L 1219.0,844.0" style="stroke:#010101; fill:none;"/>
	<path d="M 1389.0,844.0 L 1380.0,850.0" style="stroke:#010101; fill:none;"/>
	<path d="M 1710.0,854.0 L 1726.0,844.0" style="stroke:#010101; fill:none;"/>
	<path d="M 1192.0,848.0 L 1190.0,845.0" style="stroke:#010101; fill:none;"/>
	<path d="M 1615.0,845.0 C 1604.94,858.088 1597.42,873.047 1588.68,887.0 C 1585.45,892.16 1579.1,898.766 1581.0,905.0 L 1585.0,899.0" style="stroke:#010101; fill:none;"/>
	<path d="M 1623.0,845.0 L 1589.0,894.0" style="stroke:#010101; fill:none;"/>
	<path d="M 1712.0,845.0 L 1713.0,846.0" style="stroke:#010101; fill:none;"/>
	<path d="M 1050.0,854.0 L 1049.0,850.0 L 1050.0,851.0 L 1051.0,852.0 L 1050.0,853.0 L 1054.0,846.0" style="stroke:#010101; fill:none;"/>
	<path d="M 1061.0,846.0 L 1052.0,853.0" style="stroke:#010101; fill:none;"/>
	<path d="M 1190.0,849.0 L 1188.0,846.0" style="stroke:#010101; fill:none;"/>
	<path d="M 1196.0,846.0 L 1199.0,845.0" style="stroke:#010101; fill:none;"/>
	<path d="M 1056.0,847.0 L 1057.0,848.0" style="stroke:#010101; fill:none;"/>
	<path d="M 1154.0,860.0 L 1186.0,847.0" style="stroke:#010101; fill:none;"/>
	<path d="M 1208.0,851.0 L 1213.0,847.0" style="stroke:#010101; fill:none;"/>
	<path d="M 1051.0,848.0 L 1054.0,851.0" style="stroke:#010101; fill:none;"/>
	<path d="M 1712.0,848.0 L 1710.0,849.0" style="stroke:#010101; fill:none;"/>
	<path d="M 1203.0,850.0 L 1207.0,849.0" style="stroke:#010101; fill:none;"/>
	<path d="M 1599.0,850.0 L 1566.0,910.0" style="stroke:#010101; fill:none;"/>
	<path d="M 1735.0,850.0 L 1727.0,858.0" style="stroke:#010101; fill:none;"/>
	<path d="M 1048.0,855.0 L 1043.0,856.0 L 1048.0,851.0" style="stroke:#010101; fill:none;"/>
	<path d="M 1147.0,868.0 L 1188.0,850.0" style="stroke:#010101; fill:none;"/>
	<path d="M 1327.0,881.0 L 1379.0,851.0" style="stroke:#010101; fill:none;"/>
	<path d="M 1374.0,861.0 L 1395.0,851.0" style="stroke:#010101; fill:none;"/>
	<path d="M 1681.0,866.0 L 1687.71,864.538 L 1705.0,852.0" style="stroke:#010101; fill:none;"/>
	<path d="M 1380.0,853.0 L 1374.0,859.0" style="stroke:#010101; fill:none;"/>
	<path d="M 1045.0,854.0 L 1047.0,856.0" style="stroke:#010101; fill:none;"/>
	<path d="M 1204.0,869.0 L 1235.0,854.0" style="stroke:#010101; fill:none;"/>
	<path d="M 1312.0,854.0 L 1315.0,854.0" style="stroke:#010101; fill:none;"/>
	<path d="M 1180.0,866.0 L 1204.0,855.0" style="stroke:#010101; fill:none;"/>
	<path d="M 1397.0,855.0 L 1355.0,881.0 C 1360.3,882.882 1364.11,879.311 1369.0,877.373 C 1381.66,872.354 1393.82,865.296 1404.0,856.0" style="stroke:#010101; fill:none;"/>
	<path d="M 1708.0,855.0 L 1701.0,860.0" style="stroke:#010101; fill:none;"/>
	<path d="M 1736.0,855.0 L 1739.0,899.0 L 1742.0,894.0" style="stroke:#010101; fill:none;"/>
	<path d="M 1043.0,856.0 C 1041.8,858.242 1041.76,858.196 1044.0,857.0" style="stroke:#010101; fill:none;"/>
	<path d="M 1030.0,873.0 L 1029.0,866.0 C 1031.57,864.089 1032.26,863.361 1035.0,865.0 L 1041.0,858.0" style="stroke:#010101; fill:none;"/>
	<path d="M 1207.0,873.0 C 1216.92,869.673 1226.24,864.882 1234.0,858.0" style="stroke:#010101; fill:none;"/>
	<path d="M 1038.0,859.0 L 1038.0,863.0" style="stroke:#010101; fill:none;"/>
	<path d="M 1042.0,860.0 L 1041.0,861.0" style="stroke:#010101; fill:none;"/>
	<path d="M 1229.0,861.0 L 1231.0,860.0" style="stroke:#010101; fill:none;"/>
	<path d="M 1374.0,862.0 C 1371.76,862.062 1371.52,861.748 1373.0,860.0" style="stroke:#010101; fill:none;"/>
	<path d="M 1685.0,863.0 L 1683.0,863.0 L 1687.0,860.0" style="stroke:#010101; fill:none;"/>
	<path d="M 1232.0,861.0 L 1235.0,860.0" style="stroke:#010101; fill:none;"/>
	<path d="M 1326.0,863.0 L 1328.0,863.0" style="stroke:#010101; fill:none;"/>
	<path d="M 1332.0,883.0 L 1370.0,863.0" style="stroke:#010101; fill:none;"/>
	<path d="M 1682.0,863.0 L 1683.0,863.0" style="stroke:#010101; fill:none;"/>
	<path d="M 1686.0,864.0 L 1689.0,863.0" style="stroke:#010101; fill:none;"/>
	<path d="M 1031.0,864.0 L 1034.0,865.0" style="stroke:#010101; fill:none;"/>
	<path d="M 1678.0,868.0 L 1676.0,868.0 L 1680.0,865.0" style="stroke:#010101; fill:none;"/>
	<path d="M 1024.0,869.0 L 1029.0,866.0" style="stroke:#010101; fill:none;"/>
	<path d="M 1033.0,866.0 L 1031.0,868.0" style="stroke:#010101; fill:none;"/>
	<path d="M 1681.0,867.0 L 1679.0,869.0" style="stroke:#010101; fill:none;"/>
	<path d="M 1244.0,870.0 L 1247.0,868.0 L 1231.0,877.0" style="stroke:#010101; fill:none;"/>
	<path d="M 1674.0,870.0 L 1671.0,873.0 L 1676.0,868.0" style="stroke:#010101; fill:none;"/>
	<path d="M 1031.0,870.0 L 1033.0,872.0" style="stroke:#010101; fill:none;"/>
	<path d="M 1214.0,876.0 L 1229.0,870.0" style="stroke:#010101; fill:none;"/>
	<path d="M 1677.0,870.0 L 1676.0,871.0" style="stroke:#010101; fill:none;"/>
	<path d="M 1281.0,876.0 C 1279.7,880.965 1283.51,882.234 1288.0,881.169 C 1295.63,879.36 1302.39,874.047 1309.0,870.0" style="stroke:#010101; fill:none;"/>
	<path d="M 1326.0,871.0 L 1315.0,882.0" style="stroke:#010101; fill:none;"/>
	<path d="M 1346.0,896.0 L 1396.0,871.0" style="stroke:#010101; fill:none;"/>
	<path d="M 1253.0,877.0 L 1271.0,871.0" style="stroke:#010101; fill:none;"/>
	<path d="M 1244.0,873.0 L 1240.0,876.0" style="stroke:#010101; fill:none;"/>
	<path d="M 1342.0,877.0 L 1348.0,873.0" style="stroke:#010101; fill:none;"/>
	<path d="M 1635.0,873.0 L 1637.0,875.0" style="stroke:#010101; fill:none;"/>
	<path d="M 1670.0,874.0 L 1668.0,876.0 L 1670.0,874.0" style="stroke:#010101; fill:none;"/>
	<path d="M 1667.0,875.0 L 1644.0,891.0 L 1646.0,891.0" style="stroke:#010101; fill:none;"/>
	<path d="M 1338.0,876.0 L 1341.0,877.0" style="stroke:#010101; fill:none;"/>
	<path d="M 1533.0,1014.0 C 1513.85,1004.89 1510.01,988.226 1510.0,968.0 C 1509.99,932.066 1533.83,893.756 1565.0,876.0" style="stroke:#010101; fill:none;"/>
	<path d="M 1329.0,877.0 L 1325.0,880.0" style="stroke:#010101; fill:none;"/>
	<path d="M 1374.0,877.0 L 1363.0,884.0" style="stroke:#010101; fill:none;"/>
	<path d="M 1282.0,878.0 L 1280.0,880.0" style="stroke:#010101; fill:none;"/>
	<path d="M 1318.0,881.0 L 1324.0,878.0" style="stroke:#010101; fill:none;"/>
	<path d="M 1602.0,900.0 L 1628.0,879.0" style="stroke:#010101; fill:none;"/>
	<path d="M 1324.0,881.0 L 1324.0,882.0" style="stroke:#010101; fill:none;"/>
	<path d="M 1341.0,885.0 L 1355.0,881.0" style="stroke:#010101; fill:none;"/>
	<path d="M 1630.0,881.0 L 1618.0,891.0" style="stroke:#010101; fill:none;"/>
	<path d="M 1292.0,882.0 L 1291.0,883.0" style="stroke:#010101; fill:none;"/>
	<path d="M 1659.0,882.0 L 1657.0,882.0" style="stroke:#010101; fill:none;"/>
	<path d="M 1351.0,883.0 L 1356.0,883.0" style="stroke:#010101; fill:none;"/>
	<path d="M 1648.0,887.0 L 1655.0,883.0" style="stroke:#010101; fill:none;"/>
	<path d="M 1350.0,884.0 L 1352.0,885.0" style="stroke:#010101; fill:none;"/>
	<path d="M 1324.0,894.0 L 1349.0,887.0" style="stroke:#010101; fill:none;"/>
	<path d="M 1645.0,889.0 L 1648.0,887.0" style="stroke:#010101; fill:none;"/>
	<path d="M 1011.0,889.0 L 1013.0,891.0" style="stroke:#010101; fill:none;"/>
	<path d="M 1637.0,897.0 L 1644.0,891.0" style="stroke:#010101; fill:none;"/>
	<path d="M 1008.0,891.0 L 1010.0,893.0" style="stroke:#010101; fill:none;"/>
	<path d="M 1640.0,892.0 L 1641.0,892.0" style="stroke:#010101; fill:none;"/>
	<path d="M 956.0,927.0 C 961.189,915.873 974.414,909.932 984.0,903.14 C 988.386,900.033 992.542,896.072 998.0,898.0 L 979.0,911.0" style="stroke:#010101; fill:none;"/>
	<path d="M 1588.0,899.0 L 1586.0,901.0" style="stroke:#010101; fill:none;"/>
	<path d="M 1739.0,899.0 L 1720.45,954.0 L 1711.36,973.165 L 1691.0,979.907 L 1679.6,981.028 L 1677.71,992.0 L 1670.0,1001.0 C 1666.35,996.444 1664.37,993.828 1666.0,988.0 C 1659.61,983.856 1660.74,975.543 1657.68,969.0 C 1653.79,960.693 1646.54,953.727 1639.0,948.634 C 1629.52,942.229 1615.02,938.729 1604.02,936.453 C 1597.71,935.148 1597.73,943.2 1591.0,938.0 L 1599.0,937.0" style="stroke:#010101; fill:none;"/>
	<path d="M 1000.0,900.0 L 994.0,902.0" style="stroke:#010101; fill:none;"/>
	<path d="M 1021.0,902.0 L 1015.0,905.0" style="stroke:#010101; fill:none;"/>
	<path d="M 1579.0,903.0 L 1571.0,914.0 C 1579.6,915.384 1589.81,910.151 1598.0,907.721 C 1607.24,904.979 1616.51,904.661 1626.0,906.329 C 1636.54,908.181 1668.01,922.515 1644.0,931.687 C 1637.01,934.356 1622.85,930.957 1615.0,931.0 L 1618.0,924.0" style="stroke:#010101; fill:none;"/>
	<path d="M 1579.0,906.0 L 1580.0,906.0" style="stroke:#010101; fill:none;"/>
	<path d="M 1049.0,986.0 C 1078.33,947.971 1118.9,929.841 1164.0,915.975 C 1185.96,909.223 1213.71,904.436 1236.0,912.079 C 1263.1,921.371 1278.56,944.55 1298.0,964.0" style="stroke:#010101; fill:none;"/>
	<path d="M 992.0,914.0 L 987.0,914.0 L 990.0,911.0" style="stroke:#010101; fill:none;"/>
	<path d="M 968.0,921.0 L 987.0,913.0" style="stroke:#010101; fill:none;"/>
	<path d="M 1641.0,913.0 L 1632.0,930.0" style="stroke:#010101; fill:none;"/>
	<path d="M 1556.0,914.0 L 1558.0,915.0" style="stroke:#010101; fill:none;"/>
	<path d="M 1571.0,914.0 C 1566.55,917.166 1560.68,921.471 1556.0,917.0" style="stroke:#010101; fill:none;"/>
	<path d="M 984.0,917.0 L 988.0,916.0" style="stroke:#010101; fill:none;"/>
	<path d="M 1680.0,917.0 L 1677.0,925.0 L 1680.0,923.0" style="stroke:#010101; fill:none;"/>
	<path d="M 1523.0,959.0 C 1543.55,940.253 1577.76,923.637 1605.0,918.0" style="stroke:#010101; fill:none;"/>
	<path d="M 1557.0,920.0 L 1530.0,936.0" style="stroke:#010101; fill:none;"/>
	<path d="M 1656.0,920.0 C 1660.33,923.115 1662.56,924.824 1666.0,920.0 L 1666.0,920.0" style="stroke:#010101; fill:none;"/>
	<path d="M 1662.0,925.0 L 1661.0,939.0 L 1671.0,933.0 L 1663.0,925.0" style="stroke:#010101; fill:none;"/>
	<path d="M 1677.0,925.0 L 1671.0,932.0" style="stroke:#010101; fill:none;"/>
	<path d="M 1608.0,927.0 L 1605.0,935.0" style="stroke:#010101; fill:none;"/>
	<path d="M 1623.0,927.0 L 1623.0,930.0" style="stroke:#010101; fill:none;"/>
	<path d="M 1650.0,930.0 L 1670.0,957.0 C 1671.88,953.733 1672.02,951.764 1668.0,951.0" style="stroke:#010101; fill:none;"/>
	<path d="M 1685.0,940.0 L 1679.0,945.0 C 1675.49,937.774 1682.41,934.45 1688.0,931.0" style="stroke:#010101; fill:none;"/>
	<path d="M 1700.0,931.0 C 1696.18,936.659 1688.83,948.889 1682.0,950.0 L 1686.0,945.0" style="stroke:#010101; fill:none;"/>
	<path d="M 1588.0,932.0 C 1586.89,935.059 1586.43,937.235 1590.0,938.0 L 1591.0,938.0" style="stroke:#010101; fill:none;"/>
	<path d="M 1605.0,935.0 L 1614.0,932.0" style="stroke:#010101; fill:none;"/>
	<path d="M 1645.0,932.0 L 1652.0,935.0" style="stroke:#010101; fill:none;"/>
	<path d="M 1655.0,935.0 L 1658.0,933.0" style="stroke:#010101; fill:none;"/>
	<path d="M 1671.0,933.0 L 1676.0,939.0 L 1671.0,943.0 C 1673.12,946.234 1675.32,946.958 1679.0,946.0" style="stroke:#010101; fill:none;"/>
	<path d="M 1208.0,934.0 L 1212.0,938.0 L 1208.0,938.0 C 1208.1,941.912 1204.97,948.288 1206.47,951.682 C 1208.77,956.903 1218.62,949.203 1222.0,948.0 L 1221.0,936.0" style="stroke:#010101; fill:none;"/>
	<path d="M 1200.0,935.0 L 1201.0,943.0 L 1200.0,939.0" style="stroke:#010101; fill:none;"/>
	<path d="M 1228.0,935.0 L 1225.0,943.0" style="stroke:#010101; fill:none;"/>
	<path d="M 1175.0,937.0 L 1172.0,949.0 L 1179.0,939.0" style="stroke:#010101; fill:none;"/>
	<path d="M 1203.0,937.0 L 1203.0,938.0" style="stroke:#010101; fill:none;"/>
	<path d="M 1185.0,938.0 C 1184.0,940.721 1181.09,944.812 1181.83,947.771 C 1184.3,957.656 1198.05,947.98 1200.0,943.0" style="stroke:#010101; fill:none;"/>
	<path d="M 1605.0,938.0 C 1601.74,947.094 1609.56,951.111 1613.09,959.0 C 1616.65,966.923 1617.65,981.666 1615.1,990.0 C 1605.31,1021.91 1562.44,1031.36 1544.48,1001.0 C 1540.2,993.767 1537.36,983.207 1540.1,975.0 C 1541.49,970.849 1545.6,966.47 1545.98,962.153 C 1546.39,957.615 1540.59,961.047 1539.0,962.0 L 1546.0,950.0" style="stroke:#010101; fill:none;"/>
	<path d="M 1660.0,938.0 L 1658.0,940.0" style="stroke:#010101; fill:none;"/>
	<path d="M 1194.0,939.0 L 1188.0,949.0" style="stroke:#010101; fill:none;"/>
	<path d="M 1211.0,939.0 L 1210.0,943.0" style="stroke:#010101; fill:none;"/>
	<path d="M 1545.0,959.0 L 1562.0,944.0 C 1568.71,947.551 1578.9,940.643 1586.0,939.0" style="stroke:#010101; fill:none;"/>
	<path d="M 1162.0,940.0 C 1162.01,947.832 1163.08,949.596 1171.0,950.0" style="stroke:#010101; fill:none;"/>
	<path d="M 1190.0,940.0 L 1192.0,945.0" style="stroke:#010101; fill:none;"/>
	<path d="M 1238.0,940.0 L 1227.0,958.0 C 1235.68,962.754 1252.91,962.575 1261.0,956.0 L 1257.0,957.0" style="stroke:#010101; fill:none;"/>
	<path d="M 1568.0,940.0 L 1568.0,943.0" style="stroke:#010101; fill:none;"/>
	<path d="M 1169.0,941.0 L 1167.0,949.0" style="stroke:#010101; fill:none;"/>
	<path d="M 1600.0,941.0 L 1602.0,944.0" style="stroke:#010101; fill:none;"/>
	<path d="M 1562.0,942.0 L 1562.0,944.0" style="stroke:#010101; fill:none;"/>
	<path d="M 1592.0,942.0 L 1593.0,942.0" style="stroke:#010101; fill:none;"/>
	<path d="M 1327.0,945.0 C 1334.1,941.682 1342.17,949.686 1348.0,953.495 C 1365.35,964.823 1385.62,978.085 1394.0,998.0" style="stroke:#010101; fill:none;"/>
	<path d="M 1662.0,944.0 L 1670.0,943.0" style="stroke:#010101; fill:none;"/>
	<path d="M 1189.0,944.0 L 1188.0,947.0" style="stroke:#010101; fill:none;"/>
	<path d="M 1224.0,945.0 L 1223.0,948.0" style="stroke:#010101; fill:none;"/>
	<path d="M 1670.0,945.0 L 1671.0,947.0" style="stroke:#010101; fill:none;"/>
	<path d="M 1695.0,945.0 L 1688.0,948.0" style="stroke:#010101; fill:none;"/>
	<path d="M 1148.0,947.0 L 1147.0,953.0 L 1162.0,949.0" style="stroke:#010101; fill:none;"/>
	<path d="M 1199.0,951.0 L 1206.0,947.0" style="stroke:#010101; fill:none;"/>
	<path d="M 1221.0,947.0 L 1219.0,949.0" style="stroke:#010101; fill:none;"/>
	<path d="M 1561.0,948.0 L 1564.0,947.0" style="stroke:#010101; fill:none;"/>
	<path d="M 1679.0,948.0 L 1681.0,951.0" style="stroke:#010101; fill:none;"/>
	<path d="M 1143.0,950.0 L 1144.0,954.0 C 1136.97,958.084 1125.52,959.794 1120.99,967.174 C 1102.1,997.933 1129.01,1049.05 1167.0,1040.47 C 1181.6,1037.17 1195.56,1028.23 1202.81,1015.0 C 1212.42,997.482 1206.31,973.119 1188.0,964.0" style="stroke:#010101; fill:none;"/>
	<path d="M 1175.0,950.0 L 1180.0,950.0" style="stroke:#010101; fill:none;"/>
	<path d="M 1220.0,951.0 L 1217.0,955.0 L 1227.0,957.0" style="stroke:#010101; fill:none;"/>
	<path d="M 1681.0,951.0 C 1678.88,954.882 1676.75,955.107 1673.0,953.0" style="stroke:#010101; fill:none;"/>
	<path d="M 1202.0,952.0 L 1205.0,952.0" style="stroke:#010101; fill:none;"/>
	<path d="M 1190.0,953.0 L 1239.0,975.861 L 1302.0,1018.0 L 1299.0,1017.0" style="stroke:#010101; fill:none;"/>
	<path d="M 1144.0,954.0 L 1146.0,954.0" style="stroke:#010101; fill:none;"/>
	<path d="M 1681.0,954.0 C 1688.79,958.493 1694.89,955.875 1703.0,954.0" style="stroke:#010101; fill:none;"/>
	<path d="M 1133.0,955.0 L 1133.0,957.0" style="stroke:#010101; fill:none;"/>
	<path d="M 1214.0,955.0 L 1217.0,955.0" style="stroke:#010101; fill:none;"/>
	<path d="M 1676.0,956.0 C 1673.51,966.045 1672.36,969.15 1679.0,978.0 L 1708.0,962.0" style="stroke:#010101; fill:none;"/>
	<path d="M 1269.0,958.0 C 1264.29,963.797 1264.02,967.858 1256.0,969.0 C 1259.17,975.049 1268.69,975.638 1270.0,968.0" style="stroke:#010101; fill:none;"/>
	<path d="M 1670.0,958.0 L 1673.0,961.0" style="stroke:#010101; fill:none;"/>
	<path d="M 1693.0,971.0 L 1683.0,968.0 L 1699.0,959.0" style="stroke:#010101; fill:none;"/>
	<path d="M 1251.0,960.0 L 1256.0,959.0" style="stroke:#010101; fill:none;"/>
	<path d="M 1675.0,960.0 L 1683.0,966.0" style="stroke:#010101; fill:none;"/>
	<path d="M 755.0,961.0 L 752.0,970.0" style="stroke:#010101; fill:none;"/>
	<path d="M 1116.0,962.0 L 1120.0,968.0" style="stroke:#010101; fill:none;"/>
	<path d="M 1251.0,962.0 L 1247.0,966.0 L 1256.0,969.0" style="stroke:#010101; fill:none;"/>
	<path d="M 1257.0,968.0 L 1265.0,962.0" style="stroke:#010101; fill:none;"/>
	<path d="M 1538.0,962.0 L 1516.0,982.0" style="stroke:#010101; fill:none;"/>
	<path d="M 1238.0,964.0 L 1246.0,965.0" style="stroke:#010101; fill:none;"/>
	<path d="M 1278.0,964.0 L 1272.0,971.0" style="stroke:#010101; fill:none;"/>
	<path d="M 1684.0,964.0 L 1685.0,964.0" style="stroke:#010101; fill:none;"/>
	<path d="M 1679.0,965.0 L 1683.0,969.0" style="stroke:#010101; fill:none;"/>
	<path d="M 1109.0,967.0 C 1110.16,974.753 1095.91,979.943 1091.11,985.04 C 1087.99,988.344 1087.04,992.762 1082.0,992.0 L 1088.0,988.0" style="stroke:#010101; fill:none;"/>
	<path d="M 1111.0,970.0 L 1119.0,967.0" style="stroke:#010101; fill:none;"/>
	<path d="M 1575.0,968.0 C 1559.0,978.282 1579.94,1000.03 1590.0,983.0 C 1585.41,981.172 1567.63,971.106 1580.0,967.0" style="stroke:#010101; fill:none;"/>
	<path d="M 1265.0,969.0 L 1269.0,969.0" style="stroke:#010101; fill:none;"/>
	<path d="M 1682.0,970.0 L 1677.0,975.0" style="stroke:#010101; fill:none;"/>
	<path d="M 1687.0,970.0 L 1687.0,972.0" style="stroke:#010101; fill:none;"/>
	<path d="M 751.0,972.0 L 751.0,973.0" style="stroke:#010101; fill:none;"/>
	<path d="M 1676.0,990.0 C 1670.31,984.532 1665.38,979.541 1675.0,975.0" style="stroke:#010101; fill:none;"/>
	<path d="M 1711.0,976.0 L 1705.45,986.227 L 1696.0,987.484 L 1686.0,994.0 L 1706.0,993.0" style="stroke:#010101; fill:none;"/>
	<path d="M 1307.0,978.0 L 1316.0,994.0" style="stroke:#010101; fill:none;"/>
	<path d="M 1175.0,996.0 C 1174.55,999.284 1173.91,1002.29 1171.7,1004.91 C 1169.96,1006.95 1167.6,1008.73 1165.0,1009.48 C 1152.78,1013.0 1145.23,996.606 1150.18,987.015 C 1152.14,983.211 1159.08,978.252 1163.64,980.467 C 1166.51,981.859 1164.82,986.518 1165.45,988.999 C 1166.66,993.8 1170.48,995.659 1175.0,996.0" style="stroke:#010101; fill:none;"/>
	<path d="M 1678.0,979.0 L 1679.0,980.0" style="stroke:#010101; fill:none;"/>
	<path d="M 1668.0,983.0 L 1664.0,987.0" style="stroke:#010101; fill:none;"/>
	<path d="M 384.0,1063.0 C 388.033,1077.31 389.903,1098.75 398.0,1111.0 C 405.159,1101.05 401.379,1078.39 403.17,1066.0 C 405.468,1050.1 411.939,1034.18 417.0,1019.0 C 419.75,1010.75 422.338,1001.21 429.043,995.214 C 444.194,981.667 474.686,984.615 492.0,991.192 C 499.634,994.092 507.255,998.763 515.0,1001.06 C 520.709,1002.75 524.75,998.105 527.0,1006.0 L 519.0,1003.0" style="stroke:#010101; fill:none;"/>
	<path d="M 1708.0,988.0 L 1719.0,989.0" style="stroke:#010101; fill:none;"/>
	<path d="M 1666.0,989.0 L 1670.0,993.0 L 1668.0,996.0" style="stroke:#010101; fill:none;"/>
	<path d="M 1027.0,1029.0 L 1062.76,1007.0 L 1082.0,990.0" style="stroke:#010101; fill:none;"/>
	<path d="M 1670.0,993.0 L 1676.0,990.0" style="stroke:#010101; fill:none;"/>
	<path d="M 1083.0,991.0 C 1083.72,1001.62 1063.48,1005.54 1074.28,1016.85 C 1075.75,1018.39 1077.13,1019.11 1079.0,1020.0 L 1075.0,1005.0" style="stroke:#010101; fill:none;"/>
	<path d="M 1680.0,993.0 L 1686.0,994.0" style="stroke:#010101; fill:none;"/>
	<path d="M 1177.0,994.0 L 1175.0,996.0" style="stroke:#010101; fill:none;"/>
	<path d="M 1692.0,997.0 C 1699.0,1002.03 1711.59,997.691 1720.0,997.0" style="stroke:#010101; fill:none;"/>
	<path d="M 1714.0,998.0 L 1717.0,998.0" style="stroke:#010101; fill:none;"/>
	<path d="M 1705.0,999.0 L 1713.0,1001.0" style="stroke:#010101; fill:none;"/>
	<path d="M 1711.0,999.0 L 1711.0,1000.0" style="stroke:#010101; fill:none;"/>
	<path d="M 1701.0,1000.0 L 1704.0,1002.0" style="stroke:#010101; fill:none;"/>
	<path d="M 1066.0,1001.0 L 1067.0,1005.0" style="stroke:#010101; fill:none;"/>
	<path d="M 1665.0,1002.0 C 1665.0,1010.22 1664.8,1019.28 1658.47,1025.53 C 1654.41,1029.54 1648.74,1030.72 1646.0,1036.0 L 1664.0,1044.0" style="stroke:#010101; fill:none;"/>
	<path d="M 1060.0,1008.0 L 1064.0,1003.0" style="stroke:#010101; fill:none;"/>
	<path d="M 1061.0,1005.0 L 1063.0,1007.0" style="stroke:#010101; fill:none;"/>
	<path d="M 1517.0,1005.0 C 1521.68,1024.74 1536.06,1041.4 1547.0,1058.0 C 1577.01,1103.52 1620.13,1144.26 1642.0,1195.0" style="stroke:#010101; fill:none;"/>
	<path d="M 527.0,1006.0 C 530.631,1009.01 533.238,1013.19 538.0,1011.0 L 533.0,1010.0" style="stroke:#010101; fill:none;"/>
	<path d="M 1658.0,1006.0 C 1654.63,1019.34 1639.96,1023.64 1628.0,1026.62 C 1612.8,1030.43 1594.7,1034.42 1579.0,1032.07 C 1566.74,1030.24 1555.94,1023.83 1544.0,1021.0" style="stroke:#010101; fill:none;"/>
	<path d="M 759.0,1009.0 L 758.0,1012.0" style="stroke:#010101; fill:none;"/>
	<path d="M 1399.0,1013.0 L 1393.0,1037.0" style="stroke:#010101; fill:none;"/>
	<path d="M 536.0,1014.0 L 599.0,1082.0" style="stroke:#010101; fill:none;"/>
	<path d="M 757.0,1014.0 L 757.0,1015.0" style="stroke:#010101; fill:none;"/>
	<path d="M 1295.0,1016.0 C 1293.98,1024.86 1302.61,1026.34 1303.0,1018.0" style="stroke:#010101; fill:none;"/>
	<path d="M 1669.0,1016.0 L 1671.0,1016.0" style="stroke:#010101; fill:none;"/>
	<path d="M 768.0,1018.0 L 755.0,1054.0" style="stroke:#010101; fill:none;"/>
	<path d="M 1701.0,1018.0 L 1700.0,1020.0" style="stroke:#010101; fill:none;"/>
	<path d="M 1080.0,1021.0 L 1095.0,1033.0 L 1081.0,1040.0" style="stroke:#010101; fill:none;"/>
	<path d="M 1294.0,1023.0 C 1233.0,1045.53 1155.93,1073.4 1096.0,1033.0" style="stroke:#010101; fill:none;"/>
	<path d="M 1700.0,1023.0 L 1700.0,1024.0" style="stroke:#010101; fill:none;"/>
	<path d="M 1664.0,1024.0 L 1666.0,1025.0" style="stroke:#010101; fill:none;"/>
	<path d="M 1659.0,1027.0 L 1661.0,1029.0" style="stroke:#010101; fill:none;"/>
	<path d="M 1067.0,1033.0 L 1080.0,1030.0" style="stroke:#010101; fill:none;"/>
	<path d="M 1584.0,1031.0 L 1585.0,1032.0" style="stroke:#010101; fill:none;"/>
	<path d="M 1701.0,1031.0 L 1701.0,1032.0" style="stroke:#010101; fill:none;"/>
	<path d="M 1094.0,1032.0 L 1093.0,1033.0" style="stroke:#010101; fill:none;"/>
	<path d="M 1079.0,1034.0 L 1088.0,1034.0" style="stroke:#010101; fill:none;"/>
	<path d="M 1562.0,1034.0 L 1563.0,1034.0" style="stroke:#010101; fill:none;"/>
	<path d="M 1584.0,1034.0 L 1613.87,1036.6 L 1621.0,1043.0 C 1622.05,1039.04 1621.57,1036.3 1617.0,1037.0" style="stroke:#010101; fill:none;"/>
	<path d="M 1623.0,1036.0 L 1646.0,1034.0" style="stroke:#010101; fill:none;"/>
	<path d="M 1546.0,1035.0 L 1561.0,1041.0" style="stroke:#010101; fill:none;"/>
	<path d="M 442.0,1166.0 C 438.653,1156.11 437.548,1145.21 435.338,1135.0 C 430.331,1111.87 424.045,1088.1 432.436,1065.0 C 435.053,1057.8 438.783,1048.29 445.174,1043.59 C 456.113,1035.55 484.348,1032.31 496.0,1039.56 C 503.548,1044.26 517.76,1055.08 520.438,1064.0 C 521.395,1067.19 519.994,1070.67 520.755,1074.0 C 523.444,1085.79 528.701,1097.73 533.061,1109.0 C 535.344,1114.9 537.377,1122.61 543.0,1126.0 L 542.0,1131.0" style="stroke:#010101; fill:none;"/>
	<path d="M 1581.0,1036.0 L 1582.0,1039.0" style="stroke:#010101; fill:none;"/>
	<path d="M 1629.0,1037.0 L 1633.0,1046.0" style="stroke:#010101; fill:none;"/>
	<path d="M 1641.0,1038.0 L 1646.0,1041.0" style="stroke:#010101; fill:none;"/>
	<path d="M 1091.0,1042.0 L 1098.0,1039.0" style="stroke:#010101; fill:none;"/>
	<path d="M 1632.0,1039.0 L 1636.0,1042.0" style="stroke:#010101; fill:none;"/>
	<path d="M 1589.0,1040.0 L 1589.0,1041.0" style="stroke:#010101; fill:none;"/>
	<path d="M 1609.0,1040.0 L 1611.0,1043.0" style="stroke:#010101; fill:none;"/>
	<path d="M 1613.0,1040.0 L 1617.0,1040.0" style="stroke:#010101; fill:none;"/>
	<path d="M 1600.0,1041.0 L 1602.0,1044.0" style="stroke:#010101; fill:none;"/>
	<path d="M 1096.0,1046.0 L 1099.0,1043.0" style="stroke:#010101; fill:none;"/>
	<path d="M 1616.0,1043.0 L 1617.0,1046.0" style="stroke:#010101; fill:none;"/>
	<path d="M 1623.0,1044.0 L 1626.0,1050.0" style="stroke:#010101; fill:none;"/>
	<path d="M 1103.0,1048.0 L 1108.0,1046.0" style="stroke:#010101; fill:none;"/>
	<path d="M 460.0,1048.0 L 498.0,1078.73 L 514.0,1091.0 L 511.0,1090.0" style="stroke:#010101; fill:none;"/>
	<path d="M 1111.0,1051.0 L 1116.0,1049.0" style="stroke:#010101; fill:none;"/>
	<path d="M 472.0,1057.0 C 483.967,1052.92 499.182,1075.91 509.0,1081.0 C 510.987,1070.46 496.479,1057.46 487.0,1055.0" style="stroke:#010101; fill:none;"/>
	<path d="M 1124.0,1061.0 L 1132.0,1056.0" style="stroke:#010101; fill:none;"/>
	<path d="M 464.0,1058.0 C 464.0,1098.5 466.251,1142.87 453.0,1182.0" style="stroke:#010101; fill:none;"/>
	<path d="M 1203.0,1058.0 L 1204.0,1058.0" style="stroke:#010101; fill:none;"/>
	<path d="M 509.0,1059.0 L 514.0,1078.0 L 511.0,1077.0" style="stroke:#010101; fill:none;"/>
	<path d="M 1221.0,1059.0 L 1222.0,1059.0" style="stroke:#010101; fill:none;"/>
	<path d="M 1178.0,1060.0 L 1179.0,1061.0" style="stroke:#010101; fill:none;"/>
	<path d="M 1188.0,1061.0 L 1189.0,1062.0" style="stroke:#010101; fill:none;"/>
	<path d="M 1141.0,1062.0 L 1141.0,1065.0" style="stroke:#010101; fill:none;"/>
	<path d="M 1069.0,1063.0 C 1085.87,1072.95 1103.56,1086.18 1123.0,1090.33 C 1150.79,1096.27 1175.2,1085.94 1202.0,1082.0" style="stroke:#010101; fill:none;"/>
	<path d="M 1151.0,1063.0 L 1152.0,1063.0" style="stroke:#010101; fill:none;"/>
	<path d="M 1159.0,1063.0 L 1160.0,1063.0" style="stroke:#010101; fill:none;"/>
	<path d="M 522.0,1066.0 C 534.077,1072.19 541.197,1089.72 547.443,1101.0 C 550.164,1105.92 554.863,1110.62 556.454,1116.09 C 557.765,1120.59 553.856,1123.33 556.0,1128.0 L 559.0,1121.0" style="stroke:#010101; fill:none;"/>
	<path d="M 1240.0,1067.0 C 1230.97,1072.27 1220.41,1076.6 1210.0,1078.0" style="stroke:#010101; fill:none;"/>
	<path d="M 529.0,1075.0 L 528.0,1080.0 L 532.0,1076.0" style="stroke:#010101; fill:none;"/>
	<path d="M 511.0,1076.0 L 511.0,1077.0" style="stroke:#010101; fill:none;"/>
	<path d="M 515.0,1079.0 C 519.696,1096.21 528.392,1117.35 540.0,1131.0" style="stroke:#010101; fill:none;"/>
	<path d="M 528.0,1080.0 L 542.0,1125.0" style="stroke:#010101; fill:none;"/>
	<path d="M 509.0,1081.0 L 513.0,1089.0" style="stroke:#010101; fill:none;"/>
	<path d="M 747.0,1085.0 L 740.0,1105.0 L 742.0,1102.0" style="stroke:#010101; fill:none;"/>
	<path d="M 515.0,1089.0 L 517.0,1091.0" style="stroke:#010101; fill:none;"/>
	<path d="M 737.0,1089.0 L 733.0,1097.0" style="stroke:#010101; fill:none;"/>
	<path d="M 602.0,1090.0 L 603.0,1094.0" style="stroke:#010101; fill:none;"/>
	<path d="M 670.0,1092.0 L 669.0,1119.0" style="stroke:#010101; fill:none;"/>
	<path d="M 514.0,1093.0 C 522.092,1110.91 530.626,1133.64 550.0,1142.0" style="stroke:#010101; fill:none;"/>
	<path d="M 473.0,1099.0 C 479.982,1129.45 471.624,1159.88 465.008,1190.0 C 462.977,1199.24 464.936,1212.27 460.0,1220.0 C 453.741,1200.6 461.43,1184.22 463.0,1165.0" style="stroke:#010101; fill:none;"/>
	<path d="M 704.0,1101.0 L 704.0,1104.0" style="stroke:#010101; fill:none;"/>
	<path d="M 683.0,1103.0 L 681.0,1120.0" style="stroke:#010101; fill:none;"/>
	<path d="M 621.0,1106.0 C 626.647,1133.28 635.573,1160.11 642.849,1187.0 C 655.499,1233.76 667.598,1280.74 681.974,1327.0 C 692.654,1361.36 698.817,1400.8 715.0,1433.0" style="stroke:#010101; fill:none;"/>
	<path d="M 662.0,1106.0 L 662.0,1110.0" style="stroke:#010101; fill:none;"/>
	<path d="M 675.0,1106.0 L 674.0,1122.0" style="stroke:#010101; fill:none;"/>
	<path d="M 739.0,1106.0 L 740.0,1109.0 L 742.0,1106.0" style="stroke:#010101; fill:none;"/>
	<path d="M 551.0,1107.0 C 549.076,1110.68 548.654,1115.54 554.0,1113.0" style="stroke:#010101; fill:none;"/>
	<path d="M 740.0,1109.0 L 735.0,1129.0" style="stroke:#010101; fill:none;"/>
	<path d="M 719.0,1110.0 L 719.0,1125.0" style="stroke:#010101; fill:none;"/>
	<path d="M 398.0,1112.0 L 403.0,1148.0" style="stroke:#010101; fill:none;"/>
	<path d="M 551.0,1114.0 L 552.0,1115.0" style="stroke:#010101; fill:none;"/>
	<path d="M 551.0,1116.0 L 554.0,1124.0" style="stroke:#010101; fill:none;"/>
	<path d="M 642.0,1117.0 L 643.0,1120.0" style="stroke:#010101; fill:none;"/>
	<path d="M 543.0,1120.0 L 552.0,1137.0" style="stroke:#010101; fill:none;"/>
	<path d="M 646.0,1120.0 L 647.0,1122.0" style="stroke:#010101; fill:none;"/>
	<path d="M 561.0,1127.0 L 556.0,1129.0" style="stroke:#010101; fill:none;"/>
	<path d="M 541.0,1127.0 L 542.0,1128.0" style="stroke:#010101; fill:none;"/>
	<path d="M 706.0,1127.0 L 705.0,1128.0" style="stroke:#010101; fill:none;"/>
	<path d="M 562.0,1128.0 C 564.419,1143.94 576.306,1162.24 583.08,1177.0 C 586.473,1184.39 589.429,1194.04 595.0,1200.0 C 595.829,1197.25 595.988,1196.0 593.0,1196.0" style="stroke:#010101; fill:none;"/>
	<path d="M 544.0,1129.0 L 544.0,1133.0" style="stroke:#010101; fill:none;"/>
	<path d="M 557.0,1130.0 C 558.536,1132.63 559.089,1132.83 562.0,1132.0" style="stroke:#010101; fill:none;"/>
	<path d="M 704.0,1131.0 L 698.0,1146.0" style="stroke:#010101; fill:none;"/>
	<path d="M 708.0,1136.0 L 706.0,1149.0" style="stroke:#010101; fill:none;"/>
	<path d="M 715.0,1142.0 L 705.0,1165.0" style="stroke:#010101; fill:none;"/>
	<path d="M 1730.0,1160.0 L 1731.0,1163.0" style="stroke:#010101; fill:none;"/>
	<path d="M 573.0,1196.0 L 556.66,1175.0 L 553.172,1166.56 L 566.0,1162.0" style="stroke:#010101; fill:none;"/>
	<path d="M 570.0,1164.0 C 573.475,1176.71 581.412,1188.41 589.0,1199.0" style="stroke:#010101; fill:none;"/>
	<path d="M 562.0,1165.0 L 580.0,1197.0" style="stroke:#010101; fill:none;"/>
	<path d="M 1732.0,1165.0 L 1732.0,1166.0" style="stroke:#010101; fill:none;"/>
	<path d="M 524.0,1248.0 C 523.932,1223.47 521.622,1175.7 552.0,1166.0" style="stroke:#010101; fill:none;"/>
	<path d="M 1733.0,1170.0 C 1759.03,1237.48 1730.11,1306.25 1721.28,1374.0 C 1712.05,1444.9 1717.78,1515.93 1712.91,1587.0 C 1710.32,1624.8 1704.69,1663.89 1697.0,1701.0 C 1689.01,1739.59 1680.0,1782.45 1658.16,1816.0 C 1634.05,1853.06 1595.8,1866.44 1557.0,1881.8 C 1546.71,1885.87 1535.66,1890.25 1525.0,1893.11 C 1520.24,1894.39 1511.42,1894.97 1507.59,1898.01 C 1505.11,1899.98 1504.32,1905.17 1503.0,1908.0" style="stroke:#010101; fill:none;"/>
	<path d="M 590.0,1185.0 L 595.0,1194.0" style="stroke:#010101; fill:none;"/>
	<path d="M 496.0,1186.0 C 486.576,1220.53 484.104,1267.39 507.0,1298.0" style="stroke:#010101; fill:none;"/>
	<path d="M 470.0,1189.0 L 464.0,1208.0" style="stroke:#010101; fill:none;"/>
	<path d="M 620.0,1192.0 C 626.692,1220.93 615.765,1255.42 628.353,1283.0 C 633.768,1294.86 650.659,1309.09 661.0,1317.0" style="stroke:#010101; fill:none;"/>
	<path d="M 595.0,1200.0 C 599.856,1212.68 578.09,1205.39 573.0,1204.0" style="stroke:#010101; fill:none;"/>
	<path d="M 1505.0,1205.0 L 1531.0,1204.0" style="stroke:#010101; fill:none;"/>
	<path d="M 471.0,1206.0 C 468.837,1217.48 466.316,1232.95 471.0,1244.0 L 469.0,1243.0" style="stroke:#010101; fill:none;"/>
	<path d="M 1370.0,1232.0 C 1381.89,1215.48 1413.69,1208.83 1433.0,1208.0" style="stroke:#010101; fill:none;"/>
	<path d="M 461.0,1209.0 L 463.0,1212.0" style="stroke:#010101; fill:none;"/>
	<path d="M 461.0,1210.0 L 459.0,1212.0" style="stroke:#010101; fill:none;"/>
	<path d="M 456.0,1212.0 L 457.0,1215.0" style="stroke:#010101; fill:none;"/>
	<path d="M 461.0,1213.0 L 462.0,1214.0" style="stroke:#010101; fill:none;"/>
	<path d="M 1649.0,1214.0 C 1649.75,1223.16 1653.64,1231.72 1653.87,1241.0 C 1654.46,1264.99 1641.6,1292.29 1624.39,1308.1 C 1606.16,1324.84 1578.91,1333.74 1564.0,1354.0" style="stroke:#010101; fill:none;"/>
	<path d="M 460.0,1221.0 C 461.388,1230.08 461.969,1239.08 464.424,1248.0 C 465.582,1252.21 465.836,1257.45 471.0,1255.0 L 471.458,1268.0 L 476.0,1278.0 C 479.824,1273.24 479.004,1268.83 479.0,1263.0" style="stroke:#010101; fill:none;"/>
	<path d="M 472.0,1236.0 L 471.0,1241.0" style="stroke:#010101; fill:none;"/>
	<path d="M 1364.0,1239.0 C 1354.0,1260.11 1348.85,1279.65 1350.0,1303.0 C 1350.8,1319.25 1357.18,1334.16 1374.0,1338.71 C 1379.59,1340.22 1385.23,1340.98 1391.0,1341.0" style="stroke:#010101; fill:none;"/>
	<path d="M 470.0,1245.0 L 471.0,1255.0" style="stroke:#010101; fill:none;"/>
	<path d="M 467.0,1259.0 L 469.0,1266.0" style="stroke:#010101; fill:none;"/>
	<path d="M 473.0,1264.0 L 472.0,1271.0" style="stroke:#010101; fill:none;"/>
	<path d="M 527.0,1270.0 C 530.898,1290.03 543.878,1306.32 566.0,1303.71 C 574.589,1302.7 586.775,1296.09 595.0,1299.78 C 613.399,1308.04 621.505,1332.04 644.0,1334.0" style="stroke:#010101; fill:none;"/>
	<path d="M 480.0,1276.0 C 478.888,1287.01 485.141,1293.2 490.811,1302.0 C 507.51,1327.93 534.147,1340.78 559.0,1357.0" style="stroke:#010101; fill:none;"/>
	<path d="M 476.0,1278.0 L 477.0,1281.0" style="stroke:#010101; fill:none;"/>
	<path d="M 1457.0,1317.0 C 1452.39,1316.32 1432.41,1311.9 1436.93,1304.34 C 1441.75,1296.28 1459.97,1296.31 1468.0,1295.96 C 1496.67,1294.7 1526.04,1298.59 1550.0,1316.0" style="stroke:#010101; fill:none;"/>
	<path d="M 521.0,1306.0 L 533.0,1316.0" style="stroke:#010101; fill:none;"/>
	<path d="M 646.0,1333.0 L 652.0,1332.0" style="stroke:#010101; fill:none;"/>
	<path d="M 1520.0,1333.0 L 1534.0,1342.0" style="stroke:#010101; fill:none;"/>
	<path d="M 1392.0,1345.0 L 1424.0,1353.0" style="stroke:#010101; fill:none;"/>
	<path d="M 568.0,1358.0 C 584.758,1359.11 595.624,1377.58 604.0,1390.0" style="stroke:#010101; fill:none;"/>
	<path d="M 674.0,1370.0 C 680.011,1384.34 663.999,1405.24 650.0,1408.47 C 643.611,1409.94 637.109,1407.72 631.0,1406.0" style="stroke:#010101; fill:none;"/>
	<path d="M 1505.0,1383.0 L 1494.0,1399.0" style="stroke:#010101; fill:none;"/>
	<path d="M 1508.0,1386.0 C 1508.16,1394.05 1501.98,1398.65 1497.0,1404.0 L 1500.0,1402.0" style="stroke:#010101; fill:none;"/>
	<path d="M 1606.0,1387.0 L 1614.0,1395.0" style="stroke:#010101; fill:none;"/>
	<path d="M 1594.0,1389.0 C 1597.71,1394.16 1602.53,1398.28 1609.0,1399.0" style="stroke:#010101; fill:none;"/>
	<path d="M 1533.0,1390.0 L 1520.9,1411.0 L 1495.0,1456.0" style="stroke:#010101; fill:none;"/>
	<path d="M 1515.0,1391.0 L 1493.13,1428.0 L 1472.0,1464.0" style="stroke:#010101; fill:none;"/>
	<path d="M 1542.0,1391.0 L 1545.0,1403.0" style="stroke:#010101; fill:none;"/>
	<path d="M 1545.0,1391.0 L 1550.0,1409.0" style="stroke:#010101; fill:none;"/>
	<path d="M 1586.0,1392.0 L 1601.0,1401.0" style="stroke:#010101; fill:none;"/>
	<path d="M 1558.0,1393.0 L 1569.07,1407.17 L 1582.0,1432.0" style="stroke:#010101; fill:none;"/>
	<path d="M 1502.0,1394.0 L 1499.0,1401.0" style="stroke:#010101; fill:none;"/>
	<path d="M 1524.0,1395.0 L 1487.0,1456.0" style="stroke:#010101; fill:none;"/>
	<path d="M 1494.0,1396.0 L 1495.0,1397.0" style="stroke:#010101; fill:none;"/>
	<path d="M 1556.0,1396.0 L 1563.0,1407.0" style="stroke:#010101; fill:none;"/>
	<path d="M 1562.0,1396.0 L 1563.0,1397.0" style="stroke:#010101; fill:none;"/>
	<path d="M 1581.0,1396.0 L 1611.0,1435.0" style="stroke:#010101; fill:none;"/>
	<path d="M 1571.0,1397.0 L 1592.0,1428.0" style="stroke:#010101; fill:none;"/>
	<path d="M 1492.0,1399.0 C 1474.08,1418.64 1462.83,1444.48 1449.0,1467.0" style="stroke:#010101; fill:none;"/>
	<path d="M 1493.0,1401.0 L 1491.0,1401.0" style="stroke:#010101; fill:none;"/>
	<path d="M 1539.0,1401.0 L 1529.0,1423.0 L 1531.0,1421.0" style="stroke:#010101; fill:none;"/>
	<path d="M 521.0,1405.0 L 522.0,1406.0" style="stroke:#010101; fill:none;"/>
	<path d="M 1475.0,1405.0 L 1457.17,1429.0 L 1429.0,1471.0" style="stroke:#010101; fill:none;"/>
	<path d="M 1496.0,1405.0 L 1499.0,1405.0" style="stroke:#010101; fill:none;"/>
	<path d="M 1413.0,1486.0 L 1449.65,1428.99 L 1467.0,1406.0" style="stroke:#010101; fill:none;"/>
	<path d="M 1496.0,1406.0 L 1481.0,1426.0" style="stroke:#010101; fill:none;"/>
	<path d="M 1627.0,1406.0 L 1651.0,1427.0" style="stroke:#010101; fill:none;"/>
	<path d="M 527.0,1410.0 L 547.0,1422.0" style="stroke:#010101; fill:none;"/>
	<path d="M 1457.0,1410.0 L 1408.0,1474.0" style="stroke:#010101; fill:none;"/>
	<path d="M 1543.0,1410.0 L 1535.0,1437.0" style="stroke:#010101; fill:none;"/>
	<path d="M 1614.0,1410.0 C 1617.07,1417.93 1624.0,1422.7 1631.0,1427.0" style="stroke:#010101; fill:none;"/>
	<path d="M 1565.0,1412.0 L 1571.0,1429.0" style="stroke:#010101; fill:none;"/>
	<path d="M 1623.0,1412.0 L 1633.0,1422.0" style="stroke:#010101; fill:none;"/>
	<path d="M 1397.0,1483.0 C 1412.26,1460.12 1425.14,1431.51 1446.0,1413.0" style="stroke:#010101; fill:none;"/>
	<path d="M 1532.0,1416.0 L 1534.0,1413.0" style="stroke:#010101; fill:none;"/>
	<path d="M 1555.0,1414.0 L 1553.0,1435.0" style="stroke:#010101; fill:none;"/>
	<path d="M 1609.0,1414.0 C 1616.36,1426.79 1629.73,1436.72 1641.0,1446.0" style="stroke:#010101; fill:none;"/>
	<path d="M 1545.0,1415.0 L 1539.0,1439.0" style="stroke:#010101; fill:none;"/>
	<path d="M 521.0,1416.0 C 535.396,1429.15 540.705,1450.71 548.297,1468.0 C 552.26,1477.02 558.481,1485.2 563.0,1494.0" style="stroke:#010101; fill:none;"/>
	<path d="M 1532.0,1416.0 L 1530.0,1418.0" style="stroke:#010101; fill:none;"/>
	<path d="M 1393.0,1462.0 L 1392.0,1464.0 C 1404.45,1450.44 1414.12,1428.59 1430.0,1419.0" style="stroke:#010101; fill:none;"/>
	<path d="M 1532.0,1420.0 L 1531.0,1421.0" style="stroke:#010101; fill:none;"/>
	<path d="M 1561.0,1420.0 L 1568.0,1438.0" style="stroke:#010101; fill:none;"/>
	<path d="M 1603.0,1422.0 C 1607.0,1423.87 1611.69,1428.17 1616.0,1426.0" style="stroke:#010101; fill:none;"/>
	<path d="M 1361.0,1474.0 C 1374.62,1458.36 1389.64,1431.52 1409.0,1423.0" style="stroke:#010101; fill:none;"/>
	<path d="M 1415.0,1423.0 L 1392.4,1449.0 L 1383.0,1457.0" style="stroke:#010101; fill:none;"/>
	<path d="M 1529.0,1423.0 L 1515.0,1447.0" style="stroke:#010101; fill:none;"/>
	<path d="M 1530.0,1424.0 L 1529.0,1427.0" style="stroke:#010101; fill:none;"/>
	<path d="M 1469.0,1425.0 L 1439.0,1476.0" style="stroke:#010101; fill:none;"/>
	<path d="M 1658.0,1426.0 L 1670.0,1444.0" style="stroke:#010101; fill:none;"/>
	<path d="M 1656.0,1428.0 C 1659.75,1443.8 1670.99,1459.98 1679.0,1474.0" style="stroke:#010101; fill:none;"/>
	<path d="M 1631.0,1430.0 L 1631.0,1435.0" style="stroke:#010101; fill:none;"/>
	<path d="M 1638.0,1430.0 C 1643.22,1438.93 1648.9,1450.87 1659.0,1455.0" style="stroke:#010101; fill:none;"/>
	<path d="M 1388.0,1431.0 L 1350.99,1469.0 L 1325.0,1518.0" style="stroke:#010101; fill:none;"/>
	<path d="M 1460.0,1431.0 L 1431.0,1478.0" style="stroke:#010101; fill:none;"/>
	<path d="M 1480.0,1432.0 L 1458.0,1471.0" style="stroke:#010101; fill:none;"/>
	<path d="M 579.0,1437.0 L 580.0,1438.0" style="stroke:#010101; fill:none;"/>
	<path d="M 1654.0,1438.0 L 1663.0,1453.0" style="stroke:#010101; fill:none;"/>
	<path d="M 584.0,1440.0 C 605.24,1459.71 627.443,1469.83 656.0,1473.58 C 673.722,1475.9 692.604,1462.78 695.0,1445.0" style="stroke:#010101; fill:none;"/>
	<path d="M 1373.0,1441.0 L 1330.26,1476.29 L 1304.0,1517.0" style="stroke:#010101; fill:none;"/>
	<path d="M 1410.0,1444.0 L 1408.0,1445.0" style="stroke:#010101; fill:none;"/>
	<path d="M 1402.0,1446.0 L 1392.0,1461.0" style="stroke:#010101; fill:none;"/>
	<path d="M 1409.0,1446.0 C 1405.16,1456.54 1391.84,1470.74 1393.0,1482.0 L 1399.0,1476.0" style="stroke:#010101; fill:none;"/>
	<path d="M 1670.0,1450.0 L 1670.0,1455.0" style="stroke:#010101; fill:none;"/>
	<path d="M 1334.0,1451.0 L 1294.0,1506.0" style="stroke:#010101; fill:none;"/>
	<path d="M 582.0,1452.0 L 581.0,1453.0" style="stroke:#010101; fill:none;"/>
	<path d="M 1283.0,1505.0 C 1297.06,1488.75 1308.07,1463.94 1327.0,1453.0" style="stroke:#010101; fill:none;"/>
	<path d="M 591.0,1455.0 L 611.0,1469.0" style="stroke:#010101; fill:none;"/>
	<path d="M 580.0,1456.0 L 604.0,1481.0" style="stroke:#010101; fill:none;"/>
	<path d="M 1345.0,1458.0 L 1337.0,1469.0" style="stroke:#010101; fill:none;"/>
	<path d="M 1382.0,1460.0 L 1360.0,1503.0" style="stroke:#010101; fill:none;"/>
	<path d="M 1309.0,1462.0 L 1281.0,1497.0" style="stroke:#010101; fill:none;"/>
	<path d="M 1363.0,1464.0 L 1336.0,1513.0" style="stroke:#010101; fill:none;"/>
	<path d="M 1390.0,1465.0 L 1374.0,1494.0" style="stroke:#010101; fill:none;"/>
	<path d="M 1372.0,1466.0 L 1350.0,1501.0" style="stroke:#010101; fill:none;"/>
	<path d="M 578.0,1469.0 L 578.0,1470.0" style="stroke:#010101; fill:none;"/>
	<path d="M 580.0,1471.0 C 588.0,1489.89 611.798,1503.84 626.0,1518.0" style="stroke:#010101; fill:none;"/>
	<path d="M 1399.0,1475.0 L 1402.0,1474.0" style="stroke:#010101; fill:none;"/>
	<path d="M 1341.0,1475.0 L 1317.0,1520.0" style="stroke:#010101; fill:none;"/>
	<path d="M 1365.0,1482.0 L 1371.0,1477.0" style="stroke:#010101; fill:none;"/>
	<path d="M 1369.0,1478.0 L 1371.0,1480.0" style="stroke:#010101; fill:none;"/>
	<path d="M 1391.0,1482.0 L 1394.0,1482.0" style="stroke:#010101; fill:none;"/>
	<path d="M 1391.0,1484.0 L 1384.0,1495.0" style="stroke:#010101; fill:none;"/>
	<path d="M 1327.0,1487.0 L 1305.0,1530.0" style="stroke:#010101; fill:none;"/>
	<path d="M 1427.0,1522.0 C 1455.4,1514.57 1486.67,1502.03 1516.0,1499.99 C 1531.67,1498.9 1546.18,1509.02 1563.0,1505.8 C 1580.7,1502.42 1612.96,1487.43 1625.0,1505.0" style="stroke:#010101; fill:none;"/>
	<path d="M 596.0,1500.0 C 604.107,1516.34 618.839,1529.62 632.0,1542.0" style="stroke:#010101; fill:none;"/>
	<path d="M 1294.0,1518.0 L 1310.0,1502.0" style="stroke:#010101; fill:none;"/>
	<path d="M 1308.0,1504.0 L 1310.0,1506.0" style="stroke:#010101; fill:none;"/>
	<path d="M 1378.0,1549.0 C 1395.89,1544.86 1410.62,1533.31 1429.0,1530.44 C 1444.41,1528.03 1460.35,1531.65 1476.0,1530.96 C 1490.65,1530.32 1506.56,1530.12 1521.0,1527.56 C 1528.19,1526.28 1534.55,1523.07 1542.0,1522.31 C 1546.72,1521.83 1551.28,1523.25 1556.0,1522.71 C 1574.5,1520.61 1596.61,1504.78 1615.0,1511.99 C 1620.61,1514.19 1624.83,1518.84 1629.0,1523.0" style="stroke:#010101; fill:none;"/>
	<path d="M 604.0,1514.0 C 606.133,1530.31 624.515,1550.88 635.0,1563.0" style="stroke:#010101; fill:none;"/>
	<path d="M 575.0,1522.0 C 589.921,1568.18 607.884,1613.41 627.0,1658.0" style="stroke:#010101; fill:none;"/>
	<path d="M 1445.0,1529.0 C 1453.2,1522.93 1465.16,1523.0 1475.0,1523.0 L 1527.0,1523.0" style="stroke:#010101; fill:none;"/>
	<path d="M 1420.0,1524.0 L 1421.0,1524.0" style="stroke:#010101; fill:none;"/>
	<path d="M 1636.0,1527.0 L 1648.0,1531.0" style="stroke:#010101; fill:none;"/>
	<path d="M 1651.0,1530.0 L 1655.0,1529.0" style="stroke:#010101; fill:none;"/>
	<path d="M 1359.0,1559.0 C 1347.98,1563.74 1328.79,1569.48 1317.0,1566.0" style="stroke:#010101; fill:none;"/>
	<path d="M 1447.0,1615.0 C 1462.29,1614.27 1477.61,1616.96 1493.0,1615.91 C 1540.62,1612.65 1587.72,1603.16 1632.0,1585.0" style="stroke:#010101; fill:none;"/>
	<path d="M 985.0,1654.0 L 1000.0,1679.0" style="stroke:#010101; fill:none;"/>
	<path d="M 642.0,1672.0 C 658.187,1680.63 683.703,1691.4 702.0,1693.0" style="stroke:#010101; fill:none;"/>
	<path d="M 705.0,1694.0 L 708.0,1695.0" style="stroke:#010101; fill:none;"/>
	<path d="M 729.0,1704.0 C 759.416,1722.99 794.551,1737.86 829.0,1748.0" style="stroke:#010101; fill:none;"/>
	<path d="M 1034.0,1718.0 C 1067.84,1764.58 1105.59,1808.74 1146.0,1850.0" style="stroke:#010101; fill:none;"/>
	<path d="M 911.0,1776.0 L 919.0,1778.0" style="stroke:#010101; fill:none;"/>
	<path d="M 1554.0,1777.0 C 1550.73,1802.29 1537.86,1828.06 1527.23,1851.0 C 1523.21,1859.69 1519.74,1870.94 1512.0,1877.0" style="stroke:#010101; fill:none;"/>
	<path d="M 922.0,1779.0 L 931.0,1782.0" style="stroke:#010101; fill:none;"/>
	<path d="M 946.0,1787.0 L 947.0,1788.0" style="stroke:#010101; fill:none;"/>
	<path d="M 1031.0,1826.0 L 1032.0,1827.0" style="stroke:#010101; fill:none;"/>
	<path d="M 1036.0,1829.0 L 1037.0,1830.0" style="stroke:#010101; fill:none;"/>
	<path d="M 1045.0,1835.0 L 1093.0,1867.0" style="stroke:#010101; fill:none;"/>
	<path d="M 1497.0,1836.0 L 1496.0,1856.0" style="stroke:#010101; fill:none;"/>
	<path d="M 1533.0,1848.0 L 1541.0,1857.0" style="stroke:#010101; fill:none;"/>
	<path d="M 1584.0,1891.0 L 1577.0,1899.0" style="stroke:#010101; fill:none;"/>
	<path d="M 1148.0,1894.0 L 1157.0,1895.0" style="stroke:#010101; fill:none;"/>
	<path d="M 1159.0,1895.0 C 1171.96,1901.51 1191.66,1907.88 1206.0,1910.0" style="stroke:#010101; fill:none;"/>
	<path d="M 1441.0,1923.0 L 1421.0,1915.0 L 1451.0,1908.73 L 1505.0,1898.0" style="stroke:#010101; fill:none;"/>
	<path d="M 1209.0,1910.0 L 1210.0,1910.0" style="stroke:#010101; fill:none;"/>
	<path d="M 1503.0,1910.0 L 1502.0,1911.0" style="stroke:#010101; fill:none;"/>
	<path d="M 1229.0,1913.0 C 1260.09,1918.79 1294.39,1920.34 1326.0,1918.96 C 1346.56,1918.06 1367.33,1914.25 1388.0,1916.06 C 1392.84,1916.48 1395.64,1920.55 1400.0,1922.29 C 1411.8,1927.01 1425.4,1931.3 1438.0,1933.0" style="stroke:#010101; fill:none;"/>
	<path d="M 1394.0,1916.0 L 1420.0,1914.0" style="stroke:#010101; fill:none;"/>
	<path d="M 1359.0,1923.0 L 1381.0,1927.58 L 1424.0,1941.0" style="stroke:#010101; fill:none;"/>
	<path d="M 1346.0,1927.0 C 1369.55,1939.41 1398.19,1938.36 1420.0,1955.0" style="stroke:#010101; fill:none;"/>
	<path d="M 1325.0,1938.0 C 1331.09,1951.06 1348.56,1960.39 1359.0,1970.0" style="stroke:#010101; fill:none;"/>
	<path d="M 1311.0,1943.0 C 1332.27,1963.83 1359.39,1980.4 1384.0,1997.0" style="stroke:#010101; fill:none;"/>
	<path d="M 1362.0,1996.0 L 1366.0,2000.0" style="stroke:#010101; fill:none;"/>
	<path d="M 1368.0,2002.0 L 1400.0,2026.0" style="stroke:#010101; fill:none;"/>
	<path d="M 1392.0,2033.0 L 1392.0,2034.0" style="stroke:#010101; fill:none;"/>
	<path d="M 1394.0,2036.0 L 1394.0,2037.0" style="stroke:#010101; fill:none;"/>
	<path d="M 1444.0,2036.0 C 1438.69,2050.58 1427.91,2059.13 1413.0,2062.0" style="stroke:#010101; fill:none;"/>
</svg>
