<?xml version="1.0" ?>
<svg baseProfile="full" height="2190" version="1.1" width="2120" xmlns="http://www.w3.org/2000/svg" xmlns:ev="http://www.w3.org/2001/xml-events" xmlns:xlink="http://www.w3.org/1999/xlink">
	<defs/>
	<path d="M 1185.0,464.0 L 1184.0,468.0" style="stroke:#010101; fill:none;"/>
	<path d="M 1203.0,468.0 C 1202.8,477.256 1198.59,486.526 1191.0,492.0" style="stroke:#010101; fill:none;"/>
	<path d="M 1182.0,471.0 L 1172.0,485.0" style="stroke:#010101; fill:none;"/>
	<path d="M 1216.0,484.0 L 1209.0,488.0" style="stroke:#010101; fill:none;"/>
	<path d="M 1137.0,501.0 L 1152.0,499.0" style="stroke:#010101; fill:none;"/>
	<path d="M 1126.0,546.0 L 1135.0,545.0" style="stroke:#010101; fill:none;"/>
	<path d="M 1456.0,546.0 L 1441.0,581.0" style="stroke:#010101; fill:none;"/>
	<path d="M 1121.0,547.0 L 1123.0,547.0" style="stroke:#010101; fill:none;"/>
	<path d="M 1467.0,572.0 L 1459.0,596.0" style="stroke:#010101; fill:none;"/>
	<path d="M 1416.0,574.0 L 1402.0,609.0" style="stroke:#010101; fill:none;"/>
	<path d="M 1110.0,583.0 L 1128.0,576.0" style="stroke:#010101; fill:none;"/>
	<path d="M 1484.0,579.0 L 1484.0,581.0" style="stroke:#010101; fill:none;"/>
	<path d="M 1106.0,584.0 L 1107.0,584.0" style="stroke:#010101; fill:none;"/>
	<path d="M 1483.0,584.0 L 1483.0,604.0" style="stroke:#010101; fill:none;"/>
	<path d="M 1516.0,595.0 L 1515.0,601.0" style="stroke:#010101; fill:none;"/>
	<path d="M 1498.0,601.0 L 1498.0,647.0" style="stroke:#010101; fill:none;"/>
	<path d="M 1529.0,603.0 C 1527.78,614.123 1532.61,625.88 1540.0,634.0" style="stroke:#010101; fill:none;"/>
	<path d="M 1515.0,605.0 L 1515.0,626.0" style="stroke:#010101; fill:none;"/>
	<path d="M 1118.0,627.0 L 1127.0,626.0" style="stroke:#010101; fill:none;"/>
	<path d="M 1126.0,634.0 L 1128.0,635.0" style="stroke:#010101; fill:none;"/>
	<path d="M 1634.0,638.0 L 1618.0,663.0" style="stroke:#010101; fill:none;"/>
	<path d="M 1612.0,639.0 L 1612.0,640.0" style="stroke:#010101; fill:none;"/>
	<path d="M 1611.0,642.0 L 1605.0,669.0 L 1602.0,654.0" style="stroke:#010101; fill:none;"/>
	<path d="M 1139.0,648.0 L 1141.0,648.0" style="stroke:#010101; fill:none;"/>
	<path d="M 1616.0,649.0 L 1616.0,658.0" style="stroke:#010101; fill:none;"/>
	<path d="M 1637.0,661.0 L 1637.0,662.0" style="stroke:#010101; fill:none;"/>
	<path d="M 1102.0,667.0 L 1152.0,662.0" style="stroke:#010101; fill:none;"/>
	<path d="M 1635.0,665.0 L 1630.0,679.0" style="stroke:#010101; fill:none;"/>
	<path d="M 1102.0,678.0 L 1144.0,673.0" style="stroke:#010101; fill:none;"/>
	<path d="M 485.0,773.0 L 479.0,778.0 L 481.0,769.0 L 485.0,773.0 C 492.084,764.379 496.648,753.824 503.666,745.0 C 513.125,733.107 525.048,723.381 536.0,712.961 C 544.111,705.245 553.367,695.018 565.0,693.301 C 576.472,691.607 589.205,697.382 599.0,702.862 C 606.122,706.846 612.352,712.04 617.911,718.0 C 630.16,731.134 639.906,746.9 651.0,761.0" style="stroke:#010101; fill:none;"/>
	<path d="M 1082.0,696.0 L 1105.0,693.0" style="stroke:#010101; fill:none;"/>
	<path d="M 1643.0,705.0 L 1641.0,713.0" style="stroke:#010101; fill:none;"/>
	<path d="M 1063.0,710.0 L 1102.0,706.0" style="stroke:#010101; fill:none;"/>
	<path d="M 1064.0,713.0 L 1126.0,711.0" style="stroke:#010101; fill:none;"/>
	<path d="M 1681.0,718.0 L 1681.0,719.0" style="stroke:#010101; fill:none;"/>
	<path d="M 1667.0,719.0 L 1663.0,732.0" style="stroke:#010101; fill:none;"/>
	<path d="M 990.0,723.0 L 1024.0,722.036 L 1087.0,720.0" style="stroke:#010101; fill:none;"/>
	<path d="M 1679.0,722.0 L 1678.0,724.0" style="stroke:#010101; fill:none;"/>
	<path d="M 491.0,729.0 L 481.0,769.0" style="stroke:#010101; fill:none;"/>
	<path d="M 1695.0,731.0 L 1695.0,732.0" style="stroke:#010101; fill:none;"/>
	<path d="M 1694.0,734.0 L 1691.0,747.0" style="stroke:#010101; fill:none;"/>
	<path d="M 1758.0,734.0 L 1749.89,754.971 L 1746.0,764.0 L 1747.0,760.0" style="stroke:#010101; fill:none;"/>
	<path d="M 1756.0,735.0 L 1742.0,753.0" style="stroke:#010101; fill:none;"/>
	<path d="M 1713.0,741.0 L 1714.0,751.0" style="stroke:#010101; fill:none;"/>
	<path d="M 489.0,849.0 C 499.448,816.892 506.615,777.368 533.0,754.184 C 538.122,749.684 546.978,743.216 554.0,742.52 C 557.634,742.16 561.531,744.461 565.0,745.37 C 576.028,748.258 588.857,750.991 596.671,760.04 C 603.643,768.116 607.831,784.459 608.721,795.0 C 609.082,799.265 605.826,802.187 604.483,806.0 C 602.592,811.371 602.039,817.447 600.746,823.0 C 596.964,839.242 596.921,855.775 595.0,872.0" style="stroke:#010101; fill:none;"/>
	<path d="M 640.0,747.0 L 643.0,744.0 L 643.0,750.0" style="stroke:#010101; fill:none;"/>
	<path d="M 1759.0,744.0 L 1750.0,768.0" style="stroke:#010101; fill:none;"/>
	<path d="M 1747.0,746.0 L 1747.0,747.0" style="stroke:#010101; fill:none;"/>
	<path d="M 1748.0,748.0 L 1746.0,759.0" style="stroke:#010101; fill:none;"/>
	<path d="M 1706.0,749.0 L 1704.0,755.0" style="stroke:#010101; fill:none;"/>
	<path d="M 566.0,755.0 C 568.355,764.94 575.629,770.004 579.688,779.0 C 585.64,792.192 591.921,808.665 593.637,823.0 C 594.445,829.759 592.184,837.2 592.015,844.0 C 591.836,851.179 593.303,861.715 590.0,868.0 C 585.398,855.711 583.389,828.206 591.0,817.0" style="stroke:#010101; fill:none;"/>
	<path d="M 646.0,756.0 L 647.0,763.0 L 650.0,760.0" style="stroke:#010101; fill:none;"/>
	<path d="M 1726.0,759.0 L 1724.0,763.0" style="stroke:#010101; fill:none;"/>
	<path d="M 647.0,763.0 L 662.579,833.0 L 669.0,855.0" style="stroke:#010101; fill:none;"/>
	<path d="M 563.0,765.0 C 541.505,800.706 521.52,836.857 492.0,867.0" style="stroke:#010101; fill:none;"/>
	<path d="M 571.0,768.0 L 587.0,818.0" style="stroke:#010101; fill:none;"/>
	<path d="M 1754.0,770.0 L 1754.0,771.0" style="stroke:#010101; fill:none;"/>
	<path d="M 584.0,775.0 C 594.273,779.711 594.667,799.227 591.0,808.0" style="stroke:#010101; fill:none;"/>
	<path d="M 478.0,779.0 L 465.0,812.0" style="stroke:#010101; fill:none;"/>
	<path d="M 1767.0,787.0 L 1771.0,786.0" style="stroke:#010101; fill:none;"/>
	<path d="M 601.0,788.0 L 596.0,798.0" style="stroke:#010101; fill:none;"/>
	<path d="M 598.0,798.0 C 597.888,800.214 597.822,805.598 595.0,804.0" style="stroke:#010101; fill:none;"/>
	<path d="M 610.0,800.0 C 611.559,808.309 607.225,811.342 606.16,819.001 C 603.498,838.131 598.636,858.693 600.0,878.0" style="stroke:#010101; fill:none;"/>
	<path d="M 1778.0,801.0 L 1761.0,811.0" style="stroke:#010101; fill:none;"/>
	<path d="M 1786.0,804.0 L 1787.0,804.0" style="stroke:#010101; fill:none;"/>
	<path d="M 550.0,805.0 C 544.929,829.504 525.324,848.607 509.572,867.0 C 504.907,872.447 491.12,882.567 493.0,890.0 L 503.0,881.0" style="stroke:#010101; fill:none;"/>
	<path d="M 1776.0,808.0 L 1782.0,805.0" style="stroke:#010101; fill:none;"/>
	<path d="M 596.0,806.0 L 594.0,820.0" style="stroke:#010101; fill:none;"/>
	<path d="M 1782.0,822.0 C 1784.28,814.345 1790.94,810.047 1798.0,807.0" style="stroke:#010101; fill:none;"/>
	<path d="M 612.0,811.0 L 614.111,844.0 L 609.207,856.0 L 612.0,874.0 L 608.0,872.0 C 607.13,875.851 608.206,877.304 611.0,880.0 L 612.0,874.0" style="stroke:#010101; fill:none;"/>
	<path d="M 1803.0,818.0 L 1813.0,812.0" style="stroke:#010101; fill:none;"/>
	<path d="M 592.0,821.0 L 592.0,822.0" style="stroke:#010101; fill:none;"/>
	<path d="M 1817.0,842.0 C 1816.16,835.157 1814.45,828.052 1807.0,827.0 L 1812.0,821.0" style="stroke:#010101; fill:none;"/>
	<path d="M 1809.0,823.0 L 1811.0,825.0" style="stroke:#010101; fill:none;"/>
	<path d="M 854.0,835.0 L 863.0,828.0" style="stroke:#010101; fill:none;"/>
	<path d="M 613.0,849.0 L 614.0,863.0" style="stroke:#010101; fill:none;"/>
	<path d="M 509.0,858.0 C 500.515,866.486 477.198,885.583 484.0,899.0 L 486.0,896.0 L 485.0,897.0" style="stroke:#010101; fill:none;"/>
	<path d="M 597.0,863.0 L 600.0,858.0" style="stroke:#010101; fill:none;"/>
	<path d="M 608.0,861.0 L 607.0,871.0" style="stroke:#010101; fill:none;"/>
	<path d="M 666.0,861.0 L 665.0,867.0" style="stroke:#010101; fill:none;"/>
	<path d="M 595.0,864.0 L 595.0,866.0" style="stroke:#010101; fill:none;"/>
	<path d="M 590.0,868.0 L 595.0,881.0" style="stroke:#010101; fill:none;"/>
	<path d="M 1235.0,877.0 L 1217.0,874.924 L 1192.0,875.0 L 1212.0,870.715 L 1254.0,868.799 L 1278.0,870.0 L 1269.91,874.397 L 1245.0,875.799 L 1237.0,876.0" style="stroke:#010101; fill:none;"/>
	<path d="M 843.0,870.0 L 841.0,872.0" style="stroke:#010101; fill:none;"/>
	<path d="M 1271.0,871.0 L 1249.0,874.0" style="stroke:#010101; fill:none;"/>
	<path d="M 1279.0,870.0 L 1288.0,871.0" style="stroke:#010101; fill:none;"/>
	<path d="M 1271.0,871.0 L 1273.0,873.0" style="stroke:#010101; fill:none;"/>
	<path d="M 1280.0,872.0 L 1274.0,875.0" style="stroke:#010101; fill:none;"/>
	<path d="M 1245.0,874.0 L 1247.0,873.0" style="stroke:#010101; fill:none;"/>
	<path d="M 1280.0,872.0 L 1289.0,875.0" style="stroke:#010101; fill:none;"/>
	<path d="M 839.0,873.0 L 838.0,874.0" style="stroke:#010101; fill:none;"/>
	<path d="M 1208.0,876.0 L 1192.0,880.0 L 1192.0,873.0" style="stroke:#010101; fill:none;"/>
	<path d="M 1220.0,874.0 L 1244.0,873.0" style="stroke:#010101; fill:none;"/>
	<path d="M 1191.0,877.0 L 1183.0,876.0 L 1189.0,874.0" style="stroke:#010101; fill:none;"/>
	<path d="M 1183.0,877.0 L 1177.0,876.0 L 1182.0,875.0" style="stroke:#010101; fill:none;"/>
	<path d="M 1188.0,875.0 L 1190.0,880.0" style="stroke:#010101; fill:none;"/>
	<path d="M 1233.0,875.0 L 1233.0,877.0" style="stroke:#010101; fill:none;"/>
	<path d="M 1279.0,875.0 L 1281.0,874.0" style="stroke:#010101; fill:none;"/>
	<path d="M 1180.0,876.0 C 1178.69,883.226 1172.53,877.958 1176.0,878.0" style="stroke:#010101; fill:none;"/>
	<path d="M 1203.0,876.0 L 1203.0,878.0" style="stroke:#010101; fill:none;"/>
	<path d="M 1206.0,876.0 L 1206.0,878.0" style="stroke:#010101; fill:none;"/>
	<path d="M 1067.0,898.0 C 1076.55,900.684 1087.25,905.771 1097.0,906.871 C 1133.98,911.042 1173.44,902.0 1211.0,902.0 C 1226.02,902.0 1240.99,900.97 1256.0,900.758 C 1264.01,900.644 1273.56,902.174 1281.0,899.0 C 1270.23,894.132 1253.38,896.957 1246.0,886.0 C 1238.74,891.219 1227.62,888.755 1219.0,889.46 C 1195.07,891.417 1170.95,891.326 1147.0,893.145 C 1138.89,893.76 1123.0,898.529 1117.0,892.0 L 1143.99,888.429 L 1172.0,878.0" style="stroke:#010101; fill:none;"/>
	<path d="M 1176.0,878.0 L 1176.0,880.0" style="stroke:#010101; fill:none;"/>
	<path d="M 1185.0,878.0 L 1187.0,880.0" style="stroke:#010101; fill:none;"/>
	<path d="M 1208.0,878.0 L 1220.0,877.0" style="stroke:#010101; fill:none;"/>
	<path d="M 1163.0,881.0 L 1165.0,879.0" style="stroke:#010101; fill:none;"/>
	<path d="M 1168.0,879.0 L 1174.0,881.0" style="stroke:#010101; fill:none;"/>
	<path d="M 1171.0,879.0 L 1171.0,881.0" style="stroke:#010101; fill:none;"/>
	<path d="M 1183.0,880.0 L 1181.0,881.0" style="stroke:#010101; fill:none;"/>
	<path d="M 1237.0,879.0 C 1246.61,884.153 1260.64,881.542 1271.0,880.0 L 1267.0,881.0" style="stroke:#010101; fill:none;"/>
	<path d="M 1272.0,879.0 L 1277.0,879.0" style="stroke:#010101; fill:none;"/>
	<path d="M 611.0,880.0 C 611.0,902.877 599.434,931.788 606.0,954.0 L 609.0,937.0" style="stroke:#010101; fill:none;"/>
	<path d="M 1142.0,881.0 L 1161.0,880.0" style="stroke:#010101; fill:none;"/>
	<path d="M 846.0,882.0 L 817.0,906.0" style="stroke:#010101; fill:none;"/>
	<path d="M 1165.0,882.0 L 1167.0,882.0" style="stroke:#010101; fill:none;"/>
	<path d="M 1148.0,888.0 L 1182.0,886.235 L 1233.91,882.736 L 1244.0,886.0" style="stroke:#010101; fill:none;"/>
	<path d="M 1252.0,882.0 L 1257.0,883.0" style="stroke:#010101; fill:none;"/>
	<path d="M 1260.0,882.0 L 1258.0,884.0" style="stroke:#010101; fill:none;"/>
	<path d="M 1265.0,882.0 C 1267.55,890.429 1294.56,889.323 1303.0,892.0" style="stroke:#010101; fill:none;"/>
	<path d="M 1148.0,883.0 L 1149.0,884.0" style="stroke:#010101; fill:none;"/>
	<path d="M 1272.0,883.0 L 1298.0,885.0" style="stroke:#010101; fill:none;"/>
	<path d="M 675.0,885.0 C 649.24,965.56 630.385,1049.72 610.884,1132.0 C 604.344,1159.59 600.524,1189.04 592.0,1216.0" style="stroke:#010101; fill:none;"/>
	<path d="M 1261.0,885.0 L 1264.0,886.0" style="stroke:#010101; fill:none;"/>
	<path d="M 1263.0,887.0 L 1267.0,889.0 L 1267.0,887.0" style="stroke:#010101; fill:none;"/>
	<path d="M 491.0,888.0 L 486.0,893.0" style="stroke:#010101; fill:none;"/>
	<path d="M 1248.0,888.0 L 1262.0,889.0" style="stroke:#010101; fill:none;"/>
	<path d="M 1271.0,888.0 L 1267.0,889.0" style="stroke:#010101; fill:none;"/>
	<path d="M 1246.0,889.0 L 1247.0,889.0" style="stroke:#010101; fill:none;"/>
	<path d="M 493.0,890.0 L 488.0,895.0" style="stroke:#010101; fill:none;"/>
	<path d="M 1054.0,898.0 C 1062.91,890.148 1081.76,891.261 1093.0,890.985 C 1099.34,890.83 1102.8,889.608 1108.0,894.0 L 1101.0,897.0 C 1096.41,892.937 1088.85,895.0 1083.0,895.0" style="stroke:#010101; fill:none;"/>
	<path d="M 1272.0,891.0 L 1310.0,899.0" style="stroke:#010101; fill:none;"/>
	<path d="M 1101.0,894.0 L 1106.0,892.0 L 1106.0,894.0" style="stroke:#010101; fill:none;"/>
	<path d="M 1118.0,895.0 L 1109.0,894.0 L 1116.0,892.0" style="stroke:#010101; fill:none;"/>
	<path d="M 1115.0,893.0 L 1115.0,895.0" style="stroke:#010101; fill:none;"/>
	<path d="M 483.0,900.0 L 479.0,894.0 L 481.0,894.0" style="stroke:#010101; fill:none;"/>
	<path d="M 525.0,894.0 C 495.837,916.221 480.0,959.399 480.0,995.0" style="stroke:#010101; fill:none;"/>
	<path d="M 481.0,897.0 L 482.0,897.0" style="stroke:#010101; fill:none;"/>
	<path d="M 496.0,897.0 C 488.639,902.727 475.073,917.997 477.0,928.0 L 481.0,924.0" style="stroke:#010101; fill:none;"/>
	<path d="M 1086.0,903.0 C 1096.61,897.339 1115.1,901.281 1127.0,900.985 C 1158.53,900.201 1190.31,898.727 1222.0,897.974 C 1232.38,897.728 1242.61,897.735 1253.0,898.16 C 1257.42,898.341 1262.28,897.385 1266.0,900.0" style="stroke:#010101; fill:none;"/>
	<path d="M 709.0,921.0 L 724.0,898.0" style="stroke:#010101; fill:none;"/>
	<path d="M 1270.0,898.0 L 1270.0,900.0" style="stroke:#010101; fill:none;"/>
	<path d="M 1278.0,898.0 L 1278.0,900.0" style="stroke:#010101; fill:none;"/>
	<path d="M 584.0,899.0 C 581.326,903.126 575.455,902.238 571.0,903.493 C 565.136,905.145 559.783,908.993 555.001,912.654 C 538.656,925.167 530.093,941.708 520.0,959.0" style="stroke:#010101; fill:none;"/>
	<path d="M 1281.0,899.0 L 1291.0,903.0" style="stroke:#010101; fill:none;"/>
	<path d="M 479.0,900.0 L 479.0,903.0 L 482.0,900.0" style="stroke:#010101; fill:none;"/>
	<path d="M 1084.0,901.0 L 1086.0,901.0" style="stroke:#010101; fill:none;"/>
	<path d="M 588.0,938.0 C 587.163,927.4 581.468,911.965 586.0,902.0 L 599.0,906.0" style="stroke:#010101; fill:none;"/>
	<path d="M 1292.0,902.0 L 1315.0,910.0 C 1305.78,914.941 1298.48,909.494 1291.0,904.0" style="stroke:#010101; fill:none;"/>
	<path d="M 479.0,903.0 C 474.363,910.291 462.395,932.988 470.0,940.0 L 475.0,928.0" style="stroke:#010101; fill:none;"/>
	<path d="M 687.0,906.0 L 686.0,910.0" style="stroke:#010101; fill:none;"/>
	<path d="M 710.0,906.0 L 708.0,909.0" style="stroke:#010101; fill:none;"/>
	<path d="M 1118.0,908.0 L 1122.0,906.0" style="stroke:#010101; fill:none;"/>
	<path d="M 451.0,907.0 L 451.0,908.0" style="stroke:#010101; fill:none;"/>
	<path d="M 595.0,907.0 L 594.0,943.0" style="stroke:#010101; fill:none;"/>
	<path d="M 601.0,909.0 L 601.0,950.0" style="stroke:#010101; fill:none;"/>
	<path d="M 815.0,909.0 L 814.0,910.0" style="stroke:#010101; fill:none;"/>
	<path d="M 690.0,910.0 L 690.0,913.0" style="stroke:#010101; fill:none;"/>
	<path d="M 1129.0,910.0 L 1250.0,910.0 C 1264.19,910.0 1285.88,915.507 1299.0,910.0" style="stroke:#010101; fill:none;"/>
	<path d="M 1315.0,910.0 C 1328.66,913.445 1343.19,925.98 1354.0,934.739 C 1369.38,947.198 1385.61,958.332 1400.0,972.022 C 1409.31,980.887 1414.83,992.036 1424.0,1000.0 C 1425.16,995.427 1422.14,993.183 1419.0,990.0" style="stroke:#010101; fill:none;"/>
	<path d="M 723.0,911.0 L 713.0,926.0" style="stroke:#010101; fill:none;"/>
	<path d="M 730.0,913.0 L 720.0,928.0" style="stroke:#010101; fill:none;"/>
	<path d="M 1306.0,914.0 L 1332.05,932.036 L 1366.0,955.0 C 1356.88,959.147 1339.78,953.34 1330.0,951.754 C 1303.12,947.393 1276.0,945.413 1249.0,942.0" style="stroke:#010101; fill:none;"/>
	<path d="M 744.0,916.0 L 744.0,917.0" style="stroke:#010101; fill:none;"/>
	<path d="M 1169.0,919.0 C 1196.3,915.095 1226.49,917.855 1254.0,918.916 C 1268.55,919.477 1283.6,917.609 1298.0,920.227 C 1308.16,922.073 1316.12,929.541 1327.0,931.0" style="stroke:#010101; fill:none;"/>
	<path d="M 1304.0,920.0 L 1312.0,920.0" style="stroke:#010101; fill:none;"/>
	<path d="M 750.0,921.0 L 746.0,927.0" style="stroke:#010101; fill:none;"/>
	<path d="M 1321.0,921.0 L 1324.0,921.0" style="stroke:#010101; fill:none;"/>
	<path d="M 1222.0,924.0 L 1312.0,929.0" style="stroke:#010101; fill:none;"/>
	<path d="M 784.0,928.0 L 777.0,933.0" style="stroke:#010101; fill:none;"/>
	<path d="M 477.0,929.0 L 476.0,930.0" style="stroke:#010101; fill:none;"/>
	<path d="M 1240.0,929.0 C 1265.01,933.712 1290.73,936.041 1316.0,939.156 C 1324.92,940.255 1336.7,944.43 1345.0,940.0" style="stroke:#010101; fill:none;"/>
	<path d="M 762.0,962.0 L 795.0,930.0" style="stroke:#010101; fill:none;"/>
	<path d="M 759.0,936.0 L 750.0,951.0" style="stroke:#010101; fill:none;"/>
	<path d="M 467.0,938.0 C 464.214,942.831 463.413,947.618 465.0,953.0 L 471.0,941.0" style="stroke:#010101; fill:none;"/>
	<path d="M 1260.0,939.0 C 1265.14,939.259 1291.2,941.339 1290.0,945.0" style="stroke:#010101; fill:none;"/>
	<path d="M 1287.0,943.0 L 1287.0,945.0" style="stroke:#010101; fill:none;"/>
	<path d="M 1292.0,943.0 L 1307.0,945.0 L 1304.0,948.0" style="stroke:#010101; fill:none;"/>
	<path d="M 1363.0,943.0 L 1370.0,953.0" style="stroke:#010101; fill:none;"/>
	<path d="M 585.0,945.0 C 588.441,952.38 598.658,963.122 606.0,955.0" style="stroke:#010101; fill:none;"/>
	<path d="M 738.0,945.0 L 737.0,946.0" style="stroke:#010101; fill:none;"/>
	<path d="M 1296.0,945.0 L 1297.0,946.0" style="stroke:#010101; fill:none;"/>
	<path d="M 1301.0,945.0 L 1301.0,947.0" style="stroke:#010101; fill:none;"/>
	<path d="M 1303.0,945.0 L 1303.0,947.0" style="stroke:#010101; fill:none;"/>
	<path d="M 1307.0,945.0 L 1315.0,946.0 L 1312.0,949.0" style="stroke:#010101; fill:none;"/>
	<path d="M 1311.0,946.0 L 1311.0,948.0" style="stroke:#010101; fill:none;"/>
	<path d="M 1315.0,946.0 C 1326.24,946.093 1343.84,952.21 1354.0,947.0" style="stroke:#010101; fill:none;"/>
	<path d="M 735.0,948.0 L 721.0,958.0" style="stroke:#010101; fill:none;"/>
	<path d="M 1271.0,950.0 L 1309.0,954.78 L 1324.0,959.0 L 1311.0,959.752 L 1279.0,956.0" style="stroke:#010101; fill:none;"/>
	<path d="M 473.0,951.0 C 469.633,956.768 464.835,964.542 463.314,971.0 C 461.951,976.786 463.449,983.208 463.914,989.0 C 466.509,1021.29 483.08,1043.53 496.0,1072.0" style="stroke:#010101; fill:none;"/>
	<path d="M 464.0,954.0 L 467.0,962.0" style="stroke:#010101; fill:none;"/>
	<path d="M 736.0,954.0 L 725.0,967.0" style="stroke:#010101; fill:none;"/>
	<path d="M 1310.0,955.0 L 1306.0,959.0" style="stroke:#010101; fill:none;"/>
	<path d="M 1312.0,956.0 L 1312.0,959.0" style="stroke:#010101; fill:none;"/>
	<path d="M 1365.0,956.0 L 1369.0,958.0" style="stroke:#010101; fill:none;"/>
	<path d="M 631.0,958.0 C 625.355,987.093 599.623,1007.74 593.808,1037.0 C 590.326,1054.52 602.245,1070.69 603.0,1088.0" style="stroke:#010101; fill:none;"/>
	<path d="M 1324.0,958.0 L 1351.0,962.0 L 1344.0,961.0" style="stroke:#010101; fill:none;"/>
	<path d="M 463.0,960.0 L 463.0,967.0" style="stroke:#010101; fill:none;"/>
	<path d="M 1330.0,960.0 L 1336.0,960.0" style="stroke:#010101; fill:none;"/>
	<path d="M 1351.0,961.0 L 1375.0,963.0" style="stroke:#010101; fill:none;"/>
	<path d="M 1356.0,962.0 L 1351.0,963.0" style="stroke:#010101; fill:none;"/>
	<path d="M 1362.0,962.0 L 1362.0,964.0 L 1358.0,963.0" style="stroke:#010101; fill:none;"/>
	<path d="M 1289.0,964.0 L 1367.0,970.0" style="stroke:#010101; fill:none;"/>
	<path d="M 1366.0,964.0 L 1363.0,965.0" style="stroke:#010101; fill:none;"/>
	<path d="M 738.0,964.0 L 718.0,978.0" style="stroke:#010101; fill:none;"/>
	<path d="M 1367.0,965.0 L 1369.0,964.0" style="stroke:#010101; fill:none;"/>
	<path d="M 1393.0,969.0 L 1395.0,972.0" style="stroke:#010101; fill:none;"/>
	<path d="M 1298.0,971.0 L 1396.0,975.0" style="stroke:#010101; fill:none;"/>
	<path d="M 1333.0,974.0 C 1323.79,982.402 1310.38,977.235 1299.0,977.0" style="stroke:#010101; fill:none;"/>
	<path d="M 1326.0,978.0 L 1329.0,977.0" style="stroke:#010101; fill:none;"/>
	<path d="M 1394.0,977.0 C 1390.82,981.156 1375.37,979.743 1370.0,980.036 C 1358.23,980.677 1346.68,984.053 1335.0,984.91 C 1324.2,985.701 1313.76,983.14 1303.0,983.0" style="stroke:#010101; fill:none;"/>
	<path d="M 1396.0,978.0 L 1403.0,980.0" style="stroke:#010101; fill:none;"/>
	<path d="M 1329.0,979.0 L 1345.0,980.0" style="stroke:#010101; fill:none;"/>
	<path d="M 511.0,980.0 C 506.176,1003.38 508.878,1019.12 532.0,1030.48 C 540.101,1034.46 550.611,1032.77 556.297,1041.02 C 567.979,1057.96 564.354,1079.79 581.0,1095.0" style="stroke:#010101; fill:none;"/>
	<path d="M 1107.0,995.0 C 1119.98,989.676 1132.94,984.116 1147.0,982.289 C 1173.63,978.829 1201.87,985.182 1228.0,989.565 C 1254.88,994.074 1286.28,1003.91 1304.82,1025.0 C 1323.23,1045.95 1326.86,1074.51 1332.0,1101.0" style="stroke:#010101; fill:none;"/>
	<path d="M 1401.0,982.0 C 1404.61,985.847 1407.82,987.975 1413.0,986.0" style="stroke:#010101; fill:none;"/>
	<path d="M 1322.0,984.0 L 1323.0,985.0" style="stroke:#010101; fill:none;"/>
	<path d="M 1399.0,986.0 L 1356.0,992.061 L 1337.0,992.0 C 1348.28,985.888 1365.43,987.203 1378.0,985.714 C 1384.67,984.925 1392.61,983.633 1399.0,986.0" style="stroke:#010101; fill:none;"/>
	<path d="M 1321.0,985.0 L 1318.0,987.0" style="stroke:#010101; fill:none;"/>
	<path d="M 1399.0,986.0 L 1402.0,986.0" style="stroke:#010101; fill:none;"/>
	<path d="M 1411.0,989.0 L 1416.0,992.0" style="stroke:#010101; fill:none;"/>
	<path d="M 1411.0,990.0 C 1404.75,994.517 1396.4,994.411 1389.0,995.804 C 1370.37,999.309 1348.84,1003.6 1330.0,1001.0" style="stroke:#010101; fill:none;"/>
	<path d="M 1318.0,992.0 L 1337.0,992.0" style="stroke:#010101; fill:none;"/>
	<path d="M 1336.0,992.0 L 1324.0,995.0" style="stroke:#010101; fill:none;"/>
	<path d="M 1416.0,994.0 C 1409.49,998.064 1401.42,998.191 1394.0,999.435 C 1376.87,1002.31 1353.76,1010.28 1337.0,1004.0" style="stroke:#010101; fill:none;"/>
	<path d="M 1426.0,997.0 L 1431.0,1001.0" style="stroke:#010101; fill:none;"/>
	<path d="M 1384.0,1011.0 C 1384.56,1018.16 1364.38,1019.17 1359.0,1018.0 C 1365.26,1012.06 1374.21,1012.38 1382.0,1010.53 C 1395.24,1007.38 1410.29,1004.77 1423.0,1000.0" style="stroke:#010101; fill:none;"/>
	<path d="M 1400.0,1011.0 L 1425.0,1006.0" style="stroke:#010101; fill:none;"/>
	<path d="M 489.0,1008.0 L 494.0,1023.0" style="stroke:#010101; fill:none;"/>
	<path d="M 1357.0,1008.0 L 1371.0,1010.0" style="stroke:#010101; fill:none;"/>
	<path d="M 1175.0,1009.0 L 1175.0,1013.0 L 1147.0,1014.44 L 1135.95,1018.02 L 1126.99,1015.34 L 1093.0,1021.57 L 1065.0,1022.0" style="stroke:#010101; fill:none;"/>
	<path d="M 1206.0,1010.0 L 1205.0,1016.0 L 1211.0,1010.0" style="stroke:#010101; fill:none;"/>
	<path d="M 1386.0,1013.0 L 1399.0,1012.0" style="stroke:#010101; fill:none;"/>
	<path d="M 1237.0,1045.0 C 1249.68,1066.82 1238.0,1093.08 1215.0,1101.46 C 1199.07,1107.26 1180.24,1103.79 1167.01,1093.32 C 1143.85,1074.98 1150.92,1027.39 1177.26,1014.56 C 1183.97,1011.3 1196.11,1014.3 1203.0,1016.0" style="stroke:#010101; fill:none;"/>
	<path d="M 1226.0,1014.0 C 1219.48,1020.13 1213.7,1020.14 1206.0,1015.0" style="stroke:#010101; fill:none;"/>
	<path d="M 1402.0,1014.0 L 1403.0,1014.0" style="stroke:#010101; fill:none;"/>
	<path d="M 1133.0,1015.0 L 1138.0,1015.0" style="stroke:#010101; fill:none;"/>
	<path d="M 1232.0,1016.0 L 1226.0,1022.0 C 1234.56,1028.44 1239.26,1029.48 1247.0,1021.0" style="stroke:#010101; fill:none;"/>
	<path d="M 1135.0,1017.0 L 1134.0,1018.0" style="stroke:#010101; fill:none;"/>
	<path d="M 1239.0,1017.0 L 1230.0,1024.0" style="stroke:#010101; fill:none;"/>
	<path d="M 1357.0,1017.0 L 1359.0,1017.0" style="stroke:#010101; fill:none;"/>
	<path d="M 1405.0,1027.0 L 1407.0,1029.0 L 1389.0,1025.0 C 1402.42,1017.8 1426.01,1018.67 1441.0,1019.0" style="stroke:#010101; fill:none;"/>
	<path d="M 422.0,1019.0 L 422.0,1020.0" style="stroke:#010101; fill:none;"/>
	<path d="M 1111.0,1019.0 L 1104.0,1020.0" style="stroke:#010101; fill:none;"/>
	<path d="M 1242.0,1019.0 L 1234.0,1026.0" style="stroke:#010101; fill:none;"/>
	<path d="M 1299.0,1151.0 C 1307.59,1155.97 1308.51,1149.26 1304.0,1143.0 L 1299.0,1151.0 C 1277.52,1142.54 1254.38,1142.35 1232.0,1137.33 C 1216.06,1133.76 1202.33,1125.71 1188.0,1118.36 C 1173.57,1110.96 1156.67,1103.71 1145.17,1091.91 C 1133.3,1079.73 1119.08,1059.96 1115.48,1043.0 C 1112.83,1030.49 1121.07,1021.04 1133.0,1020.0" style="stroke:#010101; fill:none;"/>
	<path d="M 1222.0,1020.0 L 1226.0,1022.0" style="stroke:#010101; fill:none;"/>
	<path d="M 1359.0,1022.0 L 1369.0,1025.0 L 1366.0,1027.0" style="stroke:#010101; fill:none;"/>
	<path d="M 1113.0,1039.0 C 1110.27,1032.52 1109.9,1025.65 1118.0,1024.0" style="stroke:#010101; fill:none;"/>
	<path d="M 1408.0,1028.0 L 1455.0,1025.0" style="stroke:#010101; fill:none;"/>
	<path d="M 1251.0,1025.0 L 1243.0,1033.0 C 1247.8,1033.57 1251.8,1030.46 1255.0,1027.0" style="stroke:#010101; fill:none;"/>
	<path d="M 1369.0,1025.0 L 1389.0,1025.0" style="stroke:#010101; fill:none;"/>
	<path d="M 1261.0,1028.0 C 1260.66,1030.95 1261.32,1031.07 1264.0,1030.0" style="stroke:#010101; fill:none;"/>
	<path d="M 1239.0,1030.0 L 1242.0,1033.0" style="stroke:#010101; fill:none;"/>
	<path d="M 1269.0,1030.0 L 1271.0,1034.0 C 1267.92,1034.5 1266.93,1034.83 1267.0,1038.0 L 1270.0,1036.0" style="stroke:#010101; fill:none;"/>
	<path d="M 1380.0,1033.0 L 1404.0,1030.0" style="stroke:#010101; fill:none;"/>
	<path d="M 1260.0,1031.0 C 1257.98,1033.06 1254.5,1035.72 1254.49,1038.91 C 1254.48,1050.37 1270.18,1053.95 1277.0,1047.0 C 1274.32,1046.42 1273.0,1046.19 1273.0,1049.0 L 1274.0,1048.0" style="stroke:#010101; fill:none;"/>
	<path d="M 1262.0,1032.0 L 1259.0,1034.0" style="stroke:#010101; fill:none;"/>
	<path d="M 1394.0,1043.0 L 1401.0,1040.0 L 1392.0,1037.0 L 1404.0,1034.0" style="stroke:#010101; fill:none;"/>
	<path d="M 1244.0,1036.0 C 1245.66,1038.56 1246.29,1038.32 1249.0,1037.0 L 1246.0,1035.0" style="stroke:#010101; fill:none;"/>
	<path d="M 1401.0,1040.0 L 1463.0,1036.0" style="stroke:#010101; fill:none;"/>
	<path d="M 1249.0,1037.0 L 1252.0,1037.0" style="stroke:#010101; fill:none;"/>
	<path d="M 1266.0,1037.0 L 1258.0,1041.0" style="stroke:#010101; fill:none;"/>
	<path d="M 1392.0,1039.0 L 1392.0,1037.0" style="stroke:#010101; fill:none;"/>
	<path d="M 1388.0,1038.0 L 1390.0,1038.0" style="stroke:#010101; fill:none;"/>
	<path d="M 1281.0,1039.0 L 1279.0,1045.0 L 1285.0,1042.0" style="stroke:#010101; fill:none;"/>
	<path d="M 1246.0,1041.0 C 1265.16,1061.87 1280.47,1087.39 1292.31,1113.0 C 1296.82,1122.75 1303.1,1132.04 1304.0,1143.0" style="stroke:#010101; fill:none;"/>
	<path d="M 1472.0,1041.0 C 1464.87,1045.11 1458.73,1043.05 1451.0,1043.0 C 1434.98,1042.9 1414.33,1047.53 1399.0,1043.0" style="stroke:#010101; fill:none;"/>
	<path d="M 1460.0,1043.0 L 1461.0,1044.0" style="stroke:#010101; fill:none;"/>
	<path d="M 1472.0,1044.0 L 1474.0,1044.0" style="stroke:#010101; fill:none;"/>
	<path d="M 1097.0,1045.0 L 1111.0,1049.0" style="stroke:#010101; fill:none;"/>
	<path d="M 1208.0,1067.0 C 1204.51,1076.57 1190.8,1075.47 1186.46,1066.99 C 1180.93,1056.2 1195.35,1037.44 1206.62,1047.09 C 1211.36,1051.14 1196.52,1066.49 1212.0,1066.0" style="stroke:#010101; fill:none;"/>
	<path d="M 1279.0,1045.0 L 1277.0,1047.0" style="stroke:#010101; fill:none;"/>
	<path d="M 1448.0,1048.0 L 1448.0,1051.0 L 1416.0,1048.0 L 1421.0,1047.0" style="stroke:#010101; fill:none;"/>
	<path d="M 1450.0,1048.0 L 1459.0,1045.0" style="stroke:#010101; fill:none;"/>
	<path d="M 1265.0,1048.0 L 1272.0,1047.0" style="stroke:#010101; fill:none;"/>
	<path d="M 1413.33,1047.67 L 1413.67,1048.33 L 1413.33,1047.67" style="stroke:#010101; fill:none;"/>
	<path d="M 1402.0,1048.0 L 1412.0,1048.0" style="stroke:#010101; fill:none;"/>
	<path d="M 1292.0,1050.0 C 1286.4,1055.34 1281.5,1057.56 1274.0,1059.0 C 1277.63,1068.03 1285.89,1081.26 1297.0,1074.0 L 1282.0,1072.0" style="stroke:#010101; fill:none;"/>
	<path d="M 1450.0,1050.0 L 1473.0,1051.0" style="stroke:#010101; fill:none;"/>
	<path d="M 1104.0,1051.0 L 1116.0,1057.0 L 1104.0,1058.0" style="stroke:#010101; fill:none;"/>
	<path d="M 1267.0,1053.0 L 1274.0,1060.0" style="stroke:#010101; fill:none;"/>
	<path d="M 1390.0,1054.0 C 1417.06,1061.02 1445.09,1056.0 1473.0,1056.0" style="stroke:#010101; fill:none;"/>
	<path d="M 1409.0,1054.0 L 1417.0,1057.0" style="stroke:#010101; fill:none;"/>
	<path d="M 1417.0,1058.0 L 1440.0,1064.0 L 1441.0,1063.0 L 1439.0,1061.0" style="stroke:#010101; fill:none;"/>
	<path d="M 1117.0,1059.0 L 1119.0,1060.0" style="stroke:#010101; fill:none;"/>
	<path d="M 1441.0,1063.0 L 1477.0,1060.0" style="stroke:#010101; fill:none;"/>
	<path d="M 1438.0,1062.0 L 1429.0,1064.0" style="stroke:#010101; fill:none;"/>
	<path d="M 1113.0,1065.0 L 1121.0,1066.0" style="stroke:#010101; fill:none;"/>
	<path d="M 1408.0,1066.0 L 1463.0,1069.0" style="stroke:#010101; fill:none;"/>
	<path d="M 1281.0,1069.0 L 1283.0,1069.0" style="stroke:#010101; fill:none;"/>
	<path d="M 1116.0,1071.0 L 1122.0,1070.0" style="stroke:#010101; fill:none;"/>
	<path d="M 1085.0,1072.0 C 1098.91,1105.56 1121.15,1130.86 1155.0,1144.69 C 1166.58,1149.42 1179.35,1150.6 1191.0,1155.0" style="stroke:#010101; fill:none;"/>
	<path d="M 1302.0,1074.0 L 1304.0,1075.0 L 1297.0,1077.0" style="stroke:#010101; fill:none;"/>
	<path d="M 1297.0,1074.0 L 1301.0,1074.0" style="stroke:#010101; fill:none;"/>
	<path d="M 1119.0,1077.0 L 1126.0,1077.0" style="stroke:#010101; fill:none;"/>
	<path d="M 502.0,1077.0 C 517.387,1084.2 518.0,1108.45 518.0,1123.0" style="stroke:#010101; fill:none;"/>
	<path d="M 1287.0,1078.0 C 1293.6,1085.85 1300.08,1088.19 1308.0,1081.0" style="stroke:#010101; fill:none;"/>
	<path d="M 1127.0,1083.0 L 1133.0,1083.0" style="stroke:#010101; fill:none;"/>
	<path d="M 1296.0,1084.0 L 1305.0,1082.0" style="stroke:#010101; fill:none;"/>
	<path d="M 1293.0,1086.0 C 1295.71,1095.33 1307.84,1094.46 1315.0,1091.0" style="stroke:#010101; fill:none;"/>
	<path d="M 1301.0,1087.0 L 1305.0,1090.0" style="stroke:#010101; fill:none;"/>
	<path d="M 1131.0,1090.0 L 1137.0,1089.0" style="stroke:#010101; fill:none;"/>
	<path d="M 437.0,1091.0 L 439.0,1095.0" style="stroke:#010101; fill:none;"/>
	<path d="M 584.0,1095.0 L 589.0,1096.0" style="stroke:#010101; fill:none;"/>
	<path d="M 1133.0,1098.0 L 1142.0,1097.0" style="stroke:#010101; fill:none;"/>
	<path d="M 1367.0,1099.0 C 1374.67,1099.36 1378.26,1111.02 1381.25,1117.0 C 1389.69,1133.89 1403.79,1159.39 1398.0,1179.0" style="stroke:#010101; fill:none;"/>
	<path d="M 441.0,1099.0 L 453.0,1122.0" style="stroke:#010101; fill:none;"/>
	<path d="M 434.0,1103.0 L 431.0,1192.0" style="stroke:#010101; fill:none;"/>
	<path d="M 1148.0,1106.0 L 1147.0,1108.0" style="stroke:#010101; fill:none;"/>
	<path d="M 1333.0,1117.0 L 1333.0,1136.0" style="stroke:#010101; fill:none;"/>
	<path d="M 1171.0,1122.0 L 1172.0,1122.0" style="stroke:#010101; fill:none;"/>
	<path d="M 1181.0,1124.0 L 1181.0,1125.0" style="stroke:#010101; fill:none;"/>
	<path d="M 1196.0,1131.0 L 1197.0,1131.0" style="stroke:#010101; fill:none;"/>
	<path d="M 1203.0,1135.0 L 1204.0,1135.0" style="stroke:#010101; fill:none;"/>
	<path d="M 589.0,1140.0 C 585.711,1153.68 566.043,1165.67 552.0,1162.47 C 544.722,1160.81 539.556,1155.57 534.0,1151.0" style="stroke:#010101; fill:none;"/>
	<path d="M 1215.0,1140.0 L 1215.0,1141.0" style="stroke:#010101; fill:none;"/>
	<path d="M 1582.0,1187.0 L 1580.0,1188.0 C 1595.22,1165.0 1625.47,1149.31 1651.0,1141.0" style="stroke:#010101; fill:none;"/>
	<path d="M 1218.0,1145.0 L 1219.0,1145.0" style="stroke:#010101; fill:none;"/>
	<path d="M 1583.0,1188.0 C 1600.55,1174.48 1625.5,1151.37 1648.0,1148.0" style="stroke:#010101; fill:none;"/>
	<path d="M 472.0,1150.0 L 473.0,1151.0" style="stroke:#010101; fill:none;"/>
	<path d="M 1592.0,1188.0 L 1650.0,1153.0" style="stroke:#010101; fill:none;"/>
	<path d="M 1713.0,1154.0 C 1728.35,1156.62 1739.52,1170.97 1751.0,1181.0 C 1746.02,1182.89 1743.49,1179.45 1740.0,1176.0 C 1733.03,1169.11 1724.14,1163.61 1718.0,1156.0" style="stroke:#010101; fill:none;"/>
	<path d="M 1199.0,1156.0 L 1231.0,1161.0" style="stroke:#010101; fill:none;"/>
	<path d="M 1685.0,1165.0 C 1668.26,1167.88 1650.92,1176.62 1635.0,1182.58 C 1627.91,1185.22 1619.54,1190.19 1613.0,1185.0 L 1667.0,1156.0" style="stroke:#010101; fill:none;"/>
	<path d="M 476.0,1158.0 C 480.939,1166.81 483.364,1177.0 488.312,1186.0 C 503.038,1212.79 540.91,1244.43 569.0,1217.0" style="stroke:#010101; fill:none;"/>
	<path d="M 1511.0,1262.0 C 1508.18,1257.15 1503.25,1249.39 1502.39,1243.91 C 1500.32,1230.71 1512.01,1210.78 1519.67,1201.0 C 1539.62,1175.52 1575.45,1158.27 1608.0,1158.0" style="stroke:#010101; fill:none;"/>
	<path d="M 1697.0,1158.0 L 1714.0,1166.0" style="stroke:#010101; fill:none;"/>
	<path d="M 1709.0,1159.0 L 1730.0,1173.0 C 1712.12,1187.32 1682.77,1184.22 1662.0,1192.0 C 1668.07,1195.11 1674.6,1191.94 1681.0,1191.0 C 1698.24,1188.47 1725.44,1185.73 1740.0,1176.0" style="stroke:#010101; fill:none;"/>
	<path d="M 1616.0,1186.0 L 1674.0,1160.0" style="stroke:#010101; fill:none;"/>
	<path d="M 468.0,1165.0 L 467.0,1166.0" style="stroke:#010101; fill:none;"/>
	<path d="M 1705.0,1166.0 C 1679.55,1177.33 1646.91,1189.78 1619.0,1192.0" style="stroke:#010101; fill:none;"/>
	<path d="M 1775.0,1166.0 C 1775.0,1201.02 1766.04,1238.75 1744.47,1267.0 C 1737.36,1276.32 1726.87,1283.83 1718.0,1291.42 C 1709.65,1298.56 1696.96,1312.85 1686.0,1315.32 C 1674.98,1317.8 1661.3,1309.13 1654.0,1302.0 C 1648.65,1309.35 1648.31,1315.85 1655.0,1322.0 C 1662.64,1315.75 1665.33,1322.91 1673.0,1323.48 C 1676.82,1323.76 1681.18,1319.18 1684.0,1317.0" style="stroke:#010101; fill:none;"/>
	<path d="M 465.0,1168.0 L 473.0,1202.0" style="stroke:#010101; fill:none;"/>
	<path d="M 1617.0,1196.0 C 1649.5,1189.7 1682.94,1181.58 1714.0,1170.0" style="stroke:#010101; fill:none;"/>
	<path d="M 1748.0,1170.0 L 1762.0,1183.0" style="stroke:#010101; fill:none;"/>
	<path d="M 474.0,1172.0 L 485.0,1195.0" style="stroke:#010101; fill:none;"/>
	<path d="M 1743.0,1175.0 L 1741.0,1177.0" style="stroke:#010101; fill:none;"/>
	<path d="M 456.0,1178.0 L 456.0,1179.0" style="stroke:#010101; fill:none;"/>
	<path d="M 1652.0,1201.0 L 1712.0,1190.23 L 1744.0,1181.0" style="stroke:#010101; fill:none;"/>
	<path d="M 1751.0,1182.0 L 1770.0,1201.0" style="stroke:#010101; fill:none;"/>
	<path d="M 457.0,1184.0 C 457.434,1205.02 468.401,1223.94 473.0,1244.0" style="stroke:#010101; fill:none;"/>
	<path d="M 1616.0,1189.0 L 1613.0,1185.0" style="stroke:#010101; fill:none;"/>
	<path d="M 1614.0,1188.0 L 1612.0,1191.0 L 1611.0,1186.0" style="stroke:#010101; fill:none;"/>
	<path d="M 1608.0,1187.0 L 1606.0,1191.0 L 1609.0,1190.0" style="stroke:#010101; fill:none;"/>
	<path d="M 1748.0,1187.0 L 1761.0,1201.0" style="stroke:#010101; fill:none;"/>
	<path d="M 1611.0,1189.0 L 1613.0,1188.0" style="stroke:#010101; fill:none;"/>
	<path d="M 1605.0,1192.0 C 1603.5,1190.19 1603.84,1189.98 1606.0,1189.0" style="stroke:#010101; fill:none;"/>
	<path d="M 1655.0,1204.0 C 1684.68,1202.72 1714.84,1194.29 1744.0,1189.0" style="stroke:#010101; fill:none;"/>
	<path d="M 1579.0,1190.0 C 1584.7,1199.32 1595.69,1192.11 1603.0,1190.0" style="stroke:#010101; fill:none;"/>
	<path d="M 1547.0,1193.0 C 1556.82,1190.09 1568.01,1191.74 1578.0,1193.0" style="stroke:#010101; fill:none;"/>
	<path d="M 1627.0,1197.0 L 1662.0,1192.0" style="stroke:#010101; fill:none;"/>
	<path d="M 1395.0,1195.0 L 1378.0,1211.0" style="stroke:#010101; fill:none;"/>
	<path d="M 1645.0,1197.0 L 1663.0,1194.0" style="stroke:#010101; fill:none;"/>
	<path d="M 1595.0,1196.0 C 1612.56,1198.37 1635.21,1203.76 1647.68,1217.17 C 1653.08,1222.98 1658.34,1231.07 1662.21,1238.0 C 1664.22,1241.6 1665.55,1246.74 1669.0,1249.0 L 1670.0,1248.0 L 1672.0,1247.0" style="stroke:#010101; fill:none;"/>
	<path d="M 1678.0,1205.0 C 1699.47,1202.03 1725.46,1194.54 1747.0,1198.0" style="stroke:#010101; fill:none;"/>
	<path d="M 1714.0,1209.0 L 1719.0,1209.0 L 1713.0,1206.0 L 1752.0,1200.0" style="stroke:#010101; fill:none;"/>
	<path d="M 1760.0,1206.0 L 1748.0,1205.0 L 1751.0,1204.0" style="stroke:#010101; fill:none;"/>
	<path d="M 1714.0,1209.0 C 1712.18,1208.01 1711.02,1207.27 1713.0,1206.0" style="stroke:#010101; fill:none;"/>
	<path d="M 1749.0,1207.0 L 1748.0,1205.0" style="stroke:#010101; fill:none;"/>
	<path d="M 1698.0,1207.0 L 1710.0,1209.0" style="stroke:#010101; fill:none;"/>
	<path d="M 1702.0,1208.0 L 1711.0,1206.0" style="stroke:#010101; fill:none;"/>
	<path d="M 1764.0,1211.0 C 1755.71,1210.51 1746.09,1213.1 1739.0,1208.0 L 1746.0,1206.0" style="stroke:#010101; fill:none;"/>
	<path d="M 1528.0,1209.0 C 1559.3,1204.96 1590.16,1207.63 1621.0,1214.0" style="stroke:#010101; fill:none;"/>
	<path d="M 1721.0,1208.0 L 1738.0,1207.0" style="stroke:#010101; fill:none;"/>
	<path d="M 1658.0,1212.0 L 1697.0,1208.0" style="stroke:#010101; fill:none;"/>
	<path d="M 1663.0,1209.0 L 1665.0,1210.0" style="stroke:#010101; fill:none;"/>
	<path d="M 1670.0,1209.0 L 1671.0,1209.0" style="stroke:#010101; fill:none;"/>
	<path d="M 1684.0,1209.0 L 1679.0,1210.0" style="stroke:#010101; fill:none;"/>
	<path d="M 1667.0,1211.0 L 1668.0,1211.0" style="stroke:#010101; fill:none;"/>
	<path d="M 1734.0,1212.0 L 1741.0,1211.0" style="stroke:#010101; fill:none;"/>
	<path d="M 456.0,1213.0 C 456.048,1230.53 459.869,1251.89 467.0,1268.0" style="stroke:#010101; fill:none;"/>
	<path d="M 1512.0,1226.0 L 1537.0,1219.59 L 1554.0,1213.0" style="stroke:#010101; fill:none;"/>
	<path d="M 1572.0,1214.0 C 1562.87,1220.66 1552.87,1219.0 1542.0,1219.0" style="stroke:#010101; fill:none;"/>
	<path d="M 1747.0,1216.0 L 1762.0,1219.0" style="stroke:#010101; fill:none;"/>
	<path d="M 1760.0,1216.0 L 1761.0,1216.0" style="stroke:#010101; fill:none;"/>
	<path d="M 1568.0,1219.0 L 1596.0,1223.0 L 1600.0,1218.0" style="stroke:#010101; fill:none;"/>
	<path d="M 1549.0,1223.0 C 1542.51,1226.44 1535.8,1230.68 1531.73,1237.0 C 1519.16,1256.5 1532.53,1284.65 1553.0,1292.04 C 1567.05,1297.11 1586.03,1291.06 1595.62,1279.91 C 1600.78,1273.92 1605.02,1264.61 1607.07,1257.0 C 1609.74,1247.1 1606.02,1235.61 1604.0,1226.0 L 1602.0,1232.0" style="stroke:#010101; fill:none;"/>
	<path d="M 1619.0,1223.0 L 1609.0,1228.0 L 1606.0,1235.0" style="stroke:#010101; fill:none;"/>
	<path d="M 1756.0,1223.0 L 1765.0,1227.0" style="stroke:#010101; fill:none;"/>
	<path d="M 1597.0,1224.0 L 1602.0,1225.0" style="stroke:#010101; fill:none;"/>
	<path d="M 427.0,1225.0 C 423.742,1242.48 418.458,1259.48 415.436,1277.0 C 413.089,1290.6 413.14,1304.46 410.92,1318.0 C 408.332,1333.78 402.541,1352.09 405.0,1368.0" style="stroke:#010101; fill:none;"/>
	<path d="M 1630.0,1226.0 L 1623.0,1230.0 L 1651.0,1247.0 C 1652.52,1256.42 1661.58,1253.34 1667.0,1249.0" style="stroke:#010101; fill:none;"/>
	<path d="M 1615.0,1227.0 C 1615.63,1231.17 1613.9,1232.8 1610.0,1231.0" style="stroke:#010101; fill:none;"/>
	<path d="M 455.0,1228.0 L 458.0,1287.0" style="stroke:#010101; fill:none;"/>
	<path d="M 1606.0,1228.0 L 1609.0,1228.0" style="stroke:#010101; fill:none;"/>
	<path d="M 1618.0,1229.0 L 1623.0,1230.0" style="stroke:#010101; fill:none;"/>
	<path d="M 1655.0,1229.0 L 1638.0,1237.0" style="stroke:#010101; fill:none;"/>
	<path d="M 1614.0,1234.0 C 1632.42,1252.04 1651.74,1276.6 1635.0,1303.0" style="stroke:#010101; fill:none;"/>
	<path d="M 1652.0,1246.0 L 1662.0,1242.0" style="stroke:#010101; fill:none;"/>
	<path d="M 1569.0,1245.0 C 1567.03,1251.87 1575.38,1258.14 1573.67,1262.94 C 1572.28,1266.85 1566.7,1265.99 1564.04,1264.26 C 1556.46,1259.3 1555.82,1247.43 1565.0,1243.91 C 1567.48,1242.96 1570.39,1243.13 1573.0,1243.0" style="stroke:#010101; fill:none;"/>
	<path d="M 1502.0,1246.0 C 1493.44,1262.03 1500.79,1286.71 1501.0,1304.0 C 1501.33,1331.92 1507.43,1359.28 1510.71,1387.0 C 1514.08,1415.43 1515.0,1444.36 1515.0,1473.0" style="stroke:#010101; fill:none;"/>
	<path d="M 1668.0,1251.0 C 1673.33,1263.5 1661.69,1258.17 1656.0,1265.0 L 1672.0,1269.0 L 1670.0,1277.0 L 1664.0,1269.0" style="stroke:#010101; fill:none;"/>
	<path d="M 1671.0,1259.0 L 1687.0,1251.0" style="stroke:#010101; fill:none;"/>
	<path d="M 1658.0,1254.0 L 1658.0,1260.0" style="stroke:#010101; fill:none;"/>
	<path d="M 1680.0,1255.0 L 1684.0,1255.0" style="stroke:#010101; fill:none;"/>
	<path d="M 1656.0,1256.0 L 1657.0,1259.0" style="stroke:#010101; fill:none;"/>
	<path d="M 1655.0,1260.0 L 1656.0,1263.0" style="stroke:#010101; fill:none;"/>
	<path d="M 1670.0,1260.0 L 1673.0,1268.0" style="stroke:#010101; fill:none;"/>
	<path d="M 1657.0,1266.0 C 1659.49,1284.86 1661.09,1296.55 1683.0,1297.0" style="stroke:#010101; fill:none;"/>
	<path d="M 1673.0,1268.0 L 1688.0,1266.0" style="stroke:#010101; fill:none;"/>
	<path d="M 1517.0,1273.0 L 1551.02,1309.62 L 1572.0,1323.0 L 1567.0,1332.0" style="stroke:#010101; fill:none;"/>
	<path d="M 1679.0,1280.0 L 1674.0,1281.0 L 1698.0,1273.0" style="stroke:#010101; fill:none;"/>
	<path d="M 1660.0,1274.0 C 1662.6,1277.87 1669.68,1288.2 1670.0,1277.0" style="stroke:#010101; fill:none;"/>
	<path d="M 1673.0,1274.0 L 1679.0,1274.0" style="stroke:#010101; fill:none;"/>
	<path d="M 1671.0,1281.0 L 1674.0,1281.0" style="stroke:#010101; fill:none;"/>
	<path d="M 1680.0,1283.0 L 1686.0,1282.0" style="stroke:#010101; fill:none;"/>
	<path d="M 1664.0,1283.0 L 1661.0,1286.0" style="stroke:#010101; fill:none;"/>
	<path d="M 1669.0,1283.0 C 1674.18,1290.02 1679.18,1293.12 1688.0,1294.0" style="stroke:#010101; fill:none;"/>
	<path d="M 1659.0,1285.0 C 1655.58,1289.48 1652.76,1295.55 1655.0,1301.0 L 1663.0,1295.0" style="stroke:#010101; fill:none;"/>
	<path d="M 1512.0,1287.0 L 1521.0,1298.0" style="stroke:#010101; fill:none;"/>
	<path d="M 1661.0,1292.0 L 1661.0,1296.0" style="stroke:#010101; fill:none;"/>
	<path d="M 1526.0,1293.0 L 1526.0,1294.0" style="stroke:#010101; fill:none;"/>
	<path d="M 1650.0,1311.0 C 1646.35,1307.23 1643.27,1304.37 1645.0,1299.0 L 1652.0,1304.0" style="stroke:#010101; fill:none;"/>
	<path d="M 1660.0,1299.0 C 1663.64,1301.84 1666.01,1304.17 1670.0,1301.0 L 1664.0,1301.0" style="stroke:#010101; fill:none;"/>
	<path d="M 1535.0,1301.0 L 1534.0,1302.0" style="stroke:#010101; fill:none;"/>
	<path d="M 1671.0,1301.0 C 1675.25,1307.15 1682.77,1305.33 1689.0,1303.0" style="stroke:#010101; fill:none;"/>
	<path d="M 1637.0,1302.0 L 1639.0,1304.0 L 1643.0,1302.0" style="stroke:#010101; fill:none;"/>
	<path d="M 1544.0,1303.0 L 1546.0,1305.0" style="stroke:#010101; fill:none;"/>
	<path d="M 1548.0,1303.0 C 1565.32,1315.37 1603.62,1332.72 1623.0,1318.0" style="stroke:#010101; fill:none;"/>
	<path d="M 1639.0,1304.0 C 1639.07,1309.6 1640.95,1311.32 1645.0,1315.0 C 1637.98,1320.91 1635.61,1316.62 1635.0,1309.0" style="stroke:#010101; fill:none;"/>
	<path d="M 1669.0,1305.0 L 1671.0,1305.0" style="stroke:#010101; fill:none;"/>
	<path d="M 1541.0,1306.0 L 1540.0,1307.0" style="stroke:#010101; fill:none;"/>
	<path d="M 1639.0,1311.0 L 1636.0,1314.0" style="stroke:#010101; fill:none;"/>
	<path d="M 1546.0,1312.0 L 1545.0,1313.0" style="stroke:#010101; fill:none;"/>
	<path d="M 1645.0,1315.0 L 1648.0,1315.0" style="stroke:#010101; fill:none;"/>
	<path d="M 1631.0,1316.0 C 1623.41,1331.92 1614.62,1335.0 1598.0,1335.0 L 1609.0,1353.0" style="stroke:#010101; fill:none;"/>
	<path d="M 1665.0,1318.0 L 1665.0,1319.0" style="stroke:#010101; fill:none;"/>
	<path d="M 1555.0,1320.0 L 1555.0,1322.0" style="stroke:#010101; fill:none;"/>
	<path d="M 1662.0,1320.0 L 1655.0,1323.0" style="stroke:#010101; fill:none;"/>
	<path d="M 1564.0,1322.0 L 1564.0,1325.0" style="stroke:#010101; fill:none;"/>
	<path d="M 1572.0,1323.0 L 1577.0,1326.0 L 1573.0,1331.0 L 1571.0,1327.0" style="stroke:#010101; fill:none;"/>
	<path d="M 1567.0,1325.0 L 1568.0,1327.0" style="stroke:#010101; fill:none;"/>
	<path d="M 1659.0,1325.0 L 1671.0,1330.0" style="stroke:#010101; fill:none;"/>
	<path d="M 1674.0,1325.0 L 1684.0,1332.0" style="stroke:#010101; fill:none;"/>
	<path d="M 1577.0,1326.0 C 1583.45,1327.86 1586.07,1330.21 1586.0,1337.0" style="stroke:#010101; fill:none;"/>
	<path d="M 1657.0,1326.0 C 1660.06,1330.71 1662.7,1332.39 1668.0,1334.0 L 1666.0,1338.0 C 1669.14,1338.83 1671.23,1339.59 1672.0,1336.0 C 1674.25,1337.39 1674.54,1337.84 1673.0,1340.0" style="stroke:#010101; fill:none;"/>
	<path d="M 1582.0,1328.0 L 1581.0,1339.0" style="stroke:#010101; fill:none;"/>
	<path d="M 1628.0,1330.0 L 1629.0,1333.0" style="stroke:#010101; fill:none;"/>
	<path d="M 1573.0,1331.0 L 1572.0,1341.0" style="stroke:#010101; fill:none;"/>
	<path d="M 1587.0,1331.0 L 1597.0,1334.0" style="stroke:#010101; fill:none;"/>
	<path d="M 1623.0,1333.0 L 1624.0,1334.0" style="stroke:#010101; fill:none;"/>
	<path d="M 1669.0,1334.0 L 1671.0,1335.0" style="stroke:#010101; fill:none;"/>
	<path d="M 1664.0,1335.0 L 1665.0,1336.0" style="stroke:#010101; fill:none;"/>
	<path d="M 1620.0,1336.0 L 1621.0,1338.0" style="stroke:#010101; fill:none;"/>
	<path d="M 1593.0,1337.0 L 1595.0,1341.0" style="stroke:#010101; fill:none;"/>
	<path d="M 1613.0,1337.0 L 1614.0,1338.0" style="stroke:#010101; fill:none;"/>
	<path d="M 1676.0,1338.0 L 1680.0,1340.0" style="stroke:#010101; fill:none;"/>
	<path d="M 1676.0,1340.0 L 1678.0,1340.0" style="stroke:#010101; fill:none;"/>
	<path d="M 1653.0,1349.0 L 1654.0,1349.0" style="stroke:#010101; fill:none;"/>
	<path d="M 1261.0,1371.0 C 1264.28,1365.03 1272.93,1365.67 1279.0,1366.09 C 1296.21,1367.27 1311.5,1375.18 1328.0,1379.0" style="stroke:#010101; fill:none;"/>
	<path d="M 1224.0,1474.0 C 1215.43,1467.54 1204.78,1459.9 1201.64,1449.0 C 1199.28,1440.84 1203.24,1431.49 1206.2,1424.0 C 1214.64,1402.7 1232.54,1380.38 1254.0,1371.0" style="stroke:#010101; fill:none;"/>
	<path d="M 410.0,1386.0 L 450.0,1434.0" style="stroke:#010101; fill:none;"/>
	<path d="M 1391.0,1413.0 L 1414.0,1425.0" style="stroke:#010101; fill:none;"/>
	<path d="M 453.0,1436.0 L 456.0,1439.0" style="stroke:#010101; fill:none;"/>
	<path d="M 470.0,1459.0 C 489.799,1489.02 509.503,1518.4 534.0,1545.0" style="stroke:#010101; fill:none;"/>
	<path d="M 1292.0,1485.0 C 1288.62,1480.85 1277.88,1472.53 1280.62,1466.32 C 1282.35,1462.41 1288.97,1464.44 1292.0,1465.12 C 1302.36,1467.45 1311.69,1471.19 1321.0,1476.31 C 1344.89,1489.44 1360.99,1508.11 1375.0,1531.0" style="stroke:#010101; fill:none;"/>
	<path d="M 1224.0,1478.0 C 1229.17,1486.96 1237.43,1495.79 1247.0,1500.0" style="stroke:#010101; fill:none;"/>
	<path d="M 1608.0,1487.0 L 1607.0,1493.0" style="stroke:#010101; fill:none;"/>
	<path d="M 1511.0,1493.0 C 1505.18,1504.6 1504.2,1516.43 1495.54,1527.0 C 1487.55,1536.74 1476.3,1548.21 1465.0,1554.02 C 1435.85,1569.01 1398.61,1564.87 1367.0,1571.0" style="stroke:#010101; fill:none;"/>
	<path d="M 1606.0,1496.0 L 1606.0,1497.0" style="stroke:#010101; fill:none;"/>
	<path d="M 1606.0,1501.0 C 1596.46,1523.57 1591.48,1545.93 1577.7,1567.0 C 1546.01,1615.49 1501.02,1653.92 1468.34,1702.0 C 1434.53,1751.76 1407.12,1805.77 1374.0,1856.0 C 1357.02,1881.74 1336.29,1906.55 1316.3,1930.0 C 1288.76,1962.3 1258.6,1994.39 1222.0,2016.54 C 1182.25,2040.59 1137.7,2030.77 1095.0,2024.71 C 1084.06,2023.16 1072.68,2021.08 1062.0,2018.27 C 1057.68,2017.13 1050.6,2013.63 1046.17,2014.78 C 1043.14,2015.58 1040.36,2019.05 1038.0,2021.0" style="stroke:#010101; fill:none;"/>
	<path d="M 1340.0,1531.0 L 1348.0,1546.0" style="stroke:#010101; fill:none;"/>
	<path d="M 1049.0,1554.0 L 1093.0,1538.0" style="stroke:#010101; fill:none;"/>
	<path d="M 1049.0,1562.0 C 1068.91,1553.13 1091.24,1540.93 1113.0,1538.0" style="stroke:#010101; fill:none;"/>
	<path d="M 1057.0,1568.0 C 1079.27,1564.03 1097.31,1544.35 1120.0,1541.0" style="stroke:#010101; fill:none;"/>
	<path d="M 717.0,1542.0 L 717.0,1571.0" style="stroke:#010101; fill:none;"/>
	<path d="M 1079.0,1594.0 C 1094.42,1585.41 1108.17,1573.58 1124.0,1565.66 C 1140.42,1557.44 1161.06,1553.49 1179.0,1550.0" style="stroke:#010101; fill:none;"/>
	<path d="M 1127.0,1551.0 L 1084.0,1567.8 L 1061.0,1583.0" style="stroke:#010101; fill:none;"/>
	<path d="M 1114.0,1559.0 L 1158.0,1552.0" style="stroke:#010101; fill:none;"/>
	<path d="M 1132.0,1574.0 C 1152.77,1566.04 1176.49,1553.97 1199.0,1553.0" style="stroke:#010101; fill:none;"/>
	<path d="M 1117.0,1598.0 C 1128.86,1588.6 1143.66,1576.83 1158.0,1571.61 C 1163.75,1569.52 1170.08,1568.81 1176.0,1566.58 C 1185.17,1563.12 1195.2,1557.98 1205.0,1557.0" style="stroke:#010101; fill:none;"/>
	<path d="M 1133.0,1597.0 L 1164.0,1579.0 C 1167.26,1582.01 1175.36,1576.54 1179.0,1575.0 C 1190.55,1570.12 1206.28,1560.63 1219.0,1561.0" style="stroke:#010101; fill:none;"/>
	<path d="M 1159.0,1600.0 L 1209.0,1574.42 L 1236.0,1564.0" style="stroke:#010101; fill:none;"/>
	<path d="M 1070.0,1592.0 L 1115.0,1565.0" style="stroke:#010101; fill:none;"/>
	<path d="M 1138.0,1566.0 L 1091.0,1595.0" style="stroke:#010101; fill:none;"/>
	<path d="M 1173.0,1597.0 L 1218.0,1579.15 L 1249.0,1566.0" style="stroke:#010101; fill:none;"/>
	<path d="M 1172.0,1610.0 L 1206.0,1590.31 L 1231.0,1579.24 L 1257.0,1568.0" style="stroke:#010101; fill:none;"/>
	<path d="M 1287.0,1574.0 L 1301.0,1568.0" style="stroke:#010101; fill:none;"/>
	<path d="M 1056.0,1594.0 L 1095.0,1569.0" style="stroke:#010101; fill:none;"/>
	<path d="M 1164.0,1579.0 L 1182.0,1570.0" style="stroke:#010101; fill:none;"/>
	<path d="M 1161.0,1571.0 L 1158.0,1572.0" style="stroke:#010101; fill:none;"/>
	<path d="M 1192.0,1606.0 L 1242.0,1581.14 L 1265.0,1571.0" style="stroke:#010101; fill:none;"/>
	<path d="M 1303.0,1571.0 C 1300.58,1575.73 1287.43,1585.41 1282.0,1582.0" style="stroke:#010101; fill:none;"/>
	<path d="M 1051.0,1579.0 C 1057.26,1576.64 1067.56,1572.09 1074.0,1574.0" style="stroke:#010101; fill:none;"/>
	<path d="M 1139.0,1581.0 L 1130.0,1581.0 L 1148.0,1572.0" style="stroke:#010101; fill:none;"/>
	<path d="M 1213.0,1611.0 C 1234.93,1598.2 1260.86,1578.14 1286.0,1573.0" style="stroke:#010101; fill:none;"/>
	<path d="M 1188.0,1574.0 L 1140.0,1604.0" style="stroke:#010101; fill:none;"/>
	<path d="M 1283.0,1574.0 L 1287.0,1574.0" style="stroke:#010101; fill:none;"/>
	<path d="M 1284.0,1582.0 L 1295.0,1575.0" style="stroke:#010101; fill:none;"/>
	<path d="M 1282.0,1576.0 L 1284.0,1576.0" style="stroke:#010101; fill:none;"/>
	<path d="M 1307.0,1578.0 L 1234.0,1620.0" style="stroke:#010101; fill:none;"/>
	<path d="M 1109.0,1592.0 L 1130.0,1581.0" style="stroke:#010101; fill:none;"/>
	<path d="M 1261.0,1592.0 L 1281.0,1583.0" style="stroke:#010101; fill:none;"/>
	<path d="M 1197.0,1614.0 C 1217.34,1610.37 1231.68,1590.68 1251.0,1585.0" style="stroke:#010101; fill:none;"/>
	<path d="M 1240.0,1586.0 L 1191.0,1612.0" style="stroke:#010101; fill:none;"/>
	<path d="M 1251.0,1621.0 L 1313.0,1587.0" style="stroke:#010101; fill:none;"/>
	<path d="M 1258.0,1625.0 L 1299.0,1600.6 L 1323.0,1587.0" style="stroke:#010101; fill:none;"/>
	<path d="M 1330.0,1592.0 L 1327.0,1604.0" style="stroke:#010101; fill:none;"/>
	<path d="M 1156.0,1595.0 L 1164.0,1595.0" style="stroke:#010101; fill:none;"/>
	<path d="M 1332.0,1595.0 L 1329.0,1610.0" style="stroke:#010101; fill:none;"/>
	<path d="M 1255.0,1597.0 L 1218.0,1620.0" style="stroke:#010101; fill:none;"/>
	<path d="M 1322.0,1600.0 L 1305.0,1612.0 L 1309.0,1610.0" style="stroke:#010101; fill:none;"/>
	<path d="M 1343.0,1603.0 L 1345.35,1620.0 L 1344.0,1650.0" style="stroke:#010101; fill:none;"/>
	<path d="M 1339.0,1604.0 L 1340.0,1617.0" style="stroke:#010101; fill:none;"/>
	<path d="M 1308.0,1609.0 L 1311.0,1608.0" style="stroke:#010101; fill:none;"/>
	<path d="M 591.0,1610.0 L 606.0,1625.0" style="stroke:#010101; fill:none;"/>
	<path d="M 1321.0,1610.0 L 1301.0,1630.0" style="stroke:#010101; fill:none;"/>
	<path d="M 1304.0,1614.0 L 1305.0,1612.0" style="stroke:#010101; fill:none;"/>
	<path d="M 1352.0,1613.0 C 1352.0,1624.79 1350.8,1637.78 1355.0,1649.0" style="stroke:#010101; fill:none;"/>
	<path d="M 1279.0,1628.0 L 1302.0,1614.0" style="stroke:#010101; fill:none;"/>
	<path d="M 1306.0,1614.0 L 1305.0,1615.0" style="stroke:#010101; fill:none;"/>
	<path d="M 1303.0,1615.0 L 1301.0,1617.0" style="stroke:#010101; fill:none;"/>
	<path d="M 1320.0,1615.0 L 1304.0,1631.0" style="stroke:#010101; fill:none;"/>
	<path d="M 1368.0,1616.0 L 1377.0,1631.0" style="stroke:#010101; fill:none;"/>
	<path d="M 1362.0,1617.0 L 1364.34,1632.0 L 1362.31,1641.0 L 1368.0,1664.0" style="stroke:#010101; fill:none;"/>
	<path d="M 1376.0,1617.0 L 1383.0,1633.0" style="stroke:#010101; fill:none;"/>
	<path d="M 1329.0,1620.0 L 1317.0,1636.0" style="stroke:#010101; fill:none;"/>
	<path d="M 727.0,1621.0 C 727.0,1654.84 735.353,1688.12 742.576,1721.0 C 747.755,1744.58 751.464,1768.75 758.0,1792.0" style="stroke:#010101; fill:none;"/>
	<path d="M 1388.0,1621.0 L 1391.0,1632.0" style="stroke:#010101; fill:none;"/>
	<path d="M 1339.0,1623.0 L 1336.0,1640.0" style="stroke:#010101; fill:none;"/>
	<path d="M 1332.0,1627.0 L 1329.0,1646.0" style="stroke:#010101; fill:none;"/>
	<path d="M 1048.0,1632.0 C 1058.52,1640.64 1074.13,1643.35 1087.0,1647.0" style="stroke:#010101; fill:none;"/>
	<path d="M 617.0,1639.0 L 618.0,1640.0" style="stroke:#010101; fill:none;"/>
	<path d="M 1376.0,1645.0 C 1377.57,1657.4 1376.18,1663.87 1368.0,1650.0" style="stroke:#010101; fill:none;"/>
	<path d="M 1157.0,1646.0 L 1159.0,1646.0" style="stroke:#010101; fill:none;"/>
	<path d="M 1383.0,1646.0 C 1381.8,1653.23 1385.17,1660.98 1389.0,1667.0" style="stroke:#010101; fill:none;"/>
	<path d="M 1107.0,1647.0 L 1108.0,1647.0" style="stroke:#010101; fill:none;"/>
	<path d="M 1110.0,1648.0 C 1122.57,1650.34 1135.52,1650.16 1148.0,1652.26 C 1157.29,1653.82 1165.25,1659.04 1174.0,1662.09 C 1180.59,1664.38 1187.32,1664.19 1194.0,1667.01 C 1224.25,1679.82 1250.51,1700.95 1280.0,1715.18 C 1296.91,1723.34 1321.66,1718.27 1333.9,1735.1 C 1337.32,1739.82 1338.45,1745.51 1340.0,1751.0" style="stroke:#010101; fill:none;"/>
	<path d="M 1397.0,1648.0 L 1407.0,1679.0" style="stroke:#010101; fill:none;"/>
	<path d="M 1166.0,1649.0 C 1182.84,1652.27 1199.47,1657.98 1216.0,1662.58 C 1228.84,1666.14 1243.08,1668.49 1254.98,1674.71 C 1259.99,1677.32 1262.91,1683.09 1267.0,1686.91 C 1274.73,1694.12 1284.1,1700.07 1294.0,1703.77 C 1309.19,1709.45 1344.57,1711.87 1345.0,1732.0" style="stroke:#010101; fill:none;"/>
	<path d="M 1390.0,1651.0 L 1394.0,1666.0" style="stroke:#010101; fill:none;"/>
	<path d="M 1379.0,1661.0 L 1384.0,1676.0 L 1387.0,1672.0" style="stroke:#010101; fill:none;"/>
	<path d="M 1179.0,1665.0 C 1189.76,1678.74 1214.76,1685.71 1230.0,1693.7 C 1235.78,1696.74 1243.45,1702.37 1250.0,1700.0" style="stroke:#010101; fill:none;"/>
	<path d="M 1394.0,1673.0 C 1394.0,1683.96 1393.47,1694.76 1398.0,1705.0" style="stroke:#010101; fill:none;"/>
	<path d="M 1384.0,1676.0 L 1388.0,1688.0" style="stroke:#010101; fill:none;"/>
	<path d="M 1413.0,1681.0 L 1415.0,1700.0" style="stroke:#010101; fill:none;"/>
	<path d="M 1410.0,1683.0 C 1407.45,1691.53 1406.17,1704.48 1409.0,1713.0 L 1411.0,1707.0" style="stroke:#010101; fill:none;"/>
	<path d="M 1403.0,1689.0 L 1406.0,1708.0" style="stroke:#010101; fill:none;"/>
	<path d="M 669.0,1713.0 L 670.0,1714.0" style="stroke:#010101; fill:none;"/>
	<path d="M 1408.0,1714.0 L 1407.0,1732.0" style="stroke:#010101; fill:none;"/>
	<path d="M 679.0,1732.0 L 703.0,1780.0" style="stroke:#010101; fill:none;"/>
	<path d="M 1135.0,1739.0 C 1148.47,1744.0 1160.04,1754.9 1173.0,1761.4 C 1197.74,1773.8 1222.75,1783.11 1249.0,1791.67 C 1268.52,1798.03 1290.27,1804.83 1311.0,1805.0" style="stroke:#010101; fill:none;"/>
	<path d="M 1343.0,1758.0 L 1352.0,1767.0" style="stroke:#010101; fill:none;"/>
	<path d="M 1354.0,1768.0 L 1359.0,1768.0" style="stroke:#010101; fill:none;"/>
	<path d="M 738.0,1831.0 L 744.0,1836.0" style="stroke:#010101; fill:none;"/>
	<path d="M 747.0,1839.0 C 758.46,1850.46 769.491,1868.65 784.0,1876.0" style="stroke:#010101; fill:none;"/>
	<path d="M 799.0,1889.0 C 819.557,1903.78 840.143,1919.29 862.0,1932.14 C 878.209,1941.67 895.551,1948.42 912.0,1957.31 C 953.754,1979.88 997.258,2002.19 1044.0,2013.0" style="stroke:#010101; fill:none;"/>
	<path d="M 1147.0,1934.0 C 1128.59,1952.41 1108.59,1969.21 1087.0,1983.84 C 1079.21,1989.11 1070.65,1997.01 1061.0,1998.0" style="stroke:#010101; fill:none;"/>
	<path d="M 854.0,1955.0 C 860.744,1983.46 877.531,2011.68 890.0,2038.0" style="stroke:#010101; fill:none;"/>
	<path d="M 1068.0,1955.0 L 1057.0,1972.0" style="stroke:#010101; fill:none;"/>
	<path d="M 868.0,1957.0 L 882.0,2003.0" style="stroke:#010101; fill:none;"/>
	<path d="M 892.0,1959.0 C 909.003,1979.9 929.282,1996.52 943.0,2020.0" style="stroke:#010101; fill:none;"/>
	<path d="M 906.0,1962.0 C 923.657,1974.29 939.483,1993.4 953.0,2010.0" style="stroke:#010101; fill:none;"/>
	<path d="M 938.0,1973.0 C 938.955,1985.69 959.343,2002.64 969.0,2010.0" style="stroke:#010101; fill:none;"/>
	<path d="M 1094.0,1983.0 L 1096.0,1996.0" style="stroke:#010101; fill:none;"/>
	<path d="M 964.0,1986.0 C 965.113,1993.21 972.068,1998.07 977.0,2003.0" style="stroke:#010101; fill:none;"/>
	<path d="M 1036.0,2022.0 L 1035.0,2023.0" style="stroke:#010101; fill:none;"/>
	<path d="M 872.0,2026.0 L 873.0,2032.0" style="stroke:#010101; fill:none;"/>
	<path d="M 874.0,2034.0 C 876.169,2046.6 883.604,2061.0 890.0,2072.0" style="stroke:#010101; fill:none;"/>
	<path d="M 1106.0,2050.0 L 1117.0,2047.0" style="stroke:#010101; fill:none;"/>
	<path d="M 879.0,2080.0 L 879.0,2081.0" style="stroke:#010101; fill:none;"/>
	<path d="M 879.0,2084.0 L 879.0,2085.0" style="stroke:#010101; fill:none;"/>
	<path d="M 942.0,2089.0 L 941.0,2090.0" style="stroke:#010101; fill:none;"/>
	<path d="M 923.0,2102.0 C 911.935,2110.44 897.16,2115.9 884.0,2109.0" style="stroke:#010101; fill:none;"/>
</svg>
