<?xml version="1.0" ?>
<svg baseProfile="full" height="2894" version="1.1" width="2447" xmlns="http://www.w3.org/2000/svg" xmlns:ev="http://www.w3.org/2001/xml-events" xmlns:xlink="http://www.w3.org/1999/xlink">
	<defs/>
	<path d="M 1480.0,120.0 L 1458.0,129.0 C 1465.13,133.074 1474.52,126.564 1482.0,125.0" style="stroke:#010101; fill:none;"/>
	<path d="M 1457.0,128.0 L 1457.0,124.0" style="stroke:#010101; fill:none;"/>
	<path d="M 1456.0,129.0 L 1455.0,125.0" style="stroke:#010101; fill:none;"/>
	<path d="M 1455.0,129.0 L 1458.0,133.0 C 1454.75,131.78 1450.49,129.593 1453.0,126.0" style="stroke:#010101; fill:none;"/>
	<path d="M 1452.0,132.0 C 1449.54,132.452 1448.35,129.718 1450.0,128.0" style="stroke:#010101; fill:none;"/>
	<path d="M 1354.0,177.0 C 1383.8,159.425 1415.03,142.291 1447.0,129.0" style="stroke:#010101; fill:none;"/>
	<path d="M 1452.0,130.0 L 1452.0,136.0 L 1454.0,134.0" style="stroke:#010101; fill:none;"/>
	<path d="M 1529.0,130.0 L 1524.0,131.0" style="stroke:#010101; fill:none;"/>
	<path d="M 1478.0,131.0 L 1466.0,136.0 L 1471.0,137.0" style="stroke:#010101; fill:none;"/>
	<path d="M 1403.0,180.0 L 1469.0,149.31 L 1512.0,132.174 L 1522.0,131.0" style="stroke:#010101; fill:none;"/>
	<path d="M 1511.0,132.0 L 1515.0,133.0" style="stroke:#010101; fill:none;"/>
	<path d="M 1470.0,135.0 L 1474.0,133.0" style="stroke:#010101; fill:none;"/>
	<path d="M 1480.0,133.0 L 1479.0,134.0" style="stroke:#010101; fill:none;"/>
	<path d="M 1364.0,179.0 C 1383.72,165.992 1405.88,155.313 1427.0,144.753 C 1433.63,141.436 1443.84,133.084 1451.0,137.0" style="stroke:#010101; fill:none;"/>
	<path d="M 1496.0,151.0 L 1492.0,151.0 L 1542.0,134.0" style="stroke:#010101; fill:none;"/>
	<path d="M 1467.0,138.0 L 1462.0,140.0 L 1466.0,136.0" style="stroke:#010101; fill:none;"/>
	<path d="M 1450.0,137.0 L 1445.0,141.0" style="stroke:#010101; fill:none;"/>
	<path d="M 1461.0,141.0 L 1462.0,138.0" style="stroke:#010101; fill:none;"/>
	<path d="M 1460.0,141.0 L 1459.0,139.0" style="stroke:#010101; fill:none;"/>
	<path d="M 1386.0,175.0 L 1457.0,140.0" style="stroke:#010101; fill:none;"/>
	<path d="M 1542.0,142.0 L 1505.0,163.0" style="stroke:#010101; fill:none;"/>
	<path d="M 1455.0,143.0 L 1458.0,142.0" style="stroke:#010101; fill:none;"/>
	<path d="M 1534.0,146.0 L 1536.0,145.0" style="stroke:#010101; fill:none;"/>
	<path d="M 1542.0,146.0 L 1538.0,148.0" style="stroke:#010101; fill:none;"/>
	<path d="M 1572.0,146.0 C 1566.12,148.325 1558.22,152.845 1552.0,151.0 L 1558.0,147.0" style="stroke:#010101; fill:none;"/>
	<path d="M 1394.0,147.0 L 1391.0,149.0" style="stroke:#010101; fill:none;"/>
	<path d="M 1498.0,148.0 L 1500.0,148.0" style="stroke:#010101; fill:none;"/>
	<path d="M 1440.0,177.0 C 1458.2,170.801 1475.81,161.103 1492.0,151.0" style="stroke:#010101; fill:none;"/>
	<path d="M 1553.0,153.0 L 1549.0,153.0 L 1552.0,151.0" style="stroke:#010101; fill:none;"/>
	<path d="M 1315.0,194.0 C 1335.19,176.792 1361.15,163.345 1385.0,152.0" style="stroke:#010101; fill:none;"/>
	<path d="M 1493.0,153.0 L 1489.0,154.0" style="stroke:#010101; fill:none;"/>
	<path d="M 1548.0,154.0 L 1547.0,156.0 L 1545.0,154.0 L 1548.0,152.0" style="stroke:#010101; fill:none;"/>
	<path d="M 1546.0,156.0 L 1545.0,154.0" style="stroke:#010101; fill:none;"/>
	<path d="M 1481.0,157.0 L 1484.0,155.0" style="stroke:#010101; fill:none;"/>
	<path d="M 1544.0,157.0 L 1543.0,155.0" style="stroke:#010101; fill:none;"/>
	<path d="M 1511.0,158.0 L 1514.0,156.0" style="stroke:#010101; fill:none;"/>
	<path d="M 1541.0,157.0 L 1538.0,158.0 L 1541.0,157.0" style="stroke:#010101; fill:none;"/>
	<path d="M 1472.0,175.0 L 1509.0,158.0" style="stroke:#010101; fill:none;"/>
	<path d="M 1535.0,160.0 L 1531.0,161.0 L 1537.0,157.0" style="stroke:#010101; fill:none;"/>
	<path d="M 1537.0,160.0 L 1536.0,161.0" style="stroke:#010101; fill:none;"/>
	<path d="M 1488.0,179.0 L 1530.0,160.0" style="stroke:#010101; fill:none;"/>
	<path d="M 1530.0,163.0 L 1522.0,168.0" style="stroke:#010101; fill:none;"/>
	<path d="M 1554.0,172.0 L 1556.0,173.0 L 1559.0,169.0" style="stroke:#010101; fill:none;"/>
	<path d="M 1208.0,240.0 C 1243.99,215.715 1279.49,191.18 1318.0,171.0" style="stroke:#010101; fill:none;"/>
	<path d="M 1556.0,173.0 C 1567.0,180.517 1581.68,184.714 1594.0,189.811 C 1611.77,197.166 1629.16,205.734 1646.0,215.025 C 1689.11,238.817 1734.37,265.819 1770.0,300.039 C 1791.43,320.626 1807.68,344.84 1826.0,368.0" style="stroke:#010101; fill:none;"/>
	<path d="M 1293.0,194.0 L 1291.0,195.0" style="stroke:#010101; fill:none;"/>
	<path d="M 1251.0,231.0 L 1289.0,198.0" style="stroke:#010101; fill:none;"/>
	<path d="M 1188.0,250.0 L 1190.0,249.0" style="stroke:#010101; fill:none;"/>
	<path d="M 1180.0,256.0 L 1182.0,255.0" style="stroke:#010101; fill:none;"/>
	<path d="M 1176.0,259.0 L 1177.0,259.0" style="stroke:#010101; fill:none;"/>
	<path d="M 1133.0,285.0 L 1113.0,304.0" style="stroke:#010101; fill:none;"/>
	<path d="M 1099.0,307.0 L 1093.0,312.0" style="stroke:#010101; fill:none;"/>
	<path d="M 1909.0,515.0 L 1918.6,534.0 L 1945.56,578.0 L 1956.7,602.816 L 1969.0,613.0 L 1945.0,624.119 L 1910.0,646.0" style="stroke:#010101; fill:none;"/>
	<path d="M 1854.0,691.0 C 1846.19,667.931 1860.52,626.342 1878.09,610.44 C 1883.49,605.556 1890.27,603.426 1897.0,601.0" style="stroke:#010101; fill:none;"/>
	<path d="M 1924.0,601.0 C 1908.9,614.863 1884.89,631.684 1880.0,653.0 L 1881.0,649.0" style="stroke:#010101; fill:none;"/>
	<path d="M 1883.0,651.0 C 1901.31,632.692 1919.57,613.174 1944.0,603.0" style="stroke:#010101; fill:none;"/>
	<path d="M 1889.0,606.0 C 1871.88,623.49 1850.88,660.672 1858.0,686.0" style="stroke:#010101; fill:none;"/>
	<path d="M 1615.0,607.0 C 1648.83,615.039 1649.0,652.435 1649.0,680.0" style="stroke:#010101; fill:none;"/>
	<path d="M 1960.0,607.0 L 1925.0,628.64 L 1892.0,654.0 L 1895.0,652.0" style="stroke:#010101; fill:none;"/>
	<path d="M 1861.0,673.0 C 1864.67,655.257 1874.38,637.951 1884.35,623.0 C 1887.93,617.641 1892.94,608.895 1900.0,609.0 L 1899.0,612.0" style="stroke:#010101; fill:none;"/>
	<path d="M 1945.0,608.0 L 1894.0,650.0" style="stroke:#010101; fill:none;"/>
	<path d="M 1575.0,610.0 C 1591.65,626.65 1606.51,641.583 1615.19,664.0 C 1618.45,672.414 1622.12,683.435 1618.0,692.0" style="stroke:#010101; fill:none;"/>
	<path d="M 1547.0,613.0 C 1574.11,623.684 1618.16,658.834 1612.0,692.0" style="stroke:#010101; fill:none;"/>
	<path d="M 1600.0,613.0 C 1637.26,614.706 1645.58,667.267 1642.0,695.0" style="stroke:#010101; fill:none;"/>
	<path d="M 1970.0,613.0 L 1979.0,619.0 C 1972.15,623.213 1963.53,624.582 1956.0,627.37 C 1940.85,632.976 1923.98,641.069 1912.0,652.0" style="stroke:#010101; fill:none;"/>
	<path d="M 1980.0,619.0 L 1983.0,619.0" style="stroke:#010101; fill:none;"/>
	<path d="M 1609.0,623.0 C 1620.7,640.338 1629.59,658.433 1634.0,679.0 C 1635.5,685.983 1638.75,696.374 1633.0,702.0" style="stroke:#010101; fill:none;"/>
	<path d="M 1905.0,657.0 L 1954.0,633.861 L 2004.0,623.0" style="stroke:#010101; fill:none;"/>
	<path d="M 1538.0,625.0 C 1560.78,627.002 1584.88,653.488 1596.97,671.0 C 1601.22,677.151 1614.84,695.135 1602.0,699.0" style="stroke:#010101; fill:none;"/>
	<path d="M 1513.0,629.0 C 1535.98,627.989 1564.34,653.503 1580.0,668.089 C 1584.16,671.965 1604.06,688.327 1592.0,692.0" style="stroke:#010101; fill:none;"/>
	<path d="M 1923.0,657.0 C 1931.8,655.154 1938.53,648.423 1947.0,645.014 C 1964.73,637.873 1984.87,633.394 2004.0,633.0" style="stroke:#010101; fill:none;"/>
	<path d="M 1492.0,635.0 C 1522.15,636.314 1555.57,659.573 1576.0,680.0 C 1568.42,680.962 1557.86,671.366 1551.0,667.935 C 1535.28,660.074 1518.92,654.064 1502.0,649.606 C 1496.32,648.11 1492.35,644.898 1486.13,645.435 C 1477.75,646.159 1467.27,651.036 1459.0,653.412 C 1457.09,653.96 1452.03,656.9 1451.0,656.0" style="stroke:#010101; fill:none;"/>
	<path d="M 953.0,638.0 C 941.442,651.357 930.623,668.065 923.0,684.0" style="stroke:#010101; fill:none;"/>
	<path d="M 1954.0,654.0 L 1950.0,653.0 C 1966.01,643.148 1989.72,642.0 2008.0,642.0" style="stroke:#010101; fill:none;"/>
	<path d="M 1476.0,643.0 L 1483.0,644.0" style="stroke:#010101; fill:none;"/>
	<path d="M 1494.0,645.0 L 1504.0,644.0" style="stroke:#010101; fill:none;"/>
	<path d="M 1895.0,649.0 L 1897.0,651.0" style="stroke:#010101; fill:none;"/>
	<path d="M 1924.0,651.0 L 1934.0,650.0" style="stroke:#010101; fill:none;"/>
	<path d="M 2023.0,663.0 L 1995.0,656.17 L 1977.0,653.0 L 2011.0,649.0" style="stroke:#010101; fill:none;"/>
	<path d="M 1362.0,701.0 C 1387.0,689.167 1413.38,679.824 1440.0,672.424 C 1452.33,668.996 1468.95,668.124 1480.0,662.0 L 1468.0,658.0 L 1499.0,651.0" style="stroke:#010101; fill:none;"/>
	<path d="M 1934.0,654.0 L 1950.0,653.0" style="stroke:#010101; fill:none;"/>
	<path d="M 1948.0,653.0 L 1922.0,661.0" style="stroke:#010101; fill:none;"/>
	<path d="M 1939.0,665.0 L 1959.92,659.854 L 1977.0,653.0" style="stroke:#010101; fill:none;"/>
	<path d="M 1879.0,654.0 C 1850.66,701.557 1817.52,765.786 1834.21,823.0 C 1840.87,845.852 1856.44,862.805 1871.0,881.0 C 1911.75,931.938 1967.95,967.95 2014.0,1014.0 C 2029.09,1029.09 2046.85,1043.93 2058.39,1062.04 C 2071.09,1081.99 2073.81,1105.06 2072.0,1128.0" style="stroke:#010101; fill:none;"/>
	<path d="M 1892.0,654.0 L 1881.0,669.0" style="stroke:#010101; fill:none;"/>
	<path d="M 1973.0,654.0 L 1971.0,658.0 L 1969.0,656.0" style="stroke:#010101; fill:none;"/>
	<path d="M 1974.0,657.0 L 1978.0,656.0" style="stroke:#010101; fill:none;"/>
	<path d="M 1452.0,658.0 C 1452.45,663.746 1441.55,664.818 1437.0,666.333 C 1424.24,670.585 1411.54,674.954 1399.0,679.811 C 1393.61,681.899 1387.77,685.713 1382.0,684.0 C 1386.48,678.772 1393.8,676.812 1400.0,674.15 C 1415.03,667.699 1433.61,658.432 1450.0,657.0" style="stroke:#010101; fill:none;"/>
	<path d="M 1958.0,659.0 L 1963.0,657.0" style="stroke:#010101; fill:none;"/>
	<path d="M 1455.0,660.0 L 1468.0,658.0" style="stroke:#010101; fill:none;"/>
	<path d="M 1885.0,666.0 L 1903.0,658.0" style="stroke:#010101; fill:none;"/>
	<path d="M 1914.0,661.0 L 1921.0,658.0" style="stroke:#010101; fill:none;"/>
	<path d="M 1954.0,660.0 L 1958.0,658.0" style="stroke:#010101; fill:none;"/>
	<path d="M 1968.0,658.0 L 1964.0,659.0" style="stroke:#010101; fill:none;"/>
	<path d="M 1415.0,693.0 L 1419.0,693.0 L 1403.0,693.0 C 1408.22,684.379 1425.25,685.199 1434.0,682.63 C 1460.37,674.887 1483.62,672.312 1511.0,676.59 C 1522.1,678.324 1533.14,680.544 1544.0,683.371 C 1549.5,684.804 1555.41,687.701 1561.0,686.0 C 1547.79,676.221 1529.77,671.079 1514.0,667.13 C 1510.96,666.37 1498.55,665.008 1501.0,661.0 L 1502.0,661.0 L 1503.0,661.0 L 1504.0,661.0" style="stroke:#010101; fill:none;"/>
	<path d="M 1480.0,662.0 L 1499.0,662.0" style="stroke:#010101; fill:none;"/>
	<path d="M 1901.0,667.0 L 1910.0,662.0" style="stroke:#010101; fill:none;"/>
	<path d="M 971.0,673.0 C 956.18,687.861 945.392,706.543 933.921,724.0 C 925.264,737.175 915.435,750.088 908.0,764.0" style="stroke:#010101; fill:none;"/>
	<path d="M 1997.0,674.0 C 2017.44,704.992 2032.86,744.288 2042.79,780.0 C 2046.76,794.31 2023.39,799.271 2035.0,813.0 L 2044.0,806.0 L 2036.0,798.0" style="stroke:#010101; fill:none;"/>
	<path d="M 1443.0,677.0 L 1455.0,675.0" style="stroke:#010101; fill:none;"/>
	<path d="M 1572.0,677.0 L 1570.0,679.0" style="stroke:#010101; fill:none;"/>
	<path d="M 1576.0,681.0 L 1590.0,695.0" style="stroke:#010101; fill:none;"/>
	<path d="M 1436.0,683.0 L 1467.0,684.0 L 1466.0,682.0" style="stroke:#010101; fill:none;"/>
	<path d="M 1468.0,683.0 C 1498.39,680.6 1528.68,684.68 1558.0,693.0" style="stroke:#010101; fill:none;"/>
	<path d="M 1376.0,687.0 L 1375.0,690.0 L 1373.0,686.0 L 1382.0,683.0" style="stroke:#010101; fill:none;"/>
	<path d="M 1381.0,685.0 L 1379.0,688.0" style="stroke:#010101; fill:none;"/>
	<path d="M 1420.0,693.0 L 1465.0,684.0" style="stroke:#010101; fill:none;"/>
	<path d="M 1368.0,687.0 L 1372.0,688.0 C 1368.79,690.153 1367.49,690.702 1364.0,689.0 L 1367.0,689.0" style="stroke:#010101; fill:none;"/>
	<path d="M 1562.0,686.0 L 1565.0,691.0" style="stroke:#010101; fill:none;"/>
	<path d="M 1374.0,687.0 L 1376.0,687.0" style="stroke:#010101; fill:none;"/>
	<path d="M 1343.0,702.0 L 1339.0,702.0 L 1353.97,696.726 L 1364.0,689.0" style="stroke:#010101; fill:none;"/>
	<path d="M 1561.0,689.0 L 1563.0,688.0" style="stroke:#010101; fill:none;"/>
	<path d="M 1445.0,690.0 C 1456.01,692.155 1467.82,690.741 1479.0,691.015 C 1498.68,691.496 1519.88,693.055 1539.0,698.0" style="stroke:#010101; fill:none;"/>
	<path d="M 1584.0,690.0 L 1583.0,695.0" style="stroke:#010101; fill:none;"/>
	<path d="M 1366.0,691.0 L 1359.0,694.0" style="stroke:#010101; fill:none;"/>
	<path d="M 1221.0,776.0 C 1246.73,754.049 1276.27,734.39 1306.0,718.309 C 1313.36,714.325 1328.86,702.127 1337.0,705.0 C 1331.61,710.833 1319.97,712.755 1318.0,721.0 L 1403.0,691.0" style="stroke:#010101; fill:none;"/>
	<path d="M 1347.0,698.0 L 1358.0,692.0" style="stroke:#010101; fill:none;"/>
	<path d="M 1400.0,692.0 L 1402.0,694.0" style="stroke:#010101; fill:none;"/>
	<path d="M 1497.0,704.0 L 1426.0,702.065 L 1387.0,705.0 C 1392.83,699.47 1406.12,697.062 1414.0,696.0" style="stroke:#010101; fill:none;"/>
	<path d="M 1344.0,699.0 L 1347.0,698.0" style="stroke:#010101; fill:none;"/>
	<path d="M 1336.0,703.0 L 1339.0,702.0" style="stroke:#010101; fill:none;"/>
	<path d="M 1340.0,704.0 L 1338.0,706.0" style="stroke:#010101; fill:none;"/>
	<path d="M 1386.0,704.0 C 1378.31,708.128 1368.3,709.598 1360.0,712.811 C 1337.39,721.569 1314.8,730.605 1293.0,741.259 C 1277.9,748.64 1261.79,764.836 1245.0,767.0 L 1248.0,768.0" style="stroke:#010101; fill:none;"/>
	<path d="M 1436.0,712.0 L 1398.0,713.0 C 1404.54,707.639 1418.67,706.121 1427.0,705.0" style="stroke:#010101; fill:none;"/>
	<path d="M 1261.0,765.0 C 1302.31,737.756 1351.62,726.504 1398.0,712.0" style="stroke:#010101; fill:none;"/>
	<path d="M 1396.0,714.0 L 1397.0,714.0" style="stroke:#010101; fill:none;"/>
	<path d="M 1317.0,722.0 L 1315.0,722.0 L 1317.0,719.0" style="stroke:#010101; fill:none;"/>
	<path d="M 1246.0,766.0 L 1287.0,738.333 L 1315.0,721.0" style="stroke:#010101; fill:none;"/>
	<path d="M 1338.0,736.0 L 1340.0,738.0 C 1340.93,733.633 1347.15,732.862 1351.0,731.412 C 1362.52,727.071 1375.79,721.599 1388.0,720.0" style="stroke:#010101; fill:none;"/>
	<path d="M 1313.0,723.0 L 1314.0,723.0" style="stroke:#010101; fill:none;"/>
	<path d="M 1229.0,788.0 L 1291.0,755.895 L 1337.0,737.0" style="stroke:#010101; fill:none;"/>
	<path d="M 1211.0,803.0 L 1207.0,804.0 C 1248.85,778.932 1293.83,759.662 1338.0,739.0" style="stroke:#010101; fill:none;"/>
	<path d="M 2003.0,762.0 C 2004.2,768.419 2003.14,777.173 2009.0,781.0 L 1996.0,802.0 C 2009.03,809.247 2022.05,789.085 2010.0,781.0" style="stroke:#010101; fill:none;"/>
	<path d="M 933.0,765.0 L 901.0,819.0" style="stroke:#010101; fill:none;"/>
	<path d="M 1245.0,768.0 L 1216.0,797.0" style="stroke:#010101; fill:none;"/>
	<path d="M 2024.0,771.0 C 2023.98,777.011 2024.0,786.304 2016.0,785.0 L 2016.0,785.0" style="stroke:#010101; fill:none;"/>
	<path d="M 1897.0,894.0 C 1880.43,893.224 1899.67,866.818 1903.45,862.0 C 1912.37,850.599 1915.78,833.864 1923.45,821.0 C 1932.58,805.705 1947.35,795.018 1963.0,787.248 C 1972.12,782.719 2003.24,769.512 2002.0,788.0" style="stroke:#010101; fill:none;"/>
	<path d="M 2017.0,779.0 L 2015.0,783.0" style="stroke:#010101; fill:none;"/>
	<path d="M 1263.0,781.0 L 1217.0,806.435 L 1192.0,823.0 L 1209.0,805.0" style="stroke:#010101; fill:none;"/>
	<path d="M 2033.0,783.0 C 2031.34,789.941 2028.84,792.759 2035.0,798.0" style="stroke:#010101; fill:none;"/>
	<path d="M 2045.0,806.0 L 2055.71,799.578 L 2068.0,785.0" style="stroke:#010101; fill:none;"/>
	<path d="M 2021.0,786.0 L 2029.0,793.0 L 2014.0,809.0 C 2021.09,814.635 2030.75,808.676 2024.0,801.0" style="stroke:#010101; fill:none;"/>
	<path d="M 2020.0,787.0 L 2016.0,791.0" style="stroke:#010101; fill:none;"/>
	<path d="M 2045.0,788.0 L 2050.0,798.0 L 2054.0,793.0" style="stroke:#010101; fill:none;"/>
	<path d="M 2083.0,791.0 C 2078.11,800.318 2075.19,808.507 2071.43,818.0 C 2069.85,821.994 2066.11,826.85 2065.5,830.985 C 2064.84,835.403 2070.56,838.319 2070.35,843.001 C 2070.15,847.648 2060.4,852.756 2064.62,857.467 C 2069.65,863.085 2077.49,852.823 2073.0,847.0 L 2062.0,856.0" style="stroke:#010101; fill:none;"/>
	<path d="M 2096.0,794.0 L 2099.0,794.0" style="stroke:#010101; fill:none;"/>
	<path d="M 2052.0,796.0 L 2056.0,800.0" style="stroke:#010101; fill:none;"/>
	<path d="M 2097.0,796.0 C 2089.25,802.91 2084.76,811.443 2074.0,814.0" style="stroke:#010101; fill:none;"/>
	<path d="M 1213.0,799.0 L 1216.0,797.0" style="stroke:#010101; fill:none;"/>
	<path d="M 2017.0,798.0 L 2019.0,803.0" style="stroke:#010101; fill:none;"/>
	<path d="M 2050.0,798.0 L 2049.0,801.0" style="stroke:#010101; fill:none;"/>
	<path d="M 1210.0,801.0 L 1213.0,799.0" style="stroke:#010101; fill:none;"/>
	<path d="M 1953.0,822.0 L 1947.0,823.0 C 1958.07,807.618 1979.36,806.678 1996.0,802.0" style="stroke:#010101; fill:none;"/>
	<path d="M 2028.0,802.0 L 2030.0,802.0" style="stroke:#010101; fill:none;"/>
	<path d="M 2105.0,803.0 L 2095.0,821.0 L 2112.0,807.0" style="stroke:#010101; fill:none;"/>
	<path d="M 1200.0,809.0 L 1207.0,804.0" style="stroke:#010101; fill:none;"/>
	<path d="M 2006.0,806.0 L 2014.0,809.0" style="stroke:#010101; fill:none;"/>
	<path d="M 1592.0,811.0 C 1592.0,823.593 1587.66,834.948 1580.0,845.0 C 1573.03,838.787 1574.32,834.404 1577.0,826.0" style="stroke:#010101; fill:none;"/>
	<path d="M 2022.0,813.0 C 2023.29,821.493 2023.25,824.683 2033.0,827.0 L 2035.0,814.0" style="stroke:#010101; fill:none;"/>
	<path d="M 2098.0,813.0 L 2102.0,817.0" style="stroke:#010101; fill:none;"/>
	<path d="M 2024.0,815.0 L 2034.0,815.0" style="stroke:#010101; fill:none;"/>
	<path d="M 2000.0,819.0 C 2014.22,833.518 2020.53,850.948 2018.0,871.0" style="stroke:#010101; fill:none;"/>
	<path d="M 2038.0,820.0 C 2049.2,818.114 2053.47,830.044 2064.0,831.0" style="stroke:#010101; fill:none;"/>
	<path d="M 1518.0,820.0 C 1519.46,827.074 1521.18,834.732 1520.54,842.0 C 1519.79,850.454 1515.72,860.656 1521.0,868.0 C 1534.37,855.163 1536.32,838.83 1536.0,821.0" style="stroke:#010101; fill:none;"/>
	<path d="M 2038.0,820.0 L 2039.0,830.0 L 2033.0,827.0" style="stroke:#010101; fill:none;"/>
	<path d="M 1493.0,821.0 L 1497.0,840.0 C 1512.35,837.023 1529.28,833.139 1545.0,834.325 C 1554.72,835.058 1563.77,839.043 1573.0,840.0" style="stroke:#010101; fill:none;"/>
	<path d="M 1948.0,821.0 L 1950.0,823.0" style="stroke:#010101; fill:none;"/>
	<path d="M 2095.0,821.0 L 2069.0,836.0" style="stroke:#010101; fill:none;"/>
	<path d="M 1946.0,822.0 C 1936.57,834.223 1923.3,843.663 1911.0,853.0" style="stroke:#010101; fill:none;"/>
	<path d="M 1191.0,825.0 L 1189.0,826.0 L 1191.0,824.0" style="stroke:#010101; fill:none;"/>
	<path d="M 1188.0,827.0 L 1189.0,825.0" style="stroke:#010101; fill:none;"/>
	<path d="M 2015.0,824.0 C 2026.21,835.292 2038.49,848.343 2043.0,864.0" style="stroke:#010101; fill:none;"/>
	<path d="M 1948.0,825.0 L 1945.0,827.0" style="stroke:#010101; fill:none;"/>
	<path d="M 1170.0,839.0 L 1186.0,828.0" style="stroke:#010101; fill:none;"/>
	<path d="M 2056.0,829.0 C 2050.41,834.121 2046.81,833.176 2040.0,831.0" style="stroke:#010101; fill:none;"/>
	<path d="M 1941.0,830.0 L 1943.0,836.0" style="stroke:#010101; fill:none;"/>
	<path d="M 1970.0,840.0 C 1972.14,834.634 1975.73,833.5 1981.0,832.0 C 1984.98,841.71 1992.21,848.505 1990.81,860.0 C 1989.7,869.084 1977.32,875.127 1970.39,867.772 C 1966.07,863.185 1963.18,838.441 1973.0,843.0 L 1973.0,844.0 L 1973.0,845.0" style="stroke:#010101; fill:none;"/>
	<path d="M 2064.0,832.0 C 2058.77,837.233 2051.59,842.167 2051.0,850.0" style="stroke:#010101; fill:none;"/>
	<path d="M 1939.0,833.0 L 1935.67,864.0 L 1947.0,886.0 C 1980.31,881.791 2010.79,883.815 2041.0,866.0" style="stroke:#010101; fill:none;"/>
	<path d="M 1484.0,836.0 C 1484.99,842.995 1486.81,849.889 1486.99,857.0 C 1487.21,866.184 1484.41,875.85 1491.0,883.0 C 1488.86,885.074 1486.82,887.279 1484.0,888.417 C 1464.28,896.362 1472.27,877.327 1470.57,865.0 C 1469.93,860.317 1469.51,849.266 1462.07,852.052 C 1457.12,853.903 1459.79,859.258 1460.55,863.0 C 1462.0,870.116 1460.32,894.021 1471.0,893.0" style="stroke:#010101; fill:none;"/>
	<path d="M 1554.0,836.0 C 1553.61,845.017 1542.08,859.917 1544.78,867.682 C 1546.13,871.573 1554.92,871.437 1557.18,868.759 C 1563.83,860.9 1569.6,851.391 1571.0,841.0" style="stroke:#010101; fill:none;"/>
	<path d="M 2103.0,838.0 L 2077.0,851.0" style="stroke:#010101; fill:none;"/>
	<path d="M 1512.0,839.0 L 1509.8,860.0 L 1509.12,869.643 L 1518.0,872.042 L 1526.0,881.0 L 1545.71,880.227 L 1555.0,872.0" style="stroke:#010101; fill:none;"/>
	<path d="M 902.0,841.0 L 885.0,874.0" style="stroke:#010101; fill:none;"/>
	<path d="M 1475.0,841.0 C 1477.2,850.399 1477.44,860.382 1476.93,870.0 C 1476.56,877.135 1474.14,882.943 1479.0,889.0" style="stroke:#010101; fill:none;"/>
	<path d="M 1486.0,843.0 L 1496.0,841.0" style="stroke:#010101; fill:none;"/>
	<path d="M 1602.0,841.0 L 1579.98,865.714 L 1572.91,874.749 L 1563.0,874.0 C 1566.31,882.475 1577.91,885.284 1586.0,888.0 L 1584.0,879.0 C 1595.59,870.061 1605.41,864.633 1614.0,852.0" style="stroke:#010101; fill:none;"/>
	<path d="M 1497.0,842.0 C 1496.98,850.904 1492.87,860.37 1493.41,869.0 C 1494.24,882.181 1509.29,885.717 1519.0,882.0 L 1512.0,872.0" style="stroke:#010101; fill:none;"/>
	<path d="M 2070.0,842.0 C 2066.02,845.984 2060.14,849.921 2061.0,856.0" style="stroke:#010101; fill:none;"/>
	<path d="M 1477.0,845.0 L 1485.0,844.0" style="stroke:#010101; fill:none;"/>
	<path d="M 1582.0,844.0 L 1592.0,853.0" style="stroke:#010101; fill:none;"/>
	<path d="M 2115.0,844.0 C 2106.87,849.649 2085.07,863.682 2077.0,854.0" style="stroke:#010101; fill:none;"/>
	<path d="M 1466.0,851.0 L 1476.0,846.0" style="stroke:#010101; fill:none;"/>
	<path d="M 1580.0,846.0 L 1568.0,854.0" style="stroke:#010101; fill:none;"/>
	<path d="M 2073.0,846.0 L 2073.0,847.0" style="stroke:#010101; fill:none;"/>
	<path d="M 2121.0,851.0 C 2113.26,855.516 2100.93,862.364 2093.0,856.0" style="stroke:#010101; fill:none;"/>
	<path d="M 1592.0,853.0 L 1603.0,867.0" style="stroke:#010101; fill:none;"/>
	<path d="M 1416.0,926.0 L 1414.0,928.0 L 1404.08,921.611 L 1387.0,901.0 C 1408.63,883.848 1431.99,865.854 1457.0,854.0" style="stroke:#010101; fill:none;"/>
	<path d="M 1446.0,863.0 L 1451.91,889.0 L 1453.0,906.0 C 1448.46,911.028 1435.59,928.204 1428.02,927.231 C 1423.68,926.673 1422.19,920.115 1420.28,917.0 C 1414.51,907.617 1408.45,899.578 1403.0,890.0" style="stroke:#010101; fill:none;"/>
	<path d="M 1591.0,863.0 C 1587.52,865.081 1585.72,865.743 1582.0,864.0" style="stroke:#010101; fill:none;"/>
	<path d="M 1628.0,863.0 L 1619.0,873.0 C 1622.76,873.571 1623.63,872.418 1622.0,869.0" style="stroke:#010101; fill:none;"/>
	<path d="M 1604.0,865.0 L 1607.0,870.0 L 1603.0,867.0" style="stroke:#010101; fill:none;"/>
	<path d="M 1631.0,867.0 L 1626.0,872.0" style="stroke:#010101; fill:none;"/>
	<path d="M 1566.0,873.0 L 1577.0,868.0" style="stroke:#010101; fill:none;"/>
	<path d="M 1521.0,869.0 L 1519.0,871.0" style="stroke:#010101; fill:none;"/>
	<path d="M 2066.0,869.0 L 2071.0,871.0" style="stroke:#010101; fill:none;"/>
	<path d="M 1520.0,870.0 C 1526.83,874.907 1535.22,870.984 1543.0,870.0" style="stroke:#010101; fill:none;"/>
	<path d="M 1638.0,870.0 C 1625.22,882.776 1612.99,888.316 1598.0,897.0 L 1586.0,888.0" style="stroke:#010101; fill:none;"/>
	<path d="M 1557.0,871.0 L 1563.0,874.0" style="stroke:#010101; fill:none;"/>
	<path d="M 1608.0,871.0 C 1611.47,875.655 1614.18,876.235 1619.0,873.0" style="stroke:#010101; fill:none;"/>
	<path d="M 1492.0,872.0 C 1493.22,876.333 1495.5,879.228 1500.0,880.0" style="stroke:#010101; fill:none;"/>
	<path d="M 1500.0,879.0 L 1509.0,872.0" style="stroke:#010101; fill:none;"/>
	<path d="M 1472.0,874.0 L 1476.0,874.0" style="stroke:#010101; fill:none;"/>
	<path d="M 1530.0,874.0 L 1530.0,878.0" style="stroke:#010101; fill:none;"/>
	<path d="M 1577.0,874.0 L 1583.0,879.0" style="stroke:#010101; fill:none;"/>
	<path d="M 884.0,876.0 L 884.0,877.0" style="stroke:#010101; fill:none;"/>
	<path d="M 1575.0,877.0 L 1576.0,877.0" style="stroke:#010101; fill:none;"/>
	<path d="M 1613.0,877.0 L 1596.0,892.0" style="stroke:#010101; fill:none;"/>
	<path d="M 1473.0,878.0 L 1475.0,878.0" style="stroke:#010101; fill:none;"/>
	<path d="M 1603.0,887.0 L 1599.0,882.0 L 1607.0,882.0" style="stroke:#010101; fill:none;"/>
	<path d="M 2038.0,880.0 L 2052.0,881.0" style="stroke:#010101; fill:none;"/>
	<path d="M 1471.0,881.0 L 1475.0,885.0" style="stroke:#010101; fill:none;"/>
	<path d="M 1519.0,882.0 L 1524.0,881.0" style="stroke:#010101; fill:none;"/>
	<path d="M 1491.0,883.0 L 1497.0,881.0" style="stroke:#010101; fill:none;"/>
	<path d="M 1548.0,882.0 C 1563.27,887.79 1576.47,912.684 1575.72,929.0 C 1575.49,934.101 1571.77,938.37 1570.0,943.0 C 1582.43,946.675 1601.01,942.945 1606.3,930.0 C 1607.68,926.626 1605.82,923.357 1605.3,920.0 C 1603.8,910.131 1605.14,906.251 1598.0,898.0" style="stroke:#010101; fill:none;"/>
	<path d="M 1587.0,884.0 L 1599.0,882.0" style="stroke:#010101; fill:none;"/>
	<path d="M 1590.0,885.0 L 1590.0,889.0" style="stroke:#010101; fill:none;"/>
	<path d="M 2033.0,886.0 L 2046.0,888.0" style="stroke:#010101; fill:none;"/>
	<path d="M 2071.0,886.0 C 2081.8,897.056 2087.21,912.347 2091.36,927.0 C 2092.57,931.254 2095.97,936.522 2095.32,941.0 C 2094.03,949.846 2085.87,958.183 2082.0,966.0" style="stroke:#010101; fill:none;"/>
	<path d="M 1903.0,898.0 C 1919.23,899.146 1931.28,892.347 1946.0,887.0" style="stroke:#010101; fill:none;"/>
	<path d="M 1383.0,888.0 C 1384.19,892.356 1387.24,897.664 1384.46,901.961 C 1380.83,907.577 1365.25,912.881 1365.35,920.015 C 1365.57,936.343 1392.55,934.707 1402.0,934.912 C 1408.54,935.054 1409.36,940.689 1416.0,936.0 L 1410.0,927.0" style="stroke:#010101; fill:none;"/>
	<path d="M 1462.0,889.0 C 1461.02,895.012 1464.54,897.934 1470.0,895.0" style="stroke:#010101; fill:none;"/>
	<path d="M 1486.0,889.0 C 1490.34,895.425 1485.96,901.195 1484.52,908.0 C 1483.27,913.894 1483.57,921.151 1484.89,927.0 C 1486.25,933.042 1487.88,939.732 1491.33,944.961 C 1506.8,968.405 1548.02,950.709 1569.0,944.0" style="stroke:#010101; fill:none;"/>
	<path d="M 2019.0,891.0 L 2035.0,896.0" style="stroke:#010101; fill:none;"/>
	<path d="M 1427.0,891.0 L 1441.0,917.0" style="stroke:#010101; fill:none;"/>
	<path d="M 1987.0,895.0 L 2009.0,891.0" style="stroke:#010101; fill:none;"/>
	<path d="M 2015.0,892.0 L 2019.0,899.0" style="stroke:#010101; fill:none;"/>
	<path d="M 1382.0,893.0 L 1384.0,896.0" style="stroke:#010101; fill:none;"/>
	<path d="M 1448.0,893.0 L 1450.0,902.0" style="stroke:#010101; fill:none;"/>
	<path d="M 1533.0,896.549 C 1537.74,895.652 1539.71,898.742 1540.53,903.001 C 1542.15,911.443 1547.73,933.225 1535.0,935.461 C 1527.34,936.807 1518.39,926.815 1517.22,920.0 C 1515.23,908.289 1520.93,898.827 1533.0,896.549" style="stroke:#010101; fill:none;"/>
	<path d="M 1384.0,897.0 L 1385.0,898.0" style="stroke:#010101; fill:none;"/>
	<path d="M 1411.0,897.0 L 1412.0,906.0" style="stroke:#010101; fill:none;"/>
	<path d="M 1974.0,897.0 L 1976.0,899.0" style="stroke:#010101; fill:none;"/>
	<path d="M 1463.0,899.0 L 1454.0,906.0" style="stroke:#010101; fill:none;"/>
	<path d="M 1957.0,909.0 L 1959.0,899.0 L 1962.0,901.0" style="stroke:#010101; fill:none;"/>
	<path d="M 1991.0,901.0 L 1992.0,901.0" style="stroke:#010101; fill:none;"/>
	<path d="M 1945.0,902.0 L 1941.0,907.0" style="stroke:#010101; fill:none;"/>
	<path d="M 1440.0,903.0 L 1444.0,915.0" style="stroke:#010101; fill:none;"/>
	<path d="M 1665.0,904.0 L 1679.0,937.0" style="stroke:#010101; fill:none;"/>
	<path d="M 1441.0,905.0 L 1449.0,911.0" style="stroke:#010101; fill:none;"/>
	<path d="M 1897.0,908.0 L 1897.0,909.0" style="stroke:#010101; fill:none;"/>
	<path d="M 1608.0,910.0 C 1611.92,914.293 1617.93,920.656 1624.0,919.0 L 1620.0,916.0" style="stroke:#010101; fill:none;"/>
	<path d="M 1897.0,911.0 L 1901.0,918.0" style="stroke:#010101; fill:none;"/>
	<path d="M 1359.0,913.0 L 1364.0,920.0" style="stroke:#010101; fill:none;"/>
	<path d="M 1414.0,918.0 L 1427.0,929.0" style="stroke:#010101; fill:none;"/>
	<path d="M 1363.0,919.0 L 1352.0,929.0" style="stroke:#010101; fill:none;"/>
	<path d="M 1625.0,919.0 L 1627.0,921.0 L 1623.0,921.0" style="stroke:#010101; fill:none;"/>
	<path d="M 1627.0,922.0 C 1629.01,923.641 1631.13,925.227 1632.95,927.094 C 1638.79,933.11 1634.06,937.352 1628.0,940.647 C 1619.85,945.082 1608.01,943.0 1599.0,943.0" style="stroke:#010101; fill:none;"/>
	<path d="M 1417.0,928.0 C 1420.33,930.9 1421.95,932.056 1426.0,930.0" style="stroke:#010101; fill:none;"/>
	<path d="M 1415.0,929.0 L 1413.0,931.0" style="stroke:#010101; fill:none;"/>
	<path d="M 1406.0,934.0 L 1412.0,938.0" style="stroke:#010101; fill:none;"/>
	<path d="M 1422.0,934.0 L 1416.0,936.0" style="stroke:#010101; fill:none;"/>
	<path d="M 1411.0,940.0 L 1382.0,957.0 C 1394.01,969.889 1416.67,967.194 1433.0,965.158 C 1435.73,964.818 1446.77,967.366 1447.5,965.683 C 1449.24,961.716 1443.29,963.401 1442.0,964.0" style="stroke:#010101; fill:none;"/>
	<path d="M 1326.0,941.0 C 1334.06,945.707 1343.58,950.016 1353.0,950.896 C 1364.72,951.99 1372.89,948.0 1382.0,957.0" style="stroke:#010101; fill:none;"/>
	<path d="M 2096.0,943.0 C 2101.01,951.145 2103.23,960.872 2108.59,969.0 C 2135.53,1009.81 2167.67,1046.9 2192.8,1089.0 C 2205.53,1110.34 2222.6,1135.89 2226.0,1161.0" style="stroke:#010101; fill:none;"/>
	<path d="M 1377.0,949.0 L 1386.0,952.0" style="stroke:#010101; fill:none;"/>
	<path d="M 1560.0,953.0 L 1564.0,953.0" style="stroke:#010101; fill:none;"/>
	<path d="M 1573.0,953.0 L 1575.0,954.0" style="stroke:#010101; fill:none;"/>
	<path d="M 1307.0,986.0 C 1333.74,982.547 1354.45,963.055 1380.0,957.0" style="stroke:#010101; fill:none;"/>
	<path d="M 1507.0,957.0 L 1505.0,959.0 L 1510.0,962.0" style="stroke:#010101; fill:none;"/>
	<path d="M 1448.0,962.0 L 1464.0,960.83 L 1505.0,959.0" style="stroke:#010101; fill:none;"/>
	<path d="M 1453.0,963.0 L 1451.0,973.0" style="stroke:#010101; fill:none;"/>
	<path d="M 1540.0,964.0 L 1540.0,965.0" style="stroke:#010101; fill:none;"/>
	<path d="M 1992.0,964.0 L 2018.0,969.424 L 2068.0,974.0" style="stroke:#010101; fill:none;"/>
	<path d="M 1391.0,965.0 L 1391.0,969.0 C 1383.44,969.25 1379.72,976.186 1378.0,983.0" style="stroke:#010101; fill:none;"/>
	<path d="M 1449.0,965.0 L 1451.0,965.0" style="stroke:#010101; fill:none;"/>
	<path d="M 1529.0,965.0 L 1528.0,967.0" style="stroke:#010101; fill:none;"/>
	<path d="M 1517.0,966.0 L 1516.0,972.0" style="stroke:#010101; fill:none;"/>
	<path d="M 1394.0,967.0 L 1388.0,977.0" style="stroke:#010101; fill:none;"/>
	<path d="M 1465.0,974.0 L 1470.0,967.0" style="stroke:#010101; fill:none;"/>
	<path d="M 1500.0,967.0 L 1499.0,970.0" style="stroke:#010101; fill:none;"/>
	<path d="M 1383.0,969.0 L 1385.0,969.0" style="stroke:#010101; fill:none;"/>
	<path d="M 1410.0,968.0 L 1405.0,975.0" style="stroke:#010101; fill:none;"/>
	<path d="M 1426.0,968.0 L 1423.0,976.0" style="stroke:#010101; fill:none;"/>
	<path d="M 1445.0,968.0 L 1441.0,974.0" style="stroke:#010101; fill:none;"/>
	<path d="M 1369.0,981.0 C 1371.95,975.312 1376.56,970.3 1383.0,969.0" style="stroke:#010101; fill:none;"/>
	<path d="M 1486.0,969.0 L 1481.0,975.0" style="stroke:#010101; fill:none;"/>
	<path d="M 1611.0,1008.0 C 1566.56,1048.93 1510.58,1053.0 1453.0,1053.0" style="stroke:#010101; fill:none;"/>
	<path d="M 876.0,1019.0 L 876.0,1023.0" style="stroke:#010101; fill:none;"/>
	<path d="M 875.0,1025.0 L 872.0,1072.0" style="stroke:#010101; fill:none;"/>
	<path d="M 876.0,1077.0 L 873.0,1082.0" style="stroke:#010101; fill:none;"/>
	<path d="M 1938.0,1113.0 C 1920.54,1130.46 1901.44,1145.21 1881.0,1159.0" style="stroke:#010101; fill:none;"/>
	<path d="M 1766.0,1197.0 C 1770.12,1166.54 1796.68,1128.85 1825.0,1117.0" style="stroke:#010101; fill:none;"/>
	<path d="M 874.0,1147.0 L 874.0,1148.0" style="stroke:#010101; fill:none;"/>
	<path d="M 889.0,1149.0 L 876.0,1167.0 L 874.0,1154.0" style="stroke:#010101; fill:none;"/>
	<path d="M 2071.0,1156.0 C 2066.38,1173.81 2057.2,1186.83 2049.15,1203.0 C 2044.37,1212.61 2038.85,1222.65 2027.0,1224.0 L 2027.0,1225.0 L 2030.0,1225.0" style="stroke:#010101; fill:none;"/>
	<path d="M 2074.0,1163.0 C 2078.98,1185.89 2059.63,1209.36 2047.0,1226.0" style="stroke:#010101; fill:none;"/>
	<path d="M 876.0,1167.0 L 877.0,1181.0 L 882.0,1174.0" style="stroke:#010101; fill:none;"/>
	<path d="M 2230.0,1173.0 L 2245.0,1222.0" style="stroke:#010101; fill:none;"/>
	<path d="M 887.0,1175.0 L 883.0,1190.0" style="stroke:#010101; fill:none;"/>
	<path d="M 1924.0,1187.0 C 1925.55,1192.44 1920.14,1191.84 1918.0,1188.0 C 1924.91,1187.05 1924.95,1182.47 1930.19,1179.42 C 1935.87,1176.11 1945.57,1176.1 1952.0,1176.02 C 1955.15,1175.98 1957.94,1176.62 1961.0,1177.23 C 1964.17,1177.86 1968.03,1177.1 1970.85,1178.92 C 1985.81,1188.6 1958.89,1208.71 1952.0,1213.0" style="stroke:#010101; fill:none;"/>
	<path d="M 1920.0,1187.0 C 1920.8,1182.76 1921.88,1181.36 1926.0,1180.0" style="stroke:#010101; fill:none;"/>
	<path d="M 1878.0,1213.0 C 1889.77,1201.23 1902.48,1185.16 1920.0,1182.0" style="stroke:#010101; fill:none;"/>
	<path d="M 1941.0,1182.0 L 1924.0,1199.08 L 1901.0,1212.39 L 1877.0,1226.0" style="stroke:#010101; fill:none;"/>
	<path d="M 887.0,1187.0 L 888.0,1202.0" style="stroke:#010101; fill:none;"/>
	<path d="M 1927.0,1190.0 L 1932.0,1188.0" style="stroke:#010101; fill:none;"/>
	<path d="M 1922.0,1189.0 C 1920.89,1198.99 1909.94,1203.96 1903.0,1210.0" style="stroke:#010101; fill:none;"/>
	<path d="M 1919.0,1191.0 L 1871.0,1224.0" style="stroke:#010101; fill:none;"/>
	<path d="M 1917.0,1194.0 L 1919.0,1196.0" style="stroke:#010101; fill:none;"/>
	<path d="M 1892.0,1248.0 C 1888.33,1248.87 1884.78,1249.08 1881.0,1248.99 C 1846.13,1248.09 1870.83,1205.36 1890.0,1199.0" style="stroke:#010101; fill:none;"/>
	<path d="M 1884.0,1202.0 L 1886.0,1204.0" style="stroke:#010101; fill:none;"/>
	<path d="M 888.0,1204.0 L 889.0,1207.0" style="stroke:#010101; fill:none;"/>
	<path d="M 2028.0,1223.0 L 2047.0,1205.0" style="stroke:#010101; fill:none;"/>
	<path d="M 915.0,1206.0 C 915.0,1247.99 919.051,1290.53 925.92,1332.0 C 928.885,1349.9 930.986,1369.92 937.256,1387.0 C 940.171,1394.94 945.712,1402.1 949.0,1410.0" style="stroke:#010101; fill:none;"/>
	<path d="M 889.0,1209.0 L 889.0,1210.0" style="stroke:#010101; fill:none;"/>
	<path d="M 908.0,1209.0 L 907.0,1215.0" style="stroke:#010101; fill:none;"/>
	<path d="M 2043.0,1209.0 L 2045.0,1211.0" style="stroke:#010101; fill:none;"/>
	<path d="M 1902.0,1211.0 L 1905.0,1212.0" style="stroke:#010101; fill:none;"/>
	<path d="M 2041.0,1211.0 L 2043.0,1213.0" style="stroke:#010101; fill:none;"/>
	<path d="M 1901.0,1214.0 L 1903.0,1213.0" style="stroke:#010101; fill:none;"/>
	<path d="M 896.0,1221.0 L 898.0,1220.0" style="stroke:#010101; fill:none;"/>
	<path d="M 2030.0,1221.0 L 2032.0,1223.0" style="stroke:#010101; fill:none;"/>
	<path d="M 2027.0,1225.0 L 2017.0,1234.0 L 2020.0,1234.0" style="stroke:#010101; fill:none;"/>
	<path d="M 2013.0,1235.0 L 2016.0,1233.0" style="stroke:#010101; fill:none;"/>
	<path d="M 955.0,1328.0 L 957.0,1365.0 C 952.633,1354.85 951.529,1342.83 949.576,1332.0 C 945.794,1311.04 942.104,1290.19 939.834,1269.0 C 938.674,1258.17 934.865,1244.61 938.0,1234.0 L 941.0,1243.0" style="stroke:#010101; fill:none;"/>
	<path d="M 2017.0,1235.0 C 2008.83,1243.9 1999.4,1255.22 1996.0,1267.0" style="stroke:#010101; fill:none;"/>
	<path d="M 1777.0,1248.0 C 1778.89,1257.38 1788.4,1262.41 1797.0,1264.62 C 1815.64,1269.41 1835.11,1266.0 1854.0,1266.0" style="stroke:#010101; fill:none;"/>
	<path d="M 909.0,1260.0 C 909.003,1288.46 912.915,1325.27 923.0,1352.0" style="stroke:#010101; fill:none;"/>
	<path d="M 2000.0,1271.0 C 2006.66,1283.84 2020.84,1289.52 2034.0,1293.0" style="stroke:#010101; fill:none;"/>
	<path d="M 2088.0,1345.0 C 2104.03,1338.37 2129.55,1357.16 2142.0,1366.0" style="stroke:#010101; fill:none;"/>
	<path d="M 1749.0,1503.0 C 1791.19,1471.73 1835.76,1445.56 1881.0,1418.99 C 1905.27,1404.73 1928.89,1387.15 1955.0,1376.35 C 1993.39,1360.46 2035.67,1357.28 2075.0,1344.0" style="stroke:#010101; fill:none;"/>
	<path d="M 957.0,1365.0 L 958.0,1370.0 L 959.0,1365.0" style="stroke:#010101; fill:none;"/>
	<path d="M 958.0,1370.0 L 959.0,1374.0 L 960.0,1370.0" style="stroke:#010101; fill:none;"/>
	<path d="M 959.0,1374.0 L 963.0,1380.0 L 960.0,1384.0 C 966.165,1389.06 966.919,1396.7 969.191,1404.0 C 973.254,1417.05 977.461,1430.5 983.0,1443.0" style="stroke:#010101; fill:none;"/>
	<path d="M 961.0,1374.0 L 961.0,1377.0" style="stroke:#010101; fill:none;"/>
	<path d="M 2149.0,1375.0 C 2154.24,1388.26 2154.0,1400.99 2154.0,1415.0" style="stroke:#010101; fill:none;"/>
	<path d="M 959.0,1379.0 L 961.0,1382.0" style="stroke:#010101; fill:none;"/>
	<path d="M 963.0,1382.0 L 964.0,1384.0" style="stroke:#010101; fill:none;"/>
	<path d="M 962.0,1387.0 L 972.0,1429.0" style="stroke:#010101; fill:none;"/>
	<path d="M 939.0,1393.0 L 940.0,1401.0" style="stroke:#010101; fill:none;"/>
	<path d="M 1860.0,1480.0 C 1870.89,1476.0 1882.78,1474.8 1894.0,1471.85 C 1915.91,1466.07 1937.63,1459.5 1960.0,1455.46 C 1999.56,1448.33 2041.87,1444.28 2080.0,1431.44 C 2089.15,1428.36 2097.53,1420.65 2107.0,1417.0" style="stroke:#010101; fill:none;"/>
	<path d="M 956.0,1423.0 L 957.0,1425.0" style="stroke:#010101; fill:none;"/>
	<path d="M 2145.0,1423.0 L 2131.0,1445.0" style="stroke:#010101; fill:none;"/>
	<path d="M 2247.0,1425.0 L 2247.0,1427.0" style="stroke:#010101; fill:none;"/>
	<path d="M 958.0,1428.0 L 970.0,1454.0" style="stroke:#010101; fill:none;"/>
	<path d="M 2095.0,1430.0 L 2098.0,1428.0" style="stroke:#010101; fill:none;"/>
	<path d="M 2082.0,1432.0 L 2088.0,1436.0 L 2089.0,1436.0 L 2090.0,1437.0" style="stroke:#010101; fill:none;"/>
	<path d="M 2086.0,1437.0 C 2092.78,1450.75 2121.52,1447.62 2133.91,1452.6 C 2144.2,1456.73 2154.21,1477.22 2158.0,1487.0" style="stroke:#010101; fill:none;"/>
	<path d="M 989.0,1457.0 L 1011.5,1511.0 L 1059.0,1611.0" style="stroke:#010101; fill:none;"/>
	<path d="M 1715.0,1474.0 C 1706.13,1489.26 1694.69,1520.53 1700.0,1538.0" style="stroke:#010101; fill:none;"/>
	<path d="M 1728.0,1516.0 C 1735.03,1518.1 1745.71,1521.27 1753.0,1519.61 C 1759.4,1518.15 1765.15,1512.56 1771.0,1509.6 C 1785.47,1502.29 1800.66,1495.64 1817.0,1494.0" style="stroke:#010101; fill:none;"/>
	<path d="M 2151.0,1517.0 L 2139.0,1524.0" style="stroke:#010101; fill:none;"/>
	<path d="M 2169.0,1529.0 C 2157.7,1543.7 2148.64,1558.08 2134.0,1570.0" style="stroke:#010101; fill:none;"/>
	<path d="M 1787.0,1533.0 C 1797.62,1531.69 1811.83,1539.63 1823.0,1540.83 C 1855.89,1544.37 1888.91,1546.23 1922.0,1546.99 C 1965.1,1547.97 2008.25,1542.41 2051.0,1537.83 C 2069.45,1535.86 2088.5,1531.38 2107.0,1531.0" style="stroke:#010101; fill:none;"/>
	<path d="M 1048.0,1602.0 L 1057.0,1617.0" style="stroke:#010101; fill:none;"/>
	<path d="M 1963.0,1648.0 C 2000.3,1613.96 2054.25,1610.18 2102.0,1606.91 C 2120.95,1605.61 2139.99,1604.0 2159.0,1604.0" style="stroke:#010101; fill:none;"/>
	<path d="M 1046.0,1612.0 L 1047.0,1613.0" style="stroke:#010101; fill:none;"/>
	<path d="M 1049.0,1619.0 C 1064.2,1645.05 1078.33,1674.42 1088.0,1703.0" style="stroke:#010101; fill:none;"/>
	<path d="M 980.0,1655.0 L 981.0,1660.0" style="stroke:#010101; fill:none;"/>
	<path d="M 2235.0,1711.0 L 2234.0,1715.0" style="stroke:#010101; fill:none;"/>
	<path d="M 2234.0,1717.0 L 2234.0,1719.0" style="stroke:#010101; fill:none;"/>
	<path d="M 954.0,1744.0 C 943.885,1758.79 932.493,1772.86 917.0,1782.0 C 915.272,1777.66 913.735,1770.85 910.185,1767.62 C 906.38,1764.16 899.268,1770.78 896.0,1772.73 C 883.961,1779.89 886.412,1785.94 888.74,1798.0 C 889.429,1801.57 890.075,1808.04 894.174,1809.49 C 897.641,1810.71 902.117,1805.5 905.0,1804.0" style="stroke:#010101; fill:none;"/>
	<path d="M 704.0,1756.0 L 766.0,1803.0 C 765.264,1812.74 785.302,1828.54 791.562,1836.0 C 815.381,1864.38 840.665,1894.09 858.0,1927.0" style="stroke:#010101; fill:none;"/>
	<path d="M 1015.0,1756.0 L 1033.72,1780.0 L 1086.0,1834.0" style="stroke:#010101; fill:none;"/>
	<path d="M 733.0,1770.0 C 739.839,1779.51 751.807,1786.27 761.0,1793.42 C 781.639,1809.48 802.809,1824.97 824.0,1840.29 C 830.492,1844.99 854.478,1857.22 850.0,1866.0 C 841.076,1857.81 830.79,1850.71 821.0,1843.58 C 816.819,1840.53 813.332,1836.23 808.0,1838.0 C 813.26,1843.37 821.416,1850.15 822.0,1858.0" style="stroke:#010101; fill:none;"/>
	<path d="M 753.0,1775.0 C 800.112,1808.84 853.146,1836.53 896.0,1876.0" style="stroke:#010101; fill:none;"/>
	<path d="M 781.0,1777.0 L 836.0,1817.63 L 901.0,1869.0" style="stroke:#010101; fill:none;"/>
	<path d="M 917.0,1782.0 C 916.464,1795.88 923.241,1806.77 928.576,1819.0 C 939.071,1843.05 949.91,1866.82 962.22,1890.0 C 990.541,1943.32 1024.18,1993.7 1052.51,2047.0 C 1070.71,2081.24 1085.44,2120.41 1108.0,2152.0 L 1103.0,2157.0 L 1092.67,2141.0 L 1077.0,2115.0" style="stroke:#010101; fill:none;"/>
	<path d="M 932.0,1796.0 L 941.0,1804.0" style="stroke:#010101; fill:none;"/>
	<path d="M 2119.0,1801.0 C 2097.76,1824.06 2075.46,1845.86 2048.0,1861.57 C 2032.24,1870.59 2007.89,1875.38 1995.0,1888.0" style="stroke:#010101; fill:none;"/>
	<path d="M 763.0,1802.0 L 763.0,1804.0" style="stroke:#010101; fill:none;"/>
	<path d="M 767.0,1803.0 L 810.0,1836.0" style="stroke:#010101; fill:none;"/>
	<path d="M 894.0,1811.0 L 906.742,1845.0 L 933.0,1894.0 L 944.0,1873.0" style="stroke:#010101; fill:none;"/>
	<path d="M 899.0,1811.0 L 907.0,1814.0" style="stroke:#010101; fill:none;"/>
	<path d="M 932.0,1812.0 C 934.893,1818.2 940.98,1822.93 947.0,1826.0 L 941.0,1813.0" style="stroke:#010101; fill:none;"/>
	<path d="M 856.0,1818.0 L 856.0,1819.0" style="stroke:#010101; fill:none;"/>
	<path d="M 858.0,1820.0 L 867.0,1827.0" style="stroke:#010101; fill:none;"/>
	<path d="M 755.0,1821.0 L 755.0,1822.0" style="stroke:#010101; fill:none;"/>
	<path d="M 768.0,1826.0 C 775.405,1829.45 780.843,1836.97 786.155,1843.0 C 798.703,1857.25 809.745,1872.74 821.025,1888.0 C 868.945,1952.81 903.375,2023.22 932.0,2098.0" style="stroke:#010101; fill:none;"/>
	<path d="M 911.0,1828.0 C 913.233,1831.84 916.084,1831.28 920.0,1830.0" style="stroke:#010101; fill:none;"/>
	<path d="M 807.0,1835.0 L 807.0,1837.0" style="stroke:#010101; fill:none;"/>
	<path d="M 923.0,1839.0 C 919.453,1843.0 917.045,1846.45 923.0,1849.0" style="stroke:#010101; fill:none;"/>
	<path d="M 774.0,1842.0 L 774.0,1843.0" style="stroke:#010101; fill:none;"/>
	<path d="M 777.0,1845.0 L 832.565,1917.0 L 894.0,2018.0" style="stroke:#010101; fill:none;"/>
	<path d="M 933.0,1848.0 L 929.0,1867.0" style="stroke:#010101; fill:none;"/>
	<path d="M 824.0,1855.0 C 844.569,1880.54 858.802,1910.33 874.309,1939.0 C 909.15,2003.41 937.346,2071.36 960.0,2141.0" style="stroke:#010101; fill:none;"/>
	<path d="M 854.0,1862.0 C 864.934,1870.68 878.626,1883.73 892.0,1888.0 L 879.0,1863.0" style="stroke:#010101; fill:none;"/>
	<path d="M 853.0,1866.0 L 878.0,1887.0" style="stroke:#010101; fill:none;"/>
	<path d="M 858.0,1872.0 L 872.997,1899.0 L 915.0,1961.0" style="stroke:#010101; fill:none;"/>
	<path d="M 1123.0,1873.0 C 1163.07,1889.68 1201.54,1910.58 1241.0,1928.69 C 1275.96,1944.74 1314.79,1957.75 1347.0,1979.0" style="stroke:#010101; fill:none;"/>
	<path d="M 893.0,1889.0 L 921.0,1935.0" style="stroke:#010101; fill:none;"/>
	<path d="M 940.0,1890.0 L 943.0,1894.0" style="stroke:#010101; fill:none;"/>
	<path d="M 940.0,1891.0 L 937.0,1895.0 L 937.0,1893.0" style="stroke:#010101; fill:none;"/>
	<path d="M 933.0,1895.0 C 946.192,1912.16 956.14,1932.24 966.85,1951.0 C 984.297,1981.57 1001.57,2012.06 1018.31,2043.0 C 1055.65,2112.04 1094.04,2180.38 1130.22,2250.0 C 1145.55,2279.52 1156.38,2311.08 1173.0,2340.0 C 1177.41,2347.67 1183.82,2365.7 1194.0,2366.0" style="stroke:#010101; fill:none;"/>
	<path d="M 1108.0,1897.0 C 1148.58,1918.35 1190.47,1938.92 1233.0,1956.14 C 1264.95,1969.06 1300.12,1980.63 1330.0,1998.0" style="stroke:#010101; fill:none;"/>
	<path d="M 960.0,1906.0 C 955.006,1913.05 960.535,1915.16 967.0,1917.0" style="stroke:#010101; fill:none;"/>
	<path d="M 1118.0,1924.0 L 1124.0,1927.0" style="stroke:#010101; fill:none;"/>
	<path d="M 1127.0,1929.0 L 1164.0,1945.69 L 1223.0,1972.14 L 1338.0,2017.0" style="stroke:#010101; fill:none;"/>
	<path d="M 1279.0,1929.0 C 1325.6,1939.68 1371.41,1951.64 1419.0,1957.71 C 1486.48,1966.33 1554.06,1968.39 1622.0,1970.03 C 1669.95,1971.18 1718.06,1974.0 1766.0,1974.0" style="stroke:#010101; fill:none;"/>
	<path d="M 978.0,1932.0 C 977.031,1937.57 978.096,1940.08 983.0,1943.0" style="stroke:#010101; fill:none;"/>
	<path d="M 1834.0,1966.0 C 1843.18,1964.02 1854.81,1969.18 1864.0,1970.71 C 1881.55,1973.65 1899.28,1974.13 1917.0,1972.91 C 1964.55,1969.65 2010.61,1950.03 2058.0,1948.0" style="stroke:#010101; fill:none;"/>
	<path d="M 992.0,1970.0 C 991.909,1976.01 995.001,1978.21 1000.0,1981.0" style="stroke:#010101; fill:none;"/>
	<path d="M 1242.0,1995.0 L 1296.0,2019.14 L 1389.0,2058.0" style="stroke:#010101; fill:none;"/>
	<path d="M 1017.0,2000.0 C 1013.46,2007.41 1018.39,2013.18 1023.0,2019.0" style="stroke:#010101; fill:none;"/>
	<path d="M 2029.0,2015.0 L 2029.0,2018.0" style="stroke:#010101; fill:none;"/>
	<path d="M 1964.0,2074.0 L 1965.0,2074.0" style="stroke:#010101; fill:none;"/>
	<path d="M 1065.0,2099.0 C 1062.13,2104.41 1063.92,2108.59 1066.0,2114.0" style="stroke:#010101; fill:none;"/>
	<path d="M 1109.0,2154.0 C 1110.12,2161.32 1116.38,2167.3 1119.41,2174.0 C 1126.02,2188.64 1130.29,2203.97 1138.28,2218.0 C 1142.05,2224.61 1152.06,2235.5 1148.0,2243.0 C 1136.53,2234.92 1133.39,2224.35 1126.8,2213.0 C 1118.06,2197.95 1099.85,2183.61 1115.0,2167.0" style="stroke:#010101; fill:none;"/>
	<path d="M 1105.0,2158.0 L 1108.0,2159.0" style="stroke:#010101; fill:none;"/>
	<path d="M 965.0,2166.0 L 967.0,2171.0" style="stroke:#010101; fill:none;"/>
	<path d="M 1152.0,2242.0 C 1164.05,2267.78 1180.57,2292.45 1194.99,2317.0 C 1199.16,2324.1 1209.96,2336.95 1205.0,2345.0 C 1197.07,2338.21 1182.27,2330.62 1198.0,2323.0" style="stroke:#010101; fill:none;"/>
	<path d="M 2200.0,2272.0 L 2216.0,2282.0" style="stroke:#010101; fill:none;"/>
	<path d="M 1865.0,2281.0 C 1906.52,2326.07 1955.65,2365.56 2003.0,2404.39 C 2020.44,2418.68 2039.41,2431.76 2056.0,2447.0" style="stroke:#010101; fill:none;"/>
	<path d="M 2187.0,2285.0 C 2197.93,2310.01 2215.74,2335.36 2231.0,2358.0 C 2221.49,2360.82 2204.97,2348.73 2196.0,2345.0" style="stroke:#010101; fill:none;"/>
	<path d="M 2240.0,2290.0 C 2251.41,2293.37 2270.33,2296.17 2282.0,2294.0" style="stroke:#010101; fill:none;"/>
	<path d="M 2369.0,2296.0 L 2386.0,2296.0" style="stroke:#010101; fill:none;"/>
	<path d="M 2299.0,2298.0 C 2307.53,2294.53 2315.32,2302.69 2323.0,2305.8 C 2348.25,2316.02 2371.71,2333.87 2391.0,2353.0" style="stroke:#010101; fill:none;"/>
	<path d="M 2404.0,2299.0 L 2446.0,2299.0" style="stroke:#010101; fill:none;"/>
	<path d="M 2345.0,2299.0 C 2355.02,2301.53 2363.83,2309.56 2372.0,2315.63 C 2398.28,2335.15 2417.73,2365.66 2446.0,2382.0" style="stroke:#010101; fill:none;"/>
	<path d="M 2214.0,2303.0 L 2350.0,2354.0" style="stroke:#010101; fill:none;"/>
	<path d="M 2222.0,2325.0 C 2262.98,2338.84 2306.53,2347.76 2345.0,2368.0" style="stroke:#010101; fill:none;"/>
	<path d="M 2231.0,2341.0 C 2254.04,2357.36 2283.45,2363.71 2310.0,2372.19 C 2331.3,2379.0 2352.52,2388.12 2374.0,2394.0" style="stroke:#010101; fill:none;"/>
	<path d="M 1209.0,2344.0 L 1206.0,2345.0" style="stroke:#010101; fill:none;"/>
	<path d="M 2193.0,2344.0 L 2194.0,2344.0" style="stroke:#010101; fill:none;"/>
	<path d="M 1209.0,2346.0 C 1227.18,2371.03 1240.39,2401.0 1253.16,2429.0 C 1268.67,2463.02 1285.09,2496.82 1302.14,2530.0 C 1308.8,2542.97 1317.57,2554.66 1323.77,2568.0 C 1332.87,2587.59 1339.12,2608.6 1348.32,2628.0 C 1357.97,2648.36 1370.63,2666.98 1379.14,2688.0 C 1391.96,2719.7 1400.75,2753.39 1413.63,2785.0 C 1424.04,2810.55 1441.18,2833.05 1452.69,2858.0 C 1458.08,2869.68 1459.57,2881.78 1463.0,2894.0" style="stroke:#010101; fill:none;"/>
	<path d="M 1211.0,2352.0 C 1210.38,2359.97 1212.08,2363.61 1217.0,2370.0" style="stroke:#010101; fill:none;"/>
	<path d="M 2231.0,2359.0 C 2241.11,2368.13 2258.32,2372.49 2271.0,2377.23 C 2303.72,2389.45 2341.12,2396.73 2372.0,2413.0" style="stroke:#010101; fill:none;"/>
	<path d="M 2407.0,2359.0 L 2421.0,2374.0" style="stroke:#010101; fill:none;"/>
	<path d="M 2200.0,2363.0 L 2244.0,2383.0 L 2246.0,2381.0 L 2236.0,2364.0" style="stroke:#010101; fill:none;"/>
	<path d="M 1190.0,2367.0 C 1191.37,2374.6 1197.14,2379.59 1200.99,2386.0 C 1207.59,2396.99 1212.9,2408.75 1219.14,2420.0 C 1238.11,2454.2 1255.47,2489.9 1272.76,2525.0 C 1281.29,2542.33 1287.29,2570.17 1303.0,2582.0 L 1311.0,2568.0" style="stroke:#010101; fill:none;"/>
	<path d="M 1197.0,2370.0 L 1196.0,2379.0" style="stroke:#010101; fill:none;"/>
	<path d="M 2412.0,2375.0 L 2438.0,2407.0" style="stroke:#010101; fill:none;"/>
	<path d="M 2246.0,2382.0 C 2255.83,2390.75 2273.63,2394.64 2286.0,2399.01 C 2313.89,2408.88 2344.87,2417.08 2371.0,2431.0" style="stroke:#010101; fill:none;"/>
	<path d="M 1230.0,2383.0 C 1225.35,2389.93 1228.78,2393.8 1233.0,2400.0" style="stroke:#010101; fill:none;"/>
	<path d="M 2251.0,2388.0 C 2257.59,2397.94 2265.18,2412.34 2276.0,2418.0" style="stroke:#010101; fill:none;"/>
	<path d="M 2429.0,2391.0 L 2428.0,2392.0" style="stroke:#010101; fill:none;"/>
	<path d="M 2194.0,2398.0 L 2296.0,2435.55 L 2366.0,2457.0" style="stroke:#010101; fill:none;"/>
	<path d="M 2442.0,2400.0 L 2446.0,2400.0" style="stroke:#010101; fill:none;"/>
	<path d="M 1243.0,2407.0 C 1239.87,2411.73 1238.09,2418.36 1239.0,2424.0" style="stroke:#010101; fill:none;"/>
	<path d="M 2179.0,2423.0 L 2268.0,2450.34 L 2340.0,2473.0" style="stroke:#010101; fill:none;"/>
	<path d="M 2298.0,2437.0 C 2303.38,2446.83 2320.0,2453.45 2329.0,2460.0" style="stroke:#010101; fill:none;"/>
	<path d="M 2159.0,2443.0 L 2255.0,2472.51 L 2301.0,2486.0" style="stroke:#010101; fill:none;"/>
	<path d="M 2111.0,2450.0 L 2205.0,2483.03 L 2241.0,2493.0" style="stroke:#010101; fill:none;"/>
	<path d="M 2060.0,2462.0 L 2079.0,2469.63 L 2118.0,2478.65 L 2224.0,2502.58 L 2265.0,2516.0" style="stroke:#010101; fill:none;"/>
	<path d="M 1176.0,2463.0 L 1184.0,2470.0" style="stroke:#010101; fill:none;"/>
	<path d="M 2304.0,2488.0 L 2310.0,2490.0" style="stroke:#010101; fill:none;"/>
	<path d="M 1272.0,2491.0 C 1269.73,2496.18 1273.88,2499.09 1278.0,2502.0" style="stroke:#010101; fill:none;"/>
	<path d="M 2260.0,2499.0 L 2268.0,2500.0" style="stroke:#010101; fill:none;"/>
	<path d="M 2273.0,2502.0 L 2284.0,2505.0" style="stroke:#010101; fill:none;"/>
	<path d="M 1100.0,2529.0 C 1109.67,2557.34 1124.2,2583.42 1133.48,2612.0 C 1162.49,2701.32 1177.0,2801.64 1155.0,2894.0" style="stroke:#010101; fill:none;"/>
	<path d="M 1109.0,2560.0 L 1110.0,2566.0" style="stroke:#010101; fill:none;"/>
	<path d="M 1304.0,2580.0 L 1320.34,2595.0 L 1328.0,2612.0" style="stroke:#010101; fill:none;"/>
	<path d="M 1302.0,2583.0 C 1305.94,2603.24 1321.05,2623.21 1331.15,2641.0 C 1341.39,2659.04 1348.28,2678.76 1358.0,2697.0 C 1363.69,2691.34 1361.99,2675.97 1363.0,2668.0" style="stroke:#010101; fill:none;"/>
	<path d="M 1334.0,2621.0 L 1337.0,2638.0" style="stroke:#010101; fill:none;"/>
	<path d="M 1362.0,2696.0 L 1368.0,2706.0" style="stroke:#010101; fill:none;"/>
	<path d="M 1358.0,2697.0 L 1359.0,2700.0 L 1362.0,2697.0" style="stroke:#010101; fill:none;"/>
	<path d="M 1359.0,2700.0 C 1366.36,2731.08 1383.58,2758.47 1397.06,2787.0 C 1413.65,2822.13 1427.67,2858.43 1443.0,2894.0" style="stroke:#010101; fill:none;"/>
	<path d="M 1744.0,2714.0 L 1739.0,2723.0" style="stroke:#010101; fill:none;"/>
	<path d="M 1748.0,2716.0 C 1746.96,2722.74 1750.61,2722.71 1756.0,2725.0" style="stroke:#010101; fill:none;"/>
</svg>
