<?xml version="1.0" ?>
<svg baseProfile="full" height="2894" version="1.1" width="2447" xmlns="http://www.w3.org/2000/svg" xmlns:ev="http://www.w3.org/2001/xml-events" xmlns:xlink="http://www.w3.org/1999/xlink">
	<defs/>
	<path d="M 502.0,390.0 L 536.0,389.0 L 632.0,394.0" style="stroke:#010101; fill:none;"/>
	<path d="M 652.0,393.0 L 654.0,393.0" style="stroke:#010101; fill:none;"/>
	<path d="M 660.0,394.0 L 664.0,394.0" style="stroke:#010101; fill:none;"/>
	<path d="M 524.0,395.0 L 525.0,395.0" style="stroke:#010101; fill:none;"/>
	<path d="M 668.0,395.0 L 670.0,395.0" style="stroke:#010101; fill:none;"/>
	<path d="M 529.0,396.0 L 532.0,396.0" style="stroke:#010101; fill:none;"/>
	<path d="M 719.0,396.0 L 747.0,402.0" style="stroke:#010101; fill:none;"/>
	<path d="M 535.0,397.0 L 546.0,401.0" style="stroke:#010101; fill:none;"/>
	<path d="M 760.0,398.0 L 767.0,399.0" style="stroke:#010101; fill:none;"/>
	<path d="M 547.0,400.0 L 590.0,408.0" style="stroke:#010101; fill:none;"/>
	<path d="M 431.0,407.0 L 478.0,406.0 L 517.0,408.0" style="stroke:#010101; fill:none;"/>
	<path d="M 424.0,407.0 L 428.0,407.0" style="stroke:#010101; fill:none;"/>
	<path d="M 358.0,418.0 L 475.0,413.0" style="stroke:#010101; fill:none;"/>
	<path d="M 365.0,419.0 C 360.771,425.597 343.372,424.603 336.0,427.0" style="stroke:#010101; fill:none;"/>
	<path d="M 366.0,423.0 L 468.0,419.0" style="stroke:#010101; fill:none;"/>
	<path d="M 337.0,431.0 L 376.0,427.0" style="stroke:#010101; fill:none;"/>
	<path d="M 369.0,432.0 L 361.0,433.0 L 381.0,432.441 L 445.0,427.0" style="stroke:#010101; fill:none;"/>
	<path d="M 831.0,432.0 L 832.0,433.0" style="stroke:#010101; fill:none;"/>
	<path d="M 361.0,436.0 L 353.0,434.0 L 361.0,433.0" style="stroke:#010101; fill:none;"/>
	<path d="M 354.0,436.0 L 348.0,436.0 L 353.0,434.0" style="stroke:#010101; fill:none;"/>
	<path d="M 344.0,435.0 L 348.0,435.0" style="stroke:#010101; fill:none;"/>
	<path d="M 348.0,436.0 L 343.0,438.0" style="stroke:#010101; fill:none;"/>
	<path d="M 338.0,439.0 L 339.0,439.0" style="stroke:#010101; fill:none;"/>
	<path d="M 299.0,460.0 C 340.6,445.021 388.835,441.0 433.0,441.0" style="stroke:#010101; fill:none;"/>
	<path d="M 310.0,453.0 L 318.0,452.0" style="stroke:#010101; fill:none;"/>
	<path d="M 336.0,460.0 L 332.0,461.0 L 356.0,459.333 L 400.0,456.0" style="stroke:#010101; fill:none;"/>
	<path d="M 349.0,460.0 L 353.0,458.0" style="stroke:#010101; fill:none;"/>
	<path d="M 339.0,459.0 L 345.0,459.0" style="stroke:#010101; fill:none;"/>
	<path d="M 289.0,470.0 L 332.0,461.0" style="stroke:#010101; fill:none;"/>
	<path d="M 337.0,476.0 L 324.0,475.0 C 337.43,470.271 355.813,470.01 370.0,470.0" style="stroke:#010101; fill:none;"/>
	<path d="M 324.0,476.0 L 323.0,474.0" style="stroke:#010101; fill:none;"/>
	<path d="M 308.0,477.0 L 315.0,476.0 L 295.0,480.0" style="stroke:#010101; fill:none;"/>
	<path d="M 315.0,476.0 L 321.0,475.0" style="stroke:#010101; fill:none;"/>
	<path d="M 292.0,477.0 L 306.0,476.0" style="stroke:#010101; fill:none;"/>
	<path d="M 325.0,489.0 L 312.0,487.0 L 360.0,481.0" style="stroke:#010101; fill:none;"/>
	<path d="M 313.0,488.0 L 302.0,489.0 L 311.0,486.0" style="stroke:#010101; fill:none;"/>
	<path d="M 282.0,489.0 L 302.0,488.0" style="stroke:#010101; fill:none;"/>
	<path d="M 302.0,489.0 L 270.0,495.0" style="stroke:#010101; fill:none;"/>
	<path d="M 284.0,507.0 L 288.0,507.0" style="stroke:#010101; fill:none;"/>
	<path d="M 293.0,508.0 C 300.358,512.205 289.628,521.782 286.285,526.0 C 273.51,542.122 261.034,558.512 250.192,576.0 C 221.072,622.97 191.576,673.788 175.721,727.0 C 167.259,755.398 164.693,784.779 161.0,814.0" style="stroke:#010101; fill:none;"/>
	<path d="M 1051.0,612.0 C 1067.54,613.694 1087.98,628.419 1102.0,637.0" style="stroke:#010101; fill:none;"/>
	<path d="M 1054.0,651.0 C 1089.44,658.413 1121.79,684.174 1155.0,698.0" style="stroke:#010101; fill:none;"/>
	<path d="M 1132.0,712.0 C 1152.49,718.978 1172.34,733.099 1191.0,744.0" style="stroke:#010101; fill:none;"/>
	<path d="M 1197.0,762.0 L 1234.0,786.0" style="stroke:#010101; fill:none;"/>
	<path d="M 716.0,865.0 L 721.0,865.0 L 715.0,865.0 C 716.258,861.21 719.064,860.677 722.961,861.014 C 727.914,861.443 731.778,863.362 737.0,862.829 C 744.379,862.077 750.351,858.932 758.0,858.846 C 802.707,858.347 845.5,859.376 890.0,865.0" style="stroke:#010101; fill:none;"/>
	<path d="M 727.0,860.0 L 742.0,859.342 L 753.0,862.955 L 785.0,864.0 C 778.619,867.423 771.87,866.126 765.0,867.259 C 748.365,870.003 731.621,873.279 715.0,876.389 C 706.083,878.057 696.988,878.785 690.0,885.0 C 683.799,875.626 662.109,893.317 654.0,891.0 L 653.0,892.0 L 656.0,893.0" style="stroke:#010101; fill:none;"/>
	<path d="M 709.0,863.0 C 708.268,867.391 706.241,867.968 703.0,865.0 L 715.0,862.0" style="stroke:#010101; fill:none;"/>
	<path d="M 706.0,863.0 L 713.0,866.0 L 709.0,865.0" style="stroke:#010101; fill:none;"/>
	<path d="M 630.0,879.0 C 620.81,886.088 608.809,887.277 598.0,890.746 C 593.242,892.273 589.008,895.241 584.0,894.0 C 591.741,882.396 605.201,881.588 618.0,878.651 C 645.652,872.306 674.584,870.531 702.0,864.0" style="stroke:#010101; fill:none;"/>
	<path d="M 723.0,866.0 L 726.0,864.0" style="stroke:#010101; fill:none;"/>
	<path d="M 785.0,864.0 L 798.0,864.0" style="stroke:#010101; fill:none;"/>
	<path d="M 799.0,865.0 C 827.291,865.0 854.412,868.916 882.0,873.887 C 890.795,875.472 904.518,884.246 913.0,882.0 L 909.0,881.0" style="stroke:#010101; fill:none;"/>
	<path d="M 629.0,881.0 L 657.0,876.0 L 703.0,868.0" style="stroke:#010101; fill:none;"/>
	<path d="M 592.0,904.0 L 590.0,907.0 C 628.059,878.813 684.794,878.423 730.0,870.0" style="stroke:#010101; fill:none;"/>
	<path d="M 614.0,941.0 C 635.855,922.087 662.803,908.504 689.0,896.694 C 698.067,892.607 707.712,886.732 717.0,883.637 C 740.723,875.733 769.229,874.559 794.0,872.17 C 810.311,870.597 826.623,871.0 843.0,871.0 C 849.787,871.0 857.479,872.843 864.0,871.0" style="stroke:#010101; fill:none;"/>
	<path d="M 708.0,896.0 L 703.0,898.0 C 706.928,900.002 710.121,896.563 714.0,895.21 C 723.137,892.022 732.546,889.923 742.0,887.996 C 777.117,880.837 813.099,875.0 849.0,875.0" style="stroke:#010101; fill:none;"/>
	<path d="M 601.0,877.0 L 596.0,882.0" style="stroke:#010101; fill:none;"/>
	<path d="M 584.0,878.0 C 564.832,892.604 551.483,914.302 541.694,936.0 C 538.448,943.197 532.965,951.924 535.0,960.0 C 548.899,936.186 562.962,912.43 584.0,894.0" style="stroke:#010101; fill:none;"/>
	<path d="M 715.0,900.0 C 756.686,891.373 797.433,883.881 840.0,880.911 C 854.89,879.872 874.524,875.721 889.0,880.0" style="stroke:#010101; fill:none;"/>
	<path d="M 690.0,881.0 L 692.0,882.0" style="stroke:#010101; fill:none;"/>
	<path d="M 766.0,892.0 L 853.0,884.054 L 907.0,882.0" style="stroke:#010101; fill:none;"/>
	<path d="M 913.0,882.0 L 924.0,883.0" style="stroke:#010101; fill:none;"/>
	<path d="M 525.0,978.0 C 514.112,978.171 521.891,957.789 523.746,952.0 C 530.564,930.729 541.721,895.723 562.0,884.0" style="stroke:#010101; fill:none;"/>
	<path d="M 913.0,884.0 L 964.0,894.0" style="stroke:#010101; fill:none;"/>
	<path d="M 689.0,885.0 L 679.0,890.0 C 686.518,894.46 702.486,885.742 711.0,885.0" style="stroke:#010101; fill:none;"/>
	<path d="M 525.0,887.0 C 505.528,909.519 487.606,961.965 509.0,988.0" style="stroke:#010101; fill:none;"/>
	<path d="M 586.0,890.0 L 588.0,888.0" style="stroke:#010101; fill:none;"/>
	<path d="M 616.0,888.0 L 607.0,895.0" style="stroke:#010101; fill:none;"/>
	<path d="M 577.0,892.0 L 585.0,889.0" style="stroke:#010101; fill:none;"/>
	<path d="M 853.0,890.0 C 868.59,890.0 884.466,887.876 900.0,889.159 C 910.754,890.047 926.971,894.439 937.0,890.0" style="stroke:#010101; fill:none;"/>
	<path d="M 652.0,891.0 L 642.0,892.0 L 647.0,890.0" style="stroke:#010101; fill:none;"/>
	<path d="M 656.0,891.0 L 658.0,890.0" style="stroke:#010101; fill:none;"/>
	<path d="M 652.0,901.0 L 650.0,903.0 L 679.0,890.0" style="stroke:#010101; fill:none;"/>
	<path d="M 643.0,894.0 L 637.0,894.0 L 642.0,892.0" style="stroke:#010101; fill:none;"/>
	<path d="M 937.0,892.0 L 945.0,892.0" style="stroke:#010101; fill:none;"/>
	<path d="M 538.0,893.0 C 520.223,908.764 512.051,939.897 511.039,963.0 C 510.732,970.02 508.65,990.642 520.0,989.0" style="stroke:#010101; fill:none;"/>
	<path d="M 677.0,893.0 L 679.0,893.0" style="stroke:#010101; fill:none;"/>
	<path d="M 638.0,896.0 L 635.0,897.0 L 637.0,894.0" style="stroke:#010101; fill:none;"/>
	<path d="M 547.0,963.0 C 549.663,955.839 559.57,949.404 565.0,944.001 C 582.721,926.365 609.758,901.454 635.0,896.0" style="stroke:#010101; fill:none;"/>
	<path d="M 648.0,902.0 L 633.0,905.0 L 654.0,894.0" style="stroke:#010101; fill:none;"/>
	<path d="M 499.0,898.0 C 493.594,921.369 487.791,942.767 491.754,967.0 C 493.073,975.069 496.179,988.391 505.0,991.0" style="stroke:#010101; fill:none;"/>
	<path d="M 674.0,906.0 L 703.0,898.0" style="stroke:#010101; fill:none;"/>
	<path d="M 669.0,918.0 L 703.0,901.0" style="stroke:#010101; fill:none;"/>
	<path d="M 1307.0,901.0 C 1319.4,915.332 1336.6,936.66 1342.0,955.0 L 1337.0,953.0" style="stroke:#010101; fill:none;"/>
	<path d="M 647.0,903.0 L 650.0,904.0" style="stroke:#010101; fill:none;"/>
	<path d="M 634.0,906.0 L 631.0,908.0 L 633.0,905.0" style="stroke:#010101; fill:none;"/>
	<path d="M 586.0,907.0 L 589.0,906.0" style="stroke:#010101; fill:none;"/>
	<path d="M 555.0,962.0 C 570.496,946.504 586.716,932.803 605.0,920.667 C 612.753,915.522 621.856,909.108 631.0,907.0" style="stroke:#010101; fill:none;"/>
	<path d="M 575.0,956.0 C 596.42,935.502 622.871,920.383 648.0,905.0" style="stroke:#010101; fill:none;"/>
	<path d="M 590.0,908.0 C 575.826,921.881 554.838,938.16 549.0,958.0" style="stroke:#010101; fill:none;"/>
	<path d="M 485.0,1006.0 C 468.12,988.752 459.76,960.776 465.12,937.0 C 467.256,927.526 469.78,918.797 479.0,914.0" style="stroke:#010101; fill:none;"/>
	<path d="M 463.0,915.0 C 440.861,939.271 454.221,971.079 470.0,995.0" style="stroke:#010101; fill:none;"/>
	<path d="M 476.0,926.0 C 476.0,947.21 476.266,967.616 483.001,988.0 C 485.003,994.062 487.96,1005.59 495.0,1007.0" style="stroke:#010101; fill:none;"/>
	<path d="M 1341.0,952.0 L 1339.0,954.0" style="stroke:#010101; fill:none;"/>
	<path d="M 1342.0,955.0 L 1344.0,957.0" style="stroke:#010101; fill:none;"/>
	<path d="M 533.0,960.0 L 535.0,961.0" style="stroke:#010101; fill:none;"/>
	<path d="M 533.0,963.0 L 529.0,978.0" style="stroke:#010101; fill:none;"/>
	<path d="M 533.0,972.0 L 534.0,974.0" style="stroke:#010101; fill:none;"/>
	<path d="M 162.0,982.0 L 163.0,993.0 L 164.0,990.0" style="stroke:#010101; fill:none;"/>
	<path d="M 163.0,994.0 C 165.23,1001.54 163.375,1009.33 163.039,1017.0 C 162.374,1032.19 162.295,1047.9 162.961,1063.0 C 163.206,1068.56 162.729,1083.28 166.639,1087.4 C 170.383,1091.34 184.864,1088.57 190.0,1088.46 C 204.651,1088.13 219.603,1091.5 234.0,1093.78 C 238.187,1094.45 241.93,1092.85 246.0,1094.0 L 241.0,1095.0" style="stroke:#010101; fill:none;"/>
	<path d="M 1374.0,1012.0 L 1375.0,1014.0" style="stroke:#010101; fill:none;"/>
	<path d="M 1376.0,1016.0 L 1377.0,1017.0" style="stroke:#010101; fill:none;"/>
	<path d="M 1378.0,1020.0 L 1384.0,1030.0 L 1382.0,1032.0 L 1364.0,1023.0" style="stroke:#010101; fill:none;"/>
	<path d="M 1384.0,1031.0 L 1391.0,1046.0" style="stroke:#010101; fill:none;"/>
	<path d="M 676.0,1039.0 L 682.0,1059.0 L 693.0,1055.0 C 699.404,1065.3 703.817,1084.33 714.059,1091.4 C 717.599,1093.84 738.521,1095.2 739.377,1089.85 C 739.983,1086.07 736.548,1082.74 734.499,1080.0 C 728.474,1071.95 728.386,1060.76 722.772,1053.32 C 718.585,1047.78 706.847,1054.88 701.0,1049.0" style="stroke:#010101; fill:none;"/>
	<path d="M 1380.0,1040.0 L 1388.0,1044.0" style="stroke:#010101; fill:none;"/>
	<path d="M 1377.0,1042.0 C 1380.36,1047.75 1382.65,1052.2 1389.0,1055.0" style="stroke:#010101; fill:none;"/>
	<path d="M 805.0,1043.0 L 807.0,1053.0 L 808.0,1046.0" style="stroke:#010101; fill:none;"/>
	<path d="M 691.0,1047.0 L 693.0,1055.0" style="stroke:#010101; fill:none;"/>
	<path d="M 232.0,1054.0 L 224.0,1050.0 C 232.958,1047.35 241.101,1051.27 249.0,1055.25 C 267.515,1064.57 294.701,1086.07 298.0,1108.0" style="stroke:#010101; fill:none;"/>
	<path d="M 724.0,1051.0 C 748.787,1045.1 780.061,1052.86 805.0,1055.84 C 815.057,1057.05 827.824,1056.58 837.0,1061.0 L 837.0,1053.0" style="stroke:#010101; fill:none;"/>
	<path d="M 215.0,1051.0 L 223.0,1050.0" style="stroke:#010101; fill:none;"/>
	<path d="M 654.0,1051.0 L 660.0,1066.0 C 656.815,1068.03 651.866,1069.37 649.507,1072.39 C 646.771,1075.9 650.571,1079.54 653.018,1081.91 C 656.534,1085.32 660.73,1089.06 665.0,1091.49 C 667.591,1092.96 671.539,1092.82 673.454,1095.32 C 675.248,1097.66 674.183,1105.54 675.0,1109.0 C 677.408,1105.73 675.445,1103.84 673.0,1101.0" style="stroke:#010101; fill:none;"/>
	<path d="M 738.0,1051.0 C 738.279,1059.94 740.88,1070.18 745.352,1077.99 C 747.258,1081.32 751.3,1081.49 752.0,1085.0 L 749.0,1084.0" style="stroke:#010101; fill:none;"/>
	<path d="M 695.0,1055.0 L 702.0,1053.0" style="stroke:#010101; fill:none;"/>
	<path d="M 713.0,1053.0 C 714.816,1060.85 719.353,1067.46 715.0,1075.0 L 719.0,1071.0" style="stroke:#010101; fill:none;"/>
	<path d="M 807.0,1053.0 L 800.0,1097.0 L 796.0,1094.0 L 789.0,1101.0 C 799.265,1104.04 816.648,1105.2 826.996,1102.06 C 830.791,1100.9 833.375,1096.14 837.039,1095.63 C 840.573,1095.14 843.295,1099.43 847.0,1099.57 C 869.588,1100.4 897.905,1098.35 919.0,1090.0" style="stroke:#010101; fill:none;"/>
	<path d="M 1384.0,1053.0 L 1393.0,1075.0" style="stroke:#010101; fill:none;"/>
	<path d="M 704.0,1054.0 L 715.0,1075.0" style="stroke:#010101; fill:none;"/>
	<path d="M 234.0,1055.0 C 253.985,1063.21 288.473,1082.47 292.0,1106.0" style="stroke:#010101; fill:none;"/>
	<path d="M 788.0,1055.0 L 789.401,1068.95 L 787.0,1079.0 L 790.0,1073.0" style="stroke:#010101; fill:none;"/>
	<path d="M 219.0,1062.0 L 218.0,1058.0 C 240.47,1059.03 267.854,1080.86 283.0,1096.0" style="stroke:#010101; fill:none;"/>
	<path d="M 677.0,1097.0 C 677.863,1087.56 665.003,1074.76 660.0,1067.0 L 680.0,1059.0" style="stroke:#010101; fill:none;"/>
	<path d="M 838.0,1059.0 L 852.0,1063.0" style="stroke:#010101; fill:none;"/>
	<path d="M 880.0,1059.0 C 875.023,1075.91 856.525,1089.08 840.0,1093.0" style="stroke:#010101; fill:none;"/>
	<path d="M 684.0,1060.0 L 703.0,1089.0 L 701.0,1085.0" style="stroke:#010101; fill:none;"/>
	<path d="M 638.0,1061.0 L 646.0,1074.0" style="stroke:#010101; fill:none;"/>
	<path d="M 837.0,1061.0 C 836.242,1077.58 824.677,1088.18 810.0,1093.34 C 806.247,1094.66 804.036,1097.31 800.0,1097.0" style="stroke:#010101; fill:none;"/>
	<path d="M 785.0,1063.0 L 785.0,1072.0" style="stroke:#010101; fill:none;"/>
	<path d="M 192.0,1065.0 C 213.312,1069.02 235.902,1073.12 254.0,1086.0 C 246.761,1088.79 235.496,1082.55 228.0,1080.88 C 210.124,1076.9 192.227,1076.0 174.0,1076.0" style="stroke:#010101; fill:none;"/>
	<path d="M 669.0,1065.0 C 671.262,1072.69 683.149,1090.1 691.015,1092.43 C 697.254,1094.27 706.403,1091.61 711.857,1095.6 C 734.782,1112.39 748.624,1145.68 731.0,1171.0" style="stroke:#010101; fill:none;"/>
	<path d="M 768.0,1067.0 C 768.149,1073.63 772.144,1083.89 770.307,1090.0 C 766.846,1101.51 748.598,1094.01 740.0,1094.0" style="stroke:#010101; fill:none;"/>
	<path d="M 645.0,1073.0 L 630.0,1083.0 C 636.63,1091.7 659.671,1101.69 650.0,1113.0 C 658.95,1122.08 652.137,1127.83 652.004,1139.0 C 651.779,1157.83 654.264,1172.75 670.0,1184.0 C 662.962,1190.31 654.042,1191.72 646.17,1196.55 C 638.629,1201.18 631.886,1208.43 623.0,1210.47 C 604.054,1214.82 605.531,1198.29 613.0,1186.0" style="stroke:#010101; fill:none;"/>
	<path d="M 721.0,1074.0 L 724.0,1084.0 L 725.0,1083.0 L 718.0,1080.0 L 720.0,1077.0" style="stroke:#010101; fill:none;"/>
	<path d="M 716.0,1077.0 L 720.0,1077.0" style="stroke:#010101; fill:none;"/>
	<path d="M 748.0,1081.0 L 751.0,1080.0" style="stroke:#010101; fill:none;"/>
	<path d="M 787.0,1079.0 L 789.0,1095.0 L 792.0,1083.0" style="stroke:#010101; fill:none;"/>
	<path d="M 725.0,1081.0 L 734.0,1085.0 L 735.0,1084.0 L 736.0,1083.0" style="stroke:#010101; fill:none;"/>
	<path d="M 178.0,1082.0 C 199.709,1082.0 219.38,1085.29 240.0,1092.0" style="stroke:#010101; fill:none;"/>
	<path d="M 585.0,1082.0 C 589.092,1087.69 602.57,1104.81 610.961,1101.76 C 617.381,1099.43 624.111,1087.89 629.0,1083.0" style="stroke:#010101; fill:none;"/>
	<path d="M 752.0,1083.0 L 752.0,1085.0" style="stroke:#010101; fill:none;"/>
	<path d="M 1376.0,1083.0 L 1381.0,1088.0" style="stroke:#010101; fill:none;"/>
	<path d="M 728.0,1084.0 L 724.0,1088.0 L 723.0,1085.0" style="stroke:#010101; fill:none;"/>
	<path d="M 754.0,1084.0 L 754.0,1094.0" style="stroke:#010101; fill:none;"/>
	<path d="M 763.0,1085.0 L 766.0,1094.0" style="stroke:#010101; fill:none;"/>
	<path d="M 1369.0,1085.0 C 1387.73,1120.72 1406.2,1156.22 1420.58,1194.0 C 1429.64,1217.82 1434.97,1243.72 1445.0,1267.0" style="stroke:#010101; fill:none;"/>
	<path d="M 255.0,1086.0 L 253.0,1088.0" style="stroke:#010101; fill:none;"/>
	<path d="M 606.0,1086.0 L 616.0,1096.0" style="stroke:#010101; fill:none;"/>
	<path d="M 751.0,1086.0 L 754.0,1091.0" style="stroke:#010101; fill:none;"/>
	<path d="M 761.0,1086.0 L 762.0,1088.0" style="stroke:#010101; fill:none;"/>
	<path d="M 165.0,1087.0 L 154.0,1108.0 C 160.877,1108.61 168.181,1105.53 175.0,1104.44 C 191.784,1101.75 211.296,1099.02 228.0,1103.0" style="stroke:#010101; fill:none;"/>
	<path d="M 257.0,1087.0 C 280.64,1105.31 308.187,1117.44 331.0,1137.29 C 354.471,1157.71 378.634,1189.45 383.561,1221.0 C 388.898,1255.17 376.863,1295.64 370.0,1329.0" style="stroke:#010101; fill:none;"/>
	<path d="M 732.0,1087.0 L 732.0,1092.0" style="stroke:#010101; fill:none;"/>
	<path d="M 800.0,1087.0 C 797.789,1090.4 797.789,1091.6 800.0,1095.0" style="stroke:#010101; fill:none;"/>
	<path d="M 1389.0,1087.0 L 1393.0,1088.0" style="stroke:#010101; fill:none;"/>
	<path d="M 258.0,1088.0 L 255.0,1089.0" style="stroke:#010101; fill:none;"/>
	<path d="M 724.0,1088.0 L 724.0,1092.0" style="stroke:#010101; fill:none;"/>
	<path d="M 762.0,1088.0 L 755.0,1095.0" style="stroke:#010101; fill:none;"/>
	<path d="M 703.0,1089.0 L 703.0,1093.0" style="stroke:#010101; fill:none;"/>
	<path d="M 687.0,1092.0 L 679.0,1095.0" style="stroke:#010101; fill:none;"/>
	<path d="M 714.0,1093.0 L 712.0,1095.0" style="stroke:#010101; fill:none;"/>
	<path d="M 796.0,1093.0 L 796.0,1094.0" style="stroke:#010101; fill:none;"/>
	<path d="M 247.0,1094.0 L 264.0,1102.0" style="stroke:#010101; fill:none;"/>
	<path d="M 701.0,1094.0 C 696.641,1104.29 688.049,1104.11 679.0,1108.0" style="stroke:#010101; fill:none;"/>
	<path d="M 161.0,1099.0 C 183.634,1097.16 205.199,1092.77 228.0,1097.0" style="stroke:#010101; fill:none;"/>
	<path d="M 286.0,1095.0 L 286.0,1096.0" style="stroke:#010101; fill:none;"/>
	<path d="M 789.0,1095.0 L 784.0,1100.0 L 789.0,1101.0" style="stroke:#010101; fill:none;"/>
	<path d="M 246.0,1096.0 L 247.0,1096.0" style="stroke:#010101; fill:none;"/>
	<path d="M 617.0,1096.0 L 623.0,1101.0 C 619.206,1104.58 616.95,1106.4 612.0,1104.0" style="stroke:#010101; fill:none;"/>
	<path d="M 767.0,1098.0 L 784.0,1100.0" style="stroke:#010101; fill:none;"/>
	<path d="M 802.0,1099.0 L 802.0,1102.0" style="stroke:#010101; fill:none;"/>
	<path d="M 261.0,1100.0 C 219.22,1114.89 173.517,1098.94 134.0,1125.0" style="stroke:#010101; fill:none;"/>
	<path d="M 832.0,1100.0 C 836.065,1102.14 838.824,1101.76 843.0,1100.0" style="stroke:#010101; fill:none;"/>
	<path d="M 624.0,1101.0 C 630.338,1108.17 640.354,1112.31 650.0,1113.0" style="stroke:#010101; fill:none;"/>
	<path d="M 667.0,1104.0 L 662.0,1105.0 L 669.0,1112.0 L 670.0,1102.0 L 671.0,1102.0 L 672.0,1102.0" style="stroke:#010101; fill:none;"/>
	<path d="M 612.0,1105.0 L 607.0,1116.0 C 619.941,1122.33 637.16,1126.66 646.0,1113.0" style="stroke:#010101; fill:none;"/>
	<path d="M 655.0,1106.0 L 668.0,1112.0" style="stroke:#010101; fill:none;"/>
	<path d="M 661.0,1105.0 L 662.0,1105.0" style="stroke:#010101; fill:none;"/>
	<path d="M 628.0,1106.0 L 618.0,1107.0" style="stroke:#010101; fill:none;"/>
	<path d="M 154.0,1108.0 L 150.0,1110.0" style="stroke:#010101; fill:none;"/>
	<path d="M 218.0,1108.0 C 208.944,1113.55 198.12,1113.58 188.0,1115.66 C 171.003,1119.17 154.135,1124.35 139.0,1133.0" style="stroke:#010101; fill:none;"/>
	<path d="M 139.0,1142.0 C 152.41,1138.14 164.172,1129.83 178.0,1126.38 C 183.576,1124.98 188.891,1122.77 194.0,1126.0 C 204.29,1112.38 229.851,1110.99 246.0,1110.0" style="stroke:#010101; fill:none;"/>
	<path d="M 671.0,1110.0 L 674.0,1110.0" style="stroke:#010101; fill:none;"/>
	<path d="M 839.0,1110.0 L 836.0,1114.0 C 841.115,1116.29 843.032,1112.74 848.015,1112.16 C 854.151,1111.44 860.383,1114.28 865.0,1118.0" style="stroke:#010101; fill:none;"/>
	<path d="M 591.0,1112.0 L 607.0,1117.0" style="stroke:#010101; fill:none;"/>
	<path d="M 666.0,1113.0 L 656.0,1117.0 L 655.0,1118.0 L 654.0,1119.0 L 655.0,1120.0" style="stroke:#010101; fill:none;"/>
	<path d="M 835.0,1113.0 L 807.0,1133.0 L 814.0,1139.0" style="stroke:#010101; fill:none;"/>
	<path d="M 209.0,1114.0 L 210.0,1114.0" style="stroke:#010101; fill:none;"/>
	<path d="M 833.0,1115.0 L 839.0,1116.0" style="stroke:#010101; fill:none;"/>
	<path d="M 197.0,1124.0 L 223.0,1117.0" style="stroke:#010101; fill:none;"/>
	<path d="M 844.0,1116.0 L 856.0,1122.0" style="stroke:#010101; fill:none;"/>
	<path d="M 658.0,1117.0 L 656.0,1119.0" style="stroke:#010101; fill:none;"/>
	<path d="M 606.0,1118.0 C 603.6,1127.27 600.217,1139.65 603.0,1149.0 C 608.004,1146.41 610.126,1147.19 613.0,1152.0 C 608.951,1152.9 607.116,1151.63 604.0,1149.0" style="stroke:#010101; fill:none;"/>
	<path d="M 837.0,1118.0 L 844.0,1123.0" style="stroke:#010101; fill:none;"/>
	<path d="M 1362.0,1118.0 C 1369.48,1127.1 1373.83,1139.24 1378.42,1150.0 C 1387.15,1170.46 1395.03,1191.12 1402.68,1212.0 C 1405.99,1221.04 1414.83,1237.63 1412.0,1247.0 L 1395.0,1210.0" style="stroke:#010101; fill:none;"/>
	<path d="M 198.0,1121.0 L 200.0,1123.0" style="stroke:#010101; fill:none;"/>
	<path d="M 643.0,1121.0 C 641.858,1128.73 637.373,1133.47 632.888,1139.58 C 628.754,1145.21 624.693,1153.21 618.921,1157.27 C 607.542,1165.29 586.856,1158.79 575.0,1155.0" style="stroke:#010101; fill:none;"/>
	<path d="M 1363.0,1121.0 L 1365.0,1130.0" style="stroke:#010101; fill:none;"/>
	<path d="M 192.0,1123.0 L 196.0,1122.0" style="stroke:#010101; fill:none;"/>
	<path d="M 620.0,1122.0 L 610.0,1125.0" style="stroke:#010101; fill:none;"/>
	<path d="M 639.0,1122.0 L 634.0,1128.0 L 628.0,1123.0" style="stroke:#010101; fill:none;"/>
	<path d="M 684.0,1124.43 C 695.368,1122.79 704.683,1130.26 705.085,1142.0 C 705.319,1148.83 701.83,1159.66 693.999,1160.75 C 683.29,1162.25 683.869,1150.46 681.258,1144.09 C 677.847,1135.77 668.227,1126.69 684.0,1124.43" style="stroke:#010101; fill:none;"/>
	<path d="M 188.0,1127.0 L 192.0,1126.0" style="stroke:#010101; fill:none;"/>
	<path d="M 629.0,1126.0 C 629.031,1133.17 624.263,1137.41 629.0,1144.0" style="stroke:#010101; fill:none;"/>
	<path d="M 821.0,1126.0 L 829.0,1130.0" style="stroke:#010101; fill:none;"/>
	<path d="M 193.0,1133.0 L 189.0,1132.0 L 212.0,1128.0" style="stroke:#010101; fill:none;"/>
	<path d="M 587.0,1128.0 L 602.0,1134.0" style="stroke:#010101; fill:none;"/>
	<path d="M 1401.0,1128.0 C 1415.79,1153.34 1429.05,1186.23 1435.0,1215.0" style="stroke:#010101; fill:none;"/>
	<path d="M 205.0,1129.0 L 202.0,1130.0" style="stroke:#010101; fill:none;"/>
	<path d="M 634.0,1129.0 L 631.0,1131.0" style="stroke:#010101; fill:none;"/>
	<path d="M 194.0,1130.0 L 196.0,1130.0" style="stroke:#010101; fill:none;"/>
	<path d="M 186.0,1133.0 L 186.0,1137.0 L 189.0,1132.0" style="stroke:#010101; fill:none;"/>
	<path d="M 792.0,1141.0 L 786.0,1138.0 L 790.0,1136.0 L 793.0,1141.0 C 796.975,1135.96 800.411,1133.34 807.0,1133.0" style="stroke:#010101; fill:none;"/>
	<path d="M 137.0,1168.0 C 148.474,1153.92 165.056,1144.48 179.0,1134.0 L 180.0,1134.0 L 181.0,1135.0 L 182.0,1134.0" style="stroke:#010101; fill:none;"/>
	<path d="M 602.0,1134.0 L 600.0,1139.0" style="stroke:#010101; fill:none;"/>
	<path d="M 793.0,1137.0 C 792.97,1134.3 793.685,1134.82 796.0,1136.0" style="stroke:#010101; fill:none;"/>
	<path d="M 176.0,1138.0 L 176.0,1135.0" style="stroke:#010101; fill:none;"/>
	<path d="M 181.0,1135.0 L 181.0,1137.0" style="stroke:#010101; fill:none;"/>
	<path d="M 604.0,1135.0 L 626.0,1135.0" style="stroke:#010101; fill:none;"/>
	<path d="M 141.0,1151.0 C 150.832,1145.26 162.689,1137.95 174.0,1136.0" style="stroke:#010101; fill:none;"/>
	<path d="M 181.0,1137.0 L 184.0,1136.0" style="stroke:#010101; fill:none;"/>
	<path d="M 793.0,1137.0 L 795.0,1137.0" style="stroke:#010101; fill:none;"/>
	<path d="M 787.0,1141.0 L 786.0,1138.0" style="stroke:#010101; fill:none;"/>
	<path d="M 790.0,1138.0 L 788.0,1140.0" style="stroke:#010101; fill:none;"/>
	<path d="M 737.0,1164.0 L 784.0,1139.0" style="stroke:#010101; fill:none;"/>
	<path d="M 626.0,1141.0 L 626.0,1148.0" style="stroke:#010101; fill:none;"/>
	<path d="M 786.0,1141.0 L 779.0,1148.0" style="stroke:#010101; fill:none;"/>
	<path d="M 791.0,1142.0 L 787.0,1144.0" style="stroke:#010101; fill:none;"/>
	<path d="M 611.0,1146.0 L 624.0,1143.0" style="stroke:#010101; fill:none;"/>
	<path d="M 782.0,1143.0 L 783.0,1143.0" style="stroke:#010101; fill:none;"/>
	<path d="M 790.0,1143.0 L 797.0,1147.0" style="stroke:#010101; fill:none;"/>
	<path d="M 580.0,1144.0 L 601.0,1149.0" style="stroke:#010101; fill:none;"/>
	<path d="M 783.0,1145.0 L 789.0,1151.0" style="stroke:#010101; fill:none;"/>
	<path d="M 577.0,1148.0 C 582.399,1149.52 586.949,1150.99 592.0,1148.0" style="stroke:#010101; fill:none;"/>
	<path d="M 624.0,1151.0 L 622.237,1169.96 L 627.176,1179.01 L 631.6,1190.61 L 644.0,1197.0" style="stroke:#010101; fill:none;"/>
	<path d="M 613.0,1152.0 L 621.0,1152.0" style="stroke:#010101; fill:none;"/>
	<path d="M 768.0,1155.0 C 772.571,1154.26 774.685,1155.94 778.0,1159.0" style="stroke:#010101; fill:none;"/>
	<path d="M 623.0,1156.0 L 623.0,1157.0" style="stroke:#010101; fill:none;"/>
	<path d="M 734.0,1162.0 C 722.538,1173.12 704.907,1175.18 690.0,1179.16 C 683.24,1180.96 677.089,1183.85 670.0,1184.0" style="stroke:#010101; fill:none;"/>
	<path d="M 166.0,1164.0 C 166.0,1194.12 169.295,1223.29 174.247,1253.0 C 175.682,1261.61 176.138,1278.92 182.513,1285.36 C 193.134,1296.09 203.563,1285.7 214.0,1290.0 L 210.0,1283.0" style="stroke:#010101; fill:none;"/>
	<path d="M 733.0,1164.0 L 735.0,1166.0" style="stroke:#010101; fill:none;"/>
	<path d="M 731.0,1165.0 L 733.0,1167.0" style="stroke:#010101; fill:none;"/>
	<path d="M 756.0,1165.0 L 764.0,1168.0" style="stroke:#010101; fill:none;"/>
	<path d="M 742.0,1170.0 L 745.0,1172.0" style="stroke:#010101; fill:none;"/>
	<path d="M 621.0,1174.0 L 612.0,1194.0" style="stroke:#010101; fill:none;"/>
	<path d="M 727.0,1178.0 L 732.0,1182.0" style="stroke:#010101; fill:none;"/>
	<path d="M 717.0,1183.0 L 718.0,1184.0" style="stroke:#010101; fill:none;"/>
	<path d="M 704.0,1186.0 L 708.0,1189.0" style="stroke:#010101; fill:none;"/>
	<path d="M 679.0,1191.0 L 683.0,1189.0" style="stroke:#010101; fill:none;"/>
	<path d="M 672.0,1194.0 L 670.0,1197.0" style="stroke:#010101; fill:none;"/>
	<path d="M 569.0,1198.0 L 572.0,1234.0" style="stroke:#010101; fill:none;"/>
	<path d="M 827.0,1220.0 C 817.718,1227.08 806.321,1230.93 796.0,1236.26 C 770.792,1249.27 746.747,1262.09 718.0,1264.83 C 700.152,1266.53 683.523,1262.39 666.0,1261.0" style="stroke:#010101; fill:none;"/>
	<path d="M 205.0,1243.0 L 213.0,1260.0 C 237.793,1236.49 284.494,1242.85 311.0,1259.7 C 318.062,1264.18 328.311,1269.26 332.0,1277.0 C 324.271,1276.67 316.618,1274.69 309.0,1273.41 C 306.32,1272.97 301.734,1271.44 299.466,1273.64 C 296.225,1276.78 303.584,1281.85 305.331,1284.01 C 310.489,1290.42 314.988,1298.64 315.61,1307.0 C 316.013,1312.41 313.837,1317.63 315.0,1323.0 C 292.36,1333.73 272.37,1344.54 248.0,1350.84 C 242.147,1352.36 226.512,1356.06 221.603,1351.26 C 218.865,1348.58 220.0,1342.46 220.0,1339.0 C 220.0,1326.62 222.176,1314.76 226.0,1303.0" style="stroke:#010101; fill:none;"/>
	<path d="M 1413.0,1246.0 L 1414.0,1254.0 L 1412.0,1247.0" style="stroke:#010101; fill:none;"/>
	<path d="M 1415.0,1253.0 L 1417.0,1255.0 L 1415.0,1257.0 L 1414.0,1254.0" style="stroke:#010101; fill:none;"/>
	<path d="M 1416.0,1256.0 L 1418.0,1258.0 L 1416.0,1260.0 L 1415.0,1257.0" style="stroke:#010101; fill:none;"/>
	<path d="M 1440.0,1258.0 L 1441.0,1278.0" style="stroke:#010101; fill:none;"/>
	<path d="M 1417.0,1259.0 L 1418.0,1267.0 L 1416.0,1260.0" style="stroke:#010101; fill:none;"/>
	<path d="M 201.0,1266.0 C 206.623,1268.49 209.137,1262.32 214.0,1260.0" style="stroke:#010101; fill:none;"/>
	<path d="M 214.0,1260.0 L 219.0,1266.0 C 214.691,1267.52 212.42,1265.79 209.0,1263.0" style="stroke:#010101; fill:none;"/>
	<path d="M 191.0,1262.0 C 197.312,1271.93 204.24,1272.1 212.571,1278.32 C 215.774,1280.71 218.138,1285.1 221.0,1288.0 C 228.941,1278.85 231.278,1272.85 219.0,1267.0" style="stroke:#010101; fill:none;"/>
	<path d="M 230.0,1274.0 C 247.614,1270.35 265.848,1262.26 284.0,1268.0 L 277.0,1271.0" style="stroke:#010101; fill:none;"/>
	<path d="M 1418.0,1267.0 L 1419.0,1271.0 L 1420.0,1267.0" style="stroke:#010101; fill:none;"/>
	<path d="M 284.0,1268.0 L 297.0,1276.0" style="stroke:#010101; fill:none;"/>
	<path d="M 205.0,1269.0 L 202.0,1273.0" style="stroke:#010101; fill:none;"/>
	<path d="M 205.0,1269.0 L 208.0,1275.0" style="stroke:#010101; fill:none;"/>
	<path d="M 288.0,1270.0 L 284.0,1272.0" style="stroke:#010101; fill:none;"/>
	<path d="M 1420.0,1270.0 C 1426.89,1281.89 1428.94,1298.67 1432.0,1312.0" style="stroke:#010101; fill:none;"/>
	<path d="M 294.0,1271.0 L 299.0,1271.0" style="stroke:#010101; fill:none;"/>
	<path d="M 1419.0,1271.0 L 1429.0,1324.0" style="stroke:#010101; fill:none;"/>
	<path d="M 292.0,1273.0 L 293.0,1277.0 L 295.0,1275.0" style="stroke:#010101; fill:none;"/>
	<path d="M 202.0,1275.0 L 197.0,1283.0 L 189.0,1278.0" style="stroke:#010101; fill:none;"/>
	<path d="M 333.0,1278.0 C 341.782,1280.08 375.04,1292.56 363.0,1305.0" style="stroke:#010101; fill:none;"/>
	<path d="M 216.0,1279.0 L 222.0,1285.0" style="stroke:#010101; fill:none;"/>
	<path d="M 198.0,1283.0 L 195.0,1290.0" style="stroke:#010101; fill:none;"/>
	<path d="M 198.0,1283.0 L 206.0,1288.0" style="stroke:#010101; fill:none;"/>
	<path d="M 182.0,1286.0 C 182.049,1288.36 182.255,1290.65 182.505,1293.0 C 184.222,1309.08 198.44,1298.7 208.0,1303.0 C 209.991,1297.99 207.877,1296.11 205.0,1292.0" style="stroke:#010101; fill:none;"/>
	<path d="M 1441.0,1286.0 L 1441.0,1288.0" style="stroke:#010101; fill:none;"/>
	<path d="M 221.0,1288.0 L 217.0,1299.0 L 210.0,1297.0" style="stroke:#010101; fill:none;"/>
	<path d="M 216.0,1290.0 L 220.0,1288.0" style="stroke:#010101; fill:none;"/>
	<path d="M 214.0,1290.0 L 212.0,1295.0" style="stroke:#010101; fill:none;"/>
	<path d="M 236.0,1291.0 C 229.893,1310.22 235.118,1329.57 246.0,1346.0" style="stroke:#010101; fill:none;"/>
	<path d="M 194.0,1292.0 L 193.0,1302.0" style="stroke:#010101; fill:none;"/>
	<path d="M 273.0,1296.0 C 281.071,1299.77 290.553,1313.79 284.142,1322.67 C 276.965,1332.61 264.698,1326.25 261.069,1317.0 C 259.795,1313.75 259.09,1310.49 259.015,1307.0 C 258.932,1303.06 258.982,1297.71 261.303,1294.32 C 265.655,1287.95 272.079,1294.77 272.0,1300.0" style="stroke:#010101; fill:none;"/>
	<path d="M 1442.0,1292.0 L 1445.0,1326.0" style="stroke:#010101; fill:none;"/>
	<path d="M 202.0,1293.0 L 204.0,1300.0" style="stroke:#010101; fill:none;"/>
	<path d="M 259.0,1293.0 L 261.0,1293.0" style="stroke:#010101; fill:none;"/>
	<path d="M 158.0,1294.0 C 165.919,1298.53 174.472,1305.49 182.0,1298.0" style="stroke:#010101; fill:none;"/>
	<path d="M 214.0,1295.0 L 215.0,1296.0" style="stroke:#010101; fill:none;"/>
	<path d="M 177.0,1297.0 L 180.0,1298.0" style="stroke:#010101; fill:none;"/>
	<path d="M 217.0,1300.0 C 218.485,1307.14 216.006,1309.94 211.0,1315.0 L 205.0,1309.0 L 207.445,1320.98 L 196.0,1331.0 L 206.0,1343.0" style="stroke:#010101; fill:none;"/>
	<path d="M 209.0,1302.0 L 216.0,1301.0" style="stroke:#010101; fill:none;"/>
	<path d="M 185.0,1302.0 L 179.0,1304.0" style="stroke:#010101; fill:none;"/>
	<path d="M 198.0,1303.0 L 203.0,1310.0 L 198.0,1314.0 L 207.0,1324.0" style="stroke:#010101; fill:none;"/>
	<path d="M 207.0,1303.0 L 206.0,1308.0" style="stroke:#010101; fill:none;"/>
	<path d="M 149.0,1308.0 L 171.0,1324.0 C 159.428,1331.41 147.992,1316.94 137.0,1320.0" style="stroke:#010101; fill:none;"/>
	<path d="M 360.0,1310.0 C 349.93,1322.05 329.64,1323.0 315.0,1323.0" style="stroke:#010101; fill:none;"/>
	<path d="M 198.0,1315.0 C 195.485,1318.97 185.596,1331.04 186.832,1335.0 C 189.168,1342.48 202.116,1346.64 200.0,1355.0 L 188.0,1343.0 C 187.94,1347.02 195.956,1358.8 200.0,1355.0" style="stroke:#010101; fill:none;"/>
	<path d="M 211.0,1315.0 L 209.0,1319.0" style="stroke:#010101; fill:none;"/>
	<path d="M 370.0,1316.0 L 370.0,1318.0" style="stroke:#010101; fill:none;"/>
	<path d="M 369.0,1319.0 C 358.125,1375.05 331.531,1427.67 317.37,1483.0 C 313.471,1498.24 308.179,1513.17 307.09,1529.0 C 305.491,1552.21 314.742,1577.34 328.0,1596.0" style="stroke:#010101; fill:none;"/>
	<path d="M 140.0,1321.0 L 142.0,1320.0" style="stroke:#010101; fill:none;"/>
	<path d="M 172.0,1326.0 C 177.854,1326.44 180.998,1330.01 185.0,1334.0 C 177.392,1341.6 167.97,1345.6 157.039,1341.26 C 154.585,1340.29 152.711,1337.27 150.08,1336.92 C 147.4,1336.56 145.619,1339.67 142.985,1339.91 C 139.469,1340.22 135.624,1337.36 132.0,1337.0" style="stroke:#010101; fill:none;"/>
	<path d="M 187.0,1335.0 L 196.0,1331.0" style="stroke:#010101; fill:none;"/>
	<path d="M 139.0,1332.0 L 147.0,1335.0" style="stroke:#010101; fill:none;"/>
	<path d="M 1429.0,1332.0 L 1429.0,1333.0" style="stroke:#010101; fill:none;"/>
	<path d="M 323.0,1336.0 L 330.0,1338.0" style="stroke:#010101; fill:none;"/>
	<path d="M 1430.0,1336.0 C 1437.32,1392.66 1446.0,1449.75 1446.0,1507.0" style="stroke:#010101; fill:none;"/>
	<path d="M 154.0,1340.0 L 145.0,1341.0" style="stroke:#010101; fill:none;"/>
	<path d="M 188.0,1340.0 L 188.0,1343.0" style="stroke:#010101; fill:none;"/>
	<path d="M 309.0,1344.0 L 311.0,1340.0 L 319.0,1349.0" style="stroke:#010101; fill:none;"/>
	<path d="M 298.0,1345.0 L 296.0,1349.0" style="stroke:#010101; fill:none;"/>
	<path d="M 186.0,1347.0 C 182.799,1353.86 177.594,1355.51 171.0,1358.0 L 181.0,1368.0 C 174.742,1373.2 172.704,1376.41 166.0,1370.0 C 170.48,1368.13 173.007,1368.16 177.0,1371.0" style="stroke:#010101; fill:none;"/>
	<path d="M 187.0,1351.0 C 187.03,1359.48 190.942,1365.4 199.0,1359.0" style="stroke:#010101; fill:none;"/>
	<path d="M 263.0,1359.0 L 284.0,1352.0" style="stroke:#010101; fill:none;"/>
	<path d="M 154.0,1360.0 L 171.0,1358.0" style="stroke:#010101; fill:none;"/>
	<path d="M 284.0,1358.0 L 283.0,1359.0" style="stroke:#010101; fill:none;"/>
	<path d="M 186.0,1360.0 L 182.0,1368.0" style="stroke:#010101; fill:none;"/>
	<path d="M 259.0,1362.0 L 259.0,1371.0" style="stroke:#010101; fill:none;"/>
	<path d="M 221.0,1372.0 L 232.0,1364.0" style="stroke:#010101; fill:none;"/>
	<path d="M 244.0,1376.0 L 255.0,1364.0" style="stroke:#010101; fill:none;"/>
	<path d="M 229.0,1375.0 L 241.0,1366.0" style="stroke:#010101; fill:none;"/>
	<path d="M 203.0,1367.0 L 200.0,1372.0" style="stroke:#010101; fill:none;"/>
	<path d="M 148.0,1371.0 L 166.0,1370.0" style="stroke:#010101; fill:none;"/>
	<path d="M 147.0,1380.0 L 170.0,1377.0" style="stroke:#010101; fill:none;"/>
	<path d="M 208.0,1384.0 C 204.877,1399.14 206.55,1412.99 209.79,1428.0 C 210.832,1432.83 211.363,1440.51 214.024,1444.66 C 218.46,1451.56 232.345,1457.79 240.0,1460.0" style="stroke:#010101; fill:none;"/>
	<path d="M 315.0,1414.0 C 307.877,1423.27 297.195,1429.81 288.0,1436.89 C 277.452,1445.01 266.684,1455.36 254.0,1460.0" style="stroke:#010101; fill:none;"/>
	<path d="M 214.0,1448.0 C 219.558,1491.03 210.27,1534.91 206.17,1578.0 C 202.073,1621.05 205.585,1661.38 211.0,1704.0" style="stroke:#010101; fill:none;"/>
	<path d="M 1827.0,1454.0 C 1799.71,1505.78 1789.74,1563.36 1782.84,1621.0 C 1781.05,1636.0 1779.36,1650.9 1778.99,1666.0 C 1778.85,1671.55 1777.39,1676.54 1779.0,1682.0" style="stroke:#010101; fill:none;"/>
	<path d="M 536.0,1462.0 C 569.221,1462.0 606.362,1476.84 628.0,1503.0" style="stroke:#010101; fill:none;"/>
	<path d="M 1809.0,1481.0 C 1806.33,1496.5 1797.04,1512.58 1790.85,1527.0 C 1777.95,1557.06 1765.14,1587.18 1751.69,1617.0 C 1744.8,1632.3 1734.74,1648.79 1730.5,1665.0 C 1726.28,1681.07 1728.0,1702.4 1728.0,1719.0" style="stroke:#010101; fill:none;"/>
	<path d="M 1822.0,1490.0 L 1822.0,1491.0" style="stroke:#010101; fill:none;"/>
	<path d="M 1451.0,1493.0 L 1451.0,1512.0" style="stroke:#010101; fill:none;"/>
	<path d="M 1793.0,1496.0 C 1774.24,1551.12 1738.13,1599.39 1720.0,1655.0" style="stroke:#010101; fill:none;"/>
	<path d="M 1820.0,1500.0 L 1820.0,1501.0" style="stroke:#010101; fill:none;"/>
	<path d="M 1458.0,1501.0 L 1458.0,1505.0" style="stroke:#010101; fill:none;"/>
	<path d="M 1534.0,1501.0 L 1539.0,1510.0" style="stroke:#010101; fill:none;"/>
	<path d="M 1458.0,1507.0 L 1461.09,1543.0 L 1467.0,1602.0" style="stroke:#010101; fill:none;"/>
	<path d="M 1771.0,1510.0 L 1737.58,1587.0 L 1712.0,1652.0" style="stroke:#010101; fill:none;"/>
	<path d="M 435.0,1515.0 C 459.291,1522.77 483.973,1523.84 509.0,1527.0" style="stroke:#010101; fill:none;"/>
	<path d="M 1817.0,1519.0 L 1817.0,1520.0" style="stroke:#010101; fill:none;"/>
	<path d="M 1800.0,1524.0 L 1798.0,1527.0" style="stroke:#010101; fill:none;"/>
	<path d="M 1796.0,1527.0 C 1788.36,1545.62 1778.1,1563.06 1776.19,1583.0 C 1775.56,1589.63 1771.88,1596.7 1775.0,1603.0" style="stroke:#010101; fill:none;"/>
	<path d="M 1815.0,1536.0 L 1815.0,1538.0" style="stroke:#010101; fill:none;"/>
	<path d="M 1800.0,1866.0 C 1797.57,1847.92 1792.99,1830.24 1791.17,1812.0 C 1785.02,1750.48 1784.17,1686.44 1791.72,1625.0 C 1794.01,1606.32 1795.52,1587.49 1799.2,1569.0 C 1800.57,1562.1 1800.94,1553.23 1806.0,1548.0" style="stroke:#010101; fill:none;"/>
	<path d="M 644.0,1553.0 C 645.34,1561.57 639.827,1570.12 633.985,1575.99 C 620.936,1589.08 600.953,1598.94 584.0,1606.0" style="stroke:#010101; fill:none;"/>
	<path d="M 514.0,1564.0 L 528.0,1566.0 C 524.148,1569.49 516.459,1568.83 514.0,1564.0" style="stroke:#010101; fill:none;"/>
	<path d="M 1809.0,1564.0 L 1809.0,1566.0" style="stroke:#010101; fill:none;"/>
	<path d="M 549.0,1578.0 C 529.878,1572.33 499.812,1583.29 486.0,1566.0 L 513.0,1565.0" style="stroke:#010101; fill:none;"/>
	<path d="M 517.0,1565.0 L 517.0,1567.0" style="stroke:#010101; fill:none;"/>
	<path d="M 1603.0,1570.0 C 1620.31,1576.53 1636.29,1584.8 1655.0,1584.0 C 1654.81,1579.58 1651.69,1571.23 1654.07,1567.32 C 1657.53,1561.63 1680.56,1565.86 1683.44,1571.06 C 1694.43,1590.87 1695.07,1619.97 1696.04,1642.0 C 1697.65,1678.74 1697.65,1715.23 1696.04,1752.0 C 1694.49,1787.48 1697.12,1823.52 1697.99,1859.0 C 1699.7,1929.07 1700.98,1999.03 1704.04,2069.0 C 1705.71,2107.09 1709.48,2144.96 1712.09,2183.0 C 1712.98,2195.98 1716.33,2217.91 1707.0,2228.0" style="stroke:#010101; fill:none;"/>
	<path d="M 521.0,1583.0 C 518.806,1584.27 515.495,1582.39 513.0,1581.83 C 505.971,1580.27 497.05,1581.0 491.0,1576.7 C 486.547,1573.54 475.256,1568.9 486.0,1566.0" style="stroke:#010101; fill:none;"/>
	<path d="M 528.0,1566.0 C 538.564,1566.22 554.515,1571.5 561.181,1580.22 C 571.059,1593.16 554.733,1606.49 543.0,1609.0" style="stroke:#010101; fill:none;"/>
	<path d="M 473.0,1609.0 C 463.656,1608.26 438.166,1605.59 440.423,1591.01 C 441.029,1587.1 445.204,1584.96 448.0,1582.69 C 457.098,1575.32 468.262,1569.58 480.0,1568.0" style="stroke:#010101; fill:none;"/>
	<path d="M 1808.0,1568.0 C 1805.97,1593.7 1799.66,1619.25 1797.17,1645.0 C 1792.85,1689.6 1793.0,1734.17 1793.0,1779.0" style="stroke:#010101; fill:none;"/>
	<path d="M 528.0,1570.0 L 538.0,1572.0" style="stroke:#010101; fill:none;"/>
	<path d="M 490.0,1575.0 L 492.0,1574.0" style="stroke:#010101; fill:none;"/>
	<path d="M 1778.0,1575.0 L 1776.0,1578.0" style="stroke:#010101; fill:none;"/>
	<path d="M 469.0,1577.0 L 488.0,1576.0" style="stroke:#010101; fill:none;"/>
	<path d="M 1775.0,1577.0 L 1740.0,1657.0" style="stroke:#010101; fill:none;"/>
	<path d="M 479.0,1579.0 C 487.923,1584.54 507.422,1588.11 517.0,1583.0" style="stroke:#010101; fill:none;"/>
	<path d="M 522.0,1584.0 L 545.0,1583.0" style="stroke:#010101; fill:none;"/>
	<path d="M 1727.0,1583.0 L 1721.0,1598.0" style="stroke:#010101; fill:none;"/>
	<path d="M 1656.0,1585.0 C 1663.6,1593.07 1662.09,1606.84 1663.29,1617.0 C 1666.51,1644.29 1668.84,1671.58 1670.04,1699.0 C 1673.41,1776.05 1667.65,1853.15 1672.91,1930.0 C 1674.02,1946.18 1674.88,1962.77 1675.0,1979.0 C 1675.06,1987.93 1673.46,1998.41 1676.0,2007.0 C 1686.26,2001.94 1682.37,1992.74 1682.19,1984.0 C 1682.06,1976.92 1686.24,1970.05 1686.09,1963.0 C 1686.01,1959.21 1683.5,1955.8 1683.0,1952.0" style="stroke:#010101; fill:none;"/>
	<path d="M 1560.0,1597.0 L 1560.0,1599.0" style="stroke:#010101; fill:none;"/>
	<path d="M 1675.0,1597.0 L 1689.0,1599.0" style="stroke:#010101; fill:none;"/>
	<path d="M 1686.0,1599.0 L 1680.0,1607.0" style="stroke:#010101; fill:none;"/>
	<path d="M 1772.0,1602.0 C 1771.7,1616.67 1769.17,1631.34 1769.0,1646.0 C 1768.5,1690.11 1771.92,1735.11 1776.17,1779.0 C 1780.67,1825.47 1790.79,1870.87 1797.0,1917.0" style="stroke:#010101; fill:none;"/>
	<path d="M 1649.0,1603.0 L 1651.0,1607.0" style="stroke:#010101; fill:none;"/>
	<path d="M 1648.0,1605.0 L 1645.0,1617.0" style="stroke:#010101; fill:none;"/>
	<path d="M 1559.0,1608.0 L 1559.0,1609.0" style="stroke:#010101; fill:none;"/>
	<path d="M 1558.0,1612.0 L 1535.0,1714.0" style="stroke:#010101; fill:none;"/>
	<path d="M 1658.0,1617.0 C 1657.85,1623.87 1655.97,1632.04 1651.0,1637.0 L 1650.0,1624.0" style="stroke:#010101; fill:none;"/>
	<path d="M 343.0,1619.0 C 356.59,1632.59 372.225,1644.8 391.0,1650.0 L 390.0,1654.0 C 392.069,1652.66 392.981,1651.77 391.0,1650.0" style="stroke:#010101; fill:none;"/>
	<path d="M 1682.0,1621.0 C 1684.46,1626.23 1679.27,1626.78 1675.0,1628.0" style="stroke:#010101; fill:none;"/>
	<path d="M 343.0,1625.0 C 354.076,1647.57 376.511,1659.38 399.0,1668.0" style="stroke:#010101; fill:none;"/>
	<path d="M 1751.0,1632.0 C 1755.43,1640.3 1752.01,1651.01 1752.0,1660.0 C 1751.96,1685.95 1749.25,1712.27 1746.0,1738.0" style="stroke:#010101; fill:none;"/>
	<path d="M 1730.0,1635.0 L 1730.0,1663.0" style="stroke:#010101; fill:none;"/>
	<path d="M 1677.0,1637.0 C 1681.56,1637.41 1684.61,1638.39 1686.0,1643.0" style="stroke:#010101; fill:none;"/>
	<path d="M 387.0,1651.0 L 389.0,1653.0" style="stroke:#010101; fill:none;"/>
	<path d="M 394.0,1651.0 L 397.0,1652.0 L 393.0,1655.0" style="stroke:#010101; fill:none;"/>
	<path d="M 1675.0,1651.0 L 1689.0,1667.0" style="stroke:#010101; fill:none;"/>
	<path d="M 397.0,1652.0 L 416.0,1657.0 C 409.37,1660.53 401.528,1657.89 395.0,1655.0" style="stroke:#010101; fill:none;"/>
	<path d="M 416.0,1657.0 L 433.0,1658.0" style="stroke:#010101; fill:none;"/>
	<path d="M 425.0,1661.0 C 438.143,1661.6 453.724,1670.17 464.0,1678.0" style="stroke:#010101; fill:none;"/>
	<path d="M 1677.0,1676.0 C 1683.18,1681.12 1689.87,1683.88 1689.0,1693.0" style="stroke:#010101; fill:none;"/>
	<path d="M 462.0,1683.0 C 461.698,1697.18 452.6,1709.37 443.0,1719.0" style="stroke:#010101; fill:none;"/>
	<path d="M 213.0,1711.0 C 213.726,1727.85 219.177,1748.61 226.0,1764.0" style="stroke:#010101; fill:none;"/>
	<path d="M 1678.0,1712.0 C 1685.8,1716.53 1684.9,1720.0 1679.0,1726.0" style="stroke:#010101; fill:none;"/>
	<path d="M 810.0,1716.0 C 824.884,1724.3 850.574,1747.0 855.0,1764.0" style="stroke:#010101; fill:none;"/>
	<path d="M 1677.0,1746.0 C 1682.46,1750.27 1680.36,1753.89 1677.0,1759.0" style="stroke:#010101; fill:none;"/>
	<path d="M 434.0,1784.0 C 473.364,1773.81 511.872,1759.04 552.0,1752.26 C 581.174,1747.33 612.575,1752.0 642.0,1752.0 C 691.476,1752.0 746.598,1747.34 795.0,1759.0" style="stroke:#010101; fill:none;"/>
	<path d="M 732.0,1784.0 L 764.0,1776.09 L 799.0,1774.89 L 820.0,1760.0" style="stroke:#010101; fill:none;"/>
	<path d="M 1522.0,1766.0 C 1493.1,1809.73 1462.07,1852.35 1431.58,1895.0 C 1414.45,1918.96 1393.52,1943.22 1381.0,1970.0" style="stroke:#010101; fill:none;"/>
	<path d="M 1547.0,1780.0 L 1405.0,1977.0" style="stroke:#010101; fill:none;"/>
	<path d="M 1683.0,1784.0 C 1687.77,1789.7 1685.78,1793.26 1682.0,1799.0" style="stroke:#010101; fill:none;"/>
	<path d="M 1794.0,1789.0 L 1794.0,1791.0" style="stroke:#010101; fill:none;"/>
	<path d="M 386.0,1837.0 C 390.563,1821.16 405.442,1795.91 422.0,1791.0" style="stroke:#010101; fill:none;"/>
	<path d="M 467.0,1871.0 L 473.313,1861.84 L 486.0,1857.54 L 529.0,1844.78 L 687.0,1794.0" style="stroke:#010101; fill:none;"/>
	<path d="M 499.0,1962.0 C 525.661,1947.8 555.472,1938.37 583.0,1925.82 C 625.96,1906.24 667.304,1883.89 707.0,1858.31 C 725.361,1846.48 743.463,1833.87 760.0,1819.57 C 764.991,1815.26 771.217,1803.89 778.0,1804.0" style="stroke:#010101; fill:none;"/>
	<path d="M 1552.0,1809.0 C 1527.95,1837.2 1508.18,1870.07 1486.28,1900.0 C 1481.12,1907.05 1475.93,1914.06 1470.63,1921.0 C 1468.93,1923.22 1466.58,1927.54 1464.0,1925.0" style="stroke:#010101; fill:none;"/>
	<path d="M 1677.0,1823.0 C 1683.99,1828.5 1683.02,1833.91 1682.0,1842.0" style="stroke:#010101; fill:none;"/>
	<path d="M 385.0,1848.0 C 386.066,1861.05 393.073,1874.13 400.0,1885.0" style="stroke:#010101; fill:none;"/>
	<path d="M 440.0,1863.0 L 471.0,1863.0" style="stroke:#010101; fill:none;"/>
	<path d="M 455.0,1868.0 L 460.0,1868.0" style="stroke:#010101; fill:none;"/>
	<path d="M 470.0,1868.0 C 473.88,1878.13 454.607,1891.67 448.0,1897.96 C 444.574,1901.22 441.835,1903.79 437.0,1903.0 C 432.257,1918.04 432.0,1934.38 432.0,1950.0" style="stroke:#010101; fill:none;"/>
	<path d="M 1801.0,1869.0 L 1801.0,1870.0" style="stroke:#010101; fill:none;"/>
	<path d="M 411.0,1887.0 L 438.0,1902.0" style="stroke:#010101; fill:none;"/>
	<path d="M 1804.0,1892.0 L 1804.0,1893.0" style="stroke:#010101; fill:none;"/>
	<path d="M 1414.0,1893.0 C 1406.23,1904.02 1394.79,1913.01 1384.96,1922.17 C 1366.59,1939.3 1347.42,1955.51 1328.0,1971.42 C 1261.27,2026.11 1186.85,2071.24 1113.0,2115.55 C 1080.99,2134.75 1047.21,2153.06 1017.0,2175.0" style="stroke:#010101; fill:none;"/>
	<path d="M 1463.0,1929.0 L 1407.0,1999.0" style="stroke:#010101; fill:none;"/>
	<path d="M 1479.0,1932.0 L 1384.0,2059.0" style="stroke:#010101; fill:none;"/>
	<path d="M 1685.0,1933.0 C 1690.61,1935.77 1691.69,1941.27 1693.0,1947.0" style="stroke:#010101; fill:none;"/>
	<path d="M 325.0,1941.0 L 326.0,1942.0" style="stroke:#010101; fill:none;"/>
	<path d="M 1806.0,1941.0 L 1806.0,1947.0" style="stroke:#010101; fill:none;"/>
	<path d="M 327.0,1944.0 L 328.0,1946.0" style="stroke:#010101; fill:none;"/>
	<path d="M 452.0,1971.0 L 468.0,1972.0" style="stroke:#010101; fill:none;"/>
	<path d="M 491.0,2051.0 C 532.907,2026.54 580.848,2000.28 629.0,1991.58 C 645.202,1988.65 667.35,1985.4 683.0,1992.0" style="stroke:#010101; fill:none;"/>
	<path d="M 443.0,1991.0 C 460.914,1996.16 475.519,2008.15 495.0,2009.0" style="stroke:#010101; fill:none;"/>
	<path d="M 1807.0,2000.0 L 1807.0,2001.0" style="stroke:#010101; fill:none;"/>
	<path d="M 1676.0,2007.0 L 1681.91,2065.0 L 1682.0,2133.0 L 1682.0,2187.0 L 1684.0,2220.0 C 1687.46,2214.56 1693.53,2206.62 1693.64,2200.0 C 1693.74,2194.08 1690.6,2189.56 1685.0,2193.0" style="stroke:#010101; fill:none;"/>
	<path d="M 1677.0,2018.0 C 1683.58,2018.59 1689.57,2021.94 1690.78,2029.0 C 1692.42,2038.66 1689.75,2050.26 1689.09,2060.0 C 1688.64,2066.53 1691.19,2072.59 1690.9,2079.0 C 1690.58,2085.99 1687.59,2092.31 1686.0,2099.0" style="stroke:#010101; fill:none;"/>
	<path d="M 444.0,2140.0 L 445.0,2141.0" style="stroke:#010101; fill:none;"/>
	<path d="M 478.0,2181.0 L 483.0,2188.0" style="stroke:#010101; fill:none;"/>
	<path d="M 622.0,2201.0 C 651.219,2210.89 682.857,2219.33 714.0,2218.95 C 733.229,2218.71 756.225,2211.06 775.0,2215.0" style="stroke:#010101; fill:none;"/>
	<path d="M 750.0,2298.0 C 802.307,2280.3 860.973,2266.32 908.0,2236.68 C 920.561,2228.76 930.797,2219.02 942.0,2209.43 C 945.602,2206.34 950.256,2200.86 955.0,2204.0" style="stroke:#010101; fill:none;"/>
	<path d="M 1684.0,2220.0 C 1686.62,2230.1 1691.55,2232.82 1689.0,2244.0" style="stroke:#010101; fill:none;"/>
	<path d="M 1684.0,2225.0 L 1691.91,2357.0 L 1695.87,2428.0 L 1695.09,2457.0 L 1704.83,2530.0 L 1707.17,2590.0 L 1726.56,2698.0 L 1729.09,2780.0 L 1738.0,2819.0" style="stroke:#010101; fill:none;"/>
	<path d="M 1713.0,2225.0 L 1718.09,2400.0 L 1722.17,2444.0 L 1723.64,2463.0 L 1712.62,2486.0 L 1714.0,2507.0" style="stroke:#010101; fill:none;"/>
	<path d="M 1706.0,2233.0 L 1712.0,2243.0" style="stroke:#010101; fill:none;"/>
	<path d="M 526.0,2238.0 L 530.0,2242.0" style="stroke:#010101; fill:none;"/>
	<path d="M 1685.0,2262.0 C 1691.96,2264.43 1691.01,2269.65 1691.0,2276.0" style="stroke:#010101; fill:none;"/>
	<path d="M 1686.0,2289.0 L 1698.0,2300.0" style="stroke:#010101; fill:none;"/>
	<path d="M 1769.0,2303.0 C 1772.62,2305.73 1769.06,2310.31 1768.0,2314.0" style="stroke:#010101; fill:none;"/>
	<path d="M 1869.0,2321.0 L 1881.0,2361.0" style="stroke:#010101; fill:none;"/>
	<path d="M 679.0,2330.0 L 680.0,2330.0" style="stroke:#010101; fill:none;"/>
	<path d="M 686.0,2331.0 L 687.0,2331.0" style="stroke:#010101; fill:none;"/>
	<path d="M 706.0,2333.0 L 707.0,2333.0" style="stroke:#010101; fill:none;"/>
	<path d="M 1827.0,2336.0 L 1830.0,2336.0" style="stroke:#010101; fill:none;"/>
	<path d="M 799.0,2339.0 L 800.0,2339.0" style="stroke:#010101; fill:none;"/>
	<path d="M 803.0,2340.0 L 804.0,2340.0" style="stroke:#010101; fill:none;"/>
	<path d="M 808.0,2342.0 L 810.0,2346.0" style="stroke:#010101; fill:none;"/>
	<path d="M 1876.0,2353.0 C 1876.03,2394.32 1887.71,2435.12 1900.67,2474.0 C 1915.13,2517.39 1929.81,2562.47 1955.08,2601.0 C 2038.26,2727.82 2172.54,2803.4 2290.0,2894.0" style="stroke:#010101; fill:none;"/>
	<path d="M 1702.0,2376.0 C 1707.52,2377.85 1704.6,2382.84 1703.0,2387.0" style="stroke:#010101; fill:none;"/>
	<path d="M 1707.0,2462.0 C 1714.6,2463.57 1722.11,2467.93 1724.43,2476.0 C 1727.5,2486.72 1726.0,2501.83 1726.0,2513.0 C 1726.0,2530.45 1727.59,2547.64 1728.0,2565.0 C 1728.22,2574.42 1734.67,2591.08 1727.0,2598.0 L 1712.0,2574.0" style="stroke:#010101; fill:none;"/>
	<path d="M 1084.0,2490.0 C 1058.32,2570.32 1036.23,2653.45 1000.0,2730.0" style="stroke:#010101; fill:none;"/>
	<path d="M 1713.0,2520.0 L 1719.0,2536.0" style="stroke:#010101; fill:none;"/>
	<path d="M 1732.0,2597.0 C 1732.73,2613.99 1738.21,2630.99 1739.83,2648.0 C 1741.06,2660.94 1739.94,2674.09 1741.17,2687.0 C 1743.97,2716.4 1747.55,2745.6 1749.91,2775.0 C 1751.07,2789.34 1758.36,2804.86 1757.74,2819.0 C 1757.27,2829.7 1747.87,2831.12 1740.0,2827.0" style="stroke:#010101; fill:none;"/>
	<path d="M 1727.0,2598.0 L 1727.0,2611.0" style="stroke:#010101; fill:none;"/>
	<path d="M 789.0,2650.0 L 780.0,2667.0" style="stroke:#010101; fill:none;"/>
	<path d="M 808.0,2655.0 L 806.0,2741.0 L 830.0,2710.0" style="stroke:#010101; fill:none;"/>
	<path d="M 791.0,2685.0 C 782.029,2701.1 767.775,2714.32 755.464,2727.83 C 735.545,2749.68 716.566,2771.44 700.0,2796.0" style="stroke:#010101; fill:none;"/>
	<path d="M 727.0,2712.0 L 764.0,2686.0" style="stroke:#010101; fill:none;"/>
	<path d="M 795.0,2708.0 C 776.903,2731.75 753.833,2752.22 734.421,2775.0 C 726.467,2784.34 716.277,2794.32 712.0,2806.0" style="stroke:#010101; fill:none;"/>
	<path d="M 705.0,2726.0 L 716.0,2722.0" style="stroke:#010101; fill:none;"/>
	<path d="M 796.0,2726.0 C 783.734,2755.31 755.313,2779.22 734.089,2802.0 C 722.224,2814.74 712.004,2830.55 699.0,2842.0" style="stroke:#010101; fill:none;"/>
	<path d="M 835.0,2728.0 L 772.54,2810.0 L 720.0,2874.0" style="stroke:#010101; fill:none;"/>
	<path d="M 707.0,2729.0 C 689.859,2756.33 671.451,2782.81 664.0,2815.0" style="stroke:#010101; fill:none;"/>
	<path d="M 805.0,2742.0 L 804.0,2768.0" style="stroke:#010101; fill:none;"/>
	<path d="M 1005.0,2743.0 C 1004.06,2750.01 998.705,2754.13 994.039,2759.0 C 985.054,2768.39 975.444,2777.03 966.0,2785.96 C 928.054,2821.85 888.482,2854.52 854.0,2894.0" style="stroke:#010101; fill:none;"/>
	<path d="M 677.0,2746.0 C 657.946,2767.23 651.898,2802.35 644.575,2829.0 C 638.528,2851.01 629.26,2872.1 623.0,2894.0" style="stroke:#010101; fill:none;"/>
	<path d="M 710.0,2858.0 L 775.728,2782.0 L 804.0,2747.0" style="stroke:#010101; fill:none;"/>
	<path d="M 858.0,2755.0 L 818.729,2803.0 L 789.792,2837.0 L 771.0,2877.0" style="stroke:#010101; fill:none;"/>
	<path d="M 639.0,2765.0 L 654.0,2756.0" style="stroke:#010101; fill:none;"/>
	<path d="M 955.0,2760.0 L 865.0,2862.0" style="stroke:#010101; fill:none;"/>
	<path d="M 769.0,2894.0 L 841.826,2814.04 L 883.0,2771.0" style="stroke:#010101; fill:none;"/>
	<path d="M 416.0,2894.0 C 425.541,2893.99 432.846,2888.63 441.0,2884.0 C 454.826,2876.15 468.442,2868.12 482.0,2859.81 C 529.892,2830.47 578.252,2797.82 629.0,2774.0" style="stroke:#010101; fill:none;"/>
	<path d="M 803.0,2776.0 C 802.966,2788.32 801.789,2803.97 796.0,2815.0" style="stroke:#010101; fill:none;"/>
	<path d="M 909.0,2778.0 C 879.975,2816.13 843.5,2850.79 810.0,2885.0" style="stroke:#010101; fill:none;"/>
	<path d="M 1404.0,2805.0 L 1415.0,2810.0" style="stroke:#010101; fill:none;"/>
	<path d="M 1403.0,2810.0 L 1408.0,2814.0" style="stroke:#010101; fill:none;"/>
	<path d="M 1399.0,2821.0 L 1406.0,2814.0" style="stroke:#010101; fill:none;"/>
	<path d="M 653.0,2830.0 L 652.0,2835.0" style="stroke:#010101; fill:none;"/>
	<path d="M 651.0,2834.0 L 648.0,2849.0" style="stroke:#010101; fill:none;"/>
	<path d="M 737.0,2894.0 L 767.961,2861.0 L 787.0,2841.0" style="stroke:#010101; fill:none;"/>
	<path d="M 657.0,2846.0 L 650.0,2887.0" style="stroke:#010101; fill:none;"/>
	<path d="M 644.0,2868.0 L 651.0,2868.0" style="stroke:#010101; fill:none;"/>
	<path d="M 852.0,2874.0 L 843.0,2883.0" style="stroke:#010101; fill:none;"/>
	<path d="M 642.0,2883.0 L 644.0,2882.0" style="stroke:#010101; fill:none;"/>
	<path d="M 842.0,2885.0 L 833.0,2894.0" style="stroke:#010101; fill:none;"/>
	<path d="M 806.0,2889.0 L 802.0,2894.0" style="stroke:#010101; fill:none;"/>
</svg>
