<?xml version="1.0" ?>
<svg baseProfile="full" height="2894" version="1.1" width="2447" xmlns="http://www.w3.org/2000/svg" xmlns:ev="http://www.w3.org/2001/xml-events" xmlns:xlink="http://www.w3.org/1999/xlink">
	<defs/>
	<path d="M 2142.0,768.0 L 2149.0,770.0" style="stroke:#010101; fill:none;"/>
	<path d="M 2159.0,781.0 L 2186.0,789.0" style="stroke:#010101; fill:none;"/>
	<path d="M 1735.0,806.0 C 1751.18,806.0 1775.05,803.69 1790.0,810.0" style="stroke:#010101; fill:none;"/>
	<path d="M 2229.0,813.0 L 2231.0,813.0" style="stroke:#010101; fill:none;"/>
	<path d="M 2234.0,815.0 L 2238.0,817.0" style="stroke:#010101; fill:none;"/>
	<path d="M 2243.0,819.0 L 2245.0,820.0" style="stroke:#010101; fill:none;"/>
	<path d="M 2263.0,832.0 C 2302.53,848.435 2340.59,869.616 2377.0,892.0" style="stroke:#010101; fill:none;"/>
	<path d="M 1657.0,833.0 L 1718.0,836.911 L 1768.0,842.0" style="stroke:#010101; fill:none;"/>
	<path d="M 1606.0,854.0 C 1625.79,854.011 1650.82,851.432 1670.0,856.0" style="stroke:#010101; fill:none;"/>
	<path d="M 2291.0,864.0 L 2341.0,880.0" style="stroke:#010101; fill:none;"/>
	<path d="M 1551.0,868.0 L 1589.0,867.0" style="stroke:#010101; fill:none;"/>
	<path d="M 1549.0,868.0 L 1548.0,869.0" style="stroke:#010101; fill:none;"/>
	<path d="M 2343.0,881.0 L 2344.0,882.0" style="stroke:#010101; fill:none;"/>
	<path d="M 2348.0,883.0 L 2350.0,884.0" style="stroke:#010101; fill:none;"/>
	<path d="M 2355.0,901.0 C 2379.0,907.05 2406.05,925.714 2426.0,940.0" style="stroke:#010101; fill:none;"/>
	<path d="M 2389.0,926.0 L 2446.0,961.0" style="stroke:#010101; fill:none;"/>
	<path d="M 1373.0,957.0 L 1419.0,934.0" style="stroke:#010101; fill:none;"/>
	<path d="M 2393.0,936.0 L 2446.0,968.0" style="stroke:#010101; fill:none;"/>
	<path d="M 2432.0,944.0 L 2435.0,946.0" style="stroke:#010101; fill:none;"/>
	<path d="M 2409.0,954.0 L 2446.0,980.0" style="stroke:#010101; fill:none;"/>
	<path d="M 1369.0,959.0 L 1365.0,962.0" style="stroke:#010101; fill:none;"/>
	<path d="M 2439.0,960.0 L 2441.0,960.0" style="stroke:#010101; fill:none;"/>
	<path d="M 1369.0,962.0 L 1372.0,962.0" style="stroke:#010101; fill:none;"/>
	<path d="M 2411.0,971.0 L 2445.0,994.0" style="stroke:#010101; fill:none;"/>
	<path d="M 1309.0,995.0 L 1310.0,995.0" style="stroke:#010101; fill:none;"/>
	<path d="M 1302.0,1000.0 L 1282.0,1015.0 L 1291.0,1016.0" style="stroke:#010101; fill:none;"/>
	<path d="M 2432.0,1001.0 L 2446.0,1011.0" style="stroke:#010101; fill:none;"/>
	<path d="M 1294.0,1008.0 L 1315.0,1009.0" style="stroke:#010101; fill:none;"/>
	<path d="M 1292.0,1020.0 L 1265.0,1038.0" style="stroke:#010101; fill:none;"/>
	<path d="M 1276.0,1025.0 L 1280.0,1025.0" style="stroke:#010101; fill:none;"/>
	<path d="M 1256.0,1051.0 L 1259.0,1052.0" style="stroke:#010101; fill:none;"/>
	<path d="M 1266.0,1058.0 L 1272.0,1056.0" style="stroke:#010101; fill:none;"/>
	<path d="M 1278.0,1061.0 C 1221.48,1095.6 1171.56,1135.23 1123.0,1180.0" style="stroke:#010101; fill:none;"/>
	<path d="M 1159.0,1137.0 C 1180.06,1117.6 1203.9,1095.99 1229.0,1082.0" style="stroke:#010101; fill:none;"/>
	<path d="M 1269.0,1092.0 L 1264.0,1094.0" style="stroke:#010101; fill:none;"/>
	<path d="M 1155.0,1184.0 C 1157.22,1182.82 1152.39,1186.15 1153.0,1184.67 C 1156.15,1177.02 1167.93,1169.48 1174.0,1164.0 C 1200.41,1140.16 1230.96,1111.02 1263.0,1095.0" style="stroke:#010101; fill:none;"/>
	<path d="M 1264.0,1097.0 L 1259.0,1102.0" style="stroke:#010101; fill:none;"/>
	<path d="M 1726.0,1099.0 L 1750.0,1107.96 L 1773.0,1114.0" style="stroke:#010101; fill:none;"/>
	<path d="M 1744.0,1106.0 L 1746.0,1108.0" style="stroke:#010101; fill:none;"/>
	<path d="M 1765.0,1109.0 L 1772.0,1112.0" style="stroke:#010101; fill:none;"/>
	<path d="M 1750.0,1110.0 L 1822.0,1150.0" style="stroke:#010101; fill:none;"/>
	<path d="M 1803.0,1110.0 C 1844.96,1123.68 1889.34,1147.07 1925.0,1173.0 C 1916.14,1177.66 1909.3,1163.49 1900.0,1167.0 L 1960.9,1217.28 L 1996.0,1251.0 C 1993.32,1257.92 2006.56,1274.81 2010.88,1281.0 C 2027.87,1305.32 2034.6,1332.83 2045.0,1360.0" style="stroke:#010101; fill:none;"/>
	<path d="M 1774.0,1113.0 L 1778.0,1114.0 L 1774.0,1114.0" style="stroke:#010101; fill:none;"/>
	<path d="M 1779.0,1114.0 L 1778.0,1116.0" style="stroke:#010101; fill:none;"/>
	<path d="M 1780.0,1116.0 C 1787.1,1117.19 1793.8,1125.0 1800.0,1128.8 C 1818.24,1139.96 1836.46,1151.31 1854.0,1163.57 C 1860.49,1168.1 1871.88,1180.19 1880.0,1179.0 L 1849.0,1155.48 L 1797.0,1123.0" style="stroke:#010101; fill:none;"/>
	<path d="M 1780.0,1116.0 L 1783.0,1118.0" style="stroke:#010101; fill:none;"/>
	<path d="M 1786.0,1117.0 C 1796.02,1118.48 1818.03,1121.32 1825.0,1129.0" style="stroke:#010101; fill:none;"/>
	<path d="M 1826.0,1128.0 C 1834.62,1129.56 1843.16,1135.86 1851.0,1139.75 C 1867.35,1147.87 1886.61,1154.22 1900.0,1167.0" style="stroke:#010101; fill:none;"/>
	<path d="M 1825.0,1130.0 C 1858.2,1149.38 1890.16,1167.6 1920.0,1192.25 C 1928.92,1199.62 1939.39,1206.49 1946.83,1215.44 C 1970.39,1243.77 1986.72,1278.6 2004.0,1311.0" style="stroke:#010101; fill:none;"/>
	<path d="M 1157.0,1139.0 L 1156.0,1140.0" style="stroke:#010101; fill:none;"/>
	<path d="M 1835.0,1140.0 C 1868.97,1158.84 1901.42,1184.76 1929.0,1212.0 C 1937.63,1220.54 1946.69,1229.02 1954.83,1238.0 C 1959.1,1242.71 1963.45,1249.88 1970.0,1251.0" style="stroke:#010101; fill:none;"/>
	<path d="M 698.0,1153.0 L 685.0,1229.0 L 688.0,1227.0" style="stroke:#010101; fill:none;"/>
	<path d="M 1156.0,1185.0 C 1166.92,1174.11 1179.48,1163.53 1193.0,1156.0" style="stroke:#010101; fill:none;"/>
	<path d="M 1898.0,1163.0 L 1899.0,1165.0" style="stroke:#010101; fill:none;"/>
	<path d="M 1901.0,1164.0 L 1902.0,1165.0" style="stroke:#010101; fill:none;"/>
	<path d="M 1926.0,1173.0 L 1928.0,1175.0 L 1923.0,1176.0" style="stroke:#010101; fill:none;"/>
	<path d="M 1927.0,1174.0 L 1925.0,1177.0" style="stroke:#010101; fill:none;"/>
	<path d="M 1929.0,1175.0 L 1931.0,1179.0 L 1941.0,1184.0 L 1937.0,1180.0" style="stroke:#010101; fill:none;"/>
	<path d="M 1129.0,1176.0 L 1119.0,1192.0" style="stroke:#010101; fill:none;"/>
	<path d="M 1158.0,1179.0 L 1160.0,1181.0" style="stroke:#010101; fill:none;"/>
	<path d="M 1880.0,1179.0 L 1893.0,1189.0 C 1887.41,1189.62 1882.93,1184.61 1879.0,1181.0" style="stroke:#010101; fill:none;"/>
	<path d="M 1928.0,1179.0 L 1929.0,1179.0" style="stroke:#010101; fill:none;"/>
	<path d="M 1935.0,1179.0 L 1933.0,1181.0" style="stroke:#010101; fill:none;"/>
	<path d="M 1931.0,1180.0 L 1932.0,1181.0" style="stroke:#010101; fill:none;"/>
	<path d="M 1934.0,1180.0 L 1934.0,1182.0" style="stroke:#010101; fill:none;"/>
	<path d="M 1156.0,1181.0 L 1158.0,1183.0" style="stroke:#010101; fill:none;"/>
	<path d="M 1941.0,1183.0 L 1944.0,1186.0 L 1942.0,1188.0 L 1940.0,1186.0" style="stroke:#010101; fill:none;"/>
	<path d="M 699.0,1184.0 L 691.831,1235.0 L 681.834,1322.0 L 677.834,1359.0 L 677.0,1380.0 C 699.318,1352.84 696.817,1320.19 699.089,1287.0 C 700.947,1259.87 704.775,1232.18 705.0,1205.0" style="stroke:#010101; fill:none;"/>
	<path d="M 1149.0,1188.0 L 1151.0,1188.0 L 1152.0,1185.0" style="stroke:#010101; fill:none;"/>
	<path d="M 1945.0,1186.0 L 1948.0,1189.0 L 1943.0,1188.0" style="stroke:#010101; fill:none;"/>
	<path d="M 1153.0,1187.0 L 1152.0,1188.0" style="stroke:#010101; fill:none;"/>
	<path d="M 1113.0,1223.0 L 1149.0,1188.0" style="stroke:#010101; fill:none;"/>
	<path d="M 1894.0,1189.0 L 1898.0,1193.0 L 1892.0,1191.0" style="stroke:#010101; fill:none;"/>
	<path d="M 1948.0,1189.0 C 1951.0,1190.61 1951.51,1191.64 1951.0,1195.0 L 1954.0,1192.0" style="stroke:#010101; fill:none;"/>
	<path d="M 1150.0,1190.0 L 1107.0,1238.0" style="stroke:#010101; fill:none;"/>
	<path d="M 1947.0,1190.0 L 1951.0,1191.0" style="stroke:#010101; fill:none;"/>
	<path d="M 1899.0,1193.0 L 1936.0,1226.0" style="stroke:#010101; fill:none;"/>
	<path d="M 1949.0,1193.0 L 1951.0,1195.0" style="stroke:#010101; fill:none;"/>
	<path d="M 1956.0,1193.0 L 1960.0,1204.0 L 1964.0,1202.0 L 1961.0,1200.0" style="stroke:#010101; fill:none;"/>
	<path d="M 1939.0,1194.0 L 1989.0,1234.09 L 2033.0,1279.0 C 2033.59,1266.02 2023.4,1257.89 2015.0,1249.96 C 1998.63,1234.5 1978.05,1221.48 1963.0,1205.0" style="stroke:#010101; fill:none;"/>
	<path d="M 1954.0,1197.0 L 1956.0,1198.0" style="stroke:#010101; fill:none;"/>
	<path d="M 1959.0,1197.0 L 1962.0,1198.0" style="stroke:#010101; fill:none;"/>
	<path d="M 1956.0,1198.0 L 1958.0,1202.0" style="stroke:#010101; fill:none;"/>
	<path d="M 1965.0,1202.0 L 1964.0,1207.0" style="stroke:#010101; fill:none;"/>
	<path d="M 1111.0,1204.0 L 1092.0,1233.0" style="stroke:#010101; fill:none;"/>
	<path d="M 1968.0,1204.0 L 1967.0,1209.0" style="stroke:#010101; fill:none;"/>
	<path d="M 1971.0,1206.0 L 1975.0,1210.0 L 1972.0,1213.0" style="stroke:#010101; fill:none;"/>
	<path d="M 1976.0,1210.0 L 2021.0,1247.09 L 2050.0,1274.0 L 2047.0,1265.0" style="stroke:#010101; fill:none;"/>
	<path d="M 1946.0,1215.0 L 1948.0,1217.0" style="stroke:#010101; fill:none;"/>
	<path d="M 1951.0,1218.0 C 1956.93,1223.93 1967.28,1239.13 1976.0,1239.0 L 1972.0,1238.0" style="stroke:#010101; fill:none;"/>
	<path d="M 1947.0,1219.0 L 1948.0,1220.0" style="stroke:#010101; fill:none;"/>
	<path d="M 1966.0,1224.0 L 1969.0,1225.0" style="stroke:#010101; fill:none;"/>
	<path d="M 1967.0,1228.0 L 1974.0,1236.0" style="stroke:#010101; fill:none;"/>
	<path d="M 684.0,1230.0 C 680.671,1249.59 671.223,1269.57 664.003,1288.0 C 652.844,1316.49 641.927,1345.74 626.0,1372.0" style="stroke:#010101; fill:none;"/>
	<path d="M 688.0,1230.0 C 685.224,1244.95 686.711,1261.54 681.758,1276.0 C 653.411,1358.76 599.542,1433.34 546.185,1502.0 C 529.002,1524.11 508.058,1544.2 492.0,1567.0" style="stroke:#010101; fill:none;"/>
	<path d="M 1946.0,1230.0 L 1948.0,1232.0" style="stroke:#010101; fill:none;"/>
	<path d="M 718.0,1231.0 L 710.715,1293.0 L 698.0,1381.0" style="stroke:#010101; fill:none;"/>
	<path d="M 1947.0,1234.0 L 1968.0,1265.0" style="stroke:#010101; fill:none;"/>
	<path d="M 1975.0,1240.0 C 1982.29,1247.62 1987.89,1256.44 1995.16,1264.08 C 1998.44,1267.53 2000.94,1272.35 2006.0,1272.0" style="stroke:#010101; fill:none;"/>
	<path d="M 670.0,1244.0 C 650.86,1311.95 615.757,1377.87 577.692,1437.0 C 558.565,1466.71 539.027,1496.76 514.0,1522.0" style="stroke:#010101; fill:none;"/>
	<path d="M 1099.0,1249.0 C 1075.42,1274.6 1055.71,1305.22 1036.25,1334.0 C 1024.67,1351.13 1009.88,1368.31 1001.0,1387.0" style="stroke:#010101; fill:none;"/>
	<path d="M 1992.0,1249.0 L 1994.0,1254.0" style="stroke:#010101; fill:none;"/>
	<path d="M 2021.0,1249.0 L 2022.0,1255.0" style="stroke:#010101; fill:none;"/>
	<path d="M 2024.0,1250.0 L 2022.0,1252.0" style="stroke:#010101; fill:none;"/>
	<path d="M 1996.0,1252.0 C 1999.13,1255.01 2003.6,1256.99 2006.34,1260.22 C 2031.86,1290.29 2038.8,1326.96 2051.0,1363.0 C 2054.33,1356.07 2052.79,1348.37 2051.95,1341.0 C 2049.77,1321.87 2045.41,1294.09 2033.0,1279.0" style="stroke:#010101; fill:none;"/>
	<path d="M 2021.0,1252.0 L 2019.0,1254.0" style="stroke:#010101; fill:none;"/>
	<path d="M 2001.0,1253.0 L 2004.0,1256.0" style="stroke:#010101; fill:none;"/>
	<path d="M 657.0,1256.0 L 657.0,1257.0" style="stroke:#010101; fill:none;"/>
	<path d="M 2004.0,1259.0 L 2007.0,1262.0" style="stroke:#010101; fill:none;"/>
	<path d="M 656.0,1260.0 C 631.016,1325.16 602.62,1386.38 566.0,1446.0" style="stroke:#010101; fill:none;"/>
	<path d="M 1991.0,1262.0 L 1993.0,1264.0" style="stroke:#010101; fill:none;"/>
	<path d="M 1993.0,1264.0 C 2001.28,1292.15 2023.83,1315.51 2030.0,1345.0" style="stroke:#010101; fill:none;"/>
	<path d="M 2030.0,1264.0 L 2053.0,1289.0 L 2051.0,1275.0" style="stroke:#010101; fill:none;"/>
	<path d="M 2062.0,1273.0 C 2071.38,1313.57 2073.77,1349.03 2059.0,1389.0" style="stroke:#010101; fill:none;"/>
	<path d="M 2004.0,1275.0 L 2007.0,1278.0" style="stroke:#010101; fill:none;"/>
	<path d="M 682.0,1281.0 L 671.0,1370.0" style="stroke:#010101; fill:none;"/>
	<path d="M 2054.0,1281.0 L 2061.0,1290.0" style="stroke:#010101; fill:none;"/>
	<path d="M 1714.0,1283.0 C 1714.0,1302.64 1719.61,1318.42 1733.0,1333.0 L 1728.0,1339.0 L 1735.0,1342.0 L 1733.0,1334.0" style="stroke:#010101; fill:none;"/>
	<path d="M 2053.0,1289.0 L 2059.75,1313.0 L 2063.0,1369.0" style="stroke:#010101; fill:none;"/>
	<path d="M 2077.0,1290.0 C 2082.43,1295.83 2082.96,1305.35 2083.0,1313.0 C 2083.09,1331.37 2080.52,1350.05 2076.58,1368.0 C 2075.46,1373.09 2071.4,1397.01 2063.0,1390.0" style="stroke:#010101; fill:none;"/>
	<path d="M 1666.0,1291.0 L 1728.0,1339.0" style="stroke:#010101; fill:none;"/>
	<path d="M 2043.0,1294.0 L 2044.0,1297.0" style="stroke:#010101; fill:none;"/>
	<path d="M 1754.0,1299.0 L 1751.0,1304.0 C 1756.52,1307.5 1772.48,1316.51 1778.99,1315.22 C 1782.41,1314.54 1784.86,1310.45 1787.0,1308.0" style="stroke:#010101; fill:none;"/>
	<path d="M 1736.0,1300.0 L 1751.0,1304.0" style="stroke:#010101; fill:none;"/>
	<path d="M 670.0,1308.0 L 670.0,1305.0" style="stroke:#010101; fill:none;"/>
	<path d="M 1751.0,1306.0 C 1746.09,1316.52 1746.18,1328.71 1751.8,1339.0 C 1753.8,1342.67 1760.14,1346.79 1760.25,1351.03 C 1760.37,1355.84 1755.24,1355.99 1752.0,1354.67 C 1745.35,1351.96 1740.23,1346.73 1735.0,1342.0" style="stroke:#010101; fill:none;"/>
	<path d="M 1783.0,1308.0 L 1781.0,1313.0" style="stroke:#010101; fill:none;"/>
	<path d="M 2094.0,1310.0 C 2103.01,1331.34 2092.53,1363.27 2083.22,1383.0 C 2080.78,1388.16 2068.45,1412.55 2062.0,1401.0" style="stroke:#010101; fill:none;"/>
	<path d="M 2108.0,1310.0 C 2113.51,1332.86 2106.05,1358.96 2097.0,1380.0 C 2091.95,1391.74 2083.82,1403.3 2071.0,1407.0" style="stroke:#010101; fill:none;"/>
	<path d="M 1781.0,1316.0 L 1797.0,1325.0 C 1793.32,1329.53 1787.67,1334.14 1791.0,1340.0 L 1772.0,1364.0 C 1784.53,1372.82 1792.33,1371.58 1804.0,1363.0" style="stroke:#010101; fill:none;"/>
	<path d="M 718.0,1318.0 L 717.0,1330.0" style="stroke:#010101; fill:none;"/>
	<path d="M 1778.0,1318.0 C 1774.54,1328.16 1772.09,1339.05 1768.27,1349.0 C 1767.2,1351.79 1762.49,1356.54 1764.02,1359.62 C 1766.44,1364.49 1771.25,1354.31 1769.0,1350.0" style="stroke:#010101; fill:none;"/>
	<path d="M 716.0,1419.0 C 711.154,1419.0 696.931,1423.83 694.451,1420.79 C 692.163,1418.0 694.368,1414.64 695.771,1412.0 C 699.831,1404.37 704.939,1397.39 709.399,1390.0 C 719.754,1372.84 731.956,1358.75 745.158,1344.3 C 751.377,1337.49 755.003,1328.48 764.0,1323.92 C 769.873,1320.93 785.699,1328.68 789.339,1333.61 C 792.277,1337.59 785.291,1345.12 782.56,1347.7 C 768.654,1360.83 758.349,1373.32 746.989,1389.0 C 703.467,1449.08 669.896,1514.51 631.8,1578.0 C 605.85,1621.25 576.975,1663.0 550.426,1705.49 C 547.595,1710.03 546.276,1715.41 543.179,1720.0 C 535.634,1731.18 525.675,1740.64 518.436,1752.0 C 483.263,1807.21 452.922,1865.55 418.316,1921.0 C 402.757,1945.93 384.712,1968.78 368.178,1993.0 C 353.386,2014.67 338.354,2037.14 324.353,2059.09 C 318.225,2068.7 314.158,2079.43 307.656,2089.0 C 294.684,2108.09 278.942,2125.18 265.771,2144.0 C 253.004,2162.24 243.244,2182.44 229.396,2200.0 C 216.894,2215.86 204.103,2232.87 190.816,2248.0 C 180.666,2259.56 168.263,2270.49 159.439,2283.0 C 136.793,2315.09 121.928,2350.87 92.0,2377.0" style="stroke:#010101; fill:none;"/>
	<path d="M 1797.0,1325.0 C 1814.8,1328.17 1836.21,1341.13 1851.0,1351.25 C 1856.91,1355.29 1866.59,1366.03 1874.0,1364.0" style="stroke:#010101; fill:none;"/>
	<path d="M 1794.0,1335.0 L 1791.0,1339.0" style="stroke:#010101; fill:none;"/>
	<path d="M 2125.0,1335.0 C 2116.68,1357.19 2113.23,1376.91 2097.58,1396.0 C 2092.12,1402.65 2084.37,1412.07 2075.0,1412.0" style="stroke:#010101; fill:none;"/>
	<path d="M 1787.0,1338.0 L 1787.0,1341.0" style="stroke:#010101; fill:none;"/>
	<path d="M 1698.0,1341.0 C 1706.48,1340.29 1716.02,1341.57 1720.0,1350.0 L 1704.0,1350.0" style="stroke:#010101; fill:none;"/>
	<path d="M 919.0,1344.0 L 922.0,1342.0" style="stroke:#010101; fill:none;"/>
	<path d="M 674.0,1344.0 L 674.0,1345.0" style="stroke:#010101; fill:none;"/>
	<path d="M 672.0,1345.0 C 651.986,1371.23 637.495,1407.54 625.0,1438.0" style="stroke:#010101; fill:none;"/>
	<path d="M 746.0,1345.0 L 748.0,1356.0" style="stroke:#010101; fill:none;"/>
	<path d="M 1808.0,1346.0 C 1803.06,1353.24 1794.3,1359.84 1794.0,1369.0" style="stroke:#010101; fill:none;"/>
	<path d="M 748.0,1347.0 L 757.0,1351.0" style="stroke:#010101; fill:none;"/>
	<path d="M 1725.0,1347.0 L 1723.0,1355.0 L 1727.0,1353.0" style="stroke:#010101; fill:none;"/>
	<path d="M 1841.0,1348.0 C 1836.07,1355.43 1828.06,1363.42 1820.0,1367.46 C 1815.07,1369.93 1811.59,1367.9 1807.0,1372.0 L 1802.0,1365.0" style="stroke:#010101; fill:none;"/>
	<path d="M 1778.0,1349.0 L 1776.0,1358.0" style="stroke:#010101; fill:none;"/>
	<path d="M 782.0,1350.0 C 796.456,1361.02 815.828,1360.46 833.0,1364.0" style="stroke:#010101; fill:none;"/>
	<path d="M 1721.0,1351.0 L 1723.0,1355.0" style="stroke:#010101; fill:none;"/>
	<path d="M 1855.0,1354.0 L 1827.0,1376.0 C 1830.19,1379.69 1832.33,1379.92 1837.0,1379.0 L 1839.0,1384.0 C 1841.38,1381.31 1843.86,1378.64 1839.0,1378.0 L 1838.0,1378.0" style="stroke:#010101; fill:none;"/>
	<path d="M 1714.0,1356.0 L 1721.0,1355.0" style="stroke:#010101; fill:none;"/>
	<path d="M 1728.0,1356.0 L 1733.0,1368.0 L 1723.0,1370.0" style="stroke:#010101; fill:none;"/>
	<path d="M 693.0,1358.0 L 690.0,1378.0" style="stroke:#010101; fill:none;"/>
	<path d="M 1759.0,1358.0 L 1762.0,1358.0" style="stroke:#010101; fill:none;"/>
	<path d="M 2135.0,1358.0 C 2140.39,1366.79 2137.94,1377.91 2134.39,1387.0 C 2126.55,1407.03 2106.04,1431.98 2083.0,1434.0" style="stroke:#010101; fill:none;"/>
	<path d="M 1863.0,1360.0 L 1847.0,1375.0 C 1854.51,1380.01 1864.17,1370.97 1870.0,1366.0" style="stroke:#010101; fill:none;"/>
	<path d="M 1767.0,1362.0 L 1772.0,1364.0" style="stroke:#010101; fill:none;"/>
	<path d="M 1814.0,1367.0 L 1817.0,1365.0" style="stroke:#010101; fill:none;"/>
	<path d="M 1872.0,1366.0 C 1875.53,1369.84 1880.55,1378.45 1886.0,1379.41 C 1891.21,1380.32 1898.03,1371.49 1901.0,1368.0" style="stroke:#010101; fill:none;"/>
	<path d="M 2148.0,1366.0 C 2152.38,1400.64 2128.91,1416.47 2102.0,1433.0" style="stroke:#010101; fill:none;"/>
	<path d="M 740.0,1376.0 C 737.474,1372.91 736.116,1371.15 739.0,1368.0" style="stroke:#010101; fill:none;"/>
	<path d="M 1884.0,1368.0 L 1877.0,1373.0" style="stroke:#010101; fill:none;"/>
	<path d="M 1733.0,1369.0 L 1741.0,1381.0 L 1733.0,1385.0" style="stroke:#010101; fill:none;"/>
	<path d="M 776.0,1370.0 L 773.0,1382.0" style="stroke:#010101; fill:none;"/>
	<path d="M 1826.0,1375.0 C 1823.31,1377.02 1820.44,1380.01 1817.0,1380.59 C 1806.73,1382.34 1809.71,1374.08 1815.0,1370.0" style="stroke:#010101; fill:none;"/>
	<path d="M 2130.0,1371.0 C 2122.09,1389.91 2108.68,1405.95 2094.0,1419.96 C 2090.0,1423.78 2080.83,1432.92 2075.0,1430.0" style="stroke:#010101; fill:none;"/>
	<path d="M 1793.0,1372.0 C 1797.72,1374.62 1802.11,1375.57 1807.0,1373.0" style="stroke:#010101; fill:none;"/>
	<path d="M 1003.0,1373.0 L 994.0,1389.0" style="stroke:#010101; fill:none;"/>
	<path d="M 1877.0,1373.0 L 1851.0,1389.81 L 1841.21,1396.08 L 1827.0,1385.0 L 1831.0,1381.0" style="stroke:#010101; fill:none;"/>
	<path d="M 1843.0,1378.0 L 1847.0,1375.0" style="stroke:#010101; fill:none;"/>
	<path d="M 1806.0,1376.0 L 1808.0,1376.0" style="stroke:#010101; fill:none;"/>
	<path d="M 762.0,1377.0 L 758.0,1398.0 L 765.0,1387.0" style="stroke:#010101; fill:none;"/>
	<path d="M 993.0,1377.0 L 992.0,1378.0" style="stroke:#010101; fill:none;"/>
	<path d="M 1851.0,1378.0 L 1843.0,1380.0" style="stroke:#010101; fill:none;"/>
	<path d="M 676.0,1381.0 L 651.0,1430.0" style="stroke:#010101; fill:none;"/>
	<path d="M 1819.0,1381.0 L 1827.0,1385.0" style="stroke:#010101; fill:none;"/>
	<path d="M 1885.0,1381.0 L 1849.0,1400.0 L 1857.0,1395.0" style="stroke:#010101; fill:none;"/>
	<path d="M 1887.0,1381.0 C 1889.77,1384.41 1900.54,1394.23 1899.4,1398.9 C 1897.72,1405.81 1880.16,1409.19 1875.0,1414.0 L 1882.0,1419.0 L 1875.0,1426.0 L 1873.0,1423.0 C 1870.04,1426.23 1867.87,1428.3 1871.0,1432.0 L 1875.0,1426.0" style="stroke:#010101; fill:none;"/>
	<path d="M 2056.0,1383.0 L 2060.0,1381.0" style="stroke:#010101; fill:none;"/>
	<path d="M 725.0,1386.0 C 727.438,1381.69 730.734,1382.82 735.0,1384.0" style="stroke:#010101; fill:none;"/>
	<path d="M 989.0,1382.0 L 935.0,1459.0" style="stroke:#010101; fill:none;"/>
	<path d="M 1741.0,1382.0 L 1757.0,1397.0 L 1752.0,1396.0 C 1749.53,1399.96 1747.6,1400.95 1743.0,1400.0" style="stroke:#010101; fill:none;"/>
	<path d="M 1839.0,1384.0 L 1834.0,1389.0" style="stroke:#010101; fill:none;"/>
	<path d="M 1915.0,1389.0 C 1903.31,1398.62 1904.26,1399.99 1910.0,1413.0 L 1921.0,1407.0" style="stroke:#010101; fill:none;"/>
	<path d="M 1749.0,1391.0 L 1751.0,1396.0" style="stroke:#010101; fill:none;"/>
	<path d="M 1895.0,1393.0 C 1887.49,1398.93 1877.03,1398.27 1870.16,1403.6 C 1864.2,1408.23 1869.37,1413.96 1875.0,1414.0" style="stroke:#010101; fill:none;"/>
	<path d="M 1754.0,1394.0 L 1752.0,1396.0" style="stroke:#010101; fill:none;"/>
	<path d="M 712.0,1403.0 L 732.0,1397.0" style="stroke:#010101; fill:none;"/>
	<path d="M 1839.0,1397.0 C 1833.29,1402.28 1826.87,1402.05 1820.0,1405.04 C 1809.22,1409.74 1797.98,1418.2 1792.82,1429.0 C 1789.29,1436.41 1789.38,1448.21 1794.21,1455.0 C 1805.17,1470.38 1820.93,1481.44 1832.73,1496.0 C 1844.76,1510.85 1851.2,1529.12 1863.0,1544.0" style="stroke:#010101; fill:none;"/>
	<path d="M 1844.0,1397.0 L 1848.0,1400.0" style="stroke:#010101; fill:none;"/>
	<path d="M 1757.0,1398.0 L 1760.0,1404.0 L 1750.0,1400.0" style="stroke:#010101; fill:none;"/>
	<path d="M 1758.0,1399.0 L 1755.0,1400.0" style="stroke:#010101; fill:none;"/>
	<path d="M 1901.0,1399.0 L 1903.0,1399.0" style="stroke:#010101; fill:none;"/>
	<path d="M 1851.0,1401.0 L 1853.57,1412.91 L 1868.0,1429.0" style="stroke:#010101; fill:none;"/>
	<path d="M 1756.0,1402.0 L 1755.0,1403.0" style="stroke:#010101; fill:none;"/>
	<path d="M 1755.0,1404.0 L 1746.0,1408.0" style="stroke:#010101; fill:none;"/>
	<path d="M 1854.0,1404.0 L 1867.0,1406.0" style="stroke:#010101; fill:none;"/>
	<path d="M 1761.0,1405.0 C 1770.23,1421.63 1784.78,1434.65 1788.0,1454.0" style="stroke:#010101; fill:none;"/>
	<path d="M 1909.0,1412.0 L 1883.0,1419.0" style="stroke:#010101; fill:none;"/>
	<path d="M 1868.0,1413.0 L 1861.0,1420.0" style="stroke:#010101; fill:none;"/>
	<path d="M 1870.0,1414.0 L 1862.0,1422.0" style="stroke:#010101; fill:none;"/>
	<path d="M 1912.0,1414.0 C 1918.83,1426.32 1924.74,1438.58 1924.99,1453.0 C 1925.06,1457.28 1925.71,1464.44 1921.7,1467.3 C 1918.23,1469.77 1911.18,1466.55 1907.0,1467.0 L 1915.0,1475.0" style="stroke:#010101; fill:none;"/>
	<path d="M 1873.0,1423.0 L 1871.0,1416.0 L 1864.0,1423.0" style="stroke:#010101; fill:none;"/>
	<path d="M 1755.0,1420.0 L 1764.0,1422.0" style="stroke:#010101; fill:none;"/>
	<path d="M 1872.0,1419.0 L 1865.0,1426.0" style="stroke:#010101; fill:none;"/>
	<path d="M 692.0,1420.0 C 681.437,1434.85 673.651,1452.99 664.825,1469.0 C 651.799,1492.63 637.675,1515.75 623.989,1539.0 C 577.518,1617.95 528.881,1696.0 479.308,1773.0 C 460.689,1801.92 438.814,1828.35 421.201,1858.0 C 416.779,1865.44 404.12,1881.8 406.0,1890.0 L 411.0,1887.0" style="stroke:#010101; fill:none;"/>
	<path d="M 851.0,1423.0 C 839.098,1453.69 825.415,1488.24 821.0,1521.0" style="stroke:#010101; fill:none;"/>
	<path d="M 1875.0,1428.0 L 1886.0,1437.0 L 1919.0,1428.0" style="stroke:#010101; fill:none;"/>
	<path d="M 1878.0,1430.0 L 1871.0,1433.0" style="stroke:#010101; fill:none;"/>
	<path d="M 1880.0,1431.0 L 1873.0,1436.0" style="stroke:#010101; fill:none;"/>
	<path d="M 1836.0,1433.64 C 1842.85,1431.66 1858.71,1436.68 1857.2,1445.99 C 1856.18,1452.25 1849.11,1452.23 1845.09,1455.43 C 1841.07,1458.64 1839.3,1463.64 1834.0,1465.18 C 1825.6,1467.62 1820.88,1460.54 1821.62,1453.0 C 1822.49,1444.08 1826.81,1436.29 1836.0,1433.64" style="stroke:#010101; fill:none;"/>
	<path d="M 1761.0,1435.0 L 1769.0,1436.0" style="stroke:#010101; fill:none;"/>
	<path d="M 1874.0,1437.0 C 1878.86,1458.01 1869.38,1484.11 1848.0,1494.23 C 1843.46,1496.38 1838.77,1495.47 1834.0,1496.0" style="stroke:#010101; fill:none;"/>
	<path d="M 1886.0,1437.0 L 1879.0,1448.0" style="stroke:#010101; fill:none;"/>
	<path d="M 1887.0,1443.0 C 1891.76,1448.72 1899.44,1446.88 1906.0,1449.15 C 1909.68,1450.42 1912.25,1453.49 1916.0,1454.63 C 1929.33,1458.68 1946.71,1455.84 1959.0,1450.0" style="stroke:#010101; fill:none;"/>
	<path d="M 1925.0,1446.0 L 1938.0,1444.0" style="stroke:#010101; fill:none;"/>
	<path d="M 1775.0,1448.0 L 1779.0,1448.0" style="stroke:#010101; fill:none;"/>
	<path d="M 1890.0,1447.0 C 1890.1,1455.53 1898.8,1462.16 1906.0,1466.0" style="stroke:#010101; fill:none;"/>
	<path d="M 1910.0,1450.0 L 1924.0,1447.0" style="stroke:#010101; fill:none;"/>
	<path d="M 1788.0,1448.0 L 1790.0,1448.0" style="stroke:#010101; fill:none;"/>
	<path d="M 1917.0,1448.0 L 1917.0,1454.0" style="stroke:#010101; fill:none;"/>
	<path d="M 689.0,1462.0 C 688.47,1455.28 686.272,1449.29 695.0,1449.0" style="stroke:#010101; fill:none;"/>
	<path d="M 1681.0,1449.0 C 1684.31,1460.24 1694.04,1470.11 1700.19,1480.0 C 1724.48,1519.09 1753.34,1551.04 1799.0,1564.0" style="stroke:#010101; fill:none;"/>
	<path d="M 1890.0,1454.0 C 1884.23,1462.02 1887.63,1477.89 1890.0,1487.0 L 1894.0,1484.0 L 1890.0,1482.0" style="stroke:#010101; fill:none;"/>
	<path d="M 1892.0,1457.0 C 1892.45,1462.22 1894.02,1471.27 1897.6,1475.28 C 1908.27,1487.2 1922.22,1487.25 1922.0,1469.0" style="stroke:#010101; fill:none;"/>
	<path d="M 1782.0,1463.0 L 1787.0,1462.0" style="stroke:#010101; fill:none;"/>
	<path d="M 1901.0,1464.0 L 1896.0,1469.0" style="stroke:#010101; fill:none;"/>
	<path d="M 1923.0,1470.0 L 1939.0,1472.0" style="stroke:#010101; fill:none;"/>
	<path d="M 1791.0,1472.0 L 1795.0,1471.0" style="stroke:#010101; fill:none;"/>
	<path d="M 1895.0,1476.0 C 1894.95,1481.55 1901.86,1498.68 1909.01,1497.96 C 1914.02,1497.46 1915.53,1490.8 1917.0,1487.0" style="stroke:#010101; fill:none;"/>
	<path d="M 675.0,1488.0 C 673.733,1482.42 675.139,1479.66 681.0,1479.0" style="stroke:#010101; fill:none;"/>
	<path d="M 1799.0,1483.0 L 1803.0,1480.0" style="stroke:#010101; fill:none;"/>
	<path d="M 1890.0,1487.0 C 1891.03,1493.5 1896.98,1496.06 1903.0,1497.0" style="stroke:#010101; fill:none;"/>
	<path d="M 1918.0,1488.0 L 1935.0,1488.0" style="stroke:#010101; fill:none;"/>
	<path d="M 1918.0,1488.0 L 1917.0,1491.0" style="stroke:#010101; fill:none;"/>
	<path d="M 1889.0,1492.0 C 1884.51,1505.48 1876.42,1519.47 1881.0,1534.0 L 1883.0,1526.0" style="stroke:#010101; fill:none;"/>
	<path d="M 1821.0,1494.0 L 1823.0,1497.0" style="stroke:#010101; fill:none;"/>
	<path d="M 1888.0,1495.0 C 1899.59,1507.57 1913.74,1515.77 1931.0,1518.0" style="stroke:#010101; fill:none;"/>
	<path d="M 1910.0,1499.0 L 1931.0,1511.0" style="stroke:#010101; fill:none;"/>
	<path d="M 1827.0,1502.0 L 1827.0,1506.0" style="stroke:#010101; fill:none;"/>
	<path d="M 1920.0,1503.0 L 1932.0,1506.0" style="stroke:#010101; fill:none;"/>
	<path d="M 650.0,1523.0 C 650.0,1516.61 649.32,1511.71 656.0,1509.0" style="stroke:#010101; fill:none;"/>
	<path d="M 1850.0,1520.0 L 1864.83,1520.56 L 1882.0,1511.0" style="stroke:#010101; fill:none;"/>
	<path d="M 1881.0,1534.0 C 1880.32,1544.76 1875.47,1552.12 1865.0,1545.0" style="stroke:#010101; fill:none;"/>
	<path d="M 629.0,1560.0 C 631.018,1552.68 633.718,1546.45 642.0,1546.0" style="stroke:#010101; fill:none;"/>
	<path d="M 1915.0,1559.0 L 1894.0,1588.0" style="stroke:#010101; fill:none;"/>
	<path d="M 777.0,1573.0 C 777.0,1630.27 786.336,1688.2 793.155,1745.0 C 795.88,1767.7 800.528,1791.15 801.0,1814.0" style="stroke:#010101; fill:none;"/>
	<path d="M 805.0,1573.0 C 810.044,1612.88 811.346,1653.01 815.17,1693.0 C 819.268,1735.86 826.0,1778.9 826.0,1822.0" style="stroke:#010101; fill:none;"/>
	<path d="M 2375.0,1575.0 C 2362.28,1595.62 2351.29,1617.58 2338.14,1638.0 C 2327.57,1654.39 2313.45,1670.74 2321.0,1692.0" style="stroke:#010101; fill:none;"/>
	<path d="M 472.0,1584.0 L 469.0,1588.0" style="stroke:#010101; fill:none;"/>
	<path d="M 758.0,1595.0 L 773.145,1739.0 L 788.0,1833.0" style="stroke:#010101; fill:none;"/>
	<path d="M 2194.0,1616.0 C 2212.92,1598.74 2252.12,1589.04 2277.0,1596.8 C 2283.69,1598.88 2288.25,1604.32 2294.0,1608.0" style="stroke:#010101; fill:none;"/>
	<path d="M 2201.0,1617.0 C 2206.62,1610.27 2214.82,1608.04 2223.0,1605.71 C 2242.67,1600.12 2266.18,1598.43 2286.0,1604.0" style="stroke:#010101; fill:none;"/>
	<path d="M 2213.0,1613.0 C 2230.73,1607.39 2251.66,1607.06 2270.0,1608.83 C 2276.71,1609.48 2283.91,1608.92 2289.0,1614.0 L 2286.0,1616.0" style="stroke:#010101; fill:none;"/>
	<path d="M 2021.0,1771.0 C 2037.18,1739.5 2040.14,1698.36 2064.18,1671.0 C 2104.33,1625.31 2167.72,1621.36 2224.0,1619.99 C 2252.9,1619.28 2280.0,1619.43 2307.0,1632.0" style="stroke:#010101; fill:none;"/>
	<path d="M 2241.0,1620.0 C 2248.4,1623.67 2257.12,1623.94 2265.0,1626.34 C 2282.97,1631.83 2300.64,1639.08 2316.0,1650.0" style="stroke:#010101; fill:none;"/>
	<path d="M 2226.0,1628.0 C 2234.02,1629.17 2241.22,1636.68 2247.0,1642.0" style="stroke:#010101; fill:none;"/>
	<path d="M 2232.0,1628.0 L 2248.0,1630.0 L 2251.0,1634.0 C 2257.01,1630.17 2264.68,1633.39 2271.0,1635.58 C 2284.9,1640.38 2298.14,1648.92 2312.0,1653.0" style="stroke:#010101; fill:none;"/>
	<path d="M 2249.0,1631.0 L 2252.0,1631.0" style="stroke:#010101; fill:none;"/>
	<path d="M 2252.0,1633.0 L 2294.0,1651.26 L 2320.0,1665.0" style="stroke:#010101; fill:none;"/>
	<path d="M 577.0,1636.0 L 567.0,1645.0" style="stroke:#010101; fill:none;"/>
	<path d="M 2261.0,1642.0 C 2275.15,1646.75 2288.85,1655.02 2301.0,1663.59 C 2307.03,1667.84 2312.32,1673.9 2319.0,1677.0" style="stroke:#010101; fill:none;"/>
	<path d="M 2249.0,1643.0 C 2258.78,1654.83 2273.57,1659.4 2286.0,1668.02 C 2303.55,1680.2 2316.3,1694.39 2328.0,1712.0" style="stroke:#010101; fill:none;"/>
	<path d="M 2239.0,1645.0 C 2248.24,1649.92 2260.41,1667.05 2271.0,1665.0 L 2263.0,1657.0" style="stroke:#010101; fill:none;"/>
	<path d="M 2257.0,1647.0 C 2279.62,1652.37 2302.52,1672.54 2318.0,1689.0" style="stroke:#010101; fill:none;"/>
	<path d="M 572.0,1656.0 C 562.736,1663.76 563.251,1670.83 558.28,1681.0 C 554.17,1689.41 549.554,1693.08 549.0,1703.0" style="stroke:#010101; fill:none;"/>
	<path d="M 2254.0,1660.0 L 2275.0,1679.0 L 2272.0,1678.0" style="stroke:#010101; fill:none;"/>
	<path d="M 2271.0,1665.0 C 2287.81,1681.67 2308.52,1694.84 2319.0,1717.0" style="stroke:#010101; fill:none;"/>
	<path d="M 2266.0,1667.0 L 2273.0,1676.0" style="stroke:#010101; fill:none;"/>
	<path d="M 2259.0,1677.0 L 2268.0,1683.0 L 2265.0,1681.0" style="stroke:#010101; fill:none;"/>
	<path d="M 2276.0,1679.0 C 2290.61,1693.61 2303.18,1707.32 2314.0,1725.0" style="stroke:#010101; fill:none;"/>
	<path d="M 2277.0,1680.0 L 2274.0,1681.0" style="stroke:#010101; fill:none;"/>
	<path d="M 2275.0,1683.0 L 2280.0,1683.0" style="stroke:#010101; fill:none;"/>
	<path d="M 2268.0,1684.0 C 2272.79,1688.48 2282.09,1692.52 2281.0,1700.0 L 2273.0,1689.0" style="stroke:#010101; fill:none;"/>
	<path d="M 2276.0,1691.0 L 2274.0,1693.0" style="stroke:#010101; fill:none;"/>
	<path d="M 2279.0,1694.0 L 2277.0,1696.0" style="stroke:#010101; fill:none;"/>
	<path d="M 2281.0,1696.0 L 2279.0,1698.0" style="stroke:#010101; fill:none;"/>
	<path d="M 2283.0,1698.0 L 2289.86,1710.0 L 2304.0,1747.0" style="stroke:#010101; fill:none;"/>
	<path d="M 550.0,1699.0 L 555.0,1702.0" style="stroke:#010101; fill:none;"/>
	<path d="M 2283.0,1700.0 L 2287.0,1701.0" style="stroke:#010101; fill:none;"/>
	<path d="M 2288.0,1703.0 L 2286.0,1705.0" style="stroke:#010101; fill:none;"/>
	<path d="M 2285.0,1704.0 L 2286.0,1705.0" style="stroke:#010101; fill:none;"/>
	<path d="M 2287.0,1704.0 L 2287.0,1706.0" style="stroke:#010101; fill:none;"/>
	<path d="M 2290.0,1704.0 L 2309.0,1731.0" style="stroke:#010101; fill:none;"/>
	<path d="M 500.0,1783.0 C 495.902,1776.94 499.369,1769.29 502.019,1763.0 C 504.424,1757.29 509.066,1753.31 512.12,1748.0 C 518.718,1736.54 526.318,1704.38 545.0,1715.0" style="stroke:#010101; fill:none;"/>
	<path d="M 2281.0,1731.0 C 2255.17,1770.16 2228.51,1806.93 2196.0,1841.0 C 2203.55,1847.71 2210.92,1845.84 2220.0,1848.0" style="stroke:#010101; fill:none;"/>
	<path d="M 835.0,1737.0 C 840.013,1771.1 854.467,1805.9 866.575,1838.0 C 897.166,1919.12 938.143,1994.89 979.309,2071.0 C 998.881,2107.18 1022.17,2142.98 1038.0,2181.0" style="stroke:#010101; fill:none;"/>
	<path d="M 760.0,1739.0 C 760.035,1792.36 777.853,1844.77 778.0,1898.0" style="stroke:#010101; fill:none;"/>
	<path d="M 2125.0,1761.0 L 2130.0,1763.0 L 2118.0,1760.16 L 2082.0,1746.0 C 2087.73,1740.15 2103.12,1741.01 2111.0,1741.0 C 2142.24,1740.96 2179.93,1758.71 2192.0,1789.0 L 2169.0,1793.0 L 2172.0,1812.0 C 2178.39,1805.82 2184.09,1808.16 2190.94,1804.14 C 2193.32,1802.74 2196.3,1799.49 2193.97,1796.64 C 2192.36,1794.68 2187.34,1794.59 2185.0,1793.0" style="stroke:#010101; fill:none;"/>
	<path d="M 2039.0,1754.0 C 2036.42,1735.33 2072.34,1746.44 2081.0,1745.0" style="stroke:#010101; fill:none;"/>
	<path d="M 2040.0,1760.0 C 2041.81,1777.54 2061.83,1784.6 2072.82,1795.3 C 2082.64,1804.87 2087.66,1819.1 2095.76,1830.0 C 2106.67,1844.67 2121.59,1856.57 2137.0,1866.0" style="stroke:#010101; fill:none;"/>
	<path d="M 2114.0,1760.0 L 2087.04,1771.92 L 2073.0,1794.0" style="stroke:#010101; fill:none;"/>
	<path d="M 2025.0,1761.0 C 2027.69,1767.85 2024.0,1776.19 2022.15,1783.0 C 2018.37,1796.96 2015.62,1810.76 2013.25,1825.0 C 2007.2,1861.26 2000.17,1897.64 1990.14,1933.0 C 1985.74,1948.53 1982.53,1966.01 1974.2,1980.0 C 1963.86,1997.37 1944.4,2018.16 1924.0,2023.0" style="stroke:#010101; fill:none;"/>
	<path d="M 2131.0,1763.0 C 2146.75,1770.46 2156.05,1782.09 2169.0,1793.0" style="stroke:#010101; fill:none;"/>
	<path d="M 2129.0,1767.0 L 2131.0,1767.0" style="stroke:#010101; fill:none;"/>
	<path d="M 2192.0,1790.0 L 2208.0,1780.0" style="stroke:#010101; fill:none;"/>
	<path d="M 1711.0,1793.0 C 1741.07,1781.49 1782.95,1786.45 1810.0,1803.0" style="stroke:#010101; fill:none;"/>
	<path d="M 2123.0,1790.43 C 2134.09,1789.07 2132.99,1796.45 2130.09,1804.0 C 2127.08,1811.85 2120.96,1818.9 2112.0,1819.67 C 2102.74,1820.46 2096.22,1809.97 2101.01,1802.0 C 2105.72,1794.17 2114.51,1791.47 2123.0,1790.43" style="stroke:#010101; fill:none;"/>
	<path d="M 2193.0,1791.0 L 2194.0,1795.0" style="stroke:#010101; fill:none;"/>
	<path d="M 2052.0,1799.0 L 2058.0,1801.0" style="stroke:#010101; fill:none;"/>
	<path d="M 2195.0,1802.0 L 2200.0,1801.0" style="stroke:#010101; fill:none;"/>
	<path d="M 2210.0,1803.0 L 2195.0,1807.0 L 2195.0,1804.0" style="stroke:#010101; fill:none;"/>
	<path d="M 2156.0,1806.0 C 2154.32,1825.06 2137.05,1840.16 2121.0,1848.0" style="stroke:#010101; fill:none;"/>
	<path d="M 2189.0,1806.0 L 2194.0,1809.0" style="stroke:#010101; fill:none;"/>
	<path d="M 2194.0,1810.0 L 2194.0,1818.0" style="stroke:#010101; fill:none;"/>
	<path d="M 2055.0,1815.0 C 2058.99,1813.43 2063.1,1810.4 2067.0,1813.0" style="stroke:#010101; fill:none;"/>
	<path d="M 2182.0,1812.0 C 2178.27,1814.67 2176.11,1815.15 2172.0,1813.0" style="stroke:#010101; fill:none;"/>
	<path d="M 2172.0,1815.0 C 2170.47,1824.95 2160.89,1828.07 2167.0,1839.0 C 2176.78,1836.2 2175.41,1827.32 2184.0,1821.0 C 2190.21,1826.74 2192.93,1825.08 2193.0,1817.0" style="stroke:#010101; fill:none;"/>
	<path d="M 2181.0,1816.0 L 2192.0,1818.0" style="stroke:#010101; fill:none;"/>
	<path d="M 2184.0,1818.0 L 2184.0,1821.0" style="stroke:#010101; fill:none;"/>
	<path d="M 2194.0,1818.0 L 2203.0,1818.0" style="stroke:#010101; fill:none;"/>
	<path d="M 2160.0,1820.0 C 2156.23,1836.28 2149.21,1852.09 2140.0,1866.0" style="stroke:#010101; fill:none;"/>
	<path d="M 2173.0,1821.0 L 2175.0,1828.0" style="stroke:#010101; fill:none;"/>
	<path d="M 2076.0,1822.0 L 2075.0,1826.0" style="stroke:#010101; fill:none;"/>
	<path d="M 2186.0,1824.0 L 2177.0,1833.0" style="stroke:#010101; fill:none;"/>
	<path d="M 2178.0,1833.0 C 2189.13,1837.81 2186.24,1830.79 2194.23,1827.64 C 2197.23,1826.46 2201.8,1827.93 2205.0,1828.0" style="stroke:#010101; fill:none;"/>
	<path d="M 1672.0,1829.0 C 1655.97,1850.67 1686.11,1886.2 1697.0,1904.0" style="stroke:#010101; fill:none;"/>
	<path d="M 2084.0,1833.0 L 2099.0,1851.0" style="stroke:#010101; fill:none;"/>
	<path d="M 2175.0,1838.0 C 2185.69,1857.28 2163.98,1855.87 2156.0,1866.0" style="stroke:#010101; fill:none;"/>
	<path d="M 2189.0,1838.0 L 2195.0,1840.0" style="stroke:#010101; fill:none;"/>
	<path d="M 2199.0,1838.0 L 2207.0,1840.0" style="stroke:#010101; fill:none;"/>
	<path d="M 2173.0,1839.0 C 2165.35,1846.88 2164.93,1851.21 2171.0,1860.0" style="stroke:#010101; fill:none;"/>
	<path d="M 2081.0,1840.0 L 2082.0,1840.0" style="stroke:#010101; fill:none;"/>
	<path d="M 2166.0,1840.0 L 2167.0,1844.0" style="stroke:#010101; fill:none;"/>
	<path d="M 2100.0,1857.0 L 2097.0,1864.0" style="stroke:#010101; fill:none;"/>
	<path d="M 438.0,1884.0 C 438.096,1878.66 436.754,1871.0 438.603,1866.0 C 441.926,1857.03 447.998,1858.51 452.0,1865.0" style="stroke:#010101; fill:none;"/>
	<path d="M 2104.0,1859.0 L 2107.0,1875.0" style="stroke:#010101; fill:none;"/>
	<path d="M 2172.0,1861.0 C 2172.41,1869.9 2176.14,1870.57 2181.99,1876.06 C 2195.43,1888.69 2205.66,1890.07 2224.0,1889.0" style="stroke:#010101; fill:none;"/>
	<path d="M 2228.0,1880.0 L 2198.0,1869.0 C 2205.03,1862.56 2214.03,1864.5 2223.0,1864.0" style="stroke:#010101; fill:none;"/>
	<path d="M 2179.0,1872.0 C 2184.62,1866.81 2189.85,1866.87 2197.0,1869.0" style="stroke:#010101; fill:none;"/>
	<path d="M 2115.0,1868.0 L 2120.0,1879.0" style="stroke:#010101; fill:none;"/>
	<path d="M 2123.0,1870.0 L 2129.0,1883.0" style="stroke:#010101; fill:none;"/>
	<path d="M 2174.0,1872.0 C 2161.38,1885.52 2180.78,1899.19 2193.0,1906.0" style="stroke:#010101; fill:none;"/>
	<path d="M 2027.0,1873.0 C 2028.06,1896.22 2046.2,1921.87 2055.0,1943.0" style="stroke:#010101; fill:none;"/>
	<path d="M 1802.0,1874.0 L 1871.0,1900.0" style="stroke:#010101; fill:none;"/>
	<path d="M 2155.0,1878.0 L 2158.0,1877.0 C 2152.05,1885.32 2160.1,1887.47 2164.01,1894.09 C 2171.97,1907.55 2174.0,1918.64 2189.0,1927.0" style="stroke:#010101; fill:none;"/>
	<path d="M 411.0,1877.0 L 414.0,1881.0" style="stroke:#010101; fill:none;"/>
	<path d="M 2158.0,1877.0 L 2168.0,1881.0" style="stroke:#010101; fill:none;"/>
	<path d="M 227.0,1881.0 C 207.253,1900.6 194.99,1924.08 176.819,1945.0 C 149.647,1976.29 117.892,2003.91 86.0,2030.25 C 60.2157,2051.55 32.4934,2073.78 1.0,2086.0" style="stroke:#010101; fill:none;"/>
	<path d="M 2168.0,1885.0 L 2163.0,1892.0" style="stroke:#010101; fill:none;"/>
	<path d="M 1382.0,1907.0 C 1398.18,1893.75 1427.28,1887.0 1448.0,1887.0" style="stroke:#010101; fill:none;"/>
	<path d="M 2147.0,1888.0 L 2147.0,1893.0" style="stroke:#010101; fill:none;"/>
	<path d="M 405.0,1889.0 L 319.562,2024.0 L 283.863,2075.0 L 279.601,2103.0 L 268.0,2120.0" style="stroke:#010101; fill:none;"/>
	<path d="M 2210.0,1889.0 C 2208.36,1892.16 2206.94,1893.41 2204.0,1891.0" style="stroke:#010101; fill:none;"/>
	<path d="M 422.0,1904.0 C 424.014,1896.64 427.136,1891.53 435.0,1890.0" style="stroke:#010101; fill:none;"/>
	<path d="M 1737.0,1893.0 C 1747.09,1891.13 1757.95,1893.23 1767.0,1898.0 C 1762.58,1900.79 1759.76,1899.29 1755.0,1898.0" style="stroke:#010101; fill:none;"/>
	<path d="M 1730.0,1926.0 C 1722.35,1915.04 1715.1,1898.32 1733.0,1893.0" style="stroke:#010101; fill:none;"/>
	<path d="M 2177.0,1894.0 L 2168.0,1903.0" style="stroke:#010101; fill:none;"/>
	<path d="M 2209.0,1895.0 L 2220.0,1896.0" style="stroke:#010101; fill:none;"/>
	<path d="M 1741.0,1897.0 C 1757.4,1901.79 1776.12,1912.09 1790.0,1922.0 L 1768.0,1921.0 L 1743.0,1904.0" style="stroke:#010101; fill:none;"/>
	<path d="M 1767.0,1898.0 C 1785.19,1906.05 1802.97,1916.12 1815.48,1932.0 C 1822.64,1941.07 1841.0,1967.14 1819.0,1969.81 C 1809.58,1970.96 1800.71,1965.63 1792.0,1963.0" style="stroke:#010101; fill:none;"/>
	<path d="M 1770.0,1899.0 L 1769.0,1903.0 L 1771.0,1901.0" style="stroke:#010101; fill:none;"/>
	<path d="M 1766.0,1900.0 L 1768.0,1902.0" style="stroke:#010101; fill:none;"/>
	<path d="M 2134.0,1900.0 C 2125.52,1929.89 2096.72,1946.42 2082.31,1973.0 C 2069.98,1995.74 2061.45,2020.51 2050.69,2044.0 C 2029.09,2091.17 2006.02,2135.51 1972.0,2175.0" style="stroke:#010101; fill:none;"/>
	<path d="M 197.0,1910.0 L 204.0,1905.0" style="stroke:#010101; fill:none;"/>
	<path d="M 2171.0,1905.0 L 2178.0,1909.0 L 2175.0,1912.0 L 2173.0,1914.0" style="stroke:#010101; fill:none;"/>
	<path d="M 201.0,1907.0 L 203.0,1909.0" style="stroke:#010101; fill:none;"/>
	<path d="M 2179.0,1909.0 L 2192.0,1919.0" style="stroke:#010101; fill:none;"/>
	<path d="M 254.0,1914.0 L 256.0,1915.0" style="stroke:#010101; fill:none;"/>
	<path d="M 320.0,1916.0 L 319.0,1925.0" style="stroke:#010101; fill:none;"/>
	<path d="M 1767.0,1917.0 L 1768.0,1918.0" style="stroke:#010101; fill:none;"/>
	<path d="M 1769.0,1918.0 L 1770.0,1919.0" style="stroke:#010101; fill:none;"/>
	<path d="M 1802.0,1918.0 C 1797.85,1921.6 1793.75,1925.58 1788.0,1925.0" style="stroke:#010101; fill:none;"/>
	<path d="M 1417.0,1920.0 L 1425.5,1941.9 L 1455.0,1960.3 L 1481.0,1985.0" style="stroke:#010101; fill:none;"/>
	<path d="M 1793.0,1924.0 L 1797.0,1920.0" style="stroke:#010101; fill:none;"/>
	<path d="M 404.0,1933.0 C 405.567,1926.73 408.628,1919.3 416.0,1923.0" style="stroke:#010101; fill:none;"/>
	<path d="M 1769.0,1921.0 C 1776.46,1926.31 1792.9,1936.11 1802.0,1932.0 L 1795.0,1925.0" style="stroke:#010101; fill:none;"/>
	<path d="M 1790.0,1922.0 L 1793.0,1922.0" style="stroke:#010101; fill:none;"/>
	<path d="M 1807.0,1923.0 L 1798.0,1927.0" style="stroke:#010101; fill:none;"/>
	<path d="M 1796.0,1926.0 L 1799.0,1924.0" style="stroke:#010101; fill:none;"/>
	<path d="M 1438.0,1931.0 C 1486.27,1947.43 1530.97,1977.02 1575.0,2002.15 C 1600.52,2016.72 1630.16,2028.55 1652.83,2047.48 C 1684.03,2073.51 1710.27,2105.27 1739.0,2134.0" style="stroke:#010101; fill:none;"/>
	<path d="M 1802.0,1931.0 L 1812.0,1937.0" style="stroke:#010101; fill:none;"/>
	<path d="M 386.0,1949.0 C 390.513,1946.55 397.097,1944.23 402.0,1946.0" style="stroke:#010101; fill:none;"/>
	<path d="M 2074.0,1951.0 L 2097.0,1952.0" style="stroke:#010101; fill:none;"/>
	<path d="M 2070.0,1951.0 L 2071.0,1951.0" style="stroke:#010101; fill:none;"/>
	<path d="M 1431.0,1979.0 C 1436.76,1982.63 1437.09,1997.47 1439.34,2004.0 C 1446.42,2024.45 1456.47,2044.84 1466.49,2064.0 C 1486.79,2102.84 1508.92,2140.32 1534.43,2176.0 C 1553.39,2202.52 1575.73,2227.37 1593.0,2255.0" style="stroke:#010101; fill:none;"/>
	<path d="M 338.0,2022.0 C 338.767,2017.93 338.491,2010.39 344.0,2012.0" style="stroke:#010101; fill:none;"/>
	<path d="M 1514.0,2016.0 C 1529.12,2026.74 1540.65,2044.43 1553.33,2057.82 C 1562.54,2067.54 1572.99,2075.74 1581.87,2086.0 C 1609.75,2118.24 1635.6,2154.07 1667.3,2182.7 C 1673.84,2188.6 1684.57,2192.4 1692.0,2198.0" style="stroke:#010101; fill:none;"/>
	<path d="M 1766.0,2027.0 L 1807.0,2028.0 L 1803.0,2026.0" style="stroke:#010101; fill:none;"/>
	<path d="M 1808.0,2028.0 L 1822.0,2033.0 L 1819.0,2032.0" style="stroke:#010101; fill:none;"/>
	<path d="M 1765.0,2031.0 C 1759.64,2046.07 1759.98,2057.43 1763.0,2073.0" style="stroke:#010101; fill:none;"/>
	<path d="M 1823.0,2033.0 L 1820.0,2036.0" style="stroke:#010101; fill:none;"/>
	<path d="M 1824.0,2034.0 L 1837.0,2038.0 C 1831.75,2041.55 1827.38,2039.5 1822.0,2037.0" style="stroke:#010101; fill:none;"/>
	<path d="M 1846.0,2041.0 C 1843.54,2041.83 1843.51,2041.61 1843.0,2039.0 C 1860.52,2045.26 1883.63,2041.52 1901.0,2036.0" style="stroke:#010101; fill:none;"/>
	<path d="M 1837.0,2038.0 L 1842.0,2038.0" style="stroke:#010101; fill:none;"/>
	<path d="M 1840.0,2039.0 L 1840.0,2042.0 L 1835.0,2041.0" style="stroke:#010101; fill:none;"/>
	<path d="M 1896.0,2042.0 C 1877.28,2055.37 1848.55,2056.06 1827.0,2050.0" style="stroke:#010101; fill:none;"/>
	<path d="M 1841.0,2043.0 L 1842.0,2043.0" style="stroke:#010101; fill:none;"/>
	<path d="M 284.0,2082.0 L 297.0,2084.0" style="stroke:#010101; fill:none;"/>
	<path d="M 237.0,2179.0 C 233.291,2180.54 215.43,2191.12 212.832,2187.55 C 211.27,2185.4 213.601,2182.68 214.789,2181.0 L 227.424,2163.0 C 240.895,2143.92 251.526,2123.17 264.718,2104.0 C 269.608,2096.89 273.334,2086.95 282.0,2084.0" style="stroke:#010101; fill:none;"/>
	<path d="M 0.0,2086.0 L 1.0,2086.0" style="stroke:#010101; fill:none;"/>
	<path d="M 250.0,2142.0 L 263.0,2131.0" style="stroke:#010101; fill:none;"/>
	<path d="M 1747.0,2147.0 C 1758.35,2162.96 1754.79,2185.68 1754.0,2204.0" style="stroke:#010101; fill:none;"/>
	<path d="M 1965.0,2183.0 L 1930.0,2220.0" style="stroke:#010101; fill:none;"/>
	<path d="M 1667.0,2184.0 L 1666.0,2192.0" style="stroke:#010101; fill:none;"/>
	<path d="M 211.0,2187.0 C 188.891,2209.29 173.449,2235.32 155.971,2261.0 C 139.537,2285.15 120.944,2307.55 104.86,2332.0 C 96.2147,2345.14 79.1977,2356.78 73.1551,2371.0 C 69.8703,2378.73 78.8411,2383.15 85.0,2384.0" style="stroke:#010101; fill:none;"/>
	<path d="M 209.0,2189.0 L 210.0,2195.0 L 207.0,2192.0" style="stroke:#010101; fill:none;"/>
	<path d="M 1418.0,2189.0 C 1433.95,2190.4 1451.94,2204.05 1464.0,2213.8 C 1488.2,2233.37 1506.27,2260.45 1523.52,2286.0 C 1534.46,2302.21 1546.68,2318.2 1555.0,2336.0" style="stroke:#010101; fill:none;"/>
	<path d="M 1664.0,2189.0 C 1656.63,2202.82 1672.59,2225.1 1674.87,2239.0 C 1676.71,2250.19 1662.94,2269.18 1657.0,2278.0" style="stroke:#010101; fill:none;"/>
	<path d="M 215.0,2190.0 L 213.0,2192.0" style="stroke:#010101; fill:none;"/>
	<path d="M 1675.0,2194.0 L 1676.0,2195.0" style="stroke:#010101; fill:none;"/>
	<path d="M 210.0,2196.0 L 206.0,2203.0" style="stroke:#010101; fill:none;"/>
	<path d="M 1750.0,2213.0 C 1741.12,2223.9 1729.57,2231.86 1717.0,2238.0" style="stroke:#010101; fill:none;"/>
	<path d="M 1678.0,2233.0 L 1707.0,2234.0" style="stroke:#010101; fill:none;"/>
	<path d="M 1078.0,2236.0 C 1085.1,2239.5 1086.34,2249.02 1088.67,2256.0 C 1093.79,2271.36 1100.07,2286.1 1108.45,2300.0 C 1135.03,2344.06 1174.32,2382.33 1208.0,2421.0" style="stroke:#010101; fill:none;"/>
	<path d="M 1615.0,2280.0 L 1629.0,2286.0" style="stroke:#010101; fill:none;"/>
	<path d="M 1573.0,2298.0 L 1626.0,2308.0" style="stroke:#010101; fill:none;"/>
	<path d="M 1753.0,2324.0 L 1754.0,2324.0" style="stroke:#010101; fill:none;"/>
	<path d="M 1228.0,2336.0 C 1243.68,2343.77 1257.2,2356.57 1272.0,2365.95 C 1298.39,2382.66 1335.38,2398.64 1367.0,2400.0" style="stroke:#010101; fill:none;"/>
	<path d="M 1052.0,2403.0 L 1051.0,2404.0" style="stroke:#010101; fill:none;"/>
	<path d="M 823.0,2420.0 C 812.288,2448.39 807.841,2480.31 801.999,2510.0 C 791.568,2563.02 781.775,2616.39 775.0,2670.0" style="stroke:#010101; fill:none;"/>
	<path d="M 1497.0,2457.0 L 1501.0,2456.0" style="stroke:#010101; fill:none;"/>
	<path d="M 1495.0,2458.0 L 1494.0,2459.0" style="stroke:#010101; fill:none;"/>
	<path d="M 376.0,2532.0 L 388.0,2533.0" style="stroke:#010101; fill:none;"/>
	<path d="M 384.0,2549.0 L 385.0,2537.0 L 387.0,2537.0" style="stroke:#010101; fill:none;"/>
	<path d="M 764.0,2679.0 C 759.147,2695.57 772.912,2721.08 777.576,2737.0 C 786.423,2767.21 797.675,2796.68 806.29,2827.0 C 811.617,2845.75 814.371,2865.47 820.0,2884.0" style="stroke:#010101; fill:none;"/>
	<path d="M 980.0,2701.0 C 962.11,2731.65 944.957,2763.08 929.511,2795.0 C 921.941,2810.64 911.567,2827.55 909.0,2845.0" style="stroke:#010101; fill:none;"/>
	<path d="M 998.0,2707.0 L 997.0,2725.0" style="stroke:#010101; fill:none;"/>
	<path d="M 800.0,2718.0 C 800.532,2743.78 807.95,2771.93 813.765,2797.0 C 817.978,2815.17 820.311,2834.53 827.0,2852.0" style="stroke:#010101; fill:none;"/>
	<path d="M 979.0,2735.0 C 979.005,2779.33 1000.88,2821.47 1001.0,2866.0" style="stroke:#010101; fill:none;"/>
	<path d="M 932.0,2736.0 L 933.0,2737.0" style="stroke:#010101; fill:none;"/>
	<path d="M 933.0,2739.0 C 933.087,2749.5 933.071,2766.76 938.0,2776.0" style="stroke:#010101; fill:none;"/>
	<path d="M 1002.0,2750.0 L 1020.0,2789.0" style="stroke:#010101; fill:none;"/>
	<path d="M 920.0,2751.0 C 920.009,2764.91 919.433,2788.7 926.0,2801.0" style="stroke:#010101; fill:none;"/>
	<path d="M 964.0,2753.0 C 969.403,2794.84 987.121,2835.43 988.0,2878.0" style="stroke:#010101; fill:none;"/>
	<path d="M 830.0,2756.0 C 835.911,2802.53 856.942,2847.47 861.0,2894.0" style="stroke:#010101; fill:none;"/>
	<path d="M 886.0,2762.0 L 887.0,2765.0" style="stroke:#010101; fill:none;"/>
	<path d="M 857.0,2764.0 L 876.765,2849.0 L 887.0,2894.0" style="stroke:#010101; fill:none;"/>
	<path d="M 954.0,2767.0 C 951.989,2792.69 958.904,2819.11 964.765,2844.0 C 968.674,2860.6 971.387,2877.59 976.0,2894.0" style="stroke:#010101; fill:none;"/>
	<path d="M 887.0,2768.0 L 893.565,2810.0 L 910.0,2894.0" style="stroke:#010101; fill:none;"/>
	<path d="M 938.0,2784.0 C 938.741,2819.88 948.033,2859.34 957.0,2894.0" style="stroke:#010101; fill:none;"/>
	<path d="M 1025.0,2805.0 C 1031.69,2810.75 1030.41,2821.78 1030.98,2830.0 C 1031.45,2836.91 1033.3,2844.07 1032.91,2851.0 C 1032.09,2865.43 1028.04,2879.49 1028.0,2894.0" style="stroke:#010101; fill:none;"/>
	<path d="M 926.0,2808.0 C 926.586,2836.38 934.813,2866.16 940.0,2894.0" style="stroke:#010101; fill:none;"/>
	<path d="M 1048.0,2845.0 C 1050.78,2860.65 1045.24,2878.29 1044.0,2894.0" style="stroke:#010101; fill:none;"/>
	<path d="M 1062.0,2865.0 L 1070.0,2879.0" style="stroke:#010101; fill:none;"/>
	<path d="M 832.0,2870.0 L 834.0,2879.0" style="stroke:#010101; fill:none;"/>
	<path d="M 1002.0,2870.0 L 1002.0,2877.0" style="stroke:#010101; fill:none;"/>
	<path d="M 903.0,2873.0 L 902.0,2894.0" style="stroke:#010101; fill:none;"/>
	<path d="M 835.0,2886.0 L 838.0,2894.0" style="stroke:#010101; fill:none;"/>
</svg>
