<?xml version="1.0" ?>
<svg baseProfile="full" height="2310" version="1.1" width="2037" xmlns="http://www.w3.org/2000/svg" xmlns:ev="http://www.w3.org/2001/xml-events" xmlns:xlink="http://www.w3.org/1999/xlink">
	<defs/>
	<path d="M 1359.0,425.0 L 1376.0,440.0 L 1371.0,446.0 C 1376.49,448.433 1382.57,452.517 1388.0,449.0 L 1376.0,440.0" style="stroke:#010101; fill:none;"/>
	<path d="M 1373.0,438.0 L 1366.0,443.0 L 1371.0,445.0" style="stroke:#010101; fill:none;"/>
	<path d="M 1319.0,453.0 C 1330.88,449.134 1346.43,441.038 1359.0,444.0 L 1361.0,450.0 C 1362.55,446.738 1362.6,445.207 1359.0,444.0" style="stroke:#010101; fill:none;"/>
	<path d="M 1363.0,445.0 L 1366.0,443.0" style="stroke:#010101; fill:none;"/>
	<path d="M 1356.0,444.0 L 1354.0,449.0 L 1355.0,447.0" style="stroke:#010101; fill:none;"/>
	<path d="M 1358.0,446.0 L 1360.0,451.0" style="stroke:#010101; fill:none;"/>
	<path d="M 1363.0,447.0 C 1367.72,450.395 1373.79,451.979 1379.0,449.0" style="stroke:#010101; fill:none;"/>
	<path d="M 1351.0,449.0 L 1348.0,449.0 L 1357.0,450.0" style="stroke:#010101; fill:none;"/>
	<path d="M 1348.0,452.0 C 1346.57,459.496 1328.13,465.87 1322.0,462.0 L 1348.0,449.0" style="stroke:#010101; fill:none;"/>
	<path d="M 1388.0,449.0 C 1396.39,454.785 1402.44,459.14 1408.0,468.0" style="stroke:#010101; fill:none;"/>
	<path d="M 1353.0,451.0 L 1350.0,454.0" style="stroke:#010101; fill:none;"/>
	<path d="M 1360.0,451.0 C 1363.25,456.344 1372.08,454.085 1377.0,452.0" style="stroke:#010101; fill:none;"/>
	<path d="M 1382.0,451.0 L 1378.0,453.0" style="stroke:#010101; fill:none;"/>
	<path d="M 1401.0,451.0 L 1416.0,466.0" style="stroke:#010101; fill:none;"/>
	<path d="M 1344.0,452.0 L 1348.0,452.0" style="stroke:#010101; fill:none;"/>
	<path d="M 1356.0,452.0 C 1356.32,456.63 1352.72,458.711 1349.0,461.089 C 1342.86,465.009 1336.16,469.68 1331.56,475.424 C 1327.94,479.944 1326.78,484.631 1321.0,487.0 L 1320.0,486.0 L 1321.0,487.0" style="stroke:#010101; fill:none;"/>
	<path d="M 1324.0,465.0 C 1321.12,465.1 1320.32,464.876 1320.0,462.0 L 1322.0,462.0" style="stroke:#010101; fill:none;"/>
	<path d="M 1318.0,463.0 C 1312.45,466.955 1299.17,470.562 1297.0,477.0 L 1300.0,475.0" style="stroke:#010101; fill:none;"/>
	<path d="M 1322.0,464.0 L 1322.0,465.0" style="stroke:#010101; fill:none;"/>
	<path d="M 1412.0,466.0 L 1415.0,477.0" style="stroke:#010101; fill:none;"/>
	<path d="M 1327.0,468.0 L 1289.0,491.0 L 1302.0,487.867 L 1329.0,476.0" style="stroke:#010101; fill:none;"/>
	<path d="M 1296.0,474.0 L 1294.0,479.0 L 1295.0,477.0" style="stroke:#010101; fill:none;"/>
	<path d="M 1290.0,480.0 L 1288.0,482.0 L 1292.0,477.0" style="stroke:#010101; fill:none;"/>
	<path d="M 1326.0,478.0 L 1326.0,482.0 C 1323.08,482.23 1322.53,482.352 1324.0,485.0" style="stroke:#010101; fill:none;"/>
	<path d="M 1287.0,483.0 L 1288.0,481.0" style="stroke:#010101; fill:none;"/>
	<path d="M 1292.0,480.0 L 1291.0,481.0" style="stroke:#010101; fill:none;"/>
	<path d="M 1320.0,480.0 L 1322.0,482.0" style="stroke:#010101; fill:none;"/>
	<path d="M 1285.0,483.0 L 1268.0,499.0" style="stroke:#010101; fill:none;"/>
	<path d="M 1309.0,485.0 L 1311.0,484.0" style="stroke:#010101; fill:none;"/>
	<path d="M 1321.0,484.0 L 1321.0,485.0" style="stroke:#010101; fill:none;"/>
	<path d="M 1275.0,537.0 L 1273.0,536.0 C 1280.31,532.027 1284.99,523.434 1290.01,517.0 C 1298.89,505.631 1308.1,494.35 1320.0,486.0" style="stroke:#010101; fill:none;"/>
	<path d="M 1310.0,487.0 C 1297.32,498.576 1284.96,512.88 1278.0,529.0" style="stroke:#010101; fill:none;"/>
	<path d="M 1318.0,488.0 L 1322.0,489.0" style="stroke:#010101; fill:none;"/>
	<path d="M 1321.0,490.0 L 1291.0,525.0" style="stroke:#010101; fill:none;"/>
	<path d="M 1285.0,496.0 L 1281.0,496.0 C 1285.1,497.091 1286.55,493.736 1289.0,491.0" style="stroke:#010101; fill:none;"/>
	<path d="M 1286.0,492.0 L 1284.0,494.0" style="stroke:#010101; fill:none;"/>
	<path d="M 1285.0,493.0 L 1288.0,494.0" style="stroke:#010101; fill:none;"/>
	<path d="M 1251.0,566.0 C 1260.24,548.438 1270.24,531.449 1281.33,515.0 C 1285.77,508.415 1289.86,499.287 1298.0,497.0" style="stroke:#010101; fill:none;"/>
	<path d="M 1237.0,583.0 C 1243.19,561.362 1255.31,539.842 1265.78,520.0 C 1269.44,513.07 1273.29,502.18 1280.0,498.0" style="stroke:#010101; fill:none;"/>
	<path d="M 1248.0,525.0 C 1236.62,544.504 1232.36,570.921 1218.0,588.0 C 1215.98,580.67 1219.24,572.031 1221.5,565.0 C 1228.05,544.55 1237.82,529.862 1253.0,515.0 L 1253.0,533.0 C 1259.9,520.873 1261.41,508.461 1274.0,501.0" style="stroke:#010101; fill:none;"/>
	<path d="M 1284.0,502.0 C 1266.16,522.932 1256.72,549.113 1244.0,573.0" style="stroke:#010101; fill:none;"/>
	<path d="M 1262.0,514.0 L 1259.0,511.0 L 1262.0,510.0" style="stroke:#010101; fill:none;"/>
	<path d="M 1254.0,514.0 L 1259.0,511.0" style="stroke:#010101; fill:none;"/>
	<path d="M 1242.0,515.0 C 1226.97,524.555 1214.94,541.95 1210.0,559.0" style="stroke:#010101; fill:none;"/>
	<path d="M 1278.0,529.0 L 1274.0,534.0" style="stroke:#010101; fill:none;"/>
	<path d="M 1249.0,533.0 L 1253.0,534.0" style="stroke:#010101; fill:none;"/>
	<path d="M 1248.0,534.0 L 1248.0,544.0 L 1248.0,538.0" style="stroke:#010101; fill:none;"/>
	<path d="M 1213.0,570.0 C 1214.66,558.763 1223.67,540.51 1234.0,535.0" style="stroke:#010101; fill:none;"/>
	<path d="M 1252.0,536.0 L 1250.0,538.0" style="stroke:#010101; fill:none;"/>
	<path d="M 1389.0,538.0 C 1388.09,548.443 1381.2,560.618 1373.0,567.0 C 1382.21,576.022 1383.57,567.713 1393.02,569.332 C 1397.61,570.118 1396.64,574.754 1399.6,576.968 C 1403.75,580.077 1411.25,574.821 1415.0,573.0 C 1408.63,559.325 1398.31,556.814 1387.0,549.0" style="stroke:#010101; fill:none;"/>
	<path d="M 1272.0,539.0 L 1265.0,550.0" style="stroke:#010101; fill:none;"/>
	<path d="M 1269.0,542.0 L 1271.0,541.0" style="stroke:#010101; fill:none;"/>
	<path d="M 1413.0,542.0 L 1405.0,560.0" style="stroke:#010101; fill:none;"/>
	<path d="M 1244.0,543.0 L 1248.0,545.0 L 1248.0,545.0" style="stroke:#010101; fill:none;"/>
	<path d="M 1400.0,544.0 L 1398.0,553.0" style="stroke:#010101; fill:none;"/>
	<path d="M 1245.0,546.0 C 1242.91,548.942 1242.52,549.731 1244.0,553.0 L 1246.0,547.0" style="stroke:#010101; fill:none;"/>
	<path d="M 1237.0,656.0 C 1248.68,613.275 1280.94,583.293 1318.0,562.15 C 1329.19,555.764 1350.43,544.301 1363.94,547.888 C 1367.15,548.739 1369.44,552.943 1372.0,555.0 C 1376.45,549.278 1377.68,546.218 1384.0,552.0" style="stroke:#010101; fill:none;"/>
	<path d="M 1252.0,550.0 L 1254.0,552.0" style="stroke:#010101; fill:none;"/>
	<path d="M 1241.0,552.0 L 1244.0,554.0" style="stroke:#010101; fill:none;"/>
	<path d="M 1240.0,554.0 L 1243.0,556.0" style="stroke:#010101; fill:none;"/>
	<path d="M 1367.0,554.0 L 1367.0,560.0 L 1372.0,556.0" style="stroke:#010101; fill:none;"/>
	<path d="M 1240.0,555.0 L 1222.0,590.0" style="stroke:#010101; fill:none;"/>
	<path d="M 1396.0,556.0 C 1393.6,560.95 1395.42,563.206 1399.0,567.0 L 1404.0,561.0" style="stroke:#010101; fill:none;"/>
	<path d="M 1242.0,557.0 L 1228.0,589.0" style="stroke:#010101; fill:none;"/>
	<path d="M 1328.0,560.0 C 1329.09,565.882 1330.4,572.339 1326.0,577.0 C 1330.72,581.529 1333.38,582.883 1339.0,579.0 L 1338.0,561.0" style="stroke:#010101; fill:none;"/>
	<path d="M 1367.0,560.0 C 1363.68,563.918 1362.0,567.056 1364.0,572.0 C 1368.73,568.617 1370.83,565.968 1367.0,561.0" style="stroke:#010101; fill:none;"/>
	<path d="M 1418.0,560.0 L 1413.0,567.0" style="stroke:#010101; fill:none;"/>
	<path d="M 1347.0,562.0 C 1346.5,565.92 1344.7,578.041 1352.55,576.267 C 1355.28,575.65 1358.39,572.316 1361.0,571.0" style="stroke:#010101; fill:none;"/>
	<path d="M 1392.0,563.0 L 1391.0,568.0" style="stroke:#010101; fill:none;"/>
	<path d="M 1323.0,564.0 L 1326.0,577.0" style="stroke:#010101; fill:none;"/>
	<path d="M 1371.0,565.0 L 1373.0,567.0" style="stroke:#010101; fill:none;"/>
	<path d="M 1416.0,565.0 L 1425.0,574.0 L 1415.0,573.0" style="stroke:#010101; fill:none;"/>
	<path d="M 1397.0,568.0 L 1398.0,568.0" style="stroke:#010101; fill:none;"/>
	<path d="M 1373.0,569.0 C 1371.0,572.803 1368.96,573.681 1365.0,572.0" style="stroke:#010101; fill:none;"/>
	<path d="M 1389.0,571.0 L 1397.0,578.0" style="stroke:#010101; fill:none;"/>
	<path d="M 1373.0,572.0 L 1378.0,574.0" style="stroke:#010101; fill:none;"/>
	<path d="M 1386.0,572.0 L 1393.0,576.0" style="stroke:#010101; fill:none;"/>
	<path d="M 1349.0,576.0 L 1342.0,580.0 C 1348.12,589.555 1359.32,592.652 1366.81,601.015 C 1377.72,613.185 1369.58,630.713 1363.0,643.0" style="stroke:#010101; fill:none;"/>
	<path d="M 1324.0,577.0 L 1320.0,584.0 L 1329.0,584.0 L 1327.0,580.0" style="stroke:#010101; fill:none;"/>
	<path d="M 1354.0,577.0 C 1362.13,583.875 1384.1,586.397 1395.0,588.0" style="stroke:#010101; fill:none;"/>
	<path d="M 1423.0,577.0 L 1408.0,592.0" style="stroke:#010101; fill:none;"/>
	<path d="M 1225.0,580.0 L 1227.0,580.0" style="stroke:#010101; fill:none;"/>
	<path d="M 1340.0,580.0 L 1342.0,580.0" style="stroke:#010101; fill:none;"/>
	<path d="M 1320.0,585.0 C 1314.53,587.186 1309.43,588.854 1304.0,586.0 C 1299.79,592.735 1299.46,600.832 1295.14,606.995 C 1283.51,623.619 1270.11,638.758 1261.84,658.0 C 1258.26,666.332 1254.75,677.978 1257.96,687.0 C 1259.97,692.653 1264.55,694.606 1270.0,692.449 C 1278.75,688.984 1285.63,681.479 1294.0,677.25 C 1302.8,672.806 1312.88,671.763 1322.0,667.843 C 1325.42,666.374 1342.22,657.275 1340.0,661.0 L 1337.0,660.0" style="stroke:#010101; fill:none;"/>
	<path d="M 1296.0,588.0 L 1299.0,592.0" style="stroke:#010101; fill:none;"/>
	<path d="M 1318.0,588.0 C 1314.65,591.974 1311.65,595.276 1308.0,590.0 L 1308.0,590.0" style="stroke:#010101; fill:none;"/>
	<path d="M 1217.0,589.0 C 1206.29,646.705 1237.14,702.826 1282.0,737.0" style="stroke:#010101; fill:none;"/>
	<path d="M 1408.0,596.0 L 1423.0,593.0" style="stroke:#010101; fill:none;"/>
	<path d="M 1391.0,593.0 C 1394.81,595.87 1400.84,599.396 1402.64,604.015 C 1405.73,611.98 1394.86,622.219 1390.0,626.985 C 1375.12,641.572 1358.82,647.499 1341.0,657.0" style="stroke:#010101; fill:none;"/>
	<path d="M 1308.0,595.0 L 1299.0,602.0" style="stroke:#010101; fill:none;"/>
	<path d="M 1409.0,600.0 L 1418.0,602.0 L 1412.0,610.0" style="stroke:#010101; fill:none;"/>
	<path d="M 1419.0,602.0 L 1423.0,600.0" style="stroke:#010101; fill:none;"/>
	<path d="M 1287.0,602.0 L 1288.0,611.0" style="stroke:#010101; fill:none;"/>
	<path d="M 1340.0,625.0 C 1337.68,633.258 1322.37,645.467 1314.34,636.697 C 1310.82,632.86 1315.37,629.244 1314.62,625.019 C 1313.81,620.407 1308.68,619.424 1305.0,618.0 C 1306.25,615.393 1307.5,613.762 1310.02,612.187 C 1313.05,610.294 1319.11,606.344 1322.78,608.132 C 1331.02,612.151 1327.97,624.192 1340.0,625.0" style="stroke:#010101; fill:none;"/>
	<path d="M 1417.0,607.0 L 1424.0,612.0" style="stroke:#010101; fill:none;"/>
	<path d="M 1043.0,608.0 L 1062.0,644.0 L 1068.0,616.0" style="stroke:#010101; fill:none;"/>
	<path d="M 1280.0,614.0 L 1281.0,618.0" style="stroke:#010101; fill:none;"/>
	<path d="M 1032.0,615.0 L 1052.0,652.0" style="stroke:#010101; fill:none;"/>
	<path d="M 1419.0,616.0 L 1414.0,616.0 L 1419.0,616.0" style="stroke:#010101; fill:none;"/>
	<path d="M 1420.0,616.0 L 1425.0,621.0" style="stroke:#010101; fill:none;"/>
	<path d="M 1344.0,618.0 L 1341.0,624.0" style="stroke:#010101; fill:none;"/>
	<path d="M 1415.0,618.0 L 1407.0,621.0" style="stroke:#010101; fill:none;"/>
	<path d="M 1020.0,619.0 C 1024.93,626.313 1034.79,634.932 1035.0,644.0 L 1036.0,645.0 L 1035.0,642.0" style="stroke:#010101; fill:none;"/>
	<path d="M 1414.0,622.0 L 1422.0,627.0" style="stroke:#010101; fill:none;"/>
	<path d="M 1418.0,625.0 C 1413.58,627.51 1406.3,629.116 1402.61,632.052 C 1396.41,636.982 1409.11,640.609 1412.0,641.0 L 1407.0,632.0" style="stroke:#010101; fill:none;"/>
	<path d="M 1283.0,626.0 C 1283.99,648.955 1298.89,663.809 1322.0,664.0" style="stroke:#010101; fill:none;"/>
	<path d="M 999.0,627.0 C 1012.13,627.573 1023.04,635.099 1033.0,643.0" style="stroke:#010101; fill:none;"/>
	<path d="M 1410.0,631.0 L 1417.0,636.0" style="stroke:#010101; fill:none;"/>
	<path d="M 1412.0,632.0 L 1417.0,632.0" style="stroke:#010101; fill:none;"/>
	<path d="M 1397.0,633.0 L 1401.0,632.0" style="stroke:#010101; fill:none;"/>
	<path d="M 1401.0,637.0 L 1391.0,642.0 L 1396.0,645.0" style="stroke:#010101; fill:none;"/>
	<path d="M 977.0,638.0 C 996.511,639.551 1032.02,647.947 1039.0,669.0" style="stroke:#010101; fill:none;"/>
	<path d="M 1412.0,641.0 L 1416.0,643.0" style="stroke:#010101; fill:none;"/>
	<path d="M 982.0,643.0 C 958.996,654.185 934.364,667.473 914.0,683.0 L 935.0,676.0" style="stroke:#010101; fill:none;"/>
	<path d="M 1391.0,643.0 L 1375.0,652.0 L 1383.0,657.0" style="stroke:#010101; fill:none;"/>
	<path d="M 1038.0,644.0 L 1042.0,651.0" style="stroke:#010101; fill:none;"/>
	<path d="M 1065.0,644.0 L 1066.0,651.0" style="stroke:#010101; fill:none;"/>
	<path d="M 1062.0,645.0 L 1064.0,647.0" style="stroke:#010101; fill:none;"/>
	<path d="M 1036.0,646.0 L 1040.0,648.0" style="stroke:#010101; fill:none;"/>
	<path d="M 977.0,647.0 C 996.45,651.683 1021.28,650.775 1035.0,668.0" style="stroke:#010101; fill:none;"/>
	<path d="M 1041.0,648.0 L 1043.0,650.0" style="stroke:#010101; fill:none;"/>
	<path d="M 1381.0,649.0 L 1389.0,654.0" style="stroke:#010101; fill:none;"/>
	<path d="M 1369.0,651.0 L 1375.0,652.0" style="stroke:#010101; fill:none;"/>
	<path d="M 913.0,683.0 C 909.079,685.586 905.751,688.164 901.0,687.0 L 923.0,671.385 L 959.0,652.0" style="stroke:#010101; fill:none;"/>
	<path d="M 1044.0,652.0 L 1050.0,662.0" style="stroke:#010101; fill:none;"/>
	<path d="M 1042.0,653.0 L 1047.0,666.0" style="stroke:#010101; fill:none;"/>
	<path d="M 972.0,656.0 C 988.831,656.641 1011.71,655.081 1025.0,667.0" style="stroke:#010101; fill:none;"/>
	<path d="M 1358.0,667.0 L 1354.0,664.0 C 1357.86,659.622 1361.62,660.324 1367.0,661.0" style="stroke:#010101; fill:none;"/>
	<path d="M 933.0,661.0 L 889.0,686.457 L 873.0,695.0 L 879.0,692.0" style="stroke:#010101; fill:none;"/>
	<path d="M 1086.0,661.0 C 1101.19,671.786 1119.48,677.257 1135.0,687.745 C 1158.12,703.374 1176.84,725.501 1193.0,748.0" style="stroke:#010101; fill:none;"/>
	<path d="M 955.0,663.0 C 976.522,663.0 1002.24,661.049 1022.0,671.0" style="stroke:#010101; fill:none;"/>
	<path d="M 1349.0,664.0 L 1353.0,665.0" style="stroke:#010101; fill:none;"/>
	<path d="M 872.0,695.0 C 867.79,700.801 852.023,711.505 845.0,710.0 C 853.894,699.074 869.18,691.763 881.0,684.385 C 892.14,677.432 903.182,668.692 916.0,665.0" style="stroke:#010101; fill:none;"/>
	<path d="M 946.0,665.0 L 949.0,665.0" style="stroke:#010101; fill:none;"/>
	<path d="M 1345.0,668.0 L 1346.0,670.0" style="stroke:#010101; fill:none;"/>
	<path d="M 944.0,672.0 C 960.835,669.872 978.023,669.295 995.0,670.039 C 1000.77,670.292 1009.87,670.634 1013.0,676.0 C 994.381,675.682 976.865,673.939 958.0,676.286 C 948.785,677.433 935.895,682.912 927.0,680.0" style="stroke:#010101; fill:none;"/>
	<path d="M 1333.0,675.0 L 1335.0,675.0" style="stroke:#010101; fill:none;"/>
	<path d="M 885.0,699.0 L 888.0,703.0 L 887.0,704.0 L 884.0,700.0 L 898.0,687.0 L 899.0,695.0 C 906.658,697.439 916.303,689.636 924.0,687.888 C 939.828,684.294 956.865,682.776 973.0,680.845 C 979.917,680.017 988.222,678.19 995.0,680.0" style="stroke:#010101; fill:none;"/>
	<path d="M 816.0,721.0 L 814.0,721.0 L 820.0,715.0 L 823.0,718.0 C 837.778,704.39 858.389,685.768 878.0,680.0" style="stroke:#010101; fill:none;"/>
	<path d="M 821.0,715.0 C 833.745,702.518 850.264,687.631 867.0,681.0" style="stroke:#010101; fill:none;"/>
	<path d="M 886.0,683.0 L 888.0,683.0" style="stroke:#010101; fill:none;"/>
	<path d="M 912.0,684.0 L 915.0,685.0" style="stroke:#010101; fill:none;"/>
	<path d="M 918.0,694.0 L 989.0,685.0" style="stroke:#010101; fill:none;"/>
	<path d="M 909.0,686.0 L 913.0,686.0" style="stroke:#010101; fill:none;"/>
	<path d="M 907.0,687.0 L 910.0,688.0" style="stroke:#010101; fill:none;"/>
	<path d="M 905.0,688.0 L 908.0,689.0" style="stroke:#010101; fill:none;"/>
	<path d="M 896.0,690.0 L 900.0,694.0" style="stroke:#010101; fill:none;"/>
	<path d="M 902.0,690.0 L 906.0,690.0" style="stroke:#010101; fill:none;"/>
	<path d="M 894.0,691.0 L 897.0,692.0" style="stroke:#010101; fill:none;"/>
	<path d="M 899.0,691.0 L 900.0,691.0" style="stroke:#010101; fill:none;"/>
	<path d="M 892.0,694.0 L 894.0,696.0 L 889.0,697.0" style="stroke:#010101; fill:none;"/>
	<path d="M 894.0,694.0 L 895.0,694.0" style="stroke:#010101; fill:none;"/>
	<path d="M 895.0,696.0 L 899.0,695.0" style="stroke:#010101; fill:none;"/>
	<path d="M 874.0,697.0 L 870.0,699.0" style="stroke:#010101; fill:none;"/>
	<path d="M 900.0,697.0 L 889.0,703.0" style="stroke:#010101; fill:none;"/>
	<path d="M 883.0,700.0 L 869.0,708.0" style="stroke:#010101; fill:none;"/>
	<path d="M 882.0,702.0 L 884.0,704.0 L 880.0,703.0" style="stroke:#010101; fill:none;"/>
	<path d="M 862.0,704.0 C 859.576,709.359 853.527,712.778 849.0,716.398 C 840.204,723.433 831.383,730.519 823.0,738.042 C 821.199,739.658 808.55,749.267 813.0,750.0" style="stroke:#010101; fill:none;"/>
	<path d="M 1537.0,708.0 L 1562.0,742.0 L 1563.0,736.0" style="stroke:#010101; fill:none;"/>
	<path d="M 844.0,709.0 L 837.0,716.0 L 846.0,712.0" style="stroke:#010101; fill:none;"/>
	<path d="M 836.0,715.0 C 829.779,720.418 816.548,727.521 818.0,737.0 L 820.0,732.0" style="stroke:#010101; fill:none;"/>
	<path d="M 818.0,717.0 L 822.0,718.0" style="stroke:#010101; fill:none;"/>
	<path d="M 838.0,718.0 L 821.0,733.0" style="stroke:#010101; fill:none;"/>
	<path d="M 821.0,719.0 L 816.0,722.0" style="stroke:#010101; fill:none;"/>
	<path d="M 830.0,721.0 L 832.0,723.0" style="stroke:#010101; fill:none;"/>
	<path d="M 814.0,722.0 C 812.883,724.304 812.557,724.407 815.0,724.0" style="stroke:#010101; fill:none;"/>
	<path d="M 814.0,725.0 L 810.0,728.0 L 812.0,724.0" style="stroke:#010101; fill:none;"/>
	<path d="M 825.0,725.0 L 827.0,727.0" style="stroke:#010101; fill:none;"/>
	<path d="M 809.0,728.0 L 793.028,743.0 L 789.0,749.0" style="stroke:#010101; fill:none;"/>
	<path d="M 822.0,728.0 L 824.0,730.0" style="stroke:#010101; fill:none;"/>
	<path d="M 820.0,729.0 L 822.0,731.0" style="stroke:#010101; fill:none;"/>
	<path d="M 806.0,731.0 C 810.169,733.649 813.12,734.338 817.0,731.0" style="stroke:#010101; fill:none;"/>
	<path d="M 812.0,734.0 L 808.0,737.0 L 808.0,735.0" style="stroke:#010101; fill:none;"/>
	<path d="M 803.0,735.0 L 808.0,738.0" style="stroke:#010101; fill:none;"/>
	<path d="M 818.0,737.0 L 791.0,764.0 L 793.0,762.0" style="stroke:#010101; fill:none;"/>
	<path d="M 807.0,739.0 C 800.579,742.226 787.914,750.843 790.0,759.0 L 805.0,741.0" style="stroke:#010101; fill:none;"/>
	<path d="M 1003.0,748.0 L 998.0,757.0 C 986.978,744.46 1003.33,741.474 1013.0,740.286 C 1033.02,737.827 1048.2,742.715 1065.0,753.0" style="stroke:#010101; fill:none;"/>
	<path d="M 975.0,743.0 L 977.0,749.0 L 983.0,747.0 L 980.0,767.0 C 966.319,772.239 952.21,774.588 939.1,781.494 C 935.414,783.435 929.669,786.399 926.414,788.758 C 923.609,790.791 922.89,795.02 918.982,795.674 C 911.429,796.938 897.957,782.862 891.971,795.079 C 889.637,799.841 896.237,802.908 900.0,802.597 C 907.184,802.003 909.353,798.649 913.0,793.0" style="stroke:#010101; fill:none;"/>
	<path d="M 1569.0,749.0 C 1564.43,751.072 1563.32,748.196 1562.0,744.0 C 1570.09,742.823 1582.59,765.154 1586.0,772.0" style="stroke:#010101; fill:none;"/>
	<path d="M 983.0,747.0 L 988.0,745.0" style="stroke:#010101; fill:none;"/>
	<path d="M 1020.0,746.0 L 1011.0,757.0 L 1013.0,748.0" style="stroke:#010101; fill:none;"/>
	<path d="M 1295.0,747.0 C 1309.22,759.415 1325.67,768.783 1339.71,781.339 C 1366.32,805.119 1389.81,832.921 1414.09,859.0 C 1430.71,876.846 1455.06,896.339 1456.77,923.0 C 1457.72,937.709 1442.92,954.338 1437.0,967.0" style="stroke:#010101; fill:none;"/>
	<path d="M 1568.0,747.0 L 1565.0,750.0" style="stroke:#010101; fill:none;"/>
	<path d="M 977.0,749.0 C 975.825,753.068 976.163,755.858 980.0,758.0" style="stroke:#010101; fill:none;"/>
	<path d="M 801.0,754.0 L 810.0,750.0" style="stroke:#010101; fill:none;"/>
	<path d="M 947.0,777.0 C 948.234,760.461 959.047,754.089 974.0,750.0" style="stroke:#010101; fill:none;"/>
	<path d="M 787.0,751.0 L 767.776,775.661 L 762.0,785.0 L 769.0,777.0" style="stroke:#010101; fill:none;"/>
	<path d="M 804.0,751.0 L 806.0,753.0" style="stroke:#010101; fill:none;"/>
	<path d="M 812.0,751.0 L 797.0,765.0 L 795.0,763.0 L 802.0,756.0" style="stroke:#010101; fill:none;"/>
	<path d="M 1566.0,752.0 C 1568.12,765.634 1575.98,780.008 1580.77,793.0 C 1588.0,812.593 1594.03,833.005 1599.96,853.0 C 1616.22,907.743 1625.3,964.123 1640.58,1019.0 C 1646.96,1041.93 1654.46,1064.37 1661.81,1087.0 C 1665.06,1097.03 1664.43,1108.92 1672.0,1117.0 C 1666.73,1125.95 1677.2,1131.15 1682.0,1137.0" style="stroke:#010101; fill:none;"/>
	<path d="M 977.0,753.0 L 982.0,753.0" style="stroke:#010101; fill:none;"/>
	<path d="M 993.0,753.0 C 989.325,759.408 991.635,763.327 998.0,758.0" style="stroke:#010101; fill:none;"/>
	<path d="M 1030.0,753.0 L 1022.0,760.0 L 1029.0,766.0 L 1037.0,755.0" style="stroke:#010101; fill:none;"/>
	<path d="M 791.0,754.0 L 793.0,756.0" style="stroke:#010101; fill:none;"/>
	<path d="M 1043.0,755.0 C 1040.17,758.922 1038.13,762.989 1033.0,761.0" style="stroke:#010101; fill:none;"/>
	<path d="M 788.0,757.0 L 776.0,773.0 L 780.0,767.0" style="stroke:#010101; fill:none;"/>
	<path d="M 975.0,757.0 L 978.0,764.0" style="stroke:#010101; fill:none;"/>
	<path d="M 1014.0,757.0 L 1022.0,760.0" style="stroke:#010101; fill:none;"/>
	<path d="M 942.0,758.0 L 945.0,762.0 L 951.0,760.0" style="stroke:#010101; fill:none;"/>
	<path d="M 1026.0,765.0 C 1019.54,768.447 1008.96,768.287 1003.0,764.0 L 1010.0,758.0" style="stroke:#010101; fill:none;"/>
	<path d="M 790.0,759.0 L 786.0,763.0" style="stroke:#010101; fill:none;"/>
	<path d="M 982.0,759.0 L 989.0,762.0" style="stroke:#010101; fill:none;"/>
	<path d="M 797.0,760.0 L 797.0,762.0" style="stroke:#010101; fill:none;"/>
	<path d="M 995.0,761.0 L 1003.0,764.0" style="stroke:#010101; fill:none;"/>
	<path d="M 921.0,784.0 C 919.703,785.014 918.469,786.171 916.956,786.878 C 907.204,791.437 910.471,777.503 916.739,779.344 C 918.901,779.979 920.681,783.361 922.0,785.0 L 937.012,777.589 L 943.0,762.0" style="stroke:#010101; fill:none;"/>
	<path d="M 945.0,762.0 L 947.0,771.0" style="stroke:#010101; fill:none;"/>
	<path d="M 965.0,770.0 L 974.0,761.0" style="stroke:#010101; fill:none;"/>
	<path d="M 988.0,762.0 L 980.0,767.0" style="stroke:#010101; fill:none;"/>
	<path d="M 784.0,765.0 L 782.0,765.0" style="stroke:#010101; fill:none;"/>
	<path d="M 792.0,766.0 L 776.0,784.0" style="stroke:#010101; fill:none;"/>
	<path d="M 792.0,766.0 L 796.0,765.0" style="stroke:#010101; fill:none;"/>
	<path d="M 931.0,778.0 C 931.005,771.863 931.167,767.395 938.0,766.0" style="stroke:#010101; fill:none;"/>
	<path d="M 1029.0,766.0 C 1036.03,769.973 1040.74,768.533 1048.0,769.907 C 1057.4,771.683 1065.63,776.091 1073.0,782.0" style="stroke:#010101; fill:none;"/>
	<path d="M 783.0,767.0 L 782.0,768.0" style="stroke:#010101; fill:none;"/>
	<path d="M 918.0,767.0 L 920.0,776.0 L 931.0,769.0" style="stroke:#010101; fill:none;"/>
	<path d="M 967.0,767.0 L 970.0,770.0" style="stroke:#010101; fill:none;"/>
	<path d="M 794.0,768.0 L 783.0,779.0" style="stroke:#010101; fill:none;"/>
	<path d="M 1037.0,768.0 L 1042.0,769.0" style="stroke:#010101; fill:none;"/>
	<path d="M 789.0,769.0 L 791.0,771.0" style="stroke:#010101; fill:none;"/>
	<path d="M 953.0,769.0 L 959.0,773.0" style="stroke:#010101; fill:none;"/>
	<path d="M 894.0,770.0 C 898.278,774.47 902.661,782.886 909.0,784.0" style="stroke:#010101; fill:none;"/>
	<path d="M 1072.0,771.0 C 1080.15,774.584 1084.66,780.301 1081.0,789.0" style="stroke:#010101; fill:none;"/>
	<path d="M 776.0,773.0 L 768.326,786.0 L 736.0,827.0 C 735.755,823.058 736.609,819.67 741.0,820.0" style="stroke:#010101; fill:none;"/>
	<path d="M 773.0,778.0 L 781.0,773.0" style="stroke:#010101; fill:none;"/>
	<path d="M 775.0,774.0 L 777.0,776.0" style="stroke:#010101; fill:none;"/>
	<path d="M 768.0,775.0 L 766.0,777.0" style="stroke:#010101; fill:none;"/>
	<path d="M 920.0,776.0 L 920.0,778.0" style="stroke:#010101; fill:none;"/>
	<path d="M 1024.0,776.0 L 1044.0,778.0" style="stroke:#010101; fill:none;"/>
	<path d="M 764.0,779.0 L 766.0,781.0" style="stroke:#010101; fill:none;"/>
	<path d="M 968.0,781.0 C 986.083,776.695 1001.4,798.595 998.281,816.0 C 994.321,838.097 970.175,848.275 951.0,854.667 C 941.527,857.824 932.421,860.621 923.0,855.586 C 906.968,847.02 905.152,827.154 893.0,815.0 L 887.0,829.0 L 868.0,820.0 C 871.058,815.794 879.46,808.411 875.0,804.0 L 874.0,803.0 L 873.0,803.0" style="stroke:#010101; fill:none;"/>
	<path d="M 762.0,781.0 L 764.0,783.0" style="stroke:#010101; fill:none;"/>
	<path d="M 1044.0,781.0 C 1052.05,785.908 1050.17,791.836 1050.0,800.0 C 1058.62,797.507 1069.78,794.71 1076.0,788.0 L 1071.0,785.0" style="stroke:#010101; fill:none;"/>
	<path d="M 776.0,783.0 L 779.0,782.0" style="stroke:#010101; fill:none;"/>
	<path d="M 905.0,784.0 L 900.0,789.0" style="stroke:#010101; fill:none;"/>
	<path d="M 762.0,785.0 L 739.0,818.0" style="stroke:#010101; fill:none;"/>
	<path d="M 776.0,787.0 L 774.0,790.0 L 775.0,785.0" style="stroke:#010101; fill:none;"/>
	<path d="M 891.0,785.0 L 897.0,790.0" style="stroke:#010101; fill:none;"/>
	<path d="M 923.0,785.0 L 926.0,788.0" style="stroke:#010101; fill:none;"/>
	<path d="M 772.0,788.0 C 766.285,793.762 755.763,802.627 755.0,811.0 L 774.0,790.0" style="stroke:#010101; fill:none;"/>
	<path d="M 912.0,789.0 L 912.0,792.0" style="stroke:#010101; fill:none;"/>
	<path d="M 915.0,789.0 L 921.0,795.0" style="stroke:#010101; fill:none;"/>
	<path d="M 762.0,795.0 L 764.0,797.0" style="stroke:#010101; fill:none;"/>
	<path d="M 873.0,795.0 C 878.288,798.889 883.615,802.193 885.0,809.0 L 879.0,807.0" style="stroke:#010101; fill:none;"/>
	<path d="M 884.0,803.0 L 890.0,797.0" style="stroke:#010101; fill:none;"/>
	<path d="M 945.054,801.738 C 965.476,793.748 973.851,823.672 954.0,830.866 C 934.612,837.891 926.709,808.915 945.054,801.738" style="stroke:#010101; fill:none;"/>
	<path d="M 879.0,878.0 C 889.144,887.276 910.948,875.329 923.0,871.859 C 946.572,865.071 974.958,854.717 995.0,840.363 C 1013.11,827.394 1028.05,810.026 1049.0,801.0" style="stroke:#010101; fill:none;"/>
	<path d="M 908.0,803.0 L 898.0,815.0 L 901.0,822.0" style="stroke:#010101; fill:none;"/>
	<path d="M 897.0,804.0 C 895.292,810.047 891.573,811.41 886.0,809.0" style="stroke:#010101; fill:none;"/>
	<path d="M 942.0,807.0 C 955.471,805.008 946.573,825.481 936.0,818.0" style="stroke:#010101; fill:none;"/>
	<path d="M 754.0,810.0 L 751.0,817.0" style="stroke:#010101; fill:none;"/>
	<path d="M 755.0,811.0 L 754.0,814.0" style="stroke:#010101; fill:none;"/>
	<path d="M 894.0,811.0 L 898.0,815.0" style="stroke:#010101; fill:none;"/>
	<path d="M 752.0,813.0 L 750.0,815.0" style="stroke:#010101; fill:none;"/>
	<path d="M 892.0,813.0 L 893.0,814.0" style="stroke:#010101; fill:none;"/>
	<path d="M 749.0,817.0 L 732.0,839.0" style="stroke:#010101; fill:none;"/>
	<path d="M 750.0,818.0 L 748.0,820.0" style="stroke:#010101; fill:none;"/>
	<path d="M 748.0,820.0 L 747.0,823.0" style="stroke:#010101; fill:none;"/>
	<path d="M 736.0,822.0 L 738.0,824.0" style="stroke:#010101; fill:none;"/>
	<path d="M 867.0,822.0 L 855.0,852.0 L 878.0,855.0 C 871.72,863.445 865.744,874.546 857.0,880.481 C 854.846,881.943 849.367,886.65 846.693,884.263 C 840.609,878.834 853.955,868.028 843.0,864.0" style="stroke:#010101; fill:none;"/>
	<path d="M 901.0,823.0 L 899.0,825.0" style="stroke:#010101; fill:none;"/>
	<path d="M 1029.0,824.0 L 1033.0,826.0" style="stroke:#010101; fill:none;"/>
	<path d="M 736.0,827.0 L 735.0,830.0 L 735.0,826.0" style="stroke:#010101; fill:none;"/>
	<path d="M 1595.0,826.0 L 1593.0,831.0" style="stroke:#010101; fill:none;"/>
	<path d="M 732.0,830.0 L 735.0,830.0" style="stroke:#010101; fill:none;"/>
	<path d="M 887.0,830.0 C 880.93,844.256 875.365,844.565 861.0,840.0" style="stroke:#010101; fill:none;"/>
	<path d="M 1027.0,830.0 L 1032.0,831.0" style="stroke:#010101; fill:none;"/>
	<path d="M 1604.0,830.0 L 1613.0,838.0" style="stroke:#010101; fill:none;"/>
	<path d="M 732.0,832.0 L 720.0,851.0" style="stroke:#010101; fill:none;"/>
	<path d="M 871.0,832.0 L 884.0,837.0" style="stroke:#010101; fill:none;"/>
	<path d="M 1019.0,833.0 L 1028.0,836.0" style="stroke:#010101; fill:none;"/>
	<path d="M 852.0,837.0 L 858.0,840.0" style="stroke:#010101; fill:none;"/>
	<path d="M 1018.0,846.0 C 1015.28,843.425 1012.64,841.519 1015.0,838.0 L 1018.0,840.0" style="stroke:#010101; fill:none;"/>
	<path d="M 872.0,844.0 L 872.0,852.0" style="stroke:#010101; fill:none;"/>
	<path d="M 874.0,844.0 L 874.0,852.0" style="stroke:#010101; fill:none;"/>
	<path d="M 880.0,844.0 L 877.0,853.0" style="stroke:#010101; fill:none;"/>
	<path d="M 1005.0,859.0 L 1001.0,847.0 L 1010.0,849.0" style="stroke:#010101; fill:none;"/>
	<path d="M 849.0,851.0 C 854.031,854.071 850.737,860.463 849.0,865.0" style="stroke:#010101; fill:none;"/>
	<path d="M 724.0,853.0 L 711.0,876.0" style="stroke:#010101; fill:none;"/>
	<path d="M 994.0,854.0 L 999.0,860.0" style="stroke:#010101; fill:none;"/>
	<path d="M 986.0,857.0 L 982.0,858.0 C 986.309,856.873 988.649,859.322 992.0,862.0" style="stroke:#010101; fill:none;"/>
	<path d="M 879.0,857.0 C 878.75,868.731 873.852,879.337 865.0,887.0" style="stroke:#010101; fill:none;"/>
	<path d="M 981.0,857.0 L 982.0,858.0" style="stroke:#010101; fill:none;"/>
	<path d="M 974.0,865.0 L 975.0,867.0" style="stroke:#010101; fill:none;"/>
	<path d="M 851.0,866.0 L 864.0,867.0" style="stroke:#010101; fill:none;"/>
	<path d="M 967.0,867.0 L 970.0,872.0" style="stroke:#010101; fill:none;"/>
	<path d="M 1274.0,868.0 L 1276.0,913.0" style="stroke:#010101; fill:none;"/>
	<path d="M 962.0,869.0 L 965.0,873.0" style="stroke:#010101; fill:none;"/>
	<path d="M 948.0,887.0 C 947.78,881.934 945.118,870.359 954.0,875.0" style="stroke:#010101; fill:none;"/>
	<path d="M 910.0,902.0 C 905.446,889.841 912.082,883.219 923.0,879.014 C 925.706,877.972 930.414,874.165 933.397,876.122 C 935.892,877.759 935.804,885.165 937.0,888.0" style="stroke:#010101; fill:none;"/>
	<path d="M 943.0,885.0 C 941.893,881.115 941.847,878.378 946.0,877.0" style="stroke:#010101; fill:none;"/>
	<path d="M 872.0,883.0 L 872.0,886.0" style="stroke:#010101; fill:none;"/>
	<path d="M 903.0,884.0 C 900.826,890.684 896.266,901.524 904.0,906.0" style="stroke:#010101; fill:none;"/>
	<path d="M 915.0,884.0 L 913.0,896.0" style="stroke:#010101; fill:none;"/>
	<path d="M 831.0,885.0 L 845.0,887.0" style="stroke:#010101; fill:none;"/>
	<path d="M 885.0,889.0 L 870.0,904.0" style="stroke:#010101; fill:none;"/>
	<path d="M 896.0,891.0 C 890.525,894.647 888.159,898.382 888.0,905.0" style="stroke:#010101; fill:none;"/>
	<path d="M 996.0,891.0 C 971.787,908.591 940.465,927.0 910.0,927.0" style="stroke:#010101; fill:none;"/>
	<path d="M 863.0,911.0 C 864.148,905.166 867.295,893.007 875.0,896.0" style="stroke:#010101; fill:none;"/>
	<path d="M 881.0,894.0 L 877.0,905.0" style="stroke:#010101; fill:none;"/>
	<path d="M 1380.0,908.0 C 1375.17,916.189 1370.32,924.394 1362.0,929.532 C 1344.37,940.415 1312.18,938.086 1293.0,933.0" style="stroke:#010101; fill:none;"/>
	<path d="M 1430.0,925.0 L 1434.0,931.0 L 1422.0,941.0 C 1422.64,934.651 1425.12,929.146 1430.0,925.0" style="stroke:#010101; fill:none;"/>
	<path d="M 1435.0,933.0 C 1435.76,949.764 1409.23,961.211 1399.0,971.0" style="stroke:#010101; fill:none;"/>
	<path d="M 1422.0,941.0 C 1416.81,947.087 1407.19,956.043 1406.0,964.0" style="stroke:#010101; fill:none;"/>
	<path d="M 1418.0,956.0 L 1426.0,948.0" style="stroke:#010101; fill:none;"/>
	<path d="M 1218.0,953.0 C 1203.79,977.44 1196.76,1029.41 1231.0,1041.24 C 1250.27,1047.89 1271.33,1038.28 1290.0,1034.0" style="stroke:#010101; fill:none;"/>
	<path d="M 1411.0,960.0 L 1417.0,955.0" style="stroke:#010101; fill:none;"/>
	<path d="M 1410.0,956.0 L 1412.0,958.0" style="stroke:#010101; fill:none;"/>
	<path d="M 1403.0,958.0 L 1404.0,966.0" style="stroke:#010101; fill:none;"/>
	<path d="M 1408.0,959.0 L 1410.0,961.0" style="stroke:#010101; fill:none;"/>
	<path d="M 1401.0,963.0 C 1390.33,976.879 1378.5,986.215 1364.0,996.0" style="stroke:#010101; fill:none;"/>
	<path d="M 1405.0,963.0 L 1403.0,965.0" style="stroke:#010101; fill:none;"/>
	<path d="M 1322.0,980.0 L 1307.0,985.0 C 1309.6,979.322 1316.44,978.079 1322.0,980.0" style="stroke:#010101; fill:none;"/>
	<path d="M 1322.0,978.0 L 1323.0,980.0" style="stroke:#010101; fill:none;"/>
	<path d="M 1326.0,980.0 L 1330.0,979.0 L 1325.0,979.0" style="stroke:#010101; fill:none;"/>
	<path d="M 1331.0,979.0 L 1351.0,978.0" style="stroke:#010101; fill:none;"/>
	<path d="M 1311.0,982.0 L 1311.0,983.0" style="stroke:#010101; fill:none;"/>
	<path d="M 1326.0,982.0 L 1295.0,993.0 C 1295.57,987.587 1301.06,984.982 1306.0,984.0" style="stroke:#010101; fill:none;"/>
	<path d="M 1318.0,997.0 L 1274.0,1016.0 C 1273.05,1010.24 1278.78,1001.64 1284.05,998.983 C 1288.44,996.778 1295.14,996.572 1300.0,994.925 C 1312.15,990.81 1324.43,985.601 1337.0,983.0" style="stroke:#010101; fill:none;"/>
	<path d="M 1286.0,996.0 L 1294.0,990.0" style="stroke:#010101; fill:none;"/>
	<path d="M 1292.0,992.0 L 1294.0,994.0" style="stroke:#010101; fill:none;"/>
	<path d="M 1281.0,1005.0 L 1320.0,992.0" style="stroke:#010101; fill:none;"/>
	<path d="M 1280.0,1009.0 L 1292.0,1007.0" style="stroke:#010101; fill:none;"/>
	<path d="M 1371.0,1068.0 C 1387.77,1068.0 1404.91,1065.78 1419.0,1055.7 C 1428.45,1048.94 1436.9,1034.11 1449.0,1032.21 C 1457.89,1030.82 1468.42,1034.49 1477.0,1036.63 C 1499.75,1042.29 1521.78,1053.58 1545.0,1057.0" style="stroke:#010101; fill:none;"/>
	<path d="M 1271.0,1206.0 C 1292.02,1169.07 1306.33,1130.81 1335.98,1099.0 C 1343.68,1090.73 1351.07,1081.74 1361.0,1076.0" style="stroke:#010101; fill:none;"/>
	<path d="M 1553.0,1084.0 C 1562.04,1105.43 1541.02,1119.09 1526.0,1129.0" style="stroke:#010101; fill:none;"/>
	<path d="M 1670.0,1095.0 L 1671.0,1099.0" style="stroke:#010101; fill:none;"/>
	<path d="M 1665.0,1101.0 L 1667.0,1105.0" style="stroke:#010101; fill:none;"/>
	<path d="M 1553.0,1112.0 L 1561.0,1110.0" style="stroke:#010101; fill:none;"/>
	<path d="M 1425.0,1132.0 L 1418.0,1135.0 C 1419.24,1136.58 1421.18,1139.72 1423.67,1138.25 C 1426.38,1136.64 1425.22,1131.95 1428.06,1129.86 C 1438.45,1122.2 1453.7,1119.75 1466.0,1117.61 C 1470.04,1116.91 1475.94,1114.49 1480.0,1115.58 C 1482.28,1116.2 1491.3,1125.78 1491.78,1128.0 C 1492.71,1132.34 1489.31,1133.93 1494.0,1137.0 C 1495.98,1133.37 1496.09,1131.58 1494.0,1128.0" style="stroke:#010101; fill:none;"/>
	<path d="M 1668.0,1116.0 L 1669.0,1119.0" style="stroke:#010101; fill:none;"/>
	<path d="M 1672.0,1119.0 L 1671.0,1122.0" style="stroke:#010101; fill:none;"/>
	<path d="M 1487.0,1124.0 L 1490.0,1132.0" style="stroke:#010101; fill:none;"/>
	<path d="M 1559.0,1129.0 L 1565.0,1140.0" style="stroke:#010101; fill:none;"/>
	<path d="M 1497.0,1131.0 L 1500.0,1141.0 C 1503.25,1137.91 1504.17,1134.64 1500.0,1132.0" style="stroke:#010101; fill:none;"/>
	<path d="M 1504.0,1132.0 L 1517.0,1132.0" style="stroke:#010101; fill:none;"/>
	<path d="M 1675.0,1132.0 C 1675.79,1150.13 1685.05,1168.81 1687.73,1187.0 C 1695.98,1243.03 1698.97,1297.22 1685.77,1353.0 C 1681.79,1369.8 1674.79,1385.51 1670.0,1402.0 C 1668.02,1408.83 1663.87,1416.43 1672.0,1420.0" style="stroke:#010101; fill:none;"/>
	<path d="M 1509.0,1134.0 L 1505.0,1138.0" style="stroke:#010101; fill:none;"/>
	<path d="M 1364.0,1177.0 C 1360.06,1169.05 1367.46,1164.63 1373.09,1159.74 C 1385.81,1148.7 1400.51,1136.43 1418.0,1135.0" style="stroke:#010101; fill:none;"/>
	<path d="M 1490.0,1137.0 C 1486.98,1140.24 1483.46,1143.22 1479.99,1145.99 C 1477.75,1147.76 1475.39,1149.27 1473.0,1150.81 C 1470.3,1152.56 1462.87,1161.21 1471.06,1161.26 C 1480.14,1161.33 1494.57,1148.69 1491.0,1140.0" style="stroke:#010101; fill:none;"/>
	<path d="M 1494.0,1137.0 L 1491.0,1140.0" style="stroke:#010101; fill:none;"/>
	<path d="M 1496.0,1138.0 L 1498.0,1141.0" style="stroke:#010101; fill:none;"/>
	<path d="M 1498.0,1142.0 L 1495.0,1144.0" style="stroke:#010101; fill:none;"/>
	<path d="M 1428.0,1144.0 L 1436.0,1158.0" style="stroke:#010101; fill:none;"/>
	<path d="M 1569.0,1155.0 L 1569.0,1157.0" style="stroke:#010101; fill:none;"/>
	<path d="M 1467.0,1162.0 C 1463.45,1174.08 1438.57,1184.27 1427.0,1186.0 C 1427.04,1174.72 1437.25,1172.81 1440.0,1163.0 C 1450.03,1164.65 1456.88,1158.63 1466.0,1156.0" style="stroke:#010101; fill:none;"/>
	<path d="M 1569.0,1159.0 L 1570.0,1166.0" style="stroke:#010101; fill:none;"/>
	<path d="M 1439.0,1161.0 L 1439.0,1162.0" style="stroke:#010101; fill:none;"/>
	<path d="M 1469.0,1162.0 L 1468.0,1165.0" style="stroke:#010101; fill:none;"/>
	<path d="M 1571.0,1169.0 C 1570.93,1193.02 1556.89,1221.99 1537.0,1236.0" style="stroke:#010101; fill:none;"/>
	<path d="M 1361.0,1173.0 C 1349.28,1184.75 1340.88,1199.8 1330.7,1212.91 C 1325.66,1219.39 1320.25,1224.19 1322.0,1233.0 C 1331.1,1231.44 1336.02,1224.47 1330.0,1216.0" style="stroke:#010101; fill:none;"/>
	<path d="M 1332.0,1230.0 L 1364.0,1208.44 L 1426.0,1178.0" style="stroke:#010101; fill:none;"/>
	<path d="M 1369.0,1186.0 C 1370.92,1191.23 1375.87,1192.13 1381.0,1193.0" style="stroke:#010101; fill:none;"/>
	<path d="M 1409.0,1189.0 L 1426.0,1187.0" style="stroke:#010101; fill:none;"/>
	<path d="M 1372.0,1191.0 C 1361.77,1204.6 1350.23,1214.09 1333.0,1217.0" style="stroke:#010101; fill:none;"/>
	<path d="M 1371.0,1192.0 L 1373.0,1198.0" style="stroke:#010101; fill:none;"/>
	<path d="M 1376.0,1192.0 L 1376.0,1197.0" style="stroke:#010101; fill:none;"/>
	<path d="M 1391.0,1197.0 C 1389.88,1194.7 1389.56,1194.59 1392.0,1195.0" style="stroke:#010101; fill:none;"/>
	<path d="M 1386.0,1195.0 L 1389.0,1195.0" style="stroke:#010101; fill:none;"/>
	<path d="M 1370.0,1199.0 L 1370.0,1201.0" style="stroke:#010101; fill:none;"/>
	<path d="M 1343.0,1216.0 L 1343.0,1218.0" style="stroke:#010101; fill:none;"/>
	<path d="M 1330.0,1219.0 L 1327.0,1231.0" style="stroke:#010101; fill:none;"/>
	<path d="M 1255.0,1268.0 C 1268.52,1267.41 1273.9,1256.97 1284.0,1249.79 C 1295.74,1241.43 1307.83,1236.67 1321.0,1233.0 L 1320.0,1228.0" style="stroke:#010101; fill:none;"/>
	<path d="M 1318.0,1230.0 L 1315.0,1233.0" style="stroke:#010101; fill:none;"/>
	<path d="M 1536.0,1238.0 L 1522.0,1247.0" style="stroke:#010101; fill:none;"/>
	<path d="M 1292.0,1284.0 C 1306.84,1288.39 1325.53,1283.36 1341.0,1284.04 C 1375.24,1285.54 1404.8,1291.81 1439.0,1283.1 C 1467.78,1275.78 1491.97,1257.14 1520.0,1248.0" style="stroke:#010101; fill:none;"/>
	<path d="M 1554.0,1256.0 L 1555.0,1256.0" style="stroke:#010101; fill:none;"/>
	<path d="M 1422.0,1332.0 C 1443.82,1317.29 1467.91,1306.21 1491.0,1293.69 C 1516.54,1279.85 1543.05,1264.0 1573.0,1264.0" style="stroke:#010101; fill:none;"/>
	<path d="M 1666.0,1417.0 L 1669.0,1428.0" style="stroke:#010101; fill:none;"/>
	<path d="M 1664.0,1421.0 C 1655.59,1430.87 1654.39,1435.62 1661.0,1447.0" style="stroke:#010101; fill:none;"/>
	<path d="M 1807.0,1519.0 L 1818.0,1527.0 C 1808.57,1529.67 1796.79,1528.0 1787.0,1528.0 C 1759.97,1528.0 1725.95,1530.04 1703.0,1513.14 C 1676.91,1493.92 1663.92,1465.35 1647.0,1439.0 L 1653.0,1435.0" style="stroke:#010101; fill:none;"/>
	<path d="M 1442.0,1647.0 L 1542.25,1534.0 L 1559.72,1509.0 L 1567.31,1494.38 L 1593.0,1478.12 L 1647.0,1439.0" style="stroke:#010101; fill:none;"/>
	<path d="M 810.0,1447.0 L 811.0,1447.0" style="stroke:#010101; fill:none;"/>
	<path d="M 820.0,1454.0 C 828.023,1470.86 848.954,1483.9 863.0,1495.59 C 905.368,1530.85 950.467,1556.53 1000.0,1580.0 C 998.679,1584.77 1003.39,1586.63 1007.0,1589.12 C 1016.19,1595.45 1026.18,1600.93 1036.0,1606.23 C 1077.37,1628.58 1121.13,1649.08 1165.0,1666.0" style="stroke:#010101; fill:none;"/>
	<path d="M 791.0,1460.0 C 806.912,1486.85 839.879,1505.06 864.0,1524.0 C 870.229,1528.89 882.935,1542.58 891.0,1541.0 L 867.0,1519.0" style="stroke:#010101; fill:none;"/>
	<path d="M 734.0,1465.0 C 765.84,1499.57 791.155,1539.85 818.427,1578.0 C 837.297,1604.39 859.482,1627.52 875.576,1656.0 C 891.589,1684.34 900.726,1715.95 915.248,1745.0 C 926.743,1767.99 941.462,1789.39 953.691,1812.0 C 983.29,1866.72 1012.2,1922.42 1047.0,1974.0" style="stroke:#010101; fill:none;"/>
	<path d="M 2036.0,1491.0 C 1966.0,1514.89 1891.57,1526.95 1818.0,1527.0" style="stroke:#010101; fill:none;"/>
	<path d="M 1379.0,1638.0 C 1399.5,1629.49 1416.07,1608.98 1431.96,1594.17 C 1452.19,1575.32 1472.83,1556.7 1494.0,1538.92 C 1499.45,1534.34 1503.28,1527.83 1509.01,1523.75 C 1520.74,1515.41 1534.06,1510.57 1547.0,1504.76 C 1553.16,1502.0 1558.42,1497.9 1565.0,1496.0" style="stroke:#010101; fill:none;"/>
	<path d="M 1701.0,1500.0 C 1705.93,1503.79 1713.4,1509.44 1710.0,1516.0" style="stroke:#010101; fill:none;"/>
	<path d="M 1546.0,1506.0 L 1533.0,1519.0 L 1505.0,1543.42 L 1440.0,1602.16 L 1408.0,1628.0" style="stroke:#010101; fill:none;"/>
	<path d="M 1888.0,1509.0 L 1892.0,1510.0" style="stroke:#010101; fill:none;"/>
	<path d="M 1738.0,1517.0 L 1740.0,1525.0" style="stroke:#010101; fill:none;"/>
	<path d="M 1862.0,1518.0 L 1865.0,1518.0" style="stroke:#010101; fill:none;"/>
	<path d="M 1811.0,1521.0 L 1811.0,1527.0" style="stroke:#010101; fill:none;"/>
	<path d="M 1493.0,1529.0 L 1505.0,1527.0" style="stroke:#010101; fill:none;"/>
	<path d="M 1363.0,1643.0 C 1409.57,1607.55 1447.56,1554.95 1501.0,1530.0" style="stroke:#010101; fill:none;"/>
	<path d="M 893.0,1542.0 L 896.0,1545.0 L 894.0,1547.0 L 891.0,1543.0" style="stroke:#010101; fill:none;"/>
	<path d="M 897.0,1545.0 L 900.0,1548.0 L 898.0,1550.0 L 895.0,1547.0" style="stroke:#010101; fill:none;"/>
	<path d="M 1334.0,1639.0 C 1353.66,1620.9 1376.36,1604.27 1398.0,1588.58 C 1403.14,1584.85 1418.93,1577.04 1417.0,1570.0 L 1472.0,1546.0" style="stroke:#010101; fill:none;"/>
	<path d="M 901.0,1548.0 L 904.0,1551.0 L 902.0,1553.0 L 899.0,1550.0" style="stroke:#010101; fill:none;"/>
	<path d="M 905.0,1551.0 L 908.0,1554.0 L 903.0,1553.0" style="stroke:#010101; fill:none;"/>
	<path d="M 1719.0,1552.0 C 1736.52,1599.85 1778.68,1631.35 1823.0,1651.0" style="stroke:#010101; fill:none;"/>
	<path d="M 909.0,1554.0 L 912.0,1557.0 L 907.0,1556.0" style="stroke:#010101; fill:none;"/>
	<path d="M 913.0,1557.0 L 916.0,1560.0 L 911.0,1559.0" style="stroke:#010101; fill:none;"/>
	<path d="M 917.0,1560.0 L 922.0,1564.0 L 915.0,1562.0" style="stroke:#010101; fill:none;"/>
	<path d="M 923.0,1564.0 C 947.421,1582.77 974.711,1598.24 1001.0,1614.2 C 1025.3,1628.96 1050.71,1645.06 1077.0,1656.0" style="stroke:#010101; fill:none;"/>
	<path d="M 942.0,1564.0 C 992.022,1602.45 1054.86,1622.6 1110.0,1652.0" style="stroke:#010101; fill:none;"/>
	<path d="M 1439.0,1565.0 L 1338.0,1652.0" style="stroke:#010101; fill:none;"/>
	<path d="M 921.0,1566.0 C 964.686,1603.8 1017.23,1632.77 1065.0,1665.0" style="stroke:#010101; fill:none;"/>
	<path d="M 1387.0,1580.0 L 1385.0,1582.0 L 1417.0,1570.0" style="stroke:#010101; fill:none;"/>
	<path d="M 1000.0,1580.0 C 1038.0,1590.86 1073.11,1604.84 1113.0,1608.83 C 1172.88,1614.82 1234.63,1610.02 1294.0,1600.85 C 1324.51,1596.14 1353.89,1587.23 1384.0,1581.0" style="stroke:#010101; fill:none;"/>
	<path d="M 1386.0,1584.0 L 1305.0,1644.0" style="stroke:#010101; fill:none;"/>
	<path d="M 1354.0,1589.0 L 1358.0,1590.0" style="stroke:#010101; fill:none;"/>
	<path d="M 1357.0,1591.0 C 1332.33,1614.59 1297.92,1638.62 1266.0,1651.0" style="stroke:#010101; fill:none;"/>
	<path d="M 1336.0,1594.0 C 1326.77,1604.34 1312.42,1611.02 1301.0,1618.75 C 1285.13,1629.47 1267.57,1645.54 1249.0,1651.0" style="stroke:#010101; fill:none;"/>
	<path d="M 1294.0,1602.0 C 1275.52,1619.63 1249.55,1636.0 1227.0,1648.0" style="stroke:#010101; fill:none;"/>
	<path d="M 1269.0,1606.0 C 1254.28,1619.97 1234.47,1629.44 1218.0,1641.29 C 1210.33,1646.8 1200.54,1655.75 1191.0,1657.0" style="stroke:#010101; fill:none;"/>
	<path d="M 1852.0,1624.0 C 1864.51,1616.63 1879.85,1610.35 1894.0,1607.0" style="stroke:#010101; fill:none;"/>
	<path d="M 1242.0,1608.0 C 1225.7,1626.27 1199.4,1644.13 1178.0,1656.0" style="stroke:#010101; fill:none;"/>
	<path d="M 1144.0,1612.0 C 1135.42,1618.93 1118.93,1626.36 1108.0,1628.0" style="stroke:#010101; fill:none;"/>
	<path d="M 1409.0,1615.0 L 1407.0,1617.0" style="stroke:#010101; fill:none;"/>
	<path d="M 1195.0,1617.0 C 1180.3,1627.0 1163.97,1643.59 1147.0,1649.0" style="stroke:#010101; fill:none;"/>
	<path d="M 1122.0,1637.0 L 1160.0,1618.0" style="stroke:#010101; fill:none;"/>
	<path d="M 1217.0,1618.0 C 1200.57,1630.04 1180.79,1647.3 1161.0,1653.0" style="stroke:#010101; fill:none;"/>
	<path d="M 1112.0,1619.0 L 1087.0,1626.0" style="stroke:#010101; fill:none;"/>
	<path d="M 1409.0,1619.0 L 1401.0,1631.0" style="stroke:#010101; fill:none;"/>
	<path d="M 1165.0,1627.0 L 1141.0,1642.0" style="stroke:#010101; fill:none;"/>
	<path d="M 1156.0,1656.0 C 1177.25,1668.88 1204.21,1673.63 1228.0,1679.88 C 1243.02,1683.83 1259.43,1689.32 1275.0,1690.0" style="stroke:#010101; fill:none;"/>
	<path d="M 1196.0,1657.0 L 1224.0,1664.9 L 1278.0,1676.0" style="stroke:#010101; fill:none;"/>
	<path d="M 1155.0,1674.0 C 1179.94,1690.44 1211.49,1698.43 1240.0,1706.15 C 1256.46,1710.61 1273.95,1716.64 1291.0,1718.0" style="stroke:#010101; fill:none;"/>
	<path d="M 1073.0,1691.0 C 1130.95,1703.11 1183.35,1737.0 1244.0,1737.0" style="stroke:#010101; fill:none;"/>
	<path d="M 1171.0,1699.0 C 1198.19,1712.69 1229.59,1714.36 1258.0,1724.0" style="stroke:#010101; fill:none;"/>
	<path d="M 1126.0,1716.0 L 1232.0,1751.0" style="stroke:#010101; fill:none;"/>
	<path d="M 1168.0,1769.0 C 1228.86,1793.97 1293.21,1814.79 1358.0,1827.0" style="stroke:#010101; fill:none;"/>
	<path d="M 1205.0,1812.0 C 1252.1,1821.75 1296.97,1842.8 1345.0,1849.0" style="stroke:#010101; fill:none;"/>
	<path d="M 2036.0,1831.0 L 2017.28,1865.0 L 1975.0,1936.0" style="stroke:#010101; fill:none;"/>
	<path d="M 2036.0,1849.0 L 2018.0,1888.0" style="stroke:#010101; fill:none;"/>
	<path d="M 1145.0,1854.0 C 1168.77,1867.87 1196.21,1877.3 1222.0,1886.7 C 1263.53,1901.82 1305.47,1916.45 1348.0,1928.57 C 1369.79,1934.79 1392.48,1939.18 1414.0,1946.0" style="stroke:#010101; fill:none;"/>
	<path d="M 2007.0,1866.0 L 1948.0,1951.0" style="stroke:#010101; fill:none;"/>
	<path d="M 1211.0,1876.0 C 1254.27,1886.01 1296.66,1909.88 1342.0,1910.0" style="stroke:#010101; fill:none;"/>
	<path d="M 1200.0,1899.0 L 1240.0,1916.69 L 1298.0,1937.97 L 1386.0,1963.85 L 1436.0,1978.0" style="stroke:#010101; fill:none;"/>
	<path d="M 1951.0,1929.0 L 1910.0,1974.0" style="stroke:#010101; fill:none;"/>
	<path d="M 1014.0,1937.0 L 1023.0,1941.0" style="stroke:#010101; fill:none;"/>
	<path d="M 1258.0,1942.0 L 1338.0,1972.48 L 1415.0,1998.0" style="stroke:#010101; fill:none;"/>
	<path d="M 1030.0,1944.0 L 1037.0,1946.0" style="stroke:#010101; fill:none;"/>
	<path d="M 1332.0,1980.0 C 1371.6,1993.48 1409.83,2018.32 1452.0,2024.0" style="stroke:#010101; fill:none;"/>
	<path d="M 1057.0,1998.0 C 1061.6,2007.42 1073.4,2029.91 1070.0,2040.0 L 1055.0,2020.0" style="stroke:#010101; fill:none;"/>
	<path d="M 1165.0,2008.0 C 1203.14,2065.64 1251.63,2116.07 1297.0,2168.0" style="stroke:#010101; fill:none;"/>
	<path d="M 1760.0,2060.0 C 1766.19,2046.76 1769.75,2024.64 1781.0,2015.0" style="stroke:#010101; fill:none;"/>
	<path d="M 1376.0,2017.0 L 1460.0,2051.0" style="stroke:#010101; fill:none;"/>
	<path d="M 1069.0,2031.0 L 1065.0,2035.0" style="stroke:#010101; fill:none;"/>
	<path d="M 1055.0,2033.0 L 1062.0,2033.0" style="stroke:#010101; fill:none;"/>
	<path d="M 1073.0,2040.0 C 1088.49,2085.86 1105.86,2126.32 1089.65,2175.0 C 1085.09,2188.69 1082.72,2201.77 1080.41,2216.0 C 1079.24,2223.19 1075.56,2228.65 1082.0,2234.0" style="stroke:#010101; fill:none;"/>
	<path d="M 1392.0,2043.0 L 1465.0,2069.0" style="stroke:#010101; fill:none;"/>
	<path d="M 1187.0,2052.0 C 1191.57,2071.23 1209.19,2087.36 1219.0,2104.0 L 1217.0,2100.0" style="stroke:#010101; fill:none;"/>
	<path d="M 1335.0,2073.0 L 1487.0,2218.0" style="stroke:#010101; fill:none;"/>
	<path d="M 1428.0,2080.0 L 1458.0,2095.0" style="stroke:#010101; fill:none;"/>
	<path d="M 1215.0,2099.0 L 1215.0,2100.0" style="stroke:#010101; fill:none;"/>
	<path d="M 1221.0,2103.0 C 1262.66,2159.2 1314.69,2207.85 1365.0,2256.0" style="stroke:#010101; fill:none;"/>
	<path d="M 1219.0,2104.0 C 1224.59,2121.49 1244.94,2138.25 1256.73,2152.0 C 1289.42,2190.12 1323.5,2227.5 1359.0,2263.0" style="stroke:#010101; fill:none;"/>
	<path d="M 1440.0,2104.0 L 1484.0,2124.0" style="stroke:#010101; fill:none;"/>
	<path d="M 1223.0,2130.0 C 1232.24,2151.43 1251.07,2170.35 1266.96,2187.0 C 1285.06,2205.96 1302.6,2225.55 1320.17,2245.0 C 1329.34,2255.15 1340.13,2264.82 1348.0,2276.0" style="stroke:#010101; fill:none;"/>
	<path d="M 1390.0,2141.0 L 1417.29,2169.59 L 1434.0,2187.0 L 1431.0,2184.0" style="stroke:#010101; fill:none;"/>
	<path d="M 1224.0,2156.0 C 1243.46,2184.61 1269.01,2209.21 1292.96,2234.0 C 1312.63,2254.35 1331.21,2275.79 1351.0,2296.0" style="stroke:#010101; fill:none;"/>
	<path d="M 1231.0,2186.0 C 1248.92,2214.57 1273.97,2237.49 1297.13,2261.67 C 1310.24,2275.35 1323.49,2292.07 1339.0,2303.0" style="stroke:#010101; fill:none;"/>
	<path d="M 1426.0,2187.0 C 1436.6,2202.72 1448.02,2218.43 1464.0,2229.0" style="stroke:#010101; fill:none;"/>
	<path d="M 1435.0,2188.0 L 1443.0,2194.0 L 1437.0,2190.0" style="stroke:#010101; fill:none;"/>
	<path d="M 1435.0,2189.0 L 1436.0,2190.0" style="stroke:#010101; fill:none;"/>
	<path d="M 1438.0,2189.0 L 1438.0,2191.0" style="stroke:#010101; fill:none;"/>
	<path d="M 1444.0,2194.0 L 1477.0,2222.0" style="stroke:#010101; fill:none;"/>
	<path d="M 1442.0,2196.0 L 1451.0,2201.0" style="stroke:#010101; fill:none;"/>
	<path d="M 1446.0,2196.0 L 1444.0,2198.0" style="stroke:#010101; fill:none;"/>
	<path d="M 1450.0,2203.0 L 1473.0,2225.0" style="stroke:#010101; fill:none;"/>
	<path d="M 1240.0,2217.0 C 1264.63,2250.87 1294.37,2284.7 1329.0,2309.0" style="stroke:#010101; fill:none;"/>
	<path d="M 1453.0,2222.0 L 1461.0,2232.0" style="stroke:#010101; fill:none;"/>
	<path d="M 1456.0,2223.0 L 1454.0,2225.0" style="stroke:#010101; fill:none;"/>
	<path d="M 1069.0,2228.0 L 1077.0,2230.0" style="stroke:#010101; fill:none;"/>
	<path d="M 1075.0,2233.0 L 1064.0,2251.0 L 1059.0,2246.0" style="stroke:#010101; fill:none;"/>
	<path d="M 1064.0,2252.0 C 1054.82,2269.5 1038.48,2290.48 1035.0,2310.0" style="stroke:#010101; fill:none;"/>
	<path d="M 1256.0,2256.0 L 1289.87,2295.13 L 1307.0,2310.0" style="stroke:#010101; fill:none;"/>
	<path d="M 1253.0,2271.0 L 1283.0,2310.0" style="stroke:#010101; fill:none;"/>
	<path d="M 1260.0,2307.0 L 1262.0,2310.0" style="stroke:#010101; fill:none;"/>
</svg>
