<?xml version="1.0" ?>
<svg baseProfile="full" height="2310" version="1.1" width="2037" xmlns="http://www.w3.org/2000/svg" xmlns:ev="http://www.w3.org/2001/xml-events" xmlns:xlink="http://www.w3.org/1999/xlink">
	<defs/>
	<path d="M 1160.0,362.0 L 1193.0,377.0 L 1185.0,382.0 C 1189.71,382.668 1192.98,381.733 1196.0,378.0 L 1193.0,377.0" style="stroke:#010101; fill:none;"/>
	<path d="M 1176.0,371.0 L 1175.0,377.0 L 1177.0,372.0" style="stroke:#010101; fill:none;"/>
	<path d="M 1151.0,393.0 L 1157.0,388.0 L 1155.0,386.0 L 1150.0,391.0 L 1153.0,394.0 L 1164.0,384.0 L 1168.0,390.0 L 1181.0,384.0 C 1177.78,383.076 1172.9,384.295 1170.21,382.307 C 1166.38,379.483 1169.82,376.776 1173.0,377.0" style="stroke:#010101; fill:none;"/>
	<path d="M 1204.0,375.0 L 1225.0,387.0" style="stroke:#010101; fill:none;"/>
	<path d="M 1173.0,378.0 L 1169.0,378.0" style="stroke:#010101; fill:none;"/>
	<path d="M 1175.0,378.0 L 1184.0,383.0 L 1181.0,384.0" style="stroke:#010101; fill:none;"/>
	<path d="M 1221.0,378.0 L 1222.0,378.0" style="stroke:#010101; fill:none;"/>
	<path d="M 1196.0,379.0 C 1204.2,380.127 1210.03,384.506 1216.0,390.0" style="stroke:#010101; fill:none;"/>
	<path d="M 1158.0,382.0 L 1160.0,381.0 L 1156.0,386.0" style="stroke:#010101; fill:none;"/>
	<path d="M 1127.0,399.0 L 1157.0,381.0" style="stroke:#010101; fill:none;"/>
	<path d="M 1160.0,381.0 L 1164.0,383.0" style="stroke:#010101; fill:none;"/>
	<path d="M 1164.0,382.0 L 1166.0,381.0" style="stroke:#010101; fill:none;"/>
	<path d="M 1157.0,388.0 L 1159.0,388.0" style="stroke:#010101; fill:none;"/>
	<path d="M 1220.0,388.0 L 1225.0,397.0" style="stroke:#010101; fill:none;"/>
	<path d="M 1166.0,389.0 C 1144.82,411.303 1127.91,439.944 1115.83,468.0 C 1112.98,474.618 1110.51,481.402 1107.61,488.0 C 1106.69,490.11 1102.89,493.231 1105.0,494.0" style="stroke:#010101; fill:none;"/>
	<path d="M 1150.0,394.0 L 1150.0,391.0" style="stroke:#010101; fill:none;"/>
	<path d="M 1148.0,393.0 L 1131.0,410.0 L 1132.0,411.0 L 1131.0,410.0" style="stroke:#010101; fill:none;"/>
	<path d="M 1153.0,395.0 L 1134.0,410.0" style="stroke:#010101; fill:none;"/>
	<path d="M 1133.0,407.0 L 1135.0,409.0" style="stroke:#010101; fill:none;"/>
	<path d="M 1089.0,457.0 C 1094.66,439.943 1115.66,419.098 1130.0,409.0" style="stroke:#010101; fill:none;"/>
	<path d="M 1138.0,412.0 L 1116.0,434.0 C 1112.63,437.374 1108.75,440.054 1110.0,445.0 L 1126.0,432.0 L 1127.0,433.0 L 1117.0,450.0 L 1116.0,447.0" style="stroke:#010101; fill:none;"/>
	<path d="M 1128.0,433.0 C 1131.28,427.312 1135.66,422.157 1142.0,420.0" style="stroke:#010101; fill:none;"/>
	<path d="M 1143.0,424.0 C 1141.04,427.837 1139.87,433.368 1135.0,433.0" style="stroke:#010101; fill:none;"/>
	<path d="M 1105.0,432.0 L 1108.0,430.0" style="stroke:#010101; fill:none;"/>
	<path d="M 1126.0,431.0 L 1129.0,430.0" style="stroke:#010101; fill:none;"/>
	<path d="M 1105.0,435.0 L 1104.0,436.0" style="stroke:#010101; fill:none;"/>
	<path d="M 1137.0,436.0 L 1119.0,474.0" style="stroke:#010101; fill:none;"/>
	<path d="M 1108.0,443.0 L 1087.42,466.83 L 1080.7,476.001 L 1080.0,514.0 L 1079.0,494.0" style="stroke:#010101; fill:none;"/>
	<path d="M 1109.0,444.0 L 1102.0,451.0" style="stroke:#010101; fill:none;"/>
	<path d="M 1115.0,449.0 C 1100.68,469.298 1094.97,502.931 1090.0,527.0" style="stroke:#010101; fill:none;"/>
	<path d="M 1117.0,450.0 C 1114.49,460.611 1102.0,479.759 1107.0,490.0" style="stroke:#010101; fill:none;"/>
	<path d="M 1105.0,455.0 C 1098.91,481.328 1087.18,506.568 1086.0,534.0" style="stroke:#010101; fill:none;"/>
	<path d="M 1096.0,457.0 C 1098.1,462.26 1095.39,467.701 1094.0,473.0 C 1091.17,483.818 1082.38,507.789 1087.0,518.0" style="stroke:#010101; fill:none;"/>
	<path d="M 1094.0,459.0 L 1097.0,462.0" style="stroke:#010101; fill:none;"/>
	<path d="M 1241.0,461.0 L 1239.0,479.0 L 1229.0,477.0 L 1229.0,466.0" style="stroke:#010101; fill:none;"/>
	<path d="M 1217.0,463.0 L 1217.0,475.0 L 1229.0,477.0" style="stroke:#010101; fill:none;"/>
	<path d="M 1088.0,469.0 L 1084.0,493.0" style="stroke:#010101; fill:none;"/>
	<path d="M 1201.0,490.0 L 1207.0,494.0 L 1198.0,501.0 C 1198.95,492.984 1203.06,489.165 1205.56,482.0 C 1206.56,479.16 1207.55,473.661 1211.92,475.912 C 1218.07,479.083 1212.9,487.636 1211.51,492.0 C 1211.0,493.612 1211.04,497.058 1213.0,496.0" style="stroke:#010101; fill:none;"/>
	<path d="M 1217.0,475.0 L 1215.0,477.0" style="stroke:#010101; fill:none;"/>
	<path d="M 1079.0,477.0 C 1066.14,493.679 1062.96,511.333 1061.96,532.0 C 1061.59,539.792 1060.52,548.767 1064.0,556.0 L 1071.0,546.0 L 1067.0,546.0 L 1077.0,487.0" style="stroke:#010101; fill:none;"/>
	<path d="M 1069.0,478.0 C 1057.2,490.941 1049.36,511.461 1049.0,529.0" style="stroke:#010101; fill:none;"/>
	<path d="M 1100.0,617.0 C 1101.9,572.725 1121.86,535.58 1153.01,505.039 C 1161.99,496.244 1172.6,488.146 1184.0,482.782 C 1186.98,481.38 1193.37,477.662 1196.68,479.238 C 1199.41,480.534 1199.64,486.46 1201.0,489.0" style="stroke:#010101; fill:none;"/>
	<path d="M 1250.0,478.0 L 1248.0,487.0 L 1239.0,479.0" style="stroke:#010101; fill:none;"/>
	<path d="M 1227.0,479.0 L 1233.0,489.0 L 1237.0,480.0" style="stroke:#010101; fill:none;"/>
	<path d="M 1226.0,484.0 C 1225.55,495.803 1212.72,504.654 1201.0,502.0" style="stroke:#010101; fill:none;"/>
	<path d="M 1248.0,487.0 C 1251.78,490.188 1254.16,490.842 1259.0,490.0 C 1257.64,499.338 1255.35,502.877 1249.0,510.0" style="stroke:#010101; fill:none;"/>
	<path d="M 1104.0,489.0 L 1104.0,492.0" style="stroke:#010101; fill:none;"/>
	<path d="M 1233.0,489.0 C 1230.82,504.646 1245.43,494.716 1251.0,490.0" style="stroke:#010101; fill:none;"/>
	<path d="M 1260.0,489.0 L 1262.0,489.0" style="stroke:#010101; fill:none;"/>
	<path d="M 1226.0,492.0 L 1231.0,491.0" style="stroke:#010101; fill:none;"/>
	<path d="M 1207.0,494.0 L 1209.0,496.0" style="stroke:#010101; fill:none;"/>
	<path d="M 1225.0,494.0 C 1228.31,497.189 1230.43,499.735 1235.0,498.0" style="stroke:#010101; fill:none;"/>
	<path d="M 1181.0,495.0 C 1184.08,509.942 1187.26,513.225 1198.0,501.0" style="stroke:#010101; fill:none;"/>
	<path d="M 1103.0,496.0 L 1100.0,507.0" style="stroke:#010101; fill:none;"/>
	<path d="M 1209.0,496.0 L 1209.0,500.0" style="stroke:#010101; fill:none;"/>
	<path d="M 1222.0,496.0 C 1224.86,498.577 1226.24,499.973 1230.0,499.0" style="stroke:#010101; fill:none;"/>
	<path d="M 1172.0,498.0 C 1176.14,506.463 1175.47,522.651 1187.0,511.0" style="stroke:#010101; fill:none;"/>
	<path d="M 1080.0,499.0 L 1082.0,499.0" style="stroke:#010101; fill:none;"/>
	<path d="M 1067.0,501.0 L 1065.0,504.0" style="stroke:#010101; fill:none;"/>
	<path d="M 1163.0,501.0 C 1167.72,509.132 1167.83,517.227 1161.68,524.96 C 1159.34,527.906 1154.84,529.66 1153.36,533.184 C 1143.56,556.456 1132.09,578.46 1126.35,604.0 C 1123.95,614.657 1120.3,636.437 1131.26,643.975 C 1135.13,646.633 1139.69,644.325 1142.83,641.61 C 1150.94,634.602 1156.25,625.015 1165.0,618.556 C 1189.78,600.263 1217.06,582.908 1235.28,557.0 C 1240.15,550.073 1252.57,533.337 1247.11,524.21 C 1244.58,519.976 1238.13,518.211 1234.0,516.0" style="stroke:#010101; fill:none;"/>
	<path d="M 1079.0,502.0 L 1082.0,502.0" style="stroke:#010101; fill:none;"/>
	<path d="M 1064.0,503.0 C 1057.96,512.716 1054.24,526.578 1054.0,538.0" style="stroke:#010101; fill:none;"/>
	<path d="M 1196.0,504.0 C 1206.03,513.915 1221.6,510.001 1235.0,510.0" style="stroke:#010101; fill:none;"/>
	<path d="M 1079.0,506.0 L 1081.0,506.0" style="stroke:#010101; fill:none;"/>
	<path d="M 1249.0,515.0 L 1264.0,507.0" style="stroke:#010101; fill:none;"/>
	<path d="M 1161.0,508.0 L 1164.0,517.0" style="stroke:#010101; fill:none;"/>
	<path d="M 1194.0,508.0 C 1197.02,510.48 1198.32,511.42 1202.0,510.0" style="stroke:#010101; fill:none;"/>
	<path d="M 1078.0,509.0 L 1081.0,509.0" style="stroke:#010101; fill:none;"/>
	<path d="M 1077.0,513.0 L 1072.0,545.0" style="stroke:#010101; fill:none;"/>
	<path d="M 1080.0,514.0 L 1075.0,552.0" style="stroke:#010101; fill:none;"/>
	<path d="M 1251.0,518.0 L 1265.0,514.0" style="stroke:#010101; fill:none;"/>
	<path d="M 1178.0,517.0 L 1164.0,525.0" style="stroke:#010101; fill:none;"/>
	<path d="M 1182.0,517.0 C 1190.33,524.064 1202.76,523.836 1212.0,529.966 C 1225.18,538.717 1221.61,559.182 1218.0,572.0" style="stroke:#010101; fill:none;"/>
	<path d="M 1085.0,518.0 L 1081.0,547.0" style="stroke:#010101; fill:none;"/>
	<path d="M 1270.0,526.0 C 1264.61,524.704 1257.45,518.744 1267.0,518.0" style="stroke:#010101; fill:none;"/>
	<path d="M 1261.0,522.0 L 1258.0,526.0" style="stroke:#010101; fill:none;"/>
	<path d="M 1142.0,527.0 L 1152.0,534.0" style="stroke:#010101; fill:none;"/>
	<path d="M 1161.0,528.0 L 1154.0,537.0" style="stroke:#010101; fill:none;"/>
	<path d="M 1260.0,532.0 L 1271.0,533.0" style="stroke:#010101; fill:none;"/>
	<path d="M 1266.0,531.0 L 1255.0,538.0" style="stroke:#010101; fill:none;"/>
	<path d="M 1146.0,533.0 L 1146.0,535.0" style="stroke:#010101; fill:none;"/>
	<path d="M 1139.0,536.0 L 1144.0,548.0" style="stroke:#010101; fill:none;"/>
	<path d="M 1262.0,538.0 L 1267.0,539.0 L 1260.0,547.0 L 1268.0,547.0" style="stroke:#010101; fill:none;"/>
	<path d="M 1268.0,539.0 L 1272.0,541.0" style="stroke:#010101; fill:none;"/>
	<path d="M 1068.0,547.0 L 1068.0,549.0" style="stroke:#010101; fill:none;"/>
	<path d="M 1193.0,561.0 C 1190.11,567.717 1177.63,586.798 1168.53,576.566 C 1165.76,573.453 1168.7,569.515 1166.93,566.134 C 1164.98,562.398 1155.65,563.495 1156.75,558.952 C 1157.31,556.67 1159.37,555.066 1161.02,553.576 C 1172.39,543.325 1172.22,551.826 1182.0,558.333 C 1188.4,562.591 1193.53,558.914 1194.0,552.0" style="stroke:#010101; fill:none;"/>
	<path d="M 1260.0,547.0 C 1258.57,552.611 1264.32,555.914 1269.0,558.0" style="stroke:#010101; fill:none;"/>
	<path d="M 1262.0,548.0 L 1269.0,550.0" style="stroke:#010101; fill:none;"/>
	<path d="M 1069.0,550.0 L 1069.0,558.0" style="stroke:#010101; fill:none;"/>
	<path d="M 1264.0,557.0 L 1253.0,557.0 C 1252.58,552.573 1252.91,551.009 1257.0,549.0" style="stroke:#010101; fill:none;"/>
	<path d="M 1133.0,551.0 L 1138.0,561.0" style="stroke:#010101; fill:none;"/>
	<path d="M 1248.0,553.0 L 1251.0,551.0" style="stroke:#010101; fill:none;"/>
	<path d="M 1064.0,556.0 C 1064.03,601.066 1097.27,644.489 1134.0,666.797 C 1143.21,672.39 1153.44,679.469 1164.0,682.0" style="stroke:#010101; fill:none;"/>
	<path d="M 1253.0,557.0 C 1248.13,560.155 1242.97,562.91 1249.0,568.0" style="stroke:#010101; fill:none;"/>
	<path d="M 1245.0,565.0 C 1238.47,569.259 1234.25,576.736 1226.0,577.0" style="stroke:#010101; fill:none;"/>
	<path d="M 1247.0,565.0 L 1251.0,565.0" style="stroke:#010101; fill:none;"/>
	<path d="M 1131.0,566.0 L 1132.0,568.0" style="stroke:#010101; fill:none;"/>
	<path d="M 1237.0,572.0 L 1248.0,575.0" style="stroke:#010101; fill:none;"/>
	<path d="M 1136.0,575.0 C 1141.77,584.811 1145.61,596.529 1157.0,601.467 C 1165.48,605.145 1175.17,603.182 1184.0,603.0" style="stroke:#010101; fill:none;"/>
	<path d="M 1234.0,578.0 L 1241.0,579.0" style="stroke:#010101; fill:none;"/>
	<path d="M 1220.0,596.0 L 1215.0,594.0 C 1217.39,589.159 1220.81,588.125 1226.0,588.0" style="stroke:#010101; fill:none;"/>
	<path d="M 1403.0,588.0 L 1439.0,620.0 L 1442.0,616.0 L 1437.0,617.0" style="stroke:#010101; fill:none;"/>
	<path d="M 1201.0,590.0 L 1203.0,593.0 L 1198.0,595.0" style="stroke:#010101; fill:none;"/>
	<path d="M 1213.0,595.0 L 1214.0,595.0" style="stroke:#010101; fill:none;"/>
	<path d="M 1208.0,600.0 L 1209.0,603.0" style="stroke:#010101; fill:none;"/>
	<path d="M 1197.0,609.0 L 1199.0,610.0" style="stroke:#010101; fill:none;"/>
	<path d="M 1433.0,613.0 L 1436.0,610.0 L 1436.0,615.0" style="stroke:#010101; fill:none;"/>
	<path d="M 1442.0,616.0 L 1467.0,637.0" style="stroke:#010101; fill:none;"/>
	<path d="M 900.0,620.0 C 906.273,629.118 919.712,649.072 931.0,651.0 L 928.0,650.0" style="stroke:#010101; fill:none;"/>
	<path d="M 1439.0,620.0 L 1461.08,650.0 L 1489.0,694.0 C 1490.18,691.686 1490.7,690.97 1488.0,691.0" style="stroke:#010101; fill:none;"/>
	<path d="M 927.0,621.0 C 924.076,630.892 928.356,639.444 930.0,649.0" style="stroke:#010101; fill:none;"/>
	<path d="M 892.0,630.0 L 921.0,661.0" style="stroke:#010101; fill:none;"/>
	<path d="M 881.0,637.0 L 907.0,660.0 C 892.139,655.637 878.436,645.142 862.0,650.0" style="stroke:#010101; fill:none;"/>
	<path d="M 930.0,652.0 L 932.0,654.0" style="stroke:#010101; fill:none;"/>
	<path d="M 904.0,655.0 L 901.0,658.0" style="stroke:#010101; fill:none;"/>
	<path d="M 905.0,657.0 L 903.0,659.0" style="stroke:#010101; fill:none;"/>
	<path d="M 955.0,659.0 C 969.525,668.887 993.285,667.668 1010.0,673.505 C 1036.54,682.774 1058.69,699.464 1081.0,716.0" style="stroke:#010101; fill:none;"/>
	<path d="M 907.0,660.0 L 912.0,665.0 L 911.0,662.0" style="stroke:#010101; fill:none;"/>
	<path d="M 909.0,660.0 L 911.0,661.0" style="stroke:#010101; fill:none;"/>
	<path d="M 844.0,666.0 C 864.845,665.105 897.736,660.227 912.0,680.0" style="stroke:#010101; fill:none;"/>
	<path d="M 914.0,664.0 L 921.0,671.0" style="stroke:#010101; fill:none;"/>
	<path d="M 912.0,665.0 L 920.0,677.0" style="stroke:#010101; fill:none;"/>
	<path d="M 850.0,670.0 L 820.0,700.0 L 824.0,699.0" style="stroke:#010101; fill:none;"/>
	<path d="M 847.0,675.0 C 864.673,674.241 893.961,665.848 908.0,681.0" style="stroke:#010101; fill:none;"/>
	<path d="M 845.0,685.0 C 859.812,680.828 883.887,673.317 898.0,682.0" style="stroke:#010101; fill:none;"/>
	<path d="M 787.0,736.0 L 778.0,745.0 L 777.0,744.0 L 799.0,722.0 L 800.0,723.0 L 787.0,736.0 L 783.0,732.0 C 796.349,715.608 812.518,694.681 831.0,684.0" style="stroke:#010101; fill:none;"/>
	<path d="M 828.0,696.0 C 849.608,691.54 874.964,680.808 897.0,687.0" style="stroke:#010101; fill:none;"/>
	<path d="M 1179.0,688.0 C 1193.64,698.425 1212.22,701.01 1228.0,709.108 C 1261.88,726.488 1293.7,748.135 1326.0,768.192 C 1346.28,780.782 1373.38,793.061 1381.16,818.0 C 1385.76,832.746 1376.13,850.511 1374.0,865.0" style="stroke:#010101; fill:none;"/>
	<path d="M 1489.0,688.0 L 1490.0,689.0" style="stroke:#010101; fill:none;"/>
	<path d="M 1500.0,690.0 L 1509.0,695.0" style="stroke:#010101; fill:none;"/>
	<path d="M 821.0,708.0 C 838.166,699.97 869.932,686.364 889.0,692.0 C 883.237,696.856 869.512,696.806 862.0,699.036 C 841.915,705.0 818.695,712.883 801.0,724.0" style="stroke:#010101; fill:none;"/>
	<path d="M 1491.0,695.0 C 1505.47,725.984 1526.38,754.844 1542.69,785.0 C 1570.18,835.833 1595.78,888.962 1629.0,936.0" style="stroke:#010101; fill:none;"/>
	<path d="M 807.0,700.0 L 767.075,740.424 L 756.0,753.0 L 761.0,746.0" style="stroke:#010101; fill:none;"/>
	<path d="M 820.0,700.0 L 799.0,721.0" style="stroke:#010101; fill:none;"/>
	<path d="M 777.0,749.0 L 772.0,754.0 C 774.439,748.38 785.872,743.149 791.0,739.0 C 805.773,727.047 822.577,720.886 840.0,713.576 C 850.58,709.136 861.53,703.546 873.0,702.0" style="stroke:#010101; fill:none;"/>
	<path d="M 791.0,708.0 C 771.619,727.329 753.122,746.891 735.586,768.0 C 730.881,773.665 718.788,784.396 722.0,792.0 C 725.51,787.94 729.937,783.611 729.0,778.0" style="stroke:#010101; fill:none;"/>
	<path d="M 803.0,736.0 C 822.752,724.757 846.054,714.99 868.0,709.0" style="stroke:#010101; fill:none;"/>
	<path d="M 805.0,721.0 L 814.0,714.0" style="stroke:#010101; fill:none;"/>
	<path d="M 707.0,792.0 L 707.0,796.0 C 710.676,786.408 718.155,779.362 724.801,771.0 C 735.128,758.007 744.693,741.949 759.0,733.0" style="stroke:#010101; fill:none;"/>
	<path d="M 784.0,733.0 L 776.0,743.0" style="stroke:#010101; fill:none;"/>
	<path d="M 714.0,785.0 C 712.546,779.692 717.492,775.387 720.253,770.985 C 727.533,759.381 736.972,744.01 749.0,737.0" style="stroke:#010101; fill:none;"/>
	<path d="M 778.0,739.0 L 780.0,741.0" style="stroke:#010101; fill:none;"/>
	<path d="M 761.0,745.0 L 763.0,744.0" style="stroke:#010101; fill:none;"/>
	<path d="M 775.0,744.0 L 774.0,748.0" style="stroke:#010101; fill:none;"/>
	<path d="M 778.0,746.0 L 776.0,748.0" style="stroke:#010101; fill:none;"/>
	<path d="M 898.0,765.0 C 896.745,771.661 896.451,778.413 890.0,782.0 C 879.897,757.154 921.104,747.158 939.0,749.058 C 945.865,749.786 952.079,753.396 959.0,754.0" style="stroke:#010101; fill:none;"/>
	<path d="M 771.0,755.0 L 768.0,753.0 L 771.0,751.0" style="stroke:#010101; fill:none;"/>
	<path d="M 756.0,753.0 L 723.044,800.0 L 711.0,821.0 L 715.0,816.0" style="stroke:#010101; fill:none;"/>
	<path d="M 768.0,754.0 L 758.0,762.0" style="stroke:#010101; fill:none;"/>
	<path d="M 731.0,779.0 L 750.0,759.0" style="stroke:#010101; fill:none;"/>
	<path d="M 914.0,759.0 C 912.521,766.846 902.729,787.346 893.0,781.0" style="stroke:#010101; fill:none;"/>
	<path d="M 938.0,761.0 C 937.269,765.948 936.069,772.373 930.0,770.0 C 928.495,772.171 926.156,775.806 930.153,777.073 C 934.469,778.441 941.498,775.502 946.0,775.114 C 954.965,774.341 966.345,776.285 974.0,781.0" style="stroke:#010101; fill:none;"/>
	<path d="M 907.0,762.0 L 907.0,770.0" style="stroke:#010101; fill:none;"/>
	<path d="M 933.0,764.0 L 931.0,769.0" style="stroke:#010101; fill:none;"/>
	<path d="M 924.0,766.0 C 920.267,770.844 916.946,774.385 911.0,771.0" style="stroke:#010101; fill:none;"/>
	<path d="M 878.0,780.0 L 877.0,788.0 L 873.0,782.0 L 882.0,767.0" style="stroke:#010101; fill:none;"/>
	<path d="M 922.0,769.0 L 927.0,774.0" style="stroke:#010101; fill:none;"/>
	<path d="M 873.0,780.0 C 872.528,774.979 873.283,772.28 878.0,770.0" style="stroke:#010101; fill:none;"/>
	<path d="M 971.0,770.0 C 979.288,771.248 984.851,776.29 984.0,785.0" style="stroke:#010101; fill:none;"/>
	<path d="M 920.0,772.0 L 926.0,777.0" style="stroke:#010101; fill:none;"/>
	<path d="M 871.0,774.0 L 852.578,789.09 L 850.0,802.0 L 841.0,791.0" style="stroke:#010101; fill:none;"/>
	<path d="M 924.0,777.0 C 918.33,780.79 909.436,784.158 903.0,781.0" style="stroke:#010101; fill:none;"/>
	<path d="M 935.0,777.0 L 941.0,777.0" style="stroke:#010101; fill:none;"/>
	<path d="M 895.0,778.0 L 900.0,782.0" style="stroke:#010101; fill:none;"/>
	<path d="M 881.0,783.0 L 889.0,782.0" style="stroke:#010101; fill:none;"/>
	<path d="M 713.0,784.0 L 711.0,786.0" style="stroke:#010101; fill:none;"/>
	<path d="M 887.0,784.0 C 881.582,791.511 873.657,793.591 866.104,797.949 C 862.84,799.833 860.953,803.627 857.957,805.942 C 851.849,810.663 844.59,813.427 839.019,819.019 C 833.903,824.155 832.062,838.027 823.0,832.0 L 815.0,857.0 L 817.0,865.0 L 820.0,864.0" style="stroke:#010101; fill:none;"/>
	<path d="M 926.0,787.0 L 946.0,784.0" style="stroke:#010101; fill:none;"/>
	<path d="M 972.0,784.0 L 979.0,786.0 C 970.387,797.211 956.636,802.584 947.17,813.001 C 934.484,826.959 925.432,844.176 912.896,858.0 C 898.157,874.254 879.605,887.218 862.0,900.115 C 849.215,909.48 826.536,928.139 811.0,924.0" style="stroke:#010101; fill:none;"/>
	<path d="M 873.0,786.0 L 876.0,793.0" style="stroke:#010101; fill:none;"/>
	<path d="M 878.0,787.0 L 881.0,790.0" style="stroke:#010101; fill:none;"/>
	<path d="M 946.0,787.0 C 954.912,790.032 953.589,796.506 958.0,803.0" style="stroke:#010101; fill:none;"/>
	<path d="M 712.0,788.0 L 710.0,788.0" style="stroke:#010101; fill:none;"/>
	<path d="M 870.0,789.0 L 874.0,794.0" style="stroke:#010101; fill:none;"/>
	<path d="M 877.0,789.0 L 879.0,791.0" style="stroke:#010101; fill:none;"/>
	<path d="M 711.0,790.0 L 709.0,792.0" style="stroke:#010101; fill:none;"/>
	<path d="M 720.0,790.0 L 720.0,795.0 L 720.0,792.0" style="stroke:#010101; fill:none;"/>
	<path d="M 870.0,790.0 L 867.0,796.0" style="stroke:#010101; fill:none;"/>
	<path d="M 844.0,795.0 L 850.0,791.0" style="stroke:#010101; fill:none;"/>
	<path d="M 718.0,793.0 L 713.0,800.0 L 715.0,797.0" style="stroke:#010101; fill:none;"/>
	<path d="M 719.0,794.0 C 715.789,801.896 703.108,818.532 708.0,826.0 L 711.0,821.0" style="stroke:#010101; fill:none;"/>
	<path d="M 844.0,795.0 C 839.271,800.492 840.689,808.413 843.0,815.0" style="stroke:#010101; fill:none;"/>
	<path d="M 706.0,796.0 C 703.984,801.099 707.608,801.436 712.0,801.0" style="stroke:#010101; fill:none;"/>
	<path d="M 855.0,799.0 L 863.0,800.0" style="stroke:#010101; fill:none;"/>
	<path d="M 704.0,800.0 C 702.578,805.535 707.434,806.911 710.0,802.0" style="stroke:#010101; fill:none;"/>
	<path d="M 820.0,806.0 L 824.0,814.0 L 839.0,800.0" style="stroke:#010101; fill:none;"/>
	<path d="M 706.0,802.0 L 705.0,805.0" style="stroke:#010101; fill:none;"/>
	<path d="M 850.0,802.0 L 850.0,808.0" style="stroke:#010101; fill:none;"/>
	<path d="M 879.0,804.0 C 895.445,797.402 912.221,826.085 910.829,840.0 C 908.934,858.954 888.76,873.464 874.0,883.169 C 866.475,888.117 859.335,892.233 850.0,890.674 C 835.647,888.278 827.175,876.441 820.0,865.0" style="stroke:#010101; fill:none;"/>
	<path d="M 701.0,804.0 L 708.0,808.0" style="stroke:#010101; fill:none;"/>
	<path d="M 701.0,805.0 L 690.0,824.0 L 690.0,820.0" style="stroke:#010101; fill:none;"/>
	<path d="M 835.0,807.0 C 835.074,813.611 833.271,818.988 827.0,822.0 L 823.0,816.0 L 818.0,826.0 L 800.0,816.0" style="stroke:#010101; fill:none;"/>
	<path d="M 704.0,809.0 C 699.306,814.561 691.604,825.537 693.0,833.0 L 695.0,826.0" style="stroke:#010101; fill:none;"/>
	<path d="M 704.0,813.0 L 703.0,810.0 L 706.0,811.0" style="stroke:#010101; fill:none;"/>
	<path d="M 1191.0,812.0 C 1192.86,826.619 1197.72,840.721 1204.0,854.0" style="stroke:#010101; fill:none;"/>
	<path d="M 704.0,813.0 L 697.0,827.0" style="stroke:#010101; fill:none;"/>
	<path d="M 836.0,813.0 L 841.0,813.0" style="stroke:#010101; fill:none;"/>
	<path d="M 835.0,814.0 L 840.0,818.0" style="stroke:#010101; fill:none;"/>
	<path d="M 824.0,815.0 L 823.0,816.0" style="stroke:#010101; fill:none;"/>
	<path d="M 842.0,818.0 L 837.0,823.0" style="stroke:#010101; fill:none;"/>
	<path d="M 710.0,820.0 L 709.0,824.0" style="stroke:#010101; fill:none;"/>
	<path d="M 830.0,821.0 L 834.0,825.0" style="stroke:#010101; fill:none;"/>
	<path d="M 1303.0,822.0 C 1299.39,849.954 1279.02,857.572 1255.0,864.421 C 1245.43,867.149 1236.02,870.853 1226.0,869.0" style="stroke:#010101; fill:none;"/>
	<path d="M 705.0,823.0 L 699.0,833.0 C 704.8,833.483 704.937,829.887 705.0,825.0" style="stroke:#010101; fill:none;"/>
	<path d="M 826.0,823.0 L 823.0,832.0" style="stroke:#010101; fill:none;"/>
	<path d="M 690.0,824.0 C 687.322,833.298 677.093,844.134 679.0,854.0 L 675.0,856.0 C 678.955,868.171 665.362,885.331 661.864,897.0 C 659.706,904.198 660.639,910.641 657.0,917.0 L 659.0,915.0" style="stroke:#010101; fill:none;"/>
	<path d="M 708.0,826.0 L 706.0,830.0" style="stroke:#010101; fill:none;"/>
	<path d="M 813.0,826.0 C 808.862,831.572 806.823,833.615 800.0,831.0" style="stroke:#010101; fill:none;"/>
	<path d="M 818.0,826.0 L 821.0,829.0" style="stroke:#010101; fill:none;"/>
	<path d="M 1361.0,832.0 L 1353.0,844.0 C 1351.88,840.175 1351.26,832.545 1354.6,829.466 C 1358.16,826.177 1363.04,832.856 1363.51,836.0 C 1364.94,845.498 1353.88,849.453 1354.0,857.0 L 1355.0,853.0" style="stroke:#010101; fill:none;"/>
	<path d="M 820.0,828.0 L 811.0,833.0" style="stroke:#010101; fill:none;"/>
	<path d="M 704.0,829.0 L 702.0,831.0" style="stroke:#010101; fill:none;"/>
	<path d="M 852.0,836.0 C 865.014,824.717 888.252,833.197 877.721,851.999 C 869.969,865.842 847.076,862.664 848.406,845.0 C 848.814,839.577 858.079,833.245 861.957,839.322 C 866.398,846.282 857.497,853.972 851.0,851.0" style="stroke:#010101; fill:none;"/>
	<path d="M 703.0,831.0 L 702.0,833.0" style="stroke:#010101; fill:none;"/>
	<path d="M 691.0,833.0 L 694.0,833.0" style="stroke:#010101; fill:none;"/>
	<path d="M 699.0,833.0 L 697.0,836.0 L 702.0,835.0" style="stroke:#010101; fill:none;"/>
	<path d="M 942.0,833.0 L 947.0,833.0" style="stroke:#010101; fill:none;"/>
	<path d="M 690.0,835.0 L 692.0,836.0" style="stroke:#010101; fill:none;"/>
	<path d="M 702.0,835.0 L 689.0,861.0 L 691.0,857.0" style="stroke:#010101; fill:none;"/>
	<path d="M 806.0,835.0 L 801.0,842.0 C 803.37,844.072 806.768,846.19 808.254,849.039 C 811.237,854.76 805.557,858.99 815.0,857.0" style="stroke:#010101; fill:none;"/>
	<path d="M 689.0,837.0 L 691.0,838.0" style="stroke:#010101; fill:none;"/>
	<path d="M 698.0,838.0 L 691.61,847.222 L 684.0,851.0 L 687.0,851.0" style="stroke:#010101; fill:none;"/>
	<path d="M 688.0,839.0 L 690.0,840.0" style="stroke:#010101; fill:none;"/>
	<path d="M 942.0,839.0 L 948.0,839.0" style="stroke:#010101; fill:none;"/>
	<path d="M 687.0,841.0 L 689.0,842.0" style="stroke:#010101; fill:none;"/>
	<path d="M 697.0,841.0 L 699.0,843.0" style="stroke:#010101; fill:none;"/>
	<path d="M 686.0,843.0 L 688.0,844.0" style="stroke:#010101; fill:none;"/>
	<path d="M 801.0,843.0 C 797.119,850.263 798.261,856.764 788.0,853.0" style="stroke:#010101; fill:none;"/>
	<path d="M 810.0,849.0 L 819.0,843.0" style="stroke:#010101; fill:none;"/>
	<path d="M 936.0,843.0 L 947.0,845.0" style="stroke:#010101; fill:none;"/>
	<path d="M 1353.0,844.0 L 1346.0,860.0 C 1349.57,860.518 1352.01,860.137 1354.0,857.0" style="stroke:#010101; fill:none;"/>
	<path d="M 685.0,845.0 L 685.0,848.0" style="stroke:#010101; fill:none;"/>
	<path d="M 687.0,845.0 L 687.0,848.0" style="stroke:#010101; fill:none;"/>
	<path d="M 784.0,845.0 L 798.0,853.0" style="stroke:#010101; fill:none;"/>
	<path d="M 691.0,849.0 L 690.0,855.0" style="stroke:#010101; fill:none;"/>
	<path d="M 937.0,856.0 C 933.249,854.479 931.39,853.182 932.0,849.0 L 940.0,852.0" style="stroke:#010101; fill:none;"/>
	<path d="M 1356.0,850.0 L 1359.0,849.0" style="stroke:#010101; fill:none;"/>
	<path d="M 683.0,852.0 C 681.328,868.27 671.709,883.708 665.811,899.0 C 662.757,906.918 662.37,915.709 660.0,924.0" style="stroke:#010101; fill:none;"/>
	<path d="M 686.0,852.0 L 683.0,855.0" style="stroke:#010101; fill:none;"/>
	<path d="M 1357.0,853.0 L 1356.0,854.0" style="stroke:#010101; fill:none;"/>
	<path d="M 800.0,854.0 L 807.0,855.0" style="stroke:#010101; fill:none;"/>
	<path d="M 678.0,859.0 L 682.0,856.0" style="stroke:#010101; fill:none;"/>
	<path d="M 792.0,856.0 C 786.026,865.621 783.441,879.839 782.0,891.0 C 788.614,891.522 794.822,892.721 800.981,889.28 C 803.519,887.862 807.797,883.843 803.677,881.411 C 800.536,879.557 795.609,881.902 792.0,881.0" style="stroke:#010101; fill:none;"/>
	<path d="M 1353.0,856.0 L 1351.0,858.0" style="stroke:#010101; fill:none;"/>
	<path d="M 676.0,858.0 L 676.0,863.0" style="stroke:#010101; fill:none;"/>
	<path d="M 920.0,858.0 L 931.0,862.0" style="stroke:#010101; fill:none;"/>
	<path d="M 811.0,859.0 L 817.0,865.0" style="stroke:#010101; fill:none;"/>
	<path d="M 688.0,860.0 L 679.538,881.992 L 674.0,893.0 L 676.0,888.0" style="stroke:#010101; fill:none;"/>
	<path d="M 922.0,860.0 L 929.0,873.0" style="stroke:#010101; fill:none;"/>
	<path d="M 1353.0,860.0 L 1351.0,862.0" style="stroke:#010101; fill:none;"/>
	<path d="M 810.0,861.0 L 807.0,881.0" style="stroke:#010101; fill:none;"/>
	<path d="M 1345.0,862.0 L 1351.0,864.0 L 1351.0,862.0" style="stroke:#010101; fill:none;"/>
	<path d="M 1349.0,861.0 L 1347.0,863.0" style="stroke:#010101; fill:none;"/>
	<path d="M 673.0,862.0 L 675.0,865.0" style="stroke:#010101; fill:none;"/>
	<path d="M 688.0,862.0 L 682.0,876.0" style="stroke:#010101; fill:none;"/>
	<path d="M 1344.0,863.0 L 1348.0,864.0" style="stroke:#010101; fill:none;"/>
	<path d="M 1339.0,864.0 L 1339.0,872.0 L 1342.0,868.0" style="stroke:#010101; fill:none;"/>
	<path d="M 1343.0,866.0 L 1343.0,867.0" style="stroke:#010101; fill:none;"/>
	<path d="M 1346.0,866.0 L 1344.0,868.0" style="stroke:#010101; fill:none;"/>
	<path d="M 683.0,869.0 L 685.0,871.0" style="stroke:#010101; fill:none;"/>
	<path d="M 788.0,871.0 L 807.0,875.0" style="stroke:#010101; fill:none;"/>
	<path d="M 917.0,871.0 L 922.0,874.0" style="stroke:#010101; fill:none;"/>
	<path d="M 1343.0,871.0 L 1338.0,879.0" style="stroke:#010101; fill:none;"/>
	<path d="M 1337.0,872.0 C 1331.88,887.714 1321.23,897.843 1312.0,911.0" style="stroke:#010101; fill:none;"/>
	<path d="M 680.0,875.0 L 678.0,883.0" style="stroke:#010101; fill:none;"/>
	<path d="M 904.0,876.0 L 906.0,878.0" style="stroke:#010101; fill:none;"/>
	<path d="M 911.0,876.0 L 919.0,879.0" style="stroke:#010101; fill:none;"/>
	<path d="M 677.0,882.0 L 675.0,887.0" style="stroke:#010101; fill:none;"/>
	<path d="M 900.0,886.0 L 901.0,887.0" style="stroke:#010101; fill:none;"/>
	<path d="M 805.0,887.0 C 807.183,891.096 807.183,893.904 805.0,898.0 L 799.0,891.0" style="stroke:#010101; fill:none;"/>
	<path d="M 774.0,890.0 L 781.0,892.0" style="stroke:#010101; fill:none;"/>
	<path d="M 894.0,890.0 L 898.0,894.0" style="stroke:#010101; fill:none;"/>
	<path d="M 781.0,892.0 L 782.0,904.0 L 780.0,906.0 L 775.0,905.0" style="stroke:#010101; fill:none;"/>
	<path d="M 794.0,892.0 L 805.0,901.0 L 805.0,898.0" style="stroke:#010101; fill:none;"/>
	<path d="M 672.0,893.0 L 674.0,894.0" style="stroke:#010101; fill:none;"/>
	<path d="M 799.0,893.0 L 799.0,895.0" style="stroke:#010101; fill:none;"/>
	<path d="M 891.0,894.0 L 893.0,896.0" style="stroke:#010101; fill:none;"/>
	<path d="M 671.0,896.0 C 674.096,900.384 666.39,906.665 664.0,910.0" style="stroke:#010101; fill:none;"/>
	<path d="M 670.0,897.0 L 670.0,899.0" style="stroke:#010101; fill:none;"/>
	<path d="M 1267.0,906.0 L 1261.0,909.0 L 1271.74,906.323 L 1293.0,898.0" style="stroke:#010101; fill:none;"/>
	<path d="M 670.0,899.0 L 668.0,904.0" style="stroke:#010101; fill:none;"/>
	<path d="M 881.0,914.0 C 878.87,909.999 874.451,899.162 883.0,901.0" style="stroke:#010101; fill:none;"/>
	<path d="M 782.0,904.0 L 801.0,901.0" style="stroke:#010101; fill:none;"/>
	<path d="M 803.0,901.0 C 802.998,921.305 787.351,942.998 766.0,943.0" style="stroke:#010101; fill:none;"/>
	<path d="M 805.0,901.0 C 811.979,910.989 805.488,927.685 800.0,937.0" style="stroke:#010101; fill:none;"/>
	<path d="M 876.0,904.0 C 872.799,908.524 873.517,910.864 877.0,915.0" style="stroke:#010101; fill:none;"/>
	<path d="M 1269.0,904.0 L 1274.0,904.0" style="stroke:#010101; fill:none;"/>
	<path d="M 780.0,906.0 C 779.781,916.624 776.303,929.691 783.0,939.0" style="stroke:#010101; fill:none;"/>
	<path d="M 848.0,939.0 C 838.481,923.984 850.502,913.001 864.0,906.0 L 870.0,918.0" style="stroke:#010101; fill:none;"/>
	<path d="M 928.0,906.0 C 906.179,928.278 885.373,953.116 855.0,963.0" style="stroke:#010101; fill:none;"/>
	<path d="M 1159.0,907.0 C 1149.96,933.696 1157.7,985.654 1192.0,989.816 C 1212.78,992.337 1233.15,977.145 1250.0,967.0" style="stroke:#010101; fill:none;"/>
	<path d="M 1267.0,907.0 L 1271.0,909.0" style="stroke:#010101; fill:none;"/>
	<path d="M 1267.0,919.0 C 1259.29,925.572 1250.55,931.352 1242.0,936.782 C 1240.61,937.665 1233.26,942.601 1233.35,937.87 C 1233.41,934.234 1242.33,931.582 1245.0,929.86 C 1256.69,922.316 1268.15,912.387 1281.0,907.0" style="stroke:#010101; fill:none;"/>
	<path d="M 1269.0,910.0 C 1262.49,914.771 1249.26,927.513 1241.0,925.0 C 1246.1,918.313 1253.04,911.082 1261.0,908.0" style="stroke:#010101; fill:none;"/>
	<path d="M 660.0,909.0 L 660.0,914.0" style="stroke:#010101; fill:none;"/>
	<path d="M 1263.0,910.0 L 1256.0,912.0 L 1255.0,911.0" style="stroke:#010101; fill:none;"/>
	<path d="M 1257.0,913.0 L 1252.0,915.0" style="stroke:#010101; fill:none;"/>
	<path d="M 773.0,919.0 L 797.0,917.0" style="stroke:#010101; fill:none;"/>
	<path d="M 658.0,918.0 L 651.0,939.0" style="stroke:#010101; fill:none;"/>
	<path d="M 839.0,920.0 C 834.694,927.374 834.516,940.589 843.0,945.0" style="stroke:#010101; fill:none;"/>
	<path d="M 847.0,920.0 L 849.0,934.0" style="stroke:#010101; fill:none;"/>
	<path d="M 1337.0,979.0 C 1353.61,975.868 1369.83,967.529 1380.48,954.0 C 1387.31,945.321 1390.94,932.466 1400.17,925.879 C 1406.67,921.237 1419.28,922.003 1427.0,922.0 C 1443.46,921.994 1459.61,923.243 1476.0,923.961 C 1484.15,924.317 1493.14,922.675 1501.0,925.0" style="stroke:#010101; fill:none;"/>
	<path d="M 816.0,924.0 L 817.0,924.0" style="stroke:#010101; fill:none;"/>
	<path d="M 1241.0,926.0 L 1236.0,933.0" style="stroke:#010101; fill:none;"/>
	<path d="M 1265.0,926.0 L 1229.0,954.0 L 1231.0,940.0" style="stroke:#010101; fill:none;"/>
	<path d="M 823.0,929.0 C 815.896,938.619 803.14,943.709 805.0,957.0" style="stroke:#010101; fill:none;"/>
	<path d="M 1632.0,930.0 L 1635.0,933.0" style="stroke:#010101; fill:none;"/>
	<path d="M 832.0,931.0 L 827.0,942.0" style="stroke:#010101; fill:none;"/>
	<path d="M 1630.0,936.0 L 1643.46,959.763 L 1655.0,967.0" style="stroke:#010101; fill:none;"/>
	<path d="M 1628.0,938.0 L 1629.0,939.0" style="stroke:#010101; fill:none;"/>
	<path d="M 656.0,940.0 L 653.0,946.0 L 653.0,943.0" style="stroke:#010101; fill:none;"/>
	<path d="M 818.0,940.0 L 818.0,951.0" style="stroke:#010101; fill:none;"/>
	<path d="M 1241.0,942.0 L 1244.0,940.0" style="stroke:#010101; fill:none;"/>
	<path d="M 1231.0,941.0 L 1235.0,941.0" style="stroke:#010101; fill:none;"/>
	<path d="M 1232.0,947.0 L 1241.0,942.0" style="stroke:#010101; fill:none;"/>
	<path d="M 812.0,943.0 L 811.0,950.0" style="stroke:#010101; fill:none;"/>
	<path d="M 1634.0,944.0 L 1636.0,949.0" style="stroke:#010101; fill:none;"/>
	<path d="M 653.0,946.0 L 650.0,963.0" style="stroke:#010101; fill:none;"/>
	<path d="M 651.0,947.0 L 651.0,949.0" style="stroke:#010101; fill:none;"/>
	<path d="M 1515.0,947.0 C 1529.7,965.227 1515.49,984.497 1502.0,998.0" style="stroke:#010101; fill:none;"/>
	<path d="M 1636.0,949.0 L 1639.0,950.0" style="stroke:#010101; fill:none;"/>
	<path d="M 1637.0,953.0 L 1638.0,954.0" style="stroke:#010101; fill:none;"/>
	<path d="M 1646.0,964.0 C 1683.95,1025.73 1714.0,1099.34 1714.0,1173.0 C 1714.0,1190.44 1712.0,1207.65 1712.0,1225.0 C 1712.0,1232.9 1708.81,1240.95 1719.0,1242.0" style="stroke:#010101; fill:none;"/>
	<path d="M 1524.0,975.0 L 1530.0,972.0" style="stroke:#010101; fill:none;"/>
	<path d="M 1276.0,1139.0 C 1276.77,1101.73 1291.33,1058.24 1307.41,1025.0 C 1312.95,1013.55 1318.71,997.944 1329.0,990.0" style="stroke:#010101; fill:none;"/>
	<path d="M 1534.0,990.0 L 1542.0,999.0" style="stroke:#010101; fill:none;"/>
	<path d="M 1359.0,1088.0 C 1348.78,1076.91 1366.69,1061.47 1373.56,1052.0 C 1380.74,1042.09 1390.5,1037.83 1400.0,1030.81 C 1413.51,1020.84 1424.24,1009.76 1440.0,1003.0 C 1444.08,1001.25 1449.4,997.32 1454.0,997.762 C 1458.27,998.173 1463.34,1002.77 1467.0,1005.0 L 1462.0,1004.0" style="stroke:#010101; fill:none;"/>
	<path d="M 1487.0,1008.0 L 1482.0,1007.0 L 1494.0,1003.0" style="stroke:#010101; fill:none;"/>
	<path d="M 1466.0,1004.0 L 1465.0,1005.0" style="stroke:#010101; fill:none;"/>
	<path d="M 1468.0,1005.0 L 1485.0,1011.0" style="stroke:#010101; fill:none;"/>
	<path d="M 1469.0,1006.0 L 1473.54,1024.04 L 1462.99,1039.0 L 1455.0,1045.0" style="stroke:#010101; fill:none;"/>
	<path d="M 1465.0,1007.0 L 1467.0,1011.0" style="stroke:#010101; fill:none;"/>
	<path d="M 1481.0,1007.0 L 1482.0,1007.0" style="stroke:#010101; fill:none;"/>
	<path d="M 1473.0,1008.0 L 1475.0,1013.0 L 1477.0,1008.0" style="stroke:#010101; fill:none;"/>
	<path d="M 1474.0,1012.0 L 1470.0,1014.0" style="stroke:#010101; fill:none;"/>
	<path d="M 1550.0,1012.0 C 1553.02,1020.92 1557.08,1029.5 1558.03,1039.0 C 1560.28,1061.5 1549.14,1091.81 1534.39,1108.7 C 1526.34,1117.92 1513.43,1124.63 1504.0,1132.59 C 1479.16,1153.56 1457.22,1173.36 1426.0,1184.46 C 1404.96,1191.94 1382.56,1191.6 1361.0,1196.43 C 1346.17,1199.74 1332.06,1206.78 1317.0,1209.0" style="stroke:#010101; fill:none;"/>
	<path d="M 1477.0,1013.0 L 1480.0,1017.0 L 1483.0,1013.0" style="stroke:#010101; fill:none;"/>
	<path d="M 1475.0,1014.0 L 1476.0,1015.0" style="stroke:#010101; fill:none;"/>
	<path d="M 1476.0,1016.0 L 1479.0,1017.0" style="stroke:#010101; fill:none;"/>
	<path d="M 1478.0,1019.0 L 1475.0,1022.0" style="stroke:#010101; fill:none;"/>
	<path d="M 1465.0,1022.0 C 1459.78,1028.57 1449.16,1036.24 1454.0,1045.0" style="stroke:#010101; fill:none;"/>
	<path d="M 1406.0,1029.0 C 1405.58,1034.36 1403.28,1034.97 1399.0,1032.0" style="stroke:#010101; fill:none;"/>
	<path d="M 1411.0,1038.0 L 1423.0,1050.0" style="stroke:#010101; fill:none;"/>
	<path d="M 1383.0,1099.0 L 1403.0,1086.96 L 1418.51,1080.58 L 1420.24,1069.0 L 1427.0,1053.0 C 1437.68,1052.74 1442.94,1044.68 1451.0,1039.0" style="stroke:#010101; fill:none;"/>
	<path d="M 1455.0,1048.0 L 1422.0,1079.0" style="stroke:#010101; fill:none;"/>
	<path d="M 1426.0,1052.0 L 1427.0,1053.0" style="stroke:#010101; fill:none;"/>
	<path d="M 1403.0,1085.0 L 1418.0,1072.0" style="stroke:#010101; fill:none;"/>
	<path d="M 1353.0,1084.0 C 1348.25,1095.56 1344.38,1107.48 1339.57,1119.0 C 1337.2,1124.7 1333.2,1129.29 1337.0,1135.0 C 1346.49,1127.63 1354.1,1122.76 1361.8,1113.0 C 1363.49,1110.85 1366.6,1104.72 1369.0,1108.0" style="stroke:#010101; fill:none;"/>
	<path d="M 1366.0,1096.0 L 1371.0,1104.0" style="stroke:#010101; fill:none;"/>
	<path d="M 1368.0,1099.0 L 1380.0,1098.0" style="stroke:#010101; fill:none;"/>
	<path d="M 1374.0,1099.0 L 1374.0,1103.0" style="stroke:#010101; fill:none;"/>
	<path d="M 1389.0,1099.0 C 1379.84,1106.93 1369.39,1113.16 1361.04,1122.0 C 1354.11,1129.34 1349.73,1138.89 1341.96,1145.54 C 1336.06,1150.58 1329.44,1151.42 1323.0,1154.91 C 1317.28,1158.0 1312.56,1164.44 1308.0,1169.0 C 1297.88,1179.12 1289.82,1200.36 1275.0,1203.0" style="stroke:#010101; fill:none;"/>
	<path d="M 1368.0,1101.0 L 1368.0,1105.0" style="stroke:#010101; fill:none;"/>
	<path d="M 1453.0,1222.0 C 1478.18,1193.17 1508.75,1163.95 1539.0,1140.5 C 1551.46,1130.84 1565.89,1119.41 1582.0,1117.0" style="stroke:#010101; fill:none;"/>
	<path d="M 1348.0,1131.0 L 1350.0,1135.0" style="stroke:#010101; fill:none;"/>
	<path d="M 1334.0,1132.0 L 1326.0,1152.0" style="stroke:#010101; fill:none;"/>
	<path d="M 1336.0,1136.0 L 1336.0,1148.0" style="stroke:#010101; fill:none;"/>
	<path d="M 1339.0,1136.0 L 1340.0,1145.0" style="stroke:#010101; fill:none;"/>
	<path d="M 1329.0,1147.0 L 1331.0,1150.0" style="stroke:#010101; fill:none;"/>
	<path d="M 1710.0,1241.0 C 1710.17,1254.56 1702.55,1258.21 1714.0,1270.0" style="stroke:#010101; fill:none;"/>
	<path d="M 1711.0,1246.0 L 1717.0,1249.0" style="stroke:#010101; fill:none;"/>
	<path d="M 1807.0,1318.0 L 1810.0,1326.0 C 1840.3,1325.37 1871.69,1311.94 1900.0,1302.52 C 1910.44,1299.04 1921.49,1297.93 1932.0,1294.65 C 1951.15,1288.67 1970.7,1279.93 1989.0,1271.69 C 2004.83,1264.56 2019.33,1251.9 2036.0,1247.0" style="stroke:#010101; fill:none;"/>
	<path d="M 1705.0,1259.0 C 1694.93,1269.69 1709.27,1276.44 1716.96,1284.04 C 1734.03,1300.9 1756.96,1322.76 1782.0,1326.0 C 1781.15,1318.35 1774.24,1315.32 1768.0,1312.0" style="stroke:#010101; fill:none;"/>
	<path d="M 1699.0,1267.0 L 1657.87,1317.0 L 1635.91,1341.0 L 1633.13,1355.0 L 1624.14,1381.0 L 1580.26,1465.0 L 1554.0,1521.0" style="stroke:#010101; fill:none;"/>
	<path d="M 1951.0,1272.0 L 1955.0,1271.0" style="stroke:#010101; fill:none;"/>
	<path d="M 1927.0,1287.0 L 1929.0,1287.0" style="stroke:#010101; fill:none;"/>
	<path d="M 1873.0,1302.0 L 1885.0,1308.0" style="stroke:#010101; fill:none;"/>
	<path d="M 1877.0,1304.0 L 1882.0,1309.0" style="stroke:#010101; fill:none;"/>
	<path d="M 1783.0,1327.0 L 1809.0,1327.0" style="stroke:#010101; fill:none;"/>
	<path d="M 1617.0,1357.0 L 1617.0,1361.0 L 1634.0,1343.0" style="stroke:#010101; fill:none;"/>
	<path d="M 1574.0,1393.0 L 1615.0,1359.0" style="stroke:#010101; fill:none;"/>
	<path d="M 1799.0,1359.0 C 1833.51,1393.51 1872.68,1425.0 1924.0,1425.0" style="stroke:#010101; fill:none;"/>
	<path d="M 1617.0,1361.0 L 1584.74,1410.0 L 1518.0,1511.0" style="stroke:#010101; fill:none;"/>
	<path d="M 1982.0,1363.0 L 1945.0,1392.0" style="stroke:#010101; fill:none;"/>
	<path d="M 1584.0,1388.0 C 1579.65,1403.55 1566.41,1417.63 1557.52,1431.0 C 1542.23,1453.98 1529.04,1478.84 1512.76,1501.0 C 1505.92,1510.3 1500.63,1521.2 1491.0,1528.0" style="stroke:#010101; fill:none;"/>
	<path d="M 1511.0,1454.0 L 1513.0,1454.0 L 1512.0,1455.0 C 1511.52,1448.05 1523.9,1442.23 1529.0,1438.41 C 1547.75,1424.35 1563.0,1405.39 1582.0,1392.0" style="stroke:#010101; fill:none;"/>
	<path d="M 1558.0,1417.0 L 1513.74,1481.0 L 1476.0,1538.0" style="stroke:#010101; fill:none;"/>
	<path d="M 1531.0,1442.0 L 1487.69,1504.0 L 1454.0,1553.0" style="stroke:#010101; fill:none;"/>
	<path d="M 1458.0,1486.0 L 1457.0,1489.0 C 1461.89,1481.4 1470.44,1478.14 1478.0,1473.6 C 1488.87,1467.08 1499.0,1459.26 1510.0,1453.0" style="stroke:#010101; fill:none;"/>
	<path d="M 1512.0,1456.0 L 1448.0,1541.0" style="stroke:#010101; fill:none;"/>
	<path d="M 1485.0,1472.0 C 1467.39,1500.07 1444.18,1529.33 1421.0,1553.0" style="stroke:#010101; fill:none;"/>
	<path d="M 1371.0,1574.0 C 1388.14,1556.86 1403.74,1538.21 1419.72,1520.0 C 1430.99,1507.15 1439.36,1494.44 1455.0,1487.0" style="stroke:#010101; fill:none;"/>
	<path d="M 1457.0,1490.0 C 1437.32,1518.94 1413.17,1547.89 1386.0,1570.0" style="stroke:#010101; fill:none;"/>
	<path d="M 892.0,1491.0 L 894.0,1491.0" style="stroke:#010101; fill:none;"/>
	<path d="M 903.0,1495.0 C 921.309,1512.47 949.279,1521.06 972.0,1531.31 C 1052.92,1567.78 1145.3,1582.99 1233.0,1567.75 C 1258.71,1563.28 1284.25,1556.74 1309.0,1548.48 C 1322.28,1544.06 1337.04,1536.22 1351.0,1535.0 C 1339.77,1557.54 1318.51,1579.11 1302.0,1598.0" style="stroke:#010101; fill:none;"/>
	<path d="M 1436.0,1500.0 L 1434.0,1498.0 L 1438.0,1497.0" style="stroke:#010101; fill:none;"/>
	<path d="M 1399.0,1515.0 L 1398.0,1518.0 C 1404.66,1507.97 1423.08,1502.55 1434.0,1498.0" style="stroke:#010101; fill:none;"/>
	<path d="M 1516.0,1499.0 L 1511.0,1515.0" style="stroke:#010101; fill:none;"/>
	<path d="M 878.0,1509.0 C 900.326,1530.85 938.511,1540.8 967.0,1552.4 C 975.439,1555.83 989.998,1565.34 999.0,1563.0 L 966.0,1546.0" style="stroke:#010101; fill:none;"/>
	<path d="M 1378.0,1524.0 L 1374.0,1525.0 L 1396.0,1516.0" style="stroke:#010101; fill:none;"/>
	<path d="M 1398.0,1519.0 L 1347.0,1578.0" style="stroke:#010101; fill:none;"/>
	<path d="M 1351.0,1535.0 L 1374.0,1525.0" style="stroke:#010101; fill:none;"/>
	<path d="M 823.0,1528.0 C 851.929,1545.77 875.806,1568.29 902.0,1589.54 C 935.175,1616.46 972.104,1639.45 1003.0,1669.04 C 1027.87,1692.85 1046.32,1722.79 1068.44,1749.0 C 1085.94,1769.74 1107.63,1786.88 1125.83,1807.0 C 1151.57,1835.45 1178.54,1864.56 1206.99,1890.29 C 1218.34,1900.55 1224.5,1914.42 1241.0,1914.0" style="stroke:#010101; fill:none;"/>
	<path d="M 1376.0,1528.0 C 1362.65,1544.39 1348.1,1560.18 1334.05,1576.0 C 1328.56,1582.19 1323.01,1592.16 1315.0,1595.0" style="stroke:#010101; fill:none;"/>
	<path d="M 1329.0,1552.0 L 1286.0,1599.0" style="stroke:#010101; fill:none;"/>
	<path d="M 1309.0,1555.0 L 1271.0,1599.0" style="stroke:#010101; fill:none;"/>
	<path d="M 999.0,1563.0 L 1005.0,1565.0 L 998.0,1564.0" style="stroke:#010101; fill:none;"/>
	<path d="M 1005.0,1565.0 L 1010.0,1567.0 L 1004.0,1567.0" style="stroke:#010101; fill:none;"/>
	<path d="M 1257.0,1565.0 L 1229.0,1588.0" style="stroke:#010101; fill:none;"/>
	<path d="M 1011.0,1567.0 L 1009.0,1569.0" style="stroke:#010101; fill:none;"/>
	<path d="M 1273.0,1567.0 L 1243.0,1594.0" style="stroke:#010101; fill:none;"/>
	<path d="M 1012.0,1568.0 L 1015.0,1569.0 L 1013.0,1571.0 L 1011.0,1569.0" style="stroke:#010101; fill:none;"/>
	<path d="M 1015.0,1569.0 L 1020.0,1571.0 L 1014.0,1571.0" style="stroke:#010101; fill:none;"/>
	<path d="M 1050.0,1570.0 C 1110.05,1589.54 1174.35,1603.08 1237.0,1611.0" style="stroke:#010101; fill:none;"/>
	<path d="M 1020.0,1571.0 L 1023.0,1572.0 L 1019.0,1573.0" style="stroke:#010101; fill:none;"/>
	<path d="M 1023.0,1572.0 L 1097.0,1596.28 L 1205.0,1624.0" style="stroke:#010101; fill:none;"/>
	<path d="M 1282.0,1572.0 L 1262.0,1594.0" style="stroke:#010101; fill:none;"/>
	<path d="M 1109.0,1574.0 L 1192.0,1594.58 L 1261.0,1606.41 L 1292.0,1611.0" style="stroke:#010101; fill:none;"/>
	<path d="M 1023.0,1575.0 L 1146.0,1619.33 L 1196.0,1635.0" style="stroke:#010101; fill:none;"/>
	<path d="M 1228.0,1580.0 L 1208.0,1592.0" style="stroke:#010101; fill:none;"/>
	<path d="M 1321.0,1595.0 L 1404.0,1591.0" style="stroke:#010101; fill:none;"/>
	<path d="M 1280.0,1603.0 C 1319.88,1614.21 1364.31,1606.11 1405.0,1606.0" style="stroke:#010101; fill:none;"/>
	<path d="M 1284.0,1621.0 C 1331.91,1630.91 1378.39,1629.0 1427.0,1629.0" style="stroke:#010101; fill:none;"/>
	<path d="M 1306.0,1641.0 C 1335.96,1645.14 1366.9,1643.64 1397.0,1642.0" style="stroke:#010101; fill:none;"/>
	<path d="M 1209.0,1658.0 C 1267.74,1659.8 1327.93,1672.31 1386.0,1659.0" style="stroke:#010101; fill:none;"/>
	<path d="M 1266.0,1669.0 L 1275.0,1669.0" style="stroke:#010101; fill:none;"/>
	<path d="M 1278.0,1670.0 L 1347.0,1674.91 L 1378.0,1676.0" style="stroke:#010101; fill:none;"/>
	<path d="M 1320.0,1709.0 L 1413.0,1716.99 L 1478.0,1717.99 L 1519.0,1717.0" style="stroke:#010101; fill:none;"/>
	<path d="M 1368.0,1741.0 L 1513.0,1741.0" style="stroke:#010101; fill:none;"/>
	<path d="M 1976.0,1788.0 L 1969.0,1837.0" style="stroke:#010101; fill:none;"/>
	<path d="M 1322.0,1798.0 C 1415.11,1810.02 1510.85,1823.43 1605.0,1816.0" style="stroke:#010101; fill:none;"/>
	<path d="M 1390.0,1801.0 L 1483.0,1804.94 L 1526.0,1801.0" style="stroke:#010101; fill:none;"/>
	<path d="M 1386.0,1826.0 C 1467.88,1841.88 1550.92,1841.0 1634.0,1841.0" style="stroke:#010101; fill:none;"/>
	<path d="M 1452.0,1853.0 C 1507.97,1857.45 1563.64,1866.0 1620.0,1866.0" style="stroke:#010101; fill:none;"/>
	<path d="M 1533.0,1870.0 C 1563.31,1875.71 1594.22,1879.69 1625.0,1881.04 C 1636.85,1881.56 1650.36,1884.77 1662.0,1882.0" style="stroke:#010101; fill:none;"/>
	<path d="M 1584.0,1894.0 L 1676.0,1906.0" style="stroke:#010101; fill:none;"/>
	<path d="M 1227.0,1911.0 L 1217.0,1912.0" style="stroke:#010101; fill:none;"/>
	<path d="M 1234.0,1916.0 L 1258.0,1939.0" style="stroke:#010101; fill:none;"/>
	<path d="M 1608.0,1916.0 L 1685.0,1922.0" style="stroke:#010101; fill:none;"/>
	<path d="M 1381.0,1941.0 C 1429.06,1989.05 1493.09,2022.97 1549.0,2061.0" style="stroke:#010101; fill:none;"/>
	<path d="M 1652.0,1942.0 L 1686.0,1949.0" style="stroke:#010101; fill:none;"/>
	<path d="M 1274.0,1960.0 C 1284.64,1970.76 1291.85,1985.76 1300.88,1998.04 C 1311.84,2012.96 1325.46,2028.59 1334.02,2045.0 C 1347.73,2071.3 1352.08,2098.88 1350.09,2128.0 C 1349.27,2139.97 1351.7,2152.12 1352.83,2164.0 C 1353.2,2167.92 1351.24,2174.04 1352.69,2177.57 C 1353.81,2180.28 1357.62,2179.94 1360.0,2180.0" style="stroke:#010101; fill:none;"/>
	<path d="M 1562.0,1960.0 C 1619.89,1999.05 1684.92,2024.94 1745.0,2060.0" style="stroke:#010101; fill:none;"/>
	<path d="M 1670.0,1962.0 L 1719.0,1970.0" style="stroke:#010101; fill:none;"/>
	<path d="M 1413.0,1978.0 C 1418.09,1988.18 1430.07,1996.85 1439.0,2003.67 C 1443.47,2007.08 1452.65,2011.46 1455.0,2016.67 C 1455.68,2018.17 1450.65,2014.74 1453.0,2016.0" style="stroke:#010101; fill:none;"/>
	<path d="M 1278.0,1981.0 C 1282.65,1985.65 1287.81,1993.87 1295.0,1991.0" style="stroke:#010101; fill:none;"/>
	<path d="M 1279.0,1993.0 L 1288.0,1992.0" style="stroke:#010101; fill:none;"/>
	<path d="M 1297.0,1994.0 L 1292.0,1994.0" style="stroke:#010101; fill:none;"/>
	<path d="M 1632.0,2011.0 L 1691.92,2045.62 L 1701.0,2052.0 L 1700.0,2050.0" style="stroke:#010101; fill:none;"/>
	<path d="M 1457.0,2017.0 L 1459.0,2019.0 L 1455.0,2019.0" style="stroke:#010101; fill:none;"/>
	<path d="M 1460.0,2019.0 C 1474.7,2031.53 1491.94,2041.64 1508.0,2052.33 C 1550.36,2080.52 1594.22,2105.03 1639.0,2129.0" style="stroke:#010101; fill:none;"/>
	<path d="M 1458.0,2020.0 L 1471.0,2031.99 L 1507.0,2056.67 L 1634.0,2137.0" style="stroke:#010101; fill:none;"/>
	<path d="M 1468.0,2045.0 C 1497.69,2070.94 1530.78,2090.99 1564.0,2112.05 C 1584.91,2125.31 1605.37,2139.96 1627.0,2152.0" style="stroke:#010101; fill:none;"/>
	<path d="M 1691.0,2045.0 L 1688.0,2046.0" style="stroke:#010101; fill:none;"/>
	<path d="M 1679.0,2046.0 C 1691.98,2058.97 1709.25,2071.67 1725.0,2081.0" style="stroke:#010101; fill:none;"/>
	<path d="M 1690.0,2046.0 L 1695.0,2047.0" style="stroke:#010101; fill:none;"/>
	<path d="M 1696.0,2048.0 L 1700.0,2050.0" style="stroke:#010101; fill:none;"/>
	<path d="M 1702.0,2051.0 L 1708.0,2054.0 L 1701.0,2053.0" style="stroke:#010101; fill:none;"/>
	<path d="M 1708.0,2054.0 L 1738.0,2068.0" style="stroke:#010101; fill:none;"/>
	<path d="M 1707.0,2056.0 L 1735.0,2071.0" style="stroke:#010101; fill:none;"/>
	<path d="M 1476.0,2069.0 C 1523.42,2110.3 1584.42,2132.9 1634.0,2171.0" style="stroke:#010101; fill:none;"/>
	<path d="M 1716.0,2073.0 L 1728.0,2078.0" style="stroke:#010101; fill:none;"/>
	<path d="M 1490.0,2096.0 C 1514.1,2116.99 1541.55,2132.89 1569.0,2149.01 C 1587.38,2159.8 1605.68,2171.98 1625.0,2181.0" style="stroke:#010101; fill:none;"/>
	<path d="M 1508.0,2124.0 C 1536.74,2152.66 1578.75,2173.49 1616.0,2189.0" style="stroke:#010101; fill:none;"/>
	<path d="M 1532.0,2157.0 L 1563.0,2178.94 L 1604.0,2202.0" style="stroke:#010101; fill:none;"/>
	<path d="M 1534.0,2173.0 C 1549.86,2188.53 1570.6,2203.2 1590.0,2214.0" style="stroke:#010101; fill:none;"/>
	<path d="M 1344.0,2178.0 C 1357.36,2180.09 1346.67,2202.67 1344.63,2211.0 C 1339.87,2230.38 1336.71,2251.09 1330.48,2270.0 C 1326.08,2283.36 1317.39,2296.09 1315.0,2310.0" style="stroke:#010101; fill:none;"/>
	<path d="M 1340.0,2198.0 L 1346.0,2203.0" style="stroke:#010101; fill:none;"/>
	<path d="M 1551.0,2206.0 L 1576.0,2230.0" style="stroke:#010101; fill:none;"/>
	<path d="M 1560.0,2234.0 L 1565.0,2240.0" style="stroke:#010101; fill:none;"/>
	<path d="M 1303.0,2289.0 L 1302.0,2290.0" style="stroke:#010101; fill:none;"/>
</svg>
