<?xml version="1.0" ?>
<svg baseProfile="full" height="2893" version="1.1" width="2759" xmlns="http://www.w3.org/2000/svg" xmlns:ev="http://www.w3.org/2001/xml-events" xmlns:xlink="http://www.w3.org/1999/xlink">
	<defs/>
	<path d="M 826.0,928.0 C 812.012,945.874 813.941,976.647 814.0,998.0 C 806.085,1000.49 805.402,1015.89 803.625,1023.0 C 797.274,1048.4 789.318,1074.57 789.004,1101.0 C 788.829,1115.72 793.908,1130.35 792.911,1145.0 C 788.495,1209.84 775.008,1274.46 797.698,1338.0 C 805.192,1358.98 825.9,1376.56 846.0,1385.49 C 853.496,1388.81 871.13,1388.09 876.431,1380.69 C 882.292,1372.5 882.343,1355.82 884.084,1346.0 C 887.871,1324.63 892.44,1301.65 899.0,1281.0" style="stroke:#010101; fill:none;"/>
	<path d="M 827.0,931.0 L 832.0,953.0" style="stroke:#010101; fill:none;"/>
	<path d="M 815.0,999.0 C 820.487,1035.61 863.876,1045.81 894.0,1042.0 C 894.27,1074.65 892.779,1108.35 901.576,1140.0 C 903.756,1147.84 905.048,1156.87 909.0,1164.0 L 914.0,1157.0" style="stroke:#010101; fill:none;"/>
	<path d="M 1102.0,1016.0 L 1099.0,1021.0" style="stroke:#010101; fill:none;"/>
	<path d="M 1098.0,1024.0 C 1086.17,1042.67 1079.83,1068.35 1076.58,1090.0 C 1075.24,1098.85 1073.56,1108.81 1078.0,1117.0" style="stroke:#010101; fill:none;"/>
	<path d="M 890.0,1025.0 L 895.0,1041.0" style="stroke:#010101; fill:none;"/>
	<path d="M 895.0,1041.0 L 897.0,1041.0" style="stroke:#010101; fill:none;"/>
	<path d="M 845.0,1050.0 C 839.871,1087.91 818.126,1121.67 810.804,1159.0 C 804.417,1191.57 812.334,1220.73 813.0,1253.0" style="stroke:#010101; fill:none;"/>
	<path d="M 896.0,1055.0 L 898.0,1055.0" style="stroke:#010101; fill:none;"/>
	<path d="M 1156.0,1066.0 L 1197.0,1071.04 L 1217.0,1075.0 L 1204.0,1078.0 L 1233.0,1080.0 C 1230.84,1083.07 1230.28,1084.27 1233.0,1087.0 L 1225.0,1086.94 L 1199.0,1091.0" style="stroke:#010101; fill:none;"/>
	<path d="M 1153.0,1069.0 L 1204.0,1078.0" style="stroke:#010101; fill:none;"/>
	<path d="M 1217.0,1075.0 L 1244.0,1077.0 L 1243.0,1075.0" style="stroke:#010101; fill:none;"/>
	<path d="M 1316.0,1114.0 L 1261.0,1088.0 L 1268.0,1084.0 L 1246.0,1076.0 C 1264.21,1071.86 1293.47,1079.4 1311.0,1085.0" style="stroke:#010101; fill:none;"/>
	<path d="M 1197.0,1077.0 L 1195.0,1081.0 L 1205.0,1079.0" style="stroke:#010101; fill:none;"/>
	<path d="M 1245.0,1078.0 L 1246.0,1078.0" style="stroke:#010101; fill:none;"/>
	<path d="M 1237.0,1082.0 L 1236.0,1079.0 L 1241.0,1083.0 L 1236.0,1087.0 C 1260.17,1097.99 1286.83,1103.37 1311.0,1115.13 C 1330.29,1124.52 1347.82,1140.09 1363.0,1155.0" style="stroke:#010101; fill:none;"/>
	<path d="M 1150.0,1081.0 L 1190.0,1081.0 C 1185.02,1083.13 1179.46,1086.05 1175.0,1082.0 L 1160.0,1090.0 L 1161.0,1090.0 L 1163.0,1088.0" style="stroke:#010101; fill:none;"/>
	<path d="M 1190.0,1081.0 L 1194.0,1080.0" style="stroke:#010101; fill:none;"/>
	<path d="M 1233.0,1080.0 L 1235.0,1080.0" style="stroke:#010101; fill:none;"/>
	<path d="M 1100.0,1081.0 C 1098.39,1088.81 1095.15,1098.63 1104.0,1103.0" style="stroke:#010101; fill:none;"/>
	<path d="M 1235.0,1081.0 L 1232.0,1084.0" style="stroke:#010101; fill:none;"/>
	<path d="M 1239.0,1086.0 L 1255.0,1082.0" style="stroke:#010101; fill:none;"/>
	<path d="M 1173.0,1083.0 L 1170.0,1086.0" style="stroke:#010101; fill:none;"/>
	<path d="M 1183.0,1089.0 C 1196.73,1084.83 1213.66,1083.01 1228.0,1083.0" style="stroke:#010101; fill:none;"/>
	<path d="M 1242.0,1083.0 L 1243.0,1084.0" style="stroke:#010101; fill:none;"/>
	<path d="M 1267.0,1087.0 C 1278.95,1079.55 1295.31,1084.81 1308.0,1088.39 C 1313.36,1089.9 1318.41,1093.46 1324.0,1092.0 L 1318.0,1089.0" style="stroke:#010101; fill:none;"/>
	<path d="M 1246.0,1084.0 L 1260.0,1088.0" style="stroke:#010101; fill:none;"/>
	<path d="M 1269.0,1084.0 L 1271.0,1085.0" style="stroke:#010101; fill:none;"/>
	<path d="M 1159.0,1088.0 L 1157.0,1088.0 L 1158.0,1085.0 L 1160.0,1087.0" style="stroke:#010101; fill:none;"/>
	<path d="M 1160.0,1085.0 L 1161.0,1086.0" style="stroke:#010101; fill:none;"/>
	<path d="M 1165.0,1087.0 L 1168.0,1085.0" style="stroke:#010101; fill:none;"/>
	<path d="M 1159.0,1089.0 L 1140.0,1092.0 L 1157.0,1086.0" style="stroke:#010101; fill:none;"/>
	<path d="M 1272.0,1086.0 C 1280.38,1088.36 1288.82,1088.3 1297.0,1090.08 C 1312.94,1093.54 1330.53,1104.11 1344.0,1113.0 C 1338.71,1114.88 1332.95,1111.75 1328.0,1109.57 C 1316.02,1104.29 1302.5,1098.86 1292.0,1091.0" style="stroke:#010101; fill:none;"/>
	<path d="M 1235.0,1087.0 L 1236.0,1087.0" style="stroke:#010101; fill:none;"/>
	<path d="M 1233.0,1091.0 L 1268.0,1104.0 C 1266.65,1108.98 1270.99,1109.41 1275.0,1110.91 C 1283.44,1114.07 1291.19,1117.57 1299.0,1122.0 L 1298.0,1120.0" style="stroke:#010101; fill:none;"/>
	<path d="M 1141.0,1093.0 L 1139.0,1095.0 L 1140.0,1092.0" style="stroke:#010101; fill:none;"/>
	<path d="M 1325.0,1092.0 L 1333.0,1099.0 L 1332.0,1096.0" style="stroke:#010101; fill:none;"/>
	<path d="M 1326.0,1093.0 L 1323.0,1094.0" style="stroke:#010101; fill:none;"/>
	<path d="M 1136.0,1094.0 L 1137.0,1095.0" style="stroke:#010101; fill:none;"/>
	<path d="M 1169.0,1095.0 L 1196.0,1094.75 L 1208.0,1096.0" style="stroke:#010101; fill:none;"/>
	<path d="M 1327.0,1096.0 L 1329.0,1097.0" style="stroke:#010101; fill:none;"/>
	<path d="M 1209.0,1097.0 C 1215.8,1098.71 1223.4,1105.93 1230.0,1101.0 L 1216.0,1098.0" style="stroke:#010101; fill:none;"/>
	<path d="M 1227.0,1098.0 C 1229.44,1097.59 1229.12,1097.7 1228.0,1100.0" style="stroke:#010101; fill:none;"/>
	<path d="M 1334.0,1097.0 L 1362.0,1115.0" style="stroke:#010101; fill:none;"/>
	<path d="M 1230.0,1098.0 L 1234.0,1099.0 L 1232.0,1101.0 L 1245.0,1102.0 L 1234.0,1099.0" style="stroke:#010101; fill:none;"/>
	<path d="M 1189.0,1106.0 L 1153.0,1101.0 C 1165.38,1097.93 1188.62,1097.89 1200.0,1104.0 C 1178.44,1114.38 1151.92,1111.74 1131.0,1125.0" style="stroke:#010101; fill:none;"/>
	<path d="M 1310.0,1100.0 L 1312.0,1102.0" style="stroke:#010101; fill:none;"/>
	<path d="M 1230.0,1101.0 L 1232.0,1102.0" style="stroke:#010101; fill:none;"/>
	<path d="M 1355.0,1101.0 C 1367.75,1113.75 1385.71,1127.35 1392.0,1144.0" style="stroke:#010101; fill:none;"/>
	<path d="M 1221.0,1102.0 L 1213.0,1105.0 C 1221.06,1108.08 1231.31,1112.99 1240.0,1111.0 L 1229.0,1103.0" style="stroke:#010101; fill:none;"/>
	<path d="M 1232.0,1102.0 L 1230.0,1104.0" style="stroke:#010101; fill:none;"/>
	<path d="M 1245.0,1102.0 C 1257.04,1112.53 1277.54,1117.74 1293.0,1120.0" style="stroke:#010101; fill:none;"/>
	<path d="M 1247.0,1102.0 L 1266.0,1106.0" style="stroke:#010101; fill:none;"/>
	<path d="M 1367.0,1102.0 L 1385.0,1130.0" style="stroke:#010101; fill:none;"/>
	<path d="M 1133.0,1108.0 L 1153.0,1103.0" style="stroke:#010101; fill:none;"/>
	<path d="M 1200.0,1104.0 L 1212.0,1104.0" style="stroke:#010101; fill:none;"/>
	<path d="M 1268.0,1104.0 C 1281.33,1106.85 1302.16,1115.19 1312.78,1123.83 C 1321.45,1130.89 1338.62,1147.19 1351.0,1144.0" style="stroke:#010101; fill:none;"/>
	<path d="M 1374.0,1105.0 C 1389.38,1118.72 1402.52,1143.47 1401.0,1164.0" style="stroke:#010101; fill:none;"/>
	<path d="M 1584.0,1105.0 C 1572.0,1125.65 1566.13,1151.56 1562.87,1175.0 C 1561.74,1183.14 1559.07,1192.93 1561.0,1201.0" style="stroke:#010101; fill:none;"/>
	<path d="M 1246.0,1109.0 L 1316.0,1141.0" style="stroke:#010101; fill:none;"/>
	<path d="M 1188.0,1110.0 L 1200.0,1113.0 L 1201.0,1112.0 L 1199.0,1111.0" style="stroke:#010101; fill:none;"/>
	<path d="M 1104.0,1137.0 C 1117.62,1123.85 1137.52,1111.85 1157.0,1111.0" style="stroke:#010101; fill:none;"/>
	<path d="M 1201.0,1112.0 L 1225.0,1110.0" style="stroke:#010101; fill:none;"/>
	<path d="M 1240.0,1111.0 L 1258.0,1119.0" style="stroke:#010101; fill:none;"/>
	<path d="M 1239.0,1112.0 L 1254.0,1120.0" style="stroke:#010101; fill:none;"/>
	<path d="M 1345.0,1113.0 L 1358.0,1122.0 L 1355.0,1120.0" style="stroke:#010101; fill:none;"/>
	<path d="M 1143.0,1133.0 L 1141.0,1133.0 L 1160.0,1125.36 L 1199.0,1113.0" style="stroke:#010101; fill:none;"/>
	<path d="M 1334.0,1114.0 C 1356.29,1129.75 1376.16,1144.98 1386.0,1172.0 C 1373.79,1170.1 1362.88,1160.26 1353.0,1153.44 C 1339.68,1144.24 1321.47,1134.75 1305.0,1134.0" style="stroke:#010101; fill:none;"/>
	<path d="M 1167.0,1115.0 L 1166.0,1116.0" style="stroke:#010101; fill:none;"/>
	<path d="M 1179.0,1118.0 C 1190.16,1123.73 1210.97,1115.14 1224.0,1117.0" style="stroke:#010101; fill:none;"/>
	<path d="M 1322.0,1116.0 C 1340.52,1125.09 1362.52,1139.85 1373.0,1158.0" style="stroke:#010101; fill:none;"/>
	<path d="M 1344.0,1116.0 L 1348.0,1117.0" style="stroke:#010101; fill:none;"/>
	<path d="M 869.0,1234.0 C 862.735,1228.36 848.044,1222.26 845.291,1213.99 C 843.526,1208.68 848.726,1195.57 850.127,1190.0 C 856.723,1163.74 870.527,1131.94 895.0,1118.0" style="stroke:#010101; fill:none;"/>
	<path d="M 1174.0,1120.0 L 1177.0,1118.0" style="stroke:#010101; fill:none;"/>
	<path d="M 1494.0,1118.0 C 1488.36,1142.38 1474.18,1172.63 1454.0,1188.0" style="stroke:#010101; fill:none;"/>
	<path d="M 1283.0,1119.0 L 1293.0,1125.0" style="stroke:#010101; fill:none;"/>
	<path d="M 1301.0,1122.0 L 1315.0,1127.0" style="stroke:#010101; fill:none;"/>
	<path d="M 1359.0,1123.0 C 1365.05,1127.41 1382.33,1139.11 1389.0,1136.0" style="stroke:#010101; fill:none;"/>
	<path d="M 1357.0,1124.0 L 1360.0,1126.0" style="stroke:#010101; fill:none;"/>
	<path d="M 1298.0,1126.0 L 1320.0,1131.0" style="stroke:#010101; fill:none;"/>
	<path d="M 1317.0,1126.0 L 1318.0,1127.0" style="stroke:#010101; fill:none;"/>
	<path d="M 1115.0,1134.0 L 1144.0,1128.0" style="stroke:#010101; fill:none;"/>
	<path d="M 1160.0,1128.0 L 1180.0,1132.0" style="stroke:#010101; fill:none;"/>
	<path d="M 1364.0,1128.0 L 1391.0,1149.0" style="stroke:#010101; fill:none;"/>
	<path d="M 1076.0,1132.0 C 1079.52,1136.62 1094.48,1152.27 1100.0,1144.0" style="stroke:#010101; fill:none;"/>
	<path d="M 1325.0,1132.0 L 1336.0,1136.0" style="stroke:#010101; fill:none;"/>
	<path d="M 1385.0,1132.0 L 1388.0,1137.0" style="stroke:#010101; fill:none;"/>
	<path d="M 1115.0,1137.0 L 1141.0,1133.0" style="stroke:#010101; fill:none;"/>
	<path d="M 1143.0,1133.0 C 1156.62,1139.38 1172.93,1132.46 1186.0,1143.0" style="stroke:#010101; fill:none;"/>
	<path d="M 1403.0,1136.0 L 1407.0,1156.0" style="stroke:#010101; fill:none;"/>
	<path d="M 1106.0,1144.0 C 1127.03,1138.82 1147.7,1140.08 1169.0,1141.0" style="stroke:#010101; fill:none;"/>
	<path d="M 1388.0,1139.0 L 1390.0,1142.0" style="stroke:#010101; fill:none;"/>
	<path d="M 1373.0,1140.0 C 1380.69,1148.35 1387.01,1158.71 1399.0,1161.0" style="stroke:#010101; fill:none;"/>
	<path d="M 1134.0,1142.0 L 1133.0,1147.0 L 1154.0,1146.0" style="stroke:#010101; fill:none;"/>
	<path d="M 1171.0,1142.0 L 1172.0,1142.0" style="stroke:#010101; fill:none;"/>
	<path d="M 1411.0,1142.0 L 1411.0,1143.0" style="stroke:#010101; fill:none;"/>
	<path d="M 1099.0,1147.0 L 1104.0,1162.0" style="stroke:#010101; fill:none;"/>
	<path d="M 1114.0,1148.0 L 1132.0,1148.0" style="stroke:#010101; fill:none;"/>
	<path d="M 1055.0,1148.0 L 1080.0,1161.0" style="stroke:#010101; fill:none;"/>
	<path d="M 1102.0,1149.0 L 1104.0,1151.0" style="stroke:#010101; fill:none;"/>
	<path d="M 1133.0,1149.0 L 1133.0,1153.0 L 1123.0,1152.0" style="stroke:#010101; fill:none;"/>
	<path d="M 1134.0,1154.0 L 1141.0,1154.0" style="stroke:#010101; fill:none;"/>
	<path d="M 1213.0,1164.0 L 1217.0,1165.0 L 1213.0,1168.0 C 1207.52,1157.14 1191.93,1167.89 1184.0,1160.0 C 1214.76,1148.39 1253.53,1161.58 1284.0,1168.87 C 1296.26,1171.8 1309.72,1173.05 1321.0,1179.0" style="stroke:#010101; fill:none;"/>
	<path d="M 1162.0,1170.0 C 1151.03,1180.97 1141.59,1192.16 1125.0,1182.0 C 1131.02,1179.1 1137.85,1180.3 1144.0,1177.44 C 1158.1,1170.86 1167.07,1160.15 1184.0,1160.0" style="stroke:#010101; fill:none;"/>
	<path d="M 1137.0,1164.0 L 1143.0,1168.0" style="stroke:#010101; fill:none;"/>
	<path d="M 1194.0,1164.0 C 1199.05,1167.86 1202.91,1168.77 1209.0,1167.0" style="stroke:#010101; fill:none;"/>
	<path d="M 908.0,1165.0 C 899.451,1180.35 887.382,1194.43 887.015,1213.0 C 886.821,1222.87 890.006,1232.22 894.258,1241.0 C 896.869,1246.39 901.934,1252.76 901.595,1259.0 C 901.11,1267.92 892.046,1274.07 885.0,1278.0" style="stroke:#010101; fill:none;"/>
	<path d="M 1217.0,1165.0 C 1239.28,1165.05 1267.17,1170.55 1287.0,1181.0 L 1285.0,1185.0 L 1291.0,1186.0 L 1292.0,1187.0 L 1292.0,1188.0 L 1293.0,1189.0" style="stroke:#010101; fill:none;"/>
	<path d="M 1084.0,1166.0 C 1096.08,1176.45 1109.05,1182.0 1125.0,1182.0" style="stroke:#010101; fill:none;"/>
	<path d="M 1226.0,1166.0 L 1221.0,1177.0 L 1212.0,1173.0 C 1215.81,1170.63 1218.71,1169.34 1223.0,1171.0" style="stroke:#010101; fill:none;"/>
	<path d="M 1627.0,1167.0 C 1623.82,1180.42 1606.74,1188.57 1597.0,1197.0" style="stroke:#010101; fill:none;"/>
	<path d="M 1205.0,1169.0 L 1212.0,1169.0" style="stroke:#010101; fill:none;"/>
	<path d="M 1226.0,1169.0 L 1231.0,1176.0" style="stroke:#010101; fill:none;"/>
	<path d="M 1244.0,1169.0 L 1242.0,1177.0 L 1253.0,1171.0" style="stroke:#010101; fill:none;"/>
	<path d="M 1234.0,1170.0 L 1235.0,1175.0" style="stroke:#010101; fill:none;"/>
	<path d="M 1401.0,1170.0 C 1396.99,1172.11 1390.91,1172.77 1391.0,1178.0" style="stroke:#010101; fill:none;"/>
	<path d="M 1209.0,1171.0 L 1211.0,1173.0" style="stroke:#010101; fill:none;"/>
	<path d="M 1229.0,1171.0 L 1227.0,1173.0" style="stroke:#010101; fill:none;"/>
	<path d="M 1238.0,1172.0 L 1242.0,1171.0" style="stroke:#010101; fill:none;"/>
	<path d="M 1248.0,1171.0 L 1247.0,1173.0" style="stroke:#010101; fill:none;"/>
	<path d="M 1167.0,1173.0 L 1171.0,1172.0" style="stroke:#010101; fill:none;"/>
	<path d="M 1386.0,1172.0 L 1390.0,1176.0" style="stroke:#010101; fill:none;"/>
	<path d="M 1590.0,1197.0 C 1594.69,1205.5 1608.72,1197.59 1615.0,1194.4 C 1625.22,1189.2 1633.02,1177.23 1643.0,1173.2 C 1647.1,1171.54 1652.73,1173.76 1657.0,1173.96 C 1668.64,1174.51 1680.36,1175.97 1692.0,1176.0" style="stroke:#010101; fill:none;"/>
	<path d="M 1264.0,1173.0 C 1260.18,1175.75 1257.55,1176.07 1253.0,1175.0 C 1249.84,1188.08 1272.25,1190.12 1280.0,1185.0 L 1264.0,1175.0" style="stroke:#010101; fill:none;"/>
	<path d="M 1051.0,1175.0 L 1077.0,1180.0" style="stroke:#010101; fill:none;"/>
	<path d="M 1182.0,1176.0 L 1188.0,1175.0" style="stroke:#010101; fill:none;"/>
	<path d="M 1741.0,1200.0 L 1750.0,1194.27 L 1774.0,1175.0" style="stroke:#010101; fill:none;"/>
	<path d="M 1193.0,1178.0 L 1207.0,1176.0" style="stroke:#010101; fill:none;"/>
	<path d="M 1595.0,1181.0 L 1615.0,1176.0" style="stroke:#010101; fill:none;"/>
	<path d="M 1221.0,1177.0 C 1236.18,1191.4 1260.85,1195.81 1281.0,1197.83 C 1290.78,1198.81 1303.27,1202.44 1304.0,1189.0 C 1327.1,1195.04 1337.77,1217.83 1359.0,1226.0" style="stroke:#010101; fill:none;"/>
	<path d="M 1294.0,1178.0 L 1291.0,1184.0" style="stroke:#010101; fill:none;"/>
	<path d="M 1300.0,1179.0 L 1302.0,1178.0" style="stroke:#010101; fill:none;"/>
	<path d="M 1706.0,1185.0 L 1704.0,1183.0 L 1707.0,1185.0 L 1716.0,1179.0" style="stroke:#010101; fill:none;"/>
	<path d="M 1107.0,1180.0 L 1085.0,1181.0" style="stroke:#010101; fill:none;"/>
	<path d="M 1287.0,1181.0 L 1290.0,1182.0" style="stroke:#010101; fill:none;"/>
	<path d="M 1153.0,1183.0 C 1150.18,1186.48 1152.42,1193.26 1154.0,1197.0" style="stroke:#010101; fill:none;"/>
	<path d="M 1187.0,1182.0 C 1192.77,1194.38 1205.78,1201.45 1217.0,1208.0" style="stroke:#010101; fill:none;"/>
	<path d="M 1707.0,1182.0 L 1709.0,1182.0" style="stroke:#010101; fill:none;"/>
	<path d="M 1742.0,1182.0 L 1703.0,1205.0 C 1712.17,1214.38 1726.18,1204.35 1734.0,1198.0" style="stroke:#010101; fill:none;"/>
	<path d="M 1153.0,1183.0 L 1155.0,1183.0" style="stroke:#010101; fill:none;"/>
	<path d="M 1292.0,1183.0 L 1303.0,1188.0" style="stroke:#010101; fill:none;"/>
	<path d="M 1653.0,1183.0 C 1665.08,1188.81 1689.05,1185.4 1702.0,1183.0" style="stroke:#010101; fill:none;"/>
	<path d="M 1204.0,1184.0 L 1212.0,1185.0" style="stroke:#010101; fill:none;"/>
	<path d="M 1340.0,1184.0 L 1356.0,1189.0" style="stroke:#010101; fill:none;"/>
	<path d="M 1641.0,1184.0 C 1629.89,1195.01 1617.07,1203.33 1603.0,1210.0 C 1614.65,1222.24 1636.53,1201.81 1646.0,1195.0" style="stroke:#010101; fill:none;"/>
	<path d="M 1168.0,1185.0 L 1171.0,1205.0" style="stroke:#010101; fill:none;"/>
	<path d="M 1281.0,1185.0 L 1284.0,1186.0" style="stroke:#010101; fill:none;"/>
	<path d="M 1328.0,1185.0 C 1346.28,1203.28 1370.05,1228.04 1397.0,1232.0" style="stroke:#010101; fill:none;"/>
	<path d="M 839.0,1186.0 C 834.597,1195.15 837.495,1205.7 844.0,1213.0" style="stroke:#010101; fill:none;"/>
	<path d="M 1646.0,1187.0 C 1664.39,1190.46 1686.05,1192.74 1704.0,1186.0" style="stroke:#010101; fill:none;"/>
	<path d="M 1688.0,1198.0 C 1678.05,1207.66 1650.69,1225.7 1636.0,1222.0 L 1654.0,1213.74 L 1682.0,1196.61 L 1723.0,1187.0" style="stroke:#010101; fill:none;"/>
	<path d="M 1750.0,1188.0 L 1753.0,1189.0" style="stroke:#010101; fill:none;"/>
	<path d="M 1211.0,1191.0 L 1217.0,1189.0" style="stroke:#010101; fill:none;"/>
	<path d="M 1373.0,1191.0 L 1382.0,1189.0" style="stroke:#010101; fill:none;"/>
	<path d="M 1758.0,1190.0 L 1773.0,1198.0 C 1764.87,1204.27 1759.16,1205.75 1751.0,1199.0" style="stroke:#010101; fill:none;"/>
	<path d="M 1784.0,1203.0 L 1776.0,1198.0 L 1789.0,1190.0" style="stroke:#010101; fill:none;"/>
	<path d="M 1218.0,1192.0 L 1223.0,1192.0" style="stroke:#010101; fill:none;"/>
	<path d="M 1026.0,1204.0 L 1045.0,1195.0" style="stroke:#010101; fill:none;"/>
	<path d="M 1637.0,1195.0 L 1642.0,1197.0" style="stroke:#010101; fill:none;"/>
	<path d="M 996.0,1196.0 L 1008.0,1205.0" style="stroke:#010101; fill:none;"/>
	<path d="M 1645.0,1196.0 L 1679.0,1197.0" style="stroke:#010101; fill:none;"/>
	<path d="M 1238.0,1197.0 L 1242.0,1199.0" style="stroke:#010101; fill:none;"/>
	<path d="M 1434.0,1197.0 L 1435.0,1197.0" style="stroke:#010101; fill:none;"/>
	<path d="M 1385.0,1204.0 C 1401.66,1209.32 1415.92,1201.72 1432.0,1198.0" style="stroke:#010101; fill:none;"/>
	<path d="M 1773.0,1198.0 L 1776.0,1198.0" style="stroke:#010101; fill:none;"/>
	<path d="M 1246.0,1199.0 L 1249.0,1205.0" style="stroke:#010101; fill:none;"/>
	<path d="M 1301.0,1199.0 C 1307.73,1202.73 1330.62,1212.45 1337.0,1209.0" style="stroke:#010101; fill:none;"/>
	<path d="M 1660.0,1208.0 L 1641.0,1208.0 L 1654.0,1201.0" style="stroke:#010101; fill:none;"/>
	<path d="M 1741.0,1203.0 L 1740.0,1201.0" style="stroke:#010101; fill:none;"/>
	<path d="M 1684.0,1203.0 L 1696.0,1202.0" style="stroke:#010101; fill:none;"/>
	<path d="M 1728.0,1205.0 L 1738.0,1202.0" style="stroke:#010101; fill:none;"/>
	<path d="M 1774.0,1203.0 C 1787.77,1207.4 1804.55,1212.44 1819.0,1209.0" style="stroke:#010101; fill:none;"/>
	<path d="M 1739.0,1204.0 L 1707.0,1221.0 C 1712.42,1226.96 1719.54,1223.4 1725.0,1219.0 C 1733.37,1228.83 1742.36,1233.56 1755.0,1231.0" style="stroke:#010101; fill:none;"/>
	<path d="M 1692.0,1207.0 L 1702.0,1205.0" style="stroke:#010101; fill:none;"/>
	<path d="M 1758.0,1205.0 L 1727.0,1220.0" style="stroke:#010101; fill:none;"/>
	<path d="M 1763.0,1205.0 C 1775.82,1214.02 1804.24,1219.23 1819.0,1213.0" style="stroke:#010101; fill:none;"/>
	<path d="M 1701.0,1207.0 L 1677.0,1223.0 L 1695.0,1219.73 L 1707.0,1221.0" style="stroke:#010101; fill:none;"/>
	<path d="M 1636.0,1221.0 C 1630.71,1221.0 1624.87,1222.21 1622.0,1217.0 L 1641.0,1208.0" style="stroke:#010101; fill:none;"/>
	<path d="M 1596.0,1209.0 L 1603.0,1210.0" style="stroke:#010101; fill:none;"/>
	<path d="M 1715.0,1209.0 L 1698.0,1219.0" style="stroke:#010101; fill:none;"/>
	<path d="M 1008.0,1258.0 C 1018.43,1250.06 1022.77,1237.79 1032.17,1229.38 C 1047.15,1215.99 1073.91,1212.41 1093.0,1210.0" style="stroke:#010101; fill:none;"/>
	<path d="M 1406.0,1210.0 L 1410.0,1210.0" style="stroke:#010101; fill:none;"/>
	<path d="M 1559.0,1211.0 C 1559.19,1220.44 1561.24,1229.82 1566.0,1238.0" style="stroke:#010101; fill:none;"/>
	<path d="M 1233.0,1213.0 L 1248.0,1217.0" style="stroke:#010101; fill:none;"/>
	<path d="M 1336.0,1213.0 L 1338.0,1213.0" style="stroke:#010101; fill:none;"/>
	<path d="M 1783.0,1213.0 C 1772.37,1221.11 1758.08,1218.43 1746.0,1222.0 C 1760.95,1231.28 1787.75,1227.2 1804.0,1223.0" style="stroke:#010101; fill:none;"/>
	<path d="M 1672.0,1215.0 C 1672.05,1219.35 1672.15,1221.92 1677.0,1222.0 L 1677.0,1222.0" style="stroke:#010101; fill:none;"/>
	<path d="M 1606.0,1217.0 L 1607.0,1217.0" style="stroke:#010101; fill:none;"/>
	<path d="M 1609.0,1218.0 L 1622.0,1217.0" style="stroke:#010101; fill:none;"/>
	<path d="M 847.0,1218.0 L 845.0,1222.0" style="stroke:#010101; fill:none;"/>
	<path d="M 1199.0,1218.0 C 1200.64,1236.64 1216.47,1250.09 1230.0,1261.0" style="stroke:#010101; fill:none;"/>
	<path d="M 1725.0,1218.0 L 1725.0,1219.0" style="stroke:#010101; fill:none;"/>
	<path d="M 1376.0,1219.0 L 1394.0,1224.0" style="stroke:#010101; fill:none;"/>
	<path d="M 1403.0,1219.0 C 1404.15,1233.09 1408.35,1245.69 1419.0,1255.0" style="stroke:#010101; fill:none;"/>
	<path d="M 1409.0,1219.0 L 1424.0,1226.0" style="stroke:#010101; fill:none;"/>
	<path d="M 1739.0,1219.0 L 1745.0,1221.0" style="stroke:#010101; fill:none;"/>
	<path d="M 1151.0,1220.0 C 1157.44,1226.15 1165.35,1230.23 1172.0,1236.09 C 1185.74,1248.21 1197.45,1264.95 1217.0,1265.0 L 1201.0,1239.0" style="stroke:#010101; fill:none;"/>
	<path d="M 1672.0,1222.0 L 1655.0,1228.0" style="stroke:#010101; fill:none;"/>
	<path d="M 1693.0,1225.0 C 1704.48,1233.17 1726.42,1236.01 1740.0,1232.0" style="stroke:#010101; fill:none;"/>
	<path d="M 1821.0,1230.0 C 1817.22,1238.07 1800.28,1247.24 1792.0,1241.0 C 1783.63,1245.02 1764.22,1240.35 1756.0,1236.0 L 1805.0,1232.0" style="stroke:#010101; fill:none;"/>
	<path d="M 1751.0,1234.0 L 1755.0,1236.0" style="stroke:#010101; fill:none;"/>
	<path d="M 846.0,1236.0 C 831.201,1247.28 810.09,1265.0 802.0,1282.0" style="stroke:#010101; fill:none;"/>
	<path d="M 1793.0,1240.0 L 1808.0,1236.0" style="stroke:#010101; fill:none;"/>
	<path d="M 1693.0,1238.0 C 1712.39,1247.06 1734.43,1243.63 1755.0,1243.0" style="stroke:#010101; fill:none;"/>
	<path d="M 1825.0,1240.0 C 1815.63,1247.7 1805.03,1248.51 1794.0,1252.0 C 1800.8,1257.23 1813.01,1253.16 1821.0,1253.0" style="stroke:#010101; fill:none;"/>
	<path d="M 1399.0,1241.0 L 1397.0,1259.0" style="stroke:#010101; fill:none;"/>
	<path d="M 1768.0,1243.0 L 1789.0,1241.0" style="stroke:#010101; fill:none;"/>
	<path d="M 1179.0,1243.0 L 1153.0,1247.08 L 1100.0,1252.33 L 1087.99,1261.39 L 1070.0,1272.0" style="stroke:#010101; fill:none;"/>
	<path d="M 1549.0,1274.0 L 1554.3,1257.0 L 1567.0,1243.0" style="stroke:#010101; fill:none;"/>
	<path d="M 1728.0,1245.0 C 1737.03,1249.39 1750.14,1247.0 1760.0,1247.0" style="stroke:#010101; fill:none;"/>
	<path d="M 1763.0,1245.0 L 1803.0,1247.0" style="stroke:#010101; fill:none;"/>
	<path d="M 1548.0,1247.0 L 1553.0,1256.0" style="stroke:#010101; fill:none;"/>
	<path d="M 1741.0,1248.0 C 1742.44,1256.8 1755.11,1255.25 1762.0,1255.0" style="stroke:#010101; fill:none;"/>
	<path d="M 1787.0,1251.0 L 1794.0,1252.0" style="stroke:#010101; fill:none;"/>
	<path d="M 906.0,1255.0 L 907.0,1267.0" style="stroke:#010101; fill:none;"/>
	<path d="M 1552.0,1273.0 C 1562.76,1272.51 1573.61,1267.47 1584.0,1264.73 C 1601.71,1260.07 1620.69,1256.08 1639.0,1255.23 C 1656.58,1254.43 1676.53,1262.73 1693.0,1268.0" style="stroke:#010101; fill:none;"/>
	<path d="M 1767.0,1256.0 C 1775.33,1260.11 1785.02,1264.79 1794.0,1260.0 L 1777.0,1259.0" style="stroke:#010101; fill:none;"/>
	<path d="M 1757.0,1257.0 C 1774.94,1274.12 1796.5,1270.97 1819.0,1268.0" style="stroke:#010101; fill:none;"/>
	<path d="M 1838.0,1260.0 C 1829.92,1262.27 1818.74,1265.13 1811.0,1261.0 L 1829.0,1258.0" style="stroke:#010101; fill:none;"/>
	<path d="M 1764.0,1259.0 L 1775.0,1260.0" style="stroke:#010101; fill:none;"/>
	<path d="M 1794.0,1260.0 L 1809.0,1262.0" style="stroke:#010101; fill:none;"/>
	<path d="M 1217.0,1265.0 C 1239.72,1281.18 1269.53,1282.99 1296.0,1278.0" style="stroke:#010101; fill:none;"/>
	<path d="M 1334.0,1265.0 L 1353.0,1268.0" style="stroke:#010101; fill:none;"/>
	<path d="M 1242.0,1268.0 L 1259.0,1275.0" style="stroke:#010101; fill:none;"/>
	<path d="M 1628.0,1272.0 L 1628.0,1270.0 L 1627.0,1271.0 L 1628.0,1272.0 C 1646.43,1267.07 1662.65,1272.27 1681.0,1275.0 L 1680.0,1273.0" style="stroke:#010101; fill:none;"/>
	<path d="M 1844.0,1270.0 L 1830.0,1287.0" style="stroke:#010101; fill:none;"/>
	<path d="M 1629.0,1273.0 L 1627.36,1282.19 L 1616.0,1281.17 L 1586.0,1279.0 C 1594.42,1272.37 1616.31,1271.84 1627.0,1271.0" style="stroke:#010101; fill:none;"/>
	<path d="M 1641.0,1271.0 L 1636.0,1275.0" style="stroke:#010101; fill:none;"/>
	<path d="M 1821.0,1271.0 L 1821.0,1275.0" style="stroke:#010101; fill:none;"/>
	<path d="M 1322.0,1273.0 L 1333.0,1272.0" style="stroke:#010101; fill:none;"/>
	<path d="M 1655.0,1272.0 C 1639.97,1295.21 1706.03,1288.56 1681.0,1276.0" style="stroke:#010101; fill:none;"/>
	<path d="M 1640.0,1274.0 C 1642.81,1273.68 1643.07,1274.17 1643.0,1277.0" style="stroke:#010101; fill:none;"/>
	<path d="M 1652.0,1278.0 L 1650.0,1273.0 L 1652.0,1275.0" style="stroke:#010101; fill:none;"/>
	<path d="M 1682.0,1274.0 L 1687.0,1275.0" style="stroke:#010101; fill:none;"/>
	<path d="M 1822.0,1274.0 C 1821.68,1279.79 1819.29,1283.51 1814.0,1286.0" style="stroke:#010101; fill:none;"/>
	<path d="M 1690.0,1275.0 L 1693.0,1275.0" style="stroke:#010101; fill:none;"/>
	<path d="M 1818.0,1275.0 L 1821.0,1275.0" style="stroke:#010101; fill:none;"/>
	<path d="M 1823.0,1275.0 L 1828.0,1275.0" style="stroke:#010101; fill:none;"/>
	<path d="M 1545.0,1276.0 L 1543.0,1295.0" style="stroke:#010101; fill:none;"/>
	<path d="M 1695.0,1276.0 L 1697.0,1276.0" style="stroke:#010101; fill:none;"/>
	<path d="M 1699.0,1277.0 L 1704.0,1278.0" style="stroke:#010101; fill:none;"/>
	<path d="M 1773.0,1277.0 C 1783.91,1281.09 1795.68,1279.89 1807.0,1279.0" style="stroke:#010101; fill:none;"/>
	<path d="M 1691.0,1279.0 L 1689.0,1282.0" style="stroke:#010101; fill:none;"/>
	<path d="M 1691.0,1282.0 L 1697.0,1281.0 L 1697.0,1284.0" style="stroke:#010101; fill:none;"/>
	<path d="M 1294.0,1283.0 L 1317.0,1281.0" style="stroke:#010101; fill:none;"/>
	<path d="M 1698.0,1298.0 L 1707.6,1283.13 L 1720.0,1286.85 L 1753.0,1302.0" style="stroke:#010101; fill:none;"/>
	<path d="M 1771.0,1283.0 L 1808.0,1282.0" style="stroke:#010101; fill:none;"/>
	<path d="M 1630.0,1284.0 C 1634.92,1289.47 1644.21,1293.04 1651.0,1295.8 C 1673.91,1305.1 1693.84,1304.51 1718.0,1302.17 C 1727.29,1301.27 1737.71,1303.08 1746.0,1298.0" style="stroke:#010101; fill:none;"/>
	<path d="M 1701.0,1284.0 L 1701.0,1285.0" style="stroke:#010101; fill:none;"/>
	<path d="M 1710.0,1285.0 L 1711.0,1287.0" style="stroke:#010101; fill:none;"/>
	<path d="M 1839.0,1286.0 C 1821.74,1302.89 1802.86,1296.65 1782.0,1291.0" style="stroke:#010101; fill:none;"/>
	<path d="M 1559.0,1287.0 L 1585.0,1288.0" style="stroke:#010101; fill:none;"/>
	<path d="M 1713.0,1290.0 L 1720.0,1294.0" style="stroke:#010101; fill:none;"/>
	<path d="M 1839.0,1289.0 L 1831.0,1300.0" style="stroke:#010101; fill:none;"/>
	<path d="M 1803.0,1294.0 L 1816.0,1292.0" style="stroke:#010101; fill:none;"/>
	<path d="M 1724.0,1294.0 L 1726.0,1296.0" style="stroke:#010101; fill:none;"/>
	<path d="M 1609.0,1295.0 C 1629.85,1314.9 1658.2,1319.6 1685.0,1326.0" style="stroke:#010101; fill:none;"/>
	<path d="M 1588.0,1301.0 L 1599.0,1303.0" style="stroke:#010101; fill:none;"/>
	<path d="M 1808.0,1301.0 L 1819.0,1311.0 L 1825.0,1307.0 L 1815.0,1301.0" style="stroke:#010101; fill:none;"/>
	<path d="M 1836.0,1302.0 C 1828.8,1307.5 1828.69,1310.34 1825.0,1318.0" style="stroke:#010101; fill:none;"/>
	<path d="M 1788.0,1306.0 C 1796.54,1310.67 1808.7,1314.96 1818.0,1310.0" style="stroke:#010101; fill:none;"/>
	<path d="M 1825.0,1307.0 L 1827.0,1309.0" style="stroke:#010101; fill:none;"/>
	<path d="M 1760.0,1308.0 L 1767.0,1318.0" style="stroke:#010101; fill:none;"/>
	<path d="M 1563.0,1320.0 C 1573.92,1328.82 1590.7,1332.53 1604.0,1336.42 C 1632.03,1344.62 1660.56,1352.66 1690.0,1352.0" style="stroke:#010101; fill:none;"/>
	<path d="M 1765.0,1321.0 L 1769.0,1328.0 C 1759.91,1337.01 1749.2,1344.02 1737.0,1348.0" style="stroke:#010101; fill:none;"/>
	<path d="M 1857.0,1325.0 L 1857.0,1326.0" style="stroke:#010101; fill:none;"/>
	<path d="M 1692.0,1329.0 C 1709.37,1333.88 1725.41,1332.4 1742.0,1326.0" style="stroke:#010101; fill:none;"/>
	<path d="M 1532.0,1327.0 C 1529.48,1337.61 1523.78,1347.72 1520.05,1358.0 C 1513.27,1376.74 1507.86,1398.0 1507.0,1418.0" style="stroke:#010101; fill:none;"/>
	<path d="M 1770.0,1328.0 L 1786.0,1336.0" style="stroke:#010101; fill:none;"/>
	<path d="M 1790.0,1338.0 L 1824.0,1328.0" style="stroke:#010101; fill:none;"/>
	<path d="M 1771.0,1335.0 L 1792.0,1356.0" style="stroke:#010101; fill:none;"/>
	<path d="M 1768.0,1340.0 L 1756.0,1356.0" style="stroke:#010101; fill:none;"/>
	<path d="M 1785.0,1343.0 L 1803.0,1344.0" style="stroke:#010101; fill:none;"/>
	<path d="M 1770.0,1344.0 C 1771.59,1359.88 1788.35,1357.97 1798.99,1364.97 C 1805.57,1369.3 1806.65,1376.11 1809.0,1383.0" style="stroke:#010101; fill:none;"/>
	<path d="M 1597.0,1345.0 C 1623.7,1358.99 1655.77,1361.51 1685.0,1356.0" style="stroke:#010101; fill:none;"/>
	<path d="M 1820.0,1350.0 L 1830.0,1356.0" style="stroke:#010101; fill:none;"/>
	<path d="M 1693.0,1353.0 C 1703.94,1356.07 1713.26,1353.85 1724.0,1351.0" style="stroke:#010101; fill:none;"/>
	<path d="M 1803.0,1355.0 C 1809.42,1361.41 1814.65,1366.24 1824.0,1367.0" style="stroke:#010101; fill:none;"/>
	<path d="M 1615.0,1360.0 C 1658.61,1380.74 1710.44,1373.79 1756.0,1362.0" style="stroke:#010101; fill:none;"/>
	<path d="M 1777.0,1361.0 C 1796.31,1378.78 1808.71,1396.32 1816.0,1422.0" style="stroke:#010101; fill:none;"/>
	<path d="M 1804.0,1364.0 C 1812.34,1370.55 1822.75,1377.05 1833.0,1380.0" style="stroke:#010101; fill:none;"/>
	<path d="M 802.0,1377.0 L 830.0,1391.0" style="stroke:#010101; fill:none;"/>
	<path d="M 983.0,1383.0 L 976.0,1397.0" style="stroke:#010101; fill:none;"/>
	<path d="M 877.0,1384.0 C 869.152,1446.1 855.055,1508.35 860.0,1571.0" style="stroke:#010101; fill:none;"/>
	<path d="M 1333.0,1397.0 C 1326.98,1398.56 1318.58,1403.02 1313.0,1400.0 C 1324.05,1393.72 1338.51,1387.45 1351.0,1392.0" style="stroke:#010101; fill:none;"/>
	<path d="M 1814.0,1392.0 L 1819.0,1405.0" style="stroke:#010101; fill:none;"/>
	<path d="M 1315.0,1403.0 L 1313.0,1400.0" style="stroke:#010101; fill:none;"/>
	<path d="M 1313.0,1404.0 C 1310.13,1404.27 1309.28,1403.49 1311.0,1401.0" style="stroke:#010101; fill:none;"/>
	<path d="M 1271.0,1423.0 L 1308.0,1403.0" style="stroke:#010101; fill:none;"/>
	<path d="M 935.0,1405.0 C 928.667,1419.72 927.467,1437.35 924.54,1453.0 C 918.595,1484.79 914.0,1516.61 914.0,1549.0 C 914.0,1561.49 913.091,1574.78 916.0,1587.0" style="stroke:#010101; fill:none;"/>
	<path d="M 1310.0,1406.0 C 1291.74,1421.95 1281.88,1437.33 1285.0,1462.0" style="stroke:#010101; fill:none;"/>
	<path d="M 1364.0,1409.0 L 1365.0,1415.0" style="stroke:#010101; fill:none;"/>
	<path d="M 1366.0,1418.0 L 1366.0,1423.0" style="stroke:#010101; fill:none;"/>
	<path d="M 1506.0,1420.0 L 1506.0,1422.0" style="stroke:#010101; fill:none;"/>
	<path d="M 1901.0,1422.0 C 1895.13,1467.43 1870.98,1509.94 1849.04,1549.0 C 1841.49,1562.45 1836.41,1577.13 1827.66,1590.0 C 1815.55,1607.81 1797.26,1629.96 1774.0,1632.0" style="stroke:#010101; fill:none;"/>
	<path d="M 1506.0,1424.0 L 1506.0,1425.0" style="stroke:#010101; fill:none;"/>
	<path d="M 1366.0,1425.0 L 1366.0,1426.0" style="stroke:#010101; fill:none;"/>
	<path d="M 1889.0,1430.0 C 1892.79,1427.51 1895.54,1425.43 1900.0,1427.0" style="stroke:#010101; fill:none;"/>
	<path d="M 1194.0,1457.0 L 1263.0,1427.0" style="stroke:#010101; fill:none;"/>
	<path d="M 1512.0,1447.0 C 1512.0,1473.49 1509.47,1492.53 1490.0,1512.0" style="stroke:#010101; fill:none;"/>
	<path d="M 1539.0,1447.0 C 1547.81,1462.09 1556.2,1491.73 1549.87,1509.0 C 1544.6,1523.36 1525.46,1533.83 1511.0,1536.0" style="stroke:#010101; fill:none;"/>
	<path d="M 1881.0,1450.0 L 1884.0,1461.0" style="stroke:#010101; fill:none;"/>
	<path d="M 1547.0,1454.0 C 1559.63,1475.42 1576.38,1497.62 1585.0,1521.0" style="stroke:#010101; fill:none;"/>
	<path d="M 956.0,1458.0 L 953.0,1467.0" style="stroke:#010101; fill:none;"/>
	<path d="M 1865.0,1464.0 L 1866.0,1466.0" style="stroke:#010101; fill:none;"/>
	<path d="M 1867.0,1468.0 L 1868.0,1469.0" style="stroke:#010101; fill:none;"/>
	<path d="M 1862.0,1469.0 C 1855.18,1474.61 1846.33,1485.1 1837.01,1486.14 C 1833.42,1486.54 1830.6,1483.32 1826.99,1483.06 C 1822.15,1482.72 1817.98,1485.44 1814.0,1482.0" style="stroke:#010101; fill:none;"/>
	<path d="M 1874.0,1473.0 L 1874.0,1474.0" style="stroke:#010101; fill:none;"/>
	<path d="M 1840.0,1475.0 L 1842.0,1484.0" style="stroke:#010101; fill:none;"/>
	<path d="M 1872.0,1477.0 L 1872.0,1478.0" style="stroke:#010101; fill:none;"/>
	<path d="M 1871.0,1480.0 C 1863.41,1499.56 1851.69,1517.68 1840.0,1535.0 C 1833.29,1524.83 1839.39,1513.26 1845.0,1504.0" style="stroke:#010101; fill:none;"/>
	<path d="M 1813.0,1485.0 C 1800.54,1523.29 1791.1,1562.44 1779.56,1601.0 C 1775.42,1614.83 1769.07,1628.07 1765.16,1642.0 C 1747.69,1704.11 1730.97,1768.97 1685.0,1817.0" style="stroke:#010101; fill:none;"/>
	<path d="M 1304.0,1486.0 C 1315.44,1494.96 1330.38,1491.21 1343.0,1496.68 C 1356.74,1502.64 1365.63,1517.32 1374.0,1529.0" style="stroke:#010101; fill:none;"/>
	<path d="M 1365.0,1490.0 L 1365.0,1491.0" style="stroke:#010101; fill:none;"/>
	<path d="M 1856.0,1491.0 L 1848.0,1499.0" style="stroke:#010101; fill:none;"/>
	<path d="M 1367.0,1495.0 L 1367.0,1496.0" style="stroke:#010101; fill:none;"/>
	<path d="M 1368.0,1499.0 L 1369.0,1500.0" style="stroke:#010101; fill:none;"/>
	<path d="M 1815.0,1499.0 C 1817.77,1517.85 1821.58,1530.61 1804.0,1544.0" style="stroke:#010101; fill:none;"/>
	<path d="M 1847.0,1501.0 L 1846.0,1502.0" style="stroke:#010101; fill:none;"/>
	<path d="M 1370.0,1502.0 C 1376.76,1513.47 1384.19,1522.42 1396.0,1529.0" style="stroke:#010101; fill:none;"/>
	<path d="M 1487.0,1515.0 L 1480.0,1520.0" style="stroke:#010101; fill:none;"/>
	<path d="M 1478.0,1521.0 L 1475.0,1523.0" style="stroke:#010101; fill:none;"/>
	<path d="M 1473.0,1524.0 L 1472.0,1525.0" style="stroke:#010101; fill:none;"/>
	<path d="M 1470.0,1526.0 L 1463.0,1530.0" style="stroke:#010101; fill:none;"/>
	<path d="M 1398.0,1530.0 L 1402.0,1532.0" style="stroke:#010101; fill:none;"/>
	<path d="M 1456.0,1533.0 L 1461.0,1531.0" style="stroke:#010101; fill:none;"/>
	<path d="M 1372.0,1533.0 C 1385.45,1544.44 1411.1,1555.7 1429.0,1556.14 C 1442.7,1556.47 1458.75,1551.43 1472.0,1548.0" style="stroke:#010101; fill:none;"/>
	<path d="M 1475.0,1545.0 C 1485.99,1539.15 1496.15,1533.11 1509.0,1533.0" style="stroke:#010101; fill:none;"/>
	<path d="M 1131.0,1534.0 L 1151.0,1542.0" style="stroke:#010101; fill:none;"/>
	<path d="M 1454.0,1534.0 L 1452.0,1535.0" style="stroke:#010101; fill:none;"/>
	<path d="M 1449.0,1536.0 L 1446.0,1537.0" style="stroke:#010101; fill:none;"/>
	<path d="M 1836.0,1542.0 L 1834.0,1550.0" style="stroke:#010101; fill:none;"/>
	<path d="M 1154.0,1548.0 C 1160.73,1551.58 1166.48,1554.39 1174.0,1556.0 C 1178.15,1556.89 1185.41,1557.41 1188.44,1560.7 C 1192.78,1565.44 1183.11,1576.72 1184.74,1582.96 C 1186.03,1587.9 1194.24,1590.39 1198.0,1593.24 C 1207.38,1600.33 1214.0,1610.98 1224.0,1617.07 C 1229.08,1620.16 1233.47,1622.88 1238.0,1618.0" style="stroke:#010101; fill:none;"/>
	<path d="M 1832.0,1552.0 L 1830.0,1554.0" style="stroke:#010101; fill:none;"/>
	<path d="M 1197.0,1555.0 L 1272.0,1583.66 L 1303.0,1591.88 L 1327.0,1607.0" style="stroke:#010101; fill:none;"/>
	<path d="M 1165.0,1556.0 C 1165.29,1568.54 1172.84,1575.62 1182.0,1583.0" style="stroke:#010101; fill:none;"/>
	<path d="M 1192.0,1563.0 L 1225.0,1585.54 L 1247.0,1597.0 L 1240.0,1613.0" style="stroke:#010101; fill:none;"/>
	<path d="M 861.0,1578.0 L 861.0,1580.0" style="stroke:#010101; fill:none;"/>
	<path d="M 862.0,1582.0 L 863.0,1588.0" style="stroke:#010101; fill:none;"/>
	<path d="M 1219.0,1583.0 L 1214.0,1603.0" style="stroke:#010101; fill:none;"/>
	<path d="M 864.0,1590.0 L 864.0,1593.0" style="stroke:#010101; fill:none;"/>
	<path d="M 864.0,1596.0 C 868.597,1614.66 869.367,1634.18 874.286,1653.0 C 882.584,1684.75 896.585,1716.67 911.248,1746.0 C 933.273,1790.05 962.259,1827.42 990.989,1867.0 C 1023.95,1912.41 1055.51,1959.22 1085.0,2007.0" style="stroke:#010101; fill:none;"/>
	<path d="M 1248.0,1597.0 C 1273.64,1613.9 1308.6,1619.46 1337.0,1630.82 C 1346.83,1634.75 1360.16,1644.13 1371.0,1641.0 L 1364.0,1653.0" style="stroke:#010101; fill:none;"/>
	<path d="M 1333.0,1608.0 C 1351.25,1611.31 1368.84,1616.9 1387.0,1620.55 C 1408.31,1624.84 1430.5,1626.48 1452.0,1629.7 C 1480.33,1633.95 1504.98,1633.15 1531.0,1647.0" style="stroke:#010101; fill:none;"/>
	<path d="M 1282.0,1611.0 C 1276.94,1618.11 1263.87,1641.73 1269.77,1650.49 C 1275.76,1659.37 1292.35,1663.72 1301.0,1670.0 L 1303.0,1665.0" style="stroke:#010101; fill:none;"/>
	<path d="M 1183.0,1615.0 C 1189.56,1625.32 1199.51,1633.25 1207.96,1642.0 C 1229.63,1664.43 1257.18,1690.0 1287.0,1701.0" style="stroke:#010101; fill:none;"/>
	<path d="M 1235.0,1622.0 L 1268.0,1650.0" style="stroke:#010101; fill:none;"/>
	<path d="M 1318.0,1626.0 L 1304.0,1660.0" style="stroke:#010101; fill:none;"/>
	<path d="M 1364.0,1642.0 L 1365.0,1647.0" style="stroke:#010101; fill:none;"/>
	<path d="M 1372.0,1642.0 C 1383.76,1643.52 1413.37,1638.72 1417.0,1651.0 L 1417.0,1646.0" style="stroke:#010101; fill:none;"/>
	<path d="M 1420.0,1645.0 C 1425.99,1645.0 1443.07,1643.29 1447.4,1647.6 C 1449.35,1649.55 1449.24,1653.47 1450.0,1656.0 L 1457.0,1651.0" style="stroke:#010101; fill:none;"/>
	<path d="M 1449.0,1646.0 C 1476.42,1649.47 1508.72,1645.67 1535.0,1654.0" style="stroke:#010101; fill:none;"/>
	<path d="M 1479.0,1651.0 L 1471.0,1682.0" style="stroke:#010101; fill:none;"/>
	<path d="M 1498.0,1651.0 C 1498.0,1662.83 1495.25,1672.03 1491.0,1683.0" style="stroke:#010101; fill:none;"/>
	<path d="M 941.0,1652.0 C 941.0,1718.14 961.105,1790.17 1003.0,1843.0" style="stroke:#010101; fill:none;"/>
	<path d="M 1416.0,1652.0 L 1415.0,1658.0" style="stroke:#010101; fill:none;"/>
	<path d="M 1517.0,1652.0 C 1515.91,1660.71 1509.81,1668.87 1505.0,1676.0 C 1512.78,1677.5 1521.96,1669.9 1529.0,1666.87 C 1546.19,1659.49 1561.95,1652.01 1581.0,1652.0" style="stroke:#010101; fill:none;"/>
	<path d="M 1540.0,1652.0 L 1549.0,1657.0" style="stroke:#010101; fill:none;"/>
	<path d="M 1449.0,1657.0 C 1447.61,1667.74 1446.88,1690.98 1437.86,1698.2 C 1428.43,1705.73 1417.37,1695.32 1408.0,1696.71 C 1404.67,1697.21 1402.53,1700.26 1399.0,1700.49 C 1382.16,1701.55 1367.97,1693.46 1353.0,1688.34 C 1336.09,1682.56 1317.91,1677.99 1302.0,1670.0" style="stroke:#010101; fill:none;"/>
	<path d="M 1362.0,1660.0 L 1355.0,1683.0" style="stroke:#010101; fill:none;"/>
	<path d="M 1414.0,1661.0 L 1408.0,1694.0" style="stroke:#010101; fill:none;"/>
	<path d="M 1505.0,1677.0 C 1500.03,1681.86 1473.47,1698.17 1470.0,1687.0" style="stroke:#010101; fill:none;"/>
	<path d="M 1470.0,1691.0 C 1461.19,1701.57 1454.27,1701.99 1442.0,1698.0" style="stroke:#010101; fill:none;"/>
	<path d="M 1301.0,1711.0 C 1330.24,1730.28 1374.38,1736.7 1408.0,1728.0" style="stroke:#010101; fill:none;"/>
	<path d="M 1429.0,1725.0 L 1461.0,1713.0" style="stroke:#010101; fill:none;"/>
	<path d="M 1238.0,1765.0 L 1275.0,1771.0" style="stroke:#010101; fill:none;"/>
	<path d="M 1285.0,1772.0 C 1317.52,1777.6 1351.4,1795.98 1381.0,1810.0" style="stroke:#010101; fill:none;"/>
	<path d="M 1046.0,1784.0 C 1056.95,1812.22 1075.4,1841.02 1095.0,1864.0" style="stroke:#010101; fill:none;"/>
	<path d="M 1605.0,1824.0 L 1658.0,1785.0" style="stroke:#010101; fill:none;"/>
	<path d="M 1108.0,1799.0 L 1108.0,1801.0" style="stroke:#010101; fill:none;"/>
	<path d="M 1683.0,1820.0 L 1679.0,1824.0" style="stroke:#010101; fill:none;"/>
	<path d="M 1637.0,1826.0 L 1638.0,1826.0" style="stroke:#010101; fill:none;"/>
	<path d="M 1635.0,1827.0 C 1621.34,1834.97 1605.28,1842.82 1590.0,1847.0" style="stroke:#010101; fill:none;"/>
	<path d="M 1582.0,1837.0 C 1537.08,1878.38 1491.83,1917.98 1439.0,1949.01 C 1418.09,1961.29 1395.93,1975.69 1372.0,1980.79 C 1353.15,1984.8 1334.91,1981.29 1316.0,1980.0" style="stroke:#010101; fill:none;"/>
	<path d="M 1664.0,1840.0 L 1663.0,1841.0" style="stroke:#010101; fill:none;"/>
	<path d="M 1661.0,1843.0 L 1555.0,1946.0" style="stroke:#010101; fill:none;"/>
	<path d="M 1045.0,1885.0 L 1140.0,1975.0" style="stroke:#010101; fill:none;"/>
	<path d="M 1130.0,1908.0 C 1135.23,1921.51 1154.69,1929.34 1167.0,1935.17 C 1200.96,1951.24 1238.31,1969.21 1276.0,1974.0" style="stroke:#010101; fill:none;"/>
	<path d="M 1278.0,1975.0 L 1294.0,1978.0" style="stroke:#010101; fill:none;"/>
	<path d="M 1453.0,2001.0 L 1510.0,1975.0" style="stroke:#010101; fill:none;"/>
	<path d="M 1142.0,1977.0 L 1150.0,1984.0" style="stroke:#010101; fill:none;"/>
	<path d="M 1152.0,1985.0 L 1154.0,1987.0" style="stroke:#010101; fill:none;"/>
	<path d="M 1156.0,1989.0 L 1157.0,1990.0" style="stroke:#010101; fill:none;"/>
	<path d="M 1311.0,2067.0 L 1370.0,2032.31 L 1429.0,2010.0" style="stroke:#010101; fill:none;"/>
	<path d="M 1268.0,2082.0 L 1293.0,2075.0" style="stroke:#010101; fill:none;"/>
</svg>
