<?xml version="1.0" ?>
<svg baseProfile="full" height="2893" version="1.1" width="2759" xmlns="http://www.w3.org/2000/svg" xmlns:ev="http://www.w3.org/2001/xml-events" xmlns:xlink="http://www.w3.org/1999/xlink">
	<defs/>
	<path d="M 1584.0,1014.0 C 1581.63,1031.58 1572.16,1050.26 1560.0,1063.0 L 1562.0,1052.0" style="stroke:#010101; fill:none;"/>
	<path d="M 1606.0,1018.0 L 1595.87,1034.1 L 1580.0,1036.0" style="stroke:#010101; fill:none;"/>
	<path d="M 1598.0,1038.0 C 1613.08,1036.77 1628.11,1029.47 1641.0,1022.0" style="stroke:#010101; fill:none;"/>
	<path d="M 1643.0,1024.0 L 1609.0,1044.0 L 1612.0,1044.0" style="stroke:#010101; fill:none;"/>
	<path d="M 1600.0,1034.0 L 1608.0,1033.0" style="stroke:#010101; fill:none;"/>
	<path d="M 1561.0,1036.0 L 1537.0,1079.0 L 1530.0,1083.0" style="stroke:#010101; fill:none;"/>
	<path d="M 1571.0,1037.0 L 1576.0,1038.0" style="stroke:#010101; fill:none;"/>
	<path d="M 1595.0,1036.0 C 1589.54,1049.37 1599.56,1044.27 1609.0,1043.0" style="stroke:#010101; fill:none;"/>
	<path d="M 1654.0,1038.0 C 1653.39,1049.83 1644.54,1058.25 1634.0,1062.0 L 1637.0,1061.0" style="stroke:#010101; fill:none;"/>
	<path d="M 1635.0,1041.0 C 1617.13,1056.46 1599.35,1066.99 1576.0,1070.0" style="stroke:#010101; fill:none;"/>
	<path d="M 1591.0,1044.0 C 1580.23,1055.25 1572.36,1067.86 1563.12,1080.09 C 1560.48,1083.59 1554.97,1091.93 1551.0,1086.0 L 1537.0,1091.0" style="stroke:#010101; fill:none;"/>
	<path d="M 1662.0,1044.0 C 1658.51,1055.85 1646.48,1068.59 1635.0,1073.0" style="stroke:#010101; fill:none;"/>
	<path d="M 1611.0,1045.0 L 1585.0,1068.0" style="stroke:#010101; fill:none;"/>
	<path d="M 1537.0,1046.0 L 1504.0,1071.67 L 1483.0,1082.0" style="stroke:#010101; fill:none;"/>
	<path d="M 1576.0,1046.0 L 1586.0,1048.0" style="stroke:#010101; fill:none;"/>
	<path d="M 1547.0,1049.0 C 1537.76,1061.46 1526.68,1070.81 1514.0,1079.58 C 1508.09,1083.67 1500.02,1086.26 1495.55,1092.09 C 1485.51,1105.18 1479.72,1130.38 1461.0,1134.0" style="stroke:#010101; fill:none;"/>
	<path d="M 1640.0,1049.0 C 1627.06,1057.8 1614.15,1068.26 1600.0,1075.05 C 1595.82,1077.06 1591.16,1077.03 1587.0,1079.34 C 1571.7,1087.86 1558.23,1098.0 1540.0,1098.0" style="stroke:#010101; fill:none;"/>
	<path d="M 1645.0,1049.0 L 1636.0,1060.0" style="stroke:#010101; fill:none;"/>
	<path d="M 1386.0,1051.0 C 1386.09,1081.92 1397.96,1118.79 1414.0,1145.0" style="stroke:#010101; fill:none;"/>
	<path d="M 1571.0,1052.0 L 1569.0,1053.0" style="stroke:#010101; fill:none;"/>
	<path d="M 1533.0,1054.0 C 1525.26,1070.56 1496.17,1084.45 1479.0,1088.0" style="stroke:#010101; fill:none;"/>
	<path d="M 1570.0,1054.0 C 1566.07,1065.7 1558.61,1076.41 1551.0,1086.0" style="stroke:#010101; fill:none;"/>
	<path d="M 1531.0,1055.0 L 1531.0,1056.0" style="stroke:#010101; fill:none;"/>
	<path d="M 1683.0,1055.0 C 1676.22,1061.77 1669.04,1067.77 1660.0,1071.32 C 1652.73,1074.17 1641.06,1076.12 1636.0,1082.0 L 1646.0,1079.0" style="stroke:#010101; fill:none;"/>
	<path d="M 1437.0,1124.0 C 1441.85,1131.23 1453.06,1116.17 1455.91,1112.0 C 1462.59,1102.2 1463.54,1086.86 1470.59,1078.28 C 1473.49,1074.75 1479.93,1072.82 1484.0,1070.92 C 1493.7,1066.39 1503.12,1061.11 1513.0,1057.0" style="stroke:#010101; fill:none;"/>
	<path d="M 1664.0,1058.0 C 1657.68,1063.09 1649.55,1071.06 1641.0,1071.0" style="stroke:#010101; fill:none;"/>
	<path d="M 1673.0,1059.0 L 1659.0,1070.0" style="stroke:#010101; fill:none;"/>
	<path d="M 1693.0,1061.0 L 1690.0,1083.0" style="stroke:#010101; fill:none;"/>
	<path d="M 1629.0,1066.0 L 1627.0,1069.0 L 1634.0,1062.0" style="stroke:#010101; fill:none;"/>
	<path d="M 1610.0,1080.0 L 1646.0,1062.0" style="stroke:#010101; fill:none;"/>
	<path d="M 1559.0,1063.0 L 1542.0,1090.0" style="stroke:#010101; fill:none;"/>
	<path d="M 1635.0,1064.0 L 1631.0,1067.0" style="stroke:#010101; fill:none;"/>
	<path d="M 1626.0,1070.0 L 1627.0,1067.0" style="stroke:#010101; fill:none;"/>
	<path d="M 1602.0,1075.0 L 1624.0,1068.0" style="stroke:#010101; fill:none;"/>
	<path d="M 1625.0,1070.0 L 1613.0,1076.0" style="stroke:#010101; fill:none;"/>
	<path d="M 1656.0,1072.0 L 1659.0,1070.0" style="stroke:#010101; fill:none;"/>
	<path d="M 1596.0,1072.0 L 1593.0,1075.0" style="stroke:#010101; fill:none;"/>
	<path d="M 1670.0,1072.0 C 1657.44,1082.98 1642.48,1094.69 1625.0,1095.41 C 1619.77,1095.62 1615.05,1093.33 1610.0,1093.14 C 1603.67,1092.9 1597.26,1101.05 1593.0,1093.0 C 1579.37,1098.68 1562.05,1107.77 1547.0,1109.0" style="stroke:#010101; fill:none;"/>
	<path d="M 1542.0,1077.0 L 1551.0,1073.0" style="stroke:#010101; fill:none;"/>
	<path d="M 1674.0,1074.0 L 1677.0,1077.0 L 1681.0,1074.0" style="stroke:#010101; fill:none;"/>
	<path d="M 1537.0,1075.0 L 1535.0,1077.0" style="stroke:#010101; fill:none;"/>
	<path d="M 1522.0,1076.0 C 1520.85,1083.01 1517.19,1087.06 1513.73,1093.0 C 1507.21,1104.17 1501.05,1119.27 1488.0,1123.84 C 1482.92,1125.62 1479.44,1129.09 1474.0,1127.0" style="stroke:#010101; fill:none;"/>
	<path d="M 1522.0,1084.0 L 1531.0,1076.0" style="stroke:#010101; fill:none;"/>
	<path d="M 1676.0,1076.0 L 1673.0,1078.0" style="stroke:#010101; fill:none;"/>
	<path d="M 1697.0,1077.0 L 1697.0,1094.0" style="stroke:#010101; fill:none;"/>
	<path d="M 1568.0,1078.0 L 1584.0,1081.0" style="stroke:#010101; fill:none;"/>
	<path d="M 1677.0,1078.0 C 1678.4,1082.75 1677.89,1085.98 1675.0,1090.0" style="stroke:#010101; fill:none;"/>
	<path d="M 1537.0,1079.0 L 1524.0,1103.0 C 1529.98,1102.73 1533.98,1097.02 1538.0,1093.0" style="stroke:#010101; fill:none;"/>
	<path d="M 1696.0,1080.0 C 1691.09,1100.67 1668.3,1106.55 1650.0,1110.0" style="stroke:#010101; fill:none;"/>
	<path d="M 1515.0,1082.0 C 1512.9,1086.32 1510.86,1089.42 1513.0,1094.0" style="stroke:#010101; fill:none;"/>
	<path d="M 1634.0,1082.0 L 1637.0,1085.0" style="stroke:#010101; fill:none;"/>
	<path d="M 1455.0,1083.0 L 1444.0,1119.0" style="stroke:#010101; fill:none;"/>
	<path d="M 1601.0,1083.0 C 1596.73,1086.26 1588.58,1089.03 1589.0,1095.0" style="stroke:#010101; fill:none;"/>
	<path d="M 1609.0,1083.0 L 1594.0,1092.0" style="stroke:#010101; fill:none;"/>
	<path d="M 1633.0,1084.0 L 1629.0,1086.0 L 1633.0,1084.0" style="stroke:#010101; fill:none;"/>
	<path d="M 1619.0,1088.0 L 1628.0,1087.0" style="stroke:#010101; fill:none;"/>
	<path d="M 1628.0,1088.0 L 1618.0,1092.0" style="stroke:#010101; fill:none;"/>
	<path d="M 1635.0,1103.0 L 1665.0,1088.0" style="stroke:#010101; fill:none;"/>
	<path d="M 1474.0,1089.0 C 1471.06,1101.7 1461.78,1129.72 1447.0,1132.0" style="stroke:#010101; fill:none;"/>
	<path d="M 1611.0,1092.0 L 1615.0,1089.0" style="stroke:#010101; fill:none;"/>
	<path d="M 1667.0,1090.0 C 1657.64,1098.1 1646.76,1105.0 1635.0,1109.0" style="stroke:#010101; fill:none;"/>
	<path d="M 1511.0,1092.0 L 1489.0,1123.0" style="stroke:#010101; fill:none;"/>
	<path d="M 1585.0,1093.0 L 1587.0,1093.0" style="stroke:#010101; fill:none;"/>
	<path d="M 1703.0,1092.0 C 1696.01,1106.69 1684.28,1119.21 1667.0,1120.0" style="stroke:#010101; fill:none;"/>
	<path d="M 1448.0,1094.0 L 1434.0,1108.0" style="stroke:#010101; fill:none;"/>
	<path d="M 1454.0,1129.0 C 1470.38,1136.98 1475.9,1106.49 1482.79,1098.56 C 1485.09,1095.92 1489.97,1094.76 1493.0,1093.0" style="stroke:#010101; fill:none;"/>
	<path d="M 1680.0,1094.0 L 1668.0,1104.0" style="stroke:#010101; fill:none;"/>
	<path d="M 1584.0,1095.0 L 1585.0,1097.0" style="stroke:#010101; fill:none;"/>
	<path d="M 1581.0,1098.0 L 1583.0,1098.0" style="stroke:#010101; fill:none;"/>
	<path d="M 1476.0,1100.0 L 1481.0,1099.0" style="stroke:#010101; fill:none;"/>
	<path d="M 1488.0,1110.0 L 1505.0,1099.0" style="stroke:#010101; fill:none;"/>
	<path d="M 1517.0,1101.0 C 1519.52,1103.84 1520.51,1104.59 1524.0,1103.0 L 1524.0,1103.0" style="stroke:#010101; fill:none;"/>
	<path d="M 1732.0,1101.0 L 1732.0,1103.0" style="stroke:#010101; fill:none;"/>
	<path d="M 1684.0,1102.0 L 1695.0,1103.0" style="stroke:#010101; fill:none;"/>
	<path d="M 1681.0,1103.0 L 1682.0,1103.0" style="stroke:#010101; fill:none;"/>
	<path d="M 1698.0,1104.0 L 1701.0,1112.0" style="stroke:#010101; fill:none;"/>
	<path d="M 1314.0,1105.0 C 1322.39,1129.73 1323.4,1161.59 1314.0,1186.0" style="stroke:#010101; fill:none;"/>
	<path d="M 1733.0,1105.0 L 1733.0,1106.0" style="stroke:#010101; fill:none;"/>
	<path d="M 1677.0,1106.0 L 1691.0,1109.0" style="stroke:#010101; fill:none;"/>
	<path d="M 1520.0,1107.0 L 1508.0,1119.0" style="stroke:#010101; fill:none;"/>
	<path d="M 1663.0,1120.0 L 1665.0,1120.0" style="stroke:#010101; fill:none;"/>
	<path d="M 1704.0,1122.0 C 1699.97,1132.85 1690.06,1139.51 1681.0,1146.0" style="stroke:#010101; fill:none;"/>
	<path d="M 1588.0,1138.0 L 1631.0,1134.0" style="stroke:#010101; fill:none;"/>
	<path d="M 1440.0,1213.0 C 1445.31,1203.95 1456.49,1195.51 1464.0,1188.0 C 1492.33,1159.67 1521.65,1140.43 1562.0,1135.0" style="stroke:#010101; fill:none;"/>
	<path d="M 1638.0,1135.0 L 1650.0,1142.0" style="stroke:#010101; fill:none;"/>
	<path d="M 1622.0,1136.0 C 1616.13,1142.88 1608.28,1146.83 1601.0,1152.0 C 1581.9,1165.55 1564.33,1176.1 1541.0,1179.92 C 1529.23,1181.85 1509.55,1186.07 1509.0,1169.0 C 1497.27,1173.96 1481.34,1187.66 1474.0,1198.0 L 1476.0,1197.0" style="stroke:#010101; fill:none;"/>
	<path d="M 1573.0,1139.0 L 1574.0,1139.0" style="stroke:#010101; fill:none;"/>
	<path d="M 1584.0,1141.0 L 1580.0,1141.0 L 1586.0,1139.0" style="stroke:#010101; fill:none;"/>
	<path d="M 1569.0,1140.0 L 1571.0,1140.0" style="stroke:#010101; fill:none;"/>
	<path d="M 1569.0,1148.0 C 1566.11,1149.36 1564.71,1149.49 1565.0,1146.0 L 1566.0,1147.0 L 1553.0,1146.0 L 1567.0,1141.0" style="stroke:#010101; fill:none;"/>
	<path d="M 1586.0,1142.0 L 1587.0,1143.0" style="stroke:#010101; fill:none;"/>
	<path d="M 1601.0,1142.0 L 1602.0,1142.0" style="stroke:#010101; fill:none;"/>
	<path d="M 1710.0,1142.0 L 1724.0,1143.0" style="stroke:#010101; fill:none;"/>
	<path d="M 1582.0,1143.0 C 1582.78,1149.18 1583.36,1153.46 1580.0,1159.0" style="stroke:#010101; fill:none;"/>
	<path d="M 1594.0,1143.0 L 1595.0,1143.0" style="stroke:#010101; fill:none;"/>
	<path d="M 1591.0,1144.0 L 1594.0,1146.0" style="stroke:#010101; fill:none;"/>
	<path d="M 1597.0,1144.0 L 1598.0,1144.0" style="stroke:#010101; fill:none;"/>
	<path d="M 1650.0,1145.0 C 1656.32,1150.99 1668.07,1149.47 1676.0,1148.0" style="stroke:#010101; fill:none;"/>
	<path d="M 1566.0,1152.0 C 1557.73,1157.93 1551.85,1165.65 1541.0,1166.81 C 1535.24,1167.43 1526.47,1162.9 1531.59,1156.22 C 1535.73,1150.83 1547.09,1149.51 1553.0,1146.0" style="stroke:#010101; fill:none;"/>
	<path d="M 1577.0,1146.0 L 1578.0,1147.0" style="stroke:#010101; fill:none;"/>
	<path d="M 1691.0,1161.0 C 1686.12,1159.34 1681.47,1157.75 1679.0,1153.0 L 1696.0,1146.0" style="stroke:#010101; fill:none;"/>
	<path d="M 1566.0,1147.0 L 1568.0,1149.0" style="stroke:#010101; fill:none;"/>
	<path d="M 1552.0,1149.0 L 1554.0,1148.0" style="stroke:#010101; fill:none;"/>
	<path d="M 1656.0,1152.0 C 1653.67,1162.88 1647.45,1172.88 1640.0,1181.0" style="stroke:#010101; fill:none;"/>
	<path d="M 1203.0,1153.0 C 1221.12,1158.25 1251.27,1172.08 1256.0,1192.0" style="stroke:#010101; fill:none;"/>
	<path d="M 1417.0,1153.0 C 1421.5,1160.89 1427.54,1166.9 1435.0,1172.0" style="stroke:#010101; fill:none;"/>
	<path d="M 1662.0,1154.0 L 1678.0,1153.0" style="stroke:#010101; fill:none;"/>
	<path d="M 1197.0,1155.0 L 1223.0,1168.0 C 1213.3,1171.75 1194.2,1161.33 1184.0,1159.0" style="stroke:#010101; fill:none;"/>
	<path d="M 1700.0,1155.0 C 1708.95,1158.34 1714.84,1158.09 1724.0,1156.0" style="stroke:#010101; fill:none;"/>
	<path d="M 1522.0,1167.0 L 1517.0,1167.0 C 1518.41,1160.55 1523.74,1157.78 1530.0,1157.0" style="stroke:#010101; fill:none;"/>
	<path d="M 1662.0,1159.0 L 1661.0,1177.0" style="stroke:#010101; fill:none;"/>
	<path d="M 1526.0,1163.0 L 1529.0,1162.0" style="stroke:#010101; fill:none;"/>
	<path d="M 1633.0,1160.0 C 1622.66,1173.4 1607.87,1186.43 1590.0,1188.0" style="stroke:#010101; fill:none;"/>
	<path d="M 1666.0,1162.0 C 1675.69,1175.6 1689.63,1164.84 1703.0,1166.11 C 1709.87,1166.76 1714.42,1172.42 1719.0,1177.0" style="stroke:#010101; fill:none;"/>
	<path d="M 1509.0,1169.0 L 1517.0,1163.0" style="stroke:#010101; fill:none;"/>
	<path d="M 1706.0,1163.0 L 1737.0,1163.0" style="stroke:#010101; fill:none;"/>
	<path d="M 1146.0,1168.0 C 1150.3,1166.72 1160.52,1164.74 1164.0,1168.0" style="stroke:#010101; fill:none;"/>
	<path d="M 1244.0,1166.0 L 1257.0,1182.0" style="stroke:#010101; fill:none;"/>
	<path d="M 1157.0,1167.0 C 1148.52,1173.1 1134.04,1172.26 1124.0,1175.8 C 1118.11,1177.88 1111.04,1180.73 1106.25,1184.84 C 1103.26,1187.41 1102.5,1190.95 1098.95,1193.11 C 1096.1,1194.86 1079.41,1200.03 1079.92,1202.91 C 1080.48,1206.09 1084.99,1204.84 1087.0,1204.37 C 1094.29,1202.64 1101.63,1200.83 1109.0,1199.46 C 1138.91,1193.94 1174.45,1189.0 1204.0,1199.0 C 1197.1,1202.81 1181.38,1204.97 1174.0,1202.0 L 1186.0,1199.0" style="stroke:#010101; fill:none;"/>
	<path d="M 1158.0,1167.0 L 1162.0,1167.0" style="stroke:#010101; fill:none;"/>
	<path d="M 1165.0,1167.0 L 1198.0,1168.0" style="stroke:#010101; fill:none;"/>
	<path d="M 1081.0,1198.0 L 1086.0,1194.0 L 1080.0,1191.0 C 1096.05,1180.78 1119.1,1170.78 1138.0,1168.0" style="stroke:#010101; fill:none;"/>
	<path d="M 1223.0,1168.0 L 1230.0,1171.0" style="stroke:#010101; fill:none;"/>
	<path d="M 1516.0,1168.0 L 1515.0,1170.0" style="stroke:#010101; fill:none;"/>
	<path d="M 1813.0,1176.0 L 1820.0,1168.0 C 1839.78,1220.43 1839.0,1280.96 1839.0,1336.0 C 1839.0,1362.13 1834.63,1391.71 1814.0,1410.0" style="stroke:#010101; fill:none;"/>
	<path d="M 1157.0,1169.0 L 1158.0,1169.0" style="stroke:#010101; fill:none;"/>
	<path d="M 1223.0,1171.0 L 1227.0,1172.0" style="stroke:#010101; fill:none;"/>
	<path d="M 1232.0,1172.0 L 1234.0,1174.0 L 1232.0,1176.0 L 1230.0,1174.0" style="stroke:#010101; fill:none;"/>
	<path d="M 1235.0,1174.0 L 1240.0,1178.0" style="stroke:#010101; fill:none;"/>
	<path d="M 1680.0,1174.0 C 1704.73,1175.06 1730.52,1189.83 1746.0,1209.0" style="stroke:#010101; fill:none;"/>
	<path d="M 1105.0,1189.0 C 1121.57,1180.3 1138.65,1177.58 1157.0,1175.83 C 1166.12,1174.96 1177.1,1173.37 1186.0,1176.0 L 1172.0,1180.0 L 1211.0,1186.08 L 1253.0,1207.0 L 1259.0,1197.0" style="stroke:#010101; fill:none;"/>
	<path d="M 1240.0,1183.0 L 1207.0,1177.0 L 1230.0,1175.0" style="stroke:#010101; fill:none;"/>
	<path d="M 1186.0,1176.0 L 1201.0,1178.0 L 1194.0,1176.0" style="stroke:#010101; fill:none;"/>
	<path d="M 1440.0,1176.0 C 1437.04,1180.83 1434.85,1189.27 1436.01,1195.0 C 1437.13,1200.49 1441.13,1202.92 1440.0,1209.0" style="stroke:#010101; fill:none;"/>
	<path d="M 1201.0,1178.0 L 1207.0,1177.0" style="stroke:#010101; fill:none;"/>
	<path d="M 1234.0,1177.0 L 1235.0,1177.0" style="stroke:#010101; fill:none;"/>
	<path d="M 1148.0,1181.0 L 1146.0,1183.0 L 1172.0,1180.0" style="stroke:#010101; fill:none;"/>
	<path d="M 1127.0,1183.0 L 1144.0,1182.0" style="stroke:#010101; fill:none;"/>
	<path d="M 1477.0,1198.0 C 1487.65,1191.78 1499.58,1183.68 1512.0,1182.0" style="stroke:#010101; fill:none;"/>
	<path d="M 1728.0,1182.0 L 1740.0,1191.0" style="stroke:#010101; fill:none;"/>
	<path d="M 1220.0,1184.0 C 1231.6,1187.92 1241.6,1191.57 1254.0,1190.0" style="stroke:#010101; fill:none;"/>
	<path d="M 1663.0,1185.0 C 1639.84,1207.16 1610.03,1233.06 1580.0,1245.08 C 1566.85,1250.34 1553.4,1250.67 1540.0,1254.0" style="stroke:#010101; fill:none;"/>
	<path d="M 1085.0,1192.0 L 1103.0,1188.0" style="stroke:#010101; fill:none;"/>
	<path d="M 1163.0,1189.0 C 1181.89,1186.66 1212.97,1189.08 1229.0,1200.0" style="stroke:#010101; fill:none;"/>
	<path d="M 1504.0,1201.0 C 1533.28,1204.7 1557.23,1196.43 1585.0,1189.0" style="stroke:#010101; fill:none;"/>
	<path d="M 1097.0,1195.0 L 1121.0,1192.27 L 1158.0,1190.0" style="stroke:#010101; fill:none;"/>
	<path d="M 1425.0,1190.0 L 1435.0,1196.0" style="stroke:#010101; fill:none;"/>
	<path d="M 1079.0,1201.0 L 1049.0,1210.0 L 1080.0,1191.0" style="stroke:#010101; fill:none;"/>
	<path d="M 1630.0,1191.0 C 1623.06,1197.92 1615.09,1206.43 1605.0,1208.0" style="stroke:#010101; fill:none;"/>
	<path d="M 1090.0,1192.0 L 1086.0,1194.0" style="stroke:#010101; fill:none;"/>
	<path d="M 1075.0,1195.0 L 1081.0,1193.0" style="stroke:#010101; fill:none;"/>
	<path d="M 1814.0,1198.0 L 1823.0,1207.0" style="stroke:#010101; fill:none;"/>
	<path d="M 1204.0,1199.0 L 1220.0,1202.0" style="stroke:#010101; fill:none;"/>
	<path d="M 1165.0,1203.0 C 1153.8,1202.81 1140.99,1204.41 1130.0,1206.46 C 1122.87,1207.79 1115.18,1210.72 1109.0,1206.0 C 1121.94,1201.15 1140.21,1200.15 1154.0,1200.0 C 1159.67,1199.94 1167.49,1204.04 1172.0,1202.0 L 1173.0,1202.0 L 1174.0,1202.0" style="stroke:#010101; fill:none;"/>
	<path d="M 1075.0,1201.0 L 1071.0,1207.0 C 1065.96,1205.62 1062.05,1209.56 1058.0,1212.42 C 1048.58,1219.1 1039.69,1226.41 1031.0,1234.0" style="stroke:#010101; fill:none;"/>
	<path d="M 1168.0,1202.0 L 1170.0,1202.0" style="stroke:#010101; fill:none;"/>
	<path d="M 1303.0,1202.0 C 1291.47,1213.53 1279.91,1232.18 1262.0,1233.0" style="stroke:#010101; fill:none;"/>
	<path d="M 1045.0,1229.0 C 1054.4,1219.61 1065.39,1209.76 1078.0,1205.0" style="stroke:#010101; fill:none;"/>
	<path d="M 1080.0,1205.0 L 1076.0,1207.0" style="stroke:#010101; fill:none;"/>
	<path d="M 1074.0,1212.0 L 1109.0,1206.0" style="stroke:#010101; fill:none;"/>
	<path d="M 1147.0,1209.0 L 1168.0,1205.0" style="stroke:#010101; fill:none;"/>
	<path d="M 1095.0,1221.0 L 1149.0,1216.24 L 1197.0,1205.68 L 1246.0,1206.0" style="stroke:#010101; fill:none;"/>
	<path d="M 995.0,1229.0 C 1011.54,1220.3 1032.52,1209.28 1051.0,1206.0" style="stroke:#010101; fill:none;"/>
	<path d="M 1141.0,1206.0 L 1109.0,1215.0" style="stroke:#010101; fill:none;"/>
	<path d="M 1146.0,1206.0 L 1147.0,1206.0" style="stroke:#010101; fill:none;"/>
	<path d="M 1066.0,1207.0 L 1068.0,1209.0" style="stroke:#010101; fill:none;"/>
	<path d="M 1471.0,1210.0 L 1478.0,1207.0" style="stroke:#010101; fill:none;"/>
	<path d="M 1254.0,1208.0 L 1255.0,1208.0" style="stroke:#010101; fill:none;"/>
	<path d="M 1090.0,1215.0 L 1088.0,1217.0 L 1110.0,1209.0" style="stroke:#010101; fill:none;"/>
	<path d="M 1050.0,1212.0 L 1043.0,1214.0 L 1049.0,1210.0" style="stroke:#010101; fill:none;"/>
	<path d="M 1600.0,1210.0 C 1574.86,1226.58 1541.97,1233.46 1513.0,1240.12 C 1501.64,1242.73 1486.57,1247.52 1475.0,1245.0" style="stroke:#010101; fill:none;"/>
	<path d="M 1132.0,1211.0 L 1143.0,1211.0" style="stroke:#010101; fill:none;"/>
	<path d="M 924.0,1212.0 L 923.0,1214.0" style="stroke:#010101; fill:none;"/>
	<path d="M 1455.0,1218.0 L 1469.0,1212.0" style="stroke:#010101; fill:none;"/>
	<path d="M 1497.0,1213.0 L 1494.0,1214.0" style="stroke:#010101; fill:none;"/>
	<path d="M 1037.0,1219.0 L 1035.0,1222.0 L 1043.0,1214.0" style="stroke:#010101; fill:none;"/>
	<path d="M 1159.0,1214.0 L 1171.0,1214.0" style="stroke:#010101; fill:none;"/>
	<path d="M 1599.0,1214.0 C 1580.65,1232.2 1543.17,1253.63 1516.0,1249.0" style="stroke:#010101; fill:none;"/>
	<path d="M 1092.0,1215.0 L 1105.0,1215.0" style="stroke:#010101; fill:none;"/>
	<path d="M 1487.0,1216.0 L 1492.0,1215.0" style="stroke:#010101; fill:none;"/>
	<path d="M 1044.0,1216.0 L 1039.0,1221.0" style="stroke:#010101; fill:none;"/>
	<path d="M 1107.0,1226.0 L 1086.0,1224.34 L 1063.0,1227.0 C 1070.5,1221.55 1077.69,1217.25 1087.0,1216.0" style="stroke:#010101; fill:none;"/>
	<path d="M 1437.0,1217.0 L 1445.0,1234.0" style="stroke:#010101; fill:none;"/>
	<path d="M 999.0,1230.0 C 1008.94,1227.12 1024.95,1216.44 1035.0,1221.0" style="stroke:#010101; fill:none;"/>
	<path d="M 1078.0,1223.0 L 1088.0,1218.0" style="stroke:#010101; fill:none;"/>
	<path d="M 1809.0,1219.0 L 1814.0,1222.0" style="stroke:#010101; fill:none;"/>
	<path d="M 924.0,1220.0 C 924.003,1243.12 929.97,1269.94 939.463,1291.0 C 942.922,1298.67 945.938,1309.83 955.0,1312.0" style="stroke:#010101; fill:none;"/>
	<path d="M 1073.0,1221.0 L 1078.0,1221.0" style="stroke:#010101; fill:none;"/>
	<path d="M 1067.0,1222.0 L 1068.0,1222.0" style="stroke:#010101; fill:none;"/>
	<path d="M 1252.0,1222.0 L 1246.0,1228.0" style="stroke:#010101; fill:none;"/>
	<path d="M 1821.0,1222.0 L 1821.0,1223.0" style="stroke:#010101; fill:none;"/>
	<path d="M 1031.0,1225.0 L 1020.0,1232.0 C 1026.63,1234.91 1029.65,1226.86 1034.0,1223.0" style="stroke:#010101; fill:none;"/>
	<path d="M 1080.0,1238.0 L 1041.0,1265.0 C 1042.6,1257.83 1050.61,1252.59 1056.0,1248.0 C 1072.26,1234.17 1089.68,1224.01 1111.0,1223.0" style="stroke:#010101; fill:none;"/>
	<path d="M 1808.0,1224.0 C 1806.08,1232.55 1802.66,1245.37 1795.74,1251.27 C 1789.99,1256.17 1775.72,1253.83 1774.75,1265.04 C 1773.58,1278.55 1781.99,1298.14 1785.97,1311.0 C 1792.45,1331.92 1796.7,1354.61 1801.77,1376.0 C 1805.12,1390.18 1806.51,1404.85 1809.9,1419.0 C 1821.23,1466.26 1834.4,1512.06 1835.96,1561.0 C 1836.56,1579.93 1830.49,1598.32 1829.0,1617.0" style="stroke:#010101; fill:none;"/>
	<path d="M 1805.0,1225.0 L 1806.0,1226.0" style="stroke:#010101; fill:none;"/>
	<path d="M 1284.0,1228.0 L 1288.0,1226.0" style="stroke:#010101; fill:none;"/>
	<path d="M 1821.0,1226.0 L 1821.0,1227.0" style="stroke:#010101; fill:none;"/>
	<path d="M 1021.0,1247.0 C 1033.44,1237.51 1048.1,1231.41 1063.0,1227.0" style="stroke:#010101; fill:none;"/>
	<path d="M 1026.0,1228.0 L 1028.0,1230.0" style="stroke:#010101; fill:none;"/>
	<path d="M 1056.0,1228.0 L 1057.0,1229.0" style="stroke:#010101; fill:none;"/>
	<path d="M 1066.0,1228.0 L 1070.0,1228.0" style="stroke:#010101; fill:none;"/>
	<path d="M 1025.0,1230.0 L 1025.0,1231.0" style="stroke:#010101; fill:none;"/>
	<path d="M 1067.0,1230.0 L 1043.0,1249.0 L 1057.0,1245.0" style="stroke:#010101; fill:none;"/>
	<path d="M 1822.0,1230.0 C 1822.36,1247.62 1827.11,1267.7 1822.0,1285.0" style="stroke:#010101; fill:none;"/>
	<path d="M 1068.0,1233.0 L 1077.0,1232.0" style="stroke:#010101; fill:none;"/>
	<path d="M 994.0,1232.0 L 995.0,1232.0" style="stroke:#010101; fill:none;"/>
	<path d="M 997.0,1244.0 L 1020.0,1232.0" style="stroke:#010101; fill:none;"/>
	<path d="M 1021.0,1233.0 L 1011.0,1246.0 C 1011.11,1240.09 1018.33,1238.83 1022.0,1235.0" style="stroke:#010101; fill:none;"/>
	<path d="M 1290.0,1234.0 L 1307.0,1233.0" style="stroke:#010101; fill:none;"/>
	<path d="M 1065.0,1234.0 L 1066.0,1234.0" style="stroke:#010101; fill:none;"/>
	<path d="M 1214.0,1239.0 L 1232.0,1235.0" style="stroke:#010101; fill:none;"/>
	<path d="M 1286.0,1238.0 C 1294.3,1248.89 1303.51,1259.7 1318.0,1260.0" style="stroke:#010101; fill:none;"/>
	<path d="M 1043.0,1246.0 C 1034.7,1249.02 1021.57,1260.06 1013.0,1258.0 C 1024.26,1250.4 1039.18,1240.41 1053.0,1239.0" style="stroke:#010101; fill:none;"/>
	<path d="M 1792.0,1240.0 L 1793.0,1242.0" style="stroke:#010101; fill:none;"/>
	<path d="M 1005.0,1246.0 L 1009.0,1245.0 C 1002.82,1247.66 996.651,1251.69 996.0,1259.0 L 1007.0,1248.0" style="stroke:#010101; fill:none;"/>
	<path d="M 1053.0,1331.0 C 1046.59,1336.89 1036.34,1345.94 1027.0,1344.0 C 1030.83,1339.36 1036.45,1336.6 1040.21,1331.83 C 1044.79,1326.03 1045.59,1318.13 1049.71,1312.17 C 1056.33,1302.61 1067.0,1293.74 1076.0,1286.47 C 1098.36,1268.4 1131.08,1261.82 1158.0,1253.56 C 1170.0,1249.89 1182.27,1244.26 1195.0,1244.0" style="stroke:#010101; fill:none;"/>
	<path d="M 1794.0,1245.0 L 1798.0,1249.0" style="stroke:#010101; fill:none;"/>
	<path d="M 1008.0,1246.0 L 1011.0,1247.0" style="stroke:#010101; fill:none;"/>
	<path d="M 1204.0,1246.0 C 1232.85,1248.88 1258.46,1260.31 1288.0,1252.0" style="stroke:#010101; fill:none;"/>
	<path d="M 1814.0,1246.0 L 1811.0,1256.0" style="stroke:#010101; fill:none;"/>
	<path d="M 1041.0,1247.0 L 1029.0,1267.0" style="stroke:#010101; fill:none;"/>
	<path d="M 1044.0,1247.0 L 1046.0,1249.0" style="stroke:#010101; fill:none;"/>
	<path d="M 1010.0,1248.0 L 1007.0,1249.0" style="stroke:#010101; fill:none;"/>
	<path d="M 1262.0,1251.0 L 1279.0,1248.0" style="stroke:#010101; fill:none;"/>
	<path d="M 1042.0,1252.0 L 1044.0,1251.0" style="stroke:#010101; fill:none;"/>
	<path d="M 1176.0,1254.0 L 1177.0,1254.0" style="stroke:#010101; fill:none;"/>
	<path d="M 1170.0,1257.0 L 1171.0,1262.0 L 1187.0,1261.0 L 1188.6,1270.61 L 1199.0,1268.75 L 1226.0,1264.0 L 1223.0,1264.0" style="stroke:#010101; fill:none;"/>
	<path d="M 1010.0,1260.0 L 1013.0,1258.0" style="stroke:#010101; fill:none;"/>
	<path d="M 1811.0,1258.0 C 1811.0,1269.14 1808.89,1287.5 1822.0,1292.0" style="stroke:#010101; fill:none;"/>
	<path d="M 994.0,1259.0 L 997.0,1259.0" style="stroke:#010101; fill:none;"/>
	<path d="M 1188.0,1260.0 C 1199.81,1257.19 1211.32,1260.43 1223.0,1262.0" style="stroke:#010101; fill:none;"/>
	<path d="M 1293.0,1259.0 L 1301.0,1277.0" style="stroke:#010101; fill:none;"/>
	<path d="M 994.0,1260.0 L 991.0,1263.0" style="stroke:#010101; fill:none;"/>
	<path d="M 1014.0,1260.0 L 996.0,1277.0" style="stroke:#010101; fill:none;"/>
	<path d="M 1773.0,1260.0 L 1774.0,1262.0" style="stroke:#010101; fill:none;"/>
	<path d="M 995.0,1261.0 L 993.0,1263.0" style="stroke:#010101; fill:none;"/>
	<path d="M 1119.0,1279.0 L 1123.0,1276.0 L 1125.0,1282.0 C 1128.4,1278.46 1132.52,1275.21 1132.0,1270.0 L 1169.0,1262.0" style="stroke:#010101; fill:none;"/>
	<path d="M 1180.0,1262.0 L 1180.0,1264.0" style="stroke:#010101; fill:none;"/>
	<path d="M 1003.0,1292.0 C 1009.17,1281.17 1018.59,1269.94 1029.0,1263.0" style="stroke:#010101; fill:none;"/>
	<path d="M 1134.0,1275.0 L 1163.0,1269.08 L 1173.0,1265.0 L 1174.0,1266.0 L 1175.0,1266.0 L 1176.0,1266.0" style="stroke:#010101; fill:none;"/>
	<path d="M 1226.0,1264.0 L 1251.0,1266.0" style="stroke:#010101; fill:none;"/>
	<path d="M 1040.0,1265.0 C 1031.87,1271.92 1020.28,1283.27 1016.0,1293.0 C 1021.91,1293.96 1027.82,1289.05 1033.0,1286.42 C 1041.52,1282.11 1050.4,1278.99 1060.0,1280.0" style="stroke:#010101; fill:none;"/>
	<path d="M 1166.0,1266.0 L 1166.0,1267.0" style="stroke:#010101; fill:none;"/>
	<path d="M 1452.0,1266.0 C 1454.67,1299.88 1465.24,1329.2 1476.0,1361.0" style="stroke:#010101; fill:none;"/>
	<path d="M 1018.0,1267.0 C 1010.78,1273.36 1001.54,1280.86 998.0,1290.0 L 1000.0,1288.0" style="stroke:#010101; fill:none;"/>
	<path d="M 954.0,1269.0 C 956.512,1276.24 958.891,1288.66 969.0,1286.0" style="stroke:#010101; fill:none;"/>
	<path d="M 1123.0,1275.0 L 1131.0,1270.0" style="stroke:#010101; fill:none;"/>
	<path d="M 1162.0,1271.0 C 1156.68,1277.37 1137.8,1287.8 1134.0,1275.0" style="stroke:#010101; fill:none;"/>
	<path d="M 1187.0,1271.0 C 1160.07,1291.77 1123.19,1293.95 1091.0,1293.57 C 1083.53,1293.48 1073.86,1298.19 1067.0,1296.0" style="stroke:#010101; fill:none;"/>
	<path d="M 1128.0,1272.0 L 1128.0,1277.0" style="stroke:#010101; fill:none;"/>
	<path d="M 1106.0,1292.0 C 1104.16,1280.47 1110.85,1275.0 1122.0,1274.0" style="stroke:#010101; fill:none;"/>
	<path d="M 1029.0,1281.0 L 1048.0,1275.0" style="stroke:#010101; fill:none;"/>
	<path d="M 1783.0,1275.0 C 1795.58,1287.58 1805.9,1303.13 1794.0,1320.0" style="stroke:#010101; fill:none;"/>
	<path d="M 742.0,1326.0 C 766.745,1336.55 741.35,1351.33 727.0,1355.56 C 720.625,1357.44 713.626,1358.15 707.0,1357.99 C 662.263,1356.91 648.034,1313.57 639.0,1277.0 C 645.562,1276.03 652.104,1286.01 657.0,1290.0" style="stroke:#010101; fill:none;"/>
	<path d="M 1078.0,1294.0 C 1083.27,1289.52 1089.05,1284.87 1096.0,1288.0 L 1105.0,1280.0" style="stroke:#010101; fill:none;"/>
	<path d="M 1116.0,1281.0 L 1118.0,1285.0" style="stroke:#010101; fill:none;"/>
	<path d="M 1108.0,1284.0 L 1115.0,1286.0" style="stroke:#010101; fill:none;"/>
	<path d="M 1094.0,1285.0 L 1097.0,1284.0" style="stroke:#010101; fill:none;"/>
	<path d="M 1110.0,1284.0 L 1110.0,1286.0" style="stroke:#010101; fill:none;"/>
	<path d="M 1098.0,1293.0 C 1099.54,1289.56 1101.03,1286.69 1105.0,1287.0" style="stroke:#010101; fill:none;"/>
	<path d="M 999.0,1320.0 L 1016.0,1310.0 C 1010.43,1298.7 1037.17,1289.42 1046.0,1287.0" style="stroke:#010101; fill:none;"/>
	<path d="M 994.0,1308.0 C 999.721,1299.88 1008.6,1291.56 1018.0,1288.0" style="stroke:#010101; fill:none;"/>
	<path d="M 1093.0,1288.0 L 1090.0,1293.0" style="stroke:#010101; fill:none;"/>
	<path d="M 1823.0,1288.0 L 1822.0,1289.0" style="stroke:#010101; fill:none;"/>
	<path d="M 1096.0,1289.0 L 1094.0,1293.0" style="stroke:#010101; fill:none;"/>
	<path d="M 997.0,1291.0 C 991.975,1299.35 986.866,1308.09 986.0,1318.0" style="stroke:#010101; fill:none;"/>
	<path d="M 1015.0,1294.0 L 1018.0,1294.0" style="stroke:#010101; fill:none;"/>
	<path d="M 1015.0,1295.0 L 996.0,1310.0" style="stroke:#010101; fill:none;"/>
	<path d="M 1026.0,1313.0 L 1018.0,1316.0 C 1016.31,1307.07 1027.2,1302.79 1034.0,1299.0" style="stroke:#010101; fill:none;"/>
	<path d="M 1094.0,1299.0 L 1083.0,1308.0" style="stroke:#010101; fill:none;"/>
	<path d="M 1822.0,1300.0 L 1824.0,1311.0" style="stroke:#010101; fill:none;"/>
	<path d="M 1132.0,1301.0 L 1135.0,1302.0" style="stroke:#010101; fill:none;"/>
	<path d="M 1141.0,1301.0 L 1146.0,1303.0" style="stroke:#010101; fill:none;"/>
	<path d="M 1118.0,1303.0 L 1112.0,1307.0" style="stroke:#010101; fill:none;"/>
	<path d="M 991.0,1321.0 L 1013.0,1304.0" style="stroke:#010101; fill:none;"/>
	<path d="M 1098.0,1306.0 L 1102.0,1305.0" style="stroke:#010101; fill:none;"/>
	<path d="M 1109.0,1305.0 L 1105.0,1309.0" style="stroke:#010101; fill:none;"/>
	<path d="M 1249.0,1312.0 L 1267.0,1305.0" style="stroke:#010101; fill:none;"/>
	<path d="M 1077.0,1308.0 L 1074.0,1309.0" style="stroke:#010101; fill:none;"/>
	<path d="M 1061.0,1313.0 L 1058.0,1316.0" style="stroke:#010101; fill:none;"/>
	<path d="M 1052.0,1314.0 L 1050.0,1332.0" style="stroke:#010101; fill:none;"/>
	<path d="M 1134.0,1317.0 L 1150.0,1314.0" style="stroke:#010101; fill:none;"/>
	<path d="M 1823.0,1314.0 L 1823.0,1315.0" style="stroke:#010101; fill:none;"/>
	<path d="M 1082.0,1315.0 C 1094.08,1320.35 1105.91,1322.02 1119.0,1321.0" style="stroke:#010101; fill:none;"/>
	<path d="M 1010.0,1319.0 L 1017.0,1317.0" style="stroke:#010101; fill:none;"/>
	<path d="M 1251.0,1319.0 L 1243.0,1325.0" style="stroke:#010101; fill:none;"/>
	<path d="M 1027.0,1323.0 L 1036.0,1323.0" style="stroke:#010101; fill:none;"/>
	<path d="M 1066.0,1325.0 L 1078.0,1343.0" style="stroke:#010101; fill:none;"/>
	<path d="M 960.0,1326.0 C 970.133,1330.9 982.181,1328.51 993.0,1328.0" style="stroke:#010101; fill:none;"/>
	<path d="M 989.0,1329.0 L 998.0,1338.0" style="stroke:#010101; fill:none;"/>
	<path d="M 1050.0,1334.0 L 1059.0,1344.0" style="stroke:#010101; fill:none;"/>
	<path d="M 1052.0,1334.0 L 1051.0,1335.0" style="stroke:#010101; fill:none;"/>
	<path d="M 1241.0,1335.0 L 1223.0,1347.0" style="stroke:#010101; fill:none;"/>
	<path d="M 755.0,1338.0 L 766.0,1348.0" style="stroke:#010101; fill:none;"/>
	<path d="M 1108.0,1339.0 C 1121.67,1352.63 1138.62,1359.84 1158.0,1360.0" style="stroke:#010101; fill:none;"/>
	<path d="M 664.0,1341.0 C 661.004,1348.41 665.946,1358.72 668.255,1366.0 C 673.995,1384.09 678.339,1402.28 685.355,1420.0 C 695.821,1446.44 714.505,1466.72 726.997,1492.0 C 753.343,1545.32 772.164,1601.87 819.089,1642.19 C 835.509,1656.3 864.451,1664.3 886.0,1660.38 C 895.532,1658.65 909.354,1649.74 910.498,1639.0 C 911.351,1630.98 903.183,1616.72 900.414,1609.0 C 892.749,1587.64 888.007,1565.22 880.0,1544.0" style="stroke:#010101; fill:none;"/>
	<path d="M 1223.0,1342.0 C 1196.8,1366.06 1149.58,1384.06 1120.0,1356.0" style="stroke:#010101; fill:none;"/>
	<path d="M 992.0,1363.0 L 1026.0,1345.0" style="stroke:#010101; fill:none;"/>
	<path d="M 961.0,1349.0 L 958.0,1349.0 L 977.0,1350.0" style="stroke:#010101; fill:none;"/>
	<path d="M 951.0,1349.0 L 958.0,1349.0" style="stroke:#010101; fill:none;"/>
	<path d="M 764.0,1350.0 C 776.034,1366.85 782.667,1388.43 795.895,1404.29 C 804.937,1415.13 824.07,1424.92 829.397,1438.17 C 832.016,1444.68 829.557,1454.23 829.209,1461.0 C 828.74,1470.13 831.417,1480.96 835.644,1489.0 C 840.893,1498.98 848.882,1505.76 858.0,1512.12 C 863.81,1516.17 871.864,1520.26 873.12,1528.0 C 874.231,1534.84 870.119,1541.31 867.0,1547.0" style="stroke:#010101; fill:none;"/>
	<path d="M 983.0,1351.0 L 1009.0,1352.0" style="stroke:#010101; fill:none;"/>
	<path d="M 1172.0,1361.0 L 1188.0,1359.0" style="stroke:#010101; fill:none;"/>
	<path d="M 1068.0,1364.0 C 1075.14,1367.01 1083.4,1366.24 1091.0,1367.44 C 1109.03,1370.28 1130.83,1382.13 1147.0,1370.0" style="stroke:#010101; fill:none;"/>
	<path d="M 1516.0,1367.0 C 1532.59,1374.01 1560.01,1401.31 1558.79,1421.0 C 1557.94,1434.58 1547.53,1448.15 1539.0,1458.0" style="stroke:#010101; fill:none;"/>
	<path d="M 959.0,1375.0 L 983.0,1368.0" style="stroke:#010101; fill:none;"/>
	<path d="M 1527.0,1369.0 C 1549.16,1379.36 1574.57,1393.07 1594.0,1408.0" style="stroke:#010101; fill:none;"/>
	<path d="M 719.0,1370.0 C 720.739,1383.68 725.992,1396.49 728.54,1410.0 C 734.349,1440.79 736.92,1473.32 750.552,1502.0 C 761.004,1523.99 777.416,1542.79 792.0,1562.0" style="stroke:#010101; fill:none;"/>
	<path d="M 1104.0,1372.0 L 1062.0,1401.8 L 1038.43,1419.44 L 1034.65,1430.0 L 1024.0,1450.0" style="stroke:#010101; fill:none;"/>
	<path d="M 1493.0,1380.0 C 1510.21,1406.1 1516.65,1429.69 1503.0,1459.0" style="stroke:#010101; fill:none;"/>
	<path d="M 1012.0,1385.0 C 996.938,1398.03 977.766,1411.64 970.268,1431.0 C 965.549,1443.18 968.479,1456.67 963.0,1469.0" style="stroke:#010101; fill:none;"/>
	<path d="M 964.0,1396.0 L 951.0,1414.0" style="stroke:#010101; fill:none;"/>
	<path d="M 795.0,1405.0 C 781.444,1426.83 785.669,1458.15 790.665,1482.0 C 792.625,1491.36 800.043,1502.45 798.0,1512.0 C 807.648,1515.81 820.609,1517.34 831.0,1517.0" style="stroke:#010101; fill:none;"/>
	<path d="M 1273.0,1481.0 C 1279.41,1467.45 1289.24,1448.59 1302.0,1441.0 C 1297.35,1431.5 1316.39,1415.67 1325.0,1414.0" style="stroke:#010101; fill:none;"/>
	<path d="M 921.0,1422.0 L 938.0,1423.0" style="stroke:#010101; fill:none;"/>
	<path d="M 1347.0,1422.0 L 1352.0,1428.0" style="stroke:#010101; fill:none;"/>
	<path d="M 831.0,1427.0 L 831.0,1435.0" style="stroke:#010101; fill:none;"/>
	<path d="M 1314.0,1427.0 L 1302.0,1440.0" style="stroke:#010101; fill:none;"/>
	<path d="M 1354.0,1430.0 L 1358.0,1436.0" style="stroke:#010101; fill:none;"/>
	<path d="M 1359.0,1438.0 L 1360.0,1439.0" style="stroke:#010101; fill:none;"/>
	<path d="M 1298.0,1441.0 L 1300.0,1442.0" style="stroke:#010101; fill:none;"/>
	<path d="M 1361.0,1441.0 L 1362.0,1442.0" style="stroke:#010101; fill:none;"/>
	<path d="M 1299.0,1444.0 C 1293.43,1467.51 1287.74,1488.12 1306.0,1508.0" style="stroke:#010101; fill:none;"/>
	<path d="M 1533.0,1457.0 C 1523.64,1464.13 1516.49,1473.65 1511.0,1484.0" style="stroke:#010101; fill:none;"/>
	<path d="M 1502.0,1462.0 L 1500.0,1465.0" style="stroke:#010101; fill:none;"/>
	<path d="M 1498.0,1469.0 L 1497.0,1471.0" style="stroke:#010101; fill:none;"/>
	<path d="M 1495.0,1473.0 L 1493.0,1477.0" style="stroke:#010101; fill:none;"/>
	<path d="M 1492.0,1479.0 L 1488.0,1484.0" style="stroke:#010101; fill:none;"/>
	<path d="M 1487.0,1486.0 L 1485.0,1488.0" style="stroke:#010101; fill:none;"/>
	<path d="M 1268.0,1488.0 L 1223.0,1549.0" style="stroke:#010101; fill:none;"/>
	<path d="M 1510.0,1488.0 C 1500.04,1497.15 1489.61,1508.82 1478.0,1515.74 C 1462.55,1524.96 1432.47,1529.16 1415.0,1525.0" style="stroke:#010101; fill:none;"/>
	<path d="M 1386.0,1489.0 L 1389.0,1492.0" style="stroke:#010101; fill:none;"/>
	<path d="M 781.0,1492.0 C 782.626,1501.12 788.999,1509.33 798.0,1512.0" style="stroke:#010101; fill:none;"/>
	<path d="M 1392.0,1494.0 L 1398.0,1499.0" style="stroke:#010101; fill:none;"/>
	<path d="M 1402.0,1501.0 L 1410.0,1505.0" style="stroke:#010101; fill:none;"/>
	<path d="M 1412.0,1506.0 L 1427.0,1509.0" style="stroke:#010101; fill:none;"/>
	<path d="M 1333.0,1518.0 C 1346.4,1521.96 1359.07,1510.2 1372.0,1508.3 C 1386.82,1506.12 1401.69,1514.84 1415.0,1520.0" style="stroke:#010101; fill:none;"/>
	<path d="M 1440.0,1509.0 L 1442.0,1509.0" style="stroke:#010101; fill:none;"/>
	<path d="M 1444.0,1509.0 L 1445.0,1509.0" style="stroke:#010101; fill:none;"/>
	<path d="M 1429.0,1510.0 L 1431.0,1510.0" style="stroke:#010101; fill:none;"/>
	<path d="M 1433.0,1510.0 L 1434.0,1510.0" style="stroke:#010101; fill:none;"/>
	<path d="M 1437.0,1510.0 L 1438.0,1510.0" style="stroke:#010101; fill:none;"/>
	<path d="M 873.0,1517.0 L 880.0,1527.0" style="stroke:#010101; fill:none;"/>
	<path d="M 1619.0,1545.0 C 1634.77,1544.28 1643.12,1531.79 1656.0,1524.0" style="stroke:#010101; fill:none;"/>
	<path d="M 812.0,1531.0 C 804.936,1549.45 797.055,1571.08 797.0,1591.0" style="stroke:#010101; fill:none;"/>
	<path d="M 1420.0,1610.0 C 1438.98,1599.21 1462.8,1597.73 1483.0,1589.55 C 1501.23,1582.16 1520.15,1574.87 1538.0,1566.69 C 1562.4,1555.52 1584.58,1544.0 1612.0,1544.0" style="stroke:#010101; fill:none;"/>
	<path d="M 1632.0,1545.0 C 1617.35,1568.07 1600.83,1592.74 1582.13,1612.42 C 1576.91,1617.93 1577.48,1628.81 1568.98,1631.02 C 1566.05,1631.78 1560.17,1633.52 1557.59,1631.31 C 1555.06,1629.14 1555.09,1624.01 1554.25,1621.0 C 1552.11,1613.25 1549.23,1605.34 1545.96,1598.0 C 1544.4,1594.5 1541.42,1586.92 1536.95,1586.58 C 1532.14,1586.22 1525.98,1591.32 1522.0,1593.58 C 1517.74,1595.99 1514.74,1597.87 1512.0,1602.0 L 1510.0,1600.0 L 1513.0,1599.0" style="stroke:#010101; fill:none;"/>
	<path d="M 1603.0,1582.0 C 1603.0,1566.94 1597.14,1550.74 1617.0,1549.0" style="stroke:#010101; fill:none;"/>
	<path d="M 1595.0,1598.0 L 1589.21,1574.0 L 1586.13,1563.26 L 1601.0,1555.0" style="stroke:#010101; fill:none;"/>
	<path d="M 1576.0,1603.0 L 1567.0,1572.0 L 1585.0,1563.0" style="stroke:#010101; fill:none;"/>
	<path d="M 1538.0,1586.0 L 1567.0,1572.0" style="stroke:#010101; fill:none;"/>
	<path d="M 1548.0,1585.0 L 1545.0,1593.0" style="stroke:#010101; fill:none;"/>
	<path d="M 1004.0,1589.0 L 1005.0,1604.0" style="stroke:#010101; fill:none;"/>
	<path d="M 1380.0,1667.0 L 1376.0,1639.0 C 1403.18,1627.53 1434.97,1631.19 1463.0,1623.2 C 1479.91,1618.37 1493.24,1604.62 1510.0,1600.0" style="stroke:#010101; fill:none;"/>
	<path d="M 1789.0,1600.0 L 1763.0,1661.0" style="stroke:#010101; fill:none;"/>
	<path d="M 1514.0,1602.0 L 1512.0,1603.0" style="stroke:#010101; fill:none;"/>
	<path d="M 1513.0,1605.0 L 1515.0,1612.0" style="stroke:#010101; fill:none;"/>
	<path d="M 1578.0,1608.0 L 1580.0,1614.0" style="stroke:#010101; fill:none;"/>
	<path d="M 1275.0,1632.0 L 1316.0,1627.58 L 1382.0,1611.16 L 1416.0,1611.0" style="stroke:#010101; fill:none;"/>
	<path d="M 1517.0,1615.0 C 1519.9,1623.71 1529.45,1641.07 1527.45,1650.0 C 1525.84,1657.18 1517.92,1659.01 1512.0,1661.58 C 1496.29,1668.39 1479.4,1668.85 1463.0,1672.87 C 1439.38,1678.67 1411.26,1681.18 1387.0,1678.83 C 1372.19,1677.4 1357.95,1672.48 1343.0,1671.03 C 1337.31,1670.48 1331.79,1672.53 1326.0,1671.7 C 1310.62,1669.48 1296.76,1664.99 1281.0,1663.91 C 1275.34,1663.52 1268.2,1663.64 1263.0,1661.24 C 1256.35,1658.17 1252.14,1650.19 1245.87,1647.6 C 1242.2,1646.09 1236.91,1647.0 1233.0,1647.0" style="stroke:#010101; fill:none;"/>
	<path d="M 1828.0,1619.0 L 1828.0,1621.0" style="stroke:#010101; fill:none;"/>
	<path d="M 1470.0,1622.0 L 1469.0,1632.0" style="stroke:#010101; fill:none;"/>
	<path d="M 1464.0,1625.0 L 1467.0,1628.0" style="stroke:#010101; fill:none;"/>
	<path d="M 1417.0,1631.0 L 1420.0,1669.0" style="stroke:#010101; fill:none;"/>
	<path d="M 973.0,1632.0 C 975.406,1648.35 982.973,1664.49 988.46,1680.0 C 1002.77,1720.44 1018.77,1765.88 1047.0,1799.0" style="stroke:#010101; fill:none;"/>
	<path d="M 1556.0,1634.0 C 1550.73,1643.04 1539.18,1647.56 1529.0,1648.0" style="stroke:#010101; fill:none;"/>
	<path d="M 1314.0,1664.0 L 1309.0,1644.0 L 1375.0,1638.0" style="stroke:#010101; fill:none;"/>
	<path d="M 1582.0,1638.0 L 1561.0,1663.0" style="stroke:#010101; fill:none;"/>
	<path d="M 1248.0,1647.0 C 1267.48,1636.63 1287.26,1641.36 1308.0,1643.0" style="stroke:#010101; fill:none;"/>
	<path d="M 1471.0,1640.0 L 1476.0,1663.0" style="stroke:#010101; fill:none;"/>
	<path d="M 1274.0,1641.0 L 1276.0,1663.0" style="stroke:#010101; fill:none;"/>
	<path d="M 911.0,1642.0 C 916.954,1649.72 920.129,1660.04 923.86,1669.0 C 930.529,1685.01 937.105,1700.72 943.053,1717.0 C 955.705,1751.62 970.391,1783.33 991.0,1814.0" style="stroke:#010101; fill:none;"/>
	<path d="M 1823.0,1643.0 L 1823.0,1644.0" style="stroke:#010101; fill:none;"/>
	<path d="M 1207.0,1647.0 L 1228.0,1644.0" style="stroke:#010101; fill:none;"/>
	<path d="M 1339.0,1644.0 L 1342.0,1661.0" style="stroke:#010101; fill:none;"/>
	<path d="M 1792.0,1647.0 L 1762.0,1688.0" style="stroke:#010101; fill:none;"/>
	<path d="M 1821.0,1650.0 L 1782.0,1788.0" style="stroke:#010101; fill:none;"/>
	<path d="M 1342.0,1664.0 L 1342.0,1670.0" style="stroke:#010101; fill:none;"/>
	<path d="M 1019.0,1669.0 L 1020.0,1676.0" style="stroke:#010101; fill:none;"/>
	<path d="M 1382.0,1670.0 L 1384.0,1678.0" style="stroke:#010101; fill:none;"/>
	<path d="M 845.0,1675.0 L 877.0,1673.0" style="stroke:#010101; fill:none;"/>
	<path d="M 1421.0,1674.0 L 1423.0,1678.0" style="stroke:#010101; fill:none;"/>
	<path d="M 1545.0,1676.0 C 1523.18,1695.0 1496.68,1707.8 1468.0,1712.27 C 1459.3,1713.63 1450.76,1716.09 1442.0,1714.0" style="stroke:#010101; fill:none;"/>
	<path d="M 1749.0,1684.0 C 1731.48,1759.73 1697.27,1832.81 1654.0,1897.0" style="stroke:#010101; fill:none;"/>
	<path d="M 1293.0,1691.0 C 1333.09,1706.47 1382.89,1718.45 1426.0,1713.0" style="stroke:#010101; fill:none;"/>
	<path d="M 1461.0,1775.0 L 1531.0,1763.01 L 1562.0,1760.0" style="stroke:#010101; fill:none;"/>
	<path d="M 1416.0,1793.0 L 1451.0,1780.0" style="stroke:#010101; fill:none;"/>
	<path d="M 1781.0,1790.0 L 1780.0,1792.0" style="stroke:#010101; fill:none;"/>
	<path d="M 994.0,1818.0 L 1005.0,1829.0" style="stroke:#010101; fill:none;"/>
	<path d="M 1006.0,1831.0 C 1051.75,1893.27 1115.55,1940.43 1184.0,1975.74 C 1206.54,1987.37 1230.79,1995.33 1254.0,2005.42 C 1303.14,2026.8 1353.66,2049.95 1400.0,2077.0" style="stroke:#010101; fill:none;"/>
	<path d="M 1757.0,1838.0 L 1756.0,1839.0" style="stroke:#010101; fill:none;"/>
	<path d="M 1755.0,1841.0 L 1719.0,1891.0" style="stroke:#010101; fill:none;"/>
	<path d="M 1102.0,1843.0 C 1123.73,1882.83 1152.13,1912.59 1188.0,1940.42 C 1206.96,1955.14 1229.1,1970.25 1252.0,1978.0" style="stroke:#010101; fill:none;"/>
	<path d="M 1652.0,1901.0 C 1634.25,1918.75 1614.68,1931.4 1591.0,1940.0" style="stroke:#010101; fill:none;"/>
	<path d="M 1257.0,1905.0 C 1284.14,1922.02 1311.25,1939.98 1342.0,1950.0" style="stroke:#010101; fill:none;"/>
	<path d="M 1703.0,1910.0 L 1664.8,1957.0 L 1630.0,2018.0" style="stroke:#010101; fill:none;"/>
	<path d="M 1393.0,1971.0 C 1408.63,1979.8 1429.9,1976.5 1447.0,1975.12 C 1473.21,1972.99 1499.39,1969.56 1525.0,1963.5 C 1540.25,1959.89 1554.82,1953.6 1570.0,1950.0" style="stroke:#010101; fill:none;"/>
	<path d="M 1308.0,1993.0 L 1312.0,1994.0" style="stroke:#010101; fill:none;"/>
	<path d="M 1315.0,1995.0 L 1316.0,1995.0" style="stroke:#010101; fill:none;"/>
	<path d="M 1318.0,1996.0 L 1416.0,2019.0" style="stroke:#010101; fill:none;"/>
	<path d="M 1418.0,2020.0 L 1436.0,2023.0" style="stroke:#010101; fill:none;"/>
	<path d="M 1438.0,2024.0 L 1440.0,2024.0" style="stroke:#010101; fill:none;"/>
	<path d="M 1443.0,2025.0 L 1445.0,2025.0" style="stroke:#010101; fill:none;"/>
	<path d="M 1447.0,2026.0 L 1449.0,2026.0" style="stroke:#010101; fill:none;"/>
	<path d="M 1454.0,2027.0 L 1455.0,2027.0" style="stroke:#010101; fill:none;"/>
	<path d="M 1457.0,2028.0 L 1459.0,2028.0" style="stroke:#010101; fill:none;"/>
	<path d="M 1619.0,2033.0 L 1598.0,2054.0" style="stroke:#010101; fill:none;"/>
</svg>
