<?xml version="1.0" ?>
<svg baseProfile="full" height="2893" version="1.1" width="2759" xmlns="http://www.w3.org/2000/svg" xmlns:ev="http://www.w3.org/2001/xml-events" xmlns:xlink="http://www.w3.org/1999/xlink">
	<defs/>
	<path d="M 1522.0,968.0 C 1512.03,979.376 1499.58,988.366 1486.0,995.0" style="stroke:#010101; fill:none;"/>
	<path d="M 1524.0,971.0 L 1501.44,994.209 L 1481.0,1026.0 C 1486.33,1027.14 1489.95,1023.02 1494.0,1019.88 C 1505.06,1011.31 1512.06,999.486 1521.0,989.0" style="stroke:#010101; fill:none;"/>
	<path d="M 1487.0,973.0 L 1485.0,991.0 L 1493.0,988.0" style="stroke:#010101; fill:none;"/>
	<path d="M 1465.0,974.0 L 1465.0,998.0 L 1484.0,990.0" style="stroke:#010101; fill:none;"/>
	<path d="M 1538.0,981.0 C 1541.89,989.221 1536.26,999.593 1530.62,1005.91 C 1519.2,1018.69 1504.6,1025.99 1490.0,1034.02 C 1482.28,1038.26 1473.05,1043.69 1464.0,1040.0 L 1476.0,1008.0 L 1466.0,1009.0" style="stroke:#010101; fill:none;"/>
	<path d="M 1548.0,985.0 C 1547.04,996.771 1540.26,1006.41 1534.0,1016.0 C 1542.92,1014.66 1548.79,1003.57 1554.0,997.0" style="stroke:#010101; fill:none;"/>
	<path d="M 1571.0,990.0 C 1565.81,998.435 1560.79,1005.17 1552.0,1010.0 L 1555.0,1010.0" style="stroke:#010101; fill:none;"/>
	<path d="M 1482.0,994.0 L 1479.0,1004.0 L 1498.0,996.0" style="stroke:#010101; fill:none;"/>
	<path d="M 1533.0,994.0 L 1528.0,1008.0" style="stroke:#010101; fill:none;"/>
	<path d="M 1583.0,994.0 L 1585.0,1015.0" style="stroke:#010101; fill:none;"/>
	<path d="M 1528.0,995.0 L 1499.0,1027.0" style="stroke:#010101; fill:none;"/>
	<path d="M 1563.0,996.0 L 1555.0,1007.0" style="stroke:#010101; fill:none;"/>
	<path d="M 1465.0,998.0 C 1457.84,1016.29 1464.95,1050.75 1443.0,1061.0 L 1460.0,1016.0" style="stroke:#010101; fill:none;"/>
	<path d="M 1458.0,1001.0 L 1463.0,1000.0" style="stroke:#010101; fill:none;"/>
	<path d="M 1448.0,1002.0 C 1449.19,1022.05 1440.34,1039.44 1430.0,1056.0" style="stroke:#010101; fill:none;"/>
	<path d="M 1479.0,1004.0 L 1477.0,1007.0" style="stroke:#010101; fill:none;"/>
	<path d="M 1536.0,1006.0 C 1528.25,1017.0 1517.5,1026.22 1506.0,1033.0" style="stroke:#010101; fill:none;"/>
	<path d="M 1527.0,1007.0 L 1525.0,1009.0" style="stroke:#010101; fill:none;"/>
	<path d="M 1575.0,1007.0 L 1568.0,1011.0" style="stroke:#010101; fill:none;"/>
	<path d="M 1563.0,1008.0 C 1555.54,1023.95 1541.17,1038.98 1524.0,1044.1 C 1519.64,1045.4 1515.3,1044.1 1511.0,1045.01 C 1504.58,1046.38 1500.46,1055.89 1494.0,1050.0 L 1482.0,1058.0 L 1501.0,1037.0" style="stroke:#010101; fill:none;"/>
	<path d="M 1553.0,1052.0 C 1564.39,1045.35 1579.25,1038.77 1586.04,1027.0 C 1589.18,1021.58 1589.27,1015.79 1591.0,1010.0 L 1595.0,1018.0" style="stroke:#010101; fill:none;"/>
	<path d="M 1527.0,1011.0 L 1526.0,1012.0" style="stroke:#010101; fill:none;"/>
	<path d="M 1552.0,1011.0 C 1547.34,1015.65 1533.27,1022.19 1535.0,1029.0 L 1541.0,1021.0" style="stroke:#010101; fill:none;"/>
	<path d="M 1567.0,1015.0 L 1571.0,1013.0" style="stroke:#010101; fill:none;"/>
	<path d="M 1524.0,1014.0 L 1517.0,1018.0" style="stroke:#010101; fill:none;"/>
	<path d="M 1572.0,1014.0 C 1574.04,1018.13 1574.73,1020.64 1573.0,1025.0" style="stroke:#010101; fill:none;"/>
	<path d="M 1534.0,1016.0 L 1531.0,1019.0" style="stroke:#010101; fill:none;"/>
	<path d="M 1428.0,1018.0 L 1426.0,1030.0 C 1420.04,1030.99 1416.47,1036.63 1412.73,1041.0 C 1405.34,1049.62 1396.03,1063.25 1385.0,1067.0" style="stroke:#010101; fill:none;"/>
	<path d="M 1438.0,1019.0 C 1435.78,1028.71 1428.9,1039.16 1422.87,1046.99 C 1419.52,1051.32 1413.47,1055.16 1415.0,1061.0 L 1415.0,1057.0" style="stroke:#010101; fill:none;"/>
	<path d="M 1517.0,1020.0 L 1509.0,1028.0" style="stroke:#010101; fill:none;"/>
	<path d="M 1454.0,1021.0 L 1453.0,1028.0" style="stroke:#010101; fill:none;"/>
	<path d="M 1595.0,1021.0 L 1595.0,1023.0" style="stroke:#010101; fill:none;"/>
	<path d="M 1600.0,1021.0 L 1600.0,1022.0" style="stroke:#010101; fill:none;"/>
	<path d="M 1537.0,1022.0 L 1539.0,1024.0" style="stroke:#010101; fill:none;"/>
	<path d="M 1599.0,1024.0 L 1598.0,1033.0 L 1583.0,1036.0" style="stroke:#010101; fill:none;"/>
	<path d="M 1632.0,1025.0 L 1633.0,1026.0" style="stroke:#010101; fill:none;"/>
	<path d="M 1481.0,1026.0 L 1472.0,1032.0" style="stroke:#010101; fill:none;"/>
	<path d="M 1562.0,1026.0 C 1555.36,1034.16 1546.69,1045.49 1536.0,1048.0" style="stroke:#010101; fill:none;"/>
	<path d="M 1425.0,1027.0 L 1423.0,1029.0" style="stroke:#010101; fill:none;"/>
	<path d="M 1491.0,1028.0 L 1490.0,1033.0" style="stroke:#010101; fill:none;"/>
	<path d="M 1517.0,1038.0 L 1534.0,1030.0" style="stroke:#010101; fill:none;"/>
	<path d="M 1565.0,1028.0 L 1539.0,1054.0" style="stroke:#010101; fill:none;"/>
	<path d="M 1578.0,1028.0 L 1570.0,1039.0" style="stroke:#010101; fill:none;"/>
	<path d="M 1529.0,1030.0 L 1534.0,1030.0" style="stroke:#010101; fill:none;"/>
	<path d="M 1498.0,1031.0 L 1500.0,1030.0" style="stroke:#010101; fill:none;"/>
	<path d="M 1425.0,1032.0 C 1413.42,1049.17 1400.15,1063.25 1383.0,1075.0" style="stroke:#010101; fill:none;"/>
	<path d="M 1532.0,1032.0 L 1518.0,1042.0" style="stroke:#010101; fill:none;"/>
	<path d="M 1598.0,1033.0 L 1603.0,1041.0" style="stroke:#010101; fill:none;"/>
	<path d="M 1596.0,1034.0 C 1592.21,1045.9 1581.38,1052.44 1571.0,1058.0" style="stroke:#010101; fill:none;"/>
	<path d="M 1408.0,1035.0 C 1397.65,1044.03 1378.4,1054.85 1372.03,1067.04 C 1369.77,1071.36 1371.17,1078.24 1371.0,1083.0 C 1370.73,1090.0 1368.84,1097.45 1366.41,1104.0 C 1364.99,1107.83 1357.08,1126.67 1352.0,1120.0" style="stroke:#010101; fill:none;"/>
	<path d="M 1506.0,1036.0 L 1494.0,1050.0" style="stroke:#010101; fill:none;"/>
	<path d="M 1579.0,1040.0 C 1584.66,1039.04 1587.86,1037.62 1593.0,1041.0" style="stroke:#010101; fill:none;"/>
	<path d="M 1514.0,1040.0 L 1510.0,1044.0" style="stroke:#010101; fill:none;"/>
	<path d="M 1440.0,1048.0 L 1448.0,1041.0" style="stroke:#010101; fill:none;"/>
	<path d="M 1482.0,1041.0 C 1473.35,1052.35 1457.81,1066.71 1443.0,1068.0" style="stroke:#010101; fill:none;"/>
	<path d="M 1463.0,1042.0 C 1461.23,1047.21 1458.7,1056.36 1452.0,1055.0" style="stroke:#010101; fill:none;"/>
	<path d="M 1494.0,1045.0 L 1496.0,1047.0" style="stroke:#010101; fill:none;"/>
	<path d="M 1437.0,1047.0 L 1436.0,1051.0" style="stroke:#010101; fill:none;"/>
	<path d="M 1609.0,1049.0 C 1607.2,1061.19 1599.13,1069.54 1592.0,1079.0" style="stroke:#010101; fill:none;"/>
	<path d="M 1429.0,1050.0 C 1423.82,1058.25 1416.48,1066.33 1412.31,1075.01 C 1407.61,1084.83 1406.43,1095.64 1400.2,1105.0 C 1395.7,1111.76 1383.33,1120.48 1376.0,1124.0" style="stroke:#010101; fill:none;"/>
	<path d="M 1420.0,1051.0 L 1421.0,1059.0" style="stroke:#010101; fill:none;"/>
	<path d="M 1436.0,1051.0 L 1430.0,1078.0 C 1435.3,1075.14 1440.72,1068.13 1439.0,1062.0" style="stroke:#010101; fill:none;"/>
	<path d="M 1485.0,1053.0 L 1487.0,1055.0" style="stroke:#010101; fill:none;"/>
	<path d="M 1413.0,1059.0 L 1389.85,1083.29 L 1378.32,1116.91 L 1364.0,1125.0" style="stroke:#010101; fill:none;"/>
	<path d="M 1454.0,1077.0 L 1481.0,1059.0" style="stroke:#010101; fill:none;"/>
	<path d="M 1415.0,1061.0 L 1414.0,1069.0" style="stroke:#010101; fill:none;"/>
	<path d="M 1443.0,1061.0 L 1441.0,1063.0" style="stroke:#010101; fill:none;"/>
	<path d="M 1282.0,1062.0 C 1297.17,1092.05 1309.64,1121.62 1334.0,1146.0" style="stroke:#010101; fill:none;"/>
	<path d="M 1728.0,1073.0 L 1732.0,1063.0 C 1760.64,1099.22 1770.93,1147.24 1784.59,1190.0 C 1795.77,1224.95 1810.21,1263.25 1790.0,1298.0" style="stroke:#010101; fill:none;"/>
	<path d="M 1621.0,1066.0 L 1633.0,1064.0" style="stroke:#010101; fill:none;"/>
	<path d="M 1418.0,1071.0 C 1414.47,1083.45 1410.81,1097.18 1402.0,1107.0" style="stroke:#010101; fill:none;"/>
	<path d="M 1606.0,1075.0 L 1592.0,1086.0 L 1607.0,1090.0" style="stroke:#010101; fill:none;"/>
	<path d="M 1358.0,1076.0 C 1362.29,1087.72 1357.25,1101.9 1357.0,1114.0" style="stroke:#010101; fill:none;"/>
	<path d="M 1399.0,1076.0 L 1388.0,1113.0" style="stroke:#010101; fill:none;"/>
	<path d="M 1637.0,1076.0 C 1629.13,1082.0 1622.53,1082.0 1613.0,1082.0" style="stroke:#010101; fill:none;"/>
	<path d="M 1378.0,1077.0 C 1378.0,1091.29 1376.11,1105.93 1370.0,1119.0" style="stroke:#010101; fill:none;"/>
	<path d="M 1423.0,1077.0 C 1425.68,1079.58 1426.73,1079.75 1430.0,1078.0" style="stroke:#010101; fill:none;"/>
	<path d="M 1548.0,1078.0 L 1563.0,1082.0" style="stroke:#010101; fill:none;"/>
	<path d="M 1397.0,1093.0 L 1410.0,1079.0" style="stroke:#010101; fill:none;"/>
	<path d="M 1448.0,1132.0 C 1459.32,1142.1 1472.43,1129.54 1477.98,1120.09 C 1480.51,1115.78 1483.69,1114.34 1482.0,1109.0 C 1468.05,1116.57 1455.16,1120.7 1443.0,1132.05 C 1439.6,1135.22 1434.47,1139.27 1433.31,1144.0 C 1432.01,1149.37 1437.82,1155.04 1443.04,1154.64 C 1454.77,1153.76 1468.82,1146.75 1479.0,1141.21 C 1497.04,1131.39 1509.35,1112.78 1522.91,1098.0 C 1529.0,1091.37 1532.02,1082.64 1541.0,1080.0" style="stroke:#010101; fill:none;"/>
	<path d="M 1621.0,1088.0 L 1651.0,1080.0" style="stroke:#010101; fill:none;"/>
	<path d="M 1427.0,1081.0 L 1419.0,1097.0" style="stroke:#010101; fill:none;"/>
	<path d="M 1562.0,1084.0 C 1568.73,1090.87 1581.85,1084.66 1589.0,1081.0" style="stroke:#010101; fill:none;"/>
	<path d="M 1497.0,1096.0 L 1533.0,1083.0" style="stroke:#010101; fill:none;"/>
	<path d="M 1382.0,1086.0 L 1388.0,1084.0" style="stroke:#010101; fill:none;"/>
	<path d="M 1575.0,1090.0 L 1592.0,1086.0" style="stroke:#010101; fill:none;"/>
	<path d="M 1353.0,1089.0 L 1344.0,1106.0" style="stroke:#010101; fill:none;"/>
	<path d="M 1583.0,1097.0 C 1590.26,1109.74 1609.42,1093.99 1619.0,1091.91 C 1625.61,1090.48 1631.8,1094.3 1637.0,1098.0" style="stroke:#010101; fill:none;"/>
	<path d="M 1571.0,1092.0 L 1562.0,1124.0" style="stroke:#010101; fill:none;"/>
	<path d="M 1735.0,1094.0 L 1744.0,1099.0" style="stroke:#010101; fill:none;"/>
	<path d="M 1578.0,1096.0 L 1581.0,1116.0" style="stroke:#010101; fill:none;"/>
	<path d="M 1489.0,1098.0 L 1486.0,1100.0" style="stroke:#010101; fill:none;"/>
	<path d="M 1494.0,1098.0 C 1498.12,1104.81 1500.5,1108.93 1499.0,1117.0" style="stroke:#010101; fill:none;"/>
	<path d="M 1367.0,1170.0 L 1368.45,1188.71 L 1378.0,1202.0 C 1395.79,1180.35 1404.95,1152.32 1424.17,1131.0 C 1436.86,1116.93 1456.63,1106.23 1474.0,1099.0" style="stroke:#010101; fill:none;"/>
	<path d="M 1500.0,1099.0 L 1501.0,1099.0" style="stroke:#010101; fill:none;"/>
	<path d="M 1505.0,1099.0 L 1508.0,1101.0" style="stroke:#010101; fill:none;"/>
	<path d="M 1484.0,1101.0 L 1468.0,1112.0" style="stroke:#010101; fill:none;"/>
	<path d="M 1647.0,1101.0 L 1662.0,1107.0" style="stroke:#010101; fill:none;"/>
	<path d="M 1490.0,1103.0 L 1492.0,1105.0" style="stroke:#010101; fill:none;"/>
	<path d="M 1599.0,1105.0 C 1607.07,1104.93 1614.88,1102.82 1623.0,1103.52 C 1639.84,1104.96 1657.65,1113.54 1672.0,1122.0" style="stroke:#010101; fill:none;"/>
	<path d="M 1485.0,1104.0 L 1484.0,1110.0" style="stroke:#010101; fill:none;"/>
	<path d="M 1550.0,1105.0 C 1541.8,1120.37 1533.26,1133.61 1517.0,1142.0" style="stroke:#010101; fill:none;"/>
	<path d="M 1488.0,1106.0 L 1489.0,1107.0" style="stroke:#010101; fill:none;"/>
	<path d="M 1481.0,1111.0 L 1483.0,1113.0" style="stroke:#010101; fill:none;"/>
	<path d="M 1747.0,1114.0 L 1766.0,1179.0" style="stroke:#010101; fill:none;"/>
	<path d="M 1736.0,1116.0 L 1737.0,1116.0" style="stroke:#010101; fill:none;"/>
	<path d="M 1736.0,1120.0 C 1735.37,1129.34 1736.32,1141.71 1730.91,1149.89 C 1726.77,1156.17 1712.96,1157.42 1714.03,1168.0 C 1715.27,1180.16 1728.76,1197.81 1735.31,1208.0 C 1748.01,1227.77 1757.49,1249.73 1769.55,1270.0 C 1778.05,1284.29 1783.24,1300.51 1791.42,1315.0 C 1822.86,1370.68 1857.0,1429.07 1857.0,1495.0" style="stroke:#010101; fill:none;"/>
	<path d="M 1585.0,1122.0 C 1565.14,1147.04 1548.9,1176.93 1524.0,1197.67 C 1511.94,1207.72 1497.67,1212.1 1484.0,1219.0" style="stroke:#010101; fill:none;"/>
	<path d="M 1733.0,1122.0 L 1734.0,1123.0" style="stroke:#010101; fill:none;"/>
	<path d="M 1450.0,1129.0 L 1450.0,1132.0" style="stroke:#010101; fill:none;"/>
	<path d="M 1229.0,1134.0 C 1236.37,1159.57 1255.35,1183.83 1248.0,1212.0" style="stroke:#010101; fill:none;"/>
	<path d="M 1555.0,1135.0 C 1549.61,1143.8 1544.62,1151.99 1536.0,1158.0" style="stroke:#010101; fill:none;"/>
	<path d="M 1440.0,1142.0 C 1441.63,1139.54 1442.44,1138.15 1445.0,1140.0" style="stroke:#010101; fill:none;"/>
	<path d="M 1748.0,1137.0 L 1748.0,1138.0" style="stroke:#010101; fill:none;"/>
	<path d="M 1725.0,1140.0 L 1732.0,1148.0" style="stroke:#010101; fill:none;"/>
	<path d="M 1747.0,1140.0 L 1748.0,1156.0" style="stroke:#010101; fill:none;"/>
	<path d="M 1439.0,1155.0 L 1409.0,1181.0 C 1407.53,1176.04 1410.99,1172.93 1413.85,1169.0 C 1419.64,1161.02 1424.57,1151.59 1432.0,1145.0" style="stroke:#010101; fill:none;"/>
	<path d="M 1510.0,1145.0 C 1488.36,1159.72 1463.01,1175.82 1436.0,1177.0" style="stroke:#010101; fill:none;"/>
	<path d="M 1339.0,1153.0 C 1346.12,1159.54 1354.22,1165.53 1364.0,1167.0" style="stroke:#010101; fill:none;"/>
	<path d="M 1749.0,1158.0 C 1750.52,1168.32 1755.22,1181.72 1767.0,1183.0" style="stroke:#010101; fill:none;"/>
	<path d="M 1531.0,1161.0 C 1509.88,1182.11 1483.09,1197.18 1457.0,1211.31 C 1446.05,1217.24 1432.57,1225.74 1420.0,1227.0" style="stroke:#010101; fill:none;"/>
	<path d="M 1531.0,1164.0 C 1523.43,1183.97 1501.49,1199.47 1484.0,1210.19 C 1476.68,1214.67 1468.76,1219.6 1460.0,1220.0" style="stroke:#010101; fill:none;"/>
	<path d="M 1724.0,1176.0 C 1740.34,1185.64 1752.66,1196.86 1747.0,1217.0" style="stroke:#010101; fill:none;"/>
	<path d="M 1406.0,1180.0 L 1408.0,1181.0" style="stroke:#010101; fill:none;"/>
	<path d="M 1357.0,1187.0 L 1367.0,1189.0" style="stroke:#010101; fill:none;"/>
	<path d="M 1435.0,1188.0 L 1424.0,1196.0" style="stroke:#010101; fill:none;"/>
	<path d="M 1412.0,1190.0 L 1393.0,1206.0" style="stroke:#010101; fill:none;"/>
	<path d="M 1769.0,1191.0 L 1773.0,1195.0" style="stroke:#010101; fill:none;"/>
	<path d="M 1773.0,1197.0 L 1773.0,1201.0" style="stroke:#010101; fill:none;"/>
	<path d="M 1378.0,1202.0 L 1378.0,1204.0" style="stroke:#010101; fill:none;"/>
	<path d="M 1134.0,1209.0 C 1152.68,1209.05 1183.62,1215.07 1194.0,1232.0" style="stroke:#010101; fill:none;"/>
	<path d="M 1174.0,1210.0 L 1193.0,1223.0" style="stroke:#010101; fill:none;"/>
	<path d="M 1127.0,1211.0 C 1141.97,1216.08 1160.74,1214.67 1174.0,1224.0" style="stroke:#010101; fill:none;"/>
	<path d="M 1376.0,1211.0 L 1387.0,1224.0" style="stroke:#010101; fill:none;"/>
	<path d="M 1116.0,1219.0 C 1128.6,1219.0 1150.85,1224.47 1162.0,1219.0" style="stroke:#010101; fill:none;"/>
	<path d="M 1161.0,1220.0 L 1165.0,1222.0 L 1165.0,1220.0" style="stroke:#010101; fill:none;"/>
	<path d="M 1172.0,1222.0 L 1142.0,1231.0 L 1176.0,1228.0" style="stroke:#010101; fill:none;"/>
	<path d="M 1099.0,1231.0 L 1098.33,1233.0 L 1132.0,1224.0" style="stroke:#010101; fill:none;"/>
	<path d="M 1192.0,1230.0 C 1181.39,1237.22 1168.95,1234.51 1157.0,1234.0" style="stroke:#010101; fill:none;"/>
	<path d="M 1242.0,1230.0 L 1237.0,1239.0" style="stroke:#010101; fill:none;"/>
	<path d="M 1132.0,1233.0 L 1142.0,1231.0" style="stroke:#010101; fill:none;"/>
	<path d="M 1094.0,1233.0 L 1080.0,1237.0" style="stroke:#010101; fill:none;"/>
	<path d="M 1136.0,1232.0 L 1137.0,1233.0" style="stroke:#010101; fill:none;"/>
	<path d="M 1091.0,1235.0 L 1094.0,1233.0" style="stroke:#010101; fill:none;"/>
	<path d="M 1124.0,1235.0 L 1117.0,1236.0 L 1130.0,1234.0" style="stroke:#010101; fill:none;"/>
	<path d="M 1091.0,1236.0 C 1075.45,1245.89 1056.55,1250.28 1046.0,1267.0 L 1065.0,1256.88 L 1118.0,1238.0" style="stroke:#010101; fill:none;"/>
	<path d="M 1066.0,1254.0 C 1081.0,1245.78 1099.96,1238.3 1117.0,1236.0" style="stroke:#010101; fill:none;"/>
	<path d="M 1112.0,1244.0 C 1136.38,1234.61 1165.25,1237.49 1189.0,1248.0 C 1174.0,1258.02 1151.91,1256.88 1135.0,1262.52 C 1120.56,1267.33 1110.39,1277.37 1097.0,1283.45 C 1080.6,1290.9 1062.12,1293.86 1046.0,1302.0" style="stroke:#010101; fill:none;"/>
	<path d="M 1198.0,1239.0 C 1196.21,1242.1 1193.64,1245.46 1197.0,1248.0" style="stroke:#010101; fill:none;"/>
	<path d="M 1024.0,1279.0 L 1021.0,1283.0 C 1022.08,1276.69 1029.13,1271.71 1034.0,1267.88 C 1046.52,1258.05 1059.23,1246.37 1074.0,1240.0" style="stroke:#010101; fill:none;"/>
	<path d="M 1236.0,1241.0 C 1230.31,1253.17 1223.34,1264.97 1211.0,1271.0" style="stroke:#010101; fill:none;"/>
	<path d="M 1104.0,1253.0 C 1123.36,1247.56 1150.28,1240.76 1170.0,1247.0" style="stroke:#010101; fill:none;"/>
	<path d="M 1189.0,1248.0 L 1193.0,1248.0" style="stroke:#010101; fill:none;"/>
	<path d="M 1086.0,1252.0 L 1087.0,1252.0" style="stroke:#010101; fill:none;"/>
	<path d="M 1045.0,1268.0 C 1032.93,1274.01 1030.54,1283.56 1023.0,1293.0 C 1029.19,1292.16 1034.47,1287.58 1040.0,1284.81 C 1050.84,1279.39 1061.84,1274.19 1073.0,1269.43 C 1101.56,1257.25 1131.03,1252.0 1162.0,1252.0" style="stroke:#010101; fill:none;"/>
	<path d="M 1402.0,1253.0 L 1422.44,1298.0 L 1451.0,1340.0" style="stroke:#010101; fill:none;"/>
	<path d="M 1145.0,1255.0 L 1117.0,1264.43 L 1104.0,1269.0 L 1111.0,1265.0 L 1106.0,1264.0" style="stroke:#010101; fill:none;"/>
	<path d="M 987.0,1332.0 C 993.276,1322.77 999.627,1313.33 1007.08,1305.0 C 1011.27,1300.32 1017.16,1295.69 1017.0,1289.0 C 1044.92,1280.81 1069.11,1260.41 1099.0,1256.0" style="stroke:#010101; fill:none;"/>
	<path d="M 1233.0,1257.0 L 1230.0,1260.0" style="stroke:#010101; fill:none;"/>
	<path d="M 1065.0,1258.0 L 1067.0,1257.0" style="stroke:#010101; fill:none;"/>
	<path d="M 1117.0,1263.0 L 1129.0,1258.0" style="stroke:#010101; fill:none;"/>
	<path d="M 1252.0,1260.0 L 1238.0,1264.0" style="stroke:#010101; fill:none;"/>
	<path d="M 1199.0,1261.0 L 1194.0,1270.0" style="stroke:#010101; fill:none;"/>
	<path d="M 1104.0,1269.0 C 1092.71,1270.94 1081.57,1277.24 1071.0,1281.55 C 1065.67,1283.73 1061.35,1287.3 1056.0,1284.0 C 1068.74,1275.45 1089.77,1267.06 1105.0,1265.0" style="stroke:#010101; fill:none;"/>
	<path d="M 1111.0,1266.0 L 1113.0,1265.0" style="stroke:#010101; fill:none;"/>
	<path d="M 1048.0,1268.0 L 1043.0,1269.0" style="stroke:#010101; fill:none;"/>
	<path d="M 1235.0,1270.0 C 1247.6,1277.59 1256.06,1283.08 1271.0,1283.0" style="stroke:#010101; fill:none;"/>
	<path d="M 1040.0,1271.0 L 1045.0,1272.0" style="stroke:#010101; fill:none;"/>
	<path d="M 1105.0,1271.0 L 1095.0,1277.0" style="stroke:#010101; fill:none;"/>
	<path d="M 1032.0,1278.0 L 1030.0,1276.0 L 1032.0,1274.0 L 1034.0,1276.0" style="stroke:#010101; fill:none;"/>
	<path d="M 1043.0,1274.0 L 1041.0,1276.0" style="stroke:#010101; fill:none;"/>
	<path d="M 1106.0,1279.0 L 1119.0,1275.0" style="stroke:#010101; fill:none;"/>
	<path d="M 1024.0,1277.0 L 1026.0,1279.0 L 1030.0,1276.0" style="stroke:#010101; fill:none;"/>
	<path d="M 1087.0,1276.0 L 1082.0,1277.0" style="stroke:#010101; fill:none;"/>
	<path d="M 1028.0,1278.0 L 1030.0,1280.0" style="stroke:#010101; fill:none;"/>
	<path d="M 1083.0,1279.0 C 1076.34,1285.08 1052.45,1299.57 1044.0,1295.0 L 1036.0,1300.0 L 1041.0,1298.0" style="stroke:#010101; fill:none;"/>
	<path d="M 1232.0,1279.0 L 1216.0,1288.0" style="stroke:#010101; fill:none;"/>
	<path d="M 1182.0,1280.0 L 1167.0,1289.0" style="stroke:#010101; fill:none;"/>
	<path d="M 1081.0,1281.0 L 1089.0,1281.0" style="stroke:#010101; fill:none;"/>
	<path d="M 1020.0,1282.0 L 1003.0,1297.0 C 1008.47,1299.4 1011.68,1294.04 1016.0,1291.0" style="stroke:#010101; fill:none;"/>
	<path d="M 1239.0,1283.0 C 1216.03,1297.62 1184.32,1298.0 1158.0,1298.0" style="stroke:#010101; fill:none;"/>
	<path d="M 1024.0,1299.0 C 1032.54,1293.16 1045.8,1285.82 1056.0,1284.0" style="stroke:#010101; fill:none;"/>
	<path d="M 1045.0,1295.0 L 1057.0,1287.0" style="stroke:#010101; fill:none;"/>
	<path d="M 1015.0,1288.0 L 1017.0,1290.0" style="stroke:#010101; fill:none;"/>
	<path d="M 1022.0,1288.0 L 1026.0,1291.0" style="stroke:#010101; fill:none;"/>
	<path d="M 1248.0,1288.0 L 1259.0,1303.0" style="stroke:#010101; fill:none;"/>
	<path d="M 1021.0,1290.0 C 1018.39,1301.22 1007.02,1311.86 1000.0,1321.0" style="stroke:#010101; fill:none;"/>
	<path d="M 1007.0,1295.0 L 1009.0,1297.0" style="stroke:#010101; fill:none;"/>
	<path d="M 1017.0,1295.0 L 1019.0,1297.0" style="stroke:#010101; fill:none;"/>
	<path d="M 1042.0,1297.0 L 1046.0,1297.0" style="stroke:#010101; fill:none;"/>
	<path d="M 953.0,1334.0 C 967.885,1322.78 984.888,1303.34 1003.0,1298.0" style="stroke:#010101; fill:none;"/>
	<path d="M 1013.0,1298.0 L 1015.0,1300.0" style="stroke:#010101; fill:none;"/>
	<path d="M 1084.0,1353.0 C 1086.23,1349.97 1087.51,1348.57 1086.0,1345.0 C 1074.46,1353.48 1062.32,1362.09 1052.1,1372.17 C 1047.88,1376.34 1044.78,1383.59 1038.0,1381.0 C 1055.3,1351.78 1086.86,1334.9 1115.0,1317.54 C 1125.62,1310.98 1135.75,1302.38 1148.0,1299.0" style="stroke:#010101; fill:none;"/>
	<path d="M 1001.0,1300.0 L 998.0,1309.0 L 1006.0,1300.0" style="stroke:#010101; fill:none;"/>
	<path d="M 1037.0,1302.0 L 1035.0,1304.0 L 1033.0,1302.0 L 1036.0,1300.0" style="stroke:#010101; fill:none;"/>
	<path d="M 1032.0,1319.0 L 1030.0,1317.0 L 1047.0,1305.56 L 1063.0,1300.0" style="stroke:#010101; fill:none;"/>
	<path d="M 1011.0,1302.0 L 1013.0,1304.0" style="stroke:#010101; fill:none;"/>
	<path d="M 1043.0,1308.0 L 1031.0,1309.0 L 1033.0,1302.0" style="stroke:#010101; fill:none;"/>
	<path d="M 982.0,1346.0 L 1012.29,1319.1 L 1031.0,1303.0" style="stroke:#010101; fill:none;"/>
	<path d="M 1045.0,1309.0 L 1059.0,1304.0" style="stroke:#010101; fill:none;"/>
	<path d="M 1026.0,1306.0 L 1031.0,1307.0" style="stroke:#010101; fill:none;"/>
	<path d="M 1140.0,1322.0 L 1139.0,1318.0 C 1150.5,1316.35 1171.3,1301.9 1182.0,1312.0 L 1208.0,1306.0" style="stroke:#010101; fill:none;"/>
	<path d="M 996.0,1307.0 L 989.0,1319.0 C 977.644,1312.06 968.294,1334.22 957.0,1332.0" style="stroke:#010101; fill:none;"/>
	<path d="M 994.0,1309.0 L 998.0,1309.0" style="stroke:#010101; fill:none;"/>
	<path d="M 1025.0,1309.0 L 1027.0,1308.0" style="stroke:#010101; fill:none;"/>
	<path d="M 1031.0,1309.0 L 1022.0,1315.0" style="stroke:#010101; fill:none;"/>
	<path d="M 1182.0,1309.0 L 1183.0,1309.0" style="stroke:#010101; fill:none;"/>
	<path d="M 993.0,1311.0 L 991.0,1316.0" style="stroke:#010101; fill:none;"/>
	<path d="M 1134.0,1312.0 L 1133.0,1313.0" style="stroke:#010101; fill:none;"/>
	<path d="M 1072.0,1357.0 C 1073.09,1360.06 1072.84,1364.87 1075.65,1367.0 C 1082.6,1372.26 1098.79,1362.1 1105.0,1358.89 C 1122.05,1350.08 1135.22,1336.66 1151.0,1326.09 C 1160.37,1319.81 1171.08,1317.01 1181.0,1312.0" style="stroke:#010101; fill:none;"/>
	<path d="M 985.0,1316.0 L 989.0,1316.0" style="stroke:#010101; fill:none;"/>
	<path d="M 1017.0,1317.0 L 1021.0,1316.0" style="stroke:#010101; fill:none;"/>
	<path d="M 988.0,1317.0 L 988.0,1319.0" style="stroke:#010101; fill:none;"/>
	<path d="M 1022.0,1318.0 C 1017.49,1325.35 1004.58,1332.45 1006.0,1342.0 L 1017.0,1335.0 L 1017.0,1336.0 L 1016.0,1337.0 L 1015.0,1338.0 L 1014.0,1337.0" style="stroke:#010101; fill:none;"/>
	<path d="M 1022.0,1322.0 L 1029.0,1318.0" style="stroke:#010101; fill:none;"/>
	<path d="M 1128.0,1318.0 L 1131.0,1322.0 L 1138.0,1319.0" style="stroke:#010101; fill:none;"/>
	<path d="M 1145.0,1318.0 L 1148.0,1326.0" style="stroke:#010101; fill:none;"/>
	<path d="M 987.0,1320.0 C 985.725,1323.49 985.179,1327.34 981.0,1327.0 L 980.0,1335.0 L 977.0,1339.0" style="stroke:#010101; fill:none;"/>
	<path d="M 1031.0,1320.0 L 1017.0,1335.0" style="stroke:#010101; fill:none;"/>
	<path d="M 984.0,1326.0 L 985.0,1323.0" style="stroke:#010101; fill:none;"/>
	<path d="M 1036.0,1323.0 L 1004.0,1361.0 C 1003.66,1356.68 1005.26,1352.66 1010.0,1353.0" style="stroke:#010101; fill:none;"/>
	<path d="M 1130.0,1325.0 L 1128.0,1329.0 L 1125.0,1324.0 L 1136.0,1325.0" style="stroke:#010101; fill:none;"/>
	<path d="M 1128.0,1329.0 C 1122.15,1332.57 1111.71,1337.44 1105.0,1335.0 L 1125.0,1324.0" style="stroke:#010101; fill:none;"/>
	<path d="M 983.0,1325.0 L 981.0,1327.0" style="stroke:#010101; fill:none;"/>
	<path d="M 983.0,1330.0 L 979.0,1334.0" style="stroke:#010101; fill:none;"/>
	<path d="M 978.0,1336.0 L 978.0,1331.0 L 980.0,1333.0" style="stroke:#010101; fill:none;"/>
	<path d="M 1009.0,1334.0 L 1010.0,1331.0" style="stroke:#010101; fill:none;"/>
	<path d="M 959.0,1349.0 L 977.0,1332.0" style="stroke:#010101; fill:none;"/>
	<path d="M 1004.0,1341.0 C 995.713,1339.89 984.821,1355.66 978.0,1360.0 C 979.812,1349.39 998.234,1337.48 1007.0,1332.0" style="stroke:#010101; fill:none;"/>
	<path d="M 1124.0,1332.0 C 1121.78,1339.48 1111.03,1350.58 1102.05,1348.07 C 1098.57,1347.1 1096.26,1342.57 1094.0,1340.0 L 1087.0,1345.0" style="stroke:#010101; fill:none;"/>
	<path d="M 1501.0,1333.0 L 1576.0,1353.0" style="stroke:#010101; fill:none;"/>
	<path d="M 958.0,1334.0 L 952.0,1339.0" style="stroke:#010101; fill:none;"/>
	<path d="M 1491.0,1334.0 C 1511.99,1340.08 1545.32,1357.27 1546.62,1382.0 C 1547.25,1393.79 1540.39,1406.45 1536.0,1417.0" style="stroke:#010101; fill:none;"/>
	<path d="M 1106.0,1337.0 L 1101.0,1336.0 L 1104.0,1334.0" style="stroke:#010101; fill:none;"/>
	<path d="M 976.0,1336.0 L 976.0,1337.0" style="stroke:#010101; fill:none;"/>
	<path d="M 1095.0,1340.0 L 1101.0,1336.0" style="stroke:#010101; fill:none;"/>
	<path d="M 878.0,1337.0 L 879.0,1341.0" style="stroke:#010101; fill:none;"/>
	<path d="M 975.0,1339.0 L 973.0,1345.0 L 976.0,1341.0" style="stroke:#010101; fill:none;"/>
	<path d="M 1015.0,1339.0 L 1008.0,1351.0" style="stroke:#010101; fill:none;"/>
	<path d="M 1103.0,1339.0 L 1098.0,1344.0" style="stroke:#010101; fill:none;"/>
	<path d="M 1218.0,1350.0 L 1234.0,1339.0" style="stroke:#010101; fill:none;"/>
	<path d="M 1004.0,1341.0 L 1002.0,1346.0 L 1007.0,1342.0" style="stroke:#010101; fill:none;"/>
	<path d="M 1003.0,1342.0 L 1005.0,1344.0" style="stroke:#010101; fill:none;"/>
	<path d="M 880.0,1343.0 L 881.0,1348.0" style="stroke:#010101; fill:none;"/>
	<path d="M 1095.0,1344.0 L 1093.0,1349.0 L 1092.0,1346.0" style="stroke:#010101; fill:none;"/>
	<path d="M 970.0,1345.0 L 972.0,1348.0 L 973.0,1345.0" style="stroke:#010101; fill:none;"/>
	<path d="M 970.0,1351.0 L 960.0,1366.0 C 958.409,1359.47 963.177,1350.19 969.0,1347.0 L 972.0,1349.0" style="stroke:#010101; fill:none;"/>
	<path d="M 1001.0,1347.0 L 975.0,1394.0" style="stroke:#010101; fill:none;"/>
	<path d="M 882.0,1350.0 C 889.158,1371.16 900.239,1392.41 914.015,1410.0 C 919.22,1416.65 924.462,1424.77 933.0,1427.0" style="stroke:#010101; fill:none;"/>
	<path d="M 968.0,1350.0 L 968.0,1352.0" style="stroke:#010101; fill:none;"/>
	<path d="M 1089.0,1350.0 L 1090.0,1354.0 L 1093.0,1350.0" style="stroke:#010101; fill:none;"/>
	<path d="M 1472.0,1353.0 C 1489.16,1370.16 1505.12,1386.02 1503.0,1412.0" style="stroke:#010101; fill:none;"/>
	<path d="M 1081.0,1354.0 L 1085.0,1358.0" style="stroke:#010101; fill:none;"/>
	<path d="M 1222.0,1357.0 L 1217.0,1363.0" style="stroke:#010101; fill:none;"/>
	<path d="M 1075.0,1359.0 L 1080.0,1359.0" style="stroke:#010101; fill:none;"/>
	<path d="M 977.0,1359.0 L 974.0,1362.0" style="stroke:#010101; fill:none;"/>
	<path d="M 978.0,1360.0 L 966.0,1380.0" style="stroke:#010101; fill:none;"/>
	<path d="M 975.0,1361.0 L 977.0,1363.0" style="stroke:#010101; fill:none;"/>
	<path d="M 994.0,1361.0 L 994.0,1364.0" style="stroke:#010101; fill:none;"/>
	<path d="M 1002.0,1362.0 L 996.0,1377.0 L 1015.0,1366.0" style="stroke:#010101; fill:none;"/>
	<path d="M 1070.0,1362.0 L 1067.0,1371.0 L 1075.0,1368.0" style="stroke:#010101; fill:none;"/>
	<path d="M 1066.0,1363.0 L 1063.0,1370.0" style="stroke:#010101; fill:none;"/>
	<path d="M 958.0,1366.0 L 959.0,1369.0 L 960.0,1366.0" style="stroke:#010101; fill:none;"/>
	<path d="M 984.0,1366.0 C 980.285,1371.94 976.469,1377.67 973.412,1384.0 C 972.363,1386.17 969.877,1390.45 973.0,1391.0" style="stroke:#010101; fill:none;"/>
	<path d="M 1061.0,1367.0 L 1059.0,1373.0 L 1067.0,1371.0" style="stroke:#010101; fill:none;"/>
	<path d="M 1110.0,1367.0 L 1112.0,1370.0 L 1117.0,1368.0" style="stroke:#010101; fill:none;"/>
	<path d="M 973.0,1414.0 C 987.099,1396.24 1004.47,1372.92 1028.0,1368.0" style="stroke:#010101; fill:none;"/>
	<path d="M 1103.0,1370.0 L 1106.0,1370.0" style="stroke:#010101; fill:none;"/>
	<path d="M 1059.0,1373.0 L 1048.0,1378.0" style="stroke:#010101; fill:none;"/>
	<path d="M 1217.0,1373.0 L 1204.0,1390.0" style="stroke:#010101; fill:none;"/>
	<path d="M 1090.0,1375.0 L 1085.0,1381.0" style="stroke:#010101; fill:none;"/>
	<path d="M 996.0,1377.0 C 992.246,1381.92 987.914,1386.88 991.0,1393.0" style="stroke:#010101; fill:none;"/>
	<path d="M 1124.0,1377.0 L 1110.0,1385.0" style="stroke:#010101; fill:none;"/>
	<path d="M 971.0,1426.0 C 983.962,1409.14 997.481,1387.96 1017.0,1378.0" style="stroke:#010101; fill:none;"/>
	<path d="M 1065.0,1378.0 L 1057.0,1389.0" style="stroke:#010101; fill:none;"/>
	<path d="M 1081.0,1380.0 L 1079.0,1385.0" style="stroke:#010101; fill:none;"/>
	<path d="M 1075.0,1381.0 L 1072.0,1383.0" style="stroke:#010101; fill:none;"/>
	<path d="M 1038.0,1382.0 C 1026.42,1394.49 1027.7,1408.38 1022.14,1423.0 C 1019.88,1428.93 1014.86,1433.39 1012.0,1439.0 C 1032.25,1437.46 1029.59,1416.77 1029.0,1403.0" style="stroke:#010101; fill:none;"/>
	<path d="M 923.0,1385.0 C 926.476,1393.05 932.412,1401.98 942.0,1398.0" style="stroke:#010101; fill:none;"/>
	<path d="M 1201.0,1386.0 C 1188.79,1403.95 1173.65,1417.67 1154.0,1427.18 C 1148.27,1429.95 1141.77,1430.88 1136.04,1433.51 C 1131.84,1435.43 1129.4,1439.78 1125.0,1441.44 C 1116.3,1444.72 1102.89,1440.29 1095.21,1444.98 C 1089.39,1448.53 1083.96,1457.73 1079.56,1463.0 C 1070.71,1473.64 1061.61,1484.07 1053.12,1495.0 C 1049.51,1499.63 1044.19,1504.38 1042.18,1510.0 C 1038.64,1519.87 1040.51,1531.53 1036.0,1542.0" style="stroke:#010101; fill:none;"/>
	<path d="M 988.0,1387.0 C 981.342,1393.8 973.725,1402.74 971.0,1412.0" style="stroke:#010101; fill:none;"/>
	<path d="M 1051.0,1391.0 L 1048.0,1393.0" style="stroke:#010101; fill:none;"/>
	<path d="M 988.0,1392.0 L 988.0,1394.0" style="stroke:#010101; fill:none;"/>
	<path d="M 970.0,1393.0 L 966.0,1424.0" style="stroke:#010101; fill:none;"/>
	<path d="M 1057.0,1397.0 L 1095.0,1393.0" style="stroke:#010101; fill:none;"/>
	<path d="M 1006.0,1395.0 L 980.0,1423.0" style="stroke:#010101; fill:none;"/>
	<path d="M 1037.0,1400.0 L 1036.0,1402.0" style="stroke:#010101; fill:none;"/>
	<path d="M 988.0,1404.0 L 993.0,1410.0" style="stroke:#010101; fill:none;"/>
	<path d="M 988.0,1420.0 L 1003.0,1409.0" style="stroke:#010101; fill:none;"/>
	<path d="M 993.0,1410.0 L 996.0,1412.0" style="stroke:#010101; fill:none;"/>
	<path d="M 1045.0,1411.0 L 1061.0,1424.0" style="stroke:#010101; fill:none;"/>
	<path d="M 1172.0,1411.0 L 1155.0,1417.0" style="stroke:#010101; fill:none;"/>
	<path d="M 1089.0,1412.0 C 1103.72,1425.12 1125.1,1423.69 1143.0,1420.0" style="stroke:#010101; fill:none;"/>
	<path d="M 1503.0,1414.0 L 1501.0,1432.0" style="stroke:#010101; fill:none;"/>
	<path d="M 1007.0,1418.0 L 1015.0,1416.0" style="stroke:#010101; fill:none;"/>
	<path d="M 1531.0,1417.0 C 1523.27,1423.93 1517.53,1437.66 1517.0,1448.0" style="stroke:#010101; fill:none;"/>
	<path d="M 1033.0,1422.0 L 1043.0,1430.0" style="stroke:#010101; fill:none;"/>
	<path d="M 1105.0,1426.0 C 1114.3,1431.4 1123.5,1432.0 1134.0,1432.0" style="stroke:#010101; fill:none;"/>
	<path d="M 1325.0,1525.0 C 1301.66,1511.17 1299.89,1488.55 1301.88,1464.0 C 1302.96,1450.7 1304.82,1436.78 1318.0,1429.0" style="stroke:#010101; fill:none;"/>
	<path d="M 1341.0,1431.0 L 1346.0,1434.0" style="stroke:#010101; fill:none;"/>
	<path d="M 941.0,1438.0 L 968.911,1433.95 L 983.0,1440.0" style="stroke:#010101; fill:none;"/>
	<path d="M 1348.0,1435.0 L 1350.0,1437.0" style="stroke:#010101; fill:none;"/>
	<path d="M 1500.0,1435.0 L 1499.0,1440.0" style="stroke:#010101; fill:none;"/>
	<path d="M 1352.0,1438.0 L 1361.0,1446.0" style="stroke:#010101; fill:none;"/>
	<path d="M 1012.0,1439.0 L 984.0,1466.0" style="stroke:#010101; fill:none;"/>
	<path d="M 1498.0,1442.0 L 1497.0,1447.0" style="stroke:#010101; fill:none;"/>
	<path d="M 1056.0,1447.0 L 1093.0,1444.0" style="stroke:#010101; fill:none;"/>
	<path d="M 1310.0,1445.0 L 1302.0,1460.0" style="stroke:#010101; fill:none;"/>
	<path d="M 1496.0,1449.0 L 1495.0,1453.0" style="stroke:#010101; fill:none;"/>
	<path d="M 1667.0,1449.0 C 1651.76,1466.45 1643.93,1486.26 1636.18,1508.0 C 1632.99,1516.96 1632.1,1529.28 1627.0,1537.0 C 1622.06,1530.06 1619.79,1521.78 1614.48,1515.0 C 1612.59,1512.58 1608.32,1509.45 1608.78,1506.0 C 1609.85,1498.03 1629.29,1486.33 1636.0,1483.0" style="stroke:#010101; fill:none;"/>
	<path d="M 996.0,1453.0 L 998.0,1451.0" style="stroke:#010101; fill:none;"/>
	<path d="M 972.0,1457.0 L 995.0,1452.0" style="stroke:#010101; fill:none;"/>
	<path d="M 1516.0,1452.0 C 1501.85,1483.8 1470.4,1511.41 1434.0,1513.0" style="stroke:#010101; fill:none;"/>
	<path d="M 940.0,1464.0 L 965.0,1457.0" style="stroke:#010101; fill:none;"/>
	<path d="M 1492.0,1459.0 L 1491.0,1462.0" style="stroke:#010101; fill:none;"/>
	<path d="M 946.0,1462.0 L 949.0,1461.0" style="stroke:#010101; fill:none;"/>
	<path d="M 1299.0,1460.0 L 1301.0,1464.0" style="stroke:#010101; fill:none;"/>
	<path d="M 1298.0,1463.0 L 1300.0,1469.0" style="stroke:#010101; fill:none;"/>
	<path d="M 1297.0,1468.0 L 1285.0,1507.0" style="stroke:#010101; fill:none;"/>
	<path d="M 621.0,1471.0 L 642.0,1483.0" style="stroke:#010101; fill:none;"/>
	<path d="M 955.0,1486.0 L 976.0,1473.0" style="stroke:#010101; fill:none;"/>
	<path d="M 621.0,1474.0 C 622.634,1482.47 629.204,1490.89 633.926,1498.0 C 640.938,1508.56 651.401,1522.95 662.455,1529.5 C 693.369,1547.83 734.134,1530.8 750.0,1501.0" style="stroke:#010101; fill:none;"/>
	<path d="M 1639.0,1478.0 L 1648.0,1475.0" style="stroke:#010101; fill:none;"/>
	<path d="M 1629.0,1480.0 L 1608.0,1487.86 L 1565.0,1520.2 L 1514.0,1559.35 L 1460.0,1594.0" style="stroke:#010101; fill:none;"/>
	<path d="M 1009.0,1482.0 C 996.647,1495.45 981.463,1518.2 980.09,1537.0 C 979.136,1550.07 984.041,1562.7 983.0,1576.0" style="stroke:#010101; fill:none;"/>
	<path d="M 1397.0,1486.0 L 1399.0,1487.0" style="stroke:#010101; fill:none;"/>
	<path d="M 1403.0,1489.0 L 1405.0,1490.0" style="stroke:#010101; fill:none;"/>
	<path d="M 1815.0,1489.0 L 1805.0,1554.0" style="stroke:#010101; fill:none;"/>
	<path d="M 1407.0,1491.0 L 1409.0,1491.0" style="stroke:#010101; fill:none;"/>
	<path d="M 1455.0,1491.0 L 1456.0,1491.0" style="stroke:#010101; fill:none;"/>
	<path d="M 1413.0,1493.0 L 1415.0,1493.0" style="stroke:#010101; fill:none;"/>
	<path d="M 1418.0,1494.0 L 1420.0,1494.0" style="stroke:#010101; fill:none;"/>
	<path d="M 1436.0,1496.0 L 1446.0,1494.0" style="stroke:#010101; fill:none;"/>
	<path d="M 1621.0,1494.0 L 1631.0,1520.0" style="stroke:#010101; fill:none;"/>
	<path d="M 733.0,1495.0 L 748.0,1503.0" style="stroke:#010101; fill:none;"/>
	<path d="M 1422.0,1495.0 L 1428.0,1495.0" style="stroke:#010101; fill:none;"/>
	<path d="M 1430.0,1496.0 L 1434.0,1496.0" style="stroke:#010101; fill:none;"/>
	<path d="M 1857.0,1497.0 L 1858.0,1497.0" style="stroke:#010101; fill:none;"/>
	<path d="M 1858.0,1501.0 L 1858.0,1504.0" style="stroke:#010101; fill:none;"/>
	<path d="M 749.0,1503.0 C 752.757,1506.46 756.672,1511.36 762.0,1510.0" style="stroke:#010101; fill:none;"/>
	<path d="M 964.0,1505.0 L 957.0,1526.0" style="stroke:#010101; fill:none;"/>
	<path d="M 1353.0,1527.0 C 1366.89,1529.05 1377.12,1512.05 1389.0,1507.56 C 1403.45,1502.11 1418.3,1507.88 1433.0,1508.0" style="stroke:#010101; fill:none;"/>
	<path d="M 1514.0,1604.0 L 1510.0,1591.0 L 1607.0,1507.0" style="stroke:#010101; fill:none;"/>
	<path d="M 760.0,1512.0 L 792.286,1544.99 L 802.941,1556.0 L 802.039,1578.0 L 810.612,1613.0 L 835.0,1660.0 C 825.748,1659.8 815.645,1654.42 813.0,1645.0" style="stroke:#010101; fill:none;"/>
	<path d="M 1282.0,1516.0 L 1275.0,1535.0" style="stroke:#010101; fill:none;"/>
	<path d="M 1594.0,1520.0 L 1610.0,1548.0" style="stroke:#010101; fill:none;"/>
	<path d="M 660.0,1531.0 C 663.146,1541.9 670.77,1552.33 676.601,1562.0 C 689.634,1583.6 703.865,1606.29 722.0,1623.99 C 732.199,1633.93 744.105,1641.47 753.911,1652.0 C 796.491,1697.71 829.412,1752.03 888.0,1780.21 C 908.404,1790.03 932.719,1788.82 954.0,1782.11 C 964.819,1778.7 976.63,1767.42 975.823,1755.0 C 975.272,1746.53 965.233,1736.85 960.667,1730.0 C 947.438,1710.16 936.427,1687.15 921.0,1669.0" style="stroke:#010101; fill:none;"/>
	<path d="M 1830.0,1532.0 L 1811.0,1581.0" style="stroke:#010101; fill:none;"/>
	<path d="M 1858.0,1532.0 L 1860.0,1606.0 L 1857.0,1671.0" style="stroke:#010101; fill:none;"/>
	<path d="M 1578.0,1537.0 C 1574.21,1549.74 1592.33,1570.94 1600.0,1581.0 C 1603.77,1578.32 1609.12,1577.15 1612.49,1574.16 C 1618.73,1568.62 1615.77,1558.16 1613.0,1552.0" style="stroke:#010101; fill:none;"/>
	<path d="M 931.0,1540.0 L 946.0,1539.0" style="stroke:#010101; fill:none;"/>
	<path d="M 1274.0,1538.0 L 1256.0,1584.0" style="stroke:#010101; fill:none;"/>
	<path d="M 1627.0,1538.0 L 1616.0,1556.0" style="stroke:#010101; fill:none;"/>
	<path d="M 1569.0,1539.0 L 1576.0,1546.0" style="stroke:#010101; fill:none;"/>
	<path d="M 721.0,1543.0 C 726.635,1558.49 737.564,1572.17 744.742,1587.0 C 754.828,1607.85 762.413,1629.6 775.355,1649.0 C 791.495,1673.2 817.488,1694.62 842.0,1710.0" style="stroke:#010101; fill:none;"/>
	<path d="M 806.0,1557.0 C 816.378,1564.39 833.585,1576.53 846.0,1579.0 L 845.0,1571.0" style="stroke:#010101; fill:none;"/>
	<path d="M 1549.0,1560.0 L 1553.0,1571.0" style="stroke:#010101; fill:none;"/>
	<path d="M 1547.0,1562.0 L 1548.0,1564.0" style="stroke:#010101; fill:none;"/>
	<path d="M 1556.0,1574.0 C 1560.9,1581.94 1576.36,1597.55 1574.87,1607.0 C 1573.8,1613.8 1563.38,1620.32 1558.0,1623.9 C 1549.09,1629.81 1539.08,1631.9 1530.0,1636.64 C 1517.22,1643.31 1501.08,1655.51 1486.0,1655.0" style="stroke:#010101; fill:none;"/>
	<path d="M 1625.0,1578.0 L 1610.0,1609.0" style="stroke:#010101; fill:none;"/>
	<path d="M 1798.0,1578.0 C 1798.0,1639.86 1791.71,1702.08 1775.88,1762.0 C 1764.25,1806.04 1750.66,1841.77 1711.0,1868.0" style="stroke:#010101; fill:none;"/>
	<path d="M 847.0,1580.0 C 848.462,1597.9 854.859,1620.31 869.039,1632.19 C 876.458,1638.41 884.977,1642.27 894.0,1645.56 C 899.813,1647.68 907.42,1649.19 910.697,1655.09 C 914.003,1661.05 911.799,1668.68 911.0,1675.0" style="stroke:#010101; fill:none;"/>
	<path d="M 1600.0,1581.0 C 1593.99,1590.61 1587.49,1598.68 1576.0,1602.0" style="stroke:#010101; fill:none;"/>
	<path d="M 1511.0,1592.0 C 1508.35,1594.77 1508.02,1595.69 1510.0,1599.0 L 1510.0,1599.0" style="stroke:#010101; fill:none;"/>
	<path d="M 1476.0,1651.0 L 1462.0,1615.0 L 1506.0,1595.0" style="stroke:#010101; fill:none;"/>
	<path d="M 1327.0,1652.0 C 1339.2,1647.29 1352.37,1644.26 1364.0,1638.22 C 1394.2,1622.53 1421.62,1601.63 1456.0,1597.0" style="stroke:#010101; fill:none;"/>
	<path d="M 1517.0,1608.0 L 1529.0,1631.0" style="stroke:#010101; fill:none;"/>
	<path d="M 1437.0,1659.0 L 1426.0,1632.0 L 1462.0,1615.0" style="stroke:#010101; fill:none;"/>
	<path d="M 1598.0,1626.0 C 1577.37,1654.7 1545.63,1681.63 1510.0,1689.0" style="stroke:#010101; fill:none;"/>
	<path d="M 1398.0,1662.0 L 1392.79,1648.28 L 1402.0,1643.13 L 1425.0,1632.0" style="stroke:#010101; fill:none;"/>
	<path d="M 907.0,1646.0 L 918.0,1654.0" style="stroke:#010101; fill:none;"/>
	<path d="M 1290.0,1678.0 L 1322.0,1662.62 L 1365.0,1654.68 L 1392.0,1647.0" style="stroke:#010101; fill:none;"/>
	<path d="M 1478.0,1655.0 L 1485.0,1659.0 L 1486.0,1658.0 L 1487.0,1657.0" style="stroke:#010101; fill:none;"/>
	<path d="M 1363.0,1656.0 L 1372.0,1673.0" style="stroke:#010101; fill:none;"/>
	<path d="M 836.0,1661.0 L 868.0,1657.0" style="stroke:#010101; fill:none;"/>
	<path d="M 1439.0,1662.0 C 1447.73,1674.36 1467.39,1663.55 1480.0,1660.0" style="stroke:#010101; fill:none;"/>
	<path d="M 1328.0,1662.0 L 1336.0,1682.0 C 1344.09,1681.65 1351.88,1678.78 1360.0,1678.11 C 1368.92,1677.37 1378.17,1679.12 1387.0,1677.54 C 1395.01,1676.09 1400.59,1674.76 1400.0,1666.0" style="stroke:#010101; fill:none;"/>
	<path d="M 1401.0,1673.0 L 1442.0,1670.0" style="stroke:#010101; fill:none;"/>
	<path d="M 1856.0,1673.0 L 1856.0,1675.0" style="stroke:#010101; fill:none;"/>
	<path d="M 853.0,1675.0 C 851.483,1694.23 848.447,1719.25 854.0,1738.0" style="stroke:#010101; fill:none;"/>
	<path d="M 1284.0,1676.0 L 1265.0,1684.0" style="stroke:#010101; fill:none;"/>
	<path d="M 1305.0,1676.0 C 1313.53,1684.62 1324.13,1683.22 1335.0,1683.0" style="stroke:#010101; fill:none;"/>
	<path d="M 1054.0,1683.0 L 1058.0,1697.0" style="stroke:#010101; fill:none;"/>
	<path d="M 1360.0,1705.0 C 1371.67,1707.17 1384.16,1705.99 1396.0,1706.0 C 1429.39,1706.04 1462.1,1702.38 1494.0,1692.0" style="stroke:#010101; fill:none;"/>
	<path d="M 1542.0,1743.0 C 1571.84,1727.74 1603.56,1711.86 1636.0,1703.0" style="stroke:#010101; fill:none;"/>
	<path d="M 1845.0,1727.0 L 1845.0,1728.0" style="stroke:#010101; fill:none;"/>
	<path d="M 1035.0,1731.0 C 1040.74,1746.69 1053.51,1761.33 1062.98,1775.0 C 1088.23,1811.48 1115.57,1843.81 1149.0,1873.0" style="stroke:#010101; fill:none;"/>
	<path d="M 1844.0,1731.0 C 1835.6,1746.94 1825.63,1768.11 1823.0,1786.0" style="stroke:#010101; fill:none;"/>
	<path d="M 1534.0,1750.0 L 1505.0,1771.0" style="stroke:#010101; fill:none;"/>
	<path d="M 1088.0,1754.0 L 1092.0,1763.0" style="stroke:#010101; fill:none;"/>
	<path d="M 978.0,1758.0 C 986.213,1762.46 991.489,1772.7 997.039,1780.0 C 1007.73,1794.05 1018.9,1807.3 1028.74,1822.0 C 1049.39,1852.85 1073.71,1877.19 1100.0,1903.0" style="stroke:#010101; fill:none;"/>
	<path d="M 921.0,1805.0 L 953.0,1795.0" style="stroke:#010101; fill:none;"/>
	<path d="M 1812.0,1811.0 C 1790.64,1848.54 1778.69,1890.88 1770.0,1933.0" style="stroke:#010101; fill:none;"/>
	<path d="M 1694.0,1883.0 C 1658.47,1907.16 1620.95,1924.4 1581.0,1939.81 C 1566.0,1945.6 1543.91,1954.96 1528.0,1949.0" style="stroke:#010101; fill:none;"/>
	<path d="M 1436.0,1888.0 L 1438.0,1889.0" style="stroke:#010101; fill:none;"/>
	<path d="M 1215.0,1902.0 C 1243.22,1939.98 1293.45,1963.28 1337.0,1978.69 C 1353.42,1984.5 1372.44,1991.64 1390.0,1992.0" style="stroke:#010101; fill:none;"/>
	<path d="M 1103.0,1905.0 C 1117.18,1912.78 1128.87,1923.68 1142.0,1933.09 C 1160.07,1946.04 1179.55,1957.35 1200.0,1966.13 C 1240.19,1983.39 1282.28,1998.14 1325.0,2007.58 C 1347.8,2012.61 1370.98,2014.13 1394.0,2017.43 C 1417.42,2020.78 1440.61,2025.8 1464.0,2029.42 C 1497.6,2034.64 1530.32,2045.65 1564.0,2050.0" style="stroke:#010101; fill:none;"/>
	<path d="M 1379.0,1921.0 L 1426.0,1934.77 L 1473.0,1943.0" style="stroke:#010101; fill:none;"/>
	<path d="M 1762.0,1952.0 L 1749.0,1975.0" style="stroke:#010101; fill:none;"/>
	<path d="M 1590.0,1988.0 L 1590.0,1989.0" style="stroke:#010101; fill:none;"/>
	<path d="M 1596.0,1988.0 L 1602.0,1988.0" style="stroke:#010101; fill:none;"/>
	<path d="M 1475.0,1992.0 C 1512.13,1996.15 1550.79,1989.0 1588.0,1989.0" style="stroke:#010101; fill:none;"/>
	<path d="M 1392.0,1993.0 L 1394.0,1993.0" style="stroke:#010101; fill:none;"/>
	<path d="M 1452.0,1993.0 L 1473.0,1993.0" style="stroke:#010101; fill:none;"/>
</svg>
