<?xml version="1.0" ?>
<svg baseProfile="full" height="2211" version="1.1" width="1685" xmlns="http://www.w3.org/2000/svg" xmlns:ev="http://www.w3.org/2001/xml-events" xmlns:xlink="http://www.w3.org/1999/xlink">
	<defs/>
	<path d="M 1118.0,653.0 C 1113.5,636.934 1117.21,620.193 1118.83,604.0 C 1122.19,570.414 1124.11,531.008 1143.36,502.0 C 1155.24,484.084 1179.98,466.012 1203.0,473.054 C 1234.59,482.715 1262.54,504.887 1289.0,523.709 C 1303.0,533.669 1318.12,541.556 1328.23,556.0 C 1338.55,570.748 1343.68,589.331 1350.06,606.0 C 1357.06,624.248 1366.13,642.01 1373.85,660.0 C 1384.01,683.665 1399.49,705.481 1407.48,730.0 C 1410.9,740.493 1410.74,752.134 1412.42,763.0 C 1416.15,787.009 1420.27,810.877 1423.16,835.0 C 1424.03,842.322 1429.36,851.91 1427.5,859.0 C 1421.24,882.826 1400.09,896.097 1382.0,910.0 C 1420.42,948.424 1462.61,985.4 1493.0,1031.0 C 1502.11,1044.67 1518.13,1064.12 1519.0,1081.0" style="stroke:#010101; fill:none;"/>
	<path d="M 1288.0,718.0 C 1269.67,717.609 1254.17,701.109 1239.0,692.427 C 1231.43,688.094 1222.75,684.214 1214.0,683.17 C 1209.5,682.633 1198.92,684.491 1195.5,682.084 C 1190.89,678.843 1189.34,668.069 1187.42,663.0 C 1180.21,643.874 1175.67,624.052 1171.8,604.0 C 1166.95,578.848 1161.78,550.53 1166.08,525.0 C 1168.19,512.464 1173.52,499.529 1187.0,495.638 C 1195.68,493.133 1206.36,497.391 1215.0,498.725 C 1222.66,499.907 1230.71,500.267 1238.0,503.0" style="stroke:#010101; fill:none;"/>
	<path d="M 1131.0,497.0 C 1131.0,503.531 1129.87,509.177 1136.0,513.0" style="stroke:#010101; fill:none;"/>
	<path d="M 1246.0,508.0 C 1254.88,517.558 1265.1,525.025 1275.0,533.427 C 1277.58,535.62 1282.44,541.335 1286.0,539.0" style="stroke:#010101; fill:none;"/>
	<path d="M 1209.0,518.0 C 1221.8,531.067 1234.25,544.587 1248.0,556.714 C 1266.46,572.996 1283.96,590.191 1302.0,606.91 C 1319.77,623.381 1338.35,638.98 1352.43,659.0 C 1381.0,699.625 1394.72,758.724 1373.0,805.0" style="stroke:#010101; fill:none;"/>
	<path d="M 1284.0,538.0 L 1286.0,538.0" style="stroke:#010101; fill:none;"/>
	<path d="M 1288.0,541.0 L 1285.0,542.0" style="stroke:#010101; fill:none;"/>
	<path d="M 1288.0,543.0 L 1300.0,560.0 L 1297.0,555.0" style="stroke:#010101; fill:none;"/>
	<path d="M 1303.0,548.0 L 1318.0,583.0" style="stroke:#010101; fill:none;"/>
	<path d="M 1294.0,551.0 L 1295.0,554.0" style="stroke:#010101; fill:none;"/>
	<path d="M 1313.0,551.0 L 1331.0,604.0" style="stroke:#010101; fill:none;"/>
	<path d="M 1303.0,562.0 L 1301.0,562.0 L 1303.0,562.0" style="stroke:#010101; fill:none;"/>
	<path d="M 1323.0,563.0 C 1331.77,575.425 1337.59,594.238 1341.0,609.0" style="stroke:#010101; fill:none;"/>
	<path d="M 1302.0,564.0 L 1350.0,646.0" style="stroke:#010101; fill:none;"/>
	<path d="M 1122.0,573.0 L 1114.0,566.0 L 1122.0,565.0" style="stroke:#010101; fill:none;"/>
	<path d="M 1281.0,645.0 C 1276.64,659.757 1286.68,678.667 1287.0,694.0" style="stroke:#010101; fill:none;"/>
	<path d="M 1262.0,647.0 C 1267.01,647.969 1286.77,656.71 1288.0,651.0" style="stroke:#010101; fill:none;"/>
	<path d="M 1270.0,650.0 L 1271.0,673.0" style="stroke:#010101; fill:none;"/>
	<path d="M 1290.0,655.0 L 1299.0,659.0 C 1295.46,671.304 1301.39,694.821 1305.0,707.0" style="stroke:#010101; fill:none;"/>
	<path d="M 1288.0,656.0 L 1294.0,701.0" style="stroke:#010101; fill:none;"/>
	<path d="M 1236.0,657.0 C 1226.23,666.763 1211.43,679.843 1197.0,671.0" style="stroke:#010101; fill:none;"/>
	<path d="M 1299.0,659.0 L 1311.0,661.0" style="stroke:#010101; fill:none;"/>
	<path d="M 1306.0,662.0 L 1316.0,724.0" style="stroke:#010101; fill:none;"/>
	<path d="M 1310.0,663.0 L 1326.0,674.0 L 1327.0,669.0" style="stroke:#010101; fill:none;"/>
	<path d="M 1311.0,666.0 L 1323.18,732.0 L 1329.78,747.0 L 1331.0,768.0" style="stroke:#010101; fill:none;"/>
	<path d="M 1326.0,674.0 C 1343.77,692.142 1348.57,713.475 1344.0,738.0" style="stroke:#010101; fill:none;"/>
	<path d="M 1322.0,678.0 C 1322.05,697.513 1327.43,720.028 1332.0,739.0" style="stroke:#010101; fill:none;"/>
	<path d="M 1327.0,678.0 L 1334.71,724.0 L 1338.0,753.0" style="stroke:#010101; fill:none;"/>
	<path d="M 1197.0,684.0 C 1197.9,692.797 1204.07,702.59 1208.72,710.0 C 1216.98,723.172 1223.88,736.519 1236.0,746.787 C 1242.02,751.891 1250.24,753.362 1255.82,759.104 C 1267.13,770.762 1265.57,788.631 1275.39,800.996 C 1298.56,830.153 1326.52,790.463 1338.0,771.0" style="stroke:#010101; fill:none;"/>
	<path d="M 1126.0,693.0 L 1133.0,711.0" style="stroke:#010101; fill:none;"/>
	<path d="M 1338.0,694.0 L 1342.0,747.0" style="stroke:#010101; fill:none;"/>
	<path d="M 1127.0,717.0 C 1129.76,735.674 1144.28,755.699 1157.0,769.0" style="stroke:#010101; fill:none;"/>
	<path d="M 1304.0,721.0 L 1321.0,732.0" style="stroke:#010101; fill:none;"/>
	<path d="M 744.0,775.0 C 743.726,774.485 753.876,769.416 758.0,766.667 C 769.975,758.683 782.326,748.636 793.0,739.0 C 796.912,735.469 803.912,731.533 801.0,726.0 L 797.0,730.0 L 781.0,732.0 L 798.0,722.0" style="stroke:#010101; fill:none;"/>
	<path d="M 693.0,738.0 L 686.0,741.0 C 689.279,738.761 695.552,738.608 698.0,742.0 C 727.989,736.181 757.765,724.259 789.0,724.0" style="stroke:#010101; fill:none;"/>
	<path d="M 801.0,740.0 C 810.784,732.05 815.691,722.674 830.0,725.0" style="stroke:#010101; fill:none;"/>
	<path d="M 803.0,728.0 L 813.0,726.0" style="stroke:#010101; fill:none;"/>
	<path d="M 840.0,726.0 L 776.0,772.0" style="stroke:#010101; fill:none;"/>
	<path d="M 797.0,727.0 L 798.0,728.0" style="stroke:#010101; fill:none;"/>
	<path d="M 819.0,727.0 L 782.0,762.0 C 787.603,762.835 791.698,757.904 796.0,754.734 C 807.346,746.375 818.628,737.553 829.0,728.0" style="stroke:#010101; fill:none;"/>
	<path d="M 883.0,727.0 L 842.0,753.0" style="stroke:#010101; fill:none;"/>
	<path d="M 800.0,728.0 L 802.0,730.0" style="stroke:#010101; fill:none;"/>
	<path d="M 845.0,728.0 L 817.0,751.0 C 821.604,751.546 826.339,749.021 825.0,744.0" style="stroke:#010101; fill:none;"/>
	<path d="M 789.0,729.0 L 791.0,729.0" style="stroke:#010101; fill:none;"/>
	<path d="M 852.0,729.0 L 846.0,735.0 L 861.0,730.0" style="stroke:#010101; fill:none;"/>
	<path d="M 765.0,735.0 L 750.0,753.0 L 752.0,755.0 C 761.826,745.174 766.024,732.871 780.0,731.0" style="stroke:#010101; fill:none;"/>
	<path d="M 794.0,730.0 L 795.0,730.0" style="stroke:#010101; fill:none;"/>
	<path d="M 841.0,749.0 L 871.0,730.0" style="stroke:#010101; fill:none;"/>
	<path d="M 757.0,746.0 L 761.0,750.0 L 781.0,733.0" style="stroke:#010101; fill:none;"/>
	<path d="M 648.0,744.0 L 692.0,735.0" style="stroke:#010101; fill:none;"/>
	<path d="M 786.0,735.0 C 777.917,746.605 761.769,755.652 751.0,765.0 C 749.44,766.354 739.011,775.052 744.0,776.0" style="stroke:#010101; fill:none;"/>
	<path d="M 697.0,738.0 L 706.0,737.0" style="stroke:#010101; fill:none;"/>
	<path d="M 755.0,743.0 L 748.0,748.0 C 746.149,741.235 753.716,735.068 760.0,738.0" style="stroke:#010101; fill:none;"/>
	<path d="M 760.0,736.0 L 761.0,737.0" style="stroke:#010101; fill:none;"/>
	<path d="M 828.0,747.0 L 845.0,736.0" style="stroke:#010101; fill:none;"/>
	<path d="M 847.0,736.0 L 844.0,738.0" style="stroke:#010101; fill:none;"/>
	<path d="M 722.0,737.0 L 670.073,765.839 L 663.462,781.402 L 633.0,802.0 L 636.0,802.0" style="stroke:#010101; fill:none;"/>
	<path d="M 728.0,754.0 L 725.0,752.0 L 749.0,739.0" style="stroke:#010101; fill:none;"/>
	<path d="M 765.0,738.0 L 756.0,743.0" style="stroke:#010101; fill:none;"/>
	<path d="M 768.0,740.0 L 772.0,738.0" style="stroke:#010101; fill:none;"/>
	<path d="M 692.0,739.0 L 692.0,743.0 L 698.0,742.0" style="stroke:#010101; fill:none;"/>
	<path d="M 699.0,739.0 L 701.0,741.0" style="stroke:#010101; fill:none;"/>
	<path d="M 725.0,752.0 C 718.622,752.945 713.064,757.587 707.0,753.0 L 733.0,739.0" style="stroke:#010101; fill:none;"/>
	<path d="M 687.0,743.0 L 679.0,742.0 L 686.0,740.0" style="stroke:#010101; fill:none;"/>
	<path d="M 696.0,740.0 L 696.0,742.0" style="stroke:#010101; fill:none;"/>
	<path d="M 783.0,764.0 C 775.958,769.024 755.377,781.66 747.0,780.0 L 778.0,757.338 L 801.0,740.0" style="stroke:#010101; fill:none;"/>
	<path d="M 631.0,754.0 C 644.989,748.752 664.073,742.651 679.0,742.0" style="stroke:#010101; fill:none;"/>
	<path d="M 689.0,742.0 L 695.0,744.0 L 695.0,744.0" style="stroke:#010101; fill:none;"/>
	<path d="M 853.0,753.0 L 883.0,742.0" style="stroke:#010101; fill:none;"/>
	<path d="M 723.0,744.0 L 735.0,744.0" style="stroke:#010101; fill:none;"/>
	<path d="M 738.0,744.0 L 737.0,745.0" style="stroke:#010101; fill:none;"/>
	<path d="M 763.0,744.0 L 765.0,746.0" style="stroke:#010101; fill:none;"/>
	<path d="M 675.0,746.0 L 677.0,747.0 L 607.0,782.0" style="stroke:#010101; fill:none;"/>
	<path d="M 758.0,745.0 L 754.0,753.0 L 760.0,749.0" style="stroke:#010101; fill:none;"/>
	<path d="M 625.0,764.0 C 639.408,755.801 658.775,749.392 675.0,746.0" style="stroke:#010101; fill:none;"/>
	<path d="M 678.0,746.0 L 681.0,745.0" style="stroke:#010101; fill:none;"/>
	<path d="M 733.0,746.0 L 727.0,752.0" style="stroke:#010101; fill:none;"/>
	<path d="M 658.0,769.0 L 656.0,769.0 C 667.031,757.97 678.174,752.544 692.0,746.0" style="stroke:#010101; fill:none;"/>
	<path d="M 732.0,749.0 L 736.0,753.0 C 740.1,749.531 742.654,748.22 748.0,749.0" style="stroke:#010101; fill:none;"/>
	<path d="M 659.0,766.0 C 668.639,767.491 684.115,752.365 694.0,749.0" style="stroke:#010101; fill:none;"/>
	<path d="M 711.0,751.0 L 715.0,749.0" style="stroke:#010101; fill:none;"/>
	<path d="M 746.0,750.0 L 716.0,774.0 L 722.0,770.0" style="stroke:#010101; fill:none;"/>
	<path d="M 736.0,751.0 L 737.0,752.0" style="stroke:#010101; fill:none;"/>
	<path d="M 752.0,751.0 L 754.0,753.0" style="stroke:#010101; fill:none;"/>
	<path d="M 801.0,757.0 L 816.0,752.0" style="stroke:#010101; fill:none;"/>
	<path d="M 816.0,752.0 L 818.0,753.0" style="stroke:#010101; fill:none;"/>
	<path d="M 689.0,777.0 L 686.0,776.0 L 708.0,760.0 C 705.795,757.187 704.654,755.884 707.0,753.0" style="stroke:#010101; fill:none;"/>
	<path d="M 705.0,754.0 L 707.0,756.0" style="stroke:#010101; fill:none;"/>
	<path d="M 736.0,754.0 L 721.0,768.0" style="stroke:#010101; fill:none;"/>
	<path d="M 750.0,754.0 L 751.0,759.0 L 754.0,755.0" style="stroke:#010101; fill:none;"/>
	<path d="M 662.0,759.0 L 663.0,761.0 L 670.0,755.0" style="stroke:#010101; fill:none;"/>
	<path d="M 667.0,780.0 C 675.213,770.162 692.409,760.308 704.0,755.0" style="stroke:#010101; fill:none;"/>
	<path d="M 711.0,755.0 L 713.0,757.0" style="stroke:#010101; fill:none;"/>
	<path d="M 713.0,755.0 C 711.36,762.639 703.605,768.66 698.015,773.714 C 685.468,785.059 672.801,809.395 655.0,812.0 L 655.0,813.0 L 658.0,814.0" style="stroke:#010101; fill:none;"/>
	<path d="M 725.0,755.0 C 715.704,763.407 706.959,772.708 698.425,781.911 C 694.304,786.355 690.051,789.55 690.0,796.0 L 717.0,776.0" style="stroke:#010101; fill:none;"/>
	<path d="M 812.0,757.0 L 815.0,755.0" style="stroke:#010101; fill:none;"/>
	<path d="M 704.0,756.0 L 701.0,758.0" style="stroke:#010101; fill:none;"/>
	<path d="M 709.0,756.0 L 711.0,760.0" style="stroke:#010101; fill:none;"/>
	<path d="M 752.0,756.0 L 753.0,757.0" style="stroke:#010101; fill:none;"/>
	<path d="M 713.0,759.0 L 718.0,758.0 L 719.0,759.0" style="stroke:#010101; fill:none;"/>
	<path d="M 749.0,757.0 L 742.0,764.0 L 750.0,758.0" style="stroke:#010101; fill:none;"/>
	<path d="M 711.0,758.0 L 712.0,758.0" style="stroke:#010101; fill:none;"/>
	<path d="M 708.0,759.0 L 708.0,761.0" style="stroke:#010101; fill:none;"/>
	<path d="M 802.0,759.0 L 796.0,762.0" style="stroke:#010101; fill:none;"/>
	<path d="M 596.0,792.0 L 661.0,760.0" style="stroke:#010101; fill:none;"/>
	<path d="M 781.0,761.0 L 777.0,767.0" style="stroke:#010101; fill:none;"/>
	<path d="M 792.0,763.0 L 795.0,761.0" style="stroke:#010101; fill:none;"/>
	<path d="M 741.0,773.0 L 736.0,773.0 L 742.0,764.0" style="stroke:#010101; fill:none;"/>
	<path d="M 613.0,798.0 L 611.0,802.0 L 612.0,797.0 L 659.0,764.0" style="stroke:#010101; fill:none;"/>
	<path d="M 740.0,765.0 L 743.0,766.0" style="stroke:#010101; fill:none;"/>
	<path d="M 774.0,766.0 L 774.0,767.0" style="stroke:#010101; fill:none;"/>
	<path d="M 660.0,767.0 L 658.0,769.0" style="stroke:#010101; fill:none;"/>
	<path d="M 729.0,775.0 L 722.0,782.0 L 732.0,782.0 L 729.0,775.0 L 736.0,767.0" style="stroke:#010101; fill:none;"/>
	<path d="M 668.0,769.0 L 669.0,769.0" style="stroke:#010101; fill:none;"/>
	<path d="M 656.0,770.0 C 647.841,776.978 639.793,783.987 631.911,791.3 C 629.001,794.0 624.841,796.992 627.0,801.0 L 626.0,797.0 C 632.912,798.147 636.9,793.197 642.0,789.224 C 649.094,783.698 657.446,780.214 664.0,774.0" style="stroke:#010101; fill:none;"/>
	<path d="M 663.0,770.0 L 665.0,769.0" style="stroke:#010101; fill:none;"/>
	<path d="M 733.0,770.0 L 736.0,773.0 L 732.0,777.0" style="stroke:#010101; fill:none;"/>
	<path d="M 646.0,772.0 L 649.0,775.0" style="stroke:#010101; fill:none;"/>
	<path d="M 687.0,775.0 L 691.0,773.0" style="stroke:#010101; fill:none;"/>
	<path d="M 645.0,774.0 L 648.0,777.0" style="stroke:#010101; fill:none;"/>
	<path d="M 715.0,778.0 L 716.0,774.0" style="stroke:#010101; fill:none;"/>
	<path d="M 663.0,775.0 L 666.0,776.0" style="stroke:#010101; fill:none;"/>
	<path d="M 738.0,775.0 L 739.0,779.0 L 741.0,778.0" style="stroke:#010101; fill:none;"/>
	<path d="M 667.0,776.0 L 668.0,777.0" style="stroke:#010101; fill:none;"/>
	<path d="M 711.0,777.0 L 713.0,776.0" style="stroke:#010101; fill:none;"/>
	<path d="M 731.0,776.0 L 726.0,777.0" style="stroke:#010101; fill:none;"/>
	<path d="M 686.0,777.0 L 664.0,803.0 L 667.0,806.0" style="stroke:#010101; fill:none;"/>
	<path d="M 663.0,778.0 L 664.0,778.0" style="stroke:#010101; fill:none;"/>
	<path d="M 724.0,778.0 L 726.0,780.0" style="stroke:#010101; fill:none;"/>
	<path d="M 738.0,778.0 L 734.0,780.0" style="stroke:#010101; fill:none;"/>
	<path d="M 681.0,783.0 L 679.0,781.0 L 684.0,779.0" style="stroke:#010101; fill:none;"/>
	<path d="M 712.0,779.0 L 708.0,790.0 L 721.0,783.0" style="stroke:#010101; fill:none;"/>
	<path d="M 742.0,781.0 L 747.0,780.0" style="stroke:#010101; fill:none;"/>
	<path d="M 729.0,781.0 L 730.0,782.0" style="stroke:#010101; fill:none;"/>
	<path d="M 680.0,782.0 L 678.0,784.0" style="stroke:#010101; fill:none;"/>
	<path d="M 668.0,790.0 L 664.0,792.0 L 677.0,783.0" style="stroke:#010101; fill:none;"/>
	<path d="M 730.0,783.0 L 713.0,796.0" style="stroke:#010101; fill:none;"/>
	<path d="M 937.0,783.0 C 917.585,804.956 885.041,818.769 858.0,828.681 C 852.817,830.58 835.602,838.795 831.0,836.0" style="stroke:#010101; fill:none;"/>
	<path d="M 706.0,784.0 L 708.0,786.0" style="stroke:#010101; fill:none;"/>
	<path d="M 717.0,784.0 L 721.0,784.0" style="stroke:#010101; fill:none;"/>
	<path d="M 714.0,786.0 L 718.0,786.0" style="stroke:#010101; fill:none;"/>
	<path d="M 883.0,835.0 L 972.0,788.0" style="stroke:#010101; fill:none;"/>
	<path d="M 707.0,789.0 L 705.0,791.0 L 709.0,790.0" style="stroke:#010101; fill:none;"/>
	<path d="M 670.0,790.0 L 669.0,791.0" style="stroke:#010101; fill:none;"/>
	<path d="M 691.0,790.0 L 695.0,794.0" style="stroke:#010101; fill:none;"/>
	<path d="M 661.0,894.0 C 686.987,871.512 717.477,846.369 750.0,834.229 C 770.766,826.478 791.865,828.062 813.0,823.335 C 842.444,816.75 868.574,804.065 895.0,790.0" style="stroke:#010101; fill:none;"/>
	<path d="M 669.0,791.0 L 666.0,800.0" style="stroke:#010101; fill:none;"/>
	<path d="M 665.0,794.0 L 659.0,796.0 L 664.0,792.0" style="stroke:#010101; fill:none;"/>
	<path d="M 705.0,792.0 L 685.0,809.0 L 693.0,803.0" style="stroke:#010101; fill:none;"/>
	<path d="M 628.0,865.0 L 639.0,848.0 L 642.0,835.0 L 647.0,839.0 C 657.717,828.282 665.352,809.42 680.0,804.0 C 678.562,798.435 684.502,795.296 689.0,793.0" style="stroke:#010101; fill:none;"/>
	<path d="M 644.0,794.0 L 645.0,795.0" style="stroke:#010101; fill:none;"/>
	<path d="M 685.0,795.0 L 690.0,796.0" style="stroke:#010101; fill:none;"/>
	<path d="M 616.0,796.0 L 615.0,799.0" style="stroke:#010101; fill:none;"/>
	<path d="M 659.0,796.0 C 657.883,798.304 657.557,798.407 660.0,798.0" style="stroke:#010101; fill:none;"/>
	<path d="M 553.0,853.0 L 550.0,855.0 C 569.041,846.278 586.331,825.248 601.996,811.424 C 606.697,807.277 606.696,798.692 612.0,797.0" style="stroke:#010101; fill:none;"/>
	<path d="M 693.0,797.0 L 695.0,800.0" style="stroke:#010101; fill:none;"/>
	<path d="M 615.0,805.0 C 610.584,809.227 602.902,813.401 603.0,820.0 L 625.0,798.0" style="stroke:#010101; fill:none;"/>
	<path d="M 644.0,803.0 L 645.0,806.0 L 657.0,798.0" style="stroke:#010101; fill:none;"/>
	<path d="M 688.0,798.0 L 680.0,805.0" style="stroke:#010101; fill:none;"/>
	<path d="M 622.0,799.0 L 624.0,801.0" style="stroke:#010101; fill:none;"/>
	<path d="M 659.0,799.0 C 651.131,807.035 645.559,817.135 635.0,822.0 L 637.0,815.0 L 622.0,827.0" style="stroke:#010101; fill:none;"/>
	<path d="M 694.0,799.0 L 692.0,801.0" style="stroke:#010101; fill:none;"/>
	<path d="M 597.0,809.0 L 595.0,809.0 L 607.0,800.0" style="stroke:#010101; fill:none;"/>
	<path d="M 623.0,800.0 L 617.0,806.0" style="stroke:#010101; fill:none;"/>
	<path d="M 604.0,801.0 L 606.0,803.0" style="stroke:#010101; fill:none;"/>
	<path d="M 609.0,801.0 L 610.0,801.0" style="stroke:#010101; fill:none;"/>
	<path d="M 620.0,811.0 L 633.0,803.0" style="stroke:#010101; fill:none;"/>
	<path d="M 606.0,803.0 L 599.0,805.0" style="stroke:#010101; fill:none;"/>
	<path d="M 611.0,803.0 L 610.0,804.0" style="stroke:#010101; fill:none;"/>
	<path d="M 621.0,803.0 L 622.0,807.0 L 619.0,804.0" style="stroke:#010101; fill:none;"/>
	<path d="M 633.0,803.0 L 630.0,806.0" style="stroke:#010101; fill:none;"/>
	<path d="M 666.0,803.0 L 666.0,808.0" style="stroke:#010101; fill:none;"/>
	<path d="M 627.0,807.0 L 628.0,805.0" style="stroke:#010101; fill:none;"/>
	<path d="M 600.0,806.0 L 597.0,809.0" style="stroke:#010101; fill:none;"/>
	<path d="M 644.0,806.0 L 637.0,815.0" style="stroke:#010101; fill:none;"/>
	<path d="M 681.0,806.0 L 659.0,834.0" style="stroke:#010101; fill:none;"/>
	<path d="M 657.0,809.0 L 659.0,807.0 L 656.0,810.0" style="stroke:#010101; fill:none;"/>
	<path d="M 663.0,807.0 L 663.0,808.0" style="stroke:#010101; fill:none;"/>
	<path d="M 622.0,808.0 L 620.0,810.0" style="stroke:#010101; fill:none;"/>
	<path d="M 580.0,824.0 C 580.0,821.074 577.502,823.763 576.0,825.0 L 577.0,826.0 L 578.0,825.0 L 577.0,821.0 L 585.816,818.397 L 595.0,809.0" style="stroke:#010101; fill:none;"/>
	<path d="M 684.0,810.0 L 687.0,810.0" style="stroke:#010101; fill:none;"/>
	<path d="M 591.0,811.0 L 591.0,815.0" style="stroke:#010101; fill:none;"/>
	<path d="M 596.0,811.0 L 594.0,813.0" style="stroke:#010101; fill:none;"/>
	<path d="M 589.0,812.0 L 587.0,818.0 L 587.0,818.0" style="stroke:#010101; fill:none;"/>
	<path d="M 684.0,812.0 L 668.0,830.0" style="stroke:#010101; fill:none;"/>
	<path d="M 646.0,813.0 L 643.0,816.0" style="stroke:#010101; fill:none;"/>
	<path d="M 655.0,813.0 L 655.0,818.0 L 657.0,816.0" style="stroke:#010101; fill:none;"/>
	<path d="M 552.0,861.0 C 546.308,865.094 541.15,871.266 539.0,878.0 C 552.405,872.025 571.928,854.237 580.0,842.0 C 583.04,854.018 555.069,861.634 562.0,874.0 L 596.714,838.0 L 619.0,813.0" style="stroke:#010101; fill:none;"/>
	<path d="M 624.0,815.0 L 543.326,902.001 L 514.0,951.0" style="stroke:#010101; fill:none;"/>
	<path d="M 582.0,821.0 L 585.0,816.0" style="stroke:#010101; fill:none;"/>
	<path d="M 644.0,817.0 C 641.99,824.734 635.43,831.522 630.914,838.0 C 622.04,850.73 612.746,863.315 603.556,876.0 C 598.612,882.823 592.702,893.322 585.0,897.0" style="stroke:#010101; fill:none;"/>
	<path d="M 652.0,817.0 C 648.939,823.141 643.732,830.968 648.0,837.0" style="stroke:#010101; fill:none;"/>
	<path d="M 652.0,819.0 C 653.061,822.598 652.361,825.124 649.0,827.0" style="stroke:#010101; fill:none;"/>
	<path d="M 655.0,819.0 L 654.0,820.0" style="stroke:#010101; fill:none;"/>
	<path d="M 602.0,820.0 L 582.0,844.0" style="stroke:#010101; fill:none;"/>
	<path d="M 635.0,822.0 L 585.32,891.0 L 563.0,912.0 L 565.0,910.0" style="stroke:#010101; fill:none;"/>
	<path d="M 648.0,823.0 L 649.0,825.0" style="stroke:#010101; fill:none;"/>
	<path d="M 923.0,831.0 L 953.0,823.0" style="stroke:#010101; fill:none;"/>
	<path d="M 598.0,824.0 L 592.0,832.0" style="stroke:#010101; fill:none;"/>
	<path d="M 886.0,824.0 C 867.79,832.112 848.883,840.741 830.0,847.167 C 820.041,850.556 808.044,850.182 799.13,857.499 C 784.13,869.811 780.758,895.86 762.0,905.0 C 764.439,890.838 768.289,882.936 758.476,870.0 C 756.729,867.697 753.892,862.929 750.741,862.528 C 741.21,861.314 724.903,872.697 717.0,877.285 C 685.828,895.379 665.545,920.229 649.259,952.0 C 643.097,964.022 638.521,977.804 635.662,991.0 C 634.945,994.311 632.239,1001.56 634.118,1004.64 C 636.371,1008.33 641.729,1004.44 644.0,1002.83 C 651.483,997.507 657.229,990.759 662.0,983.0 L 651.0,978.0 L 641.0,997.0" style="stroke:#010101; fill:none;"/>
	<path d="M 482.0,943.0 C 485.825,924.519 492.472,901.353 503.764,886.0 C 513.815,872.333 528.122,861.627 541.0,850.855 C 551.802,841.819 563.328,831.304 576.0,825.0" style="stroke:#010101; fill:none;"/>
	<path d="M 647.0,825.0 L 647.0,826.0" style="stroke:#010101; fill:none;"/>
	<path d="M 577.0,827.0 L 552.0,851.0" style="stroke:#010101; fill:none;"/>
	<path d="M 647.0,828.0 L 650.0,829.0" style="stroke:#010101; fill:none;"/>
	<path d="M 624.0,829.0 C 615.697,837.478 608.693,847.139 600.827,856.0 C 596.975,860.34 592.513,863.264 596.0,869.0 L 589.0,873.0 L 591.0,873.0" style="stroke:#010101; fill:none;"/>
	<path d="M 649.0,830.0 L 646.0,835.0" style="stroke:#010101; fill:none;"/>
	<path d="M 642.0,835.0 L 647.0,834.0" style="stroke:#010101; fill:none;"/>
	<path d="M 639.0,846.0 C 636.141,842.111 636.229,840.101 640.0,837.0" style="stroke:#010101; fill:none;"/>
	<path d="M 646.0,837.0 L 646.0,839.0" style="stroke:#010101; fill:none;"/>
	<path d="M 823.0,838.0 L 830.0,837.0" style="stroke:#010101; fill:none;"/>
	<path d="M 655.0,838.0 L 647.0,847.0" style="stroke:#010101; fill:none;"/>
	<path d="M 880.0,838.0 L 860.0,860.0" style="stroke:#010101; fill:none;"/>
	<path d="M 584.0,842.0 L 584.0,839.0" style="stroke:#010101; fill:none;"/>
	<path d="M 646.0,839.0 L 640.0,846.0" style="stroke:#010101; fill:none;"/>
	<path d="M 831.0,839.0 L 822.0,847.0" style="stroke:#010101; fill:none;"/>
	<path d="M 583.0,841.0 L 581.0,843.0" style="stroke:#010101; fill:none;"/>
	<path d="M 629.0,846.0 L 635.0,842.0" style="stroke:#010101; fill:none;"/>
	<path d="M 636.0,843.0 L 630.0,854.0 L 636.0,850.0" style="stroke:#010101; fill:none;"/>
	<path d="M 615.0,847.0 L 618.0,845.0" style="stroke:#010101; fill:none;"/>
	<path d="M 636.0,845.0 L 638.0,845.0" style="stroke:#010101; fill:none;"/>
	<path d="M 753.0,862.0 L 800.0,845.0" style="stroke:#010101; fill:none;"/>
	<path d="M 900.0,853.0 L 976.0,845.846 L 1002.0,846.0" style="stroke:#010101; fill:none;"/>
	<path d="M 615.0,847.0 L 596.0,868.0" style="stroke:#010101; fill:none;"/>
	<path d="M 636.0,847.0 L 636.0,848.0" style="stroke:#010101; fill:none;"/>
	<path d="M 1028.0,850.0 C 1037.51,850.415 1047.61,853.58 1056.0,858.0" style="stroke:#010101; fill:none;"/>
	<path d="M 629.0,853.0 L 612.0,878.0 L 619.0,869.0" style="stroke:#010101; fill:none;"/>
	<path d="M 630.0,854.0 L 629.0,857.0" style="stroke:#010101; fill:none;"/>
	<path d="M 550.0,855.0 L 540.0,864.0" style="stroke:#010101; fill:none;"/>
	<path d="M 627.0,858.0 L 621.0,868.0" style="stroke:#010101; fill:none;"/>
	<path d="M 769.0,859.0 L 796.0,858.0" style="stroke:#010101; fill:none;"/>
	<path d="M 540.0,863.0 L 543.0,862.0" style="stroke:#010101; fill:none;"/>
	<path d="M 540.0,866.0 C 535.54,877.333 523.911,896.768 515.0,905.0 C 513.357,893.682 530.214,871.32 539.0,865.0" style="stroke:#010101; fill:none;"/>
	<path d="M 593.0,866.0 L 589.0,870.0" style="stroke:#010101; fill:none;"/>
	<path d="M 492.0,939.0 C 501.597,920.98 508.761,901.813 519.0,884.0 C 522.285,878.285 526.508,867.888 534.0,868.0" style="stroke:#010101; fill:none;"/>
	<path d="M 536.0,867.0 L 538.0,869.0" style="stroke:#010101; fill:none;"/>
	<path d="M 594.0,867.0 L 592.0,869.0" style="stroke:#010101; fill:none;"/>
	<path d="M 855.0,867.0 C 825.856,905.67 792.845,945.763 752.0,972.343 C 735.616,983.006 718.374,993.243 699.0,997.0" style="stroke:#010101; fill:none;"/>
	<path d="M 593.0,869.0 L 590.0,872.0" style="stroke:#010101; fill:none;"/>
	<path d="M 589.0,871.0 L 589.0,873.0" style="stroke:#010101; fill:none;"/>
	<path d="M 560.0,872.0 L 558.0,878.0 C 549.915,871.425 538.191,885.63 539.0,894.0 L 552.0,880.0" style="stroke:#010101; fill:none;"/>
	<path d="M 567.0,880.0 C 567.608,890.494 552.006,895.483 553.0,906.0 L 588.0,872.0" style="stroke:#010101; fill:none;"/>
	<path d="M 555.0,875.0 L 558.0,874.0" style="stroke:#010101; fill:none;"/>
	<path d="M 561.0,873.0 L 559.0,875.0" style="stroke:#010101; fill:none;"/>
	<path d="M 590.0,875.0 C 576.907,892.373 560.351,908.715 544.0,923.0 L 543.0,922.0 L 549.0,910.0 C 540.564,914.017 523.026,937.468 524.0,947.0 L 562.0,913.0" style="stroke:#010101; fill:none;"/>
	<path d="M 1296.0,875.0 C 1301.94,882.773 1310.13,888.985 1319.0,893.0" style="stroke:#010101; fill:none;"/>
	<path d="M 556.0,876.0 L 553.0,879.0" style="stroke:#010101; fill:none;"/>
	<path d="M 557.0,877.0 L 554.0,880.0" style="stroke:#010101; fill:none;"/>
	<path d="M 611.0,877.0 L 600.0,888.0" style="stroke:#010101; fill:none;"/>
	<path d="M 539.0,878.0 C 521.987,895.423 513.308,921.789 502.0,943.0" style="stroke:#010101; fill:none;"/>
	<path d="M 613.0,878.0 L 607.0,884.0" style="stroke:#010101; fill:none;"/>
	<path d="M 516.0,879.0 C 500.592,895.882 495.134,921.492 486.0,942.0" style="stroke:#010101; fill:none;"/>
	<path d="M 557.0,880.0 L 549.0,894.0" style="stroke:#010101; fill:none;"/>
	<path d="M 566.0,907.0 L 589.0,885.0" style="stroke:#010101; fill:none;"/>
	<path d="M 718.0,885.0 C 721.164,888.453 724.092,890.5 729.0,889.657 C 731.203,889.278 736.087,886.258 737.879,888.657 C 739.823,891.262 736.616,896.727 735.316,899.0 C 732.53,903.875 727.935,909.101 722.0,909.746 C 710.922,910.951 704.258,901.124 710.649,892.001 C 712.656,889.136 715.18,886.993 718.0,885.0" style="stroke:#010101; fill:none;"/>
	<path d="M 585.0,887.0 L 587.0,889.0" style="stroke:#010101; fill:none;"/>
	<path d="M 1054.0,888.0 L 1125.0,935.0" style="stroke:#010101; fill:none;"/>
	<path d="M 479.0,937.0 C 481.473,925.011 484.521,913.114 489.781,902.0 C 492.09,897.12 494.116,891.586 500.0,891.0" style="stroke:#010101; fill:none;"/>
	<path d="M 538.0,893.0 L 518.0,923.0 L 512.0,938.0 L 523.718,920.134 L 529.0,915.0" style="stroke:#010101; fill:none;"/>
	<path d="M 539.0,894.0 L 529.0,913.0" style="stroke:#010101; fill:none;"/>
	<path d="M 657.0,901.0 C 638.249,917.518 622.703,935.85 617.945,961.0 C 615.968,971.453 616.698,983.274 615.911,994.0 C 614.833,1008.71 613.444,1022.66 618.0,1037.0" style="stroke:#010101; fill:none;"/>
	<path d="M 524.0,905.0 L 530.0,902.0" style="stroke:#010101; fill:none;"/>
	<path d="M 514.0,904.0 L 513.0,910.0 L 515.0,905.0" style="stroke:#010101; fill:none;"/>
	<path d="M 568.0,905.0 L 570.0,907.0" style="stroke:#010101; fill:none;"/>
	<path d="M 552.0,906.0 L 550.0,909.0" style="stroke:#010101; fill:none;"/>
	<path d="M 680.0,906.0 C 684.674,914.43 684.279,924.147 693.015,930.348 C 709.292,941.903 730.426,928.668 744.0,920.053 C 750.183,916.129 757.304,912.558 761.0,906.0" style="stroke:#010101; fill:none;"/>
	<path d="M 1346.0,906.0 C 1359.88,910.687 1367.59,911.147 1382.0,910.0" style="stroke:#010101; fill:none;"/>
	<path d="M 567.0,908.0 L 565.0,910.0" style="stroke:#010101; fill:none;"/>
	<path d="M 511.0,910.0 L 513.0,911.0" style="stroke:#010101; fill:none;"/>
	<path d="M 512.0,912.0 L 496.0,945.0" style="stroke:#010101; fill:none;"/>
	<path d="M 530.0,914.0 L 534.0,913.0" style="stroke:#010101; fill:none;"/>
	<path d="M 1325.0,915.0 C 1335.57,937.352 1350.13,958.343 1362.14,980.0 C 1382.4,1016.56 1400.56,1055.7 1412.0,1096.0" style="stroke:#010101; fill:none;"/>
	<path d="M 529.0,916.0 L 528.0,917.0" style="stroke:#010101; fill:none;"/>
	<path d="M 536.0,920.0 L 540.0,918.0" style="stroke:#010101; fill:none;"/>
	<path d="M 543.0,923.0 L 540.0,927.0" style="stroke:#010101; fill:none;"/>
	<path d="M 719.0,934.0 L 721.0,937.0 L 723.0,934.0" style="stroke:#010101; fill:none;"/>
	<path d="M 511.0,937.0 L 510.0,942.0 L 512.0,938.0" style="stroke:#010101; fill:none;"/>
	<path d="M 720.0,937.0 L 685.0,958.156 L 662.0,982.0" style="stroke:#010101; fill:none;"/>
	<path d="M 509.0,941.0 L 508.0,946.0 L 510.0,942.0" style="stroke:#010101; fill:none;"/>
	<path d="M 507.0,945.0 L 502.0,954.0" style="stroke:#010101; fill:none;"/>
	<path d="M 508.0,946.0 L 508.0,948.0" style="stroke:#010101; fill:none;"/>
	<path d="M 523.0,946.0 L 519.0,950.0" style="stroke:#010101; fill:none;"/>
	<path d="M 607.0,975.0 L 617.0,962.0" style="stroke:#010101; fill:none;"/>
	<path d="M 1400.0,963.0 C 1408.5,988.136 1421.8,1011.85 1432.69,1036.0 C 1445.6,1064.65 1457.06,1094.19 1467.0,1124.0 C 1473.32,1142.95 1480.42,1162.96 1482.0,1183.0" style="stroke:#010101; fill:none;"/>
	<path d="M 644.0,967.0 L 647.0,977.0" style="stroke:#010101; fill:none;"/>
	<path d="M 1452.0,1018.0 C 1452.29,1031.97 1458.28,1046.78 1462.5,1060.0 C 1469.9,1083.21 1477.12,1106.59 1483.86,1130.0 C 1488.02,1144.46 1490.11,1166.99 1499.0,1179.0 C 1505.08,1168.02 1505.38,1152.26 1507.44,1140.0 C 1509.19,1129.51 1512.94,1119.4 1514.67,1109.0 C 1515.92,1101.51 1514.95,1094.19 1518.0,1087.0" style="stroke:#010101; fill:none;"/>
	<path d="M 1163.0,1035.0 L 1179.66,1082.0 L 1212.28,1181.0 L 1241.58,1282.0 L 1261.0,1344.0" style="stroke:#010101; fill:none;"/>
	<path d="M 297.0,1106.0 L 301.0,1105.0 C 297.039,1108.62 291.113,1109.26 286.0,1108.0 C 296.55,1093.33 318.359,1077.96 335.0,1071.0" style="stroke:#010101; fill:none;"/>
	<path d="M 316.0,1075.0 C 301.524,1087.34 279.743,1096.1 270.0,1113.0 L 270.0,1110.0" style="stroke:#010101; fill:none;"/>
	<path d="M 327.0,1086.0 L 325.0,1087.0 C 331.153,1079.05 345.333,1081.09 355.0,1078.0" style="stroke:#010101; fill:none;"/>
	<path d="M 339.0,1094.0 C 335.946,1093.67 335.965,1092.79 337.0,1090.0 L 340.0,1094.0 C 346.889,1087.67 354.05,1084.44 363.0,1082.0" style="stroke:#010101; fill:none;"/>
	<path d="M 327.0,1084.0 L 336.0,1084.0" style="stroke:#010101; fill:none;"/>
	<path d="M 347.0,1089.0 C 353.155,1091.38 360.018,1086.95 366.0,1085.0" style="stroke:#010101; fill:none;"/>
	<path d="M 317.0,1093.0 L 314.0,1092.0 L 325.0,1087.0" style="stroke:#010101; fill:none;"/>
	<path d="M 339.0,1091.0 L 342.0,1089.0" style="stroke:#010101; fill:none;"/>
	<path d="M 293.0,1091.0 L 296.0,1090.0" style="stroke:#010101; fill:none;"/>
	<path d="M 297.0,1115.0 L 292.0,1119.0 L 293.0,1120.0 L 310.0,1112.0 C 307.968,1104.04 328.242,1094.14 335.0,1092.0" style="stroke:#010101; fill:none;"/>
	<path d="M 314.0,1093.0 L 301.0,1104.0" style="stroke:#010101; fill:none;"/>
	<path d="M 294.0,1094.0 L 287.0,1109.0" style="stroke:#010101; fill:none;"/>
	<path d="M 316.0,1094.0 L 313.0,1096.0" style="stroke:#010101; fill:none;"/>
	<path d="M 336.0,1095.0 L 310.0,1112.0" style="stroke:#010101; fill:none;"/>
	<path d="M 266.0,1146.0 L 264.0,1151.0 L 263.0,1147.0 C 273.986,1146.73 282.719,1135.04 291.0,1128.58 C 295.473,1125.08 299.33,1119.79 305.0,1123.0 C 300.892,1126.29 296.289,1128.39 299.0,1134.0 C 314.492,1119.18 326.149,1103.98 347.0,1095.0" style="stroke:#010101; fill:none;"/>
	<path d="M 314.0,1121.0 C 330.516,1109.0 348.476,1098.77 369.0,1096.0" style="stroke:#010101; fill:none;"/>
	<path d="M 311.0,1097.0 L 308.0,1099.0" style="stroke:#010101; fill:none;"/>
	<path d="M 326.0,1124.0 L 317.0,1126.0 L 351.0,1103.0" style="stroke:#010101; fill:none;"/>
	<path d="M 285.0,1105.0 L 281.0,1111.0 L 287.0,1111.0" style="stroke:#010101; fill:none;"/>
	<path d="M 282.0,1108.0 C 284.193,1111.74 285.011,1114.06 283.0,1118.0 L 286.0,1121.0 L 289.0,1120.0" style="stroke:#010101; fill:none;"/>
	<path d="M 295.0,1109.0 L 289.0,1117.0" style="stroke:#010101; fill:none;"/>
	<path d="M 291.0,1110.0 L 286.0,1113.0" style="stroke:#010101; fill:none;"/>
	<path d="M 299.0,1116.0 L 307.0,1111.0" style="stroke:#010101; fill:none;"/>
	<path d="M 281.0,1111.0 C 276.49,1115.42 272.243,1119.24 266.0,1116.0 L 264.0,1121.0 L 267.0,1117.0" style="stroke:#010101; fill:none;"/>
	<path d="M 272.0,1180.0 L 270.0,1179.0 C 277.959,1174.83 281.296,1166.24 288.0,1160.42 C 308.594,1142.56 330.652,1121.92 356.0,1111.0" style="stroke:#010101; fill:none;"/>
	<path d="M 307.0,1112.0 L 308.0,1113.0" style="stroke:#010101; fill:none;"/>
	<path d="M 269.0,1113.0 L 266.0,1116.0" style="stroke:#010101; fill:none;"/>
	<path d="M 303.0,1113.0 L 305.0,1115.0" style="stroke:#010101; fill:none;"/>
	<path d="M 302.0,1116.0 L 303.0,1117.0" style="stroke:#010101; fill:none;"/>
	<path d="M 314.0,1117.0 L 316.0,1119.0" style="stroke:#010101; fill:none;"/>
	<path d="M 274.0,1118.0 C 275.389,1123.13 278.945,1120.58 282.0,1118.0" style="stroke:#010101; fill:none;"/>
	<path d="M 300.0,1118.0 L 300.0,1119.0" style="stroke:#010101; fill:none;"/>
	<path d="M 302.0,1118.0 L 302.0,1120.0" style="stroke:#010101; fill:none;"/>
	<path d="M 290.0,1119.0 L 292.0,1119.0" style="stroke:#010101; fill:none;"/>
	<path d="M 306.0,1123.0 L 311.0,1119.0" style="stroke:#010101; fill:none;"/>
	<path d="M 264.0,1121.0 L 214.0,1166.0" style="stroke:#010101; fill:none;"/>
	<path d="M 274.0,1121.0 C 268.851,1125.74 248.02,1134.9 256.0,1144.0 L 265.0,1129.0" style="stroke:#010101; fill:none;"/>
	<path d="M 286.0,1121.0 C 272.827,1133.61 257.911,1144.09 245.0,1157.0 C 240.817,1161.18 232.383,1166.61 234.0,1173.0 L 234.0,1171.0" style="stroke:#010101; fill:none;"/>
	<path d="M 293.0,1121.0 L 267.0,1145.0" style="stroke:#010101; fill:none;"/>
	<path d="M 308.0,1124.0 L 312.0,1122.0" style="stroke:#010101; fill:none;"/>
	<path d="M 301.0,1123.0 L 304.0,1125.0" style="stroke:#010101; fill:none;"/>
	<path d="M 307.0,1123.0 L 308.0,1124.0" style="stroke:#010101; fill:none;"/>
	<path d="M 277.0,1124.0 L 272.0,1130.0" style="stroke:#010101; fill:none;"/>
	<path d="M 297.0,1125.0 L 299.0,1127.0" style="stroke:#010101; fill:none;"/>
	<path d="M 304.0,1125.0 L 306.0,1127.0" style="stroke:#010101; fill:none;"/>
	<path d="M 849.0,1126.0 C 860.322,1127.67 870.909,1132.72 882.0,1135.35 C 906.788,1141.21 931.581,1145.17 957.0,1146.91 C 1006.1,1150.27 1060.14,1137.65 1104.0,1167.36 C 1135.48,1188.68 1144.32,1226.42 1160.94,1258.0 C 1174.6,1283.94 1193.13,1306.23 1205.0,1333.0" style="stroke:#010101; fill:none;"/>
	<path d="M 303.0,1127.0 L 303.0,1128.0" style="stroke:#010101; fill:none;"/>
	<path d="M 292.0,1128.0 L 293.0,1135.0 L 294.0,1136.0 L 295.0,1135.0 L 294.0,1134.0 L 293.0,1133.0 L 293.0,1134.0 L 279.0,1158.0 C 269.797,1156.55 266.93,1166.92 261.0,1172.0 L 265.0,1177.0 L 270.0,1172.0 L 266.0,1168.0" style="stroke:#010101; fill:none;"/>
	<path d="M 282.0,1154.0 L 317.0,1127.0" style="stroke:#010101; fill:none;"/>
	<path d="M 488.0,1129.0 C 502.558,1149.27 515.731,1171.0 525.573,1194.0 C 533.114,1211.62 538.078,1231.07 547.0,1248.0" style="stroke:#010101; fill:none;"/>
	<path d="M 289.0,1132.0 L 291.0,1132.0 L 269.015,1154.28 L 250.0,1171.0 L 254.0,1169.0" style="stroke:#010101; fill:none;"/>
	<path d="M 281.0,1171.0 L 334.0,1130.0" style="stroke:#010101; fill:none;"/>
	<path d="M 228.0,1157.0 L 257.0,1133.0" style="stroke:#010101; fill:none;"/>
	<path d="M 298.0,1134.0 L 296.0,1136.0" style="stroke:#010101; fill:none;"/>
	<path d="M 215.0,1182.0 L 213.0,1181.0 C 217.766,1178.37 218.784,1173.98 222.192,1170.0 C 230.511,1160.28 241.317,1145.45 253.0,1140.0" style="stroke:#010101; fill:none;"/>
	<path d="M 254.0,1141.0 L 256.0,1141.0" style="stroke:#010101; fill:none;"/>
	<path d="M 253.0,1143.0 L 220.0,1177.0" style="stroke:#010101; fill:none;"/>
	<path d="M 733.0,1177.0 C 756.081,1160.09 785.42,1138.72 816.0,1146.0" style="stroke:#010101; fill:none;"/>
	<path d="M 1409.0,1147.0 C 1421.51,1201.06 1436.96,1256.02 1437.0,1312.0" style="stroke:#010101; fill:none;"/>
	<path d="M 261.0,1148.0 L 254.0,1156.0 L 256.0,1155.0" style="stroke:#010101; fill:none;"/>
	<path d="M 427.0,1152.0 L 432.0,1150.0" style="stroke:#010101; fill:none;"/>
	<path d="M 264.0,1151.0 L 256.0,1157.0" style="stroke:#010101; fill:none;"/>
	<path d="M 281.0,1151.0 L 278.0,1154.0" style="stroke:#010101; fill:none;"/>
	<path d="M 277.0,1156.0 L 278.0,1154.0" style="stroke:#010101; fill:none;"/>
	<path d="M 418.0,1153.0 L 445.0,1160.0" style="stroke:#010101; fill:none;"/>
	<path d="M 835.0,1155.0 C 879.089,1182.58 857.632,1238.93 824.0,1265.0" style="stroke:#010101; fill:none;"/>
	<path d="M 254.0,1156.0 L 246.0,1165.0 L 250.0,1158.0" style="stroke:#010101; fill:none;"/>
	<path d="M 255.0,1157.0 L 252.0,1160.0" style="stroke:#010101; fill:none;"/>
	<path d="M 276.0,1157.0 L 267.0,1167.0" style="stroke:#010101; fill:none;"/>
	<path d="M 258.0,1158.0 L 264.0,1159.0" style="stroke:#010101; fill:none;"/>
	<path d="M 364.0,1172.0 C 381.729,1164.1 400.427,1158.0 420.0,1158.0" style="stroke:#010101; fill:none;"/>
	<path d="M 306.0,1159.0 L 250.0,1209.0" style="stroke:#010101; fill:none;"/>
	<path d="M 261.0,1160.0 L 253.0,1167.0" style="stroke:#010101; fill:none;"/>
	<path d="M 212.0,1163.0 C 206.133,1170.94 189.111,1189.81 194.0,1200.0 L 207.0,1180.0" style="stroke:#010101; fill:none;"/>
	<path d="M 286.0,1163.0 L 288.0,1165.0" style="stroke:#010101; fill:none;"/>
	<path d="M 245.0,1167.0 L 249.0,1171.0" style="stroke:#010101; fill:none;"/>
	<path d="M 447.0,1167.0 L 452.0,1168.0" style="stroke:#010101; fill:none;"/>
	<path d="M 244.0,1168.0 L 233.0,1181.0 C 238.885,1181.85 244.134,1176.94 243.0,1171.0" style="stroke:#010101; fill:none;"/>
	<path d="M 257.0,1168.0 L 261.0,1172.0" style="stroke:#010101; fill:none;"/>
	<path d="M 280.0,1168.0 L 282.0,1170.0" style="stroke:#010101; fill:none;"/>
	<path d="M 265.0,1170.0 L 268.0,1173.0" style="stroke:#010101; fill:none;"/>
	<path d="M 279.0,1170.0 L 271.0,1178.0" style="stroke:#010101; fill:none;"/>
	<path d="M 232.0,1171.0 L 214.0,1180.0" style="stroke:#010101; fill:none;"/>
	<path d="M 237.0,1172.0 L 239.0,1171.0" style="stroke:#010101; fill:none;"/>
	<path d="M 337.0,1216.0 L 320.0,1233.0 C 319.177,1224.29 331.928,1213.85 338.0,1208.58 C 357.237,1191.86 377.76,1174.24 405.0,1173.04 C 414.431,1172.62 424.705,1171.66 433.999,1171.82 C 436.608,1171.86 439.574,1173.25 440.169,1176.04 C 440.905,1179.5 436.908,1182.83 434.826,1185.04 C 427.594,1192.72 419.459,1199.54 412.0,1207.0 C 399.427,1219.58 387.041,1232.65 375.285,1246.0 C 369.152,1252.97 361.218,1264.74 352.996,1269.09 C 332.185,1280.1 318.823,1248.82 318.0,1234.0 C 312.272,1236.73 307.918,1241.8 311.0,1248.0 L 316.0,1243.0" style="stroke:#010101; fill:none;"/>
	<path d="M 246.0,1173.0 L 248.0,1172.0" style="stroke:#010101; fill:none;"/>
	<path d="M 248.0,1172.0 L 251.0,1173.0" style="stroke:#010101; fill:none;"/>
	<path d="M 259.0,1172.0 C 259.941,1175.2 260.651,1176.26 264.0,1176.0" style="stroke:#010101; fill:none;"/>
	<path d="M 270.0,1172.0 L 274.0,1174.0" style="stroke:#010101; fill:none;"/>
	<path d="M 234.0,1173.0 L 233.0,1179.0" style="stroke:#010101; fill:none;"/>
	<path d="M 428.0,1175.0 L 422.0,1188.0 L 422.0,1189.0 L 422.0,1190.0 L 421.0,1191.0" style="stroke:#010101; fill:none;"/>
	<path d="M 258.0,1176.0 C 259.873,1181.56 258.762,1183.98 256.0,1189.0 L 257.0,1190.0 L 267.0,1182.0 C 266.733,1189.09 260.961,1188.89 256.621,1192.52 C 252.401,1196.06 250.588,1200.37 248.0,1205.0 L 243.0,1200.0 L 231.0,1208.0 L 235.0,1209.0" style="stroke:#010101; fill:none;"/>
	<path d="M 262.0,1176.0 L 263.0,1177.0" style="stroke:#010101; fill:none;"/>
	<path d="M 444.0,1176.0 L 450.0,1177.0" style="stroke:#010101; fill:none;"/>
	<path d="M 227.0,1178.0 L 231.0,1183.0 L 225.0,1188.0 L 227.0,1182.0" style="stroke:#010101; fill:none;"/>
	<path d="M 247.0,1192.0 L 249.0,1192.0 C 241.579,1187.83 251.614,1179.24 257.0,1179.0" style="stroke:#010101; fill:none;"/>
	<path d="M 389.0,1178.0 L 419.0,1185.0" style="stroke:#010101; fill:none;"/>
	<path d="M 718.0,1178.0 L 714.0,1185.0" style="stroke:#010101; fill:none;"/>
	<path d="M 262.0,1179.0 L 261.0,1180.0" style="stroke:#010101; fill:none;"/>
	<path d="M 1499.0,1179.0 C 1498.98,1210.93 1488.26,1245.88 1481.42,1277.0 C 1473.63,1312.48 1468.0,1348.62 1460.29,1384.0 C 1455.43,1406.32 1456.28,1430.27 1453.83,1453.0 C 1449.45,1493.83 1441.67,1534.62 1434.39,1575.0 C 1431.21,1592.63 1425.01,1609.58 1420.88,1627.0 C 1410.23,1671.95 1399.02,1716.93 1393.28,1763.0 C 1387.12,1812.54 1383.61,1860.34 1391.27,1910.0 C 1396.63,1944.66 1411.0,1977.64 1411.0,2013.0" style="stroke:#010101; fill:none;"/>
	<path d="M 252.0,1182.0 L 254.0,1182.0 L 249.0,1189.0" style="stroke:#010101; fill:none;"/>
	<path d="M 256.0,1180.0 L 255.0,1182.0" style="stroke:#010101; fill:none;"/>
	<path d="M 267.0,1181.0 L 269.0,1180.0" style="stroke:#010101; fill:none;"/>
	<path d="M 218.0,1181.0 L 220.0,1199.0 L 226.0,1196.0 L 221.0,1208.0 L 245.0,1192.0" style="stroke:#010101; fill:none;"/>
	<path d="M 271.0,1181.0 L 269.0,1183.0" style="stroke:#010101; fill:none;"/>
	<path d="M 445.0,1182.0 L 441.0,1185.0" style="stroke:#010101; fill:none;"/>
	<path d="M 213.0,1183.0 C 206.623,1189.99 199.26,1201.24 195.916,1210.0 C 194.795,1212.94 197.307,1216.51 200.171,1217.38 C 209.274,1220.13 215.185,1204.3 209.0,1199.0 L 202.0,1217.0" style="stroke:#010101; fill:none;"/>
	<path d="M 233.0,1184.0 L 229.0,1194.0 L 244.0,1186.0" style="stroke:#010101; fill:none;"/>
	<path d="M 225.0,1189.0 C 222.76,1189.06 222.518,1188.75 224.0,1187.0" style="stroke:#010101; fill:none;"/>
	<path d="M 216.0,1188.0 L 215.0,1195.0 L 214.0,1190.0" style="stroke:#010101; fill:none;"/>
	<path d="M 217.0,1189.0 L 215.0,1191.0" style="stroke:#010101; fill:none;"/>
	<path d="M 222.0,1189.0 L 220.0,1191.0" style="stroke:#010101; fill:none;"/>
	<path d="M 256.0,1189.0 C 254.804,1191.24 254.758,1191.2 257.0,1190.0" style="stroke:#010101; fill:none;"/>
	<path d="M 201.0,1192.0 L 207.0,1190.0" style="stroke:#010101; fill:none;"/>
	<path d="M 251.0,1192.0 L 254.0,1191.0" style="stroke:#010101; fill:none;"/>
	<path d="M 376.0,1190.0 C 388.516,1191.1 395.619,1202.62 398.0,1214.0" style="stroke:#010101; fill:none;"/>
	<path d="M 259.0,1191.0 L 257.0,1195.0" style="stroke:#010101; fill:none;"/>
	<path d="M 216.0,1192.0 L 214.0,1201.0" style="stroke:#010101; fill:none;"/>
	<path d="M 245.0,1192.0 L 246.0,1196.0 L 248.0,1194.0" style="stroke:#010101; fill:none;"/>
	<path d="M 215.0,1195.0 L 213.0,1197.0" style="stroke:#010101; fill:none;"/>
	<path d="M 227.0,1195.0 L 228.0,1195.0" style="stroke:#010101; fill:none;"/>
	<path d="M 210.0,1199.0 L 212.0,1196.0" style="stroke:#010101; fill:none;"/>
	<path d="M 246.0,1196.0 L 243.0,1199.0" style="stroke:#010101; fill:none;"/>
	<path d="M 254.0,1198.0 L 247.0,1202.0" style="stroke:#010101; fill:none;"/>
	<path d="M 191.0,1199.0 L 194.0,1200.0" style="stroke:#010101; fill:none;"/>
	<path d="M 212.0,1199.0 L 213.0,1199.0" style="stroke:#010101; fill:none;"/>
	<path d="M 220.0,1199.0 C 218.336,1201.66 217.505,1203.25 221.0,1204.0 L 221.0,1204.0" style="stroke:#010101; fill:none;"/>
	<path d="M 203.0,1203.0 L 208.0,1200.0" style="stroke:#010101; fill:none;"/>
	<path d="M 219.0,1200.0 L 222.0,1203.0" style="stroke:#010101; fill:none;"/>
	<path d="M 192.0,1202.0 L 194.0,1209.0" style="stroke:#010101; fill:none;"/>
	<path d="M 246.0,1203.0 C 244.147,1209.37 242.493,1214.81 236.0,1218.0 L 238.0,1206.0" style="stroke:#010101; fill:none;"/>
	<path d="M 201.0,1204.0 L 204.0,1207.0" style="stroke:#010101; fill:none;"/>
	<path d="M 193.0,1205.0 L 197.0,1207.0" style="stroke:#010101; fill:none;"/>
	<path d="M 217.0,1205.0 L 217.0,1207.0" style="stroke:#010101; fill:none;"/>
	<path d="M 242.0,1205.0 L 244.0,1205.0" style="stroke:#010101; fill:none;"/>
	<path d="M 372.0,1217.0 C 371.688,1220.55 370.962,1223.92 369.005,1226.98 C 357.305,1245.3 329.332,1226.21 348.015,1210.33 C 350.727,1208.02 353.758,1206.4 357.0,1205.0 C 357.956,1208.2 357.835,1212.1 360.318,1214.6 C 364.645,1218.97 370.896,1217.04 371.0,1211.0" style="stroke:#010101; fill:none;"/>
	<path d="M 194.0,1212.0 L 192.0,1206.0" style="stroke:#010101; fill:none;"/>
	<path d="M 200.0,1206.0 L 202.0,1208.0" style="stroke:#010101; fill:none;"/>
	<path d="M 245.0,1206.0 L 242.0,1210.0" style="stroke:#010101; fill:none;"/>
	<path d="M 248.0,1206.0 L 247.0,1207.0" style="stroke:#010101; fill:none;"/>
	<path d="M 198.0,1207.0 L 200.0,1209.0 L 198.0,1214.0" style="stroke:#010101; fill:none;"/>
	<path d="M 214.0,1212.0 L 215.0,1216.0 L 215.0,1208.0 L 216.0,1207.0 L 217.0,1207.0" style="stroke:#010101; fill:none;"/>
	<path d="M 221.0,1208.0 L 217.0,1213.0" style="stroke:#010101; fill:none;"/>
	<path d="M 233.0,1210.0 L 226.0,1218.0 C 224.848,1213.27 227.272,1210.76 231.0,1208.0" style="stroke:#010101; fill:none;"/>
	<path d="M 240.0,1208.0 L 242.0,1210.0" style="stroke:#010101; fill:none;"/>
	<path d="M 191.0,1209.0 L 188.0,1216.0 L 192.0,1216.0 L 188.0,1224.0 L 187.0,1217.0" style="stroke:#010101; fill:none;"/>
	<path d="M 196.0,1209.0 L 198.0,1211.0" style="stroke:#010101; fill:none;"/>
	<path d="M 444.0,1210.0 L 423.0,1263.0" style="stroke:#010101; fill:none;"/>
	<path d="M 1281.0,1210.0 L 1298.85,1251.0 L 1341.95,1363.0 L 1358.0,1408.0" style="stroke:#010101; fill:none;"/>
	<path d="M 211.0,1211.0 L 213.0,1211.0" style="stroke:#010101; fill:none;"/>
	<path d="M 195.0,1213.0 L 192.0,1216.0" style="stroke:#010101; fill:none;"/>
	<path d="M 239.0,1213.0 L 241.0,1215.0" style="stroke:#010101; fill:none;"/>
	<path d="M 213.0,1240.0 L 206.0,1253.0 C 199.63,1242.05 211.093,1239.21 219.0,1244.0 L 223.0,1237.0 C 204.993,1239.34 215.626,1220.0 224.0,1215.0" style="stroke:#010101; fill:none;"/>
	<path d="M 215.0,1216.0 C 212.442,1219.44 208.068,1222.87 213.0,1226.0" style="stroke:#010101; fill:none;"/>
	<path d="M 208.0,1217.0 L 208.0,1222.0" style="stroke:#010101; fill:none;"/>
	<path d="M 197.0,1218.0 L 201.0,1229.0 L 209.0,1226.0" style="stroke:#010101; fill:none;"/>
	<path d="M 227.0,1218.0 L 216.0,1236.0" style="stroke:#010101; fill:none;"/>
	<path d="M 236.0,1218.0 C 232.278,1222.27 227.002,1227.02 228.0,1233.0 L 231.0,1230.0" style="stroke:#010101; fill:none;"/>
	<path d="M 193.0,1219.0 L 195.0,1219.0" style="stroke:#010101; fill:none;"/>
	<path d="M 200.0,1219.0 L 199.0,1223.0" style="stroke:#010101; fill:none;"/>
	<path d="M 191.0,1221.0 C 193.957,1228.18 192.959,1245.09 191.832,1253.0 C 191.174,1257.62 187.933,1260.17 189.0,1265.0 L 190.0,1259.0" style="stroke:#010101; fill:none;"/>
	<path d="M 795.0,1244.0 L 796.0,1249.0 C 799.468,1237.33 811.935,1231.16 822.0,1225.1 C 824.646,1223.51 832.774,1218.23 834.172,1224.15 C 835.494,1229.74 825.874,1238.64 823.0,1243.0" style="stroke:#010101; fill:none;"/>
	<path d="M 207.0,1223.0 L 207.0,1224.0" style="stroke:#010101; fill:none;"/>
	<path d="M 185.0,1224.0 L 187.0,1228.0 L 188.0,1224.0" style="stroke:#010101; fill:none;"/>
	<path d="M 197.0,1224.0 L 199.0,1227.0" style="stroke:#010101; fill:none;"/>
	<path d="M 196.0,1226.0 L 195.0,1237.0 C 197.214,1235.45 198.114,1234.0 196.0,1232.0" style="stroke:#010101; fill:none;"/>
	<path d="M 209.0,1226.0 C 205.892,1233.12 199.822,1239.08 204.0,1247.0" style="stroke:#010101; fill:none;"/>
	<path d="M 184.0,1227.0 L 186.0,1233.0 L 187.0,1228.0" style="stroke:#010101; fill:none;"/>
	<path d="M 205.0,1228.0 L 205.0,1230.0" style="stroke:#010101; fill:none;"/>
	<path d="M 193.0,1229.0 L 195.0,1229.0" style="stroke:#010101; fill:none;"/>
	<path d="M 209.0,1229.0 L 212.0,1232.0" style="stroke:#010101; fill:none;"/>
	<path d="M 199.0,1230.0 L 199.0,1231.0" style="stroke:#010101; fill:none;"/>
	<path d="M 211.0,1239.0 L 218.0,1231.0" style="stroke:#010101; fill:none;"/>
	<path d="M 226.0,1232.0 L 224.0,1236.0 L 227.0,1234.0" style="stroke:#010101; fill:none;"/>
	<path d="M 446.0,1232.0 C 422.641,1272.17 408.483,1318.67 380.0,1356.0" style="stroke:#010101; fill:none;"/>
	<path d="M 183.0,1233.0 C 183.815,1237.87 187.148,1239.23 184.0,1244.0 L 182.0,1238.0" style="stroke:#010101; fill:none;"/>
	<path d="M 186.0,1233.0 L 186.0,1236.0" style="stroke:#010101; fill:none;"/>
	<path d="M 215.0,1233.0 L 217.0,1235.0" style="stroke:#010101; fill:none;"/>
	<path d="M 195.0,1237.0 L 193.0,1241.0" style="stroke:#010101; fill:none;"/>
	<path d="M 197.0,1237.0 L 202.0,1238.0" style="stroke:#010101; fill:none;"/>
	<path d="M 184.0,1239.0 L 184.0,1240.0" style="stroke:#010101; fill:none;"/>
	<path d="M 199.0,1239.0 C 194.703,1245.17 194.791,1261.38 206.0,1256.0 L 199.0,1253.0 L 200.0,1254.0 L 200.0,1255.0 L 200.0,1256.0" style="stroke:#010101; fill:none;"/>
	<path d="M 214.0,1239.0 L 216.0,1239.0" style="stroke:#010101; fill:none;"/>
	<path d="M 233.0,1239.0 C 230.127,1255.69 223.703,1273.52 219.296,1290.0 C 217.397,1297.1 212.917,1303.42 215.0,1311.0 L 222.0,1297.0" style="stroke:#010101; fill:none;"/>
	<path d="M 417.0,1239.0 L 404.0,1247.0" style="stroke:#010101; fill:none;"/>
	<path d="M 217.0,1240.0 L 217.0,1242.0" style="stroke:#010101; fill:none;"/>
	<path d="M 749.0,1240.0 L 735.0,1259.0" style="stroke:#010101; fill:none;"/>
	<path d="M 1105.0,1240.0 C 1098.0,1249.08 1092.71,1259.27 1082.0,1264.62 C 1077.07,1267.08 1071.43,1264.86 1067.0,1267.55 C 1058.32,1272.82 1051.51,1281.06 1043.0,1286.62 C 1031.04,1294.43 1017.88,1299.5 1007.0,1309.18 C 998.263,1316.97 991.57,1327.1 983.661,1335.7 C 975.271,1344.83 964.999,1353.28 955.961,1361.83 C 939.302,1377.59 919.456,1388.65 904.184,1406.0 C 886.84,1425.71 876.595,1451.23 856.0,1468.0 C 859.515,1472.98 863.991,1477.44 870.0,1479.0 L 863.0,1463.0" style="stroke:#010101; fill:none;"/>
	<path d="M 190.0,1242.0 L 190.0,1247.0" style="stroke:#010101; fill:none;"/>
	<path d="M 293.0,1242.0 C 284.959,1251.21 275.016,1262.58 270.388,1274.0 C 259.823,1300.07 272.542,1325.73 272.0,1352.0" style="stroke:#010101; fill:none;"/>
	<path d="M 184.0,1244.0 L 179.0,1279.0" style="stroke:#010101; fill:none;"/>
	<path d="M 219.0,1244.0 L 217.0,1252.0 L 219.0,1251.0" style="stroke:#010101; fill:none;"/>
	<path d="M 308.0,1245.0 C 287.076,1272.44 288.089,1303.65 284.0,1336.0" style="stroke:#010101; fill:none;"/>
	<path d="M 203.0,1246.0 L 203.0,1250.0" style="stroke:#010101; fill:none;"/>
	<path d="M 758.0,1308.0 C 753.926,1283.53 774.545,1258.99 793.0,1246.0" style="stroke:#010101; fill:none;"/>
	<path d="M 189.0,1248.0 L 188.0,1258.0" style="stroke:#010101; fill:none;"/>
	<path d="M 311.0,1248.0 C 306.604,1266.99 295.049,1284.84 291.501,1304.0 C 286.086,1333.25 295.31,1364.18 272.0,1388.0" style="stroke:#010101; fill:none;"/>
	<path d="M 805.0,1248.0 L 797.0,1259.0" style="stroke:#010101; fill:none;"/>
	<path d="M 1091.0,1248.0 L 1071.0,1265.0" style="stroke:#010101; fill:none;"/>
	<path d="M 796.0,1249.0 L 779.0,1284.0" style="stroke:#010101; fill:none;"/>
	<path d="M 201.0,1250.0 L 201.0,1251.0" style="stroke:#010101; fill:none;"/>
	<path d="M 184.0,1252.0 C 184.0,1259.85 182.177,1269.77 189.0,1275.0 C 190.992,1270.7 189.599,1268.73 185.0,1268.0" style="stroke:#010101; fill:none;"/>
	<path d="M 1044.0,1252.0 C 1019.63,1269.35 991.274,1282.41 966.0,1298.69 C 941.166,1314.69 914.868,1336.86 887.0,1347.0" style="stroke:#010101; fill:none;"/>
	<path d="M 198.0,1253.0 L 199.0,1253.0" style="stroke:#010101; fill:none;"/>
	<path d="M 205.0,1255.0 L 217.0,1261.0" style="stroke:#010101; fill:none;"/>
	<path d="M 215.0,1253.0 L 213.0,1258.0" style="stroke:#010101; fill:none;"/>
	<path d="M 218.0,1254.0 L 217.0,1255.0" style="stroke:#010101; fill:none;"/>
	<path d="M 785.0,1254.0 L 788.0,1257.0 L 785.0,1260.0 L 782.0,1257.0" style="stroke:#010101; fill:none;"/>
	<path d="M 195.0,1255.0 L 190.0,1269.0" style="stroke:#010101; fill:none;"/>
	<path d="M 376.0,1255.0 L 375.0,1256.0" style="stroke:#010101; fill:none;"/>
	<path d="M 199.0,1257.0 L 202.0,1259.0" style="stroke:#010101; fill:none;"/>
	<path d="M 205.0,1257.0 L 208.0,1264.0 L 214.0,1260.0" style="stroke:#010101; fill:none;"/>
	<path d="M 1095.0,1257.0 C 1095.0,1273.42 1091.8,1288.64 1086.0,1304.0 L 1071.68,1284.43 L 1061.0,1280.0" style="stroke:#010101; fill:none;"/>
	<path d="M 785.0,1258.0 L 786.0,1259.0" style="stroke:#010101; fill:none;"/>
	<path d="M 201.0,1260.0 C 197.608,1264.98 197.728,1271.93 191.0,1273.0" style="stroke:#010101; fill:none;"/>
	<path d="M 785.0,1260.0 L 772.0,1287.0" style="stroke:#010101; fill:none;"/>
	<path d="M 213.0,1262.0 L 216.0,1263.0" style="stroke:#010101; fill:none;"/>
	<path d="M 191.0,1263.0 L 193.0,1263.0" style="stroke:#010101; fill:none;"/>
	<path d="M 211.0,1263.0 L 215.0,1265.0" style="stroke:#010101; fill:none;"/>
	<path d="M 208.0,1264.0 L 206.0,1282.0 C 208.742,1278.24 209.381,1276.1 207.0,1272.0" style="stroke:#010101; fill:none;"/>
	<path d="M 185.0,1265.0 L 187.0,1265.0" style="stroke:#010101; fill:none;"/>
	<path d="M 189.0,1265.0 L 189.0,1268.0" style="stroke:#010101; fill:none;"/>
	<path d="M 214.0,1266.0 L 209.0,1270.0" style="stroke:#010101; fill:none;"/>
	<path d="M 366.0,1267.0 L 359.0,1272.0" style="stroke:#010101; fill:none;"/>
	<path d="M 351.0,1272.0 C 342.435,1285.48 314.517,1309.8 297.0,1306.0 C 294.708,1311.24 295.396,1317.58 297.0,1323.0" style="stroke:#010101; fill:none;"/>
	<path d="M 1063.0,1272.0 L 1070.0,1282.0" style="stroke:#010101; fill:none;"/>
	<path d="M 197.0,1274.0 L 195.0,1302.0" style="stroke:#010101; fill:none;"/>
	<path d="M 188.0,1275.0 L 193.0,1312.0" style="stroke:#010101; fill:none;"/>
	<path d="M 188.0,1277.0 C 183.19,1282.69 183.951,1290.07 186.0,1297.0 L 190.0,1286.0" style="stroke:#010101; fill:none;"/>
	<path d="M 217.0,1277.0 C 211.214,1298.2 208.0,1316.18 208.0,1338.0" style="stroke:#010101; fill:none;"/>
	<path d="M 347.0,1279.0 L 351.0,1281.0" style="stroke:#010101; fill:none;"/>
	<path d="M 205.0,1283.0 C 204.485,1294.97 199.268,1310.01 206.0,1321.0" style="stroke:#010101; fill:none;"/>
	<path d="M 565.0,1283.0 L 585.0,1303.0" style="stroke:#010101; fill:none;"/>
	<path d="M 1049.0,1283.0 L 1056.0,1317.0" style="stroke:#010101; fill:none;"/>
	<path d="M 414.0,1284.0 C 400.206,1312.87 380.369,1335.97 354.0,1353.52 C 345.889,1358.91 335.886,1367.93 326.0,1369.0" style="stroke:#010101; fill:none;"/>
	<path d="M 733.0,1285.0 C 731.907,1310.45 720.721,1325.5 702.0,1341.0" style="stroke:#010101; fill:none;"/>
	<path d="M 1037.0,1291.0 L 1051.0,1306.0" style="stroke:#010101; fill:none;"/>
	<path d="M 336.0,1296.0 L 338.0,1296.0" style="stroke:#010101; fill:none;"/>
	<path d="M 198.0,1310.0 C 198.004,1304.96 197.924,1301.4 202.0,1298.0" style="stroke:#010101; fill:none;"/>
	<path d="M 296.0,1299.0 L 296.0,1305.0" style="stroke:#010101; fill:none;"/>
	<path d="M 1034.0,1300.0 C 1026.46,1322.26 1039.13,1337.08 1051.0,1354.0" style="stroke:#010101; fill:none;"/>
	<path d="M 324.0,1303.0 L 323.0,1313.0" style="stroke:#010101; fill:none;"/>
	<path d="M 330.0,1304.0 L 331.0,1304.0" style="stroke:#010101; fill:none;"/>
	<path d="M 1086.0,1304.0 L 1080.0,1330.0 L 1071.0,1327.0 C 1070.01,1333.0 1075.19,1336.34 1075.81,1342.0 C 1076.95,1352.41 1064.82,1360.17 1056.0,1356.0" style="stroke:#010101; fill:none;"/>
	<path d="M 771.0,1308.0 L 765.0,1328.0" style="stroke:#010101; fill:none;"/>
	<path d="M 213.0,1311.0 L 214.0,1315.0 L 215.0,1311.0" style="stroke:#010101; fill:none;"/>
	<path d="M 218.0,1312.0 L 214.0,1356.0" style="stroke:#010101; fill:none;"/>
	<path d="M 226.0,1312.0 L 225.0,1324.0 L 228.0,1319.0" style="stroke:#010101; fill:none;"/>
	<path d="M 313.0,1314.0 L 316.0,1314.0" style="stroke:#010101; fill:none;"/>
	<path d="M 1011.0,1314.0 C 997.737,1334.37 1010.76,1362.91 1023.0,1380.0" style="stroke:#010101; fill:none;"/>
	<path d="M 1015.0,1315.0 L 1032.0,1329.0" style="stroke:#010101; fill:none;"/>
	<path d="M 213.0,1316.0 L 212.0,1330.0" style="stroke:#010101; fill:none;"/>
	<path d="M 459.0,1322.0 L 450.8,1354.0 L 442.0,1400.0" style="stroke:#010101; fill:none;"/>
	<path d="M 224.0,1325.0 L 221.0,1343.0 L 223.0,1339.0" style="stroke:#010101; fill:none;"/>
	<path d="M 1067.0,1326.0 L 1070.0,1329.0" style="stroke:#010101; fill:none;"/>
	<path d="M 1080.0,1330.0 L 1077.0,1340.0" style="stroke:#010101; fill:none;"/>
	<path d="M 611.0,1335.0 C 622.52,1346.52 634.269,1357.85 650.0,1363.3 C 681.756,1374.32 721.33,1353.3 747.0,1336.0" style="stroke:#010101; fill:none;"/>
	<path d="M 985.0,1338.0 L 1007.0,1354.0" style="stroke:#010101; fill:none;"/>
	<path d="M 759.0,1339.0 C 741.839,1355.42 722.77,1371.09 700.0,1378.92 C 686.629,1383.52 673.068,1381.1 660.0,1384.45 C 642.128,1389.03 621.339,1407.32 611.0,1422.0" style="stroke:#010101; fill:none;"/>
	<path d="M 1408.0,1340.0 C 1407.85,1395.34 1409.17,1451.89 1403.83,1507.0 C 1399.49,1551.82 1387.38,1594.55 1376.37,1638.0 C 1365.7,1680.15 1355.24,1729.14 1325.0,1762.0" style="stroke:#010101; fill:none;"/>
	<path d="M 228.0,1343.0 L 227.0,1372.0" style="stroke:#010101; fill:none;"/>
	<path d="M 220.0,1344.0 L 220.0,1352.0" style="stroke:#010101; fill:none;"/>
	<path d="M 223.0,1344.0 L 222.0,1362.0" style="stroke:#010101; fill:none;"/>
	<path d="M 287.0,1346.0 L 285.0,1352.0" style="stroke:#010101; fill:none;"/>
	<path d="M 1070.0,1356.0 C 1059.86,1379.99 1037.77,1399.33 1021.32,1419.0 C 997.245,1447.8 973.286,1477.81 945.0,1502.71 C 917.937,1526.54 886.871,1545.11 856.015,1563.16 C 831.936,1577.24 813.493,1598.09 787.0,1605.99 C 772.099,1610.44 757.574,1597.87 747.09,1589.11 C 743.536,1586.14 737.595,1575.87 732.043,1578.06 C 728.266,1579.55 726.093,1584.91 723.841,1588.0 C 717.984,1596.03 711.981,1603.87 706.251,1612.0 C 697.93,1623.8 687.206,1628.57 675.0,1635.0" style="stroke:#010101; fill:none;"/>
	<path d="M 959.0,1360.0 L 970.0,1393.0 C 961.583,1391.87 943.922,1384.04 937.0,1379.0" style="stroke:#010101; fill:none;"/>
	<path d="M 1057.0,1360.0 L 1059.0,1369.0" style="stroke:#010101; fill:none;"/>
	<path d="M 1214.0,1360.0 C 1232.87,1409.28 1243.74,1462.28 1258.0,1513.0" style="stroke:#010101; fill:none;"/>
	<path d="M 864.0,1362.0 C 842.643,1383.37 834.052,1411.01 815.621,1434.0 C 802.549,1450.31 778.708,1464.58 759.0,1471.0" style="stroke:#010101; fill:none;"/>
	<path d="M 230.0,1363.0 L 233.0,1372.0" style="stroke:#010101; fill:none;"/>
	<path d="M 1091.0,1366.0 C 1090.67,1406.19 1077.34,1450.84 1063.0,1488.0" style="stroke:#010101; fill:none;"/>
	<path d="M 1267.0,1371.0 C 1267.82,1389.02 1277.98,1408.95 1283.67,1426.0 C 1297.27,1466.8 1314.72,1510.35 1321.0,1553.0" style="stroke:#010101; fill:none;"/>
	<path d="M 311.0,1385.0 L 308.0,1397.0" style="stroke:#010101; fill:none;"/>
	<path d="M 1033.0,1402.0 C 1031.74,1398.76 1027.79,1392.82 1028.82,1389.33 C 1030.2,1384.66 1045.7,1385.27 1049.0,1387.0" style="stroke:#010101; fill:none;"/>
	<path d="M 542.0,1394.0 L 544.0,1417.0" style="stroke:#010101; fill:none;"/>
	<path d="M 915.0,1396.0 L 923.0,1422.0 L 900.0,1413.0" style="stroke:#010101; fill:none;"/>
	<path d="M 667.0,1397.0 L 645.0,1414.0" style="stroke:#010101; fill:none;"/>
	<path d="M 972.0,1397.0 L 975.0,1400.0" style="stroke:#010101; fill:none;"/>
	<path d="M 977.0,1403.0 C 986.52,1414.81 992.318,1423.78 1009.0,1422.0" style="stroke:#010101; fill:none;"/>
	<path d="M 426.0,1621.0 C 419.123,1626.36 412.069,1619.5 406.0,1615.23 C 390.345,1604.22 376.343,1591.6 360.0,1581.43 C 344.993,1572.08 326.906,1566.42 313.0,1555.48 C 301.133,1546.15 292.823,1533.1 282.829,1522.0 C 268.092,1505.63 251.578,1490.58 236.0,1475.0 C 225.47,1464.47 216.501,1453.16 206.714,1442.0 C 202.216,1436.87 196.304,1432.29 195.562,1425.0 C 194.124,1410.87 221.704,1404.01 231.961,1408.35 C 239.028,1411.34 245.63,1422.27 250.576,1428.0 C 264.014,1443.55 276.86,1460.06 290.965,1475.0 C 309.708,1494.85 327.654,1515.16 345.275,1536.0 C 371.384,1566.88 399.206,1593.8 428.0,1622.0 L 424.0,1626.0 C 447.535,1632.05 462.385,1651.46 482.0,1665.59 C 494.647,1674.7 507.814,1684.29 521.0,1692.78 C 529.126,1698.01 539.724,1702.61 546.0,1710.0 C 528.314,1722.73 505.071,1698.42 495.338,1686.0 C 491.834,1681.53 487.519,1677.58 486.0,1672.0 L 487.0,1671.0 C 485.018,1674.47 483.491,1669.06 483.0,1667.0" style="stroke:#010101; fill:none;"/>
	<path d="M 984.0,1417.0 L 987.0,1419.0" style="stroke:#010101; fill:none;"/>
	<path d="M 651.0,1418.0 C 628.758,1432.72 590.287,1452.12 564.0,1436.0" style="stroke:#010101; fill:none;"/>
	<path d="M 986.0,1419.0 C 986.709,1422.99 989.116,1426.87 988.628,1431.0 C 986.975,1445.01 968.893,1465.27 954.0,1459.0" style="stroke:#010101; fill:none;"/>
	<path d="M 924.0,1423.0 L 928.0,1430.0" style="stroke:#010101; fill:none;"/>
	<path d="M 544.0,1426.0 C 542.91,1451.4 542.702,1486.11 562.0,1506.0 L 560.0,1470.0" style="stroke:#010101; fill:none;"/>
	<path d="M 213.0,1429.0 L 213.0,1433.0 C 232.101,1426.11 237.699,1436.27 249.576,1450.0 C 261.902,1464.25 272.627,1479.79 285.0,1494.0" style="stroke:#010101; fill:none;"/>
	<path d="M 242.0,1438.0 L 256.0,1442.0" style="stroke:#010101; fill:none;"/>
	<path d="M 548.0,1451.0 L 556.0,1493.0" style="stroke:#010101; fill:none;"/>
	<path d="M 946.0,1451.0 L 952.408,1464.0 L 944.575,1479.0 L 918.985,1507.71 L 901.0,1521.0" style="stroke:#010101; fill:none;"/>
	<path d="M 810.0,1582.0 C 803.72,1575.74 797.041,1569.79 791.304,1563.0 C 787.282,1558.24 784.668,1552.49 779.0,1549.32 C 774.469,1546.78 759.895,1549.49 758.592,1542.89 C 757.342,1536.56 771.843,1522.13 776.001,1518.0 C 797.177,1496.98 828.29,1480.99 855.0,1468.0" style="stroke:#010101; fill:none;"/>
	<path d="M 564.0,1474.0 C 568.185,1507.11 574.99,1539.19 581.551,1572.0 C 585.195,1590.22 585.632,1609.88 595.962,1626.0 C 606.628,1642.65 625.625,1653.78 641.0,1665.59 C 646.345,1669.7 650.482,1675.11 656.0,1679.0" style="stroke:#010101; fill:none;"/>
	<path d="M 745.0,1478.0 C 712.989,1510.1 690.776,1565.27 685.0,1610.0" style="stroke:#010101; fill:none;"/>
	<path d="M 870.0,1479.0 L 902.0,1517.0" style="stroke:#010101; fill:none;"/>
	<path d="M 571.0,1495.0 L 571.0,1511.0" style="stroke:#010101; fill:none;"/>
	<path d="M 1058.0,1496.0 C 1038.59,1521.75 1014.21,1543.84 991.0,1566.04 C 970.373,1585.76 950.312,1606.78 925.0,1620.69 C 900.206,1634.31 873.479,1640.51 846.0,1646.0 C 811.389,1652.92 771.796,1655.76 739.0,1639.0" style="stroke:#010101; fill:none;"/>
	<path d="M 808.0,1504.0 L 812.0,1516.0 L 790.0,1507.0" style="stroke:#010101; fill:none;"/>
	<path d="M 813.0,1516.0 L 820.0,1524.0" style="stroke:#010101; fill:none;"/>
	<path d="M 896.0,1528.0 C 884.793,1539.61 869.322,1558.31 852.0,1555.0 L 851.0,1564.0" style="stroke:#010101; fill:none;"/>
	<path d="M 823.0,1529.0 L 831.0,1539.0" style="stroke:#010101; fill:none;"/>
	<path d="M 766.0,1530.0 L 777.0,1547.0" style="stroke:#010101; fill:none;"/>
	<path d="M 757.0,1543.0 C 748.84,1551.89 737.459,1564.32 734.0,1576.0" style="stroke:#010101; fill:none;"/>
	<path d="M 836.0,1543.0 L 852.0,1555.0" style="stroke:#010101; fill:none;"/>
	<path d="M 665.0,1559.0 L 666.0,1559.0" style="stroke:#010101; fill:none;"/>
	<path d="M 745.0,1560.0 L 754.0,1569.0 C 749.198,1571.36 743.651,1570.49 739.0,1568.0" style="stroke:#010101; fill:none;"/>
	<path d="M 659.0,1563.0 L 659.0,1565.0" style="stroke:#010101; fill:none;"/>
	<path d="M 755.0,1569.0 L 776.0,1585.0" style="stroke:#010101; fill:none;"/>
	<path d="M 646.0,1588.0 L 648.0,1588.0" style="stroke:#010101; fill:none;"/>
	<path d="M 784.0,1591.0 L 792.0,1596.0" style="stroke:#010101; fill:none;"/>
	<path d="M 768.0,1605.0 C 755.237,1614.45 721.335,1620.94 707.0,1613.0" style="stroke:#010101; fill:none;"/>
	<path d="M 643.0,1606.0 L 643.0,1609.0" style="stroke:#010101; fill:none;"/>
	<path d="M 1351.0,1611.0 C 1345.93,1624.43 1344.11,1639.24 1339.81,1653.0 C 1322.18,1709.38 1300.62,1776.35 1258.0,1819.0" style="stroke:#010101; fill:none;"/>
	<path d="M 704.0,1615.0 L 708.0,1619.0" style="stroke:#010101; fill:none;"/>
	<path d="M 641.0,1617.0 L 640.0,1623.0" style="stroke:#010101; fill:none;"/>
	<path d="M 632.0,1619.0 L 632.0,1626.0" style="stroke:#010101; fill:none;"/>
	<path d="M 429.0,1622.0 L 430.0,1625.0" style="stroke:#010101; fill:none;"/>
	<path d="M 689.0,1634.0 L 676.0,1642.0" style="stroke:#010101; fill:none;"/>
	<path d="M 775.0,1651.0 C 776.398,1659.38 789.075,1655.43 795.0,1654.0" style="stroke:#010101; fill:none;"/>
	<path d="M 1382.0,1657.0 C 1364.83,1690.6 1370.89,1736.15 1375.72,1772.0 C 1377.48,1785.07 1377.69,1802.96 1387.0,1813.0" style="stroke:#010101; fill:none;"/>
	<path d="M 663.0,1676.0 L 716.0,1707.0" style="stroke:#010101; fill:none;"/>
	<path d="M 586.0,1701.0 C 622.025,1723.23 657.662,1739.87 698.0,1753.0" style="stroke:#010101; fill:none;"/>
	<path d="M 1382.0,1704.0 L 1384.0,1788.0" style="stroke:#010101; fill:none;"/>
	<path d="M 546.0,1710.0 C 555.197,1712.18 563.646,1720.33 572.0,1724.82 C 591.841,1735.47 611.249,1747.12 631.0,1758.14 C 674.275,1782.28 719.436,1800.01 767.0,1813.57 C 815.832,1827.49 865.836,1839.48 914.0,1855.52 C 951.545,1868.02 988.872,1887.32 1028.0,1893.92 C 1053.76,1898.26 1081.16,1898.63 1107.0,1894.56 C 1117.43,1892.92 1127.7,1890.73 1138.0,1888.42 C 1141.83,1887.57 1147.13,1884.93 1151.0,1886.17 C 1160.09,1889.09 1169.23,1897.16 1177.0,1902.56 C 1206.47,1923.05 1228.78,1954.95 1260.17,1972.61 C 1289.45,1989.1 1321.75,1996.52 1353.0,2007.95 C 1370.2,2014.24 1387.24,2020.37 1401.0,2033.0" style="stroke:#010101; fill:none;"/>
	<path d="M 890.0,1747.0 C 903.555,1765.85 922.393,1780.58 941.0,1794.15 C 978.728,1821.66 1018.9,1842.31 1061.0,1862.0" style="stroke:#010101; fill:none;"/>
	<path d="M 1342.0,1777.0 L 1333.0,1848.0" style="stroke:#010101; fill:none;"/>
	<path d="M 1311.0,1812.0 C 1279.49,1843.51 1241.73,1857.17 1202.0,1874.0" style="stroke:#010101; fill:none;"/>
	<path d="M 1326.0,1818.0 C 1321.2,1828.83 1320.62,1844.39 1312.0,1853.0 L 1312.0,1848.0" style="stroke:#010101; fill:none;"/>
	<path d="M 1312.0,1825.0 L 1292.0,1862.0 L 1291.0,1855.0" style="stroke:#010101; fill:none;"/>
	<path d="M 1299.0,1830.0 C 1290.5,1844.93 1277.9,1865.77 1264.0,1876.0" style="stroke:#010101; fill:none;"/>
	<path d="M 1255.0,1831.0 C 1236.88,1848.33 1212.64,1860.13 1190.0,1870.31 C 1178.29,1875.57 1165.74,1881.83 1153.0,1884.0" style="stroke:#010101; fill:none;"/>
	<path d="M 1108.0,1874.0 L 1125.0,1878.0" style="stroke:#010101; fill:none;"/>
	<path d="M 1259.0,1973.0 L 1261.0,1977.0 L 1264.0,1974.0" style="stroke:#010101; fill:none;"/>
	<path d="M 1292.0,1988.0 L 1293.0,1994.0" style="stroke:#010101; fill:none;"/>
</svg>
