<?xml version="1.0" ?>
<svg baseProfile="full" height="2211" version="1.1" width="1685" xmlns="http://www.w3.org/2000/svg" xmlns:ev="http://www.w3.org/2001/xml-events" xmlns:xlink="http://www.w3.org/1999/xlink">
	<defs/>
	<path d="M 438.0,611.0 C 443.01,609.755 451.22,606.691 452.0,614.0 L 431.985,611.871 L 416.0,612.0 C 420.633,603.53 426.64,602.626 435.0,599.0 C 433.282,595.824 432.254,595.51 429.0,597.0 C 432.854,597.885 433.595,589.526 439.0,588.25 C 450.441,585.549 466.438,587.348 478.0,589.0" style="stroke:#010101; fill:none;"/>
	<path d="M 429.0,595.0 L 432.0,591.0" style="stroke:#010101; fill:none;"/>
	<path d="M 428.0,600.0 L 421.0,598.0 C 422.512,593.875 424.838,592.916 429.0,592.0" style="stroke:#010101; fill:none;"/>
	<path d="M 436.0,592.0 L 462.0,593.0" style="stroke:#010101; fill:none;"/>
	<path d="M 421.0,598.0 C 417.33,599.765 415.133,599.638 413.0,596.0 L 422.0,595.0" style="stroke:#010101; fill:none;"/>
	<path d="M 476.0,593.0 C 493.411,595.347 510.508,602.688 527.0,608.4 C 533.057,610.497 540.83,615.902 547.0,613.0 L 543.0,612.0" style="stroke:#010101; fill:none;"/>
	<path d="M 447.0,594.0 C 454.646,599.713 462.032,598.784 471.0,600.134 C 485.005,602.242 506.252,605.003 518.0,613.0 C 502.288,617.318 485.081,600.291 469.0,605.0 C 478.174,612.008 493.882,613.02 505.0,616.139 C 507.776,616.918 516.426,620.46 517.0,617.0" style="stroke:#010101; fill:none;"/>
	<path d="M 419.0,595.0 L 421.0,597.0" style="stroke:#010101; fill:none;"/>
	<path d="M 412.0,599.0 L 413.0,596.0" style="stroke:#010101; fill:none;"/>
	<path d="M 396.0,605.0 L 391.0,605.0 L 395.0,602.0 L 398.0,606.0 L 407.0,597.0 L 408.0,597.0 L 409.0,597.0 L 410.0,597.0" style="stroke:#010101; fill:none;"/>
	<path d="M 428.0,597.0 L 429.0,597.0" style="stroke:#010101; fill:none;"/>
	<path d="M 451.0,597.0 L 438.0,600.0 L 447.0,608.0" style="stroke:#010101; fill:none;"/>
	<path d="M 404.0,601.0 L 406.0,598.0" style="stroke:#010101; fill:none;"/>
	<path d="M 397.0,602.0 L 404.0,599.0" style="stroke:#010101; fill:none;"/>
	<path d="M 408.0,600.0 L 411.0,600.0" style="stroke:#010101; fill:none;"/>
	<path d="M 417.0,600.0 L 411.0,608.0 L 418.0,607.0" style="stroke:#010101; fill:none;"/>
	<path d="M 419.0,600.0 L 422.0,603.0" style="stroke:#010101; fill:none;"/>
	<path d="M 433.0,600.0 C 436.061,603.799 438.381,605.091 443.0,603.0" style="stroke:#010101; fill:none;"/>
	<path d="M 436.0,600.0 L 438.0,600.0" style="stroke:#010101; fill:none;"/>
	<path d="M 461.0,600.0 L 468.0,605.0" style="stroke:#010101; fill:none;"/>
	<path d="M 491.0,600.0 L 531.0,615.0 C 526.411,618.104 522.061,617.849 518.0,614.0 L 523.0,611.0" style="stroke:#010101; fill:none;"/>
	<path d="M 420.0,603.0 L 421.0,604.0" style="stroke:#010101; fill:none;"/>
	<path d="M 447.0,605.0 L 463.0,604.0" style="stroke:#010101; fill:none;"/>
	<path d="M 411.0,605.0 C 403.705,606.692 392.076,609.652 389.0,617.0 L 382.0,612.0 C 384.798,608.312 386.17,606.129 391.0,606.0" style="stroke:#010101; fill:none;"/>
	<path d="M 429.0,611.0 L 425.0,608.0 L 434.0,605.0" style="stroke:#010101; fill:none;"/>
	<path d="M 454.0,605.0 L 463.0,614.0 L 473.0,608.0" style="stroke:#010101; fill:none;"/>
	<path d="M 455.0,606.0 L 451.0,610.0" style="stroke:#010101; fill:none;"/>
	<path d="M 386.0,613.0 L 383.0,607.0" style="stroke:#010101; fill:none;"/>
	<path d="M 390.0,607.0 L 385.0,609.0" style="stroke:#010101; fill:none;"/>
	<path d="M 381.0,612.0 L 381.0,608.0" style="stroke:#010101; fill:none;"/>
	<path d="M 412.0,608.0 L 416.0,612.0" style="stroke:#010101; fill:none;"/>
	<path d="M 419.0,608.0 L 425.0,608.0" style="stroke:#010101; fill:none;"/>
	<path d="M 385.0,616.0 C 381.866,614.531 378.643,612.706 379.0,609.0" style="stroke:#010101; fill:none;"/>
	<path d="M 401.0,609.0 L 406.0,611.0 L 408.0,618.0 L 402.0,623.0 L 415.0,630.0 L 415.0,624.0 L 411.0,626.0" style="stroke:#010101; fill:none;"/>
	<path d="M 406.0,611.0 L 410.0,609.0 L 414.0,611.0" style="stroke:#010101; fill:none;"/>
	<path d="M 458.0,609.0 L 453.0,611.0" style="stroke:#010101; fill:none;"/>
	<path d="M 362.0,618.0 L 377.0,610.0" style="stroke:#010101; fill:none;"/>
	<path d="M 461.0,611.0 L 465.0,611.0" style="stroke:#010101; fill:none;"/>
	<path d="M 396.0,611.0 L 405.0,615.0" style="stroke:#010101; fill:none;"/>
	<path d="M 410.0,611.0 L 408.0,613.0" style="stroke:#010101; fill:none;"/>
	<path d="M 393.0,612.0 L 397.0,613.0" style="stroke:#010101; fill:none;"/>
	<path d="M 399.0,613.0 L 402.0,611.0" style="stroke:#010101; fill:none;"/>
	<path d="M 481.0,612.0 L 487.0,620.0 C 494.132,617.993 500.33,618.932 507.0,622.0 C 502.229,624.837 498.45,622.774 494.0,620.0" style="stroke:#010101; fill:none;"/>
	<path d="M 469.0,613.0 C 473.193,615.306 477.561,614.584 482.0,613.0" style="stroke:#010101; fill:none;"/>
	<path d="M 547.0,613.0 C 558.556,613.504 573.468,618.485 583.0,625.0 L 561.0,626.0 C 556.685,622.858 554.268,622.742 550.0,626.0 L 563.0,629.0 L 554.0,634.0 L 561.0,639.0 C 557.643,641.267 556.088,642.928 557.0,647.0 L 561.0,640.0" style="stroke:#010101; fill:none;"/>
	<path d="M 378.0,614.0 L 379.0,618.0 L 379.0,613.0" style="stroke:#010101; fill:none;"/>
	<path d="M 388.0,614.0 L 389.0,614.0" style="stroke:#010101; fill:none;"/>
	<path d="M 394.0,614.0 L 390.0,616.0" style="stroke:#010101; fill:none;"/>
	<path d="M 419.0,614.0 L 409.0,618.0" style="stroke:#010101; fill:none;"/>
	<path d="M 437.0,614.0 L 431.0,619.0 L 440.0,626.0 C 432.39,631.474 424.254,628.583 417.0,624.0" style="stroke:#010101; fill:none;"/>
	<path d="M 450.0,614.0 L 448.0,618.0 L 456.0,617.0 L 452.0,614.0" style="stroke:#010101; fill:none;"/>
	<path d="M 376.0,623.0 L 373.0,627.0 L 380.0,628.0 L 370.0,619.0 C 372.751,617.769 375.238,619.404 374.0,616.0 L 375.0,615.0 L 376.0,615.0" style="stroke:#010101; fill:none;"/>
	<path d="M 399.0,615.0 L 391.0,620.0 C 394.383,624.729 397.032,626.827 402.0,623.0 L 394.0,624.0" style="stroke:#010101; fill:none;"/>
	<path d="M 425.0,615.0 L 431.0,620.0" style="stroke:#010101; fill:none;"/>
	<path d="M 446.0,615.0 L 446.0,617.0" style="stroke:#010101; fill:none;"/>
	<path d="M 465.0,615.0 L 469.0,617.0 L 460.0,619.0 L 471.0,627.0 L 468.0,636.0 L 469.0,631.0" style="stroke:#010101; fill:none;"/>
	<path d="M 474.0,615.0 L 479.0,616.0" style="stroke:#010101; fill:none;"/>
	<path d="M 531.0,615.0 L 535.0,617.0 L 529.0,618.0" style="stroke:#010101; fill:none;"/>
	<path d="M 373.0,616.0 L 374.0,616.0" style="stroke:#010101; fill:none;"/>
	<path d="M 380.0,616.0 L 384.0,616.0" style="stroke:#010101; fill:none;"/>
	<path d="M 385.0,616.0 L 388.0,617.0" style="stroke:#010101; fill:none;"/>
	<path d="M 437.0,616.0 C 442.124,624.033 460.126,627.168 469.0,629.0" style="stroke:#010101; fill:none;"/>
	<path d="M 470.0,617.0 L 484.0,621.0 L 480.0,618.0" style="stroke:#010101; fill:none;"/>
	<path d="M 383.0,617.0 L 391.0,620.0" style="stroke:#010101; fill:none;"/>
	<path d="M 416.0,617.0 C 420.829,619.028 425.06,621.48 430.0,619.0" style="stroke:#010101; fill:none;"/>
	<path d="M 425.0,617.0 L 423.0,619.0" style="stroke:#010101; fill:none;"/>
	<path d="M 546.0,617.0 L 553.0,623.0" style="stroke:#010101; fill:none;"/>
	<path d="M 379.0,618.0 C 375.476,627.288 392.412,629.475 398.0,627.0" style="stroke:#010101; fill:none;"/>
	<path d="M 444.0,618.0 L 445.0,618.0" style="stroke:#010101; fill:none;"/>
	<path d="M 457.0,618.0 L 460.0,620.0" style="stroke:#010101; fill:none;"/>
	<path d="M 375.0,619.0 L 377.0,621.0" style="stroke:#010101; fill:none;"/>
	<path d="M 378.0,623.0 C 380.942,620.912 381.731,620.516 385.0,622.0 L 386.0,621.0" style="stroke:#010101; fill:none;"/>
	<path d="M 435.0,619.0 L 436.0,619.0" style="stroke:#010101; fill:none;"/>
	<path d="M 536.0,619.0 L 550.0,626.0" style="stroke:#010101; fill:none;"/>
	<path d="M 370.0,620.0 L 361.0,624.0 L 368.0,629.0 L 368.0,622.0" style="stroke:#010101; fill:none;"/>
	<path d="M 499.0,620.0 L 497.0,622.0" style="stroke:#010101; fill:none;"/>
	<path d="M 503.0,620.0 L 500.0,623.0" style="stroke:#010101; fill:none;"/>
	<path d="M 381.0,621.0 L 384.0,622.0" style="stroke:#010101; fill:none;"/>
	<path d="M 423.0,621.0 L 419.0,624.0" style="stroke:#010101; fill:none;"/>
	<path d="M 484.0,621.0 L 487.0,621.0" style="stroke:#010101; fill:none;"/>
	<path d="M 487.0,621.0 L 495.0,632.0 C 497.152,630.226 498.985,628.432 502.002,629.022 C 513.75,631.317 532.819,637.735 543.0,644.0 C 536.736,648.184 532.676,643.147 526.089,642.664 C 523.114,642.446 520.962,644.88 517.985,644.712 C 509.201,644.217 501.824,637.817 496.0,632.0 C 491.869,640.1 487.857,638.824 480.0,641.0 L 488.0,646.0 C 483.192,648.172 479.423,646.49 475.0,644.0 L 479.0,640.0" style="stroke:#010101; fill:none;"/>
	<path d="M 519.0,621.0 L 552.0,631.0 L 553.0,628.0" style="stroke:#010101; fill:none;"/>
	<path d="M 543.0,621.0 L 540.0,624.0 L 545.0,624.0" style="stroke:#010101; fill:none;"/>
	<path d="M 545.0,621.0 L 548.0,621.0" style="stroke:#010101; fill:none;"/>
	<path d="M 551.0,621.0 L 545.0,626.0" style="stroke:#010101; fill:none;"/>
	<path d="M 507.0,622.0 L 518.0,626.0 C 513.419,628.236 509.595,626.759 505.0,625.0" style="stroke:#010101; fill:none;"/>
	<path d="M 559.0,623.0 L 563.0,622.0" style="stroke:#010101; fill:none;"/>
	<path d="M 382.0,623.0 L 380.0,625.0" style="stroke:#010101; fill:none;"/>
	<path d="M 393.0,623.0 L 391.0,625.0" style="stroke:#010101; fill:none;"/>
	<path d="M 487.0,623.0 L 492.0,629.0" style="stroke:#010101; fill:none;"/>
	<path d="M 581.0,623.0 L 579.0,625.0" style="stroke:#010101; fill:none;"/>
	<path d="M 364.0,624.0 L 367.0,629.0" style="stroke:#010101; fill:none;"/>
	<path d="M 536.0,624.0 L 539.0,624.0" style="stroke:#010101; fill:none;"/>
	<path d="M 359.0,630.0 L 363.0,631.0 C 358.757,631.291 356.954,629.104 358.0,625.0 L 360.0,626.0" style="stroke:#010101; fill:none;"/>
	<path d="M 440.0,626.0 L 452.0,631.0 L 438.0,629.0" style="stroke:#010101; fill:none;"/>
	<path d="M 562.0,628.0 C 567.873,625.134 573.24,628.7 579.0,630.646 C 593.344,635.492 606.05,643.651 620.0,649.0" style="stroke:#010101; fill:none;"/>
	<path d="M 586.0,626.0 L 605.0,635.0" style="stroke:#010101; fill:none;"/>
	<path d="M 360.0,627.0 L 362.0,629.0" style="stroke:#010101; fill:none;"/>
	<path d="M 362.0,627.0 L 361.0,628.0" style="stroke:#010101; fill:none;"/>
	<path d="M 370.0,627.0 L 373.0,627.0" style="stroke:#010101; fill:none;"/>
	<path d="M 387.0,627.0 L 397.259,637.393 L 419.0,635.0 L 414.0,634.0" style="stroke:#010101; fill:none;"/>
	<path d="M 411.0,627.0 L 397.0,629.0" style="stroke:#010101; fill:none;"/>
	<path d="M 472.0,627.0 L 482.0,632.0 C 478.229,635.331 475.361,633.448 471.0,632.0" style="stroke:#010101; fill:none;"/>
	<path d="M 495.0,627.0 L 505.0,632.0" style="stroke:#010101; fill:none;"/>
	<path d="M 518.0,627.0 L 530.004,629.162 L 557.0,639.0" style="stroke:#010101; fill:none;"/>
	<path d="M 520.0,627.0 L 525.0,628.0" style="stroke:#010101; fill:none;"/>
	<path d="M 374.0,629.0 C 369.196,634.66 354.212,644.538 347.0,641.0 C 351.037,637.162 357.029,635.61 353.0,630.0 L 355.0,629.0" style="stroke:#010101; fill:none;"/>
	<path d="M 416.0,629.0 L 420.0,629.0" style="stroke:#010101; fill:none;"/>
	<path d="M 563.0,629.0 C 568.318,632.776 561.67,634.263 558.0,633.0" style="stroke:#010101; fill:none;"/>
	<path d="M 352.0,636.0 L 353.0,630.0" style="stroke:#010101; fill:none;"/>
	<path d="M 392.0,630.0 L 393.0,630.0" style="stroke:#010101; fill:none;"/>
	<path d="M 411.0,630.0 L 413.0,633.0" style="stroke:#010101; fill:none;"/>
	<path d="M 415.0,630.0 L 415.0,632.0" style="stroke:#010101; fill:none;"/>
	<path d="M 474.0,630.0 L 472.0,632.0" style="stroke:#010101; fill:none;"/>
	<path d="M 549.0,630.0 L 551.0,630.0" style="stroke:#010101; fill:none;"/>
	<path d="M 357.0,632.0 L 353.0,634.0" style="stroke:#010101; fill:none;"/>
	<path d="M 479.0,631.0 L 476.0,634.0" style="stroke:#010101; fill:none;"/>
	<path d="M 482.0,632.0 L 494.0,635.0" style="stroke:#010101; fill:none;"/>
	<path d="M 525.0,632.0 C 529.818,633.374 532.797,635.591 537.0,632.0" style="stroke:#010101; fill:none;"/>
	<path d="M 552.0,632.0 L 554.0,634.0" style="stroke:#010101; fill:none;"/>
	<path d="M 561.0,634.0 L 565.0,632.0" style="stroke:#010101; fill:none;"/>
	<path d="M 391.0,633.0 L 369.0,648.0 C 361.714,643.395 338.68,653.853 340.0,663.0 C 352.841,657.733 367.995,651.603 382.0,651.0" style="stroke:#010101; fill:none;"/>
	<path d="M 453.0,633.0 L 466.0,634.0" style="stroke:#010101; fill:none;"/>
	<path d="M 567.0,633.0 L 591.576,643.241 L 602.0,648.0" style="stroke:#010101; fill:none;"/>
	<path d="M 357.0,634.0 L 360.0,633.0" style="stroke:#010101; fill:none;"/>
	<path d="M 457.0,634.0 L 452.0,639.0 L 457.0,641.0 L 456.0,635.0" style="stroke:#010101; fill:none;"/>
	<path d="M 486.0,634.0 L 479.0,639.0" style="stroke:#010101; fill:none;"/>
	<path d="M 419.0,635.0 L 429.0,639.0" style="stroke:#010101; fill:none;"/>
	<path d="M 426.0,635.0 L 450.0,639.0 L 444.0,637.0" style="stroke:#010101; fill:none;"/>
	<path d="M 488.0,636.0 L 488.0,639.0" style="stroke:#010101; fill:none;"/>
	<path d="M 536.0,636.0 L 548.0,641.0 L 543.0,644.0" style="stroke:#010101; fill:none;"/>
	<path d="M 390.0,637.0 L 394.0,638.0" style="stroke:#010101; fill:none;"/>
	<path d="M 470.0,637.0 L 477.0,640.0" style="stroke:#010101; fill:none;"/>
	<path d="M 495.0,637.0 L 501.0,637.0" style="stroke:#010101; fill:none;"/>
	<path d="M 503.0,637.0 L 508.0,638.0 L 506.0,640.0" style="stroke:#010101; fill:none;"/>
	<path d="M 458.0,638.0 C 461.699,638.747 461.096,640.688 458.0,642.0 L 458.0,642.0" style="stroke:#010101; fill:none;"/>
	<path d="M 496.0,638.0 L 491.0,641.0" style="stroke:#010101; fill:none;"/>
	<path d="M 508.0,638.0 L 512.0,639.0 L 509.0,642.0" style="stroke:#010101; fill:none;"/>
	<path d="M 387.0,639.0 L 396.0,643.0" style="stroke:#010101; fill:none;"/>
	<path d="M 392.0,639.0 L 392.0,642.0" style="stroke:#010101; fill:none;"/>
	<path d="M 450.0,639.0 L 452.0,639.0" style="stroke:#010101; fill:none;"/>
	<path d="M 462.0,639.0 L 475.0,644.0" style="stroke:#010101; fill:none;"/>
	<path d="M 497.0,639.0 L 496.0,643.0" style="stroke:#010101; fill:none;"/>
	<path d="M 512.0,639.0 L 516.0,640.0 L 513.0,643.0" style="stroke:#010101; fill:none;"/>
	<path d="M 466.0,640.0 L 462.0,643.0" style="stroke:#010101; fill:none;"/>
	<path d="M 516.0,640.0 L 522.0,641.0" style="stroke:#010101; fill:none;"/>
	<path d="M 585.0,640.0 L 582.0,641.0" style="stroke:#010101; fill:none;"/>
	<path d="M 340.0,647.0 L 347.0,641.0" style="stroke:#010101; fill:none;"/>
	<path d="M 465.0,641.0 L 469.0,642.0" style="stroke:#010101; fill:none;"/>
	<path d="M 472.0,643.0 L 476.0,641.0" style="stroke:#010101; fill:none;"/>
	<path d="M 493.0,641.0 L 495.0,643.0" style="stroke:#010101; fill:none;"/>
	<path d="M 548.0,641.0 L 548.0,645.0 L 553.0,647.0 L 552.0,642.0" style="stroke:#010101; fill:none;"/>
	<path d="M 562.0,641.0 L 571.0,644.0 C 569.18,644.809 566.266,646.622 570.0,646.0" style="stroke:#010101; fill:none;"/>
	<path d="M 365.0,645.0 L 372.0,642.0" style="stroke:#010101; fill:none;"/>
	<path d="M 557.0,643.0 L 559.0,645.0" style="stroke:#010101; fill:none;"/>
	<path d="M 566.0,643.0 L 560.0,644.0" style="stroke:#010101; fill:none;"/>
	<path d="M 570.0,643.0 L 570.0,645.0" style="stroke:#010101; fill:none;"/>
	<path d="M 587.0,643.0 L 591.0,645.0" style="stroke:#010101; fill:none;"/>
	<path d="M 498.0,644.0 C 506.721,651.842 517.4,652.871 528.0,656.811 C 550.397,665.135 575.824,673.379 595.0,688.0" style="stroke:#010101; fill:none;"/>
	<path d="M 565.0,644.0 L 567.0,646.0" style="stroke:#010101; fill:none;"/>
	<path d="M 571.0,644.0 C 581.547,647.338 601.171,655.674 606.0,666.0 C 594.543,663.785 580.118,654.035 570.0,648.0" style="stroke:#010101; fill:none;"/>
	<path d="M 458.0,646.0 L 486.0,653.255 L 528.0,669.0" style="stroke:#010101; fill:none;"/>
	<path d="M 521.0,645.0 L 568.0,668.0" style="stroke:#010101; fill:none;"/>
	<path d="M 547.0,645.0 L 548.0,645.0" style="stroke:#010101; fill:none;"/>
	<path d="M 334.0,672.0 C 359.157,657.32 394.18,649.662 423.0,646.0" style="stroke:#010101; fill:none;"/>
	<path d="M 488.0,646.0 L 499.0,646.0" style="stroke:#010101; fill:none;"/>
	<path d="M 348.0,653.0 C 345.358,647.307 350.87,646.895 355.0,649.0" style="stroke:#010101; fill:none;"/>
	<path d="M 492.0,647.0 L 487.0,648.0" style="stroke:#010101; fill:none;"/>
	<path d="M 501.0,647.0 C 497.19,650.132 495.24,650.662 491.0,648.0" style="stroke:#010101; fill:none;"/>
	<path d="M 553.0,647.0 L 561.0,656.0 L 562.0,655.0 L 559.0,651.0 C 556.015,652.402 553.681,652.905 554.0,649.0" style="stroke:#010101; fill:none;"/>
	<path d="M 542.0,648.0 L 552.0,651.0" style="stroke:#010101; fill:none;"/>
	<path d="M 604.0,649.0 L 611.0,654.0" style="stroke:#010101; fill:none;"/>
	<path d="M 342.0,651.0 L 345.0,650.0" style="stroke:#010101; fill:none;"/>
	<path d="M 561.0,651.0 C 575.484,654.797 592.099,662.926 604.0,672.0" style="stroke:#010101; fill:none;"/>
	<path d="M 602.0,651.0 L 622.0,670.0" style="stroke:#010101; fill:none;"/>
	<path d="M 499.0,652.0 L 507.0,652.0" style="stroke:#010101; fill:none;"/>
	<path d="M 512.0,653.0 L 507.0,654.0" style="stroke:#010101; fill:none;"/>
	<path d="M 565.0,653.0 L 563.0,655.0" style="stroke:#010101; fill:none;"/>
	<path d="M 568.0,654.0 C 567.642,658.622 574.228,661.309 578.0,663.359 C 583.85,666.538 590.672,668.677 595.911,672.858 C 602.786,678.347 607.751,685.894 615.0,691.0" style="stroke:#010101; fill:none;"/>
	<path d="M 522.0,655.0 C 517.864,657.763 515.376,657.019 511.0,655.0" style="stroke:#010101; fill:none;"/>
	<path d="M 565.0,656.0 L 566.0,656.0" style="stroke:#010101; fill:none;"/>
	<path d="M 521.0,659.0 C 536.737,662.729 552.862,670.257 567.0,678.0" style="stroke:#010101; fill:none;"/>
	<path d="M 562.0,661.0 L 598.0,679.0" style="stroke:#010101; fill:none;"/>
	<path d="M 604.0,662.0 L 601.0,665.0" style="stroke:#010101; fill:none;"/>
	<path d="M 324.0,674.0 L 338.0,663.0" style="stroke:#010101; fill:none;"/>
	<path d="M 348.0,666.0 L 366.0,664.0" style="stroke:#010101; fill:none;"/>
	<path d="M 606.0,666.0 L 623.0,679.0" style="stroke:#010101; fill:none;"/>
	<path d="M 351.0,669.0 L 311.0,688.0" style="stroke:#010101; fill:none;"/>
	<path d="M 608.0,669.0 L 623.0,684.0" style="stroke:#010101; fill:none;"/>
	<path d="M 351.0,681.0 L 346.0,681.0 L 357.0,675.0" style="stroke:#010101; fill:none;"/>
	<path d="M 329.0,685.0 L 346.0,680.0" style="stroke:#010101; fill:none;"/>
	<path d="M 332.0,685.0 L 335.0,683.0" style="stroke:#010101; fill:none;"/>
	<path d="M 327.0,688.0 L 324.0,689.0 L 327.0,688.0" style="stroke:#010101; fill:none;"/>
	<path d="M 323.0,690.0 L 324.0,688.0" style="stroke:#010101; fill:none;"/>
	<path d="M 323.0,690.0 L 317.0,691.0 L 321.0,689.0" style="stroke:#010101; fill:none;"/>
	<path d="M 305.0,706.0 L 331.0,693.0" style="stroke:#010101; fill:none;"/>
	<path d="M 311.0,697.0 L 318.0,693.0" style="stroke:#010101; fill:none;"/>
	<path d="M 346.0,734.0 C 362.845,728.16 371.776,711.708 387.0,703.093 C 407.028,691.761 426.289,695.778 448.0,698.0" style="stroke:#010101; fill:none;"/>
	<path d="M 806.0,707.0 L 857.0,699.0" style="stroke:#010101; fill:none;"/>
	<path d="M 804.0,713.0 C 819.427,707.18 841.498,702.213 858.0,702.553 C 880.947,703.027 905.014,714.966 926.0,723.19 C 938.989,728.28 953.936,732.48 966.0,739.0 L 961.0,739.0" style="stroke:#010101; fill:none;"/>
	<path d="M 186.0,1010.0 C 181.067,1003.02 183.063,993.066 183.83,985.0 C 185.392,968.593 188.191,952.382 189.829,936.0 C 192.079,913.503 186.016,890.533 189.3,868.0 C 191.368,853.816 199.149,840.485 203.645,827.0 C 209.969,808.032 214.223,788.259 219.576,769.0 C 223.635,754.391 228.142,740.333 232.996,726.0 C 235.034,719.984 235.869,712.002 240.394,707.228 C 252.435,694.525 271.998,717.227 275.142,728.0 C 276.911,734.062 271.293,744.164 269.355,750.0 C 263.117,768.783 255.93,787.209 249.667,806.0 C 226.849,874.454 200.963,942.326 186.299,1013.0 C 183.765,1025.21 184.545,1038.54 182.196,1051.0 C 180.913,1057.81 179.901,1065.45 177.657,1071.99 C 176.81,1074.45 174.2,1076.61 173.901,1079.17 C 173.473,1082.84 176.998,1085.98 176.695,1090.0 C 174.0,1125.85 172.0,1160.97 172.0,1197.0 C 172.0,1235.91 171.205,1275.39 176.282,1314.0 C 181.486,1353.58 192.093,1391.37 201.626,1430.0 C 211.326,1469.31 219.958,1508.85 230.265,1548.0 C 239.547,1583.25 239.359,1621.35 251.344,1656.0 C 278.28,1733.86 345.813,1797.79 422.0,1827.0" style="stroke:#010101; fill:none;"/>
	<path d="M 314.0,705.0 L 307.0,711.0" style="stroke:#010101; fill:none;"/>
	<path d="M 807.0,716.0 C 827.577,712.166 855.354,705.084 876.0,710.0" style="stroke:#010101; fill:none;"/>
	<path d="M 364.0,738.0 C 381.649,729.759 398.859,719.509 418.0,714.899 C 436.233,710.507 453.033,712.902 471.0,715.386 C 490.419,718.07 512.57,720.458 530.0,730.427 C 549.02,741.307 562.896,756.308 573.775,775.0 C 576.049,778.906 585.898,787.767 581.392,792.397 C 575.922,798.015 556.303,789.27 550.0,787.424 C 524.095,779.838 497.587,772.442 471.0,767.616 C 464.752,766.482 449.746,760.568 445.0,766.0" style="stroke:#010101; fill:none;"/>
	<path d="M 456.0,713.0 C 453.315,718.324 448.407,718.195 443.0,719.08 C 430.657,721.101 418.958,722.591 407.0,726.674 C 396.288,730.332 395.406,736.747 404.015,743.904 C 405.903,745.474 407.88,746.886 410.0,748.123 C 414.489,750.743 419.332,752.733 424.0,755.0 C 430.488,758.151 436.942,761.366 444.0,763.0" style="stroke:#010101; fill:none;"/>
	<path d="M 812.0,720.0 C 831.058,715.366 852.484,716.16 872.0,715.515 C 878.846,715.289 889.626,714.327 895.0,719.0 L 858.0,720.039 L 807.0,726.0" style="stroke:#010101; fill:none;"/>
	<path d="M 470.0,716.0 C 454.247,724.789 443.069,744.601 454.0,762.0" style="stroke:#010101; fill:none;"/>
	<path d="M 472.0,717.0 L 495.0,724.0" style="stroke:#010101; fill:none;"/>
	<path d="M 455.0,718.0 L 460.0,719.0" style="stroke:#010101; fill:none;"/>
	<path d="M 895.0,721.0 C 925.18,725.773 956.164,755.619 988.0,749.0 L 982.0,745.0 L 980.0,748.0" style="stroke:#010101; fill:none;"/>
	<path d="M 227.0,818.0 C 236.489,800.014 243.128,779.238 249.667,760.0 C 252.177,752.617 257.341,746.238 255.656,738.0 C 254.4,731.86 248.688,728.574 245.0,724.0 L 246.0,723.0 L 247.0,723.0 L 248.0,723.0" style="stroke:#010101; fill:none;"/>
	<path d="M 845.0,723.0 L 885.0,724.12 L 903.0,724.0" style="stroke:#010101; fill:none;"/>
	<path d="M 546.0,725.0 C 561.665,736.61 574.604,749.147 586.0,765.0" style="stroke:#010101; fill:none;"/>
	<path d="M 814.0,730.0 L 879.0,727.755 L 899.0,734.961 L 942.0,748.0 C 929.858,753.941 906.653,742.253 895.0,738.343 C 884.467,734.809 877.89,738.413 868.0,738.887 C 861.162,739.216 854.771,736.998 848.0,739.0 L 854.0,742.0 C 842.579,748.095 824.76,742.718 812.0,745.0" style="stroke:#010101; fill:none;"/>
	<path d="M 380.0,743.0 C 384.719,739.293 392.546,728.594 398.0,731.0" style="stroke:#010101; fill:none;"/>
	<path d="M 397.0,728.0 L 400.0,728.0" style="stroke:#010101; fill:none;"/>
	<path d="M 918.0,728.0 L 942.0,733.9 L 954.0,737.0" style="stroke:#010101; fill:none;"/>
	<path d="M 513.0,752.0 C 510.247,754.255 507.624,756.234 504.0,756.785 C 480.534,760.354 480.325,721.708 504.0,729.966 C 507.285,731.112 510.191,733.0 513.0,735.0 C 509.219,740.12 502.261,752.748 515.0,751.0" style="stroke:#010101; fill:none;"/>
	<path d="M 889.0,729.0 L 910.0,732.0" style="stroke:#010101; fill:none;"/>
	<path d="M 394.0,730.0 L 396.0,732.0 L 391.0,734.0" style="stroke:#010101; fill:none;"/>
	<path d="M 858.0,730.0 L 874.0,736.0" style="stroke:#010101; fill:none;"/>
	<path d="M 389.0,737.0 L 386.0,734.0 L 390.0,733.0" style="stroke:#010101; fill:none;"/>
	<path d="M 862.0,733.0 L 841.0,734.0 L 803.0,735.0" style="stroke:#010101; fill:none;"/>
	<path d="M 360.0,748.0 L 358.0,746.0 L 386.0,734.0" style="stroke:#010101; fill:none;"/>
	<path d="M 956.0,736.0 L 955.0,739.0" style="stroke:#010101; fill:none;"/>
	<path d="M 812.0,738.0 L 847.0,738.0" style="stroke:#010101; fill:none;"/>
	<path d="M 991.0,737.0 C 1010.67,747.799 1031.91,760.425 1049.0,775.0 L 1043.0,780.0 L 1043.0,774.0 L 1034.0,770.0 L 1033.0,774.0 C 1023.34,771.786 1007.3,761.797 998.0,766.0 C 1007.85,773.315 1021.83,777.409 1032.91,782.866 C 1035.95,784.363 1044.51,789.216 1044.0,783.0" style="stroke:#010101; fill:none;"/>
	<path d="M 875.0,738.0 L 968.0,763.0 L 997.0,771.0 L 994.0,769.0" style="stroke:#010101; fill:none;"/>
	<path d="M 966.0,739.0 L 971.0,744.0 L 973.0,742.0 L 970.0,741.0" style="stroke:#010101; fill:none;"/>
	<path d="M 965.0,740.0 L 969.0,742.0" style="stroke:#010101; fill:none;"/>
	<path d="M 892.0,743.0 L 899.0,742.0" style="stroke:#010101; fill:none;"/>
	<path d="M 1005.0,741.0 C 1021.32,748.031 1036.07,760.7 1051.0,770.286 C 1056.41,773.759 1062.3,780.406 1069.0,780.0 L 1030.0,747.0" style="stroke:#010101; fill:none;"/>
	<path d="M 855.0,742.0 C 864.37,747.194 883.773,748.812 894.0,746.0" style="stroke:#010101; fill:none;"/>
	<path d="M 897.0,742.0 L 894.0,745.0" style="stroke:#010101; fill:none;"/>
	<path d="M 973.0,742.0 L 976.0,743.0 L 972.0,744.0" style="stroke:#010101; fill:none;"/>
	<path d="M 856.0,743.0 L 853.0,744.0" style="stroke:#010101; fill:none;"/>
	<path d="M 977.0,743.0 L 981.0,745.0" style="stroke:#010101; fill:none;"/>
	<path d="M 537.0,744.0 C 540.719,758.057 534.899,767.074 525.0,777.0" style="stroke:#010101; fill:none;"/>
	<path d="M 975.0,745.0 L 979.0,747.0" style="stroke:#010101; fill:none;"/>
	<path d="M 350.0,747.0 L 358.0,746.0" style="stroke:#010101; fill:none;"/>
	<path d="M 355.0,747.0 L 357.0,749.0" style="stroke:#010101; fill:none;"/>
	<path d="M 878.0,747.0 C 890.44,754.655 908.817,756.638 923.0,759.464 C 944.027,763.654 964.678,769.14 986.0,772.0" style="stroke:#010101; fill:none;"/>
	<path d="M 1041.0,747.0 L 1077.0,784.0 L 1069.0,782.0" style="stroke:#010101; fill:none;"/>
	<path d="M 553.0,748.0 L 554.0,752.0 L 556.0,750.0" style="stroke:#010101; fill:none;"/>
	<path d="M 850.0,748.0 C 882.058,762.982 919.526,769.828 953.0,780.0 C 942.492,785.608 925.115,779.672 914.0,777.611 C 901.8,775.349 889.901,775.075 878.0,770.745 C 862.379,765.061 847.003,760.038 831.0,755.115 C 825.517,753.428 820.642,749.819 815.0,749.0" style="stroke:#010101; fill:none;"/>
	<path d="M 942.0,748.0 L 964.0,753.0 L 956.0,750.0" style="stroke:#010101; fill:none;"/>
	<path d="M 821.0,749.0 L 852.0,750.0" style="stroke:#010101; fill:none;"/>
	<path d="M 945.0,749.0 L 941.0,750.0" style="stroke:#010101; fill:none;"/>
	<path d="M 990.0,749.0 L 992.0,750.0 L 990.0,752.0 L 989.0,750.0" style="stroke:#010101; fill:none;"/>
	<path d="M 312.0,753.0 C 327.304,757.853 339.084,753.451 354.0,750.0" style="stroke:#010101; fill:none;"/>
	<path d="M 993.0,750.0 L 1020.0,763.453 L 1029.0,767.0" style="stroke:#010101; fill:none;"/>
	<path d="M 554.0,752.0 C 555.571,762.635 560.883,788.947 576.0,780.0" style="stroke:#010101; fill:none;"/>
	<path d="M 980.0,752.0 L 989.0,752.0" style="stroke:#010101; fill:none;"/>
	<path d="M 255.0,753.0 L 258.0,764.0" style="stroke:#010101; fill:none;"/>
	<path d="M 871.0,755.0 L 900.0,757.0" style="stroke:#010101; fill:none;"/>
	<path d="M 965.0,753.0 L 979.0,756.0 C 975.294,757.646 973.441,757.072 970.0,755.0" style="stroke:#010101; fill:none;"/>
	<path d="M 988.0,753.0 C 991.457,755.451 993.178,755.921 997.0,754.0" style="stroke:#010101; fill:none;"/>
	<path d="M 992.0,753.0 L 994.0,752.0" style="stroke:#010101; fill:none;"/>
	<path d="M 846.0,755.0 L 855.0,757.0 L 852.0,755.0" style="stroke:#010101; fill:none;"/>
	<path d="M 856.0,755.0 L 864.0,754.0" style="stroke:#010101; fill:none;"/>
	<path d="M 405.0,760.0 L 413.0,756.0" style="stroke:#010101; fill:none;"/>
	<path d="M 979.0,756.0 L 982.0,757.0 L 978.0,758.0" style="stroke:#010101; fill:none;"/>
	<path d="M 855.0,757.0 L 887.0,766.211 L 922.0,774.0" style="stroke:#010101; fill:none;"/>
	<path d="M 982.0,757.0 L 994.0,761.0 C 989.311,763.094 985.301,761.492 981.0,759.0" style="stroke:#010101; fill:none;"/>
	<path d="M 1059.0,758.0 L 1088.0,791.0" style="stroke:#010101; fill:none;"/>
	<path d="M 994.0,761.0 L 1000.0,764.0" style="stroke:#010101; fill:none;"/>
	<path d="M 590.0,762.0 L 596.0,789.0" style="stroke:#010101; fill:none;"/>
	<path d="M 998.0,762.0 L 993.0,763.0" style="stroke:#010101; fill:none;"/>
	<path d="M 426.0,763.0 L 426.0,764.0" style="stroke:#010101; fill:none;"/>
	<path d="M 996.0,764.0 L 998.0,766.0" style="stroke:#010101; fill:none;"/>
	<path d="M 994.0,765.0 L 986.0,766.0" style="stroke:#010101; fill:none;"/>
	<path d="M 874.0,767.0 L 875.0,770.0" style="stroke:#010101; fill:none;"/>
	<path d="M 877.0,768.0 C 881.105,768.431 895.537,770.27 894.0,775.0" style="stroke:#010101; fill:none;"/>
	<path d="M 921.0,769.0 L 924.0,770.0" style="stroke:#010101; fill:none;"/>
	<path d="M 1030.0,769.0 L 1033.0,772.0" style="stroke:#010101; fill:none;"/>
	<path d="M 1032.0,769.0 L 1033.0,769.0" style="stroke:#010101; fill:none;"/>
	<path d="M 595.0,770.0 L 599.0,773.0" style="stroke:#010101; fill:none;"/>
	<path d="M 924.0,770.0 L 973.0,778.0" style="stroke:#010101; fill:none;"/>
	<path d="M 457.0,771.0 L 465.0,774.0" style="stroke:#010101; fill:none;"/>
	<path d="M 997.0,771.0 L 1002.0,776.0 L 1002.0,773.0" style="stroke:#010101; fill:none;"/>
	<path d="M 996.0,772.0 L 1000.0,774.0" style="stroke:#010101; fill:none;"/>
	<path d="M 896.0,773.0 L 904.0,775.0" style="stroke:#010101; fill:none;"/>
	<path d="M 1003.0,774.0 L 1028.0,786.75 L 1032.0,786.0" style="stroke:#010101; fill:none;"/>
	<path d="M 905.0,775.0 L 906.0,776.0" style="stroke:#010101; fill:none;"/>
	<path d="M 1034.0,775.0 L 1045.0,778.0" style="stroke:#010101; fill:none;"/>
	<path d="M 1043.0,775.0 L 1061.0,783.0 L 1055.0,779.0" style="stroke:#010101; fill:none;"/>
	<path d="M 1050.0,775.0 L 1053.0,777.0" style="stroke:#010101; fill:none;"/>
	<path d="M 974.0,776.0 C 993.698,780.077 1009.22,789.125 1026.0,799.0 L 1010.0,802.0 L 1015.0,804.0 L 1016.0,802.0" style="stroke:#010101; fill:none;"/>
	<path d="M 479.0,777.0 L 480.0,777.0" style="stroke:#010101; fill:none;"/>
	<path d="M 1045.0,779.0 L 1071.98,795.015 L 1102.0,818.0 C 1102.08,812.39 1096.93,810.151 1093.09,806.714 C 1084.02,798.609 1072.69,789.957 1062.0,784.0" style="stroke:#010101; fill:none;"/>
	<path d="M 894.0,780.0 C 915.342,784.878 947.185,781.06 965.0,794.0 C 948.717,798.815 933.236,795.351 917.0,792.0" style="stroke:#010101; fill:none;"/>
	<path d="M 953.0,780.0 L 982.0,785.0 L 981.0,783.0" style="stroke:#010101; fill:none;"/>
	<path d="M 1011.0,780.0 L 1013.0,780.0" style="stroke:#010101; fill:none;"/>
	<path d="M 563.0,781.0 L 556.0,784.0" style="stroke:#010101; fill:none;"/>
	<path d="M 956.0,781.0 L 952.0,782.0" style="stroke:#010101; fill:none;"/>
	<path d="M 1071.0,781.0 L 1073.0,783.0" style="stroke:#010101; fill:none;"/>
	<path d="M 991.0,782.0 L 985.0,785.0 C 993.104,789.97 1006.47,793.486 1016.0,793.0" style="stroke:#010101; fill:none;"/>
	<path d="M 1005.0,783.0 L 1006.0,783.0" style="stroke:#010101; fill:none;"/>
	<path d="M 1076.0,783.0 L 1076.0,785.0" style="stroke:#010101; fill:none;"/>
	<path d="M 1078.0,784.0 L 1079.0,790.0 L 1080.0,787.0" style="stroke:#010101; fill:none;"/>
	<path d="M 984.0,785.0 L 985.0,785.0" style="stroke:#010101; fill:none;"/>
	<path d="M 1046.0,785.0 L 1077.0,802.0" style="stroke:#010101; fill:none;"/>
	<path d="M 324.0,789.0 L 336.0,786.0" style="stroke:#010101; fill:none;"/>
	<path d="M 1041.0,786.0 L 1038.0,790.0 L 1079.0,815.0 L 1074.0,819.0 L 1079.0,820.0 L 1078.0,817.0" style="stroke:#010101; fill:none;"/>
	<path d="M 909.0,787.0 C 922.853,791.401 939.412,794.763 954.0,794.0" style="stroke:#010101; fill:none;"/>
	<path d="M 1037.0,787.0 L 1039.0,789.0" style="stroke:#010101; fill:none;"/>
	<path d="M 1075.0,787.0 L 1077.0,789.0" style="stroke:#010101; fill:none;"/>
	<path d="M 1032.0,788.0 L 1038.0,790.0" style="stroke:#010101; fill:none;"/>
	<path d="M 1079.0,788.0 L 1081.0,793.0 L 1081.0,791.0" style="stroke:#010101; fill:none;"/>
	<path d="M 1082.0,788.0 C 1084.98,791.86 1086.15,794.181 1085.0,799.0" style="stroke:#010101; fill:none;"/>
	<path d="M 960.0,789.0 L 997.0,791.0" style="stroke:#010101; fill:none;"/>
	<path d="M 1083.0,789.0 L 1081.0,791.0" style="stroke:#010101; fill:none;"/>
	<path d="M 1081.0,791.0 L 1082.0,796.0 L 1086.0,796.0" style="stroke:#010101; fill:none;"/>
	<path d="M 357.0,792.0 C 387.453,817.889 435.957,829.128 475.0,824.0" style="stroke:#010101; fill:none;"/>
	<path d="M 1017.0,792.0 C 1020.77,792.586 1026.39,793.495 1026.0,798.0 L 1032.0,798.0 L 1028.0,796.0" style="stroke:#010101; fill:none;"/>
	<path d="M 965.0,794.0 L 975.0,797.0 C 969.18,799.856 960.11,798.962 954.0,797.0" style="stroke:#010101; fill:none;"/>
	<path d="M 1081.0,795.0 L 1079.0,797.0" style="stroke:#010101; fill:none;"/>
	<path d="M 593.0,796.0 L 593.0,797.0" style="stroke:#010101; fill:none;"/>
	<path d="M 986.0,799.0 C 982.754,801.935 978.602,802.752 977.0,798.0 L 1011.0,797.0" style="stroke:#010101; fill:none;"/>
	<path d="M 1081.0,798.0 L 1085.0,798.0" style="stroke:#010101; fill:none;"/>
	<path d="M 583.0,797.0 L 584.0,802.0" style="stroke:#010101; fill:none;"/>
	<path d="M 976.0,797.0 L 977.0,798.0" style="stroke:#010101; fill:none;"/>
	<path d="M 1089.0,797.0 L 1094.0,803.0" style="stroke:#010101; fill:none;"/>
	<path d="M 501.0,798.0 L 516.0,804.0" style="stroke:#010101; fill:none;"/>
	<path d="M 573.0,798.0 L 578.0,800.0" style="stroke:#010101; fill:none;"/>
	<path d="M 987.0,798.0 C 990.752,800.964 1007.72,803.923 1009.0,798.0" style="stroke:#010101; fill:none;"/>
	<path d="M 992.0,798.0 L 992.0,800.0" style="stroke:#010101; fill:none;"/>
	<path d="M 996.0,798.0 L 996.0,800.0" style="stroke:#010101; fill:none;"/>
	<path d="M 1001.0,798.0 L 1001.0,800.0" style="stroke:#010101; fill:none;"/>
	<path d="M 1005.0,798.0 L 1005.0,800.0" style="stroke:#010101; fill:none;"/>
	<path d="M 1032.0,798.0 L 1044.0,804.0 L 1016.0,806.0" style="stroke:#010101; fill:none;"/>
	<path d="M 1087.0,798.0 L 1087.0,799.0" style="stroke:#010101; fill:none;"/>
	<path d="M 961.0,799.0 L 944.0,800.0" style="stroke:#010101; fill:none;"/>
	<path d="M 981.0,799.0 L 981.0,801.0" style="stroke:#010101; fill:none;"/>
	<path d="M 1031.0,799.0 L 1035.0,799.0" style="stroke:#010101; fill:none;"/>
	<path d="M 1089.0,799.0 L 1090.0,800.0" style="stroke:#010101; fill:none;"/>
	<path d="M 1090.0,800.0 L 1088.0,802.0" style="stroke:#010101; fill:none;"/>
	<path d="M 964.0,801.0 C 980.555,804.942 999.002,805.11 1015.0,810.532 C 1021.52,812.746 1026.9,821.511 1034.0,815.0 L 1021.0,812.0" style="stroke:#010101; fill:none;"/>
	<path d="M 987.0,802.0 L 989.0,801.0" style="stroke:#010101; fill:none;"/>
	<path d="M 1017.0,803.0 L 1018.0,803.0" style="stroke:#010101; fill:none;"/>
	<path d="M 1045.0,806.0 C 1053.46,808.083 1067.84,816.641 1076.0,813.0" style="stroke:#010101; fill:none;"/>
	<path d="M 1050.0,806.0 L 1054.0,807.0" style="stroke:#010101; fill:none;"/>
	<path d="M 1019.0,807.0 L 1073.0,819.0" style="stroke:#010101; fill:none;"/>
	<path d="M 969.0,808.0 L 981.0,810.0" style="stroke:#010101; fill:none;"/>
	<path d="M 1073.0,808.0 L 1087.0,816.0 L 1084.0,815.0" style="stroke:#010101; fill:none;"/>
	<path d="M 645.0,811.0 C 630.646,853.155 598.199,886.237 572.0,921.0" style="stroke:#010101; fill:none;"/>
	<path d="M 986.0,811.0 L 1020.0,817.0" style="stroke:#010101; fill:none;"/>
	<path d="M 1081.0,812.0 L 1079.0,814.0 L 1083.0,816.0" style="stroke:#010101; fill:none;"/>
	<path d="M 553.0,813.0 L 496.0,822.0" style="stroke:#010101; fill:none;"/>
	<path d="M 1035.0,815.0 C 1045.39,820.756 1061.32,822.841 1073.0,825.337 C 1078.33,826.477 1082.46,827.343 1087.0,824.0 L 1079.0,820.0" style="stroke:#010101; fill:none;"/>
	<path d="M 1072.0,815.0 L 1072.0,818.0" style="stroke:#010101; fill:none;"/>
	<path d="M 1074.0,815.0 L 1076.0,817.0" style="stroke:#010101; fill:none;"/>
	<path d="M 1103.0,816.0 L 1152.0,875.0" style="stroke:#010101; fill:none;"/>
	<path d="M 994.0,817.0 L 1020.0,823.0 L 1019.0,821.0" style="stroke:#010101; fill:none;"/>
	<path d="M 1037.0,817.0 C 1036.67,826.993 1055.13,826.116 1062.0,829.0 L 1046.0,831.0 L 1058.0,836.0 C 1057.92,838.735 1058.27,839.084 1061.0,839.0 L 1059.0,836.0" style="stroke:#010101; fill:none;"/>
	<path d="M 1032.0,818.0 L 1036.0,820.0" style="stroke:#010101; fill:none;"/>
	<path d="M 1088.0,818.0 L 1098.0,823.0 L 1094.0,823.0" style="stroke:#010101; fill:none;"/>
	<path d="M 1036.0,821.0 L 1030.0,826.0 L 1021.0,822.0" style="stroke:#010101; fill:none;"/>
	<path d="M 1078.0,821.0 L 1082.0,824.0" style="stroke:#010101; fill:none;"/>
	<path d="M 1029.0,823.0 L 1031.0,823.0" style="stroke:#010101; fill:none;"/>
	<path d="M 1099.0,823.0 L 1106.0,829.0" style="stroke:#010101; fill:none;"/>
	<path d="M 1021.0,824.0 L 1027.0,824.0" style="stroke:#010101; fill:none;"/>
	<path d="M 1081.0,824.0 L 1081.0,826.0" style="stroke:#010101; fill:none;"/>
	<path d="M 1088.0,824.0 L 1094.0,829.0 C 1090.01,831.299 1087.91,830.084 1084.0,828.0" style="stroke:#010101; fill:none;"/>
	<path d="M 1097.0,824.0 L 1102.0,831.0 C 1098.33,833.498 1096.09,833.701 1092.0,832.0" style="stroke:#010101; fill:none;"/>
	<path d="M 1102.0,825.0 L 1100.0,827.0" style="stroke:#010101; fill:none;"/>
	<path d="M 394.0,831.0 L 485.0,829.921 L 535.0,826.0" style="stroke:#010101; fill:none;"/>
	<path d="M 1032.0,827.0 L 1045.0,830.0" style="stroke:#010101; fill:none;"/>
	<path d="M 1052.0,827.0 L 1050.0,829.0" style="stroke:#010101; fill:none;"/>
	<path d="M 1090.0,827.0 L 1088.0,829.0" style="stroke:#010101; fill:none;"/>
	<path d="M 1062.0,829.0 L 1070.0,832.0 L 1061.0,831.0" style="stroke:#010101; fill:none;"/>
	<path d="M 1094.0,829.0 L 1099.0,830.0" style="stroke:#010101; fill:none;"/>
	<path d="M 1098.0,830.0 L 1095.0,833.0" style="stroke:#010101; fill:none;"/>
	<path d="M 1103.0,831.0 C 1110.86,838.386 1123.14,856.968 1134.0,858.0" style="stroke:#010101; fill:none;"/>
	<path d="M 1070.0,832.0 L 1074.0,833.0 L 1069.0,834.0" style="stroke:#010101; fill:none;"/>
	<path d="M 1074.0,833.0 C 1078.21,833.845 1092.92,839.936 1094.0,835.0" style="stroke:#010101; fill:none;"/>
	<path d="M 1105.0,833.0 L 1100.0,834.0" style="stroke:#010101; fill:none;"/>
	<path d="M 789.0,879.0 C 800.641,864.745 817.464,857.305 834.0,850.15 C 840.827,847.195 847.031,841.81 854.0,839.535 C 879.633,831.167 903.229,834.444 928.0,844.0" style="stroke:#010101; fill:none;"/>
	<path d="M 1074.0,836.0 C 1087.86,840.691 1099.57,847.19 1114.0,842.0" style="stroke:#010101; fill:none;"/>
	<path d="M 1095.0,836.0 L 1106.0,843.0" style="stroke:#010101; fill:none;"/>
	<path d="M 838.0,838.0 L 851.0,838.0" style="stroke:#010101; fill:none;"/>
	<path d="M 1061.0,838.0 L 1069.0,845.0 C 1069.9,841.757 1069.21,840.988 1066.0,840.0" style="stroke:#010101; fill:none;"/>
	<path d="M 1047.0,840.0 C 1053.49,841.855 1063.01,849.818 1069.0,845.0" style="stroke:#010101; fill:none;"/>
	<path d="M 1071.0,842.0 C 1075.46,843.57 1078.5,842.561 1079.0,848.0 C 1083.88,846.362 1087.21,845.781 1092.0,848.0 C 1088.0,850.326 1085.87,849.261 1082.0,847.0" style="stroke:#010101; fill:none;"/>
	<path d="M 935.0,843.0 C 968.132,856.61 1004.95,868.463 1033.0,891.464 C 1049.24,904.786 1057.32,923.117 1071.09,938.0 C 1092.27,960.895 1116.32,976.878 1142.0,994.0" style="stroke:#010101; fill:none;"/>
	<path d="M 1073.0,844.0 L 1078.0,848.0" style="stroke:#010101; fill:none;"/>
	<path d="M 1080.0,844.0 L 1083.0,845.0" style="stroke:#010101; fill:none;"/>
	<path d="M 1073.0,846.0 L 1071.0,850.0 L 1068.0,849.0" style="stroke:#010101; fill:none;"/>
	<path d="M 1107.0,846.0 L 1121.0,850.0" style="stroke:#010101; fill:none;"/>
	<path d="M 1092.0,848.0 L 1099.0,850.0 C 1095.6,852.295 1093.82,852.494 1090.0,851.0" style="stroke:#010101; fill:none;"/>
	<path d="M 1077.0,850.0 L 1072.0,851.0" style="stroke:#010101; fill:none;"/>
	<path d="M 1083.0,849.0 L 1077.0,855.0 L 1081.0,857.0 L 1081.0,852.0" style="stroke:#010101; fill:none;"/>
	<path d="M 1077.0,850.0 L 1079.0,852.0" style="stroke:#010101; fill:none;"/>
	<path d="M 1099.0,850.0 L 1106.0,851.0 L 1100.0,854.0 C 1103.33,856.032 1105.57,857.193 1109.0,855.0 L 1105.0,853.0" style="stroke:#010101; fill:none;"/>
	<path d="M 1115.0,850.0 L 1106.0,851.0" style="stroke:#010101; fill:none;"/>
	<path d="M 1114.0,851.0 L 1125.0,855.0" style="stroke:#010101; fill:none;"/>
	<path d="M 1074.0,853.0 L 1076.0,855.0" style="stroke:#010101; fill:none;"/>
	<path d="M 1083.0,854.0 L 1121.0,867.015 L 1137.0,872.0 C 1130.95,861.833 1119.67,860.291 1109.0,858.0" style="stroke:#010101; fill:none;"/>
	<path d="M 1098.0,854.0 L 1100.0,854.0" style="stroke:#010101; fill:none;"/>
	<path d="M 1109.0,855.0 L 1116.0,857.0 L 1114.0,859.0" style="stroke:#010101; fill:none;"/>
	<path d="M 1121.0,855.0 L 1116.0,857.0" style="stroke:#010101; fill:none;"/>
	<path d="M 1081.0,857.0 C 1095.18,866.415 1113.13,871.611 1129.0,877.529 C 1134.97,879.757 1142.74,884.265 1149.0,882.0 C 1155.13,889.495 1163.33,895.334 1166.0,905.0" style="stroke:#010101; fill:none;"/>
	<path d="M 1121.0,857.0 L 1124.0,860.0" style="stroke:#010101; fill:none;"/>
	<path d="M 1074.0,858.0 C 1091.19,869.34 1111.02,875.764 1130.0,883.309 C 1138.01,886.491 1148.29,892.559 1157.0,892.0" style="stroke:#010101; fill:none;"/>
	<path d="M 1131.0,860.0 C 1135.53,863.949 1139.52,871.122 1146.0,868.0" style="stroke:#010101; fill:none;"/>
	<path d="M 856.0,872.0 C 859.797,869.785 862.371,865.334 866.209,863.589 C 874.23,859.941 886.415,862.0 895.0,862.0 C 924.724,862.0 951.139,867.608 977.0,883.051 C 985.329,888.025 1002.67,895.767 1006.53,905.171 C 1011.0,916.036 995.083,931.571 986.0,934.211 C 966.304,939.935 943.975,923.835 927.0,915.0 C 930.057,908.354 920.905,899.547 920.177,892.0 C 919.073,880.541 928.216,873.673 935.0,866.0" style="stroke:#010101; fill:none;"/>
	<path d="M 1075.0,863.0 C 1082.51,866.551 1089.81,871.274 1096.97,875.526 C 1100.31,877.512 1102.37,881.82 1106.0,879.0 L 1102.0,878.0" style="stroke:#010101; fill:none;"/>
	<path d="M 1124.0,863.0 L 1126.0,862.0" style="stroke:#010101; fill:none;"/>
	<path d="M 927.0,915.0 C 914.254,912.7 902.994,901.009 891.0,895.873 C 876.424,889.631 862.196,890.277 847.0,887.714 C 841.926,886.859 826.824,883.267 825.921,877.012 C 825.382,873.271 831.46,871.989 834.0,871.178 C 843.393,868.181 854.171,864.803 864.0,864.0" style="stroke:#010101; fill:none;"/>
	<path d="M 1136.0,865.0 L 1134.0,867.0" style="stroke:#010101; fill:none;"/>
	<path d="M 1137.0,871.0 L 1149.0,881.0" style="stroke:#010101; fill:none;"/>
	<path d="M 1143.0,871.0 L 1143.0,873.0" style="stroke:#010101; fill:none;"/>
	<path d="M 1142.0,875.0 L 1148.0,880.0" style="stroke:#010101; fill:none;"/>
	<path d="M 835.0,878.0 L 858.0,877.0 L 860.0,888.0" style="stroke:#010101; fill:none;"/>
	<path d="M 1099.0,878.0 L 1101.0,880.0" style="stroke:#010101; fill:none;"/>
	<path d="M 1106.0,879.0 C 1117.67,884.785 1131.47,889.104 1144.0,892.709 C 1149.39,894.259 1154.33,897.002 1159.0,893.0" style="stroke:#010101; fill:none;"/>
	<path d="M 1108.0,881.0 L 1105.0,882.0" style="stroke:#010101; fill:none;"/>
	<path d="M 387.0,906.0 C 403.447,902.104 420.116,895.751 436.0,889.947 C 445.078,886.629 455.173,881.379 465.0,883.0" style="stroke:#010101; fill:none;"/>
	<path d="M 1100.0,883.0 L 1118.0,893.0 L 1115.0,894.0" style="stroke:#010101; fill:none;"/>
	<path d="M 1108.0,884.0 L 1163.0,906.0" style="stroke:#010101; fill:none;"/>
	<path d="M 956.005,885.537 C 968.418,882.617 967.254,889.258 971.179,896.995 C 973.996,902.549 984.299,906.756 972.999,909.839 C 965.923,911.771 957.191,910.084 952.649,903.957 C 948.219,897.979 947.066,887.639 956.005,885.537" style="stroke:#010101; fill:none;"/>
	<path d="M 971.0,888.0 L 973.0,888.0" style="stroke:#010101; fill:none;"/>
	<path d="M 1119.0,893.0 L 1171.0,915.0" style="stroke:#010101; fill:none;"/>
	<path d="M 1161.0,895.0 L 1158.0,897.0" style="stroke:#010101; fill:none;"/>
	<path d="M 1118.0,896.0 L 1133.0,904.0" style="stroke:#010101; fill:none;"/>
	<path d="M 1134.0,907.0 L 1146.0,910.0 C 1140.85,912.695 1137.09,909.432 1133.0,906.0" style="stroke:#010101; fill:none;"/>
	<path d="M 1009.0,906.0 L 1021.0,920.0 L 1023.0,918.0 L 1020.0,917.0" style="stroke:#010101; fill:none;"/>
	<path d="M 1138.0,906.0 L 1136.0,908.0" style="stroke:#010101; fill:none;"/>
	<path d="M 1140.0,907.0 L 1138.0,909.0" style="stroke:#010101; fill:none;"/>
	<path d="M 1142.0,908.0 L 1140.0,910.0" style="stroke:#010101; fill:none;"/>
	<path d="M 1147.0,910.0 L 1171.0,920.0" style="stroke:#010101; fill:none;"/>
	<path d="M 931.0,912.0 L 933.0,915.0" style="stroke:#010101; fill:none;"/>
	<path d="M 1145.0,914.0 C 1149.91,916.307 1162.21,925.975 1166.0,923.0 L 1162.0,922.0" style="stroke:#010101; fill:none;"/>
	<path d="M 1024.0,918.0 L 1046.0,938.0" style="stroke:#010101; fill:none;"/>
	<path d="M 1021.0,921.0 C 1029.06,935.588 1036.32,944.605 1050.0,954.29 C 1055.35,958.075 1062.25,962.76 1069.0,961.0 L 1065.0,955.0" style="stroke:#010101; fill:none;"/>
	<path d="M 1167.0,924.0 L 1175.0,927.0" style="stroke:#010101; fill:none;"/>
	<path d="M 1164.0,926.0 L 1177.0,934.0" style="stroke:#010101; fill:none;"/>
	<path d="M 1151.0,927.0 L 1182.0,943.0" style="stroke:#010101; fill:none;"/>
	<path d="M 865.0,928.0 C 901.601,964.596 952.507,979.468 1002.0,988.615 C 1016.41,991.278 1032.27,996.468 1047.0,996.0" style="stroke:#010101; fill:none;"/>
	<path d="M 1147.0,929.0 C 1161.13,937.723 1174.82,947.307 1191.0,952.0" style="stroke:#010101; fill:none;"/>
	<path d="M 977.0,937.0 C 988.339,943.538 1006.24,943.709 1019.0,943.205 C 1024.28,942.997 1028.08,944.625 1033.0,942.0" style="stroke:#010101; fill:none;"/>
	<path d="M 1153.0,940.0 L 1178.0,960.0" style="stroke:#010101; fill:none;"/>
	<path d="M 551.0,956.0 L 543.0,982.0" style="stroke:#010101; fill:none;"/>
	<path d="M 1056.0,959.0 C 1058.5,966.332 1066.02,970.882 1072.0,975.373 C 1084.09,984.458 1095.72,994.172 1108.0,1003.0" style="stroke:#010101; fill:none;"/>
	<path d="M 1069.0,961.0 C 1096.79,988.792 1130.53,1016.08 1169.0,1027.0" style="stroke:#010101; fill:none;"/>
	<path d="M 424.0,1003.0 C 429.512,997.725 435.229,992.213 443.0,991.0" style="stroke:#010101; fill:none;"/>
	<path d="M 1049.0,997.0 L 1054.0,998.0" style="stroke:#010101; fill:none;"/>
	<path d="M 1065.0,999.0 L 1095.0,1005.0" style="stroke:#010101; fill:none;"/>
	<path d="M 184.0,1003.0 L 189.0,1003.0" style="stroke:#010101; fill:none;"/>
	<path d="M 1098.0,1007.0 C 1110.54,1012.41 1125.85,1019.86 1137.0,1027.79 C 1151.9,1038.39 1165.49,1052.5 1183.0,1059.0" style="stroke:#010101; fill:none;"/>
	<path d="M 395.0,1024.0 L 363.0,1053.0 C 363.541,1046.89 368.555,1042.47 372.425,1038.0 C 383.304,1025.43 399.222,1014.37 415.0,1009.0" style="stroke:#010101; fill:none;"/>
	<path d="M 529.0,1018.0 C 525.251,1034.35 520.762,1050.0 523.439,1067.0 C 528.99,1102.25 567.559,1122.36 595.0,1139.0" style="stroke:#010101; fill:none;"/>
	<path d="M 417.0,1030.0 C 419.584,1061.64 450.85,1084.23 477.0,1097.0" style="stroke:#010101; fill:none;"/>
	<path d="M 1091.0,1031.0 C 1108.52,1058.92 1134.74,1082.88 1147.0,1114.0" style="stroke:#010101; fill:none;"/>
	<path d="M 710.0,1035.0 L 718.0,1035.0" style="stroke:#010101; fill:none;"/>
	<path d="M 1122.0,1040.0 L 1141.0,1060.0" style="stroke:#010101; fill:none;"/>
	<path d="M 385.0,1044.0 L 356.0,1064.0 L 362.0,1053.0" style="stroke:#010101; fill:none;"/>
	<path d="M 725.0,1048.0 C 754.753,1052.64 782.635,1077.91 795.0,1104.0" style="stroke:#010101; fill:none;"/>
	<path d="M 384.0,1050.0 L 355.0,1072.0 C 360.789,1072.94 365.593,1068.39 370.0,1065.0" style="stroke:#010101; fill:none;"/>
	<path d="M 1202.0,1679.0 C 1213.64,1673.52 1221.11,1653.9 1227.08,1643.0 C 1246.99,1606.65 1259.61,1564.99 1270.12,1525.0 C 1272.76,1514.92 1276.16,1504.29 1277.7,1494.0 C 1278.36,1489.57 1278.18,1481.83 1281.6,1478.43 C 1285.21,1474.83 1297.8,1483.27 1302.0,1484.78 C 1315.53,1489.66 1338.38,1496.18 1351.91,1487.91 C 1356.65,1485.01 1359.68,1479.61 1364.04,1476.13 C 1377.69,1465.25 1391.44,1454.61 1405.0,1443.61 C 1420.06,1431.39 1439.06,1420.72 1451.7,1406.0 C 1473.24,1380.92 1490.14,1349.97 1509.43,1323.0 C 1526.41,1299.25 1549.34,1277.2 1562.34,1251.0 C 1568.37,1238.85 1567.92,1225.08 1569.17,1212.0 C 1571.92,1183.17 1575.24,1155.02 1573.18,1126.0 C 1572.18,1111.86 1572.81,1098.38 1562.7,1087.04 C 1553.76,1077.01 1542.3,1069.01 1529.0,1066.46 C 1522.75,1065.26 1510.42,1067.4 1505.32,1063.97 C 1498.45,1059.36 1509.55,1054.2 1513.0,1053.0" style="stroke:#010101; fill:none;"/>
	<path d="M 353.0,1064.0 L 355.0,1063.0" style="stroke:#010101; fill:none;"/>
	<path d="M 452.0,1064.0 C 469.209,1064.15 499.018,1075.29 510.726,1088.17 C 518.379,1096.59 522.803,1107.64 531.089,1115.91 C 547.467,1132.27 576.605,1148.09 600.0,1150.0" style="stroke:#010101; fill:none;"/>
	<path d="M 1448.0,1071.0 L 1453.04,1077.61 L 1472.0,1071.66 L 1504.0,1065.0" style="stroke:#010101; fill:none;"/>
	<path d="M 1445.0,1072.0 L 1445.0,1076.0" style="stroke:#010101; fill:none;"/>
	<path d="M 355.0,1073.0 C 338.48,1087.39 321.854,1101.93 305.0,1115.92 C 291.435,1127.18 276.554,1138.08 268.171,1154.0 C 261.541,1166.59 261.648,1180.34 259.7,1194.0 C 257.887,1206.71 254.619,1219.26 253.0,1232.0" style="stroke:#010101; fill:none;"/>
	<path d="M 178.0,1077.0 L 177.0,1084.0" style="stroke:#010101; fill:none;"/>
	<path d="M 1371.0,1119.0 C 1393.44,1098.52 1425.18,1093.69 1451.0,1079.0" style="stroke:#010101; fill:none;"/>
	<path d="M 172.0,1082.0 C 166.459,1098.28 159.916,1111.41 160.001,1129.0 C 160.043,1137.66 162.567,1147.97 171.0,1152.0" style="stroke:#010101; fill:none;"/>
	<path d="M 655.0,1089.0 L 680.0,1093.0" style="stroke:#010101; fill:none;"/>
	<path d="M 478.0,1091.0 L 503.0,1100.0" style="stroke:#010101; fill:none;"/>
	<path d="M 1401.0,1299.0 C 1392.13,1275.21 1402.06,1249.63 1396.79,1225.0 C 1395.26,1217.85 1384.56,1204.06 1387.06,1198.0 C 1390.94,1188.57 1401.09,1180.52 1407.71,1173.0 C 1430.59,1147.01 1460.04,1122.25 1490.0,1104.73 C 1502.74,1097.28 1521.06,1087.57 1536.0,1094.67 C 1552.94,1102.73 1556.81,1130.86 1563.0,1147.0" style="stroke:#010101; fill:none;"/>
	<path d="M 569.0,1102.0 C 592.059,1114.13 609.664,1110.7 633.0,1101.0" style="stroke:#010101; fill:none;"/>
	<path d="M 624.0,1135.0 C 644.377,1120.62 678.366,1121.37 699.0,1135.0 C 689.656,1142.9 667.941,1141.0 656.0,1141.0" style="stroke:#010101; fill:none;"/>
	<path d="M 830.0,1124.0 C 835.82,1167.22 854.869,1209.42 876.281,1247.0 C 891.228,1273.23 911.421,1299.9 917.815,1330.0 C 929.701,1385.95 892.64,1421.21 865.811,1465.0 C 852.164,1487.28 844.476,1512.56 828.0,1533.0" style="stroke:#010101; fill:none;"/>
	<path d="M 796.0,1127.0 C 795.716,1160.86 760.369,1179.29 730.0,1177.96 C 717.481,1177.41 706.094,1172.5 694.0,1170.0" style="stroke:#010101; fill:none;"/>
	<path d="M 685.0,1131.0 C 676.476,1137.73 659.711,1133.36 649.0,1136.0" style="stroke:#010101; fill:none;"/>
	<path d="M 1535.0,1131.0 C 1526.89,1149.3 1523.95,1170.59 1519.5,1190.0 C 1503.71,1258.93 1496.27,1332.92 1440.0,1382.28 C 1419.98,1399.84 1395.58,1414.92 1368.0,1415.0" style="stroke:#010101; fill:none;"/>
	<path d="M 699.0,1135.0 C 709.83,1137.9 720.264,1143.24 729.999,1148.73 C 732.761,1150.29 740.052,1154.32 736.353,1158.4 C 732.136,1163.04 718.477,1158.24 713.0,1158.0" style="stroke:#010101; fill:none;"/>
	<path d="M 1157.0,1139.0 C 1161.36,1148.36 1164.0,1157.68 1164.0,1168.0" style="stroke:#010101; fill:none;"/>
	<path d="M 688.0,1144.0 L 701.0,1145.0" style="stroke:#010101; fill:none;"/>
	<path d="M 1342.0,1145.0 C 1337.06,1149.95 1331.41,1154.9 1330.0,1162.0" style="stroke:#010101; fill:none;"/>
	<path d="M 609.0,1150.0 L 631.0,1146.0" style="stroke:#010101; fill:none;"/>
	<path d="M 173.0,1154.0 L 175.0,1154.0" style="stroke:#010101; fill:none;"/>
	<path d="M 1562.0,1157.0 L 1555.6,1190.0 L 1554.0,1206.0 L 1557.0,1205.0" style="stroke:#010101; fill:none;"/>
	<path d="M 1321.0,1159.0 C 1307.21,1171.19 1295.78,1191.94 1292.0,1210.0" style="stroke:#010101; fill:none;"/>
	<path d="M 343.0,1173.0 L 346.0,1172.0" style="stroke:#010101; fill:none;"/>
	<path d="M 326.0,1177.0 L 327.0,1179.0" style="stroke:#010101; fill:none;"/>
	<path d="M 343.0,1177.0 L 345.0,1177.0" style="stroke:#010101; fill:none;"/>
	<path d="M 361.0,1179.0 L 361.0,1180.0" style="stroke:#010101; fill:none;"/>
	<path d="M 1137.0,1180.0 C 1139.12,1207.81 1134.49,1237.38 1131.0,1265.0" style="stroke:#010101; fill:none;"/>
	<path d="M 199.0,1181.0 C 199.0,1222.02 198.732,1262.92 210.0,1303.0" style="stroke:#010101; fill:none;"/>
	<path d="M 287.0,1184.0 L 292.0,1181.0" style="stroke:#010101; fill:none;"/>
	<path d="M 306.0,1186.0 L 310.0,1184.0" style="stroke:#010101; fill:none;"/>
	<path d="M 294.0,1190.0 L 300.0,1187.0" style="stroke:#010101; fill:none;"/>
	<path d="M 1396.0,1195.0 C 1397.43,1211.31 1413.59,1221.67 1429.0,1222.0" style="stroke:#010101; fill:none;"/>
	<path d="M 1380.0,1368.0 C 1358.97,1368.0 1310.39,1364.2 1321.97,1331.0 C 1327.55,1314.99 1344.59,1306.81 1349.25,1290.0 C 1351.82,1280.75 1349.51,1271.42 1351.38,1262.0 C 1354.95,1243.94 1370.4,1213.27 1385.0,1202.0" style="stroke:#010101; fill:none;"/>
	<path d="M 1555.0,1203.0 L 1555.0,1205.0" style="stroke:#010101; fill:none;"/>
	<path d="M 326.0,1222.0 C 361.488,1213.59 394.053,1204.0 431.0,1204.0 C 443.924,1204.0 458.641,1203.82 471.0,1208.0" style="stroke:#010101; fill:none;"/>
	<path d="M 1552.0,1207.0 L 1553.0,1211.0 L 1556.0,1207.0" style="stroke:#010101; fill:none;"/>
	<path d="M 1553.0,1211.0 L 1550.0,1216.0 L 1552.0,1213.0" style="stroke:#010101; fill:none;"/>
	<path d="M 485.0,1217.0 C 502.721,1233.27 529.084,1245.55 553.0,1247.83 C 566.905,1249.15 581.007,1246.38 595.0,1247.09 C 607.937,1247.76 620.234,1251.96 633.0,1253.0" style="stroke:#010101; fill:none;"/>
	<path d="M 1551.0,1217.0 L 1545.0,1228.0 L 1547.0,1224.0" style="stroke:#010101; fill:none;"/>
	<path d="M 1556.0,1226.0 L 1534.0,1257.0" style="stroke:#010101; fill:none;"/>
	<path d="M 302.0,1227.0 C 307.562,1230.66 312.761,1234.71 319.0,1237.24 C 323.322,1239.0 330.06,1239.47 333.57,1242.59 C 337.303,1245.9 339.282,1253.61 341.861,1258.0 C 346.624,1266.1 352.76,1272.92 358.92,1279.96 C 361.282,1282.66 366.761,1290.01 370.852,1289.37 C 374.873,1288.74 374.166,1280.89 374.579,1278.0 C 376.058,1267.68 376.404,1242.7 391.0,1247.0 C 390.397,1252.14 393.229,1257.56 397.0,1261.0 L 400.0,1249.0 L 421.0,1251.0 C 419.675,1257.38 423.885,1264.53 427.0,1270.0 C 429.543,1267.46 437.107,1257.23 434.864,1253.6 C 432.914,1250.45 424.234,1251.03 421.0,1251.0" style="stroke:#010101; fill:none;"/>
	<path d="M 1545.0,1228.0 L 1523.92,1266.0 L 1495.0,1316.0" style="stroke:#010101; fill:none;"/>
	<path d="M 295.0,1231.0 L 308.0,1238.0" style="stroke:#010101; fill:none;"/>
	<path d="M 1545.0,1231.0 L 1544.0,1234.0" style="stroke:#010101; fill:none;"/>
	<path d="M 260.0,1236.0 C 254.831,1253.49 259.0,1277.73 259.0,1296.0" style="stroke:#010101; fill:none;"/>
	<path d="M 1522.0,1278.0 L 1559.0,1236.0" style="stroke:#010101; fill:none;"/>
	<path d="M 1450.0,1239.0 C 1452.51,1251.21 1441.85,1255.39 1432.0,1261.0" style="stroke:#010101; fill:none;"/>
	<path d="M 335.0,1241.0 L 380.0,1246.0" style="stroke:#010101; fill:none;"/>
	<path d="M 334.0,1242.0 L 331.0,1246.0" style="stroke:#010101; fill:none;"/>
	<path d="M 391.0,1247.0 L 399.0,1248.0" style="stroke:#010101; fill:none;"/>
	<path d="M 1453.0,1250.0 L 1455.0,1249.0" style="stroke:#010101; fill:none;"/>
	<path d="M 1453.0,1250.0 L 1455.0,1258.0 L 1461.0,1255.0" style="stroke:#010101; fill:none;"/>
	<path d="M 1553.0,1251.0 C 1547.55,1265.16 1532.59,1279.38 1522.0,1290.0" style="stroke:#010101; fill:none;"/>
	<path d="M 437.0,1252.0 C 459.462,1252.96 478.302,1265.17 497.0,1276.14 C 510.137,1283.85 523.562,1290.09 536.0,1299.0 L 533.0,1315.0 L 543.0,1302.0 L 537.0,1299.0" style="stroke:#010101; fill:none;"/>
	<path d="M 1422.0,1286.0 L 1454.0,1259.0" style="stroke:#010101; fill:none;"/>
	<path d="M 1455.0,1260.0 L 1457.31,1275.79 L 1446.0,1285.42 L 1418.0,1308.0" style="stroke:#010101; fill:none;"/>
	<path d="M 398.0,1262.0 L 395.0,1287.0" style="stroke:#010101; fill:none;"/>
	<path d="M 470.0,1262.0 C 467.507,1267.2 471.292,1279.23 473.0,1285.0 L 480.0,1275.0" style="stroke:#010101; fill:none;"/>
	<path d="M 1459.0,1265.0 L 1458.0,1266.0" style="stroke:#010101; fill:none;"/>
	<path d="M 657.0,1267.0 L 755.0,1319.3 L 817.0,1354.0" style="stroke:#010101; fill:none;"/>
	<path d="M 1420.0,1295.0 L 1456.0,1267.0" style="stroke:#010101; fill:none;"/>
	<path d="M 427.0,1270.0 L 414.0,1317.0" style="stroke:#010101; fill:none;"/>
	<path d="M 1459.0,1279.0 C 1458.96,1282.93 1457.92,1288.72 1463.0,1289.0" style="stroke:#010101; fill:none;"/>
	<path d="M 329.0,1284.0 L 339.0,1319.0 C 329.806,1325.6 339.403,1333.59 345.049,1340.0 C 359.486,1356.38 372.557,1374.33 386.916,1390.96 C 427.433,1437.88 478.293,1454.38 536.0,1470.42 C 560.883,1477.34 587.146,1485.95 613.0,1488.0" style="stroke:#010101; fill:none;"/>
	<path d="M 472.0,1286.0 L 469.0,1295.0" style="stroke:#010101; fill:none;"/>
	<path d="M 1410.0,1326.0 L 1458.0,1286.0" style="stroke:#010101; fill:none;"/>
	<path d="M 374.0,1290.0 C 375.854,1304.28 383.916,1307.03 392.741,1316.13 C 398.286,1321.85 406.468,1330.46 415.0,1324.0" style="stroke:#010101; fill:none;"/>
	<path d="M 1460.0,1290.0 C 1459.04,1294.34 1457.52,1305.95 1461.0,1309.0" style="stroke:#010101; fill:none;"/>
	<path d="M 1407.0,1312.0 L 1407.0,1336.0 L 1458.0,1292.0" style="stroke:#010101; fill:none;"/>
	<path d="M 394.0,1300.0 L 393.0,1309.0" style="stroke:#010101; fill:none;"/>
	<path d="M 467.0,1300.0 L 462.0,1314.0" style="stroke:#010101; fill:none;"/>
	<path d="M 543.0,1303.0 L 568.0,1305.91 L 606.0,1309.0 C 603.311,1315.74 607.708,1327.23 610.0,1334.0 L 629.0,1314.0 L 606.0,1309.0" style="stroke:#010101; fill:none;"/>
	<path d="M 1452.0,1308.0 L 1404.0,1347.0" style="stroke:#010101; fill:none;"/>
	<path d="M 1458.0,1310.0 C 1449.77,1333.97 1435.67,1347.82 1412.0,1357.0" style="stroke:#010101; fill:none;"/>
	<path d="M 1396.0,1359.0 L 1433.0,1329.75 L 1456.0,1313.0" style="stroke:#010101; fill:none;"/>
	<path d="M 629.0,1314.0 L 655.0,1324.57 L 682.0,1334.0 C 674.178,1343.16 661.365,1347.89 659.0,1361.0" style="stroke:#010101; fill:none;"/>
	<path d="M 534.0,1315.0 C 528.495,1324.17 523.28,1334.52 520.888,1345.0 C 519.185,1352.46 519.718,1361.28 512.0,1365.0 L 511.0,1365.0" style="stroke:#010101; fill:none;"/>
	<path d="M 461.0,1319.0 C 460.027,1326.7 456.982,1338.85 460.989,1345.98 C 466.61,1355.98 493.22,1362.78 504.0,1363.0" style="stroke:#010101; fill:none;"/>
	<path d="M 338.0,1320.0 L 347.0,1341.0" style="stroke:#010101; fill:none;"/>
	<path d="M 654.0,1324.0 L 655.535,1338.0 L 656.0,1360.0" style="stroke:#010101; fill:none;"/>
	<path d="M 415.0,1327.0 C 427.766,1335.69 443.175,1347.2 458.0,1339.0" style="stroke:#010101; fill:none;"/>
	<path d="M 1447.0,1332.0 L 1448.0,1330.0" style="stroke:#010101; fill:none;"/>
	<path d="M 1403.0,1360.0 C 1416.16,1350.54 1430.38,1335.98 1446.0,1331.0" style="stroke:#010101; fill:none;"/>
	<path d="M 610.0,1334.0 L 604.0,1343.0" style="stroke:#010101; fill:none;"/>
	<path d="M 682.0,1334.0 L 713.0,1343.52 L 750.0,1351.21 L 793.0,1374.0 L 767.0,1397.0" style="stroke:#010101; fill:none;"/>
	<path d="M 1406.0,1336.0 C 1398.46,1346.38 1392.09,1356.23 1379.0,1360.0" style="stroke:#010101; fill:none;"/>
	<path d="M 450.0,1344.0 C 463.619,1354.47 477.918,1360.58 493.0,1368.31 C 534.18,1389.4 575.488,1402.65 621.0,1410.29 C 633.905,1412.45 647.234,1415.11 660.0,1417.67 C 665.159,1418.7 673.797,1422.14 678.911,1420.36 C 684.195,1418.52 687.598,1411.37 692.0,1408.0 C 700.803,1425.7 714.481,1434.51 730.0,1419.0" style="stroke:#010101; fill:none;"/>
	<path d="M 713.0,1344.0 L 711.0,1374.0 C 721.756,1366.43 732.322,1353.55 747.0,1357.0" style="stroke:#010101; fill:none;"/>
	<path d="M 1064.0,1348.0 L 988.169,1436.0 L 844.0,1589.0" style="stroke:#010101; fill:none;"/>
	<path d="M 749.0,1361.0 C 748.633,1378.67 737.38,1395.47 732.0,1412.0" style="stroke:#010101; fill:none;"/>
	<path d="M 517.0,1364.0 C 532.341,1375.16 547.545,1378.19 566.0,1380.17 C 573.133,1380.94 580.984,1383.91 587.816,1379.84 C 591.632,1377.56 593.752,1372.66 596.0,1369.0" style="stroke:#010101; fill:none;"/>
	<path d="M 655.0,1365.0 L 654.0,1368.0" style="stroke:#010101; fill:none;"/>
	<path d="M 745.0,1383.0 L 771.0,1369.0" style="stroke:#010101; fill:none;"/>
	<path d="M 778.0,1369.0 L 774.0,1387.0" style="stroke:#010101; fill:none;"/>
	<path d="M 653.0,1370.0 C 650.079,1380.68 644.764,1389.31 634.911,1394.84 C 621.969,1402.09 597.366,1395.7 593.0,1381.0" style="stroke:#010101; fill:none;"/>
	<path d="M 711.0,1374.0 L 708.0,1378.0" style="stroke:#010101; fill:none;"/>
	<path d="M 793.0,1374.0 C 795.488,1374.25 797.648,1374.73 800.002,1375.62 C 820.745,1383.39 789.625,1402.77 796.0,1416.0 L 819.0,1409.96 L 840.0,1399.3 L 858.0,1400.0" style="stroke:#010101; fill:none;"/>
	<path d="M 705.0,1379.0 L 695.0,1400.0" style="stroke:#010101; fill:none;"/>
	<path d="M 809.0,1380.0 C 817.246,1381.91 817.28,1386.61 823.045,1391.67 C 827.07,1395.21 832.232,1396.77 837.0,1399.0" style="stroke:#010101; fill:none;"/>
	<path d="M 802.0,1383.0 L 803.0,1392.0" style="stroke:#010101; fill:none;"/>
	<path d="M 819.0,1384.0 L 844.0,1393.0" style="stroke:#010101; fill:none;"/>
	<path d="M 1269.0,1384.0 L 1265.0,1409.0" style="stroke:#010101; fill:none;"/>
	<path d="M 644.0,1390.0 L 652.0,1408.0" style="stroke:#010101; fill:none;"/>
	<path d="M 767.0,1425.0 C 755.256,1427.41 757.986,1422.16 763.0,1414.0 L 764.0,1414.0 L 768.0,1424.0 C 776.988,1422.79 787.464,1420.13 795.0,1415.0" style="stroke:#010101; fill:none;"/>
	<path d="M 733.0,1415.0 C 733.308,1420.63 735.626,1423.59 740.0,1427.0 L 723.0,1427.0" style="stroke:#010101; fill:none;"/>
	<path d="M 681.0,1422.0 L 702.0,1426.0" style="stroke:#010101; fill:none;"/>
	<path d="M 1250.0,1426.0 C 1221.41,1487.22 1179.44,1543.81 1136.0,1595.0" style="stroke:#010101; fill:none;"/>
	<path d="M 740.0,1428.0 L 756.0,1427.0" style="stroke:#010101; fill:none;"/>
	<path d="M 1268.0,1443.0 C 1269.84,1457.46 1272.4,1465.37 1283.0,1476.0" style="stroke:#010101; fill:none;"/>
	<path d="M 743.0,1451.0 C 733.686,1456.3 722.932,1459.33 713.0,1463.31 C 684.21,1474.83 653.116,1485.54 622.0,1488.0" style="stroke:#010101; fill:none;"/>
	<path d="M 312.0,1467.0 C 300.812,1488.95 298.168,1514.84 295.83,1539.0 C 292.985,1568.4 291.744,1598.41 293.039,1628.0 C 293.726,1643.67 296.676,1659.32 297.0,1675.0" style="stroke:#010101; fill:none;"/>
	<path d="M 1245.0,1518.0 C 1211.11,1560.04 1182.52,1605.8 1147.42,1647.0 C 1132.74,1664.24 1115.63,1687.72 1095.0,1698.0" style="stroke:#010101; fill:none;"/>
	<path d="M 972.0,1539.0 C 943.964,1575.35 915.933,1611.71 886.565,1647.0 C 871.258,1665.39 850.84,1683.22 839.0,1704.0" style="stroke:#010101; fill:none;"/>
	<path d="M 808.0,1556.0 C 771.404,1592.6 739.308,1637.53 698.0,1669.0" style="stroke:#010101; fill:none;"/>
	<path d="M 1223.0,1590.0 C 1191.16,1615.93 1165.93,1650.02 1137.0,1679.0 C 1131.27,1684.73 1108.52,1702.07 1113.0,1710.0 L 1061.0,1729.05 L 931.0,1775.77 L 907.0,1781.62 L 864.0,1802.13 L 728.0,1854.92 L 601.0,1892.08 L 505.0,1930.0 L 506.0,1924.0 L 510.0,1928.0" style="stroke:#010101; fill:none;"/>
	<path d="M 823.0,1608.0 L 739.83,1699.0 L 696.0,1744.0" style="stroke:#010101; fill:none;"/>
	<path d="M 1089.0,1619.0 C 1061.85,1646.15 1033.36,1671.78 1003.0,1695.33 C 989.463,1705.84 974.411,1714.39 961.0,1725.0" style="stroke:#010101; fill:none;"/>
	<path d="M 1113.0,1710.0 L 1198.0,1681.0" style="stroke:#010101; fill:none;"/>
	<path d="M 1110.0,1707.0 L 1108.0,1711.0" style="stroke:#010101; fill:none;"/>
	<path d="M 922.0,1713.0 C 906.567,1723.64 888.305,1731.1 872.0,1740.43 C 841.861,1757.67 812.634,1776.17 781.0,1790.69 C 734.96,1811.83 686.013,1825.62 637.0,1837.87 C 598.63,1847.47 554.585,1863.15 515.0,1852.0" style="stroke:#010101; fill:none;"/>
	<path d="M 310.0,1720.0 L 315.0,1737.0" style="stroke:#010101; fill:none;"/>
	<path d="M 321.0,1765.0 C 321.0,1808.89 307.956,1849.85 302.282,1893.0 C 300.571,1906.01 307.437,1929.02 299.0,1939.0" style="stroke:#010101; fill:none;"/>
	<path d="M 433.0,1823.0 C 457.233,1829.88 482.105,1828.79 507.0,1827.09 C 559.422,1823.5 609.453,1813.34 660.0,1799.0" style="stroke:#010101; fill:none;"/>
	<path d="M 358.0,1802.0 C 383.539,1830.63 427.203,1857.18 465.0,1865.0" style="stroke:#010101; fill:none;"/>
	<path d="M 506.0,1923.0 C 531.589,1897.62 564.463,1873.3 598.0,1859.6 C 610.099,1854.66 622.669,1849.0 636.0,1850.0" style="stroke:#010101; fill:none;"/>
	<path d="M 387.0,1857.0 C 403.373,1863.92 427.371,1863.99 445.0,1864.0" style="stroke:#010101; fill:none;"/>
	<path d="M 454.0,1873.0 C 443.458,1873.07 421.145,1879.63 413.0,1872.0 L 418.0,1870.0" style="stroke:#010101; fill:none;"/>
	<path d="M 528.0,1920.0 L 524.0,1916.0 C 544.591,1900.17 569.234,1881.43 594.0,1873.0" style="stroke:#010101; fill:none;"/>
	<path d="M 444.0,1902.0 L 511.0,1875.0" style="stroke:#010101; fill:none;"/>
	<path d="M 435.0,1883.0 L 431.0,1886.0 C 441.631,1889.08 456.545,1883.71 467.0,1881.0" style="stroke:#010101; fill:none;"/>
	<path d="M 526.0,1921.0 L 524.0,1916.0" style="stroke:#010101; fill:none;"/>
	<path d="M 337.0,2054.0 C 367.307,2039.67 389.499,2011.21 414.0,1989.17 C 440.584,1965.26 472.05,1946.59 504.0,1931.0" style="stroke:#010101; fill:none;"/>
	<path d="M 304.0,1937.0 C 305.309,1953.56 311.339,1969.8 314.789,1986.0 C 319.568,2008.44 320.978,2029.22 320.0,2052.0" style="stroke:#010101; fill:none;"/>
</svg>
