<?xml version="1.0" ?>
<svg baseProfile="full" height="2211" version="1.1" width="1685" xmlns="http://www.w3.org/2000/svg" xmlns:ev="http://www.w3.org/2001/xml-events" xmlns:xlink="http://www.w3.org/1999/xlink">
	<defs/>
	<path d="M 581.0,503.0 L 585.0,502.0 L 575.0,508.0 L 595.0,521.0 L 594.0,527.0 L 596.0,521.0" style="stroke:#010101; fill:none;"/>
	<path d="M 543.0,514.0 L 549.0,516.0 C 543.992,518.542 541.317,515.792 537.0,513.0 L 562.0,507.0 L 546.0,504.0 C 554.527,501.071 569.938,500.051 577.0,506.0" style="stroke:#010101; fill:none;"/>
	<path d="M 578.0,527.0 C 575.783,526.455 573.623,528.735 571.0,527.829 C 557.35,523.115 560.077,514.04 572.0,511.0 L 568.0,507.0 L 579.0,502.0" style="stroke:#010101; fill:none;"/>
	<path d="M 585.0,502.0 L 624.0,512.0" style="stroke:#010101; fill:none;"/>
	<path d="M 563.0,503.0 L 561.0,505.0" style="stroke:#010101; fill:none;"/>
	<path d="M 531.0,506.0 L 536.0,506.0 L 527.0,505.0 L 526.0,509.0 L 531.0,506.0" style="stroke:#010101; fill:none;"/>
	<path d="M 536.0,506.0 L 545.0,504.0" style="stroke:#010101; fill:none;"/>
	<path d="M 567.0,504.0 L 567.0,506.0" style="stroke:#010101; fill:none;"/>
	<path d="M 544.0,505.0 L 547.0,505.0" style="stroke:#010101; fill:none;"/>
	<path d="M 585.0,505.0 L 606.0,512.0" style="stroke:#010101; fill:none;"/>
	<path d="M 505.0,510.0 L 526.0,506.0" style="stroke:#010101; fill:none;"/>
	<path d="M 541.0,506.0 L 543.0,508.0" style="stroke:#010101; fill:none;"/>
	<path d="M 567.0,506.0 L 562.0,507.0" style="stroke:#010101; fill:none;"/>
	<path d="M 573.0,507.0 L 572.0,509.0" style="stroke:#010101; fill:none;"/>
	<path d="M 574.0,508.0 L 575.0,508.0" style="stroke:#010101; fill:none;"/>
	<path d="M 565.0,509.0 L 570.0,522.0 L 569.0,522.0 L 567.0,524.0 L 567.0,524.0" style="stroke:#010101; fill:none;"/>
	<path d="M 537.0,514.0 C 531.898,516.36 524.262,514.484 520.0,511.0 L 525.0,510.0" style="stroke:#010101; fill:none;"/>
	<path d="M 576.0,510.0 L 573.0,511.0" style="stroke:#010101; fill:none;"/>
	<path d="M 522.0,514.0 C 518.932,514.921 517.204,513.25 520.0,511.0" style="stroke:#010101; fill:none;"/>
	<path d="M 555.0,511.0 L 563.0,515.0" style="stroke:#010101; fill:none;"/>
	<path d="M 594.0,511.0 L 612.0,521.0 L 606.0,523.0 L 613.0,530.0" style="stroke:#010101; fill:none;"/>
	<path d="M 520.0,516.0 C 513.717,519.151 508.86,523.151 505.0,515.0 L 517.0,512.0" style="stroke:#010101; fill:none;"/>
	<path d="M 531.0,513.0 L 536.0,512.0" style="stroke:#010101; fill:none;"/>
	<path d="M 579.0,512.0 C 579.928,515.124 580.877,516.628 584.0,515.0" style="stroke:#010101; fill:none;"/>
	<path d="M 584.0,512.0 L 596.0,514.0" style="stroke:#010101; fill:none;"/>
	<path d="M 555.0,513.0 C 554.74,516.349 555.802,517.059 559.0,518.0" style="stroke:#010101; fill:none;"/>
	<path d="M 583.0,513.0 L 580.0,516.0" style="stroke:#010101; fill:none;"/>
	<path d="M 512.0,514.0 L 515.0,517.0" style="stroke:#010101; fill:none;"/>
	<path d="M 549.0,515.0 L 552.0,514.0" style="stroke:#010101; fill:none;"/>
	<path d="M 508.0,521.0 L 504.0,523.0 C 503.57,519.653 501.888,517.115 505.0,515.0" style="stroke:#010101; fill:none;"/>
	<path d="M 525.0,515.0 L 520.0,519.0 L 524.0,518.0" style="stroke:#010101; fill:none;"/>
	<path d="M 526.0,515.0 L 531.0,515.0" style="stroke:#010101; fill:none;"/>
	<path d="M 556.0,515.0 L 555.0,516.0" style="stroke:#010101; fill:none;"/>
	<path d="M 579.0,515.0 L 569.0,516.0" style="stroke:#010101; fill:none;"/>
	<path d="M 620.0,515.0 L 661.0,539.745 L 682.0,553.0 L 681.0,551.0" style="stroke:#010101; fill:none;"/>
	<path d="M 503.0,524.0 C 499.63,521.988 499.078,519.735 500.0,516.0 L 502.0,516.0" style="stroke:#010101; fill:none;"/>
	<path d="M 509.0,516.0 L 509.0,519.0" style="stroke:#010101; fill:none;"/>
	<path d="M 549.0,516.0 L 553.0,516.0" style="stroke:#010101; fill:none;"/>
	<path d="M 564.0,516.0 L 565.0,516.0" style="stroke:#010101; fill:none;"/>
	<path d="M 542.0,517.0 L 532.0,520.0 C 538.026,526.219 553.919,525.882 560.0,520.0" style="stroke:#010101; fill:none;"/>
	<path d="M 500.0,523.0 L 496.0,525.0 L 498.0,518.0" style="stroke:#010101; fill:none;"/>
	<path d="M 519.0,518.0 C 518.883,523.513 527.323,526.587 531.0,530.0 C 528.391,533.043 527.349,534.291 529.0,538.0 L 526.0,541.0 C 517.459,537.288 512.08,534.144 504.0,541.0 C 489.352,530.463 467.784,549.337 454.0,554.0" style="stroke:#010101; fill:none;"/>
	<path d="M 584.0,518.0 L 585.0,518.0" style="stroke:#010101; fill:none;"/>
	<path d="M 491.0,520.0 L 487.0,527.0 L 495.0,519.0" style="stroke:#010101; fill:none;"/>
	<path d="M 548.0,519.0 L 549.0,521.0" style="stroke:#010101; fill:none;"/>
	<path d="M 606.0,519.0 L 606.0,521.0" style="stroke:#010101; fill:none;"/>
	<path d="M 518.0,520.0 L 512.0,522.0 L 512.0,522.0" style="stroke:#010101; fill:none;"/>
	<path d="M 524.0,520.0 L 532.0,520.0" style="stroke:#010101; fill:none;"/>
	<path d="M 589.0,520.0 L 587.0,523.0 L 592.0,525.0" style="stroke:#010101; fill:none;"/>
	<path d="M 490.0,521.0 L 492.0,523.0" style="stroke:#010101; fill:none;"/>
	<path d="M 497.0,521.0 L 499.0,521.0" style="stroke:#010101; fill:none;"/>
	<path d="M 572.0,521.0 L 586.0,524.0" style="stroke:#010101; fill:none;"/>
	<path d="M 590.0,521.0 L 590.0,523.0" style="stroke:#010101; fill:none;"/>
	<path d="M 598.0,521.0 L 609.096,533.305 L 617.004,544.085 L 624.0,545.0" style="stroke:#010101; fill:none;"/>
	<path d="M 612.0,521.0 L 628.0,529.0 L 610.0,524.0" style="stroke:#010101; fill:none;"/>
	<path d="M 494.0,522.0 L 496.0,522.0" style="stroke:#010101; fill:none;"/>
	<path d="M 533.0,522.0 L 531.0,528.0" style="stroke:#010101; fill:none;"/>
	<path d="M 600.0,522.0 L 606.0,523.0" style="stroke:#010101; fill:none;"/>
	<path d="M 488.0,523.0 L 490.0,525.0" style="stroke:#010101; fill:none;"/>
	<path d="M 485.0,532.0 L 515.0,524.0" style="stroke:#010101; fill:none;"/>
	<path d="M 527.0,526.0 L 531.0,524.0" style="stroke:#010101; fill:none;"/>
	<path d="M 544.0,524.0 L 547.0,525.0" style="stroke:#010101; fill:none;"/>
	<path d="M 557.0,524.0 L 563.0,528.0 L 550.0,530.0 L 554.0,536.0 L 558.0,532.0" style="stroke:#010101; fill:none;"/>
	<path d="M 516.0,525.0 L 521.0,525.0" style="stroke:#010101; fill:none;"/>
	<path d="M 542.0,525.0 L 550.0,530.0" style="stroke:#010101; fill:none;"/>
	<path d="M 567.0,525.0 L 564.0,528.0 L 570.0,528.0" style="stroke:#010101; fill:none;"/>
	<path d="M 578.0,525.0 L 576.0,530.0" style="stroke:#010101; fill:none;"/>
	<path d="M 493.0,526.0 L 495.0,526.0" style="stroke:#010101; fill:none;"/>
	<path d="M 580.0,526.0 C 582.384,528.57 582.529,529.532 580.0,532.0 L 578.0,530.0" style="stroke:#010101; fill:none;"/>
	<path d="M 539.0,527.0 L 535.0,530.0 L 553.0,535.0" style="stroke:#010101; fill:none;"/>
	<path d="M 595.0,527.0 C 589.999,533.805 610.913,550.124 616.0,554.0 C 610.263,556.969 607.842,552.142 603.714,548.529 C 596.723,542.406 588.186,539.249 582.0,532.0" style="stroke:#010101; fill:none;"/>
	<path d="M 635.0,527.0 L 660.0,544.0 L 657.0,549.0 C 660.856,550.967 663.055,552.086 667.0,550.0 L 659.0,547.0" style="stroke:#010101; fill:none;"/>
	<path d="M 475.0,532.0 L 486.0,528.0" style="stroke:#010101; fill:none;"/>
	<path d="M 589.0,529.0 L 586.0,530.0 L 591.0,529.0" style="stroke:#010101; fill:none;"/>
	<path d="M 596.0,528.0 L 599.0,528.0" style="stroke:#010101; fill:none;"/>
	<path d="M 614.0,528.0 C 624.815,536.948 640.933,545.85 654.0,551.0 L 655.0,541.0" style="stroke:#010101; fill:none;"/>
	<path d="M 571.0,529.0 L 587.0,546.0 L 556.0,535.0" style="stroke:#010101; fill:none;"/>
	<path d="M 584.0,529.0 L 586.0,529.0" style="stroke:#010101; fill:none;"/>
	<path d="M 629.0,529.0 L 627.0,531.0" style="stroke:#010101; fill:none;"/>
	<path d="M 531.0,530.0 L 535.0,530.0" style="stroke:#010101; fill:none;"/>
	<path d="M 631.0,530.0 L 636.0,533.0 L 629.0,532.0" style="stroke:#010101; fill:none;"/>
	<path d="M 603.0,531.0 L 607.0,532.0" style="stroke:#010101; fill:none;"/>
	<path d="M 550.0,532.0 L 548.0,534.0" style="stroke:#010101; fill:none;"/>
	<path d="M 584.0,532.0 L 585.0,532.0" style="stroke:#010101; fill:none;"/>
	<path d="M 589.0,532.0 L 595.0,535.0" style="stroke:#010101; fill:none;"/>
	<path d="M 636.0,533.0 L 653.0,542.0" style="stroke:#010101; fill:none;"/>
	<path d="M 559.0,534.0 L 559.0,535.0" style="stroke:#010101; fill:none;"/>
	<path d="M 606.0,534.0 L 609.0,537.0" style="stroke:#010101; fill:none;"/>
	<path d="M 622.0,534.0 L 624.0,542.0" style="stroke:#010101; fill:none;"/>
	<path d="M 477.0,537.0 C 482.412,535.95 486.234,534.67 491.0,538.0" style="stroke:#010101; fill:none;"/>
	<path d="M 519.0,537.0 L 526.0,535.0" style="stroke:#010101; fill:none;"/>
	<path d="M 612.0,536.0 C 616.482,536.124 616.51,537.527 614.0,541.0 L 614.0,541.0" style="stroke:#010101; fill:none;"/>
	<path d="M 500.0,538.0 L 507.0,536.0" style="stroke:#010101; fill:none;"/>
	<path d="M 636.0,536.0 L 655.0,546.0" style="stroke:#010101; fill:none;"/>
	<path d="M 528.0,537.0 L 530.0,543.0 L 530.0,538.0" style="stroke:#010101; fill:none;"/>
	<path d="M 551.0,537.0 L 549.0,541.0 L 553.0,537.0" style="stroke:#010101; fill:none;"/>
	<path d="M 600.0,537.0 L 608.0,537.0" style="stroke:#010101; fill:none;"/>
	<path d="M 614.0,537.0 L 617.0,539.0" style="stroke:#010101; fill:none;"/>
	<path d="M 619.0,537.0 L 621.0,538.0" style="stroke:#010101; fill:none;"/>
	<path d="M 532.0,538.0 L 548.0,540.0" style="stroke:#010101; fill:none;"/>
	<path d="M 553.0,538.0 C 557.563,543.011 575.503,551.496 582.0,551.0 L 579.0,550.0" style="stroke:#010101; fill:none;"/>
	<path d="M 577.0,538.0 L 575.0,540.0" style="stroke:#010101; fill:none;"/>
	<path d="M 617.0,539.0 L 623.0,544.0" style="stroke:#010101; fill:none;"/>
	<path d="M 552.0,542.0 L 554.0,542.0" style="stroke:#010101; fill:none;"/>
	<path d="M 624.0,543.0 L 625.0,552.0 C 633.989,543.118 647.534,548.554 653.0,560.0 L 625.0,544.0" style="stroke:#010101; fill:none;"/>
	<path d="M 661.0,544.0 L 660.0,547.0" style="stroke:#010101; fill:none;"/>
	<path d="M 560.0,545.0 L 564.0,548.0" style="stroke:#010101; fill:none;"/>
	<path d="M 663.0,545.0 L 665.0,547.0" style="stroke:#010101; fill:none;"/>
	<path d="M 473.0,548.0 L 516.0,547.0" style="stroke:#010101; fill:none;"/>
	<path d="M 587.0,546.0 L 587.0,552.0 L 595.0,556.0 L 581.0,553.0" style="stroke:#010101; fill:none;"/>
	<path d="M 636.0,546.0 L 634.0,548.0" style="stroke:#010101; fill:none;"/>
	<path d="M 638.0,547.0 L 635.0,550.0" style="stroke:#010101; fill:none;"/>
	<path d="M 609.0,548.0 L 605.0,551.0" style="stroke:#010101; fill:none;"/>
	<path d="M 625.0,548.0 L 628.0,550.0" style="stroke:#010101; fill:none;"/>
	<path d="M 591.0,549.0 L 591.0,551.0" style="stroke:#010101; fill:none;"/>
	<path d="M 596.0,553.0 L 594.0,549.0 C 598.41,551.287 600.064,553.817 605.0,551.0" style="stroke:#010101; fill:none;"/>
	<path d="M 657.0,550.0 L 655.0,552.0" style="stroke:#010101; fill:none;"/>
	<path d="M 668.0,550.0 L 665.0,553.0" style="stroke:#010101; fill:none;"/>
	<path d="M 497.0,556.0 L 479.0,553.0 L 504.0,551.957 L 556.0,553.0" style="stroke:#010101; fill:none;"/>
	<path d="M 583.0,551.0 L 584.0,552.0" style="stroke:#010101; fill:none;"/>
	<path d="M 608.0,552.0 L 610.0,551.0" style="stroke:#010101; fill:none;"/>
	<path d="M 629.0,552.0 L 625.0,553.0" style="stroke:#010101; fill:none;"/>
	<path d="M 642.0,551.0 L 640.0,553.0" style="stroke:#010101; fill:none;"/>
	<path d="M 607.0,552.0 L 603.0,554.0" style="stroke:#010101; fill:none;"/>
	<path d="M 669.0,552.0 L 679.0,560.0 C 677.027,564.343 685.275,570.379 688.0,575.0 L 695.0,569.0 C 691.469,566.123 689.897,565.485 686.0,568.0" style="stroke:#010101; fill:none;"/>
	<path d="M 684.0,552.0 L 715.0,573.0 L 698.0,567.0 C 696.277,570.81 696.863,572.508 699.0,576.0 L 698.0,577.0 L 693.0,573.0 L 688.0,587.0" style="stroke:#010101; fill:none;"/>
	<path d="M 464.0,555.0 L 479.0,553.0" style="stroke:#010101; fill:none;"/>
	<path d="M 596.0,553.0 L 594.0,555.0" style="stroke:#010101; fill:none;"/>
	<path d="M 630.0,553.0 C 633.318,557.521 628.546,569.993 640.0,567.0 L 636.0,568.0" style="stroke:#010101; fill:none;"/>
	<path d="M 643.0,553.0 L 642.0,554.0" style="stroke:#010101; fill:none;"/>
	<path d="M 655.0,553.0 L 687.0,576.0" style="stroke:#010101; fill:none;"/>
	<path d="M 589.0,554.0 L 587.0,556.0" style="stroke:#010101; fill:none;"/>
	<path d="M 592.0,554.0 L 589.0,557.0" style="stroke:#010101; fill:none;"/>
	<path d="M 608.0,554.0 L 604.0,556.0" style="stroke:#010101; fill:none;"/>
	<path d="M 617.0,554.0 C 614.964,558.877 611.638,559.402 607.0,561.0 C 612.291,563.951 624.493,564.81 618.0,556.0" style="stroke:#010101; fill:none;"/>
	<path d="M 681.0,554.0 L 689.0,565.0" style="stroke:#010101; fill:none;"/>
	<path d="M 482.0,555.0 C 471.043,561.318 450.656,562.993 438.0,564.0" style="stroke:#010101; fill:none;"/>
	<path d="M 628.0,555.0 L 630.0,558.0" style="stroke:#010101; fill:none;"/>
	<path d="M 668.0,555.0 L 670.0,554.0" style="stroke:#010101; fill:none;"/>
	<path d="M 593.0,556.0 L 607.0,562.0 L 604.0,562.0" style="stroke:#010101; fill:none;"/>
	<path d="M 633.0,556.0 L 638.0,558.0 L 632.0,557.0" style="stroke:#010101; fill:none;"/>
	<path d="M 681.0,556.0 L 678.0,559.0" style="stroke:#010101; fill:none;"/>
	<path d="M 594.0,557.0 L 592.0,558.0" style="stroke:#010101; fill:none;"/>
	<path d="M 606.0,557.0 L 608.0,559.0" style="stroke:#010101; fill:none;"/>
	<path d="M 599.0,558.0 L 602.0,560.0" style="stroke:#010101; fill:none;"/>
	<path d="M 639.0,558.0 L 674.0,583.0 C 665.698,587.066 661.196,574.195 653.0,579.0 C 680.511,600.204 709.536,617.832 730.0,646.0" style="stroke:#010101; fill:none;"/>
	<path d="M 617.0,559.0 L 619.0,559.0" style="stroke:#010101; fill:none;"/>
	<path d="M 640.0,559.0 L 637.0,560.0" style="stroke:#010101; fill:none;"/>
	<path d="M 595.0,560.0 L 596.0,560.0" style="stroke:#010101; fill:none;"/>
	<path d="M 623.0,560.0 L 628.0,561.0" style="stroke:#010101; fill:none;"/>
	<path d="M 654.0,561.0 C 656.982,560.346 656.845,561.226 656.0,564.0 L 657.0,565.0 L 659.0,561.0" style="stroke:#010101; fill:none;"/>
	<path d="M 680.0,560.0 L 678.0,564.0" style="stroke:#010101; fill:none;"/>
	<path d="M 681.0,561.0 L 684.0,562.0" style="stroke:#010101; fill:none;"/>
	<path d="M 590.0,562.0 C 611.962,570.102 632.373,587.205 651.0,601.0" style="stroke:#010101; fill:none;"/>
	<path d="M 640.0,562.0 L 641.0,562.0" style="stroke:#010101; fill:none;"/>
	<path d="M 654.0,562.0 L 656.0,564.0" style="stroke:#010101; fill:none;"/>
	<path d="M 661.0,562.0 L 663.0,564.0 L 660.0,567.0 L 658.0,565.0" style="stroke:#010101; fill:none;"/>
	<path d="M 672.0,562.0 L 675.0,563.0" style="stroke:#010101; fill:none;"/>
	<path d="M 680.0,562.0 L 684.0,562.0" style="stroke:#010101; fill:none;"/>
	<path d="M 323.0,669.0 L 365.0,611.0 L 368.395,632.0 L 359.036,646.0 L 337.684,678.0 L 269.228,780.0 L 237.0,839.0 C 231.155,832.065 234.943,825.742 237.424,818.0 C 242.582,801.905 251.044,787.096 256.255,771.0 C 262.76,750.907 263.459,728.384 272.039,709.0 C 277.889,695.785 288.632,685.013 296.456,673.0 C 310.469,651.482 322.568,628.312 335.281,606.0 C 345.232,588.535 367.364,543.771 386.714,576.0 C 389.229,580.19 390.441,585.384 392.0,590.0" style="stroke:#010101; fill:none;"/>
	<path d="M 609.0,563.0 L 606.0,564.0" style="stroke:#010101; fill:none;"/>
	<path d="M 629.0,563.0 L 627.0,569.0 L 631.0,564.0" style="stroke:#010101; fill:none;"/>
	<path d="M 478.0,568.0 L 473.0,566.0 L 485.0,565.0" style="stroke:#010101; fill:none;"/>
	<path d="M 613.0,564.0 L 624.0,576.0 L 624.0,572.0" style="stroke:#010101; fill:none;"/>
	<path d="M 622.0,564.0 L 624.0,567.0" style="stroke:#010101; fill:none;"/>
	<path d="M 664.0,564.0 L 670.0,569.0 C 665.98,571.086 664.335,569.861 661.0,567.0" style="stroke:#010101; fill:none;"/>
	<path d="M 635.0,565.0 L 637.0,565.0" style="stroke:#010101; fill:none;"/>
	<path d="M 693.0,566.0 C 695.443,565.593 695.117,565.696 694.0,568.0" style="stroke:#010101; fill:none;"/>
	<path d="M 454.0,567.0 L 473.0,566.0" style="stroke:#010101; fill:none;"/>
	<path d="M 609.0,566.0 C 612.287,568.782 614.651,570.933 619.0,570.0" style="stroke:#010101; fill:none;"/>
	<path d="M 697.0,566.0 L 698.0,567.0" style="stroke:#010101; fill:none;"/>
	<path d="M 641.0,567.0 L 641.0,572.0 L 644.0,569.0" style="stroke:#010101; fill:none;"/>
	<path d="M 446.0,568.0 L 450.0,569.0 L 446.0,568.0" style="stroke:#010101; fill:none;"/>
	<path d="M 451.0,569.0 L 453.0,568.0" style="stroke:#010101; fill:none;"/>
	<path d="M 443.0,569.0 L 445.0,569.0" style="stroke:#010101; fill:none;"/>
	<path d="M 628.0,569.0 C 631.753,574.454 642.668,590.071 649.0,587.0 L 643.0,584.0" style="stroke:#010101; fill:none;"/>
	<path d="M 638.0,569.0 L 641.0,572.0" style="stroke:#010101; fill:none;"/>
	<path d="M 671.0,569.0 C 675.35,572.968 680.998,578.773 687.0,576.0" style="stroke:#010101; fill:none;"/>
	<path d="M 646.0,570.0 L 648.0,572.0 L 645.0,575.0 L 643.0,573.0" style="stroke:#010101; fill:none;"/>
	<path d="M 688.0,570.0 L 690.0,571.0" style="stroke:#010101; fill:none;"/>
	<path d="M 694.0,570.0 L 696.0,572.0" style="stroke:#010101; fill:none;"/>
	<path d="M 698.0,570.0 C 714.299,580.021 733.84,592.157 745.0,608.0" style="stroke:#010101; fill:none;"/>
	<path d="M 435.0,573.0 L 445.0,571.0" style="stroke:#010101; fill:none;"/>
	<path d="M 695.0,571.0 L 692.0,572.0" style="stroke:#010101; fill:none;"/>
	<path d="M 648.0,572.0 L 655.0,575.0" style="stroke:#010101; fill:none;"/>
	<path d="M 668.0,572.0 L 679.0,581.0 L 676.0,590.0 L 672.0,586.0" style="stroke:#010101; fill:none;"/>
	<path d="M 713.0,572.0 L 711.0,574.0" style="stroke:#010101; fill:none;"/>
	<path d="M 619.0,573.0 L 622.0,573.0" style="stroke:#010101; fill:none;"/>
	<path d="M 682.0,573.0 L 683.0,574.0" style="stroke:#010101; fill:none;"/>
	<path d="M 716.0,573.0 L 735.0,590.0" style="stroke:#010101; fill:none;"/>
	<path d="M 626.0,574.0 L 629.0,574.0" style="stroke:#010101; fill:none;"/>
	<path d="M 717.0,574.0 L 717.0,577.0 L 715.0,575.0" style="stroke:#010101; fill:none;"/>
	<path d="M 427.0,581.0 L 455.0,575.0" style="stroke:#010101; fill:none;"/>
	<path d="M 646.0,575.0 L 653.0,579.0" style="stroke:#010101; fill:none;"/>
	<path d="M 625.0,576.0 L 632.0,576.0" style="stroke:#010101; fill:none;"/>
	<path d="M 634.0,577.0 L 630.0,579.0" style="stroke:#010101; fill:none;"/>
	<path d="M 692.0,577.0 C 700.975,581.2 715.022,585.707 720.0,595.0 L 715.0,590.0" style="stroke:#010101; fill:none;"/>
	<path d="M 688.0,578.0 L 689.0,579.0" style="stroke:#010101; fill:none;"/>
	<path d="M 718.0,578.0 L 719.0,578.0" style="stroke:#010101; fill:none;"/>
	<path d="M 637.0,579.0 L 636.0,583.0 L 638.0,581.0" style="stroke:#010101; fill:none;"/>
	<path d="M 686.0,580.0 L 689.0,582.0" style="stroke:#010101; fill:none;"/>
	<path d="M 633.0,581.0 L 635.0,581.0" style="stroke:#010101; fill:none;"/>
	<path d="M 680.0,581.0 L 683.0,585.0 L 687.0,581.0" style="stroke:#010101; fill:none;"/>
	<path d="M 365.0,611.0 C 374.957,599.349 368.238,593.602 364.0,582.0 L 367.0,582.0" style="stroke:#010101; fill:none;"/>
	<path d="M 436.0,582.0 L 427.0,587.0" style="stroke:#010101; fill:none;"/>
	<path d="M 637.0,583.0 L 640.0,586.0" style="stroke:#010101; fill:none;"/>
	<path d="M 675.0,583.0 L 676.0,584.0" style="stroke:#010101; fill:none;"/>
	<path d="M 689.0,587.0 L 695.0,590.0 L 693.0,584.0 L 689.0,587.0" style="stroke:#010101; fill:none;"/>
	<path d="M 683.0,585.0 C 682.153,588.888 681.141,590.87 677.0,590.0" style="stroke:#010101; fill:none;"/>
	<path d="M 685.0,585.0 L 686.0,585.0" style="stroke:#010101; fill:none;"/>
	<path d="M 650.0,587.0 L 711.0,637.0" style="stroke:#010101; fill:none;"/>
	<path d="M 680.0,587.0 L 678.0,591.0" style="stroke:#010101; fill:none;"/>
	<path d="M 696.0,587.0 L 696.0,591.0 C 704.717,600.385 716.346,613.573 728.0,619.0 L 724.0,616.0" style="stroke:#010101; fill:none;"/>
	<path d="M 651.0,588.0 L 647.0,590.0" style="stroke:#010101; fill:none;"/>
	<path d="M 711.0,588.0 L 714.0,591.0" style="stroke:#010101; fill:none;"/>
	<path d="M 683.0,589.0 C 687.387,592.578 686.291,600.431 693.0,596.0 L 689.0,593.0" style="stroke:#010101; fill:none;"/>
	<path d="M 685.0,590.0 L 681.0,592.0" style="stroke:#010101; fill:none;"/>
	<path d="M 726.0,615.0 C 722.715,607.956 706.105,589.31 698.0,592.0" style="stroke:#010101; fill:none;"/>
	<path d="M 649.0,591.0 L 688.0,622.0" style="stroke:#010101; fill:none;"/>
	<path d="M 682.0,594.0 L 686.0,595.0" style="stroke:#010101; fill:none;"/>
	<path d="M 687.0,594.0 L 689.0,596.0" style="stroke:#010101; fill:none;"/>
	<path d="M 720.0,595.0 L 733.637,607.0 L 743.0,628.0" style="stroke:#010101; fill:none;"/>
	<path d="M 393.0,596.0 L 370.0,630.0" style="stroke:#010101; fill:none;"/>
	<path d="M 693.0,596.0 L 725.0,625.0" style="stroke:#010101; fill:none;"/>
	<path d="M 457.0,619.0 C 474.333,615.734 486.506,605.27 503.0,600.205 C 525.572,593.275 545.537,600.007 566.0,610.0" style="stroke:#010101; fill:none;"/>
	<path d="M 689.0,597.0 L 690.0,598.0" style="stroke:#010101; fill:none;"/>
	<path d="M 690.0,599.0 L 695.0,599.0" style="stroke:#010101; fill:none;"/>
	<path d="M 693.0,601.0 C 700.582,608.917 716.192,618.233 719.0,629.0" style="stroke:#010101; fill:none;"/>
	<path d="M 725.0,601.0 L 733.0,612.0" style="stroke:#010101; fill:none;"/>
	<path d="M 730.0,603.0 L 728.0,605.0" style="stroke:#010101; fill:none;"/>
	<path d="M 687.0,605.0 L 692.0,613.0" style="stroke:#010101; fill:none;"/>
	<path d="M 692.0,607.0 L 689.0,610.0" style="stroke:#010101; fill:none;"/>
	<path d="M 476.0,627.0 C 497.599,621.41 523.69,615.672 546.0,619.615 C 551.644,620.612 559.812,621.466 564.767,624.43 C 572.034,628.776 572.997,636.828 584.0,633.0 L 569.0,626.0" style="stroke:#010101; fill:none;"/>
	<path d="M 729.0,620.0 C 730.107,627.886 734.218,633.779 739.0,640.0" style="stroke:#010101; fill:none;"/>
	<path d="M 731.0,622.0 L 741.0,637.0" style="stroke:#010101; fill:none;"/>
	<path d="M 514.0,628.0 C 510.612,628.933 509.38,628.582 507.0,626.0 C 525.009,623.424 547.831,627.704 566.0,630.0" style="stroke:#010101; fill:none;"/>
	<path d="M 422.0,628.0 C 438.699,639.879 455.724,634.958 474.0,632.279 C 485.032,630.661 496.421,629.683 507.0,626.0" style="stroke:#010101; fill:none;"/>
	<path d="M 570.0,628.0 L 568.0,630.0" style="stroke:#010101; fill:none;"/>
	<path d="M 490.0,636.0 L 509.0,630.0" style="stroke:#010101; fill:none;"/>
	<path d="M 508.0,631.0 C 508.801,645.807 528.018,659.052 539.0,667.073 C 541.886,669.181 549.846,675.61 553.643,673.759 C 556.995,672.124 554.662,660.573 555.847,657.0 C 559.117,647.145 567.485,640.566 575.0,634.0" style="stroke:#010101; fill:none;"/>
	<path d="M 460.0,632.0 L 469.0,634.0" style="stroke:#010101; fill:none;"/>
	<path d="M 584.0,634.0 C 591.434,632.456 600.644,638.573 607.0,642.154 C 624.582,652.06 646.703,663.774 654.388,684.0 C 658.26,694.191 651.495,710.62 658.6,719.671 C 661.241,723.036 669.8,726.051 669.092,718.981 C 667.972,707.803 662.755,695.498 657.0,686.0" style="stroke:#010101; fill:none;"/>
	<path d="M 584.0,634.0 L 605.0,647.0" style="stroke:#010101; fill:none;"/>
	<path d="M 505.0,650.0 L 505.0,652.0" style="stroke:#010101; fill:none;"/>
	<path d="M 614.0,679.0 C 585.976,693.955 586.674,636.807 613.0,655.305 C 616.126,657.501 618.75,659.943 621.0,663.0 C 614.724,667.051 605.618,675.483 618.0,679.0" style="stroke:#010101; fill:none;"/>
	<path d="M 508.0,658.0 L 518.0,657.0" style="stroke:#010101; fill:none;"/>
	<path d="M 656.0,662.0 C 665.406,678.351 678.264,692.048 683.0,711.0" style="stroke:#010101; fill:none;"/>
	<path d="M 519.0,663.0 L 519.0,664.0" style="stroke:#010101; fill:none;"/>
	<path d="M 423.0,666.0 L 435.0,666.0" style="stroke:#010101; fill:none;"/>
	<path d="M 529.0,667.0 L 529.0,668.0" style="stroke:#010101; fill:none;"/>
	<path d="M 546.0,674.0 L 546.0,676.0" style="stroke:#010101; fill:none;"/>
	<path d="M 556.0,674.0 C 562.435,680.101 570.402,682.132 578.0,686.424 C 597.124,697.228 617.592,706.335 636.0,718.344 C 643.986,723.554 659.035,736.688 668.981,736.292 C 676.886,735.978 672.169,726.452 670.0,723.0" style="stroke:#010101; fill:none;"/>
	<path d="M 641.0,676.0 C 642.067,691.101 633.292,698.749 621.0,706.0" style="stroke:#010101; fill:none;"/>
	<path d="M 455.0,677.0 C 480.008,712.501 519.165,727.802 559.0,739.0" style="stroke:#010101; fill:none;"/>
	<path d="M 558.0,683.0 L 563.0,687.0" style="stroke:#010101; fill:none;"/>
	<path d="M 577.0,694.0 L 578.0,695.0" style="stroke:#010101; fill:none;"/>
	<path d="M 687.0,709.0 L 687.0,736.0" style="stroke:#010101; fill:none;"/>
	<path d="M 911.0,712.0 C 924.914,710.387 942.576,710.093 955.982,714.789 C 963.543,717.438 972.815,724.916 980.0,729.201 C 999.713,740.958 1021.6,753.9 1037.89,770.289 C 1040.84,773.254 1041.88,777.093 1045.0,780.0 L 1049.0,776.0 L 1062.0,791.0 L 1063.0,790.0 L 1063.0,788.0" style="stroke:#010101; fill:none;"/>
	<path d="M 907.0,716.0 L 943.0,718.05 L 961.0,719.0" style="stroke:#010101; fill:none;"/>
	<path d="M 691.0,718.0 L 693.0,721.0" style="stroke:#010101; fill:none;"/>
	<path d="M 657.0,719.0 L 648.0,721.0" style="stroke:#010101; fill:none;"/>
	<path d="M 593.0,720.0 L 605.0,730.0" style="stroke:#010101; fill:none;"/>
	<path d="M 908.0,720.0 C 928.759,721.638 960.113,721.662 978.0,733.0" style="stroke:#010101; fill:none;"/>
	<path d="M 481.0,725.0 L 618.0,756.0" style="stroke:#010101; fill:none;"/>
	<path d="M 912.0,725.0 C 933.514,727.721 955.072,731.988 976.0,737.64 C 983.4,739.639 996.605,741.878 991.0,752.0 L 941.0,736.0 C 952.324,733.812 968.202,739.151 979.0,742.67 C 983.527,744.145 991.813,745.016 989.0,751.0" style="stroke:#010101; fill:none;"/>
	<path d="M 908.0,731.0 L 940.0,736.0" style="stroke:#010101; fill:none;"/>
	<path d="M 912.0,735.0 C 941.989,746.251 975.62,745.439 1004.0,762.0" style="stroke:#010101; fill:none;"/>
	<path d="M 900.0,738.0 L 916.0,742.0 L 909.0,743.0" style="stroke:#010101; fill:none;"/>
	<path d="M 663.0,739.0 L 667.0,743.0" style="stroke:#010101; fill:none;"/>
	<path d="M 672.0,741.0 L 672.0,746.0" style="stroke:#010101; fill:none;"/>
	<path d="M 582.0,742.0 L 637.0,749.0" style="stroke:#010101; fill:none;"/>
	<path d="M 681.0,742.0 L 681.0,745.0" style="stroke:#010101; fill:none;"/>
	<path d="M 916.0,742.0 C 927.823,742.941 947.211,754.298 958.0,750.0 L 955.0,747.0" style="stroke:#010101; fill:none;"/>
	<path d="M 915.0,743.0 L 945.0,754.0" style="stroke:#010101; fill:none;"/>
	<path d="M 906.0,749.0 C 916.534,751.18 935.814,760.913 946.0,758.0 L 945.0,755.0" style="stroke:#010101; fill:none;"/>
	<path d="M 994.0,749.0 L 997.0,750.0 L 992.0,751.0" style="stroke:#010101; fill:none;"/>
	<path d="M 998.0,750.0 L 995.0,753.0" style="stroke:#010101; fill:none;"/>
	<path d="M 959.0,752.0 C 968.338,756.802 986.921,759.224 992.0,769.0 L 982.0,771.474 L 970.0,769.0 L 989.0,782.0 L 961.0,774.0 L 1002.0,800.0 C 995.484,803.675 988.925,797.788 983.0,794.755 C 967.841,786.995 953.369,775.848 938.0,769.0" style="stroke:#010101; fill:none;"/>
	<path d="M 999.0,752.0 L 1013.0,760.0" style="stroke:#010101; fill:none;"/>
	<path d="M 947.0,753.0 L 969.0,759.57 L 988.0,768.0" style="stroke:#010101; fill:none;"/>
	<path d="M 909.0,754.0 L 961.0,775.0" style="stroke:#010101; fill:none;"/>
	<path d="M 998.0,754.0 L 999.0,754.0" style="stroke:#010101; fill:none;"/>
	<path d="M 985.0,756.0 L 1024.0,783.0 C 1015.23,784.684 1001.03,773.821 993.0,770.0" style="stroke:#010101; fill:none;"/>
	<path d="M 948.0,757.0 L 969.0,768.0" style="stroke:#010101; fill:none;"/>
	<path d="M 914.0,758.0 L 946.0,778.154 L 961.0,790.0 L 962.0,789.0 L 962.0,787.0" style="stroke:#010101; fill:none;"/>
	<path d="M 947.0,760.0 L 948.0,760.0" style="stroke:#010101; fill:none;"/>
	<path d="M 1015.0,761.0 L 1040.0,776.0" style="stroke:#010101; fill:none;"/>
	<path d="M 1013.0,763.0 C 1023.01,770.712 1033.75,777.191 1044.0,784.514 C 1048.58,787.788 1053.58,791.851 1059.0,789.0 L 1048.0,778.0" style="stroke:#010101; fill:none;"/>
	<path d="M 985.0,768.0 L 985.0,770.0" style="stroke:#010101; fill:none;"/>
	<path d="M 942.0,769.0 L 943.0,770.0" style="stroke:#010101; fill:none;"/>
	<path d="M 729.0,770.0 C 699.357,803.957 666.617,832.088 629.0,857.0" style="stroke:#010101; fill:none;"/>
	<path d="M 944.0,770.0 L 955.0,771.0" style="stroke:#010101; fill:none;"/>
	<path d="M 945.0,771.0 L 945.0,773.0" style="stroke:#010101; fill:none;"/>
	<path d="M 986.0,771.0 C 1004.26,782.727 1023.6,792.931 1043.0,802.631 C 1054.86,808.563 1069.35,813.552 1078.0,824.0" style="stroke:#010101; fill:none;"/>
	<path d="M 1043.0,774.0 L 1047.0,778.0" style="stroke:#010101; fill:none;"/>
	<path d="M 1047.0,781.0 L 1049.0,781.0" style="stroke:#010101; fill:none;"/>
	<path d="M 1055.0,781.0 L 1053.0,783.0" style="stroke:#010101; fill:none;"/>
	<path d="M 989.0,782.0 L 1027.0,801.514 L 1068.0,821.0" style="stroke:#010101; fill:none;"/>
	<path d="M 1025.0,783.0 L 1023.0,785.0" style="stroke:#010101; fill:none;"/>
	<path d="M 1027.0,784.0 L 1031.0,789.0 L 1032.0,789.0 L 1032.0,787.0" style="stroke:#010101; fill:none;"/>
	<path d="M 1025.0,785.0 L 1028.0,787.0" style="stroke:#010101; fill:none;"/>
	<path d="M 958.0,787.0 L 960.0,789.0" style="stroke:#010101; fill:none;"/>
	<path d="M 1029.0,788.0 L 1030.0,788.0" style="stroke:#010101; fill:none;"/>
	<path d="M 1059.0,788.0 L 1061.0,790.0" style="stroke:#010101; fill:none;"/>
	<path d="M 1081.0,788.0 L 1137.0,849.0 L 1132.0,847.0" style="stroke:#010101; fill:none;"/>
	<path d="M 965.0,789.0 L 963.0,790.0" style="stroke:#010101; fill:none;"/>
	<path d="M 1034.0,789.0 L 1047.0,793.0 L 1042.0,792.0" style="stroke:#010101; fill:none;"/>
	<path d="M 1064.0,789.0 C 1065.2,791.242 1065.24,791.196 1063.0,790.0" style="stroke:#010101; fill:none;"/>
	<path d="M 967.0,790.0 L 978.0,797.0 C 972.92,798.217 969.026,794.925 965.0,792.0" style="stroke:#010101; fill:none;"/>
	<path d="M 455.0,795.0 C 473.03,794.998 491.024,792.848 509.0,791.935 C 517.748,791.491 526.637,789.471 535.0,793.0" style="stroke:#010101; fill:none;"/>
	<path d="M 1067.0,791.0 L 1071.0,795.0 L 1065.0,793.0" style="stroke:#010101; fill:none;"/>
	<path d="M 1057.0,792.0 C 1062.4,796.594 1066.22,797.165 1073.0,798.0 L 1072.0,795.0" style="stroke:#010101; fill:none;"/>
	<path d="M 1048.0,793.0 L 1061.0,801.0 L 1058.0,801.0" style="stroke:#010101; fill:none;"/>
	<path d="M 1045.0,795.0 L 1051.0,798.0" style="stroke:#010101; fill:none;"/>
	<path d="M 1095.0,796.0 L 1139.43,845.992 L 1157.0,864.0 L 1153.0,862.0" style="stroke:#010101; fill:none;"/>
	<path d="M 979.0,797.0 L 977.0,799.0" style="stroke:#010101; fill:none;"/>
	<path d="M 1075.0,797.0 C 1077.55,800.258 1079.08,802.895 1078.0,807.0 L 1067.0,799.0" style="stroke:#010101; fill:none;"/>
	<path d="M 981.0,798.0 L 985.0,801.0 L 979.0,800.0" style="stroke:#010101; fill:none;"/>
	<path d="M 1057.0,799.0 L 1058.0,799.0" style="stroke:#010101; fill:none;"/>
	<path d="M 1073.0,799.0 L 1075.0,801.0" style="stroke:#010101; fill:none;"/>
	<path d="M 1003.0,800.0 L 1034.0,820.0 C 1017.61,825.355 1000.11,803.277 984.0,803.0" style="stroke:#010101; fill:none;"/>
	<path d="M 986.0,801.0 L 987.0,802.0" style="stroke:#010101; fill:none;"/>
	<path d="M 1000.0,803.0 L 1004.0,801.0 L 1006.0,804.0" style="stroke:#010101; fill:none;"/>
	<path d="M 1062.0,801.0 L 1060.0,803.0" style="stroke:#010101; fill:none;"/>
	<path d="M 1076.0,801.0 L 1078.0,803.0" style="stroke:#010101; fill:none;"/>
	<path d="M 1080.0,801.0 L 1082.0,805.0 L 1080.0,805.0" style="stroke:#010101; fill:none;"/>
	<path d="M 1007.0,802.0 L 1008.0,804.0" style="stroke:#010101; fill:none;"/>
	<path d="M 1064.0,802.0 L 1066.0,804.0 L 1064.0,806.0 L 1062.0,804.0" style="stroke:#010101; fill:none;"/>
	<path d="M 986.0,803.0 L 989.0,804.0" style="stroke:#010101; fill:none;"/>
	<path d="M 1009.0,803.0 L 1054.0,823.0" style="stroke:#010101; fill:none;"/>
	<path d="M 1067.0,804.0 L 1075.0,810.0 C 1070.56,811.051 1068.28,808.93 1065.0,806.0" style="stroke:#010101; fill:none;"/>
	<path d="M 978.0,805.0 C 991.092,813.949 1009.03,819.68 1024.0,824.831 C 1027.41,826.005 1034.93,830.896 1038.0,830.0" style="stroke:#010101; fill:none;"/>
	<path d="M 1082.0,805.0 L 1114.0,830.321 L 1125.0,842.0 L 1128.0,840.0" style="stroke:#010101; fill:none;"/>
	<path d="M 1005.0,806.0 L 1008.0,807.0" style="stroke:#010101; fill:none;"/>
	<path d="M 1083.0,806.0 L 1079.0,807.0" style="stroke:#010101; fill:none;"/>
	<path d="M 1117.0,808.0 C 1126.59,821.357 1140.14,835.529 1146.0,851.0" style="stroke:#010101; fill:none;"/>
	<path d="M 1076.0,810.0 L 1076.0,816.0" style="stroke:#010101; fill:none;"/>
	<path d="M 1128.0,811.0 L 1155.0,859.0" style="stroke:#010101; fill:none;"/>
	<path d="M 1074.0,812.0 L 1076.0,814.0" style="stroke:#010101; fill:none;"/>
	<path d="M 1079.0,812.0 L 1077.0,816.0" style="stroke:#010101; fill:none;"/>
	<path d="M 1081.0,813.0 C 1087.45,819.159 1104.41,835.332 1113.0,829.0" style="stroke:#010101; fill:none;"/>
	<path d="M 1068.0,814.0 L 1069.0,815.0" style="stroke:#010101; fill:none;"/>
	<path d="M 1082.0,814.0 C 1080.25,819.9 1085.77,823.031 1090.0,826.399 C 1097.42,832.301 1117.66,843.463 1116.0,854.0 C 1111.71,851.955 1110.25,849.733 1111.0,845.0" style="stroke:#010101; fill:none;"/>
	<path d="M 1070.0,815.0 L 1070.0,817.0" style="stroke:#010101; fill:none;"/>
	<path d="M 1078.0,815.0 L 1080.0,817.0" style="stroke:#010101; fill:none;"/>
	<path d="M 990.0,816.0 L 1005.0,824.0 L 997.0,823.0" style="stroke:#010101; fill:none;"/>
	<path d="M 1071.0,816.0 L 1074.0,816.0" style="stroke:#010101; fill:none;"/>
	<path d="M 1082.0,817.0 L 1083.0,817.0" style="stroke:#010101; fill:none;"/>
	<path d="M 1035.0,820.0 L 1071.0,839.0 C 1061.68,842.599 1048.53,832.62 1039.0,831.0" style="stroke:#010101; fill:none;"/>
	<path d="M 1075.0,821.0 L 1078.0,821.0" style="stroke:#010101; fill:none;"/>
	<path d="M 1036.0,821.0 L 1033.0,822.0" style="stroke:#010101; fill:none;"/>
	<path d="M 1055.0,821.0 C 1063.62,827.153 1073.12,835.964 1084.0,837.0" style="stroke:#010101; fill:none;"/>
	<path d="M 1080.0,823.0 L 1087.0,829.0" style="stroke:#010101; fill:none;"/>
	<path d="M 1006.0,824.0 L 1021.0,831.0 C 1015.09,832.786 1008.97,829.161 1004.0,826.0" style="stroke:#010101; fill:none;"/>
	<path d="M 1078.0,825.0 L 1082.0,827.0" style="stroke:#010101; fill:none;"/>
	<path d="M 1142.0,826.0 L 1161.0,865.0" style="stroke:#010101; fill:none;"/>
	<path d="M 1082.0,828.0 L 1086.0,829.0" style="stroke:#010101; fill:none;"/>
	<path d="M 1021.0,831.0 L 1032.0,835.0 L 1020.0,833.0" style="stroke:#010101; fill:none;"/>
	<path d="M 1087.0,831.0 L 1093.0,835.0 L 1090.0,835.0" style="stroke:#010101; fill:none;"/>
	<path d="M 1111.0,831.0 L 1121.0,840.0" style="stroke:#010101; fill:none;"/>
	<path d="M 1064.0,832.0 L 1069.0,833.0" style="stroke:#010101; fill:none;"/>
	<path d="M 1038.0,833.0 L 1044.0,838.0 L 1037.0,841.0 C 1042.19,845.184 1048.12,848.253 1054.0,844.0 L 1044.0,838.0" style="stroke:#010101; fill:none;"/>
	<path d="M 1111.0,834.0 L 1112.0,834.0" style="stroke:#010101; fill:none;"/>
	<path d="M 1032.0,835.0 L 1042.0,837.0" style="stroke:#010101; fill:none;"/>
	<path d="M 232.0,836.0 L 237.0,840.0" style="stroke:#010101; fill:none;"/>
	<path d="M 1093.0,836.0 L 1108.0,849.0" style="stroke:#010101; fill:none;"/>
	<path d="M 1020.0,837.0 L 1036.0,840.0 L 1031.0,837.0" style="stroke:#010101; fill:none;"/>
	<path d="M 231.0,838.0 C 231.941,841.198 232.651,842.26 236.0,842.0" style="stroke:#010101; fill:none;"/>
	<path d="M 1041.0,838.0 L 1039.0,840.0" style="stroke:#010101; fill:none;"/>
	<path d="M 1072.0,839.0 C 1077.44,843.403 1085.78,848.967 1093.0,848.0 L 1082.0,839.0" style="stroke:#010101; fill:none;"/>
	<path d="M 1124.0,839.0 L 1126.0,840.0" style="stroke:#010101; fill:none;"/>
	<path d="M 1042.0,840.0 L 1050.0,841.0" style="stroke:#010101; fill:none;"/>
	<path d="M 1071.0,842.0 L 1073.0,842.0" style="stroke:#010101; fill:none;"/>
	<path d="M 1120.0,842.0 L 1122.0,843.0" style="stroke:#010101; fill:none;"/>
	<path d="M 1126.0,842.0 L 1130.0,844.0" style="stroke:#010101; fill:none;"/>
	<path d="M 1056.0,844.0 L 1058.0,845.0 L 1056.0,847.0 L 1055.0,845.0" style="stroke:#010101; fill:none;"/>
	<path d="M 1110.0,844.0 L 1107.0,847.0" style="stroke:#010101; fill:none;"/>
	<path d="M 233.0,845.0 C 227.857,867.231 215.915,893.135 205.0,913.0 L 201.0,910.0 C 189.337,923.684 178.668,938.738 176.289,957.0 C 175.831,960.516 175.229,974.793 181.117,974.793 C 185.562,974.793 186.95,964.1 188.051,961.0 C 193.463,945.756 202.648,928.927 205.0,913.0" style="stroke:#010101; fill:none;"/>
	<path d="M 1058.0,845.0 C 1062.32,848.252 1053.98,847.606 1052.0,847.0" style="stroke:#010101; fill:none;"/>
	<path d="M 1070.0,850.0 L 1062.0,846.0 L 1063.0,845.0 L 1076.0,849.0 L 1070.0,850.0" style="stroke:#010101; fill:none;"/>
	<path d="M 1123.0,845.0 C 1130.88,851.354 1139.34,857.833 1145.46,866.0 C 1148.24,869.697 1148.66,874.333 1151.41,878.0 C 1157.07,885.55 1166.8,890.722 1171.81,898.093 C 1184.26,916.383 1193.36,942.27 1201.0,963.0" style="stroke:#010101; fill:none;"/>
	<path d="M 907.0,846.0 L 922.0,851.0 C 899.3,862.828 871.427,856.663 850.0,873.0" style="stroke:#010101; fill:none;"/>
	<path d="M 1120.0,846.0 L 1122.0,848.0 L 1118.0,850.0" style="stroke:#010101; fill:none;"/>
	<path d="M 1090.0,847.0 L 1090.0,848.0" style="stroke:#010101; fill:none;"/>
	<path d="M 1111.0,847.0 L 1113.0,847.0" style="stroke:#010101; fill:none;"/>
	<path d="M 1115.0,847.0 L 1111.0,851.0" style="stroke:#010101; fill:none;"/>
	<path d="M 1059.0,848.0 L 1065.0,848.0" style="stroke:#010101; fill:none;"/>
	<path d="M 1050.0,849.0 L 1094.0,869.0 C 1083.94,874.725 1069.15,864.679 1060.0,860.0" style="stroke:#010101; fill:none;"/>
	<path d="M 1077.0,849.0 L 1085.0,851.0" style="stroke:#010101; fill:none;"/>
	<path d="M 1094.0,849.0 L 1101.0,854.0 C 1097.03,854.855 1094.95,853.532 1093.0,850.0" style="stroke:#010101; fill:none;"/>
	<path d="M 1078.0,850.0 L 1074.0,852.0" style="stroke:#010101; fill:none;"/>
	<path d="M 1115.0,850.0 L 1116.0,850.0" style="stroke:#010101; fill:none;"/>
	<path d="M 1123.0,850.0 L 1147.0,873.0" style="stroke:#010101; fill:none;"/>
	<path d="M 1137.0,850.0 L 1156.0,873.0 C 1155.78,870.333 1155.54,870.181 1153.0,871.0" style="stroke:#010101; fill:none;"/>
	<path d="M 922.0,851.0 C 931.924,852.843 942.071,851.634 952.0,853.888 C 967.288,857.359 980.149,866.536 993.0,875.0" style="stroke:#010101; fill:none;"/>
	<path d="M 1042.0,851.0 L 1052.0,856.0" style="stroke:#010101; fill:none;"/>
	<path d="M 1079.0,851.0 L 1086.0,858.0 L 1085.0,859.0 L 1086.0,860.0 L 1087.0,859.0" style="stroke:#010101; fill:none;"/>
	<path d="M 1082.0,851.0 L 1080.0,853.0" style="stroke:#010101; fill:none;"/>
	<path d="M 1076.0,852.0 L 1078.0,854.0" style="stroke:#010101; fill:none;"/>
	<path d="M 1083.0,852.0 L 1083.0,855.0" style="stroke:#010101; fill:none;"/>
	<path d="M 1145.0,853.0 L 1148.0,856.0" style="stroke:#010101; fill:none;"/>
	<path d="M 1102.0,854.0 L 1105.0,857.0 L 1100.0,856.0" style="stroke:#010101; fill:none;"/>
	<path d="M 1116.0,854.0 L 1139.0,875.741 L 1154.0,891.0 L 1151.0,887.0" style="stroke:#010101; fill:none;"/>
	<path d="M 1091.0,856.0 L 1091.0,858.0 L 1091.0,856.0" style="stroke:#010101; fill:none;"/>
	<path d="M 1082.0,857.0 L 1084.0,859.0" style="stroke:#010101; fill:none;"/>
	<path d="M 1087.0,857.0 L 1090.0,857.0" style="stroke:#010101; fill:none;"/>
	<path d="M 1092.0,857.0 L 1100.0,858.0" style="stroke:#010101; fill:none;"/>
	<path d="M 1091.0,858.0 C 1094.91,862.905 1107.52,866.997 1113.0,864.0 L 1105.0,858.0" style="stroke:#010101; fill:none;"/>
	<path d="M 1154.0,858.0 L 1152.0,860.0" style="stroke:#010101; fill:none;"/>
	<path d="M 1087.0,860.0 L 1091.0,860.0" style="stroke:#010101; fill:none;"/>
	<path d="M 1091.0,863.0 L 1124.0,879.734 L 1137.0,886.897 L 1145.0,881.0" style="stroke:#010101; fill:none;"/>
	<path d="M 1114.0,864.0 L 1123.0,874.0 L 1122.0,872.0" style="stroke:#010101; fill:none;"/>
	<path d="M 1157.0,864.0 L 1164.0,878.0" style="stroke:#010101; fill:none;"/>
	<path d="M 1154.0,865.0 L 1152.0,868.0" style="stroke:#010101; fill:none;"/>
	<path d="M 1158.0,865.0 L 1155.0,868.0" style="stroke:#010101; fill:none;"/>
	<path d="M 1064.0,867.0 L 1084.0,876.639 L 1091.0,879.0" style="stroke:#010101; fill:none;"/>
	<path d="M 1116.0,867.0 L 1111.0,867.0" style="stroke:#010101; fill:none;"/>
	<path d="M 1156.0,867.0 L 1159.0,870.0" style="stroke:#010101; fill:none;"/>
	<path d="M 1095.0,869.0 L 1097.0,871.0 L 1094.0,874.0 L 1092.0,872.0" style="stroke:#010101; fill:none;"/>
	<path d="M 1157.0,869.0 L 1158.0,869.0" style="stroke:#010101; fill:none;"/>
	<path d="M 1116.0,870.0 L 1118.0,871.0" style="stroke:#010101; fill:none;"/>
	<path d="M 1120.0,870.0 L 1123.0,871.0" style="stroke:#010101; fill:none;"/>
	<path d="M 1098.0,871.0 L 1102.0,874.0 L 1099.0,883.0" style="stroke:#010101; fill:none;"/>
	<path d="M 1088.0,872.0 L 1091.0,872.0" style="stroke:#010101; fill:none;"/>
	<path d="M 1099.0,872.0 L 1095.0,874.0" style="stroke:#010101; fill:none;"/>
	<path d="M 1160.0,872.0 L 1166.0,893.0" style="stroke:#010101; fill:none;"/>
	<path d="M 1124.0,873.0 L 1139.0,885.0" style="stroke:#010101; fill:none;"/>
	<path d="M 1156.0,873.0 L 1159.0,876.0" style="stroke:#010101; fill:none;"/>
	<path d="M 1103.0,874.0 L 1148.0,901.0 L 1152.0,897.0 L 1145.0,897.0" style="stroke:#010101; fill:none;"/>
	<path d="M 1097.0,875.0 L 1100.0,878.0" style="stroke:#010101; fill:none;"/>
	<path d="M 1000.0,876.0 C 1027.9,898.142 1060.08,917.714 1081.25,947.0 C 1094.13,964.81 1097.54,985.037 1107.26,1004.0 C 1121.19,1031.17 1140.53,1054.53 1162.0,1076.0" style="stroke:#010101; fill:none;"/>
	<path d="M 914.0,887.0 L 916.0,900.0 C 906.575,899.516 898.012,894.064 891.015,888.079 C 888.939,886.304 884.068,882.814 886.021,879.513 C 887.785,876.53 893.102,877.015 896.0,877.001 C 905.465,876.954 916.903,875.311 926.0,878.0 C 917.065,888.167 905.856,885.499 894.0,884.0" style="stroke:#010101; fill:none;"/>
	<path d="M 926.0,878.0 C 945.215,878.159 977.896,885.808 993.0,898.0 C 986.266,904.203 976.403,907.391 973.333,917.0 C 971.331,923.269 975.923,943.574 977.0,943.0" style="stroke:#010101; fill:none;"/>
	<path d="M 1089.0,878.0 L 1086.0,879.0" style="stroke:#010101; fill:none;"/>
	<path d="M 1105.0,878.0 L 1098.0,885.0" style="stroke:#010101; fill:none;"/>
	<path d="M 1102.0,879.0 L 1103.0,880.0" style="stroke:#010101; fill:none;"/>
	<path d="M 1093.0,880.0 L 1096.0,882.0" style="stroke:#010101; fill:none;"/>
	<path d="M 1142.0,880.0 L 1143.0,882.0" style="stroke:#010101; fill:none;"/>
	<path d="M 1092.0,882.0 L 1093.0,882.0" style="stroke:#010101; fill:none;"/>
	<path d="M 1104.0,882.0 L 1116.0,890.0 L 1111.0,894.0 L 1118.0,903.0 L 1120.0,900.0" style="stroke:#010101; fill:none;"/>
	<path d="M 1100.0,883.0 L 1101.0,884.0" style="stroke:#010101; fill:none;"/>
	<path d="M 1145.0,883.0 L 1149.0,888.0" style="stroke:#010101; fill:none;"/>
	<path d="M 1145.0,884.0 L 1141.0,886.0" style="stroke:#010101; fill:none;"/>
	<path d="M 600.0,885.0 L 585.0,909.0" style="stroke:#010101; fill:none;"/>
	<path d="M 1100.0,886.0 L 1111.0,894.0" style="stroke:#010101; fill:none;"/>
	<path d="M 1143.0,886.0 L 1147.0,885.0" style="stroke:#010101; fill:none;"/>
	<path d="M 1140.0,888.0 L 1145.0,893.0 L 1145.0,888.0" style="stroke:#010101; fill:none;"/>
	<path d="M 1117.0,890.0 L 1121.0,892.0 L 1114.0,893.0" style="stroke:#010101; fill:none;"/>
	<path d="M 465.0,899.0 C 471.923,894.071 479.498,891.366 488.0,891.0" style="stroke:#010101; fill:none;"/>
	<path d="M 1118.0,891.0 L 1118.0,893.0" style="stroke:#010101; fill:none;"/>
	<path d="M 1154.0,891.0 L 1168.0,905.0" style="stroke:#010101; fill:none;"/>
	<path d="M 1122.0,892.0 L 1124.0,894.0 L 1122.0,896.0 L 1120.0,894.0" style="stroke:#010101; fill:none;"/>
	<path d="M 1146.0,892.0 L 1149.0,893.0" style="stroke:#010101; fill:none;"/>
	<path d="M 1145.0,893.0 L 1145.0,895.0" style="stroke:#010101; fill:none;"/>
	<path d="M 1169.0,893.0 L 1169.0,894.0" style="stroke:#010101; fill:none;"/>
	<path d="M 1125.0,894.0 L 1127.0,896.0 L 1125.0,898.0 L 1123.0,896.0" style="stroke:#010101; fill:none;"/>
	<path d="M 1128.0,896.0 L 1136.0,902.0 C 1131.65,902.933 1129.29,900.782 1126.0,898.0" style="stroke:#010101; fill:none;"/>
	<path d="M 1159.0,896.0 L 1160.0,899.0" style="stroke:#010101; fill:none;"/>
	<path d="M 994.0,898.0 C 1004.4,901.852 1013.61,910.804 1022.0,918.001 C 1046.62,939.131 1067.3,969.701 1083.0,998.0" style="stroke:#010101; fill:none;"/>
	<path d="M 1153.0,899.0 C 1154.18,903.695 1154.34,908.247 1160.0,905.0 L 1155.0,907.0" style="stroke:#010101; fill:none;"/>
	<path d="M 916.0,900.0 L 944.0,915.669 L 973.0,944.0" style="stroke:#010101; fill:none;"/>
	<path d="M 1153.0,900.0 L 1153.0,905.0" style="stroke:#010101; fill:none;"/>
	<path d="M 1160.0,900.0 L 1167.0,913.0 L 1167.0,911.0" style="stroke:#010101; fill:none;"/>
	<path d="M 417.0,928.0 C 407.986,931.497 392.575,941.701 383.0,938.0 C 404.997,916.947 427.03,907.978 456.0,901.0" style="stroke:#010101; fill:none;"/>
	<path d="M 1149.0,901.0 L 1151.0,903.0" style="stroke:#010101; fill:none;"/>
	<path d="M 1109.0,902.0 L 1125.0,915.0 L 1126.0,908.0 C 1132.03,907.104 1132.69,914.036 1136.0,918.0 C 1137.68,914.441 1137.23,913.224 1134.0,911.0" style="stroke:#010101; fill:none;"/>
	<path d="M 1137.0,902.0 L 1157.0,913.0 L 1156.0,911.0" style="stroke:#010101; fill:none;"/>
	<path d="M 1156.0,902.0 L 1158.0,904.0" style="stroke:#010101; fill:none;"/>
	<path d="M 1122.0,903.0 L 1126.0,907.0" style="stroke:#010101; fill:none;"/>
	<path d="M 1135.0,904.0 C 1141.19,908.912 1156.29,922.778 1164.0,919.0 L 1158.0,913.0" style="stroke:#010101; fill:none;"/>
	<path d="M 203.0,910.0 L 207.0,905.0" style="stroke:#010101; fill:none;"/>
	<path d="M 1120.0,905.0 L 1123.0,905.0" style="stroke:#010101; fill:none;"/>
	<path d="M 1160.0,905.0 L 1162.0,906.0" style="stroke:#010101; fill:none;"/>
	<path d="M 1162.0,906.0 L 1156.0,911.0" style="stroke:#010101; fill:none;"/>
	<path d="M 1165.0,908.0 L 1160.0,909.0" style="stroke:#010101; fill:none;"/>
	<path d="M 433.0,911.0 C 424.212,915.292 405.403,929.252 396.0,927.0" style="stroke:#010101; fill:none;"/>
	<path d="M 1128.0,912.0 L 1132.0,912.0" style="stroke:#010101; fill:none;"/>
	<path d="M 1164.0,912.0 L 1165.0,912.0" style="stroke:#010101; fill:none;"/>
	<path d="M 1139.0,914.0 L 1135.0,916.0" style="stroke:#010101; fill:none;"/>
	<path d="M 1168.0,913.0 L 1179.0,931.0 L 1171.0,931.0 L 1176.0,932.0" style="stroke:#010101; fill:none;"/>
	<path d="M 1132.0,914.0 L 1129.0,917.0 L 1133.0,916.0" style="stroke:#010101; fill:none;"/>
	<path d="M 1140.0,914.0 L 1145.0,918.0 L 1145.0,923.0 L 1146.0,918.0" style="stroke:#010101; fill:none;"/>
	<path d="M 1126.0,915.0 L 1128.0,917.0" style="stroke:#010101; fill:none;"/>
	<path d="M 1142.0,916.0 L 1142.0,920.0" style="stroke:#010101; fill:none;"/>
	<path d="M 1135.0,917.0 L 1133.0,920.0 L 1136.0,921.0 L 1136.0,918.0" style="stroke:#010101; fill:none;"/>
	<path d="M 1139.0,918.0 L 1140.0,918.0" style="stroke:#010101; fill:none;"/>
	<path d="M 1130.0,919.0 L 1132.0,921.0" style="stroke:#010101; fill:none;"/>
	<path d="M 1138.0,924.0 L 1134.0,925.0 L 1142.0,920.0" style="stroke:#010101; fill:none;"/>
	<path d="M 1149.0,920.0 L 1146.0,923.0" style="stroke:#010101; fill:none;"/>
	<path d="M 1164.0,920.0 L 1172.0,923.0" style="stroke:#010101; fill:none;"/>
	<path d="M 1132.0,921.0 L 1134.0,925.0" style="stroke:#010101; fill:none;"/>
	<path d="M 1151.0,921.0 L 1153.0,923.0 L 1150.0,926.0 L 1148.0,924.0" style="stroke:#010101; fill:none;"/>
	<path d="M 1165.0,921.0 L 1162.0,922.0" style="stroke:#010101; fill:none;"/>
	<path d="M 1027.0,949.0 C 1014.31,953.743 991.844,941.414 1001.86,926.059 C 1005.47,920.522 1019.19,921.787 1021.71,928.225 C 1022.89,931.257 1020.15,934.708 1020.9,938.0 C 1021.83,942.095 1025.28,945.24 1027.0,949.0" style="stroke:#010101; fill:none;"/>
	<path d="M 1141.0,923.0 L 1138.0,925.0" style="stroke:#010101; fill:none;"/>
	<path d="M 1153.0,923.0 L 1160.0,926.0" style="stroke:#010101; fill:none;"/>
	<path d="M 1165.0,923.0 L 1171.0,930.0" style="stroke:#010101; fill:none;"/>
	<path d="M 451.0,925.0 C 443.812,955.204 473.144,984.144 492.0,1003.0" style="stroke:#010101; fill:none;"/>
	<path d="M 1156.0,925.0 L 1151.0,926.0" style="stroke:#010101; fill:none;"/>
	<path d="M 1130.0,926.0 C 1147.55,948.848 1176.45,960.498 1197.0,980.0 C 1192.35,981.0 1186.62,978.183 1187.0,973.0" style="stroke:#010101; fill:none;"/>
	<path d="M 1142.0,926.0 L 1173.96,947.439 L 1188.0,957.0 C 1187.12,953.883 1186.2,951.989 1189.0,950.0 L 1187.0,942.0" style="stroke:#010101; fill:none;"/>
	<path d="M 1137.0,927.0 C 1152.69,942.557 1175.51,962.38 1196.0,971.0 L 1188.0,957.0" style="stroke:#010101; fill:none;"/>
	<path d="M 1158.0,927.0 L 1154.0,928.0" style="stroke:#010101; fill:none;"/>
	<path d="M 1162.0,927.0 L 1157.0,929.0" style="stroke:#010101; fill:none;"/>
	<path d="M 1164.0,928.0 C 1163.31,932.201 1161.75,932.98 1158.0,931.0 L 1158.0,931.0" style="stroke:#010101; fill:none;"/>
	<path d="M 1166.0,929.0 L 1170.0,929.0" style="stroke:#010101; fill:none;"/>
	<path d="M 393.0,931.0 L 397.0,929.0" style="stroke:#010101; fill:none;"/>
	<path d="M 1130.0,931.0 C 1145.7,947.02 1164.13,965.714 1185.0,975.0" style="stroke:#010101; fill:none;"/>
	<path d="M 1168.0,931.0 L 1165.0,932.0" style="stroke:#010101; fill:none;"/>
	<path d="M 1179.0,932.0 L 1185.0,941.0" style="stroke:#010101; fill:none;"/>
	<path d="M 1167.0,933.0 C 1171.53,937.869 1172.77,942.34 1180.0,944.0 L 1172.0,936.0" style="stroke:#010101; fill:none;"/>
	<path d="M 241.0,1074.0 C 252.396,1051.69 258.824,1023.16 275.3,1004.0 C 288.216,988.982 307.757,983.084 325.0,974.741 C 353.676,960.867 382.128,942.443 413.0,934.0" style="stroke:#010101; fill:none;"/>
	<path d="M 1163.0,934.0 L 1168.0,938.0" style="stroke:#010101; fill:none;"/>
	<path d="M 1175.0,934.0 L 1175.0,938.0" style="stroke:#010101; fill:none;"/>
	<path d="M 1178.0,936.0 L 1181.0,937.0" style="stroke:#010101; fill:none;"/>
	<path d="M 562.0,940.0 C 555.365,955.854 545.471,969.205 544.184,987.0 C 541.694,1021.46 572.874,1051.87 595.0,1074.0" style="stroke:#010101; fill:none;"/>
	<path d="M 911.0,940.0 C 916.595,955.078 929.912,966.916 941.0,978.0 C 978.559,1015.54 1029.15,1034.25 1076.0,1057.0" style="stroke:#010101; fill:none;"/>
	<path d="M 975.0,943.0 C 976.0,946.036 976.863,946.494 980.0,946.0 L 978.0,943.0" style="stroke:#010101; fill:none;"/>
	<path d="M 1180.0,944.0 L 1185.0,949.0" style="stroke:#010101; fill:none;"/>
	<path d="M 381.0,949.0 L 396.0,945.0" style="stroke:#010101; fill:none;"/>
	<path d="M 979.0,947.0 C 990.844,959.751 1004.13,973.158 1021.0,977.0 L 1017.0,978.0" style="stroke:#010101; fill:none;"/>
	<path d="M 1190.0,951.0 L 1202.0,981.0 L 1196.0,982.0" style="stroke:#010101; fill:none;"/>
	<path d="M 1150.0,952.0 C 1152.1,956.502 1154.96,960.212 1160.0,958.0" style="stroke:#010101; fill:none;"/>
	<path d="M 1155.0,954.0 L 1153.0,956.0" style="stroke:#010101; fill:none;"/>
	<path d="M 1054.0,956.0 C 1045.55,969.163 1037.32,976.998 1021.0,977.0" style="stroke:#010101; fill:none;"/>
	<path d="M 1194.0,956.0 L 1196.0,956.0" style="stroke:#010101; fill:none;"/>
	<path d="M 1149.0,957.0 L 1163.0,973.0" style="stroke:#010101; fill:none;"/>
	<path d="M 1158.0,961.0 L 1205.0,997.0" style="stroke:#010101; fill:none;"/>
	<path d="M 476.0,964.0 C 493.151,970.836 514.287,984.662 524.941,1000.01 C 531.372,1009.28 532.968,1022.77 538.258,1033.0 C 548.698,1053.18 574.902,1079.0 597.0,1086.0" style="stroke:#010101; fill:none;"/>
	<path d="M 1062.0,970.0 L 1064.0,974.0 L 1066.0,972.0" style="stroke:#010101; fill:none;"/>
	<path d="M 1161.0,970.0 L 1162.0,973.0" style="stroke:#010101; fill:none;"/>
	<path d="M 1166.0,973.0 L 1208.0,1005.0" style="stroke:#010101; fill:none;"/>
	<path d="M 1063.0,975.0 C 1068.58,995.863 1078.6,1018.0 1100.0,1027.0 L 1096.0,1018.0" style="stroke:#010101; fill:none;"/>
	<path d="M 1164.0,975.0 L 1207.0,1010.0" style="stroke:#010101; fill:none;"/>
	<path d="M 183.0,977.0 C 167.105,1033.43 150.353,1090.69 143.285,1149.0 C 139.842,1177.41 140.67,1205.61 139.985,1234.0 C 138.925,1277.99 138.064,1321.98 136.985,1366.0 C 136.021,1405.37 126.388,1445.55 129.09,1485.0 C 134.559,1564.87 184.059,1649.14 250.0,1694.0" style="stroke:#010101; fill:none;"/>
	<path d="M 1198.0,980.0 L 1199.0,981.0" style="stroke:#010101; fill:none;"/>
	<path d="M 1020.0,981.0 L 1068.0,999.0" style="stroke:#010101; fill:none;"/>
	<path d="M 1202.0,981.0 L 1205.0,985.0 L 1198.0,983.0" style="stroke:#010101; fill:none;"/>
	<path d="M 1203.0,982.0 L 1200.0,985.0" style="stroke:#010101; fill:none;"/>
	<path d="M 1172.0,987.0 C 1175.01,989.886 1176.82,992.062 1181.0,991.0" style="stroke:#010101; fill:none;"/>
	<path d="M 1206.0,987.0 L 1207.0,995.0" style="stroke:#010101; fill:none;"/>
	<path d="M 1178.0,988.0 L 1176.0,990.0" style="stroke:#010101; fill:none;"/>
	<path d="M 1180.0,994.0 L 1210.0,1019.0" style="stroke:#010101; fill:none;"/>
	<path d="M 494.0,997.0 L 517.0,1013.0" style="stroke:#010101; fill:none;"/>
	<path d="M 732.0,1003.0 L 742.0,1006.0" style="stroke:#010101; fill:none;"/>
	<path d="M 1201.0,1012.0 L 1198.0,1013.0" style="stroke:#010101; fill:none;"/>
	<path d="M 202.0,1013.0 C 183.976,1047.2 180.784,1096.99 180.0,1135.0" style="stroke:#010101; fill:none;"/>
	<path d="M 1187.0,1013.0 L 1213.0,1036.0" style="stroke:#010101; fill:none;"/>
	<path d="M 1183.0,1014.0 C 1192.98,1027.46 1205.58,1038.14 1219.0,1048.0" style="stroke:#010101; fill:none;"/>
	<path d="M 1202.0,1014.0 C 1201.65,1019.21 1206.49,1022.49 1210.0,1026.0" style="stroke:#010101; fill:none;"/>
	<path d="M 1199.0,1015.0 L 1200.0,1016.0" style="stroke:#010101; fill:none;"/>
	<path d="M 744.0,1020.0 C 751.435,1022.53 758.158,1029.87 764.0,1035.05 C 780.72,1049.87 795.977,1068.53 797.0,1092.0" style="stroke:#010101; fill:none;"/>
	<path d="M 1087.0,1020.0 L 1098.13,1039.0 L 1126.0,1076.0" style="stroke:#010101; fill:none;"/>
	<path d="M 1186.0,1025.0 L 1205.0,1052.0" style="stroke:#010101; fill:none;"/>
	<path d="M 1101.0,1028.0 C 1115.8,1059.66 1147.0,1097.55 1178.0,1114.0" style="stroke:#010101; fill:none;"/>
	<path d="M 580.0,1032.0 C 596.63,1048.49 618.458,1052.38 641.0,1047.0" style="stroke:#010101; fill:none;"/>
	<path d="M 285.0,1038.0 L 292.0,1036.0" style="stroke:#010101; fill:none;"/>
	<path d="M 342.0,1041.0 L 345.0,1041.0" style="stroke:#010101; fill:none;"/>
	<path d="M 667.0,1042.0 L 688.0,1051.0" style="stroke:#010101; fill:none;"/>
	<path d="M 291.0,1045.0 L 297.0,1044.0" style="stroke:#010101; fill:none;"/>
	<path d="M 304.0,1044.0 L 307.0,1044.0" style="stroke:#010101; fill:none;"/>
	<path d="M 341.0,1045.0 L 343.0,1046.0" style="stroke:#010101; fill:none;"/>
	<path d="M 352.0,1048.0 L 353.0,1048.0" style="stroke:#010101; fill:none;"/>
	<path d="M 358.0,1053.0 L 359.0,1053.0" style="stroke:#010101; fill:none;"/>
	<path d="M 1085.0,1060.0 L 1111.0,1074.0" style="stroke:#010101; fill:none;"/>
	<path d="M 623.0,1078.0 C 641.793,1068.94 666.76,1076.29 683.0,1087.0 C 674.352,1094.55 659.675,1085.09 649.0,1085.0" style="stroke:#010101; fill:none;"/>
	<path d="M 304.0,1076.0 L 304.0,1077.0" style="stroke:#010101; fill:none;"/>
	<path d="M 1115.0,1076.0 L 1146.83,1106.17 L 1183.0,1149.0" style="stroke:#010101; fill:none;"/>
	<path d="M 246.0,1081.0 L 229.0,1140.0" style="stroke:#010101; fill:none;"/>
	<path d="M 288.0,1081.0 C 302.82,1101.61 325.729,1109.9 349.0,1117.92 C 358.813,1121.3 370.596,1123.77 379.0,1130.0 L 362.0,1167.0" style="stroke:#010101; fill:none;"/>
	<path d="M 313.0,1085.0 C 361.111,1082.93 413.354,1084.73 457.0,1108.0" style="stroke:#010101; fill:none;"/>
	<path d="M 281.0,1085.0 L 292.0,1095.0" style="stroke:#010101; fill:none;"/>
	<path d="M 606.0,1089.0 L 628.0,1090.0" style="stroke:#010101; fill:none;"/>
	<path d="M 704.0,1123.0 C 708.497,1124.29 712.627,1126.44 717.0,1128.08 C 720.145,1129.26 729.698,1131.69 728.11,1124.98 C 727.003,1120.31 721.395,1116.67 718.0,1113.72 C 709.564,1106.38 691.949,1086.05 680.0,1092.0" style="stroke:#010101; fill:none;"/>
	<path d="M 654.0,1092.0 C 664.775,1094.22 686.893,1103.31 696.0,1096.0" style="stroke:#010101; fill:none;"/>
	<path d="M 1101.0,1097.0 C 1115.6,1124.7 1130.8,1161.82 1135.0,1193.0" style="stroke:#010101; fill:none;"/>
	<path d="M 682.0,1103.0 L 696.0,1107.0" style="stroke:#010101; fill:none;"/>
	<path d="M 316.0,1105.0 L 312.0,1109.0" style="stroke:#010101; fill:none;"/>
	<path d="M 317.0,1106.0 C 317.154,1124.55 326.562,1151.75 341.0,1164.0 L 359.0,1123.0" style="stroke:#010101; fill:none;"/>
	<path d="M 793.0,1112.0 C 791.56,1118.06 788.751,1123.96 785.073,1129.0 C 759.742,1163.72 711.948,1149.69 683.0,1129.0" style="stroke:#010101; fill:none;"/>
	<path d="M 1129.0,1113.0 L 1143.0,1139.0" style="stroke:#010101; fill:none;"/>
	<path d="M 825.0,1117.0 C 825.822,1153.87 824.444,1189.67 832.424,1226.0 C 843.884,1278.17 867.991,1327.53 848.304,1381.0 C 836.103,1414.14 798.833,1434.71 774.0,1457.17 C 753.838,1475.4 739.564,1498.38 718.0,1515.0" style="stroke:#010101; fill:none;"/>
	<path d="M 469.0,1121.0 C 480.409,1139.19 501.078,1157.8 521.0,1166.12 C 547.713,1177.28 575.325,1179.0 601.0,1194.0" style="stroke:#010101; fill:none;"/>
	<path d="M 370.0,1125.0 C 367.806,1129.91 369.505,1136.35 372.0,1141.0" style="stroke:#010101; fill:none;"/>
	<path d="M 379.0,1130.0 L 398.0,1137.0 C 394.985,1142.88 397.125,1151.83 399.0,1158.0 L 413.0,1143.0 L 398.0,1137.0" style="stroke:#010101; fill:none;"/>
	<path d="M 413.0,1143.0 C 421.796,1144.32 429.717,1150.17 437.0,1155.0 C 460.187,1170.4 476.526,1195.09 497.152,1213.41 C 513.909,1228.28 540.759,1231.97 561.0,1241.0 L 558.0,1266.0 C 565.749,1262.38 576.867,1257.89 582.0,1251.0 L 561.0,1241.0" style="stroke:#010101; fill:none;"/>
	<path d="M 301.0,1145.0 C 297.676,1155.94 300.708,1166.87 300.427,1177.98 C 300.315,1182.42 294.955,1182.33 294.846,1186.15 C 294.665,1192.49 300.339,1200.38 302.83,1206.0 C 308.903,1219.7 314.001,1233.49 320.753,1247.0 C 333.568,1272.63 346.301,1297.86 366.09,1319.0 C 384.383,1338.54 408.244,1352.75 431.0,1366.4 C 460.744,1384.25 490.658,1401.17 522.0,1416.0" style="stroke:#010101; fill:none;"/>
	<path d="M 398.0,1159.0 L 374.0,1199.0" style="stroke:#010101; fill:none;"/>
	<path d="M 443.0,1160.0 C 439.388,1164.8 438.504,1177.48 441.0,1183.0 L 451.0,1175.0" style="stroke:#010101; fill:none;"/>
	<path d="M 342.0,1165.0 C 342.034,1177.2 346.388,1181.79 353.03,1191.17 C 356.022,1195.4 356.712,1200.2 361.019,1203.58 C 364.25,1206.11 368.557,1206.28 371.741,1208.73 C 379.347,1214.59 386.571,1222.73 394.0,1229.15 C 418.124,1250.02 439.644,1273.81 465.0,1293.58 C 491.211,1314.01 521.01,1329.42 551.0,1343.31 C 564.142,1349.39 576.681,1356.18 590.0,1362.0 C 593.957,1363.73 599.52,1368.63 604.0,1368.01 C 608.825,1367.34 613.756,1361.42 618.0,1359.0 C 620.747,1365.17 622.956,1374.29 626.873,1379.57 C 633.231,1388.13 646.29,1383.44 653.0,1379.0" style="stroke:#010101; fill:none;"/>
	<path d="M 360.0,1175.0 L 356.0,1186.0" style="stroke:#010101; fill:none;"/>
	<path d="M 438.0,1182.0 L 440.0,1183.0" style="stroke:#010101; fill:none;"/>
	<path d="M 301.0,1183.0 L 303.0,1204.0" style="stroke:#010101; fill:none;"/>
	<path d="M 439.0,1184.0 L 433.0,1192.0" style="stroke:#010101; fill:none;"/>
	<path d="M 429.0,1198.0 L 421.0,1208.0" style="stroke:#010101; fill:none;"/>
	<path d="M 419.0,1213.0 C 416.115,1220.03 410.053,1230.15 411.637,1238.0 C 413.963,1249.52 438.434,1263.95 449.0,1267.0" style="stroke:#010101; fill:none;"/>
	<path d="M 496.0,1213.0 L 489.0,1229.0 L 502.0,1219.0" style="stroke:#010101; fill:none;"/>
	<path d="M 621.0,1213.0 L 753.0,1339.0" style="stroke:#010101; fill:none;"/>
	<path d="M 1138.0,1218.0 C 1138.43,1228.05 1140.64,1238.27 1137.0,1248.0" style="stroke:#010101; fill:none;"/>
	<path d="M 1166.0,1541.0 C 1165.62,1550.33 1163.91,1558.98 1167.46,1568.0 C 1175.59,1588.6 1210.45,1609.85 1233.0,1607.35 C 1239.01,1606.68 1243.59,1601.66 1249.0,1599.36 C 1264.4,1592.8 1279.67,1586.1 1295.0,1579.42 C 1313.79,1571.25 1335.85,1565.11 1353.0,1553.9 C 1366.51,1545.07 1377.13,1532.91 1389.0,1522.17 C 1405.22,1507.5 1423.02,1494.24 1440.0,1480.46 C 1460.12,1464.14 1487.84,1450.41 1502.96,1429.0 C 1515.69,1410.98 1521.72,1385.6 1529.32,1365.0 C 1541.95,1330.74 1559.55,1284.7 1529.91,1255.09 C 1524.21,1249.4 1515.71,1244.42 1508.0,1242.14 C 1504.04,1240.97 1495.39,1240.39 1493.03,1236.69 C 1488.39,1229.4 1501.05,1228.74 1505.0,1228.0" style="stroke:#010101; fill:none;"/>
	<path d="M 1433.0,1232.0 L 1435.0,1230.0 L 1438.0,1237.0 C 1409.14,1245.77 1376.05,1240.62 1349.0,1256.0" style="stroke:#010101; fill:none;"/>
	<path d="M 1437.0,1229.0 L 1436.0,1230.0" style="stroke:#010101; fill:none;"/>
	<path d="M 488.0,1230.0 C 480.088,1241.57 472.169,1251.9 464.981,1264.0 C 462.345,1268.44 460.185,1270.27 455.0,1270.0" style="stroke:#010101; fill:none;"/>
	<path d="M 403.0,1233.0 L 411.0,1232.0" style="stroke:#010101; fill:none;"/>
	<path d="M 1438.0,1237.0 L 1491.0,1238.0" style="stroke:#010101; fill:none;"/>
	<path d="M 582.0,1252.0 L 626.0,1282.66 L 657.0,1302.68 L 691.0,1319.78 L 735.0,1358.0 C 731.482,1362.3 729.432,1366.37 730.0,1372.0 C 735.525,1369.19 739.534,1363.73 736.0,1358.0" style="stroke:#010101; fill:none;"/>
	<path d="M 1108.0,1255.0 L 1081.0,1333.0" style="stroke:#010101; fill:none;"/>
	<path d="M 558.0,1266.0 L 552.0,1272.0" style="stroke:#010101; fill:none;"/>
	<path d="M 603.0,1268.0 L 602.0,1272.0 L 605.0,1269.0" style="stroke:#010101; fill:none;"/>
	<path d="M 1332.0,1437.0 C 1332.0,1411.38 1346.96,1389.5 1347.0,1364.0 C 1347.01,1356.39 1340.85,1339.55 1346.12,1334.67 C 1377.27,1305.8 1424.11,1286.67 1464.0,1273.67 C 1478.94,1268.8 1501.34,1262.99 1514.91,1274.39 C 1525.81,1283.55 1523.67,1296.26 1525.75,1309.0 C 1527.08,1317.13 1528.51,1325.86 1527.0,1334.0" style="stroke:#010101; fill:none;"/>
	<path d="M 461.0,1271.0 C 474.725,1284.84 486.708,1292.63 505.0,1299.53 C 518.847,1304.76 526.718,1308.49 537.0,1295.0" style="stroke:#010101; fill:none;"/>
	<path d="M 602.0,1272.0 L 599.0,1302.0 L 628.0,1284.0" style="stroke:#010101; fill:none;"/>
	<path d="M 1299.0,1285.0 L 1315.0,1273.0" style="stroke:#010101; fill:none;"/>
	<path d="M 1249.0,1324.0 C 1259.15,1306.79 1273.15,1290.5 1291.0,1281.0" style="stroke:#010101; fill:none;"/>
	<path d="M 597.0,1302.0 L 600.0,1302.0" style="stroke:#010101; fill:none;"/>
	<path d="M 655.0,1302.0 L 646.0,1331.0 C 659.84,1327.01 671.264,1316.59 686.0,1324.0" style="stroke:#010101; fill:none;"/>
	<path d="M 531.0,1306.0 C 527.059,1321.78 553.936,1334.52 567.0,1331.6 C 580.978,1328.49 586.113,1317.74 595.0,1308.0" style="stroke:#010101; fill:none;"/>
	<path d="M 1505.0,1309.0 C 1467.29,1364.45 1448.03,1433.5 1404.56,1485.0 C 1373.09,1522.28 1319.36,1550.16 1270.0,1541.0" style="stroke:#010101; fill:none;"/>
	<path d="M 236.0,1318.0 C 208.818,1354.67 194.664,1399.28 183.116,1443.0 C 177.098,1465.78 170.015,1490.35 169.0,1514.0" style="stroke:#010101; fill:none;"/>
	<path d="M 578.0,1328.0 L 580.0,1347.0" style="stroke:#010101; fill:none;"/>
	<path d="M 686.0,1328.0 L 679.0,1348.0 C 668.368,1352.15 662.356,1365.06 656.0,1374.0" style="stroke:#010101; fill:none;"/>
	<path d="M 642.0,1334.0 L 645.0,1332.0" style="stroke:#010101; fill:none;"/>
	<path d="M 639.0,1334.0 L 625.0,1352.0" style="stroke:#010101; fill:none;"/>
	<path d="M 1355.0,1335.0 C 1350.21,1351.19 1364.27,1365.67 1379.0,1370.0" style="stroke:#010101; fill:none;"/>
	<path d="M 1294.0,1498.0 C 1271.67,1494.99 1229.93,1475.01 1247.97,1447.0 C 1256.62,1433.57 1275.02,1430.76 1283.53,1417.0 C 1288.72,1408.61 1288.66,1398.66 1292.99,1390.0 C 1302.26,1371.45 1323.4,1348.27 1342.0,1339.0" style="stroke:#010101; fill:none;"/>
	<path d="M 680.0,1348.0 C 687.431,1343.77 696.415,1340.58 705.0,1342.0" style="stroke:#010101; fill:none;"/>
	<path d="M 1525.0,1341.0 C 1514.68,1356.31 1508.28,1373.9 1503.0,1391.0 L 1503.0,1387.0" style="stroke:#010101; fill:none;"/>
	<path d="M 714.0,1343.0 L 704.0,1360.0 C 710.89,1360.4 719.712,1356.27 725.0,1352.0" style="stroke:#010101; fill:none;"/>
	<path d="M 676.0,1347.0 L 676.0,1348.0" style="stroke:#010101; fill:none;"/>
	<path d="M 704.0,1360.0 L 694.0,1368.0" style="stroke:#010101; fill:none;"/>
	<path d="M 739.0,1362.0 L 770.0,1383.0" style="stroke:#010101; fill:none;"/>
	<path d="M 605.0,1369.0 L 625.0,1379.0" style="stroke:#010101; fill:none;"/>
	<path d="M 746.0,1369.0 C 751.213,1384.04 766.927,1391.96 782.0,1394.0" style="stroke:#010101; fill:none;"/>
	<path d="M 730.0,1372.0 C 727.845,1377.56 715.145,1385.97 716.033,1391.72 C 716.559,1395.12 724.677,1392.98 727.0,1393.17 C 738.156,1394.1 751.263,1394.51 761.0,1388.0" style="stroke:#010101; fill:none;"/>
	<path d="M 657.0,1377.0 C 655.812,1381.18 656.479,1383.49 659.0,1387.0 C 653.958,1389.94 650.173,1387.75 645.0,1386.0" style="stroke:#010101; fill:none;"/>
	<path d="M 688.0,1381.0 L 690.0,1395.0 L 714.0,1394.0" style="stroke:#010101; fill:none;"/>
	<path d="M 688.0,1395.0 L 677.0,1393.0 L 686.0,1383.0" style="stroke:#010101; fill:none;"/>
	<path d="M 660.0,1389.0 C 663.923,1393.05 670.511,1393.76 676.0,1394.0" style="stroke:#010101; fill:none;"/>
	<path d="M 658.0,1391.0 L 659.0,1391.0" style="stroke:#010101; fill:none;"/>
	<path d="M 1395.0,1391.0 L 1395.0,1411.0 L 1401.0,1410.0" style="stroke:#010101; fill:none;"/>
	<path d="M 1501.0,1391.0 L 1503.0,1392.0" style="stroke:#010101; fill:none;"/>
	<path d="M 1501.0,1392.0 L 1491.0,1406.0 L 1493.0,1402.0" style="stroke:#010101; fill:none;"/>
	<path d="M 992.0,1399.0 L 879.0,1474.95 L 719.0,1573.0" style="stroke:#010101; fill:none;"/>
	<path d="M 1372.0,1409.0 C 1379.7,1404.94 1388.26,1402.07 1397.0,1402.0" style="stroke:#010101; fill:none;"/>
	<path d="M 1486.0,1410.0 L 1489.0,1407.0 L 1474.29,1421.0 L 1418.0,1478.0" style="stroke:#010101; fill:none;"/>
	<path d="M 1471.0,1431.0 L 1501.0,1407.0" style="stroke:#010101; fill:none;"/>
	<path d="M 1355.0,1430.0 L 1394.0,1412.0 C 1394.08,1419.87 1388.62,1438.57 1394.0,1444.0" style="stroke:#010101; fill:none;"/>
	<path d="M 532.0,1419.0 L 585.0,1421.0 L 657.0,1414.0" style="stroke:#010101; fill:none;"/>
	<path d="M 1455.0,1448.0 C 1468.94,1438.09 1484.6,1422.19 1501.0,1417.0" style="stroke:#010101; fill:none;"/>
	<path d="M 1395.0,1419.0 L 1398.0,1419.0" style="stroke:#010101; fill:none;"/>
	<path d="M 1350.0,1438.0 L 1393.0,1421.0" style="stroke:#010101; fill:none;"/>
	<path d="M 1492.0,1430.0 L 1452.0,1460.0" style="stroke:#010101; fill:none;"/>
	<path d="M 1346.0,1450.0 L 1392.0,1431.0" style="stroke:#010101; fill:none;"/>
	<path d="M 1335.0,1465.0 L 1391.0,1439.0" style="stroke:#010101; fill:none;"/>
	<path d="M 1392.0,1443.0 C 1389.33,1447.63 1384.71,1457.25 1388.0,1462.0" style="stroke:#010101; fill:none;"/>
	<path d="M 1295.0,1491.0 C 1309.65,1489.72 1315.45,1480.82 1327.09,1474.25 C 1345.3,1463.98 1369.73,1450.11 1390.0,1445.0" style="stroke:#010101; fill:none;"/>
	<path d="M 1334.0,1452.0 L 1328.0,1473.0" style="stroke:#010101; fill:none;"/>
	<path d="M 1322.0,1485.0 L 1379.0,1459.0" style="stroke:#010101; fill:none;"/>
	<path d="M 1386.0,1461.0 L 1366.0,1470.31 L 1311.0,1494.0" style="stroke:#010101; fill:none;"/>
	<path d="M 1382.0,1466.0 C 1368.73,1485.5 1350.82,1493.11 1328.0,1496.0" style="stroke:#010101; fill:none;"/>
	<path d="M 1318.0,1496.0 L 1369.0,1479.0" style="stroke:#010101; fill:none;"/>
	<path d="M 1182.0,1485.0 L 1172.0,1508.0" style="stroke:#010101; fill:none;"/>
	<path d="M 1153.0,1521.0 C 1141.57,1535.88 1125.32,1548.68 1112.0,1562.0 C 1078.42,1595.58 1041.29,1631.49 999.0,1654.0" style="stroke:#010101; fill:none;"/>
	<path d="M 692.0,1532.0 C 673.602,1545.14 653.124,1555.95 634.0,1568.05 C 609.047,1583.85 583.343,1601.62 556.0,1613.0" style="stroke:#010101; fill:none;"/>
	<path d="M 684.0,1683.0 L 758.0,1630.85 L 856.0,1558.0" style="stroke:#010101; fill:none;"/>
	<path d="M 170.0,1561.0 L 170.0,1579.0" style="stroke:#010101; fill:none;"/>
	<path d="M 1172.0,1578.0 C 1160.62,1590.65 1154.12,1609.26 1145.58,1624.0 C 1126.28,1657.29 1104.77,1693.19 1078.04,1721.0 C 1068.23,1731.2 1055.87,1748.88 1042.0,1753.0" style="stroke:#010101; fill:none;"/>
	<path d="M 535.0,1684.0 C 576.557,1666.61 615.29,1636.5 653.0,1612.14 C 666.692,1603.3 680.718,1590.78 696.0,1585.0" style="stroke:#010101; fill:none;"/>
	<path d="M 168.0,1608.0 C 161.734,1630.08 154.362,1651.72 143.512,1672.0 C 133.042,1691.57 118.611,1713.24 113.288,1735.0 C 101.258,1784.18 111.426,1836.49 93.0,1884.0" style="stroke:#010101; fill:none;"/>
	<path d="M 1125.0,1608.0 C 1067.72,1653.43 1012.5,1698.75 950.0,1737.0" style="stroke:#010101; fill:none;"/>
	<path d="M 195.0,1654.0 C 212.043,1688.46 248.158,1724.18 282.0,1742.0" style="stroke:#010101; fill:none;"/>
	<path d="M 797.0,1734.0 C 849.481,1719.11 899.991,1693.25 947.0,1666.0" style="stroke:#010101; fill:none;"/>
	<path d="M 450.0,1771.0 C 438.163,1766.57 422.226,1768.9 410.0,1770.92 C 375.911,1776.55 334.411,1788.77 306.0,1809.0 C 315.807,1818.84 341.09,1809.93 354.0,1808.13 C 397.677,1802.06 442.092,1800.53 486.0,1800.0 C 546.007,1799.29 604.422,1794.0 664.0,1786.84 C 687.154,1784.07 709.783,1776.85 733.0,1775.22 C 741.031,1774.65 748.945,1776.46 757.0,1775.91 C 791.063,1773.58 824.893,1768.53 859.0,1767.04 C 877.691,1766.22 896.373,1764.94 915.0,1763.17 C 922.36,1762.47 930.929,1763.34 937.985,1760.85 C 947.472,1757.51 958.066,1748.26 967.0,1743.01 C 991.948,1728.36 1016.52,1712.89 1041.0,1697.47 C 1054.6,1688.91 1068.73,1678.28 1084.0,1673.0" style="stroke:#010101; fill:none;"/>
	<path d="M 261.0,1692.0 C 280.693,1706.31 306.607,1710.76 330.0,1715.45 C 382.476,1725.96 433.7,1728.32 487.0,1728.0" style="stroke:#010101; fill:none;"/>
	<path d="M 762.0,1713.0 C 742.787,1720.21 720.896,1722.91 701.0,1728.15 C 667.073,1737.09 633.778,1747.18 599.0,1752.58 C 554.856,1759.42 510.581,1760.0 466.0,1760.0 C 421.465,1760.0 375.396,1761.72 334.0,1743.0" style="stroke:#010101; fill:none;"/>
	<path d="M 209.0,1714.0 C 221.831,1723.89 245.981,1732.6 262.0,1735.0" style="stroke:#010101; fill:none;"/>
	<path d="M 109.0,1735.0 L 113.0,1733.0" style="stroke:#010101; fill:none;"/>
	<path d="M 269.0,1746.0 C 256.355,1744.99 241.619,1742.14 230.0,1737.0 L 234.0,1734.0" style="stroke:#010101; fill:none;"/>
	<path d="M 933.0,1744.0 L 946.0,1739.0" style="stroke:#010101; fill:none;"/>
	<path d="M 242.0,1754.0 L 247.0,1752.0" style="stroke:#010101; fill:none;"/>
	<path d="M 942.0,1760.0 L 966.0,1759.09 L 1014.0,1756.01 L 1036.0,1754.0" style="stroke:#010101; fill:none;"/>
	<path d="M 245.0,1755.0 L 279.0,1758.0" style="stroke:#010101; fill:none;"/>
	<path d="M 252.0,1772.0 L 323.0,1763.0" style="stroke:#010101; fill:none;"/>
	<path d="M 102.0,1770.0 L 106.0,1769.0" style="stroke:#010101; fill:none;"/>
	<path d="M 323.0,1806.0 C 350.271,1801.97 374.763,1783.58 403.0,1783.0" style="stroke:#010101; fill:none;"/>
	<path d="M 309.0,1815.0 L 303.0,1815.0 L 306.0,1809.0" style="stroke:#010101; fill:none;"/>
	<path d="M 106.0,1891.0 C 131.914,1889.82 155.93,1871.43 178.0,1859.78 C 215.435,1840.03 259.12,1819.41 302.0,1816.0" style="stroke:#010101; fill:none;"/>
</svg>
