<?xml version="1.0" ?>
<svg baseProfile="full" height="3378" version="1.1" width="2657" xmlns="http://www.w3.org/2000/svg" xmlns:ev="http://www.w3.org/2001/xml-events" xmlns:xlink="http://www.w3.org/1999/xlink">
	<defs/>
	<path d="M 767.0,461.0 L 766.0,463.0" style="stroke:#010101; fill:none;"/>
	<path d="M 838.0,463.0 L 837.0,464.0" style="stroke:#010101; fill:none;"/>
	<path d="M 1212.0,514.0 C 1231.85,500.658 1257.5,485.052 1282.0,484.0" style="stroke:#010101; fill:none;"/>
	<path d="M 719.0,503.0 L 719.0,504.0" style="stroke:#010101; fill:none;"/>
	<path d="M 1209.0,515.0 L 1205.0,518.0" style="stroke:#010101; fill:none;"/>
	<path d="M 1201.0,520.0 L 1200.0,521.0" style="stroke:#010101; fill:none;"/>
	<path d="M 1168.0,539.0 L 1138.0,576.0" style="stroke:#010101; fill:none;"/>
	<path d="M 654.0,569.0 L 645.0,576.0" style="stroke:#010101; fill:none;"/>
	<path d="M 642.0,577.0 L 641.0,578.0" style="stroke:#010101; fill:none;"/>
	<path d="M 1098.0,614.0 L 1129.0,584.0" style="stroke:#010101; fill:none;"/>
	<path d="M 1007.0,702.0 C 1017.83,691.137 1023.7,677.619 1033.32,666.0 C 1049.85,646.044 1072.61,629.127 1096.0,618.0" style="stroke:#010101; fill:none;"/>
	<path d="M 1293.0,646.0 L 1292.0,647.0" style="stroke:#010101; fill:none;"/>
	<path d="M 1286.0,650.0 L 1289.0,649.0" style="stroke:#010101; fill:none;"/>
	<path d="M 1282.0,651.0 L 1284.0,651.0" style="stroke:#010101; fill:none;"/>
	<path d="M 1687.0,652.0 L 1689.0,654.0" style="stroke:#010101; fill:none;"/>
	<path d="M 1269.0,660.0 L 1263.0,665.0" style="stroke:#010101; fill:none;"/>
	<path d="M 1258.0,671.0 L 1247.0,682.0" style="stroke:#010101; fill:none;"/>
	<path d="M 1723.0,691.0 L 1724.0,692.0" style="stroke:#010101; fill:none;"/>
	<path d="M 1423.0,694.0 L 1422.0,695.0" style="stroke:#010101; fill:none;"/>
	<path d="M 1420.0,696.0 L 1419.0,697.0" style="stroke:#010101; fill:none;"/>
	<path d="M 1235.0,697.0 L 1216.0,719.0" style="stroke:#010101; fill:none;"/>
	<path d="M 1416.0,698.0 L 1379.0,728.0" style="stroke:#010101; fill:none;"/>
	<path d="M 1004.0,706.0 L 1003.0,707.0" style="stroke:#010101; fill:none;"/>
	<path d="M 1215.0,721.0 L 1213.0,723.0" style="stroke:#010101; fill:none;"/>
	<path d="M 1212.0,725.0 L 1212.0,726.0" style="stroke:#010101; fill:none;"/>
	<path d="M 1377.0,729.0 L 1366.0,740.0" style="stroke:#010101; fill:none;"/>
	<path d="M 974.0,733.0 L 943.0,751.0" style="stroke:#010101; fill:none;"/>
	<path d="M 1834.0,736.0 C 1840.4,743.935 1848.96,751.476 1854.4,760.0 C 1856.64,763.517 1856.5,767.586 1859.34,770.911 C 1864.35,776.771 1873.6,780.413 1876.4,788.0 C 1878.38,793.379 1876.61,800.349 1877.17,806.0 C 1878.09,815.169 1885.06,822.189 1878.0,830.0 C 1860.36,803.034 1853.03,764.573 1827.0,745.0" style="stroke:#010101; fill:none;"/>
	<path d="M 1093.0,820.0 L 1167.0,767.346 L 1198.0,741.0" style="stroke:#010101; fill:none;"/>
	<path d="M 1364.0,743.0 L 1361.0,746.0" style="stroke:#010101; fill:none;"/>
	<path d="M 1360.0,749.0 L 1339.0,778.0" style="stroke:#010101; fill:none;"/>
	<path d="M 941.0,752.0 L 936.0,757.0" style="stroke:#010101; fill:none;"/>
	<path d="M 1733.0,752.0 C 1697.4,772.779 1669.69,801.602 1658.0,842.0" style="stroke:#010101; fill:none;"/>
	<path d="M 1784.0,752.0 L 1762.0,780.0" style="stroke:#010101; fill:none;"/>
	<path d="M 1746.0,756.0 L 1716.44,782.0 L 1703.43,810.0 L 1696.0,832.0 C 1706.12,819.564 1713.21,805.548 1720.0,791.0" style="stroke:#010101; fill:none;"/>
	<path d="M 1774.0,759.0 L 1757.0,777.0" style="stroke:#010101; fill:none;"/>
	<path d="M 929.0,761.0 L 925.0,764.0" style="stroke:#010101; fill:none;"/>
	<path d="M 1762.0,764.0 L 1761.0,765.0" style="stroke:#010101; fill:none;"/>
	<path d="M 920.0,766.0 L 919.0,767.0" style="stroke:#010101; fill:none;"/>
	<path d="M 917.0,767.0 L 913.0,769.0" style="stroke:#010101; fill:none;"/>
	<path d="M 1760.0,767.0 C 1755.77,772.328 1745.9,783.39 1748.0,789.0 L 1748.0,789.0" style="stroke:#010101; fill:none;"/>
	<path d="M 1752.0,772.0 L 1738.0,788.0" style="stroke:#010101; fill:none;"/>
	<path d="M 1707.0,775.0 C 1705.5,802.662 1682.63,829.332 1672.0,854.0" style="stroke:#010101; fill:none;"/>
	<path d="M 1778.0,776.0 L 1742.0,815.0" style="stroke:#010101; fill:none;"/>
	<path d="M 1677.0,792.0 L 1697.0,778.0" style="stroke:#010101; fill:none;"/>
	<path d="M 1784.0,781.0 L 1778.0,788.0" style="stroke:#010101; fill:none;"/>
	<path d="M 1749.0,783.0 L 1747.0,785.0" style="stroke:#010101; fill:none;"/>
	<path d="M 1753.0,783.0 L 1750.0,784.0" style="stroke:#010101; fill:none;"/>
	<path d="M 1333.0,784.0 L 1304.0,808.0" style="stroke:#010101; fill:none;"/>
	<path d="M 1711.0,786.0 L 1714.0,784.0" style="stroke:#010101; fill:none;"/>
	<path d="M 1724.0,785.0 L 1723.0,786.0" style="stroke:#010101; fill:none;"/>
	<path d="M 1680.0,807.0 L 1703.0,786.0" style="stroke:#010101; fill:none;"/>
	<path d="M 1722.0,788.0 L 1721.0,789.0" style="stroke:#010101; fill:none;"/>
	<path d="M 1666.0,789.0 C 1648.95,807.739 1638.73,826.97 1627.0,849.0" style="stroke:#010101; fill:none;"/>
	<path d="M 1730.0,789.0 L 1728.0,792.0" style="stroke:#010101; fill:none;"/>
	<path d="M 1745.0,789.0 L 1700.0,847.0" style="stroke:#010101; fill:none;"/>
	<path d="M 1737.0,790.0 L 1735.0,792.0" style="stroke:#010101; fill:none;"/>
	<path d="M 1754.0,790.0 L 1721.0,827.0" style="stroke:#010101; fill:none;"/>
	<path d="M 1727.0,795.0 L 1714.0,820.0" style="stroke:#010101; fill:none;"/>
	<path d="M 1772.0,795.0 L 1764.0,803.0" style="stroke:#010101; fill:none;"/>
	<path d="M 1733.0,796.0 L 1726.0,806.0" style="stroke:#010101; fill:none;"/>
	<path d="M 1652.0,800.0 C 1640.05,811.957 1632.19,824.834 1625.0,840.0" style="stroke:#010101; fill:none;"/>
	<path d="M 1687.0,807.0 C 1684.39,824.643 1673.72,844.269 1664.0,859.0" style="stroke:#010101; fill:none;"/>
	<path d="M 1580.0,810.0 C 1560.6,824.96 1546.74,842.187 1534.0,863.0" style="stroke:#010101; fill:none;"/>
	<path d="M 1664.0,811.0 C 1651.32,832.717 1642.76,858.154 1635.0,882.0" style="stroke:#010101; fill:none;"/>
	<path d="M 1558.0,814.0 C 1541.76,832.588 1525.38,861.38 1525.02,887.0 C 1524.6,916.326 1538.18,946.231 1546.0,974.0" style="stroke:#010101; fill:none;"/>
	<path d="M 1632.0,816.0 L 1615.0,844.0" style="stroke:#010101; fill:none;"/>
	<path d="M 1675.0,817.0 C 1671.82,838.525 1654.38,862.617 1642.0,880.0" style="stroke:#010101; fill:none;"/>
	<path d="M 1739.0,819.0 L 1735.0,823.0" style="stroke:#010101; fill:none;"/>
	<path d="M 1296.0,820.0 L 1276.0,858.0" style="stroke:#010101; fill:none;"/>
	<path d="M 1619.0,820.0 L 1612.0,836.0" style="stroke:#010101; fill:none;"/>
	<path d="M 1091.0,821.0 L 1085.0,827.0" style="stroke:#010101; fill:none;"/>
	<path d="M 1714.0,822.0 L 1713.0,823.0" style="stroke:#010101; fill:none;"/>
	<path d="M 1647.0,824.0 C 1634.88,844.771 1622.53,874.125 1619.0,898.0" style="stroke:#010101; fill:none;"/>
	<path d="M 1884.0,827.0 C 1885.51,842.008 1893.4,853.755 1900.54,867.0 C 1919.24,901.705 1943.95,928.739 1971.0,957.0" style="stroke:#010101; fill:none;"/>
	<path d="M 1595.0,830.0 L 1592.0,852.0" style="stroke:#010101; fill:none;"/>
	<path d="M 1535.0,831.0 C 1522.35,848.764 1520.0,875.798 1520.0,897.0" style="stroke:#010101; fill:none;"/>
	<path d="M 1878.0,831.0 L 1882.0,834.0" style="stroke:#010101; fill:none;"/>
	<path d="M 1694.0,832.0 L 1696.0,833.0" style="stroke:#010101; fill:none;"/>
	<path d="M 1571.0,834.0 C 1540.85,872.114 1539.36,934.636 1556.0,979.0" style="stroke:#010101; fill:none;"/>
	<path d="M 1695.0,834.0 C 1681.54,851.635 1666.07,874.109 1661.0,896.0" style="stroke:#010101; fill:none;"/>
	<path d="M 1070.0,838.0 L 1069.0,839.0" style="stroke:#010101; fill:none;"/>
	<path d="M 1619.0,840.0 L 1619.0,841.0" style="stroke:#010101; fill:none;"/>
	<path d="M 1556.0,841.0 C 1537.87,860.75 1533.42,892.584 1541.0,918.0" style="stroke:#010101; fill:none;"/>
	<path d="M 1624.0,842.0 L 1622.0,847.0" style="stroke:#010101; fill:none;"/>
	<path d="M 1523.0,843.0 C 1510.44,869.865 1514.79,901.218 1520.79,929.0 C 1523.92,943.491 1527.62,959.026 1535.0,972.0" style="stroke:#010101; fill:none;"/>
	<path d="M 1061.0,844.0 L 1059.0,846.0" style="stroke:#010101; fill:none;"/>
	<path d="M 1620.0,844.0 C 1620.0,869.745 1614.49,892.446 1604.0,916.0" style="stroke:#010101; fill:none;"/>
	<path d="M 1657.0,844.0 L 1657.0,846.0" style="stroke:#010101; fill:none;"/>
	<path d="M 1603.0,845.0 C 1603.0,872.414 1604.44,901.183 1593.0,927.0" style="stroke:#010101; fill:none;"/>
	<path d="M 1052.0,850.0 L 1051.0,851.0" style="stroke:#010101; fill:none;"/>
	<path d="M 1583.0,850.0 C 1572.77,871.984 1575.79,897.533 1573.91,921.0 C 1573.08,931.242 1567.89,940.826 1567.0,951.0 C 1584.18,942.964 1587.03,908.342 1584.0,892.0" style="stroke:#010101; fill:none;"/>
	<path d="M 1695.0,855.0 L 1694.0,856.0" style="stroke:#010101; fill:none;"/>
	<path d="M 1566.0,860.0 C 1557.95,885.189 1557.0,911.797 1557.0,938.0 C 1557.0,949.089 1555.59,961.563 1560.0,972.0" style="stroke:#010101; fill:none;"/>
	<path d="M 1663.0,861.0 L 1662.0,862.0" style="stroke:#010101; fill:none;"/>
	<path d="M 1533.0,865.0 L 1533.0,866.0" style="stroke:#010101; fill:none;"/>
	<path d="M 1661.0,865.0 L 1659.0,867.0" style="stroke:#010101; fill:none;"/>
	<path d="M 1584.0,866.0 L 1584.0,884.0" style="stroke:#010101; fill:none;"/>
	<path d="M 1688.0,866.0 L 1687.0,867.0" style="stroke:#010101; fill:none;"/>
	<path d="M 1020.0,868.0 C 989.039,898.961 949.642,919.288 912.0,941.548 C 895.827,951.112 878.561,957.552 865.0,971.0" style="stroke:#010101; fill:none;"/>
	<path d="M 1509.0,870.0 L 1509.0,871.0" style="stroke:#010101; fill:none;"/>
	<path d="M 1508.0,873.0 L 1508.0,874.0" style="stroke:#010101; fill:none;"/>
	<path d="M 1589.0,878.0 L 1590.0,921.0" style="stroke:#010101; fill:none;"/>
	<path d="M 1507.0,879.0 L 1507.0,883.0" style="stroke:#010101; fill:none;"/>
	<path d="M 1529.0,881.0 L 1529.0,887.0" style="stroke:#010101; fill:none;"/>
	<path d="M 1634.0,884.0 L 1633.0,889.0" style="stroke:#010101; fill:none;"/>
	<path d="M 1494.0,885.0 L 1494.0,897.0" style="stroke:#010101; fill:none;"/>
	<path d="M 1507.0,885.0 L 1507.0,886.0" style="stroke:#010101; fill:none;"/>
	<path d="M 1221.0,888.0 L 1249.0,914.0" style="stroke:#010101; fill:none;"/>
	<path d="M 1506.0,890.0 C 1506.02,917.633 1510.74,949.361 1528.0,972.0" style="stroke:#010101; fill:none;"/>
	<path d="M 1810.0,901.0 L 1810.0,910.0" style="stroke:#010101; fill:none;"/>
	<path d="M 1495.0,904.0 L 1500.26,933.0 L 1506.0,951.0 L 1512.0,960.0 L 1507.0,953.0" style="stroke:#010101; fill:none;"/>
	<path d="M 1515.0,907.0 L 1516.0,913.0" style="stroke:#010101; fill:none;"/>
	<path d="M 1774.0,907.0 C 1773.38,912.035 1760.51,912.002 1756.0,913.13 C 1737.15,917.842 1720.25,926.409 1703.0,935.074 C 1676.81,948.231 1649.4,963.066 1625.0,979.333 C 1614.99,986.01 1602.69,993.072 1595.56,1003.0 C 1585.96,1016.38 1589.65,1036.46 1582.0,1051.0 C 1579.24,1046.22 1580.92,1030.73 1575.0,1030.0 L 1574.0,1031.0 L 1574.0,1032.0 L 1573.0,1033.0" style="stroke:#010101; fill:none;"/>
	<path d="M 1776.0,911.0 C 1781.64,908.735 1787.99,910.0 1794.0,910.0 C 1818.27,910.001 1830.71,915.025 1849.0,931.0" style="stroke:#010101; fill:none;"/>
	<path d="M 1504.0,910.0 L 1507.0,920.0" style="stroke:#010101; fill:none;"/>
	<path d="M 1854.0,910.0 L 1848.0,920.0" style="stroke:#010101; fill:none;"/>
	<path d="M 1776.0,911.0 L 1770.0,941.0 L 1764.0,956.0 C 1785.23,947.765 1799.65,933.592 1805.0,911.0" style="stroke:#010101; fill:none;"/>
	<path d="M 1809.0,911.0 C 1807.81,919.064 1803.44,929.931 1796.0,934.0" style="stroke:#010101; fill:none;"/>
	<path d="M 1894.0,911.0 C 1893.37,923.494 1891.01,931.06 1883.0,941.0 C 1882.42,938.448 1882.49,938.141 1885.0,939.0" style="stroke:#010101; fill:none;"/>
	<path d="M 1516.0,913.0 L 1516.0,919.0" style="stroke:#010101; fill:none;"/>
	<path d="M 1893.0,919.0 L 1893.0,920.0" style="stroke:#010101; fill:none;"/>
	<path d="M 1848.0,922.0 L 1831.0,937.0" style="stroke:#010101; fill:none;"/>
	<path d="M 1824.0,925.0 L 1777.0,956.0" style="stroke:#010101; fill:none;"/>
	<path d="M 1860.0,926.0 C 1850.79,935.211 1840.51,949.773 1828.0,954.437 C 1822.25,956.581 1815.97,954.999 1810.0,956.0" style="stroke:#010101; fill:none;"/>
	<path d="M 1488.0,927.0 C 1495.28,946.291 1500.7,968.335 1515.0,984.0" style="stroke:#010101; fill:none;"/>
	<path d="M 1260.0,930.0 L 1260.0,931.0" style="stroke:#010101; fill:none;"/>
	<path d="M 1261.0,933.0 C 1279.57,957.071 1301.29,976.182 1325.0,995.0" style="stroke:#010101; fill:none;"/>
	<path d="M 1769.0,938.0 L 1771.0,935.0" style="stroke:#010101; fill:none;"/>
	<path d="M 1503.0,936.0 L 1502.0,937.0" style="stroke:#010101; fill:none;"/>
	<path d="M 1864.0,936.0 L 1856.0,941.0 L 1858.0,941.0" style="stroke:#010101; fill:none;"/>
	<path d="M 1769.0,938.0 L 1743.7,966.272 L 1731.0,975.0 C 1749.13,973.518 1770.55,960.939 1789.0,965.314 C 1797.08,967.229 1804.67,974.264 1812.0,978.0" style="stroke:#010101; fill:none;"/>
	<path d="M 1787.0,960.0 L 1805.0,953.69 L 1830.0,938.0" style="stroke:#010101; fill:none;"/>
	<path d="M 1858.0,938.0 L 1857.0,939.0" style="stroke:#010101; fill:none;"/>
	<path d="M 1502.0,939.0 L 1503.0,941.0" style="stroke:#010101; fill:none;"/>
	<path d="M 1831.0,940.0 L 1823.0,949.0" style="stroke:#010101; fill:none;"/>
	<path d="M 1740.0,941.0 C 1745.64,950.21 1739.64,957.299 1733.0,964.0 L 1739.0,943.0" style="stroke:#010101; fill:none;"/>
	<path d="M 1882.0,941.0 C 1871.21,951.792 1857.49,958.99 1842.0,959.0" style="stroke:#010101; fill:none;"/>
	<path d="M 1503.0,942.0 L 1504.0,943.0" style="stroke:#010101; fill:none;"/>
	<path d="M 1174.0,943.0 L 1145.0,968.0" style="stroke:#010101; fill:none;"/>
	<path d="M 1790.0,943.0 L 1784.0,950.0" style="stroke:#010101; fill:none;"/>
	<path d="M 1836.0,956.0 L 1855.0,943.0" style="stroke:#010101; fill:none;"/>
	<path d="M 1504.0,945.0 L 1505.0,947.0" style="stroke:#010101; fill:none;"/>
	<path d="M 1505.0,948.0 L 1506.0,949.0" style="stroke:#010101; fill:none;"/>
	<path d="M 1726.0,949.0 C 1725.0,960.454 1716.64,975.994 1706.0,981.0" style="stroke:#010101; fill:none;"/>
	<path d="M 1508.0,950.0 L 1508.0,951.0" style="stroke:#010101; fill:none;"/>
	<path d="M 1822.0,951.0 L 1820.0,955.0" style="stroke:#010101; fill:none;"/>
	<path d="M 1872.0,952.0 L 1867.0,953.0" style="stroke:#010101; fill:none;"/>
	<path d="M 1868.0,955.0 L 1862.0,958.0" style="stroke:#010101; fill:none;"/>
	<path d="M 1707.0,956.0 L 1698.0,989.0 C 1702.45,988.234 1707.55,984.505 1712.0,984.95 C 1717.15,985.465 1723.98,991.18 1728.0,994.239 C 1744.44,1006.76 1755.37,1029.13 1753.91,1050.0 C 1753.19,1060.37 1745.06,1067.29 1744.0,1077.0 C 1751.66,1073.19 1757.4,1066.95 1764.0,1061.67 C 1784.54,1045.24 1806.8,1022.74 1814.86,997.0 C 1817.03,990.065 1827.05,978.112 1821.97,970.418 C 1817.0,962.874 1800.59,965.0 1793.0,965.0" style="stroke:#010101; fill:none;"/>
	<path d="M 1763.0,956.0 L 1752.0,968.0" style="stroke:#010101; fill:none;"/>
	<path d="M 1825.0,964.0 L 1834.0,959.0" style="stroke:#010101; fill:none;"/>
	<path d="M 1720.0,959.0 L 1721.0,966.0" style="stroke:#010101; fill:none;"/>
	<path d="M 1834.0,959.0 L 1831.0,960.0" style="stroke:#010101; fill:none;"/>
	<path d="M 1483.0,961.0 C 1491.26,979.514 1503.75,993.754 1518.0,1008.0" style="stroke:#010101; fill:none;"/>
	<path d="M 1511.0,961.0 L 1521.0,979.0" style="stroke:#010101; fill:none;"/>
	<path d="M 1495.0,962.0 L 1496.0,963.0" style="stroke:#010101; fill:none;"/>
	<path d="M 1732.0,964.0 L 1723.0,977.0 L 1730.0,976.0" style="stroke:#010101; fill:none;"/>
	<path d="M 1497.0,965.0 L 1512.0,984.0" style="stroke:#010101; fill:none;"/>
	<path d="M 1718.0,965.0 L 1720.0,968.0" style="stroke:#010101; fill:none;"/>
	<path d="M 1717.0,967.0 L 1717.0,969.0" style="stroke:#010101; fill:none;"/>
	<path d="M 1867.0,967.0 L 1879.0,968.0" style="stroke:#010101; fill:none;"/>
	<path d="M 1718.0,970.0 L 1717.0,975.0" style="stroke:#010101; fill:none;"/>
	<path d="M 861.0,973.0 L 860.0,974.0" style="stroke:#010101; fill:none;"/>
	<path d="M 1359.0,973.0 L 1376.0,987.0" style="stroke:#010101; fill:none;"/>
	<path d="M 858.0,975.0 L 857.0,976.0" style="stroke:#010101; fill:none;"/>
	<path d="M 1076.0,998.0 L 1126.0,976.0" style="stroke:#010101; fill:none;"/>
	<path d="M 1678.0,977.0 C 1680.09,984.235 1681.77,992.171 1677.22,998.895 C 1671.92,1006.72 1663.5,1007.18 1661.0,998.0" style="stroke:#010101; fill:none;"/>
	<path d="M 1723.0,977.0 L 1714.0,984.0" style="stroke:#010101; fill:none;"/>
	<path d="M 1548.0,978.0 L 1550.0,1004.0" style="stroke:#010101; fill:none;"/>
	<path d="M 1676.0,979.0 L 1679.0,983.0" style="stroke:#010101; fill:none;"/>
	<path d="M 1812.0,981.0 L 1815.0,990.0" style="stroke:#010101; fill:none;"/>
	<path d="M 1523.0,983.0 L 1524.0,984.0" style="stroke:#010101; fill:none;"/>
	<path d="M 1516.0,984.0 L 1517.0,987.0 L 1514.0,986.0" style="stroke:#010101; fill:none;"/>
	<path d="M 1535.0,985.0 C 1535.03,996.86 1535.99,1008.09 1534.83,1020.0 C 1532.42,1044.81 1525.24,1075.77 1534.47,1100.0 C 1538.29,1110.03 1545.61,1117.77 1552.19,1126.0 C 1560.05,1135.82 1566.71,1146.3 1576.0,1154.91 C 1588.17,1166.19 1602.64,1174.99 1615.0,1186.17 C 1630.75,1200.41 1647.15,1214.82 1661.99,1230.0 C 1668.38,1236.55 1673.3,1244.51 1680.04,1250.71 C 1696.18,1265.57 1715.57,1278.61 1734.0,1290.46 C 1764.98,1310.38 1801.62,1322.26 1835.0,1337.69 C 1869.88,1353.82 1905.64,1368.49 1941.0,1383.58 C 1969.71,1395.83 1996.61,1406.27 2016.0,1432.0" style="stroke:#010101; fill:none;"/>
	<path d="M 1678.0,986.0 L 1680.0,993.0" style="stroke:#010101; fill:none;"/>
	<path d="M 1517.0,987.0 L 1531.0,998.0" style="stroke:#010101; fill:none;"/>
	<path d="M 1679.0,998.0 L 1697.0,990.0" style="stroke:#010101; fill:none;"/>
	<path d="M 1524.0,991.0 L 1526.0,991.0" style="stroke:#010101; fill:none;"/>
	<path d="M 1678.0,991.0 L 1678.0,997.0" style="stroke:#010101; fill:none;"/>
	<path d="M 1664.0,992.0 L 1665.0,1005.0" style="stroke:#010101; fill:none;"/>
	<path d="M 1835.0,992.0 L 1840.0,993.0" style="stroke:#010101; fill:none;"/>
	<path d="M 1492.0,994.0 L 1493.0,995.0" style="stroke:#010101; fill:none;"/>
	<path d="M 1661.0,995.0 L 1661.0,996.0" style="stroke:#010101; fill:none;"/>
	<path d="M 1327.0,996.0 L 1331.0,1000.0" style="stroke:#010101; fill:none;"/>
	<path d="M 1675.0,996.0 L 1676.0,998.0 L 1673.0,1001.0" style="stroke:#010101; fill:none;"/>
	<path d="M 1494.0,998.0 L 1495.0,999.0" style="stroke:#010101; fill:none;"/>
	<path d="M 1834.0,998.0 L 1838.0,998.0" style="stroke:#010101; fill:none;"/>
	<path d="M 1872.0,998.0 C 1881.68,1015.0 1884.0,1033.85 1884.0,1053.0" style="stroke:#010101; fill:none;"/>
	<path d="M 1074.0,999.0 L 1071.0,1001.0" style="stroke:#010101; fill:none;"/>
	<path d="M 1496.0,1001.0 L 1497.0,1002.0" style="stroke:#010101; fill:none;"/>
	<path d="M 1499.0,1005.0 L 1500.0,1006.0" style="stroke:#010101; fill:none;"/>
	<path d="M 817.0,1006.0 C 794.38,1028.62 771.122,1050.7 754.0,1078.0" style="stroke:#010101; fill:none;"/>
	<path d="M 1829.0,1006.0 L 1837.0,1008.0" style="stroke:#010101; fill:none;"/>
	<path d="M 1664.0,1007.0 L 1656.0,1020.0" style="stroke:#010101; fill:none;"/>
	<path d="M 1640.0,1008.0 L 1648.0,1025.0 L 1657.0,1014.0" style="stroke:#010101; fill:none;"/>
	<path d="M 1652.0,1011.0 L 1653.0,1016.0" style="stroke:#010101; fill:none;"/>
	<path d="M 1640.0,1012.0 L 1641.0,1013.0" style="stroke:#010101; fill:none;"/>
	<path d="M 1577.0,1029.0 C 1579.56,1022.91 1583.93,1015.89 1590.0,1013.0" style="stroke:#010101; fill:none;"/>
	<path d="M 1586.0,1016.0 L 1590.0,1020.0" style="stroke:#010101; fill:none;"/>
	<path d="M 1644.0,1019.0 L 1646.0,1025.0" style="stroke:#010101; fill:none;"/>
	<path d="M 1031.0,1020.0 L 1030.0,1021.0" style="stroke:#010101; fill:none;"/>
	<path d="M 1027.0,1022.0 L 1026.0,1023.0" style="stroke:#010101; fill:none;"/>
	<path d="M 1581.0,1022.0 L 1585.0,1036.0" style="stroke:#010101; fill:none;"/>
	<path d="M 1024.0,1024.0 L 1023.0,1025.0" style="stroke:#010101; fill:none;"/>
	<path d="M 1362.0,1025.0 L 1363.0,1026.0" style="stroke:#010101; fill:none;"/>
	<path d="M 1645.0,1026.0 L 1638.0,1038.0 L 1631.0,1028.0 L 1635.0,1032.0" style="stroke:#010101; fill:none;"/>
	<path d="M 1365.0,1027.0 C 1396.42,1057.06 1438.18,1073.43 1469.0,1104.0" style="stroke:#010101; fill:none;"/>
	<path d="M 1016.0,1029.0 L 1014.0,1031.0" style="stroke:#010101; fill:none;"/>
	<path d="M 1810.0,1035.0 L 1825.0,1050.0" style="stroke:#010101; fill:none;"/>
	<path d="M 1638.0,1039.0 L 1632.0,1056.0 L 1621.0,1048.0" style="stroke:#010101; fill:none;"/>
	<path d="M 1571.0,1042.0 C 1571.79,1051.88 1573.78,1065.52 1579.0,1074.0 L 1582.0,1051.0" style="stroke:#010101; fill:none;"/>
	<path d="M 1800.0,1046.0 L 1800.0,1042.0 L 1815.0,1051.0" style="stroke:#010101; fill:none;"/>
	<path d="M 1675.0,1043.82 C 1682.72,1041.03 1696.74,1045.07 1696.6,1055.0 C 1696.52,1060.07 1692.2,1063.48 1690.69,1068.0 C 1688.04,1075.88 1691.32,1080.48 1681.0,1083.89 C 1669.46,1087.71 1658.07,1073.68 1658.09,1063.0 C 1658.1,1054.57 1667.58,1046.5 1675.0,1043.82" style="stroke:#010101; fill:none;"/>
	<path d="M 1798.0,1066.0 C 1793.46,1056.66 1790.68,1048.72 1804.0,1052.0" style="stroke:#010101; fill:none;"/>
	<path d="M 980.0,1051.0 L 944.0,1073.04 L 899.0,1107.0" style="stroke:#010101; fill:none;"/>
	<path d="M 1567.0,1052.0 C 1573.77,1084.79 1580.56,1116.44 1582.0,1150.0" style="stroke:#010101; fill:none;"/>
	<path d="M 1632.0,1056.0 L 1627.0,1077.0 L 1611.0,1077.0" style="stroke:#010101; fill:none;"/>
	<path d="M 1618.0,1063.0 L 1629.0,1068.0" style="stroke:#010101; fill:none;"/>
	<path d="M 1793.0,1087.0 L 1782.0,1067.0 C 1787.98,1065.72 1793.2,1068.58 1798.0,1072.0" style="stroke:#010101; fill:none;"/>
	<path d="M 1885.0,1068.0 C 1878.86,1081.85 1878.5,1093.82 1866.0,1104.0" style="stroke:#010101; fill:none;"/>
	<path d="M 1563.0,1071.0 C 1564.94,1085.41 1569.31,1105.62 1577.0,1118.0" style="stroke:#010101; fill:none;"/>
	<path d="M 1776.0,1071.0 L 1778.0,1075.0 L 1769.0,1074.0 L 1769.0,1075.0 L 1769.0,1076.0 L 1769.0,1077.0" style="stroke:#010101; fill:none;"/>
	<path d="M 1579.0,1074.0 L 1578.0,1094.0" style="stroke:#010101; fill:none;"/>
	<path d="M 1779.0,1074.0 L 1784.0,1075.0 L 1785.0,1074.0" style="stroke:#010101; fill:none;"/>
	<path d="M 1784.0,1076.0 L 1786.0,1078.0" style="stroke:#010101; fill:none;"/>
	<path d="M 1627.0,1077.0 C 1623.82,1102.06 1642.57,1131.93 1672.0,1125.32 C 1680.19,1123.48 1690.95,1115.65 1698.0,1111.0 C 1713.8,1100.58 1731.49,1091.32 1744.0,1077.0" style="stroke:#010101; fill:none;"/>
	<path d="M 753.0,1080.0 L 752.0,1081.0" style="stroke:#010101; fill:none;"/>
	<path d="M 1613.0,1082.0 L 1622.0,1081.0" style="stroke:#010101; fill:none;"/>
	<path d="M 751.0,1083.0 L 748.0,1089.0" style="stroke:#010101; fill:none;"/>
	<path d="M 1763.0,1083.0 L 1767.0,1088.0" style="stroke:#010101; fill:none;"/>
	<path d="M 1562.0,1088.0 L 1573.0,1124.0" style="stroke:#010101; fill:none;"/>
	<path d="M 1758.0,1089.0 L 1764.0,1102.0" style="stroke:#010101; fill:none;"/>
	<path d="M 1625.0,1092.0 C 1617.39,1103.53 1624.92,1128.28 1637.0,1134.72 C 1643.61,1138.25 1650.15,1136.41 1657.0,1135.0" style="stroke:#010101; fill:none;"/>
	<path d="M 1754.0,1095.0 C 1754.8,1105.16 1755.97,1115.52 1762.0,1124.0" style="stroke:#010101; fill:none;"/>
	<path d="M 1295.0,1099.0 C 1304.65,1108.65 1317.49,1120.95 1320.0,1135.0" style="stroke:#010101; fill:none;"/>
	<path d="M 1747.0,1100.0 L 1752.0,1114.0" style="stroke:#010101; fill:none;"/>
	<path d="M 1743.0,1101.0 L 1748.0,1113.0" style="stroke:#010101; fill:none;"/>
	<path d="M 1323.0,1107.0 L 1338.0,1129.0" style="stroke:#010101; fill:none;"/>
	<path d="M 1565.0,1107.0 L 1577.0,1147.0" style="stroke:#010101; fill:none;"/>
	<path d="M 1730.0,1123.0 C 1729.57,1119.34 1726.39,1109.6 1731.0,1109.0" style="stroke:#010101; fill:none;"/>
	<path d="M 1860.0,1108.0 L 1822.0,1138.15 L 1794.0,1157.0" style="stroke:#010101; fill:none;"/>
	<path d="M 1620.0,1109.0 C 1616.98,1120.66 1616.78,1130.38 1619.39,1142.0 C 1620.22,1145.72 1620.35,1151.46 1623.51,1154.07 C 1627.25,1157.14 1633.46,1156.99 1638.0,1157.0" style="stroke:#010101; fill:none;"/>
	<path d="M 1702.0,1115.0 L 1702.0,1125.0" style="stroke:#010101; fill:none;"/>
	<path d="M 1248.0,1117.0 L 1252.0,1122.0" style="stroke:#010101; fill:none;"/>
	<path d="M 1719.0,1117.0 L 1720.0,1120.0" style="stroke:#010101; fill:none;"/>
	<path d="M 1574.0,1126.0 L 1574.0,1127.0" style="stroke:#010101; fill:none;"/>
	<path d="M 1672.0,1127.0 C 1657.69,1139.46 1647.22,1154.75 1639.24,1172.0 C 1636.16,1178.66 1636.12,1185.52 1632.0,1192.0 C 1617.54,1176.25 1612.09,1158.07 1616.0,1137.0" style="stroke:#010101; fill:none;"/>
	<path d="M 869.0,1132.0 L 857.0,1149.0" style="stroke:#010101; fill:none;"/>
	<path d="M 1196.0,1135.0 L 1198.0,1137.0" style="stroke:#010101; fill:none;"/>
	<path d="M 1283.0,1137.0 C 1289.72,1165.36 1315.58,1203.27 1300.0,1233.0" style="stroke:#010101; fill:none;"/>
	<path d="M 1317.0,1144.0 C 1317.63,1174.58 1322.55,1202.6 1314.0,1233.0" style="stroke:#010101; fill:none;"/>
	<path d="M 856.0,1151.0 L 855.0,1152.0" style="stroke:#010101; fill:none;"/>
	<path d="M 854.0,1154.0 L 853.0,1155.0" style="stroke:#010101; fill:none;"/>
	<path d="M 1623.0,1155.0 C 1624.26,1161.11 1624.15,1168.72 1629.0,1173.0" style="stroke:#010101; fill:none;"/>
	<path d="M 1668.0,1155.0 L 1642.0,1174.0" style="stroke:#010101; fill:none;"/>
	<path d="M 852.0,1158.0 L 851.0,1159.0" style="stroke:#010101; fill:none;"/>
	<path d="M 850.0,1161.0 L 849.0,1162.0" style="stroke:#010101; fill:none;"/>
	<path d="M 1690.0,1161.0 L 1677.0,1168.0" style="stroke:#010101; fill:none;"/>
	<path d="M 1237.0,1162.0 C 1256.78,1173.54 1281.45,1180.35 1293.0,1202.0" style="stroke:#010101; fill:none;"/>
	<path d="M 1678.0,1193.0 C 1715.35,1193.0 1749.22,1175.1 1783.0,1162.0" style="stroke:#010101; fill:none;"/>
	<path d="M 847.0,1167.0 L 846.0,1168.0" style="stroke:#010101; fill:none;"/>
	<path d="M 1356.0,1167.0 L 1353.0,1191.0" style="stroke:#010101; fill:none;"/>
	<path d="M 1192.0,1175.0 C 1213.14,1181.04 1243.2,1196.83 1256.0,1215.0" style="stroke:#010101; fill:none;"/>
	<path d="M 1636.0,1177.0 L 1626.0,1182.0" style="stroke:#010101; fill:none;"/>
	<path d="M 839.0,1182.0 L 838.0,1183.0" style="stroke:#010101; fill:none;"/>
	<path d="M 1239.0,1185.0 L 1266.0,1202.9 L 1285.0,1218.0 L 1285.0,1207.0" style="stroke:#010101; fill:none;"/>
	<path d="M 1189.0,1190.0 C 1216.86,1196.6 1240.91,1211.91 1261.0,1232.0" style="stroke:#010101; fill:none;"/>
	<path d="M 1173.0,1201.0 L 1175.0,1202.0" style="stroke:#010101; fill:none;"/>
	<path d="M 1136.0,1202.0 C 1167.8,1208.58 1199.25,1220.87 1223.13,1242.63 C 1229.83,1248.73 1237.71,1253.72 1242.0,1262.0" style="stroke:#010101; fill:none;"/>
	<path d="M 1181.0,1204.0 C 1213.13,1213.19 1243.54,1230.54 1267.0,1254.0" style="stroke:#010101; fill:none;"/>
	<path d="M 1103.0,1209.0 L 1104.0,1210.0" style="stroke:#010101; fill:none;"/>
	<path d="M 1106.0,1209.0 L 1111.0,1210.0" style="stroke:#010101; fill:none;"/>
	<path d="M 1083.0,1213.0 L 1101.0,1210.0" style="stroke:#010101; fill:none;"/>
	<path d="M 1113.0,1211.0 L 1114.0,1211.0" style="stroke:#010101; fill:none;"/>
	<path d="M 1792.0,1215.0 L 1793.0,1215.0" style="stroke:#010101; fill:none;"/>
	<path d="M 1781.0,1216.0 L 1784.0,1216.0" style="stroke:#010101; fill:none;"/>
	<path d="M 1065.0,1231.0 C 1088.94,1223.21 1113.74,1217.69 1139.0,1218.0" style="stroke:#010101; fill:none;"/>
	<path d="M 1146.0,1218.0 C 1172.18,1221.38 1194.22,1233.86 1219.0,1241.0" style="stroke:#010101; fill:none;"/>
	<path d="M 1286.0,1219.0 L 1280.0,1241.0" style="stroke:#010101; fill:none;"/>
	<path d="M 1143.0,1221.0 L 1143.0,1222.0" style="stroke:#010101; fill:none;"/>
	<path d="M 1680.0,1232.0 L 1720.0,1227.0" style="stroke:#010101; fill:none;"/>
	<path d="M 1083.0,1228.0 L 1082.0,1229.0" style="stroke:#010101; fill:none;"/>
	<path d="M 1133.0,1229.0 C 1169.22,1229.0 1206.83,1239.4 1236.0,1261.0" style="stroke:#010101; fill:none;"/>
	<path d="M 1080.0,1230.0 C 1069.6,1239.58 1056.42,1249.1 1050.0,1262.0 C 1068.75,1262.26 1090.43,1250.79 1109.0,1247.0 C 1116.89,1245.4 1126.58,1243.04 1134.0,1247.0" style="stroke:#010101; fill:none;"/>
	<path d="M 1070.0,1242.0 C 1089.28,1236.58 1110.98,1233.0 1131.0,1233.0" style="stroke:#010101; fill:none;"/>
	<path d="M 2216.0,1238.0 C 2242.12,1264.68 2258.4,1306.27 2273.47,1340.0 C 2301.59,1402.9 2327.98,1467.54 2359.0,1529.0" style="stroke:#010101; fill:none;"/>
	<path d="M 1047.0,1249.0 L 1062.0,1244.0" style="stroke:#010101; fill:none;"/>
	<path d="M 1121.0,1248.0 L 1142.0,1254.0 L 1128.0,1254.0" style="stroke:#010101; fill:none;"/>
	<path d="M 1116.0,1253.0 L 1117.0,1253.0" style="stroke:#010101; fill:none;"/>
	<path d="M 1119.0,1253.0 L 1120.0,1253.0" style="stroke:#010101; fill:none;"/>
	<path d="M 1046.0,1254.0 L 1045.0,1255.0" style="stroke:#010101; fill:none;"/>
	<path d="M 1142.0,1254.0 C 1173.57,1259.88 1212.58,1262.86 1239.0,1283.0" style="stroke:#010101; fill:none;"/>
	<path d="M 1234.0,1254.0 L 1235.0,1256.0" style="stroke:#010101; fill:none;"/>
	<path d="M 1192.0,1311.0 L 1140.0,1315.72 L 1044.0,1329.8 L 1009.0,1337.13 L 997.252,1337.59 L 1004.32,1323.0 L 1029.0,1285.0 L 1019.0,1286.0 C 1024.3,1276.67 1030.6,1265.13 1043.0,1267.0 C 1040.8,1272.2 1035.06,1276.18 1037.0,1282.0 C 1053.33,1274.76 1071.79,1270.5 1089.0,1265.85 C 1098.25,1263.35 1108.37,1259.37 1118.0,1259.04 C 1140.14,1258.3 1163.5,1265.31 1184.0,1272.95 C 1197.31,1277.91 1213.21,1283.56 1224.0,1293.0" style="stroke:#010101; fill:none;"/>
	<path d="M 1039.0,1260.0 L 1034.0,1266.0" style="stroke:#010101; fill:none;"/>
	<path d="M 1050.0,1262.0 L 1043.0,1267.0" style="stroke:#010101; fill:none;"/>
	<path d="M 1185.0,1262.0 L 1185.0,1265.0 L 1182.0,1263.0" style="stroke:#010101; fill:none;"/>
	<path d="M 1238.0,1262.0 L 1239.0,1263.0" style="stroke:#010101; fill:none;"/>
	<path d="M 1186.0,1266.0 C 1200.18,1270.8 1212.66,1277.61 1225.0,1286.0" style="stroke:#010101; fill:none;"/>
	<path d="M 1024.0,1273.0 L 1028.0,1271.0" style="stroke:#010101; fill:none;"/>
	<path d="M 1021.0,1301.0 C 1044.84,1294.13 1067.6,1276.11 1093.0,1275.0" style="stroke:#010101; fill:none;"/>
	<path d="M 1095.0,1278.0 C 1120.44,1278.0 1145.92,1278.88 1171.0,1283.61 C 1185.62,1286.37 1199.46,1292.0 1214.0,1295.0" style="stroke:#010101; fill:none;"/>
	<path d="M 1030.0,1284.0 L 1035.0,1281.0" style="stroke:#010101; fill:none;"/>
	<path d="M 1068.0,1287.0 L 1150.0,1289.28 L 1201.0,1300.0" style="stroke:#010101; fill:none;"/>
	<path d="M 1065.0,1287.0 L 1066.0,1287.0" style="stroke:#010101; fill:none;"/>
	<path d="M 1151.0,1328.0 C 1111.24,1329.71 1069.53,1338.74 1031.0,1348.37 C 1020.28,1351.05 1009.55,1353.74 999.0,1357.03 C 993.69,1358.68 988.431,1362.08 983.0,1360.0 L 986.0,1352.0 C 977.377,1350.55 986.083,1339.42 988.576,1335.0 C 997.221,1319.66 1005.38,1298.53 1019.0,1287.0" style="stroke:#010101; fill:none;"/>
	<path d="M 1002.0,1296.0 L 1015.0,1290.0" style="stroke:#010101; fill:none;"/>
	<path d="M 1001.0,1299.0 L 1000.0,1300.0" style="stroke:#010101; fill:none;"/>
	<path d="M 1032.0,1310.0 C 1082.29,1303.64 1137.36,1294.6 1188.0,1301.0" style="stroke:#010101; fill:none;"/>
	<path d="M 1203.0,1301.0 L 1205.0,1301.0" style="stroke:#010101; fill:none;"/>
	<path d="M 999.0,1302.0 L 996.0,1307.0" style="stroke:#010101; fill:none;"/>
	<path d="M 1007.0,1308.0 L 1014.0,1306.0" style="stroke:#010101; fill:none;"/>
	<path d="M 1028.0,1321.0 C 1063.84,1318.97 1098.77,1309.01 1135.0,1309.0 C 1146.29,1309.0 1158.08,1305.91 1169.0,1310.0" style="stroke:#010101; fill:none;"/>
	<path d="M 1411.0,1309.0 C 1431.75,1320.05 1459.12,1317.57 1478.0,1331.0" style="stroke:#010101; fill:none;"/>
	<path d="M 994.0,1310.0 L 994.0,1314.0 L 1000.0,1312.0" style="stroke:#010101; fill:none;"/>
	<path d="M 1195.0,1312.0 L 1196.0,1312.0" style="stroke:#010101; fill:none;"/>
	<path d="M 993.0,1313.0 C 984.614,1324.0 975.073,1340.44 972.0,1354.0 L 981.0,1351.0" style="stroke:#010101; fill:none;"/>
	<path d="M 987.0,1317.0 L 982.0,1320.0" style="stroke:#010101; fill:none;"/>
	<path d="M 980.0,1321.0 L 979.0,1322.0" style="stroke:#010101; fill:none;"/>
	<path d="M 987.0,1351.0 C 1004.52,1345.04 1023.92,1342.57 1042.0,1338.58 C 1081.2,1329.92 1121.75,1322.0 1162.0,1322.0" style="stroke:#010101; fill:none;"/>
	<path d="M 1254.0,1326.0 L 1339.0,1322.0" style="stroke:#010101; fill:none;"/>
	<path d="M 1343.0,1323.0 L 1344.0,1323.0" style="stroke:#010101; fill:none;"/>
	<path d="M 1348.0,1324.0 L 1350.0,1324.0" style="stroke:#010101; fill:none;"/>
	<path d="M 976.0,1325.0 L 975.0,1326.0" style="stroke:#010101; fill:none;"/>
	<path d="M 1352.0,1325.0 L 1396.78,1341.79 L 1406.0,1351.83 L 1429.0,1370.0" style="stroke:#010101; fill:none;"/>
	<path d="M 974.0,1328.0 L 948.989,1383.0 L 937.0,1416.0 L 944.0,1415.0 L 940.0,1432.0 C 950.886,1428.28 950.057,1421.63 953.834,1412.17 C 957.838,1402.14 961.872,1391.99 966.15,1382.0 C 968.799,1375.82 971.406,1362.95 980.0,1366.0 C 976.574,1373.57 972.268,1394.64 962.0,1392.0" style="stroke:#010101; fill:none;"/>
	<path d="M 1153.0,1328.0 L 1154.0,1328.0" style="stroke:#010101; fill:none;"/>
	<path d="M 1337.0,1329.0 C 1358.61,1345.01 1380.85,1360.09 1403.0,1375.34 C 1412.01,1381.55 1427.23,1389.99 1432.0,1400.0 L 1425.0,1397.0" style="stroke:#010101; fill:none;"/>
	<path d="M 1351.0,1329.0 L 1413.0,1374.87 L 1444.0,1398.0 L 1440.0,1379.0" style="stroke:#010101; fill:none;"/>
	<path d="M 1307.0,1331.0 L 1308.0,1332.0" style="stroke:#010101; fill:none;"/>
	<path d="M 1317.0,1331.0 L 1319.0,1333.0" style="stroke:#010101; fill:none;"/>
	<path d="M 1331.0,1331.0 L 1422.0,1401.0" style="stroke:#010101; fill:none;"/>
	<path d="M 1310.0,1333.0 L 1400.0,1396.0" style="stroke:#010101; fill:none;"/>
	<path d="M 1290.0,1334.0 L 1370.0,1384.0" style="stroke:#010101; fill:none;"/>
	<path d="M 1321.0,1334.0 C 1345.24,1357.19 1382.52,1368.75 1404.0,1395.0" style="stroke:#010101; fill:none;"/>
	<path d="M 978.0,1379.0 L 1092.0,1345.12 L 1136.0,1335.0" style="stroke:#010101; fill:none;"/>
	<path d="M 1485.0,1335.0 L 1487.0,1337.0" style="stroke:#010101; fill:none;"/>
	<path d="M 255.0,1336.0 L 253.0,1344.0" style="stroke:#010101; fill:none;"/>
	<path d="M 996.0,1338.0 L 990.0,1349.0" style="stroke:#010101; fill:none;"/>
	<path d="M 1279.0,1338.0 L 1363.0,1387.0" style="stroke:#010101; fill:none;"/>
	<path d="M 1376.0,1341.0 L 1437.0,1385.0" style="stroke:#010101; fill:none;"/>
	<path d="M 1401.0,1343.0 L 1400.0,1346.0" style="stroke:#010101; fill:none;"/>
	<path d="M 972.0,1389.0 C 985.295,1386.64 999.225,1378.72 1012.0,1374.05 C 1048.68,1360.65 1090.58,1344.0 1130.0,1344.0" style="stroke:#010101; fill:none;"/>
	<path d="M 1403.0,1344.0 L 1427.0,1358.0" style="stroke:#010101; fill:none;"/>
	<path d="M 268.0,1345.0 L 266.0,1369.0" style="stroke:#010101; fill:none;"/>
	<path d="M 252.0,1348.0 L 252.0,1349.0" style="stroke:#010101; fill:none;"/>
	<path d="M 972.0,1354.0 L 953.201,1395.0 L 949.0,1412.0 L 953.0,1411.0" style="stroke:#010101; fill:none;"/>
	<path d="M 1302.0,1354.0 L 1351.0,1389.0" style="stroke:#010101; fill:none;"/>
	<path d="M 977.0,1355.0 L 975.0,1364.0" style="stroke:#010101; fill:none;"/>
	<path d="M 957.0,1408.0 L 995.0,1395.05 L 1082.0,1366.58 L 1119.0,1356.0" style="stroke:#010101; fill:none;"/>
	<path d="M 983.0,1361.0 L 980.0,1365.0" style="stroke:#010101; fill:none;"/>
	<path d="M 1512.0,1361.0 C 1529.8,1378.8 1543.23,1397.12 1557.0,1418.0" style="stroke:#010101; fill:none;"/>
	<path d="M 1434.0,1363.0 L 1446.0,1378.0" style="stroke:#010101; fill:none;"/>
	<path d="M 951.0,1426.0 C 964.984,1421.57 978.582,1412.45 992.0,1406.31 C 1016.42,1395.13 1041.82,1386.19 1067.0,1376.95 C 1082.22,1371.36 1098.52,1364.14 1115.0,1364.0" style="stroke:#010101; fill:none;"/>
	<path d="M 943.0,1366.0 L 927.575,1406.0 L 923.0,1424.0 L 934.0,1419.0 L 930.0,1437.0 L 940.0,1432.0" style="stroke:#010101; fill:none;"/>
	<path d="M 1304.0,1366.0 L 1353.0,1400.0" style="stroke:#010101; fill:none;"/>
	<path d="M 922.0,1423.0 L 907.267,1468.0 L 899.0,1498.0 C 910.358,1494.38 924.496,1474.86 917.0,1463.0 C 957.486,1434.8 1004.83,1417.39 1050.0,1398.15 C 1072.06,1388.75 1099.76,1374.06 1124.0,1373.0" style="stroke:#010101; fill:none;"/>
	<path d="M 1304.0,1376.0 L 1342.0,1401.0" style="stroke:#010101; fill:none;"/>
	<path d="M 1110.0,1481.0 C 1114.4,1488.86 1111.34,1492.19 1109.34,1500.0 C 1108.76,1502.25 1107.35,1508.9 1103.46,1506.17 C 1100.23,1503.9 1102.37,1497.27 1101.95,1494.0 C 1101.44,1489.98 1098.12,1485.99 1098.37,1482.0 C 1098.85,1474.18 1109.96,1463.34 1114.35,1457.0 C 1128.86,1436.05 1150.3,1422.37 1170.87,1408.27 C 1177.65,1403.62 1182.95,1396.97 1190.0,1392.44 C 1200.76,1385.52 1213.8,1382.46 1226.0,1379.0" style="stroke:#010101; fill:none;"/>
	<path d="M 1305.0,1384.0 L 1343.0,1409.0" style="stroke:#010101; fill:none;"/>
	<path d="M 1372.0,1385.0 L 1374.0,1387.0" style="stroke:#010101; fill:none;"/>
	<path d="M 1353.0,1390.0 L 1355.0,1392.0" style="stroke:#010101; fill:none;"/>
	<path d="M 1305.0,1394.0 L 1306.0,1395.0" style="stroke:#010101; fill:none;"/>
	<path d="M 1405.0,1395.0 L 1413.0,1403.0" style="stroke:#010101; fill:none;"/>
	<path d="M 1309.0,1397.0 L 1310.0,1398.0" style="stroke:#010101; fill:none;"/>
	<path d="M 1412.0,1399.0 L 1444.0,1420.0 C 1447.01,1413.75 1446.59,1405.66 1445.0,1399.0" style="stroke:#010101; fill:none;"/>
	<path d="M 916.0,1488.0 C 944.612,1467.21 977.835,1452.63 1009.0,1436.22 C 1032.88,1423.65 1059.01,1407.49 1085.0,1400.0" style="stroke:#010101; fill:none;"/>
	<path d="M 1314.0,1400.0 L 1316.0,1402.0" style="stroke:#010101; fill:none;"/>
	<path d="M 1432.0,1400.0 L 1443.0,1408.0" style="stroke:#010101; fill:none;"/>
	<path d="M 1344.0,1402.0 L 1346.0,1404.0" style="stroke:#010101; fill:none;"/>
	<path d="M 1318.0,1403.0 L 1320.0,1405.0" style="stroke:#010101; fill:none;"/>
	<path d="M 1403.0,1403.0 C 1406.6,1406.56 1421.12,1420.78 1426.0,1419.0" style="stroke:#010101; fill:none;"/>
	<path d="M 1992.0,1405.0 C 2001.26,1405.42 2009.48,1410.36 2018.0,1413.57 C 2056.68,1428.19 2083.53,1458.89 2083.01,1501.0 C 2082.91,1509.47 2084.39,1517.96 2081.0,1526.0" style="stroke:#010101; fill:none;"/>
	<path d="M 1086.0,1406.0 L 1087.0,1406.0" style="stroke:#010101; fill:none;"/>
	<path d="M 1323.0,1406.0 L 1324.0,1407.0" style="stroke:#010101; fill:none;"/>
	<path d="M 891.0,1529.0 C 927.465,1489.41 975.52,1459.88 1023.0,1435.22 C 1042.29,1425.2 1062.95,1412.76 1084.0,1407.0" style="stroke:#010101; fill:none;"/>
	<path d="M 1175.0,1408.0 C 1213.86,1408.0 1253.16,1403.82 1291.0,1415.0" style="stroke:#010101; fill:none;"/>
	<path d="M 1205.0,1408.0 C 1206.4,1419.47 1207.27,1430.71 1204.0,1442.0" style="stroke:#010101; fill:none;"/>
	<path d="M 1208.0,1408.0 L 1207.0,1413.0" style="stroke:#010101; fill:none;"/>
	<path d="M 1326.0,1408.0 L 1328.0,1410.0" style="stroke:#010101; fill:none;"/>
	<path d="M 948.0,1411.0 L 944.0,1415.0" style="stroke:#010101; fill:none;"/>
	<path d="M 1330.0,1411.0 L 1331.0,1412.0" style="stroke:#010101; fill:none;"/>
	<path d="M 910.0,1412.0 C 902.455,1425.26 898.466,1440.6 893.667,1455.0 C 884.633,1482.1 876.595,1509.58 868.576,1537.0 C 865.513,1547.47 853.995,1569.95 858.0,1580.0 C 873.163,1564.84 888.398,1550.03 905.0,1536.42 C 909.943,1532.37 921.045,1527.14 917.0,1520.0 L 866.0,1564.0" style="stroke:#010101; fill:none;"/>
	<path d="M 1334.0,1413.0 L 1335.0,1414.0" style="stroke:#010101; fill:none;"/>
	<path d="M 1403.0,1413.0 L 1434.0,1439.0 L 1439.0,1433.0" style="stroke:#010101; fill:none;"/>
	<path d="M 937.0,1416.0 L 934.0,1419.0" style="stroke:#010101; fill:none;"/>
	<path d="M 1428.0,1420.0 L 1429.0,1423.0" style="stroke:#010101; fill:none;"/>
	<path d="M 1444.0,1420.0 L 1447.0,1423.0" style="stroke:#010101; fill:none;"/>
	<path d="M 1558.0,1421.0 L 1559.0,1422.0" style="stroke:#010101; fill:none;"/>
	<path d="M 1405.0,1422.0 C 1409.78,1426.77 1426.77,1445.69 1433.0,1440.0" style="stroke:#010101; fill:none;"/>
	<path d="M 1426.0,1422.0 L 1429.0,1423.0" style="stroke:#010101; fill:none;"/>
	<path d="M 1432.0,1423.0 L 1440.0,1428.0" style="stroke:#010101; fill:none;"/>
	<path d="M 1444.0,1423.0 L 1444.0,1427.0" style="stroke:#010101; fill:none;"/>
	<path d="M 1208.0,1425.0 L 1207.0,1431.0" style="stroke:#010101; fill:none;"/>
	<path d="M 1430.0,1425.0 L 1436.0,1431.0" style="stroke:#010101; fill:none;"/>
	<path d="M 1043.0,1449.0 C 1024.73,1451.7 1005.37,1466.0 990.0,1475.68 C 983.936,1479.5 975.966,1487.55 969.0,1483.0 C 997.037,1461.45 1031.31,1439.61 1064.0,1426.0" style="stroke:#010101; fill:none;"/>
	<path d="M 1205.0,1430.0 L 1206.0,1436.0" style="stroke:#010101; fill:none;"/>
	<path d="M 1404.0,1431.0 L 1423.0,1449.0 L 1416.0,1459.0 L 1403.0,1443.0" style="stroke:#010101; fill:none;"/>
	<path d="M 894.0,1433.0 C 885.93,1445.98 882.311,1463.49 877.656,1478.0 C 868.066,1507.9 858.739,1537.79 850.14,1568.0 C 847.206,1578.31 844.615,1588.63 841.969,1599.0 C 840.61,1604.33 838.042,1607.83 841.0,1613.0 L 822.0,1635.0" style="stroke:#010101; fill:none;"/>
	<path d="M 1204.0,1434.0 L 1195.93,1452.0 L 1180.0,1470.0" style="stroke:#010101; fill:none;"/>
	<path d="M 937.0,1437.0 C 934.916,1441.7 932.816,1446.11 935.0,1451.0" style="stroke:#010101; fill:none;"/>
	<path d="M 929.0,1438.0 L 924.0,1455.0" style="stroke:#010101; fill:none;"/>
	<path d="M 915.0,1449.0 L 926.0,1442.0" style="stroke:#010101; fill:none;"/>
	<path d="M 1173.0,1442.0 L 1173.0,1443.0" style="stroke:#010101; fill:none;"/>
	<path d="M 1430.0,1443.0 L 1424.0,1449.0" style="stroke:#010101; fill:none;"/>
	<path d="M 1126.0,1445.0 C 1136.16,1459.28 1133.62,1473.79 1125.0,1488.0" style="stroke:#010101; fill:none;"/>
	<path d="M 1175.0,1446.0 C 1173.16,1452.21 1172.54,1458.95 1175.0,1465.0 L 1185.0,1455.0" style="stroke:#010101; fill:none;"/>
	<path d="M 1136.0,1448.0 L 1138.0,1475.0 L 1161.0,1468.0" style="stroke:#010101; fill:none;"/>
	<path d="M 1398.0,1452.0 L 1412.59,1471.0 L 1407.42,1494.0 L 1401.0,1542.0" style="stroke:#010101; fill:none;"/>
	<path d="M 841.0,1612.0 C 884.142,1568.5 925.645,1525.72 977.0,1491.48 C 988.557,1483.78 1000.36,1476.48 1013.0,1470.69 C 1019.07,1467.91 1023.97,1464.79 1030.0,1469.0 L 1054.0,1454.0" style="stroke:#010101; fill:none;"/>
	<path d="M 2027.0,1455.0 L 2027.0,1460.0" style="stroke:#010101; fill:none;"/>
	<path d="M 875.0,1457.0 C 858.137,1490.11 850.601,1531.1 841.627,1567.0 C 836.85,1586.1 828.604,1606.36 827.0,1626.0" style="stroke:#010101; fill:none;"/>
	<path d="M 1174.0,1458.0 L 1174.0,1459.0" style="stroke:#010101; fill:none;"/>
	<path d="M 1416.0,1459.0 L 1416.0,1462.0 L 1419.0,1463.0" style="stroke:#010101; fill:none;"/>
	<path d="M 929.0,1460.0 L 929.0,1461.0" style="stroke:#010101; fill:none;"/>
	<path d="M 1171.0,1460.0 L 1167.0,1475.0" style="stroke:#010101; fill:none;"/>
	<path d="M 1291.0,1477.0 C 1291.19,1472.76 1291.52,1465.51 1295.3,1462.76 C 1298.98,1460.09 1307.4,1459.42 1308.51,1465.02 C 1309.38,1469.43 1305.45,1471.86 1302.0,1473.38 C 1291.76,1477.9 1282.12,1483.21 1272.0,1488.0 L 1265.5,1474.03 L 1252.0,1473.2 L 1221.0,1474.58 L 1153.0,1481.65 L 1110.0,1503.0" style="stroke:#010101; fill:none;"/>
	<path d="M 908.0,1468.0 L 917.0,1463.0" style="stroke:#010101; fill:none;"/>
	<path d="M 921.0,1463.0 L 920.0,1465.0" style="stroke:#010101; fill:none;"/>
	<path d="M 1415.0,1463.0 L 1413.0,1468.0" style="stroke:#010101; fill:none;"/>
	<path d="M 1174.0,1464.0 L 1170.0,1469.0" style="stroke:#010101; fill:none;"/>
	<path d="M 1265.0,1473.0 C 1272.09,1468.26 1284.49,1464.75 1293.0,1464.0" style="stroke:#010101; fill:none;"/>
	<path d="M 1400.0,1464.0 L 1408.0,1478.0" style="stroke:#010101; fill:none;"/>
	<path d="M 1175.0,1465.0 C 1177.28,1468.21 1179.85,1466.55 1183.0,1465.0" style="stroke:#010101; fill:none;"/>
	<path d="M 2028.0,1467.0 L 2028.0,1472.0" style="stroke:#010101; fill:none;"/>
	<path d="M 1027.0,1468.0 L 1029.0,1469.0" style="stroke:#010101; fill:none;"/>
	<path d="M 1168.0,1468.0 L 1156.0,1479.0" style="stroke:#010101; fill:none;"/>
	<path d="M 1174.0,1468.0 L 1177.0,1468.0" style="stroke:#010101; fill:none;"/>
	<path d="M 1027.0,1470.0 L 980.0,1506.0" style="stroke:#010101; fill:none;"/>
	<path d="M 1397.0,1473.0 L 1398.0,1474.0" style="stroke:#010101; fill:none;"/>
	<path d="M 1137.0,1474.0 L 1133.0,1485.0" style="stroke:#010101; fill:none;"/>
	<path d="M 1235.0,1474.0 L 1237.96,1489.0 L 1236.0,1506.0 C 1246.94,1504.11 1262.43,1495.04 1271.0,1488.0" style="stroke:#010101; fill:none;"/>
	<path d="M 2028.0,1474.0 L 2028.0,1476.0" style="stroke:#010101; fill:none;"/>
	<path d="M 1132.0,1477.0 L 1134.0,1477.0" style="stroke:#010101; fill:none;"/>
	<path d="M 1399.0,1477.0 L 1401.0,1480.0" style="stroke:#010101; fill:none;"/>
	<path d="M 2028.0,1478.0 L 2028.0,1479.0" style="stroke:#010101; fill:none;"/>
	<path d="M 859.0,1479.0 C 851.404,1492.35 848.315,1508.46 843.656,1523.0 C 834.674,1551.03 823.784,1580.7 820.0,1610.0" style="stroke:#010101; fill:none;"/>
	<path d="M 1104.0,1480.0 L 1109.0,1496.0" style="stroke:#010101; fill:none;"/>
	<path d="M 1125.0,1481.0 L 1129.0,1480.0" style="stroke:#010101; fill:none;"/>
	<path d="M 2028.0,1481.0 L 2028.0,1482.0" style="stroke:#010101; fill:none;"/>
	<path d="M 1123.0,1482.0 L 1120.0,1485.0" style="stroke:#010101; fill:none;"/>
	<path d="M 1244.0,1482.0 L 1244.0,1483.0" style="stroke:#010101; fill:none;"/>
	<path d="M 973.0,1486.0 C 969.928,1487.2 966.592,1486.67 969.0,1483.0" style="stroke:#010101; fill:none;"/>
	<path d="M 1097.0,1483.0 C 1088.98,1493.43 1079.14,1503.0 1085.0,1516.0 C 1088.9,1513.88 1089.15,1511.24 1089.0,1507.0" style="stroke:#010101; fill:none;"/>
	<path d="M 961.0,1490.0 L 966.0,1485.0" style="stroke:#010101; fill:none;"/>
	<path d="M 1403.0,1485.0 L 1404.0,1486.0" style="stroke:#010101; fill:none;"/>
	<path d="M 2028.0,1485.0 L 2028.0,1486.0" style="stroke:#010101; fill:none;"/>
	<path d="M 963.0,1487.0 L 970.0,1488.0" style="stroke:#010101; fill:none;"/>
	<path d="M 2028.0,1488.0 L 2028.0,1489.0" style="stroke:#010101; fill:none;"/>
	<path d="M 960.0,1489.0 L 960.0,1494.0" style="stroke:#010101; fill:none;"/>
	<path d="M 959.0,1493.0 L 959.0,1490.0" style="stroke:#010101; fill:none;"/>
	<path d="M 961.0,1490.0 L 967.0,1490.0" style="stroke:#010101; fill:none;"/>
	<path d="M 964.0,1492.0 L 957.0,1493.0" style="stroke:#010101; fill:none;"/>
	<path d="M 950.0,1501.0 L 948.0,1499.0 L 949.0,1500.0 C 953.046,1499.35 955.965,1498.49 955.0,1494.0 L 956.0,1493.0 L 957.0,1493.0" style="stroke:#010101; fill:none;"/>
	<path d="M 949.0,1497.0 L 955.0,1494.0" style="stroke:#010101; fill:none;"/>
	<path d="M 1009.0,1503.0 C 995.746,1513.19 981.024,1519.8 967.0,1528.43 C 949.935,1538.93 933.756,1551.32 918.0,1563.66 C 872.917,1598.98 834.625,1641.06 796.0,1683.0 C 792.399,1666.33 815.45,1647.62 825.999,1637.0 C 861.396,1601.37 895.785,1565.4 934.0,1532.58 C 946.002,1522.27 958.227,1512.24 971.0,1502.89 C 973.943,1500.73 981.68,1493.93 985.0,1497.0" style="stroke:#010101; fill:none;"/>
	<path d="M 2084.0,1495.0 L 2133.0,1506.0" style="stroke:#010101; fill:none;"/>
	<path d="M 959.0,1496.0 L 958.0,1497.0" style="stroke:#010101; fill:none;"/>
	<path d="M 952.0,1497.0 L 952.0,1498.0" style="stroke:#010101; fill:none;"/>
	<path d="M 898.0,1499.0 L 880.0,1514.0" style="stroke:#010101; fill:none;"/>
	<path d="M 950.0,1502.0 L 947.0,1503.0 L 948.0,1499.0" style="stroke:#010101; fill:none;"/>
	<path d="M 941.0,1504.0 L 933.0,1510.0 C 941.498,1511.57 940.242,1503.11 946.0,1500.0" style="stroke:#010101; fill:none;"/>
	<path d="M 943.0,1501.0 L 946.0,1504.0" style="stroke:#010101; fill:none;"/>
	<path d="M 1012.0,1501.0 L 1011.0,1502.0" style="stroke:#010101; fill:none;"/>
	<path d="M 1091.0,1511.0 L 1101.0,1501.0" style="stroke:#010101; fill:none;"/>
	<path d="M 896.0,1505.0 L 886.0,1537.0" style="stroke:#010101; fill:none;"/>
	<path d="M 937.0,1505.0 L 940.0,1508.0" style="stroke:#010101; fill:none;"/>
	<path d="M 946.0,1505.0 L 943.0,1506.0" style="stroke:#010101; fill:none;"/>
	<path d="M 978.0,1507.0 L 973.0,1512.0" style="stroke:#010101; fill:none;"/>
	<path d="M 1101.0,1507.0 C 1100.6,1514.75 1084.45,1531.25 1085.0,1516.0" style="stroke:#010101; fill:none;"/>
	<path d="M 1235.0,1507.0 C 1227.52,1524.04 1209.57,1537.66 1197.09,1551.0 C 1185.89,1562.97 1174.32,1578.74 1160.0,1587.0 L 1159.0,1557.0" style="stroke:#010101; fill:none;"/>
	<path d="M 937.0,1508.0 L 937.0,1509.0" style="stroke:#010101; fill:none;"/>
	<path d="M 1081.0,1508.0 C 1075.69,1514.41 1063.76,1529.72 1067.0,1538.0 L 1083.0,1520.0" style="stroke:#010101; fill:none;"/>
	<path d="M 1105.0,1508.0 L 1103.0,1510.0" style="stroke:#010101; fill:none;"/>
	<path d="M 934.0,1509.0 L 935.0,1512.0" style="stroke:#010101; fill:none;"/>
	<path d="M 2072.0,1509.0 C 2069.88,1516.7 2071.32,1526.69 2069.92,1535.0 C 2064.96,1564.43 2057.46,1591.99 2039.0,1616.0" style="stroke:#010101; fill:none;"/>
	<path d="M 921.0,1524.0 L 923.0,1517.0 C 929.527,1519.62 929.931,1514.23 933.0,1510.0" style="stroke:#010101; fill:none;"/>
	<path d="M 923.0,1516.0 L 931.0,1511.0" style="stroke:#010101; fill:none;"/>
	<path d="M 1951.0,1725.0 C 1977.53,1705.0 1995.26,1673.27 2011.43,1645.0 C 2021.93,1626.63 2033.26,1608.94 2040.77,1589.0 C 2046.24,1574.47 2052.48,1560.08 2056.25,1545.0 C 2059.61,1531.6 2057.56,1520.66 2070.0,1512.0" style="stroke:#010101; fill:none;"/>
	<path d="M 2151.0,1512.0 L 2189.0,1524.0" style="stroke:#010101; fill:none;"/>
	<path d="M 935.0,1513.0 L 932.0,1514.0" style="stroke:#010101; fill:none;"/>
	<path d="M 836.0,1514.0 L 806.199,1628.0 L 799.0,1665.0" style="stroke:#010101; fill:none;"/>
	<path d="M 925.0,1517.0 L 925.0,1514.0 L 928.0,1517.0" style="stroke:#010101; fill:none;"/>
	<path d="M 1607.0,1514.0 C 1631.62,1566.64 1653.21,1629.2 1695.0,1671.0" style="stroke:#010101; fill:none;"/>
	<path d="M 1088.0,1517.0 L 1087.0,1523.0" style="stroke:#010101; fill:none;"/>
	<path d="M 917.0,1520.0 L 920.0,1518.0" style="stroke:#010101; fill:none;"/>
	<path d="M 924.0,1518.0 L 922.0,1520.0" style="stroke:#010101; fill:none;"/>
	<path d="M 829.0,1523.0 L 827.0,1526.0" style="stroke:#010101; fill:none;"/>
	<path d="M 1086.0,1524.0 L 1084.0,1533.0 C 1092.35,1532.45 1100.6,1527.23 1109.0,1525.51 C 1128.03,1521.62 1140.98,1528.98 1154.0,1542.0" style="stroke:#010101; fill:none;"/>
	<path d="M 974.0,1525.0 L 978.0,1525.0" style="stroke:#010101; fill:none;"/>
	<path d="M 827.0,1528.0 L 826.0,1530.0" style="stroke:#010101; fill:none;"/>
	<path d="M 951.0,1548.0 L 975.0,1528.0" style="stroke:#010101; fill:none;"/>
	<path d="M 2357.0,1529.0 L 2378.8,1580.0 L 2407.78,1653.0 L 2471.05,1769.0 L 2519.7,1861.0 L 2562.0,1953.0" style="stroke:#010101; fill:none;"/>
	<path d="M 825.0,1532.0 C 815.397,1573.51 802.784,1614.31 793.576,1656.0 C 790.548,1669.71 782.036,1691.28 785.0,1705.0 C 822.414,1667.27 860.426,1630.72 902.0,1597.45 C 914.166,1587.71 926.068,1577.24 939.0,1568.52 C 950.186,1560.98 961.346,1555.65 971.0,1546.0" style="stroke:#010101; fill:none;"/>
	<path d="M 1084.0,1533.0 L 1056.0,1570.0" style="stroke:#010101; fill:none;"/>
	<path d="M 1064.0,1536.0 C 1058.36,1547.89 1051.46,1559.13 1045.78,1571.0 C 1044.33,1574.03 1039.53,1581.64 1043.14,1584.36 C 1046.7,1587.05 1053.37,1580.86 1051.0,1580.0" style="stroke:#010101; fill:none;"/>
	<path d="M 1070.0,1536.0 L 1074.0,1543.0" style="stroke:#010101; fill:none;"/>
	<path d="M 1067.0,1538.0 L 1059.0,1552.0" style="stroke:#010101; fill:none;"/>
	<path d="M 977.0,1542.0 L 975.0,1544.0" style="stroke:#010101; fill:none;"/>
	<path d="M 1067.0,1543.0 L 1067.0,1545.0" style="stroke:#010101; fill:none;"/>
	<path d="M 1401.0,1544.0 L 1401.0,1545.0" style="stroke:#010101; fill:none;"/>
	<path d="M 1235.0,1546.0 L 1232.0,1549.0" style="stroke:#010101; fill:none;"/>
	<path d="M 1219.0,1552.0 L 1231.0,1553.0" style="stroke:#010101; fill:none;"/>
	<path d="M 1058.0,1554.0 L 1057.0,1555.0" style="stroke:#010101; fill:none;"/>
	<path d="M 1316.0,1554.0 C 1301.55,1587.55 1281.26,1620.4 1260.0,1650.0" style="stroke:#010101; fill:none;"/>
	<path d="M 954.0,1561.0 L 951.0,1563.0" style="stroke:#010101; fill:none;"/>
	<path d="M 951.0,1564.0 L 919.0,1593.0" style="stroke:#010101; fill:none;"/>
	<path d="M 1114.0,1580.0 C 1111.95,1586.04 1112.27,1593.25 1109.57,1599.0 C 1108.14,1602.03 1105.55,1604.13 1103.0,1606.19 C 1077.07,1627.07 1069.58,1565.17 1098.85,1565.85 C 1102.59,1565.93 1102.01,1571.58 1103.6,1573.98 C 1106.13,1577.8 1109.95,1578.67 1114.0,1580.0" style="stroke:#010101; fill:none;"/>
	<path d="M 1209.0,1566.0 L 1220.0,1566.0" style="stroke:#010101; fill:none;"/>
	<path d="M 808.0,1568.0 L 807.0,1569.0" style="stroke:#010101; fill:none;"/>
	<path d="M 1210.0,1569.0 C 1206.44,1571.36 1203.42,1574.26 1209.0,1576.0 L 1209.0,1576.0" style="stroke:#010101; fill:none;"/>
	<path d="M 1055.0,1572.0 L 1052.0,1579.0" style="stroke:#010101; fill:none;"/>
	<path d="M 2283.0,1572.0 L 2334.0,1599.0" style="stroke:#010101; fill:none;"/>
	<path d="M 343.0,1575.0 L 343.0,1576.0" style="stroke:#010101; fill:none;"/>
	<path d="M 798.0,1575.0 C 778.812,1633.97 766.777,1697.51 759.0,1759.0" style="stroke:#010101; fill:none;"/>
	<path d="M 1196.0,1582.0 L 1203.0,1575.0" style="stroke:#010101; fill:none;"/>
	<path d="M 343.0,1578.0 L 343.0,1583.0" style="stroke:#010101; fill:none;"/>
	<path d="M 804.0,1578.0 L 803.0,1582.0" style="stroke:#010101; fill:none;"/>
	<path d="M 1026.0,1579.0 C 1030.53,1582.19 1035.49,1584.68 1041.0,1583.0" style="stroke:#010101; fill:none;"/>
	<path d="M 858.0,1580.0 L 844.0,1598.0" style="stroke:#010101; fill:none;"/>
	<path d="M 1023.0,1582.0 C 1028.93,1587.88 1039.63,1596.68 1046.0,1586.0" style="stroke:#010101; fill:none;"/>
	<path d="M 1193.0,1583.0 L 1192.0,1587.0 L 1199.0,1588.0" style="stroke:#010101; fill:none;"/>
	<path d="M 802.0,1584.0 L 801.0,1588.0" style="stroke:#010101; fill:none;"/>
	<path d="M 344.0,1585.0 L 343.0,1632.0" style="stroke:#010101; fill:none;"/>
	<path d="M 1039.0,1585.0 L 1038.0,1589.0" style="stroke:#010101; fill:none;"/>
	<path d="M 1187.0,1590.0 L 1190.0,1587.0" style="stroke:#010101; fill:none;"/>
	<path d="M 1158.0,1588.0 C 1151.08,1601.34 1135.54,1611.8 1124.0,1621.0 C 1109.49,1632.58 1096.4,1646.57 1080.0,1655.65 C 1061.94,1665.64 1039.92,1671.47 1023.0,1683.0" style="stroke:#010101; fill:none;"/>
	<path d="M 800.0,1590.0 C 788.045,1642.15 775.735,1693.75 769.0,1747.0" style="stroke:#010101; fill:none;"/>
	<path d="M 1046.0,1590.0 L 1039.0,1601.0 L 1037.0,1598.0" style="stroke:#010101; fill:none;"/>
	<path d="M 930.0,1591.0 L 855.0,1653.17 L 789.0,1721.0" style="stroke:#010101; fill:none;"/>
	<path d="M 1035.0,1592.0 L 1033.0,1605.0 L 1037.0,1601.0" style="stroke:#010101; fill:none;"/>
	<path d="M 1183.0,1593.0 L 1194.0,1608.0" style="stroke:#010101; fill:none;"/>
	<path d="M 1011.0,1600.0 C 1015.52,1613.3 1024.47,1613.26 1031.0,1603.0" style="stroke:#010101; fill:none;"/>
	<path d="M 1040.0,1602.0 C 1038.79,1613.8 1032.16,1619.67 1026.8,1629.02 C 1017.03,1646.03 1013.01,1661.64 993.0,1669.0 L 996.0,1669.0" style="stroke:#010101; fill:none;"/>
	<path d="M 1174.0,1605.0 C 1179.05,1602.53 1182.15,1605.54 1186.0,1609.0" style="stroke:#010101; fill:none;"/>
	<path d="M 1030.0,1607.0 L 1032.0,1606.0" style="stroke:#010101; fill:none;"/>
	<path d="M 2049.0,1631.0 C 2049.3,1623.96 2049.46,1612.55 2054.0,1607.0" style="stroke:#010101; fill:none;"/>
	<path d="M 1027.0,1610.0 L 1035.0,1615.0" style="stroke:#010101; fill:none;"/>
	<path d="M 1172.0,1610.0 L 1178.0,1614.0" style="stroke:#010101; fill:none;"/>
	<path d="M 838.0,1612.0 L 838.0,1613.0" style="stroke:#010101; fill:none;"/>
	<path d="M 1022.0,1612.0 C 1020.3,1631.32 1000.42,1648.18 995.0,1667.0" style="stroke:#010101; fill:none;"/>
	<path d="M 1168.0,1614.0 C 1166.05,1618.0 1168.47,1619.07 1172.0,1621.0" style="stroke:#010101; fill:none;"/>
	<path d="M 1160.0,1632.0 C 1158.41,1626.6 1157.89,1617.73 1165.0,1617.0" style="stroke:#010101; fill:none;"/>
	<path d="M 1034.0,1622.0 C 1039.36,1631.89 1039.63,1642.35 1050.0,1649.44 C 1057.0,1654.22 1066.18,1652.95 1073.0,1658.0" style="stroke:#010101; fill:none;"/>
	<path d="M 834.0,1623.0 L 836.0,1625.0" style="stroke:#010101; fill:none;"/>
	<path d="M 1012.0,1627.0 L 1015.0,1628.0" style="stroke:#010101; fill:none;"/>
	<path d="M 1003.0,1627.0 L 1004.0,1628.0" style="stroke:#010101; fill:none;"/>
	<path d="M 1006.0,1628.0 L 1010.0,1628.0" style="stroke:#010101; fill:none;"/>
	<path d="M 1150.0,1630.0 L 1158.0,1649.0" style="stroke:#010101; fill:none;"/>
	<path d="M 2054.0,1630.0 L 2092.0,1688.0" style="stroke:#010101; fill:none;"/>
	<path d="M 1003.0,1634.0 L 1008.0,1638.0" style="stroke:#010101; fill:none;"/>
	<path d="M 1012.0,1637.0 L 1019.0,1634.0" style="stroke:#010101; fill:none;"/>
	<path d="M 775.0,1635.0 L 775.0,1636.0" style="stroke:#010101; fill:none;"/>
	<path d="M 824.0,1635.0 L 825.0,1637.0" style="stroke:#010101; fill:none;"/>
	<path d="M 1137.0,1638.0 L 1143.0,1654.0" style="stroke:#010101; fill:none;"/>
	<path d="M 1144.0,1639.0 L 1148.0,1651.0" style="stroke:#010101; fill:none;"/>
	<path d="M 773.0,1641.0 L 772.0,1647.0" style="stroke:#010101; fill:none;"/>
	<path d="M 365.0,1648.0 L 366.0,1660.0" style="stroke:#010101; fill:none;"/>
	<path d="M 771.0,1649.0 L 771.0,1650.0" style="stroke:#010101; fill:none;"/>
	<path d="M 1140.0,1649.0 L 1138.0,1651.0" style="stroke:#010101; fill:none;"/>
	<path d="M 1011.0,1652.0 L 1015.0,1650.0" style="stroke:#010101; fill:none;"/>
	<path d="M 770.0,1652.0 L 770.0,1654.0" style="stroke:#010101; fill:none;"/>
	<path d="M 1132.0,1671.0 C 1131.21,1664.71 1129.85,1655.77 1136.0,1652.0" style="stroke:#010101; fill:none;"/>
	<path d="M 1131.0,1654.0 C 1118.09,1663.18 1132.58,1691.64 1141.0,1701.0" style="stroke:#010101; fill:none;"/>
	<path d="M 1257.0,1655.0 L 1255.0,1657.0" style="stroke:#010101; fill:none;"/>
	<path d="M 1835.0,1655.0 C 1827.51,1664.4 1816.27,1669.17 1806.0,1674.86 C 1778.85,1689.91 1747.38,1705.18 1717.0,1689.0" style="stroke:#010101; fill:none;"/>
	<path d="M 769.0,1656.0 L 757.435,1714.0 L 748.0,1772.0" style="stroke:#010101; fill:none;"/>
	<path d="M 1016.0,1656.0 C 1018.79,1671.03 1004.38,1680.82 995.0,1691.0 C 1002.3,1691.68 1005.89,1683.95 1010.0,1679.0 C 1010.88,1684.96 1007.95,1690.92 1005.0,1696.0" style="stroke:#010101; fill:none;"/>
	<path d="M 1113.0,1659.0 L 1112.0,1665.0 L 1124.0,1658.0" style="stroke:#010101; fill:none;"/>
	<path d="M 1609.0,1663.0 C 1608.39,1692.36 1602.79,1735.41 1623.0,1760.0" style="stroke:#010101; fill:none;"/>
	<path d="M 1111.0,1664.0 L 1107.0,1682.0" style="stroke:#010101; fill:none;"/>
	<path d="M 1995.0,1665.0 L 1990.0,1677.0" style="stroke:#010101; fill:none;"/>
	<path d="M 2007.0,1666.0 L 2006.0,1668.0" style="stroke:#010101; fill:none;"/>
	<path d="M 1008.0,1669.0 C 1004.75,1671.05 991.071,1678.81 993.0,1670.0" style="stroke:#010101; fill:none;"/>
	<path d="M 1017.0,1669.0 L 1020.0,1692.0" style="stroke:#010101; fill:none;"/>
	<path d="M 2005.0,1671.0 L 2004.0,1673.0" style="stroke:#010101; fill:none;"/>
	<path d="M 1098.0,1672.0 L 1095.0,1683.0" style="stroke:#010101; fill:none;"/>
	<path d="M 991.0,1674.0 L 986.0,1675.0" style="stroke:#010101; fill:none;"/>
	<path d="M 1087.0,1675.0 L 1083.0,1687.0" style="stroke:#010101; fill:none;"/>
	<path d="M 989.0,1676.0 C 986.158,1697.0 973.565,1718.24 966.0,1738.0" style="stroke:#010101; fill:none;"/>
	<path d="M 1999.0,1676.0 C 1994.47,1695.59 1989.0,1713.61 1989.0,1734.0" style="stroke:#010101; fill:none;"/>
	<path d="M 2002.0,1678.0 L 2001.0,1679.0" style="stroke:#010101; fill:none;"/>
	<path d="M 1075.0,1681.0 L 1074.0,1683.0" style="stroke:#010101; fill:none;"/>
	<path d="M 796.0,1683.0 L 793.0,1692.0" style="stroke:#010101; fill:none;"/>
	<path d="M 1236.0,1683.0 L 1234.0,1685.0" style="stroke:#010101; fill:none;"/>
	<path d="M 1935.0,1684.0 C 1920.49,1691.73 1904.0,1696.42 1889.0,1703.31 C 1865.91,1713.92 1840.94,1729.54 1821.0,1745.29 C 1801.37,1760.79 1786.68,1781.75 1771.0,1801.0" style="stroke:#010101; fill:none;"/>
	<path d="M 2006.0,1688.0 L 2006.0,1689.0" style="stroke:#010101; fill:none;"/>
	<path d="M 1013.0,1689.0 C 1012.79,1697.85 1007.75,1706.39 999.0,1709.0" style="stroke:#010101; fill:none;"/>
	<path d="M 1061.0,1689.0 L 1053.0,1704.0" style="stroke:#010101; fill:none;"/>
	<path d="M 1046.0,1693.0 L 1060.0,1690.0" style="stroke:#010101; fill:none;"/>
	<path d="M 1229.0,1691.0 L 1201.0,1719.0 L 1093.0,1813.83 L 1064.31,1836.3 L 1054.14,1861.0 L 1029.0,1915.0" style="stroke:#010101; fill:none;"/>
	<path d="M 1985.0,1691.0 L 1979.0,1715.0" style="stroke:#010101; fill:none;"/>
	<path d="M 381.0,1692.0 L 381.0,1699.0" style="stroke:#010101; fill:none;"/>
	<path d="M 2004.0,1694.0 C 1999.62,1710.39 1996.0,1724.91 1996.0,1742.0" style="stroke:#010101; fill:none;"/>
	<path d="M 1004.0,1699.0 L 1002.0,1701.0" style="stroke:#010101; fill:none;"/>
	<path d="M 1020.0,1701.0 C 1021.29,1717.91 1009.27,1727.95 996.0,1737.0" style="stroke:#010101; fill:none;"/>
	<path d="M 1013.0,1702.0 L 1013.0,1704.0" style="stroke:#010101; fill:none;"/>
	<path d="M 785.0,1705.0 L 780.0,1729.0" style="stroke:#010101; fill:none;"/>
	<path d="M 981.0,1705.0 L 979.0,1742.0" style="stroke:#010101; fill:none;"/>
	<path d="M 1035.0,1706.0 L 1033.0,1715.0" style="stroke:#010101; fill:none;"/>
	<path d="M 1175.0,1707.0 L 1122.0,1759.0" style="stroke:#010101; fill:none;"/>
	<path d="M 2007.0,1707.0 L 2007.0,1744.0" style="stroke:#010101; fill:none;"/>
	<path d="M 1596.0,1711.0 C 1593.59,1767.19 1609.54,1822.95 1610.0,1879.0" style="stroke:#010101; fill:none;"/>
	<path d="M 1010.0,1712.0 L 1010.0,1713.0" style="stroke:#010101; fill:none;"/>
	<path d="M 2059.0,1713.0 L 2050.0,1736.0" style="stroke:#010101; fill:none;"/>
	<path d="M 1009.0,1715.0 L 1007.0,1717.0" style="stroke:#010101; fill:none;"/>
	<path d="M 1978.0,1717.0 L 1978.0,1719.0" style="stroke:#010101; fill:none;"/>
	<path d="M 1883.0,1718.0 C 1863.51,1738.37 1844.54,1757.9 1819.0,1770.75 C 1811.63,1774.46 1799.07,1781.94 1791.0,1778.0" style="stroke:#010101; fill:none;"/>
	<path d="M 1006.0,1719.0 L 1002.0,1723.0" style="stroke:#010101; fill:none;"/>
	<path d="M 1019.0,1719.0 C 1012.14,1730.74 1005.38,1743.98 994.0,1752.0" style="stroke:#010101; fill:none;"/>
	<path d="M 2073.0,1719.0 L 2061.0,1757.0" style="stroke:#010101; fill:none;"/>
	<path d="M 2017.0,1720.0 L 2017.0,1721.0" style="stroke:#010101; fill:none;"/>
	<path d="M 1030.0,1723.0 C 1029.3,1732.93 1030.1,1740.29 1035.0,1749.0" style="stroke:#010101; fill:none;"/>
	<path d="M 1976.0,1724.0 L 1976.0,1725.0" style="stroke:#010101; fill:none;"/>
	<path d="M 2016.0,1725.0 L 2016.0,1726.0" style="stroke:#010101; fill:none;"/>
	<path d="M 2087.0,1726.0 L 2086.0,1727.0" style="stroke:#010101; fill:none;"/>
	<path d="M 2330.0,1727.0 C 2336.08,1728.44 2341.6,1731.94 2348.0,1731.92 C 2355.84,1731.9 2361.8,1725.88 2369.0,1731.0" style="stroke:#010101; fill:none;"/>
	<path d="M 996.0,1728.0 L 995.0,1729.0" style="stroke:#010101; fill:none;"/>
	<path d="M 1025.0,1756.0 C 1016.73,1749.12 1020.24,1733.16 1029.0,1728.0" style="stroke:#010101; fill:none;"/>
	<path d="M 2015.0,1728.0 L 2014.0,1749.0" style="stroke:#010101; fill:none;"/>
	<path d="M 2085.0,1729.0 L 2071.0,1780.0" style="stroke:#010101; fill:none;"/>
	<path d="M 745.0,1734.0 L 745.0,1736.0" style="stroke:#010101; fill:none;"/>
	<path d="M 1026.0,1734.0 L 1030.0,1742.0" style="stroke:#010101; fill:none;"/>
	<path d="M 2370.0,1735.0 C 2371.2,1741.67 2376.02,1746.61 2378.01,1753.0 C 2380.35,1760.53 2378.34,1767.81 2376.0,1775.0" style="stroke:#010101; fill:none;"/>
	<path d="M 1839.0,2247.0 C 1832.95,2239.28 1831.98,2225.9 1840.39,2218.81 C 1854.42,2207.01 1875.65,2201.23 1891.0,2190.43 C 1914.55,2173.86 1932.79,2151.36 1954.0,2132.17 C 2000.97,2089.68 2050.98,2052.05 2103.0,2016.21 C 2119.74,2004.67 2143.96,2000.71 2158.83,1986.79 C 2180.51,1966.48 2187.84,1939.1 2203.44,1915.0 C 2216.87,1894.25 2236.58,1879.07 2249.95,1858.0 C 2264.13,1835.65 2281.5,1818.68 2298.82,1799.0 C 2308.85,1787.59 2316.78,1774.46 2326.82,1763.0 C 2336.37,1752.09 2346.01,1736.73 2362.0,1736.0" style="stroke:#010101; fill:none;"/>
	<path d="M 744.0,1738.0 L 743.0,1745.0" style="stroke:#010101; fill:none;"/>
	<path d="M 2024.0,1741.0 L 2028.0,1764.0" style="stroke:#010101; fill:none;"/>
	<path d="M 2264.0,1741.0 L 2263.0,1744.0" style="stroke:#010101; fill:none;"/>
	<path d="M 963.0,1745.0 L 943.656,1775.0 L 919.0,1807.0" style="stroke:#010101; fill:none;"/>
	<path d="M 2242.0,1745.0 L 2229.0,1771.0" style="stroke:#010101; fill:none;"/>
	<path d="M 742.0,1747.0 L 737.0,1786.0" style="stroke:#010101; fill:none;"/>
	<path d="M 2094.0,1748.0 C 2085.0,1761.65 2083.26,1777.02 2082.0,1793.0" style="stroke:#010101; fill:none;"/>
	<path d="M 980.0,1749.0 C 977.6,1779.15 961.434,1809.5 950.0,1837.0" style="stroke:#010101; fill:none;"/>
	<path d="M 2232.0,1750.0 L 2215.0,1779.0" style="stroke:#010101; fill:none;"/>
	<path d="M 1014.0,1754.0 C 1011.69,1763.74 1015.77,1774.77 1021.0,1783.0" style="stroke:#010101; fill:none;"/>
	<path d="M 1021.0,1756.0 L 1021.0,1758.0" style="stroke:#010101; fill:none;"/>
	<path d="M 2212.0,1757.0 L 2192.0,1789.0" style="stroke:#010101; fill:none;"/>
	<path d="M 2117.0,1761.0 L 2115.0,1763.0" style="stroke:#010101; fill:none;"/>
	<path d="M 1987.0,1762.0 C 1995.69,1776.15 2005.81,1788.74 2012.69,1804.0 C 2022.95,1826.76 2026.33,1857.97 2041.64,1877.91 C 2045.56,1883.02 2051.95,1885.47 2057.0,1889.24 C 2064.0,1894.45 2069.97,1900.26 2079.0,1901.0" style="stroke:#010101; fill:none;"/>
	<path d="M 2114.0,1765.0 L 2113.0,1766.0" style="stroke:#010101; fill:none;"/>
	<path d="M 2112.0,1769.0 C 2105.56,1785.7 2100.37,1806.02 2100.0,1824.0" style="stroke:#010101; fill:none;"/>
	<path d="M 2105.0,1770.0 L 2096.0,1803.0" style="stroke:#010101; fill:none;"/>
	<path d="M 1624.0,1771.0 C 1633.64,1800.63 1645.31,1825.65 1671.0,1845.1 C 1702.65,1869.07 1755.86,1864.13 1787.0,1842.0" style="stroke:#010101; fill:none;"/>
	<path d="M 1940.0,2106.0 C 1966.5,2085.57 1995.01,2065.42 2018.71,2041.71 C 2039.41,2021.02 2056.32,1996.16 2079.0,1977.46 C 2112.4,1949.93 2155.08,1932.39 2185.82,1901.71 C 2203.45,1884.11 2205.84,1855.73 2218.35,1835.0 C 2238.44,1801.71 2269.45,1786.4 2304.0,1773.0" style="stroke:#010101; fill:none;"/>
	<path d="M 2124.0,1775.0 L 2123.0,1776.0" style="stroke:#010101; fill:none;"/>
	<path d="M 1093.0,1777.0 L 1096.0,1776.0" style="stroke:#010101; fill:none;"/>
	<path d="M 2131.0,1777.0 L 2130.0,1778.0" style="stroke:#010101; fill:none;"/>
	<path d="M 1025.0,1809.0 C 1044.56,1795.07 1067.77,1786.62 1090.0,1778.0" style="stroke:#010101; fill:none;"/>
	<path d="M 2122.0,1780.0 L 2121.0,1782.0" style="stroke:#010101; fill:none;"/>
	<path d="M 2129.0,1780.0 C 2122.34,1792.64 2119.61,1809.82 2119.0,1824.0" style="stroke:#010101; fill:none;"/>
	<path d="M 2119.0,1787.0 L 2119.0,1788.0" style="stroke:#010101; fill:none;"/>
	<path d="M 2118.0,1790.0 L 2118.0,1791.0" style="stroke:#010101; fill:none;"/>
	<path d="M 2187.0,1790.0 L 2186.0,1791.0" style="stroke:#010101; fill:none;"/>
	<path d="M 2191.0,1791.0 L 2191.0,1792.0" style="stroke:#010101; fill:none;"/>
	<path d="M 2160.0,1799.0 C 2165.9,1802.22 2178.27,1794.59 2184.0,1792.0" style="stroke:#010101; fill:none;"/>
	<path d="M 2117.0,1793.0 C 2115.04,1802.46 2113.85,1820.57 2108.0,1828.0" style="stroke:#010101; fill:none;"/>
	<path d="M 2190.0,1794.0 L 2189.0,1795.0" style="stroke:#010101; fill:none;"/>
	<path d="M 2135.0,1795.0 L 2129.0,1843.0" style="stroke:#010101; fill:none;"/>
	<path d="M 2156.0,1797.0 L 2156.0,1798.0" style="stroke:#010101; fill:none;"/>
	<path d="M 2157.0,1800.0 C 2158.65,1820.93 2158.28,1841.24 2154.0,1862.0" style="stroke:#010101; fill:none;"/>
	<path d="M 2142.0,1813.0 L 2139.0,1839.0" style="stroke:#010101; fill:none;"/>
	<path d="M 913.0,1818.0 C 899.637,1835.38 886.155,1850.35 869.0,1864.2 C 859.642,1871.75 850.395,1878.99 838.0,1880.0" style="stroke:#010101; fill:none;"/>
	<path d="M 1007.0,1820.0 L 1006.0,1821.0" style="stroke:#010101; fill:none;"/>
	<path d="M 1004.0,1822.0 L 987.0,1836.0" style="stroke:#010101; fill:none;"/>
	<path d="M 2118.0,1826.0 L 2118.0,1829.0" style="stroke:#010101; fill:none;"/>
	<path d="M 2338.0,1840.0 C 2338.0,1897.13 2327.69,1957.04 2299.69,2008.0 C 2293.74,2018.83 2285.29,2027.45 2277.67,2037.0 C 2266.87,2050.51 2257.26,2064.74 2245.0,2077.0" style="stroke:#010101; fill:none;"/>
	<path d="M 2138.0,1843.0 L 2138.0,1847.0" style="stroke:#010101; fill:none;"/>
	<path d="M 2094.0,1891.0 L 2112.0,1890.9 L 2148.0,1874.0" style="stroke:#010101; fill:none;"/>
	<path d="M 1611.0,1881.0 L 1611.0,1887.0" style="stroke:#010101; fill:none;"/>
	<path d="M 1612.0,1889.0 L 1612.0,1895.0" style="stroke:#010101; fill:none;"/>
	<path d="M 2365.0,1946.0 L 2371.0,1945.0" style="stroke:#010101; fill:none;"/>
	<path d="M 2360.0,1971.0 L 2364.0,1974.0" style="stroke:#010101; fill:none;"/>
	<path d="M 539.0,1980.0 L 539.0,1987.0" style="stroke:#010101; fill:none;"/>
	<path d="M 2572.0,1981.0 C 2581.53,2005.72 2594.28,2029.01 2603.14,2054.0 C 2614.82,2086.96 2621.0,2121.11 2621.0,2156.0 C 2621.0,2167.44 2618.66,2177.74 2617.85,2189.0 C 2617.24,2197.5 2618.43,2206.32 2614.0,2214.0 C 2609.51,2205.57 2614.05,2192.38 2614.0,2183.0" style="stroke:#010101; fill:none;"/>
	<path d="M 2417.0,1989.0 L 2415.0,1991.0" style="stroke:#010101; fill:none;"/>
	<path d="M 2455.0,1991.0 L 2455.0,2012.0" style="stroke:#010101; fill:none;"/>
	<path d="M 2505.0,1996.0 L 2505.0,2004.0" style="stroke:#010101; fill:none;"/>
	<path d="M 2474.0,1997.0 C 2478.33,2003.33 2476.91,2007.82 2476.0,2015.0" style="stroke:#010101; fill:none;"/>
	<path d="M 558.0,2002.0 L 558.0,2003.0" style="stroke:#010101; fill:none;"/>
	<path d="M 2340.0,2003.0 L 2346.0,2017.0" style="stroke:#010101; fill:none;"/>
	<path d="M 2504.0,2006.0 L 2504.0,2007.0" style="stroke:#010101; fill:none;"/>
	<path d="M 557.0,2007.0 L 557.0,2008.0" style="stroke:#010101; fill:none;"/>
	<path d="M 557.0,2010.0 L 557.0,2013.0" style="stroke:#010101; fill:none;"/>
	<path d="M 2503.0,2010.0 L 2503.0,2011.0" style="stroke:#010101; fill:none;"/>
	<path d="M 574.0,2014.0 L 571.0,2053.0" style="stroke:#010101; fill:none;"/>
	<path d="M 2334.0,2023.0 L 2336.0,2030.0" style="stroke:#010101; fill:none;"/>
	<path d="M 1649.0,2034.0 L 1647.0,2068.0 L 1646.0,2120.0 L 1644.0,2265.0" style="stroke:#010101; fill:none;"/>
	<path d="M 2393.0,2035.0 L 2392.0,2036.0" style="stroke:#010101; fill:none;"/>
	<path d="M 2385.0,2036.0 L 2387.0,2038.0" style="stroke:#010101; fill:none;"/>
	<path d="M 2306.0,2042.0 L 2313.0,2053.0" style="stroke:#010101; fill:none;"/>
	<path d="M 2396.0,2042.0 L 2374.0,2064.0" style="stroke:#010101; fill:none;"/>
	<path d="M 588.0,2044.0 L 587.0,2050.0" style="stroke:#010101; fill:none;"/>
	<path d="M 1912.0,2046.0 L 1912.0,2062.0" style="stroke:#010101; fill:none;"/>
	<path d="M 593.0,2048.0 L 598.0,2053.0" style="stroke:#010101; fill:none;"/>
	<path d="M 587.0,2052.0 L 587.0,2053.0" style="stroke:#010101; fill:none;"/>
	<path d="M 1765.0,2055.0 L 1763.0,2058.0" style="stroke:#010101; fill:none;"/>
	<path d="M 600.0,2056.0 L 600.0,2057.0" style="stroke:#010101; fill:none;"/>
	<path d="M 1896.0,2058.0 L 1892.0,2071.0" style="stroke:#010101; fill:none;"/>
	<path d="M 1880.0,2063.0 L 1876.0,2074.0" style="stroke:#010101; fill:none;"/>
	<path d="M 1862.0,2068.0 L 1861.0,2069.0" style="stroke:#010101; fill:none;"/>
	<path d="M 2353.0,2088.0 C 2325.28,2116.31 2300.4,2147.35 2276.63,2179.0 C 2264.97,2194.51 2250.7,2210.03 2243.0,2228.0" style="stroke:#010101; fill:none;"/>
	<path d="M 2232.0,2089.0 C 2184.09,2136.88 2124.22,2177.43 2060.0,2199.66 C 2007.83,2217.71 1947.96,2224.0 1893.0,2224.0" style="stroke:#010101; fill:none;"/>
	<path d="M 1825.0,2108.0 L 1813.0,2132.0" style="stroke:#010101; fill:none;"/>
	<path d="M 1848.0,2115.0 C 1838.59,2124.49 1836.62,2133.2 1835.0,2146.0" style="stroke:#010101; fill:none;"/>
	<path d="M 1903.0,2126.0 L 1899.0,2148.0" style="stroke:#010101; fill:none;"/>
	<path d="M 1862.0,2132.0 L 1854.0,2164.0" style="stroke:#010101; fill:none;"/>
	<path d="M 2206.0,2160.0 L 2207.0,2187.0" style="stroke:#010101; fill:none;"/>
	<path d="M 2198.0,2177.0 L 2199.0,2189.0" style="stroke:#010101; fill:none;"/>
	<path d="M 1587.0,2190.0 C 1580.49,2200.65 1577.57,2212.68 1576.0,2225.0" style="stroke:#010101; fill:none;"/>
	<path d="M 2615.0,2191.0 L 2617.0,2191.0" style="stroke:#010101; fill:none;"/>
	<path d="M 2615.0,2193.0 L 2617.0,2193.0" style="stroke:#010101; fill:none;"/>
	<path d="M 2181.0,2195.0 L 2183.0,2209.0" style="stroke:#010101; fill:none;"/>
	<path d="M 1716.0,2201.0 L 1705.0,2232.0" style="stroke:#010101; fill:none;"/>
	<path d="M 2174.0,2202.0 C 2172.34,2207.58 2171.44,2213.65 2174.0,2219.0" style="stroke:#010101; fill:none;"/>
	<path d="M 1551.0,2207.0 L 1545.0,2220.0" style="stroke:#010101; fill:none;"/>
	<path d="M 2167.0,2210.0 L 2165.0,2228.0" style="stroke:#010101; fill:none;"/>
	<path d="M 2614.0,2215.0 C 2610.19,2225.19 2608.57,2236.53 2605.0,2247.0 C 2595.87,2273.79 2584.6,2300.76 2571.74,2326.0 C 2566.54,2336.21 2560.99,2346.36 2554.78,2356.0 C 2552.67,2359.28 2547.61,2363.81 2548.21,2368.0 C 2548.94,2373.07 2554.05,2378.7 2556.66,2383.0 C 2562.12,2391.99 2566.58,2401.51 2571.06,2411.0 C 2588.89,2448.81 2606.47,2486.48 2626.86,2523.0 C 2633.33,2534.59 2640.49,2545.72 2647.46,2557.0 C 2650.89,2562.55 2655.78,2566.17 2656.0,2573.0" style="stroke:#010101; fill:none;"/>
	<path d="M 1750.0,2220.0 L 1749.0,2236.0" style="stroke:#010101; fill:none;"/>
	<path d="M 1544.0,2222.0 L 1543.0,2223.0" style="stroke:#010101; fill:none;"/>
	<path d="M 2242.0,2230.0 L 2242.0,2231.0" style="stroke:#010101; fill:none;"/>
	<path d="M 1731.0,2231.0 L 1725.0,2245.0" style="stroke:#010101; fill:none;"/>
	<path d="M 2472.0,2245.0 L 2492.0,2268.0" style="stroke:#010101; fill:none;"/>
	<path d="M 1530.0,2251.0 L 1530.0,2252.0" style="stroke:#010101; fill:none;"/>
	<path d="M 1528.0,2256.0 L 1527.0,2260.0" style="stroke:#010101; fill:none;"/>
	<path d="M 1645.0,2267.0 L 1645.0,2270.0" style="stroke:#010101; fill:none;"/>
	<path d="M 1646.0,2272.0 L 1646.0,2274.0" style="stroke:#010101; fill:none;"/>
	<path d="M 2445.0,2277.0 L 2463.0,2296.0" style="stroke:#010101; fill:none;"/>
	<path d="M 1647.0,2279.0 C 1653.24,2301.14 1666.64,2328.0 1685.0,2342.72 C 1697.68,2352.89 1717.1,2360.36 1732.0,2367.0" style="stroke:#010101; fill:none;"/>
	<path d="M 418.0,2282.0 L 475.0,2287.0" style="stroke:#010101; fill:none;"/>
	<path d="M 2435.0,2292.0 L 2449.0,2313.0" style="stroke:#010101; fill:none;"/>
	<path d="M 494.0,2293.0 L 545.0,2336.0" style="stroke:#010101; fill:none;"/>
	<path d="M 662.0,2297.0 C 680.2,2302.08 702.11,2303.53 721.0,2304.0" style="stroke:#010101; fill:none;"/>
	<path d="M 610.0,2298.0 L 610.0,2299.0" style="stroke:#010101; fill:none;"/>
	<path d="M 1570.0,2299.0 L 1558.0,2337.0" style="stroke:#010101; fill:none;"/>
	<path d="M 1557.0,2300.0 L 1546.0,2335.0" style="stroke:#010101; fill:none;"/>
	<path d="M 1585.0,2300.0 L 1568.0,2341.0" style="stroke:#010101; fill:none;"/>
	<path d="M 617.0,2302.0 L 618.0,2302.0" style="stroke:#010101; fill:none;"/>
	<path d="M 620.0,2303.0 L 632.0,2306.0" style="stroke:#010101; fill:none;"/>
	<path d="M 2180.0,2306.0 L 2156.0,2324.0" style="stroke:#010101; fill:none;"/>
	<path d="M 2187.0,2319.0 L 2180.0,2327.0" style="stroke:#010101; fill:none;"/>
	<path d="M 2427.0,2319.0 L 2434.0,2333.0" style="stroke:#010101; fill:none;"/>
	<path d="M 1590.0,2327.0 L 1582.0,2347.0" style="stroke:#010101; fill:none;"/>
	<path d="M 2201.0,2329.0 L 2199.0,2331.0" style="stroke:#010101; fill:none;"/>
	<path d="M 2414.0,2332.0 L 2427.0,2356.0" style="stroke:#010101; fill:none;"/>
	<path d="M 2198.0,2333.0 L 2195.0,2336.0" style="stroke:#010101; fill:none;"/>
	<path d="M 546.0,2338.0 L 549.0,2341.0" style="stroke:#010101; fill:none;"/>
	<path d="M 309.0,2340.0 L 307.0,2357.0" style="stroke:#010101; fill:none;"/>
	<path d="M 348.0,2370.0 C 365.766,2354.63 397.023,2337.29 421.0,2342.52 C 445.736,2347.91 469.749,2372.88 486.999,2390.0 C 513.908,2416.72 539.933,2446.18 564.572,2475.0 C 579.721,2492.72 591.71,2512.54 610.0,2527.54 C 624.349,2539.3 644.298,2548.82 661.0,2556.89 C 676.876,2564.56 696.538,2570.24 714.0,2572.71 C 723.649,2574.08 733.439,2572.93 743.0,2574.3 C 761.26,2576.91 779.953,2587.29 793.0,2600.01 C 801.628,2608.43 812.121,2618.51 814.0,2631.0" style="stroke:#010101; fill:none;"/>
	<path d="M 603.0,2348.0 C 642.895,2338.39 690.796,2355.6 716.535,2387.0 C 728.266,2401.31 733.639,2425.02 750.004,2435.26 C 771.041,2448.42 811.211,2431.58 823.532,2460.0 C 828.546,2471.57 828.31,2482.99 826.38,2495.0 C 825.802,2498.59 825.871,2505.98 821.722,2507.6 C 811.612,2511.54 803.804,2486.93 807.0,2481.0 L 804.0,2483.0" style="stroke:#010101; fill:none;"/>
	<path d="M 1836.0,2346.0 L 1830.0,2371.0" style="stroke:#010101; fill:none;"/>
	<path d="M 1856.0,2357.0 L 1852.0,2375.0" style="stroke:#010101; fill:none;"/>
	<path d="M 1880.0,2360.0 L 1877.0,2375.0" style="stroke:#010101; fill:none;"/>
	<path d="M 2476.0,2360.0 L 2483.0,2376.0" style="stroke:#010101; fill:none;"/>
	<path d="M 2545.0,2360.0 L 2547.0,2365.0" style="stroke:#010101; fill:none;"/>
	<path d="M 2547.0,2368.0 C 2541.07,2375.78 2537.66,2385.03 2531.96,2393.0 C 2511.64,2421.44 2489.77,2449.23 2465.0,2474.0" style="stroke:#010101; fill:none;"/>
	<path d="M 2407.0,2369.0 C 2405.14,2377.67 2410.74,2390.5 2415.0,2398.0" style="stroke:#010101; fill:none;"/>
	<path d="M 2150.0,2373.0 C 2145.22,2378.33 2142.95,2383.94 2142.0,2391.0" style="stroke:#010101; fill:none;"/>
	<path d="M 1752.0,2377.0 L 1754.0,2378.0" style="stroke:#010101; fill:none;"/>
	<path d="M 1756.0,2379.0 L 1759.0,2380.0" style="stroke:#010101; fill:none;"/>
	<path d="M 1761.0,2381.0 L 1762.0,2381.0" style="stroke:#010101; fill:none;"/>
	<path d="M 2167.0,2382.0 L 2167.0,2383.0" style="stroke:#010101; fill:none;"/>
	<path d="M 2165.0,2387.0 L 2164.0,2391.0" style="stroke:#010101; fill:none;"/>
	<path d="M 2163.0,2394.0 L 2162.0,2398.0" style="stroke:#010101; fill:none;"/>
	<path d="M 2468.0,2396.0 L 2470.0,2408.0" style="stroke:#010101; fill:none;"/>
	<path d="M 2386.0,2399.0 L 2390.0,2421.0" style="stroke:#010101; fill:none;"/>
	<path d="M 2161.0,2400.0 L 2160.0,2402.0" style="stroke:#010101; fill:none;"/>
	<path d="M 2443.0,2408.0 L 2443.0,2409.0" style="stroke:#010101; fill:none;"/>
	<path d="M 2253.0,2410.0 L 2252.0,2436.0" style="stroke:#010101; fill:none;"/>
	<path d="M 2444.0,2412.0 L 2448.0,2434.0" style="stroke:#010101; fill:none;"/>
	<path d="M 2373.0,2413.0 L 2374.0,2424.0" style="stroke:#010101; fill:none;"/>
	<path d="M 2304.0,2414.0 L 2304.0,2415.0" style="stroke:#010101; fill:none;"/>
	<path d="M 2303.0,2418.0 L 2301.0,2438.0" style="stroke:#010101; fill:none;"/>
	<path d="M 2287.0,2420.0 L 2286.0,2450.0" style="stroke:#010101; fill:none;"/>
	<path d="M 2267.0,2421.0 L 2264.0,2440.0" style="stroke:#010101; fill:none;"/>
	<path d="M 1650.0,2422.0 L 1646.0,2427.0" style="stroke:#010101; fill:none;"/>
	<path d="M 2170.0,2425.0 L 2164.0,2444.0" style="stroke:#010101; fill:none;"/>
	<path d="M 2375.0,2426.0 L 2375.0,2429.0" style="stroke:#010101; fill:none;"/>
	<path d="M 1645.0,2429.0 L 1645.0,2430.0" style="stroke:#010101; fill:none;"/>
	<path d="M 1718.0,2437.0 L 1718.0,2442.0" style="stroke:#010101; fill:none;"/>
	<path d="M 2424.0,2438.0 L 2425.0,2447.0" style="stroke:#010101; fill:none;"/>
	<path d="M 766.0,2440.0 C 766.989,2447.56 772.425,2454.47 776.15,2461.0 C 782.474,2472.08 788.185,2483.52 793.742,2495.0 C 797.065,2501.87 798.718,2510.81 808.0,2507.0 L 792.753,2474.0 L 778.0,2442.0" style="stroke:#010101; fill:none;"/>
	<path d="M 786.0,2443.0 C 788.227,2455.53 796.607,2470.04 803.0,2481.0" style="stroke:#010101; fill:none;"/>
	<path d="M 807.0,2446.0 L 821.0,2502.0" style="stroke:#010101; fill:none;"/>
	<path d="M 795.0,2449.0 L 806.0,2480.0" style="stroke:#010101; fill:none;"/>
	<path d="M 813.0,2451.0 C 815.457,2462.75 819.002,2482.38 826.0,2492.0" style="stroke:#010101; fill:none;"/>
	<path d="M 801.0,2452.0 C 806.028,2463.34 816.004,2484.04 810.0,2496.0" style="stroke:#010101; fill:none;"/>
	<path d="M 1578.0,2453.0 L 1565.0,2490.0" style="stroke:#010101; fill:none;"/>
	<path d="M 2182.0,2454.0 L 2179.0,2473.0" style="stroke:#010101; fill:none;"/>
	<path d="M 2101.0,2471.0 L 2096.0,2481.0" style="stroke:#010101; fill:none;"/>
	<path d="M 1744.0,2473.0 L 1746.0,2487.0" style="stroke:#010101; fill:none;"/>
	<path d="M 1538.0,2476.0 L 1528.0,2498.0" style="stroke:#010101; fill:none;"/>
	<path d="M 992.0,2524.0 C 996.522,2528.45 1005.34,2531.89 1011.0,2535.43 C 1024.16,2543.64 1037.3,2552.52 1050.0,2561.44 C 1089.56,2589.21 1128.06,2618.48 1168.0,2645.75 C 1206.51,2672.03 1245.77,2697.66 1288.0,2717.68 C 1299.38,2723.07 1311.44,2724.42 1323.0,2728.93 C 1341.68,2736.2 1359.16,2746.46 1378.0,2753.3 C 1409.58,2764.78 1443.5,2771.02 1476.0,2779.48 C 1532.15,2794.1 1588.62,2807.42 1647.0,2805.99 C 1677.31,2805.24 1707.41,2792.91 1736.0,2784.03 C 1768.99,2773.77 1802.71,2765.68 1836.0,2756.42 C 1976.01,2717.51 2119.3,2680.48 2250.0,2615.92 C 2297.88,2592.26 2348.08,2568.07 2392.0,2537.56 C 2418.18,2519.38 2440.8,2491.55 2469.0,2477.0" style="stroke:#010101; fill:none;"/>
	<path d="M 808.0,2483.0 L 807.0,2486.0" style="stroke:#010101; fill:none;"/>
	<path d="M 2095.0,2483.0 L 2095.0,2484.0" style="stroke:#010101; fill:none;"/>
	<path d="M 1789.0,2486.0 C 1793.3,2492.11 1792.9,2496.9 1792.0,2504.0" style="stroke:#010101; fill:none;"/>
	<path d="M 2105.0,2525.0 L 2113.62,2499.0 L 2118.0,2487.0" style="stroke:#010101; fill:none;"/>
	<path d="M 809.0,2487.0 L 809.0,2489.0" style="stroke:#010101; fill:none;"/>
	<path d="M 812.0,2488.0 L 811.0,2492.0" style="stroke:#010101; fill:none;"/>
	<path d="M 811.0,2492.0 L 809.0,2494.0" style="stroke:#010101; fill:none;"/>
	<path d="M 1830.0,2492.0 L 1830.0,2500.0" style="stroke:#010101; fill:none;"/>
	<path d="M 814.0,2495.0 L 811.0,2499.0" style="stroke:#010101; fill:none;"/>
	<path d="M 815.0,2498.0 L 815.0,2501.0" style="stroke:#010101; fill:none;"/>
	<path d="M 1528.0,2500.0 L 1528.0,2502.0" style="stroke:#010101; fill:none;"/>
	<path d="M 1830.0,2502.0 L 1830.0,2503.0" style="stroke:#010101; fill:none;"/>
	<path d="M 661.0,2509.0 C 675.668,2510.85 689.288,2504.48 704.0,2506.29 C 716.927,2507.87 732.744,2510.17 745.0,2514.55 C 752.857,2517.35 760.345,2524.18 769.0,2523.94 C 779.402,2523.65 793.711,2514.9 802.0,2509.0" style="stroke:#010101; fill:none;"/>
	<path d="M 808.0,2507.0 L 812.0,2507.0" style="stroke:#010101; fill:none;"/>
	<path d="M 1648.0,2508.0 C 1639.86,2518.26 1633.47,2531.32 1630.0,2544.0" style="stroke:#010101; fill:none;"/>
	<path d="M 824.0,2510.0 L 835.0,2510.0" style="stroke:#010101; fill:none;"/>
	<path d="M 2195.0,2519.0 L 2192.0,2530.0" style="stroke:#010101; fill:none;"/>
	<path d="M 992.0,2526.0 C 994.615,2534.28 1000.35,2540.64 1004.65,2548.0 C 1014.25,2564.41 1024.89,2585.0 1027.7,2604.0 C 1029.21,2614.22 1025.03,2622.2 1024.0,2632.0" style="stroke:#010101; fill:none;"/>
	<path d="M 2104.0,2528.0 L 2104.0,2529.0" style="stroke:#010101; fill:none;"/>
	<path d="M 1659.0,2531.0 L 1648.0,2565.0" style="stroke:#010101; fill:none;"/>
	<path d="M 1673.0,2536.0 L 1672.0,2537.0" style="stroke:#010101; fill:none;"/>
	<path d="M 1671.0,2539.0 L 1657.0,2565.0" style="stroke:#010101; fill:none;"/>
	<path d="M 1629.0,2546.0 L 1629.0,2547.0" style="stroke:#010101; fill:none;"/>
	<path d="M 617.0,2564.0 L 617.0,2565.0" style="stroke:#010101; fill:none;"/>
	<path d="M 620.0,2566.0 L 621.0,2567.0" style="stroke:#010101; fill:none;"/>
	<path d="M 1894.0,2566.0 L 1892.0,2576.0" style="stroke:#010101; fill:none;"/>
	<path d="M 1656.0,2567.0 L 1655.0,2568.0" style="stroke:#010101; fill:none;"/>
	<path d="M 1871.0,2574.0 C 1874.83,2576.24 1875.76,2578.65 1876.0,2583.0" style="stroke:#010101; fill:none;"/>
	<path d="M 2172.0,2577.0 L 2162.0,2602.0" style="stroke:#010101; fill:none;"/>
	<path d="M 1891.0,2578.0 L 1890.0,2579.0" style="stroke:#010101; fill:none;"/>
	<path d="M 639.0,2579.0 L 640.0,2580.0" style="stroke:#010101; fill:none;"/>
	<path d="M 645.0,2584.0 L 647.0,2586.0" style="stroke:#010101; fill:none;"/>
	<path d="M 1847.0,2584.0 L 1848.0,2590.0" style="stroke:#010101; fill:none;"/>
	<path d="M 1812.0,2592.0 L 1810.0,2604.0" style="stroke:#010101; fill:none;"/>
	<path d="M 2009.0,2623.0 C 2012.23,2633.18 2009.82,2641.74 2009.0,2652.0" style="stroke:#010101; fill:none;"/>
	<path d="M 1020.0,2636.0 L 1019.0,2638.0" style="stroke:#010101; fill:none;"/>
	<path d="M 1964.0,2654.0 L 1965.0,2655.0" style="stroke:#010101; fill:none;"/>
	<path d="M 1943.0,2655.0 L 1940.0,2666.0" style="stroke:#010101; fill:none;"/>
	<path d="M 2341.0,2655.0 L 2343.0,2655.0" style="stroke:#010101; fill:none;"/>
	<path d="M 2345.0,2656.0 L 2346.0,2656.0" style="stroke:#010101; fill:none;"/>
	<path d="M 1966.0,2657.0 L 1966.0,2659.0" style="stroke:#010101; fill:none;"/>
	<path d="M 2349.0,2657.0 L 2351.0,2657.0" style="stroke:#010101; fill:none;"/>
	<path d="M 2354.0,2658.0 L 2446.0,2670.0" style="stroke:#010101; fill:none;"/>
	<path d="M 1024.0,2663.0 L 1025.0,2664.0" style="stroke:#010101; fill:none;"/>
	<path d="M 2531.0,2685.0 L 2586.0,2716.0" style="stroke:#010101; fill:none;"/>
	<path d="M 2077.0,2740.0 L 2164.0,2734.0" style="stroke:#010101; fill:none;"/>
	<path d="M 2180.0,2734.0 L 2225.0,2738.91 L 2285.0,2739.0" style="stroke:#010101; fill:none;"/>
	<path d="M 1710.0,2735.0 L 1699.0,2746.0" style="stroke:#010101; fill:none;"/>
	<path d="M 2172.0,2736.0 L 2174.0,2737.0" style="stroke:#010101; fill:none;"/>
	<path d="M 2179.0,2739.0 L 2182.0,2739.0" style="stroke:#010101; fill:none;"/>
	<path d="M 1644.0,2741.0 L 1645.0,2741.0" style="stroke:#010101; fill:none;"/>
	<path d="M 1642.0,2742.0 L 1635.0,2749.0" style="stroke:#010101; fill:none;"/>
	<path d="M 1731.0,2749.0 L 1730.0,2759.0" style="stroke:#010101; fill:none;"/>
	<path d="M 2396.0,2786.0 L 2415.0,2785.0" style="stroke:#010101; fill:none;"/>
	<path d="M 2345.0,2790.0 C 2358.37,2793.15 2376.77,2789.16 2390.0,2786.0" style="stroke:#010101; fill:none;"/>
	<path d="M 1686.0,2834.0 L 1687.0,2834.0" style="stroke:#010101; fill:none;"/>
	<path d="M 1260.0,2865.0 L 1305.0,2859.09 L 1375.0,2856.91 L 1462.0,2849.09 L 1567.0,2847.83 L 1681.0,2835.0" style="stroke:#010101; fill:none;"/>
	<path d="M 1248.0,2852.0 L 1254.0,2858.0" style="stroke:#010101; fill:none;"/>
</svg>
