<?xml version="1.0" ?>
<svg baseProfile="full" height="3378" version="1.1" width="2657" xmlns="http://www.w3.org/2000/svg" xmlns:ev="http://www.w3.org/2001/xml-events" xmlns:xlink="http://www.w3.org/1999/xlink">
	<defs/>
	<path d="M 884.0,396.0 L 885.0,397.0" style="stroke:#010101; fill:none;"/>
	<path d="M 983.0,417.0 L 982.0,418.0" style="stroke:#010101; fill:none;"/>
	<path d="M 917.0,418.0 L 921.0,422.0" style="stroke:#010101; fill:none;"/>
	<path d="M 1011.0,421.0 L 1028.0,418.0" style="stroke:#010101; fill:none;"/>
	<path d="M 852.0,422.0 L 859.0,425.0" style="stroke:#010101; fill:none;"/>
	<path d="M 807.0,476.0 L 808.0,476.0" style="stroke:#010101; fill:none;"/>
	<path d="M 1836.0,680.0 L 1848.0,688.0" style="stroke:#010101; fill:none;"/>
	<path d="M 1847.0,695.0 L 1848.0,696.0" style="stroke:#010101; fill:none;"/>
	<path d="M 1834.0,696.0 L 1854.0,714.0" style="stroke:#010101; fill:none;"/>
	<path d="M 1856.0,715.0 L 1859.0,718.0" style="stroke:#010101; fill:none;"/>
	<path d="M 1863.0,721.0 L 1864.0,722.0" style="stroke:#010101; fill:none;"/>
	<path d="M 1005.0,733.0 L 1006.0,733.0" style="stroke:#010101; fill:none;"/>
	<path d="M 1001.0,734.0 L 1002.0,734.0" style="stroke:#010101; fill:none;"/>
	<path d="M 998.0,735.0 L 999.0,735.0" style="stroke:#010101; fill:none;"/>
	<path d="M 994.0,736.0 L 996.0,736.0" style="stroke:#010101; fill:none;"/>
	<path d="M 991.0,737.0 L 992.0,737.0" style="stroke:#010101; fill:none;"/>
	<path d="M 988.0,738.0 L 989.0,738.0" style="stroke:#010101; fill:none;"/>
	<path d="M 985.0,739.0 L 986.0,739.0" style="stroke:#010101; fill:none;"/>
	<path d="M 947.0,752.0 L 983.0,740.0" style="stroke:#010101; fill:none;"/>
	<path d="M 900.0,764.0 C 914.884,757.893 928.669,753.135 945.0,753.0" style="stroke:#010101; fill:none;"/>
	<path d="M 734.0,768.0 C 740.665,765.504 748.061,765.385 755.0,763.765 C 774.542,759.201 791.504,755.186 812.0,757.17 C 828.049,758.723 841.651,764.702 858.0,764.0" style="stroke:#010101; fill:none;"/>
	<path d="M 627.0,763.0 L 675.0,768.0" style="stroke:#010101; fill:none;"/>
	<path d="M 621.0,764.0 L 623.0,764.0" style="stroke:#010101; fill:none;"/>
	<path d="M 617.0,765.0 L 618.0,765.0" style="stroke:#010101; fill:none;"/>
	<path d="M 860.0,765.0 L 864.0,765.0" style="stroke:#010101; fill:none;"/>
	<path d="M 614.0,766.0 L 615.0,766.0" style="stroke:#010101; fill:none;"/>
	<path d="M 684.0,767.0 L 731.0,766.0" style="stroke:#010101; fill:none;"/>
	<path d="M 605.0,769.0 L 606.0,769.0" style="stroke:#010101; fill:none;"/>
	<path d="M 678.0,769.0 L 680.0,769.0" style="stroke:#010101; fill:none;"/>
	<path d="M 601.0,770.0 L 603.0,770.0" style="stroke:#010101; fill:none;"/>
	<path d="M 598.0,771.0 L 599.0,771.0" style="stroke:#010101; fill:none;"/>
	<path d="M 594.0,772.0 L 596.0,772.0" style="stroke:#010101; fill:none;"/>
	<path d="M 509.0,803.0 C 531.517,786.875 564.584,776.692 592.0,773.0" style="stroke:#010101; fill:none;"/>
	<path d="M 1205.0,845.0 C 1241.26,845.0 1278.1,843.643 1313.0,855.0" style="stroke:#010101; fill:none;"/>
	<path d="M 1198.0,846.0 L 1203.0,846.0" style="stroke:#010101; fill:none;"/>
	<path d="M 1195.0,847.0 L 1196.0,847.0" style="stroke:#010101; fill:none;"/>
	<path d="M 1150.0,853.0 L 1157.0,852.0" style="stroke:#010101; fill:none;"/>
	<path d="M 954.0,893.0 C 970.227,890.938 986.957,892.565 1003.0,889.54 C 1029.41,884.56 1055.64,875.313 1082.0,869.35 C 1103.97,864.379 1125.23,854.0 1148.0,854.0" style="stroke:#010101; fill:none;"/>
	<path d="M 1940.0,888.0 L 1942.0,890.0" style="stroke:#010101; fill:none;"/>
	<path d="M 951.0,894.0 L 952.0,894.0" style="stroke:#010101; fill:none;"/>
	<path d="M 948.0,895.0 L 949.0,895.0" style="stroke:#010101; fill:none;"/>
	<path d="M 945.0,896.0 L 946.0,896.0" style="stroke:#010101; fill:none;"/>
	<path d="M 942.0,897.0 L 943.0,897.0" style="stroke:#010101; fill:none;"/>
	<path d="M 939.0,898.0 L 940.0,898.0" style="stroke:#010101; fill:none;"/>
	<path d="M 936.0,899.0 L 937.0,899.0" style="stroke:#010101; fill:none;"/>
	<path d="M 932.0,900.0 L 934.0,900.0" style="stroke:#010101; fill:none;"/>
	<path d="M 924.0,902.0 L 930.0,901.0" style="stroke:#010101; fill:none;"/>
	<path d="M 918.0,903.0 L 922.0,903.0" style="stroke:#010101; fill:none;"/>
	<path d="M 912.0,904.0 L 916.0,904.0" style="stroke:#010101; fill:none;"/>
	<path d="M 907.0,905.0 L 910.0,905.0" style="stroke:#010101; fill:none;"/>
	<path d="M 901.0,906.0 L 904.0,906.0" style="stroke:#010101; fill:none;"/>
	<path d="M 897.0,907.0 L 898.0,907.0" style="stroke:#010101; fill:none;"/>
	<path d="M 747.0,927.0 C 763.456,923.605 780.334,925.381 797.0,922.586 C 827.186,917.524 859.349,908.02 890.0,908.0" style="stroke:#010101; fill:none;"/>
	<path d="M 892.0,909.0 L 893.0,909.0" style="stroke:#010101; fill:none;"/>
	<path d="M 1942.0,911.0 L 1986.0,954.0" style="stroke:#010101; fill:none;"/>
	<path d="M 641.0,920.0 L 654.0,919.0" style="stroke:#010101; fill:none;"/>
	<path d="M 657.0,920.0 L 673.0,920.0" style="stroke:#010101; fill:none;"/>
	<path d="M 677.0,921.0 L 721.0,924.0" style="stroke:#010101; fill:none;"/>
	<path d="M 610.0,928.0 L 629.0,922.0" style="stroke:#010101; fill:none;"/>
	<path d="M 723.0,925.0 L 725.0,925.0" style="stroke:#010101; fill:none;"/>
	<path d="M 727.0,926.0 L 730.0,926.0" style="stroke:#010101; fill:none;"/>
	<path d="M 1256.0,971.0 L 1286.0,976.0" style="stroke:#010101; fill:none;"/>
	<path d="M 1122.0,992.0 L 1159.0,983.095 L 1221.0,974.0" style="stroke:#010101; fill:none;"/>
	<path d="M 1288.0,977.0 L 1293.0,978.0" style="stroke:#010101; fill:none;"/>
	<path d="M 1295.0,979.0 L 1296.0,979.0" style="stroke:#010101; fill:none;"/>
	<path d="M 1298.0,980.0 L 1303.0,981.0" style="stroke:#010101; fill:none;"/>
	<path d="M 1979.0,980.0 L 1991.0,993.0" style="stroke:#010101; fill:none;"/>
	<path d="M 1305.0,982.0 L 1306.0,982.0" style="stroke:#010101; fill:none;"/>
	<path d="M 1308.0,983.0 L 1309.0,983.0" style="stroke:#010101; fill:none;"/>
	<path d="M 1311.0,984.0 L 1312.0,984.0" style="stroke:#010101; fill:none;"/>
	<path d="M 1315.0,985.0 L 1316.0,985.0" style="stroke:#010101; fill:none;"/>
	<path d="M 1318.0,986.0 L 1319.0,986.0" style="stroke:#010101; fill:none;"/>
	<path d="M 1095.0,999.0 L 1096.0,999.0" style="stroke:#010101; fill:none;"/>
	<path d="M 1091.0,1000.0 L 1092.0,1000.0" style="stroke:#010101; fill:none;"/>
	<path d="M 1086.0,1001.0 L 1088.0,1001.0" style="stroke:#010101; fill:none;"/>
	<path d="M 1081.0,1002.0 L 1084.0,1002.0" style="stroke:#010101; fill:none;"/>
	<path d="M 1076.0,1003.0 L 1079.0,1003.0" style="stroke:#010101; fill:none;"/>
	<path d="M 1057.0,1009.0 L 1074.0,1004.0" style="stroke:#010101; fill:none;"/>
	<path d="M 1050.0,1012.0 L 1053.0,1011.0" style="stroke:#010101; fill:none;"/>
	<path d="M 1031.0,1018.0 L 1032.0,1018.0" style="stroke:#010101; fill:none;"/>
	<path d="M 1025.0,1020.0 L 1026.0,1020.0" style="stroke:#010101; fill:none;"/>
	<path d="M 967.0,1042.0 L 996.0,1032.32 L 1023.0,1021.0" style="stroke:#010101; fill:none;"/>
	<path d="M 1999.0,1022.0 L 2003.0,1026.0" style="stroke:#010101; fill:none;"/>
	<path d="M 2005.0,1028.0 L 2006.0,1029.0" style="stroke:#010101; fill:none;"/>
	<path d="M 614.0,1045.0 L 630.0,1045.0" style="stroke:#010101; fill:none;"/>
	<path d="M 564.0,1051.0 L 612.0,1046.0" style="stroke:#010101; fill:none;"/>
	<path d="M 632.0,1046.0 L 675.0,1053.0" style="stroke:#010101; fill:none;"/>
	<path d="M 837.0,1048.0 L 835.0,1086.0" style="stroke:#010101; fill:none;"/>
	<path d="M 683.0,1053.0 L 722.0,1050.0" style="stroke:#010101; fill:none;"/>
	<path d="M 907.0,1053.0 L 947.0,1050.0" style="stroke:#010101; fill:none;"/>
	<path d="M 727.0,1052.0 C 741.44,1048.03 767.332,1060.25 780.0,1067.0" style="stroke:#010101; fill:none;"/>
	<path d="M 560.0,1052.0 L 562.0,1052.0" style="stroke:#010101; fill:none;"/>
	<path d="M 557.0,1053.0 L 558.0,1053.0" style="stroke:#010101; fill:none;"/>
	<path d="M 545.0,1060.0 L 546.0,1060.0" style="stroke:#010101; fill:none;"/>
	<path d="M 838.0,1102.0 C 847.877,1133.09 839.26,1164.53 839.0,1196.0" style="stroke:#010101; fill:none;"/>
	<path d="M 1128.0,1228.0 C 1126.88,1220.53 1135.68,1213.9 1141.0,1209.67 C 1155.97,1197.76 1173.77,1185.21 1192.0,1179.0" style="stroke:#010101; fill:none;"/>
	<path d="M 1140.0,1202.0 C 1144.38,1192.05 1154.36,1184.56 1164.0,1180.0" style="stroke:#010101; fill:none;"/>
	<path d="M 1142.0,1232.0 C 1146.29,1223.74 1154.71,1217.67 1162.0,1212.13 C 1177.58,1200.29 1194.88,1187.58 1213.0,1180.0" style="stroke:#010101; fill:none;"/>
	<path d="M 1152.0,1239.0 C 1154.27,1230.92 1167.09,1223.77 1174.0,1219.31 C 1191.54,1207.97 1210.09,1197.88 1229.0,1189.12 C 1235.82,1185.97 1241.49,1181.56 1249.0,1180.0" style="stroke:#010101; fill:none;"/>
	<path d="M 1230.0,1189.0 C 1249.5,1199.46 1261.34,1181.81 1280.0,1181.0" style="stroke:#010101; fill:none;"/>
	<path d="M 1218.0,1182.0 L 1238.0,1184.0" style="stroke:#010101; fill:none;"/>
	<path d="M 1282.0,1182.0 L 1293.0,1184.0" style="stroke:#010101; fill:none;"/>
	<path d="M 1215.0,1183.0 L 1216.0,1183.0" style="stroke:#010101; fill:none;"/>
	<path d="M 1246.0,1183.0 L 1259.0,1185.0" style="stroke:#010101; fill:none;"/>
	<path d="M 1313.0,1183.0 L 1314.0,1183.0" style="stroke:#010101; fill:none;"/>
	<path d="M 1319.0,1183.0 C 1341.08,1187.57 1363.31,1197.75 1384.0,1206.58 C 1392.48,1210.2 1403.64,1213.14 1410.0,1220.0 L 1405.0,1224.0 C 1408.65,1226.94 1425.46,1238.76 1428.65,1229.83 C 1430.53,1224.59 1413.51,1220.1 1410.0,1220.0" style="stroke:#010101; fill:none;"/>
	<path d="M 1305.0,1185.0 L 1311.0,1184.0" style="stroke:#010101; fill:none;"/>
	<path d="M 1267.0,1185.0 L 1286.0,1191.0 C 1280.35,1195.36 1274.25,1195.79 1268.0,1198.67 C 1244.04,1209.69 1216.31,1216.43 1196.0,1234.0" style="stroke:#010101; fill:none;"/>
	<path d="M 1295.0,1185.0 L 1299.0,1187.0 L 1293.0,1191.0 L 1323.0,1200.42 L 1336.0,1204.59 L 1343.0,1201.0 C 1330.78,1194.56 1312.88,1187.63 1299.0,1187.0" style="stroke:#010101; fill:none;"/>
	<path d="M 1201.0,1187.0 L 1221.0,1190.0" style="stroke:#010101; fill:none;"/>
	<path d="M 1174.0,1189.0 L 1193.0,1190.0" style="stroke:#010101; fill:none;"/>
	<path d="M 1370.0,1189.0 C 1388.82,1194.38 1410.0,1204.32 1427.0,1214.0 L 1415.0,1220.0" style="stroke:#010101; fill:none;"/>
	<path d="M 1286.0,1191.0 L 1293.0,1191.0" style="stroke:#010101; fill:none;"/>
	<path d="M 1253.0,1192.0 L 1269.0,1196.0" style="stroke:#010101; fill:none;"/>
	<path d="M 1246.0,1194.0 C 1223.0,1210.37 1193.69,1218.02 1172.04,1236.62 C 1154.68,1251.54 1142.43,1276.3 1133.58,1297.0 C 1128.81,1308.16 1119.74,1323.63 1121.0,1336.0" style="stroke:#010101; fill:none;"/>
	<path d="M 1423.0,1196.0 C 1466.9,1213.89 1508.31,1236.71 1550.0,1259.31 C 1565.54,1267.73 1587.25,1286.05 1606.0,1282.0 C 1593.6,1269.43 1571.49,1261.2 1556.0,1252.69 C 1521.68,1233.85 1486.56,1214.18 1450.0,1200.0" style="stroke:#010101; fill:none;"/>
	<path d="M 838.0,1198.0 L 838.0,1204.0" style="stroke:#010101; fill:none;"/>
	<path d="M 1279.0,1198.0 C 1292.98,1199.11 1314.23,1202.29 1326.0,1210.0 C 1309.32,1224.22 1288.42,1234.83 1270.0,1246.69 C 1239.89,1266.09 1210.35,1287.65 1185.0,1313.0" style="stroke:#010101; fill:none;"/>
	<path d="M 1349.0,1198.0 L 1343.0,1201.0" style="stroke:#010101; fill:none;"/>
	<path d="M 1347.0,1202.0 L 1384.0,1216.28 L 1405.0,1224.0" style="stroke:#010101; fill:none;"/>
	<path d="M 1029.0,1204.0 L 1029.0,1207.0" style="stroke:#010101; fill:none;"/>
	<path d="M 799.0,1205.0 L 797.0,1228.0" style="stroke:#010101; fill:none;"/>
	<path d="M 1335.0,1205.0 L 1326.0,1210.0" style="stroke:#010101; fill:none;"/>
	<path d="M 1339.0,1205.0 L 1348.0,1210.0 C 1335.13,1219.4 1318.77,1224.99 1305.0,1233.2 C 1266.99,1255.87 1227.68,1280.99 1195.0,1311.0" style="stroke:#010101; fill:none;"/>
	<path d="M 1483.0,1205.0 C 1495.9,1208.45 1507.24,1215.67 1519.0,1221.74 C 1546.62,1236.0 1573.35,1251.81 1600.0,1267.8 C 1612.72,1275.43 1632.85,1293.76 1648.0,1293.0" style="stroke:#010101; fill:none;"/>
	<path d="M 1120.0,1207.0 C 1107.66,1227.16 1096.09,1249.18 1089.58,1272.0 C 1087.4,1279.64 1083.83,1289.11 1086.0,1297.0 C 1091.96,1291.51 1093.94,1280.36 1097.31,1273.0 C 1104.81,1256.62 1112.99,1240.32 1124.0,1226.0" style="stroke:#010101; fill:none;"/>
	<path d="M 1316.0,1207.0 C 1304.23,1216.67 1289.58,1223.93 1277.0,1232.72 C 1250.48,1251.25 1224.63,1270.6 1199.0,1290.35 C 1183.05,1302.64 1164.01,1312.03 1154.0,1330.0" style="stroke:#010101; fill:none;"/>
	<path d="M 837.0,1208.0 L 837.0,1212.0" style="stroke:#010101; fill:none;"/>
	<path d="M 1273.0,1209.0 L 1272.0,1210.0" style="stroke:#010101; fill:none;"/>
	<path d="M 1332.0,1209.0 L 1340.0,1214.0" style="stroke:#010101; fill:none;"/>
	<path d="M 1510.0,1209.0 L 1560.0,1233.69 L 1637.0,1278.0" style="stroke:#010101; fill:none;"/>
	<path d="M 340.0,1210.0 L 340.0,1213.0" style="stroke:#010101; fill:none;"/>
	<path d="M 1348.0,1210.0 C 1363.6,1211.56 1385.75,1232.75 1400.0,1225.0" style="stroke:#010101; fill:none;"/>
	<path d="M 1270.0,1211.0 C 1228.4,1244.02 1182.64,1276.65 1150.0,1319.0" style="stroke:#010101; fill:none;"/>
	<path d="M 1432.0,1213.0 L 1428.0,1214.0" style="stroke:#010101; fill:none;"/>
	<path d="M 1544.0,1214.0 C 1595.8,1244.23 1650.13,1270.21 1698.0,1307.0 C 1691.92,1310.23 1683.67,1308.07 1677.0,1307.29 C 1666.89,1306.09 1656.18,1306.0 1646.0,1306.0 C 1600.64,1306.0 1556.06,1307.89 1511.0,1312.95 C 1496.86,1314.54 1468.93,1315.45 1458.0,1325.0 L 1494.0,1323.0" style="stroke:#010101; fill:none;"/>
	<path d="M 1345.0,1215.0 L 1359.0,1221.0 C 1341.86,1231.01 1323.48,1239.24 1306.0,1248.69 C 1301.37,1251.2 1289.23,1254.73 1291.0,1261.0 C 1268.9,1274.58 1239.13,1284.84 1223.0,1306.0" style="stroke:#010101; fill:none;"/>
	<path d="M 1431.0,1215.0 L 1451.0,1226.0 L 1437.0,1231.0 L 1468.0,1248.4 L 1481.0,1254.41 L 1521.0,1249.0" style="stroke:#010101; fill:none;"/>
	<path d="M 1281.0,1216.0 C 1242.95,1246.18 1205.37,1273.34 1171.0,1308.0" style="stroke:#010101; fill:none;"/>
	<path d="M 1229.0,1219.0 C 1195.35,1252.65 1161.47,1285.66 1140.0,1329.0" style="stroke:#010101; fill:none;"/>
	<path d="M 1563.0,1219.0 C 1591.23,1229.95 1618.18,1248.12 1644.0,1263.8 C 1679.32,1285.24 1716.67,1306.89 1748.0,1334.0" style="stroke:#010101; fill:none;"/>
	<path d="M 1145.0,1221.0 C 1115.04,1250.97 1096.68,1283.66 1089.0,1325.0" style="stroke:#010101; fill:none;"/>
	<path d="M 1359.0,1221.0 L 1368.0,1225.0 L 1336.0,1239.26 L 1291.0,1261.0" style="stroke:#010101; fill:none;"/>
	<path d="M 1378.0,1221.0 L 1372.0,1225.0 L 1377.0,1230.0" style="stroke:#010101; fill:none;"/>
	<path d="M 1062.0,1224.0 C 1054.19,1240.51 1048.65,1259.11 1045.0,1277.0 C 1043.26,1285.54 1041.35,1294.55 1044.0,1303.0" style="stroke:#010101; fill:none;"/>
	<path d="M 1368.0,1225.0 L 1372.0,1225.0" style="stroke:#010101; fill:none;"/>
	<path d="M 1452.0,1226.0 L 1496.0,1250.0" style="stroke:#010101; fill:none;"/>
	<path d="M 1161.0,1228.0 L 1161.0,1229.0" style="stroke:#010101; fill:none;"/>
	<path d="M 1172.0,1228.0 L 1151.0,1252.0 L 1152.0,1250.0" style="stroke:#010101; fill:none;"/>
	<path d="M 1392.0,1228.0 L 1342.0,1252.25 L 1240.0,1305.0" style="stroke:#010101; fill:none;"/>
	<path d="M 1396.0,1228.0 C 1403.34,1234.03 1410.25,1238.43 1419.0,1233.0" style="stroke:#010101; fill:none;"/>
	<path d="M 574.0,1229.0 C 596.024,1232.25 620.432,1252.34 634.0,1269.0" style="stroke:#010101; fill:none;"/>
	<path d="M 591.0,1229.0 C 617.126,1239.29 635.206,1261.44 653.0,1282.0" style="stroke:#010101; fill:none;"/>
	<path d="M 980.0,1229.0 L 980.0,1235.0" style="stroke:#010101; fill:none;"/>
	<path d="M 1430.0,1230.0 L 1437.0,1231.0" style="stroke:#010101; fill:none;"/>
	<path d="M 835.0,1231.0 L 835.0,1236.0" style="stroke:#010101; fill:none;"/>
	<path d="M 1161.0,1232.0 L 1151.0,1249.0" style="stroke:#010101; fill:none;"/>
	<path d="M 546.0,1233.0 C 569.723,1234.87 603.243,1244.13 620.911,1261.11 C 642.863,1282.2 653.077,1313.34 668.0,1339.0" style="stroke:#010101; fill:none;"/>
	<path d="M 1202.0,1233.0 C 1174.87,1264.06 1145.22,1293.05 1129.0,1332.0" style="stroke:#010101; fill:none;"/>
	<path d="M 1425.0,1233.0 L 1447.0,1245.0" style="stroke:#010101; fill:none;"/>
	<path d="M 1619.0,1233.0 C 1658.61,1249.5 1696.13,1276.77 1731.0,1301.42 C 1746.15,1312.14 1762.75,1329.37 1780.0,1336.0" style="stroke:#010101; fill:none;"/>
	<path d="M 1092.0,1234.0 C 1077.22,1269.49 1063.0,1299.84 1063.0,1339.0" style="stroke:#010101; fill:none;"/>
	<path d="M 1607.0,1235.0 L 1608.0,1235.0" style="stroke:#010101; fill:none;"/>
	<path d="M 964.0,1236.0 L 964.0,1243.0" style="stroke:#010101; fill:none;"/>
	<path d="M 1074.0,1236.0 C 1057.97,1263.18 1053.43,1290.16 1051.0,1321.0" style="stroke:#010101; fill:none;"/>
	<path d="M 1610.0,1236.0 C 1664.7,1258.77 1716.87,1298.4 1763.0,1335.0" style="stroke:#010101; fill:none;"/>
	<path d="M 1457.0,1239.0 L 1468.0,1236.0" style="stroke:#010101; fill:none;"/>
	<path d="M 620.0,1238.0 L 624.0,1240.0" style="stroke:#010101; fill:none;"/>
	<path d="M 641.0,1238.0 C 656.049,1253.05 670.253,1271.08 678.0,1291.0 C 679.49,1294.83 684.328,1307.6 685.0,1307.0" style="stroke:#010101; fill:none;"/>
	<path d="M 1248.0,1309.0 C 1263.09,1295.14 1283.51,1287.38 1302.0,1279.14 C 1323.26,1269.66 1344.2,1259.72 1366.0,1251.42 C 1379.77,1246.19 1394.52,1242.8 1408.0,1237.0" style="stroke:#010101; fill:none;"/>
	<path d="M 834.0,1240.0 C 833.047,1286.18 814.0,1329.99 814.0,1376.0" style="stroke:#010101; fill:none;"/>
	<path d="M 1446.0,1241.0 L 1447.0,1241.0" style="stroke:#010101; fill:none;"/>
	<path d="M 342.0,1242.0 L 342.0,1243.0" style="stroke:#010101; fill:none;"/>
	<path d="M 626.0,1242.0 C 652.535,1263.61 672.01,1290.14 679.0,1324.0" style="stroke:#010101; fill:none;"/>
	<path d="M 529.0,1246.0 C 558.529,1240.52 597.098,1244.11 619.0,1266.0" style="stroke:#010101; fill:none;"/>
	<path d="M 1249.0,1321.0 C 1266.49,1306.52 1291.34,1298.63 1312.0,1289.72 C 1351.68,1272.6 1393.47,1252.8 1436.0,1244.0" style="stroke:#010101; fill:none;"/>
	<path d="M 525.0,1247.0 L 526.0,1247.0" style="stroke:#010101; fill:none;"/>
	<path d="M 933.0,1248.0 L 941.0,1293.0" style="stroke:#010101; fill:none;"/>
	<path d="M 565.0,1250.0 L 589.0,1254.0 C 605.45,1264.74 622.138,1278.69 632.0,1296.0" style="stroke:#010101; fill:none;"/>
	<path d="M 804.0,1250.0 L 804.0,1251.0" style="stroke:#010101; fill:none;"/>
	<path d="M 1150.0,1252.0 C 1133.15,1274.1 1118.74,1304.24 1115.0,1332.0" style="stroke:#010101; fill:none;"/>
	<path d="M 588.0,1253.0 L 589.0,1254.0" style="stroke:#010101; fill:none;"/>
	<path d="M 1019.0,1253.0 C 1012.42,1272.46 999.083,1300.74 1009.0,1321.0" style="stroke:#010101; fill:none;"/>
	<path d="M 1504.0,1253.0 L 1534.0,1270.0" style="stroke:#010101; fill:none;"/>
	<path d="M 627.0,1255.0 L 628.0,1256.0" style="stroke:#010101; fill:none;"/>
	<path d="M 1295.0,1313.0 C 1338.58,1292.54 1387.8,1279.59 1434.0,1266.42 C 1448.41,1262.31 1464.03,1260.27 1478.0,1255.0" style="stroke:#010101; fill:none;"/>
	<path d="M 550.0,1257.0 C 601.998,1257.03 641.584,1309.88 665.0,1350.0" style="stroke:#010101; fill:none;"/>
	<path d="M 1276.0,1269.0 C 1275.56,1262.8 1284.01,1259.55 1289.0,1262.0" style="stroke:#010101; fill:none;"/>
	<path d="M 1677.0,1259.0 L 1722.0,1285.66 L 1795.0,1338.0" style="stroke:#010101; fill:none;"/>
	<path d="M 1285.0,1261.0 L 1287.0,1263.0" style="stroke:#010101; fill:none;"/>
	<path d="M 674.0,1262.0 L 693.265,1306.0 L 697.0,1329.0 C 702.283,1319.1 697.027,1303.45 695.0,1293.0" style="stroke:#010101; fill:none;"/>
	<path d="M 342.0,1263.0 L 342.0,1266.0" style="stroke:#010101; fill:none;"/>
	<path d="M 652.0,1263.0 L 657.0,1271.0" style="stroke:#010101; fill:none;"/>
	<path d="M 933.0,1263.0 L 933.0,1264.0" style="stroke:#010101; fill:none;"/>
	<path d="M 1036.0,1263.0 L 1036.0,1264.0" style="stroke:#010101; fill:none;"/>
	<path d="M 637.0,1265.0 L 639.0,1267.0" style="stroke:#010101; fill:none;"/>
	<path d="M 969.0,1266.0 C 976.515,1288.07 988.875,1310.82 1003.4,1329.0 C 1009.05,1336.08 1015.62,1345.13 1025.0,1347.0" style="stroke:#010101; fill:none;"/>
	<path d="M 1035.0,1266.0 C 1031.85,1281.29 1027.67,1296.35 1026.96,1312.0 C 1026.76,1316.52 1024.6,1322.47 1026.46,1326.83 C 1029.37,1333.62 1040.42,1337.48 1047.0,1339.0" style="stroke:#010101; fill:none;"/>
	<path d="M 1276.0,1266.0 L 1278.0,1268.0" style="stroke:#010101; fill:none;"/>
	<path d="M 1267.0,1274.0 C 1266.68,1269.49 1270.0,1268.19 1274.0,1267.0" style="stroke:#010101; fill:none;"/>
	<path d="M 1297.0,1319.0 C 1315.73,1309.01 1336.93,1303.02 1357.0,1296.33 C 1411.17,1278.28 1466.86,1267.0 1524.0,1267.0" style="stroke:#010101; fill:none;"/>
	<path d="M 639.0,1268.0 L 643.0,1272.0" style="stroke:#010101; fill:none;"/>
	<path d="M 341.0,1271.0 L 341.0,1272.0" style="stroke:#010101; fill:none;"/>
	<path d="M 530.0,1271.0 L 553.0,1287.0" style="stroke:#010101; fill:none;"/>
	<path d="M 570.0,1271.0 C 596.217,1278.55 623.041,1306.02 640.424,1326.0 C 646.247,1332.69 654.219,1338.29 657.0,1347.0" style="stroke:#010101; fill:none;"/>
	<path d="M 1267.0,1271.0 L 1269.0,1273.0" style="stroke:#010101; fill:none;"/>
	<path d="M 1213.0,1305.0 L 1228.0,1292.42 L 1265.0,1272.0" style="stroke:#010101; fill:none;"/>
	<path d="M 643.0,1273.0 C 654.737,1290.25 668.185,1308.66 674.0,1329.0" style="stroke:#010101; fill:none;"/>
	<path d="M 919.0,1274.0 L 924.0,1302.0" style="stroke:#010101; fill:none;"/>
	<path d="M 1584.0,1280.0 C 1561.99,1280.0 1539.87,1279.7 1518.0,1282.29 C 1508.52,1283.41 1495.78,1287.58 1488.0,1281.0 C 1512.54,1273.54 1541.59,1274.0 1567.0,1274.0" style="stroke:#010101; fill:none;"/>
	<path d="M 340.0,1276.0 L 340.0,1277.0" style="stroke:#010101; fill:none;"/>
	<path d="M 552.0,1276.0 C 576.494,1283.06 592.296,1305.22 611.0,1320.67 C 618.514,1326.88 629.729,1329.68 636.0,1337.0 C 619.395,1341.77 589.642,1320.24 583.0,1306.0" style="stroke:#010101; fill:none;"/>
	<path d="M 670.0,1279.0 L 671.0,1280.0" style="stroke:#010101; fill:none;"/>
	<path d="M 506.0,1281.0 L 525.0,1288.0" style="stroke:#010101; fill:none;"/>
	<path d="M 700.0,1280.0 C 711.803,1297.27 714.78,1325.98 710.0,1346.0" style="stroke:#010101; fill:none;"/>
	<path d="M 1131.0,1280.0 L 1131.0,1285.0" style="stroke:#010101; fill:none;"/>
	<path d="M 671.0,1281.0 L 672.0,1282.0" style="stroke:#010101; fill:none;"/>
	<path d="M 1491.0,1285.0 C 1486.81,1286.11 1484.86,1285.18 1482.0,1282.0 L 1488.0,1281.0" style="stroke:#010101; fill:none;"/>
	<path d="M 1484.0,1286.0 L 1477.0,1287.0 L 1476.0,1283.0 L 1482.0,1282.0" style="stroke:#010101; fill:none;"/>
	<path d="M 1606.0,1282.0 L 1618.0,1288.0 C 1612.19,1292.18 1605.8,1290.0 1599.0,1290.0 C 1583.03,1289.99 1567.04,1288.92 1551.0,1289.0 C 1511.32,1289.19 1470.91,1294.6 1432.0,1302.4 C 1416.17,1305.57 1394.83,1308.65 1382.0,1319.0 L 1387.0,1319.0 L 1387.0,1319.0" style="stroke:#010101; fill:none;"/>
	<path d="M 672.0,1283.0 L 673.0,1284.0" style="stroke:#010101; fill:none;"/>
	<path d="M 1476.0,1288.0 L 1469.0,1284.0 L 1476.0,1283.0" style="stroke:#010101; fill:none;"/>
	<path d="M 1128.0,1284.0 L 1130.0,1287.0" style="stroke:#010101; fill:none;"/>
	<path d="M 1471.0,1288.0 C 1467.15,1288.86 1465.61,1287.89 1463.0,1285.0 L 1469.0,1284.0" style="stroke:#010101; fill:none;"/>
	<path d="M 535.0,1285.0 C 550.099,1304.82 577.257,1331.18 602.0,1338.0" style="stroke:#010101; fill:none;"/>
	<path d="M 673.0,1285.0 L 674.0,1286.0" style="stroke:#010101; fill:none;"/>
	<path d="M 1128.0,1285.0 C 1117.6,1297.56 1101.47,1325.1 1103.0,1342.0" style="stroke:#010101; fill:none;"/>
	<path d="M 1465.0,1289.0 L 1458.0,1286.0 L 1463.0,1285.0" style="stroke:#010101; fill:none;"/>
	<path d="M 1460.0,1290.0 C 1456.15,1290.86 1454.61,1289.89 1452.0,1287.0 L 1458.0,1286.0" style="stroke:#010101; fill:none;"/>
	<path d="M 494.0,1287.0 L 521.0,1292.0" style="stroke:#010101; fill:none;"/>
	<path d="M 674.0,1287.0 L 675.0,1288.0" style="stroke:#010101; fill:none;"/>
	<path d="M 1127.0,1287.0 L 1129.0,1289.0" style="stroke:#010101; fill:none;"/>
	<path d="M 1454.0,1291.0 L 1446.0,1288.0 L 1452.0,1287.0" style="stroke:#010101; fill:none;"/>
	<path d="M 1449.0,1292.0 L 1441.0,1289.0 L 1446.0,1288.0" style="stroke:#010101; fill:none;"/>
	<path d="M 1619.0,1288.0 C 1624.47,1291.95 1630.45,1292.08 1637.0,1292.0" style="stroke:#010101; fill:none;"/>
	<path d="M 565.0,1289.0 L 578.0,1301.0" style="stroke:#010101; fill:none;"/>
	<path d="M 675.0,1289.0 L 676.0,1290.0" style="stroke:#010101; fill:none;"/>
	<path d="M 1444.0,1293.0 L 1436.0,1290.0 L 1441.0,1289.0" style="stroke:#010101; fill:none;"/>
	<path d="M 469.0,1290.0 L 504.0,1294.72 L 526.0,1302.0 L 521.0,1295.0" style="stroke:#010101; fill:none;"/>
	<path d="M 676.0,1290.0 L 677.0,1293.0" style="stroke:#010101; fill:none;"/>
	<path d="M 1327.0,1317.0 L 1384.0,1300.63 L 1436.0,1290.0" style="stroke:#010101; fill:none;"/>
	<path d="M 1617.0,1291.0 L 1620.0,1291.0" style="stroke:#010101; fill:none;"/>
	<path d="M 452.0,1292.0 C 475.905,1292.0 499.261,1296.83 521.0,1307.0" style="stroke:#010101; fill:none;"/>
	<path d="M 522.0,1293.0 L 528.0,1295.0" style="stroke:#010101; fill:none;"/>
	<path d="M 677.0,1294.0 L 678.0,1295.0" style="stroke:#010101; fill:none;"/>
	<path d="M 1630.0,1294.0 C 1634.52,1297.25 1640.22,1298.35 1645.0,1295.0 C 1652.6,1300.02 1676.85,1302.18 1685.0,1298.0" style="stroke:#010101; fill:none;"/>
	<path d="M 949.0,1295.0 C 967.75,1319.33 990.001,1346.5 1019.0,1359.0" style="stroke:#010101; fill:none;"/>
	<path d="M 1359.0,1317.0 L 1439.0,1294.0" style="stroke:#010101; fill:none;"/>
	<path d="M 678.0,1296.0 L 679.0,1297.0" style="stroke:#010101; fill:none;"/>
	<path d="M 1434.0,1311.0 C 1432.2,1307.6 1441.34,1306.54 1444.0,1306.0 C 1455.57,1303.67 1467.29,1302.25 1479.0,1301.08 C 1529.56,1296.05 1580.26,1297.0 1631.0,1297.0" style="stroke:#010101; fill:none;"/>
	<path d="M 1086.0,1297.0 C 1085.39,1304.73 1084.43,1311.83 1088.0,1319.0" style="stroke:#010101; fill:none;"/>
	<path d="M 679.0,1298.0 L 680.0,1299.0" style="stroke:#010101; fill:none;"/>
	<path d="M 680.0,1299.0 L 681.0,1302.0" style="stroke:#010101; fill:none;"/>
	<path d="M 568.0,1300.0 L 599.0,1331.0" style="stroke:#010101; fill:none;"/>
	<path d="M 526.0,1301.0 C 542.687,1317.55 563.39,1329.13 585.0,1338.0" style="stroke:#010101; fill:none;"/>
	<path d="M 378.0,1313.0 L 448.0,1302.0" style="stroke:#010101; fill:none;"/>
	<path d="M 490.0,1303.0 L 535.0,1321.26 L 563.0,1335.0" style="stroke:#010101; fill:none;"/>
	<path d="M 681.0,1303.0 L 682.0,1304.0" style="stroke:#010101; fill:none;"/>
	<path d="M 682.0,1305.0 L 683.0,1306.0" style="stroke:#010101; fill:none;"/>
	<path d="M 469.0,1306.0 C 495.256,1314.4 523.844,1324.74 547.0,1340.0" style="stroke:#010101; fill:none;"/>
	<path d="M 1765.0,1306.0 C 1782.54,1313.56 1798.71,1327.56 1813.0,1340.0" style="stroke:#010101; fill:none;"/>
	<path d="M 423.0,1307.0 C 450.203,1307.0 477.08,1310.68 500.0,1327.0" style="stroke:#010101; fill:none;"/>
	<path d="M 1699.0,1307.0 L 1706.0,1309.0" style="stroke:#010101; fill:none;"/>
	<path d="M 717.0,1309.0 L 719.0,1312.0" style="stroke:#010101; fill:none;"/>
	<path d="M 1698.0,1309.0 L 1699.0,1309.0" style="stroke:#010101; fill:none;"/>
	<path d="M 686.0,1310.0 L 690.0,1331.0" style="stroke:#010101; fill:none;"/>
	<path d="M 1172.0,1310.0 L 1169.0,1313.0" style="stroke:#010101; fill:none;"/>
	<path d="M 1704.0,1310.0 C 1710.12,1314.93 1714.98,1318.37 1723.0,1316.0" style="stroke:#010101; fill:none;"/>
	<path d="M 413.0,1312.0 C 424.942,1317.56 442.673,1314.2 456.0,1315.0" style="stroke:#010101; fill:none;"/>
	<path d="M 1446.0,1313.0 L 1453.0,1313.0" style="stroke:#010101; fill:none;"/>
	<path d="M 720.0,1314.0 L 723.0,1328.0" style="stroke:#010101; fill:none;"/>
	<path d="M 1015.0,1314.0 L 1024.0,1326.0" style="stroke:#010101; fill:none;"/>
	<path d="M 1167.0,1315.0 L 1164.0,1317.0" style="stroke:#010101; fill:none;"/>
	<path d="M 1169.0,1314.0 L 1168.0,1315.0" style="stroke:#010101; fill:none;"/>
	<path d="M 1391.0,1321.0 L 1444.0,1314.0" style="stroke:#010101; fill:none;"/>
	<path d="M 424.0,1316.0 C 444.428,1330.54 470.622,1332.37 493.0,1342.0" style="stroke:#010101; fill:none;"/>
	<path d="M 1085.0,1316.0 L 1086.0,1327.0" style="stroke:#010101; fill:none;"/>
	<path d="M 1499.0,1333.0 L 1499.0,1335.0 C 1513.17,1324.69 1541.0,1325.65 1558.0,1323.83 C 1608.36,1318.44 1658.33,1316.0 1709.0,1316.0" style="stroke:#010101; fill:none;"/>
	<path d="M 465.0,1318.0 C 483.938,1331.48 511.268,1332.93 533.0,1340.0" style="stroke:#010101; fill:none;"/>
	<path d="M 449.0,1319.0 C 467.032,1330.04 491.731,1340.26 513.0,1342.0" style="stroke:#010101; fill:none;"/>
	<path d="M 1361.0,1319.0 L 1363.0,1319.0" style="stroke:#010101; fill:none;"/>
	<path d="M 369.0,1326.0 C 381.384,1323.67 397.463,1320.04 410.0,1322.26 C 429.782,1325.77 447.965,1338.72 467.0,1344.67 C 488.458,1351.38 511.06,1352.41 531.0,1364.0" style="stroke:#010101; fill:none;"/>
	<path d="M 414.0,1322.0 L 420.0,1322.0" style="stroke:#010101; fill:none;"/>
	<path d="M 1351.0,1331.0 L 1384.0,1322.0" style="stroke:#010101; fill:none;"/>
	<path d="M 1418.0,1333.0 L 1458.0,1324.0" style="stroke:#010101; fill:none;"/>
	<path d="M 1454.0,1325.0 L 1458.0,1325.0" style="stroke:#010101; fill:none;"/>
	<path d="M 697.0,1329.0 L 694.0,1336.0" style="stroke:#010101; fill:none;"/>
	<path d="M 1025.0,1329.0 L 1024.0,1333.0" style="stroke:#010101; fill:none;"/>
	<path d="M 1535.0,1339.0 L 1629.0,1330.09 L 1732.0,1331.0" style="stroke:#010101; fill:none;"/>
	<path d="M 408.0,1330.0 C 422.535,1333.01 440.15,1337.56 453.0,1345.0" style="stroke:#010101; fill:none;"/>
	<path d="M 724.0,1330.0 L 724.0,1332.0" style="stroke:#010101; fill:none;"/>
	<path d="M 1501.0,1334.0 L 1552.0,1332.0" style="stroke:#010101; fill:none;"/>
	<path d="M 1735.0,1332.0 L 1736.0,1332.0" style="stroke:#010101; fill:none;"/>
	<path d="M 1477.0,1336.0 L 1497.0,1334.0" style="stroke:#010101; fill:none;"/>
	<path d="M 400.0,1335.0 L 401.0,1335.0" style="stroke:#010101; fill:none;"/>
	<path d="M 697.0,1335.0 L 695.0,1345.0" style="stroke:#010101; fill:none;"/>
	<path d="M 403.0,1336.0 L 404.0,1336.0" style="stroke:#010101; fill:none;"/>
	<path d="M 406.0,1337.0 L 443.0,1349.0" style="stroke:#010101; fill:none;"/>
	<path d="M 683.0,1337.0 C 701.857,1361.84 729.999,1376.48 750.424,1400.0 C 756.465,1406.96 763.701,1413.09 766.91,1422.0 C 769.568,1429.38 769.402,1437.33 770.424,1445.0 C 772.113,1457.67 775.365,1471.2 774.957,1484.0 C 774.383,1501.99 769.83,1519.95 769.039,1538.0 C 766.805,1589.02 770.494,1638.66 759.789,1689.0 C 754.766,1712.62 744.971,1732.69 736.428,1755.0 C 725.479,1783.59 714.86,1812.45 703.449,1841.0 C 692.395,1868.66 681.511,1896.34 670.449,1924.0 C 666.02,1935.07 664.284,1951.19 655.0,1959.0 C 660.666,1968.05 659.0,1984.23 659.0,1995.0" style="stroke:#010101; fill:none;"/>
	<path d="M 1472.0,1337.0 L 1475.0,1337.0" style="stroke:#010101; fill:none;"/>
	<path d="M 2090.0,1337.0 L 2095.0,1342.0" style="stroke:#010101; fill:none;"/>
	<path d="M 935.0,1338.0 L 960.0,1357.0" style="stroke:#010101; fill:none;"/>
	<path d="M 377.0,1341.0 L 400.0,1342.0" style="stroke:#010101; fill:none;"/>
	<path d="M 366.0,1342.0 C 370.753,1342.9 394.427,1345.51 391.0,1349.0 L 392.0,1350.0 L 394.0,1350.0 L 395.0,1349.0 L 395.0,1347.0" style="stroke:#010101; fill:none;"/>
	<path d="M 669.0,1342.0 L 687.0,1363.0" style="stroke:#010101; fill:none;"/>
	<path d="M 402.0,1343.0 L 423.0,1347.0" style="stroke:#010101; fill:none;"/>
	<path d="M 453.0,1343.0 L 462.0,1344.0" style="stroke:#010101; fill:none;"/>
	<path d="M 354.0,1347.0 L 381.0,1348.0" style="stroke:#010101; fill:none;"/>
	<path d="M 342.0,1349.0 L 377.0,1354.0" style="stroke:#010101; fill:none;"/>
	<path d="M 383.0,1349.0 L 391.0,1349.0" style="stroke:#010101; fill:none;"/>
	<path d="M 397.0,1349.0 L 475.0,1358.0" style="stroke:#010101; fill:none;"/>
	<path d="M 390.0,1355.0 L 440.0,1358.0" style="stroke:#010101; fill:none;"/>
	<path d="M 303.0,1358.0 L 302.0,1359.0" style="stroke:#010101; fill:none;"/>
	<path d="M 477.0,1359.0 L 480.0,1359.0" style="stroke:#010101; fill:none;"/>
	<path d="M 482.0,1360.0 L 485.0,1360.0" style="stroke:#010101; fill:none;"/>
	<path d="M 487.0,1361.0 L 494.0,1363.0" style="stroke:#010101; fill:none;"/>
	<path d="M 363.0,1362.0 L 417.0,1364.0" style="stroke:#010101; fill:none;"/>
	<path d="M 421.0,1365.0 L 429.0,1365.0" style="stroke:#010101; fill:none;"/>
	<path d="M 2091.0,1365.0 L 2105.0,1376.0" style="stroke:#010101; fill:none;"/>
	<path d="M 303.0,1368.0 L 303.0,1375.0" style="stroke:#010101; fill:none;"/>
	<path d="M 359.0,1370.0 L 374.0,1370.0" style="stroke:#010101; fill:none;"/>
	<path d="M 378.0,1371.0 L 393.0,1371.0" style="stroke:#010101; fill:none;"/>
	<path d="M 1215.0,1403.0 L 1218.0,1407.0 L 1217.0,1408.0 L 1213.0,1405.0 C 1220.71,1397.29 1230.43,1384.56 1240.13,1379.65 C 1247.95,1375.7 1260.34,1375.43 1269.0,1373.8 C 1275.14,1372.65 1290.24,1370.46 1295.69,1374.03 C 1299.41,1376.47 1300.7,1384.33 1303.53,1388.0 C 1307.35,1392.96 1314.37,1396.46 1315.0,1403.0 C 1306.89,1403.33 1294.68,1409.26 1289.0,1415.0" style="stroke:#010101; fill:none;"/>
	<path d="M 1298.0,1373.0 C 1333.66,1373.0 1371.84,1385.07 1406.0,1394.43 C 1422.24,1398.88 1441.93,1402.39 1456.0,1412.0 L 1452.0,1417.0 C 1457.53,1418.52 1460.79,1414.52 1466.0,1414.61 C 1475.0,1414.76 1492.99,1427.82 1490.82,1409.0 C 1490.56,1406.83 1489.84,1405.0 1489.0,1403.0" style="stroke:#010101; fill:none;"/>
	<path d="M 296.0,1374.0 L 298.302,1404.91 L 302.891,1416.0 L 302.894,1439.0 L 313.622,1452.01 L 325.0,1472.0 L 330.0,1468.0 C 333.293,1475.65 332.533,1483.98 335.025,1492.0 C 342.356,1515.59 350.869,1540.38 353.816,1565.0 C 356.181,1584.77 355.0,1606.09 355.0,1626.0" style="stroke:#010101; fill:none;"/>
	<path d="M 307.0,1374.0 L 305.184,1389.0 L 313.33,1413.0 L 330.0,1468.0" style="stroke:#010101; fill:none;"/>
	<path d="M 333.0,1376.0 L 335.0,1376.0" style="stroke:#010101; fill:none;"/>
	<path d="M 341.0,1377.0 L 345.0,1377.0" style="stroke:#010101; fill:none;"/>
	<path d="M 378.0,1377.0 L 379.0,1377.0" style="stroke:#010101; fill:none;"/>
	<path d="M 365.0,1378.0 L 366.0,1378.0" style="stroke:#010101; fill:none;"/>
	<path d="M 368.0,1378.0 L 369.0,1378.0" style="stroke:#010101; fill:none;"/>
	<path d="M 1180.0,1398.0 C 1198.36,1387.28 1215.01,1381.66 1236.0,1379.0" style="stroke:#010101; fill:none;"/>
	<path d="M 1123.0,1380.0 L 1059.45,1439.0 L 1040.15,1477.0 L 1033.36,1493.0 L 1033.91,1508.0 L 1030.0,1538.0" style="stroke:#010101; fill:none;"/>
	<path d="M 1291.0,1381.0 L 1311.0,1402.0" style="stroke:#010101; fill:none;"/>
	<path d="M 1346.0,1381.0 C 1346.34,1394.9 1357.93,1395.64 1369.0,1395.0 L 1364.0,1389.0" style="stroke:#010101; fill:none;"/>
	<path d="M 2111.0,1381.0 L 2112.0,1382.0" style="stroke:#010101; fill:none;"/>
	<path d="M 1338.0,1383.0 L 1346.0,1399.0 C 1339.74,1397.74 1335.26,1393.26 1334.0,1387.0" style="stroke:#010101; fill:none;"/>
	<path d="M 1374.0,1387.0 C 1379.32,1403.65 1399.86,1393.47 1411.0,1404.0" style="stroke:#010101; fill:none;"/>
	<path d="M 2092.0,1387.0 L 2125.0,1417.0" style="stroke:#010101; fill:none;"/>
	<path d="M 1348.0,1390.0 L 1350.0,1392.0" style="stroke:#010101; fill:none;"/>
	<path d="M 477.0,1469.0 L 479.0,1467.0 C 470.427,1467.24 455.675,1457.82 466.019,1449.76 C 480.854,1438.2 500.165,1430.42 518.0,1424.88 C 558.698,1412.25 602.25,1396.0 645.0,1393.09 C 650.465,1392.72 657.144,1393.0 661.911,1396.0 C 668.282,1400.02 674.677,1408.86 683.0,1407.0 L 682.0,1406.0 L 681.0,1405.0 L 680.0,1406.0 L 685.0,1411.0 L 685.0,1410.0 L 683.0,1407.0" style="stroke:#010101; fill:none;"/>
	<path d="M 1401.0,1393.0 L 1399.0,1397.0" style="stroke:#010101; fill:none;"/>
	<path d="M 1349.0,1394.0 L 1351.0,1395.0" style="stroke:#010101; fill:none;"/>
	<path d="M 665.0,1395.0 L 692.0,1399.0" style="stroke:#010101; fill:none;"/>
	<path d="M 1369.0,1395.0 L 1377.0,1398.0" style="stroke:#010101; fill:none;"/>
	<path d="M 1405.0,1395.0 L 1405.0,1398.0" style="stroke:#010101; fill:none;"/>
	<path d="M 1464.0,1395.0 L 1457.0,1412.0" style="stroke:#010101; fill:none;"/>
	<path d="M 1466.0,1395.0 C 1467.94,1401.12 1468.28,1405.91 1466.0,1412.0" style="stroke:#010101; fill:none;"/>
	<path d="M 1355.0,1396.0 C 1365.37,1405.8 1371.05,1401.95 1384.0,1403.9 C 1403.89,1406.89 1428.44,1408.36 1447.0,1417.0 L 1444.0,1418.0" style="stroke:#010101; fill:none;"/>
	<path d="M 677.0,1397.0 L 681.0,1404.0" style="stroke:#010101; fill:none;"/>
	<path d="M 1316.0,1400.0 L 1330.0,1398.0" style="stroke:#010101; fill:none;"/>
	<path d="M 685.0,1399.0 L 698.0,1419.0 L 696.0,1415.0" style="stroke:#010101; fill:none;"/>
	<path d="M 1377.0,1399.0 L 1384.0,1402.0" style="stroke:#010101; fill:none;"/>
	<path d="M 1259.0,1400.0 L 1264.0,1409.0 L 1261.0,1407.0" style="stroke:#010101; fill:none;"/>
	<path d="M 1347.0,1400.0 L 1350.0,1404.0 L 1360.0,1404.0" style="stroke:#010101; fill:none;"/>
	<path d="M 1409.0,1400.0 L 1424.0,1403.0" style="stroke:#010101; fill:none;"/>
	<path d="M 1321.0,1401.0 L 1330.0,1403.0" style="stroke:#010101; fill:none;"/>
	<path d="M 1381.0,1401.0 L 1381.0,1403.0" style="stroke:#010101; fill:none;"/>
	<path d="M 1402.0,1401.0 L 1404.0,1406.0" style="stroke:#010101; fill:none;"/>
	<path d="M 1115.0,1403.0 L 1105.92,1458.0 L 1098.0,1499.0" style="stroke:#010101; fill:none;"/>
	<path d="M 1315.0,1403.0 L 1326.0,1409.79 L 1349.0,1405.0" style="stroke:#010101; fill:none;"/>
	<path d="M 698.0,1404.0 C 705.658,1413.94 710.919,1427.7 719.319,1436.58 C 722.791,1440.24 726.748,1444.77 732.0,1444.0 L 707.0,1407.0" style="stroke:#010101; fill:none;"/>
	<path d="M 1426.0,1404.0 L 1428.0,1404.0" style="stroke:#010101; fill:none;"/>
	<path d="M 1160.0,1468.0 C 1178.61,1447.78 1189.8,1421.35 1213.0,1405.0" style="stroke:#010101; fill:none;"/>
	<path d="M 1430.0,1405.0 L 1431.0,1405.0" style="stroke:#010101; fill:none;"/>
	<path d="M 1390.0,1406.0 C 1374.93,1418.15 1353.81,1421.06 1347.76,1443.0 C 1346.1,1449.01 1346.98,1454.88 1347.0,1461.0" style="stroke:#010101; fill:none;"/>
	<path d="M 1217.0,1408.0 L 1229.0,1418.0 L 1228.0,1419.0 L 1229.0,1418.0" style="stroke:#010101; fill:none;"/>
	<path d="M 1264.0,1409.0 L 1272.0,1416.0" style="stroke:#010101; fill:none;"/>
	<path d="M 685.0,1411.0 L 693.0,1417.0" style="stroke:#010101; fill:none;"/>
	<path d="M 1103.0,1411.0 L 1081.0,1509.0" style="stroke:#010101; fill:none;"/>
	<path d="M 1458.0,1411.0 L 1463.0,1415.0" style="stroke:#010101; fill:none;"/>
	<path d="M 1292.0,1425.0 L 1283.0,1422.0 C 1288.68,1418.97 1294.94,1418.94 1300.0,1423.0 L 1324.0,1411.0" style="stroke:#010101; fill:none;"/>
	<path d="M 1513.0,1415.0 C 1509.83,1425.71 1497.28,1423.96 1490.0,1419.0" style="stroke:#010101; fill:none;"/>
	<path d="M 2099.0,1415.0 L 2109.0,1423.0" style="stroke:#010101; fill:none;"/>
	<path d="M 1275.0,1416.0 L 1273.0,1418.0" style="stroke:#010101; fill:none;"/>
	<path d="M 1225.0,1417.0 L 1226.0,1418.0" style="stroke:#010101; fill:none;"/>
	<path d="M 1231.0,1417.0 C 1244.82,1430.52 1262.88,1430.56 1280.0,1426.0 L 1261.0,1422.0" style="stroke:#010101; fill:none;"/>
	<path d="M 1276.0,1417.0 L 1284.0,1419.0" style="stroke:#010101; fill:none;"/>
	<path d="M 1448.0,1417.0 L 1452.0,1417.0" style="stroke:#010101; fill:none;"/>
	<path d="M 724.0,1418.0 L 748.738,1464.0 L 767.0,1488.0" style="stroke:#010101; fill:none;"/>
	<path d="M 1232.0,1418.0 L 1228.0,1420.0" style="stroke:#010101; fill:none;"/>
	<path d="M 1297.0,1420.0 L 1302.0,1420.0" style="stroke:#010101; fill:none;"/>
	<path d="M 698.0,1419.0 C 702.214,1422.87 708.012,1429.56 714.0,1428.0" style="stroke:#010101; fill:none;"/>
	<path d="M 1275.0,1419.0 L 1277.0,1421.0" style="stroke:#010101; fill:none;"/>
	<path d="M 1456.0,1419.0 L 1469.0,1423.0 L 1469.0,1420.0" style="stroke:#010101; fill:none;"/>
	<path d="M 1233.0,1420.0 L 1230.0,1421.0" style="stroke:#010101; fill:none;"/>
	<path d="M 1518.0,1420.0 C 1517.76,1427.38 1513.06,1429.05 1507.0,1432.0" style="stroke:#010101; fill:none;"/>
	<path d="M 2102.0,1420.0 L 2101.0,1432.0" style="stroke:#010101; fill:none;"/>
	<path d="M 1089.0,1421.0 L 1089.0,1423.0" style="stroke:#010101; fill:none;"/>
	<path d="M 1237.0,1421.0 L 1233.0,1422.0" style="stroke:#010101; fill:none;"/>
	<path d="M 1470.0,1421.0 L 1480.0,1420.0" style="stroke:#010101; fill:none;"/>
	<path d="M 1279.0,1422.0 L 1283.0,1422.0" style="stroke:#010101; fill:none;"/>
	<path d="M 1486.0,1422.0 C 1479.93,1428.5 1476.63,1428.76 1469.0,1424.0" style="stroke:#010101; fill:none;"/>
	<path d="M 1299.0,1423.0 C 1277.88,1438.35 1257.55,1454.48 1239.0,1473.0 C 1233.78,1478.22 1224.58,1483.9 1220.91,1490.17 C 1218.16,1494.89 1221.94,1506.54 1228.13,1506.64 C 1237.28,1506.8 1255.36,1499.84 1263.0,1495.0 L 1250.1,1484.91 L 1241.0,1472.0" style="stroke:#010101; fill:none;"/>
	<path d="M 2111.0,1424.0 L 2112.0,1425.0" style="stroke:#010101; fill:none;"/>
	<path d="M 1088.0,1425.0 L 1077.21,1482.0 L 1069.0,1534.0" style="stroke:#010101; fill:none;"/>
	<path d="M 1236.0,1425.0 L 1243.0,1428.0" style="stroke:#010101; fill:none;"/>
	<path d="M 1505.0,1425.0 L 1513.0,1427.0" style="stroke:#010101; fill:none;"/>
	<path d="M 736.0,1426.0 L 760.0,1474.0" style="stroke:#010101; fill:none;"/>
	<path d="M 1082.0,1427.0 L 1082.0,1431.0" style="stroke:#010101; fill:none;"/>
	<path d="M 1517.0,1427.0 L 1550.0,1439.0 L 1525.0,1445.0 C 1534.23,1459.76 1550.24,1451.63 1565.0,1456.0 L 1545.0,1458.0 C 1550.44,1463.88 1559.18,1466.36 1567.0,1467.0" style="stroke:#010101; fill:none;"/>
	<path d="M 626.0,1434.0 L 626.0,1428.0 C 628.37,1432.54 632.831,1442.43 631.0,1447.0 C 625.89,1444.19 621.646,1443.13 616.0,1445.0 L 623.0,1448.0" style="stroke:#010101; fill:none;"/>
	<path d="M 1481.0,1429.0 C 1492.39,1438.72 1500.25,1452.62 1494.74,1468.0 C 1492.17,1475.18 1484.42,1480.8 1486.0,1489.0 L 1523.0,1475.0 L 1540.0,1470.0" style="stroke:#010101; fill:none;"/>
	<path d="M 2447.0,1429.0 L 2448.0,1429.0" style="stroke:#010101; fill:none;"/>
	<path d="M 712.0,1430.0 L 714.0,1432.0" style="stroke:#010101; fill:none;"/>
	<path d="M 1272.0,1430.0 L 1278.0,1430.0" style="stroke:#010101; fill:none;"/>
	<path d="M 2442.0,1430.0 L 2444.0,1430.0" style="stroke:#010101; fill:none;"/>
	<path d="M 2509.0,1430.0 L 2522.0,1440.0" style="stroke:#010101; fill:none;"/>
	<path d="M 577.0,1431.0 L 578.0,1437.0 L 577.0,1431.0" style="stroke:#010101; fill:none;"/>
	<path d="M 597.0,1431.0 L 598.0,1431.0" style="stroke:#010101; fill:none;"/>
	<path d="M 1107.0,1432.0 L 1089.0,1500.0" style="stroke:#010101; fill:none;"/>
	<path d="M 1490.0,1435.0 C 1497.63,1429.9 1504.96,1440.04 1512.0,1434.0 L 1511.0,1438.0" style="stroke:#010101; fill:none;"/>
	<path d="M 600.0,1433.0 C 616.315,1451.75 586.748,1447.05 578.0,1438.0" style="stroke:#010101; fill:none;"/>
	<path d="M 1073.0,1433.0 L 1073.0,1435.0" style="stroke:#010101; fill:none;"/>
	<path d="M 1081.0,1433.0 L 1071.44,1490.0 L 1065.0,1537.0 L 1064.0,1534.0" style="stroke:#010101; fill:none;"/>
	<path d="M 597.0,1434.0 C 598.449,1438.17 600.429,1440.67 605.0,1440.0" style="stroke:#010101; fill:none;"/>
	<path d="M 2102.0,1434.0 L 2102.0,1436.0" style="stroke:#010101; fill:none;"/>
	<path d="M 646.0,1443.0 L 645.0,1436.0 C 646.592,1440.1 646.383,1445.09 649.5,1448.48 C 654.375,1453.78 663.671,1456.93 670.0,1460.26 C 678.408,1464.68 685.913,1470.55 694.0,1475.46 C 699.855,1479.01 705.698,1480.82 709.47,1487.17 C 717.93,1501.41 723.768,1522.11 703.0,1529.0" style="stroke:#010101; fill:none;"/>
	<path d="M 1400.0,1442.0 C 1416.04,1429.06 1444.43,1441.84 1440.85,1463.96 C 1439.32,1473.45 1421.98,1474.0 1415.83,1469.69 C 1412.47,1467.33 1408.18,1465.3 1405.28,1462.39 C 1401.88,1458.98 1405.01,1455.07 1404.9,1451.0 C 1404.79,1447.18 1402.31,1444.77 1400.0,1442.0" style="stroke:#010101; fill:none;"/>
	<path d="M 581.0,1437.0 L 579.0,1439.0" style="stroke:#010101; fill:none;"/>
	<path d="M 580.0,1438.0 L 588.0,1444.0" style="stroke:#010101; fill:none;"/>
	<path d="M 1072.0,1438.0 L 1057.0,1553.0" style="stroke:#010101; fill:none;"/>
	<path d="M 541.0,1439.0 L 570.0,1456.0 C 566.317,1458.52 560.582,1459.7 557.833,1463.27 C 554.056,1468.19 553.076,1478.97 553.004,1485.0 C 552.77,1504.54 559.719,1529.4 577.004,1540.89 C 601.575,1557.23 625.697,1547.86 652.0,1543.25 C 661.788,1541.53 679.162,1539.14 686.83,1532.69 C 704.242,1518.04 704.902,1496.89 695.0,1478.0" style="stroke:#010101; fill:none;"/>
	<path d="M 619.0,1439.0 L 621.0,1443.0" style="stroke:#010101; fill:none;"/>
	<path d="M 1515.0,1439.0 L 1525.0,1446.0" style="stroke:#010101; fill:none;"/>
	<path d="M 1521.0,1441.0 L 1527.0,1439.0" style="stroke:#010101; fill:none;"/>
	<path d="M 1550.0,1439.0 L 1577.0,1450.69 L 1619.0,1469.0" style="stroke:#010101; fill:none;"/>
	<path d="M 1066.0,1440.0 C 1065.91,1471.75 1055.43,1504.67 1050.58,1536.0 C 1049.12,1545.37 1049.93,1553.93 1049.25,1563.0 C 1048.99,1566.54 1046.2,1570.48 1047.36,1574.0 C 1049.05,1579.16 1055.96,1582.8 1060.0,1586.0" style="stroke:#010101; fill:none;"/>
	<path d="M 1117.0,1440.0 L 1105.0,1503.0" style="stroke:#010101; fill:none;"/>
	<path d="M 1556.0,1440.0 C 1550.09,1445.39 1543.75,1448.21 1536.0,1450.0" style="stroke:#010101; fill:none;"/>
	<path d="M 630.0,1441.0 L 631.0,1444.0" style="stroke:#010101; fill:none;"/>
	<path d="M 604.0,1442.0 L 606.0,1444.0" style="stroke:#010101; fill:none;"/>
	<path d="M 586.0,1443.0 L 584.0,1445.0" style="stroke:#010101; fill:none;"/>
	<path d="M 630.0,1443.0 L 628.0,1445.0" style="stroke:#010101; fill:none;"/>
	<path d="M 667.0,1443.0 L 665.0,1455.0" style="stroke:#010101; fill:none;"/>
	<path d="M 747.0,1443.0 L 768.0,1481.0" style="stroke:#010101; fill:none;"/>
	<path d="M 608.0,1445.0 L 616.0,1445.0" style="stroke:#010101; fill:none;"/>
	<path d="M 633.0,1445.0 L 647.0,1449.0" style="stroke:#010101; fill:none;"/>
	<path d="M 664.0,1445.0 L 664.0,1446.0" style="stroke:#010101; fill:none;"/>
	<path d="M 1560.0,1445.0 L 1562.0,1444.0" style="stroke:#010101; fill:none;"/>
	<path d="M 731.0,1446.0 L 747.0,1462.0" style="stroke:#010101; fill:none;"/>
	<path d="M 523.0,1447.0 C 525.656,1451.6 536.116,1456.76 541.0,1454.0 L 531.0,1449.0" style="stroke:#010101; fill:none;"/>
	<path d="M 588.0,1447.0 L 590.0,1450.0 L 570.0,1456.0" style="stroke:#010101; fill:none;"/>
	<path d="M 663.0,1447.0 L 665.0,1450.0" style="stroke:#010101; fill:none;"/>
	<path d="M 528.0,1448.0 L 529.0,1448.0" style="stroke:#010101; fill:none;"/>
	<path d="M 591.0,1449.0 L 595.0,1449.0" style="stroke:#010101; fill:none;"/>
	<path d="M 507.0,1451.0 C 508.509,1460.78 520.335,1465.99 529.0,1462.0 L 509.0,1452.0" style="stroke:#010101; fill:none;"/>
	<path d="M 1057.0,1451.0 C 1054.62,1481.09 1047.06,1510.93 1043.83,1541.0 C 1042.59,1552.63 1037.18,1564.93 1046.0,1574.0" style="stroke:#010101; fill:none;"/>
	<path d="M 1123.0,1451.0 L 1114.0,1496.0" style="stroke:#010101; fill:none;"/>
	<path d="M 680.0,1453.0 L 677.0,1460.0" style="stroke:#010101; fill:none;"/>
	<path d="M 460.0,1454.0 L 435.0,1479.0 L 426.0,1470.0" style="stroke:#010101; fill:none;"/>
	<path d="M 542.0,1454.0 L 541.0,1457.0" style="stroke:#010101; fill:none;"/>
	<path d="M 543.0,1455.0 C 549.985,1456.6 555.088,1457.52 562.0,1455.0" style="stroke:#010101; fill:none;"/>
	<path d="M 1129.0,1455.0 L 1118.0,1505.0" style="stroke:#010101; fill:none;"/>
	<path d="M 695.0,1456.0 L 681.0,1467.0" style="stroke:#010101; fill:none;"/>
	<path d="M 1585.0,1456.0 L 1613.0,1480.0" style="stroke:#010101; fill:none;"/>
	<path d="M 697.0,1457.0 C 696.441,1462.01 694.275,1464.47 690.0,1467.0" style="stroke:#010101; fill:none;"/>
	<path d="M 1534.0,1457.0 L 1547.0,1474.0" style="stroke:#010101; fill:none;"/>
	<path d="M 543.0,1458.0 L 549.0,1460.0" style="stroke:#010101; fill:none;"/>
	<path d="M 1400.0,1459.0 L 1402.0,1459.0" style="stroke:#010101; fill:none;"/>
	<path d="M 529.0,1462.0 C 537.14,1463.03 548.421,1462.96 555.0,1468.0" style="stroke:#010101; fill:none;"/>
	<path d="M 552.0,1465.0 L 557.0,1463.0" style="stroke:#010101; fill:none;"/>
	<path d="M 1135.0,1464.0 L 1135.0,1466.0" style="stroke:#010101; fill:none;"/>
	<path d="M 2391.0,1464.0 L 2364.8,1492.0 L 2346.0,1522.0" style="stroke:#010101; fill:none;"/>
	<path d="M 489.0,1506.0 C 487.77,1513.14 483.631,1519.55 483.638,1527.0 C 483.641,1530.21 487.38,1535.69 485.187,1538.5 C 481.456,1543.27 469.817,1533.34 469.789,1529.0 C 469.731,1520.24 481.126,1510.68 487.0,1505.58 C 504.875,1490.05 523.662,1478.04 544.0,1466.0" style="stroke:#010101; fill:none;"/>
	<path d="M 1550.0,1467.0 C 1557.69,1473.49 1563.47,1480.42 1574.0,1482.0" style="stroke:#010101; fill:none;"/>
	<path d="M 481.0,1468.0 L 479.0,1470.0" style="stroke:#010101; fill:none;"/>
	<path d="M 482.0,1469.0 L 521.0,1472.41 L 537.0,1470.0" style="stroke:#010101; fill:none;"/>
	<path d="M 1134.0,1468.0 L 1134.0,1473.0" style="stroke:#010101; fill:none;"/>
	<path d="M 331.0,1471.0 C 328.043,1474.4 326.479,1476.57 330.0,1480.0" style="stroke:#010101; fill:none;"/>
	<path d="M 1625.0,1471.0 L 1662.0,1478.6 L 1703.0,1484.0" style="stroke:#010101; fill:none;"/>
	<path d="M 325.0,1472.0 L 326.0,1475.0" style="stroke:#010101; fill:none;"/>
	<path d="M 482.0,1472.0 L 502.0,1478.05 L 518.0,1480.0" style="stroke:#010101; fill:none;"/>
	<path d="M 1557.0,1472.0 L 1573.0,1472.0" style="stroke:#010101; fill:none;"/>
	<path d="M 432.0,1473.0 L 431.0,1474.0" style="stroke:#010101; fill:none;"/>
	<path d="M 434.0,1474.0 L 437.0,1477.0" style="stroke:#010101; fill:none;"/>
	<path d="M 1047.0,1475.0 C 1047.0,1494.12 1042.87,1514.26 1039.2,1533.0 C 1036.78,1545.33 1031.65,1553.55 1038.0,1565.0" style="stroke:#010101; fill:none;"/>
	<path d="M 1133.0,1475.0 L 1128.0,1500.0" style="stroke:#010101; fill:none;"/>
	<path d="M 440.0,1476.0 C 444.414,1479.4 459.651,1487.76 465.0,1486.0" style="stroke:#010101; fill:none;"/>
	<path d="M 637.0,1476.42 C 658.308,1473.6 666.017,1509.79 644.0,1512.93 C 637.614,1513.84 637.455,1509.83 632.857,1507.18 C 627.809,1504.27 621.687,1505.81 617.438,1500.79 C 606.875,1488.31 627.838,1477.64 637.0,1476.42" style="stroke:#010101; fill:none;"/>
	<path d="M 1355.0,1476.0 C 1357.98,1485.4 1367.54,1495.17 1377.0,1498.41 C 1384.12,1500.85 1394.51,1499.0 1402.0,1499.0 C 1421.85,1499.0 1443.53,1496.81 1463.0,1493.0 C 1470.35,1491.56 1478.41,1491.8 1485.0,1488.0" style="stroke:#010101; fill:none;"/>
	<path d="M 1810.0,1477.0 C 1785.18,1498.1 1740.5,1490.81 1711.0,1487.0" style="stroke:#010101; fill:none;"/>
	<path d="M 2134.0,1477.0 L 2135.0,1478.0" style="stroke:#010101; fill:none;"/>
	<path d="M 2331.0,1477.0 L 2330.0,1478.0" style="stroke:#010101; fill:none;"/>
	<path d="M 2357.0,1992.0 C 2342.68,1965.86 2349.89,1928.17 2365.55,1904.0 C 2371.98,1894.07 2381.62,1886.75 2388.25,1877.0 C 2398.68,1861.68 2408.19,1844.52 2414.3,1827.0 C 2420.04,1810.55 2427.69,1789.36 2428.91,1772.0 C 2430.32,1751.82 2426.17,1732.88 2424.17,1713.0 C 2421.96,1691.03 2422.42,1669.0 2420.91,1647.0 C 2419.26,1622.88 2415.43,1597.18 2418.29,1573.0 C 2420.64,1553.09 2420.05,1530.3 2429.63,1512.0 C 2439.33,1493.49 2459.31,1488.52 2478.0,1483.14 C 2485.79,1480.9 2492.79,1478.02 2501.0,1478.0" style="stroke:#010101; fill:none;"/>
	<path d="M 436.0,1479.0 C 426.871,1491.12 426.986,1500.52 423.0,1514.0 C 436.387,1517.92 458.251,1510.99 471.0,1506.3 C 478.172,1503.67 483.641,1495.79 491.0,1501.0" style="stroke:#010101; fill:none;"/>
	<path d="M 436.0,1479.0 C 442.963,1484.21 454.375,1489.51 463.0,1486.0" style="stroke:#010101; fill:none;"/>
	<path d="M 500.0,1479.0 L 472.0,1487.0 C 478.47,1490.45 486.127,1489.93 493.0,1488.0" style="stroke:#010101; fill:none;"/>
	<path d="M 1553.0,1479.0 C 1567.73,1497.07 1588.32,1498.0 1610.0,1498.0" style="stroke:#010101; fill:none;"/>
	<path d="M 1000.0,1480.0 C 990.816,1502.39 969.0,1523.52 967.0,1548.0" style="stroke:#010101; fill:none;"/>
	<path d="M 2139.0,1481.0 L 2141.0,1483.0" style="stroke:#010101; fill:none;"/>
	<path d="M 1589.0,1482.0 L 1592.0,1482.0" style="stroke:#010101; fill:none;"/>
	<path d="M 1240.0,1483.0 L 1241.0,1484.0" style="stroke:#010101; fill:none;"/>
	<path d="M 1576.0,1483.0 L 1584.0,1483.0" style="stroke:#010101; fill:none;"/>
	<path d="M 2144.0,1485.0 L 2146.0,1487.0" style="stroke:#010101; fill:none;"/>
	<path d="M 710.0,1486.0 C 722.488,1487.31 726.233,1502.87 735.667,1507.0 C 737.162,1507.65 733.771,1502.7 735.0,1505.0" style="stroke:#010101; fill:none;"/>
	<path d="M 1616.0,1486.0 C 1637.91,1504.63 1673.36,1519.46 1701.0,1527.0" style="stroke:#010101; fill:none;"/>
	<path d="M 466.0,1487.0 L 472.0,1487.0" style="stroke:#010101; fill:none;"/>
	<path d="M 1568.0,1490.0 L 1600.0,1487.0" style="stroke:#010101; fill:none;"/>
	<path d="M 484.0,1490.0 C 470.336,1498.48 450.63,1498.77 435.0,1500.0" style="stroke:#010101; fill:none;"/>
	<path d="M 1193.0,1505.0 L 1204.0,1513.0 C 1199.85,1515.64 1193.05,1519.92 1188.0,1520.05 C 1184.42,1520.14 1180.49,1515.81 1182.14,1512.22 C 1183.51,1509.23 1188.37,1507.27 1191.09,1505.74 C 1199.51,1501.0 1209.46,1493.7 1219.0,1492.0" style="stroke:#010101; fill:none;"/>
	<path d="M 1534.0,1506.0 L 1518.0,1501.0 L 1530.0,1493.0" style="stroke:#010101; fill:none;"/>
	<path d="M 1263.0,1494.0 C 1271.32,1499.1 1281.66,1497.45 1291.0,1498.09 C 1309.64,1499.37 1328.19,1500.0 1347.0,1500.0 C 1355.34,1500.0 1366.52,1501.99 1374.0,1498.0" style="stroke:#010101; fill:none;"/>
	<path d="M 1545.0,1494.0 L 1556.0,1500.0" style="stroke:#010101; fill:none;"/>
	<path d="M 2158.0,1495.0 L 2159.0,1496.0" style="stroke:#010101; fill:none;"/>
	<path d="M 1031.0,1497.0 L 1023.0,1527.0" style="stroke:#010101; fill:none;"/>
	<path d="M 2161.0,1497.0 L 2162.0,1498.0" style="stroke:#010101; fill:none;"/>
	<path d="M 1113.0,1498.0 L 1113.0,1501.0" style="stroke:#010101; fill:none;"/>
	<path d="M 2164.0,1499.0 L 2169.0,1502.0" style="stroke:#010101; fill:none;"/>
	<path d="M 1097.0,1501.0 L 1097.0,1504.0" style="stroke:#010101; fill:none;"/>
	<path d="M 1513.0,1501.0 L 1517.0,1500.0" style="stroke:#010101; fill:none;"/>
	<path d="M 1088.0,1502.0 L 1088.0,1505.0" style="stroke:#010101; fill:none;"/>
	<path d="M 733.0,1503.0 L 736.0,1504.0" style="stroke:#010101; fill:none;"/>
	<path d="M 1561.0,1503.0 L 1575.0,1516.0 C 1576.44,1509.78 1572.67,1504.08 1566.0,1505.0" style="stroke:#010101; fill:none;"/>
	<path d="M 2171.0,1503.0 L 2179.0,1507.0" style="stroke:#010101; fill:none;"/>
	<path d="M 1500.0,1505.0 L 1507.0,1506.0" style="stroke:#010101; fill:none;"/>
	<path d="M 1575.0,1506.0 L 1593.0,1521.0" style="stroke:#010101; fill:none;"/>
	<path d="M 737.0,1507.0 C 745.744,1509.45 763.636,1529.22 758.799,1539.7 C 756.448,1544.79 749.931,1543.49 747.0,1547.0 L 749.0,1547.0" style="stroke:#010101; fill:none;"/>
	<path d="M 1087.0,1508.0 L 1087.0,1512.0" style="stroke:#010101; fill:none;"/>
	<path d="M 1205.0,1514.0 L 1224.0,1508.0" style="stroke:#010101; fill:none;"/>
	<path d="M 1486.0,1508.0 L 1500.0,1515.0" style="stroke:#010101; fill:none;"/>
	<path d="M 735.0,1509.0 C 739.63,1515.4 751.232,1530.26 749.0,1538.0" style="stroke:#010101; fill:none;"/>
	<path d="M 402.0,1510.0 L 417.0,1514.0 L 410.0,1515.0" style="stroke:#010101; fill:none;"/>
	<path d="M 1080.0,1511.0 L 1080.0,1514.0" style="stroke:#010101; fill:none;"/>
	<path d="M 406.0,1525.0 C 419.427,1526.06 439.225,1529.58 452.0,1524.39 C 458.652,1521.68 462.697,1515.27 469.0,1512.0" style="stroke:#010101; fill:none;"/>
	<path d="M 403.0,1513.0 L 404.0,1513.0" style="stroke:#010101; fill:none;"/>
	<path d="M 406.0,1514.0 L 408.0,1514.0" style="stroke:#010101; fill:none;"/>
	<path d="M 417.0,1514.0 L 423.0,1514.0" style="stroke:#010101; fill:none;"/>
	<path d="M 1476.0,1514.0 L 1488.0,1521.0" style="stroke:#010101; fill:none;"/>
	<path d="M 1595.0,1514.0 C 1604.63,1518.49 1608.96,1529.16 1611.0,1539.0" style="stroke:#010101; fill:none;"/>
	<path d="M 425.0,1515.0 L 424.0,1522.0" style="stroke:#010101; fill:none;"/>
	<path d="M 441.0,1515.0 L 454.0,1516.0" style="stroke:#010101; fill:none;"/>
	<path d="M 1308.0,1515.0 L 1299.0,1522.0" style="stroke:#010101; fill:none;"/>
	<path d="M 1457.0,1516.0 L 1464.0,1518.0 L 1450.0,1524.0 C 1457.59,1537.32 1467.67,1549.93 1468.0,1566.0" style="stroke:#010101; fill:none;"/>
	<path d="M 456.0,1517.0 L 460.0,1518.0" style="stroke:#010101; fill:none;"/>
	<path d="M 1576.0,1517.0 L 1578.0,1530.0" style="stroke:#010101; fill:none;"/>
	<path d="M 1325.0,1518.0 L 1318.0,1525.0" style="stroke:#010101; fill:none;"/>
	<path d="M 1464.0,1518.0 L 1480.0,1529.0" style="stroke:#010101; fill:none;"/>
	<path d="M 1331.0,1526.0 C 1335.38,1519.33 1344.43,1518.09 1352.0,1520.0 L 1345.0,1531.0" style="stroke:#010101; fill:none;"/>
	<path d="M 1353.0,1520.0 L 1357.0,1520.0" style="stroke:#010101; fill:none;"/>
	<path d="M 1360.0,1519.0 C 1367.58,1520.24 1364.02,1532.69 1365.0,1539.0" style="stroke:#010101; fill:none;"/>
	<path d="M 1427.0,1519.0 L 1433.0,1529.0 L 1438.0,1524.0" style="stroke:#010101; fill:none;"/>
	<path d="M 1326.0,1521.0 L 1333.0,1520.0" style="stroke:#010101; fill:none;"/>
	<path d="M 1370.0,1520.0 C 1373.41,1523.57 1371.66,1527.48 1371.0,1532.0" style="stroke:#010101; fill:none;"/>
	<path d="M 1390.0,1530.0 L 1394.0,1520.0 L 1407.0,1531.0" style="stroke:#010101; fill:none;"/>
	<path d="M 1590.0,1520.0 L 1586.0,1521.0" style="stroke:#010101; fill:none;"/>
	<path d="M 739.0,1521.0 L 730.0,1533.0" style="stroke:#010101; fill:none;"/>
	<path d="M 1376.0,1521.0 L 1377.0,1521.0" style="stroke:#010101; fill:none;"/>
	<path d="M 1411.0,1521.0 L 1419.0,1541.0" style="stroke:#010101; fill:none;"/>
	<path d="M 1291.0,1523.0 L 1298.0,1523.0" style="stroke:#010101; fill:none;"/>
	<path d="M 1382.0,1523.0 L 1381.0,1530.0" style="stroke:#010101; fill:none;"/>
	<path d="M 1386.0,1523.0 L 1392.0,1525.0" style="stroke:#010101; fill:none;"/>
	<path d="M 1421.0,1523.0 L 1428.0,1534.0" style="stroke:#010101; fill:none;"/>
	<path d="M 1575.0,1523.0 L 1575.0,1524.0" style="stroke:#010101; fill:none;"/>
	<path d="M 1453.0,1538.0 L 1442.0,1526.0 L 1450.0,1524.0" style="stroke:#010101; fill:none;"/>
	<path d="M 1439.0,1526.0 L 1442.0,1526.0" style="stroke:#010101; fill:none;"/>
	<path d="M 461.0,1527.0 L 461.0,1529.0 L 461.0,1527.0" style="stroke:#010101; fill:none;"/>
	<path d="M 2344.0,1527.0 L 2339.0,1599.0" style="stroke:#010101; fill:none;"/>
	<path d="M 456.0,1530.0 L 460.0,1529.0 L 458.0,1528.0" style="stroke:#010101; fill:none;"/>
	<path d="M 462.0,1528.0 L 464.0,1528.0" style="stroke:#010101; fill:none;"/>
	<path d="M 452.0,1530.0 L 450.0,1532.0 L 455.0,1529.0" style="stroke:#010101; fill:none;"/>
	<path d="M 1433.0,1529.0 L 1435.0,1535.0" style="stroke:#010101; fill:none;"/>
	<path d="M 416.0,1536.0 L 449.0,1531.0" style="stroke:#010101; fill:none;"/>
	<path d="M 454.0,1531.0 L 456.0,1531.0" style="stroke:#010101; fill:none;"/>
	<path d="M 421.0,1533.0 L 425.0,1533.0" style="stroke:#010101; fill:none;"/>
	<path d="M 454.0,1533.0 L 453.0,1535.0" style="stroke:#010101; fill:none;"/>
	<path d="M 1022.0,1533.0 L 1024.0,1553.0" style="stroke:#010101; fill:none;"/>
	<path d="M 687.0,1535.0 C 706.018,1534.84 726.473,1536.52 744.0,1545.0 L 705.0,1553.0" style="stroke:#010101; fill:none;"/>
	<path d="M 447.0,1537.0 C 437.933,1548.75 415.825,1555.56 403.0,1550.0" style="stroke:#010101; fill:none;"/>
	<path d="M 1065.0,1537.0 L 1056.0,1580.0" style="stroke:#010101; fill:none;"/>
	<path d="M 377.0,1539.0 L 384.0,1548.0 L 384.0,1545.0" style="stroke:#010101; fill:none;"/>
	<path d="M 488.0,1540.0 C 493.947,1547.32 507.972,1550.52 517.0,1552.08 C 542.263,1556.46 574.089,1558.57 599.0,1551.0" style="stroke:#010101; fill:none;"/>
	<path d="M 1072.0,1540.0 L 1069.0,1583.0" style="stroke:#010101; fill:none;"/>
	<path d="M 1065.0,1541.0 L 1065.0,1547.0" style="stroke:#010101; fill:none;"/>
	<path d="M 486.0,1542.0 L 487.0,1542.0" style="stroke:#010101; fill:none;"/>
	<path d="M 761.0,1542.0 L 761.0,1553.0 L 749.0,1548.0" style="stroke:#010101; fill:none;"/>
	<path d="M 381.0,1545.0 L 382.0,1546.0" style="stroke:#010101; fill:none;"/>
	<path d="M 745.0,1545.0 L 746.0,1546.0" style="stroke:#010101; fill:none;"/>
	<path d="M 385.0,1546.0 C 391.225,1550.39 398.447,1552.4 406.0,1553.0" style="stroke:#010101; fill:none;"/>
	<path d="M 1079.0,1546.0 C 1079.0,1557.28 1082.12,1588.02 1067.0,1587.0" style="stroke:#010101; fill:none;"/>
	<path d="M 1029.0,1548.0 L 1032.0,1554.0" style="stroke:#010101; fill:none;"/>
	<path d="M 658.0,1549.0 L 665.0,1556.0" style="stroke:#010101; fill:none;"/>
	<path d="M 1052.0,1549.0 L 1050.0,1559.0" style="stroke:#010101; fill:none;"/>
	<path d="M 966.0,1550.0 L 966.0,1554.0" style="stroke:#010101; fill:none;"/>
	<path d="M 408.0,1551.0 L 415.0,1551.0" style="stroke:#010101; fill:none;"/>
	<path d="M 419.0,1552.0 L 433.0,1551.0" style="stroke:#010101; fill:none;"/>
	<path d="M 1646.0,1556.0 C 1654.92,1552.05 1663.43,1552.0 1673.0,1552.0" style="stroke:#010101; fill:none;"/>
	<path d="M 762.0,1554.0 L 762.0,1555.0" style="stroke:#010101; fill:none;"/>
	<path d="M 1084.0,1554.0 C 1084.0,1562.18 1086.43,1585.14 1077.0,1588.0" style="stroke:#010101; fill:none;"/>
	<path d="M 476.0,1555.0 L 473.0,1559.0" style="stroke:#010101; fill:none;"/>
	<path d="M 1056.0,1556.0 L 1056.0,1559.0" style="stroke:#010101; fill:none;"/>
	<path d="M 437.0,1559.0 L 427.0,1570.0" style="stroke:#010101; fill:none;"/>
	<path d="M 480.0,1560.0 L 478.0,1562.0" style="stroke:#010101; fill:none;"/>
	<path d="M 647.0,1560.0 L 648.0,1565.0" style="stroke:#010101; fill:none;"/>
	<path d="M 1091.0,1560.0 L 1090.0,1587.0 C 1092.96,1587.24 1098.81,1589.65 1101.4,1587.88 C 1105.59,1585.02 1100.35,1570.34 1100.0,1566.0" style="stroke:#010101; fill:none;"/>
	<path d="M 1548.0,1589.0 C 1574.07,1578.15 1598.27,1566.36 1626.0,1560.0" style="stroke:#010101; fill:none;"/>
	<path d="M 490.0,1561.0 L 486.0,1568.0" style="stroke:#010101; fill:none;"/>
	<path d="M 632.0,1565.0 L 633.0,1561.0 L 643.0,1574.0" style="stroke:#010101; fill:none;"/>
	<path d="M 1071.0,1563.0 L 1070.0,1565.0" style="stroke:#010101; fill:none;"/>
	<path d="M 539.0,1575.0 L 547.0,1565.0 L 554.0,1582.0" style="stroke:#010101; fill:none;"/>
	<path d="M 532.0,1583.0 C 532.251,1577.16 532.613,1570.18 537.0,1566.0 L 539.0,1569.0" style="stroke:#010101; fill:none;"/>
	<path d="M 576.0,1573.0 L 582.0,1567.0 L 584.0,1569.0 L 584.0,1569.0" style="stroke:#010101; fill:none;"/>
	<path d="M 1067.0,1566.0 L 1069.0,1573.0" style="stroke:#010101; fill:none;"/>
	<path d="M 591.0,1567.0 L 592.0,1576.0" style="stroke:#010101; fill:none;"/>
	<path d="M 1109.0,1567.0 C 1110.67,1579.38 1109.79,1592.11 1120.0,1600.0 L 1117.0,1580.0" style="stroke:#010101; fill:none;"/>
	<path d="M 524.0,1568.0 L 524.0,1589.0" style="stroke:#010101; fill:none;"/>
	<path d="M 619.0,1568.0 L 623.0,1580.0" style="stroke:#010101; fill:none;"/>
	<path d="M 574.0,1569.0 C 571.724,1576.2 570.751,1583.73 573.0,1591.0" style="stroke:#010101; fill:none;"/>
	<path d="M 599.0,1569.0 L 604.0,1583.0" style="stroke:#010101; fill:none;"/>
	<path d="M 604.0,1569.0 C 611.427,1576.76 619.359,1586.05 621.0,1597.0" style="stroke:#010101; fill:none;"/>
	<path d="M 615.0,1569.0 L 621.0,1583.0" style="stroke:#010101; fill:none;"/>
	<path d="M 698.0,1572.0 L 711.0,1569.0" style="stroke:#010101; fill:none;"/>
	<path d="M 558.0,1587.0 L 565.0,1570.0 L 571.0,1581.0" style="stroke:#010101; fill:none;"/>
	<path d="M 1066.0,1572.0 L 1064.0,1582.0" style="stroke:#010101; fill:none;"/>
	<path d="M 552.0,1578.0 L 552.0,1579.0" style="stroke:#010101; fill:none;"/>
	<path d="M 453.0,1584.0 C 460.106,1602.32 470.131,1619.01 484.0,1633.0" style="stroke:#010101; fill:none;"/>
	<path d="M 965.0,1584.0 C 965.0,1609.38 967.881,1632.2 973.0,1657.0" style="stroke:#010101; fill:none;"/>
	<path d="M 1055.0,1584.0 L 1055.0,1585.0" style="stroke:#010101; fill:none;"/>
	<path d="M 730.0,1585.0 C 705.807,1608.99 672.454,1623.51 641.0,1635.05 C 630.767,1638.81 620.72,1644.35 610.0,1646.55 C 586.766,1651.31 562.297,1651.15 539.0,1655.0" style="stroke:#010101; fill:none;"/>
	<path d="M 1126.0,1585.0 L 1131.0,1602.0" style="stroke:#010101; fill:none;"/>
	<path d="M 1238.0,1586.0 C 1251.04,1585.16 1269.49,1594.25 1282.0,1598.33 C 1305.99,1606.15 1331.77,1613.01 1357.0,1615.0" style="stroke:#010101; fill:none;"/>
	<path d="M 1083.0,1588.0 L 1089.0,1588.0" style="stroke:#010101; fill:none;"/>
	<path d="M 1102.0,1589.0 L 1111.0,1593.0" style="stroke:#010101; fill:none;"/>
	<path d="M 1104.0,1591.0 L 1104.0,1594.0" style="stroke:#010101; fill:none;"/>
	<path d="M 1447.0,1594.0 L 1524.0,1593.0" style="stroke:#010101; fill:none;"/>
	<path d="M 2270.0,1598.0 L 2270.0,1599.0" style="stroke:#010101; fill:none;"/>
	<path d="M 1122.0,1601.0 C 1142.27,1611.78 1160.18,1626.5 1177.0,1642.0" style="stroke:#010101; fill:none;"/>
	<path d="M 2269.0,1602.0 L 2269.0,1603.0" style="stroke:#010101; fill:none;"/>
	<path d="M 2268.0,1606.0 L 2268.0,1607.0" style="stroke:#010101; fill:none;"/>
	<path d="M 1397.0,1621.0 C 1432.97,1621.0 1470.2,1623.12 1506.0,1618.71 C 1532.8,1615.41 1559.09,1612.75 1586.0,1610.91 C 1596.23,1610.21 1607.88,1606.06 1618.0,1607.13 C 1625.56,1607.93 1632.93,1613.41 1640.0,1616.05 C 1659.77,1623.45 1679.76,1632.13 1700.0,1638.0" style="stroke:#010101; fill:none;"/>
	<path d="M 2266.0,1612.0 L 2266.0,1613.0" style="stroke:#010101; fill:none;"/>
	<path d="M 755.0,1613.0 C 749.026,1625.78 731.033,1633.98 720.0,1642.0" style="stroke:#010101; fill:none;"/>
	<path d="M 2265.0,1615.0 L 2265.0,1616.0" style="stroke:#010101; fill:none;"/>
	<path d="M 1360.0,1616.0 L 1363.0,1616.0" style="stroke:#010101; fill:none;"/>
	<path d="M 1367.0,1617.0 L 1369.0,1617.0" style="stroke:#010101; fill:none;"/>
	<path d="M 1374.0,1618.0 L 1375.0,1618.0" style="stroke:#010101; fill:none;"/>
	<path d="M 2264.0,1618.0 L 2256.0,1634.0" style="stroke:#010101; fill:none;"/>
	<path d="M 1381.0,1619.0 L 1383.0,1619.0" style="stroke:#010101; fill:none;"/>
	<path d="M 1389.0,1620.0 L 1392.0,1620.0" style="stroke:#010101; fill:none;"/>
	<path d="M 2307.0,1641.0 C 2271.29,1668.55 2249.23,1708.2 2254.17,1754.0 C 2256.01,1771.0 2265.6,1787.44 2264.53,1805.0 C 2263.91,1814.99 2250.36,1830.69 2243.57,1837.71 C 2239.61,1841.82 2233.5,1846.09 2232.14,1852.0 C 2231.07,1856.67 2236.58,1862.11 2238.69,1866.0 C 2245.85,1879.17 2252.31,1893.8 2261.0,1906.0 C 2255.3,1908.96 2250.55,1903.76 2246.0,1900.25 C 2235.28,1891.98 2224.88,1876.95 2229.0,1863.0 C 2234.99,1868.61 2250.85,1892.69 2247.0,1900.0" style="stroke:#010101; fill:none;"/>
	<path d="M 493.0,1642.0 C 504.236,1651.21 519.637,1657.82 534.0,1656.0" style="stroke:#010101; fill:none;"/>
	<path d="M 2228.0,1649.0 L 2191.0,1695.0" style="stroke:#010101; fill:none;"/>
	<path d="M 974.0,1659.0 L 976.0,1667.0" style="stroke:#010101; fill:none;"/>
	<path d="M 662.0,1684.0 L 683.0,1669.0" style="stroke:#010101; fill:none;"/>
	<path d="M 977.0,1669.0 L 977.0,1670.0" style="stroke:#010101; fill:none;"/>
	<path d="M 978.0,1672.0 L 978.0,1673.0" style="stroke:#010101; fill:none;"/>
	<path d="M 979.0,1675.0 L 979.0,1676.0" style="stroke:#010101; fill:none;"/>
	<path d="M 980.0,1678.0 L 980.0,1679.0" style="stroke:#010101; fill:none;"/>
	<path d="M 981.0,1681.0 L 981.0,1682.0" style="stroke:#010101; fill:none;"/>
	<path d="M 660.0,1685.0 L 659.0,1686.0" style="stroke:#010101; fill:none;"/>
	<path d="M 983.0,1686.0 L 983.0,1687.0" style="stroke:#010101; fill:none;"/>
	<path d="M 354.0,1699.0 L 354.0,1700.0" style="stroke:#010101; fill:none;"/>
	<path d="M 2483.0,1729.0 L 2482.0,1730.0" style="stroke:#010101; fill:none;"/>
	<path d="M 2478.0,1737.0 L 2476.0,1740.0" style="stroke:#010101; fill:none;"/>
	<path d="M 2474.0,1744.0 L 2472.0,1747.0" style="stroke:#010101; fill:none;"/>
	<path d="M 2466.0,1759.0 L 2466.0,1760.0" style="stroke:#010101; fill:none;"/>
	<path d="M 1005.0,1762.0 C 1014.47,1778.23 1019.63,1797.41 1026.05,1815.0 C 1040.27,1853.9 1055.0,1895.17 1055.0,1937.0" style="stroke:#010101; fill:none;"/>
	<path d="M 2454.0,1788.0 L 2454.0,1789.0" style="stroke:#010101; fill:none;"/>
	<path d="M 2453.0,1791.0 L 2453.0,1792.0" style="stroke:#010101; fill:none;"/>
	<path d="M 2452.0,1794.0 L 2452.0,1795.0" style="stroke:#010101; fill:none;"/>
	<path d="M 2256.0,1823.0 C 2265.85,1836.31 2268.51,1860.16 2273.67,1876.0 C 2275.29,1880.97 2276.55,1890.97 2280.51,1894.5 C 2283.2,1896.89 2287.11,1894.96 2290.0,1894.0 C 2297.48,1891.52 2308.07,1889.78 2313.61,1883.79 C 2320.13,1876.72 2320.62,1865.18 2325.48,1857.0 C 2337.36,1836.96 2350.97,1821.69 2369.0,1807.48 C 2373.19,1804.18 2376.3,1799.51 2381.0,1797.0" style="stroke:#010101; fill:none;"/>
	<path d="M 2451.0,1797.0 L 2451.0,1798.0" style="stroke:#010101; fill:none;"/>
	<path d="M 2450.0,1801.0 L 2450.0,1802.0" style="stroke:#010101; fill:none;"/>
	<path d="M 2449.0,1804.0 L 2449.0,1806.0" style="stroke:#010101; fill:none;"/>
	<path d="M 2448.0,1808.0 L 2448.0,1810.0" style="stroke:#010101; fill:none;"/>
	<path d="M 2447.0,1813.0 L 2447.0,1814.0" style="stroke:#010101; fill:none;"/>
	<path d="M 2446.0,1818.0 L 2446.0,1819.0" style="stroke:#010101; fill:none;"/>
	<path d="M 2445.0,1823.0 L 2445.0,1825.0" style="stroke:#010101; fill:none;"/>
	<path d="M 2444.0,1830.0 L 2444.0,1833.0" style="stroke:#010101; fill:none;"/>
	<path d="M 2249.0,1833.0 C 2262.16,1852.31 2260.73,1880.48 2275.0,1899.0 L 2264.0,1912.0 L 2259.0,1909.0" style="stroke:#010101; fill:none;"/>
	<path d="M 2244.0,1839.0 C 2253.16,1850.98 2255.88,1868.99 2258.0,1883.0 L 2260.0,1880.0" style="stroke:#010101; fill:none;"/>
	<path d="M 2443.0,1839.0 L 2443.0,1842.0" style="stroke:#010101; fill:none;"/>
	<path d="M 2241.0,1850.0 L 2256.0,1880.0" style="stroke:#010101; fill:none;"/>
	<path d="M 2442.0,1850.0 L 2442.0,1852.0" style="stroke:#010101; fill:none;"/>
	<path d="M 2230.0,1856.0 L 2229.0,1863.0" style="stroke:#010101; fill:none;"/>
	<path d="M 2239.0,1857.0 L 2257.0,1890.0 L 2262.0,1885.0 L 2258.0,1884.0" style="stroke:#010101; fill:none;"/>
	<path d="M 1112.0,1871.0 C 1133.37,1887.28 1165.2,1917.95 1169.0,1946.0" style="stroke:#010101; fill:none;"/>
	<path d="M 2259.0,1886.0 L 2260.0,1887.0" style="stroke:#010101; fill:none;"/>
	<path d="M 2263.0,1887.0 L 2260.0,1891.0 L 2264.0,1890.0" style="stroke:#010101; fill:none;"/>
	<path d="M 2260.0,1890.0 L 2257.0,1891.0" style="stroke:#010101; fill:none;"/>
	<path d="M 2261.0,1892.0 L 2262.0,1895.0 L 2264.0,1891.0" style="stroke:#010101; fill:none;"/>
	<path d="M 1151.0,1895.0 L 1161.96,1902.0 L 1185.92,1930.0 L 1279.0,2044.0" style="stroke:#010101; fill:none;"/>
	<path d="M 2258.0,1893.0 L 2260.0,1895.0" style="stroke:#010101; fill:none;"/>
	<path d="M 2265.0,1894.0 L 2270.0,1903.0" style="stroke:#010101; fill:none;"/>
	<path d="M 2265.0,1895.0 L 2262.0,1896.0" style="stroke:#010101; fill:none;"/>
	<path d="M 2263.0,1897.0 L 2264.0,1900.0" style="stroke:#010101; fill:none;"/>
	<path d="M 2275.0,1899.0 L 2281.0,1897.0" style="stroke:#010101; fill:none;"/>
	<path d="M 2251.0,1899.0 L 2250.0,1902.0" style="stroke:#010101; fill:none;"/>
	<path d="M 2264.0,1912.0 L 2258.0,1921.0" style="stroke:#010101; fill:none;"/>
	<path d="M 1177.0,1956.0 C 1181.41,1974.56 1193.96,1989.43 1195.83,2009.0 C 1197.43,2025.77 1197.17,2043.06 1190.93,2059.0 C 1179.03,2089.42 1141.83,2119.39 1109.0,2122.0" style="stroke:#010101; fill:none;"/>
	<path d="M 660.0,1958.0 L 659.0,1962.0" style="stroke:#010101; fill:none;"/>
	<path d="M 655.0,1960.0 C 627.74,1998.29 624.985,2054.93 659.0,2089.0 C 665.492,2095.5 671.916,2104.3 681.0,2107.0" style="stroke:#010101; fill:none;"/>
	<path d="M 1052.0,1963.0 C 1050.14,1975.42 1040.32,1986.48 1031.0,1994.25 C 1009.16,2012.45 971.2,2024.0 943.0,2024.0" style="stroke:#010101; fill:none;"/>
	<path d="M 380.0,1996.0 C 381.198,2023.89 392.254,2051.76 401.0,2078.0 C 418.299,2129.9 439.355,2180.48 457.692,2232.0 C 464.149,2250.14 470.459,2268.27 478.0,2286.0 C 480.405,2291.66 487.601,2303.47 487.0,2309.0" style="stroke:#010101; fill:none;"/>
	<path d="M 664.0,2014.0 L 697.0,2048.0" style="stroke:#010101; fill:none;"/>
	<path d="M 2155.0,2041.0 C 2133.43,2145.53 2123.84,2253.43 2093.28,2356.0 C 2089.03,2370.25 2084.84,2385.46 2078.69,2399.0 C 2075.17,2406.75 2069.09,2413.14 2065.93,2421.0 C 2058.24,2440.14 2052.3,2460.19 2043.69,2479.0 C 2033.63,2500.98 2019.54,2521.12 2007.42,2542.0 C 1986.46,2578.13 1965.89,2615.62 1940.66,2649.0 C 1923.73,2671.4 1905.05,2694.01 1883.0,2711.55 C 1860.68,2729.3 1833.91,2740.83 1809.0,2754.31 C 1771.9,2774.37 1735.83,2796.31 1699.0,2816.86 C 1632.51,2853.95 1566.13,2890.18 1498.0,2924.25 C 1474.96,2935.77 1452.76,2949.89 1429.0,2959.83 C 1382.33,2979.36 1334.27,2995.02 1286.0,3010.03 C 1247.39,3022.02 1209.94,3035.37 1170.0,3042.58 C 1138.92,3048.18 1106.42,3050.52 1075.0,3053.0" style="stroke:#010101; fill:none;"/>
	<path d="M 2158.0,2043.0 C 2164.56,2071.36 2170.95,2108.75 2192.59,2130.79 C 2197.64,2135.93 2205.13,2137.92 2211.0,2142.0" style="stroke:#010101; fill:none;"/>
	<path d="M 2162.0,2056.0 L 2162.0,2059.0" style="stroke:#010101; fill:none;"/>
	<path d="M 894.0,2116.0 C 922.174,2100.98 952.04,2092.38 983.0,2085.58 C 996.906,2082.52 1010.73,2078.07 1025.0,2077.09 C 1048.24,2075.5 1070.98,2080.18 1094.0,2082.0" style="stroke:#010101; fill:none;"/>
	<path d="M 1064.0,2081.0 C 1036.32,2103.91 988.079,2106.31 954.0,2102.0" style="stroke:#010101; fill:none;"/>
	<path d="M 654.0,2087.0 L 625.0,2138.0" style="stroke:#010101; fill:none;"/>
	<path d="M 674.0,2088.0 L 690.0,2088.51 L 710.0,2102.25 L 741.0,2117.69 L 827.0,2147.0 C 826.484,2153.51 839.625,2157.19 845.0,2158.0" style="stroke:#010101; fill:none;"/>
	<path d="M 677.0,2089.0 C 680.971,2097.15 691.738,2103.39 699.0,2108.57 C 720.719,2124.07 746.887,2138.84 774.0,2141.0" style="stroke:#010101; fill:none;"/>
	<path d="M 2215.0,2142.0 L 2217.0,2142.0" style="stroke:#010101; fill:none;"/>
	<path d="M 837.0,2143.0 L 895.0,2173.0" style="stroke:#010101; fill:none;"/>
	<path d="M 756.0,2144.0 L 780.0,2160.0" style="stroke:#010101; fill:none;"/>
	<path d="M 620.0,2147.0 L 601.0,2184.0" style="stroke:#010101; fill:none;"/>
	<path d="M 827.0,2147.0 L 850.0,2151.0" style="stroke:#010101; fill:none;"/>
	<path d="M 2213.0,2148.0 L 2216.0,2149.0" style="stroke:#010101; fill:none;"/>
	<path d="M 2218.0,2150.0 L 2219.0,2150.0" style="stroke:#010101; fill:none;"/>
	<path d="M 865.0,2153.0 L 914.0,2156.0" style="stroke:#010101; fill:none;"/>
	<path d="M 845.0,2156.0 C 862.686,2163.4 878.559,2175.56 892.0,2189.0" style="stroke:#010101; fill:none;"/>
	<path d="M 2232.0,2159.0 L 2232.0,2160.0" style="stroke:#010101; fill:none;"/>
	<path d="M 773.0,2160.0 C 770.54,2168.56 775.633,2178.75 778.0,2187.0 C 782.271,2201.88 784.191,2216.87 787.0,2232.0" style="stroke:#010101; fill:none;"/>
	<path d="M 1343.0,2161.0 C 1351.38,2161.76 1358.96,2171.96 1365.0,2177.29 C 1383.77,2193.84 1401.3,2212.3 1419.0,2230.0 C 1467.15,2278.13 1540.83,2323.41 1537.87,2401.0 C 1537.65,2406.59 1534.43,2411.71 1532.91,2417.0 C 1529.07,2430.39 1525.29,2443.1 1520.0,2456.0" style="stroke:#010101; fill:none;"/>
	<path d="M 2231.0,2163.0 L 2231.0,2165.0" style="stroke:#010101; fill:none;"/>
	<path d="M 843.0,2166.0 C 860.241,2176.06 877.603,2183.64 892.0,2198.0" style="stroke:#010101; fill:none;"/>
	<path d="M 897.0,2174.0 L 904.0,2177.0" style="stroke:#010101; fill:none;"/>
	<path d="M 906.0,2178.0 L 907.0,2179.0" style="stroke:#010101; fill:none;"/>
	<path d="M 858.0,2181.0 C 868.397,2189.25 879.238,2197.29 886.0,2209.0" style="stroke:#010101; fill:none;"/>
	<path d="M 860.0,2197.0 L 886.0,2217.0" style="stroke:#010101; fill:none;"/>
	<path d="M 912.0,2205.0 C 918.284,2224.65 920.222,2244.83 928.427,2264.0 C 937.648,2285.54 953.826,2307.45 957.0,2331.0" style="stroke:#010101; fill:none;"/>
	<path d="M 1535.0,2213.0 L 1558.0,2221.0" style="stroke:#010101; fill:none;"/>
	<path d="M 870.0,2215.0 L 886.0,2239.0" style="stroke:#010101; fill:none;"/>
	<path d="M 825.0,2222.0 L 849.0,2233.0" style="stroke:#010101; fill:none;"/>
	<path d="M 1560.0,2222.0 L 1561.0,2222.0" style="stroke:#010101; fill:none;"/>
	<path d="M 1496.0,2227.0 C 1509.9,2227.3 1522.01,2237.52 1533.0,2245.0" style="stroke:#010101; fill:none;"/>
	<path d="M 1574.0,2227.0 L 1591.0,2234.0" style="stroke:#010101; fill:none;"/>
	<path d="M 816.0,2235.0 L 857.0,2255.0" style="stroke:#010101; fill:none;"/>
	<path d="M 1593.0,2235.0 L 1594.0,2236.0" style="stroke:#010101; fill:none;"/>
	<path d="M 816.0,2252.0 C 834.826,2255.94 848.588,2271.71 866.0,2279.0" style="stroke:#010101; fill:none;"/>
	<path d="M 1277.0,2257.0 L 1282.0,2258.0" style="stroke:#010101; fill:none;"/>
	<path d="M 822.0,2275.0 C 837.307,2266.83 857.984,2288.5 869.0,2297.0" style="stroke:#010101; fill:none;"/>
	<path d="M 569.0,2281.0 L 552.0,2339.0" style="stroke:#010101; fill:none;"/>
	<path d="M 1594.0,2284.0 C 1604.02,2282.07 1624.66,2295.41 1632.0,2302.0" style="stroke:#010101; fill:none;"/>
	<path d="M 1586.0,2291.0 L 1623.0,2310.0" style="stroke:#010101; fill:none;"/>
	<path d="M 827.0,2292.0 L 865.0,2313.0" style="stroke:#010101; fill:none;"/>
	<path d="M 820.0,2298.0 C 840.777,2299.81 861.692,2319.32 878.0,2331.0" style="stroke:#010101; fill:none;"/>
	<path d="M 487.0,2302.0 L 487.0,2305.0" style="stroke:#010101; fill:none;"/>
	<path d="M 1577.0,2303.0 L 1621.0,2321.0" style="stroke:#010101; fill:none;"/>
	<path d="M 490.0,2309.0 C 504.11,2352.37 527.259,2391.83 541.33,2435.0 C 575.805,2540.77 602.961,2648.2 643.0,2752.0" style="stroke:#010101; fill:none;"/>
	<path d="M 828.0,2314.0 L 874.0,2340.0" style="stroke:#010101; fill:none;"/>
	<path d="M 820.0,2320.0 C 826.03,2318.75 831.903,2322.42 837.0,2325.45 C 848.87,2332.51 859.272,2341.76 871.0,2349.0" style="stroke:#010101; fill:none;"/>
	<path d="M 1591.0,2325.0 L 1615.0,2335.0" style="stroke:#010101; fill:none;"/>
	<path d="M 1413.0,2326.0 C 1423.66,2327.9 1434.85,2334.4 1444.0,2340.0" style="stroke:#010101; fill:none;"/>
	<path d="M 827.0,2333.0 C 842.83,2339.83 857.442,2353.43 870.0,2365.0" style="stroke:#010101; fill:none;"/>
	<path d="M 956.0,2333.0 C 954.467,2344.38 953.644,2361.18 946.0,2370.0" style="stroke:#010101; fill:none;"/>
	<path d="M 1217.0,2335.0 L 1220.0,2336.0" style="stroke:#010101; fill:none;"/>
	<path d="M 1271.0,2336.0 L 1299.0,2346.0" style="stroke:#010101; fill:none;"/>
	<path d="M 1198.0,2343.0 L 1212.0,2350.0" style="stroke:#010101; fill:none;"/>
	<path d="M 818.0,2351.0 C 828.941,2368.44 849.003,2385.97 867.0,2396.0" style="stroke:#010101; fill:none;"/>
	<path d="M 839.0,2352.0 L 869.0,2376.0" style="stroke:#010101; fill:none;"/>
	<path d="M 1186.0,2352.0 L 1200.0,2359.0" style="stroke:#010101; fill:none;"/>
	<path d="M 818.0,2356.0 C 810.589,2361.98 800.292,2366.08 791.0,2368.0" style="stroke:#010101; fill:none;"/>
	<path d="M 1168.0,2356.0 L 1178.0,2366.0" style="stroke:#010101; fill:none;"/>
	<path d="M 1424.0,2357.0 L 1441.0,2364.0" style="stroke:#010101; fill:none;"/>
	<path d="M 1261.0,2358.0 C 1274.31,2358.0 1282.07,2362.43 1292.0,2371.0" style="stroke:#010101; fill:none;"/>
	<path d="M 744.0,2362.0 L 794.0,2373.0" style="stroke:#010101; fill:none;"/>
	<path d="M 1404.0,2362.0 L 1418.0,2375.0" style="stroke:#010101; fill:none;"/>
	<path d="M 731.0,2372.0 L 764.0,2380.0" style="stroke:#010101; fill:none;"/>
	<path d="M 878.0,2401.0 C 887.347,2390.57 901.932,2392.2 914.0,2387.24 C 920.678,2384.49 923.852,2378.57 929.0,2374.0" style="stroke:#010101; fill:none;"/>
	<path d="M 720.0,2375.0 L 748.0,2384.0" style="stroke:#010101; fill:none;"/>
	<path d="M 871.0,2377.0 L 872.0,2378.0" style="stroke:#010101; fill:none;"/>
	<path d="M 1262.0,2380.0 L 1293.0,2398.0" style="stroke:#010101; fill:none;"/>
	<path d="M 717.0,2382.0 L 721.0,2383.0" style="stroke:#010101; fill:none;"/>
	<path d="M 700.0,2387.0 L 705.0,2389.0" style="stroke:#010101; fill:none;"/>
	<path d="M 1735.0,2394.0 C 1744.65,2396.21 1753.11,2399.98 1761.0,2406.0" style="stroke:#010101; fill:none;"/>
	<path d="M 1227.0,2404.0 L 1249.0,2418.0" style="stroke:#010101; fill:none;"/>
	<path d="M 1691.0,2406.0 C 1697.89,2414.48 1718.54,2420.59 1729.0,2424.0" style="stroke:#010101; fill:none;"/>
	<path d="M 695.0,2440.0 C 728.216,2422.29 766.591,2412.38 804.0,2422.75 C 826.531,2428.99 846.893,2445.85 871.0,2446.29 C 914.234,2447.08 957.089,2428.26 1000.0,2424.17 C 1032.82,2421.04 1066.06,2427.79 1099.0,2426.99 C 1129.41,2426.24 1159.73,2419.39 1190.0,2417.0" style="stroke:#010101; fill:none;"/>
	<path d="M 645.0,2425.0 C 641.898,2430.82 640.016,2437.24 634.957,2441.79 C 631.282,2445.09 624.321,2446.49 622.072,2451.1 C 620.06,2455.23 624.316,2460.33 625.852,2464.0 C 630.766,2475.76 634.353,2486.98 648.0,2491.0" style="stroke:#010101; fill:none;"/>
	<path d="M 628.0,2456.0 C 636.876,2444.63 653.818,2445.92 667.0,2447.17 C 685.658,2448.95 704.311,2452.63 723.0,2453.91 C 740.508,2455.11 757.528,2453.71 775.0,2456.42 C 789.815,2458.72 804.041,2464.33 819.0,2465.83 C 836.717,2467.6 854.399,2465.15 872.0,2469.24 C 899.086,2475.52 922.332,2488.25 951.0,2487.12 C 959.724,2486.78 967.834,2482.33 976.0,2479.67 C 991.259,2474.7 1006.25,2469.75 1022.0,2466.6 C 1080.01,2455.0 1139.86,2447.63 1199.0,2445.04 C 1226.35,2443.84 1253.81,2446.6 1281.0,2442.57 C 1301.01,2439.61 1319.38,2429.52 1339.0,2426.4 C 1348.45,2424.89 1360.08,2435.1 1361.0,2444.0" style="stroke:#010101; fill:none;"/>
	<path d="M 1618.0,2435.0 L 1627.0,2437.0" style="stroke:#010101; fill:none;"/>
	<path d="M 2206.0,2455.0 L 2207.0,2466.0" style="stroke:#010101; fill:none;"/>
	<path d="M 1306.0,2468.0 C 1266.47,2502.43 1227.34,2537.57 1181.0,2562.69 C 1117.04,2597.36 1040.12,2611.0 968.0,2611.0" style="stroke:#010101; fill:none;"/>
	<path d="M 1516.0,2472.0 L 1507.0,2492.0" style="stroke:#010101; fill:none;"/>
	<path d="M 2207.0,2472.0 L 2145.0,2523.17 L 2042.0,2614.09 L 1976.0,2678.71 L 1888.0,2749.0" style="stroke:#010101; fill:none;"/>
	<path d="M 1579.0,2493.0 L 1588.0,2501.0" style="stroke:#010101; fill:none;"/>
	<path d="M 1679.0,2495.0 C 1693.16,2495.04 1708.87,2501.95 1721.0,2509.0" style="stroke:#010101; fill:none;"/>
	<path d="M 720.0,2511.0 C 728.464,2518.39 735.323,2527.42 744.0,2534.54 C 778.218,2562.59 820.356,2588.48 863.0,2601.28 C 890.568,2609.55 925.338,2612.0 954.0,2612.0" style="stroke:#010101; fill:none;"/>
	<path d="M 1433.0,2513.0 L 1455.0,2527.0" style="stroke:#010101; fill:none;"/>
	<path d="M 1687.0,2518.0 L 1722.0,2536.0" style="stroke:#010101; fill:none;"/>
	<path d="M 1682.0,2532.0 L 1719.0,2542.0" style="stroke:#010101; fill:none;"/>
	<path d="M 1425.0,2534.0 L 1443.0,2546.0" style="stroke:#010101; fill:none;"/>
	<path d="M 1587.0,2537.0 L 1596.0,2549.0" style="stroke:#010101; fill:none;"/>
	<path d="M 1412.0,2554.0 L 1425.0,2563.0" style="stroke:#010101; fill:none;"/>
	<path d="M 1565.0,2579.0 C 1565.77,2585.91 1570.9,2589.8 1576.0,2594.0" style="stroke:#010101; fill:none;"/>
	<path d="M 775.0,2604.0 L 770.0,2608.0" style="stroke:#010101; fill:none;"/>
	<path d="M 1540.0,2613.0 L 1553.0,2625.0" style="stroke:#010101; fill:none;"/>
	<path d="M 797.0,2619.0 L 797.0,2622.0" style="stroke:#010101; fill:none;"/>
	<path d="M 834.0,2626.0 L 840.0,2642.0" style="stroke:#010101; fill:none;"/>
	<path d="M 889.0,2644.0 C 886.674,2639.91 883.477,2634.46 886.0,2630.0" style="stroke:#010101; fill:none;"/>
	<path d="M 851.0,2635.0 L 857.0,2643.0" style="stroke:#010101; fill:none;"/>
	<path d="M 1040.0,2643.0 L 1058.0,2664.0" style="stroke:#010101; fill:none;"/>
	<path d="M 1057.0,2649.0 L 1065.0,2659.0" style="stroke:#010101; fill:none;"/>
	<path d="M 1091.0,2649.0 L 1105.0,2662.0" style="stroke:#010101; fill:none;"/>
	<path d="M 1083.0,2650.0 L 1092.0,2663.0" style="stroke:#010101; fill:none;"/>
	<path d="M 1103.0,2651.0 C 1109.4,2654.03 1113.66,2657.76 1117.0,2664.0" style="stroke:#010101; fill:none;"/>
	<path d="M 1847.0,2657.0 L 1860.0,2656.0" style="stroke:#010101; fill:none;"/>
	<path d="M 1622.0,2670.0 L 1634.0,2678.0" style="stroke:#010101; fill:none;"/>
	<path d="M 768.0,2671.0 L 773.0,2671.0" style="stroke:#010101; fill:none;"/>
	<path d="M 824.0,2681.0 C 824.062,2684.74 822.452,2685.79 819.0,2687.0" style="stroke:#010101; fill:none;"/>
	<path d="M 1592.0,2687.0 L 1598.0,2695.0" style="stroke:#010101; fill:none;"/>
	<path d="M 816.0,2688.0 L 817.0,2688.0" style="stroke:#010101; fill:none;"/>
	<path d="M 822.0,2694.0 L 854.0,2694.0" style="stroke:#010101; fill:none;"/>
	<path d="M 882.0,2696.0 C 922.789,2696.0 963.63,2701.19 1004.0,2706.87 C 1023.97,2709.68 1046.53,2710.36 1065.0,2719.0" style="stroke:#010101; fill:none;"/>
	<path d="M 1795.0,2699.0 L 1813.0,2699.0" style="stroke:#010101; fill:none;"/>
	<path d="M 744.0,2700.0 L 759.0,2715.0" style="stroke:#010101; fill:none;"/>
	<path d="M 1569.0,2700.0 C 1567.9,2704.99 1570.64,2707.52 1574.0,2711.0" style="stroke:#010101; fill:none;"/>
	<path d="M 1547.0,2709.0 L 1556.0,2715.0" style="stroke:#010101; fill:none;"/>
	<path d="M 1558.0,2716.0 L 1559.0,2716.0" style="stroke:#010101; fill:none;"/>
	<path d="M 735.0,2717.0 C 735.862,2724.74 742.349,2728.45 748.0,2733.0" style="stroke:#010101; fill:none;"/>
	<path d="M 1160.0,2728.0 L 1193.0,2724.0" style="stroke:#010101; fill:none;"/>
	<path d="M 1791.0,2724.0 L 1802.0,2732.0" style="stroke:#010101; fill:none;"/>
	<path d="M 711.0,2737.0 L 725.0,2748.0" style="stroke:#010101; fill:none;"/>
	<path d="M 1165.0,2742.0 L 1177.0,2743.0" style="stroke:#010101; fill:none;"/>
	<path d="M 729.0,2750.0 L 730.0,2750.0" style="stroke:#010101; fill:none;"/>
	<path d="M 1886.0,2750.0 L 1882.0,2754.0" style="stroke:#010101; fill:none;"/>
	<path d="M 734.0,2752.0 L 735.0,2752.0" style="stroke:#010101; fill:none;"/>
	<path d="M 1228.0,2754.0 C 1237.21,2754.2 1245.46,2759.03 1253.0,2764.0" style="stroke:#010101; fill:none;"/>
	<path d="M 1155.0,2758.0 L 1158.0,2758.0" style="stroke:#010101; fill:none;"/>
	<path d="M 1161.0,2759.0 L 1172.0,2760.0" style="stroke:#010101; fill:none;"/>
	<path d="M 1870.0,2765.0 L 1869.0,2766.0" style="stroke:#010101; fill:none;"/>
	<path d="M 1224.0,2773.0 L 1248.0,2785.0" style="stroke:#010101; fill:none;"/>
	<path d="M 655.0,2774.0 C 656.634,2784.91 663.04,2794.69 666.655,2805.0 C 679.923,2842.86 697.774,2880.66 723.261,2912.0 C 730.827,2921.3 739.53,2929.53 748.0,2938.0 C 751.552,2941.55 754.705,2946.34 760.0,2945.0 C 762.483,2949.29 764.802,2952.97 770.0,2951.0 L 763.0,2949.0" style="stroke:#010101; fill:none;"/>
	<path d="M 1250.0,2786.0 L 1251.0,2787.0" style="stroke:#010101; fill:none;"/>
	<path d="M 1334.0,2789.0 L 1347.0,2794.0" style="stroke:#010101; fill:none;"/>
	<path d="M 1253.0,2806.0 L 1271.0,2814.0" style="stroke:#010101; fill:none;"/>
	<path d="M 1574.0,2807.0 L 1585.0,2813.0" style="stroke:#010101; fill:none;"/>
	<path d="M 1333.0,2813.0 L 1344.0,2817.19 L 1369.0,2830.0" style="stroke:#010101; fill:none;"/>
	<path d="M 1560.0,2821.0 L 1564.0,2829.0" style="stroke:#010101; fill:none;"/>
	<path d="M 1505.0,2830.0 C 1512.15,2842.07 1522.97,2847.79 1533.0,2857.0" style="stroke:#010101; fill:none;"/>
	<path d="M 1371.0,2831.0 L 1373.0,2832.0" style="stroke:#010101; fill:none;"/>
	<path d="M 1793.0,2831.0 L 1792.0,2832.0" style="stroke:#010101; fill:none;"/>
	<path d="M 1264.0,2834.0 L 1281.0,2846.0" style="stroke:#010101; fill:none;"/>
	<path d="M 1786.0,2837.0 L 1784.0,2839.0" style="stroke:#010101; fill:none;"/>
	<path d="M 1773.0,2849.0 L 1772.0,2850.0" style="stroke:#010101; fill:none;"/>
	<path d="M 1181.0,2851.0 L 1203.0,2872.0" style="stroke:#010101; fill:none;"/>
	<path d="M 1758.0,2863.0 L 1757.0,2864.0" style="stroke:#010101; fill:none;"/>
	<path d="M 1179.0,2870.0 C 1186.05,2874.16 1193.67,2876.66 1198.0,2884.0" style="stroke:#010101; fill:none;"/>
	<path d="M 1166.0,2885.0 L 1189.0,2906.0" style="stroke:#010101; fill:none;"/>
	<path d="M 1297.0,2887.0 L 1311.0,2895.0" style="stroke:#010101; fill:none;"/>
	<path d="M 912.0,2891.0 L 914.0,2923.0" style="stroke:#010101; fill:none;"/>
	<path d="M 1147.0,2891.0 L 1170.0,2909.0" style="stroke:#010101; fill:none;"/>
	<path d="M 953.0,2892.0 L 954.0,2919.0" style="stroke:#010101; fill:none;"/>
	<path d="M 971.0,2898.0 L 976.0,2921.0" style="stroke:#010101; fill:none;"/>
	<path d="M 994.0,2908.0 L 1000.0,2926.0" style="stroke:#010101; fill:none;"/>
	<path d="M 1013.0,2912.0 L 1022.0,2939.0" style="stroke:#010101; fill:none;"/>
	<path d="M 1358.0,2914.0 L 1381.0,2924.0" style="stroke:#010101; fill:none;"/>
	<path d="M 1045.0,2933.0 C 1052.94,2939.09 1059.76,2950.91 1060.0,2961.0" style="stroke:#010101; fill:none;"/>
	<path d="M 1081.0,2939.0 L 1093.0,2958.0" style="stroke:#010101; fill:none;"/>
	<path d="M 1100.0,2940.0 L 1111.0,2954.0" style="stroke:#010101; fill:none;"/>
	<path d="M 763.0,2947.0 L 765.0,2947.0" style="stroke:#010101; fill:none;"/>
	<path d="M 758.0,2947.0 L 760.0,2949.0" style="stroke:#010101; fill:none;"/>
	<path d="M 767.0,2950.0 L 772.0,2955.0 L 770.0,2951.0" style="stroke:#010101; fill:none;"/>
	<path d="M 774.0,2954.0 L 786.0,2968.0 L 784.0,2964.0" style="stroke:#010101; fill:none;"/>
	<path d="M 770.0,2955.0 L 783.0,2966.0" style="stroke:#010101; fill:none;"/>
	<path d="M 1542.0,2960.0 C 1527.22,2980.54 1501.53,2994.82 1483.0,3012.09 C 1476.19,3018.43 1471.63,3032.03 1464.0,3036.0" style="stroke:#010101; fill:none;"/>
	<path d="M 788.0,2967.0 L 790.0,2969.0 L 788.0,2971.0 L 786.0,2969.0" style="stroke:#010101; fill:none;"/>
	<path d="M 791.0,2971.0 C 826.632,2990.86 862.882,3008.16 902.0,3020.66 C 912.553,3024.03 933.252,3033.47 944.0,3029.0 L 943.0,3026.0" style="stroke:#010101; fill:none;"/>
	<path d="M 990.0,2975.0 L 997.0,2994.0" style="stroke:#010101; fill:none;"/>
	<path d="M 1626.0,2978.0 L 1625.0,2979.0" style="stroke:#010101; fill:none;"/>
	<path d="M 1047.0,2986.0 L 1063.0,3009.0" style="stroke:#010101; fill:none;"/>
	<path d="M 1614.0,2989.0 L 1610.0,2993.0" style="stroke:#010101; fill:none;"/>
	<path d="M 1080.0,2991.0 L 1091.0,3005.0" style="stroke:#010101; fill:none;"/>
	<path d="M 1021.0,2995.0 L 1028.0,3005.0" style="stroke:#010101; fill:none;"/>
	<path d="M 944.0,3030.0 C 959.339,3037.41 976.513,3038.04 993.0,3040.43 C 1022.4,3044.69 1050.21,3048.0 1080.0,3048.0" style="stroke:#010101; fill:none;"/>
	<path d="M 946.0,3032.0 C 946.438,3052.58 957.993,3073.99 964.947,3093.0 C 977.108,3126.25 988.486,3159.94 998.14,3194.0 C 1001.42,3205.57 1003.98,3217.26 1006.58,3229.0 C 1007.64,3233.8 1010.19,3240.07 1009.52,3245.0 C 1008.39,3253.22 999.857,3264.06 995.414,3271.0 C 982.742,3290.8 967.708,3310.16 952.421,3328.0 C 943.607,3338.29 931.904,3347.47 928.0,3361.0" style="stroke:#010101; fill:none;"/>
	<path d="M 1462.0,3032.0 C 1441.48,3062.07 1414.66,3086.56 1389.0,3112.0" style="stroke:#010101; fill:none;"/>
	<path d="M 1555.0,3042.0 L 1554.0,3043.0" style="stroke:#010101; fill:none;"/>
	<path d="M 1547.0,3049.0 L 1546.0,3050.0" style="stroke:#010101; fill:none;"/>
	<path d="M 1536.0,3059.0 L 1535.0,3060.0" style="stroke:#010101; fill:none;"/>
	<path d="M 1298.0,3078.0 C 1296.2,3088.09 1288.51,3097.44 1283.19,3106.0 C 1268.35,3129.88 1248.01,3154.3 1229.0,3175.0" style="stroke:#010101; fill:none;"/>
	<path d="M 1514.0,3079.0 L 1513.0,3080.0" style="stroke:#010101; fill:none;"/>
	<path d="M 1387.0,3187.0 L 1352.0,3216.0" style="stroke:#010101; fill:none;"/>
	<path d="M 1218.0,3192.0 L 1216.0,3196.0" style="stroke:#010101; fill:none;"/>
	<path d="M 1349.0,3218.0 C 1344.04,3225.12 1337.61,3229.96 1330.0,3234.0" style="stroke:#010101; fill:none;"/>
	<path d="M 1182.0,3240.0 L 1182.0,3242.0" style="stroke:#010101; fill:none;"/>
	<path d="M 1181.0,3244.0 L 1171.43,3276.0 L 1163.0,3305.0" style="stroke:#010101; fill:none;"/>
	<path d="M 1011.0,3249.0 C 1013.94,3264.16 1017.56,3280.48 1016.96,3296.0 C 1016.17,3316.16 1009.56,3335.77 1004.0,3355.0" style="stroke:#010101; fill:none;"/>
	<path d="M 1304.0,3258.0 L 1303.0,3259.0" style="stroke:#010101; fill:none;"/>
	<path d="M 1258.0,3299.0 L 1257.0,3300.0" style="stroke:#010101; fill:none;"/>
	<path d="M 1217.0,3326.0 L 1216.0,3327.0" style="stroke:#010101; fill:none;"/>
</svg>
