<?xml version="1.0" ?>
<svg baseProfile="full" height="3378" version="1.1" width="2657" xmlns="http://www.w3.org/2000/svg" xmlns:ev="http://www.w3.org/2001/xml-events" xmlns:xlink="http://www.w3.org/1999/xlink">
	<defs/>
	<path d="M 1669.0,614.0 L 1670.0,614.0" style="stroke:#010101; fill:none;"/>
	<path d="M 1674.0,615.0 L 1682.0,617.0" style="stroke:#010101; fill:none;"/>
	<path d="M 1649.0,628.0 L 1674.0,630.0" style="stroke:#010101; fill:none;"/>
	<path d="M 661.0,669.0 L 678.0,671.0" style="stroke:#010101; fill:none;"/>
	<path d="M 1386.0,705.0 L 1433.0,706.0" style="stroke:#010101; fill:none;"/>
	<path d="M 1435.0,705.0 L 1440.0,705.0" style="stroke:#010101; fill:none;"/>
	<path d="M 1442.0,705.0 L 1443.0,705.0" style="stroke:#010101; fill:none;"/>
	<path d="M 648.0,710.0 C 654.947,717.099 658.852,725.21 663.247,734.0 C 668.892,745.29 677.061,757.024 677.79,770.0 C 679.33,797.409 651.743,822.341 635.286,841.0 C 620.975,857.225 604.013,870.708 588.0,885.17 C 572.601,899.077 557.938,913.963 542.0,927.245 C 524.729,941.638 506.063,953.571 491.44,971.0 C 479.409,985.339 469.263,1006.12 461.109,1023.0 C 440.617,1065.42 452.946,1114.84 421.13,1152.0 C 412.262,1162.36 401.046,1173.57 387.0,1176.0" style="stroke:#010101; fill:none;"/>
	<path d="M 1358.0,728.0 L 1370.0,727.0" style="stroke:#010101; fill:none;"/>
	<path d="M 1319.0,743.0 L 1326.0,743.0" style="stroke:#010101; fill:none;"/>
	<path d="M 736.0,780.0 C 735.16,799.573 736.419,817.762 731.0,837.0" style="stroke:#010101; fill:none;"/>
	<path d="M 725.0,856.0 L 682.0,907.0" style="stroke:#010101; fill:none;"/>
	<path d="M 1031.0,901.0 L 1038.0,901.0" style="stroke:#010101; fill:none;"/>
	<path d="M 680.0,908.0 L 677.0,911.0" style="stroke:#010101; fill:none;"/>
	<path d="M 1005.0,919.0 L 1008.0,919.0" style="stroke:#010101; fill:none;"/>
	<path d="M 1010.0,919.0 L 1011.0,919.0" style="stroke:#010101; fill:none;"/>
	<path d="M 1015.0,920.0 L 1016.0,920.0" style="stroke:#010101; fill:none;"/>
	<path d="M 965.0,933.0 L 1004.0,936.0" style="stroke:#010101; fill:none;"/>
	<path d="M 965.0,949.0 L 966.0,949.0" style="stroke:#010101; fill:none;"/>
	<path d="M 968.0,949.0 L 974.0,950.0" style="stroke:#010101; fill:none;"/>
	<path d="M 970.0,955.0 L 965.0,960.0" style="stroke:#010101; fill:none;"/>
	<path d="M 961.0,962.0 L 962.0,962.0" style="stroke:#010101; fill:none;"/>
	<path d="M 670.0,965.0 C 674.19,974.929 672.218,988.509 671.169,999.0 C 668.155,1029.14 656.17,1057.72 632.0,1077.54 C 617.644,1089.3 594.541,1095.65 583.514,1111.01 C 580.591,1115.09 581.059,1120.31 579.935,1125.0 C 575.339,1144.18 580.114,1166.97 563.91,1181.79 C 550.477,1194.07 523.963,1191.56 509.0,1184.0 L 507.0,1192.0" style="stroke:#010101; fill:none;"/>
	<path d="M 719.0,972.0 L 720.0,972.0" style="stroke:#010101; fill:none;"/>
	<path d="M 453.0,979.0 L 454.0,979.0" style="stroke:#010101; fill:none;"/>
	<path d="M 716.0,979.0 L 716.0,980.0" style="stroke:#010101; fill:none;"/>
	<path d="M 452.0,982.0 L 451.0,983.0" style="stroke:#010101; fill:none;"/>
	<path d="M 715.0,982.0 L 712.0,994.0" style="stroke:#010101; fill:none;"/>
	<path d="M 439.0,1001.0 L 438.0,1002.0" style="stroke:#010101; fill:none;"/>
	<path d="M 2440.0,1003.0 L 2441.0,1004.0" style="stroke:#010101; fill:none;"/>
	<path d="M 434.0,1007.0 L 432.0,1009.0" style="stroke:#010101; fill:none;"/>
	<path d="M 2443.0,1008.0 L 2449.0,1016.0" style="stroke:#010101; fill:none;"/>
	<path d="M 509.0,1023.0 C 509.0,1037.72 513.732,1052.41 511.573,1067.0 C 509.684,1079.76 507.864,1094.9 503.456,1107.0 C 500.511,1115.09 493.47,1122.98 494.12,1132.0 C 494.858,1142.25 503.886,1155.24 509.0,1164.0 L 554.0,1139.74 L 577.0,1128.0" style="stroke:#010101; fill:none;"/>
	<path d="M 721.0,1024.0 L 714.0,1083.0" style="stroke:#010101; fill:none;"/>
	<path d="M 2514.0,1081.0 L 2515.0,1081.0" style="stroke:#010101; fill:none;"/>
	<path d="M 1232.0,1099.0 L 1271.0,1104.0" style="stroke:#010101; fill:none;"/>
	<path d="M 1273.0,1105.0 L 1280.0,1106.0" style="stroke:#010101; fill:none;"/>
	<path d="M 1282.0,1107.0 L 1284.0,1107.0" style="stroke:#010101; fill:none;"/>
	<path d="M 1246.0,1110.0 L 1296.0,1118.08 L 1362.0,1131.0" style="stroke:#010101; fill:none;"/>
	<path d="M 1929.0,1110.0 L 1935.0,1113.0" style="stroke:#010101; fill:none;"/>
	<path d="M 1937.0,1114.0 L 1938.0,1115.0" style="stroke:#010101; fill:none;"/>
	<path d="M 1941.0,1117.0 C 1968.46,1130.67 1990.67,1157.67 2012.0,1179.0" style="stroke:#010101; fill:none;"/>
	<path d="M 1259.0,1121.0 C 1320.87,1132.53 1382.79,1140.75 1443.0,1160.0" style="stroke:#010101; fill:none;"/>
	<path d="M 2554.0,1128.0 L 2558.0,1129.0" style="stroke:#010101; fill:none;"/>
	<path d="M 1271.0,1131.0 L 1428.0,1162.0" style="stroke:#010101; fill:none;"/>
	<path d="M 1364.0,1132.0 L 1366.0,1132.0" style="stroke:#010101; fill:none;"/>
	<path d="M 1368.0,1133.0 L 1369.0,1133.0" style="stroke:#010101; fill:none;"/>
	<path d="M 1371.0,1134.0 L 1377.0,1135.0" style="stroke:#010101; fill:none;"/>
	<path d="M 1382.0,1137.0 L 1383.0,1137.0" style="stroke:#010101; fill:none;"/>
	<path d="M 510.0,1184.0 L 512.628,1170.22 L 529.0,1161.75 L 575.0,1140.0" style="stroke:#010101; fill:none;"/>
	<path d="M 1289.0,1142.0 C 1314.59,1142.53 1328.1,1161.1 1345.0,1178.0 C 1373.03,1206.03 1398.62,1236.25 1423.61,1267.0 C 1435.99,1282.24 1451.59,1298.58 1459.0,1317.0 L 1455.0,1313.0" style="stroke:#010101; fill:none;"/>
	<path d="M 1314.0,1146.0 C 1372.69,1153.46 1428.69,1173.74 1486.0,1187.0" style="stroke:#010101; fill:none;"/>
	<path d="M 569.0,1158.0 C 560.225,1160.39 545.684,1169.35 537.0,1166.0 C 544.62,1158.3 565.195,1148.56 576.0,1148.0" style="stroke:#010101; fill:none;"/>
	<path d="M 1297.0,1151.0 L 1351.91,1203.0 L 1428.0,1293.0" style="stroke:#010101; fill:none;"/>
	<path d="M 1326.0,1155.0 C 1333.0,1155.38 1336.74,1159.98 1342.0,1164.12 C 1353.29,1172.99 1363.26,1183.24 1374.0,1192.71 C 1407.17,1221.97 1438.51,1257.46 1464.84,1293.0 C 1473.34,1304.46 1481.66,1315.95 1489.31,1328.0 C 1491.95,1332.16 1491.81,1337.63 1495.0,1341.0 L 1494.0,1336.0" style="stroke:#010101; fill:none;"/>
	<path d="M 1336.0,1158.0 C 1349.02,1155.9 1367.93,1163.77 1381.0,1166.4 C 1422.71,1174.8 1462.74,1188.46 1504.0,1198.0" style="stroke:#010101; fill:none;"/>
	<path d="M 1353.0,1163.0 C 1372.52,1182.12 1394.43,1198.87 1413.99,1218.04 C 1439.8,1243.34 1463.91,1270.81 1487.72,1298.0 C 1497.5,1309.18 1507.3,1320.7 1515.66,1333.0 C 1517.76,1336.1 1524.65,1343.81 1521.0,1347.0" style="stroke:#010101; fill:none;"/>
	<path d="M 1430.0,1163.0 L 1434.0,1164.0" style="stroke:#010101; fill:none;"/>
	<path d="M 522.0,1176.0 L 520.0,1172.0 L 523.0,1175.0 L 532.0,1167.0 L 530.0,1175.0 L 566.0,1164.0" style="stroke:#010101; fill:none;"/>
	<path d="M 509.0,1165.0 L 512.0,1170.0" style="stroke:#010101; fill:none;"/>
	<path d="M 1436.0,1165.0 L 1440.0,1166.0" style="stroke:#010101; fill:none;"/>
	<path d="M 533.0,1166.0 L 538.0,1168.0" style="stroke:#010101; fill:none;"/>
	<path d="M 516.0,1183.0 C 532.866,1181.53 554.383,1165.81 571.0,1170.0" style="stroke:#010101; fill:none;"/>
	<path d="M 1449.0,1169.0 L 1450.0,1170.0" style="stroke:#010101; fill:none;"/>
	<path d="M 529.0,1176.0 L 526.0,1170.0 L 528.0,1170.0" style="stroke:#010101; fill:none;"/>
	<path d="M 533.0,1170.0 L 536.0,1169.0" style="stroke:#010101; fill:none;"/>
	<path d="M 513.0,1175.0 L 519.0,1173.0" style="stroke:#010101; fill:none;"/>
	<path d="M 527.0,1188.0 L 555.0,1178.58 L 568.0,1177.0" style="stroke:#010101; fill:none;"/>
	<path d="M 516.0,1177.0 L 521.0,1176.0" style="stroke:#010101; fill:none;"/>
	<path d="M 1408.0,1182.0 C 1436.11,1185.78 1464.09,1196.06 1491.0,1204.66 C 1506.9,1209.74 1524.18,1213.11 1539.0,1221.0" style="stroke:#010101; fill:none;"/>
	<path d="M 1383.0,1184.0 C 1436.26,1225.08 1484.75,1277.29 1522.66,1333.0 C 1531.6,1346.15 1540.13,1359.77 1547.25,1374.0 C 1549.87,1379.25 1554.51,1385.9 1550.0,1391.0 L 1512.0,1342.0" style="stroke:#010101; fill:none;"/>
	<path d="M 1384.0,1185.0 L 1382.0,1187.0" style="stroke:#010101; fill:none;"/>
	<path d="M 1488.0,1188.0 L 1490.0,1189.0" style="stroke:#010101; fill:none;"/>
	<path d="M 1392.0,1189.0 C 1424.26,1193.34 1457.63,1204.85 1489.0,1213.58 C 1512.68,1220.16 1539.16,1225.6 1561.0,1237.0" style="stroke:#010101; fill:none;"/>
	<path d="M 1492.0,1189.0 L 1495.0,1191.0" style="stroke:#010101; fill:none;"/>
	<path d="M 1395.0,1196.0 L 1393.0,1198.0" style="stroke:#010101; fill:none;"/>
	<path d="M 2554.0,1199.0 L 2555.0,1200.0" style="stroke:#010101; fill:none;"/>
	<path d="M 1138.0,1200.0 C 1139.02,1212.48 1147.21,1222.71 1154.92,1232.0 C 1168.65,1248.55 1182.98,1262.01 1200.0,1275.0" style="stroke:#010101; fill:none;"/>
	<path d="M 1405.0,1201.0 C 1416.21,1199.93 1427.11,1210.43 1435.0,1217.29 C 1457.61,1236.96 1478.18,1260.96 1496.0,1285.0 L 1500.0,1281.0 L 1495.0,1282.0" style="stroke:#010101; fill:none;"/>
	<path d="M 1835.0,1200.0 L 1836.0,1201.0" style="stroke:#010101; fill:none;"/>
	<path d="M 1407.0,1202.0 L 1406.0,1203.0" style="stroke:#010101; fill:none;"/>
	<path d="M 1421.0,1205.0 C 1439.11,1205.44 1460.62,1215.07 1478.0,1220.28 C 1512.78,1230.72 1552.8,1239.03 1585.0,1256.0" style="stroke:#010101; fill:none;"/>
	<path d="M 1850.0,1208.0 L 1851.0,1209.0" style="stroke:#010101; fill:none;"/>
	<path d="M 1856.0,1211.0 L 1857.0,1212.0" style="stroke:#010101; fill:none;"/>
	<path d="M 1859.0,1213.0 L 1860.0,1214.0" style="stroke:#010101; fill:none;"/>
	<path d="M 1863.0,1215.0 L 1864.0,1216.0" style="stroke:#010101; fill:none;"/>
	<path d="M 1866.0,1217.0 L 1867.0,1218.0" style="stroke:#010101; fill:none;"/>
	<path d="M 1438.0,1220.0 L 1452.0,1222.0 L 1481.0,1230.28 L 1564.0,1255.67 L 1606.0,1272.0" style="stroke:#010101; fill:none;"/>
	<path d="M 1869.0,1219.0 L 1886.0,1231.0" style="stroke:#010101; fill:none;"/>
	<path d="M 2042.0,1219.0 L 2043.0,1220.0" style="stroke:#010101; fill:none;"/>
	<path d="M 2044.0,1222.0 L 2045.0,1223.0" style="stroke:#010101; fill:none;"/>
	<path d="M 2047.0,1227.0 C 2060.82,1240.94 2067.63,1258.38 2077.45,1275.0 C 2099.41,1312.14 2119.47,1351.47 2150.0,1382.0" style="stroke:#010101; fill:none;"/>
	<path d="M 1454.0,1228.0 L 1498.0,1278.0" style="stroke:#010101; fill:none;"/>
	<path d="M 1504.0,1242.0 L 1518.04,1259.51 L 1533.0,1263.86 L 1565.0,1273.31 L 1652.0,1305.0" style="stroke:#010101; fill:none;"/>
	<path d="M 1481.0,1248.0 C 1490.4,1250.18 1504.66,1258.82 1514.0,1256.0" style="stroke:#010101; fill:none;"/>
	<path d="M 1489.0,1253.0 C 1528.42,1290.72 1558.42,1336.55 1583.26,1385.0 C 1593.24,1404.46 1605.2,1424.79 1611.0,1446.0" style="stroke:#010101; fill:none;"/>
	<path d="M 1911.0,1261.0 L 1945.96,1307.0 L 1967.0,1342.0" style="stroke:#010101; fill:none;"/>
	<path d="M 1520.0,1263.0 C 1526.03,1270.85 1543.74,1288.34 1555.0,1279.0 C 1562.45,1289.27 1586.3,1294.12 1599.0,1296.0 L 1595.0,1284.0" style="stroke:#010101; fill:none;"/>
	<path d="M 1550.0,1271.0 L 1555.0,1278.0" style="stroke:#010101; fill:none;"/>
	<path d="M 2249.0,1275.0 L 2251.0,1279.0" style="stroke:#010101; fill:none;"/>
	<path d="M 1570.0,1276.0 L 1576.0,1288.0" style="stroke:#010101; fill:none;"/>
	<path d="M 1530.0,1278.0 C 1550.56,1306.3 1565.54,1339.15 1581.78,1370.0 C 1594.59,1394.34 1610.36,1420.47 1618.0,1447.0" style="stroke:#010101; fill:none;"/>
	<path d="M 1425.0,1281.0 L 1454.0,1313.0" style="stroke:#010101; fill:none;"/>
	<path d="M 1556.0,1281.0 L 1554.0,1283.0" style="stroke:#010101; fill:none;"/>
	<path d="M 2251.0,1281.0 L 2252.0,1282.0" style="stroke:#010101; fill:none;"/>
	<path d="M 1212.0,1282.0 L 1242.0,1304.66 L 1273.0,1325.0" style="stroke:#010101; fill:none;"/>
	<path d="M 1499.0,1283.0 L 1501.0,1290.0 L 1502.0,1289.0 L 1503.0,1288.0 L 1502.0,1287.0 L 1500.0,1289.0 L 1502.0,1289.0" style="stroke:#010101; fill:none;"/>
	<path d="M 1498.0,1284.0 L 1500.0,1286.0" style="stroke:#010101; fill:none;"/>
	<path d="M 1502.0,1285.0 L 1503.0,1286.0" style="stroke:#010101; fill:none;"/>
	<path d="M 1562.0,1287.0 C 1562.87,1289.74 1563.91,1292.63 1566.33,1294.44 C 1569.93,1297.13 1576.62,1296.91 1580.91,1298.23 C 1588.27,1300.49 1594.69,1306.73 1603.0,1305.0 C 1608.64,1313.41 1625.7,1316.45 1635.0,1320.42 C 1660.03,1331.1 1683.69,1343.98 1708.0,1356.0" style="stroke:#010101; fill:none;"/>
	<path d="M 2254.0,1287.0 L 2257.0,1291.0" style="stroke:#010101; fill:none;"/>
	<path d="M 1503.0,1288.0 L 1509.0,1296.0" style="stroke:#010101; fill:none;"/>
	<path d="M 1501.0,1290.0 L 1505.0,1296.0" style="stroke:#010101; fill:none;"/>
	<path d="M 1557.0,1291.0 L 1558.0,1291.0" style="stroke:#010101; fill:none;"/>
	<path d="M 1507.0,1292.0 L 1505.0,1294.0" style="stroke:#010101; fill:none;"/>
	<path d="M 1581.0,1294.0 L 1582.0,1297.0" style="stroke:#010101; fill:none;"/>
	<path d="M 1507.0,1296.0 C 1508.12,1299.76 1509.4,1300.64 1513.0,1299.0 L 1510.0,1296.0" style="stroke:#010101; fill:none;"/>
	<path d="M 1599.0,1296.0 L 1628.0,1307.6 L 1690.0,1336.0" style="stroke:#010101; fill:none;"/>
	<path d="M 1568.0,1297.0 C 1572.85,1313.81 1584.72,1330.11 1592.22,1346.0 C 1605.51,1374.14 1616.48,1403.11 1628.0,1432.0 C 1634.67,1448.72 1644.62,1467.69 1645.0,1486.0" style="stroke:#010101; fill:none;"/>
	<path d="M 1511.0,1298.0 L 1509.0,1300.0" style="stroke:#010101; fill:none;"/>
	<path d="M 2261.0,1298.0 L 2266.0,1303.0" style="stroke:#010101; fill:none;"/>
	<path d="M 1603.0,1300.0 L 1603.0,1305.0" style="stroke:#010101; fill:none;"/>
	<path d="M 1514.0,1301.0 L 1514.0,1308.0 L 1510.0,1303.0" style="stroke:#010101; fill:none;"/>
	<path d="M 1587.0,1303.0 C 1589.44,1311.29 1598.33,1317.13 1607.0,1314.0 C 1615.92,1328.67 1650.57,1322.62 1654.0,1342.0 C 1644.19,1340.25 1626.67,1334.71 1625.0,1324.0" style="stroke:#010101; fill:none;"/>
	<path d="M 2267.0,1305.0 L 2285.0,1336.0" style="stroke:#010101; fill:none;"/>
	<path d="M 1517.0,1306.0 L 1520.0,1309.0 L 1517.0,1312.0 L 1520.0,1311.0" style="stroke:#010101; fill:none;"/>
	<path d="M 1518.0,1308.0 L 1516.0,1311.0" style="stroke:#010101; fill:none;"/>
	<path d="M 1514.0,1309.0 L 1516.0,1311.0" style="stroke:#010101; fill:none;"/>
	<path d="M 1518.0,1311.0 C 1518.98,1315.52 1520.67,1319.11 1525.0,1321.0 L 1526.0,1320.0 L 1525.0,1321.0" style="stroke:#010101; fill:none;"/>
	<path d="M 1521.0,1311.0 L 1526.0,1318.0" style="stroke:#010101; fill:none;"/>
	<path d="M 1607.0,1311.0 L 1607.0,1314.0" style="stroke:#010101; fill:none;"/>
	<path d="M 1181.0,1312.0 C 1208.19,1323.32 1238.96,1340.71 1269.0,1342.0" style="stroke:#010101; fill:none;"/>
	<path d="M 1470.0,1313.0 L 1492.0,1338.0" style="stroke:#010101; fill:none;"/>
	<path d="M 1522.0,1313.0 L 1520.0,1315.0" style="stroke:#010101; fill:none;"/>
	<path d="M 1593.0,1314.0 C 1597.43,1327.98 1606.55,1341.58 1612.69,1355.0 C 1623.7,1379.04 1632.84,1404.04 1641.5,1429.0 C 1646.96,1444.71 1654.0,1460.12 1654.0,1477.0" style="stroke:#010101; fill:none;"/>
	<path d="M 1459.0,1317.0 L 1472.0,1333.0" style="stroke:#010101; fill:none;"/>
	<path d="M 1524.0,1317.0 L 1522.0,1319.0" style="stroke:#010101; fill:none;"/>
	<path d="M 1527.0,1320.0 L 1525.0,1324.0 L 1528.0,1323.0" style="stroke:#010101; fill:none;"/>
	<path d="M 1611.0,1320.0 C 1612.58,1338.07 1623.44,1357.76 1629.17,1375.0 C 1640.69,1409.69 1649.95,1445.93 1663.0,1480.0" style="stroke:#010101; fill:none;"/>
	<path d="M 1524.0,1323.0 L 1527.0,1324.0" style="stroke:#010101; fill:none;"/>
	<path d="M 1528.0,1323.0 C 1536.41,1327.6 1542.09,1341.13 1547.33,1349.0 C 1563.19,1372.79 1582.72,1398.75 1592.0,1426.0" style="stroke:#010101; fill:none;"/>
	<path d="M 1526.0,1325.0 C 1536.6,1352.98 1560.52,1374.93 1570.0,1404.0" style="stroke:#010101; fill:none;"/>
	<path d="M 1531.0,1325.0 L 1528.0,1328.0" style="stroke:#010101; fill:none;"/>
	<path d="M 1280.0,1328.0 C 1294.96,1334.63 1311.53,1341.86 1327.0,1346.88 C 1331.26,1348.27 1339.33,1352.86 1343.0,1349.0" style="stroke:#010101; fill:none;"/>
	<path d="M 1533.0,1328.0 L 1530.0,1331.0" style="stroke:#010101; fill:none;"/>
	<path d="M 1535.0,1331.0 L 1532.0,1334.0" style="stroke:#010101; fill:none;"/>
	<path d="M 1629.0,1334.0 C 1639.7,1371.43 1656.5,1407.08 1666.37,1445.0 C 1670.31,1460.12 1676.93,1476.2 1674.0,1492.0" style="stroke:#010101; fill:none;"/>
	<path d="M 1664.0,1334.0 L 1666.24,1341.44 L 1694.0,1356.15 L 1707.0,1361.0 L 1705.0,1355.0" style="stroke:#010101; fill:none;"/>
	<path d="M 1506.0,1335.0 L 1511.0,1340.0" style="stroke:#010101; fill:none;"/>
	<path d="M 1655.0,1336.0 L 1663.0,1339.0" style="stroke:#010101; fill:none;"/>
	<path d="M 1474.0,1337.0 L 1476.0,1339.0" style="stroke:#010101; fill:none;"/>
	<path d="M 1692.0,1337.0 L 1693.0,1338.0" style="stroke:#010101; fill:none;"/>
	<path d="M 1639.0,1340.0 L 1673.87,1455.0 L 1683.0,1498.0" style="stroke:#010101; fill:none;"/>
	<path d="M 1275.0,1341.0 C 1287.07,1341.0 1301.46,1346.29 1313.0,1342.0" style="stroke:#010101; fill:none;"/>
	<path d="M 1495.0,1341.0 L 1515.0,1371.0" style="stroke:#010101; fill:none;"/>
	<path d="M 1696.0,1341.0 L 1697.0,1342.0" style="stroke:#010101; fill:none;"/>
	<path d="M 1654.0,1342.0 C 1657.99,1345.07 1664.82,1350.0 1667.0,1343.0" style="stroke:#010101; fill:none;"/>
	<path d="M 1698.0,1344.0 L 1701.0,1349.0" style="stroke:#010101; fill:none;"/>
	<path d="M 1657.0,1345.0 C 1658.6,1363.21 1667.21,1383.09 1671.63,1401.0 C 1680.58,1437.28 1688.39,1475.62 1690.0,1513.0" style="stroke:#010101; fill:none;"/>
	<path d="M 1667.0,1348.0 L 1679.0,1355.95 L 1712.0,1376.0 L 1713.0,1375.0 L 1711.0,1367.0 L 1729.0,1377.0 L 1722.0,1364.0" style="stroke:#010101; fill:none;"/>
	<path d="M 1182.0,1349.0 L 1196.0,1366.0" style="stroke:#010101; fill:none;"/>
	<path d="M 1343.0,1351.0 L 1349.0,1370.0" style="stroke:#010101; fill:none;"/>
	<path d="M 1669.0,1352.0 C 1669.35,1368.73 1676.31,1386.56 1679.6,1403.0 C 1687.64,1443.14 1696.0,1482.93 1696.0,1524.0" style="stroke:#010101; fill:none;"/>
	<path d="M 492.0,1354.0 C 494.139,1356.56 490.723,1360.51 489.191,1363.0 C 484.208,1371.09 478.939,1379.09 473.667,1387.0 C 450.99,1421.02 426.51,1453.76 402.728,1487.0 C 364.41,1540.57 325.854,1594.84 298.309,1655.0 C 293.717,1665.03 293.238,1675.87 289.136,1686.0 C 281.896,1703.88 272.284,1720.86 265.695,1739.0 C 256.368,1764.67 251.052,1791.62 244.116,1818.0 C 234.1,1856.09 224.28,1894.17 217.464,1933.0 C 212.316,1962.33 210.31,1993.47 214.289,2023.0 C 217.849,2049.43 227.634,2074.62 235.28,2100.0 C 245.339,2133.39 254.247,2167.27 263.116,2201.0 C 283.827,2279.77 306.903,2357.71 332.667,2435.0 C 341.601,2461.8 348.249,2489.84 358.92,2516.0 C 387.432,2585.91 422.23,2654.31 459.424,2720.0 C 471.039,2740.51 484.236,2760.68 499.095,2779.0 C 513.426,2796.67 529.788,2812.7 542.0,2832.0" style="stroke:#010101; fill:none;"/>
	<path d="M 1346.0,1353.0 C 1356.63,1360.06 1369.09,1364.1 1379.71,1371.22 C 1382.61,1373.16 1388.39,1377.38 1391.0,1374.0" style="stroke:#010101; fill:none;"/>
	<path d="M 385.0,1386.0 C 395.095,1387.06 403.511,1391.43 414.0,1389.54 C 432.824,1386.14 452.4,1376.88 469.0,1367.65 C 476.892,1363.26 483.171,1356.54 492.0,1354.0" style="stroke:#010101; fill:none;"/>
	<path d="M 1266.0,1356.0 C 1271.55,1363.88 1289.45,1381.53 1300.0,1379.0 L 1281.0,1358.0" style="stroke:#010101; fill:none;"/>
	<path d="M 1348.0,1356.0 L 1351.0,1357.0" style="stroke:#010101; fill:none;"/>
	<path d="M 1289.0,1357.0 L 1290.0,1358.0" style="stroke:#010101; fill:none;"/>
	<path d="M 1322.0,1367.0 C 1327.01,1370.15 1333.02,1373.25 1339.0,1372.0 C 1333.94,1368.1 1326.32,1364.2 1327.0,1357.0 C 1333.76,1363.23 1342.5,1375.11 1351.09,1378.4 C 1358.99,1381.42 1366.76,1376.12 1375.0,1380.68 C 1380.13,1383.52 1387.41,1386.61 1391.72,1390.5 C 1394.75,1393.23 1395.16,1397.31 1400.01,1397.41 C 1405.28,1397.51 1407.71,1390.7 1405.48,1386.42 C 1403.43,1382.49 1394.7,1379.62 1391.0,1377.0" style="stroke:#010101; fill:none;"/>
	<path d="M 1678.0,1357.0 L 1681.0,1357.0" style="stroke:#010101; fill:none;"/>
	<path d="M 1350.0,1358.0 L 1362.0,1377.0" style="stroke:#010101; fill:none;"/>
	<path d="M 1711.0,1358.0 L 1716.0,1361.0" style="stroke:#010101; fill:none;"/>
	<path d="M 1679.0,1359.0 L 1685.58,1390.0 L 1698.72,1471.0 L 1704.0,1511.0 L 1708.0,1532.0 C 1713.27,1521.05 1709.9,1503.8 1709.09,1492.0 C 1706.75,1457.79 1699.71,1423.99 1697.0,1390.0" style="stroke:#010101; fill:none;"/>
	<path d="M 1309.0,1361.0 C 1311.84,1369.9 1319.89,1374.79 1329.0,1375.0" style="stroke:#010101; fill:none;"/>
	<path d="M 1706.0,1362.0 L 1711.0,1367.0" style="stroke:#010101; fill:none;"/>
	<path d="M 1295.0,1364.0 L 1299.0,1368.0" style="stroke:#010101; fill:none;"/>
	<path d="M 1317.0,1364.0 L 1319.0,1366.0" style="stroke:#010101; fill:none;"/>
	<path d="M 1384.0,1365.0 L 1380.0,1370.0" style="stroke:#010101; fill:none;"/>
	<path d="M 1391.0,1365.0 L 1390.0,1366.0" style="stroke:#010101; fill:none;"/>
	<path d="M 2311.0,1365.0 L 2312.0,1366.0" style="stroke:#010101; fill:none;"/>
	<path d="M 1197.0,1368.0 L 1198.0,1369.0" style="stroke:#010101; fill:none;"/>
	<path d="M 1390.0,1368.0 L 1390.0,1372.0" style="stroke:#010101; fill:none;"/>
	<path d="M 1301.0,1369.0 L 1303.0,1371.0" style="stroke:#010101; fill:none;"/>
	<path d="M 2316.0,1369.0 C 2327.43,1380.42 2341.89,1385.98 2354.0,1396.3 C 2373.26,1412.72 2389.16,1435.22 2400.0,1458.0" style="stroke:#010101; fill:none;"/>
	<path d="M 1305.0,1372.0 L 1306.0,1372.0" style="stroke:#010101; fill:none;"/>
	<path d="M 1407.0,1384.0 C 1409.16,1378.5 1412.63,1375.36 1418.0,1373.0" style="stroke:#010101; fill:none;"/>
	<path d="M 1516.0,1373.0 L 1517.0,1374.0" style="stroke:#010101; fill:none;"/>
	<path d="M 1382.0,1374.0 L 1384.0,1381.0" style="stroke:#010101; fill:none;"/>
	<path d="M 1235.0,1383.0 C 1243.48,1378.17 1254.16,1373.68 1264.0,1376.0" style="stroke:#010101; fill:none;"/>
	<path d="M 1314.0,1375.0 L 1316.0,1375.0" style="stroke:#010101; fill:none;"/>
	<path d="M 1712.0,1376.0 L 1733.0,1391.0 L 1730.0,1378.0" style="stroke:#010101; fill:none;"/>
	<path d="M 1987.0,1376.0 L 1989.0,1378.0" style="stroke:#010101; fill:none;"/>
	<path d="M 1300.0,1379.0 C 1305.54,1382.67 1310.59,1382.79 1317.0,1382.0" style="stroke:#010101; fill:none;"/>
	<path d="M 1326.0,1382.0 L 1348.0,1379.0" style="stroke:#010101; fill:none;"/>
	<path d="M 380.0,1381.0 L 382.0,1382.0" style="stroke:#010101; fill:none;"/>
	<path d="M 1733.0,1381.0 C 1737.53,1384.65 1744.65,1387.81 1748.21,1392.27 C 1751.59,1396.52 1750.83,1402.3 1753.03,1406.98 C 1756.08,1413.47 1767.65,1422.04 1774.0,1425.0 L 1770.0,1410.0" style="stroke:#010101; fill:none;"/>
	<path d="M 1260.0,1383.0 C 1272.18,1385.66 1279.53,1381.67 1291.0,1390.0 L 1269.0,1397.0" style="stroke:#010101; fill:none;"/>
	<path d="M 1718.0,1383.0 C 1722.42,1407.79 1741.86,1428.96 1743.0,1455.0" style="stroke:#010101; fill:none;"/>
	<path d="M 1336.0,1385.0 L 1359.0,1436.0 C 1364.99,1430.74 1364.23,1421.95 1367.22,1415.0 C 1371.52,1405.03 1383.5,1398.48 1394.0,1398.0" style="stroke:#010101; fill:none;"/>
	<path d="M 1993.0,1385.0 L 1994.0,1386.0" style="stroke:#010101; fill:none;"/>
	<path d="M 355.0,1386.0 L 354.0,1387.0" style="stroke:#010101; fill:none;"/>
	<path d="M 1285.0,1386.0 L 1277.0,1391.0" style="stroke:#010101; fill:none;"/>
	<path d="M 1435.0,1386.0 C 1428.9,1392.23 1422.3,1403.17 1433.0,1409.0 C 1434.31,1403.75 1433.36,1401.43 1428.0,1400.0" style="stroke:#010101; fill:none;"/>
	<path d="M 1209.0,1387.0 C 1223.18,1406.85 1231.55,1429.35 1240.0,1452.0" style="stroke:#010101; fill:none;"/>
	<path d="M 1439.0,1388.0 L 1434.0,1401.0" style="stroke:#010101; fill:none;"/>
	<path d="M 1995.0,1388.0 L 1996.0,1389.0" style="stroke:#010101; fill:none;"/>
	<path d="M 1407.0,1389.0 L 1425.0,1397.0" style="stroke:#010101; fill:none;"/>
	<path d="M 1550.0,1389.0 L 1551.0,1390.0" style="stroke:#010101; fill:none;"/>
	<path d="M 1103.0,1391.0 C 1120.84,1400.12 1139.61,1408.58 1158.0,1416.58 C 1165.22,1419.72 1176.72,1421.14 1182.53,1426.43 C 1190.77,1433.93 1196.64,1445.56 1204.17,1454.0 C 1238.8,1492.85 1269.0,1534.27 1307.0,1570.09 C 1314.04,1576.73 1319.29,1585.08 1327.0,1591.0" style="stroke:#010101; fill:none;"/>
	<path d="M 1550.0,1391.0 L 1564.0,1416.0" style="stroke:#010101; fill:none;"/>
	<path d="M 1733.0,1391.0 L 1751.0,1405.0" style="stroke:#010101; fill:none;"/>
	<path d="M 1292.0,1392.0 L 1296.0,1393.0" style="stroke:#010101; fill:none;"/>
	<path d="M 1416.0,1392.0 C 1414.95,1395.81 1416.11,1397.97 1420.0,1399.0" style="stroke:#010101; fill:none;"/>
	<path d="M 1997.0,1392.0 L 1998.0,1393.0" style="stroke:#010101; fill:none;"/>
	<path d="M 1412.0,1393.0 L 1414.0,1395.0" style="stroke:#010101; fill:none;"/>
	<path d="M 1708.0,1394.0 C 1711.97,1424.71 1714.97,1455.09 1717.09,1486.0 C 1718.54,1507.18 1720.93,1528.93 1717.0,1550.0" style="stroke:#010101; fill:none;"/>
	<path d="M 1303.0,1395.0 L 1312.0,1397.0" style="stroke:#010101; fill:none;"/>
	<path d="M 1752.0,1396.0 L 1758.0,1401.0" style="stroke:#010101; fill:none;"/>
	<path d="M 1404.0,1397.0 C 1408.38,1400.26 1412.83,1402.5 1418.0,1400.0" style="stroke:#010101; fill:none;"/>
	<path d="M 1737.0,1397.0 C 1741.21,1425.51 1756.86,1451.89 1759.54,1481.0 C 1760.29,1489.17 1757.66,1498.93 1756.25,1507.0 C 1751.62,1533.42 1741.89,1564.13 1726.0,1586.0" style="stroke:#010101; fill:none;"/>
	<path d="M 1416.0,1400.0 L 1417.0,1401.0" style="stroke:#010101; fill:none;"/>
	<path d="M 1417.0,1403.0 L 1428.0,1408.0" style="stroke:#010101; fill:none;"/>
	<path d="M 1435.0,1403.0 C 1450.87,1406.76 1470.15,1417.06 1483.0,1427.0 C 1479.98,1434.79 1497.2,1443.46 1502.0,1449.0 L 1485.0,1446.0 C 1489.58,1463.11 1499.56,1482.4 1490.08,1500.0 C 1486.93,1505.86 1481.64,1510.36 1477.0,1515.0" style="stroke:#010101; fill:none;"/>
	<path d="M 1763.0,1407.0 L 1764.0,1408.0" style="stroke:#010101; fill:none;"/>
	<path d="M 1326.0,1409.0 L 1329.0,1422.0 L 1314.0,1415.0" style="stroke:#010101; fill:none;"/>
	<path d="M 1433.0,1409.0 L 1438.0,1413.0" style="stroke:#010101; fill:none;"/>
	<path d="M 1756.0,1412.0 C 1757.61,1431.77 1767.42,1451.43 1771.2,1471.0 C 1772.82,1479.43 1776.07,1488.32 1771.0,1496.0" style="stroke:#010101; fill:none;"/>
	<path d="M 2167.0,1413.0 L 2168.0,1414.0" style="stroke:#010101; fill:none;"/>
	<path d="M 1439.0,1414.0 L 1446.0,1417.0" style="stroke:#010101; fill:none;"/>
	<path d="M 1448.0,1418.0 L 1485.0,1446.0" style="stroke:#010101; fill:none;"/>
	<path d="M 1463.0,1419.0 L 1464.0,1420.0" style="stroke:#010101; fill:none;"/>
	<path d="M 1466.0,1421.0 L 1481.0,1429.0" style="stroke:#010101; fill:none;"/>
	<path d="M 2172.0,1421.0 L 2174.0,1423.0" style="stroke:#010101; fill:none;"/>
	<path d="M 1775.0,1426.0 L 1788.0,1442.0" style="stroke:#010101; fill:none;"/>
	<path d="M 1786.0,1426.0 C 1790.03,1431.92 1790.45,1438.28 1792.27,1445.0 C 1797.38,1463.9 1801.55,1481.32 1800.0,1501.0" style="stroke:#010101; fill:none;"/>
	<path d="M 1483.0,1427.0 C 1500.96,1432.28 1520.47,1447.47 1535.0,1459.0 L 1510.0,1466.0 C 1503.89,1460.66 1491.81,1453.75 1498.0,1445.0" style="stroke:#010101; fill:none;"/>
	<path d="M 1731.0,1427.0 L 1731.0,1428.0" style="stroke:#010101; fill:none;"/>
	<path d="M 1473.0,1429.0 L 1475.0,1429.0" style="stroke:#010101; fill:none;"/>
	<path d="M 1731.0,1430.0 L 1728.72,1512.0 L 1718.0,1563.0" style="stroke:#010101; fill:none;"/>
	<path d="M 2179.0,1431.0 L 2180.0,1432.0" style="stroke:#010101; fill:none;"/>
	<path d="M 1482.0,1432.0 L 1476.0,1436.0" style="stroke:#010101; fill:none;"/>
	<path d="M 1777.0,1432.0 L 1785.0,1493.0" style="stroke:#010101; fill:none;"/>
	<path d="M 2017.0,1433.0 L 2019.0,1436.0" style="stroke:#010101; fill:none;"/>
	<path d="M 1335.0,1436.0 L 1337.0,1437.0" style="stroke:#010101; fill:none;"/>
	<path d="M 1361.0,1437.0 C 1365.51,1452.62 1381.23,1468.18 1391.93,1480.0 C 1412.42,1502.64 1427.27,1531.11 1462.0,1520.0" style="stroke:#010101; fill:none;"/>
	<path d="M 2020.0,1438.0 L 2042.0,1488.0" style="stroke:#010101; fill:none;"/>
	<path d="M 1425.0,1441.47 C 1433.6,1440.02 1455.92,1450.19 1452.21,1461.68 C 1451.21,1464.78 1444.65,1464.77 1442.3,1467.23 C 1440.06,1469.58 1439.53,1474.06 1435.89,1474.73 C 1425.31,1476.68 1404.16,1465.94 1407.19,1453.0 C 1408.85,1445.93 1418.7,1442.53 1425.0,1441.47" style="stroke:#010101; fill:none;"/>
	<path d="M 1510.0,1443.0 L 1503.0,1446.0" style="stroke:#010101; fill:none;"/>
	<path d="M 1789.0,1444.0 L 1790.0,1445.0" style="stroke:#010101; fill:none;"/>
	<path d="M 1331.0,1445.0 L 1343.0,1449.0" style="stroke:#010101; fill:none;"/>
	<path d="M 1805.0,1445.0 L 1808.0,1463.0" style="stroke:#010101; fill:none;"/>
	<path d="M 2191.0,1447.0 L 2197.0,1453.0" style="stroke:#010101; fill:none;"/>
	<path d="M 1612.0,1448.0 L 1612.0,1449.0" style="stroke:#010101; fill:none;"/>
	<path d="M 1503.0,1450.0 L 1517.0,1462.0" style="stroke:#010101; fill:none;"/>
	<path d="M 1509.0,1451.0 L 1511.0,1452.0" style="stroke:#010101; fill:none;"/>
	<path d="M 1241.0,1455.0 L 1242.0,1458.0" style="stroke:#010101; fill:none;"/>
	<path d="M 2198.0,1455.0 L 2251.65,1530.0 L 2278.0,1561.0" style="stroke:#010101; fill:none;"/>
	<path d="M 1335.0,1457.0 L 1347.0,1460.0" style="stroke:#010101; fill:none;"/>
	<path d="M 1740.0,1457.0 C 1740.0,1498.59 1734.34,1536.04 1723.0,1576.0" style="stroke:#010101; fill:none;"/>
	<path d="M 1536.0,1459.0 C 1554.43,1471.2 1572.96,1484.38 1587.71,1501.0 C 1596.62,1511.04 1602.2,1523.47 1610.68,1533.74 C 1623.96,1549.84 1637.07,1566.09 1639.0,1588.0" style="stroke:#010101; fill:none;"/>
	<path d="M 2404.0,1460.0 L 2435.0,1492.0" style="stroke:#010101; fill:none;"/>
	<path d="M 1509.0,1464.0 L 1511.0,1463.0" style="stroke:#010101; fill:none;"/>
	<path d="M 1809.0,1465.0 L 1808.0,1466.0" style="stroke:#010101; fill:none;"/>
	<path d="M 1537.0,1473.0 C 1531.26,1475.09 1527.24,1475.46 1522.0,1472.0 L 1538.0,1466.0" style="stroke:#010101; fill:none;"/>
	<path d="M 1510.0,1467.0 C 1540.06,1503.87 1541.05,1542.87 1544.09,1588.0 C 1545.01,1601.74 1552.17,1629.38 1534.0,1632.49 C 1529.01,1633.35 1527.17,1628.7 1525.22,1625.0 C 1520.74,1616.46 1516.71,1607.42 1511.61,1599.26 C 1508.21,1593.82 1500.78,1591.29 1496.29,1586.82 C 1476.14,1566.78 1446.37,1547.93 1432.0,1523.0" style="stroke:#010101; fill:none;"/>
	<path d="M 1809.0,1468.0 L 1808.0,1473.0" style="stroke:#010101; fill:none;"/>
	<path d="M 1336.0,1469.0 C 1344.26,1469.35 1351.83,1470.75 1359.0,1475.0" style="stroke:#010101; fill:none;"/>
	<path d="M 1516.0,1472.0 L 1521.0,1472.0" style="stroke:#010101; fill:none;"/>
	<path d="M 1354.0,1473.0 L 1364.0,1493.0 L 1347.0,1494.0" style="stroke:#010101; fill:none;"/>
	<path d="M 1807.0,1475.0 L 1807.0,1476.0" style="stroke:#010101; fill:none;"/>
	<path d="M 1765.0,1478.0 L 1765.0,1479.0" style="stroke:#010101; fill:none;"/>
	<path d="M 1765.0,1481.0 L 1765.0,1482.0" style="stroke:#010101; fill:none;"/>
	<path d="M 1533.0,1482.0 L 1536.0,1485.0" style="stroke:#010101; fill:none;"/>
	<path d="M 1770.0,1483.0 C 1769.12,1503.4 1759.0,1524.12 1754.76,1544.0 C 1754.12,1547.01 1755.52,1549.93 1755.05,1553.0 C 1752.61,1569.23 1744.59,1588.8 1735.0,1602.0" style="stroke:#010101; fill:none;"/>
	<path d="M 1259.0,1484.0 L 1311.0,1537.0" style="stroke:#010101; fill:none;"/>
	<path d="M 1317.0,1503.0 C 1327.7,1494.2 1344.98,1487.38 1359.0,1488.0" style="stroke:#010101; fill:none;"/>
	<path d="M 1530.0,1487.0 C 1543.09,1495.45 1560.15,1498.53 1573.0,1488.0" style="stroke:#010101; fill:none;"/>
	<path d="M 1537.0,1487.0 L 1538.0,1490.0" style="stroke:#010101; fill:none;"/>
	<path d="M 1764.0,1490.0 L 1764.0,1502.0" style="stroke:#010101; fill:none;"/>
	<path d="M 1364.0,1494.0 L 1366.0,1498.0" style="stroke:#010101; fill:none;"/>
	<path d="M 1532.0,1495.0 L 1542.0,1495.0" style="stroke:#010101; fill:none;"/>
	<path d="M 1789.0,1495.0 C 1789.0,1529.05 1781.37,1572.46 1757.0,1598.0" style="stroke:#010101; fill:none;"/>
	<path d="M 1541.0,1496.0 C 1549.14,1501.88 1560.58,1500.19 1570.0,1499.0" style="stroke:#010101; fill:none;"/>
	<path d="M 1816.0,1498.0 C 1810.87,1524.47 1799.97,1565.5 1778.0,1583.0 C 1777.51,1574.62 1784.19,1564.78 1787.19,1557.0 C 1793.24,1541.33 1798.67,1524.85 1800.0,1508.0" style="stroke:#010101; fill:none;"/>
	<path d="M 1363.0,1505.0 L 1380.0,1499.0" style="stroke:#010101; fill:none;"/>
	<path d="M 1544.0,1499.0 L 1550.0,1523.0" style="stroke:#010101; fill:none;"/>
	<path d="M 1367.0,1500.0 L 1369.0,1502.0" style="stroke:#010101; fill:none;"/>
	<path d="M 2442.0,1500.0 L 2479.0,1530.0" style="stroke:#010101; fill:none;"/>
	<path d="M 1763.0,1503.0 L 1764.0,1505.0" style="stroke:#010101; fill:none;"/>
	<path d="M 1796.0,1505.0 L 1797.0,1505.0" style="stroke:#010101; fill:none;"/>
	<path d="M 1368.0,1510.0 L 1380.0,1506.0" style="stroke:#010101; fill:none;"/>
	<path d="M 2050.0,1507.0 L 2076.0,1537.0" style="stroke:#010101; fill:none;"/>
	<path d="M 1369.0,1520.0 L 1388.0,1512.0" style="stroke:#010101; fill:none;"/>
	<path d="M 1690.0,1515.0 L 1690.0,1516.0" style="stroke:#010101; fill:none;"/>
	<path d="M 1539.0,1517.0 C 1544.22,1522.67 1550.58,1538.52 1559.0,1534.0 L 1551.0,1529.0" style="stroke:#010101; fill:none;"/>
	<path d="M 1384.0,1523.0 C 1393.75,1518.88 1398.93,1521.92 1404.0,1530.0" style="stroke:#010101; fill:none;"/>
	<path d="M 1401.0,1528.0 L 1397.0,1534.0" style="stroke:#010101; fill:none;"/>
	<path d="M 1543.0,1529.0 L 1548.0,1533.0" style="stroke:#010101; fill:none;"/>
	<path d="M 1708.0,1532.0 L 1707.0,1554.0" style="stroke:#010101; fill:none;"/>
	<path d="M 1408.0,1533.0 L 1405.0,1538.0" style="stroke:#010101; fill:none;"/>
	<path d="M 1560.0,1534.0 L 1573.0,1537.0" style="stroke:#010101; fill:none;"/>
	<path d="M 1575.0,1535.0 L 1576.0,1535.0" style="stroke:#010101; fill:none;"/>
	<path d="M 1817.0,1535.0 L 1816.0,1537.0" style="stroke:#010101; fill:none;"/>
	<path d="M 1413.0,1536.0 C 1415.68,1541.1 1412.54,1544.11 1409.0,1548.0" style="stroke:#010101; fill:none;"/>
	<path d="M 1550.0,1538.0 L 1552.0,1536.0" style="stroke:#010101; fill:none;"/>
	<path d="M 1559.0,1536.0 L 1560.0,1536.0" style="stroke:#010101; fill:none;"/>
	<path d="M 1610.0,1536.0 C 1610.02,1544.13 1614.73,1560.54 1609.83,1567.64 C 1608.04,1570.25 1603.69,1569.2 1601.0,1569.15 C 1593.1,1569.03 1583.47,1568.43 1576.0,1566.0" style="stroke:#010101; fill:none;"/>
	<path d="M 1554.0,1538.0 L 1562.0,1546.0" style="stroke:#010101; fill:none;"/>
	<path d="M 1550.0,1539.0 L 1552.0,1546.0 L 1553.0,1544.0" style="stroke:#010101; fill:none;"/>
	<path d="M 1548.0,1542.0 L 1551.0,1545.0" style="stroke:#010101; fill:none;"/>
	<path d="M 1411.0,1556.0 L 1425.0,1545.0" style="stroke:#010101; fill:none;"/>
	<path d="M 1814.0,1543.0 C 1805.17,1575.28 1788.02,1606.01 1764.0,1629.0" style="stroke:#010101; fill:none;"/>
	<path d="M 1757.0,1544.0 L 1756.0,1548.0" style="stroke:#010101; fill:none;"/>
	<path d="M 1553.0,1546.0 C 1562.51,1556.32 1572.75,1563.08 1587.0,1565.0" style="stroke:#010101; fill:none;"/>
	<path d="M 1752.0,1548.0 C 1748.79,1561.89 1741.22,1576.19 1732.0,1587.0" style="stroke:#010101; fill:none;"/>
	<path d="M 1428.0,1549.0 C 1431.79,1552.54 1431.16,1556.24 1430.0,1561.0" style="stroke:#010101; fill:none;"/>
	<path d="M 1828.0,1551.0 C 1823.74,1579.83 1803.62,1602.37 1786.0,1624.0" style="stroke:#010101; fill:none;"/>
	<path d="M 1433.0,1553.0 L 1435.0,1555.0" style="stroke:#010101; fill:none;"/>
	<path d="M 1844.0,1554.0 C 1834.6,1574.1 1822.82,1607.2 1802.0,1618.0" style="stroke:#010101; fill:none;"/>
	<path d="M 1706.0,1557.0 L 1706.0,1558.0" style="stroke:#010101; fill:none;"/>
	<path d="M 1436.0,1558.0 L 1449.0,1572.0" style="stroke:#010101; fill:none;"/>
	<path d="M 1883.0,1558.0 L 1881.0,1560.0" style="stroke:#010101; fill:none;"/>
	<path d="M 2497.0,1562.0 L 2498.0,1563.0" style="stroke:#010101; fill:none;"/>
	<path d="M 1585.0,1565.0 L 1582.0,1568.0" style="stroke:#010101; fill:none;"/>
	<path d="M 1717.0,1565.0 L 1717.0,1567.0" style="stroke:#010101; fill:none;"/>
	<path d="M 1443.0,1566.0 L 1443.0,1570.0" style="stroke:#010101; fill:none;"/>
	<path d="M 1605.0,1569.0 L 1610.0,1567.0" style="stroke:#010101; fill:none;"/>
	<path d="M 2500.0,1567.0 L 2503.0,1571.0" style="stroke:#010101; fill:none;"/>
	<path d="M 1588.0,1570.0 L 1592.0,1570.0" style="stroke:#010101; fill:none;"/>
	<path d="M 1612.0,1570.0 L 1610.7,1616.0 L 1604.0,1651.0" style="stroke:#010101; fill:none;"/>
	<path d="M 1453.0,1572.0 L 1452.0,1581.0" style="stroke:#010101; fill:none;"/>
	<path d="M 2292.0,1574.0 L 2293.0,1574.0" style="stroke:#010101; fill:none;"/>
	<path d="M 2504.0,1574.0 C 2518.23,1595.17 2530.32,1617.87 2535.0,1643.0" style="stroke:#010101; fill:none;"/>
	<path d="M 2295.0,1575.0 L 2297.0,1577.0" style="stroke:#010101; fill:none;"/>
	<path d="M 2299.0,1578.0 L 2321.0,1597.0" style="stroke:#010101; fill:none;"/>
	<path d="M 1466.0,1581.0 L 1466.0,1592.0" style="stroke:#010101; fill:none;"/>
	<path d="M 1777.0,1583.0 L 1762.0,1597.0" style="stroke:#010101; fill:none;"/>
	<path d="M 2104.0,1611.0 L 2130.0,1583.0" style="stroke:#010101; fill:none;"/>
	<path d="M 1468.0,1593.0 L 1472.0,1597.0" style="stroke:#010101; fill:none;"/>
	<path d="M 1333.0,1596.0 L 1335.0,1598.0" style="stroke:#010101; fill:none;"/>
	<path d="M 1513.0,1597.0 C 1524.94,1601.57 1532.18,1598.04 1544.0,1597.0" style="stroke:#010101; fill:none;"/>
	<path d="M 1765.0,1598.0 L 1756.0,1604.0" style="stroke:#010101; fill:none;"/>
	<path d="M 1856.0,1599.0 C 1845.43,1618.82 1837.69,1644.2 1816.0,1655.0" style="stroke:#010101; fill:none;"/>
	<path d="M 1756.0,1600.0 L 1755.0,1601.0" style="stroke:#010101; fill:none;"/>
	<path d="M 1833.0,1601.0 C 1825.49,1613.22 1817.9,1625.05 1808.57,1636.0 C 1805.83,1639.22 1802.08,1645.77 1797.9,1647.09 C 1791.52,1649.09 1782.71,1644.34 1777.0,1642.0" style="stroke:#010101; fill:none;"/>
	<path d="M 1535.0,1606.0 L 1536.0,1606.0" style="stroke:#010101; fill:none;"/>
	<path d="M 2336.0,1609.0 L 2347.0,1620.0" style="stroke:#010101; fill:none;"/>
	<path d="M 166.0,1610.0 L 160.0,1616.0" style="stroke:#010101; fill:none;"/>
	<path d="M 1896.0,1614.0 L 1902.0,1610.0" style="stroke:#010101; fill:none;"/>
	<path d="M 1692.0,1616.0 L 1696.0,1701.0" style="stroke:#010101; fill:none;"/>
	<path d="M 1361.0,1617.0 L 1363.0,1619.0" style="stroke:#010101; fill:none;"/>
	<path d="M 1368.0,1622.0 L 1465.0,1679.0" style="stroke:#010101; fill:none;"/>
	<path d="M 2087.0,1622.0 L 2088.0,1622.0" style="stroke:#010101; fill:none;"/>
	<path d="M 154.0,1623.0 L 160.91,1686.0 L 162.09,1742.0 L 168.91,1817.0 L 171.17,1931.0 L 183.0,2043.0" style="stroke:#010101; fill:none;"/>
	<path d="M 2085.0,1623.0 C 2061.21,1642.37 2043.57,1664.6 2023.0,1687.0" style="stroke:#010101; fill:none;"/>
	<path d="M 2353.0,1625.0 L 2358.0,1631.0" style="stroke:#010101; fill:none;"/>
	<path d="M 1546.0,1628.0 L 1555.0,1656.0 C 1541.86,1652.49 1533.68,1649.01 1531.0,1634.0" style="stroke:#010101; fill:none;"/>
	<path d="M 2160.0,1638.0 L 2198.0,1658.0" style="stroke:#010101; fill:none;"/>
	<path d="M 1680.0,1641.0 C 1662.38,1667.72 1651.85,1700.48 1631.0,1725.0" style="stroke:#010101; fill:none;"/>
	<path d="M 2367.0,1644.0 L 2367.0,1646.0" style="stroke:#010101; fill:none;"/>
	<path d="M 1785.0,1662.0 C 1792.86,1666.81 1801.29,1665.43 1810.0,1665.0 C 1835.31,1663.76 1857.24,1651.79 1881.0,1645.0" style="stroke:#010101; fill:none;"/>
	<path d="M 1802.0,1648.0 L 1811.0,1647.0" style="stroke:#010101; fill:none;"/>
	<path d="M 2368.0,1648.0 L 2370.0,1652.0" style="stroke:#010101; fill:none;"/>
	<path d="M 1684.0,1652.0 C 1667.82,1678.35 1653.79,1708.16 1634.0,1732.0" style="stroke:#010101; fill:none;"/>
	<path d="M 2371.0,1654.0 L 2372.0,1655.0" style="stroke:#010101; fill:none;"/>
	<path d="M 1541.0,1655.0 C 1542.96,1659.12 1545.03,1667.69 1549.15,1669.96 C 1558.82,1675.28 1557.42,1660.51 1555.0,1656.0" style="stroke:#010101; fill:none;"/>
	<path d="M 1919.0,1658.0 C 1907.78,1666.55 1897.42,1678.91 1883.0,1682.0" style="stroke:#010101; fill:none;"/>
	<path d="M 1664.0,1664.0 L 1629.0,1713.0" style="stroke:#010101; fill:none;"/>
	<path d="M 1642.0,1666.0 L 1617.0,1704.0" style="stroke:#010101; fill:none;"/>
	<path d="M 1652.0,1666.0 L 1619.0,1715.0" style="stroke:#010101; fill:none;"/>
	<path d="M 1624.0,1667.0 L 1623.0,1668.0" style="stroke:#010101; fill:none;"/>
	<path d="M 1634.0,1667.0 L 1609.0,1705.0" style="stroke:#010101; fill:none;"/>
	<path d="M 2211.0,1667.0 L 2235.0,1696.0" style="stroke:#010101; fill:none;"/>
	<path d="M 1687.0,1669.0 L 1686.0,1670.0" style="stroke:#010101; fill:none;"/>
	<path d="M 1621.0,1671.0 L 1620.0,1672.0" style="stroke:#010101; fill:none;"/>
	<path d="M 1685.0,1672.0 L 1622.0,1762.0" style="stroke:#010101; fill:none;"/>
	<path d="M 1618.0,1676.0 L 1616.0,1678.0" style="stroke:#010101; fill:none;"/>
	<path d="M 1785.0,1676.0 C 1815.24,1684.52 1843.47,1680.31 1874.0,1679.0" style="stroke:#010101; fill:none;"/>
	<path d="M 1687.0,1679.0 L 1685.0,1681.0" style="stroke:#010101; fill:none;"/>
	<path d="M 1615.0,1680.0 L 1613.0,1682.0" style="stroke:#010101; fill:none;"/>
	<path d="M 1684.0,1683.0 L 1640.21,1745.0 L 1625.0,1766.0" style="stroke:#010101; fill:none;"/>
	<path d="M 1612.0,1685.0 L 1611.0,1686.0" style="stroke:#010101; fill:none;"/>
	<path d="M 1910.0,1686.0 L 1890.0,1700.0" style="stroke:#010101; fill:none;"/>
	<path d="M 1610.0,1688.0 L 1608.0,1690.0" style="stroke:#010101; fill:none;"/>
	<path d="M 2022.0,1689.0 L 2018.0,1693.0" style="stroke:#010101; fill:none;"/>
	<path d="M 1607.0,1692.0 L 1606.0,1693.0" style="stroke:#010101; fill:none;"/>
	<path d="M 1687.0,1693.0 L 1617.0,1784.0" style="stroke:#010101; fill:none;"/>
	<path d="M 1605.0,1696.0 L 1604.0,1697.0" style="stroke:#010101; fill:none;"/>
	<path d="M 1689.0,1700.0 L 1640.1,1769.0 L 1610.0,1805.0" style="stroke:#010101; fill:none;"/>
	<path d="M 2240.0,1701.0 L 2269.0,1722.0" style="stroke:#010101; fill:none;"/>
	<path d="M 1695.0,1705.0 L 1695.0,1706.0" style="stroke:#010101; fill:none;"/>
	<path d="M 1616.0,1706.0 L 1614.0,1708.0" style="stroke:#010101; fill:none;"/>
	<path d="M 1694.0,1710.0 L 1694.0,1712.0" style="stroke:#010101; fill:none;"/>
	<path d="M 1689.0,1713.0 C 1670.69,1736.09 1654.85,1761.1 1636.26,1784.0 C 1631.23,1790.2 1624.36,1804.22 1616.95,1807.26 C 1609.42,1810.34 1598.62,1807.26 1591.0,1806.0" style="stroke:#010101; fill:none;"/>
	<path d="M 1693.0,1714.0 C 1684.85,1739.06 1676.58,1768.07 1660.0,1789.0" style="stroke:#010101; fill:none;"/>
	<path d="M 1628.0,1715.0 L 1626.0,1717.0" style="stroke:#010101; fill:none;"/>
	<path d="M 1827.0,1715.0 L 1851.0,1718.0" style="stroke:#010101; fill:none;"/>
	<path d="M 2045.0,1721.0 L 2031.0,1738.0" style="stroke:#010101; fill:none;"/>
	<path d="M 2272.0,1723.0 L 2275.0,1726.0" style="stroke:#010101; fill:none;"/>
	<path d="M 1993.0,1724.0 L 1992.0,1725.0" style="stroke:#010101; fill:none;"/>
	<path d="M 1991.0,1727.0 C 1962.9,1759.94 1944.55,1800.44 1914.0,1831.0" style="stroke:#010101; fill:none;"/>
	<path d="M 2278.0,1728.0 L 2289.0,1739.0" style="stroke:#010101; fill:none;"/>
	<path d="M 1633.0,1734.0 L 1631.0,1736.0" style="stroke:#010101; fill:none;"/>
	<path d="M 1677.0,1738.0 L 1633.0,1799.0" style="stroke:#010101; fill:none;"/>
	<path d="M 2290.0,1741.0 L 2320.0,1778.0" style="stroke:#010101; fill:none;"/>
	<path d="M 1545.0,1759.0 L 1544.0,1760.0" style="stroke:#010101; fill:none;"/>
	<path d="M 1541.0,1761.0 L 1538.0,1763.0" style="stroke:#010101; fill:none;"/>
	<path d="M 1476.0,1763.0 L 1524.0,1769.65 L 1548.74,1774.66 L 1566.0,1761.0" style="stroke:#010101; fill:none;"/>
	<path d="M 1647.0,1792.0 C 1655.31,1783.31 1662.81,1766.78 1674.0,1762.0" style="stroke:#010101; fill:none;"/>
	<path d="M 1554.0,1762.0 L 1540.0,1770.0" style="stroke:#010101; fill:none;"/>
	<path d="M 1473.0,1763.0 L 1474.0,1763.0" style="stroke:#010101; fill:none;"/>
	<path d="M 1533.0,1765.0 L 1532.0,1766.0" style="stroke:#010101; fill:none;"/>
	<path d="M 1575.0,1765.0 L 1559.0,1778.0 L 1585.0,1801.0" style="stroke:#010101; fill:none;"/>
	<path d="M 1605.0,1765.0 L 1581.0,1795.0" style="stroke:#010101; fill:none;"/>
	<path d="M 1615.0,1765.0 L 1588.0,1798.0" style="stroke:#010101; fill:none;"/>
	<path d="M 1587.0,1766.0 L 1569.0,1785.0" style="stroke:#010101; fill:none;"/>
	<path d="M 1596.0,1767.0 L 1575.0,1792.0" style="stroke:#010101; fill:none;"/>
	<path d="M 1622.0,1768.0 L 1615.0,1775.0" style="stroke:#010101; fill:none;"/>
	<path d="M 1619.0,1773.0 L 1599.0,1807.0" style="stroke:#010101; fill:none;"/>
	<path d="M 1709.0,1773.0 C 1698.09,1793.7 1700.94,1821.36 1687.0,1840.0" style="stroke:#010101; fill:none;"/>
	<path d="M 1551.0,1775.0 L 1559.0,1778.0" style="stroke:#010101; fill:none;"/>
	<path d="M 1557.0,1778.0 L 1554.0,1781.0" style="stroke:#010101; fill:none;"/>
	<path d="M 2321.0,1781.0 L 2322.0,1782.0" style="stroke:#010101; fill:none;"/>
	<path d="M 2323.0,1784.0 L 2324.0,1785.0" style="stroke:#010101; fill:none;"/>
	<path d="M 1597.0,1787.0 L 1599.0,1786.0" style="stroke:#010101; fill:none;"/>
	<path d="M 1622.0,1787.0 L 1619.0,1793.0" style="stroke:#010101; fill:none;"/>
	<path d="M 1598.0,1790.0 L 1596.0,1790.0" style="stroke:#010101; fill:none;"/>
	<path d="M 1597.0,1792.0 L 1591.0,1801.0" style="stroke:#010101; fill:none;"/>
	<path d="M 1655.0,1796.0 L 1640.0,1808.0" style="stroke:#010101; fill:none;"/>
	<path d="M 1621.0,1807.0 L 1640.0,1802.0" style="stroke:#010101; fill:none;"/>
	<path d="M 1596.0,1809.0 L 1595.0,1810.0" style="stroke:#010101; fill:none;"/>
	<path d="M 2057.0,1845.0 C 2038.73,1854.78 2024.08,1865.72 2010.0,1881.0" style="stroke:#010101; fill:none;"/>
	<path d="M 1683.0,1847.0 L 1681.0,1849.0" style="stroke:#010101; fill:none;"/>
	<path d="M 2091.0,1850.0 L 2031.0,1878.0 L 2034.0,1877.0" style="stroke:#010101; fill:none;"/>
	<path d="M 2024.0,1854.0 L 2023.0,1855.0" style="stroke:#010101; fill:none;"/>
	<path d="M 2020.0,1856.0 L 2019.0,1857.0" style="stroke:#010101; fill:none;"/>
	<path d="M 2121.0,1856.0 L 2133.0,1856.0" style="stroke:#010101; fill:none;"/>
	<path d="M 2056.0,1857.0 L 2055.0,1858.0" style="stroke:#010101; fill:none;"/>
	<path d="M 2079.0,1864.0 L 2089.0,1861.37 L 2114.0,1857.0" style="stroke:#010101; fill:none;"/>
	<path d="M 2017.0,1858.0 L 2016.0,1859.0" style="stroke:#010101; fill:none;"/>
	<path d="M 2053.0,1859.0 L 2034.0,1874.0" style="stroke:#010101; fill:none;"/>
	<path d="M 2013.0,1861.0 L 2012.0,1862.0" style="stroke:#010101; fill:none;"/>
	<path d="M 2073.0,1868.0 L 2077.0,1867.0" style="stroke:#010101; fill:none;"/>
	<path d="M 2046.0,1890.0 C 2059.69,1880.25 2077.04,1875.15 2093.0,1870.61 C 2098.23,1869.12 2102.47,1866.46 2108.0,1866.0" style="stroke:#010101; fill:none;"/>
	<path d="M 2071.0,1869.0 L 2071.0,1867.0 L 2068.0,1868.0" style="stroke:#010101; fill:none;"/>
	<path d="M 2099.0,1870.0 L 2128.0,1868.0" style="stroke:#010101; fill:none;"/>
	<path d="M 2132.0,1869.0 L 2133.0,1869.0" style="stroke:#010101; fill:none;"/>
	<path d="M 2135.0,1869.0 L 2139.0,1869.0" style="stroke:#010101; fill:none;"/>
	<path d="M 2062.0,1872.0 L 2066.0,1869.0" style="stroke:#010101; fill:none;"/>
	<path d="M 2144.0,1870.0 L 2145.0,1870.0" style="stroke:#010101; fill:none;"/>
	<path d="M 2147.0,1871.0 L 2148.0,1871.0" style="stroke:#010101; fill:none;"/>
	<path d="M 2062.0,1872.0 L 2064.0,1872.0" style="stroke:#010101; fill:none;"/>
	<path d="M 2039.0,1883.0 C 2042.54,1880.3 2054.89,1871.04 2059.0,1874.0" style="stroke:#010101; fill:none;"/>
	<path d="M 1658.0,1874.0 C 1640.0,1892.0 1621.09,1905.09 1600.0,1919.0" style="stroke:#010101; fill:none;"/>
	<path d="M 2106.0,1877.0 L 2111.0,1878.0 L 2106.0,1877.0" style="stroke:#010101; fill:none;"/>
	<path d="M 2111.0,1878.0 C 2131.5,1875.41 2155.87,1876.52 2175.0,1885.0" style="stroke:#010101; fill:none;"/>
	<path d="M 2099.0,1878.0 L 2105.0,1878.0" style="stroke:#010101; fill:none;"/>
	<path d="M 2031.0,1879.0 L 2020.0,1893.0" style="stroke:#010101; fill:none;"/>
	<path d="M 2046.0,1897.0 C 2062.91,1887.99 2085.89,1881.52 2105.0,1880.0" style="stroke:#010101; fill:none;"/>
	<path d="M 2121.0,1882.0 C 2141.87,1882.0 2169.53,1884.57 2187.0,1897.0" style="stroke:#010101; fill:none;"/>
	<path d="M 2035.0,1885.0 L 2034.0,1886.0" style="stroke:#010101; fill:none;"/>
	<path d="M 2027.0,1886.0 L 2027.0,1888.0" style="stroke:#010101; fill:none;"/>
	<path d="M 2044.0,1908.0 C 2072.23,1902.16 2098.63,1888.31 2128.0,1887.04 C 2153.62,1885.93 2185.45,1903.8 2204.0,1920.0" style="stroke:#010101; fill:none;"/>
	<path d="M 758.0,1889.0 L 762.0,1890.0" style="stroke:#010101; fill:none;"/>
	<path d="M 516.0,1890.0 L 518.0,1890.0" style="stroke:#010101; fill:none;"/>
	<path d="M 520.0,1890.0 L 542.0,1900.0" style="stroke:#010101; fill:none;"/>
	<path d="M 2131.0,1891.0 L 2137.0,1891.0" style="stroke:#010101; fill:none;"/>
	<path d="M 766.0,1892.0 L 767.0,1892.0" style="stroke:#010101; fill:none;"/>
	<path d="M 1587.0,2378.0 C 1595.52,2369.55 1606.06,2361.66 1612.74,2351.54 C 1626.46,2330.77 1633.61,2304.63 1643.73,2282.0 C 1662.53,2239.98 1681.02,2197.85 1700.1,2156.0 C 1705.73,2143.65 1708.9,2130.22 1714.97,2118.0 C 1742.7,2062.17 1790.18,2021.81 1831.91,1977.0 C 1842.98,1965.11 1851.33,1951.0 1862.17,1939.0 C 1870.82,1929.44 1881.91,1921.91 1892.0,1913.99 C 1899.97,1907.73 1907.36,1900.17 1917.0,1896.47 C 1924.5,1893.59 1932.22,1894.57 1940.0,1893.83 C 1971.21,1890.86 2002.72,1897.09 2034.0,1897.0" style="stroke:#010101; fill:none;"/>
	<path d="M 2152.0,1895.0 L 2153.0,1895.0" style="stroke:#010101; fill:none;"/>
	<path d="M 2155.0,1896.0 C 2175.59,1908.6 2193.62,1922.43 2208.0,1942.0" style="stroke:#010101; fill:none;"/>
	<path d="M 2100.0,1903.0 C 2126.09,1896.77 2156.52,1899.32 2177.0,1918.0" style="stroke:#010101; fill:none;"/>
	<path d="M 795.0,1905.0 L 796.0,1906.0" style="stroke:#010101; fill:none;"/>
	<path d="M 798.0,1907.0 L 811.0,1913.0" style="stroke:#010101; fill:none;"/>
	<path d="M 682.0,1908.0 L 720.0,1920.0" style="stroke:#010101; fill:none;"/>
	<path d="M 2039.0,1918.0 C 2072.69,1906.57 2113.02,1904.65 2147.0,1914.58 C 2160.45,1918.51 2173.64,1923.17 2184.0,1933.0" style="stroke:#010101; fill:none;"/>
	<path d="M 2014.0,1912.0 L 2040.0,1910.0" style="stroke:#010101; fill:none;"/>
	<path d="M 2046.0,1922.0 C 2055.77,1917.29 2068.43,1919.0 2079.0,1919.0 C 2105.98,1919.0 2131.92,1920.6 2158.0,1928.0" style="stroke:#010101; fill:none;"/>
	<path d="M 680.0,1920.0 L 719.0,1932.0" style="stroke:#010101; fill:none;"/>
	<path d="M 1597.0,1920.0 L 1596.0,1921.0" style="stroke:#010101; fill:none;"/>
	<path d="M 1894.0,1935.0 L 1930.0,1924.0" style="stroke:#010101; fill:none;"/>
	<path d="M 1867.0,1944.0 C 1895.05,1942.8 1919.75,1930.62 1947.0,1925.0" style="stroke:#010101; fill:none;"/>
	<path d="M 528.0,1927.0 L 565.0,1940.0" style="stroke:#010101; fill:none;"/>
	<path d="M 1871.0,1939.0 L 1911.0,1927.0" style="stroke:#010101; fill:none;"/>
	<path d="M 2066.0,1928.0 C 2080.21,1933.44 2095.83,1936.5 2111.0,1936.97 C 2130.11,1937.57 2151.73,1936.18 2169.0,1946.0" style="stroke:#010101; fill:none;"/>
	<path d="M 1902.0,1940.0 C 1923.41,1940.0 1945.23,1934.85 1966.0,1929.0" style="stroke:#010101; fill:none;"/>
	<path d="M 677.0,1930.0 L 718.0,1947.0" style="stroke:#010101; fill:none;"/>
	<path d="M 2067.0,1930.0 C 2080.7,1943.58 2106.95,1950.54 2126.0,1946.0" style="stroke:#010101; fill:none;"/>
	<path d="M 1925.0,1940.0 C 1941.61,1944.91 1959.37,1935.15 1976.0,1933.0" style="stroke:#010101; fill:none;"/>
	<path d="M 1984.0,1934.0 L 1995.0,1943.0 L 1983.0,1947.0 C 1988.3,1951.99 1997.68,1953.36 2002.0,1947.0 L 1995.0,1943.0" style="stroke:#010101; fill:none;"/>
	<path d="M 1891.0,1936.0 L 1892.0,1936.0" style="stroke:#010101; fill:none;"/>
	<path d="M 793.0,1938.0 C 805.154,1940.29 817.288,1942.51 828.0,1949.0" style="stroke:#010101; fill:none;"/>
	<path d="M 1989.0,1938.0 L 1968.0,1945.0 L 1983.0,1947.0" style="stroke:#010101; fill:none;"/>
	<path d="M 1946.0,1942.0 L 1968.0,1944.0" style="stroke:#010101; fill:none;"/>
	<path d="M 670.0,1943.0 L 691.0,1952.0" style="stroke:#010101; fill:none;"/>
	<path d="M 2133.0,1946.0 L 2153.0,1946.0" style="stroke:#010101; fill:none;"/>
	<path d="M 2002.0,1947.0 L 2005.0,1951.0 L 2000.0,1953.0" style="stroke:#010101; fill:none;"/>
	<path d="M 2096.0,1952.0 L 2140.0,1951.0" style="stroke:#010101; fill:none;"/>
	<path d="M 2006.0,1953.0 C 2020.97,1957.35 2029.82,1972.76 2038.0,1985.0 C 2058.88,2016.25 2078.03,2051.84 2093.71,2086.0 C 2099.25,2098.06 2103.8,2111.07 2106.78,2124.0 C 2107.55,2127.33 2107.29,2135.41 2111.0,2136.0" style="stroke:#010101; fill:none;"/>
	<path d="M 2166.0,1954.0 L 2188.0,1957.0" style="stroke:#010101; fill:none;"/>
	<path d="M 2092.0,1956.0 C 2119.24,1964.86 2145.82,1965.0 2174.0,1965.0" style="stroke:#010101; fill:none;"/>
	<path d="M 1139.0,1972.0 C 1176.52,1971.9 1215.63,1964.57 1253.0,1960.83 C 1270.11,1959.12 1292.21,1954.0 1309.0,1959.0" style="stroke:#010101; fill:none;"/>
	<path d="M 272.0,1965.0 L 273.0,1965.0" style="stroke:#010101; fill:none;"/>
	<path d="M 2103.0,1967.0 C 2127.08,1975.15 2148.31,1982.0 2174.0,1982.0" style="stroke:#010101; fill:none;"/>
	<path d="M 1259.0,1985.0 C 1282.76,1964.81 1326.15,1969.76 1355.0,1971.0" style="stroke:#010101; fill:none;"/>
	<path d="M 1347.0,2057.0 C 1376.5,2027.75 1417.67,2008.83 1455.0,1991.69 C 1470.93,1984.38 1487.03,1974.64 1504.0,1970.0" style="stroke:#010101; fill:none;"/>
	<path d="M 1131.0,1973.0 L 1137.0,1973.0" style="stroke:#010101; fill:none;"/>
	<path d="M 1941.0,1973.0 L 1942.0,1989.0 L 1952.0,1991.0 L 1955.0,1981.0" style="stroke:#010101; fill:none;"/>
	<path d="M 1123.0,1974.0 L 1129.0,1974.0" style="stroke:#010101; fill:none;"/>
	<path d="M 2182.0,1974.0 L 2198.0,1981.0" style="stroke:#010101; fill:none;"/>
	<path d="M 1936.0,1975.0 L 1937.0,1984.0" style="stroke:#010101; fill:none;"/>
	<path d="M 1884.0,2018.0 C 1874.42,1995.29 1905.62,1975.66 1925.0,1986.0 L 1925.0,1987.0 C 1912.14,1995.15 1899.49,1999.95 1894.1,2016.0 C 1892.14,2021.87 1893.74,2028.11 1892.0,2034.0 C 1878.7,2020.1 1862.53,2008.66 1845.0,2000.54 C 1838.7,1997.62 1832.17,1997.91 1826.0,1994.0 C 1838.87,1981.72 1863.17,1969.49 1881.0,1979.0 C 1870.09,1985.05 1861.1,1983.1 1862.0,1999.0" style="stroke:#010101; fill:none;"/>
	<path d="M 2173.0,1977.0 C 2183.92,1979.75 2193.13,1987.43 2202.0,1994.0" style="stroke:#010101; fill:none;"/>
	<path d="M 1881.0,1979.0 C 1890.45,1979.0 1901.5,1978.29 1910.0,1983.0" style="stroke:#010101; fill:none;"/>
	<path d="M 2120.0,1981.0 C 2144.17,1984.62 2172.98,1996.73 2194.0,2009.0" style="stroke:#010101; fill:none;"/>
	<path d="M 2177.0,1981.0 L 2178.0,1981.0" style="stroke:#010101; fill:none;"/>
	<path d="M 1971.0,1983.0 C 1965.94,1991.14 1962.74,1995.11 1953.0,1992.0" style="stroke:#010101; fill:none;"/>
	<path d="M 2171.0,1984.0 L 2176.0,1986.0" style="stroke:#010101; fill:none;"/>
	<path d="M 1846.0,1990.0 L 1864.0,1985.0" style="stroke:#010101; fill:none;"/>
	<path d="M 1177.0,2150.0 C 1157.71,2119.25 1149.22,2073.35 1168.34,2040.0 C 1184.73,2011.41 1216.66,1993.25 1248.0,1986.0" style="stroke:#010101; fill:none;"/>
	<path d="M 1925.0,1987.0 L 1942.0,1989.0" style="stroke:#010101; fill:none;"/>
	<path d="M 2178.0,1987.0 C 2192.92,1994.07 2206.24,2002.27 2218.0,2014.0" style="stroke:#010101; fill:none;"/>
	<path d="M 1837.0,1988.0 L 1840.0,1998.0" style="stroke:#010101; fill:none;"/>
	<path d="M 2169.0,1989.0 C 2190.85,2001.44 2210.76,2009.76 2229.0,2028.0" style="stroke:#010101; fill:none;"/>
	<path d="M 471.0,1991.0 L 472.0,1991.0" style="stroke:#010101; fill:none;"/>
	<path d="M 474.0,1992.0 C 486.614,1995.45 499.789,2001.9 510.0,2010.0" style="stroke:#010101; fill:none;"/>
	<path d="M 2010.0,2002.0 C 2001.13,2008.14 1988.4,2008.61 1981.0,2000.0 L 1992.0,1993.0" style="stroke:#010101; fill:none;"/>
	<path d="M 1824.0,1995.0 L 1826.0,1994.0" style="stroke:#010101; fill:none;"/>
	<path d="M 1963.0,1994.0 L 1981.0,2000.0" style="stroke:#010101; fill:none;"/>
	<path d="M 1991.0,1994.0 L 1989.0,1996.0" style="stroke:#010101; fill:none;"/>
	<path d="M 2129.0,1995.0 L 2134.0,1996.0" style="stroke:#010101; fill:none;"/>
	<path d="M 269.0,1997.0 L 276.0,2004.0" style="stroke:#010101; fill:none;"/>
	<path d="M 1989.0,1997.0 L 1987.0,1997.0" style="stroke:#010101; fill:none;"/>
	<path d="M 2136.0,1997.0 C 2159.9,2004.78 2185.48,2012.83 2207.0,2026.0" style="stroke:#010101; fill:none;"/>
	<path d="M 2006.0,2002.0 L 2005.0,2003.0" style="stroke:#010101; fill:none;"/>
	<path d="M 753.0,2006.0 C 806.662,2001.76 860.199,2008.0 914.0,2008.0 C 929.05,2008.0 943.944,2009.0 959.0,2009.0 C 967.569,2009.0 977.238,2007.79 985.0,2012.0" style="stroke:#010101; fill:none;"/>
	<path d="M 1844.0,2004.0 L 1864.0,2031.0" style="stroke:#010101; fill:none;"/>
	<path d="M 2139.0,2005.0 C 2157.14,2016.0 2179.67,2034.12 2201.0,2037.0" style="stroke:#010101; fill:none;"/>
	<path d="M 277.0,2006.0 L 277.0,2007.0" style="stroke:#010101; fill:none;"/>
	<path d="M 588.0,2007.0 L 589.0,2007.0" style="stroke:#010101; fill:none;"/>
	<path d="M 748.0,2007.0 L 751.0,2007.0" style="stroke:#010101; fill:none;"/>
	<path d="M 2000.0,2007.0 C 1996.21,2013.68 2007.08,2022.65 2012.0,2027.0 L 2020.0,2023.0" style="stroke:#010101; fill:none;"/>
	<path d="M 591.0,2008.0 L 596.0,2012.0" style="stroke:#010101; fill:none;"/>
	<path d="M 744.0,2008.0 L 746.0,2008.0" style="stroke:#010101; fill:none;"/>
	<path d="M 1993.0,2008.0 L 1994.0,2012.0 L 1994.0,2008.0" style="stroke:#010101; fill:none;"/>
	<path d="M 651.0,2094.0 C 658.862,2079.1 665.11,2060.24 675.394,2047.0 C 680.193,2040.82 686.782,2037.52 693.0,2033.09 C 708.361,2022.14 721.73,2014.15 740.0,2009.0" style="stroke:#010101; fill:none;"/>
	<path d="M 453.0,2010.0 L 487.0,2021.0" style="stroke:#010101; fill:none;"/>
	<path d="M 2004.0,2014.0 L 2008.0,2014.0" style="stroke:#010101; fill:none;"/>
	<path d="M 450.0,2017.0 L 451.0,2018.0" style="stroke:#010101; fill:none;"/>
	<path d="M 1998.0,2018.0 L 2004.0,2019.0" style="stroke:#010101; fill:none;"/>
	<path d="M 2172.0,2019.0 L 2174.0,2019.0" style="stroke:#010101; fill:none;"/>
	<path d="M 454.0,2020.0 L 479.0,2033.0" style="stroke:#010101; fill:none;"/>
	<path d="M 1952.0,2020.61 C 1970.0,2016.06 1986.1,2052.15 1965.99,2058.34 C 1959.86,2060.23 1955.99,2055.45 1951.0,2053.01 C 1946.48,2050.81 1942.24,2053.73 1938.21,2049.79 C 1926.67,2038.5 1940.05,2023.63 1952.0,2020.61" style="stroke:#010101; fill:none;"/>
	<path d="M 2176.0,2020.0 C 2188.95,2023.75 2205.06,2029.48 2215.91,2037.62 C 2224.49,2044.05 2231.27,2052.85 2240.0,2059.0 L 2226.0,2039.0" style="stroke:#010101; fill:none;"/>
	<path d="M 2151.0,2021.0 L 2153.0,2023.0" style="stroke:#010101; fill:none;"/>
	<path d="M 2022.0,2023.0 L 2023.0,2023.0" style="stroke:#010101; fill:none;"/>
	<path d="M 2122.0,2023.0 C 2160.84,2031.99 2191.22,2065.74 2227.0,2082.0" style="stroke:#010101; fill:none;"/>
	<path d="M 2156.0,2024.0 L 2157.0,2025.0" style="stroke:#010101; fill:none;"/>
	<path d="M 2026.0,2026.0 L 2014.0,2027.0" style="stroke:#010101; fill:none;"/>
	<path d="M 2159.0,2026.0 C 2174.01,2035.9 2194.03,2046.35 2212.0,2049.0" style="stroke:#010101; fill:none;"/>
	<path d="M 2012.0,2028.0 L 2021.0,2037.0 L 2017.0,2037.0" style="stroke:#010101; fill:none;"/>
	<path d="M 481.0,2034.0 L 482.0,2035.0" style="stroke:#010101; fill:none;"/>
	<path d="M 2164.0,2034.0 C 2185.73,2043.36 2207.73,2062.57 2232.0,2065.0 C 2229.35,2055.57 2217.96,2048.41 2211.0,2042.0" style="stroke:#010101; fill:none;"/>
	<path d="M 1892.0,2035.0 C 1916.14,2060.46 1924.59,2113.99 1968.0,2115.96 C 1975.75,2116.31 1983.54,2114.89 1991.0,2112.84 C 1999.05,2110.64 2006.46,2106.47 2013.0,2101.33 C 2022.23,2094.07 2027.26,2084.28 2034.0,2075.0 C 2044.8,2088.33 2058.25,2096.18 2075.0,2101.0" style="stroke:#010101; fill:none;"/>
	<path d="M 2022.0,2037.0 C 2022.58,2040.46 2023.72,2041.87 2027.0,2040.0 L 2024.0,2038.0" style="stroke:#010101; fill:none;"/>
	<path d="M 2027.0,2043.0 L 2040.0,2038.0" style="stroke:#010101; fill:none;"/>
	<path d="M 1850.0,2039.0 L 1857.0,2052.0" style="stroke:#010101; fill:none;"/>
	<path d="M 2018.0,2039.0 L 2021.0,2041.0" style="stroke:#010101; fill:none;"/>
	<path d="M 1825.0,2040.0 C 1826.61,2077.56 1842.72,2110.75 1856.0,2145.0" style="stroke:#010101; fill:none;"/>
	<path d="M 2028.0,2040.0 L 2031.0,2040.0" style="stroke:#010101; fill:none;"/>
	<path d="M 2037.0,2041.0 L 2041.0,2040.0" style="stroke:#010101; fill:none;"/>
	<path d="M 1787.0,2043.0 L 1791.0,2082.0" style="stroke:#010101; fill:none;"/>
	<path d="M 2020.0,2043.0 C 2025.7,2052.76 2032.06,2063.74 2034.0,2075.0" style="stroke:#010101; fill:none;"/>
	<path d="M 184.0,2048.0 L 184.0,2049.0" style="stroke:#010101; fill:none;"/>
	<path d="M 2151.0,2049.0 L 2152.0,2050.0" style="stroke:#010101; fill:none;"/>
	<path d="M 2366.0,2049.0 L 2364.0,2051.0" style="stroke:#010101; fill:none;"/>
	<path d="M 2162.0,2056.0 L 2163.0,2057.0" style="stroke:#010101; fill:none;"/>
	<path d="M 2186.0,2056.0 L 2187.0,2057.0" style="stroke:#010101; fill:none;"/>
	<path d="M 2188.0,2057.0 L 2236.0,2078.44 L 2262.0,2108.0" style="stroke:#010101; fill:none;"/>
	<path d="M 2240.0,2059.0 C 2251.57,2070.08 2258.18,2081.26 2266.0,2095.0" style="stroke:#010101; fill:none;"/>
	<path d="M 2030.0,2060.0 C 2041.54,2064.23 2049.21,2069.0 2062.0,2069.0" style="stroke:#010101; fill:none;"/>
	<path d="M 272.0,2061.0 L 284.0,2073.0" style="stroke:#010101; fill:none;"/>
	<path d="M 2171.0,2062.0 L 2234.0,2112.0 L 2232.0,2108.0" style="stroke:#010101; fill:none;"/>
	<path d="M 1893.0,2064.0 L 1903.0,2064.0" style="stroke:#010101; fill:none;"/>
	<path d="M 2233.0,2066.0 L 2243.0,2069.0" style="stroke:#010101; fill:none;"/>
	<path d="M 786.0,2067.0 L 817.0,2078.0" style="stroke:#010101; fill:none;"/>
	<path d="M 2037.0,2068.0 L 2049.0,2079.0 L 2042.0,2078.0" style="stroke:#010101; fill:none;"/>
	<path d="M 2232.0,2073.0 L 2234.0,2075.0" style="stroke:#010101; fill:none;"/>
	<path d="M 2195.0,2075.0 L 2196.0,2076.0" style="stroke:#010101; fill:none;"/>
	<path d="M 2198.0,2076.0 L 2223.0,2089.0" style="stroke:#010101; fill:none;"/>
	<path d="M 1329.0,2079.0 C 1314.4,2110.22 1328.8,2141.33 1344.14,2169.0 C 1349.6,2178.85 1354.14,2189.66 1363.0,2197.0" style="stroke:#010101; fill:none;"/>
	<path d="M 2049.0,2079.0 L 2052.0,2080.0 L 2048.0,2081.0" style="stroke:#010101; fill:none;"/>
	<path d="M 576.0,2080.0 L 581.0,2080.0" style="stroke:#010101; fill:none;"/>
	<path d="M 1902.0,2080.0 L 1898.0,2082.0" style="stroke:#010101; fill:none;"/>
	<path d="M 2053.0,2080.0 L 2059.0,2082.0" style="stroke:#010101; fill:none;"/>
	<path d="M 2054.0,2081.0 L 2051.0,2082.0" style="stroke:#010101; fill:none;"/>
	<path d="M 2191.0,2083.0 L 2228.0,2116.0" style="stroke:#010101; fill:none;"/>
	<path d="M 2229.0,2083.0 L 2230.0,2084.0" style="stroke:#010101; fill:none;"/>
	<path d="M 2055.0,2084.0 L 2069.0,2088.0" style="stroke:#010101; fill:none;"/>
	<path d="M 2232.0,2085.0 L 2233.0,2086.0" style="stroke:#010101; fill:none;"/>
	<path d="M 2327.0,2085.0 L 2326.0,2086.0" style="stroke:#010101; fill:none;"/>
	<path d="M 2042.0,2086.0 C 2043.0,2103.14 2050.15,2117.35 2065.09,2126.2 C 2068.55,2128.24 2076.45,2134.3 2080.0,2131.0 C 2089.56,2136.68 2097.05,2138.0 2108.0,2138.0" style="stroke:#010101; fill:none;"/>
	<path d="M 772.0,2087.0 L 787.0,2093.0" style="stroke:#010101; fill:none;"/>
	<path d="M 2212.0,2088.0 L 2223.0,2096.0" style="stroke:#010101; fill:none;"/>
	<path d="M 1895.0,2092.0 C 1898.81,2091.74 1908.38,2088.12 1909.0,2093.0" style="stroke:#010101; fill:none;"/>
	<path d="M 2226.0,2090.0 L 2229.0,2092.0" style="stroke:#010101; fill:none;"/>
	<path d="M 258.0,2092.0 L 269.0,2093.0" style="stroke:#010101; fill:none;"/>
	<path d="M 2044.0,2093.0 L 2052.43,2106.57 L 2080.0,2131.0" style="stroke:#010101; fill:none;"/>
	<path d="M 2055.0,2096.0 C 2061.48,2102.33 2068.41,2107.67 2077.0,2102.0" style="stroke:#010101; fill:none;"/>
	<path d="M 2195.0,2097.0 L 2199.0,2101.0" style="stroke:#010101; fill:none;"/>
	<path d="M 2226.0,2097.0 L 2228.0,2099.0" style="stroke:#010101; fill:none;"/>
	<path d="M 2230.0,2100.0 L 2246.0,2114.0" style="stroke:#010101; fill:none;"/>
	<path d="M 2203.0,2104.0 L 2242.0,2140.0" style="stroke:#010101; fill:none;"/>
	<path d="M 1906.0,2110.0 L 1917.0,2105.0" style="stroke:#010101; fill:none;"/>
	<path d="M 531.0,2108.0 L 546.0,2106.0" style="stroke:#010101; fill:none;"/>
	<path d="M 1942.0,2108.0 C 1961.04,2130.32 1978.26,2153.72 2004.0,2169.08 C 2017.71,2177.26 2033.06,2181.54 2048.0,2186.0 C 2052.83,2176.83 2056.01,2164.17 2053.0,2154.0 L 2041.0,2173.0" style="stroke:#010101; fill:none;"/>
	<path d="M 2229.0,2108.0 L 2231.0,2110.0" style="stroke:#010101; fill:none;"/>
	<path d="M 1904.0,2114.0 L 1919.0,2109.0" style="stroke:#010101; fill:none;"/>
	<path d="M 781.0,2111.0 L 799.0,2112.0" style="stroke:#010101; fill:none;"/>
	<path d="M 2236.0,2111.0 L 2251.0,2122.0" style="stroke:#010101; fill:none;"/>
	<path d="M 2234.0,2113.0 L 2236.0,2116.0" style="stroke:#010101; fill:none;"/>
	<path d="M 641.0,2114.0 L 640.0,2116.0" style="stroke:#010101; fill:none;"/>
	<path d="M 2049.0,2114.0 C 2049.93,2125.72 2057.82,2143.08 2052.0,2154.0" style="stroke:#010101; fill:none;"/>
	<path d="M 1894.0,2124.0 C 1902.51,2118.0 1912.95,2117.27 1923.0,2116.0" style="stroke:#010101; fill:none;"/>
	<path d="M 639.0,2118.0 L 638.0,2121.0" style="stroke:#010101; fill:none;"/>
	<path d="M 2241.0,2119.0 L 2259.0,2136.0" style="stroke:#010101; fill:none;"/>
	<path d="M 1917.0,2126.0 L 1929.0,2120.0" style="stroke:#010101; fill:none;"/>
	<path d="M 637.0,2123.0 L 637.0,2124.0" style="stroke:#010101; fill:none;"/>
	<path d="M 2253.0,2123.0 L 2254.0,2124.0" style="stroke:#010101; fill:none;"/>
	<path d="M 1936.0,2125.0 L 1931.0,2128.0" style="stroke:#010101; fill:none;"/>
	<path d="M 2239.0,2125.0 L 2266.0,2146.0" style="stroke:#010101; fill:none;"/>
	<path d="M 961.0,2126.0 L 963.0,2127.0" style="stroke:#010101; fill:none;"/>
	<path d="M 2063.0,2126.0 L 2074.0,2152.0 L 2068.0,2146.0 C 2066.46,2159.13 2085.36,2176.52 2093.0,2186.0" style="stroke:#010101; fill:none;"/>
	<path d="M 2215.0,2126.0 L 2223.0,2134.0" style="stroke:#010101; fill:none;"/>
	<path d="M 1940.0,2131.0 L 1945.0,2132.0 L 1941.0,2148.0 L 1952.0,2144.0 C 1952.65,2150.42 1949.64,2155.89 1946.0,2161.0" style="stroke:#010101; fill:none;"/>
	<path d="M 1216.0,2132.0 C 1222.36,2136.84 1234.11,2144.34 1238.11,2151.18 C 1240.36,2155.04 1239.85,2161.59 1241.21,2166.0 C 1243.97,2175.01 1248.6,2183.94 1253.45,2192.0 C 1266.19,2213.17 1283.74,2228.75 1301.0,2246.0" style="stroke:#010101; fill:none;"/>
	<path d="M 1948.0,2138.0 L 1946.0,2140.0" style="stroke:#010101; fill:none;"/>
	<path d="M 2062.0,2139.0 L 2067.0,2146.0" style="stroke:#010101; fill:none;"/>
	<path d="M 2109.0,2139.0 C 2109.0,2148.56 2104.06,2171.58 2117.0,2172.0" style="stroke:#010101; fill:none;"/>
	<path d="M 1943.0,2140.0 L 1944.0,2141.0" style="stroke:#010101; fill:none;"/>
	<path d="M 2231.0,2141.0 L 2237.0,2146.0" style="stroke:#010101; fill:none;"/>
	<path d="M 1802.0,2143.0 L 1802.0,2146.0" style="stroke:#010101; fill:none;"/>
	<path d="M 1941.0,2148.0 L 1932.0,2155.0" style="stroke:#010101; fill:none;"/>
	<path d="M 2058.0,2149.0 L 2064.86,2167.0 L 2082.0,2194.0 L 2069.0,2185.0" style="stroke:#010101; fill:none;"/>
	<path d="M 532.0,2151.0 C 526.278,2155.57 520.936,2155.29 514.0,2154.0" style="stroke:#010101; fill:none;"/>
	<path d="M 2076.0,2151.0 L 2088.0,2160.0 L 2086.0,2162.0 L 2085.0,2159.0" style="stroke:#010101; fill:none;"/>
	<path d="M 1241.0,2152.0 C 1249.54,2159.8 1259.1,2166.24 1266.82,2175.0 C 1284.88,2195.52 1301.54,2223.58 1313.75,2248.0 C 1321.62,2263.74 1325.88,2281.54 1334.0,2297.0" style="stroke:#010101; fill:none;"/>
	<path d="M 1803.0,2154.0 L 1803.0,2155.0" style="stroke:#010101; fill:none;"/>
	<path d="M 1953.0,2160.0 C 1958.16,2157.31 1963.1,2154.73 1969.0,2156.0 L 1967.0,2165.0" style="stroke:#010101; fill:none;"/>
	<path d="M 1861.0,2156.0 L 1881.13,2185.0 L 1910.0,2221.0" style="stroke:#010101; fill:none;"/>
	<path d="M 2088.0,2160.0 L 2108.0,2167.0" style="stroke:#010101; fill:none;"/>
	<path d="M 1972.0,2162.0 L 1977.0,2163.0 L 1967.0,2177.0" style="stroke:#010101; fill:none;"/>
	<path d="M 2087.0,2162.0 C 2093.22,2166.75 2100.05,2170.64 2108.0,2171.0 C 2106.1,2185.99 2098.99,2193.14 2093.0,2206.0 L 2082.0,2195.0" style="stroke:#010101; fill:none;"/>
	<path d="M 414.0,2172.0 L 427.0,2174.0" style="stroke:#010101; fill:none;"/>
	<path d="M 1983.0,2172.0 L 1968.0,2187.0" style="stroke:#010101; fill:none;"/>
	<path d="M 2062.0,2172.0 C 2063.22,2178.54 2062.28,2185.84 2064.97,2192.0 C 2070.08,2203.71 2083.13,2213.13 2092.0,2222.0" style="stroke:#010101; fill:none;"/>
	<path d="M 886.0,2175.0 L 911.0,2187.0" style="stroke:#010101; fill:none;"/>
	<path d="M 2029.0,2177.0 L 2037.0,2175.0" style="stroke:#010101; fill:none;"/>
	<path d="M 2065.0,2182.0 L 2067.0,2184.0" style="stroke:#010101; fill:none;"/>
	<path d="M 2054.0,2187.0 L 2063.0,2200.0 L 2058.0,2194.0" style="stroke:#010101; fill:none;"/>
	<path d="M 2273.0,2189.0 C 2264.22,2202.61 2252.97,2206.26 2239.0,2213.25 C 2221.91,2221.79 2204.35,2230.09 2188.0,2240.0 L 2193.0,2245.0 C 2189.03,2246.45 2184.89,2245.74 2181.0,2247.17 C 2134.28,2264.36 2096.1,2299.41 2061.0,2333.0" style="stroke:#010101; fill:none;"/>
	<path d="M 2012.0,2191.0 L 2010.0,2199.0" style="stroke:#010101; fill:none;"/>
	<path d="M 515.0,2192.0 L 516.0,2192.0" style="stroke:#010101; fill:none;"/>
	<path d="M 518.0,2192.0 L 526.0,2192.0" style="stroke:#010101; fill:none;"/>
	<path d="M 647.0,2192.0 L 672.0,2198.0" style="stroke:#010101; fill:none;"/>
	<path d="M 772.0,2200.0 C 779.451,2194.74 792.769,2194.68 799.363,2202.23 C 811.44,2216.05 816.799,2237.69 827.569,2253.0 C 844.146,2276.56 866.938,2294.58 885.95,2316.0 C 925.148,2360.16 962.457,2406.0 995.329,2455.0 C 1004.7,2468.96 1012.07,2484.03 1019.74,2499.0 C 1023.46,2506.25 1026.07,2514.5 1031.53,2520.71 C 1051.37,2543.28 1080.01,2549.98 1104.0,2566.09 C 1121.72,2577.98 1134.06,2595.65 1152.0,2607.2 C 1165.29,2615.76 1178.82,2623.18 1191.0,2633.44 C 1200.22,2641.21 1207.78,2650.79 1217.0,2658.56 C 1228.67,2668.39 1241.82,2676.62 1253.0,2686.97 C 1264.47,2697.6 1280.57,2705.54 1282.0,2723.0" style="stroke:#010101; fill:none;"/>
	<path d="M 2283.0,2195.0 L 2260.0,2215.57 L 2247.17,2221.53 L 2231.0,2237.82 L 2194.0,2245.0" style="stroke:#010101; fill:none;"/>
	<path d="M 2020.0,2196.0 L 2020.0,2200.0" style="stroke:#010101; fill:none;"/>
	<path d="M 872.0,2197.0 C 884.635,2199.35 894.149,2199.23 903.0,2210.0" style="stroke:#010101; fill:none;"/>
	<path d="M 2026.0,2198.0 L 2025.0,2202.0" style="stroke:#010101; fill:none;"/>
	<path d="M 2064.0,2201.0 C 2066.02,2204.63 2073.68,2218.8 2078.0,2218.0" style="stroke:#010101; fill:none;"/>
	<path d="M 2059.0,2204.0 C 2059.06,2211.74 2062.08,2231.47 2069.0,2235.0 L 2066.0,2229.0" style="stroke:#010101; fill:none;"/>
	<path d="M 2093.0,2206.0 L 2097.0,2211.0" style="stroke:#010101; fill:none;"/>
	<path d="M 2090.0,2207.0 L 2086.0,2211.0" style="stroke:#010101; fill:none;"/>
	<path d="M 434.0,2209.0 L 428.0,2210.0" style="stroke:#010101; fill:none;"/>
	<path d="M 2100.0,2211.0 L 2108.0,2216.0" style="stroke:#010101; fill:none;"/>
	<path d="M 642.0,2214.0 L 661.0,2218.0" style="stroke:#010101; fill:none;"/>
	<path d="M 854.0,2216.0 L 886.0,2224.0" style="stroke:#010101; fill:none;"/>
	<path d="M 2078.0,2220.0 L 2082.0,2226.0" style="stroke:#010101; fill:none;"/>
	<path d="M 949.0,2223.0 L 950.0,2224.0" style="stroke:#010101; fill:none;"/>
	<path d="M 2060.0,2224.0 L 2064.0,2231.0" style="stroke:#010101; fill:none;"/>
	<path d="M 1914.0,2228.0 C 1923.69,2239.89 1936.39,2241.58 1950.0,2247.0" style="stroke:#010101; fill:none;"/>
	<path d="M 2051.0,2229.0 L 2050.0,2241.0" style="stroke:#010101; fill:none;"/>
	<path d="M 444.0,2233.0 C 441.944,2237.08 439.436,2237.86 435.0,2238.0" style="stroke:#010101; fill:none;"/>
	<path d="M 1965.0,2246.0 C 1985.02,2246.0 2001.35,2242.23 2020.0,2235.0" style="stroke:#010101; fill:none;"/>
	<path d="M 2070.0,2236.0 C 2079.26,2249.14 2091.23,2255.56 2107.0,2256.0" style="stroke:#010101; fill:none;"/>
	<path d="M 944.0,2238.0 L 957.0,2243.0" style="stroke:#010101; fill:none;"/>
	<path d="M 643.0,2239.0 L 658.0,2242.0" style="stroke:#010101; fill:none;"/>
	<path d="M 2185.0,2244.0 L 2188.0,2240.0" style="stroke:#010101; fill:none;"/>
	<path d="M 2079.0,2244.0 L 2080.0,2246.0" style="stroke:#010101; fill:none;"/>
	<path d="M 439.0,2252.0 L 440.0,2253.0" style="stroke:#010101; fill:none;"/>
	<path d="M 442.0,2254.0 L 452.0,2256.0" style="stroke:#010101; fill:none;"/>
	<path d="M 947.0,2254.0 L 960.0,2258.0" style="stroke:#010101; fill:none;"/>
	<path d="M 794.0,2255.0 C 794.043,2270.54 796.846,2286.46 797.911,2302.0 C 800.787,2344.01 805.636,2384.99 819.864,2425.0 C 842.28,2488.04 882.839,2547.81 930.0,2595.0" style="stroke:#010101; fill:none;"/>
	<path d="M 870.0,2261.0 L 892.0,2265.0" style="stroke:#010101; fill:none;"/>
	<path d="M 956.0,2274.0 L 972.0,2274.0" style="stroke:#010101; fill:none;"/>
	<path d="M 352.0,2302.0 L 364.0,2305.0" style="stroke:#010101; fill:none;"/>
	<path d="M 912.0,2302.0 C 932.85,2328.27 952.873,2356.8 976.424,2380.71 C 998.885,2403.52 1025.68,2421.95 1045.9,2447.0 C 1071.63,2478.88 1087.78,2519.69 1117.32,2548.54 C 1135.27,2566.06 1163.21,2567.8 1184.0,2580.46 C 1216.98,2600.55 1231.79,2631.77 1245.0,2666.0" style="stroke:#010101; fill:none;"/>
	<path d="M 1293.0,2313.0 C 1304.21,2326.81 1319.49,2340.77 1335.0,2349.71 C 1340.73,2353.0 1347.16,2353.43 1353.0,2357.0" style="stroke:#010101; fill:none;"/>
	<path d="M 364.0,2326.0 L 363.0,2327.0" style="stroke:#010101; fill:none;"/>
	<path d="M 359.0,2328.0 L 361.0,2328.0" style="stroke:#010101; fill:none;"/>
	<path d="M 1293.0,2338.0 L 1294.0,2338.0" style="stroke:#010101; fill:none;"/>
	<path d="M 1299.0,2340.0 L 1301.0,2340.0" style="stroke:#010101; fill:none;"/>
	<path d="M 1303.0,2341.0 C 1310.24,2343.04 1320.88,2348.22 1328.0,2345.0" style="stroke:#010101; fill:none;"/>
	<path d="M 1256.0,2349.0 C 1239.02,2361.16 1221.6,2372.18 1202.0,2379.57 C 1182.12,2387.07 1159.1,2391.65 1141.04,2403.21 C 1132.11,2408.93 1117.92,2430.54 1117.0,2441.0" style="stroke:#010101; fill:none;"/>
	<path d="M 1284.0,2351.0 C 1304.21,2351.0 1322.54,2356.5 1342.0,2361.0" style="stroke:#010101; fill:none;"/>
	<path d="M 1341.0,2354.0 C 1351.17,2363.34 1363.22,2368.14 1375.0,2374.87 C 1401.91,2390.26 1427.96,2402.62 1457.0,2413.57 C 1469.26,2418.2 1486.98,2416.86 1497.91,2423.01 C 1502.52,2425.61 1506.27,2431.26 1510.0,2435.0" style="stroke:#010101; fill:none;"/>
	<path d="M 1614.0,2354.0 C 1613.2,2363.1 1608.07,2371.58 1604.81,2380.0 C 1596.38,2401.76 1581.84,2424.3 1561.0,2436.12 C 1541.93,2446.94 1513.14,2447.93 1492.0,2444.0" style="stroke:#010101; fill:none;"/>
	<path d="M 1277.0,2358.0 C 1293.51,2358.0 1308.15,2361.76 1324.0,2366.0" style="stroke:#010101; fill:none;"/>
	<path d="M 1339.0,2363.0 L 1340.0,2364.0" style="stroke:#010101; fill:none;"/>
	<path d="M 1345.0,2366.0 L 1347.0,2367.0" style="stroke:#010101; fill:none;"/>
	<path d="M 1274.0,2369.0 L 1311.0,2369.0" style="stroke:#010101; fill:none;"/>
	<path d="M 1329.0,2368.0 L 1330.0,2368.0" style="stroke:#010101; fill:none;"/>
	<path d="M 1350.0,2368.0 L 1352.0,2369.0" style="stroke:#010101; fill:none;"/>
	<path d="M 366.0,2371.0 C 376.256,2371.82 384.817,2374.23 395.0,2371.0" style="stroke:#010101; fill:none;"/>
	<path d="M 1268.0,2376.0 L 1290.0,2377.0" style="stroke:#010101; fill:none;"/>
	<path d="M 1292.0,2378.0 L 1293.0,2378.0" style="stroke:#010101; fill:none;"/>
	<path d="M 1297.0,2379.0 L 1298.0,2379.0" style="stroke:#010101; fill:none;"/>
	<path d="M 1254.0,2390.0 L 1277.0,2386.0" style="stroke:#010101; fill:none;"/>
	<path d="M 1558.0,2389.0 L 1563.0,2389.0" style="stroke:#010101; fill:none;"/>
	<path d="M 1529.0,2390.0 L 1530.0,2390.0" style="stroke:#010101; fill:none;"/>
	<path d="M 1532.0,2390.0 L 1533.0,2390.0" style="stroke:#010101; fill:none;"/>
	<path d="M 1536.0,2390.0 L 1537.0,2390.0" style="stroke:#010101; fill:none;"/>
	<path d="M 1539.0,2390.0 L 1540.0,2390.0" style="stroke:#010101; fill:none;"/>
	<path d="M 1542.0,2390.0 L 1544.0,2390.0" style="stroke:#010101; fill:none;"/>
	<path d="M 1546.0,2390.0 L 1551.0,2390.0" style="stroke:#010101; fill:none;"/>
	<path d="M 1403.0,2402.0 C 1424.74,2418.59 1451.33,2426.5 1478.0,2430.92 C 1486.58,2432.34 1497.96,2436.29 1506.0,2432.0" style="stroke:#010101; fill:none;"/>
	<path d="M 1388.0,2411.0 L 1412.0,2415.0" style="stroke:#010101; fill:none;"/>
	<path d="M 1282.0,2412.0 L 1305.0,2421.0" style="stroke:#010101; fill:none;"/>
	<path d="M 1388.0,2416.0 L 1330.0,2454.0" style="stroke:#010101; fill:none;"/>
	<path d="M 1261.0,2423.0 L 1299.0,2435.0" style="stroke:#010101; fill:none;"/>
	<path d="M 1238.0,2433.0 L 1289.0,2447.0" style="stroke:#010101; fill:none;"/>
	<path d="M 278.0,2439.0 L 284.0,2526.0" style="stroke:#010101; fill:none;"/>
	<path d="M 1225.0,2444.0 C 1240.96,2446.02 1256.19,2446.89 1270.0,2456.0" style="stroke:#010101; fill:none;"/>
	<path d="M 1523.0,2446.0 L 1512.0,2495.0" style="stroke:#010101; fill:none;"/>
	<path d="M 1291.0,2448.0 L 1292.0,2449.0" style="stroke:#010101; fill:none;"/>
	<path d="M 1127.0,2456.0 C 1126.98,2463.01 1125.39,2469.31 1128.35,2476.0 C 1133.49,2487.62 1143.88,2496.63 1144.0,2510.0" style="stroke:#010101; fill:none;"/>
	<path d="M 534.0,2457.0 L 535.0,2457.0" style="stroke:#010101; fill:none;"/>
	<path d="M 537.0,2458.0 L 547.0,2463.0" style="stroke:#010101; fill:none;"/>
	<path d="M 1216.0,2459.0 L 1248.0,2467.0" style="stroke:#010101; fill:none;"/>
	<path d="M 1194.0,2462.0 C 1211.99,2462.77 1232.26,2467.54 1249.0,2474.0" style="stroke:#010101; fill:none;"/>
	<path d="M 489.0,2466.0 L 490.0,2466.0" style="stroke:#010101; fill:none;"/>
	<path d="M 493.0,2467.0 L 519.0,2475.87 L 531.0,2480.0" style="stroke:#010101; fill:none;"/>
	<path d="M 1190.0,2470.0 C 1197.43,2475.85 1215.54,2477.04 1225.0,2479.0" style="stroke:#010101; fill:none;"/>
	<path d="M 1252.0,2475.0 L 1253.0,2476.0" style="stroke:#010101; fill:none;"/>
	<path d="M 1255.0,2477.0 L 1257.0,2479.0" style="stroke:#010101; fill:none;"/>
	<path d="M 1189.0,2480.0 L 1192.0,2480.0" style="stroke:#010101; fill:none;"/>
	<path d="M 1227.0,2480.0 L 1228.0,2480.0" style="stroke:#010101; fill:none;"/>
	<path d="M 1194.0,2481.0 C 1208.34,2482.13 1225.16,2484.23 1238.0,2491.0" style="stroke:#010101; fill:none;"/>
	<path d="M 1230.0,2481.0 L 1231.0,2481.0" style="stroke:#010101; fill:none;"/>
	<path d="M 1236.0,2483.0 L 1238.0,2484.0" style="stroke:#010101; fill:none;"/>
	<path d="M 1242.0,2485.0 L 1243.0,2486.0" style="stroke:#010101; fill:none;"/>
	<path d="M 1174.0,2491.0 L 1223.0,2497.0" style="stroke:#010101; fill:none;"/>
	<path d="M 1240.0,2492.0 L 1241.0,2493.0" style="stroke:#010101; fill:none;"/>
	<path d="M 1171.0,2500.0 L 1175.0,2500.0" style="stroke:#010101; fill:none;"/>
	<path d="M 1179.0,2501.0 L 1206.0,2504.0" style="stroke:#010101; fill:none;"/>
	<path d="M 627.0,2504.0 L 645.0,2512.0" style="stroke:#010101; fill:none;"/>
	<path d="M 1506.0,2513.0 L 1494.0,2551.0" style="stroke:#010101; fill:none;"/>
	<path d="M 1155.0,2516.0 C 1176.27,2518.75 1196.63,2521.7 1218.0,2519.0" style="stroke:#010101; fill:none;"/>
	<path d="M 694.0,2518.0 L 712.0,2542.0" style="stroke:#010101; fill:none;"/>
	<path d="M 1220.0,2518.0 L 1221.0,2518.0" style="stroke:#010101; fill:none;"/>
	<path d="M 616.0,2522.0 L 618.0,2523.0" style="stroke:#010101; fill:none;"/>
	<path d="M 1218.0,2522.0 L 1226.0,2546.0" style="stroke:#010101; fill:none;"/>
	<path d="M 620.0,2524.0 L 624.0,2525.0" style="stroke:#010101; fill:none;"/>
	<path d="M 417.0,2525.0 L 441.0,2534.0" style="stroke:#010101; fill:none;"/>
	<path d="M 574.0,2526.0 L 593.0,2532.0" style="stroke:#010101; fill:none;"/>
	<path d="M 627.0,2526.0 L 631.0,2527.0" style="stroke:#010101; fill:none;"/>
	<path d="M 790.0,2528.0 C 795.877,2526.19 802.434,2526.32 808.0,2529.0" style="stroke:#010101; fill:none;"/>
	<path d="M 635.0,2529.0 L 636.0,2529.0" style="stroke:#010101; fill:none;"/>
	<path d="M 282.0,2534.0 L 281.0,2536.0" style="stroke:#010101; fill:none;"/>
	<path d="M 799.0,2535.0 L 816.0,2536.0" style="stroke:#010101; fill:none;"/>
	<path d="M 279.0,2541.0 L 279.0,2544.0" style="stroke:#010101; fill:none;"/>
	<path d="M 545.0,2541.0 L 564.0,2544.0" style="stroke:#010101; fill:none;"/>
	<path d="M 691.0,2542.0 L 699.0,2549.0" style="stroke:#010101; fill:none;"/>
	<path d="M 808.0,2545.0 L 824.0,2543.0" style="stroke:#010101; fill:none;"/>
	<path d="M 285.0,2543.0 C 277.056,2576.27 279.0,2613.03 279.0,2647.0" style="stroke:#010101; fill:none;"/>
	<path d="M 1227.0,2548.0 L 1228.0,2549.0" style="stroke:#010101; fill:none;"/>
	<path d="M 1223.0,2551.0 L 1224.0,2552.0" style="stroke:#010101; fill:none;"/>
	<path d="M 1226.0,2553.0 L 1227.0,2553.0" style="stroke:#010101; fill:none;"/>
	<path d="M 488.0,2554.0 L 499.0,2557.0" style="stroke:#010101; fill:none;"/>
	<path d="M 1229.0,2554.0 L 1261.0,2574.0" style="stroke:#010101; fill:none;"/>
	<path d="M 682.0,2557.0 L 685.0,2560.0" style="stroke:#010101; fill:none;"/>
	<path d="M 829.0,2561.0 L 842.0,2560.0" style="stroke:#010101; fill:none;"/>
	<path d="M 687.0,2561.0 L 689.0,2563.0" style="stroke:#010101; fill:none;"/>
	<path d="M 831.0,2569.0 L 859.0,2568.0" style="stroke:#010101; fill:none;"/>
	<path d="M 1239.0,2577.0 L 1268.0,2594.0" style="stroke:#010101; fill:none;"/>
	<path d="M 1780.0,2579.0 C 1745.5,2606.38 1702.78,2624.05 1663.0,2642.31 C 1605.14,2668.87 1547.14,2695.1 1489.0,2721.0" style="stroke:#010101; fill:none;"/>
	<path d="M 1247.0,2591.0 L 1273.0,2604.0" style="stroke:#010101; fill:none;"/>
	<path d="M 787.0,2604.0 L 788.0,2604.0" style="stroke:#010101; fill:none;"/>
	<path d="M 790.0,2605.0 C 807.244,2612.39 821.996,2626.07 837.0,2637.12 C 869.652,2661.14 901.017,2686.61 930.0,2715.0" style="stroke:#010101; fill:none;"/>
	<path d="M 941.0,2607.0 C 953.559,2619.56 967.981,2629.65 982.0,2640.5 C 991.153,2647.58 999.825,2656.05 1010.0,2661.69 C 1060.75,2689.81 1121.02,2700.0 1178.0,2700.0" style="stroke:#010101; fill:none;"/>
	<path d="M 1269.0,2610.0 L 1271.0,2611.0" style="stroke:#010101; fill:none;"/>
	<path d="M 582.0,2614.0 L 608.0,2615.0" style="stroke:#010101; fill:none;"/>
	<path d="M 577.0,2626.0 L 597.0,2629.0" style="stroke:#010101; fill:none;"/>
	<path d="M 1275.0,2626.0 L 1277.0,2626.0" style="stroke:#010101; fill:none;"/>
	<path d="M 1446.0,2645.0 L 1419.0,2696.0" style="stroke:#010101; fill:none;"/>
	<path d="M 568.0,2648.0 L 598.0,2649.0" style="stroke:#010101; fill:none;"/>
	<path d="M 581.0,2664.0 L 600.0,2665.0" style="stroke:#010101; fill:none;"/>
	<path d="M 603.0,2666.0 L 604.0,2666.0" style="stroke:#010101; fill:none;"/>
	<path d="M 976.0,2669.0 L 963.0,2677.0" style="stroke:#010101; fill:none;"/>
	<path d="M 1292.0,2693.0 C 1288.94,2699.47 1286.52,2705.71 1287.09,2713.0 C 1287.66,2720.1 1291.83,2724.58 1287.0,2731.0" style="stroke:#010101; fill:none;"/>
	<path d="M 988.0,2697.0 L 996.0,2696.0" style="stroke:#010101; fill:none;"/>
	<path d="M 1000.0,2709.0 L 1015.0,2702.0" style="stroke:#010101; fill:none;"/>
	<path d="M 363.0,2703.0 L 363.0,2705.0" style="stroke:#010101; fill:none;"/>
	<path d="M 228.0,2707.0 L 232.0,2752.0" style="stroke:#010101; fill:none;"/>
	<path d="M 362.0,2707.0 L 362.0,2708.0" style="stroke:#010101; fill:none;"/>
	<path d="M 361.0,2711.0 L 361.0,2713.0" style="stroke:#010101; fill:none;"/>
	<path d="M 360.0,2716.0 L 348.0,2808.0" style="stroke:#010101; fill:none;"/>
	<path d="M 1065.0,2924.0 L 1118.0,2898.11 L 1158.0,2881.64 L 1368.0,2768.11 L 1436.0,2741.99 L 1489.0,2719.0" style="stroke:#010101; fill:none;"/>
	<path d="M 1045.0,2724.0 L 1047.0,2723.0" style="stroke:#010101; fill:none;"/>
	<path d="M 1073.0,2728.0 L 1073.0,2733.0" style="stroke:#010101; fill:none;"/>
	<path d="M 1243.0,2738.0 C 1259.44,2744.13 1267.76,2736.39 1283.0,2732.0" style="stroke:#010101; fill:none;"/>
	<path d="M 594.0,2736.0 L 605.0,2735.0" style="stroke:#010101; fill:none;"/>
	<path d="M 954.0,2736.0 L 976.0,2758.0" style="stroke:#010101; fill:none;"/>
	<path d="M 589.0,2737.0 L 592.0,2737.0" style="stroke:#010101; fill:none;"/>
	<path d="M 982.0,2747.0 L 980.0,2749.0" style="stroke:#010101; fill:none;"/>
	<path d="M 597.0,2752.0 L 619.0,2748.0" style="stroke:#010101; fill:none;"/>
	<path d="M 982.0,2754.0 L 983.0,2755.0" style="stroke:#010101; fill:none;"/>
	<path d="M 232.0,2758.0 L 234.0,2776.0" style="stroke:#010101; fill:none;"/>
	<path d="M 619.0,2778.0 C 626.306,2772.54 639.802,2767.52 649.0,2769.0" style="stroke:#010101; fill:none;"/>
	<path d="M 662.0,2789.0 L 686.0,2777.0" style="stroke:#010101; fill:none;"/>
	<path d="M 1028.0,2778.0 L 1029.0,2779.0" style="stroke:#010101; fill:none;"/>
	<path d="M 571.0,2787.0 L 580.0,2786.0" style="stroke:#010101; fill:none;"/>
	<path d="M 685.0,2797.0 L 699.0,2789.0" style="stroke:#010101; fill:none;"/>
	<path d="M 726.0,2797.0 L 706.0,2811.0" style="stroke:#010101; fill:none;"/>
	<path d="M 609.0,2805.0 L 610.0,2805.0" style="stroke:#010101; fill:none;"/>
	<path d="M 584.0,2810.0 L 606.0,2806.0" style="stroke:#010101; fill:none;"/>
	<path d="M 742.0,2807.0 L 722.0,2825.0" style="stroke:#010101; fill:none;"/>
	<path d="M 1006.0,2817.0 L 1028.0,2817.0" style="stroke:#010101; fill:none;"/>
	<path d="M 544.0,2826.0 C 565.883,2848.34 590.072,2865.21 614.0,2884.92 C 626.75,2895.43 641.969,2909.06 659.0,2907.0" style="stroke:#010101; fill:none;"/>
	<path d="M 610.0,2832.0 L 622.0,2830.0" style="stroke:#010101; fill:none;"/>
	<path d="M 773.0,2834.0 L 750.0,2854.0" style="stroke:#010101; fill:none;"/>
	<path d="M 1021.0,2836.0 C 1015.31,2840.29 1009.69,2839.24 1003.0,2838.0" style="stroke:#010101; fill:none;"/>
	<path d="M 659.0,2838.0 L 642.0,2846.0" style="stroke:#010101; fill:none;"/>
	<path d="M 1007.0,2865.0 L 1008.0,2865.0" style="stroke:#010101; fill:none;"/>
	<path d="M 1011.0,2866.0 L 1012.0,2866.0" style="stroke:#010101; fill:none;"/>
	<path d="M 1014.0,2867.0 L 1022.0,2867.0" style="stroke:#010101; fill:none;"/>
	<path d="M 333.0,2893.0 L 302.0,2949.0" style="stroke:#010101; fill:none;"/>
	<path d="M 648.0,2910.0 C 638.046,2920.6 621.129,2926.73 608.0,2932.42 C 587.341,2941.39 567.259,2951.45 547.0,2961.26 C 513.504,2977.48 481.955,2996.03 451.0,3016.59 C 435.257,3027.06 419.82,3037.62 407.184,3052.0 C 395.923,3064.82 388.875,3081.55 380.0,3096.0" style="stroke:#010101; fill:none;"/>
	<path d="M 654.0,2910.0 C 665.034,2924.3 689.785,2933.37 706.0,2940.42 C 736.128,2953.53 768.016,2970.93 801.0,2975.28 C 811.136,2976.62 824.459,2976.13 835.0,2976.0" style="stroke:#010101; fill:none;"/>
	<path d="M 1038.0,2933.0 C 986.222,2962.44 922.725,2983.0 863.0,2983.0 C 850.914,2983.0 839.878,2980.39 828.0,2979.78 C 820.059,2979.38 811.962,2980.6 805.0,2976.0" style="stroke:#010101; fill:none;"/>
	<path d="M 825.0,2976.0 L 825.0,2979.0" style="stroke:#010101; fill:none;"/>
	<path d="M 828.0,2977.0 L 828.0,2979.0" style="stroke:#010101; fill:none;"/>
	<path d="M 452.0,3018.0 C 451.039,3029.0 446.212,3040.1 444.004,3051.0 C 440.35,3069.03 438.556,3087.75 436.285,3106.0 C 434.294,3122.0 436.966,3140.07 430.0,3155.0" style="stroke:#010101; fill:none;"/>
</svg>
