<?xml version="1.0" ?>
<svg baseProfile="full" height="3378" version="1.1" width="2657" xmlns="http://www.w3.org/2000/svg" xmlns:ev="http://www.w3.org/2001/xml-events" xmlns:xlink="http://www.w3.org/1999/xlink">
	<defs/>
	<path d="M 1456.0,345.0 L 1454.0,347.0" style="stroke:#010101; fill:none;"/>
	<path d="M 1294.0,383.0 L 1306.0,382.0" style="stroke:#010101; fill:none;"/>
	<path d="M 1807.0,613.0 L 1808.0,613.0" style="stroke:#010101; fill:none;"/>
	<path d="M 1811.0,613.0 L 1867.0,615.427 L 1892.0,622.0" style="stroke:#010101; fill:none;"/>
	<path d="M 1761.0,614.0 L 1763.0,614.0" style="stroke:#010101; fill:none;"/>
	<path d="M 1721.0,630.0 L 1759.0,615.0" style="stroke:#010101; fill:none;"/>
	<path d="M 1666.0,643.0 L 1711.0,632.0" style="stroke:#010101; fill:none;"/>
	<path d="M 1545.0,673.0 C 1560.92,671.698 1573.21,659.331 1588.0,654.356 C 1612.19,646.219 1637.73,645.521 1663.0,645.0" style="stroke:#010101; fill:none;"/>
	<path d="M 1538.0,676.0 L 1539.0,676.0" style="stroke:#010101; fill:none;"/>
	<path d="M 1469.0,683.0 L 1497.0,684.0" style="stroke:#010101; fill:none;"/>
	<path d="M 1415.0,683.0 L 1416.0,683.0" style="stroke:#010101; fill:none;"/>
	<path d="M 1423.0,684.0 L 1424.0,684.0" style="stroke:#010101; fill:none;"/>
	<path d="M 1465.0,684.0 L 1467.0,684.0" style="stroke:#010101; fill:none;"/>
	<path d="M 1428.0,685.0 L 1431.0,685.0" style="stroke:#010101; fill:none;"/>
	<path d="M 1458.0,685.0 L 1459.0,685.0" style="stroke:#010101; fill:none;"/>
	<path d="M 1435.0,686.0 L 1436.0,686.0" style="stroke:#010101; fill:none;"/>
	<path d="M 1438.0,686.0 L 1440.0,686.0" style="stroke:#010101; fill:none;"/>
	<path d="M 1442.0,686.0 L 1443.0,686.0" style="stroke:#010101; fill:none;"/>
	<path d="M 1446.0,686.0 L 1447.0,686.0" style="stroke:#010101; fill:none;"/>
	<path d="M 1450.0,686.0 L 1452.0,686.0" style="stroke:#010101; fill:none;"/>
	<path d="M 1805.0,767.0 L 1806.0,767.0" style="stroke:#010101; fill:none;"/>
	<path d="M 1809.0,768.0 L 1810.0,768.0" style="stroke:#010101; fill:none;"/>
	<path d="M 1812.0,768.0 L 1814.0,769.0" style="stroke:#010101; fill:none;"/>
	<path d="M 1782.0,770.0 L 1787.0,770.0" style="stroke:#010101; fill:none;"/>
	<path d="M 1789.0,769.0 L 1791.0,769.0" style="stroke:#010101; fill:none;"/>
	<path d="M 1756.0,779.0 L 1757.0,779.0" style="stroke:#010101; fill:none;"/>
	<path d="M 1752.0,780.0 L 1754.0,780.0" style="stroke:#010101; fill:none;"/>
	<path d="M 1749.0,781.0 L 1750.0,781.0" style="stroke:#010101; fill:none;"/>
	<path d="M 1746.0,782.0 L 1744.0,783.0" style="stroke:#010101; fill:none;"/>
	<path d="M 1719.0,792.0 L 1742.0,784.0" style="stroke:#010101; fill:none;"/>
	<path d="M 1716.0,793.0 L 1717.0,793.0" style="stroke:#010101; fill:none;"/>
	<path d="M 1712.0,795.0 L 1713.0,795.0" style="stroke:#010101; fill:none;"/>
	<path d="M 1709.0,797.0 L 1710.0,797.0" style="stroke:#010101; fill:none;"/>
	<path d="M 1560.0,819.0 L 1603.0,814.17 L 1655.0,809.866 L 1690.0,803.0" style="stroke:#010101; fill:none;"/>
	<path d="M 1557.0,819.0 L 1558.0,819.0" style="stroke:#010101; fill:none;"/>
	<path d="M 1553.0,820.0 L 1554.0,820.0" style="stroke:#010101; fill:none;"/>
	<path d="M 1549.0,821.0 L 1550.0,821.0" style="stroke:#010101; fill:none;"/>
	<path d="M 1530.0,823.0 L 1531.0,823.0" style="stroke:#010101; fill:none;"/>
	<path d="M 1546.0,823.0 L 1547.0,823.0" style="stroke:#010101; fill:none;"/>
	<path d="M 1476.0,824.0 L 1477.0,824.0" style="stroke:#010101; fill:none;"/>
	<path d="M 1288.0,835.0 L 1350.0,833.996 L 1404.0,832.003 L 1435.0,832.83 L 1470.0,825.0" style="stroke:#010101; fill:none;"/>
	<path d="M 1277.0,836.0 L 1282.0,836.0" style="stroke:#010101; fill:none;"/>
	<path d="M 1227.0,842.0 L 1228.0,842.0" style="stroke:#010101; fill:none;"/>
	<path d="M 1231.0,842.0 L 1232.0,842.0" style="stroke:#010101; fill:none;"/>
	<path d="M 1223.0,843.0 L 1225.0,843.0" style="stroke:#010101; fill:none;"/>
	<path d="M 1219.0,844.0 L 1221.0,844.0" style="stroke:#010101; fill:none;"/>
	<path d="M 1171.0,858.0 L 1217.0,845.0" style="stroke:#010101; fill:none;"/>
	<path d="M 576.0,846.0 L 569.0,854.0" style="stroke:#010101; fill:none;"/>
	<path d="M 1126.0,880.0 C 1138.68,870.257 1154.2,864.709 1169.0,859.0" style="stroke:#010101; fill:none;"/>
	<path d="M 582.0,861.0 L 570.0,879.0" style="stroke:#010101; fill:none;"/>
	<path d="M 1900.0,875.0 L 1901.0,875.0" style="stroke:#010101; fill:none;"/>
	<path d="M 1904.0,875.0 L 1905.0,875.0" style="stroke:#010101; fill:none;"/>
	<path d="M 1855.0,882.0 L 1898.0,876.0" style="stroke:#010101; fill:none;"/>
	<path d="M 569.0,881.0 L 568.0,882.0" style="stroke:#010101; fill:none;"/>
	<path d="M 1847.0,883.0 L 1848.0,883.0" style="stroke:#010101; fill:none;"/>
	<path d="M 1843.0,884.0 L 1844.0,884.0" style="stroke:#010101; fill:none;"/>
	<path d="M 566.0,885.0 L 565.0,886.0" style="stroke:#010101; fill:none;"/>
	<path d="M 1840.0,885.0 L 1841.0,885.0" style="stroke:#010101; fill:none;"/>
	<path d="M 1836.0,886.0 L 1837.0,886.0" style="stroke:#010101; fill:none;"/>
	<path d="M 1832.0,888.0 L 1833.0,888.0" style="stroke:#010101; fill:none;"/>
	<path d="M 1829.0,889.0 L 1830.0,889.0" style="stroke:#010101; fill:none;"/>
	<path d="M 1827.0,890.0 L 1795.0,905.0" style="stroke:#010101; fill:none;"/>
	<path d="M 1748.0,915.0 L 1786.0,908.0" style="stroke:#010101; fill:none;"/>
	<path d="M 1740.0,918.0 L 1741.0,918.0" style="stroke:#010101; fill:none;"/>
	<path d="M 1737.0,919.0 L 1703.0,940.0" style="stroke:#010101; fill:none;"/>
	<path d="M 1636.0,942.0 L 1647.0,976.0" style="stroke:#010101; fill:none;"/>
	<path d="M 1700.0,943.0 L 1702.0,942.0" style="stroke:#010101; fill:none;"/>
	<path d="M 1697.0,945.0 L 1698.0,945.0" style="stroke:#010101; fill:none;"/>
	<path d="M 1401.0,961.0 L 1403.0,961.0" style="stroke:#010101; fill:none;"/>
	<path d="M 1405.0,961.0 L 1406.0,961.0" style="stroke:#010101; fill:none;"/>
	<path d="M 1413.0,962.0 L 1414.0,962.0" style="stroke:#010101; fill:none;"/>
	<path d="M 1247.0,970.0 C 1261.26,973.363 1280.64,967.491 1295.0,965.275 C 1311.38,962.745 1328.41,963.342 1345.0,963.0" style="stroke:#010101; fill:none;"/>
	<path d="M 1453.0,965.0 L 1509.0,970.0" style="stroke:#010101; fill:none;"/>
	<path d="M 1535.0,973.0 L 1569.0,966.0" style="stroke:#010101; fill:none;"/>
	<path d="M 2158.0,971.0 L 2159.0,974.0" style="stroke:#010101; fill:none;"/>
	<path d="M 1531.0,973.0 L 1532.0,973.0" style="stroke:#010101; fill:none;"/>
	<path d="M 1203.0,980.0 L 1208.0,978.0" style="stroke:#010101; fill:none;"/>
	<path d="M 1196.0,983.0 L 1200.0,982.0" style="stroke:#010101; fill:none;"/>
	<path d="M 1194.0,984.0 L 1192.0,985.0" style="stroke:#010101; fill:none;"/>
	<path d="M 1190.0,986.0 L 1188.0,987.0" style="stroke:#010101; fill:none;"/>
	<path d="M 1181.0,991.0 L 1182.0,991.0" style="stroke:#010101; fill:none;"/>
	<path d="M 1178.0,993.0 L 1179.0,993.0" style="stroke:#010101; fill:none;"/>
	<path d="M 1649.0,998.0 L 1649.0,999.0" style="stroke:#010101; fill:none;"/>
	<path d="M 1649.0,1001.0 C 1649.23,1028.52 1661.26,1056.74 1671.0,1082.0" style="stroke:#010101; fill:none;"/>
	<path d="M 2170.0,1023.0 L 2170.0,1024.0" style="stroke:#010101; fill:none;"/>
	<path d="M 1965.0,1046.0 C 1941.55,1056.96 1917.42,1069.17 1901.79,1091.0 C 1884.83,1114.69 1880.43,1152.02 1875.0,1180.0" style="stroke:#010101; fill:none;"/>
	<path d="M 1891.0,1100.0 C 1898.44,1082.77 1918.57,1055.88 1937.0,1050.0" style="stroke:#010101; fill:none;"/>
	<path d="M 1920.0,1054.0 C 1902.53,1069.26 1892.45,1087.25 1881.0,1107.0 L 1883.0,1106.0" style="stroke:#010101; fill:none;"/>
	<path d="M 1916.0,1080.0 C 1933.56,1065.56 1963.3,1054.98 1986.0,1054.0" style="stroke:#010101; fill:none;"/>
	<path d="M 1898.0,1128.0 C 1908.84,1103.67 1921.09,1077.05 1949.0,1069.0" style="stroke:#010101; fill:none;"/>
	<path d="M 1895.0,1070.0 L 1892.0,1073.0" style="stroke:#010101; fill:none;"/>
	<path d="M 1881.0,1189.0 C 1881.85,1179.32 1886.37,1169.06 1889.81,1160.0 C 1899.38,1134.74 1912.55,1110.77 1932.42,1092.2 C 1941.5,1083.72 1953.38,1073.25 1966.0,1071.0" style="stroke:#010101; fill:none;"/>
	<path d="M 1874.0,1076.0 L 1870.0,1083.0" style="stroke:#010101; fill:none;"/>
	<path d="M 1890.0,1076.0 C 1868.26,1101.51 1860.0,1135.24 1860.0,1168.0" style="stroke:#010101; fill:none;"/>
	<path d="M 1978.0,1092.0 L 1990.0,1079.0" style="stroke:#010101; fill:none;"/>
	<path d="M 2011.0,1102.0 C 2030.05,1087.36 2048.94,1084.9 2071.0,1079.0" style="stroke:#010101; fill:none;"/>
	<path d="M 2103.0,1083.0 L 2101.0,1085.0 L 2148.0,1080.0" style="stroke:#010101; fill:none;"/>
	<path d="M 2002.0,1092.0 L 2016.0,1082.0" style="stroke:#010101; fill:none;"/>
	<path d="M 1912.0,1083.0 L 1913.0,1083.0" style="stroke:#010101; fill:none;"/>
	<path d="M 1672.0,1084.0 L 1672.0,1085.0" style="stroke:#010101; fill:none;"/>
	<path d="M 2079.0,1087.0 L 2100.0,1084.0" style="stroke:#010101; fill:none;"/>
	<path d="M 2005.0,1099.0 C 2008.58,1091.13 2021.63,1088.46 2029.0,1085.0" style="stroke:#010101; fill:none;"/>
	<path d="M 2009.0,1111.0 C 2022.6,1099.23 2037.71,1091.26 2054.0,1084.0" style="stroke:#010101; fill:none;"/>
	<path d="M 1714.0,1086.0 L 1721.0,1105.0" style="stroke:#010101; fill:none;"/>
	<path d="M 2090.0,1089.0 L 2101.0,1086.0" style="stroke:#010101; fill:none;"/>
	<path d="M 1674.0,1088.0 L 1674.0,1089.0" style="stroke:#010101; fill:none;"/>
	<path d="M 2114.0,1088.0 C 2103.27,1097.14 2086.12,1096.98 2073.0,1102.0" style="stroke:#010101; fill:none;"/>
	<path d="M 1867.0,1089.0 C 1863.17,1098.34 1853.01,1115.0 1857.0,1125.0 L 1854.0,1128.0 L 1856.0,1126.0" style="stroke:#010101; fill:none;"/>
	<path d="M 1969.0,1090.0 C 1948.94,1105.28 1939.38,1126.86 1925.48,1146.99 C 1919.73,1155.3 1911.38,1161.29 1905.0,1169.0 C 1921.25,1172.38 1946.5,1141.61 1948.0,1127.0" style="stroke:#010101; fill:none;"/>
	<path d="M 2033.0,1125.0 C 2048.17,1109.96 2066.87,1095.01 2088.0,1090.0" style="stroke:#010101; fill:none;"/>
	<path d="M 2156.0,1090.0 L 2157.0,1090.0" style="stroke:#010101; fill:none;"/>
	<path d="M 1675.0,1091.0 L 1675.0,1092.0" style="stroke:#010101; fill:none;"/>
	<path d="M 1906.0,1091.0 L 1905.0,1093.0" style="stroke:#010101; fill:none;"/>
	<path d="M 1888.0,1184.0 C 1889.52,1173.87 1896.13,1163.8 1901.15,1155.0 C 1913.49,1133.37 1928.26,1105.61 1949.0,1091.0" style="stroke:#010101; fill:none;"/>
	<path d="M 2112.0,1099.0 L 2153.0,1091.0" style="stroke:#010101; fill:none;"/>
	<path d="M 1977.0,1094.0 L 1976.0,1095.0" style="stroke:#010101; fill:none;"/>
	<path d="M 1904.0,1095.0 L 1904.0,1096.0" style="stroke:#010101; fill:none;"/>
	<path d="M 1989.0,1095.0 C 1976.59,1118.19 1961.63,1148.34 1938.0,1162.0" style="stroke:#010101; fill:none;"/>
	<path d="M 2105.0,1096.0 L 2044.0,1138.0" style="stroke:#010101; fill:none;"/>
	<path d="M 1991.0,1150.0 C 2010.78,1130.63 2034.02,1110.95 2058.0,1097.0" style="stroke:#010101; fill:none;"/>
	<path d="M 1974.0,1098.0 L 1973.0,1099.0" style="stroke:#010101; fill:none;"/>
	<path d="M 1998.0,1102.0 L 2004.0,1098.0" style="stroke:#010101; fill:none;"/>
	<path d="M 532.0,1099.0 L 531.0,1100.0" style="stroke:#010101; fill:none;"/>
	<path d="M 2037.0,1099.0 L 1976.0,1149.0" style="stroke:#010101; fill:none;"/>
	<path d="M 2014.0,1168.0 L 2070.0,1133.87 L 2116.0,1100.0" style="stroke:#010101; fill:none;"/>
	<path d="M 530.0,1102.0 L 528.0,1107.0" style="stroke:#010101; fill:none;"/>
	<path d="M 1870.0,1103.0 L 1869.0,1106.0" style="stroke:#010101; fill:none;"/>
	<path d="M 2004.0,1103.0 L 2004.0,1107.0 L 2009.0,1104.0" style="stroke:#010101; fill:none;"/>
	<path d="M 2082.0,1104.0 C 2068.32,1117.39 2051.93,1129.08 2035.0,1138.0" style="stroke:#010101; fill:none;"/>
	<path d="M 1961.0,1105.0 L 1953.0,1118.0" style="stroke:#010101; fill:none;"/>
	<path d="M 2003.0,1106.0 C 1988.7,1125.66 1974.42,1144.03 1954.0,1158.0" style="stroke:#010101; fill:none;"/>
	<path d="M 2171.0,1114.0 L 2191.0,1106.0" style="stroke:#010101; fill:none;"/>
	<path d="M 1849.0,1107.0 L 1849.0,1108.0" style="stroke:#010101; fill:none;"/>
	<path d="M 2118.0,1107.0 L 2075.0,1132.0" style="stroke:#010101; fill:none;"/>
	<path d="M 2154.0,1107.0 L 2155.0,1107.0" style="stroke:#010101; fill:none;"/>
	<path d="M 2143.0,1117.0 L 2141.0,1119.0 L 2163.0,1107.0" style="stroke:#010101; fill:none;"/>
	<path d="M 2156.0,1114.0 L 2179.0,1107.0" style="stroke:#010101; fill:none;"/>
	<path d="M 1868.0,1108.0 L 1870.0,1111.0" style="stroke:#010101; fill:none;"/>
	<path d="M 1880.0,1108.0 L 1882.0,1109.0" style="stroke:#010101; fill:none;"/>
	<path d="M 2136.0,1113.0 L 2152.0,1108.0" style="stroke:#010101; fill:none;"/>
	<path d="M 527.0,1109.0 C 521.04,1123.31 511.596,1136.91 502.0,1149.0" style="stroke:#010101; fill:none;"/>
	<path d="M 2064.0,1109.0 C 2048.06,1124.8 2024.54,1135.16 2005.0,1146.0" style="stroke:#010101; fill:none;"/>
	<path d="M 1879.0,1110.0 L 1877.0,1115.0" style="stroke:#010101; fill:none;"/>
	<path d="M 1881.0,1110.0 L 1866.0,1172.0" style="stroke:#010101; fill:none;"/>
	<path d="M 1848.0,1111.0 L 1842.18,1149.0 L 1841.0,1169.0 L 1837.0,1143.0" style="stroke:#010101; fill:none;"/>
	<path d="M 2126.0,1111.0 L 2124.0,1112.0" style="stroke:#010101; fill:none;"/>
	<path d="M 2121.0,1114.0 L 2122.0,1114.0" style="stroke:#010101; fill:none;"/>
	<path d="M 2129.0,1116.0 L 2133.0,1115.0" style="stroke:#010101; fill:none;"/>
	<path d="M 1961.0,1116.0 L 1939.0,1155.0" style="stroke:#010101; fill:none;"/>
	<path d="M 2160.0,1119.0 L 2168.0,1116.0" style="stroke:#010101; fill:none;"/>
	<path d="M 1876.0,1117.0 L 1876.0,1118.0" style="stroke:#010101; fill:none;"/>
	<path d="M 2103.0,1126.0 L 2117.0,1117.0" style="stroke:#010101; fill:none;"/>
	<path d="M 2144.0,1118.0 L 2149.0,1117.0" style="stroke:#010101; fill:none;"/>
	<path d="M 2243.0,1117.0 L 2248.8,1146.0 L 2247.99,1161.0 L 2253.63,1182.0 L 2244.21,1203.0 L 2237.0,1228.0 L 2234.0,1219.0 L 2234.0,1220.0 L 2234.0,1221.0 L 2234.0,1222.0" style="stroke:#010101; fill:none;"/>
	<path d="M 2124.0,1119.0 L 2127.0,1118.0" style="stroke:#010101; fill:none;"/>
	<path d="M 2140.0,1118.0 L 2112.0,1129.6 L 2071.0,1146.0" style="stroke:#010101; fill:none;"/>
	<path d="M 2236.0,1118.0 L 2236.0,1119.0" style="stroke:#010101; fill:none;"/>
	<path d="M 2115.0,1123.0 L 2122.0,1120.0" style="stroke:#010101; fill:none;"/>
	<path d="M 2233.0,1122.0 C 2240.83,1138.02 2237.27,1151.7 2236.09,1169.0 C 2235.0,1184.96 2235.0,1200.99 2235.0,1217.0" style="stroke:#010101; fill:none;"/>
	<path d="M 2100.0,1139.0 L 2146.0,1124.0" style="stroke:#010101; fill:none;"/>
	<path d="M 2136.0,1135.0 L 2175.0,1124.0" style="stroke:#010101; fill:none;"/>
	<path d="M 2101.0,1127.0 L 2100.0,1128.0" style="stroke:#010101; fill:none;"/>
	<path d="M 1854.0,1130.0 L 1854.0,1141.0 C 1848.99,1143.43 1850.0,1163.6 1850.0,1170.0" style="stroke:#010101; fill:none;"/>
	<path d="M 2097.0,1130.0 L 2096.0,1131.0" style="stroke:#010101; fill:none;"/>
	<path d="M 2177.0,1131.0 L 2178.0,1131.0" style="stroke:#010101; fill:none;"/>
	<path d="M 1853.0,1132.0 L 1853.0,1134.0" style="stroke:#010101; fill:none;"/>
	<path d="M 2170.0,1133.0 L 2175.0,1132.0" style="stroke:#010101; fill:none;"/>
	<path d="M 2167.0,1134.0 L 2168.0,1134.0" style="stroke:#010101; fill:none;"/>
	<path d="M 1692.0,1135.0 C 1701.71,1175.98 1732.53,1209.09 1742.0,1250.0" style="stroke:#010101; fill:none;"/>
	<path d="M 1827.0,1136.0 C 1823.81,1153.19 1826.09,1182.17 1836.0,1197.0" style="stroke:#010101; fill:none;"/>
	<path d="M 1854.0,1137.0 L 1854.0,1139.0" style="stroke:#010101; fill:none;"/>
	<path d="M 2131.0,1137.0 L 2132.0,1137.0" style="stroke:#010101; fill:none;"/>
	<path d="M 2125.0,1139.0 L 2129.0,1138.0" style="stroke:#010101; fill:none;"/>
	<path d="M 2155.0,1138.0 L 2156.0,1138.0" style="stroke:#010101; fill:none;"/>
	<path d="M 2151.0,1139.0 L 2152.0,1139.0" style="stroke:#010101; fill:none;"/>
	<path d="M 2028.0,1142.0 L 2029.0,1142.0" style="stroke:#010101; fill:none;"/>
	<path d="M 2113.0,1143.0 L 2118.0,1142.0" style="stroke:#010101; fill:none;"/>
	<path d="M 1853.0,1143.0 L 1851.0,1146.0" style="stroke:#010101; fill:none;"/>
	<path d="M 1491.0,1144.0 L 1492.0,1146.0" style="stroke:#010101; fill:none;"/>
	<path d="M 1545.0,1153.0 L 1546.0,1159.0" style="stroke:#010101; fill:none;"/>
	<path d="M 1850.0,1154.0 L 1851.0,1155.0" style="stroke:#010101; fill:none;"/>
	<path d="M 1354.0,1155.0 L 1376.0,1163.0" style="stroke:#010101; fill:none;"/>
	<path d="M 2050.0,1157.0 L 2051.0,1157.0" style="stroke:#010101; fill:none;"/>
	<path d="M 1327.0,1161.0 L 1347.0,1166.0 L 1344.0,1168.0" style="stroke:#010101; fill:none;"/>
	<path d="M 1595.0,1161.0 C 1598.49,1176.11 1600.97,1190.45 1599.0,1206.0" style="stroke:#010101; fill:none;"/>
	<path d="M 1378.0,1164.0 L 1383.0,1169.0" style="stroke:#010101; fill:none;"/>
	<path d="M 1347.0,1166.0 C 1362.75,1166.72 1392.61,1176.98 1402.0,1190.0" style="stroke:#010101; fill:none;"/>
	<path d="M 1306.0,1168.0 L 1326.0,1171.66 L 1342.0,1168.0" style="stroke:#010101; fill:none;"/>
	<path d="M 1841.0,1169.0 L 1842.0,1173.0 L 1844.0,1169.0" style="stroke:#010101; fill:none;"/>
	<path d="M 1301.0,1171.0 L 1303.0,1171.0" style="stroke:#010101; fill:none;"/>
	<path d="M 1298.0,1172.0 L 1299.0,1172.0" style="stroke:#010101; fill:none;"/>
	<path d="M 1320.0,1172.0 L 1301.0,1181.0 C 1318.44,1186.92 1337.23,1190.04 1355.0,1195.14 C 1363.67,1197.63 1375.11,1200.89 1381.0,1208.0" style="stroke:#010101; fill:none;"/>
	<path d="M 1329.0,1172.0 L 1387.0,1197.0" style="stroke:#010101; fill:none;"/>
	<path d="M 515.0,1173.0 L 510.0,1183.0" style="stroke:#010101; fill:none;"/>
	<path d="M 1293.0,1173.0 L 1295.0,1173.0" style="stroke:#010101; fill:none;"/>
	<path d="M 1407.0,1173.0 C 1422.31,1188.19 1436.34,1202.93 1448.33,1221.0 C 1453.56,1228.88 1459.77,1238.32 1460.0,1248.0 L 1437.56,1220.0 L 1408.0,1191.0" style="stroke:#010101; fill:none;"/>
	<path d="M 1466.0,1173.0 C 1480.69,1192.5 1499.31,1216.02 1503.0,1241.0" style="stroke:#010101; fill:none;"/>
	<path d="M 1818.0,1173.0 L 1818.0,1174.0" style="stroke:#010101; fill:none;"/>
	<path d="M 1842.0,1173.0 L 1850.0,1193.0" style="stroke:#010101; fill:none;"/>
	<path d="M 1845.0,1173.0 L 1844.0,1176.0" style="stroke:#010101; fill:none;"/>
	<path d="M 1301.0,1181.0 L 1284.0,1177.0 L 1291.0,1174.0" style="stroke:#010101; fill:none;"/>
	<path d="M 1851.0,1176.0 L 1851.0,1177.0" style="stroke:#010101; fill:none;"/>
	<path d="M 1274.0,1177.0 L 1284.0,1177.0" style="stroke:#010101; fill:none;"/>
	<path d="M 1818.0,1177.0 L 1818.0,1178.0" style="stroke:#010101; fill:none;"/>
	<path d="M 1277.0,1178.0 L 1263.0,1186.0 L 1271.0,1190.0 C 1264.43,1195.06 1256.68,1197.05 1249.29,1200.38 C 1230.74,1208.73 1208.22,1219.65 1193.0,1233.0 L 1217.0,1238.79 L 1252.0,1248.72 L 1354.0,1287.0" style="stroke:#010101; fill:none;"/>
	<path d="M 1293.0,1181.0 C 1286.83,1185.72 1278.71,1189.09 1271.0,1190.0" style="stroke:#010101; fill:none;"/>
	<path d="M 1818.0,1181.0 L 1818.0,1182.0" style="stroke:#010101; fill:none;"/>
	<path d="M 1616.0,1183.0 L 1617.0,1209.0" style="stroke:#010101; fill:none;"/>
	<path d="M 1848.0,1183.0 L 1849.0,1184.0" style="stroke:#010101; fill:none;"/>
	<path d="M 1859.0,1183.0 C 1848.44,1211.68 1824.29,1233.68 1810.63,1261.0 C 1806.81,1268.64 1802.12,1276.3 1801.17,1285.0 C 1799.91,1296.6 1803.05,1308.6 1804.92,1320.0 C 1810.76,1355.5 1825.18,1387.79 1836.25,1422.0 C 1843.08,1443.08 1846.41,1465.1 1853.03,1486.0 C 1860.6,1509.91 1872.0,1534.17 1884.28,1556.0 C 1893.51,1572.39 1906.42,1584.93 1917.21,1600.0 C 1957.7,1656.53 1996.61,1715.52 2040.04,1769.89 C 2048.89,1780.97 2060.4,1790.01 2068.96,1802.0 C 2080.24,1817.81 2092.75,1841.78 2090.83,1862.0 C 2090.08,1869.88 2088.06,1878.53 2085.46,1886.0 C 2084.25,1889.46 2080.81,1894.21 2081.66,1898.0 C 2082.68,1902.52 2088.76,1906.89 2092.0,1909.91 C 2100.85,1918.16 2109.52,1926.37 2118.0,1935.0" style="stroke:#010101; fill:none;"/>
	<path d="M 1874.0,1184.0 L 1863.0,1207.0" style="stroke:#010101; fill:none;"/>
	<path d="M 1245.0,1185.0 L 1256.0,1187.0 L 1240.0,1197.0 L 1247.0,1199.0" style="stroke:#010101; fill:none;"/>
	<path d="M 1257.0,1187.0 L 1263.0,1186.0" style="stroke:#010101; fill:none;"/>
	<path d="M 1241.0,1187.0 L 1239.0,1188.0" style="stroke:#010101; fill:none;"/>
	<path d="M 1457.0,1187.0 C 1477.63,1207.63 1488.68,1230.09 1499.0,1257.0" style="stroke:#010101; fill:none;"/>
	<path d="M 1438.0,1188.0 L 1438.0,1189.0" style="stroke:#010101; fill:none;"/>
	<path d="M 1565.0,1188.0 C 1564.0,1211.19 1558.37,1236.87 1548.69,1258.0 C 1545.1,1265.83 1540.05,1276.16 1532.0,1280.0" style="stroke:#010101; fill:none;"/>
	<path d="M 1237.0,1189.0 L 1231.0,1192.0" style="stroke:#010101; fill:none;"/>
	<path d="M 1279.0,1189.0 C 1286.04,1193.67 1295.85,1194.24 1304.0,1196.12 C 1321.57,1200.16 1340.05,1203.63 1357.0,1209.88 C 1364.23,1212.54 1369.72,1217.75 1376.0,1222.0 C 1400.02,1238.24 1423.67,1265.62 1436.0,1292.0" style="stroke:#010101; fill:none;"/>
	<path d="M 1405.0,1189.0 L 1406.0,1190.0" style="stroke:#010101; fill:none;"/>
	<path d="M 1514.0,1189.0 C 1525.85,1206.37 1545.23,1228.23 1541.0,1251.0" style="stroke:#010101; fill:none;"/>
	<path d="M 1440.0,1191.0 L 1441.0,1192.0" style="stroke:#010101; fill:none;"/>
	<path d="M 1228.0,1194.0 C 1215.6,1203.5 1197.52,1209.11 1188.0,1222.0 L 1200.0,1226.0" style="stroke:#010101; fill:none;"/>
	<path d="M 1391.0,1194.0 C 1418.63,1212.64 1452.27,1237.22 1462.0,1271.0" style="stroke:#010101; fill:none;"/>
	<path d="M 1444.0,1196.0 C 1464.16,1219.3 1487.92,1247.39 1492.0,1279.0" style="stroke:#010101; fill:none;"/>
	<path d="M 1213.0,1197.0 L 1214.0,1197.0" style="stroke:#010101; fill:none;"/>
	<path d="M 1216.0,1197.0 L 1219.0,1197.0" style="stroke:#010101; fill:none;"/>
	<path d="M 1197.0,1222.0 C 1208.53,1213.2 1225.78,1200.1 1240.0,1197.0" style="stroke:#010101; fill:none;"/>
	<path d="M 1227.0,1198.0 L 1232.0,1198.0" style="stroke:#010101; fill:none;"/>
	<path d="M 1257.0,1198.0 C 1263.88,1202.95 1275.67,1202.16 1284.0,1203.16 C 1300.7,1205.16 1317.04,1207.61 1333.0,1213.0" style="stroke:#010101; fill:none;"/>
	<path d="M 1304.0,1300.0 C 1289.63,1292.43 1272.68,1291.2 1257.0,1288.2 C 1223.16,1281.71 1189.23,1277.43 1155.0,1274.17 C 1140.94,1272.83 1123.35,1276.24 1110.0,1272.0 L 1121.0,1258.0 C 1129.87,1257.51 1138.26,1246.24 1145.0,1240.8 C 1163.04,1226.24 1181.7,1211.3 1202.0,1200.0" style="stroke:#010101; fill:none;"/>
	<path d="M 1368.0,1202.0 L 1369.0,1203.0" style="stroke:#010101; fill:none;"/>
	<path d="M 1371.0,1204.0 L 1387.0,1221.0 L 1368.0,1209.0" style="stroke:#010101; fill:none;"/>
	<path d="M 1364.0,1206.0 L 1365.0,1207.0" style="stroke:#010101; fill:none;"/>
	<path d="M 1502.0,1206.0 L 1527.0,1260.0 L 1531.0,1252.0" style="stroke:#010101; fill:none;"/>
	<path d="M 1302.0,1210.0 C 1331.35,1224.39 1359.96,1241.31 1385.0,1262.44 C 1395.93,1271.66 1405.23,1282.59 1416.0,1292.0" style="stroke:#010101; fill:none;"/>
	<path d="M 1591.0,1212.0 C 1580.53,1239.15 1565.64,1266.19 1545.0,1287.0" style="stroke:#010101; fill:none;"/>
	<path d="M 1261.0,1213.0 L 1262.0,1213.0" style="stroke:#010101; fill:none;"/>
	<path d="M 1264.0,1214.0 C 1297.59,1227.03 1330.34,1242.53 1362.0,1259.69 C 1376.3,1267.45 1392.14,1274.68 1404.0,1286.0" style="stroke:#010101; fill:none;"/>
	<path d="M 1333.0,1217.0 L 1381.0,1247.88 L 1426.0,1291.0" style="stroke:#010101; fill:none;"/>
	<path d="M 1156.0,1218.0 C 1128.47,1237.79 1102.93,1260.46 1078.17,1283.56 C 1069.73,1291.43 1058.44,1306.79 1047.99,1311.19 C 1042.82,1313.36 1035.53,1313.0 1030.0,1313.0" style="stroke:#010101; fill:none;"/>
	<path d="M 506.0,1220.0 L 503.0,1224.0" style="stroke:#010101; fill:none;"/>
	<path d="M 1215.0,1220.0 C 1225.83,1226.67 1240.97,1228.41 1253.0,1232.69 C 1281.92,1242.98 1310.76,1253.82 1339.0,1265.85 C 1348.03,1269.7 1356.98,1273.72 1366.0,1277.58 C 1370.75,1279.61 1374.55,1282.65 1379.0,1279.0 C 1342.65,1252.59 1295.27,1235.3 1253.0,1221.0" style="stroke:#010101; fill:none;"/>
	<path d="M 2238.0,1220.0 L 2240.0,1220.0" style="stroke:#010101; fill:none;"/>
	<path d="M 1122.0,1271.0 C 1141.17,1251.98 1164.67,1236.19 1187.0,1221.0" style="stroke:#010101; fill:none;"/>
	<path d="M 1388.0,1222.0 C 1394.96,1226.63 1399.79,1233.15 1406.01,1238.56 C 1422.69,1253.06 1450.78,1271.34 1455.0,1295.0" style="stroke:#010101; fill:none;"/>
	<path d="M 1856.0,1280.0 L 1853.0,1278.0 C 1860.38,1276.85 1863.42,1269.1 1868.09,1264.0 C 1878.28,1252.9 1890.88,1233.18 1905.0,1227.68 C 1925.35,1219.77 1951.68,1223.0 1973.0,1223.0 C 2010.17,1223.0 2050.9,1220.33 2087.0,1231.04 C 2103.14,1235.82 2116.76,1244.28 2131.0,1253.0 L 2115.0,1267.0 C 2121.96,1268.71 2132.82,1260.91 2134.0,1254.0 L 2131.0,1253.0" style="stroke:#010101; fill:none;"/>
	<path d="M 1193.0,1224.0 C 1178.89,1236.03 1158.84,1244.66 1148.0,1260.0 C 1162.26,1267.73 1185.01,1267.72 1201.0,1270.8 C 1239.14,1278.16 1277.47,1286.05 1315.0,1296.0" style="stroke:#010101; fill:none;"/>
	<path d="M 1207.0,1227.0 C 1260.37,1244.36 1317.23,1258.26 1366.0,1287.0" style="stroke:#010101; fill:none;"/>
	<path d="M 2237.0,1228.0 C 2234.7,1257.12 2233.12,1289.01 2237.3,1318.0 C 2240.1,1337.46 2247.39,1356.62 2251.0,1376.0" style="stroke:#010101; fill:none;"/>
	<path d="M 1187.0,1233.0 L 1192.0,1233.0" style="stroke:#010101; fill:none;"/>
	<path d="M 1190.0,1234.0 C 1182.74,1239.76 1169.26,1255.24 1160.0,1250.0" style="stroke:#010101; fill:none;"/>
	<path d="M 1870.0,1262.0 C 1863.38,1248.25 1881.97,1234.55 1894.0,1234.0" style="stroke:#010101; fill:none;"/>
	<path d="M 2105.0,1238.0 C 2103.59,1245.79 2097.9,1250.81 2092.42,1256.08 C 2077.53,1270.44 2055.01,1283.55 2035.0,1272.0 L 2049.0,1271.22 L 2071.0,1266.1 L 2092.0,1256.0" style="stroke:#010101; fill:none;"/>
	<path d="M 1106.0,1239.0 C 1072.93,1265.01 1042.45,1293.85 1012.0,1322.96 C 1000.67,1333.79 980.873,1345.89 974.0,1360.0 C 976.613,1359.49 976.829,1359.46 976.0,1357.0" style="stroke:#010101; fill:none;"/>
	<path d="M 1882.0,1240.0 L 1878.0,1251.0" style="stroke:#010101; fill:none;"/>
	<path d="M 1868.0,1243.0 L 1874.0,1242.0" style="stroke:#010101; fill:none;"/>
	<path d="M 2023.0,1244.0 C 2017.7,1253.53 2008.77,1263.76 1998.0,1267.41 C 1990.64,1269.91 1981.55,1266.9 1974.0,1266.86 C 1961.58,1266.8 1950.9,1268.97 1939.0,1272.0 L 1938.0,1267.0 C 1936.26,1269.31 1935.72,1270.98 1938.0,1273.0" style="stroke:#010101; fill:none;"/>
	<path d="M 1180.0,1246.0 C 1201.52,1248.9 1222.85,1255.49 1244.0,1260.35 C 1274.8,1267.42 1307.47,1273.68 1337.0,1285.0" style="stroke:#010101; fill:none;"/>
	<path d="M 1415.0,1247.0 L 1416.0,1250.0 L 1419.0,1248.0 L 1419.0,1249.0 L 1418.0,1251.0" style="stroke:#010101; fill:none;"/>
	<path d="M 1985.0,1247.0 L 1986.0,1254.0 L 1988.0,1247.0" style="stroke:#010101; fill:none;"/>
	<path d="M 2043.0,1247.0 L 2030.0,1258.0" style="stroke:#010101; fill:none;"/>
	<path d="M 2140.0,1247.0 L 2135.0,1255.0 C 2148.76,1267.02 2152.82,1277.42 2159.0,1294.0" style="stroke:#010101; fill:none;"/>
	<path d="M 2041.0,1262.0 L 2059.0,1248.0 C 2060.66,1262.53 2041.28,1262.7 2032.0,1266.13 C 2025.68,1268.47 2023.11,1271.69 2016.0,1270.0 L 2015.0,1271.0 C 2017.76,1278.96 2022.79,1285.86 2025.23,1294.0 C 2030.64,1312.02 2026.59,1337.36 2014.33,1351.91 C 1995.55,1374.2 1968.91,1370.7 1943.0,1373.17 C 1925.99,1374.79 1907.33,1376.08 1894.19,1363.67 C 1882.17,1352.33 1883.7,1336.66 1884.0,1322.0 C 1875.51,1324.39 1873.82,1332.38 1872.12,1340.0 C 1868.75,1355.1 1871.43,1371.14 1890.0,1373.0" style="stroke:#010101; fill:none;"/>
	<path d="M 1082.0,1249.0 C 1050.0,1273.69 1019.71,1301.59 991.0,1330.0 C 978.691,1342.18 964.54,1353.17 954.0,1367.0 L 973.0,1361.0" style="stroke:#010101; fill:none;"/>
	<path d="M 1461.0,1249.0 L 1464.0,1267.0" style="stroke:#010101; fill:none;"/>
	<path d="M 1532.0,1249.0 L 1532.0,1250.0" style="stroke:#010101; fill:none;"/>
	<path d="M 1615.0,1250.0 L 1600.0,1269.0" style="stroke:#010101; fill:none;"/>
	<path d="M 1862.0,1251.0 L 1854.0,1277.0" style="stroke:#010101; fill:none;"/>
	<path d="M 2035.0,1251.0 L 2030.0,1256.0" style="stroke:#010101; fill:none;"/>
	<path d="M 1170.0,1252.0 C 1203.05,1253.42 1236.84,1263.43 1269.0,1270.58 C 1289.3,1275.08 1313.11,1279.12 1330.0,1292.0" style="stroke:#010101; fill:none;"/>
	<path d="M 1418.0,1252.0 C 1427.36,1263.61 1435.26,1275.19 1441.0,1289.0" style="stroke:#010101; fill:none;"/>
	<path d="M 1743.0,1252.0 L 1743.0,1253.0" style="stroke:#010101; fill:none;"/>
	<path d="M 1968.0,1253.0 L 1961.0,1266.0" style="stroke:#010101; fill:none;"/>
	<path d="M 1165.0,1254.0 L 1164.0,1255.0" style="stroke:#010101; fill:none;"/>
	<path d="M 1984.0,1254.0 L 1980.0,1262.0 L 1981.0,1259.0" style="stroke:#010101; fill:none;"/>
	<path d="M 1986.0,1254.0 L 1983.0,1257.0" style="stroke:#010101; fill:none;"/>
	<path d="M 1854.0,1255.0 C 1852.43,1266.61 1838.77,1286.28 1844.0,1297.0 L 1855.0,1281.0" style="stroke:#010101; fill:none;"/>
	<path d="M 1963.0,1256.0 L 1961.0,1264.0" style="stroke:#010101; fill:none;"/>
	<path d="M 1111.0,1257.0 L 1120.0,1257.0" style="stroke:#010101; fill:none;"/>
	<path d="M 1128.0,1257.0 L 1132.0,1259.0" style="stroke:#010101; fill:none;"/>
	<path d="M 1940.0,1257.0 L 1938.0,1267.0" style="stroke:#010101; fill:none;"/>
	<path d="M 2013.0,1265.0 L 2029.0,1257.0" style="stroke:#010101; fill:none;"/>
	<path d="M 1937.0,1258.0 L 1939.0,1261.0" style="stroke:#010101; fill:none;"/>
	<path d="M 1984.0,1259.0 L 1983.0,1260.0" style="stroke:#010101; fill:none;"/>
	<path d="M 2030.0,1259.0 L 2021.0,1266.0" style="stroke:#010101; fill:none;"/>
	<path d="M 1139.0,1260.0 L 1147.0,1261.0" style="stroke:#010101; fill:none;"/>
	<path d="M 1144.0,1261.0 L 1135.0,1272.0" style="stroke:#010101; fill:none;"/>
	<path d="M 1527.0,1261.0 L 1509.0,1278.0" style="stroke:#010101; fill:none;"/>
	<path d="M 1867.0,1261.0 L 1867.0,1263.0" style="stroke:#010101; fill:none;"/>
	<path d="M 1980.0,1263.0 L 1979.0,1261.0" style="stroke:#010101; fill:none;"/>
	<path d="M 1129.0,1350.0 C 1115.09,1345.89 1096.98,1351.16 1083.0,1353.41 C 1048.35,1358.98 1014.03,1367.12 980.0,1375.63 C 968.594,1378.48 957.307,1381.64 946.0,1384.86 C 941.727,1386.08 935.882,1389.53 934.0,1384.0 L 927.0,1384.0 C 938.822,1365.1 959.26,1348.74 975.0,1333.0 C 998.583,1309.42 1022.99,1278.9 1052.0,1262.0" style="stroke:#010101; fill:none;"/>
	<path d="M 1972.0,1265.0 L 1977.0,1262.0" style="stroke:#010101; fill:none;"/>
	<path d="M 1948.0,1264.0 L 1947.0,1268.0" style="stroke:#010101; fill:none;"/>
	<path d="M 1979.0,1264.0 L 1979.0,1266.0" style="stroke:#010101; fill:none;"/>
	<path d="M 1465.0,1265.0 L 1468.0,1276.0" style="stroke:#010101; fill:none;"/>
	<path d="M 1528.0,1265.0 L 1529.0,1266.0" style="stroke:#010101; fill:none;"/>
	<path d="M 2009.0,1265.0 L 2010.0,1265.0" style="stroke:#010101; fill:none;"/>
	<path d="M 1922.0,1266.0 L 1924.0,1271.0" style="stroke:#010101; fill:none;"/>
	<path d="M 2114.0,1266.0 L 2112.0,1268.0 L 2114.0,1270.0 L 2116.0,1268.0" style="stroke:#010101; fill:none;"/>
	<path d="M 1921.0,1268.0 L 1921.0,1269.0" style="stroke:#010101; fill:none;"/>
	<path d="M 2001.0,1269.0 L 2015.0,1272.0" style="stroke:#010101; fill:none;"/>
	<path d="M 2027.0,1270.0 L 2035.0,1272.0" style="stroke:#010101; fill:none;"/>
	<path d="M 2099.0,1275.0 L 2112.0,1269.0" style="stroke:#010101; fill:none;"/>
	<path d="M 1841.0,1271.0 C 1836.49,1282.78 1827.6,1305.64 1831.0,1318.0 L 1844.0,1298.0" style="stroke:#010101; fill:none;"/>
	<path d="M 1952.0,1271.0 L 1949.0,1273.0" style="stroke:#010101; fill:none;"/>
	<path d="M 2073.0,1272.0 C 2082.21,1274.8 2091.77,1274.39 2101.0,1272.0" style="stroke:#010101; fill:none;"/>
	<path d="M 929.0,1365.0 C 960.01,1333.99 990.151,1297.38 1027.0,1273.0" style="stroke:#010101; fill:none;"/>
	<path d="M 1309.0,1313.0 C 1291.73,1304.33 1267.95,1303.27 1249.0,1300.72 C 1213.31,1295.91 1177.92,1290.55 1142.0,1288.09 C 1127.76,1287.11 1108.34,1290.58 1095.0,1286.0 C 1097.84,1280.63 1103.2,1275.01 1109.0,1273.0" style="stroke:#010101; fill:none;"/>
	<path d="M 1923.0,1273.0 C 1921.6,1293.02 1892.02,1302.5 1885.0,1321.0" style="stroke:#010101; fill:none;"/>
	<path d="M 1091.0,1275.0 L 1103.0,1275.0" style="stroke:#010101; fill:none;"/>
	<path d="M 1464.0,1274.0 L 1464.0,1275.0" style="stroke:#010101; fill:none;"/>
	<path d="M 1923.0,1280.0 L 1935.0,1274.0" style="stroke:#010101; fill:none;"/>
	<path d="M 1115.0,1275.0 L 1106.0,1285.0" style="stroke:#010101; fill:none;"/>
	<path d="M 2096.0,1276.0 L 2097.0,1276.0" style="stroke:#010101; fill:none;"/>
	<path d="M 2084.0,1279.0 L 2110.0,1279.91 L 2139.0,1276.0" style="stroke:#010101; fill:none;"/>
	<path d="M 2093.0,1277.0 L 2094.0,1277.0" style="stroke:#010101; fill:none;"/>
	<path d="M 2158.0,1285.0 L 2174.0,1277.0" style="stroke:#010101; fill:none;"/>
	<path d="M 2056.0,1278.0 C 2072.02,1287.95 2091.55,1290.93 2106.99,1302.76 C 2119.03,1311.99 2115.1,1324.21 2101.0,1329.0 L 2102.0,1319.0" style="stroke:#010101; fill:none;"/>
	<path d="M 1378.0,1283.0 C 1384.56,1279.97 1395.9,1290.89 1401.0,1295.0" style="stroke:#010101; fill:none;"/>
	<path d="M 1903.0,1280.0 L 1908.0,1292.0" style="stroke:#010101; fill:none;"/>
	<path d="M 1493.0,1281.0 L 1493.0,1282.0" style="stroke:#010101; fill:none;"/>
	<path d="M 1832.0,1283.0 L 1832.0,1284.0" style="stroke:#010101; fill:none;"/>
	<path d="M 1380.0,1284.0 L 1382.0,1284.0" style="stroke:#010101; fill:none;"/>
	<path d="M 1905.0,1284.0 L 1906.0,1285.0" style="stroke:#010101; fill:none;"/>
	<path d="M 2166.0,1284.0 L 2167.0,1284.0" style="stroke:#010101; fill:none;"/>
	<path d="M 1339.0,1286.0 L 1339.0,1287.0" style="stroke:#010101; fill:none;"/>
	<path d="M 1076.0,1288.0 L 1094.0,1287.0" style="stroke:#010101; fill:none;"/>
	<path d="M 1831.0,1287.0 L 1823.0,1324.0" style="stroke:#010101; fill:none;"/>
	<path d="M 2090.0,1287.0 L 2091.0,1287.0" style="stroke:#010101; fill:none;"/>
	<path d="M 2094.0,1287.0 C 2112.52,1294.13 2136.06,1291.9 2155.0,1287.0" style="stroke:#010101; fill:none;"/>
	<path d="M 1099.0,1288.0 L 1098.0,1291.0" style="stroke:#010101; fill:none;"/>
	<path d="M 934.0,1387.0 L 898.0,1400.33 L 882.0,1404.0 C 893.693,1387.33 909.207,1373.06 922.83,1358.0 C 944.388,1334.17 967.495,1307.45 994.0,1289.0" style="stroke:#010101; fill:none;"/>
	<path d="M 1542.0,1289.0 L 1541.0,1290.0" style="stroke:#010101; fill:none;"/>
	<path d="M 1088.0,1290.0 L 1071.0,1308.0 L 1120.0,1308.09 L 1263.0,1317.0" style="stroke:#010101; fill:none;"/>
	<path d="M 1893.0,1291.0 C 1893.88,1296.53 1896.44,1298.19 1901.0,1301.0" style="stroke:#010101; fill:none;"/>
	<path d="M 2136.0,1293.0 L 2138.0,1292.0" style="stroke:#010101; fill:none;"/>
	<path d="M 2112.0,1296.0 C 2118.98,1296.91 2124.01,1302.48 2131.0,1303.49 C 2143.56,1305.32 2161.45,1297.46 2173.0,1293.0" style="stroke:#010101; fill:none;"/>
	<path d="M 2133.0,1294.0 L 2134.0,1294.0" style="stroke:#010101; fill:none;"/>
	<path d="M 2092.0,1295.0 L 2102.0,1314.0" style="stroke:#010101; fill:none;"/>
	<path d="M 2129.0,1295.0 L 2131.0,1295.0" style="stroke:#010101; fill:none;"/>
	<path d="M 978.0,1296.0 L 979.0,1296.0" style="stroke:#010101; fill:none;"/>
	<path d="M 1841.0,1296.0 L 1841.0,1299.0" style="stroke:#010101; fill:none;"/>
	<path d="M 976.0,1298.0 L 975.0,1299.0" style="stroke:#010101; fill:none;"/>
	<path d="M 2207.0,1299.0 C 2197.32,1315.7 2184.0,1316.87 2167.0,1323.0 L 2169.0,1320.0" style="stroke:#010101; fill:none;"/>
	<path d="M 1880.0,1301.0 L 1895.0,1308.0" style="stroke:#010101; fill:none;"/>
	<path d="M 1084.0,1389.0 C 1068.49,1390.96 1052.64,1390.49 1037.0,1392.17 C 998.431,1396.3 959.844,1404.07 922.0,1412.42 C 905.538,1416.06 889.22,1420.27 873.0,1424.86 C 866.16,1426.8 856.967,1431.49 850.0,1430.0 C 864.469,1408.13 886.064,1389.16 903.911,1370.0 C 925.025,1347.33 946.58,1319.91 972.0,1302.0" style="stroke:#010101; fill:none;"/>
	<path d="M 1825.0,1303.0 L 1815.0,1344.0" style="stroke:#010101; fill:none;"/>
	<path d="M 1878.0,1304.0 L 1887.0,1309.0" style="stroke:#010101; fill:none;"/>
	<path d="M 1943.0,1304.43 C 1953.22,1302.96 1971.84,1310.35 1964.82,1323.98 C 1962.07,1329.33 1956.17,1329.48 1952.39,1333.42 C 1949.19,1336.75 1949.39,1340.79 1944.0,1341.77 C 1927.76,1344.73 1920.19,1323.08 1928.01,1311.09 C 1931.32,1306.02 1937.48,1305.22 1943.0,1304.43" style="stroke:#010101; fill:none;"/>
	<path d="M 2121.0,1310.0 L 2162.0,1304.0" style="stroke:#010101; fill:none;"/>
	<path d="M 2160.0,1306.0 L 2169.0,1305.0" style="stroke:#010101; fill:none;"/>
	<path d="M 2203.0,1305.0 L 2203.0,1306.0" style="stroke:#010101; fill:none;"/>
	<path d="M 2129.0,1309.0 L 2132.0,1308.0" style="stroke:#010101; fill:none;"/>
	<path d="M 1053.0,1310.0 L 1070.0,1309.0" style="stroke:#010101; fill:none;"/>
	<path d="M 1027.0,1314.0 L 1028.0,1314.0" style="stroke:#010101; fill:none;"/>
	<path d="M 1045.0,1314.0 L 1022.0,1336.0" style="stroke:#010101; fill:none;"/>
	<path d="M 2117.0,1314.0 L 2120.0,1315.0" style="stroke:#010101; fill:none;"/>
	<path d="M 2140.0,1315.0 C 2148.09,1319.6 2156.79,1320.99 2166.0,1321.0" style="stroke:#010101; fill:none;"/>
	<path d="M 1034.0,1331.0 C 1058.82,1322.53 1086.0,1319.73 1112.0,1317.91 C 1161.47,1314.44 1210.87,1316.66 1260.0,1323.0" style="stroke:#010101; fill:none;"/>
	<path d="M 1830.0,1319.0 L 1818.0,1350.0" style="stroke:#010101; fill:none;"/>
	<path d="M 928.0,1324.0 C 883.046,1368.93 840.611,1415.09 801.0,1465.0" style="stroke:#010101; fill:none;"/>
	<path d="M 2157.0,1324.0 L 2166.0,1324.0" style="stroke:#010101; fill:none;"/>
	<path d="M 1822.0,1327.0 L 1822.0,1328.0" style="stroke:#010101; fill:none;"/>
	<path d="M 1202.0,1338.0 C 1178.2,1332.27 1153.12,1335.96 1129.0,1336.0 C 1124.39,1336.01 1108.15,1339.93 1105.18,1335.43 C 1103.11,1332.3 1109.61,1332.2 1111.0,1332.08 C 1118.98,1331.39 1126.99,1330.39 1135.0,1330.04 C 1167.46,1328.62 1199.52,1329.0 1232.0,1329.0" style="stroke:#010101; fill:none;"/>
	<path d="M 932.0,1329.0 L 933.0,1329.0" style="stroke:#010101; fill:none;"/>
	<path d="M 2101.0,1329.0 C 2072.25,1357.15 2033.74,1358.95 1997.0,1368.0" style="stroke:#010101; fill:none;"/>
	<path d="M 1821.0,1331.0 L 1821.0,1332.0" style="stroke:#010101; fill:none;"/>
	<path d="M 929.0,1332.0 C 889.424,1371.27 845.778,1412.34 816.0,1460.0" style="stroke:#010101; fill:none;"/>
	<path d="M 1104.0,1336.0 L 1083.0,1339.0 L 1082.0,1335.0 L 1104.0,1333.0" style="stroke:#010101; fill:none;"/>
	<path d="M 1109.0,1333.0 L 1109.0,1336.0" style="stroke:#010101; fill:none;"/>
	<path d="M 1098.0,1334.0 L 1098.0,1337.0" style="stroke:#010101; fill:none;"/>
	<path d="M 1865.0,1383.0 C 1859.75,1382.19 1852.1,1376.9 1851.83,1371.0 C 1851.57,1365.36 1855.35,1362.41 1852.0,1357.0 L 1872.0,1333.0" style="stroke:#010101; fill:none;"/>
	<path d="M 2156.0,1334.0 L 2165.0,1340.0" style="stroke:#010101; fill:none;"/>
	<path d="M 1082.0,1340.0 C 1074.54,1339.59 1068.21,1342.02 1062.0,1337.0 L 1081.0,1335.0" style="stroke:#010101; fill:none;"/>
	<path d="M 1086.0,1335.0 L 1086.0,1338.0" style="stroke:#010101; fill:none;"/>
	<path d="M 1092.0,1335.0 L 1092.0,1337.0" style="stroke:#010101; fill:none;"/>
	<path d="M 1080.0,1336.0 L 1080.0,1339.0" style="stroke:#010101; fill:none;"/>
	<path d="M 990.0,1350.0 C 1013.01,1343.52 1037.94,1337.2 1062.0,1337.0" style="stroke:#010101; fill:none;"/>
	<path d="M 1067.0,1337.0 L 1067.0,1340.0" style="stroke:#010101; fill:none;"/>
	<path d="M 1073.0,1337.0 L 1073.0,1339.0" style="stroke:#010101; fill:none;"/>
	<path d="M 1447.0,1338.0 L 1448.0,1339.0" style="stroke:#010101; fill:none;"/>
	<path d="M 2116.0,1339.0 L 2120.0,1342.0" style="stroke:#010101; fill:none;"/>
	<path d="M 1450.0,1340.0 L 1520.0,1376.0" style="stroke:#010101; fill:none;"/>
	<path d="M 978.0,1359.0 L 1028.0,1347.42 L 1065.0,1341.0" style="stroke:#010101; fill:none;"/>
	<path d="M 935.0,1383.0 C 989.236,1360.2 1051.74,1349.4 1110.0,1343.83 C 1130.35,1341.89 1161.06,1336.5 1180.0,1346.0 C 1173.77,1350.97 1165.69,1350.47 1158.0,1351.09 C 1145.72,1352.07 1133.11,1353.74 1121.0,1356.0" style="stroke:#010101; fill:none;"/>
	<path d="M 2114.0,1345.0 L 2116.0,1346.0" style="stroke:#010101; fill:none;"/>
	<path d="M 1174.0,1347.0 L 1175.0,1347.0" style="stroke:#010101; fill:none;"/>
	<path d="M 1180.0,1347.0 L 1211.0,1349.0" style="stroke:#010101; fill:none;"/>
	<path d="M 1179.0,1349.0 L 1180.0,1349.0" style="stroke:#010101; fill:none;"/>
	<path d="M 2104.0,1349.0 L 2110.0,1355.0" style="stroke:#010101; fill:none;"/>
	<path d="M 1856.0,1356.0 L 1855.0,1359.0" style="stroke:#010101; fill:none;"/>
	<path d="M 1114.0,1357.0 L 1115.0,1357.0" style="stroke:#010101; fill:none;"/>
	<path d="M 1110.0,1358.0 L 1111.0,1358.0" style="stroke:#010101; fill:none;"/>
	<path d="M 1851.0,1359.0 C 1840.1,1378.65 1836.03,1390.62 1841.0,1413.0" style="stroke:#010101; fill:none;"/>
	<path d="M 2146.0,1361.0 C 2142.39,1380.45 2139.87,1399.33 2128.0,1416.0" style="stroke:#010101; fill:none;"/>
	<path d="M 1364.0,1387.0 L 1361.0,1387.0 L 1365.0,1385.0 C 1358.42,1380.3 1351.21,1377.27 1344.0,1373.74 C 1341.91,1372.72 1337.21,1371.02 1337.21,1368.12 C 1337.21,1364.08 1348.28,1364.26 1351.0,1363.95 C 1366.72,1362.19 1379.65,1367.75 1395.0,1369.0" style="stroke:#010101; fill:none;"/>
	<path d="M 1462.0,1363.0 C 1479.46,1387.04 1497.23,1415.69 1509.0,1443.0" style="stroke:#010101; fill:none;"/>
	<path d="M 2073.0,1364.0 L 2078.0,1384.0" style="stroke:#010101; fill:none;"/>
	<path d="M 1474.0,1365.0 L 1519.0,1449.0" style="stroke:#010101; fill:none;"/>
	<path d="M 2059.0,1367.0 C 2065.15,1364.01 2068.23,1375.52 2069.0,1380.0" style="stroke:#010101; fill:none;"/>
	<path d="M 1239.0,1398.0 C 1238.19,1404.27 1236.77,1411.69 1232.94,1416.89 C 1231.53,1418.81 1228.07,1421.96 1225.73,1419.35 C 1222.88,1416.17 1228.7,1410.6 1230.08,1408.0 C 1235.32,1398.15 1231.11,1394.66 1243.0,1389.23 C 1261.57,1380.76 1280.63,1372.62 1301.0,1369.44 C 1312.51,1367.64 1324.43,1368.46 1336.0,1367.0" style="stroke:#010101; fill:none;"/>
	<path d="M 2050.0,1382.0 C 2047.24,1376.79 2048.44,1372.11 2051.0,1367.0 L 2059.0,1374.0" style="stroke:#010101; fill:none;"/>
	<path d="M 926.0,1368.0 L 927.0,1368.0" style="stroke:#010101; fill:none;"/>
	<path d="M 954.0,1368.0 L 942.0,1378.0" style="stroke:#010101; fill:none;"/>
	<path d="M 1074.0,1378.0 C 1097.2,1373.68 1120.35,1369.07 1144.0,1369.0" style="stroke:#010101; fill:none;"/>
	<path d="M 872.0,1370.0 L 873.0,1370.0" style="stroke:#010101; fill:none;"/>
	<path d="M 882.0,1404.0 L 870.0,1417.0 C 878.949,1417.12 887.617,1412.04 896.0,1409.34 C 912.209,1404.13 928.525,1399.22 945.0,1394.88 C 997.869,1380.98 1052.21,1370.0 1107.0,1370.0" style="stroke:#010101; fill:none;"/>
	<path d="M 869.0,1373.0 L 868.0,1374.0" style="stroke:#010101; fill:none;"/>
	<path d="M 1492.0,1374.0 L 1523.74,1439.0 L 1538.0,1472.0" style="stroke:#010101; fill:none;"/>
	<path d="M 1498.0,1374.0 L 1498.0,1375.0" style="stroke:#010101; fill:none;"/>
	<path d="M 1850.0,1375.0 L 1847.0,1392.0" style="stroke:#010101; fill:none;"/>
	<path d="M 1853.0,1401.0 L 1850.0,1400.0 C 1869.71,1392.52 1884.31,1377.74 1906.0,1375.0" style="stroke:#010101; fill:none;"/>
	<path d="M 785.0,1471.0 C 812.427,1441.13 833.428,1401.9 866.0,1377.0" style="stroke:#010101; fill:none;"/>
	<path d="M 943.0,1377.0 L 945.0,1379.0" style="stroke:#010101; fill:none;"/>
	<path d="M 1276.0,1377.0 C 1276.0,1392.79 1269.07,1407.58 1253.0,1413.0" style="stroke:#010101; fill:none;"/>
	<path d="M 1522.0,1377.0 L 1524.0,1379.0" style="stroke:#010101; fill:none;"/>
	<path d="M 2017.0,1379.0 L 2027.0,1380.0 L 2025.0,1377.0" style="stroke:#010101; fill:none;"/>
	<path d="M 2033.0,1399.0 L 2033.0,1377.0 C 2038.99,1380.11 2042.43,1384.87 2045.0,1391.0" style="stroke:#010101; fill:none;"/>
	<path d="M 1500.0,1378.0 C 1505.27,1396.16 1516.81,1412.84 1524.69,1430.0 C 1537.63,1458.17 1547.23,1487.63 1564.0,1514.0 C 1574.02,1503.5 1564.6,1493.75 1558.0,1483.0" style="stroke:#010101; fill:none;"/>
	<path d="M 1939.0,1379.0 L 1934.0,1388.0" style="stroke:#010101; fill:none;"/>
	<path d="M 1510.0,1380.0 C 1518.64,1417.33 1545.14,1449.69 1554.0,1487.0" style="stroke:#010101; fill:none;"/>
	<path d="M 1517.0,1381.0 C 1525.78,1417.95 1552.95,1449.25 1563.0,1486.0" style="stroke:#010101; fill:none;"/>
	<path d="M 1526.0,1381.0 L 1528.0,1383.0" style="stroke:#010101; fill:none;"/>
	<path d="M 2047.0,1381.0 L 2047.0,1384.0" style="stroke:#010101; fill:none;"/>
	<path d="M 2028.0,1382.0 L 2030.0,1387.0" style="stroke:#010101; fill:none;"/>
	<path d="M 2009.0,1383.0 L 2009.0,1389.0" style="stroke:#010101; fill:none;"/>
	<path d="M 927.0,1384.0 L 916.0,1389.0" style="stroke:#010101; fill:none;"/>
	<path d="M 1283.0,1384.0 C 1280.85,1394.3 1274.47,1401.87 1267.2,1409.2 C 1265.35,1411.06 1259.64,1415.2 1261.26,1418.4 C 1262.39,1420.63 1267.88,1420.46 1270.0,1420.71 C 1279.24,1421.82 1286.21,1424.51 1295.0,1427.34 C 1325.84,1437.29 1352.1,1460.66 1383.0,1469.57 C 1393.51,1472.6 1404.49,1473.86 1415.0,1476.76 C 1418.37,1477.69 1423.54,1478.78 1423.74,1483.05 C 1424.24,1493.39 1409.6,1488.42 1404.0,1487.83 C 1391.23,1486.5 1377.87,1487.52 1365.0,1486.96 C 1357.02,1486.61 1347.94,1484.55 1340.0,1485.84 C 1326.71,1488.02 1313.03,1496.66 1300.0,1500.56 C 1267.86,1510.18 1234.74,1518.87 1202.0,1525.79 C 1178.3,1530.8 1151.29,1537.39 1127.0,1536.74 C 1106.95,1536.21 1087.0,1531.41 1067.0,1531.0" style="stroke:#010101; fill:none;"/>
	<path d="M 1364.0,1384.0 L 1364.0,1386.0" style="stroke:#010101; fill:none;"/>
	<path d="M 1365.0,1385.0 C 1391.68,1394.77 1412.08,1416.15 1434.0,1433.0" style="stroke:#010101; fill:none;"/>
	<path d="M 1473.0,1385.0 L 1473.0,1386.0" style="stroke:#010101; fill:none;"/>
	<path d="M 1530.0,1385.0 C 1549.45,1404.86 1567.29,1427.26 1580.0,1452.0" style="stroke:#010101; fill:none;"/>
	<path d="M 2000.0,1385.0 L 2000.0,1397.0" style="stroke:#010101; fill:none;"/>
	<path d="M 1960.0,1399.0 L 1967.0,1386.0" style="stroke:#010101; fill:none;"/>
	<path d="M 1090.0,1387.0 L 1092.0,1387.0" style="stroke:#010101; fill:none;"/>
	<path d="M 1095.0,1387.0 L 1096.0,1387.0" style="stroke:#010101; fill:none;"/>
	<path d="M 1986.0,1387.0 L 1983.0,1400.0" style="stroke:#010101; fill:none;"/>
	<path d="M 1086.0,1388.0 L 1088.0,1388.0" style="stroke:#010101; fill:none;"/>
	<path d="M 1474.0,1388.0 L 1474.0,1389.0" style="stroke:#010101; fill:none;"/>
	<path d="M 1953.0,1388.0 L 1952.0,1393.0" style="stroke:#010101; fill:none;"/>
	<path d="M 1982.0,1388.0 L 1980.0,1397.0" style="stroke:#010101; fill:none;"/>
	<path d="M 1528.0,1389.0 L 1574.0,1495.0 L 1581.0,1476.0" style="stroke:#010101; fill:none;"/>
	<path d="M 1066.0,1390.0 L 1070.0,1390.0" style="stroke:#010101; fill:none;"/>
	<path d="M 1361.0,1390.0 C 1356.91,1403.94 1337.2,1418.54 1323.0,1421.99 C 1317.01,1423.45 1311.04,1421.91 1305.0,1423.0" style="stroke:#010101; fill:none;"/>
	<path d="M 1994.0,1390.0 L 1986.0,1411.0" style="stroke:#010101; fill:none;"/>
	<path d="M 1026.0,1400.0 L 1066.0,1392.0" style="stroke:#010101; fill:none;"/>
	<path d="M 1475.0,1392.0 L 1496.0,1436.0" style="stroke:#010101; fill:none;"/>
	<path d="M 1319.0,1393.0 L 1319.0,1394.0" style="stroke:#010101; fill:none;"/>
	<path d="M 1226.0,1414.0 C 1219.49,1411.49 1211.93,1416.22 1206.0,1419.0 C 1201.46,1405.14 1220.33,1398.94 1231.0,1396.0" style="stroke:#010101; fill:none;"/>
	<path d="M 1468.0,1396.0 L 1495.0,1451.0" style="stroke:#010101; fill:none;"/>
	<path d="M 1855.0,1398.0 C 1863.0,1402.2 1882.68,1396.99 1892.0,1396.0" style="stroke:#010101; fill:none;"/>
	<path d="M 1352.0,1405.0 C 1351.73,1401.07 1353.52,1399.66 1357.0,1398.0" style="stroke:#010101; fill:none;"/>
	<path d="M 1244.0,1399.0 C 1243.85,1405.2 1242.25,1410.76 1236.0,1413.0" style="stroke:#010101; fill:none;"/>
	<path d="M 1317.0,1399.0 L 1319.0,1400.0" style="stroke:#010101; fill:none;"/>
	<path d="M 1839.0,1399.0 L 1849.0,1400.0" style="stroke:#010101; fill:none;"/>
	<path d="M 1353.0,1400.0 L 1355.0,1402.0" style="stroke:#010101; fill:none;"/>
	<path d="M 1022.0,1401.0 L 1024.0,1401.0" style="stroke:#010101; fill:none;"/>
	<path d="M 1318.0,1401.0 L 1309.0,1413.0 L 1310.0,1410.0" style="stroke:#010101; fill:none;"/>
	<path d="M 1019.0,1402.0 L 1020.0,1402.0" style="stroke:#010101; fill:none;"/>
	<path d="M 1590.0,1402.0 L 1609.0,1423.96 L 1637.0,1453.0" style="stroke:#010101; fill:none;"/>
	<path d="M 1852.0,1402.0 L 1842.0,1410.0" style="stroke:#010101; fill:none;"/>
	<path d="M 1983.0,1402.0 L 1983.0,1403.0" style="stroke:#010101; fill:none;"/>
	<path d="M 1351.0,1404.0 L 1349.0,1406.0" style="stroke:#010101; fill:none;"/>
	<path d="M 847.0,1447.0 L 914.0,1426.88 L 1036.0,1405.0" style="stroke:#010101; fill:none;"/>
	<path d="M 1265.0,1407.0 L 1267.0,1409.0" style="stroke:#010101; fill:none;"/>
	<path d="M 1252.0,1408.0 L 1253.0,1408.0" style="stroke:#010101; fill:none;"/>
	<path d="M 1256.0,1408.0 L 1257.0,1408.0" style="stroke:#010101; fill:none;"/>
	<path d="M 1350.0,1408.0 L 1345.0,1413.0" style="stroke:#010101; fill:none;"/>
	<path d="M 1465.0,1408.0 L 1484.0,1446.0" style="stroke:#010101; fill:none;"/>
	<path d="M 1251.0,1475.0 C 1249.19,1467.41 1248.6,1460.66 1243.95,1454.0 C 1230.25,1434.41 1202.08,1431.64 1181.0,1436.0 L 1182.0,1428.0 L 1178.0,1428.0 C 1179.39,1419.09 1196.92,1411.33 1205.0,1409.0" style="stroke:#010101; fill:none;"/>
	<path d="M 1271.0,1409.0 L 1294.0,1414.0" style="stroke:#010101; fill:none;"/>
	<path d="M 1214.0,1410.0 L 1212.0,1414.0" style="stroke:#010101; fill:none;"/>
	<path d="M 1544.0,1410.0 L 1544.0,1411.0" style="stroke:#010101; fill:none;"/>
	<path d="M 1285.0,1422.0 L 1308.0,1412.0" style="stroke:#010101; fill:none;"/>
	<path d="M 1309.0,1413.0 L 1308.0,1418.0 L 1322.0,1415.0" style="stroke:#010101; fill:none;"/>
	<path d="M 1461.0,1413.0 L 1481.0,1454.0" style="stroke:#010101; fill:none;"/>
	<path d="M 1545.0,1413.0 C 1551.15,1435.5 1564.15,1459.37 1575.0,1480.0" style="stroke:#010101; fill:none;"/>
	<path d="M 1891.0,1413.0 L 1906.0,1413.0" style="stroke:#010101; fill:none;"/>
	<path d="M 1986.0,1414.0 L 1986.0,1415.0" style="stroke:#010101; fill:none;"/>
	<path d="M 1204.0,1418.0 L 1203.0,1424.0 L 1206.0,1419.0" style="stroke:#010101; fill:none;"/>
	<path d="M 1222.0,1418.0 L 1225.0,1421.0" style="stroke:#010101; fill:none;"/>
	<path d="M 1300.0,1418.0 L 1307.0,1419.0" style="stroke:#010101; fill:none;"/>
	<path d="M 863.0,1424.0 L 870.0,1418.0" style="stroke:#010101; fill:none;"/>
	<path d="M 1233.0,1419.0 L 1259.0,1420.0" style="stroke:#010101; fill:none;"/>
	<path d="M 864.0,1420.0 L 865.0,1420.0" style="stroke:#010101; fill:none;"/>
	<path d="M 1302.0,1420.0 L 1296.0,1423.0" style="stroke:#010101; fill:none;"/>
	<path d="M 1307.0,1420.0 L 1306.0,1421.0" style="stroke:#010101; fill:none;"/>
	<path d="M 1182.0,1428.0 L 1201.0,1421.0" style="stroke:#010101; fill:none;"/>
	<path d="M 1202.0,1427.0 L 1200.0,1425.0 L 1221.0,1422.0" style="stroke:#010101; fill:none;"/>
	<path d="M 1122.0,1443.0 L 1131.0,1455.0 L 1177.0,1424.0" style="stroke:#010101; fill:none;"/>
	<path d="M 1311.0,1425.0 L 1313.0,1425.0" style="stroke:#010101; fill:none;"/>
	<path d="M 1562.0,1426.0 L 1562.0,1428.0" style="stroke:#010101; fill:none;"/>
	<path d="M 1200.0,1427.0 L 1195.0,1431.0" style="stroke:#010101; fill:none;"/>
	<path d="M 1178.0,1428.0 L 1175.0,1433.0" style="stroke:#010101; fill:none;"/>
	<path d="M 2122.0,1428.0 C 2112.47,1439.97 2101.25,1447.67 2087.0,1452.0" style="stroke:#010101; fill:none;"/>
	<path d="M 1459.0,1429.0 L 1459.0,1430.0" style="stroke:#010101; fill:none;"/>
	<path d="M 850.0,1430.0 L 832.0,1452.0" style="stroke:#010101; fill:none;"/>
	<path d="M 1563.0,1430.0 L 1577.0,1466.0" style="stroke:#010101; fill:none;"/>
	<path d="M 1167.0,1435.0 L 1175.0,1431.0" style="stroke:#010101; fill:none;"/>
	<path d="M 1461.0,1433.0 L 1461.0,1434.0" style="stroke:#010101; fill:none;"/>
	<path d="M 1878.0,1433.0 C 1885.46,1439.13 1894.98,1441.33 1904.0,1444.33 C 1922.54,1450.51 1941.51,1455.97 1961.0,1457.83 C 1970.54,1458.74 1980.76,1458.24 1990.0,1461.0" style="stroke:#010101; fill:none;"/>
	<path d="M 804.0,1434.0 L 803.0,1435.0" style="stroke:#010101; fill:none;"/>
	<path d="M 1164.0,1436.0 L 1161.0,1438.0" style="stroke:#010101; fill:none;"/>
	<path d="M 801.0,1437.0 L 768.0,1478.0" style="stroke:#010101; fill:none;"/>
	<path d="M 1168.0,1443.0 L 1180.0,1437.0" style="stroke:#010101; fill:none;"/>
	<path d="M 1497.0,1438.0 L 1498.0,1440.0" style="stroke:#010101; fill:none;"/>
	<path d="M 1464.0,1439.0 L 1465.0,1441.0" style="stroke:#010101; fill:none;"/>
	<path d="M 1118.0,1442.0 L 1124.0,1459.0 L 1111.0,1468.0 C 1121.34,1470.16 1130.8,1466.62 1137.0,1458.0 L 1132.0,1454.0" style="stroke:#010101; fill:none;"/>
	<path d="M 1466.0,1443.0 L 1467.0,1445.0" style="stroke:#010101; fill:none;"/>
	<path d="M 1500.0,1443.0 L 1500.0,1444.0" style="stroke:#010101; fill:none;"/>
	<path d="M 1153.0,1450.0 L 1164.0,1445.0" style="stroke:#010101; fill:none;"/>
	<path d="M 1510.0,1445.0 L 1511.0,1446.0" style="stroke:#010101; fill:none;"/>
	<path d="M 1468.0,1447.0 L 1470.0,1451.0" style="stroke:#010101; fill:none;"/>
	<path d="M 1151.0,1451.0 L 1149.0,1452.0" style="stroke:#010101; fill:none;"/>
	<path d="M 2001.0,1462.0 L 2081.0,1452.0" style="stroke:#010101; fill:none;"/>
	<path d="M 1098.0,1454.0 C 1098.02,1461.94 1099.79,1472.16 1110.0,1469.0" style="stroke:#010101; fill:none;"/>
	<path d="M 1137.0,1459.0 L 1147.0,1454.0" style="stroke:#010101; fill:none;"/>
	<path d="M 1472.0,1454.0 L 1472.0,1455.0" style="stroke:#010101; fill:none;"/>
	<path d="M 1130.0,1455.0 L 1125.0,1459.0 L 1124.0,1459.0" style="stroke:#010101; fill:none;"/>
	<path d="M 1639.0,1456.0 L 1639.0,1457.0" style="stroke:#010101; fill:none;"/>
	<path d="M 1143.0,1458.0 L 1144.0,1458.0" style="stroke:#010101; fill:none;"/>
	<path d="M 1354.0,1458.0 L 1341.0,1485.0" style="stroke:#010101; fill:none;"/>
	<path d="M 1583.0,1459.0 L 1585.0,1475.0" style="stroke:#010101; fill:none;"/>
	<path d="M 1129.0,1460.0 L 1134.0,1461.0" style="stroke:#010101; fill:none;"/>
	<path d="M 1993.0,1461.0 L 1994.0,1461.0" style="stroke:#010101; fill:none;"/>
	<path d="M 1996.0,1461.0 L 1998.0,1462.0" style="stroke:#010101; fill:none;"/>
	<path d="M 1194.0,1469.0 C 1192.64,1472.62 1191.28,1476.1 1192.38,1480.0 C 1193.29,1483.22 1196.58,1486.21 1195.08,1489.71 C 1193.66,1493.05 1189.97,1496.31 1187.57,1498.98 C 1181.58,1505.66 1165.61,1509.89 1160.46,1499.98 C 1152.92,1485.48 1166.99,1470.73 1180.0,1467.89 C 1185.03,1466.79 1189.33,1466.75 1194.0,1469.0" style="stroke:#010101; fill:none;"/>
	<path d="M 1124.0,1469.0 C 1119.27,1473.52 1113.46,1480.0 1107.98,1483.44 C 1104.1,1485.87 1099.15,1485.4 1095.0,1488.02 C 1087.76,1492.59 1079.78,1499.1 1071.0,1499.0" style="stroke:#010101; fill:none;"/>
	<path d="M 1862.0,1469.0 C 1871.76,1475.95 1885.34,1481.3 1897.0,1484.0" style="stroke:#010101; fill:none;"/>
	<path d="M 1101.0,1471.0 C 1095.72,1476.45 1084.26,1484.02 1077.0,1486.0 L 1075.0,1479.0" style="stroke:#010101; fill:none;"/>
	<path d="M 1106.0,1471.0 L 1113.0,1477.0" style="stroke:#010101; fill:none;"/>
	<path d="M 1383.0,1472.0 L 1380.0,1485.0" style="stroke:#010101; fill:none;"/>
	<path d="M 1079.0,1475.0 L 1081.0,1476.0" style="stroke:#010101; fill:none;"/>
	<path d="M 1083.0,1477.0 L 1084.0,1477.0" style="stroke:#010101; fill:none;"/>
	<path d="M 1087.0,1477.0 L 1088.0,1477.0" style="stroke:#010101; fill:none;"/>
	<path d="M 1411.0,1477.0 L 1403.0,1487.0" style="stroke:#010101; fill:none;"/>
	<path d="M 1544.0,1480.0 L 1544.0,1481.0" style="stroke:#010101; fill:none;"/>
	<path d="M 1537.0,1481.0 L 1556.0,1518.0" style="stroke:#010101; fill:none;"/>
	<path d="M 1545.0,1483.0 L 1545.0,1484.0" style="stroke:#010101; fill:none;"/>
	<path d="M 1081.0,1485.0 L 1088.0,1487.0" style="stroke:#010101; fill:none;"/>
	<path d="M 1899.0,1485.0 L 1900.0,1485.0" style="stroke:#010101; fill:none;"/>
	<path d="M 1106.0,1486.0 C 1105.79,1496.22 1102.52,1506.34 1108.08,1516.0 C 1112.42,1523.53 1121.16,1527.64 1124.0,1536.0" style="stroke:#010101; fill:none;"/>
	<path d="M 1077.0,1501.0 L 1074.0,1505.0 L 1049.0,1505.0 C 1055.19,1497.53 1067.25,1491.14 1076.0,1487.0" style="stroke:#010101; fill:none;"/>
	<path d="M 1564.0,1488.0 L 1564.0,1490.0" style="stroke:#010101; fill:none;"/>
	<path d="M 1532.0,1489.0 L 1532.0,1490.0" style="stroke:#010101; fill:none;"/>
	<path d="M 1248.0,1490.0 L 1235.0,1516.0" style="stroke:#010101; fill:none;"/>
	<path d="M 1533.0,1492.0 L 1533.0,1494.0" style="stroke:#010101; fill:none;"/>
	<path d="M 1574.0,1495.0 L 1571.0,1504.0" style="stroke:#010101; fill:none;"/>
	<path d="M 1534.0,1496.0 L 1534.0,1497.0" style="stroke:#010101; fill:none;"/>
	<path d="M 1652.0,1496.0 L 1661.0,1543.0" style="stroke:#010101; fill:none;"/>
	<path d="M 1529.0,1497.0 L 1539.0,1527.0 L 1551.0,1524.0" style="stroke:#010101; fill:none;"/>
	<path d="M 1535.0,1500.0 L 1546.0,1524.0" style="stroke:#010101; fill:none;"/>
	<path d="M 1547.0,1504.0 L 1551.0,1521.0" style="stroke:#010101; fill:none;"/>
	<path d="M 1074.0,1505.0 L 1068.0,1518.0 C 1059.85,1514.36 1047.33,1522.07 1039.0,1524.0" style="stroke:#010101; fill:none;"/>
	<path d="M 1524.0,1505.0 C 1524.72,1513.25 1527.63,1530.59 1538.0,1528.0" style="stroke:#010101; fill:none;"/>
	<path d="M 1955.0,1505.0 L 1957.0,1506.0" style="stroke:#010101; fill:none;"/>
	<path d="M 998.0,1561.0 C 1013.79,1543.81 1024.4,1514.13 1048.0,1506.0" style="stroke:#010101; fill:none;"/>
	<path d="M 1959.0,1507.0 L 1961.0,1508.0" style="stroke:#010101; fill:none;"/>
	<path d="M 1045.0,1508.0 L 1062.0,1512.0" style="stroke:#010101; fill:none;"/>
	<path d="M 1964.0,1509.0 L 1966.0,1510.0" style="stroke:#010101; fill:none;"/>
	<path d="M 1968.0,1511.0 L 1969.0,1511.0" style="stroke:#010101; fill:none;"/>
	<path d="M 1064.0,1512.0 L 1065.0,1512.0" style="stroke:#010101; fill:none;"/>
	<path d="M 1517.0,1514.0 L 1518.55,1534.0 L 1498.04,1556.0 L 1465.0,1599.0" style="stroke:#010101; fill:none;"/>
	<path d="M 1508.0,1515.0 L 1512.0,1539.0" style="stroke:#010101; fill:none;"/>
	<path d="M 1564.0,1515.0 L 1560.0,1520.0" style="stroke:#010101; fill:none;"/>
	<path d="M 1303.0,1517.0 C 1309.77,1520.33 1313.66,1520.39 1321.0,1519.0" style="stroke:#010101; fill:none;"/>
	<path d="M 1068.0,1518.0 L 1061.0,1537.0" style="stroke:#010101; fill:none;"/>
	<path d="M 1040.0,1526.0 L 1058.0,1521.0" style="stroke:#010101; fill:none;"/>
	<path d="M 1287.0,1523.0 L 1297.0,1529.0" style="stroke:#010101; fill:none;"/>
	<path d="M 1058.0,1524.0 L 1045.0,1534.0" style="stroke:#010101; fill:none;"/>
	<path d="M 1282.0,1532.0 C 1280.04,1528.66 1280.17,1527.2 1284.0,1526.0" style="stroke:#010101; fill:none;"/>
	<path d="M 992.0,1550.0 C 998.818,1543.18 1009.01,1530.27 1019.0,1529.0" style="stroke:#010101; fill:none;"/>
	<path d="M 1276.0,1528.0 L 1279.0,1528.0" style="stroke:#010101; fill:none;"/>
	<path d="M 1530.0,1528.0 L 1521.0,1534.0" style="stroke:#010101; fill:none;"/>
	<path d="M 1271.0,1529.0 L 1273.0,1529.0" style="stroke:#010101; fill:none;"/>
	<path d="M 1264.0,1530.0 L 1265.0,1530.0" style="stroke:#010101; fill:none;"/>
	<path d="M 1267.0,1530.0 L 1269.0,1530.0" style="stroke:#010101; fill:none;"/>
	<path d="M 1056.0,1532.0 C 1050.56,1538.98 1043.9,1542.92 1035.0,1543.0" style="stroke:#010101; fill:none;"/>
	<path d="M 1256.0,1533.0 C 1261.79,1531.61 1265.04,1535.13 1269.0,1539.0" style="stroke:#010101; fill:none;"/>
	<path d="M 1504.0,1533.0 L 1503.0,1547.0" style="stroke:#010101; fill:none;"/>
	<path d="M 1253.0,1553.0 L 1250.0,1534.0" style="stroke:#010101; fill:none;"/>
	<path d="M 1041.0,1536.0 L 1042.0,1536.0" style="stroke:#010101; fill:none;"/>
	<path d="M 1496.0,1536.0 L 1496.0,1538.0" style="stroke:#010101; fill:none;"/>
	<path d="M 1242.0,1537.0 L 1245.0,1546.0" style="stroke:#010101; fill:none;"/>
	<path d="M 1520.0,1537.0 L 1520.0,1539.0" style="stroke:#010101; fill:none;"/>
	<path d="M 1496.0,1540.0 L 1496.0,1545.0" style="stroke:#010101; fill:none;"/>
	<path d="M 1051.0,1541.0 L 1049.0,1543.0" style="stroke:#010101; fill:none;"/>
	<path d="M 1211.0,1558.0 C 1212.73,1546.94 1218.63,1545.62 1228.0,1544.0" style="stroke:#010101; fill:none;"/>
	<path d="M 1233.0,1543.0 L 1235.0,1547.0" style="stroke:#010101; fill:none;"/>
	<path d="M 1047.0,1546.0 L 1046.0,1547.0" style="stroke:#010101; fill:none;"/>
	<path d="M 1055.0,1546.0 C 1053.57,1551.47 1048.2,1560.45 1042.0,1560.0 L 1046.0,1559.0" style="stroke:#010101; fill:none;"/>
	<path d="M 1662.0,1546.0 L 1662.0,1562.0" style="stroke:#010101; fill:none;"/>
	<path d="M 500.0,1547.0 L 496.0,1553.0" style="stroke:#010101; fill:none;"/>
	<path d="M 1224.0,1547.0 L 1227.0,1551.0" style="stroke:#010101; fill:none;"/>
	<path d="M 1496.0,1547.0 L 1496.0,1548.0" style="stroke:#010101; fill:none;"/>
	<path d="M 1204.0,1548.0 L 1201.0,1569.0" style="stroke:#010101; fill:none;"/>
	<path d="M 1042.0,1550.0 L 1044.0,1549.0" style="stroke:#010101; fill:none;"/>
	<path d="M 1189.0,1550.0 L 1185.0,1569.0" style="stroke:#010101; fill:none;"/>
	<path d="M 1082.0,1552.0 L 1096.0,1556.0 L 1083.0,1564.0" style="stroke:#010101; fill:none;"/>
	<path d="M 1194.0,1554.0 L 1192.0,1565.0" style="stroke:#010101; fill:none;"/>
	<path d="M 916.0,1586.0 L 985.0,1555.0" style="stroke:#010101; fill:none;"/>
	<path d="M 1128.0,1555.0 L 1117.0,1565.0" style="stroke:#010101; fill:none;"/>
	<path d="M 1028.0,1556.0 L 1029.0,1556.0" style="stroke:#010101; fill:none;"/>
	<path d="M 1096.0,1556.0 L 1098.0,1556.0" style="stroke:#010101; fill:none;"/>
	<path d="M 1109.0,1558.0 L 1114.0,1556.0" style="stroke:#010101; fill:none;"/>
	<path d="M 1186.0,1561.0 C 1176.11,1560.95 1160.75,1563.67 1152.0,1559.0 L 1157.0,1556.0" style="stroke:#010101; fill:none;"/>
	<path d="M 1020.0,1557.0 L 1021.0,1557.0" style="stroke:#010101; fill:none;"/>
	<path d="M 1060.0,1564.0 L 1067.0,1557.0" style="stroke:#010101; fill:none;"/>
	<path d="M 1179.0,1558.0 L 1178.0,1559.0" style="stroke:#010101; fill:none;"/>
	<path d="M 1138.0,1559.0 L 1131.0,1567.0" style="stroke:#010101; fill:none;"/>
	<path d="M 1141.0,1572.0 L 1152.0,1559.0" style="stroke:#010101; fill:none;"/>
	<path d="M 1013.0,1564.0 L 1042.0,1560.0" style="stroke:#010101; fill:none;"/>
	<path d="M 1175.0,1561.0 L 1168.0,1576.0" style="stroke:#010101; fill:none;"/>
	<path d="M 1043.0,1562.0 C 1033.67,1569.12 1022.45,1573.63 1011.0,1576.0" style="stroke:#010101; fill:none;"/>
	<path d="M 1167.0,1563.0 C 1162.33,1576.84 1160.0,1589.39 1160.0,1604.0" style="stroke:#010101; fill:none;"/>
	<path d="M 1662.0,1564.0 L 1662.0,1566.0" style="stroke:#010101; fill:none;"/>
	<path d="M 1287.0,1622.0 C 1312.33,1613.5 1335.49,1597.6 1358.0,1583.58 C 1367.33,1577.77 1377.54,1569.33 1388.0,1566.0" style="stroke:#010101; fill:none;"/>
	<path d="M 997.0,1567.0 C 986.798,1583.05 969.601,1595.4 955.0,1607.26 C 946.625,1614.06 937.771,1622.35 928.0,1627.0" style="stroke:#010101; fill:none;"/>
	<path d="M 1662.0,1568.0 L 1662.0,1570.0" style="stroke:#010101; fill:none;"/>
	<path d="M 1054.0,1570.0 L 1049.0,1572.0" style="stroke:#010101; fill:none;"/>
	<path d="M 1662.0,1572.0 L 1662.0,1573.0" style="stroke:#010101; fill:none;"/>
	<path d="M 1049.0,1574.0 L 1044.0,1585.0 C 1042.57,1579.84 1043.42,1575.98 1048.0,1573.0" style="stroke:#010101; fill:none;"/>
	<path d="M 506.0,1575.0 L 502.0,1579.0" style="stroke:#010101; fill:none;"/>
	<path d="M 1028.0,1595.0 C 1033.43,1588.27 1034.46,1579.98 1043.0,1576.0" style="stroke:#010101; fill:none;"/>
	<path d="M 1662.0,1576.0 L 1662.0,1577.0" style="stroke:#010101; fill:none;"/>
	<path d="M 1007.0,1577.0 L 1009.0,1577.0" style="stroke:#010101; fill:none;"/>
	<path d="M 500.0,1582.0 L 499.0,1583.0" style="stroke:#010101; fill:none;"/>
	<path d="M 1045.0,1587.0 L 1045.0,1592.0" style="stroke:#010101; fill:none;"/>
	<path d="M 1016.0,1614.0 C 1016.07,1605.32 1017.34,1595.17 1024.0,1589.0" style="stroke:#010101; fill:none;"/>
	<path d="M 512.0,1594.0 L 491.0,1627.0" style="stroke:#010101; fill:none;"/>
	<path d="M 809.0,1610.0 C 837.478,1619.26 872.52,1607.01 899.0,1596.0" style="stroke:#010101; fill:none;"/>
	<path d="M 1044.0,1596.0 L 1044.0,1597.0" style="stroke:#010101; fill:none;"/>
	<path d="M 1045.0,1599.0 L 1045.0,1600.0" style="stroke:#010101; fill:none;"/>
	<path d="M 1464.0,1601.0 L 1463.0,1602.0" style="stroke:#010101; fill:none;"/>
	<path d="M 510.0,1627.0 L 505.0,1633.0" style="stroke:#010101; fill:none;"/>
	<path d="M 1116.0,1646.0 L 1186.0,1629.0" style="stroke:#010101; fill:none;"/>
	<path d="M 511.0,1630.0 L 512.0,1632.0" style="stroke:#010101; fill:none;"/>
	<path d="M 513.0,1634.0 L 513.0,1636.0" style="stroke:#010101; fill:none;"/>
	<path d="M 514.0,1638.0 L 514.0,1639.0" style="stroke:#010101; fill:none;"/>
	<path d="M 1007.0,1641.0 L 1078.0,1647.0" style="stroke:#010101; fill:none;"/>
	<path d="M 959.0,1646.0 L 982.0,1642.0" style="stroke:#010101; fill:none;"/>
	<path d="M 956.0,1736.0 L 1005.0,1701.14 L 1026.09,1684.89 L 1057.0,1680.58 L 1140.0,1666.73 L 1241.0,1642.0" style="stroke:#010101; fill:none;"/>
	<path d="M 514.0,1643.0 L 514.0,1644.0" style="stroke:#010101; fill:none;"/>
	<path d="M 1082.0,1648.0 L 1083.0,1648.0" style="stroke:#010101; fill:none;"/>
	<path d="M 1658.0,1677.0 C 1650.64,1735.26 1646.47,1794.66 1654.0,1853.0" style="stroke:#010101; fill:none;"/>
	<path d="M 471.0,1722.0 L 470.0,1723.0" style="stroke:#010101; fill:none;"/>
	<path d="M 468.0,1725.0 L 467.0,1726.0" style="stroke:#010101; fill:none;"/>
	<path d="M 184.0,1727.0 L 185.0,1727.0" style="stroke:#010101; fill:none;"/>
	<path d="M 460.0,1732.0 L 461.0,1732.0" style="stroke:#010101; fill:none;"/>
	<path d="M 2323.0,1741.0 C 2328.43,1761.98 2326.55,1785.6 2325.09,1807.0 C 2322.85,1839.76 2320.34,1872.26 2317.17,1905.0 C 2313.17,1946.33 2310.41,1987.84 2305.29,2029.0 C 2303.76,2041.29 2303.97,2053.92 2301.0,2066.0" style="stroke:#010101; fill:none;"/>
	<path d="M 120.0,1744.0 L 118.0,1748.0" style="stroke:#010101; fill:none;"/>
	<path d="M 116.0,1747.0 L 111.0,1754.0" style="stroke:#010101; fill:none;"/>
	<path d="M 244.0,1748.0 L 294.0,1784.0" style="stroke:#010101; fill:none;"/>
	<path d="M 2044.0,1774.0 L 2045.0,1779.0 L 2048.0,1776.0" style="stroke:#010101; fill:none;"/>
	<path d="M 2045.0,1779.0 L 2053.0,1811.0" style="stroke:#010101; fill:none;"/>
	<path d="M 140.0,1789.0 C 148.497,1786.12 156.302,1787.9 165.0,1788.0 C 177.014,1788.13 191.773,1787.74 203.0,1792.46 C 224.832,1801.66 234.679,1829.11 241.667,1850.0 C 256.57,1894.55 265.896,1942.88 274.54,1989.0 C 278.814,2011.8 279.649,2034.93 287.695,2057.0 C 290.559,2064.85 295.936,2070.91 300.135,2078.0 C 305.822,2087.61 310.271,2097.87 316.782,2107.0 C 326.629,2120.81 339.731,2134.78 353.0,2145.33 C 361.562,2152.14 371.555,2156.66 379.999,2163.62 C 392.719,2174.1 402.808,2189.55 408.308,2205.0 C 412.994,2218.17 417.702,2234.49 412.0,2248.0" style="stroke:#010101; fill:none;"/>
	<path d="M 296.0,1787.0 L 297.0,1788.0" style="stroke:#010101; fill:none;"/>
	<path d="M 305.0,1797.0 C 310.256,1819.18 325.123,1837.41 327.0,1861.0" style="stroke:#010101; fill:none;"/>
	<path d="M 1585.0,1808.0 C 1570.53,1824.98 1559.13,1848.82 1552.34,1870.0 C 1549.67,1878.34 1546.44,1888.35 1549.0,1897.0" style="stroke:#010101; fill:none;"/>
	<path d="M 2051.0,1834.0 L 2051.0,1835.0" style="stroke:#010101; fill:none;"/>
	<path d="M 2050.0,1837.0 L 2049.0,1839.0" style="stroke:#010101; fill:none;"/>
	<path d="M 1476.0,2000.0 C 1492.33,1960.19 1510.39,1920.92 1528.7,1882.0 C 1533.88,1870.98 1540.21,1847.05 1552.0,1842.0" style="stroke:#010101; fill:none;"/>
	<path d="M 2048.0,1842.0 L 2047.0,1844.0" style="stroke:#010101; fill:none;"/>
	<path d="M 2042.0,1854.0 L 2041.0,1855.0" style="stroke:#010101; fill:none;"/>
	<path d="M 1655.0,1855.0 L 1655.0,1856.0" style="stroke:#010101; fill:none;"/>
	<path d="M 2039.0,1859.0 L 2038.0,1860.0" style="stroke:#010101; fill:none;"/>
	<path d="M 2036.0,1864.0 L 2035.0,1865.0" style="stroke:#010101; fill:none;"/>
	<path d="M 407.0,1865.0 L 417.0,1876.0" style="stroke:#010101; fill:none;"/>
	<path d="M 449.0,1884.0 C 463.126,1895.73 479.333,1910.21 496.0,1918.0" style="stroke:#010101; fill:none;"/>
	<path d="M 1666.0,1884.0 C 1685.88,1922.31 1748.51,1918.78 1784.0,1914.0" style="stroke:#010101; fill:none;"/>
	<path d="M 371.0,1896.0 C 389.975,1907.04 409.758,1916.51 424.907,1933.0 C 436.724,1945.87 446.258,1968.9 449.539,1986.0 C 453.072,2004.41 446.976,2026.13 453.603,2044.0 C 457.256,2053.85 472.073,2057.03 475.0,2067.0 C 503.303,2071.27 511.376,2103.04 499.61,2125.0 C 496.139,2131.48 484.572,2139.28 483.256,2146.05 C 482.232,2151.33 489.065,2153.7 493.0,2154.0" style="stroke:#010101; fill:none;"/>
	<path d="M 2079.0,1900.0 C 2074.52,1908.51 2069.68,1918.99 2062.0,1925.0" style="stroke:#010101; fill:none;"/>
	<path d="M 2063.0,1905.0 C 2040.88,1934.76 2017.2,1969.31 1980.0,1982.0" style="stroke:#010101; fill:none;"/>
	<path d="M 1933.0,2003.0 C 1932.32,1993.74 1957.03,1985.46 1964.0,1981.19 C 1985.14,1968.24 2005.81,1952.77 2024.0,1935.91 C 2036.81,1924.03 2042.54,1910.91 2060.0,1906.0" style="stroke:#010101; fill:none;"/>
	<path d="M 1544.0,1908.0 C 1532.56,1954.44 1537.12,2002.87 1580.0,2031.33 C 1589.51,2037.64 1599.2,2042.32 1610.0,2046.0 C 1623.09,2050.45 1635.23,2052.81 1649.0,2051.0" style="stroke:#010101; fill:none;"/>
	<path d="M 2120.0,1937.0 L 2121.0,1938.0" style="stroke:#010101; fill:none;"/>
	<path d="M 2130.0,1948.0 L 2155.0,1976.0" style="stroke:#010101; fill:none;"/>
	<path d="M 2157.0,1978.0 L 2158.0,1979.0" style="stroke:#010101; fill:none;"/>
	<path d="M 1979.0,2002.0 C 1985.08,1995.34 1989.88,1983.57 1999.0,1981.0" style="stroke:#010101; fill:none;"/>
	<path d="M 1796.0,1991.0 C 1770.1,2001.57 1739.91,2007.84 1712.0,2005.17 C 1702.37,2004.25 1691.89,2004.32 1684.0,1998.0 C 1700.3,1986.86 1722.04,1985.21 1741.0,1983.91 C 1777.48,1981.41 1819.59,1977.64 1855.0,1989.0" style="stroke:#010101; fill:none;"/>
	<path d="M 1655.0,2008.0 L 1684.0,1998.0" style="stroke:#010101; fill:none;"/>
	<path d="M 1873.0,2043.0 L 1898.21,2016.65 L 1931.0,2001.0" style="stroke:#010101; fill:none;"/>
	<path d="M 1987.0,2001.0 L 1991.0,2070.0" style="stroke:#010101; fill:none;"/>
	<path d="M 1475.0,2002.0 L 1474.0,2005.0" style="stroke:#010101; fill:none;"/>
	<path d="M 1907.0,2010.0 L 1917.0,2003.0" style="stroke:#010101; fill:none;"/>
	<path d="M 1930.0,2006.0 L 1929.0,2007.0" style="stroke:#010101; fill:none;"/>
	<path d="M 1927.0,2009.0 L 1926.0,2010.0" style="stroke:#010101; fill:none;"/>
	<path d="M 1924.0,2012.0 L 1922.0,2013.0" style="stroke:#010101; fill:none;"/>
	<path d="M 1915.0,2015.0 C 1900.11,2028.0 1888.3,2042.18 1878.0,2059.0" style="stroke:#010101; fill:none;"/>
	<path d="M 1920.0,2015.0 L 1919.0,2016.0" style="stroke:#010101; fill:none;"/>
	<path d="M 1850.0,2032.0 L 1896.0,2018.0" style="stroke:#010101; fill:none;"/>
	<path d="M 1918.0,2026.0 L 1917.0,2027.0" style="stroke:#010101; fill:none;"/>
	<path d="M 1915.0,2029.0 C 1902.47,2038.55 1885.59,2053.4 1881.0,2069.0" style="stroke:#010101; fill:none;"/>
	<path d="M 1908.0,2044.0 L 1889.0,2076.0" style="stroke:#010101; fill:none;"/>
	<path d="M 1869.0,2046.0 L 1870.0,2046.0" style="stroke:#010101; fill:none;"/>
	<path d="M 465.0,2059.0 C 460.716,2076.99 464.955,2097.55 463.17,2116.0 C 462.708,2120.77 463.951,2131.87 460.397,2135.4 C 457.953,2137.82 453.959,2136.45 451.0,2136.17 C 442.737,2135.39 433.354,2136.93 426.039,2132.03 C 417.199,2126.11 413.962,2114.31 405.996,2107.29 C 396.009,2098.49 385.47,2087.77 374.0,2081.02 C 363.56,2074.88 350.921,2071.41 340.0,2066.0" style="stroke:#010101; fill:none;"/>
	<path d="M 2299.0,2063.0 C 2298.87,2109.21 2284.22,2154.23 2281.09,2200.0 C 2275.74,2278.19 2278.4,2356.62 2274.96,2435.0 C 2274.37,2448.39 2270.5,2461.68 2269.17,2475.0 C 2267.16,2495.14 2266.6,2515.77 2265.0,2536.0" style="stroke:#010101; fill:none;"/>
	<path d="M 1907.0,2064.0 L 1892.0,2085.0" style="stroke:#010101; fill:none;"/>
	<path d="M 2214.0,2065.0 L 2245.0,2115.0" style="stroke:#010101; fill:none;"/>
	<path d="M 474.0,2068.0 C 474.0,2085.55 472.583,2103.54 470.831,2121.0 C 470.14,2127.88 470.384,2136.36 462.0,2137.0" style="stroke:#010101; fill:none;"/>
	<path d="M 481.0,2072.0 C 479.703,2088.44 471.831,2113.96 480.0,2129.0 L 481.812,2113.0 L 487.0,2080.0" style="stroke:#010101; fill:none;"/>
	<path d="M 1930.0,2091.0 L 1947.0,2078.0" style="stroke:#010101; fill:none;"/>
	<path d="M 1905.0,2081.0 L 1905.0,2082.0" style="stroke:#010101; fill:none;"/>
	<path d="M 1863.0,2082.0 L 1863.71,2132.0 L 1852.0,2212.0" style="stroke:#010101; fill:none;"/>
	<path d="M 271.0,2084.0 L 271.0,2085.0" style="stroke:#010101; fill:none;"/>
	<path d="M 499.0,2084.0 L 487.424,2125.0 L 485.0,2142.0" style="stroke:#010101; fill:none;"/>
	<path d="M 1904.0,2084.0 L 1897.0,2106.0" style="stroke:#010101; fill:none;"/>
	<path d="M 491.0,2086.0 C 489.622,2096.23 488.175,2110.03 483.0,2119.0" style="stroke:#010101; fill:none;"/>
	<path d="M 1961.0,2086.0 L 1929.0,2114.0" style="stroke:#010101; fill:none;"/>
	<path d="M 275.0,2091.0 L 275.0,2092.0" style="stroke:#010101; fill:none;"/>
	<path d="M 503.0,2091.0 C 496.802,2100.35 492.514,2120.75 492.0,2132.0" style="stroke:#010101; fill:none;"/>
	<path d="M 277.0,2094.0 L 277.0,2096.0" style="stroke:#010101; fill:none;"/>
	<path d="M 279.0,2098.0 L 279.0,2099.0" style="stroke:#010101; fill:none;"/>
	<path d="M 1966.0,2101.0 L 1927.0,2139.0" style="stroke:#010101; fill:none;"/>
	<path d="M 287.0,2116.0 L 287.0,2117.0" style="stroke:#010101; fill:none;"/>
	<path d="M 482.0,2118.0 L 482.0,2124.0" style="stroke:#010101; fill:none;"/>
	<path d="M 478.0,2120.0 L 480.0,2120.0" style="stroke:#010101; fill:none;"/>
	<path d="M 1964.0,2123.0 L 1965.0,2123.0" style="stroke:#010101; fill:none;"/>
	<path d="M 290.0,2124.0 L 290.0,2125.0" style="stroke:#010101; fill:none;"/>
	<path d="M 1930.0,2156.0 C 1937.93,2143.97 1947.4,2129.95 1961.0,2124.0" style="stroke:#010101; fill:none;"/>
	<path d="M 476.0,2126.0 L 474.0,2139.0 L 468.0,2137.0" style="stroke:#010101; fill:none;"/>
	<path d="M 480.0,2129.0 L 479.0,2135.0" style="stroke:#010101; fill:none;"/>
	<path d="M 474.0,2139.0 L 482.0,2146.0" style="stroke:#010101; fill:none;"/>
	<path d="M 1967.0,2142.0 L 1963.0,2146.0" style="stroke:#010101; fill:none;"/>
	<path d="M 1972.0,2147.0 L 1971.0,2148.0" style="stroke:#010101; fill:none;"/>
	<path d="M 1313.0,2350.0 C 1329.8,2300.35 1367.45,2257.02 1393.58,2212.0 C 1401.56,2198.24 1409.8,2184.63 1418.0,2171.0 C 1422.79,2163.03 1427.4,2153.6 1435.0,2148.0" style="stroke:#010101; fill:none;"/>
	<path d="M 1960.0,2149.0 L 1937.0,2172.0" style="stroke:#010101; fill:none;"/>
	<path d="M 1968.0,2150.0 L 1930.0,2191.0" style="stroke:#010101; fill:none;"/>
	<path d="M 1970.0,2165.0 L 1966.0,2168.0" style="stroke:#010101; fill:none;"/>
	<path d="M 1977.0,2168.0 L 1979.0,2167.0" style="stroke:#010101; fill:none;"/>
	<path d="M 1975.0,2169.0 L 1941.0,2208.0" style="stroke:#010101; fill:none;"/>
	<path d="M 1964.0,2170.0 L 1935.0,2200.0" style="stroke:#010101; fill:none;"/>
	<path d="M 1977.0,2182.0 L 1944.0,2224.0" style="stroke:#010101; fill:none;"/>
	<path d="M 2062.0,2189.0 L 2063.0,2189.0" style="stroke:#010101; fill:none;"/>
	<path d="M 2024.0,2210.0 C 2033.81,2202.52 2047.1,2194.43 2059.0,2191.0" style="stroke:#010101; fill:none;"/>
	<path d="M 2091.0,2195.0 L 2069.0,2210.0" style="stroke:#010101; fill:none;"/>
	<path d="M 2052.0,2210.0 L 2078.0,2196.0" style="stroke:#010101; fill:none;"/>
	<path d="M 1991.0,2198.0 C 1984.32,2218.49 1970.03,2236.94 1956.0,2253.0" style="stroke:#010101; fill:none;"/>
	<path d="M 2097.0,2200.0 L 2095.0,2201.0" style="stroke:#010101; fill:none;"/>
	<path d="M 1994.0,2201.0 C 1999.95,2205.87 2011.54,2206.0 2019.0,2206.0" style="stroke:#010101; fill:none;"/>
	<path d="M 2112.0,2204.0 L 2114.0,2202.0" style="stroke:#010101; fill:none;"/>
	<path d="M 1971.0,2203.0 L 1951.0,2231.0" style="stroke:#010101; fill:none;"/>
	<path d="M 2021.0,2206.0 L 2022.0,2206.0" style="stroke:#010101; fill:none;"/>
	<path d="M 1854.0,2215.0 L 1856.0,2220.0" style="stroke:#010101; fill:none;"/>
	<path d="M 1857.0,2222.0 L 1871.0,2247.0" style="stroke:#010101; fill:none;"/>
	<path d="M 1526.0,2223.0 L 1520.0,2227.0" style="stroke:#010101; fill:none;"/>
	<path d="M 2178.0,2223.0 C 2182.03,2227.62 2185.51,2233.56 2191.0,2236.58 C 2197.62,2240.23 2205.26,2238.24 2209.0,2246.0" style="stroke:#010101; fill:none;"/>
	<path d="M 593.0,2355.0 C 596.389,2349.24 602.396,2346.5 606.034,2341.0 C 613.26,2330.06 616.132,2312.88 617.714,2300.0 C 619.247,2287.51 619.695,2273.59 619.455,2261.0 C 619.333,2254.57 616.968,2250.3 620.0,2244.0 C 629.985,2254.29 635.374,2273.22 642.025,2286.0 C 662.085,2324.54 678.275,2365.4 696.174,2405.0 C 720.392,2458.57 746.696,2511.3 779.835,2560.0 C 787.937,2571.91 799.473,2580.51 807.975,2592.0 C 821.86,2610.77 834.455,2630.63 850.17,2648.0 C 866.501,2666.05 885.779,2681.78 903.0,2699.0 C 944.149,2740.15 986.792,2782.56 1038.0,2811.14 C 1068.15,2827.97 1100.93,2833.21 1134.0,2841.37 C 1179.79,2852.68 1225.38,2864.89 1271.0,2876.88 C 1340.99,2895.29 1411.12,2911.33 1482.0,2926.0 C 1507.16,2931.21 1532.54,2939.36 1558.0,2942.71 C 1609.95,2949.55 1661.75,2951.75 1714.0,2954.04 C 1740.23,2955.19 1766.69,2958.6 1793.0,2957.99 C 1826.88,2957.2 1859.77,2951.73 1893.0,2945.46 C 1903.56,2943.47 1914.56,2943.49 1925.0,2941.0" style="stroke:#010101; fill:none;"/>
	<path d="M 1491.0,2426.0 C 1491.63,2416.74 1497.62,2405.76 1508.0,2404.15 C 1524.06,2401.66 1541.56,2407.39 1558.0,2405.83 C 1589.28,2402.85 1618.48,2392.68 1649.0,2385.88 C 1705.37,2373.32 1763.52,2365.03 1821.0,2361.09 C 1839.84,2359.8 1858.17,2361.55 1877.0,2362.01 C 1884.25,2362.19 1891.75,2364.14 1899.0,2362.61 C 1927.33,2356.62 1947.24,2336.28 1972.0,2323.32 C 1990.65,2313.56 2011.97,2311.47 2031.0,2302.62 C 2043.88,2296.64 2055.62,2288.48 2069.0,2283.53 C 2092.63,2274.78 2116.95,2269.46 2140.0,2259.0 C 2157.4,2251.1 2182.08,2238.59 2201.0,2247.0" style="stroke:#010101; fill:none;"/>
	<path d="M 1808.0,2321.0 C 1830.22,2316.41 1851.24,2311.65 1874.0,2310.09 C 1903.81,2308.05 1935.96,2310.36 1965.0,2302.22 C 1990.45,2295.08 2006.88,2270.37 2030.0,2258.81 C 2051.62,2248.0 2078.03,2243.45 2102.0,2245.09 C 2112.47,2245.81 2122.52,2249.17 2133.0,2250.0" style="stroke:#010101; fill:none;"/>
	<path d="M 1892.0,2248.0 C 1909.29,2260.77 1926.58,2251.08 1945.0,2259.0" style="stroke:#010101; fill:none;"/>
	<path d="M 1263.0,2249.0 L 1248.0,2259.0" style="stroke:#010101; fill:none;"/>
	<path d="M 2207.0,2251.0 C 2207.0,2266.44 2205.26,2275.71 2194.0,2287.0" style="stroke:#010101; fill:none;"/>
	<path d="M 1301.0,2253.0 L 1302.0,2253.0" style="stroke:#010101; fill:none;"/>
	<path d="M 1275.0,2278.0 C 1281.06,2269.14 1289.03,2260.93 1298.0,2255.0" style="stroke:#010101; fill:none;"/>
	<path d="M 619.0,2258.0 L 619.0,2263.0" style="stroke:#010101; fill:none;"/>
	<path d="M 1225.0,2275.0 L 1219.0,2280.0" style="stroke:#010101; fill:none;"/>
	<path d="M 1216.0,2282.0 L 1217.0,2282.0" style="stroke:#010101; fill:none;"/>
	<path d="M 1611.0,2297.0 L 1623.0,2287.0" style="stroke:#010101; fill:none;"/>
	<path d="M 1655.0,2292.0 L 1648.0,2304.0" style="stroke:#010101; fill:none;"/>
	<path d="M 1626.0,2302.0 L 1636.0,2293.0" style="stroke:#010101; fill:none;"/>
	<path d="M 1549.0,2300.0 L 1525.0,2317.0" style="stroke:#010101; fill:none;"/>
	<path d="M 1540.0,2337.0 C 1547.42,2326.99 1554.0,2321.38 1566.0,2318.0" style="stroke:#010101; fill:none;"/>
	<path d="M 1793.0,2326.0 L 1806.0,2322.0" style="stroke:#010101; fill:none;"/>
	<path d="M 2128.0,2325.0 C 2121.82,2334.37 2117.44,2344.82 2110.96,2354.0 C 2085.11,2390.59 2049.78,2428.01 2011.0,2450.99 C 1985.77,2465.93 1955.23,2473.73 1928.0,2484.0" style="stroke:#010101; fill:none;"/>
	<path d="M 1384.0,2348.0 L 1409.0,2327.0" style="stroke:#010101; fill:none;"/>
	<path d="M 1790.0,2327.0 L 1791.0,2327.0" style="stroke:#010101; fill:none;"/>
	<path d="M 1782.0,2330.0 L 1788.0,2328.0" style="stroke:#010101; fill:none;"/>
	<path d="M 1650.0,2356.0 C 1693.44,2355.1 1738.6,2342.81 1780.0,2331.0" style="stroke:#010101; fill:none;"/>
	<path d="M 1222.0,2332.0 L 1193.0,2358.0" style="stroke:#010101; fill:none;"/>
	<path d="M 1233.0,2340.0 L 1203.0,2366.0" style="stroke:#010101; fill:none;"/>
	<path d="M 1545.0,2365.0 L 1568.0,2342.0" style="stroke:#010101; fill:none;"/>
	<path d="M 1209.0,2375.0 L 1245.0,2348.0" style="stroke:#010101; fill:none;"/>
	<path d="M 1312.0,2353.0 L 1312.0,2354.0" style="stroke:#010101; fill:none;"/>
	<path d="M 1609.0,2354.0 L 1594.0,2370.0" style="stroke:#010101; fill:none;"/>
	<path d="M 589.0,2355.0 L 587.0,2356.0" style="stroke:#010101; fill:none;"/>
	<path d="M 1311.0,2357.0 C 1304.85,2371.29 1305.22,2386.94 1306.83,2402.0 C 1307.8,2411.05 1306.66,2421.28 1309.17,2430.0 C 1310.98,2436.28 1315.86,2440.55 1319.17,2446.0 C 1325.55,2456.49 1330.63,2467.83 1339.0,2477.0" style="stroke:#010101; fill:none;"/>
	<path d="M 1394.0,2370.0 L 1408.0,2359.0" style="stroke:#010101; fill:none;"/>
	<path d="M 1429.0,2359.0 L 1420.0,2373.0" style="stroke:#010101; fill:none;"/>
	<path d="M 591.0,2361.0 L 589.0,2363.0" style="stroke:#010101; fill:none;"/>
	<path d="M 1218.0,2386.0 L 1236.0,2374.0" style="stroke:#010101; fill:none;"/>
	<path d="M 2098.0,2430.0 L 2104.0,2432.0" style="stroke:#010101; fill:none;"/>
	<path d="M 1551.0,2436.0 C 1601.74,2457.13 1647.82,2483.93 1702.0,2496.35 C 1772.3,2512.46 1843.68,2501.31 1913.0,2487.0" style="stroke:#010101; fill:none;"/>
	<path d="M 2082.0,2450.0 L 2082.0,2452.0" style="stroke:#010101; fill:none;"/>
	<path d="M 2047.0,2469.0 L 2046.0,2483.0" style="stroke:#010101; fill:none;"/>
	<path d="M 1096.0,2492.0 L 1116.0,2476.0" style="stroke:#010101; fill:none;"/>
	<path d="M 1163.0,2476.0 L 1134.0,2501.0" style="stroke:#010101; fill:none;"/>
	<path d="M 2033.0,2481.0 L 2031.0,2488.0" style="stroke:#010101; fill:none;"/>
	<path d="M 1232.0,2489.0 L 1241.0,2485.0" style="stroke:#010101; fill:none;"/>
	<path d="M 2001.0,2485.0 L 2000.0,2497.0" style="stroke:#010101; fill:none;"/>
	<path d="M 2118.0,2494.0 L 2122.0,2493.0" style="stroke:#010101; fill:none;"/>
	<path d="M 1352.0,2497.0 L 1358.0,2505.0" style="stroke:#010101; fill:none;"/>
	<path d="M 1422.0,2531.0 L 1440.0,2512.0" style="stroke:#010101; fill:none;"/>
	<path d="M 2154.0,2514.0 L 2142.0,2533.0" style="stroke:#010101; fill:none;"/>
	<path d="M 2071.0,2518.0 L 2072.0,2521.0" style="stroke:#010101; fill:none;"/>
	<path d="M 2075.0,2529.0 L 2076.0,2529.0" style="stroke:#010101; fill:none;"/>
	<path d="M 2167.0,2529.0 C 2167.61,2536.63 2163.6,2540.35 2159.0,2546.0" style="stroke:#010101; fill:none;"/>
	<path d="M 2046.0,2537.0 L 2073.0,2530.0" style="stroke:#010101; fill:none;"/>
	<path d="M 1293.0,2532.0 L 1291.0,2534.0" style="stroke:#010101; fill:none;"/>
	<path d="M 1451.0,2533.0 L 1438.0,2546.0" style="stroke:#010101; fill:none;"/>
	<path d="M 1290.0,2536.0 L 1288.0,2538.0" style="stroke:#010101; fill:none;"/>
	<path d="M 1852.0,2536.0 L 1841.0,2561.0" style="stroke:#010101; fill:none;"/>
	<path d="M 2194.0,2544.0 L 2190.0,2550.0" style="stroke:#010101; fill:none;"/>
	<path d="M 1838.0,2547.0 L 1833.0,2557.0" style="stroke:#010101; fill:none;"/>
	<path d="M 2016.0,2547.0 L 2017.0,2547.0" style="stroke:#010101; fill:none;"/>
	<path d="M 2012.0,2548.0 L 2014.0,2548.0" style="stroke:#010101; fill:none;"/>
	<path d="M 1468.0,2549.0 L 1460.0,2558.0" style="stroke:#010101; fill:none;"/>
	<path d="M 1865.0,2605.0 L 1942.0,2572.42 L 2010.0,2549.0" style="stroke:#010101; fill:none;"/>
	<path d="M 1815.0,2553.0 L 1809.0,2565.0" style="stroke:#010101; fill:none;"/>
	<path d="M 1805.0,2555.0 L 1796.0,2571.0" style="stroke:#010101; fill:none;"/>
	<path d="M 1191.0,2560.0 L 1196.0,2559.0" style="stroke:#010101; fill:none;"/>
	<path d="M 1784.0,2576.0 L 1794.0,2560.0" style="stroke:#010101; fill:none;"/>
	<path d="M 1189.0,2561.0 L 1162.0,2581.0" style="stroke:#010101; fill:none;"/>
	<path d="M 2260.0,2563.0 C 2255.97,2579.88 2256.82,2597.87 2254.71,2615.0 C 2250.48,2649.49 2242.32,2685.42 2227.51,2717.0 C 2222.28,2728.15 2215.09,2738.41 2208.86,2749.0 C 2205.99,2753.88 2203.45,2759.81 2197.0,2758.0 L 2194.0,2766.0 C 2188.21,2769.1 2180.76,2777.31 2184.0,2784.0 L 2194.0,2767.0" style="stroke:#010101; fill:none;"/>
	<path d="M 1297.0,2576.0 L 1292.0,2589.0" style="stroke:#010101; fill:none;"/>
	<path d="M 1194.0,2585.0 L 1167.0,2608.0" style="stroke:#010101; fill:none;"/>
	<path d="M 1203.0,2595.0 L 1204.0,2595.0" style="stroke:#010101; fill:none;"/>
	<path d="M 1200.0,2597.0 L 1201.0,2597.0" style="stroke:#010101; fill:none;"/>
	<path d="M 1175.0,2613.0 L 1198.0,2599.0" style="stroke:#010101; fill:none;"/>
	<path d="M 1863.0,2606.0 L 1859.0,2609.0" style="stroke:#010101; fill:none;"/>
	<path d="M 1856.0,2610.0 L 1849.0,2615.0" style="stroke:#010101; fill:none;"/>
	<path d="M 1330.0,2611.0 L 1323.0,2627.0" style="stroke:#010101; fill:none;"/>
	<path d="M 1362.0,2636.0 L 1359.0,2641.0" style="stroke:#010101; fill:none;"/>
	<path d="M 1358.0,2643.0 L 1357.0,2644.0" style="stroke:#010101; fill:none;"/>
	<path d="M 1728.0,2653.0 L 1757.0,2650.0" style="stroke:#010101; fill:none;"/>
	<path d="M 678.0,2656.0 L 680.0,2664.0" style="stroke:#010101; fill:none;"/>
	<path d="M 1747.0,2668.0 L 1758.0,2664.0" style="stroke:#010101; fill:none;"/>
	<path d="M 680.0,2666.0 L 680.0,2667.0" style="stroke:#010101; fill:none;"/>
	<path d="M 682.0,2673.0 L 735.0,2696.25 L 873.0,2765.26 L 946.0,2806.64 L 1019.0,2838.4 L 1058.0,2856.0" style="stroke:#010101; fill:none;"/>
	<path d="M 1763.0,2680.0 L 1764.0,2680.0" style="stroke:#010101; fill:none;"/>
	<path d="M 1759.0,2682.0 L 1760.0,2682.0" style="stroke:#010101; fill:none;"/>
	<path d="M 1756.0,2683.0 L 1757.0,2683.0" style="stroke:#010101; fill:none;"/>
	<path d="M 1699.0,2692.0 L 1700.0,2692.0" style="stroke:#010101; fill:none;"/>
	<path d="M 1681.0,2705.0 L 1696.0,2693.0" style="stroke:#010101; fill:none;"/>
	<path d="M 1706.0,2711.0 L 1692.0,2724.0" style="stroke:#010101; fill:none;"/>
	<path d="M 1289.0,2722.0 L 1298.0,2713.0" style="stroke:#010101; fill:none;"/>
	<path d="M 1331.0,2724.0 L 1329.0,2729.0" style="stroke:#010101; fill:none;"/>
	<path d="M 1358.0,2729.0 L 1357.0,2735.0" style="stroke:#010101; fill:none;"/>
	<path d="M 1380.0,2731.0 L 1373.0,2739.0" style="stroke:#010101; fill:none;"/>
	<path d="M 2041.0,2741.0 L 2047.0,2773.0" style="stroke:#010101; fill:none;"/>
	<path d="M 1690.0,2747.0 L 1675.0,2761.0" style="stroke:#010101; fill:none;"/>
	<path d="M 1596.0,2760.0 L 1607.0,2753.0" style="stroke:#010101; fill:none;"/>
	<path d="M 2002.0,2756.0 L 2008.0,2782.0" style="stroke:#010101; fill:none;"/>
	<path d="M 2198.0,2757.0 L 2199.0,2758.0" style="stroke:#010101; fill:none;"/>
	<path d="M 1066.0,2760.0 L 1075.0,2758.0" style="stroke:#010101; fill:none;"/>
	<path d="M 2196.0,2760.0 L 2194.0,2762.0" style="stroke:#010101; fill:none;"/>
	<path d="M 2200.0,2761.0 L 2195.0,2768.0" style="stroke:#010101; fill:none;"/>
	<path d="M 1986.0,2765.0 L 1987.0,2789.0" style="stroke:#010101; fill:none;"/>
	<path d="M 2191.0,2768.0 L 2193.0,2770.0" style="stroke:#010101; fill:none;"/>
	<path d="M 1582.0,2803.0 L 1613.0,2774.0" style="stroke:#010101; fill:none;"/>
	<path d="M 1769.0,2776.0 L 1755.0,2798.0" style="stroke:#010101; fill:none;"/>
	<path d="M 1685.0,2780.0 L 1674.0,2793.0" style="stroke:#010101; fill:none;"/>
	<path d="M 2180.0,2783.0 L 2180.0,2786.0 L 2184.0,2784.0" style="stroke:#010101; fill:none;"/>
	<path d="M 1965.0,2784.0 L 1965.0,2798.0" style="stroke:#010101; fill:none;"/>
	<path d="M 1121.0,2790.0 L 1137.0,2786.0" style="stroke:#010101; fill:none;"/>
	<path d="M 2180.0,2786.0 C 2154.63,2815.31 2122.18,2839.45 2090.0,2861.0 C 2080.63,2867.27 2070.94,2873.35 2061.0,2878.69 C 2056.98,2880.85 2049.8,2882.09 2046.82,2885.56 C 2043.71,2889.19 2045.95,2895.72 2046.0,2900.0 C 2046.14,2912.11 2045.3,2923.99 2043.95,2936.0 C 2039.15,2978.75 2036.0,3021.96 2036.0,3065.0 C 2036.0,3075.38 2037.0,3085.66 2037.0,3096.0 C 2037.0,3100.88 2036.04,3107.47 2038.94,3111.74 C 2044.17,3119.45 2053.71,3126.2 2060.71,3132.35 C 2077.59,3147.16 2095.61,3161.5 2114.0,3174.43 C 2125.53,3182.54 2140.45,3188.52 2148.0,3201.0" style="stroke:#010101; fill:none;"/>
	<path d="M 1948.0,2788.0 L 1947.0,2813.0" style="stroke:#010101; fill:none;"/>
	<path d="M 1776.0,2793.0 L 1763.0,2808.0" style="stroke:#010101; fill:none;"/>
	<path d="M 1793.0,2803.0 L 1778.0,2827.0" style="stroke:#010101; fill:none;"/>
	<path d="M 1811.0,2805.0 L 1810.0,2806.0" style="stroke:#010101; fill:none;"/>
	<path d="M 1809.0,2808.0 L 1796.0,2826.0" style="stroke:#010101; fill:none;"/>
	<path d="M 1147.0,2810.0 L 1140.0,2819.0" style="stroke:#010101; fill:none;"/>
	<path d="M 1922.0,2818.0 C 1918.02,2825.58 1915.05,2836.42 1916.0,2845.0" style="stroke:#010101; fill:none;"/>
	<path d="M 1370.0,2841.0 L 1378.0,2833.0" style="stroke:#010101; fill:none;"/>
	<path d="M 1889.0,2834.0 L 1883.0,2854.0" style="stroke:#010101; fill:none;"/>
	<path d="M 1872.0,2838.0 L 1871.0,2840.0" style="stroke:#010101; fill:none;"/>
	<path d="M 1451.0,2840.0 C 1448.72,2849.61 1442.56,2856.88 1436.0,2864.0" style="stroke:#010101; fill:none;"/>
	<path d="M 1665.0,2841.0 L 1657.0,2848.0" style="stroke:#010101; fill:none;"/>
	<path d="M 1870.0,2842.0 L 1869.0,2845.0" style="stroke:#010101; fill:none;"/>
	<path d="M 1397.0,2843.0 L 1397.0,2845.0" style="stroke:#010101; fill:none;"/>
	<path d="M 1988.0,2844.0 L 1986.0,2862.0" style="stroke:#010101; fill:none;"/>
	<path d="M 1397.0,2847.0 L 1396.0,2849.0" style="stroke:#010101; fill:none;"/>
	<path d="M 1868.0,2848.0 L 1867.0,2850.0" style="stroke:#010101; fill:none;"/>
	<path d="M 1060.0,2857.0 L 1061.0,2858.0" style="stroke:#010101; fill:none;"/>
	<path d="M 1935.0,2869.0 L 1934.0,2871.0" style="stroke:#010101; fill:none;"/>
	<path d="M 1962.0,2871.0 L 1958.0,2882.0" style="stroke:#010101; fill:none;"/>
	<path d="M 1933.0,2873.0 L 1926.0,2894.0" style="stroke:#010101; fill:none;"/>
	<path d="M 2047.0,2878.0 L 2046.0,2883.0" style="stroke:#010101; fill:none;"/>
	<path d="M 1614.0,2881.0 L 1595.0,2897.0" style="stroke:#010101; fill:none;"/>
	<path d="M 1903.0,2885.0 L 1900.0,2894.0" style="stroke:#010101; fill:none;"/>
	<path d="M 1918.0,2938.0 C 1953.05,2929.97 1986.11,2915.25 2019.0,2901.13 C 2028.08,2897.23 2035.48,2889.8 2045.0,2887.0" style="stroke:#010101; fill:none;"/>
	<path d="M 1454.0,2975.0 L 1526.0,3010.0" style="stroke:#010101; fill:none;"/>
	<path d="M 1528.0,3011.0 L 1530.0,3013.0" style="stroke:#010101; fill:none;"/>
	<path d="M 1533.0,3015.0 L 1534.0,3016.0" style="stroke:#010101; fill:none;"/>
	<path d="M 1536.0,3018.0 L 1536.0,3019.0" style="stroke:#010101; fill:none;"/>
	<path d="M 1538.0,3021.0 L 1542.0,3025.0" style="stroke:#010101; fill:none;"/>
	<path d="M 1545.0,3021.0 L 1584.0,3048.81 L 1631.0,3076.0" style="stroke:#010101; fill:none;"/>
	<path d="M 1717.0,3025.0 L 1718.0,3027.0" style="stroke:#010101; fill:none;"/>
	<path d="M 1720.0,3029.0 L 1721.0,3030.0" style="stroke:#010101; fill:none;"/>
	<path d="M 1723.0,3032.0 L 1805.0,3097.0" style="stroke:#010101; fill:none;"/>
	<path d="M 2038.0,3114.0 C 2038.02,3150.28 2051.08,3184.61 2072.0,3214.0" style="stroke:#010101; fill:none;"/>
	<path d="M 1659.0,3151.0 L 1698.0,3170.0" style="stroke:#010101; fill:none;"/>
	<path d="M 1873.0,3155.0 L 1905.0,3207.0" style="stroke:#010101; fill:none;"/>
	<path d="M 1706.0,3174.0 L 1723.0,3182.0" style="stroke:#010101; fill:none;"/>
</svg>
