<?xml version="1.0" ?>
<svg baseProfile="full" height="2251" version="1.1" width="1979" xmlns="http://www.w3.org/2000/svg" xmlns:ev="http://www.w3.org/2001/xml-events" xmlns:xlink="http://www.w3.org/1999/xlink">
	<defs/>
	<path d="M 669.0,858.0 L 665.0,859.0 L 667.0,855.0 C 675.572,856.674 690.195,834.369 695.576,828.0 C 716.33,803.437 739.944,780.978 763.129,758.699 C 770.601,751.519 780.679,736.8 792.0,741.0" style="stroke:#010101; fill:none;"/>
	<path d="M 776.0,742.0 L 779.0,744.0" style="stroke:#010101; fill:none;"/>
	<path d="M 1007.0,755.0 C 1029.93,761.27 1054.41,763.765 1078.0,765.991 C 1086.24,766.768 1094.93,766.078 1103.0,768.0" style="stroke:#010101; fill:none;"/>
	<path d="M 1019.0,758.0 L 1020.0,764.0" style="stroke:#010101; fill:none;"/>
	<path d="M 1025.0,761.0 L 1032.0,771.0" style="stroke:#010101; fill:none;"/>
	<path d="M 1032.0,762.0 L 1040.0,774.0" style="stroke:#010101; fill:none;"/>
	<path d="M 1042.0,762.0 L 1042.0,767.0 L 1042.0,765.0" style="stroke:#010101; fill:none;"/>
	<path d="M 760.0,763.0 L 764.0,764.0" style="stroke:#010101; fill:none;"/>
	<path d="M 1038.0,763.0 L 1040.0,765.0" style="stroke:#010101; fill:none;"/>
	<path d="M 1052.0,763.0 L 1049.0,764.0" style="stroke:#010101; fill:none;"/>
	<path d="M 1054.0,763.0 L 1055.0,764.0" style="stroke:#010101; fill:none;"/>
	<path d="M 1042.0,764.0 L 1042.0,765.0" style="stroke:#010101; fill:none;"/>
	<path d="M 1026.0,765.0 L 1026.0,766.0" style="stroke:#010101; fill:none;"/>
	<path d="M 1050.0,765.0 L 1054.0,769.0 L 1055.0,768.0 L 1054.0,769.0" style="stroke:#010101; fill:none;"/>
	<path d="M 1054.0,765.0 L 1054.0,767.0" style="stroke:#010101; fill:none;"/>
	<path d="M 1043.0,766.0 L 1051.0,777.0 L 1053.0,770.0" style="stroke:#010101; fill:none;"/>
	<path d="M 1069.0,766.0 L 1081.0,786.0 C 1081.55,783.432 1081.62,782.973 1079.0,783.0" style="stroke:#010101; fill:none;"/>
	<path d="M 1042.0,767.0 L 1048.0,780.0" style="stroke:#010101; fill:none;"/>
	<path d="M 1081.0,767.0 L 1090.0,784.0 L 1087.0,780.0" style="stroke:#010101; fill:none;"/>
	<path d="M 1056.0,769.0 L 1064.0,785.0 L 1064.0,781.0" style="stroke:#010101; fill:none;"/>
	<path d="M 1063.0,769.0 C 1071.87,799.654 1087.6,832.784 1089.0,865.0" style="stroke:#010101; fill:none;"/>
	<path d="M 1075.0,773.0 L 1081.0,782.0" style="stroke:#010101; fill:none;"/>
	<path d="M 1054.0,775.0 C 1067.0,791.225 1068.89,820.26 1074.0,840.0" style="stroke:#010101; fill:none;"/>
	<path d="M 1051.0,777.0 L 1064.0,818.0" style="stroke:#010101; fill:none;"/>
	<path d="M 1054.0,777.0 L 1053.0,781.0" style="stroke:#010101; fill:none;"/>
	<path d="M 1062.0,780.0 L 1063.0,781.0" style="stroke:#010101; fill:none;"/>
	<path d="M 1073.0,780.0 L 1089.83,835.0 L 1095.0,861.0 L 1094.0,856.0" style="stroke:#010101; fill:none;"/>
	<path d="M 927.0,781.0 C 920.738,793.477 922.231,805.364 933.0,814.0 L 927.0,821.0 L 941.001,816.207 L 950.0,822.0 C 951.521,815.895 948.724,811.541 943.0,816.0 L 943.0,816.0" style="stroke:#010101; fill:none;"/>
	<path d="M 965.0,781.0 C 961.051,790.179 959.449,805.607 965.827,814.0 C 968.485,817.497 977.048,826.463 982.114,820.997 C 983.849,819.125 981.482,815.028 980.934,813.0 C 979.28,806.888 979.074,802.091 981.0,796.0" style="stroke:#010101; fill:none;"/>
	<path d="M 940.0,782.0 C 940.001,793.739 944.121,801.344 948.0,812.0" style="stroke:#010101; fill:none;"/>
	<path d="M 1064.0,785.0 L 1078.0,846.0" style="stroke:#010101; fill:none;"/>
	<path d="M 1091.0,785.0 C 1094.27,792.041 1096.97,800.351 1101.04,806.911 C 1104.86,813.074 1111.53,819.137 1110.0,827.0 C 1117.62,831.698 1120.44,843.017 1123.42,851.0 C 1129.75,867.919 1133.42,885.27 1136.61,903.0 C 1138.33,912.535 1140.81,923.486 1138.0,933.0" style="stroke:#010101; fill:none;"/>
	<path d="M 901.0,786.0 C 898.733,795.078 907.404,809.07 916.0,812.0 L 914.0,792.0" style="stroke:#010101; fill:none;"/>
	<path d="M 1081.0,786.0 C 1090.07,797.212 1094.12,812.261 1098.5,826.0 C 1107.99,855.718 1114.58,886.053 1123.0,916.0" style="stroke:#010101; fill:none;"/>
	<path d="M 956.0,788.0 C 955.946,795.151 954.585,804.112 962.0,808.0" style="stroke:#010101; fill:none;"/>
	<path d="M 1054.0,788.0 L 1056.0,801.0" style="stroke:#010101; fill:none;"/>
	<path d="M 987.0,791.0 L 986.0,793.0" style="stroke:#010101; fill:none;"/>
	<path d="M 1004.0,791.0 L 1001.0,798.0 L 1000.0,796.0" style="stroke:#010101; fill:none;"/>
	<path d="M 978.0,792.0 L 976.0,800.0" style="stroke:#010101; fill:none;"/>
	<path d="M 1085.0,793.0 L 1087.0,799.0" style="stroke:#010101; fill:none;"/>
	<path d="M 971.0,794.0 L 970.0,797.0" style="stroke:#010101; fill:none;"/>
	<path d="M 985.0,795.0 L 983.0,801.0" style="stroke:#010101; fill:none;"/>
	<path d="M 974.0,796.0 L 971.0,820.0" style="stroke:#010101; fill:none;"/>
	<path d="M 988.0,798.0 C 988.0,805.223 988.699,813.151 984.0,819.0" style="stroke:#010101; fill:none;"/>
	<path d="M 999.0,799.0 C 994.817,808.807 996.039,815.933 988.0,824.0 L 999.0,828.0 L 997.0,818.0" style="stroke:#010101; fill:none;"/>
	<path d="M 970.0,800.0 L 972.0,802.0" style="stroke:#010101; fill:none;"/>
	<path d="M 1099.0,800.0 L 1118.0,825.0 L 1118.0,826.0 L 1116.0,825.0" style="stroke:#010101; fill:none;"/>
	<path d="M 1102.0,801.0 L 1100.0,803.0" style="stroke:#010101; fill:none;"/>
	<path d="M 932.0,803.0 L 932.0,810.0" style="stroke:#010101; fill:none;"/>
	<path d="M 1008.0,805.0 L 1000.0,823.0" style="stroke:#010101; fill:none;"/>
	<path d="M 1088.0,805.0 L 1087.0,815.0 L 1087.0,809.0" style="stroke:#010101; fill:none;"/>
	<path d="M 1000.0,828.0 C 1001.73,832.762 1000.7,835.826 998.0,840.0 C 1003.15,840.885 1016.01,838.477 1016.83,831.892 C 1017.4,827.404 1013.81,824.916 1012.64,821.0 C 1010.85,815.028 1016.74,810.009 1021.0,807.0" style="stroke:#010101; fill:none;"/>
	<path d="M 1102.0,810.0 L 1098.0,811.0" style="stroke:#010101; fill:none;"/>
	<path d="M 916.0,812.0 L 926.0,820.0" style="stroke:#010101; fill:none;"/>
	<path d="M 1017.0,826.0 L 1034.0,813.0" style="stroke:#010101; fill:none;"/>
	<path d="M 1099.0,813.0 L 1101.0,818.0 L 1101.0,812.0" style="stroke:#010101; fill:none;"/>
	<path d="M 1119.0,813.0 L 1131.0,837.0 L 1128.0,830.0" style="stroke:#010101; fill:none;"/>
	<path d="M 934.0,814.0 L 937.0,819.0" style="stroke:#010101; fill:none;"/>
	<path d="M 1020.0,814.0 L 1019.0,823.0" style="stroke:#010101; fill:none;"/>
	<path d="M 1087.0,815.0 L 1088.0,819.0 L 1089.0,814.0" style="stroke:#010101; fill:none;"/>
	<path d="M 928.0,817.0 L 930.0,817.0" style="stroke:#010101; fill:none;"/>
	<path d="M 1101.0,818.0 C 1106.55,855.556 1125.96,890.559 1129.0,929.0" style="stroke:#010101; fill:none;"/>
	<path d="M 1104.0,818.0 L 1118.0,864.0" style="stroke:#010101; fill:none;"/>
	<path d="M 923.0,819.0 L 923.0,825.0 L 924.0,822.0" style="stroke:#010101; fill:none;"/>
	<path d="M 937.0,819.0 L 947.0,822.0" style="stroke:#010101; fill:none;"/>
	<path d="M 1033.0,819.0 C 1029.3,825.496 1026.92,845.889 1019.85,848.759 C 1015.34,850.592 1006.52,843.506 1003.0,841.0" style="stroke:#010101; fill:none;"/>
	<path d="M 1091.0,819.0 C 1096.54,847.579 1103.78,878.769 1114.0,906.0" style="stroke:#010101; fill:none;"/>
	<path d="M 951.0,820.0 C 957.629,824.198 965.398,825.987 972.0,821.0" style="stroke:#010101; fill:none;"/>
	<path d="M 1088.0,820.0 L 1087.0,821.0" style="stroke:#010101; fill:none;"/>
	<path d="M 915.0,822.0 L 920.0,823.0" style="stroke:#010101; fill:none;"/>
	<path d="M 942.0,822.0 L 940.0,827.0 L 935.0,823.0" style="stroke:#010101; fill:none;"/>
	<path d="M 947.0,822.0 L 941.0,828.0" style="stroke:#010101; fill:none;"/>
	<path d="M 978.0,823.0 C 979.039,829.9 982.436,833.161 988.0,837.0 C 980.075,843.112 968.793,845.542 962.8,854.004 C 950.111,871.922 966.205,896.37 984.0,902.907 C 994.83,906.885 1006.41,904.584 1017.0,900.996 C 1024.98,898.292 1040.37,892.597 1039.57,882.0 C 1039.1,875.807 1034.62,870.106 1031.56,865.0 C 1028.02,859.092 1027.79,853.526 1023.0,848.0" style="stroke:#010101; fill:none;"/>
	<path d="M 984.0,823.0 L 988.0,824.0" style="stroke:#010101; fill:none;"/>
	<path d="M 923.0,825.0 L 931.0,833.0" style="stroke:#010101; fill:none;"/>
	<path d="M 967.0,826.0 L 948.0,844.0" style="stroke:#010101; fill:none;"/>
	<path d="M 1010.0,829.0 L 1016.0,826.0" style="stroke:#010101; fill:none;"/>
	<path d="M 1112.0,826.0 L 1112.0,827.0" style="stroke:#010101; fill:none;"/>
	<path d="M 1119.0,827.0 C 1131.0,862.252 1160.46,901.258 1151.0,941.0" style="stroke:#010101; fill:none;"/>
	<path d="M 999.0,828.0 L 988.0,836.0" style="stroke:#010101; fill:none;"/>
	<path d="M 1040.0,829.0 C 1037.06,833.678 1033.51,841.297 1035.61,846.961 C 1037.23,851.338 1041.23,853.061 1042.0,858.0 L 1031.0,856.0" style="stroke:#010101; fill:none;"/>
	<path d="M 1111.0,829.0 L 1112.0,830.0" style="stroke:#010101; fill:none;"/>
	<path d="M 936.0,830.0 L 951.0,861.0" style="stroke:#010101; fill:none;"/>
	<path d="M 1112.0,830.0 L 1120.09,855.0 L 1132.0,904.0 L 1135.0,933.0" style="stroke:#010101; fill:none;"/>
	<path d="M 1003.0,831.0 L 1009.0,831.0" style="stroke:#010101; fill:none;"/>
	<path d="M 923.0,832.0 L 934.0,839.0 L 932.0,844.0 L 933.0,845.0 L 933.0,843.0" style="stroke:#010101; fill:none;"/>
	<path d="M 1062.0,837.0 C 1056.54,837.016 1050.94,839.438 1047.0,835.0 L 1053.0,832.0" style="stroke:#010101; fill:none;"/>
	<path d="M 1007.0,833.0 L 1011.0,835.0" style="stroke:#010101; fill:none;"/>
	<path d="M 1017.0,835.0 L 1023.0,843.0" style="stroke:#010101; fill:none;"/>
	<path d="M 1007.0,836.0 L 1007.0,838.0" style="stroke:#010101; fill:none;"/>
	<path d="M 1047.0,836.0 L 1042.0,853.0" style="stroke:#010101; fill:none;"/>
	<path d="M 932.0,837.0 L 933.0,842.0" style="stroke:#010101; fill:none;"/>
	<path d="M 1003.0,837.0 L 1003.0,838.0" style="stroke:#010101; fill:none;"/>
	<path d="M 1131.0,837.0 L 1133.0,841.0 L 1133.0,836.0" style="stroke:#010101; fill:none;"/>
	<path d="M 1009.0,838.0 L 1010.0,839.0" style="stroke:#010101; fill:none;"/>
	<path d="M 989.0,839.0 L 998.0,840.0" style="stroke:#010101; fill:none;"/>
	<path d="M 1051.0,839.0 L 1052.0,844.0 L 1062.0,840.0" style="stroke:#010101; fill:none;"/>
	<path d="M 1135.0,840.0 C 1149.17,859.906 1154.64,885.38 1158.44,909.0 C 1160.07,919.173 1163.0,930.859 1160.0,941.0 L 1150.27,891.0 L 1133.0,841.0" style="stroke:#010101; fill:none;"/>
	<path d="M 1051.0,844.0 C 1048.2,844.087 1047.26,843.445 1049.0,841.0" style="stroke:#010101; fill:none;"/>
	<path d="M 1058.0,843.0 C 1054.38,847.46 1045.15,856.931 1045.2,862.961 C 1045.23,865.899 1049.05,868.706 1050.57,871.039 C 1053.38,875.338 1054.96,880.763 1057.86,884.775 C 1061.66,890.036 1066.31,889.439 1067.0,897.0 L 1089.0,894.0" style="stroke:#010101; fill:none;"/>
	<path d="M 929.0,844.0 L 930.0,844.0" style="stroke:#010101; fill:none;"/>
	<path d="M 935.0,844.0 L 938.0,847.0" style="stroke:#010101; fill:none;"/>
	<path d="M 933.0,845.0 C 933.132,849.994 935.541,856.515 940.0,859.0 L 938.0,856.0" style="stroke:#010101; fill:none;"/>
	<path d="M 928.0,849.0 L 931.0,848.0" style="stroke:#010101; fill:none;"/>
	<path d="M 1026.0,851.0 C 1029.18,848.796 1030.48,848.363 1034.0,850.0 L 1029.0,855.0" style="stroke:#010101; fill:none;"/>
	<path d="M 671.0,850.0 L 669.0,855.0" style="stroke:#010101; fill:none;"/>
	<path d="M 1032.0,850.0 L 1033.0,851.0" style="stroke:#010101; fill:none;"/>
	<path d="M 1061.0,851.0 L 1049.0,868.0" style="stroke:#010101; fill:none;"/>
	<path d="M 669.0,852.0 L 672.0,855.0" style="stroke:#010101; fill:none;"/>
	<path d="M 938.0,854.0 L 939.0,855.0" style="stroke:#010101; fill:none;"/>
	<path d="M 1022.0,867.0 C 1018.7,867.979 1014.02,867.502 1011.6,870.318 C 1008.86,873.506 1010.61,880.84 1005.85,882.288 C 991.067,886.789 984.029,851.303 1007.0,855.472 C 1009.99,856.016 1012.5,857.229 1014.83,859.174 C 1017.6,861.49 1020.34,863.818 1022.0,867.0" style="stroke:#010101; fill:none;"/>
	<path d="M 931.0,857.0 L 935.0,858.0" style="stroke:#010101; fill:none;"/>
	<path d="M 1043.0,859.0 L 1044.0,861.0" style="stroke:#010101; fill:none;"/>
	<path d="M 664.0,860.0 C 641.728,904.971 612.703,949.281 582.119,989.0 C 573.873,999.709 565.507,1010.37 555.996,1020.0 C 549.485,1026.59 539.719,1034.5 535.795,1043.0 C 525.517,1065.25 513.809,1087.21 506.721,1111.0 C 468.956,1237.74 483.259,1380.5 516.0,1507.0" style="stroke:#010101; fill:none;"/>
	<path d="M 941.0,860.0 L 943.0,864.0" style="stroke:#010101; fill:none;"/>
	<path d="M 1096.0,860.0 C 1101.03,868.719 1102.74,881.077 1104.0,891.0" style="stroke:#010101; fill:none;"/>
	<path d="M 929.0,861.0 C 933.859,861.427 937.651,862.511 940.0,867.0 L 920.0,866.0" style="stroke:#010101; fill:none;"/>
	<path d="M 1095.0,861.0 L 1095.0,870.0" style="stroke:#010101; fill:none;"/>
	<path d="M 941.0,862.0 L 939.0,864.0" style="stroke:#010101; fill:none;"/>
	<path d="M 1137.0,862.0 L 1138.0,868.0" style="stroke:#010101; fill:none;"/>
	<path d="M 1069.0,864.0 C 1060.97,873.196 1060.65,876.721 1069.0,886.0 L 1085.0,879.0" style="stroke:#010101; fill:none;"/>
	<path d="M 940.0,867.0 L 948.0,879.0 L 945.0,880.0" style="stroke:#010101; fill:none;"/>
	<path d="M 1136.0,869.0 L 1146.0,911.0" style="stroke:#010101; fill:none;"/>
	<path d="M 933.0,870.0 L 944.0,874.0" style="stroke:#010101; fill:none;"/>
	<path d="M 957.0,874.0 L 958.0,870.0" style="stroke:#010101; fill:none;"/>
	<path d="M 1157.0,870.0 L 1167.83,918.0 L 1168.0,940.0 L 1174.0,927.0" style="stroke:#010101; fill:none;"/>
	<path d="M 1055.0,876.0 L 1060.0,874.0" style="stroke:#010101; fill:none;"/>
	<path d="M 949.0,879.0 L 953.0,886.0 L 951.0,882.0" style="stroke:#010101; fill:none;"/>
	<path d="M 951.0,886.0 L 944.0,889.0" style="stroke:#010101; fill:none;"/>
	<path d="M 953.0,886.0 L 957.0,888.0" style="stroke:#010101; fill:none;"/>
	<path d="M 1069.0,886.0 L 1066.0,889.0" style="stroke:#010101; fill:none;"/>
	<path d="M 966.0,890.0 L 967.0,893.0" style="stroke:#010101; fill:none;"/>
	<path d="M 967.0,893.0 L 935.0,897.0" style="stroke:#010101; fill:none;"/>
	<path d="M 966.0,894.0 L 1002.45,942.08 L 1038.67,975.001 L 1052.0,998.0" style="stroke:#010101; fill:none;"/>
	<path d="M 1072.0,897.0 C 1079.84,905.421 1082.81,903.724 1094.0,905.0" style="stroke:#010101; fill:none;"/>
	<path d="M 1066.0,898.0 L 1067.0,910.0 L 1076.0,906.0" style="stroke:#010101; fill:none;"/>
	<path d="M 1142.0,900.0 L 1143.0,938.0" style="stroke:#010101; fill:none;"/>
	<path d="M 959.0,903.0 L 968.0,904.0" style="stroke:#010101; fill:none;"/>
	<path d="M 1080.0,906.0 C 1080.74,912.657 1086.48,917.169 1081.0,923.0 L 1086.0,927.0 L 1085.0,921.0 L 1089.0,918.0" style="stroke:#010101; fill:none;"/>
	<path d="M 972.0,912.0 C 968.189,911.706 966.192,911.016 966.0,907.0 L 969.0,908.0" style="stroke:#010101; fill:none;"/>
	<path d="M 1176.0,907.0 L 1175.0,925.0" style="stroke:#010101; fill:none;"/>
	<path d="M 1066.0,911.0 L 1069.0,922.0 L 1081.0,914.0" style="stroke:#010101; fill:none;"/>
	<path d="M 966.0,912.0 L 964.0,914.0" style="stroke:#010101; fill:none;"/>
	<path d="M 1084.0,914.0 L 1093.0,915.0" style="stroke:#010101; fill:none;"/>
	<path d="M 966.0,922.0 L 975.0,918.0" style="stroke:#010101; fill:none;"/>
	<path d="M 1076.0,919.0 L 1081.0,923.0" style="stroke:#010101; fill:none;"/>
	<path d="M 1078.0,922.0 L 1072.0,925.0 L 1071.0,923.0" style="stroke:#010101; fill:none;"/>
	<path d="M 1073.0,926.0 C 1073.4,938.184 1085.61,929.698 1089.26,937.234 C 1091.1,941.034 1089.36,946.046 1089.09,950.0 C 1088.33,961.035 1086.87,971.978 1086.0,983.0" style="stroke:#010101; fill:none;"/>
	<path d="M 1086.0,927.0 L 1091.0,929.0" style="stroke:#010101; fill:none;"/>
	<path d="M 1088.0,929.0 L 1088.0,934.0" style="stroke:#010101; fill:none;"/>
	<path d="M 1073.0,932.0 C 1066.72,943.333 1064.94,967.115 1066.17,980.0 C 1066.75,986.128 1069.91,1000.6 1065.26,1005.59 C 1061.89,1009.19 1056.69,1004.11 1054.0,1002.0" style="stroke:#010101; fill:none;"/>
	<path d="M 981.0,934.0 L 986.0,933.0" style="stroke:#010101; fill:none;"/>
	<path d="M 1149.0,935.0 L 1147.0,950.0" style="stroke:#010101; fill:none;"/>
	<path d="M 1080.0,936.0 L 1086.0,940.0" style="stroke:#010101; fill:none;"/>
	<path d="M 984.0,938.0 L 986.0,937.0" style="stroke:#010101; fill:none;"/>
	<path d="M 1167.0,941.0 L 1159.0,955.0" style="stroke:#010101; fill:none;"/>
	<path d="M 991.0,942.0 L 989.0,946.0" style="stroke:#010101; fill:none;"/>
	<path d="M 1158.0,942.0 L 1153.0,956.0" style="stroke:#010101; fill:none;"/>
	<path d="M 1071.0,945.0 L 1078.0,949.0" style="stroke:#010101; fill:none;"/>
	<path d="M 996.0,952.0 L 1000.0,949.0" style="stroke:#010101; fill:none;"/>
	<path d="M 1064.0,949.0 L 1067.0,956.0" style="stroke:#010101; fill:none;"/>
	<path d="M 1071.0,950.0 L 1077.0,955.0" style="stroke:#010101; fill:none;"/>
	<path d="M 1009.0,959.0 L 1009.0,962.0" style="stroke:#010101; fill:none;"/>
	<path d="M 1146.0,989.0 L 1145.0,995.0" style="stroke:#010101; fill:none;"/>
	<path d="M 1144.0,997.0 L 1132.0,1056.0" style="stroke:#010101; fill:none;"/>
	<path d="M 1087.0,998.0 L 1085.0,1006.0" style="stroke:#010101; fill:none;"/>
	<path d="M 541.0,1023.0 L 544.0,1022.0" style="stroke:#010101; fill:none;"/>
	<path d="M 522.0,1055.0 L 534.0,1044.0" style="stroke:#010101; fill:none;"/>
	<path d="M 1126.0,1070.0 L 1095.0,1110.0" style="stroke:#010101; fill:none;"/>
	<path d="M 1300.0,1120.0 C 1318.73,1113.3 1337.61,1099.89 1358.0,1099.0" style="stroke:#010101; fill:none;"/>
	<path d="M 1302.0,1124.0 C 1316.08,1115.81 1332.51,1110.74 1348.0,1105.98 C 1354.51,1103.97 1361.49,1101.0 1368.0,1104.0 L 1357.0,1107.0" style="stroke:#010101; fill:none;"/>
	<path d="M 1370.0,1104.0 L 1376.0,1105.0" style="stroke:#010101; fill:none;"/>
	<path d="M 1305.0,1128.0 C 1318.56,1118.35 1338.84,1111.74 1355.0,1108.0" style="stroke:#010101; fill:none;"/>
	<path d="M 1309.0,1131.0 C 1327.64,1121.51 1351.22,1113.68 1372.0,1111.0" style="stroke:#010101; fill:none;"/>
	<path d="M 1321.0,1137.0 C 1342.36,1131.17 1365.42,1120.72 1388.0,1122.0" style="stroke:#010101; fill:none;"/>
	<path d="M 1360.0,1131.0 C 1368.67,1135.16 1380.32,1131.0 1390.0,1131.0" style="stroke:#010101; fill:none;"/>
	<path d="M 1320.0,1144.0 L 1362.0,1133.0" style="stroke:#010101; fill:none;"/>
	<path d="M 1369.0,1134.0 L 1388.0,1139.0" style="stroke:#010101; fill:none;"/>
	<path d="M 1373.0,1137.0 L 1365.0,1141.0 L 1388.0,1147.0 L 1379.0,1140.0" style="stroke:#010101; fill:none;"/>
	<path d="M 1315.0,1139.0 L 1318.0,1139.0" style="stroke:#010101; fill:none;"/>
	<path d="M 1384.0,1140.0 L 1422.0,1163.38 L 1436.0,1172.0" style="stroke:#010101; fill:none;"/>
	<path d="M 1202.0,1148.0 C 1233.73,1139.79 1264.89,1139.86 1297.0,1146.0" style="stroke:#010101; fill:none;"/>
	<path d="M 1335.0,1146.0 L 1365.0,1141.0" style="stroke:#010101; fill:none;"/>
	<path d="M 1388.0,1146.0 L 1402.74,1154.56 L 1454.13,1192.43 L 1472.0,1207.0" style="stroke:#010101; fill:none;"/>
	<path d="M 1120.0,1215.0 C 1144.28,1188.63 1168.41,1166.52 1200.0,1149.0" style="stroke:#010101; fill:none;"/>
	<path d="M 1322.0,1155.0 C 1340.07,1151.5 1366.95,1146.27 1385.0,1151.57 C 1394.52,1154.37 1401.54,1163.71 1411.0,1167.0 L 1408.0,1168.0" style="stroke:#010101; fill:none;"/>
	<path d="M 1391.0,1150.0 L 1389.0,1152.0" style="stroke:#010101; fill:none;"/>
	<path d="M 681.0,1168.0 C 693.156,1155.59 699.305,1153.57 716.0,1159.0" style="stroke:#010101; fill:none;"/>
	<path d="M 1333.0,1161.0 C 1349.99,1152.09 1372.68,1156.44 1391.0,1157.0" style="stroke:#010101; fill:none;"/>
	<path d="M 721.0,1159.0 L 727.0,1161.0" style="stroke:#010101; fill:none;"/>
	<path d="M 1395.0,1160.0 L 1402.0,1162.0" style="stroke:#010101; fill:none;"/>
	<path d="M 1341.0,1162.0 C 1343.29,1163.12 1347.26,1161.18 1350.0,1161.04 C 1358.23,1160.63 1366.76,1160.7 1375.0,1161.04 C 1392.05,1161.73 1402.53,1171.13 1415.35,1180.88 C 1420.58,1184.85 1425.86,1183.98 1430.0,1190.0 L 1431.0,1189.0 L 1430.0,1187.0" style="stroke:#010101; fill:none;"/>
	<path d="M 1336.0,1163.0 L 1340.0,1163.0" style="stroke:#010101; fill:none;"/>
	<path d="M 1393.0,1163.0 L 1396.0,1162.0" style="stroke:#010101; fill:none;"/>
	<path d="M 1343.0,1164.0 L 1351.0,1164.0" style="stroke:#010101; fill:none;"/>
	<path d="M 1341.0,1168.0 L 1384.0,1173.24 L 1404.0,1176.0 C 1395.14,1166.44 1373.32,1168.0 1361.0,1168.0" style="stroke:#010101; fill:none;"/>
	<path d="M 1399.0,1169.0 L 1397.0,1171.0" style="stroke:#010101; fill:none;"/>
	<path d="M 1413.0,1171.0 C 1417.73,1169.18 1430.01,1180.03 1434.0,1182.86 C 1455.25,1197.92 1466.82,1216.34 1484.0,1235.0 C 1488.71,1226.73 1477.02,1215.27 1473.0,1208.0" style="stroke:#010101; fill:none;"/>
	<path d="M 1400.0,1170.0 L 1400.0,1172.0" style="stroke:#010101; fill:none;"/>
	<path d="M 1352.0,1172.0 C 1371.47,1174.56 1392.31,1177.96 1410.0,1186.81 C 1419.75,1191.69 1436.05,1205.15 1447.0,1204.0 L 1402.0,1178.0" style="stroke:#010101; fill:none;"/>
	<path d="M 1438.0,1173.0 L 1472.0,1206.0" style="stroke:#010101; fill:none;"/>
	<path d="M 1290.0,1175.0 L 1288.0,1182.0 C 1277.4,1180.36 1275.15,1197.83 1286.98,1193.56 C 1289.0,1192.83 1290.41,1191.38 1292.0,1190.0 C 1294.62,1197.34 1298.78,1199.24 1305.0,1194.0 C 1300.31,1189.96 1296.82,1190.94 1291.0,1191.0" style="stroke:#010101; fill:none;"/>
	<path d="M 1355.0,1176.0 L 1370.0,1182.0 L 1369.0,1180.0" style="stroke:#010101; fill:none;"/>
	<path d="M 1404.0,1176.0 L 1413.0,1179.0" style="stroke:#010101; fill:none;"/>
	<path d="M 696.0,1177.0 C 696.0,1194.45 703.856,1207.82 709.562,1224.0 C 717.269,1245.86 721.339,1266.88 733.814,1287.0 C 743.55,1302.7 758.139,1315.14 769.076,1330.0 C 773.304,1335.74 775.235,1342.38 778.88,1348.29 C 794.022,1372.86 810.768,1397.55 830.17,1419.0 C 848.785,1439.58 873.001,1453.23 892.83,1472.29 C 907.48,1486.37 920.958,1505.74 938.0,1516.76 C 954.224,1527.24 972.729,1525.64 990.0,1532.03 C 999.877,1535.69 1007.47,1544.42 1018.0,1548.0" style="stroke:#010101; fill:none;"/>
	<path d="M 1433.0,1177.0 L 1434.0,1178.0" style="stroke:#010101; fill:none;"/>
	<path d="M 1414.0,1178.0 L 1421.0,1182.0" style="stroke:#010101; fill:none;"/>
	<path d="M 906.0,1182.0 C 914.306,1178.87 921.494,1178.61 930.0,1181.0" style="stroke:#010101; fill:none;"/>
	<path d="M 1301.0,1190.0 C 1303.47,1187.08 1304.35,1185.17 1308.0,1187.0 L 1316.0,1179.0" style="stroke:#010101; fill:none;"/>
	<path d="M 1242.0,1182.0 C 1253.22,1180.57 1271.18,1175.93 1281.0,1183.0" style="stroke:#010101; fill:none;"/>
	<path d="M 1292.0,1180.0 L 1288.0,1182.0 L 1288.0,1182.0" style="stroke:#010101; fill:none;"/>
	<path d="M 1297.0,1180.0 L 1300.0,1189.0" style="stroke:#010101; fill:none;"/>
	<path d="M 1303.0,1180.0 L 1304.0,1186.0" style="stroke:#010101; fill:none;"/>
	<path d="M 1439.0,1180.0 L 1439.0,1182.0" style="stroke:#010101; fill:none;"/>
	<path d="M 1320.0,1181.0 L 1308.0,1195.0 C 1316.28,1201.03 1320.56,1193.95 1314.0,1187.0" style="stroke:#010101; fill:none;"/>
	<path d="M 865.0,1263.0 C 852.489,1230.74 861.684,1191.08 900.0,1182.0" style="stroke:#010101; fill:none;"/>
	<path d="M 1296.0,1182.0 L 1292.0,1190.0" style="stroke:#010101; fill:none;"/>
	<path d="M 1306.0,1184.0 L 1309.0,1183.0" style="stroke:#010101; fill:none;"/>
	<path d="M 1372.0,1182.0 L 1381.0,1184.0 L 1375.0,1182.0" style="stroke:#010101; fill:none;"/>
	<path d="M 1229.0,1184.0 L 1236.0,1183.0" style="stroke:#010101; fill:none;"/>
	<path d="M 1329.0,1183.0 C 1324.72,1185.84 1321.7,1186.96 1325.0,1192.0 L 1333.0,1186.0" style="stroke:#010101; fill:none;"/>
	<path d="M 1363.0,1183.0 L 1365.0,1184.0" style="stroke:#010101; fill:none;"/>
	<path d="M 1381.0,1184.0 L 1387.0,1187.0 L 1384.0,1185.0" style="stroke:#010101; fill:none;"/>
	<path d="M 1383.0,1184.0 L 1384.0,1185.0" style="stroke:#010101; fill:none;"/>
	<path d="M 1265.0,1185.0 C 1266.94,1190.88 1272.27,1187.75 1277.0,1189.0" style="stroke:#010101; fill:none;"/>
	<path d="M 1290.0,1185.0 C 1287.94,1189.55 1285.02,1189.33 1281.0,1187.0" style="stroke:#010101; fill:none;"/>
	<path d="M 1367.0,1185.0 L 1409.0,1204.0 C 1399.05,1207.01 1384.13,1195.8 1375.0,1192.0" style="stroke:#010101; fill:none;"/>
	<path d="M 1388.0,1185.0 L 1408.0,1192.0 C 1401.43,1194.51 1393.16,1190.73 1387.0,1188.0" style="stroke:#010101; fill:none;"/>
	<path d="M 1422.0,1185.0 L 1424.0,1185.0" style="stroke:#010101; fill:none;"/>
	<path d="M 1325.0,1187.0 L 1326.0,1191.0 L 1324.0,1191.0" style="stroke:#010101; fill:none;"/>
	<path d="M 1426.0,1187.0 L 1427.0,1188.0" style="stroke:#010101; fill:none;"/>
	<path d="M 1308.0,1188.0 L 1310.0,1190.0" style="stroke:#010101; fill:none;"/>
	<path d="M 1431.0,1188.0 L 1457.0,1207.0 L 1449.0,1205.0 L 1450.0,1208.0 L 1451.0,1207.0" style="stroke:#010101; fill:none;"/>
	<path d="M 1227.0,1194.0 C 1234.41,1191.22 1244.11,1188.76 1252.0,1190.0 L 1249.0,1191.0" style="stroke:#010101; fill:none;"/>
	<path d="M 1252.0,1190.0 L 1264.0,1189.0" style="stroke:#010101; fill:none;"/>
	<path d="M 1322.0,1189.0 L 1319.0,1192.0" style="stroke:#010101; fill:none;"/>
	<path d="M 1402.0,1189.0 L 1402.0,1192.0" style="stroke:#010101; fill:none;"/>
	<path d="M 1273.0,1190.0 L 1278.0,1193.0 L 1278.0,1193.0" style="stroke:#010101; fill:none;"/>
	<path d="M 1336.0,1190.0 C 1332.02,1194.46 1332.02,1196.54 1336.0,1201.0 C 1331.15,1203.82 1327.58,1203.03 1323.0,1200.0 L 1327.0,1196.0 L 1321.0,1194.0" style="stroke:#010101; fill:none;"/>
	<path d="M 1408.0,1192.0 L 1415.0,1194.0 C 1411.68,1195.88 1410.35,1195.82 1407.0,1194.0" style="stroke:#010101; fill:none;"/>
	<path d="M 1240.0,1202.0 C 1240.94,1196.15 1243.91,1194.43 1249.0,1192.0" style="stroke:#010101; fill:none;"/>
	<path d="M 1422.0,1193.0 C 1419.14,1196.33 1417.43,1198.2 1413.0,1197.0" style="stroke:#010101; fill:none;"/>
	<path d="M 1415.0,1194.0 L 1420.0,1195.0" style="stroke:#010101; fill:none;"/>
	<path d="M 1306.0,1195.0 L 1308.0,1195.0" style="stroke:#010101; fill:none;"/>
	<path d="M 1439.0,1195.0 L 1441.0,1195.0" style="stroke:#010101; fill:none;"/>
	<path d="M 1276.0,1196.0 C 1271.8,1200.2 1266.74,1204.31 1264.56,1210.0 C 1257.7,1227.98 1271.74,1251.99 1287.29,1260.76 C 1297.4,1266.46 1312.04,1265.52 1323.0,1263.54 C 1333.4,1261.66 1348.35,1253.24 1350.89,1242.09 C 1352.09,1236.84 1345.23,1230.55 1350.63,1225.62 C 1353.08,1223.38 1357.13,1224.86 1360.0,1225.29 C 1368.14,1226.53 1374.1,1225.51 1382.0,1225.0" style="stroke:#010101; fill:none;"/>
	<path d="M 1309.0,1196.0 C 1303.45,1208.8 1329.14,1212.82 1322.0,1225.0 C 1323.24,1226.18 1327.22,1230.17 1325.0,1226.0" style="stroke:#010101; fill:none;"/>
	<path d="M 1327.0,1196.0 L 1330.0,1195.0" style="stroke:#010101; fill:none;"/>
	<path d="M 1352.0,1196.0 L 1343.0,1204.0 C 1346.02,1204.48 1347.28,1204.2 1347.0,1201.0" style="stroke:#010101; fill:none;"/>
	<path d="M 1317.0,1197.0 L 1323.0,1200.0" style="stroke:#010101; fill:none;"/>
	<path d="M 1344.0,1197.0 L 1340.0,1203.0 L 1342.0,1203.0" style="stroke:#010101; fill:none;"/>
	<path d="M 1402.0,1197.0 L 1444.0,1218.0 C 1439.09,1218.89 1433.56,1218.58 1434.0,1225.0 L 1436.0,1220.0" style="stroke:#010101; fill:none;"/>
	<path d="M 1223.0,1198.0 L 1235.0,1211.0" style="stroke:#010101; fill:none;"/>
	<path d="M 1420.0,1200.0 L 1423.0,1199.0 L 1418.0,1199.0" style="stroke:#010101; fill:none;"/>
	<path d="M 1348.0,1209.0 L 1348.0,1217.0 L 1344.0,1206.0 C 1338.67,1210.88 1330.63,1211.98 1324.0,1208.39 C 1319.86,1206.14 1316.63,1200.67 1312.0,1203.0 L 1310.0,1206.0 L 1310.0,1206.0" style="stroke:#010101; fill:none;"/>
	<path d="M 1425.0,1200.0 L 1427.0,1201.0 L 1425.0,1203.0 L 1423.0,1200.0" style="stroke:#010101; fill:none;"/>
	<path d="M 1336.0,1202.0 L 1338.0,1201.0" style="stroke:#010101; fill:none;"/>
	<path d="M 1352.0,1201.0 L 1350.0,1203.0" style="stroke:#010101; fill:none;"/>
	<path d="M 1428.0,1201.0 L 1426.0,1203.0" style="stroke:#010101; fill:none;"/>
	<path d="M 1336.0,1202.0 L 1342.0,1208.0" style="stroke:#010101; fill:none;"/>
	<path d="M 1430.0,1202.0 L 1428.0,1204.0" style="stroke:#010101; fill:none;"/>
	<path d="M 448.0,1267.0 L 447.0,1273.0 C 445.015,1267.81 449.465,1262.98 451.319,1258.0 C 456.534,1243.98 464.957,1229.62 473.011,1217.0 C 476.248,1211.93 480.017,1203.35 487.0,1206.0" style="stroke:#010101; fill:none;"/>
	<path d="M 712.0,1204.0 L 722.0,1215.0" style="stroke:#010101; fill:none;"/>
	<path d="M 1316.0,1204.0 L 1313.0,1207.0" style="stroke:#010101; fill:none;"/>
	<path d="M 1332.0,1204.0 L 1332.0,1209.0" style="stroke:#010101; fill:none;"/>
	<path d="M 1409.0,1204.0 L 1416.0,1204.0" style="stroke:#010101; fill:none;"/>
	<path d="M 1434.0,1204.0 L 1433.0,1207.0 L 1433.0,1204.0" style="stroke:#010101; fill:none;"/>
	<path d="M 1448.0,1204.0 L 1449.0,1205.0" style="stroke:#010101; fill:none;"/>
	<path d="M 1309.0,1205.0 C 1304.76,1207.61 1299.77,1208.63 1296.11,1212.19 C 1286.59,1221.44 1298.17,1231.65 1306.0,1237.0 C 1309.24,1229.92 1310.62,1215.9 1322.0,1225.0" style="stroke:#010101; fill:none;"/>
	<path d="M 1435.0,1205.0 L 1439.0,1207.0 L 1434.0,1207.0" style="stroke:#010101; fill:none;"/>
	<path d="M 1324.0,1206.0 L 1323.0,1207.0" style="stroke:#010101; fill:none;"/>
	<path d="M 1350.0,1209.0 L 1360.0,1206.0" style="stroke:#010101; fill:none;"/>
	<path d="M 1447.0,1206.0 L 1448.0,1206.0" style="stroke:#010101; fill:none;"/>
	<path d="M 1396.0,1207.0 L 1402.0,1210.0 L 1399.0,1211.0" style="stroke:#010101; fill:none;"/>
	<path d="M 1409.0,1207.0 L 1423.0,1212.0" style="stroke:#010101; fill:none;"/>
	<path d="M 1440.0,1207.0 L 1438.0,1209.0" style="stroke:#010101; fill:none;"/>
	<path d="M 1458.0,1207.0 C 1461.04,1210.3 1463.27,1214.32 1468.0,1214.0" style="stroke:#010101; fill:none;"/>
	<path d="M 1241.0,1208.0 L 1241.0,1211.0" style="stroke:#010101; fill:none;"/>
	<path d="M 1441.0,1208.0 L 1447.0,1211.0 L 1440.0,1210.0" style="stroke:#010101; fill:none;"/>
	<path d="M 1456.0,1209.0 L 1458.0,1220.0 L 1476.0,1233.0 L 1479.0,1232.0 L 1479.0,1232.0" style="stroke:#010101; fill:none;"/>
	<path d="M 918.0,1237.0 C 927.782,1227.22 946.281,1207.04 962.0,1211.0" style="stroke:#010101; fill:none;"/>
	<path d="M 1352.0,1215.0 L 1363.0,1210.0" style="stroke:#010101; fill:none;"/>
	<path d="M 1402.0,1210.0 L 1414.0,1212.0" style="stroke:#010101; fill:none;"/>
	<path d="M 694.0,1211.0 C 689.808,1264.11 669.727,1316.17 676.718,1370.0 C 678.439,1383.25 678.799,1406.17 687.0,1417.0" style="stroke:#010101; fill:none;"/>
	<path d="M 1334.0,1211.0 L 1329.0,1212.0" style="stroke:#010101; fill:none;"/>
	<path d="M 1356.0,1214.0 C 1365.69,1219.17 1381.14,1214.15 1391.0,1211.0" style="stroke:#010101; fill:none;"/>
	<path d="M 1447.0,1211.0 L 1457.0,1216.0 C 1452.69,1217.32 1449.69,1215.36 1446.0,1213.0" style="stroke:#010101; fill:none;"/>
	<path d="M 1472.0,1211.0 L 1473.0,1212.0" style="stroke:#010101; fill:none;"/>
	<path d="M 1340.0,1212.0 L 1337.0,1220.0 L 1331.0,1215.0" style="stroke:#010101; fill:none;"/>
	<path d="M 1340.0,1213.0 L 1336.0,1218.0" style="stroke:#010101; fill:none;"/>
	<path d="M 1404.0,1213.0 L 1408.0,1215.0" style="stroke:#010101; fill:none;"/>
	<path d="M 1415.0,1213.0 L 1420.0,1215.0 L 1414.0,1215.0" style="stroke:#010101; fill:none;"/>
	<path d="M 1240.0,1214.0 L 1266.0,1238.0" style="stroke:#010101; fill:none;"/>
	<path d="M 1426.0,1214.0 L 1432.0,1216.0 L 1429.0,1220.0 L 1430.0,1221.0 L 1431.0,1218.0" style="stroke:#010101; fill:none;"/>
	<path d="M 1343.0,1215.0 L 1345.0,1216.0" style="stroke:#010101; fill:none;"/>
	<path d="M 1421.0,1215.0 L 1426.0,1217.0 L 1423.0,1220.0 L 1423.0,1216.0" style="stroke:#010101; fill:none;"/>
	<path d="M 1432.0,1216.0 L 1436.0,1217.0" style="stroke:#010101; fill:none;"/>
	<path d="M 1457.0,1216.0 C 1465.91,1217.38 1470.27,1226.96 1476.0,1233.0" style="stroke:#010101; fill:none;"/>
	<path d="M 1119.0,1217.0 L 1114.0,1223.0" style="stroke:#010101; fill:none;"/>
	<path d="M 1348.0,1217.0 L 1349.0,1225.0 C 1344.08,1226.02 1340.8,1224.07 1337.0,1221.0" style="stroke:#010101; fill:none;"/>
	<path d="M 1426.0,1217.0 L 1429.0,1218.0" style="stroke:#010101; fill:none;"/>
	<path d="M 1471.0,1217.0 L 1467.0,1216.0" style="stroke:#010101; fill:none;"/>
	<path d="M 1420.0,1218.0 L 1421.0,1218.0" style="stroke:#010101; fill:none;"/>
	<path d="M 1446.0,1221.0 L 1445.0,1218.0 L 1448.0,1219.0" style="stroke:#010101; fill:none;"/>
	<path d="M 1456.0,1218.0 L 1458.0,1220.0" style="stroke:#010101; fill:none;"/>
	<path d="M 1433.0,1219.0 L 1434.0,1220.0" style="stroke:#010101; fill:none;"/>
	<path d="M 1446.0,1219.0 C 1443.75,1223.36 1440.76,1224.34 1436.0,1224.0" style="stroke:#010101; fill:none;"/>
	<path d="M 1470.0,1219.0 L 1474.0,1223.0" style="stroke:#010101; fill:none;"/>
	<path d="M 1399.0,1220.0 C 1393.57,1227.02 1385.39,1227.98 1377.0,1228.0" style="stroke:#010101; fill:none;"/>
	<path d="M 1425.0,1221.0 L 1430.0,1222.0" style="stroke:#010101; fill:none;"/>
	<path d="M 1437.0,1221.0 L 1442.0,1222.0" style="stroke:#010101; fill:none;"/>
	<path d="M 1450.0,1221.0 L 1459.0,1221.0" style="stroke:#010101; fill:none;"/>
	<path d="M 1440.0,1222.0 L 1440.0,1224.0" style="stroke:#010101; fill:none;"/>
	<path d="M 1453.0,1222.0 L 1439.0,1229.0 L 1446.0,1230.0 L 1445.0,1226.0" style="stroke:#010101; fill:none;"/>
	<path d="M 1458.0,1222.0 L 1464.0,1224.0 L 1464.0,1224.0" style="stroke:#010101; fill:none;"/>
	<path d="M 724.0,1223.0 C 736.7,1267.09 784.237,1295.16 814.961,1325.09 C 828.327,1338.11 835.794,1355.17 845.0,1371.0" style="stroke:#010101; fill:none;"/>
	<path d="M 1236.0,1223.0 L 1251.0,1235.0" style="stroke:#010101; fill:none;"/>
	<path d="M 1431.0,1223.0 L 1432.0,1223.0" style="stroke:#010101; fill:none;"/>
	<path d="M 1326.0,1224.0 L 1326.0,1225.0" style="stroke:#010101; fill:none;"/>
	<path d="M 1474.0,1224.0 L 1476.0,1226.0" style="stroke:#010101; fill:none;"/>
	<path d="M 1435.0,1225.0 L 1439.0,1229.0" style="stroke:#010101; fill:none;"/>
	<path d="M 1360.0,1226.0 L 1356.0,1233.0 L 1362.0,1242.0 L 1352.0,1241.0" style="stroke:#010101; fill:none;"/>
	<path d="M 1439.0,1226.0 L 1438.0,1227.0" style="stroke:#010101; fill:none;"/>
	<path d="M 1452.0,1226.0 L 1457.0,1228.0 L 1447.0,1228.0" style="stroke:#010101; fill:none;"/>
	<path d="M 1465.0,1226.0 L 1456.0,1230.0" style="stroke:#010101; fill:none;"/>
	<path d="M 1111.0,1227.0 L 1074.0,1274.0" style="stroke:#010101; fill:none;"/>
	<path d="M 1350.0,1227.0 L 1356.0,1231.0" style="stroke:#010101; fill:none;"/>
	<path d="M 1366.0,1227.0 L 1361.0,1232.0 C 1372.13,1235.77 1382.84,1237.1 1394.0,1233.0" style="stroke:#010101; fill:none;"/>
	<path d="M 1435.0,1227.0 L 1437.0,1229.0" style="stroke:#010101; fill:none;"/>
	<path d="M 1458.0,1228.0 L 1459.0,1230.0" style="stroke:#010101; fill:none;"/>
	<path d="M 1463.0,1228.0 L 1467.0,1231.0 L 1463.0,1233.0 L 1499.0,1281.0" style="stroke:#010101; fill:none;"/>
	<path d="M 1442.0,1229.0 L 1442.0,1231.0" style="stroke:#010101; fill:none;"/>
	<path d="M 1470.0,1229.0 C 1466.88,1234.89 1474.08,1242.02 1480.0,1243.0 L 1479.0,1244.0" style="stroke:#010101; fill:none;"/>
	<path d="M 1444.0,1230.0 L 1443.0,1232.0" style="stroke:#010101; fill:none;"/>
	<path d="M 1446.0,1230.0 L 1450.0,1234.0 L 1448.0,1232.0" style="stroke:#010101; fill:none;"/>
	<path d="M 1459.0,1230.0 L 1462.0,1232.0" style="stroke:#010101; fill:none;"/>
	<path d="M 1356.0,1233.0 L 1352.0,1239.0" style="stroke:#010101; fill:none;"/>
	<path d="M 1445.0,1233.0 L 1447.0,1233.0" style="stroke:#010101; fill:none;"/>
	<path d="M 1452.0,1233.0 L 1451.0,1235.0" style="stroke:#010101; fill:none;"/>
	<path d="M 1308.0,1234.0 L 1312.0,1237.0" style="stroke:#010101; fill:none;"/>
	<path d="M 1453.0,1234.0 L 1463.0,1237.0" style="stroke:#010101; fill:none;"/>
	<path d="M 1475.0,1234.0 L 1479.0,1241.0" style="stroke:#010101; fill:none;"/>
	<path d="M 1478.0,1234.0 C 1481.55,1237.02 1483.08,1237.72 1487.0,1235.0 L 1487.0,1234.0" style="stroke:#010101; fill:none;"/>
	<path d="M 1482.0,1234.0 L 1478.0,1238.0" style="stroke:#010101; fill:none;"/>
	<path d="M 1484.0,1235.0 L 1483.0,1237.0" style="stroke:#010101; fill:none;"/>
	<path d="M 1486.0,1238.0 L 1487.0,1242.0 C 1479.28,1246.49 1483.23,1251.8 1488.0,1257.0 C 1488.91,1252.17 1486.21,1249.43 1483.0,1246.0" style="stroke:#010101; fill:none;"/>
	<path d="M 1483.0,1240.0 L 1485.0,1242.0" style="stroke:#010101; fill:none;"/>
	<path d="M 1484.0,1241.0 L 1482.0,1244.0" style="stroke:#010101; fill:none;"/>
	<path d="M 689.0,1242.0 L 690.0,1243.0" style="stroke:#010101; fill:none;"/>
	<path d="M 1362.0,1243.0 L 1376.0,1244.0 L 1368.0,1250.0 L 1382.0,1256.0 L 1374.0,1264.0 L 1372.0,1254.0" style="stroke:#010101; fill:none;"/>
	<path d="M 1413.0,1242.0 C 1399.48,1251.54 1388.51,1244.74 1374.0,1244.0" style="stroke:#010101; fill:none;"/>
	<path d="M 1487.0,1242.0 L 1499.0,1270.0" style="stroke:#010101; fill:none;"/>
	<path d="M 1480.0,1243.0 L 1482.0,1243.0" style="stroke:#010101; fill:none;"/>
	<path d="M 1479.0,1244.0 L 1481.0,1248.0" style="stroke:#010101; fill:none;"/>
	<path d="M 874.0,1245.0 L 884.0,1260.0 L 882.0,1262.0 L 880.0,1259.0" style="stroke:#010101; fill:none;"/>
	<path d="M 1469.0,1245.0 L 1474.0,1250.0" style="stroke:#010101; fill:none;"/>
	<path d="M 1259.0,1246.0 L 1271.0,1251.0" style="stroke:#010101; fill:none;"/>
	<path d="M 1367.0,1246.0 L 1368.0,1249.0" style="stroke:#010101; fill:none;"/>
	<path d="M 1375.0,1246.0 L 1370.0,1251.0" style="stroke:#010101; fill:none;"/>
	<path d="M 1487.0,1249.0 L 1488.0,1248.0" style="stroke:#010101; fill:none;"/>
	<path d="M 1491.0,1248.0 L 1488.0,1251.0" style="stroke:#010101; fill:none;"/>
	<path d="M 1485.0,1250.0 L 1484.0,1251.0" style="stroke:#010101; fill:none;"/>
	<path d="M 1474.0,1251.0 L 1477.0,1254.0" style="stroke:#010101; fill:none;"/>
	<path d="M 1494.0,1253.0 L 1499.0,1263.0" style="stroke:#010101; fill:none;"/>
	<path d="M 1489.0,1254.0 L 1488.0,1255.0" style="stroke:#010101; fill:none;"/>
	<path d="M 1494.0,1255.0 L 1496.0,1258.0" style="stroke:#010101; fill:none;"/>
	<path d="M 1383.0,1256.0 L 1390.0,1259.0 L 1380.0,1269.0 C 1392.15,1275.65 1400.93,1281.36 1413.0,1273.0" style="stroke:#010101; fill:none;"/>
	<path d="M 1478.0,1256.0 L 1481.0,1259.0" style="stroke:#010101; fill:none;"/>
	<path d="M 1272.0,1258.0 L 1274.0,1257.0" style="stroke:#010101; fill:none;"/>
	<path d="M 1384.0,1258.0 L 1380.0,1269.0" style="stroke:#010101; fill:none;"/>
	<path d="M 1488.0,1258.0 L 1492.0,1260.0" style="stroke:#010101; fill:none;"/>
	<path d="M 1390.0,1259.0 L 1405.0,1259.0" style="stroke:#010101; fill:none;"/>
	<path d="M 1496.0,1259.0 L 1497.0,1260.0" style="stroke:#010101; fill:none;"/>
	<path d="M 1420.0,1260.0 C 1414.28,1264.11 1405.2,1264.31 1399.0,1261.0" style="stroke:#010101; fill:none;"/>
	<path d="M 1481.0,1260.0 L 1485.0,1264.0" style="stroke:#010101; fill:none;"/>
	<path d="M 1275.0,1261.0 L 1273.0,1263.0" style="stroke:#010101; fill:none;"/>
	<path d="M 1491.0,1261.0 L 1499.0,1274.0" style="stroke:#010101; fill:none;"/>
	<path d="M 885.0,1263.0 C 880.748,1266.76 887.871,1285.77 888.0,1292.0" style="stroke:#010101; fill:none;"/>
	<path d="M 1287.0,1262.0 C 1290.06,1290.19 1333.52,1299.32 1330.0,1328.0" style="stroke:#010101; fill:none;"/>
	<path d="M 882.0,1263.0 L 883.0,1264.0" style="stroke:#010101; fill:none;"/>
	<path d="M 885.0,1263.0 C 893.879,1275.58 894.299,1298.88 889.0,1313.0" style="stroke:#010101; fill:none;"/>
	<path d="M 1281.0,1265.0 L 1276.0,1270.0" style="stroke:#010101; fill:none;"/>
	<path d="M 1374.0,1265.0 L 1378.0,1267.0" style="stroke:#010101; fill:none;"/>
	<path d="M 1485.0,1265.0 L 1487.0,1265.0" style="stroke:#010101; fill:none;"/>
	<path d="M 1486.0,1266.0 L 1502.0,1293.0" style="stroke:#010101; fill:none;"/>
	<path d="M 1377.0,1270.0 L 1372.0,1288.0 L 1373.0,1283.0" style="stroke:#010101; fill:none;"/>
	<path d="M 444.0,1272.0 L 446.0,1276.0 L 447.0,1273.0" style="stroke:#010101; fill:none;"/>
	<path d="M 723.0,1272.0 L 724.0,1279.0 L 727.0,1276.0" style="stroke:#010101; fill:none;"/>
	<path d="M 1484.0,1272.0 L 1497.31,1294.0 L 1506.0,1318.0" style="stroke:#010101; fill:none;"/>
	<path d="M 1277.0,1273.0 L 1274.0,1281.0" style="stroke:#010101; fill:none;"/>
	<path d="M 443.0,1275.0 L 446.0,1277.0" style="stroke:#010101; fill:none;"/>
	<path d="M 443.0,1276.0 C 431.234,1294.56 423.803,1320.13 417.0,1341.0" style="stroke:#010101; fill:none;"/>
	<path d="M 1377.0,1276.0 C 1380.87,1287.92 1403.01,1297.69 1415.0,1298.07 C 1419.16,1298.2 1422.76,1295.28 1427.0,1295.0" style="stroke:#010101; fill:none;"/>
	<path d="M 1406.0,1279.0 C 1414.29,1283.48 1428.23,1278.47 1437.0,1276.0" style="stroke:#010101; fill:none;"/>
	<path d="M 445.0,1278.0 C 442.349,1297.59 433.526,1318.15 427.505,1337.0 C 414.558,1377.52 400.89,1417.7 376.492,1453.0 C 363.384,1471.96 343.843,1485.33 331.0,1504.0 C 322.782,1502.34 307.486,1516.35 300.0,1520.58 C 277.734,1533.15 252.872,1541.11 228.0,1546.58 C 190.382,1554.84 151.078,1555.73 113.0,1550.72 C 92.6987,1548.05 71.3425,1540.17 51.0,1540.0" style="stroke:#010101; fill:none;"/>
	<path d="M 1292.0,1278.0 L 1287.0,1288.0" style="stroke:#010101; fill:none;"/>
	<path d="M 724.0,1279.0 C 725.122,1292.73 729.707,1310.27 737.0,1322.0 L 752.0,1310.0" style="stroke:#010101; fill:none;"/>
	<path d="M 1377.0,1279.0 L 1375.0,1282.0" style="stroke:#010101; fill:none;"/>
	<path d="M 1416.0,1282.0 C 1423.72,1289.13 1428.12,1282.3 1437.0,1280.0" style="stroke:#010101; fill:none;"/>
	<path d="M 1420.0,1281.0 L 1426.0,1283.0" style="stroke:#010101; fill:none;"/>
	<path d="M 1300.0,1285.0 L 1293.0,1295.0" style="stroke:#010101; fill:none;"/>
	<path d="M 1375.0,1286.0 L 1379.0,1290.0 L 1383.0,1286.0" style="stroke:#010101; fill:none;"/>
	<path d="M 1372.0,1288.0 C 1373.64,1290.89 1374.73,1291.51 1378.0,1291.0 L 1379.0,1290.0 L 1379.0,1291.0" style="stroke:#010101; fill:none;"/>
	<path d="M 1298.0,1291.0 L 1301.0,1298.0" style="stroke:#010101; fill:none;"/>
	<path d="M 1380.0,1292.0 L 1384.0,1304.0 L 1389.0,1299.0 L 1383.0,1297.0" style="stroke:#010101; fill:none;"/>
	<path d="M 1298.0,1293.0 L 1296.0,1297.0" style="stroke:#010101; fill:none;"/>
	<path d="M 1375.0,1293.0 C 1370.64,1299.32 1375.53,1305.85 1380.0,1311.0 L 1372.0,1317.0 L 1371.0,1314.0" style="stroke:#010101; fill:none;"/>
	<path d="M 1380.0,1294.0 L 1374.0,1300.0" style="stroke:#010101; fill:none;"/>
	<path d="M 1307.0,1297.0 L 1306.0,1306.0" style="stroke:#010101; fill:none;"/>
	<path d="M 1422.0,1298.0 L 1432.0,1297.0" style="stroke:#010101; fill:none;"/>
	<path d="M 1499.0,1298.0 L 1503.0,1302.0 L 1501.0,1300.0" style="stroke:#010101; fill:none;"/>
	<path d="M 1390.0,1299.0 C 1393.6,1301.75 1401.64,1313.38 1405.0,1307.0 L 1403.0,1309.0" style="stroke:#010101; fill:none;"/>
	<path d="M 1417.0,1299.0 C 1423.69,1304.66 1430.03,1302.01 1438.0,1301.0" style="stroke:#010101; fill:none;"/>
	<path d="M 1309.0,1300.0 C 1311.93,1306.48 1307.59,1312.56 1304.0,1318.0" style="stroke:#010101; fill:none;"/>
	<path d="M 1502.0,1303.0 L 1508.0,1315.0" style="stroke:#010101; fill:none;"/>
	<path d="M 1383.0,1305.0 L 1387.42,1321.0 L 1378.0,1336.0 C 1382.97,1333.68 1389.49,1328.91 1388.0,1323.0" style="stroke:#010101; fill:none;"/>
	<path d="M 1399.0,1305.0 L 1402.0,1306.0" style="stroke:#010101; fill:none;"/>
	<path d="M 1406.0,1308.0 L 1412.0,1311.0" style="stroke:#010101; fill:none;"/>
	<path d="M 1318.0,1309.0 L 1323.0,1317.0" style="stroke:#010101; fill:none;"/>
	<path d="M 1324.0,1309.0 L 1322.0,1312.0" style="stroke:#010101; fill:none;"/>
	<path d="M 1498.0,1309.0 L 1506.0,1329.0" style="stroke:#010101; fill:none;"/>
	<path d="M 1380.0,1311.0 L 1383.0,1311.0" style="stroke:#010101; fill:none;"/>
	<path d="M 1330.0,1312.0 C 1339.51,1320.75 1353.24,1331.94 1366.0,1335.0" style="stroke:#010101; fill:none;"/>
	<path d="M 1404.0,1312.0 L 1415.0,1316.0 C 1405.65,1322.38 1399.53,1319.83 1389.0,1319.0" style="stroke:#010101; fill:none;"/>
	<path d="M 1415.0,1316.0 L 1430.0,1317.0" style="stroke:#010101; fill:none;"/>
	<path d="M 1372.0,1317.0 L 1359.0,1330.0" style="stroke:#010101; fill:none;"/>
	<path d="M 1373.0,1318.0 C 1373.22,1323.13 1374.24,1326.41 1378.0,1330.0" style="stroke:#010101; fill:none;"/>
	<path d="M 1328.0,1319.0 L 1328.0,1321.0" style="stroke:#010101; fill:none;"/>
	<path d="M 737.0,1322.0 C 739.012,1335.43 747.08,1350.06 753.363,1362.0 C 768.617,1390.98 787.742,1420.24 813.0,1441.56 C 820.955,1448.28 841.684,1470.94 852.0,1465.0" style="stroke:#010101; fill:none;"/>
	<path d="M 1408.0,1322.0 L 1431.0,1329.0" style="stroke:#010101; fill:none;"/>
	<path d="M 1338.0,1323.0 L 1337.0,1335.0" style="stroke:#010101; fill:none;"/>
	<path d="M 1374.0,1327.0 L 1368.0,1335.0" style="stroke:#010101; fill:none;"/>
	<path d="M 1343.0,1328.0 L 1347.0,1342.0" style="stroke:#010101; fill:none;"/>
	<path d="M 1391.0,1328.0 L 1393.0,1336.0 C 1399.89,1331.19 1407.76,1335.68 1415.0,1338.0" style="stroke:#010101; fill:none;"/>
	<path d="M 885.0,1329.0 C 891.131,1344.8 902.605,1353.21 915.0,1364.0" style="stroke:#010101; fill:none;"/>
	<path d="M 1052.0,1329.0 C 1044.28,1339.87 1038.24,1351.09 1025.0,1356.0" style="stroke:#010101; fill:none;"/>
	<path d="M 1072.0,1334.0 L 1074.0,1338.0" style="stroke:#010101; fill:none;"/>
	<path d="M 1343.0,1334.0 L 1342.0,1341.0" style="stroke:#010101; fill:none;"/>
	<path d="M 1349.0,1334.0 L 1353.0,1346.0" style="stroke:#010101; fill:none;"/>
	<path d="M 1355.0,1336.0 L 1367.0,1348.0" style="stroke:#010101; fill:none;"/>
	<path d="M 1391.0,1336.0 L 1392.0,1350.0 L 1398.0,1345.0" style="stroke:#010101; fill:none;"/>
	<path d="M 1394.0,1336.0 L 1410.0,1346.0" style="stroke:#010101; fill:none;"/>
	<path d="M 1377.0,1337.0 C 1378.2,1350.72 1384.52,1349.05 1394.0,1354.43 C 1399.59,1357.61 1404.42,1362.27 1411.0,1363.0" style="stroke:#010101; fill:none;"/>
	<path d="M 1381.0,1337.0 L 1390.0,1339.0" style="stroke:#010101; fill:none;"/>
	<path d="M 1074.0,1340.0 L 1074.0,1349.0" style="stroke:#010101; fill:none;"/>
	<path d="M 1062.0,1342.0 C 1062.0,1366.85 1046.52,1392.41 1020.0,1396.0" style="stroke:#010101; fill:none;"/>
	<path d="M 1367.0,1344.0 L 1375.0,1354.0" style="stroke:#010101; fill:none;"/>
	<path d="M 1364.0,1347.0 L 1364.0,1351.0" style="stroke:#010101; fill:none;"/>
	<path d="M 778.0,1349.0 L 772.0,1359.0 L 772.0,1360.0 L 774.0,1360.0" style="stroke:#010101; fill:none;"/>
	<path d="M 1392.0,1350.0 L 1392.0,1352.0" style="stroke:#010101; fill:none;"/>
	<path d="M 1394.0,1353.0 C 1399.08,1349.39 1402.54,1350.9 1408.0,1353.0" style="stroke:#010101; fill:none;"/>
	<path d="M 1074.0,1351.0 L 1074.0,1355.0" style="stroke:#010101; fill:none;"/>
	<path d="M 782.0,1353.0 L 775.0,1358.0" style="stroke:#010101; fill:none;"/>
	<path d="M 1387.0,1354.0 C 1389.59,1365.16 1397.63,1368.11 1407.0,1373.0" style="stroke:#010101; fill:none;"/>
	<path d="M 1074.0,1357.0 L 1074.0,1358.0" style="stroke:#010101; fill:none;"/>
	<path d="M 925.0,1359.0 C 947.84,1359.0 970.412,1358.57 989.0,1374.0" style="stroke:#010101; fill:none;"/>
	<path d="M 1404.0,1359.0 L 1409.0,1359.0" style="stroke:#010101; fill:none;"/>
	<path d="M 1073.0,1360.0 L 1073.0,1363.0" style="stroke:#010101; fill:none;"/>
	<path d="M 771.0,1361.0 L 764.0,1369.0" style="stroke:#010101; fill:none;"/>
	<path d="M 953.0,1364.0 C 965.255,1369.03 980.484,1378.51 994.0,1378.0" style="stroke:#010101; fill:none;"/>
	<path d="M 849.0,1377.0 C 858.808,1400.17 886.146,1416.08 902.714,1434.04 C 924.322,1457.47 935.779,1485.49 954.0,1511.0" style="stroke:#010101; fill:none;"/>
	<path d="M 960.0,1382.0 C 970.618,1379.5 982.648,1383.92 990.999,1390.52 C 995.816,1394.32 998.712,1399.72 1005.0,1401.0" style="stroke:#010101; fill:none;"/>
	<path d="M 1010.0,1397.0 L 1018.0,1397.0" style="stroke:#010101; fill:none;"/>
	<path d="M 820.0,1407.0 L 811.0,1419.0" style="stroke:#010101; fill:none;"/>
	<path d="M 684.0,1416.0 L 685.0,1417.0" style="stroke:#010101; fill:none;"/>
	<path d="M 686.0,1418.0 C 689.962,1440.29 714.771,1461.77 730.0,1477.0 C 772.242,1519.24 823.123,1548.94 884.0,1551.94 C 905.064,1552.97 925.229,1547.43 946.0,1547.0" style="stroke:#010101; fill:none;"/>
	<path d="M 805.0,1425.0 L 801.0,1429.0" style="stroke:#010101; fill:none;"/>
	<path d="M 864.0,1452.0 L 854.0,1462.0" style="stroke:#010101; fill:none;"/>
	<path d="M 382.0,1463.0 L 403.17,1480.75 L 442.0,1515.0" style="stroke:#010101; fill:none;"/>
	<path d="M 848.0,1468.0 C 860.629,1479.52 880.369,1486.99 896.0,1493.72 C 904.084,1497.2 909.976,1500.98 918.0,1496.0" style="stroke:#010101; fill:none;"/>
	<path d="M 900.0,1481.0 L 897.0,1486.0" style="stroke:#010101; fill:none;"/>
	<path d="M 904.0,1483.0 L 899.0,1486.0" style="stroke:#010101; fill:none;"/>
	<path d="M 894.0,1488.0 L 897.0,1486.0" style="stroke:#010101; fill:none;"/>
	<path d="M 915.0,1494.0 L 921.0,1495.0 L 918.0,1494.0" style="stroke:#010101; fill:none;"/>
	<path d="M 922.0,1495.0 L 925.0,1498.0" style="stroke:#010101; fill:none;"/>
	<path d="M 330.0,1501.0 L 332.0,1500.0" style="stroke:#010101; fill:none;"/>
	<path d="M 331.0,1505.0 C 298.805,1539.95 258.721,1565.64 212.0,1576.35 C 195.962,1580.03 179.41,1582.24 163.0,1582.96 C 156.442,1583.25 145.917,1580.89 140.213,1584.8 C 132.629,1590.0 130.007,1601.98 126.935,1610.0 C 123.905,1617.91 119.234,1625.28 115.691,1633.0 C 109.156,1647.24 101.423,1663.23 96.4699,1678.0 C 93.0742,1688.13 91.7062,1699.12 87.6744,1709.0 C 76.8699,1735.49 64.8583,1758.6 59.0,1787.0" style="stroke:#010101; fill:none;"/>
	<path d="M 390.0,1511.0 C 396.522,1510.2 403.468,1515.26 409.0,1518.43 C 423.195,1526.55 436.726,1535.47 450.0,1545.0" style="stroke:#010101; fill:none;"/>
	<path d="M 964.0,1514.0 L 973.0,1522.0" style="stroke:#010101; fill:none;"/>
	<path d="M 520.0,1522.0 C 533.665,1573.12 565.94,1624.83 608.0,1656.96 C 638.185,1680.02 673.82,1694.98 710.0,1705.72 C 735.047,1713.15 761.742,1720.0 788.0,1720.0" style="stroke:#010101; fill:none;"/>
	<path d="M 1380.0,1524.0 C 1353.71,1549.09 1319.96,1568.94 1290.0,1589.34 C 1251.18,1615.78 1212.94,1644.05 1171.0,1665.41 C 1153.5,1674.32 1134.84,1681.86 1116.0,1687.42 C 1108.74,1689.57 1101.87,1693.89 1095.0,1689.0" style="stroke:#010101; fill:none;"/>
	<path d="M 1.0,1525.0 L 15.0,1529.0" style="stroke:#010101; fill:none;"/>
	<path d="M 1046.0,1531.0 C 1041.06,1543.22 1033.3,1548.51 1023.0,1556.0" style="stroke:#010101; fill:none;"/>
	<path d="M 404.0,1536.0 C 413.494,1552.47 436.504,1565.46 452.0,1576.0" style="stroke:#010101; fill:none;"/>
	<path d="M 951.0,1539.0 L 981.0,1539.0" style="stroke:#010101; fill:none;"/>
	<path d="M 984.0,1538.0 L 985.0,1538.0" style="stroke:#010101; fill:none;"/>
	<path d="M 0.0,1563.0 C 17.177,1566.97 33.6176,1573.45 51.0,1577.0 C 79.5014,1582.81 109.014,1583.94 138.0,1584.0" style="stroke:#010101; fill:none;"/>
	<path d="M 396.0,1569.0 C 411.693,1588.26 439.204,1597.27 460.0,1610.0" style="stroke:#010101; fill:none;"/>
	<path d="M 132.0,1576.0 L 129.0,1583.0" style="stroke:#010101; fill:none;"/>
	<path d="M 141.0,1577.0 L 141.0,1583.0" style="stroke:#010101; fill:none;"/>
	<path d="M 127.0,1585.0 L 105.427,1627.0 L 90.561,1671.0 L 79.8503,1694.0 L 76.0694,1713.0 L 62.3233,1736.0 L 49.0,1775.0" style="stroke:#010101; fill:none;"/>
	<path d="M 946.0,1726.0 C 958.19,1714.47 979.406,1717.93 995.0,1715.88 C 1028.82,1711.42 1063.21,1702.24 1096.0,1693.0" style="stroke:#010101; fill:none;"/>
	<path d="M 300.0,1694.0 C 324.104,1707.72 360.768,1710.0 388.0,1710.0" style="stroke:#010101; fill:none;"/>
	<path d="M 651.0,1695.0 L 638.888,1738.0 L 634.0,1790.0" style="stroke:#010101; fill:none;"/>
	<path d="M 926.0,1726.0 C 931.65,1721.22 941.876,1719.91 949.0,1722.0" style="stroke:#010101; fill:none;"/>
	<path d="M 799.0,1722.0 L 800.0,1722.0" style="stroke:#010101; fill:none;"/>
	<path d="M 807.0,1723.0 L 844.0,1724.0" style="stroke:#010101; fill:none;"/>
	<path d="M 886.0,1724.0 L 927.0,1723.0" style="stroke:#010101; fill:none;"/>
	<path d="M 848.0,1724.0 L 850.0,1724.0" style="stroke:#010101; fill:none;"/>
	<path d="M 854.0,1724.0 L 855.0,1724.0" style="stroke:#010101; fill:none;"/>
	<path d="M 311.0,1725.0 C 335.616,1731.92 364.602,1729.0 390.0,1729.0" style="stroke:#010101; fill:none;"/>
	<path d="M 931.0,1727.0 L 935.0,1726.0" style="stroke:#010101; fill:none;"/>
	<path d="M 938.0,1726.0 L 940.0,1726.0" style="stroke:#010101; fill:none;"/>
	<path d="M 381.0,2056.0 C 381.0,1953.56 438.248,1850.78 519.0,1788.76 C 550.561,1764.53 593.753,1739.11 635.0,1739.0" style="stroke:#010101; fill:none;"/>
	<path d="M 289.0,1743.0 C 313.676,1747.58 341.905,1744.0 367.0,1744.0" style="stroke:#010101; fill:none;"/>
	<path d="M 302.0,1761.0 L 378.0,1765.0" style="stroke:#010101; fill:none;"/>
	<path d="M 314.0,1774.0 L 372.0,1782.0" style="stroke:#010101; fill:none;"/>
	<path d="M 330.0,1798.0 L 368.0,1800.96 L 402.0,1803.0" style="stroke:#010101; fill:none;"/>
	<path d="M 402.0,1943.0 C 394.322,1944.97 386.198,1953.92 378.0,1951.0 C 385.475,1943.55 393.48,1937.26 404.0,1935.0" style="stroke:#010101; fill:none;"/>
	<path d="M 379.0,1953.0 L 373.0,1953.0 L 378.0,1951.0" style="stroke:#010101; fill:none;"/>
	<path d="M 261.0,1988.0 C 296.49,1971.4 334.973,1961.72 373.0,1953.0" style="stroke:#010101; fill:none;"/>
	<path d="M 273.0,1992.0 L 306.0,1980.19 L 344.0,1963.75 L 374.0,1955.0" style="stroke:#010101; fill:none;"/>
</svg>
