<?xml version="1.0" ?>
<svg baseProfile="full" height="2251" version="1.1" width="1979" xmlns="http://www.w3.org/2000/svg" xmlns:ev="http://www.w3.org/2001/xml-events" xmlns:xlink="http://www.w3.org/1999/xlink">
	<defs/>
	<path d="M 1181.0,609.0 C 1175.62,612.832 1166.25,619.663 1160.0,616.0 L 1178.0,607.0" style="stroke:#010101; fill:none;"/>
	<path d="M 1171.0,618.0 L 1192.0,609.0" style="stroke:#010101; fill:none;"/>
	<path d="M 1162.0,614.0 L 1165.0,612.0" style="stroke:#010101; fill:none;"/>
	<path d="M 1156.0,613.0 C 1150.78,616.082 1144.18,622.035 1138.0,621.0 L 1144.0,616.0" style="stroke:#010101; fill:none;"/>
	<path d="M 1126.0,616.0 L 1116.0,622.0 C 1124.8,627.085 1126.37,620.034 1133.0,616.0" style="stroke:#010101; fill:none;"/>
	<path d="M 1137.0,616.0 L 1129.0,622.0" style="stroke:#010101; fill:none;"/>
	<path d="M 1135.0,631.0 L 1160.0,616.0" style="stroke:#010101; fill:none;"/>
	<path d="M 1118.0,620.0 L 1122.0,618.0" style="stroke:#010101; fill:none;"/>
	<path d="M 1123.0,623.0 L 1127.0,620.0" style="stroke:#010101; fill:none;"/>
	<path d="M 1139.0,623.0 L 1132.0,625.0 L 1138.0,621.0" style="stroke:#010101; fill:none;"/>
	<path d="M 1119.0,626.0 L 1111.0,624.0 L 1116.0,622.0" style="stroke:#010101; fill:none;"/>
	<path d="M 1109.0,625.0 L 1108.0,633.0 L 1105.0,628.0 L 1111.0,624.0" style="stroke:#010101; fill:none;"/>
	<path d="M 1133.0,627.0 L 1128.0,628.0 L 1132.0,625.0" style="stroke:#010101; fill:none;"/>
	<path d="M 1122.0,626.0 L 1121.0,627.0" style="stroke:#010101; fill:none;"/>
	<path d="M 1111.0,627.0 L 1114.0,628.0" style="stroke:#010101; fill:none;"/>
	<path d="M 1097.0,628.0 L 1097.0,630.0 L 1097.0,628.0" style="stroke:#010101; fill:none;"/>
	<path d="M 1109.0,633.0 L 1108.0,637.0 L 1102.0,638.0 L 1097.0,633.0 L 1105.0,628.0" style="stroke:#010101; fill:none;"/>
	<path d="M 1127.0,630.0 L 1124.0,633.0 L 1128.0,628.0" style="stroke:#010101; fill:none;"/>
	<path d="M 1075.0,642.0 L 1072.0,641.0 L 1096.0,629.0" style="stroke:#010101; fill:none;"/>
	<path d="M 1119.0,629.0 L 1114.0,631.0 L 1113.0,630.0" style="stroke:#010101; fill:none;"/>
	<path d="M 1130.0,629.0 L 1128.0,631.0" style="stroke:#010101; fill:none;"/>
	<path d="M 1100.0,632.0 L 1102.0,632.0 L 1098.0,630.0" style="stroke:#010101; fill:none;"/>
	<path d="M 1104.0,630.0 L 1106.0,633.0" style="stroke:#010101; fill:none;"/>
	<path d="M 1114.0,632.0 L 1111.0,635.0" style="stroke:#010101; fill:none;"/>
	<path d="M 1124.0,633.0 L 1121.0,635.0 L 1123.0,632.0" style="stroke:#010101; fill:none;"/>
	<path d="M 1101.0,638.0 C 1096.48,639.995 1093.2,636.865 1097.0,633.0" style="stroke:#010101; fill:none;"/>
	<path d="M 1106.0,633.0 L 1106.0,635.0" style="stroke:#010101; fill:none;"/>
	<path d="M 1118.0,637.0 L 1116.0,637.0 L 1121.0,634.0" style="stroke:#010101; fill:none;"/>
	<path d="M 1101.0,634.0 L 1100.0,635.0" style="stroke:#010101; fill:none;"/>
	<path d="M 1094.0,637.0 L 1096.0,637.0" style="stroke:#010101; fill:none;"/>
	<path d="M 1099.0,635.0 L 1097.0,637.0" style="stroke:#010101; fill:none;"/>
	<path d="M 1121.0,635.0 L 1119.0,637.0" style="stroke:#010101; fill:none;"/>
	<path d="M 1083.0,645.0 L 1093.0,636.0" style="stroke:#010101; fill:none;"/>
	<path d="M 1105.0,636.0 L 1107.0,638.0" style="stroke:#010101; fill:none;"/>
	<path d="M 1107.0,636.0 L 1096.0,652.0 C 1101.19,652.621 1096.39,663.78 1095.0,667.0 L 1097.0,665.0" style="stroke:#010101; fill:none;"/>
	<path d="M 1113.0,641.0 L 1110.0,642.0 L 1116.0,637.0" style="stroke:#010101; fill:none;"/>
	<path d="M 1082.0,643.0 L 1087.0,639.0" style="stroke:#010101; fill:none;"/>
	<path d="M 1096.0,639.0 L 1090.0,646.0 L 1094.0,648.0 C 1089.91,654.221 1090.23,666.343 1095.0,672.0 L 1096.0,668.0" style="stroke:#010101; fill:none;"/>
	<path d="M 1117.0,639.0 L 1114.0,641.0" style="stroke:#010101; fill:none;"/>
	<path d="M 1097.0,640.0 L 1092.0,645.0" style="stroke:#010101; fill:none;"/>
	<path d="M 1072.0,642.0 L 1045.75,672.0 L 993.0,756.0" style="stroke:#010101; fill:none;"/>
	<path d="M 1099.0,651.0 L 1110.0,642.0" style="stroke:#010101; fill:none;"/>
	<path d="M 1074.0,643.0 L 1072.0,645.0" style="stroke:#010101; fill:none;"/>
	<path d="M 1111.0,643.0 L 1108.0,646.0" style="stroke:#010101; fill:none;"/>
	<path d="M 1001.0,736.0 C 1007.36,717.384 1020.95,700.728 1032.37,685.0 C 1038.12,677.076 1041.96,669.232 1049.01,662.0 C 1055.18,655.677 1061.61,647.251 1070.0,644.0" style="stroke:#010101; fill:none;"/>
	<path d="M 1080.0,644.0 L 1079.0,647.0" style="stroke:#010101; fill:none;"/>
	<path d="M 1091.0,647.0 L 1081.0,659.0 C 1077.99,652.743 1084.59,647.521 1090.0,645.0" style="stroke:#010101; fill:none;"/>
	<path d="M 1082.0,646.0 L 1080.0,648.0" style="stroke:#010101; fill:none;"/>
	<path d="M 1033.0,700.0 L 1034.0,702.0 C 1039.9,681.962 1060.25,658.752 1077.0,647.0" style="stroke:#010101; fill:none;"/>
	<path d="M 1078.0,648.0 L 1072.0,656.0 L 1078.0,656.0" style="stroke:#010101; fill:none;"/>
	<path d="M 1094.0,648.0 L 1096.0,648.0" style="stroke:#010101; fill:none;"/>
	<path d="M 1088.0,650.0 L 1091.0,653.0" style="stroke:#010101; fill:none;"/>
	<path d="M 1087.0,651.0 L 1089.0,653.0" style="stroke:#010101; fill:none;"/>
	<path d="M 1089.0,651.0 L 1086.0,656.0" style="stroke:#010101; fill:none;"/>
	<path d="M 1095.0,653.0 L 1093.0,657.0" style="stroke:#010101; fill:none;"/>
	<path d="M 1070.0,665.0 L 1068.0,665.0 L 1072.0,656.0" style="stroke:#010101; fill:none;"/>
	<path d="M 1081.0,657.0 L 1082.0,658.0" style="stroke:#010101; fill:none;"/>
	<path d="M 1083.0,657.0 L 1085.0,657.0" style="stroke:#010101; fill:none;"/>
	<path d="M 1092.0,657.0 C 1088.45,661.562 1083.77,675.725 1094.0,675.0 L 1091.0,675.0" style="stroke:#010101; fill:none;"/>
	<path d="M 1079.0,658.0 C 1075.39,662.75 1070.84,668.844 1072.0,675.0 L 1081.0,660.0" style="stroke:#010101; fill:none;"/>
	<path d="M 1086.0,658.0 L 1086.0,663.0" style="stroke:#010101; fill:none;"/>
	<path d="M 1058.0,675.0 L 1056.0,676.0 L 1069.0,659.0" style="stroke:#010101; fill:none;"/>
	<path d="M 1086.0,663.0 L 1082.0,669.0 L 1087.0,673.0" style="stroke:#010101; fill:none;"/>
	<path d="M 1096.0,663.0 L 1096.0,664.0" style="stroke:#010101; fill:none;"/>
	<path d="M 1067.0,667.0 L 1069.0,668.0" style="stroke:#010101; fill:none;"/>
	<path d="M 1084.0,667.0 L 1084.0,669.0" style="stroke:#010101; fill:none;"/>
	<path d="M 1095.0,667.0 L 1093.0,669.0" style="stroke:#010101; fill:none;"/>
	<path d="M 1067.0,668.0 L 1040.0,714.0 L 1038.0,711.0 C 1027.77,727.74 1031.0,753.968 1031.0,773.0" style="stroke:#010101; fill:none;"/>
	<path d="M 1091.0,668.0 L 1089.0,670.0" style="stroke:#010101; fill:none;"/>
	<path d="M 1068.0,669.0 C 1063.67,682.71 1054.18,694.998 1048.12,708.0 C 1040.5,724.368 1036.41,745.075 1035.0,763.0" style="stroke:#010101; fill:none;"/>
	<path d="M 1081.0,670.0 L 1083.0,671.0" style="stroke:#010101; fill:none;"/>
	<path d="M 1081.0,671.0 C 1074.58,680.757 1066.15,695.047 1068.0,707.0 L 1075.0,692.0" style="stroke:#010101; fill:none;"/>
	<path d="M 1082.0,672.0 C 1081.18,677.243 1082.63,679.996 1086.0,684.0 C 1091.6,676.941 1084.2,675.35 1085.0,679.0 L 1086.0,680.0 L 1087.0,681.0" style="stroke:#010101; fill:none;"/>
	<path d="M 1093.0,672.0 L 1093.0,673.0" style="stroke:#010101; fill:none;"/>
	<path d="M 1085.0,673.0 L 1085.0,675.0" style="stroke:#010101; fill:none;"/>
	<path d="M 1095.0,673.0 L 1094.0,674.0" style="stroke:#010101; fill:none;"/>
	<path d="M 1070.0,675.0 L 1073.0,675.0" style="stroke:#010101; fill:none;"/>
	<path d="M 1088.0,675.0 L 1088.0,676.0" style="stroke:#010101; fill:none;"/>
	<path d="M 1070.0,676.0 L 1070.0,681.0 L 1069.0,677.0" style="stroke:#010101; fill:none;"/>
	<path d="M 1092.0,677.0 L 1091.0,680.0" style="stroke:#010101; fill:none;"/>
	<path d="M 1055.0,678.0 L 1046.0,692.0 L 1049.0,691.0" style="stroke:#010101; fill:none;"/>
	<path d="M 1087.0,678.0 L 1086.0,679.0" style="stroke:#010101; fill:none;"/>
	<path d="M 1139.0,678.0 L 1144.0,700.0 C 1153.21,693.296 1144.76,687.086 1143.0,678.0" style="stroke:#010101; fill:none;"/>
	<path d="M 1164.0,678.0 L 1165.67,693.0 L 1143.0,743.0 L 1142.0,738.0" style="stroke:#010101; fill:none;"/>
	<path d="M 1035.0,679.0 L 1036.0,680.0" style="stroke:#010101; fill:none;"/>
	<path d="M 1080.0,679.0 L 1082.0,684.0" style="stroke:#010101; fill:none;"/>
	<path d="M 1038.0,681.0 L 1038.0,682.0" style="stroke:#010101; fill:none;"/>
	<path d="M 1067.0,681.0 L 1070.0,681.0" style="stroke:#010101; fill:none;"/>
	<path d="M 1082.0,682.0 L 1082.0,684.0" style="stroke:#010101; fill:none;"/>
	<path d="M 1066.0,683.0 L 1068.0,684.0" style="stroke:#010101; fill:none;"/>
	<path d="M 1160.0,683.0 L 1162.0,699.0" style="stroke:#010101; fill:none;"/>
	<path d="M 1078.0,684.0 L 1076.0,689.0" style="stroke:#010101; fill:none;"/>
	<path d="M 1052.0,685.0 L 1048.0,688.0" style="stroke:#010101; fill:none;"/>
	<path d="M 1065.0,685.0 L 1066.0,688.0 L 1067.0,685.0" style="stroke:#010101; fill:none;"/>
	<path d="M 1083.0,685.0 C 1084.0,688.698 1082.63,689.425 1079.0,690.0 L 1074.0,716.0" style="stroke:#010101; fill:none;"/>
	<path d="M 1086.0,685.0 L 1085.0,686.0" style="stroke:#010101; fill:none;"/>
	<path d="M 1179.0,685.0 C 1180.4,689.737 1178.74,694.052 1179.55,698.714 C 1180.29,703.039 1183.57,706.616 1183.96,711.0 C 1184.34,715.302 1181.36,720.593 1182.77,724.701 C 1184.45,729.592 1192.24,730.015 1190.8,736.956 C 1189.86,741.504 1184.63,741.838 1181.0,743.0 L 1194.0,758.0 L 1198.0,749.0" style="stroke:#010101; fill:none;"/>
	<path d="M 1192.0,685.0 L 1185.0,708.0" style="stroke:#010101; fill:none;"/>
	<path d="M 1080.0,686.0 L 1080.0,689.0" style="stroke:#010101; fill:none;"/>
	<path d="M 1065.0,687.0 L 1064.0,692.0 L 1065.0,689.0" style="stroke:#010101; fill:none;"/>
	<path d="M 1158.0,689.0 L 1160.0,696.0" style="stroke:#010101; fill:none;"/>
	<path d="M 1146.0,690.0 L 1144.0,696.0" style="stroke:#010101; fill:none;"/>
	<path d="M 1063.0,691.0 L 1062.0,696.0 L 1064.0,693.0" style="stroke:#010101; fill:none;"/>
	<path d="M 1082.0,691.0 L 1081.0,694.0" style="stroke:#010101; fill:none;"/>
	<path d="M 1045.0,693.0 L 1047.0,694.0" style="stroke:#010101; fill:none;"/>
	<path d="M 1056.0,693.0 C 1062.5,704.719 1053.98,720.716 1048.0,731.0 L 1050.0,729.0" style="stroke:#010101; fill:none;"/>
	<path d="M 1045.0,694.0 L 1042.0,702.0 L 1046.0,695.0" style="stroke:#010101; fill:none;"/>
	<path d="M 1078.0,694.0 L 1080.0,697.0" style="stroke:#010101; fill:none;"/>
	<path d="M 1077.0,696.0 L 1077.0,701.0" style="stroke:#010101; fill:none;"/>
	<path d="M 1124.0,696.0 C 1127.13,701.866 1127.13,711.134 1124.0,717.0 L 1122.0,711.0" style="stroke:#010101; fill:none;"/>
	<path d="M 1061.0,697.0 L 1059.0,702.0" style="stroke:#010101; fill:none;"/>
	<path d="M 1066.0,700.0 L 1059.0,714.0" style="stroke:#010101; fill:none;"/>
	<path d="M 1144.0,700.0 L 1142.0,710.0 L 1136.0,703.0" style="stroke:#010101; fill:none;"/>
	<path d="M 1041.0,701.0 C 1037.45,705.657 1032.18,712.018 1034.0,718.0" style="stroke:#010101; fill:none;"/>
	<path d="M 1075.0,701.0 L 1075.0,702.0" style="stroke:#010101; fill:none;"/>
	<path d="M 1178.0,701.0 L 1174.0,712.0 C 1171.79,708.414 1172.04,706.695 1174.0,703.0" style="stroke:#010101; fill:none;"/>
	<path d="M 1201.0,701.0 C 1197.65,711.464 1194.22,733.026 1213.0,723.0 L 1204.0,716.0 L 1190.0,726.0 L 1200.0,736.0 L 1192.0,738.0" style="stroke:#010101; fill:none;"/>
	<path d="M 1042.0,702.0 L 1039.0,711.0" style="stroke:#010101; fill:none;"/>
	<path d="M 1056.0,702.0 L 1057.0,709.0" style="stroke:#010101; fill:none;"/>
	<path d="M 1104.0,702.0 C 1112.12,711.131 1112.91,730.5 1107.0,741.0" style="stroke:#010101; fill:none;"/>
	<path d="M 1032.0,705.0 L 1029.0,708.0 L 1032.0,703.0" style="stroke:#010101; fill:none;"/>
	<path d="M 1226.0,704.0 L 1223.0,712.0 L 1222.0,706.0" style="stroke:#010101; fill:none;"/>
	<path d="M 1209.0,705.0 L 1205.0,716.0" style="stroke:#010101; fill:none;"/>
	<path d="M 1055.0,707.0 L 1054.0,713.0" style="stroke:#010101; fill:none;"/>
	<path d="M 1066.0,707.0 L 1048.0,748.0" style="stroke:#010101; fill:none;"/>
	<path d="M 1068.0,707.0 L 1055.0,740.0" style="stroke:#010101; fill:none;"/>
	<path d="M 1078.0,707.0 L 1076.0,711.0" style="stroke:#010101; fill:none;"/>
	<path d="M 1216.0,708.0 C 1213.63,713.337 1212.44,717.0 1216.0,722.0 L 1223.0,713.0" style="stroke:#010101; fill:none;"/>
	<path d="M 1236.0,708.0 C 1232.56,714.455 1223.57,736.704 1215.0,723.0" style="stroke:#010101; fill:none;"/>
	<path d="M 1028.0,709.0 L 1021.0,721.0 L 1026.0,714.0" style="stroke:#010101; fill:none;"/>
	<path d="M 1015.0,710.0 L 1017.0,712.0" style="stroke:#010101; fill:none;"/>
	<path d="M 1142.0,710.0 C 1138.77,724.105 1132.85,743.651 1116.0,744.0 L 1119.0,733.0 L 1127.0,741.0" style="stroke:#010101; fill:none;"/>
	<path d="M 1170.0,712.0 L 1174.0,713.0" style="stroke:#010101; fill:none;"/>
	<path d="M 1025.0,712.0 L 1025.0,713.0" style="stroke:#010101; fill:none;"/>
	<path d="M 1052.0,713.0 L 1049.0,728.0" style="stroke:#010101; fill:none;"/>
	<path d="M 1169.0,713.0 L 1168.0,716.0 L 1173.0,715.0" style="stroke:#010101; fill:none;"/>
	<path d="M 1033.0,714.0 L 1035.0,716.0" style="stroke:#010101; fill:none;"/>
	<path d="M 1072.0,714.0 L 1070.0,719.0" style="stroke:#010101; fill:none;"/>
	<path d="M 1040.0,715.0 C 1034.62,725.994 1033.96,741.875 1033.0,754.0" style="stroke:#010101; fill:none;"/>
	<path d="M 1082.0,716.0 C 1094.85,725.268 1087.2,734.833 1090.03,747.0 C 1092.64,758.208 1102.27,754.005 1108.29,749.502 C 1110.86,747.578 1113.55,746.106 1116.0,744.0" style="stroke:#010101; fill:none;"/>
	<path d="M 1207.0,716.0 L 1208.0,717.0" style="stroke:#010101; fill:none;"/>
	<path d="M 1031.0,717.0 C 1022.67,731.649 1019.03,759.148 1027.0,775.0 L 1025.0,774.0" style="stroke:#010101; fill:none;"/>
	<path d="M 1124.0,717.0 C 1122.01,725.852 1125.86,728.863 1132.0,735.0" style="stroke:#010101; fill:none;"/>
	<path d="M 1167.0,718.0 C 1161.19,727.515 1165.55,728.882 1174.0,733.0 L 1182.0,726.0" style="stroke:#010101; fill:none;"/>
	<path d="M 1026.0,719.0 L 1026.0,722.0" style="stroke:#010101; fill:none;"/>
	<path d="M 1096.0,721.0 C 1099.17,732.945 1097.55,741.004 1096.0,753.0" style="stroke:#010101; fill:none;"/>
	<path d="M 1020.0,722.0 C 1019.6,741.391 1014.9,764.873 1024.0,783.0" style="stroke:#010101; fill:none;"/>
	<path d="M 1018.0,723.0 L 1015.0,727.0 L 1013.0,724.0" style="stroke:#010101; fill:none;"/>
	<path d="M 1213.0,723.0 L 1215.0,723.0" style="stroke:#010101; fill:none;"/>
	<path d="M 1074.0,724.0 C 1076.81,734.591 1082.0,749.132 1077.97,759.996 C 1076.68,763.454 1073.7,765.797 1072.0,769.0 C 1085.87,768.599 1087.85,762.656 1089.0,750.0" style="stroke:#010101; fill:none;"/>
	<path d="M 994.0,725.0 L 997.0,748.0" style="stroke:#010101; fill:none;"/>
	<path d="M 1121.0,726.0 L 1130.0,738.0" style="stroke:#010101; fill:none;"/>
	<path d="M 1188.0,726.0 L 1190.0,726.0" style="stroke:#010101; fill:none;"/>
	<path d="M 985.0,727.0 C 983.76,748.61 992.533,773.974 1000.0,794.0" style="stroke:#010101; fill:none;"/>
	<path d="M 1161.0,727.0 L 1160.0,733.0 L 1167.0,732.0" style="stroke:#010101; fill:none;"/>
	<path d="M 1202.0,727.0 L 1200.0,734.0" style="stroke:#010101; fill:none;"/>
	<path d="M 1217.0,727.0 C 1212.96,732.863 1207.88,739.513 1200.0,737.0" style="stroke:#010101; fill:none;"/>
	<path d="M 1001.0,728.0 L 1001.0,732.0" style="stroke:#010101; fill:none;"/>
	<path d="M 1011.0,728.0 L 1004.0,751.0 L 1002.0,743.0" style="stroke:#010101; fill:none;"/>
	<path d="M 1015.0,728.0 C 1009.89,744.815 1012.38,775.394 1018.0,792.0" style="stroke:#010101; fill:none;"/>
	<path d="M 1121.0,730.0 L 1119.0,732.0" style="stroke:#010101; fill:none;"/>
	<path d="M 1047.0,732.0 L 1047.0,740.0" style="stroke:#010101; fill:none;"/>
	<path d="M 1049.0,733.0 L 1048.0,734.0" style="stroke:#010101; fill:none;"/>
	<path d="M 1150.0,733.0 L 1149.0,745.0 L 1155.0,739.0 L 1160.0,744.0 L 1163.0,741.0 L 1152.0,736.0" style="stroke:#010101; fill:none;"/>
	<path d="M 1160.0,733.0 L 1157.0,736.0" style="stroke:#010101; fill:none;"/>
	<path d="M 1174.0,733.0 L 1164.0,742.0" style="stroke:#010101; fill:none;"/>
	<path d="M 1088.0,734.0 L 1090.0,741.0" style="stroke:#010101; fill:none;"/>
	<path d="M 1046.0,735.0 L 1046.0,738.0" style="stroke:#010101; fill:none;"/>
	<path d="M 1174.0,735.0 L 1181.0,743.0" style="stroke:#010101; fill:none;"/>
	<path d="M 1387.0,735.0 C 1419.01,777.053 1448.63,820.089 1478.09,864.0 C 1497.43,892.826 1517.62,920.342 1532.36,952.0 C 1545.39,979.989 1553.08,1009.31 1560.88,1039.0 C 1577.12,1100.74 1587.0,1164.15 1587.0,1228.0" style="stroke:#010101; fill:none;"/>
	<path d="M 1133.0,737.0 L 1139.0,739.0" style="stroke:#010101; fill:none;"/>
	<path d="M 1155.0,737.0 L 1155.0,739.0" style="stroke:#010101; fill:none;"/>
	<path d="M 968.0,739.0 L 967.0,745.0" style="stroke:#010101; fill:none;"/>
	<path d="M 1148.0,740.0 L 1151.0,743.0" style="stroke:#010101; fill:none;"/>
	<path d="M 1190.0,740.0 L 1198.0,747.0" style="stroke:#010101; fill:none;"/>
	<path d="M 1217.0,740.0 L 1207.0,748.0" style="stroke:#010101; fill:none;"/>
	<path d="M 1108.0,748.0 C 1106.07,745.245 1105.09,743.886 1107.0,741.0" style="stroke:#010101; fill:none;"/>
	<path d="M 1145.0,741.0 L 1147.0,741.0" style="stroke:#010101; fill:none;"/>
	<path d="M 1045.0,742.0 L 1044.0,748.0 L 1045.0,745.0" style="stroke:#010101; fill:none;"/>
	<path d="M 1109.0,742.0 L 1113.0,746.0" style="stroke:#010101; fill:none;"/>
	<path d="M 1180.0,742.0 L 1176.0,745.0" style="stroke:#010101; fill:none;"/>
	<path d="M 974.0,743.0 C 975.58,762.856 984.007,788.813 994.0,806.0" style="stroke:#010101; fill:none;"/>
	<path d="M 987.0,813.0 C 978.673,798.733 973.575,782.692 968.659,767.0 C 966.649,760.585 963.701,753.279 967.0,747.0 L 970.0,758.0" style="stroke:#010101; fill:none;"/>
	<path d="M 1212.0,748.0 L 1199.0,760.0" style="stroke:#010101; fill:none;"/>
	<path d="M 1043.0,749.0 L 1039.0,760.0" style="stroke:#010101; fill:none;"/>
	<path d="M 1047.0,750.0 L 1046.0,752.0" style="stroke:#010101; fill:none;"/>
	<path d="M 1004.0,751.0 L 1009.0,780.0" style="stroke:#010101; fill:none;"/>
	<path d="M 1210.0,751.0 L 1214.0,751.0" style="stroke:#010101; fill:none;"/>
	<path d="M 1073.0,753.0 L 1078.0,760.0" style="stroke:#010101; fill:none;"/>
	<path d="M 997.0,754.0 C 997.271,767.047 1001.72,783.094 1007.0,795.0" style="stroke:#010101; fill:none;"/>
	<path d="M 1106.0,754.0 C 1104.49,764.933 1096.97,768.426 1087.0,765.0" style="stroke:#010101; fill:none;"/>
	<path d="M 1069.0,755.0 L 1073.0,766.0" style="stroke:#010101; fill:none;"/>
	<path d="M 1089.0,755.0 C 1091.58,757.225 1092.99,758.902 1096.0,757.0" style="stroke:#010101; fill:none;"/>
	<path d="M 1031.0,756.0 L 1031.0,757.0" style="stroke:#010101; fill:none;"/>
	<path d="M 962.0,758.0 C 962.851,777.517 975.119,797.577 983.0,815.0" style="stroke:#010101; fill:none;"/>
	<path d="M 1096.0,759.0 L 1102.0,764.0" style="stroke:#010101; fill:none;"/>
	<path d="M 1194.0,759.0 L 1175.0,786.0 L 1191.0,785.0" style="stroke:#010101; fill:none;"/>
	<path d="M 971.0,760.0 C 973.741,776.126 981.508,797.667 991.0,811.0" style="stroke:#010101; fill:none;"/>
	<path d="M 1094.0,760.0 L 1091.0,765.0" style="stroke:#010101; fill:none;"/>
	<path d="M 1104.0,762.0 C 1108.5,766.053 1113.55,769.16 1117.32,774.001 C 1130.11,790.432 1129.09,809.956 1124.0,829.0 C 1145.0,826.207 1162.25,800.601 1175.0,786.0" style="stroke:#010101; fill:none;"/>
	<path d="M 1197.0,766.0 L 1209.0,762.0" style="stroke:#010101; fill:none;"/>
	<path d="M 1027.0,764.0 L 1027.0,772.0" style="stroke:#010101; fill:none;"/>
	<path d="M 1059.0,764.0 L 1067.0,772.0 C 1067.08,769.148 1066.85,768.319 1064.0,768.0" style="stroke:#010101; fill:none;"/>
	<path d="M 1065.0,764.0 L 1066.0,766.0" style="stroke:#010101; fill:none;"/>
	<path d="M 1078.0,764.0 L 1079.0,767.0" style="stroke:#010101; fill:none;"/>
	<path d="M 1089.0,767.0 C 1086.19,779.103 1063.53,790.241 1070.0,803.0 C 1074.37,799.474 1084.24,785.386 1091.0,790.0 L 1092.0,791.0 L 1094.0,790.0" style="stroke:#010101; fill:none;"/>
	<path d="M 1191.0,772.0 L 1205.0,768.0" style="stroke:#010101; fill:none;"/>
	<path d="M 1072.0,769.0 L 1058.0,808.0 L 1044.0,795.0" style="stroke:#010101; fill:none;"/>
	<path d="M 1079.0,770.0 L 1083.0,778.0" style="stroke:#010101; fill:none;"/>
	<path d="M 1059.0,771.0 L 1064.0,779.0" style="stroke:#010101; fill:none;"/>
	<path d="M 1068.0,771.0 L 1070.0,771.0" style="stroke:#010101; fill:none;"/>
	<path d="M 1198.0,772.0 L 1204.0,774.0" style="stroke:#010101; fill:none;"/>
	<path d="M 1066.0,773.0 L 1066.0,776.0" style="stroke:#010101; fill:none;"/>
	<path d="M 1071.0,774.0 L 1078.0,774.0" style="stroke:#010101; fill:none;"/>
	<path d="M 1077.0,775.0 L 1081.0,779.0" style="stroke:#010101; fill:none;"/>
	<path d="M 1026.0,776.0 L 1026.0,778.0" style="stroke:#010101; fill:none;"/>
	<path d="M 1186.0,777.0 L 1198.0,778.0" style="stroke:#010101; fill:none;"/>
	<path d="M 1073.0,778.0 L 1077.0,784.0" style="stroke:#010101; fill:none;"/>
	<path d="M 1064.0,779.0 C 1059.85,783.933 1058.67,786.814 1063.0,792.0" style="stroke:#010101; fill:none;"/>
	<path d="M 1052.0,780.0 L 1059.0,786.0" style="stroke:#010101; fill:none;"/>
	<path d="M 1073.0,781.0 L 1067.0,783.0" style="stroke:#010101; fill:none;"/>
	<path d="M 1049.0,783.0 L 1054.0,789.0 L 1049.0,793.0 L 1046.0,786.0" style="stroke:#010101; fill:none;"/>
	<path d="M 1073.0,783.0 L 1073.0,786.0" style="stroke:#010101; fill:none;"/>
	<path d="M 1182.0,787.0 L 1184.0,787.0" style="stroke:#010101; fill:none;"/>
	<path d="M 1059.0,788.0 L 1057.0,796.0 L 1050.0,802.0" style="stroke:#010101; fill:none;"/>
	<path d="M 1049.0,790.0 L 1051.0,793.0" style="stroke:#010101; fill:none;"/>
	<path d="M 1053.0,792.0 L 1056.0,791.0" style="stroke:#010101; fill:none;"/>
	<path d="M 1087.0,791.0 C 1085.72,799.395 1085.51,811.973 1098.0,806.0 C 1101.18,815.005 1086.37,826.427 1078.02,821.856 C 1069.37,817.13 1071.58,805.482 1062.0,801.0" style="stroke:#010101; fill:none;"/>
	<path d="M 1089.0,791.0 L 1091.0,791.0" style="stroke:#010101; fill:none;"/>
	<path d="M 1172.0,791.0 L 1181.0,793.0" style="stroke:#010101; fill:none;"/>
	<path d="M 1051.0,793.0 L 1054.0,796.0" style="stroke:#010101; fill:none;"/>
	<path d="M 1176.0,794.0 L 1171.0,798.0" style="stroke:#010101; fill:none;"/>
	<path d="M 1057.0,796.0 L 1060.0,799.0" style="stroke:#010101; fill:none;"/>
	<path d="M 1001.0,797.0 L 1002.0,800.0" style="stroke:#010101; fill:none;"/>
	<path d="M 1063.0,801.0 L 1067.0,799.0" style="stroke:#010101; fill:none;"/>
	<path d="M 1042.0,800.0 L 1045.0,807.0" style="stroke:#010101; fill:none;"/>
	<path d="M 1071.0,803.0 C 1067.26,806.319 1064.77,808.282 1060.0,806.0" style="stroke:#010101; fill:none;"/>
	<path d="M 1100.0,804.0 L 1099.0,806.0" style="stroke:#010101; fill:none;"/>
	<path d="M 1052.0,805.0 L 1047.0,810.0 C 1055.64,817.12 1057.09,827.378 1057.0,838.0 L 1053.0,839.0 L 1052.18,828.039 L 1042.0,812.0" style="stroke:#010101; fill:none;"/>
	<path d="M 1159.0,809.0 C 1168.64,805.398 1171.95,805.1 1181.0,812.0" style="stroke:#010101; fill:none;"/>
	<path d="M 1048.0,807.0 L 1049.0,808.0" style="stroke:#010101; fill:none;"/>
	<path d="M 1058.0,808.0 L 1053.0,814.0" style="stroke:#010101; fill:none;"/>
	<path d="M 1046.0,809.0 L 1047.0,810.0" style="stroke:#010101; fill:none;"/>
	<path d="M 1164.0,809.0 L 1170.0,810.0" style="stroke:#010101; fill:none;"/>
	<path d="M 1058.0,810.0 C 1062.23,815.9 1060.12,819.588 1055.0,824.0" style="stroke:#010101; fill:none;"/>
	<path d="M 1047.0,812.0 C 1047.9,815.375 1048.96,815.482 1052.0,814.0" style="stroke:#010101; fill:none;"/>
	<path d="M 1159.0,823.0 L 1154.0,818.0 L 1162.0,815.0" style="stroke:#010101; fill:none;"/>
	<path d="M 1149.0,817.0 L 1153.0,818.0" style="stroke:#010101; fill:none;"/>
	<path d="M 1009.0,818.0 C 1001.61,848.951 1002.4,882.46 1011.0,913.0" style="stroke:#010101; fill:none;"/>
	<path d="M 1043.0,818.0 L 1044.0,819.0" style="stroke:#010101; fill:none;"/>
	<path d="M 1157.0,818.0 L 1160.0,819.0" style="stroke:#010101; fill:none;"/>
	<path d="M 1141.0,822.0 L 1150.0,828.0" style="stroke:#010101; fill:none;"/>
	<path d="M 1042.0,824.0 L 1047.0,825.0" style="stroke:#010101; fill:none;"/>
	<path d="M 1052.0,824.0 L 1053.0,824.0" style="stroke:#010101; fill:none;"/>
	<path d="M 1047.0,825.0 C 1039.09,836.99 1042.47,859.594 1045.0,873.0" style="stroke:#010101; fill:none;"/>
	<path d="M 1039.0,826.0 L 1045.0,827.0" style="stroke:#010101; fill:none;"/>
	<path d="M 1124.0,829.0 L 1077.0,875.0" style="stroke:#010101; fill:none;"/>
	<path d="M 1045.0,835.0 L 1050.0,834.0" style="stroke:#010101; fill:none;"/>
	<path d="M 1128.0,835.0 L 1133.0,839.0" style="stroke:#010101; fill:none;"/>
	<path d="M 1136.0,838.0 L 1143.0,841.0" style="stroke:#010101; fill:none;"/>
	<path d="M 1101.0,849.0 C 1082.52,851.717 1072.57,855.406 1059.0,839.0 C 1054.31,842.341 1051.39,845.982 1052.05,852.0 C 1052.5,855.962 1055.59,863.543 1052.0,866.0 L 1052.0,863.0" style="stroke:#010101; fill:none;"/>
	<path d="M 1051.0,840.0 L 1048.0,842.0" style="stroke:#010101; fill:none;"/>
	<path d="M 1119.0,841.0 L 1120.0,842.0" style="stroke:#010101; fill:none;"/>
	<path d="M 1124.0,841.0 L 1126.0,843.0" style="stroke:#010101; fill:none;"/>
	<path d="M 1051.0,842.0 L 1053.0,844.0" style="stroke:#010101; fill:none;"/>
	<path d="M 1114.0,844.0 L 1110.0,854.0" style="stroke:#010101; fill:none;"/>
	<path d="M 1047.0,851.0 L 1051.0,850.0" style="stroke:#010101; fill:none;"/>
	<path d="M 1098.0,864.0 L 1086.0,878.0" style="stroke:#010101; fill:none;"/>
	<path d="M 1053.0,867.0 L 1056.0,889.0" style="stroke:#010101; fill:none;"/>
	<path d="M 1056.0,867.0 C 1057.15,872.661 1060.41,875.112 1066.0,876.0" style="stroke:#010101; fill:none;"/>
	<path d="M 1070.0,875.0 L 1074.0,874.0" style="stroke:#010101; fill:none;"/>
	<path d="M 1046.0,879.0 L 1047.0,886.0" style="stroke:#010101; fill:none;"/>
	<path d="M 1074.0,880.0 C 1069.64,884.39 1065.37,891.042 1059.0,892.0" style="stroke:#010101; fill:none;"/>
	<path d="M 1012.0,915.0 C 1026.67,946.42 1051.4,973.337 1078.0,995.0" style="stroke:#010101; fill:none;"/>
	<path d="M 770.0,939.0 L 788.0,940.0" style="stroke:#010101; fill:none;"/>
	<path d="M 790.0,941.0 C 798.923,942.297 810.676,950.695 818.0,956.0" style="stroke:#010101; fill:none;"/>
	<path d="M 733.0,958.0 C 755.382,951.525 777.495,945.029 801.0,948.0" style="stroke:#010101; fill:none;"/>
	<path d="M 803.0,957.0 C 778.724,958.075 755.834,964.639 733.0,972.333 C 725.102,974.994 710.887,983.851 703.0,981.0 C 709.801,974.126 721.159,970.907 730.0,967.399 C 749.133,959.807 778.216,951.057 799.0,954.147 C 805.243,955.075 813.133,959.387 819.0,962.0" style="stroke:#010101; fill:none;"/>
	<path d="M 664.0,1013.0 C 665.467,1015.84 665.25,1016.65 662.0,1017.0 C 665.673,1009.47 674.198,1007.05 681.0,1003.05 C 697.812,993.167 715.137,986.697 733.0,979.0 C 732.546,973.597 744.632,972.305 749.0,971.154 C 765.98,966.682 786.459,960.744 804.0,964.0" style="stroke:#010101; fill:none;"/>
	<path d="M 798.0,967.0 L 813.0,968.0" style="stroke:#010101; fill:none;"/>
	<path d="M 733.0,979.0 L 774.0,969.0" style="stroke:#010101; fill:none;"/>
	<path d="M 852.0,969.0 L 858.0,970.0" style="stroke:#010101; fill:none;"/>
	<path d="M 763.0,973.0 L 801.0,972.0" style="stroke:#010101; fill:none;"/>
	<path d="M 860.0,971.0 L 919.0,983.0" style="stroke:#010101; fill:none;"/>
	<path d="M 795.0,980.0 C 772.939,978.731 745.961,987.125 725.0,993.659 C 716.146,996.419 700.991,1004.35 692.0,1002.0 C 714.133,989.082 740.932,983.103 766.0,978.92 C 775.432,977.346 786.622,974.228 796.0,977.0" style="stroke:#010101; fill:none;"/>
	<path d="M 725.0,978.0 L 731.0,977.0" style="stroke:#010101; fill:none;"/>
	<path d="M 702.0,980.0 L 699.0,985.0 L 704.0,983.0" style="stroke:#010101; fill:none;"/>
	<path d="M 698.0,986.0 L 699.0,984.0" style="stroke:#010101; fill:none;"/>
	<path d="M 695.0,987.0 L 676.0,996.0" style="stroke:#010101; fill:none;"/>
	<path d="M 674.0,1017.0 C 710.862,1004.55 753.028,989.102 792.0,986.0" style="stroke:#010101; fill:none;"/>
	<path d="M 933.0,990.0 C 948.227,996.561 960.46,1008.46 972.0,1020.0" style="stroke:#010101; fill:none;"/>
	<path d="M 636.0,1040.0 C 642.705,1032.79 652.726,1033.2 661.0,1028.86 C 697.216,1009.9 739.747,1003.03 779.0,992.0" style="stroke:#010101; fill:none;"/>
	<path d="M 1080.0,996.0 L 1086.0,1001.0" style="stroke:#010101; fill:none;"/>
	<path d="M 686.0,998.0 L 688.0,998.0" style="stroke:#010101; fill:none;"/>
	<path d="M 680.0,1013.0 C 693.026,1004.91 712.09,1000.42 727.0,997.0" style="stroke:#010101; fill:none;"/>
	<path d="M 769.0,1001.0 L 712.0,1017.63 L 681.0,1026.0 C 687.117,1029.87 695.393,1026.03 702.0,1024.37 C 719.415,1020.02 736.332,1014.29 754.0,1011.0" style="stroke:#010101; fill:none;"/>
	<path d="M 689.0,1003.0 L 689.0,1005.0 L 692.0,1002.0" style="stroke:#010101; fill:none;"/>
	<path d="M 668.0,1016.0 L 688.0,1004.0" style="stroke:#010101; fill:none;"/>
	<path d="M 1090.0,1004.0 L 1137.0,1041.0" style="stroke:#010101; fill:none;"/>
	<path d="M 632.0,1012.0 C 629.171,1017.88 628.004,1029.16 631.0,1035.0 L 661.0,1018.0" style="stroke:#010101; fill:none;"/>
	<path d="M 673.0,1013.0 L 676.0,1016.0" style="stroke:#010101; fill:none;"/>
	<path d="M 675.0,1015.0 L 680.0,1013.0" style="stroke:#010101; fill:none;"/>
	<path d="M 1555.0,1017.0 L 1552.0,1020.0" style="stroke:#010101; fill:none;"/>
	<path d="M 723.0,1019.0 L 733.0,1020.0" style="stroke:#010101; fill:none;"/>
	<path d="M 720.0,1022.0 L 723.0,1021.0" style="stroke:#010101; fill:none;"/>
	<path d="M 768.0,1022.0 C 767.313,1028.03 769.413,1059.6 782.423,1047.06 C 785.329,1044.26 779.359,1036.48 776.586,1035.23 C 774.42,1034.26 771.216,1035.63 769.0,1036.0" style="stroke:#010101; fill:none;"/>
	<path d="M 777.0,1024.0 L 776.0,1034.0" style="stroke:#010101; fill:none;"/>
	<path d="M 792.0,1024.0 L 791.0,1028.0 L 798.0,1027.0 L 798.0,1036.0 L 802.0,1030.0" style="stroke:#010101; fill:none;"/>
	<path d="M 799.0,1026.0 C 814.675,1023.18 831.36,1028.76 847.0,1030.0" style="stroke:#010101; fill:none;"/>
	<path d="M 668.0,1026.0 L 681.0,1028.0" style="stroke:#010101; fill:none;"/>
	<path d="M 678.0,1026.0 L 681.0,1026.0" style="stroke:#010101; fill:none;"/>
	<path d="M 647.0,1050.0 L 644.0,1053.0 C 647.558,1044.94 657.339,1044.33 665.0,1041.98 C 684.788,1035.89 707.199,1026.91 728.0,1026.0" style="stroke:#010101; fill:none;"/>
	<path d="M 781.0,1026.0 L 786.0,1035.0 L 790.0,1032.0 L 784.0,1030.0" style="stroke:#010101; fill:none;"/>
	<path d="M 642.0,1027.0 L 645.0,1027.0" style="stroke:#010101; fill:none;"/>
	<path d="M 658.0,1030.0 L 661.0,1028.0" style="stroke:#010101; fill:none;"/>
	<path d="M 757.0,1027.0 L 760.0,1044.0 L 767.0,1037.0" style="stroke:#010101; fill:none;"/>
	<path d="M 657.0,1028.0 L 655.0,1030.0" style="stroke:#010101; fill:none;"/>
	<path d="M 791.0,1028.0 L 789.0,1030.0" style="stroke:#010101; fill:none;"/>
	<path d="M 861.0,1028.0 L 869.0,1030.0" style="stroke:#010101; fill:none;"/>
	<path d="M 674.0,1029.0 L 676.0,1029.0" style="stroke:#010101; fill:none;"/>
	<path d="M 683.0,1029.0 C 672.495,1036.02 655.312,1039.15 643.0,1042.0" style="stroke:#010101; fill:none;"/>
	<path d="M 778.0,1032.0 L 783.0,1030.0" style="stroke:#010101; fill:none;"/>
	<path d="M 742.0,1031.0 C 743.191,1037.7 752.564,1047.65 750.137,1053.98 C 748.337,1058.68 743.876,1058.84 740.0,1060.92 C 731.837,1065.3 713.633,1073.08 712.0,1082.0 L 713.0,1083.0 L 714.0,1082.0 L 713.0,1081.0 L 712.0,1080.0 C 711.28,1084.14 713.083,1092.25 717.968,1085.85 C 720.422,1082.63 720.286,1077.84 721.0,1074.0" style="stroke:#010101; fill:none;"/>
	<path d="M 629.0,1035.0 C 628.876,1041.01 624.235,1054.47 628.028,1059.48 C 632.802,1065.79 642.057,1058.4 647.0,1056.67 C 665.273,1050.27 684.281,1045.84 703.0,1041.0" style="stroke:#010101; fill:none;"/>
	<path d="M 645.0,1035.0 L 649.0,1035.0" style="stroke:#010101; fill:none;"/>
	<path d="M 786.0,1035.0 L 782.0,1040.0" style="stroke:#010101; fill:none;"/>
	<path d="M 798.0,1036.0 L 796.0,1042.0 C 791.523,1042.3 788.479,1042.83 787.0,1038.0" style="stroke:#010101; fill:none;"/>
	<path d="M 648.0,1052.0 C 668.068,1047.36 688.141,1037.17 709.0,1037.0" style="stroke:#010101; fill:none;"/>
	<path d="M 813.0,1037.0 L 808.0,1044.0 C 813.186,1046.01 815.584,1041.56 819.0,1038.0" style="stroke:#010101; fill:none;"/>
	<path d="M 630.0,1047.0 L 646.0,1037.0" style="stroke:#010101; fill:none;"/>
	<path d="M 1201.0,1041.0 L 1197.0,1043.0" style="stroke:#010101; fill:none;"/>
	<path d="M 1203.0,1041.0 L 1212.0,1041.0" style="stroke:#010101; fill:none;"/>
	<path d="M 1214.0,1041.0 L 1218.0,1041.0" style="stroke:#010101; fill:none;"/>
	<path d="M 1220.0,1041.0 L 1221.0,1041.0" style="stroke:#010101; fill:none;"/>
	<path d="M 796.0,1042.0 L 807.0,1045.0" style="stroke:#010101; fill:none;"/>
	<path d="M 1223.0,1042.0 L 1226.0,1042.0" style="stroke:#010101; fill:none;"/>
	<path d="M 788.0,1043.0 L 786.0,1045.0" style="stroke:#010101; fill:none;"/>
	<path d="M 826.0,1043.0 L 812.0,1051.0" style="stroke:#010101; fill:none;"/>
	<path d="M 760.0,1044.0 C 758.719,1048.23 756.138,1049.09 752.0,1050.0" style="stroke:#010101; fill:none;"/>
	<path d="M 726.0,1045.0 L 737.0,1056.0 L 748.0,1047.0" style="stroke:#010101; fill:none;"/>
	<path d="M 814.0,1046.0 L 818.0,1048.0" style="stroke:#010101; fill:none;"/>
	<path d="M 632.0,1052.0 L 646.0,1048.0" style="stroke:#010101; fill:none;"/>
	<path d="M 825.0,1048.0 C 836.216,1049.42 846.705,1049.0 858.0,1049.0 C 861.07,1049.0 867.213,1047.99 869.002,1051.32 C 870.882,1054.81 865.943,1059.54 864.0,1062.0" style="stroke:#010101; fill:none;"/>
	<path d="M 761.0,1049.0 L 771.0,1050.0" style="stroke:#010101; fill:none;"/>
	<path d="M 631.0,1059.0 L 644.0,1052.0" style="stroke:#010101; fill:none;"/>
	<path d="M 639.0,1063.0 L 650.0,1060.29 L 681.0,1051.0" style="stroke:#010101; fill:none;"/>
	<path d="M 700.0,1053.0 C 700.081,1062.82 703.757,1070.77 714.0,1073.0" style="stroke:#010101; fill:none;"/>
	<path d="M 703.0,1053.0 L 724.0,1071.0" style="stroke:#010101; fill:none;"/>
	<path d="M 1205.0,1053.0 C 1229.12,1053.0 1255.54,1069.42 1259.0,1095.0" style="stroke:#010101; fill:none;"/>
	<path d="M 714.0,1055.0 L 730.0,1066.0" style="stroke:#010101; fill:none;"/>
	<path d="M 737.0,1056.0 L 738.0,1060.0" style="stroke:#010101; fill:none;"/>
	<path d="M 705.0,1057.0 C 705.279,1060.07 708.194,1065.09 706.843,1067.89 C 703.173,1075.5 696.178,1065.93 695.0,1062.0" style="stroke:#010101; fill:none;"/>
	<path d="M 652.0,1061.0 L 664.0,1059.0" style="stroke:#010101; fill:none;"/>
	<path d="M 640.0,1060.0 L 643.0,1063.0" style="stroke:#010101; fill:none;"/>
	<path d="M 626.0,1061.0 L 628.0,1062.0" style="stroke:#010101; fill:none;"/>
	<path d="M 630.0,1062.0 L 633.0,1063.0" style="stroke:#010101; fill:none;"/>
	<path d="M 631.0,1063.0 C 626.797,1067.0 622.792,1071.04 628.0,1076.0 L 628.0,1073.0" style="stroke:#010101; fill:none;"/>
	<path d="M 861.0,1063.0 C 853.939,1069.29 844.173,1071.06 837.089,1077.33 C 823.112,1089.71 813.851,1106.67 799.0,1118.49 C 790.225,1125.46 781.065,1132.12 772.0,1138.72 C 768.114,1141.55 762.547,1144.06 759.872,1148.18 C 754.429,1156.57 756.726,1172.26 760.0,1181.0" style="stroke:#010101; fill:none;"/>
	<path d="M 1191.0,1063.0 C 1202.3,1069.97 1213.56,1077.4 1219.0,1090.0" style="stroke:#010101; fill:none;"/>
	<path d="M 628.0,1065.0 L 625.0,1066.0" style="stroke:#010101; fill:none;"/>
	<path d="M 706.0,1064.0 L 704.0,1066.0" style="stroke:#010101; fill:none;"/>
	<path d="M 702.0,1065.0 L 698.0,1069.0" style="stroke:#010101; fill:none;"/>
	<path d="M 628.0,1073.0 L 638.0,1066.0" style="stroke:#010101; fill:none;"/>
	<path d="M 630.0,1073.0 L 642.0,1068.0" style="stroke:#010101; fill:none;"/>
	<path d="M 1394.0,1070.0 C 1405.79,1072.27 1412.21,1083.2 1419.0,1092.0" style="stroke:#010101; fill:none;"/>
	<path d="M 624.0,1075.0 L 627.0,1076.0" style="stroke:#010101; fill:none;"/>
	<path d="M 637.0,1075.0 L 624.0,1084.0 L 625.0,1078.0" style="stroke:#010101; fill:none;"/>
	<path d="M 691.0,1075.0 C 696.988,1078.78 702.872,1081.02 710.0,1080.0" style="stroke:#010101; fill:none;"/>
	<path d="M 719.0,1085.0 C 729.509,1089.03 738.075,1071.97 749.985,1076.86 C 755.834,1079.26 758.804,1086.69 761.394,1092.0 C 769.899,1109.42 770.641,1128.62 757.674,1144.0 C 751.035,1151.87 741.467,1153.62 734.0,1160.0 C 726.529,1154.61 717.736,1155.12 711.61,1147.0 C 709.251,1143.87 704.285,1129.52 700.851,1128.92 C 697.563,1128.35 694.727,1135.58 690.99,1136.37 C 686.633,1137.29 685.571,1132.87 681.871,1132.4 C 673.538,1131.36 668.008,1138.81 659.0,1134.0" style="stroke:#010101; fill:none;"/>
	<path d="M 676.0,1081.0 C 680.366,1092.52 687.068,1098.0 699.0,1098.0 L 702.0,1128.0" style="stroke:#010101; fill:none;"/>
	<path d="M 623.0,1084.0 L 623.0,1091.0 L 634.0,1083.0" style="stroke:#010101; fill:none;"/>
	<path d="M 682.0,1083.0 C 690.244,1086.67 706.338,1094.51 714.0,1089.0" style="stroke:#010101; fill:none;"/>
	<path d="M 714.0,1083.0 L 717.0,1086.0" style="stroke:#010101; fill:none;"/>
	<path d="M 628.0,1089.0 L 629.0,1089.0" style="stroke:#010101; fill:none;"/>
	<path d="M 621.0,1092.0 L 621.0,1097.0 L 627.0,1095.0" style="stroke:#010101; fill:none;"/>
	<path d="M 706.0,1092.0 L 699.0,1098.0" style="stroke:#010101; fill:none;"/>
	<path d="M 711.0,1092.0 C 714.594,1099.05 708.046,1107.13 704.0,1113.0" style="stroke:#010101; fill:none;"/>
	<path d="M 730.0,1092.0 C 731.214,1096.11 730.289,1101.43 734.148,1104.26 C 737.172,1106.47 744.042,1104.81 745.187,1109.15 C 749.416,1125.17 714.862,1130.5 718.634,1108.0 C 719.06,1105.46 719.867,1103.16 721.414,1101.09 C 723.852,1097.82 726.918,1094.64 730.0,1092.0" style="stroke:#010101; fill:none;"/>
	<path d="M 669.0,1094.0 C 674.192,1099.95 682.943,1108.49 688.0,1098.0" style="stroke:#010101; fill:none;"/>
	<path d="M 676.0,1096.0 L 685.0,1096.0" style="stroke:#010101; fill:none;"/>
	<path d="M 1260.0,1097.0 L 1260.0,1105.0" style="stroke:#010101; fill:none;"/>
	<path d="M 1411.0,1097.0 C 1406.6,1106.41 1397.4,1116.51 1394.57,1126.0 C 1389.23,1143.9 1390.13,1161.81 1379.1,1178.0 C 1374.95,1184.09 1369.14,1190.35 1363.0,1194.49 C 1360.4,1196.24 1354.57,1196.13 1357.0,1200.0 L 1360.0,1198.0" style="stroke:#010101; fill:none;"/>
	<path d="M 620.0,1098.0 L 618.0,1108.0" style="stroke:#010101; fill:none;"/>
	<path d="M 688.0,1099.0 L 692.0,1105.0" style="stroke:#010101; fill:none;"/>
	<path d="M 698.0,1102.0 L 702.0,1107.0" style="stroke:#010101; fill:none;"/>
	<path d="M 698.0,1105.0 L 702.0,1110.0" style="stroke:#010101; fill:none;"/>
	<path d="M 694.0,1106.0 L 698.0,1106.0" style="stroke:#010101; fill:none;"/>
	<path d="M 822.0,1106.0 L 824.0,1106.0" style="stroke:#010101; fill:none;"/>
	<path d="M 668.0,1108.0 L 685.0,1115.0 L 680.0,1120.0 C 683.723,1123.75 687.168,1126.44 686.0,1132.0" style="stroke:#010101; fill:none;"/>
	<path d="M 696.0,1108.0 L 694.0,1113.0 L 701.0,1113.0" style="stroke:#010101; fill:none;"/>
	<path d="M 1264.0,1110.0 C 1260.13,1126.24 1239.06,1134.86 1245.0,1155.0" style="stroke:#010101; fill:none;"/>
	<path d="M 654.0,1111.0 L 661.0,1114.0 L 658.0,1114.0" style="stroke:#010101; fill:none;"/>
	<path d="M 699.0,1114.0 L 703.0,1118.0" style="stroke:#010101; fill:none;"/>
	<path d="M 685.0,1115.0 L 694.0,1114.0" style="stroke:#010101; fill:none;"/>
	<path d="M 662.0,1116.0 C 667.352,1118.95 672.976,1120.73 679.0,1119.0" style="stroke:#010101; fill:none;"/>
	<path d="M 688.0,1126.0 L 691.0,1116.0 L 698.0,1127.0" style="stroke:#010101; fill:none;"/>
	<path d="M 812.0,1116.0 L 814.0,1119.0" style="stroke:#010101; fill:none;"/>
	<path d="M 1241.0,1121.0 C 1241.09,1133.81 1232.27,1151.98 1226.0,1163.0" style="stroke:#010101; fill:none;"/>
	<path d="M 805.0,1124.0 L 809.0,1126.0" style="stroke:#010101; fill:none;"/>
	<path d="M 1237.0,1126.0 C 1223.38,1146.19 1222.0,1165.29 1222.0,1189.0" style="stroke:#010101; fill:none;"/>
	<path d="M 660.0,1127.0 C 666.825,1127.29 675.38,1126.96 681.0,1131.0" style="stroke:#010101; fill:none;"/>
	<path d="M 654.0,1128.0 L 656.0,1129.0" style="stroke:#010101; fill:none;"/>
	<path d="M 658.0,1130.0 L 663.0,1132.0" style="stroke:#010101; fill:none;"/>
	<path d="M 796.0,1130.0 L 798.0,1135.0" style="stroke:#010101; fill:none;"/>
	<path d="M 800.0,1130.0 L 802.0,1132.0" style="stroke:#010101; fill:none;"/>
	<path d="M 1401.0,1130.0 L 1401.0,1131.0" style="stroke:#010101; fill:none;"/>
	<path d="M 1401.0,1134.0 L 1402.0,1164.0" style="stroke:#010101; fill:none;"/>
	<path d="M 655.0,1137.0 L 663.0,1139.0" style="stroke:#010101; fill:none;"/>
	<path d="M 685.0,1137.0 C 682.288,1154.59 656.79,1157.87 644.0,1150.0" style="stroke:#010101; fill:none;"/>
	<path d="M 781.0,1140.0 L 786.0,1150.0" style="stroke:#010101; fill:none;"/>
	<path d="M 658.0,1141.0 L 682.0,1144.0" style="stroke:#010101; fill:none;"/>
	<path d="M 684.0,1142.0 C 688.793,1148.46 687.388,1156.9 684.299,1164.0 C 681.713,1169.95 675.324,1173.42 682.0,1179.0 L 685.0,1168.0 C 689.257,1172.44 691.278,1183.08 682.0,1179.0" style="stroke:#010101; fill:none;"/>
	<path d="M 1385.0,1142.0 L 1377.0,1151.0" style="stroke:#010101; fill:none;"/>
	<path d="M 657.0,1144.0 L 660.0,1145.0" style="stroke:#010101; fill:none;"/>
	<path d="M 775.0,1144.0 C 774.439,1147.53 773.674,1149.06 770.0,1149.0 L 771.0,1146.0" style="stroke:#010101; fill:none;"/>
	<path d="M 755.0,1147.0 L 758.0,1150.0" style="stroke:#010101; fill:none;"/>
	<path d="M 688.0,1148.0 L 707.0,1168.0" style="stroke:#010101; fill:none;"/>
	<path d="M 766.0,1149.0 L 766.0,1156.0" style="stroke:#010101; fill:none;"/>
	<path d="M 775.0,1149.0 L 777.0,1151.0" style="stroke:#010101; fill:none;"/>
	<path d="M 1073.0,1154.0 C 1073.75,1171.12 1087.83,1186.28 1100.0,1197.0" style="stroke:#010101; fill:none;"/>
	<path d="M 671.0,1155.0 C 664.795,1159.97 658.611,1160.41 651.0,1159.0" style="stroke:#010101; fill:none;"/>
	<path d="M 732.0,1157.0 L 736.0,1156.0" style="stroke:#010101; fill:none;"/>
	<path d="M 751.0,1159.0 L 751.0,1170.0" style="stroke:#010101; fill:none;"/>
	<path d="M 745.0,1163.0 L 747.0,1164.0 L 743.0,1169.0" style="stroke:#010101; fill:none;"/>
	<path d="M 1373.0,1162.0 C 1349.59,1176.92 1323.54,1187.97 1303.0,1207.09 C 1287.36,1221.65 1274.36,1238.6 1258.0,1252.41 C 1252.39,1257.14 1246.9,1263.33 1240.0,1266.0" style="stroke:#010101; fill:none;"/>
	<path d="M 645.0,1175.0 C 659.657,1178.45 670.356,1165.85 684.0,1164.0" style="stroke:#010101; fill:none;"/>
	<path d="M 692.0,1180.0 L 725.0,1165.0" style="stroke:#010101; fill:none;"/>
	<path d="M 733.0,1183.0 C 734.003,1176.21 736.388,1170.17 742.0,1166.0" style="stroke:#010101; fill:none;"/>
	<path d="M 1586.0,1166.0 L 1590.0,1170.0" style="stroke:#010101; fill:none;"/>
	<path d="M 674.0,1167.0 L 678.0,1171.0" style="stroke:#010101; fill:none;"/>
	<path d="M 685.0,1167.0 L 685.0,1168.0" style="stroke:#010101; fill:none;"/>
	<path d="M 729.0,1194.0 C 729.0,1185.81 727.078,1172.92 737.0,1170.0" style="stroke:#010101; fill:none;"/>
	<path d="M 1410.0,1170.0 C 1410.52,1195.41 1416.81,1219.23 1413.71,1245.0 C 1405.46,1313.78 1363.18,1370.27 1310.0,1412.49 C 1303.72,1417.47 1297.13,1422.5 1290.0,1426.22 C 1286.96,1427.8 1282.5,1428.11 1280.0,1430.0" style="stroke:#010101; fill:none;"/>
	<path d="M 685.0,1172.0 L 690.0,1177.0" style="stroke:#010101; fill:none;"/>
	<path d="M 726.0,1173.0 L 730.0,1175.0" style="stroke:#010101; fill:none;"/>
	<path d="M 720.0,1183.0 L 725.0,1174.0" style="stroke:#010101; fill:none;"/>
	<path d="M 1589.0,1175.0 L 1589.0,1177.0" style="stroke:#010101; fill:none;"/>
	<path d="M 718.0,1178.0 L 722.0,1176.0" style="stroke:#010101; fill:none;"/>
	<path d="M 727.0,1176.0 L 724.0,1186.0" style="stroke:#010101; fill:none;"/>
	<path d="M 710.0,1177.0 L 707.0,1181.0 L 712.0,1186.0" style="stroke:#010101; fill:none;"/>
	<path d="M 711.0,1184.0 L 718.0,1178.0" style="stroke:#010101; fill:none;"/>
	<path d="M 665.0,1184.0 L 674.0,1185.0 L 680.0,1179.0" style="stroke:#010101; fill:none;"/>
	<path d="M 1589.0,1180.0 L 1590.0,1184.0" style="stroke:#010101; fill:none;"/>
	<path d="M 700.0,1183.0 L 706.0,1185.0 L 707.0,1184.0 L 707.0,1183.0 C 701.207,1184.42 697.255,1186.22 695.0,1192.0" style="stroke:#010101; fill:none;"/>
	<path d="M 685.0,1182.0 C 684.563,1186.89 684.699,1189.17 688.0,1193.0 C 672.445,1195.73 667.753,1215.94 649.0,1215.0" style="stroke:#010101; fill:none;"/>
	<path d="M 676.0,1183.0 L 680.0,1185.0" style="stroke:#010101; fill:none;"/>
	<path d="M 695.0,1185.0 L 688.0,1192.0" style="stroke:#010101; fill:none;"/>
	<path d="M 1044.0,1185.0 C 1041.3,1193.53 1041.86,1201.62 1045.0,1210.0" style="stroke:#010101; fill:none;"/>
	<path d="M 674.0,1186.0 C 665.826,1194.81 654.331,1191.9 644.0,1189.0" style="stroke:#010101; fill:none;"/>
	<path d="M 682.0,1188.0 L 683.0,1188.0" style="stroke:#010101; fill:none;"/>
	<path d="M 1588.0,1188.0 L 1589.0,1189.0" style="stroke:#010101; fill:none;"/>
	<path d="M 683.0,1190.0 L 683.0,1192.0" style="stroke:#010101; fill:none;"/>
	<path d="M 1361.0,1190.0 L 1359.0,1195.0" style="stroke:#010101; fill:none;"/>
	<path d="M 1358.0,1194.0 L 1356.0,1196.0" style="stroke:#010101; fill:none;"/>
	<path d="M 686.0,1196.0 L 685.0,1199.0" style="stroke:#010101; fill:none;"/>
	<path d="M 655.0,1201.0 L 675.0,1199.0" style="stroke:#010101; fill:none;"/>
	<path d="M 1360.0,1199.0 C 1363.36,1204.81 1360.76,1210.17 1358.4,1216.0 C 1353.05,1229.19 1346.06,1242.57 1339.14,1255.0 C 1314.94,1298.48 1275.72,1335.08 1232.0,1358.46 C 1220.99,1364.35 1209.69,1369.91 1198.0,1374.32 C 1194.7,1375.56 1188.83,1379.21 1185.29,1377.76 C 1180.15,1375.66 1176.28,1367.26 1173.0,1363.0 C 1155.76,1376.09 1140.35,1388.33 1120.0,1396.55 C 1109.62,1400.74 1098.41,1401.66 1088.0,1405.44 C 1071.61,1411.38 1057.65,1419.0 1040.0,1419.0" style="stroke:#010101; fill:none;"/>
	<path d="M 1357.0,1200.0 C 1349.72,1207.33 1346.69,1210.99 1351.0,1221.0" style="stroke:#010101; fill:none;"/>
	<path d="M 1226.0,1201.0 C 1215.49,1214.24 1206.63,1224.04 1191.0,1231.0" style="stroke:#010101; fill:none;"/>
	<path d="M 1347.0,1211.0 L 1323.08,1238.0 L 1315.46,1249.0 L 1325.0,1261.0" style="stroke:#010101; fill:none;"/>
	<path d="M 1344.0,1215.0 L 1349.0,1216.0" style="stroke:#010101; fill:none;"/>
	<path d="M 1045.0,1216.0 C 1053.59,1252.26 1094.98,1265.87 1126.0,1250.0" style="stroke:#010101; fill:none;"/>
	<path d="M 1156.0,1228.0 C 1148.6,1228.02 1131.0,1234.74 1126.0,1230.0 C 1139.7,1222.04 1160.04,1220.94 1175.0,1226.0" style="stroke:#010101; fill:none;"/>
	<path d="M 1125.0,1230.0 L 1108.0,1242.0" style="stroke:#010101; fill:none;"/>
	<path d="M 1124.0,1232.0 L 1127.0,1233.0" style="stroke:#010101; fill:none;"/>
	<path d="M 1123.0,1235.0 L 1125.0,1234.0" style="stroke:#010101; fill:none;"/>
	<path d="M 1314.0,1250.0 L 1291.96,1275.0 L 1271.0,1296.0 L 1281.0,1304.0" style="stroke:#010101; fill:none;"/>
	<path d="M 1587.0,1260.0 L 1587.0,1261.0" style="stroke:#010101; fill:none;"/>
	<path d="M 1328.0,1263.0 L 1331.0,1267.0" style="stroke:#010101; fill:none;"/>
	<path d="M 1587.0,1265.0 L 1587.0,1267.0" style="stroke:#010101; fill:none;"/>
	<path d="M 1085.0,1392.0 C 1147.21,1367.24 1172.37,1297.0 1233.0,1271.0" style="stroke:#010101; fill:none;"/>
	<path d="M 1587.0,1271.0 L 1586.0,1308.0" style="stroke:#010101; fill:none;"/>
	<path d="M 1270.0,1295.0 L 1231.0,1323.67 L 1218.33,1334.1 L 1231.0,1351.0" style="stroke:#010101; fill:none;"/>
	<path d="M 1287.0,1310.0 L 1292.0,1315.0" style="stroke:#010101; fill:none;"/>
	<path d="M 1585.0,1315.0 L 1585.0,1316.0" style="stroke:#010101; fill:none;"/>
	<path d="M 604.0,1323.0 C 599.737,1333.19 611.443,1341.31 618.0,1348.0 C 621.068,1351.13 623.433,1355.25 628.0,1354.0 L 627.0,1351.0" style="stroke:#010101; fill:none;"/>
	<path d="M 1583.0,1327.0 C 1583.0,1353.52 1576.23,1380.71 1568.72,1406.0 C 1555.53,1450.45 1535.23,1493.14 1502.91,1526.99 C 1472.37,1558.96 1426.37,1583.91 1384.0,1596.0" style="stroke:#010101; fill:none;"/>
	<path d="M 1173.0,1363.0 L 1216.0,1333.0" style="stroke:#010101; fill:none;"/>
	<path d="M 605.0,1337.0 L 605.0,1339.0" style="stroke:#010101; fill:none;"/>
	<path d="M 1212.0,1337.0 L 1221.0,1340.0" style="stroke:#010101; fill:none;"/>
	<path d="M 1221.0,1343.0 L 1222.0,1344.0" style="stroke:#010101; fill:none;"/>
	<path d="M 626.0,1356.0 C 644.153,1377.07 665.281,1399.11 687.0,1416.49 C 697.333,1424.75 718.696,1438.34 723.0,1451.0 L 713.0,1444.0" style="stroke:#010101; fill:none;"/>
	<path d="M 1184.0,1379.0 C 1174.1,1384.73 1152.42,1392.84 1141.0,1391.0 L 1140.0,1388.0" style="stroke:#010101; fill:none;"/>
	<path d="M 1024.0,1388.0 L 1022.0,1394.0" style="stroke:#010101; fill:none;"/>
	<path d="M 1135.0,1391.0 L 1140.0,1393.0" style="stroke:#010101; fill:none;"/>
	<path d="M 1066.0,1404.0 L 1078.0,1393.0" style="stroke:#010101; fill:none;"/>
	<path d="M 1021.0,1400.0 C 1019.44,1407.55 1015.53,1417.82 1020.73,1424.79 C 1023.36,1428.32 1027.83,1430.9 1031.0,1434.0" style="stroke:#010101; fill:none;"/>
	<path d="M 1073.0,1422.0 C 1128.84,1422.0 1180.15,1445.34 1237.0,1438.28 C 1250.59,1436.6 1265.74,1434.46 1278.0,1428.0" style="stroke:#010101; fill:none;"/>
	<path d="M 715.0,1446.0 L 718.0,1443.0 L 720.0,1446.0" style="stroke:#010101; fill:none;"/>
	<path d="M 724.0,1452.0 C 747.947,1463.18 770.619,1478.34 793.0,1492.32 C 837.42,1520.05 885.105,1552.68 918.0,1594.0" style="stroke:#010101; fill:none;"/>
	<path d="M 1558.0,1464.0 L 1612.0,1478.71 L 1654.0,1482.0" style="stroke:#010101; fill:none;"/>
	<path d="M 1602.0,1481.0 C 1602.16,1500.23 1610.13,1520.55 1617.58,1538.0 C 1641.1,1593.13 1683.46,1636.84 1732.0,1670.96 C 1744.41,1679.69 1757.6,1688.1 1771.0,1695.22 C 1778.75,1699.33 1789.08,1702.41 1795.76,1708.1 C 1799.08,1710.94 1799.33,1717.13 1801.27,1721.0 C 1804.43,1727.32 1809.06,1732.05 1814.0,1737.0 C 1816.45,1728.73 1808.41,1720.6 1806.0,1713.0 C 1819.6,1716.15 1832.44,1722.53 1846.0,1726.12 C 1870.34,1732.54 1894.89,1735.0 1920.0,1735.0" style="stroke:#010101; fill:none;"/>
	<path d="M 885.0,1571.0 L 886.0,1574.0" style="stroke:#010101; fill:none;"/>
	<path d="M 907.0,1581.0 C 913.295,1580.12 919.597,1585.0 925.0,1587.92 C 935.697,1593.71 946.605,1599.27 958.0,1603.57 C 981.696,1612.52 1008.03,1618.38 1033.0,1622.56 C 1044.43,1624.48 1056.93,1624.7 1068.0,1628.0 C 1066.44,1635.38 1076.46,1640.62 1082.0,1643.88 C 1094.13,1651.02 1107.05,1658.15 1120.0,1663.59 C 1123.27,1664.96 1136.36,1669.08 1137.0,1670.0 L 1136.0,1672.0" style="stroke:#010101; fill:none;"/>
	<path d="M 1068.0,1628.0 C 1099.61,1628.0 1131.23,1631.35 1163.0,1629.96 C 1231.91,1626.94 1303.46,1617.74 1370.0,1599.0" style="stroke:#010101; fill:none;"/>
	<path d="M 1473.0,1655.0 C 1460.53,1675.37 1451.41,1704.17 1432.0,1719.0" style="stroke:#010101; fill:none;"/>
	<path d="M 1439.0,1663.0 C 1427.76,1679.53 1414.99,1699.81 1399.0,1712.0" style="stroke:#010101; fill:none;"/>
	<path d="M 1407.0,1666.0 C 1395.84,1683.92 1376.7,1703.57 1373.0,1725.0" style="stroke:#010101; fill:none;"/>
	<path d="M 1131.0,1667.0 L 1134.0,1667.0" style="stroke:#010101; fill:none;"/>
	<path d="M 1138.0,1669.0 L 1141.0,1670.0 L 1138.0,1673.0" style="stroke:#010101; fill:none;"/>
	<path d="M 1141.0,1670.0 C 1160.88,1674.16 1180.61,1681.75 1200.0,1687.81 C 1240.66,1700.52 1281.95,1714.25 1317.0,1739.21 C 1333.97,1751.28 1346.44,1766.72 1361.42,1780.78 C 1369.45,1788.31 1379.08,1793.76 1386.96,1802.0 C 1406.1,1822.03 1420.83,1848.19 1430.57,1874.0 C 1450.15,1925.87 1449.1,1984.72 1443.83,2039.0 C 1439.0,2088.73 1416.68,2129.49 1399.0,2175.0" style="stroke:#010101; fill:none;"/>
	<path d="M 1378.0,1673.0 L 1342.71,1713.0 L 1326.0,1732.0" style="stroke:#010101; fill:none;"/>
	<path d="M 1140.0,1674.0 L 1204.0,1698.0" style="stroke:#010101; fill:none;"/>
	<path d="M 1799.0,1710.0 L 1805.0,1712.0" style="stroke:#010101; fill:none;"/>
	<path d="M 1665.0,1714.0 L 1661.0,1784.0" style="stroke:#010101; fill:none;"/>
	<path d="M 1592.0,1725.0 C 1592.0,1739.7 1591.18,1754.37 1591.0,1769.0 C 1590.86,1781.08 1591.89,1793.63 1587.0,1805.0" style="stroke:#010101; fill:none;"/>
	<path d="M 1573.0,1727.0 C 1573.0,1753.71 1570.67,1790.49 1557.0,1814.0" style="stroke:#010101; fill:none;"/>
	<path d="M 1628.0,1737.0 L 1624.0,1813.0" style="stroke:#010101; fill:none;"/>
	<path d="M 1814.0,1737.0 L 1816.0,1742.0 L 1816.0,1736.0" style="stroke:#010101; fill:none;"/>
	<path d="M 1816.0,1742.0 C 1821.59,1779.86 1834.81,1820.38 1851.0,1855.0" style="stroke:#010101; fill:none;"/>
	<path d="M 1819.0,1742.0 L 1854.0,1843.0" style="stroke:#010101; fill:none;"/>
	<path d="M 1644.0,1744.0 C 1644.0,1762.65 1641.68,1782.92 1637.0,1801.0" style="stroke:#010101; fill:none;"/>
	<path d="M 1607.0,1748.0 C 1607.0,1773.09 1610.58,1801.32 1606.0,1826.0" style="stroke:#010101; fill:none;"/>
	<path d="M 1367.0,1784.0 C 1365.34,1792.22 1379.35,1807.51 1383.58,1815.0 C 1395.93,1836.87 1404.11,1861.51 1409.34,1886.0 C 1417.98,1926.54 1417.94,1967.08 1412.84,2008.0 C 1410.54,2026.53 1403.05,2045.37 1403.0,2064.0" style="stroke:#010101; fill:none;"/>
	<path d="M 1364.0,1785.0 L 1365.0,1786.0" style="stroke:#010101; fill:none;"/>
	<path d="M 1439.0,1975.0 L 1446.0,1975.0" style="stroke:#010101; fill:none;"/>
	<path d="M 1449.0,1977.0 C 1477.43,1993.83 1510.29,2006.89 1541.0,2019.17 C 1550.88,2023.12 1562.26,2023.55 1572.0,2027.73 C 1597.02,2038.46 1621.91,2054.78 1650.0,2056.0" style="stroke:#010101; fill:none;"/>
	<path d="M 1438.0,1983.0 L 1446.0,1986.0" style="stroke:#010101; fill:none;"/>
	<path d="M 1448.0,1989.0 L 1494.0,2011.77 L 1557.0,2035.67 L 1577.0,2039.93 L 1602.0,2054.68 L 1638.0,2067.0" style="stroke:#010101; fill:none;"/>
	<path d="M 1393.0,2100.0 L 1385.25,2125.0 L 1377.0,2153.0" style="stroke:#010101; fill:none;"/>
</svg>
