<?xml version="1.0" ?>
<svg baseProfile="full" height="2687" version="1.1" width="2333" xmlns="http://www.w3.org/2000/svg" xmlns:ev="http://www.w3.org/2001/xml-events" xmlns:xlink="http://www.w3.org/1999/xlink">
	<defs/>
	<path d="M 1283.0,805.0 C 1316.14,805.0 1355.44,801.258 1387.0,812.541 C 1405.9,819.298 1419.46,836.213 1438.0,843.0" style="stroke:#010101; fill:none;"/>
	<path d="M 654.0,1082.0 C 670.516,1076.77 686.417,1061.09 701.0,1051.69 C 734.577,1030.07 768.888,1007.34 804.0,988.309 C 837.661,970.061 874.048,957.593 909.0,942.14 C 960.936,919.177 1011.88,894.187 1064.0,871.576 C 1111.13,851.129 1157.55,822.312 1207.0,808.0" style="stroke:#010101; fill:none;"/>
	<path d="M 2028.0,842.0 C 2025.97,845.297 2017.02,854.885 2023.15,857.686 C 2027.54,859.692 2034.38,856.249 2039.0,856.039 C 2048.12,855.626 2058.02,857.809 2066.0,862.338 C 2084.08,872.596 2096.72,891.082 2108.0,908.0 C 2126.64,935.962 2143.98,964.862 2158.9,995.0 C 2173.27,1024.04 2185.95,1053.89 2200.11,1083.0 C 2210.78,1104.93 2223.9,1126.82 2231.59,1150.0 C 2237.7,1168.4 2237.2,1189.89 2238.04,1209.0 C 2239.1,1233.21 2240.37,1257.92 2243.29,1282.0 C 2245.55,1300.67 2248.18,1319.83 2253.15,1338.0 C 2259.06,1359.6 2267.12,1379.71 2270.58,1402.0 C 2277.55,1446.94 2275.0,1490.93 2275.0,1536.0" style="stroke:#010101; fill:none;"/>
	<path d="M 1450.0,853.0 L 1474.0,899.0" style="stroke:#010101; fill:none;"/>
	<path d="M 2011.0,854.0 L 2012.0,860.0 L 2021.0,859.0" style="stroke:#010101; fill:none;"/>
	<path d="M 2012.0,860.0 C 2005.12,871.178 2004.65,887.296 2002.2,900.0 C 1997.1,926.421 1992.23,952.905 1985.63,979.0 C 1981.16,996.648 1968.4,1015.09 1967.09,1033.0 C 1965.7,1051.98 1974.42,1071.27 1971.81,1090.0 C 1971.1,1095.11 1966.16,1095.91 1965.03,1100.14 C 1963.4,1106.23 1967.15,1110.2 1963.0,1116.0 L 1956.0,1109.0" style="stroke:#010101; fill:none;"/>
	<path d="M 1369.0,877.0 C 1386.73,887.309 1407.5,891.266 1426.0,899.942 C 1455.89,913.957 1484.11,935.465 1509.0,957.0" style="stroke:#010101; fill:none;"/>
	<path d="M 1111.0,970.0 C 1125.31,960.219 1138.65,949.613 1154.0,941.309 C 1189.38,922.17 1226.75,909.858 1265.0,897.974 C 1286.78,891.208 1311.88,880.671 1335.0,882.0" style="stroke:#010101; fill:none;"/>
	<path d="M 2009.0,971.0 C 2022.58,962.651 2035.33,952.78 2047.0,941.911 C 2051.21,937.992 2056.88,929.304 2063.0,928.582 C 2067.74,928.022 2085.42,944.319 2086.24,949.001 C 2086.89,952.72 2083.42,957.989 2083.09,962.0 C 2081.47,981.619 2075.7,1004.49 2079.0,1024.0" style="stroke:#010101; fill:none;"/>
	<path d="M 1176.0,1015.0 C 1193.72,1004.51 1209.37,990.714 1227.0,979.911 C 1260.35,959.48 1296.58,943.125 1333.0,929.0" style="stroke:#010101; fill:none;"/>
	<path d="M 2074.0,938.0 C 2068.43,944.592 2069.68,952.866 2068.71,961.0 C 2066.59,979.019 2064.0,997.854 2064.0,1016.0" style="stroke:#010101; fill:none;"/>
	<path d="M 2049.0,950.0 L 2051.0,994.0" style="stroke:#010101; fill:none;"/>
	<path d="M 2089.0,950.0 C 2094.82,954.737 2107.96,962.292 2110.96,969.093 C 2112.82,973.306 2108.27,983.952 2108.04,989.0 C 2107.15,1008.6 2105.38,1028.55 2109.0,1048.0" style="stroke:#010101; fill:none;"/>
	<path d="M 2058.0,951.0 L 2057.0,992.0" style="stroke:#010101; fill:none;"/>
	<path d="M 2104.0,964.0 C 2099.2,970.674 2100.45,979.17 2099.91,987.0 C 2098.58,1006.43 2096.43,1028.75 2100.0,1048.0" style="stroke:#010101; fill:none;"/>
	<path d="M 2092.0,965.0 L 2089.0,1032.0" style="stroke:#010101; fill:none;"/>
	<path d="M 2113.0,971.0 L 2121.0,976.0 C 2113.3,985.1 2115.89,999.823 2114.83,1011.0 C 2114.26,1016.99 2112.74,1024.12 2114.7,1030.0 C 2117.42,1038.17 2127.23,1044.85 2126.0,1054.0 L 2125.0,1051.0" style="stroke:#010101; fill:none;"/>
	<path d="M 2122.0,976.0 L 2147.0,999.0" style="stroke:#010101; fill:none;"/>
	<path d="M 1345.0,1002.0 C 1367.83,988.269 1397.2,978.151 1424.0,977.0" style="stroke:#010101; fill:none;"/>
	<path d="M 2126.0,981.0 C 2116.56,998.679 2127.05,1023.29 2123.0,1042.0" style="stroke:#010101; fill:none;"/>
	<path d="M 1346.0,1053.0 L 1377.78,1013.53 L 1392.0,1000.0 C 1397.73,1003.09 1402.7,998.366 1408.0,995.756 C 1419.52,990.08 1431.46,984.876 1444.0,982.0" style="stroke:#010101; fill:none;"/>
	<path d="M 2134.0,988.0 C 2130.97,993.715 2133.05,1000.64 2132.37,1007.0 C 2130.7,1022.7 2129.7,1048.11 2135.08,1063.0 C 2136.87,1067.94 2140.57,1075.58 2145.09,1078.53 C 2150.22,1081.88 2151.39,1075.48 2150.0,1072.0 L 2148.0,1079.0" style="stroke:#010101; fill:none;"/>
	<path d="M 1378.0,990.0 C 1344.61,1023.39 1316.71,1061.68 1291.0,1101.0" style="stroke:#010101; fill:none;"/>
	<path d="M 1084.0,991.0 L 1007.0,1064.0" style="stroke:#010101; fill:none;"/>
	<path d="M 1372.0,1059.0 C 1397.28,1033.73 1436.2,1007.52 1471.0,998.0" style="stroke:#010101; fill:none;"/>
	<path d="M 1385.0,1000.0 C 1380.7,1003.96 1374.09,1007.54 1375.0,1014.0" style="stroke:#010101; fill:none;"/>
	<path d="M 1357.0,1054.0 C 1361.04,1045.41 1371.47,1039.9 1379.0,1034.58 C 1398.1,1021.07 1418.37,1008.99 1440.0,1000.0" style="stroke:#010101; fill:none;"/>
	<path d="M 2142.0,1002.0 C 2141.13,1022.43 2138.41,1054.63 2149.0,1073.0" style="stroke:#010101; fill:none;"/>
	<path d="M 1391.0,1004.0 L 1394.0,1003.0" style="stroke:#010101; fill:none;"/>
	<path d="M 1347.0,1006.0 C 1325.79,1029.25 1307.83,1054.69 1290.66,1081.0 C 1282.88,1092.92 1272.05,1106.25 1268.0,1120.0" style="stroke:#010101; fill:none;"/>
	<path d="M 1410.0,1046.0 C 1433.01,1028.31 1461.52,1014.94 1489.0,1006.0" style="stroke:#010101; fill:none;"/>
	<path d="M 1335.0,1011.0 C 1311.76,1035.29 1290.52,1064.02 1271.92,1092.0 C 1264.29,1103.49 1253.88,1115.57 1250.0,1129.0" style="stroke:#010101; fill:none;"/>
	<path d="M 1438.0,1051.0 C 1454.95,1034.06 1478.87,1019.57 1502.0,1013.0" style="stroke:#010101; fill:none;"/>
	<path d="M 1013.0,1014.0 C 973.184,1040.35 928.834,1061.33 887.0,1084.31 C 871.337,1092.91 851.069,1110.37 833.0,1112.0" style="stroke:#010101; fill:none;"/>
	<path d="M 1318.0,1081.0 C 1334.55,1058.93 1348.29,1028.28 1373.0,1014.0" style="stroke:#010101; fill:none;"/>
	<path d="M 1499.0,1043.0 L 1504.0,1039.0 L 1497.0,1031.0 L 1521.0,1016.0" style="stroke:#010101; fill:none;"/>
	<path d="M 2018.0,1017.0 L 2024.71,1040.0 L 2028.0,1088.0 C 2046.55,1080.15 2055.04,1056.28 2076.0,1051.0" style="stroke:#010101; fill:none;"/>
	<path d="M 2015.0,1019.0 L 2016.0,1019.0" style="stroke:#010101; fill:none;"/>
	<path d="M 2151.0,1020.0 L 2151.0,1071.0" style="stroke:#010101; fill:none;"/>
	<path d="M 1300.0,1021.0 C 1279.57,1049.11 1257.98,1076.03 1238.67,1105.0 C 1233.66,1112.52 1228.62,1120.15 1224.17,1128.0 C 1222.9,1130.24 1218.81,1136.7 1224.0,1135.0" style="stroke:#010101; fill:none;"/>
	<path d="M 1314.0,1021.0 C 1285.76,1053.35 1262.62,1089.31 1239.0,1125.0" style="stroke:#010101; fill:none;"/>
	<path d="M 1524.0,1025.0 C 1520.51,1027.59 1508.21,1034.13 1508.21,1038.83 C 1508.21,1042.34 1515.43,1044.03 1518.0,1044.79 C 1529.5,1048.19 1541.57,1046.61 1553.0,1044.0" style="stroke:#010101; fill:none;"/>
	<path d="M 477.0,1073.0 C 486.027,1054.85 509.366,1039.0 526.0,1028.0" style="stroke:#010101; fill:none;"/>
	<path d="M 1474.0,1042.0 L 1496.0,1031.0" style="stroke:#010101; fill:none;"/>
	<path d="M 1538.0,1032.0 L 1529.0,1033.0" style="stroke:#010101; fill:none;"/>
	<path d="M 2115.0,1034.0 L 2116.0,1047.0" style="stroke:#010101; fill:none;"/>
	<path d="M 1263.0,1038.0 C 1240.28,1066.19 1218.29,1097.72 1201.76,1130.0 C 1196.13,1140.98 1186.58,1153.37 1186.0,1166.0" style="stroke:#010101; fill:none;"/>
	<path d="M 1278.0,1038.0 C 1243.06,1073.24 1224.64,1118.05 1202.0,1161.0" style="stroke:#010101; fill:none;"/>
	<path d="M 2130.0,1043.0 L 2127.0,1051.0" style="stroke:#010101; fill:none;"/>
	<path d="M 2160.0,1045.0 C 2161.58,1065.03 2162.89,1084.96 2164.85,1105.0 C 2165.25,1109.11 2163.19,1112.98 2163.99,1117.0 C 2166.86,1131.48 2176.77,1145.82 2181.32,1160.0 C 2192.05,1193.51 2199.68,1228.94 2204.73,1264.0 C 2207.62,1284.03 2210.33,1304.72 2208.91,1325.0 C 2208.12,1336.35 2201.94,1347.48 2204.39,1359.0 C 2207.73,1374.72 2222.5,1389.56 2232.0,1402.0" style="stroke:#010101; fill:none;"/>
	<path d="M 1506.0,1047.0 C 1521.66,1058.14 1543.68,1058.45 1562.0,1062.0" style="stroke:#010101; fill:none;"/>
	<path d="M 1422.0,1052.0 L 1408.0,1078.0" style="stroke:#010101; fill:none;"/>
	<path d="M 2129.0,1054.0 L 2132.0,1058.0" style="stroke:#010101; fill:none;"/>
	<path d="M 2126.0,1055.0 L 2128.0,1056.0" style="stroke:#010101; fill:none;"/>
	<path d="M 1532.0,1057.0 L 1534.0,1057.0" style="stroke:#010101; fill:none;"/>
	<path d="M 1241.0,1058.0 C 1220.67,1087.21 1196.45,1112.82 1180.25,1145.0 C 1176.29,1152.86 1171.81,1160.53 1169.22,1169.0 C 1168.11,1172.64 1167.24,1177.08 1172.0,1177.0" style="stroke:#010101; fill:none;"/>
	<path d="M 1534.0,1058.0 C 1545.63,1065.92 1564.3,1070.83 1578.0,1074.0" style="stroke:#010101; fill:none;"/>
	<path d="M 1448.0,1069.0 L 1458.0,1060.0" style="stroke:#010101; fill:none;"/>
	<path d="M 1474.0,1065.0 L 1469.0,1070.0" style="stroke:#010101; fill:none;"/>
	<path d="M 1518.0,1069.0 L 1494.0,1083.0" style="stroke:#010101; fill:none;"/>
	<path d="M 1441.0,1071.0 L 1431.0,1082.0" style="stroke:#010101; fill:none;"/>
	<path d="M 1543.0,1071.0 C 1553.02,1079.73 1564.72,1086.89 1577.0,1092.0" style="stroke:#010101; fill:none;"/>
	<path d="M 1527.0,1074.0 L 1532.0,1072.0" style="stroke:#010101; fill:none;"/>
	<path d="M 2149.0,1075.0 L 2151.0,1075.0" style="stroke:#010101; fill:none;"/>
	<path d="M 1460.0,1076.0 L 1450.0,1090.0" style="stroke:#010101; fill:none;"/>
	<path d="M 1454.0,1077.0 L 1438.0,1103.0" style="stroke:#010101; fill:none;"/>
	<path d="M 2149.0,1082.0 C 2151.74,1092.99 2156.11,1104.93 2163.0,1114.0" style="stroke:#010101; fill:none;"/>
	<path d="M 2174.0,1084.0 C 2173.52,1095.19 2174.6,1114.82 2168.0,1124.0" style="stroke:#010101; fill:none;"/>
	<path d="M 1954.0,1087.0 L 1956.0,1089.0" style="stroke:#010101; fill:none;"/>
	<path d="M 2124.0,1092.0 L 2121.0,1093.0 L 2125.0,1093.0" style="stroke:#010101; fill:none;"/>
	<path d="M 1206.0,1093.0 C 1189.5,1117.46 1174.32,1143.09 1160.23,1169.0 C 1155.88,1177.0 1145.91,1189.72 1147.0,1199.0 L 1150.0,1197.0" style="stroke:#010101; fill:none;"/>
	<path d="M 1196.0,1094.0 C 1173.38,1118.63 1156.62,1152.26 1141.75,1182.0 C 1136.11,1193.29 1127.59,1206.12 1127.0,1219.0" style="stroke:#010101; fill:none;"/>
	<path d="M 2122.0,1094.0 C 2118.88,1110.8 2122.73,1128.89 2120.71,1146.0 C 2119.8,1153.72 2116.28,1166.74 2120.18,1173.95 C 2124.15,1181.3 2137.62,1181.61 2143.71,1188.09 C 2163.07,1208.71 2171.82,1241.28 2169.91,1269.0 C 2169.59,1273.64 2168.93,1284.28 2164.69,1287.11 C 2159.65,1290.48 2150.74,1284.7 2146.0,1282.92 C 2134.93,1278.75 2115.27,1277.66 2107.62,1289.1 C 2102.57,1296.66 2116.11,1310.66 2118.38,1318.0 C 2123.31,1334.0 2116.38,1356.19 2116.0,1373.0" style="stroke:#010101; fill:none;"/>
	<path d="M 1680.0,1095.0 L 1670.0,1119.0" style="stroke:#010101; fill:none;"/>
	<path d="M 510.0,1179.0 C 538.039,1151.54 572.119,1119.77 608.0,1103.0" style="stroke:#010101; fill:none;"/>
	<path d="M 2184.0,1104.0 L 2184.0,1105.0" style="stroke:#010101; fill:none;"/>
	<path d="M 2007.0,1105.0 L 2014.92,1149.0 L 2021.0,1176.0 C 2024.52,1174.36 2025.82,1174.8 2029.0,1177.0" style="stroke:#010101; fill:none;"/>
	<path d="M 1395.0,1107.0 L 1388.0,1111.0" style="stroke:#010101; fill:none;"/>
	<path d="M 1603.0,1108.0 L 1578.0,1143.0" style="stroke:#010101; fill:none;"/>
	<path d="M 2183.0,1108.0 C 2183.0,1120.8 2188.25,1147.25 2180.0,1157.0" style="stroke:#010101; fill:none;"/>
	<path d="M 2026.0,1109.0 C 2028.91,1145.86 2055.85,1193.27 2098.0,1168.99 C 2103.87,1165.61 2108.66,1161.15 2113.0,1156.0" style="stroke:#010101; fill:none;"/>
	<path d="M 1967.0,1115.0 L 1974.08,1150.0 L 1974.78,1162.85 L 1966.26,1167.03 L 1959.0,1174.0 L 1951.0,1158.0" style="stroke:#010101; fill:none;"/>
	<path d="M 1166.0,1121.0 C 1149.07,1143.03 1137.12,1169.27 1124.75,1194.0 C 1120.65,1202.2 1111.65,1215.76 1113.0,1225.0 L 1117.0,1221.0" style="stroke:#010101; fill:none;"/>
	<path d="M 1494.0,1152.0 C 1508.57,1147.71 1521.45,1134.27 1534.0,1126.0" style="stroke:#010101; fill:none;"/>
	<path d="M 1377.0,1127.0 L 1366.0,1135.0" style="stroke:#010101; fill:none;"/>
	<path d="M 2191.0,1139.0 C 2192.31,1149.4 2193.99,1168.73 2187.0,1177.0" style="stroke:#010101; fill:none;"/>
	<path d="M 1964.0,1141.0 L 1966.0,1143.0" style="stroke:#010101; fill:none;"/>
	<path d="M 1568.0,1191.0 C 1576.28,1176.46 1578.43,1152.65 1592.0,1142.0" style="stroke:#010101; fill:none;"/>
	<path d="M 659.0,1202.0 C 677.581,1202.0 691.246,1192.24 707.0,1183.28 C 730.806,1169.75 755.197,1155.58 780.0,1144.0" style="stroke:#010101; fill:none;"/>
	<path d="M 1191.0,1333.0 C 1224.27,1304.21 1238.68,1265.65 1265.45,1232.0 C 1310.41,1175.49 1401.09,1122.45 1475.0,1151.46 C 1487.34,1156.31 1488.84,1164.74 1497.17,1174.0 C 1503.92,1181.51 1512.22,1186.69 1520.0,1193.0" style="stroke:#010101; fill:none;"/>
	<path d="M 1965.0,1153.0 L 1963.0,1156.0" style="stroke:#010101; fill:none;"/>
	<path d="M 1575.0,1154.0 L 1538.0,1173.0" style="stroke:#010101; fill:none;"/>
	<path d="M 994.0,1156.0 C 996.481,1175.53 1005.94,1193.6 1014.63,1211.0 C 1027.19,1236.13 1042.22,1264.76 1066.0,1281.0" style="stroke:#010101; fill:none;"/>
	<path d="M 1473.0,1156.0 L 1513.0,1197.0" style="stroke:#010101; fill:none;"/>
	<path d="M 1616.0,1192.0 L 1611.0,1195.0 C 1621.93,1199.58 1638.1,1193.39 1649.0,1190.29 C 1679.57,1181.6 1708.04,1168.2 1738.0,1158.0" style="stroke:#010101; fill:none;"/>
	<path d="M 1490.0,1159.0 L 1520.0,1186.0 L 1518.0,1178.0" style="stroke:#010101; fill:none;"/>
	<path d="M 1130.0,1160.0 C 1119.87,1175.36 1113.04,1192.22 1108.63,1210.0 C 1106.67,1217.88 1105.02,1228.08 1110.0,1235.0 L 1114.0,1231.0" style="stroke:#010101; fill:none;"/>
	<path d="M 1948.0,1162.0 L 1956.0,1169.0" style="stroke:#010101; fill:none;"/>
	<path d="M 1625.0,1163.0 L 1606.0,1179.0" style="stroke:#010101; fill:none;"/>
	<path d="M 2201.0,1164.0 C 2197.37,1175.94 2202.22,1193.28 2194.0,1203.0" style="stroke:#010101; fill:none;"/>
	<path d="M 1946.0,1166.0 L 1961.0,1197.0 L 1960.0,1198.0 L 1955.0,1196.0 L 1964.0,1213.0" style="stroke:#010101; fill:none;"/>
	<path d="M 1955.0,1171.0 L 1956.0,1172.0" style="stroke:#010101; fill:none;"/>
	<path d="M 1965.0,1172.0 L 1971.84,1220.0 L 1976.0,1264.0" style="stroke:#010101; fill:none;"/>
	<path d="M 1512.0,1176.0 L 1512.0,1178.0" style="stroke:#010101; fill:none;"/>
	<path d="M 2021.0,1176.0 C 2021.05,1181.6 2021.18,1192.18 2025.51,1196.3 C 2030.71,1201.23 2040.79,1201.83 2047.0,1206.21 C 2055.62,1212.28 2061.85,1221.0 2067.14,1230.0 C 2085.54,1261.31 2087.55,1301.61 2091.84,1337.0 C 2094.93,1362.48 2100.45,1388.81 2131.0,1394.0" style="stroke:#010101; fill:none;"/>
	<path d="M 1621.0,1179.0 L 1590.0,1211.0" style="stroke:#010101; fill:none;"/>
	<path d="M 1944.0,1179.0 L 1955.0,1196.0" style="stroke:#010101; fill:none;"/>
	<path d="M 1409.0,1190.0 L 1405.0,1195.0 C 1406.58,1185.82 1424.07,1182.12 1432.0,1180.0" style="stroke:#010101; fill:none;"/>
	<path d="M 1994.0,1180.0 L 2017.0,1246.0" style="stroke:#010101; fill:none;"/>
	<path d="M 1265.0,1280.0 C 1263.49,1279.45 1272.41,1270.78 1273.92,1268.0 C 1279.97,1256.83 1288.42,1246.89 1296.39,1237.0 C 1299.29,1233.4 1302.3,1227.81 1307.0,1230.0 C 1310.25,1226.82 1314.43,1226.32 1318.0,1223.65 C 1323.74,1219.33 1326.77,1212.15 1333.0,1208.51 C 1353.97,1196.25 1383.19,1187.55 1407.0,1183.0" style="stroke:#010101; fill:none;"/>
	<path d="M 1506.0,1183.0 L 1503.0,1186.0" style="stroke:#010101; fill:none;"/>
	<path d="M 1522.0,1184.0 L 1529.0,1193.0 L 1522.0,1186.0" style="stroke:#010101; fill:none;"/>
	<path d="M 1422.0,1190.0 L 1438.0,1185.0" style="stroke:#010101; fill:none;"/>
	<path d="M 1509.0,1185.0 L 1515.0,1192.0" style="stroke:#010101; fill:none;"/>
	<path d="M 1400.0,1186.0 L 1409.0,1188.0" style="stroke:#010101; fill:none;"/>
	<path d="M 1512.0,1186.0 L 1510.0,1188.0" style="stroke:#010101; fill:none;"/>
	<path d="M 1458.0,1198.0 L 1469.0,1201.0 L 1463.0,1209.0 C 1455.19,1195.23 1442.35,1195.68 1428.0,1195.0 C 1429.75,1189.6 1436.13,1189.55 1441.0,1188.0" style="stroke:#010101; fill:none;"/>
	<path d="M 1450.0,1188.0 L 1450.0,1189.0" style="stroke:#010101; fill:none;"/>
	<path d="M 1973.0,1189.0 L 1970.0,1207.0" style="stroke:#010101; fill:none;"/>
	<path d="M 1600.0,1191.0 L 1558.0,1236.0" style="stroke:#010101; fill:none;"/>
	<path d="M 1406.0,1195.0 C 1414.49,1197.51 1420.08,1193.99 1428.0,1192.0" style="stroke:#010101; fill:none;"/>
	<path d="M 1529.0,1193.0 L 1531.0,1195.0" style="stroke:#010101; fill:none;"/>
	<path d="M 1423.0,1194.0 L 1427.0,1196.0" style="stroke:#010101; fill:none;"/>
	<path d="M 1459.0,1197.0 L 1464.0,1194.0" style="stroke:#010101; fill:none;"/>
	<path d="M 1609.0,1195.0 L 1611.0,1195.0" style="stroke:#010101; fill:none;"/>
	<path d="M 1412.0,1245.0 C 1400.99,1255.75 1361.52,1273.71 1353.04,1250.0 C 1351.25,1244.98 1358.46,1237.29 1357.75,1231.0 C 1357.01,1224.53 1344.61,1219.03 1348.89,1212.39 C 1351.32,1208.62 1358.02,1206.24 1362.0,1204.6 C 1375.07,1199.22 1389.95,1197.11 1404.0,1196.0 L 1412.52,1218.0 L 1412.0,1245.0 L 1432.0,1236.0 L 1431.0,1239.0" style="stroke:#010101; fill:none;"/>
	<path d="M 1432.0,1196.0 C 1433.2,1200.23 1436.49,1202.3 1438.43,1206.09 C 1441.83,1212.76 1439.85,1221.57 1437.0,1228.0 C 1446.67,1230.21 1456.7,1216.03 1463.0,1210.0" style="stroke:#010101; fill:none;"/>
	<path d="M 1470.0,1201.0 L 1474.0,1202.0" style="stroke:#010101; fill:none;"/>
	<path d="M 1553.0,1223.0 L 1552.0,1229.0 L 1578.0,1202.0" style="stroke:#010101; fill:none;"/>
	<path d="M 1512.0,1204.0 C 1505.03,1220.74 1492.33,1237.03 1479.0,1249.17 C 1474.42,1253.33 1470.1,1258.33 1464.0,1260.0 L 1467.0,1259.0" style="stroke:#010101; fill:none;"/>
	<path d="M 525.0,1234.0 C 532.004,1237.74 540.661,1235.25 548.0,1233.37 C 566.316,1228.68 582.685,1219.21 600.0,1212.0" style="stroke:#010101; fill:none;"/>
	<path d="M 1314.0,1225.0 C 1317.3,1219.39 1320.32,1214.59 1327.0,1213.0" style="stroke:#010101; fill:none;"/>
	<path d="M 1321.0,1235.0 C 1316.36,1255.28 1328.84,1262.6 1346.0,1270.0 C 1336.07,1283.08 1309.1,1285.74 1294.0,1289.12 C 1288.83,1290.27 1278.47,1294.77 1275.6,1287.89 C 1271.61,1278.29 1279.6,1269.39 1284.42,1262.0 C 1294.36,1246.78 1308.39,1237.85 1323.0,1227.59 C 1330.32,1222.45 1338.43,1215.73 1347.0,1213.0" style="stroke:#010101; fill:none;"/>
	<path d="M 893.0,1215.0 C 911.431,1256.38 943.168,1302.76 935.562,1350.0 C 931.339,1376.23 914.815,1400.2 904.0,1424.0" style="stroke:#010101; fill:none;"/>
	<path d="M 1308.0,1226.0 L 1317.0,1219.0" style="stroke:#010101; fill:none;"/>
	<path d="M 1312.0,1221.0 L 1314.0,1223.0" style="stroke:#010101; fill:none;"/>
	<path d="M 1113.0,1225.0 L 1111.0,1228.0" style="stroke:#010101; fill:none;"/>
	<path d="M 1304.0,1228.0 L 1308.0,1226.0" style="stroke:#010101; fill:none;"/>
	<path d="M 1437.0,1229.0 L 1432.0,1236.0" style="stroke:#010101; fill:none;"/>
	<path d="M 1550.0,1230.0 L 1539.0,1243.0 L 1542.0,1243.0" style="stroke:#010101; fill:none;"/>
	<path d="M 1307.0,1231.0 L 1306.0,1232.0" style="stroke:#010101; fill:none;"/>
	<path d="M 1479.0,1231.0 L 1465.0,1257.0" style="stroke:#010101; fill:none;"/>
	<path d="M 1606.0,1247.0 L 1672.0,1232.0" style="stroke:#010101; fill:none;"/>
	<path d="M 1541.0,1241.0 L 1544.0,1238.0" style="stroke:#010101; fill:none;"/>
	<path d="M 1537.0,1243.0 C 1525.36,1259.59 1505.13,1279.05 1486.0,1286.54 C 1478.65,1289.41 1471.27,1288.06 1464.0,1290.0" style="stroke:#010101; fill:none;"/>
	<path d="M 1577.0,1247.0 L 1563.0,1249.0 L 1578.0,1243.0" style="stroke:#010101; fill:none;"/>
	<path d="M 1583.0,1247.0 L 1603.0,1243.0" style="stroke:#010101; fill:none;"/>
	<path d="M 1540.0,1244.0 L 1526.0,1266.0" style="stroke:#010101; fill:none;"/>
	<path d="M 1553.0,1246.0 C 1547.77,1251.01 1542.47,1256.23 1535.0,1257.0" style="stroke:#010101; fill:none;"/>
	<path d="M 1350.0,1248.0 L 1351.0,1248.0" style="stroke:#010101; fill:none;"/>
	<path d="M 1557.0,1254.0 L 1563.0,1249.0" style="stroke:#010101; fill:none;"/>
	<path d="M 2038.0,1253.0 L 2075.91,1406.0 L 2104.0,1497.0" style="stroke:#010101; fill:none;"/>
	<path d="M 1150.0,1254.0 C 1143.69,1262.86 1139.23,1274.05 1139.0,1285.0" style="stroke:#010101; fill:none;"/>
	<path d="M 1464.0,1261.0 C 1458.22,1266.91 1447.04,1284.66 1450.0,1293.0 L 1453.0,1289.0" style="stroke:#010101; fill:none;"/>
	<path d="M 1370.0,1262.0 C 1364.84,1266.6 1357.12,1271.05 1350.0,1270.0 L 1354.0,1270.0" style="stroke:#010101; fill:none;"/>
	<path d="M 1347.0,1271.0 L 1350.0,1270.0" style="stroke:#010101; fill:none;"/>
	<path d="M 1454.0,1271.0 L 1456.0,1270.0" style="stroke:#010101; fill:none;"/>
	<path d="M 1616.0,1271.0 L 1718.0,1312.86 L 1777.0,1340.0" style="stroke:#010101; fill:none;"/>
	<path d="M 776.0,1286.0 C 798.128,1290.11 824.762,1278.98 846.0,1273.0" style="stroke:#010101; fill:none;"/>
	<path d="M 2031.0,1273.0 C 2026.82,1282.84 2027.51,1292.67 2027.96,1303.0 C 2028.88,1323.86 2032.69,1347.05 2039.0,1367.0" style="stroke:#010101; fill:none;"/>
	<path d="M 1265.0,1277.0 L 1267.0,1276.0" style="stroke:#010101; fill:none;"/>
	<path d="M 1280.0,1292.0 C 1274.49,1296.53 1266.42,1302.54 1259.0,1301.0 L 1274.0,1279.0" style="stroke:#010101; fill:none;"/>
	<path d="M 1263.0,1282.0 L 1262.0,1285.0 L 1262.0,1281.0" style="stroke:#010101; fill:none;"/>
	<path d="M 646.0,1297.0 L 673.0,1292.56 L 724.0,1282.0" style="stroke:#010101; fill:none;"/>
	<path d="M 1146.0,1284.0 C 1140.46,1299.11 1153.17,1328.06 1168.0,1334.0 L 1170.0,1331.0" style="stroke:#010101; fill:none;"/>
	<path d="M 1260.0,1284.0 L 1243.0,1307.0" style="stroke:#010101; fill:none;"/>
	<path d="M 1262.0,1285.0 L 1259.0,1286.0" style="stroke:#010101; fill:none;"/>
	<path d="M 1074.0,1286.0 C 1090.59,1301.83 1112.75,1306.62 1135.0,1305.0" style="stroke:#010101; fill:none;"/>
	<path d="M 2164.0,1290.0 L 2155.0,1299.0" style="stroke:#010101; fill:none;"/>
	<path d="M 1450.0,1293.0 L 1396.0,1333.0" style="stroke:#010101; fill:none;"/>
	<path d="M 1509.0,1296.0 C 1488.11,1323.42 1449.85,1345.31 1417.0,1354.57 C 1405.26,1357.88 1392.38,1356.57 1381.0,1360.0" style="stroke:#010101; fill:none;"/>
	<path d="M 1516.0,1300.0 L 1515.0,1304.0 C 1533.62,1303.2 1552.83,1303.71 1571.0,1308.91 C 1589.45,1314.19 1606.52,1323.65 1625.0,1329.0" style="stroke:#010101; fill:none;"/>
	<path d="M 1512.0,1306.0 L 1514.0,1305.0" style="stroke:#010101; fill:none;"/>
	<path d="M 1141.0,1307.0 C 1135.37,1311.54 1125.56,1322.03 1118.0,1319.0" style="stroke:#010101; fill:none;"/>
	<path d="M 1606.0,1312.0 C 1616.9,1321.72 1629.43,1317.43 1642.0,1314.0" style="stroke:#010101; fill:none;"/>
	<path d="M 1373.0,1313.0 C 1364.82,1324.39 1353.98,1340.95 1341.0,1347.0" style="stroke:#010101; fill:none;"/>
	<path d="M 1138.0,1317.0 L 1124.0,1329.0" style="stroke:#010101; fill:none;"/>
	<path d="M 1037.0,1328.0 L 1090.0,1321.0" style="stroke:#010101; fill:none;"/>
	<path d="M 1148.0,1322.0 L 1146.0,1328.0" style="stroke:#010101; fill:none;"/>
	<path d="M 991.0,1389.0 C 1023.55,1363.91 1067.53,1331.77 1110.0,1332.0" style="stroke:#010101; fill:none;"/>
	<path d="M 1178.0,1333.0 C 1175.03,1343.3 1160.87,1358.42 1164.0,1369.0 L 1168.0,1365.0" style="stroke:#010101; fill:none;"/>
	<path d="M 1168.0,1335.0 C 1161.18,1345.28 1157.77,1361.04 1155.0,1373.0" style="stroke:#010101; fill:none;"/>
	<path d="M 1168.0,1335.0 L 1172.0,1338.0" style="stroke:#010101; fill:none;"/>
	<path d="M 1295.0,1337.0 C 1283.22,1349.79 1265.08,1361.39 1260.0,1379.0" style="stroke:#010101; fill:none;"/>
	<path d="M 1342.0,1337.0 L 1321.0,1355.0 L 1324.0,1348.0" style="stroke:#010101; fill:none;"/>
	<path d="M 1281.0,1340.0 C 1269.35,1351.65 1245.26,1366.6 1241.0,1383.0" style="stroke:#010101; fill:none;"/>
	<path d="M 969.0,1388.0 C 974.716,1367.11 999.304,1353.78 1018.0,1346.0" style="stroke:#010101; fill:none;"/>
	<path d="M 1179.0,1348.0 C 1173.17,1365.92 1165.51,1383.7 1156.0,1400.0" style="stroke:#010101; fill:none;"/>
	<path d="M 1286.0,1348.0 L 1268.0,1373.0" style="stroke:#010101; fill:none;"/>
	<path d="M 1998.0,1351.0 C 2032.15,1409.5 2048.88,1477.53 2083.0,1536.0" style="stroke:#010101; fill:none;"/>
	<path d="M 1318.0,1372.0 C 1340.94,1369.1 1362.09,1360.13 1384.0,1353.0" style="stroke:#010101; fill:none;"/>
	<path d="M 1321.0,1355.0 L 1312.0,1366.0" style="stroke:#010101; fill:none;"/>
	<path d="M 824.0,1359.0 C 827.669,1370.59 835.967,1370.69 846.0,1374.42 C 856.805,1378.45 866.609,1383.28 876.0,1390.0" style="stroke:#010101; fill:none;"/>
	<path d="M 1180.0,1361.0 L 1165.05,1402.0 L 1144.0,1441.0" style="stroke:#010101; fill:none;"/>
	<path d="M 1283.0,1384.0 C 1289.99,1374.9 1303.26,1366.07 1314.0,1362.0" style="stroke:#010101; fill:none;"/>
	<path d="M 790.0,1366.0 L 827.0,1369.0" style="stroke:#010101; fill:none;"/>
	<path d="M 863.0,1366.0 L 862.0,1374.0" style="stroke:#010101; fill:none;"/>
	<path d="M 1161.0,1369.0 L 1165.0,1369.0" style="stroke:#010101; fill:none;"/>
	<path d="M 830.0,1370.0 L 835.563,1385.11 L 865.0,1394.0" style="stroke:#010101; fill:none;"/>
	<path d="M 925.0,1372.0 L 927.0,1371.0" style="stroke:#010101; fill:none;"/>
	<path d="M 1181.0,1375.0 L 1167.0,1400.0" style="stroke:#010101; fill:none;"/>
	<path d="M 767.0,1376.0 C 788.379,1376.92 812.273,1380.64 833.0,1386.0" style="stroke:#010101; fill:none;"/>
	<path d="M 1187.0,1381.0 L 1207.0,1385.0 L 1206.0,1382.0" style="stroke:#010101; fill:none;"/>
	<path d="M 742.0,1383.0 C 775.983,1387.3 813.297,1387.36 846.0,1398.0" style="stroke:#010101; fill:none;"/>
	<path d="M 1208.0,1386.0 L 1205.0,1419.0" style="stroke:#010101; fill:none;"/>
	<path d="M 1242.0,1388.0 L 1244.0,1420.0" style="stroke:#010101; fill:none;"/>
	<path d="M 697.0,1391.0 L 822.0,1404.0" style="stroke:#010101; fill:none;"/>
	<path d="M 1219.0,1392.0 L 1215.0,1427.0" style="stroke:#010101; fill:none;"/>
	<path d="M 1165.0,1399.0 L 1164.0,1403.0" style="stroke:#010101; fill:none;"/>
	<path d="M 667.0,1407.0 C 678.103,1401.66 694.1,1405.67 706.0,1405.99 C 729.304,1406.59 752.776,1409.47 776.0,1411.68 C 791.113,1413.12 806.571,1412.7 821.0,1418.0" style="stroke:#010101; fill:none;"/>
	<path d="M 1249.0,1408.0 C 1255.27,1413.38 1254.0,1420.38 1254.0,1428.0" style="stroke:#010101; fill:none;"/>
	<path d="M 2186.0,1573.0 C 2176.59,1527.51 2132.83,1500.7 2119.09,1457.0 C 2115.71,1446.24 2110.47,1414.51 2126.0,1411.0" style="stroke:#010101; fill:none;"/>
	<path d="M 655.0,1411.0 C 689.757,1411.0 722.673,1412.81 757.0,1418.56 C 770.865,1420.89 786.012,1421.25 799.0,1427.0" style="stroke:#010101; fill:none;"/>
	<path d="M 1220.0,1418.0 L 1218.39,1437.0 L 1210.0,1468.0" style="stroke:#010101; fill:none;"/>
	<path d="M 593.0,1421.0 C 609.943,1415.99 631.545,1420.98 649.0,1421.0 C 697.908,1421.06 746.567,1423.75 795.0,1430.0" style="stroke:#010101; fill:none;"/>
	<path d="M 748.0,1426.0 L 765.0,1431.0" style="stroke:#010101; fill:none;"/>
	<path d="M 2147.0,1427.0 C 2155.84,1436.68 2166.82,1444.7 2175.92,1454.29 C 2198.74,1478.31 2222.8,1508.36 2236.0,1539.0" style="stroke:#010101; fill:none;"/>
	<path d="M 587.0,1431.0 C 620.428,1428.39 653.556,1428.93 687.0,1429.97 C 704.907,1430.53 726.805,1430.47 743.0,1439.0" style="stroke:#010101; fill:none;"/>
	<path d="M 562.0,1436.0 C 599.032,1435.8 635.981,1434.87 673.0,1435.0 C 691.777,1435.07 715.558,1433.08 733.0,1441.0" style="stroke:#010101; fill:none;"/>
	<path d="M 903.0,1438.0 L 883.0,1465.0" style="stroke:#010101; fill:none;"/>
	<path d="M 540.0,1450.0 C 587.32,1445.72 635.477,1444.09 683.0,1445.02 C 699.016,1445.34 715.034,1447.87 731.0,1448.0" style="stroke:#010101; fill:none;"/>
	<path d="M 626.0,1448.0 C 662.504,1448.0 702.205,1447.62 738.0,1455.0" style="stroke:#010101; fill:none;"/>
	<path d="M 544.0,1463.0 C 584.681,1463.0 625.319,1462.31 666.0,1462.04 C 683.977,1461.92 704.36,1467.2 722.0,1463.0" style="stroke:#010101; fill:none;"/>
	<path d="M 643.0,1463.0 C 645.474,1466.81 650.431,1466.7 653.0,1463.0" style="stroke:#010101; fill:none;"/>
	<path d="M 651.0,1463.0 L 651.0,1465.0" style="stroke:#010101; fill:none;"/>
	<path d="M 656.0,1463.0 L 653.0,1465.0" style="stroke:#010101; fill:none;"/>
	<path d="M 658.0,1463.0 L 674.0,1466.0" style="stroke:#010101; fill:none;"/>
	<path d="M 545.0,1485.0 C 555.261,1476.57 570.196,1474.71 583.0,1472.87 C 602.581,1470.05 622.136,1466.04 642.0,1466.0" style="stroke:#010101; fill:none;"/>
	<path d="M 622.0,1487.0 C 605.675,1487.05 588.892,1490.58 573.0,1494.12 C 565.816,1495.72 556.474,1499.38 550.0,1495.0 L 596.0,1484.59 L 646.0,1477.0" style="stroke:#010101; fill:none;"/>
	<path d="M 916.0,1488.0 L 871.0,1512.0" style="stroke:#010101; fill:none;"/>
	<path d="M 642.0,1557.0 C 646.886,1560.04 652.472,1551.38 656.0,1548.29 C 668.128,1537.65 682.979,1527.12 698.0,1521.02 C 751.674,1499.21 813.421,1490.46 871.0,1495.0" style="stroke:#010101; fill:none;"/>
	<path d="M 552.0,1498.0 C 548.849,1498.49 547.588,1498.2 547.0,1495.0 L 550.0,1495.0" style="stroke:#010101; fill:none;"/>
	<path d="M 546.0,1500.0 L 543.0,1497.0 L 546.0,1496.0" style="stroke:#010101; fill:none;"/>
	<path d="M 504.0,1518.0 C 507.218,1506.78 532.947,1501.14 543.0,1497.0" style="stroke:#010101; fill:none;"/>
	<path d="M 550.0,1497.0 L 550.0,1498.0" style="stroke:#010101; fill:none;"/>
	<path d="M 621.0,1504.0 C 611.301,1499.33 599.903,1503.53 590.0,1505.55 C 570.495,1509.52 551.485,1516.43 533.0,1523.73 C 524.935,1526.92 516.435,1532.37 508.0,1534.0 C 510.498,1523.58 523.207,1519.26 532.0,1515.31 C 556.87,1504.13 585.762,1497.0 613.0,1497.0" style="stroke:#010101; fill:none;"/>
	<path d="M 539.0,1499.0 L 544.0,1499.0" style="stroke:#010101; fill:none;"/>
	<path d="M 816.0,1538.0 L 810.371,1522.32 L 819.0,1519.71 L 847.0,1519.0 L 830.0,1529.93 L 790.0,1559.0 C 788.178,1550.25 795.627,1540.73 790.121,1532.09 C 784.541,1523.33 778.808,1524.02 770.0,1526.4 C 767.245,1527.14 762.216,1527.31 761.631,1531.0 C 761.029,1534.79 767.621,1535.59 769.96,1536.84 C 774.207,1539.1 776.848,1543.32 777.747,1548.0 C 779.629,1557.8 768.366,1562.19 768.0,1571.0 L 770.0,1566.0" style="stroke:#010101; fill:none;"/>
	<path d="M 767.0,1521.0 C 772.88,1519.39 778.171,1519.02 783.0,1523.0" style="stroke:#010101; fill:none;"/>
	<path d="M 2162.0,1520.0 L 2166.0,1524.0" style="stroke:#010101; fill:none;"/>
	<path d="M 784.0,1525.0 C 790.565,1520.22 801.76,1519.14 809.0,1523.0" style="stroke:#010101; fill:none;"/>
	<path d="M 2272.0,1522.0 C 2263.92,1561.17 2232.24,1611.29 2186.0,1604.79 C 2175.25,1603.28 2168.45,1595.29 2159.0,1591.0 L 2160.0,1600.0 L 2166.0,1594.0" style="stroke:#010101; fill:none;"/>
	<path d="M 573.0,1540.0 C 551.927,1539.71 524.846,1551.57 507.0,1562.0 C 502.027,1551.59 513.952,1545.07 522.0,1540.97 C 543.036,1530.23 563.388,1527.31 586.0,1523.0" style="stroke:#010101; fill:none;"/>
	<path d="M 757.0,1523.0 L 744.0,1527.01 L 715.0,1535.0" style="stroke:#010101; fill:none;"/>
	<path d="M 758.0,1524.0 L 764.0,1527.0" style="stroke:#010101; fill:none;"/>
	<path d="M 860.0,1525.0 L 810.0,1570.0" style="stroke:#010101; fill:none;"/>
	<path d="M 1824.0,1526.0 C 1837.21,1538.74 1849.18,1552.12 1859.99,1567.0 C 1868.62,1578.89 1876.19,1593.0 1888.0,1602.0" style="stroke:#010101; fill:none;"/>
	<path d="M 2121.0,1532.0 L 2158.0,1591.0" style="stroke:#010101; fill:none;"/>
	<path d="M 710.0,1547.0 L 701.0,1547.0 C 710.715,1540.51 725.399,1534.56 737.0,1533.0" style="stroke:#010101; fill:none;"/>
	<path d="M 666.0,1592.0 L 676.0,1590.0 C 673.026,1596.49 667.47,1602.53 662.867,1608.0 C 661.1,1610.1 657.178,1613.52 657.882,1616.67 C 658.79,1620.73 668.68,1616.38 671.0,1615.66 C 684.53,1611.43 700.57,1608.69 712.0,1600.0 C 706.758,1596.0 699.697,1595.39 696.457,1589.0 C 689.906,1576.08 697.434,1565.51 707.0,1557.44 C 721.399,1545.29 739.812,1534.67 759.0,1533.0" style="stroke:#010101; fill:none;"/>
	<path d="M 494.0,1545.0 L 507.0,1535.0" style="stroke:#010101; fill:none;"/>
	<path d="M 721.0,1539.0 L 725.0,1539.0" style="stroke:#010101; fill:none;"/>
	<path d="M 2003.0,1541.0 C 2028.66,1607.92 2049.27,1676.77 2063.71,1747.0 C 2069.3,1774.16 2071.95,1801.79 2077.0,1829.0" style="stroke:#010101; fill:none;"/>
	<path d="M 738.0,1545.0 C 738.769,1549.31 741.989,1553.58 741.671,1558.0 C 740.889,1568.84 726.336,1573.1 720.0,1580.0 C 731.637,1586.71 757.643,1578.41 767.0,1570.0" style="stroke:#010101; fill:none;"/>
	<path d="M 697.0,1548.0 L 701.0,1547.0" style="stroke:#010101; fill:none;"/>
	<path d="M 692.0,1554.0 L 702.0,1549.0" style="stroke:#010101; fill:none;"/>
	<path d="M 689.0,1558.0 L 701.0,1554.0" style="stroke:#010101; fill:none;"/>
	<path d="M 859.0,1561.0 L 879.0,1554.0" style="stroke:#010101; fill:none;"/>
	<path d="M 508.0,1584.0 C 511.623,1566.19 546.644,1561.59 561.0,1557.0" style="stroke:#010101; fill:none;"/>
	<path d="M 639.0,1557.0 L 643.0,1560.0" style="stroke:#010101; fill:none;"/>
	<path d="M 639.0,1559.0 L 638.0,1566.0 L 641.0,1561.0" style="stroke:#010101; fill:none;"/>
	<path d="M 691.0,1564.0 L 684.0,1565.0 C 689.541,1561.76 696.911,1557.89 703.0,1561.0" style="stroke:#010101; fill:none;"/>
	<path d="M 773.0,1569.0 L 789.0,1559.0" style="stroke:#010101; fill:none;"/>
	<path d="M 507.0,1562.0 C 503.962,1565.29 502.002,1567.47 503.0,1572.0" style="stroke:#010101; fill:none;"/>
	<path d="M 1312.0,1562.0 C 1292.82,1576.6 1280.03,1595.54 1264.0,1613.0" style="stroke:#010101; fill:none;"/>
	<path d="M 1324.0,1562.0 C 1344.69,1580.88 1374.5,1593.03 1399.0,1606.31 C 1458.43,1638.53 1518.27,1663.83 1582.0,1686.31 C 1607.15,1695.18 1632.07,1704.47 1657.0,1713.94 C 1675.81,1721.07 1697.14,1728.73 1712.99,1741.52 C 1723.14,1749.71 1731.74,1762.85 1740.0,1773.0" style="stroke:#010101; fill:none;"/>
	<path d="M 621.0,1564.0 L 611.0,1580.0" style="stroke:#010101; fill:none;"/>
	<path d="M 626.0,1564.0 L 624.0,1571.0" style="stroke:#010101; fill:none;"/>
	<path d="M 684.0,1567.0 L 684.0,1565.0" style="stroke:#010101; fill:none;"/>
	<path d="M 638.0,1566.0 L 633.0,1568.0 L 633.0,1568.0" style="stroke:#010101; fill:none;"/>
	<path d="M 840.0,1586.0 L 888.0,1566.0" style="stroke:#010101; fill:none;"/>
	<path d="M 682.0,1567.0 L 676.0,1570.0" style="stroke:#010101; fill:none;"/>
	<path d="M 635.0,1570.0 L 622.0,1603.0 L 620.0,1599.0" style="stroke:#010101; fill:none;"/>
	<path d="M 688.0,1570.0 L 669.0,1574.0" style="stroke:#010101; fill:none;"/>
	<path d="M 617.0,1571.0 L 617.0,1587.0" style="stroke:#010101; fill:none;"/>
	<path d="M 922.0,1571.0 C 898.487,1609.28 858.704,1630.36 823.0,1655.55 C 795.731,1674.8 766.875,1694.61 743.001,1718.01 C 733.354,1727.47 726.979,1739.21 717.91,1749.0 C 705.31,1762.6 691.095,1774.84 678.001,1788.0 C 670.189,1795.85 662.033,1803.42 662.0,1815.0" style="stroke:#010101; fill:none;"/>
	<path d="M 676.0,1590.0 L 693.0,1572.0" style="stroke:#010101; fill:none;"/>
	<path d="M 667.0,1578.0 L 683.0,1576.0" style="stroke:#010101; fill:none;"/>
	<path d="M 758.0,1577.0 C 752.169,1589.21 724.874,1598.88 712.0,1600.0" style="stroke:#010101; fill:none;"/>
	<path d="M 511.0,1593.0 C 515.751,1584.34 533.773,1580.75 543.0,1580.0" style="stroke:#010101; fill:none;"/>
	<path d="M 668.0,1585.0 L 679.0,1580.0" style="stroke:#010101; fill:none;"/>
	<path d="M 1305.0,1581.0 C 1322.24,1585.97 1344.33,1593.91 1358.99,1604.44 C 1404.65,1637.24 1387.63,1695.61 1370.0,1738.0" style="stroke:#010101; fill:none;"/>
	<path d="M 1776.0,1583.0 C 1785.78,1599.83 1789.78,1622.29 1794.85,1641.0 C 1796.67,1647.74 1797.52,1660.25 1802.09,1665.59 C 1804.53,1668.44 1811.39,1666.29 1815.0,1667.82 C 1822.38,1670.93 1829.48,1677.16 1834.83,1683.0 C 1859.92,1710.41 1878.45,1742.43 1895.89,1775.0 C 1905.76,1793.44 1916.95,1811.65 1925.0,1831.0" style="stroke:#010101; fill:none;"/>
	<path d="M 1787.0,1583.0 L 1813.0,1666.0" style="stroke:#010101; fill:none;"/>
	<path d="M 620.0,1590.0 L 613.0,1614.0" style="stroke:#010101; fill:none;"/>
	<path d="M 521.0,1604.0 C 524.752,1596.37 534.343,1594.05 542.0,1592.0" style="stroke:#010101; fill:none;"/>
	<path d="M 624.0,1595.0 L 623.0,1599.0" style="stroke:#010101; fill:none;"/>
	<path d="M 657.0,1602.0 L 671.0,1595.0" style="stroke:#010101; fill:none;"/>
	<path d="M 1765.0,1595.0 L 1789.0,1653.0" style="stroke:#010101; fill:none;"/>
	<path d="M 1807.0,1597.0 L 1819.8,1652.0 L 1829.0,1673.0 C 1833.86,1664.36 1830.37,1657.65 1827.34,1649.0 C 1822.65,1635.59 1815.24,1620.17 1814.0,1606.0" style="stroke:#010101; fill:none;"/>
	<path d="M 2160.0,1600.0 C 2163.2,1611.1 2170.63,1623.22 2179.0,1631.0" style="stroke:#010101; fill:none;"/>
	<path d="M 661.0,1603.0 L 649.0,1610.0" style="stroke:#010101; fill:none;"/>
	<path d="M 622.0,1604.0 L 611.0,1671.0" style="stroke:#010101; fill:none;"/>
	<path d="M 539.0,1605.0 L 534.0,1612.0" style="stroke:#010101; fill:none;"/>
	<path d="M 611.0,1608.0 L 608.0,1619.0" style="stroke:#010101; fill:none;"/>
	<path d="M 1840.0,1608.0 C 1853.11,1637.42 1870.12,1664.53 1885.11,1693.0 C 1900.75,1722.7 1914.17,1753.79 1926.55,1785.0 C 1953.8,1853.67 1965.45,1925.75 1983.0,1997.0" style="stroke:#010101; fill:none;"/>
	<path d="M 653.0,1612.0 L 638.0,1620.0" style="stroke:#010101; fill:none;"/>
	<path d="M 1069.0,1613.0 C 1045.3,1646.3 1043.12,1691.02 1046.83,1730.0 C 1048.01,1742.43 1047.4,1755.94 1051.0,1768.0" style="stroke:#010101; fill:none;"/>
	<path d="M 540.0,1615.0 L 533.0,1623.0" style="stroke:#010101; fill:none;"/>
	<path d="M 605.0,1622.0 L 597.0,1630.0" style="stroke:#010101; fill:none;"/>
	<path d="M 1827.0,1622.0 L 1844.0,1675.0" style="stroke:#010101; fill:none;"/>
	<path d="M 1837.0,1633.0 C 1839.31,1646.44 1844.64,1663.93 1851.0,1676.0" style="stroke:#010101; fill:none;"/>
	<path d="M 2180.0,1639.0 C 2215.03,1699.02 2242.51,1765.39 2269.0,1829.0" style="stroke:#010101; fill:none;"/>
	<path d="M 1845.0,1648.0 L 1857.0,1683.0" style="stroke:#010101; fill:none;"/>
	<path d="M 726.0,1684.0 C 724.089,1680.59 722.073,1676.8 724.607,1673.1 C 727.503,1668.88 733.614,1667.39 738.0,1665.24 C 748.955,1659.89 759.819,1653.79 771.0,1649.0" style="stroke:#010101; fill:none;"/>
	<path d="M 1271.0,1655.0 C 1274.59,1667.56 1280.0,1678.82 1281.71,1692.0 C 1287.4,1735.79 1271.96,1785.04 1233.0,1808.6 C 1221.18,1815.75 1204.48,1826.33 1190.0,1823.0" style="stroke:#010101; fill:none;"/>
	<path d="M 605.0,1662.0 L 605.0,1665.0" style="stroke:#010101; fill:none;"/>
	<path d="M 600.0,1663.0 L 594.0,1680.0" style="stroke:#010101; fill:none;"/>
	<path d="M 1834.0,1667.0 L 1839.0,1679.0" style="stroke:#010101; fill:none;"/>
	<path d="M 1815.0,1668.0 L 1816.0,1673.0" style="stroke:#010101; fill:none;"/>
	<path d="M 616.0,1670.0 C 612.573,1677.97 612.254,1687.3 605.0,1693.0" style="stroke:#010101; fill:none;"/>
	<path d="M 590.0,1672.0 C 587.381,1677.5 573.239,1687.93 576.0,1693.0" style="stroke:#010101; fill:none;"/>
	<path d="M 342.0,1681.0 C 343.457,1694.42 352.734,1700.71 360.7,1710.0 C 366.241,1716.46 370.787,1724.05 375.704,1731.0 C 391.322,1753.09 404.984,1776.18 422.326,1797.0 C 430.97,1807.38 442.028,1815.62 450.674,1826.0 C 458.049,1834.85 463.377,1845.2 470.87,1854.0 C 483.74,1869.12 493.183,1894.22 512.0,1903.0 L 508.0,1895.0" style="stroke:#010101; fill:none;"/>
	<path d="M 607.0,1684.0 L 580.0,1710.0" style="stroke:#010101; fill:none;"/>
	<path d="M 712.0,1719.0 C 719.717,1700.78 750.581,1690.9 768.0,1685.0" style="stroke:#010101; fill:none;"/>
	<path d="M 613.0,1771.0 L 641.748,1726.0 L 658.0,1704.0 C 677.257,1708.43 700.355,1695.01 718.0,1689.0" style="stroke:#010101; fill:none;"/>
	<path d="M 347.0,1701.0 C 330.13,1769.48 390.874,1824.25 427.572,1874.01 C 434.843,1883.88 439.291,1894.85 445.865,1905.0 C 456.513,1921.44 470.5,1938.84 484.039,1953.0 C 505.622,1975.56 529.161,1996.6 551.015,2019.0 C 558.845,2027.03 568.655,2033.84 575.211,2043.0 C 600.461,2078.26 619.615,2119.44 641.284,2157.0 C 654.258,2179.49 670.374,2198.48 683.15,2221.0 C 690.309,2233.62 694.847,2247.64 702.461,2260.0 C 709.796,2271.9 720.486,2280.36 732.0,2288.0 C 758.009,2305.24 784.871,2326.48 818.0,2323.17 C 826.683,2322.3 835.851,2321.45 843.0,2316.0 L 782.661,2238.0 L 659.909,2078.0 L 594.011,1980.0 L 546.0,1897.0" style="stroke:#010101; fill:none;"/>
	<path d="M 652.0,1703.0 C 621.082,1713.55 589.315,1741.17 566.0,1764.0" style="stroke:#010101; fill:none;"/>
	<path d="M 704.0,1705.0 C 669.678,1731.15 649.588,1773.65 622.0,1806.0" style="stroke:#010101; fill:none;"/>
	<path d="M 1334.0,1712.0 C 1332.57,1724.51 1345.61,1710.01 1350.67,1713.07 C 1355.93,1716.26 1349.63,1731.73 1348.0,1736.0" style="stroke:#010101; fill:none;"/>
	<path d="M 2185.0,1712.0 L 2208.73,1834.0 L 2219.0,1912.0" style="stroke:#010101; fill:none;"/>
	<path d="M 1335.0,1718.0 C 1310.23,1742.77 1285.03,1775.38 1273.0,1809.0" style="stroke:#010101; fill:none;"/>
	<path d="M 1372.0,1718.0 C 1370.2,1740.03 1355.25,1769.26 1338.0,1783.0" style="stroke:#010101; fill:none;"/>
	<path d="M 1333.0,1730.0 L 1333.0,1732.0 L 1331.0,1732.0 L 1333.0,1733.0" style="stroke:#010101; fill:none;"/>
	<path d="M 1323.0,1731.0 L 1315.0,1755.0" style="stroke:#010101; fill:none;"/>
	<path d="M 1320.0,1733.0 L 1323.0,1736.0" style="stroke:#010101; fill:none;"/>
	<path d="M 1331.0,1733.0 L 1305.0,1781.0" style="stroke:#010101; fill:none;"/>
	<path d="M 1331.0,1735.0 L 1330.0,1738.0" style="stroke:#010101; fill:none;"/>
	<path d="M 1017.0,1737.0 C 1007.97,1764.76 1006.74,1810.96 1021.53,1837.0 C 1033.1,1857.38 1058.21,1870.93 1081.0,1874.0" style="stroke:#010101; fill:none;"/>
	<path d="M 1328.0,1737.0 L 1327.0,1741.0" style="stroke:#010101; fill:none;"/>
	<path d="M 1000.0,1738.0 L 998.911,1768.0 L 994.0,1825.0" style="stroke:#010101; fill:none;"/>
	<path d="M 1325.0,1741.0 L 1325.0,1742.0" style="stroke:#010101; fill:none;"/>
	<path d="M 1325.0,1742.0 L 1324.0,1748.0" style="stroke:#010101; fill:none;"/>
	<path d="M 1784.0,1745.0 L 1812.12,1771.58 L 1865.0,1834.0" style="stroke:#010101; fill:none;"/>
	<path d="M 1322.0,1746.0 L 1320.0,1748.0" style="stroke:#010101; fill:none;"/>
	<path d="M 1318.0,1747.0 L 1317.0,1751.0" style="stroke:#010101; fill:none;"/>
	<path d="M 1321.0,1748.0 L 1323.0,1750.0" style="stroke:#010101; fill:none;"/>
	<path d="M 1315.0,1751.0 L 1315.0,1752.0" style="stroke:#010101; fill:none;"/>
	<path d="M 1319.0,1751.0 L 1321.0,1753.0" style="stroke:#010101; fill:none;"/>
	<path d="M 1317.0,1752.0 L 1320.0,1755.0" style="stroke:#010101; fill:none;"/>
	<path d="M 1313.0,1755.0 L 1312.0,1759.0 L 1314.0,1756.0" style="stroke:#010101; fill:none;"/>
	<path d="M 1310.0,1759.0 L 1313.0,1759.0" style="stroke:#010101; fill:none;"/>
	<path d="M 1309.0,1761.0 L 1311.0,1762.0" style="stroke:#010101; fill:none;"/>
	<path d="M 1310.0,1763.0 L 1301.0,1775.0 L 1301.0,1776.0 L 1303.0,1775.0" style="stroke:#010101; fill:none;"/>
	<path d="M 374.0,1765.0 L 396.0,1767.0" style="stroke:#010101; fill:none;"/>
	<path d="M 1298.0,1767.0 L 1303.0,1771.0" style="stroke:#010101; fill:none;"/>
	<path d="M 1300.0,1777.0 C 1297.55,1795.19 1289.76,1818.54 1277.0,1832.0" style="stroke:#010101; fill:none;"/>
	<path d="M 396.0,1778.0 C 409.358,1797.82 420.005,1819.51 433.91,1839.0 C 466.513,1884.71 503.806,1925.06 545.0,1963.0 C 548.628,1955.48 541.199,1949.47 536.576,1944.0 C 528.688,1934.66 521.562,1924.93 514.441,1915.0 C 511.237,1910.53 506.797,1906.77 507.0,1901.0" style="stroke:#010101; fill:none;"/>
	<path d="M 1343.0,1782.0 L 1329.0,1802.0" style="stroke:#010101; fill:none;"/>
	<path d="M 1765.0,1795.0 L 1763.09,1952.0 L 1780.0,2052.0" style="stroke:#010101; fill:none;"/>
	<path d="M 2257.0,1797.0 L 2260.0,1795.0" style="stroke:#010101; fill:none;"/>
	<path d="M 442.0,1807.0 L 441.0,1810.0" style="stroke:#010101; fill:none;"/>
	<path d="M 2263.0,1807.0 C 2300.9,1860.34 2309.69,1925.99 2310.0,1990.0 C 2310.24,2039.48 2306.51,2087.87 2299.27,2137.0 C 2294.91,2166.64 2288.78,2196.54 2279.33,2225.0 C 2275.48,2236.6 2273.08,2248.82 2266.0,2259.0" style="stroke:#010101; fill:none;"/>
	<path d="M 2108.0,1808.0 L 2108.0,1818.0" style="stroke:#010101; fill:none;"/>
	<path d="M 441.0,1811.0 L 439.0,1813.0" style="stroke:#010101; fill:none;"/>
	<path d="M 625.0,1819.0 L 610.0,1871.0" style="stroke:#010101; fill:none;"/>
	<path d="M 2103.0,1831.0 L 2113.0,1893.0" style="stroke:#010101; fill:none;"/>
	<path d="M 1109.0,1844.0 C 1106.36,1846.24 1094.92,1851.4 1098.38,1843.0 C 1104.29,1828.63 1124.38,1837.54 1135.0,1839.54 C 1149.56,1842.29 1163.68,1843.0 1178.0,1847.44 C 1196.74,1853.24 1215.09,1866.0 1235.0,1856.0" style="stroke:#010101; fill:none;"/>
	<path d="M 2069.0,2170.0 C 2070.49,2135.33 2081.44,2101.68 2082.96,2067.0 C 2084.33,2035.66 2077.49,2005.0 2074.17,1974.0 C 2072.42,1957.68 2073.38,1941.26 2071.83,1925.0 C 2069.96,1905.38 2069.39,1883.6 2071.71,1864.0 C 2072.43,1857.98 2071.24,1848.63 2077.0,1845.0" style="stroke:#010101; fill:none;"/>
	<path d="M 2163.0,1862.0 C 2149.52,1916.73 2134.51,1971.04 2121.76,2026.0 C 2116.36,2049.31 2107.4,2076.12 2106.35,2100.0 C 2106.16,2104.21 2109.51,2106.36 2110.86,2110.04 C 2113.57,2117.42 2114.42,2126.24 2115.57,2134.0 C 2119.81,2162.6 2122.38,2191.35 2126.0,2220.0" style="stroke:#010101; fill:none;"/>
	<path d="M 977.0,1867.0 C 977.0,1928.34 965.961,1988.48 956.576,2049.0 C 948.945,2098.2 943.338,2154.86 971.866,2199.0 C 987.988,2223.94 1020.31,2242.52 1045.0,2258.0" style="stroke:#010101; fill:none;"/>
	<path d="M 2097.0,1879.0 L 2108.0,1934.0" style="stroke:#010101; fill:none;"/>
	<path d="M 1873.0,1880.0 C 1895.49,1911.31 1910.06,1947.25 1923.91,1983.0 C 1936.15,2014.59 1948.79,2045.83 1959.52,2078.0 C 1974.09,2121.74 1992.67,2165.77 2002.0,2211.0" style="stroke:#010101; fill:none;"/>
	<path d="M 1485.0,2055.0 L 1479.0,2055.0 L 1483.0,2059.0 C 1506.19,2031.19 1540.47,2012.79 1569.0,1991.1 C 1590.95,1974.41 1608.6,1953.31 1628.0,1934.0 C 1639.58,1922.48 1649.88,1912.53 1659.2,1899.0 C 1662.45,1894.29 1664.19,1884.97 1670.0,1884.0" style="stroke:#010101; fill:none;"/>
	<path d="M 2203.0,1884.0 L 2188.01,2085.0 L 2196.91,2159.0 L 2192.0,2259.0" style="stroke:#010101; fill:none;"/>
	<path d="M 1351.0,2133.0 C 1346.61,2139.03 1341.14,2151.91 1333.83,2154.65 C 1330.42,2155.92 1325.59,2153.59 1322.0,2153.57 C 1316.3,2153.54 1313.25,2154.41 1309.0,2150.0 C 1314.01,2145.85 1320.07,2142.88 1324.32,2137.83 C 1326.22,2135.56 1327.46,2129.7 1330.31,2128.71 C 1335.15,2127.04 1344.02,2131.85 1350.0,2130.88 C 1369.93,2127.63 1405.92,2108.74 1406.0,2086.0 C 1426.11,2086.86 1454.4,2075.94 1464.08,2056.0 C 1466.32,2051.39 1468.59,2045.17 1468.66,2040.0 C 1468.69,2036.89 1466.59,2031.33 1469.03,2028.71 C 1470.95,2026.64 1475.72,2028.96 1478.0,2029.38 C 1483.44,2030.39 1488.89,2029.66 1494.0,2027.52 C 1510.84,2020.46 1520.3,2000.78 1530.71,1987.38 C 1536.57,1979.83 1541.91,1976.34 1542.0,1966.0 C 1547.74,1966.83 1552.19,1970.98 1558.0,1971.79 C 1579.0,1974.71 1572.54,1948.55 1570.39,1937.0 C 1569.68,1933.23 1566.55,1927.94 1570.2,1924.99 C 1579.71,1917.33 1595.76,1913.78 1607.0,1909.14 C 1620.96,1903.37 1633.12,1894.0 1647.0,1888.35 C 1652.47,1886.13 1658.45,1886.65 1664.0,1885.0" style="stroke:#010101; fill:none;"/>
	<path d="M 1098.0,2154.0 C 1134.42,2141.6 1165.46,2113.22 1200.0,2096.26 C 1243.78,2074.76 1288.03,2053.91 1332.0,2032.78 C 1349.4,2024.42 1368.49,2019.13 1385.0,2008.94 C 1399.89,1999.75 1410.77,1985.8 1425.0,1976.09 C 1479.67,1938.81 1537.49,1911.79 1602.0,1897.0" style="stroke:#010101; fill:none;"/>
	<path d="M 2091.0,1898.0 L 2108.0,1964.0" style="stroke:#010101; fill:none;"/>
	<path d="M 509.0,1902.0 L 507.0,1904.0" style="stroke:#010101; fill:none;"/>
	<path d="M 512.0,1903.0 C 516.358,1907.6 526.412,1919.63 523.0,1926.0" style="stroke:#010101; fill:none;"/>
	<path d="M 521.0,1917.0 L 518.0,1920.0" style="stroke:#010101; fill:none;"/>
	<path d="M 2091.0,1919.0 C 2098.91,1943.74 2108.98,1972.85 2109.0,1999.0" style="stroke:#010101; fill:none;"/>
	<path d="M 523.0,1922.0 L 521.0,1924.0" style="stroke:#010101; fill:none;"/>
	<path d="M 527.0,1926.0 L 524.0,1928.0" style="stroke:#010101; fill:none;"/>
	<path d="M 528.0,1927.0 L 530.0,1927.0" style="stroke:#010101; fill:none;"/>
	<path d="M 1535.0,1946.0 L 1529.0,1952.0 L 1531.0,1939.0 L 1566.0,1927.0" style="stroke:#010101; fill:none;"/>
	<path d="M 541.0,1939.0 L 542.0,1941.0" style="stroke:#010101; fill:none;"/>
	<path d="M 1528.0,1953.0 L 1527.0,1940.0 L 1528.0,1940.0 L 1530.0,1939.0 L 1530.0,1939.0" style="stroke:#010101; fill:none;"/>
	<path d="M 1524.0,1951.0 C 1522.56,1947.3 1522.61,1943.48 1526.0,1941.0" style="stroke:#010101; fill:none;"/>
	<path d="M 1456.0,1994.0 L 1452.0,1987.0 C 1467.64,1976.65 1482.38,1965.17 1498.0,1954.8 C 1505.44,1949.86 1513.94,1943.19 1523.0,1942.0" style="stroke:#010101; fill:none;"/>
	<path d="M 1521.0,1950.0 C 1526.58,1956.09 1526.06,1959.23 1521.0,1966.0" style="stroke:#010101; fill:none;"/>
	<path d="M 553.0,1951.0 C 560.216,1957.03 567.298,1968.93 569.985,1978.0 C 571.438,1982.91 570.617,1986.44 573.772,1991.0 C 588.578,2012.4 606.0,2031.53 619.396,2054.0 C 631.228,2073.85 638.386,2095.81 649.309,2116.0 C 667.745,2150.09 697.075,2176.07 720.0,2207.0" style="stroke:#010101; fill:none;"/>
	<path d="M 1521.0,1951.0 L 1519.0,1954.0 L 1523.0,1954.0" style="stroke:#010101; fill:none;"/>
	<path d="M 2088.0,1952.0 C 2093.66,1955.46 2094.59,1966.84 2096.13,1973.0 C 2100.88,1992.0 2102.34,2012.36 2108.0,2031.0" style="stroke:#010101; fill:none;"/>
	<path d="M 1523.0,1954.0 L 1526.0,1957.0" style="stroke:#010101; fill:none;"/>
	<path d="M 1520.0,1955.0 L 1516.0,1961.0 L 1518.0,1958.0" style="stroke:#010101; fill:none;"/>
	<path d="M 1535.0,1955.0 L 1525.0,1969.0 L 1524.0,1966.0" style="stroke:#010101; fill:none;"/>
	<path d="M 2252.0,1956.0 C 2252.55,1982.93 2256.64,2010.02 2255.99,2037.0 C 2254.68,2090.59 2246.42,2144.19 2237.25,2197.0 C 2232.44,2224.69 2231.14,2258.1 2220.0,2284.0" style="stroke:#010101; fill:none;"/>
	<path d="M 544.0,1960.0 L 542.0,1960.0 L 546.0,1958.0" style="stroke:#010101; fill:none;"/>
	<path d="M 549.0,1959.0 L 569.0,1984.0" style="stroke:#010101; fill:none;"/>
	<path d="M 1535.0,1962.0 C 1532.72,1966.58 1532.52,1969.13 1534.0,1974.0 C 1525.79,1974.22 1528.59,1979.29 1530.0,1985.0" style="stroke:#010101; fill:none;"/>
	<path d="M 546.0,1963.0 L 550.0,1963.0" style="stroke:#010101; fill:none;"/>
	<path d="M 1534.0,1971.0 L 1541.0,1965.0" style="stroke:#010101; fill:none;"/>
	<path d="M 2184.0,1965.0 L 2184.0,1968.0" style="stroke:#010101; fill:none;"/>
	<path d="M 1526.0,1970.0 L 1530.0,1977.0 L 1529.0,1976.0" style="stroke:#010101; fill:none;"/>
	<path d="M 1531.0,1971.0 L 1531.0,1973.0" style="stroke:#010101; fill:none;"/>
	<path d="M 1533.0,1976.0 L 1532.0,1977.0" style="stroke:#010101; fill:none;"/>
	<path d="M 1532.0,1977.0 L 1535.0,1982.0" style="stroke:#010101; fill:none;"/>
	<path d="M 1532.0,1979.0 L 1530.0,1981.0" style="stroke:#010101; fill:none;"/>
	<path d="M 2090.0,1979.0 L 2094.58,2004.0 L 2102.0,2053.0" style="stroke:#010101; fill:none;"/>
	<path d="M 1651.0,1985.0 C 1637.82,2002.1 1622.6,2020.03 1614.0,2040.0" style="stroke:#010101; fill:none;"/>
	<path d="M 1462.0,2013.0 L 1448.0,1989.0 L 1451.0,1987.0" style="stroke:#010101; fill:none;"/>
	<path d="M 1070.0,2193.0 L 1110.0,2170.42 L 1162.0,2140.52 L 1201.0,2116.19 L 1219.0,2106.54 L 1251.0,2122.0 L 1242.0,2094.0 L 1279.0,2078.6 L 1369.0,2047.69 L 1404.0,2027.7 L 1447.0,1990.0" style="stroke:#010101; fill:none;"/>
	<path d="M 1985.0,2002.0 L 1984.0,2021.0" style="stroke:#010101; fill:none;"/>
	<path d="M 1697.0,2010.0 L 1688.0,2089.0" style="stroke:#010101; fill:none;"/>
	<path d="M 1812.0,2010.0 L 1867.0,2096.0" style="stroke:#010101; fill:none;"/>
	<path d="M 1466.0,2021.0 L 1468.0,2026.0" style="stroke:#010101; fill:none;"/>
	<path d="M 1512.0,2034.0 L 1517.0,2037.0" style="stroke:#010101; fill:none;"/>
	<path d="M 1594.0,2039.0 C 1576.26,2110.99 1524.0,2161.13 1462.0,2199.19 C 1442.71,2211.03 1418.64,2230.12 1395.0,2229.0" style="stroke:#010101; fill:none;"/>
	<path d="M 1377.0,2045.0 L 1392.0,2068.0" style="stroke:#010101; fill:none;"/>
	<path d="M 1469.0,2064.0 L 1473.0,2068.0 L 1471.0,2070.0 L 1467.0,2066.0 L 1479.0,2055.0" style="stroke:#010101; fill:none;"/>
	<path d="M 1483.0,2060.0 L 1474.0,2068.0" style="stroke:#010101; fill:none;"/>
	<path d="M 1466.0,2068.0 L 1466.0,2072.0 L 1470.0,2071.0" style="stroke:#010101; fill:none;"/>
	<path d="M 2120.0,2068.0 L 2131.71,2139.0 L 2134.0,2225.0" style="stroke:#010101; fill:none;"/>
	<path d="M 1466.0,2072.0 C 1454.22,2083.78 1441.51,2085.07 1428.0,2093.47 C 1418.72,2099.23 1410.5,2109.67 1398.0,2107.0" style="stroke:#010101; fill:none;"/>
	<path d="M 1295.0,2074.0 C 1296.66,2076.31 1302.33,2089.26 1296.84,2089.9 C 1290.84,2090.6 1284.27,2083.02 1281.0,2079.0" style="stroke:#010101; fill:none;"/>
	<path d="M 1398.0,2077.0 L 1405.0,2085.0" style="stroke:#010101; fill:none;"/>
	<path d="M 1448.0,2088.0 C 1433.73,2112.79 1403.25,2129.95 1378.0,2141.54 C 1360.13,2149.75 1342.53,2160.16 1324.0,2166.66 C 1297.04,2176.1 1269.17,2179.05 1241.0,2180.92 C 1225.97,2181.92 1211.1,2184.0 1196.0,2184.0 C 1191.33,2184.0 1184.45,2185.39 1180.09,2183.67 C 1165.02,2177.71 1159.96,2160.7 1151.0,2149.0" style="stroke:#010101; fill:none;"/>
	<path d="M 1780.0,2089.0 C 1775.1,2127.76 1765.0,2167.89 1765.0,2207.0" style="stroke:#010101; fill:none;"/>
	<path d="M 1300.0,2092.0 L 1322.0,2118.0" style="stroke:#010101; fill:none;"/>
	<path d="M 1221.0,2106.0 C 1226.91,2100.61 1234.15,2095.88 1242.0,2094.0" style="stroke:#010101; fill:none;"/>
	<path d="M 2105.0,2105.0 C 2102.69,2122.17 2095.04,2138.85 2093.32,2156.0 C 2092.85,2160.67 2096.56,2163.58 2096.72,2168.0 C 2097.1,2178.51 2091.48,2200.1 2086.0,2209.0 L 2083.0,2201.0" style="stroke:#010101; fill:none;"/>
	<path d="M 2188.0,2109.0 L 2184.83,2129.0 L 2180.91,2179.0 L 2164.0,2316.0" style="stroke:#010101; fill:none;"/>
	<path d="M 1874.0,2111.0 L 1873.61,2143.83 L 1889.97,2164.0 L 1920.0,2207.0" style="stroke:#010101; fill:none;"/>
	<path d="M 1202.0,2117.0 L 1207.0,2121.0" style="stroke:#010101; fill:none;"/>
	<path d="M 1202.0,2119.0 C 1202.03,2128.56 1204.75,2136.53 1212.0,2143.0" style="stroke:#010101; fill:none;"/>
	<path d="M 1251.0,2122.0 L 1259.0,2129.0 L 1261.0,2127.0 L 1257.0,2124.0" style="stroke:#010101; fill:none;"/>
	<path d="M 1261.0,2128.0 L 1280.55,2152.0 L 1280.0,2167.0 C 1291.23,2164.4 1300.91,2163.92 1304.0,2152.0 L 1282.0,2152.0" style="stroke:#010101; fill:none;"/>
	<path d="M 1352.0,2131.0 L 1357.0,2135.0" style="stroke:#010101; fill:none;"/>
	<path d="M 1180.0,2148.0 C 1172.67,2133.55 1194.77,2130.39 1203.0,2138.0" style="stroke:#010101; fill:none;"/>
	<path d="M 1351.0,2134.0 L 1354.0,2142.0" style="stroke:#010101; fill:none;"/>
	<path d="M 1158.0,2159.0 C 1165.35,2153.45 1166.93,2144.12 1177.0,2144.0" style="stroke:#010101; fill:none;"/>
	<path d="M 1216.0,2145.0 L 1243.0,2180.0" style="stroke:#010101; fill:none;"/>
	<path d="M 1305.0,2151.0 L 1309.0,2150.0" style="stroke:#010101; fill:none;"/>
	<path d="M 807.0,2151.0 L 807.0,2152.0" style="stroke:#010101; fill:none;"/>
	<path d="M 1182.0,2151.0 L 1201.0,2176.0" style="stroke:#010101; fill:none;"/>
	<path d="M 2053.0,2155.0 C 2043.7,2179.78 2043.03,2207.29 2032.54,2232.0 C 2027.75,2243.28 2018.19,2250.12 2011.52,2260.0 C 2003.98,2271.16 1999.29,2284.05 1991.41,2295.0 C 1980.28,2310.46 1966.35,2323.95 1954.67,2339.0 C 1937.64,2360.93 1922.0,2389.79 1900.0,2407.0" style="stroke:#010101; fill:none;"/>
	<path d="M 1335.0,2157.0 L 1335.0,2159.0" style="stroke:#010101; fill:none;"/>
	<path d="M 2103.0,2157.0 L 2117.0,2322.0" style="stroke:#010101; fill:none;"/>
	<path d="M 2093.0,2161.0 L 2086.0,2184.0" style="stroke:#010101; fill:none;"/>
	<path d="M 1279.0,2168.0 L 1276.0,2175.0" style="stroke:#010101; fill:none;"/>
	<path d="M 905.0,2170.0 C 902.933,2175.15 903.937,2180.53 904.004,2186.0 C 904.182,2200.47 905.445,2219.94 912.0,2233.0" style="stroke:#010101; fill:none;"/>
	<path d="M 2098.0,2173.0 L 2105.0,2202.0" style="stroke:#010101; fill:none;"/>
	<path d="M 1100.0,2178.0 C 1111.99,2191.74 1141.45,2189.84 1158.0,2189.04 C 1164.88,2188.7 1172.3,2188.12 1178.0,2184.0" style="stroke:#010101; fill:none;"/>
	<path d="M 2082.0,2205.0 L 2084.0,2221.0 L 2086.0,2209.0" style="stroke:#010101; fill:none;"/>
	<path d="M 1127.0,2207.0 C 1143.85,2221.33 1170.14,2226.63 1191.0,2232.42 C 1254.1,2249.96 1321.88,2254.23 1386.0,2241.0" style="stroke:#010101; fill:none;"/>
	<path d="M 1965.0,2212.0 C 1964.78,2238.59 1954.98,2258.06 1945.4,2282.0 C 1936.1,2305.23 1927.61,2328.76 1918.4,2352.0 C 1913.86,2363.45 1909.23,2374.78 1904.14,2386.0 C 1901.75,2391.25 1897.3,2396.04 1898.0,2402.0 L 1906.0,2393.0" style="stroke:#010101; fill:none;"/>
	<path d="M 2094.0,2212.0 L 2103.0,2338.0" style="stroke:#010101; fill:none;"/>
	<path d="M 1869.0,2220.0 C 1873.04,2251.95 1871.26,2285.05 1868.17,2317.0 C 1866.62,2332.97 1866.5,2350.38 1862.69,2366.0 C 1861.12,2372.43 1858.3,2378.29 1857.0,2385.0" style="stroke:#010101; fill:none;"/>
	<path d="M 2084.0,2221.0 C 2083.81,2237.76 2074.58,2258.79 2069.72,2275.0 C 2061.16,2303.54 2052.65,2332.07 2042.23,2360.0 C 2037.69,2372.16 2034.37,2386.22 2027.0,2397.0" style="stroke:#010101; fill:none;"/>
	<path d="M 1938.0,2228.0 C 1936.44,2236.29 1935.72,2244.92 1933.28,2253.0 C 1932.24,2256.45 1931.08,2261.53 1927.0,2259.0" style="stroke:#010101; fill:none;"/>
	<path d="M 2084.0,2229.0 C 2086.66,2233.98 2084.91,2238.87 2086.58,2244.0 C 2096.34,2273.84 2098.0,2302.58 2098.0,2334.0" style="stroke:#010101; fill:none;"/>
	<path d="M 1749.0,2243.0 L 1728.0,2268.0" style="stroke:#010101; fill:none;"/>
	<path d="M 1958.0,2246.0 L 1956.0,2254.0" style="stroke:#010101; fill:none;"/>
	<path d="M 1886.0,2247.0 C 1886.0,2272.72 1885.93,2299.49 1882.58,2325.0 C 1881.79,2330.95 1882.26,2348.14 1874.0,2348.0" style="stroke:#010101; fill:none;"/>
	<path d="M 2086.0,2247.0 L 2079.72,2332.0 L 2074.0,2368.0" style="stroke:#010101; fill:none;"/>
	<path d="M 1897.0,2252.0 C 1897.0,2274.89 1896.58,2300.67 1892.0,2323.0" style="stroke:#010101; fill:none;"/>
	<path d="M 1658.0,2275.0 L 1685.0,2262.0" style="stroke:#010101; fill:none;"/>
	<path d="M 1911.0,2268.0 L 1911.0,2304.0" style="stroke:#010101; fill:none;"/>
	<path d="M 1863.0,2271.0 L 1860.0,2369.0" style="stroke:#010101; fill:none;"/>
	<path d="M 1071.0,2278.0 C 1123.26,2340.92 1172.65,2407.44 1230.0,2466.0" style="stroke:#010101; fill:none;"/>
	<path d="M 1716.0,2279.0 C 1712.55,2288.43 1705.4,2296.57 1700.05,2305.0 C 1687.43,2324.88 1674.33,2345.93 1658.0,2363.0" style="stroke:#010101; fill:none;"/>
	<path d="M 1857.0,2286.0 L 1842.0,2401.0" style="stroke:#010101; fill:none;"/>
	<path d="M 943.0,2290.0 L 951.0,2301.0" style="stroke:#010101; fill:none;"/>
	<path d="M 1907.0,2292.0 L 1909.0,2297.0" style="stroke:#010101; fill:none;"/>
	<path d="M 843.0,2317.0 L 850.0,2325.0" style="stroke:#010101; fill:none;"/>
	<path d="M 1839.0,2331.0 L 1829.0,2428.0" style="stroke:#010101; fill:none;"/>
	<path d="M 1586.0,2332.0 C 1558.44,2350.24 1528.51,2366.9 1499.0,2381.75 C 1492.53,2385.01 1472.61,2397.44 1469.0,2386.0" style="stroke:#010101; fill:none;"/>
	<path d="M 1541.0,2432.0 C 1585.62,2426.33 1617.68,2396.47 1655.0,2375.0" style="stroke:#010101; fill:none;"/>
	<path d="M 1826.0,2377.0 C 1822.62,2403.58 1820.15,2438.77 1804.0,2461.0" style="stroke:#010101; fill:none;"/>
	<path d="M 900.0,2391.0 C 908.156,2394.83 913.985,2404.51 920.089,2411.0 C 930.345,2421.89 942.083,2431.85 954.0,2440.87 C 997.417,2473.74 1044.3,2500.33 1090.0,2529.69 C 1106.81,2540.5 1124.13,2550.31 1142.0,2559.25 C 1147.98,2562.24 1156.25,2568.66 1163.0,2567.0 L 1159.0,2563.0" style="stroke:#010101; fill:none;"/>
	<path d="M 1896.0,2402.0 L 1899.0,2402.0" style="stroke:#010101; fill:none;"/>
	<path d="M 1895.0,2404.0 L 1897.0,2405.0" style="stroke:#010101; fill:none;"/>
	<path d="M 1895.0,2406.0 C 1878.08,2427.34 1863.94,2450.15 1844.96,2470.0 C 1818.53,2497.64 1787.16,2518.91 1756.0,2540.72 C 1692.16,2585.4 1620.37,2627.88 1541.0,2633.91 C 1533.75,2634.46 1526.97,2632.26 1520.0,2632.53 C 1479.97,2634.05 1438.58,2634.59 1399.0,2627.92 C 1356.9,2620.82 1314.96,2608.0 1272.0,2608.0 C 1273.3,2617.91 1281.64,2625.47 1287.49,2633.0 C 1300.91,2650.29 1317.37,2667.86 1328.0,2687.0" style="stroke:#010101; fill:none;"/>
	<path d="M 1109.0,2445.0 C 1114.66,2459.92 1130.43,2470.46 1143.0,2479.28 C 1174.74,2501.56 1210.08,2515.12 1244.0,2533.0" style="stroke:#010101; fill:none;"/>
	<path d="M 1163.0,2567.0 L 1167.0,2569.0 L 1162.0,2569.0" style="stroke:#010101; fill:none;"/>
	<path d="M 1168.0,2569.0 L 1166.0,2571.0" style="stroke:#010101; fill:none;"/>
	<path d="M 1170.0,2570.0 L 1168.0,2572.0" style="stroke:#010101; fill:none;"/>
	<path d="M 1171.0,2571.0 L 1180.0,2575.0 L 1170.0,2573.0" style="stroke:#010101; fill:none;"/>
	<path d="M 1180.0,2575.0 L 1183.0,2576.0 L 1181.0,2578.0 L 1179.0,2576.0" style="stroke:#010101; fill:none;"/>
	<path d="M 1184.0,2576.0 L 1182.0,2578.0" style="stroke:#010101; fill:none;"/>
	<path d="M 1186.0,2577.0 C 1211.1,2591.65 1241.41,2605.71 1271.0,2607.0" style="stroke:#010101; fill:none;"/>
	<path d="M 1539.0,2623.0 L 1538.0,2624.0" style="stroke:#010101; fill:none;"/>
	<path d="M 1523.0,2630.0 L 1523.0,2632.0" style="stroke:#010101; fill:none;"/>
</svg>
