<?xml version="1.0" ?>
<svg baseProfile="full" height="1466" version="1.1" width="1161" xmlns="http://www.w3.org/2000/svg" xmlns:ev="http://www.w3.org/2001/xml-events" xmlns:xlink="http://www.w3.org/1999/xlink">
	<defs/>
	<path d="M 281.0,567.0 L 282.0,567.0" style="stroke:#010101; fill:none;"/>
	<path d="M 284.0,567.0 L 286.0,567.0" style="stroke:#010101; fill:none;"/>
	<path d="M 273.0,568.0 L 274.0,568.0" style="stroke:#010101; fill:none;"/>
	<path d="M 276.0,568.0 L 277.0,568.0" style="stroke:#010101; fill:none;"/>
	<path d="M 296.0,568.0 L 297.0,568.0" style="stroke:#010101; fill:none;"/>
	<path d="M 332.0,568.0 L 308.0,572.0" style="stroke:#010101; fill:none;"/>
	<path d="M 268.0,569.0 L 269.0,569.0" style="stroke:#010101; fill:none;"/>
	<path d="M 278.0,581.0 L 285.0,581.0 L 275.0,582.388 L 257.0,587.0 L 254.0,593.0 L 248.0,592.0 L 238.0,587.0 C 250.038,576.563 277.236,570.255 293.0,569.0" style="stroke:#010101; fill:none;"/>
	<path d="M 299.0,569.0 C 294.411,575.479 273.758,577.092 266.0,579.667 C 261.762,581.073 255.511,581.543 257.0,587.0" style="stroke:#010101; fill:none;"/>
	<path d="M 256.0,572.0 L 266.0,570.0" style="stroke:#010101; fill:none;"/>
	<path d="M 300.0,571.0 L 306.0,572.0" style="stroke:#010101; fill:none;"/>
	<path d="M 300.0,571.0 L 303.0,577.0 C 298.613,578.592 296.096,578.168 292.0,576.0 L 291.0,581.0 L 284.0,579.0" style="stroke:#010101; fill:none;"/>
	<path d="M 303.0,577.0 L 336.0,571.0" style="stroke:#010101; fill:none;"/>
	<path d="M 250.0,573.0 L 248.0,574.0" style="stroke:#010101; fill:none;"/>
	<path d="M 302.0,573.0 L 305.0,572.0" style="stroke:#010101; fill:none;"/>
	<path d="M 294.0,576.0 L 301.0,574.0" style="stroke:#010101; fill:none;"/>
	<path d="M 245.0,575.0 L 246.0,575.0" style="stroke:#010101; fill:none;"/>
	<path d="M 368.0,594.0 C 344.752,588.683 319.911,600.3 297.0,598.129 C 291.053,597.565 283.609,594.07 278.0,592.0 L 295.0,584.974 L 343.0,576.0" style="stroke:#010101; fill:none;"/>
	<path d="M 287.0,578.0 L 291.0,577.0" style="stroke:#010101; fill:none;"/>
	<path d="M 292.0,580.0 L 294.0,580.0" style="stroke:#010101; fill:none;"/>
	<path d="M 285.0,582.0 L 287.0,582.0" style="stroke:#010101; fill:none;"/>
	<path d="M 286.0,592.0 C 302.569,586.702 320.56,583.048 338.0,583.0" style="stroke:#010101; fill:none;"/>
	<path d="M 344.0,583.0 L 346.0,583.0" style="stroke:#010101; fill:none;"/>
	<path d="M 246.0,588.0 L 255.0,584.0" style="stroke:#010101; fill:none;"/>
	<path d="M 278.0,591.0 L 270.0,588.0 L 279.0,584.0" style="stroke:#010101; fill:none;"/>
	<path d="M 224.0,590.0 L 237.0,586.0" style="stroke:#010101; fill:none;"/>
	<path d="M 225.0,587.0 L 229.0,588.0" style="stroke:#010101; fill:none;"/>
	<path d="M 235.0,587.0 C 234.703,590.816 236.674,591.133 240.0,590.0" style="stroke:#010101; fill:none;"/>
	<path d="M 291.0,595.0 C 312.306,588.26 337.792,587.0 360.0,587.0" style="stroke:#010101; fill:none;"/>
	<path d="M 227.0,588.0 L 227.0,590.0" style="stroke:#010101; fill:none;"/>
	<path d="M 263.0,588.0 L 270.0,589.0" style="stroke:#010101; fill:none;"/>
	<path d="M 231.0,589.0 L 233.0,589.0" style="stroke:#010101; fill:none;"/>
	<path d="M 266.0,589.0 L 268.0,589.0" style="stroke:#010101; fill:none;"/>
	<path d="M 230.0,590.0 L 234.0,591.0" style="stroke:#010101; fill:none;"/>
	<path d="M 261.0,590.0 L 256.0,592.0 L 256.0,592.0" style="stroke:#010101; fill:none;"/>
	<path d="M 239.0,591.0 L 248.0,593.0" style="stroke:#010101; fill:none;"/>
	<path d="M 269.0,592.0 L 273.0,593.0" style="stroke:#010101; fill:none;"/>
	<path d="M 254.0,593.0 L 250.0,597.0 L 247.0,594.0" style="stroke:#010101; fill:none;"/>
	<path d="M 273.0,593.0 L 280.0,593.0" style="stroke:#010101; fill:none;"/>
	<path d="M 259.0,594.0 C 257.286,597.989 259.656,599.959 263.0,602.0 L 262.0,599.0" style="stroke:#010101; fill:none;"/>
	<path d="M 370.0,594.0 L 376.0,594.0" style="stroke:#010101; fill:none;"/>
	<path d="M 260.0,595.0 C 264.761,595.433 269.816,597.381 265.0,602.0" style="stroke:#010101; fill:none;"/>
	<path d="M 275.0,595.0 C 275.384,599.053 276.9,599.514 280.0,597.0 L 278.0,595.0" style="stroke:#010101; fill:none;"/>
	<path d="M 228.0,596.0 L 275.0,611.0" style="stroke:#010101; fill:none;"/>
	<path d="M 266.0,596.0 L 263.0,599.0" style="stroke:#010101; fill:none;"/>
	<path d="M 284.0,596.0 C 287.064,599.59 292.824,600.749 292.0,606.0 L 293.0,607.0 L 294.0,605.0" style="stroke:#010101; fill:none;"/>
	<path d="M 280.0,597.0 L 283.0,598.0" style="stroke:#010101; fill:none;"/>
	<path d="M 334.0,615.0 C 327.093,610.968 317.638,608.617 314.0,601.0 C 332.638,595.478 355.683,597.0 375.0,597.0" style="stroke:#010101; fill:none;"/>
	<path d="M 223.0,598.0 L 249.0,606.0" style="stroke:#010101; fill:none;"/>
	<path d="M 252.0,598.0 L 257.0,598.0" style="stroke:#010101; fill:none;"/>
	<path d="M 269.0,598.0 L 274.0,598.0" style="stroke:#010101; fill:none;"/>
	<path d="M 377.0,598.0 L 381.0,598.0" style="stroke:#010101; fill:none;"/>
	<path d="M 283.0,599.0 C 282.562,604.653 287.616,605.115 292.0,604.0" style="stroke:#010101; fill:none;"/>
	<path d="M 300.0,600.0 L 313.0,604.0" style="stroke:#010101; fill:none;"/>
	<path d="M 338.0,606.0 L 339.0,610.0 L 330.0,605.0 C 326.294,606.646 324.441,606.072 321.0,604.0 C 341.119,597.638 365.259,600.998 386.0,601.0" style="stroke:#010101; fill:none;"/>
	<path d="M 279.0,601.0 L 281.0,601.0" style="stroke:#010101; fill:none;"/>
	<path d="M 311.0,601.0 L 314.0,601.0" style="stroke:#010101; fill:none;"/>
	<path d="M 267.0,602.0 L 270.0,605.0 L 273.0,603.0" style="stroke:#010101; fill:none;"/>
	<path d="M 269.0,602.0 L 271.0,603.0" style="stroke:#010101; fill:none;"/>
	<path d="M 388.0,602.0 L 389.0,602.0" style="stroke:#010101; fill:none;"/>
	<path d="M 286.0,603.0 L 289.0,603.0" style="stroke:#010101; fill:none;"/>
	<path d="M 294.0,603.0 L 298.0,604.0 L 294.0,606.0" style="stroke:#010101; fill:none;"/>
	<path d="M 230.0,604.0 L 231.0,604.0" style="stroke:#010101; fill:none;"/>
	<path d="M 299.0,604.0 C 300.963,606.819 301.639,607.951 305.0,607.0 L 301.0,606.0" style="stroke:#010101; fill:none;"/>
	<path d="M 317.0,604.0 L 321.0,604.0" style="stroke:#010101; fill:none;"/>
	<path d="M 233.0,605.0 L 235.0,606.0" style="stroke:#010101; fill:none;"/>
	<path d="M 278.0,607.0 L 276.0,605.0 L 284.0,608.0" style="stroke:#010101; fill:none;"/>
	<path d="M 344.0,607.0 L 349.0,607.0 L 342.0,608.0 L 345.0,612.0 L 338.0,611.0" style="stroke:#010101; fill:none;"/>
	<path d="M 349.0,606.0 C 357.686,611.981 365.962,618.916 378.0,613.0 C 369.451,606.3 362.644,607.001 352.0,607.0" style="stroke:#010101; fill:none;"/>
	<path d="M 272.0,606.0 L 275.0,606.0" style="stroke:#010101; fill:none;"/>
	<path d="M 279.0,606.0 L 281.0,606.0" style="stroke:#010101; fill:none;"/>
	<path d="M 373.0,608.0 L 380.0,609.0 C 387.751,603.602 399.047,607.753 407.0,611.0" style="stroke:#010101; fill:none;"/>
	<path d="M 379.0,606.0 L 381.0,606.0" style="stroke:#010101; fill:none;"/>
	<path d="M 410.0,606.0 C 425.34,616.349 444.14,626.593 455.0,642.0" style="stroke:#010101; fill:none;"/>
	<path d="M 237.0,607.0 L 238.0,607.0" style="stroke:#010101; fill:none;"/>
	<path d="M 252.0,607.0 L 254.0,607.0" style="stroke:#010101; fill:none;"/>
	<path d="M 290.0,607.0 L 291.0,607.0" style="stroke:#010101; fill:none;"/>
	<path d="M 298.0,607.0 L 300.0,607.0" style="stroke:#010101; fill:none;"/>
	<path d="M 374.0,607.0 L 378.0,607.0" style="stroke:#010101; fill:none;"/>
	<path d="M 386.0,608.0 L 382.0,608.0" style="stroke:#010101; fill:none;"/>
	<path d="M 397.0,607.0 L 398.0,608.0" style="stroke:#010101; fill:none;"/>
	<path d="M 420.0,607.0 C 437.496,617.975 452.952,629.749 467.0,645.0" style="stroke:#010101; fill:none;"/>
	<path d="M 241.0,608.0 L 242.0,608.0" style="stroke:#010101; fill:none;"/>
	<path d="M 256.0,608.0 L 257.0,608.0" style="stroke:#010101; fill:none;"/>
	<path d="M 305.0,608.0 L 319.0,612.0" style="stroke:#010101; fill:none;"/>
	<path d="M 307.0,608.0 L 309.0,609.0" style="stroke:#010101; fill:none;"/>
	<path d="M 363.0,608.0 L 365.0,611.0" style="stroke:#010101; fill:none;"/>
	<path d="M 244.0,609.0 L 245.0,609.0" style="stroke:#010101; fill:none;"/>
	<path d="M 259.0,609.0 L 260.0,610.0" style="stroke:#010101; fill:none;"/>
	<path d="M 286.0,609.0 L 288.0,609.0" style="stroke:#010101; fill:none;"/>
	<path d="M 332.0,609.0 L 338.0,611.0" style="stroke:#010101; fill:none;"/>
	<path d="M 387.0,609.0 L 393.0,609.0" style="stroke:#010101; fill:none;"/>
	<path d="M 407.0,609.0 L 408.0,609.0" style="stroke:#010101; fill:none;"/>
	<path d="M 309.0,610.0 L 312.0,611.0" style="stroke:#010101; fill:none;"/>
	<path d="M 399.0,610.0 L 400.0,610.0" style="stroke:#010101; fill:none;"/>
	<path d="M 411.0,611.0 C 414.572,613.712 416.79,614.866 421.0,613.0" style="stroke:#010101; fill:none;"/>
	<path d="M 346.0,612.0 L 344.0,614.0" style="stroke:#010101; fill:none;"/>
	<path d="M 347.0,613.0 L 354.0,614.0" style="stroke:#010101; fill:none;"/>
	<path d="M 379.0,613.0 L 389.0,617.0 L 412.0,613.0" style="stroke:#010101; fill:none;"/>
	<path d="M 387.0,614.0 L 388.0,614.0" style="stroke:#010101; fill:none;"/>
	<path d="M 376.0,615.0 L 412.0,636.0" style="stroke:#010101; fill:none;"/>
	<path d="M 399.0,615.0 L 449.0,643.0" style="stroke:#010101; fill:none;"/>
	<path d="M 347.0,616.0 L 351.0,615.0" style="stroke:#010101; fill:none;"/>
	<path d="M 350.0,616.0 L 352.0,618.0" style="stroke:#010101; fill:none;"/>
	<path d="M 355.0,616.0 L 367.0,621.0" style="stroke:#010101; fill:none;"/>
	<path d="M 367.0,616.0 L 383.0,626.0" style="stroke:#010101; fill:none;"/>
	<path d="M 391.0,616.0 L 390.0,618.0" style="stroke:#010101; fill:none;"/>
	<path d="M 420.0,616.0 L 445.0,636.0" style="stroke:#010101; fill:none;"/>
	<path d="M 394.0,617.0 L 396.0,618.0 L 391.0,618.0" style="stroke:#010101; fill:none;"/>
	<path d="M 395.0,620.0 L 403.0,622.0 L 398.0,622.0" style="stroke:#010101; fill:none;"/>
	<path d="M 404.0,622.0 L 427.0,640.0" style="stroke:#010101; fill:none;"/>
	<path d="M 448.0,622.0 C 460.172,628.783 474.933,639.579 483.0,651.0" style="stroke:#010101; fill:none;"/>
	<path d="M 402.0,624.0 L 404.0,626.0" style="stroke:#010101; fill:none;"/>
	<path d="M 408.0,624.0 L 436.0,641.0" style="stroke:#010101; fill:none;"/>
	<path d="M 385.0,626.0 L 404.0,637.0" style="stroke:#010101; fill:none;"/>
	<path d="M 434.0,687.0 C 425.732,684.538 419.733,675.862 415.0,669.0 C 408.129,674.235 411.289,680.679 409.211,688.0 C 406.525,697.466 399.609,702.831 391.0,706.827 C 369.911,716.615 344.576,699.934 346.214,676.0 C 346.838,666.872 354.386,660.261 359.0,653.0 L 341.035,657.472 L 331.0,650.0 C 323.119,655.669 311.767,652.273 307.0,644.0 C 321.909,637.392 334.344,640.012 350.0,641.054 C 367.572,642.224 386.974,642.63 404.0,647.428 C 419.47,651.788 433.151,660.134 447.0,668.0 C 465.956,678.767 483.984,690.015 484.0,714.0" style="stroke:#010101; fill:none;"/>
	<path d="M 415.0,639.0 L 420.0,642.0" style="stroke:#010101; fill:none;"/>
	<path d="M 252.0,641.0 L 253.0,641.0" style="stroke:#010101; fill:none;"/>
	<path d="M 343.0,641.0 L 346.0,652.0" style="stroke:#010101; fill:none;"/>
	<path d="M 352.0,642.0 L 353.0,651.0" style="stroke:#010101; fill:none;"/>
	<path d="M 363.0,643.0 C 363.137,654.627 378.641,651.579 388.0,652.0 L 389.0,647.0" style="stroke:#010101; fill:none;"/>
	<path d="M 290.0,649.0 L 307.0,644.0" style="stroke:#010101; fill:none;"/>
	<path d="M 372.0,644.0 L 372.0,650.0" style="stroke:#010101; fill:none;"/>
	<path d="M 342.0,645.0 L 332.0,650.0" style="stroke:#010101; fill:none;"/>
	<path d="M 380.0,646.0 L 379.0,649.0" style="stroke:#010101; fill:none;"/>
	<path d="M 269.0,647.0 C 282.532,650.093 300.474,659.218 314.0,652.0" style="stroke:#010101; fill:none;"/>
	<path d="M 364.0,651.0 L 359.0,653.0" style="stroke:#010101; fill:none;"/>
	<path d="M 400.0,651.0 C 398.937,657.74 409.902,671.13 416.0,674.0" style="stroke:#010101; fill:none;"/>
	<path d="M 338.0,654.0 L 345.0,653.0" style="stroke:#010101; fill:none;"/>
	<path d="M 389.0,653.0 L 398.0,655.0" style="stroke:#010101; fill:none;"/>
	<path d="M 334.0,654.0 C 328.955,658.177 316.569,662.709 314.403,669.093 C 312.939,673.407 316.478,680.513 318.761,684.0 C 325.795,694.746 335.025,704.22 347.0,709.0 C 372.734,719.272 398.313,715.706 425.0,717.733 C 439.743,718.853 452.472,723.616 466.0,729.0" style="stroke:#010101; fill:none;"/>
	<path d="M 779.0,657.0 L 780.0,658.0" style="stroke:#010101; fill:none;"/>
	<path d="M 277.0,659.0 C 291.502,661.992 304.717,662.529 319.0,658.0" style="stroke:#010101; fill:none;"/>
	<path d="M 782.0,659.0 L 825.0,689.0 L 817.0,692.0 L 819.0,690.0" style="stroke:#010101; fill:none;"/>
	<path d="M 668.0,661.0 L 661.0,675.0" style="stroke:#010101; fill:none;"/>
	<path d="M 410.0,665.0 L 413.0,669.0" style="stroke:#010101; fill:none;"/>
	<path d="M 678.0,665.0 L 641.0,701.0" style="stroke:#010101; fill:none;"/>
	<path d="M 774.0,665.0 L 775.0,665.0" style="stroke:#010101; fill:none;"/>
	<path d="M 297.0,667.0 L 308.0,666.0" style="stroke:#010101; fill:none;"/>
	<path d="M 777.0,666.0 L 778.0,666.0" style="stroke:#010101; fill:none;"/>
	<path d="M 780.0,667.0 L 786.0,670.0" style="stroke:#010101; fill:none;"/>
	<path d="M 373.0,670.0 C 376.903,678.395 384.956,673.21 389.248,678.742 C 391.871,682.121 385.413,685.464 383.0,686.192 C 372.505,689.36 364.455,677.54 373.0,670.0" style="stroke:#010101; fill:none;"/>
	<path d="M 715.0,671.0 L 716.0,671.0" style="stroke:#010101; fill:none;"/>
	<path d="M 720.0,671.0 C 729.063,674.849 748.469,682.985 758.0,681.0 L 742.0,674.0" style="stroke:#010101; fill:none;"/>
	<path d="M 734.0,671.0 L 735.0,671.0" style="stroke:#010101; fill:none;"/>
	<path d="M 773.0,671.0 L 774.0,671.0" style="stroke:#010101; fill:none;"/>
	<path d="M 789.0,671.0 L 806.0,679.0" style="stroke:#010101; fill:none;"/>
	<path d="M 737.0,672.0 L 739.0,673.0" style="stroke:#010101; fill:none;"/>
	<path d="M 750.0,672.0 L 751.0,672.0" style="stroke:#010101; fill:none;"/>
	<path d="M 776.0,672.0 L 816.0,689.0" style="stroke:#010101; fill:none;"/>
	<path d="M 293.0,676.0 L 307.0,673.0" style="stroke:#010101; fill:none;"/>
	<path d="M 686.0,673.0 L 670.0,686.0 C 680.966,688.771 696.3,682.547 707.0,680.0" style="stroke:#010101; fill:none;"/>
	<path d="M 673.0,683.0 L 705.0,673.0" style="stroke:#010101; fill:none;"/>
	<path d="M 753.0,673.0 L 755.0,673.0" style="stroke:#010101; fill:none;"/>
	<path d="M 653.0,674.0 L 643.0,688.0 L 654.0,680.0" style="stroke:#010101; fill:none;"/>
	<path d="M 671.0,683.0 C 670.679,678.433 674.4,676.385 678.0,674.0" style="stroke:#010101; fill:none;"/>
	<path d="M 707.0,674.0 L 708.0,674.0" style="stroke:#010101; fill:none;"/>
	<path d="M 757.0,674.0 L 759.0,674.0" style="stroke:#010101; fill:none;"/>
	<path d="M 303.0,675.0 L 304.0,676.0" style="stroke:#010101; fill:none;"/>
	<path d="M 761.0,675.0 L 777.0,680.0" style="stroke:#010101; fill:none;"/>
	<path d="M 431.0,676.0 L 426.0,681.0" style="stroke:#010101; fill:none;"/>
	<path d="M 715.0,676.0 C 739.306,680.714 763.941,689.458 787.0,698.0 L 788.0,693.0 L 784.0,696.0" style="stroke:#010101; fill:none;"/>
	<path d="M 289.0,681.0 L 301.0,678.0" style="stroke:#010101; fill:none;"/>
	<path d="M 643.0,680.0 L 639.0,687.0" style="stroke:#010101; fill:none;"/>
	<path d="M 660.0,691.0 L 657.0,691.0 C 665.11,695.278 667.534,690.113 666.0,683.0 L 667.0,682.0 L 668.0,681.0 L 669.0,681.0" style="stroke:#010101; fill:none;"/>
	<path d="M 705.0,681.0 C 705.451,686.668 697.089,685.0 693.0,685.0" style="stroke:#010101; fill:none;"/>
	<path d="M 758.0,681.0 L 785.0,692.0" style="stroke:#010101; fill:none;"/>
	<path d="M 760.0,681.0 L 763.0,682.0" style="stroke:#010101; fill:none;"/>
	<path d="M 779.0,681.0 L 796.0,689.0 L 795.0,687.0" style="stroke:#010101; fill:none;"/>
	<path d="M 294.0,683.0 L 309.0,687.0" style="stroke:#010101; fill:none;"/>
	<path d="M 488.0,682.0 C 505.609,703.271 502.693,722.406 493.0,746.0" style="stroke:#010101; fill:none;"/>
	<path d="M 708.0,683.0 L 791.0,708.0 C 785.311,710.587 779.058,708.184 773.0,708.014 C 757.063,707.566 732.122,706.575 718.0,699.0 L 725.0,697.0" style="stroke:#010101; fill:none;"/>
	<path d="M 667.0,688.0 L 661.0,689.0 L 665.0,684.0" style="stroke:#010101; fill:none;"/>
	<path d="M 636.0,688.0 L 638.0,689.0" style="stroke:#010101; fill:none;"/>
	<path d="M 797.0,688.0 C 812.186,690.699 833.829,700.41 845.0,711.0 C 838.222,714.965 836.453,717.248 829.0,713.0 L 828.0,714.0 L 835.0,713.0 L 836.0,714.0 L 834.0,716.0" style="stroke:#010101; fill:none;"/>
	<path d="M 824.0,688.0 L 823.0,689.0" style="stroke:#010101; fill:none;"/>
	<path d="M 644.0,689.0 L 635.0,700.0" style="stroke:#010101; fill:none;"/>
	<path d="M 710.0,691.0 L 715.0,690.0 L 712.0,689.0" style="stroke:#010101; fill:none;"/>
	<path d="M 796.0,689.0 L 799.0,692.0 L 802.0,689.0" style="stroke:#010101; fill:none;"/>
	<path d="M 825.0,689.0 L 851.0,704.867 L 876.0,718.0" style="stroke:#010101; fill:none;"/>
	<path d="M 636.0,690.0 L 633.0,693.0" style="stroke:#010101; fill:none;"/>
	<path d="M 660.0,690.0 L 660.0,691.0" style="stroke:#010101; fill:none;"/>
	<path d="M 669.0,692.0 L 709.0,690.0" style="stroke:#010101; fill:none;"/>
	<path d="M 804.0,690.0 L 800.0,692.0" style="stroke:#010101; fill:none;"/>
	<path d="M 301.0,693.0 L 311.0,691.0" style="stroke:#010101; fill:none;"/>
	<path d="M 715.0,691.0 L 725.0,692.0" style="stroke:#010101; fill:none;"/>
	<path d="M 751.0,691.0 L 752.0,691.0" style="stroke:#010101; fill:none;"/>
	<path d="M 829.0,691.0 L 823.0,692.0" style="stroke:#010101; fill:none;"/>
	<path d="M 425.0,716.0 C 433.391,708.318 432.395,702.526 433.0,692.0 C 439.003,694.955 438.871,699.026 438.0,705.0" style="stroke:#010101; fill:none;"/>
	<path d="M 657.0,692.0 L 650.0,698.0" style="stroke:#010101; fill:none;"/>
	<path d="M 727.0,692.0 L 729.0,692.0" style="stroke:#010101; fill:none;"/>
	<path d="M 731.0,692.0 L 732.0,692.0" style="stroke:#010101; fill:none;"/>
	<path d="M 754.0,692.0 L 769.0,693.0" style="stroke:#010101; fill:none;"/>
	<path d="M 802.0,693.0 L 827.0,706.0 C 815.387,710.482 798.824,698.855 789.0,694.0" style="stroke:#010101; fill:none;"/>
	<path d="M 819.0,693.0 L 821.0,695.0" style="stroke:#010101; fill:none;"/>
	<path d="M 667.0,696.0 C 683.144,696.0 701.412,694.392 717.0,699.0" style="stroke:#010101; fill:none;"/>
	<path d="M 780.0,696.0 L 783.0,698.0" style="stroke:#010101; fill:none;"/>
	<path d="M 441.0,699.0 L 463.0,723.0" style="stroke:#010101; fill:none;"/>
	<path d="M 788.0,699.0 L 793.0,698.0" style="stroke:#010101; fill:none;"/>
	<path d="M 649.0,700.0 L 649.0,701.0" style="stroke:#010101; fill:none;"/>
	<path d="M 743.0,700.0 L 744.0,700.0" style="stroke:#010101; fill:none;"/>
	<path d="M 746.0,701.0 L 751.0,701.0" style="stroke:#010101; fill:none;"/>
	<path d="M 753.0,702.0 L 775.0,704.0" style="stroke:#010101; fill:none;"/>
	<path d="M 321.0,703.0 L 315.0,711.0" style="stroke:#010101; fill:none;"/>
	<path d="M 320.0,711.0 L 328.0,704.0" style="stroke:#010101; fill:none;"/>
	<path d="M 301.0,705.0 L 301.0,706.0" style="stroke:#010101; fill:none;"/>
	<path d="M 868.0,705.0 L 903.0,743.0 C 907.207,735.851 897.739,728.081 894.0,722.0" style="stroke:#010101; fill:none;"/>
	<path d="M 600.0,766.0 C 596.241,745.75 608.38,730.11 623.0,717.286 C 628.379,712.568 635.322,705.517 643.0,707.0" style="stroke:#010101; fill:none;"/>
	<path d="M 828.0,706.0 L 840.0,712.0" style="stroke:#010101; fill:none;"/>
	<path d="M 853.0,707.0 L 856.0,708.0" style="stroke:#010101; fill:none;"/>
	<path d="M 792.0,708.0 L 827.0,714.0" style="stroke:#010101; fill:none;"/>
	<path d="M 827.0,708.0 L 828.0,708.0" style="stroke:#010101; fill:none;"/>
	<path d="M 301.0,709.0 L 301.0,710.0" style="stroke:#010101; fill:none;"/>
	<path d="M 450.0,710.0 L 447.0,715.0" style="stroke:#010101; fill:none;"/>
	<path d="M 640.0,732.0 L 638.0,731.0 C 653.084,725.654 664.55,714.563 681.0,711.46 C 696.459,708.544 711.845,712.124 727.0,715.339 C 760.336,722.41 790.055,734.351 816.0,757.0" style="stroke:#010101; fill:none;"/>
	<path d="M 856.0,710.0 L 868.0,718.0 L 867.0,716.0" style="stroke:#010101; fill:none;"/>
	<path d="M 319.0,720.0 C 322.382,715.312 326.965,711.293 333.0,712.0" style="stroke:#010101; fill:none;"/>
	<path d="M 845.0,711.0 C 848.988,712.501 872.046,728.614 869.0,717.0" style="stroke:#010101; fill:none;"/>
	<path d="M 300.0,712.0 L 301.0,714.0" style="stroke:#010101; fill:none;"/>
	<path d="M 772.0,712.0 L 776.0,712.0" style="stroke:#010101; fill:none;"/>
	<path d="M 888.0,712.0 L 889.0,713.0" style="stroke:#010101; fill:none;"/>
	<path d="M 778.0,713.0 L 785.0,713.0" style="stroke:#010101; fill:none;"/>
	<path d="M 788.0,713.0 L 787.0,714.0" style="stroke:#010101; fill:none;"/>
	<path d="M 844.0,713.0 L 848.0,713.0" style="stroke:#010101; fill:none;"/>
	<path d="M 790.0,714.0 L 856.0,724.0" style="stroke:#010101; fill:none;"/>
	<path d="M 836.0,714.0 L 839.0,714.0" style="stroke:#010101; fill:none;"/>
	<path d="M 851.0,714.0 L 847.0,715.0" style="stroke:#010101; fill:none;"/>
	<path d="M 323.0,720.0 C 326.499,716.021 330.845,715.225 336.0,715.0" style="stroke:#010101; fill:none;"/>
	<path d="M 338.0,722.0 L 345.0,715.0" style="stroke:#010101; fill:none;"/>
	<path d="M 850.0,716.0 L 855.0,717.0" style="stroke:#010101; fill:none;"/>
	<path d="M 346.0,723.0 C 348.261,718.828 350.358,718.007 355.0,718.0" style="stroke:#010101; fill:none;"/>
	<path d="M 840.0,717.0 L 849.0,718.0" style="stroke:#010101; fill:none;"/>
	<path d="M 891.0,717.0 L 892.0,718.0" style="stroke:#010101; fill:none;"/>
	<path d="M 854.0,718.0 L 858.0,718.0" style="stroke:#010101; fill:none;"/>
	<path d="M 868.0,719.0 L 870.0,721.0" style="stroke:#010101; fill:none;"/>
	<path d="M 871.0,719.0 L 879.0,725.0 L 869.0,724.0" style="stroke:#010101; fill:none;"/>
	<path d="M 351.0,720.0 L 349.0,726.0 L 355.0,723.0 L 355.0,735.0" style="stroke:#010101; fill:none;"/>
	<path d="M 794.0,720.0 L 795.0,720.0" style="stroke:#010101; fill:none;"/>
	<path d="M 797.0,720.0 L 799.0,720.0" style="stroke:#010101; fill:none;"/>
	<path d="M 801.0,721.0 L 807.0,721.0" style="stroke:#010101; fill:none;"/>
	<path d="M 810.0,722.0 L 889.0,739.0" style="stroke:#010101; fill:none;"/>
	<path d="M 358.0,723.0 L 357.0,724.0" style="stroke:#010101; fill:none;"/>
	<path d="M 373.0,723.0 L 370.0,728.0" style="stroke:#010101; fill:none;"/>
	<path d="M 366.0,724.0 L 364.0,732.0" style="stroke:#010101; fill:none;"/>
	<path d="M 858.0,724.0 L 860.0,724.0" style="stroke:#010101; fill:none;"/>
	<path d="M 863.0,725.0 L 864.0,725.0" style="stroke:#010101; fill:none;"/>
	<path d="M 879.0,725.0 L 889.0,728.0" style="stroke:#010101; fill:none;"/>
	<path d="M 305.0,726.0 L 318.0,737.0" style="stroke:#010101; fill:none;"/>
	<path d="M 816.0,726.0 L 817.0,726.0" style="stroke:#010101; fill:none;"/>
	<path d="M 834.0,726.0 L 837.0,727.0" style="stroke:#010101; fill:none;"/>
	<path d="M 886.0,726.0 L 884.0,728.0" style="stroke:#010101; fill:none;"/>
	<path d="M 348.0,727.0 L 347.0,731.0" style="stroke:#010101; fill:none;"/>
	<path d="M 375.0,727.0 L 373.0,732.0" style="stroke:#010101; fill:none;"/>
	<path d="M 381.0,727.0 L 379.0,730.0" style="stroke:#010101; fill:none;"/>
	<path d="M 819.0,727.0 L 833.0,729.0" style="stroke:#010101; fill:none;"/>
	<path d="M 883.0,727.0 L 880.0,730.0 L 878.0,727.0" style="stroke:#010101; fill:none;"/>
	<path d="M 841.0,728.0 L 846.0,728.0" style="stroke:#010101; fill:none;"/>
	<path d="M 888.0,731.0 L 890.0,731.0" style="stroke:#010101; fill:none;"/>
	<path d="M 619.0,754.0 C 622.45,746.764 628.473,735.456 637.0,734.0" style="stroke:#010101; fill:none;"/>
	<path d="M 697.0,742.0 L 697.0,737.0 C 706.744,732.363 719.498,732.622 730.0,734.003 C 735.185,734.685 741.375,734.861 742.0,741.0" style="stroke:#010101; fill:none;"/>
	<path d="M 723.0,734.0 L 725.0,740.0" style="stroke:#010101; fill:none;"/>
	<path d="M 637.0,735.0 L 634.0,738.0" style="stroke:#010101; fill:none;"/>
	<path d="M 705.0,736.0 C 703.641,746.044 698.717,753.813 703.174,764.0 C 712.424,785.143 739.412,793.69 756.907,776.87 C 763.412,770.616 764.441,763.09 767.0,755.0 C 769.27,757.556 771.494,760.526 774.0,757.0" style="stroke:#010101; fill:none;"/>
	<path d="M 854.0,736.0 L 855.0,736.0" style="stroke:#010101; fill:none;"/>
	<path d="M 672.0,749.0 L 671.0,772.0 L 642.0,762.0 C 656.641,748.028 677.382,740.709 697.0,737.0" style="stroke:#010101; fill:none;"/>
	<path d="M 857.0,737.0 L 858.0,737.0" style="stroke:#010101; fill:none;"/>
	<path d="M 320.0,738.0 L 321.0,738.0" style="stroke:#010101; fill:none;"/>
	<path d="M 743.0,738.0 L 756.0,750.0" style="stroke:#010101; fill:none;"/>
	<path d="M 861.0,738.0 L 862.0,738.0" style="stroke:#010101; fill:none;"/>
	<path d="M 864.0,739.0 L 866.0,739.0" style="stroke:#010101; fill:none;"/>
	<path d="M 323.0,740.0 L 324.0,740.0" style="stroke:#010101; fill:none;"/>
	<path d="M 735.0,740.0 L 738.0,743.0" style="stroke:#010101; fill:none;"/>
	<path d="M 750.0,740.0 C 759.037,741.722 763.715,745.742 767.0,754.0" style="stroke:#010101; fill:none;"/>
	<path d="M 868.0,740.0 L 903.0,747.0" style="stroke:#010101; fill:none;"/>
	<path d="M 891.0,740.0 L 896.0,742.0" style="stroke:#010101; fill:none;"/>
	<path d="M 327.0,742.0 L 328.0,742.0" style="stroke:#010101; fill:none;"/>
	<path d="M 907.0,742.0 L 904.0,743.0" style="stroke:#010101; fill:none;"/>
	<path d="M 374.0,743.0 L 375.0,743.0" style="stroke:#010101; fill:none;"/>
	<path d="M 377.0,743.0 L 386.0,743.0" style="stroke:#010101; fill:none;"/>
	<path d="M 757.0,743.0 C 758.201,746.834 759.657,746.955 763.0,745.0" style="stroke:#010101; fill:none;"/>
	<path d="M 351.0,744.0 L 352.0,744.0" style="stroke:#010101; fill:none;"/>
	<path d="M 868.0,744.0 L 891.0,754.0" style="stroke:#010101; fill:none;"/>
	<path d="M 907.0,744.0 L 917.0,759.0" style="stroke:#010101; fill:none;"/>
	<path d="M 741.0,748.0 C 748.604,763.586 718.68,770.206 723.0,750.0 C 730.531,752.807 735.806,755.284 741.0,748.0" style="stroke:#010101; fill:none;"/>
	<path d="M 657.0,751.0 L 660.0,749.0" style="stroke:#010101; fill:none;"/>
	<path d="M 761.0,749.0 L 765.0,750.0" style="stroke:#010101; fill:none;"/>
	<path d="M 766.0,749.0 C 780.609,752.502 786.879,765.616 797.041,774.79 C 801.913,779.188 808.011,780.767 814.0,783.0" style="stroke:#010101; fill:none;"/>
	<path d="M 881.0,749.0 L 908.0,754.0" style="stroke:#010101; fill:none;"/>
	<path d="M 659.0,753.0 L 655.0,757.0" style="stroke:#010101; fill:none;"/>
	<path d="M 773.0,760.0 C 778.28,764.485 784.052,767.308 791.0,768.0" style="stroke:#010101; fill:none;"/>
	<path d="M 653.0,762.0 L 656.0,764.0" style="stroke:#010101; fill:none;"/>
	<path d="M 631.0,774.0 C 635.566,769.487 638.434,766.858 645.0,768.0" style="stroke:#010101; fill:none;"/>
	<path d="M 833.0,771.0 L 841.0,774.0" style="stroke:#010101; fill:none;"/>
	<path d="M 673.0,773.0 C 697.051,781.723 719.353,797.981 746.0,797.486 C 757.163,797.279 767.908,794.348 778.0,789.691 C 782.764,787.492 787.865,782.405 793.0,781.543 C 796.695,780.923 801.363,783.247 805.0,784.0" style="stroke:#010101; fill:none;"/>
	<path d="M 785.0,773.0 L 792.0,780.0" style="stroke:#010101; fill:none;"/>
	<path d="M 794.0,790.0 L 796.0,790.0" style="stroke:#010101; fill:none;"/>
	<path d="M 695.0,792.0 L 691.0,795.0" style="stroke:#010101; fill:none;"/>
	<path d="M 696.0,795.0 L 695.0,796.0" style="stroke:#010101; fill:none;"/>
	<path d="M 707.0,795.0 L 703.0,801.0" style="stroke:#010101; fill:none;"/>
	<path d="M 710.0,798.0 L 705.0,805.0" style="stroke:#010101; fill:none;"/>
	<path d="M 803.0,798.0 L 803.0,799.0" style="stroke:#010101; fill:none;"/>
	<path d="M 715.0,799.0 L 714.0,804.0" style="stroke:#010101; fill:none;"/>
	<path d="M 718.0,802.0 L 717.0,806.0" style="stroke:#010101; fill:none;"/>
	<path d="M 772.0,802.0 L 773.0,802.0" style="stroke:#010101; fill:none;"/>
	<path d="M 722.0,803.0 L 721.0,810.0" style="stroke:#010101; fill:none;"/>
	<path d="M 766.0,803.0 L 768.0,804.0" style="stroke:#010101; fill:none;"/>
	<path d="M 728.0,804.0 L 729.0,815.0" style="stroke:#010101; fill:none;"/>
	<path d="M 731.0,804.0 L 730.0,806.0" style="stroke:#010101; fill:none;"/>
	<path d="M 741.0,805.0 L 741.0,810.0" style="stroke:#010101; fill:none;"/>
	<path d="M 763.0,805.0 L 764.0,807.0" style="stroke:#010101; fill:none;"/>
	<path d="M 727.0,806.0 L 722.0,816.0" style="stroke:#010101; fill:none;"/>
	<path d="M 745.0,806.0 L 748.0,811.0" style="stroke:#010101; fill:none;"/>
	<path d="M 751.0,806.0 L 752.0,809.0" style="stroke:#010101; fill:none;"/>
	<path d="M 756.0,806.0 L 757.0,808.0" style="stroke:#010101; fill:none;"/>
	<path d="M 928.0,814.0 C 929.765,823.513 927.455,833.496 926.13,843.0 C 921.963,872.897 909.928,899.953 897.258,927.0 C 891.537,939.214 886.398,952.299 878.0,963.0" style="stroke:#010101; fill:none;"/>
	<path d="M 792.0,816.0 L 791.0,817.0" style="stroke:#010101; fill:none;"/>
	<path d="M 786.0,821.0 L 784.0,823.0" style="stroke:#010101; fill:none;"/>
	<path d="M 781.0,825.0 L 780.0,826.0" style="stroke:#010101; fill:none;"/>
	<path d="M 450.0,856.0 L 448.0,858.0" style="stroke:#010101; fill:none;"/>
	<path d="M 442.0,863.0 L 446.0,860.0" style="stroke:#010101; fill:none;"/>
	<path d="M 431.0,958.0 C 393.164,943.935 411.406,885.616 439.0,871.0" style="stroke:#010101; fill:none;"/>
	<path d="M 453.0,922.0 C 441.378,906.758 437.936,882.027 457.0,871.0" style="stroke:#010101; fill:none;"/>
	<path d="M 158.0,872.0 L 153.961,944.0 L 152.09,993.0 L 156.611,1033.0 L 160.841,1056.0 L 155.556,1071.0 L 142.629,1119.0 L 137.0,1143.0" style="stroke:#010101; fill:none;"/>
	<path d="M 906.0,909.0 L 908.0,913.0" style="stroke:#010101; fill:none;"/>
	<path d="M 605.0,910.0 C 608.041,923.14 613.748,934.158 612.0,948.0" style="stroke:#010101; fill:none;"/>
	<path d="M 459.0,926.0 C 459.427,935.317 464.684,940.68 471.0,947.0" style="stroke:#010101; fill:none;"/>
	<path d="M 436.0,947.0 C 427.349,934.815 447.946,940.787 453.0,944.108 C 466.331,952.867 473.856,968.856 485.0,980.0" style="stroke:#010101; fill:none;"/>
	<path d="M 894.0,941.0 L 894.0,942.0" style="stroke:#010101; fill:none;"/>
	<path d="M 889.0,949.0 L 889.0,952.0" style="stroke:#010101; fill:none;"/>
	<path d="M 474.0,952.0 C 475.019,958.606 480.484,961.614 484.961,966.036 C 501.86,982.725 513.398,981.844 533.0,970.0" style="stroke:#010101; fill:none;"/>
	<path d="M 539.0,960.0 C 550.097,953.32 558.63,951.236 571.0,956.0" style="stroke:#010101; fill:none;"/>
	<path d="M 447.0,957.0 L 456.0,962.0" style="stroke:#010101; fill:none;"/>
	<path d="M 182.0,958.0 L 183.0,958.0" style="stroke:#010101; fill:none;"/>
	<path d="M 435.0,963.0 L 448.0,977.0" style="stroke:#010101; fill:none;"/>
	<path d="M 517.0,985.0 C 537.532,984.986 554.561,963.24 576.0,974.0 L 567.0,981.0" style="stroke:#010101; fill:none;"/>
	<path d="M 875.0,971.0 L 864.0,1003.0" style="stroke:#010101; fill:none;"/>
	<path d="M 576.0,974.0 L 584.0,975.0" style="stroke:#010101; fill:none;"/>
	<path d="M 861.0,975.0 L 861.0,976.0" style="stroke:#010101; fill:none;"/>
	<path d="M 859.0,979.0 L 859.0,980.0" style="stroke:#010101; fill:none;"/>
	<path d="M 858.0,982.0 L 857.0,984.0" style="stroke:#010101; fill:none;"/>
	<path d="M 544.0,983.0 L 552.0,983.0" style="stroke:#010101; fill:none;"/>
	<path d="M 856.0,987.0 L 855.0,988.0" style="stroke:#010101; fill:none;"/>
	<path d="M 854.0,990.0 L 853.0,992.0" style="stroke:#010101; fill:none;"/>
	<path d="M 190.0,991.0 L 191.0,991.0" style="stroke:#010101; fill:none;"/>
	<path d="M 432.0,992.0 L 433.0,992.0" style="stroke:#010101; fill:none;"/>
	<path d="M 852.0,994.0 L 852.0,995.0" style="stroke:#010101; fill:none;"/>
	<path d="M 429.0,996.0 L 433.0,996.0" style="stroke:#010101; fill:none;"/>
	<path d="M 850.0,998.0 L 849.0,1001.0" style="stroke:#010101; fill:none;"/>
	<path d="M 467.0,1002.0 L 472.0,1002.0" style="stroke:#010101; fill:none;"/>
	<path d="M 848.0,1003.0 L 842.0,1016.0" style="stroke:#010101; fill:none;"/>
	<path d="M 530.0,1008.0 L 531.0,1008.0" style="stroke:#010101; fill:none;"/>
	<path d="M 393.0,1012.0 L 394.0,1012.0" style="stroke:#010101; fill:none;"/>
	<path d="M 544.0,1012.0 L 545.0,1012.0" style="stroke:#010101; fill:none;"/>
	<path d="M 863.0,1013.0 C 856.366,1041.94 845.848,1069.96 833.694,1097.0 C 829.972,1105.28 817.352,1122.32 820.0,1131.0 L 821.0,1128.0" style="stroke:#010101; fill:none;"/>
	<path d="M 529.0,1014.0 L 531.0,1016.0" style="stroke:#010101; fill:none;"/>
	<path d="M 320.0,1016.0 L 321.0,1016.0" style="stroke:#010101; fill:none;"/>
	<path d="M 350.0,1016.0 L 351.0,1017.0" style="stroke:#010101; fill:none;"/>
	<path d="M 489.0,1016.0 L 492.0,1016.0" style="stroke:#010101; fill:none;"/>
	<path d="M 363.0,1017.0 L 365.0,1017.0" style="stroke:#010101; fill:none;"/>
	<path d="M 485.0,1018.0 L 486.0,1018.0" style="stroke:#010101; fill:none;"/>
	<path d="M 841.0,1018.0 L 837.0,1027.0" style="stroke:#010101; fill:none;"/>
	<path d="M 434.0,1020.0 L 435.0,1020.0" style="stroke:#010101; fill:none;"/>
	<path d="M 315.0,1022.0 L 317.0,1021.0" style="stroke:#010101; fill:none;"/>
	<path d="M 537.0,1021.0 L 537.0,1023.0" style="stroke:#010101; fill:none;"/>
	<path d="M 836.0,1029.0 L 835.0,1031.0" style="stroke:#010101; fill:none;"/>
	<path d="M 361.0,1030.0 L 362.0,1030.0" style="stroke:#010101; fill:none;"/>
	<path d="M 834.0,1033.0 L 833.0,1035.0" style="stroke:#010101; fill:none;"/>
	<path d="M 284.0,1035.0 L 287.0,1034.0" style="stroke:#010101; fill:none;"/>
	<path d="M 832.0,1037.0 L 832.0,1038.0" style="stroke:#010101; fill:none;"/>
	<path d="M 831.0,1040.0 L 828.0,1046.0" style="stroke:#010101; fill:none;"/>
	<path d="M 543.0,1042.0 L 544.0,1042.0" style="stroke:#010101; fill:none;"/>
	<path d="M 214.0,1043.0 L 215.0,1043.0" style="stroke:#010101; fill:none;"/>
	<path d="M 827.0,1048.0 L 827.0,1049.0" style="stroke:#010101; fill:none;"/>
	<path d="M 826.0,1051.0 L 825.0,1053.0" style="stroke:#010101; fill:none;"/>
	<path d="M 824.0,1055.0 L 823.0,1057.0" style="stroke:#010101; fill:none;"/>
	<path d="M 283.0,1057.0 L 285.0,1056.0" style="stroke:#010101; fill:none;"/>
	<path d="M 355.0,1066.0 C 371.739,1059.68 391.423,1061.26 409.0,1058.73 C 418.473,1057.36 429.709,1054.43 439.0,1057.99 C 451.922,1062.95 459.548,1076.52 473.0,1081.1 C 488.867,1086.5 505.713,1083.17 522.0,1087.75 C 544.935,1094.19 568.197,1113.81 586.0,1129.0" style="stroke:#010101; fill:none;"/>
	<path d="M 147.0,1058.0 L 155.0,1072.0" style="stroke:#010101; fill:none;"/>
	<path d="M 822.0,1059.0 L 820.0,1064.0" style="stroke:#010101; fill:none;"/>
	<path d="M 161.0,1060.0 C 165.845,1067.25 166.584,1076.74 169.036,1085.0 C 173.807,1101.07 179.7,1117.57 186.225,1133.0 C 202.704,1171.97 221.724,1209.19 240.63,1247.0 C 260.788,1287.32 281.672,1324.41 316.004,1354.81 C 330.942,1368.04 357.503,1372.09 376.0,1378.69 C 398.904,1386.87 423.493,1393.89 448.0,1394.96 C 548.57,1399.36 639.201,1330.75 707.0,1263.0 C 730.926,1239.09 762.807,1218.07 778.0,1187.0" style="stroke:#010101; fill:none;"/>
	<path d="M 545.0,1061.0 L 545.0,1062.0" style="stroke:#010101; fill:none;"/>
	<path d="M 557.0,1067.0 L 557.0,1068.0" style="stroke:#010101; fill:none;"/>
	<path d="M 818.0,1067.0 L 817.0,1070.0" style="stroke:#010101; fill:none;"/>
	<path d="M 329.0,1083.0 C 344.133,1074.93 357.786,1095.6 374.0,1094.9 C 399.137,1093.8 420.447,1103.15 444.0,1110.66 C 465.738,1117.59 489.756,1120.26 511.0,1127.73 C 518.893,1130.5 525.945,1136.15 534.0,1138.67 C 548.307,1143.14 563.173,1146.58 578.0,1148.57 C 584.679,1149.47 590.682,1146.96 597.0,1150.0" style="stroke:#010101; fill:none;"/>
	<path d="M 626.0,1084.0 L 627.0,1085.0" style="stroke:#010101; fill:none;"/>
	<path d="M 808.0,1088.0 L 808.0,1089.0" style="stroke:#010101; fill:none;"/>
	<path d="M 806.0,1092.0 L 806.0,1093.0" style="stroke:#010101; fill:none;"/>
	<path d="M 180.0,1100.0 L 182.0,1099.0" style="stroke:#010101; fill:none;"/>
	<path d="M 802.0,1102.0 L 801.0,1103.0" style="stroke:#010101; fill:none;"/>
	<path d="M 635.0,1108.0 L 635.0,1109.0" style="stroke:#010101; fill:none;"/>
	<path d="M 630.0,1111.0 L 629.0,1112.0" style="stroke:#010101; fill:none;"/>
	<path d="M 192.0,1115.0 L 193.0,1115.0" style="stroke:#010101; fill:none;"/>
	<path d="M 193.0,1128.0 L 200.0,1126.0" style="stroke:#010101; fill:none;"/>
	<path d="M 515.0,1128.0 L 518.0,1128.0" style="stroke:#010101; fill:none;"/>
	<path d="M 817.0,1130.0 C 812.748,1137.99 797.679,1154.12 800.0,1163.0 L 800.0,1159.0" style="stroke:#010101; fill:none;"/>
	<path d="M 205.0,1146.0 L 209.0,1146.0" style="stroke:#010101; fill:none;"/>
	<path d="M 401.0,1147.0 C 409.056,1149.37 415.932,1154.68 424.0,1157.25 C 433.721,1160.36 444.186,1159.51 454.0,1162.16 C 462.734,1164.51 470.344,1169.63 479.0,1172.23 C 495.454,1177.16 512.975,1178.0 530.0,1178.0" style="stroke:#010101; fill:none;"/>
	<path d="M 218.0,1152.0 L 220.0,1152.0" style="stroke:#010101; fill:none;"/>
	<path d="M 177.0,1156.0 L 177.0,1157.0" style="stroke:#010101; fill:none;"/>
	<path d="M 797.0,1162.0 L 800.0,1164.0" style="stroke:#010101; fill:none;"/>
	<path d="M 797.0,1163.0 L 785.0,1178.0" style="stroke:#010101; fill:none;"/>
	<path d="M 796.0,1165.0 L 797.0,1171.0" style="stroke:#010101; fill:none;"/>
	<path d="M 799.0,1166.0 L 798.0,1167.0" style="stroke:#010101; fill:none;"/>
	<path d="M 179.0,1167.0 L 179.0,1169.0" style="stroke:#010101; fill:none;"/>
	<path d="M 128.0,1168.0 L 123.0,1181.0" style="stroke:#010101; fill:none;"/>
	<path d="M 180.0,1172.0 L 180.0,1173.0" style="stroke:#010101; fill:none;"/>
	<path d="M 181.0,1175.0 L 181.0,1177.0" style="stroke:#010101; fill:none;"/>
	<path d="M 277.0,1179.0 L 279.0,1178.0" style="stroke:#010101; fill:none;"/>
	<path d="M 182.0,1179.0 L 182.0,1180.0" style="stroke:#010101; fill:none;"/>
	<path d="M 122.0,1183.0 L 122.0,1184.0" style="stroke:#010101; fill:none;"/>
	<path d="M 183.0,1183.0 L 185.0,1189.0" style="stroke:#010101; fill:none;"/>
	<path d="M 121.0,1187.0 C 109.332,1212.06 103.088,1239.49 96.0,1266.0" style="stroke:#010101; fill:none;"/>
	<path d="M 187.0,1195.0 L 188.0,1200.0" style="stroke:#010101; fill:none;"/>
	<path d="M 263.0,1200.0 L 264.0,1200.0" style="stroke:#010101; fill:none;"/>
	<path d="M 190.0,1204.0 L 194.0,1217.0" style="stroke:#010101; fill:none;"/>
	<path d="M 394.0,1211.0 L 428.0,1218.0" style="stroke:#010101; fill:none;"/>
	<path d="M 763.0,1212.0 C 761.306,1228.53 749.345,1246.91 744.216,1263.0 C 737.144,1285.18 727.683,1307.65 721.764,1330.0 C 717.78,1345.04 715.958,1360.81 711.849,1376.0 C 708.3,1389.12 704.411,1402.03 700.435,1415.0 C 698.721,1420.59 695.955,1425.69 701.0,1430.0 L 711.0,1401.0" style="stroke:#010101; fill:none;"/>
	<path d="M 195.0,1219.0 L 227.0,1315.0" style="stroke:#010101; fill:none;"/>
	<path d="M 430.0,1219.0 L 433.0,1219.0" style="stroke:#010101; fill:none;"/>
	<path d="M 244.0,1223.0 L 245.0,1224.0" style="stroke:#010101; fill:none;"/>
	<path d="M 256.0,1230.0 L 259.0,1230.0" style="stroke:#010101; fill:none;"/>
	<path d="M 304.0,1231.0 L 305.0,1231.0" style="stroke:#010101; fill:none;"/>
	<path d="M 264.0,1235.0 L 265.0,1235.0" style="stroke:#010101; fill:none;"/>
	<path d="M 695.0,1236.0 L 696.0,1236.0" style="stroke:#010101; fill:none;"/>
	<path d="M 701.0,1240.0 L 703.0,1240.0" style="stroke:#010101; fill:none;"/>
	<path d="M 684.0,1242.0 L 685.0,1242.0" style="stroke:#010101; fill:none;"/>
	<path d="M 256.0,1243.0 L 257.0,1243.0" style="stroke:#010101; fill:none;"/>
	<path d="M 313.0,1249.0 L 314.0,1250.0" style="stroke:#010101; fill:none;"/>
	<path d="M 686.0,1253.0 L 687.0,1253.0" style="stroke:#010101; fill:none;"/>
	<path d="M 260.0,1256.0 L 261.0,1256.0" style="stroke:#010101; fill:none;"/>
	<path d="M 325.0,1259.0 L 326.0,1259.0" style="stroke:#010101; fill:none;"/>
	<path d="M 273.0,1268.0 L 275.0,1268.0" style="stroke:#010101; fill:none;"/>
	<path d="M 276.0,1273.0 L 277.0,1273.0" style="stroke:#010101; fill:none;"/>
	<path d="M 93.0,1275.0 L 86.1181,1295.0 L 95.1281,1316.0 L 114.0,1366.0" style="stroke:#010101; fill:none;"/>
	<path d="M 587.0,1280.0 L 587.0,1281.0" style="stroke:#010101; fill:none;"/>
	<path d="M 279.0,1282.0 L 280.0,1282.0" style="stroke:#010101; fill:none;"/>
	<path d="M 279.0,1286.0 L 280.0,1286.0" style="stroke:#010101; fill:none;"/>
	<path d="M 84.0,1293.0 L 88.0,1287.0" style="stroke:#010101; fill:none;"/>
	<path d="M 650.0,1287.0 L 651.0,1287.0" style="stroke:#010101; fill:none;"/>
	<path d="M 583.0,1290.0 L 583.0,1292.0" style="stroke:#010101; fill:none;"/>
	<path d="M 337.0,1292.0 L 337.0,1293.0" style="stroke:#010101; fill:none;"/>
	<path d="M 581.0,1294.0 L 581.0,1295.0" style="stroke:#010101; fill:none;"/>
	<path d="M 323.0,1295.0 L 324.0,1296.0" style="stroke:#010101; fill:none;"/>
	<path d="M 554.0,1302.0 L 554.0,1303.0" style="stroke:#010101; fill:none;"/>
	<path d="M 531.0,1314.0 L 531.0,1315.0" style="stroke:#010101; fill:none;"/>
	<path d="M 228.0,1317.0 L 228.0,1319.0" style="stroke:#010101; fill:none;"/>
	<path d="M 294.0,1318.0 L 295.0,1318.0" style="stroke:#010101; fill:none;"/>
	<path d="M 343.0,1323.0 L 348.0,1321.0" style="stroke:#010101; fill:none;"/>
	<path d="M 606.0,1321.0 L 606.0,1322.0" style="stroke:#010101; fill:none;"/>
	<path d="M 303.0,1328.0 L 303.0,1329.0" style="stroke:#010101; fill:none;"/>
	<path d="M 641.0,1328.0 L 639.0,1330.0" style="stroke:#010101; fill:none;"/>
	<path d="M 326.0,1330.0 L 327.0,1330.0" style="stroke:#010101; fill:none;"/>
	<path d="M 631.0,1336.0 L 632.0,1336.0" style="stroke:#010101; fill:none;"/>
	<path d="M 356.0,1338.0 L 357.0,1338.0" style="stroke:#010101; fill:none;"/>
	<path d="M 329.0,1340.0 L 331.0,1339.0" style="stroke:#010101; fill:none;"/>
	<path d="M 624.0,1342.0 L 623.0,1343.0" style="stroke:#010101; fill:none;"/>
	<path d="M 620.0,1345.0 L 618.0,1347.0" style="stroke:#010101; fill:none;"/>
	<path d="M 342.0,1349.0 L 340.0,1351.0" style="stroke:#010101; fill:none;"/>
	<path d="M 379.0,1349.0 L 378.0,1350.0" style="stroke:#010101; fill:none;"/>
	<path d="M 614.0,1350.0 L 616.0,1349.0" style="stroke:#010101; fill:none;"/>
	<path d="M 382.0,1353.0 L 381.0,1354.0" style="stroke:#010101; fill:none;"/>
	<path d="M 611.0,1353.0 L 610.0,1354.0" style="stroke:#010101; fill:none;"/>
	<path d="M 608.0,1355.0 L 590.0,1370.0" style="stroke:#010101; fill:none;"/>
	<path d="M 387.0,1358.0 L 386.0,1359.0" style="stroke:#010101; fill:none;"/>
	<path d="M 363.0,1359.0 L 362.0,1360.0" style="stroke:#010101; fill:none;"/>
	<path d="M 414.0,1361.0 L 414.0,1362.0" style="stroke:#010101; fill:none;"/>
	<path d="M 501.0,1363.0 L 501.0,1364.0" style="stroke:#010101; fill:none;"/>
	<path d="M 412.0,1365.0 L 412.0,1366.0" style="stroke:#010101; fill:none;"/>
	<path d="M 443.0,1365.0 L 443.0,1367.0" style="stroke:#010101; fill:none;"/>
	<path d="M 530.0,1365.0 L 530.0,1366.0" style="stroke:#010101; fill:none;"/>
	<path d="M 411.0,1368.0 L 411.0,1369.0" style="stroke:#010101; fill:none;"/>
	<path d="M 252.0,1369.0 L 264.0,1381.0" style="stroke:#010101; fill:none;"/>
	<path d="M 588.0,1371.0 L 555.0,1397.0" style="stroke:#010101; fill:none;"/>
	<path d="M 446.0,1373.0 L 446.0,1374.0" style="stroke:#010101; fill:none;"/>
	<path d="M 492.0,1373.0 L 496.0,1375.0" style="stroke:#010101; fill:none;"/>
	<path d="M 457.0,1374.0 L 457.0,1375.0" style="stroke:#010101; fill:none;"/>
	<path d="M 266.0,1382.0 L 267.0,1383.0" style="stroke:#010101; fill:none;"/>
	<path d="M 269.0,1385.0 L 270.0,1386.0" style="stroke:#010101; fill:none;"/>
	<path d="M 553.0,1398.0 L 535.0,1410.0" style="stroke:#010101; fill:none;"/>
	<path d="M 533.0,1411.0 L 524.0,1416.0" style="stroke:#010101; fill:none;"/>
	<path d="M 522.0,1417.0 L 512.0,1422.0" style="stroke:#010101; fill:none;"/>
	<path d="M 507.0,1424.0 L 508.0,1424.0" style="stroke:#010101; fill:none;"/>
	<path d="M 696.0,1428.0 L 700.0,1432.0 L 700.0,1430.0" style="stroke:#010101; fill:none;"/>
	<path d="M 492.0,1429.0 L 493.0,1429.0" style="stroke:#010101; fill:none;"/>
	<path d="M 695.0,1431.0 L 693.0,1441.0 C 696.912,1438.72 697.987,1436.65 695.0,1433.0" style="stroke:#010101; fill:none;"/>
	<path d="M 699.0,1434.0 L 698.0,1435.0" style="stroke:#010101; fill:none;"/>
	<path d="M 694.0,1441.0 L 681.0,1466.0" style="stroke:#010101; fill:none;"/>
</svg>
