<?xml version="1.0" ?>
<svg baseProfile="full" height="1466" version="1.1" width="1161" xmlns="http://www.w3.org/2000/svg" xmlns:ev="http://www.w3.org/2001/xml-events" xmlns:xlink="http://www.w3.org/1999/xlink">
	<defs/>
	<path d="M 784.0,501.0 L 785.0,501.0" style="stroke:#010101; fill:none;"/>
	<path d="M 795.0,504.0 L 835.0,513.0" style="stroke:#010101; fill:none;"/>
	<path d="M 766.0,510.0 C 774.668,510.0 785.11,509.173 792.0,515.0 L 786.0,519.0 L 786.0,515.0 C 792.628,514.977 796.691,512.886 802.0,509.0 C 806.612,513.354 813.552,512.585 819.0,510.0" style="stroke:#010101; fill:none;"/>
	<path d="M 791.0,514.0 L 795.0,512.0" style="stroke:#010101; fill:none;"/>
	<path d="M 785.0,516.0 L 770.0,520.0 C 769.811,514.305 774.092,513.665 779.0,513.0" style="stroke:#010101; fill:none;"/>
	<path d="M 817.0,515.0 L 785.0,536.0" style="stroke:#010101; fill:none;"/>
	<path d="M 769.0,521.0 L 758.0,522.0 C 759.585,517.108 764.348,516.627 769.0,516.0" style="stroke:#010101; fill:none;"/>
	<path d="M 809.0,516.0 L 806.0,517.0" style="stroke:#010101; fill:none;"/>
	<path d="M 827.0,516.0 L 791.0,537.0" style="stroke:#010101; fill:none;"/>
	<path d="M 776.0,518.0 L 773.0,519.0" style="stroke:#010101; fill:none;"/>
	<path d="M 778.0,518.0 L 780.0,522.0 L 759.0,528.0" style="stroke:#010101; fill:none;"/>
	<path d="M 804.0,518.0 C 798.687,521.472 789.951,528.413 784.0,525.0" style="stroke:#010101; fill:none;"/>
	<path d="M 684.0,547.0 L 729.0,527.429 L 758.0,519.0" style="stroke:#010101; fill:none;"/>
	<path d="M 781.0,521.0 L 785.0,520.0" style="stroke:#010101; fill:none;"/>
	<path d="M 755.0,521.0 L 757.0,523.0" style="stroke:#010101; fill:none;"/>
	<path d="M 762.0,530.0 L 765.0,526.0" style="stroke:#010101; fill:none;"/>
	<path d="M 723.0,531.0 L 721.0,529.0 L 725.0,528.0" style="stroke:#010101; fill:none;"/>
	<path d="M 786.0,528.0 L 759.0,545.0 L 763.0,543.0" style="stroke:#010101; fill:none;"/>
	<path d="M 677.0,544.0 L 721.0,529.0" style="stroke:#010101; fill:none;"/>
	<path d="M 758.0,530.0 L 754.0,530.0 L 758.0,530.0" style="stroke:#010101; fill:none;"/>
	<path d="M 771.0,529.0 L 700.0,583.0" style="stroke:#010101; fill:none;"/>
	<path d="M 813.0,529.0 L 803.0,532.0" style="stroke:#010101; fill:none;"/>
	<path d="M 736.0,539.0 L 736.0,542.0 L 710.0,545.0 C 720.071,535.228 740.456,531.082 754.0,530.0" style="stroke:#010101; fill:none;"/>
	<path d="M 762.0,530.0 L 750.0,540.0 L 750.0,534.0 L 738.0,538.0" style="stroke:#010101; fill:none;"/>
	<path d="M 699.0,534.0 L 701.0,532.0" style="stroke:#010101; fill:none;"/>
	<path d="M 751.0,532.0 L 751.0,534.0" style="stroke:#010101; fill:none;"/>
	<path d="M 668.0,539.0 L 699.0,533.0" style="stroke:#010101; fill:none;"/>
	<path d="M 752.0,533.0 L 755.0,532.0" style="stroke:#010101; fill:none;"/>
	<path d="M 717.0,535.0 L 722.0,536.0" style="stroke:#010101; fill:none;"/>
	<path d="M 783.0,537.0 L 780.0,539.0" style="stroke:#010101; fill:none;"/>
	<path d="M 747.0,540.0 L 745.0,542.0 L 748.0,538.0" style="stroke:#010101; fill:none;"/>
	<path d="M 739.0,540.0 L 738.0,541.0" style="stroke:#010101; fill:none;"/>
	<path d="M 776.0,541.0 L 778.0,540.0" style="stroke:#010101; fill:none;"/>
	<path d="M 735.0,542.0 L 699.0,564.0 L 695.0,560.0 L 704.0,558.0" style="stroke:#010101; fill:none;"/>
	<path d="M 711.0,569.0 L 708.0,567.0 C 720.16,565.097 733.118,549.199 744.0,543.0" style="stroke:#010101; fill:none;"/>
	<path d="M 711.0,547.0 C 707.734,547.362 707.084,545.642 710.0,544.0" style="stroke:#010101; fill:none;"/>
	<path d="M 674.0,545.0 L 675.0,545.0" style="stroke:#010101; fill:none;"/>
	<path d="M 759.0,545.0 L 741.0,562.0" style="stroke:#010101; fill:none;"/>
	<path d="M 665.0,565.0 C 675.138,558.518 693.58,546.609 706.0,548.0" style="stroke:#010101; fill:none;"/>
	<path d="M 884.0,546.0 C 902.487,564.487 915.433,585.331 926.231,609.0 C 928.504,613.983 937.267,626.65 936.0,631.0 L 935.0,627.0" style="stroke:#010101; fill:none;"/>
	<path d="M 700.0,548.0 L 701.0,549.0" style="stroke:#010101; fill:none;"/>
	<path d="M 724.0,570.0 L 756.0,548.0" style="stroke:#010101; fill:none;"/>
	<path d="M 672.0,553.0 L 680.0,549.0" style="stroke:#010101; fill:none;"/>
	<path d="M 703.0,549.0 L 705.0,549.0" style="stroke:#010101; fill:none;"/>
	<path d="M 752.0,549.0 L 754.0,551.0" style="stroke:#010101; fill:none;"/>
	<path d="M 697.0,559.0 L 700.0,559.0" style="stroke:#010101; fill:none;"/>
	<path d="M 698.0,564.0 L 695.0,560.0" style="stroke:#010101; fill:none;"/>
	<path d="M 668.0,561.0 L 669.0,562.0" style="stroke:#010101; fill:none;"/>
	<path d="M 636.0,590.0 C 653.508,579.284 673.093,566.445 693.0,561.0" style="stroke:#010101; fill:none;"/>
	<path d="M 695.0,567.0 L 691.0,567.0 L 696.0,565.0" style="stroke:#010101; fill:none;"/>
	<path d="M 710.0,566.0 L 713.0,565.0" style="stroke:#010101; fill:none;"/>
	<path d="M 663.0,566.0 L 658.0,569.0" style="stroke:#010101; fill:none;"/>
	<path d="M 671.0,569.0 L 673.0,568.0" style="stroke:#010101; fill:none;"/>
	<path d="M 708.0,568.0 L 705.0,571.0 L 709.0,569.0" style="stroke:#010101; fill:none;"/>
	<path d="M 633.0,598.0 L 691.0,568.0" style="stroke:#010101; fill:none;"/>
	<path d="M 656.0,570.0 L 654.0,571.0" style="stroke:#010101; fill:none;"/>
	<path d="M 666.0,572.0 L 667.0,570.0" style="stroke:#010101; fill:none;"/>
	<path d="M 672.0,594.0 L 705.0,571.0" style="stroke:#010101; fill:none;"/>
	<path d="M 648.0,579.0 L 665.0,571.0" style="stroke:#010101; fill:none;"/>
	<path d="M 669.0,572.0 L 671.0,571.0" style="stroke:#010101; fill:none;"/>
	<path d="M 722.0,572.0 L 721.0,573.0" style="stroke:#010101; fill:none;"/>
	<path d="M 685.0,573.0 L 675.0,580.0" style="stroke:#010101; fill:none;"/>
	<path d="M 706.0,573.0 C 675.266,597.774 641.969,618.031 614.0,646.0" style="stroke:#010101; fill:none;"/>
	<path d="M 695.0,576.0 L 696.0,574.0" style="stroke:#010101; fill:none;"/>
	<path d="M 642.0,610.0 L 638.0,614.0 C 647.0,594.7 675.295,582.788 694.0,575.0" style="stroke:#010101; fill:none;"/>
	<path d="M 785.0,581.0 L 794.0,577.0" style="stroke:#010101; fill:none;"/>
	<path d="M 671.0,582.0 L 670.0,583.0" style="stroke:#010101; fill:none;"/>
	<path d="M 621.0,699.0 C 620.853,643.583 670.678,606.984 720.0,591.216 C 733.28,586.97 747.404,585.73 761.0,583.0" style="stroke:#010101; fill:none;"/>
	<path d="M 647.0,589.0 L 650.0,587.0" style="stroke:#010101; fill:none;"/>
	<path d="M 642.0,591.0 L 643.0,592.0" style="stroke:#010101; fill:none;"/>
	<path d="M 631.0,594.0 L 634.0,592.0" style="stroke:#010101; fill:none;"/>
	<path d="M 657.0,597.0 L 643.0,611.0" style="stroke:#010101; fill:none;"/>
	<path d="M 628.0,601.0 L 625.0,603.0" style="stroke:#010101; fill:none;"/>
	<path d="M 632.0,605.0 C 630.399,612.082 644.154,601.244 647.0,600.0" style="stroke:#010101; fill:none;"/>
	<path d="M 659.0,603.0 L 659.0,604.0" style="stroke:#010101; fill:none;"/>
	<path d="M 623.0,604.0 L 613.0,626.0 L 610.0,633.0" style="stroke:#010101; fill:none;"/>
	<path d="M 668.0,656.0 C 666.149,651.797 666.57,650.049 670.0,647.0 C 677.668,657.779 681.151,668.195 696.0,670.674 C 727.776,675.981 744.693,641.96 727.0,618.0 L 780.0,604.0" style="stroke:#010101; fill:none;"/>
	<path d="M 657.0,605.0 L 652.0,612.0" style="stroke:#010101; fill:none;"/>
	<path d="M 643.0,607.0 L 645.0,609.0" style="stroke:#010101; fill:none;"/>
	<path d="M 727.0,618.0 L 723.0,614.0 C 729.454,608.528 745.03,605.754 753.0,609.0" style="stroke:#010101; fill:none;"/>
	<path d="M 631.0,608.0 L 624.0,619.0 L 634.0,610.0" style="stroke:#010101; fill:none;"/>
	<path d="M 655.0,608.0 L 657.0,610.0" style="stroke:#010101; fill:none;"/>
	<path d="M 653.0,609.0 L 655.0,611.0" style="stroke:#010101; fill:none;"/>
	<path d="M 775.0,610.0 C 771.707,612.171 766.212,614.038 764.024,617.39 C 761.986,620.512 762.319,625.456 761.226,629.0 C 758.915,636.497 755.025,644.508 750.64,651.0 C 737.038,671.141 713.474,681.686 691.0,688.586 C 685.744,690.2 677.727,696.107 672.17,695.021 C 666.653,693.943 658.982,683.949 655.0,680.0" style="stroke:#010101; fill:none;"/>
	<path d="M 712.0,615.0 L 722.0,614.0 C 716.008,618.547 712.963,614.161 707.0,616.179 C 693.466,620.759 675.505,631.771 671.0,646.0" style="stroke:#010101; fill:none;"/>
	<path d="M 638.0,614.0 C 629.219,622.781 621.145,632.13 613.089,641.576 C 609.665,645.59 604.755,649.463 606.0,655.0" style="stroke:#010101; fill:none;"/>
	<path d="M 612.0,615.0 L 609.0,631.0" style="stroke:#010101; fill:none;"/>
	<path d="M 601.0,616.0 C 597.021,632.367 599.863,650.404 600.0,667.0" style="stroke:#010101; fill:none;"/>
	<path d="M 752.0,616.0 L 763.0,617.0" style="stroke:#010101; fill:none;"/>
	<path d="M 624.0,619.0 L 609.0,639.0 L 612.0,642.0" style="stroke:#010101; fill:none;"/>
	<path d="M 705.0,620.0 L 716.0,622.0" style="stroke:#010101; fill:none;"/>
	<path d="M 591.0,621.0 L 596.0,636.0" style="stroke:#010101; fill:none;"/>
	<path d="M 772.0,621.0 L 771.0,622.0" style="stroke:#010101; fill:none;"/>
	<path d="M 606.0,627.0 C 605.193,631.284 602.396,639.485 609.0,639.0" style="stroke:#010101; fill:none;"/>
	<path d="M 686.0,628.0 L 690.0,633.0 C 686.298,635.329 684.652,635.432 681.0,633.0" style="stroke:#010101; fill:none;"/>
	<path d="M 697.0,628.0 L 696.0,629.0" style="stroke:#010101; fill:none;"/>
	<path d="M 704.0,631.0 C 718.986,636.358 705.5,660.051 692.0,645.0 C 697.628,641.555 704.438,639.299 705.0,632.0" style="stroke:#010101; fill:none;"/>
	<path d="M 936.0,631.0 L 949.0,670.0 L 952.0,669.0" style="stroke:#010101; fill:none;"/>
	<path d="M 609.0,634.0 L 609.0,636.0" style="stroke:#010101; fill:none;"/>
	<path d="M 589.0,640.0 L 589.0,642.0" style="stroke:#010101; fill:none;"/>
	<path d="M 604.0,640.0 L 608.0,647.0" style="stroke:#010101; fill:none;"/>
	<path d="M 674.0,641.0 L 677.0,644.0" style="stroke:#010101; fill:none;"/>
	<path d="M 607.0,642.0 L 606.0,643.0" style="stroke:#010101; fill:none;"/>
	<path d="M 614.0,642.0 L 616.0,644.0" style="stroke:#010101; fill:none;"/>
	<path d="M 788.0,642.0 L 788.0,644.0" style="stroke:#010101; fill:none;"/>
	<path d="M 594.0,644.0 L 595.0,671.0" style="stroke:#010101; fill:none;"/>
	<path d="M 766.0,645.0 L 764.0,646.0" style="stroke:#010101; fill:none;"/>
	<path d="M 607.0,646.0 L 605.0,648.0" style="stroke:#010101; fill:none;"/>
	<path d="M 590.0,647.0 L 593.0,657.0" style="stroke:#010101; fill:none;"/>
	<path d="M 787.0,650.0 L 787.0,651.0" style="stroke:#010101; fill:none;"/>
	<path d="M 760.0,652.0 L 762.0,651.0" style="stroke:#010101; fill:none;"/>
	<path d="M 587.0,652.0 L 588.0,658.0" style="stroke:#010101; fill:none;"/>
	<path d="M 664.0,654.0 C 662.195,657.63 660.769,658.677 657.0,657.0 L 657.0,655.0" style="stroke:#010101; fill:none;"/>
	<path d="M 604.0,655.0 L 604.0,659.0" style="stroke:#010101; fill:none;"/>
	<path d="M 759.0,655.0 L 763.0,655.0" style="stroke:#010101; fill:none;"/>
	<path d="M 664.0,657.0 L 666.0,660.0" style="stroke:#010101; fill:none;"/>
	<path d="M 586.0,658.0 L 589.0,662.0 L 587.0,662.0" style="stroke:#010101; fill:none;"/>
	<path d="M 660.0,660.0 L 648.942,683.0 L 649.0,698.0" style="stroke:#010101; fill:none;"/>
	<path d="M 605.0,661.0 L 605.0,662.0" style="stroke:#010101; fill:none;"/>
	<path d="M 755.0,661.0 L 759.0,662.0" style="stroke:#010101; fill:none;"/>
	<path d="M 588.0,664.0 L 589.0,666.0" style="stroke:#010101; fill:none;"/>
	<path d="M 751.0,664.0 L 755.0,665.0" style="stroke:#010101; fill:none;"/>
	<path d="M 950.0,666.0 L 951.0,667.0" style="stroke:#010101; fill:none;"/>
	<path d="M 784.0,667.0 L 784.0,668.0" style="stroke:#010101; fill:none;"/>
	<path d="M 749.0,668.0 L 753.0,669.0" style="stroke:#010101; fill:none;"/>
	<path d="M 949.0,670.0 L 953.0,686.0" style="stroke:#010101; fill:none;"/>
	<path d="M 618.0,742.0 C 598.486,738.063 596.887,704.442 598.714,689.0 C 599.468,682.632 598.695,674.645 605.0,671.0" style="stroke:#010101; fill:none;"/>
	<path d="M 744.0,671.0 L 748.0,674.0" style="stroke:#010101; fill:none;"/>
	<path d="M 737.0,678.0 L 735.0,680.0 L 737.0,678.0" style="stroke:#010101; fill:none;"/>
	<path d="M 737.0,679.0 L 742.0,686.0" style="stroke:#010101; fill:none;"/>
	<path d="M 738.0,680.0 L 735.0,681.0" style="stroke:#010101; fill:none;"/>
	<path d="M 736.0,682.0 L 739.0,691.0" style="stroke:#010101; fill:none;"/>
	<path d="M 730.0,683.0 L 732.0,687.0" style="stroke:#010101; fill:none;"/>
	<path d="M 717.0,686.0 L 718.0,697.0" style="stroke:#010101; fill:none;"/>
	<path d="M 722.0,686.0 L 724.0,689.0" style="stroke:#010101; fill:none;"/>
	<path d="M 726.0,686.0 L 728.0,688.0" style="stroke:#010101; fill:none;"/>
	<path d="M 713.0,688.0 L 715.0,696.0" style="stroke:#010101; fill:none;"/>
	<path d="M 647.0,689.0 L 644.0,711.0 L 670.0,696.0" style="stroke:#010101; fill:none;"/>
	<path d="M 956.0,693.0 L 970.0,723.0" style="stroke:#010101; fill:none;"/>
	<path d="M 702.0,694.0 L 702.0,697.0" style="stroke:#010101; fill:none;"/>
	<path d="M 705.0,694.0 L 705.0,697.0" style="stroke:#010101; fill:none;"/>
	<path d="M 698.0,695.0 L 699.0,696.0" style="stroke:#010101; fill:none;"/>
	<path d="M 618.0,696.0 L 622.0,721.0" style="stroke:#010101; fill:none;"/>
	<path d="M 651.0,702.0 L 654.0,702.0" style="stroke:#010101; fill:none;"/>
	<path d="M 739.0,709.0 L 738.0,710.0" style="stroke:#010101; fill:none;"/>
	<path d="M 950.0,709.0 L 951.0,711.0" style="stroke:#010101; fill:none;"/>
	<path d="M 650.0,712.0 C 645.139,715.828 644.021,718.937 644.0,725.0" style="stroke:#010101; fill:none;"/>
	<path d="M 952.0,713.0 L 952.0,714.0" style="stroke:#010101; fill:none;"/>
	<path d="M 954.0,718.0 L 956.0,725.0" style="stroke:#010101; fill:none;"/>
	<path d="M 958.0,730.0 L 960.0,734.0" style="stroke:#010101; fill:none;"/>
	<path d="M 977.0,731.0 C 991.753,755.1 1004.61,780.417 1014.3,807.0 C 1017.94,816.964 1021.06,838.052 1030.0,844.0 L 1029.0,845.0 L 1027.0,843.0" style="stroke:#010101; fill:none;"/>
	<path d="M 960.0,736.0 L 961.0,738.0" style="stroke:#010101; fill:none;"/>
	<path d="M 961.0,740.0 L 963.0,745.0" style="stroke:#010101; fill:none;"/>
	<path d="M 407.0,748.0 C 419.167,744.731 440.846,740.483 453.0,744.0" style="stroke:#010101; fill:none;"/>
	<path d="M 376.0,757.0 L 436.0,751.0" style="stroke:#010101; fill:none;"/>
	<path d="M 966.0,751.0 L 968.0,758.0" style="stroke:#010101; fill:none;"/>
	<path d="M 425.0,761.0 L 388.0,772.025 L 368.0,777.0 C 380.911,758.672 399.208,757.0 420.0,757.0" style="stroke:#010101; fill:none;"/>
	<path d="M 422.0,757.0 L 427.0,757.0" style="stroke:#010101; fill:none;"/>
	<path d="M 383.0,764.0 L 411.0,760.0" style="stroke:#010101; fill:none;"/>
	<path d="M 413.0,760.0 L 416.0,760.0" style="stroke:#010101; fill:none;"/>
	<path d="M 371.0,763.0 L 381.0,763.0" style="stroke:#010101; fill:none;"/>
	<path d="M 381.0,761.0 L 382.0,761.0" style="stroke:#010101; fill:none;"/>
	<path d="M 479.0,762.0 C 505.123,769.358 516.003,779.313 527.0,804.0" style="stroke:#010101; fill:none;"/>
	<path d="M 970.0,762.0 L 973.0,771.0" style="stroke:#010101; fill:none;"/>
	<path d="M 370.0,770.0 C 363.682,772.102 361.921,776.29 356.998,780.575 C 348.216,788.219 332.345,796.091 329.0,808.0 C 332.802,807.613 350.431,798.776 342.0,799.0 L 341.0,799.0" style="stroke:#010101; fill:none;"/>
	<path d="M 407.0,775.0 C 399.685,777.314 386.086,782.203 379.0,779.0 L 412.0,770.0" style="stroke:#010101; fill:none;"/>
	<path d="M 362.0,772.0 L 355.0,780.0" style="stroke:#010101; fill:none;"/>
	<path d="M 974.0,773.0 L 977.0,782.0" style="stroke:#010101; fill:none;"/>
	<path d="M 359.0,775.0 L 361.0,777.0" style="stroke:#010101; fill:none;"/>
	<path d="M 351.0,776.0 C 338.371,785.614 327.818,797.402 317.089,809.0 C 313.222,813.18 306.445,819.047 308.0,825.0 L 314.0,821.0 L 312.0,820.0" style="stroke:#010101; fill:none;"/>
	<path d="M 358.0,841.0 C 360.359,846.965 353.881,855.014 347.361,850.712 C 337.813,844.413 356.59,840.718 357.791,840.073 C 360.23,838.761 362.26,833.532 365.698,835.176 C 368.865,836.691 367.887,842.199 368.301,845.0 C 369.181,850.952 371.726,856.686 376.044,860.907 C 396.748,881.144 428.19,863.148 430.471,837.0 C 431.335,827.106 424.694,821.265 419.453,814.0 C 417.697,811.566 416.986,807.46 413.906,806.287 C 405.381,803.04 395.086,810.734 387.148,811.045 C 384.467,811.15 383.742,808.221 384.198,806.036 C 386.046,797.177 405.588,791.813 413.0,789.333 C 439.608,780.432 474.656,765.205 498.0,788.0" style="stroke:#010101; fill:none;"/>
	<path d="M 368.0,777.0 C 359.32,784.331 367.011,787.517 374.0,782.0 L 367.0,782.0" style="stroke:#010101; fill:none;"/>
	<path d="M 356.0,778.0 L 358.0,780.0" style="stroke:#010101; fill:none;"/>
	<path d="M 338.0,779.0 C 319.262,793.225 296.805,814.83 286.0,836.0 L 295.0,831.0" style="stroke:#010101; fill:none;"/>
	<path d="M 380.0,781.0 L 375.0,780.0 L 379.0,779.0" style="stroke:#010101; fill:none;"/>
	<path d="M 374.0,780.0 L 375.0,780.0" style="stroke:#010101; fill:none;"/>
	<path d="M 340.0,781.0 C 328.374,791.709 317.466,802.749 307.424,815.0 C 303.855,819.354 298.044,824.119 300.0,830.0 L 306.0,823.0" style="stroke:#010101; fill:none;"/>
	<path d="M 352.0,783.0 L 354.0,781.0" style="stroke:#010101; fill:none;"/>
	<path d="M 395.0,783.0 L 399.0,783.0" style="stroke:#010101; fill:none;"/>
	<path d="M 323.0,784.0 L 322.0,785.0" style="stroke:#010101; fill:none;"/>
	<path d="M 348.0,785.0 L 351.0,784.0" style="stroke:#010101; fill:none;"/>
	<path d="M 346.0,799.0 C 356.148,790.107 379.605,785.094 393.0,784.0" style="stroke:#010101; fill:none;"/>
	<path d="M 978.0,784.0 L 978.0,785.0" style="stroke:#010101; fill:none;"/>
	<path d="M 346.0,792.0 L 363.0,786.0" style="stroke:#010101; fill:none;"/>
	<path d="M 361.0,785.0 L 361.0,787.0" style="stroke:#010101; fill:none;"/>
	<path d="M 320.0,786.0 C 305.115,800.894 284.675,821.048 277.0,841.0 L 286.0,836.0" style="stroke:#010101; fill:none;"/>
	<path d="M 979.0,787.0 L 981.0,793.0" style="stroke:#010101; fill:none;"/>
	<path d="M 365.0,795.0 L 373.0,793.008 L 391.0,789.0" style="stroke:#010101; fill:none;"/>
	<path d="M 301.0,790.0 C 287.32,805.67 270.161,826.356 265.0,847.0 C 272.253,844.915 274.715,835.961 278.425,830.0 C 286.476,817.067 295.359,801.905 308.0,793.0" style="stroke:#010101; fill:none;"/>
	<path d="M 288.0,792.0 L 268.0,817.0 L 272.0,821.0 L 292.0,792.0" style="stroke:#010101; fill:none;"/>
	<path d="M 352.0,792.0 L 352.0,794.0" style="stroke:#010101; fill:none;"/>
	<path d="M 368.0,794.0 L 369.0,794.0" style="stroke:#010101; fill:none;"/>
	<path d="M 982.0,795.0 L 982.0,796.0" style="stroke:#010101; fill:none;"/>
	<path d="M 346.0,801.0 L 363.0,796.0" style="stroke:#010101; fill:none;"/>
	<path d="M 434.0,799.0 C 433.078,807.178 424.443,806.265 418.0,809.0" style="stroke:#010101; fill:none;"/>
	<path d="M 984.0,801.0 L 986.0,807.0" style="stroke:#010101; fill:none;"/>
	<path d="M 434.0,807.0 L 443.0,804.0 C 450.788,809.977 462.678,808.0 472.0,808.0 L 473.0,815.0" style="stroke:#010101; fill:none;"/>
	<path d="M 326.0,807.0 L 323.0,813.0 C 323.227,808.941 325.426,806.75 329.0,805.0" style="stroke:#010101; fill:none;"/>
	<path d="M 349.0,805.0 L 330.0,813.0 L 337.0,813.0" style="stroke:#010101; fill:none;"/>
	<path d="M 386.0,812.0 L 379.0,817.0 C 376.024,811.532 378.232,808.428 383.0,805.0" style="stroke:#010101; fill:none;"/>
	<path d="M 410.0,807.0 C 414.458,809.047 416.796,806.821 421.0,805.0" style="stroke:#010101; fill:none;"/>
	<path d="M 473.0,807.0 L 489.0,810.0" style="stroke:#010101; fill:none;"/>
	<path d="M 327.0,808.0 L 331.0,812.0" style="stroke:#010101; fill:none;"/>
	<path d="M 271.0,815.0 C 270.091,811.585 270.869,810.613 274.0,809.0" style="stroke:#010101; fill:none;"/>
	<path d="M 447.0,809.0 C 455.274,816.248 458.0,821.051 458.0,832.0 C 470.821,825.615 481.648,812.629 497.0,812.0" style="stroke:#010101; fill:none;"/>
	<path d="M 456.0,810.0 L 459.0,814.0" style="stroke:#010101; fill:none;"/>
	<path d="M 271.0,811.0 L 273.0,813.0" style="stroke:#010101; fill:none;"/>
	<path d="M 380.0,817.0 C 371.98,824.322 367.222,816.215 376.0,811.0" style="stroke:#010101; fill:none;"/>
	<path d="M 324.0,812.0 L 331.0,815.0" style="stroke:#010101; fill:none;"/>
	<path d="M 988.0,812.0 L 988.0,813.0" style="stroke:#010101; fill:none;"/>
	<path d="M 328.0,815.0 C 324.2,817.789 321.631,818.254 318.0,815.0 L 321.0,813.0" style="stroke:#010101; fill:none;"/>
	<path d="M 329.0,813.0 L 330.0,813.0" style="stroke:#010101; fill:none;"/>
	<path d="M 268.0,814.0 L 268.0,815.0" style="stroke:#010101; fill:none;"/>
	<path d="M 268.0,815.0 C 258.596,826.06 247.237,843.721 244.0,858.0 L 245.0,859.0 L 249.0,858.0 L 247.0,866.0 L 254.0,869.0 L 251.0,868.0" style="stroke:#010101; fill:none;"/>
	<path d="M 322.0,815.0 L 322.0,816.0" style="stroke:#010101; fill:none;"/>
	<path d="M 264.0,816.0 C 252.172,828.88 235.785,853.193 234.0,871.0 C 240.738,869.726 240.354,862.938 244.0,858.0" style="stroke:#010101; fill:none;"/>
	<path d="M 318.0,816.0 L 315.0,819.0" style="stroke:#010101; fill:none;"/>
	<path d="M 307.0,817.0 L 309.0,819.0" style="stroke:#010101; fill:none;"/>
	<path d="M 373.0,822.0 L 369.0,829.0 C 363.204,824.801 362.201,820.602 369.0,817.0" style="stroke:#010101; fill:none;"/>
	<path d="M 317.0,818.0 L 321.0,818.0" style="stroke:#010101; fill:none;"/>
	<path d="M 268.0,820.0 C 264.286,830.079 263.23,851.148 252.0,856.0 L 259.0,865.0 L 255.0,867.0 L 257.0,860.0 L 262.0,865.0 L 266.0,859.0 L 260.0,860.0 L 261.0,861.0 L 262.0,862.0 L 263.0,863.0" style="stroke:#010101; fill:none;"/>
	<path d="M 309.0,821.0 L 310.0,821.0" style="stroke:#010101; fill:none;"/>
	<path d="M 316.0,821.0 L 318.0,820.0" style="stroke:#010101; fill:none;"/>
	<path d="M 272.0,822.0 L 269.0,826.0" style="stroke:#010101; fill:none;"/>
	<path d="M 361.0,835.0 L 353.0,830.0 L 362.0,822.0" style="stroke:#010101; fill:none;"/>
	<path d="M 254.0,824.0 L 250.0,829.0" style="stroke:#010101; fill:none;"/>
	<path d="M 302.0,830.0 L 322.0,824.0" style="stroke:#010101; fill:none;"/>
	<path d="M 266.0,825.0 L 267.0,830.0" style="stroke:#010101; fill:none;"/>
	<path d="M 298.0,828.0 L 296.0,830.0" style="stroke:#010101; fill:none;"/>
	<path d="M 263.0,830.0 L 266.0,832.0" style="stroke:#010101; fill:none;"/>
	<path d="M 368.0,829.0 L 365.0,834.0" style="stroke:#010101; fill:none;"/>
	<path d="M 389.0,835.0 C 396.763,839.725 399.934,828.135 406.678,830.447 C 410.278,831.68 407.942,837.806 406.721,839.946 C 401.469,849.16 385.728,847.056 389.0,835.0" style="stroke:#010101; fill:none;"/>
	<path d="M 300.0,830.0 L 298.0,832.0" style="stroke:#010101; fill:none;"/>
	<path d="M 349.0,840.0 C 346.249,835.029 348.604,832.826 353.0,830.0" style="stroke:#010101; fill:none;"/>
	<path d="M 262.0,832.0 L 265.0,834.0" style="stroke:#010101; fill:none;"/>
	<path d="M 310.0,832.0 L 302.0,836.0" style="stroke:#010101; fill:none;"/>
	<path d="M 246.0,833.0 L 244.0,836.0" style="stroke:#010101; fill:none;"/>
	<path d="M 261.0,833.0 L 264.0,836.0" style="stroke:#010101; fill:none;"/>
	<path d="M 457.0,833.0 C 451.608,841.151 444.346,847.114 437.0,853.424 C 415.222,872.132 377.267,901.604 348.0,878.0" style="stroke:#010101; fill:none;"/>
	<path d="M 262.0,834.0 C 259.656,837.209 259.143,838.459 261.0,842.0" style="stroke:#010101; fill:none;"/>
	<path d="M 261.0,836.0 L 263.0,838.0" style="stroke:#010101; fill:none;"/>
	<path d="M 307.0,887.0 C 317.761,880.371 330.542,876.43 335.0,863.0 C 312.298,866.04 337.161,840.58 346.0,836.0" style="stroke:#010101; fill:none;"/>
	<path d="M 301.0,838.0 L 298.0,839.0 L 301.0,838.0" style="stroke:#010101; fill:none;"/>
	<path d="M 243.0,838.0 L 242.0,839.0" style="stroke:#010101; fill:none;"/>
	<path d="M 298.0,839.0 L 296.0,841.0 L 298.0,838.0" style="stroke:#010101; fill:none;"/>
	<path d="M 294.0,839.0 C 291.277,841.354 281.952,843.909 288.0,847.0" style="stroke:#010101; fill:none;"/>
	<path d="M 295.0,840.0 L 293.0,842.0" style="stroke:#010101; fill:none;"/>
	<path d="M 241.0,841.0 L 237.0,848.0" style="stroke:#010101; fill:none;"/>
	<path d="M 257.0,841.0 L 252.0,854.0" style="stroke:#010101; fill:none;"/>
	<path d="M 277.0,841.0 L 275.0,852.0 L 271.0,849.0 L 283.0,846.0 L 282.0,844.0" style="stroke:#010101; fill:none;"/>
	<path d="M 288.0,842.0 L 290.0,841.0" style="stroke:#010101; fill:none;"/>
	<path d="M 721.0,841.0 C 732.802,847.887 744.964,852.134 754.0,863.0" style="stroke:#010101; fill:none;"/>
	<path d="M 357.0,843.0 L 353.0,850.0" style="stroke:#010101; fill:none;"/>
	<path d="M 271.0,844.0 L 274.0,844.0" style="stroke:#010101; fill:none;"/>
	<path d="M 288.0,844.0 L 286.0,846.0" style="stroke:#010101; fill:none;"/>
	<path d="M 1031.0,844.0 L 1033.0,847.0" style="stroke:#010101; fill:none;"/>
	<path d="M 1028.0,846.0 C 1029.27,861.531 1035.83,874.189 1042.0,888.0" style="stroke:#010101; fill:none;"/>
	<path d="M 265.0,847.0 L 264.0,858.0" style="stroke:#010101; fill:none;"/>
	<path d="M 268.0,847.0 L 270.0,849.0" style="stroke:#010101; fill:none;"/>
	<path d="M 283.0,847.0 L 276.0,851.0" style="stroke:#010101; fill:none;"/>
	<path d="M 286.0,847.0 L 281.0,848.0" style="stroke:#010101; fill:none;"/>
	<path d="M 355.0,847.0 L 357.0,849.0" style="stroke:#010101; fill:none;"/>
	<path d="M 269.0,848.0 L 267.0,851.0" style="stroke:#010101; fill:none;"/>
	<path d="M 259.0,851.0 L 254.0,854.0" style="stroke:#010101; fill:none;"/>
	<path d="M 260.0,853.0 L 262.0,850.0" style="stroke:#010101; fill:none;"/>
	<path d="M 280.0,851.0 L 282.0,850.0" style="stroke:#010101; fill:none;"/>
	<path d="M 344.0,851.0 L 347.0,851.0" style="stroke:#010101; fill:none;"/>
	<path d="M 273.0,852.0 L 267.0,855.0" style="stroke:#010101; fill:none;"/>
	<path d="M 284.0,853.0 L 286.0,852.0" style="stroke:#010101; fill:none;"/>
	<path d="M 234.0,853.0 L 233.0,854.0" style="stroke:#010101; fill:none;"/>
	<path d="M 350.0,853.0 L 346.0,877.0" style="stroke:#010101; fill:none;"/>
	<path d="M 286.0,854.0 L 278.0,855.0 L 275.0,857.0" style="stroke:#010101; fill:none;"/>
	<path d="M 344.0,854.0 L 335.0,863.0" style="stroke:#010101; fill:none;"/>
	<path d="M 232.0,856.0 L 231.0,858.0" style="stroke:#010101; fill:none;"/>
	<path d="M 249.0,858.0 L 252.0,856.0" style="stroke:#010101; fill:none;"/>
	<path d="M 274.0,859.0 L 270.0,859.0 L 274.0,859.0" style="stroke:#010101; fill:none;"/>
	<path d="M 266.0,862.0 L 270.0,859.0" style="stroke:#010101; fill:none;"/>
	<path d="M 267.0,860.0 L 267.0,862.0" style="stroke:#010101; fill:none;"/>
	<path d="M 268.0,860.0 L 271.0,861.0" style="stroke:#010101; fill:none;"/>
	<path d="M 250.0,863.0 L 254.0,863.0" style="stroke:#010101; fill:none;"/>
	<path d="M 255.0,878.0 L 237.0,884.0 L 277.0,863.0" style="stroke:#010101; fill:none;"/>
	<path d="M 324.0,863.0 L 315.0,879.0" style="stroke:#010101; fill:none;"/>
	<path d="M 331.0,864.0 L 334.0,867.0" style="stroke:#010101; fill:none;"/>
	<path d="M 249.0,865.0 L 251.0,867.0" style="stroke:#010101; fill:none;"/>
	<path d="M 341.0,865.0 L 334.0,885.0" style="stroke:#010101; fill:none;"/>
	<path d="M 250.0,870.0 L 245.0,871.0 L 247.0,866.0" style="stroke:#010101; fill:none;"/>
	<path d="M 242.0,868.0 L 245.0,867.0" style="stroke:#010101; fill:none;"/>
	<path d="M 240.0,869.0 L 244.0,872.0" style="stroke:#010101; fill:none;"/>
	<path d="M 434.0,869.0 L 435.0,873.0" style="stroke:#010101; fill:none;"/>
	<path d="M 234.0,871.0 C 230.948,874.33 229.495,876.434 230.0,881.0 L 236.0,872.0" style="stroke:#010101; fill:none;"/>
	<path d="M 240.0,871.0 L 244.0,872.0" style="stroke:#010101; fill:none;"/>
	<path d="M 264.0,873.0 L 265.0,873.0" style="stroke:#010101; fill:none;"/>
	<path d="M 232.0,874.0 L 235.0,877.0" style="stroke:#010101; fill:none;"/>
	<path d="M 258.0,876.0 L 262.0,874.0" style="stroke:#010101; fill:none;"/>
	<path d="M 426.0,874.0 L 427.0,879.0" style="stroke:#010101; fill:none;"/>
	<path d="M 230.0,875.0 L 233.0,878.0" style="stroke:#010101; fill:none;"/>
	<path d="M 237.0,876.0 L 241.0,874.0" style="stroke:#010101; fill:none;"/>
	<path d="M 430.0,875.0 L 432.0,879.0" style="stroke:#010101; fill:none;"/>
	<path d="M 450.0,877.0 L 441.0,886.0" style="stroke:#010101; fill:none;"/>
	<path d="M 340.0,878.0 L 336.0,881.0" style="stroke:#010101; fill:none;"/>
	<path d="M 421.0,878.0 L 425.0,885.0" style="stroke:#010101; fill:none;"/>
	<path d="M 1036.0,878.0 L 1037.0,885.0 L 1039.0,883.0" style="stroke:#010101; fill:none;"/>
	<path d="M 228.0,879.0 L 229.0,882.0" style="stroke:#010101; fill:none;"/>
	<path d="M 333.0,879.0 L 313.0,895.0" style="stroke:#010101; fill:none;"/>
	<path d="M 225.0,880.0 L 227.0,879.0" style="stroke:#010101; fill:none;"/>
	<path d="M 228.0,882.0 L 225.0,884.0" style="stroke:#010101; fill:none;"/>
	<path d="M 409.0,882.0 L 413.0,897.0" style="stroke:#010101; fill:none;"/>
	<path d="M 238.0,886.0 L 237.0,884.0" style="stroke:#010101; fill:none;"/>
	<path d="M 343.0,888.0 L 341.0,888.0 L 344.0,884.0" style="stroke:#010101; fill:none;"/>
	<path d="M 406.0,892.0 L 408.0,884.0" style="stroke:#010101; fill:none;"/>
	<path d="M 411.0,892.0 L 414.0,884.0 L 421.0,893.0" style="stroke:#010101; fill:none;"/>
	<path d="M 233.0,885.0 L 235.0,885.0" style="stroke:#010101; fill:none;"/>
	<path d="M 250.0,885.0 L 249.0,886.0" style="stroke:#010101; fill:none;"/>
	<path d="M 1037.0,885.0 L 1039.0,902.0" style="stroke:#010101; fill:none;"/>
	<path d="M 401.0,886.0 C 398.924,890.212 398.621,892.886 401.0,897.0" style="stroke:#010101; fill:none;"/>
	<path d="M 236.0,887.0 L 230.0,891.0" style="stroke:#010101; fill:none;"/>
	<path d="M 245.0,887.0 L 240.0,890.0" style="stroke:#010101; fill:none;"/>
	<path d="M 305.0,888.0 L 298.0,892.0" style="stroke:#010101; fill:none;"/>
	<path d="M 341.0,888.0 L 336.0,896.0" style="stroke:#010101; fill:none;"/>
	<path d="M 380.0,892.0 L 380.0,904.0" style="stroke:#010101; fill:none;"/>
	<path d="M 342.0,893.0 L 337.0,902.0" style="stroke:#010101; fill:none;"/>
	<path d="M 386.0,910.0 C 384.097,903.563 384.681,897.454 390.0,893.0" style="stroke:#010101; fill:none;"/>
	<path d="M 394.0,893.0 L 388.0,905.0" style="stroke:#010101; fill:none;"/>
	<path d="M 343.0,898.0 L 351.0,894.0" style="stroke:#010101; fill:none;"/>
	<path d="M 359.0,894.0 L 354.0,902.0" style="stroke:#010101; fill:none;"/>
	<path d="M 375.0,895.0 L 376.0,906.0" style="stroke:#010101; fill:none;"/>
	<path d="M 711.0,924.0 C 711.532,911.804 717.882,901.499 730.0,898.0" style="stroke:#010101; fill:none;"/>
	<path d="M 752.0,902.0 C 746.372,907.097 748.065,910.411 746.0,917.0" style="stroke:#010101; fill:none;"/>
	<path d="M 424.0,905.0 L 422.0,906.0" style="stroke:#010101; fill:none;"/>
	<path d="M 715.0,955.0 C 726.652,939.718 724.156,914.245 746.0,907.0" style="stroke:#010101; fill:none;"/>
	<path d="M 361.0,908.0 L 361.0,909.0" style="stroke:#010101; fill:none;"/>
	<path d="M 365.0,914.0 L 369.0,918.0" style="stroke:#010101; fill:none;"/>
	<path d="M 574.0,914.0 L 574.0,923.0" style="stroke:#010101; fill:none;"/>
	<path d="M 1041.0,916.0 C 1049.43,947.847 1045.01,981.597 1044.05,1014.0 C 1041.39,1104.19 1033.09,1206.33 970.83,1277.0 C 952.42,1297.9 927.757,1318.28 902.0,1329.57 C 889.492,1335.06 877.125,1340.86 865.0,1347.16 C 860.33,1349.59 854.323,1351.03 852.0,1356.0 L 853.0,1357.0 L 852.0,1356.0" style="stroke:#010101; fill:none;"/>
	<path d="M 402.0,920.0 L 404.0,919.0" style="stroke:#010101; fill:none;"/>
	<path d="M 589.0,919.0 C 586.385,940.154 603.249,954.34 623.0,957.0" style="stroke:#010101; fill:none;"/>
	<path d="M 374.0,921.0 L 375.0,921.0" style="stroke:#010101; fill:none;"/>
	<path d="M 391.0,923.0 L 398.0,921.0" style="stroke:#010101; fill:none;"/>
	<path d="M 381.0,923.0 L 389.0,923.0" style="stroke:#010101; fill:none;"/>
	<path d="M 577.0,931.0 C 576.362,942.451 575.718,954.939 579.359,966.0 C 586.595,987.985 609.637,1007.0 633.0,998.0" style="stroke:#010101; fill:none;"/>
	<path d="M 736.0,931.0 L 730.0,936.0" style="stroke:#010101; fill:none;"/>
	<path d="M 713.0,933.0 C 712.522,956.035 697.286,966.0 676.0,966.0 C 670.449,966.0 664.998,966.667 660.0,964.0" style="stroke:#010101; fill:none;"/>
	<path d="M 866.0,939.0 L 867.0,939.0" style="stroke:#010101; fill:none;"/>
	<path d="M 1047.0,942.0 C 1057.47,956.094 1062.65,977.127 1070.6,993.0 C 1080.87,1013.48 1090.53,1034.98 1101.35,1055.0 C 1108.22,1067.69 1118.03,1079.25 1125.28,1092.0 C 1131.87,1103.59 1139.4,1114.95 1145.11,1127.0 C 1147.31,1131.65 1148.82,1138.77 1155.0,1136.0 L 1160.0,1145.0 L 1156.0,1148.0 L 1152.0,1139.0" style="stroke:#010101; fill:none;"/>
	<path d="M 630.0,956.0 C 637.205,961.905 644.075,962.0 653.0,962.0" style="stroke:#010101; fill:none;"/>
	<path d="M 751.0,956.0 L 752.0,956.0" style="stroke:#010101; fill:none;"/>
	<path d="M 884.0,960.0 L 885.0,960.0" style="stroke:#010101; fill:none;"/>
	<path d="M 887.0,961.0 L 887.0,963.0" style="stroke:#010101; fill:none;"/>
	<path d="M 739.0,962.0 L 739.0,963.0" style="stroke:#010101; fill:none;"/>
	<path d="M 746.0,962.0 L 746.0,964.0" style="stroke:#010101; fill:none;"/>
	<path d="M 753.0,967.0 L 753.0,968.0" style="stroke:#010101; fill:none;"/>
	<path d="M 742.0,968.0 L 744.0,968.0" style="stroke:#010101; fill:none;"/>
	<path d="M 629.0,986.0 C 625.551,986.778 620.447,984.905 623.647,980.517 C 626.506,976.597 633.402,973.585 638.0,972.529 C 653.949,968.868 670.015,976.262 686.0,975.0" style="stroke:#010101; fill:none;"/>
	<path d="M 761.0,973.0 L 762.0,973.0" style="stroke:#010101; fill:none;"/>
	<path d="M 643.0,986.0 L 654.0,983.0" style="stroke:#010101; fill:none;"/>
	<path d="M 714.0,995.0 L 716.0,997.0" style="stroke:#010101; fill:none;"/>
	<path d="M 638.0,998.0 L 659.0,999.0" style="stroke:#010101; fill:none;"/>
	<path d="M 693.0,1000.0 L 689.0,1005.0" style="stroke:#010101; fill:none;"/>
	<path d="M 714.0,1001.0 L 714.0,1002.0" style="stroke:#010101; fill:none;"/>
	<path d="M 1022.0,1006.0 L 1023.0,1006.0" style="stroke:#010101; fill:none;"/>
	<path d="M 1017.0,1007.0 L 1016.0,1008.0" style="stroke:#010101; fill:none;"/>
	<path d="M 656.0,1127.0 C 663.614,1110.9 678.329,1098.0 689.113,1084.0 C 695.062,1076.27 700.674,1066.59 710.0,1062.53 C 722.61,1057.05 737.321,1061.53 750.0,1054.96 C 763.846,1047.77 772.463,1034.62 786.0,1026.87 C 807.811,1014.4 838.287,1010.95 863.0,1009.0" style="stroke:#010101; fill:none;"/>
	<path d="M 985.0,1014.0 L 985.0,1015.0" style="stroke:#010101; fill:none;"/>
	<path d="M 814.0,1057.0 L 813.0,1060.0 C 829.011,1057.15 850.298,1045.63 863.0,1035.62 C 871.251,1029.12 877.692,1018.79 888.0,1016.0" style="stroke:#010101; fill:none;"/>
	<path d="M 672.0,1020.0 L 673.0,1020.0" style="stroke:#010101; fill:none;"/>
	<path d="M 658.0,1021.0 L 659.0,1021.0" style="stroke:#010101; fill:none;"/>
	<path d="M 661.0,1024.0 L 658.0,1026.0" style="stroke:#010101; fill:none;"/>
	<path d="M 1022.0,1025.0 L 1022.0,1026.0" style="stroke:#010101; fill:none;"/>
	<path d="M 692.0,1027.0 L 693.0,1027.0" style="stroke:#010101; fill:none;"/>
	<path d="M 693.0,1030.0 L 694.0,1030.0" style="stroke:#010101; fill:none;"/>
	<path d="M 998.0,1038.0 L 999.0,1039.0" style="stroke:#010101; fill:none;"/>
	<path d="M 649.0,1158.0 C 652.979,1143.95 674.796,1146.37 685.0,1138.47 C 692.771,1132.46 698.792,1124.62 707.0,1119.05 C 729.688,1103.65 756.778,1092.31 781.0,1079.67 C 790.786,1074.57 800.709,1064.11 811.0,1061.0" style="stroke:#010101; fill:none;"/>
	<path d="M 645.0,1062.0 L 645.0,1063.0" style="stroke:#010101; fill:none;"/>
	<path d="M 659.0,1065.0 L 660.0,1065.0" style="stroke:#010101; fill:none;"/>
	<path d="M 973.0,1067.0 L 974.0,1068.0" style="stroke:#010101; fill:none;"/>
	<path d="M 648.0,1083.0 L 648.0,1084.0" style="stroke:#010101; fill:none;"/>
	<path d="M 858.0,1084.0 C 845.886,1096.11 832.243,1108.03 817.0,1116.11 C 809.284,1120.2 800.672,1122.06 793.0,1126.31 C 785.0,1130.74 778.869,1137.86 771.0,1142.52 C 763.375,1147.05 754.367,1149.28 746.0,1152.0" style="stroke:#010101; fill:none;"/>
	<path d="M 617.0,1096.0 L 619.0,1096.0" style="stroke:#010101; fill:none;"/>
	<path d="M 635.0,1097.0 L 634.0,1098.0" style="stroke:#010101; fill:none;"/>
	<path d="M 601.0,1103.0 L 603.0,1103.0" style="stroke:#010101; fill:none;"/>
	<path d="M 1012.0,1106.0 L 1012.0,1107.0" style="stroke:#010101; fill:none;"/>
	<path d="M 1144.0,1114.0 L 1155.0,1135.0" style="stroke:#010101; fill:none;"/>
	<path d="M 971.0,1115.0 L 972.0,1117.0" style="stroke:#010101; fill:none;"/>
	<path d="M 611.0,1120.0 L 612.0,1120.0" style="stroke:#010101; fill:none;"/>
	<path d="M 380.0,1131.0 C 404.244,1166.53 438.605,1200.58 471.0,1228.71 C 482.926,1239.07 501.551,1246.53 511.492,1258.46 C 514.307,1261.85 514.527,1267.15 516.876,1271.0 C 529.665,1291.94 539.987,1320.58 557.0,1338.0" style="stroke:#010101; fill:none;"/>
	<path d="M 1014.0,1131.0 L 1014.0,1132.0" style="stroke:#010101; fill:none;"/>
	<path d="M 1041.0,1132.0 L 1041.0,1135.0" style="stroke:#010101; fill:none;"/>
	<path d="M 1154.0,1134.0 L 1151.0,1137.0" style="stroke:#010101; fill:none;"/>
	<path d="M 612.0,1137.0 L 613.0,1137.0" style="stroke:#010101; fill:none;"/>
	<path d="M 1157.0,1141.0 L 1154.0,1144.0" style="stroke:#010101; fill:none;"/>
	<path d="M 1040.0,1143.0 L 1040.0,1146.0" style="stroke:#010101; fill:none;"/>
	<path d="M 1158.0,1143.0 L 1155.0,1146.0" style="stroke:#010101; fill:none;"/>
	<path d="M 970.0,1144.0 L 972.0,1144.0" style="stroke:#010101; fill:none;"/>
	<path d="M 1160.0,1145.0 L 1160.0,1167.0" style="stroke:#010101; fill:none;"/>
	<path d="M 1156.0,1148.0 L 1160.0,1153.0" style="stroke:#010101; fill:none;"/>
	<path d="M 586.0,1153.0 L 585.0,1157.0" style="stroke:#010101; fill:none;"/>
	<path d="M 1039.0,1153.0 L 1039.0,1155.0" style="stroke:#010101; fill:none;"/>
	<path d="M 607.0,1154.0 L 607.0,1155.0" style="stroke:#010101; fill:none;"/>
	<path d="M 594.0,1159.0 L 594.0,1160.0" style="stroke:#010101; fill:none;"/>
	<path d="M 1038.0,1159.0 L 1038.0,1167.0" style="stroke:#010101; fill:none;"/>
	<path d="M 1038.0,1169.0 L 1036.0,1178.0" style="stroke:#010101; fill:none;"/>
	<path d="M 821.0,1180.0 L 784.0,1203.0" style="stroke:#010101; fill:none;"/>
	<path d="M 1036.0,1180.0 L 1029.0,1232.0" style="stroke:#010101; fill:none;"/>
	<path d="M 950.0,1183.0 L 950.0,1184.0" style="stroke:#010101; fill:none;"/>
	<path d="M 951.0,1193.0 L 951.0,1194.0" style="stroke:#010101; fill:none;"/>
	<path d="M 608.0,1225.0 L 608.0,1226.0" style="stroke:#010101; fill:none;"/>
	<path d="M 987.0,1229.0 L 987.0,1230.0" style="stroke:#010101; fill:none;"/>
	<path d="M 1028.0,1234.0 L 1027.0,1240.0" style="stroke:#010101; fill:none;"/>
	<path d="M 560.0,1240.0 L 561.0,1240.0" style="stroke:#010101; fill:none;"/>
	<path d="M 1026.0,1243.0 L 1025.0,1249.0" style="stroke:#010101; fill:none;"/>
	<path d="M 975.0,1246.0 L 970.0,1248.0" style="stroke:#010101; fill:none;"/>
	<path d="M 1024.0,1251.0 L 1023.0,1254.0" style="stroke:#010101; fill:none;"/>
	<path d="M 1022.0,1258.0 L 1021.0,1262.0" style="stroke:#010101; fill:none;"/>
	<path d="M 514.0,1261.0 C 522.012,1262.43 528.862,1268.06 536.0,1271.74 C 550.513,1279.23 564.89,1286.91 580.0,1293.14 C 609.119,1305.14 638.557,1314.26 668.0,1325.05 C 726.33,1346.44 788.665,1369.42 851.0,1355.0" style="stroke:#010101; fill:none;"/>
	<path d="M 681.0,1262.0 L 680.0,1263.0" style="stroke:#010101; fill:none;"/>
	<path d="M 1020.0,1264.0 L 1020.0,1265.0" style="stroke:#010101; fill:none;"/>
	<path d="M 694.0,1267.0 L 694.0,1268.0" style="stroke:#010101; fill:none;"/>
	<path d="M 1019.0,1267.0 L 1019.0,1268.0" style="stroke:#010101; fill:none;"/>
	<path d="M 1018.0,1270.0 L 1018.0,1271.0" style="stroke:#010101; fill:none;"/>
	<path d="M 506.0,1272.0 L 517.0,1272.0" style="stroke:#010101; fill:none;"/>
	<path d="M 793.0,1277.0 L 793.0,1278.0" style="stroke:#010101; fill:none;"/>
	<path d="M 588.0,1280.0 L 585.0,1285.0" style="stroke:#010101; fill:none;"/>
	<path d="M 639.0,1280.0 L 639.0,1281.0" style="stroke:#010101; fill:none;"/>
	<path d="M 736.0,1280.0 L 736.0,1281.0" style="stroke:#010101; fill:none;"/>
	<path d="M 573.0,1281.0 L 573.0,1283.0" style="stroke:#010101; fill:none;"/>
	<path d="M 782.0,1282.0 L 783.0,1282.0" style="stroke:#010101; fill:none;"/>
	<path d="M 735.0,1283.0 L 734.0,1284.0" style="stroke:#010101; fill:none;"/>
	<path d="M 596.0,1285.0 L 595.0,1288.0" style="stroke:#010101; fill:none;"/>
	<path d="M 620.0,1285.0 L 621.0,1285.0" style="stroke:#010101; fill:none;"/>
	<path d="M 609.0,1287.0 L 606.0,1291.0" style="stroke:#010101; fill:none;"/>
	<path d="M 755.0,1287.0 L 756.0,1287.0" style="stroke:#010101; fill:none;"/>
	<path d="M 917.0,1291.0 L 919.0,1291.0" style="stroke:#010101; fill:none;"/>
	<path d="M 906.0,1294.0 L 907.0,1296.0" style="stroke:#010101; fill:none;"/>
	<path d="M 803.0,1301.0 L 804.0,1301.0" style="stroke:#010101; fill:none;"/>
	<path d="M 824.0,1308.0 L 824.0,1309.0" style="stroke:#010101; fill:none;"/>
	<path d="M 703.0,1311.0 L 703.0,1313.0" style="stroke:#010101; fill:none;"/>
	<path d="M 712.0,1311.0 L 711.0,1312.0" style="stroke:#010101; fill:none;"/>
	<path d="M 830.0,1316.0 L 829.0,1318.0" style="stroke:#010101; fill:none;"/>
	<path d="M 849.0,1319.0 L 849.0,1320.0" style="stroke:#010101; fill:none;"/>
	<path d="M 819.0,1321.0 L 819.0,1322.0" style="stroke:#010101; fill:none;"/>
	<path d="M 886.0,1322.0 L 886.0,1324.0" style="stroke:#010101; fill:none;"/>
	<path d="M 710.0,1323.0 L 712.0,1323.0" style="stroke:#010101; fill:none;"/>
	<path d="M 602.0,1324.0 L 604.0,1325.0" style="stroke:#010101; fill:none;"/>
	<path d="M 743.0,1326.0 L 741.0,1328.0" style="stroke:#010101; fill:none;"/>
	<path d="M 607.0,1327.0 L 611.0,1329.0" style="stroke:#010101; fill:none;"/>
	<path d="M 815.0,1328.0 L 815.0,1329.0" style="stroke:#010101; fill:none;"/>
	<path d="M 865.0,1329.0 L 865.0,1330.0" style="stroke:#010101; fill:none;"/>
	<path d="M 613.0,1330.0 L 622.0,1335.0" style="stroke:#010101; fill:none;"/>
	<path d="M 868.0,1331.0 L 868.0,1332.0" style="stroke:#010101; fill:none;"/>
	<path d="M 847.0,1337.0 L 847.0,1340.0" style="stroke:#010101; fill:none;"/>
	<path d="M 628.0,1338.0 L 633.0,1341.0" style="stroke:#010101; fill:none;"/>
	<path d="M 831.0,1339.0 L 831.0,1341.0" style="stroke:#010101; fill:none;"/>
	<path d="M 636.0,1342.0 L 648.0,1348.0" style="stroke:#010101; fill:none;"/>
	<path d="M 650.0,1349.0 L 737.0,1392.0" style="stroke:#010101; fill:none;"/>
	<path d="M 800.0,1350.0 L 800.0,1351.0" style="stroke:#010101; fill:none;"/>
	<path d="M 567.0,1361.0 L 573.0,1374.0" style="stroke:#010101; fill:none;"/>
	<path d="M 576.0,1379.0 C 582.779,1405.89 602.338,1428.5 614.0,1453.0" style="stroke:#010101; fill:none;"/>
	<path d="M 740.0,1394.0 L 746.0,1397.0" style="stroke:#010101; fill:none;"/>
	<path d="M 797.0,1415.0 L 815.0,1415.0" style="stroke:#010101; fill:none;"/>
	<path d="M 618.0,1460.0 L 620.0,1466.0" style="stroke:#010101; fill:none;"/>
</svg>
