<?xml version="1.0" ?>
<svg baseProfile="full" height="1499" version="1.1" width="1197" xmlns="http://www.w3.org/2000/svg" xmlns:ev="http://www.w3.org/2001/xml-events" xmlns:xlink="http://www.w3.org/1999/xlink">
	<defs/>
	<path d="M 524.0,379.0 L 530.0,377.0" style="stroke:#010101; fill:none;"/>
	<path d="M 362.0,416.0 L 355.0,419.0" style="stroke:#010101; fill:none;"/>
	<path d="M 536.0,423.0 L 570.0,417.0" style="stroke:#010101; fill:none;"/>
	<path d="M 327.0,427.0 L 353.0,420.0" style="stroke:#010101; fill:none;"/>
	<path d="M 500.0,433.0 L 518.0,427.0" style="stroke:#010101; fill:none;"/>
	<path d="M 473.0,447.0 L 492.0,437.0" style="stroke:#010101; fill:none;"/>
	<path d="M 447.0,452.0 L 468.0,449.0" style="stroke:#010101; fill:none;"/>
	<path d="M 366.0,484.0 C 394.269,479.036 416.302,457.939 445.0,452.0" style="stroke:#010101; fill:none;"/>
	<path d="M 585.0,481.0 L 600.0,485.0" style="stroke:#010101; fill:none;"/>
	<path d="M 569.0,483.0 L 590.0,487.0 L 579.0,483.0" style="stroke:#010101; fill:none;"/>
	<path d="M 557.0,484.0 L 571.0,488.0 L 550.0,487.0" style="stroke:#010101; fill:none;"/>
	<path d="M 595.0,484.0 L 597.0,486.0" style="stroke:#010101; fill:none;"/>
	<path d="M 318.0,493.0 L 364.0,485.0" style="stroke:#010101; fill:none;"/>
	<path d="M 590.0,487.0 L 594.0,491.0 L 594.0,488.0" style="stroke:#010101; fill:none;"/>
	<path d="M 602.0,487.0 L 613.0,494.0 C 607.628,498.499 604.551,496.202 598.286,496.737 C 580.499,498.254 563.559,490.388 546.0,489.0" style="stroke:#010101; fill:none;"/>
	<path d="M 572.0,488.0 L 596.0,495.0" style="stroke:#010101; fill:none;"/>
	<path d="M 570.0,489.0 L 573.0,490.0" style="stroke:#010101; fill:none;"/>
	<path d="M 590.0,489.0 L 592.0,489.0" style="stroke:#010101; fill:none;"/>
	<path d="M 595.0,490.0 L 609.0,492.0" style="stroke:#010101; fill:none;"/>
	<path d="M 537.0,492.0 C 551.633,494.757 567.21,496.811 578.0,507.0 L 582.0,503.0 L 569.0,499.0" style="stroke:#010101; fill:none;"/>
	<path d="M 274.0,504.0 L 313.0,494.0" style="stroke:#010101; fill:none;"/>
	<path d="M 588.0,494.0 L 586.0,496.0" style="stroke:#010101; fill:none;"/>
	<path d="M 591.0,494.0 L 591.0,496.0" style="stroke:#010101; fill:none;"/>
	<path d="M 607.0,494.0 L 604.0,497.0" style="stroke:#010101; fill:none;"/>
	<path d="M 608.0,494.0 L 610.0,496.0" style="stroke:#010101; fill:none;"/>
	<path d="M 613.0,494.0 C 615.299,495.942 613.936,497.059 612.0,499.0 C 615.679,499.956 617.275,498.852 617.0,495.0" style="stroke:#010101; fill:none;"/>
	<path d="M 530.0,497.0 L 566.0,499.0" style="stroke:#010101; fill:none;"/>
	<path d="M 619.0,497.0 L 621.0,503.0 L 622.0,503.0 L 621.0,500.0" style="stroke:#010101; fill:none;"/>
	<path d="M 568.0,498.0 L 569.0,499.0" style="stroke:#010101; fill:none;"/>
	<path d="M 615.0,498.0 L 618.0,501.0" style="stroke:#010101; fill:none;"/>
	<path d="M 623.0,498.0 L 628.0,500.0 L 624.0,503.0 L 658.0,513.0" style="stroke:#010101; fill:none;"/>
	<path d="M 529.0,499.0 L 562.0,501.0" style="stroke:#010101; fill:none;"/>
	<path d="M 611.0,499.0 L 612.0,499.0" style="stroke:#010101; fill:none;"/>
	<path d="M 532.0,503.0 L 549.0,502.0" style="stroke:#010101; fill:none;"/>
	<path d="M 583.0,502.0 L 610.0,506.858 L 622.0,509.0 L 614.0,507.0" style="stroke:#010101; fill:none;"/>
	<path d="M 629.0,502.0 L 629.0,503.0" style="stroke:#010101; fill:none;"/>
	<path d="M 562.0,503.0 L 568.0,503.0" style="stroke:#010101; fill:none;"/>
	<path d="M 501.0,509.0 C 499.313,507.761 516.133,505.369 519.0,505.083 C 531.02,503.887 545.203,505.475 557.0,507.278 C 564.543,508.43 569.775,511.343 577.0,506.0" style="stroke:#010101; fill:none;"/>
	<path d="M 536.0,506.0 L 502.0,510.0" style="stroke:#010101; fill:none;"/>
	<path d="M 582.0,506.0 L 595.0,506.0" style="stroke:#010101; fill:none;"/>
	<path d="M 223.0,528.0 C 236.187,518.585 252.969,512.83 268.0,507.0" style="stroke:#010101; fill:none;"/>
	<path d="M 578.0,507.0 C 576.341,514.142 567.768,512.291 562.0,514.0 L 569.0,517.0 L 563.0,520.0 L 583.0,520.0" style="stroke:#010101; fill:none;"/>
	<path d="M 608.0,507.0 L 612.0,507.0" style="stroke:#010101; fill:none;"/>
	<path d="M 536.0,508.0 L 549.0,508.0" style="stroke:#010101; fill:none;"/>
	<path d="M 562.0,508.0 L 565.0,508.0" style="stroke:#010101; fill:none;"/>
	<path d="M 575.0,508.0 L 577.0,510.0" style="stroke:#010101; fill:none;"/>
	<path d="M 552.0,509.0 L 560.0,509.0" style="stroke:#010101; fill:none;"/>
	<path d="M 574.0,509.0 L 574.0,511.0" style="stroke:#010101; fill:none;"/>
	<path d="M 622.0,509.0 L 659.0,518.0 L 660.0,517.0 L 659.0,516.0 L 657.0,518.0 L 660.0,520.0 L 661.0,519.0 L 661.0,517.0" style="stroke:#010101; fill:none;"/>
	<path d="M 570.0,510.0 L 572.0,512.0" style="stroke:#010101; fill:none;"/>
	<path d="M 627.0,510.0 L 625.0,513.0 L 630.0,513.0" style="stroke:#010101; fill:none;"/>
	<path d="M 579.0,511.0 L 624.0,514.0" style="stroke:#010101; fill:none;"/>
	<path d="M 622.0,511.0 L 625.0,513.0" style="stroke:#010101; fill:none;"/>
	<path d="M 661.0,511.0 L 664.0,518.0 L 662.0,518.0" style="stroke:#010101; fill:none;"/>
	<path d="M 468.0,529.0 C 467.39,527.978 481.424,523.128 484.0,521.903 C 498.473,515.018 520.865,507.746 537.0,513.0 L 527.0,516.0" style="stroke:#010101; fill:none;"/>
	<path d="M 650.0,512.0 L 654.0,512.0" style="stroke:#010101; fill:none;"/>
	<path d="M 537.0,513.0 L 562.0,514.0" style="stroke:#010101; fill:none;"/>
	<path d="M 653.0,514.0 L 658.0,517.0" style="stroke:#010101; fill:none;"/>
	<path d="M 667.0,514.0 C 671.666,518.875 674.815,524.423 682.0,525.0" style="stroke:#010101; fill:none;"/>
	<path d="M 631.0,515.0 L 634.0,514.0" style="stroke:#010101; fill:none;"/>
	<path d="M 494.0,516.0 L 495.0,517.0" style="stroke:#010101; fill:none;"/>
	<path d="M 491.0,517.0 L 492.0,518.0" style="stroke:#010101; fill:none;"/>
	<path d="M 569.0,517.0 L 601.0,518.0" style="stroke:#010101; fill:none;"/>
	<path d="M 518.0,518.0 L 526.0,520.0 C 520.607,521.577 513.364,516.81 510.0,522.0 L 516.0,522.0" style="stroke:#010101; fill:none;"/>
	<path d="M 526.0,520.0 L 562.0,519.0" style="stroke:#010101; fill:none;"/>
	<path d="M 665.0,518.0 L 671.0,521.0" style="stroke:#010101; fill:none;"/>
	<path d="M 670.0,518.0 L 668.0,520.0" style="stroke:#010101; fill:none;"/>
	<path d="M 519.0,519.0 L 520.0,524.0 L 522.0,519.0" style="stroke:#010101; fill:none;"/>
	<path d="M 661.0,519.0 L 666.0,519.0" style="stroke:#010101; fill:none;"/>
	<path d="M 682.0,519.0 L 689.0,528.0" style="stroke:#010101; fill:none;"/>
	<path d="M 509.0,523.0 L 503.0,523.0 L 510.0,520.0" style="stroke:#010101; fill:none;"/>
	<path d="M 551.0,520.0 C 551.271,523.217 549.868,523.64 547.0,525.0 C 554.409,529.393 565.749,525.746 574.0,525.0" style="stroke:#010101; fill:none;"/>
	<path d="M 560.0,520.0 L 564.0,522.0" style="stroke:#010101; fill:none;"/>
	<path d="M 502.0,524.0 L 499.0,524.0 L 502.0,521.0" style="stroke:#010101; fill:none;"/>
	<path d="M 536.0,521.0 L 538.0,520.0" style="stroke:#010101; fill:none;"/>
	<path d="M 498.0,525.0 L 495.0,525.0 L 499.0,522.0" style="stroke:#010101; fill:none;"/>
	<path d="M 553.0,522.0 L 559.0,523.0" style="stroke:#010101; fill:none;"/>
	<path d="M 669.0,522.0 C 671.809,531.479 680.252,540.945 687.0,548.0" style="stroke:#010101; fill:none;"/>
	<path d="M 494.0,526.0 L 491.0,525.0 L 495.0,523.0" style="stroke:#010101; fill:none;"/>
	<path d="M 512.0,523.0 L 513.0,526.0 L 517.0,524.0 L 515.0,523.0" style="stroke:#010101; fill:none;"/>
	<path d="M 677.0,523.0 L 679.0,524.0" style="stroke:#010101; fill:none;"/>
	<path d="M 477.0,537.0 L 476.0,531.0 L 490.0,524.0" style="stroke:#010101; fill:none;"/>
	<path d="M 547.0,526.0 L 545.0,532.0 C 543.933,529.426 543.151,525.569 547.0,526.0" style="stroke:#010101; fill:none;"/>
	<path d="M 472.0,526.0 L 474.0,525.0" style="stroke:#010101; fill:none;"/>
	<path d="M 539.0,531.0 C 536.031,529.002 536.632,527.385 539.0,525.0 L 542.0,531.0" style="stroke:#010101; fill:none;"/>
	<path d="M 541.0,525.0 L 542.0,527.0" style="stroke:#010101; fill:none;"/>
	<path d="M 491.0,526.0 L 485.0,532.0" style="stroke:#010101; fill:none;"/>
	<path d="M 485.0,532.0 L 511.0,526.0" style="stroke:#010101; fill:none;"/>
	<path d="M 537.0,526.0 L 540.0,529.0" style="stroke:#010101; fill:none;"/>
	<path d="M 678.0,526.0 L 688.0,538.0" style="stroke:#010101; fill:none;"/>
	<path d="M 538.0,531.0 L 534.0,535.0 C 530.496,530.812 529.668,527.494 536.0,527.0" style="stroke:#010101; fill:none;"/>
	<path d="M 532.0,534.0 C 527.821,535.153 526.37,532.248 524.0,529.0 L 530.0,528.0" style="stroke:#010101; fill:none;"/>
	<path d="M 608.0,528.0 L 608.0,530.0 L 608.0,528.0" style="stroke:#010101; fill:none;"/>
	<path d="M 467.0,531.0 L 453.0,538.0 C 455.554,532.808 460.606,530.554 466.0,529.0" style="stroke:#010101; fill:none;"/>
	<path d="M 469.0,530.0 L 472.0,528.0" style="stroke:#010101; fill:none;"/>
	<path d="M 506.0,532.0 L 513.0,529.0 L 514.0,530.0 L 497.033,533.882 L 490.407,540.778 L 473.0,559.0 L 475.0,558.0" style="stroke:#010101; fill:none;"/>
	<path d="M 548.0,535.0 C 539.322,536.989 524.259,545.188 516.0,542.0 L 524.0,537.0 L 518.0,530.0 L 524.0,529.0" style="stroke:#010101; fill:none;"/>
	<path d="M 547.0,530.0 L 573.0,529.0" style="stroke:#010101; fill:none;"/>
	<path d="M 585.0,532.0 L 607.0,529.0" style="stroke:#010101; fill:none;"/>
	<path d="M 609.0,529.0 L 640.0,535.0" style="stroke:#010101; fill:none;"/>
	<path d="M 479.0,530.0 L 479.0,534.0" style="stroke:#010101; fill:none;"/>
	<path d="M 514.0,530.0 L 518.0,530.0" style="stroke:#010101; fill:none;"/>
	<path d="M 448.0,539.0 L 451.0,546.0 L 476.0,531.0" style="stroke:#010101; fill:none;"/>
	<path d="M 504.0,531.0 L 505.0,532.0" style="stroke:#010101; fill:none;"/>
	<path d="M 513.0,531.0 L 520.0,538.0" style="stroke:#010101; fill:none;"/>
	<path d="M 530.0,531.0 L 528.0,533.0" style="stroke:#010101; fill:none;"/>
	<path d="M 481.0,532.0 L 483.0,532.0" style="stroke:#010101; fill:none;"/>
	<path d="M 533.0,532.0 L 535.0,532.0" style="stroke:#010101; fill:none;"/>
	<path d="M 523.0,534.0 L 527.0,533.0" style="stroke:#010101; fill:none;"/>
	<path d="M 489.0,538.0 L 486.0,536.0 L 493.0,534.0" style="stroke:#010101; fill:none;"/>
	<path d="M 520.0,534.0 L 518.0,536.0" style="stroke:#010101; fill:none;"/>
	<path d="M 515.0,536.0 L 513.0,541.0 L 506.0,542.0 C 508.902,537.845 511.012,535.938 516.0,535.0" style="stroke:#010101; fill:none;"/>
	<path d="M 528.0,535.0 L 524.0,537.0" style="stroke:#010101; fill:none;"/>
	<path d="M 478.0,540.0 L 486.0,536.0" style="stroke:#010101; fill:none;"/>
	<path d="M 507.0,540.0 L 505.0,538.0 L 510.0,536.0" style="stroke:#010101; fill:none;"/>
	<path d="M 614.0,536.0 L 650.0,539.0" style="stroke:#010101; fill:none;"/>
	<path d="M 467.0,540.0 L 467.0,542.0 L 476.0,537.0" style="stroke:#010101; fill:none;"/>
	<path d="M 479.0,537.0 L 482.0,537.0" style="stroke:#010101; fill:none;"/>
	<path d="M 506.0,541.0 L 502.0,539.0 L 505.0,538.0" style="stroke:#010101; fill:none;"/>
	<path d="M 514.0,537.0 L 517.0,540.0" style="stroke:#010101; fill:none;"/>
	<path d="M 453.0,538.0 L 447.0,543.0" style="stroke:#010101; fill:none;"/>
	<path d="M 475.0,538.0 L 467.0,542.0" style="stroke:#010101; fill:none;"/>
	<path d="M 494.0,541.0 L 501.0,538.0" style="stroke:#010101; fill:none;"/>
	<path d="M 485.0,539.0 L 488.0,537.0" style="stroke:#010101; fill:none;"/>
	<path d="M 488.0,539.0 L 486.0,541.0" style="stroke:#010101; fill:none;"/>
	<path d="M 490.0,539.0 L 491.0,540.0" style="stroke:#010101; fill:none;"/>
	<path d="M 511.0,539.0 L 512.0,539.0" style="stroke:#010101; fill:none;"/>
	<path d="M 276.0,551.0 L 336.0,540.0" style="stroke:#010101; fill:none;"/>
	<path d="M 429.0,540.0 L 429.0,556.0 L 430.0,547.0" style="stroke:#010101; fill:none;"/>
	<path d="M 502.0,540.0 C 498.966,542.301 497.186,543.437 494.0,541.0" style="stroke:#010101; fill:none;"/>
	<path d="M 459.0,549.0 L 457.0,553.0 C 456.861,548.109 462.213,543.742 466.0,541.0" style="stroke:#010101; fill:none;"/>
	<path d="M 473.0,542.0 L 477.0,541.0" style="stroke:#010101; fill:none;"/>
	<path d="M 501.0,541.0 L 505.0,541.0" style="stroke:#010101; fill:none;"/>
	<path d="M 632.0,542.0 L 663.0,542.0" style="stroke:#010101; fill:none;"/>
	<path d="M 672.0,542.0 L 678.0,542.0" style="stroke:#010101; fill:none;"/>
	<path d="M 447.0,543.0 C 443.886,545.943 442.02,547.646 443.0,552.0 L 446.0,545.0" style="stroke:#010101; fill:none;"/>
	<path d="M 478.0,543.0 C 473.869,548.413 468.166,555.925 469.0,563.0 L 473.0,559.0" style="stroke:#010101; fill:none;"/>
	<path d="M 489.0,543.0 C 483.783,551.379 473.439,562.445 475.0,573.0 L 494.0,543.0" style="stroke:#010101; fill:none;"/>
	<path d="M 503.0,543.0 L 494.0,553.0" style="stroke:#010101; fill:none;"/>
	<path d="M 514.0,543.0 L 501.0,549.0" style="stroke:#010101; fill:none;"/>
	<path d="M 449.0,544.0 L 447.0,546.0" style="stroke:#010101; fill:none;"/>
	<path d="M 468.0,544.0 C 459.006,558.213 454.829,564.818 457.0,582.0" style="stroke:#010101; fill:none;"/>
	<path d="M 498.0,545.0 L 495.0,549.0" style="stroke:#010101; fill:none;"/>
	<path d="M 514.0,545.0 L 517.0,544.0" style="stroke:#010101; fill:none;"/>
	<path d="M 421.0,546.0 C 417.804,560.7 429.304,580.779 439.0,591.0" style="stroke:#010101; fill:none;"/>
	<path d="M 458.0,547.0 L 458.0,548.0" style="stroke:#010101; fill:none;"/>
	<path d="M 495.0,549.0 L 493.0,551.0" style="stroke:#010101; fill:none;"/>
	<path d="M 465.0,551.0 L 463.0,579.0" style="stroke:#010101; fill:none;"/>
	<path d="M 505.0,551.0 L 500.0,556.0 L 502.0,556.0" style="stroke:#010101; fill:none;"/>
	<path d="M 434.0,552.0 C 434.291,558.669 436.18,566.19 441.0,571.0 L 443.0,552.0" style="stroke:#010101; fill:none;"/>
	<path d="M 446.0,552.0 L 450.0,584.0 L 451.0,584.0 L 452.0,583.0" style="stroke:#010101; fill:none;"/>
	<path d="M 449.0,558.0 L 455.0,553.0" style="stroke:#010101; fill:none;"/>
	<path d="M 222.0,566.0 L 263.0,553.0" style="stroke:#010101; fill:none;"/>
	<path d="M 457.0,553.0 L 457.0,557.0" style="stroke:#010101; fill:none;"/>
	<path d="M 455.0,554.0 L 451.0,576.0" style="stroke:#010101; fill:none;"/>
	<path d="M 491.0,554.0 L 493.0,555.0" style="stroke:#010101; fill:none;"/>
	<path d="M 429.0,556.0 L 430.0,561.0 L 431.0,556.0" style="stroke:#010101; fill:none;"/>
	<path d="M 490.0,558.0 C 488.206,557.688 488.206,557.312 490.0,557.0" style="stroke:#010101; fill:none;"/>
	<path d="M 500.0,556.0 L 497.0,562.0 L 499.0,559.0" style="stroke:#010101; fill:none;"/>
	<path d="M 501.0,557.0 L 499.0,559.0" style="stroke:#010101; fill:none;"/>
	<path d="M 487.0,559.0 L 489.0,560.0" style="stroke:#010101; fill:none;"/>
	<path d="M 431.0,560.0 L 431.0,566.0 L 430.0,561.0" style="stroke:#010101; fill:none;"/>
	<path d="M 474.0,560.0 L 473.0,573.0" style="stroke:#010101; fill:none;"/>
	<path d="M 419.0,561.0 L 419.0,563.0" style="stroke:#010101; fill:none;"/>
	<path d="M 486.0,561.0 L 487.0,562.0" style="stroke:#010101; fill:none;"/>
	<path d="M 496.0,561.0 L 486.0,574.0" style="stroke:#010101; fill:none;"/>
	<path d="M 487.0,562.0 L 477.0,577.0" style="stroke:#010101; fill:none;"/>
	<path d="M 497.0,562.0 L 493.0,572.0" style="stroke:#010101; fill:none;"/>
	<path d="M 467.0,563.0 L 468.0,566.0 L 469.0,563.0" style="stroke:#010101; fill:none;"/>
	<path d="M 431.0,566.0 L 433.0,570.0 L 434.0,566.0" style="stroke:#010101; fill:none;"/>
	<path d="M 466.0,566.0 L 468.0,567.0" style="stroke:#010101; fill:none;"/>
	<path d="M 420.0,567.0 L 431.0,589.0" style="stroke:#010101; fill:none;"/>
	<path d="M 467.0,568.0 L 466.0,574.0" style="stroke:#010101; fill:none;"/>
	<path d="M 434.0,570.0 L 450.0,587.0" style="stroke:#010101; fill:none;"/>
	<path d="M 441.0,571.0 L 449.0,583.0" style="stroke:#010101; fill:none;"/>
	<path d="M 434.0,572.0 L 436.0,574.0" style="stroke:#010101; fill:none;"/>
	<path d="M 471.0,573.0 L 471.0,581.0" style="stroke:#010101; fill:none;"/>
	<path d="M 473.0,574.0 L 475.0,574.0" style="stroke:#010101; fill:none;"/>
	<path d="M 436.0,576.0 L 444.0,587.0" style="stroke:#010101; fill:none;"/>
	<path d="M 474.0,576.0 L 473.0,577.0" style="stroke:#010101; fill:none;"/>
	<path d="M 470.0,577.0 L 471.0,578.0" style="stroke:#010101; fill:none;"/>
	<path d="M 453.0,585.0 L 457.0,589.0" style="stroke:#010101; fill:none;"/>
	<path d="M 514.0,613.0 C 529.765,597.246 550.533,590.443 572.0,586.0" style="stroke:#010101; fill:none;"/>
	<path d="M 579.0,586.0 L 606.0,592.0" style="stroke:#010101; fill:none;"/>
	<path d="M 628.0,600.0 L 632.0,600.0" style="stroke:#010101; fill:none;"/>
	<path d="M 221.0,606.0 L 227.0,604.0" style="stroke:#010101; fill:none;"/>
	<path d="M 221.0,607.0 L 220.0,605.0" style="stroke:#010101; fill:none;"/>
	<path d="M 197.0,626.0 L 196.0,623.0 L 201.0,623.0 C 196.695,614.705 211.7,608.624 218.0,606.0" style="stroke:#010101; fill:none;"/>
	<path d="M 219.0,608.0 L 218.0,611.0" style="stroke:#010101; fill:none;"/>
	<path d="M 219.0,612.0 L 226.0,608.0" style="stroke:#010101; fill:none;"/>
	<path d="M 242.0,610.0 L 233.0,609.0 L 236.0,608.0" style="stroke:#010101; fill:none;"/>
	<path d="M 264.0,608.0 L 264.0,610.0 L 261.0,609.0" style="stroke:#010101; fill:none;"/>
	<path d="M 309.0,610.0 L 309.0,608.0 L 317.0,609.0" style="stroke:#010101; fill:none;"/>
	<path d="M 235.0,618.0 L 237.0,615.0 L 237.0,619.0 L 236.0,620.0 L 227.0,621.0 L 233.0,609.0" style="stroke:#010101; fill:none;"/>
	<path d="M 265.0,609.0 L 267.0,609.0" style="stroke:#010101; fill:none;"/>
	<path d="M 291.0,612.0 L 297.0,609.0 L 302.0,611.0 L 301.0,609.0" style="stroke:#010101; fill:none;"/>
	<path d="M 304.0,610.0 L 307.0,609.0" style="stroke:#010101; fill:none;"/>
	<path d="M 209.0,629.0 L 218.0,630.0 C 213.093,631.854 209.344,630.752 205.0,628.0 L 227.0,611.0 L 228.0,610.0 L 229.0,610.0 L 230.0,610.0" style="stroke:#010101; fill:none;"/>
	<path d="M 257.0,612.0 L 259.0,610.0" style="stroke:#010101; fill:none;"/>
	<path d="M 293.0,610.0 L 296.0,610.0" style="stroke:#010101; fill:none;"/>
	<path d="M 215.0,613.0 L 213.0,615.0 L 216.0,611.0" style="stroke:#010101; fill:none;"/>
	<path d="M 226.0,611.0 L 227.0,611.0" style="stroke:#010101; fill:none;"/>
	<path d="M 231.0,611.0 L 234.0,612.0" style="stroke:#010101; fill:none;"/>
	<path d="M 237.0,616.0 C 241.691,617.062 243.511,614.79 246.0,611.0 C 249.21,613.409 251.445,612.537 255.0,611.0" style="stroke:#010101; fill:none;"/>
	<path d="M 290.0,613.0 L 275.0,614.0 L 290.0,611.0" style="stroke:#010101; fill:none;"/>
	<path d="M 297.0,611.0 L 299.0,611.0" style="stroke:#010101; fill:none;"/>
	<path d="M 228.0,613.0 L 230.0,612.0" style="stroke:#010101; fill:none;"/>
	<path d="M 242.0,615.0 L 244.0,613.0" style="stroke:#010101; fill:none;"/>
	<path d="M 537.0,626.0 C 544.548,619.583 554.476,614.723 564.0,612.0" style="stroke:#010101; fill:none;"/>
	<path d="M 217.0,613.0 L 216.0,614.0" style="stroke:#010101; fill:none;"/>
	<path d="M 237.0,615.0 L 242.0,613.0" style="stroke:#010101; fill:none;"/>
	<path d="M 271.0,614.0 L 269.0,616.0 L 275.0,614.0" style="stroke:#010101; fill:none;"/>
	<path d="M 210.667,615.0 L 210.333,616.0 L 210.667,615.0" style="stroke:#010101; fill:none;"/>
	<path d="M 329.0,632.0 L 288.0,619.0 C 304.088,612.209 325.023,612.26 340.0,621.0" style="stroke:#010101; fill:none;"/>
	<path d="M 239.0,615.0 L 239.0,616.0" style="stroke:#010101; fill:none;"/>
	<path d="M 268.0,616.0 L 263.0,616.0 L 268.0,616.0" style="stroke:#010101; fill:none;"/>
	<path d="M 272.0,615.0 L 276.0,615.0" style="stroke:#010101; fill:none;"/>
	<path d="M 227.0,619.0 L 224.0,618.0 L 228.0,616.0" style="stroke:#010101; fill:none;"/>
	<path d="M 234.0,620.0 L 231.0,617.0 L 234.0,616.0" style="stroke:#010101; fill:none;"/>
	<path d="M 323.0,638.0 C 307.502,631.987 291.719,627.695 276.0,622.495 C 269.475,620.336 264.831,623.342 260.0,617.0 L 263.0,616.0" style="stroke:#010101; fill:none;"/>
	<path d="M 229.0,618.0 L 231.0,617.0" style="stroke:#010101; fill:none;"/>
	<path d="M 236.0,617.0 L 237.0,617.0" style="stroke:#010101; fill:none;"/>
	<path d="M 316.0,618.0 L 331.0,623.0" style="stroke:#010101; fill:none;"/>
	<path d="M 202.0,623.0 L 209.0,617.0" style="stroke:#010101; fill:none;"/>
	<path d="M 217.0,637.0 L 227.0,632.0 C 225.21,628.405 225.068,626.535 227.0,623.0 L 221.0,620.0 L 222.0,619.0 L 223.0,618.0 L 224.0,618.0" style="stroke:#010101; fill:none;"/>
	<path d="M 259.0,620.0 C 252.927,624.984 234.323,631.573 227.0,628.0 C 234.929,623.492 249.915,616.508 259.0,619.0" style="stroke:#010101; fill:none;"/>
	<path d="M 263.0,618.0 L 263.0,619.0" style="stroke:#010101; fill:none;"/>
	<path d="M 300.0,618.0 L 331.0,628.0" style="stroke:#010101; fill:none;"/>
	<path d="M 225.0,619.0 L 225.0,621.0" style="stroke:#010101; fill:none;"/>
	<path d="M 230.0,619.0 L 230.0,620.0" style="stroke:#010101; fill:none;"/>
	<path d="M 277.0,621.0 L 288.0,619.0" style="stroke:#010101; fill:none;"/>
	<path d="M 539.0,630.0 C 547.225,625.149 556.307,619.852 566.0,619.0" style="stroke:#010101; fill:none;"/>
	<path d="M 196.0,623.0 L 198.0,620.0" style="stroke:#010101; fill:none;"/>
	<path d="M 223.0,620.0 L 223.0,621.0" style="stroke:#010101; fill:none;"/>
	<path d="M 281.0,620.0 C 290.091,626.614 306.097,628.114 317.0,631.0" style="stroke:#010101; fill:none;"/>
	<path d="M 201.0,621.0 L 203.0,621.0" style="stroke:#010101; fill:none;"/>
	<path d="M 221.0,621.0 L 217.0,623.0 L 220.0,620.0" style="stroke:#010101; fill:none;"/>
	<path d="M 259.0,621.0 L 263.0,622.0" style="stroke:#010101; fill:none;"/>
	<path d="M 198.0,622.0 L 198.0,623.0" style="stroke:#010101; fill:none;"/>
	<path d="M 215.0,625.0 L 216.0,624.0" style="stroke:#010101; fill:none;"/>
	<path d="M 217.0,628.0 L 224.0,623.0" style="stroke:#010101; fill:none;"/>
	<path d="M 256.0,623.0 L 260.0,623.0" style="stroke:#010101; fill:none;"/>
	<path d="M 490.0,623.0 C 470.517,650.122 457.61,686.6 467.0,720.0" style="stroke:#010101; fill:none;"/>
	<path d="M 577.0,624.0 L 588.0,623.0" style="stroke:#010101; fill:none;"/>
	<path d="M 211.0,628.0 L 214.0,624.0" style="stroke:#010101; fill:none;"/>
	<path d="M 221.0,624.0 L 223.0,626.0 L 218.0,626.0" style="stroke:#010101; fill:none;"/>
	<path d="M 257.0,624.0 L 254.0,625.0" style="stroke:#010101; fill:none;"/>
	<path d="M 199.0,625.0 C 201.775,628.688 203.204,632.139 208.0,630.0" style="stroke:#010101; fill:none;"/>
	<path d="M 201.0,625.0 L 200.0,626.0" style="stroke:#010101; fill:none;"/>
	<path d="M 212.0,625.0 L 214.0,627.0" style="stroke:#010101; fill:none;"/>
	<path d="M 220.0,625.0 L 220.0,627.0" style="stroke:#010101; fill:none;"/>
	<path d="M 253.0,625.0 L 243.0,628.0" style="stroke:#010101; fill:none;"/>
	<path d="M 267.0,625.0 C 272.224,627.213 276.905,627.719 282.0,625.0" style="stroke:#010101; fill:none;"/>
	<path d="M 226.0,626.0 L 225.0,627.0" style="stroke:#010101; fill:none;"/>
	<path d="M 249.0,626.0 L 249.0,627.0" style="stroke:#010101; fill:none;"/>
	<path d="M 269.0,626.0 L 266.0,627.0" style="stroke:#010101; fill:none;"/>
	<path d="M 201.0,627.0 C 197.148,633.952 189.893,640.893 197.0,648.0 C 198.238,649.238 199.982,651.544 201.944,651.556 C 205.237,651.574 202.58,647.889 202.0,647.0 L 201.0,649.0 L 202.0,650.0 L 203.0,651.0" style="stroke:#010101; fill:none;"/>
	<path d="M 214.0,627.0 L 216.0,627.0" style="stroke:#010101; fill:none;"/>
	<path d="M 511.0,668.0 C 522.587,649.528 538.042,632.204 560.0,627.0" style="stroke:#010101; fill:none;"/>
	<path d="M 567.0,628.0 L 576.0,627.0" style="stroke:#010101; fill:none;"/>
	<path d="M 194.0,628.0 L 192.0,643.0" style="stroke:#010101; fill:none;"/>
	<path d="M 202.0,628.0 L 205.0,629.0" style="stroke:#010101; fill:none;"/>
	<path d="M 250.0,628.0 C 254.937,633.651 275.124,635.07 282.0,633.0 L 268.0,632.0" style="stroke:#010101; fill:none;"/>
	<path d="M 259.0,630.0 L 265.0,628.0" style="stroke:#010101; fill:none;"/>
	<path d="M 267.0,628.0 L 269.0,630.0" style="stroke:#010101; fill:none;"/>
	<path d="M 281.0,628.0 C 295.658,632.159 312.373,635.017 325.0,644.0" style="stroke:#010101; fill:none;"/>
	<path d="M 205.0,629.0 L 203.0,632.0" style="stroke:#010101; fill:none;"/>
	<path d="M 216.0,633.0 L 224.0,632.0 L 225.0,633.0" style="stroke:#010101; fill:none;"/>
	<path d="M 223.0,629.0 L 225.0,629.0" style="stroke:#010101; fill:none;"/>
	<path d="M 218.0,630.0 L 220.0,630.0" style="stroke:#010101; fill:none;"/>
	<path d="M 229.0,630.0 L 227.0,632.0" style="stroke:#010101; fill:none;"/>
	<path d="M 210.0,650.0 L 212.0,650.0 C 218.358,640.009 230.631,632.949 242.0,630.0" style="stroke:#010101; fill:none;"/>
	<path d="M 280.0,630.0 L 281.0,630.0" style="stroke:#010101; fill:none;"/>
	<path d="M 259.0,632.0 L 252.0,637.0 L 249.0,631.0" style="stroke:#010101; fill:none;"/>
	<path d="M 203.0,632.0 L 202.0,638.0 L 205.0,633.0" style="stroke:#010101; fill:none;"/>
	<path d="M 211.0,632.0 L 208.0,636.0 C 211.113,637.811 211.887,637.811 215.0,636.0" style="stroke:#010101; fill:none;"/>
	<path d="M 211.0,632.0 L 214.0,633.0" style="stroke:#010101; fill:none;"/>
	<path d="M 220.0,632.0 L 222.0,634.0" style="stroke:#010101; fill:none;"/>
	<path d="M 238.0,633.0 L 247.0,632.0" style="stroke:#010101; fill:none;"/>
	<path d="M 278.0,632.0 C 280.186,639.013 288.803,642.235 295.0,645.0" style="stroke:#010101; fill:none;"/>
	<path d="M 230.0,633.0 L 233.0,633.0" style="stroke:#010101; fill:none;"/>
	<path d="M 268.0,633.0 C 266.089,639.471 278.476,639.643 283.0,640.0" style="stroke:#010101; fill:none;"/>
	<path d="M 282.0,633.0 C 293.126,634.115 308.879,639.563 318.0,646.0" style="stroke:#010101; fill:none;"/>
	<path d="M 212.0,634.0 L 205.0,642.0 L 208.0,639.0" style="stroke:#010101; fill:none;"/>
	<path d="M 249.0,634.0 L 247.0,636.0 L 251.0,638.0" style="stroke:#010101; fill:none;"/>
	<path d="M 253.0,634.0 L 255.0,634.0" style="stroke:#010101; fill:none;"/>
	<path d="M 257.0,635.0 L 266.0,635.0" style="stroke:#010101; fill:none;"/>
	<path d="M 287.0,648.0 C 279.62,644.296 268.201,641.642 259.961,641.054 C 253.679,640.605 247.333,642.54 243.0,637.0 L 247.0,637.0" style="stroke:#010101; fill:none;"/>
	<path d="M 201.0,637.0 L 200.0,641.0 L 201.0,639.0" style="stroke:#010101; fill:none;"/>
	<path d="M 245.0,640.0 C 241.245,642.467 239.062,643.071 235.0,641.0 L 243.0,637.0" style="stroke:#010101; fill:none;"/>
	<path d="M 247.0,637.0 L 245.0,639.0" style="stroke:#010101; fill:none;"/>
	<path d="M 719.0,637.0 L 701.0,646.0" style="stroke:#010101; fill:none;"/>
	<path d="M 217.0,638.0 L 211.0,640.0" style="stroke:#010101; fill:none;"/>
	<path d="M 233.0,639.0 L 233.0,641.0 L 237.0,639.0" style="stroke:#010101; fill:none;"/>
	<path d="M 285.0,640.0 L 312.0,648.0" style="stroke:#010101; fill:none;"/>
	<path d="M 235.0,639.0 L 235.0,641.0" style="stroke:#010101; fill:none;"/>
	<path d="M 265.0,640.0 L 270.0,639.0" style="stroke:#010101; fill:none;"/>
	<path d="M 527.0,639.0 L 519.0,647.0" style="stroke:#010101; fill:none;"/>
	<path d="M 235.0,643.0 C 232.381,643.414 226.362,642.474 231.0,640.0" style="stroke:#010101; fill:none;"/>
	<path d="M 240.0,640.0 L 242.0,640.0" style="stroke:#010101; fill:none;"/>
	<path d="M 562.0,648.0 C 564.249,641.16 578.72,641.687 585.0,641.061 C 610.762,638.493 631.934,651.483 657.0,652.0" style="stroke:#010101; fill:none;"/>
	<path d="M 198.0,641.0 L 206.0,642.0" style="stroke:#010101; fill:none;"/>
	<path d="M 229.0,642.0 L 224.0,644.0 L 228.0,641.0" style="stroke:#010101; fill:none;"/>
	<path d="M 189.0,642.0 L 191.0,647.0 L 192.0,645.0" style="stroke:#010101; fill:none;"/>
	<path d="M 198.0,642.0 L 196.0,646.0" style="stroke:#010101; fill:none;"/>
	<path d="M 206.0,644.0 L 211.0,644.0 C 208.854,645.694 203.475,648.563 203.0,645.0" style="stroke:#010101; fill:none;"/>
	<path d="M 215.0,643.0 L 217.0,642.0" style="stroke:#010101; fill:none;"/>
	<path d="M 223.0,645.0 L 224.0,642.0" style="stroke:#010101; fill:none;"/>
	<path d="M 608.0,642.0 L 610.0,646.0" style="stroke:#010101; fill:none;"/>
	<path d="M 211.0,645.0 L 215.0,643.0" style="stroke:#010101; fill:none;"/>
	<path d="M 218.0,643.0 L 221.0,643.0" style="stroke:#010101; fill:none;"/>
	<path d="M 614.0,643.0 L 616.0,647.0 L 617.0,643.0" style="stroke:#010101; fill:none;"/>
	<path d="M 199.0,644.0 L 198.0,645.0" style="stroke:#010101; fill:none;"/>
	<path d="M 222.0,644.0 L 214.0,648.0" style="stroke:#010101; fill:none;"/>
	<path d="M 242.0,644.0 L 284.0,650.0" style="stroke:#010101; fill:none;"/>
	<path d="M 209.0,645.0 L 210.0,645.0" style="stroke:#010101; fill:none;"/>
	<path d="M 211.0,645.0 L 212.0,647.0" style="stroke:#010101; fill:none;"/>
	<path d="M 555.0,653.0 C 554.981,647.675 556.63,645.602 562.0,645.0" style="stroke:#010101; fill:none;"/>
	<path d="M 570.0,645.0 C 563.412,659.885 568.937,680.723 588.0,682.0" style="stroke:#010101; fill:none;"/>
	<path d="M 587.0,664.0 C 587.12,661.249 587.407,658.649 588.22,656.0 C 588.975,653.542 590.207,647.558 592.588,646.213 C 596.476,644.016 601.824,649.574 602.472,653.004 C 603.565,658.788 597.906,662.897 593.0,664.196 C 589.977,664.996 587.033,664.375 584.0,664.0" style="stroke:#010101; fill:none;"/>
	<path d="M 209.0,646.0 L 211.0,648.0" style="stroke:#010101; fill:none;"/>
	<path d="M 582.0,648.0 L 591.0,646.0" style="stroke:#010101; fill:none;"/>
	<path d="M 188.0,647.0 L 194.0,650.0 L 191.0,648.0" style="stroke:#010101; fill:none;"/>
	<path d="M 196.0,647.0 L 194.0,649.0" style="stroke:#010101; fill:none;"/>
	<path d="M 208.0,647.0 L 208.0,649.0" style="stroke:#010101; fill:none;"/>
	<path d="M 206.0,660.0 C 213.405,655.77 223.566,649.399 232.0,647.934 C 243.517,645.935 267.644,649.803 278.0,655.0" style="stroke:#010101; fill:none;"/>
	<path d="M 545.0,658.0 C 544.978,651.893 547.992,648.959 554.0,648.0" style="stroke:#010101; fill:none;"/>
	<path d="M 616.0,647.0 L 617.0,663.0 C 622.406,659.098 625.401,653.642 626.0,647.0" style="stroke:#010101; fill:none;"/>
	<path d="M 187.0,649.0 C 187.557,652.55 188.277,654.275 192.0,654.0 L 188.0,654.0" style="stroke:#010101; fill:none;"/>
	<path d="M 685.0,651.0 L 691.0,649.0" style="stroke:#010101; fill:none;"/>
	<path d="M 190.0,650.0 L 190.0,652.0" style="stroke:#010101; fill:none;"/>
	<path d="M 205.0,651.0 L 207.0,650.0" style="stroke:#010101; fill:none;"/>
	<path d="M 551.0,651.0 L 551.0,654.0" style="stroke:#010101; fill:none;"/>
	<path d="M 663.0,652.0 L 677.0,652.0" style="stroke:#010101; fill:none;"/>
	<path d="M 193.0,652.0 L 192.0,653.0" style="stroke:#010101; fill:none;"/>
	<path d="M 199.0,652.0 L 197.0,658.0 L 197.0,654.0" style="stroke:#010101; fill:none;"/>
	<path d="M 204.0,653.0 L 206.0,652.0" style="stroke:#010101; fill:none;"/>
	<path d="M 536.0,657.0 L 536.0,655.0 L 535.0,656.0 L 544.0,653.0" style="stroke:#010101; fill:none;"/>
	<path d="M 681.0,655.0 L 687.0,653.0" style="stroke:#010101; fill:none;"/>
	<path d="M 186.0,654.0 L 187.0,662.0 L 190.0,656.0" style="stroke:#010101; fill:none;"/>
	<path d="M 522.0,672.0 L 535.0,656.0" style="stroke:#010101; fill:none;"/>
	<path d="M 543.0,656.0 L 542.0,659.0" style="stroke:#010101; fill:none;"/>
	<path d="M 642.0,656.0 L 648.0,657.0" style="stroke:#010101; fill:none;"/>
	<path d="M 652.0,659.0 L 677.0,657.0" style="stroke:#010101; fill:none;"/>
	<path d="M 537.0,658.0 C 532.351,672.515 531.271,683.546 544.0,694.0 L 518.0,705.0 C 512.693,691.807 525.468,671.348 534.0,662.0" style="stroke:#010101; fill:none;"/>
	<path d="M 195.0,660.0 L 193.0,663.0 L 194.0,661.0" style="stroke:#010101; fill:none;"/>
	<path d="M 184.0,661.0 L 185.0,665.0 L 187.0,663.0" style="stroke:#010101; fill:none;"/>
	<path d="M 523.0,662.0 L 510.0,686.0" style="stroke:#010101; fill:none;"/>
	<path d="M 191.0,663.0 L 193.0,664.0" style="stroke:#010101; fill:none;"/>
	<path d="M 617.0,663.0 C 598.852,683.716 571.979,693.0 545.0,694.0" style="stroke:#010101; fill:none;"/>
	<path d="M 177.0,665.0 L 178.0,684.0 L 184.0,681.0 L 179.0,678.0" style="stroke:#010101; fill:none;"/>
	<path d="M 183.0,665.0 L 184.0,668.0 L 185.0,665.0" style="stroke:#010101; fill:none;"/>
	<path d="M 532.0,665.0 L 534.0,667.0" style="stroke:#010101; fill:none;"/>
	<path d="M 190.0,666.0 L 187.0,674.0 L 183.0,670.0 C 182.917,672.8 183.2,673.264 186.0,673.0" style="stroke:#010101; fill:none;"/>
	<path d="M 189.0,672.0 L 189.0,668.0" style="stroke:#010101; fill:none;"/>
	<path d="M 655.0,668.0 L 651.0,673.0" style="stroke:#010101; fill:none;"/>
	<path d="M 183.0,669.0 L 183.0,670.0" style="stroke:#010101; fill:none;"/>
	<path d="M 187.0,670.0 L 185.0,672.0" style="stroke:#010101; fill:none;"/>
	<path d="M 619.0,670.0 L 616.0,672.0" style="stroke:#010101; fill:none;"/>
	<path d="M 623.0,673.0 L 623.0,675.0" style="stroke:#010101; fill:none;"/>
	<path d="M 181.0,674.0 L 181.0,677.0" style="stroke:#010101; fill:none;"/>
	<path d="M 187.0,675.0 L 184.0,680.0" style="stroke:#010101; fill:none;"/>
	<path d="M 184.0,676.0 L 182.0,678.0" style="stroke:#010101; fill:none;"/>
	<path d="M 261.0,685.0 C 276.059,675.423 299.036,674.122 316.0,678.0" style="stroke:#010101; fill:none;"/>
	<path d="M 644.0,677.0 L 648.0,676.0" style="stroke:#010101; fill:none;"/>
	<path d="M 616.0,678.0 L 619.0,677.0" style="stroke:#010101; fill:none;"/>
	<path d="M 182.0,680.0 L 182.0,681.0" style="stroke:#010101; fill:none;"/>
	<path d="M 649.0,680.0 C 649.164,684.61 646.434,687.148 643.0,690.0" style="stroke:#010101; fill:none;"/>
	<path d="M 369.0,681.0 L 397.7,702.039 L 409.0,726.0" style="stroke:#010101; fill:none;"/>
	<path d="M 597.0,690.0 L 615.0,681.0" style="stroke:#010101; fill:none;"/>
	<path d="M 183.0,682.0 L 179.0,704.0" style="stroke:#010101; fill:none;"/>
	<path d="M 638.0,682.0 L 639.0,682.0" style="stroke:#010101; fill:none;"/>
	<path d="M 178.0,684.0 L 178.0,690.0" style="stroke:#010101; fill:none;"/>
	<path d="M 648.0,691.0 L 660.0,697.0" style="stroke:#010101; fill:none;"/>
	<path d="M 568.0,703.0 L 590.0,695.0" style="stroke:#010101; fill:none;"/>
	<path d="M 245.0,700.0 L 232.0,722.0" style="stroke:#010101; fill:none;"/>
	<path d="M 651.0,701.0 L 652.0,701.0" style="stroke:#010101; fill:none;"/>
	<path d="M 666.0,701.0 L 685.0,706.0" style="stroke:#010101; fill:none;"/>
	<path d="M 272.0,712.0 L 306.0,706.0" style="stroke:#010101; fill:none;"/>
	<path d="M 551.0,709.0 L 556.0,706.0" style="stroke:#010101; fill:none;"/>
	<path d="M 641.0,710.0 L 647.0,707.0" style="stroke:#010101; fill:none;"/>
	<path d="M 702.0,710.0 L 717.0,712.0" style="stroke:#010101; fill:none;"/>
	<path d="M 283.0,717.0 C 305.353,703.974 335.238,715.632 353.0,731.0" style="stroke:#010101; fill:none;"/>
	<path d="M 626.0,712.0 L 631.0,711.0" style="stroke:#010101; fill:none;"/>
	<path d="M 549.0,718.0 L 582.0,717.089 L 625.0,714.0" style="stroke:#010101; fill:none;"/>
	<path d="M 647.0,714.0 L 649.0,726.0" style="stroke:#010101; fill:none;"/>
	<path d="M 320.0,721.0 L 323.0,721.0 L 323.0,722.0 C 316.853,720.533 303.939,718.466 298.279,722.028 C 290.943,726.643 292.11,743.761 295.995,749.999 C 300.504,757.241 307.942,759.241 315.0,763.0 C 301.366,770.314 283.274,768.244 269.0,764.522 C 264.465,763.34 254.804,760.887 254.511,754.961 C 254.28,750.291 259.791,745.716 263.039,743.13 C 272.438,735.65 284.769,727.322 296.0,723.0" style="stroke:#010101; fill:none;"/>
	<path d="M 264.0,720.0 C 253.368,726.301 247.348,734.631 241.0,745.0" style="stroke:#010101; fill:none;"/>
	<path d="M 269.0,729.0 L 284.0,722.0" style="stroke:#010101; fill:none;"/>
	<path d="M 324.0,723.0 L 347.0,731.0" style="stroke:#010101; fill:none;"/>
	<path d="M 293.0,725.0 L 295.0,727.0" style="stroke:#010101; fill:none;"/>
	<path d="M 331.0,734.0 C 327.767,743.324 321.705,748.094 312.0,744.0 C 315.867,738.699 318.851,733.733 317.0,727.0 C 322.104,725.954 324.728,728.252 328.0,732.0" style="stroke:#010101; fill:none;"/>
	<path d="M 312.0,728.0 L 317.0,727.0" style="stroke:#010101; fill:none;"/>
	<path d="M 409.0,731.0 L 409.0,816.0" style="stroke:#010101; fill:none;"/>
	<path d="M 629.0,737.0 L 643.0,731.0" style="stroke:#010101; fill:none;"/>
	<path d="M 348.0,732.0 C 353.912,734.274 364.116,739.719 366.0,746.0" style="stroke:#010101; fill:none;"/>
	<path d="M 346.0,733.0 L 343.0,750.0 L 315.0,763.0" style="stroke:#010101; fill:none;"/>
	<path d="M 652.0,733.0 L 652.0,734.0" style="stroke:#010101; fill:none;"/>
	<path d="M 664.0,735.0 L 667.0,735.0" style="stroke:#010101; fill:none;"/>
	<path d="M 312.0,744.0 L 312.0,741.0" style="stroke:#010101; fill:none;"/>
	<path d="M 648.0,744.0 L 645.0,765.0" style="stroke:#010101; fill:none;"/>
	<path d="M 343.0,750.0 L 368.0,749.0" style="stroke:#010101; fill:none;"/>
	<path d="M 223.0,795.0 L 243.12,776.996 L 253.0,755.0" style="stroke:#010101; fill:none;"/>
	<path d="M 338.0,759.0 L 359.0,755.0" style="stroke:#010101; fill:none;"/>
	<path d="M 329.0,764.0 L 331.0,764.0" style="stroke:#010101; fill:none;"/>
	<path d="M 251.0,769.0 L 250.0,778.0" style="stroke:#010101; fill:none;"/>
	<path d="M 304.0,773.0 L 314.0,770.0" style="stroke:#010101; fill:none;"/>
	<path d="M 267.0,774.0 L 294.0,778.0" style="stroke:#010101; fill:none;"/>
	<path d="M 350.0,780.0 C 329.588,796.199 310.733,812.448 284.0,814.0" style="stroke:#010101; fill:none;"/>
	<path d="M 253.0,787.0 L 264.0,800.0" style="stroke:#010101; fill:none;"/>
	<path d="M 503.0,877.0 C 504.908,867.543 514.905,862.253 524.0,862.015 C 540.585,861.581 558.185,864.11 573.0,872.0" style="stroke:#010101; fill:none;"/>
	<path d="M 414.0,866.0 C 412.111,871.975 412.438,877.867 411.715,884.0 C 409.321,904.284 404.993,940.569 423.001,954.606 C 435.29,964.186 453.385,963.0 468.0,963.0" style="stroke:#010101; fill:none;"/>
	<path d="M 405.0,877.0 L 401.0,904.0" style="stroke:#010101; fill:none;"/>
	<path d="M 582.0,884.0 C 589.985,899.179 597.096,921.94 584.61,936.957 C 577.606,945.38 558.615,951.432 548.0,953.0" style="stroke:#010101; fill:none;"/>
	<path d="M 627.0,903.0 L 644.0,916.0" style="stroke:#010101; fill:none;"/>
	<path d="M 401.0,912.0 C 398.099,922.052 390.445,929.804 387.439,940.0 C 378.039,971.884 404.438,982.703 430.0,989.0" style="stroke:#010101; fill:none;"/>
	<path d="M 476.0,955.0 C 484.251,946.771 493.406,939.946 504.0,935.0" style="stroke:#010101; fill:none;"/>
	<path d="M 492.0,965.0 C 498.624,944.256 528.007,931.382 548.0,937.0" style="stroke:#010101; fill:none;"/>
	<path d="M 239.0,952.0 C 256.866,979.086 276.195,1006.48 291.691,1035.0 C 312.624,1073.52 330.913,1112.75 360.184,1146.0 C 377.105,1165.22 396.634,1184.14 418.0,1198.4 C 431.774,1207.6 446.93,1214.04 459.576,1225.13 C 483.712,1246.3 502.512,1274.51 530.0,1291.77 C 554.935,1307.43 588.703,1309.02 617.0,1304.56 C 660.438,1297.72 696.446,1270.3 730.0,1243.8 C 744.474,1232.37 759.416,1221.51 773.0,1209.0" style="stroke:#010101; fill:none;"/>
	<path d="M 687.0,970.0 C 698.448,985.025 715.516,993.649 724.0,1011.0" style="stroke:#010101; fill:none;"/>
	<path d="M 426.0,977.0 C 421.167,979.565 417.769,978.949 414.0,975.0 C 422.021,971.353 434.423,977.085 441.0,982.0" style="stroke:#010101; fill:none;"/>
	<path d="M 475.0,982.0 L 505.0,975.0" style="stroke:#010101; fill:none;"/>
	<path d="M 434.0,991.0 L 446.0,988.0" style="stroke:#010101; fill:none;"/>
	<path d="M 631.0,992.0 L 631.0,993.0" style="stroke:#010101; fill:none;"/>
	<path d="M 258.0,994.0 L 259.0,1001.0" style="stroke:#010101; fill:none;"/>
	<path d="M 650.0,994.0 L 649.0,995.0" style="stroke:#010101; fill:none;"/>
	<path d="M 558.0,997.0 L 558.0,998.0" style="stroke:#010101; fill:none;"/>
	<path d="M 654.0,1002.0 L 653.0,1003.0" style="stroke:#010101; fill:none;"/>
	<path d="M 638.0,1003.0 L 639.0,1004.0" style="stroke:#010101; fill:none;"/>
	<path d="M 646.0,1003.0 L 646.0,1005.0" style="stroke:#010101; fill:none;"/>
	<path d="M 465.0,1010.0 L 464.0,1011.0" style="stroke:#010101; fill:none;"/>
	<path d="M 557.0,1011.0 L 556.0,1012.0" style="stroke:#010101; fill:none;"/>
	<path d="M 561.0,1012.0 L 561.0,1013.0" style="stroke:#010101; fill:none;"/>
	<path d="M 725.0,1013.0 C 732.078,1031.35 733.16,1045.7 733.0,1065.0" style="stroke:#010101; fill:none;"/>
	<path d="M 464.0,1020.0 L 467.0,1019.0" style="stroke:#010101; fill:none;"/>
	<path d="M 684.0,1023.0 L 685.0,1023.0" style="stroke:#010101; fill:none;"/>
	<path d="M 458.0,1024.0 L 459.0,1024.0" style="stroke:#010101; fill:none;"/>
	<path d="M 468.0,1029.0 L 469.0,1029.0" style="stroke:#010101; fill:none;"/>
	<path d="M 695.0,1029.0 L 695.0,1030.0" style="stroke:#010101; fill:none;"/>
	<path d="M 552.0,1041.0 C 563.797,1032.97 578.494,1034.55 592.0,1033.96 C 605.052,1033.39 618.039,1031.64 631.0,1030.0" style="stroke:#010101; fill:none;"/>
	<path d="M 570.0,1067.0 L 570.0,1064.0 C 579.842,1069.31 599.046,1053.41 607.0,1048.69 C 611.754,1045.86 617.825,1045.21 623.0,1043.3 C 639.061,1037.4 658.507,1030.54 676.0,1032.0" style="stroke:#010101; fill:none;"/>
	<path d="M 690.0,1033.0 L 702.0,1038.0" style="stroke:#010101; fill:none;"/>
	<path d="M 451.0,1034.0 L 452.0,1034.0" style="stroke:#010101; fill:none;"/>
	<path d="M 441.0,1040.0 L 442.0,1040.0" style="stroke:#010101; fill:none;"/>
	<path d="M 450.0,1043.0 L 451.0,1043.0" style="stroke:#010101; fill:none;"/>
	<path d="M 550.0,1044.0 C 539.306,1054.66 526.807,1064.18 511.0,1063.98 C 504.17,1063.9 497.767,1061.31 491.0,1061.0" style="stroke:#010101; fill:none;"/>
	<path d="M 604.0,1050.0 L 605.0,1047.0" style="stroke:#010101; fill:none;"/>
	<path d="M 570.0,1064.0 C 579.702,1054.5 589.602,1049.8 603.0,1048.0" style="stroke:#010101; fill:none;"/>
	<path d="M 573.0,1062.0 L 575.0,1064.0" style="stroke:#010101; fill:none;"/>
	<path d="M 444.0,1098.0 C 448.457,1082.63 461.346,1065.97 478.0,1063.0" style="stroke:#010101; fill:none;"/>
	<path d="M 425.0,1064.0 L 426.0,1064.0" style="stroke:#010101; fill:none;"/>
	<path d="M 535.0,1079.0 C 532.032,1079.5 531.323,1079.99 531.0,1083.0 L 568.0,1067.0" style="stroke:#010101; fill:none;"/>
	<path d="M 735.0,1068.0 L 734.0,1079.0" style="stroke:#010101; fill:none;"/>
	<path d="M 422.0,1077.0 L 422.0,1078.0" style="stroke:#010101; fill:none;"/>
	<path d="M 482.0,1081.0 L 483.0,1085.0 C 479.394,1078.63 489.946,1081.22 493.0,1081.32 C 504.942,1081.71 518.247,1082.18 530.0,1080.0" style="stroke:#010101; fill:none;"/>
	<path d="M 486.0,1081.0 L 484.0,1083.0" style="stroke:#010101; fill:none;"/>
	<path d="M 492.0,1082.0 L 483.0,1091.0 C 492.078,1095.79 499.377,1090.7 504.0,1083.0" style="stroke:#010101; fill:none;"/>
	<path d="M 511.0,1082.0 L 510.0,1086.0 C 515.281,1087.45 524.854,1086.99 528.0,1082.0" style="stroke:#010101; fill:none;"/>
	<path d="M 500.0,1083.0 L 491.0,1091.0" style="stroke:#010101; fill:none;"/>
	<path d="M 481.0,1084.0 C 479.184,1087.54 479.429,1089.09 483.0,1091.0" style="stroke:#010101; fill:none;"/>
	<path d="M 528.0,1084.0 L 530.0,1084.0" style="stroke:#010101; fill:none;"/>
	<path d="M 510.0,1086.0 L 501.0,1090.0" style="stroke:#010101; fill:none;"/>
	<path d="M 455.0,1107.0 L 478.0,1088.0" style="stroke:#010101; fill:none;"/>
	<path d="M 498.0,1089.0 L 500.0,1088.0" style="stroke:#010101; fill:none;"/>
	<path d="M 524.0,1141.0 C 534.309,1140.53 543.684,1134.23 553.0,1130.28 C 579.783,1118.95 601.857,1103.95 626.0,1088.0" style="stroke:#010101; fill:none;"/>
	<path d="M 407.0,1103.0 C 407.0,1134.52 432.038,1150.26 451.0,1172.0" style="stroke:#010101; fill:none;"/>
	<path d="M 733.0,1103.0 L 725.0,1118.0" style="stroke:#010101; fill:none;"/>
	<path d="M 606.0,1121.0 L 623.0,1110.0" style="stroke:#010101; fill:none;"/>
	<path d="M 554.0,1143.0 L 588.0,1130.0" style="stroke:#010101; fill:none;"/>
	<path d="M 486.0,1132.0 C 488.839,1142.02 501.174,1142.99 510.0,1143.0" style="stroke:#010101; fill:none;"/>
	<path d="M 546.0,1145.0 L 552.0,1144.0" style="stroke:#010101; fill:none;"/>
	<path d="M 341.0,1167.0 L 342.0,1168.0" style="stroke:#010101; fill:none;"/>
	<path d="M 660.0,1292.0 C 685.903,1317.9 715.725,1338.28 738.906,1367.0 C 747.635,1377.82 759.565,1390.6 761.0,1405.0" style="stroke:#010101; fill:none;"/>
	<path d="M 687.0,1325.0 L 685.0,1326.0" style="stroke:#010101; fill:none;"/>
	<path d="M 690.0,1332.0 L 692.0,1348.0" style="stroke:#010101; fill:none;"/>
	<path d="M 693.0,1368.0 C 701.36,1412.37 711.815,1461.9 739.0,1499.0" style="stroke:#010101; fill:none;"/>
	<path d="M 744.0,1375.0 C 739.569,1383.3 742.968,1395.94 743.83,1405.0 C 745.822,1425.93 747.603,1447.01 749.0,1468.0" style="stroke:#010101; fill:none;"/>
	<path d="M 223.0,1487.0 L 223.0,1488.0" style="stroke:#010101; fill:none;"/>
	<path d="M 588.0,1499.0 L 601.0,1499.0" style="stroke:#010101; fill:none;"/>
</svg>
