<?xml version="1.0" ?>
<svg baseProfile="full" height="1406" version="1.1" width="1150" xmlns="http://www.w3.org/2000/svg" xmlns:ev="http://www.w3.org/2001/xml-events" xmlns:xlink="http://www.w3.org/1999/xlink">
	<defs/>
	<path d="M 673.0,445.0 L 701.0,439.0" style="stroke:#010101; fill:none;"/>
	<path d="M 755.0,443.0 C 772.278,460.422 787.23,479.968 805.0,496.961 C 831.655,522.448 859.704,545.118 883.0,574.0" style="stroke:#010101; fill:none;"/>
	<path d="M 698.0,452.0 C 715.199,452.264 739.859,451.046 756.0,445.0" style="stroke:#010101; fill:none;"/>
	<path d="M 704.0,453.0 L 728.0,461.0" style="stroke:#010101; fill:none;"/>
	<path d="M 654.0,458.0 L 683.0,458.831 L 743.0,470.0" style="stroke:#010101; fill:none;"/>
	<path d="M 635.0,478.0 C 624.369,493.555 608.701,497.725 593.0,506.0" style="stroke:#010101; fill:none;"/>
	<path d="M 623.0,509.0 C 640.975,502.218 662.165,503.38 681.0,501.0" style="stroke:#010101; fill:none;"/>
	<path d="M 602.0,523.0 L 633.0,512.175 L 676.0,505.0" style="stroke:#010101; fill:none;"/>
	<path d="M 636.0,511.0 L 638.0,510.0" style="stroke:#010101; fill:none;"/>
	<path d="M 630.0,512.0 L 632.0,513.0" style="stroke:#010101; fill:none;"/>
	<path d="M 609.0,518.0 L 630.0,512.0" style="stroke:#010101; fill:none;"/>
	<path d="M 636.0,512.0 L 633.0,514.0" style="stroke:#010101; fill:none;"/>
	<path d="M 607.0,538.0 L 623.0,530.861 L 668.0,512.0" style="stroke:#010101; fill:none;"/>
	<path d="M 559.0,533.0 L 599.0,528.718 L 650.0,515.0" style="stroke:#010101; fill:none;"/>
	<path d="M 578.0,565.0 L 574.0,565.0 L 587.0,561.0 C 589.614,553.602 596.98,551.679 603.0,547.623 C 618.649,537.078 636.06,527.107 654.0,521.0" style="stroke:#010101; fill:none;"/>
	<path d="M 599.0,533.0 L 595.0,534.0" style="stroke:#010101; fill:none;"/>
	<path d="M 548.0,538.0 L 592.0,535.0" style="stroke:#010101; fill:none;"/>
	<path d="M 602.0,541.0 L 606.0,540.0 L 588.0,551.567 L 530.0,551.0" style="stroke:#010101; fill:none;"/>
	<path d="M 600.0,542.0 L 602.0,541.0" style="stroke:#010101; fill:none;"/>
	<path d="M 596.0,544.0 L 600.0,542.0" style="stroke:#010101; fill:none;"/>
	<path d="M 536.0,546.0 L 592.0,544.0" style="stroke:#010101; fill:none;"/>
	<path d="M 604.0,549.0 L 616.0,544.0" style="stroke:#010101; fill:none;"/>
	<path d="M 588.0,560.0 L 616.0,548.0" style="stroke:#010101; fill:none;"/>
	<path d="M 611.0,564.0 L 590.0,574.0 L 590.0,570.0 L 578.0,573.0 L 612.0,555.0" style="stroke:#010101; fill:none;"/>
	<path d="M 524.0,557.0 L 564.0,558.0" style="stroke:#010101; fill:none;"/>
	<path d="M 568.0,558.0 L 571.0,557.0" style="stroke:#010101; fill:none;"/>
	<path d="M 586.0,558.0 L 584.0,560.0" style="stroke:#010101; fill:none;"/>
	<path d="M 590.0,570.0 L 612.0,559.0" style="stroke:#010101; fill:none;"/>
	<path d="M 508.0,568.0 L 546.0,563.0" style="stroke:#010101; fill:none;"/>
	<path d="M 544.0,614.0 L 550.75,602.0 L 567.778,576.0 L 574.0,565.0" style="stroke:#010101; fill:none;"/>
	<path d="M 526.0,607.0 C 538.524,592.619 553.096,574.863 571.0,567.0" style="stroke:#010101; fill:none;"/>
	<path d="M 576.0,567.0 L 574.0,569.0" style="stroke:#010101; fill:none;"/>
	<path d="M 498.0,585.0 L 534.0,571.0" style="stroke:#010101; fill:none;"/>
	<path d="M 543.0,612.0 C 546.245,598.339 555.771,579.173 569.0,573.0" style="stroke:#010101; fill:none;"/>
	<path d="M 574.0,574.0 L 578.0,574.0" style="stroke:#010101; fill:none;"/>
	<path d="M 578.0,574.0 C 563.903,588.107 552.478,606.315 545.425,625.0 C 543.018,631.377 539.283,639.187 541.0,646.0 L 548.0,629.0 L 548.0,630.0 L 548.0,631.0 L 549.0,632.0" style="stroke:#010101; fill:none;"/>
	<path d="M 589.0,574.0 C 584.12,580.218 580.967,588.073 575.402,593.742 C 573.371,595.811 570.395,596.222 568.349,598.258 C 565.79,600.803 565.778,602.945 567.0,606.0 L 573.0,598.0" style="stroke:#010101; fill:none;"/>
	<path d="M 580.0,576.0 C 573.481,585.075 556.642,601.205 558.0,613.0 L 565.0,604.0" style="stroke:#010101; fill:none;"/>
	<path d="M 596.0,576.0 L 571.0,619.0" style="stroke:#010101; fill:none;"/>
	<path d="M 564.0,577.0 L 566.0,579.0" style="stroke:#010101; fill:none;"/>
	<path d="M 592.0,577.0 C 582.127,589.844 572.42,605.102 566.0,620.0" style="stroke:#010101; fill:none;"/>
	<path d="M 583.0,584.0 L 584.0,580.0" style="stroke:#010101; fill:none;"/>
	<path d="M 578.0,590.0 C 576.918,586.878 577.276,584.472 581.0,585.0" style="stroke:#010101; fill:none;"/>
	<path d="M 594.0,583.0 L 579.0,611.0" style="stroke:#010101; fill:none;"/>
	<path d="M 578.0,586.0 L 580.0,588.0" style="stroke:#010101; fill:none;"/>
	<path d="M 666.0,596.0 C 667.21,602.614 667.481,613.504 658.0,611.0 C 660.609,606.112 658.116,599.708 660.889,595.34 C 666.473,586.545 685.9,586.006 695.0,586.0" style="stroke:#010101; fill:none;"/>
	<path d="M 655.0,587.0 L 660.0,595.0" style="stroke:#010101; fill:none;"/>
	<path d="M 703.0,587.0 L 704.0,587.0" style="stroke:#010101; fill:none;"/>
	<path d="M 576.0,588.0 L 572.0,596.0" style="stroke:#010101; fill:none;"/>
	<path d="M 575.0,590.0 L 577.0,592.0" style="stroke:#010101; fill:none;"/>
	<path d="M 712.0,590.0 C 709.907,597.114 703.738,606.994 696.0,608.971 C 691.713,610.067 688.104,607.048 684.0,606.722 C 677.162,606.179 672.324,608.348 666.0,610.0" style="stroke:#010101; fill:none;"/>
	<path d="M 640.0,591.0 L 658.0,611.0" style="stroke:#010101; fill:none;"/>
	<path d="M 716.0,592.0 C 715.637,598.996 712.446,603.751 707.0,608.0" style="stroke:#010101; fill:none;"/>
	<path d="M 689.0,593.0 C 686.809,597.39 685.066,600.211 680.0,601.0 L 681.0,594.0" style="stroke:#010101; fill:none;"/>
	<path d="M 523.0,653.0 C 523.763,635.233 529.928,605.127 545.0,594.0" style="stroke:#010101; fill:none;"/>
	<path d="M 700.0,594.0 L 700.0,595.0" style="stroke:#010101; fill:none;"/>
	<path d="M 651.0,601.0 L 659.0,596.0" style="stroke:#010101; fill:none;"/>
	<path d="M 904.0,596.0 C 926.251,629.626 941.693,667.121 963.459,701.0 C 971.745,713.897 977.35,726.678 989.0,737.0" style="stroke:#010101; fill:none;"/>
	<path d="M 636.0,597.0 L 642.0,607.0 L 648.0,601.0" style="stroke:#010101; fill:none;"/>
	<path d="M 675.0,597.0 L 673.0,604.0 L 672.0,600.0" style="stroke:#010101; fill:none;"/>
	<path d="M 698.0,598.0 C 696.303,602.088 694.398,603.505 690.0,604.0 L 693.0,600.0" style="stroke:#010101; fill:none;"/>
	<path d="M 476.0,606.0 L 513.0,599.0" style="stroke:#010101; fill:none;"/>
	<path d="M 680.0,601.0 L 676.0,606.0" style="stroke:#010101; fill:none;"/>
	<path d="M 541.0,603.0 C 534.659,613.905 526.285,636.618 531.0,649.0 L 530.0,650.0 L 529.0,648.0" style="stroke:#010101; fill:none;"/>
	<path d="M 673.0,604.0 L 673.0,606.0" style="stroke:#010101; fill:none;"/>
	<path d="M 698.0,604.0 L 701.0,605.0" style="stroke:#010101; fill:none;"/>
	<path d="M 636.0,605.0 C 638.175,609.394 641.233,608.953 644.776,611.682 C 648.14,614.273 649.033,618.619 653.018,620.686 C 661.978,625.333 671.408,624.579 678.61,633.09 C 685.087,640.746 687.686,654.254 685.61,664.0 C 684.56,668.93 681.342,672.917 681.0,678.0 C 695.921,667.01 701.072,646.374 703.05,629.0 C 703.93,621.273 706.247,613.97 699.0,609.0" style="stroke:#010101; fill:none;"/>
	<path d="M 687.0,606.0 L 689.0,605.0" style="stroke:#010101; fill:none;"/>
	<path d="M 630.0,606.0 C 632.801,610.321 634.776,612.091 640.0,612.0" style="stroke:#010101; fill:none;"/>
	<path d="M 530.0,607.0 C 517.915,624.768 511.211,643.768 518.0,665.0" style="stroke:#010101; fill:none;"/>
	<path d="M 567.0,607.0 C 562.995,613.044 560.924,615.059 554.0,617.0 L 554.0,618.0 L 556.0,618.0" style="stroke:#010101; fill:none;"/>
	<path d="M 642.0,607.0 L 642.0,609.0" style="stroke:#010101; fill:none;"/>
	<path d="M 723.0,608.0 L 716.0,616.0 L 723.0,615.0" style="stroke:#010101; fill:none;"/>
	<path d="M 652.0,609.0 C 653.403,613.818 655.833,614.693 660.0,612.0" style="stroke:#010101; fill:none;"/>
	<path d="M 654.0,609.0 L 654.0,612.0" style="stroke:#010101; fill:none;"/>
	<path d="M 460.0,616.0 C 467.501,614.511 483.44,609.549 490.0,614.0" style="stroke:#010101; fill:none;"/>
	<path d="M 557.0,612.0 L 555.0,616.0" style="stroke:#010101; fill:none;"/>
	<path d="M 558.0,613.0 L 558.0,615.0" style="stroke:#010101; fill:none;"/>
	<path d="M 638.0,613.0 C 635.588,617.557 639.122,621.51 636.793,626.0 C 633.448,632.449 626.807,637.021 622.885,643.129 C 609.712,663.646 601.41,688.55 607.374,713.0 C 608.433,717.34 608.643,723.989 611.303,727.663 C 615.356,733.26 622.987,720.688 625.439,718.259 C 634.414,709.369 647.09,703.592 658.0,697.424 C 664.377,693.82 671.45,691.439 674.0,684.0 C 666.05,684.992 659.153,690.028 651.0,690.801 C 626.41,693.133 626.821,667.653 619.0,653.0" style="stroke:#010101; fill:none;"/>
	<path d="M 641.0,613.0 L 638.0,619.0" style="stroke:#010101; fill:none;"/>
	<path d="M 651.0,613.0 L 654.0,615.0" style="stroke:#010101; fill:none;"/>
	<path d="M 627.0,614.0 L 637.0,626.0" style="stroke:#010101; fill:none;"/>
	<path d="M 629.0,617.0 L 634.0,614.0" style="stroke:#010101; fill:none;"/>
	<path d="M 449.0,622.0 L 482.0,621.568 L 499.0,615.0" style="stroke:#010101; fill:none;"/>
	<path d="M 609.0,615.0 C 615.463,623.005 615.888,632.141 625.0,621.0 L 633.0,630.0" style="stroke:#010101; fill:none;"/>
	<path d="M 542.0,616.0 L 531.0,647.0" style="stroke:#010101; fill:none;"/>
	<path d="M 652.0,616.0 L 650.0,618.0" style="stroke:#010101; fill:none;"/>
	<path d="M 716.0,616.0 L 713.0,621.0" style="stroke:#010101; fill:none;"/>
	<path d="M 560.0,617.0 L 552.0,628.0" style="stroke:#010101; fill:none;"/>
	<path d="M 628.0,618.0 L 626.0,621.0" style="stroke:#010101; fill:none;"/>
	<path d="M 553.0,619.0 L 555.0,620.0" style="stroke:#010101; fill:none;"/>
	<path d="M 650.0,619.0 L 639.0,624.0" style="stroke:#010101; fill:none;"/>
	<path d="M 553.0,620.0 L 549.0,628.0" style="stroke:#010101; fill:none;"/>
	<path d="M 552.0,621.0 L 556.0,625.0" style="stroke:#010101; fill:none;"/>
	<path d="M 555.0,621.0 L 557.0,623.0" style="stroke:#010101; fill:none;"/>
	<path d="M 716.0,625.0 L 723.0,621.0" style="stroke:#010101; fill:none;"/>
	<path d="M 480.0,622.0 L 423.0,644.0" style="stroke:#010101; fill:none;"/>
	<path d="M 617.0,623.0 C 621.237,628.506 624.248,631.004 630.0,626.0" style="stroke:#010101; fill:none;"/>
	<path d="M 553.0,624.0 L 552.0,626.0" style="stroke:#010101; fill:none;"/>
	<path d="M 618.0,625.0 L 616.0,627.0" style="stroke:#010101; fill:none;"/>
	<path d="M 512.0,628.0 C 507.433,643.449 513.515,661.935 517.0,677.0" style="stroke:#010101; fill:none;"/>
	<path d="M 631.0,628.0 L 630.0,633.0" style="stroke:#010101; fill:none;"/>
	<path d="M 715.0,637.0 L 711.0,638.0 C 712.46,632.907 716.399,630.292 721.0,628.0" style="stroke:#010101; fill:none;"/>
	<path d="M 618.0,629.0 C 614.342,632.823 607.628,638.608 606.458,643.956 C 605.004,650.6 615.007,648.595 618.0,647.0 L 609.0,641.0" style="stroke:#010101; fill:none;"/>
	<path d="M 501.0,631.0 C 497.634,642.387 502.308,657.988 508.0,668.0 L 507.0,631.0" style="stroke:#010101; fill:none;"/>
	<path d="M 611.0,631.0 L 613.0,633.0" style="stroke:#010101; fill:none;"/>
	<path d="M 625.0,631.0 L 628.0,637.0" style="stroke:#010101; fill:none;"/>
	<path d="M 547.0,632.0 L 547.0,633.0" style="stroke:#010101; fill:none;"/>
	<path d="M 614.0,633.0 L 624.0,640.0" style="stroke:#010101; fill:none;"/>
	<path d="M 548.0,634.0 L 549.0,637.0" style="stroke:#010101; fill:none;"/>
	<path d="M 598.0,638.0 L 605.0,645.0" style="stroke:#010101; fill:none;"/>
	<path d="M 708.0,641.0 L 708.0,642.0" style="stroke:#010101; fill:none;"/>
	<path d="M 704.0,649.0 L 710.0,644.0" style="stroke:#010101; fill:none;"/>
	<path d="M 447.0,645.0 L 449.0,645.0" style="stroke:#010101; fill:none;"/>
	<path d="M 436.0,647.0 L 444.0,646.0" style="stroke:#010101; fill:none;"/>
	<path d="M 605.0,646.0 C 598.614,655.049 590.771,674.953 607.0,675.0" style="stroke:#010101; fill:none;"/>
	<path d="M 644.268,647.068 C 652.313,642.384 665.108,658.871 654.981,664.986 C 645.997,670.41 637.615,650.941 644.268,647.068" style="stroke:#010101; fill:none;"/>
	<path d="M 618.0,647.0 L 620.0,647.0" style="stroke:#010101; fill:none;"/>
	<path d="M 452.0,649.0 C 437.238,658.767 418.525,661.855 401.0,662.0" style="stroke:#010101; fill:none;"/>
	<path d="M 530.0,650.0 L 529.0,658.0" style="stroke:#010101; fill:none;"/>
	<path d="M 702.0,654.0 L 710.0,651.0" style="stroke:#010101; fill:none;"/>
	<path d="M 522.0,655.0 L 523.0,670.0" style="stroke:#010101; fill:none;"/>
	<path d="M 591.0,659.0 L 598.0,661.0" style="stroke:#010101; fill:none;"/>
	<path d="M 528.0,660.0 L 528.0,664.0" style="stroke:#010101; fill:none;"/>
	<path d="M 599.0,662.0 L 613.0,660.0" style="stroke:#010101; fill:none;"/>
	<path d="M 700.0,662.0 L 711.0,660.0" style="stroke:#010101; fill:none;"/>
	<path d="M 607.0,663.0 L 612.0,665.0" style="stroke:#010101; fill:none;"/>
	<path d="M 703.0,672.0 L 698.0,670.0 L 709.0,667.0" style="stroke:#010101; fill:none;"/>
	<path d="M 510.0,669.0 L 513.0,679.0" style="stroke:#010101; fill:none;"/>
	<path d="M 598.0,670.0 L 609.0,670.0" style="stroke:#010101; fill:none;"/>
	<path d="M 689.0,671.0 L 697.0,671.0" style="stroke:#010101; fill:none;"/>
	<path d="M 596.0,675.0 L 596.0,679.0 L 599.0,679.0 L 599.0,675.0" style="stroke:#010101; fill:none;"/>
	<path d="M 680.0,678.0 L 674.0,684.0" style="stroke:#010101; fill:none;"/>
	<path d="M 692.0,678.0 L 704.0,681.0" style="stroke:#010101; fill:none;"/>
	<path d="M 599.0,679.0 L 606.0,680.0" style="stroke:#010101; fill:none;"/>
	<path d="M 531.0,680.0 C 525.668,722.229 544.268,770.878 574.0,800.0" style="stroke:#010101; fill:none;"/>
	<path d="M 595.0,680.0 L 597.0,701.0" style="stroke:#010101; fill:none;"/>
	<path d="M 404.0,684.0 C 400.828,701.5 379.629,698.267 367.0,702.0" style="stroke:#010101; fill:none;"/>
	<path d="M 694.0,687.0 L 689.0,686.0 L 698.0,685.0" style="stroke:#010101; fill:none;"/>
	<path d="M 593.0,685.0 L 594.0,685.0" style="stroke:#010101; fill:none;"/>
	<path d="M 596.0,687.0 L 605.0,685.0" style="stroke:#010101; fill:none;"/>
	<path d="M 683.0,686.0 L 689.0,686.0" style="stroke:#010101; fill:none;"/>
	<path d="M 680.0,688.0 L 691.0,698.0" style="stroke:#010101; fill:none;"/>
	<path d="M 678.0,693.0 L 675.0,693.0 L 686.0,701.0" style="stroke:#010101; fill:none;"/>
	<path d="M 677.0,695.0 L 680.0,698.0" style="stroke:#010101; fill:none;"/>
	<path d="M 669.0,699.0 L 670.0,700.0" style="stroke:#010101; fill:none;"/>
	<path d="M 666.0,700.0 L 667.0,701.0" style="stroke:#010101; fill:none;"/>
	<path d="M 440.0,703.0 C 417.457,721.525 381.246,720.018 354.0,720.0" style="stroke:#010101; fill:none;"/>
	<path d="M 609.0,704.0 C 612.061,711.732 613.956,717.379 622.0,721.0" style="stroke:#010101; fill:none;"/>
	<path d="M 660.0,705.0 L 661.0,706.0" style="stroke:#010101; fill:none;"/>
	<path d="M 653.0,708.0 L 653.0,709.0" style="stroke:#010101; fill:none;"/>
	<path d="M 679.0,716.0 L 677.0,718.0" style="stroke:#010101; fill:none;"/>
	<path d="M 673.0,720.0 L 668.0,723.0" style="stroke:#010101; fill:none;"/>
	<path d="M 663.0,725.0 L 664.0,725.0" style="stroke:#010101; fill:none;"/>
	<path d="M 655.0,727.0 L 661.0,726.0" style="stroke:#010101; fill:none;"/>
	<path d="M 653.0,728.0 L 652.0,729.0" style="stroke:#010101; fill:none;"/>
	<path d="M 343.0,732.0 L 401.0,734.0" style="stroke:#010101; fill:none;"/>
	<path d="M 984.0,735.0 C 998.821,771.125 1015.06,807.893 1020.0,847.0" style="stroke:#010101; fill:none;"/>
	<path d="M 318.0,762.0 L 320.0,763.0" style="stroke:#010101; fill:none;"/>
	<path d="M 336.0,792.0 L 332.0,796.0 L 334.0,789.0 L 339.0,791.0 L 344.0,782.0 C 350.541,783.11 358.862,777.096 365.0,774.649 C 379.081,769.034 395.685,762.127 411.0,762.0" style="stroke:#010101; fill:none;"/>
	<path d="M 315.0,769.0 L 355.0,767.0" style="stroke:#010101; fill:none;"/>
	<path d="M 401.0,770.0 L 406.0,772.0 L 373.0,781.623 L 358.0,788.0 L 362.0,786.0" style="stroke:#010101; fill:none;"/>
	<path d="M 341.0,790.0 C 344.938,785.8 349.936,785.211 355.0,782.755 C 368.381,776.267 383.999,770.459 399.0,770.0" style="stroke:#010101; fill:none;"/>
	<path d="M 369.0,785.0 L 397.0,779.0" style="stroke:#010101; fill:none;"/>
	<path d="M 399.0,779.0 L 400.0,779.0" style="stroke:#010101; fill:none;"/>
	<path d="M 380.0,786.0 L 396.0,783.0" style="stroke:#010101; fill:none;"/>
	<path d="M 335.0,789.0 L 338.0,788.0" style="stroke:#010101; fill:none;"/>
	<path d="M 342.0,804.0 L 377.0,787.0" style="stroke:#010101; fill:none;"/>
	<path d="M 375.0,794.0 L 371.0,796.0 L 395.0,787.0" style="stroke:#010101; fill:none;"/>
	<path d="M 342.0,790.0 C 345.618,795.468 352.696,788.646 358.0,788.0" style="stroke:#010101; fill:none;"/>
	<path d="M 313.0,813.0 L 321.0,800.0 L 329.0,809.0 L 359.0,790.0" style="stroke:#010101; fill:none;"/>
	<path d="M 329.0,793.0 C 326.114,796.014 323.938,797.822 325.0,802.0 L 331.0,796.0" style="stroke:#010101; fill:none;"/>
	<path d="M 343.0,793.0 C 339.601,795.559 337.037,796.757 339.0,801.0" style="stroke:#010101; fill:none;"/>
	<path d="M 355.0,802.0 L 371.0,796.0" style="stroke:#010101; fill:none;"/>
	<path d="M 366.0,797.0 L 367.0,798.0" style="stroke:#010101; fill:none;"/>
	<path d="M 318.0,798.0 L 292.0,821.0 C 294.173,816.34 297.81,811.886 303.0,811.0" style="stroke:#010101; fill:none;"/>
	<path d="M 324.0,798.0 L 326.0,800.0" style="stroke:#010101; fill:none;"/>
	<path d="M 329.0,799.0 C 329.185,801.493 327.977,804.633 325.0,803.0" style="stroke:#010101; fill:none;"/>
	<path d="M 332.0,801.0 L 336.0,799.0" style="stroke:#010101; fill:none;"/>
	<path d="M 335.0,800.0 L 337.0,802.0" style="stroke:#010101; fill:none;"/>
	<path d="M 319.0,802.0 L 322.0,804.0" style="stroke:#010101; fill:none;"/>
	<path d="M 322.0,804.0 L 314.0,811.0" style="stroke:#010101; fill:none;"/>
	<path d="M 316.0,805.0 L 318.0,807.0" style="stroke:#010101; fill:none;"/>
	<path d="M 349.0,806.0 L 353.0,805.0 L 343.0,813.0 L 351.0,811.0" style="stroke:#010101; fill:none;"/>
	<path d="M 324.0,806.0 L 315.0,814.0" style="stroke:#010101; fill:none;"/>
	<path d="M 338.0,806.0 L 335.0,808.0" style="stroke:#010101; fill:none;"/>
	<path d="M 282.0,836.0 L 290.0,837.0 C 293.351,834.005 294.946,832.704 299.0,835.0 C 314.396,824.005 331.489,813.29 349.0,806.0" style="stroke:#010101; fill:none;"/>
	<path d="M 313.0,808.0 L 316.0,810.0" style="stroke:#010101; fill:none;"/>
	<path d="M 316.0,808.0 L 316.0,809.0" style="stroke:#010101; fill:none;"/>
	<path d="M 323.0,809.0 L 328.0,809.0" style="stroke:#010101; fill:none;"/>
	<path d="M 333.0,809.0 C 324.751,814.829 312.5,820.328 303.0,822.0 L 306.0,824.0" style="stroke:#010101; fill:none;"/>
	<path d="M 310.0,810.0 L 314.0,818.0" style="stroke:#010101; fill:none;"/>
	<path d="M 316.0,810.0 L 318.0,812.0" style="stroke:#010101; fill:none;"/>
	<path d="M 321.0,813.0 L 321.0,810.0 L 324.0,811.0" style="stroke:#010101; fill:none;"/>
	<path d="M 288.0,834.0 C 290.048,829.608 305.124,811.809 310.0,815.0" style="stroke:#010101; fill:none;"/>
	<path d="M 311.0,813.0 L 313.0,813.0" style="stroke:#010101; fill:none;"/>
	<path d="M 343.0,815.0 L 338.0,815.0 L 343.0,813.0" style="stroke:#010101; fill:none;"/>
	<path d="M 306.0,814.0 L 309.0,816.0" style="stroke:#010101; fill:none;"/>
	<path d="M 339.0,817.0 L 337.0,819.0 L 335.0,817.0 L 338.0,815.0" style="stroke:#010101; fill:none;"/>
	<path d="M 309.0,816.0 L 305.0,819.0" style="stroke:#010101; fill:none;"/>
	<path d="M 308.0,817.0 L 311.0,820.0" style="stroke:#010101; fill:none;"/>
	<path d="M 330.0,824.0 L 329.0,821.0 L 335.0,817.0" style="stroke:#010101; fill:none;"/>
	<path d="M 336.0,819.0 L 331.0,823.0" style="stroke:#010101; fill:none;"/>
	<path d="M 292.0,821.0 L 274.985,838.27 L 259.0,829.0" style="stroke:#010101; fill:none;"/>
	<path d="M 303.0,821.0 L 289.0,835.0" style="stroke:#010101; fill:none;"/>
	<path d="M 328.0,825.0 L 330.0,825.0 L 329.0,821.0" style="stroke:#010101; fill:none;"/>
	<path d="M 303.0,843.0 L 301.0,842.0 L 327.0,822.0" style="stroke:#010101; fill:none;"/>
	<path d="M 322.0,832.0 L 318.0,832.0 C 326.518,835.673 340.123,824.055 349.0,822.0" style="stroke:#010101; fill:none;"/>
	<path d="M 300.0,824.0 L 303.0,827.0 L 306.0,824.0" style="stroke:#010101; fill:none;"/>
	<path d="M 332.0,824.0 L 335.0,824.0" style="stroke:#010101; fill:none;"/>
	<path d="M 295.0,825.0 L 297.0,828.0" style="stroke:#010101; fill:none;"/>
	<path d="M 329.0,827.0 L 323.0,829.0 L 328.0,825.0" style="stroke:#010101; fill:none;"/>
	<path d="M 303.0,827.0 L 300.0,828.0" style="stroke:#010101; fill:none;"/>
	<path d="M 292.0,828.0 L 295.0,830.0" style="stroke:#010101; fill:none;"/>
	<path d="M 298.0,829.0 L 295.0,832.0" style="stroke:#010101; fill:none;"/>
	<path d="M 323.0,829.0 L 321.0,831.0" style="stroke:#010101; fill:none;"/>
	<path d="M 300.0,830.0 L 298.0,833.0" style="stroke:#010101; fill:none;"/>
	<path d="M 289.0,831.0 L 292.0,833.0" style="stroke:#010101; fill:none;"/>
	<path d="M 317.0,834.0 L 318.0,832.0" style="stroke:#010101; fill:none;"/>
	<path d="M 298.0,834.0 L 289.0,842.0 L 286.0,836.0" style="stroke:#010101; fill:none;"/>
	<path d="M 305.0,840.0 L 315.0,834.0" style="stroke:#010101; fill:none;"/>
	<path d="M 318.0,835.0 L 319.0,835.0" style="stroke:#010101; fill:none;"/>
	<path d="M 291.0,836.0 L 293.0,838.0" style="stroke:#010101; fill:none;"/>
	<path d="M 316.0,836.0 L 308.0,840.0" style="stroke:#010101; fill:none;"/>
	<path d="M 289.0,837.0 L 292.0,840.0" style="stroke:#010101; fill:none;"/>
	<path d="M 301.0,837.0 L 302.0,840.0" style="stroke:#010101; fill:none;"/>
	<path d="M 299.0,838.0 L 295.0,839.0" style="stroke:#010101; fill:none;"/>
	<path d="M 276.0,840.0 C 283.389,845.634 287.822,847.924 295.0,841.0" style="stroke:#010101; fill:none;"/>
	<path d="M 287.0,841.0 L 288.0,841.0" style="stroke:#010101; fill:none;"/>
	<path d="M 392.0,849.0 C 393.097,855.024 392.18,857.598 387.0,861.0 C 374.726,837.075 417.152,841.227 429.0,843.0" style="stroke:#010101; fill:none;"/>
	<path d="M 296.0,847.0 L 294.0,851.0 L 301.0,842.0" style="stroke:#010101; fill:none;"/>
	<path d="M 309.0,842.0 L 305.0,846.0" style="stroke:#010101; fill:none;"/>
	<path d="M 301.0,844.0 L 297.0,848.0" style="stroke:#010101; fill:none;"/>
	<path d="M 289.0,847.0 L 293.0,849.0" style="stroke:#010101; fill:none;"/>
	<path d="M 366.0,866.0 L 371.0,869.0 L 359.0,863.0 L 383.0,847.0" style="stroke:#010101; fill:none;"/>
	<path d="M 257.0,849.0 C 270.875,856.694 285.716,869.334 302.0,871.0" style="stroke:#010101; fill:none;"/>
	<path d="M 408.0,849.0 L 404.0,853.0 L 404.0,850.0" style="stroke:#010101; fill:none;"/>
	<path d="M 1020.0,849.0 L 1021.0,850.0" style="stroke:#010101; fill:none;"/>
	<path d="M 426.0,905.0 C 433.532,894.422 439.645,878.308 431.995,866.015 C 428.468,860.347 421.948,857.364 418.0,852.0 C 429.855,848.488 442.974,851.208 454.0,856.092 C 457.57,857.673 465.038,859.835 464.033,865.015 C 462.806,871.342 454.499,876.279 450.707,881.089 C 437.964,897.255 425.096,916.379 408.0,928.226 C 395.52,936.874 381.24,941.157 366.0,939.907 C 358.714,939.309 352.764,931.208 346.0,935.0 L 349.0,941.0" style="stroke:#010101; fill:none;"/>
	<path d="M 297.0,852.0 L 307.0,857.0" style="stroke:#010101; fill:none;"/>
	<path d="M 409.0,853.0 L 418.0,852.0" style="stroke:#010101; fill:none;"/>
	<path d="M 437.0,853.0 L 453.0,868.0" style="stroke:#010101; fill:none;"/>
	<path d="M 374.0,854.0 L 372.0,867.0 C 378.209,868.201 380.957,863.744 386.0,861.0" style="stroke:#010101; fill:none;"/>
	<path d="M 393.0,857.0 L 403.0,856.0" style="stroke:#010101; fill:none;"/>
	<path d="M 706.0,854.0 C 721.001,855.184 736.408,860.146 748.0,870.0" style="stroke:#010101; fill:none;"/>
	<path d="M 372.0,855.0 L 373.0,856.0" style="stroke:#010101; fill:none;"/>
	<path d="M 352.0,856.0 L 358.0,863.0 L 336.0,886.0 C 341.131,889.493 344.992,889.743 351.0,889.0 C 351.787,891.889 352.253,892.082 355.0,891.0" style="stroke:#010101; fill:none;"/>
	<path d="M 375.0,857.0 L 375.0,858.0" style="stroke:#010101; fill:none;"/>
	<path d="M 261.0,859.0 L 258.0,875.0 L 258.0,863.0" style="stroke:#010101; fill:none;"/>
	<path d="M 1023.0,859.0 C 1026.42,882.178 1032.29,904.352 1033.91,928.0 C 1037.88,985.978 1029.89,1044.55 1017.42,1101.0 C 1009.61,1136.36 998.545,1175.22 975.522,1204.0 C 949.047,1237.09 900.366,1259.57 859.0,1264.71 C 832.843,1267.97 806.046,1265.09 780.0,1262.16 C 743.647,1258.07 708.105,1253.05 672.0,1246.26 C 656.776,1243.4 641.871,1238.99 627.0,1234.71 C 622.346,1233.37 615.25,1229.05 612.0,1234.0" style="stroke:#010101; fill:none;"/>
	<path d="M 267.0,860.0 L 264.0,878.0 L 273.0,869.0" style="stroke:#010101; fill:none;"/>
	<path d="M 373.0,860.0 L 373.0,861.0" style="stroke:#010101; fill:none;"/>
	<path d="M 384.0,860.0 L 384.0,861.0" style="stroke:#010101; fill:none;"/>
	<path d="M 271.0,861.0 L 266.0,876.0" style="stroke:#010101; fill:none;"/>
	<path d="M 376.0,863.0 L 376.0,867.0" style="stroke:#010101; fill:none;"/>
	<path d="M 344.0,864.0 L 351.0,870.0" style="stroke:#010101; fill:none;"/>
	<path d="M 329.0,866.0 L 339.0,869.0" style="stroke:#010101; fill:none;"/>
	<path d="M 377.0,868.0 C 373.849,878.942 369.211,886.403 373.559,898.0 C 381.368,918.828 408.974,922.354 423.0,907.0" style="stroke:#010101; fill:none;"/>
	<path d="M 352.0,871.0 L 363.0,874.0 L 351.0,889.0" style="stroke:#010101; fill:none;"/>
	<path d="M 399.005,872.176 C 405.935,869.501 419.337,885.692 405.999,890.478 C 396.049,894.048 388.909,876.072 399.005,872.176" style="stroke:#010101; fill:none;"/>
	<path d="M 364.0,873.0 L 368.0,872.0" style="stroke:#010101; fill:none;"/>
	<path d="M 453.0,872.0 L 452.0,877.0" style="stroke:#010101; fill:none;"/>
	<path d="M 749.0,874.0 C 771.727,897.815 767.059,927.854 738.0,944.0" style="stroke:#010101; fill:none;"/>
	<path d="M 258.0,876.0 L 259.0,885.0" style="stroke:#010101; fill:none;"/>
	<path d="M 345.0,876.0 L 357.0,883.0" style="stroke:#010101; fill:none;"/>
	<path d="M 267.0,877.0 L 264.0,880.0 L 264.0,878.0" style="stroke:#010101; fill:none;"/>
	<path d="M 343.0,879.0 L 353.0,887.0" style="stroke:#010101; fill:none;"/>
	<path d="M 264.0,880.0 L 262.0,884.0" style="stroke:#010101; fill:none;"/>
	<path d="M 356.0,880.0 L 357.0,880.0" style="stroke:#010101; fill:none;"/>
	<path d="M 332.0,883.0 L 336.0,887.0" style="stroke:#010101; fill:none;"/>
	<path d="M 263.0,887.0 L 263.0,890.0" style="stroke:#010101; fill:none;"/>
	<path d="M 336.0,887.0 L 333.0,891.0" style="stroke:#010101; fill:none;"/>
	<path d="M 267.0,888.0 L 265.0,904.0" style="stroke:#010101; fill:none;"/>
	<path d="M 253.0,889.0 L 265.0,896.0" style="stroke:#010101; fill:none;"/>
	<path d="M 347.0,890.0 L 350.0,893.0" style="stroke:#010101; fill:none;"/>
	<path d="M 350.0,893.0 C 347.327,901.561 338.04,919.658 342.0,928.0 C 349.028,923.457 349.844,915.734 345.0,909.0" style="stroke:#010101; fill:none;"/>
	<path d="M 330.0,894.0 L 338.0,900.0 L 335.0,898.0" style="stroke:#010101; fill:none;"/>
	<path d="M 252.0,895.0 L 260.0,897.0" style="stroke:#010101; fill:none;"/>
	<path d="M 332.0,896.0 C 325.558,904.758 333.132,909.269 342.0,910.0" style="stroke:#010101; fill:none;"/>
	<path d="M 272.0,921.0 C 269.717,917.056 264.77,898.783 271.0,898.0" style="stroke:#010101; fill:none;"/>
	<path d="M 339.0,898.0 L 347.0,898.0" style="stroke:#010101; fill:none;"/>
	<path d="M 348.0,898.0 L 349.0,902.0" style="stroke:#010101; fill:none;"/>
	<path d="M 339.0,901.0 L 346.0,902.0" style="stroke:#010101; fill:none;"/>
	<path d="M 345.0,903.0 L 345.0,907.0" style="stroke:#010101; fill:none;"/>
	<path d="M 328.0,904.0 C 320.104,914.631 322.072,928.706 338.0,924.0 L 329.0,920.0" style="stroke:#010101; fill:none;"/>
	<path d="M 327.0,906.0 L 333.0,908.0 L 333.0,908.0" style="stroke:#010101; fill:none;"/>
	<path d="M 251.0,910.0 L 269.0,920.0" style="stroke:#010101; fill:none;"/>
	<path d="M 733.0,916.0 C 729.096,920.297 728.483,926.348 723.815,930.291 C 718.352,934.905 711.187,932.228 706.278,935.693 C 699.365,940.573 701.0,954.771 701.0,962.0" style="stroke:#010101; fill:none;"/>
	<path d="M 709.0,934.0 C 710.413,924.842 721.413,918.862 730.0,918.0" style="stroke:#010101; fill:none;"/>
	<path d="M 336.0,922.0 L 341.0,922.0" style="stroke:#010101; fill:none;"/>
	<path d="M 425.0,922.0 L 425.0,923.0" style="stroke:#010101; fill:none;"/>
	<path d="M 322.0,923.0 C 320.057,938.801 334.805,928.921 338.968,938.159 C 344.12,949.591 325.874,950.527 320.0,948.0" style="stroke:#010101; fill:none;"/>
	<path d="M 255.0,925.0 L 279.0,935.0" style="stroke:#010101; fill:none;"/>
	<path d="M 420.0,925.0 L 419.0,928.0" style="stroke:#010101; fill:none;"/>
	<path d="M 348.0,926.0 L 349.0,932.0" style="stroke:#010101; fill:none;"/>
	<path d="M 326.0,928.0 L 338.857,930.602 L 346.0,935.0" style="stroke:#010101; fill:none;"/>
	<path d="M 342.0,928.0 L 342.0,930.0" style="stroke:#010101; fill:none;"/>
	<path d="M 415.0,929.0 L 414.0,934.0" style="stroke:#010101; fill:none;"/>
	<path d="M 408.0,933.0 L 406.0,937.0" style="stroke:#010101; fill:none;"/>
	<path d="M 1038.0,933.0 L 1041.0,937.0" style="stroke:#010101; fill:none;"/>
	<path d="M 405.0,934.0 L 402.0,939.0" style="stroke:#010101; fill:none;"/>
	<path d="M 343.0,936.0 L 341.0,938.0" style="stroke:#010101; fill:none;"/>
	<path d="M 322.0,940.0 L 338.0,942.0" style="stroke:#010101; fill:none;"/>
	<path d="M 393.0,940.0 L 390.0,946.0" style="stroke:#010101; fill:none;"/>
	<path d="M 333.0,941.0 L 337.0,945.0" style="stroke:#010101; fill:none;"/>
	<path d="M 396.0,942.0 L 395.0,944.0" style="stroke:#010101; fill:none;"/>
	<path d="M 349.0,943.0 L 341.0,959.0" style="stroke:#010101; fill:none;"/>
	<path d="M 363.0,943.0 L 361.0,945.0" style="stroke:#010101; fill:none;"/>
	<path d="M 319.0,944.0 C 324.803,945.839 329.278,946.415 335.0,944.0" style="stroke:#010101; fill:none;"/>
	<path d="M 355.0,944.0 L 347.0,954.0" style="stroke:#010101; fill:none;"/>
	<path d="M 387.0,944.0 L 385.0,957.0" style="stroke:#010101; fill:none;"/>
	<path d="M 359.0,945.0 L 354.0,946.0" style="stroke:#010101; fill:none;"/>
	<path d="M 367.0,945.0 C 361.407,948.008 357.284,951.551 356.0,958.0" style="stroke:#010101; fill:none;"/>
	<path d="M 378.0,949.0 L 377.0,952.0" style="stroke:#010101; fill:none;"/>
	<path d="M 381.0,949.0 L 381.0,950.0" style="stroke:#010101; fill:none;"/>
	<path d="M 263.0,955.0 L 280.0,968.0" style="stroke:#010101; fill:none;"/>
	<path d="M 385.0,959.0 L 386.0,960.0" style="stroke:#010101; fill:none;"/>
	<path d="M 270.0,974.0 L 275.0,976.0" style="stroke:#010101; fill:none;"/>
	<path d="M 706.0,975.0 C 699.091,984.396 691.491,993.875 679.0,995.0" style="stroke:#010101; fill:none;"/>
	<path d="M 759.0,1038.0 C 768.382,1028.17 771.298,1014.72 781.004,1005.0 C 791.742,994.252 804.169,991.663 818.0,986.921 C 828.604,983.286 839.062,978.532 850.0,976.0" style="stroke:#010101; fill:none;"/>
	<path d="M 277.0,977.0 L 280.0,979.0" style="stroke:#010101; fill:none;"/>
	<path d="M 586.0,977.0 L 586.0,983.0" style="stroke:#010101; fill:none;"/>
	<path d="M 863.0,1003.0 C 870.081,996.477 881.907,979.606 892.0,980.0" style="stroke:#010101; fill:none;"/>
	<path d="M 273.0,985.0 L 281.0,991.0" style="stroke:#010101; fill:none;"/>
	<path d="M 586.0,985.0 L 587.0,987.0" style="stroke:#010101; fill:none;"/>
	<path d="M 589.0,994.0 C 596.663,1016.09 612.053,1025.27 635.0,1018.0" style="stroke:#010101; fill:none;"/>
	<path d="M 635.0,1010.0 C 627.14,1011.75 627.447,1003.79 633.094,1000.42 C 641.466,995.414 652.616,995.76 662.0,995.0" style="stroke:#010101; fill:none;"/>
	<path d="M 283.0,1005.0 L 286.0,1011.0 L 283.0,1009.0" style="stroke:#010101; fill:none;"/>
	<path d="M 857.0,1006.0 L 845.0,1017.0 C 839.546,1014.05 833.099,1018.07 828.0,1020.9 C 815.521,1027.85 794.436,1045.7 789.0,1059.0 L 791.0,1061.0" style="stroke:#010101; fill:none;"/>
	<path d="M 287.0,1011.0 C 335.723,1061.49 386.652,1109.1 446.0,1147.31 C 487.046,1173.73 531.123,1192.28 574.0,1215.0 L 576.0,1222.0" style="stroke:#010101; fill:none;"/>
	<path d="M 892.0,1011.0 C 892.0,1061.75 868.105,1101.47 828.0,1132.0" style="stroke:#010101; fill:none;"/>
	<path d="M 844.0,1014.0 L 846.0,1014.0" style="stroke:#010101; fill:none;"/>
	<path d="M 845.0,1018.0 L 810.304,1059.91 L 792.0,1078.0 L 795.0,1065.0" style="stroke:#010101; fill:none;"/>
	<path d="M 740.0,1023.0 L 733.0,1027.0" style="stroke:#010101; fill:none;"/>
	<path d="M 828.0,1025.0 L 837.0,1027.0" style="stroke:#010101; fill:none;"/>
	<path d="M 831.0,1027.0 L 833.0,1034.0" style="stroke:#010101; fill:none;"/>
	<path d="M 702.0,1130.0 C 709.249,1094.97 716.799,1058.07 753.0,1043.0" style="stroke:#010101; fill:none;"/>
	<path d="M 701.0,1146.0 C 701.733,1132.44 719.105,1128.79 727.999,1120.83 C 738.128,1111.75 743.543,1098.54 752.015,1088.01 C 757.443,1081.27 765.424,1078.88 772.0,1073.53 C 777.859,1068.77 781.642,1062.07 788.0,1058.0" style="stroke:#010101; fill:none;"/>
	<path d="M 795.0,1067.0 L 806.0,1064.0" style="stroke:#010101; fill:none;"/>
	<path d="M 792.0,1078.0 C 780.784,1088.73 769.255,1097.39 755.0,1103.58 C 749.813,1105.83 744.565,1109.15 739.0,1107.0" style="stroke:#010101; fill:none;"/>
	<path d="M 753.0,1090.0 L 762.0,1096.0" style="stroke:#010101; fill:none;"/>
	<path d="M 753.0,1094.0 L 751.0,1099.0" style="stroke:#010101; fill:none;"/>
	<path d="M 820.0,1135.0 C 799.477,1149.61 766.602,1161.17 742.0,1152.0" style="stroke:#010101; fill:none;"/>
	<path d="M 574.0,1215.0 L 612.0,1230.0" style="stroke:#010101; fill:none;"/>
	<path d="M 631.0,1240.0 L 631.0,1241.0" style="stroke:#010101; fill:none;"/>
</svg>
