<?xml version="1.0" ?>
<svg baseProfile="full" height="1406" version="1.1" width="1150" xmlns="http://www.w3.org/2000/svg" xmlns:ev="http://www.w3.org/2001/xml-events" xmlns:xlink="http://www.w3.org/1999/xlink">
	<defs/>
	<path d="M 738.0,480.0 L 766.0,480.0" style="stroke:#010101; fill:none;"/>
	<path d="M 720.0,483.0 L 721.0,483.0" style="stroke:#010101; fill:none;"/>
	<path d="M 715.0,487.0 C 743.425,488.239 774.489,509.103 799.0,522.0" style="stroke:#010101; fill:none;"/>
	<path d="M 758.0,493.0 L 786.0,509.0" style="stroke:#010101; fill:none;"/>
	<path d="M 766.0,494.0 C 778.304,494.53 790.78,498.152 803.0,499.87 C 806.976,500.428 814.289,499.696 817.606,501.889 C 821.389,504.389 823.802,512.002 825.701,516.0 C 831.015,527.187 836.635,538.109 842.54,549.0 C 862.663,586.114 889.627,618.675 906.0,658.0" style="stroke:#010101; fill:none;"/>
	<path d="M 692.0,501.0 C 678.463,512.537 660.358,516.255 643.0,517.0" style="stroke:#010101; fill:none;"/>
	<path d="M 671.0,528.0 L 730.0,535.0" style="stroke:#010101; fill:none;"/>
	<path d="M 656.0,533.0 C 664.065,531.503 674.369,530.602 682.0,534.0 L 648.0,537.0" style="stroke:#010101; fill:none;"/>
	<path d="M 687.0,535.0 L 683.0,534.0 L 724.0,538.0" style="stroke:#010101; fill:none;"/>
	<path d="M 603.0,534.0 L 643.0,540.831 L 696.0,541.0" style="stroke:#010101; fill:none;"/>
	<path d="M 592.0,537.0 L 641.0,545.0" style="stroke:#010101; fill:none;"/>
	<path d="M 578.0,542.0 L 633.0,554.0" style="stroke:#010101; fill:none;"/>
	<path d="M 704.0,544.0 L 713.0,543.0" style="stroke:#010101; fill:none;"/>
	<path d="M 645.0,555.0 L 643.0,553.0 L 665.0,549.611 L 702.0,544.0" style="stroke:#010101; fill:none;"/>
	<path d="M 573.0,545.0 C 594.445,551.857 620.851,564.849 642.0,555.0 L 636.0,555.0" style="stroke:#010101; fill:none;"/>
	<path d="M 655.0,564.0 L 624.0,567.0 C 642.827,554.922 673.006,550.78 695.0,548.0" style="stroke:#010101; fill:none;"/>
	<path d="M 697.0,548.0 L 698.0,548.0" style="stroke:#010101; fill:none;"/>
	<path d="M 564.0,549.0 L 609.0,561.0" style="stroke:#010101; fill:none;"/>
	<path d="M 647.0,552.0 L 648.0,552.0" style="stroke:#010101; fill:none;"/>
	<path d="M 547.0,556.0 L 583.0,561.0" style="stroke:#010101; fill:none;"/>
	<path d="M 644.0,561.0 L 657.0,560.0" style="stroke:#010101; fill:none;"/>
	<path d="M 528.0,570.0 L 572.0,564.0" style="stroke:#010101; fill:none;"/>
	<path d="M 613.0,569.0 L 609.0,570.0 L 624.0,567.0" style="stroke:#010101; fill:none;"/>
	<path d="M 649.0,569.0 L 652.0,569.0" style="stroke:#010101; fill:none;"/>
	<path d="M 553.0,598.0 C 567.227,585.691 590.137,572.786 609.0,570.0" style="stroke:#010101; fill:none;"/>
	<path d="M 613.0,589.0 L 615.0,586.0 L 616.0,587.0 L 603.108,594.462 L 593.0,607.0 C 588.012,599.199 597.393,594.329 603.0,589.803 C 607.72,585.994 612.196,579.224 617.143,576.303 C 624.658,571.867 638.385,570.681 647.0,570.0" style="stroke:#010101; fill:none;"/>
	<path d="M 603.0,576.0 L 599.0,577.0 L 609.0,573.0" style="stroke:#010101; fill:none;"/>
	<path d="M 647.0,573.0 L 647.0,574.0" style="stroke:#010101; fill:none;"/>
	<path d="M 616.0,587.0 C 626.003,578.764 631.531,575.065 645.0,574.0" style="stroke:#010101; fill:none;"/>
	<path d="M 600.0,579.0 L 570.0,606.0 C 572.027,593.519 588.648,582.533 599.0,577.0" style="stroke:#010101; fill:none;"/>
	<path d="M 608.0,578.0 L 623.0,580.0" style="stroke:#010101; fill:none;"/>
	<path d="M 613.0,578.0 C 597.018,590.524 580.652,601.172 568.425,618.0 C 564.545,623.341 558.204,630.085 559.0,637.0 L 568.0,628.0" style="stroke:#010101; fill:none;"/>
	<path d="M 627.0,581.0 L 646.0,578.0" style="stroke:#010101; fill:none;"/>
	<path d="M 505.0,584.0 L 541.0,587.0" style="stroke:#010101; fill:none;"/>
	<path d="M 603.0,615.0 L 630.0,585.0" style="stroke:#010101; fill:none;"/>
	<path d="M 624.0,586.0 L 587.0,622.0" style="stroke:#010101; fill:none;"/>
	<path d="M 609.0,590.0 L 612.0,588.0" style="stroke:#010101; fill:none;"/>
	<path d="M 486.0,589.0 L 506.0,591.0" style="stroke:#010101; fill:none;"/>
	<path d="M 593.0,621.0 C 601.847,609.347 613.003,597.449 625.0,589.0" style="stroke:#010101; fill:none;"/>
	<path d="M 534.0,659.0 C 534.157,640.057 546.757,619.649 557.899,605.0 C 562.291,599.226 567.742,591.893 575.0,590.0" style="stroke:#010101; fill:none;"/>
	<path d="M 475.0,592.0 L 506.09,600.528 L 525.0,598.0" style="stroke:#010101; fill:none;"/>
	<path d="M 508.0,592.0 L 516.0,594.0" style="stroke:#010101; fill:none;"/>
	<path d="M 611.0,592.0 L 605.0,595.0" style="stroke:#010101; fill:none;"/>
	<path d="M 605.0,593.0 L 607.0,595.0 L 602.0,600.0" style="stroke:#010101; fill:none;"/>
	<path d="M 568.0,597.0 C 559.628,609.256 547.573,623.624 546.0,639.0 L 571.0,606.0" style="stroke:#010101; fill:none;"/>
	<path d="M 591.0,603.0 L 599.0,598.0" style="stroke:#010101; fill:none;"/>
	<path d="M 530.0,652.0 C 530.0,630.247 538.635,611.558 557.0,599.0" style="stroke:#010101; fill:none;"/>
	<path d="M 503.0,600.0 C 487.266,608.44 462.427,603.798 445.0,606.0" style="stroke:#010101; fill:none;"/>
	<path d="M 582.0,610.0 L 589.0,603.0" style="stroke:#010101; fill:none;"/>
	<path d="M 590.0,605.0 L 585.0,610.0" style="stroke:#010101; fill:none;"/>
	<path d="M 568.0,606.0 L 567.0,610.0" style="stroke:#010101; fill:none;"/>
	<path d="M 594.0,607.0 L 578.0,621.543 L 569.0,624.0" style="stroke:#010101; fill:none;"/>
	<path d="M 446.0,610.0 L 447.0,611.0" style="stroke:#010101; fill:none;"/>
	<path d="M 574.0,621.0 L 582.0,610.0" style="stroke:#010101; fill:none;"/>
	<path d="M 667.0,611.0 L 673.56,622.612 L 690.0,619.46 L 723.0,621.0" style="stroke:#010101; fill:none;"/>
	<path d="M 682.0,611.0 C 683.836,615.904 686.974,636.519 677.0,632.0 L 675.0,639.0 C 684.099,637.523 694.471,638.949 696.0,628.0" style="stroke:#010101; fill:none;"/>
	<path d="M 450.0,612.0 L 451.0,612.0" style="stroke:#010101; fill:none;"/>
	<path d="M 580.0,612.0 L 576.0,616.0" style="stroke:#010101; fill:none;"/>
	<path d="M 583.0,612.0 L 582.0,613.0" style="stroke:#010101; fill:none;"/>
	<path d="M 453.0,613.0 L 459.0,614.0" style="stroke:#010101; fill:none;"/>
	<path d="M 462.0,614.0 L 463.0,614.0" style="stroke:#010101; fill:none;"/>
	<path d="M 465.0,614.0 L 467.0,614.0" style="stroke:#010101; fill:none;"/>
	<path d="M 534.0,614.0 C 525.714,628.576 526.0,647.718 526.0,664.0" style="stroke:#010101; fill:none;"/>
	<path d="M 529.0,615.0 L 524.0,630.0" style="stroke:#010101; fill:none;"/>
	<path d="M 521.0,616.0 C 515.941,631.955 518.218,648.116 522.0,664.0" style="stroke:#010101; fill:none;"/>
	<path d="M 574.0,618.0 L 578.0,622.0" style="stroke:#010101; fill:none;"/>
	<path d="M 576.0,619.0 L 579.0,620.0" style="stroke:#010101; fill:none;"/>
	<path d="M 662.0,618.0 L 665.0,628.0 L 672.0,623.0" style="stroke:#010101; fill:none;"/>
	<path d="M 418.0,619.0 C 435.814,619.767 451.097,624.632 469.0,620.0" style="stroke:#010101; fill:none;"/>
	<path d="M 471.0,619.0 L 472.0,619.0" style="stroke:#010101; fill:none;"/>
	<path d="M 573.0,622.0 L 571.0,626.0" style="stroke:#010101; fill:none;"/>
	<path d="M 691.0,623.0 L 688.0,636.0" style="stroke:#010101; fill:none;"/>
	<path d="M 654.0,624.0 L 658.0,639.0 L 662.0,632.0 L 656.0,631.0" style="stroke:#010101; fill:none;"/>
	<path d="M 729.0,624.0 L 731.0,624.0" style="stroke:#010101; fill:none;"/>
	<path d="M 706.0,625.0 C 704.105,629.85 700.899,633.203 696.0,635.0" style="stroke:#010101; fill:none;"/>
	<path d="M 660.0,626.0 L 661.0,630.0" style="stroke:#010101; fill:none;"/>
	<path d="M 675.0,626.0 L 677.0,631.0" style="stroke:#010101; fill:none;"/>
	<path d="M 632.0,627.0 L 639.0,643.0 L 637.0,639.0" style="stroke:#010101; fill:none;"/>
	<path d="M 700.0,627.0 L 696.0,633.0" style="stroke:#010101; fill:none;"/>
	<path d="M 568.0,628.0 L 567.0,632.0" style="stroke:#010101; fill:none;"/>
	<path d="M 713.0,628.0 C 709.475,630.85 707.445,632.896 703.0,631.0" style="stroke:#010101; fill:none;"/>
	<path d="M 738.0,628.0 L 726.0,639.549 L 717.0,638.199 L 698.0,636.0" style="stroke:#010101; fill:none;"/>
	<path d="M 648.0,629.0 C 650.153,632.942 651.109,639.47 654.509,642.462 C 660.101,647.382 668.281,640.519 674.0,640.0" style="stroke:#010101; fill:none;"/>
	<path d="M 665.0,629.0 L 662.0,632.0" style="stroke:#010101; fill:none;"/>
	<path d="M 664.0,630.0 L 669.0,640.0" style="stroke:#010101; fill:none;"/>
	<path d="M 675.0,630.0 L 675.0,637.0" style="stroke:#010101; fill:none;"/>
	<path d="M 724.0,631.0 L 718.0,638.0" style="stroke:#010101; fill:none;"/>
	<path d="M 523.0,632.0 L 521.0,651.0" style="stroke:#010101; fill:none;"/>
	<path d="M 652.0,634.0 L 655.0,632.0" style="stroke:#010101; fill:none;"/>
	<path d="M 741.0,632.0 C 738.185,638.257 733.883,643.364 727.0,645.0" style="stroke:#010101; fill:none;"/>
	<path d="M 712.0,636.0 L 716.0,634.0" style="stroke:#010101; fill:none;"/>
	<path d="M 635.0,635.0 L 635.0,641.0" style="stroke:#010101; fill:none;"/>
	<path d="M 649.0,645.0 L 646.0,650.0 L 650.0,635.0" style="stroke:#010101; fill:none;"/>
	<path d="M 680.0,635.0 L 680.0,637.0" style="stroke:#010101; fill:none;"/>
	<path d="M 558.0,636.0 L 557.0,640.0 L 558.0,638.0" style="stroke:#010101; fill:none;"/>
	<path d="M 631.0,636.0 L 633.0,638.0" style="stroke:#010101; fill:none;"/>
	<path d="M 672.0,636.0 L 672.0,639.0" style="stroke:#010101; fill:none;"/>
	<path d="M 640.0,641.0 L 645.0,637.0" style="stroke:#010101; fill:none;"/>
	<path d="M 658.0,639.0 L 658.0,643.0" style="stroke:#010101; fill:none;"/>
	<path d="M 545.0,640.0 L 540.0,653.0" style="stroke:#010101; fill:none;"/>
	<path d="M 709.0,640.0 L 724.0,648.0 C 718.262,664.807 712.432,683.359 698.985,695.83 C 692.687,701.672 685.904,703.747 679.129,708.332 C 676.084,710.392 674.389,713.744 670.982,715.348 C 659.833,720.597 645.843,721.811 634.0,725.155 C 627.579,726.968 621.335,729.582 616.0,733.576 C 613.62,735.358 609.637,739.119 606.318,738.183 C 602.901,737.219 604.0,730.594 604.0,728.0 C 603.999,717.815 608.601,706.704 608.164,697.148 C 607.865,690.594 597.503,694.439 602.0,684.0 C 605.862,687.528 607.946,688.413 613.0,687.0 L 610.0,694.0" style="stroke:#010101; fill:none;"/>
	<path d="M 722.0,641.0 L 719.0,644.0" style="stroke:#010101; fill:none;"/>
	<path d="M 414.0,642.0 C 404.818,654.357 387.971,649.675 375.0,648.0" style="stroke:#010101; fill:none;"/>
	<path d="M 636.0,642.0 C 631.527,647.807 637.023,651.443 637.0,658.0 L 639.0,653.0" style="stroke:#010101; fill:none;"/>
	<path d="M 669.0,642.0 C 674.619,646.302 681.552,648.401 686.826,653.326 C 704.521,669.847 692.79,687.99 685.0,705.0" style="stroke:#010101; fill:none;"/>
	<path d="M 629.0,643.0 L 632.0,646.0" style="stroke:#010101; fill:none;"/>
	<path d="M 639.0,643.0 C 641.122,646.271 641.696,650.328 646.0,650.0" style="stroke:#010101; fill:none;"/>
	<path d="M 655.0,645.0 L 651.0,647.0" style="stroke:#010101; fill:none;"/>
	<path d="M 614.0,646.0 L 619.0,655.0 L 630.0,646.0" style="stroke:#010101; fill:none;"/>
	<path d="M 642.0,646.0 L 646.0,646.0" style="stroke:#010101; fill:none;"/>
	<path d="M 741.0,656.0 L 733.0,656.0 L 742.0,650.0" style="stroke:#010101; fill:none;"/>
	<path d="M 624.0,652.0 C 627.532,655.958 630.304,659.933 636.0,659.0" style="stroke:#010101; fill:none;"/>
	<path d="M 644.0,653.0 L 642.0,655.0" style="stroke:#010101; fill:none;"/>
	<path d="M 619.0,656.0 L 608.0,669.0 L 601.0,663.0" style="stroke:#010101; fill:none;"/>
	<path d="M 619.0,656.0 C 622.823,659.407 625.92,661.946 631.0,660.0" style="stroke:#010101; fill:none;"/>
	<path d="M 733.0,656.0 L 729.0,660.0" style="stroke:#010101; fill:none;"/>
	<path d="M 633.0,661.0 C 630.13,669.263 622.896,669.743 616.0,673.0 L 620.0,677.0 L 623.0,672.0" style="stroke:#010101; fill:none;"/>
	<path d="M 355.0,662.0 C 383.328,667.922 416.523,680.604 445.0,668.0" style="stroke:#010101; fill:none;"/>
	<path d="M 735.0,662.0 L 739.0,662.0" style="stroke:#010101; fill:none;"/>
	<path d="M 732.0,664.0 L 733.0,664.0" style="stroke:#010101; fill:none;"/>
	<path d="M 656.148,667.217 C 664.371,663.696 673.448,681.694 663.956,686.195 C 652.695,691.535 648.856,670.339 656.148,667.217" style="stroke:#010101; fill:none;"/>
	<path d="M 632.0,667.0 C 629.05,682.656 630.774,704.306 649.0,710.011 C 657.504,712.673 667.304,710.307 676.0,710.0" style="stroke:#010101; fill:none;"/>
	<path d="M 628.0,668.0 L 631.0,671.0" style="stroke:#010101; fill:none;"/>
	<path d="M 727.0,675.0 L 724.0,673.0 L 736.0,668.0" style="stroke:#010101; fill:none;"/>
	<path d="M 609.0,669.0 C 603.553,677.739 613.094,681.497 620.0,677.0" style="stroke:#010101; fill:none;"/>
	<path d="M 610.0,670.0 L 615.0,672.0" style="stroke:#010101; fill:none;"/>
	<path d="M 344.0,671.0 L 398.0,688.0" style="stroke:#010101; fill:none;"/>
	<path d="M 538.0,671.0 C 525.927,708.756 524.847,762.754 549.0,796.0" style="stroke:#010101; fill:none;"/>
	<path d="M 605.0,677.0 L 602.0,684.0" style="stroke:#010101; fill:none;"/>
	<path d="M 720.0,678.0 L 719.0,679.0" style="stroke:#010101; fill:none;"/>
	<path d="M 604.0,680.0 C 606.463,682.028 616.957,686.238 615.0,680.0" style="stroke:#010101; fill:none;"/>
	<path d="M 715.0,684.0 L 722.0,681.0" style="stroke:#010101; fill:none;"/>
	<path d="M 605.0,683.0 L 605.0,685.0" style="stroke:#010101; fill:none;"/>
	<path d="M 614.0,684.0 L 614.0,686.0" style="stroke:#010101; fill:none;"/>
	<path d="M 921.0,684.0 C 928.214,715.182 935.082,747.149 943.594,778.0 C 949.647,799.937 958.635,821.551 962.551,844.0 C 969.426,883.409 968.005,921.308 968.0,961.0" style="stroke:#010101; fill:none;"/>
	<path d="M 713.0,687.0 L 718.0,688.0" style="stroke:#010101; fill:none;"/>
	<path d="M 610.0,688.0 L 612.0,690.0" style="stroke:#010101; fill:none;"/>
	<path d="M 597.0,689.0 L 598.0,691.0" style="stroke:#010101; fill:none;"/>
	<path d="M 599.0,693.0 L 597.0,709.0" style="stroke:#010101; fill:none;"/>
	<path d="M 312.0,694.0 L 314.0,695.0" style="stroke:#010101; fill:none;"/>
	<path d="M 708.0,695.0 L 718.0,697.0" style="stroke:#010101; fill:none;"/>
	<path d="M 307.0,699.0 L 347.0,708.0" style="stroke:#010101; fill:none;"/>
	<path d="M 709.0,706.0 L 702.0,704.0 C 705.285,701.014 708.933,701.767 713.0,703.0" style="stroke:#010101; fill:none;"/>
	<path d="M 693.0,702.0 L 702.0,703.0" style="stroke:#010101; fill:none;"/>
	<path d="M 695.0,709.0 L 703.0,714.0" style="stroke:#010101; fill:none;"/>
	<path d="M 609.0,714.0 C 607.697,720.015 609.31,726.904 614.0,731.0" style="stroke:#010101; fill:none;"/>
	<path d="M 691.0,715.0 L 693.0,715.0 L 691.0,717.0 L 694.0,719.0" style="stroke:#010101; fill:none;"/>
	<path d="M 684.0,715.0 L 690.0,717.0" style="stroke:#010101; fill:none;"/>
	<path d="M 694.0,715.0 L 697.0,717.0" style="stroke:#010101; fill:none;"/>
	<path d="M 345.0,730.0 L 349.0,729.0 C 345.009,728.135 331.296,732.26 329.176,728.397 C 325.492,721.684 341.652,719.561 345.0,719.155 C 363.97,716.855 382.929,714.59 402.0,717.0" style="stroke:#010101; fill:none;"/>
	<path d="M 682.0,716.0 L 688.0,728.0" style="stroke:#010101; fill:none;"/>
	<path d="M 691.0,719.0 L 691.0,720.0" style="stroke:#010101; fill:none;"/>
	<path d="M 332.0,723.0 L 366.0,721.0" style="stroke:#010101; fill:none;"/>
	<path d="M 368.0,720.0 L 385.0,722.0" style="stroke:#010101; fill:none;"/>
	<path d="M 674.0,720.0 L 678.0,726.0" style="stroke:#010101; fill:none;"/>
	<path d="M 676.0,721.0 L 683.0,730.0" style="stroke:#010101; fill:none;"/>
	<path d="M 387.0,722.0 L 389.0,722.0" style="stroke:#010101; fill:none;"/>
	<path d="M 391.0,722.0 L 394.0,726.0 L 349.0,729.0" style="stroke:#010101; fill:none;"/>
	<path d="M 328.0,726.0 L 314.0,728.0 C 318.289,723.669 323.121,723.017 329.0,723.0" style="stroke:#010101; fill:none;"/>
	<path d="M 664.0,723.0 L 664.0,724.0" style="stroke:#010101; fill:none;"/>
	<path d="M 667.0,723.0 L 667.0,724.0" style="stroke:#010101; fill:none;"/>
	<path d="M 657.0,726.0 L 657.0,728.0" style="stroke:#010101; fill:none;"/>
	<path d="M 665.0,726.0 L 665.0,727.0" style="stroke:#010101; fill:none;"/>
	<path d="M 328.0,729.0 L 313.0,736.0 C 310.401,732.194 309.532,729.407 314.0,727.0" style="stroke:#010101; fill:none;"/>
	<path d="M 319.0,735.0 C 312.969,746.599 303.7,737.048 303.0,728.0 L 309.0,733.0" style="stroke:#010101; fill:none;"/>
	<path d="M 311.0,728.0 L 315.0,730.0" style="stroke:#010101; fill:none;"/>
	<path d="M 649.0,728.0 L 649.0,730.0" style="stroke:#010101; fill:none;"/>
	<path d="M 277.0,782.0 L 251.0,758.0 L 274.0,741.0 C 283.093,742.745 293.291,731.562 302.0,729.0" style="stroke:#010101; fill:none;"/>
	<path d="M 353.0,729.0 L 386.0,731.0" style="stroke:#010101; fill:none;"/>
	<path d="M 307.0,730.0 L 309.0,730.0" style="stroke:#010101; fill:none;"/>
	<path d="M 304.0,731.0 L 306.0,731.0" style="stroke:#010101; fill:none;"/>
	<path d="M 306.0,732.0 L 299.0,735.0 L 303.0,736.0" style="stroke:#010101; fill:none;"/>
	<path d="M 319.0,737.0 L 344.0,732.0" style="stroke:#010101; fill:none;"/>
	<path d="M 331.0,738.0 L 371.0,733.0" style="stroke:#010101; fill:none;"/>
	<path d="M 374.0,733.0 L 379.0,733.0" style="stroke:#010101; fill:none;"/>
	<path d="M 300.0,737.0 L 295.0,737.0 L 299.0,735.0" style="stroke:#010101; fill:none;"/>
	<path d="M 312.0,735.0 L 308.0,737.0" style="stroke:#010101; fill:none;"/>
	<path d="M 281.0,738.0 L 283.0,736.0" style="stroke:#010101; fill:none;"/>
	<path d="M 275.0,740.0 L 281.0,738.0" style="stroke:#010101; fill:none;"/>
	<path d="M 293.0,743.0 C 291.128,740.562 292.705,738.424 295.0,737.0" style="stroke:#010101; fill:none;"/>
	<path d="M 356.0,739.0 L 356.0,741.0 C 362.947,736.995 372.227,736.429 380.0,738.0" style="stroke:#010101; fill:none;"/>
	<path d="M 291.0,743.0 L 287.0,741.0 L 291.0,739.0" style="stroke:#010101; fill:none;"/>
	<path d="M 295.0,739.0 L 293.0,741.0" style="stroke:#010101; fill:none;"/>
	<path d="M 308.0,742.0 C 305.521,742.012 304.589,741.298 306.0,739.0" style="stroke:#010101; fill:none;"/>
	<path d="M 324.0,740.0 L 329.0,739.0" style="stroke:#010101; fill:none;"/>
	<path d="M 304.0,743.0 L 304.0,740.0" style="stroke:#010101; fill:none;"/>
	<path d="M 348.0,742.0 L 354.0,740.0" style="stroke:#010101; fill:none;"/>
	<path d="M 288.0,743.0 L 286.0,745.0 L 284.0,743.0 L 287.0,741.0" style="stroke:#010101; fill:none;"/>
	<path d="M 295.0,741.0 C 297.62,743.311 299.534,745.323 303.0,744.0" style="stroke:#010101; fill:none;"/>
	<path d="M 298.0,746.0 L 302.0,741.0" style="stroke:#010101; fill:none;"/>
	<path d="M 320.0,741.0 L 322.0,741.0" style="stroke:#010101; fill:none;"/>
	<path d="M 331.0,750.0 L 323.0,749.0 L 347.0,741.0" style="stroke:#010101; fill:none;"/>
	<path d="M 238.0,742.0 L 251.0,758.0" style="stroke:#010101; fill:none;"/>
	<path d="M 316.0,742.0 L 318.0,742.0" style="stroke:#010101; fill:none;"/>
	<path d="M 336.0,742.0 L 337.0,742.0" style="stroke:#010101; fill:none;"/>
	<path d="M 269.0,745.0 L 272.0,743.0" style="stroke:#010101; fill:none;"/>
	<path d="M 299.0,745.0 C 296.217,745.193 278.179,752.291 284.0,743.0" style="stroke:#010101; fill:none;"/>
	<path d="M 304.0,746.0 L 314.0,743.0" style="stroke:#010101; fill:none;"/>
	<path d="M 671.0,743.0 L 672.0,743.0" style="stroke:#010101; fill:none;"/>
	<path d="M 668.0,744.0 L 669.0,744.0" style="stroke:#010101; fill:none;"/>
	<path d="M 282.0,746.0 L 277.0,747.0 L 281.0,745.0" style="stroke:#010101; fill:none;"/>
	<path d="M 284.0,745.0 L 284.0,746.0" style="stroke:#010101; fill:none;"/>
	<path d="M 277.0,747.0 L 266.0,753.0 C 274.389,760.961 281.257,756.667 291.0,753.519 C 302.48,749.811 314.936,745.954 327.0,745.0" style="stroke:#010101; fill:none;"/>
	<path d="M 328.0,746.0 L 334.0,745.0" style="stroke:#010101; fill:none;"/>
	<path d="M 665.0,745.0 L 666.0,745.0" style="stroke:#010101; fill:none;"/>
	<path d="M 661.0,746.0 L 663.0,746.0" style="stroke:#010101; fill:none;"/>
	<path d="M 294.0,747.0 L 298.0,747.0" style="stroke:#010101; fill:none;"/>
	<path d="M 646.0,747.0 L 647.0,747.0" style="stroke:#010101; fill:none;"/>
	<path d="M 654.0,747.0 L 658.0,747.0" style="stroke:#010101; fill:none;"/>
	<path d="M 278.0,748.0 L 276.0,752.0" style="stroke:#010101; fill:none;"/>
	<path d="M 281.0,748.0 L 285.0,750.0" style="stroke:#010101; fill:none;"/>
	<path d="M 273.0,749.0 L 275.0,751.0" style="stroke:#010101; fill:none;"/>
	<path d="M 279.0,749.0 L 277.0,750.0" style="stroke:#010101; fill:none;"/>
	<path d="M 324.0,751.0 L 314.0,751.0 L 323.0,749.0" style="stroke:#010101; fill:none;"/>
	<path d="M 283.0,750.0 L 277.0,753.0 L 276.0,752.0" style="stroke:#010101; fill:none;"/>
	<path d="M 270.0,751.0 L 273.0,752.0" style="stroke:#010101; fill:none;"/>
	<path d="M 314.0,757.0 L 305.0,754.0 L 314.0,751.0" style="stroke:#010101; fill:none;"/>
	<path d="M 269.0,755.0 L 263.0,755.0 L 266.0,753.0" style="stroke:#010101; fill:none;"/>
	<path d="M 270.0,753.0 L 275.0,753.0" style="stroke:#010101; fill:none;"/>
	<path d="M 312.0,761.0 C 304.948,761.911 297.727,765.329 291.0,762.0 L 305.0,754.0" style="stroke:#010101; fill:none;"/>
	<path d="M 310.0,755.0 L 315.0,753.0" style="stroke:#010101; fill:none;"/>
	<path d="M 258.0,757.0 L 263.0,755.0" style="stroke:#010101; fill:none;"/>
	<path d="M 278.0,755.0 L 273.0,758.0" style="stroke:#010101; fill:none;"/>
	<path d="M 271.0,756.0 L 270.0,757.0" style="stroke:#010101; fill:none;"/>
	<path d="M 291.0,762.0 L 278.0,764.0 L 299.0,756.0" style="stroke:#010101; fill:none;"/>
	<path d="M 308.0,756.0 C 304.873,758.677 303.058,760.111 299.0,759.0" style="stroke:#010101; fill:none;"/>
	<path d="M 301.0,758.0 L 305.0,757.0" style="stroke:#010101; fill:none;"/>
	<path d="M 262.0,758.0 L 265.0,760.0 L 268.0,756.0" style="stroke:#010101; fill:none;"/>
	<path d="M 322.0,759.0 L 327.0,759.0" style="stroke:#010101; fill:none;"/>
	<path d="M 265.0,761.0 L 261.0,761.0 L 263.0,760.0" style="stroke:#010101; fill:none;"/>
	<path d="M 273.0,763.0 L 268.0,760.0 L 271.0,759.0" style="stroke:#010101; fill:none;"/>
	<path d="M 314.0,760.0 L 320.0,760.0" style="stroke:#010101; fill:none;"/>
	<path d="M 265.0,761.0 L 267.0,765.0 L 267.0,762.0" style="stroke:#010101; fill:none;"/>
	<path d="M 231.0,762.0 L 267.0,795.0" style="stroke:#010101; fill:none;"/>
	<path d="M 288.0,763.0 L 292.0,764.0" style="stroke:#010101; fill:none;"/>
	<path d="M 263.0,764.0 L 264.0,764.0" style="stroke:#010101; fill:none;"/>
	<path d="M 279.0,765.0 L 276.0,767.0 L 278.0,764.0" style="stroke:#010101; fill:none;"/>
	<path d="M 267.0,774.0 L 276.0,766.0" style="stroke:#010101; fill:none;"/>
	<path d="M 289.0,765.0 L 278.0,771.0" style="stroke:#010101; fill:none;"/>
	<path d="M 265.0,766.0 L 262.0,769.0" style="stroke:#010101; fill:none;"/>
	<path d="M 269.0,769.0 L 273.0,767.0" style="stroke:#010101; fill:none;"/>
	<path d="M 265.0,772.0 L 269.0,769.0" style="stroke:#010101; fill:none;"/>
	<path d="M 233.0,771.0 L 225.0,788.0 L 225.0,780.0" style="stroke:#010101; fill:none;"/>
	<path d="M 243.0,775.0 L 226.0,797.0" style="stroke:#010101; fill:none;"/>
	<path d="M 237.0,776.0 L 229.0,791.0" style="stroke:#010101; fill:none;"/>
	<path d="M 227.0,777.0 L 226.0,778.0" style="stroke:#010101; fill:none;"/>
	<path d="M 230.0,794.0 L 241.0,785.0" style="stroke:#010101; fill:none;"/>
	<path d="M 225.0,789.0 L 224.0,795.0" style="stroke:#010101; fill:none;"/>
	<path d="M 342.0,799.0 L 340.0,802.0 C 341.941,793.089 348.989,792.612 357.0,792.128 C 371.792,791.235 383.252,795.32 397.0,800.0" style="stroke:#010101; fill:none;"/>
	<path d="M 321.0,794.0 L 324.0,801.0 L 316.0,806.0 C 320.415,812.069 326.087,814.393 333.0,811.0 L 325.0,801.0" style="stroke:#010101; fill:none;"/>
	<path d="M 356.0,794.0 L 349.0,806.0 C 353.971,807.252 358.418,806.229 360.0,801.0" style="stroke:#010101; fill:none;"/>
	<path d="M 326.0,802.0 C 330.209,798.757 334.605,796.533 340.0,797.0" style="stroke:#010101; fill:none;"/>
	<path d="M 361.0,797.0 L 361.0,799.0" style="stroke:#010101; fill:none;"/>
	<path d="M 216.0,798.0 L 224.0,807.0 L 227.0,799.0" style="stroke:#010101; fill:none;"/>
	<path d="M 297.0,798.0 L 304.0,803.0" style="stroke:#010101; fill:none;"/>
	<path d="M 311.0,800.0 L 316.0,806.0" style="stroke:#010101; fill:none;"/>
	<path d="M 372.0,800.0 C 373.323,804.103 375.174,803.412 377.0,800.0 L 377.0,800.0" style="stroke:#010101; fill:none;"/>
	<path d="M 230.0,803.0 C 228.589,806.717 228.062,808.927 224.0,807.0" style="stroke:#010101; fill:none;"/>
	<path d="M 339.0,803.0 C 342.711,814.541 331.563,820.604 330.184,832.0 C 327.397,855.048 353.763,873.753 374.0,862.0" style="stroke:#010101; fill:none;"/>
	<path d="M 342.0,803.0 L 340.0,806.0" style="stroke:#010101; fill:none;"/>
	<path d="M 360.0,805.0 L 371.0,804.0" style="stroke:#010101; fill:none;"/>
	<path d="M 215.0,805.0 L 221.0,809.0" style="stroke:#010101; fill:none;"/>
	<path d="M 377.0,805.0 C 383.172,805.465 385.973,809.2 389.421,814.0 C 401.644,831.02 393.081,847.146 379.0,860.0" style="stroke:#010101; fill:none;"/>
	<path d="M 314.0,806.0 C 306.851,812.78 312.162,815.334 319.0,819.0 L 308.0,827.0 L 311.0,826.0" style="stroke:#010101; fill:none;"/>
	<path d="M 338.0,806.0 L 340.0,811.0" style="stroke:#010101; fill:none;"/>
	<path d="M 385.0,806.0 C 396.913,807.078 422.131,813.907 426.338,827.173 C 427.984,832.365 416.099,841.407 412.0,839.0" style="stroke:#010101; fill:none;"/>
	<path d="M 332.0,807.0 L 336.0,810.0" style="stroke:#010101; fill:none;"/>
	<path d="M 342.0,810.0 L 349.0,807.0" style="stroke:#010101; fill:none;"/>
	<path d="M 224.0,809.0 L 224.0,817.0" style="stroke:#010101; fill:none;"/>
	<path d="M 304.0,809.0 L 309.0,810.0" style="stroke:#010101; fill:none;"/>
	<path d="M 228.0,810.0 L 230.0,812.0" style="stroke:#010101; fill:none;"/>
	<path d="M 306.0,811.0 L 297.0,819.0 L 305.0,825.0" style="stroke:#010101; fill:none;"/>
	<path d="M 333.0,811.0 L 335.0,811.0" style="stroke:#010101; fill:none;"/>
	<path d="M 403.0,811.0 C 406.023,822.655 414.999,825.876 412.0,839.0" style="stroke:#010101; fill:none;"/>
	<path d="M 228.0,812.0 C 227.084,819.24 223.573,829.333 227.0,836.0" style="stroke:#010101; fill:none;"/>
	<path d="M 306.0,813.0 L 312.0,822.0" style="stroke:#010101; fill:none;"/>
	<path d="M 294.0,815.0 L 296.0,819.0" style="stroke:#010101; fill:none;"/>
	<path d="M 325.0,815.0 L 320.0,819.0" style="stroke:#010101; fill:none;"/>
	<path d="M 208.0,818.0 L 223.0,833.0" style="stroke:#010101; fill:none;"/>
	<path d="M 296.0,819.0 L 293.0,822.0" style="stroke:#010101; fill:none;"/>
	<path d="M 360.039,820.801 C 366.843,818.621 377.392,836.391 365.995,840.076 C 354.929,843.653 349.443,824.195 360.039,820.801" style="stroke:#010101; fill:none;"/>
	<path d="M 285.0,833.0 C 287.826,837.0 293.833,840.059 295.798,844.325 C 301.906,857.586 272.261,858.992 276.028,845.0 C 276.784,842.192 278.665,839.409 280.244,837.001 C 281.822,834.593 283.632,832.259 286.015,830.59 C 290.262,827.617 293.411,831.377 297.0,830.0" style="stroke:#010101; fill:none;"/>
	<path d="M 313.0,829.0 C 304.734,829.786 301.651,838.259 297.0,844.0" style="stroke:#010101; fill:none;"/>
	<path d="M 293.0,831.0 L 295.0,832.0" style="stroke:#010101; fill:none;"/>
	<path d="M 298.0,831.0 L 305.0,833.0" style="stroke:#010101; fill:none;"/>
	<path d="M 297.0,833.0 L 301.0,836.0" style="stroke:#010101; fill:none;"/>
	<path d="M 208.0,834.0 L 230.0,851.0" style="stroke:#010101; fill:none;"/>
	<path d="M 304.0,834.0 L 306.0,836.0 L 304.0,838.0 L 302.0,836.0" style="stroke:#010101; fill:none;"/>
	<path d="M 283.0,835.0 L 290.0,840.0" style="stroke:#010101; fill:none;"/>
	<path d="M 304.0,838.0 C 301.199,844.86 296.721,856.354 298.317,863.911 C 301.42,878.596 325.667,883.188 338.0,881.568 C 365.784,877.918 390.183,858.647 411.0,841.0" style="stroke:#010101; fill:none;"/>
	<path d="M 963.0,838.0 L 967.0,843.0" style="stroke:#010101; fill:none;"/>
	<path d="M 297.0,845.0 L 300.0,848.0" style="stroke:#010101; fill:none;"/>
	<path d="M 281.0,847.0 C 284.101,850.912 287.095,851.881 292.0,852.0" style="stroke:#010101; fill:none;"/>
	<path d="M 274.0,850.0 C 269.679,863.126 280.95,862.186 289.0,869.0 C 293.335,859.797 279.742,858.475 274.0,853.0" style="stroke:#010101; fill:none;"/>
	<path d="M 292.0,857.0 L 291.0,862.0" style="stroke:#010101; fill:none;"/>
	<path d="M 294.0,860.0 L 298.0,859.0" style="stroke:#010101; fill:none;"/>
	<path d="M 208.0,865.0 L 221.0,882.0" style="stroke:#010101; fill:none;"/>
	<path d="M 269.0,865.0 C 273.414,868.401 282.703,873.097 288.0,870.0" style="stroke:#010101; fill:none;"/>
	<path d="M 293.0,867.0 L 297.0,867.0 C 295.433,869.437 294.404,869.596 293.0,867.0" style="stroke:#010101; fill:none;"/>
	<path d="M 290.0,868.0 L 292.0,868.0" style="stroke:#010101; fill:none;"/>
	<path d="M 266.0,870.0 C 272.311,873.524 279.481,876.255 286.0,872.0" style="stroke:#010101; fill:none;"/>
	<path d="M 265.0,873.0 C 271.032,878.377 276.398,880.579 283.0,875.0" style="stroke:#010101; fill:none;"/>
	<path d="M 294.0,878.0 L 283.0,889.0" style="stroke:#010101; fill:none;"/>
	<path d="M 368.0,878.0 L 367.0,880.0" style="stroke:#010101; fill:none;"/>
	<path d="M 300.0,879.0 L 291.0,886.0" style="stroke:#010101; fill:none;"/>
	<path d="M 315.0,879.0 L 315.0,882.0" style="stroke:#010101; fill:none;"/>
	<path d="M 362.0,880.0 L 360.0,885.0" style="stroke:#010101; fill:none;"/>
	<path d="M 299.0,881.0 L 305.0,884.0 L 312.0,883.0" style="stroke:#010101; fill:none;"/>
	<path d="M 351.0,882.0 L 347.0,886.0" style="stroke:#010101; fill:none;"/>
	<path d="M 354.0,882.0 L 352.0,885.0" style="stroke:#010101; fill:none;"/>
	<path d="M 664.0,883.0 C 678.078,889.585 687.964,896.964 699.0,908.0" style="stroke:#010101; fill:none;"/>
	<path d="M 305.0,884.0 L 300.0,888.0" style="stroke:#010101; fill:none;"/>
	<path d="M 338.0,885.0 L 334.0,890.0" style="stroke:#010101; fill:none;"/>
	<path d="M 212.0,887.0 L 219.0,893.0" style="stroke:#010101; fill:none;"/>
	<path d="M 332.0,887.0 L 326.0,899.0" style="stroke:#010101; fill:none;"/>
	<path d="M 341.0,887.0 L 339.0,890.0" style="stroke:#010101; fill:none;"/>
	<path d="M 299.0,890.0 L 298.0,893.0" style="stroke:#010101; fill:none;"/>
	<path d="M 322.0,890.0 L 319.0,893.0" style="stroke:#010101; fill:none;"/>
	<path d="M 325.0,890.0 L 324.0,892.0" style="stroke:#010101; fill:none;"/>
	<path d="M 211.0,899.0 L 217.0,905.0" style="stroke:#010101; fill:none;"/>
	<path d="M 326.0,901.0 L 326.0,903.0" style="stroke:#010101; fill:none;"/>
	<path d="M 699.0,913.0 L 704.0,923.0" style="stroke:#010101; fill:none;"/>
	<path d="M 215.0,919.0 C 231.926,960.489 258.467,998.84 284.576,1035.0 C 322.591,1087.65 366.836,1132.11 416.0,1174.17 C 438.347,1193.29 460.159,1212.5 485.0,1228.46 C 518.65,1250.08 555.41,1266.55 592.0,1282.42 C 627.835,1297.97 667.992,1314.64 707.0,1319.71 C 747.247,1324.94 795.818,1314.48 830.0,1292.3 C 847.361,1281.03 860.464,1263.6 872.291,1247.0 C 899.367,1209.01 916.96,1166.61 935.281,1124.0 C 954.987,1078.17 967.967,1022.92 968.0,973.0" style="stroke:#010101; fill:none;"/>
	<path d="M 213.0,922.0 L 215.0,924.0" style="stroke:#010101; fill:none;"/>
	<path d="M 215.0,925.0 L 216.0,926.0" style="stroke:#010101; fill:none;"/>
	<path d="M 705.0,926.0 C 710.333,953.896 695.997,968.429 671.0,978.0" style="stroke:#010101; fill:none;"/>
	<path d="M 630.0,987.0 C 631.995,962.578 650.648,951.386 673.0,950.0" style="stroke:#010101; fill:none;"/>
	<path d="M 669.0,952.0 C 664.279,961.074 653.445,966.04 644.0,961.0" style="stroke:#010101; fill:none;"/>
	<path d="M 516.0,964.0 L 516.0,967.0" style="stroke:#010101; fill:none;"/>
	<path d="M 967.0,969.0 L 967.0,970.0" style="stroke:#010101; fill:none;"/>
	<path d="M 515.0,970.0 L 514.0,976.0" style="stroke:#010101; fill:none;"/>
	<path d="M 513.0,979.0 L 513.0,980.0" style="stroke:#010101; fill:none;"/>
	<path d="M 514.0,987.0 C 514.0,1011.62 527.91,1022.98 552.0,1023.0" style="stroke:#010101; fill:none;"/>
	<path d="M 627.0,1003.0 L 611.0,1011.0" style="stroke:#010101; fill:none;"/>
	<path d="M 553.0,1015.0 C 545.411,1014.64 548.384,1006.91 554.004,1005.19 C 562.936,1002.45 575.225,1005.87 584.0,1008.0" style="stroke:#010101; fill:none;"/>
	<path d="M 600.0,1011.0 L 601.0,1012.0" style="stroke:#010101; fill:none;"/>
	<path d="M 604.0,1013.0 L 608.0,1013.0" style="stroke:#010101; fill:none;"/>
	<path d="M 667.0,1074.0 C 678.777,1066.52 685.662,1053.83 698.0,1046.88 C 716.97,1036.19 748.661,1038.0 770.0,1038.0" style="stroke:#010101; fill:none;"/>
	<path d="M 963.0,1043.0 L 965.0,1048.0" style="stroke:#010101; fill:none;"/>
	<path d="M 776.0,1067.0 C 786.945,1062.69 798.786,1050.09 811.0,1052.0" style="stroke:#010101; fill:none;"/>
	<path d="M 647.0,1057.0 L 649.0,1057.0" style="stroke:#010101; fill:none;"/>
	<path d="M 757.0,1075.0 L 753.0,1073.0 L 770.0,1069.0" style="stroke:#010101; fill:none;"/>
	<path d="M 738.0,1087.0 L 734.0,1077.0 L 753.0,1073.0" style="stroke:#010101; fill:none;"/>
	<path d="M 756.0,1076.0 C 740.649,1088.18 726.137,1099.96 709.0,1109.58 C 700.298,1114.47 691.787,1109.14 688.0,1121.0 L 704.0,1114.0" style="stroke:#010101; fill:none;"/>
	<path d="M 588.0,1147.0 C 598.496,1129.85 606.68,1106.78 622.039,1093.32 C 632.929,1083.78 645.412,1080.52 659.0,1077.0" style="stroke:#010101; fill:none;"/>
	<path d="M 691.0,1105.0 L 689.0,1101.0 C 702.096,1092.44 718.685,1080.6 734.0,1077.0" style="stroke:#010101; fill:none;"/>
	<path d="M 740.0,1082.0 L 743.0,1083.0" style="stroke:#010101; fill:none;"/>
	<path d="M 801.0,1084.0 C 794.462,1128.27 752.12,1169.87 710.0,1182.0" style="stroke:#010101; fill:none;"/>
	<path d="M 654.0,1131.0 L 647.6,1121.3 L 657.0,1115.74 L 689.0,1101.0" style="stroke:#010101; fill:none;"/>
	<path d="M 694.0,1110.0 L 694.0,1111.0" style="stroke:#010101; fill:none;"/>
	<path d="M 583.0,1163.0 C 585.393,1151.24 602.769,1151.64 612.0,1147.66 C 625.699,1141.75 634.094,1129.39 646.0,1121.0" style="stroke:#010101; fill:none;"/>
	<path d="M 688.0,1121.0 C 675.928,1129.59 661.421,1133.99 647.0,1136.41 C 640.745,1137.46 634.836,1139.11 629.0,1136.0" style="stroke:#010101; fill:none;"/>
	<path d="M 646.0,1126.0 L 643.0,1131.0" style="stroke:#010101; fill:none;"/>
	<path d="M 621.0,1180.0 C 641.502,1196.97 676.544,1190.61 700.0,1184.0" style="stroke:#010101; fill:none;"/>
	<path d="M 440.0,1196.0 L 442.0,1204.0" style="stroke:#010101; fill:none;"/>
	<path d="M 491.0,1236.0 L 490.0,1237.0" style="stroke:#010101; fill:none;"/>
</svg>
