<?xml version="1.0" ?>
<svg baseProfile="full" height="1316" version="1.1" width="1386" xmlns="http://www.w3.org/2000/svg" xmlns:ev="http://www.w3.org/2001/xml-events" xmlns:xlink="http://www.w3.org/1999/xlink">
	<defs/>
	<path d="M 676.0,232.0 L 697.0,227.221 L 733.0,221.0 L 708.0,214.0 L 709.0,214.0" style="stroke:#010101; fill:none;"/>
	<path d="M 706.0,217.0 L 704.0,219.0" style="stroke:#010101; fill:none;"/>
	<path d="M 735.0,220.0 L 735.0,222.0 L 735.0,220.0" style="stroke:#010101; fill:none;"/>
	<path d="M 737.0,221.0 L 740.0,221.0" style="stroke:#010101; fill:none;"/>
	<path d="M 695.0,226.0 L 696.0,227.0" style="stroke:#010101; fill:none;"/>
	<path d="M 709.0,238.0 L 762.0,227.0" style="stroke:#010101; fill:none;"/>
	<path d="M 784.0,233.0 L 785.0,236.0" style="stroke:#010101; fill:none;"/>
	<path d="M 663.0,245.0 L 660.0,241.0 L 687.0,237.0" style="stroke:#010101; fill:none;"/>
	<path d="M 803.0,239.0 C 810.354,246.349 817.885,253.616 829.0,251.0" style="stroke:#010101; fill:none;"/>
	<path d="M 652.0,241.0 L 660.0,241.0" style="stroke:#010101; fill:none;"/>
	<path d="M 821.0,244.0 L 825.0,248.0" style="stroke:#010101; fill:none;"/>
	<path d="M 834.0,247.0 C 843.539,253.744 846.109,287.723 865.0,277.0" style="stroke:#010101; fill:none;"/>
	<path d="M 601.0,264.0 L 620.0,251.0" style="stroke:#010101; fill:none;"/>
	<path d="M 846.0,251.0 L 848.0,257.0 L 842.0,253.0" style="stroke:#010101; fill:none;"/>
	<path d="M 863.0,255.0 L 865.0,257.0" style="stroke:#010101; fill:none;"/>
	<path d="M 848.0,257.0 L 857.0,267.0" style="stroke:#010101; fill:none;"/>
	<path d="M 584.0,283.0 C 587.577,284.043 595.899,277.703 599.0,275.564 C 609.332,268.437 620.953,258.596 634.0,258.0" style="stroke:#010101; fill:none;"/>
	<path d="M 874.0,258.0 L 878.0,261.0" style="stroke:#010101; fill:none;"/>
	<path d="M 922.0,271.0 C 927.719,273.079 938.801,276.007 943.29,279.599 C 948.912,284.097 948.547,288.563 951.066,294.424 C 956.07,306.069 966.426,321.893 965.683,335.0 C 965.373,340.458 961.362,345.972 959.428,351.0 C 955.462,361.314 952.229,371.958 951.17,383.0 C 948.468,411.163 955.14,441.793 972.0,465.0" style="stroke:#010101; fill:none;"/>
	<path d="M 938.0,279.0 L 946.0,291.0 L 947.0,291.0 L 948.0,291.0 L 949.0,291.0" style="stroke:#010101; fill:none;"/>
	<path d="M 946.0,283.0 L 943.0,286.0" style="stroke:#010101; fill:none;"/>
	<path d="M 584.0,286.0 L 583.0,284.0" style="stroke:#010101; fill:none;"/>
	<path d="M 582.0,287.0 L 571.0,295.0" style="stroke:#010101; fill:none;"/>
	<path d="M 584.0,301.0 L 603.0,288.0" style="stroke:#010101; fill:none;"/>
	<path d="M 943.0,292.0 L 943.0,317.0" style="stroke:#010101; fill:none;"/>
	<path d="M 950.0,294.0 L 945.0,298.0" style="stroke:#010101; fill:none;"/>
	<path d="M 581.0,303.0 L 537.0,337.0" style="stroke:#010101; fill:none;"/>
	<path d="M 951.0,305.0 C 951.276,317.039 952.905,327.456 944.0,337.0" style="stroke:#010101; fill:none;"/>
	<path d="M 562.0,306.0 L 558.0,309.0" style="stroke:#010101; fill:none;"/>
	<path d="M 957.0,310.0 L 955.0,320.0" style="stroke:#010101; fill:none;"/>
	<path d="M 496.0,463.0 C 505.628,434.54 516.15,405.977 527.089,378.0 C 531.273,367.301 537.676,349.925 548.0,344.0 C 546.5,329.697 570.033,316.127 581.0,311.0" style="stroke:#010101; fill:none;"/>
	<path d="M 562.0,317.0 L 565.0,315.0" style="stroke:#010101; fill:none;"/>
	<path d="M 564.0,319.0 L 562.0,321.0" style="stroke:#010101; fill:none;"/>
	<path d="M 942.0,319.0 L 939.0,326.0" style="stroke:#010101; fill:none;"/>
	<path d="M 955.0,322.0 L 955.0,323.0" style="stroke:#010101; fill:none;"/>
	<path d="M 533.0,347.0 L 550.0,335.0" style="stroke:#010101; fill:none;"/>
	<path d="M 558.0,336.0 L 549.0,344.0" style="stroke:#010101; fill:none;"/>
	<path d="M 537.0,358.0 L 537.0,355.0" style="stroke:#010101; fill:none;"/>
	<path d="M 530.0,360.0 L 535.0,356.0" style="stroke:#010101; fill:none;"/>
	<path d="M 521.0,378.0 L 528.0,374.0" style="stroke:#010101; fill:none;"/>
	<path d="M 601.0,387.0 L 614.0,390.0" style="stroke:#010101; fill:none;"/>
	<path d="M 615.0,389.0 C 622.55,390.099 625.928,390.857 631.0,397.0 C 637.404,390.822 642.573,391.429 650.0,396.0 L 644.0,401.0 C 648.188,407.873 652.641,411.657 660.0,406.0 L 655.0,402.0 C 659.722,399.819 670.299,406.332 675.0,409.0 L 667.0,409.0" style="stroke:#010101; fill:none;"/>
	<path d="M 627.0,389.0 L 631.0,391.0" style="stroke:#010101; fill:none;"/>
	<path d="M 632.0,390.0 L 636.0,393.0" style="stroke:#010101; fill:none;"/>
	<path d="M 570.0,392.0 C 574.486,392.926 575.381,394.622 576.0,399.0 L 583.0,393.0 L 581.0,396.0" style="stroke:#010101; fill:none;"/>
	<path d="M 584.0,392.0 L 620.0,395.308 L 638.0,396.0 L 636.0,393.0" style="stroke:#010101; fill:none;"/>
	<path d="M 574.0,393.0 L 575.0,395.0" style="stroke:#010101; fill:none;"/>
	<path d="M 578.0,395.0 L 579.0,393.0" style="stroke:#010101; fill:none;"/>
	<path d="M 627.0,393.0 L 624.0,396.0" style="stroke:#010101; fill:none;"/>
	<path d="M 631.0,393.0 L 633.0,393.0" style="stroke:#010101; fill:none;"/>
	<path d="M 582.0,395.0 C 584.198,396.846 586.715,399.572 589.0,397.0" style="stroke:#010101; fill:none;"/>
	<path d="M 560.0,396.0 L 573.0,396.0" style="stroke:#010101; fill:none;"/>
	<path d="M 585.0,396.0 L 586.0,396.0" style="stroke:#010101; fill:none;"/>
	<path d="M 638.0,396.0 L 642.0,397.0 L 641.0,402.0 L 642.0,402.0 L 642.0,400.0" style="stroke:#010101; fill:none;"/>
	<path d="M 579.0,397.0 L 584.0,399.0" style="stroke:#010101; fill:none;"/>
	<path d="M 592.0,400.0 L 593.0,397.0" style="stroke:#010101; fill:none;"/>
	<path d="M 619.0,397.0 L 622.0,397.0" style="stroke:#010101; fill:none;"/>
	<path d="M 637.0,397.0 L 633.0,399.0" style="stroke:#010101; fill:none;"/>
	<path d="M 642.0,397.0 L 646.0,399.0" style="stroke:#010101; fill:none;"/>
	<path d="M 566.0,399.0 L 568.0,401.0 L 560.0,402.0" style="stroke:#010101; fill:none;"/>
	<path d="M 595.0,398.0 L 596.0,398.0" style="stroke:#010101; fill:none;"/>
	<path d="M 598.0,398.0 L 600.0,399.0" style="stroke:#010101; fill:none;"/>
	<path d="M 577.0,402.0 L 570.0,400.0 L 574.0,399.0" style="stroke:#010101; fill:none;"/>
	<path d="M 635.0,400.0 L 640.0,399.0" style="stroke:#010101; fill:none;"/>
	<path d="M 648.0,399.0 L 647.0,404.0" style="stroke:#010101; fill:none;"/>
	<path d="M 650.0,401.0 L 654.0,402.0" style="stroke:#010101; fill:none;"/>
	<path d="M 579.0,402.0 L 580.0,402.0" style="stroke:#010101; fill:none;"/>
	<path d="M 636.0,402.0 L 640.0,402.0" style="stroke:#010101; fill:none;"/>
	<path d="M 660.0,402.0 L 658.0,404.0" style="stroke:#010101; fill:none;"/>
	<path d="M 639.0,403.0 L 646.0,406.0" style="stroke:#010101; fill:none;"/>
	<path d="M 560.0,405.0 L 572.0,404.0" style="stroke:#010101; fill:none;"/>
	<path d="M 667.0,404.0 L 669.0,405.0" style="stroke:#010101; fill:none;"/>
	<path d="M 661.0,407.0 L 665.0,408.0" style="stroke:#010101; fill:none;"/>
	<path d="M 559.0,409.0 L 565.0,408.0" style="stroke:#010101; fill:none;"/>
	<path d="M 675.0,409.0 L 679.0,411.0" style="stroke:#010101; fill:none;"/>
	<path d="M 669.0,416.0 L 671.0,422.0 L 676.0,417.0 C 667.404,411.854 660.122,410.761 651.0,414.0 L 651.0,413.0 L 651.0,411.0 L 651.0,411.0" style="stroke:#010101; fill:none;"/>
	<path d="M 652.0,412.0 L 676.0,433.0 L 667.0,424.0" style="stroke:#010101; fill:none;"/>
	<path d="M 661.0,412.0 L 667.0,419.0" style="stroke:#010101; fill:none;"/>
	<path d="M 678.0,413.0 L 682.0,415.0" style="stroke:#010101; fill:none;"/>
	<path d="M 667.0,414.0 L 665.0,416.0" style="stroke:#010101; fill:none;"/>
	<path d="M 673.0,416.0 L 669.0,420.0 L 669.0,418.0" style="stroke:#010101; fill:none;"/>
	<path d="M 677.0,417.0 L 674.0,420.0" style="stroke:#010101; fill:none;"/>
	<path d="M 680.0,420.0 L 685.0,420.0 L 679.0,418.0" style="stroke:#010101; fill:none;"/>
	<path d="M 671.0,418.0 L 673.0,420.0" style="stroke:#010101; fill:none;"/>
	<path d="M 612.0,420.0 L 612.0,421.0" style="stroke:#010101; fill:none;"/>
	<path d="M 659.0,420.0 L 661.0,421.0" style="stroke:#010101; fill:none;"/>
	<path d="M 680.0,420.0 C 677.258,429.931 690.913,441.331 697.0,448.0" style="stroke:#010101; fill:none;"/>
	<path d="M 617.0,421.0 C 617.827,431.472 621.772,443.258 629.0,451.0 L 629.0,443.0 L 625.0,447.0" style="stroke:#010101; fill:none;"/>
	<path d="M 675.0,421.0 L 673.0,425.0 C 675.899,424.46 676.252,423.925 676.0,421.0" style="stroke:#010101; fill:none;"/>
	<path d="M 685.0,421.0 C 689.689,424.029 696.35,434.583 701.0,430.0 L 696.0,432.0" style="stroke:#010101; fill:none;"/>
	<path d="M 603.0,423.0 C 604.339,432.068 608.71,441.57 614.0,449.0 L 613.0,425.0" style="stroke:#010101; fill:none;"/>
	<path d="M 631.0,423.0 L 629.0,443.0" style="stroke:#010101; fill:none;"/>
	<path d="M 662.0,423.0 L 666.0,424.0" style="stroke:#010101; fill:none;"/>
	<path d="M 675.0,423.0 L 679.0,431.0 L 676.0,427.0" style="stroke:#010101; fill:none;"/>
	<path d="M 636.0,424.0 C 633.356,432.944 634.931,445.847 641.0,453.0 L 645.0,430.0" style="stroke:#010101; fill:none;"/>
	<path d="M 680.0,424.0 L 678.0,426.0" style="stroke:#010101; fill:none;"/>
	<path d="M 622.0,426.0 L 620.0,434.0" style="stroke:#010101; fill:none;"/>
	<path d="M 682.0,426.0 L 679.0,428.0" style="stroke:#010101; fill:none;"/>
	<path d="M 596.0,427.0 L 595.0,437.0 L 592.0,431.0" style="stroke:#010101; fill:none;"/>
	<path d="M 694.0,427.0 L 699.0,429.0" style="stroke:#010101; fill:none;"/>
	<path d="M 681.0,429.0 L 683.0,429.0" style="stroke:#010101; fill:none;"/>
	<path d="M 685.0,430.0 L 688.0,431.0" style="stroke:#010101; fill:none;"/>
	<path d="M 701.0,430.0 L 707.0,432.0 L 703.0,430.0" style="stroke:#010101; fill:none;"/>
	<path d="M 650.0,431.0 L 644.0,456.0 C 654.986,457.553 653.529,438.82 658.0,432.0" style="stroke:#010101; fill:none;"/>
	<path d="M 680.0,431.0 L 682.0,433.0" style="stroke:#010101; fill:none;"/>
	<path d="M 689.0,432.0 L 725.0,467.0" style="stroke:#010101; fill:none;"/>
	<path d="M 707.0,432.0 L 732.0,449.0" style="stroke:#010101; fill:none;"/>
	<path d="M 677.0,433.0 L 689.0,446.0" style="stroke:#010101; fill:none;"/>
	<path d="M 688.0,434.0 L 693.0,435.0" style="stroke:#010101; fill:none;"/>
	<path d="M 699.0,434.0 L 723.0,459.0 C 726.805,450.058 711.481,439.281 705.0,434.0" style="stroke:#010101; fill:none;"/>
	<path d="M 675.0,435.0 L 676.0,436.0" style="stroke:#010101; fill:none;"/>
	<path d="M 599.0,436.0 L 600.0,442.0 L 595.0,437.0" style="stroke:#010101; fill:none;"/>
	<path d="M 693.0,437.0 L 696.0,438.0" style="stroke:#010101; fill:none;"/>
	<path d="M 574.0,439.0 C 575.478,448.306 584.657,454.657 591.0,461.0 C 588.356,465.347 589.797,467.349 593.0,471.0 L 599.0,466.0 L 592.0,461.0" style="stroke:#010101; fill:none;"/>
	<path d="M 663.0,439.0 C 660.556,444.522 659.04,449.446 662.0,455.0 C 665.397,451.401 667.759,448.026 673.0,449.0" style="stroke:#010101; fill:none;"/>
	<path d="M 584.0,440.0 L 589.0,444.0" style="stroke:#010101; fill:none;"/>
	<path d="M 588.0,440.0 L 589.0,444.0" style="stroke:#010101; fill:none;"/>
	<path d="M 715.0,441.0 L 716.0,444.0" style="stroke:#010101; fill:none;"/>
	<path d="M 968.0,441.0 L 976.0,457.0" style="stroke:#010101; fill:none;"/>
	<path d="M 696.0,442.0 L 718.0,464.0" style="stroke:#010101; fill:none;"/>
	<path d="M 700.0,442.0 L 698.0,444.0" style="stroke:#010101; fill:none;"/>
	<path d="M 601.0,443.0 C 608.415,452.688 614.485,451.793 624.0,446.0" style="stroke:#010101; fill:none;"/>
	<path d="M 610.0,443.0 L 606.0,447.0" style="stroke:#010101; fill:none;"/>
	<path d="M 718.0,443.0 L 719.0,448.0" style="stroke:#010101; fill:none;"/>
	<path d="M 719.0,444.0 L 717.0,446.0" style="stroke:#010101; fill:none;"/>
	<path d="M 590.0,445.0 L 599.0,457.0 L 602.0,451.0 L 598.0,454.0" style="stroke:#010101; fill:none;"/>
	<path d="M 974.0,445.0 L 973.0,450.0" style="stroke:#010101; fill:none;"/>
	<path d="M 976.0,445.0 L 976.0,449.0" style="stroke:#010101; fill:none;"/>
	<path d="M 643.0,446.0 L 646.0,446.0" style="stroke:#010101; fill:none;"/>
	<path d="M 722.0,446.0 L 737.0,461.0" style="stroke:#010101; fill:none;"/>
	<path d="M 979.0,446.0 L 978.0,453.0" style="stroke:#010101; fill:none;"/>
	<path d="M 983.0,446.0 C 984.147,461.883 977.55,476.618 974.449,492.0 C 968.188,523.06 961.111,554.302 958.938,586.0 C 957.45,607.718 956.1,631.257 958.17,653.0 C 959.408,666.006 960.42,679.046 962.271,692.0 C 963.191,698.439 965.819,706.567 964.656,713.0 C 963.092,721.65 956.159,732.199 952.0,740.0" style="stroke:#010101; fill:none;"/>
	<path d="M 589.0,447.0 L 590.0,448.0" style="stroke:#010101; fill:none;"/>
	<path d="M 602.0,447.0 L 602.0,451.0" style="stroke:#010101; fill:none;"/>
	<path d="M 712.0,447.0 L 712.0,452.0" style="stroke:#010101; fill:none;"/>
	<path d="M 576.0,448.0 L 579.0,450.0" style="stroke:#010101; fill:none;"/>
	<path d="M 614.0,449.0 C 614.103,461.282 619.557,457.664 629.0,457.498 C 635.24,457.389 638.305,460.096 644.0,456.0" style="stroke:#010101; fill:none;"/>
	<path d="M 630.0,456.0 L 636.0,450.0" style="stroke:#010101; fill:none;"/>
	<path d="M 558.0,451.0 C 562.862,456.97 569.867,466.258 578.0,467.0 L 576.0,465.0" style="stroke:#010101; fill:none;"/>
	<path d="M 581.0,451.0 C 577.608,457.004 583.893,460.893 588.0,465.0" style="stroke:#010101; fill:none;"/>
	<path d="M 608.0,451.0 C 603.259,458.797 614.135,462.356 614.0,470.0 L 610.0,462.0" style="stroke:#010101; fill:none;"/>
	<path d="M 577.0,452.0 L 578.0,453.0" style="stroke:#010101; fill:none;"/>
	<path d="M 629.0,452.0 L 630.0,453.0" style="stroke:#010101; fill:none;"/>
	<path d="M 594.0,453.0 L 588.0,457.0" style="stroke:#010101; fill:none;"/>
	<path d="M 603.0,453.0 L 605.0,455.0" style="stroke:#010101; fill:none;"/>
	<path d="M 642.0,453.0 L 644.0,455.0" style="stroke:#010101; fill:none;"/>
	<path d="M 672.0,453.0 L 662.746,464.0 L 662.0,474.0 L 662.0,467.0" style="stroke:#010101; fill:none;"/>
	<path d="M 711.0,454.0 L 713.0,456.0" style="stroke:#010101; fill:none;"/>
	<path d="M 727.0,457.0 L 726.0,454.0 L 730.0,458.0" style="stroke:#010101; fill:none;"/>
	<path d="M 661.0,465.0 C 651.918,463.745 649.253,455.811 660.0,455.0" style="stroke:#010101; fill:none;"/>
	<path d="M 662.0,455.0 L 663.0,461.0" style="stroke:#010101; fill:none;"/>
	<path d="M 598.0,456.0 L 594.0,460.0" style="stroke:#010101; fill:none;"/>
	<path d="M 570.0,457.0 L 577.0,464.0" style="stroke:#010101; fill:none;"/>
	<path d="M 583.0,460.0 L 587.0,457.0" style="stroke:#010101; fill:none;"/>
	<path d="M 600.0,457.0 L 608.0,464.0" style="stroke:#010101; fill:none;"/>
	<path d="M 648.0,457.0 L 651.0,460.0" style="stroke:#010101; fill:none;"/>
	<path d="M 727.0,457.0 L 733.0,468.0" style="stroke:#010101; fill:none;"/>
	<path d="M 974.0,457.0 L 974.0,468.0" style="stroke:#010101; fill:none;"/>
	<path d="M 557.0,458.0 C 562.617,463.616 584.147,486.366 591.0,473.0 L 578.0,466.0" style="stroke:#010101; fill:none;"/>
	<path d="M 667.0,458.0 L 701.0,495.0" style="stroke:#010101; fill:none;"/>
	<path d="M 588.0,459.0 L 585.0,462.0" style="stroke:#010101; fill:none;"/>
	<path d="M 615.0,459.0 L 611.0,463.0" style="stroke:#010101; fill:none;"/>
	<path d="M 725.0,460.0 L 728.0,467.0" style="stroke:#010101; fill:none;"/>
	<path d="M 725.0,462.0 L 723.0,464.0" style="stroke:#010101; fill:none;"/>
	<path d="M 591.0,464.0 L 596.0,468.0" style="stroke:#010101; fill:none;"/>
	<path d="M 605.0,464.0 C 593.541,476.08 604.193,484.614 617.0,490.0 L 614.0,488.0" style="stroke:#010101; fill:none;"/>
	<path d="M 673.0,464.0 C 672.034,468.893 670.946,474.639 665.0,472.0" style="stroke:#010101; fill:none;"/>
	<path d="M 600.0,466.0 L 601.0,467.0" style="stroke:#010101; fill:none;"/>
	<path d="M 678.0,468.0 L 670.0,476.0 L 676.0,485.0 L 685.0,477.0" style="stroke:#010101; fill:none;"/>
	<path d="M 594.0,470.0 L 597.0,473.0" style="stroke:#010101; fill:none;"/>
	<path d="M 614.0,470.0 L 616.0,487.0" style="stroke:#010101; fill:none;"/>
	<path d="M 635.0,474.0 C 650.901,464.867 641.62,495.285 629.434,480.916 C 628.139,479.389 627.63,477.847 627.0,476.0 C 630.999,475.893 632.564,475.101 633.0,471.0" style="stroke:#010101; fill:none;"/>
	<path d="M 593.0,471.0 L 591.0,473.0" style="stroke:#010101; fill:none;"/>
	<path d="M 682.0,473.0 L 675.0,480.0" style="stroke:#010101; fill:none;"/>
	<path d="M 654.0,474.0 C 656.202,483.251 654.641,489.157 647.0,495.0" style="stroke:#010101; fill:none;"/>
	<path d="M 666.0,474.0 L 662.0,475.0" style="stroke:#010101; fill:none;"/>
	<path d="M 564.0,475.0 L 580.0,477.0" style="stroke:#010101; fill:none;"/>
	<path d="M 594.0,477.0 L 590.0,478.0" style="stroke:#010101; fill:none;"/>
	<path d="M 848.0,479.0 L 850.0,479.0" style="stroke:#010101; fill:none;"/>
	<path d="M 877.0,480.0 L 894.0,485.0 L 862.0,493.0" style="stroke:#010101; fill:none;"/>
	<path d="M 890.0,480.0 L 924.0,490.0 L 921.0,494.0 L 931.0,493.0 L 924.0,490.0" style="stroke:#010101; fill:none;"/>
	<path d="M 910.0,481.0 L 929.0,485.0" style="stroke:#010101; fill:none;"/>
	<path d="M 930.0,481.0 L 937.0,483.0" style="stroke:#010101; fill:none;"/>
	<path d="M 684.0,495.0 L 683.0,498.0 C 680.802,491.989 678.243,484.564 687.0,483.0" style="stroke:#010101; fill:none;"/>
	<path d="M 847.0,482.0 L 852.0,482.0" style="stroke:#010101; fill:none;"/>
	<path d="M 860.0,482.0 L 883.0,484.0" style="stroke:#010101; fill:none;"/>
	<path d="M 587.0,489.0 L 601.0,483.0" style="stroke:#010101; fill:none;"/>
	<path d="M 583.0,487.0 L 591.0,484.0" style="stroke:#010101; fill:none;"/>
	<path d="M 939.0,484.0 C 944.883,487.896 956.373,492.549 953.0,501.0 L 939.0,489.0 L 938.0,490.0 L 939.0,491.0 L 941.0,491.0" style="stroke:#010101; fill:none;"/>
	<path d="M 677.0,485.0 L 680.0,488.0" style="stroke:#010101; fill:none;"/>
	<path d="M 838.0,490.0 C 847.302,485.33 858.926,485.646 869.0,485.0" style="stroke:#010101; fill:none;"/>
	<path d="M 858.0,485.0 L 862.0,485.0" style="stroke:#010101; fill:none;"/>
	<path d="M 877.0,485.0 L 877.0,487.0" style="stroke:#010101; fill:none;"/>
	<path d="M 894.0,485.0 L 906.0,489.0 L 881.0,492.0 L 885.0,494.0" style="stroke:#010101; fill:none;"/>
	<path d="M 924.0,485.0 L 925.0,485.0" style="stroke:#010101; fill:none;"/>
	<path d="M 930.0,486.0 L 934.0,488.0 L 932.0,486.0" style="stroke:#010101; fill:none;"/>
	<path d="M 596.0,487.0 L 603.0,489.0 L 595.0,495.0" style="stroke:#010101; fill:none;"/>
	<path d="M 603.0,487.0 L 604.0,489.0" style="stroke:#010101; fill:none;"/>
	<path d="M 591.0,491.0 L 595.0,488.0" style="stroke:#010101; fill:none;"/>
	<path d="M 682.0,493.0 L 689.0,488.0" style="stroke:#010101; fill:none;"/>
	<path d="M 845.0,491.0 L 857.0,488.0" style="stroke:#010101; fill:none;"/>
	<path d="M 934.0,488.0 L 936.0,488.0" style="stroke:#010101; fill:none;"/>
	<path d="M 597.0,489.0 L 593.0,492.0" style="stroke:#010101; fill:none;"/>
	<path d="M 743.0,489.0 L 748.0,515.0" style="stroke:#010101; fill:none;"/>
	<path d="M 906.0,489.0 L 921.0,494.0 L 889.0,504.0" style="stroke:#010101; fill:none;"/>
	<path d="M 606.0,490.0 L 610.0,490.0" style="stroke:#010101; fill:none;"/>
	<path d="M 617.0,490.0 C 619.781,493.768 619.395,495.677 618.0,500.0 L 622.0,498.0" style="stroke:#010101; fill:none;"/>
	<path d="M 863.0,492.0 L 866.0,490.0" style="stroke:#010101; fill:none;"/>
	<path d="M 886.0,492.0 L 893.0,491.0" style="stroke:#010101; fill:none;"/>
	<path d="M 604.0,492.0 L 597.0,503.0" style="stroke:#010101; fill:none;"/>
	<path d="M 611.0,494.0 L 609.0,493.0 L 614.0,494.0" style="stroke:#010101; fill:none;"/>
	<path d="M 831.0,497.0 L 843.0,492.0" style="stroke:#010101; fill:none;"/>
	<path d="M 852.0,497.0 L 861.0,493.0" style="stroke:#010101; fill:none;"/>
	<path d="M 881.0,495.0 L 876.0,494.0 L 881.0,492.0" style="stroke:#010101; fill:none;"/>
	<path d="M 828.0,503.0 C 836.511,497.629 847.044,494.341 857.0,493.0" style="stroke:#010101; fill:none;"/>
	<path d="M 870.0,497.0 C 868.618,492.918 873.403,493.713 876.0,495.0 L 845.0,504.0" style="stroke:#010101; fill:none;"/>
	<path d="M 895.0,496.0 L 914.0,492.0" style="stroke:#010101; fill:none;"/>
	<path d="M 931.0,493.0 L 947.0,495.0" style="stroke:#010101; fill:none;"/>
	<path d="M 609.0,494.0 L 601.06,503.907 L 608.0,511.456 L 637.0,521.0" style="stroke:#010101; fill:none;"/>
	<path d="M 622.0,494.0 L 628.0,498.0 L 617.0,508.0 L 615.0,504.0 L 614.0,506.0 L 614.0,507.0 L 613.0,508.0 L 613.0,509.0" style="stroke:#010101; fill:none;"/>
	<path d="M 690.0,494.0 L 691.0,494.0" style="stroke:#010101; fill:none;"/>
	<path d="M 858.0,494.0 L 860.0,494.0" style="stroke:#010101; fill:none;"/>
	<path d="M 872.0,494.0 L 874.0,496.0" style="stroke:#010101; fill:none;"/>
	<path d="M 952.0,495.0 L 953.0,497.0" style="stroke:#010101; fill:none;"/>
	<path d="M 866.0,498.0 L 866.0,495.0" style="stroke:#010101; fill:none;"/>
	<path d="M 949.0,496.0 L 952.0,495.0" style="stroke:#010101; fill:none;"/>
	<path d="M 685.0,496.0 L 704.0,515.0" style="stroke:#010101; fill:none;"/>
	<path d="M 862.0,499.0 L 860.0,497.0 L 864.0,496.0" style="stroke:#010101; fill:none;"/>
	<path d="M 873.0,502.0 L 893.0,496.0" style="stroke:#010101; fill:none;"/>
	<path d="M 922.0,496.0 C 923.303,500.011 915.354,501.179 914.0,499.0" style="stroke:#010101; fill:none;"/>
	<path d="M 927.0,496.0 L 925.0,498.0 L 929.0,497.0" style="stroke:#010101; fill:none;"/>
	<path d="M 939.0,496.0 L 935.0,500.0 L 952.0,501.0" style="stroke:#010101; fill:none;"/>
	<path d="M 637.0,497.0 L 640.0,497.0" style="stroke:#010101; fill:none;"/>
	<path d="M 855.0,498.0 L 860.0,497.0" style="stroke:#010101; fill:none;"/>
	<path d="M 930.0,498.0 C 928.609,500.201 931.125,500.674 933.0,501.0 L 934.0,501.0" style="stroke:#010101; fill:none;"/>
	<path d="M 628.0,498.0 L 637.0,501.0 L 635.0,509.0" style="stroke:#010101; fill:none;"/>
	<path d="M 837.0,504.0 L 851.0,498.0" style="stroke:#010101; fill:none;"/>
	<path d="M 874.0,503.0 L 907.0,498.0" style="stroke:#010101; fill:none;"/>
	<path d="M 919.0,498.0 L 920.0,499.0" style="stroke:#010101; fill:none;"/>
	<path d="M 931.0,498.0 L 935.0,498.0" style="stroke:#010101; fill:none;"/>
	<path d="M 631.0,499.0 L 628.0,508.0" style="stroke:#010101; fill:none;"/>
	<path d="M 618.0,500.0 L 616.0,503.0" style="stroke:#010101; fill:none;"/>
	<path d="M 684.0,500.0 L 682.0,508.0 C 687.053,511.555 692.917,514.067 699.0,512.0" style="stroke:#010101; fill:none;"/>
	<path d="M 908.0,500.0 L 913.0,500.0" style="stroke:#010101; fill:none;"/>
	<path d="M 638.0,501.0 L 653.0,505.0 L 651.0,511.0" style="stroke:#010101; fill:none;"/>
	<path d="M 954.0,501.0 L 957.0,504.0" style="stroke:#010101; fill:none;"/>
	<path d="M 620.0,504.0 L 623.0,503.0" style="stroke:#010101; fill:none;"/>
	<path d="M 782.0,563.0 C 784.835,541.963 798.34,506.22 822.0,502.0" style="stroke:#010101; fill:none;"/>
	<path d="M 864.0,504.0 L 871.0,502.0" style="stroke:#010101; fill:none;"/>
	<path d="M 951.0,502.0 L 954.0,507.0" style="stroke:#010101; fill:none;"/>
	<path d="M 641.0,504.0 L 639.0,509.0" style="stroke:#010101; fill:none;"/>
	<path d="M 621.0,505.0 L 621.0,507.0" style="stroke:#010101; fill:none;"/>
	<path d="M 636.0,505.0 L 636.0,506.0" style="stroke:#010101; fill:none;"/>
	<path d="M 645.0,505.0 L 643.0,510.0" style="stroke:#010101; fill:none;"/>
	<path d="M 653.0,505.0 L 681.0,508.0" style="stroke:#010101; fill:none;"/>
	<path d="M 634.0,507.0 L 632.0,509.0" style="stroke:#010101; fill:none;"/>
	<path d="M 661.0,507.0 L 661.0,509.0" style="stroke:#010101; fill:none;"/>
	<path d="M 953.0,507.0 L 954.0,507.0" style="stroke:#010101; fill:none;"/>
	<path d="M 956.0,507.0 L 959.0,508.0" style="stroke:#010101; fill:none;"/>
	<path d="M 487.0,508.0 L 487.0,509.0" style="stroke:#010101; fill:none;"/>
	<path d="M 647.0,508.0 L 647.0,510.0" style="stroke:#010101; fill:none;"/>
	<path d="M 656.0,510.0 L 656.0,511.0" style="stroke:#010101; fill:none;"/>
	<path d="M 896.0,517.0 L 896.0,529.0 L 900.0,523.0" style="stroke:#010101; fill:none;"/>
	<path d="M 905.0,519.0 L 902.0,536.0 C 910.735,536.591 912.071,531.478 915.0,524.0" style="stroke:#010101; fill:none;"/>
	<path d="M 640.0,521.0 L 643.0,521.0" style="stroke:#010101; fill:none;"/>
	<path d="M 911.0,521.0 L 913.0,528.0" style="stroke:#010101; fill:none;"/>
	<path d="M 645.0,522.0 L 646.0,522.0" style="stroke:#010101; fill:none;"/>
	<path d="M 648.0,522.0 L 650.0,522.0" style="stroke:#010101; fill:none;"/>
	<path d="M 663.0,523.0 L 665.0,523.0" style="stroke:#010101; fill:none;"/>
	<path d="M 920.0,525.0 C 919.656,532.512 916.318,536.057 911.0,541.0 L 921.0,552.0 L 926.0,550.0" style="stroke:#010101; fill:none;"/>
	<path d="M 879.0,536.0 C 868.383,535.709 856.01,543.061 849.0,534.0 C 855.45,530.565 883.413,518.463 880.0,535.0 L 902.0,536.0" style="stroke:#010101; fill:none;"/>
	<path d="M 746.0,527.0 L 740.0,534.0" style="stroke:#010101; fill:none;"/>
	<path d="M 876.0,527.0 L 875.0,535.0" style="stroke:#010101; fill:none;"/>
	<path d="M 881.0,528.0 L 888.0,528.0 L 886.0,535.0" style="stroke:#010101; fill:none;"/>
	<path d="M 888.0,528.0 L 894.0,529.0" style="stroke:#010101; fill:none;"/>
	<path d="M 927.0,528.0 L 920.0,543.0 L 926.0,547.0" style="stroke:#010101; fill:none;"/>
	<path d="M 893.0,529.0 L 893.0,535.0" style="stroke:#010101; fill:none;"/>
	<path d="M 898.0,529.0 L 902.0,533.0" style="stroke:#010101; fill:none;"/>
	<path d="M 868.0,530.0 L 869.0,536.0" style="stroke:#010101; fill:none;"/>
	<path d="M 854.0,541.0 C 850.255,540.353 846.903,537.889 849.0,534.0" style="stroke:#010101; fill:none;"/>
	<path d="M 827.0,543.0 L 847.0,535.0" style="stroke:#010101; fill:none;"/>
	<path d="M 932.0,537.0 L 925.0,544.0" style="stroke:#010101; fill:none;"/>
	<path d="M 476.0,538.0 C 476.0,566.493 479.154,594.427 478.039,623.0 C 477.645,633.094 479.465,645.722 475.0,655.0 L 472.0,636.0" style="stroke:#010101; fill:none;"/>
	<path d="M 910.0,538.0 L 910.0,540.0" style="stroke:#010101; fill:none;"/>
	<path d="M 864.0,539.0 L 860.0,540.0" style="stroke:#010101; fill:none;"/>
	<path d="M 938.0,540.0 L 928.0,549.0" style="stroke:#010101; fill:none;"/>
	<path d="M 844.0,542.0 C 847.113,543.812 847.887,543.811 851.0,542.0" style="stroke:#010101; fill:none;"/>
	<path d="M 863.0,542.0 C 853.442,557.094 866.62,562.397 879.0,567.396 C 900.175,575.947 931.713,582.138 954.0,578.0" style="stroke:#010101; fill:none;"/>
	<path d="M 911.0,542.0 L 898.0,567.0" style="stroke:#010101; fill:none;"/>
	<path d="M 882.0,546.0 L 876.0,548.0 C 877.377,544.27 878.854,543.253 882.0,546.0" style="stroke:#010101; fill:none;"/>
	<path d="M 927.0,544.0 L 937.0,559.0 C 931.416,556.109 926.531,555.019 926.0,548.0" style="stroke:#010101; fill:none;"/>
	<path d="M 837.0,545.0 L 846.0,545.0" style="stroke:#010101; fill:none;"/>
	<path d="M 883.0,546.0 C 885.591,546.768 889.419,545.487 891.642,547.036 C 894.611,549.105 892.657,553.548 890.581,555.486 C 884.294,561.358 875.578,556.645 875.0,549.0" style="stroke:#010101; fill:none;"/>
	<path d="M 935.0,548.0 C 933.766,544.915 936.324,547.127 939.0,546.0 L 940.0,545.0 L 941.0,545.0" style="stroke:#010101; fill:none;"/>
	<path d="M 841.0,547.0 L 830.0,554.0 C 837.856,558.535 850.923,559.61 860.0,560.0" style="stroke:#010101; fill:none;"/>
	<path d="M 843.0,548.0 L 843.0,555.0" style="stroke:#010101; fill:none;"/>
	<path d="M 935.0,549.0 L 934.0,550.0" style="stroke:#010101; fill:none;"/>
	<path d="M 945.0,549.0 C 941.759,556.15 950.813,556.03 955.0,553.0" style="stroke:#010101; fill:none;"/>
	<path d="M 953.0,549.0 L 948.0,556.0" style="stroke:#010101; fill:none;"/>
	<path d="M 929.0,550.0 C 926.624,555.512 923.309,560.452 930.0,564.0 L 928.0,570.0" style="stroke:#010101; fill:none;"/>
	<path d="M 937.0,555.0 L 942.0,552.0" style="stroke:#010101; fill:none;"/>
	<path d="M 921.0,553.0 L 925.0,557.0" style="stroke:#010101; fill:none;"/>
	<path d="M 827.0,554.0 L 830.0,554.0" style="stroke:#010101; fill:none;"/>
	<path d="M 935.0,554.0 L 933.0,556.0" style="stroke:#010101; fill:none;"/>
	<path d="M 941.0,555.0 L 943.0,558.0 L 946.0,555.0" style="stroke:#010101; fill:none;"/>
	<path d="M 948.0,556.0 L 950.0,557.0" style="stroke:#010101; fill:none;"/>
	<path d="M 932.0,557.0 C 933.964,563.813 937.6,561.338 942.0,558.0" style="stroke:#010101; fill:none;"/>
	<path d="M 944.0,557.0 L 947.0,559.0" style="stroke:#010101; fill:none;"/>
	<path d="M 939.0,560.0 L 943.0,564.0 C 938.767,571.606 943.568,574.748 951.0,573.0" style="stroke:#010101; fill:none;"/>
	<path d="M 953.0,560.0 L 943.0,564.0" style="stroke:#010101; fill:none;"/>
	<path d="M 934.0,562.0 L 930.0,570.0 L 940.0,574.0" style="stroke:#010101; fill:none;"/>
	<path d="M 937.0,563.0 C 938.985,567.324 936.724,568.156 933.0,566.0 L 933.0,566.0" style="stroke:#010101; fill:none;"/>
	<path d="M 925.0,564.0 C 924.645,568.091 926.013,569.363 930.0,570.0" style="stroke:#010101; fill:none;"/>
	<path d="M 930.0,564.0 L 932.0,564.0" style="stroke:#010101; fill:none;"/>
	<path d="M 867.0,566.0 L 860.0,577.0" style="stroke:#010101; fill:none;"/>
	<path d="M 872.0,567.0 L 862.0,578.0" style="stroke:#010101; fill:none;"/>
	<path d="M 942.0,569.0 L 951.0,567.0" style="stroke:#010101; fill:none;"/>
	<path d="M 468.0,568.0 L 467.0,572.0" style="stroke:#010101; fill:none;"/>
	<path d="M 875.0,569.0 L 867.0,579.0" style="stroke:#010101; fill:none;"/>
	<path d="M 882.0,571.0 L 881.0,579.0" style="stroke:#010101; fill:none;"/>
	<path d="M 784.0,572.0 C 777.49,587.404 777.0,607.472 777.0,624.0" style="stroke:#010101; fill:none;"/>
	<path d="M 879.0,572.0 L 875.0,578.0" style="stroke:#010101; fill:none;"/>
	<path d="M 927.0,572.0 L 933.0,577.0" style="stroke:#010101; fill:none;"/>
	<path d="M 931.0,572.0 L 929.0,574.0" style="stroke:#010101; fill:none;"/>
	<path d="M 885.0,573.0 L 884.0,580.0" style="stroke:#010101; fill:none;"/>
	<path d="M 927.0,574.0 L 926.0,576.0" style="stroke:#010101; fill:none;"/>
	<path d="M 467.0,575.0 L 468.0,583.0" style="stroke:#010101; fill:none;"/>
	<path d="M 839.0,576.0 L 883.0,594.0" style="stroke:#010101; fill:none;"/>
	<path d="M 887.0,581.0 L 888.0,577.0 L 891.0,581.0" style="stroke:#010101; fill:none;"/>
	<path d="M 894.0,577.0 L 896.0,584.0" style="stroke:#010101; fill:none;"/>
	<path d="M 897.0,578.0 C 901.836,578.925 904.622,580.63 907.0,585.0" style="stroke:#010101; fill:none;"/>
	<path d="M 908.0,578.0 L 916.0,587.0" style="stroke:#010101; fill:none;"/>
	<path d="M 939.0,578.0 L 933.0,579.0" style="stroke:#010101; fill:none;"/>
	<path d="M 898.0,579.0 L 899.0,586.0" style="stroke:#010101; fill:none;"/>
	<path d="M 903.0,580.0 L 903.0,587.0" style="stroke:#010101; fill:none;"/>
	<path d="M 910.0,580.0 L 910.0,587.0" style="stroke:#010101; fill:none;"/>
	<path d="M 914.0,581.0 L 919.0,584.0" style="stroke:#010101; fill:none;"/>
	<path d="M 937.0,581.0 C 943.332,585.232 950.539,585.995 958.0,586.0" style="stroke:#010101; fill:none;"/>
	<path d="M 925.0,590.0 L 926.0,585.0 L 928.0,587.0" style="stroke:#010101; fill:none;"/>
	<path d="M 920.0,586.0 L 920.0,588.0" style="stroke:#010101; fill:none;"/>
	<path d="M 938.0,586.0 L 938.0,589.0" style="stroke:#010101; fill:none;"/>
	<path d="M 897.0,596.0 L 903.0,597.0" style="stroke:#010101; fill:none;"/>
	<path d="M 905.0,598.0 L 911.0,598.0" style="stroke:#010101; fill:none;"/>
	<path d="M 913.0,599.0 L 921.0,599.0" style="stroke:#010101; fill:none;"/>
	<path d="M 686.0,615.0 L 700.0,609.0" style="stroke:#010101; fill:none;"/>
	<path d="M 682.0,620.0 C 664.114,640.669 662.903,657.542 687.0,674.0" style="stroke:#010101; fill:none;"/>
	<path d="M 778.0,627.0 L 787.0,653.0" style="stroke:#010101; fill:none;"/>
	<path d="M 709.0,645.0 C 714.485,673.187 744.62,673.235 762.0,656.0" style="stroke:#010101; fill:none;"/>
	<path d="M 767.0,649.0 L 764.0,653.0" style="stroke:#010101; fill:none;"/>
	<path d="M 470.0,650.0 L 475.83,685.0 L 481.919,745.0 L 486.0,767.0" style="stroke:#010101; fill:none;"/>
	<path d="M 687.0,665.0 C 682.804,657.997 687.062,648.831 696.0,653.056 C 706.422,657.981 708.604,664.082 713.0,674.0" style="stroke:#010101; fill:none;"/>
	<path d="M 475.0,656.0 L 475.0,675.0" style="stroke:#010101; fill:none;"/>
	<path d="M 791.0,659.0 C 791.362,663.543 793.308,668.466 792.428,673.0 C 789.967,685.684 774.654,692.902 763.0,693.0" style="stroke:#010101; fill:none;"/>
	<path d="M 697.0,660.0 L 693.0,666.0" style="stroke:#010101; fill:none;"/>
	<path d="M 473.0,667.0 L 475.0,667.0" style="stroke:#010101; fill:none;"/>
	<path d="M 473.0,671.0 L 475.0,671.0" style="stroke:#010101; fill:none;"/>
	<path d="M 468.0,676.0 C 468.784,686.995 469.754,699.099 475.0,709.0" style="stroke:#010101; fill:none;"/>
	<path d="M 742.0,684.0 L 766.0,677.0 L 755.0,685.0" style="stroke:#010101; fill:none;"/>
	<path d="M 762.0,680.0 L 764.0,680.0" style="stroke:#010101; fill:none;"/>
	<path d="M 752.0,682.0 L 762.0,680.0" style="stroke:#010101; fill:none;"/>
	<path d="M 795.0,681.0 L 795.0,682.0" style="stroke:#010101; fill:none;"/>
	<path d="M 716.0,686.0 C 722.403,690.606 729.821,689.017 737.0,687.0" style="stroke:#010101; fill:none;"/>
	<path d="M 973.0,686.0 L 973.0,688.0" style="stroke:#010101; fill:none;"/>
	<path d="M 474.0,705.0 L 476.0,705.0" style="stroke:#010101; fill:none;"/>
	<path d="M 703.0,734.0 L 710.0,738.0" style="stroke:#010101; fill:none;"/>
	<path d="M 618.0,747.0 C 633.919,740.71 660.854,731.565 678.0,735.394 C 687.857,737.595 695.025,746.351 705.0,748.482 C 715.467,750.719 727.009,746.226 737.0,751.235 C 752.938,759.227 763.472,773.983 777.0,785.0" style="stroke:#010101; fill:none;"/>
	<path d="M 478.0,751.0 L 483.0,766.0" style="stroke:#010101; fill:none;"/>
	<path d="M 604.0,751.0 C 613.574,754.061 623.744,755.395 633.0,759.363 C 639.614,762.198 644.828,767.508 652.0,769.361 C 656.819,770.606 659.478,768.332 661.0,764.0 C 685.552,767.393 710.503,770.706 733.0,782.0 L 730.0,791.0 L 760.0,795.0" style="stroke:#010101; fill:none;"/>
	<path d="M 638.0,761.0 L 660.0,763.0" style="stroke:#010101; fill:none;"/>
	<path d="M 942.0,761.0 L 916.975,815.0 L 898.0,853.0 L 899.0,850.0" style="stroke:#010101; fill:none;"/>
	<path d="M 484.0,769.0 L 486.0,768.0" style="stroke:#010101; fill:none;"/>
	<path d="M 611.0,769.0 C 625.332,788.561 645.187,808.919 668.0,818.537 C 677.059,822.357 686.373,824.952 696.0,826.91 C 699.597,827.641 707.468,827.874 710.0,830.0" style="stroke:#010101; fill:none;"/>
	<path d="M 486.0,770.0 C 494.661,791.117 500.103,812.267 513.079,832.0 C 523.643,848.066 538.398,860.685 552.001,874.015 C 561.831,883.647 570.41,894.695 581.015,903.536 C 586.337,907.973 592.729,910.457 598.0,915.0" style="stroke:#010101; fill:none;"/>
	<path d="M 658.0,770.0 C 666.988,779.907 685.116,786.753 697.0,780.0" style="stroke:#010101; fill:none;"/>
	<path d="M 485.0,771.0 L 487.0,775.0" style="stroke:#010101; fill:none;"/>
	<path d="M 701.0,771.0 L 699.0,777.0" style="stroke:#010101; fill:none;"/>
	<path d="M 480.0,776.0 L 486.0,791.0" style="stroke:#010101; fill:none;"/>
	<path d="M 733.0,782.0 C 749.9,786.622 765.244,799.226 783.0,800.0" style="stroke:#010101; fill:none;"/>
	<path d="M 693.0,785.0 L 729.0,792.0" style="stroke:#010101; fill:none;"/>
	<path d="M 481.0,789.0 L 488.0,805.0" style="stroke:#010101; fill:none;"/>
	<path d="M 486.0,793.0 L 487.0,793.0" style="stroke:#010101; fill:none;"/>
	<path d="M 932.0,806.0 L 932.0,807.0" style="stroke:#010101; fill:none;"/>
	<path d="M 503.0,807.0 L 502.0,810.0" style="stroke:#010101; fill:none;"/>
	<path d="M 931.0,810.0 L 928.0,815.0" style="stroke:#010101; fill:none;"/>
	<path d="M 502.0,817.0 L 500.0,831.0" style="stroke:#010101; fill:none;"/>
	<path d="M 756.0,817.0 C 745.679,825.327 735.022,828.0 722.0,828.0 C 719.924,828.0 712.261,827.038 714.0,830.0" style="stroke:#010101; fill:none;"/>
	<path d="M 927.0,817.0 L 915.0,844.0" style="stroke:#010101; fill:none;"/>
	<path d="M 926.0,825.0 L 921.0,836.0" style="stroke:#010101; fill:none;"/>
	<path d="M 913.0,834.0 C 909.836,839.799 907.628,850.772 900.0,851.0 L 900.0,851.0" style="stroke:#010101; fill:none;"/>
	<path d="M 892.0,870.0 C 895.097,865.3 898.807,859.755 898.0,854.0 L 893.0,857.0 L 894.0,854.0 L 895.0,853.0 L 896.0,852.0 L 897.0,852.0" style="stroke:#010101; fill:none;"/>
	<path d="M 899.0,852.0 L 904.0,853.0" style="stroke:#010101; fill:none;"/>
	<path d="M 895.0,853.0 L 897.0,855.0" style="stroke:#010101; fill:none;"/>
	<path d="M 902.0,855.0 L 901.0,859.0" style="stroke:#010101; fill:none;"/>
	<path d="M 893.0,857.0 C 874.518,875.47 846.161,898.688 821.0,906.0 C 821.309,909.609 820.47,910.921 817.0,912.0 L 820.0,906.0" style="stroke:#010101; fill:none;"/>
	<path d="M 889.0,869.0 L 877.0,889.0" style="stroke:#010101; fill:none;"/>
	<path d="M 875.0,889.0 L 872.0,894.0" style="stroke:#010101; fill:none;"/>
	<path d="M 876.0,890.0 L 875.0,893.0" style="stroke:#010101; fill:none;"/>
	<path d="M 830.0,902.0 L 833.0,900.0" style="stroke:#010101; fill:none;"/>
	<path d="M 826.0,906.0 L 822.0,910.0" style="stroke:#010101; fill:none;"/>
	<path d="M 819.0,907.0 L 821.0,909.0" style="stroke:#010101; fill:none;"/>
	<path d="M 788.0,930.0 L 788.0,925.0 L 793.0,928.0 L 806.0,918.0 C 804.21,913.463 806.689,912.548 811.0,913.0 L 813.0,910.0 L 816.0,913.0" style="stroke:#010101; fill:none;"/>
	<path d="M 814.0,909.0 L 816.0,909.0" style="stroke:#010101; fill:none;"/>
	<path d="M 588.0,910.0 L 592.0,910.0" style="stroke:#010101; fill:none;"/>
	<path d="M 809.0,911.0 L 809.0,912.0" style="stroke:#010101; fill:none;"/>
	<path d="M 592.0,912.0 C 595.978,919.381 606.344,924.889 613.0,929.873 C 650.378,957.861 696.325,944.996 738.0,935.116 C 748.417,932.646 759.325,927.488 770.0,927.0 L 770.0,933.0" style="stroke:#010101; fill:none;"/>
	<path d="M 808.0,913.0 L 810.0,917.0 L 812.0,914.0" style="stroke:#010101; fill:none;"/>
	<path d="M 816.0,913.0 L 812.0,915.0" style="stroke:#010101; fill:none;"/>
	<path d="M 776.0,929.0 C 783.647,921.099 793.014,915.891 804.0,914.0" style="stroke:#010101; fill:none;"/>
	<path d="M 806.0,918.0 L 809.0,917.0" style="stroke:#010101; fill:none;"/>
	<path d="M 770.0,927.0 L 781.0,923.0" style="stroke:#010101; fill:none;"/>
	<path d="M 791.0,927.0 L 795.0,923.0" style="stroke:#010101; fill:none;"/>
	<path d="M 790.0,925.0 L 792.0,924.0" style="stroke:#010101; fill:none;"/>
	<path d="M 793.0,925.0 L 795.0,925.0" style="stroke:#010101; fill:none;"/>
	<path d="M 790.0,926.0 L 787.0,929.0" style="stroke:#010101; fill:none;"/>
	<path d="M 777.0,934.0 L 785.0,929.0" style="stroke:#010101; fill:none;"/>
	<path d="M 768.0,932.0 L 765.0,934.0" style="stroke:#010101; fill:none;"/>
	<path d="M 758.0,934.0 L 756.0,935.0" style="stroke:#010101; fill:none;"/>
	<path d="M 760.0,934.0 L 761.0,934.0" style="stroke:#010101; fill:none;"/>
	<path d="M 754.0,935.0 L 740.0,939.0" style="stroke:#010101; fill:none;"/>
	<path d="M 726.0,942.0 C 708.312,949.622 683.239,953.947 664.0,954.0" style="stroke:#010101; fill:none;"/>
</svg>
