<?xml version="1.0" ?>
<svg baseProfile="full" height="1195" version="1.1" width="1310" xmlns="http://www.w3.org/2000/svg" xmlns:ev="http://www.w3.org/2001/xml-events" xmlns:xlink="http://www.w3.org/1999/xlink">
	<defs/>
	<path d="M 426.0,165.0 L 431.0,176.0" style="stroke:#010101; fill:none;"/>
	<path d="M 435.0,166.0 C 448.486,180.641 459.862,194.184 478.0,203.247 C 484.157,206.323 492.008,210.604 499.0,210.0 L 456.0,172.0" style="stroke:#010101; fill:none;"/>
	<path d="M 396.0,170.0 L 404.0,192.0" style="stroke:#010101; fill:none;"/>
	<path d="M 424.0,171.0 L 425.0,172.0" style="stroke:#010101; fill:none;"/>
	<path d="M 412.0,178.0 L 427.0,196.0" style="stroke:#010101; fill:none;"/>
	<path d="M 389.0,180.0 L 397.0,189.0" style="stroke:#010101; fill:none;"/>
	<path d="M 386.0,184.0 C 386.34,191.792 388.788,198.19 394.0,204.0" style="stroke:#010101; fill:none;"/>
	<path d="M 380.0,194.0 C 383.158,202.048 389.214,206.894 397.0,210.0" style="stroke:#010101; fill:none;"/>
	<path d="M 376.0,199.0 C 377.021,206.58 379.152,213.994 384.0,220.0" style="stroke:#010101; fill:none;"/>
	<path d="M 382.0,201.0 L 384.0,202.0" style="stroke:#010101; fill:none;"/>
	<path d="M 386.0,203.0 L 383.0,204.0" style="stroke:#010101; fill:none;"/>
	<path d="M 533.0,205.0 C 546.953,223.153 563.272,248.822 589.0,250.0" style="stroke:#010101; fill:none;"/>
	<path d="M 371.0,206.0 C 370.617,212.717 376.019,217.107 380.0,222.0" style="stroke:#010101; fill:none;"/>
	<path d="M 384.0,206.0 L 387.0,208.0" style="stroke:#010101; fill:none;"/>
	<path d="M 521.0,208.0 C 536.208,220.209 544.486,237.091 565.0,243.0" style="stroke:#010101; fill:none;"/>
	<path d="M 499.0,209.0 L 524.0,231.0" style="stroke:#010101; fill:none;"/>
	<path d="M 543.0,211.0 C 551.218,220.401 560.506,229.032 573.0,232.0" style="stroke:#010101; fill:none;"/>
	<path d="M 361.0,218.0 L 365.0,232.0" style="stroke:#010101; fill:none;"/>
	<path d="M 559.0,220.0 L 572.0,229.0" style="stroke:#010101; fill:none;"/>
	<path d="M 358.0,221.0 C 353.65,228.377 350.374,244.528 341.0,246.0 L 342.0,250.0 L 344.0,247.0" style="stroke:#010101; fill:none;"/>
	<path d="M 584.0,224.0 C 601.52,245.285 625.627,258.407 649.0,272.0" style="stroke:#010101; fill:none;"/>
	<path d="M 352.0,225.0 L 353.0,228.0" style="stroke:#010101; fill:none;"/>
	<path d="M 575.0,230.0 L 578.0,232.0 L 575.0,233.0" style="stroke:#010101; fill:none;"/>
	<path d="M 578.0,232.0 L 580.0,232.0" style="stroke:#010101; fill:none;"/>
	<path d="M 618.0,235.0 L 626.0,243.0" style="stroke:#010101; fill:none;"/>
	<path d="M 345.0,236.0 L 345.0,239.0" style="stroke:#010101; fill:none;"/>
	<path d="M 342.0,243.0 L 342.0,245.0" style="stroke:#010101; fill:none;"/>
	<path d="M 342.0,250.0 C 337.764,267.834 325.965,282.224 319.681,299.0 C 318.282,302.732 312.339,311.852 315.647,315.508 C 318.674,318.854 325.565,313.774 330.0,316.0 L 322.0,316.0" style="stroke:#010101; fill:none;"/>
	<path d="M 591.0,251.0 L 593.0,251.0" style="stroke:#010101; fill:none;"/>
	<path d="M 634.0,252.0 L 650.0,266.0" style="stroke:#010101; fill:none;"/>
	<path d="M 652.0,269.0 L 681.0,292.0" style="stroke:#010101; fill:none;"/>
	<path d="M 684.0,288.0 L 688.0,294.0" style="stroke:#010101; fill:none;"/>
	<path d="M 315.0,290.0 L 315.0,293.0" style="stroke:#010101; fill:none;"/>
	<path d="M 690.0,297.0 L 701.0,314.0 C 702.07,311.211 702.112,310.0 699.0,310.0" style="stroke:#010101; fill:none;"/>
	<path d="M 688.0,301.0 L 701.0,323.0" style="stroke:#010101; fill:none;"/>
	<path d="M 699.0,305.0 L 701.0,309.0" style="stroke:#010101; fill:none;"/>
	<path d="M 334.0,312.0 L 334.0,318.0 L 333.0,318.0 C 331.32,313.946 332.68,312.429 335.0,309.0 C 339.686,312.169 345.216,315.821 351.0,315.0 L 350.0,314.0 L 344.0,319.0 L 343.0,314.0" style="stroke:#010101; fill:none;"/>
	<path d="M 338.0,311.0 L 336.0,313.0" style="stroke:#010101; fill:none;"/>
	<path d="M 704.0,314.0 L 719.0,352.0" style="stroke:#010101; fill:none;"/>
	<path d="M 332.0,315.0 L 335.0,315.0" style="stroke:#010101; fill:none;"/>
	<path d="M 352.0,316.0 L 370.0,322.0 L 365.0,322.0" style="stroke:#010101; fill:none;"/>
	<path d="M 701.0,315.0 L 703.0,317.0" style="stroke:#010101; fill:none;"/>
	<path d="M 313.0,316.0 C 307.305,333.36 303.341,350.757 297.975,368.0 C 296.743,371.958 290.892,382.989 294.425,386.396 C 298.089,389.929 310.673,383.666 315.0,382.0 L 309.0,375.0" style="stroke:#010101; fill:none;"/>
	<path d="M 336.0,316.0 L 340.0,316.0" style="stroke:#010101; fill:none;"/>
	<path d="M 352.0,316.0 L 350.0,323.0 L 349.0,318.0" style="stroke:#010101; fill:none;"/>
	<path d="M 339.0,317.0 L 334.0,318.0" style="stroke:#010101; fill:none;"/>
	<path d="M 703.0,317.0 L 704.0,320.0" style="stroke:#010101; fill:none;"/>
	<path d="M 352.0,318.0 L 370.0,337.0" style="stroke:#010101; fill:none;"/>
	<path d="M 339.0,319.0 L 343.0,319.0" style="stroke:#010101; fill:none;"/>
	<path d="M 345.0,319.0 L 347.0,321.0" style="stroke:#010101; fill:none;"/>
	<path d="M 346.0,320.0 L 347.0,326.0" style="stroke:#010101; fill:none;"/>
	<path d="M 342.0,321.0 L 344.0,323.0" style="stroke:#010101; fill:none;"/>
	<path d="M 353.0,322.0 L 359.0,334.0" style="stroke:#010101; fill:none;"/>
	<path d="M 371.0,322.0 L 372.0,327.0 L 373.0,324.0" style="stroke:#010101; fill:none;"/>
	<path d="M 359.0,323.0 L 364.0,330.0" style="stroke:#010101; fill:none;"/>
	<path d="M 580.0,326.0 C 577.234,330.803 571.04,330.372 566.0,331.25 C 554.339,333.28 543.45,338.287 532.0,341.0 C 535.71,334.579 545.624,333.852 552.0,331.147 C 557.257,328.917 561.169,325.31 567.0,324.168 C 583.678,320.902 612.27,323.99 624.0,338.0 L 621.0,341.0" style="stroke:#010101; fill:none;"/>
	<path d="M 350.0,324.0 L 352.0,325.0" style="stroke:#010101; fill:none;"/>
	<path d="M 556.0,328.0 L 551.0,325.0 L 559.0,326.0" style="stroke:#010101; fill:none;"/>
	<path d="M 585.0,324.0 L 585.0,328.0 L 589.0,325.0" style="stroke:#010101; fill:none;"/>
	<path d="M 352.0,325.0 L 355.0,328.0" style="stroke:#010101; fill:none;"/>
	<path d="M 368.0,325.0 L 373.0,326.0" style="stroke:#010101; fill:none;"/>
	<path d="M 375.0,325.0 C 379.991,329.991 389.27,336.397 389.0,344.0 L 376.0,332.0 L 384.0,344.0" style="stroke:#010101; fill:none;"/>
	<path d="M 552.0,327.0 L 544.0,327.0 L 551.0,325.0" style="stroke:#010101; fill:none;"/>
	<path d="M 357.0,326.0 L 359.0,328.0" style="stroke:#010101; fill:none;"/>
	<path d="M 541.0,328.0 L 543.0,328.0" style="stroke:#010101; fill:none;"/>
	<path d="M 543.0,326.0 L 542.0,327.0" style="stroke:#010101; fill:none;"/>
	<path d="M 568.0,326.0 L 571.0,325.0" style="stroke:#010101; fill:none;"/>
	<path d="M 577.0,326.0 L 577.0,329.0" style="stroke:#010101; fill:none;"/>
	<path d="M 303.0,327.0 L 303.0,328.0" style="stroke:#010101; fill:none;"/>
	<path d="M 352.0,327.0 L 352.0,328.0" style="stroke:#010101; fill:none;"/>
	<path d="M 541.0,328.0 L 535.0,333.0 C 534.938,329.223 536.425,328.037 540.0,327.0" style="stroke:#010101; fill:none;"/>
	<path d="M 372.0,328.0 L 376.0,332.0" style="stroke:#010101; fill:none;"/>
	<path d="M 580.0,328.0 L 584.0,329.0" style="stroke:#010101; fill:none;"/>
	<path d="M 366.0,329.0 L 379.0,343.0" style="stroke:#010101; fill:none;"/>
	<path d="M 493.0,329.0 C 481.663,335.687 476.099,342.561 470.0,354.0" style="stroke:#010101; fill:none;"/>
	<path d="M 481.0,355.0 C 482.583,342.116 498.675,330.988 511.0,329.522 C 514.494,329.106 517.547,330.968 521.0,330.915 C 525.878,330.841 529.308,328.867 534.0,331.0" style="stroke:#010101; fill:none;"/>
	<path d="M 536.0,329.0 L 538.0,331.0" style="stroke:#010101; fill:none;"/>
	<path d="M 545.0,329.0 L 539.0,330.0" style="stroke:#010101; fill:none;"/>
	<path d="M 587.0,329.0 L 600.0,331.0 L 592.0,330.0" style="stroke:#010101; fill:none;"/>
	<path d="M 302.0,330.0 L 297.0,350.0" style="stroke:#010101; fill:none;"/>
	<path d="M 361.0,330.0 L 362.0,331.0" style="stroke:#010101; fill:none;"/>
	<path d="M 494.0,331.0 L 501.0,330.0" style="stroke:#010101; fill:none;"/>
	<path d="M 596.0,330.0 L 596.0,332.0" style="stroke:#010101; fill:none;"/>
	<path d="M 601.0,331.0 C 606.584,332.051 616.985,334.883 618.0,341.0" style="stroke:#010101; fill:none;"/>
	<path d="M 382.0,332.0 L 380.0,334.0" style="stroke:#010101; fill:none;"/>
	<path d="M 476.0,348.0 L 493.0,332.0" style="stroke:#010101; fill:none;"/>
	<path d="M 487.0,351.0 L 516.0,331.0" style="stroke:#010101; fill:none;"/>
	<path d="M 522.0,332.0 L 493.0,347.0" style="stroke:#010101; fill:none;"/>
	<path d="M 533.0,333.0 L 527.0,335.0 L 533.0,333.0" style="stroke:#010101; fill:none;"/>
	<path d="M 602.0,333.0 L 606.0,333.0" style="stroke:#010101; fill:none;"/>
	<path d="M 494.0,334.0 L 491.0,337.0" style="stroke:#010101; fill:none;"/>
	<path d="M 503.0,336.0 L 505.0,335.0" style="stroke:#010101; fill:none;"/>
	<path d="M 528.0,337.0 C 521.212,340.175 511.538,346.566 504.0,345.0 L 527.0,335.0" style="stroke:#010101; fill:none;"/>
	<path d="M 489.0,340.0 L 503.0,336.0" style="stroke:#010101; fill:none;"/>
	<path d="M 614.0,338.0 L 616.0,340.0" style="stroke:#010101; fill:none;"/>
	<path d="M 620.0,338.0 L 621.0,339.0" style="stroke:#010101; fill:none;"/>
	<path d="M 388.0,339.0 L 386.0,341.0" style="stroke:#010101; fill:none;"/>
	<path d="M 531.0,342.0 L 532.0,340.0" style="stroke:#010101; fill:none;"/>
	<path d="M 487.0,343.0 L 489.0,340.0" style="stroke:#010101; fill:none;"/>
	<path d="M 523.0,343.0 L 523.0,345.0 L 530.0,341.0" style="stroke:#010101; fill:none;"/>
	<path d="M 632.0,345.0 C 636.986,344.659 638.327,347.888 636.0,352.0 C 633.417,345.557 628.057,340.732 621.0,342.0" style="stroke:#010101; fill:none;"/>
	<path d="M 629.0,341.0 L 633.0,343.0" style="stroke:#010101; fill:none;"/>
	<path d="M 483.0,346.0 L 486.0,342.0" style="stroke:#010101; fill:none;"/>
	<path d="M 628.0,342.0 L 625.0,346.0 L 634.0,352.0" style="stroke:#010101; fill:none;"/>
	<path d="M 511.0,349.0 L 521.0,344.0" style="stroke:#010101; fill:none;"/>
	<path d="M 622.0,344.0 L 625.0,345.0" style="stroke:#010101; fill:none;"/>
	<path d="M 389.0,345.0 C 394.552,356.731 399.684,370.74 392.522,383.0 C 387.776,391.124 380.31,396.754 374.514,404.0 C 357.924,424.742 335.329,444.764 324.0,469.0" style="stroke:#010101; fill:none;"/>
	<path d="M 481.0,348.0 L 483.0,346.0" style="stroke:#010101; fill:none;"/>
	<path d="M 637.0,346.0 L 635.0,348.0" style="stroke:#010101; fill:none;"/>
	<path d="M 496.0,349.0 L 504.0,346.0" style="stroke:#010101; fill:none;"/>
	<path d="M 633.0,347.0 L 635.0,351.0" style="stroke:#010101; fill:none;"/>
	<path d="M 481.0,348.0 L 478.0,353.0" style="stroke:#010101; fill:none;"/>
	<path d="M 637.0,349.0 L 639.0,350.0" style="stroke:#010101; fill:none;"/>
	<path d="M 639.0,350.0 L 640.0,357.0 L 641.0,353.0" style="stroke:#010101; fill:none;"/>
	<path d="M 637.0,352.0 L 637.0,355.0" style="stroke:#010101; fill:none;"/>
	<path d="M 637.0,352.0 L 639.0,354.0" style="stroke:#010101; fill:none;"/>
	<path d="M 317.0,417.0 L 322.0,417.0 L 314.0,417.0 L 313.448,391.174 L 328.0,379.88 L 335.079,374.985 L 325.0,360.0 L 342.0,354.0" style="stroke:#010101; fill:none;"/>
	<path d="M 642.0,354.0 L 645.0,359.0 L 640.0,358.0" style="stroke:#010101; fill:none;"/>
	<path d="M 740.0,354.0 L 761.0,399.0" style="stroke:#010101; fill:none;"/>
	<path d="M 341.0,357.0 C 360.587,360.504 372.0,366.493 386.0,381.0" style="stroke:#010101; fill:none;"/>
	<path d="M 343.0,358.0 C 342.478,364.612 341.416,368.58 346.0,374.0 C 341.191,379.039 335.143,385.775 334.228,393.0 C 332.191,409.08 346.647,417.456 360.0,414.0" style="stroke:#010101; fill:none;"/>
	<path d="M 303.0,359.0 L 306.0,383.0" style="stroke:#010101; fill:none;"/>
	<path d="M 645.0,359.0 L 660.0,378.0 L 656.0,374.0" style="stroke:#010101; fill:none;"/>
	<path d="M 308.0,372.0 L 325.0,360.0" style="stroke:#010101; fill:none;"/>
	<path d="M 361.0,362.0 L 362.0,378.0 L 354.0,372.0" style="stroke:#010101; fill:none;"/>
	<path d="M 331.0,370.0 L 334.0,371.0" style="stroke:#010101; fill:none;"/>
	<path d="M 317.0,371.0 L 326.0,378.0" style="stroke:#010101; fill:none;"/>
	<path d="M 748.0,372.0 L 749.0,374.0" style="stroke:#010101; fill:none;"/>
	<path d="M 755.0,372.0 C 759.828,385.306 767.088,397.658 768.0,412.0" style="stroke:#010101; fill:none;"/>
	<path d="M 501.0,394.0 C 501.893,395.146 505.738,400.796 501.093,400.079 C 497.235,399.483 495.067,394.278 497.377,391.3 C 501.899,385.469 512.304,379.86 519.0,376.951 C 547.157,364.72 580.123,381.136 600.0,401.0" style="stroke:#010101; fill:none;"/>
	<path d="M 332.0,374.0 L 342.0,377.0" style="stroke:#010101; fill:none;"/>
	<path d="M 346.0,374.0 L 357.0,377.0" style="stroke:#010101; fill:none;"/>
	<path d="M 473.0,374.0 C 455.493,387.359 437.529,398.048 424.0,416.0" style="stroke:#010101; fill:none;"/>
	<path d="M 749.0,374.0 L 749.0,376.0" style="stroke:#010101; fill:none;"/>
	<path d="M 345.0,375.0 L 348.0,377.0" style="stroke:#010101; fill:none;"/>
	<path d="M 290.0,376.0 C 288.456,380.152 288.03,382.538 291.0,386.0" style="stroke:#010101; fill:none;"/>
	<path d="M 292.0,377.0 L 294.0,379.0" style="stroke:#010101; fill:none;"/>
	<path d="M 362.0,378.0 C 368.622,382.508 378.159,382.191 382.0,390.0" style="stroke:#010101; fill:none;"/>
	<path d="M 295.0,380.0 L 304.0,384.0" style="stroke:#010101; fill:none;"/>
	<path d="M 659.0,380.0 L 664.0,386.0" style="stroke:#010101; fill:none;"/>
	<path d="M 315.0,382.0 L 321.0,381.0" style="stroke:#010101; fill:none;"/>
	<path d="M 534.0,381.0 L 534.0,393.0 C 529.038,394.483 516.537,393.109 518.0,400.0 L 522.0,397.0" style="stroke:#010101; fill:none;"/>
	<path d="M 522.0,383.0 L 523.0,395.0" style="stroke:#010101; fill:none;"/>
	<path d="M 763.0,383.0 L 765.0,388.0" style="stroke:#010101; fill:none;"/>
	<path d="M 287.0,385.0 C 281.587,402.08 305.01,396.421 308.0,385.0" style="stroke:#010101; fill:none;"/>
	<path d="M 515.0,385.0 L 519.0,394.0" style="stroke:#010101; fill:none;"/>
	<path d="M 291.0,386.0 L 293.0,394.0" style="stroke:#010101; fill:none;"/>
	<path d="M 356.0,390.0 C 360.105,389.827 362.626,390.736 365.0,387.0 C 370.087,393.233 370.046,405.432 359.0,403.0 L 368.0,391.0" style="stroke:#010101; fill:none;"/>
	<path d="M 303.0,388.0 L 305.0,391.0" style="stroke:#010101; fill:none;"/>
	<path d="M 361.0,388.0 L 364.0,388.0" style="stroke:#010101; fill:none;"/>
	<path d="M 507.0,389.0 C 508.947,393.434 510.957,396.594 516.0,397.0" style="stroke:#010101; fill:none;"/>
	<path d="M 547.0,389.0 C 545.77,399.915 531.848,401.971 524.0,397.0" style="stroke:#010101; fill:none;"/>
	<path d="M 364.0,390.0 L 366.0,392.0" style="stroke:#010101; fill:none;"/>
	<path d="M 291.0,392.0 L 289.0,394.0" style="stroke:#010101; fill:none;"/>
	<path d="M 767.0,392.0 L 766.0,395.0" style="stroke:#010101; fill:none;"/>
	<path d="M 310.0,394.0 L 312.0,393.0" style="stroke:#010101; fill:none;"/>
	<path d="M 562.0,393.0 C 557.141,401.152 552.66,394.274 546.861,398.518 C 532.42,409.086 531.611,429.876 550.0,437.0" style="stroke:#010101; fill:none;"/>
	<path d="M 493.0,394.0 L 487.0,401.0" style="stroke:#010101; fill:none;"/>
	<path d="M 285.0,395.0 L 283.0,399.0" style="stroke:#010101; fill:none;"/>
	<path d="M 535.0,395.0 L 538.0,396.0" style="stroke:#010101; fill:none;"/>
	<path d="M 287.0,396.0 L 286.0,402.0" style="stroke:#010101; fill:none;"/>
	<path d="M 294.0,396.0 L 294.0,398.0" style="stroke:#010101; fill:none;"/>
	<path d="M 539.0,397.0 L 543.0,402.0" style="stroke:#010101; fill:none;"/>
	<path d="M 492.0,398.0 C 494.718,401.734 496.938,404.212 501.0,401.0" style="stroke:#010101; fill:none;"/>
	<path d="M 510.0,398.0 C 509.391,404.127 504.354,406.88 499.0,404.0" style="stroke:#010101; fill:none;"/>
	<path d="M 590.0,398.0 L 580.961,406.404 L 559.0,399.0" style="stroke:#010101; fill:none;"/>
	<path d="M 505.0,399.0 L 509.0,398.0" style="stroke:#010101; fill:none;"/>
	<path d="M 517.0,399.0 L 511.0,401.0" style="stroke:#010101; fill:none;"/>
	<path d="M 353.0,400.0 L 359.0,403.0" style="stroke:#010101; fill:none;"/>
	<path d="M 303.0,401.0 C 298.116,412.502 296.313,425.324 291.302,437.0 C 278.556,466.697 261.852,494.98 255.449,527.0 C 249.349,557.503 251.94,589.311 255.008,620.0 C 258.912,659.037 265.031,698.59 273.211,737.0 C 275.324,746.922 277.996,756.516 281.576,766.0 C 283.423,770.891 286.816,775.889 285.0,781.0" style="stroke:#010101; fill:none;"/>
	<path d="M 504.0,401.0 L 507.0,404.0" style="stroke:#010101; fill:none;"/>
	<path d="M 308.0,403.0 C 308.045,408.371 308.219,413.261 314.0,415.0" style="stroke:#010101; fill:none;"/>
	<path d="M 537.0,403.0 L 540.0,405.0" style="stroke:#010101; fill:none;"/>
	<path d="M 564.0,403.0 C 563.004,409.398 570.511,407.68 572.153,413.048 C 575.443,423.803 561.285,427.073 555.0,421.0 C 561.088,417.447 563.234,411.424 555.0,409.0" style="stroke:#010101; fill:none;"/>
	<path d="M 496.0,404.0 C 492.663,407.074 485.705,411.122 485.06,415.999 C 484.356,421.323 494.395,427.334 498.812,424.303 C 502.39,421.849 501.502,413.941 502.0,410.0 C 495.461,413.152 495.259,418.332 499.0,424.0" style="stroke:#010101; fill:none;"/>
	<path d="M 576.0,406.0 L 572.0,410.0" style="stroke:#010101; fill:none;"/>
	<path d="M 765.0,406.0 L 764.17,439.0 L 768.441,468.0 L 765.0,498.0" style="stroke:#010101; fill:none;"/>
	<path d="M 777.0,406.0 L 777.039,441.0 L 778.0,505.0" style="stroke:#010101; fill:none;"/>
	<path d="M 559.0,409.0 L 562.0,408.0" style="stroke:#010101; fill:none;"/>
	<path d="M 504.0,408.0 L 502.0,410.0" style="stroke:#010101; fill:none;"/>
	<path d="M 583.0,409.0 C 595.097,413.086 601.019,423.822 609.0,410.0" style="stroke:#010101; fill:none;"/>
	<path d="M 303.0,411.0 L 302.0,412.0" style="stroke:#010101; fill:none;"/>
	<path d="M 615.0,411.0 C 612.44,414.079 604.675,419.299 605.35,423.698 C 606.213,429.32 624.846,426.0 629.0,426.0" style="stroke:#010101; fill:none;"/>
	<path d="M 590.0,412.0 C 591.284,416.905 593.58,420.805 599.0,419.0" style="stroke:#010101; fill:none;"/>
	<path d="M 310.0,414.0 L 302.0,428.0" style="stroke:#010101; fill:none;"/>
	<path d="M 291.0,415.0 L 266.0,470.0" style="stroke:#010101; fill:none;"/>
	<path d="M 314.0,417.0 L 306.0,424.0" style="stroke:#010101; fill:none;"/>
	<path d="M 322.0,417.0 C 329.621,417.779 337.863,419.434 345.0,416.0" style="stroke:#010101; fill:none;"/>
	<path d="M 583.0,417.0 C 587.818,437.485 562.443,444.546 547.0,440.855 C 541.944,439.647 536.228,435.641 531.0,435.836 C 526.88,435.989 524.142,439.97 522.0,443.0 L 528.0,439.0" style="stroke:#010101; fill:none;"/>
	<path d="M 325.0,419.0 C 321.939,421.009 321.939,421.991 325.0,424.0 L 319.0,433.0 L 322.0,423.0" style="stroke:#010101; fill:none;"/>
	<path d="M 354.0,419.0 L 349.0,423.0" style="stroke:#010101; fill:none;"/>
	<path d="M 602.0,420.0 L 603.0,422.0" style="stroke:#010101; fill:none;"/>
	<path d="M 347.0,421.0 L 341.0,426.0" style="stroke:#010101; fill:none;"/>
	<path d="M 596.0,421.0 L 599.0,426.0 L 603.0,422.0" style="stroke:#010101; fill:none;"/>
	<path d="M 326.0,424.0 L 329.0,422.0" style="stroke:#010101; fill:none;"/>
	<path d="M 338.0,422.0 L 333.0,428.0" style="stroke:#010101; fill:none;"/>
	<path d="M 502.0,423.0 C 507.471,430.696 518.907,432.775 528.0,434.0" style="stroke:#010101; fill:none;"/>
	<path d="M 596.0,423.0 L 592.0,433.0" style="stroke:#010101; fill:none;"/>
	<path d="M 499.0,425.0 L 503.0,428.0" style="stroke:#010101; fill:none;"/>
	<path d="M 599.0,426.0 C 603.506,436.348 578.688,442.294 570.0,441.0" style="stroke:#010101; fill:none;"/>
	<path d="M 605.0,426.0 L 602.0,429.0" style="stroke:#010101; fill:none;"/>
	<path d="M 421.0,428.0 L 409.0,450.0" style="stroke:#010101; fill:none;"/>
	<path d="M 518.0,434.0 L 504.0,432.0" style="stroke:#010101; fill:none;"/>
	<path d="M 500.0,444.0 L 500.0,433.0 L 501.0,433.0 L 502.0,433.0" style="stroke:#010101; fill:none;"/>
	<path d="M 332.0,434.0 L 338.0,434.0" style="stroke:#010101; fill:none;"/>
	<path d="M 494.0,438.0 L 497.0,436.0" style="stroke:#010101; fill:none;"/>
	<path d="M 505.0,443.0 C 503.068,438.701 505.363,437.366 509.0,435.0" style="stroke:#010101; fill:none;"/>
	<path d="M 522.0,437.0 L 517.0,442.0" style="stroke:#010101; fill:none;"/>
	<path d="M 591.0,441.0 L 599.0,439.0" style="stroke:#010101; fill:none;"/>
	<path d="M 601.0,440.0 L 605.0,443.0" style="stroke:#010101; fill:none;"/>
	<path d="M 595.0,441.0 L 600.0,443.0 L 598.0,442.0" style="stroke:#010101; fill:none;"/>
	<path d="M 536.0,444.0 L 539.0,450.0 L 543.0,444.0" style="stroke:#010101; fill:none;"/>
	<path d="M 549.0,442.0 L 549.0,446.0" style="stroke:#010101; fill:none;"/>
	<path d="M 601.0,443.0 L 606.0,446.0" style="stroke:#010101; fill:none;"/>
	<path d="M 508.0,444.0 L 512.0,447.0" style="stroke:#010101; fill:none;"/>
	<path d="M 523.0,444.0 L 516.0,449.0" style="stroke:#010101; fill:none;"/>
	<path d="M 586.0,444.0 L 597.0,448.0" style="stroke:#010101; fill:none;"/>
	<path d="M 528.0,445.0 L 533.0,447.0" style="stroke:#010101; fill:none;"/>
	<path d="M 553.0,445.0 L 555.0,450.0" style="stroke:#010101; fill:none;"/>
	<path d="M 565.0,445.0 L 567.0,455.0" style="stroke:#010101; fill:none;"/>
	<path d="M 557.0,447.0 L 558.0,451.0" style="stroke:#010101; fill:none;"/>
	<path d="M 576.0,455.0 C 576.054,450.456 576.256,448.087 581.0,447.0" style="stroke:#010101; fill:none;"/>
	<path d="M 535.0,448.0 L 537.0,448.0" style="stroke:#010101; fill:none;"/>
	<path d="M 580.0,448.0 L 580.0,451.0" style="stroke:#010101; fill:none;"/>
	<path d="M 568.0,450.0 L 573.0,449.0" style="stroke:#010101; fill:none;"/>
	<path d="M 543.0,451.0 L 551.0,452.0" style="stroke:#010101; fill:none;"/>
	<path d="M 523.0,452.0 L 527.0,453.0" style="stroke:#010101; fill:none;"/>
	<path d="M 529.0,454.0 L 535.0,456.0" style="stroke:#010101; fill:none;"/>
	<path d="M 537.0,457.0 L 554.0,460.0" style="stroke:#010101; fill:none;"/>
	<path d="M 556.0,461.0 L 566.0,462.0" style="stroke:#010101; fill:none;"/>
	<path d="M 569.0,463.0 L 578.0,463.0" style="stroke:#010101; fill:none;"/>
	<path d="M 770.0,472.0 C 770.636,476.724 770.991,482.354 776.0,484.0" style="stroke:#010101; fill:none;"/>
	<path d="M 324.0,473.0 L 325.0,508.0 L 328.0,507.0" style="stroke:#010101; fill:none;"/>
	<path d="M 418.0,481.0 C 430.592,485.878 445.961,509.019 442.596,523.0 C 439.452,536.064 429.826,543.287 418.0,548.0" style="stroke:#010101; fill:none;"/>
	<path d="M 363.0,494.0 C 375.596,477.606 390.665,482.199 407.0,489.0" style="stroke:#010101; fill:none;"/>
	<path d="M 773.0,484.0 L 775.0,488.0" style="stroke:#010101; fill:none;"/>
	<path d="M 861.0,509.0 C 862.673,503.347 867.737,501.851 873.0,500.294 C 883.118,497.301 902.719,489.808 911.0,499.0" style="stroke:#010101; fill:none;"/>
	<path d="M 910.0,495.0 L 924.0,499.0 L 923.0,496.0" style="stroke:#010101; fill:none;"/>
	<path d="M 868.0,497.0 L 868.0,500.0" style="stroke:#010101; fill:none;"/>
	<path d="M 924.0,500.0 C 937.678,514.986 936.504,535.944 935.0,555.0" style="stroke:#010101; fill:none;"/>
	<path d="M 861.0,501.0 L 862.0,503.0" style="stroke:#010101; fill:none;"/>
	<path d="M 325.0,504.0 L 325.0,505.0" style="stroke:#010101; fill:none;"/>
	<path d="M 856.0,532.0 C 862.561,517.206 885.876,508.255 901.0,506.289 C 907.169,505.488 915.677,504.959 920.072,510.144 C 941.248,535.126 921.392,572.027 904.0,592.0" style="stroke:#010101; fill:none;"/>
	<path d="M 857.0,508.0 L 860.0,506.0" style="stroke:#010101; fill:none;"/>
	<path d="M 327.0,508.0 L 334.0,523.0 C 328.871,520.186 326.836,514.58 326.0,509.0" style="stroke:#010101; fill:none;"/>
	<path d="M 333.0,509.0 L 346.0,528.0" style="stroke:#010101; fill:none;"/>
	<path d="M 378.0,512.0 C 386.777,512.073 394.093,514.805 400.996,520.289 C 403.543,522.313 408.71,526.038 405.458,529.643 C 402.836,532.549 398.771,530.294 396.0,528.891 C 388.731,525.213 379.381,521.478 377.0,513.0 C 366.276,513.462 354.402,519.37 363.0,531.0" style="stroke:#010101; fill:none;"/>
	<path d="M 935.0,513.0 L 940.0,520.0" style="stroke:#010101; fill:none;"/>
	<path d="M 253.0,518.0 L 258.0,514.0" style="stroke:#010101; fill:none;"/>
	<path d="M 778.0,515.0 C 776.824,571.986 779.874,634.393 756.0,688.0" style="stroke:#010101; fill:none;"/>
	<path d="M 878.0,520.0 L 861.0,537.0" style="stroke:#010101; fill:none;"/>
	<path d="M 873.0,523.0 L 876.0,522.0" style="stroke:#010101; fill:none;"/>
	<path d="M 335.0,523.0 C 341.281,528.287 342.367,535.046 343.0,543.0" style="stroke:#010101; fill:none;"/>
	<path d="M 859.0,533.0 L 873.0,523.0" style="stroke:#010101; fill:none;"/>
	<path d="M 852.0,524.0 L 854.83,581.0 L 858.0,602.0 C 869.469,592.428 862.621,571.918 856.0,561.0" style="stroke:#010101; fill:none;"/>
	<path d="M 879.0,527.0 L 868.0,538.0" style="stroke:#010101; fill:none;"/>
	<path d="M 347.0,531.0 L 348.0,538.0" style="stroke:#010101; fill:none;"/>
	<path d="M 881.0,531.0 L 874.0,540.0" style="stroke:#010101; fill:none;"/>
	<path d="M 902.0,535.0 C 908.634,547.641 906.419,563.985 901.782,577.0 C 890.545,608.545 858.116,631.634 826.0,639.0" style="stroke:#010101; fill:none;"/>
	<path d="M 883.0,536.0 L 878.0,542.0" style="stroke:#010101; fill:none;"/>
	<path d="M 353.0,539.0 L 362.0,539.0" style="stroke:#010101; fill:none;"/>
	<path d="M 885.0,540.0 L 884.0,545.0" style="stroke:#010101; fill:none;"/>
	<path d="M 846.0,545.0 L 847.0,570.0" style="stroke:#010101; fill:none;"/>
	<path d="M 846.0,550.0 L 852.0,554.0" style="stroke:#010101; fill:none;"/>
	<path d="M 848.0,554.0 L 848.0,559.0" style="stroke:#010101; fill:none;"/>
	<path d="M 246.0,565.0 L 251.0,559.0" style="stroke:#010101; fill:none;"/>
	<path d="M 849.0,561.0 L 850.0,571.0" style="stroke:#010101; fill:none;"/>
	<path d="M 815.0,563.0 L 815.0,567.0" style="stroke:#010101; fill:none;"/>
	<path d="M 862.0,571.0 L 862.0,575.0" style="stroke:#010101; fill:none;"/>
	<path d="M 863.0,574.0 L 863.0,579.0" style="stroke:#010101; fill:none;"/>
	<path d="M 815.0,576.0 C 813.664,585.92 810.506,593.286 803.0,600.0" style="stroke:#010101; fill:none;"/>
	<path d="M 930.0,576.0 L 930.0,577.0" style="stroke:#010101; fill:none;"/>
	<path d="M 284.0,626.0 C 286.383,607.158 296.203,578.32 320.0,578.932 C 327.878,579.135 338.247,585.478 346.0,588.0" style="stroke:#010101; fill:none;"/>
	<path d="M 864.0,578.0 L 866.0,587.0" style="stroke:#010101; fill:none;"/>
	<path d="M 929.0,579.0 L 918.819,600.0 L 916.997,610.633 L 909.303,613.701 L 905.0,622.0 C 897.023,617.87 891.004,626.481 885.0,631.386 C 872.303,641.758 858.63,650.918 845.0,660.0 C 838.913,664.056 830.313,667.221 827.0,674.0" style="stroke:#010101; fill:none;"/>
	<path d="M 348.0,588.0 L 371.0,588.617 L 394.0,602.0 L 439.0,637.0" style="stroke:#010101; fill:none;"/>
	<path d="M 920.0,598.0 L 921.0,609.0" style="stroke:#010101; fill:none;"/>
	<path d="M 826.0,601.0 C 825.623,603.97 823.897,608.789 825.89,611.436 C 833.735,621.858 854.081,610.332 858.0,602.0" style="stroke:#010101; fill:none;"/>
	<path d="M 912.0,610.0 L 917.0,602.0" style="stroke:#010101; fill:none;"/>
	<path d="M 798.0,625.0 C 797.403,617.822 803.974,607.484 812.0,607.274 C 816.023,607.168 820.165,609.943 824.0,611.0" style="stroke:#010101; fill:none;"/>
	<path d="M 800.0,608.0 L 800.0,613.0" style="stroke:#010101; fill:none;"/>
	<path d="M 824.0,614.0 L 819.0,637.0" style="stroke:#010101; fill:none;"/>
	<path d="M 900.0,619.0 L 907.0,615.0" style="stroke:#010101; fill:none;"/>
	<path d="M 250.0,619.0 L 254.0,617.0" style="stroke:#010101; fill:none;"/>
	<path d="M 332.0,621.0 C 332.568,629.439 327.258,630.873 320.0,627.0 C 329.44,615.579 341.086,621.406 353.0,623.985 C 362.136,625.963 372.148,623.702 381.0,625.928 C 393.692,629.12 403.477,637.721 417.0,639.0" style="stroke:#010101; fill:none;"/>
	<path d="M 898.0,620.0 L 903.0,621.0" style="stroke:#010101; fill:none;"/>
	<path d="M 901.0,623.0 L 901.0,626.0" style="stroke:#010101; fill:none;"/>
	<path d="M 896.0,626.0 L 895.0,631.0" style="stroke:#010101; fill:none;"/>
	<path d="M 283.0,632.0 L 302.0,634.617 L 319.0,628.0" style="stroke:#010101; fill:none;"/>
	<path d="M 333.0,630.0 L 376.0,635.521 L 396.0,633.0" style="stroke:#010101; fill:none;"/>
	<path d="M 361.0,631.0 L 362.0,631.0" style="stroke:#010101; fill:none;"/>
	<path d="M 792.0,638.0 L 791.0,650.0 C 802.391,648.552 798.334,662.278 790.0,664.0" style="stroke:#010101; fill:none;"/>
	<path d="M 818.0,640.0 L 818.0,643.0" style="stroke:#010101; fill:none;"/>
	<path d="M 415.0,641.0 C 428.522,648.892 441.49,652.0 457.0,652.0" style="stroke:#010101; fill:none;"/>
	<path d="M 443.0,641.0 L 456.0,648.0" style="stroke:#010101; fill:none;"/>
	<path d="M 817.0,645.0 L 817.0,647.0" style="stroke:#010101; fill:none;"/>
	<path d="M 761.0,649.0 C 754.422,684.303 735.133,719.075 708.961,743.83 C 683.535,767.879 645.573,789.462 633.0,824.0 C 640.293,824.01 648.091,816.983 654.0,813.0" style="stroke:#010101; fill:none;"/>
	<path d="M 816.0,649.0 L 816.0,651.0" style="stroke:#010101; fill:none;"/>
	<path d="M 790.0,651.0 C 788.343,656.095 785.135,662.52 785.333,667.942 C 785.551,673.96 791.421,673.203 787.0,680.0 C 793.628,685.889 809.216,686.027 811.0,675.0" style="stroke:#010101; fill:none;"/>
	<path d="M 298.0,655.0 C 301.035,663.921 310.476,668.166 319.0,670.572 C 338.297,676.018 359.149,675.0 379.0,675.0" style="stroke:#010101; fill:none;"/>
	<path d="M 387.0,671.0 C 402.691,672.753 418.664,664.256 434.0,662.0" style="stroke:#010101; fill:none;"/>
	<path d="M 811.0,679.0 L 827.0,672.0" style="stroke:#010101; fill:none;"/>
	<path d="M 782.0,682.0 L 787.0,680.0" style="stroke:#010101; fill:none;"/>
	<path d="M 808.0,683.0 L 805.0,689.0" style="stroke:#010101; fill:none;"/>
	<path d="M 287.0,780.0 L 302.0,796.39 L 337.0,811.971 L 397.0,831.0" style="stroke:#010101; fill:none;"/>
	<path d="M 633.0,824.0 L 621.0,832.0" style="stroke:#010101; fill:none;"/>
	<path d="M 387.0,830.0 L 392.0,848.0" style="stroke:#010101; fill:none;"/>
	<path d="M 629.0,830.0 C 620.426,855.712 610.003,880.33 610.0,908.0" style="stroke:#010101; fill:none;"/>
</svg>
